<svg style="background:transparent" version="1.1" xmlns="http://www.w3.org/2000/svg" viewBox="0 0 1248 704"><path d="M973.06 105.87c18.62.04 18.62.04 26.94 3.13q3.22.84 6.48 1.55a40 40 0 0 1 15.33 6.9 66 66 0 0 0 6.81 4.12c4.85 2.63 9.45 5.5 13.38 9.43q2.76 2.3 5.54 4.57L1049 137v2l1.7.63c3.12 1.86 4.98 4.44 7.11 7.3l1.33 1.78A139 139 0 0 1 1076 178l.97 2.19c2 5.12 2.7 10.46 3.4 15.88l.33 2.29c.95 8.3-1.93 14.42-7.02 20.88a22 22 0 0 1-14.93 6.95c-9.4-.47-14.1-4.21-20.2-10.87-2.94-3.57-4.75-7.5-6.6-11.7l-1.99-4.33-.97-2.15a132 132 0 0 0-8.79-16.27q-1.53-2.4-2.95-4.87c-6.8-9.06-16.92-16.14-28.3-17.87L985 158l-2.77-.15c-9.45-.31-17.96 1.43-26.23 6.15l-2.38 1.32c-10.94 7.03-17.89 15-23.62 26.68l-1.23 2.43-1.33 2.64-1.26 2.47a75 75 0 0 0-2.06 4.68c-1.68 4.16-3.63 8.18-5.56 12.22l-1.2 2.53-2.32 4.86q-1.3 2.71-2.58 5.45a45 45 0 0 1-5.46 7.79 75 75 0 0 0-7 9.93 175 175 0 0 1-10.75 12l-1.67 1.75C886 262 886 262 883 262l-.69 1.82c-1.7 2.83-3.43 3.52-6.3 5.18a362 362 0 0 0-4.33 3.44A59 59 0 0 1 859 280c.83 3.67 2.26 6.66 4 10 6.1 12.06 11.3 24.02 15 37l.6 1.99c1.4 4.99 1.82 9.92 2.15 15.08.25 2.93.25 2.93.75 5.48.65 4.54.64 8.99.63 13.57v24.37l.01 2.79c-.02 5.64-.44 11.12-1.14 16.72q-.27 3.13-.5 6.25l-.25 3.35-.25 3.4-.5 6.63a459 459 0 0 1-1.06 12.19c-.32 3.29-.48 6.5-.44 9.8V452l-1 1c-.08 3.5 0 6.99.06 10.49-.06 3.5-.06 3.5-.55 5.84-.8 4.2-.66 8.4-.64 12.67l.01 2.84c.1 12.7 1.3 24.96 4.12 37.35l.54 2.4q1.17 5.22 2.46 10.4l2.28 10.02C886 548 886 548 887 551q.68 5.14 1.25 10.29c.65 5.5.65 5.5 1.75 7.7v7q.48 3.52 1 7c.65 6.35 1.13 12.6.94 18.98.06 2.03.06 2.03.55 4.1.68 3.96.65 7.8.64 11.8v21.39l.01 2.47c-.02 3.59-.17 6.82-1.14 10.27l2.04.57q4.67 1.3 9.33 2.62l3.22.89c19.32 5.5 19.32 5.5 24.41 13.92.3 2.96-.34 4.19-2.19 6.47-10.1 9.89-26.47 11.55-39.8 13.53l-3.07.46c-58.2 8.3-119.38.99-177.8-2.01l-2.68-.14-12.46-.65c-47.45-2.48-95.54-3.13-143-.66l-3.08.16a1970 1970 0 0 0-96.8 7.22l-2.07.2q-6.03.6-12.06 1.23l-4.13.43c-7.98.82-15.94 1.75-23.89 2.89-34.59 4.97-68.66 5.82-103.52 5.64q-8.99-.02-17.97.03-8.8.04-17.6 0-5.22 0-10.4.02-5.74.02-11.46-.04-1.67 0-3.39.04c-6.26-.11-9.86-.8-14.33-5.34L228 698l-2-2h-3c-2.19-2.5-2.19-2.5-4-5l3-2 2 1 1-12-5.06 2.88c-6.99 3.96-13.32 5.5-21.26 5.44l-2.25-.02c-11.05-.22-18.89-3.5-26.68-11.42-4.76-5.6-5.9-10.4-5.65-17.64.9-7.35 3.84-11.96 8.9-17.24l1.92-2.01c5.26-5.02 10.56-8 17.96-7.98l3.06.12c12.25.23 20.5-8.36 29.06-16.13l1.93-1.74c13-11.8 13-11.8 18.51-18.45 2.44-2.83 5.15-5.38 7.86-7.95A21 21 0 0 0 257 580c2-2.25 2-2.25 4-4h2l.81-2.43q.58-1.27 1.2-2.57l3-1 2-5 3-2 1.55-2.62q.7-1.18 1.44-2.38h2l.8-1.7a61 61 0 0 1 11.45-15.61 30 30 0 0 0 5.75-7.7l2-2-2.49-.98-3.26-1.32-3.24-1.3a32 32 0 0 1-7-4.4l-3.57-2c-4.68-2.71-4.68-2.71-6.44-5v-2q-.84-.35-1.69-.74c-5.33-2.88-7.8-5.77-10.3-11.25l-1.5-1.93c-2.06-2.82-3.26-5.85-4.5-9.07l-1.06-2.68c-1.8-4.8-3.24-9.24-3.95-14.32l-.94-2.68c-1.23-3.85-1.88-7.67-2.56-11.65-.5-2.67-.5-2.67-1.56-6.35a55 55 0 0 1-1.63-8.88c-.63-4.97-1.46-9.92-2.25-14.87l-.5-3.28c-.73-4.51-1.45-9-2.5-13.44-4.17-18.12-7.63-37.55-7.62-56.16v-2.65c.18-7.23 1.4-14.23 6.68-19.47 3.62-3.17 8.14-4.41 12.88-4.57 3.92.98 7.42 2.63 11.06 4.38l3.05 1.39a333 333 0 0 1 19.58 9.72c6.92 3.66 12.46 5.28 20.12 3.25q3.1-.95 6.2-2l6.17-1.94 2.98-.95a108 108 0 0 1 10.03-2.43c1.81-.42 1.81-.42 4.5-1.54 2.86-1.1 5.26-.94 8.31-.88l3-1q4.05-.37 8.11-.62c6.68-.88 10.22-3.15 14.57-8.2l1.44-1.57a45 45 0 0 0 5.4-7.18c1.8-2.96 3.98-5.03 6.48-7.43l3.01-3.2c11.98-12.57 11.98-12.57 19-13.8 5.38.77 10.06 5.7 13.48 9.78 3.56 4.8 5.43 9.6 6.88 15.4 1 3.79 2.18 7.34 3.7 10.95a61 61 0 0 1 3.5 11.8c.63 3.08 1.56 6.06 2.43 9.07q1.52 6 3 12c2.82 0 5.13-.93 7.81-1.81l3.14-1.02A46 46 0 0 0 454 358q3.76-1.89 7.56-3.75c6.1-3 11.98-6.23 17.81-9.71 4.08-2.4 8.3-4.41 12.55-6.46 2.35-1.22 4.58-2.57 6.83-3.95 3.55-2.15 7.11-4.12 10.84-5.92 4.1-2.05 8.1-4.23 12.13-6.4 4.94-2.64 4.94-2.64 7.26-3.8q2.89-1.45 5.7-3.07l2.06-1.17 4.24-2.4a239 239 0 0 1 14.9-7.74c2.5-1.3 4.76-2.66 7.12-4.2 3.25-2.07 6.33-3.21 10-4.43 1.97-1.15 3.87-2.4 5.8-3.63 3.9-2.42 8.06-4.36 12.2-6.37l3-1.5 7.87-3.93 2.6-1.31 4.74-2.33a73 73 0 0 0 9.04-5.11c2.54-1.68 3.9-2.12 6.75-2.82a82 82 0 0 0 3.75-1.87 83 83 0 0 1 9.92-4.22c2.96-1.16 5.82-2.5 8.7-3.84A222 222 0 0 1 673.11 248a80 80 0 0 0 7.7-3.2c3.72-1.72 7.1-2.34 11.2-2.81l5-2q3.38-.8 6.8-1.5c2.2-.5 2.2-.5 5.2-1.56a45 45 0 0 1 9.84-1.7c2.15-.24 2.15-.24 4.05-.73 3.68-.9 7.45-.96 11.22-1.23 2.88-.28 2.88-.28 4.68-.78 5.08-1.14 10.51-.68 15.7-.68l3.68-.04c6.9-.01 13.41.43 20.18 1.74 2.65.49 5.27.77 7.95.98a56 56 0 0 1 11.7 2.5q5.8 1.4 11.67 2.5c2.32.5 2.32.5 5.13 1.69 5.24 1.34 9.14-.1 13.75-2.56q3.76-2.26 7.44-4.63 3.76-2.3 7.62-4.43C846 228 846 228 847.5 226c1.83-2.44 3.9-3.43 6.5-5a99 99 0 0 0 3-4l1.4-1.82A195 195 0 0 0 872 195l1.94-3.18c2.1-3.68 3.6-7.53 5.13-11.48A89 89 0 0 1 883 172q1.21-2.47 2.44-4.93c4.98-9.92 10.6-18.22 18.56-26.07l2.11-2.25c13.31-13.97 28.21-23.66 46.9-28.75l2.9-.85 2.71-.77 2.73-.8A33 33 0 0 1 969 107c1-1 1-1 4.06-1.13" fill="#111411"/><path d="M973.06 105.87c18.62.04 18.62.04 26.94 3.13q3.22.84 6.48 1.55a40 40 0 0 1 15.33 6.9 66 66 0 0 0 6.81 4.12c4.85 2.63 9.45 5.5 13.38 9.43q2.76 2.3 5.54 4.57L1049 137v2l1.7.63c3.12 1.86 4.98 4.44 7.11 7.3l1.33 1.78A139 139 0 0 1 1076 178l.97 2.19c2 5.12 2.7 10.46 3.4 15.88l.33 2.29c.95 8.3-1.93 14.42-7.02 20.88a22 22 0 0 1-14.93 6.95c-9.4-.47-14.1-4.21-20.2-10.87-2.94-3.57-4.75-7.5-6.6-11.7l-1.99-4.33-.97-2.15a132 132 0 0 0-8.79-16.27q-1.53-2.4-2.95-4.87c-6.8-9.06-16.92-16.14-28.3-17.87L985 158l-2.77-.15c-9.45-.31-17.96 1.43-26.23 6.15l-2.38 1.32c-10.94 7.03-17.89 15-23.62 26.68l-1.23 2.43-1.33 2.64-1.26 2.47a75 75 0 0 0-2.06 4.68c-1.68 4.16-3.63 8.18-5.56 12.22l-1.2 2.53-2.32 4.86q-1.3 2.71-2.58 5.45a45 45 0 0 1-5.46 7.79 75 75 0 0 0-7 9.93 175 175 0 0 1-10.75 12l-1.67 1.75C886 262 886 262 883 262l-.69 1.82c-1.7 2.83-3.43 3.52-6.3 5.18a362 362 0 0 0-4.33 3.44A59 59 0 0 1 859 280c.83 3.67 2.26 6.66 4 10 6.1 12.06 11.3 24.02 15 37l.6 1.99c1.4 4.99 1.82 9.92 2.15 15.08.25 2.93.25 2.93.75 5.48.65 4.54.64 8.99.63 13.57v24.37l.01 2.79c-.02 5.64-.44 11.12-1.14 16.72q-.27 3.13-.5 6.25l-.25 3.35-.25 3.4-.5 6.63a459 459 0 0 1-1.06 12.19c-.32 3.29-.48 6.5-.44 9.8V452l-1 1c-.08 3.5 0 6.99.06 10.49-.06 3.5-.06 3.5-.55 5.84-.8 4.2-.66 8.4-.64 12.67l.01 2.84c.1 12.7 1.3 24.96 4.12 37.35l.54 2.4q1.17 5.22 2.46 10.4l2.28 10.02C886 548 886 548 887 551q.68 5.14 1.25 10.29c.65 5.5.65 5.5 1.75 7.7v7q.48 3.52 1 7c.65 6.35 1.13 12.6.94 18.98.06 2.03.06 2.03.55 4.1.68 3.96.65 7.8.64 11.8v21.39l.01 2.47c-.02 3.59-.17 6.82-1.14 10.27l2.04.57q4.67 1.3 9.33 2.62l3.22.89c19.32 5.5 19.32 5.5 24.41 13.92.3 2.96-.34 4.19-2.19 6.47-10.1 9.89-26.47 11.55-39.8 13.53l-3.07.46c-58.2 8.3-119.38.99-177.8-2.01l-2.68-.14-12.46-.65c-47.45-2.48-95.54-3.13-143-.66l-3.08.16a1970 1970 0 0 0-96.8 7.22l-2.25.22c-14.92 1.49-29.82 3.03-44.66 5.19-38.34 5.49-76.57 4.8-115.2 4.2a56 56 0 0 1 7.58-5.01l2.1-1.13q1.1-.61 2.25-1.22a459 459 0 0 0 22.53-13.31c7.5-4.7 15.03-9.3 22.6-13.88l1.81-1.1q9.96-6.06 19.97-12.03a1591 1591 0 0 0 33.22-20.47l8.15-5.1a1191 1191 0 0 0 41.45-27.5q2.02-1.35 4.03-2.75c5.25-3.58 10.3-6.48 16.58-7.85l3.01-.68 3.21-.71c40.8-9.47 79.04-26.86 116.5-45.25l3.46-1.7a966 966 0 0 0 40.8-21.14c7.45-4.12 14.98-8.12 22.5-12.13l5.2-2.78 3.2-1.7c2.36-1.28 4.63-2.64 6.9-4.05 2.94-1.5 2.94-1.5 5-1.4 1.94.9 1.94.9 3.01 2.97l.82 2.72.95 3.02.97 3.26 2.12 6.63 1.06 3.28c3.24 9.72 7.67 18.77 12.76 27.65l1.08 1.9c8.76 14.74 20.84 26.44 33.07 38.24 20.57 19.9 20.57 19.9 21.24 34.36.04 2.97.06 5.9-.14 8.87-1.58 1.58-3.32 1.16-5.5 1.25-7.04.66-12.78 3.44-17.44 8.82-3.44 4.89-4.36 7.79-4.38 13.87q-.01 1.79-.05 3.65c.4 3.7 1.07 5.5 3.37 8.4a21 21 0 0 0 4.5 2.7l2.34 1.2c8.68 3.06 17.53 3.45 26.66 3.43l3.18.04c10.91 0 20.95-1.97 29.32-9.36 13.56-14.87 12.95-45.46 12.17-64.23-.63-9.91-2.14-19.52-5.67-28.81-.5-1.96-.5-1.96.5-4.96 17.22 12.56 30.56 24.7 34.7 46.73 1 7.56 1.04 15.68.3 23.27-1.86 1.86-5.06 1.75-7.56 2.19-8.44 1.79-13.6 4.6-18.44 11.8-3.29 6.58-3.17 14.25-1.44 21.29 2.5 5.48 8.1 7.73 13.44 9.72 6.31 1.53 12.73 1.23 19.18 1.25.64 0 .64 0 3.87.07 12.6.05 22.2-2.33 31.7-10.75 6.77-8.96 6.83-21.87 6.71-32.53v-4.2q0-4.4-.05-8.77-.04-5.5-.04-11.01c0-33.27-3.88-64-11.92-96.26l-1.27-5.17q-.3-1.28-.64-2.6c-1.9-10.68-1.82-21.57-1.86-32.4v-2.68a641 641 0 0 1 4.86-78.47c.57-5.02.66-10.01.7-15.05l.02-3.02.03-6.33.06-6.33c.4-27.61-4.42-52.46-17.37-76.9a588 588 0 0 1-3.18-6.11l-.99-1.94c-1.33-2.95-1.65-4.64-.8-7.8 2.4-2.11 5.18-3.48 8-5 26.8-16.16 42.22-37.55 54.93-65.47l1.6-3.47 3.07-6.83c8.77-19.37 21.7-32.93 41.4-41.23 10.65-3.11 25.51-2.6 35.35 2.39 16.22 9.9 25.58 22.5 32.7 39.86 3.73 9 8.7 17.22 16.94 22.75 5.81 1.94 11.92 2.02 17.44-.68 5.75-5.2 8.95-10.47 9.92-18.2 1-22.5-14.43-44.6-28.99-60.55a282 282 0 0 0-7.32-7.55c-17-16.06-40.44-23.65-63.43-23.45l-3.85.02c-25.87.48-48.27 12.08-66.22 30.4-12.19 12.92-19.93 29-27.3 45A142 142 0 0 1 861 217l-1.74 2.26c-8.45 10.42-20.48 17.68-32.26 23.75l-2.35 1.22c-6.8 2-13.07.66-19.65-1.47-60.9-17.91-120.55 1.48-176 27.25l-2.9 1.34a578 578 0 0 0-29.1 14.43 1120 1120 0 0 1-17.85 9.29l-4.29 2.2a1251 1251 0 0 0-32.6 17.2c-7.72 4.26-15.49 8.4-23.26 12.54a2299 2299 0 0 0-25.88 13.94q-12.75 6.98-25.56 13.86l-4.17 2.25C441.34 369 441.34 369 433 369l-.49-1.82a689 689 0 0 0-12.26-41.1c-6.89-21.23-6.89-21.23-14.25-25.08-4.16-1-7.47-.82-11.27 1.23-7.9 5.85-14.05 13.66-20.17 21.27a284 284 0 0 1-9.44 11.07l-2.18 2.44c-4.37 2.96-8.79 3.28-13.94 3.99q-3.07.51-6.14 1.05l-3.2.55c-11.52 2.03-22.62 4.54-33.7 8.26-7.62 2.44-13.16 2.74-20.6-.4q-1.81-.96-3.6-1.96l-4.16-2.15-2.23-1.15a305 305 0 0 0-13.19-6.2l-2.56-1.2c-6.2-2.73-11.86-3.7-18.62-2.8-3.69 2.1-5.42 4.12-7 8-.44 4.07-.33 8.16-.32 12.25l.02 3.66c.22 16.86 2.7 33.1 6.32 49.53a351 351 0 0 1 4.11 23.43C252.6 489.1 252.6 489.1 267 507l1.5 1.89c7.9 8.78 19.04 14.43 30.05 18.14C301 528 301 528 302 530l-10 13-1.36 1.77a482 482 0 0 1-17.3 21.2 304 304 0 0 0-8.59 10.35c-6.49 7.95-13.62 15.3-20.75 22.68l-2.57 2.66c-30.6 31.49-30.6 31.49-43.6 31.76l-2.2.02c-8.09.29-12.86 1.5-19.32 6.75-6.29 7.65-9.14 14.93-8.3 24.8 2.11 6.83 6.14 11.09 12 15 10.94 4.02 23.23 4.84 34.08.1q3.14-1.56 6.22-3.21c7.3-3.88 7.3-3.88 10.7-3.88q-.5 1.27-.99 2.6a34 34 0 0 0 .1 19.9c2.33 3.1 4.8 5.17 7.88 7.5l-3 1c-1.76-1.14-1.76-1.14-3.56-2.81l-1.82-1.64A202 202 0 0 1 226 696h-3c-2.19-2.5-2.19-2.5-4-5l3-2 2 1 1-12-5.06 2.88c-6.99 3.96-13.32 5.5-21.26 5.44l-2.25-.02c-11.05-.22-18.89-3.5-26.68-11.42-4.76-5.6-5.9-10.4-5.65-17.64.9-7.35 3.84-11.96 8.9-17.24l1.92-2.01c5.26-5.02 10.56-8 17.96-7.98l3.06.12c12.25.23 20.5-8.36 29.06-16.13l1.93-1.74c13-11.8 13-11.8 18.51-18.45 2.44-2.83 5.15-5.38 7.86-7.95A21 21 0 0 0 257 580c2-2.25 2-2.25 4-4h2l.81-2.43q.58-1.27 1.2-2.57l3-1 2-5 3-2 1.55-2.62q.7-1.18 1.44-2.38h2l.8-1.7a61 61 0 0 1 11.45-15.61 30 30 0 0 0 5.75-7.7l2-2-2.49-.98-3.26-1.32-3.24-1.3a32 32 0 0 1-7-4.4l-3.57-2c-4.68-2.71-4.68-2.71-6.44-5v-2q-.84-.35-1.69-.74c-5.33-2.88-7.8-5.77-10.3-11.25l-1.5-1.93c-2.06-2.82-3.26-5.85-4.5-9.07l-1.06-2.68c-1.8-4.8-3.24-9.24-3.95-14.32l-.94-2.68c-1.23-3.85-1.88-7.67-2.56-11.65-.5-2.67-.5-2.67-1.56-6.35a55 55 0 0 1-1.63-8.88c-.63-4.97-1.46-9.92-2.25-14.87l-.5-3.28c-.73-4.51-1.45-9-2.5-13.44-4.17-18.12-7.63-37.55-7.62-56.16v-2.65c.18-7.23 1.4-14.23 6.68-19.47 3.62-3.17 8.14-4.41 12.88-4.57 3.92.98 7.42 2.63 11.06 4.38l3.05 1.39a333 333 0 0 1 19.58 9.72c6.92 3.66 12.46 5.28 20.12 3.25q3.1-.95 6.2-2l6.17-1.94 2.98-.95a108 108 0 0 1 10.03-2.43c1.81-.42 1.81-.42 4.5-1.54 2.86-1.1 5.26-.94 8.31-.88l3-1q4.05-.37 8.11-.62c6.68-.88 10.22-3.15 14.57-8.2l1.44-1.57a45 45 0 0 0 5.4-7.18c1.8-2.96 3.98-5.03 6.48-7.43l3.01-3.2c11.98-12.57 11.98-12.57 19-13.8 5.38.77 10.06 5.7 13.48 9.78 3.56 4.8 5.43 9.6 6.88 15.4 1 3.79 2.18 7.34 3.7 10.95a61 61 0 0 1 3.5 11.8c.63 3.08 1.56 6.06 2.43 9.07q1.52 6 3 12c2.82 0 5.13-.93 7.81-1.81l3.14-1.02A46 46 0 0 0 454 358q3.76-1.89 7.56-3.75c6.1-3 11.98-6.23 17.81-9.71 4.08-2.4 8.3-4.41 12.55-6.46 2.35-1.22 4.58-2.57 6.83-3.95 3.55-2.15 7.11-4.12 10.84-5.92 4.1-2.05 8.1-4.23 12.13-6.4 4.94-2.64 4.94-2.64 7.26-3.8q2.89-1.45 5.7-3.07l2.06-1.17 4.24-2.4a239 239 0 0 1 14.9-7.74c2.5-1.3 4.76-2.66 7.12-4.2 3.25-2.07 6.33-3.21 10-4.43 1.97-1.15 3.87-2.4 5.8-3.63 3.9-2.42 8.06-4.36 12.2-6.37l3-1.5 7.87-3.93 2.6-1.31 4.74-2.33a73 73 0 0 0 9.04-5.11c2.54-1.68 3.9-2.12 6.75-2.82a82 82 0 0 0 3.75-1.87 83 83 0 0 1 9.92-4.22c2.96-1.16 5.82-2.5 8.7-3.84A222 222 0 0 1 673.11 248a80 80 0 0 0 7.7-3.2c3.72-1.72 7.1-2.34 11.2-2.81l5-2q3.38-.8 6.8-1.5c2.2-.5 2.2-.5 5.2-1.56a45 45 0 0 1 9.84-1.7c2.15-.24 2.15-.24 4.05-.73 3.68-.9 7.45-.96 11.22-1.23 2.88-.28 2.88-.28 4.68-.78 5.08-1.14 10.51-.68 15.7-.68l3.68-.04c6.9-.01 13.41.43 20.18 1.74 2.65.49 5.27.77 7.95.98a56 56 0 0 1 11.7 2.5q5.8 1.4 11.67 2.5c2.32.5 2.32.5 5.13 1.69 5.24 1.34 9.14-.1 13.75-2.56q3.76-2.26 7.44-4.63 3.76-2.3 7.62-4.43C846 228 846 228 847.5 226c1.83-2.44 3.9-3.43 6.5-5a99 99 0 0 0 3-4l1.4-1.82A195 195 0 0 0 872 195l1.94-3.18c2.1-3.68 3.6-7.53 5.13-11.48A89 89 0 0 1 883 172q1.21-2.47 2.44-4.93c4.98-9.92 10.6-18.22 18.56-26.07l2.11-2.25c13.31-13.97 28.21-23.66 46.9-28.75l2.9-.85 2.71-.77 2.73-.8A33 33 0 0 1 969 107c1-1 1-1 4.06-1.13" fill="#B9BBB9"/><path d="M680.06 501.1c1.94.9 1.94.9 3.01 2.97l.82 2.72.94 3.02.98 3.26 3.18 9.9c3.24 9.73 7.67 18.78 12.76 27.66l1.08 1.9c8.76 14.74 20.84 26.44 33.07 38.24 20.57 19.9 20.57 19.9 21.24 34.36.04 2.97.06 5.9-.14 8.87-1.58 1.58-3.32 1.16-5.5 1.25-5 .43-8.38 1.96-12.59 4.6-4.04 2.44-6.44 1.96-10.9 1.15a291 291 0 0 0-10.12-.65l-7.73-.4-2.75-.13c-23.56-1.11-47.12-1.12-70.7-1.08h-18.44c-41.43-.07-82.69.95-123.96 4.7l-7.18.62c-21.67 1.88-43.34 4-64.88 7l-7.57 1.04q-1.73.22-3.52.48-5.92.77-11.85 1.49c-6.65.8-13.25 1.84-19.85 2.97A61 61 0 0 1 367 658v-2c1.74-1.24 1.74-1.24 4.21-2.65l2.74-1.6c.5-.27.5-.27 2.98-1.68a484 484 0 0 0 22.84-14q5.1-3.37 10.3-6.61c12.67-7.86 24.98-16.21 37.27-24.62l2.2-1.5 4.08-2.8c5.28-3.6 10.35-6.52 16.66-7.9l3.01-.68 3.21-.71c40.8-9.47 79.04-26.86 116.5-45.25l3.45-1.7a960 960 0 0 0 40.8-21.14c7.46-4.12 15-8.12 22.51-12.13l5.2-2.78 3.2-1.7q3.51-1.93 6.9-4.05c2.94-1.5 2.94-1.5 5-1.4" fill="#ECEEEC"/><path d="M973.06 105.87c18.62.04 18.62.04 26.94 3.13q3.22.84 6.48 1.55a40 40 0 0 1 15.33 6.9 66 66 0 0 0 6.81 4.12c4.85 2.63 9.45 5.5 13.38 9.43q2.76 2.3 5.54 4.57L1049 137v2l1.7.63c3.12 1.86 4.98 4.44 7.11 7.3l1.33 1.78A139 139 0 0 1 1076 178l.97 2.19c2 5.12 2.7 10.46 3.4 15.88l.33 2.29c.95 8.3-1.93 14.42-7.02 20.88a22 22 0 0 1-14.93 6.95c-9.4-.47-14.1-4.21-20.2-10.87-2.94-3.57-4.75-7.5-6.6-11.7l-1.99-4.33-.97-2.15a132 132 0 0 0-8.79-16.27q-1.53-2.4-2.95-4.87c-6.8-9.06-16.92-16.14-28.3-17.87L985 158l-2.77-.15c-9.45-.31-17.96 1.43-26.23 6.15l-2.38 1.32c-10.94 7.03-17.89 15-23.62 26.68l-1.23 2.43-1.33 2.64-1.26 2.47a75 75 0 0 0-2.06 4.68c-1.68 4.16-3.63 8.18-5.56 12.22l-1.2 2.53-2.32 4.86q-1.3 2.71-2.58 5.45a45 45 0 0 1-5.46 7.79 75 75 0 0 0-7 9.93 175 175 0 0 1-10.75 12l-1.67 1.75C886 262 886 262 883 262l-.69 1.82c-1.7 2.83-3.43 3.52-6.3 5.18a362 362 0 0 0-4.33 3.44A59 59 0 0 1 859 280c.83 3.67 2.26 6.66 4 10 6.1 12.06 11.3 24.02 15 37l.6 1.99c1.4 4.99 1.82 9.92 2.15 15.08.25 2.93.25 2.93.75 5.48.65 4.54.64 8.99.63 13.57v24.37l.01 2.79c-.02 5.64-.44 11.12-1.14 16.72q-.27 3.13-.5 6.25l-.25 3.35-.25 3.4-.5 6.63a459 459 0 0 1-1.06 12.19c-.32 3.29-.48 6.5-.44 9.8V452l-1 1c-.08 3.5 0 6.99.06 10.49-.06 3.5-.06 3.5-.55 5.84-.8 4.2-.66 8.4-.64 12.67l.01 2.84c.1 12.7 1.3 24.96 4.12 37.35l.54 2.4q1.17 5.22 2.46 10.4l2.28 10.02C886 548 886 548 887 551q.68 5.14 1.25 10.29c.65 5.5.65 5.5 1.75 7.7v7q.48 3.52 1 7c.65 6.35 1.13 12.6.94 18.98.06 2.03.06 2.03.55 4.1.68 3.96.65 7.8.64 11.8v21.39l.01 2.47c-.02 3.59-.17 6.82-1.14 10.27l2.04.57q4.67 1.3 9.33 2.62l3.22.89c19.32 5.5 19.32 5.5 24.41 13.92.3 2.96-.34 4.19-2.19 6.47-10.1 9.89-26.47 11.55-39.8 13.53l-3.07.46c-58.2 8.3-119.38.99-177.8-2.01l-2.68-.14-12.46-.65c-47.45-2.48-95.54-3.13-143-.66l-3.08.16a2118 2118 0 0 0-165.48 15.06c-9.89 1.27-19.45 2.17-29.44 1.78v-1a372 372 0 0 1 28.18-3.93c6.9-.64 13.73-1.43 20.58-2.33 37.64-4.93 75.5-8.85 113.42-10.46 6.66-.3 13.3-.82 19.94-1.34 47.92-3.55 96.57-2.85 144.56-1.06l3.25.12c13.68.5 27.34 1.32 41.01 2.23 15.1.99 30.2 1.73 45.31 2.4a1355 1355 0 0 0 64.37 1.62h3.1c18.33-.04 36.4-.6 54.53-3.5l3.98-.58c11.37-1.73 23.41-4.12 32.77-11.17 1.18-2.43 1.18-2.43 1-5-3.86-5.65-9.7-7.03-16-9l-3.36-1.06a477 477 0 0 0-13.83-4.12c-2.8-.82-2.8-.82-4.8-1.82-.02-.57-.02-.57-.06-3.48-.29-21.26-.79-42.5-2.33-63.7q-.07-1.24-.17-2.5c-1.13-16-3.54-31.57-7.45-47.13l-1.58-6.43q-.97-3.99-1.97-7.96l-1.27-5.17q-.3-1.28-.64-2.6c-1.9-10.68-1.82-21.57-1.86-32.4v-2.68a641 641 0 0 1 4.86-78.47c.57-5.02.66-10.01.7-15.05l.02-3.02.03-6.33.06-6.33c.4-27.61-4.42-52.46-17.37-76.9a588 588 0 0 1-3.18-6.11l-.99-1.94c-1.33-2.95-1.65-4.64-.8-7.8 2.4-2.11 5.18-3.48 8-5 26.8-16.16 42.22-37.55 54.93-65.47l1.6-3.47 3.07-6.83c8.77-19.37 21.7-32.93 41.4-41.23 10.65-3.11 25.51-2.6 35.35 2.39 16.22 9.9 25.58 22.5 32.7 39.86 3.73 9 8.7 17.22 16.94 22.75 5.81 1.94 11.92 2.02 17.44-.68 5.75-5.2 8.95-10.47 9.92-18.2 1-22.5-14.43-44.6-28.99-60.55a282 282 0 0 0-7.32-7.55c-17-16.06-40.44-23.65-63.43-23.45l-3.85.02c-25.87.48-48.27 12.08-66.22 30.4-12.19 12.92-19.93 29-27.3 45A142 142 0 0 1 861 217l-1.74 2.26c-8.45 10.42-20.48 17.68-32.26 23.75l-2.35 1.22c-6.8 2-13.07.66-19.65-1.47-60.9-17.91-120.55 1.48-176 27.25l-2.9 1.34a578 578 0 0 0-29.1 14.43 1120 1120 0 0 1-17.85 9.29l-4.29 2.2a1251 1251 0 0 0-32.6 17.2c-7.72 4.26-15.49 8.4-23.26 12.54a2299 2299 0 0 0-25.88 13.94q-12.75 6.98-25.56 13.86l-4.17 2.25C441.34 369 441.34 369 433 369l-.49-1.82a689 689 0 0 0-12.26-41.1c-6.89-21.23-6.89-21.23-14.25-25.08-4.16-1-7.47-.82-11.27 1.23-7.9 5.85-14.05 13.66-20.17 21.27a284 284 0 0 1-9.44 11.07l-2.18 2.44c-4.37 2.96-8.79 3.28-13.94 3.99q-3.07.51-6.14 1.05l-3.2.55c-11.52 2.03-22.62 4.54-33.7 8.26-7.62 2.44-13.16 2.74-20.6-.4q-1.81-.96-3.6-1.96l-4.16-2.15-2.23-1.15a305 305 0 0 0-13.19-6.2l-2.56-1.2c-6.2-2.73-11.86-3.7-18.62-2.8-3.69 2.1-5.42 4.12-7 8-.44 4.07-.33 8.16-.32 12.25l.02 3.66c.22 16.86 2.7 33.1 6.32 49.53a351 351 0 0 1 4.11 23.43C252.6 489.1 252.6 489.1 267 507l1.5 1.89c7.9 8.78 19.04 14.43 30.05 18.14C301 528 301 528 302 530l-10 13-1.36 1.77a482 482 0 0 1-17.3 21.2 304 304 0 0 0-8.59 10.35c-6.49 7.95-13.62 15.3-20.75 22.68l-2.57 2.66c-30.6 31.49-30.6 31.49-43.6 31.76l-2.2.02c-8.09.29-12.86 1.5-19.32 6.75-6.29 7.65-9.14 14.93-8.3 24.8 2.11 6.83 6.14 11.09 12 15 10.94 4.02 23.23 4.84 34.08.1q3.14-1.56 6.22-3.21c7.3-3.88 7.3-3.88 10.7-3.88q-.5 1.27-.99 2.6a34 34 0 0 0 .1 19.9c2.33 3.1 4.8 5.17 7.88 7.5l-3 1c-1.76-1.14-1.76-1.14-3.56-2.81l-1.82-1.64A202 202 0 0 1 226 696h-3c-2.19-2.5-2.19-2.5-4-5l3-2 2 1 1-12-5.06 2.88c-6.99 3.96-13.32 5.5-21.26 5.44l-2.25-.02c-11.05-.22-18.89-3.5-26.68-11.42-4.76-5.6-5.9-10.4-5.65-17.64.9-7.35 3.84-11.96 8.9-17.24l1.92-2.01c5.26-5.02 10.56-8 17.96-7.98l3.06.12c12.25.23 20.5-8.36 29.06-16.13l1.93-1.74c13-11.8 13-11.8 18.51-18.45 2.44-2.83 5.15-5.38 7.86-7.95A21 21 0 0 0 257 580c2-2.25 2-2.25 4-4h2l.81-2.43q.58-1.27 1.2-2.57l3-1 2-5 3-2 1.55-2.62q.7-1.18 1.44-2.38h2l.8-1.7a61 61 0 0 1 11.45-15.61 30 30 0 0 0 5.75-7.7l2-2-2.49-.98-3.26-1.32-3.24-1.3a32 32 0 0 1-7-4.4l-3.57-2c-4.68-2.71-4.68-2.71-6.44-5v-2q-.84-.35-1.69-.74c-5.33-2.88-7.8-5.77-10.3-11.25l-1.5-1.93c-2.06-2.82-3.26-5.85-4.5-9.07l-1.06-2.68c-1.8-4.8-3.24-9.24-3.95-14.32l-.94-2.68c-1.23-3.85-1.88-7.67-2.56-11.65-.5-2.67-.5-2.67-1.56-6.35a55 55 0 0 1-1.63-8.88c-.63-4.97-1.46-9.92-2.25-14.87l-.5-3.28c-.73-4.51-1.45-9-2.5-13.44-4.17-18.12-7.63-37.55-7.62-56.16v-2.65c.18-7.23 1.4-14.23 6.68-19.47 3.62-3.17 8.14-4.41 12.88-4.57 3.92.98 7.42 2.63 11.06 4.38l3.05 1.39a333 333 0 0 1 19.58 9.72c6.92 3.66 12.46 5.28 20.12 3.25q3.1-.95 6.2-2l6.17-1.94 2.98-.95a108 108 0 0 1 10.03-2.43c1.81-.42 1.81-.42 4.5-1.54 2.86-1.1 5.26-.94 8.31-.88l3-1q4.05-.37 8.11-.62c6.68-.88 10.22-3.15 14.57-8.2l1.44-1.57a45 45 0 0 0 5.4-7.18c1.8-2.96 3.98-5.03 6.48-7.43l3.01-3.2c11.98-12.57 11.98-12.57 19-13.8 5.38.77 10.06 5.7 13.48 9.78 3.56 4.8 5.43 9.6 6.88 15.4 1 3.79 2.18 7.34 3.7 10.95a61 61 0 0 1 3.5 11.8c.63 3.08 1.56 6.06 2.43 9.07q1.52 6 3 12c2.82 0 5.13-.93 7.81-1.81l3.14-1.02A46 46 0 0 0 454 358q3.76-1.89 7.56-3.75c6.1-3 11.98-6.23 17.81-9.71 4.08-2.4 8.3-4.41 12.55-6.46 2.35-1.22 4.58-2.57 6.83-3.95 3.55-2.15 7.11-4.12 10.84-5.92 4.1-2.05 8.1-4.23 12.13-6.4 4.94-2.64 4.94-2.64 7.26-3.8q2.89-1.45 5.7-3.07l2.06-1.17 4.24-2.4a239 239 0 0 1 14.9-7.74c2.5-1.3 4.76-2.66 7.12-4.2 3.25-2.07 6.33-3.21 10-4.43 1.97-1.15 3.87-2.4 5.8-3.63 3.9-2.42 8.06-4.36 12.2-6.37l3-1.5 7.87-3.93 2.6-1.31 4.74-2.33a73 73 0 0 0 9.04-5.11c2.54-1.68 3.9-2.12 6.75-2.82a82 82 0 0 0 3.75-1.87 83 83 0 0 1 9.92-4.22c2.96-1.16 5.82-2.5 8.7-3.84A222 222 0 0 1 673.11 248a80 80 0 0 0 7.7-3.2c3.72-1.72 7.1-2.34 11.2-2.81l5-2q3.38-.8 6.8-1.5c2.2-.5 2.2-.5 5.2-1.56a45 45 0 0 1 9.84-1.7c2.15-.24 2.15-.24 4.05-.73 3.68-.9 7.45-.96 11.22-1.23 2.88-.28 2.88-.28 4.68-.78 5.08-1.14 10.51-.68 15.7-.68l3.68-.04c6.9-.01 13.41.43 20.18 1.74 2.65.49 5.27.77 7.95.98a56 56 0 0 1 11.7 2.5q5.8 1.4 11.67 2.5c2.32.5 2.32.5 5.13 1.69 5.24 1.34 9.14-.1 13.75-2.56q3.76-2.26 7.44-4.63 3.76-2.3 7.62-4.43C846 228 846 228 847.5 226c1.83-2.44 3.9-3.43 6.5-5a99 99 0 0 0 3-4l1.4-1.82A195 195 0 0 0 872 195l1.94-3.18c2.1-3.68 3.6-7.53 5.13-11.48A89 89 0 0 1 883 172q1.21-2.47 2.44-4.93c4.98-9.92 10.6-18.22 18.56-26.07l2.11-2.25c13.31-13.97 28.21-23.66 46.9-28.75l2.9-.85 2.71-.77 2.73-.8A33 33 0 0 1 969 107c1-1 1-1 4.06-1.13" fill="#E4E5E6"/><path d="M250.3 338.44c4.36.9 7.85 2.86 11.64 5.12l2.35 1.36c8.47 4.98 16.86 10 22.7 18.08a55 55 0 0 1-8.74 7.69c-11.47 8.46-18.47 20.1-23.25 33.3h-2l-.15 1.77c-.44 4.64-.95 8.92-2.85 13.24l-3 2a57 57 0 0 1-3.51-11.83l-.8-3.92-.81-4.06-.84-4.12Q240 392.04 239 387l-2 2h-2c-2.1-15.35-2.22-30.52-2-46l2 4 1.75-2.25L239 342l1.63-2.37c3.36-2.31 5.72-1.66 9.67-1.2" fill="#272925"/><path d="M409.88 302.63c11.3 10.43 14.98 33.57 19 47.75l.94 3.3.86 3.1.77 2.75c.55 2.48.55 2.48.55 6.48h-2l-1-1v10q-2.55-2.45-5-5v-2h-2v-2l-1.7-.84a207 207 0 0 1-7.05-3.8l-2.43-1.35-1.82-1.01v-2q-1.04-.17-2.12-.32c-2.88-.69-2.88-.69-5.62-2.1-9.24-4.48-20.16-6.16-30.26-7.58-.56-5.52 1.27-8.84 4.19-13.32q1.22-1.98 2.48-3.96l1.2-1.93c2.2-3.51 4.17-7.16 6.13-10.8h2v-3c1.38-1.69 1.38-1.69 3-3h2v-2c1.4-1.29 1.4-1.29 3.25-2.62l1.82-1.36c1.93-1.01 1.93-1.01 5.93-1.01v-2c3.01-1.51 3.92-1.06 6.88.62" fill="#242522"/><path d="M805 570c7.02 4.32 13 9.36 19 15l1.98 1.71c9.44 8.53 14.37 22.5 15.2 34.99.21 6.06.41 12.26-.18 18.3-1.85 1.85-5.01 1.71-7.5 2.12-7 1.43-11.4 3.95-16.5 8.88l-1-2q-3.49-.61-7-1c-.09-5.17.2-9.94 1-15.06 2.62-19.12 2.25-39.71-4.4-57.98-.6-1.96-.6-1.96-.6-4.96" fill="#ECEEED"/><path d="M875 508c2.32 2.32 2.54 3.5 3.25 6.65l.65 2.8.66 2.93.67 2.9 1.23 5.37q.74 3.18 1.54 6.35l2.28 10c.72 3 .72 3 1.72 6q.68 5.13 1.25 10.28c.65 5.52.65 5.52 1.75 7.72v7l1 7c.66 6.33 1.13 12.6.94 18.96.06 2.04.06 2.04.56 4.11.68 3.95.64 7.81.63 11.81l.01 2.57-.01 5.37.01 8.21-.01 5.22.01 2.48c-.02 3.59-.17 6.81-1.14 10.27l2.04.56 9.34 2.63 3.21.88c19.33 5.52 19.33 5.52 24.41 13.93.3 2.96-.34 4.19-2.19 6.47-10.09 9.89-26.47 11.54-39.81 13.53l-3.06.46c-58.2 8.3-119.38.99-177.81-2.02l-2.67-.13-12.46-.65c-47.45-2.48-95.53-3.13-143-.66l-3.07.16a2118 2118 0 0 0-165.48 15.06c-9.9 1.27-19.46 2.17-29.45 1.78v-1a377 377 0 0 1 28.19-3.94q10.3-.96 20.57-2.32c37.64-4.93 75.49-8.85 113.42-10.46 6.66-.3 13.3-.82 19.94-1.34 47.92-3.56 96.57-2.85 144.57-1.06l3.24.11c13.68.52 27.34 1.33 41.01 2.24a2076 2076 0 0 0 47.54 2.49c20.72.92 41.4 1.56 62.14 1.53h3.09c18.34-.04 36.42-.61 54.54-3.5l3.98-.58c11.37-1.73 23.42-4.13 32.77-11.17 1.19-2.44 1.19-2.44 1-5-3.86-5.65-9.7-7.03-16-9l-3.36-1.07a510 510 0 0 0-13.83-4.12C892 655 892 655 890 654l-.04-3.48c-.29-21.27-.8-42.49-2.34-63.71l-.17-2.49c-1.13-16-3.53-31.53-7.51-47.07C875 517.38 875 517.38 875 508" fill="#E8EAE9"/><path d="m257.56 333.38 2.64 1.1a190 190 0 0 1 17.67 8.78A87 87 0 0 0 294 350v3c-6.3-1.45-11.9-3.81-17.63-6.75-26.15-13.31-26.15-13.31-35.37-11.25-3.69 2.1-5.42 4.12-7 8-.44 4.06-.33 8.15-.32 12.25l.02 3.65c.22 16.87 2.7 33.1 6.32 49.55a351 351 0 0 1 4.11 23.43C252.6 489.1 252.6 489.1 267 507l1.5 1.9c7.9 8.76 19.04 14.43 30.05 18.13C301 528 301 528 302 530l-10 13-1.36 1.76a482 482 0 0 1-17.3 21.2 304 304 0 0 0-8.59 10.36c-6.49 7.94-13.62 15.3-20.75 22.67l-2.57 2.66c-30.6 31.5-30.6 31.5-43.6 31.76l-2.2.02c-8.09.3-12.86 1.5-19.32 6.75-6.29 7.66-9.14 14.94-8.3 24.82 2.11 6.82 6.14 11.08 12 15 10.94 4 23.23 4.83 34.08.09a215 215 0 0 0 6.22-3.22c7.3-3.87 7.3-3.87 10.7-3.87q-.5 1.28-.99 2.6a34 34 0 0 0 .1 19.9c2.33 3.1 4.8 5.16 7.88 7.5l-3 1c-1.76-1.14-1.76-1.14-3.56-2.82l-1.82-1.63A202 202 0 0 1 226 696h-3c-2.19-2.5-2.19-2.5-4-5l3-2 2 1 1-12-5.06 2.88c-6.99 3.97-13.32 5.5-21.26 5.44l-2.25-.02c-11.05-.22-18.89-3.48-26.68-11.42-4.76-5.58-5.9-10.4-5.65-17.64.9-7.35 3.84-11.97 8.9-17.25l1.92-2c5.26-5.03 10.56-8 17.96-7.99l3.06.13c12.25.23 20.5-8.37 29.06-16.13l1.93-1.75c13-11.8 13-11.8 18.51-18.44 2.44-2.83 5.15-5.37 7.86-7.95a21 21 0 0 0 3.7-5.87c2-2.24 2-2.24 4-4h2l.81-2.42 1.2-2.58 3-1 2-5q1.46-.95 3-2l1.55-2.62L276 558h2l.8-1.7a61 61 0 0 1 11.45-15.62A30 30 0 0 0 296 533l2-2-2.49-.99-3.26-1.33-3.24-1.3a32 32 0 0 1-7-4.38q-1.79-1.03-3.57-2c-4.68-2.73-4.68-2.73-6.44-5v-2l-1.69-.75c-5.33-2.88-7.8-5.77-10.3-11.25q-.75-.94-1.5-1.94c-2.06-2.8-3.26-5.84-4.5-9.06q-.53-1.31-1.06-2.69c-1.8-4.79-3.24-9.24-3.95-14.31l-.94-2.69c-1.23-3.84-1.88-7.67-2.56-11.63-.5-2.69-.5-2.69-1.56-6.37a55 55 0 0 1-1.63-8.87c-.63-4.97-1.46-9.93-2.25-14.87l-.5-3.29c-.73-4.5-1.45-8.98-2.5-13.43-4.17-18.12-7.63-37.56-7.62-56.17v-2.63c.18-7.26 1.4-14.28 6.74-19.49 7.08-6.05 13.64-4.62 21.38-1.19" fill="#E0E2E1"/><path d="m370 558 3 1c-3.16 7.2-10.15 12.2-16 17.22a126 126 0 0 0-6 5.78 123 123 0 0 1-7.81 7.31 162 162 0 0 0-9.69 9.19c-3.64 3.68-7.35 7.2-11.28 10.57a352 352 0 0 0-8.6 7.81A1132 1132 0 0 1 297 632l-2.01 1.79c-27.58 24.4-27.58 24.4-39.61 24.27l-2.43-.01L247 658c3.78-3.93 7.79-7.37 12.06-10.75l2.01-1.59c4.91-3.89 9.9-7.66 14.92-11.4 10.96-8.23 21.54-16.94 32.09-25.68q6.44-5.3 12.92-10.58l8.26-6.76 5.42-4.42q7.5-6.12 14.88-12.38A515 515 0 0 1 366 561l2.09-1.78z" fill="#E9E8EC"/><path d="m307.06 464.5 3.31-.05c8.48.04 16.91 1.17 23.38 7.05 1.25 2.5 1.25 2.5 1.04 4.55-.79 1.95-.79 1.95-4.18 3.62a219 219 0 0 1-4.3 1.52l-2.15.78c-11.5 4.12-20.98 4.1-32.16-.97-3.82-2.22-7.2-4.55-10-8v-4c8.51-3.37 15.93-4.63 25.06-4.5" fill="#141716"/><path d="m356.56 479.31 2.38.24C361 480 361 480 363 482c-.46 6.46-.46 6.46-3 9l-.5 3.5c-.5 3.5-.5 3.5-2.5 5.5-2.5.31-2.5.31-5 0-2-3-2-3-2-6l-2.38-.88C345 492 345 492 343 490c-.5-2.88-.5-2.88 0-6 4.4-3.6 7.92-5.3 13.56-4.69" fill="#666"/><path d="M257 495c3.85 1.28 4.23 2.67 6.25 6.12 8.23 13.23 20.74 21.01 35.3 25.91C301 528 301 528 302 530l-10 13-1.36 1.76a544 544 0 0 1-16.14 19.99l-1.53 1.81c-2.21 2.57-4.13 4.55-6.97 6.44 1.41-4.48 3.67-6.76 7-10l1.69-2.81L276 558h2l.8-1.7a61 61 0 0 1 11.45-15.61A31 31 0 0 0 296 533l2-2-2.48-.99-3.27-1.32-3.23-1.3A32 32 0 0 1 282 523q-1.76-1.04-3.56-2c-4.68-2.72-4.68-2.72-6.44-5v-2l-1.69-.75c-5.33-2.88-7.8-5.77-10.31-11.25l-1.69-2.19C257 498 257 498 257 495" fill="#E6E7E7"/><path d="M876 420h1c1.42 7.37 2.23 14.02 1.29 21.48a53 53 0 0 0-.29 7.14V452l-1 1c-.07 3.5 0 6.99.06 10.48-.06 3.52-.06 3.52-.55 5.85-.8 4.2-.66 8.4-.63 12.67v2.83c.13 18.05.13 18.05 2.12 25.17l-2 1v5c-5.29-9.44-3.24-23.68-3.25-34.25l-.01-2.74c-.02-19.76 1.4-39.35 3.26-59.01" fill="#D5D5D7"/><path d="m374 319 2 1c-2.16 4.76-5.51 8.17-9 12l-1.63 2c-3.15 3.65-5.5 5.34-10.31 6.06l-2.96.47-3.1.47c-14.77 2.47-29.18 5.3-43.49 9.76l-2.82.88-2.46.8C298 353 298 353 294 353v-2l10.81-3.31 3.05-.94q8.84-2.7 17.79-5.11 3.1-.86 6.16-1.83c3.21-.82 5.9-.88 9.19-.81l3-1c2.7-.27 5.4-.44 8.11-.62 6.72-.88 10.26-3.19 14.64-8.26l1.46-1.6c2.38-2.68 4.41-5.2 5.79-8.52" fill="#ECEDEE"/><path d="m257.56 333.38 2.64 1.1a190 190 0 0 1 17.67 8.78A87 87 0 0 0 294 350v3c-6.3-1.45-11.9-3.81-17.63-6.75-26.15-13.31-26.15-13.31-35.37-11.25-3.7 2.12-5.39 4.13-7 8-.32 2.38-.32 2.38-.42 4.99l-.1 2.82q-.06 1.45-.1 2.94c-.05.99-.08 1.96-.12 2.99q-.15 3.62-.26 7.25h-1q-.42-5.3-.75-10.62l-.25-3.02c-.37-6.24-.2-9.62 4-14.36 7.25-7.25 13.96-6.43 22.56-2.62" fill="#CCCECD"/><path d="m295 466 .48 2.01c2.02 7.64 5.04 11.43 11.52 15.99-8.4.97-15.15-2.46-21.88-7.37-1.37-1.25-1.37-1.25-3.12-3.63v-4q2.12-.76 4.25-1.5l2.39-.84C291 466 291 466 295 466" fill="#EDC767"/><path d="M380 455c1.32 1.68 1.32 1.68 2.56 3.88 1.38 2.39 2.47 4.15 4.44 6.12q-3.87 1.8-7.75 3.56l-2.21 1.04-4.12 1.87c-2.31.64-3.67.29-5.92-.47-.49-4.11-.23-5.67 2.19-9.12C375.57 455 375.57 455 380 455" fill="#DFC171"/><path d="m370 558 3 1c-3.15 7.19-10.13 12.18-15.97 17.19a158 158 0 0 0-8.46 8.31C347 586 347 586 346 586c-.19-2.88-.19-2.88 0-6l3-2-2-1c13.21-11.44 13.21-11.44 19.19-16.31l2.04-1.68z" fill="#E5E8E6"/><path d="m1008 111 3.77 1.29c4.53 1.7 8.44 4.13 12.48 6.77l4.14 2.66 1.81 1.18c1.8 1.1 1.8 1.1 3.88 2.11 2.45 1.26 4.05 2.99 5.92 4.99l-3 1c-1.92-1.15-1.92-1.15-4.19-2.94-15.95-11.64-33.15-16.88-52.75-17.62l-3.23-.13L969 110v-1l1.79-.08a1075 1075 0 0 0 10.84-.48l2.7-.12 2.49-.11c8.01-.76 13.49-.02 21.18 2.79" fill="#E3E4E6"/><path d="m229 672 2 1-.98 2.59a34 34 0 0 0 .1 19.91c2.33 3.1 4.79 5.16 7.88 7.5l-3 1c-1.75-1.14-1.75-1.14-3.56-2.81l-1.82-1.65A201 201 0 0 1 226 696h-3c-2.19-2.5-2.19-2.5-4-5l3-2 2 1 .33-3.43.48-4.45.22-2.26c.22-1.97.59-3.92.97-5.86z" fill="#D8DADB"/><path d="m753.88 231.75 3.88-.02c7.78.01 15.7.12 23.24 2.27l1 2h-54c1-2 1-2 2.76-2.62 7.72-1.58 15.26-1.68 23.12-1.63" fill="#EFEFF1"/><path d="M994.78 155.9c5.75 2.32 11.95 5.5 16.22 10.1v3l-1.65-1.17c-10.98-7.58-20.11-10.04-33.35-9.9q-1.15.03-2.34.02L968 158v-2c6.9-3.45 19.5-1.84 26.78-.1" fill="#E9EAE9"/><path d="M501 571v3c-2.02 1.54-2.02 1.54-4.81 3.19a206 206 0 0 0-12.38 8.12l-2.79 1.99L479 589v2c-4.12 2-7.45 2.18-12 2v-2l2.87-1.58A766 766 0 0 0 501 571" fill="#030403"/><path d="M247 459c2.2 3.29 3.2 6.5 4.31 10.25a666 666 0 0 0 6.77 20.84C259 493 259 493 259 495c-1.9-.27-1.9-.27-4-1-.98-1.64-.98-1.64-1.62-3.69l-.72-2.19L252 486l-1.12-3.12c-.9-2.96-1.37-5.84-1.88-8.88q-.98-3-2-6c-.89-3.41-1.12-5.63 0-9" fill="#E4E4E7"/><path d="M873 459h1l.06 1.83c.38 11.18.87 22.3 2.28 33.41.5 3.95.7 7.78.66 11.76.5 2.38.5 2.38 1 4l-2 1v5c-5.64-10.12-3.11-25.43-3.06-36.69l.01-5.92z" fill="#D8D8DB"/><path d="m233 349 2 1c.63 2.91.63 2.91 1.12 6.62l.51 3.67c.36 3.6.4 7.1.37 10.71l.5 2c.75 2.99.56 5.93.5 9l-3 1c-4.6-9.2-2.09-23.92-2-34" fill="#131613"/><path d="M890 605h1l.18 3.18.26 4.13.12 2.09c.19 3.07.46 5.67 1.44 8.6q.13 2.81.13 5.62l.01 3.34-.02 3.48.02 3.47-.01 3.34v3.05c-.12 2.4-.44 4.41-1.13 6.7l5 2v1l-7-1z" fill="#F3F5F5"/><path d="m313 462 3.32.28c9.8 1.14 9.8 1.14 12.99 4.34L331 469l-1.78-.65c-8.99-2.89-17.59-2.69-26.91-2.54l-4.76.04L286 466v-1c19.02-3.71 19.02-3.71 27-3" fill="#030404"/><path d="M415 445c-2.4 1.2-3.48.95-6.12.75-5.13-.07-9.48 1.09-14.32 2.63l-2.11.67A33 33 0 0 0 384 453h-3l-1 3h-5c1.38-1.5 1.38-1.5 3-3h2l1-3c9.86-4.88 23.4-10.3 34-5" fill="#040403"/><path d="M722 234a79 79 0 0 1 5.06.94l2.79.59 2.15.47v1l-3.88.55A353 353 0 0 0 698 243l1-3c6.04-2.85 13.09-3.62 19.63-4.57C721 235 721 235 722 234" fill="#E7E7E8"/><path d="M875 508c2.32 2.32 2.54 3.5 3.25 6.65l.65 2.8.66 2.93.67 2.9 1.23 5.37q.52 2.26 1.09 4.52c.52 2.12.85 4.22 1.14 6.39l.32 2.32C884 544 884 544 882 547l-.8-3.91-1.08-5.15-.52-2.57c-.78-3.74-1.61-7.39-2.69-11.06a49 49 0 0 1-1.53-10.25l-.23-3.46z" fill="#E7E8E7"/><path d="M263 337c4.6.59 8.16 2.56 12.12 4.81A102 102 0 0 0 294 350v3c-8.71-2.01-16.3-5.96-24.17-10.05q-3.9-2.01-7.83-3.95z" fill="#D9D9DB"/><path d="M413 309c4 3.55 5.21 8.08 7 13l1.18 3.11 1.13 3.14 1.05 2.89c.73 3.27.38 5.61-.36 8.86a57 57 0 0 1-3.88-9.56 287 287 0 0 0-5.39-15.06C413 313 413 313 413 309" fill="#19191B"/><path d="M856 219h2a16 16 0 0 1-5.16 6.84l-1.89 1.53-2.01 1.57-2.04 1.61A84 84 0 0 1 832 240c.59-3.31.79-3.84 3.62-6q2.59-1.55 5.23-3c3.63-1.98 5.78-3.66 8.15-7q2.46-1.57 5-3z" fill="#DDDCDE"/><path d="M167 665c2 3 2 3 3.31 5.38 4.03 6.25 8.8 9.22 15.69 11.62l6 1q2.04 1.44 4 3c-9.96-.21-17.66-2.56-25-9.5-2.43-2.63-4.21-4.93-5-8.5z" fill="#E4E5E5"/><path d="M226 615c-1.58 4.51-5.1 6.77-8.75 9.56l-1.84 1.46c-5.93 4.6-10.55 7.4-18.29 7.17l-3.49-.08L191 633v-1l2.3-.15 3.01-.23 2.99-.21C202 631 202 631 205 629l2.42-1.48a90 90 0 0 0 15.02-11.23C224 615 224 615 226 615" fill="#DCDCDD"/><path d="m296 474 1.56 2.25c2.92 3.29 5.56 4.74 9.44 6.75v1c-7.77.9-13.43-1.94-20-6l-1-2h4v2l5-1z" fill="#D6BB74"/><path d="m867 686-2 4q-6.18.13-12.38.19l-3.56.07-3.4.03-3.14.05L840 690l-2-3 11.12-.5 3.18-.14c4.9-.22 9.79-.43 14.7-.36" fill="#A1A2A2"/><path d="M323 344c-1 2-1 2-3.25 2.87l-2.96.86-3.21.93-3.39.96-3.36.99c-8.3 2.39-8.3 2.39-12.83 2.39v-2l11.25-3.44 3.22-.98a402 402 0 0 1 5.96-1.82L317 344l2.21-.66C321 343 321 343 323 344" fill="#E5E7E7"/><path d="M429 348c2.72 2.72 3.07 5.3 4.06 9 1.86 6.84 1.86 6.84 2.94 9l3-2c2.19.38 2.19.38 4 1-2.06 2.79-3.08 3.01-6.62 3.6l-3.38.4-2-7.12-.58-2.02A36 36 0 0 1 429 348" fill="#EEEDEF"/><path d="M977.31 105.81q1.01 0 2.05-.04c3.72 0 6.48.17 9.64 2.23v1l-27 1v-2l3.43-.44c11.08-1.75 11.08-1.75 11.88-1.75" fill="#F1F3F4"/><path d="M832 238c-1 3-1 3-2.75 4.17-5.46 2.47-10.24 3.85-16.25 2.83-2.56-1.38-2.56-1.38-4-3v-2c5.79.94 5.79.94 8.38 1.66 3.22.42 4.87-.28 7.81-1.6 4.66-2.06 4.66-2.06 6.81-2.06" fill="#EAEAED"/><path d="M230 347h2c.7 10.35 1.15 20.62 1 31-4.6-4.6-3.05-14-3.07-20.21q.01-5.39.07-10.79" fill="#EDF0ED"/><path d="m406 300 1 2h-4v2l-5.18 2.15C396 307 396 307 393 309l-3-4c5.46-4.64 8.88-5.73 16-5" fill="#19191A"/><path d="M244 438h1l2.06 9.75.61 2.79.55 2.69.53 2.48A13.6 13.6 0 0 1 248 462c-2-1-2-1-3.06-3.62A76 76 0 0 1 243 448l-1-2c.34-1.95.34-1.95.94-4.12l.59-2.2z" fill="#D9DBD9"/><path d="M378 318c1.06 3.18 1.18 3.99 0 7-1.6 1.71-1.6 1.71-3.62 3.38l-2.17 1.8L370 332l-4 3.44-3 2.56-2-1 2.2-2.12c5.43-5.32 10.51-10.57 14.8-16.88" fill="#121214"/><path d="m696 240 2 1v2l-8.81 3-2.53.87-2.43.82-2.24.76C680 249 680 249 677 249v-2c5.06-2.82 9.18-4.33 15-5q2.01-.97 4-2" fill="#EDEDF0"/><path d="M879 362c3.3 4.4 3.46 6.8 3.38 12l.03 2.16c-.03 4.7-.45 5.89-3.41 9.84z" fill="#DCDFDC"/><path d="M880 384h1c1.52 14.6 1.52 14.6-1 22h-2c-.29-17.43-.29-17.43 2-22" fill="#ECECED"/><path d="m999 108 2 3-32-1v-1l1.79-.08a1075 1075 0 0 0 10.84-.48l2.7-.12 2.49-.11c9.16-.87 9.16-.87 12.18-.21" fill="#C6C7C8"/><path d="M169 645c1.06 2.75 1.04 3.88.06 6.72-1.12 3.47-1.46 6.52-1.68 10.16l-.23 3.49L167 668l-2-1c-1.59-6.09-.8-12 1-18 1.58-2.33 1.58-2.33 3-4" fill="#EBEDEA"/><path d="M1076 181c4.82 4.82 4.23 13.2 4.27 19.62C1080 203 1080 203 1078 206l-.15-2.71c-.41-6.65-1-13.01-2.55-19.5l-.3-1.79z" fill="#EDF0EE"/><path d="m874 457 3 1c.29 8.14-.82 15.98-2 24h-1z" fill="#F2F2F4"/><path d="m295 466 1 8-2 1-1-5h-9l-1 3-1-4q2.12-.76 4.25-1.5l2.39-.84C291 466 291 466 295 466" fill="#CEB76F"/><path d="m879 346 2 1c.97 4.18 1.14 8.22 1.12 12.5l.01 3.28A62 62 0 0 1 881 372h-1c-1.17-8.67-1.1-17.27-1-26" fill="#F0F1F2"/><path d="M248 330c2.6.91 5.09 1.87 7.62 2.94l2.15.88L263 336v2c-2.93-.41-5.54-.79-8.25-2-4.14-1.51-8.38-1.68-12.75-2a36 36 0 0 1 6-4" fill="#CBCBCD"/><path d="m520 323 3 2-17 9-1-3c4.92-2.87 9.89-5.49 15-8" fill="#E4E5E5"/><path d="M253 478a75 75 0 0 1 4.12 9.62l1.08 2.92c.8 2.46.8 2.46.8 4.46-1.89-.26-1.89-.26-4-1-1.01-1.74-1.01-1.74-1.69-3.88l-.7-2.11L252 486l-1-3c.94-2.69.94-2.69 2-5" fill="#DCDCDD"/><path d="m912 133 3 1-16 16c.55-4.06 2.64-6.13 5.38-9.06l2.39-2.6A220 220 0 0 1 912 133" fill="#E1DFE1"/><path d="M330 470h2c1.94 2.01 2.95 3.24 3.12 6.06-1.87 3.23-4.69 3.82-8.12 4.94l-3-1 2.44-2.19c2.58-2.84 3.24-4.08 3.56-7.81" fill="#BAAE76"/><path d="M416 308c4.4 3.8 5.22 8.42 6 14h-3q-1.05-2.37-2.06-4.75l-1.16-2.67c-.83-2.73-.76-3.95.22-6.58" fill="#EAEAEC"/><path d="M410 300c2.27 2.15 4.4 4.31 6 7l-1 3-1.69-2.25c-3.46-4.11-5.75-6.44-11.12-7.5L399 300v-1c4.41-1.02 7.06-1.36 11 1" fill="#D6D6D7"/><path d="m1079 203 2 1c-2.71 9.59-2.71 9.59-7 13l-2-1 1.88-3.25c1.45-2.55 2.85-5.1 4.12-7.75z" fill="#E1E1E4"/><path d="M377 455h3c1.32 1.68 1.32 1.68 2.56 3.88 1.38 2.39 2.47 4.15 4.44 6.12-5.62 3-5.62 3-9 3v-2h4q-.67-2.47-1.38-4.94l-.77-2.77C379 456 379 456 377 455" fill="#C9B57B"/><path d="M1002 109c2.7.68 2.7.68 5.69 1.88l3.01 1.17 2.3.95v3l-5.31-1.38-2.99-.77c-2.7-.85-2.7-.85-5.7-2.85z" fill="#DADCDB"/><path d="M878 333c2.88 2.88 2.96 6.09 3 10-.94 3.5-.94 3.5-2 6h-1a73 73 0 0 1-1-15z" fill="#E8E8EB"/><path d="M228 676c-10.37 6.89-10.37 6.89-16 6 2.32-2.32 4.47-3.31 7.44-4.69l2.93-1.38C225 675 225 675 228 676" fill="#E1E2DF"/><path d="m195.06 629.81 2.6-.04C200 630 200 630 203 632l-17 1v-2a32 32 0 0 1 9.06-1.19" fill="#EDF0ED"/><path d="m253 586 1 2-3.25 3.81-1.83 2.15A37 37 0 0 1 243 599c.52-4.1 2.65-5.96 5.56-8.75l2.51-2.42z" fill="#DBDDDD"/><path d="M250 332v1l-3.56.19c-4.93.58-7.64 2.72-11.44 5.81v-3c5.6-5.01 7.85-5.04 15-4" fill="#E4E4E6"/><path d="m229 672 2 1-.94 2.25c-1.47 5.2-1.73 10.37-2.06 15.75h-1q-.37-4.18-.69-8.38l-.22-2.4c-.16-2.31-.16-2.31-.09-6.22z" fill="#B7B8B7"/><path d="M237 398h1q.55 2.63 1.06 5.25l.6 2.95c.32 2.67.2 4.29-.66 6.8h-2c-1.51-5.04-.65-9.88 0-15" fill="#CACECB"/><path d="M210 628v2c-5.9 4.04-12.07 3.28-19 3v-1l2.3-.15 3.01-.23 2.99-.21C202 631 202 631 205 629c2-1 2-1 5-1" fill="#CBCDCB"/><path d="M309 349v1l-5.25 1.5-2.95.84c-2.8.66-2.8.66-6.8.66v-2c5.31-2.09 9.29-3.61 15-2" fill="#DFE1E2"/><path d="M490 688c-2.64 2.65-3.85 3-7.67 3.07q-2.04-.17-4.08-.38l-2.11-.19q-2.58-.23-5.14-.5v-1c6.35-.58 12.62-1.14 19-1" fill="#DDDFDD"/><path d="M812 652h3a28 28 0 0 1-2 7.19c-1.48 4.17-1.68 8.41-2 12.81h-1c-.24-7.03.21-13.18 2-20" fill="#C5C7C8"/><path d="M295 466h3l.5 4.31.28 2.43C299 475 299 475 299 478c-3.54-3.69-3.59-7.09-4-12" fill="#291D09"/><path d="M533 317c-1 3-1 3-2.74 4.2l-2.14 1.05-2.11 1.08C524 324 524 324 521 323q1.86-1.51 3.75-3l2.11-1.69C529 317 529 317 533 317" fill="#EEEEF0"/><path d="M1012 167c3.94 3.06 6.68 5.49 9 10l-2 2-1.81-2.81c-2.19-3.19-2.19-3.19-3.94-4.88C1012 170 1012 170 1012 167" fill="#D8D9D8"/><path d="m961 108 2 3c-4.27 1.14-7.56 2-12 2v-2z" fill="#E0E2E1"/><path d="m315 614 3 1-8 8-3-1z" fill="#211E26"/><path d="M353 578c-1.49 3.8-3.76 5.61-7 8v-6c4.75-2 4.75-2 7-2" fill="#D1D7D9"/><path d="M881 533c2.34 2.34 2.39 3.23 2.75 6.44l.3 2.37C884 544 884 544 882 547a1236 1236 0 0 1-1.66-10.06L880 534z" fill="#DEDEE0"/><path d="M623 272c-3.41 2.86-6.91 4.35-11 6 0-3 0-3 1.56-4.69 3.25-1.74 5.81-1.52 9.44-1.31" fill="#DCDCDE"/><path d="m722 234 10 2v1l-12 1z" fill="#DEDEE0"/><path d="m309 688 2 1c-1 3-1 3-4.06 4.69L304 695l-1-3z" fill="#171819"/><path d="M626 529c-3.2 2.74-6 4.63-10 6v-3c6.62-4.12 6.62-4.12 10-3" fill="#212222"/><path d="M875 502a29 29 0 0 1 3 8l-2 1v5c-1.75-3.03-2.25-5.2-2.19-8.69l.02-2.38C874 503 874 503 875 502" fill="#CCCDCD"/><path d="M372 462v3l2 1v2h-2v2h-4v-4h2z" fill="#ECC762"/><path d="m876 443 2 1c.37 7.57.37 7.57-1.51 9.76L875 455q-.04-2.71-.06-5.44l-.04-3.06c.1-2.5.1-2.5 1.1-3.5" fill="#F1F1F3"/><path d="m382 311 3 1-8 9-2-1c0-2 0-2 2.38-4.5L380 313z" fill="#D9DDDC"/><path d="M1031 201c4.08 2.04 4.52 2.3 6.25 6.12l1.02 2.2.73 1.68-3 1z" fill="#E4E4E6"/><path d="m917 216 1 2c-1 2.16-1 2.16-2.44 4.62l-1.43 2.48L913 227l-2-2q.93-1.98 1.88-3.94l1.05-2.21C915 217 915 217 917 216" fill="#E3E3E5"/><path d="m459 592 6 2a184 184 0 0 1-8 5l-2-2 3-2z" fill="#222423"/><path d="m565 298 2 1a231 231 0 0 1-3.25 3l-1.83 1.69C560 305 560 305 556 305c1.25-2.5 2.58-3.2 4.94-4.69l2.15-1.38z" fill="#EEEDF1"/><path d="M282 551h2c-1.39 4.43-3.61 6.87-7 10 0-3.34.48-4.07 2.38-6.69l1.33-1.88z" fill="#DCDEDD"/><path d="M251 410c1.27 3.81.55 5.36-1 9l-3 2-1-5h4z" fill="#1D1F1D"/><path d="M230 681c2.29 3.44 2.18 4.99 2 9l-2-4-2 4v-8z" fill="#080A09"/><path d="M167 665a96 96 0 0 1 6 10c-2.68-.37-3.84-.85-5.81-2.75-1.51-2.85-1.11-4.23-.19-7.25" fill="#CFD0CE"/><path d="m877 417 3 3c-.22 3.65-.38 5.38-3 8z" fill="#F2F2F4"/><path d="M238 383c1.33 2.19 2.05 3.48 1.81 6.06C239 391 239 391 236 394v-10z" fill="#171916"/><path d="M469 354c-.25 1.88-.25 1.88-1 4-1.94 1.31-1.94 1.31-4 2l-2-1c1-3 1-3 2.94-4.19C467 354 467 354 469 354" fill="#1F1C1F"/><path d="m570 296 2 1v2l-9 4c1.14-3.43 2.08-4.05 5-6z" fill="#DFDFE0"/><path d="m912 133 3 1-7 7-2-2z" fill="#D2D3D6"/><path d="M378 700c-1.5 1.56-1.5 1.56-4 3-2.77-.03-5.25-.5-8-1v-1c4.05-.98 7.84-1.08 12-1" fill="#E0E3E0"/><path d="M244 438h1l1 10-4-1z" fill="#D3D4D3"/><path d="M238 410c2.76 4.13 3.11 6.05 3 11h-2c-1.18-3.67-1.07-7.17-1-11" fill="#E9EBE9"/><path d="m369 329 1 2c-2.66 3.74-4.58 5.65-9 7l2.88-3.38 1.61-1.89A73 73 0 0 1 369 329" fill="#242526"/><path d="m610 275 2 1v2c-3.4 2.09-6.05 2.18-10 2 2.55-2 4.98-3.79 8-5" fill="#EFEFF1"/><path d="M884 676v2h-2v2l-3 2-3-1c4.62-5 4.62-5 8-5" fill="#B2B2B2"/><path d="M273 631h2v3l2 1-5 3c0-4 0-4 1-7" fill="#191719"/><path d="m374 319 2 1c-1.44 3.37-3.33 5.51-6 8 0-4 1.73-5.8 4-9" fill="#E6E6E7"/><path d="m658 253 2 1-1 3-6 1c1-3 1-3 2.94-4.25z" fill="#ECEBF0"/><path d="m228 614 3 1-5 2zm-3 3 1 2-3 4-1-3z" fill="#040504"/><path d="m370 558 3 1-2 4-5-1z" fill="#D8DBD9"/><path d="m587 546 2 1v2l-7 3v-3c2.38-1.75 2.38-1.75 5-3" fill="#1C1E1E"/><path d="M883 544h2l2 7-3 1c-1.35-2.71-1.07-5.01-1-8" fill="#EFF0F1"/><path d="M651 514c-.81 1.94-.81 1.94-2 4l-3 1-3-2c5.75-3 5.75-3 8-3" fill="#1C1E1E"/><path d="M863 292c2.68 2.68 4 4.13 4 8l-3-1c-1.19-3.06-1.19-3.06-2-6z" fill="#ECECEE"/><path d="M1051 223h11c-4 3-4 3-7.19 2.81L1052 225z" fill="#D9D9DB"/><path d="M722 579c3.37 1.39 4.99 2.98 7 6-3 0-3 0-5.19-1.88C722 581 722 581 722 579" fill="#E0E0DF"/><path d="M251 335h3v4l2 1c-2.94-.38-2.94-.38-6-1l-1-2h2z" fill="#0C0C11"/><path d="M512 329v2l-7 3v-3c3-2 3-2 7-2" fill="#DCDCDF"/><path d="M825 644v3c-2 1.69-2 1.69-4 3l-2-2z" fill="#171919"/><path d="M400 629h2l1 6-3 1-2-2 3-1z" fill="#18181A"/><path d="m428 363 2 1v2h2v4l-3 1z" fill="#0B0E0A"/><path d="m470 351-1 3c-2.56 1.19-2.56 1.19-5 2v-3c3.75-2 3.75-2 6-2" fill="#EAE6EC"/><path d="M378 318c1.04 3.13.93 3.99 0 7h-5z" fill="#212122"/><path d="M632 270c-4.75 4-4.75 4-7 4v-3c3.62-2.12 3.62-2.12 7-1" fill="#1B1B1F"/><path d="M918 210h2l-1 6-3 1c.88-4.75.88-4.75 2-7" fill="#D6D5DA"/><path d="M968 156v3h-8c2.63-2.63 4.3-3 8-3" fill="#D0D1D1"/></svg>