<svg style="background:transparent" version="1.1" xmlns="http://www.w3.org/2000/svg" viewBox="0 0 1248 704"><path d="M1011.11 109.17q2.82 1.22 5.7 2.37c8.6 3.54 15.92 7.55 23.2 13.46q1.36 1.05 2.8 2.11l2.2 1.9v2c.3.12.3.12 1.78.8 7.83 4.22 14.31 13.4 18.21 21.2q1.68 2.4 3.44 4.8a52 52 0 0 1 6.56 12.2q.75 1.64 1.5 3.36l1.5 3.63.75 1.8c2 5.33 3.06 10.8 4.06 16.38l.45 2.34c.81 4.77.71 7.92-1.26 12.48l-.88 2.5A33 33 0 0 1 1069 227c-2.88.87-2.88.87-6 1l-1.99.32c-6.44.7-10.33-1.79-15.29-5.72-6.47-6.2-11.73-13.72-14.12-22.43-1.77-6.42-4.64-12.53-7.77-18.39-.83-1.78-.83-1.78-1.32-3.95l-.5-1.83q-2-1.03-4-2-1.04-2-2-4c-5.88-7.2-15.73-12.2-24.86-13.37-4.99-.5-9.25-.78-14.15.37l-2.68.42-2.76.45-2.74.43c-12.79 3.16-25.17 13.08-31.94 24.1-3.2 5.38-6.03 10.57-7.88 16.6-5.28 12.93-10.97 25.8-19.45 36.94a233 233 0 0 0-4.18 5.74c-2.86 4.03-5.8 7.9-9.37 11.32l-1.88 1.87L892 257l-2.44 2.56A38 38 0 0 1 882 265q-4.2 3.4-8.25 7c-3.97 2.88-8.32 4.9-12.75 7 2.51 5.7 5.13 11.3 7.96 16.83 4.78 9.37 9.44 18.68 11.04 29.17l.94 3c4.3 14.55 4.23 30.58 4.2 45.64v14.62c-.15 3.98-.6 7.8-1.14 11.74a90 90 0 0 0 0 4.93q.07 2.04 0 4.07l-1 1a233 233 0 0 0-.5 8.37c-.3 6.01-.66 12-1.25 17.98-.39 4.1-.67 8.2-.97 12.31a185 185 0 0 1-.79 7.43c-.55 4.92-.65 9.8-.66 14.73v2.76l-.02 5.75q0 4.35-.04 8.68c-.03 12.15.34 23.36 4.23 35l1 7 .94 2.75a85 85 0 0 1 2.56 10.42l.4 2L889 551l.6 3.03a149 149 0 0 1 2.18 16.55c.22 2.42.22 2.42.72 5.42 1 5.97 1.6 12.06 1.5 18.12V597l1 1q.14 2.62.11 5.25v7.1l-.02 3.76-.02 9.91-.02 10.12q-.01 9.93-.05 19.86l2 .5 12.24 3.1c8.66 2.22 15.86 4.76 22.51 10.96 1.57 3.07 1.25 4.18.25 7.44-1.5 1.87-1.5 1.87-3.44 3.56l-1.87 1.7c-7.46 4.83-15.93 6.71-24.57 8.36l-3.3.64A262 262 0 0 1 869 694l-2.12.17c-24.55 1.97-49.29.6-73.86-.33l-8.07-.29c-19.37-.7-38.73-1.48-58.08-2.64-72.43-4.33-145.42-5.42-217.83-.14q-4.45.33-8.9.63c-38.48 2.7-77.5 6.31-115.65 12.13-6.32.8-12.7.66-19.07.7l-4.4.02-14.4.1h-2.48l-23.16.1q-14.77.03-29.56.15-10.4.1-20.83.1-6.21 0-12.42.07-5.84.06-11.68.04l-4.28.03c-10.8.18-10.8.18-14.42-2.46A28 28 0 0 1 224 697l1 3-3 2c-2-3-2-3-2-6l2-3c.41-3.14.41-3.14.62-6.69l.23-3.58.15-2.73-1.7.95c-13.64 7.28-25.17 9.48-40.22 5.22-8.25-2.95-14.2-7.77-18.2-15.62-2.35-6.83-1.63-14.7.95-21.39a37 37 0 0 1 19.06-16.9c3.94-1.18 7.4-1.26 11.48-1.08 9.2.16 15.63-4.67 22.04-10.83 1.6-1.35 1.6-1.35 3.6-1.35.1-.28.1-.28.68-1.69 1.67-2.96 3.84-5.03 6.31-7.3l2.48-2.34c7.26-6.67 7.26-6.67 9.52-6.67l.64-2.17c1.7-3.54 4.12-5.65 7.05-8.15 11.6-10.28 11.6-10.28 14.35-15.76 1.43-2.86 3.68-4.7 5.96-6.92a268 268 0 0 0 4.4-5.1q2.59-3.06 5.3-6.03A54 54 0 0 0 283 548l3.6-4.25c2.72-3.4 5.03-7.1 7.4-10.75a344 344 0 0 0-6.4-3.15c-4.65-2.25-8.66-4.48-12.6-7.85l-2.44-1.44c-5.08-3.1-8.74-6.3-11.56-11.56l-1.88-2.69c-5.89-9.19-9.44-18.69-11.65-29.32-.47-1.99-.47-1.99-1.53-4.62-1.22-3.07-1.48-6.1-1.94-9.37l-.94-2.76c-3.25-9.92-4.35-20.7-5.63-31.04-.65-4.86-1.73-9.64-2.74-14.44q-2-9.64-3.98-19.3-.85-4.17-1.77-8.35c-1.69-8.06-2.23-15.89-2.32-24.1q0-1.45-.04-2.9c.05-7.59.96-15.53 6.61-21.1 2.9-2.6 5.43-4.12 9.45-4.29 5.34.62 10.32 2.5 15.36 4.28l2.75.87c6.35 2.11 12.07 5.02 17.86 8.31 7.61 4.25 13.4 5.47 21.97 3.1q4.44-1.32 8.86-2.72c8.82-2.77 17.37-5.3 26.56-6.56l3-1c2.02-.3 4.03-.5 6.06-.72C347 340 347 340 350 339l3.75-.07c3.91-.43 5.46-1.79 8-4.75q1.64-2.08 3.25-4.18l2.06-2a55 55 0 0 0 4.88-5.94A72 72 0 0 1 380 313l2.03-2.39c4.45-5.22 8.32-9.47 14.97-11.6q1.2-.41 2.44-.8c3.48-.29 4.56.82 7.18 3.04q1.13.92 2.3 1.9c6.67 5.94 9.2 12.83 12.14 21.2q1.2 3.34 2.5 6.65c1.52 4.01 2.6 8.11 3.7 12.26q1.03 3.75 2.3 7.42c1.4 4.06 2.43 8.14 3.44 12.32l1 3 4.31-1.38 2.43-.77C443 363 443 363 446 361l2.72-.89c3.84-1.3 7.23-3.06 10.78-4.99l1.93-1.03c4.02-2.16 7.78-4.55 11.57-7.09q2.5-1.03 5-2 2.56-1.42 5.06-2.88a377 377 0 0 1 6.2-3.5l2.28-1.27q2.6-1.43 5.2-2.83c4.86-2.62 9.62-5.28 14.21-8.35a63 63 0 0 1 7.18-3.37c3.05-1.3 6.02-2.77 9-4.24l3.56-1.75a52 52 0 0 0 8.31-5.8q2-.54 4-1 3.03-1.98 6-4a66 66 0 0 1 7.25-3.33c3.55-1.49 6.67-3.47 9.9-5.56A39 39 0 0 1 573 294l5-3 6-3 8.32-4.6A72 72 0 0 1 600 280q3.01-1.49 6-3l2.75-1.32c3.7-1.9 7.17-4.07 10.7-6.28A45 45 0 0 1 628 266a209 209 0 0 0 20-9q2.12-1.11 4.25-2.19l1.9-.98A31 31 0 0 1 660 252a145 145 0 0 0 16-6 73 73 0 0 1 10.25-3.44c3.51-.93 6.95-1.94 10.37-3.13a94 94 0 0 1 11.34-3q1.91-.4 3.81-.9A189 189 0 0 1 772 231l3.5.25c8.08.61 8.08.61 11.5 1.75l5.9.68c3.12.47 6.07 1.41 9.1 2.32l4.44.93c3.1.66 5.88 1.54 8.81 2.75 5.05 1.77 7.26.98 12.1-1.17q1.8-.9 3.6-1.83l1.8-.89a75 75 0 0 0 17.32-12.2C852 222 852 222 854 221.1c2.77-1.52 4.13-3.59 6.01-6.1l2-2.47c5.04-6.23 9.52-12.28 13-19.53l1.44-2.82c1.62-3.3 3.11-6.66 4.6-10.03 1.23-2.76 2.61-5.45 3.96-8.15l.8-1.99c2.36-5.83 5.58-10.54 9.4-15.53A43 43 0 0 0 899 148l5-5 1.37-2.38c3.44-5.55 7.52-9.36 13.63-11.62l.91-1.9c1.27-2.45 2.3-3.17 4.65-4.54.36-.2.36-.2 2.16-1.27L929 120l2.28-1.33c6.94-3.96 13.97-6.9 21.6-9.24l2.13-.65c18.2-5.54 38.25-7.47 56.1.4" fill="#111311"/><path d="M1011.11 109.17q2.82 1.22 5.7 2.37c8.6 3.54 15.92 7.55 23.2 13.46q1.36 1.05 2.8 2.11l2.2 1.9v2c.3.12.3.12 1.78.8 7.83 4.22 14.31 13.4 18.21 21.2q1.68 2.4 3.44 4.8a52 52 0 0 1 6.56 12.2q.75 1.64 1.5 3.36l1.5 3.63.75 1.8c2 5.33 3.06 10.8 4.06 16.38l.45 2.34c.81 4.77.71 7.92-1.26 12.48l-.88 2.5A33 33 0 0 1 1069 227c-2.88.87-2.88.87-6 1l-1.99.32c-6.44.7-10.33-1.79-15.29-5.72-6.47-6.2-11.73-13.72-14.12-22.43-1.77-6.42-4.64-12.53-7.77-18.39-.83-1.78-.83-1.78-1.32-3.95l-.5-1.83q-2-1.03-4-2-1.04-2-2-4c-5.88-7.2-15.73-12.2-24.86-13.37-4.99-.5-9.25-.78-14.15.37l-2.68.42-2.76.45-2.74.43c-12.79 3.16-25.17 13.08-31.94 24.1-3.2 5.38-6.03 10.57-7.88 16.6-5.28 12.93-10.97 25.8-19.45 36.94a233 233 0 0 0-4.18 5.74c-2.86 4.03-5.8 7.9-9.37 11.32l-1.88 1.87L892 257l-2.44 2.56A38 38 0 0 1 882 265q-4.2 3.4-8.25 7c-3.97 2.88-8.32 4.9-12.75 7 2.51 5.7 5.13 11.3 7.96 16.83 4.78 9.37 9.44 18.68 11.04 29.17l.94 3c4.3 14.55 4.23 30.58 4.2 45.64v14.62c-.15 3.98-.6 7.8-1.14 11.74a90 90 0 0 0 0 4.93q.07 2.04 0 4.07l-1 1a233 233 0 0 0-.5 8.37c-.3 6.01-.66 12-1.25 17.98-.39 4.1-.67 8.2-.97 12.31a185 185 0 0 1-.79 7.43c-.55 4.92-.65 9.8-.66 14.73v2.76l-.02 5.75q0 4.35-.04 8.68c-.03 12.15.34 23.36 4.23 35l1 7 .94 2.75a85 85 0 0 1 2.56 10.42l.4 2L889 551l.6 3.03a149 149 0 0 1 2.18 16.55c.22 2.42.22 2.42.72 5.42 1 5.97 1.6 12.06 1.5 18.12V597l1 1q.14 2.62.11 5.25v7.1l-.02 3.76-.02 9.91-.02 10.12q-.01 9.93-.05 19.86l2 .5 12.24 3.1c8.66 2.22 15.86 4.76 22.51 10.96 1.57 3.07 1.25 4.18.25 7.44-1.5 1.87-1.5 1.87-3.44 3.56l-1.87 1.7c-7.46 4.83-15.93 6.71-24.57 8.36l-3.3.64A262 262 0 0 1 869 694l-2.12.17c-24.55 1.97-49.29.6-73.86-.33l-8.07-.29c-19.37-.7-38.73-1.48-58.08-2.64-72.43-4.33-145.42-5.42-217.83-.14q-4.45.33-8.9.63a1670 1670 0 0 0-115.98 12.14c-4.45.55-8.85.6-13.33.57h-2.66l-8.64-.02h-6.02l-15.78-.03-16.13-.02q-15.8 0-31.6-.04c3.5-2.7 7.2-4.83 11.06-6.94 6.2-3.43 12.22-7.07 18.2-10.88a712 712 0 0 1 19.18-11.87 3064 3064 0 0 0 60.01-36.72q3.33-2.09 6.68-4.15a939 939 0 0 0 48.97-32.13c6.08-4.27 11.52-6.66 18.77-8.06 60.13-12.67 117.07-42.75 170.54-72.19q6.26-3.44 12.55-6.8l1.8-.98 8.68-4.65 3.16-1.7 2.8-1.5q2.7-1.49 5.31-3.12c2.3-1.3 2.3-1.3 4.3-1.3l.78 2.38c6.01 18.06 12.1 35.51 22.02 51.86l1.07 1.78c8.55 13.5 20.47 24.52 31.88 35.53 19.8 19.16 19.8 19.16 20.38 32.72.04 3.25.06 6.47-.14 9.72-1.7 1.7-4.17 1.41-6.5 1.68-7.15 1.17-12.58 3.61-17.13 9.38-3.82 5.92-5.03 10.92-4.37 17.94 1.7 4.74 3.71 7.37 8 10 7.22 3 14.2 4.73 22 5l3.28.12c13.47.25 25.61-.82 36.53-9.3 12.2-15.68 12.61-37.1 12.56-56.14l.01-2.3c-.02-11.59-.88-22.28-4.38-33.38l-1.13-3.96L806 571c13.6 6.31 27.18 19.51 32.81 33.37 4.41 12.61 4.42 24.41 4.2 37.63l-2.28.22c-7.6.98-13.86 2.65-19.73 7.78a59 59 0 0 0-6 10l-1 2c-.53 6.2-.76 11.78 3 17 5.6 6.46 12.7 8.5 21.04 9.28q4.7.16 9.4.1l3.16.03c11.78-.05 23.9-2.26 32.71-10.6 22.92-38.2 5.48-113.33-3.78-153.15l-.69-2.98a348 348 0 0 0-1.28-5.37c-5.23-22.06-2.62-45.74-1.19-68.13l.2-3a1046 1046 0 0 1 3-36.65c3.9-39.53 2.97-78.82-15.6-114.75l-.97-1.87a190 190 0 0 0-2.14-3.99 44 44 0 0 1-3.63-8.59c1.38-4.17 5.46-5.6 9.14-7.65l5-2.9 2.42-1.44c4.42-2.7 8.31-5.96 12.21-9.34l2.06-1.66c17.91-14.78 28.12-36.49 37.1-57.34 8.33-19.35 20.13-35.02 40.21-43.38 10.48-4.03 23.93-4.65 34.38-.37 19.3 9.5 28.45 24.78 35.75 44.37 3.67 9.7 7.22 18.03 16.34 23.48 5.17 2.15 11.34 1.5 16.53-.23 5.07-3.62 8.25-8.17 10.63-13.87.47-2.83.52-5.58.5-8.44l-.02-2.4c-.74-24.84-18.76-49.1-35.92-65.85-17.34-15.65-37.76-23.9-61-23.69l-3.66-.03c-11.46.03-22.59 1.75-33.03 6.66l-2 .91c-29.9 13.9-45.96 36.08-59.27 65.06C877.77 196 870.34 208.16 859 220l-1.99 2.14c-8.74 9.16-23.45 21.2-36.55 22.1-5.3-.08-10.15-1.6-15.2-3.06-27.4-7.36-58.37-9.98-86.33-3.62q-2.83.62-5.67 1.14c-23.9 4.9-47.33 14.23-69.55 24.1a615 615 0 0 1-9.15 3.94 314 314 0 0 0-17.05 7.97l-2.1 1.05a2653 2653 0 0 0-21.9 11.17l-2.13 1.1a3071 3071 0 0 0-41.36 21.76l-14.37 7.63a3373 3373 0 0 0-40.2 21.6C438.84 370 438.84 370 431 370l-.85-3.39C416 311 416 311 404 303.01a17 17 0 0 0-9 0c-3.84 2.5-6.86 5.66-10 9l-2.76 2.87a236 236 0 0 0-14.88 17.45c-6.77 7.64-11.42 10.61-21.67 11.67a220 220 0 0 0-28.19 5.56l-3.38.9a213 213 0 0 0-16.2 4.95c-5.78 1.77-9.68.88-14.94-1.62l-2.94-1.37L277 351q-5.86-2.63-11.75-5.19l-3-1.33c-15.56-6.8-15.56-6.8-24.25-5.48-4.13 2.37-5.52 4.57-7 9-3.45 26.62 3.84 54.1 9.66 79.88a179 179 0 0 1 2.78 15.43c4.1 27.53 10.47 59.75 33.9 77.17 6.35 4.51 13.97 9 21.66 10.52-1.64 3.71-3.95 6.68-6.44 9.87l-1.33 1.71-2.8 3.58-4.22 5.45a275 275 0 0 1-15.05 17.98c-2.2 2.44-4.24 4.96-6.29 7.53-6.22 7.66-13.02 14.78-19.87 21.88q-1.2 1.22-2.4 2.5c-9.94 10.22-19.8 20.38-31.6 28.5l-1.65 1.14c-4.59 2.96-8.28 3.33-13.66 3.3-8.92.25-15.7 2.11-22.07 8.74-4.56 5.98-7.4 13.01-7 20.58a26 26 0 0 0 7 14.05c1.6 1.12 1.6 1.12 3.38 2.2l1.91 1.17c9.34 4.74 21.9 4.31 31.9 1.9A83 83 0 0 0 218 679l3.22-1.67q3.93-2.1 7.77-4.33l-.97 3.03c-1.88 6.61-2.73 15 .02 21.42 1.74 2.44 3.84 4.44 5.95 6.55-4.3-.48-6.17-1.75-9-5l-3 3c-2-3-2-3-2-6l2-3c.41-3.14.41-3.14.62-6.69l.23-3.58.15-2.73-1.7.95c-13.64 7.28-25.17 9.48-40.22 5.22-8.25-2.95-14.2-7.77-18.2-15.62-2.35-6.83-1.63-14.7.95-21.39a37 37 0 0 1 19.06-16.9c3.94-1.18 7.4-1.26 11.48-1.08 9.2.16 15.63-4.67 22.04-10.83C218 619 218 619 220 619c.1-.28.1-.28.68-1.69 1.67-2.96 3.84-5.03 6.31-7.3l2.48-2.34c7.26-6.67 7.26-6.67 9.52-6.67l.64-2.17c1.7-3.54 4.12-5.65 7.05-8.15 11.6-10.28 11.6-10.28 14.35-15.76 1.43-2.86 3.68-4.7 5.96-6.92a268 268 0 0 0 4.4-5.1q2.59-3.06 5.3-6.03A54 54 0 0 0 283 548l3.6-4.25c2.72-3.4 5.03-7.1 7.4-10.75a344 344 0 0 0-6.4-3.15c-4.65-2.25-8.66-4.48-12.6-7.85l-2.44-1.44c-5.08-3.1-8.74-6.3-11.56-11.56l-1.88-2.69c-5.89-9.19-9.44-18.69-11.65-29.32-.47-1.99-.47-1.99-1.53-4.62-1.22-3.07-1.48-6.1-1.94-9.37l-.94-2.76c-3.25-9.92-4.35-20.7-5.63-31.04-.65-4.86-1.73-9.64-2.74-14.44q-2-9.64-3.98-19.3-.85-4.17-1.77-8.35c-1.69-8.06-2.23-15.89-2.32-24.1q0-1.45-.04-2.9c.05-7.59.96-15.53 6.61-21.1 2.9-2.6 5.43-4.12 9.45-4.29 5.34.62 10.32 2.5 15.36 4.28l2.75.87c6.35 2.11 12.07 5.02 17.86 8.31 7.61 4.25 13.4 5.47 21.97 3.1q4.44-1.32 8.86-2.72c8.82-2.77 17.37-5.3 26.56-6.56l3-1c2.02-.3 4.03-.5 6.06-.72C347 340 347 340 350 339l3.75-.07c3.91-.43 5.46-1.79 8-4.75q1.64-2.08 3.25-4.18l2.06-2a55 55 0 0 0 4.88-5.94A72 72 0 0 1 380 313l2.03-2.39c4.45-5.22 8.32-9.47 14.97-11.6q1.2-.41 2.44-.8c3.48-.29 4.56.82 7.18 3.04q1.13.92 2.3 1.9c6.67 5.94 9.2 12.83 12.14 21.2q1.2 3.34 2.5 6.65c1.52 4.01 2.6 8.11 3.7 12.26q1.03 3.75 2.3 7.42c1.4 4.06 2.43 8.14 3.44 12.32l1 3 4.31-1.38 2.43-.77C443 363 443 363 446 361l2.72-.89c3.84-1.3 7.23-3.06 10.78-4.99l1.93-1.03c4.02-2.16 7.78-4.55 11.57-7.09q2.5-1.03 5-2 2.56-1.42 5.06-2.88a377 377 0 0 1 6.2-3.5l2.28-1.27q2.6-1.43 5.2-2.83c4.86-2.62 9.62-5.28 14.21-8.35a63 63 0 0 1 7.18-3.37c3.05-1.3 6.02-2.77 9-4.24l3.56-1.75a52 52 0 0 0 8.31-5.8q2-.54 4-1 3.03-1.98 6-4a66 66 0 0 1 7.25-3.33c3.55-1.49 6.67-3.47 9.9-5.56A39 39 0 0 1 573 294l5-3 6-3 8.32-4.6A72 72 0 0 1 600 280q3.01-1.49 6-3l2.75-1.32c3.7-1.9 7.17-4.07 10.7-6.28A45 45 0 0 1 628 266a209 209 0 0 0 20-9q2.12-1.11 4.25-2.19l1.9-.98A31 31 0 0 1 660 252a145 145 0 0 0 16-6 73 73 0 0 1 10.25-3.44c3.51-.93 6.95-1.94 10.37-3.13a94 94 0 0 1 11.34-3q1.91-.4 3.81-.9A189 189 0 0 1 772 231l3.5.25c8.08.61 8.08.61 11.5 1.75l5.9.68c3.12.47 6.07 1.41 9.1 2.32l4.44.93c3.1.66 5.88 1.54 8.81 2.75 5.05 1.77 7.26.98 12.1-1.17q1.8-.9 3.6-1.83l1.8-.89a75 75 0 0 0 17.32-12.2C852 222 852 222 854 221.1c2.77-1.52 4.13-3.59 6.01-6.1l2-2.47c5.04-6.23 9.52-12.28 13-19.53l1.44-2.82c1.62-3.3 3.11-6.66 4.6-10.03 1.23-2.76 2.61-5.45 3.96-8.15l.8-1.99c2.36-5.83 5.58-10.54 9.4-15.53A43 43 0 0 0 899 148l5-5 1.37-2.38c3.44-5.55 7.52-9.36 13.63-11.62l.91-1.9c1.27-2.45 2.3-3.17 4.65-4.54.36-.2.36-.2 2.16-1.27L929 120l2.28-1.33c6.94-3.96 13.97-6.9 21.6-9.24l2.13-.65c18.2-5.54 38.25-7.47 56.1.4" fill="#B9BBB9"/><path d="m682 501 .79 2.39c6.01 18.06 12.1 35.51 22.02 51.86l1.07 1.79c8.55 13.49 20.47 24.51 31.88 35.53 19.79 19.15 19.79 19.15 20.38 32.72.04 3.25.06 6.46-.14 9.71-1.73 1.73-4.26 1.5-6.62 1.81a26 26 0 0 0-11.4 4.37c-7.94 3.27-20.44.63-29.02.12-26.23-1.53-52.44-1.66-78.71-1.62l-11.04.01c-36.16.03-72.14.53-108.21 3.31l-6.32.47a1045 1045 0 0 0-64.16 6.66q-8.49 1.14-17.02 1.93-11.08 1.06-22.12 2.5l-3.05.39-2.81.37-2.5.32C393 656 393 656 391 657q-3.68.52-7.38.94A360 360 0 0 0 363 661a38 38 0 0 1 8.58-6.93l2.73-1.64 2.94-1.74 6.29-3.79 3.26-1.96c22.89-13.85 45.63-28.25 67.46-43.73a45 45 0 0 1 18.62-7.96c60.12-12.67 117.06-42.75 170.53-72.19q6.26-3.43 12.55-6.81l1.79-.96 8.69-4.66 3.16-1.7 2.79-1.49q2.7-1.5 5.32-3.12C680 501 680 501 682 501" fill="#ECEEEC"/><path d="M1011.11 109.17q2.82 1.22 5.7 2.37c8.6 3.54 15.92 7.55 23.2 13.46q1.36 1.05 2.8 2.11l2.2 1.9v2c.3.12.3.12 1.78.8 7.83 4.22 14.31 13.4 18.21 21.2q1.68 2.4 3.44 4.8a52 52 0 0 1 6.56 12.2q.75 1.64 1.5 3.36l1.5 3.63.75 1.8c2 5.33 3.06 10.8 4.06 16.38l.45 2.34c.81 4.77.71 7.92-1.26 12.48l-.88 2.5A33 33 0 0 1 1069 227c-2.88.87-2.88.87-6 1l-1.99.32c-6.44.7-10.33-1.79-15.29-5.72-6.47-6.2-11.73-13.72-14.12-22.43-1.77-6.42-4.64-12.53-7.77-18.39-.83-1.78-.83-1.78-1.32-3.95l-.5-1.83q-2-1.03-4-2-1.04-2-2-4c-5.88-7.2-15.73-12.2-24.86-13.37-4.99-.5-9.25-.78-14.15.37l-2.68.42-2.76.45-2.74.43c-12.79 3.16-25.17 13.08-31.94 24.1-3.2 5.38-6.03 10.57-7.88 16.6-5.28 12.93-10.97 25.8-19.45 36.94a233 233 0 0 0-4.18 5.74c-2.86 4.03-5.8 7.9-9.37 11.32l-1.88 1.87L892 257l-2.44 2.56A38 38 0 0 1 882 265q-4.2 3.4-8.25 7c-3.97 2.88-8.32 4.9-12.75 7 2.51 5.7 5.13 11.3 7.96 16.83 4.78 9.37 9.44 18.68 11.04 29.17l.94 3c4.3 14.55 4.23 30.58 4.2 45.64v14.62c-.15 3.98-.6 7.8-1.14 11.74a90 90 0 0 0 0 4.93q.07 2.04 0 4.07l-1 1a233 233 0 0 0-.5 8.37c-.3 6.01-.66 12-1.25 17.98-.39 4.1-.67 8.2-.97 12.31a185 185 0 0 1-.79 7.43c-.55 4.92-.65 9.8-.66 14.73v2.76l-.02 5.75q0 4.35-.04 8.68c-.03 12.15.34 23.36 4.23 35l1 7 .94 2.75a85 85 0 0 1 2.56 10.42l.4 2L889 551l.6 3.03a149 149 0 0 1 2.18 16.55c.22 2.42.22 2.42.72 5.42 1 5.97 1.6 12.06 1.5 18.12V597l1 1q.14 2.62.11 5.25v7.1l-.02 3.76-.02 9.91-.02 10.12q-.01 9.93-.05 19.86l2 .5 12.24 3.1c8.66 2.22 15.86 4.76 22.51 10.96 1.57 3.07 1.25 4.18.25 7.44-1.5 1.87-1.5 1.87-3.44 3.56l-1.87 1.7c-7.46 4.83-15.93 6.71-24.57 8.36l-3.3.64A262 262 0 0 1 869 694l-2.12.17c-24.55 1.97-49.29.6-73.86-.33l-8.07-.29c-19.37-.7-38.73-1.48-58.08-2.64-72.43-4.33-145.42-5.42-217.83-.14q-4.45.33-8.9.63c-38.97 2.73-78 7.08-116.73 12.2-2.9.34-5.66.51-8.57.5l-2.65-.02-2.69-.02-2.78-.02q-3.36 0-6.72-.04v-1l1.92-.16c20.86-1.67 20.86-1.67 29.92-3.35 4.27-.67 8.55-1.05 12.85-1.43q11.11-1 22.18-2.38L441 694l2.36-.28c23.95-2.83 47.87-5.13 71.95-6.47l3.2-.18q9.24-.51 18.5-.93l8.55-.44c21.21-1.03 42.45-.89 63.67-.89q6.74 0 13.45-.02c28.43-.09 56.73.42 85.12 2.08q5.03.29 10.07.55 11.7.64 23.37 1.33c29.57 1.72 59.13 2.45 88.75 2.5q4.47 0 8.93.03c71.51.52 71.51.52 89.42-14.2 1.66-2.08 1.66-2.08 1.41-5.83L929 668l-2.23-.89q-2.48-.99-4.92-2.04c-6.27-2.67-12.65-4.46-19.24-6.15q-5.32-1.37-10.6-2.92l-.09-3.86q-.41-21.08-.92-42.14l-.05-2.15c-.7-28.36-5-55.57-11.42-83.19l-.69-2.98a348 348 0 0 0-1.28-5.37c-5.23-22.06-2.62-45.74-1.19-68.13l.2-3a1046 1046 0 0 1 3-36.65c3.9-39.53 2.97-78.82-15.6-114.75l-.97-1.87a190 190 0 0 0-2.14-3.99 44 44 0 0 1-3.63-8.59c1.38-4.17 5.46-5.6 9.14-7.65l5-2.9 2.42-1.44c4.42-2.7 8.31-5.96 12.21-9.34l2.06-1.66c17.91-14.78 28.12-36.49 37.1-57.34 8.33-19.35 20.13-35.02 40.21-43.38 10.48-4.03 23.93-4.65 34.38-.37 19.3 9.5 28.45 24.78 35.75 44.37 3.67 9.7 7.22 18.03 16.34 23.48 5.17 2.15 11.34 1.5 16.53-.23 5.07-3.62 8.25-8.17 10.63-13.87.47-2.83.52-5.58.5-8.44l-.02-2.4c-.74-24.84-18.76-49.1-35.92-65.85-17.34-15.65-37.76-23.9-61-23.69l-3.66-.03c-11.46.03-22.59 1.75-33.03 6.66l-2 .91c-29.9 13.9-45.96 36.08-59.27 65.06C877.77 196 870.34 208.16 859 220l-1.99 2.14c-8.74 9.16-23.45 21.2-36.55 22.1-5.3-.08-10.15-1.6-15.2-3.06-27.4-7.36-58.37-9.98-86.33-3.62q-2.83.62-5.67 1.14c-23.9 4.9-47.33 14.23-69.55 24.1a615 615 0 0 1-9.15 3.94 314 314 0 0 0-17.05 7.97l-2.1 1.05a2653 2653 0 0 0-21.9 11.17l-2.13 1.1a3071 3071 0 0 0-41.36 21.76l-14.37 7.63a3373 3373 0 0 0-40.2 21.6C438.84 370 438.84 370 431 370l-.85-3.39C416 311 416 311 404 303.01a17 17 0 0 0-9 0c-3.84 2.5-6.86 5.66-10 9l-2.76 2.87a236 236 0 0 0-14.88 17.45c-6.77 7.64-11.42 10.61-21.67 11.67a220 220 0 0 0-28.19 5.56l-3.38.9a213 213 0 0 0-16.2 4.95c-5.78 1.77-9.68.88-14.94-1.62l-2.94-1.37L277 351q-5.86-2.63-11.75-5.19l-3-1.33c-15.56-6.8-15.56-6.8-24.25-5.48-4.13 2.37-5.52 4.57-7 9-3.45 26.62 3.84 54.1 9.66 79.88a179 179 0 0 1 2.78 15.43c4.1 27.53 10.47 59.75 33.9 77.17 6.35 4.51 13.97 9 21.66 10.52-1.64 3.71-3.95 6.68-6.44 9.87l-1.33 1.71-2.8 3.58-4.22 5.45a275 275 0 0 1-15.05 17.98c-2.2 2.44-4.24 4.96-6.29 7.53-6.22 7.66-13.02 14.78-19.87 21.88q-1.2 1.22-2.4 2.5c-9.94 10.22-19.8 20.38-31.6 28.5l-1.65 1.14c-4.59 2.96-8.28 3.33-13.66 3.3-8.92.25-15.7 2.11-22.07 8.74-4.56 5.98-7.4 13.01-7 20.58a26 26 0 0 0 7 14.05c1.6 1.12 1.6 1.12 3.38 2.2l1.91 1.17c9.34 4.74 21.9 4.31 31.9 1.9A83 83 0 0 0 218 679l3.22-1.67q3.93-2.1 7.77-4.33l-.97 3.03c-1.88 6.61-2.73 15 .02 21.42 1.74 2.44 3.84 4.44 5.95 6.55-4.3-.48-6.17-1.75-9-5l-3 3c-2-3-2-3-2-6l2-3c.41-3.14.41-3.14.62-6.69l.23-3.58.15-2.73-1.7.95c-13.64 7.28-25.17 9.48-40.22 5.22-8.25-2.95-14.2-7.77-18.2-15.62-2.35-6.83-1.63-14.7.95-21.39a37 37 0 0 1 19.06-16.9c3.94-1.18 7.4-1.26 11.48-1.08 9.2.16 15.63-4.67 22.04-10.83C218 619 218 619 220 619c.1-.28.1-.28.68-1.69 1.67-2.96 3.84-5.03 6.31-7.3l2.48-2.34c7.26-6.67 7.26-6.67 9.52-6.67l.64-2.17c1.7-3.54 4.12-5.65 7.05-8.15 11.6-10.28 11.6-10.28 14.35-15.76 1.43-2.86 3.68-4.7 5.96-6.92a268 268 0 0 0 4.4-5.1q2.59-3.06 5.3-6.03A54 54 0 0 0 283 548l3.6-4.25c2.72-3.4 5.03-7.1 7.4-10.75a344 344 0 0 0-6.4-3.15c-4.65-2.25-8.66-4.48-12.6-7.85l-2.44-1.44c-5.08-3.1-8.74-6.3-11.56-11.56l-1.88-2.69c-5.89-9.19-9.44-18.69-11.65-29.32-.47-1.99-.47-1.99-1.53-4.62-1.22-3.07-1.48-6.1-1.94-9.37l-.94-2.76c-3.25-9.92-4.35-20.7-5.63-31.04-.65-4.86-1.73-9.64-2.74-14.44q-2-9.64-3.98-19.3-.85-4.17-1.77-8.35c-1.69-8.06-2.23-15.89-2.32-24.1q0-1.45-.04-2.9c.05-7.59.96-15.53 6.61-21.1 2.9-2.6 5.43-4.12 9.45-4.29 5.34.62 10.32 2.5 15.36 4.28l2.75.87c6.35 2.11 12.07 5.02 17.86 8.31 7.61 4.25 13.4 5.47 21.97 3.1q4.44-1.32 8.86-2.72c8.82-2.77 17.37-5.3 26.56-6.56l3-1c2.02-.3 4.03-.5 6.06-.72C347 340 347 340 350 339l3.75-.07c3.91-.43 5.46-1.79 8-4.75q1.64-2.08 3.25-4.18l2.06-2a55 55 0 0 0 4.88-5.94A72 72 0 0 1 380 313l2.03-2.39c4.45-5.22 8.32-9.47 14.97-11.6q1.2-.41 2.44-.8c3.48-.29 4.56.82 7.18 3.04q1.13.92 2.3 1.9c6.67 5.94 9.2 12.83 12.14 21.2q1.2 3.34 2.5 6.65c1.52 4.01 2.6 8.11 3.7 12.26q1.03 3.75 2.3 7.42c1.4 4.06 2.43 8.14 3.44 12.32l1 3 4.31-1.38 2.43-.77C443 363 443 363 446 361l2.72-.89c3.84-1.3 7.23-3.06 10.78-4.99l1.93-1.03c4.02-2.16 7.78-4.55 11.57-7.09q2.5-1.03 5-2 2.56-1.42 5.06-2.88a377 377 0 0 1 6.2-3.5l2.28-1.27q2.6-1.43 5.2-2.83c4.86-2.62 9.62-5.28 14.21-8.35a63 63 0 0 1 7.18-3.37c3.05-1.3 6.02-2.77 9-4.24l3.56-1.75a52 52 0 0 0 8.31-5.8q2-.54 4-1 3.03-1.98 6-4a66 66 0 0 1 7.25-3.33c3.55-1.49 6.67-3.47 9.9-5.56A39 39 0 0 1 573 294l5-3 6-3 8.32-4.6A72 72 0 0 1 600 280q3.01-1.49 6-3l2.75-1.32c3.7-1.9 7.17-4.07 10.7-6.28A45 45 0 0 1 628 266a209 209 0 0 0 20-9q2.12-1.11 4.25-2.19l1.9-.98A31 31 0 0 1 660 252a145 145 0 0 0 16-6 73 73 0 0 1 10.25-3.44c3.51-.93 6.95-1.94 10.37-3.13a94 94 0 0 1 11.34-3q1.91-.4 3.81-.9A189 189 0 0 1 772 231l3.5.25c8.08.61 8.08.61 11.5 1.75l5.9.68c3.12.47 6.07 1.41 9.1 2.32l4.44.93c3.1.66 5.88 1.54 8.81 2.75 5.05 1.77 7.26.98 12.1-1.17q1.8-.9 3.6-1.83l1.8-.89a75 75 0 0 0 17.32-12.2C852 222 852 222 854 221.1c2.77-1.52 4.13-3.59 6.01-6.1l2-2.47c5.04-6.23 9.52-12.28 13-19.53l1.44-2.82c1.62-3.3 3.11-6.66 4.6-10.03 1.23-2.76 2.61-5.45 3.96-8.15l.8-1.99c2.36-5.83 5.58-10.54 9.4-15.53A43 43 0 0 0 899 148l5-5 1.37-2.38c3.44-5.55 7.52-9.36 13.63-11.62l.91-1.9c1.27-2.45 2.3-3.17 4.65-4.54.36-.2.36-.2 2.16-1.27L929 120l2.28-1.33c6.94-3.96 13.97-6.9 21.6-9.24l2.13-.65c18.2-5.54 38.25-7.47 56.1.4" fill="#E5E5E6"/><path d="M245.83 342.32C259.34 345.2 275.2 354.47 284 365v3c-1.58 1.43-1.58 1.43-3.69 2.87-15.4 11.02-24.54 27.52-29.9 45.32-1.4 2.81-1.4 2.81-4.07 3.71l-2.34.1c-5.26-12.24-7.1-24.89-9-38l-4 2c-2.06-10.8-2.56-23.73 2.37-33.82L235 348l1.56-2.82c3.2-2.86 5.05-3.08 9.27-2.86" fill="#272825"/><path d="M403 307h4c4.2 1.75 5.83 3.9 7.62 8.04l.82 2.02.89 2.12c3.33 8.12 6.04 16.45 8.67 24.82l1.04 3.22c1.22 3.89 1.96 6.65 1.96 10.78h-2l.5 2.94c.63 4.35.59 8.67.5 13.06l-4-1v-3l-2.38-.94C418 368 418 368 416 367v-2l-2.08-.76a73 73 0 0 1-7.78-4.01c-10.71-5.92-22.01-7.83-33.99-9.78C370 350 370 350 369 349c.32-5.51 1.82-8.56 5-13q1.09-2.47 2-5h2l.32-1.67c.83-2.83 2.11-5.06 3.62-7.58l1.59-2.7L385 317h2l.79-1.8c1.3-2.36 2.59-3.67 4.65-5.39l1.81-1.54c3.23-2.34 5.1-2.26 8.75-1.27" fill="#252622"/><path d="M806 571c13.6 6.31 27.18 19.51 32.81 33.38 4.41 12.6 4.42 24.41 4.19 37.62l-2.27.23c-5.8.74-10.02 1.65-14.85 5.02-2.87 1.92-4.25 2.76-7.72 2.7A53 53 0 0 1 811 648l-.06-4-.04-2.25c.1-2.75.1-2.75.59-6.43.9-7.03.8-14.12.82-21.2l.01-2.36c.02-11.73-.77-22.51-4.32-33.76l-1.13-3.95z" fill="#ECEDEC"/><path d="M270.34 344.1a300 300 0 0 1 6.17 3.19 61 61 0 0 0 12.49 4.7l2 2-1 2c-8.39-2.57-16.12-6.2-24.03-9.96-18.57-8.7-18.57-8.7-27.97-7.03-4.13 2.38-5.52 4.58-7 9-3.45 26.63 3.84 54.1 9.66 79.89a179 179 0 0 1 2.78 15.43c4.1 27.53 10.47 59.75 33.89 77.17 6.36 4.5 13.98 8.99 21.67 10.5-1.64 3.73-3.95 6.7-6.44 9.89l-1.33 1.7-2.8 3.59q-2.12 2.71-4.22 5.45a275 275 0 0 1-15.05 17.98 156 156 0 0 0-6.28 7.53c-6.23 7.66-13.03 14.78-19.88 21.87l-2.41 2.5c-9.93 10.23-19.8 20.39-31.59 28.5l-1.65 1.15c-4.59 2.96-8.28 3.33-13.66 3.29-8.92.25-15.71 2.12-22.06 8.75-4.57 5.98-7.41 13-7.01 20.58a26 26 0 0 0 7.01 14.05A35 35 0 0 0 175 680l1.91 1.19c9.34 4.74 21.91 4.3 31.89 1.9a81 81 0 0 0 9.2-4.1l3.23-1.65q3.93-2.1 7.77-4.34l-.97 3.04c-1.88 6.6-2.73 15 .02 21.42 1.74 2.44 3.84 4.43 5.95 6.54-4.31-.47-6.17-1.74-9-5l-3 3c-2-3-2-3-2-6l2-3c.41-3.13.41-3.13.63-6.68l.22-3.58.15-2.74-1.7.96c-13.64 7.28-25.17 9.48-40.22 5.22-8.25-2.95-14.2-7.77-18.2-15.62-2.35-6.83-1.63-14.7.95-21.4a37 37 0 0 1 19.06-16.9c3.94-1.17 7.4-1.25 11.49-1.07 9.18.15 15.62-4.67 22.03-10.83C218 619 218 619 220 619l.69-1.68c1.68-2.96 3.84-5.03 6.31-7.32l2.48-2.32c7.26-6.68 7.26-6.68 9.52-6.68l.64-2.16c1.7-3.54 4.13-5.65 7.05-8.15 11.61-10.28 11.61-10.28 14.35-15.76 1.43-2.86 3.68-4.7 5.96-6.93q2.22-2.51 4.39-5.1 2.6-3.05 5.3-6.02A53 53 0 0 0 283 548l3.59-4.24c2.73-3.4 5.04-7.1 7.41-10.76a316 316 0 0 0-6.4-3.14c-4.65-2.25-8.66-4.48-12.6-7.86l-2.44-1.43c-5.08-3.1-8.74-6.31-11.56-11.57l-1.87-2.68c-5.9-9.2-9.45-18.7-11.66-29.32-.47-2-.47-2-1.53-4.62-1.22-3.08-1.48-6.11-1.94-9.38l-.94-2.75c-3.25-9.92-4.35-20.71-5.63-31.04-.65-4.86-1.73-9.64-2.73-14.44a3142 3142 0 0 1-3.98-19.3 828 828 0 0 0-1.78-8.35c-1.69-8.06-2.23-15.9-2.31-24.12l-.05-2.9c.05-7.08.9-13.61 5.14-19.47l1.78-1.63 1.78-1.68c9.31-7.11 26.05 2.33 35.06 6.79" fill="#E2E4E4"/><path d="M892 598c3 3 3 3 3.36 5.37l-.02 2.84v3.21l-.05 3.47-.01 3.55-.09 11.25-.04 7.62L895 654l2.01.5 9.07 2.31 3.16.79c8.67 2.22 15.86 4.76 22.51 10.96 1.58 3.07 1.25 4.19.25 7.44-1.5 1.88-1.5 1.88-3.44 3.56l-1.87 1.69c-7.46 4.85-15.93 6.73-24.57 8.37l-3.3.65c-9.9 1.86-19.77 3-29.82 3.73l-2.12.17c-24.55 1.98-49.29.6-73.86-.32l-8.07-.3c-19.37-.69-38.73-1.48-58.08-2.64-72.43-4.32-145.41-5.41-217.83-.13l-8.9.63c-38.97 2.72-78.01 7.08-116.73 12.19-2.9.34-5.66.52-8.57.5l-2.65-.01-2.69-.03-2.78-.01L360 704v-1l1.92-.15c20.86-1.67 20.86-1.67 29.92-3.35 4.27-.67 8.55-1.05 12.85-1.44q11.11-1 22.19-2.37L441 694l2.36-.28a1171 1171 0 0 1 75.14-6.65q9.25-.5 18.51-.93l8.55-.43c21.21-1.04 42.45-.9 63.67-.9q6.73 0 13.45-.02c28.43-.08 56.73.43 85.12 2.08q5.04.3 10.07.56 11.69.64 23.37 1.32c29.57 1.73 59.13 2.45 88.75 2.49q4.47 0 8.93.04c71.51.53 71.51.53 89.42-14.2 1.66-2.08 1.66-2.08 1.41-5.83L929 668l-2.23-.88q-2.47-1-4.92-2.05c-6.27-2.66-12.65-4.46-19.24-6.14-3.55-.91-7.08-1.92-10.61-2.93z" fill="#E7E9E7"/><path d="m368 559 3 1c-.4 4.45-3.47 6.61-6.62 9.38l-3.58 3.21-1.9 1.7q-4.68 4.24-9.28 8.59l-3.81 3.56-1.91 1.79-5.59 5.21a4014 4014 0 0 0-17.85 16.73c-9.71 9.15-19.39 18.24-29.78 26.62a186 186 0 0 0-7.62 6.71c-17.09 15.56-17.09 15.56-25.39 15.91l-2.42.12-2.5.09-2.55.12-6.2.26c4.15-4.39 8.71-8.02 13.5-11.69l2.42-1.87L267 641l3.58-2.75 3.17-2.44a1744 1744 0 0 0 46.89-37.57q7.28-6 14.61-11.93 8.16-6.6 16.14-13.41 6.72-5.68 13.56-11.22C367 560 367 560 368 559" fill="#EBEAED"/><path d="M306.81 468.81q1.6 0 3.24-.04c8.68 0 14.85.78 21.95 6.23 2 3 2 3 2 6l-7.25 2.93-2.07.85c-9.89 3.98-21.5 5.2-31.68 1.22-4.3-2.4-8.9-5.1-12-9v-4l4.75-1.44 2.67-.8L291 470l1.82-.54c4.57-.97 9.33-.65 14-.65" fill="#131514"/><path d="M920 212h2c-3.66 11.68-9.13 20.11-16.98 29.41A34 34 0 0 0 901 248a139 139 0 0 1-5 5l-2 2-2 2-2.44 2.56c-2.43 2.32-4.68 3.75-7.56 5.44q-4.2 3.41-8.25 7c-3.97 2.89-8.32 4.9-12.75 7a327 327 0 0 0 7.96 16.84c4.78 9.36 9.44 18.67 11.04 29.16l.94 3c4.3 14.59 4.25 30.71 4.25 45.81q0 3.33.03 6.65l.01 4.29.01 3.86A21 21 0 0 1 883 397h-1l-.06-3.68-.26-13.76-.1-5.91c-.47-28.5-4.38-54.26-17.62-79.86l-.96-1.87q-1.05-2-2.14-4a44 44 0 0 1-3.63-8.59c1.38-4.17 5.46-5.61 9.15-7.64l4.98-2.91 2.43-1.43c4.42-2.7 8.31-5.96 12.21-9.35l2.06-1.66c14.02-11.56 23.78-28.32 31.94-44.34" fill="#E3E4E4"/><path d="m408 447.88 2.88.05q1.04.04 2.12.06v3c-4.94 4.53-11.63 7.57-17.44 10.88l-2.15 1.24c-5.17 2.88-5.17 2.88-7.41 2.88l-.44 2.44C385 471 385 471 384 472c-2.48.3-4.96.45-7.46.63-2.58.38-4.24 1.19-6.54 2.38h-3c-.82-3.2-1.25-5.3-.12-8.44 9.18-11.07 26.67-19.05 41.12-18.69" fill="#141414"/><path d="M359 483a27 27 0 0 1 4 3c-.39 2.82-.7 4.62-2.5 6.88-2.05 2.9-2.11 5.63-2.5 9.12-1 1-1 1-4.06 1.06L351 503l-.19-2.38L350 498c-2.38-1.19-2.38-1.19-5-2l-3-2c.16-4.28.36-6.36 3.44-9.44A22 22 0 0 1 359 483" fill="#666765"/><path d="M881 387h1l1 8.19.29 2.33c.94 7.81.94 7.81.71 11.48l-1 1q-.32 4.18-.5 8.38c-.3 6-.66 11.99-1.25 17.98-.4 4.19-.69 8.4-1 12.6q-.3 3.66-.81 7.29c-.65 5.31-.49 10.65-.4 15.99.06 5.55.06 5.55-1.04 7.76a87 87 0 0 0-.32 4.57l-.12 2.72-.12 2.83-.13 2.87L877 500c-2.87-2.87-2.29-5.09-2.33-9.03l.02-3.16.01-3.35c.13-12.11.9-24.19 1.68-36.27l.19-3c.73-11.36 1.6-22.71 2.75-34.04.8-8.04 1.28-16.08 1.68-24.15" fill="#D9DADB"/><path d="M865 291c8.47 7.46 13.37 23.15 15 34l.94 3c4.3 14.59 4.25 30.71 4.25 45.81q0 3.33.03 6.65l.01 4.29.01 3.86A21 21 0 0 1 883 397h-1l-.06-3.68-.26-13.76-.1-5.91c-.48-29.4-5.65-54.67-17.58-81.65z" fill="#E9E9EA"/><path d="M984.31 152.94h2.53l6.16.06v1l-2.99.15-3.89.23-3.86.2C979 155 979 155 977 157c-2.68.59-5.36.96-8.08 1.34-11.7 2.65-24.58 12.2-30.95 22.28-3.64 5.92-6.9 11.7-8.97 18.38a170 170 0 0 1-6 13h-3c6.88-22.3 18.82-42.78 40-54 8.28-3.86 15.24-5.15 24.31-5.06" fill="#DFDFE1"/><path d="m228 673 1 2-.91 2.16c-2.25 5.86-2.54 14.44-.04 20.3 1.74 2.43 3.84 4.43 5.95 6.54-4.31-.48-6.17-1.75-9-5l-3 3c-2-3-2-3-2-6l2-3c.41-3.14.41-3.14.62-6.69l.23-3.57.15-2.74-1.7.95c-11.83 6.32-22.06 9.31-35.3 6.05 2.9-2.9 5.93-2.25 9.81-2.31 12.28-.48 22-5 32.19-11.69" fill="#DBDCDD"/><path d="m294 470 .48 2.01c2.05 7.75 5.15 11.24 11.52 15.99-8.82-.21-16.49-2.52-23.12-8.56C281 477 281 477 281 473q2.4-.76 4.81-1.5l2.71-.84C291 470 291 470 294 470" fill="#D6BD71"/><path d="M379 458a47 47 0 0 1 3.12 5l1.64 2.81L385 468l-7.31 3.5-2.09 1.01c-5.26 2.49-5.26 2.49-8.6 2.49-.83-3.25-1.26-5.31-.06-8.5 2.82-3.42 7.37-8.5 12.06-8.5" fill="#E7C36B"/><path d="M877 480h2l-.03 2c-.38 27.76-.38 27.76 3.07 38.12 1.09 3.28 1.47 6.46 1.96 9.88q.98 3 2 6 1.07 4.49 2 9l-3 1a323 323 0 0 1-4.5-17.38l-.64-2.71-1.26-5.37q-.55-2.36-1.21-4.68c-1.97-7.26-1.38-14.47-1.01-21.92l.17-4.07z" fill="#E5E6E6"/><path d="m368 559 3 1c-.85 4.66-3.7 6.86-7.12 9.88l-1.79 1.6A448 448 0 0 1 350 582l-2-1c-.41-2.12-.41-2.12 0-5 1.94-2.32 4.26-4.13 6.62-6l1.88-1.54q1.83-1.51 3.7-3a91 91 0 0 0 3.49-2.98A68 68 0 0 1 368 559" fill="#E6E9E7"/><path d="m881 340 2 1c.38 1.82.38 1.82.56 4.12.23 2.71.52 5.35.94 8.03.52 4.03.66 7.97.67 12.01l.01 2.29.01 4.76q0 3.62.03 7.25l.01 4.64.02 2.18c-.02 4.02-.47 7.1-2.25 10.72h-1z" fill="#EFEEF2"/><path d="m337 341 3 1v2l-3.79.85a375 375 0 0 0-32.57 8.91c-4.68 1.5-8.66 2.66-13.64 2.24l-1-2 1.92-.45a383 383 0 0 0 22.87-6.39A146 146 0 0 1 336 342z" fill="#EBECEC"/><path d="M229 351h1l.01 1.94a227 227 0 0 0 4.35 43.07l.68 3.39.63 2.99c.32 2.57.16 4.18-.67 6.61l-2-1c-.67-2.77-.67-2.77-1.25-6.45l-.32-1.97-.99-6.27-.67-4.17-1.23-7.72a183 183 0 0 0-1.17-6.61c-.36-2.75-.17-4.21.63-6.81q.2-2.06.32-4.11l.12-2.28.12-2.36.13-2.4z" fill="#DEE2DF"/><path d="m495 576 2 1q-3.67 2.76-7.38 5.5l-2.11 1.59-2.03 1.5-1.88 1.4C482 588 482 588 480 588l1 4c-6.21 2.14-11.43 3.37-18 3a79 79 0 0 1 10.69-6.88 1396 1396 0 0 1 14.47-8.08 97 97 0 0 0 4.78-2.92z" fill="#040605"/><path d="M881 387h1l1 8.19.29 2.33c.94 7.81.94 7.81.71 11.48l-1 1q-.35 5.51-.52 11.04A49 49 0 0 1 880 435h-1c-.36-16.07.75-31.98 2-48" fill="#E6E7E7"/><path d="M305.13 465.69h2.83c6.5.1 13.14.3 19.05 3.3q.95 1.5 2 3l-1.63-.42c-8.15-1.92-16.2-1.8-24.5-1.7l-4.34.03-10.54.1c4.83-4.83 10.7-4.35 17.13-4.31" fill="#040606"/><path d="M240.06 338.13A96 96 0 0 1 246 341l-1 2h-6l-.82 1.8c-1.18 2.2-1.18 2.2-2.68 3.63-3.84 4-3.97 9.31-4.5 14.56h-1q-.12-3.56-.19-7.12l-.08-2.02A19.5 19.5 0 0 1 233 342c4.05-4.06 4.05-4.06 7.06-3.87" fill="#18191A"/><path d="M229 608c.66 1.81.66 1.81 1 4-4.09 4.89-9.03 8.73-14 12.69l-1.76 1.4c-6.1 4.76-11.08 8.49-19.18 8.16l-3.46-.11-2.6-.14v-1l2.68-.41c9.66-1.73 17.52-4.69 24.5-11.81C218 619 218 619 220 619l.69-1.69c1.67-2.95 3.86-4.98 6.31-7.31z" fill="#DDDFDD"/><path d="m236 407 5 1 3 12c4-1 4-1 6-4-.31 3.38-.31 3.38-1 7l-3 2-2-4h-2l-1 2-2 1q-.76-3.12-1.5-6.25l-.84-3.52C236 411 236 411 236 407" fill="#1B1D1B"/><path d="M1026 116c7.03 2.77 13.56 7.85 19 13v2l1.81.81A18 18 0 0 1 1052 136l-1 3-2.81-2.44L1044 133l-2.6-2.23c-5.51-4.63-10.92-8.59-17.4-11.77v-2z" fill="#E1E5E3"/><path d="M892 598c3 3 3 3 3.36 5.24l-.03 2.58-.02 2.81-.06 2.93-.02 2.95c-.08 7.18-.08 7.18-1.23 9.49q-.22 3.27-.32 6.54l-.12 3.94-.12 4.14-.13 4.17L893 653h-1z" fill="#F3F5F4"/><path d="m248 336 1 2-2.23.08c-7.88.46-7.88.46-11.77 2.48-6.43 7.84-5.68 17.8-6 27.44l-2-1c-.69-19.39-.69-19.39 4.65-26.06 5.41-5.68 8.75-6.29 16.35-4.94" fill="#E9EBE9"/><path d="M891 161c1.06 2.7 1.05 3.86.1 6.66l-1.41 2.98-1.51 3.24-1.62 3.37-1.6 3.41Q883 184.84 881 189l-3-1a172 172 0 0 1 7-16q1.54-3.51 3.04-7.05C889 163 889 163 891 161" fill="#EAEAED"/><path d="M886 545c3.23 3.23 3.42 6.11 3.74 10.45.28 2.73.85 5.31 1.45 7.99 1.08 5.57.34 10.15-1.19 15.56h-1l-1.44-11.44-.41-3.24-.78-6.33-.73-5.75q-.37-3.11-.64-6.24z" fill="#E3E5E6"/><path d="m414 447-1 2-1.95-.14c-11.3-.45-20.91 3.3-30.91 8.28L378 458l-2-1 1.94-.31L380 456l1-3c9.46-5.17 22.31-9.56 33-6" fill="#020303"/><path d="M288 471h5l1 11c-5 0-5 0-8-2v-2h-2v-4h5z" fill="#E8C461"/><path d="M893 624h1l.5 9.94.14 2.8q.43 8.62.36 17.26l15 4v1q-2.54-.18-5.06-.38l-2.85-.21C899 658 899 658 892 656z" fill="#ECEDED"/><path d="M984.31 152.94h2.53l6.16.06v1l-2.99.15-3.89.23-3.86.2C979 155 979 155 977 157c-2.43.56-2.43.56-5.3 1a45 45 0 0 0-10.7 3c-2.8.13-2.8.13-5 0a32 32 0 0 1 8.93-5.12l2.53-1.01c5.67-1.94 10.92-2 16.85-1.93" fill="#CBCDCC"/><path d="M164 666a84 84 0 0 1 4.71 8.18c3.34 4.7 7.82 6.65 13.1 8.57l3.52 1.3 2.67.95c-2.39 1.54-3.49 2.1-6.33 1.53-8.07-3.35-14.58-7.52-18.67-15.53.25-2.88.25-2.88 1-5" fill="#DDDFDE"/><path d="M1080 195h1l.18 2.3.26 3.01.24 2.99c.32 2.7.32 2.7 1.32 5.7-2.3 5.44-5.03 10.69-10 14l-3-1 1.21-1.32 1.6-1.8 1.58-1.76c3.8-5.01 5-9.25 5.3-15.5l.2-3.77z" fill="#D9DCDA"/><path d="m400 299.75 2 1.25v1l-2.88-.06c-5.14.68-8.2 4.37-11.79 7.83A55 55 0 0 1 381 315c0-4.57 2.7-6.57 5.71-9.83 3.95-3.74 7.74-6.81 13.29-5.42" fill="#D8D8DB"/><path d="M234 408c4.77 3.81 5.04 10.31 6 16 .19 2.74.16 5.26 0 8-2-1-2-1-3-3.88-1.72-6.59-3.17-13.29-3-20.12" fill="#E7E9E7"/><path d="M167 645c1.28 3.9.32 5.88-1.23 9.63-1.41 4.33-1.53 8.85-1.77 13.37h-2c-.34-7.45-.33-14.18 3-21z" fill="#ECEFEC"/><path d="M881 387h1l1 8.19.29 2.33q.38 3.24.71 6.48l.31 2.86C884 409 884 409 880 412z" fill="#DDDDDF"/><path d="M620 272a19 19 0 0 1-6.57 4.82l-2.03.93-2.09.94-2.12.97L602 282l-1-3 2.94-1.19a84 84 0 0 0 11.04-5.92C617 271 617 271 620 272" fill="#EEEEF0"/><path d="M960 161c-2.47 2.74-5.22 4.43-8.38 6.31-4.5 2.81-7.57 5.37-10.62 9.69l-1-3c13.26-13.79 13.26-13.79 20-13" fill="#EAEBEA"/><path d="M981 104q3.94.02 7.88.25l2.22.08c4.44.25 5.63.4 8.9 3.67l-24-1 4-2z" fill="#F2F2F4"/><path d="M412 451v3c-2.56 1.9-2.56 1.9-6 3.94l-1.79 1.06c-4.33 2.54-8.59 5.03-13.21 7l-3-1 2.1-1.18 9.34-5.26 3.3-1.85 3.13-1.77 2.91-1.63C411 452 411 452 412 451" fill="#050706"/><path d="m763.81 230.38 2.12.13c4.07.28 8.05.75 12.07 1.49v1c-8.47 1.3-16.5.74-25 0v-2c3.72-1.25 6.97-.9 10.81-.62" fill="#F1F1F4"/><path d="M753 231v2h15v1h-31v-1l5.19-1 2.92-.56A43 43 0 0 1 753 231" fill="#D6D6D9"/><path d="M248 336c11.81 3.35 11.81 3.35 17 6l1 3-1.62-.55A479 479 0 0 0 247 339z" fill="#D5D6D6"/><path d="m970.92 104.7 3.27.12 3.29.08c.42 0 .42 0 2.52.1v1l12 1v1h-27c3-3 3-3 5.92-3.3" fill="#D5D7D8"/><path d="M225 683h1l.04 2.38c.39 8.52 1.91 12.57 7.96 18.62-2.67-.15-4.44-.45-6.38-2.37q-1.82-2.3-3.62-4.63l-2-1 .96-1.7c1.11-2.45 1.43-4.38 1.66-7.05l.23-2.42z" fill="#B5B6B9"/><path d="M240 428h1c1.43 7.64 2.3 14.3 1 22h-1c-1.96-7.39-3.1-14.52-1-22" fill="#D8D9D9"/><path d="M232 388h1l1.56 8.25.46 2.36.42 2.28.4 2.1c.18 2.22-.19 3.89-.84 6.01-2-1-2-1-2.67-2.93A48 48 0 0 1 232 388" fill="#D2D7D4"/><path d="M426 358h3c1.12 7.75 1.12 7.75 0 10a104 104 0 0 0-.56 4.62l-.26 2.48-.18 1.9-3-1v-2h2z" fill="#1A1C1B"/><path d="M381 314c-1.61 3.68-3.9 6.53-6.44 9.62l-2.37 2.92C370 329 370 329 367 331c1.61-5.15 7.94-17 14-17" fill="#E7E9E9"/><path d="m977 154 8.88-.06 2.55-.03 2.44-.01 2.25-.01C995 154 995 154 997 155l-1 3-2.5-.44c-10.92-1.75-10.92-1.75-14.5-.56v-2z" fill="#EEF0EE"/><path d="M329 473c2.5 2.31 2.5 2.31 5 5v3c-4.62 2.12-4.62 2.12-8 1z" fill="#B7AC72"/><path d="M1079 186h2l3 18-3 2-1-7.19-.29-2.04A65 65 0 0 1 1079 186" fill="#EEEFEE"/><path d="m260 577 1 2-1.32 1.5A1485 1485 0 0 0 248 594l-1-3z" fill="#DDDEDE"/><path d="M379 458a47 47 0 0 1 3.12 5l1.64 2.81L385 468c-3 1-3 1-5.19.06L378 467v-7l-3-1c2-1 2-1 4-1" fill="#D1B877"/><path d="M423 341a23.2 23.2 0 0 1 4 15l-3-1a23.6 23.6 0 0 1-2-12z" fill="#212521"/><path d="M786.38 233.5 788 235l-1 1q-3.5-.07-7-.31l-3.87-.24L773 235l-1-2c10.43-1.99 10.43-1.99 14.38.5" fill="#DADADD"/><path d="m373 456 1 2 3 1c-5.75 5-5.75 5-8 5l-1 2v-8z" fill="#211A13"/><path d="m424 342 3 1c.95 2.18.95 2.18 1.69 4.88l.76 2.67C430 353 430 353 430 356l-2 2-2-6.88-.58-1.97C424 344.23 424 344.23 424 342" fill="#E2E5E2"/><path d="m871 686-1 5h-9l-1-3 4.38-1 2.46-.56C869 686 869 686 871 686" fill="#AFB0B2"/><path d="m889 561 2 1c1.54 6.01.45 11.05-1 17h-1l-.56-7.88-.17-2.26c-.38-5.63-.38-5.63.73-7.86" fill="#D1D1D3"/><path d="m337 341 3 1v2c-8.43 2.29-8.43 2.29-13 2v-3l1.93-.18 2.51-.26 2.49-.24C336 342 336 342 337 341" fill="#EEEFEF"/><path d="m895 250 2 1c-1.95 3.71-3.25 5.24-7 7-1.75 2.12-1.75 2.12-3 4l-2-1c2.41-4.83 5.86-7.7 10-11" fill="#EAEBEA"/><path d="M329 346v1l-5.81 1.5-3.27.84C317 350 317 350 314 350c1-3 1-3 2.89-4.02 7.8-2.62 7.8-2.62 12.11.02" fill="#E2E2E4"/><path d="M367 330c-.57 3.63-1.92 5.26-4.56 7.75l-1.94 1.86L359 341l-1-3c1.36-2.04 1.36-2.04 3.31-4.19l1.93-2.17C365 330 365 330 367 330" fill="#D4D6D8"/><path d="m195 631 1 2-16 3 1-3a37 37 0 0 1 14-2" fill="#EAEDEC"/><path d="m368 559 3 1c-.4 2.89-.79 3.82-3.06 5.75L366 567l-2-1c.56-3.27 1.5-4.83 4-7" fill="#D4D7D5"/><path d="m278 349 5.38 1.38 3.02.77c2.6.85 2.6.85 4.6 2.85l-1 2-12-4z" fill="#D8DBDD"/><path d="M504 332c-1 3-1 3-3.12 4.69-3.48 1.58-6.1 1.53-9.88 1.31l1.62-.75c2.38-1.25 2.38-1.25 5.44-3.37C501 332 501 332 504 332" fill="#EBECEE"/><path d="M499 689v1l-1.93.18-2.51.26-2.49.24C490 691 490 691 489 692c-4.36.25-7.2.12-11-2 7.03-.85 13.92-1.12 21-1" fill="#D9DAD9"/><path d="M380 649c-2.55 2.97-5.42 4.48-9 6l-2-1v-2c3.72-2.84 6.37-3.32 11-3" fill="#1B1A1D"/><path d="M434 615c0 3 0 3-1.61 4.64l-2.14 1.61-2.11 1.64C426 624 426 624 422 623z" fill="#E3E5E3"/><path d="m367 467 2 3c2.62.19 2.62.19 5 0-.69 1.94-.69 1.94-2 4-2.62.75-2.62.75-5 1-1.12-5.75-1.12-5.75 0-8" fill="#C9B672"/><path d="M628 528c-1 3-1 3-3.07 4.17l-2.49 1.02-2.51 1.04-1.93.77v-3c3.65-2.9 5.26-4 10-4" fill="#1F2020"/><path d="M300 484h7l1 3 8-1-1 2c-5.84.35-9.85.17-15-3z" fill="#232118"/><path d="M416 326h3l2 11-3-1z" fill="#18191B"/><path d="m1044 129 1 2 1.88.94A16 16 0 0 1 1052 136l-1 3q-1.76-1.35-3.5-2.75l-1.97-1.55C1044 133 1044 133 1044 129" fill="#DDDEDF"/><path d="m195.13 684.94 3.88.03 3 .03c-3.55 3-5.6 3.4-10.1 3.24A13 13 0 0 1 186 686c3-1.5 5.78-1.1 9.12-1.06" fill="#C5C8C5"/><path d="m457 596 3 1c-3.49 4-5.65 5.63-11 6 2.58-2.65 4.92-4.94 8-7" fill="#1B1D1B"/><path d="m268 567 1 3c-1.43 2.04-1.43 2.04-3.44 4.19l-1.99 2.17L262 578l-2-3 4.49-3.61C266 570 266 570 268 567" fill="#E7EAE7"/><path d="m877 503 2 1c.91 4.3 1.16 7.75 0 12-2.21-3.31-2.22-4.34-2.12-8.19l.05-2.73z" fill="#EDEEEE"/><path d="m876 321 4 2a36 36 0 0 1 1 7h-2l-1 2z" fill="#E0E1E3"/><path d="M223 685h1v8h-1zm-2 9 4 5-3 3c-2-3-2-3-2-6z" fill="#D7D8DC"/><path d="M207 685v2c-5.96 1.88-9.14 2.2-15 0v-1l4.69-.5 2.63-.28c2.58-.21 5.1-.26 7.68-.22" fill="#EDF0EF"/><path d="M532 317c-1 3-1 3-3.94 4.69C525 323 525 323 523 323c1-2.49 1.65-3.77 3.94-5.25C529 317 529 317 532 317" fill="#EEEEF0"/><path d="m562 299 2 1c-1 3-1 3-3.94 4.69C557 306 557 306 555 306v-3l2.38-.88C560 301 560 301 562 299" fill="#EEEDF0"/><path d="m343 667 4 2a19 19 0 0 1-7 5l-2-2z" fill="#181A19"/><path d="m313 605 2 1Zm0 1c-1.5 4.21-4.29 5.74-8 8v-3c5.35-5 5.35-5 8-5" fill="#E3E3E3"/><path d="M291 470h3l3 12h-3l-.4-2.12-.54-2.76-.52-2.74C292 472 292 472 291 470" fill="#CDB366"/><path d="m246 469 3 1 1 9h-2l-3-9z" fill="#EBECEC"/><path d="M742 232v1c-4.93 1.97-8.78 2.18-14 2l1-2c2.18-.67 2.18-.67 4.88-1.19l2.67-.54C739 231 739 231 742 232" fill="#EFEFF1"/><path d="M1001 106c3.19.62 3.19.62 6 2l1 3-11-2z" fill="#DEDEDE"/><path d="m347 577 3 1h-2l1 5-3 2-2-2c1.88-4.88 1.88-4.88 3-6" fill="#EFF0F1"/><path d="m365 567 2 1-6 8-3-1 2.94-3.44 1.65-1.93q1.16-1.36 2.41-2.63" fill="#1F1F20"/><path d="m386 468-2 4h-8c3.35-2.66 5.61-4 10-4" fill="#2E1E12"/><path d="M374 468h8c-2.55 2-4.97 3.83-8 5l-3-1 2-1z" fill="#E7C980"/><path d="m599 541 3 1v2l-7 3-2-2c2.81-2.06 2.81-2.06 6-4" fill="#252623"/><path d="M420 331c1.97 2.96 2.37 4.16 2.75 7.56l.3 2.38C423 343 423 343 421 345l-.5-4.75-.28-2.67C420 335 420 335 420 331" fill="#2B2D2B"/><path d="m572 296-1 3c-3.56 1.69-3.56 1.69-7 3 1.84-5.14 2.27-6 8-6" fill="#E1E2E2"/><path d="M881 411c1.12 1.5 1.12 1.5 2 4-.42 2.78-1.19 5.3-2 8h-1q-.04-2.71-.06-5.44l-.04-3.06c.1-2.5.1-2.5 1.1-3.5" fill="#F2F2F3"/><path d="M291 637v3c-4.34 4-4.34 4-7 4 3.14-7 3.14-7 7-7" fill="#17161B"/><path d="M892 583c2 3 2 3 1.75 6.12L893 592l-2 1-.06-4.44-.04-2.49c.1-2.07.1-2.07 1.1-3.07" fill="#F2F2F1"/><path d="M682 501c1.26 2.91 2 4.8 2 8l-3-1c-.56-1.94-.56-1.94-1-4l-2-2c2-1 2-1 4-1" fill="#D9D9D8"/><path d="M257 340c5.54.62 5.54.62 7.88 2.56L266 344l-2 1a135 135 0 0 1-7-3z" fill="#DADCDC"/><path d="m521 321 3 3-9 4v-2h2v-2c2-1.62 2-1.62 4-3" fill="#DFDFE0"/><path d="M861 213h2c-.58 3.35-1.59 4.94-4.06 7.25l-1.66 1.58L856 223l-2-1 1.28-1.46 1.66-1.92 1.65-1.89C860 215 860 215 861 213" fill="#EDECEE"/><path d="m226 695 1.75 2.25A77 77 0 0 0 234 704c-3.06-.33-4.6-.6-6.81-2.81C226 699 226 699 226 695" fill="#CFD0D3"/><path d="M845 689h9l-2 3c-1.95.29-1.95.29-4.12.19L844 692z" fill="#B0B0B1"/><path d="m286 545 1 3-5 5c0-4 0-4 2-6.25z" fill="#E9EBEB"/><path d="m460 356-1 3c-3.56 1.69-3.56 1.69-7 3v-3c5.75-3 5.75-3 8-3" fill="#D8DADB"/><path d="m410 311 3 1a41 41 0 0 1 2 6l-2 2z" fill="#18181C"/><path d="M401 298c4.88 2.75 4.88 2.75 6 5l-9-2z" fill="#ECECEE"/><path d="m929 123 2 1-1 3c-2.56 1.19-2.56 1.19-5 2l-2-2z" fill="#1A1A1C"/><path d="M871 686h2v4h7v1h-10z" fill="#C0C1C2"/><path d="M536 575c-3.69 3.54-7.09 3.59-12 4 3.53-3.53 7.11-4.28 12-4" fill="#DADADC"/><path d="m298 483 8 4c-4 1-6.06.81-10 0l2-1z" fill="#B4A979"/><path d="m284 480 4 2v3l2 1h-6z" fill="#1F150F"/><path d="M424 347c2.1 2.36 2.97 3.55 3.19 6.75L427 356l-3-1z" fill="#151915"/><path d="m374 323 2 3-4 4-2-2z" fill="#1F1F21"/><path d="m787 233 8 1-2 3-6-1z" fill="#E9E9EC"/><path d="m1186 698 3 2-2 4-3-2z" fill="#F4F7F4"/><path d="m344 587 3 1-8 7c0-3 0-3 2.5-5.69z" fill="#0A0A0C"/><path d="M615 533v3c-2 1.69-2 1.69-4 3l-3-2z" fill="#1B1C1A"/><path d="m446 483 1 2c-1.25 3.06-1.25 3.06-3 6l-3 1a104 104 0 0 1 5-9" fill="#030503"/><path d="M235 338c0 3.58-.8 4.3-3 7l-2 3c-.68-1.8-.68-1.8-1-4 1.21-1.7 1.21-1.7 2.94-3.25l1.71-1.58z" fill="#E5E7E8"/><path d="m402 302 2 1v6l-1-2h-3v-4z" fill="#1D1D1E"/><path d="M1040 213c5.57 5.14 5.57 5.14 6 9-5.57-5.14-5.57-5.14-6-9" fill="#E9E9EC"/><path d="M1012 165c3.26.35 4.02 1.02 6.25 3.56L1020 171c-3.26-.35-4.02-1.02-6.25-3.56z" fill="#D0D2CE"/><path d="M167 675c3.37 1.39 4.99 2.98 7 6-3.24-.56-4.93-1.41-7-4z" fill="#E7E8E8"/><path d="M349 575h2l1 5-3 2c-1.12-4.75-1.12-4.75 0-7" fill="#E5E8EB"/><path d="m326 478 2 2c-.38 2.12-.38 2.12-1 4l-5 1 2-1v-4h2z" fill="#2C2D23"/><path d="M250 476c1.43 2.35 2.09 3.48 1.62 6.25L251 484l-3-2z" fill="#D4D7D8"/><path d="M452 360v2c-2.35 1.43-3.48 2.09-6.25 1.62L444 363c2.51-2.51 4.49-3 8-3" fill="#EEEDF2"/><path d="m515.19 325.38 1.8.62h-2q-.48 1.5-1 3-1.46.5-3 1-.48-1.5-1-3c3-2 3-2 5.2-1.62" fill="#EEEFEF"/><path d="m386 312 1 2-2-1zm-4 2 2 1-1 3-4-1z" fill="#1A1C1C"/><path d="M707 236c2 2 2 2 2 4l-7 1c1-3 1-3 3.06-4.19z" fill="#E3E2E4"/><path d="M948 112v2l-6 2v-3c3-1 3-1 6-1" fill="#EAEAEC"/></svg>