<svg style="background:transparent" version="1.1" xmlns="http://www.w3.org/2000/svg" viewBox="0 0 1248 704"><path d="M519.42 23.71c3.6 2.21 6.95 4.72 10.27 7.35l3.32 2.6L536 36l2.4 1.68L540 39v2l1.98.6c4.28 1.98 7.7 4.84 11.4 7.77 4.48 3.55 8.75 6.81 13.86 9.45C569 60 569 60 570.62 61.92c4.12 4.74 7.73 6.54 13.88 7.01 4.45.17 8.89.17 13.34.14l5.8.04q6.05.05 12.1.03 7.77-.03 15.53.04 7.41.06 14.82.07l2.86.02h10.38c5.44-.05 5.44-.05 7.67-2.27h3l.69-1.82c1.7-2.83 3.43-3.56 6.3-5.18q1.84-1.32 3.64-2.69a673 673 0 0 1 12.76-9.48c2.48-1.74 5-3.3 7.6-4.83q4.75-3.09 9.32-6.38C732.14 20.94 732.14 20.94 742 22c6.14 1.83 9.48 4.83 13 10 4.97 9.25 4 18.6 3.06 28.68-.68 8-1.2 15.82-1.07 23.84 0 4.31-.2 8.6-.43 12.91-.5 9.7-.83 19.4-1.12 29.1q-.36 12.2-1 24.4c-.47 8.67-.51 17.31-.4 26A89 89 0 0 1 753 192c.44 2.31.44 2.31 1 4v2l1.19 1.68c.8 2.32.8 2.32-.56 5.5l-.9 1.82c-1.1 3-.82 5.77-.7 8.92-.04 2.68-.9 4.67-2.03 7.08v3a141 141 0 0 1-2 5l-.94 3.25L747 237l-3 1q-.44 1.34-.87 2.75c-1.34 3.87-3.15 5.48-6.13 8.25l-2 2.62c-2.17 2.58-4.1 3.66-7 5.38-2.06 1.74-4.06 3.55-6.06 5.35-1.94 1.65-1.94 1.65-4.88 3.4C715 267 715 267 714 270c.27 1.9.27 1.9.8 3.93q.28 1 .53 2.03c.7 2.14 1.66 4.02 2.67 6.04q.72 2.14 1.38 4.31a55 55 0 0 0 5.62 11.7q1.2 2.1 2.38 4.24l1.26 2.28c4.7 8.52 9.33 17 13.2 25.93 1.29 2.83 2.68 5.6 4.08 8.38q2.68 5.36 5.27 10.78l1.08 2.2c1.95 4.08 3.19 7.63 3.73 12.18.93 2.96 1.96 5.88 3 8.81 1.04 3.32 1.8 6.63 2.54 10.04q.44 2.06.99 4.1c.75 3.23.92 6.5 1.19 9.8C764 399 764 399 765 401v7l1 4c.56 6.44-.2 12.9-.87 19.31l-.24 2.35c-.46 4.1-1.1 7.57-2.9 11.34l2.47-.33c7.6-.82 14.47-.95 21.54 2.33a84 84 0 0 1 4 4l2.38 1.31c5.5 3.54 9.05 8.72 11.62 14.7l1.07 2.37c2.04 4.75 3.3 8.37 2.93 13.62l1 4c1 6.92 1.43 14 1 21l-1 1q-.34 2.8-.62 5.62c-1.33 9.87-4.48 19.17-7.51 28.63a570 570 0 0 0-3.23 10.68A81 81 0 0 1 795 561l-2 6 3.15.58 2.03.38 4.42.82q5.82 1.09 11.59 2.34c33.06 6.62 71.44-.86 99.8-19.12 8.12-5.62 16.38-12.7 18.63-22.77L933 527l1-1c.76-12.05.88-23.94-5.57-34.6A18 18 0 0 1 926 485q-1.16-3.45-2.38-6.88c-2.48-8.49-.04-17.15 3.88-24.7 2.26-3.64 4.5-5.85 8.5-7.42 4.74-1.1 8.37-.88 12.69 1.43 2.54 1.76 4.93 3.6 7.3 5.57l2.52 1.88a45 45 0 0 1 6.99 7.74l2.22 2.91c12.4 17.96 15.5 43.8 11.85 64.97A83 83 0 0 1 975 544l-1.27 3.35A82 82 0 0 1 965 564l-1.51 2.34c-5.08 7.85-5.08 7.85-8.5 10.66h-2l-.61 1.75c-1.52 2.47-3.12 3.55-5.56 5.06a77 77 0 0 0-6.01 4.5c-11.3 8.81-23.94 15.84-37.7 20-2.46.8-4.8 1.8-7.17 2.81-4.43 1.8-8.2 2.42-12.94 2.88-4.37.85-8.68 1.91-13 3-10.87 2.7-21.53 3.18-32.71 3.18q-3.14 0-6.26.04a121 121 0 0 1-22.16-1.74c-3.86-.65-7.72-.95-11.63-1.24C795 617 795 617 792 616l-3.62-.38a38 38 0 0 1-8.82-2.12c-6.06-2.14-12.26-3.33-18.56-1.5l1 3-1.81 1.18c-2.2 1.82-2.2 1.82-3.7 4.38-1.5 2.44-1.5 2.44-3.37 3.37-2.4 1.2-3.7 2.5-5.43 4.5l-1.61 1.81L745 632l1 3 2.13.81c5.1 2.1 8.79 5.5 11.75 10.12 1.24 3.4 1.73 6.5 2.12 10.07l.66 2.42c.6 4.6-2.11 7.92-4.66 11.58-5.6 5.6-12.12 6.34-19.7 6.68l-2.4.12c-9.56.4-17.93-.28-26.9-3.8l-1 1a24 24 0 0 0 4.13 6.37c3.36 4.95 2.9 11.98 1.87 17.63-1.58 2.97-2.27 4.2-5 6-4.56.95-9.08.91-13.73.9l-4.1.04q-4.27.03-8.54 0-5.44-.01-10.9.11-4.22.05-8.43.03-2.99.01-5.95.1c-6.6-.1-10.68-.68-15.61-5.25-5.51-6.47-6-12.32-5.93-20.72v-2.1l.07-6.6.02-4.53.1-10.98-3.8.35-4.95.4-2.5.24c-6.17.45-6.17.45-9.33-1.98l-1.42-2c4.03-4.04 10.57-3.07 15.94-3.08l6.06.07 1-9a93 93 0 0 0-21.5-1.98C613 638 613 638 610 637l.44 3.68.25 2.08a134 134 0 0 0 1.85 9.72c1.4 7.6 1.7 15.05 1.77 22.77l.06 3.08c-.01 9.37-1.58 16.87-8 23.97-4.87 3.5-10.74 2.76-16.51 2.65h-4.12a492 492 0 0 1-8.6-.08q-5.5-.08-11-.05-4.24.02-8.5-.04-3-.02-6.02 0l-3.7-.09-3.25-.04c-2.67-.65-2.67-.65-4.52-3.03-2.41-5.54-1.01-11.88.75-17.49 1.5-3.82 3.25-7.48 5.1-11.13l-1.8.4-2.4.53-2.34.53a83 83 0 0 1-30.4 1.3q-1.36-.2-2.76-.38c-7.65-1.15-12.05-3.56-17.3-9.38-1.15-3.46-.84-5.25-.25-8.82l.49-3.08c1.55-6.32 4.3-10.02 9.14-14.29l2.83-2.55A55 55 0 0 1 509 632c2.3-1.57 2.3-1.57 4-3 0-2 0-2-2-5 0-6 0-6 1-8l-1.75-.82c-4.47-2.36-7.73-5.58-11.25-9.18l-2.44-2.32a84 84 0 0 1-6.91-8.47 174 174 0 0 0-5.4-6.78c-7.8-9.7-14.58-19.85-19.25-31.43l-1.62-3.69c-4.1-9.87-4.1-9.87-4.84-13.73a48 48 0 0 0-2.48-7.83c-3.14-8.57-4.3-16.39-4.84-25.5a76 76 0 0 0-.78-7.25c-1.12-7.65-1.12-7.65.56-11l.6-5.26c1.3-12.75 4.47-22.5 12.4-32.74l1.75-2.82c5.56-5.4 12.3-7.5 19.94-7.5q2.66.12 5.3.32c.97-3.74.9-6.27 0-10-1.2-8.97-1.18-17.98-1-27l.07-2.54c.46-18.25 1.9-36.13 7.94-53.46q1.12-3.8 2.19-7.59c1.08-3.23 2.45-6.3 3.8-9.4l3.07-7.08 1.54-3.53c1.4-3.4 1.4-3.4 2.44-6.54a50 50 0 0 1 3.34-7.6A118 118 0 0 0 523 283l1.63-4c1.46-3.75 1.53-6.97 1.37-11l1-2-2.06-.63c-3.93-1.84-6.74-4.49-9.94-7.37-2.77-2.42-5.45-4.7-8.7-6.5-2.82-1.84-3.61-3.58-5.3-6.5a243 243 0 0 0-3.5-3.69c-3.92-4.36-5.2-8.69-6.5-14.3l-1-3c-2.26-12.49-2.28-24.93-2.2-37.56l.02-9.9v-6.32q.02-1.47.02-2.99l.02-2.75v-2.42C488 160 488 160 489 157q-.15-4.15-.44-8.29a430 430 0 0 1-.62-26.4v-3.88l.06-11.87.06-15.87.03-3.65v-3.38l.03-2.96A45 45 0 0 0 487 73c-.25-4.7-.23-9.42-.25-14.13l-.06-3.84c-.04-9.82.28-20.19 7.53-27.6 7.22-5.8 16.72-7.97 25.2-3.72" fill="#141714"/><path d="M946.37 449.13c2.62 1.53 5.13 3.15 7.63 4.87l1.89 1.24c13.65 10.23 18.7 28.62 21.3 44.5 1.63 12.38 1.82 24.33-2.2 36.26l-.61 1.87c-4.74 14.15-11.42 25.92-21.38 37.13l-2.04 2.34c-10.38 11.12-24.2 18.55-37.96 24.66l-2.02.9c-10.97 4.8-22.32 7.5-33.98 9.98l-2.15.46c-30.05 6.33-63.15 5.83-92.85-2.34l-4.1-1.08q-5.46-1.43-10.9-2.92c1.54-5.65 4.35-10.16 7.44-15.06l2.93-4.72 1.4-2.23a419 419 0 0 0 4.23-7l2.69-4.3 1.32-2.11.99-1.58a214 214 0 0 1 20.06 2.9c5.6 1 5.6 1 7.75 1.63 33.05 7.06 73.7-3.87 101.5-21.64 9.32-7.06 18.22-18.1 20-29.97.17-2.17.2-4.3.19-6.48l-.01-2.37c-.26-9.2-3.33-17.03-6.93-25.44a53 53 0 0 1-4.12-20.57l-.04-2.4c.09-5.64 1.4-9 4.6-13.66 4.5-4.1 9.68-5.58 15.37-2.87" fill="#101312"/><path d="M519.42 23.71c3.6 2.21 6.95 4.72 10.27 7.35l3.32 2.6L536 36l2.4 1.68L540 39v2l1.98.6c4.28 1.98 7.7 4.84 11.4 7.77 4.48 3.55 8.75 6.81 13.86 9.45C569 60 569 60 570.62 61.92c4.12 4.74 7.73 6.54 13.88 7.01 4.45.17 8.89.17 13.34.14l5.8.04q6.05.05 12.1.03 7.77-.03 15.53.04 7.41.06 14.82.07l2.86.02h10.38c5.44-.05 5.44-.05 7.67-2.27h3l.69-1.82c1.7-2.83 3.43-3.56 6.3-5.18q1.84-1.32 3.64-2.69a673 673 0 0 1 12.76-9.48c2.48-1.74 5-3.3 7.6-4.83q4.75-3.09 9.32-6.38C732.14 20.94 732.14 20.94 742 22c6.14 1.83 9.48 4.83 13 10 4.97 9.25 4 18.6 3.06 28.68-.68 8-1.2 15.82-1.07 23.84 0 4.31-.2 8.6-.43 12.91-.5 9.7-.83 19.4-1.12 29.1q-.36 12.2-1 24.4c-.47 8.67-.51 17.31-.4 26A89 89 0 0 1 753 192c.44 2.31.44 2.31 1 4v2l1.19 1.68c.8 2.32.8 2.32-.56 5.5l-.9 1.82c-1.1 3-.82 5.77-.7 8.92-.04 2.68-.9 4.67-2.03 7.08v3a141 141 0 0 1-2 5l-.94 3.25L747 237l-3 1q-.44 1.34-.87 2.75c-1.34 3.87-3.15 5.48-6.13 8.25l-2 2.62c-2.17 2.58-4.1 3.66-7 5.38-2.06 1.74-4.06 3.55-6.06 5.35-1.94 1.65-1.94 1.65-4.88 3.4C715 267 715 267 714 270c.27 1.9.27 1.9.8 3.93q.28 1 .53 2.03c.7 2.14 1.66 4.02 2.67 6.04q.72 2.14 1.38 4.31a55 55 0 0 0 5.62 11.7q1.2 2.1 2.38 4.24l1.26 2.28c4.7 8.52 9.33 17 13.2 25.93 1.29 2.83 2.68 5.6 4.08 8.38q2.68 5.36 5.27 10.78l1.08 2.2c1.95 4.08 3.19 7.63 3.73 12.18.93 2.96 1.96 5.88 3 8.81 1.04 3.32 1.8 6.63 2.54 10.04q.44 2.06.99 4.1c.75 3.23.92 6.5 1.19 9.8C764 399 764 399 765 401v7l1 4c.56 6.44-.2 12.9-.87 19.31l-.24 2.35c-.46 4.1-1.1 7.57-2.9 11.34l2.47-.33c7.6-.82 14.47-.95 21.54 2.33a84 84 0 0 1 4 4l2.38 1.31c5.5 3.54 9.05 8.72 11.62 14.7l1.07 2.37c2.04 4.75 3.3 8.37 2.93 13.62l1 4c1 6.92 1.43 14 1 21l-1 1q-.34 2.8-.62 5.62c-1.33 9.87-4.48 19.17-7.51 28.63a570 570 0 0 0-3.23 10.68A81 81 0 0 1 795 561l-2 6 3.15.58 2.03.38 4.42.82q5.82 1.09 11.59 2.34c33.06 6.62 71.44-.86 99.8-19.12 8.12-5.62 16.38-12.7 18.63-22.77L933 527l1-1c.76-12.05.88-23.94-5.57-34.6A18 18 0 0 1 926 485q-1.16-3.45-2.38-6.88c-2.48-8.49-.04-17.15 3.88-24.7 2.26-3.64 4.5-5.85 8.5-7.42 4.74-1.1 8.37-.88 12.69 1.43 2.54 1.76 4.93 3.6 7.3 5.57l2.52 1.88a45 45 0 0 1 6.99 7.74l2.22 2.91c12.4 17.96 15.5 43.8 11.85 64.97A83 83 0 0 1 975 544l-1.27 3.35A82 82 0 0 1 965 564l-1.51 2.34c-5.08 7.85-5.08 7.85-8.5 10.66h-2l-.61 1.75c-1.52 2.47-3.12 3.55-5.56 5.06a77 77 0 0 0-6.01 4.5c-11.3 8.81-23.94 15.84-37.7 20-2.46.8-4.8 1.8-7.17 2.81-4.43 1.8-8.2 2.42-12.94 2.88-4.37.85-8.68 1.91-13 3-10.87 2.7-21.53 3.18-32.71 3.18q-3.14 0-6.26.04a121 121 0 0 1-22.16-1.74c-3.86-.65-7.72-.95-11.63-1.24C795 617 795 617 792 616l-3.62-.38a38 38 0 0 1-8.82-2.12c-6.06-2.14-12.26-3.33-18.56-1.5l1 3-1.81 1.18c-2.2 1.82-2.2 1.82-3.7 4.38-1.5 2.44-1.5 2.44-3.37 3.37-2.4 1.2-3.7 2.5-5.43 4.5l-1.61 1.81L745 632l1 3 2.13.81c5.1 2.1 8.79 5.5 11.75 10.12 1.24 3.4 1.73 6.5 2.12 10.07l.66 2.42c.6 4.6-2.11 7.92-4.66 11.58-5.6 5.6-12.12 6.34-19.7 6.68l-2.4.12c-9.56.4-17.93-.28-26.9-3.8l-1 1a24 24 0 0 0 4.13 6.37c3.43 5.05 2.7 11.86 1.87 17.63-1.4 2.76-2.6 3.96-5 6l-4-1 1.94-1.82c3.64-3.86 3.52-8.06 3.47-13.13-1.03-7.69-5.6-14.23-11.66-18.9A51 51 0 0 0 691 665v-6l1.47 1.17C707.5 671.84 725.3 674.68 744 673c5.22-.9 9.52-1.82 13-6a31 31 0 0 0 .27-18.39c-3.64-6.69-10.65-10.3-17.27-13.6 1.57-3.89 4.05-6.17 7.06-9 5.02-4.85 9.13-10 13.16-15.68C762 608 762 608 764 607c5.75-.33 10.3.45 15.75 2.31 9.58 3.03 19.28 4.54 29.25 5.7l2.53.28c17.68 1.83 36.98 2.08 54.47-1.29l3.07-.58c34.48-6.52 70.14-18.65 91.22-48.69 4.45-6.6 8.13-13.17 10.7-20.73l1.32-3.52c6.44-17.43 5.43-33.56 1.69-51.48l-.65-3.2c-3.13-13.09-10.82-25.55-22.22-32.87-5.93-3.5-9.3-4.67-16.13-2.93-4.65 3.66-6.7 6.84-7.51 12.66-.77 13.84 3.37 25.21 8.57 37.9 3.32 8.62 3.66 21.03.5 29.81-10.9 22.03-31.83 31.83-53.93 39.5-16.01 5.2-31.76 6.38-48.5 6.5l-2.1.02A118 118 0 0 1 803 573l-3.66-.87c-7.85-1.89-7.85-1.89-10.34-3.13a183 183 0 0 1 7.5-24.38c3.26-8.8 6.08-17.3 7.5-26.62l.55-3.08c.64-5.54.64-11.04.64-16.6q0-1.67.04-3.37c.02-13.9-1.71-27.22-11.48-37.89-7.98-6.94-15.46-8.8-25.87-8.38l-3.2.07q-3.83.09-7.68.25l.62-1.83.82-2.42.8-2.4c1.49-4.65 1.96-8.86 2.04-13.74l.03-2.2c.25-17.7-.53-34.24-5.31-51.4l-.7-2.62c-6.66-24.16-19.3-46.89-30.98-68.9-15.47-29.25-15.47-29.25-13.32-37.49 2.14-2.57 4.72-4.25 7.5-6.07l4.43-3.1q1.05-.75 2.15-1.49c12.97-9.08 20.04-20.89 22.92-36.34.6-5.9.84-11.82 1.06-17.75l.24-5.48c.83-20.3 1.3-40.64 1.83-60.96.92-35.3.92-35.3 1.93-52.8l.13-2.15c.63-10.8.63-10.8 1.35-16.1.57-4.6.72-9.14.77-13.76l.09-2.58c.07-7.18-1.8-12.24-6.34-17.8-4.93-3.89-9.95-4.33-16.06-3.62a44 44 0 0 0-7.2 4.06l-2.01 1.33a623 623 0 0 0-6.8 4.61l-5.28 3.54q-13.37 8.99-26.46 18.4l-2.1 1.5-2.01 1.46-1.94 1.38C677 64 677 64 675.1 66.01c-6.83 6.8-13.21 7.04-22.34 7.12q-2.78 0-5.56-.04l-5.8.03q-6.04.03-12.1-.03-7.7-.05-15.41.06-5.97.05-11.95.01-2.84 0-5.68.03C583.52 73.33 576.34 72 567 63a134 134 0 0 0-4.04-3.05l-1.8-1.35a1356 1356 0 0 0-26.02-19.06L529 35.06l-1.9-1.38-4.98-3.66c-5.46-3.54-10.47-5.96-17.12-5.02-5.06 2.31-8.92 5.31-12 10-1.25 3.74-1.12 7.2-1.1 11.1v2.56l.03 8.62.02 6.24.02 10.23q.05 12.78.03 25.57 0 21.15.08 42.3.05 11.6.04 23.22-.01 10.35.05 20.7.04 5.41 0 10.83c-.06 18.77-.13 36.35 13.83 50.63 5.87 5.9 12.49 10.58 19.38 15.21 2.62 1.8 2.62 1.8 3.62 2.8.78 8.33-.51 15.27-3.44 23.05l-1.1 3.02a208 208 0 0 1-8.95 20.42c-5.41 11.13-9.45 22.82-13.51 34.5q-.44 1.23-.87 2.5c-6.08 17.75-7.4 35.74-7.44 54.37l-.01 2.22c-.03 9.21.55 18.11 1.9 27.23.45 3.95.49 7.7.42 11.68l-3.65-.15-4.85-.1-2.4-.1c-6.93-.12-11.94 1.65-17.23 6.17-6.18 7.42-10.48 14.52-11.87 24.18l-.33 2.23c-4.8 40.65 7.62 80.74 32.65 112.73a370 370 0 0 0 8.89 10.62A137 137 0 0 0 516.59 618a31 31 0 0 1 5.72 6.26l1.56 2.14L525 628c-.62 1.88-.62 1.88-2 4-2.7 1.05-2.7 1.05-6 1.87-11.48 3.27-18.52 8.18-24.37 18.56-1.1 4.5-1.8 9.11.25 13.41 3.08 4.14 6.27 5.04 11.12 6.16 4.35.36 8.69.37 13.06.37q3.06.01 6.12.07c7.88.07 14.63-.87 22.07-3.56 3.76-1.2 6.84-1.19 10.75-.88l-2.2 2.12c-5.2 5.24-9.5 9.78-10.06 17.47v7.81A21 21 0 0 0 546 704h-4c-2.92-3.57-3.36-6.18-2.94-10.69.83-7.47 3.58-13.68 6.94-20.3q-.88.18-1.8.4l-2.4.52-2.34.53a83 83 0 0 1-30.4 1.3q-1.36-.2-2.76-.38c-7.65-1.15-12.05-3.56-17.3-9.38-1.15-3.46-.84-5.25-.25-8.82l.49-3.08c1.55-6.32 4.3-10.02 9.14-14.29l2.83-2.55A55 55 0 0 1 509 632c2.3-1.57 2.3-1.57 4-3 0-2 0-2-2-5 0-6 0-6 1-8l-1.75-.82c-4.47-2.36-7.73-5.58-11.25-9.18l-2.44-2.32a84 84 0 0 1-6.91-8.47 174 174 0 0 0-5.4-6.78c-7.8-9.7-14.58-19.85-19.25-31.43l-1.62-3.69c-4.1-9.87-4.1-9.87-4.84-13.73a48 48 0 0 0-2.48-7.83c-3.14-8.57-4.3-16.39-4.84-25.5a76 76 0 0 0-.78-7.25c-1.12-7.65-1.12-7.65.56-11l.6-5.26c1.3-12.75 4.47-22.5 12.4-32.74l1.75-2.82c5.56-5.4 12.3-7.5 19.94-7.5q2.66.12 5.3.32c.97-3.74.9-6.27 0-10-1.2-8.97-1.18-17.98-1-27l.07-2.54c.46-18.25 1.9-36.13 7.94-53.46q1.12-3.8 2.19-7.59c1.08-3.23 2.45-6.3 3.8-9.4l3.07-7.08 1.54-3.53c1.4-3.4 1.4-3.4 2.44-6.54a50 50 0 0 1 3.34-7.6A118 118 0 0 0 523 283l1.63-4c1.46-3.75 1.53-6.97 1.37-11l1-2-2.06-.63c-3.93-1.84-6.74-4.49-9.94-7.37-2.77-2.42-5.45-4.7-8.7-6.5-2.82-1.84-3.61-3.58-5.3-6.5a243 243 0 0 0-3.5-3.69c-3.92-4.36-5.2-8.69-6.5-14.3l-1-3c-2.26-12.49-2.28-24.93-2.2-37.56l.02-9.9v-6.32q.02-1.47.02-2.99l.02-2.75v-2.42C488 160 488 160 489 157q-.15-4.15-.44-8.29a430 430 0 0 1-.62-26.4v-3.88l.06-11.87.06-15.87.03-3.65v-3.38l.03-2.96A45 45 0 0 0 487 73c-.25-4.7-.23-9.42-.25-14.13l-.06-3.84c-.04-9.82.28-20.19 7.53-27.6 7.22-5.8 16.72-7.97 25.2-3.72" fill="#E4E5E6"/><path d="M571 487a55 55 0 0 1 5 3v2l3 1a262 262 0 0 1 5 5c9.61 9.34 23.55 19.17 37.24 20.18 4.56-.3 8.69-1.76 12.97-3.27C637 514 637 514 640 514v-2l3.25-1.81a55 55 0 0 0 6.06-3.94C651 505 651 505 653 505l.75-1.77c1.44-2.57 3.04-3.98 5.31-5.85 3.84-3.19 3.84-3.19 4.94-5.38h2c-.58 3.94-1.77 6.64-3.88 10l-1.55 2.5L659 507l-1.46 2.6a24 24 0 0 1-5.23 5.84l-2.1 1.83C648 519 648 519 645.7 520.32A19 19 0 0 0 640 525c-.38 2.67-.38 2.67-.28 5.82l.09 3.54q.37 6.97.9 13.93c1.35 18.17 1.49 36.31 1.48 54.52v3.96l-.02 11.25-.01 3.44-.01 3.19-.02 2.78A43 43 0 0 1 641 635c-2.91.97-4.9 1.16-7.94 1.19l-2.59.04c-2.47-.23-2.47-.23-4.24-1.2-3.52-1.62-7.15-1.5-10.98-1.65l-2.4-.12L607 633c-2.58-6.49-3.46-12.16-3.43-19.11l-.02-2.9q-.02-4.65.01-9.3l.01-3.22A416 416 0 0 1 608 540l.58-4.09L610 526l-2.85-.91a29 29 0 0 1-7.77-4.09c-2.13-1.49-4.11-2.88-6.47-3.98-2.19-1.17-3.3-2.4-4.85-4.33a62 62 0 0 0-5.5-6c-5.48-5.75-10.02-11.81-11.56-19.69" fill="#000"/><path d="M490 92h1v1.92q-.01 23.22.08 46.43.05 11.23.04 22.46-.01 9.8.05 19.6.03 5.18.01 10.35c-.06 19.91.52 39.58 15.19 54.68 5.92 5.63 12.3 10.31 19.08 14.85C528 264 528 264 529 265c.78 8.35-.52 15.29-3.44 23.06l-1.09 3.02a211 211 0 0 1-8.96 20.43c-5.42 11.12-9.46 22.82-13.51 34.49l-.88 2.51c-6.07 17.74-7.39 35.74-7.43 54.37l-.01 2.21c-.03 9.21.55 18.12 1.89 27.23.46 3.95.5 7.7.43 11.68l-3.66-.14-4.84-.11-2.4-.1c-6.93-.12-11.95 1.66-17.24 6.17-6.18 7.43-10.47 14.53-11.86 24.18l-.34 2.24c-4.79 40.64 7.63 80.74 32.66 112.72q3.28 4.07 6.68 8.04l2.21 2.59a137 137 0 0 0 19.38 18.4 32 32 0 0 1 5.72 6.26l1.55 2.14L525 628c-.62 1.88-.62 1.88-2 4-2.69 1.05-2.69 1.05-6 1.88-11.48 3.27-18.52 8.17-24.38 18.56-1.09 4.49-1.79 9.1.26 13.4 3.08 4.14 6.27 5.05 11.12 6.16 4.35.37 8.69.37 13.06.37q3.06.01 6.12.08c7.88.06 14.63-.87 22.06-3.56 3.77-1.21 6.84-1.2 10.76-.89l-2.19 2.12c-5.21 5.24-9.51 9.78-10.08 17.47l.02 3.91-.02 3.91c.25 3.34.82 5.6 2.27 8.59h-4c-2.92-3.57-3.37-6.18-2.94-10.69.83-7.47 3.58-13.67 6.94-20.31l-1.79.4-2.4.54-2.35.52a83 83 0 0 1-30.4 1.29l-2.76-.37c-7.65-1.15-12.05-3.55-17.3-9.38-1.15-3.46-.84-5.25-.25-8.81l.48-3.08c1.56-6.32 4.3-10.02 9.15-14.3l2.83-2.54A55 55 0 0 1 509 632c2.31-1.56 2.31-1.56 4-3 0-2 0-2-2-5 0-6 0-6 1-8l-1.75-.81c-4.47-2.36-7.73-5.59-11.25-9.19l-2.44-2.31a83 83 0 0 1-6.91-8.48 176 176 0 0 0-5.4-6.77c-7.79-9.72-14.58-19.86-19.25-31.44l-1.62-3.69c-4.1-9.87-4.1-9.87-4.84-13.72a49 49 0 0 0-2.48-7.84c-3.15-8.57-4.29-16.39-4.84-25.51a80 80 0 0 0-.78-7.24c-1.12-7.65-1.12-7.65.56-11q.32-2.62.59-5.26c1.32-12.74 4.48-22.5 12.41-32.74l1.75-2.81c5.56-5.4 12.3-7.5 19.94-7.5q2.65.11 5.31.31c.96-3.74.9-6.27 0-10-1.22-8.97-1.19-17.97-1-27l.05-2.53c.47-18.25 1.91-36.13 7.95-53.47q1.12-3.78 2.19-7.59c1.08-3.22 2.44-6.29 3.81-9.41l3.06-7.06 1.54-3.54c1.4-3.4 1.4-3.4 2.44-6.54.91-2.71 2-5.08 3.34-7.61A118 118 0 0 0 523 283l1.62-4c1.46-3.75 1.54-6.97 1.38-11l1-2-2.06-.62c-3.93-1.84-6.74-4.5-9.94-7.38-2.78-2.42-5.46-4.7-8.69-6.5-2.83-1.84-3.62-3.58-5.31-6.5a305 305 0 0 0-3.5-3.69c-3.93-4.35-5.2-8.69-6.5-14.31l-1-3c-2.27-12.51-2.28-24.99-2.21-37.66q.03-4.99.02-9.97l.02-6.33.01-3.02.01-2.75.02-2.44C488 160 488 160 489 159q.17-3.14.21-6.26l.03-1.98.08-6.51.06-4.51.15-11.87.16-12.1z" fill="#E1E2E5"/><path d="M490 92h1v1.92q-.01 23.22.08 46.43.05 11.23.04 22.46-.01 9.8.05 19.6.03 5.18.01 10.35c-.06 19.91.52 39.58 15.19 54.68 5.92 5.63 12.3 10.31 19.08 14.85C528 264 528 264 529 265c.78 8.35-.52 15.29-3.44 23.06l-1.09 3.02a211 211 0 0 1-8.96 20.43c-5.42 11.12-9.46 22.82-13.51 34.49l-.88 2.51c-6.07 17.74-7.39 35.74-7.43 54.37l-.01 2.21c-.03 9.21.55 18.12 1.89 27.23.46 3.95.5 7.7.43 11.68-5.75.12-5.75.12-8-1a104 104 0 0 0-4.62-.56l-2.48-.26-1.9-.18c3.2-2.14 4.02-2.23 7.69-2.12l2.45.05 1.86.07c.97-3.77.81-6.23 0-10-1.22-8.97-1.19-17.97-1-27l.05-2.53c.47-18.25 1.91-36.13 7.95-53.47q1.12-3.78 2.19-7.59c1.08-3.22 2.44-6.29 3.81-9.41l3.06-7.06 1.54-3.54c1.4-3.4 1.4-3.4 2.44-6.54.91-2.71 2-5.08 3.34-7.61A118 118 0 0 0 523 283l1.62-4c1.46-3.75 1.54-6.97 1.38-11l1-2-2.06-.62c-3.93-1.84-6.74-4.5-9.94-7.38-2.78-2.42-5.46-4.7-8.69-6.5-2.83-1.84-3.62-3.58-5.31-6.5a305 305 0 0 0-3.5-3.69c-3.93-4.35-5.2-8.69-6.5-14.31l-1-3c-2.27-12.51-2.28-24.99-2.21-37.66q.03-4.99.02-9.97l.02-6.33.01-3.02.01-2.75.02-2.44C488 160 488 160 489 159q.17-3.14.21-6.26l.03-1.98.08-6.51.06-4.51.15-11.87.16-12.1z" fill="#E6E7E9"/><path d="m777.73 608.63 2.02.69c9.58 3.03 19.28 4.54 29.25 5.68l2.53.3c7.72.79 15.4.9 23.16.89h2c10.85-.01 21.33-.5 31.97-2.75 3.13-.58 6.16-.5 9.34-.44l-1 3q-1.85.14-3.75.32a55 55 0 0 0-10.43 2.2c-7.6 1.94-15.03 1.9-22.82 1.82a591 591 0 0 0-7.29-.01c-8.12-.02-15.9-.4-23.92-1.84a115 115 0 0 0-11.55-1.24C795 617 795 617 792 616l-3.63-.37a38 38 0 0 1-8.8-2.13c-6.08-2.13-12.27-3.32-18.57-1.5l1 3-1.8 1.19c-2.2 1.8-2.2 1.8-3.7 4.38-1.5 2.43-1.5 2.43-3.39 3.37-2.38 1.2-3.69 2.5-5.42 4.5l-1.62 1.8L745 632l1 3 2.12.82c5.1 2.1 8.8 5.49 11.75 10.12 1.25 3.38 1.74 6.49 2.13 10.06l.65 2.43c.62 4.59-2.1 7.92-4.65 11.57-5.6 5.6-12.12 6.35-19.69 6.69l-2.4.12c-9.57.39-17.94-.3-26.9-3.81l-1 1a23 23 0 0 0 4.11 6.38c3.43 5.04 2.7 11.86 1.88 17.62-1.4 2.77-2.6 3.97-5 6l-4-1 1.94-1.81c3.64-3.86 3.52-8.06 3.46-13.14-1.02-7.68-5.59-14.22-11.66-18.9A52 52 0 0 0 691 665v-6l1.47 1.18C707.5 671.85 725.3 674.68 744 673c5.21-.9 9.52-1.82 13-6a31 31 0 0 0 .27-18.38c-3.64-6.7-10.66-10.31-17.27-13.62 1.57-3.87 4.05-6.15 7.06-9 5.02-4.83 9.13-10 13.16-15.66 4.25-5.6 11.6-3.66 17.51-1.71" fill="#E9EBEB"/><path d="M606 634a1622 1622 0 0 1 12.71-.09l2.72-.01 2.51-.01C626 634 626 634 628 635q3.3.34 6.62.56l3.61.26 2.77.18-.44 6.19-.24 3.48c-.32 3.33-.32 3.33-.83 5.68-.93 5.02-.67 10.12-.68 15.21l-.03 3.39c-.04 20.54-.04 20.54 6.22 28.05l1.37 1.69q1.8 2.17 3.63 4.31c-3.65-.58-5.49-2.01-8.12-4.56l-2.08-1.94c-3.88-5.38-4.05-11.85-4-18.28l.01-2.12q.02-3.3.07-6.6l.02-4.52q.03-5.49.1-10.98l-3.8.36-4.95.39-2.5.25c-6.17.44-6.17.44-9.33-1.98L614 652c4.02-4.02 10.57-3.06 15.94-3.06l6.06.06 1-9a93 93 0 0 0-21.5-1.97C613 638 613 638 610 637l.44 3.69.24 2.07c.47 3.28 1.16 6.5 1.86 9.73 1.41 7.59 1.71 15.05 1.77 22.76l.06 3.08c-.01 8.42-1.01 15.95-7.06 22.23l-1.88 2.01L604 704l-3-1 1.43-1.36c7.06-7.3 8.67-14.51 8.95-24.52-.23-11.11-1.59-22.63-4.48-33.37a32 32 0 0 1-.9-9.75" fill="#DADADA"/><path d="m479 440 3 1Zm9 2v1l-2.63.3c-9.38 1.21-14.91 3.32-20.92 10.72-4.58 6.26-7.34 12.3-8.45 19.98l-.34 2.24c-4.79 40.64 7.63 80.74 32.66 112.72 6.95 8.64 14.04 17.05 22.68 24.04l-3 1c-3.49-2.09-6.17-5.1-9-8l-2.44-2.31a83 83 0 0 1-6.91-8.48 176 176 0 0 0-5.4-6.77c-7.79-9.72-14.58-19.86-19.25-31.44l-1.62-3.69c-4.1-9.87-4.1-9.87-4.84-13.72a49 49 0 0 0-2.48-7.84c-3.15-8.57-4.29-16.39-4.84-25.51a80 80 0 0 0-.78-7.24c-1.12-7.65-1.12-7.65.56-11q.32-2.62.59-5.26c1.31-12.73 4.46-22.53 12.41-32.74l1.94-2.88c6.59-6.78 13.1-6.49 22.06-5.12" fill="#DFE1DF"/><path d="M626.63 201.75c2.3 1.18 3.16 1.8 4.25 4.16.16 2.84-.74 3.7-2.56 5.84a47 47 0 0 0-6.47 10.59C621 224 621 224 619 226c-2.87.06-2.87.06-6-1-2.15-2.63-4-5.51-4-9l-3-1c-1.88-2.52-2.9-4.47-3.5-7.56.5-2.44.5-2.44 2.82-4.69 6.28-4.1 14.53-4.12 21.3-1" fill="#5F615E"/><path d="M490 92h1v1.92q-.01 23.22.08 46.43.05 11.23.04 22.46-.01 9.8.05 19.6.03 5.18.01 10.35c-.06 19.94.5 39.75 15.33 54.78a87 87 0 0 0 15.91 12.21L524 261v3c-3.39-1.52-6.02-3.51-8.88-5.88a76 76 0 0 0-8.56-6.31c-2.9-2.05-3.81-3.74-5.56-6.81a305 305 0 0 0-3.5-3.69c-3.93-4.35-5.2-8.69-6.5-14.31l-1-3c-2.27-12.51-2.28-24.99-2.21-37.66q.03-4.99.02-9.97l.02-6.33.01-3.02.01-2.75.02-2.44C488 160 488 160 489 159q.17-3.14.21-6.26l.03-1.98.08-6.51.06-4.51.15-11.87.16-12.1z" fill="#F0F1F0"/><path d="M490 41h1c1.1 35.47 1.13 70.92 1.07 106.4l-.02 23.17L492 218h-1l-1-61h-1c-1.11-16.82-1.09-33.59-1-50.44a4198 4198 0 0 0 .09-19.51l.01-3.38.01-2.96c-.11-2.68-.56-5.1-1.11-7.71.12-2.46.12-2.46.44-4.81l.31-2.4L488 64h1z" fill="#C1C2C2"/><path d="M729 24h4v2a134 134 0 0 1-6.62 4.19c-14.13 8.61-27.7 18.09-41.13 27.75l-2.09 1.5-2.02 1.46-1.95 1.38C677 64 677 64 675.12 66.03c-6.19 6.2-11.61 6.84-19.95 6.9q-4.2-.05-8.4-.15l-5.87-.03q-7.69-.06-15.38-.2-7.86-.11-15.73-.16-15.4-.13-30.79-.39v-1l3.08-.02 28.74-.27 14.77-.13 14.26-.14 5.44-.04 7.62-.08 2.26-.01c4.07-.06 7.16-.58 10.83-2.31l2.19-.38c1.81-.62 1.81-.62 2.75-2.5 1.45-2.9 3.23-3.52 6.06-5.12q1.83-1.32 3.62-2.69 5-3.8 10.07-7.5l2.7-1.98c2.48-1.74 5-3.3 7.61-4.83q4.74-3.08 9.31-6.38A244 244 0 0 1 728 25z" fill="#CFD0D2"/><path d="m788 570 4 1-9 19h-2l-.25 2.5c-1.16 5.43-3.68 9.9-6.75 14.5-3.62.19-3.62.19-7 0 1.53-5.65 4.35-10.16 7.44-15.06l2.93-4.73 1.39-2.22q2.15-3.48 4.24-6.99l2.69-4.31 1.32-2.12z" fill="#020302"/><path d="M734 22c5.84-.31 9.78.01 15 3 6.17 5.61 9.03 12.04 9.88 20.33.23 5.15-.34 10.24-.82 15.36a238 238 0 0 0-1.07 24.32c.05 13.43.05 13.43-2.99 17.99l-.05-14.51-.03-4.93-.02-7.12-.01-2.2c0-4.83.46-9.45 1.11-14.24.23-3.33.27-6.66.31-10l.09-2.58c.07-7.17-1.8-12.24-6.34-17.8C744.2 25.8 738.97 25.49 733 25z" fill="#EAEDEA"/><path d="M753 84h1l.18 3.95.26 5.17.12 2.6.12 2.54.11 2.31c.21 2.43.21 2.43.74 5.31.5 3.34.51 6.38.38 9.75l-.13 3.86-.16 4.07-.15 4.18q-.22 6.13-.47 12.26l-.13 3.39-.37 8.61-.11 2.49c-.22 4.56-.5 9.03-1.39 13.51l-2 1c-.27-28.31.25-56.73 2-85" fill="#CACCC9"/><path d="M606 634h20v1l-15 1c-1.04 6.25-1.04 6.25 1 10 1.88 9.72 2.22 19.62 2.31 29.5l.06 3.04c-.01 8.33-1.07 15.81-7.06 22.02l-1.88 2.01L604 704l-3-1 1.43-1.36c7.06-7.3 8.67-14.51 8.95-24.52-.23-11.11-1.59-22.63-4.48-33.37-.9-3.75-.9-3.75-.9-9.75" fill="#E4E4E0"/><path d="m699 185 1 2a41 41 0 0 0 4 2l-1 2-1.62-.59c-16.82-5.87-31.53-5.34-48.32.09l-2.01.65c-2.91.97-4.85 1.65-7.05 3.85h-3v-3c16.75-9.17 39.5-15.75 58-7" fill="#030503"/><path d="M805 511h1q.3 2.06.56 4.12l.32 2.33c.3 6.34-1.91 12.31-3.76 18.3l-.77 2.55-1.56 5.11q-1.59 5.24-3.14 10.49A78 78 0 0 1 795 561l-2 6 2.81.55 3.63.76 3.62.74 2.94.95 1 3c-6.56-.39-11.95-1.42-18-4a184 184 0 0 1 7.5-24.38A157 157 0 0 0 805 511" fill="#DADCDB"/><path d="M520.06 23.88C523 26 523 26 525 28c-2.46.88-3.63 1.13-6.12.23q-1.08-.6-2.2-1.16c-4.15-1.95-7.03-2.84-11.68-2.07-5.98 2.75-10.54 6.43-13.08 12.63-1.09 3.98-1.27 7.74-1.34 11.84l-.06 2.39-.15 7.52-.1 5.12q-.15 6.25-.27 12.5h-1l-.19-2.7a534 534 0 0 0-.5-7.06c-.3-3.24-.3-3.24-.83-5.18-2.27-9.67-1.27-22.57 3.74-31.15 6.52-8.59 19.07-12.43 28.84-7.03" fill="#EBEBEE"/><path d="m691 659 1.47 1.17c8.78 6.82 16.6 9.63 27.53 11.83-3.17 1.91-5.11 2.16-8.75 1.62l-2.42-.33L707 673l1.25 1.56L710 677l2.19 2.88c3.08 5.5 2.69 12.05 1.81 18.12-1.4 2.77-2.61 3.96-5 6l-4-1 1.94-1.81c3.64-3.86 3.52-8.06 3.47-13.14-1.03-7.69-5.6-14.23-11.66-18.9A52 52 0 0 0 691 665z" fill="#DFE0E1"/><path d="m564 181 3.16.05A37.6 37.6 0 0 1 586 187l1 3a77 77 0 0 1-9.81-2.5c-14.29-4.29-33.38-4.51-47.19 1.5v-3q2-.99 4-1.94l2.25-1.09c8.71-3.08 18.65-2.16 27.75-1.97" fill="#030503"/><path d="M509 614c5.14.59 8.6 4.28 11.72 8.11q2.2 2.9 4.28 5.89c-.66 1.89-.66 1.89-2 4-2.5 1.05-2.5 1.05-5.44 1.75l-2.93.73C512 635 512 635 509 635c1.25-3.65 1.67-4.78 5-7l-1.5-1.81c-1.96-2.86-1.5-4.79-1.5-8.19l1-2-3-1z" fill="#EDEDF0"/><path d="M926 464h1l-.1 2.18c.13 12.27 4.77 23 9.18 34.29a29 29 0 0 1 2.02 10.86l-.01 2.42-.03 2.5-.01 2.55-.05 6.2h-1l-.15-2.34-.23-3.04-.21-3.02C936 514 936 514 934 512c-.24-1.96-.24-1.96-.31-4.38-.56-7.12-3.46-13.43-6.79-19.69-1.32-2.83-1.76-5.75-2.34-8.81C924 477 924 477 922 474l2-4h2z" fill="#D8D8DB"/><path d="M752 168h1c.64 8.17 1.25 15.87 0 24 .44 2.38.44 2.38 1 4v2l1.19 1.69c1.27 3.62-.65 5.93-2.19 9.31-.19 2.94-.19 2.94 0 5l-3 1-.05-16.28-.03-5.53-.02-7.98-.01-2.47c0-4.69.25-9.13 1.11-13.74z" fill="#EDEEED"/><path d="m616.47 634.86 2.28.01 2.3.01c6.68.05 13.3.47 19.95 1.12l-.44 6.37-.25 3.6c-.3 3.03-.3 3.03-1.3 5.03h-23v-1c6.64-1.24 13.23-1.09 20-1l1-9a88 88 0 0 0-21.52-1.88C613 638 613 638 610 636c1.77-1.77 4.11-1.13 6.47-1.14" fill="#EBEEEB"/><path d="m556 668-2.19 2.12c-5.21 5.24-9.51 9.78-10.08 17.47l.02 3.91-.02 3.91c.25 3.34.82 5.6 2.27 8.59h-4c-2.92-3.57-3.37-6.18-2.94-10.69.83-7.47 3.58-13.67 6.94-20.31l-3-3c4.5-2.25 8.08-2.17 13-2" fill="#E5E4EC"/><path d="m878 613-1 3-3.75.31a51 51 0 0 0-10.31 2.25c-12.19 3.24-26.54 2.28-38.94.44v-1l2.13-.15c32.62-2.35 32.62-2.35 42.55-4.4 3.12-.6 6.15-.51 9.32-.45" fill="#E3E5E4"/><path d="M489 159h1l.02 1.94q.13 10.08.3 20.15l.1 7.51.17 10.83.03 3.36c.11 5.85.59 11.28 1.96 16.98A33 33 0 0 1 493 227l-3-1c-1.87-13.3-2.28-26.39-2.21-39.81q.03-4.96.02-9.92l.02-6.31.01-2.99.01-2.74.02-2.41C488 160 488 160 489 159" fill="#EAEBEA"/><path d="M977 524h1c1.38 6.81.41 11.36-2 17.81l-.96 2.66c-2.5 6.64-5.31 13.13-10.04 18.53l-3 1a58 58 0 0 1 4.75-9.69c2.8-5.04 4.75-10.16 6.56-15.62l.77-2.32A71 71 0 0 0 977 524" fill="#D6D8D9"/><path d="m974 482 2 1c4.72 14.74 4.47 29.69 4 45l-2 1-.04-1.73c-.31-10.93-.85-21.62-2.94-32.37A57 57 0 0 1 974 482" fill="#E8E8EA"/><path d="m761 436 1 3 2 1-2 5 2.53-.32c7.27-.78 12.78-.74 19.47 2.32-3.26 1.94-5.66 2.24-9.42 2.2l-3.11-.02-3.22-.06-3.27-.02-7.98-.1.62-1.83.82-2.42.81-2.39A88 88 0 0 0 761 436" fill="#D7D8DB"/><path d="M612 663h2q.13 5.71.19 11.44l.07 3.24c.08 8.7-.67 16.37-6.95 22.88l-1.88 2.01L604 704l-3-1 1.43-1.36c10.35-10.7 9.22-24.62 9.57-38.64" fill="#DDDFDF"/><path d="M950 449c11.06 7.2 20.74 17.15 25 30-.19 3.62-.19 3.62-1 6h-1l-1.06-3.75c-4.43-13.23-12.15-23.1-23.94-30.25z" fill="#DFDFE2"/><path d="M489 37h2l-1 40h-1l-.18-2.7-.26-3.55-.24-3.52C488 64 488 64 487.48 62.07c-.76-3.27-.66-6.55-.67-9.88l-.03-2.08c-.02-4.74.73-8.61 2.22-13.11" fill="#F2F3F4"/><path d="M493 368h3l-.4 2.7c-1.98 14.37-2.24 28.81-2.6 43.3h-1c-1.84-30.76-1.84-30.76 1-46" fill="#E1E3E7"/><path d="M936 512h1c.66 11.91-.04 20.03-7.81 29.62L927 544l-2-1 1.5-2.23 1.94-2.96 1.93-2.92A21 21 0 0 0 933 527l1-1c.03-2.78-.07-5.55-.16-8.34C934 515 934 515 936 512" fill="#E5E6E9"/><path d="M926 544c-1.29 3.86-3.63 5.43-6.75 7.81l-1.74 1.34C911.45 557.64 903.7 563 896 563v-2l3.33-1.43c8.55-3.79 15.69-7.57 22.67-13.88 2-1.69 2-1.69 4-1.69" fill="#E7E8E9"/><path d="M553 51c8.87 3.29 16.27 8.89 23.12 15.3C578 68 578 68 581 70c-1.81.63-1.81.63-4 1a69 69 0 0 1-6.62-5l-3.74-3.06-1.86-1.52c-3.22-2.56-6.65-4.82-10.08-7.08L553 53z" fill="#E0E0E0"/><path d="M492 652h3l-.07 2.01c-.2 9.87-.2 9.87 2.07 12.99a46 46 0 0 0 8 3c-2 2-2 2-4.75 2.06-4.55-1.48-7-3.85-9.25-8.06a23 23 0 0 1 1-12" fill="#282A2B"/><path d="m792 557 1 4 2 1-2 5 2.81.55 3.63.76 3.62.74 2.94.95 1 3c-6.56-.39-11.95-1.42-18-4z" fill="#DCDDDB"/><path d="m544 671-1 3c-21.37 4.33-21.37 4.33-30 1v-1l1.96-.17 8.79-.77 3.08-.26 2.97-.26 2.73-.24c10.92-1.32 10.92-1.32 11.47-1.3" fill="#EDEDEC"/><path d="M763 408h2c2.79 9.95.31 20.95-1 31h-2z" fill="#EFF1F0"/><path d="m479 440 3 1Zm9 2v1l-2.63.3c-9.72 1.26-14.89 3.5-21.07 11.11C463 456 463 456 461 458c0-5.89 3.03-8.85 7-13 6.15-5.08 12.48-4.15 20-3" fill="#DFDFE1"/><path d="m804 615 38 2v1l-3.76.18-4.93.26-2.47.12c-6.35.33-6.35.33-9.5 1.03-3.18.56-5.86.06-9.03-.47l-3.45-.55C806 618 806 618 804 617z" fill="#E1E2E4"/><path d="M710 682h3c1.25 5.67 2.79 12.72-.12 18.05-1.38 1.64-1.38 1.64-3.88 3.95l-4-1 1.94-1.81c3.6-3.83 3.17-7.33 3.12-12.38l-.02-3.85z" fill="#ECEEEE"/><path d="M491 395h1a465 465 0 0 1 1 34c-2.66-3.04-3.37-4.89-3.33-8.92l.02-2.86.06-2.97.02-2.92c.06-5.52.43-10.87 1.23-16.33" fill="#EEF0F3"/><path d="M808 491c2.23 3.57 2.24 6.53 2.19 10.69l-.02 3.51C810 508 810 508 809 509q-.55 3.5-1 7h-2l.44-11.38.24-6.39.11-2.89C807 493 807 493 808 491" fill="#F1F4F0"/><path d="M754 104h1c2.03 7.87.93 16.04 0 24h-2q-.04-5.71-.06-11.44l-.03-3.3-.01-3.13-.01-2.91C753 105 753 105 754 104" fill="#F2F5F2"/><path d="M638 644h1v7h-23v-1c6.66-1.24 13.25-1.09 20-1l.44-1.94C637 645 637 645 638 644" fill="#EFEFEC"/><path d="M754 76h2c2.36 20.46 2.36 20.46-2 27z" fill="#EFF2F2"/><path d="m806 570 2.51.44c4.44.71 8.9 1.24 13.36 1.72 1.72.21 3.43.52 5.13.84l1 2c-8.36.32-15.22.22-23-3z" fill="#EBEBED"/><path d="M857 617v1l-3.88.44c-2.38.27-3.96.48-6.12 1.56-7.7.32-15.38.24-23-1v-1a423 423 0 0 1 33-1" fill="#F2F3F4"/><path d="M761 396h2c1.87 3.63 1.93 5.81 1.29 9.76-.63 4.86-.68 9.78-.85 14.68l-.13 3.37L763 432h-1z" fill="#C6C7C5"/><path d="m760 613 2 2-1.81 1.19C758 618 758 618 756.5 620.56c-1.5 2.44-1.5 2.44-3.39 3.37-2.43 1.23-3.65 2.59-5.36 4.69l-1.58 1.92L745 632l-1-3 1.83-1.79c3.97-3.93 7.71-7.82 11.17-12.21z" fill="#EEEFEE"/><path d="m772 607 3 2h-3l-1 2-3.19-.25c-4.35.29-5.74 1.27-8.81 4.25l-2-1c4.69-5.8 7.1-7.92 15-7" fill="#D9DCDA"/><path d="M459 457h2l-.87 2.54q-1.74 5.38-3.25 10.84l-1.08 3.77-.8 2.85h-2c.41-6.37 1.21-15.21 6-20" fill="#E8E8EA"/><path d="M452 486h1v23h-1c-3.8-16.27-3.8-16.27 0-23" fill="#F3F4F6"/><path d="M752 168h1q.3 3.88.56 7.75l.17 2.21c.25 3.59.27 6.59-.73 10.04h-2l-.06-9.44-.03-2.72-.01-2.59-.01-2.39C751 169 751 169 752 168" fill="#F4F6F5"/><path d="M749 202h1l.15 2.48.23 3.27.21 3.23c.39 2.86 1.11 4.52 2.41 7.02-.98 4.01-2.55 5.82-6 8l.46-2.94c.62-4.32.87-8.64 1.1-13l.13-2.36z" fill="#D5D6D5"/><path d="M556 668c-2.58 2.65-4.92 4.94-8 7l-1-3h-3l-1-2c4.5-2.25 8.08-2.17 13-2" fill="#CFD0D3"/><path d="M606 634h20v1l-15 1-2 5-3-1z" fill="#C8C9C6"/><path d="M928 453c1.3 3.91.48 6.2-.44 10.19l-.87 3.85L926 470h-2c-1.11-1.68-1.11-1.68-2-4 .61-2.47.61-2.47 1.75-5.06l1.11-2.6C926 456 926 456 928 453" fill="#ECEFF1"/><path d="M863 572v2a62 62 0 0 1-12.88 1.06l-3.49-.02L844 575c4.37-4.37 13.12-3.12 19-3" fill="#ECECEE"/><path d="m806 483 3 1-2 25h-1z" fill="#D0D2CF"/><path d="M453 477h2l-1 23h-1q-.3-5.47-.56-10.94l-.17-3.15-.15-3-.14-2.78C452 478 452 478 453 477" fill="#C6C8C9"/><path d="M503 673h24v1l-2.7.18-3.55.26-3.52.24c-3.23.32-3.23.32-5.42.88-3 .73-5.81-.04-8.81-.56z" fill="#D1D2D3"/><path d="M798 546c.89 2.49 1.08 3.73.29 6.29l-1.1 2.33-1.08 2.36C795 559 795 559 793 561c.82-9.89.82-9.89 3-14z" fill="#E6E5E8"/><path d="M935 500c2.59 3.88 3.13 6.73 3.1 11.33l-.01 2.42-.03 2.5-.01 2.55-.05 6.2h-1l-.15-2.34-.23-3.04-.21-3.02C936 514 936 514 934 512l1-2q.1-2.57.06-5.12l-.02-2.76z" fill="#B3B3B6"/><path d="M755 60c3 3 3 3 3.11 5.63l-.36 2.93-.33 2.94C757 74 757 74 756 76h-2z" fill="#D7DAD7"/><path d="M734 22c5.96-.31 9.71.19 15 3l1 2-17-2z" fill="#F0F2F1"/><path d="M632 636h9l-1 13h-1l-2-11-5-1z" fill="#D5D7D4"/><path d="m670 65 1 3c-1.31 2-1.31 2-4 4-3.69.36-7.31.23-11 0v-1a208 208 0 0 0 4.38-.88l2.46-.49C665 69 665 69 667 67h3z" fill="#E4E4E7"/><path d="M702 671c3.93 1.28 5.86 2.44 8 6a90 90 0 0 1 2 5l-3 1-1.02-1.86-2.69-4.88A89 89 0 0 0 702 671" fill="#D6D6DB"/><path d="m493 665 12 5-2 2c-3.65-.16-5.52-.61-8.38-2.94C493 667 493 667 493 665" fill="#1E2021"/><path d="M490 651h2l-1 15-3-3c.14-2.92.14-2.92.81-6.19l.65-3.29z" fill="#EDEFEF"/><path d="M542 687h1l.15 2.45.23 3.24.21 3.2c.4 3.02 1.15 5.35 2.41 8.11h-4c-.99-3.95-.96-7.27-.56-11.31l.31-3.24z" fill="#C1C2C3"/><path d="M516 303h2a20.5 20.5 0 0 1-4 10l-3 1c1.45-3.79 3.15-7.39 5-11" fill="#ECEDF1"/><path d="m570 62 1.64 1.24 2.17 1.64 2.15 1.61Q578.44 68.3 581 70c-1.7.71-1.7.71-4 1-2.36-1.43-2.36-1.43-4.75-3.44l-2.42-1.99L568 64z" fill="#D7D8D9"/><path d="m691 659 7 5-2 1v2l-5-2z" fill="#ACADAD"/><path d="m804 615 16 1v1l-6.88.56-3.86.32C806 618 806 618 804 617z" fill="#DBDDDE"/><path d="M917 600v3c-7.29 3.57-7.29 3.57-12 2 3.54-2.36 7.64-5 12-5" fill="#D7D8D9"/><path d="m969 553 1 3c-1.14 2.04-1.14 2.04-2.81 4.19l-1.65 2.17L964 564h-2c3.42-9.21 3.42-9.21 7-11" fill="#DADCDE"/><path d="M936 512h1v13h-2q-.33-2.4-.62-4.81l-.36-2.71C934 515 934 515 936 512" fill="#F3F5F7"/><path d="M500 340h3q-.42 2.13-.88 4.25l-.49 2.39A28 28 0 0 1 499 353c-1.01-5.04-.97-8.24 1-13" fill="#E2E2E4"/><path d="m712 695 2 1c-2.11 6-2.11 6-5 8-2.19-.31-2.19-.31-4-1l1.88-1.81C709 699 709 699 711 696z" fill="#DDE0DD"/><path d="m758 664 2 3c-4.38 5.72-4.38 5.72-7.19 7H751l-2-2 2.81-1.19c3.42-1.94 4.5-3.34 6.19-6.81" fill="#E1E4E1"/><path d="m760 385 3 1-.06 3.31C763 393 763 393 764 396h-3c-1.2-2.41-1.1-3.95-1.06-6.62l.02-2.48z" fill="#EDF0EF"/><path d="M727 306c2.45.98 3.76 1.62 5.19 3.88.77 2.02 1.36 4 1.81 6.12h-3l-2-3.88-1.12-2.17C727 308 727 308 727 306" fill="#EAECEB"/><path d="M758 388h2l1 12h-2c-1.33-3.98-1.07-7.85-1-12" fill="#292A2C"/><path d="M533 34q1.76 1.17 3.5 2.38l1.97 1.33L540 39v2c-4.25-.47-6.2-2.97-9-6z" fill="#E9EAE7"/><path d="M751 617h2l1 3-7 6-1-3h3l.44-1.88C750 619 750 619 751 617" fill="#2A2B2A"/><path d="m757 378 4 1c.69 2.25.69 2.25 1 5l-3 4z" fill="#D9DBD9"/><path d="M611 656h2l-1 13h-1l-.56-5.94-.32-3.34L610 657z" fill="#CCCECE"/><path d="M500 607c5.04.44 7.38 2.71 11 6l-3 1c-3.08-1.89-5.5-4.41-8-7" fill="#E3E5E5"/><path d="M928 596a25.4 25.4 0 0 1-11 6c1-3 1-3 3.25-4.69 2.89-1.38 4.6-1.58 7.75-1.31" fill="#E7E8EA"/><path d="M784 447c-3.76 2.49-6.87 2.03-11.25 1.62l-3.83-.33L766 448v-1c12.67-1.33 12.67-1.33 18 0" fill="#B6B7B7"/><path d="M729 24h4v2l-8 4-2-2 2.44-1.44C728 25 728 25 729 24" fill="#E7E6EB"/><path d="M541 689h1q.08 2.43.12 4.88l.08 2.74C542 699 542 699 540 701c-.92-4.72-1.23-7.67 1-12" fill="#F0F0F3"/><path d="M926 544c-1.12 3.35-1.75 3.79-4.56 5.69l-1.94 1.32-1.5.99v-3c5.35-5 5.35-5 8-5" fill="#D3D3D5"/><path d="M461 538c2.46 3.69 3.01 6.7 4 11h-3c-2.43-7.43-2.43-7.43-1-11" fill="#CBCBCD"/><path d="m505 335 2 3c-1.15 3.87-3.16 7.41-5 11-1.26-3.78-.48-5.03.94-8.69l1.15-3.01z" fill="#2F2F32"/><path d="M493 225c2.19 3.28 3 6.21 4 10h-3c-1.84-3.78-2.16-5.95-1-10" fill="#D8D6D8"/><path d="m642 696 3.44 2.88 1.93 1.61C649 702 649 702 650 704c-2.38-.18-3.7-.7-5.38-2.4A178 178 0 0 1 641 697z" fill="#CED1D0"/><path d="m613.29 634.9 2.78.04 2.78.02 2.15.04v2c-7.62 1.25-7.62 1.25-11-1 1-1 1-1 3.29-1.1" fill="#F4F5F2"/><path d="m915 551 3 1c-5.62 4.88-5.62 4.88-9 6v-3c2.81-2.25 2.81-2.25 6-4" fill="#DFE0E2"/><path d="M463 548c3 2 3 2 3.51 3.95L467 558c-3.3-1.65-3.78-4.68-5-8z" fill="#E6E8E9"/><path d="m770 444 8 1v2h-11l3-1z" fill="#F4F4F7"/><path d="M713 273a77 77 0 0 1 5 9l-3 1-3-9z" fill="#E9EAEB"/><path d="M517 24c5.75 1.75 5.75 1.75 8 4-1.62.69-1.62.69-4 1-3.25-1.44-3.25-1.44-6-3z" fill="#E6E6E6"/><path d="m555 669 1 2 2 1q-1.93 1.05-3.88 2.06l-2.17 1.16-1.95.78-2-1z" fill="#1C1C24"/><path d="M696 665c3.36.6 5.38 1.85 8 4l-3 2a107 107 0 0 1-5-4z" fill="#D5D4D9"/><path d="M952 577v3c-1.75 1.39-1.75 1.39-4 2.69l-2.25 1.32-1.75.99c1.37-2.85 2.55-4.95 5-7z" fill="#E8EAEB"/><path d="M459 532c2.43 3.64 2.16 5.71 2 10l-3-1z" fill="#DDDEDE"/><path d="M736 248c-.69 2.38-.69 2.38-2 5-2.62 1.31-2.62 1.31-5 2 3.14-7 3.14-7 7-7" fill="#E8E9E9"/><path d="M609 697a19 19 0 0 1-5 7l-3-1q1.42-1.5 2.88-3l1.61-1.69C607 697 607 697 609 697" fill="#CFD0D0"/><path d="m930 539 1 3c-1.94 3.19-1.94 3.19-4 6l-4-1 2.38-2.31C928 542 928 542 930 539" fill="#242528"/><path d="m926 482 3 1 1 8c-3.94-3.32-3.94-3.32-4.25-6.75z" fill="#F1F1F4"/><path d="m974 482 2 1c.41 2.07.41 2.07.62 4.56l.23 2.51.15 1.93c-1.49-1.27-1.49-1.27-3-3-.19-3.69-.19-3.69 0-7" fill="#E8E9EC"/><path d="M924 462h2v8h-2c-1.12-1.75-1.12-1.75-2-4 .88-2.25.88-2.25 2-4" fill="#F3F4F6"/><path d="m934 447 4 2-2.81 1.31c-2.66 1.41-4.27 2.45-6.19 4.69l-1-3z" fill="#D8DDDA"/><path d="M544 689h1l1 14c-3-4-3-4-3.07-6.58l.38-2.67.37-2.7z" fill="#1F2220"/><path d="M638 644h1v6h-7l4-1 .44-1.94C637 645 637 645 638 644" fill="#F8F9F5"/><path d="m744 625 2 3-5 4c0-4 0-4 1.5-5.75z" fill="#1B1D1C"/><path d="m950 449 6 4-1 3-7-5z" fill="#D6D7D6"/><path d="m479 440 3 1Zm-2 1 11 1v1l-12 1z" fill="#BABBBE"/><path d="m611 217 .75 1.88c1.46 2.47 2.63 3.07 5.25 4.12v2l-5-1z" fill="#696C69"/><path d="m869 570 1 2 2 1-9 1v-2z" fill="#DBDBDA"/><path d="M977 524h1l1 8-4 3z" fill="#CCCFCD"/><path d="m744 26 7 1 1 5-2.31-1.88C747 28 747 28 744 26" fill="#D6D6D6"/><path d="M501 25v2a120 120 0 0 1-6 4l-1-3c4.75-3 4.75-3 7-3" fill="#E5E5E7"/><path d="m544 671-1 3c-2.06.69-2.06.69-4 1v-2l-2-1c2.46-1.23 4.28-1.07 7-1" fill="#F1F1F0"/><path d="m491 664 5 5-3 1-4-4h2z" fill="#DADDDD"/><path d="m806 570 1 3-10-1c3.77-1.88 5.03-2.22 9-2" fill="#C9CAC9"/><path d="M493 368h3l-1 9c-2.29-3.44-2.18-4.99-2-9" fill="#C9C9CE"/><path d="M512 313h2l-3 9h-1c-.25-5.62-.25-5.62 2-9" fill="#E2E3E4"/><path d="m678 63-7 5 1-5c3-1 3-1 6 0" fill="#D8D8D8"/></svg>