<svg style="background:transparent" version="1.1" xmlns="http://www.w3.org/2000/svg" viewBox="0 0 1248 704"><path d="M1001.64 96.74q2.25.24 4.48.44c5.06.5 9.24 1.87 13.88 3.82l2.01.82q3.04 1.26 6.05 2.55l2.02.85c4.81 2.07 8.72 4.66 12.92 7.78l2.5 1.25c4.68 3.28 8.68 8.31 10.5 13.75.58 6.67-.22 12.34-4 18-5.68 5.61-11.53 9.53-19.75 9.87-8.43-.56-16.29-3.25-24.25-5.87l-4-1q-3.3-1.11-6.59-2.28c-13.14-3.9-29.37-2.75-41.73 3.15q-1.86 1.04-3.68 2.13l-2.02 1.15a67 67 0 0 0-11.34 8.52c-1.64 1.33-1.64 1.33-3.72 2.2-2.66 1.56-2.92 3.26-3.92 6.13q-1.34 2.19-2.75 4.31c-5.38 8.78-8.52 18.81-11.25 28.7l-1 3.36c-1 3.63-1 3.63-1.63 7.57-1.45 6.82-5.1 12.92-8.33 19.05q-2.12 4.1-4.1 8.27c-1.35 2.5-3.13 4.57-4.94 6.74l-.95 1.92C893.08 255.76 888 259.95 883 264a63 63 0 0 0-7 7.62c-2.17 2.58-4.1 3.7-7 5.38q-2.61 1.65-5.19 3.31c-19.87 12.67-19.87 12.67-26.8 13.7 1.48 4.2 3.58 7.92 5.76 11.8 6.07 10.85 9.73 22.32 13.23 34.2l1.12 3.68A82 82 0 0 1 859 354l.5 1.83c.85 3.71.95 7.5 1.21 11.3.3 2.87.3 2.87.82 4.95.72 2.97.48 5.86.4 8.9.05 2.46.26 4.74.56 7.17.77 7.38.65 14.77.64 22.18v7.6c.01 7.8-.15 15.46-.9 23.22-.44 5.46-.38 10.93-.36 16.41v3.46c0 6.23.23 12.34.91 18.53.23 2.58.25 5.11.22 7.7-.05 4.02.35 7.77 1 11.75q.38 3.45.71 6.9a51 51 0 0 0 2.72 10.3 79 79 0 0 1 2.57 9.3c1.17 5.62 3.1 10.94 5 16.35 3.68 11.6 5.63 24.07 7 36.15l.24 1.96c1.01 8.31 1.81 16.81 1.72 25.18.04 2.86.04 2.86.53 5.05.64 3.56.65 7.06.64 10.66v20.87c-.02 5.05-.02 5.05-1.13 7.28l3.31.32c5.36.68 10.48 2.06 15.7 3.5l2.85.74c15.81 4.3 15.81 4.3 20.14 10.44.62 2.87.62 2.87 0 6-6.14 8.84-17.64 10.66-27.62 12.62-5.1.92-10.24 1.67-15.38 2.38l-3.25.46c-57 7.73-116.8 1.52-174.06-1.64-37.88-2.09-75.76-3.34-113.69-2.82l-2.32.03c-27.94.36-55.82 2.05-83.68 3.97l-2.86.2c-27.65 1.9-55.18 4.81-82.72 7.88l-8.04.9c-33.34 3.67-33.34 3.67-49.52 5.94-25.23 3.46-50.1 4.65-75.55 4.7l-7.64.03q-6.02.01-12.05-.03l-4.47-.02c-8 .01-14.2-.3-21.15-4.6-2.54-.17-2.54-.17-4.5.25l-3.5.75a43 43 0 0 1-5-8l-2-3c0-4 0-4 1.42-5.46L230 683c.73-2.26.73-2.26 1.18-4.69l.48-2.45.34-1.86-2.57 1.31c-13.04 6.4-24.35 8.46-38.42 3.81-7.65-2.84-13.35-8.5-18-15.12-1.57-5.76-.35-10.34 1-16q.26-1.76.55-3.56c3.48-8.34 11.03-13.23 18.76-17.35 3.95-1.6 7.3-2.4 11.5-1.47 7.3.86 12.71-2.6 18.36-6.93 15.01-11.92 28.94-26.65 40.82-41.63l2-2.53q3.8-4.84 7.55-9.72c1.45-1.8 1.45-1.8 3.45-3.8l6-7 2.54-3 2.71-3.2 2.57-3.04c2.18-2.77 2.18-2.77 3.3-5.07.88-1.7.88-1.7 3.88-2.7.56-1.88.56-1.88 1-4l2-3-1.76-.77c-11.94-5.26-22.42-10.4-30.87-20.6-1.37-1.63-1.37-1.63-3.5-3.69-6.36-6.58-9.62-15.23-11.87-23.94l-.75-2.63A109 109 0 0 1 249 463q-.45-1.33-.94-2.69c-3.69-11.49-4.42-24.3-5.7-36.25a367 367 0 0 0-3.96-25.96A210 210 0 0 1 236 381q-.14-1.31-.32-2.66c-.74-7.18-.92-14.39-1.06-21.59l-.1-3.12c-.09-6.86.98-11.36 5.48-16.63 4.61-4.19 7.42-5.33 13.53-5.25 4.08.41 7.43 1.98 11.1 3.75l2.33 1.08c5.8 2.72 11.42 5.7 17.04 8.75 11.93 6.44 18.62 5.45 31.36 1.72 12.04-3.47 24.02-5.24 36.47-6.29 8.48-.74 13.44-3.29 18.85-9.57l1.4-1.55a67 67 0 0 0 6.01-7.8 26 26 0 0 1 5.78-6.28c2.73-2.27 5-4.52 7.2-7.3 2.86-3.46 5.53-5.03 9.93-6.26 6.06-.23 9.5 2.44 14.08 6.01 2.2 2.27 2.92 4.01 3.92 7l1.14 2.97 2.55 6.66q1.72 4.39 3.56 8.73A43 43 0 0 1 429 345q.96 3.01 2 6 .76 2.74 1.5 5.5c1.04 3.88 2.16 7.7 3.5 11.5 18-5.14 34.66-16.13 51-25l3.24-1.76 9.07-4.93 2.75-1.49 2.55-1.4 2.21-1.2a153 153 0 0 0 4.65-2.72q3.58-2.11 7.27-4l2.75-1.42 2.94-1.52q11.37-5.88 22.57-12.06c12.33-6.8 24.9-13.17 37.45-19.56l2.5-1.27 4.64-2.36q6.8-3.48 13.46-7.22 3.55-1.99 7.2-3.84l2.4-1.24c2.35-1 2.35-1 4.83-1.46 3-.65 4.91-1.97 7.52-3.55q3.82-1.54 7.68-2.94l4.31-1.58 2.1-.76q3.63-1.39 7.22-2.9c5.11-2.08 10.35-3.45 15.7-4.82 3.74-1.04 7.43-2.15 11.11-3.44 8.67-2.9 17.65-4.58 26.63-6.19l2.07-.37c10.03-1.74 19.84-2.19 30-2.19q3.45 0 6.91-.04h4.46l2.06-.02c4.57.02 8.4.88 12.75 2.25q2.03.4 4.1.71l2.15.33 2.25.33c5.96.94 11.75 2.11 17.56 3.75 10.53 2.9 15.92 3.5 25.94-1.12q2.58-1.01 5.18-2c5-2 9.41-4.47 13.95-7.36l2.18-1.39 2-1.3c1.7-.95 1.7-.95 3.7-.95l.61-1.75c1.38-2.25 1.38-2.25 4.13-4 3.52-2.44 5.36-4.85 7.8-8.3 1.45-1.95 1.45-1.95 4.2-4.64 2.41-2.48 3.08-4.09 4.25-7.3q1.2-2.15 2.43-4.26A63 63 0 0 0 868 194l1.06-3.38c.8-3.05 1.36-6 1.87-9.12.8-4.54 2.1-8.3 4.07-12.5q.98-2.46 1.93-4.94a122 122 0 0 1 5.06-11.1 116 116 0 0 0 2.04-4.2l1.03-2.2.91-2C887 143 887 143 890 142c1-1.75 1-1.75 2-4 4.42-8.18 10.61-13.56 18-19l2.5-1.97c7.34-5.67 15.03-9.4 23.5-13.03l2.65-1.19c20.68-8.84 41.1-8.5 63-6.07M231 686v4l1-4z" fill="#111311"/><path d="M1001.64 96.74q2.25.24 4.48.44c5.06.5 9.24 1.87 13.88 3.82l2.01.82q3.04 1.26 6.05 2.55l2.02.85c4.81 2.07 8.72 4.66 12.92 7.78l2.5 1.25c4.68 3.28 8.68 8.31 10.5 13.75.58 6.67-.22 12.34-4 18-5.68 5.61-11.53 9.53-19.75 9.87-8.43-.56-16.29-3.25-24.25-5.87l-4-1q-3.3-1.11-6.59-2.28c-13.14-3.9-29.37-2.75-41.73 3.15q-1.86 1.04-3.68 2.13l-2.02 1.15a67 67 0 0 0-11.34 8.52c-1.64 1.33-1.64 1.33-3.72 2.2-2.66 1.56-2.92 3.26-3.92 6.13q-1.34 2.19-2.75 4.31c-5.38 8.78-8.52 18.81-11.25 28.7l-1 3.36c-1 3.63-1 3.63-1.63 7.57-1.45 6.82-5.1 12.92-8.33 19.05q-2.12 4.1-4.1 8.27c-1.35 2.5-3.13 4.57-4.94 6.74l-.95 1.92C893.08 255.76 888 259.95 883 264a63 63 0 0 0-7 7.62c-2.17 2.58-4.1 3.7-7 5.38q-2.61 1.65-5.19 3.31c-19.87 12.67-19.87 12.67-26.8 13.7 1.48 4.2 3.58 7.92 5.76 11.8 6.07 10.85 9.73 22.32 13.23 34.2l1.12 3.68A82 82 0 0 1 859 354l.5 1.83c.85 3.71.95 7.5 1.21 11.3.3 2.87.3 2.87.82 4.95.72 2.97.48 5.86.4 8.9.05 2.46.26 4.74.56 7.17.77 7.38.65 14.77.64 22.18v7.6c.01 7.8-.15 15.46-.9 23.22-.44 5.46-.38 10.93-.36 16.41v3.46c0 6.23.23 12.34.91 18.53.23 2.58.25 5.11.22 7.7-.05 4.02.35 7.77 1 11.75q.38 3.45.71 6.9a51 51 0 0 0 2.72 10.3 79 79 0 0 1 2.57 9.3c1.17 5.62 3.1 10.94 5 16.35 3.68 11.6 5.63 24.07 7 36.15l.24 1.96c1.01 8.31 1.81 16.81 1.72 25.18.04 2.86.04 2.86.53 5.05.64 3.56.65 7.06.64 10.66v20.87c-.02 5.05-.02 5.05-1.13 7.28l3.31.32c5.36.68 10.48 2.06 15.7 3.5l2.85.74c15.81 4.3 15.81 4.3 20.14 10.44.62 2.87.62 2.87 0 6-6.14 8.84-17.64 10.66-27.62 12.62-5.1.92-10.24 1.67-15.38 2.38l-3.25.46c-57 7.73-116.8 1.52-174.06-1.64-37.88-2.09-75.76-3.34-113.69-2.82l-2.32.03c-27.94.36-55.82 2.05-83.68 3.97l-2.86.2c-28.55 1.96-56.97 5.01-85.39 8.17l-2.67.3a3169 3169 0 0 0-53.27 6.25 523 523 0 0 1-81.8 4.08c2.9-1.94 5.27-2.86 8.55-4 14.67-5.58 27.88-14.42 41.14-22.7a840 840 0 0 1 15.48-9.43q10.45-6.24 20.83-12.59 6.22-3.81 12.45-7.59a1265 1265 0 0 0 56.82-36.23c25.47-17.22 25.47-17.22 29.72-21.46q2.2-.45 4.4-.8c38.17-6.6 73.84-22.64 108.6-39.2l3.65-1.73c21.01-9.98 41.78-20.4 62.07-31.8q7.46-4.17 15.1-8.03l1.97-1.02c3.38-1.69 6.46-2.9 10.21-3.42 2.16 4.18 4.18 8.34 5.93 12.71 6.67 16.58 15.24 31.8 27.07 45.3l2.13 2.5c6.77 7.73 14.26 14.4 22.24 20.86 22.73 18.5 22.73 18.5 25.63 34.63.24 3.1.2 5.9 0 9-1.63 1.62-3.7 1.4-5.94 1.7-7.03 1.25-13.39 3.7-17.76 9.6-3.23 5.67-5.3 11.06-4.3 17.7 1.84 4.98 4.43 8.1 9.25 10.37 8.1 3.26 16.27 4 24.93 3.94h3.06c9.84-.16 21.07-.4 28.76-7.3l1.5-1.33c12.83-12.8 12.75-37.32 12.81-54.18a146 146 0 0 0-2.3-25.5q-.34-2.44-.64-4.88L803 576c17.25 10.43 26.35 20.93 31.66 40.44.5 3.8.44 7.55.4 11.37l-.02 2.4q0 2.88-.04 5.8-1.03.11-2.09.25c-7.95 1.2-14.38 3.3-20.23 9-3.83 6.24-7.06 12.25-5.68 19.74 1.65 6.16 4.1 9.8 9.61 13.03 7.88 3.2 15.34 3.3 23.76 3.28l3.54.05c10.52.01 19.67-1.75 28.1-8.36 8.05-8.07 9.13-17.79 9.2-28.73l.01-2.57.03-8.33v-2.89c-.04-35.73-3.96-69.6-14.47-103.88-5.1-16.85-7.9-33.2-7.96-50.83l-.02-3.22-.03-6.88-.07-10.93q-.1-15.52-.18-31.06-.04-9.53-.12-19.06l-.04-7.2c-.13-35.34-4.62-69.94-24.23-100.3-.18-.36-.18-.36-1.13-2.12l1-3c2.7-1.33 5.34-2.5 8.12-3.63 30.24-12.92 52-35.02 64.88-65.37a248 248 0 0 0 7.93-25.13c5.68-20.18 15.78-37.13 33.78-48.59 10.07-5.63 20.12-7.66 31.54-7.59l3.1.01c7.3.11 13.74.88 20.65 3.3l3.87 1.28q3.9 1.28 7.78 2.63c8.26 2.68 19.1 4.44 27.3.77 4.67-3.45 7.61-6.95 9.05-12.68.61-6.2.83-10.84-3-16-21.92-20-52.93-23.17-81.34-22.19-6.47.46-12.5 2.27-18.66 4.2q-1.31.3-2.64.64c-23.5 5.95-44.93 22.8-57.36 43.35-7.18 12.5-11.95 25.62-15.5 39.56-4.43 17.31-11.06 30.48-23.5 43.44l-2 2.15c-10.79 11.32-24.97 18.62-39.32 24.47l-1.88.83c-5.65 2.17-10.08 1.05-15.8-.45l-5.09-1.19-2.59-.6A655 655 0 0 0 769 252l-2.43-.53c-24.34-5-50.45-3.87-74.57 1.52l-2.88.62c-26.1 5.67-50.97 15.11-75.12 26.38l-2.95 1.36a1198 1198 0 0 0-73.48 37.6c-6.15 3.37-12.36 6.65-18.56 9.94a1036 1036 0 0 0-28.89 15.8c-32.3 18.36-32.3 18.36-45.87 24.11l-2.37 1.01c-3.55 1.44-6 2.18-9.88 2.18l-.52-2.76A306 306 0 0 0 425 342l-.66-2.29c-8.45-29.23-8.45-29.23-16.34-33.7a14.8 14.8 0 0 0-11.2 1.14c-8.2 6.03-14.76 14.31-21.37 21.97l-1.7 1.87C372 333 372 333 370.23 335.6c-4.06 5.22-7.16 7.46-13.63 8.52-4.29.53-8.6.9-12.9 1.24-6.48.54-12.69 1.7-19.02 3.14l-2.9.65a367 367 0 0 0-17.28 4.37c-8.25 1.58-13.46-.99-20.69-4.65l-3.1-1.52-8.7-4.35q-1.08-.53-2.15-1.08c-2.5-1.26-4.99-2.5-7.46-3.8-5.94-2.77-11.04-4.17-17.4-2.12-2.73 2.21-4.44 4.86-6 8-.32 4.93-.3 9.87-.32 14.81v2.22a218 218 0 0 0 5.9 51.65 95 95 0 0 1 2.3 16.63c2.02 26.2 7.11 63.98 27.88 82.1 9.5 7.43 19.54 12.64 31.24 15.6-1.6 5.22-4.9 9.02-8.25 13.24l-1.89 2.4c-13.2 16.7-26.8 33.11-41.32 48.7q-2.58 2.76-5.15 5.57c-29.56 32.04-29.56 32.04-44.03 32.84q-3.28.07-6.57.1c-7 .26-10.78 2.83-15.54 7.76-4.99 6.15-8.08 13.21-7.63 21.22 1 5.68 3.5 9.76 7.88 13.47 8.2 5.58 18.81 6.82 28.5 5.7 7.84-1.87 14.91-5.24 22-9q2-1.02 4-2l-.66 1.54c-2.85 7.44-4.1 15.32-.9 22.82 6.23 6.4 12.94 9.58 21.56 11.63v1c-4.8.34-7.8.36-12-2.06-4.36-2.47-7.19-1.97-12-.94a43 43 0 0 1-5-8l-2-3c0-4 0-4 1.42-5.46L230 683c.73-2.26.73-2.26 1.18-4.69l.48-2.45.34-1.86-2.57 1.31c-13.04 6.4-24.35 8.46-38.42 3.81-7.65-2.84-13.35-8.5-18-15.12-1.57-5.76-.35-10.34 1-16q.26-1.76.55-3.56c3.48-8.34 11.03-13.23 18.76-17.35 3.95-1.6 7.3-2.4 11.5-1.47 7.3.86 12.71-2.6 18.36-6.93 15.01-11.92 28.94-26.65 40.82-41.63l2-2.53q3.8-4.84 7.55-9.72c1.45-1.8 1.45-1.8 3.45-3.8l6-7 2.54-3 2.71-3.2 2.57-3.04c2.18-2.77 2.18-2.77 3.3-5.07.88-1.7.88-1.7 3.88-2.7.56-1.88.56-1.88 1-4l2-3-1.76-.77c-11.94-5.26-22.42-10.4-30.87-20.6-1.37-1.63-1.37-1.63-3.5-3.69-6.36-6.58-9.62-15.23-11.87-23.94l-.75-2.63A109 109 0 0 1 249 463q-.45-1.33-.94-2.69c-3.69-11.49-4.42-24.3-5.7-36.25a367 367 0 0 0-3.96-25.96A210 210 0 0 1 236 381q-.14-1.31-.32-2.66c-.74-7.18-.92-14.39-1.06-21.59l-.1-3.12c-.09-6.86.98-11.36 5.48-16.63 4.61-4.19 7.42-5.33 13.53-5.25 4.08.41 7.43 1.98 11.1 3.75l2.33 1.08c5.8 2.72 11.42 5.7 17.04 8.75 11.93 6.44 18.62 5.45 31.36 1.72 12.04-3.47 24.02-5.24 36.47-6.29 8.48-.74 13.44-3.29 18.85-9.57l1.4-1.55a67 67 0 0 0 6.01-7.8 26 26 0 0 1 5.78-6.28c2.73-2.27 5-4.52 7.2-7.3 2.86-3.46 5.53-5.03 9.93-6.26 6.06-.23 9.5 2.44 14.08 6.01 2.2 2.27 2.92 4.01 3.92 7l1.14 2.97 2.55 6.66q1.72 4.39 3.56 8.73A43 43 0 0 1 429 345q.96 3.01 2 6 .76 2.74 1.5 5.5c1.04 3.88 2.16 7.7 3.5 11.5 18-5.14 34.66-16.13 51-25l3.24-1.76 9.07-4.93 2.75-1.49 2.55-1.4 2.21-1.2a153 153 0 0 0 4.65-2.72q3.58-2.11 7.27-4l2.75-1.42 2.94-1.52q11.37-5.88 22.57-12.06c12.33-6.8 24.9-13.17 37.45-19.56l2.5-1.27 4.64-2.36q6.8-3.48 13.46-7.22 3.55-1.99 7.2-3.84l2.4-1.24c2.35-1 2.35-1 4.83-1.46 3-.65 4.91-1.97 7.52-3.55q3.82-1.54 7.68-2.94l4.31-1.58 2.1-.76q3.63-1.39 7.22-2.9c5.11-2.08 10.35-3.45 15.7-4.82 3.74-1.04 7.43-2.15 11.11-3.44 8.67-2.9 17.65-4.58 26.63-6.19l2.07-.37c10.03-1.74 19.84-2.19 30-2.19q3.45 0 6.91-.04h4.46l2.06-.02c4.57.02 8.4.88 12.75 2.25q2.03.4 4.1.71l2.15.33 2.25.33c5.96.94 11.75 2.11 17.56 3.75 10.53 2.9 15.92 3.5 25.94-1.12q2.58-1.01 5.18-2c5-2 9.41-4.47 13.95-7.36l2.18-1.39 2-1.3c1.7-.95 1.7-.95 3.7-.95l.61-1.75c1.38-2.25 1.38-2.25 4.13-4 3.52-2.44 5.36-4.85 7.8-8.3 1.45-1.95 1.45-1.95 4.2-4.64 2.41-2.48 3.08-4.09 4.25-7.3q1.2-2.15 2.43-4.26A63 63 0 0 0 868 194l1.06-3.38c.8-3.05 1.36-6 1.87-9.12.8-4.54 2.1-8.3 4.07-12.5q.98-2.46 1.93-4.94a122 122 0 0 1 5.06-11.1 116 116 0 0 0 2.04-4.2l1.03-2.2.91-2C887 143 887 143 890 142c1-1.75 1-1.75 2-4 4.42-8.18 10.61-13.56 18-19l2.5-1.97c7.34-5.67 15.03-9.4 23.5-13.03l2.65-1.19c20.68-8.84 41.1-8.5 63-6.07M231 686v4l1-4z" fill="#BABCBA"/><path d="M669.98 504.12c2.02.88 2.02.88 3.3 3.06l1.1 2.9c.2.54.2.54 1.28 3.24l1.34 3.49c6.72 16.61 14.97 31.84 27 45.19l2.2 2.56c6.74 7.73 14.22 14.38 22.18 20.82C751.1 603.87 751.1 603.87 754 620c.25 3.09.2 5.89 0 9-1.62 1.62-3.7 1.4-5.93 1.69-5.48.9-9.07 2.87-13.48 6.17-3.01 1.33-4.91 1.03-8.1.49-5.46-.77-11.04-.7-16.55-.85l-7.41-.22-3.3-.09q-3.63-.14-7.27-.42c-11.25-.86-22.44-.93-33.71-.94l-6.34-.01-13.3-.01-13.31-.02c-29.42-.09-58.72.49-88.1 2.09l-9.26.49a1419 1419 0 0 0-18.75 1.12c-33.56 2.2-67.16 4.88-100.35 10.45a382 382 0 0 1-23.11 3.24l-2.42.25c-3.78.38-7.5.67-11.31.57 3.65-4.2 8.13-6.62 12.88-9.37A914 914 0 0 0 433 613l2.29-1.54c25.47-17.21 25.47-17.21 29.7-21.46a83 83 0 0 1 4.42-.8c38.16-6.61 73.84-22.64 108.59-39.2l3.65-1.73c21.02-9.98 41.8-20.38 62.07-31.79 7.29-4.1 14.77-7.81 22.28-11.48 2-1 2-1 3.98-.88" fill="#ECEEEC"/><path d="M1001.64 96.74q2.25.24 4.48.44c5.06.5 9.24 1.87 13.88 3.82l2.01.82q3.04 1.26 6.05 2.55l2.02.85c4.81 2.07 8.72 4.66 12.92 7.78l2.5 1.25c4.68 3.28 8.68 8.31 10.5 13.75.58 6.67-.22 12.34-4 18-5.68 5.61-11.53 9.53-19.75 9.87-8.43-.56-16.29-3.25-24.25-5.87l-4-1q-3.3-1.11-6.59-2.28c-13.14-3.9-29.37-2.75-41.73 3.15q-1.86 1.04-3.68 2.13l-2.02 1.15a67 67 0 0 0-11.34 8.52c-1.64 1.33-1.64 1.33-3.72 2.2-2.66 1.56-2.92 3.26-3.92 6.13q-1.34 2.19-2.75 4.31c-5.38 8.78-8.52 18.81-11.25 28.7l-1 3.36c-1 3.63-1 3.63-1.63 7.57-1.45 6.82-5.1 12.92-8.33 19.05q-2.12 4.1-4.1 8.27c-1.35 2.5-3.13 4.57-4.94 6.74l-.95 1.92C893.08 255.76 888 259.95 883 264a63 63 0 0 0-7 7.62c-2.17 2.58-4.1 3.7-7 5.38q-2.61 1.65-5.19 3.31c-19.87 12.67-19.87 12.67-26.8 13.7 1.48 4.2 3.58 7.92 5.76 11.8 6.07 10.85 9.73 22.32 13.23 34.2l1.12 3.68A82 82 0 0 1 859 354l.5 1.83c.85 3.71.95 7.5 1.21 11.3.3 2.87.3 2.87.82 4.95.72 2.97.48 5.86.4 8.9.05 2.46.26 4.74.56 7.17.77 7.38.65 14.77.64 22.18v7.6c.01 7.8-.15 15.46-.9 23.22-.44 5.46-.38 10.93-.36 16.41v3.46c0 6.23.23 12.34.91 18.53.23 2.58.25 5.11.22 7.7-.05 4.02.35 7.77 1 11.75q.38 3.45.71 6.9a51 51 0 0 0 2.72 10.3 79 79 0 0 1 2.57 9.3c1.17 5.62 3.1 10.94 5 16.35 3.68 11.6 5.63 24.07 7 36.15l.24 1.96c1.01 8.31 1.81 16.81 1.72 25.18.04 2.86.04 2.86.53 5.05.64 3.56.65 7.06.64 10.66v20.87c-.02 5.05-.02 5.05-1.13 7.28l3.31.32c5.36.68 10.48 2.06 15.7 3.5l2.85.74c15.81 4.3 15.81 4.3 20.14 10.44.62 2.87.62 2.87 0 6-6.14 8.84-17.64 10.66-27.62 12.62-5.1.92-10.24 1.67-15.38 2.38l-3.25.46c-57 7.73-116.8 1.52-174.06-1.64-37.88-2.09-75.76-3.34-113.69-2.82l-2.32.03c-27.94.36-55.82 2.05-83.68 3.97l-2.86.2c-47.62 3.28-95.07 9.11-142.46 14.72l-3.69.43q-8.24.97-16.48 1.97c-9.56 1.15-18.87 2.08-28.5 1.68v-1l3.64-.43 13.58-1.6 5.84-.68c9.6-1.13 19.18-2.28 28.73-3.8 6.77-1.03 13.58-1.73 20.38-2.49l4.43-.5 11.18-1.26 6.4-.7c40.88-4.59 81.76-8.72 122.83-11.35l8.37-.55c24.74-1.62 49.45-1.82 74.23-1.83h2.33c31.02-.02 31.02-.02 44.6.95 5.7.4 11.42.48 17.13.61 13.71.38 27.38 1.08 41.07 1.87l10.6.6 3.53.2 7.05.4 15.83.9c131.4 7.54 131.4 7.54 166.24-10.34 2.1-2.29 2.9-3.5 3.5-6.56-.5-2.44-.5-2.44-2.75-3.98-11.62-6.17-25.8-9.4-38.75-11.46l-.05-3.19c-.62-41.62-2.89-81.17-15.17-121.2-5.1-16.86-7.9-33.22-7.96-50.84l-.02-3.22-.03-6.88-.07-10.93q-.1-15.52-.18-31.06-.04-9.53-.12-19.06l-.04-7.2c-.13-35.34-4.62-69.94-24.23-100.3-.18-.36-.18-.36-1.13-2.12l1-3c2.7-1.33 5.34-2.5 8.12-3.63 30.24-12.92 52-35.02 64.88-65.37a248 248 0 0 0 7.93-25.13c5.68-20.18 15.78-37.13 33.78-48.59 10.07-5.63 20.12-7.66 31.54-7.59l3.1.01c7.3.11 13.74.88 20.65 3.3l3.87 1.28q3.9 1.28 7.78 2.63c8.26 2.68 19.1 4.44 27.3.77 4.67-3.45 7.61-6.95 9.05-12.68.61-6.2.83-10.84-3-16-21.92-20-52.93-23.17-81.34-22.19-6.47.46-12.5 2.27-18.66 4.2q-1.31.3-2.64.64c-23.5 5.95-44.93 22.8-57.36 43.35-7.18 12.5-11.95 25.62-15.5 39.56-4.43 17.31-11.06 30.48-23.5 43.44l-2 2.15c-10.79 11.32-24.97 18.62-39.32 24.47l-1.88.83c-5.65 2.17-10.08 1.05-15.8-.45l-5.09-1.19-2.59-.6A655 655 0 0 0 769 252l-2.43-.53c-24.34-5-50.45-3.87-74.57 1.52l-2.88.62c-26.1 5.67-50.97 15.11-75.12 26.38l-2.95 1.36a1198 1198 0 0 0-73.48 37.6c-6.15 3.37-12.36 6.65-18.56 9.94a1036 1036 0 0 0-28.89 15.8c-32.3 18.36-32.3 18.36-45.87 24.11l-2.37 1.01c-3.55 1.44-6 2.18-9.88 2.18l-.52-2.76A306 306 0 0 0 425 342l-.66-2.29c-8.45-29.23-8.45-29.23-16.34-33.7a14.8 14.8 0 0 0-11.2 1.14c-8.2 6.03-14.76 14.31-21.37 21.97l-1.7 1.87C372 333 372 333 370.23 335.6c-4.06 5.22-7.16 7.46-13.63 8.52-4.29.53-8.6.9-12.9 1.24-6.48.54-12.69 1.7-19.02 3.14l-2.9.65a367 367 0 0 0-17.28 4.37c-8.25 1.58-13.46-.99-20.69-4.65l-3.1-1.52-8.7-4.35q-1.08-.53-2.15-1.08c-2.5-1.26-4.99-2.5-7.46-3.8-5.94-2.77-11.04-4.17-17.4-2.12-2.73 2.21-4.44 4.86-6 8-.32 4.93-.3 9.87-.32 14.81v2.22a218 218 0 0 0 5.9 51.65 95 95 0 0 1 2.3 16.63c2.02 26.2 7.11 63.98 27.88 82.1 9.5 7.43 19.54 12.64 31.24 15.6-1.6 5.22-4.9 9.02-8.25 13.24l-1.89 2.4c-13.2 16.7-26.8 33.11-41.32 48.7q-2.58 2.76-5.15 5.57c-29.56 32.04-29.56 32.04-44.03 32.84q-3.28.07-6.57.1c-7 .26-10.78 2.83-15.54 7.76-4.99 6.15-8.08 13.21-7.63 21.22 1 5.68 3.5 9.76 7.88 13.47 8.2 5.58 18.81 6.82 28.5 5.7 7.84-1.87 14.91-5.24 22-9q2-1.02 4-2l-.66 1.54c-2.85 7.44-4.1 15.32-.9 22.82 6.23 6.4 12.94 9.58 21.56 11.63v1c-4.8.34-7.8.36-12-2.06-4.36-2.47-7.19-1.97-12-.94a43 43 0 0 1-5-8l-2-3c0-4 0-4 1.42-5.46L230 683c.73-2.26.73-2.26 1.18-4.69l.48-2.45.34-1.86-2.57 1.31c-13.04 6.4-24.35 8.46-38.42 3.81-7.65-2.84-13.35-8.5-18-15.12-1.57-5.76-.35-10.34 1-16q.26-1.76.55-3.56c3.48-8.34 11.03-13.23 18.76-17.35 3.95-1.6 7.3-2.4 11.5-1.47 7.3.86 12.71-2.6 18.36-6.93 15.01-11.92 28.94-26.65 40.82-41.63l2-2.53q3.8-4.84 7.55-9.72c1.45-1.8 1.45-1.8 3.45-3.8l6-7 2.54-3 2.71-3.2 2.57-3.04c2.18-2.77 2.18-2.77 3.3-5.07.88-1.7.88-1.7 3.88-2.7.56-1.88.56-1.88 1-4l2-3-1.76-.77c-11.94-5.26-22.42-10.4-30.87-20.6-1.37-1.63-1.37-1.63-3.5-3.69-6.36-6.58-9.62-15.23-11.87-23.94l-.75-2.63A109 109 0 0 1 249 463q-.45-1.33-.94-2.69c-3.69-11.49-4.42-24.3-5.7-36.25a367 367 0 0 0-3.96-25.96A210 210 0 0 1 236 381q-.14-1.31-.32-2.66c-.74-7.18-.92-14.39-1.06-21.59l-.1-3.12c-.09-6.86.98-11.36 5.48-16.63 4.61-4.19 7.42-5.33 13.53-5.25 4.08.41 7.43 1.98 11.1 3.75l2.33 1.08c5.8 2.72 11.42 5.7 17.04 8.75 11.93 6.44 18.62 5.45 31.36 1.72 12.04-3.47 24.02-5.24 36.47-6.29 8.48-.74 13.44-3.29 18.85-9.57l1.4-1.55a67 67 0 0 0 6.01-7.8 26 26 0 0 1 5.78-6.28c2.73-2.27 5-4.52 7.2-7.3 2.86-3.46 5.53-5.03 9.93-6.26 6.06-.23 9.5 2.44 14.08 6.01 2.2 2.27 2.92 4.01 3.92 7l1.14 2.97 2.55 6.66q1.72 4.39 3.56 8.73A43 43 0 0 1 429 345q.96 3.01 2 6 .76 2.74 1.5 5.5c1.04 3.88 2.16 7.7 3.5 11.5 18-5.14 34.66-16.13 51-25l3.24-1.76 9.07-4.93 2.75-1.49 2.55-1.4 2.21-1.2a153 153 0 0 0 4.65-2.72q3.58-2.11 7.27-4l2.75-1.42 2.94-1.52q11.37-5.88 22.57-12.06c12.33-6.8 24.9-13.17 37.45-19.56l2.5-1.27 4.64-2.36q6.8-3.48 13.46-7.22 3.55-1.99 7.2-3.84l2.4-1.24c2.35-1 2.35-1 4.83-1.46 3-.65 4.91-1.97 7.52-3.55q3.82-1.54 7.68-2.94l4.31-1.58 2.1-.76q3.63-1.39 7.22-2.9c5.11-2.08 10.35-3.45 15.7-4.82 3.74-1.04 7.43-2.15 11.11-3.44 8.67-2.9 17.65-4.58 26.63-6.19l2.07-.37c10.03-1.74 19.84-2.19 30-2.19q3.45 0 6.91-.04h4.46l2.06-.02c4.57.02 8.4.88 12.75 2.25q2.03.4 4.1.71l2.15.33 2.25.33c5.96.94 11.75 2.11 17.56 3.75 10.53 2.9 15.92 3.5 25.94-1.12q2.58-1.01 5.18-2c5-2 9.41-4.47 13.95-7.36l2.18-1.39 2-1.3c1.7-.95 1.7-.95 3.7-.95l.61-1.75c1.38-2.25 1.38-2.25 4.13-4 3.52-2.44 5.36-4.85 7.8-8.3 1.45-1.95 1.45-1.95 4.2-4.64 2.41-2.48 3.08-4.09 4.25-7.3q1.2-2.15 2.43-4.26A63 63 0 0 0 868 194l1.06-3.38c.8-3.05 1.36-6 1.87-9.12.8-4.54 2.1-8.3 4.07-12.5q.98-2.46 1.93-4.94a122 122 0 0 1 5.06-11.1 116 116 0 0 0 2.04-4.2l1.03-2.2.91-2C887 143 887 143 890 142c1-1.75 1-1.75 2-4 4.42-8.18 10.61-13.56 18-19l2.5-1.97c7.34-5.67 15.03-9.4 23.5-13.03l2.65-1.19c20.68-8.84 41.1-8.5 63-6.07M231 686v4l1-4z" fill="#E1E1E3"/><path d="M408 305c9.12 4.77 12.18 17.9 15.11 27.08a626 626 0 0 1 5.27 18.61l.54 2.01q.78 2.87 1.54 5.75l.9 3.38c.64 3.15.76 5.97.64 9.17l-3-1v9a139 139 0 0 1-5-5v-2l-5-2v-2h-3l-3-4c-3.84-2.6-7.93-4.32-12.25-5.94l-2.08-.78c-6.65-2.42-13.41-4.03-20.32-5.52C375 351 375 351 373 350c-.12-5.75-.12-5.75 1-8h2l2-7h2l.75-2.06A85 85 0 0 1 386 323h2l2-6-2.38 2c-2.62 2-2.62 2-4.62 2 4.23-9.68 14.2-17.9 25-16" fill="#232521"/><path d="M258.9 339.66c5.2 2.47 9.98 5.73 14.78 8.86A32 32 0 0 0 278 351v2l1.63.69c3.8 2.1 7.3 4.53 9.56 8.3-.31 3.36-2.78 4.94-5.2 7q-.97.93-2 1.85c-5.54 5.02-5.54 5.02-9 6.16-.67 2.07-.67 2.07-1 4h-2l-.78 1.72a53 53 0 0 1-4.52 6.85c-3.68 5.18-6.28 10.56-8.7 16.43l-1.08 2.59c-1.16 3.1-1.52 6.14-1.91 9.4-.5.18-.5.18-3 1l-2.87-12.3-.82-3.48A372 372 0 0 1 242 382l-3 4c-1.25-8.67-1.11-17.32-1.06-26.06v-4.65q.04-5.63.06-11.3l3 1q.6-.63 1.19-1.3c4.97-4.63 10.17-6.3 16.72-4.03" fill="#282A26"/><path d="M861 471h1c.58 5.43 1.07 10.79 1 16.25-.04 4.02.35 7.78 1 11.75q.38 3.44.72 6.89a51 51 0 0 0 2.72 10.3 79 79 0 0 1 2.56 9.31c1.18 5.62 3.1 10.94 5 16.35 3.68 11.59 5.64 24.07 7 36.15l.25 1.96c1 8.31 1.81 16.81 1.71 25.18.04 2.86.04 2.86.53 5.05.65 3.56.65 7.06.64 10.67l.01 2.25-.01 4.68q-.01 3.6.01 7.19l-.01 4.56.01 2.18c-.03 5.05-.03 5.05-1.14 7.28l3.31.32c5.36.68 10.49 2.06 15.69 3.49l2.87.75c15.8 4.31 15.8 4.31 20.13 10.44.62 2.88.62 2.88 0 6-6.14 8.84-17.63 10.67-27.62 12.62-5.11.92-10.24 1.67-15.38 2.38l-3.25.46c-57.01 7.73-116.81 1.52-174.06-1.64-37.88-2.09-75.75-3.34-113.69-2.82l-2.32.03c-27.94.36-55.81 2.05-83.68 3.97l-2.86.2c-47.62 3.28-95.06 9.12-142.45 14.72l-3.69.43q-8.25.97-16.49 1.97c-9.56 1.15-18.86 2.08-28.51 1.68v-1l3.65-.43 13.58-1.6 5.84-.68a692 692 0 0 0 28.73-3.81c6.77-1.01 13.58-1.72 20.39-2.48l4.42-.5 11.18-1.25 6.39-.72c40.89-4.58 81.78-8.71 122.84-11.34l8.38-.55c24.73-1.62 49.45-1.82 74.22-1.83h2.34c31.01-.02 31.01-.02 44.59.95 5.71.4 11.42.48 17.14.62 13.7.37 27.37 1.08 41.06 1.86l10.59.6 3.54.2 7.05.39 15.84.9C885.16 690.89 885.16 690.89 920 673c2.11-2.29 2.9-3.51 3.5-6.56-.5-2.44-.5-2.44-2.74-3.98-11.63-6.17-25.81-9.4-38.76-11.46l-.04-3.19c-.62-41.62-2.9-81.17-15.17-121.21q-1.64-5.43-3.1-10.91l-.87-3.18a114 114 0 0 1-3.01-28.13v-3.59c.05-8.65.05-8.65 1.19-9.79" fill="#E9EAEA"/><path d="M803 576c17.25 10.43 26.35 20.94 31.66 40.44.5 3.79.44 7.55.4 11.37l-.01 2.39-.05 5.8-2.09.26c-6.11.91-10.78 2.36-16.03 5.62-4.22 2.52-7.19 1.92-11.88 1.12q-.04-2.43-.06-4.88l-.04-2.74c.08-2.72.29-5.32.59-8.03.6-5.7.7-11.37.7-17.1v-3.19c-.06-7.87-.78-15.31-2.19-23.06q-.33-2.43-.62-4.88z" fill="#ECEEEF"/><path d="M371 557c2.06.44 2.06.44 4 1 0 3 0 3-2.56 5.89l-3.44 3.36-1.81 1.78q-5.37 5.25-11.1 10.1c-3.36 3.01-6.49 6.25-9.66 9.46a170 170 0 0 1-10.44 9.64A149 149 0 0 0 329 605a177 177 0 0 1-10.88 10.16 296 296 0 0 0-7.43 6.72 297 297 0 0 1-13.8 11.76 408 408 0 0 0-7.78 6.55q-3.29 2.8-6.62 5.55a116 116 0 0 0-3.87 3.48c-7.76 6.59-16.92 5.85-26.62 5.78 3.58-3.72 7.35-6.98 11.44-10.12l3.73-2.91 1.92-1.49q4.59-3.56 9.16-7.17l1.77-1.39Q287.54 626 295 620l2.45-1.95q8.5-6.78 16.88-13.68l3.61-2.96Q332.08 589.83 346 578q10.87-9.29 21.95-18.32C370 558 370 558 371 557" fill="#E8E8EB"/><path d="M298 464q4.72-.12 9.44-.19l2.66-.07c5.91-.07 11.62.36 16.9 3.26 1.56 3.19 1.56 3.19 2 6l2-4a41 41 0 0 1 4 5c-1 3-1 3-3.11 4.35l-2.64 1.27-2.61 1.29c-9.39 3.87-21.64 3.14-31.19.14-5.23-2.25-9.3-5.32-12.45-10.05v-4c8.43-2.29 8.43-2.29 13-2l1 5z" fill="#131715"/><path d="m412 447 2 3c-20.13 12-20.13 12-26 12v2h-2v2q-3.06 1.27-6.12 2.5l-3.45 1.41A24 24 0 0 1 367 471c-.31-2.7-.31-2.7 0-6 2.19-2.55 2.19-2.55 5-4.88l2.81-2.36L377 456l3 1 1-3c9.1-4.5 20.7-8.78 31-7" fill="#161714"/><path d="m1020 101 2.02.82q3.03 1.25 6.04 2.56l2.03.84c4.8 2.07 8.72 4.66 12.91 7.78l2.5 1.25c4.69 3.28 8.69 8.31 10.5 13.75.59 6.68-.22 12.34-4 18-6.14 6.07-11.72 9.55-20.56 9.62A47 47 0 0 1 1021 154v-3l3.84.25c15.31.69 15.31.69 20.66-3.31 5.79-5.77 6.83-11.38 6.9-19.29-.87-5.77-4.27-8.7-8.78-12.09-18.15-13.38-39.42-16.56-61.31-17.68l-4.76-.27L966 98v-1c38.59-2.4 38.59-2.4 54 4" fill="#D6D8D8"/><path d="M362.06 481.25c.94 1.75.94 1.75.81 4.25-.87 2.5-.87 2.5-2.37 3.87-2.32 2.52-2.13 5.32-2.5 8.63-1 1-1 1-4.56 1.06L350 499l-1.19-2.75c-1.89-3.39-3.67-5.04-6.8-7.25.28-3.49.74-4.76 3.3-7.25 5.16-3.36 11.32-3.79 16.75-.5" fill="#646465"/><path d="M237 667c0 3 0 3-1 5.44-1.77 6.32-2.16 12.83.44 18.94 6.23 6.38 12.94 9.57 21.56 11.62v1c-4.79.34-7.8.36-12-2.06-4.36-2.47-7.18-1.97-12-.94a42 42 0 0 1-5-8l-2-3c0-4 0-4 1.43-5.46L230 683c.73-2.26.73-2.26 1.19-4.69l.48-2.45.33-1.86h-6c3.46-2.77 7.14-4.85 11-7m-6 19v4l1-4z" fill="#D5D6D7"/><path d="M182 637c-.98 2.48-1.97 4.93-3.07 7.36-2.83 6.42-4.32 11.89-2.31 18.77 2.37 5.56 6.06 9.08 11.38 11.87 11.34 4.24 22 4.32 33.21-.12 3.07-.97 5.6-1.03 8.79-.88-7.34 6.17-16.14 7.35-25.38 8.38-12.85-1.33-21.14-6.53-29.76-15.75-2.61-3.69-3.07-6.71-2.59-11.16q.84-3.74 1.73-7.47l.88-3.88c1.28-3.57 2.92-7.12 7.12-7.12" fill="#ECEEEE"/><path d="m296 465 .52 2.01c2.54 9.29 2.54 9.29 6.48 12.99a25 25 0 0 0 5 2c-5.25 1.78-10-.08-15-2-4.18-2.47-7.3-4.95-10-9v-4c4.52-1.23 8.29-2.13 13-2" fill="#E1C665"/><path d="M885 146h1c.49 5.61-1.19 9.19-3.5 14.12-4.2 9.38-7 18.99-9.62 28.92-2.39 8.9-5.07 17.65-10.88 24.96l-2-2 .99-1.65A72 72 0 0 0 868 194l1.06-3.38c.79-3.05 1.36-6.01 1.88-9.12A47 47 0 0 1 875 169l1.94-4.94c1.54-3.88 3.27-7.59 5.18-11.3 1.1-2.2 2.02-4.45 2.88-6.76" fill="#ECECEE"/><path d="M237 349h1l.03 2.11c.23 13.91.92 27.54 2.85 41.33l.48 3.52a202 202 0 0 0 4.04 20.11c.89 4.32.87 8.53.6 12.93h-1l-.59-5.96C244 421 244 421 242 418q-.73-3.03-1.25-6.1l-.65-3.68-.66-3.84-.67-3.78A260 260 0 0 1 236 381l-.32-2.91c-.57-6.05-.81-12.08-.87-18.15l-.04-2.24c0-3.78.08-5.47 2.23-8.7" fill="#DBDFDB"/><path d="m609.03 677.93 12.2.02L645 678v1h-53v2l-14.56.43-4.93.14c-10.5.32-21 .5-31.51.43l1-2c1.94-.4 1.94-.4 4.45-.59l2.76-.22L552 679l2.39-.17c18.19-1.14 36.42-.95 54.64-.9" fill="#DFE2DF"/><path d="M411 307c1.81.19 1.81.19 4 1 2.62 3.79 4.28 7.91 5.94 12.19l1.57 4.01.76 1.97q1.49 3.68 3.04 7.33A42 42 0 0 1 429 345q.96 3.01 2 6c1.89 6.11 3.43 11.58 3 18-2-1-2-1-2.77-3.2l-.75-2.92-.84-3.25-.89-3.51c-4.33-16.46-8.54-32.13-16.75-47.12z" fill="#E3E4E5"/><path d="M860 381c5.11 7.66 3.19 20.14 3.19 29.11q0 3.74.03 7.46A194 194 0 0 1 861 448h-1z" fill="#F0F2F2"/><path d="M377 456c3.7 1.23 3.94 2.2 5.69 5.56l1.32 2.51.99 1.93a460 460 0 0 1-5.62 2.5l-3.17 1.41c-3.29 1.12-5.76 1.3-9.21 1.09-.31-2.7-.31-2.7 0-6 2.19-2.55 2.19-2.55 5-4.88l2.81-2.36z" fill="#DEC37D"/><path d="M882 631h1v19l5-1c2.83.47 2.83.47 5.89 1.29l3.4.92 3.52.98 3.49.92c17.36 4.75 17.36 4.75 21.7 10.89.67 3.08.7 4.91-1.04 7.61A21.8 21.8 0 0 1 911 679l-3-2 2.52-.73 3.29-1.02 3.27-.98c3.14-1.36 4.26-2.33 5.92-5.27.5-2.56.5-2.56 0-5-11.37-7.79-27.58-10.76-41-13z" fill="#E4E5E6"/><path d="m931 164 2 1a44 44 0 0 1-4.75 9.31c-6.02 9.83-9.32 21.23-12.19 32.31A28 28 0 0 1 912 215l-2 1c4.31-18.84 10.07-35.88 21-52" fill="#DADADA"/><path d="m241 381 2 1q.88 3.41 1.51 6.88l.39 2.08q.63 3.3 1.22 6.6l.84 4.47q1.03 5.48 2.04 10.97l-3 1-2 2q-1.01-5.4-2-10.81l-.58-3.05c-1.21-6.71-1.97-13.31-1.42-20.14z" fill="#1D211D"/><path d="M759 247c10.45 1.48 20.51 3.26 30.66 6.15A65 65 0 0 0 803 255v3c-4.81 1.55-8.65.21-13.31-1.19-11.4-3.23-22.99-5.04-34.69-6.81l4-1z" fill="#DCDBDF"/><path d="M1053 128h1q.38 2.52.69 5.06l.38 2.85c-.13 5.4-1.93 8.95-5.71 12.74-8.16 5.89-14.04 7.78-24.36 6.35q-2.01-.44-4-1v-3l3.84.25c15.31.69 15.31.69 20.66-3.31 5.8-5.75 6.98-12.09 7.5-19.94" fill="#D8DAD8"/><path d="m501 568 2 1-2.09 1.5L492 577l-2.73 1.98-2.46 1.83-2.23 1.65L483 584v3c-4.93 1.97-8.78 2.18-14 2 3.34-3.77 6.61-6.05 11.05-8.4 4.04-2.19 7.99-4.52 11.95-6.85l2.32-1.36 2.18-1.28 1.97-1.16C500 569 500 569 501 568" fill="#020303"/><path d="M1022 102c6.86 2.62 13.12 5.4 19.11 9.68 1.89 1.32 1.89 1.32 4.51 2.63 4.62 3.28 8.59 8.31 10.38 13.69.13 2.67.04 5.32 0 8h-2l-.33-2.01-.48-2.68-.46-2.63c-2.23-8.16-8.88-12.39-15.73-16.68a239 239 0 0 0-16-8z" fill="#DFE1E1"/><path d="M677 680c12.72-.15 25.36.31 38.06 1l5.55.29L734 682v1l-6.31.5-3.55.28c-9.58.59-19.11.1-28.68-.52q-3.07-.2-6.16-.37l-3.93-.26-3.56-.22C679 682 679 682 677 680" fill="#E5E8E6"/><path d="M861 471h1c.58 5.43 1.07 10.79 1 16.25a68 68 0 0 0 1 11.75q.53 5 1 10h-3c-1.85-8.27-2.28-16.17-2.19-24.62v-3.59c.05-8.65.05-8.65 1.19-9.79" fill="#E5E7E7"/><path d="M882 604c3.16 5.69 3.14 11.19 3.1 17.58l-.01 2.47q0 3.88-.03 7.76l-.01 5.28L885 650h-2c-1.05-15.34-1.11-30.63-1-46" fill="#EFF1F3"/><path d="m251.63 331.94 2.47.03 1.9.03v2l-2.24.23c-8.97 1.2-8.97 1.2-11.82 4.46-3.62 6.17-4.28 12.27-4.56 19.25q-.07 1.16-.12 2.36-.14 2.85-.25 5.7h-1q-.46-5-.82-10l-.28-2.83c-.44-6.78.66-10.96 5.1-16.17 3.97-3.6 6.3-5.14 11.62-5.06" fill="#E9EBEA"/><path d="M238 351h2l1 10.69.29 3.05.27 2.96.26 2.71c.18 2.54.21 5.05.18 7.59l-3 1c-1.36-2.71-1.11-4.85-1.1-7.88l.01-3.54.03-3.7.01-3.74z" fill="#141613"/><path d="m254 334 1 2h-5v2l3 1a37 37 0 0 1-7.25 2.44L244 342l-1 3-3 1c-.67-1.77-.67-1.77-1-4 1.11-1.89 1.11-1.89 2.75-3.69l1.61-1.82c3.22-2.92 6.52-2.58 10.64-2.49" fill="#181919"/><path d="M385 466v2l-3 2v4l-3.19.44q-4.43.64-8.81 1.56l-2-5 6.61-2.2q2.91-.98 5.83-1.99C383 466 383 466 385 466" fill="#1E1715"/><path d="M864 680c-2.46 3.81-2.46 3.81-4.8 4.62-2.44.42-4.71.49-7.18.48l-2.84-.01-2.93-.03-2.98-.01L836 685v-3l3.8-.18 4.95-.26 2.5-.12 2.42-.12 2.22-.11c4.18-.41 7.82-1.31 12.11-1.21" fill="#BABBB9"/><path d="M304.94 461.69h2.86c16.78.27 16.78.27 22 4.92L331 468c-3.43-.41-6.58-.85-9.85-2.01-3.28-1.03-6-1.3-9.42-1.4l-3.5-.12-3.6-.1-3.68-.11q-4.47-.14-8.95-.26c4.26-2.84 7.93-2.34 12.94-2.31" fill="#010303"/><path d="M406 305c-1.2 3.6-2.19 4.06-5.31 6.06l-2.37 1.54A71 71 0 0 1 392 316l-2-4c9.04-8.04 9.04-8.04 16-7" fill="#141614"/><path d="M414 446v2l-2.13-.14c-9.95-.36-19 1.83-28.06 5.95C381 455 381 455 378 454c11.52-6.21 22.76-11.31 36-8" fill="#020402"/><path d="m426 341 3 1 .44 2.75a85 85 0 0 0 3.12 12.06A32 32 0 0 1 434 369c-2-1-2-1-2.78-3.16l-.73-2.83-.8-3.08-.81-3.24-.84-3.21c-1.11-4.32-2.04-7.99-2.04-12.48" fill="#EDEEEF"/><path d="M280 474h4v2c5.3 1.8 10.6 3.51 16 5v1q-2.15.3-4.31.56l-2.43.32C291 483 291 483 288 482v-2h-8z" fill="#161519"/><path d="M371 557c2.12.38 2.12.38 4 1 0 3 0 3-1.19 4.53a242 242 0 0 0-3.43 3.35l-1.88 1.81-1.88 1.84L362 574l-1-4h2l2-5h2v-2h3l-.62-1.88L369 559z" fill="#D8DADA"/><path d="M201 626v2h11v1l-3.44.08c-10.96.36-17.96 1.4-26.56 8.92v-3c2.43-2.31 5.24-4.11 8-6l2.62-1.88c2.94-1.38 5.17-1.34 8.38-1.12" fill="#DADDDB"/><path d="M732 245q5.06-.08 10.12-.12l2.89-.06c5.08-.03 9.23.15 13.99 2.18v2c-9.13.29-17.96-.83-27-2z" fill="#F0EFF3"/><path d="M871 535c3 2 3 2 3.56 4.69L875 543c1.73 6.28 1.73 6.28 2.81 9.19.28 2.68-1.18 3.78-2.81 5.81a1054 1054 0 0 1-2.58-9.7A43 43 0 0 1 871 535" fill="#D9DBDD"/><path d="M425 346c3.71 2.69 4.32 6.71 5 11 .14 2.37.1 4.63 0 7l-3-1c-.98-2.8-.98-2.8-1.75-6.31l-.8-3.49c-.41-2.89-.44-4.5.55-7.2" fill="#191B1A"/><path d="m241 381 2 1a41.4 41.4 0 0 1 0 20c-2.67-4.8-3.14-9.31-3.12-14.75l-.01-2.92C240 382 240 382 241 381" fill="#171A16"/><path d="M241 398h1l.62 3.83.82 4.98.41 2.53.76 4.67C245 416 245 416 246 419q.1 2.6.06 5.19l-.02 2.73L246 429h-1l-.59-5.96C244 421 244 421 242 418c-2.13-6.8-2.1-13.01-1-20" fill="#D3D5D3"/><path d="M265 339c6.16 1.67 11.48 4.88 17 8l-3 3-4-3-1 1h-3l-2-2v-2l-4-2z" fill="#111213"/><path d="M996 100c8.73-.44 19.12.05 26 6h-8v-2l-3.94-.38A108 108 0 0 1 996 101z" fill="#090A0B"/><path d="M230 674c-6.53 5.48-13.8 6.74-22 8l-1-2 2.31-.38C212 679 212 679 215 677c5-2.08 9.53-3.42 15-3" fill="#E3E4E6"/><path d="M380 460c1.12 3.75 1.12 3.75 0 6h-10v-4c3.51-1.6 6.14-2.22 10-2" fill="#E6C55E"/><path d="M251 461c1.78 3.24 2.77 6.43 3.69 10l.82 3.12c.47 2.77.42 4.28-.51 6.88-3.78-2.75-4.09-6.7-5-11l-.61-2.08c-.56-2.74.44-4.45 1.61-6.92" fill="#D7D7DB"/><path d="m867 275 1 3q-4.15 2.55-8.31 5.06l-2.38 1.47-2.3 1.38-2.11 1.29c-1.9.8-1.9.8-4.9-.2 3.69-2.94 7.7-5.29 11.75-7.69l2.11-1.26z" fill="#DCDCDE"/><path d="M973 143h-3v2l-2.08.62-2.73.82-2.71.81q-2.75.83-5.48 1.75-3 .06-6 0c6.06-4.04 14.69-8.27 22-6" fill="#D7D7D9"/><path d="M793.06 253.94c3.47.66 6.4 1.06 9.94 1.06v3c-4.85 1.52-8.59.37-13.32-.94l-2.24-.6q-2.73-.7-5.44-1.46v-1c4.01-1.06 7-.85 11.06-.06" fill="#D7D8D9"/><path d="m977.45 141.9 2.57.01 2.67.03 2.7.01 6.6.05v3h-22v-2a20 20 0 0 1 7.46-1.1" fill="#EAECEB"/><path d="m822 681 28 2v1l-22 1v-2l-6-1z" fill="#BFC0C2"/><path d="M293 466c1.46 2.65 2 3.89 2 7l-7 1v-2h-2v-3l-2-1 5-1 2 5z" fill="#E9C85E"/><path d="M861 471h1c.61 6.02 1.13 11.95 1 18h-3q-.04-4.21-.06-8.44l-.03-2.43q0-3.06.09-6.13z" fill="#F1F3F2"/><path d="M408 303c2.44 2.06 2.44 2.06 4 4h-3l-1-1c-5.43-.58-9.54-.45-14 3v-4c5.12-2.61 8.23-3.63 14-2" fill="#DCDEDC"/><path d="m330 469 5 5c-1 3-1 3-3.88 4.75C328 480 328 480 325 479l1.38-1.06c2.27-2.71 2.79-5.55 3.62-8.94" fill="#BBB176"/><path d="M419 329h3l1.5 5.19.84 2.92c.63 2.74.78 5.09.66 7.89h-2l-2-6.31-1.12-3.55C419 332 419 332 419 329" fill="#181818"/><path d="m411 451 2 1c-13.7 9.12-13.7 9.12-20 11l-2-1c6.36-4.16 12.95-8.11 20-11" fill="#050705"/><path d="M355 571h6c-.47 4.25-2.89 6.27-6 9h-2z" fill="#EEF0F0"/><path d="m856 344 2 1c.38 1.93.38 1.93.56 4.31.25 3.01.63 5.78 1.44 8.69l-3 1c-1.33-4.81-2.37-8.97-2-14z" fill="#EBECEE"/><path d="M703 250v1l-17 3 1-4c10.37-2.67 10.37-2.67 16 0" fill="#DFDEE1"/><path d="M237 667c0 2.95-.44 4.49-1.5 7.19l-.84 2.17L234 678h-2l-1-4h-5c3.46-2.77 7.14-4.85 11-7" fill="#D1D2CF"/><path d="M173 663h4l1.56 3.19c2.36 4.17 5.43 6.33 9.44 8.81l3 2-3 1c-6.25-3.13-10.63-8.67-15-14z" fill="#E2E4E5"/><path d="M247 598c-1.59 3.9-4.13 6.34-7.12 9.25l-2.76 2.7L235 612l-2-2q2.92-3 5.88-6l1.68-1.73c4.21-4.27 4.21-4.27 6.44-4.27" fill="#D0D2D0"/><path d="m298 475 2.19 2.38c2.64 2.46 4.41 3.55 7.81 4.62-3.66 1.32-6.08.65-9.75-.44l-2.98-.87L293 480v-2h5z" fill="#D3BF75"/><path d="M852 330c5.5 10.15 5.5 10.15 4.19 15l-1.19 2c-3.15-5.62-4.54-10.67-3-17" fill="#DEE1E0"/><path d="m816 249 1 2a15.3 15.3 0 0 1-7 4.69l-2.06.76C806 257 806 257 803 257v-2l1.83-.8 2.42-1.08 2.39-1.05q3.22-1.46 6.36-3.07" fill="#E9E9EC"/><path d="M836 682h16l1 3h-17z" fill="#A8A8AA"/><path d="M301 531h2c-1.51 4.98-4.56 8.24-8 12l-2-1c.81-1.94.81-1.94 2-4l3-1c.56-1.94.56-1.94 1-4z" fill="#E8EBE9"/><path d="M860 213h2c-.6 3.71-2.22 5.86-4.56 8.75l-1.94 2.42L854 226l-2-1c1.24-3.71 3.26-5.26 6-8 1.31-2.31 1.31-2.31 2-4" fill="#E2E2E5"/><path d="m342 592 2 1a567 567 0 0 1-4.81 5l-2.71 2.81C334 603 334 603 331 603c3.38-4.14 6.67-7.81 11-11" fill="#1C1C1F"/><path d="M955 149a30.6 30.6 0 0 1-11 8l-1-2c6-6.16 6-6.16 12-6" fill="#EEEEED"/><path d="m283 467 2 1c.62 2.06.62 2.06 1 4h2v2l4 2v2c-4.4-1.35-6.51-3.13-9-7z" fill="#D3B66C"/><path d="M244 420h1l1 17-2-1c-.38-2.18-.38-2.18-.56-4.88A30 30 0 0 0 242 423z" fill="#EFEFF0"/><path d="M914 200h1c1 4.9 1.55 7.94-.81 12.5C912 215 912 215 910 216z" fill="#CECED1"/><path d="M195 626h6v2h11v1h-18z" fill="#D2D3D4"/><path d="m759 247 11 2v2l-15-1 4-1z" fill="#DAD8DE"/><path d="m377 456 3 1c1.19 2.56 1.19 2.56 2 5l-2 1v-3l-9 2z" fill="#D4BE77"/><path d="m341 667 4 2-9 5-2-2z" fill="#171917"/><path d="M874 554a19.6 19.6 0 0 1 2.62 8.75l.23 2.42.15 1.83h-2l-1-8h-2z" fill="#18191A"/><path d="M260 339h5v3l1.88.31C269 343 269 343 271 346c-4.51-.53-7.42-2.25-11-5z" fill="#070807"/><path d="M850 288c-2.45 2.45-4.82 3.64-8 5l-3-1c2.86-4.29 6.03-5.84 11-4" fill="#E9E8EA"/><path d="M917 194h2c-.48 4.71-.97 8.67-3 13h-1q-.07-2.4-.12-4.81l-.08-2.71c.2-2.48.2-2.48 2.2-5.48" fill="#E8E8EA"/><path d="m873 175 2 1-1 10c-3-4-3-4-2.75-7.19C872 176 872 176 873 175" fill="#E4E3E6"/><path d="M242 390h2c.08 4.16-.02 7.95-1 12-2.32-3.63-2.24-6.77-2-11z" fill="#111411"/><path d="M553 309v2l-11 5v-3l3.81-2 2.15-1.12C550 309 550 309 553 309" fill="#DBDADC"/><path d="M180 637h2a29 29 0 0 1-5 9l-2-3q2.43-3.06 5-6" fill="#E5E7E5"/><path d="m803 576 7 4c-2 3-2 3-4.12 3.69L804 584z" fill="#D7D9DA"/><path d="M656 262c-3.31 2.21-6.14 3.09-10 4l-2-1c1-2 1-2 3.19-3.19 3.31-.95 5.49-.58 8.81.19" fill="#E5E5E7"/><path d="m256 586 1 3-9 9-2-1 1.43-1.39c6.18-6.1 6.18-6.1 8.57-9.61" fill="#EAECEA"/><path d="M917 116v2c-1.97 1.51-1.97 1.51-4.5 3.12l-2.53 1.64L908 124c.6-3.16.92-3.92 3.38-6.25C914 116 914 116 917 116" fill="#D9DAD9"/><path d="M415 691c-1.44 1.56-1.44 1.56-4 3-3.05-.03-6-.47-9-1v-1c4.41-1.1 8.48-1.08 13-1" fill="#E0E1E1"/><path d="m1021 151 16 1v1l-16 1z" fill="#ADAEAD"/><path d="m293.26 479.24 2.43.63 2.45.62 1.86.51v1q-2.16.33-4.3.62l-2.44.35C291 483 291 483 288 481c3-2 3-2 5.26-1.76" fill="#211712"/><path d="m254 334 1 2-11 1c1.99-3.97 6.08-3.09 10-3" fill="#1E1E20"/><path d="M230 674c-2.91 2.48-5.16 3.7-9 4l-2-2c3.83-1.8 6.78-2.2 11-2" fill="#DEDEDF"/><path d="m434 367 5 3c-3 2-3 2-7 2 .88-3.88.88-3.88 2-5" fill="#D9DBDA"/><path d="M525 324v2l-9 4c2.39-4.77 3.71-6 9-6" fill="#DBDBDC"/><path d="M411 307c4 1 4 1 5.75 3.56L418 313l-2 2z" fill="#E9EAEB"/><path d="m1015 100 7 2v3l-8-2z" fill="#CDCFCF"/><path d="M880 578c2.13 3.19 2.5 5.27 3 9h-3z" fill="#F1F2F3"/><path d="M876 556h2l2 8h-3c-1.35-2.71-1.07-5.01-1-8" fill="#EEEFF2"/><path d="m248 456 3 1v8c-2.13-2.59-3.54-4.63-4-8z" fill="#EBEBEE"/><path d="m375 329 3 1-7 6-2-1z" fill="#202022"/><path d="M415 315c2.9 2.4 3.5 4.31 4 8l-2 1c-1.56-2.81-1.56-2.81-3-6z" fill="#171818"/><path d="m912 214 2 2-3 6h-2c.75-5.75.75-5.75 3-8" fill="#EAEAED"/><path d="M875 549c1.62 1.69 1.62 1.69 3 4-.81 2.75-.81 2.75-2 5-1.62-2.57-2.04-3.68-1.62-6.75z" fill="#D8D9DD"/><path d="m593 540 4 2-9 4c1.13-3.4 2.13-4.05 5-6" fill="#252827"/><path d="M285 520c2.94.75 2.94.75 6 2 .88 2.12.88 2.12 1 4-2.94-1.31-2.94-1.31-6-3z" fill="#ECEDEB"/><path d="m293 465-1 8c-2-2-2-2-3-5l-2-2c2.08-.55 3.84-1 6-1" fill="#D8BB62"/><path d="M430 365h2v6l-3-1-1 2c.88-5.88.88-5.88 2-7" fill="#1A1E1A"/><path d="M875 270v3l-7 4v-3z" fill="#EBEBED"/><path d="m895 248 2 2-6 5c.31-2.38.31-2.38 1-5z" fill="#E8E7EA"/><path d="M752 246c3.69.31 3.69.31 7 1v2h-10z" fill="#E8E7EC"/><path d="M881 157c1.03 2.79 1.05 3.87.06 6.75L880 166c-1.12-1.75-1.12-1.75-2-4 .76-2.04 1.46-3.46 3-5" fill="#E7E8E9"/><path d="M1012 149c6.75.88 6.75.88 9 2v2l-9-2z" fill="#EBEBED"/><path d="M179 667a19 19 0 0 1 7 5l-1 2a169 169 0 0 1-6-5z" fill="#171719"/><path d="m353 572 2 1c-1 3-1 3-3.94 4.75L348 579l-2-1z" fill="#E2E3E3"/><path d="M290 464v2l-3.38.88C283 468 283 468 281 470c.25-1.88.25-1.88 1-4 2.94-2.03 4.28-2 8-2" fill="#0E0B02"/><path d="M328 345v2c-2.71 1.35-5.01 1.07-8 1v-2c2.71-1.35 5.01-1.07 8-1" fill="#ECECEC"/><path d="m853 339 4 2-2 6c-1.76-3.09-2-4.23-2-8" fill="#D7D9DB"/><path d="m778 250 9 3v1h-8z" fill="#EAEAEC"/><path d="m921 111 2 1v2l-6 3v-3c2-1.69 2-1.69 4-3" fill="#E4E6E6"/><path d="M269 642c-.69 1.94-.69 1.94-2 4-2.62.75-2.62.75-5 1 4.75-5 4.75-5 7-5" fill="#DEE1DC"/><path d="M486 580h2c0 2 0 2-1.5 3.62L485 585l1 2-4-1c1.15-2.47 2.05-4.05 4-6" fill="#1D1E20"/><path d="m873 543 3 1 1 6h-3z" fill="#EEEFF2"/><path d="m864 509 2 1c.12 2.88.12 2.88 0 6l-2 2c-.88-6.15-.88-6.15-1-8z" fill="#DFE0E1"/><path d="M303 479.81c3 1.2 3 1.2 5 3.2-7.75-.76-7.75-.76-10-3 2-1 2-1 5-.2" fill="#C8BD8D"/><path d="M298 474c3.83 1.45 5.12 3.43 7 7-3.83-1.45-5.12-3.43-7-7" fill="#332B14"/><path d="M368 471h4v3l3 1-5 1z" fill="#232017"/><path d="M455.25 361.88 457 363c-2.91 1.25-4.8 2-8 2v-2c3.45-2.21 3.45-2.21 6.25-1.12" fill="#DBD9DB"/><path d="m840 290-1 3c-3.06 1.19-3.06 1.19-6 2 1-3 1-3 2.94-4.19C838 290 838 290 840 290" fill="#D5D6D6"/><path d="M838 239c-1 3-1 3-4.06 4.69L831 245c1.47-3.4 2.86-6 7-6" fill="#D9DADA"/><path d="m851 224 2 1a19 19 0 0 1-5 7l-2-1 1.38-1.25A19 19 0 0 0 851 224" fill="#ECEEEE"/></svg>