<svg style="background:transparent" version="1.1" xmlns="http://www.w3.org/2000/svg" viewBox="0 0 1248 704"><path d="M994.68 89.76q3.14-.02 6.25-.07c8.71-.07 16.66.93 25.07 3.31l3.85 1.04c16.08 4.91 29.34 10.86 43.15 20.4l2.12 1.46c26.3 18.21 26.3 18.21 30.88 28.1l1.76 2.96c4.18 7.41 6.36 13.03 5.22 21.76-1.8 6-5.56 11.26-11 14.48-8.1 3.29-14.87 3.82-23.04.61-6.04-2.67-9.84-5.66-14.44-10.37-2.64-2.58-5.42-4.43-8.5-6.44l-3-3a96 96 0 0 0-13-9l-1.88-1.11c-9-5.22-17.66-9.21-28.12-9.89l-2-1c-3.06-.24-6.12-.18-9.19-.19l-2.54-.03c-5.17-.02-9.37.55-14.27 2.22l-3.13 1a120 120 0 0 0-11.8 4.81l-1.9.9c-5.64 3.36-9.55 7.67-13.42 12.85l-1.3 1.71A45 45 0 0 0 945 175l-1.19 2.21c-4.2 7.98-7.44 16.26-10.65 24.69-3.95 10.33-9.02 19.02-15.49 27.93a109 109 0 0 0-5.28 7.86c-3.54 5.88-8.5 10.61-13.77 14.94-1.62 1.37-1.62 1.37-4.25 4.06A34 34 0 0 1 887 262l-2.25 1.88a67 67 0 0 1-9.67 5.97C873 271 873 271 870 273c1.9 5.09 4.52 9.71 7.15 14.45a121 121 0 0 1 8.97 22.24l1.51 4.88.71 2.32q.86 2.73 1.8 5.43a31 31 0 0 1 1.42 6.87C892 333 892 333 893 336q.3 3.43.5 6.88c.4 6.65.4 6.65 1.01 9.42.57 3.15.62 6.1.62 9.29l.01 3.88v7.97c-.02 12.1-.97 24-2.48 36.01-.54 4.55-.72 8.98-.67 13.56.01 2.25-.15 4.44-.43 6.68l-.27 2.26q-.37 2.53-.85 5.05a57 57 0 0 0-.4 9.17c-.06 4.34-.38 8.66-.69 12.98-.2 3.15-.35 6.25-.32 9.4A75 75 0 0 1 888 479c-.47 8.91.11 17.75.87 26.63l.24 2.87c.42 4.54.96 8.32 2.9 12.5q.39 2.91.71 5.82c.63 4.9 1.83 9.67 3.24 14.4.98 3.56 1.7 7.04 2.3 10.67l.64 3.9.33 2.01 1 6c2.83 17.1 2.83 17.1 2.73 23.91C903 590 903 590 904 591q.1 2.17.06 4.34l-.02 2.72-.08 5.65c-.04 4.4.03 8.69.53 13.07.74 6.59.65 13.17.63 19.78l.02 3.89v7.03C905 650 905 650 904 651a86 86 0 0 0-.06 5.06l.02 2.79.04 2.15 1.88.26c12.7 2.02 25.34 5.86 35.68 13.68 1.44 2.06 1.44 2.06 2.2 4.87-1.22 5.14-4.44 7.39-8.76 10.19-27.55 14.31-64.73 12.23-94.8 12.25h-3.7c-27.53 0-54.97-1.32-82.45-2.82a4072 4072 0 0 0-26.87-1.36l-8.2-.4-17.08-.85-10.47-.51q-5.9-.27-11.79-.61c-20-1.07-40.05-.94-60.08-.95h-2.98c-32.19-.02-64.2.64-96.32 3.01l-10.3.74a3739 3739 0 0 0-33.6 2.54l-2.6.2q-6.45.5-12.9 1.24c-13.15 1.51-26.12 1.79-39.34 1.75h-6.83l-18.36-.03-19.27-.01-32.26-.04-33.2-.04h-2.08l-10.3-.01q-42.61-.03-85.22-.1c-2.45-5.9-2.74-10.75-1-17l-3.08 1.46c-13.09 6.07-23.48 8.81-37.92 5.54l-2.5-.56c-7.33-2.04-14.14-6.44-18-13.13-2.96-7.08-3.53-14.57-.75-21.75q1.07-2.3 2.25-4.56l1.62-3.12L156 649h2l2-4h2l.67-1.86c2.57-4.14 7.86-4.84 12.33-6.14 3.76-.8 6.25-1.16 10-.37 7.1.88 12.8-4.38 18.2-8.41 4.47-3.54 8.64-7.33 12.8-11.22l3.94-3.62 4.25-3.94 2.01-1.86c6.04-5.64 11.66-11.39 15.8-18.58l2-1a313 313 0 0 0 3.71-4.46c1.3-1.54 1.3-1.54 3.23-3.41 2.55-2.63 4.58-5.53 6.7-8.52L259 570h2l2-4h2l.75-1.62c3.21-6.1 7.47-11.33 12.1-16.4l1.9-2.1 1.8-1.95A12 12 0 0 0 284 538l-2.69-1.31a109 109 0 0 1-8.3-4.69l-1.94-1.14A66 66 0 0 1 247 505l-1.62-2.64c-1.48-2.54-1.89-4.48-2.38-7.36q-1.43-4.43-3-8.81a108 108 0 0 1-2.5-10.03c-.65-2.79-1.58-5.45-2.5-8.16a86 86 0 0 1-2.5-11.56c-.5-3.44-.5-3.44-1.5-6.69-1.09-4.07-1.46-7.91-1.76-12.1-.63-6.8-2.6-13.46-4.2-20.09l-1.43-5.97-.92-3.84-.84-3.49c-.85-3.26-.85-3.26-1.95-6.48-1-3.08-.97-5.57-.9-8.78l-1-3q-.55-4-1-8l-.29-2.31a106 106 0 0 1-.7-12.69l-1-2c-.06-7.16.01-13.47 5-19l2.05-2.75c4.31-3.3 8.56-4.08 13.94-4.25 2.92.56 5.34 1.7 8 3q2.47.99 4.94 1.94a404 404 0 0 1 16.41 7.13A116 116 0 0 0 278 352l2.56 1.19c5.24 1.74 9.52-1.1 14.24-3.28 2.7-1.12 5.32-1.47 8.2-1.91l3.44-1.5c3.63-1.53 6.67-2.01 10.56-2.5l4.85-1.46c2.86-.72 5.73-1.12 8.65-1.54 4.68-.68 9-1.59 13.5-3l2.62-.37c3.12-.83 4.93-2.58 7.38-4.63h2l.75-1.87c1.5-2.53 2.7-2.85 5.25-4.13 1.06-1.81 1.06-1.81 2-4 3.41-6.16 7.98-11.11 13-16l2.31-2.5c5.13-4.77 10.43-8.63 17.7-8.5 8.38 4.36 12.2 10.71 16 19l1.05 2.16c2.71 5.67 4.35 11.52 6.01 17.57a66 66 0 0 0 2.43 7.15c1.6 4.04 2.63 8.22 3.7 12.43q.25 1.06.53 2.14c.72 2.93 1.27 5.53 1.27 8.55l2.12-.87a101 101 0 0 1 5.82-2.07c3.2-1.11 6.05-2.5 9.06-4.06l3.75-1.87 2.04-1.02 7.33-3.67 2.56-1.28q2.75-1.37 5.51-2.72c3.33-1.71 6.57-3.56 9.81-5.44q6.39-3.7 13-7 4.52-2.47 9-5l4.7-2.62c.33-.2.33-.2 2.06-1.17q2.55-1.36 5.11-2.63c3.24-1.63 6.36-3.39 9.5-5.2l3.68-2.11 6.1-3.5 6.47-3.71 2.05-1.18A35 35 0 0 1 547 304a89 89 0 0 0 4.62-2.75c5-3.07 10.11-5.7 15.38-8.25l3.25-1.62q2.73-1.38 5.48-2.71c4.14-2.11 8.14-4.45 12.15-6.8A68 68 0 0 1 598 277q1.86-.88 3.7-1.81 3.31-1.7 6.7-3.35a148 148 0 0 0 12.85-7.03A43 43 0 0 1 632 260q3.03-1.46 6-3c5.48-2.8 5.48-2.8 8.37-3.93 3.52-1.43 6.85-3.2 10.23-4.95A31 31 0 0 1 663 246q2.3-.87 4.56-1.81A216 216 0 0 1 691 236l4.5-1.5A231 231 0 0 1 715 229l1.94-.5c6.36-1.55 12.8-2.28 19.3-3.03q3.53-.43 7.02-1.03c3.27-.53 6.43-.44 9.74-.44l1.83-.49c2.78-.65 5.38-.64 8.23-.63l3.16-.01C769 223 769 223 772 224c3.03.07 6.05 0 9.1-.06 2.54.05 4.46.38 6.9 1.06q2.18.25 4.37.44c3.8.39 7.01 1.31 10.63 2.56 3.32.74 6.66 1.37 10 2a92 92 0 0 1 8.44 2l3.56 1 2.94.88c4.43.18 7.31-1.66 11.06-3.88l2.7-1.56L844 227l2.56-1.5c2.44-1.5 2.44-1.5 4.44-3s2-1.5 4.31-2.69c3.24-2.18 5.4-4.77 7.84-7.77C865 210 865 210 867.4 208.21c3.33-2.82 5.44-6 7.8-9.65l1.32-1.98a52 52 0 0 0 5.5-10.58q2.16-4.4 4.42-8.74A78 78 0 0 0 891 166a166 166 0 0 1 2.94-6l1.52-3 1.54-3 1.6-3.22c2.43-4.83 5.33-9.33 8.4-13.78l1.75-2.58c3.72-5.33 7.41-9.83 12.45-13.94 1.8-1.48 1.8-1.48 4.24-4.04 2.9-2.77 6-4.79 9.36-6.96a53 53 0 0 0 5.4-4.17c4.71-3.88 10.18-5.99 15.8-8.31l3.44-1.5c4.87-1.83 9.98-2.62 15.1-3.5 6.96-1.2 12.96-2.22 20.14-2.24" fill="#111411"/><path d="M994.68 89.76q3.14-.02 6.25-.07c8.71-.07 16.66.93 25.07 3.31l3.85 1.04c16.08 4.91 29.34 10.86 43.15 20.4l2.12 1.46c26.3 18.21 26.3 18.21 30.88 28.1l1.76 2.96c4.18 7.41 6.36 13.03 5.22 21.76-1.8 6-5.56 11.26-11 14.48-8.1 3.29-14.87 3.82-23.04.61-6.04-2.67-9.84-5.66-14.44-10.37-2.64-2.58-5.42-4.43-8.5-6.44l-3-3a96 96 0 0 0-13-9l-1.88-1.11c-9-5.22-17.66-9.21-28.12-9.89l-2-1c-3.06-.24-6.12-.18-9.19-.19l-2.54-.03c-5.17-.02-9.37.55-14.27 2.22l-3.13 1a120 120 0 0 0-11.8 4.81l-1.9.9c-5.64 3.36-9.55 7.67-13.42 12.85l-1.3 1.71A45 45 0 0 0 945 175l-1.19 2.21c-4.2 7.98-7.44 16.26-10.65 24.69-3.95 10.33-9.02 19.02-15.49 27.93a109 109 0 0 0-5.28 7.86c-3.54 5.88-8.5 10.61-13.77 14.94-1.62 1.37-1.62 1.37-4.25 4.06A34 34 0 0 1 887 262l-2.25 1.88a67 67 0 0 1-9.67 5.97C873 271 873 271 870 273c1.9 5.09 4.52 9.71 7.15 14.45a121 121 0 0 1 8.97 22.24l1.51 4.88.71 2.32q.86 2.73 1.8 5.43a31 31 0 0 1 1.42 6.87C892 333 892 333 893 336q.3 3.43.5 6.88c.4 6.65.4 6.65 1.01 9.42.57 3.15.62 6.1.62 9.29l.01 3.88v7.97c-.02 12.1-.97 24-2.48 36.01-.54 4.55-.72 8.98-.67 13.56.01 2.25-.15 4.44-.43 6.68l-.27 2.26q-.37 2.53-.85 5.05a57 57 0 0 0-.4 9.17c-.06 4.34-.38 8.66-.69 12.98-.2 3.15-.35 6.25-.32 9.4A75 75 0 0 1 888 479c-.47 8.91.11 17.75.87 26.63l.24 2.87c.42 4.54.96 8.32 2.9 12.5q.39 2.91.71 5.82c.63 4.9 1.83 9.67 3.24 14.4.98 3.56 1.7 7.04 2.3 10.67l.64 3.9.33 2.01 1 6c2.83 17.1 2.83 17.1 2.73 23.91C903 590 903 590 904 591q.1 2.17.06 4.34l-.02 2.72-.08 5.65c-.04 4.4.03 8.69.53 13.07.74 6.59.65 13.17.63 19.78l.02 3.89v7.03C905 650 905 650 904 651a86 86 0 0 0-.06 5.06l.02 2.79.04 2.15 1.88.26c12.7 2.02 25.34 5.86 35.68 13.68 1.44 2.06 1.44 2.06 2.2 4.87-1.22 5.14-4.44 7.39-8.76 10.19-27.55 14.31-64.73 12.23-94.8 12.25h-3.7c-27.53 0-54.97-1.32-82.45-2.82a4072 4072 0 0 0-26.87-1.36l-8.2-.4-17.08-.85-10.47-.51q-5.9-.27-11.79-.61c-20-1.07-40.05-.94-60.08-.95h-2.98c-32.19-.02-64.2.64-96.32 3.01l-10.3.74a3739 3739 0 0 0-33.6 2.54l-2.6.2-2.6.21-2.87.24q-3.63.35-7.24.81c-16.02 1.97-32.06 1.76-48.17 1.7l-12.36-.01-23.32-.05-26.59-.04q-27.3-.03-54.6-.1a95 95 0 0 1 10.9-7.69l1.7-1.02 5.45-3.29 3.81-2.3 9.42-5.67 7.23-4.36q11.28-6.8 22.63-13.47a1362 1362 0 0 0 32.08-19.48l8.8-5.45c11.44-7.1 22.76-14.35 33.92-21.89q3.07-2.07 6.14-4.1l1.98-1.31q1.9-1.27 3.82-2.52c2.63-1.74 5.17-3.5 7.63-5.48 6.41-5.15 12.65-6.43 20.53-7.96 36.25-7.12 71.1-23.21 104.37-38.8l7.17-3.32a558 558 0 0 0 28.92-14.57q5.07-2.68 10.18-5.33a1981 1981 0 0 0 45.37-24.55l2.22-1.23 2.07-1.15 1.92-1.07q2.27-1.32 4.47-2.77C681 504 681 504 685 504l.68 2.18c12.1 38.19 29.55 67.01 59.32 93.82 9.1 8.25 17.38 18.5 18.21 31.19.03 2.96.04 5.86-.2 8.81-1.5 1.49-3.08 1.48-5.14 1.88A54 54 0 0 0 746 646l-2.8.94c-2.78 1.34-3.06 2.24-4.2 5.06l-2.06 3.5c-2.79 4.9-3.42 8.8-2.94 14.5 1.9 5.8 4.5 9.14 10 12 15.65 6.71 37.65 5.91 53.44.19 7.02-3.07 11.26-8.41 14.56-15.19 9.27-24.43 10.72-55.9 4-81l-.87-3.39q-1-3.82-2.13-7.61c13.7 6.07 27.98 19.8 33.44 33.66 3.43 9.68 4.73 18.5 4.68 28.72l.02 2.76v5.02C851 647 851 647 850 648q-2.7.37-5.44.69c-7.19 1.17-13.5 3.56-18.22 9.34A57 57 0 0 0 823 664l-1.1 1.85c-2.15 5.14-1.85 12.16-.18 17.42 3 5.58 7.72 8.93 13.6 10.98 15.56 4.46 34.81 3.49 49.41-3.57 7.06-4.21 10.5-10.12 13.27-17.68 2.07-9.32 2.31-18.65 2.3-28.16l.01-4.32v-9.02l.02-9.05c.2-32.76-2.78-64.51-11.63-96.21-3.62-13.49-4.04-27.23-3.95-41.11l.01-2.47a651 651 0 0 1 1.26-39.13c.4-6.19.94-12.33 1.71-18.49a368 368 0 0 0 2.66-47.61q-.02-5.84.02-11.66c.01-17.61-.7-35.06-6.1-51.96l-.76-2.46c-3.67-11.37-8.75-22.32-15.52-32.17-1.43-3.02-1.6-4.89-1.03-8.18 2.5-2.09 2.5-2.09 5.87-3.94l3.61-2.06 1.81-1.02c8.08-4.64 14.96-10.62 21.71-16.98l1.83-1.64c16.23-15.09 25-36.78 33.18-56.85 4.41-10.78 9.27-19.74 17-28.51l2.02-2.33c8.81-9.44 21.52-17.04 34.64-17.83q4.7-.08 9.4-.09l3.23-.06c10.93-.06 20.7 2.41 30.64 6.87l2.32 1.05c7.46 3.5 13.53 8.01 19.74 13.39l1.76 1.52 7.28 6.28c7.94 6.84 16.73 14.03 27.81 13.55 5.58-.91 10.58-2.82 14.65-6.79 3.85-6.58 4.76-12.63 2.85-20.11-8.55-23.56-36.06-40.14-57.57-50.56A129 129 0 0 0 1038 100l-2.56-.87c-12.72-4.16-24.89-5.67-38.19-5.63h-2.04c-26.63.18-47.84 8.82-68.2 25.5l-2.62 2C910.76 132.4 902 150.04 895 166c-13.28 30.19-29.65 56.29-60.88 70.48-5.3 1.3-10.39.41-15.59-.94l-3.67-.93-7.49-1.95c-14.65-3.69-28.78-5.02-43.83-4.98q-3.6 0-7.23-.04a156 156 0 0 0-32.3 3.36l-3.38.68c-40.82 8.72-79.53 26.2-116.15 45.94-5.04 2.7-10.17 5.22-15.29 7.76a619 619 0 0 0-24.59 12.93A932 932 0 0 1 542.5 310a1402 1402 0 0 0-32.69 17.46c-8.36 4.58-16.77 9.08-25.18 13.59l-7.6 4.1c-27.79 15.06-27.79 15.06-39.28 19.91l-2.27.96c-3.43 1.38-5.73 1.98-9.48 1.98l-.4-1.7c-13.77-56.59-13.77-56.59-26.6-65.3-4.02-1.21-6.29-1.71-10.17-.1-9.35 5.72-16 14.98-22.68 23.47a230 230 0 0 1-7.96 9.13l-1.42 1.57c-3.75 4.07-6.5 6.06-11.94 7.01l-3.17.57-3.4.6c-16.36 3.02-32.78 6.41-48.13 12.97-7.05 1.76-13.43-.36-19.88-3.22l-2.16-.91a404 404 0 0 1-12.4-5.55c-19.63-9.01-19.63-9.01-28.69-6.54-3.89 2.49-5.88 4.51-7 9-2.67 27.51 4.9 56.04 11.64 82.49 1.1 4.32 1.94 8.6 2.61 13.01 9.11 54.52 9.11 54.52 23.75 70.5l2.44 2.69L263 520l1.56 1.57c6.48 6.22 16.45 12.84 25.44 14.43-1.7 3.93-4.29 7.12-6.94 10.44l-1.47 1.86a587 587 0 0 1-12.98 15.62 387 387 0 0 0-7.05 8.58 256 256 0 0 1-12.14 13.73 258 258 0 0 0-7.5 8.36c-4.7 5.4-9.74 10.45-14.79 15.52l-5 5.07c-24.35 24.6-24.35 24.6-36.5 25.22l-4.5-.02c-8.82.21-14.68 2-20.96 8.51-5.33 6.55-7.77 13.2-7.45 21.66.64 5.62 2.18 9.77 6.34 13.7 7.58 5.68 15.47 7.46 24.81 7.31l2.92-.02c7.6-.22 13.6-1.7 20.21-5.54l2.64-1.45a177 177 0 0 0 4.62-2.63C216 681 216 681 218 681l-.99 2.97c-1.2 4.2-1.24 8.13-1.14 12.47l.03 2.21q.04 2.68.1 5.35h-2c-2.78-5.56-2.65-11.06-1-17l-3.08 1.46c-13.09 6.07-23.48 8.81-37.92 5.54l-2.5-.56c-7.33-2.04-14.14-6.44-18-13.13-2.96-7.08-3.53-14.57-.75-21.75q1.07-2.3 2.25-4.56l1.62-3.12L156 649h2l2-4h2l.67-1.86c2.57-4.14 7.86-4.84 12.33-6.14 3.76-.8 6.25-1.16 10-.37 7.1.88 12.8-4.38 18.2-8.41 4.47-3.54 8.64-7.33 12.8-11.22l3.94-3.62 4.25-3.94 2.01-1.86c6.04-5.64 11.66-11.39 15.8-18.58l2-1a313 313 0 0 0 3.71-4.46c1.3-1.54 1.3-1.54 3.23-3.41 2.55-2.63 4.58-5.53 6.7-8.52L259 570h2l2-4h2l.75-1.62c3.21-6.1 7.47-11.33 12.1-16.4l1.9-2.1 1.8-1.95A12 12 0 0 0 284 538l-2.69-1.31a109 109 0 0 1-8.3-4.69l-1.94-1.14A66 66 0 0 1 247 505l-1.62-2.64c-1.48-2.54-1.89-4.48-2.38-7.36q-1.43-4.43-3-8.81a108 108 0 0 1-2.5-10.03c-.65-2.79-1.58-5.45-2.5-8.16a86 86 0 0 1-2.5-11.56c-.5-3.44-.5-3.44-1.5-6.69-1.09-4.07-1.46-7.91-1.76-12.1-.63-6.8-2.6-13.46-4.2-20.09l-1.43-5.97-.92-3.84-.84-3.49c-.85-3.26-.85-3.26-1.95-6.48-1-3.08-.97-5.57-.9-8.78l-1-3q-.55-4-1-8l-.29-2.31a106 106 0 0 1-.7-12.69l-1-2c-.06-7.16.01-13.47 5-19l2.05-2.75c4.31-3.3 8.56-4.08 13.94-4.25 2.92.56 5.34 1.7 8 3q2.47.99 4.94 1.94a404 404 0 0 1 16.41 7.13A116 116 0 0 0 278 352l2.56 1.19c5.24 1.74 9.52-1.1 14.24-3.28 2.7-1.12 5.32-1.47 8.2-1.91l3.44-1.5c3.63-1.53 6.67-2.01 10.56-2.5l4.85-1.46c2.86-.72 5.73-1.12 8.65-1.54 4.68-.68 9-1.59 13.5-3l2.62-.37c3.12-.83 4.93-2.58 7.38-4.63h2l.75-1.87c1.5-2.53 2.7-2.85 5.25-4.13 1.06-1.81 1.06-1.81 2-4 3.41-6.16 7.98-11.11 13-16l2.31-2.5c5.13-4.77 10.43-8.63 17.7-8.5 8.38 4.36 12.2 10.71 16 19l1.05 2.16c2.71 5.67 4.35 11.52 6.01 17.57a66 66 0 0 0 2.43 7.15c1.6 4.04 2.63 8.22 3.7 12.43q.25 1.06.53 2.14c.72 2.93 1.27 5.53 1.27 8.55l2.12-.87a101 101 0 0 1 5.82-2.07c3.2-1.11 6.05-2.5 9.06-4.06l3.75-1.87 2.04-1.02 7.33-3.67 2.56-1.28q2.75-1.37 5.51-2.72c3.33-1.71 6.57-3.56 9.81-5.44q6.39-3.7 13-7 4.52-2.47 9-5l4.7-2.62c.33-.2.33-.2 2.06-1.17q2.55-1.36 5.11-2.63c3.24-1.63 6.36-3.39 9.5-5.2l3.68-2.11 6.1-3.5 6.47-3.71 2.05-1.18A35 35 0 0 1 547 304a89 89 0 0 0 4.62-2.75c5-3.07 10.11-5.7 15.38-8.25l3.25-1.62q2.73-1.38 5.48-2.71c4.14-2.11 8.14-4.45 12.15-6.8A68 68 0 0 1 598 277q1.86-.88 3.7-1.81 3.31-1.7 6.7-3.35a148 148 0 0 0 12.85-7.03A43 43 0 0 1 632 260q3.03-1.46 6-3c5.48-2.8 5.48-2.8 8.37-3.93 3.52-1.43 6.85-3.2 10.23-4.95A31 31 0 0 1 663 246q2.3-.87 4.56-1.81A216 216 0 0 1 691 236l4.5-1.5A231 231 0 0 1 715 229l1.94-.5c6.36-1.55 12.8-2.28 19.3-3.03q3.53-.43 7.02-1.03c3.27-.53 6.43-.44 9.74-.44l1.83-.49c2.78-.65 5.38-.64 8.23-.63l3.16-.01C769 223 769 223 772 224c3.03.07 6.05 0 9.1-.06 2.54.05 4.46.38 6.9 1.06q2.18.25 4.37.44c3.8.39 7.01 1.31 10.63 2.56 3.32.74 6.66 1.37 10 2a92 92 0 0 1 8.44 2l3.56 1 2.94.88c4.43.18 7.31-1.66 11.06-3.88l2.7-1.56L844 227l2.56-1.5c2.44-1.5 2.44-1.5 4.44-3s2-1.5 4.31-2.69c3.24-2.18 5.4-4.77 7.84-7.77C865 210 865 210 867.4 208.21c3.33-2.82 5.44-6 7.8-9.65l1.32-1.98a52 52 0 0 0 5.5-10.58q2.16-4.4 4.42-8.74A78 78 0 0 0 891 166a166 166 0 0 1 2.94-6l1.52-3 1.54-3 1.6-3.22c2.43-4.83 5.33-9.33 8.4-13.78l1.75-2.58c3.72-5.33 7.41-9.83 12.45-13.94 1.8-1.48 1.8-1.48 4.24-4.04 2.9-2.77 6-4.79 9.36-6.96a53 53 0 0 0 5.4-4.17c4.71-3.88 10.18-5.99 15.8-8.31l3.44-1.5c4.87-1.83 9.98-2.62 15.1-3.5 6.96-1.2 12.96-2.22 20.14-2.24" fill="#B8BAB8"/><path d="m685 504 .68 2.18c12.09 38.19 29.55 67.01 59.32 93.82 9.09 8.25 17.38 18.5 18.21 31.19.04 2.96.04 5.86-.21 8.81-1.49 1.49-3.07 1.48-5.12 1.88a54 54 0 0 0-14.01 5.23c-4.1 1.27-7.81.92-12.05.66l-5.75-.29-3.09-.16c-29.51-1.56-59-1.72-88.54-1.7l-3.89.01c-60.91 0-121.64 1.47-182.14 9.07q-6.02.74-12.05 1.4c-17.79 2.01-35.54 4.21-53.2 7.23l-2.07.36-10.23 1.77-3.74.65-3.36.59c-2.76.3-2.76.3-5.76-.7q13.49-8.49 27.12-16.75a1169 1169 0 0 0 47.1-30.05l5.68-3.79 1.96-1.31 3.87-2.55a100 100 0 0 0 7.8-5.59c6.41-5.15 12.65-6.42 20.52-7.95 36.26-7.12 71.09-23.21 104.37-38.8q3.58-1.68 7.17-3.32a558 558 0 0 0 28.92-14.57q5.08-2.69 10.18-5.33a1981 1981 0 0 0 45.37-24.55l2.22-1.23 2.07-1.15 1.92-1.07q2.27-1.32 4.48-2.77C681 504 681 504 685 504" fill="#ECEDEC"/><path d="M994.68 89.76q3.14-.02 6.25-.07c8.71-.07 16.66.93 25.07 3.31l3.85 1.04c16.08 4.91 29.34 10.86 43.15 20.4l2.12 1.46c26.3 18.21 26.3 18.21 30.88 28.1l1.76 2.96c4.18 7.41 6.36 13.03 5.22 21.76-1.8 6-5.56 11.26-11 14.48-8.1 3.29-14.87 3.82-23.04.61-6.04-2.67-9.84-5.66-14.44-10.37-2.64-2.58-5.42-4.43-8.5-6.44l-3-3a96 96 0 0 0-13-9l-1.88-1.11c-9-5.22-17.66-9.21-28.12-9.89l-2-1c-3.06-.24-6.12-.18-9.19-.19l-2.54-.03c-5.17-.02-9.37.55-14.27 2.22l-3.13 1a120 120 0 0 0-11.8 4.81l-1.9.9c-5.64 3.36-9.55 7.67-13.42 12.85l-1.3 1.71A45 45 0 0 0 945 175l-1.19 2.21c-4.2 7.98-7.44 16.26-10.65 24.69-3.95 10.33-9.02 19.02-15.49 27.93a109 109 0 0 0-5.28 7.86c-3.54 5.88-8.5 10.61-13.77 14.94-1.62 1.37-1.62 1.37-4.25 4.06A34 34 0 0 1 887 262l-2.25 1.88a67 67 0 0 1-9.67 5.97C873 271 873 271 870 273c1.9 5.09 4.52 9.71 7.15 14.45a121 121 0 0 1 8.97 22.24l1.51 4.88.71 2.32q.86 2.73 1.8 5.43a31 31 0 0 1 1.42 6.87C892 333 892 333 893 336q.3 3.43.5 6.88c.4 6.65.4 6.65 1.01 9.42.57 3.15.62 6.1.62 9.29l.01 3.88v7.97c-.02 12.1-.97 24-2.48 36.01-.54 4.55-.72 8.98-.67 13.56.01 2.25-.15 4.44-.43 6.68l-.27 2.26q-.37 2.53-.85 5.05a57 57 0 0 0-.4 9.17c-.06 4.34-.38 8.66-.69 12.98-.2 3.15-.35 6.25-.32 9.4A75 75 0 0 1 888 479c-.47 8.91.11 17.75.87 26.63l.24 2.87c.42 4.54.96 8.32 2.9 12.5q.39 2.91.71 5.82c.63 4.9 1.83 9.67 3.24 14.4.98 3.56 1.7 7.04 2.3 10.67l.64 3.9.33 2.01 1 6c2.83 17.1 2.83 17.1 2.73 23.91C903 590 903 590 904 591q.1 2.17.06 4.34l-.02 2.72-.08 5.65c-.04 4.4.03 8.69.53 13.07.74 6.59.65 13.17.63 19.78l.02 3.89v7.03C905 650 905 650 904 651a86 86 0 0 0-.06 5.06l.02 2.79.04 2.15 1.88.26c12.7 2.02 25.34 5.86 35.68 13.68 1.44 2.06 1.44 2.06 2.2 4.87-1.22 5.14-4.44 7.39-8.76 10.19-27.55 14.31-64.73 12.23-94.8 12.25h-3.7c-27.53 0-54.97-1.32-82.45-2.82a4072 4072 0 0 0-26.87-1.36l-8.2-.4-17.08-.85-10.47-.51q-5.9-.27-11.79-.61c-20-1.07-40.05-.94-60.08-.95h-2.98c-32.19-.02-64.2.64-96.32 3.01l-10.3.74c-37.19 2.66-37.19 2.66-55.68 4.61a174 174 0 0 1-21.53 1.02l-2.9-.03q-3.43-.03-6.85-.1v-1c67.73-6.95 67.73-6.95 89.61-7.71l2.24-.08 1.87-.05q2.97-.23 5.94-.64c29.38-3.7 59.62-2.84 89.17-2.78q8.33.01 16.67-.01a1265 1265 0 0 1 79.35 2.14l11.08.63 2.13.12 16.93.93 14.48.83c28.5 1.68 56.92 2.91 85.47 2.87h3.7c39.41-.08 39.41-.08 58.23-3.06l3.46-.54c28.6-4.58 28.6-4.58 36.67-12.65.62-2.81.62-2.81 0-6-7.49-7.47-20.43-10.02-30.45-12.15l-2.5-.55L901 663l-.02-2.51q-.09-11.9-.22-23.81l-.1-12.23c-.24-33.43-2.92-65.84-11.96-98.21-3.62-13.49-4.04-27.23-3.95-41.11l.01-2.47a651 651 0 0 1 1.26-39.13c.4-6.19.94-12.33 1.71-18.49a368 368 0 0 0 2.66-47.61q-.02-5.84.02-11.66c.01-17.61-.7-35.06-6.1-51.96l-.76-2.46c-3.67-11.37-8.75-22.32-15.52-32.17-1.43-3.02-1.6-4.89-1.03-8.18 2.5-2.09 2.5-2.09 5.87-3.94l3.61-2.06 1.81-1.02c8.08-4.64 14.96-10.62 21.71-16.98l1.83-1.64c16.23-15.09 25-36.78 33.18-56.85 4.41-10.78 9.27-19.74 17-28.51l2.02-2.33c8.81-9.44 21.52-17.04 34.64-17.83q4.7-.08 9.4-.09l3.23-.06c10.93-.06 20.7 2.41 30.64 6.87l2.32 1.05c7.46 3.5 13.53 8.01 19.74 13.39l1.76 1.52 7.28 6.28c7.94 6.84 16.73 14.03 27.81 13.55 5.58-.91 10.58-2.82 14.65-6.79 3.85-6.58 4.76-12.63 2.85-20.11-8.55-23.56-36.06-40.14-57.57-50.56A129 129 0 0 0 1038 100l-2.56-.87c-12.72-4.16-24.89-5.67-38.19-5.63h-2.04c-26.63.18-47.84 8.82-68.2 25.5l-2.62 2C910.76 132.4 902 150.04 895 166c-13.28 30.19-29.65 56.29-60.88 70.48-5.3 1.3-10.39.41-15.59-.94l-3.67-.93-7.49-1.95c-14.65-3.69-28.78-5.02-43.83-4.98q-3.6 0-7.23-.04a156 156 0 0 0-32.3 3.36l-3.38.68c-40.82 8.72-79.53 26.2-116.15 45.94-5.04 2.7-10.17 5.22-15.29 7.76a619 619 0 0 0-24.59 12.93A932 932 0 0 1 542.5 310a1402 1402 0 0 0-32.69 17.46c-8.36 4.58-16.77 9.08-25.18 13.59l-7.6 4.1c-27.79 15.06-27.79 15.06-39.28 19.91l-2.27.96c-3.43 1.38-5.73 1.98-9.48 1.98l-.4-1.7c-13.77-56.59-13.77-56.59-26.6-65.3-4.02-1.21-6.29-1.71-10.17-.1-9.35 5.72-16 14.98-22.68 23.47a230 230 0 0 1-7.96 9.13l-1.42 1.57c-3.75 4.07-6.5 6.06-11.94 7.01l-3.17.57-3.4.6c-16.36 3.02-32.78 6.41-48.13 12.97-7.05 1.76-13.43-.36-19.88-3.22l-2.16-.91a404 404 0 0 1-12.4-5.55c-19.63-9.01-19.63-9.01-28.69-6.54-3.89 2.49-5.88 4.51-7 9-2.67 27.51 4.9 56.04 11.64 82.49 1.1 4.32 1.94 8.6 2.61 13.01 9.11 54.52 9.11 54.52 23.75 70.5l2.44 2.69L263 520l1.56 1.57c6.48 6.22 16.45 12.84 25.44 14.43-1.7 3.93-4.29 7.12-6.94 10.44l-1.47 1.86a587 587 0 0 1-12.98 15.62 387 387 0 0 0-7.05 8.58 256 256 0 0 1-12.14 13.73 258 258 0 0 0-7.5 8.36c-4.7 5.4-9.74 10.45-14.79 15.52l-5 5.07c-24.35 24.6-24.35 24.6-36.5 25.22l-4.5-.02c-8.82.21-14.68 2-20.96 8.51-5.33 6.55-7.77 13.2-7.45 21.66.64 5.62 2.18 9.77 6.34 13.7 7.58 5.68 15.47 7.46 24.81 7.31l2.92-.02c7.6-.22 13.6-1.7 20.21-5.54l2.64-1.45a177 177 0 0 0 4.62-2.63C216 681 216 681 218 681l-.99 2.97c-1.2 4.2-1.24 8.13-1.14 12.47l.03 2.21q.04 2.68.1 5.35h-2c-2.78-5.56-2.65-11.06-1-17l-3.08 1.46c-13.09 6.07-23.48 8.81-37.92 5.54l-2.5-.56c-7.33-2.04-14.14-6.44-18-13.13-2.96-7.08-3.53-14.57-.75-21.75q1.07-2.3 2.25-4.56l1.62-3.12L156 649h2l2-4h2l.67-1.86c2.57-4.14 7.86-4.84 12.33-6.14 3.76-.8 6.25-1.16 10-.37 7.1.88 12.8-4.38 18.2-8.41 4.47-3.54 8.64-7.33 12.8-11.22l3.94-3.62 4.25-3.94 2.01-1.86c6.04-5.64 11.66-11.39 15.8-18.58l2-1a313 313 0 0 0 3.71-4.46c1.3-1.54 1.3-1.54 3.23-3.41 2.55-2.63 4.58-5.53 6.7-8.52L259 570h2l2-4h2l.75-1.62c3.21-6.1 7.47-11.33 12.1-16.4l1.9-2.1 1.8-1.95A12 12 0 0 0 284 538l-2.69-1.31a109 109 0 0 1-8.3-4.69l-1.94-1.14A66 66 0 0 1 247 505l-1.62-2.64c-1.48-2.54-1.89-4.48-2.38-7.36q-1.43-4.43-3-8.81a108 108 0 0 1-2.5-10.03c-.65-2.79-1.58-5.45-2.5-8.16a86 86 0 0 1-2.5-11.56c-.5-3.44-.5-3.44-1.5-6.69-1.09-4.07-1.46-7.91-1.76-12.1-.63-6.8-2.6-13.46-4.2-20.09l-1.43-5.97-.92-3.84-.84-3.49c-.85-3.26-.85-3.26-1.95-6.48-1-3.08-.97-5.57-.9-8.78l-1-3q-.55-4-1-8l-.29-2.31a106 106 0 0 1-.7-12.69l-1-2c-.06-7.16.01-13.47 5-19l2.05-2.75c4.31-3.3 8.56-4.08 13.94-4.25 2.92.56 5.34 1.7 8 3q2.47.99 4.94 1.94a404 404 0 0 1 16.41 7.13A116 116 0 0 0 278 352l2.56 1.19c5.24 1.74 9.52-1.1 14.24-3.28 2.7-1.12 5.32-1.47 8.2-1.91l3.44-1.5c3.63-1.53 6.67-2.01 10.56-2.5l4.85-1.46c2.86-.72 5.73-1.12 8.65-1.54 4.68-.68 9-1.59 13.5-3l2.62-.37c3.12-.83 4.93-2.58 7.38-4.63h2l.75-1.87c1.5-2.53 2.7-2.85 5.25-4.13 1.06-1.81 1.06-1.81 2-4 3.41-6.16 7.98-11.11 13-16l2.31-2.5c5.13-4.77 10.43-8.63 17.7-8.5 8.38 4.36 12.2 10.71 16 19l1.05 2.16c2.71 5.67 4.35 11.52 6.01 17.57a66 66 0 0 0 2.43 7.15c1.6 4.04 2.63 8.22 3.7 12.43q.25 1.06.53 2.14c.72 2.93 1.27 5.53 1.27 8.55l2.12-.87a101 101 0 0 1 5.82-2.07c3.2-1.11 6.05-2.5 9.06-4.06l3.75-1.87 2.04-1.02 7.33-3.67 2.56-1.28q2.75-1.37 5.51-2.72c3.33-1.71 6.57-3.56 9.81-5.44q6.39-3.7 13-7 4.52-2.47 9-5l4.7-2.62c.33-.2.33-.2 2.06-1.17q2.55-1.36 5.11-2.63c3.24-1.63 6.36-3.39 9.5-5.2l3.68-2.11 6.1-3.5 6.47-3.71 2.05-1.18A35 35 0 0 1 547 304a89 89 0 0 0 4.62-2.75c5-3.07 10.11-5.7 15.38-8.25l3.25-1.62q2.73-1.38 5.48-2.71c4.14-2.11 8.14-4.45 12.15-6.8A68 68 0 0 1 598 277q1.86-.88 3.7-1.81 3.31-1.7 6.7-3.35a148 148 0 0 0 12.85-7.03A43 43 0 0 1 632 260q3.03-1.46 6-3c5.48-2.8 5.48-2.8 8.37-3.93 3.52-1.43 6.85-3.2 10.23-4.95A31 31 0 0 1 663 246q2.3-.87 4.56-1.81A216 216 0 0 1 691 236l4.5-1.5A231 231 0 0 1 715 229l1.94-.5c6.36-1.55 12.8-2.28 19.3-3.03q3.53-.43 7.02-1.03c3.27-.53 6.43-.44 9.74-.44l1.83-.49c2.78-.65 5.38-.64 8.23-.63l3.16-.01C769 223 769 223 772 224c3.03.07 6.05 0 9.1-.06 2.54.05 4.46.38 6.9 1.06q2.18.25 4.37.44c3.8.39 7.01 1.31 10.63 2.56 3.32.74 6.66 1.37 10 2a92 92 0 0 1 8.44 2l3.56 1 2.94.88c4.43.18 7.31-1.66 11.06-3.88l2.7-1.56L844 227l2.56-1.5c2.44-1.5 2.44-1.5 4.44-3s2-1.5 4.31-2.69c3.24-2.18 5.4-4.77 7.84-7.77C865 210 865 210 867.4 208.21c3.33-2.82 5.44-6 7.8-9.65l1.32-1.98a52 52 0 0 0 5.5-10.58q2.16-4.4 4.42-8.74A78 78 0 0 0 891 166a166 166 0 0 1 2.94-6l1.52-3 1.54-3 1.6-3.22c2.43-4.83 5.33-9.33 8.4-13.78l1.75-2.58c3.72-5.33 7.41-9.83 12.45-13.94 1.8-1.48 1.8-1.48 4.24-4.04 2.9-2.77 6-4.79 9.36-6.96a53 53 0 0 0 5.4-4.17c4.71-3.88 10.18-5.99 15.8-8.31l3.44-1.5c4.87-1.83 9.98-2.62 15.1-3.5 6.96-1.2 12.96-2.22 20.14-2.24" fill="#E7E7E9"/><path d="m395.06 298.94 1.85.2c7.9 3.22 11 10.45 14.22 17.78A240 240 0 0 1 417.6 335q1.17 3.6 2.4 7.19l1.52 4.65.71 2.13c3.84 11.89 3.84 11.89 1.77 16.03a125 125 0 0 0-.06 6.13l.02 3.32.04 2.55h-2l-1.06-2.06c-4.62-7-13.98-13.28-21.94-15.94v-2l-2.17-.38a56 56 0 0 1-8.08-2.56c-6-2.07-11.84-2.84-18.14-3.37-5.42-.5-5.42-.5-7.6-2.7.34-4.5 1.77-8.24 3.55-12.36l1.38-3.21L369 330h2l.77-2.14a55 55 0 0 1 4.85-8.61C380 314.1 380 314.1 380 313a79 79 0 0 0-7 6l-2-2q3.01-3.39 6.06-6.75l1.7-1.92c4.15-4.55 9.53-10.44 16.3-9.4" fill="#252623"/><path d="M229 339v2q2.92.98 5.91 1.8c13.95 4.16 29.81 11.63 40.09 22.2l1 3-2.34 2.12q-4.1 3.73-8.14 7.48a313 313 0 0 1-3.82 3.45c-5.9 5.51-9.76 11.97-13.7 18.95l-1.32 2.33c-2.36 4.44-3.63 8.76-4.68 13.67h-2l.12 3.75c.02 3.27-.26 5.46-2.12 8.25h-2c-4.03-9.41-6.39-18.64-8.19-28.69l-1.48-8.01-.63-3.53C225 385 225 385 223 383l1-4-2-2-2 3c-.8-6.93-1.21-13.78-1.25-20.75l-.06-2.75c-.03-5.27.33-8.96 3.31-13.5 4.32-4 4.32-4 7-4" fill="#272825"/><path d="M813 575c13.7 6.07 27.98 19.8 33.44 33.66 3.43 9.68 4.73 18.5 4.68 28.72l.02 2.76-.01 2.63v2.39C851 647 851 647 850 648q-2.71.37-5.44.69c-4.72.71-7.73 1.81-11.62 4.56-4.04 2.72-6.28 3.02-11.06 2.13A101 101 0 0 1 817 654l.44-5.38.24-3.02q.25-2.87.57-5.73c2.01-17.62 2.36-36.66-2.25-53.87l-.87-3.39q-1-3.82-2.13-7.61" fill="#E9EBEA"/><path d="M257 343.56a75 75 0 0 0 11.9 4.75 85 85 0 0 1 11.48 4.87c3.86 1.2 7.61.97 11.62.82-5.15 3.43-8.03 3.1-14 2a67 67 0 0 1-7.75-3l-2.16-.9a404 404 0 0 1-12.4-5.57c-19.63-9-19.63-9-28.69-6.53-3.89 2.48-5.88 4.5-7 9-2.67 27.51 4.9 56.04 11.64 82.5a136 136 0 0 1 2.61 13c9.11 54.52 9.11 54.52 23.75 70.5l2.44 2.68c.42.4.42.4 2.56 2.32l1.56 1.57c6.48 6.21 16.46 12.84 25.44 14.43-1.7 3.93-4.29 7.11-6.94 10.44l-1.47 1.86a587 587 0 0 1-12.98 15.62 387 387 0 0 0-7.05 8.58 259 259 0 0 1-12.14 13.73 258 258 0 0 0-7.5 8.36 323 323 0 0 1-14.79 15.52l-5 5.07c-24.35 24.6-24.35 24.6-36.5 25.22q-2.25 0-4.51-.03c-8.81.22-14.67 2.01-20.94 8.52-5.34 6.55-7.78 13.2-7.46 21.65.64 5.63 2.18 9.78 6.34 13.71 7.59 5.68 15.47 7.46 24.82 7.31l2.92-.03c7.59-.2 13.58-1.69 20.2-5.53l2.64-1.45q2.34-1.28 4.62-2.63C216 681 216 681 218 681l-.99 2.97c-1.2 4.2-1.24 8.13-1.13 12.47l.02 2.21.1 5.35h-2c-2.78-5.56-2.65-11.06-1-17l-3.08 1.46c-13.09 6.07-23.48 8.81-37.92 5.54l-2.5-.56c-7.33-2.04-14.14-6.45-18-13.13-2.96-7.08-3.53-14.57-.75-21.75q1.07-2.31 2.25-4.56l1.62-3.13L156 649h2l2-4h2l.68-1.87c2.56-4.13 7.85-4.83 12.32-6.13 3.76-.8 6.25-1.16 10-.38 7.11.9 12.81-4.37 18.2-8.4 4.47-3.54 8.64-7.33 12.8-11.22l3.94-3.63 4.25-3.93 2.01-1.86c6.04-5.64 11.66-11.39 15.8-18.58l2-1q1.88-2.21 3.71-4.47c1.29-1.53 1.29-1.53 3.23-3.4 2.55-2.64 4.59-5.53 6.69-8.52l1.37-1.6h2l2-4h2l.75-1.64c3.21-6.09 7.47-11.32 12.09-16.39l1.91-2.1 1.8-1.95A12 12 0 0 0 284 538l-2.69-1.32A106 106 0 0 1 273 532l-1.93-1.14A66 66 0 0 1 247 505l-1.62-2.64c-1.48-2.54-1.89-4.48-2.38-7.36q-1.42-4.43-3-8.82a110 110 0 0 1-2.5-10.02c-.65-2.79-1.58-5.45-2.5-8.16a86 86 0 0 1-2.5-11.56c-.5-3.44-.5-3.44-1.5-6.69-1.09-4.07-1.46-7.92-1.75-12.1-.64-6.8-2.61-13.46-4.21-20.09l-1.42-5.97-.93-3.84-.84-3.49c-.85-3.26-.85-3.26-1.95-6.49-1-3.07-.97-5.56-.9-8.77l-1-3q-.55-4-1-8l-.29-2.32c-.51-4.26-.71-8.38-.71-12.68l-1-2c-.05-7.16.03-13.48 5-19l2.19-2.75c11.05-8.84 24.05-1.2 34.81 4.31" fill="#E4E5E6"/><path d="M361 564h4c-1.59 3.91-4.14 6.37-7.12 9.31l-1.5 1.47a209 209 0 0 1-10.55 9.61c-2.47 2.17-4.75 4.51-7.05 6.86-2.5 2.46-5.16 4.71-7.81 7-1.9 1.69-3.69 3.44-5.47 5.25-3.04 3.1-6.25 5.93-9.54 8.76a91 91 0 0 0-5.27 5.12 103 103 0 0 1-9.13 8.06A102 102 0 0 0 292 634a125 125 0 0 1-11.94 10.5 299 299 0 0 0-8.36 7.11 589 589 0 0 1-7.16 6.08 120 120 0 0 0-3.76 3.37c-7.19 5.95-16.9 4.92-25.78 4.94 3.98-4.21 8.31-7.66 12.94-11.12l4.58-3.48 2.29-1.74c8.65-6.58 17.11-13.39 25.59-20.18q6.24-5 12.54-9.92c7.08-5.54 14.05-11.21 21.01-16.89l6.16-5a912 912 0 0 0 20.07-16.63c4.68-3.97 9.48-7.76 14.33-11.51A68 68 0 0 0 361 564" fill="#EBEAED"/><path d="M902 614h1v26h2l.06 4.94.04 2.77C905 650 905 650 904 651a95 95 0 0 0-.06 5.06l.02 2.79.04 2.15 1.88.26c12.69 2.02 25.34 5.86 35.68 13.68 1.44 2.06 1.44 2.06 2.19 4.87-1.21 5.14-4.42 7.39-8.75 10.19-27.55 14.31-64.73 12.23-94.81 12.25h-3.69c-27.53 0-54.96-1.32-82.45-2.82q-12.39-.67-24.78-1.26l-2.09-.1-8.21-.4-17.06-.85-10.47-.51q-5.9-.27-11.8-.61c-20.01-1.07-40.05-.94-60.08-.95h-2.98c-32.19-.02-64.2.64-96.31 3.01l-10.31.74c-37.18 2.66-37.18 2.66-55.68 4.61-7.2.76-14.29 1.15-21.53 1.01l-2.91-.02-6.84-.1v-1c67.73-6.95 67.73-6.95 89.61-7.71l2.25-.08 1.86-.05q2.99-.23 5.94-.64c29.38-3.7 59.62-2.84 89.17-2.78q8.33.01 16.67-.01a1265 1265 0 0 1 79.35 2.14l11.08.63 2.13.12 16.93.93 14.48.83c28.5 1.68 56.92 2.91 85.47 2.87h3.69c39.42-.08 39.42-.08 58.25-3.06l3.46-.54c28.59-4.58 28.59-4.58 36.66-12.65.62-2.81.62-2.81 0-6-9.26-9.23-27.8-11.51-39-14z" fill="#ECEDEC"/><path d="m611.83 691.74 16.68-.01c27.22-.04 54.32.56 81.49 2.27v1c-9.75 1.29-19.53 1.32-29.35.78-20.34-1.12-40.72-1.02-61.08-1.03h-3c-32.18-.01-64.18.64-96.3 3l-10.31.75c-37.18 2.66-37.18 2.66-55.68 4.6a174 174 0 0 1-21.53 1.03l-2.9-.03-6.85-.1v-1c67.74-6.95 67.74-6.95 89.62-7.71l2.24-.08 1.86-.05q2.99-.23 5.94-.64c29.38-3.7 59.63-2.84 89.17-2.78" fill="#E5E8E5"/><path d="m409 450 2 2c-22.22 14.41-22.22 14.41-27 16-1.19 2.06-1.19 2.06-2 4h-2v2h-6v2l-5.94 1.06-3.34.6-2.72.34c-1-1-1-1-1.38-3.71.5-4.29 2.47-6.17 5.5-8.98l1.44-1.43A34 34 0 0 1 378 457l2.96-1.32c9.47-3.96 17.63-6.75 28.04-5.68" fill="#141715"/><path d="M914 231h2c-4.2 8.72-9.91 15.49-17.38 21.62-1.62 1.38-1.62 1.38-4.24 4.07A34 34 0 0 1 887 262l-2.25 1.88a68 68 0 0 1-9.66 5.97C873 271 873 271 870 273c1.91 5.09 4.52 9.71 7.15 14.45a121 121 0 0 1 8.97 22.24l1.51 4.88.71 2.32q.86 2.73 1.8 5.43a31 31 0 0 1 1.42 6.87C892 333 892 333 893 336q.36 2 .62 4l.29 2.06C894 344 894 344 893 347a70 70 0 0 0-.21 4.1l-.06 2.49-.05 2.67-.06 2.75-.18 8.68-.13 5.88L892 388h-1l-.04-3.72-.22-13.98-.09-5.99c-.2-17.02-1.12-34.17-6.34-50.5l-.76-2.46c-3.67-11.37-8.74-22.32-15.52-32.17-1.43-3.02-1.61-4.89-1.03-8.18 2.49-2.09 2.49-2.09 5.88-3.94l3.6-2.06 1.81-1.02c8.07-4.64 14.98-10.61 21.71-16.98l1.94-1.81a93 93 0 0 0 10.58-12.47z" fill="#E6E6E9"/><path d="M892 347c3.38 3.51 3.41 6.74 3.33 11.37l-.01 2.18q0 2.28-.04 4.56l-.05 6.86a311 311 0 0 1-2.57 37.48c-.54 4.55-.72 8.98-.67 13.56.01 2.25-.15 4.44-.43 6.68l-.27 2.26q-.37 2.53-.85 5.05a57 57 0 0 0-.41 9.17c-.05 4.34-.37 8.66-.67 12.98-.3 4.29-.37 8.55-.36 12.85l-1 7a803 803 0 0 0-1 13h-1c-.57-45.71-.57-45.71 1.38-64.94l.2-2.03q.68-6.51 1.42-13.03c2.28-21.62 2.61-43.28 3-65" fill="#EAEBEC"/><path d="m350 486.75 2.62-.08c2.38.33 2.38.33 4.2 1.69 1.18 1.64 1.18 1.64 1.06 4.08-.88 2.56-.88 2.56-2.44 4.5C354 499 354 499 354 502.06c0 2.94 0 2.94-1.19 4.88-1.81 1.06-1.81 1.06-4.37.87C346 507 346 507 344 505v-3l-2.31-.81c-4.11-1.82-4.11-1.82-5.69-4.19 0-2.44 0-2.44 1-5 4.13-3.91 7.39-5.15 13-5.25" fill="#676865"/><path d="M881 190h2c-7.47 20.78-29.16 36.28-48 46-5.74 1.91-11.03.96-16.78-.5l-7.72-1.94-7.72-1.93-3.43-.87c-3.44-.78-6.86-1.31-10.35-1.76 2.64-1.41 5.01-2.65 8-3q3.01.94 6 2c3.32.75 6.66 1.37 10 2a92 92 0 0 1 8.44 2l3.56 1 2.94.88c4.43.18 7.31-1.66 11.06-3.88l2.69-1.56L844 227l2.56-1.5c2.44-1.5 2.44-1.5 4.44-3s2-1.5 4.31-2.69c3.24-2.18 5.39-4.77 7.85-7.77 1.84-2.04 1.84-2.04 4.2-3.78 3.55-3.04 5.8-6.61 8.33-10.51q1.43-2.2 2.88-4.39l1.27-1.95z" fill="#DFE0E2"/><path d="M224 402h1l.41 1.92c4.47 20.85 4.47 20.85 6.21 27.46.96 3.67 1.69 7.33 2.3 11.07 2.78 17.1 7.47 33.87 12.08 50.55-2.44-1.19-2.44-1.19-5-3-.62-2.12-.62-2.12-1-5q-.66-1.98-1.38-3.94c-1.77-5.18-2.83-10.46-3.93-15.82a89 89 0 0 0-1.81-7.18A70 70 0 0 1 231 448l-1-2q-.3-2.66-.5-5.31a80 80 0 0 0-2.73-15.27l-.68-2.58-1.45-5.27c-1.48-5.63-1.74-9.84-.64-15.57" fill="#D7D8D8"/><path d="m152 673 .75 1.62c4.3 8.18 8.96 12.2 17.45 15.52 4.56 1.4 8.93 1.5 13.68 1.42l2.92-.02c7.59-.22 13.58-1.7 20.2-5.54l2.64-1.45q2.34-1.28 4.62-2.63C216 681 216 681 218 681l-.99 2.97c-1.2 4.2-1.24 8.13-1.13 12.47l.02 2.21.1 5.35h-2c-2.78-5.56-2.65-11.06-1-17l-3.08 1.46c-13.09 6.07-23.48 8.81-37.92 5.54l-2.5-.56a31 31 0 0 1-17.62-12.56c-.96-3.13-.88-4.8.12-7.88" fill="#DBDCDD"/><path d="m287 474 .26 1.76c1.26 6.99 3.47 10.59 9.05 15.12L298 492c-7.67.87-14.92-2.09-21.14-6.53-1.67-1.53-1.67-1.53-3.86-4.47.09-2.07.09-2.07 1-4 1.93-1.05 1.93-1.05 4.31-1.75l2.37-.73C283 474 283 474 287 474" fill="#E8BD65"/><path d="M373.23 461.07c3.68 1.93 4.99 6.35 6.77 9.93q-3.61 1.8-7.25 3.56l-2.06 1.04c-3.71 1.78-5.77 2.71-9.7 1.4-.43-3.94-.31-5.55 2.06-8.81l2.7-2.63 2.68-2.68c2.57-1.88 2.57-1.88 4.8-1.81" fill="#E0C179"/><path d="M365 564c-1.59 3.91-4.14 6.37-7.12 9.31l-1.5 1.47q-5.1 4.98-10.52 9.58c-3.1 2.73-5.98 5.68-8.86 8.64l-2-3 5-5-4 1a254 254 0 0 1 20.38-18.56l2.39-2.01C361 564 361 564 365 564" fill="#E6E8E8"/><path d="m1110 156 3 1c.21 9.68-.23 15.68-6.89 23.14-4.93 4.35-11.01 5.44-17.36 6.3A41 41 0 0 1 1073 181c-1.36-2.17-1.36-2.17-2-4 5.48 1.78 5.48 1.78 7.9 2.8 6.91 2.88 12.32 3.05 19.35.51 4.99-2.17 7.49-4.61 9.8-9.58 1.07-3.07 1.36-5.8 1.57-9.04l.23-3.24z" fill="#E8E8E9"/><path d="M229 339v2l3 1q2.01.98 4 2h-7l-1 2-3 2-1 3h-2l.56 3.25c.7 5.57.42 11.23-.56 16.75l-2 2c-1.47-4.41-1.22-8.7-1.25-13.31l-.06-2.84c-.03-5.38.24-9.22 3.31-13.85 4.32-4 4.32-4 7-4" fill="#1A1B1C"/><path d="m882 305 3 1a39 39 0 0 1 2.06 6.19l.98 3.42.96 3.39 1.09 3.16a31 31 0 0 1 1.47 7.03C892 333 892 333 893 336q.36 2 .62 4l.29 2.06C894 344 894 344 893 347a70 70 0 0 0-.21 4.1l-.06 2.49-.05 2.67-.06 2.75-.18 8.68-.13 5.88L892 388h-1l-.04-3.72-.22-13.98-.09-5.99c-.22-18.67-1.95-36.27-7.66-54.1C882 307 882 307 882 305" fill="#BCBCBE"/><path d="m940 177 2 3c-.84 2.91-.84 2.91-2.36 6.43l-.8 1.89q-1.28 3-2.59 5.99l-2.55 5.96q-1.16 2.73-2.34 5.43c-1.36 3.3-1.36 3.3-2.44 6.55-1.14 3.41-2.83 5.81-4.92 8.75l-3.75 5.38L917 231l-3-1 1.21-1.52c11.4-15.16 17.69-34.07 24.79-51.48" fill="#E4E4E6"/><path d="M184 638v1l-2.27.23c-9.48 1.21-17.06 4.02-23.17 11.65-5.36 8.04-6.14 15.55-6.56 25.12h-2c-1.34-8.48-.99-14.36 3-22l1.62-3.12L156 649h2l2-4h2l.67-1.86c1.8-2.89 3.45-3.27 6.64-4.33l2.87-.98c7.87-2.32 7.87-2.32 11.82.17" fill="#E7EAE6"/><path d="M838 696h36v2h12v1c-17.34 1.08-34.63 1.11-52 1l4-1z" fill="#C0C2C1"/><path d="m226 608 2 1c-9.43 9.79-18.89 19.12-30 27l-2.19 1.56c-5.8 3.5-12.24 2.8-18.81 2.44v-1l2.81-.44C183 638 183 638 186 637l3.44-.5c10.33-2.56 18.96-12.47 26.56-19.5l5.62-5.06 2.54-2.29z" fill="#E3E5E5"/><path d="m495 579 2 1a1038 1038 0 0 1-21 15l2 2c-3.83 1.75-7.12 2.35-11.31 2.62l-3.24.23-2.45.15c4.61-3.98 9.72-6.97 14.94-10.06l2.67-1.61c4.39-2.62 8.79-5.08 13.39-7.33z" fill="#050706"/><path d="m399 300-1 2h-6l-1 3c-3.9 4.09-7.71 7-13 9-2.81 2.62-2.81 2.62-5 5l-2-2q3.01-3.39 6.06-6.75l1.7-1.92c6.18-6.77 10.94-10.29 20.24-8.33" fill="#19191C"/><path d="M1036 149a67 67 0 0 1 15.75 10.12l2.07 1.72q3.1 2.57 6.18 5.16l3.7 3.07q4.16 3.45 8.3 6.93l-2 2-3.38-2.31-1.89-1.3C1063 173 1063 173 1061 170a254 254 0 0 0-5-3l-3-3a91 91 0 0 0-10.75-7.62A26 26 0 0 1 1036 151z" fill="#E2E2E3"/><path d="m218 681-.99 2.97c-1.2 4.2-1.24 8.13-1.13 12.47l.02 2.21.1 5.35h-2c-2.78-5.56-2.65-11.06-1-17l-2.67 1.35-3.52 1.71-3.48 1.73c-3.44 1.25-4.91 1.34-8.33.21a59 59 0 0 1 6.72-3.91l2.13-1.06 2.21-1.09 2.22-1.11 4.07-2.01c3.67-1.82 3.67-1.82 5.65-1.82" fill="#C9CACA"/><path d="m323 474 1 2h-2v6h-1l-.62-3.38C319 475 319 475 316.54 473.79c-4.58-1.02-8.92-1.13-13.6-1.1h-2.81a70 70 0 0 0-18.73 2.65c-2.4.66-2.4.66-5.4.66v-2q1.96-.74 3.94-1.44l2.21-.81c11.87-3.14 30.23-4.78 40.85 2.25" fill="#040402"/><path d="M898 698c-4.86 2.76-9.83 2.77-15.31 3.19l-3.41.26c-14.1.94-28.18.27-42.28-.45v-1l1.8-.07 18.64-.73 6.95-.27 10.01-.39 3.11-.12c4.54-.19 9.02-.45 13.53-1.02 3.96-.4 3.96-.4 6.96.6" fill="#E6E8E7"/><path d="M760 223q2.16-.05 4.31-.06l2.43-.04c2.26.1 2.26.1 5.26 1.1 3.03.07 6.06 0 9.09-.06 4.43.09 7.84 1.37 11.91 3.06v1c-12.72.46-25.35-.89-38-2v-1h5z" fill="#E9E9EC"/><path d="m941 104 1 2 2 1-2.02 1.21c-9.29 5.73-18.41 11.95-24.98 20.79l-3-2 5.13-5.12q2.27-2.3 4.49-4.63c2.37-2.24 4.58-3.6 7.38-5.25 7.89-5.89 7.89-5.89 10-8" fill="#E1E2E1"/><path d="M885 465h1l.08 2.45a2028 2028 0 0 0 .48 14.78l.23 7.06C887 492 887 492 888 494q.34 3.4.56 6.81l.26 3.71q.23 4.24.18 8.48h-3c-1.3-9.86-1.11-19.7-1.06-29.62l.01-5.36z" fill="#D6D7D6"/><path d="m887 447 3 2c.06 2.66-.04 5.06-.31 7.69l-.37 4.2-.18 2.08c-.21 3.01-.15 6.01-.14 9.03l-1 7a803 803 0 0 0-1 13h-1l-.05-15.85-.03-5.39-.02-7.76-.01-2.41c0-4.64.34-9.02 1.11-13.59" fill="#EFEFF1"/><path d="M902 614h1v26h2l.06 4.94.04 2.77C905 650 905 650 904 651c-.14 3.84-.18 7.32 1 11h-4z" fill="#F2F2F3"/><path d="M901 608h2c4.39 25.42 4.39 25.42 0 32-.41 2.48-.41 2.48-.62 5.19l-.23 2.73L902 650h-1z" fill="#C9CBCA"/><path d="M411 449v2l-2.43-.21a54 54 0 0 0-21.19 3.02l-2.34.79c-3.15 1.13-5.69 2.13-8.38 4.16L375 460l-3-1c10.05-6.42 26.74-16.13 39-10" fill="#030503"/><path d="M892 347c3.17 4.23 3.37 4.91 3.29 9.86l-.03 3.38-.07 3.51-.04 3.56q-.06 4.35-.15 8.69h-2v14h-1z" fill="#F3F3F6"/><path d="M582 552h5v3q-5.64 2.84-11.31 5.62l-3.25 1.65-3.12 1.52-2.87 1.43-2.45.78-3-2 4-1v-2l3.75-1.38a60 60 0 0 0 6.44-2.74c2.22-1.08 4.38-1.48 6.81-1.88z" fill="#1D1F1D"/><path d="M900 575c2.62 4.95 3 9.46 3 15l1 1q-.14 4.29-.44 8.56l-.16 2.45-.4 5.99h-2a382 382 0 0 1-1-33" fill="#EFEFF1"/><path d="M221 374a53 53 0 0 1 4 5c-.25 2.81-.25 2.81-1 5l2-1q.55 2.63 1.06 5.25l.6 2.95c.32 2.67.2 4.29-.66 6.8l-2-3 1-2h-4c-1.01-4.16-1.1-8.04-1.06-12.31l.02-3.8z" fill="#19191B"/><path d="m940 177 2 3c-.64 2.62-.64 2.62-1.89 5.73l-1.34 3.37-1.46 3.52-1.39 3.55c-2.62 6.44-2.62 6.44-3.92 8.83l-3 1a46 46 0 0 1 3.29-10.74l1.35-3.23 1.42-3.34 1.43-3.4z" fill="#D9D8DB"/><path d="M486 587c2 3 2 3 1.62 5.19L487 594l2 1c-5.17 1.79-8.51 2.12-14 1a54 54 0 0 1 11-9" fill="#121613"/><path d="M313 346v2q-4.27 1.51-8.56 3l-2.43.87c-4.89 1.67-8.84 2.46-14.01 2.13 2.15-2.15 3.34-2.6 6.19-3.5l2.43-.78a258 258 0 0 1 6.19-1.78c3.19-.94 3.19-.94 5.44-2.13C310 345 310 345 313 346" fill="#ECEBEE"/><path d="M888 423h1c2.07 8.84 1.86 16.13 0 25h-1l-1 6h-1l.44-11 .12-3.12c.23-5.68.63-11.25 1.44-16.88" fill="#E6E8E7"/><path d="M420 340c2.87 1.43 2.96 2.98 4 6q1.15 3.95 2.19 7.94l.57 2.09c1.12 4.33 1.31 7.62.24 11.97-2.29-4.31-3.4-8.74-4.62-13.44l-.7-2.56c-1.07-4.07-2.01-7.75-1.68-12" fill="#EAEBED"/><path d="M372 460h4v2h2v4h4c1.12 3.75 1.12 3.75 0 6h-2v2h-6v2h-5c6.36-5 6.36-5 11-5l-2.44-2.81A15 15 0 0 1 374 462z" fill="#2C1D0D"/><path d="M787 698v1c-10.63 1.37-21.39 1.7-32 0 8.49-5.02 22.4-1.68 32-1" fill="#E5E7E6"/><path d="M286 480a63 63 0 0 1 6 6.56 26 26 0 0 0 6 5.44c-5.8.36-9.64-.74-15-3v-1h5v-2h-2z" fill="#CBB676"/><path d="m859 217 2 1c-5.71 5.44-11.68 10.84-19 14l-3-1c2.19-2.19 4.35-3.41 7-5q2.63-1.83 5.22-3.73 3.84-2.71 7.78-5.27" fill="#E4E4E5"/><path d="M1029.21 93.44c4.51.91 8.61 2.65 12.8 4.56-2.28 1.4-3.53 2.05-6.2 1.77l-2.36-.67-2.56-.7q-1.3-.37-2.64-.78l-2.7-.75q-3.28-.9-6.55-1.87c3.86-2.58 5.75-2.09 10.21-1.56" fill="#DADADC"/><path d="M212 685h4v19h-2c-2.8-5.59-2.61-11.02-1-17z" fill="#CFCFD1"/><path d="m287 474-1 4v-2h-2l1 4h-5l-1 3-3-2 1-5c3.62-1.32 6.1-2 10-2" fill="#E3BE5C"/><path d="M888 513c3.56 3.71 3.53 7.07 4 12l1 3h-2l-1 4-1.5-6.19-.84-3.48A29 29 0 0 1 887 514z" fill="#E3E3E5"/><path d="m244 658 5 3c-1.29 2.58-2.36 2.92-5 4-2.36.41-2.36.41-4.75.62l-2.42.23-1.83.15a64 64 0 0 1 9-8" fill="#E3E5E5"/><path d="M368 466h5l-1 6h-2v2l-1.88-.62L366 473l-2 2v-5h2z" fill="#F3C969"/><path d="M223 388h1v5h2l.44 1.94C227 397 227 397 228 398c.12 2.5.12 2.5 0 5l-1 1q-.06 2.5 0 5c-3.69-3.69-3.89-9.6-4.12-14.66q0-3.17.12-6.34" fill="#101011"/><path d="M381 302c2.12.38 2.12.38 4 1l-1.54 1.5A189 189 0 0 0 371 318l-1-4 1.46-1.17 1.92-1.58 1.89-1.55c1.83-1.8 2.65-3.4 3.73-5.7z" fill="#ECEBED"/><path d="m989.6 139.9 6.76.05 5.64.05v3l-2.7-.04-3.55-.02-3.51-.04c-2.65.08-4.74.31-7.24 1.1 0-4.36.14-3.98 4.6-4.1" fill="#E7E8E5"/><path d="M197 692v2c-7.68 1.69-13.43 2.27-21 0v-1l8.25-.5 2.36-.14 2.28-.14 2.1-.13c2-.09 4-.09 6.01-.09" fill="#EDEFEE"/><path d="M323 477c3 1 3 1 5 4-.12 2.06-.12 2.06-1 4-1.88 1.31-1.88 1.31-4 2l-3-1z" fill="#CCC092"/><path d="m876 289 3 1c1 2.06 1 2.06 2 5l1.62 4.19c1.38 3.56 1.38 3.56 1.38 5.81-3-1-3-1-4.39-3.36l-1.3-2.95-1.32-2.93C876 293 876 293 876 289" fill="#E9E9EC"/><path d="M760 223c6.2-.38 10.45.16 16 3a22 22 0 0 1-8.11.88l-2.28-.15-2.36-.17-2.4-.16q-2.92-.18-5.85-.4v-1h5z" fill="#F1F1F3"/><path d="M813 575c3.57 1.79 5.43 3.07 8 6v2l-1.94.38-2.06.62-1 2z" fill="#DCDCDC"/><path d="M461 352v2l-15 7v-3c10.2-6 10.2-6 15-6" fill="#E2E3E7"/><path d="M329 344v1q-3.12.8-6.25 1.56l-3.52.88c-2.95.51-4.47.59-7.23-.44 5.31-4.68 10.49-5.86 17-3" fill="#DDDDDF"/><path d="M243 337c1.77 1.58 1.77 1.58 3 3-3.87 1.49-6.2.34-10-1a166 166 0 0 0-7-1v-2c4.79-1.54 9.36-.7 14 1" fill="#ECEDED"/><path d="M982 93v1a605 605 0 0 1-19 3v-2c6.77-2.2 11.97-3.46 19-2" fill="#E2E2E4"/><path d="m165 690 3.34.46c5.05.64 10.09.88 15.16 1.1l2.78.13 6.72.31v1q-5.03.38-10.06.69l-2.86.22c-5.94.35-9.82-.07-15.08-2.91z" fill="#C5C7C6"/><path d="m204 697 1.81 1c2.19 1 2.19 1 5.19 1v3c-2.35 1.43-3.48 2.09-6.25 1.62L203 703c-.62-1.88-.62-1.88-1-4z" fill="#D7D6D9"/><path d="M415 336h3c1.58 4.15 2.4 7.55 2 12l-2 2q-.76-2.37-1.5-4.75l-.84-2.67C415 340 415 340 415 336" fill="#1D1D1F"/><path d="m368 660 1 2h-2v2h5c-3.12 1.79-5.68 2.34-9.25 2.62l-2.7.23-2.05.15c2.99-3.34 5.93-5.15 10-7" fill="#E6E6E6"/><path d="m1110 156 3 1-1 15h-3z" fill="#ECEBF0"/><path d="m362 470 3 3 2-1 1 4c-3 2-3 2-5.19 1.62L361 477q-.06-3 0-6z" fill="#D3BB75"/><path d="M870 208c-1.38 3.21-2.92 5.05-5.62 7.25l-1.92 1.58L861 218l-2-2 4.38-4 2.46-2.25C868 208 868 208 870 208" fill="#D9DADB"/><path d="M184 638v1l-15 2v-2q2.62-.84 5.25-1.62l2.95-.92c3.12-.51 4.22-.17 6.8 1.54" fill="#EDF0ED"/><path d="m199 689-1 2c-3.56 1.19-6.44 1.1-10.19 1.06l-3.85-.02L181 692v-1l1.83-.15 2.42-.23 2.39-.21c2.36-.41 2.36-.41 4.48-1.47 2.58-1.29 4.18-.69 6.88.06" fill="#060808"/><path d="m477 593 2.19.56c2.81.44 2.81.44 5.5-.12L487 593l2 2c-5.17 1.79-8.51 2.12-14 1z" fill="#202121"/><path d="M274 477h4l-.56 1.81C277 481 277 481 278 484l3 1-2 2q-1.55-1.35-3.06-2.75l-1.73-1.55c-1.21-1.7-1.21-1.7-.89-3.9z" fill="#D7BA73"/><path d="m604 278-13 6-1-3c9.5-4.12 9.5-4.12 14-3" fill="#E4E2E4"/><path d="m339 584 2 1-3.81 4.39C336 591 336 591 335 594h-2c-.69-1.75-.69-1.75-1-4 1.75-3.13 3.62-4.8 7-6" fill="#F6F7F7"/><path d="m922 218 2 3-7 10-3-1 1.5-2.12 1.94-2.76 1.93-2.74C921 220 921 220 922 218" fill="#DADADC"/><path d="M899 566a26 26 0 0 1 3 9h-2v8h-1l-.56-7.94-.17-2.28q-.19-2.89-.27-5.78z" fill="#D9DAD9"/><path d="M887 431h1l1 17h-1l-1 6h-1z" fill="#B0B1B1"/><path d="M728 226c3.09.53 5.1 1.55 8 3l-14 1v-3l2.44.06C727 227 727 227 728 226" fill="#E9E9EB"/><path d="M492 336c-2.72 3.37-6.07 4.44-10 6 1.45-4.6 1.45-4.6 3.88-6.38 2.45-.72 3.73-.47 6.12.38" fill="#E1E2E5"/><path d="M209 688c-2.72 2.72-5.4 3.72-9 5-2.94-.31-2.94-.31-5-1 4.78-3.19 8.22-4.27 14-4" fill="#D3D3D5"/><path d="m960 152 1 3-8 8-3-1z" fill="#DEDEDE"/><path d="m969 146 3 1a19 19 0 0 1-9 6l-2 1c1.5-4.2 4.17-5.89 8-8" fill="#E9EAE7"/><path d="M932 113c-1.16 3.49-2.14 4.1-5.06 6.19l-2.23 1.6L923 122c.34-3.14.55-4.59 2.94-6.75 3.71-2.25 3.71-2.25 6.06-2.25" fill="#D9DBDA"/><path d="M367 660c-2.54 2.97-5.49 4.36-9 6 .19-1.81.19-1.81 1-4 4.26-3.25 4.26-3.25 8-2" fill="#191B19"/><path d="m341 584 3 1-2.88 3.44-1.61 1.93C338 592 338 592 336 593l-1-3z" fill="#DDDEDE"/><path d="m882 305 3 1a22.4 22.4 0 0 1 2 11c-2-1-2-1-2.85-3l-.77-2.44-.79-2.43C882 307 882 307 882 305" fill="#E0DFE4"/><path d="m559 297 4 2-10 5c1.88-3.77 2.69-4.79 6-7" fill="#E5E4E6"/><path d="M242 492c3.88.88 3.88.88 5 2 .19 2.94.19 2.94 0 6l-2 2-.94-3.31q-.95-3.37-2.06-6.69" fill="#EAEBE9"/><path d="M249.56 340.25C252 342 252 342 254 345l-10-3v-2c3-1 3-1 5.56.25" fill="#D9D9DB"/><path d="m551 301 3 1c-2.77 3.08-5.06 4.69-9 6 1.38-3.34 2.85-5.19 6-7" fill="#EEEDF1"/><path d="M623 267a25.4 25.4 0 0 1-11 6l-1-2c4.19-3.19 6.71-4.5 12-4" fill="#E5E6E5"/><path d="M1071 177c3.72 1.21 7.38 2.51 11 4l-2 1-1 2-4-2.38-2.25-1.33L1071 179z" fill="#E8E9E7"/><path d="M183 637h7v3h-13v-1l6-1z" fill="#CED1CE"/><path d="M297 628h2c-1.53 3.44-3.6 6.12-6 9l-3-1 2.94-3.44 1.65-1.93q1.16-1.36 2.41-2.63" fill="#1A181D"/><path d="M437 616c-2.35 2.72-4.62 3.81-8 5v-3c4.28-3.24 4.28-3.24 8-2" fill="#191A1B"/><path d="M425 356c2.81 2.81 2.73 5.11 3 9l-2 3c-1.47-4.41-2.37-7.48-1-12" fill="#D1D3D0"/><path d="m499 329 2 1c-3.17 3.54-5.17 5.59-10 6 1-3 1-3 4-4.62l3-1.38z" fill="#EEEEF1"/><path d="m369 316 2 3-6 7-1-3c1.41-2.76 2.8-4.8 5-7" fill="#DDE0DE"/><path d="M868 270c2.19 3.28 3 6.21 4 10h-3c-2.29-3.44-2.26-4.97-2-9z" fill="#DDDEE0"/><path d="m198 632 3 2q-1.9 1.3-3.81 2.56l-2.15 1.44c-2.04 1-2.04 1-5.04 0 2.62-2.12 5.2-4.13 8-6" fill="#DCDFDD"/><path d="M287 474h3v8l-2 1c-1.48-2.96-1.06-5.74-1-9" fill="#281A09"/><path d="M340 343c-2.07 2.8-3.14 3.03-6.69 3.69L330 347l-1-3c3.67-1.18 7.17-1.07 11-1" fill="#1B1B1E"/><path d="M274 629h2v2l2 1a37 37 0 0 1-8 4l-1-2h2l1-3h2z" fill="#090707"/><path d="M845 226h3c-.62 1.88-.62 1.88-2 4-3.12 1.25-3.12 1.25-6 2v-3l1.94-.94C844 227 844 227 845 226" fill="#EAEAEE"/><path d="M900 148h1c-.75 6.62-.75 6.62-3 10h-2l1.44-4.44.81-2.49C899 149 899 149 900 148" fill="#ECECEE"/><path d="M942 107c0 3 0 3-2 6-2 .81-2 .81-4 1l-2-2z" fill="#181A19"/><path d="M212 685h4l-2 13h-1l.04-2.34.02-3.04.04-3.02c-.1-2.6-.1-2.6-1.1-4.6" fill="#DEDFE0"/><path d="m379 650 3 1a19 19 0 0 1-7 5l-1-3c2.31-1.56 2.31-1.56 5-3" fill="#1C1B1E"/><path d="m267 640 2 1a17.7 17.7 0 0 1-8 7l-3-1z" fill="#E3E1E0"/><path d="M217 352h1v13c-3-4-3-4-2.86-6.36l.67-2.39.65-2.42z" fill="#F0F4F0"/><path d="M993 140h9v3h-8z" fill="#F2F6F3"/><path d="m962 95 1 3-9 2 1-3c3.56-1.19 3.56-1.19 7-2" fill="#EEEEF1"/><path d="M215 688c2.74 5.47 2.74 5.47 3 9l-3 4z" fill="#222325"/><path d="M841 648h9v2l-9 1z" fill="#1D1F1D"/><path d="M229 427h2l1 8-4-1z" fill="#D1D5D2"/><path d="M218 366h1v8h-3c.88-6.88.88-6.88 2-8" fill="#F1F3F2"/><path d="M420 352h2l1 10h-2z" fill="#0E0E0E"/><path d="M891 339c2 1 2 1 2.68 2.8.53 3.67-.68 6.66-1.68 10.2h-1z" fill="#EAEBED"/><path d="M715 232c-2.49 1.57-3.7 2.03-6.69 1.75L706 233l-1-2c4.05-1.16 6.22-.84 10 1" fill="#DEDEE0"/><path d="m241 591 2 3-7 6c1.03-4.13 2.28-5.85 5-9" fill="#DDDBDE"/><path d="M897 557h2l1 9-2 1c-1.16-3.47-1.07-6.36-1-10" fill="#EDEDEF"/><path d="m237 470 3 1v6h-3q-.57-2.99-1-6z" fill="#E3E6E7"/><path d="M386 302c0 3 0 3-1.31 4.39L380 310l-2-1z" fill="#252428"/><path d="m695 238-1 3c-3.06 1.19-3.06 1.19-6 2v-2l-2-1c5.62-2 5.62-2 9-2" fill="#28262A"/><path d="M1052 104c2.88-.12 2.88-.12 6 0l2 2-1 3-7-4z" fill="#EAEBEA"/><path d="m537 574 2 1v2l-7 2v-3c2.38-1.06 2.38-1.06 5-2" fill="#1E211F"/><path d="m287 474-1 4v-2h-2v2c-1.94-.38-1.94-.38-4-1l-1-2c2.89-.83 4.89-1 8-1" fill="#AA975B"/><path d="m226 420 3 1a41 41 0 0 1 1 6l-2 3z" fill="#E6E8EA"/><path d="M889 420h2c.8 3.29 1.1 4.71 0 8h-2z" fill="#F0F3F1"/><path d="M229 339v2c-2.31 2.19-2.31 2.19-5 4l-3-1c5.75-5 5.75-5 8-5" fill="#242426"/><path d="M901 655c2.5 2.17 3.44 3.73 4 7h-4z" fill="#F4F4F4"/><path d="m285.19 624.38 1.8.62c-2.3 2.07-2.3 2.07-5 4q-1.46-.5-3-1c1.46-2.88 2.92-4.18 6.2-3.62" fill="#0C0D0C"/><path d="M217 618c-1.39 3.37-2.98 4.99-6 7 0-3 0-3 1.88-5.19C215 618 215 618 217 618" fill="#D5D5D7"/><path d="M620 534h4l-1 3c-2.56 1.19-2.56 1.19-5 2 .88-3.88.88-3.88 2-5" fill="#212122"/><path d="M325 478a14 14 0 0 1 3 3c-.31 2.19-.31 2.19-1 4l-3-1z" fill="#CDB975"/><path d="M574 289c2 1 2 1 3 3l-7 3c1.15-2.47 2.05-4.05 4-6" fill="#DEDDDF"/><path d="M364 663v2l4 1-10 1c3.75-4 3.75-4 6-4" fill="#D9DAD9"/><path d="m307 620 2 1-5 5-3-1z" fill="#1C1B1F"/><path d="m889 524 4 2v2h-2l-1 4z" fill="#D3D3D7"/><path d="M234 455c2.62 3.06 3 3.73 3 8l-4-2z" fill="#E2E2E4"/><path d="M223 388h1v5h2l-1 6c-2-2-2-2-2.2-4.16l.08-2.46.05-2.48z" fill="#09090B"/><path d="M461 352v2l-7 3v-3c2.65-1.46 3.89-2 7-2" fill="#DBDADE"/><path d="M292 354c-4.13 2.76-6.05 3.11-11 3 4.13-2.76 6.05-3.11 11-3" fill="#D5D5D7"/><path d="M272 351c2.62.38 2.62.38 5 1v3l-7-2z" fill="#DADDD9"/><path d="M225 337q2.79.14 5.56.44l3.07.31 2.37.25v1q-2.43.33-4.88.62l-2.74.36-2.38.02-2-2z" fill="#BCBDBE"/><path d="M633 259h3v3l-6 2c1.88-3.88 1.88-3.88 3-5" fill="#E2E2E0"/><path d="m821 232 4 2v2l-8-1z" fill="#D7D7DA"/><path d="m875 203 1 4-5 3c0-3 0-3 2-5.19z" fill="#1D1F1D"/><path d="M891 167c1.1 3.3.95 4.72 0 8l-2 1c-.25-5.62-.25-5.62 2-9" fill="#EFEEF1"/></svg>