<svg style="background:transparent" version="1.1" xmlns="http://www.w3.org/2000/svg" viewBox="0 0 1248 704"><path d="M435 38a32 32 0 0 1 10 6v2l1.79.79a22 22 0 0 1 5.65 4.52l1.83 1.9L456 55l2.56 2.5c2.45 2.51 4.7 5.13 6.96 7.81 1.3 1.48 2.7 2.88 4.1 4.25a23 23 0 0 1 4.26 5.38c2.21 3.19 4.49 5.21 7.53 7.57 1.81 1.7 2.5 3.27 3.59 5.49 3.2 4.18 6.48 8.35 11.72 9.7a104 104 0 0 0 5.58.2c3.53.13 6.36 1.2 9.65 2.41 2.96.99 5.96 1.29 9.05 1.69l7 2q2.52.52 5.06 1c3.78.73 7.31 1.7 10.94 3l2 .5c2.72.68 5.35 1.6 8 2.5l.62-1.94c1.38-2.06 1.38-2.06 4.5-2.81L562 106l-1-3 3-2 3 2 3.32-2.08 4.37-2.73 2.18-1.37a552 552 0 0 1 14.38-8.76c7.21-4.04 14.25-7.65 22.75-7.06 4.88 2.3 7.95 5.65 11 10 1.17 4.09.95 6.92 0 11l-.44 4.25A90 90 0 0 1 622.4 118c-.4 2-.4 2-.4 4.69 0 3.03-1.05 5.45-2 8.31v2.5c0 3.15-.95 5.55-2 8.5-.57 2.33-.97 4.6-1.18 7a53 53 0 0 1-3.2 14.01C613 165 613 165 613 167.62c0 3.5-1.63 6.19-3 9.38q-.06 2.5 0 5l-2 5v2.56c0 2.8-.77 3.97-2 6.44q-.55 3.5-1 7l-1 3q-.37 3.42-.62 6.84C603 215 603 215 601 218q-.06 2.5 0 5l-.69 2.62L600 228c2.38 2.94 4.96 3.82 8.49 5.05 3.11 1.18 6.07 2.59 9.07 4.01 5.94 2.77 10.82 4.94 17.44 4.94a17 17 0 0 1 3 3c2.15 2.15 3.22 2.52 6.06 3.38 4.15 1.31 8.05 2.93 11.99 4.75 4.52 2.01 4.52 2.01 7.95.87a79 79 0 0 1 6.44 3.88c4.59 3.02 7.97 5.12 13.56 5.12l1.31 1.38c2.33 2.23 4.61 2.69 7.69 3.62q3.1 1.19 6.17 2.41c1.83.59 1.83.59 4.83.59l2.25 2.31c3.09 3.02 5.76 4.12 9.75 5.69l5 3q1.93.99 3.88 1.94 3.98 1.95 7.81 4.18c3.31 1.88 3.31 1.88 6 2.82 2.31 1.06 2.31 1.06 4.03 3.32 2.64 3.18 5.64 5.32 9.03 7.62 5.4 3.75 10.39 7.68 15.25 12.12l3.25 2.69c3.51 3.01 6.82 6.2 10.13 9.43l1.62 1.57c2.76 2.73 4.15 4.57 5 8.31q2 1.02 4 2c5.22 6.08 9.28 12.93 13 20l2.62 4.69c6.49 11.69 12.11 24.37 13.82 37.75.71 3.22 2.19 4.35 4.56 6.56v3l1.81.56c2.7 1.78 3.29 3.64 4.41 6.6.78 1.84.78 1.84 2.72 4.59 2.37 3.73 3.69 7.42 5.12 11.58q1.14 3.19 2.5 6.29c2.68 6.3 4.56 12.81 6.44 19.38q.7 2.13 1.44 4.25c1.75 5.19 3.15 10.46 4.56 15.75l2.25 8.25q.75 2.76 1.46 5.54a121 121 0 0 0 5.38 15.93 50 50 0 0 1 3.29 12.16c1.28 6.43 4.65 12.31 7.62 18.12l.97 1.97c1.86 3.78 3.8 7.44 6.03 11.03l1.5 2.62c1.5 2.38 1.5 2.38 3.19 4.07L887 560v2l1.62.69c3.2 1.77 5.67 3.85 8.38 6.31v2c3.83 1.61 7.72 2.92 11.66 4.21q3.32 1.14 6.59 2.41c14.15 5.19 31.82 3.64 45.75-1.62q3.03-1.45 6-3c2.22-1.11 4.42-2.18 6.69-3.19 3.74-2.04 6.86-4.5 10.16-7.19 2.15-1.62 2.15-1.62 4.3-2.67C990 559 990 559 992 556.44c2.2-2.69 2.82-2.7 6-3.44l.74-1.8c3.07-5.36 11.09-8.17 16.77-10.01 6.05-1.04 11.24.82 16.49 3.81 3.31 2.57 5.65 4.95 7 9 .66 7.97.51 14.28-4 21l-2 3.12-2 2.88-1.75 2.94c-2.41 3.27-5 5.53-8.1 8.13-3.03 2.72-5.59 5.78-8.19 8.91-2.14 2.21-4.3 3.52-6.96 5.02l-2.5 2c-4.2 3.36-8.79 5.68-13.6 8.03-1.9.97-1.9.97-4.28 2.53-3.22 1.77-6.46 2.68-10 3.68-3.18.92-6.29 2-9.42 3.11-11.88 3.5-25.91 4.16-38.2 3.65l-1.96-.07c-13.55-.55-13.55-.55-20.04-2.93l-5.31-1.38a70 70 0 0 1-12.72-4.75c-1.97-.87-1.97-.87-3.98-1.35-6.07-1.59-10.73-6.15-14.99-10.52l-2.88-1.81c-3.38-2.38-5.67-4.95-8.32-8.09-3.57-4.16-7.24-8.06-11.8-11.1a87 87 0 0 1-3-5c-1.6-2.71-3.23-5.34-5-7.94a78 78 0 0 1-5-9.06l-2.5-4.94a144 144 0 0 1-4.12-8.81q-1.38-3.23-2.94-6.37c-1.94-3.87-3.34-6.98-3.82-11.32-.71-4.05-2.27-6.23-4.62-9.56v-6q-.65-1.96-1.44-3.88a37 37 0 0 1-2.06-6.68c-.7-3.39-2.08-6.29-3.5-9.44l-.73 2.49c-1.62 5.4-3.26 10.66-5.52 15.82-1.57 3.75-1.77 6.34-1.5 10.43-.49 4.37-2.93 8.17-4.86 12.07-1.55 3.57-2.06 6.5-2.25 10.34-.14 1.85-.14 1.85-1.2 4.41-1.13 2.94-1.06 5.27-.91 8.38-.03 2.06-.03 2.06-.53 4.38-.61 3.24-.56 6.26-.5 9.56.04 4.83-.16 9.35-1 14.12l-.44 4.56c-.39 3.71-1.38 6.9-2.56 10.44l.06 2.81c-.1 5.06-1.82 9.75-4.11 14.24-1.18 2.42-1.7 4.91-2.32 7.52-3.2 12.29-3.2 12.29-6.63 17.43l1.7.26c10.43 1.83 22.88 4.61 30.3 12.74 1.5 3.38 1.5 3.38 2 6-11.32 13.83-30.97 14.92-47.65 16.58l-5.04.48-2.7.26c-38.51 3.61-77.16 4.05-115.81 4.86-19.43.41-38.83.88-58.24 1.94-18.66 1.01-37.31 1.07-55.99 1.07h-6.97c-15.98 0-31.95-.15-47.92-.62l-3.86-.11c-26.88-.88-58.68-2.53-82.82-15.46l-5-2c-1-1-1-1-1.44-3.19.56-3.56 1.9-4.86 4.35-7.38 3.11-2.12 6.55-3.23 10.09-4.43l1.97-.69c24.02-8.13 49.31-12.14 74.34-15.62l2.67-.38a527 527 0 0 1 32.43-3.56l2.53-.21 2.23-.17C506 637 506 637 508 635c6.3-1.14 15.41-2.54 21.62-.46 3.51.68 6.9.24 10.43-.1l2.33-.2 7.37-.68 5-.44L567 632l.13-2.64.21-3.5.2-3.45c.47-3.49 1.42-6.01 2.96-9.16 5.5-12.99 3.73-29.3 3.44-43.19C574 568 574 568 575 567q.07-4.64-.04-9.28A49 49 0 0 1 576 547l-1-2.5c-1.21-3.02-.97-4.43 0-7.5l2-3c.05-2.16.05-2.16-.25-4.5l-.27-2.34C576 525 576 525 574 522c.2-1.99.4-3.98.7-5.95.89-6.08-.02-10.87-2.89-16.3L571 498l1-2-.56-2.5-.44-2.5 2-2c.12-3.63.12-3.63 0-7a149 149 0 0 0-11.46-4.14c-3.7-1.25-7.33-2.67-10.96-4.09-2.67-.8-4.81-.8-7.58-.77a97 97 0 0 1-5-3l-1.89-.44c-2.47-.66-4.22-1.73-6.36-3.12l-2.14-1.38L526 464l-2 2 4 2-2 4-3-1-3 5 2 3c-3 2-3 2-5 2l.75 1.75.25 2.25c-1.75 2-1.75 2-4 4a22 22 0 0 0-3.88 6.19c-1.35 3.38-3.14 6.4-5 9.53-1.19 2.43-1.62 4.63-2.12 7.28l-3 4q-.54 2.5-1 5a322 322 0 0 1-5.31 16.91c-.99 3.01-1.86 6.04-2.69 9.09l-.67 2.04c-1.64 5.33-1.64 5.33-.02 8.65L492 560l.46 2.37c.57 2.78 1.48 4.63 2.92 7.07q1.32 2.26 2.62 4.56l1.63 2.79c2.62 6.12 2.17 12.71 1.37 19.21-1.42 3.39-3.35 5.49-6 8l-1.83 2.11c-6.67 7.43-14.53 10.45-24.43 11.06-4.69-.29-8.61-2-12.74-4.17l-2.57-1.34c-2.75-1.88-4.16-3.7-5.99-6.47l-1.8-2.7L444 600l-2.31-3.19c-4.22-7.03-4.89-15.51-3.09-23.46.58-3.42-1.03-5.33-2.6-8.35-.12-2.56-.12-2.56 0-5q-.46-2.5-1-5c-.96-5.59-1.15-10.97-1.12-16.62l-.02-2.53c.01-4.12.32-7.8 1.14-11.85q.07-4.07 0-8.12c-.13-7.48-.13-7.48 1-10.88v-2.38c0-2.7.43-4.98 1-7.62a204 204 0 0 0 1.5-12.06c.43-4.46 1.03-8.83 2-13.2.77-4.2.94-8.42 1.22-12.68.23-2.51.65-4.64 1.28-7.06q.25-2.4.44-4.81A62 62 0 0 1 446 433v-2.5c0-2.5 0-2.5.94-5.75a55 55 0 0 0 1.81-10.73C449 412 449 412 450 409q.52-3.5 1-7l.69-2.62c.4-3.05-.38-4.63-1.69-7.38l-.88-2.25c-1.73-4.26-3.78-8.36-5.78-12.5A35 35 0 0 1 441 368l-.94-2.25c-1.31-3.39-1.89-6.76-2.55-10.32-.51-2.43-.51-2.43-1.63-5.74-.9-2.74-.96-4.84-.88-7.69l-1-1v-8l-1-1a84 84 0 0 1-.13-5.02l-.01-3.1.02-3.26-.02-3.23.01-3.1v-2.85C433 309 433 309 434 306q.26-2.4.44-4.81A39 39 0 0 1 437 290a166 166 0 0 0-8.44-5.44 133 133 0 0 1-6.37-4.12l-1.83-1.26L419 278v-2l-1.69-.75c-11.78-6.37-21.63-19.4-27.31-31.25l-1.38-2.69L387 238l-1.27-2.19c-5.91-11.13-6.16-24.82-2.73-36.81q.8-3.09 1.56-6.19l.79-3.06c.65-2.75.65-2.75 1.15-6.5.52-3.39 1.55-6.12 2.81-9.29 1.02-2.91 1.26-5.91 1.69-8.96q1.05-3.4 2.24-6.74c1.5-4.46 2.47-9.06 3.57-13.64a54 54 0 0 1 3.75-8.62 30 30 0 0 0 3.44-12l1-3.31c1.03-3.8 1.39-7.33 1.72-11.23.32-2.82 1.06-5.46 1.81-8.19.84-4.03.98-8.11 1.26-12.2.31-4.52.77-8.76 2.21-13.07v-2.5c0-2.5 0-2.5 1-5.5q.22-2.57.38-5.12c.44-5.35 1.7-9.89 3.62-14.88l.81-2.75c3.9-7.39 9.43-8.43 17.19-7.25" fill="#121413"/><path d="M435 38a32 32 0 0 1 10 6v2l1.79.79a22 22 0 0 1 5.65 4.52l1.83 1.9L456 55l2.56 2.5c2.45 2.51 4.7 5.13 6.96 7.81 1.3 1.48 2.7 2.88 4.1 4.25a23 23 0 0 1 4.26 5.38c2.21 3.19 4.49 5.21 7.53 7.57 1.81 1.7 2.5 3.27 3.59 5.49 3.2 4.18 6.48 8.35 11.72 9.7a104 104 0 0 0 5.58.2c3.53.13 6.36 1.2 9.65 2.41 2.96.99 5.96 1.29 9.05 1.69l7 2q2.52.52 5.06 1c3.78.73 7.31 1.7 10.94 3l2 .5c2.72.68 5.35 1.6 8 2.5l.62-1.94c1.38-2.06 1.38-2.06 4.5-2.81L562 106l-1-3 3-2 3 2 3.32-2.08 4.37-2.73 2.18-1.37a552 552 0 0 1 14.38-8.76c7.21-4.04 14.25-7.65 22.75-7.06 4.88 2.3 7.95 5.65 11 10 1.17 4.09.95 6.92 0 11l-.44 4.25A90 90 0 0 1 622.4 118c-.4 2-.4 2-.4 4.69 0 3.03-1.05 5.45-2 8.31v2.5c0 3.15-.95 5.55-2 8.5-.57 2.33-.97 4.6-1.18 7a53 53 0 0 1-3.2 14.01C613 165 613 165 613 167.62c0 3.5-1.63 6.19-3 9.38q-.06 2.5 0 5l-2 5v2.56c0 2.8-.77 3.97-2 6.44q-.55 3.5-1 7l-1 3q-.37 3.42-.62 6.84C603 215 603 215 601 218q-.06 2.5 0 5l-.69 2.62L600 228c2.38 2.94 4.96 3.82 8.49 5.05 3.11 1.18 6.07 2.59 9.07 4.01 5.94 2.77 10.82 4.94 17.44 4.94a17 17 0 0 1 3 3c2.15 2.15 3.22 2.52 6.06 3.38 4.15 1.31 8.05 2.93 11.99 4.75 4.52 2.01 4.52 2.01 7.95.87a79 79 0 0 1 6.44 3.88c4.59 3.02 7.97 5.12 13.56 5.12l1.31 1.38c2.33 2.23 4.61 2.69 7.69 3.62q3.1 1.19 6.17 2.41c1.83.59 1.83.59 4.83.59l2.25 2.31c3.09 3.02 5.76 4.12 9.75 5.69l5 3q1.93.99 3.88 1.94 3.98 1.95 7.81 4.18c3.31 1.88 3.31 1.88 6 2.82 2.31 1.06 2.31 1.06 4.03 3.32 2.64 3.18 5.64 5.32 9.03 7.62 5.4 3.75 10.39 7.68 15.25 12.12l3.25 2.69c3.51 3.01 6.82 6.2 10.13 9.43l1.62 1.57c2.76 2.73 4.15 4.57 5 8.31q2 1.02 4 2c5.22 6.08 9.28 12.93 13 20l2.62 4.69c6.49 11.69 12.11 24.37 13.82 37.75.71 3.22 2.19 4.35 4.56 6.56v3l1.81.56c2.7 1.78 3.29 3.64 4.41 6.6.78 1.84.78 1.84 2.72 4.59 2.37 3.73 3.69 7.42 5.12 11.58q1.14 3.19 2.5 6.29c2.68 6.3 4.56 12.81 6.44 19.38q.7 2.13 1.44 4.25c1.75 5.19 3.15 10.46 4.56 15.75l2.25 8.25q.75 2.76 1.46 5.54a121 121 0 0 0 5.38 15.93 50 50 0 0 1 3.29 12.16c1.28 6.43 4.65 12.31 7.62 18.12l.97 1.97c1.86 3.78 3.8 7.44 6.03 11.03l1.5 2.62c1.5 2.38 1.5 2.38 3.19 4.07L887 560v2l1.62.69c3.2 1.77 5.67 3.85 8.38 6.31v2c3.83 1.61 7.72 2.92 11.66 4.21q3.32 1.14 6.59 2.41c14.15 5.19 31.82 3.64 45.75-1.62q3.03-1.45 6-3c2.22-1.11 4.42-2.18 6.69-3.19 3.74-2.04 6.86-4.5 10.16-7.19 2.15-1.62 2.15-1.62 4.3-2.67C990 559 990 559 992 556.44c2.2-2.69 2.82-2.7 6-3.44l.74-1.8c3.07-5.36 11.09-8.17 16.77-10.01 6.05-1.04 11.24.82 16.49 3.81 3.31 2.57 5.65 4.95 7 9 .66 7.97.51 14.28-4 21l-2 3.12-2 2.88-1.75 2.94c-2.41 3.27-5 5.53-8.1 8.13-3.03 2.72-5.59 5.78-8.19 8.91-2.14 2.21-4.3 3.52-6.96 5.02l-2.5 2c-4.2 3.36-8.79 5.68-13.6 8.03-1.9.97-1.9.97-4.28 2.53-3.22 1.77-6.46 2.68-10 3.68-3.18.92-6.29 2-9.42 3.11-11.88 3.5-25.91 4.16-38.2 3.65l-1.96-.07c-13.55-.55-13.55-.55-20.04-2.93l-5.31-1.38a70 70 0 0 1-12.72-4.75c-1.97-.87-1.97-.87-3.98-1.35-6.07-1.59-10.73-6.15-14.99-10.52l-2.88-1.81c-3.38-2.38-5.67-4.95-8.32-8.09-3.57-4.16-7.24-8.06-11.8-11.1a87 87 0 0 1-3-5c-1.6-2.71-3.23-5.34-5-7.94a78 78 0 0 1-5-9.06l-2.5-4.94a144 144 0 0 1-4.12-8.81q-1.38-3.23-2.94-6.37c-1.94-3.87-3.34-6.98-3.82-11.32-.71-4.05-2.27-6.23-4.62-9.56v-6q-.65-1.96-1.44-3.88a37 37 0 0 1-2.06-6.68c-.7-3.39-2.08-6.29-3.5-9.44l-.73 2.49c-1.62 5.4-3.26 10.66-5.52 15.82-1.57 3.75-1.77 6.34-1.5 10.43-.49 4.37-2.93 8.17-4.86 12.07-1.55 3.57-2.06 6.5-2.25 10.34-.14 1.85-.14 1.85-1.2 4.41-1.13 2.94-1.06 5.27-.91 8.38-.03 2.06-.03 2.06-.53 4.38-.61 3.24-.56 6.26-.5 9.56.04 4.83-.16 9.35-1 14.12l-.44 4.56c-.39 3.71-1.38 6.9-2.56 10.44l.06 2.81c-.1 5.06-1.82 9.75-4.11 14.24-1.18 2.42-1.7 4.91-2.32 7.52-3.2 12.29-3.2 12.29-6.63 17.43l1.7.26c10.43 1.83 22.88 4.61 30.3 12.74 1.5 3.38 1.5 3.38 2 6-11.32 13.83-30.97 14.92-47.65 16.58l-5.04.48-2.7.26c-38.51 3.61-77.16 4.05-115.81 4.86-19.43.41-38.83.88-58.24 1.94-18.66 1.01-37.31 1.07-55.99 1.07h-6.97c-15.98 0-31.95-.15-47.92-.62l-3.86-.11c-26.88-.88-58.68-2.53-82.82-15.46l-5-2c-1-1-1-1-1.44-3.19.56-3.56 1.9-4.86 4.35-7.38 3.11-2.12 6.55-3.23 10.09-4.43l1.97-.69c24.02-8.13 49.31-12.14 74.34-15.62l2.67-.38a527 527 0 0 1 32.43-3.56l2.53-.21 2.23-.17C506 637 506 637 508 635c6.3-1.14 15.41-2.54 21.62-.46 3.51.68 6.9.24 10.43-.1l2.33-.2 7.37-.68 5-.44L567 632l.13-2.64.21-3.5.2-3.45c.47-3.49 1.42-6.01 2.96-9.16 5.5-12.99 3.73-29.3 3.44-43.19C574 568 574 568 575 567q.07-4.64-.04-9.28A49 49 0 0 1 576 547l-1-2.5c-1.21-3.02-.97-4.43 0-7.5l2-3c.05-2.16.05-2.16-.25-4.5l-.27-2.34C576 525 576 525 574 522c.2-1.99.4-3.98.7-5.95.89-6.08-.02-10.87-2.89-16.3L571 498l1-2-.56-2.5-.44-2.5 2-2c.12-3.63.12-3.63 0-7a149 149 0 0 0-11.46-4.14c-3.7-1.25-7.33-2.67-10.96-4.09-2.67-.8-4.81-.8-7.58-.77a97 97 0 0 1-5-3l-1.89-.44c-2.47-.66-4.22-1.73-6.36-3.12l-2.14-1.38L526 464l-2 2 4 2-2 4-3-1-3 5 2 3c-3 2-3 2-5 2l.75 1.75.25 2.25c-1.75 2-1.75 2-4 4a22 22 0 0 0-3.88 6.19c-1.35 3.38-3.14 6.4-5 9.53-1.19 2.43-1.62 4.63-2.12 7.28l-3 4q-.54 2.5-1 5a322 322 0 0 1-5.31 16.91c-.99 3.01-1.86 6.04-2.69 9.09l-.67 2.04c-1.64 5.33-1.64 5.33-.02 8.65L492 560l.46 2.37c.57 2.78 1.48 4.63 2.92 7.07q1.32 2.26 2.62 4.56l1.63 2.79c2.62 6.12 2.17 12.71 1.37 19.21-1.42 3.39-3.35 5.49-6 8l-1.83 2.11c-6.67 7.43-14.53 10.45-24.43 11.06-4.69-.29-8.61-2-12.74-4.17l-2.57-1.34c-2.75-1.88-4.16-3.7-5.99-6.47l-1.8-2.7L444 600l-2.31-3.19c-4.22-7.03-4.89-15.51-3.09-23.46.58-3.42-1.03-5.33-2.6-8.35-.12-2.56-.12-2.56 0-5q-.46-2.5-1-5c-.96-5.59-1.15-10.97-1.12-16.62l-.02-2.53c.01-4.12.32-7.8 1.14-11.85q.07-4.07 0-8.12c-.13-7.48-.13-7.48 1-10.88v-2.38c0-2.7.43-4.98 1-7.62a204 204 0 0 0 1.5-12.06c.43-4.46 1.03-8.83 2-13.2.77-4.2.94-8.42 1.22-12.68.23-2.51.65-4.64 1.28-7.06q.25-2.4.44-4.81A62 62 0 0 1 446 433v-2.5c0-2.5 0-2.5.94-5.75a55 55 0 0 0 1.81-10.73C449 412 449 412 450 409q.52-3.5 1-7l.69-2.62c.4-3.05-.38-4.63-1.69-7.38l-.88-2.25c-1.73-4.26-3.78-8.36-5.78-12.5A35 35 0 0 1 441 368l-.94-2.25c-1.31-3.39-1.89-6.76-2.55-10.32-.51-2.43-.51-2.43-1.63-5.74-.9-2.74-.96-4.84-.88-7.69l-1-1v-8l-1-1a84 84 0 0 1-.13-5.02l-.01-3.1.02-3.26-.02-3.23.01-3.1v-2.85C433 309 433 309 434 306q.26-2.4.44-4.81A39 39 0 0 1 437 290a166 166 0 0 0-8.44-5.44 133 133 0 0 1-6.37-4.12l-1.83-1.26L419 278v-2l-1.69-.75c-11.78-6.37-21.63-19.4-27.31-31.25l-1.38-2.69L387 238l-1.27-2.19c-5.91-11.13-6.16-24.82-2.73-36.81q.8-3.09 1.56-6.19l.79-3.06c.65-2.75.65-2.75 1.15-6.5.52-3.39 1.55-6.12 2.81-9.29 1.02-2.91 1.26-5.91 1.69-8.96q1.05-3.4 2.24-6.74c1.5-4.46 2.47-9.06 3.57-13.64a54 54 0 0 1 3.75-8.62 30 30 0 0 0 3.44-12l1-3.31c1.03-3.8 1.39-7.33 1.72-11.23.32-2.82 1.06-5.46 1.81-8.19.84-4.03.98-8.11 1.26-12.2.31-4.52.77-8.76 2.21-13.07v-2.5c0-2.5 0-2.5 1-5.5q.22-2.57.38-5.12c.44-5.35 1.7-9.89 3.62-14.88l.81-2.75c3.9-7.39 9.43-8.43 17.19-7.25m160 193c-2.75 6.88-5 13.53-5 21h-2l-2 5.75-1.12 3.23C584 264 584 264 584 268h-3l-1 4h-2a31 31 0 0 0-4 8h-2v2h-2v2l-8 4v2h-4v2l-6 1v2l-2.34.55c-9.53 2.3-9.53 2.3-13.41 4.01-23.57 9.09-56.37 4.3-78.86-5.27l-2.92-1.31C452 292 452 292 449 292v-2l-8-2c-3.93 10.66-4.38 21.08-4.31 32.31l.01 2.09c.07 11.06.37 22.01 2.99 32.79l.52 2.17c2.31 9.16 5.4 18.18 9.8 26.55l1 1.96q1.4 2.63 2.87 5.24c2.09 5.25.26 10.57-.88 15.89q-.6 3.4-1.18 6.81l-.62 3.54c-3.35 19.21-6.2 38.44-8.76 57.77l-.32 2.43q-.95 7.06-1.83 14.16-.42 3.33-.88 6.65c-1.46 11.34-1.75 22.57-1.73 33.99q0 4.56-.04 9.12c-.03 9.02.03 17.35 2.67 26.05 1.32 4.75 1.16 9.62 1.22 14.52.29 10.24 3.61 17.4 10.47 24.96 6.57 6.1 13.3 6.69 21.91 6.44 7.52-.55 13.5-4.41 18.59-9.82 5.2-6.87 6.61-14.09 5.5-22.62-1.4-4.51-3.66-8.46-6.06-12.5-4.69-8.06-5.49-14.43-3.18-23.46q1.44-5.13 2.99-10.23l1.02-3.46a215 215 0 0 1 12.54-32.66l1.17-2.43q5.19-10.76 10.6-21.43l4.42-8.83 2.5-5c3.36 1.31 6.61 2.75 9.86 4.3 6.32 2.88 12.81 5.13 19.4 7.29l6 2.01 3.88 1.29 3.49 1.16c3.45.97 6.81 1.52 10.37 1.95l-.49 2.01c-.62 3.61-.7 7.15-.7 10.8v2.18c.05 4.25.45 7.91 1.68 11.95 4.69 18.91 1.46 41.08.15 60.26a702 702 0 0 0-1.14 21.99c-.78 19.05-.78 19.05-4.04 26.18-3.31 8.23-2.53 18.02.66 26.19 4.53 9.34 10.93 14.97 20.18 19.59 3.47 1.09 6.78 1.19 10.39 1.16l2.14-.01c7.32-.17 13.22-1.46 19.48-5.36 3.56-3.89 5.58-8.14 7.69-12.94l1.44.88c8.18 4.33 17.05 4.56 25.95 2.24 8.28-3.14 14.2-7.71 18.09-15.79a249 249 0 0 0 2.14-5.08l2.31-5.37 1.09-2.58q1.75-4.06 3.67-8.05a152 152 0 0 0 12.78-47.36L701 559l2-1 .77 2.54a90 90 0 0 0 4.85 10.84l1.06 2.08 4.43 8.71 3.2 6.33.99 1.92c6 11.88 7.69 22.24 3.7 35.27-2.28 5.77-2.28 5.77-4.87 7.71A40 40 0 0 1 711 635c-6.52 2.92-9.57 6.76-13 13a26 26 0 0 0-.23 16.32c3.18 5.89 8.12 8.37 14.23 10.68 11.55 3.44 30.94 2.94 42-2 6.4-4.36 9.66-9.13 12.44-16.25l1.11-2.73c10.68-26.79 18.67-54.11 19.95-83.02 1.22-27.11 9.04-56.66 21.5-81l.55 1.77q2.91 9.28 5.85 18.55l2.16 6.88c11.71 37.42 27.71 77.48 64.24 97.09 25.94 13.24 58.61 16.63 86.57 7.98 25.7-8.4 51.1-24.15 64.4-48.5 2.78-6.04 4.69-11.02 4.23-17.77-2.08-5.59-5.09-8.34-10.19-11.25-6.58-1.76-12.04-1.52-18.19 1.56-5.5 3.29-9.98 7.51-14.6 11.89-17.37 16.33-39.86 25.49-63.73 25.05-17.4-1.34-32.83-8.17-44.98-20.75-3.63-4.31-6.61-8.93-9.5-13.75l-1.19-1.98c-6.61-11.53-10.82-23.84-14.56-36.52l-1.31-4.37a804 804 0 0 1-7.25-26.07c-6.65-25.25-13.94-51.89-30.16-72.78-3.98-5.36-5.11-10.64-6.43-17.02-4.47-21.18-18.36-42.49-33-57.98-1.91-2.03-1.91-2.03-4.29-5.09-3.23-3.62-6.82-6.51-10.61-9.53a336 336 0 0 1-8.7-7.29c-15.59-12.99-33.14-23.43-51.39-32.2q-2.67-1.28-5.31-2.59c-9.04-4.35-18.3-8.11-27.6-11.86a2599 2599 0 0 1-58.7-24.66l-1.96-.85c-10.87-4.7-10.87-4.7-13.53-6.12C598 231 598 231 595 231" fill="#121412"/><path d="M435 38a32 32 0 0 1 10 6v2l1.79.79a22 22 0 0 1 5.65 4.52l1.83 1.9L456 55l2.56 2.5c2.45 2.51 4.7 5.13 6.96 7.81 1.3 1.48 2.7 2.88 4.1 4.25a23 23 0 0 1 4.26 5.38c2.21 3.19 4.49 5.21 7.53 7.57 1.81 1.7 2.5 3.27 3.59 5.49 3.2 4.18 6.48 8.35 11.72 9.7a104 104 0 0 0 5.58.2c3.53.13 6.36 1.2 9.65 2.41 2.96.99 5.96 1.29 9.05 1.69l7 2q2.52.52 5.06 1c3.78.73 7.31 1.7 10.94 3l2 .5c2.72.68 5.35 1.6 8 2.5l.62-1.94c1.38-2.06 1.38-2.06 4.5-2.81L562 106l-1-3 3-2 3 2 3.32-2.08 4.37-2.73 2.18-1.37a552 552 0 0 1 14.38-8.76c7.21-4.04 14.25-7.65 22.75-7.06 4.88 2.3 7.95 5.65 11 10 1.17 4.09.95 6.92 0 11l-.44 4.25A90 90 0 0 1 622.4 118c-.4 2-.4 2-.4 4.69 0 3.03-1.05 5.45-2 8.31v2.5c0 3.15-.95 5.55-2 8.5-.57 2.33-.97 4.6-1.18 7a53 53 0 0 1-3.2 14.01C613 165 613 165 613 167.62c0 3.5-1.63 6.19-3 9.38q-.06 2.5 0 5l-2 5v2.56c0 2.8-.77 3.97-2 6.44q-.55 3.5-1 7l-1 3q-.37 3.42-.62 6.84C603 215 603 215 601 218q-.06 2.5 0 5l-.69 2.62L600 228c2.38 2.94 4.96 3.82 8.49 5.05 3.11 1.18 6.07 2.59 9.07 4.01 5.94 2.77 10.82 4.94 17.44 4.94a17 17 0 0 1 3 3c2.15 2.15 3.22 2.52 6.06 3.38 4.15 1.31 8.05 2.93 11.99 4.75 4.52 2.01 4.52 2.01 7.95.87a79 79 0 0 1 6.44 3.88c4.59 3.02 7.97 5.12 13.56 5.12l1.31 1.38c2.33 2.23 4.61 2.69 7.69 3.62q3.1 1.19 6.17 2.41c1.83.59 1.83.59 4.83.59l2.25 2.31c3.09 3.02 5.76 4.12 9.75 5.69l5 3q1.93.99 3.88 1.94 3.98 1.95 7.81 4.18c3.31 1.88 3.31 1.88 6 2.82 2.31 1.06 2.31 1.06 4.03 3.32 2.64 3.18 5.64 5.32 9.03 7.62 5.4 3.75 10.39 7.68 15.25 12.12l3.25 2.69c3.51 3.01 6.82 6.2 10.13 9.43l1.62 1.57c2.76 2.73 4.15 4.57 5 8.31q2 1.02 4 2c5.22 6.08 9.28 12.93 13 20l2.62 4.69c6.49 11.69 12.11 24.37 13.82 37.75.71 3.22 2.19 4.35 4.56 6.56v3l1.81.56c2.7 1.78 3.29 3.64 4.41 6.6.78 1.84.78 1.84 2.72 4.59 2.37 3.73 3.69 7.42 5.12 11.58q1.14 3.19 2.5 6.29c2.68 6.3 4.56 12.81 6.44 19.38q.7 2.13 1.44 4.25c1.75 5.19 3.15 10.46 4.56 15.75l2.25 8.25q.75 2.76 1.46 5.54a121 121 0 0 0 5.38 15.93 50 50 0 0 1 3.29 12.16c1.28 6.43 4.65 12.31 7.62 18.12l.97 1.97c1.86 3.78 3.8 7.44 6.03 11.03l1.5 2.62c1.5 2.38 1.5 2.38 3.19 4.07L887 560v2l1.62.69c3.2 1.77 5.67 3.85 8.38 6.31v2c3.83 1.61 7.72 2.92 11.66 4.21q3.32 1.14 6.59 2.41c14.15 5.19 31.82 3.64 45.75-1.62q3.03-1.45 6-3c2.22-1.11 4.42-2.18 6.69-3.19 3.74-2.04 6.86-4.5 10.16-7.19 2.15-1.62 2.15-1.62 4.3-2.67C990 559 990 559 992 556.44c2.2-2.69 2.82-2.7 6-3.44l.74-1.8c3.07-5.36 11.09-8.17 16.77-10.01 6.05-1.04 11.24.82 16.49 3.81 3.31 2.57 5.65 4.95 7 9 .66 7.97.51 14.28-4 21l-2 3.12-2 2.88-1.75 2.94c-2.41 3.27-5 5.53-8.1 8.13-3.03 2.72-5.59 5.78-8.19 8.91-2.14 2.21-4.3 3.52-6.96 5.02l-2.5 2c-4.2 3.36-8.79 5.68-13.6 8.03-1.9.97-1.9.97-4.28 2.53-3.22 1.77-6.46 2.68-10 3.68-3.18.92-6.29 2-9.42 3.11-11.88 3.5-25.91 4.16-38.2 3.65l-1.96-.07c-13.55-.55-13.55-.55-20.04-2.93l-5.31-1.38a70 70 0 0 1-12.72-4.75c-1.97-.87-1.97-.87-3.98-1.35-6.07-1.59-10.73-6.15-14.99-10.52l-2.88-1.81c-3.38-2.38-5.67-4.95-8.32-8.09-3.57-4.16-7.24-8.06-11.8-11.1a87 87 0 0 1-3-5c-1.6-2.71-3.23-5.34-5-7.94a78 78 0 0 1-5-9.06l-2.5-4.94a144 144 0 0 1-4.12-8.81q-1.38-3.23-2.94-6.37c-1.94-3.87-3.34-6.98-3.82-11.32-.71-4.05-2.27-6.23-4.62-9.56v-6q-.65-1.96-1.44-3.88a37 37 0 0 1-2.06-6.68c-.7-3.39-2.08-6.29-3.5-9.44l-.73 2.49c-1.62 5.4-3.26 10.66-5.52 15.82-1.57 3.75-1.77 6.34-1.5 10.43-.49 4.37-2.93 8.17-4.86 12.07-1.55 3.57-2.06 6.5-2.25 10.34-.14 1.85-.14 1.85-1.2 4.41-1.13 2.94-1.06 5.27-.91 8.38-.03 2.06-.03 2.06-.53 4.38-.61 3.24-.56 6.26-.5 9.56.04 4.83-.16 9.35-1 14.12l-.44 4.56c-.39 3.71-1.38 6.9-2.56 10.44l.06 2.81c-.1 5.06-1.82 9.75-4.11 14.24-1.18 2.42-1.7 4.91-2.32 7.52-3.2 12.29-3.2 12.29-6.63 17.43l1.7.26c10.43 1.83 22.88 4.61 30.3 12.74 1.5 3.38 1.5 3.38 2 6-11.32 13.83-30.97 14.92-47.65 16.58l-5.04.48-2.7.26c-38.51 3.61-77.16 4.05-115.81 4.86-19.43.41-38.83.88-58.24 1.94-18.66 1.01-37.31 1.07-55.99 1.07h-6.97c-15.98 0-31.95-.15-47.92-.62l-3.86-.11c-26.88-.88-58.68-2.53-82.82-15.46l-5-2c-1-1-1-1-1.44-3.19.56-3.56 1.9-4.86 4.35-7.38 3.11-2.12 6.55-3.23 10.09-4.43l1.97-.69c24.02-8.13 49.31-12.14 74.34-15.62l2.67-.38a527 527 0 0 1 32.43-3.56l2.53-.21 2.23-.17C506 637 506 637 508 635c6.3-1.14 15.41-2.54 21.62-.46 3.51.68 6.9.24 10.43-.1l2.33-.2 7.37-.68 5-.44L567 632l.13-2.64.21-3.5.2-3.45c.47-3.49 1.42-6.01 2.96-9.16 5.5-12.99 3.73-29.3 3.44-43.19C574 568 574 568 575 567q.07-4.64-.04-9.28A49 49 0 0 1 576 547l-1-2.5c-1.21-3.02-.97-4.43 0-7.5l2-3c.05-2.16.05-2.16-.25-4.5l-.27-2.34C576 525 576 525 574 522c.2-1.99.4-3.98.7-5.95.89-6.08-.02-10.87-2.89-16.3L571 498l1-2-.56-2.5-.44-2.5 2-2c.12-3.63.12-3.63 0-7a149 149 0 0 0-11.46-4.14c-3.7-1.25-7.33-2.67-10.96-4.09-2.67-.8-4.81-.8-7.58-.77a97 97 0 0 1-5-3l-1.89-.44c-2.47-.66-4.22-1.73-6.36-3.12l-2.14-1.38L526 464l-2 2 4 2-2 4-3-1-3 5 2 3c-3 2-3 2-5 2l.75 1.75.25 2.25c-1.75 2-1.75 2-4 4a22 22 0 0 0-3.88 6.19c-1.35 3.38-3.14 6.4-5 9.53-1.19 2.43-1.62 4.63-2.12 7.28l-3 4q-.54 2.5-1 5a322 322 0 0 1-5.31 16.91c-.99 3.01-1.86 6.04-2.69 9.09l-.67 2.04c-1.64 5.33-1.64 5.33-.02 8.65L492 560l.46 2.37c.57 2.78 1.48 4.63 2.92 7.07q1.32 2.26 2.62 4.56l1.63 2.79c2.62 6.12 2.17 12.71 1.37 19.21-1.42 3.39-3.35 5.49-6 8l-1.83 2.11c-6.67 7.43-14.53 10.45-24.43 11.06-4.69-.29-8.61-2-12.74-4.17l-2.57-1.34c-2.75-1.88-4.16-3.7-5.99-6.47l-1.8-2.7L444 600l-2.31-3.19c-4.22-7.03-4.89-15.51-3.09-23.46.58-3.42-1.03-5.33-2.6-8.35-.12-2.56-.12-2.56 0-5q-.46-2.5-1-5c-.96-5.59-1.15-10.97-1.12-16.62l-.02-2.53c.01-4.12.32-7.8 1.14-11.85q.07-4.07 0-8.12c-.13-7.48-.13-7.48 1-10.88v-2.38c0-2.7.43-4.98 1-7.62a204 204 0 0 0 1.5-12.06c.43-4.46 1.03-8.83 2-13.2.77-4.2.94-8.42 1.22-12.68.23-2.51.65-4.64 1.28-7.06q.25-2.4.44-4.81A62 62 0 0 1 446 433v-2.5c0-2.5 0-2.5.94-5.75a55 55 0 0 0 1.81-10.73C449 412 449 412 450 409q.52-3.5 1-7l.69-2.62c.4-3.05-.38-4.63-1.69-7.38l-.88-2.25c-1.73-4.26-3.78-8.36-5.78-12.5A35 35 0 0 1 441 368l-.94-2.25c-1.31-3.39-1.89-6.76-2.55-10.32-.51-2.43-.51-2.43-1.63-5.74-.9-2.74-.96-4.84-.88-7.69l-1-1v-8l-1-1a84 84 0 0 1-.13-5.02l-.01-3.1.02-3.26-.02-3.23.01-3.1v-2.85C433 309 433 309 434 306q.26-2.4.44-4.81A39 39 0 0 1 437 290a166 166 0 0 0-8.44-5.44 133 133 0 0 1-6.37-4.12l-1.83-1.26L419 278v-2l-1.69-.75c-11.78-6.37-21.63-19.4-27.31-31.25l-1.38-2.69L387 238l-1.27-2.19c-5.91-11.13-6.16-24.82-2.73-36.81q.8-3.09 1.56-6.19l.79-3.06c.65-2.75.65-2.75 1.15-6.5.52-3.39 1.55-6.12 2.81-9.29 1.02-2.91 1.26-5.91 1.69-8.96q1.05-3.4 2.24-6.74c1.5-4.46 2.47-9.06 3.57-13.64a54 54 0 0 1 3.75-8.62 30 30 0 0 0 3.44-12l1-3.31c1.03-3.8 1.39-7.33 1.72-11.23.32-2.82 1.06-5.46 1.81-8.19.84-4.03.98-8.11 1.26-12.2.31-4.52.77-8.76 2.21-13.07v-2.5c0-2.5 0-2.5 1-5.5q.22-2.57.38-5.12c.44-5.35 1.7-9.89 3.62-14.88l.81-2.75c3.9-7.39 9.43-8.43 17.19-7.25m-14 7c-2.44 4.71-3.19 8.95-3.83 14.19-1.32 10.37-2.96 20.69-4.57 31.02l-1.59 10.25c-4.48 28.87-4.48 28.87-9.05 38.42-1.67 3.69-2.7 7.54-3.77 11.43l-.75 2.68c-3.4 12.27-6.51 24.62-9.44 37.01l-.85 3.6c-4.59 20.19-3.02 36.99 8.04 54.59 10.72 16.1 24.43 29.97 41.81 38.81h3l-.66 2.59c-2.22 10.28-2.62 20.31-2.59 30.79v2.08c.04 11.05.32 21.95 2.94 32.73l.52 2.17c2.31 9.16 5.4 18.18 9.8 26.55l1 1.96q1.4 2.63 2.87 5.24c2.09 5.25.26 10.57-.88 15.89q-.6 3.4-1.18 6.81l-.62 3.54c-3.35 19.21-6.2 38.44-8.76 57.77l-.32 2.43q-.95 7.06-1.83 14.16-.42 3.33-.88 6.65c-1.46 11.34-1.75 22.57-1.73 33.99q0 4.56-.04 9.12c-.03 9.02.03 17.35 2.67 26.05 1.32 4.75 1.16 9.62 1.22 14.52.29 10.24 3.61 17.4 10.47 24.96 6.57 6.1 13.3 6.69 21.91 6.44 7.52-.55 13.5-4.41 18.59-9.82 5.2-6.87 6.61-14.09 5.5-22.62-1.4-4.51-3.66-8.46-6.06-12.5-4.69-8.06-5.49-14.43-3.18-23.46q1.44-5.13 2.99-10.23l1.02-3.46a215 215 0 0 1 12.54-32.66l1.17-2.43q5.19-10.76 10.6-21.43l4.42-8.83 2.5-5c3.36 1.31 6.61 2.75 9.86 4.3 6.32 2.88 12.81 5.13 19.4 7.29l6 2.01 3.88 1.29 3.49 1.16c3.45.97 6.81 1.52 10.37 1.95l-.49 2.01c-.62 3.61-.7 7.15-.7 10.8v2.18c.05 4.25.45 7.91 1.68 11.95 4.69 18.91 1.46 41.08.15 60.26a702 702 0 0 0-1.14 21.99c-.78 19.05-.78 19.05-4.04 26.18-3.31 8.23-2.53 18.02.66 26.19 4.53 9.34 10.93 14.97 20.18 19.59 3.47 1.09 6.78 1.19 10.39 1.16l2.14-.01c7.32-.17 13.22-1.46 19.48-5.36 3.56-3.89 5.58-8.14 7.69-12.94l1.44.88c8.18 4.33 17.05 4.56 25.95 2.24 8.28-3.14 14.2-7.71 18.09-15.79a249 249 0 0 0 2.14-5.08l2.31-5.37 1.09-2.58q1.75-4.06 3.67-8.05a152 152 0 0 0 12.78-47.36L701 559l2-1 .77 2.54a90 90 0 0 0 4.85 10.84l1.06 2.08 4.43 8.71 3.2 6.33.99 1.92c6 11.88 7.69 22.24 3.7 35.27-2.28 5.77-2.28 5.77-4.87 7.71A40 40 0 0 1 711 635c-6.52 2.92-9.57 6.76-13 13a26 26 0 0 0-.23 16.32c3.18 5.89 8.12 8.37 14.23 10.68 11.55 3.44 30.94 2.94 42-2 6.4-4.36 9.66-9.13 12.44-16.25l1.11-2.73c10.68-26.79 18.67-54.11 19.95-83.02 1.22-27.11 9.04-56.66 21.5-81l.55 1.77q2.91 9.28 5.85 18.55l2.16 6.88c11.71 37.42 27.71 77.48 64.24 97.09 25.94 13.24 58.61 16.63 86.57 7.98 25.7-8.4 51.1-24.15 64.4-48.5 2.78-6.04 4.69-11.02 4.23-17.77-2.08-5.59-5.09-8.34-10.19-11.25-6.58-1.76-12.04-1.52-18.19 1.56-5.5 3.29-9.98 7.51-14.6 11.89-17.37 16.33-39.86 25.49-63.73 25.05-17.4-1.34-32.83-8.17-44.98-20.75-3.63-4.31-6.61-8.93-9.5-13.75l-1.19-1.98c-6.61-11.53-10.82-23.84-14.56-36.52l-1.31-4.37a804 804 0 0 1-7.25-26.07c-6.65-25.25-13.94-51.89-30.16-72.78-3.98-5.36-5.11-10.64-6.43-17.02-4.47-21.18-18.36-42.49-33-57.98-1.91-2.03-1.91-2.03-4.29-5.09-3.23-3.62-6.82-6.51-10.61-9.53a336 336 0 0 1-8.7-7.29c-15.59-12.99-33.14-23.43-51.39-32.2q-2.67-1.28-5.31-2.59c-9.04-4.35-18.3-8.11-27.6-11.86a2237 2237 0 0 1-28.26-11.66q-17.12-7.2-34.13-14.67l-3.56-1.56-3.12-1.37A117 117 0 0 0 596 231l3.2-15.78 1.08-5.35a558 558 0 0 1 6.24-28.02 650 650 0 0 0 5.87-25.47 832 832 0 0 0 7.5-39.35c3.59-21.01 3.59-21.01.42-27.47-3.5-3.88-5.65-5.4-10.92-5.9-5.17.08-8.91 2.21-13.33 4.72l-2.49 1.36a528 528 0 0 0-28.43 16.7l-1.86 1.15q-2.48 1.53-4.94 3.11c-8.48 3.3-19.11-1.16-27.6-3.2a338 338 0 0 0-18.13-3.88l-3.64-.7q-3.44-.65-6.9-1.21C493.21 99.96 489.46 95.94 484 89a236 236 0 0 0-4.5-4.44 98 98 0 0 1-8.44-9.5c-6.38-7.99-13.83-14.99-21.11-22.15q-2.44-2.39-4.84-4.81c-4.6-4.57-8.56-7.57-15.05-8.54-4.11.59-6.47 2.32-9.06 5.44" fill="#C1C2C3"/><path d="M457 396c3.38 4.35 6.32 8.99 9.33 13.6l1.29 1.97 1.17 1.78c1.21 1.65 1.21 1.65 2.86 3.24C473 418 473 418 473 420h3a27 27 0 0 1 4 6h2v2h2l1 4h3l1 3 5 3v2h2l1 2q2.46 1.08 5 2v2h2v2l2.15.78a53 53 0 0 1 8.41 4.72A77 77 0 0 0 524 459c-1.58 5.18-3.74 9.94-6.06 14.81l-1.2 2.53a367 367 0 0 1-8.36 16.28c-7.26 13.48-12.34 27.52-16.71 42.16q-.95 3.14-1.97 6.29l-1.14 3.68-.99 3.17c-1.24 6.72.99 13.8 3.43 20.08q1.94 2.55 4 5c3.72 6.82 4.12 14.18 2.38 21.68-2.24 6.55-5.76 10.39-11.38 14.32l-1.73 1.32c-6.57 4.17-14.82 3.42-22.27 2.68-7.83-1.91-12.35-8.26-16.81-14.56-3.35-6.88-3.54-13.48-3.67-20.97a48 48 0 0 0-2.03-12.7c-2.5-9.41-1.94-19.17-1.87-28.83l.02-3.12c.07-14.91.67-29.49 2.85-44.26q.88-6.28 1.68-12.57a1112 1112 0 0 1 8.37-55.09l1.65-9.28.5-2.85.48-2.61.41-2.29C454 402 454 402 455 400h2z" fill="#0D0F0F"/><path d="M435 38a32 32 0 0 1 10 6v2l1.79.79a22 22 0 0 1 5.65 4.52l1.83 1.9L456 55l2.56 2.5c2.45 2.51 4.7 5.13 6.96 7.81 1.3 1.48 2.7 2.88 4.1 4.25a23 23 0 0 1 4.26 5.38c2.21 3.19 4.49 5.21 7.53 7.57 1.81 1.7 2.5 3.27 3.59 5.49 3.2 4.18 6.48 8.35 11.72 9.7a104 104 0 0 0 5.58.2c3.53.13 6.36 1.2 9.65 2.41 2.96.99 5.96 1.29 9.05 1.69l7 2q2.52.52 5.06 1c3.78.73 7.31 1.7 10.94 3l2 .5c2.72.68 5.35 1.6 8 2.5l.62-1.94c1.38-2.06 1.38-2.06 4.5-2.81L562 106l-1-3 3-2 3 2 3.32-2.08 4.37-2.73 2.18-1.37a552 552 0 0 1 14.38-8.76c7.21-4.04 14.25-7.65 22.75-7.06 4.88 2.3 7.95 5.65 11 10 1.17 4.09.95 6.92 0 11l-.44 4.25A90 90 0 0 1 622.4 118c-.4 2-.4 2-.4 4.69 0 3.03-1.05 5.45-2 8.31v2.5c0 3.15-.95 5.55-2 8.5-.57 2.33-.97 4.6-1.18 7a53 53 0 0 1-3.2 14.01C613 165 613 165 613 167.62c0 3.5-1.63 6.19-3 9.38q-.06 2.5 0 5l-2 5v2.56c0 2.8-.77 3.97-2 6.44q-.55 3.5-1 7l-1 3q-.37 3.42-.62 6.84C603 215 603 215 601 218q-.06 2.5 0 5l-.69 2.62L600 228c2.38 2.94 4.96 3.82 8.49 5.05 3.11 1.18 6.07 2.59 9.07 4.01 5.94 2.77 10.82 4.94 17.44 4.94a17 17 0 0 1 3 3c2.15 2.15 3.22 2.52 6.06 3.38 4.15 1.31 8.05 2.93 11.99 4.75 4.52 2.01 4.52 2.01 7.95.87a79 79 0 0 1 6.44 3.88c4.59 3.02 7.97 5.12 13.56 5.12l1.31 1.38c2.33 2.23 4.61 2.69 7.69 3.62q3.1 1.19 6.17 2.41c1.83.59 1.83.59 4.83.59l2.25 2.31c3.09 3.02 5.76 4.12 9.75 5.69l5 3q1.93.99 3.88 1.94 3.98 1.95 7.81 4.18c3.31 1.88 3.31 1.88 6 2.82 2.31 1.06 2.31 1.06 4.03 3.32 2.64 3.18 5.64 5.32 9.03 7.62 5.4 3.75 10.39 7.68 15.25 12.12l3.25 2.69c3.51 3.01 6.82 6.2 10.13 9.43l1.62 1.57c2.76 2.73 4.15 4.57 5 8.31q2 1.02 4 2c5.22 6.08 9.28 12.93 13 20l2.62 4.69c6.49 11.69 12.11 24.37 13.82 37.75.71 3.22 2.19 4.35 4.56 6.56v3l1.81.56c2.7 1.78 3.29 3.64 4.41 6.6.78 1.84.78 1.84 2.72 4.59 2.37 3.73 3.69 7.42 5.12 11.58q1.14 3.19 2.5 6.29c2.68 6.3 4.56 12.81 6.44 19.38q.7 2.13 1.44 4.25c1.75 5.19 3.15 10.46 4.56 15.75l2.25 8.25q.75 2.76 1.46 5.54a121 121 0 0 0 5.38 15.93 50 50 0 0 1 3.29 12.16c1.28 6.43 4.65 12.31 7.62 18.12l.97 1.97c1.86 3.78 3.8 7.44 6.03 11.03l1.5 2.62c1.5 2.38 1.5 2.38 3.19 4.07L887 560v2l1.62.69c3.2 1.77 5.67 3.85 8.38 6.31v2c3.83 1.61 7.72 2.92 11.66 4.21q3.32 1.14 6.59 2.41c14.15 5.19 31.82 3.64 45.75-1.62q3.03-1.45 6-3c2.22-1.11 4.42-2.18 6.69-3.19 3.74-2.04 6.86-4.5 10.16-7.19 2.15-1.62 2.15-1.62 4.3-2.67C990 559 990 559 992 556.44c2.2-2.69 2.82-2.7 6-3.44l.74-1.8c3.07-5.36 11.09-8.17 16.77-10.01 6.05-1.04 11.24.82 16.49 3.81 3.31 2.57 5.65 4.95 7 9 .66 7.97.51 14.28-4 21l-2 3.12-2 2.88-1.75 2.94c-2.41 3.27-5 5.53-8.1 8.13-3.03 2.72-5.59 5.78-8.19 8.91-2.14 2.21-4.3 3.52-6.96 5.02l-2.5 2c-4.2 3.36-8.79 5.68-13.6 8.03-1.9.97-1.9.97-4.28 2.53-3.22 1.77-6.46 2.68-10 3.68-3.18.92-6.29 2-9.42 3.11-11.88 3.5-25.91 4.16-38.2 3.65l-1.96-.07c-13.55-.55-13.55-.55-20.04-2.93l-5.31-1.38a70 70 0 0 1-12.72-4.75c-1.97-.87-1.97-.87-3.98-1.35-6.07-1.59-10.73-6.15-14.99-10.52l-2.88-1.81c-3.38-2.38-5.67-4.95-8.32-8.09-3.57-4.16-7.24-8.06-11.8-11.1a87 87 0 0 1-3-5c-1.6-2.71-3.23-5.34-5-7.94a78 78 0 0 1-5-9.06l-2.5-4.94a144 144 0 0 1-4.12-8.81q-1.38-3.23-2.94-6.37c-1.94-3.87-3.34-6.98-3.82-11.32-.71-4.05-2.27-6.23-4.62-9.56v-6q-.65-1.96-1.44-3.88a37 37 0 0 1-2.06-6.68c-.7-3.39-2.08-6.29-3.5-9.44l-.73 2.49c-1.62 5.4-3.26 10.66-5.52 15.82-1.57 3.75-1.77 6.34-1.5 10.43-.49 4.37-2.93 8.17-4.86 12.07-1.55 3.57-2.06 6.5-2.25 10.34-.14 1.85-.14 1.85-1.2 4.41-1.13 2.94-1.06 5.27-.91 8.38-.03 2.06-.03 2.06-.53 4.38-.61 3.24-.56 6.26-.5 9.56.04 4.83-.16 9.35-1 14.12l-.44 4.56c-.39 3.71-1.38 6.9-2.56 10.44l.06 2.81c-.1 5.06-1.82 9.75-4.11 14.24-1.18 2.42-1.7 4.91-2.32 7.52-3.2 12.29-3.2 12.29-6.63 17.43l1.7.26c10.43 1.83 22.88 4.61 30.3 12.74 1.5 3.38 1.5 3.38 2 6l-4 3 1-8-1.75-.86a97 97 0 0 1-4.13-2.22c-8.78-4.84-18.52-7.22-28.12-9.92a138 138 0 0 1 5.31-18.69A207 207 0 0 0 786.5 571c1.29-28.64 10.76-55.59 21.5-82 2 1 2 1 2.79 2.89l.78 2.51.89 2.85.95 3.12 2.06 6.56 3.2 10.33c12.11 39.08 28.25 77.52 66.21 97.55 27.12 12.9 60.12 14.53 88.49 4.78 23.37-8.42 46.23-23.55 58.4-45.83 3.24-7.06 5.83-13.23 3.11-20.95-2.8-4.19-6.14-6.23-10.88-7.81-8.37-1.23-14.22 1.17-21 6-3.08 2.65-6.03 5.4-8.98 8.2-17.37 16.33-39.86 25.49-63.73 25.05-17.24-1.33-33.73-8.34-45.62-21.14-11.8-14.93-19.17-32.05-24.67-50.11l-1.46-4.67q-3.74-12.16-6.94-24.47c-14.46-55.19-14.46-55.19-31.26-76.83-3.98-5.36-5.11-10.64-6.43-17.02-4.46-21.11-18.3-42.49-32.94-57.9-1.97-2.11-1.97-2.11-3.91-4.62a45 45 0 0 0-7.06-6.68 432 432 0 0 1-11.69-9.69c-15.59-12.99-33.14-23.43-51.39-32.2q-2.67-1.28-5.31-2.59c-9.04-4.35-18.3-8.11-27.6-11.86a2682 2682 0 0 1-58.57-24.59l-1.94-.84-5.44-2.36-3.12-1.35A230 230 0 0 1 596 231c.46-8.39 2-16.44 3.85-24.62l1.36-6.14q2.21-10 4.74-19.92c2.5-9.85 4.53-19.8 6.55-29.76l.6-2.92a906 906 0 0 0 6.46-34.26l.48-2.85c2.29-14.87 2.29-14.87-.79-21.03-3.34-3.71-4.84-4.38-9.83-4.81-5.2.05-8.92 2.17-13.36 4.69l-2.49 1.36a528 528 0 0 0-28.43 16.7l-1.86 1.15q-2.48 1.53-4.94 3.11c-8.48 3.3-19.12-1.16-27.61-3.21a298 298 0 0 0-18.05-3.8c-21.48-3.87-21.48-3.87-28.68-13.74L482 88a105 105 0 0 0-4.12-4.06 89 89 0 0 1-7.76-8.82c-6.4-8-13.87-15.03-21.18-22.21a546 546 0 0 1-4.82-4.81c-4.56-4.51-8.61-6.83-15.01-7.25-2.11.15-2.11.15-4.99 1.59-4.26 5.14-5.17 10.3-5.96 16.75-1.31 10.37-2.95 20.69-4.56 31.02l-1.59 10.25c-4.48 28.87-4.48 28.87-9.05 38.42-1.67 3.69-2.7 7.54-3.77 11.43l-.75 2.68c-3.4 12.27-6.51 24.62-9.44 37.01l-.85 3.6c-4.59 20.2-3.01 36.99 8.04 54.59 10.38 15.62 25.49 32.7 43.81 38.81.17 4-.03 7.37-1 11.26-1.34 6.49-1.26 12.97-1.21 19.56q.03 3.17.02 6.33c.03 10.49.39 20.8 2.88 31.04l.52 2.17c2.31 9.16 5.4 18.18 9.8 26.55l1 1.96q1.4 2.63 2.87 5.24c2.09 5.25.26 10.57-.88 15.89q-.6 3.4-1.18 6.81l-.62 3.54c-3.35 19.21-6.2 38.44-8.76 57.77l-.32 2.43q-.95 7.06-1.83 14.16-.42 3.33-.88 6.65c-1.46 11.34-1.75 22.57-1.73 33.99q0 4.56-.04 9.12c-.03 9.02.03 17.35 2.67 26.05 1.32 4.75 1.16 9.62 1.22 14.52.28 10.02 3.41 17.76 10.47 24.96a40 40 0 0 0 7 4l2 1c10.34.96 18.45.59 27-6 5.06-4.39 7.53-10.09 8.32-16.64.35-8.26-2.25-13.91-6.38-20.86-4.69-8.06-5.49-14.43-3.18-23.46q1.44-5.13 2.99-10.23l1.02-3.46a215 215 0 0 1 12.54-32.66l1.17-2.43A768 768 0 0 1 524 460c3.36 1.31 6.61 2.75 9.86 4.3 6.95 3.18 14.14 5.52 21.39 7.89l4.01 1.32A391 391 0 0 0 577 479l-.03 1.8q-.06 4.1-.09 8.2l-.06 2.83c-.04 5.8.62 10.59 2.18 16.17 2.59 19.21.95 38.96-.36 58.2a702 702 0 0 0-1.14 21.99c-.78 19.08-.78 19.08-4.03 26.13-1.68 4.2-2.01 7.65-2.16 12.12l-.1 2.21L571 634c-3.48 1.16-6.83 1.43-10.46 1.72l-2.25.19-7.23.59-2.5.21c-8.83.73-17.64 1.42-26.5 1.73-21.63.82-43.53 3.68-64.87 7.21q-3.48.55-6.97 1.06a375 375 0 0 0-29.92 5.76l-12.24 2.78-2.31.53c-2.98.67-5.68 1.22-8.75 1.22v2l-2.7.59-3.55.79-3.52.77c-2.72.72-4.89 1.3-7.23 2.85l-1 3-2 1v3l3 1v2c-4.88-.88-4.88-.88-6-2-.44-2.19-.44-2.19 0-5 3.55-5.22 8.17-7.02 14-9l1.97-.69c24.02-8.13 49.31-12.14 74.34-15.62l2.67-.38a527 527 0 0 1 32.43-3.56l2.53-.21 2.23-.17C506 637 506 637 508 635c6.3-1.14 15.41-2.54 21.62-.46 3.51.68 6.9.24 10.43-.1l2.33-.2 7.37-.68 5-.44L567 632l.13-2.64.21-3.5.2-3.45c.47-3.49 1.42-6.01 2.96-9.16 5.5-12.99 3.73-29.3 3.44-43.19C574 568 574 568 575 567q.07-4.64-.04-9.28A49 49 0 0 1 576 547l-1-2.5c-1.21-3.02-.97-4.43 0-7.5l2-3c.05-2.16.05-2.16-.25-4.5l-.27-2.34C576 525 576 525 574 522c.2-1.99.4-3.98.7-5.95.89-6.08-.02-10.87-2.89-16.3L571 498l1-2-.56-2.5-.44-2.5 2-2c.12-3.63.12-3.63 0-7a149 149 0 0 0-11.46-4.14c-3.7-1.25-7.33-2.67-10.96-4.09-2.67-.8-4.81-.8-7.58-.77a97 97 0 0 1-5-3l-1.89-.44c-2.47-.66-4.22-1.73-6.36-3.12l-2.14-1.38L526 464l-2 2 4 2-2 4-3-1-3 5 2 3c-3 2-3 2-5 2l.75 1.75.25 2.25c-1.75 2-1.75 2-4 4a22 22 0 0 0-3.88 6.19c-1.35 3.38-3.14 6.4-5 9.53-1.19 2.43-1.62 4.63-2.12 7.28l-3 4q-.54 2.5-1 5a322 322 0 0 1-5.31 16.91c-.99 3.01-1.86 6.04-2.69 9.09l-.67 2.04c-1.64 5.33-1.64 5.33-.02 8.65L492 560l.46 2.37c.57 2.78 1.48 4.63 2.92 7.07q1.32 2.26 2.62 4.56l1.63 2.79c2.62 6.12 2.17 12.71 1.37 19.21-1.42 3.39-3.35 5.49-6 8l-1.83 2.11c-6.67 7.43-14.53 10.45-24.43 11.06-4.69-.29-8.61-2-12.74-4.17l-2.57-1.34c-2.75-1.88-4.16-3.7-5.99-6.47l-1.8-2.7L444 600l-2.31-3.19c-4.22-7.03-4.89-15.51-3.09-23.46.58-3.42-1.03-5.33-2.6-8.35-.12-2.56-.12-2.56 0-5q-.46-2.5-1-5c-.96-5.59-1.15-10.97-1.12-16.62l-.02-2.53c.01-4.12.32-7.8 1.14-11.85q.07-4.07 0-8.12c-.13-7.48-.13-7.48 1-10.88v-2.38c0-2.7.43-4.98 1-7.62a204 204 0 0 0 1.5-12.06c.43-4.46 1.03-8.83 2-13.2.77-4.2.94-8.42 1.22-12.68.23-2.51.65-4.64 1.28-7.06q.25-2.4.44-4.81A62 62 0 0 1 446 433v-2.5c0-2.5 0-2.5.94-5.75a55 55 0 0 0 1.81-10.73C449 412 449 412 450 409q.52-3.5 1-7l.69-2.62c.4-3.05-.38-4.63-1.69-7.38l-.88-2.25c-1.73-4.26-3.78-8.36-5.78-12.5A35 35 0 0 1 441 368l-.94-2.25c-1.31-3.39-1.89-6.76-2.55-10.32-.51-2.43-.51-2.43-1.63-5.74-.9-2.74-.96-4.84-.88-7.69l-1-1v-8l-1-1a84 84 0 0 1-.13-5.02l-.01-3.1.02-3.26-.02-3.23.01-3.1v-2.85C433 309 433 309 434 306q.26-2.4.44-4.81A39 39 0 0 1 437 290a166 166 0 0 0-8.44-5.44 133 133 0 0 1-6.37-4.12l-1.83-1.26L419 278v-2l-1.69-.75c-11.78-6.37-21.63-19.4-27.31-31.25l-1.38-2.69L387 238l-1.27-2.19c-5.91-11.13-6.16-24.82-2.73-36.81q.8-3.09 1.56-6.19l.79-3.06c.65-2.75.65-2.75 1.15-6.5.52-3.39 1.55-6.12 2.81-9.29 1.02-2.91 1.26-5.91 1.69-8.96q1.05-3.4 2.24-6.74c1.5-4.46 2.47-9.06 3.57-13.64a54 54 0 0 1 3.75-8.62 30 30 0 0 0 3.44-12l1-3.31c1.03-3.8 1.39-7.33 1.72-11.23.32-2.82 1.06-5.46 1.81-8.19.84-4.03.98-8.11 1.26-12.2.31-4.52.77-8.76 2.21-13.07v-2.5c0-2.5 0-2.5 1-5.5q.22-2.57.38-5.12c.44-5.35 1.7-9.89 3.62-14.88l.81-2.75c3.9-7.39 9.43-8.43 17.19-7.25" fill="#E5E6E7"/><path d="M701 558h2l1.47 2.97 2.03 4.09 1.09 2.2q3.14 6.3 6.53 12.47c14.04 25.64 14.04 25.64 10.4 40.21-3.15 10.69-3.15 10.69-6.52 14.06-9.85 3.54-18.01 3.19-27.91.48-3.97-.91-8.03-1.16-12.09-1.48a36 36 0 0 1 3.75-12.06c2.61-5.49 4.9-11.01 7.03-16.69a211 211 0 0 1 2.54-6.46c4.73-11.67 6.79-23.48 8.25-35.9C700 559 700 559 701 558" fill="#F1F2F3"/><path d="M457 396c3.38 4.35 6.32 8.99 9.33 13.6l1.29 1.97 1.17 1.78c1.21 1.65 1.21 1.65 2.86 3.24C473 418 473 418 473 420h3a27 27 0 0 1 4 6h2v2h2l1 4h3l1 3 5 3v2h2l1 2q2.46 1.08 5 2v2h2v2l2.15.78a53 53 0 0 1 8.41 4.72A77 77 0 0 0 524 459c-1.67 6.16-4.88 11.48-8 17l-3-2v-2h-3v-2h-2v-2h-4v-2h-2v-2h-2v-2l-2.31-.88C495 460 495 460 492 458v-2h-3a139 139 0 0 1-5-5 279 279 0 0 0-5.62-4.69l-2.86-2.32C473 442 473 442 470 440v-2h-2c-1.88-2.15-3.64-4.3-5.38-6.56l-1.46-1.85c-5.74-7.37-9.23-12.99-8.16-22.59a55 55 0 0 1 2-7h2z" fill="#010101"/><path d="M595 231h3q-.64 4.72-1.31 9.44l-.36 2.66A80 80 0 0 1 592 260h-2v4h-2l-1 6h-2l-.88 2.94C583 276 583 276 581 277l-1 3h-2v2h-2v2h-2v2h-2v2c-1.75 2.12-1.75 2.12-4 4h-4v2c-4.82 4-9.94 5.81-16 7v2a357 357 0 0 1-16 5l-2.14.63c-11.94 3.36-23.8 3.77-36.11 3.81l-2.3.02c-9.54.05-18.46-.73-27.79-2.72-3.89-.79-7.72-1.29-11.66-1.74v-2h-8v-2l-5-1c-.22-5.44-.1-9.87 2-15l8 2v2l2.22.38c2.63.59 4.81 1.4 7.27 2.48 25.96 10.61 59.16 12.55 85.51 2.14 2.66-.77 5.31-1.37 8-2v-2l6-1v-2h4v-2a31 31 0 0 1 8-4v-2h2v-2h2l.88-1.75L578 272h2l1-4h3l.31-3.5c.55-4.51 1.97-8.31 3.69-12.5h2l.31-3.25c1.85-14.91 1.85-14.91 4.69-17.75" fill="#010101"/><path d="M769 647c27.16 7.24 27.16 7.24 35 14 .5 2.94.5 2.94 0 6-9.82 11.74-30.23 12.15-44.43 13.44-10.65.88-20.94.62-31.57-.44v-3l12-1v-1l2.82-.45 3.74-.67 3.69-.64c5.49-1.82 9.15-4.44 12.05-9.51 1.15-2.5 2.16-5.03 3.14-7.61A495 495 0 0 0 769 647" fill="#BCBDBD"/><path d="M515 198c9.67 1.87 17.88 4.5 24 12.62 2.95 4.98 3.72 9.6 3 15.38-2.5 8.3-7.32 14.98-14.97 19.18-3.71 1.5-7.38 1.5-11.34 1.44l-2.55-.02c-6.98-.25-11.88-1.83-17.14-6.6l-1.82-1.64c-5.04-5.21-7.27-11.55-7.49-18.74C487 216 487 216 489 213l.08 1.98c.47 7.23 1.95 11.41 7.54 16.33 4.07 2.89 7.46 3.24 12.38 2.69 3.38-1.5 3.38-1.5 6-3h2c4.09-7.55 6.21-14.38 5-23-1.81-3.44-1.81-3.44-4-6z" fill="#F1D157"/><path d="m801 669 2 1c-12.19 11.38-32.9 11.58-48.69 13.06l-2.7.26c-38.51 3.61-77.16 4.05-115.81 4.86-19.43.41-38.83.88-58.24 1.94-18.66 1.01-37.31 1.07-55.99 1.07h-6.97c-15.98 0-31.95-.15-47.92-.62l-3.86-.11c-26.68-.88-58.94-2.35-82.82-15.46l2-1q2.36.85 4.69 1.79c24.23 9.82 52.72 11 78.58 11.75l2.21.06c16.67.49 33.34.55 50.02.53h12.24c22.77.03 45.55-.03 68.26-1.9 5.27-.4 10.54-.57 15.81-.73l3.9-.13c10.23-.31 20.46-.48 30.7-.64 35.38-.55 70.66-1.29 105.9-4.67l2.56-.24c36.84-3.53 36.84-3.53 44.13-10.82" fill="#E8E9EA"/><path d="M439 179c6.56 2.37 12.74 6.48 16.56 12.44 2.74 6.79 1.63 12.52-.58 19.29-2.17 5.02-6.24 7.84-10.98 10.27a33 33 0 0 1-19.31-.06c-6.68-4.81-11.3-9.93-13.69-17.94-.25-3.56-.25-3.56 0-6l.75 1.56c4.63 9.02 4.63 9.02 8.25 11.44 4.86.91 9.01.39 13.31-2.06 3.73-2.69 6.48-5.43 7.69-9.94.6-6.65.9-12.86-2-19" fill="#EDD15A"/><path d="M638 569a45 45 0 0 1 5.62 6.5l1.29 1.78c3.17 5.01 2.59 11.04 2.09 16.72-1.23 4.92-2.82 8.79-6.38 12.44C632.96 611 632.96 611 628 611c-1.23-13.67 2.96-28.73 9-41z" fill="#F0F0F1"/><path d="M791 546c2 3 2 3 1.69 5.94q-.56 2.5-1.2 4.98c-1.77 7.5-1.52 15.23-1.46 22.88A60 60 0 0 1 789 590l-.44 4.56c-.39 3.71-1.38 6.9-2.56 10.44l.06 2.81c-.1 5.06-1.82 9.75-4.11 14.24-1.18 2.42-1.7 4.91-2.32 7.52-3.2 12.29-3.2 12.29-6.63 17.43l1.7.26c10.43 1.83 22.88 4.61 30.3 12.74 1.5 3.38 1.5 3.38 2 6l-4 3 1-8-1.75-.86a97 97 0 0 1-4.13-2.22c-8.78-4.84-18.52-7.22-28.12-9.92a138 138 0 0 1 5.31-18.69c6.85-19.98 10.42-40.08 11.3-61.15.69-15.36.69-15.36 4.39-22.16" fill="#E7E8EA"/><path d="M488 213h1l.08 1.98c.47 7.23 1.95 11.41 7.54 16.33 4.07 2.89 7.46 3.24 12.38 2.69 3.38-1.5 3.38-1.5 6-3h2l.88-1.88C519 227 519 227 521 225l1 3h-2v4h-2l-1 4h3v8h-8v2c-5.58.88-9.06-1.32-13.6-4.23-6.36-4.68-9.83-10-11.4-17.77-.37-3.9-.25-7.25 1-11" fill="#EACE60"/><path d="M456 222c5.95-.32 10.68.15 16 3 2.06 1.88 2.06 1.88 3 4-.08 3.19-.53 4.51-2.75 6.81-2.62 1.39-4.33 1.43-7.25 1.19l-2 7c-2.38.62-2.38.62-5 1-2.41-2.41-2.46-3.64-3-6.94-.57-3.48-.99-5.05-3-8.06.38-2.69.38-2.69 1-5l3-1z" fill="#646362"/><path d="M447 432h2q-1.63 13.3-3.4 26.57c-7.76 58.22-7.76 58.22-8.22 82.9l-.07 2.92-.04 2.56C437 549 437 549 435 551a20 20 0 0 1-1.13-7.27l-.01-2.5.02-2.61-.02-2.57c.01-4.19.3-7.94 1.14-12.05q.07-4.07 0-8.12c-.13-7.48-.13-7.48 1-10.88v-2.38c0-2.7.43-4.98 1-7.62a204 204 0 0 0 1.5-12.06c.43-4.46 1.03-8.83 2-13.2.77-4.2.94-8.42 1.22-12.68.23-2.51.65-4.64 1.28-7.06q.22-2.37.38-4.75c.44-4.87 1.71-8.76 3.62-13.25" fill="#E5E5E8"/><path d="M436 309h1l.08 2.3q.17 5.26.36 10.51l.12 3.63c.35 10.04.75 19.95 3.13 29.75l.52 2.17c2.31 9.16 5.4 18.18 9.8 26.55 4.47 8.54 5.5 13.62 2.99 23.09-.74 3.85-1.39 7.7-2.06 11.56l-1.04 5.76-.45 2.51C450 429 450 429 449 432h-2c-1.61-4.04-.19-6.97 1-11q.47-3.48.75-6.98C449 412 449 412 450 409q.52-3.5 1-7l.69-2.62c.4-3.05-.38-4.63-1.69-7.38l-.88-2.25c-1.73-4.26-3.78-8.36-5.78-12.5A35 35 0 0 1 441 368l-.94-2.25c-1.31-3.39-1.89-6.76-2.55-10.32-.51-2.43-.51-2.43-1.63-5.74-.9-2.74-.96-4.84-.88-7.69l-1-1c-.12-2.5-.12-2.5 0-5l1-1q.23-2.88.32-5.79l.12-3.54.12-3.73.13-3.75z" fill="#E9E9EC"/><path d="M622.31 87.31c2.54 3.16 3.6 5.54 3.7 9.7a78 78 0 0 1-1 5q-.4 3.45-.73 6.9c-.28 2.1-.28 2.1-1.28 5.1h-2l.06-1.85q.12-4.14.2-8.29.03-1.42.1-2.88c.07-6.03-.36-9.4-4.36-13.99-2.96-2.33-6.05-2.33-9.75-2.29-4.18.54-7.56 2.61-11.19 4.66l-2.49 1.37a522 522 0 0 0-28.43 16.7c-9.89 6.16-9.89 6.16-15.39 5.62C546 112 546 112 544 111l1-3 9 3 2-4c3.12-.75 3.12-.75 6-1l-1-3 3-2 3 2 3.32-2.08 4.37-2.73 2.18-1.37a552 552 0 0 1 14.38-8.76c10.75-6.05 21.34-11.14 31.06-.75" fill="#E2E2E5"/><path d="m854 592 2.75 2.38 1.94 1.65q2.53 2.16 5.02 4.35c22.18 19.09 47.71 24.54 76.29 26.62v2q-10.19.19-20.38-.38l-3.96-.21A39 39 0 0 1 906 626l-5.31-1.38a70 70 0 0 1-12.72-4.75c-1.97-.87-1.97-.87-3.98-1.35-6.07-1.59-10.73-6.15-14.99-10.52l-2.88-1.81c-5.22-3.66-9.47-8.36-12.12-14.19" fill="#E9EBEB"/><path d="m475 643-3.71.55-13.51 2.03-7.71 1.15a377 377 0 0 0-29.77 5.74l-12.24 2.78-2.31.53c-2.98.67-5.68 1.22-8.75 1.22v2l-2.7.59-3.55.79-3.52.77c-2.72.72-4.89 1.3-7.23 2.85l-1 3-2 1v3l3 1v2c-4.88-.88-4.88-.88-6-2-.44-2.19-.44-2.19 0-5 3.55-5.22 8.17-7.02 14-9l1.97-.69c22.06-7.47 45.4-11.56 68.41-14.87l3.68-.55 3.4-.46 2.96-.4c2.81-.03 4.22.51 6.58 1.97" fill="#EAEAEC"/><path d="M419 277c4.57.55 7.85 2.53 11.62 5 6.04 3.89 6.04 3.89 9.38 5 .14 4.73-.29 8.73-1.44 13.31-2.44 11.4-2.32 23.08-2.56 34.69-2.19-1.74-2.94-2.6-3.36-5.4l.03-2.82.02-3.07.06-3.21.02-3.21c.08-7.83.08-7.83 1.23-11.29q.26-2.4.44-4.81A39 39 0 0 1 437 290a166 166 0 0 0-8.44-5.44A124 124 0 0 1 419 278z" fill="#E4E6E6"/><path d="M437 524h1l.04 2.93.22 10.94.09 4.7c.13 8.61.58 16.43 2.97 24.76 1.06 4.16 1.21 8.27 1.3 12.55.17 5.13.39 10.06 1.38 15.12l-3 1-.94-3.38C439 589 439 589 438 587q-.14-2.65-.12-5.31l-.01-2.87c.13-2.82.13-2.82.73-5.49.59-3.41-1.04-5.33-2.6-8.33-.12-2.56-.12-2.56 0-5l-.56-2.44c-.53-3.1.03-5.46.56-8.56a206 206 0 0 0 .44-9.41l.12-3.47.13-3.53z" fill="#D1D1D3"/><path d="M663 254c4.48 1.97 8.7 4.49 12.95 6.91A15 15 0 0 0 684 263l1.31 1.38c2.33 2.23 4.61 2.69 7.69 3.62q3.1 1.19 6.17 2.41c1.83.59 1.83.59 4.83.59l2 4c-4.29 1.26-6.49.72-10.5-1.13l-3.17-1.44-3.33-1.55-6.75-3.08-3.27-1.49a139 139 0 0 0-13.82-5.11c-2.84-1.58-3.28-3.15-4.16-6.2z" fill="#E5E7E8"/><path d="M427 40c6.14.27 10.05 1.06 15 5l2.44 1.75c3.55 3.12 6.51 6.65 9.56 10.25l3.44 4 2.56 3h-4v2c-3.99-1.33-5.48-3.9-7.73-7.21A44 44 0 0 0 442 52l-2.36-2.27-2.64-2.48-2.5-2.36c-2.61-1.97-4.28-2.55-7.5-2.89z" fill="#09090B"/><path d="m986 561 3 2a66 66 0 0 1-15.25 10.62l-2.25 1.17c-11.3 5.77-21.25 8.41-33.94 8.27l-2.5-.01L929 583v-2l3.19-.08c12.35-.43 23.73-2.05 34.81-7.92 2.22-1.11 4.42-2.18 6.69-3.19 4.49-2.46 8.34-5.59 12.31-8.81" fill="#E6E6E9"/><path d="M575 490h1l.4 2.92.54 3.83.52 3.8c.54 3.45.54 3.45 1.07 5.54 2.94 11.99 1.58 25.66 1.47 37.91h-1l-.15-3.03-.23-3.91-.21-3.9L578 530l-2-1c-.56-2.25-.56-2.25-1-5l-.62-2.5c-.43-2.81.01-4.74.62-7.5.37-5.83-.75-10.13-4-15l2-1v2h2z" fill="#E4E4E6"/><path d="M884 561c5.41 1.32 9.26 3.93 13 8v2c3.83 1.61 7.73 2.92 11.68 4.21q3.16 1.1 6.26 2.35c4.56 1.75 9.26 2.6 14.06 3.44v2h11v1c-19.18.86-35.05-4.16-50-16a60 60 0 0 1-6-7" fill="#E4E6E8"/><path d="M515 198c7.66 1.57 13.61 3.45 20 8l-1 2-4-2v-2h-2v6h-4v2h2v4h2v4l-3 1-1 3-3 1 .5-2.31c1.69-12.44 1.69-12.44-1.31-18.13L518 202z" fill="#D9C168"/><path d="m388 182 2 1-.88 5.44-.49 3.06a74 74 0 0 1-1.14 5.48c-1.68 6.53-1.69 12.75-1.55 19.46l.09 6.43.05 2.84C386 228 386 228 385 230h-2q-.55-4-1-8l-.36-3.07c-.71-7.13-.47-13.03 1.36-19.93l.77-3.14q1.1-4.44 2.23-8.86l.53-2.29C387 183 387 183 388 182" fill="#E6E6E8"/><path d="M488 213h1l.08 1.98c.46 7.15 1.8 10.9 6.92 16.02v3l6 2-1 6 11 2v2c-5.58.88-9.06-1.32-13.6-4.23-6.36-4.68-9.83-10-11.4-17.77-.37-3.9-.25-7.25 1-11" fill="#DBCA6C"/><path d="M620 109h1l.5 5.19.28 2.92c.4 5.3-.09 8.83-1.78 13.89v2.5c0 3.15-.95 5.55-2 8.5a46 46 0 0 0-1.18 7.24l-.2 2.45-.14 2.32C616 156 616 156 613 158l-2 3c.64-6.93 1.88-13.58 3.38-20.38 2.25-10.49 4.08-21 5.62-31.62" fill="#E5E7E8"/><path d="m411 197 .88 1.77c4.4 8.75 4.4 8.75 8.12 11.23 2.7.41 2.7.41 5.69.62l3.01.23 2.3.15c-1.38 2.5-1.38 2.5-3 5h-2v2h2v2h4v2c-5.92-.12-8.87-1.91-13.14-5.98-5.44-5.9-7.66-10.98-7.86-19.02" fill="#F1DD73"/><path d="M438 500h1l.06 5.25.04 2.95c-.08 3.17-.3 6.25-.58 9.4a358 358 0 0 0-1.04 22.92l-.1 3.24-.08 2.91C437 549 437 549 435 551a20 20 0 0 1-1.13-7.27l-.01-2.5.02-2.61-.02-2.57c.01-4.19.3-7.94 1.14-12.05q.07-4.1 0-8.19c-.13-7.54-.13-7.54 1-9.81h2z" fill="#F1F2F4"/><path d="M535 207c5.15 4.61 6.7 7.99 7.38 14.81-.23 7.24-3.93 13.45-8.73 18.68-3.41 3.12-6.91 5.51-11.65 5.51v-2h3v-2l7-2v-2h2v-2h2v-4h2l-.06-2.88C538 226 538 226 539 224h-3c-.29-8.57-.29-8.57 2-12h-2z" fill="#E4CD67"/><path d="M436 309h1l.08 2.3q.17 5.26.36 10.51l.12 3.63c.4 11.3 1.2 21.8 4.24 32.7 1.38 5.34 1.38 5.34.31 8.36L441 368c-1.91-4.09-2.67-8.17-3.49-12.57-.51-2.43-.51-2.43-1.63-5.74-.9-2.74-.96-4.84-.88-7.69l-1-1c-.12-2.5-.12-2.5 0-5l1-1q.23-2.88.32-5.79l.12-3.54.12-3.73.13-3.75z" fill="#E3E3E5"/><path d="M977 619c-1 3-1 3-3.05 4.1-15.28 5.45-29.99 5.49-45.95 3.9v-1l4-.11c26.48-.91 26.48-.91 38.29-5.49C974 619 974 619 977 619" fill="#DFE3E0"/><path d="M791 546c2 3 2 3 1.69 5.94q-.56 2.5-1.2 4.98c-1.79 7.58-1.52 15.34-1.23 23.08-.29 3.4-.82 3.84-3.26 6q-.08-5.9-.12-11.81l-.06-3.34c-.05-8.46.01-17.26 4.18-24.85" fill="#EBECED"/><path d="M799 519c1.93 6.28.98 10.8-1.88 16.62l-1.61 3.36L794 542l-1.09 2.26A37 37 0 0 1 789 550c.63-4.96 1.59-9.66 2.88-14.5l.99-3.78c2.88-9.47 2.88-9.47 6.13-12.72" fill="#DFDFDF"/><path d="M528 104q2.56.52 5.12 1c6.87 1.35 6.87 1.35 9.88 3l1 3c-6.92-.67-13.46-2.26-20.19-4l-6.35-1.62-2.82-.73A150 150 0 0 0 507 103c6.49-3.88 14.22-1.06 21 1" fill="#DCDCDD"/><path d="M490 562c3.2 3.77 5.7 7.65 8 12l1.61 2.7c1.72 4.09 1.73 7.3 1.58 11.68l-.04 2.23L501 596h-2c-1.36-2.71-1.19-5.03-1.31-8.06-.49-6.98-2.03-12.62-6.44-18.13-1.79-2.59-1.46-4.74-1.25-7.81" fill="#F2F2F4"/><path d="M412 102h4a500 500 0 0 1-.38 6.69l-.21 3.76c-.38 3.31-.79 5.65-2.41 8.55-2.12 1.31-2.12 1.31-4 2-.37-7.47.96-13.82 3-21" fill="#0B0C0F"/><path d="M442 366h2l.59 2.03c2.33 7.46 5.33 14.3 8.86 21.27 2.66 5.38 2.66 5.38 1.55 8.7-3.63-3.25-5.35-5.16-6-10l-2-2c-3.06-6.51-5.36-12.69-5-20" fill="#E0E0E2"/><path d="m497 592 3 4c-3.8 8.39-9.97 15.18-18.62 18.62A97 97 0 0 1 477 616l-1-1q-2.52-.34-5.06-.56l-2.79-.26L466 614v-1l2.24-.01c8.84-.33 15.66-2.62 22.45-8.44 3.37-3.67 4.79-7.91 6.31-12.55" fill="#E7E8E9"/><path d="M786 581h1q.55 2.84 1.06 5.69l.6 3.2c.47 4.31-.45 7.44-1.72 11.55-.94 3.56-.94 3.56-.82 6.81L786 611c-1.88 1.69-1.88 1.69-4 3l-2 3c.69-4.34 1.54-8.63 2.44-12.94A280 280 0 0 0 786 581" fill="#DDDFE1"/><path d="M439 179c6.56 2.37 12.74 6.48 16.56 12.44 2.8 6.93 1.42 12.64-.56 19.56h-1v-11l-2-1h3v-5l-3-1-1-5h-3v-2h-2v-2h-2l-1 11h-1l-.15-2.23-.23-2.96-.21-2.92A28 28 0 0 0 439 179" fill="#D9C56C"/><path d="M437 524h1l.06 2.96.26 11.02.1 4.74c.18 8.6.36 16.91 2.58 25.28h-3c-2.23-3.34-2.09-4.17-2-8l-.56-2.44c-.53-3.1.03-5.46.56-8.56a206 206 0 0 0 .44-9.41l.12-3.47.13-3.53z" fill="#C8C7C9"/><path d="M435 303h2l-1 32c-3-3-3-3-3.37-5.36l.01-2.75v-3.04l.05-3.16-.01-3.13c.03-5.23.21-9.68 2.32-14.56" fill="#F3F2F5"/><path d="m596 225 1.88 2.25c2.99 2.99 6.21 4.13 10.14 5.57a124 124 0 0 1 10.6 4.93l1.91.96L625 241v2a39 39 0 0 1-10.74-3.5l-3.23-1.5-3.34-1.56-3.4-1.58L596 231z" fill="#DEE0E1"/><path d="m490 537 3 3-.88 3-.53 1.93q-.6 2.08-1.27 4.14c-1.1 3.58-1.59 5.36.06 8.81L492 560v2h-2l-1 3c-4.19-10.23-2.01-17.71 1-28" fill="#DEDFE0"/><path d="M783 612c1.28 3.9.38 6.07-1.18 9.84a43 43 0 0 0-1.82 6.47c-1.31 4.82-1.31 4.82-4 6.69h-1c.45-7.63 2.47-17.47 8-23" fill="#EDEDEF"/><path d="m621 90 4 1c.86 4.1.94 6.95 0 11q-.4 3.45-.72 6.91C624 111 624 111 623 114h-2z" fill="#F2F2F5"/><path d="M397 657v2l-2.7.59-3.55.79-3.52.77c-2.72.72-4.89 1.3-7.23 2.85l-1 3-2 1v3l3 1v2c-4.88-.88-4.88-.88-6-2-.44-2.19-.44-2.19 0-5 5.07-7.46 14.33-10.24 23-10" fill="#DFE0E1"/><path d="M520.75 477.44 522 479c-3 2-3 2-5 2l.75 1.75c.25 2.25.25 2.25-1.44 4.57L514 489c-2.14-.4-2.14-.4-4-1q1.1-2.73 2.25-5.44l1.27-3.05c1.48-2.51 1.48-2.51 3.54-3.45 1.94-.06 1.94-.06 3.69 1.38" fill="#E8E8EC"/><path d="M488 213h1l.08 1.98c.38 5.81 1.17 9.36 4.92 14.02l2 3-5 2c-3.95-6.01-4.23-10.98-4-18z" fill="#AEAA75"/><path d="M578 527h1v23c-4-5-4-5-4-9l-.12-2.62C575 536 575 536 577 534q.6-3.49 1-7" fill="#F7F5F8"/><path d="M413 70h2a72 72 0 0 1-2 20l-3-1 .44-5.38.24-3.02C411 78 411 78 412 76v-2.56c0-2.44 0-2.44 1-3.44" fill="#EBECEC"/><path d="m921.13 579.44 2.28.45 5.6 1.1v2h11v1c-9.31.43-18.05-.26-27-3q-1-.97-2-2c3.27-1.63 6.64-.25 10.12.45" fill="#CECECF"/><path d="M575 490h1l.4 2.92.54 3.83.52 3.8c.54 3.45.54 3.45 1.1 5.57.56 2.42.54 4.66.5 7.13l-.02 2.7L579 518h-1v-9l-4-2c-.62-2.44-.62-2.44-1-5l-2-3 2-1v2h2z" fill="#EBEBED"/><path d="M643 249c4.87.28 7.97 1.35 12 4l2.69.94c2.8 1.28 3.1 2.33 4.31 5.06a228 228 0 0 1-21-8z" fill="#E1E2E3"/><path d="M696 637h8c0 3.91-1.51 5.12-4 8l-4-1z" fill="#D8D6DA"/><path d="m693 268 3.81 1.5 2.15.84c2.04.66 2.04.66 5.04.66l2 4c-2.76 1.07-4.54 1.16-7.34.18A169 169 0 0 1 692 272z" fill="#EAEBEF"/><path d="m575 567 2 1v19h-2c-.65-6.35-1.24-12.61-1-19z" fill="#F1F0F2"/><path d="M1031.06 544.81c5.16 3.84 5.16 3.84 6.94 6.2-.25 2.74-.25 2.74-1 5l-2-3c-3.75-5.57-7.95-7.4-14.44-8.7l-2.56-.3v-1c5.27-1.37 8.36-.98 13.06 1.8" fill="#D7D7DA"/><path d="M540 212h2c1.81 5.95 1.95 9.88 1 16l1 2h-2l1 3-3 1-1 3h-2l.88-2.12L539 232l1.12-2.81c1.6-5.82 1.06-11.3-.12-17.19" fill="#211A06"/><path d="M392 164h2a79 79 0 0 1-4 19l-3-1 .88-2.88c1.15-3.98 1.91-8.01 2.66-12.08C391 165 391 165 392 164" fill="#E9EAEA"/><path d="M1037 554h2c.45 8.17.41 13.98-4 21h-1c.71-7.06 1.78-14.01 3-21" fill="#E9EBEC"/><path d="M799 519c1.5 4.87 1.59 8.68-.5 13.38L797 535c-2.48-3.73-2.38-5.59-2-10 1.16-2.31 2.17-4.17 4-6" fill="#EAE9ED"/><path d="m411 197 .88 1.77c4.4 8.75 4.4 8.75 8.12 11.23 2.04.41 2.04.41 4.19.62l3.81.38v1h-10l-1 2c-4.12-5.58-5.82-10.06-6-17" fill="#E8E197"/><path d="M813 382c3.36 2.94 4.68 5.18 5.75 9.5l.73 2.84C820 397 820 397 820 401l-3-1c-1.17-3.02-1.17-3.02-2.19-6.81l-1.04-3.77C813 386 813 386 813 382" fill="#EDEEEE"/><path d="M492 96q2.98.74 5.95 1.53c2.05.47 2.05.47 4.67.41 3.3.08 5.54 1.47 8.38 3.06v1c-6.08.19-12.25.27-18-2l-2-3z" fill="#E0E1E2"/><path d="m426.25 175.88 3.27.05 2.48.06v1h-8v2l-6 1v2a120 120 0 0 1-6 4c.51-2.16 1-3.99 2-6h2v-2c3.48-2.14 6.21-2.2 10.25-2.12" fill="#030506"/><path d="m701 643 2 1-2 8h-2v10h-2c-.5-7.58.05-12.46 4-19" fill="#1C1C1F"/><path d="m948 579 2 1v2a19 19 0 0 1-7.23 1.1l-2.43-.01-2.53-.03-2.56-.01L929 583v-2l3.65-.18 4.73-.26 2.4-.12c5.99-.33 5.99-.33 8.22-1.44" fill="#F2F2F5"/><path d="M575 482h1l-1 18h-2q-.58-2.17-1.12-4.38l-.64-2.46L571 491l2-2q1.08-3.48 2-7" fill="#F4F4F6"/><path d="m440 568 2 2a113 113 0 0 1-.38 8.62l-.17 2.43q-.21 2.98-.45 5.95c-3.17-3.81-3.35-6.03-3-11a48 48 0 0 1 2-8" fill="#EFEFF1"/><path d="M436 309h1v32h-3q-.06-2.5 0-5l1-1q.23-2.88.32-5.79l.12-3.54.12-3.73.13-3.75z" fill="#BCBCBE"/><path d="m613 157 2 3q-.93 2.52-2 5v2.44c0 3.16-.9 5.62-2 8.56-2-2-2-2-2.08-4.39.52-5.55 1.12-9.85 4.08-14.61" fill="#EDEEEE"/><path d="m516 101.25 2.56.27c2.45.48 4.27 1.26 6.44 2.48v2l3 1c-7.16-.7-14.02-2.31-21-4 3.22-1.94 5.29-2.18 9-1.75" fill="#D5D6D7"/><path d="M977 619c-1 3-1 3-3.33 4.24l-2.92 1.07-2.89 1.12c-3.35.67-4.87.12-7.86-1.43v-1l3.62-.88a94 94 0 0 0 7.69-2.24C974 619 974 619 977 619" fill="#DBDBDB"/><path d="M452 54c4.26.47 6.22 2.92 9 6l2 3-2 2q-2.26-2.18-4.5-4.38l-2.53-2.46C452 56 452 56 452 54" fill="#DDDBDD"/><path d="M421 48c2.24 3.35 2.17 3.91 1.62 7.69l-.33 2.45L422 60h-2l-1 3c-1-1-1-1-1.1-3.07l.04-2.49.02-2.51L418 53l3-1z" fill="#0A0C0B"/><path d="M436 176c3.55 2.25 4.77 4 6 8 .2 3.55.2 3.55.12 7.31l-.05 3.8L442 198h-1v-6h-3v-2h2a145 145 0 0 0-4-14" fill="#1E1A10"/><path d="m460 613 16 1-1 2c-4.09 1.05-7.93 1.29-12 .19-2-1.19-2-1.19-3-3.19" fill="#F2F2F4"/><path d="m812 505 3 1c2 4.56 2.49 9.1 3 14l-3-1c-.91-2-.91-2-1.62-4.44-1.35-4.5-1.35-4.5-2.38-6.56z" fill="#E5E7E6"/><path d="M437 291h2l-1 13-3-1c-1.16-3.48-.77-4.34.44-7.69l.87-2.45z" fill="#EBECEC"/><path d="m596 225 2 2.25c3.18 3.21 6.91 4.93 11 6.75v2c-4.86-.61-8.74-2.73-13-5z" fill="#D3D3D6"/><path d="m452 212 2 1c-5.41 5.72-9.26 8.18-17.01 9.08C435 222 435 222 433 220l2.08-.18 2.73-.26 2.71-.24C443 219 443 219 446 218v-2h4v-2h2z" fill="#CEBD72"/><path d="M524 212h2v4h2v4l-3 1-1 3-3 1z" fill="#E7C967"/><path d="m967 577-6.25 2.5-3.52 1.41C954 582 954 582 950 582l1-3c2.84-1.24 2.84-1.24 6.38-2.31l3.52-1.12C964 575 964 575 967 577" fill="#E3E2E5"/><path d="M380 663h3v6l-3 1-1 2-3-1 1-4h2z" fill="#C7CACB"/><path d="M490 562a69 69 0 0 1 8 12l-3 2-3.03-5.37C491 569 491 569 490 568q-.06-3 0-6" fill="#E9E9EB"/><path d="M577 483h1c1.32 6.45.7 12.49 0 19-2-2-2-2-2.23-5.66q0-2.2.04-4.4v-2.26c.05-5.54.05-5.54 1.19-6.68" fill="#232224"/><path d="M452 397h3l-.44 4.81-.24 2.71C454 407 454 407 453 410l-3-1a168 168 0 0 1 2-12" fill="#F1F1F4"/><path d="m858 501 3 1c.56 1.69.56 1.69 1 4l2 6-3 2c-3.43-8.43-3.43-8.43-3-13" fill="#EAEDF0"/><path d="m536 234 2 1c-3.83 4.99-7.28 8.3-13 11h-3v-2h3v-2l7-2v-2h2v-2h2z" fill="#CFBE6F"/><path d="M383 206h1v19c-2.3-3.46-2.44-5.4-2.75-9.5l-.3-3.47C381 209 381 209 383 206" fill="#EFF2F0"/><path d="M602 196a47 47 0 0 1 3 7l-1 3-.38 2.12L603 210l-3 1c.96-10.56.96-10.56 2-15" fill="#DADADB"/><path d="M854 488c3.55 3.91 4.82 6.98 6 12l-3 3q-.76-2.34-1.5-4.69l-.84-2.63A25 25 0 0 1 854 488" fill="#DCDEE1"/><path d="M862 513h2a19.4 19.4 0 0 1 2 11l-2 2q-.8-2.12-1.56-4.25l-.88-2.39c-.61-2.55-.41-3.91.44-6.36" fill="#DEE0E3"/><path d="M615 147c.91 3.07 1.34 5.8 1 9l-3 2-2 3 .44-4.25.24-2.39c.3-2.21.61-4.25 1.32-6.36z" fill="#D3D2D6"/><path d="m710 569 3 1c.56 1.62.56 1.62 1 4l1.12 3.56C716 581 716 581 715 584l-3.06-5.81-1.73-3.27C709 572 709 572 710 569" fill="#202022"/><path d="M438 558c2.3 3.44 2.54 5.94 3 10h-3c-2-3-2-3-1.69-6.12C437 559 437 559 438 558" fill="#DBDBDC"/><path d="M440 470h2c1.67 5.02 1.24 9.9 0 15-2.44-2.44-2.61-3.61-3-7q.41-3.01 1-6z" fill="#DEDEE0"/><path d="M415 61h2l-1 15h-1c-1.62-5.63-2.73-9.54 0-15" fill="#CFD0D1"/><path d="M797 656c3.09.34 4.77.82 7.25 2.75 1.93 2.48 2.41 4.16 2.75 7.25l-4 3 1-8-1.81-.81A18 18 0 0 1 797 656" fill="#E1E2E2"/><path d="m456 237 2 1v2h4l1 4c-2.38.62-2.38.62-5 1-2-2-2-2-2.12-5.12z" fill="#5B585E"/><path d="M521 209h1q.12 3.38.19 6.75l.1 3.8c-.3 3.59-.83 4.9-3.29 7.45l1-5h-2v-3h2z" fill="#110D09"/><path d="M437 202h2c-1.5 4.2-4.17 5.89-8 8l-3-1v-3l8-1z" fill="#20180A"/><path d="M606 188a15 15 0 0 1 2 4c-.81 2-.81 2-2 4a69 69 0 0 0-1 4h-2c-.12-7.75-.12-7.75 1-10h2z" fill="#ECE9ED"/><path d="M442 180h6v2h2v2h2v2h2l-1 4-2.12-2.25a39 39 0 0 0-6.19-5L442 181z" fill="#231B0A"/><path d="M484 610c-1.1 2.99-1.68 3.85-4.62 5.25L477 616l-1-1q-2.52-.34-5.06-.56l-2.79-.26L466 614v-1l2.48-.15 3.27-.23 3.23-.21c3.27-.44 5.84-2.41 9.02-2.41" fill="#D0D1D1"/><path d="m1022 541 1 2-5.25 1.56-2.95.88c-2.76.55-4.19.5-6.8-.44 4.9-3.13 8.21-4.16 14-4" fill="#EBEBF0"/><path d="m525 477 5 5-2 4c-3.33-2.22-3.75-3.35-5-7z" fill="#F5F5F9"/><path d="M384 208h1q.3 4.93.56 9.88l.17 2.83.15 2.72.14 2.51C386 228 386 228 385 230h-2c-.56-1.94-.56-1.94-1-4l1-1a246 246 0 0 0 .69-11.01z" fill="#B6B9B6"/><path d="M480 82c2.68 2.62 5.09 5.41 7.5 8.28A84 84 0 0 0 492 95l-1 2-12-12z" fill="#EDEFEF"/><path d="M603 85c-3.65 3.04-7.74 4.97-12 7 .39-1.93.39-1.93 1-4 1.81-1.12 1.81-1.12 4-2l2.06-1.19C600 84 600 84 603 85" fill="#DFDFE3"/><path d="M520 634c7.5-.38 7.5-.38 12 3h-12z" fill="#F5F5F9"/><path d="m974 569 2 1c-1 3-1 3-3.81 4.69C969 576 969 576 965 576l1-3q1.99-.55 4-1c2.25-1.56 2.25-1.56 4-3" fill="#EDEEF0"/><path d="m515 198 12 3v1h-5l-1 4z" fill="#B9B36C"/><path d="m439 179 5 2-1 14h-1l-.15-2.23-.23-2.96-.21-2.92A28 28 0 0 0 439 179" fill="#C3B166"/><path d="M508 635c2.96.4 5.38 1.6 8 3-3.16.94-5.97 1.11-9.25 1.06l-2.7-.02L502 639l1.88-.88C506 637 506 637 508 635" fill="#F4F4F7"/><path d="M638 569c1.5 1.38 1.5 1.38 3 3v2c-1.53 1.29-1.53 1.29-3.5 2.62L634 579l1.44-4.44.81-2.49C637 570 637 570 638 569" fill="#D0D2D2"/><path d="m801 669 2 1c-4.08 3.7-7.86 5.26-13 7l-2-2 2.59-1.06 3.35-1.38 3.34-1.37C800 670 800 670 801 669" fill="#E3E4E4"/><path d="M442 460h2q.08 2.4.12 4.81l.08 2.71C444 470 444 470 442 473v-3h-2z" fill="#ECECEE"/><path d="M817 400c4.09 1.36 5.55 3.52 8 7-.19 2.38-.19 2.38-1 4l-4-5-1.75-2.19C817 402 817 402 817 400" fill="#DBDDDD"/><path d="M410 269c5.35.32 8.28 3.5 12 7l-3 1c-2.26-1.4-2.26-1.4-4.69-3.38l-2.45-1.96L410 270z" fill="#DDDEDD"/><path d="m514 228 4 1c-2.83 3.25-4.69 4.52-9 5l-1-2h2v-2h4z" fill="#23180A"/><path d="m444 220 1 3-1 1a166 166 0 0 1-7.06-.44l-3.91-.31L430 223v-1z" fill="#261F13"/><path d="m568 477 9 2v5l-2.25-1.38A91 91 0 0 0 568 479z" fill="#DEDEE0"/><path d="m422.75 649.94 5.25.06c-3.12 1.8-5.68 2.35-9.25 2.63l-2.7.22-2.05.15-1-2c3.31-1 6.3-1.1 9.75-1.06" fill="#E1E1E3"/><path d="M794 528c1.84 3.1 2.55 5.39 2 9-2 1.81-2 1.81-4 3l.44-4.31.24-2.43C793 531 793 531 794 528" fill="#D7D7D9"/><path d="M385 228h2l3 10c-3-1-3-1-4.75-3.31-1.25-2.69-1.25-2.69-.94-5z" fill="#DFDFDF"/><path d="M518 202c4.95 4.79 4.95 4.79 5.1 8.6l-.04 3.02-.02 3.04L523 219h-1l-.15-1.83-.23-2.42-.21-2.39A19 19 0 0 0 519 206a69 69 0 0 1-1-4" fill="#38280D"/><path d="M443 188h1v8l3 1 1 2-5 1c-1.16-4.26-.76-7.68 0-12" fill="#E8CF68"/><path d="M417 50h1c.14 7.43.14 7.43-1 11h-2c-1.16-4.05-.88-6.24 1-10z" fill="#E9EBEB"/><path d="M832 561c2.45.98 3.78 1.69 5.31 3.88.8 2.47.55 3.7-.31 6.12-2.65-2.65-3.62-5.54-5-9z" fill="#E8EAED"/><path d="M829 552h2q1.05 1.93 2.06 3.88l1.16 2.17.78 1.95-1 2c-3.67-3.08-4.57-5.25-5-10" fill="#D6D6DA"/><path d="M441 198h1v8l-7 2 2.94-5 1.65-2.81z" fill="#D4C470"/><path d="M884 561c5.75 1.75 5.75 1.75 8 4-.38 2.12-.38 2.12-1 4l-3.5-3.44-1.97-1.93C884 562 884 562 884 561" fill="#DFE1E0"/><path d="M868 534c1.88.25 1.88.25 4 1a17 17 0 0 1 2 4l-3 3c-3-5.75-3-5.75-3-8" fill="#E2E3E7"/><path d="M852 479c2 1 2 1 2.85 3.29l.77 2.77.79 2.79.59 2.15h-2v-2h-2z" fill="#ECEDF0"/><path d="M776 326c3.69.5 5.6 1.1 8 4l-1 3-3.5-2.94-1.97-1.65L776 327z" fill="#D8D8DB"/><path d="M598 232c4.11 1.19 5.89 1.89 9 5l-10-1z" fill="#0B0B0A"/><path d="m411 197 6 12-3 1c-2.22-4.62-3.38-7.77-3-13" fill="#C3C292"/><path d="M608.63 81.94A155 155 0 0 1 613 82l1 2-12 1v-2c2.4-1.2 3.94-1.1 6.62-1.06" fill="#EDEDF0"/><path d="m493 530 3 1-3 8h-2c.88-6.75.88-6.75 2-9" fill="#EAECEB"/><path d="m702 270 4 3-1 3-5-1c.88-3.88.88-3.88 2-5" fill="#F0F4F5"/><path d="M653 254c5.5-.37 5.5-.37 7.88 1.38C662 257 662 257 662 259l-9-3z" fill="#DBDDDD"/><path d="M410 202c2 1 2 1 2.85 3.07l.77 2.49.79 2.51.59 1.93h-3v-4h-2z" fill="#1E1A0F"/><path d="M409 194h1c1.29 8.57 1.29 8.57 0 12h-2l-.06-4.31-.04-2.43c.1-2.26.1-2.26 1.1-5.26" fill="#090D04"/><path d="M515 196c5.62-.25 5.62-.25 9 2v2l-9-2z" fill="#181708"/><path d="M409 104h2l-1 10c-2.39-2.39-2.68-3.68-3-7z" fill="#DFE0E2"/><path d="M782 605h2c.33 4.24.44 6.36-2 9.94l-2 2.06z" fill="#DBDBDC"/><path d="M873 540c2.72 2.35 3.81 4.62 5 8-1.88-.12-1.88-.12-4-1-1.25-3.06-1.25-3.06-2-6z" fill="#EEF0F0"/><path d="m800 511 3 4-5 6c-1-2-1-2-.44-3.95l.88-2.17.87-2.2z" fill="#D2D4D3"/><path d="m547 470 10 3-1 2-9-3z" fill="#E4E2E5"/><path d="M451 410h2l-1 10c-1.95-2.93-2.65-4.56-3-8z" fill="#DDDDE1"/><path d="M663 254c2.06.75 2.06.75 4 2l1 3h-6l-1-4z" fill="#F5F6F7"/><path d="m520 225 2 3h-2v4h-2v2h-2l-1-3h2l.94-1.88z" fill="#D3C266"/><path d="M414 80c2.11 4.22 2.18 6.4 2 11l-3-1z" fill="#252726"/><path d="M719 624h2c-.59 6.15-.59 6.15-1 8l-2 1-2-2h3v-3l-2-1z" fill="#EAEAED"/><path d="M442 595c4.39 1.46 4.88 3.98 7 8h-3c-4-5.26-4-5.26-4-8" fill="#E2E2E4"/><path d="m821 524 4 1-1 8c-2.76-2.76-2.58-5.21-3-9" fill="#080908"/><path d="M577 504c1.91 3.21 2.22 5.54 2.12 9.25l-.05 2.7L579 518h-1v-9l-3-1v-2h2z" fill="#C4C3C6"/><path d="m509 489 4 1a120 120 0 0 1-4 6h-2c.88-4.75.88-4.75 2-7" fill="#D9DBDA"/><path d="M423 218h5v2h4v2c-6.75-.88-6.75-.88-9-2z" fill="#D1C07E"/><path d="M454 212h2c-.88 4.88-.88 4.88-2 6q-2.5.06-5 0 2.43-3.06 5-6" fill="#191307"/><path d="M620 109h1l1 11-3 1z" fill="#CECDCE"/><path d="M545 108q3.53.9 7 2l1 2c-6.75.12-6.75.12-9-1z" fill="#EEEEF0"/><path d="m788 577 2 2c-.25 3.06-.25 3.06-1 6l-2 1c-.1-6.15-.1-6.15 0-8z" fill="#F2F3F6"/><path d="M524 460c2.92 1.07 4.78 1.78 7 4l-2.88-.06C525 464 525 464 523 465z" fill="#D2D5D2"/><path d="M539 224a14 14 0 0 1 2 4c-.69 2.69-.69 2.69-2 5l-3 1v-2h2l-.06-2.88C538 226 538 226 539 224" fill="#E9D56E"/><path d="M617 128c1.46 2.92 2.34 4.92 3 8l-4 1z" fill="#D8D9DD"/><path d="M621 103c2.52 5.05 2.52 5.05 3 8l-1 3h-2z" fill="#E3E3E7"/><path d="M914 624c-2 2-2 2-3.95 2.2L904 626v-2c3.28-1.64 6.43-.52 10 0" fill="#E4E6E7"/><path d="M950 580v2l-8 1-1-2c6.75-2.12 6.75-2.12 9-1" fill="#EBEBEE"/><path d="m827 542 5 1-2 6-2-1c-.62-3.06-.62-3.06-1-6" fill="#0C0D0D"/><path d="m540 229 3 4-3 1-1 3h-2l.94-2.31q1.1-2.82 2.06-5.69" fill="#2E2511"/><path d="m416 207 5 1v2h8v1c-8.19.63-8.19.63-11.56-2z" fill="#433F18"/><path d="M605 84h8v3l-8-1z" fill="#1E1E20"/><path d="m696 644 4 2-2 5h-2q-.57-2.99-1-6z" fill="#CBCBCF"/><path d="m572 617 3 1 1 3-4 3z" fill="#040A0C"/><path d="m834 429 4 1c.62 2.38.62 2.38 1 5l-2 2z" fill="#E5E4E7"/><path d="m496 240 8 4c-3.7.93-4.63 1.08-8 0z" fill="#211D0A"/><path d="m435 208-1 6h-2c-1.62-2-1.62-2-3-4 3.75-2 3.75-2 6-2" fill="#DAC76B"/><path d="m384 199 2 2c-.38 3.62-.38 3.62-1 7-1.62-1.69-1.62-1.69-3-4 .81-2.75.81-2.75 2-5" fill="#E1E1E3"/><path d="m563 101 1.88 1.06 2.12.94 2-1v3c-3.62 1.21-4.64.54-8-1z" fill="#EEEEF2"/><path d="M479 86c3.37 1.39 4.99 2.98 7 6-3 0-3 0-5.19-1.88C479 88 479 88 479 86" fill="#252728"/><path d="M886 618c2.88-.12 2.88-.12 6 0l2 2-2 2-6-3z" fill="#F1F2F5"/><path d="M811 497c1.95 2.92 2.45 4.63 3 8h-3c-.8-3.29-1.1-4.71 0-8" fill="#CFD3CF"/><path d="M852 474c2 3 2 3 2 5h-2l-1 3c-.62-2.88-.62-2.88-1-6z" fill="#DDDDDF"/><path d="M448 422h1v10h-2c-1.47-3.81-.43-6.29 1-10" fill="#F0F0F2"/><path d="m618 239 6 1 1 3c-4.75-.88-4.75-.88-7-2z" fill="#D9DADA"/><path d="M596 225c4.88 4.75 4.88 4.75 6 7l-6-1z" fill="#BCBDBD"/><path d="M522 202h5l-1 4h-4z" fill="#E5CC59"/></svg>