<svg style="background:transparent" version="1.1" xmlns="http://www.w3.org/2000/svg" viewBox="0 0 1248 704"><path d="m999 109 3.54 1.08c11.72 3.77 22.78 8.57 32.71 15.98l2.08 1.54c1.67 1.4 1.67 1.4 2.67 3.4l2.31 1.38A26 26 0 0 1 1049 138v2l1.69.62c3.31 1.97 5.03 4.27 7.31 7.38v3l1.74.64c3.09 1.86 4.43 4.16 6.38 7.17l2.08 3.15a48 48 0 0 1 3.8 8.04l1.44 2.75a75 75 0 0 1 3.86 10.09 84 84 0 0 0 1.89 5.16c2.09 7.73 1.28 17.06-2.31 24.23-4.42 6.65-10.61 9.29-17.94 11.83-7.14-.15-12.95-4.29-18.03-9.01-3.44-3.7-6.18-7.81-8.91-12.05l-1.44-2.17a57 57 0 0 1-5-9.27c-1.67-3.82-3.73-7.01-6.1-10.44a87 87 0 0 1-3.27-5.18c-7.04-9.45-16.84-15.73-28.48-17.66-7.63-.78-14.46-.93-21.71 1.72l-1.93.41c-3.24.93-6.15 2.55-9.13 4.09-6.58 3.38-6.58 3.38-9.94 4.5l-.81 1.75c-1.19 2.25-1.19 2.25-4 4.5-9.51 7.67-14.51 22.78-19.19 33.75a699 699 0 0 1-4.5 9.62l-1.18 2.53A121 121 0 0 1 899 247l-1.81 2.44a58 58 0 0 1-7.52 7.07c-1.67 1.49-1.67 1.49-3.86 4.3-2.04 2.47-2.84 2.5-5.81 3.19l-.88 1.83c-2.69 5.21-8.78 8.25-14.12 10.17a211 211 0 0 0-7 4 47 47 0 0 0 5.94 13.88c2.73 4.6 5 9.02 6.48 14.18.58 1.94.58 1.94 2.14 5.44a52 52 0 0 1 2.84 9.66q.72 3.4 1.58 6.77l.54 2.18 1.07 4.25c2.99 12.23 2.57 24.86 2.54 37.37q-.01 4.34.01 8.69l-.01 5.62.01 2.58c-.02 5.07-.33 10.02-.93 15.05-.21 2.33-.21 2.33-.21 4.97 0 2.36 0 2.36-.5 4.74-.5 2.62-.5 2.62-.5 6.37V425l-1 1a63 63 0 0 0 0 4.12c.04 4.08-.4 7.85-1 11.88a196 196 0 0 0-.94 22.6c-.06 2.4-.06 2.4-.56 4.75a39 39 0 0 0-.63 7.45l-.01 2.71.02 2.8-.02 2.77c.01 5.41.39 10.57 1.14 15.92q.39 4.58.72 9.17a72 72 0 0 0 2.72 13.02c1.25 4.51 2.22 9.01 3.09 13.6.47 2.21.47 2.21 1.53 5.33 1.19 3.64 1.51 7.08 1.94 10.88l.5 1.96a46 46 0 0 1 1 6.48c.34 3.24.84 6.37 1.5 9.56.68 4.75 1 9.2 1 14l.5 2.81c.53 3.38.53 6.53.44 9.94.06 2.25.06 2.25.56 4.58.49 2.62.62 4.98.61 7.64v2.91l-.01 3.11-.01 3.21-.03 10.11-.01 6.87L892 653l2.3.34c12.01 1.88 25.39 4.33 34.58 12.85 1.5 2.43 1.45 4 1.12 6.81-4.78 7.92-13.13 10.37-21.73 12.62-14.75 3.59-30.12 5.51-45.27 6.38l-1.99.15c-13.69 1.01-27.35.86-41.06.56l-2.97-.06c-17.36-.38-34.69-1.15-52.03-2.06l-3.82-.2-15.7-.82c-44.6-2.33-89.13-4.17-133.81-4.07h-2.96c-26.91.03-53.72.91-80.58 2.39l-8.59.44q-7.44.38-14.87.86l-2.69.17c-17.91 1.17-35.76 2.9-53.6 4.73l-6.2.64-10.03 1.04-4.15.44q-13.37 1.39-26.68 3.33c-32.67 4.67-64.98 5.46-97.91 5.34q-8.69-.01-17.38.07-8.52.07-17.05.05-5.04-.01-10.06.03-5.55.04-11.08-.03l-3.28.06c-5.75-.11-8.91-.8-13.12-4.87-3.46-3.88-5.52-7.39-6.14-12.57l-.3-2.21c.06-3.07.98-5.54 2.05-8.41l-3.07 1.46-4.05 1.92-2.02.96c-10.03 4.71-19.42 6.55-30.45 3.75-7.9-2.86-15.6-6.31-19.85-13.9-3.51-8.28-2.71-14.93.44-23.19l1.12-3.12c4.56-6.98 11.69-12.9 19.88-14.88q4.03-.3 8.06-.44c6.68-.23 10.82-1.22 15.94-5.56l2.02-1.46c8.96-6.6 17.66-14.37 24.66-23.04a40 40 0 0 1 4.76-4.44 71 71 0 0 0 8.98-9.23c1.58-1.83 1.58-1.83 3.2-3.42 1.38-1.41 1.38-1.41 2.76-3.72 2.91-4.82 6.66-8.73 10.62-12.69 4.24-4.63 8.13-9.39 11.74-14.53L283 550h2l.56-2.5c1.94-4.71 5.02-7.79 8.44-11.5q2.03-2.49 4-5c-1.38-2.77-3.36-3.1-6.11-4.23-11.94-4.89-24.42-13.39-30.89-24.77l-1.5-2.44L258 497l-1.04-1.66c-2.34-3.84-3.29-6.84-3.96-11.34l-1.5-2.88c-1.56-3.25-1.93-5.64-2.25-9.18-.36-2.78-1.35-5.29-2.25-7.94l-1-7-1-2.94a34 34 0 0 1-1.56-7.31C243 443 243 443 242 441q-.32-3.21-.6-6.42c-.61-7.49-1.46-14.73-3.34-22.02-2.31-8.98-3.54-18.04-4.74-27.23q-.42-2.92-.95-5.83c-1.44-8.1-1.67-16.16-1.81-24.38l-.1-3.53c-.04-7.25.8-12 5.54-17.59l1.3-1.59c2.65-2.7 5.28-3.85 8.95-4.22 11.48.62 22.87 8.28 32.75 13.62 12.53 6.75 12.53 6.75 18 7.19 3.31-1.12 3.31-1.12 4.96-2.04 3.77-1.78 7.91-2.38 11.97-3.27a122 122 0 0 0 6.76-1.75q8.7-2.45 17.69-3.5c3.62-.44 3.62-.44 5.44-.94 2.18-.5 2.18-.5 5.25-.65 9.14-.59 13.65-3.35 19.63-9.93 2.3-2.92 2.3-2.92 4.35-6.03a39 39 0 0 1 6.01-6.95c2.21-2.08 3.84-3.77 5.34-6.42 1.97-3.1 4.16-4.68 7.16-6.77l2.94-2.08c4.11-2.75 6.5-3.09 11.5-2.67 6.47 3.24 11.65 8.51 14.26 15.27q1.02 3.38 1.92 6.78c.72 2.58 1.6 4.59 2.82 6.95q.76 2.3 1.44 4.62c1.53 5.29 1.53 5.29 2.28 7.66a212 212 0 0 1 4.83 18.92c.78 3.44 1.47 5.83 3.45 8.8q2.28-.6 4.56-1.25l2.57-.7a47 47 0 0 0 8.02-3.98c3.12-1.81 6.36-3.36 9.6-4.95a312 312 0 0 0 26.56-14.56c4.15-2.41 8.45-4.48 12.77-6.56a67 67 0 0 0 8.67-4.88c3.98-2.6 8.16-4.6 12.45-6.66A45 45 0 0 0 529 317l4-1 5-3q2.9-1.46 5.81-2.88c4.31-2.12 8.39-4.37 12.37-7.04 2.19-1.3 4.46-2.14 6.82-3.08q3.15-1.62 6.25-3.31l3.46-1.89q4.07-2.22 8.1-4.49c4-2.23 8.08-4.29 12.19-6.31l6-3 21.01-10.5q2.95-1.49 5.88-3c5.31-2.73 10.46-5.1 16.17-6.86 2.8-.92 5.32-2.3 7.94-3.64 3.31-1.39 6.66-2.69 10-4l5.12-2.06a220 220 0 0 1 20.39-7.19q2.7-.81 5.35-1.75c4.53-1.44 9.14-2.29 13.8-3.22A54 54 0 0 0 713 236q2.5-.06 5 0 2-.46 4-1c18.83-3.42 40.17-5.02 58.92-.4 2.4.46 4.65.41 7.08.4q2.44.63 4.86 1.36c6.33 1.89 12.8 3.37 19.26 4.76C816 242 816 242 818 243c11.04-4.25 21.26-10.18 29.94-18.25l1.59-1.47c4.12-3.87 7.95-7.85 11.47-12.28l1.95-2.41c4.87-6.3 8.25-12.78 11.46-20.01a161 161 0 0 1 4.28-8.89c2.06-4.06 3.75-8.19 5.32-12.46A29 29 0 0 1 888 161l2.97-5.28c1.46-2.44 3.22-4.54 5.03-6.72l1.16-1.7c7.04-10.14 16.77-17.59 26.94-24.36 2.3-1.54 4.47-3.12 6.65-4.82 3.96-2.59 7.75-3.78 12.25-5.12l6-2.06c4.95-1.66 9.88-2.95 15-3.94l2.44-.54c10.49-1.87 22.46-.56 32.56 2.54" fill="#111311"/><path d="m999 109 3.54 1.08c11.72 3.77 22.78 8.57 32.71 15.98l2.08 1.54c1.67 1.4 1.67 1.4 2.67 3.4l2.31 1.38A26 26 0 0 1 1049 138v2l1.69.62c3.31 1.97 5.03 4.27 7.31 7.38v3l1.74.64c3.09 1.86 4.43 4.16 6.38 7.17l2.08 3.15a48 48 0 0 1 3.8 8.04l1.44 2.75a75 75 0 0 1 3.86 10.09 84 84 0 0 0 1.89 5.16c2.09 7.73 1.28 17.06-2.31 24.23-4.42 6.65-10.61 9.29-17.94 11.83-7.14-.15-12.95-4.29-18.03-9.01-3.44-3.7-6.18-7.81-8.91-12.05l-1.44-2.17a57 57 0 0 1-5-9.27c-1.67-3.82-3.73-7.01-6.1-10.44a87 87 0 0 1-3.27-5.18c-7.04-9.45-16.84-15.73-28.48-17.66-7.63-.78-14.46-.93-21.71 1.72l-1.93.41c-3.24.93-6.15 2.55-9.13 4.09-6.58 3.38-6.58 3.38-9.94 4.5l-.81 1.75c-1.19 2.25-1.19 2.25-4 4.5-9.51 7.67-14.51 22.78-19.19 33.75a699 699 0 0 1-4.5 9.62l-1.18 2.53A121 121 0 0 1 899 247l-1.81 2.44a58 58 0 0 1-7.52 7.07c-1.67 1.49-1.67 1.49-3.86 4.3-2.04 2.47-2.84 2.5-5.81 3.19l-.88 1.83c-2.69 5.21-8.78 8.25-14.12 10.17a211 211 0 0 0-7 4 47 47 0 0 0 5.94 13.88c2.73 4.6 5 9.02 6.48 14.18.58 1.94.58 1.94 2.14 5.44a52 52 0 0 1 2.84 9.66q.72 3.4 1.58 6.77l.54 2.18 1.07 4.25c2.99 12.23 2.57 24.86 2.54 37.37q-.01 4.34.01 8.69l-.01 5.62.01 2.58c-.02 5.07-.33 10.02-.93 15.05-.21 2.33-.21 2.33-.21 4.97 0 2.36 0 2.36-.5 4.74-.5 2.62-.5 2.62-.5 6.37V425l-1 1a63 63 0 0 0 0 4.12c.04 4.08-.4 7.85-1 11.88a196 196 0 0 0-.94 22.6c-.06 2.4-.06 2.4-.56 4.75a39 39 0 0 0-.63 7.45l-.01 2.71.02 2.8-.02 2.77c.01 5.41.39 10.57 1.14 15.92q.39 4.58.72 9.17a72 72 0 0 0 2.72 13.02c1.25 4.51 2.22 9.01 3.09 13.6.47 2.21.47 2.21 1.53 5.33 1.19 3.64 1.51 7.08 1.94 10.88l.5 1.96a46 46 0 0 1 1 6.48c.34 3.24.84 6.37 1.5 9.56.68 4.75 1 9.2 1 14l.5 2.81c.53 3.38.53 6.53.44 9.94.06 2.25.06 2.25.56 4.58.49 2.62.62 4.98.61 7.64v2.91l-.01 3.11-.01 3.21-.03 10.11-.01 6.87L892 653l2.3.34c12.01 1.88 25.39 4.33 34.58 12.85 1.5 2.43 1.45 4 1.12 6.81-4.78 7.92-13.13 10.37-21.73 12.62-14.75 3.59-30.12 5.51-45.27 6.38l-1.99.15c-13.69 1.01-27.35.86-41.06.56l-2.97-.06c-17.36-.38-34.69-1.15-52.03-2.06l-3.82-.2-15.7-.82c-44.6-2.33-89.13-4.17-133.81-4.07h-2.96c-26.91.03-53.72.91-80.58 2.39l-8.59.44q-7.44.38-14.87.86l-2.69.17c-17.88 1.17-35.7 2.89-53.52 4.72l-4.45.46c-14.89 1.52-29.76 3.05-44.57 5.25-37.08 5.42-74.01 4.81-111.39 4.21a83 83 0 0 1 10.94-6.88 556 556 0 0 0 25.05-15.01q6.92-4.3 13.93-8.45c6.87-4.11 13.67-8.32 20.48-12.53q9.51-5.9 19.12-11.63a859 859 0 0 0 22.65-13.93l2.87-1.82q14.61-9.36 29.09-18.92l8.78-5.77 5.65-3.72 2.62-1.71a90 90 0 0 0 10.09-7.44c2.77-2.22 4.35-2.97 7.78-3.6l2.84-.55 2.99-.54 6.26-1.27 3.07-.63a145 145 0 0 0 16.33-4.76q4.48-1.52 8.98-2.99A534 534 0 0 0 556 563l3.04-1.35a979 979 0 0 0 77.29-38.53c8.23-4.56 16.56-8.92 24.88-13.32l4.13-2.18 3.78-1.99c2.61-1.39 5.16-2.8 7.67-4.35C679 500 679 500 681 500l.61 1.92c10.45 32.76 24.04 59.08 48.76 83.44l1.61 1.59q3.28 3.22 6.57 6.42c9.87 9.62 17.6 18.15 18.66 32.52.04 2.4.05 4.73-.21 7.11-1.71 1.71-4.17 1.41-6.5 1.69-7.15 1.16-12.58 3.6-17.13 9.38-4.02 6.22-5.11 11.56-4.37 18.93 1.04 4.17 2.82 6.29 6.5 8.5 9.3 4.44 17.99 4.71 28.13 4.74q3.25.02 6.5.07c10.11.08 18.91-.76 27.02-7.34 13.14-14 13.05-36.92 13.15-54.87q.01-2.28.06-4.54c.21-11.22-1.24-20.77-4.36-31.56a390 390 0 0 1-2-9c16.64 9.8 29.45 23.64 34.97 42.28 2.27 9.21 2.61 18.29 2.03 27.72-1.57 1.57-3.4 1.46-5.56 1.81-7.51 1.46-13.56 4.12-18.44 10.19-4.17 6.46-6.34 12.29-5 20 1.39 4.74 3.14 7.36 7.12 10.31 8.49 4.08 16.6 5.15 25.94 5l3.11.01c11.41-.08 22.57-2.24 31.6-9.8 10.45-11.77 8.56-30.39 8.48-45.02l-.01-2.87c-.05-16.28-.7-32.41-2.24-48.63l-.29-3.33c-1.46-16.33-4.58-31.82-8.71-47.67-3.91-15.44-5.38-30.32-5.31-46.19v-2.56a628 628 0 0 1 3.84-68.15 321 321 0 0 0 1.84-35.91q.01-4.59.08-9.17c.1-17.32-1.85-34.49-7.7-50.9l-.89-2.57c-3.12-8.78-7-17.5-12.02-25.37-1.65-2.62-2.8-4.71-3.09-7.82 2.02-3.82 5.45-5.2 9.19-7.17A110 110 0 0 0 882 260l1.99-1.56c16.42-13.22 26.25-33.62 34.72-52.42l1.43-3.17q1.38-3.07 2.74-6.16c8.35-18.64 20.58-32.18 39.56-40.19 12.81-4.58 25.4-3.09 37.5 2.56 16.14 8.19 24.85 22.01 32.46 37.77 4.52 9.27 9.86 17.88 19.41 22.55 5.62 1.1 10.28.54 15.44-1.94 5.34-4.74 8.39-10.14 8.99-17.25.52-22.2-13.43-42.34-28.15-58q-2.03-2.11-4.09-4.19l-2.32-2.39c-20.22-19.57-45.34-25.32-72.61-24.91-25 .79-47.24 14.1-64.11 31.96-11.42 12.59-18.72 28.09-25.46 43.53-11.18 25.44-30.79 48.33-56.98 59.1-6.48 1.83-12.26-.18-18.52-2.01-28.29-8.24-60.1-9.31-89-3.28l-2.88.59c-34.89 7.27-67.3 21.7-99.12 37.41l-2.29 1.13q-4.83 2.38-9.65 4.83a973 973 0 0 1-9.15 4.55 765 765 0 0 0-30.59 15.94A874 874 0 0 1 541.5 315q-12.52 6.5-24.89 13.29-12.92 7.07-25.92 13.98-8.87 4.73-17.69 9.55c-32.54 17.77-32.54 17.77-40 17.18l-.78-3.57a424 424 0 0 0-8.72-32.49l-1.11-3.64c-7.7-24.55-7.7-24.55-14.39-29.3a15 15 0 0 0-9-1c-3.13 1.53-5.48 3.61-8 6l-2 1.83c-4.4 4.21-8.17 8.79-11.93 13.58-3.5 4.37-7.24 8.51-11.07 12.59l-1.24 1.58c-3.66 4.31-6.74 5.2-12.3 5.76l-2.9.22-6.18.67-3.2.36a160 160 0 0 0-37.93 9.59c-7.03 1.77-12.41-.34-18.56-3.68l-4.17-2.16-2.2-1.15c-4.13-2.11-8.32-4.09-12.51-6.07l-2.43-1.15c-13.09-6.19-13.09-6.19-19.38-4.97a17 17 0 0 0-8 9c-.24 2.73-.24 2.73-.23 5.84a405 405 0 0 0 .04 7.1v3.52c.06 10.5.53 20.94 2.44 31.29l.38 2.11q1.2 6.41 2.54 12.8a487 487 0 0 1 5.83 33.53c2.18 15.95 5.26 31.37 10.5 46.62l.83 2.41c6.56 18.17 18.72 29.25 35.88 37.56A53 53 0 0 0 303 527c-.89 4.53-3.49 7.4-6.38 10.88l-3.3 4.05-1.69 2.07q-2.91 3.6-5.75 7.29a380 380 0 0 1-15.18 18.31 297 297 0 0 0-9.26 11.09 153 153 0 0 1-12.14 13.04 116 116 0 0 0-7.8 8.33c-4.25 4.99-9.18 9.28-14.06 13.64q-1.93 1.75-3.83 3.53-3.22 2.98-6.61 5.77l-2.4 2.01c-6.51 4.82-11.57 5.52-19.39 5.65-7.23.19-12.5 2.09-18 6.91-5.33 5.66-8.39 12.21-8.71 19.99.3 7 2.59 11.9 7.62 16.75 8.76 6.75 20.29 6.82 30.88 5.69 7.2-1.58 13.45-5.16 19.79-8.83C229 672 229 672 231 672l-1 3.31c-1.66 6.85-2.53 13.82 1.12 20.13 2.49 3.47 5.17 5.49 8.88 7.56-1.74.73-1.74.73-4 1-2.07-1.51-2.07-1.51-4.12-3.69l-2.08-2.13a18.3 18.3 0 0 1-4.55-10.56l-.3-2.21c.06-3.07.98-5.54 2.05-8.41l-3.07 1.46-4.05 1.92-2.02.96c-10.03 4.71-19.42 6.55-30.45 3.75-7.9-2.86-15.6-6.31-19.85-13.9-3.51-8.28-2.71-14.93.44-23.19l1.12-3.12c4.56-6.98 11.69-12.9 19.88-14.88q4.03-.3 8.06-.44c6.68-.23 10.82-1.22 15.94-5.56l2.02-1.46c8.96-6.6 17.66-14.37 24.66-23.04a40 40 0 0 1 4.76-4.44 71 71 0 0 0 8.98-9.23c1.58-1.83 1.58-1.83 3.2-3.42 1.38-1.41 1.38-1.41 2.76-3.72 2.91-4.82 6.66-8.73 10.62-12.69 4.24-4.63 8.13-9.39 11.74-14.53L283 550h2l.56-2.5c1.94-4.71 5.02-7.79 8.44-11.5q2.03-2.49 4-5c-1.38-2.77-3.36-3.1-6.11-4.23-11.94-4.89-24.42-13.39-30.89-24.77l-1.5-2.44L258 497l-1.04-1.66c-2.34-3.84-3.29-6.84-3.96-11.34l-1.5-2.88c-1.56-3.25-1.93-5.64-2.25-9.18-.36-2.78-1.35-5.29-2.25-7.94l-1-7-1-2.94a34 34 0 0 1-1.56-7.31C243 443 243 443 242 441q-.32-3.21-.6-6.42c-.61-7.49-1.46-14.73-3.34-22.02-2.31-8.98-3.54-18.04-4.74-27.23q-.42-2.92-.95-5.83c-1.44-8.1-1.67-16.16-1.81-24.38l-.1-3.53c-.04-7.25.8-12 5.54-17.59l1.3-1.59c2.65-2.7 5.28-3.85 8.95-4.22 11.48.62 22.87 8.28 32.75 13.62 12.53 6.75 12.53 6.75 18 7.19 3.31-1.12 3.31-1.12 4.96-2.04 3.77-1.78 7.91-2.38 11.97-3.27a122 122 0 0 0 6.76-1.75q8.7-2.45 17.69-3.5c3.62-.44 3.62-.44 5.44-.94 2.18-.5 2.18-.5 5.25-.65 9.14-.59 13.65-3.35 19.63-9.93 2.3-2.92 2.3-2.92 4.35-6.03a39 39 0 0 1 6.01-6.95c2.21-2.08 3.84-3.77 5.34-6.42 1.97-3.1 4.16-4.68 7.16-6.77l2.94-2.08c4.11-2.75 6.5-3.09 11.5-2.67 6.47 3.24 11.65 8.51 14.26 15.27q1.02 3.38 1.92 6.78c.72 2.58 1.6 4.59 2.82 6.95q.76 2.3 1.44 4.62c1.53 5.29 1.53 5.29 2.28 7.66a212 212 0 0 1 4.83 18.92c.78 3.44 1.47 5.83 3.45 8.8q2.28-.6 4.56-1.25l2.57-.7a47 47 0 0 0 8.02-3.98c3.12-1.81 6.36-3.36 9.6-4.95a312 312 0 0 0 26.56-14.56c4.15-2.41 8.45-4.48 12.77-6.56a67 67 0 0 0 8.67-4.88c3.98-2.6 8.16-4.6 12.45-6.66A45 45 0 0 0 529 317l4-1 5-3q2.9-1.46 5.81-2.88c4.31-2.12 8.39-4.37 12.37-7.04 2.19-1.3 4.46-2.14 6.82-3.08q3.15-1.62 6.25-3.31l3.46-1.89q4.07-2.22 8.1-4.49c4-2.23 8.08-4.29 12.19-6.31l6-3 21.01-10.5q2.95-1.49 5.88-3c5.31-2.73 10.46-5.1 16.17-6.86 2.8-.92 5.32-2.3 7.94-3.64 3.31-1.39 6.66-2.69 10-4l5.12-2.06a220 220 0 0 1 20.39-7.19q2.7-.81 5.35-1.75c4.53-1.44 9.14-2.29 13.8-3.22A54 54 0 0 0 713 236q2.5-.06 5 0 2-.46 4-1c18.83-3.42 40.17-5.02 58.92-.4 2.4.46 4.65.41 7.08.4q2.44.63 4.86 1.36c6.33 1.89 12.8 3.37 19.26 4.76C816 242 816 242 818 243c11.04-4.25 21.26-10.18 29.94-18.25l1.59-1.47c4.12-3.87 7.95-7.85 11.47-12.28l1.95-2.41c4.87-6.3 8.25-12.78 11.46-20.01a161 161 0 0 1 4.28-8.89c2.06-4.06 3.75-8.19 5.32-12.46A29 29 0 0 1 888 161l2.97-5.28c1.46-2.44 3.22-4.54 5.03-6.72l1.16-1.7c7.04-10.14 16.77-17.59 26.94-24.36 2.3-1.54 4.47-3.12 6.65-4.82 3.96-2.59 7.75-3.78 12.25-5.12l6-2.06c4.95-1.66 9.88-2.95 15-3.94l2.44-.54c10.49-1.87 22.46-.56 32.56 2.54" fill="#B9BBB9"/><path d="m681 500 .61 1.92c10.45 32.76 24.04 59.08 48.76 83.44l1.61 1.59q3.28 3.22 6.57 6.42c9.87 9.62 17.6 18.15 18.66 32.52.04 2.4.05 4.73-.21 7.11-2.16 2.16-6.7 1.77-9.63 2.11-3.3.87-4.13 1.46-6.63 3.51-6.04 3.96-13.49 2.5-20.37 1.96a432 432 0 0 0-8.08-.55q-5.55-.34-11.1-.71c-49.69-3.18-100.11-2.24-149.81.06l-2.1.09q-14.65.68-29.28 1.53l-3.8.22a1032 1032 0 0 0-51.78 4.38q-5.5.61-11.01 1.19l-7.14.77-3.26.35c-5.94.66-11.79 1.52-17.67 2.66-3.26.6-6.53.93-9.84 1.24a431 431 0 0 0-19.3 2.46l-2.37.35q-5.98.88-11.95 1.79l-4.47.66-2.08.33c-3.36.49-6.1.77-9.33-.4 6.38-4.34 12.89-8.4 19.5-12.38a1334 1334 0 0 0 55.75-35.87l2.27-1.53 6.43-4.36 1.94-1.31a94 94 0 0 0 7.74-5.77c2.54-1.91 4.23-2.51 7.33-3.09l2.84-.56 3.01-.57a206 206 0 0 0 25.73-6.72q4.48-1.52 8.98-2.99A534 534 0 0 0 556 563l3.04-1.35a979 979 0 0 0 77.29-38.53c8.23-4.56 16.56-8.92 24.88-13.32l4.13-2.18 3.78-1.99c2.61-1.39 5.16-2.8 7.67-4.35C679 500 679 500 681 500" fill="#ECEEEC"/><path d="m999 109 3.54 1.08c11.72 3.77 22.78 8.57 32.71 15.98l2.08 1.54c1.67 1.4 1.67 1.4 2.67 3.4l2.31 1.38A26 26 0 0 1 1049 138v2l1.69.62c3.31 1.97 5.03 4.27 7.31 7.38v3l1.74.64c3.09 1.86 4.43 4.16 6.38 7.17l2.08 3.15a48 48 0 0 1 3.8 8.04l1.44 2.75a75 75 0 0 1 3.86 10.09 84 84 0 0 0 1.89 5.16c2.09 7.73 1.28 17.06-2.31 24.23-4.42 6.65-10.61 9.29-17.94 11.83-7.14-.15-12.95-4.29-18.03-9.01-3.44-3.7-6.18-7.81-8.91-12.05l-1.44-2.17a57 57 0 0 1-5-9.27c-1.67-3.82-3.73-7.01-6.1-10.44a87 87 0 0 1-3.27-5.18c-7.04-9.45-16.84-15.73-28.48-17.66-7.63-.78-14.46-.93-21.71 1.72l-1.93.41c-3.24.93-6.15 2.55-9.13 4.09-6.58 3.38-6.58 3.38-9.94 4.5l-.81 1.75c-1.19 2.25-1.19 2.25-4 4.5-9.51 7.67-14.51 22.78-19.19 33.75a699 699 0 0 1-4.5 9.62l-1.18 2.53A121 121 0 0 1 899 247l-1.81 2.44a58 58 0 0 1-7.52 7.07c-1.67 1.49-1.67 1.49-3.86 4.3-2.04 2.47-2.84 2.5-5.81 3.19l-.88 1.83c-2.69 5.21-8.78 8.25-14.12 10.17a211 211 0 0 0-7 4 47 47 0 0 0 5.94 13.88c2.73 4.6 5 9.02 6.48 14.18.58 1.94.58 1.94 2.14 5.44a52 52 0 0 1 2.84 9.66q.72 3.4 1.58 6.77l.54 2.18 1.07 4.25c2.99 12.23 2.57 24.86 2.54 37.37q-.01 4.34.01 8.69l-.01 5.62.01 2.58c-.02 5.07-.33 10.02-.93 15.05-.21 2.33-.21 2.33-.21 4.97 0 2.36 0 2.36-.5 4.74-.5 2.62-.5 2.62-.5 6.37V425l-1 1a63 63 0 0 0 0 4.12c.04 4.08-.4 7.85-1 11.88a196 196 0 0 0-.94 22.6c-.06 2.4-.06 2.4-.56 4.75a39 39 0 0 0-.63 7.45l-.01 2.71.02 2.8-.02 2.77c.01 5.41.39 10.57 1.14 15.92q.39 4.58.72 9.17a72 72 0 0 0 2.72 13.02c1.25 4.51 2.22 9.01 3.09 13.6.47 2.21.47 2.21 1.53 5.33 1.19 3.64 1.51 7.08 1.94 10.88l.5 1.96a46 46 0 0 1 1 6.48c.34 3.24.84 6.37 1.5 9.56.68 4.75 1 9.2 1 14l.5 2.81c.53 3.38.53 6.53.44 9.94.06 2.25.06 2.25.56 4.58.49 2.62.62 4.98.61 7.64v2.91l-.01 3.11-.01 3.21-.03 10.11-.01 6.87L892 653l2.3.34c12.01 1.88 25.39 4.33 34.58 12.85 1.5 2.43 1.45 4 1.12 6.81-4.78 7.92-13.13 10.37-21.73 12.62-14.75 3.59-30.12 5.51-45.27 6.38l-1.99.15c-13.69 1.01-27.35.86-41.06.56l-2.97-.06c-17.36-.38-34.69-1.15-52.03-2.06l-3.82-.2-15.7-.82c-44.6-2.33-89.13-4.17-133.81-4.07h-2.96c-26.91.03-53.72.91-80.58 2.39l-8.59.44q-7.44.38-14.87.86l-2.69.17c-34.92 2.28-69.83 6.08-104.54 10.43l-3.41.43q-7.72.96-15.43 2A208 208 0 0 1 345 704v-1a1054 1054 0 0 1 41.53-4.91c5.86-.58 11.69-1.23 17.52-2.03a1237 1237 0 0 1 29.2-3.5l2.97-.33c23.37-2.59 46.78-5.04 70.29-5.89q7.35-.27 14.65-1.06c9.37-1 18.69-1.55 28.11-1.82l2.1-.06c21.19-.61 42.38-.73 63.57-.78h3.29c45.08-.11 89.94 1.85 134.93 4.52 24.07 1.42 48.08 2.07 72.19 2.1q4.72 0 9.43.04c29.82.21 60.37-.43 88.22-12.28l3-1c.62-2.85 1.11-5.13 1-8-7.78-9.28-26.73-11.07-38-13l-.06-3.76c-.79-47.77-.79-47.77-2.94-71.24l-.29-3.32c-1.46-16.33-4.58-31.83-8.71-47.68-3.91-15.44-5.38-30.32-5.31-46.19v-2.56a628 628 0 0 1 3.84-68.15 321 321 0 0 0 1.84-35.91q.01-4.59.08-9.17c.1-17.32-1.85-34.49-7.7-50.9l-.89-2.57c-3.12-8.78-7-17.5-12.02-25.37-1.65-2.62-2.8-4.71-3.09-7.82 2.02-3.82 5.45-5.2 9.19-7.17A110 110 0 0 0 882 260l1.99-1.56c16.42-13.22 26.25-33.62 34.72-52.42l1.43-3.17q1.38-3.07 2.74-6.16c8.35-18.64 20.58-32.18 39.56-40.19 12.81-4.58 25.4-3.09 37.5 2.56 16.14 8.19 24.85 22.01 32.46 37.77 4.52 9.27 9.86 17.88 19.41 22.55 5.62 1.1 10.28.54 15.44-1.94 5.34-4.74 8.39-10.14 8.99-17.25.52-22.2-13.43-42.34-28.15-58q-2.03-2.11-4.09-4.19l-2.32-2.39c-20.22-19.57-45.34-25.32-72.61-24.91-25 .79-47.24 14.1-64.11 31.96-11.42 12.59-18.72 28.09-25.46 43.53-11.18 25.44-30.79 48.33-56.98 59.1-6.48 1.83-12.26-.18-18.52-2.01-28.29-8.24-60.1-9.31-89-3.28l-2.88.59c-34.89 7.27-67.3 21.7-99.12 37.41l-2.29 1.13q-4.83 2.38-9.65 4.83a973 973 0 0 1-9.15 4.55 765 765 0 0 0-30.59 15.94A874 874 0 0 1 541.5 315q-12.52 6.5-24.89 13.29-12.92 7.07-25.92 13.98-8.87 4.73-17.69 9.55c-32.54 17.77-32.54 17.77-40 17.18l-.78-3.57a424 424 0 0 0-8.72-32.49l-1.11-3.64c-7.7-24.55-7.7-24.55-14.39-29.3a15 15 0 0 0-9-1c-3.13 1.53-5.48 3.61-8 6l-2 1.83c-4.4 4.21-8.17 8.79-11.93 13.58-3.5 4.37-7.24 8.51-11.07 12.59l-1.24 1.58c-3.66 4.31-6.74 5.2-12.3 5.76l-2.9.22-6.18.67-3.2.36a160 160 0 0 0-37.93 9.59c-7.03 1.77-12.41-.34-18.56-3.68l-4.17-2.16-2.2-1.15c-4.13-2.11-8.32-4.09-12.51-6.07l-2.43-1.15c-13.09-6.19-13.09-6.19-19.38-4.97a17 17 0 0 0-8 9c-.24 2.73-.24 2.73-.23 5.84a405 405 0 0 0 .04 7.1v3.52c.06 10.5.53 20.94 2.44 31.29l.38 2.11q1.2 6.41 2.54 12.8a487 487 0 0 1 5.83 33.53c2.18 15.95 5.26 31.37 10.5 46.62l.83 2.41c6.56 18.17 18.72 29.25 35.88 37.56A53 53 0 0 0 303 527c-.89 4.53-3.49 7.4-6.38 10.88l-3.3 4.05-1.69 2.07q-2.91 3.6-5.75 7.29a380 380 0 0 1-15.18 18.31 297 297 0 0 0-9.26 11.09 153 153 0 0 1-12.14 13.04 116 116 0 0 0-7.8 8.33c-4.25 4.99-9.18 9.28-14.06 13.64q-1.93 1.75-3.83 3.53-3.22 2.98-6.61 5.77l-2.4 2.01c-6.51 4.82-11.57 5.52-19.39 5.65-7.23.19-12.5 2.09-18 6.91-5.33 5.66-8.39 12.21-8.71 19.99.3 7 2.59 11.9 7.62 16.75 8.76 6.75 20.29 6.82 30.88 5.69 7.2-1.58 13.45-5.16 19.79-8.83C229 672 229 672 231 672l-1 3.31c-1.66 6.85-2.53 13.82 1.12 20.13 2.49 3.47 5.17 5.49 8.88 7.56-1.74.73-1.74.73-4 1-2.07-1.51-2.07-1.51-4.12-3.69l-2.08-2.13a18.3 18.3 0 0 1-4.55-10.56l-.3-2.21c.06-3.07.98-5.54 2.05-8.41l-3.07 1.46-4.05 1.92-2.02.96c-10.03 4.71-19.42 6.55-30.45 3.75-7.9-2.86-15.6-6.31-19.85-13.9-3.51-8.28-2.71-14.93.44-23.19l1.12-3.12c4.56-6.98 11.69-12.9 19.88-14.88q4.03-.3 8.06-.44c6.68-.23 10.82-1.22 15.94-5.56l2.02-1.46c8.96-6.6 17.66-14.37 24.66-23.04a40 40 0 0 1 4.76-4.44 71 71 0 0 0 8.98-9.23c1.58-1.83 1.58-1.83 3.2-3.42 1.38-1.41 1.38-1.41 2.76-3.72 2.91-4.82 6.66-8.73 10.62-12.69 4.24-4.63 8.13-9.39 11.74-14.53L283 550h2l.56-2.5c1.94-4.71 5.02-7.79 8.44-11.5q2.03-2.49 4-5c-1.38-2.77-3.36-3.1-6.11-4.23-11.94-4.89-24.42-13.39-30.89-24.77l-1.5-2.44L258 497l-1.04-1.66c-2.34-3.84-3.29-6.84-3.96-11.34l-1.5-2.88c-1.56-3.25-1.93-5.64-2.25-9.18-.36-2.78-1.35-5.29-2.25-7.94l-1-7-1-2.94a34 34 0 0 1-1.56-7.31C243 443 243 443 242 441q-.32-3.21-.6-6.42c-.61-7.49-1.46-14.73-3.34-22.02-2.31-8.98-3.54-18.04-4.74-27.23q-.42-2.92-.95-5.83c-1.44-8.1-1.67-16.16-1.81-24.38l-.1-3.53c-.04-7.25.8-12 5.54-17.59l1.3-1.59c2.65-2.7 5.28-3.85 8.95-4.22 11.48.62 22.87 8.28 32.75 13.62 12.53 6.75 12.53 6.75 18 7.19 3.31-1.12 3.31-1.12 4.96-2.04 3.77-1.78 7.91-2.38 11.97-3.27a122 122 0 0 0 6.76-1.75q8.7-2.45 17.69-3.5c3.62-.44 3.62-.44 5.44-.94 2.18-.5 2.18-.5 5.25-.65 9.14-.59 13.65-3.35 19.63-9.93 2.3-2.92 2.3-2.92 4.35-6.03a39 39 0 0 1 6.01-6.95c2.21-2.08 3.84-3.77 5.34-6.42 1.97-3.1 4.16-4.68 7.16-6.77l2.94-2.08c4.11-2.75 6.5-3.09 11.5-2.67 6.47 3.24 11.65 8.51 14.26 15.27q1.02 3.38 1.92 6.78c.72 2.58 1.6 4.59 2.82 6.95q.76 2.3 1.44 4.62c1.53 5.29 1.53 5.29 2.28 7.66a212 212 0 0 1 4.83 18.92c.78 3.44 1.47 5.83 3.45 8.8q2.28-.6 4.56-1.25l2.57-.7a47 47 0 0 0 8.02-3.98c3.12-1.81 6.36-3.36 9.6-4.95a312 312 0 0 0 26.56-14.56c4.15-2.41 8.45-4.48 12.77-6.56a67 67 0 0 0 8.67-4.88c3.98-2.6 8.16-4.6 12.45-6.66A45 45 0 0 0 529 317l4-1 5-3q2.9-1.46 5.81-2.88c4.31-2.12 8.39-4.37 12.37-7.04 2.19-1.3 4.46-2.14 6.82-3.08q3.15-1.62 6.25-3.31l3.46-1.89q4.07-2.22 8.1-4.49c4-2.23 8.08-4.29 12.19-6.31l6-3 21.01-10.5q2.95-1.49 5.88-3c5.31-2.73 10.46-5.1 16.17-6.86 2.8-.92 5.32-2.3 7.94-3.64 3.31-1.39 6.66-2.69 10-4l5.12-2.06a220 220 0 0 1 20.39-7.19q2.7-.81 5.35-1.75c4.53-1.44 9.14-2.29 13.8-3.22A54 54 0 0 0 713 236q2.5-.06 5 0 2-.46 4-1c18.83-3.42 40.17-5.02 58.92-.4 2.4.46 4.65.41 7.08.4q2.44.63 4.86 1.36c6.33 1.89 12.8 3.37 19.26 4.76C816 242 816 242 818 243c11.04-4.25 21.26-10.18 29.94-18.25l1.59-1.47c4.12-3.87 7.95-7.85 11.47-12.28l1.95-2.41c4.87-6.3 8.25-12.78 11.46-20.01a161 161 0 0 1 4.28-8.89c2.06-4.06 3.75-8.19 5.32-12.46A29 29 0 0 1 888 161l2.97-5.28c1.46-2.44 3.22-4.54 5.03-6.72l1.16-1.7c7.04-10.14 16.77-17.59 26.94-24.36 2.3-1.54 4.47-3.12 6.65-4.82 3.96-2.59 7.75-3.78 12.25-5.12l6-2.06c4.95-1.66 9.88-2.95 15-3.94l2.44-.54c10.49-1.87 22.46-.56 32.56 2.54" fill="#E6E6E7"/><path d="M251 331v2h-3v3l2.5.25c13.52 2.9 27.19 13.84 36.5 23.75-1.22 3.67-2.57 4.44-5.62 6.75-15.69 12.27-27.17 29.42-30.38 49.25h-3v-3h-2c-3.16-12.2-6.27-24.43-7.76-36.96q-.36-3.03-.78-6.04l-.52-4-.28-2c-.61-4.7-.74-9.26-.66-14h-2c-.37-4.69-.48-8.05 1.69-12.31 5.06-5.89 7.68-7.21 15.31-6.69" fill="#272825"/><path d="M399 298c4.02-.15 7.54.01 10.95 2.32 8.38 8.69 11.29 22.17 14.93 33.37l.94 2.9.86 2.73.77 2.44C428 344 428 344 428 348h-2l1.44 6.75.81 3.8q.6 2.85 1.34 5.67c.67 2.91.47 5.81.41 8.78-3.75-1.25-5.25-3.18-8-6a240 240 0 0 0-5.5-4.62l-2.78-2.29c-4.14-3.18-7.52-5.35-12.72-6.09v-2a722 722 0 0 0-19.56-4.12l-2.77-.56L372 346c-1.08-3.3-1.06-3.87.37-7.29q1-1.9 2.07-3.77l1.1-2.01c2.87-5.13 6.09-9.9 9.66-14.57a90 90 0 0 0 4.24-6.17c2.97-4.16 7-6.96 11.56-9.19 3.56-.38 3.56-.38 6 0l-1-2q-3.49-.61-7-1z" fill="#242522"/><path d="M804 569c16.64 9.8 29.45 23.64 34.97 42.28 2.27 9.21 2.61 18.29 2.03 27.72-1.57 1.57-3.4 1.46-5.56 1.81-6.96 1.33-12.47 4.46-18.44 8.19l-1-1q-3.5-.55-7-1l.22-2.71c.73-10.19.97-20.4 1.07-30.61q.02-2.27.07-4.54c.22-11.07-1.3-20.49-4.36-31.14a390 390 0 0 1-2-9" fill="#ECEEED"/><path d="M252 329c9.44 3.22 18.26 8.08 27 12.81 15.81 8.56 15.81 8.56 24 6.19l1 2c-4.45 2.36-8.22 2.06-13 1a79 79 0 0 1-7.31-3.5l-4.17-2.16-2.2-1.15c-4.13-2.11-8.32-4.09-12.51-6.07l-2.43-1.15c-13.09-6.19-13.09-6.19-19.38-4.97a17 17 0 0 0-8 9c-.24 2.73-.24 2.73-.23 5.84l.01 3.47.03 3.63v3.52c.06 10.5.53 20.94 2.44 31.29l.38 2.11q1.2 6.41 2.54 12.8a487 487 0 0 1 5.83 33.53c2.18 15.95 5.26 31.37 10.5 46.62l.83 2.41c6.56 18.17 18.72 29.25 35.88 37.56A53 53 0 0 0 303 527c-.89 4.53-3.49 7.4-6.38 10.88l-3.3 4.05-1.69 2.07q-2.91 3.6-5.75 7.29a380 380 0 0 1-15.18 18.31 297 297 0 0 0-9.26 11.09 153 153 0 0 1-12.14 13.04 116 116 0 0 0-7.8 8.33c-4.25 4.99-9.18 9.28-14.06 13.64q-1.93 1.75-3.83 3.53-3.22 2.98-6.61 5.77l-2.4 2.01c-6.51 4.82-11.57 5.52-19.39 5.65-7.23.19-12.5 2.09-18 6.91-5.33 5.66-8.39 12.21-8.71 19.99.3 7 2.59 11.9 7.62 16.75 8.76 6.75 20.29 6.82 30.88 5.69 7.2-1.58 13.45-5.16 19.79-8.83C229 672 229 672 231 672l-1 3.31c-1.66 6.85-2.53 13.82 1.12 20.13 2.49 3.47 5.17 5.49 8.88 7.56-1.74.73-1.74.73-4 1-2.07-1.51-2.07-1.51-4.12-3.69l-2.08-2.13a18.3 18.3 0 0 1-4.55-10.56l-.3-2.21c.06-3.07.98-5.54 2.05-8.41l-3.07 1.46-4.05 1.92-2.02.96c-10.03 4.71-19.42 6.55-30.45 3.75-7.9-2.86-15.6-6.31-19.85-13.9-3.51-8.28-2.71-14.93.44-23.19l1.12-3.12c4.56-6.98 11.69-12.9 19.88-14.88q4.03-.3 8.06-.44c6.68-.23 10.82-1.22 15.94-5.56l2.02-1.46c8.96-6.6 17.66-14.37 24.66-23.04a40 40 0 0 1 4.76-4.44 71 71 0 0 0 8.98-9.23c1.58-1.83 1.58-1.83 3.2-3.42 1.38-1.41 1.38-1.41 2.76-3.72 2.91-4.82 6.66-8.73 10.62-12.69 4.24-4.63 8.13-9.39 11.74-14.53L283 550h2l.56-2.5c1.94-4.71 5.02-7.79 8.44-11.5q2.03-2.49 4-5c-1.38-2.77-3.36-3.1-6.11-4.23-11.94-4.89-24.42-13.39-30.89-24.77l-1.5-2.44L258 497l-1.04-1.66c-2.34-3.84-3.29-6.84-3.96-11.34l-1.5-2.88c-1.56-3.25-1.93-5.64-2.25-9.18-.36-2.78-1.35-5.29-2.25-7.94l-1-7-1-2.94a34 34 0 0 1-1.56-7.31C243 443 243 443 242 441q-.32-3.21-.6-6.42c-.61-7.49-1.46-14.73-3.34-22.02-2.31-8.98-3.54-18.04-4.74-27.23q-.42-2.92-.95-5.83c-1.44-8.1-1.67-16.16-1.81-24.38l-.1-3.53c-.04-7.25.8-12 5.54-17.59l1.3-1.59c4.39-4.48 8.91-4.65 14.7-3.41" fill="#E3E5E5"/><path d="M889 597c3.05 4.07 3.37 4.55 3.34 9.23v3.15l-.05 3.39-.01 3.48-.09 11-.04 7.46q-.06 9.15-.15 18.29l2.46.39 3.24.53 3.2.52c9.92 1.79 20.48 4.8 27.98 11.75 1.5 2.43 1.45 4 1.12 6.81-4.78 7.92-13.13 10.37-21.73 12.62-14.75 3.59-30.12 5.51-45.27 6.38l-1.99.15c-13.69 1.01-27.35.86-41.06.56l-2.97-.06c-17.36-.38-34.69-1.15-52.03-2.06l-3.82-.2-15.7-.82c-44.6-2.33-89.13-4.17-133.81-4.07h-2.96c-26.91.03-53.72.91-80.58 2.39l-8.59.44q-7.44.38-14.87.86l-2.69.17c-34.92 2.28-69.83 6.08-104.54 10.43l-3.41.43q-7.72.96-15.43 2A208 208 0 0 1 345 704v-1a1054 1054 0 0 1 41.53-4.91c5.86-.58 11.69-1.23 17.52-2.03a1237 1237 0 0 1 29.2-3.5l2.97-.33c23.37-2.59 46.78-5.04 70.29-5.89q7.35-.27 14.65-1.06a362 362 0 0 1 30.21-1.88c21.19-.61 42.38-.73 63.57-.78h3.29c45.08-.11 89.94 1.85 134.93 4.52 24.07 1.42 48.08 2.07 72.19 2.1q4.72 0 9.43.04c29.82.21 60.37-.43 88.22-12.28l3-1c.62-2.85 1.11-5.13 1-8-7.63-9.11-27.38-11.07-38-13z" fill="#E8E9E8"/><path d="m370 557 4 2a164 164 0 0 1-19.03 19.25c-1.9 1.69-3.69 3.44-5.47 5.25a111 111 0 0 1-7.19 6.69A177 177 0 0 0 332 600a184 184 0 0 1-11.69 10.97c-3.28 2.89-6.44 5.9-9.62 8.91a267 267 0 0 1-16.16 14.05 160 160 0 0 0-7.34 6.45c-4.09 3.72-8.34 7.2-12.69 10.62l-1.85 1.46c-3.89 3.03-6.11 4.63-11 4.86l-2.58.12-2.69.12-2.72.13-6.66.31c4.07-4.29 8.5-7.85 13.19-11.44l4.85-3.74 2.49-1.92a1490 1490 0 0 0 34.79-27.53q3.29-2.68 6.62-5.31c6.04-4.82 11.99-9.75 17.95-14.67q4.9-4.05 9.86-8.08a847 847 0 0 0 11.75-9.81q6.25-5.32 12.56-10.56l2.6-2.16A30 30 0 0 1 370 559z" fill="#EAE9ED"/><path d="m309.13 462.69 2.83-.05c6.1 0 10.44 1 16.05 3.36 3.5.19 3.5.19 6 0l1 3h-2q.95 1.48 2 3v4l-5.07 2.38-2.86 1.33c-9.9 4.14-20.7 5.08-31.01 1.73-5.1-2.14-9.55-5.14-13.06-9.44-.72-2.22-.72-2.22-1-4 8.43-4.88 17.57-5.34 27.12-5.31" fill="#141615"/><path d="M414 444v4l-11.25 6.44-3.22 1.85-3.11 1.77-2.85 1.63A23 23 0 0 1 387 462v2l-6.69 3-1.89.87c-3.6 1.58-6.48 2.6-10.42 2.13-1-1-1-1-1.19-4 .98-6.06 6.56-9.56 11.19-13 10.09-6.7 23.99-10.04 36-9" fill="#131514"/><path d="M252 329c9.44 3.22 18.26 8.08 27 12.81 15.81 8.56 15.81 8.56 24 6.19l1 2c-4.45 2.36-8.22 2.06-13 1a79 79 0 0 1-7.31-3.5l-4.17-2.16-2.2-1.15c-4.13-2.11-8.32-4.09-12.51-6.07l-2.43-1.15c-13.09-6.19-13.09-6.19-19.38-4.97a17 17 0 0 0-8 9c-.24 2.73-.24 2.73-.23 5.84l.01 3.47.03 3.63v3.52c.06 10.5.53 20.94 2.44 31.29l.38 2.09q1.22 6.57 2.61 13.1c2.71 13.01 4.77 25.8 5.76 39.06l-4-1-.15-2.13c-.75-9.91-1.68-19.82-4.29-29.43-2.17-8.21-3.1-16.62-4.22-25.03q-.43-2.97-.97-5.93c-1.45-8.09-1.67-16.15-1.81-24.36l-.1-3.53c-.04-7.25.8-12 5.54-17.59l1.3-1.59c4.39-4.48 8.91-4.65 14.7-3.41" fill="#E4E7E4"/><path d="m763.38 232.25 2.5.12c5.04.31 9.85 1.09 14.78 2.22 2.5.44 4.82.42 7.34.41q2.45.63 4.86 1.36a254 254 0 0 0 19.01 4.7c3.48.75 6.78 1.74 10.13 2.94-2 2-2 2-3.75 2.15-5.75-.55-11-1.89-16.5-3.52-29.86-8.6-63.6-8.28-93.7-1.01-2.05.38-2.05.38-6.05.38v-2a53 53 0 0 1 16-4q2-.47 4-1a178 178 0 0 1 41.38-2.75" fill="#ECECEE"/><path d="m354.88 477.75 2.62-.08c2.95.39 4.3 1.38 6.5 3.33-.38 2.78-.71 4.62-2.44 6.87-2.08 2.84-2.67 5.76-3.56 9.13-1 1-1 1-3.44 1.19C352 498 352 498 350 496v-4l-2.37-.87C345 490 345 490 343 488c-.44-2.37-.44-2.37 0-5 3.9-3.7 6.56-5.16 11.88-5.25" fill="#666"/><path d="M876 407h1c1.53 8.63 2.2 16.32 1 25l-.5 4.81-.25 2.46c-.78 8.45-1.4 16.84-1.19 25.33-.06 2.57-.49 4.9-1.06 7.4h-1l-1 29h-1c-.34-21.36-.1-42.56 1.44-63.88l.2-2.84A920 920 0 0 1 876 407" fill="#DFDFE1"/><path d="m235 368 .11 2.25c.72 11.43 2.78 22.5 5.13 33.69 2.71 13.01 4.77 25.8 5.76 39.06l-4-1-.15-2.13c-.75-9.91-1.68-19.82-4.29-29.43-3.54-13.42-4.89-27.61-5.56-41.44 2-1 2-1 3-1" fill="#DDDFDE"/><path d="m295 464 .52 2.01c2.61 9.54 2.61 9.54 6.48 12.99a62 62 0 0 0 8 3v1c-8.94.67-16.69-1.72-23.62-7.5-2.65-2.37-3.81-3.97-4.38-7.5 4.31-2.31 8.06-4 13-4" fill="#E1C16F"/><path d="M380 454q2.05 2.96 4 6l3 2v2l-6.69 3-1.89.87c-3.6 1.58-6.48 2.6-10.42 2.13-1-1-1-1-1.12-4.06.73-4.9 4.31-7.36 7.89-10.44C377 454 377 454 380 454" fill="#E4C770"/><path d="m370 557 4 2c-7.08 8.47-14.77 16.84-24 23l-4-2c1.57-4.25 4.78-6.61 8.19-9.38l3.53-2.91 1.71-1.41a210 210 0 0 0 5.76-4.99C368 559 368 559 370 559z" fill="#E2E5E7"/><path d="M987 108v1l-3.59.11c-18.99.72-35.51 3.94-52.48 12.97-1.93.92-1.93.92-3.93.92v-2c5.07-4.21 9.75-6.14 16-8l6-2.06c4.95-1.66 9.88-2.95 15-3.94l2.42-.54A39.4 39.4 0 0 1 987 108" fill="#E8E9EA"/><path d="M889 597c3.37 4.5 3.37 4.5 3.32 8.57l-.01 2.72-.05 2.92-.02 3.02q-.05 4.8-.12 9.58l-.09 9.55q-.02 2.97-.07 5.94c-.05 5.02.17 9.75 1.04 14.7h-4z" fill="#F2F3F4"/><path d="M353 337v2l-3.71.73q-13.3 2.64-26.6 5.39l-2.33.48c-3.46.73-6.84 1.52-10.22 2.54-3.24.89-4.97.82-8.14-.14 2.6-2.6 4.6-2.74 8.19-3.5 3.54-.77 7.01-1.56 10.5-2.56q8.7-2.45 17.69-3.5c2.67-.33 5.04-.73 7.62-1.44 4.74-1.13 4.74-1.13 7 0" fill="#E7E8E8"/><path d="M253 331c5.66.55 10.1 2.72 15.12 5.19l2.55 1.22q7.08 3.44 14.08 7.03c6.33 3.17 11.07 5.31 18.25 3.56l1 2c-4.45 2.36-8.22 2.06-13 1a79 79 0 0 1-7.31-3.5l-4.16-2.16-2.2-1.15c-4.17-2.13-8.41-4.13-12.64-6.13l-2.48-1.18-2.32-1.09-2.06-.98C256 334 256 334 253 333z" fill="#DDDEE0"/><path d="M792.9 236.36a243 243 0 0 0 18.97 4.7A79 79 0 0 1 822 244c-2 2-2 2-3.75 2.15-5.74-.55-11-1.89-16.5-3.53-10.4-3.09-20.98-4.4-31.75-5.62v-1l8.8-.78c5.04-.35 9.23-.38 14.1 1.14" fill="#E3E2E7"/><path d="M415 304c3.7 3.16 4.86 5.85 6.12 10.5A53 53 0 0 0 425 325c.81 2.41 1.5 4.83 2.2 7.27q.8 2.73 1.69 5.43l.86 2.61.8 2.37c.53 2.72.15 4.66-.55 7.32-2.55-2.55-2.96-4.66-3.99-8.12l-1.14-3.78-1.76-5.91c-2.33-7.84-4.86-15.37-8.28-22.8C414 307 414 307 415 304" fill="#E8E9EA"/><path d="m925 122 3 1a368 368 0 0 1-7.29 5.75A117 117 0 0 0 893 159l-3-2 4.31-5.73q1.54-2.07 3-4.2c6.7-9.63 17.4-19.35 27.69-25.07" fill="#EBECEC"/><path d="m500 571 3 1-1.62 1.07-4.72 3.15a383 383 0 0 1-5.38 3.53c-5.04 3.33-7.85 5.57-10.28 11.25-3.44 1.78-8.21 1.06-12 1 4.24-6.37 10.03-9.1 17-12h2v-2l2.62-1.25c3.38-1.75 3.38-1.75 6.57-4z" fill="#050605"/><path d="m233 607 2 1c-22.48 23.83-22.48 23.83-33.57 24.32l-2.72.12-2.83.12-2.87.13-7.01.31v-2c2.97-.99 5.44-1.12 8.55-1.19 7.4-.21 12.69-.93 18.45-5.81l2.09-1.54c6.35-4.71 12.12-10.08 17.91-15.46" fill="#EBEEEB"/><path d="m406 300 1 3-3.69.75c-3.92.96-6.27 2.57-9.31 5.25h-2l-2 4c-3 0-3 0-6-2l7.42-7.62c5.18-4.79 7.88-4.5 14.58-3.38" fill="#181819"/><path d="m235 368 .11 2.25c.42 6.6 1.21 12.94 2.45 19.44A76 76 0 0 1 239 408c-1.83-1.56-2.88-2.52-3.46-4.89l-.13-2.13a153 153 0 0 0-1.56-12.94l-.83-5.49c-.67-4.56-1.2-8.92-1.02-13.55 2-1 2-1 3-1" fill="#D7DBD7"/><path d="M879 364h1l.48 13.98.17 4.74c.58 15.92.58 15.92-.42 23.22a19 19 0 0 0-.08 4.7L880 413l-3 2c-.43-17.04.86-34.01 2-51" fill="#F2F3F2"/><path d="m231 672-1 3.31c-1.66 6.85-2.53 13.82 1.12 20.13 2.49 3.47 5.17 5.49 8.88 7.56-1.74.73-1.74.73-4 1-2.07-1.51-2.07-1.51-4.12-3.69l-2.08-2.13c-3.86-4.66-4.75-9.22-4.8-15.18.94-3.56.94-3.56 2-6l-5 2-2-2 4.38-2.5 2.46-1.41C229 672 229 672 231 672" fill="#DFE0E2"/><path d="m1006 111 5.5 2.19 4.5 1.81c-1.71 1.11-1.71 1.11-4 2-2.19-.61-2.19-.61-4.56-1.75-8.93-4.28-18.9-4.58-28.63-4.87L968 110v-1l1.7-.08 7.61-.36 2.67-.12 2.57-.12 2.37-.11c8.24-.82 13.32-.43 21.08 2.79" fill="#D5D7D7"/><path d="m379 314 3 1q-6.44 7.55-13 15l-2.62 3c-5.29 5.72-5.29 5.72-8.49 6.54-1.95.02-1.95.02-4.89-.54v-2l3.38-.88c8.22-3.05 14.12-10.86 18.62-18.12a89 89 0 0 1 4-4" fill="#DEDFE0"/><path d="m414 442 2 3-2.06-.14a62.7 62.7 0 0 0-34.12 8.28L378 454l-2-1c11.41-7.99 23.74-13.1 38-11" fill="#020302"/><path d="m756.8 232.09 2.71.13 2.8.16 2.77.13c5.34.28 10.64.58 15.92 1.49l1 2c-12.7.14-25.32-.25-38-1 4.23-2.82 7.8-3.16 12.8-2.91" fill="#F0F0F2"/><path d="M328 464c1.77 1.61 1.77 1.61 3 3a41 41 0 0 1-7.72-2.03c-3.71-1.1-6.78-1.2-10.65-1.17l-2.06.01q-3.22.02-6.45.07l-4.39.02q-5.37.03-10.73.1c9.26-6.17 29.24-4.81 39 0" fill="#030302"/><path d="M886 572h2a37 37 0 0 1 2 13l.55 2.6c.58 4.4.08 8.39-.49 12.78l-.3 2.51L889 609h-1l-.85-11.95-.44-6.04c-.45-6.35-.84-12.64-.71-19.01" fill="#E4E4E6"/><path d="M426 348h3l2 7.06.58 1.99A40 40 0 0 1 433 370l-3-1c-1.17-2.91-1.17-2.91-2.19-6.62l-1.04-3.67A43 43 0 0 1 426 348" fill="#191B18"/><path d="m258 581 1 2a206 206 0 0 1-12.23 13.2 138 138 0 0 0-7.19 8.1C238 606 238 606 235 608c0-4.61 2.88-6.8 6-10q2.56-2.24 5.2-4.39a75 75 0 0 0 7.22-7.78A77 77 0 0 1 258 581" fill="#E3E5E5"/><path d="m858 276 1 2h-2a56 56 0 0 0 7.89 16.84L866 297l-1 3h-2a656 656 0 0 1-4.56-8.19l-1.33-2.33c-3.12-5.72-3.12-5.72-3.07-9.41C855 278 855 278 858 276" fill="#DDDEDE"/><path d="m999.13 158.69 2.13 1.03c4.26 2.16 7 4.23 9.75 8.28a36 36 0 0 1-8.7-4.43c-7-4.46-14.08-6.02-22.3-5.57v-2c7.59-1.8 12.34-.81 19.12 2.69" fill="#E7E7E7"/><path d="M234 350h2c1.45 10.66 2.75 20.41 0 31h-1c-1.02-10.36-1.11-20.6-1-31" fill="#181B18"/><path d="M281 519a29 29 0 0 1 9.88 3.44A51 51 0 0 0 303 527l-1 4h-3l-2-2q-2.55-1.13-5.12-2.21A64 64 0 0 1 281 521z" fill="#DADADB"/><path d="M253 475c2.06 3.82 3.5 7.87 5 11.94 1.62 4.37 3.24 8.74 5 13.06-1.81-.12-1.81-.12-4-1-1.62-2.75-1.62-2.75-3-6l-1.12-2.62c-1.41-3.82-2-7.05-1.94-11.13l.02-2.42z" fill="#DFE1E0"/><path d="m382 648-3 6 3 2-16 2a42 42 0 0 1 9.12-7.25l2.64-1.58C380 648 380 648 382 648" fill="#E7E7E9"/><path d="M974.13 105.81c4.7.03 8.47.62 12.88 2.2v1c-8.6.32-17.16.65-26 1v-2l3.42-.45c3.83-.6 5.7-1.72 9.7-1.75" fill="#F3F5F7"/><path d="M873 467h1l.08 2.26.36 10.24.12 3.55c.36 9.82.36 9.82 1 14.45.4 3.19.4 5.83 0 9l-.31 2.59L875 511c-1.61-2.84-2.25-4.86-2.23-8.13v-2.42l.03-2.59.01-2.67q.02-4.23.07-8.44l.02-5.73q.03-7.01.1-14.02" fill="#F1F1F3"/><path d="m370 557 4 2c-4.12 4.92-8.4 9.53-13 14l-1-3h2l.31-2.31c.75-2.94 1.47-3.74 3.69-5.69l2-3h2z" fill="#DBDDDC"/><path d="M168 665a163 163 0 0 1 3.75 5.88c4.23 5.87 8.34 8.6 15.25 10.12l-2 2c-5.59-.51-9.84-3.39-14-7-1.83-2.51-3.24-4.98-4-8z" fill="#DADBDC"/><path d="m744 233 3 1Zm0 1c3.45.26 6.91.41 10.38.56l2.8.13 6.82.31v1l-34 1v-2c5.38-1.58 8.44-1.98 14-1" fill="#D0D0D3"/><path d="M650 683c13.7-.13 27.32.23 41 1v1c-7.69.85-15.26 1.12-23 1v-2h-18z" fill="#E3E5E1"/><path d="m925 122 3 1-7.46 5.96A657 657 0 0 0 907 140c.81-6.65 8.27-10.77 13.11-14.73 1.83-1.39 1.83-1.39 4.89-3.27" fill="#DCDEDE"/><path d="M169 646h1l-.44 3.12c-.79 6.27-1.14 12.58-1.56 18.88l-2-1c-2.2-7.25-.3-14.4 3-21" fill="#EDEFED"/><path d="M923 196c1.11 1.72 1.11 1.72 2 4-.61 2.18-.61 2.18-1.75 4.44a62 62 0 0 0-3.25 7.5c-1.23 2.54-2.39 3.1-5 4.06a139 139 0 0 1 5.12-13.38l.84-1.94z" fill="#DFDEE1"/><path d="m365 562 2 1-4 2zm-4 3 2 1-1 4h-2l-1 4-3-1-3 3-2-1c2.97-4 6.13-6.92 10-10" fill="#EFF1EF"/><path d="M871 316c4.93 4.26 5.34 9.54 6.05 15.7C877 334 877 334 875 337l-2-7.69-.58-2.18c-.97-3.8-1.67-7.18-1.42-11.13" fill="#E1E3E4"/><path d="M330 468h2c2.74 2.95 3 3.77 3 8l-9 3 1.44-2.69A27 27 0 0 0 330 468" fill="#AEA36B"/><path d="m984 154 1 2-15 3-3-4c5.71-.99 11.21-1.1 17-1" fill="#D1D2D1"/><path d="M876 407h1l1 6.75.56 3.8C879 421 879 421 879 425h-4z" fill="#CCCCCE"/><path d="M615 276c-3.06 2.49-6.15 4.1-9.75 5.69l-2.98 1.32-2.27.99c1.49-4.6 1.49-4.6 3.77-6.4 6.81-3.26 6.81-3.26 11.23-1.6" fill="#E3E3E5"/><path d="M430 349c3.45 3.45 4.12 8.3 5 13a29 29 0 0 1-1 7h-1l-2.06-7.75-.61-2.21c-.97-3.75-1.48-6.34-.33-10.04" fill="#DFDFE0"/><path d="M296 477c3.99.57 6.62 1.84 10 4q2 1.02 4 2c-5.53.19-9.76-.25-15-2z" fill="#C1AE79"/><path d="M293 466h1c.12 5.75.12 5.75-1 8h-7l2-6h5z" fill="#F0C765"/><path d="m875 425 3 1c.56 9.58.56 9.58-3 14h-1c-.1-5.13-.04-9.95 1-15" fill="#DFDFE1"/><path d="M886 572h2c2.72 6.64 1.47 12.11 0 19h-1z" fill="#D7D7D8"/><path d="M259 335a176 176 0 0 1 18 8l-2 2-2.69-1.44A27 27 0 0 0 264 341v-2l-5-1z" fill="#181719"/><path d="m1045 217 1.94.62A78 78 0 0 0 1062 221v2c-5.98 1.84-9.74-.29-15-3l-2-1z" fill="#ECEBEE"/><path d="m858 215 2 3-3.81 4-2.15 2.25C852 226 852 226 849 226c1.41-3.22 3.1-5.32 5.62-7.75l1.92-1.86z" fill="#E0E0E2"/><path d="m244 443 3 1 1 14c-4.04-4.04-3.94-7.39-4.06-12.94z" fill="#E1E3E1"/><path d="m231 672-2 8-2-1v-2l-5 2-2-2 4.38-2.5 2.46-1.41C229 672 229 672 231 672" fill="#D1D2D0"/><path d="M885 557c1.49 1.32 1.49 1.32 3 3 .12 2.88.12 2.88 0 6a85 85 0 0 0 1 5l-3 1c-1-3.31-1.1-6.3-1.06-9.75l.02-2.98z" fill="#EEF0F0"/><path d="m258 334-2 1 1 3-9-2v-3c3.94-1.31 6.12-.24 10 1" fill="#111215"/><path d="m929 184 3 1-.87 1.7a187 187 0 0 0-3.25 7.05l-1.08 2.42-.8 1.83h-2c.53-5.35 2.47-9.36 5-14" fill="#E6E5E6"/><path d="M1014 116c4.56.54 8.04 1.66 12 4l2 3-2 1c-2.82-1.4-2.82-1.4-6.12-3.38l-3.33-1.96L1014 117z" fill="#E1E2E4"/><path d="M415 449q-3.65 2.3-7.31 4.56l-2.09 1.33-2.03 1.24-1.85 1.16C400 458 400 458 397 457q3.65-2.3 7.31-4.56l2.09-1.33 2.03-1.24 1.85-1.16C412 448 412 448 415 449" fill="#040605"/><path d="M243 423h1l2 20-4-1 .22-1.87c.63-5.75.87-11.35.78-17.13" fill="#BBBDBC"/><path d="M877 397h1l1.06 6.25.6 3.52c.3 2.85.43 4.6-.66 7.23l-2 1z" fill="#E8E9EA"/><path d="M310 619c0 4-1.73 5.8-4 9l-3-1 2.94-3.44 1.65-1.93q1.16-1.36 2.41-2.63m-9 8h2c-.75 1.94-.75 1.94-2 4-2.12.75-2.12.75-4 1q1.92-2.56 4-5" fill="#1D1B22"/><path d="m380 454 1 4-2.19.31c-2.81.69-2.81.69-5.5 2.31L371 462l-2-1q1.9-1.76 3.81-3.5l2.15-1.97C377 454 377 454 380 454" fill="#D6C079"/><path d="M249.66 328.66C252 329 252 329 255 331c-3.35 1.11-6.52 1.02-10.03.96-2.41.04-4.64.45-6.97 1.04 3.2-4.66 6.45-4.42 11.66-4.34" fill="#E9E9EA"/><path d="M222 679q-2.33 1.3-4.69 2.56l-2.63 1.44c-3.06 1.14-4.6.93-7.68 0 10.51-5.47 10.51-5.47 15-4" fill="#DDDFDC"/><path d="M281 519c4.86.61 8.74 2.73 13 5-1.81 1.08-1.81 1.08-4 2a50 50 0 0 1-9-5z" fill="#E0E0E1"/><path d="M316 344v2c-9.41 3.63-9.41 3.63-14 2 2.28-2.28 3.35-2.49 6.44-3.12l2.37-.51C313 344 313 344 316 344" fill="#EAECEC"/><path d="M876 334h2c1.62 5.61 2.56 9.46 0 15h-1a80 80 0 0 1-1-15" fill="#ECECEE"/><path d="M907 138c-.59 3.39-1.77 5.21-4.06 7.75l-1.66 1.86L900 149c-.68-1.77-.68-1.77-1-4 1.14-1.92 1.14-1.92 2.81-3.75l1.65-1.86C905 138 905 138 907 138" fill="#E3E2E5"/><path d="m970.85 105.9 6.15.1-1 2q-3.49.56-7 1l-1 1q-3.5.06-7 0v-2l3.44-.44c2.9-.46 3.87-1.53 6.4-1.66" fill="#EEF0F0"/><path d="M249 468h2c2.59 4.86 2.19 9.65 2 15-2.55-4.89-4-9.45-4-15" fill="#EFEFF3"/><path d="m380 452 3 4 2-1 2 2c-.38 2.62-.38 2.62-1 5-3.43-2.46-5.27-3.79-6-8l-2-1z" fill="#291D12"/><path d="M1069 173h2a198 198 0 0 1 2.12 4.69l1.2 2.63c.83 3.28.2 4.72-1.32 7.68-1.01-3.62-1.5-7.28-2-11h-3z" fill="#171917"/><path d="m241 598 3 1-2.81 3.38-1.58 1.89C238 606 238 606 235 608c0-3.59.66-4.11 3-6.69l1.69-1.88z" fill="#D1D4D2"/><path d="m633 526-9 4-2-2c3.76-4.32 5.84-4.58 11-2" fill="#1C1C20"/><path d="M558 305c-2.3 2.6-4.5 3.85-7.69 5.19l-2.45 1.04-1.86.77c2.77-5.89 5.4-7.45 12-7" fill="#E1E0E4"/><path d="M789 238c-3.96 1.46-7.7.68-11.75.06l-2.11-.3L770 237v-1c7.21-.98 12.55-1.66 19 2" fill="#C8C6CA"/><path d="M853 687c4.82-.19 8.5.24 13 2v1h-13z" fill="#C3C4C5"/><path d="m804 569 9 6-4 1-3 2z" fill="#CED0CE"/><path d="m629 270-2 4h-2l-1 2-3 2-1-2c1-3 1-3 3.94-4.69C627 270 627 270 629 270" fill="#19191B"/><path d="M715 239v1l-4.25 1-2.39.56C706 242 706 242 702 242v-2c5.15-2.68 7.45-3.57 13-1" fill="#DDDCDC"/><path d="M253 475a30 30 0 0 1 3.12 8.75l.51 2.42.37 1.83-3-1a20 20 0 0 1-1.06-7.69l.02-2.45z" fill="#D3D3D6"/><path d="m245 410 1 3h2v3l2 1-3 1-1-2-4 1c1.88-4.75 1.88-4.75 3-7" fill="#17171A"/><path d="m241 334-.9 1.7a56 56 0 0 0-2.72 7.05l-.79 2.42L236 347h-1c-.49-7.22-.49-7.22 1.88-11 2.12-2 2.12-2 4.12-2" fill="#101110"/><path d="M419 322h2q.58 2.17 1.12 4.38l.64 2.46.24 2.16-2 2c-1.8-3.83-2.2-6.78-2-11" fill="#1D1D1F"/><path d="m229 693 1.56 2.19c2.87 3.31 5.81 5.37 9.44 7.81-1.77.7-1.77.7-4 1-1.92-1.29-1.92-1.29-3.75-3.19l-1.86-1.85C229 697 229 697 229 693" fill="#D6D8D7"/><path d="M239 382c1.88 3.27 2.49 6.28 3 10l-2 1v-3h-2l-1 2v-5h2z" fill="#181A16"/><path d="m337 338 3 1v2l-9 1v-3l2.44.06C336 339 336 339 337 338" fill="#EFEFF1"/><path d="m233 607 2 1-10 10-2-2z" fill="#ECEFEC"/><path d="M253 331c3.95.55 7.35 1.39 11 3-1.56 1.19-1.56 1.19-4 2-3.75-1.38-3.75-1.38-7-3z" fill="#D9D9DC"/><path d="M1076 203c2 2 2 2 2.38 4.38-.49 3.37-1.82 4.46-4.38 6.62-1.14-3.41-.87-4 .44-7.19l.87-2.17z" fill="#DADBDD"/><path d="M224 617c-1.5 4.21-4.29 5.74-8 8l-2-2 3.88-3 2.17-1.69C222 617 222 617 224 617" fill="#DEDDDF"/><path d="M295 464h3v10c-3.01-3.01-2.6-5.82-3-10" fill="#33250D"/><path d="m427 340 3 1 1 8-2 1c-1.32-3.62-2-6.1-2-10" fill="#EEF1ED"/><path d="M866 273c-1.13 3.29-1.99 4-5.12 5.75L858 280l-1-2h2l1-3c2.15-1.32 3.47-2 6-2" fill="#EDEFEC"/><path d="M919 205a14 14 0 0 1 2 4c-.76 3.19-1.31 4.57-4.12 6.31L915 216c1.21-3.72 2.51-7.38 4-11" fill="#D1D0D4"/><path d="M1025 187c3 1 3 1 4 3q.06 3 0 6c-2.72-2.35-3.81-4.62-5-8z" fill="#EAEBEC"/><path d="m221 689 5 3-3 3-4-4z" fill="#D7D7D9"/><path d="m844 684 5 2v1h-16v-1h11z" fill="#282B2C"/><path d="M168 657v11l-2-1c-.41-2.07-.41-2.07-.62-4.56l-.23-2.51L165 658c2-1 2-1 3-1" fill="#E5E6E5"/><path d="M389 640c-.81 2.44-.81 2.44-2 5l-3 1-3-2c5.75-4 5.75-4 8-4" fill="#1A1C1A"/><path d="M331 469c2 1.25 2 1.25 4 3v4l-6 1 1-3h3z" fill="#D1C185"/><path d="M387 465a139 139 0 0 1-5 5h-2v-2l-3-1c3.51-1.6 6.14-2.22 10-2" fill="#2D2316"/><path d="m440 364 1 3c-3 2-3 2-7 2l1-4z" fill="#EFEDF0"/><path d="M1071 174c1.94.81 1.94.81 4 2 1.04 3.13.93 3.99 0 7-1.99-2.99-2.94-5.6-4-9" fill="#E0E2DE"/><path d="m324 682 1 2h-2v2c-2.81 1.56-2.81 1.56-6 3l-3-1z" fill="#B2B4B3"/><path d="m213 624 3 1-8 6-1-3c2.81-2.06 2.81-2.06 6-4" fill="#E5E6E6"/><path d="M651 515c-2.05 2.25-3.01 3-6 4l-3-2c5.62-3.12 5.62-3.12 9-2" fill="#202222"/><path d="M286 474c2.44.38 2.44.38 5 1l1 2c2.56.62 2.56.62 5 1l-4 2-3.5-2.44-1.97-1.37L286 475z" fill="#DBBE77"/><path d="M873 422c2.29 3.44 2.18 4.99 2 9l-3 1-.06-4.44-.04-2.49c.1-2.07.1-2.07 1.1-3.07" fill="#17171A"/><path d="M875 397c2 2 2 2 2.2 3.95L877 407l-4-4z" fill="#18191A"/><path d="m887 168 3 2-2.38 4-1.33 2.25L885 178h-2a57 57 0 0 1 4-10" fill="#242427"/><path d="m821 646 2 2-6 5c.31-2.38.31-2.38 1-5z" fill="#161918"/><path d="M372 453c2.75.25 2.75.25 5 1-1 2-1 2-3.38 3.19C371 458 371 458 368 457c1.69-2.06 1.69-2.06 4-4" fill="#1C1714"/><path d="M237 398h2v10l-3-3c.31-3.69.31-3.69 1-7" fill="#E0E4E1"/><path d="M449 362v2c-5.75 3-5.75 3-8 3l1-4c4.75-1 4.75-1 7-1" fill="#E9E6E8"/><path d="m237 333 3 1a79 79 0 0 1-6 7l-1-3c1.94-2.69 1.94-2.69 4-5" fill="#D9D9D9"/><path d="m910 227 2 1c-1.74 3.06-3.38 5.63-6 8 .62-5.54.62-5.54 2.56-7.88z" fill="#EAEAEB"/><path d="M865 209c-1.27 3.91-2.51 5.79-6 8 .38-2.78.67-4.59 2.44-6.81C863 209 863 209 865 209" fill="#EDECEE"/><path d="M914 132c-1.49 3.8-3.76 5.61-7 8 .56-3.89 2.66-8 7-8" fill="#CFD1D2"/><path d="M372 654v2l4 1-10 1c3.75-4 3.75-4 6-4" fill="#E0DFDE"/><path d="M380 459c2.96.61 4.38 1.25 7 3v2l-4 1-.38-2.44L382 460z" fill="#CCBC7B"/><path d="m379 314 3 1-5 6-2-1c1.15-2.47 2.05-4.05 4-6" fill="#D8DBD9"/><path d="m579 291 2 1c-2.53 2.8-4.2 4.46-8 5v-2q2.94-2.09 6-4" fill="#EFEEF1"/><path d="m935 176 1 4c-1.44 2.25-1.44 2.25-3 4l-3-1z" fill="#D6D8D6"/><path d="m1011 167 6 5-1 3-6-7z" fill="#D3D3D2"/><path d="M961 160c-2.17 2.5-3.73 3.44-7 4 .38-1.94.38-1.94 1-4 2.49-1.25 3.41-.78 6 0" fill="#EBEAEC"/><path d="M295 633c0 3 0 3-1.88 5.19C291 640 291 640 289 640c1.39-3.37 2.98-4.99 6-7" fill="#19181F"/><path d="M344 587c0 4.39-2.13 5.77-5 9l-1-3z" fill="#252528"/><path d="m884 553 3 1v3h-2v7h-1z" fill="#D8D9DA"/><path d="M877 518c1.98 2.92 1.99 4.12 1.62 7.75L878 529c-1.98-2.92-1.99-4.12-1.62-7.75z" fill="#D6D6D6"/><path d="M681 500c1.35 2.71 1.07 5.01 1 8l-2-1-1-4-2-2c2-1 2-1 4-1" fill="#CFCFCE"/><path d="M368 465h6v3l-6 2z" fill="#EFC966"/><path d="M278 343c3.69.5 5.6 1.1 8 4l-2 1a96 96 0 0 1-6-3z" fill="#D2D4D6"/><path d="m498 336-1 3-5 1v-3c2.08-.55 3.84-1 6-1" fill="#ECECED"/><path d="m395 298 3 1c-2.62 2.12-5.2 4.13-8 6 .38-2.76.84-3.84 2.88-5.81z" fill="#DEE0E0"/><path d="M659 256c-2.46 2.46-4.71 3-8 4v-3c4.62-2.12 4.62-2.12 8-1" fill="#E2E1E6"/><path d="m897 240 1 2c-.94 2.62-.94 2.62-2 5h-3l1-4h2z" fill="#1A1B1A"/><path d="m584 547 3 1c-2.35 2.72-4.62 3.81-8 5v-2h2v-2z" fill="#1E2020"/><path d="M303 478c2.39.58 4.67 1.22 7 2v2l-6-1z" fill="#1B180C"/><path d="M378 469c-2.55 2.35-3.71 2.98-7.25 3.19L368 472v-2c6.62-2.12 6.62-2.12 10-1" fill="#342719"/><path d="M871 316c1.56 1.12 1.56 1.12 3 3-.31 3.19-.31 3.19-1 6-1.86-3.13-2.2-5.37-2-9" fill="#D5D5D5"/><path d="m604 278 1 2 2 1-7 3c1.75-4.88 1.75-4.88 4-6" fill="#DBDADD"/><path d="M1033 199c3.88 1.88 3.88 1.88 5 3q.06 2.5 0 5c-2.25-2.69-3.88-4.65-5-8" fill="#171817"/><path d="M885 177c0 3.6-.96 5.09-3 8h-2c1.62-5.75 1.62-5.75 5-8" fill="#18181A"/><path d="M1068 167h2l4 7c-1.88-.12-1.88-.12-4-1-1.25-3.06-1.25-3.06-2-6" fill="#EBEDE9"/></svg>