<svg style="background:transparent" version="1.1" xmlns="http://www.w3.org/2000/svg" viewBox="0 0 1248 704"><path d="M750 23c5.14 2.8 10.7 7.07 12.59 12.79 1.59 6.63 1.67 13.04 1.6 19.83v3.32c-.05 8.2-.05 8.2-.7 12.18-.67 5.29-.57 10.5-.52 15.83l.03 7.84v2.17c.02 9.95-.11 19.9-.22 29.84l-.07 6.15-.21 18.93-.25 22.11-.1 8.66-.03 2.76-.06 5.4a486 486 0 0 0 .07 17.37l.12 5.8c.14 11.41-3.11 22.85-10.78 31.53-2.32 2.35-4.79 4.5-7.31 6.64-2.98 2.55-5.87 5.19-8.78 7.81C733 262 733 262 730.24 264c-6.77 4.93-6.77 4.93-8.13 8a24 24 0 0 0-.11 6l.09 2c.4 5.03 2.03 9.36 3.91 14l2 6c2.02 5.87 4.13 11.54 7 17.05 1.83 3.57 3.42 7.26 5 10.95l.96 2.23c2.46 5.9 4.39 11.9 6.25 18.01 1.06 3.48 2.17 6.89 3.54 10.26a30 30 0 0 1 1.81 7.62c.44 3.88.44 3.88 1.44 6.76 1.14 3.57 1.47 6.9 1.79 10.62q.29 3.19.71 6.38c2.08 16.73 2.89 33.46-.94 49.97-.52 2.91-.58 4.43.44 7.15l2.42-.76c9.95-2.77 16.58-1.64 26.02 2.14 2.98 1.89 5.12 4.06 7.56 6.62l3.56 2.81c3.79 3.21 5.55 6.67 7.44 11.19l.91 1.89c1.66 3.55 2.31 6.22 2.09 10.11l1 3a199 199 0 0 1 .42 8.93l.14 4.27.22 6.49.13 4.15.13 3.79A37 37 0 0 1 807 520q-.24 2.43-.44 4.88A57 57 0 0 1 804 537l-.5 2.56c-.6 2.92-1.54 5.62-2.5 8.44l-1.38 4.75c-1.33 4.49-2.96 8.8-4.75 13.12A85 85 0 0 0 793 571l7.34 2.2q3.18.96 6.35 1.99c3.54.87 6.67.88 10.31.81l1 1q2.85.14 5.71.13l3.52.01 3.71-.02 3.69.02 3.52-.01h3.25C844 577 844 577 846 576q2.31-.15 4.62-.25C864 574.61 878.4 569.23 889 561l1.89-1.29c8.39-5.84 13.44-13.3 17.11-22.71l1-2.38c4.18-10.95 5.68-21.69 1.12-32.76q-1.46-2.98-3.12-5.86l-1.94-3.38c-2.33-2.97-3.61-3.31-7.06-4.62q-2.5-1.42-4.94-2.94c-4.41-2.69-8.76-5.22-13.62-7C877 477 877 477 874.5 474.94c-2.5-1.94-2.5-1.94-5.19-2.44-2.31-.5-2.31-.5-3.5-2.25L865 468l-1.06-2.56c-2.48-6.44-2.77-12.59-1.94-19.44 1.64-2.92 2.88-3.33 6-5l1.72-1.13c8.23-5 18.61-4.58 27.73-2.59A61 61 0 0 1 909 442l2.65 1.35A143 143 0 0 1 930 455l2.29 1.58L934 458v2l1.81.76c2.48 1.4 3.6 2.75 5.25 5.05l1.57 2.18c1.56 2.29 2.97 4.62 4.37 7.01l1.44 2.06c3.22 4.6 5.23 8.41 6.56 13.94l1.56 3.44c1.63 4.02 2.01 7.26 2.44 11.56l1 3c.23 3.25.19 6.5.19 9.75l.03 2.67c.02 5.25-.53 9.56-2.22 14.58l-1.15 4.09c-2.86 10.08-5.74 19.24-11.85 27.91l-1.38 2.36c-2.25 3.66-4.94 6.89-7.65 10.22a187 187 0 0 0-3.29 4.15c-3.49 4.54-7.93 8.11-12.68 11.27h-2l-.67 1.81c-1.76 2.9-3.64 3.73-6.64 5.25-5.55 2.86-5.55 2.86-8.22 4.47a86 86 0 0 1-21.07 8.79c-2.34.66-4.61 1.43-6.9 2.24-7 2.36-14.15 3.53-21.49 4.19-2.01.25-2.01.25-4.04.78-2.59.62-5.11.48-7.76.44-2.29.03-4.5.25-6.77.53-5.05.61-9.83.73-14.88 0a49 49 0 0 0-7.94-.5H808l-1-1h-2.75c-2.98 0-5.35-.38-8.25-1l-4.06-.5c-2.81-.36-5.23-.8-7.94-1.5l-4.81-.94c-4.84-.95-9.55-2.13-14.21-3.77L763 615a65 65 0 0 0-6 5.81c-5.84 6.29-5.84 6.29-10 8.19l-2 3 2.2 1.54C762.02 644.1 762.02 644.1 764 652l1 2c.44 5.5-.01 10.31-3 15-8.85 8.46-20.64 7.37-32.13 7.22-11.32-.36-23.78-2.82-33.49-8.84C694 666 694 666 691 666l1.72.88c9.25 4.91 15.91 9.81 19.28 20.12.96 5.8 1.56 11.29 0 17a2426 2426 0 0 1-28.29.41q-6.58.06-13.14.19-6.35.13-12.69.16-2.42.01-4.83.09c-12.61.32-12.61.32-16.13-2.54A23 23 0 0 1 634 696l-.73-2.15c-3.95-12.91-.85-27.97 1.73-40.85l-17 1c-1.06 5.29-1.06 5.29 0 9 .4 4.39.56 8.79.75 13.19l.21 3.62c.3 6.96.12 12.85-2.96 19.19l-1.13 2.59C613 704 613 704 609.91 704.6l-3.86-.03h-2.13q-3.48-.01-6.96-.08l-4.83-.02q-6.36-.04-12.71-.13l-12.97-.1q-12.73-.08-25.45-.24c-2.99-5.6-1.94-10.6-.28-16.59 2.24-6.27 5.61-10.72 10.28-15.41-3.74 0-6.7 1.1-10.23 2.25-14.02 3.82-32.66 3.54-46.27-1.56-3.66-2.47-4.96-4.62-6.07-8.89-1.22-7.12.45-11.96 4.57-17.8 4.83-5.73 9.61-11 17-13l2 1v-2l-1.78-.82a28 28 0 0 1-5.72-4.06l-1.84-1.61c-1.95-1.78-3.8-3.65-5.66-5.51l-3.38-2.81a62 62 0 0 1-8.07-8.38C484 607 484 607 481.66 604.68c-2.88-2.9-5.53-5.93-8.16-9.06l-1.47-1.75A125 125 0 0 1 463 582l-1.78-2.65c-3.11-4.75-5.51-8.92-7.22-14.35a75 75 0 0 0-2-4c-4.41-8.32-7.89-16.59-9-26q-.98-3-2-6c-.84-4.22-1.29-8.47-1.72-12.75-.28-2.25-.28-2.25-.79-4.59-.8-4.35-.67-8.68-.68-13.1l-.03-2.81c-.02-5.03.34-9.01 2.22-13.75l.31-3.25A31 31 0 0 1 449 462l1.36-2.46c1.95-3.03 3.89-4.34 6.95-6.23l2.8-1.76c5.59-3 10.18-3.83 16.51-3.8l3.92-.02c3.14.25 4.85.6 7.46 2.27l-2-3q-.06-3 0-6l-1-4v-5l-1-1q-.04-3.45.09-6.89l.06-2.13.15-4.5.21-6.74c.72-23.25.72-23.25 3.49-30.74q.73-3.61 1.34-7.24c.89-3.72 2.28-7.21 3.66-10.76l1.94-5.13 2.06-5.43 1.04-2.75c2.96-7.78 6.2-15.33 9.96-22.75l1.04-2.07 2.03-4.02 2.4-4.83q2.34-4.6 4.79-9.14c6.45-12.04 6.45-12.04 8.9-17.91q.91-2.12 1.96-4.19c2.22-4.49 3.8-8.63 3.61-13.7-1.52-4.33-5.88-6.05-9.73-8.08l-3-2v-2l-1.69-.19c-3.3-1.16-5.03-3.21-7.31-5.81v-2l-1.75-.62c-5.11-3.13-7.11-9.03-9.25-14.38l-1.12-2.5c-1.97-5.61-2.09-11.65-2.42-17.55l-.13-2.3-.39-7.4-.14-2.55c-.64-12.03-1-24.01-.81-36.06a145 145 0 0 0-.77-16.91c-.38-4.64-.28-9.27-.22-13.92.06-8.18-.18-16.25-.78-24.41-.24-3.78-.26-7.51-.16-11.29C493 98 493 98 492.5 95.79c-.58-3.24-.56-6.23-.51-9.52q.07-8.43-.38-16.86l-.21-4.37q-.14-3.33-.35-6.66C490.07 42.1 490.07 42.1 496 35c5.05-5.29 10.27-8.64 17.73-9.36 4.98.08 8.19 2.23 12.21 4.98l2.11 1.4q2.07 1.36 4.12 2.75 2.25 1.51 4.55 2.98c4.61 2.98 8.9 6.25 13.14 9.73 2.29 1.63 4.52 2.52 7.14 3.52q2.54 1.95 5 4 2.99 2.02 6 4l3.31 2.38a410 410 0 0 0 8.44 5.87l2.23 1.52c3.99 2.44 6.66 2.05 11.16 1.49 5.39-.49 10.81-.32 16.21-.28q9.52.06 19.05.02h5.29q8.17 0 16.35-.1l5.26-.02c15.54.02 15.54.02 20.66-3.93l1.64-1.67C679 63 679 63 682 63l.73-1.84c1.54-2.63 2.84-3.31 5.52-4.72a98 98 0 0 0 12.63-8.75l1.78-1.43 3.58-2.86a398 398 0 0 1 8.38-6.46l2.86-2.16A44 44 0 0 1 724 31q2.18-1.44 4.31-2.94c7.26-4.82 13.01-7.52 21.69-5.06M553 669l-1 2 3-1z" fill="#141715"/><path d="M913.31 446.81c19.78 10.5 33.57 27 40.7 48.2 6.53 23.43 2.72 47.78-9.06 68.87-15.13 26.04-39.5 42.7-67.89 51.43l-2.23.7c-14.44 4.2-28.99 5.52-43.96 5.36h-2.42c-22.92-.15-45.7-2.74-67.45-10.37l1.87-.75C765 609 765 609 765.8 607.36c1.75-3.46 4.12-6.4 6.45-9.49 4.3-5.77 8.2-11.6 11.75-17.87l3-5c10.44.73 10.44.73 15.06 2 25.03 6.87 58.24 3.6 80.94-9 15.93-9.72 27.07-23.14 31.58-41.35 1.91-12.1.85-22.65-6.12-32.92-7-8.68-16.48-13.49-26.49-17.89-5.9-2.63-10.35-5.62-14.22-10.9l-1.52-2.04c-2.6-4-2.84-8.26-2.23-12.9a21.6 21.6 0 0 1 9.42-10.08c13.11-4.69 28.02 1.3 39.9 6.9" fill="#121413"/><path d="M750 23c5.14 2.8 10.7 7.07 12.59 12.79 1.59 6.63 1.67 13.04 1.6 19.83v3.32c-.05 8.2-.05 8.2-.7 12.18-.67 5.29-.57 10.5-.52 15.83l.03 7.84v2.17c.02 9.95-.11 19.9-.22 29.84l-.07 6.15-.21 18.93-.25 22.11-.1 8.66-.03 2.76-.06 5.4a486 486 0 0 0 .07 17.37l.12 5.8c.14 11.41-3.11 22.85-10.78 31.53-2.32 2.35-4.79 4.5-7.31 6.64-2.98 2.55-5.87 5.19-8.78 7.81C733 262 733 262 730.24 264c-6.77 4.93-6.77 4.93-8.13 8a24 24 0 0 0-.11 6l.09 2c.4 5.03 2.03 9.36 3.91 14l2 6c2.02 5.87 4.13 11.54 7 17.05 1.83 3.57 3.42 7.26 5 10.95l.96 2.23c2.46 5.9 4.39 11.9 6.25 18.01 1.06 3.48 2.17 6.89 3.54 10.26a30 30 0 0 1 1.81 7.62c.44 3.88.44 3.88 1.44 6.76 1.14 3.57 1.47 6.9 1.79 10.62q.29 3.19.71 6.38c2.08 16.73 2.89 33.46-.94 49.97-.52 2.91-.58 4.43.44 7.15l2.42-.76c9.95-2.77 16.58-1.64 26.02 2.14 2.98 1.89 5.12 4.06 7.56 6.62l3.56 2.81c3.79 3.21 5.55 6.67 7.44 11.19l.91 1.89c1.66 3.55 2.31 6.22 2.09 10.11l1 3a199 199 0 0 1 .42 8.93l.14 4.27.22 6.49.13 4.15.13 3.79A37 37 0 0 1 807 520q-.24 2.43-.44 4.88A57 57 0 0 1 804 537l-.5 2.56c-.6 2.92-1.54 5.62-2.5 8.44l-1.38 4.75c-1.33 4.49-2.96 8.8-4.75 13.12A85 85 0 0 0 793 571l7.34 2.2q3.18.96 6.35 1.99c3.54.87 6.67.88 10.31.81l1 1q2.85.14 5.71.13l3.52.01 3.71-.02 3.69.02 3.52-.01h3.25C844 577 844 577 846 576q2.31-.15 4.62-.25C864 574.61 878.4 569.23 889 561l1.89-1.29c8.39-5.84 13.44-13.3 17.11-22.71l1-2.38c4.18-10.95 5.68-21.69 1.12-32.76q-1.46-2.98-3.12-5.86l-1.94-3.38c-2.33-2.97-3.61-3.31-7.06-4.62q-2.5-1.42-4.94-2.94c-4.41-2.69-8.76-5.22-13.62-7C877 477 877 477 874.5 474.94c-2.5-1.94-2.5-1.94-5.19-2.44-2.31-.5-2.31-.5-3.5-2.25L865 468l-1.06-2.56c-2.48-6.44-2.77-12.59-1.94-19.44 1.64-2.92 2.88-3.33 6-5l1.72-1.13c8.23-5 18.61-4.58 27.73-2.59A61 61 0 0 1 909 442l2.65 1.35A143 143 0 0 1 930 455l2.29 1.58L934 458v2l1.81.76c2.48 1.4 3.6 2.75 5.25 5.05l1.57 2.18c1.56 2.29 2.97 4.62 4.37 7.01l1.44 2.06c3.22 4.6 5.23 8.41 6.56 13.94l1.56 3.44c1.63 4.02 2.01 7.26 2.44 11.56l1 3c.23 3.25.19 6.5.19 9.75l.03 2.67c.02 5.25-.53 9.56-2.22 14.58l-1.15 4.09c-2.86 10.08-5.74 19.24-11.85 27.91l-1.38 2.36c-2.25 3.66-4.94 6.89-7.65 10.22a187 187 0 0 0-3.29 4.15c-3.49 4.54-7.93 8.11-12.68 11.27h-2l-.67 1.81c-1.76 2.9-3.64 3.73-6.64 5.25-5.55 2.86-5.55 2.86-8.22 4.47a86 86 0 0 1-21.07 8.79c-2.34.66-4.61 1.43-6.9 2.24-7 2.36-14.15 3.53-21.49 4.19-2.01.25-2.01.25-4.04.78-2.59.62-5.11.48-7.76.44-2.29.03-4.5.25-6.77.53-5.05.61-9.83.73-14.88 0a49 49 0 0 0-7.94-.5H808l-1-1h-2.75c-2.98 0-5.35-.38-8.25-1l-4.06-.5c-2.81-.36-5.23-.8-7.94-1.5l-4.81-.94c-4.84-.95-9.55-2.13-14.21-3.77L763 615a65 65 0 0 0-6 5.81c-5.84 6.29-5.84 6.29-10 8.19l-2 3 2.2 1.54C762.02 644.1 762.02 644.1 764 652l1 2c.44 5.5-.01 10.31-3 15-8.85 8.46-20.64 7.37-32.13 7.22-11.32-.36-23.78-2.82-33.49-8.84C694 666 694 666 691 666l1.72.88c9.25 4.91 15.91 9.81 19.28 20.12.94 5.68 1.75 11.42 0 17h-5l1-3c.79-8.78.73-15.98-5-23-4.33-4.68-9.24-7.37-15-10v-9c2.14 1.07 4.27 2.16 6.34 3.37 6.96 4.04 13.9 6.55 21.66 8.63l1.79.53c5.17 1.09 10.63.7 15.9.72l3.76.06c6.91.03 13.28-.12 19.55-3.31 2.99-2.99 3.21-5.73 3.38-9.81-.23-5.85-1.08-10.6-5.04-15.07-4.63-4.27-9.76-7.27-15.34-10.12a401 401 0 0 1 13.25-15l1.83-2.1c4.52-4.74 4.52-4.74 8.36-5.18 2.61.23 5.02.67 7.56 1.28l3.85.87 3.77 1.01c17.28 4.22 34.53 5.41 52.26 5.5l2.32.02c14.81.12 29.41-1.58 43.61-5.96l2.46-.75c14.18-4.56 28.32-11 39.73-20.69l2.59-2.18c19.19-16.7 31.84-39.29 34.41-64.82 1.52-24.07-5.88-44-21.01-62.45-9.54-10.39-22.69-17.31-35.99-21.55l-2.05-.74c-7.18-2.26-16.51-2.85-23.59-.31-3.86 2.27-6.77 4.78-8.36 9.05-.7 6.24.25 9.99 4 15 4.66 5.44 10.31 8.75 16.72 11.78C897.2 482.2 907.14 488.22 913 500l1.81 3.5c4.25 12.29.76 26.21-4.43 37.56-3.27 6.22-7.41 11.02-12.38 15.94l-2.24 2.34c-16.92 16.63-41.3 21.04-64.14 20.91l-3.96.02c-12.66-.02-28.07-.48-39.66-6.27a162 162 0 0 1 5.15-15.66c9.67-24.99 16.73-57.16 7.85-83.34l-.88-2.71c-3.88-10.8-10.19-17.4-20.45-22.43-9.22-2.96-19.75-.98-28.67 2.14l.94-9 .26-2.54c.4-3.82.82-7.63 1.35-11.43 2.14-16.94.14-34.28-2.55-51.03l-.39-2.47c-3.39-20.52-10.71-40.15-19.64-58.85C724.4 302.8 716.06 284.71 719 269c2.72-3.6 6.21-5.62 10-8q3.36-2.41 6.62-4.94l1.69-1.28c10.77-8.39 18.33-19.11 20.69-32.78.3-4.24.31-8.47.32-12.72l.03-3.82q.04-5.17.05-10.35l.07-11.01.11-18.6.1-18.79.02-2.3.03-4.59q.1-14.7.16-29.4l.01-2.21.03-8.71q.04-12.93.19-25.87.07-6.78.12-13.57l.08-6.16q.07-4.16.08-8.31l.06-2.4c0-5.24-1.13-8.18-4.46-12.19-4.38-3.31-8.26-5.55-13.89-5.38-10.49 1.9-20.36 11.45-28.75 17.64Q706.7 47.41 701 51.5l-4.44 3.21-2.24 1.62-7.35 5.31-2.49 1.8-4.73 3.42-2.15 1.56-1.89 1.37c-3.91 2.78-5.87 3.47-10.65 3.53l-3.72.06-4.04.03-4.2.06-11.1.13-11.02.14q-9.56.13-19.1.2-6.46.06-12.91.21l-6.2.1-2.78.08c-7.69.09-11.68-2.52-17.22-7.79-3.82-3.32-8.14-5.99-12.33-8.79l-5.74-3.89-2.88-1.94-8.11-5.56C518.38 28.88 518.38 28.88 508 30c-4.86 1.68-8.19 4.74-11 9-1.75 3.7-2.25 6.61-2.24 10.69l-.01 3.37.04 3.62.02 3.78c.1 11.43.68 22.81 1.36 34.21a1433 1433 0 0 1 2.41 66.45q.24 13.45.39 26.9.06 5.64.17 11.29.04 2.61.05 5.24c.09 17.39 2.94 33.18 15.12 46.26a58 58 0 0 0 9.9 7.96l2.2 1.41q2.18 1.36 4.41 2.63c4.85 3 4.85 3 5.75 6.25.23 5.58-1.43 10.12-3.82 15.06l-1.14 2.47c-4.19 8.85-8.77 17.51-13.27 26.2l-1.34 2.59-1.34 2.59c-6.6 12.76-12.86 25.46-17.66 39.03l-.78 2.18a161 161 0 0 0-6.86 27.72 141 141 0 0 1-.87 4.56c-1.5 7.32-1.84 14.39-1.8 21.85v3.67c.14 12.4 1.17 24.99 4.31 37.02l-3.5-1c-9.66-2.09-20.67-2.83-29.39 2.39-9.73 7.41-14.4 17.89-16.6 29.68-4.73 36.54 8 75.87 30.08 104.92q4.46 5.57 9.34 10.78a170 170 0 0 1 5.45 6.23c7.11 8.13 15.49 14.89 24.11 21.33 4.4 3.35 4.4 3.35 5.51 6.67l-2.09.66c-8.64 2.92-16.38 5.86-20.97 14.15-2.57 5.9-3.06 10.98-.94 17.07 4.61 4.89 10.52 5.32 16.92 5.52q3.92.01 7.83-.02l3.92.03a76 76 0 0 0 31.39-6.6c6.56-2.81 6.56-2.81 9.94-2.81v6l-1.98.85c-8.71 3.99-13.66 8.84-17.34 17.74-1.54 5.45-1.2 11 .32 16.41l-4-1c-1.87-7.5-.24-14.88 3.43-21.63A103 103 0 0 1 548 675l1.69-2.25L551 671l-2.34.84-3.16 1.1-3.09 1.09c-14.44 4.12-33.88 3.92-47.91-1.34-3.66-2.47-4.96-4.62-6.07-8.89-1.22-7.12.45-11.96 4.57-17.8 4.83-5.73 9.61-11 17-13l2 1v-2l-1.78-.82a28 28 0 0 1-5.72-4.06l-1.84-1.61c-1.95-1.78-3.8-3.65-5.66-5.51l-3.38-2.81a62 62 0 0 1-8.07-8.38C484 607 484 607 481.66 604.68c-2.88-2.9-5.53-5.93-8.16-9.06l-1.47-1.75A125 125 0 0 1 463 582l-1.78-2.65c-3.11-4.75-5.51-8.92-7.22-14.35a75 75 0 0 0-2-4c-4.41-8.32-7.89-16.59-9-26q-.98-3-2-6c-.84-4.22-1.29-8.47-1.72-12.75-.28-2.25-.28-2.25-.79-4.59-.8-4.35-.67-8.68-.68-13.1l-.03-2.81c-.02-5.03.34-9.01 2.22-13.75l.31-3.25A31 31 0 0 1 449 462l1.36-2.46c1.95-3.03 3.89-4.34 6.95-6.23l2.8-1.76c5.59-3 10.18-3.83 16.51-3.8l3.92-.02c3.14.25 4.85.6 7.46 2.27l-2-3q-.06-3 0-6l-1-4v-5l-1-1q-.04-3.45.09-6.89l.06-2.13.15-4.5.21-6.74c.72-23.25.72-23.25 3.49-30.74q.73-3.61 1.34-7.24c.89-3.72 2.28-7.21 3.66-10.76l1.94-5.13 2.06-5.43 1.04-2.75c2.96-7.78 6.2-15.33 9.96-22.75l1.04-2.07 2.03-4.02 2.4-4.83q2.34-4.6 4.79-9.14c6.45-12.04 6.45-12.04 8.9-17.91q.91-2.12 1.96-4.19c2.22-4.49 3.8-8.63 3.61-13.7-1.52-4.33-5.88-6.05-9.73-8.08l-3-2v-2l-1.69-.19c-3.3-1.16-5.03-3.21-7.31-5.81v-2l-1.75-.62c-5.11-3.13-7.11-9.03-9.25-14.38l-1.12-2.5c-1.97-5.61-2.09-11.65-2.42-17.55l-.13-2.3-.39-7.4-.14-2.55c-.64-12.03-1-24.01-.81-36.06a145 145 0 0 0-.77-16.91c-.38-4.64-.28-9.27-.22-13.92.06-8.18-.18-16.25-.78-24.41-.24-3.78-.26-7.51-.16-11.29C493 98 493 98 492.5 95.79c-.58-3.24-.56-6.23-.51-9.52q.07-8.43-.38-16.86l-.21-4.37q-.14-3.33-.35-6.66C490.07 42.1 490.07 42.1 496 35c5.05-5.29 10.27-8.64 17.73-9.36 4.98.08 8.19 2.23 12.21 4.98l2.11 1.4q2.07 1.36 4.12 2.75 2.25 1.51 4.55 2.98c4.61 2.98 8.9 6.25 13.14 9.73 2.29 1.63 4.52 2.52 7.14 3.52q2.54 1.95 5 4 2.99 2.02 6 4l3.31 2.38a410 410 0 0 0 8.44 5.87l2.23 1.52c3.99 2.44 6.66 2.05 11.16 1.49 5.39-.49 10.81-.32 16.21-.28q9.52.06 19.05.02h5.29q8.17 0 16.35-.1l5.26-.02c15.54.02 15.54.02 20.66-3.93l1.64-1.67C679 63 679 63 682 63l.73-1.84c1.54-2.63 2.84-3.31 5.52-4.72a98 98 0 0 0 12.63-8.75l1.78-1.43 3.58-2.86a398 398 0 0 1 8.38-6.46l2.86-2.16A44 44 0 0 1 724 31q2.18-1.44 4.31-2.94c7.26-4.82 13.01-7.52 21.69-5.06M553 669l-1 2 3-1z" fill="#E6E7E8"/><path d="m578 493 2 2 1.4 1.38q1.7 1.71 3.33 3.49c7.71 8.16 17.12 13.49 27.27 18.13l2.05.97c8.74 3.77 17.31 2.43 25.95-.97 9.21-3.92 17.19-9 24.16-16.24C666 500 666 500 668 500l.81-1.88C670 496 670 496 673 494c.57 7.37-4.15 13.38-8.25 19.19a77 77 0 0 1-19.59 14.56l-3.51 1.86L639 531l.18 2.18c1.65 20.65 2.04 41.24 2.07 61.94l.02 3.79c.14 44.27.14 44.27-3.27 51.09q-5.94.08-11.88.12l-3.41.06-3.26.02-3.02.03C614 650 614 650 612 648c-.47-2.64-.81-5.2-1.07-7.86l-.26-2.43c-.9-9.3-1.27-18.62-1.48-27.96l-.07-2.81c-.35-15.4.16-30.69 1.19-46.06l.2-2.98a1188 1188 0 0 1 .78-10.88A127 127 0 0 1 614 530l-3.69-.88c-12.38-4.1-23.78-15.59-30.15-26.67-1.54-3.25-2-5.88-2.16-9.45" fill="#000"/><path d="M640 206c.6 5.99.6 5.99-1.04 8.77-1.8 2.17-3.42 3.96-5.96 5.23l-.44 3.44L632 227c-3 2-3 2-5.5 1.81-2.74-.89-3.83-1.48-5.5-3.81l-.38-2.44c-.86-3.52-2.75-4.46-5.62-6.56-2.17-3.25-2.55-4.23-2-8 6.7-9.38 18.36-6.39 27-2" fill="#616360"/><path d="M496 111h1a948 948 0 0 1 1.32 39.18l.23 14.47q.17 9.1.27 18.2.09 7.46.24 14.91.05 2.8.07 5.6c.17 19.57 3.46 35.85 17.76 50a55 55 0 0 0 7.32 5.41l2.2 1.41q2.18 1.36 4.41 2.63c2.06 1.27 3.63 2.32 5.18 4.19.6 3.1.45 5.89 0 9h-2l-.38-1.79c-1.24-4.76-2.32-7.53-6.62-10.15q-2-1.05-4-2.06l-3-2v-2l-1.69-.19c-3.3-1.16-5.03-3.21-7.31-5.81v-2l-1.75-.62c-5.11-3.13-7.11-9.03-9.25-14.38l-1.12-2.5c-1.97-5.61-2.09-11.65-2.42-17.55l-.13-2.3-.39-7.4-.14-2.55c-.64-12.03-1-24.01-.81-36.06.08-5.8-.17-11.44-.76-17.21-.28-2.9-.36-5.77-.35-8.68l-.01-2.83c.13-2.92.13-2.92.6-6.22.6-4.21.87-8.39 1.09-12.64l.13-2.36z" fill="#E1E4E1"/><path d="M533 271h1c1.46 6.16.41 9.62-2.32 15.23l-1.09 2.36a622 622 0 0 1-12.23 24.18c-7.57 14.45-14.91 28.82-20.36 44.23l-.78 2.18a158 158 0 0 0-6.85 27.75 87 87 0 0 1-.89 4.25c-2.21 9.88-1.7 19.95-1.6 30.01l.02 5.77q.03 7.02.1 14.04h-2c-.91-3.08-1-5.8-1-9l-1-1q-.04-3.45.09-6.89l.06-2.13.15-4.5.21-6.74c.72-23.25.72-23.25 3.49-30.74q.73-3.61 1.34-7.24c.89-3.72 2.28-7.21 3.66-10.76l1.94-5.13 2.06-5.43 1.04-2.75c2.96-7.78 6.2-15.33 9.96-22.75l1.04-2.07 2.03-4.02 2.4-4.83q2.34-4.6 4.79-9.14c6.37-11.89 6.37-11.89 8.9-17.9a128 128 0 0 1 1.93-4.3c1.97-4.24 3.43-7.97 3.91-12.68" fill="#E6E7E9"/><path d="M761 649c2.64 1.32 2.98 2.24 4 5 .52 5.46-.03 10.34-3 15-8.85 8.46-20.64 7.37-32.13 7.22-11.32-.36-23.78-2.82-33.49-8.84C694 666 694 666 691 666l1.72.88c9.25 4.91 15.91 9.81 19.28 20.12.94 5.68 1.75 11.42 0 17h-5l1-3c.79-8.78.73-15.98-5-23-4.33-4.68-9.24-7.37-15-10v-9c2.14 1.07 4.27 2.16 6.34 3.37 6.96 4.04 13.9 6.55 21.66 8.63l1.79.53c5.17 1.09 10.63.7 15.9.72l3.76.06c13.6.06 13.6.06 19.55-3.31 3.49-3.79 3.3-7.25 3.12-12.25q-.1-3.37-.12-6.75z" fill="#E2E5E2"/><path d="m613 650 24 1c0 9 0 9-.5 12.94-1.35 11.32-2.71 26.13 3.81 36.06a37 37 0 0 0 3.69 4c-2.19.5-2.19.5-5 0-7.27-7.75-7.33-18.06-7.2-28.07.39-7.76 1.68-15.32 3.2-22.93l-17 1c-1.06 5.29-1.06 5.29 0 9 .4 4.39.56 8.79.75 13.19l.21 3.62c.37 8.69-.28 17.15-5.96 24.19h-4l.87-1.64c8.09-16.86 5.01-34.45 3.13-52.36" fill="#F0F1F1"/><path d="M759 85h1l.01 1.97.33 47.63.16 23.03.14 20.09.07 10.62.08 11.89.02 3.53c.05 4.82.16 9.56.73 14.35 1.1 9.32-3.36 18.57-8.79 25.95a82 82 0 0 1-8.59 8.09c-2.98 2.55-5.87 5.19-8.78 7.81C733 262 733 262 730.24 264c-6.8 4.96-6.8 4.96-8.13 8.11-.53 3.7-.12 7.3.89 10.89l-3 1c-1.93-1.93-1.52-4.97-1.69-7.56.07-6.62.07-6.62 2.46-9.8A97 97 0 0 1 729 261q3.36-2.41 6.62-4.94l1.69-1.28c10.74-8.37 18.38-19.12 20.69-32.78.3-4.49.31-8.98.32-13.48l.03-4.06q.04-5.46.05-10.94l.07-11.45.12-21.66.14-24.68z" fill="#C4C6C5"/><path d="m771 613 3.85.87 3.77 1.01c18.03 4.51 36.91 5.57 55.38 7.12v1l-5.96.68C826 624 826 624 823 625l-7-1q-2.19-.03-4.38 0H808l-1-1h-2.75c-2.98 0-5.35-.38-8.25-1l-4.06-.5c-2.81-.36-5.23-.8-7.94-1.5l-4.81-.94c-4.84-.95-9.55-2.13-14.21-3.77L763 615a65 65 0 0 0-6 5.81c-5.84 6.29-5.84 6.29-10 8.19l-2 3 2.2 1.54c11.04 7.86 11.04 7.86 14.8 12.46-.36 2.17-.36 2.17-1 4h-2l-2.82-4.35c-3.99-5.57-10.26-8.56-16.18-11.65a401 401 0 0 1 13.25-15l1.83-2.1c5.18-5.44 8.77-5.62 15.92-3.9" fill="#E7E8E9"/><path d="m787 575 8 1v1h-5l-.38 2.12A74 74 0 0 1 787 588h-2l-.25 2.5c-1.75 8.16-6.52 14.16-11.75 20.5l3 3c-5.27-.45-10.02-1.08-15-3l1.88-.75C765 609 765 609 765.8 607.37c1.75-3.46 4.12-6.41 6.45-9.49 4.29-5.77 8.2-11.62 11.75-17.88z" fill="#010201"/><path d="M761 67h1c1.06 27.4 1 54.74.66 82.16l-.13 13-.14 12.7-.07 5.98c-.11 10.76-.37 21.44-1.32 32.16h-1l-.05-49.58q0-11.51-.03-23.02l-.01-20.1-.02-10.61c-.02-14.26-.04-28.47 1.11-42.69" fill="#F0F2F1"/><path d="M502 30c0 3.69-1.27 4.69-3.71 7.3-3.04 4-3.54 7.87-3.52 12.79l.01 3.57.03 3.72v3.59c.03 6.06.23 12.06.7 18.1.71 9.79.6 19.56.55 29.37l-.01 5.72L496 128c-2.11-3.85-2.43-7.31-2.62-11.62l-.12-2.16q-.38-7.05-.2-14.11C493 98 493 98 492.5 95.79c-.58-3.24-.56-6.23-.51-9.52q.07-8.43-.38-16.86l-.21-4.37q-.14-3.33-.35-6.66c-.98-16.37-.98-16.37 4.95-23.38a49 49 0 0 1 6-5" fill="#E8E8E9"/><path d="M754 425h1c1.27 4.69.91 9.03.56 13.81l-.16 2.39q-.18 2.9-.4 5.8l2.64-.76c10.3-2.64 17.06-1.76 26.8 2.14 2.98 1.89 5.12 4.06 7.56 6.62l3.56 2.81c4.59 3.86 6.58 8.6 8.44 14.19h-2l-1 3-.66-1.91c-4.16-11.21-9.88-17.94-20.67-23.23-9.22-2.96-19.75-.98-28.67 2.14l.94-9 .26-2.54q.81-7.74 1.8-15.46" fill="#E5E6E9"/><path d="M496 111h1c1.63 28.62 2.26 57.34 2 86h-1l-1 5h-1a381 381 0 0 1-.96-34.29c.04-6.17-.18-12.19-.81-18.33a86 86 0 0 1-.35-8.63l-.01-2.83c.13-2.92.13-2.92.6-6.22.6-4.21.87-8.39 1.09-12.64l.13-2.36z" fill="#CCCECE"/><path d="M710.32 186.48 712 188v2c-4.59-.77-4.59-.77-6.73-1.99-8.72-3.88-20.31-1.99-29.27-.01l-2.43.44c-7.57 1.45-14.01 4.58-20.57 8.56h-2c.12-1.81.12-1.81 1-4 2.75-1.56 2.75-1.56 6-3l2.19-1.5c3.65-1.95 7.38-2.84 11.38-3.85C674 184 674 184 676 183c11.2-1.58 24.33-2.9 34.32 3.48" fill="#030402"/><path d="m601 194 3 2v2a30 30 0 0 1-7.75-3.94c-9.41-5.97-20.78-6.43-31.63-6.5l-3.02-.03c-8.17.1-15.34 1.67-22.6 5.47v-3c19.55-10.08 44.16-9.79 62 4" fill="#030404"/><path d="M749 23c5.81 2.9 11.44 6.34 13.6 12.8 1.69 6.58 1.66 13.07 1.59 19.82v3.32c-.03 5.45-.23 10.69-1.19 16.06h-1l-1 9h-1l-.01-1.74q-.06-9.01-.2-18.01l-.06-6.72q-.04-4.83-.12-9.66v-3.02c-.13-5.77-.66-9.33-4.61-13.85-3.06-2.25-3.06-2.25-6-4l-3-2z" fill="#DFE0E0"/><path d="M613 650c6.62-.25 6.62-.25 10 2h-6c-.13 6.51-.13 6.51.48 8.86 1.21 4.96 1.05 10.24 1.27 15.33l.21 3.62c.37 8.69-.28 17.15-5.96 24.19h-4l.87-1.64c8.06-16.79 5.09-34.53 3.13-52.36" fill="#EAEAEE"/><path d="M896.06 437.63c4.98.47 8.53 2.1 12.94 4.38l2.67 1.35A144 144 0 0 1 930 455l2.28 1.58 1.72 1.43v2l1.8.74c2.53 1.44 3.66 2.88 5.32 5.25a45 45 0 0 0 4.88 6c-.38 2.13-.38 2.13-1 4l-1.69-2.13c-14.15-17.5-30.29-28.49-52.3-33.87 2-2 2-2 5.05-2.37" fill="#DDDDE0"/><path d="m579 67 2.31 2.06c3.85 2.53 6.72 1.85 11.12 1.24a82 82 0 0 1 12.17.12c13.38.77 26.76.93 40.15 1.14l7.68.13L671 72v1l-24.23.39-11.26.18q-11.8.2-23.59.35-6.5.08-13 .25l-6.23.11-2.8.1c-4.3.05-6.3 0-10-2.4L578 70z" fill="#D6D8D9"/><path d="M945 475h2a37.4 37.4 0 0 1 8 16l1.56 3.44c1.63 4.02 2.01 7.26 2.44 11.56l1 3c.25 3.35.23 6.7.25 10.06l.06 2.8.02 2.68.03 2.44L960 529l-3 2-.11-3.81c-.58-16.13-2.39-30.19-9.37-44.86A30 30 0 0 1 945 475" fill="#E8E8EA"/><path d="M563 663v6l-1.98.85c-8.71 3.99-13.66 8.84-17.34 17.74-1.54 5.45-1.2 11 .32 16.41l-4-1c-1.87-7.5-.24-14.88 3.43-21.63A103 103 0 0 1 548 675l1.69-2.25L551 671l-3-3 5.81-2.5 3.27-1.41C560 663 560 663 563 663m-10 6-1 2 3-1z" fill="#D1D1D7"/><path d="m688 659 2 1-.42 2.22c.42 2.78.42 2.78 3.31 5.03q1.88 1.11 3.8 2.19c6.18 3.52 10.86 6.86 13.56 13.75L711 686l1 3q.37 2.71.62 5.44l.29 2.87c.08 2.49-.16 4.33-.91 6.69h-5l1-3c.79-8.78.73-15.98-5-23-4.33-4.68-9.24-7.37-15-10z" fill="#E9EBEB"/><path d="M487 389h1v52h-2c-.91-3.08-1-5.8-1-9l-1-1q-.04-3.52.09-7.04l.06-2.15.15-4.55.21-6.88.14-4.42.06-2.05c.46-13.08.46-13.08 2.29-14.91" fill="#EEEFF2"/><path d="M689 660a49 49 0 0 1 9 4.38c13.43 7.56 28.92 8.85 44 9.62v1c-15.73 1.6-31.65.83-45.63-7.58-2.5-1.5-4.51-2.01-7.37-2.42z" fill="#E0E1E2"/><path d="M488 436h1l.4 2.92.54 3.83.52 3.8c.4 2.56.89 4.95 1.54 7.45l-3.84-.99c-5.28-1.18-10.33-1.24-15.72-1.13l-2.77.02-6.67.1v-2c4.68-1.82 8.62-2.27 13.62-2.25l3.92-.02c3.14.25 4.85.6 7.46 2.27l-2-3c.24-2.7.24-2.7.88-5.69l.61-3.01z" fill="#CCCECD"/><path d="m802 472 3 1 .68 5.96C806 481 806 481 807 484q.22 3.53.32 7.07l.06 2.08.18 6.54.13 4.44L808 515l-3 1-.06-2.4-.32-10.91-.09-3.77c-.21-6.67-.7-13.01-2.11-19.54A36 36 0 0 1 802 472" fill="#F1F4F0"/><path d="M550 670c-2.27 2.27-3.65 2.67-6.69 3.56l-2.51.76c-7.1 1.73-13.98 1.8-21.24 1.74l-3.08-.01L509 676l-1-2 3.34-.11c11.59-.48 28.03-6.41 38.66-3.89" fill="#EDEEEF"/><path d="M742 342c1.91.28 1.91.28 4 1 1.1 2.69 1.9 5.14 2.62 7.94l.65 2.33a169 169 0 0 1 3.37 14.75q.57 3.01 1.36 5.98h-2l-1 4-.7-3.63c-1.87-9.45-4.1-18.49-7.35-27.56C742 344 742 344 742 342" fill="#E5E6E5"/><path d="M489 654h2l.11 2.01c.72 9.61.72 9.61 3.89 12.99 6.66 3.14 12.7 3.53 20 3.69l3.21.1q3.9.12 7.79.21v1q-5.68.42-11.38.75l-3.21.25c-7.28.4-12.99-.4-19.41-4-3.84-3.95-3.96-9.67-4-15z" fill="#EDEFF0"/><path d="m738 254 1 3-5.19 4.25-2.92 2.39a135 135 0 0 1-5.7 4.41c-2.35 2.1-2.86 2.82-3.07 5.89l-.14 2.09c.02 2.42.36 4.64 1.02 6.97l-3 1c-1.93-1.93-1.52-4.97-1.69-7.56.04-6.61.04-6.61 2.6-9.9A89 89 0 0 1 729 261a282 282 0 0 0 5.12-4z" fill="#DDDFDF"/><path d="M497 172h1l2 56h-2a44 44 0 0 1-1.11-10.25v-3.09l.01-3.3.01-3.41q0-5.39.03-10.76l.01-7.31z" fill="#EDEDED"/><path d="M760 42h1l1 9h2a1083 1083 0 0 1 .09 10.34A78 78 0 0 1 763 75h-1l-1 9h-1z" fill="#CCCECC"/><path d="M495 134h2v33h-1a150 150 0 0 1-2.19-24.38v-2.25c.05-5.23.05-5.23 1.19-6.37" fill="#F0F2F1"/><path d="M804 512c2.36 3.94 3.48 8.44 2.62 13l-.62 2-.44 3.56C805 534 805 534 803 537h-2l.94-8.56.26-2.43A389 389 0 0 1 804 512" fill="#E2E6E2"/><path d="M755 398h1c1.69 6.85 2.19 13.48 2.19 20.5v2.39c-.03 3.28-.15 5.98-1.19 9.11h-2z" fill="#F2F4F2"/><path d="m494 648 1 2h2l-.98 1.69c-2.13 4.82-1.6 10.51-.02 15.43l1 1.88h-3c-3.18-3.66-3.44-7.06-3.3-11.71.46-3.49 1.7-6.16 3.3-9.29" fill="#27292B"/><path d="M841 578v2q-6.12.08-12.25.12l-3.51.06-3.38.02-3.11.03A13.6 13.6 0 0 1 812 578c21.18-2.42 21.18-2.42 29 0" fill="#F2F1F3"/><path d="M613 650c7 0 7 0 10 2h-6c-.13 6.56-.13 6.56.56 8.97.77 3.55-.58 6.59-1.56 10.03h-1z" fill="#D7D5D7"/><path d="M798.75 573.19c2.71.45 5.16 1.08 7.81 1.88 3.63.98 6.7 1.09 10.44.93l1 2c-9.25 1.4-16.98.36-26-2 2.45-2.93 2.61-3.02 6.75-2.81" fill="#E1E1E2"/><path d="M502 30c0 3 0 3-2.31 5.62-6.2 7.18-6.28 16.3-6.69 25.38h-1c-2.06-17.74-2.06-17.74 2.45-24.26A45 45 0 0 1 502 30" fill="#E8E6EA"/><path d="M806 621c9.4-.12 18.63.12 28 1v1l-5.96.68C826 624 826 624 823 625l-7-1q-2.16.03-4.31.12L808 624z" fill="#F1F2F4"/><path d="m957 507 1 2h2q.13 4.93.19 9.88l.07 2.83.03 2.72.05 2.51L960 529l-3 2z" fill="#F1F1F4"/><path d="m464 452-2.06 1.62L459 456l-1.75 1.39A38 38 0 0 0 448 468l-3-2 1.81-1.69c2.19-2.31 2.19-2.31 3.38-4.69 3.05-4.41 8.36-9.44 13.81-7.62" fill="#E3E4E5"/><path d="M635 687h1l.48 2.2c1.5 6.21 2.98 10.26 7.52 14.8-2.19.5-2.19.5-5 0-3.16-3.59-5.87-8.14-6-13 .94-2.31.94-2.31 2-4" fill="#DFE1E2"/><path d="M501 622c4.3.51 7.08 3.23 10.25 5.94l1.68 1.38A94 94 0 0 1 517 633v2c-4.3-.51-7.08-3.23-10.25-5.94l-1.68-1.38A94 94 0 0 1 501 624z" fill="#E0E0E3"/><path d="M821 621h22v2q-3.09.55-6.19 1.06l-3.48.6c-5.67.58-7.69-.18-12.33-3.66" fill="#DADBDE"/><path d="M496 111h1c.8 14.02 1.13 27.96 1 42h-1v-19h-2z" fill="#B1B1B2"/><path d="M542 684h2l-.5 2.38c-.81 5.88-1.17 11.87.5 17.62l-4-1c-1.7-6.79.08-12.39 2-19" fill="#E8E8EB"/><path d="m856.38 619.94 3.76.03 2.86.03v2l-2.49.19-3.25.25-3.25.25a50 50 0 0 0-7.01 1.3h-4v-3a65 65 0 0 1 13.38-1.05" fill="#ECEDED"/><path d="m516 315 2 3q-1.89 3.98-3.81 7.94l-1.08 2.28-1.07 2.18-.97 2.02C510 334 510 334 507 335a80 80 0 0 1 5.62-13.38l.99-1.94z" fill="#242626"/><path d="M727 673h23l-2 3c-2.06.34-2.06.34-4.57.29l-2.72-.03-2.83-.07-2.87-.04q-3.5-.06-7.01-.15z" fill="#CED0CE"/><path d="M876 615c-1 3-1 3-2.71 3.98-6.09 2.1-10.97 2.11-17.29 1.02v-1l2.7-.62 3.55-.82 3.52-.81q2.74-.62 5.46-1.35c1.77-.4 1.77-.4 4.77-.4" fill="#DEE1E0"/><path d="M467 451q3.94-.12 7.88-.19l2.26-.07c2.16-.03 2.16-.03 5.86.26l2 3h-17z" fill="#151818"/><path d="M490 372c2.29 3.44 2.15 3.99 1.54 7.89l-.43 2.84-.49 2.96-.46 2.99q-.56 3.66-1.16 7.32h-1c-1.54-5.99-2.54-10.15 0-16q.6-2.17 1.12-4.38z" fill="#D3D4D7"/><path d="m495 671 3.25.46c5.57.7 11.15.89 16.75 1.1l3.21.13 7.79.31v1q-5.78.38-11.56.69l-3.29.22c-6.28.32-10.62.18-16.15-2.91z" fill="#D1D2D3"/><path d="M550 670c-3.25 3.25-7.54 4.17-12 5-3.12-.81-3.12-.81-5-2 5.2-3.03 11.13-4.83 17-3" fill="#E4E4E5"/><path d="M754 425h1c.99 4 1.01 7.47.69 11.56l-.24 3.38c-.42 2.82-1 4.64-2.45 7.06-1.36-2.73-.91-4.6-.62-7.62l.3-3.25q.57-5.57 1.32-11.13" fill="#D5D7D8"/><path d="m794 564 1 2c-.94 2.62-.94 2.62-2 5l3 2v2c-5.75.12-5.75.12-8-1 1.48-6.52 1.48-6.52 4.12-8.94z" fill="#EDEDEF"/><path d="M494 366c2.58 4.19 1.76 6.9.71 11.52A37 37 0 0 1 491 386c-1.37-4.4-.24-7.93.94-12.25l.59-2.26z" fill="#35353A"/><path d="m579 67 2.85 2.45c4.65 3.32 9.02 3.33 14.59 3.36l2.79.08q3.38.09 6.77.11v1q-5.6.17-11.19.25l-3.19.1c-7.9.1-7.9.1-11.86-2.37L578 70z" fill="#BABCBC"/><path d="M464 583c3.17.3 4.08 1.08 6.32 3.43l2.37 3.01 2.38 2.99C477 595 477 595 478 597c-3.33-.25-4.21-1.22-6.58-3.69q-1.35-1.64-2.67-3.31l-1.39-1.7c-3.36-4.13-3.36-4.13-3.36-5.3" fill="#E3E6E5"/><path d="M439 504c2.34 2.48 2.98 3.78 3.29 7.23l-.1 3.52-.08 3.55-.11 2.7h-2l-.44-3.19c-.56-3.81-.56-3.81-1.18-6.43-.43-2.72-.06-4.74.62-7.38" fill="#E1E3E2"/><path d="m802 472 3 1c1.5 11.25 1.5 11.25-1 15l-1-5.19-.56-2.92A43 43 0 0 1 802 472" fill="#E6E9E6"/><path d="M889 477c2.31-.19 2.31-.19 5 0a33 33 0 0 1 3 3l3.12 1.56C903 483 903 483 904 485l-3 1c-2.66-1.36-2.66-1.36-5.62-3.31l-2.98-1.93C890 479 890 479 889 477" fill="#0D0D0E"/><path d="M495 356h1a61 61 0 0 1-4 19c-1.43-2.29-2.1-3.44-1.61-6.15l.86-2.23.88-2.36.87-2.26 1.19-3.56z" fill="#EDEDF1"/><path d="M759 205h1q.62 4.16 1.19 8.31l.36 2.38.31 2.3.3 2.11c-.22 2.57-1.26 3.23-3.16 4.9l-2 3 .46-2.45c.63-4.14.89-8.24 1.1-12.43l.13-2.37z" fill="#E4E5E3"/><path d="M956 526h1c1.88 5.18 2.44 7.9.12 13q-1.01 2.01-2.12 4h-2z" fill="#D9DBDC"/><path d="M914 508h2v16l-2 1-.56-7.94-.17-2.28q-.19-2.89-.27-5.78z" fill="#DDDFE1"/><path d="m477 448 3 3-17 1v-2c4.94-1.98 8.75-2.43 14-2" fill="#CBCCCF"/><path d="m718 673 24 1v1q-4.03.3-8.06.56l-2.28.17c-4.74.31-8.99.11-13.66-.73z" fill="#EEEFEC"/><path d="m786 450-2 2-2.69-1.44c-5.47-2.39-11.43-2.3-17.31-2.56v-1c15-1.73 15-1.73 22 3" fill="#D7D8DA"/><path d="M855 576v2c-4.84 1.34-8.93 2.25-14 2v-2c4.23-1.92 9.6-4.2 14-2" fill="#E7E7E9"/><path d="M501 347c1.12 1.56 1.12 1.56 2 4-.88 3.75-.88 3.75-2 7l-4 1 1.44-4.88.81-2.74C500 349 500 349 501 347" fill="#282A2A"/><path d="M528 287h1c-.47 5.71-1.94 9.16-5 14l-3-1 1.81-3.12q2.76-4.86 5.19-9.88" fill="#EDEDEF"/><path d="m688 659 2 1-.5 2.19c.5 2.81.5 2.81 2.28 4.26q3.05 1.88 6.22 3.55l-2 2-8-4z" fill="#D1D2D4"/><path d="M489 439h3l2 12-2-2-2 1z" fill="#1F2021"/><path d="M797 463c1.89.25 1.89.25 4 1a14 14 0 0 1 1.75 4.06l.73 2.23.52 1.71h-2l-1 3a711 711 0 0 1-3.12-7.62C797 465 797 465 797 463" fill="#DFE1DE"/><path d="M904 604c-1.01 2.68-1.54 3.78-4.16 5.05l-2.46.7-2.48.73-1.9.52-2-2 5.38-2.5 3.02-1.41C902 604 902 604 904 604" fill="#D5D7D6"/><path d="m724 261 1 4-2.81 1.75c-2.79 1.97-4.38 3.43-6.19 6.25.08-3.23.37-5.33 2.62-7.73A100 100 0 0 1 724 261" fill="#1A1B1C"/><path d="m746 242 2 1c-.18 2.38-.7 3.7-2.4 5.38A178 178 0 0 1 741 252l-2-1v-2q2.97-2.53 6-5z" fill="#1F1F21"/><path d="M761 38c3 3 3 3 3.14 5.38l-.33 2.62-.29 2.62C763 51 763 51 761 54z" fill="#F1F5F1"/><path d="m868 466 3 1 1 5-4 1-3-5h3z" fill="#ECECEF"/><path d="M775 446v1l-15 1v-2c5.96-1.88 9.14-2.2 15 0" fill="#F0F0F2"/><path d="M709 690h1l1 8h2l-1 6h-5l1-3q.33-2.84.56-5.69l.26-3.01z" fill="#C2C5C2"/><path d="M757 29c2.56 2 2.56 2 5 5 .15 2.89-.37 5.13-1 8h-1q-.76-2.12-1.5-4.25l-.84-2.39C757 33 757 33 757 29" fill="#E7E9E8"/><path d="M761 649c2 1 2 1 3.12 4.06L765 656h-2l-1 6h-1l-.56-5.94-.32-3.34L760 650z" fill="#DCDDDD"/><path d="M896.38 437.69c3.7.32 5 .79 7.62 3.3-4.85 1.53-8.25.38-13-1 2-2 2-2 5.38-2.3" fill="#DCDDDD"/><path d="m506 335 2 2c-.44 3.17-1.77 6.06-3 9h-3c1.21-3.72 2.51-7.38 4-11" fill="#2F2F31"/><path d="M684 64a20 20 0 0 1-6 8h-3v-3c1.46-1.39 1.46-1.39 3.38-2.69l1.89-1.32C682 64 682 64 684 64" fill="#1C1D1C"/><path d="m762 655 3 1c-.46 3.47-.89 6.67-2 10h-2z" fill="#F3F6F2"/><path d="m494 648 1 2h2l-.99 1.7c-1.13 2.57-1.22 4.27-1.13 7.05l.05 2.42.07 1.83h-2q-.33-2.62-.62-5.25l-.36-2.95c-.02-2.93.45-4.35 1.98-6.8" fill="#222325"/><path d="m745 628 2 1-2 3 2 3c-1.81.69-1.81.69-4 1-1.75-1.44-1.75-1.44-3-3z" fill="#ECEDED"/><path d="m797 619 15 1v1q-2.62.58-5.25 1.12l-2.95.64c-3.03.26-4.28-.14-6.8-1.76z" fill="#DBDFE0"/><path d="M500 225c2.21 3.8 3.01 7.76 4 12-4.88-4.75-4.88-4.75-6-7 .94-2.62.94-2.62 2-5" fill="#CECECC"/><path d="M955 542c1 2 1 2 .44 4.16l-.88 2.46-.87 2.48-.69 1.9h-2c.46-3.47.89-6.67 2-10z" fill="#E5E7E8"/><path d="M444 532c2.61 2.61 2.7 4.38 3 8l-2 3-.94-3.31q-.95-3.37-2.06-6.69z" fill="#E9EBE9"/><path d="M492 43h2l-1 18h-1l-.56-8.44-.17-2.43q-.19-3.06-.27-6.13z" fill="#F3F1F5"/><path d="M867 575v1c-4.27 1.14-7.56 2-12 2v-2c4.46-1.81 7.31-2.12 12-1" fill="#D8D8DA"/><path d="M487 428h1v13h-2c-1.07-3.27-.89-5.43-.06-8.75l.59-2.42z" fill="#E6E8EA"/><path d="M616 676h1l1 13h-2l-1 2z" fill="#DBDCE2"/><path d="m802 526 1 4 2 1c-.51 2.17-1 4-2 6h-2z" fill="#DADADA"/><path d="M754 31c2.45.98 3.77 1.65 5.25 3.88C760 37 760 37 760 41h-2z" fill="#1A1C1B"/><path d="M697 671c3.36.6 5.38 1.85 8 4l-1 3-3.5-2.94-1.97-1.65L697 672z" fill="#E2E2E6"/><path d="M843 621h8l-1 3h-7z" fill="#F3F2F4"/><path d="m484 448 1 3-11-1c3.64-2.43 5.71-2.16 10-2" fill="#EBEEEE"/><path d="m754 388 3 1-1 7h-2z" fill="#F1F2EF"/><path d="M511 325h1c-.75 6.62-.75 6.62-3 10h-2a57 57 0 0 1 4-10" fill="#2D2D31"/><path d="m748 23-1 2h-8l-1-2c3.28-1.64 6.43-.52 10 0" fill="#F4F3F6"/><path d="M551 675h1c.19 2.38.19 2.38 0 5l-3 2-3-1q2.46-3.03 5-6" fill="#1E1C2B"/><path d="M632 651h5v9c-2-4-2-4-2-7h-3z" fill="#E8EBE7"/><path d="m911 599 1 3-8 4v-3z" fill="#DFDFE2"/><path d="M456 567c3 1 3 1 4 3q.06 3 0 6c-4-4.5-4-4.5-4-9" fill="#E8E9EA"/><path d="m901 550 1 3-7 7-2-2 2.31-1.75A28 28 0 0 0 901 550" fill="#E8E9EA"/><path d="m750 369 4 2v3h-2l-1 4z" fill="#DEE0DE"/><path d="M534 267h2v9h-2c-1.12-6.75-1.12-6.75 0-9" fill="#D3D3D3"/><path d="M565 58c3.65 1.25 4.78 1.67 7 5l-3 1-5-5z" fill="#E0DEDE"/><path d="M614 697c1 3 1 3 .06 5.19L613 704h-4a19 19 0 0 1 5-7" fill="#EDEDEE"/><path d="m491 664 1.88 2.38A39 39 0 0 0 497 671c-1.88.62-1.88.62-4 1-2-2-2-2-2.12-5.12z" fill="#E0E2E3"/><path d="m763 612 8 1-4 3-4-2z" fill="#DBDDDC"/><path d="M471 589c2.65 2.58 4.94 4.92 7 8-2.75-.38-3.82-.81-5.75-2.88C471 592 471 592 471 589" fill="#D3D6D3"/><path d="M911 537h1c.12 3.38.12 3.38 0 7l-2 2-3-1z" fill="#1A1B1E"/><path d="M911 444c5.75 1.62 5.75 1.62 8 5-3.82-.53-6.06-1.5-9-4z" fill="#E7E5E8"/><path d="m513 316 3 1-4 8h-1c.88-6.75.88-6.75 2-9" fill="#E0E2E2"/><path d="M759 224c2 3 2 3 1.62 5.19L760 231l-4 1c1.88-6.88 1.88-6.88 3-8" fill="#F0F4F0"/><path d="M547 676c1 3 1 3-.44 6.19L545 685l-2-1a37 37 0 0 1 4-8" fill="#D8D7E1"/><path d="m700 664 6 1-1 3-5-1z" fill="#202026"/><path d="m616 660 2 1-2 10h-1l-.06-4.94-.04-2.77c.1-2.29.1-2.29 1.1-3.29" fill="#DDDDDF"/><path d="m466 452 1 3-6 1-1-2c3.75-2 3.75-2 6-2" fill="#232326"/><path d="m467 451 10 1c-3.44 2.29-4.99 2.18-9 2z" fill="#212729"/><path d="M507 246c2.89.4 3.82.79 5.75 3.06L514 251c-2.38-.25-2.38-.25-5-1-1.31-2.06-1.31-2.06-2-4" fill="#D5D9D5"/><path d="m693 56 1 3c-1.75 1.56-1.75 1.56-4 3l-4-1z" fill="#202023"/><path d="M687 57c2.25.25 2.25.25 4 1-1.19 1.5-1.19 1.5-3 3-2.69.19-2.69.19-5 0 1.75-2.06 1.75-2.06 4-4" fill="#ECECEF"/><path d="m755 671-1 4h-5l-1-3c4.75-1 4.75-1 7-1" fill="#D9DCD9"/><path d="M449 547c1.95 2.92 2.45 4.63 3 8h-2c-2-3-2-3-1.62-5.69z" fill="#D8D9DA"/><path d="m889 479 6 2-1 3-5-2z" fill="#DFE0E2"/><path d="m802 472 3 1c.69 2.06.69 2.06 1 4l-3 2z" fill="#EFF2EF"/><path d="M497 351h2l-2 10h-1c-.12-7.75-.12-7.75 1-10" fill="#DBDEDD"/><path d="m724 265 3 2-6 4-1-3z" fill="#E7E9EA"/></svg>