<svg style="background:transparent" version="1.1" xmlns="http://www.w3.org/2000/svg" viewBox="0 0 1248 704"><path d="M280.1 241.36c6.53 1.7 10.59 5.46 15.32 10.1q4.89 4.74 9.83 9.42l2.2 2.08c21.67 20.36 21.67 20.36 32.1 20.48l3.8.08 3.97.04c15.23.2 15.23.2 22.68 2.44l2.44-.06c2.7.06 4.47.65 7 1.56 4.86 1.72 8.6 2.16 13.56.5l.84-2.2c1.52-3.66 3.98-5.98 6.79-8.67l1.63-1.6c11-10.68 11-10.68 14.89-12.58 2.37-1.22 2.88-2.52 3.85-4.95h2c1.63-2 1.63-2 3-4 4.64.1 7.17.7 10.57 3.94 6.73 7.45 10.07 14.03 10.43 24.06l.57 2.5c.58 3.35.46 6.6.37 10 .06 2.5.06 2.5.56 4.96 1.46 7.32.6 15.15-.47 22.48C448 324 448 324 450 327l-2 2v3c5.79 1.36 10.72.98 16-2a55 55 0 0 0 2-4q2.5-.58 5-1c1.99-.9 3.89-1.88 5.82-2.9 2.98-1.5 6.04-2.83 9.1-4.17 7.1-3.18 14.83-7.1 20.08-12.93l2 1a67 67 0 0 0 12-6 74 74 0 0 1 7.25-3.31 49 49 0 0 0 7.82-4.25A36 36 0 0 1 545 288q5.11-1.98 10.07-4.31 6.07-2.78 12.25-5.31c4.96-2.05 9.74-4.17 14.3-7A21 21 0 0 1 588 269q2.52-1.08 5-2.18a85 85 0 0 1 6.57-2.32 53 53 0 0 0 7.68-3.12c2.68-1.34 4.85-1.8 7.75-2.38l2.88-1.5c3.47-1.67 6.32-1.98 10.12-2.5q2.18-.68 4.32-1.44a81 81 0 0 1 12.42-3.1c2.26-.46 2.26-.46 5.2-1.46 3.8-1.24 7.63-1.87 11.58-2.53C664 246 664 246 667 245q2.4-.3 4.82-.5c3.77-.33 7.45-.86 11.18-1.5 15.24-2.3 31.7-4.07 46.85-.44 2.15.44 2.15.44 4.56.38 3.18.07 5.59 1.02 8.59 2.06 2.76.67 5.54 1.23 8.32 1.8 9.04 1.96 17.84 4.5 26.68 7.2l3.6.93a41 41 0 0 1 9.53 4.57A68 68 0 0 0 802 265q1.71 1.06 3.38 2.19c2.78 1.6 3.68 1.8 7.06 1.8a45 45 0 0 0 9.35-3.88c9.44-4.72 19.9-7.1 30.2-9.11l2.3-.55c3.75-.62 7.42-.6 11.2-.57l2.28-.02c3.89 0 7.44.2 11.23 1.14l4.04.9 4.46 1.04 2.27.5A65 65 0 0 1 901 262l2.75.8A64 64 0 0 1 928 279l3.38 3.3c11.6 11.65 20.16 25.79 24.62 41.7l.99 2.98c3.12 9.85 4.47 19.72 5 30.02l-1 1q-.29 2.97-.5 5.94c-.38 5.84-.38 5.84-1.5 8.06.05.34.05.34.2 2.06-.2 3-.8 4.52-2.06 7.19-2.6 5.5-3.7 10.96-4.63 16.94-.72 4.05-2.11 7.78-3.56 11.62a45 45 0 0 0-1.6 9.94C947 422 947 422 946 424.15c-1.25 3.58-1.28 6.9-1.26 10.64l-.01 2.23v18.47c.03 3.72.35 6.32 2.27 9.5l.45 2.45c.64 2.98 1.8 4.94 3.43 7.5 5.43 8.6 7.34 14.78 6.12 25.06-1.96 6-6.31 9.66-11.6 12.87-5.26 2.49-10.2 2.68-15.83 1.38-6.44-2.5-10.4-7.98-14.57-13.25l-2.5-3.1c-10.71-13.8-20.52-31.82-20.5-49.66 0-3.24 0-3.24-1-5.24l2-6q.5-2.37.94-4.75c.83-4.36 2.02-8.51 3.35-12.74a79 79 0 0 0 1.7-7.63 56 56 0 0 1 3.24-10.78 78 78 0 0 0 2.15-7.16c1.02-3.88 2.19-7.66 3.52-11.45a110 110 0 0 0 5.1-21.5q.28-1.13.55-2.33c1.19-6.98.3-12.43-2.11-18.97l-.81-2.24c-4.97-13.1-11.75-21.36-24.3-27.47-4.73-2-8.97-2.1-14.08-2.04h-2.11L865 308v3c-4.75 1-4.75 1-7 1q-2.55 2.44-5 5l-1 1q-3.5-.44-7-1l1 6h3c0 3 0 3-.5 4.88a16 16 0 0 0 .45 9.84 57 57 0 0 1 2.12 10.34c.87 6.66.87 6.66 1.46 9.27.53 2.98.6 5.78.6 8.8v17.45C853 386 853 386 852 387q-.03 3.06.07 6.13c.05 5.06-.54 9.02-2.07 13.87a71 71 0 0 0 0 4.13c0 3.8-.58 5.45-2 8.87q-.48 3.4-.75 6.82c-.24 2.14-.7 4.1-1.25 6.18-.53 3.38-1 6.58-1 10l-.93 3.19a50 50 0 0 0-1.63 8.12C842 458 842 458 841 460q-.26 2.37-.43 4.75a33 33 0 0 1-1.57 8.19c-1.23 3.79-1.47 7.4-1.75 11.38-.25 2.68-.25 2.68-.84 5.4C836 492 836 492 837 494c-.08 1.88-.08 1.88-.37 4.13l-.31 2.43L836 503l-.25 2.2a80 80 0 0 1-1.27 8.1c-.57 3.22-.57 6.24-.54 9.5l.09 10.13.04 6 .03 3.6c-.1 3.56-.54 6.95-1.1 10.47q-.23 2.66-.43 5.3a105 105 0 0 1-2.04 13.2c-.52 2.49-.93 4.99-1.34 7.5-1.05 5.97-2.72 11.74-4.42 17.54A93 93 0 0 0 822 610c-.71 2.22-.71 2.22-1.5 4.06A41 41 0 0 0 818 624a82 82 0 0 1-2.56 8.69c-1.44 4.2-1.44 4.2-1.44 5.3l3.2.7 12.1 2.7 5.4 1.2c28.32 6.3 28.32 6.3 37.3 13.4l1.94 1.45C875 659 875 659 875.19 661.3c-2.28 5.18-6.76 7.6-11.8 9.85-10.71 3.72-22.16 4.72-33.4 5.84l-2.4.25c-16.86 1.7-33.6 2.1-50.52 2.06h-4.16c-20.17-.01-40.26-.62-60.4-1.6-70.82-3.43-142.06-3.74-212.75 1.99l-11.45.88c-47.91 3.6-95.8 7.95-143.5 13.67l-3.16.38c-27.52 3.3-27.52 3.3-31.65 5.37-13.9 2.9-32.17 5.27-45-2a80 80 0 0 1-6.21-4.62c-1.8-1.38-1.8-1.38-5.16-3-2.85-1.5-3.6-2.4-4.63-5.38l1-1-.12-2.81c-.1-8 2.2-15.9 7.12-22.2q.63-1.25 1.25-2.55c3.1-4.31 7.78-6.78 12.75-8.44q3.15.08 6.3.22c12.17.47 12.17.47 15.89-2.72 1.47-1.68 1.47-1.68 2.8-3.5l3.2-3.62 1.7-2.03c3.18-3.54 6.6-6.84 10.03-10.14 2.64-2.58 4.56-4.84 6.08-8.21l2-1a70 70 0 0 0 2.63-3.06L324 611l-3 1a17 17 0 0 1-3-7c4.2-2.25 7.2-3 12-3 1.57-1.43 1.57-1.43 3-3.31 2.14-2.66 4.05-4.9 7-6.7h2l.28-2.2c.84-3.26 2.16-5.01 4.29-7.6l1.94-2.4 1.49-1.8h-6l-.06 1.82c-.94 2.19-.94 2.19-4.2 3.63l-1.9.72c-4.03 1.84-6.56 5.5-9.34 8.84-4.45 5.34-9.11 10.04-15.5 13l-2-1 1 3c-5.62 3.88-5.62 3.88-9 5l-.93 1.94C301 617 301 617 299.19 617.88c-2.68 1.38-4 3.34-5.83 5.68-2.05 2.18-4.7 3.1-7.36 4.44a125 125 0 0 0-5 6 261 261 0 0 1-10.56 10.19l-2.81 2.6c-2.63 2.2-2.63 2.2-4.72 3.25-2.55 1.28-4 3.09-5.91 5.2-8.78 9-22.6 14.72-35.18 15.07A33.7 33.7 0 0 1 199 661c-5.42-6.42-6.3-12.56-5.75-20.75A22 22 0 0 1 197 632l1.44-2.5A50 50 0 0 1 204 622h3l.63-1.87c1.97-3.05 3.9-3.2 7.37-4.13a296 296 0 0 1 7.25-.7c8.18-1 14.28-3.88 19.43-10.44L243 603q1.48-1.53 3-3a144 144 0 0 0 10.38-11.31l2.9-3.45 1.4-1.68c6.94-8.22 6.94-8.22 10.39-11.56 2.43-2.51 4.43-5.25 6.5-8.06 1.75-2.36 3.6-4.64 5.43-6.94l2.75-3.7q3.55-4.7 7.25-9.3c8.83-10.98 8.83-10.98 11.75-16l1.25-2h2l.34-1.77c.74-2.5 1.74-3.9 3.35-5.92 5.37-6.93 9.97-14.34 14.65-21.75q2.06-3.16 4.29-6.18c3.72-5.1 6.58-10.73 9.37-16.38q-.91 0-1.87.04a97 97 0 0 1-15.22-.92C321 473 321 473 318 474l-2-3q-3-.56-6-1c-2.68-1.13-2.68-1.13-5.43-2.56l-3.14-1.63L298 464l-3.8-1.93c-6.6-3.38-12.68-6.8-18.36-11.62-1.84-1.45-1.84-1.45-4.01-2.46-1.83-1-1.83-1-2.83-4-1.68-1.58-3.48-2.96-5.3-4.4-1.9-1.78-2.6-3.24-3.7-5.6a453 453 0 0 0-4.43-6.93q-1.77-2.7-3.51-5.43a138 138 0 0 0-2.76-4.06c-1.75-3.47-2.14-6.94-2.55-10.76l-.27-2.2c-.61-5.33-.61-5.33.52-7.61q.2-2.26.29-4.53l.1-2.71.22-5.66.1-2.7.1-2.48C248 377 248 377 249 376q.56-3.8 1-7.62c1.79-15.17 1.79-15.17 3-16.38q.3-2.65.5-5.31c.26-3.36.66-6.44 1.5-9.7v-2.55c0-2.44 0-2.44 1-5.44v-2.44c0-2.44.35-4.23 1-6.56a45 45 0 0 0 1.07-11.25l-.03-3.6-.04-3.71-.06-7.32-.03-3.27c.08-2.5.42-4.47 1.09-6.85q.07-2.25 0-4.5c-.08-3.07.24-5.54 1-8.5l-.06-3.37c.07-3.76.74-6.13 2.06-9.63l1.44-4.5c3.19-9.5 5.89-13.98 16.67-12.14M326 606l2 2v-2z" fill="#111412"/><path d="M280.1 241.36c6.53 1.7 10.59 5.46 15.32 10.1q4.89 4.74 9.83 9.42l2.2 2.08c21.67 20.36 21.67 20.36 32.1 20.48l3.8.08 3.97.04c15.23.2 15.23.2 22.68 2.44l2.44-.06c2.7.06 4.47.65 7 1.56 4.86 1.72 8.6 2.16 13.56.5l.84-2.2c1.52-3.66 3.98-5.98 6.79-8.67l1.63-1.6c11-10.68 11-10.68 14.89-12.58 2.37-1.22 2.88-2.52 3.85-4.95h2c1.63-2 1.63-2 3-4 4.64.1 7.17.7 10.57 3.94 6.73 7.45 10.07 14.03 10.43 24.06l.57 2.5c.58 3.35.46 6.6.37 10 .06 2.5.06 2.5.56 4.96 1.46 7.32.6 15.15-.47 22.48C448 324 448 324 450 327l-2 2v3c5.79 1.36 10.72.98 16-2a55 55 0 0 0 2-4q2.5-.58 5-1c1.99-.9 3.89-1.88 5.82-2.9 2.98-1.5 6.04-2.83 9.1-4.17 7.1-3.18 14.83-7.1 20.08-12.93l2 1a67 67 0 0 0 12-6 74 74 0 0 1 7.25-3.31 49 49 0 0 0 7.82-4.25A36 36 0 0 1 545 288q5.11-1.98 10.07-4.31 6.07-2.78 12.25-5.31c4.96-2.05 9.74-4.17 14.3-7A21 21 0 0 1 588 269q2.52-1.08 5-2.18a85 85 0 0 1 6.57-2.32 53 53 0 0 0 7.68-3.12c2.68-1.34 4.85-1.8 7.75-2.38l2.88-1.5c3.47-1.67 6.32-1.98 10.12-2.5q2.18-.68 4.32-1.44a81 81 0 0 1 12.42-3.1c2.26-.46 2.26-.46 5.2-1.46 3.8-1.24 7.63-1.87 11.58-2.53C664 246 664 246 667 245q2.4-.3 4.82-.5c3.77-.33 7.45-.86 11.18-1.5 15.24-2.3 31.7-4.07 46.85-.44 2.15.44 2.15.44 4.56.38 3.18.07 5.59 1.02 8.59 2.06 2.76.67 5.54 1.23 8.32 1.8 9.04 1.96 17.84 4.5 26.68 7.2l3.6.93a41 41 0 0 1 9.53 4.57A68 68 0 0 0 802 265q1.71 1.06 3.38 2.19c2.78 1.6 3.68 1.8 7.06 1.8a45 45 0 0 0 9.35-3.88c9.44-4.72 19.9-7.1 30.2-9.11l2.3-.55c3.75-.62 7.42-.6 11.2-.57l2.28-.02c3.89 0 7.44.2 11.23 1.14l4.04.9 4.46 1.04 2.27.5A65 65 0 0 1 901 262l2.75.8A64 64 0 0 1 928 279l3.38 3.3c11.6 11.65 20.16 25.79 24.62 41.7l.99 2.98c3.12 9.85 4.47 19.72 5 30.02l-1 1q-.29 2.97-.5 5.94c-.38 5.84-.38 5.84-1.5 8.06.05.34.05.34.2 2.06-.2 3-.8 4.52-2.06 7.19-2.6 5.5-3.7 10.96-4.63 16.94-.72 4.05-2.11 7.78-3.56 11.62a45 45 0 0 0-1.6 9.94C947 422 947 422 946 424.15c-1.25 3.58-1.28 6.9-1.26 10.64l-.01 2.23v18.47c.03 3.72.35 6.32 2.27 9.5l.45 2.45c.64 2.98 1.8 4.94 3.43 7.5 5.43 8.6 7.34 14.78 6.12 25.06-1.96 6-6.31 9.66-11.6 12.87-5.26 2.49-10.2 2.68-15.83 1.38-6.44-2.5-10.4-7.98-14.57-13.25l-2.5-3.1c-10.71-13.8-20.52-31.82-20.5-49.66 0-3.24 0-3.24-1-5.24l2-6q.5-2.37.94-4.75c.83-4.36 2.02-8.51 3.35-12.74a79 79 0 0 0 1.7-7.63 56 56 0 0 1 3.24-10.78 78 78 0 0 0 2.15-7.16c1.02-3.88 2.19-7.66 3.52-11.45a110 110 0 0 0 5.1-21.5q.28-1.13.55-2.33c1.19-6.98.3-12.43-2.11-18.97l-.81-2.24c-4.97-13.1-11.75-21.36-24.3-27.47-4.73-2-8.97-2.1-14.08-2.04h-2.11L865 308v3c-4.75 1-4.75 1-7 1q-2.55 2.44-5 5l-1 1q-3.5-.44-7-1l1 6h3c0 3 0 3-.5 4.88a16 16 0 0 0 .45 9.84 57 57 0 0 1 2.12 10.34c.87 6.66.87 6.66 1.46 9.27.53 2.98.6 5.78.6 8.8v17.45C853 386 853 386 852 387q-.03 3.06.07 6.13c.05 5.06-.54 9.02-2.07 13.87a71 71 0 0 0 0 4.13c0 3.8-.58 5.45-2 8.87q-.48 3.4-.75 6.82c-.24 2.14-.7 4.1-1.25 6.18-.53 3.38-1 6.58-1 10l-.93 3.19a50 50 0 0 0-1.63 8.12C842 458 842 458 841 460q-.26 2.37-.43 4.75a33 33 0 0 1-1.57 8.19c-1.23 3.79-1.47 7.4-1.75 11.38-.25 2.68-.25 2.68-.84 5.4C836 492 836 492 837 494c-.08 1.88-.08 1.88-.37 4.13l-.31 2.43L836 503l-.25 2.2a80 80 0 0 1-1.27 8.1c-.57 3.22-.57 6.24-.54 9.5l.09 10.13.04 6 .03 3.6c-.1 3.56-.54 6.95-1.1 10.47q-.23 2.66-.43 5.3a105 105 0 0 1-2.04 13.2c-.52 2.49-.93 4.99-1.34 7.5-1.05 5.97-2.72 11.74-4.42 17.54A93 93 0 0 0 822 610c-.71 2.22-.71 2.22-1.5 4.06A41 41 0 0 0 818 624a82 82 0 0 1-2.56 8.69c-1.44 4.2-1.44 4.2-1.44 5.3l3.2.7 12.1 2.7 5.4 1.2c28.32 6.3 28.32 6.3 37.3 13.4l1.94 1.45C875 659 875 659 875.19 661.3c-2.28 5.18-6.76 7.6-11.8 9.85-10.71 3.72-22.16 4.72-33.4 5.84l-2.4.25c-16.86 1.7-33.6 2.1-50.52 2.06h-4.16c-20.17-.01-40.26-.62-60.4-1.6-70.82-3.43-142.06-3.74-212.75 1.99l-11.45.88c-47.91 3.6-95.8 7.95-143.5 13.67l-3.16.38c-27.52 3.3-27.52 3.3-31.65 5.37-13.9 2.9-32.17 5.27-45-2a80 80 0 0 1-6.21-4.62c-1.8-1.38-1.8-1.38-5.16-3-2.85-1.5-3.6-2.4-4.63-5.38l1-1-.12-2.81c-.1-8 2.2-15.9 7.12-22.2q.63-1.25 1.25-2.55c3.1-4.31 7.78-6.78 12.75-8.44q3.15.08 6.3.22c12.17.47 12.17.47 15.89-2.72 1.47-1.68 1.47-1.68 2.8-3.5l3.2-3.62 1.7-2.03c3.18-3.54 6.6-6.84 10.03-10.14 2.64-2.58 4.56-4.84 6.08-8.21l2-1a70 70 0 0 0 2.63-3.06L324 611l-3 1a17 17 0 0 1-3-7c4.2-2.25 7.2-3 12-3 1.57-1.43 1.57-1.43 3-3.31 2.14-2.66 4.05-4.9 7-6.7h2l.28-2.2c.84-3.26 2.16-5.01 4.29-7.6l1.94-2.4 1.49-1.8h-6l-.06 1.82c-.94 2.19-.94 2.19-4.2 3.63l-1.9.72c-4.03 1.84-6.56 5.5-9.34 8.84-4.45 5.34-9.11 10.04-15.5 13l-2-1 1 3c-5.62 3.88-5.62 3.88-9 5l-.93 1.94C301 617 301 617 299.19 617.88c-2.68 1.38-4 3.34-5.83 5.68-2.05 2.18-4.7 3.1-7.36 4.44a125 125 0 0 0-5 6 261 261 0 0 1-10.56 10.19l-2.81 2.6c-2.63 2.2-2.63 2.2-4.72 3.25-2.55 1.28-4 3.09-5.91 5.2-8.78 9-22.6 14.72-35.18 15.07A33.7 33.7 0 0 1 199 661c-5.42-6.42-6.3-12.56-5.75-20.75A22 22 0 0 1 197 632l1.44-2.5A50 50 0 0 1 204 622h3l.63-1.87c1.97-3.05 3.9-3.2 7.37-4.13a296 296 0 0 1 7.25-.7c8.18-1 14.28-3.88 19.43-10.44L243 603q1.48-1.53 3-3a144 144 0 0 0 10.38-11.31l2.9-3.45 1.4-1.68c6.94-8.22 6.94-8.22 10.39-11.56 2.43-2.51 4.43-5.25 6.5-8.06 1.75-2.36 3.6-4.64 5.43-6.94l2.75-3.7q3.55-4.7 7.25-9.3c8.83-10.98 8.83-10.98 11.75-16l1.25-2h2l.34-1.77c.74-2.5 1.74-3.9 3.35-5.92 5.37-6.93 9.97-14.34 14.65-21.75q2.06-3.16 4.29-6.18c3.72-5.1 6.58-10.73 9.37-16.38q-.91 0-1.87.04a97 97 0 0 1-15.22-.92C321 473 321 473 318 474l-2-3q-3-.56-6-1c-2.68-1.13-2.68-1.13-5.43-2.56l-3.14-1.63L298 464l-3.8-1.93c-6.6-3.38-12.68-6.8-18.36-11.62-1.84-1.45-1.84-1.45-4.01-2.46-1.83-1-1.83-1-2.83-4-1.68-1.58-3.48-2.96-5.3-4.4-1.9-1.78-2.6-3.24-3.7-5.6a453 453 0 0 0-4.43-6.93q-1.77-2.7-3.51-5.43a138 138 0 0 0-2.76-4.06c-1.75-3.47-2.14-6.94-2.55-10.76l-.27-2.2c-.61-5.33-.61-5.33.52-7.61q.2-2.26.29-4.53l.1-2.71.22-5.66.1-2.7.1-2.48C248 377 248 377 249 376q.56-3.8 1-7.62c1.79-15.17 1.79-15.17 3-16.38q.3-2.65.5-5.31c.26-3.36.66-6.44 1.5-9.7v-2.55c0-2.44 0-2.44 1-5.44v-2.44c0-2.44.35-4.23 1-6.56a45 45 0 0 0 1.07-11.25l-.03-3.6-.04-3.71-.06-7.32-.03-3.27c.08-2.5.42-4.47 1.09-6.85q.07-2.25 0-4.5c-.08-3.07.24-5.54 1-8.5l-.06-3.37c.07-3.76.74-6.13 2.06-9.63l1.44-4.5c3.19-9.5 5.89-13.98 16.67-12.14M271 243c-4.3 9.4-7.82 18-8.5 28.43l-.24 3.8-.26 4.08-.26 4.2q-.78 12.67-1.24 25.37c-.62 16.67-3.1 32.82-6.28 49.18-2.7 13.89-4.4 27.35-4.53 41.5l-.05 3.39c0 14.52 8.32 25.19 17.36 36.05l1.49 1.84a59 59 0 0 0 13.95 12.22l2.37 1.56c7.4 4.7 14.97 8.36 23.19 11.38l3.27 1.24c11.2 3.72 23.02 4.05 34.73 4.76l-1.41 1.98a307 307 0 0 0-9.1 13.52 273 273 0 0 1-8.7 12.94 355 355 0 0 0-5.35 7.94 680 680 0 0 1-29.9 41.66q-2.26 2.88-4.48 5.78a271 271 0 0 1-14.9 17.77 181 181 0 0 0-6.41 7.66 232 232 0 0 1-13.58 15.16C248 600.79 248 600.79 248 603h-2a139 139 0 0 0-5 5l-3.56 3.69-1.7 1.76c-4.88 4.34-9.92 3.9-16.23 4.1-7.28.93-12.61 5.22-17.51 10.45-5.03 7.24-6.81 14.23-6 23 2.07 6.44 7.18 10.7 12.85 14.1 8.99 4.05 19.33 2.52 28.25-.85 12.58-5.43 22.28-13.38 31.8-23.13 2.56-2.57 5.25-4.94 8-7.31q3.59-3.13 7.1-6.31a845 845 0 0 1 10.97-9.71 536 536 0 0 0 6.66-5.98c4.63-4.18 9.37-8.24 14.12-12.3q5.6-4.77 11-9.76c3.36-3.1 6.78-6 10.38-8.81a94 94 0 0 0 9.3-8.38 99 99 0 0 1 9.57-8.62A252 252 0 0 0 389 532l-1.1 1.47-7.83 10.46a581 581 0 0 1-15.05 19.57 791 791 0 0 0-14.66 18.95 789 789 0 0 1-24.8 31.32c-8.01 9.74-16.74 18.65-25.76 27.46q-2.27 2.26-4.5 4.58c-3.83 3.65-6.38 5.37-11.73 5.34q-3.77-.13-7.53-.35c-5.57-.18-8.72.3-13.04 4.2a69 69 0 0 0-4.31 6.63l-1.05 1.77c-4.07 6.92-4.71 12.53-3.64 20.6 1.78 3.4 4.03 5.6 7 8l1.85 1.52c5.4 4.12 10.45 5.94 17.15 6.48l2.83.3c19.72 1.17 38.47-8.84 52.87-21.45 3.08-2.7 6.29-5.2 9.55-7.66 7.46-5.65 14.64-11.63 21.84-17.6q3.78-3.13 7.6-6.21c4.7-3.85 9.3-7.82 13.9-11.8 4.09-3.51 8.28-6.85 12.54-10.14 5.08-3.93 9.86-8.07 14.55-12.46q4.72-4.39 9.76-8.42c5.84-4.7 11.29-9.77 16.75-14.9q1.96-1.8 3.96-3.53c5.09-4.47 9.85-9.14 14.5-14.06l5.36-5.6 3.6-3.85c8.06-8.71 13.13-12.98 25.39-13.62 2.6-.63 5.1-1.42 7.64-2.24q3.5-1.1 7.06-2.05c23.93-6.52 46.65-15.68 69.3-25.71l1.84-.81q19.83-8.8 39.54-17.88 11.94-5.5 24-10.75l2.79-1.21q8.86-3.83 17.83-7.35l.44 2.27c6.32 30.45 23 61.4 45.56 82.73 5 5 5 5 6.58 6.6 3 3.06 6.05 5.99 9.3 8.78 9.33 8.12 17.82 16.3 21.12 28.62.2 3.65.2 3.65.13 7.38l-.06 3.77L748 624l-2.37.3c-8.71 1.24-14.42 2.59-20 9.76-4.1 5.7-4.25 11.08-3.63 17.94.7 3.04 1.72 4.87 4 7 3.87 2.32 7.9 4.15 12 6a156 156 0 0 1 9.69 5.69c9.12 5.17 25.38 3.36 35.19 1.12 8.64-2.68 15-7.35 20.12-14.81 5.1-10.14 8.35-20.9 11.5-31.75l.72-2.45a557 557 0 0 0 8.86-33.32q1.04-4.72 1.92-9.48l.49-2.45c3.1-16.03 4.23-31.68 4.58-48 .52-22.87 2.44-45.2 6.8-67.67l1.97-10.5c1.68-9.05 3.1-18.15 4.52-27.24 1.56-10 1.56-10 2.72-14.83 6.23-27.21 3.52-60.51-5.1-86.78-1.3-3.96-2.36-7.3-1.98-11.53l3.82-.81a60 60 0 0 0 7.46-2c6.56-2.23 12.9-2.54 19.79-2.63l2.79-.06c10.74.03 19.48 4.05 27.14 11.5 6.09 6.97 9.82 14.37 13 23l1.12 2.43c4.39 12.76-.63 30.39-5.12 42.57a342 342 0 0 0-8 26l-.6 2.29-2.02 7.9-.66 2.56c-4.1 16.2-5.46 34.04 2.28 49.25l1.98 4.17c2.9 6.07 5.63 11.67 10.02 16.83l3.44 4.44a305 305 0 0 1 4.88 6.37c3.54 4.69 7.27 6.69 13.08 7.54 6.39.38 10.79-1.1 15.6-5.35 1.94-2.7 1.94-2.7 3-5l1-2c1.24-12.82-3.8-21.88-9.51-32.9-9.35-19.48-.9-48.68 4.5-68.1l1.23-4.65q.91-3.51 1.88-7.02 1.6-5.96 3.09-11.95.26-1 .5-2.02.67-2.67 1.3-5.36l.6-2.35c3.8-24.71-4.38-49.9-17.6-70.65a99 99 0 0 0-6.1-7c-1.9-2-1.9-2-3.83-4.51-10.9-13.2-33.07-22.22-49.7-24.16-21.02-1.74-41.64-.74-60.64 9.4-4.14 2.14-7 3.06-11.72 2.27a59 59 0 0 1-7.62-4c-46.74-26.02-102.4-28.18-153.21-14.58q-2.9.77-5.83 1.47c-29.84 7.42-57.91 19.83-85.8 32.5q-5.02 2.28-10.05 4.54a509 509 0 0 0-31.81 15.59c-7.35 3.93-14.84 7.6-22.31 11.3q-8.25 4.08-16.42 8.24C454.34 336.54 454.34 336.54 445 338l.02-1.96q.1-10.17.15-20.34 0-3.8.06-7.57c.36-35.61.36-35.61-10.73-49.2-2.5-1.93-2.5-1.93-4.88-1.71-14.47 4.34-27.84 21.35-37.2 32.68-2.42 2.1-2.42 2.1-5.37 2.5a63 63 0 0 1-8.67-1.77 103 103 0 0 0-28.12-3.8c-10.84-.05-19.01-.11-27.26-7.83l-5.62-4.37a164 164 0 0 1-12.25-11.5 135 135 0 0 0-8.23-7.44 70 70 0 0 1-5.27-5.38 25.7 25.7 0 0 0-15.82-7.55c-1.93-.01-1.93-.01-4.81.24m55 363 2 2v-2z" fill="#EEEFEE"/><path d="M271 243c6.39-.56 11.5.63 17 4 4.14 3.53 7.82 7.54 11.55 11.5 2.36 2.45 4.92 4.64 7.51 6.84a125 125 0 0 1 4.19 3.76c18.18 16.96 18.18 16.96 27.86 17.08 34.64.69 34.64.69 44.89 5.82 2.65.55 2.65.55 6 0 2.87-2.27 5.17-4.99 7.56-7.75l4.26-4.69 2.13-2.35c15.66-16.88 15.66-16.88 24.05-20.21 3.06.17 4.55.63 6.91 2.6 9.44 11.16 10.42 23.11 10.29 37.29l-.01 3.58q-.02 5.61-.07 11.22l-.02 7.65q-.03 9.33-.1 18.66l2 1h-2c-.8 6.27-1.11 12.32-1.03 18.64l.04 5.43q.03 4.23.09 8.45l.06 8.24.04 2.54c.02 4.68-.5 8.28-2.2 12.7q-.31 3.34-.44 6.69c-.68 11.02-4.12 20.26-8.56 30.31h-2l-.31 1.62c-.87 3.01-2.25 5.62-3.69 8.38h-2l-1 3h-2l-.19 1.69c-2.19 6.23-8.78 9.36-14.25 12.37l-2.4 1.33A77 77 0 0 1 384 468l-2.18.5c-7.96 1.75-15.94 2.18-24.07 2.62l-3.24.22-2.92.17c-2.92.55-4.38 1.55-6.59 3.49l1-3-1.95-.1c-13.38-.77-25.55-1.98-38.05-6.9l-1.95-.72c-22.61-8.42-37.38-23.2-50.05-43.28l-1.73-2.7c-7.22-13.05-2.29-35.46.25-49.57.95-5.42 1.73-10.86 2.54-16.29a511 511 0 0 1 3.47-20.59 180 180 0 0 0 1.97-20.44l.12-2.4.38-7.51.88-17.11.24-4.8.36-6.93.1-2.08c.55-10.04 3.97-18.68 8.42-27.58" fill="#111312"/><path d="M280.1 241.36c6.53 1.7 10.59 5.46 15.32 10.1q4.89 4.74 9.83 9.42l2.2 2.08c21.67 20.36 21.67 20.36 32.1 20.48l3.8.08 3.97.04c15.23.2 15.23.2 22.68 2.44l2.44-.06c2.7.06 4.47.65 7 1.56 4.86 1.72 8.6 2.16 13.56.5l.84-2.2c1.52-3.66 3.98-5.98 6.79-8.67l1.63-1.6c11-10.68 11-10.68 14.89-12.58 2.37-1.22 2.88-2.52 3.85-4.95h2c1.63-2 1.63-2 3-4 4.64.1 7.17.7 10.57 3.94 6.73 7.45 10.07 14.03 10.43 24.06l.57 2.5c.58 3.35.46 6.6.37 10 .06 2.5.06 2.5.56 4.96 1.46 7.32.6 15.15-.47 22.48C448 324 448 324 450 327l-2 2v3c5.79 1.36 10.72.98 16-2a55 55 0 0 0 2-4q2.5-.58 5-1c1.99-.9 3.89-1.88 5.82-2.9 2.98-1.5 6.04-2.83 9.1-4.17 7.1-3.18 14.83-7.1 20.08-12.93l2 1a67 67 0 0 0 12-6 74 74 0 0 1 7.25-3.31 49 49 0 0 0 7.82-4.25A36 36 0 0 1 545 288q5.11-1.98 10.07-4.31 6.07-2.78 12.25-5.31c4.96-2.05 9.74-4.17 14.3-7A21 21 0 0 1 588 269q2.52-1.08 5-2.18a85 85 0 0 1 6.57-2.32 53 53 0 0 0 7.68-3.12c2.68-1.34 4.85-1.8 7.75-2.38l2.88-1.5c3.47-1.67 6.32-1.98 10.12-2.5q2.18-.68 4.32-1.44a81 81 0 0 1 12.42-3.1c2.26-.46 2.26-.46 5.2-1.46 3.8-1.24 7.63-1.87 11.58-2.53C664 246 664 246 667 245q2.4-.3 4.82-.5c3.77-.33 7.45-.86 11.18-1.5 15.24-2.3 31.7-4.07 46.85-.44 2.15.44 2.15.44 4.56.38 3.18.07 5.59 1.02 8.59 2.06 2.76.67 5.54 1.23 8.32 1.8 9.04 1.96 17.84 4.5 26.68 7.2l3.6.93a41 41 0 0 1 9.53 4.57A68 68 0 0 0 802 265q1.71 1.06 3.38 2.19c2.78 1.6 3.68 1.8 7.06 1.8a45 45 0 0 0 9.35-3.88c9.44-4.72 19.9-7.1 30.2-9.11l2.3-.55c3.75-.62 7.42-.6 11.2-.57l2.28-.02c3.89 0 7.44.2 11.23 1.14l4.04.9 4.46 1.04 2.27.5A65 65 0 0 1 901 262l2.75.8A64 64 0 0 1 928 279l3.38 3.3c11.6 11.65 20.16 25.79 24.62 41.7l.99 2.98c3.12 9.85 4.47 19.72 5 30.02l-1 1q-.29 2.97-.5 5.94c-.38 5.84-.38 5.84-1.5 8.06.05.34.05.34.2 2.06-.2 3-.8 4.52-2.06 7.19-2.6 5.5-3.7 10.96-4.63 16.94-.72 4.05-2.11 7.78-3.56 11.62a45 45 0 0 0-1.6 9.94C947 422 947 422 946 424.15c-1.25 3.58-1.28 6.9-1.26 10.64l-.01 2.23v18.47c.03 3.72.35 6.32 2.27 9.5l.45 2.45c.64 2.98 1.8 4.94 3.43 7.5 5.43 8.6 7.34 14.78 6.12 25.06-1.96 6-6.31 9.66-11.6 12.87-5.26 2.49-10.2 2.68-15.83 1.38-6.44-2.5-10.4-7.98-14.57-13.25l-2.5-3.1c-10.71-13.8-20.52-31.82-20.5-49.66 0-3.24 0-3.24-1-5.24l2-6q.5-2.37.94-4.75c.83-4.36 2.02-8.51 3.35-12.74a79 79 0 0 0 1.7-7.63 56 56 0 0 1 3.24-10.78 78 78 0 0 0 2.15-7.16c1.02-3.88 2.19-7.66 3.52-11.45a110 110 0 0 0 5.1-21.5q.28-1.13.55-2.33c1.19-6.98.3-12.43-2.11-18.97l-.81-2.24c-4.97-13.1-11.75-21.36-24.3-27.47-4.73-2-8.97-2.1-14.08-2.04h-2.11L865 308v3c-4.75 1-4.75 1-7 1q-2.55 2.44-5 5l-1 1q-3.5-.44-7-1l1 6h3c0 3 0 3-.5 4.88a16 16 0 0 0 .45 9.84 57 57 0 0 1 2.12 10.34c.87 6.66.87 6.66 1.46 9.27.53 2.98.6 5.78.6 8.8v17.45C853 386 853 386 852 387q-.03 3.06.07 6.13c.05 5.06-.54 9.02-2.07 13.87a71 71 0 0 0 0 4.13c0 3.8-.58 5.45-2 8.87q-.48 3.4-.75 6.82c-.24 2.14-.7 4.1-1.25 6.18-.53 3.38-1 6.58-1 10l-.93 3.19a50 50 0 0 0-1.63 8.12C842 458 842 458 841 460q-.26 2.37-.43 4.75a33 33 0 0 1-1.57 8.19c-1.23 3.79-1.47 7.4-1.75 11.38-.25 2.68-.25 2.68-.84 5.4C836 492 836 492 837 494c-.08 1.88-.08 1.88-.37 4.13l-.31 2.43L836 503l-.25 2.2a80 80 0 0 1-1.27 8.1c-.57 3.22-.57 6.24-.54 9.5l.09 10.13.04 6 .03 3.6c-.1 3.56-.54 6.95-1.1 10.47q-.23 2.66-.43 5.3a105 105 0 0 1-2.04 13.2c-.52 2.49-.93 4.99-1.34 7.5-1.05 5.97-2.72 11.74-4.42 17.54A93 93 0 0 0 822 610c-.71 2.22-.71 2.22-1.5 4.06A41 41 0 0 0 818 624a82 82 0 0 1-2.56 8.69c-1.44 4.2-1.44 4.2-1.44 5.3l3.2.7 12.1 2.7 5.4 1.2c28.32 6.3 28.32 6.3 37.3 13.4l1.94 1.45C875 659 875 659 875.19 661.3c-2.28 5.18-6.76 7.6-11.8 9.85-10.71 3.72-22.16 4.72-33.4 5.84l-2.4.25c-16.86 1.7-33.6 2.1-50.52 2.06h-4.16c-20.17-.01-40.26-.62-60.4-1.6-70.82-3.43-142.06-3.74-212.75 1.99l-11.45.88c-47.91 3.6-95.8 7.95-143.5 13.67l-3.16.38c-27.52 3.3-27.52 3.3-31.65 5.37-13.9 2.9-32.17 5.27-45-2a80 80 0 0 1-6.21-4.62c-1.8-1.38-1.8-1.38-5.16-3-2.85-1.5-3.6-2.4-4.63-5.38l1-1-.12-2.81c-.1-8 2.2-15.9 7.12-22.2q.63-1.25 1.25-2.55c3.1-4.31 7.78-6.78 12.75-8.44q3.15.08 6.3.22c12.17.47 12.17.47 15.89-2.72 1.47-1.68 1.47-1.68 2.8-3.5l3.2-3.62 1.7-2.03c3.18-3.54 6.6-6.84 10.03-10.14 2.64-2.58 4.56-4.84 6.08-8.21l2-1a70 70 0 0 0 2.63-3.06L324 611l-3 1a17 17 0 0 1-3-7c4.2-2.25 7.2-3 12-3 1.57-1.43 1.57-1.43 3-3.31 2.14-2.66 4.05-4.9 7-6.7h2l.28-2.2c.84-3.26 2.16-5.01 4.29-7.6l1.94-2.4 1.49-1.8h-6l-.06 1.82c-.94 2.19-.94 2.19-4.2 3.63l-1.9.72c-4.03 1.84-6.56 5.5-9.34 8.84-4.45 5.34-9.11 10.04-15.5 13l-2-1 1 3c-5.62 3.88-5.62 3.88-9 5l-.93 1.94C301 617 301 617 299.19 617.88c-2.68 1.38-4 3.34-5.83 5.68-2.05 2.18-4.7 3.1-7.36 4.44a125 125 0 0 0-5 6 261 261 0 0 1-10.56 10.19l-2.81 2.6c-2.63 2.2-2.63 2.2-4.72 3.25-2.55 1.28-4 3.09-5.91 5.2-8.78 9-22.6 14.72-35.18 15.07A33.7 33.7 0 0 1 199 661c-5.42-6.42-6.3-12.56-5.75-20.75A22 22 0 0 1 197 632l1.44-2.5A50 50 0 0 1 204 622h3l.63-1.87c1.97-3.05 3.9-3.2 7.37-4.13a296 296 0 0 1 7.25-.7c8.18-1 14.28-3.88 19.43-10.44L243 603q1.48-1.53 3-3a144 144 0 0 0 10.38-11.31l2.9-3.45 1.4-1.68c6.94-8.22 6.94-8.22 10.39-11.56 2.43-2.51 4.43-5.25 6.5-8.06 1.75-2.36 3.6-4.64 5.43-6.94l2.75-3.7q3.55-4.7 7.25-9.3c8.83-10.98 8.83-10.98 11.75-16l1.25-2h2l.34-1.77c.74-2.5 1.74-3.9 3.35-5.92 5.37-6.93 9.97-14.34 14.65-21.75q2.06-3.16 4.29-6.18c3.72-5.1 6.58-10.73 9.37-16.38q-.91 0-1.87.04a97 97 0 0 1-15.22-.92C321 473 321 473 318 474l-2-3q-3-.56-6-1c-2.68-1.13-2.68-1.13-5.43-2.56l-3.14-1.63L298 464l-3.8-1.93c-6.6-3.38-12.68-6.8-18.36-11.62-1.84-1.45-1.84-1.45-4.01-2.46-1.83-1-1.83-1-2.83-4-1.68-1.58-3.48-2.96-5.3-4.4-1.9-1.78-2.6-3.24-3.7-5.6a453 453 0 0 0-4.43-6.93q-1.77-2.7-3.51-5.43a138 138 0 0 0-2.76-4.06c-1.75-3.47-2.14-6.94-2.55-10.76l-.27-2.2c-.61-5.33-.61-5.33.52-7.61q.2-2.26.29-4.53l.1-2.71.22-5.66.1-2.7.1-2.48C248 377 248 377 249 376q.56-3.8 1-7.62c1.79-15.17 1.79-15.17 3-16.38q.3-2.65.5-5.31c.26-3.36.66-6.44 1.5-9.7v-2.55c0-2.44 0-2.44 1-5.44v-2.44c0-2.44.35-4.23 1-6.56a45 45 0 0 0 1.07-11.25l-.03-3.6-.04-3.71-.06-7.32-.03-3.27c.08-2.5.42-4.47 1.09-6.85q.07-2.25 0-4.5c-.08-3.07.24-5.54 1-8.5l-.06-3.37c.07-3.76.74-6.13 2.06-9.63l1.44-4.5c3.19-9.5 5.89-13.98 16.67-12.14M271 243c-4.3 9.4-7.82 18-8.5 28.43l-.24 3.8-.26 4.08-.26 4.2q-.78 12.67-1.24 25.37c-.62 16.67-3.1 32.82-6.28 49.18-2.7 13.89-4.4 27.35-4.53 41.5l-.05 3.39c0 14.52 8.32 25.19 17.36 36.05l1.49 1.84a59 59 0 0 0 13.95 12.22l2.37 1.56c7.4 4.7 14.97 8.36 23.19 11.38l3.27 1.24c11.2 3.72 23.02 4.05 34.73 4.76l-1.41 1.98a307 307 0 0 0-9.1 13.52 273 273 0 0 1-8.7 12.94 355 355 0 0 0-5.35 7.94 680 680 0 0 1-29.9 41.66q-2.26 2.88-4.48 5.78a271 271 0 0 1-14.9 17.77 181 181 0 0 0-6.41 7.66 232 232 0 0 1-13.58 15.16C248 600.79 248 600.79 248 603h-2a139 139 0 0 0-5 5l-3.56 3.69-1.7 1.76c-4.88 4.34-9.92 3.9-16.23 4.1-7.28.93-12.61 5.22-17.51 10.45-5.03 7.24-6.81 14.23-6 23 2.07 6.44 7.18 10.7 12.85 14.1 8.99 4.05 19.33 2.52 28.25-.85 12.58-5.43 22.28-13.38 31.8-23.13 2.56-2.57 5.25-4.94 8-7.31q3.59-3.13 7.1-6.31a845 845 0 0 1 10.97-9.71 536 536 0 0 0 6.66-5.98c4.63-4.18 9.37-8.24 14.12-12.3q5.6-4.77 11-9.76c3.36-3.1 6.78-6 10.38-8.81a94 94 0 0 0 9.3-8.38 99 99 0 0 1 9.57-8.62A252 252 0 0 0 389 532l-1.1 1.47-7.83 10.46a581 581 0 0 1-15.05 19.57 791 791 0 0 0-14.66 18.95 789 789 0 0 1-24.8 31.32c-8.01 9.74-16.74 18.65-25.76 27.46q-2.27 2.26-4.5 4.58c-3.83 3.65-6.38 5.37-11.73 5.34q-3.77-.13-7.53-.35c-5.57-.18-8.72.3-13.04 4.2a69 69 0 0 0-4.31 6.63l-1.05 1.77c-4.07 6.92-4.71 12.53-3.64 20.6 1.78 3.4 4.03 5.6 7 8l1.85 1.52c5.4 4.12 10.45 5.94 17.15 6.48l2.83.3c19.72 1.17 38.47-8.84 52.87-21.45 3.58-3.13 7.34-6 11.13-8.85a437 437 0 0 0 16.26-13.18c10.75-8.95 10.75-8.95 18.9-8.82a88 88 0 0 0 4.82-1.37c6.97-1.97 14.02-2.83 21.19-3.7q2.07-.24 4.13-.51a896 896 0 0 1 25.34-2.82c5.16-.5 5.16-.5 7.42-1.08 29.28-7.13 63.28-6.4 93.27-7.6l3.27-.12c25.19-1 50.37-1.11 75.58-1.06l18.7-.01c65.53-.1 65.53-.1 89.29 3.27l-.93 2.3c-2.45 6.2-3.1 12.2-1.6 18.77 2.8 6.3 9.62 8.26 15.53 10.93a156 156 0 0 1 9.69 5.69c9.12 5.17 25.38 3.36 35.19 1.12 8.64-2.68 15-7.35 20.12-14.81 5.1-10.14 8.35-20.9 11.5-31.75l.72-2.45a557 557 0 0 0 8.86-33.32q1.04-4.72 1.92-9.48l.49-2.45c3.1-16.03 4.23-31.68 4.58-48 .52-22.87 2.44-45.2 6.8-67.67l1.97-10.5c1.68-9.05 3.1-18.15 4.52-27.24 1.56-10 1.56-10 2.72-14.83 6.23-27.21 3.52-60.51-5.1-86.78-1.3-3.96-2.36-7.3-1.98-11.53l3.82-.81a60 60 0 0 0 7.46-2c6.56-2.23 12.9-2.54 19.79-2.63l2.79-.06c10.74.03 19.48 4.05 27.14 11.5 6.09 6.97 9.82 14.37 13 23l1.12 2.43c4.39 12.76-.63 30.39-5.12 42.57a342 342 0 0 0-8 26l-.6 2.29-2.02 7.9-.66 2.56c-4.1 16.2-5.46 34.04 2.28 49.25l1.98 4.17c2.9 6.07 5.63 11.67 10.02 16.83l3.44 4.44a305 305 0 0 1 4.88 6.37c3.54 4.69 7.27 6.69 13.08 7.54 6.39.38 10.79-1.1 15.6-5.35 1.94-2.7 1.94-2.7 3-5l1-2c1.24-12.82-3.8-21.88-9.51-32.9-9.35-19.48-.9-48.68 4.5-68.1l1.23-4.65q.91-3.51 1.88-7.02 1.6-5.96 3.09-11.95.26-1 .5-2.02.67-2.67 1.3-5.36l.6-2.35c3.8-24.71-4.38-49.9-17.6-70.65a99 99 0 0 0-6.1-7c-1.9-2-1.9-2-3.83-4.51-10.9-13.2-33.07-22.22-49.7-24.16-21.02-1.74-41.64-.74-60.64 9.4-4.14 2.14-7 3.06-11.72 2.27a59 59 0 0 1-7.62-4c-46.74-26.02-102.4-28.18-153.21-14.58q-2.9.77-5.83 1.47c-29.84 7.42-57.91 19.83-85.8 32.5q-5.02 2.28-10.05 4.54a509 509 0 0 0-31.81 15.59c-7.35 3.93-14.84 7.6-22.31 11.3q-8.25 4.08-16.42 8.24C454.34 336.54 454.34 336.54 445 338l.02-1.96q.1-10.17.15-20.34 0-3.8.06-7.57c.36-35.61.36-35.61-10.73-49.2-2.5-1.93-2.5-1.93-4.88-1.71-14.47 4.34-27.84 21.35-37.2 32.68-2.42 2.1-2.42 2.1-5.37 2.5a63 63 0 0 1-8.67-1.77 103 103 0 0 0-28.12-3.8c-10.84-.05-19.01-.11-27.26-7.83l-5.62-4.37a164 164 0 0 1-12.25-11.5 135 135 0 0 0-8.23-7.44 70 70 0 0 1-5.27-5.38 25.7 25.7 0 0 0-15.82-7.55c-1.93-.01-1.93-.01-4.81.24m55 363 2 2v-2z" fill="#BCBDBD"/><path d="M454 338h-2c-2.44 9.11-2.13 17.93-1.98 27.28.65 43.96.65 43.96-7.02 61.72l-1 2.73c-1 2.27-1 2.27-3 3.27a98 98 0 0 0-2 6h-2l-.56 2c-2.08 4.33-5.18 7.51-8.44 11l-2.38 2.56C410.23 467 410.23 467 404 467v2a187 187 0 0 1-21.06 8.69l-2.51.9a89 89 0 0 1-15.49 3.89L363 483l-1 2h-2l2.05 2.63 2.7 3.49 1.34 1.73c2.09 2.71 4.07 5.39 5.93 8.27 3.73 5.42 8.71 9.45 13.73 13.63 6.18 5.18 6.18 5.18 7.25 6.25-.7 6.4-.7 6.4-2 9h-3l-.32 1.78c-.79 2.57-1.8 3.78-3.64 5.72l-1.85 1.98-2 2.08-2.06 2.16c-8.35 8.71-17.29 16.64-26.55 24.36a142 142 0 0 0-10.63 10.03c-2.92 2.83-6.12 5.26-9.32 7.76-3.76 3.04-7.27 6.34-10.83 9.61-2.78 2.5-5.64 4.86-8.55 7.21a117 117 0 0 0-10.6 9.65c-3.99 4.01-8.39 7.6-12.71 11.24a456 456 0 0 0-19.13 17.11c-14.76 13.89-30.23 27.03-51.6 26.62-8.34-.8-14.59-5.28-20.21-11.31-3.05-4.82-2.64-10.86-1.54-16.3 2.69-9.19 8.46-15.72 16.54-20.7 3.4-1.13 6.23-1.18 9.81-1.31 5.62-.39 8.91-.81 13.19-4.69l2.31-1.97c6.45-5.56 6.45-5.56 7.69-8.03h2l.82-1.79a23 23 0 0 1 4.12-5.5l1.76-1.84 1.86-1.93A257 257 0 0 0 271 575.47c1.91-2.36 3.89-4.6 5.94-6.85a235 235 0 0 0 12.55-15.61q2.53-3.37 5.1-6.73a796 796 0 0 0 28.78-40.84 759 759 0 0 1 10.54-15.36c2.58-3.8 4.96-7.69 7.29-11.64 3.02-4.1 5.35-6.94 10.42-7.97 3.15-.31 6.28-.47 9.44-.59 9.01-.54 17.26-1.32 25.94-3.88l3.24-.84c8.07-2.22 14.71-5.69 21.76-10.16 2.72-1.69 4.96-2.99 8-4q1.04-2.99 2-6c1.5-1.88 1.5-1.88 3-3h2l.88-2.75A47 47 0 0 1 431 432h2a406 406 0 0 0 6-19l.56-1.86c.85-4.15.85-8.41 1.06-12.63.38-3.51.38-3.51 1.4-6.09 1.33-4.62 1.19-8.89 1.1-13.67l-.02-2.97q-.03-4.67-.1-9.34-.08-6.16-.12-12.32l-.06-2.85c-.06-8.55-.06-8.55 2.18-12.27 3.63-1.7 5.16-2.28 9-1" fill="#020303"/><path d="M280.1 241.36c6.53 1.7 10.59 5.46 15.32 10.1q4.89 4.74 9.83 9.42l2.2 2.08c21.67 20.36 21.67 20.36 32.1 20.48l3.8.08 3.97.04c15.23.2 15.23.2 22.68 2.44l2.44-.06c2.7.06 4.47.65 7 1.56 4.86 1.72 8.6 2.16 13.56.5l.84-2.2c1.52-3.66 3.98-5.98 6.79-8.67l1.63-1.6c11-10.68 11-10.68 14.89-12.58 2.37-1.22 2.88-2.52 3.85-4.95h2c1.63-2 1.63-2 3-4 4.64.1 7.17.7 10.57 3.94 6.73 7.45 10.07 14.03 10.43 24.06l.57 2.5c.58 3.35.46 6.6.37 10 .06 2.5.06 2.5.56 4.96 1.46 7.32.6 15.15-.47 22.48C448 324 448 324 450 327l-2 2v3c5.79 1.36 10.72.98 16-2a55 55 0 0 0 2-4q2.5-.58 5-1c1.99-.9 3.89-1.88 5.82-2.9 2.98-1.5 6.04-2.83 9.1-4.17 7.1-3.18 14.83-7.1 20.08-12.93l2 1a67 67 0 0 0 12-6 74 74 0 0 1 7.25-3.31 49 49 0 0 0 7.82-4.25A36 36 0 0 1 545 288q5.11-1.98 10.07-4.31 6.07-2.78 12.25-5.31c4.96-2.05 9.74-4.17 14.3-7A21 21 0 0 1 588 269q2.52-1.08 5-2.18a85 85 0 0 1 6.57-2.32 53 53 0 0 0 7.68-3.12c2.68-1.34 4.85-1.8 7.75-2.38l2.88-1.5c3.47-1.67 6.32-1.98 10.12-2.5q2.18-.68 4.32-1.44a81 81 0 0 1 12.42-3.1c2.26-.46 2.26-.46 5.2-1.46 3.8-1.24 7.63-1.87 11.58-2.53C664 246 664 246 667 245q2.4-.3 4.82-.5c3.77-.33 7.45-.86 11.18-1.5 15.24-2.3 31.7-4.07 46.85-.44 2.15.44 2.15.44 4.56.38 3.18.07 5.59 1.02 8.59 2.06 2.76.67 5.54 1.23 8.32 1.8 9.04 1.96 17.84 4.5 26.68 7.2l3.6.93a41 41 0 0 1 9.53 4.57A68 68 0 0 0 802 265q1.71 1.06 3.38 2.19c2.78 1.6 3.68 1.8 7.06 1.8a45 45 0 0 0 9.35-3.88c9.44-4.72 19.9-7.1 30.2-9.11l2.3-.55c3.75-.62 7.42-.6 11.2-.57l2.28-.02c3.89 0 7.44.2 11.23 1.14l4.04.9 4.46 1.04 2.27.5A65 65 0 0 1 901 262l2.75.8A64 64 0 0 1 928 279l3.38 3.3c11.6 11.65 20.16 25.79 24.62 41.7l.99 2.98c3.12 9.85 4.47 19.72 5 30.02l-1 1q-.29 2.97-.5 5.94c-.38 5.84-.38 5.84-1.5 8.06.05.34.05.34.2 2.06-.2 3-.8 4.52-2.06 7.19-2.6 5.5-3.7 10.96-4.63 16.94-.72 4.05-2.11 7.78-3.56 11.62a45 45 0 0 0-1.6 9.94C947 422 947 422 946 424.15c-1.25 3.58-1.28 6.9-1.26 10.64l-.01 2.23v18.47c.03 3.72.35 6.32 2.27 9.5l.45 2.45c.64 2.98 1.8 4.94 3.43 7.5 5.43 8.6 7.34 14.78 6.12 25.06-1.96 6-6.31 9.66-11.6 12.87-5.26 2.49-10.2 2.68-15.83 1.38-6.44-2.5-10.4-7.98-14.57-13.25l-2.5-3.1c-10.71-13.8-20.52-31.82-20.5-49.66 0-3.24 0-3.24-1-5.24l2-6q.5-2.37.94-4.75c.83-4.36 2.02-8.51 3.35-12.74a79 79 0 0 0 1.7-7.63 56 56 0 0 1 3.24-10.78 78 78 0 0 0 2.15-7.16c1.02-3.88 2.19-7.66 3.52-11.45a110 110 0 0 0 5.1-21.5q.28-1.13.55-2.33c1.19-6.98.3-12.43-2.11-18.97l-.81-2.24c-4.97-13.1-11.75-21.36-24.3-27.47-4.73-2-8.97-2.1-14.08-2.04h-2.11L865 308v3c-4.75 1-4.75 1-7 1q-2.55 2.44-5 5l-1 1q-3.5-.44-7-1l1 6h3c0 3 0 3-.5 4.88a16 16 0 0 0 .45 9.84 57 57 0 0 1 2.12 10.34c.87 6.66.87 6.66 1.46 9.27.53 2.98.6 5.78.6 8.8v17.45C853 386 853 386 852 387q-.03 3.06.07 6.13c.05 5.06-.54 9.02-2.07 13.87a71 71 0 0 0 0 4.13c0 3.8-.58 5.45-2 8.87q-.48 3.4-.75 6.82c-.24 2.14-.7 4.1-1.25 6.18-.53 3.38-1 6.58-1 10l-.93 3.19a50 50 0 0 0-1.63 8.12C842 458 842 458 841 460q-.26 2.37-.43 4.75a33 33 0 0 1-1.57 8.19c-1.23 3.79-1.47 7.4-1.75 11.38-.25 2.68-.25 2.68-.84 5.4C836 492 836 492 837 494c-.08 1.88-.08 1.88-.37 4.13l-.31 2.43L836 503l-.25 2.2a80 80 0 0 1-1.27 8.1c-.57 3.22-.57 6.24-.54 9.5l.09 10.13.04 6 .03 3.6c-.1 3.56-.54 6.95-1.1 10.47q-.23 2.66-.43 5.3a105 105 0 0 1-2.04 13.2c-.52 2.49-.93 4.99-1.34 7.5-1.05 5.97-2.72 11.74-4.42 17.54A93 93 0 0 0 822 610c-.71 2.22-.71 2.22-1.5 4.06A41 41 0 0 0 818 624c-.68 2.93-1.5 5.8-2.37 8.69l-.71 2.38L814 637l-3 1c.54-6.9 2.04-12.9 4.19-19.44 2.66-8.43 5-16.88 7-25.5.1-.47.1-.47.68-2.87q1.15-5.08 2.13-10.2l.5-2.48c3.1-16.01 4.22-31.66 4.57-47.95.52-22.88 2.44-45.2 6.8-67.68l1.97-10.5c1.68-9.05 3.1-18.15 4.52-27.24 1.56-10 1.56-10 2.72-14.83 6.23-27.21 3.52-60.51-5.1-86.78C838.54 315 838.54 315 839 311c1.92-1.92 4.82-1.86 7.39-2.4 2.6-.6 2.6-.6 4.88-1.4 6.57-2.24 12.92-2.55 19.8-2.64l2.79-.06c10.84.03 19.32 4.13 27.14 11.5 6 6.34 9.77 12.95 13 21l.97 1.95c5.62 12 1.64 29.48-2.34 41.6L911 385a342 342 0 0 0-8 26l-.6 2.29-2.02 7.9-.66 2.56c-4.1 16.2-5.46 34.04 2.28 49.25l1.98 4.17c2.9 6.07 5.63 11.67 10.02 16.83l3.5 4.5q.9 1.16 1.85 2.35 1.88 2.47 3.65 5.03c3.97 4.2 8.35 5.3 13.94 5.62 5.39-.18 9.08-1.91 13.06-5.5 4.1-5.25 3.72-11.63 3-18-1.92-7.34-6.03-14.18-9.51-20.9-9.35-19.48-.9-48.68 4.5-68.1l1.23-4.65q.91-3.51 1.88-7.02 1.6-5.96 3.09-11.95.26-1 .5-2.02.67-2.67 1.3-5.36l.6-2.35c3.8-24.73-4.4-49.86-17.6-70.65a99 99 0 0 0-8-9l-2.42-2.62c-20.1-18.63-44.83-24.43-71.65-23.9a90 90 0 0 0-37.2 10.26c-4.14 2.13-7 3.05-11.72 2.26a59 59 0 0 1-7.62-4c-46.74-26.02-102.4-28.18-153.21-14.58q-2.9.77-5.83 1.47c-29.84 7.42-57.91 19.83-85.8 32.5q-5.02 2.28-10.05 4.54a509 509 0 0 0-31.81 15.59c-7.35 3.93-14.84 7.6-22.31 11.3q-8.25 4.08-16.42 8.24c-21.8 11.09-21.8 11.09-29.95 10.94l-.01-1.96q-.1-10.17-.25-20.34l-.08-7.57c-.33-35.8-.33-35.8-8.66-46.13l-2-2.56c-2-1.44-2-1.44-4.35-1.2-14.44 4.12-27.95 21.42-37.22 32.66-2.43 2.1-2.43 2.1-5.38 2.5a63 63 0 0 1-8.67-1.77 103 103 0 0 0-28.12-3.8c-10.84-.05-19.01-.11-27.26-7.83l-5.62-4.37a164 164 0 0 1-12.25-11.5 135 135 0 0 0-8.23-7.44 70 70 0 0 1-5.27-5.38c-5.53-5.62-12.94-7.64-20.63-8.31a317 317 0 0 1-4.62 13.25c-1.87 5.1-2.53 9.76-2.88 15.18l-.24 3.8-.26 4.08-.26 4.2q-.78 12.67-1.24 25.37c-.62 16.67-3.1 32.82-6.28 49.18-2.7 13.89-4.4 27.35-4.53 41.5l-.05 3.39c0 14.56 8.35 25.13 17.36 36.05l1.26 1.6c3.83 4.75 8.03 8.09 13.12 11.4l2.39 1.57A118 118 0 0 0 308 465l3.23 1.24c11.5 3.85 23.74 4.06 35.77 4.76l-5 7.86-3.77 5.97a348 348 0 0 1-10.44 15.6 355 355 0 0 0-5.35 7.95 680 680 0 0 1-29.9 41.66q-2.26 2.88-4.48 5.78a271 271 0 0 1-14.9 17.77 181 181 0 0 0-6.41 7.66 255 255 0 0 1-13.5 15.16c-4.15 4.4-4.15 4.4-5.25 6.59h-2q-.33.85-.7 1.7c-1.64 2.9-3.68 4.7-6.17 6.93l-2.62 2.35c-5.53 4.46-10 4.34-17 4.58-6.74.85-11.97 4.54-16.51 9.44-4.98 7.27-6.82 14.2-6 23 2.04 6.12 6.34 9.85 11.78 13.04 9.05 4.08 19.33 2.6 28.32-.8 12.58-5.42 22.28-13.37 31.8-23.12 2.56-2.57 5.25-4.94 8-7.31q3.59-3.13 7.1-6.31a845 845 0 0 1 10.97-9.71 536 536 0 0 0 6.66-5.98c4.63-4.18 9.37-8.24 14.12-12.3q5.6-4.77 11-9.76c3.36-3.1 6.78-6 10.38-8.81a94 94 0 0 0 9.3-8.38 99 99 0 0 1 9.57-8.62 226 226 0 0 0 30.44-29.22C388 532 388 532 390 531a45 45 0 0 1-5.16 8.38l-1.9 2.53-2 2.65-2.05 2.73a403 403 0 0 1-12.76 16.13c-5.1 6.2-9.93 12.62-14.77 19.03a778 778 0 0 1-24.8 31.3 318 318 0 0 1-20.18 22.13l-2.41 2.43q-1.12 1.1-2.25 2.25l-2.03 2c-1.7 1.44-1.7 1.44-3.7 1.44q-.38.9-.8 1.8c-1.9 3.5-3.4 4.93-7.2 6.2q-2.1.06-4.22-.04l-2.5-.07q-2.56-.07-5.13-.2c-5.58-.11-8.75.5-13.14 4.3-2.12 3.32-2.12 3.32-3.05 5.18-.95 1.83-.95 1.83-3.2 4.89-3.07 5.46-2.78 11.94-1.75 17.94 3.66 6.8 10.73 11.69 18 14 11.2 2.38 26.66 2.62 37.25-1.98 4.28-1.6 8.68-1.97 13.19-2.52l3.1-.4c7.46-.91 14.9-1.63 22.38-2.26 7.86-.68 15.69-1.6 23.53-2.51q21-2.47 42.09-4.2a924 924 0 0 0 22.25-2.03 1975 1975 0 0 1 69.59-5.8c.39-.01.39-.01 2.39-.15l16.07-1.1 2.07-.14q7.05-.48 14.09-.91l2.2-.14a624 624 0 0 1 38.68-1.03l6.23-.01 16.5-.01h10.23c36.66 0 73.3.26 109.92 2.47 14.82.88 29.64.94 44.48.96q4.49 0 8.97.04c69.33.52 69.33.52 90.79-11.28l4-2c-1-3.3-2.12-5.43-5.05-7.34-18.08-8.61-38.41-11.21-57.95-14.66 1-2 1-2 3.25-2.75 3.25-.3 4.76.53 7.75 1.75q2.66.6 5.33 1.08l6.36 1.17c7.93 1.53 15.7 3.2 23.38 5.75l2.1.68c6.19 2.15 12.5 5.28 16.83 10.32.19 2.3.19 2.3-1 5-10.53 11.38-29.61 11.57-44 13l-2.41.25c-16.86 1.7-33.6 2.1-50.52 2.06h-4.16c-20.17-.01-40.26-.62-60.4-1.6-70.82-3.43-142.06-3.74-212.75 1.99l-11.45.88c-47.91 3.6-95.8 7.95-143.5 13.67l-3.16.38c-27.52 3.3-27.52 3.3-31.65 5.37-13.9 2.9-32.17 5.27-45-2a80 80 0 0 1-6.21-4.62c-1.8-1.38-1.8-1.38-5.16-3-2.85-1.5-3.6-2.4-4.63-5.38l1-1-.12-2.81c-.1-8 2.2-15.9 7.12-22.2q.63-1.25 1.25-2.55c3.1-4.31 7.78-6.78 12.75-8.44q3.15.08 6.3.22c12.17.47 12.17.47 15.89-2.72 1.47-1.68 1.47-1.68 2.8-3.5l3.2-3.62 1.7-2.03c3.18-3.54 6.6-6.84 10.03-10.14 2.64-2.58 4.56-4.84 6.08-8.21l2-1a70 70 0 0 0 2.63-3.06L324 611l-3 1a17 17 0 0 1-3-7c4.2-2.25 7.2-3 12-3 1.57-1.43 1.57-1.43 3-3.31 2.14-2.66 4.05-4.9 7-6.7h2l.28-2.2c.84-3.26 2.16-5.01 4.29-7.6l1.94-2.4 1.49-1.8h-6l-.06 1.82c-.94 2.19-.94 2.19-4.2 3.63l-1.9.72c-4.03 1.84-6.56 5.5-9.34 8.84-4.45 5.34-9.11 10.04-15.5 13l-2-1 1 3c-5.62 3.88-5.62 3.88-9 5l-.93 1.94C301 617 301 617 299.19 617.88c-2.68 1.38-4 3.34-5.83 5.68-2.05 2.18-4.7 3.1-7.36 4.44a125 125 0 0 0-5 6 261 261 0 0 1-10.56 10.19l-2.81 2.6c-2.63 2.2-2.63 2.2-4.72 3.25-2.55 1.28-4 3.09-5.91 5.2-8.78 9-22.6 14.72-35.18 15.07A33.7 33.7 0 0 1 199 661c-5.42-6.42-6.3-12.56-5.75-20.75A22 22 0 0 1 197 632l1.44-2.5A50 50 0 0 1 204 622h3l.63-1.87c1.97-3.05 3.9-3.2 7.37-4.13a296 296 0 0 1 7.25-.7c8.18-1 14.28-3.88 19.43-10.44L243 603q1.48-1.53 3-3a144 144 0 0 0 10.38-11.31l2.9-3.45 1.4-1.68c6.94-8.22 6.94-8.22 10.39-11.56 2.43-2.51 4.43-5.25 6.5-8.06 1.75-2.36 3.6-4.64 5.43-6.94l2.75-3.7q3.55-4.7 7.25-9.3c8.83-10.98 8.83-10.98 11.75-16l1.25-2h2l.34-1.77c.74-2.5 1.74-3.9 3.35-5.92 5.37-6.93 9.97-14.34 14.65-21.75q2.06-3.16 4.29-6.18c3.72-5.1 6.58-10.73 9.37-16.38q-.91 0-1.87.04a97 97 0 0 1-15.22-.92C321 473 321 473 318 474l-2-3q-3-.56-6-1c-2.68-1.13-2.68-1.13-5.43-2.56l-3.14-1.63L298 464l-3.8-1.93c-6.6-3.38-12.68-6.8-18.36-11.62-1.84-1.45-1.84-1.45-4.01-2.46-1.83-1-1.83-1-2.83-4-1.68-1.58-3.48-2.96-5.3-4.4-1.9-1.78-2.6-3.24-3.7-5.6a453 453 0 0 0-4.43-6.93q-1.77-2.7-3.51-5.43a138 138 0 0 0-2.76-4.06c-1.75-3.47-2.14-6.94-2.55-10.76l-.27-2.2c-.61-5.33-.61-5.33.52-7.61q.2-2.26.29-4.53l.1-2.71.22-5.66.1-2.7.1-2.48C248 377 248 377 249 376q.56-3.8 1-7.62c1.79-15.17 1.79-15.17 3-16.38q.3-2.65.5-5.31c.26-3.36.66-6.44 1.5-9.7v-2.55c0-2.44 0-2.44 1-5.44v-2.44c0-2.44.35-4.23 1-6.56a45 45 0 0 0 1.07-11.25l-.03-3.6-.04-3.71-.06-7.32-.03-3.27c.08-2.5.42-4.47 1.09-6.85q.07-2.25 0-4.5c-.08-3.07.24-5.54 1-8.5l-.06-3.37c.07-3.76.74-6.13 2.06-9.63l1.44-4.5c3.19-9.5 5.89-13.98 16.67-12.14M326 606l2 2v-2z" fill="#E6E7E8"/><path d="M385 372a30.3 30.3 0 0 1 10 14c.86 8.74.28 15.8-5 23-5.88 6.55-12.1 10.86-21 11.44a19.2 19.2 0 0 1-13.84-6.42C351 408.65 351 408.65 351 406l-3 1c-4.23-7.36-6.29-12.24-5-21 3.87-7.53 13.12-13.65 20.57-17.24 6.67-2.09 15.19.6 21.43 3.24" fill="#F5ED5C"/><path d="M710.81 240.81h2.91c6.87.05 6.87.05 10.28 1.2v2l-2.1.02c-25.32.42-50.2 2.83-74.73 9.4q-2.91.75-5.84 1.46c-29.83 7.41-57.9 19.83-85.79 32.5q-5.02 2.28-10.06 4.53a517 517 0 0 0-31.8 15.6c-7.36 3.93-14.85 7.6-22.32 11.3q-8.22 4.08-16.42 8.24C453.15 338.14 453.15 338.14 445 338l-.02-1.96q-.1-10.17-.24-20.34-.06-3.79-.09-7.58c-.33-35.77-.33-35.77-8.65-46.12l-1.88-2.44c-2.92-2.15-5.56-2.29-9.12-2.56l1-3c4.63.1 7.16.7 10.56 3.93 6.74 7.46 10.08 14.03 10.44 24.07l.56 2.5c.6 3.35.46 6.6.37 10 .07 2.5.07 2.5.56 4.95 1.46 7.33.61 15.16-.47 22.5C448 324 448 324 450 327l-2 2v3c5.8 1.35 10.72.98 16-2a68 68 0 0 0 2-4 83 83 0 0 1 5-1c1.98-.89 3.88-1.89 5.81-2.89 2.98-1.52 6.04-2.85 9.11-4.18 7.1-3.18 14.83-7.1 20.08-12.93l2 1a68 68 0 0 0 12-6 73 73 0 0 1 7.25-3.3 49 49 0 0 0 7.81-4.27A36 36 0 0 1 545 288a175 175 0 0 0 10.06-4.3q6.07-2.8 12.25-5.33c4.96-2.05 9.74-4.17 14.31-7A21 21 0 0 1 588 269l5.01-2.18a83 83 0 0 1 6.55-2.32 53 53 0 0 0 7.7-3.13c2.67-1.34 4.83-1.79 7.74-2.37l2.87-1.5c3.47-1.67 6.32-1.99 10.13-2.5q2.16-.68 4.31-1.44a82 82 0 0 1 12.42-3.1c2.27-.46 2.27-.46 5.2-1.46 3.81-1.25 7.63-1.88 11.58-2.54 2.5-.46 2.5-.46 5.5-1.46q2.4-.3 4.8-.5a136 136 0 0 0 11.2-1.5 172 172 0 0 1 27.8-2.19" fill="#E7E7E9"/><path d="M295.99 356.38c3.4 1.05 6.06 2.61 9 4.62v2l1.76.62c4.93 3.01 7.08 8.48 8.7 13.81 1.3 6.1 1.88 12.84-1.07 18.5-4.73 6.1-9.27 9.31-17.04 10.46-7.76.6-12-1.42-18.06-6.15A27 27 0 0 1 274 393l-1.18-1.96c-1.08-2.68-1.01-4.9-.94-7.79l.05-2.99c0-.37 0-.37.07-2.26h1l.4 2.3.54 3.01.53 3c1.05 5.31 1.05 5.31 3.03 6.86 5.3 2.78 10.54 4.37 16.5 2.83 4.2-3.52 5.65-8.05 6.28-13.33.22-5.46-.22-8.89-3.8-13.13L295 368l-1.5-1.58c-2.23-2.12-3.81-3.39-6.94-3.55-4.88 2.15-8.87 5.31-12.56 9.13 2.35-8.19 13.33-16.68 21.99-15.62" fill="#E8DD76"/><path d="M366 374c4.01 1.42 7.44 3.45 10.07 6.88 2.23 5.1 1.8 10.73.93 16.12-1.97 4.36-4.64 7.64-8 11-7.17 1.47-13.08-1.13-19-5-2.7-1.93-3.3-2.89-5-6-.89-5.48-1.24-10.22 2-14.88l3-2.12 1.83-1.62c4.86-4.15 7.81-5.3 14.17-4.38" fill="#131610"/><path d="m821.88 639.63 2.38.54 5.09 1.2q4.02.94 8.05 1.84c25.75 5.8 25.75 5.8 34.6 12.8l1.93 1.42c1.07 1.58 1.07 1.58 1.25 3.89-2.27 5.16-6.75 7.6-11.8 9.84-10.7 3.73-22.15 4.73-33.38 5.85l-2.41.24c-16.87 1.7-33.6 2.1-50.52 2.07h-4.18c-15.75-.02-31.46-.25-47.18-1l-2.07-.1q-8.47-.4-16.98-.83c-33.55-1.65-67.12-1.64-100.73-1.57h-2.02q-25.95.05-51.91.18l1-2c5.37-1.1 10.66-1.14 16.13-1.14l2.7-.01 8.88-.01 6.27-.02h27.2c36.88 0 73.75.25 110.58 2.46 14.82.88 29.63.95 44.48.97q4.49 0 8.97.03c69.32.51 69.32.51 90.78-11.27l4-2c-.99-3.3-2.12-5.44-5.04-7.35-18.09-8.62-38.42-11.2-57.96-14.65 2.42-4.85 7.65-2.4 11.88-1.38" fill="#EAEBEB"/><path d="M389 531c0 3.55-.63 4.17-2.78 6.88l-1.79 2.28-1.93 2.4-1.95 2.47q-5.83 7.36-11.72 14.65-3.03 3.87-5.95 7.82a1086 1086 0 0 1-25.11 32.3q-1.81 2.25-3.61 4.53A379 379 0 0 1 301 641l-3-2 1.53-1.5 6.85-6.75 2.4-2.36 2.31-2.28 2.12-2.1c1.72-1.93 2.66-3.7 3.79-6.01l2-1q1.36-1.5 2.62-3.06L324 611l-3 1a16.6 16.6 0 0 1-3-7c4.2-2.25 7.21-3 12-3 1.56-1.43 1.56-1.43 3-3.31 2.13-2.66 4.05-4.9 7-6.69h2l.28-2.2c.84-3.27 2.15-5.02 4.28-7.61l1.94-2.4L350 578h-6l-.06 1.81c-.94 2.19-.94 2.19-4.19 3.63l-1.91.72c-4.03 1.84-6.57 5.51-9.34 8.84a55 55 0 0 1-15.5 13c0-5.68 6.16-10.07 10-14a167 167 0 0 1 10.62-9.11c4.51-3.63 8.84-7.24 12.88-11.39a99 99 0 0 1 9.5-8.56A238 238 0 0 0 388 532zm-63 75 2 2v-2z" fill="#F0F2F4"/><path d="M280 244c7.55.13 10.8 2.73 16 8l1.78 1.77 3.45 3.49c2.44 2.4 5.02 4.63 7.62 6.86q2.26 1.98 4.46 4.04c10.99 10.25 19.03 16.07 34.44 15.72q3.77-.03 7.55-.01h3.52c4 .16 7.36.97 11.18 2.13l2.44-.06c2.7.06 4.47.65 7 1.56 4.86 1.71 8.6 2.15 13.56.5l.84-2.2c1.52-3.66 3.97-5.98 6.78-8.68l1.63-1.58c11.02-10.69 11.02-10.69 14.89-12.59 2.38-1.22 2.89-2.52 3.86-4.95h2l2-2 3 1a51 51 0 0 1-7.7 6.73 134 134 0 0 0-11.61 9.89l-1.96 1.82a169 169 0 0 0-14.27 15.43C390 293 390 293 387.04 293.41c-2.99-.4-5.76-.98-8.66-1.79a104 104 0 0 0-28.12-3.79c-10.85-.05-19.01-.12-27.26-7.83l-5.62-4.38a161 161 0 0 1-12.26-11.5 135 135 0 0 0-8.22-7.42 79 79 0 0 1-5.4-5.45c-3.47-3.56-6.77-4.84-11.5-6.25z" fill="#D8D9DA"/><path d="M385 372a30.3 30.3 0 0 1 10 14q.1 3.34.06 6.69l-.02 3.57L395 399h-1l-.18-2.52-.26-3.29-.24-3.27C393 387 393 387 392 384c-3.29-.8-4.71-1.1-8 0l-1-4h-2v2h-3v18h-2v4h-2v2h-2l-1 3-2-2 1.28-1.68 1.66-2.2 1.65-2.17c3.81-5.26 3.04-11.72 2.41-17.95-1.56-3.62-3.93-5.36-7.31-7.38-4.85-1.12-8.61-1.84-12.98.72A85 85 0 0 0 350 381l-2-1c12.63-10.9 20.95-14.79 37-8" fill="#ECDD70"/><path d="M384 379v5l4-2v2h4c3.4 5.1 2.53 11.04 2 17-1.64 6.02-5.05 9.4-10 13v-4h2v-2h2v-2h2v-5l-4-1v-2h-2v2h-6v-18h3v-2c2-1 2-1 3-1" fill="#F9E766"/><path d="M297 640h3l-2 4h-2l-.81 1.81c-1.9 3.5-3.39 4.92-7.19 6.19q-2.12.05-4.24-.04l-2.48-.07q-2.58-.08-5.15-.19c-5.57-.12-8.75.49-13.13 4.3-2.12 3.31-2.12 3.31-3.05 5.17-.95 1.83-.95 1.83-3.2 4.89-3.07 5.46-2.78 11.94-1.75 17.94 3.65 6.81 10.72 11.69 18 14a166 166 0 0 0 7 1c-3 2-3 2-6.19 1.88-6.71-1.54-11.51-4.56-16.81-8.88l-3.19-1.5c-2.96-1.58-3.74-2.39-4.81-5.5l1-1-.12-2.81c-.1-8 2.2-15.89 7.12-22.19l1.25-2.56c3.09-4.31 7.78-6.78 12.75-8.44q3.15.08 6.31.22c12.15.47 12.15.47 16.25-3.1C296 642 296 642 297 640" fill="#E1E2E4"/><path d="M295.99 356.38c3.4 1.05 6.06 2.61 9 4.62v2l1.76.62c3.1 1.9 4.44 4.28 6.25 7.38v2l-3-1v-2h-4v-2h2v-2l-4-1v-3h-2l.44 3.81.26 2.48q.3 2.78.7 5.54c.7 5.65.94 9.23-2.4 14.17-1.01-3.04-.96-4.62-.75-7.75.05-5.5-1.48-8.35-5.25-12.25l-1.5-1.58c-2.23-2.12-3.81-3.39-6.94-3.55-4.88 2.15-8.87 5.31-12.56 9.13 2.35-8.19 13.33-16.68 21.99-15.62" fill="#DBD16E"/><path d="M316 403c10.59-.86 10.59-.86 15.19 2.5L334 408c-.83 4.81-3.16 6.18-7 9h-2l1 8c-5.19-2.19-8.27-6.16-11-11-.75-3.88-.79-7.43 1-11" fill="#838778"/><path d="M281 246c5.55.21 8.01 1.36 11.83 5.35l1.61 1.77 3.4 3.58 1.64 1.74a81 81 0 0 0 5.96 5.44c3.62 3.06 6.56 6.45 9.56 10.12a43 43 0 0 1-9 1c-2.56-1.81-2.56-1.81-4-4v-2h-2a214 214 0 0 1-4-5 108 108 0 0 0-10.64-9.67L284 253v-2h-2z" fill="#060808"/><path d="M272 378h1l.4 2.3.54 3.01.52 2.99c.54 2.7.54 2.7 1.54 5.7 6.38 3.97 12.61 5.06 20 6v2h2l2-6h3c1.61 3.21 1.06 6.44 1 10-5.1 2.97-10.27 3.03-16 2-6.12-3.16-10.76-6.89-14-13l-1.18-1.95c-1.08-2.69-1.01-4.92-.94-7.8l.05-2.98z" fill="#EDDE5B"/><path d="M942 430c3.11 3.37 3.34 5.64 3.22 10.16l-.05 3.59-.11 3.75-.15 7.34-.09 3.29c.18 2.9.75 4.39 2.18 6.87l.45 2.44c.64 2.97 1.8 4.94 3.43 7.5 5.43 8.61 7.33 14.78 6.12 25.06-1.99 6.1-6.38 9.59-11.71 12.88-3.18 1.56-5.76 1.97-9.29 2.12v-2l2.01-.73c11.6-4.41 11.6-4.41 14.09-9.54 2.86-8.69.82-16.82-3.1-24.73l-1.75-2.93c-5.61-9.8-6.13-17.82-5.69-28.95l.1-4.72q.11-5.7.34-11.4" fill="#E9EAEB"/><path d="m732.38 242.31 2.2.24c2.41.45 2.41.45 5.18 1.38a104 104 0 0 0 11.56 2.88 324 324 0 0 1 26.67 7.2l3.6.91a43 43 0 0 1 9.84 4.7l3.2 1.92L797 263l-1 2-7-2.82c-22.42-9.16-45.03-13.93-69-17.18 4.33-2.22 7.49-3.26 12.38-2.69" fill="#D9D9DC"/><path d="M955 372h1c1.59 6.76.18 11.36-2.02 17.88a36 36 0 0 0-1.6 7.56c-.47 4.45-1.87 8.21-3.44 12.37-1 3.4-1.33 6.58-1.65 10.09-.29 2.1-.29 2.1-1.35 4.72-1.26 3.18-1.07 6-.94 9.38l-2 1-1 25h-1c-1.02-21.68 1.17-40.04 7-61l1.25-4.79q.93-3.57 1.91-7.13c1.37-5 2.6-10.04 3.84-15.08" fill="#E2E3E5"/><path d="M944 300c6.59 5.76 9.59 15.8 12 24l1 3c3.11 9.84 4.45 19.71 5 30l-1 1a149 149 0 0 0-.5 5.94c-.39 5.84-.39 5.84-1.5 8.06q-.06 2.5 0 5h-3l-.06-4.19-.04-2.35c.1-2.46.1-2.46.58-4.65 3.77-20.49-1.9-42.01-11.69-60.04C944 304 944 304 944 300" fill="#E8E8EC"/><path d="M895 445h1l.04 2.82c.35 9.32 1.97 16.64 5.96 25.18l.95 2.04q1.53 3.24 3.11 6.46l1 2.03A51 51 0 0 0 914 494l3.5 4.5 1.84 2.35q1.9 2.46 3.66 5.03c4.61 4.89 10.63 5.56 17 6.12l-4 1v2c-9.83-1.11-14.63-5.94-20.71-13.43a131 131 0 0 1-13.33-20.73 192 192 0 0 0-2-3.73c-6.01-11.02-6.66-19.74-4.96-32.11" fill="#D2D2D4"/><path d="M826 573a15 15 0 0 1 2.25 8.38l.02 2.21c-.33 2.99-1.28 5.56-2.27 8.41q-.8 3.15-1.5 6.31l-.78 3.43-1.29 5.89a114 114 0 0 1-4.43 15.12 71 71 0 0 0-2.24 11.08c-.76 2.17-.76 2.17-2.81 3.31L811 638c.54-6.89 2.04-12.89 4.19-19.44a338 338 0 0 0 7.19-26.56l.75-3.31A160 160 0 0 0 826 573" fill="#D8D9DB"/><path d="M302 362h2l1 3 3 1v2h-2v2h4c2.93 2.72 3.92 4.33 4.39 8.33l-.14 3.48-.11 3.52L314 388l-2.32-1.52C309 385 309 385 306.19 385.31L304 386c-1.05-3.4-1-6.47-1-10l-.5-2.31c-.72-3.89-.58-7.74-.5-11.69" fill="#F4EC8C"/><path d="M347 381v3l-1 1c-.48 5.17-.85 10.18 1.38 14.94 6.3 4.95 12.63 7.62 20.62 8.06v2h-8l-1 4h5v4h11c-2 2-2 2-5.62 2.38A20.6 20.6 0 0 1 357 416c-6-6.46-6-6.46-6-10l-3 1c-4.27-7.45-5.9-12.18-5-21 2-3.25 2-3.25 4-5" fill="#E8DB76"/><path d="M426 254c4.63.09 7.16.71 10.56 3.94 6.74 7.45 10.08 14.03 10.44 24.06l.56 2.5c.6 3.39.45 6.69.41 10.12.03 2.57.41 4.9 1.03 7.38v2h-2l-1 23h-1l-.04-3.73q-.1-6.94-.22-13.87l-.09-5.97c-.36-31.12-.36-31.12-8.65-41.43l-1.88-2.44c-2.92-2.15-5.56-2.29-9.12-2.56z" fill="#E2E1E5"/><path d="m381 398 1 2h2v-2h2v2h5l-1 6h-2v2h-2v2h-2v4l-4-1v-5h-2v3h-2l-2-7h2v-4z" fill="#F6E653"/><path d="M508 533v2l-3 2a180 180 0 0 0-3 7c-2.97 4.45-6.91 4.93-12 6-2.73.21-5.26.15-8 0 1-2 1-2 3.5-3.19a44 44 0 0 0 8-5.37c3.38-2.71 6.21-4.45 10.5-5.44v-2c2-1 2-1 4-1" fill="#060707"/><path d="M884 306c9.34 2.21 17.67 9.18 23 17 10.62 18.87 10.62 18.87 9.56 24.21L916 349c-2-1-2-1-3.26-4.43l-1.43-4.45c-5.46-16.17-13.28-24.46-28.31-32.12z" fill="#DBDBDE"/><path d="m317 382 2 1c1.11 4.12 1.68 7.78-.44 11.56L317 396h3v2h3v3l-7 1-1 10h-3c-1.18-3.68-1.21-7.16-1-11l2-2a68 68 0 0 0 4-17" fill="#070907"/><path d="m263 278 3 1a41 41 0 0 1 2 6l-4 4h3c1.08 4.8 1.04 7.43-1.16 11.82-1.85 4.8-2.19 10.1-2.84 15.18h-1l-.05-14.31-.03-4.86-.02-7-.01-2.19c0-3.36.06-6.43 1.11-9.64" fill="#1E1D1E"/><path d="m372 368 1 3 3 1v4c-6.62.12-6.62.12-10-1-5.47-.65-8.06-.35-12.5 3q-1.77 1.47-3.5 3l-2-1c14.7-12.68 14.7-12.68 24-12" fill="#EDE87A"/><path d="M915 347c2.47 2.47 2.3 3.21 2.31 6.62-.19 10.7-2.58 21.39-6.31 31.38a1000 1000 0 0 0-3 9c-1.64-1.61-1.64-1.61-3-4 .77-2.99.77-2.99 2.25-6.31 1.97-4.67 3.23-8.63 3.75-13.69l1.06-3.06c1.01-3.15 1.01-5.66.94-8.94l1-2q.33-2.31.56-4.62l.26-2.48z" fill="#E3E4E7"/><path d="m850 358 3 2c.36 2.6.36 2.6.33 5.85l-.02 3.52-.06 3.69-.02 3.71c-.08 9.08-.08 9.08-1.23 10.23.01 2.82.13 5.62.26 8.43L852 398l-3 2c-.21-14.01.43-28 1-42" fill="#F2F3F5"/><path d="M323 612h2l1 3a767 767 0 0 1-25 26l-3-2 1.53-1.5 6.85-6.75 2.4-2.36 2.31-2.28 2.12-2.1c1.72-1.93 2.66-3.7 3.79-6.01l2-1 2-2.56z" fill="#E0E0E5"/><path d="M253 674h1l-.03 1.91c.22 6.41 1.62 9.83 6.13 14.4 6.17 5.48 11.79 7.74 19.9 8.69-3 2-3 2-6.19 1.88-6.71-1.54-11.51-4.56-16.81-8.88l-3.19-1.5c-2.96-1.58-3.74-2.39-4.81-5.5l4-2z" fill="#D2D3D3"/><path d="m318 469 29 2c-5 8-5 8-7.81 9H337l3-6-1.87.04a97 97 0 0 1-15.22-.92C321 473 321 473 318 474l-1-3z" fill="#ECEDEF"/><path d="M250 375h1l-.02 3.3-.03 12.18-.03 5.26-.02 7.58-.01 2.36c0 4.22.27 8.16 1.11 12.32-1.92-.47-1.92-.47-4-2a60 60 0 0 1-1.31-8.5l-.26-2.38c-.59-5.81-.59-5.81.57-8.12q.18-2.25.25-4.5l.1-2.69.17-5.62.1-2.69.08-2.47c.3-2.03.3-2.03 2.3-4.03" fill="#E4E4E6"/><path d="m298 357-2 2a68 68 0 0 0 0 7h-4l-1.44-1.56C289 363 289 363 286.75 363c-5.06 1.84-9.04 5.16-12.75 9 1.38-4.83 4.19-7.35 8.06-10.31l1.76-1.36c5.02-3.65 8.16-4.35 14.18-3.33" fill="#CAC560"/><path d="M389 531c0 3.6-.74 4.32-2.92 7.09l-1.86 2.38-1.97 2.47-1.92 2.46A107 107 0 0 1 371 556l-2-2-6 6-2-1c3.42-3.52 6.86-6.92 10.62-10.06 6.33-5.42 11.78-11.79 17.38-17.94" fill="#E2E4E6"/><path d="m316 406 10 1 1 5-5 3 2 1v2c-2.88.12-2.88.12-6 0-2-2-2-2-2.2-4.38z" fill="#939687"/><path d="M845 334c1.95.81 1.95.81 4 2 .79 3.08.79 3.08 1.19 6.81.81 7.17.81 7.17 1.42 9.95C852 355 852 355 851 358a160 160 0 0 0-.32 6.2l-.12 3.66-.12 3.83-.13 3.86L850 385h-1l-.04-2.31c-.35-16.44-1.3-32.44-3.96-48.69" fill="#C3C4C6"/><path d="M280 244c7.55.13 10.8 2.73 16 8l1.78 1.77 3.43 3.47c2.54 2.5 5.23 4.79 7.92 7.12 2.41 2.11 4.64 4.34 6.87 6.64l-1 3-2.34-2.38c-5.15-5.19-10.27-10.31-15.87-15.03a76 76 0 0 1-5.29-5.34c-3.47-3.56-6.77-4.84-11.5-6.25z" fill="#C9CACB"/><path d="M316 272a26 26 0 0 1 6.57 4.13c8.87 7.2 16.16 8.12 27.44 7.69 2.37.21 3.94 1.01 5.99 2.18-23.87 1.3-23.87 1.3-30.12-3.19A78 78 0 0 1 322 279q-1.8-1.43-3.62-2.81L316 274z" fill="#E7E8E9"/><path d="M710.63 240.81h2.95c7.01.05 7.01.05 10.42 1.2v2c-12.87.32-25.75.65-39 1l1-2c7.95-2.33 16.42-2.19 24.63-2.2" fill="#EFEFF1"/><path d="M378 408h2l.31 2.38C381 413 381 413 384 415c-6.95 4-12.16 4.35-20 3v-4h-5l1-4h6v6l12-1z" fill="#F8E768"/><path d="M371 376h9v6h-2v18h-2v4h-2v2h-2l-1 3-2-2 1.28-1.68 1.66-2.2 1.65-2.17c3.8-5.25 3.06-11.73 2.41-17.95-1.35-2.99-2.71-4.59-5-7" fill="#E9E07F"/><path d="M288 457a103 103 0 0 1 14.31 5.5c5.72 2.68 11.53 4.18 17.69 5.5l-2 1-1 2c-7.2-.33-12.73-3.69-19-7l-5.75-2.88L288 459z" fill="#E5E7E7"/><path d="m895 429 2 1c.1 6.44-.27 12.66-1 19.06l-.29 2.63L895 458c-2.47-2.47-2.33-3.52-2.56-6.94A30 30 0 0 0 891 443q.96-3.01 2-6l1-7z" fill="#F0F1F4"/><path d="M272 378h1l.4 2.3.54 3.01.52 2.99c1.07 5.36 1.07 5.36 3.11 6.83A35 35 0 0 0 292 397v1h-8v2h2v3c-5.85-1.89-9.76-4.93-12.88-10.12-1.8-4.78-1.36-9.86-1.12-14.88" fill="#B3A466"/><path d="m385 638 1 2h2l2 6c-5.23 1.47-9.58 2.23-15 2v-2a90 90 0 0 1 5-4.12l2.81-2.2z" fill="#EAEAED"/><path d="m944 418 3 1a87 87 0 0 1-2 11l-1 5h-1l-1 25h-1q-.12-6.32-.16-12.64l-.07-4.29c-.15-8.77.27-16.69 3.23-25.07" fill="#CDCED0"/><path d="M864 255c10.5-.18 10.5-.18 15 1l2.04.41c2.01.42 3.99 1 5.96 1.59l1 3-32-2v-1l14-1h-6z" fill="#D4D5D3"/><path d="m757.01 673.12 2.3.15 2.38.17 2.41.15 5.9.41-2 3c-2.8.34-2.8.34-6.32.3l-3.8-.04-4-.07-4.03-.04q-4.93-.06-9.85-.15v-1h10v-2a15 15 0 0 1 7.01-.88" fill="#CDCAD2"/><path d="M818 616c1.49 3.89.35 6.17-1 10a260 260 0 0 0-1.24 7.83c-.76 2.17-.76 2.17-2.83 3.47l-1.93.7c.48-7.39 1.54-16.54 7-22" fill="#EAEAEC"/><path d="M446 302c3.28 3.28 2.88 7.51 3 12q-.33 3.96-.94 7.87C448 324 448 324 450 327l-2 2v4l-3 1z" fill="#F4F5F5"/><path d="m351 567 2 1-1.28 1.17-1.66 1.58-1.65 1.55c-1.57 1.89-2 3.3-2.41 5.7h-2l-.06 1.81c-.94 2.19-.94 2.19-4.19 3.88A48 48 0 0 1 331 586c4.02-4.16 8.31-7.99 12.62-11.84q3.81-3.46 7.38-7.16" fill="#E6E7E9"/><path d="M942 430c3.38 4.51 3.38 4.51 3.4 9.06l.01 2.92-.03 3.02.03 3.02-.01 2.92-.01 2.65C945 456 945 456 942 460z" fill="#F3F3F5"/><path d="m409 274 4 2-1.88.69C409 278 409 278 408.06 280.44c-1.37 3.3-2.97 3.9-6.06 5.56-1.81 1.69-1.81 1.69-3 3 0-5.31 0-5.31 1-8a76 76 0 0 1 8-6z" fill="#101010"/><path d="m258 660 1 3-1.81 2.88c-3.24 5.18-3.51 11.17-4.19 17.12h-2c-1-4.51-.89-7.67.31-12.12l.8-3.08c.79-2.47 1.49-4.61 2.89-6.8z" fill="#E7EAEB"/><path d="m204 663 4.38.94 2.46.52C213 665 213 665 215 666a217 217 0 0 0 9.77.69l5.23.31-1 3c-8.3.47-15.7.43-23-4z" fill="#EEEFEF"/><path d="m275 635 3 1c-5.34 6.8-11.21 12.11-19 16 1.57-3.8 3.97-6.2 6.88-9.06l2.61-2.6c4.28-3.99 4.28-3.99 6.51-5.34" fill="#EFEFF1"/><path d="m512 304 1 4-5.81 3-3.27 1.69C501 314 501 314 498 314c1.58-4.27 4.51-6.27 8-9l2 1c2.12-.94 2.12-.94 4-2" fill="#EFEFF0"/><path d="m856.29 254.9 2.78.04 2.78.02 2.15.04v2l3.88-.63c2.18-.35 2.18-.35 4.12-.37l2 2-26 1v-3l2.44.06c2.94-.07 3-1.04 5.85-1.16" fill="#F5F6F6"/><path d="M324 602c2.12.94 2.12.94 4 2-1.01 3.4-1.65 4.76-4.62 6.81L321 612a16.6 16.6 0 0 1-3-7z" fill="#F3F4F9"/><path d="M297 640h3l-2 4h-2l-.81 1.81c-1.9 3.5-3.39 4.92-7.19 6.19q-2.09.1-4.19.06L280 652v-2h6l1-2 4-2c4.78-3.56 4.78-3.56 6-6" fill="#D6D9DB"/><path d="M259 303h2c.18 17.86.18 17.86-1 26h-1v-5l-2-1z" fill="#E0E3E1"/><path d="M446 292h1c1.14 4.27 2 7.56 2 12h-2l-1 23h-1l-.05-14.47-.03-4.93-.02-7.06-.01-2.24q.01-2.65.11-5.3z" fill="#D9DADA"/><path d="M363 284c2.31 1 2.31 1 4 2v2l3 1-1.71-.2c-7.3-.79-14.58-1.11-21.91-1.36l-3.63-.13L334 287v-1l1.99-.08a1348 1348 0 0 0 12.01-.48l5.75-.23c3.39-.31 5.67-1.47 9.25-1.21" fill="#C7C8CA"/><path d="M316 513h2c-1.49 4.33-3.71 7.64-6.44 11.31l-1.19 1.67c-1.18 1.57-1.18 1.57-3.37 4.02h-3l2-4h2l.31-1.74c.81-2.64 2-4.28 3.69-6.45l1.62-2.1C315 514 315 514 316 513" fill="#E8E8E9"/><path d="M284 398h12v2h-2v4c-5.75.12-5.75.12-8-1v-3h-2z" fill="#F1DB56"/><path d="M384 379v5l2 1-4 1v2h-2v6h-2v-12h3v-2c2-1 2-1 3-1" fill="#FCEF77"/><path d="m311 626 2 1c-1.59 3.9-4.13 6.34-7.12 9.25l-2.76 2.7L301 641l-3-2z" fill="#ECEDEF"/><path d="M351 578c.64 1.78.64 1.78 1 4-.9 1.74-.9 1.74-2.31 3.45l-1.51 1.88-1.62 1.92-1.6 1.97q-1.97 2.4-3.96 4.78l-1-3h2v-2.44c1.51-5.36 5.17-8.64 9-12.56" fill="#E8E9EC"/><path d="m835 493 2 1a972 972 0 0 1-2 17l-3 1c-.2-12.47-.2-12.47 1-18z" fill="#F3F3F6"/><path d="M848 394h1l1 5 2-1-.44 2.52-.56 3.29-.56 3.27C850 410 850 410 850 413l-3 2-2 3z" fill="#D9DADC"/><path d="m384 378 6 1v3l1.94.31 2.06.69c1.14 3.42 1.1 6.09 1.06 9.69l-.02 3.57L395 399h-1l-.18-2.52-.26-3.29-.24-3.27C393 387 393 387 392 384c-3.29-.8-4.71-1.1-8 0z" fill="#E7D66E"/><path d="m263 293 4 4-.62 2.12A93 93 0 0 0 263 316h-1q-.05-5.47-.06-10.94l-.03-3.15-.01-3-.01-2.78C262 294 262 294 263 293" fill="#080908"/><path d="M250 375h1c.37 9.47-.77 18.64-2 28h-1q-.08-6.43-.12-12.88l-.06-3.7-.02-3.54-.03-3.27C248 377 248 377 250 375" fill="#F1F3F5"/><path d="M460 332v2c-9.23 4.59-9.23 4.59-15 4l1-5 1.9.04a232 232 0 0 1 4.94.06c2.74-.13 4.3-1.1 7.16-1.1" fill="#EEECEF"/><path d="M316 403q2.6-.16 5.19-.25l2.92-.14C327 403 327 403 332 407l-16-1v8h-1l-.06-4.38-.04-2.46c.1-2.16.1-2.16 1.1-4.16" fill="#52544B"/><path d="M955 372h1c1.76 7.48.15 14.03-3 21l-3 1a46 46 0 0 1 3.3-14.1 35 35 0 0 0 1.7-7.9" fill="#CDCDD0"/><path d="m394 375 2 1v24l-2 1 .07-3.11.05-4.08.06-2.04c.04-4.1-.48-7.06-2.18-10.77-.12-2.81-.12-2.81 0-5z" fill="#201908"/><path d="m444 275 3 1-.06 2.69c.06 3.31.06 3.31.62 5.87.51 2.81.27 4.72-.56 7.44l-2 1c-.77-6.07-1.1-11.89-1-18" fill="#F2F2F4"/><path d="M195 644h1l.23 1.94c1.01 6.66 2.92 10.42 7.77 15.06l2 2-3 1c-3.6-3.4-6.78-6.55-9-11a42 42 0 0 1 1-9" fill="#D8DAD9"/><path d="m265 578 2 1c-1.34 3.98-3 6.39-6 9.31l-2.12 2.12C257 592 257 592 255 592c1.56-3.52 3.69-6.27 6.12-9.25l2.2-2.7z" fill="#EDEBF0"/><path d="m368 369-4 1v4l-3.06.69c-4.37 1.22-7.38 3.55-10.94 6.31l-2-1 5.25-4.38 2.95-2.46c4.13-3.19 6.56-4.45 11.8-4.16" fill="#C6C494"/><path d="M259 287h2v16l-3-1q-.05-3.46-.06-6.94l-.04-3.9c.1-3.16.1-3.16 1.1-4.16" fill="#F0F3F1"/><path d="m849 258 1 2c-5.82 1.97-10.83 3.4-17 3l1-3 3.12-.38c3.88-.62 3.88-.62 7.19-1.74C847 257 847 257 849 258" fill="#E5E5E5"/><path d="M349 406h2c2.47 2.47 2.98 3.71 3.19 7.25L354 416h-2v-2h-4q-.06-3.5 0-7z" fill="#131519"/><path d="M347 381v3l-1 1q-.14 2.87-.12 5.75l-.01 3.17c.12 2.81.49 5.35 1.13 8.08h-2c-2.98-4.97-2.66-10.39-2-16 2-3.25 2-3.25 4-5" fill="#989883"/><path d="m848 413 2 2-.94 2.06c-1.06 2.94-1.06 2.94-1.5 6.63L847 427l-3 2c-.36-5.8.69-9.65 3-15z" fill="#F0F1F3"/><path d="M358 414h6v4h11c-2 2-2 2-5.75 2.31-4.03-.1-6.85-1.07-10.25-3.31z" fill="#DFD178"/><path d="M302 259a40 40 0 0 1 9.81 7.69l2.4 2.45L316 271l-1 3q-3.26-3.18-6.5-6.38l-1.88-1.82-1.78-1.76-1.65-1.62C302 261 302 261 302 259" fill="#D0D2D1"/><path d="m732.75 242.44 2.42.3 1.83.26 1 3c-12.67.19-12.67.19-18-1 4.45-2.38 7.72-3.23 12.75-2.56" fill="#CDCDD0"/><path d="M253 674h1l.11 2.01c.38 5.06.7 8.83 3.89 12.99l-2 1v-2h-6l-1-3 4-2z" fill="#BBBDBE"/><path d="m302 360 3 1v2l1.75.62c3.09 1.9 4.44 4.28 6.25 7.38v2l-3-1v-2h-4v-2h2v-2l-4-1v-3h-2z" fill="#DCDB93"/><path d="m290.38 358.24 1.62.76-4 1v2a93 93 0 0 1-5.32 3.44c-3.24 1.96-6.14 3.72-8.68 6.56 1.4-4.86 3.87-6.9 7.87-9.88q.79-.6 1.61-1.26c3.93-2.92 3.93-2.92 6.9-2.62" fill="#B9BB82"/><path d="M768 252q2.91.39 5.81.81l3.27.46c2.98.75 4.06 1.35 5.92 3.73-4.15 1.19-6.39.79-10.31-.94l-2.68-1.15L768 254z" fill="#E0E0E3"/><path d="M902 479c3.59 1.43 4.97 3.02 6.81 6.38l1.33 2.33c.98 2.6.81 3.73-.14 6.29l-3.44-5.25-1.93-2.95A18 18 0 0 1 902 479" fill="#DCDBDE"/><path d="M336 412v4h-6v2h-2l-1 3-2-1v-3c1.39-1.39 1.39-1.39 3.25-2.69l1.83-1.32C332 412 332 412 336 412" fill="#0E110C"/><path d="M377 387h1v13h-2v4h-2v2h-2l-1 3-2-2 1.28-1.68 1.66-2.2 1.65-2.17c2.25-3.11 2.63-5.29 2.97-9.07l.26-2.76z" fill="#C3BE71"/><path d="M294 400h2v4h7c-3.46 2.31-4.98 2.3-9.06 2.31l-3.23.05L288 406l-2-3 8 1z" fill="#DBC75D"/><path d="M278 241c3.06.85 6.03 1.87 9 3-3.68 1.23-5.88.7-9.69.06l-3.57-.59L271 243l-1 3-3-2c3.56-3.41 6.18-3.47 11-3" fill="#EBEFEE"/><path d="M760 673h18l-4 1 1 3c-3.38.12-3.38.12-7 0l-2-2q-2.99-.6-6-1z" fill="#ABAAAE"/><path d="m299 642 3 1-2 4h-2l-1 2c-1.88 1.69-1.88 1.69-4 3l-3-1 2.81-3.38 1.58-1.89C296 644 296 644 299 642" fill="#090C0D"/><path d="m275 447 5.31 3.31 2.99 1.87A29 29 0 0 1 289 457c-4.53 0-5.64-.77-9.25-3.31l-2.7-1.87L275 450z" fill="#DCDEDD"/><path d="M845 334c4 2 4 2 4.81 4.31.2 2.84-.25 4.9-.81 7.69-.09 3.33-.06 6.66 0 10h-1z" fill="#CECFD2"/><path d="M527 300c-2.21 2.21-4.21 3.24-7 4.62l-2.69 1.36C515 307 515 307 513 307a11.5 11.5 0 0 1 4.19-5.75c3.43-1.53 6.09-1.47 9.81-1.25" fill="#DFE0E0"/><path d="M267 245h2c-.57 5.45-1.95 9.91-4 15-1.12-1.56-1.12-1.56-2-4a38 38 0 0 1 4-11" fill="#D5D9D7"/><path d="m347 400 8 5-3 4-1-3-3 1-3-5h2z" fill="#C3B56F"/><path d="M831 548c2.74 4.1 2.33 7.11 1.5 11.88L832 562h-2l-1 2a48 48 0 0 1 2-16" fill="#EFEEF2"/><path d="m324 500 3 1-8 13-2-2a494 494 0 0 1 7-12" fill="#DFE1E3"/><path d="m578 273 1 2 2 1-14 6v-3z" fill="#E1E1E1"/><path d="M820 605h3c-1.17 8.19-1.17 8.19-4.62 11.56L816 618l1.44-5.94.81-3.34C819 606 819 606 820 605" fill="#DFDFE1"/><path d="M378 408h2l.31 2.38C381 413 381 413 384 415l-9 4-1-3 4-2z" fill="#E9DA67"/><path d="M317 693c-1.47 2.94-3.83 3.34-6.79 4.4-3.19.86-5.93.81-9.21.6 2.86-1.91 5.35-3 8.56-4.19l2.94-1.1c2.5-.71 2.5-.71 4.5.29" fill="#A3A2A5"/><path d="m843 427 4 2a29 29 0 0 1-3 8l-1.12 2.25L842 441c-1.14-3.4-.84-5.77-.06-9.25l.59-2.7z" fill="#D8DADC"/><path d="m313 370 1 4h2l2 2c-.02 3.04-.02 3.04-.38 6.62l-.33 3.61L317 389h-1l-.15-1.79c-.42-4.47-1.12-8.05-2.85-12.21-.12-2.81-.12-2.81 0-5" fill="#211C0E"/><path d="m263 278 3 1a41 41 0 0 1 2 6l-3 2c-.69 2.62-.69 2.62-1 5h-1z" fill="#0A0A09"/><path d="M626 257v2c-4.12 1.63-6.71 2.26-11 1 1-2 1-2 3.25-3.19 3.05-.9 4.73-.67 7.75.19" fill="#F0F0F3"/><path d="M242 662v2h-3v2l-7 3-4-3 5.88-2 3.3-1.12C240 662 240 662 242 662" fill="#DADBDB"/><path d="m384 640-1 4h-2v2h5c-3.63 2.33-6.77 2.16-11 2 0-2 0-2 1.46-3.51l1.92-1.61 1.89-1.64C382 640 382 640 384 640" fill="#DEDEE1"/><path d="M335 602h2c-.31 1.94-.31 1.94-1 4l-3 1-.44 1.88c-.75 2.83-2.16 3.57-4.56 5.12l-2-1 1.46-1.64q.94-1.08 1.92-2.17l1.89-2.15C333 605 333 605 335 602" fill="#1D1D21"/><path d="M396 390h2v12h-2v2h-2z" fill="#11090A"/><path d="m307 396 1 2h2c-.19 1.88-.19 1.88-1 4-2.56 1.25-2.56 1.25-5 2-.19-2.88-.19-2.88 0-6z" fill="#E7D46D"/><path d="m371 370 5 2v4h-7z" fill="#ECEA68"/><path d="M923 274c3.92 3.8 7.49 7.82 11 12-3 0-3 0-5.44-2.25L926 281l-2.31-2.31L922 277z" fill="#E9E9E9"/><path d="M926 510q3.54.39 7.06.94l3.91.59 3.03.47-4 1v2q-2.19-.42-4.38-.88l-2.46-.49C927 513 927 513 925 511z" fill="#D8D8D9"/><path d="M324 417c2.15 3.23 2.2 4.28 2 8-3.83-1.45-5.12-3.43-7-7z" fill="#6E706B"/><path d="M302 362h2l1 3 3 1v2h-5l1 2q.06 3 0 6c-2-2-2-2-2.2-4.82l.08-3.3.05-3.33z" fill="#F2E681"/><path d="M278 245h5l-2 1c.38 2.44.38 2.44 1 5l2 1-8-1z" fill="#161918"/><path d="m839 450 2 2 2-2c-.39 6.05-.39 6.05-1 8l-4 2z" fill="#DBDBDE"/><path d="m302 375 2 1q-.14 2.16-.31 4.31l-.18 2.43c-.59 2.62-1.47 3.57-3.51 5.26l.44-5.38.24-3.02c.32-2.6.32-2.6 1.32-4.6" fill="#B5AB54"/><path d="M378 370c4.31 1.08 7.64 2.04 11 5l-1 2c-3.87-1.14-7-2.23-10-5z" fill="#B5AA56"/><path d="M532 294h2c-.19 1.88-.19 1.88-1 4-3.38 1.88-6.18 2.22-10 2 2.36-2.74 4.64-3.76 8-5z" fill="#EEECF0"/><path d="M402 276h2a30 30 0 0 1-5.12 7.75l-1.64 1.86L396 287l-2-2 3.44-3.94 1.93-2.21q1.28-1.47 2.63-2.85" fill="#D7D7D9"/><path d="m243 604 3 1-11 10-1-3z" fill="#DADADB"/><path d="m316 406 5 2-1 6h-4z" fill="#99A093"/><path d="m277 398 10 6-1 2h-4v-3l-4-1z" fill="#261F10"/><path d="m398 283 2 4-1.5.99-1.94 1.32-1.93 1.3C393 292 393 292 392 295h-2c.59-3.66 2.08-5.55 4.56-8.25l1.94-2.14z" fill="#1A1A1C"/><path d="m409 274 4 2-5.88 3.44-3.3 1.93A86 86 0 0 1 399 284c1.51-4.22 4.3-5.69 8-8z" fill="#050606"/><path d="M271 648h14l1 2c-5.35 1-9.62.85-15 0z" fill="#EBEDEF"/><path d="m819.19 639.44 2.73.87 2.08.69v1c-4.83.09-9.23-.04-14-1 2.12-4.24 5.46-2.77 9.19-1.56" fill="#F1F1F5"/><path d="M377 548h2c-.58 3.88-2.33 6.18-5 9-2.14.64-2.14.64-4 1l1.28-1.68 1.66-2.2 1.65-2.17C376 550 376 550 377 548" fill="#1E2020"/><path d="M593 512v3l-4 1v2c-2.88.62-2.88.62-6 1l-2-2z" fill="#E4E3E5"/><path d="m297 392 1 2h2l-2 6h-2v-2l-4-1z" fill="#E2D971"/><path d="m458 574 1 2-3.38 3.94-1.89 2.21C452 584 452 584 450 585c.57-3.63 1.92-5.26 4.56-7.75l1.94-1.86z" fill="#E0E3E0"/><path d="M390 404h2c-1.43 5.01-3.98 6.94-8 10v-4h2v-2h2v-2h2z" fill="#E1D46E"/><path d="m354 406 6 1v2l-1.94.31-2.06.69-1 3c-2-3-2-3-1.62-5.19z" fill="#D6CC6F"/><path d="M914 269c3.38 1.19 5.65 2.28 8 5l-1 3q-1.76-1.14-3.5-2.31l-1.97-1.3L914 272z" fill="#DBDCDC"/><path d="M464 680c-5.66 3.27-10.68 3.14-17 2v-1c5.71-.74 11.24-1.1 17-1" fill="#E2E2E4"/><path d="m393 401 1 3h2v2h-2v4h-2l-1 2c-1.15-3.55-1.09-4.8.44-8.31z" fill="#2F2314"/><path d="M287.75 362.13c3.35 1.3 5.56 3.49 8.25 5.88q-1.48.48-3 1c-3-1.82-3-1.82-6-4q-1.48-1-3-2c2-1 2-1 3.75-.88" fill="#211F0E"/><path d="M295 358h4l2 7-3 1c-3-6.88-3-6.88-3-8" fill="#E4DE6D"/><path d="M367 286c4.92-.17 8.5-.25 13 2l-1 2-12-2z" fill="#F0F1F1"/><path d="M263 265h1v11l3-1c0 3 0 3-1.5 4.69L264 281c-1.14-3.42-1.1-6.09-1.06-9.69l.02-3.57z" fill="#323230"/><path d="M280 244c6.52.34 9.33 1.44 14 6l-3 1a381 381 0 0 1-5-4c-3.31-1.25-3.31-1.25-6-2z" fill="#D4D8D8"/><path d="M204 663q2.19.42 4.38.88l2.46.49C213 665 213 665 215 667h-2l-1 2c-5.75-2.62-5.75-2.62-8-6" fill="#E3E3E6"/><path d="m812 629 4 3c-.81 2.44-.81 2.44-2 5l-3 1z" fill="#E4E4E6"/><path d="M469 563c0 3.5-.54 4.06-2.75 6.62l-1.55 1.86c-1.9 1.7-3.21 2.12-5.7 2.52 3.21-3.81 6.41-7.55 10-11" fill="#D4D5D6"/><path d="M948 478h2c3 5.75 3 5.75 3 8h-3v-2h-2z" fill="#1F1F22"/><path d="m373 369 5 1v2l3 1c-1.38 1.5-1.38 1.5-3 3h-2l-.38-1.94L375 372l-2-1z" fill="#E2DC64"/><path d="m282 628 2 1c-1.37 3.16-1.99 3.99-5 6l-3-1z" fill="#DEE0E1"/><path d="M833 484h1l.44 3.38C835 491 835 491 836 493l-2 2q-.6 2.99-1 6h-1z" fill="#C6C7C8"/><path d="M949 477c1.94.31 1.94.31 4 1 1.16 3.47 1.07 6.36 1 10a149 149 0 0 1-5-11" fill="#E3E3E6"/><path d="M356 416c3.15.7 6.03 1.76 9 3v1h-9z" fill="#2C2317"/><path d="M955 372h1c.93 5.42 1.21 8.8-1 14h-1c-.08-4.83.05-9.24 1-14" fill="#D5D5D8"/><path d="M959 346c2.4 2.4 2.34 3.33 2.62 6.62l.23 2.48.15 1.9-3 1z" fill="#F0F0F2"/><path d="M361 659c-1.49 3.79-3.69 5.68-7 8h-2c1.29-3.87 4.59-8 9-8" fill="#C2C3C5"/><path d="M272 651h7l-1 4-1-2-3 2-2-1z" fill="#07070A"/><path d="M323 612h2l1 3-4 4-3-1q1.91-3.06 4-6" fill="#E7E8EA"/><path d="M508 542v2l2 1q-2.19.33-4.38.62l-2.46.36-2.16.02-2-2c5.62-2 5.62-2 9-2" fill="#1B1C1D"/><path d="M911 491a42 42 0 0 1 6 7v2c-2.47-1.15-4.05-2.05-6-4-.12-2.62-.12-2.62 0-5" fill="#C5C5C6"/><path d="M361 486h2v2h3c1.06 1.81 1.06 1.81 2 4l-1 3-3-3.38-1.69-1.89C361 488 361 488 361 486" fill="#1F1F20"/><path d="m957 340 3 1-1 14h-1z" fill="#DCDCDE"/><path d="M442 325h1q-.17 2.72-.38 5.44l-.21 3.06-.41 2.5-2 1c-1.64-4.93-.19-7.54 2-12" fill="#19191C"/><path d="M645 253c-3.4 2.09-6.05 2.18-10 2l1-3c3.47-1.61 5.67-.57 9 1" fill="#DFDFE3"/><path d="m275 635 3 1-5 6-2-2z" fill="#EEF1F1"/><path d="M303 610h3l-1 3h-2l-2 4-2-2c1.81-2.5 1.81-2.5 4-5" fill="#EDEFEE"/><path d="M389 531c0 4.39-2.13 5.77-5 9l-3-1z" fill="#A1A2A5"/><path d="M309 522a12 12 0 0 1 1 4c-1.25 2.25-1.25 2.25-3 4h-3l2-4h2z" fill="#EEEEEF"/><path d="M349 406h2a55 55 0 0 1 3 5c-2.49 1.25-3.41.78-6 0z" fill="#5B5132"/><path d="m305 404-1 3h-14v-1l6.38-1 3.58-.56C303 404 303 404 305 404" fill="#4F482C"/><path d="M909 332h3c1.26 2.91 2 4.8 2 8l-3-1c-1.19-3.56-1.19-3.56-2-7" fill="#D0D0D3"/><path d="M932 286h3c1.39 1.53 1.39 1.53 2.69 3.5l1.32 1.97.99 1.53h-3c-5-5.47-5-5.47-5-7" fill="#DBDBDB"/><path d="M316 272c3.82 1.56 6.19 4.04 9 7-3.87-.57-6.15-2.39-9-5z" fill="#E3E2E2"/><path d="M903.13 262.75C905 264 905 264 906 267l-8-2v-2c3-1 3-1 5.12-.25" fill="#D6D6D8"/><path d="M326 471h9l-1 3q-3.51-.39-7-1z" fill="#F4F6F7"/><path d="m382 415 2 1c-1.12 2-1.12 2-3 4-3.19.25-3.19.25-6 0 2.12-2.33 4.05-3.86 7-5" fill="#302413"/><path d="M906 392c1.47 3.81.43 6.29-1 10h-2l.94-4.44.52-2.49C905 393 905 393 906 392" fill="#EDEFF2"/><path d="M250 375h1v11c-2.14-3.22-2.68-5.19-3-9z" fill="#E9EAEE"/><path d="m651 248 1 2-2-1zm-1 2v2l-7 1 1-3c2.57-1 3.49-1.26 6 0" fill="#EFEEF3"/><path d="M255 682c2.96 2.81 5.44 5.18 7 9-2.86-1.28-5.07-2.49-7-5z" fill="#070909"/><path d="m268 649 11 1v1l-2.08.18-2.73.26-2.71.24C269 652 269 652 266 653z" fill="#C9CACC"/><path d="M821 592h1q-.17 2.19-.38 4.38l-.21 2.46C821 601 821 601 819 603l-1-6 2-1c.62-2.06.62-2.06 1-4" fill="#08090A"/><path d="M826 567h1l-1 9-3-1a29 29 0 0 1 3-8" fill="#08090A"/><path d="m828 561 4 2-2 7c-2.29-3.44-2.18-4.99-2-9" fill="#D3D6D8"/><path d="M298 538h2c-.75 2.44-.75 2.44-2 5-2.12.81-2.12.81-4 1 1.15-2.47 2.05-4.05 4-6" fill="#E6E7EA"/><path d="M252 417a40 40 0 0 1 5 8c-1.88-.12-1.88-.12-4-1-1.25-3.06-1.25-3.06-2-6z" fill="#D5D6D5"/><path d="M332 412h4v4h-6z" fill="#070C03"/><path d="M320 406h9l1 3-4 2v-4h-6z" fill="#8A8B7F"/><path d="M284 398h4v2l3 1-5 2v-3h-2z" fill="#ECD154"/><path d="M743 245v3l-9-1c3.77-1.88 5.03-2.22 9-2" fill="#CBCBCD"/><path d="m801 658 2 1c-1.29 2.87-2.57 4.98-5 7h-2a40 40 0 0 1 5-8" fill="#B1B2B1"/><path d="m955 499 2 1-3 6-3-1c1.75-4.88 1.75-4.88 4-6" fill="#DDDDDE"/><path d="M390 409v7h-3c-.69-1.81-.69-1.81-1-4 2.36-3 2.36-3 4-3" fill="#1C160F"/><path d="m906 396 1 2 3-1c0 3 0 3-1.38 4.69C907 403 907 403 905 403z" fill="#1E2021"/><path d="M849 392h2l1 6-3 2z" fill="#F5F6F8"/><path d="m911 390 1 2a96 96 0 0 1-3 6h-2c.5-3.69 1.1-5.6 4-8" fill="#070808"/><path d="M374 382h2v4h-2l-1 3h-1c-.12-2.38-.12-2.38 0-5z" fill="#0B0E08"/><path d="M916 360h2c.69 2.81.69 2.81 1 6l-3 3z" fill="#1B1C1F"/><path d="m302 360 3 1v2l1.94.88C309 365 309 365 310 367l-6-1v-4h-2z" fill="#D3CA84"/><path d="m897 313 7 6-3 1c-2-1.81-2-1.81-4-4z" fill="#D5D4D8"/><path d="m512 304 1 4-5 2v-4z" fill="#E8E8E8"/><path d="M419 263c.98 3.05.98 4.95 0 8l-3-1c1.88-5.88 1.88-5.88 3-7" fill="#1B1D1F"/><path d="M432 261c2.38.31 2.38.31 5 1l2 3a24 24 0 0 1-7-1z" fill="#17171A"/><path d="m426 254 7 1v2h-8z" fill="#F0F3F2"/><path d="M271 243c3.38-.12 3.38-.12 7 0l2 2-3 3-3-2 2-1-5-1z" fill="#3F4243"/><path d="m271 638 1 2c-1.44 2.62-1.44 2.62-3 5l-3-2z" fill="#DDDEDE"/><path d="M436 591c2.19.31 2.19.31 4 1l-5 4-2-2c1.25-1.56 1.25-1.56 3-3" fill="#212321"/><path d="m370 405-1 3h-9c3.51-1.76 6.1-3 10-3" fill="#1E1F12"/><path d="M903 402h2l-2 9h-1c-.1-6.15-.1-6.15 0-8z" fill="#D9D9DF"/><path d="m292 394 4 1c-2 2-2 2-4.38 2.2l-2.74-.08-2.76-.05L284 397v-1h8z" fill="#2E1E05"/><path d="M352 372h6a295 295 0 0 1-5 5h-1z" fill="#1F2212"/><path d="M289 362c2.39.58 4.67 1.22 7 2l-1 3c-3.16-1.37-3.99-1.99-6-5" fill="#AEAD58"/><path d="m446 333 2 1v3l3 1h-6z" fill="#E7E6E9"/><path d="M464 328c2 1 2 1 3 3l-7 3v-3l4-1z" fill="#E0DFE2"/><path d="M409 270v3c-2.5 2.19-2.5 2.19-5 4v-3c2.5-2.19 2.5-2.19 5-4" fill="#E3E3E4"/><path d="M302 259c3.26 1.8 4.89 2.83 7 6-3 0-3 0-5.19-1.88C302 261 302 261 302 259" fill="#DCE1DF"/><path d="m733.63 242.88 3.38.12c.33 1 .64 1.97 1 3l-10-1c2-2 2-2 5.62-2.12" fill="#F3F3F7"/></svg>