<svg style="background:transparent" version="1.1" xmlns="http://www.w3.org/2000/svg" viewBox="0 0 1248 704"><path d="M521.45 12.72A42 42 0 0 1 532 20v2l1.75.3c2.6.8 4.22 1.89 6.25 3.7v2l1.76.29c2.7.86 4 2.08 6.05 4.02a43 43 0 0 0 9.34 6.6c3.15 1.87 5.94 4.17 8.78 6.47l3.68 2.92 1.76 1.4c12.08 9.6 12.08 9.6 20.6 9.66q1.2 0 2.46.04l8.07.08 2.8.02q7.3.06 14.63.09 7.54.04 15.07.17 5.82.07 11.63.08 2.78 0 5.55.07c10.3.19 17.64.17 25.8-6.93L680 51q1.55-1.33 3.12-2.62L686 46q1.89-1.27 3.81-2.5c6.25-4.08 12.1-8.72 18-13.28C734.85 9.37 734.85 9.37 744.01 10c7.21 1.73 12.92 4.54 16.94 10.92 4.74 9.4 3.67 20.68 2.3 30.85-.52 4.58-.64 9.19-.82 13.79l-.13 3.3q-.44 12.62-.27 25.26c.05 4.4-.07 8.69-.53 13.07-.5 5.37-.63 10.67-.6 16.07v2.9l.02 6.19.03 9.78.05 20.75a19336 19336 0 0 1 .1 39.64l.01 2.7c0 8.3-1.89 14.45-5.55 21.9q-.6 1.27-1.25 2.58a21 21 0 0 1-4.3 5.3l-1.2 2.25c-2.19 3.33-4.8 5.5-7.84 8.06-1.97 1.69-1.97 1.69-4.4 4.25a46 46 0 0 1-7.14 5.5l-2.34 1.55L725 258c-2.63 1.75-2.63 1.75-4 4-.35 6.66 1.63 12.86 4 19l.91 2.43a177 177 0 0 0 8.1 17.57l1.42 2.94q1.42 2.79 2.94 5.52c2.93 5.24 5.5 10.4 7.63 16.02 1.07 2.7 2.3 5.28 3.56 7.9 2.23 4.8 3.52 9.55 4.7 14.72.71 2.8 1.66 5.3 2.8 7.96 1.86 4.4 2.7 8.63 3.43 13.34a34 34 0 0 0 2.13 6.85c1.43 3.9 1.53 6.64 1.38 10.75l1 4q.3 2.66.5 5.3c.24 3.05.55 6.02 1.02 9.03.53 4.05.63 7.97.6 12.05v2.25C767 433 767 433 765 437v3.5c0 3.5 0 3.5-1 5.5q-.54 2.5-1 5l-1 5 1.87-.44c10.12-2.21 20-2.94 29.21 2.72q2.49 1.81 4.92 3.72l3 1-1.38-3.25c-5.6-15.2-7.03-36.13-1.25-51.37L800 405l.8-2.26c2.51-7.05 6.55-16.22 13.4-19.93l1.8-.81.93-2c1.46-2.75 3.25-2.87 6.07-4l.93-1.93c1.28-2.48 2.2-2.97 4.7-4.1l2.2-1.02 2.3-1.01 2.22-1.03c12.04-5.48 24.35-9.26 37.65-9.91l3.06-.16c21.23-.56 40.46 5.24 59.37 14.4l3.34 1.6c9.78 4.9 18.53 11.49 22.23 22.16 1.58 5.44.81 8.9-1.63 13.85-3.07 4.8-7.76 8.85-13.37 10.15-9.84 1.5-19.66-2.32-29-5l-4.03-1.12c-5.72-1.6-11.4-3.28-17-5.27-5.84-1.81-11.49-1.8-17.54-1.8l-2.86-.03-2.76-.01-2.5-.01c-2.54.26-4.1 1-6.3 2.24l-2.26.69c-6.82 3.25-11.66 8.5-14.75 15.3a41.4 41.4 0 0 0 0 21l.37 3.2a46 46 0 0 0 1.98 7.99l.81 2.39.84 2.43c5.21 15.36 9.9 30.59 9 47l-.06 3.34c-.36 10.05-2.63 19.12-5.42 28.73-.52 1.93-.52 1.93-.97 4.64-.74 3.05-2.2 5.19-3.93 7.79-3.57 5.42-3.57 5.42-5.2 8.17a49 49 0 0 1-5.04 6.7q-1.47 1.74-2.86 3.5c-2.98 3.69-4.99 5.49-9.52 7.13l-.78 1.79c-1.72 3.12-4.02 4.4-6.97 6.34l-3.1 2.07A42 42 0 0 1 807 592q-2.54.98-5.07 2l-2.47 1-4.98 2.05a51 51 0 0 1-7.17 2.14l-2.32.54C783 600 783 600 781 599l-.84 1.8a28 28 0 0 1-3.8 5.48l-1.56 1.8-1.62 1.86-1.58 1.84a168 168 0 0 1-14.23 14.53l-2.29 2.12C753 630 753 630 750 630l-2 4h-2c2 2 3.92 3.25 6.31 4.75 5.52 3.65 9.9 7.66 11.7 14.25 1.84 10.78 1.84 10.78-1 15-7.96 8.29-15.55 9.7-26.68 10.1q-4.16.03-8.33-.1l-2.84-.05c-8.62-.4-16.14-2.98-24.16-5.95l-1 1 1.64 1.36c6.04 5.1 9.3 8.63 10.36 16.64q.09 3.43.06 6.88l-.03 3.49L712 704q-13.95.22-27.9.3a1857 1857 0 0 0-12.96.15q-6.26.1-12.5.12-2.4 0-4.78.07-3.34.06-6.69.04l-3.84.04c-4.69-1.01-5.68-2.8-8.33-6.72-1.1-2.96-1.1-2.96-1.75-5.81-1.19-5.13-1.19-5.13-2.25-6.2q-.14-2.7-.13-5.43v-3C631 675 631 675 632 673l1-6 1-4h-16l2 4c.2 3.35.2 3.35.12 7.06l-.05 3.73-.07 3.2q0 3.2.06 6.39c-.12 7.03-2.2 10.85-6.06 16.62-3 .38-3 .38-6.9.39l-2.15.02-7.05-.01h-4.88l-10.25-.01h-13.16q-5.04.03-10.09 0-2.43 0-4.85.02l-6.78-.02-3.89-.01-3-.38c-2.55-3.83-2.44-5.43-2-10a93 93 0 0 1 3.12-7.67C543 684 543 684 543 680c-1.5-2.75-1.5-2.75-3-5l-2 .94c-7.3 2.58-14.82 2.14-22.44 1.8l-2.99-.07c-7.8-.32-15.35-1.02-21-6.86-2.75-3.67-4.6-7.15-4.57-11.81 1.38-5.31 3.6-9.7 7-14l1.87-2.56c2.68-3.07 5.53-4.64 9.13-6.44v-2c-1.76-1.55-1.76-1.55-4.13-3.31l-2.49-1.9q-1.18-.87-2.38-1.8a49 49 0 0 1-8.63-8.18C485 616 485 616 483.03 615c-2.24-1.11-3.32-2.22-4.9-4.16l-1.55-1.88L475 607l-1.56-1.9-4.63-5.72-1.58-1.95A80 80 0 0 1 460 587l-3.5-5.31a50 50 0 0 1-5.75-11.65c-.93-2.51-2.14-4.8-3.38-7.16A29 29 0 0 1 444 552a268 268 0 0 0-3.07-10.37 63 63 0 0 1-1.69-10.81C439 529 439 529 438 528q-.01-2.85.06-5.7c-.06-2.3-.06-2.3-.56-5.1a67 67 0 0 1-.63-10.76v-3.88A41 41 0 0 1 438 494l.83-3.45c3.57-13.83 7.23-24.41 19.82-32.26 8.87-4.88 18.26-5.71 28.1-3.3l3.25 1-.4-1.82-.54-2.54-.53-2.46c-.74-4.37-1.12-8.76-1.53-13.17l-.57-5.61-.56-5.7-.3-2.92-.27-2.82-.25-2.52A30 30 0 0 1 486 409q.06-3.37 0-6.75a145 145 0 0 1 0-6.25l1-1q.27-2.2.43-4.44c1.04-11.2 3.51-22.71 7.68-33.16 1.54-4.16 2.8-8.43 4.1-12.68 1.1-3.65 2.35-7.18 3.8-10.72l.87-2.81a91 91 0 0 1 5.05-11.2l1.06-2.07 2.06-4.05 2.47-4.96c2.2-4.33 4.6-8.55 6.95-12.8 1.4-2.84 1.93-5.03 2.53-8.11q1.47-3.01 3-6c6.08-16.21 6.08-16.21 4-22-3.48-3.77-7.69-6.22-12.07-8.81l-1.93-1.2v-2c-.28-.1-.28-.1-1.69-.68-3-1.7-4.95-3.78-7.3-6.31l-1.7-1.75c-10.48-11.24-14.5-25.54-14.4-40.67v-2.5l.01-5.37.03-8.61q.01-10.74.06-21.46c.14-43.01.14-43.01-.45-62.31l-.12-3.92q-.33-9.97-1.24-19.91a94 94 0 0 1-.2-9.62c.04-3.91-.03-7.64-.57-11.5-.58-5.16-.43-10.27-.25-15.44l.06-2.54c.33-7.37 2.4-13.37 6.94-19.21 8.43-6.55 15.5-7.62 25.27-3.47M689 665l1 3c2.06.69 2.06.69 4 1-1.38-2-1.38-2-3-4zm-133 3a173 173 0 0 0-8 5l3 2 7-5z" fill="#151816"/><path d="m927 370 2.07 1.07c25.79 13.4 25.79 13.4 29.93 23.93.94 5.59-.2 10.05-3 15-4.32 4.57-8.29 6.17-14.5 6.38-11.86-.1-23.25-4.22-34.38-8-13.52-4.59-30.24-9.19-44.21-3.42-8.37 4.55-15.28 11.13-18.91 20.04a54 54 0 0 0-.44 8.88l.02 2.52c.28 11.17 3.41 21.17 7.41 31.54 2.26 6.85 3.57 14 5.01 21.06l.54 2.4c2.39 13.49 1.58 29.54-2.54 42.6l-1.07 3.52c-4.06 12.36-10.39 22.71-18.93 32.48l-1.79 2.08c-11.3 12.21-31.11 23.24-47.83 24.11L782 596c1.41-2.89 2.94-5.66 4.57-8.42 10.75-18.33 17.52-35.1 22.67-55.77q.82-3 1.81-5.97c7.32-21.97-2.98-48.94-9.35-70.06q-.87-2.88-1.7-5.78l-.58-1.98c-4.96-18.17-.48-37.31 8.57-53.3 10.48-17.77 27.51-27.17 46.78-32.83 23.38-5.21 50.82-3.02 72.23 8.11" fill="#0F1110"/><path d="M521.45 12.72A42 42 0 0 1 532 20v2l1.75.3c2.6.8 4.22 1.89 6.25 3.7v2l1.76.29c2.7.86 4 2.08 6.05 4.02a43 43 0 0 0 9.34 6.6c3.15 1.87 5.94 4.17 8.78 6.47l3.68 2.92 1.76 1.4c12.08 9.6 12.08 9.6 20.6 9.66q1.2 0 2.46.04l8.07.08 2.8.02q7.3.06 14.63.09 7.54.04 15.07.17 5.82.07 11.63.08 2.78 0 5.55.07c10.3.19 17.64.17 25.8-6.93L680 51q1.55-1.33 3.12-2.62L686 46q1.89-1.27 3.81-2.5c6.25-4.08 12.1-8.72 18-13.28C734.85 9.37 734.85 9.37 744.01 10c7.21 1.73 12.92 4.54 16.94 10.92 4.74 9.4 3.67 20.68 2.3 30.85-.52 4.58-.64 9.19-.82 13.79l-.13 3.3q-.44 12.62-.27 25.26c.05 4.4-.07 8.69-.53 13.07-.5 5.37-.63 10.67-.6 16.07v2.9l.02 6.19.03 9.78.05 20.75a19336 19336 0 0 1 .1 39.64l.01 2.7c0 8.3-1.89 14.45-5.55 21.9q-.6 1.27-1.25 2.58a21 21 0 0 1-4.3 5.3l-1.2 2.25c-2.19 3.33-4.8 5.5-7.84 8.06-1.97 1.69-1.97 1.69-4.4 4.25a46 46 0 0 1-7.14 5.5l-2.34 1.55L725 258c-2.63 1.75-2.63 1.75-4 4-.35 6.66 1.63 12.86 4 19l.91 2.43a177 177 0 0 0 8.1 17.57l1.42 2.94q1.42 2.79 2.94 5.52c2.93 5.24 5.5 10.4 7.63 16.02 1.07 2.7 2.3 5.28 3.56 7.9 2.23 4.8 3.52 9.55 4.7 14.72.71 2.8 1.66 5.3 2.8 7.96 1.86 4.4 2.7 8.63 3.43 13.34a34 34 0 0 0 2.13 6.85c1.43 3.9 1.53 6.64 1.38 10.75l1 4q.3 2.66.5 5.3c.24 3.05.55 6.02 1.02 9.03.53 4.05.63 7.97.6 12.05v2.25C767 433 767 433 765 437v3.5c0 3.5 0 3.5-1 5.5q-.54 2.5-1 5l-1 5 1.87-.44c10.12-2.21 20-2.94 29.21 2.72q2.49 1.81 4.92 3.72l3 1-1.38-3.25c-5.6-15.2-7.03-36.13-1.25-51.37L800 405l.8-2.26c2.51-7.05 6.55-16.22 13.4-19.93l1.8-.81.93-2c1.46-2.75 3.25-2.87 6.07-4l.93-1.93c1.28-2.48 2.2-2.97 4.7-4.1l2.2-1.02 2.3-1.01 2.22-1.03c12.04-5.48 24.35-9.26 37.65-9.91l3.06-.16c21.23-.56 40.46 5.24 59.37 14.4l3.34 1.6c9.78 4.9 18.53 11.49 22.23 22.16 1.58 5.44.81 8.9-1.63 13.85-3.07 4.8-7.76 8.85-13.37 10.15-9.84 1.5-19.66-2.32-29-5l-4.03-1.12c-5.72-1.6-11.4-3.28-17-5.27-5.84-1.81-11.49-1.8-17.54-1.8l-2.86-.03-2.76-.01-2.5-.01c-2.54.26-4.1 1-6.3 2.24l-2.26.69c-6.82 3.25-11.66 8.5-14.75 15.3a41.4 41.4 0 0 0 0 21l.37 3.2a46 46 0 0 0 1.98 7.99l.81 2.39.84 2.43c5.21 15.36 9.9 30.59 9 47l-.06 3.34c-.36 10.05-2.63 19.12-5.42 28.73-.52 1.93-.52 1.93-.97 4.64-.74 3.05-2.2 5.19-3.93 7.79-3.57 5.42-3.57 5.42-5.2 8.17a49 49 0 0 1-5.04 6.7q-1.47 1.74-2.86 3.5c-2.98 3.69-4.99 5.49-9.52 7.13l-.78 1.79c-1.72 3.12-4.02 4.4-6.97 6.34l-3.1 2.07A42 42 0 0 1 807 592q-2.54.98-5.07 2l-2.47 1-4.98 2.05a51 51 0 0 1-7.17 2.14l-2.32.54C783 600 783 600 781 599l-.84 1.8a28 28 0 0 1-3.8 5.48l-1.56 1.8-1.62 1.86-1.58 1.84a168 168 0 0 1-14.23 14.53l-2.29 2.12C753 630 753 630 750 630l-2 4h-2c2 2 3.92 3.25 6.31 4.75 5.52 3.65 9.9 7.66 11.7 14.25 1.84 10.78 1.84 10.78-1 15-7.96 8.29-15.55 9.7-26.68 10.1q-4.16.03-8.33-.1l-2.84-.05c-8.62-.4-16.14-2.98-24.16-5.95l-1 1 1.64 1.36c6.04 5.1 9.3 8.63 10.36 16.64q.09 3.43.06 6.88l-.03 3.49L712 704h-4l.14-3c.33-9.9-.57-16.21-7.27-23.75-4.02-3.82-8.66-5.56-13.87-7.25v-9a51 51 0 0 1 8.93 4.3c11.95 6.79 23.3 8.9 36.75 8.95l3.77.06c15.72.07 15.72.07 21.22-4.8 3.2-3.65 2.72-7.67 2.66-12.33-.62-5.92-2.9-10.14-7.46-13.96A86 86 0 0 0 740 636a64 64 0 0 1 9.43-8 161 161 0 0 0 14.72-12.2 60 60 0 0 0 7.63-8.47c6.97-9.4 12.87-12.22 24.17-15 19.36-4.78 36.77-18.45 47.05-35.33a101 101 0 0 0 12-32l.53-2.36c3.65-20.5-.88-40.83-7.66-60.04-4.4-12.57-7.8-27.34-4.03-40.54A29 29 0 0 1 848 416l1.8-2.13c6.72-7.31 13.94-11.46 23.88-12.11 9.21-.24 17.22.7 26.07 3.53q5.51 1.73 11.05 3.4 3 .91 6 1.85c22.9 7.1 22.9 7.1 33.82 3.15 4.44-3.15 6.05-5.27 7.38-10.7.64-5.7.11-9.27-3.24-14-12.42-14.01-33.85-22.3-51.76-26l-2.54-.54c-24.57-4.97-50.23-1.31-71.8 11.54a92 92 0 0 0-7.66 6l-2.35 1.92c-13.32 11.86-18.7 29.72-19.93 46.96-.39 11.15 1.9 20.58 5.28 31.13q1.3 4.18 2.56 8.38l.62 2.07c3.77 12.88 6.91 26.83 7 40.3l.05 2.74c-.24 2.63-.9 4.25-2.23 6.5l-.12-3.55c-1.47-38.6-1.47-38.6-14.88-51.44-6.16-5.7-12.15-7.51-20.32-7.37l-2.1-.04c-5.89.03-11.04 1.52-16.58 3.4l2.24-17.96.4-3.18q.42-3.36.94-6.7c.78-6.28.66-12.64.67-18.96v-2.1c-.02-11.3-.82-22.05-3.25-33.1q-.26-1.2-.5-2.43a250 250 0 0 0-24.32-67.51c-5.17-9.7-10.17-19.36-13.68-29.8l-.83-2.4c-1.78-5.75-3.09-11.9-1.67-17.85 2.31-2.92 5.13-4.61 8.31-6.5l4.98-3.32 2.45-1.62c12.72-8.78 19.9-21.65 23.26-36.56.4-4.15.41-8.27.4-12.44l.02-3.65q.03-4.93.02-9.85 0-5.22.04-10.45.05-11.06.07-22.11.04-18.6.13-37.2l.02-4.23c.1-20.05.53-40 2.1-60 .32-4.9.46-9.8.57-14.7l.08-2.28a22.7 22.7 0 0 0-5.9-15.75c-3.6-3.4-7.48-3.81-12.3-4.1-7.88.36-12.14 3.03-18.25 7.76l-4.35 3.16a1390 1390 0 0 0-20.6 15.3q-1.94 1.47-3.93 2.88a61 61 0 0 0-9.52 8.26c-12.06 12.1-25.58 12.1-41.7 12.16q-7.35-.04-14.72-.21c-4-.06-7.99-.03-11.99 0q-5.84.02-11.66-.05-2.76-.03-5.52-.01c-13.4.03-20.94-2.67-31-11.5a407 407 0 0 0-5.3-3.97l-4.9-3.77a1467 1467 0 0 0-21.06-15.87l-2.27-1.7c-18.54-13.63-18.54-13.63-28.3-12.22-5.5 1.36-9.13 4.96-12.18 9.54-2.06 4.93-2.3 9.49-2.25 14.75l.02 2.73q.14 9.49.68 18.94c1.17 20.69 1.74 41.33 1.82 62.06l.02 3.7q.07 17.1.1 34.22 0 9.48.05 18.97.02 3.56.01 7.1c-.04 20.33 1 39.2 15.98 54.53 6.58 6.47 14.05 11.7 21.57 17 1.7 1.7 1.3 3.79 1.37 6.13-.19 16.28-9.76 33.33-17.4 47.34-17.4 32.03-27.3 69.72-27.35 106.16v3.95c.13 11.73 1.38 23.07 4.38 34.42v4c-5.75-.87-5.75-.87-8-2-9.98-1.06-20.85-1.56-29 5-10.89 9.67-15.02 22.86-16.17 37.08-.9 16.19 1.07 33.52 6.17 48.92l1.02 3.42C454.1 572.05 464.5 589.55 478 605q.63.74 1.3 1.49c8.74 10.09 18.46 18.28 29.63 25.59q2.08 1.4 4.07 2.92v2l-1.94.67c-7.56 2.76-13.38 5.96-17.5 13.08a22 22 0 0 0-.44 17.19c3.74 4.1 8.74 5.82 14.17 6.24 19.62.47 35.65-2 53.33-11C563 662 563 662 565 662v8l-2.42 1.07c-8.1 3.77-13.7 7.26-17.4 15.56-1.87 5.58-1.93 11.54-2.18 17.37h-2c-2.55-3.83-2.44-5.43-2-10a93 93 0 0 1 3.12-7.67C543 684 543 684 543 680c-1.5-2.75-1.5-2.75-3-5l-2 .94c-7.3 2.58-14.82 2.14-22.44 1.8l-2.99-.07c-7.8-.32-15.35-1.02-21-6.86-2.75-3.67-4.6-7.15-4.57-11.81 1.38-5.31 3.6-9.7 7-14l1.87-2.56c2.68-3.07 5.53-4.64 9.13-6.44v-2c-1.76-1.55-1.76-1.55-4.13-3.31l-2.49-1.9q-1.18-.87-2.38-1.8a49 49 0 0 1-8.63-8.18C485 616 485 616 483.03 615c-2.24-1.11-3.32-2.22-4.9-4.16l-1.55-1.88L475 607l-1.56-1.9-4.63-5.72-1.58-1.95A80 80 0 0 1 460 587l-3.5-5.31a50 50 0 0 1-5.75-11.65c-.93-2.51-2.14-4.8-3.38-7.16A29 29 0 0 1 444 552a268 268 0 0 0-3.07-10.37 63 63 0 0 1-1.69-10.81C439 529 439 529 438 528q-.01-2.85.06-5.7c-.06-2.3-.06-2.3-.56-5.1a67 67 0 0 1-.63-10.76v-3.88A41 41 0 0 1 438 494l.83-3.45c3.57-13.83 7.23-24.41 19.82-32.26 8.87-4.88 18.26-5.71 28.1-3.3l3.25 1-.4-1.82-.54-2.54-.53-2.46c-.74-4.37-1.12-8.76-1.53-13.17l-.57-5.61-.56-5.7-.3-2.92-.27-2.82-.25-2.52A30 30 0 0 1 486 409q.06-3.37 0-6.75a145 145 0 0 1 0-6.25l1-1q.27-2.2.43-4.44c1.04-11.2 3.51-22.71 7.68-33.16 1.54-4.16 2.8-8.43 4.1-12.68 1.1-3.65 2.35-7.18 3.8-10.72l.87-2.81a91 91 0 0 1 5.05-11.2l1.06-2.07 2.06-4.05 2.47-4.96c2.2-4.33 4.6-8.55 6.95-12.8 1.4-2.84 1.93-5.03 2.53-8.11q1.47-3.01 3-6c6.08-16.21 6.08-16.21 4-22-3.48-3.77-7.69-6.22-12.07-8.81l-1.93-1.2v-2c-.28-.1-.28-.1-1.69-.68-3-1.7-4.95-3.78-7.3-6.31l-1.7-1.75c-10.48-11.24-14.5-25.54-14.4-40.67v-2.5l.01-5.37.03-8.61q.01-10.74.06-21.46c.14-43.01.14-43.01-.45-62.31l-.12-3.92q-.33-9.97-1.24-19.91a94 94 0 0 1-.2-9.62c.04-3.91-.03-7.64-.57-11.5-.58-5.16-.43-10.27-.25-15.44l.06-2.54c.33-7.37 2.4-13.37 6.94-19.21 8.43-6.55 15.5-7.62 25.27-3.47M689 665l1 3c2.06.69 2.06.69 4 1-1.38-2-1.38-2-3-4zm-133 3a173 173 0 0 0-8 5l3 2 7-5z" fill="#E5E6E8"/><path d="M673 495h1c.48 5.35-.87 8.1-3.75 12.56l-2.11 3.32c-6.23 9.08-14.78 16.93-25.14 21.12h-4l.18 1.66c1.82 17.41 2.13 34.72 2.08 52.2q-.01 5.64.01 11.26c.03 14.19-.09 28.32-1.16 42.48l-.24 3.13A125 125 0 0 1 637 660h-22l-1.44-10.38-.44-3.14c-2.19-16.29-2.32-32.69-2.31-49.1v-2.97c0-20.51.91-40.94 2.19-61.41l-2.46-1.2-3.24-1.6-3.21-1.57c-3.98-2.1-7.85-4.47-11.09-7.63v-2l-1.71-.62c-3.14-1.89-4.94-4.53-6.98-7.5l-1.22-1.77c-2.98-4.5-4.19-7.76-4.09-13.11l1.88 1.94c12.43 12.33 26.53 23.76 44.62 25.37 14.41-.24 28.21-8.86 38.5-18.31q3.74-3.96 7.29-8.09z" fill="#000"/><path d="M876.06 356.84c21.23-.57 40.46 5.24 59.38 14.41l3.34 1.59c9.77 4.9 18.52 11.49 22.22 22.16 1.58 5.44.81 8.91-1.63 13.85-3.07 4.81-7.76 8.85-13.37 10.15-9.84 1.51-19.66-2.32-29-5l-4.03-1.12c-5.72-1.6-11.4-3.28-17-5.27-5.84-1.82-11.49-1.79-17.53-1.8l-2.87-.03-2.76-.01-2.5-.01c-2.54.26-4.1 1.01-6.3 2.24l-2.26.69c-6.82 3.25-11.66 8.5-14.75 15.31a41.4 41.4 0 0 0 0 21l.37 3.19a47 47 0 0 0 1.98 7.99l.81 2.39.84 2.43c5.21 15.36 9.9 30.59 9 47l-.06 3.34c-.35 10.04-2.63 19.11-5.42 28.73-.52 1.93-.52 1.93-.97 4.64-.74 3.05-2.19 5.19-3.93 7.79-3.57 5.42-3.57 5.42-5.2 8.16a49 49 0 0 1-5.04 6.72q-1.46 1.71-2.86 3.49c-2.98 3.69-4.99 5.49-9.52 7.13l-.78 1.79c-1.72 3.11-4.02 4.4-6.97 6.34l-3.1 2.07A42 42 0 0 1 807 592q-2.54.98-5.06 2l-2.48 1-4.98 2.05a51 51 0 0 1-7.17 2.14l-2.32.54C783 600 783 600 781 599l-.84 1.8a28 28 0 0 1-3.8 5.48l-1.56 1.8-1.62 1.86-1.58 1.84a168 168 0 0 1-14.23 14.53l-2.29 2.12C753 630 753 630 750 630l-2 4h-2c2 2 3.92 3.25 6.31 4.75 5.52 3.65 9.9 7.65 11.7 14.25 1.84 10.77 1.84 10.77-1 15-7.96 8.29-15.55 9.7-26.68 10.09q-4.16.04-8.33-.09l-2.84-.05c-8.62-.41-16.14-2.98-24.16-5.95l-1 1 1.64 1.36c6.04 5.09 9.3 8.63 10.36 16.64q.09 3.43.06 6.88l-.03 3.49L712 704h-4l.14-3c.33-9.89-.57-16.21-7.27-23.75-4.02-3.82-8.66-5.56-13.87-7.25v-9a50 50 0 0 1 8.94 4.31c11.94 6.78 23.28 8.89 36.74 8.94l3.77.06c15.72.07 15.72.07 21.22-4.79 3.2-3.66 2.72-7.69 2.66-12.34-.62-5.92-2.9-10.14-7.46-13.96A86 86 0 0 0 740 636a63 63 0 0 1 9.44-8c4.55-3.35 8.88-6.88 13.06-10.69l1.66-1.5a61 61 0 0 0 7.62-8.48c6.97-9.4 12.87-12.22 24.17-14.99 19.36-4.79 36.77-18.46 47.05-35.34a101 101 0 0 0 12-32l.53-2.36c3.65-20.5-.88-40.83-7.66-60.04-4.4-12.57-7.8-27.35-4.03-40.55 1.2-2.3 2.46-4.1 4.16-6.05l1.8-2.13c6.72-7.31 13.94-11.46 23.88-12.11 9.21-.24 17.22.71 26.07 3.52q5.51 1.74 11.05 3.41 3 .91 6 1.85c22.9 7.11 22.9 7.11 33.82 3.15 4.44-3.15 6.05-5.27 7.38-10.69.64-5.71.11-9.28-3.24-14.01-12.42-14.01-33.85-22.3-51.76-25.99l-2.54-.55c-24.57-4.97-50.23-1.31-71.79 11.53A93 93 0 0 0 821 380l-2.35 1.91c-13.32 11.86-18.7 29.72-19.93 46.96-.39 11.15 1.9 20.58 5.28 31.13q1.3 4.18 2.56 8.38l.62 2.07c3.77 12.88 6.91 26.83 7 40.3l.05 2.73c-.24 2.64-.9 4.26-2.23 6.52l-.12-3.56c-1.47-38.6-1.47-38.6-14.88-51.44-6.16-5.7-12.15-7.51-20.32-7.37l-2.1-.04c-5.89.03-11.04 1.52-16.58 3.41l1.37-11.37.4-3.22A209 209 0 0 1 763 427h1q.3 4.18.56 8.38l.17 2.4c.38 5.99.38 5.99-.73 8.22q-.54 2.5-1 5l-1 5 1.87-.44c10.12-2.21 20-2.94 29.21 2.72q2.49 1.82 4.92 3.72l3 1-1.38-3.25c-5.6-15.2-7.03-36.13-1.25-51.37L800 405l.8-2.26c2.51-7.05 6.55-16.22 13.4-19.93l1.8-.81.94-2c1.45-2.75 3.24-2.87 6.06-4l.93-1.94c1.28-2.47 2.2-2.96 4.7-4.1l2.2-1.01 2.3-1.01 2.22-1.03a110 110 0 0 1 40.71-10.07M689 665l1 3c2.06.69 2.06.69 4 1-1.38-2-1.38-2-3-4z" fill="#E0E2E4"/><path d="m739 470 2 1a301 301 0 0 1-23.17 112.45 155 155 0 0 0-4.09 11.3 209 209 0 0 1-2.39 6.77c-4.39 11.98-7.7 24-10.35 36.48l-.54 2.52a169 169 0 0 0-2.58 16.6l-.27 2.33L697 665c-4.38-.5-7.03-1.7-10-5-.13-2.75 0-4.67.5-7.31l.35-2.16q.36-2.22.77-4.42.5-2.8.92-5.62c3-17.58 9.62-34.57 15.88-51.22 1.91-5.09 3.58-10.25 5.27-15.42a251 251 0 0 1 3.85-10.54c3.64-9.57 6.46-19.22 9.06-29.12 1.15-4.36 2.48-8.6 3.9-12.88 5.32-16.65 8.5-34.11 11.5-51.31" fill="#000101"/><path d="M512 470a28 28 0 0 1 3.04 8.66l.56 2.8.59 3.04c4.33 21.4 9.71 42.27 16.91 62.89a434 434 0 0 1 2.32 6.94 529 529 0 0 0 7.34 21.17c21.43 57.93 21.43 57.93 22.24 85.5-5.62 4-5.62 4-9 4l-.43-3.04q-.78-5.61-1.6-11.21l-.68-4.85-1-6.97-.3-2.18A40 40 0 0 0 549 626q-.66-2.58-1.25-5.19c-4.42-18.02-11.25-35.82-18.45-52.9-12.89-30.62-17.77-64.86-17.3-97.91" fill="#000101"/><path d="M844 426h2l-.04 3.14-.02 4.11-.03 2.07c-.01 3.39.1 6.42 1.09 9.68l.38 3.19c.47 2.9 1.03 5.24 1.97 7.99l.82 2.39.83 2.43c5.22 15.36 9.9 30.59 9 47l-.06 3.34c-.35 10.04-2.63 19.11-5.42 28.73-.52 1.93-.52 1.93-.97 4.64-.73 3.05-2.19 5.19-3.93 7.79-3.57 5.42-3.57 5.42-5.2 8.16a49 49 0 0 1-5.03 6.72 106 106 0 0 0-2.87 3.49c-2.98 3.69-4.99 5.49-9.52 7.13l-.78 1.79c-1.72 3.11-4.01 4.4-6.97 6.33l-3.11 2.08A42 42 0 0 1 807 592q-2.54.98-5.06 2l-2.48 1q-2.49 1.01-4.98 2.05a51 51 0 0 1-7.17 2.14l-2.32.54C783 600 783 600 781 599l-.83 1.8a28 28 0 0 1-3.81 5.48l-1.56 1.8-1.61 1.86-1.58 1.84a171 171 0 0 1-14.23 14.53l-2.29 2.12C753 630 753 630 750 630l-2 4h-2c2 2 3.92 3.25 6.31 4.75 5.52 3.65 9.89 7.65 11.69 14.25 1.86 10.77 1.86 10.77-1 15-7.94 8.29-15.54 9.7-26.67 10.09q-4.16.04-8.33-.09l-2.84-.05c-8.62-.41-16.14-2.98-24.16-5.95l-1 1 1.64 1.36c6.04 5.09 9.29 8.63 10.36 16.64q.1 3.43.06 6.88l-.02 3.49L712 704h-4l.14-3c.33-9.89-.57-16.21-7.26-23.75-4.02-3.83-8.67-5.56-13.88-7.25v-9a50 50 0 0 1 8.94 4.31c11.95 6.78 23.28 8.88 36.75 8.94l3.76.06c15.73.07 15.73.07 21.22-4.79 3.2-3.66 2.72-7.69 2.66-12.34-.62-5.92-2.89-10.14-7.45-13.96A86 86 0 0 0 740 636a63 63 0 0 1 9.44-8c4.55-3.35 8.88-6.88 13.06-10.69l1.66-1.5a61 61 0 0 0 7.63-8.48c6.96-9.4 12.86-12.22 24.16-14.99 19.36-4.79 36.78-18.46 47.05-35.34a101 101 0 0 0 12-32l.53-2.36c3.65-20.5-.88-40.83-7.66-60.04-3.11-8.85-5.16-17.13-5.06-26.54l.02-3.84C843 429 843 429 844 426M689 665l1 3c2.06.69 2.06.69 4 1-1.38-2-1.38-2-3-4z" fill="#E8E9E9"/><path d="M759 159h1c.57 14.16 1.1 28.32 1.12 42.5l.02 3-.01 2.78v2.41c-.36 6.41-2.77 11.74-5.57 17.43l-1.24 2.58A21 21 0 0 1 750 235l-1.19 2.25c-2.19 3.33-4.8 5.51-7.84 8.06-1.97 1.69-1.97 1.69-4.41 4.25a47 47 0 0 1-7.12 5.5l-2.34 1.55L725 258c-2.62 1.75-2.62 1.75-4 4-.35 6.66 1.63 12.86 4 19l.91 2.43A177 177 0 0 0 734 301l1.44 2.94q1.41 2.78 2.94 5.52c2.93 5.24 5.49 10.4 7.62 16.02 1.07 2.7 2.3 5.28 3.56 7.9 2.23 4.81 3.52 9.55 4.69 14.71a53 53 0 0 0 2.81 7.97c1.87 4.4 2.7 8.63 3.44 13.34a34 34 0 0 0 2.12 6.85c1.44 3.9 1.54 6.64 1.38 10.75l1 4q.29 2.66.5 5.31c.24 3.04.55 6.01 1.02 9.02.53 4.05.63 7.97.6 12.05l-.01 2.25c-.04 5.19-.2 10.25-1.11 15.37l-2 1a175 175 0 0 1-1.29-19.14C762.42 404 761.64 391.6 759 379l-.5-2.45a250 250 0 0 0-24.32-67.51c-5.17-9.69-10.17-19.35-13.68-29.79l-.82-2.39c-1.79-5.76-3.1-11.9-1.68-17.86 2.32-2.92 5.14-4.61 8.31-6.5q2.5-1.64 4.98-3.32l2.45-1.62c12.76-8.81 19.84-21.64 23.26-36.56.41-3.95.46-7.87.48-11.84l.04-3.31q.07-5.18.1-10.35l.13-10.44q.04-3.23.06-6.47l.03-2.93.02-2.59C758 161 758 161 759 159" fill="#E6E8E6"/><path d="m812 526 4 1c1.03 21.63-5.05 41.9-15 61h-2v2c-3.1 3.97-6.14 4.99-11 6-3.44.12-3.44.12-6 0 1.41-2.89 2.94-5.66 4.57-8.42 9.63-16.43 16.46-31.37 21.12-49.89l.83-3.27.72-2.95C810 529 810 529 812 526" fill="#000100"/><path d="M632.55 190.13A51 51 0 0 1 638 194c-.26 4.37-.6 6.52-3.44 9.94C632 206 632 206 630 206l-.38 3.38C629 213 629 213 627 215c-3.1.33-5.16.5-7.88-1.12-1.59-2.66-1.32-4.85-1.12-7.88q-.87-.33-1.75-.7c-2.96-1.71-4.46-3.38-6.25-6.3-.19-3.06-.19-3.06 1-6a20.5 20.5 0 0 1 21.55-2.87" fill="#606162"/><path d="M761 658h1c1 6.62 1 6.62 1 10-6.08 6.92-12.36 9.1-21.3 9.84-4.58.27-9.12.29-13.7.16l-2.84-.05c-8.62-.41-16.14-2.98-24.16-5.95l-1 1 1.64 1.36c6.04 5.09 9.29 8.63 10.36 16.64q.1 3.43.06 6.88l-.02 3.49L712 704h-4l.14-3c.33-9.89-.57-16.21-7.26-23.75-4.02-3.83-8.67-5.56-13.88-7.25v-9a50 50 0 0 1 8.94 4.31c11.95 6.78 23.28 8.88 36.75 8.94l3.76.06c15.61.07 15.61.07 21.24-4.76 1.8-2.13 2.04-4.01 2.5-6.74l.48-2.73zm-72 7 1 3c2.06.69 2.06.69 4 1-1.38-2-1.38-2-3-4z" fill="#E4E6E5"/><path d="M763 427h1l.56 8.38.17 2.4c.38 5.99.38 5.99-.73 8.22q-.54 2.5-1 5l-1 5 1.87-.44c9.6-2.1 17.94-2.58 27.13 1.44a64 64 0 0 1 6.31 4.7C799 463 799 463 802 464v-7c2.23 3.35 3.26 6.62 4.38 10.44l.65 2.24c3.74 13.18 7.06 27.31 7.16 41.07l.04 2.73A14 14 0 0 1 812 520l-.11-3.56c-1.48-38.61-1.48-38.61-14.89-51.44-6.16-5.7-12.15-7.51-20.31-7.38l-2.11-.03c-5.88.03-11.04 1.52-16.58 3.41l1.38-11.38.38-3.21c.8-6.54 1.84-12.97 3.24-19.41" fill="#A7A8A7"/><path d="M616 661h20l-.11 6.03-.05 5.87-.1 6c-.08 9.55.83 17.08 6.26 25.1-4.26-1.52-5.87-4.1-8-8a79 79 0 0 1-1.61-7.14C632 687 632 687 631 686q-.14-2.71-.12-5.44l-.01-2.99C631 675 631 675 632 673q.52-3 1-6l1-4h-16l2 4c.2 3.35.2 3.35.12 7.06l-.05 3.73L620 681q0 3.19.06 6.38c-.12 7.03-2.21 10.85-6.06 16.62l-3-1 .84-1.57 1.1-2.12 1.09-2.07c2-4.62 2.09-9.08 2.07-14.07l-.01-3.92-.03-4.06-.01-4.13z" fill="#EDEEEE"/><path d="m813 383 2 1a114 114 0 0 1-4.82 8.82c-9.44 16.12-14.07 33.85-10.54 52.58q.77 2.95 1.63 5.86c1.12 4.2 1.45 8.42 1.73 12.74h-4l2-1-1.38-3.25c-5.6-15.2-7.03-36.13-1.24-51.37L800 405l.8-2.26A53 53 0 0 1 813 383" fill="#E7EAEB"/><path d="M759 63h1a2386 2386 0 0 1 1.22 19.56c.58 8.93.87 17.56.06 26.5-.36 5.1-.45 10.19-.53 15.3l-.05 3.05-.18 12.55-.14 9.27-.03 2.89-.05 2.65-.03 2.34C760 159 760 159 758 161l-.05-29.92-.03-13.89-.01-13.46-.02-5.09A558 558 0 0 1 759 63" fill="#E8EAE9"/><path d="M488 410h1l.06 1.87c.5 14.96 1.1 29.59 4.94 44.13v4c-5.75-.88-5.75-.88-8-2-13.02-1.39-22.51 0-33 8 .61-3.59 1-4 4-6.56 8.47-5.57 17.6-6.77 27.54-4.98q2.75.69 5.46 1.54l-.4-1.84-.54-2.54-.52-2.46c-1.53-9.01-1.55-17.66-1.1-26.78l.16-3.63q.18-4.37.4-8.75" fill="#D3D6D6"/><path d="M494 130h1v82c-2.84-2.84-3.13-5.24-3.13-9.09l-.01-2.5.01-2.7-.01-2.82.02-9.08v-3.09c.05-37.62.05-37.62 2.12-52.72" fill="#EEEFEF"/><path d="M492 52h1c1.16 20.7 2.21 41.38 2.19 62.12v2.29c0 7.25-.02 14.41-1.19 21.59h-1l-.07-1.97-.73-20.44-.27-7.61-.39-11-.12-3.39c-.24-6.32-.63-12.59-1.25-18.88-.28-4.54.22-8.96.77-13.46l.3-2.73z" fill="#E4E5E5"/><path d="M744.37 10.22C752.2 12.84 757.93 15.43 762 23c3.3 9.1 2.53 19.21 1.25 28.66-.54 5.1-.63 10.22-.81 15.34l-.13 3.5L762 79l-2 1 .03-1.92q.13-9.93.19-19.86l.08-7.4q.07-5.33.09-10.67l.07-3.32c0-7.17-.81-13.13-6.01-18.4-4.73-4.08-10.43-4.7-16.45-5.43 3.32-3.07 3.32-3.07 6.37-2.78" fill="#E9EAE9"/><path d="M677.81 170.85c3.19-.13 6.37-.18 9.56-.23l3.25-.1c7.47-.09 13.17 1.17 19.38 5.48l1 2-5.44-.94-3.06-.53C700 176 700 176 699 175c-16.24-2.64-30.2.8-45 7l-5 2c.98-3.27 2.54-4.52 5.41-6.1l4.21-2.09q1.03-.52 2.09-1.08c5.66-2.8 10.85-3.55 17.1-3.88" fill="#030503"/><path d="M761 384a165 165 0 0 1 2.25 29.38l-.01 2.04c-.03 9.98-.45 19.74-2.24 29.58h-3l.18-3.21c.8-14.25 1.32-28.52 1.82-42.79h-1c-.95-4.76-1.08-9.17-1-14 2-1 2-1 3-1" fill="#212421"/><path d="m561.38 170.75 2.96-.02c13.07.03 25.4 2.75 35.65 11.27v2a57 57 0 0 1-9.12-4.44c-15.9-8.06-35.85-6.8-52.25-1.46l-2.62.9c1-3 1-3 3.07-4.56 7.27-3.57 14.34-3.75 22.3-3.69" fill="#020403"/><path d="M761 381c3.06 4.59 4.14 8.53 4 14l.5 1.88c.71 3.03.5 6.01.5 9.12l1 3q.15 4.07.12 8.12l-.01 2.32c-.04 5.25-.18 10.38-1.11 15.56l-2 1c-.99-7.66-1.28-15.28-1.5-23a854 854 0 0 0-1.5-32" fill="#EDF0EE"/><path d="M759 159h1c.57 14.16 1.1 28.32 1.12 42.5l.02 3-.01 2.78v2.41c-.25 4.45-1.38 8.23-3.13 12.31-1.33-2.66-1.09-4.63-1.04-7.61l.05-3.56.08-3.86.06-3.95.15-8.27.17-10.61.18-10.11.06-3.86.07-3.56.06-3.14C758 161 758 161 759 159" fill="#F0F3F2"/><path d="M856 520c2.76 4.14 1.83 7.33 1 12a76 76 0 0 1-21 39c-2.12.62-2.12.62-4 1l1.07-1.4q2.47-3.28 4.93-6.6l1.75-2.3c9.36-12.74 13.28-26.43 16.25-41.7" fill="#DFE0E2"/><path d="M878.81 401.94h2.4q2.88.04 5.8.06v2c-3.77 1.88-8.54 1.38-12.72 1.52-3.9.18-6.89.34-10.29 2.48l-2.25.69c-7.74 3.69-12.17 9.72-15.75 17.3h-2l-1 3c.6-8.01 5.38-13.98 11.04-19.38 7.82-6.41 14.94-7.78 24.77-7.67" fill="#DDDDDE"/><path d="M440 516h1l.23 1.84c2.79 22.3 2.79 22.3 5.77 31.16l1.08 3.21q1.05 3.14 2.15 6.26C451 561 451 561 451 564c-1.88-.62-1.88-.62-4-2-1.12-2.69-1.12-2.69-2-6l-1-3.31c-.95-3.49-1.74-6.98-2.5-10.51a79 79 0 0 0-1.56-5.62c-1.92-7.29-2.58-13.43.06-20.56" fill="#E4E7E5"/><path d="M913 362a179 179 0 0 1 23.44 10l3.21 1.58 3.1 1.54 2.77 1.39c2.66 1.6 4.57 3.04 6.48 5.49-.25 2.25-.25 2.25-1 4l-1.6-1.33a101 101 0 0 0-17.84-11.42l-2.66-1.42A84 84 0 0 0 911 365l2-1z" fill="#D6D6DA"/><path d="m856 360-1 3a97 97 0 0 1-7.88 2.81c-12.63 4.25-21.63 9.91-31.12 19.19l-2-2c2.75-3.86 4.67-5.29 9-7l.92-1.93c1.29-2.47 2.21-2.97 4.71-4.11l2.2-1.01 2.29-1.01 2.23-1.03C850.54 360 850.54 360 856 360" fill="#E4E7E7"/><path d="M495 208h1l.66 3.11c3.22 14.38 8.27 23.81 19.34 33.89l-2 2c-10.44-7.8-16.89-18.44-20-31 0-3.11.17-5.11 1-8" fill="#D8DBDC"/><path d="M699 674c5.42 2.41 9.42 5.59 12 11a58 58 0 0 1 1.06 12.88l-.02 3.49L712 704h-4l.14-3c.47-14.06.47-14.06-4.14-20q-2.44-2.56-5-5z" fill="#EDEFEF"/><path d="M952 383c5.9 3.94 8.07 8.82 10 15.44 0 5.71-1.85 10.32-5.83 14.47A76 76 0 0 1 951 417l-4-2 2.81-1.31c3.98-2.11 5.56-3.27 7.38-7.38 1.25-5.12 2.08-9.03-.53-13.72q-1.62-2.34-3.35-4.61C952 386 952 386 952 383" fill="#DCDBDD"/><path d="M756 214h2c-.56 8.28-1.64 15.24-8 21l-1.5 2.5a22 22 0 0 1-5.5 6.5c-2.13-.4-2.13-.4-4-1l1.5-1.26c8.25-7.48 12.7-17.09 15.5-27.74" fill="#DDDFE0"/><path d="m856 486 2 1c3.81 11.44 1.89 24.22 1 36h-2z" fill="#EAEAEC"/><path d="M760 84h1c1.39 13.84.42 27.19-1 41h-1l-.05-17.03-.03-5.8-.02-8.32-.01-2.64q.01-3.1.11-6.21z" fill="#F1F1F3"/><path d="M754 641c4.56 1.79 6.89 4.96 9.19 9.19 1.21 4.2 1.49 8.46 1.81 12.81l-3 2-.45-2.75c-1.47-8-3.37-13.92-8.55-20.25z" fill="#F1F2F2"/><path d="M490 28h2v36c-5.32-10.65-2.74-24.45-2-36" fill="#EFF0F1"/><path d="M847 458h3q1.82 5.2 3.56 10.44l1.04 2.95c2.12 6.41 2.66 10.96 1.4 17.61h-1l-.73-3.55c-1.71-8.05-3.46-15.82-6.54-23.48C847 460 847 460 847 458" fill="#E5E5E6"/><path d="M487 395h2a393 393 0 0 1-1 32l-2-1c-.45-2.55-.45-2.55-.69-5.75l-.26-3.17c-.05-2.92.37-5.24.95-8.08q.06-3.37 0-6.75a145 145 0 0 1 0-6.25z" fill="#EEF1F2"/><path d="M439 491h2l-1 31c-3.29-3.29-2.97-7.18-3.13-11.69l.01-3.87-.01-3.88c.15-4.17.82-7.62 2.13-11.56" fill="#EEEFEF"/><path d="m544 681 3 1-1.44 3.69c-2.03 5.99-2.28 12.03-2.56 18.31h-2c-2.55-3.83-2.44-5.43-2-10 1.15-3.42 2.56-6.69 4-10z" fill="#DEDEE1"/><path d="m776.88 456.88 2.38.02 5.74.1-1 3-2.88.19-3.8.25q-1.87.11-3.77.25c-2.93.25-5.68.66-8.55 1.3v-2q-1.5-.48-3-1c5.12-2.06 9.47-2.24 14.88-2.12" fill="#1F1F1E"/><path d="M494 94h1l.05 14.94.03 5.08.02 7.32.01 2.26c0 4.89-.42 9.57-1.11 14.4h-1q-.3-5.71-.56-11.44l-.17-3.3-.15-3.13-.14-2.91C492 115 492 115 493 114q.23-2.23.32-4.47l.24-5.59.13-2.88z" fill="#CBCDCB"/><path d="M617 676h1l.18 2.27.26 2.98.24 2.95c.27 2.37.74 4.5 1.32 6.8-.53 5.21-3.15 8.73-6 13l-3-1 .84-1.57 1.1-2.12 1.09-2.07c2.03-4.68 2.2-9.5 2.53-14.55l.26-3.8z" fill="#E2E5E6"/><path d="M763 427h1q.33 4.1.62 8.19l.2 2.33c.3 4.31.4 7.6-1.82 11.48l-2 1c-.22-7.95.05-15.27 2-23" fill="#E3E6E5"/><path d="M802 457a30 30 0 0 1 5 19 154 154 0 0 1-6.69-7.06l-1.88-2.1C797 465 797 465 797 463l5 1z" fill="#D2D5D6"/><path d="M879 357v1l5 1v1l-3.33.18c-8.24.47-16.46.99-24.67 1.82v-2c7.53-2.46 15.09-3.21 23-3" fill="#DDDDE0"/><path d="M508 13q-2.94 1.96-5.94 3.81c-5.1 3.65-7.38 7.17-9.06 13.19l-2-2c.48-5.87 3.61-10.26 8-14 3.4-1.78 5.36-2.35 9-1" fill="#DFDFE0"/><path d="M461 583q4.23 5.23 8.25 10.62l2.14 2.86C473 599 473 599 473 602c-4.16-1.56-6.16-4.34-8.81-7.81l-2.46-3.15C460 588 460 588 460.24 585.11z" fill="#E0E3E2"/><path d="M720 267c2.43 4.42 3.6 9.19 5 14 1 3 1 3 3 6l-1 3c-3.79-2.53-4.22-4.44-5.75-8.69l-1.36-3.63c-.96-3.98-.73-6.71.11-10.68" fill="#EBEEEA"/><path d="M634 676h1l.11 2.75c.51 9.4 1.52 17.33 6.89 25.25-4.28-1.53-5.95-4.03-8-8-1.5-6.69-.93-13.27 0-20" fill="#DCDEDF"/><path d="M757 366h2l2.5 6.75.72 1.92A24 24 0 0 1 764 384h-4l-1.5-6.75-.84-3.8C757 370 757 370 757 366" fill="#E5E8E5"/><path d="m473.81 455.38 2.1.17 5.1.44v1l-2.72.06c-10.28.4-17.19 2.69-25.29 8.94.4-2.38.68-3.69 2.45-5.4l1.8-1.21 1.76-1.24c5.1-2.94 9-3.32 14.8-2.76" fill="#E1E2E2"/><path d="m856 408 2 1-1.86 2.2-2.45 2.92-2.43 2.89A47 47 0 0 0 846 426h-2l-1 3c.68-9.07 6.6-15.1 13-21" fill="#D5D5D6"/><path d="M496 102c2.45 3.68 2.23 6.44 2.12 10.69l-.02 2.12-.1 5.19h-1l-1 9h-1a2110 2110 0 0 1-.09-14.47l-.01-3.11-.01-2.85c.1-2.35.44-4.33 1.11-6.57" fill="#1C1F1E"/><path d="M473 601a85 85 0 0 1 13 13l-1 2c-6.13-2.69-9.86-8.24-13-14z" fill="#E8EAEC"/><path d="M761 658h1c1 6.62 1 6.62 1 10-3.22 3.74-6.66 6.58-11.38 8.06C749 676 749 676 747 674l1.86-.55 2.45-.76 2.43-.74c2.47-1.04 3.66-1.81 5.26-3.95.73-2.48.73-2.48 1.19-5.19l.48-2.73z" fill="#D8DBD8"/><path d="M759 63h1q.3 5.22.56 10.44l.17 3.01.15 2.86.14 2.65C761 84 761 84 760 85a246 246 0 0 0-.69 11.01L759 102h-1c-.12-13.04.18-25.98 1-39" fill="#A4A4A5"/><path d="M856 520c2.5 3.76 2.07 5.28 1.49 9.57-.74 3.69-2.04 6.96-3.49 10.43h-2l.88-3.81A370 370 0 0 0 856 520" fill="#D9D9DB"/><path d="m760 445 2 4 2-1-1.19 3.81c-.56 2.21-.56 2.21-.81 4.19 1.38 2 1.38 2 3 3l-7 2z" fill="#D9DCDB"/><path d="M617 664c1.49 1.06 1.49 1.06 3 3 .29 3.25.29 3.25.19 7l-.08 3.75L620 681v3l-2 3a182 182 0 0 1-1-23" fill="#F2F3F7"/><path d="M497 650c0 3 0 3-1.5 4.81-1.5 2.19-1.5 2.19-1.5 5.31V663l-3 2-.12-4.75-.08-2.67c.21-2.73.71-4.3 2.2-6.58 2.12-.75 2.12-.75 4-1" fill="#191919"/><path d="M802 594c-8.96 4.78-8.96 4.78-13 5-2.81-.94-2.81-.94-5-2a55 55 0 0 1 9-3.75l2.56-.86c2.88-.46 4.02.07 6.44 1.61" fill="#D9DBDA"/><path d="M490 658h1l.26 2.05c1.16 7.36 1.16 7.36 4.18 10.45L498 672l3 2c-1.77.66-1.77.66-4 1-3.59-1.98-6.47-4.69-8-8.5 0-2.93.4-5.63 1-8.5" fill="#DADCDD"/><path d="M467 457h19l-1 3q-3.94.12-7.88.19l-2.26.07c-2.16.03-2.16.03-5.86-.26z" fill="#212324"/><path d="M470 454c7.04-.21 13.24-.08 20 2-3.92 2.78-7.79 1.81-12.25 1.12l-2.26-.31L470 456z" fill="#ECEEEF"/><path d="m822 378 2 3c-2.3 2.3-4.76 4.36-7.25 6.46A89 89 0 0 0 812 392l-2-1a194 194 0 0 1 12-13" fill="#1A1B1E"/><path d="m739 317 4 1a20 20 0 0 1 2.25 4.88l1.02 2.67C747 328 747 328 747 331l-2 2z" fill="#E0E0E1"/><path d="M761 27h2c.98 3.17 1 5.69.66 8.98l-.28 2.84-.32 2.93-.3 2.98L762 52h-1z" fill="#F2F3F4"/><path d="M952 383c5.87 3.91 8.49 9.25 10 16l-2 1-1.24-2.55-1.64-3.33-1.61-3.3C954 388 954 388 952 386z" fill="#E5E6E6"/><path d="M894 358v2c-6.43.12-12.62-.18-19-1 5.98-3.35 12.5-2.08 19-1" fill="#EDEBEF"/><path d="M446 549a28 28 0 0 1 3.62 7.5l.79 2.34C451 561 451 561 451 564c-1.88-.62-1.88-.62-4-2-1.62-3.63-2.28-5.17-1-9z" fill="#D7D7D9"/><path d="M501 340c1.15 1.55 1.15 1.55 2 4a56 56 0 0 1-2.38 7.25l-.74 1.97L498 358h-1a63 63 0 0 1 4-18" fill="#E2E5E6"/><path d="M440 516h1a80 80 0 0 1 1 15h-2c-2.23-3.34-2.35-4.13-2-8q.92-3.52 2-7" fill="#D5D8D6"/><path d="M491 448c2.02 3.04 2.32 4.19 2.62 7.69l.23 2.45.15 1.86-6-1v-2h3l-.56-2.81C490 451 490 451 491 448" fill="#C5C7C6"/><path d="M823 374h3c-1.13 3.39-2.23 4.37-4.88 6.69l-2.11 1.88C817 384 817 384 814 384c2.51-4.28 4.12-6.65 9-8z" fill="#DCDCE0"/><path d="M749 675v2q-3.37.33-6.75.62l-3.8.36c-3.29.02-4.76-.2-7.45-1.98 5.97-1.33 11.93-1.09 18-1" fill="#E9EDE9"/><path d="M492 648c1.38 3.77.6 6.45-.44 10.25l-.87 3.27L490 664c-2-1-2-1-2.74-2.74-.34-2.97.44-4.72 1.62-7.45l1.11-2.67C491 649 491 649 492 648" fill="#EEEFF0"/><path d="M734 305c3 1 3 1 4 2.75l1 2.25 1.69 2.56L742 315l-1 3c-3.34-2.99-5.25-5.88-7-10z" fill="#ECEFED"/><path d="m779 454 1 2-16 2v-2c5.23-1.47 9.58-2.23 15-2" fill="#EEF0EF"/><path d="M489 383c2.49 3.76 2.03 6.87 1.62 11.25l-.33 3.83L490 401h-1q-.3-3.09-.56-6.19l-.32-3.48c-.11-3.02.14-5.42.88-8.33" fill="#D3D5D6"/><path d="M541 672c-.56 1.94-.56 1.94-2 4-3.38.94-3.38.94-7 1-2.23-1.5-2.23-1.5-4-3l4.81-1 2.71-.56C538 672 538 672 541 672" fill="#DEE0E0"/><path d="M443 541c2.62 2.62 2.58 4.49 3.12 8.12l.51 3.33.37 2.55-3-1c-.77-1.93-.77-1.93-1.25-4.31l-.52-2.37A14 14 0 0 1 443 541" fill="#EEEEF0"/><path d="M845 445c3.75 3.75 3.69 7.98 4 13h-2c-2.4-3.84-2.64-7.57-3-12z" fill="#E5E5E8"/><path d="M942 378c3.64-.33 5.41-.42 8.44 1.75L952 382c-.4 2.14-.4 2.14-1 4l-4.5-3.44-2.53-1.93L942 379z" fill="#BFC0C4"/><path d="m788 597-2 3-5-1-.81 1.88C779 603 779 603 776 605c2.5-7.12 4.32-8.43 12-8" fill="#ECEEEA"/><path d="M796 421h2v14l-2-1c-.45-2.18-.45-2.18-.69-4.88l-.26-2.67C795 424 795 424 796 421" fill="#EFF2F5"/><path d="M949 416v2a23 23 0 0 1-8 1.19l-2.62.04C936 419 936 419 933 417l5.75-.5 3.23-.28A97 97 0 0 1 949 416" fill="#E8ECED"/><path d="M519 302h2a42 42 0 0 1-5 11l-2-2c1.24-3.44 2.56-6.25 5-9" fill="#E1E3E5"/><path d="m738 11 3 1Zm2.31 1.31 3.24.37L746 13v1l-2.23.15-2.96.23-2.92.21A28 28 0 0 0 730 17l-1-2c4.02-2.9 6.42-3.28 11.31-2.69" fill="#CDCDCF"/><path d="m927 414 18 2v1h-18z" fill="#CED1D1"/><path d="M495 22c2 3 2 3 1.66 4.77L496 29q-.32 3.38-.56 6.75l-.26 3.55L495 42h-1q-.33-3.87-.62-7.75l-.2-2.21c-.28-3.9-.45-6.75 1.82-10.04" fill="#1E1D1F"/><path d="M487 439h3c1.33 3.98 1.07 7.85 1 12-2.04-1.69-2.92-2.64-3.51-5.26l-.18-2.43-.2-2.45z" fill="#EEF0F1"/><path d="M798 412h2l-1 13c-1.82-3.64-2.66-6-3-10z" fill="#DEDFE1"/><path d="M879 357v1l5 1v1l-6.81.12-3.83.08C870 360 870 360 867 358c4.06-.77 7.86-1.1 12-1" fill="#CCCCCF"/><path d="m514 13 2 2c-1.58 1.58-3.38 1.35-5.56 1.56l-2.51.26L506 17l-1-3c3.24-1.08 5.6-1.22 9-1" fill="#262626"/><path d="m727.72 674.9 3.34.04 3.35.02 2.6.04-2 3c-4.25.4-7.38.32-11-2 1-1 1-1 3.71-1.1" fill="#D8DDDB"/><path d="m813 383 2 1c-1.53 3.44-3.6 6.12-6 9-.81-1.62-.81-1.62-1-4 1.47-2.25 3.16-4.02 5-6" fill="#E4E5E8"/><path d="m690 46 1 3q-1.64 1.54-3.31 3.06l-1.87 1.73L684 55l-3-1a64 64 0 0 1 9-8" fill="#1C1D20"/><path d="M469.57 454.93q2.06.16 4.11.39l2.13.18 5.2.5v1l-18 1c3-3 3-3 6.56-3.07" fill="#C5C6C9"/><path d="M495 208h1c.98 4.05 1.08 7.84 1 12h-2c-2.22-6.28-2.22-6.28-1.12-9.94z" fill="#DFE0E3"/><path d="M495 18c1.12 3.3.9 5.05-.44 8.25l-.87 2.14L493 30l-2-2c.32-3.97 1.84-6.71 4-10" fill="#E5E4E7"/><path d="M699 674a40 40 0 0 1 8 5l-2 4-3-3.38-1.69-1.89C699 676 699 676 699 674" fill="#D8D8DB"/><path d="M751 18c3.65.89 5.55 1.41 7.88 4.44C760 25 760 25 760 28h-2v-4l-3-1v-3l-4-1z" fill="#1C1C1D"/><path d="m714 674 11 1-1 2c-7.75.12-7.75.12-10-1z" fill="#EDECEE"/><path d="M847 458h3l2 9-2 1z" fill="#D9DCDC"/><path d="m807 396 2 3-5 9h-2a70 70 0 0 1 5-12" fill="#1D2022"/><path d="M504 332h2q-.42 2.22-.88 4.44l-.49 2.49L504 341l-2 1c-.69-1.62-.69-1.62-1-4 1.44-3.25 1.44-3.25 3-6" fill="#EEF0F1"/><path d="M755 357h2c2 5.62 2 5.62 2 9l-3-1z" fill="#F0F3F0"/><path d="M721 23c0 3 0 3-1.31 4.61L718 29.19l-1.69 1.6L715 32l-2-1v-2c1.75-1.51 1.75-1.51 4-3.12l2.25-1.64z" fill="#1C1C1F"/><path d="M508 10c5.75-.12 5.75-.12 8 1v2h-9z" fill="#F2F2F3"/><path d="m955 410 1 3-5 4-4-2 2.88-1.38C953 412 953 412 955 410" fill="#C8C8CB"/><path d="M807 484h2c1.33 3.98 1.07 7.85 1 12h-1c-1.14-4.27-2-7.56-2-12" fill="#0E0F0F"/><path d="M808 390c.62 1.81.62 1.81 1 4l-2 3h-3c1.07-2.92 1.78-4.78 4-7" fill="#ECEBF0"/><path d="M742 10c3.25.81 3.25.81 6 2v2l-10-1z" fill="#F0F0F2"/><path d="m552 676 2 2-2 3h-3v2h-2a19 19 0 0 1 5-7" fill="#2B2A33"/><path d="M709 692h1l.18 1.86.26 2.45.24 2.43C711 701 711 701 712 704h-4z" fill="#B3B6B5"/><path d="m480 609 6 5-1 2c-1.94-.69-1.94-.69-4-2-.75-2.62-.75-2.62-1-5" fill="#F1F5F1"/><path d="m854 480 3 1-1 8h-1z" fill="#D9D9DC"/><path d="M611 698h3c-.75 2.44-.75 2.44-2 5-2.12.81-2.12.81-4 1z" fill="#202320"/><path d="m553 669-2 3c-2.62.19-2.62.19-5 0l-1-2c5.75-2.12 5.75-2.12 8-1" fill="#DAD8DA"/><path d="M491 655c1.46 2.92 2.34 4.92 3 8l-3 2z" fill="#2B2D2E"/><path d="m762 614 3 1-5 5-1-3z" fill="#222424"/><path d="m806 589 2 1c-1.19 1.5-1.19 1.5-3 3-2.69.19-2.69.19-5 0 2.05-2.25 3.01-3 6-4" fill="#E2E5E2"/><path d="m456 463 2 3c-1.81 1.56-1.81 1.56-4 3l-3-1z" fill="#1D201F"/><path d="M491 448c2.15 3.23 2.2 4.28 2 8l-3-1z" fill="#D0D3D0"/><path d="M958 395h1c.25 7.62.25 7.62-2 11-1.23-6.4-1.23-6.4-.06-9.44z" fill="#303031"/><path d="M751 348c1.88 3.27 2.49 6.28 3 10h-2c-1.61-3.21-1.06-6.44-1-10" fill="#2C2F2B"/><path d="m499 14 2 1c-2.75 4.88-2.75 4.88-5 6 .75-4.75.75-4.75 3-7" fill="#D9D9DB"/></svg>