<svg style="background:transparent" version="1.1" xmlns="http://www.w3.org/2000/svg" viewBox="0 0 1248 704"><path d="M1000.38 89.88h2.52c8.13.08 15.37.5 23.1 3.12q4.35.7 8.7 1.25c4.4 1 8.22 2.84 12.3 4.75l4.6 2.03 4.59 2.03 2.33 1.03c9.44 4.19 18.07 8.66 26.14 15.11a94 94 0 0 0 7.1 4.86c3.93 2.57 6.34 5.25 9.23 8.94q1.64 1.4 3.33 2.75l2.67 2.25v2l1.82.65c4.99 3.06 7.15 10.22 8.93 15.6 1.23 6.28-1.53 11.43-4.91 16.51-3.98 5.13-8.43 8.28-14.84 9.24q-3.17.2-6.37.25l-3.26.07c-7.5-.72-12.6-4.7-18.37-9.2l-4.06-3.12-1.98-1.51c-4.5-3.43-9.06-6.66-13.96-9.5l-2.22-1.36c-8.44-4.97-17.17-9.47-26.77-11.63l-2.64-.62c-6.25-1.25-12.38-1.58-18.74-1.62l-2.3-.03c-4.5.02-8.07.63-12.33 2.27l-2.42.44c-5.92 1.3-10.62 4.2-15.58 7.56l-3 1a141 141 0 0 0-3.67 4.4c-1.33 1.6-1.33 1.6-3.7 3.85-9.72 10.19-15.14 23.13-19.73 36.25A110 110 0 0 1 928 218l-1.3 2.88c-1.99 3.66-4.4 6.72-7 9.96-1.7 2.16-1.7 2.16-3.62 5.28-2.28 3.16-4.75 5.26-7.72 7.75-3.4 3.07-6.4 6.5-9.4 9.95A31 31 0 0 1 890 261q-1.87 1.41-3.67 2.88c-4.46 3.4-9.25 5.77-14.33 8.12 1.18 5.07 3.48 9.22 6.38 13.5 3.63 5.7 5.51 12.12 7.63 18.5l.88 2.59q.74 2.16 1.44 4.34.7 2.14 1.45 4.26c4.2 11.96 6.4 25.3 6.23 38 0 3.8 0 3.8.52 6.74.86 5.63.33 11.33.05 17q-.18 3.42-.32 6.84l-.14 3.25q-.14 3.87-.09 7.74C896 398 896 398 895 399l.02 5.7a77 77 0 0 1-.74 8.74c-.67 6.06-1.28 12.2-1.27 18.3-.01 2.26-.01 2.26-.51 4.63-.5 2.63-.5 2.63-.5 6.25 0 3.38 0 3.38-1 6.38-.07 3.3 0 6.57.07 9.88-.08 3.13-.08 3.13-.57 5.07-.85 3.44-.64 6.95-.63 10.48v22.97c.01 4.96.44 9.7 1.13 14.6l.5 3.75a73 73 0 0 0 2.43 10.32 111 111 0 0 1 2.6 12.37c.63 3.47 1.55 6.83 2.44 10.24 1.1 4.42 1.88 8.85 2.6 13.32l.37 2.29c1.68 10.25 3.2 20.69 3.05 31.09 0 3.63 0 3.63.5 6.16.72 4.84.67 9.6.67 14.49l.01 3.2.01 6.72q.01 5.1.05 10.22v6.55l.02 3.05c-.01 5.76-.6 10.7-2.25 16.23q.98.1 2 .23c12.4 1.72 27.48 5.1 37 13.76 2 3 2 3 2.57 5.26-.95 4.6-3.96 6.96-7.58 9.75-6.62 3.38-13.74 5.1-21 6.57l-3.12.63c-32.9 6.4-66.27 6.28-99.61 5.12l-3.48-.12c-31.14-1.1-62.26-2.8-93.4-4.44-31.65-1.66-63.23-2.97-94.95-2.94h-2.28a1514 1514 0 0 0-87.2 2.34q-10.79.61-21.58 1.27-1.34.1-2.74.18l-7.99.51-2.6.17c-5.08.37-10.13.82-15.19 1.45-26.1 3.08-52.27 2.66-78.53 2.6l-18.27-.01q-18.05-.01-36.08-.05l-34.98-.03-2.19-.01h-8.71q-16.75 0-33.47-.03l-12.12-.01q-10.45 0-20.9-.04h-6.96l-9.43-.01h-2.82c-6.27-.03-6.27-.03-7.4-1.15q-.1-3.78-.06-7.57l.03-2.14.03-5.3q-1.55.75-3.16 1.5l-4.15 1.94-2.08 1c-11.43 5.35-23.07 5.99-35 2.03a34.3 34.3 0 0 1-18.22-15.59c-3.36-8.15-.37-16 2.62-23.87a110 110 0 0 1 4.57-7.43c6.08-6.42 13.67-9.84 22.43-10.58q2.78.08 5.57.2c8.4.15 14.1-4.5 20.02-10.06 1.4-1.13 1.4-1.13 3.4-1.13l.76-1.75a17.4 17.4 0 0 1 7.4-7.4c4.02-2.62 7.19-5.9 10.53-9.28l2.06-2.04 1.96-1.96q.88-.9 1.78-1.78a24 24 0 0 0 3.52-5.8 83 83 0 0 1 3.82-3.92l2.16-2.12L243 588l2.75-2.74q2.15-2.15 4.38-4.25c2.03-2.17 3.37-4.44 4.87-7 1.57-1.82 1.57-1.82 3-3h2l.75-1.62c4.23-8.03 4.23-8.03 8.25-9.38l.8-2.08c1.71-4.17 4.47-7.27 7.32-10.74l1.72-2.1L283 540a96 96 0 0 0-11.5-7.42c-7.64-4.57-13.53-10.03-19.5-16.58l-1.82-1.91c-6.16-7.26-9.45-17.88-11.19-27.09a70 70 0 0 0-1.42-3.74c-2-5.14-3.02-10.4-4.06-15.8-.72-3.62-1.42-7.15-2.51-10.7-1.55-5.82-2.2-11.77-3-17.75-.72-5.29-1.63-10.06-3.43-15.06-1.78-5.23-2.67-10.51-3.57-15.94l-1-5-.5-2.54-.5-2.52-.5-2.54a75 75 0 0 0-1.03-4.41c-.7-3-.9-6.01-1.19-9.06C216 380 216 380 215 379q0-2.91.03-5.82c-.03-2.18-.03-2.18-.53-5.42-1.42-10.67-1-18.9 5.5-27.75 2.63-3.18 4.93-3.78 8.98-4.2 11.39-.26 20.55 4.2 30.41 9.36a96 96 0 0 0 15.37 6.1c2.24.74 2.24.74 5.56 2.24 5 .68 7.97-1.05 12.48-3.12 4.07-1.75 8.16-2.7 12.45-3.7a51 51 0 0 0 7-2.3 35 35 0 0 1 9.42-2.06c4.11-.56 8.11-1.67 12.15-2.63 2.75-.6 5.32-.94 8.11-1.12 4.34-.37 6.64-1.97 10.06-4.57h2l.75-1.68c3.86-7.1 10.08-13.28 15.47-19.29q1.94-2.22 3.8-4.53c5.36-6.46 10.88-10.99 18.99-13.5 5.15.5 8.4 2.31 12 6 4.43 6.14 7.25 12.75 9.85 19.84a190 190 0 0 0 3.27 8.29c2.1 5.18 3.5 10.48 4.88 15.87 1.49 5.4 3.2 10.7 5 16l1 3c5.84-2.05 11.52-4.08 17-7l4-2 2.07-1.04 4.86-2.4a221 221 0 0 0 7.44-4 181 181 0 0 1 8.5-4.5A275 275 0 0 0 493 332l5.2-2.98 5.13-2.94A362 362 0 0 1 526 314l6.26-3.13q2.44-1.2 4.87-2.37C540 307 540 307 543 304.94c3-1.94 3-1.94 5.88-2.87 3.49-1.2 6.16-2.9 9.24-4.9a37 37 0 0 1 6.88-3.18c3.66-1.72 7.13-3.77 10.63-5.8a240 240 0 0 1 14.88-7.92 146 146 0 0 0 8.42-4.77 132 132 0 0 1 14.42-7.31 157 157 0 0 0 7.72-3.75c4.15-2.12 8.4-3.84 12.75-5.54a45 45 0 0 0 7.17-3.9c14.25-7.46 29.5-13.75 45-18l2.83-.94c3.57-1.2 7.18-2.27 10.8-3.34q2.71-.83 5.38-1.78c4.26-1.34 8.62-2.1 13-2.94l5.38-1.06 2.4-.47q2.11-.44 4.22-1c3-.7 6.01-.9 9.08-1.19 1.91-.28 1.91-.28 2.91-1.28 3.25-.07 6.48 0 9.72.06 2.93-.06 5.42-.46 8.28-1.06 5.94-.3 11.8-.03 17.68.72q3.98.46 7.96.78c11.2 1.01 11.2 1.01 14.8 2.5 2.85 1.1 5.54 1.4 8.55 1.72 4 .54 7.81 1.9 11.65 3.12 6.24 1.85 11.33 3.32 17.4.07 2.04-1.25 4-2.56 5.97-3.91l2.43-1.37c3.37-2.13 6.4-4.6 9.49-7.1C858 217 858 217 861 216q2.58-2.44 5-5l2.47-2.55A93 93 0 0 0 884.99 184l1.83-3.62q.48-1.01 1.01-2.06l2.61-5.14a150 150 0 0 0 6.63-14.37 91 91 0 0 1 6.92-13.81q.8-1.32 1.6-2.7a90 90 0 0 1 19.38-22.57 75 75 0 0 0 3.93-3.59C940.1 105.4 955.05 97.7 970 94l3.33-.83a112 112 0 0 1 27.04-3.3" fill="#111311"/><path d="M1000.38 89.88h2.52c8.13.08 15.37.5 23.1 3.12q4.35.7 8.7 1.25c4.4 1 8.22 2.84 12.3 4.75l4.6 2.03 4.59 2.03 2.33 1.03c9.44 4.19 18.07 8.66 26.14 15.11a94 94 0 0 0 7.1 4.86c3.93 2.57 6.34 5.25 9.23 8.94q1.64 1.4 3.33 2.75l2.67 2.25v2l1.82.65c4.99 3.06 7.15 10.22 8.93 15.6 1.23 6.28-1.53 11.43-4.91 16.51-3.98 5.13-8.43 8.28-14.84 9.24q-3.17.2-6.37.25l-3.26.07c-7.5-.72-12.6-4.7-18.37-9.2l-4.06-3.12-1.98-1.51c-4.5-3.43-9.06-6.66-13.96-9.5l-2.22-1.36c-8.44-4.97-17.17-9.47-26.77-11.63l-2.64-.62c-6.25-1.25-12.38-1.58-18.74-1.62l-2.3-.03c-4.5.02-8.07.63-12.33 2.27l-2.42.44c-5.92 1.3-10.62 4.2-15.58 7.56l-3 1a141 141 0 0 0-3.67 4.4c-1.33 1.6-1.33 1.6-3.7 3.85-9.72 10.19-15.14 23.13-19.73 36.25A110 110 0 0 1 928 218l-1.3 2.88c-1.99 3.66-4.4 6.72-7 9.96-1.7 2.16-1.7 2.16-3.62 5.28-2.28 3.16-4.75 5.26-7.72 7.75-3.4 3.07-6.4 6.5-9.4 9.95A31 31 0 0 1 890 261q-1.87 1.41-3.67 2.88c-4.46 3.4-9.25 5.77-14.33 8.12 1.18 5.07 3.48 9.22 6.38 13.5 3.63 5.7 5.51 12.12 7.63 18.5l.88 2.59q.74 2.16 1.44 4.34.7 2.14 1.45 4.26c4.2 11.96 6.4 25.3 6.23 38 0 3.8 0 3.8.52 6.74.86 5.63.33 11.33.05 17q-.18 3.42-.32 6.84l-.14 3.25q-.14 3.87-.09 7.74C896 398 896 398 895 399l.02 5.7a77 77 0 0 1-.74 8.74c-.67 6.06-1.28 12.2-1.27 18.3-.01 2.26-.01 2.26-.51 4.63-.5 2.63-.5 2.63-.5 6.25 0 3.38 0 3.38-1 6.38-.07 3.3 0 6.57.07 9.88-.08 3.13-.08 3.13-.57 5.07-.85 3.44-.64 6.95-.63 10.48v22.97c.01 4.96.44 9.7 1.13 14.6l.5 3.75a73 73 0 0 0 2.43 10.32 111 111 0 0 1 2.6 12.37c.63 3.47 1.55 6.83 2.44 10.24 1.1 4.42 1.88 8.85 2.6 13.32l.37 2.29c1.68 10.25 3.2 20.69 3.05 31.09 0 3.63 0 3.63.5 6.16.72 4.84.67 9.6.67 14.49l.01 3.2.01 6.72q.01 5.1.05 10.22v6.55l.02 3.05c-.01 5.76-.6 10.7-2.25 16.23q.98.1 2 .23c12.4 1.72 27.48 5.1 37 13.76 2 3 2 3 2.57 5.26-.95 4.6-3.96 6.96-7.58 9.75-6.62 3.38-13.74 5.1-21 6.57l-3.12.63c-32.9 6.4-66.27 6.28-99.61 5.12l-3.48-.12c-31.14-1.1-62.26-2.8-93.4-4.44-31.65-1.66-63.23-2.97-94.95-2.94h-2.28a1514 1514 0 0 0-87.2 2.34q-10.79.61-21.58 1.27-1.34.1-2.74.18a543 543 0 0 0-26.42 2.13c-20.3 2.2-40.35 2.66-60.76 2.56l-13.2-.01q-12.4-.02-24.82-.07-14.16-.06-28.32-.07-29.06-.05-58.12-.15c2.74-2.85 5.55-4.62 8.98-6.59l1.77-1.03q1.88-1.1 3.8-2.18l9.95-5.79 2-1.16a405 405 0 0 0 15-9.25 596 596 0 0 1 23.76-14.32 550 550 0 0 0 29.73-18.41q7.45-4.97 15.13-9.51a477 477 0 0 0 22.57-14.46l6.44-4.3q1.04-.72 2.13-1.42 2.06-1.4 4.14-2.78c3.69-2.45 7.22-5.03 10.73-7.75 5.85-4.12 12.35-5.35 19.25-6.8l7.47-1.67 3.66-.8c7.88-1.74 15.45-3.58 22.92-6.71 2.83-1.18 5.7-2.23 8.58-3.26a568 568 0 0 0 48.09-19.77 1349 1349 0 0 0 94.2-48l7.4-4.14 5.3-3 3.3-1.84 2.9-1.64a56 56 0 0 1 8.8-3.43l1.13 3.44q.41 1.26.87 2.53l2.13 6.55c9.98 30.59 26.4 57.82 50.81 78.92 11.78 10.2 22.94 21.42 24.35 37.75A60 60 0 0 1 764 641c-1.49 1.49-3.02 1.48-5.07 1.88-8.24 1.78-15.43 4.02-20.41 11.28-4.17 7.38-4.76 14.06-2.64 22.22 6.03 7.46 16.98 9.65 26.12 10.62 14.92.96 31.59 1.47 44-8 14.1-14.58 14.26-39.36 14.32-58.24v-2.2c.03-12.13-.49-24.24-4.5-35.8a96 96 0 0 1-1.83-5.76l1-2c17.75 13.68 33.48 26.52 37 50 .24 4.2.2 8.37.13 12.57l-.02 3.33q-.03 4.05-.1 8.1l-2.49.3c-7.97 1.06-15.87 2.55-21.4 8.86-5.1 7.42-7.13 13.82-6.12 22.84 1.72 5.53 4.3 8.63 9 12 8.25 4.32 16.98 4.38 26.08 4.43l3.28.04c11.3-.12 22.77-1.99 31.64-9.48 10.04-11.9 10.15-28.66 10.17-43.48l.02-2.92V629c-.05-33.88-3.1-66.16-11.12-99.18q-1.07-4.42-2.06-8.84l-.6-2.62c-2.12-10.47-1.75-21.17-1.72-31.8l.01-3.24c.04-25.33 1.73-50.5 3.95-75.73a486 486 0 0 0 1.62-40.23v-2.55c.14-29.36-5.33-56.84-20.05-82.5-1.8-3.2-3.12-5.97-4-9.56.91-3.22 1.46-3.54 4.2-5.28q2.25-1.25 4.52-2.42l4.74-2.62 2.29-1.26c4.03-2.32 7.53-5.14 11.03-8.19l2.67-2.25A118 118 0 0 0 915 231.99l1.2-1.59c9.56-12.91 15.71-27.5 21.57-42.39 6.84-17.21 17.75-32.06 34.23-41.01q1.1-.6 2.23-1.24c13.86-7.34 33.75-7.38 48.7-3.37a89 89 0 0 1 9.06 3.6l2 .88c11.21 5 21.05 11.63 30.84 19 11.77 8.84 19.73 13.81 35.16 12.13 5.45-1.53 8.93-4.2 12-9a28 28 0 0 0-.23-19.2c-14.47-26.05-48.62-42.34-75.77-51.24-11.4-3.14-22.65-3.94-34.41-3.94q-3.47-.02-6.93-.06c-26.86-.22-51.52 10.7-70.65 29.44-13.87 14.16-21.93 31.49-30.06 49.32-12.23 26.8-31.24 51.44-59.37 63.04-4.87 1.21-8.84.01-13.58-1.37-32.99-9.15-68.38-12.45-102-4l-2.67.66q-9.73 2.41-19.33 5.34-1.39.44-2.87.88c-46.8 14.47-90.85 38.76-133.75 62.09-7.63 4.14-15.33 8.14-23.05 12.1a683 683 0 0 0-27.76 15.12 622 622 0 0 1-24.29 13 629 629 0 0 0-17.74 9.5 367 367 0 0 1-25.53 13l-2.77 1.28c-4.4 1.99-8.37 3.56-13.24 4.04l-.74-2.88c-14.53-55.01-14.53-55.01-25.22-63.47-4.3-2.33-7.28-3.02-12.03-1.65-3.8 2.56-6.87 5.66-10 9l-2.02 2.1a208 208 0 0 0-12.77 15.67A141 141 0 0 1 359 332l-1.7 2.12c-5.4 6.1-10.33 7.47-18.23 8.63l-6.74 1.18-3.3.55q-5.88 1.01-11.71 2.4l-1.97.45a260 260 0 0 0-20.77 6.3c-8.01 2.64-13.63 4.24-21.76 1l-2.06-.8a367 367 0 0 1-19.59-8.67c-7.47-3.48-15.78-7.29-24.17-6.17-4.58 2.2-6.52 4.35-8.4 9.03-1.01 3.35-1.05 6.66-.97 10.1l.02 2.37c.56 22.18 5.94 44.6 11.55 65.99a210 210 0 0 1 3.8 19.58 230 230 0 0 0 7 30.94l.99 3.26q1.66 5.4 3.38 10.74l1.06 3.4c6.18 18.69 18.33 30.8 35.57 39.6a186 186 0 0 0 7 3c-6.73 15.07-21.73 29.52-32.82 41.55-2.07 2.34-4 4.74-5.92 7.2-6 7.36-12.7 14-19.43 20.68l-6.58 6.59c-27.86 27.9-27.86 27.9-41.37 28.16-10.08.27-16.98 1.5-24.2 9-4.94 6.37-7.35 13.38-7.02 21.43.54 3.81 1.76 6.88 3.34 10.38l.93 2.38c1.44 2.18 2.66 2.65 5.06 3.63l3.2 1.5c11.4 4.75 24.03 5.25 35.64.92 6.24-2.8 12.21-6.06 18.16-9.42l-.64 1.99c-2.2 7.15-2.7 13.55-2.35 21q-1.5-.48-3-1v-15l-3.17 1.5-4.15 1.94-2.08 1c-11.43 5.35-23.07 5.99-35 2.03a34.3 34.3 0 0 1-18.22-15.59c-3.36-8.15-.37-16 2.62-23.87a110 110 0 0 1 4.57-7.43c6.08-6.42 13.67-9.84 22.43-10.58q2.78.08 5.57.2c8.4.15 14.1-4.5 20.02-10.06 1.4-1.13 1.4-1.13 3.4-1.13l.76-1.75a17.4 17.4 0 0 1 7.4-7.4c4.02-2.62 7.19-5.9 10.53-9.28l2.06-2.04 1.96-1.96q.88-.9 1.78-1.78a24 24 0 0 0 3.52-5.8 83 83 0 0 1 3.82-3.92l2.16-2.12L243 588l2.75-2.74q2.15-2.15 4.38-4.25c2.03-2.17 3.37-4.44 4.87-7 1.57-1.82 1.57-1.82 3-3h2l.75-1.62c4.23-8.03 4.23-8.03 8.25-9.38l.8-2.08c1.71-4.17 4.47-7.27 7.32-10.74l1.72-2.1L283 540a96 96 0 0 0-11.5-7.42c-7.64-4.57-13.53-10.03-19.5-16.58l-1.82-1.91c-6.16-7.26-9.45-17.88-11.19-27.09a70 70 0 0 0-1.42-3.74c-2-5.14-3.02-10.4-4.06-15.8-.72-3.62-1.42-7.15-2.51-10.7-1.55-5.82-2.2-11.77-3-17.75-.72-5.29-1.63-10.06-3.43-15.06-1.78-5.23-2.67-10.51-3.57-15.94l-1-5-.5-2.54-.5-2.52-.5-2.54a75 75 0 0 0-1.03-4.41c-.7-3-.9-6.01-1.19-9.06C216 380 216 380 215 379q0-2.91.03-5.82c-.03-2.18-.03-2.18-.53-5.42-1.42-10.67-1-18.9 5.5-27.75 2.63-3.18 4.93-3.78 8.98-4.2 11.39-.26 20.55 4.2 30.41 9.36a96 96 0 0 0 15.37 6.1c2.24.74 2.24.74 5.56 2.24 5 .68 7.97-1.05 12.48-3.12 4.07-1.75 8.16-2.7 12.45-3.7a51 51 0 0 0 7-2.3 35 35 0 0 1 9.42-2.06c4.11-.56 8.11-1.67 12.15-2.63 2.75-.6 5.32-.94 8.11-1.12 4.34-.37 6.64-1.97 10.06-4.57h2l.75-1.68c3.86-7.1 10.08-13.28 15.47-19.29q1.94-2.22 3.8-4.53c5.36-6.46 10.88-10.99 18.99-13.5 5.15.5 8.4 2.31 12 6 4.43 6.14 7.25 12.75 9.85 19.84a190 190 0 0 0 3.27 8.29c2.1 5.18 3.5 10.48 4.88 15.87 1.49 5.4 3.2 10.7 5 16l1 3c5.84-2.05 11.52-4.08 17-7l4-2 2.07-1.04 4.86-2.4a221 221 0 0 0 7.44-4 181 181 0 0 1 8.5-4.5A275 275 0 0 0 493 332l5.2-2.98 5.13-2.94A362 362 0 0 1 526 314l6.26-3.13q2.44-1.2 4.87-2.37C540 307 540 307 543 304.94c3-1.94 3-1.94 5.88-2.87 3.49-1.2 6.16-2.9 9.24-4.9a37 37 0 0 1 6.88-3.18c3.66-1.72 7.13-3.77 10.63-5.8a240 240 0 0 1 14.88-7.92 146 146 0 0 0 8.42-4.77 132 132 0 0 1 14.42-7.31 157 157 0 0 0 7.72-3.75c4.15-2.12 8.4-3.84 12.75-5.54a45 45 0 0 0 7.17-3.9c14.25-7.46 29.5-13.75 45-18l2.83-.94c3.57-1.2 7.18-2.27 10.8-3.34q2.71-.83 5.38-1.78c4.26-1.34 8.62-2.1 13-2.94l5.38-1.06 2.4-.47q2.11-.44 4.22-1c3-.7 6.01-.9 9.08-1.19 1.91-.28 1.91-.28 2.91-1.28 3.25-.07 6.48 0 9.72.06 2.93-.06 5.42-.46 8.28-1.06 5.94-.3 11.8-.03 17.68.72q3.98.46 7.96.78c11.2 1.01 11.2 1.01 14.8 2.5 2.85 1.1 5.54 1.4 8.55 1.72 4 .54 7.81 1.9 11.65 3.12 6.24 1.85 11.33 3.32 17.4.07 2.04-1.25 4-2.56 5.97-3.91l2.43-1.37c3.37-2.13 6.4-4.6 9.49-7.1C858 217 858 217 861 216q2.58-2.44 5-5l2.47-2.55A93 93 0 0 0 884.99 184l1.83-3.62q.48-1.01 1.01-2.06l2.61-5.14a150 150 0 0 0 6.63-14.37 91 91 0 0 1 6.92-13.81q.8-1.32 1.6-2.7a90 90 0 0 1 19.38-22.57 75 75 0 0 0 3.93-3.59C940.1 105.4 955.05 97.7 970 94l3.33-.83a112 112 0 0 1 27.04-3.3" fill="#B8BAB8"/><path d="M686 505c.89 2.46.89 2.46 1.69 5.81 9.9 36.78 30.32 65.12 58.31 90.19 9.53 8.72 17.13 18.91 18.27 32.17.04 2.65.03 5.2-.27 7.83-1.48 1.48-3.02 1.48-5.06 1.88-6.32 1.35-11.86 3.02-16.94 7.12h-2v-2l-3.55.04q-14.74.1-29.48-.39c-24.98-.84-49.97-.87-74.97-.89q-7.63 0-15.26-.04c-47.56-.21-94.97 1.31-142.3 6.16l-5.94.58a1647 1647 0 0 0-62.22 7.23l-7.14.96-12.1 1.66-4.47.61A195 195 0 0 0 357 669c1.2-3.6 1.93-3.83 5.14-5.64l2.65-1.53 2.9-1.64a654 654 0 0 0 26.2-15.99l2.51-1.62 2.64-1.7q3.25-2.07 6.52-4.09a990 990 0 0 0 28.81-18.63l7.26-4.85 4.67-3.12 2.17-1.45 2.03-1.35 1.88-1.27c1.62-1.12 1.62-1.12 3.71-2.84 2.62-1.76 5.15-2.29 8.22-3l3.76-.89 3.93-.89 7.62-1.78 10.64-2.47a100 100 0 0 0 16.16-5.18c2.83-1.17 5.7-2.22 8.58-3.26a567 567 0 0 0 48.09-19.77 1359 1359 0 0 0 92.4-46.98l14.68-8.16 3.31-1.85 2.94-1.64L679 506l2.16-1.25C683 504 683 504 686 505" fill="#ECEDEC"/><path d="M1000.38 89.88h2.52c8.13.08 15.37.5 23.1 3.12q4.35.7 8.7 1.25c4.4 1 8.22 2.84 12.3 4.75l4.6 2.03 4.59 2.03 2.33 1.03c9.44 4.19 18.07 8.66 26.14 15.11a94 94 0 0 0 7.1 4.86c3.93 2.57 6.34 5.25 9.23 8.94q1.64 1.4 3.33 2.75l2.67 2.25v2l1.82.65c4.99 3.06 7.15 10.22 8.93 15.6 1.23 6.28-1.53 11.43-4.91 16.51-3.98 5.13-8.43 8.28-14.84 9.24q-3.17.2-6.37.25l-3.26.07c-7.5-.72-12.6-4.7-18.37-9.2l-4.06-3.12-1.98-1.51c-4.5-3.43-9.06-6.66-13.96-9.5l-2.22-1.36c-8.44-4.97-17.17-9.47-26.77-11.63l-2.64-.62c-6.25-1.25-12.38-1.58-18.74-1.62l-2.3-.03c-4.5.02-8.07.63-12.33 2.27l-2.42.44c-5.92 1.3-10.62 4.2-15.58 7.56l-3 1a141 141 0 0 0-3.67 4.4c-1.33 1.6-1.33 1.6-3.7 3.85-9.72 10.19-15.14 23.13-19.73 36.25A110 110 0 0 1 928 218l-1.3 2.88c-1.99 3.66-4.4 6.72-7 9.96-1.7 2.16-1.7 2.16-3.62 5.28-2.28 3.16-4.75 5.26-7.72 7.75-3.4 3.07-6.4 6.5-9.4 9.95A31 31 0 0 1 890 261q-1.87 1.41-3.67 2.88c-4.46 3.4-9.25 5.77-14.33 8.12 1.18 5.07 3.48 9.22 6.38 13.5 3.63 5.7 5.51 12.12 7.63 18.5l.88 2.59q.74 2.16 1.44 4.34.7 2.14 1.45 4.26c4.2 11.96 6.4 25.3 6.23 38 0 3.8 0 3.8.52 6.74.86 5.63.33 11.33.05 17q-.18 3.42-.32 6.84l-.14 3.25q-.14 3.87-.09 7.74C896 398 896 398 895 399l.02 5.7a77 77 0 0 1-.74 8.74c-.67 6.06-1.28 12.2-1.27 18.3-.01 2.26-.01 2.26-.51 4.63-.5 2.63-.5 2.63-.5 6.25 0 3.38 0 3.38-1 6.38-.07 3.3 0 6.57.07 9.88-.08 3.13-.08 3.13-.57 5.07-.85 3.44-.64 6.95-.63 10.48v22.97c.01 4.96.44 9.7 1.13 14.6l.5 3.75a73 73 0 0 0 2.43 10.32 111 111 0 0 1 2.6 12.37c.63 3.47 1.55 6.83 2.44 10.24 1.1 4.42 1.88 8.85 2.6 13.32l.37 2.29c1.68 10.25 3.2 20.69 3.05 31.09 0 3.63 0 3.63.5 6.16.72 4.84.67 9.6.67 14.49l.01 3.2.01 6.72q.01 5.1.05 10.22v6.55l.02 3.05c-.01 5.76-.6 10.7-2.25 16.23q.98.1 2 .23c12.4 1.72 27.48 5.1 37 13.76 2 3 2 3 2.57 5.26-.95 4.6-3.96 6.96-7.58 9.75-6.62 3.38-13.74 5.1-21 6.57l-3.12.63c-32.9 6.4-66.27 6.28-99.61 5.12l-3.48-.12c-31.14-1.1-62.26-2.8-93.4-4.44-31.65-1.66-63.23-2.97-94.95-2.94h-2.28a1514 1514 0 0 0-87.2 2.34 1441 1441 0 0 0-65.35 4.92 255 255 0 0 1-32.6.91v-1c25.63-2.47 51.25-4.95 76.94-6.67q1.17-.1 2.4-.18 7.65-.5 15.3-.94l7.38-.45c25.24-1.54 50.38-2.03 75.65-1.95q5.55.03 11.09.02c33.3 0 66.43 1.08 99.66 3.11 36.92 2.25 73.8 4.19 110.76 5l7.83.2c75.93 1.74 75.93 1.74 97.67-14.5 2.62-2.97 3.14-4.73 3.32-8.63q-.84-.4-1.7-.85-2.29-1.14-4.56-2.33c-8.5-4.4-16.74-6.87-26.06-8.9q-1.23-.29-2.52-.56-3.07-.7-6.16-1.37l.01-1.95c.3-45.18-.23-88.05-10.95-132.21q-1.07-4.42-2.06-8.84l-.6-2.62c-2.12-10.47-1.75-21.17-1.72-31.8l.01-3.24c.04-25.33 1.73-50.5 3.95-75.73a486 486 0 0 0 1.62-40.23v-2.55c.14-29.36-5.33-56.84-20.05-82.5-1.8-3.2-3.12-5.97-4-9.56.91-3.22 1.46-3.54 4.2-5.28q2.25-1.25 4.52-2.42l4.74-2.62 2.29-1.26c4.03-2.32 7.53-5.14 11.03-8.19l2.67-2.25A118 118 0 0 0 915 231.99l1.2-1.59c9.56-12.91 15.71-27.5 21.57-42.39 6.84-17.21 17.75-32.06 34.23-41.01q1.1-.6 2.23-1.24c13.86-7.34 33.75-7.38 48.7-3.37a89 89 0 0 1 9.06 3.6l2 .88c11.21 5 21.05 11.63 30.84 19 11.77 8.84 19.73 13.81 35.16 12.13 5.45-1.53 8.93-4.2 12-9a28 28 0 0 0-.23-19.2c-14.47-26.05-48.62-42.34-75.77-51.24-11.4-3.14-22.65-3.94-34.41-3.94q-3.47-.02-6.93-.06c-26.86-.22-51.52 10.7-70.65 29.44-13.87 14.16-21.93 31.49-30.06 49.32-12.23 26.8-31.24 51.44-59.37 63.04-4.87 1.21-8.84.01-13.58-1.37-32.99-9.15-68.38-12.45-102-4l-2.67.66q-9.73 2.41-19.33 5.34-1.39.44-2.87.88c-46.8 14.47-90.85 38.76-133.75 62.09-7.63 4.14-15.33 8.14-23.05 12.1a683 683 0 0 0-27.76 15.12 622 622 0 0 1-24.29 13 629 629 0 0 0-17.74 9.5 367 367 0 0 1-25.53 13l-2.77 1.28c-4.4 1.99-8.37 3.56-13.24 4.04l-.74-2.88c-14.53-55.01-14.53-55.01-25.22-63.47-4.3-2.33-7.28-3.02-12.03-1.65-3.8 2.56-6.87 5.66-10 9l-2.02 2.1a208 208 0 0 0-12.77 15.67A141 141 0 0 1 359 332l-1.7 2.12c-5.4 6.1-10.33 7.47-18.23 8.63l-6.74 1.18-3.3.55q-5.88 1.01-11.71 2.4l-1.97.45a260 260 0 0 0-20.77 6.3c-8.01 2.64-13.63 4.24-21.76 1l-2.06-.8a367 367 0 0 1-19.59-8.67c-7.47-3.48-15.78-7.29-24.17-6.17-4.58 2.2-6.52 4.35-8.4 9.03-1.01 3.35-1.05 6.66-.97 10.1l.02 2.37c.56 22.18 5.94 44.6 11.55 65.99a210 210 0 0 1 3.8 19.58 230 230 0 0 0 7 30.94l.99 3.26q1.66 5.4 3.38 10.74l1.06 3.4c6.18 18.69 18.33 30.8 35.57 39.6a186 186 0 0 0 7 3c-6.73 15.07-21.73 29.52-32.82 41.55-2.07 2.34-4 4.74-5.92 7.2-6 7.36-12.7 14-19.43 20.68l-6.58 6.59c-27.86 27.9-27.86 27.9-41.37 28.16-10.08.27-16.98 1.5-24.2 9-4.94 6.37-7.35 13.38-7.02 21.43.54 3.81 1.76 6.88 3.34 10.38l.93 2.38c1.44 2.18 2.66 2.65 5.06 3.63l3.2 1.5c11.4 4.75 24.03 5.25 35.64.92 6.24-2.8 12.21-6.06 18.16-9.42l-.64 1.99c-2.2 7.15-2.7 13.55-2.35 21q-1.5-.48-3-1v-15l-3.17 1.5-4.15 1.94-2.08 1c-11.43 5.35-23.07 5.99-35 2.03a34.3 34.3 0 0 1-18.22-15.59c-3.36-8.15-.37-16 2.62-23.87a110 110 0 0 1 4.57-7.43c6.08-6.42 13.67-9.84 22.43-10.58q2.78.08 5.57.2c8.4.15 14.1-4.5 20.02-10.06 1.4-1.13 1.4-1.13 3.4-1.13l.76-1.75a17.4 17.4 0 0 1 7.4-7.4c4.02-2.62 7.19-5.9 10.53-9.28l2.06-2.04 1.96-1.96q.88-.9 1.78-1.78a24 24 0 0 0 3.52-5.8 83 83 0 0 1 3.82-3.92l2.16-2.12L243 588l2.75-2.74q2.15-2.15 4.38-4.25c2.03-2.17 3.37-4.44 4.87-7 1.57-1.82 1.57-1.82 3-3h2l.75-1.62c4.23-8.03 4.23-8.03 8.25-9.38l.8-2.08c1.71-4.17 4.47-7.27 7.32-10.74l1.72-2.1L283 540a96 96 0 0 0-11.5-7.42c-7.64-4.57-13.53-10.03-19.5-16.58l-1.82-1.91c-6.16-7.26-9.45-17.88-11.19-27.09a70 70 0 0 0-1.42-3.74c-2-5.14-3.02-10.4-4.06-15.8-.72-3.62-1.42-7.15-2.51-10.7-1.55-5.82-2.2-11.77-3-17.75-.72-5.29-1.63-10.06-3.43-15.06-1.78-5.23-2.67-10.51-3.57-15.94l-1-5-.5-2.54-.5-2.52-.5-2.54a75 75 0 0 0-1.03-4.41c-.7-3-.9-6.01-1.19-9.06C216 380 216 380 215 379q0-2.91.03-5.82c-.03-2.18-.03-2.18-.53-5.42-1.42-10.67-1-18.9 5.5-27.75 2.63-3.18 4.93-3.78 8.98-4.2 11.39-.26 20.55 4.2 30.41 9.36a96 96 0 0 0 15.37 6.1c2.24.74 2.24.74 5.56 2.24 5 .68 7.97-1.05 12.48-3.12 4.07-1.75 8.16-2.7 12.45-3.7a51 51 0 0 0 7-2.3 35 35 0 0 1 9.42-2.06c4.11-.56 8.11-1.67 12.15-2.63 2.75-.6 5.32-.94 8.11-1.12 4.34-.37 6.64-1.97 10.06-4.57h2l.75-1.68c3.86-7.1 10.08-13.28 15.47-19.29q1.94-2.22 3.8-4.53c5.36-6.46 10.88-10.99 18.99-13.5 5.15.5 8.4 2.31 12 6 4.43 6.14 7.25 12.75 9.85 19.84a190 190 0 0 0 3.27 8.29c2.1 5.18 3.5 10.48 4.88 15.87 1.49 5.4 3.2 10.7 5 16l1 3c5.84-2.05 11.52-4.08 17-7l4-2 2.07-1.04 4.86-2.4a221 221 0 0 0 7.44-4 181 181 0 0 1 8.5-4.5A275 275 0 0 0 493 332l5.2-2.98 5.13-2.94A362 362 0 0 1 526 314l6.26-3.13q2.44-1.2 4.87-2.37C540 307 540 307 543 304.94c3-1.94 3-1.94 5.88-2.87 3.49-1.2 6.16-2.9 9.24-4.9a37 37 0 0 1 6.88-3.18c3.66-1.72 7.13-3.77 10.63-5.8a240 240 0 0 1 14.88-7.92 146 146 0 0 0 8.42-4.77 132 132 0 0 1 14.42-7.31 157 157 0 0 0 7.72-3.75c4.15-2.12 8.4-3.84 12.75-5.54a45 45 0 0 0 7.17-3.9c14.25-7.46 29.5-13.75 45-18l2.83-.94c3.57-1.2 7.18-2.27 10.8-3.34q2.71-.83 5.38-1.78c4.26-1.34 8.62-2.1 13-2.94l5.38-1.06 2.4-.47q2.11-.44 4.22-1c3-.7 6.01-.9 9.08-1.19 1.91-.28 1.91-.28 2.91-1.28 3.25-.07 6.48 0 9.72.06 2.93-.06 5.42-.46 8.28-1.06 5.94-.3 11.8-.03 17.68.72q3.98.46 7.96.78c11.2 1.01 11.2 1.01 14.8 2.5 2.85 1.1 5.54 1.4 8.55 1.72 4 .54 7.81 1.9 11.65 3.12 6.24 1.85 11.33 3.32 17.4.07 2.04-1.25 4-2.56 5.97-3.91l2.43-1.37c3.37-2.13 6.4-4.6 9.49-7.1C858 217 858 217 861 216q2.58-2.44 5-5l2.47-2.55A93 93 0 0 0 884.99 184l1.83-3.62q.48-1.01 1.01-2.06l2.61-5.14a150 150 0 0 0 6.63-14.37 91 91 0 0 1 6.92-13.81q.8-1.32 1.6-2.7a90 90 0 0 1 19.38-22.57 75 75 0 0 0 3.93-3.59C940.1 105.4 955.05 97.7 970 94l3.33-.83a112 112 0 0 1 27.04-3.3" fill="#E7E8E9"/><path d="M234 338c2.44 1 2.44 1 4 2v4l2.17.81c10.54 4.15 27.23 11 33.07 21.39l.76 1.8-2.6 2.34c-16.35 14.85-29.36 31.23-33.04 53.73C238 426 238 426 237 428c-1.87-.64-1.87-.64-4-2-1.16-2.58-1.16-2.58-2.06-5.81l-1-3.57L229 413l-.85-3.19c-1.84-7.4-2.81-14.71-3.53-22.28A18.6 18.6 0 0 0 221 379l-2 3a146 146 0 0 1-2.38-23.38l-.07-2.22c-.02-5.54 1.35-9.79 4.45-14.4 4.28-3.81 7.32-4.63 13-4" fill="#262724"/><path d="M398 301c2.57.2 3.69.68 5.49 2.54 4.66 7.02 7.62 14.59 10.51 22.46l.75 2a387 387 0 0 1 8.69 26.31l.82 2.74 1.4 4.84c.38 2.34.07 3.87-.66 6.11l-2-1v9h-2l-1.44-2.5c-5.55-8.69-16.55-13.3-25.56-17.5l-1.77-1c-2.8-1.26-5.47-1.73-8.49-2.25l-3.64-.65-3.79-.66-7.45-1.32-3.33-.58C363 349 363 349 362 348c.31-6.01 1.73-9.95 5-15l3.06-5.12L373 323l1.52-2.57q1.93-3.19 4.04-6.24l1.26-1.83L381 311h2v-2h2l.72-1.93c1.28-2.07 1.28-2.07 3.37-2.83l2.41-.36c4.31-.69 4.31-.69 6.5-2.88" fill="#252623"/><path d="M814 575c17.68 10.67 31.85 24.58 37.12 45.08 1.24 5.81 1.1 11.57 1 17.48l-.02 3.35-.1 8.09-2.48.31c-9.1 1.19-16.28 4.05-23.52 9.69v-3l-7-1-.06-4-.04-2.25c.1-2.75.1-2.75.6-6.44.79-6.2.69-12.43.69-18.67q0-3.36.03-6.71c.05-11.61-.59-23.1-4.34-34.18-1.88-5.61-1.88-5.61-1.88-7.75" fill="#E9EBE9"/><path d="m361 564 3 1c-1.6 4.25-4.82 6.81-8.12 9.75l-3.56 3.21-1.73 1.58q-3.02 2.81-5.9 5.77c-3.1 3.15-6.35 6.03-9.69 8.91-2.79 2.48-5.38 5.15-8 7.81-2.58 2.54-5.32 4.89-8.07 7.26a111 111 0 0 0-5.43 5.21 156 156 0 0 1-9.36 8.64 476 476 0 0 0-6.7 5.98 986 986 0 0 1-18.57 16.26l-5.3 4.62a386 386 0 0 1-9.57 8l-2.81 2.43c-8.8 6.87-17.46 6.75-28.19 6.57a68 68 0 0 1 9.12-7.88c12.03-8.91 23.75-18.21 35.51-27.47l6.96-5.46Q295.4 617.73 306 609a4268 4268 0 0 1 16.61-13.55q9.63-7.81 19.2-15.7l2.15-1.77q4.78-3.89 9.45-7.9l2.97-2.52 2.52-2.18z" fill="#E9E9EC"/><path d="m408 450 1 3q-4.49 3.01-9 6l-2.27 1.51-4 2.61C392 464 392 464 389 464v2l-3.49 1.73a370 370 0 0 0-8.62 4.45l-4.08 2.13-2.07 1.13c-5.07 2.62-5.07 2.62-8.73 2.29L360 477c.1-4.87.82-7.28 4.25-10.81 2.72-2.5 5.13-4.2 8.75-5.19v2h2v-4h2v-2c10.55-4.64 19.28-8.3 31-7" fill="#131715"/><path d="m612.68 692.8 11.08.01c22.1 0 44.16.32 66.24 1.2v1a386 386 0 0 1-32.47 1.03l-8.03-.04-11.46-.04c-33.11-.14-66.15-.06-99.21 1.87l-8.91.51a1382 1382 0 0 0-62.32 4.73 257 257 0 0 1-32.6.93v-1c25.63-2.48 51.25-4.95 76.94-6.69l2.39-.17q7.65-.51 15.32-.95l7.38-.44c25.23-1.55 50.37-2.04 75.65-1.95" fill="#E4E7E5"/><path d="M1026 93q4.35.69 8.71 1.24c4.39 1.01 8.22 2.85 12.29 4.76l4.61 2.04 4.58 2.02 2.32 1.03c9.45 4.18 18.07 8.65 26.15 15.12a94 94 0 0 0 7.09 4.85c3.95 2.58 6.35 5.25 9.25 8.94q1.63 1.41 3.31 2.75L1107 138v2l1.8.65c4.99 3.07 7.17 10.22 8.95 15.6 1.23 6.28-1.54 11.43-4.92 16.51A30 30 0 0 1 1103 181c-2.83.13-5.12.09-7.88-.25l-2.08-.2q-2.52-.25-5.04-.55v-1l2.34-.08c8.17-.44 14.32-1.41 20.1-7.48 3.62-5.65 3.41-11.96 2.56-18.44-8.54-21.99-36.55-37.62-57.09-46.77-19.51-8.38-37.56-11.47-58.72-11.85l-5.32-.12q-6.43-.14-12.87-.26v-2c14.83-3.31 32.5-3.93 47 1" fill="#DCDCDD"/><path d="m348 486.69 2.56-.05c2.89.43 4.27 1.46 6.44 3.36-.63 5.53-.63 5.53-2.56 8-1.95 2.7-1.51 4.74-1.44 8-2 2-2 2-4.88 2.5-3.12-.5-3.12-.5-5.18-3.31l-1.94-3.2-2.69-1.55C336 499 336 499 334.94 496.63c.09-3.7 1.48-5.05 4.06-7.63 3.06-1.87 5.43-2.3 9-2.31" fill="#666765"/><path d="M247 339c1.82 1.61 1.82 1.61 3 3-4.35-.38-8.42-.83-12.62-2.06-5.17-1.44-8.73-1.73-13.63.62-3.62 3.21-5.39 6.71-6.02 11.47a95 95 0 0 0-.04 6.53l.02 2.38c.13 6.04.86 11.89 1.84 17.85.66 4.74.63 9.43.45 14.21l-3-1 .12-2.56C217 386 217 386 216 382.62c-.97-3.5-1.11-6.09-1-9.67 0-1.95 0-1.95-.5-5.2-1.42-10.66-.99-18.9 5.5-27.75 6.18-7.47 19.24-4.09 27-1" fill="#E7E8E8"/><path d="m285 475 .7 2.01c2.33 6.32 4.54 10.85 10.61 14.3l1.69.69v1a36.7 36.7 0 0 1-24.37-9.03C272 482 272 482 272.25 479.25L273 477a27.4 27.4 0 0 1 12-2" fill="#D8B86B"/><path d="M244 502c4.51 1.35 5.94 2.93 8.19 7 8.42 13.81 21.12 21.98 35.81 28-1.44 3.37-3.33 5.51-6 8 0-4 0-4 1-6l-1.58-.85A413 413 0 0 1 274 534l-2.66-1.5c-10.67-6.37-22.07-16.17-26.72-28zm35 43 1 2-2-1z" fill="#E1E2E3"/><path d="M373 461c1.51 1.68 1.51 1.68 3.12 3.88l1.64 2.17C379 469 379 469 379 471a428 428 0 0 1-6.69 3.56l-1.89 1.04c-3.02 1.56-4.96 2.44-8.38 2.11L360 477c.1-4.95.84-7.27 4.38-10.81 5.57-5.19 5.57-5.19 8.62-5.19" fill="#E9C677"/><path d="m965 151 2 3-3 1q-1.89 2.17-3.69 4.41C959 161 959 161 956.62 163.25c-9.71 10.18-15.15 23.12-19.72 36.24-3.7 10.31-3.7 10.31-6.9 13.51-1.3-3.52-.94-5.66.48-9q1.05-2.3 2.14-4.56l2.26-4.86 1.12-2.38c1.28-2.81 2.39-5.69 3.5-8.58 5.09-12.24 14.47-24.96 25.5-32.62" fill="#DDDDDF"/><path d="M893 355h1l.08 2.6.29 9.67.13 4.16c.21 7.2.44 14.35 1.34 21.5.23 2.96-.12 5.75-.52 8.67-.36 2.71-.6 5.42-.82 8.15l-.25 3.04q-.27 3.4-.46 6.83l-.23 3.57-.18 3.29L893 429l-2 1c-2.51-8.6-.82-18.34-.06-27.12 1.28-15.95 1.69-31.9 2.06-47.88" fill="#DBDBDE"/><path d="M393 295c7.15 1.68 10.98 4.13 15 10.44 3.4 5.92 5.67 12.17 8 18.56l2.12 5.19c1.96 4.84 3.47 9.78 4.88 14.81l-3 1-.91-2.58-3.46-9.63-1.48-4.14c-8.6-24.26-8.6-24.26-17.25-28.86A23 23 0 0 0 390 298z" fill="#EAEAEC"/><path d="M838 697q6.3.14 12.59.32l4.26.1c8.86.2 17.44.82 26.15 2.58v1c-9.79.93-19.49 1.12-29.31 1.06l-4.31-.01L837 702l2-3z" fill="#BDBDBD"/><path d="M1062 106c8.38 3.57 15.55 7.51 22.66 13.21a94 94 0 0 0 7.09 4.85c3.95 2.58 6.35 5.25 9.25 8.94 1.94 1.77 3.94 3.37 6 5l-1 3-1.44-1.58c-10.08-10.6-22.12-18.41-34.66-25.8l-2.2-1.31-1.95-1.13A27 27 0 0 1 1061 107z" fill="#E3E3E4"/><path d="M246 342c4.55-.24 7.6.39 11.75 2.25l3.16 1.38L264 347q4.96 2.1 10 4l2.6 1.02c6.51 2.31 6.51 2.31 11.15.6L291 351c3.44.31 3.44.31 6 1v1l-4.56 1.44-2.57.81c-6.52 1.71-10.94 1.91-17.18-.69l-2.04-.8A579 579 0 0 1 246 343z" fill="#E0E3E2"/><path d="m493 581 2 1-2.01 1.39c-7.54 5.24-7.54 5.24-10.87 7.99A11.5 11.5 0 0 1 476 594v2h5c-2.72 2.72-5.06 2.85-8.81 3.62l-3.71.79c-2.93.5-5.53.71-8.48.59l2-1v-2l1.55-.74a377 377 0 0 0 17.89-9.45l2.4-1.33c3.13-1.75 6.17-3.49 9.16-5.48" fill="#050706"/><path d="M220 389h1l.38 1.98c2.39 12.37 4.83 24.67 8.18 36.82 1.02 3.81 1.62 6.43.44 10.2-4.68-4.68-5.28-13.15-6.46-19.5a61 61 0 0 0-2.04-7c-2.13-6.96-3.76-15.41-1.5-22.5" fill="#E3E3E4"/><path d="M339 340v2l-2.6.59-9.67 2.24-4.16.95c-7.23 1.66-14.4 3.33-21.44 5.69-2.44.61-4.63.62-7.13.53l1-3 2.44-.31a75 75 0 0 0 10.29-2.94c6.87-2.28 14.03-3.58 21.1-5.07a77 77 0 0 0 5.4-1.33C336 339 336 339 339 340" fill="#ECEBEE"/><path d="M216 681c1 2 1 2 .44 3.74l-.88 2.14c-2.04 5.69-1.83 11.15-1.56 17.12l-3-1v-15l-3.07 1.57-4.05 1.99-2.02 1.04c-4.36 2.11-7.01 2.78-11.86 1.4 3.14-1.63 6.34-2.95 9.62-4.25 5.83-2.4 11.09-5.35 16.38-8.75" fill="#D3D4D5"/><path d="M221 342c.56 1.94.56 1.94 1 4l-1 1a135 135 0 0 0-.06 6.37l.02 3.93.06 6.21.04 5.99.04 3.63C221 376 221 376 220 378h-2a175 175 0 0 1-1.31-19.12l-.09-2.28c-.06-5.86 1.48-9.53 4.4-14.6" fill="#2B2D2D"/><path d="M215 619c-3.85 9.21-14.71 15.22-23 20l-1.84 1.18c-3.25 1.23-6.48 1.03-9.91.94l-2.11-.02-5.14-.1v-1l11-1v-1l3.81-1c5.37-1.75 9.39-4.82 13.81-8.26C204 627 204 627 207 626a88 88 0 0 0 2-4c2.46-3 2.46-3 6-3" fill="#E2E2E3"/><path d="M295.91 469.92c8.52-.3 16.21-.59 24.09 3.08 1.73 1.6 1.73 1.6 3 3a59 59 0 0 1-9.25-2.02c-10.53-2.75-21.34-1.03-31.74 1.46C279 476 279 476 276 475c6.81-3.47 12.34-4.77 19.91-5.08" fill="#040302"/><path d="M759.06 221.87c23.85.05 23.85.05 27.94 4.13-12.03.17-23.99-.34-36-1l1.94-.93c4.1-2.11 4.1-2.11 6.12-2.2" fill="#F2F2F4"/><path d="M893 344h2c.91 3.64 1.06 7 .94 10.74.06 2.26.06 2.26.58 5.51.52 4.08.41 7.79.1 11.87l-.13 2.09A69 69 0 0 1 895 385h-1z" fill="#F2F2F4"/><path d="M981 94v1l-3.3.7c-8.11 1.78-15.68 3.79-23.28 7.25A32 32 0 0 1 948 105c1-3 1-3 2.9-4.28A88 88 0 0 1 970 94l2.09-.61c3.05-.62 5.87.08 8.91.61" fill="#E9EAEC"/><path d="M410 450c-2.7 1.35-4.61.88-7.62.69-7.51-.11-13.34 2.16-20.14 5C379 457 379 457 377 457v2h-3v-2c26.06-13.63 26.06-13.63 36-7" fill="#030503"/><path d="m873.38 698.94 2.23.3 5.38.76v1c-9.77.94-19.49 1.13-29.3 1.06l-4.3-.01-10.4-.05v-1l22-1v-1c5.09-1.14 9.31-.8 14.38-.06" fill="#CBCCCD"/><path d="M905 143h1c-.44 6.72-3.09 11.96-6.06 17.94l-1.43 2.94L895 171h-3l2-5 1.11-2.8A142 142 0 0 1 904 145z" fill="#E9E9EB"/><path d="M241 593c-1.58 3.91-4.27 6.52-7.23 9.42l-1.53 1.53-4.86 4.8-3.3 3.27L216 620l-3-2 2.02-1.04c4.05-2.67 7.26-5.95 10.67-9.4l2.05-2.02 1.96-1.97 1.78-1.79c1.57-1.84 2.5-3.6 3.52-5.78 2.46-3 2.46-3 6-3" fill="#ECECEE"/><path d="M999.83 90.98c2.69 1.27 4.97 1.44 7.92 1.65l2.99.23 2.26.14v1h-34v-2c16.92-3.11 16.92-3.11 20.83-1.02" fill="#C1C1C4"/><path d="M240 480c2.12 4.08 3.61 8.29 5.12 12.62l.84 2.36c2.04 5.77 2.04 5.77 2.04 8.02-2.39-.69-2.39-.69-5-2-3.27-6.43-3.41-13.93-3-21" fill="#DCDDDC"/><path d="M284 478a26 26 0 0 1 5.31 7c2.29 3.8 4.46 5.42 8.69 7v1c-6.3-.37-11.33-1.17-17-4v-1h7v-2h-2v-4h-2z" fill="#BFAD72"/><path d="M1005.94 89.88q4.69.1 9.38.44l2.55.17c2.13.5 2.13.5 4.13 3.5a9645 9645 0 0 1-34-1v-1l3.03-.17 3.9-.25 3.9-.25c3.45-.34 3.73-1.3 7.1-1.44" fill="#F1F1F3"/><path d="M1113 166h2c-.42 4.74-2.59 7.84-6 11-4.02 3.3-6.61 4.46-11.86 4l-2.02-.25-2.08-.2q-2.52-.25-5.04-.55v-1l2.34-.08c8.17-.44 14.32-1.41 20.1-7.48C1112 169 1112 169 1113 166" fill="#D3D3D6"/><path d="M372 658c1 3 1 3-.19 5.5-4.28 3.81-9.28 4.43-14.81 5.5 1.4-4.2 4.37-5.19 8.06-7.19l2.01-1.11q2.46-1.36 4.93-2.7" fill="#E7E7E7"/><path d="M274 532c5.07.65 9.42 2.85 14 5-1.55 3.33-3.31 5.49-6 8 0-4 0-4 1-6l-1.71-1.02-2.23-1.36-2.21-1.33C275 534 275 534 274 532m5 13 1 2-2-1z" fill="#EAEAEC"/><path d="M225 414c2.17 3.76 3.14 7.82 4.19 12l.57 2.16c1.63 6.44 1.63 6.44.24 9.84-3.91-3.91-4.45-9.78-5.54-15.05C224 421 224 421 223 419c.94-2.62.94-2.62 2-5" fill="#D2D3D5"/><path d="M373 461c1.51 1.68 1.51 1.68 3.12 3.88l1.64 2.17C379 469 379 469 379 471l-7 3v-10l-5 1c3.75-4 3.75-4 6-4" fill="#DDBF72"/><path d="M1074 174c5.47 1.78 5.47 1.78 7.83 2.77 5.35 2.21 10.41 2.89 16.17 3.23v2c-9.27.38-16.81.62-24-6z" fill="#EBEAEC"/><path d="M244 502c3.55.97 4.84 1.77 7.02 4.82l1.79 3.3 1.83 3.33L256 516l-2 2c-8.82-9.04-8.82-9.04-10-16" fill="#E5E5E7"/><path d="M216 349h1v24c-3.38-4.51-3.38-4.51-3.36-8v-2.25l.05-2.31-.01-2.33c.03-3.87.13-5.82 2.32-9.11" fill="#F0F3F1"/><path d="m871 205 2 3c-5.03 5.24-9.93 10-16 14l-2-2c2.05-2.25 3.01-3 6-4 3.69-3.39 6.84-7.12 10-11" fill="#DADBDC"/><path d="M890 426c2.6 4.86 3.13 7.62 2 13l.12 3.69L892 446l-3 2a1445 1445 0 0 1-.09-11.98l-.01-2.57-.01-2.37C889 429 889 429 890 426" fill="#EAEEEB"/><path d="m361 564 3 1c-1.45 3.44-3.28 5.36-6.12 7.75l-2.2 1.86L354 576l-2-1c1.32-5 4.61-8.4 9-11" fill="#F0F2F0"/><path d="M395 298v1l-2.88-.06c-5.22.66-8.31 4.57-11.89 8.13C378 309 378 309 375 309c2.01-4.93 5.48-8.01 9.88-10.88 3.78-1.36 6.23-.98 10.12-.12" fill="#DFDFE0"/><path d="M284 480v2h2v4h2v2c-6.62.25-6.62.25-10-2v-4c3-2 3-2 6-2" fill="#E7BF64"/><path d="M902 579h1c2.7 9.63 1.48 18.3 0 28h-1q-.3-6.72-.56-13.44l-.17-3.87-.15-3.69-.14-3.41C901 580 901 580 902 579" fill="#E0E0E1"/><path d="M187 639v1l-2.75.15c-6.96.43-13.49 1.1-20.25 2.85 2.72-3.4 5.36-4.89 9.63-5.83 4.56-.33 8.95.77 13.37 1.83" fill="#F0F4F0"/><path d="M322 477c2.5 1.75 2.5 1.75 5 4v4l-9 3z" fill="#C9BB85"/><path d="M149 668h1l.55 2.48.76 3.27.74 3.23c.93 2.96 2.03 4.64 3.95 7.02v2l3 1-3 1c-7.34-8.03-7.34-8.03-9-13 .81-3.88.81-3.88 2-7" fill="#DADADB"/><path d="M372 464c0 4 0 4-1.5 5.75L369 471l1 3h-2v-2h-4l-2 4v-5l4-1 1-5c3-1 3-1 5-1" fill="#F1C969"/><path d="m742 223 3.81.46c5.41.61 10.82.87 16.25 1.1l2.91.13 7.03.31v1h-30z" fill="#D5D5D8"/><path d="M377 458c2.05 1.96 2.95 3.43 3.2 6.27a126 126 0 0 1-.2 6.73c-4.88-4.62-4.88-4.62-6-8 .31-2.12.31-2.12 1-4z" fill="#1B1918"/><path d="m420 345 4 1 .4 2.05.54 2.7.52 2.67q.69 3.31 1.54 6.58h-2l-1 2-1.44-5.69-.81-3.2q-.97-4.03-1.75-8.11" fill="#DCDEDE"/><path d="m600 276 1 3-13 6-1-3 2.69-1.31c3.31-1.69 3.31-1.69 6.06-3.38C598 276 598 276 600 276" fill="#E3E2E4"/><path d="m615 270-1.94.31-2.06.69-1 3c-1.78 1.17-1.78 1.17-3.94 2.19l-2.15 1.04C602 278 602 278 600 278v-3q2.9-1.55 5.81-3.06l3.27-1.73C612 269 612 269 615 270" fill="#EFEEF1"/><path d="m163 642 3 2-2.69 1.62c-3.49 2.31-5.76 5.08-8.31 8.38l-3-1c5.97-8.63 5.97-8.63 11-11" fill="#E4E7E4"/><path d="M246 342c4.58-.25 7.66.39 11.81 2.31l2.9 1.3C263 347 263 347 264 350a145 145 0 0 1-18-7z" fill="#D8D9DA"/><path d="m624 533 2 1v2l-13 6-2-2q3.18-1.8 6.38-3.56l1.82-1.04a86 86 0 0 1 4.8-2.4" fill="#1C1D1C"/><path d="m407 453 2 1c-13.14 12-13.14 12-20 12v-2l3.44-1.62c4.99-2.49 10.58-5.4 14.56-9.38" fill="#040805"/><path d="M250 581h2c-1.52 3.48-3.58 5.96-6.12 8.75l-2.2 2.42L242 594l-3-2 2.69-2.12c2.3-1.9 4.2-3.86 6.06-6.19z" fill="#E0E2E0"/><path d="M900 564c2.53 2.53 2.43 4.5 2.78 7.96.26 2.38.71 4.7 1.22 7.04l-3 1c-1.07-3.46-1.1-6.64-1.06-10.25l.02-3.27z" fill="#EEEEF0"/><path d="M297 352v1c-5.66 1.81-11.09 3.36-17 4l1-3 2.19-.38c2.81-.62 2.81-.62 5.25-1.74 3.19-1.1 5.31-.64 8.56.12" fill="#DBDBDE"/><path d="M588 283c-1 3-1 3-3.21 4.39l-2.73 1.3-2.71 1.32C577 291 577 291 575 291c1.28-3.97 3.71-5.3 7.15-7.27C584 283 584 283 588 283" fill="#EFECEF"/><path d="M235 337c10.56.41 10.56.41 15 5a71 71 0 0 1-16-3z" fill="#E3E4E4"/><path d="M339 340v2c-5.45 1.39-10.37 2.24-16 2 1-2 1-2 3.62-2.89l3.26-.8 3.24-.82C336 339 336 339 339 340" fill="#EFEFF2"/><path d="M654 252c-2.49 2.49-4.87 3.31-8.12 4.62l-3.33 1.36L640 259v-3c4.75-4.16 7.99-4.41 14-4" fill="#E3E3E5"/><path d="M800 228c-3.89 1.4-7.23.7-11.25.06l-3.83-.59L782 227v-1c7.22-2.85 11.27-1.04 18 2" fill="#DBDBDD"/><path d="M214 691c2.39 3.83 2.56 7.6 3 12l-3 1a21 21 0 0 1-1.12-7.62l-.01-2.42C213 692 213 692 214 691" fill="#1F1F21"/><path d="m207 694 3 3-3 7-4-1c1.06-3.4 2.01-6.01 4-9" fill="#D7D7D7"/><path d="m379 309 1 2c-2.63 3.6-4.94 6.08-9 8l-2-1 3.31-3.94 1.87-2.21C376 310 376 310 379 309" fill="#1D1C1F"/><path d="M194 636v2c-4.71 2.79-8.51 3.39-13.88 3.19l-2.08-.04L173 641v-1l11-1v-1l3.88-1 2.17-.56C192 636 192 636 194 636" fill="#BDC0BD"/><path d="M795 225a86 86 0 0 1 17 4v1c-6.52.35-11.18.04-17-3z" fill="#EEEEF0"/><path d="m288 636 1 3a89 89 0 0 1-4 4h-2l-1 3-5 1c3.19-4.33 6.86-7.62 11-11" fill="#1C1A1F"/><path d="M1061 164c4.93 2.72 9.46 5.67 14 9l-2 2-5.44-3.81-3.06-2.15C1062 167 1062 167 1061 164" fill="#DEDCDF"/><path d="m1037 95 12 5-1 2-12-3z" fill="#E0E0E2"/><path d="m323 343 3 2c-5.16 1.51-8.66 2.34-14 1 3.51-3.51 6.14-3.26 11-3" fill="#DCDCDF"/><path d="m374 308 2 1c-1.67 3.94-4.23 6.79-7 10l-2-3z" fill="#EBEBED"/><path d="M211 690h2l1 14-3-1z" fill="#DCDCDE"/><path d="M157 688c3.52.65 6.89 1.51 10.31 2.56l2.68.82 2.01.62-2 2c-5.43-.21-8.74-1.68-13-5z" fill="#E3E5E4"/><path d="M415 335c3 2 3 2 3.51 3.95L419 345h-3c-1.16-3.47-1.07-6.36-1-10" fill="#1B1B1E"/><path d="M216 681c1 2 1 2 .44 4.16l-.88 2.46-.87 2.48-.69 1.9-1-2-2-1c-.31-2.31-.31-2.31 0-5 2.5-1.81 2.5-1.81 5-3" fill="#C9CBCC"/><path d="M818 650h1c1.51 6.91.33 10.83-3 17h-2z" fill="#A8A8AA"/><path d="M359 330c-1.38 3.21-2.92 5.05-5.62 7.25l-1.92 1.58L350 340c.15-2.67.49-4.45 2.33-6.45 4.18-3.55 4.18-3.55 6.67-3.55" fill="#DCDCDD"/><path d="M825 232c3.75.81 3.75.81 7 2v3l-11-2z" fill="#D6D6DA"/><path d="m375 652 3 1c-1 3-1 3-4.06 4.69L371 659l-2-2 1-2c2.56-.62 2.56-.62 5-1z" fill="#1B191E"/><path d="m563.44 564.25 1.56.75a29 29 0 0 1-9 5l-2-2c6.4-4.06 6.4-4.06 9.44-3.75" fill="#1A1B1A"/><path d="m366 465 1 3c-1.38 1.5-1.38 1.5-3 3h-2v6h-2c.26-4.46.58-6.52 3.56-9.94z" fill="#CAB576"/><path d="m365 462 2 1c-1.39 3.37-2.98 4.99-6 7l-1-4h2v-2z" fill="#201611"/><path d="M419 346c1.56 1.44 1.56 1.44 3 4-.03 3.05-.47 6-1 9-1.78-3.06-2.23-5.22-2.12-8.75l.05-2.42z" fill="#141416"/><path d="m844 231-4.88 2.5-2.74 1.41C834 236 834 236 832 236c1-3 1-3 4.31-4.75 3.63-1.23 4.32-1.35 7.69-.25" fill="#DFE1E3"/><path d="M1115 155h2c1.01 5.04.97 8.24-1 13-1.91-3.17-2.16-5.11-1.62-8.75l.33-2.42z" fill="#EFEEF2"/><path d="M995 141v2c-6.28 2.22-6.28 2.22-9.94 1.12L983 143c3.9-2.6 7.47-2.15 12-2" fill="#D7D9D6"/><path d="M1055 106c4.14.6 7.18 2.01 10.81 4.06l2.96 1.66L1071 113c-3.75 1.12-3.75 1.12-6 0v-2l-2.75-.81A22 22 0 0 1 1055 106" fill="#181818"/><path d="M948 104c-1.23 3.7-2.2 3.94-5.56 5.69l-2.51 1.32-1.93.99c.38-2.46.59-3.67 2.56-5.27 5.22-2.73 5.22-2.73 7.44-2.73" fill="#DBDEDD"/><path d="m340 581 2 1-1 1 3 1-2 4-6-2z" fill="#DEDEDE"/><path d="M544 574c-1 2-1 2-3.07 2.85l-2.49.77-2.51.79-1.93.59v-3c6.62-3.12 6.62-3.12 10-2" fill="#1E2020"/><path d="m237 476 3 1v10l-2-1c-.76-3.44-1-6.47-1-10" fill="#E8EAEA"/><path d="M283 474h4l1 4h2v2h-2l-1 3c-1.76-3.09-2-4.23-2-8z" fill="#37270C"/><path d="m393 295 7 2-1 4-9-3z" fill="#E6E6E9"/><path d="m785 224 2 2h-15v-1c8.72-2.51 8.72-2.51 13-1" fill="#EDEDEF"/><path d="m863 213 1 4-7 5-2-2c2.05-2.25 3.01-3 6-4z" fill="#E0E0E2"/><path d="M200 630c2.12.38 2.12.38 4 1a283 283 0 0 1-3.81 3.06l-2.15 1.73L196 637l-3-1 2.38-1.88C198 632 198 632 200 630" fill="#D9DCDA"/><path d="M354 575c2 2 2 2 2 5-2.5 1.69-2.5 1.69-5 3-.75-1.75-.75-1.75-1-4 1.94-2.25 1.94-2.25 4-4" fill="#171B1B"/><path d="M216 383h3c1.16 3.47 1.07 6.36 1 10l-3-1 .06-2.81C217 386 217 386 216 383" fill="#EFEFF3"/><path d="m272 554 2 3-6 7-1-4h2l.94-2.44C271 555 271 555 272 554" fill="#DFE0E0"/><path d="m633 528 4 2c-5.18 3.22-5.18 3.22-7 4l-3-1a33 33 0 0 1 6-5" fill="#202121"/><path d="M220 389h1q.33 2.66.62 5.31l.36 2.99c.02 2.7.02 2.7-1.98 5.7q-.3-2.37-.56-4.75l-.32-2.67c-.11-2.46.14-4.25.88-6.58" fill="#DBDBDF"/><path d="M444 359c-1 3-1 3-2.81 4.19-2.19.81-2.19.81-6.19.81l1-3c2.9-1.45 4.74-2 8-2" fill="#EEECF0"/><path d="M411 323h2c.96 2.88 1.11 4.7 1.06 7.69l-.02 2.45L414 335c-2.02-3.04-2.32-4.19-2.62-7.69l-.23-2.45z" fill="#181A19"/><path d="M975 148a38 38 0 0 1-6 5h-3c1-2.49 1.69-3.79 3.94-5.31C972 147 972 147 975 148" fill="#ECEDEB"/><path d="m600.75 546.31 2.25.7c-2.39 1.88-4.07 3.01-7 4l-2-2c2.45-2.29 3.34-3.09 6.75-2.7" fill="#232523"/><path d="M444 484c1 2 1 2 .58 3.91l-.77 2.15-.73 2.16C442 494 442 494 439.89 494.75L438 495c1.45-4.11 3.51-7.43 6-11" fill="#030604"/><path d="m170 638 3 1v2l-9 2c3.75-3.88 3.75-3.88 6-5" fill="#EAEEEA"/><path d="m361 564 3 1c-1.39 3.37-2.98 4.99-6 7a29 29 0 0 1 3-8" fill="#D0D3CF"/><path d="M395 298v1l-3.25.38c-3.13.52-5.08 1.02-7.75 2.62l-2-2c4.78-2.91 7.55-3.2 13-2" fill="#D6D7DA"/><path d="M928 211h2a26 26 0 0 1-3 9h-2a26 26 0 0 1 3-9" fill="#EAEAED"/><path d="M1113 150h2l2 4-1 1a87 87 0 0 0-.56 4.56l-.26 2.51-.18 1.93h-1z" fill="#C4C3C7"/><path d="m174.5 640.9 3.06.04 3.06.02 2.38.04v1l-3.82.31c-2.79.34-3.93.5-6.18 2.25l-1 1.44c-.57-1.94-.57-1.94-1-4 1-1 1-1 3.5-1.1" fill="#040503"/><path d="m643 523 1 3-6 3-2-2z" fill="#212125"/><path d="m422 357 2 1c.62 3.06.62 3.06 1 6l-3 1c-.8-3.29-1.1-4.71 0-8" fill="#111312"/><path d="M889 317c2 1 2 1 2.81 2.81.19 2.19.19 2.19-1.25 4.44L889 326c-1.12-6.75-1.12-6.75 0-9" fill="#E1E0E2"/><path d="m362 664 1 2 4 1-10 2c1-3 1-3 3.06-4.19z" fill="#DBDCDC"/><path d="m163 642 3 2c-5.75 3.88-5.75 3.88-8 5v-4c2.5-1.75 2.5-1.75 5-3" fill="#DDE0DD"/><path d="M236 469h2l1 8-4-2z" fill="#D6D7D8"/><path d="M234 462c1.75 2.62 2.62 3.97 3 7l-2 3c-2.43-6.29-2.43-6.29-1-10" fill="#EEEFF0"/><path d="m469 348 1 3c-3.81 1.8-4.71 2.07-9 1z" fill="#242328"/><path d="M823 656h3c.75 1.69.75 1.69 1 4-1.94 2.75-1.94 2.75-4 5-.62-1.81-.62-1.81-1-4l2-3z" fill="#B2B3B4"/><path d="m244 502 5 2v4l-3-1c-1.19-2.56-1.19-2.56-2-5" fill="#EEEFF0"/><path d="m376 467 3 2v2l-7 3v-2h2v-2h2z" fill="#CEB380"/><path d="m375 462 1 3c2.06.69 2.06.69 4 1v5c-4.88-4.62-4.88-4.62-6-8z" fill="#2A1C0B"/><path d="m877 198 1 3c-1.4 2.26-3.2 4.02-5 6l-1-3c1.4-2.26 3.2-4.02 5-6" fill="#ECECF0"/><path d="m1021 143 7 2v2l-8-1z" fill="#E6E9E5"/><path d="m205 629 3 1-3 2zm-4 3h2l-2 4-2-1z" fill="#090B09"/><path d="m207 624 3 1-5 5-3-1c1.38-1.5 1.38-1.5 3-3h2z" fill="#E9EBEA"/><path d="m924 218 1 2 2 1-2 3-4-1z" fill="#DFDFE2"/><path d="M1062 106c5.88 2.75 5.88 2.75 7 5-3.69-.5-5.6-1.1-8-4z" fill="#E7E7E8"/></svg>