<svg style="background:transparent" version="1.1" xmlns="http://www.w3.org/2000/svg" viewBox="0 0 1248 704"><path d="M755.77 23.48C757 25 757 25 757 27l1.88.68c2.77 1.72 3.15 3.26 4.12 6.32l1 3a260 260 0 0 1 .78 10.66c.24 4.03.03 7.37-.78 11.34-.1 3.25-.05 6.5 0 9.75l.06 5.17.04 2.3C764 78 764 78 763 79q-.23 2.85-.32 5.7l-.12 3.63-.12 3.92-.13 3.97c-.27 8.61-.4 17.2-.27 25.81a95 95 0 0 1-.54 11.67c-.66 7.07-.61 14.11-.57 21.2l.02 7.36.05 15.61.06 18.17.03 7.24.01 4.44.01 3.9A41 41 0 0 1 760 220l-.37 2.37c-3.16 13.24-10.7 22.01-20.63 30.63l-6.89 6.27A52 52 0 0 1 725 264c-2.19 1.66-2.89 2.4-3.37 5.12.54 4.2 1.91 7.92 3.37 11.88l1.14 3.2c2.07 5.62 4.2 10.73 7.54 15.72 4.96 7.82 8.57 16.62 12.32 25.08l.91 2.03c1.58 3.6 2.87 7.23 4.09 10.97l.97 2.34a67 67 0 0 1 2.47 8.1A53 53 0 0 0 759 360c.63 2.56.63 2.56 1 5a71 71 0 0 0 2 8.25 59 59 0 0 1 1.75 10.73C764 386 764 386 765 389v5l1 1c1.1 6.6 1.1 13.33 1.13 20l.01 2.24c-.01 3.2-.13 5.72-1.14 8.76v3.43c0 2.94-.29 4.81-1 7.57v3.12c0 2.88 0 2.88-1 4.88-.81 3.64-1.39 7.32-2 11l2.75-.7c12.07-2.85 18.45-2.59 29.55 2.93 2.95 1.93 4.62 3.94 6.7 6.77l2.56 2.5c10.39 10.65 12.19 28.3 12.44 42.5-.19 2.71-.57 5.3-1 8v2.68c0 2.58-.48 4.8-1 7.32l-.94 5.93A66 66 0 0 1 810 546q-.74 2.68-1.44 5.37A123 123 0 0 1 804 565c19.07-2 19.07-2 27.31-7 1.69-1 1.69-1 4.88-2.5 4.84-2.59 7.07-5.87 9.81-10.5l2.94-3.82c6.67-8.8 8.93-17.15 8.06-28.18-2.66-14.87-8.22-26.54-18-38l-1.58-2.02c-3.48-4.33-7.45-7.64-11.86-10.98-21.7-16.58-38.41-37.63-43.56-65a76 76 0 0 1 0-12l.2-3.34c.59-8.25.59-8.25 1.8-10.66l-1-3c1.1-3.76 1.66-4.78 5-7 .56-2.06.56-2.06.88-4.44.84-4.37.84-4.37 3.37-6.13L795 349a68 68 0 0 0 2.69-3.63c7.18-9.9 16.24-15.6 27.31-20.37l2.66-1.2c7.08-2.72 13.38-1.47 20.34 1.2 4.98 2.92 7.96 6.56 10 12 1.6 6.25-.17 9.5-3.12 15.02-3.31 5.24-7.47 9.26-12.5 12.85-5.44 4.86-9.96 12.88-10.68 20.18-.02 6.68.31 11.95 3.3 17.95l1.14 2.5A55 55 0 0 0 845 419v2l1.63.62c2.75 1.6 4.57 3.51 6.71 5.84 1.66 1.54 1.66 1.54 4.02 2.88 3.18 2 5.45 4.5 7.89 7.28l2.9 3.23 1.44 1.61c3.95 4.31 8.14 8.44 12.44 12.41 2.33 2.52 3.86 5.13 5.53 8.13 1.98 3.52 4 6.78 6.44 10 3.5 5.98 5.73 12.47 8 19l1.19 3.06c.98 3.55 1.29 7 1.56 10.67C905 508 905 508 906 511c.9 12.37-.21 26.48-5 38l-.94 2.47c-5.31 13.8-5.31 13.8-10.06 18.53l-1.25 2.81c-1.94 3.53-3.97 5.3-7.13 7.7-1.62 1.5-1.62 1.5-2.41 3.35-1.88 3.31-4.94 5.1-8.02 7.2l-1.87 1.31A123 123 0 0 1 853 602l-3 1.56c-5.66 2.71-11.72 4.26-17.75 5.94l-2.27.64A342 342 0 0 1 823 612l-2.14.6c-7.95 1.93-16.02 1.66-24.15 1.6q-3.8-.02-7.61-.02l-4.87-.02h-2.28c-3.04-.03-5.8-.13-8.76-.84-2.19-.32-2.19-.32-3.88.74l-1.51 1.65-1.71 1.82-1.78 1.97c-5.38 5.7-10.6 10.38-17.31 14.5 4.51 4.76 4.51 4.76 6.98 5.95 4.21 2.18 7.12 6.38 9.33 10.48 1.73 6.45 2.29 11.3-.31 17.57-4.08 4.84-7.97 7.9-14.31 8.62l-2.12.16q-3.15.28-6.29.78c-4.56.58-8.86.26-13.4-.25l-2.5-.27A100 100 0 0 1 698 670l2.06 1.43c6.41 5.6 10.58 11.12 11.94 19.57l.75 3.62c.27 3.7-.49 5.93-1.75 9.38q-13.98.17-27.96.25l-12.98.12q-6.26.1-12.52.1l-4.78.05q-3.34.06-6.7.04l-3.85.04c-3.21-.6-3.21-.6-5.58-2.9-2.07-3.43-2.84-6.84-3.63-10.7l-.6-2.24c-1.4-5.37-1.3-9.3-.4-14.76l-.06-3.19c.06-2.8.06-2.8 2.06-7.8h-16l2 4c.26 2.53.26 2.53.27 5.38v3.15l-.02 3.27.02 3.23c-.02 8.4-.71 15.3-6.27 21.96-3.29.72-3.29.72-7.25.68h-2.19q-3.57-.01-7.14-.1l-4.96-.02q-6.52-.05-13.04-.15-6.66-.08-13.31-.12-13.05-.1-26.11-.29c-2.53-7.59-.25-15.3 3.1-22.3l.9-1.7c-1.94-2.63-1.94-2.63-5-5-1.92.2-1.92.2-4.07.83-5 1.28-9.66 1.47-14.8 1.42l-2.65-.02c-17.22-.27-17.22-.27-23.48-5.23l-2.75-2c-3.31-4.42-3.51-8.58-3.25-14 2.98-10.36 10.19-16.43 19-22l-2.24-.79a24 24 0 0 1-6.88-4.59l-2.01-1.77c-1.87-1.85-1.87-1.85-3.3-3.89-1.9-2.38-3.95-3.4-6.57-4.96a332 332 0 0 1-7.99-7.73C476 608 476 608 476 606a128 128 0 0 0-4.49-3.59c-1.77-1.66-2.44-3.24-3.51-5.4q-1.96-2.55-4-5a42 42 0 0 1-6-9q-2.3-3.44-4.66-6.8c-1.31-2.17-1.75-3.77-2.34-6.2q-1.46-2.94-3-5.83c-2.3-4.5-3.59-8.1-4-13.18q-.96-3-2-6c-1.39-5-2.28-9.76-2.78-14.92a86 86 0 0 0-.72-5.08c-1.69-10.15-2.76-20.89-.5-31l.25-3.07c1.37-9.94 7.22-20.45 13.75-27.93 2.59-1.95 2.59-1.95 5.38-3.69l2.77-1.76c9.19-5 19.77-4.47 29.85-2.55l-.4-1.73A147 147 0 0 1 487 439l-.49-3.6c-.59-4.75-.88-9.5-1.13-14.28l-.16-2.59-.13-2.46-.13-2.23C485 412 485 412 486 410q.02-2.5-.06-5c-.06-5.58.8-10.6 2.06-16 .79-3.7 1.35-7.39 1.88-11.13 1.95-12.6 6.21-24.48 10.32-36.52l1.93-5.73c2.38-6.85 5.54-13.2 8.87-19.62l1.53-3.09c1.24-2.46 2.54-4.84 3.91-7.23a119 119 0 0 0 5.67-11.64 73 73 0 0 1 1.84-3.92c3.48-7.07 7.34-15.13 7.05-23.12-2.65-3.79-6.32-5.95-10.06-8.63-9.11-6.55-18.74-13.64-22.94-24.37l-1.14-2.69c-4.11-11.58-3.59-23.92-3.72-36.06-.14-3.25-.14-3.25-.65-6.79-.8-6.06-.59-12.15-.55-18.24l.01-6.04.06-12.69.05-12.47.03-5.8c.01-6.09-.13-12.06-.87-18.1-.43-4.14-.26-8.26-.18-12.4.05-4.04-.35-7.75-1.04-11.72q-.06-2.91 0-5.82c.04-4.38-.21-8.55-.78-12.9-.34-3.53-.24-7.06-.16-10.6-.06-2.68-.06-2.68-.57-5.45-.63-4.14-.5-8.07-.3-12.23l.05-2.37c.31-6.4 2.19-10.18 6.91-14.68 6.09-4.66 10.91-7.52 18.86-7.26 3.49.54 6.13 2.37 8.99 4.31l2.53 1.57C543.34 36.68 543.34 36.68 545 40q1.88 1.05 3.81 2a61 61 0 0 1 11.25 8c4.43 3.8 8.9 7.05 13.94 10l3.25 2.18c5.99 3.95 5.99 3.95 9.38 3.35 3.81-.6 7.46-.59 11.3-.48l2.34.06 5 .12q5.31.13 10.64.22 9.9.19 19.79.44 6.89.17 13.79.3 2.63.04 5.24.12a599 599 0 0 0 7.34.15l2.17.08c5.71.03 7.83-1.76 11.76-5.54q2.47-1.55 5-3 2.18-1.49 4.31-3 8.04-5.66 16.16-11.18 4.85-3.31 9.53-6.82 3.27-2.22 6.58-4.4 2.34-1.55 4.65-3.15c9.94-6.84 22.39-15.32 33.54-5.97M561 665l-3 4 5-2zm129 1 3 3 2-1zm-142 6 3 3 7-5c-4.18-1.4-6.13.17-10 2" fill="#151816"/><path d="M850 329c3.36 3.14 5.8 6.39 6.38 11-.26 9.66-7.19 16.31-13.76 22.55L840 365a39 39 0 0 0-6.69 8.06l-1.26 2.04c-3.62 6.55-3.13 15.65-2.05 22.9 1.73 5.79 4.75 10.94 8 16l1.7 2.68c3.7 5.19 8.29 8.95 13.27 12.87 5.07 4.1 9.81 8.56 14.54 13.05q2 1.87 4 3.71C882.9 457.13 890.35 470.93 897 485l.92 1.9c7.61 16.28 6.64 41.89 1.34 58.78L898 549l-1.32 3.63C892.2 563.98 886 573.76 877 582l-2.44 2.56c-21.77 20.71-52.16 26.6-81.19 26.68q-3.39.02-6.78.07l-4.33.02-3.94.03c-3.47-.38-4.83-.98-7.32-3.36l3-1a68 68 0 0 0 2-4q2.09-3.12 4.25-6.19l2.43-3.48 1.19-1.71a710 710 0 0 0 5.94-8.62 43 43 0 0 0 3.19-7h2l.44-2.38C796 571 796 571 797 569c1.71-.42 1.71-.42 3.95-.68l2.49-.31 2.68-.32c16.42-2.24 33.37-6.89 43.88-20.69 8.11-13.99 11.17-26.68 8.35-42.71C854.95 492.24 848 482.44 840 473l-2.32-2.95c-2.79-3.35-6.02-5.88-9.49-8.49l-3.76-2.91-5.73-4.42c-6.65-5.43-11.6-12.39-16.7-19.23l-2.08-2.78c-12.06-16.62-17.76-35.2-14.54-55.65 3.65-18.56 14.01-34.06 29.75-44.65 10.15-6.46 24.05-9.47 34.87-2.92" fill="#101211"/><path d="M755.77 23.48C757 25 757 25 757 27l1.88.68c2.77 1.72 3.15 3.26 4.12 6.32l1 3a260 260 0 0 1 .78 10.66c.24 4.03.03 7.37-.78 11.34-.1 3.25-.05 6.5 0 9.75l.06 5.17.04 2.3C764 78 764 78 763 79q-.23 2.85-.32 5.7l-.12 3.63-.12 3.92-.13 3.97c-.27 8.61-.4 17.2-.27 25.81a95 95 0 0 1-.54 11.67c-.66 7.07-.61 14.11-.57 21.2l.02 7.36.05 15.61.06 18.17.03 7.24.01 4.44.01 3.9A41 41 0 0 1 760 220l-.37 2.37c-3.16 13.24-10.7 22.01-20.63 30.63l-6.89 6.27A52 52 0 0 1 725 264c-2.19 1.66-2.89 2.4-3.37 5.12.54 4.2 1.91 7.92 3.37 11.88l1.14 3.2c2.07 5.62 4.2 10.73 7.54 15.72 4.96 7.82 8.57 16.62 12.32 25.08l.91 2.03c1.58 3.6 2.87 7.23 4.09 10.97l.97 2.34a67 67 0 0 1 2.47 8.1A53 53 0 0 0 759 360c.63 2.56.63 2.56 1 5a71 71 0 0 0 2 8.25 59 59 0 0 1 1.75 10.73C764 386 764 386 765 389v5l1 1c1.1 6.6 1.1 13.33 1.13 20l.01 2.24c-.01 3.2-.13 5.72-1.14 8.76v3.43c0 2.94-.29 4.81-1 7.57v3.12c0 2.88 0 2.88-1 4.88-.81 3.64-1.39 7.32-2 11l2.75-.7c12.07-2.85 18.45-2.59 29.55 2.93 2.95 1.93 4.62 3.94 6.7 6.77l2.56 2.5c10.39 10.65 12.19 28.3 12.44 42.5-.19 2.71-.57 5.3-1 8v2.68c0 2.58-.48 4.8-1 7.32l-.94 5.93A66 66 0 0 1 810 546q-.74 2.68-1.44 5.37A123 123 0 0 1 804 565c19.07-2 19.07-2 27.31-7 1.69-1 1.69-1 4.88-2.5 4.84-2.59 7.07-5.87 9.81-10.5l2.94-3.82c6.67-8.8 8.93-17.15 8.06-28.18-2.66-14.87-8.22-26.54-18-38l-1.58-2.02c-3.48-4.33-7.45-7.64-11.86-10.98-21.7-16.58-38.41-37.63-43.56-65a76 76 0 0 1 0-12l.2-3.34c.59-8.25.59-8.25 1.8-10.66l-1-3c1.1-3.76 1.66-4.78 5-7 .56-2.06.56-2.06.88-4.44.84-4.37.84-4.37 3.37-6.13L795 349a68 68 0 0 0 2.69-3.63c7.18-9.9 16.24-15.6 27.31-20.37l2.66-1.2c7.08-2.72 13.38-1.47 20.34 1.2 4.98 2.92 7.96 6.56 10 12 1.6 6.25-.17 9.5-3.12 15.02-3.31 5.24-7.47 9.26-12.5 12.85-5.44 4.86-9.96 12.88-10.68 20.18-.02 6.68.31 11.95 3.3 17.95l1.14 2.5A55 55 0 0 0 845 419v2l1.63.62c2.75 1.6 4.57 3.51 6.71 5.84 1.66 1.54 1.66 1.54 4.02 2.88 3.18 2 5.45 4.5 7.89 7.28l2.9 3.23 1.44 1.61c3.95 4.31 8.14 8.44 12.44 12.41 2.33 2.52 3.86 5.13 5.53 8.13 1.98 3.52 4 6.78 6.44 10 3.5 5.98 5.73 12.47 8 19l1.19 3.06c.98 3.55 1.29 7 1.56 10.67C905 508 905 508 906 511c.9 12.37-.21 26.48-5 38l-.94 2.47c-5.31 13.8-5.31 13.8-10.06 18.53l-1.25 2.81c-1.94 3.53-3.97 5.3-7.13 7.7-1.62 1.5-1.62 1.5-2.41 3.35-1.88 3.31-4.94 5.1-8.02 7.2l-1.87 1.31A123 123 0 0 1 853 602l-3 1.56c-5.66 2.71-11.72 4.26-17.75 5.94l-2.27.64A342 342 0 0 1 823 612l-2.14.6c-7.95 1.93-16.02 1.66-24.15 1.6q-3.8-.02-7.61-.02l-4.87-.02h-2.28c-3.04-.03-5.8-.13-8.76-.84-2.19-.32-2.19-.32-3.88.74l-1.51 1.65-1.71 1.82-1.78 1.97c-5.38 5.7-10.6 10.38-17.31 14.5 4.51 4.76 4.51 4.76 6.98 5.95 4.21 2.18 7.12 6.38 9.33 10.48 1.73 6.45 2.29 11.3-.31 17.57-4.08 4.84-7.97 7.9-14.31 8.62l-2.12.16q-3.15.28-6.29.78c-4.56.58-8.86.26-13.4-.25l-2.5-.27A100 100 0 0 1 698 670l2.06 1.43c6.41 5.6 10.58 11.12 11.94 19.57l.75 3.62c.27 3.68-.35 6-1.75 9.38h-3l.18-3.19c.37-9.58-.04-16.17-6.75-23.54-4.27-4.03-9.02-6.1-14.43-8.27v-9l1.98 1.13c15.03 8.43 27.32 12.22 44.52 12.18l3.84.05c15.91.01 15.91.01 21.7-5.19 2.25-5.07 1.77-11.27.3-16.53-3.8-8.48-10.99-12.43-19.34-15.64v-2c1.62-1.23 1.62-1.23 3.88-2.63 6.48-4.18 12.76-8.8 18.12-14.37l2-2h2l.94-1.94C768 611 768 611 769 610q3.95-.08 7.89 0l5 .06 2.66.03c15 .16 29.73.23 44.45-3.09l3.47-.78c15.61-4.2 32.46-12.28 43.53-24.22l1.76-1.56c13.69-12.49 22.18-32.64 23.49-50.95q.24-6 .25-11.99v-2.16c-.03-11.73-1.33-21.7-6.5-32.34l-1.1-2.37c-10.73-22.72-26.92-40.07-47.02-54.95-9.7-9.06-17.95-21.09-18.48-34.62l-.02-2.38-.04-2.24c.22-8.2 4.37-15.3 9.66-21.44q2.95-2.69 6.01-5.25c6.11-5.37 10.41-11 11.43-19.32-.54-4.19-1.73-6.2-4.44-9.43-2.62-1.82-2.62-1.82-5-3l-2-1c-14.06-1.19-24.25 1.78-35.25 10.58-13.89 12.18-21.7 28.02-23.27 46.38-1.23 24.35 10.8 44.36 26.52 62.04a186 186 0 0 0 19.44 17.25c13.61 11.1 26.85 28.66 28.77 46.71.69 14.21-.97 26.9-10.46 38.2-6.89 7.23-13.28 12.45-22.75 15.84q-1.63.59-3.32 1.18c-8.48 2.73-15.81 3.3-24.68 2.82l1.19-3.5L802 559l1.21-3.6c8.06-24.5 13.76-56.34 1.79-80.4-4.52-8.53-10.48-13.48-19.5-16.88-9.71-2.82-18.16-.24-27.5 2.88.42-4.84.89-9.64 1.75-14.4 8.88-49.82-4.8-98.48-27.75-142.6-15.29-29.64-15.29-29.64-13-39 2.41-3.07 5.35-5.09 8.56-7.25l4.82-3.46 2.37-1.66C746.8 243.9 753.81 232.54 757 218c1.02-8.02.79-16.12.73-24.18l.03-7q.04-9.22 0-18.42-.02-14.53.03-29.07l.01-7.14a1108 1108 0 0 1 1.67-59.78l.12-2.25c.27-4.76.79-9.44 1.41-14.16 1.5-19.48 1.5-19.48-3.47-26.4-4.25-4.45-7.95-5.87-13.97-6.48-8.95.36-15.5 5.88-22.56 10.88l-4.91 3.4a1433 1433 0 0 0-10.19 7.14 974 974 0 0 1-15 10.38q-.85.59-1.74 1.18l-1.81 1.21c-2.35 1.7-2.35 1.7-5.1 4.11-10.04 8.55-18.84 9.03-31.66 8.83l-5.84.02q-6.08 0-12.17-.08a729 729 0 0 0-15.51-.02q-6.01.02-12.03-.03l-5.72.01c-12.26.05-19.74-.93-29.32-9.15a275 275 0 0 0-4.44-3.17q-2.07-1.5-4.12-3.02a781 781 0 0 0-21.8-15.27q-6.55-4.44-12.89-9.17c-6.19-4.5-11.33-7.1-19.18-6.86-5.72 1.08-10.11 4.56-13.57 9.11-4.48 10.65-1.75 24.32-1.2 35.6l.4 8.5.27 5.5.11 2.52q.28 5.94.92 11.83c.76 7.32.86 14.67 1.04 22.02l.06 2.41a2121 2121 0 0 1 .65 43.32q.1 10.23.15 20.48.03 6.4.1 12.83l.03 4.78c.04 16.34 2.67 32.2 14.29 44.6a141 141 0 0 0 17.8 13.71l2.19 1.46 1.9 1.17c2.16 2.75 1.57 5.27 1.29 8.65-3.38 15.53-11.88 30.34-19.24 44.28-15.36 29.2-24.97 64.4-25.01 97.4l-.01 2.23c0 11.22.75 21.97 2.9 33 .64 3.67.98 7.38 1.36 11.1l-2.71-.67c-11.45-2.64-20.68-4.28-31.29 1.66-9.33 6.1-14.69 15.82-17.18 26.52-1.21 6.7-1.12 13.4-1.07 20.16l.01 2.02c.21 34.4 11.16 66.41 34.24 92.3l2.24 2.57q3.34 3.75 6.76 7.43l2.11 2.27C494.83 622.3 503.7 628.9 513 635c-2.18 2.18-3.94 2.94-6.75 4.18-6.88 3.38-11.67 8.51-14.25 15.82-.53 4.56-.48 8.57 1 12.93 4.43 4.57 10.1 5.26 16.2 5.46q3.46.03 6.93-.02l3.65-.03c14.65-.26 29.79-3.06 42.22-11.34h3v7l-2.12 1c-7.72 3.86-14.03 8.45-18.06 16.28-1.06 3.5-1.28 6.91-1.44 10.53l-.38 7.2-3-1c-2.69-5.39-.53-11.3 1.15-16.68A51 51 0 0 1 544 680c-1.94-2.63-1.94-2.63-5-5-1.92.2-1.92.2-4.07.83-5 1.28-9.66 1.47-14.8 1.42l-2.65-.02c-17.22-.27-17.22-.27-23.48-5.23l-2.75-2c-3.31-4.42-3.51-8.58-3.25-14 2.98-10.36 10.19-16.43 19-22l-2.24-.79a24 24 0 0 1-6.88-4.59l-2.01-1.77c-1.87-1.85-1.87-1.85-3.3-3.89-1.9-2.38-3.95-3.4-6.57-4.96a332 332 0 0 1-7.99-7.73C476 608 476 608 476 606a128 128 0 0 0-4.49-3.59c-1.77-1.66-2.44-3.24-3.51-5.4q-1.96-2.55-4-5a42 42 0 0 1-6-9q-2.3-3.44-4.66-6.8c-1.31-2.17-1.75-3.77-2.34-6.2q-1.46-2.94-3-5.83c-2.3-4.5-3.59-8.1-4-13.18q-.96-3-2-6c-1.39-5-2.28-9.76-2.78-14.92a86 86 0 0 0-.72-5.08c-1.69-10.15-2.76-20.89-.5-31l.25-3.07c1.37-9.94 7.22-20.45 13.75-27.93 2.59-1.95 2.59-1.95 5.38-3.69l2.77-1.76c9.19-5 19.77-4.47 29.85-2.55l-.4-1.73A147 147 0 0 1 487 439l-.49-3.6c-.59-4.75-.88-9.5-1.13-14.28l-.16-2.59-.13-2.46-.13-2.23C485 412 485 412 486 410q.02-2.5-.06-5c-.06-5.58.8-10.6 2.06-16 .79-3.7 1.35-7.39 1.88-11.13 1.95-12.6 6.21-24.48 10.32-36.52l1.93-5.73c2.38-6.85 5.54-13.2 8.87-19.62l1.53-3.09c1.24-2.46 2.54-4.84 3.91-7.23a119 119 0 0 0 5.67-11.64 73 73 0 0 1 1.84-3.92c3.48-7.07 7.34-15.13 7.05-23.12-2.65-3.79-6.32-5.95-10.06-8.63-9.11-6.55-18.74-13.64-22.94-24.37l-1.14-2.69c-4.11-11.58-3.59-23.92-3.72-36.06-.14-3.25-.14-3.25-.65-6.79-.8-6.06-.59-12.15-.55-18.24l.01-6.04.06-12.69.05-12.47.03-5.8c.01-6.09-.13-12.06-.87-18.1-.43-4.14-.26-8.26-.18-12.4.05-4.04-.35-7.75-1.04-11.72q-.06-2.91 0-5.82c.04-4.38-.21-8.55-.78-12.9-.34-3.53-.24-7.06-.16-10.6-.06-2.68-.06-2.68-.57-5.45-.63-4.14-.5-8.07-.3-12.23l.05-2.37c.31-6.4 2.19-10.18 6.91-14.68 6.09-4.66 10.91-7.52 18.86-7.26 3.49.54 6.13 2.37 8.99 4.31l2.53 1.57C543.34 36.68 543.34 36.68 545 40q1.88 1.05 3.81 2a61 61 0 0 1 11.25 8c4.43 3.8 8.9 7.05 13.94 10l3.25 2.18c5.99 3.95 5.99 3.95 9.38 3.35 3.81-.6 7.46-.59 11.3-.48l2.34.06 5 .12q5.31.13 10.64.22 9.9.19 19.79.44 6.89.17 13.79.3 2.63.04 5.24.12a599 599 0 0 0 7.34.15l2.17.08c5.71.03 7.83-1.76 11.76-5.54q2.47-1.55 5-3 2.18-1.49 4.31-3 8.04-5.66 16.16-11.18 4.85-3.31 9.53-6.82 3.27-2.22 6.58-4.4 2.34-1.55 4.65-3.15c9.94-6.84 22.39-15.32 33.54-5.97M561 665l-3 4 5-2zm129 1 3 3 2-1zm-142 6 3 3 7-5c-4.18-1.4-6.13.17-10 2" fill="#E4E5E6"/><path d="m579 496 2.19 2.2c12.28 12.23 26.23 24.6 44.56 25.18q2.13-.13 4.25-.38l2.06-.21c15.51-2.54 28.71-13.37 38.38-25.14L672 496h2c.54 4.85-1.17 7.47-3.75 11.5l-2.11 3.34c-3.15 4.64-6.29 8.55-10.64 12.1l-2.28 1.9a81 81 0 0 1-9.42 5.3l-3.29 1.62L640 533l.09 1.97c.77 17.65 1.1 35.27 1.1 52.93l.02 8.2c.07 14.31-.07 28.56-1.1 42.84l-.23 3.3A126 126 0 0 1 637 660h-21c-1.34-4.68-2.26-7.96-2.6-12.59l-.24-3.13-.22-3.22-.24-3.11q-.37-4.98-.7-9.95l-.28-3.72a424 424 0 0 1-.84-31.28v-2.58c.02-13.82.31-27.61 1.12-41.42l.15-2.54q.39-6.73.85-13.46l-2.34-1.1c-12.85-6.2-12.85-6.2-17.66-10.9v-2l-1.71-.62c-3.14-1.89-4.94-4.53-6.98-7.5l-1.22-1.77c-2.98-4.5-4.19-7.76-4.09-13.11" fill="#000"/><path d="M738 473h1c1.12 29.19-4.44 59.41-14 87l-1.66 4.89a415 415 0 0 1-8.4 22.73C705.08 612.1 699.53 637.88 696 664c-3.76-.52-6.39-1.15-9-4-1.71-16.07 5-33.97 10-49l.96-2.93 1.89-5.64 2.71-8.14a1556 1556 0 0 1 9-26.48l2.63-7.49 1.54-4.38c8.97-25.43 16.91-52.05 20.88-78.75C737 475 737 475 738 473" fill="#000200"/><path d="M758 180h1l.18 2.09.26 2.85.27 3.07q.37 3.63.85 7.24c.92 8.04 1.3 16.85-.56 24.75l-.38 2.38c-3.15 13.24-10.69 22-20.62 30.62l-6.89 6.27A51 51 0 0 1 725 264c-2.19 1.66-2.89 2.4-3.38 5.12.55 4.19 1.92 7.93 3.38 11.88l1.14 3.19c2.07 5.63 4.2 10.75 7.54 15.73 4.96 7.83 8.57 16.62 12.32 25.08l.91 2.03c1.57 3.6 2.87 7.24 4.09 10.97l.97 2.34a67 67 0 0 1 2.47 8.1A53 53 0 0 0 759 360c.62 2.56.62 2.56 1 5a71 71 0 0 0 2 8.25 60 60 0 0 1 1.75 10.73C764 386 764 386 765 389v5l1 1c1.09 6.6 1.1 13.33 1.12 20l.02 2.25c-.01 3.18-.13 5.71-1.14 8.75v3.44c0 2.93-.29 4.8-1 7.56v3.12c0 2.88 0 2.88-1 4.88-.81 3.64-1.39 7.32-2 11l2.75-.69c12.07-2.85 18.45-2.59 29.55 2.92 2.95 1.93 4.62 3.94 6.7 6.77l2.56 2.5c10.39 10.65 12.19 28.3 12.44 42.5a90 90 0 0 1-1 8v2.69c0 2.57-.48 4.79-1 7.31l-.94 5.94A66 66 0 0 1 810 546l-1.44 5.38A124 124 0 0 1 804 565c19.07-1.99 19.07-1.99 27.3-7 1.7-1 1.7-1 4.89-2.5 4.84-2.58 7.07-5.87 9.81-10.5l2.88-3.69c3.39-4.44 5.78-9.25 8.12-14.31l2 1c-3.23 13.3-10.02 23.66-21.56 31.19-6.41 3.65-13.39 5.73-20.44 7.81l-1.99.63c-3.09.57-6.13.46-9.26.43l-3.83-.02L799 568l1.19-3.5L802 559l1.21-3.6c8.06-24.49 13.76-56.33 1.79-80.4-4.52-8.53-10.48-13.47-19.5-16.88-9.72-2.82-18.16-.23-27.5 2.88.42-4.83.89-9.63 1.75-14.41 8.88-49.81-4.8-98.47-27.75-142.59-15.29-29.63-15.29-29.63-13-39 2.41-3.07 5.34-5.08 8.56-7.25l4.82-3.45 2.37-1.67c12.12-8.77 18.84-20.09 22.25-34.63.95-6.65.89-13.36.88-20.06q.01-2.64.06-5.26.07-6.34.06-12.68" fill="#E8EBE9"/><path d="M513 474c1.84 3.26 2.62 6.35 3.38 10.01l.78 3.68.41 1.97c5.1 24 12.65 47.2 20.37 70.46l.7 2.14 2.01 6 1.16 3.44c1.26 3.5 2.72 6.88 4.19 10.3a397 397 0 0 1 14.56 47.94l.52 2.11A144 144 0 0 1 565 661c-3.44 2.29-4.72 3-9 3l-.04-2.4c-1.31-31.94-12.85-64.29-25.02-93.6-5.99-14.84-9.68-30.37-12.94-46l-.51-2.45q-.77-3.77-1.49-7.55l-.55-2.81c-1.39-7.65-1.86-15.17-2.07-22.94l-.12-3.59z" fill="#000100"/><path d="M755.77 23.48C757 25 757 25 757 27l1.88.68c2.77 1.72 3.15 3.26 4.12 6.32l1 3q.38 4.19.63 8.37l.15 2.3A41 41 0 0 1 764 59c-.1 3.25-.05 6.5 0 9.75l.06 5.17.04 2.3C764 78 764 78 763 79q-.23 2.85-.32 5.7l-.12 3.63-.12 3.92-.13 3.97c-.27 8.61-.4 17.2-.27 25.81.04 4.04-.11 7.97-.52 12-.57 6.06-.74 12.1-.84 18.2l-.06 3.38-.18 10.57-.13 7.22L760 191h-1c-1-8.77-1.16-17.47-1.17-26.28l-.01-4.44-.01-11.79v-7.3c0-19.75.16-39.47 1.13-59.19l.13-2.7q.18-3.72.4-7.43l.11-2.1q.3-5 .94-9.98c2.81-22.1 2.81-22.1-2.99-30.19-4.25-4.45-7.95-5.87-13.97-6.48-8.95.36-15.5 5.88-22.56 10.88l-4.91 3.4a1433 1433 0 0 0-10.19 7.14 974 974 0 0 1-15 10.38q-.85.59-1.74 1.18l-1.81 1.2C685 59 685 59 682.25 61.43c-10.07 8.61-18.8 8.91-31.65 8.54l-5.79-.04q-7.55-.07-15.1-.25-7.73-.14-15.47-.2-15.12-.16-30.24-.48v-1h3.14q14.64 0 29.3-.08 7.53-.05 15.07-.04 7.28 0 14.55-.06h5.54c17.52.08 17.52.08 23.06-5.38L676 61q2.48-1.55 5-3 2.18-1.49 4.31-3 8.04-5.66 16.16-11.18 4.85-3.31 9.53-6.82 3.27-2.22 6.58-4.4 2.34-1.55 4.65-3.15c9.94-6.84 22.39-15.32 33.54-5.97" fill="#DEE0E0"/><path d="M633.69 199.38a22 22 0 0 1 4.3 3.62c-.07 4.44-.56 6.5-3.42 9.94C632 215 632 215 630 215l.19 2.81c-.2 3.19-.2 3.19-1.38 5.06-2.46 1.53-3.95 1.56-6.81 1.13-2.52-1.69-2.98-2.95-3.87-5.87-1.34-3.72-3.21-5.51-6.13-8.13-1-1-1-1-1.43-3.75.43-3.25.43-3.25 2.62-6.12 5.7-4.22 14.24-3.09 20.5-.75" fill="#636564"/><path d="M797 569h12l-2.25 3.01a77 77 0 0 0-6.69 11.8c-8.31 17.03-8.31 17.03-14.06 23.19h-2v3q-2.4.08-4.81.12l-2.71.08C774 610 774 610 771 608l3-1a68 68 0 0 0 2-4q2.09-3.12 4.25-6.19l2.43-3.48 1.19-1.71a710 710 0 0 0 5.94-8.62 43 43 0 0 0 3.19-7h2l.44-2.38C796 571 796 571 797 569" fill="#000100"/><path d="M830 383h1l.33 3.29.48 4.33.22 2.17A30 30 0 0 0 836 405l.99 2.12a39 39 0 0 0 5.76 9.26C845 419 845 419 845 421l1.62.62c2.76 1.6 4.58 3.52 6.72 5.84 1.66 1.54 1.66 1.54 4.02 2.88 3.18 2 5.45 4.49 7.89 7.28l2.89 3.23 1.45 1.61a208 208 0 0 0 12.44 12.42c2.33 2.51 3.86 5.13 5.53 8.12 1.98 3.52 4 6.79 6.44 10 3.5 5.98 5.73 12.48 8 19l1.19 3.06c.98 3.55 1.29 7 1.56 10.67C905 508 905 508 906 511c-.25 2.59-.55 5.12-.94 7.69l-.3 2.12L904 526h-1l-.11-3.45c-1.35-33.89-15.87-60.99-40.18-83.98a193 193 0 0 0-15.83-12.88c-8.68-8.11-17.04-19.51-18.28-31.59-.03-3.41.01-6.71.4-10.1z" fill="#E2E3E5"/><path d="M785 399c2.19 3.28 3.04 6.11 4.19 9.88 7.38 22.75 23.69 39.88 42.25 54.37 13.78 11.24 24.77 27.23 28.56 44.75q.12 2.27.1 4.55l-.01 2.56-.03 2.64-.01 2.69L860 527h-3l.11-2.61c.44-19.28-5.7-34.84-18.11-49.39l-1.58-2.02c-3.48-4.32-7.45-7.64-11.86-10.98-16.73-12.78-36.7-31.82-40.14-53.7-.25-3.11-.41-6.18-.42-9.3" fill="#DCDEDF"/><path d="M616 660h20l-.11 5.77-.08 7.61-.07 3.79c-.08 10.18.98 18.61 7.26 26.83-3.49-.19-4.76-.74-7.19-3.31-2.84-4.72-3.08-10.34-3.81-15.69l-.58-2.69c-.54-2.97.04-5.35.58-8.31l-.06-3.06C632 668 632 668 634 663h-16l2 4c.26 2.55.26 2.55.27 5.39v3.15l-.02 3.27.02 3.24c-.02 8.54-.72 15.06-6.27 21.95h-3l.81-1.94L613 699l.77-1.72c2.96-7.44 2.57-14.98 2.42-22.84l-.04-4.22z" fill="#E7E9EC"/><path d="m687 660 1.98 1.14c14.18 7.94 26.38 12.02 42.58 12.48l3.35.12q4.04.14 8.09.26v1l-13 1v1a89 89 0 0 1-32-7l2.06 1.44c6.41 5.59 10.58 11.11 11.94 19.56l.75 3.62c.27 3.68-.35 6-1.75 9.38h-3l.18-3.18c.37-9.58-.04-16.17-6.75-23.55-4.27-4.02-9.03-6.11-14.43-8.27zm3 6 3 3 2-1z" fill="#E8E9EC"/><path d="m732 27-1.63 1.08c-18.46 12.25-36.79 24.63-54.68 37.71-4.53 3.25-7.59 3.49-13.02 3.44h-2.57q-4.22 0-8.42-.03l-5.84-.01-15.38-.05-15.68-.04q-15.39-.03-30.78-.1v-1h3.14q14.64.01 29.3-.08 7.53-.05 15.07-.04 7.28 0 14.55-.06h5.54c17.52.08 17.52.08 23.06-5.37L676 61q2.48-1.54 5-3a255 255 0 0 0 4.31-3c5.35-3.78 10.75-7.48 16.16-11.18q4.85-3.3 9.53-6.82 3.29-2.25 6.62-4.43a206 206 0 0 0 4.6-3.11l2.09-1.4 1.87-1.27c2.33-1.01 3.44-.48 5.82.21" fill="#C6C8CA"/><path d="m857 527 2 1c-3.23 13.3-10.02 23.66-21.56 31.19-6.41 3.65-13.39 5.73-20.44 7.81l-1.99.63c-3.09.57-6.13.46-9.26.43l-3.83-.02L799 568c2.31-8.35 2.31-8.35 5.19-11.06L806 556l1 2a135 135 0 0 1-3 7c19.07-1.99 19.07-1.99 27.3-7 1.7-1 1.7-1 4.89-2.5 4.84-2.58 7.07-5.87 9.81-10.5l2.88-3.69c3.39-4.44 5.78-9.25 8.12-14.31" fill="#EBEBEC"/><path d="M495 139h1l.02 2.88q.09 13.5.22 27.01l.11 13.88q.03 6.71.11 13.42l.04 5.1c.07 16.74 2.33 32.92 14.31 45.7 6.53 6 13.79 11.16 21.19 16.01l-2 2c-27.43-19.37-27.43-19.37-32-31l-1.18-2.65c-4.42-12.07-3.16-25.04-2.88-37.68q.17-8.06.3-16.12.35-19.27.76-38.55" fill="#D0D2D2"/><path d="M686.4 177.88c9.53-.3 17.64 1.81 25.6 7.12v2c-3.38-.55-5.08-1.06-8-3-16.65-3.96-36.37-1.34-51.1 7.22-2.36.97-3.54.62-5.9-.22 11.94-9.75 24.34-12.38 39.4-13.12" fill="#030403"/><path d="m756 83 .94 1.94C758 87 758 87 759 88q.12 2.52.08 5.06l-.02 3.31-.04 3.68-.03 3.84-.09 10.46-.27 31.62-.21 23.56L758 218h-1l-.5-39.38-.04-2.92c-.37-30.9-.61-61.8-.46-92.7" fill="#313332"/><path d="m573 179 2.62.34c8.06 1.34 17.18 4.15 23.38 9.66v2l2 1c-3.96-.48-6.67-1.93-10.06-3.95-9.25-5-20.56-6.63-30.94-6.05l-2.43.12c-7.92.6-15.29 2.73-22.57 5.88 1.09-2.69 2.13-4.54 4.75-5.93 10.89-3.88 21.86-4.58 33.25-3.07" fill="#030503"/><path d="M493 103h1c1.22 17.62 1.12 35.24 1.07 52.9l-.02 11.9L495 191l-2 1a109 109 0 0 1-1.13-15.33l-.01-2.09.02-6.83v-2.38c.02-20.79.57-41.58 1.12-62.37" fill="#EDEFEE"/><path d="m594.78 64.98 2.4.03 7.84.1q2.7.06 5.43.08l14.3.2 14.6.2L668 66v2h-84v-2c3.66-1.21 6.98-1.08 10.78-1.01" fill="#F0F3F4"/><path d="M491 50h1l.17 3.7.63 13.7.27 5.9.39 8.54.12 2.62q.39 7.68 1.21 15.32c.25 2.61.32 5.18.31 7.79l-.01 2.77-.03 2.78-.01 2.9L495 123h-3a132 132 0 0 1-.96-20.29c.05-4.04-.35-7.74-1.04-11.71-.06-2.91 0-5.8.06-8.71-.05-2.6-.27-4.95-.62-7.52-.62-5.21-.12-10.14.5-15.33l.3-2.77z" fill="#D3D3D3"/><path d="m792 350 2 1-1 3-.44 2.32c-.82 3.94-2.21 7.65-3.52 11.45L788 371l-1.12 3.42c-1.59 6.54-1.09 13.39-1 20.08l.02 4.23.1 10.27c-6.62-9.94-4.48-24.76-3-36l1-2-1-3c1.1-3.75 1.66-4.77 5-7 .66-2.09.66-2.09 1.06-4.5.73-4.29.73-4.29 2.94-6.5" fill="#E4E6E7"/><path d="M440 498h1l.06 2.06c1.02 33.24 1.02 33.24 6.23 48.72.82 3.71.44 6.52-.29 10.22l-2-1q-.55-3.5-1-7-.96-3.01-2-6a86 86 0 0 1-2.79-14.91q-.27-2.56-.71-5.09c-1.98-11.89-1.98-11.89-.5-17h1z" fill="#D1D2D2"/><path d="M888 465c5.1 6.04 8.97 12 11.25 19.59.83 2.67 1.85 5.24 2.87 7.85a44 44 0 0 1 2.7 13.47C905 508 905 508 906 511c-.25 2.59-.55 5.12-.94 7.69l-.3 2.12L904 526h-1l-.11-3.45c-.74-18.62-4.87-34.5-13.75-50.99C888 469 888 469 888 465" fill="#E4E5E7"/><path d="M785 399c2.19 3.28 3.04 6.11 4.19 9.88 4.56 14.06 12.08 24.51 21.61 35.63C812 446 812 446 813 448c-7.06-1.31-10.87-7.62-14.76-13.2-7.73-11.43-13.19-21.68-13.24-35.8" fill="#CCCFD0"/><path d="m761 65 2 1c.45 2.69.45 2.69.69 6l.26 3.31L764 78l-1 1q-.23 2.85-.32 5.7l-.12 3.63-.12 3.92-.13 3.97q-.4 12.98-.29 25.96c.03 5.99-.24 11.88-1.02 17.82h-1c-.85-25.2-1.55-49.86 1-75" fill="#E6E7E6"/><path d="M447 555c3.26 2.64 4.12 5.67 5.5 9.56 4.55 12.15 11.9 22.99 19.5 33.44-3 0-3 0-4.5-1.36l-1.5-1.83-1.5-1.79A78 78 0 0 1 460 586a1175 1175 0 0 0-5.38-8.28A48 48 0 0 1 451 570q-2.02-4.2-4.07-8.38c-.99-2.79-.98-3.91.07-6.62" fill="#E3E6E4"/><path d="M689 662a140 140 0 0 1 11.06 4.94c14.11 6.42 27.65 6.72 42.94 7.06v1l-13 1v1a85 85 0 0 1-36-9l-3.56-1.75L688 665z" fill="#E7E8E7"/><path d="M543 41c4.57-.46 6.59.74 10.19 3.5l2.89 2.2q5.36 4.21 10.63 8.54A66 66 0 0 0 574 60c7.57 4.94 7.57 4.94 10 7v2c-4.64-1.58-8.28-4.08-12.25-6.88l-2.08-1.45-4.39-3.07-7-4.89-4.59-3.21-2.19-1.53-2.05-1.44-1.8-1.26A41 41 0 0 1 543 41" fill="#E2E2E1"/><path d="m543 671 1 3c-12.92 3.59-28.12 5.23-41 1v-1l2.32-.06 10.56-.32 3.64-.09c6.33-.21 12.32-.66 18.5-2.11C540 671 540 671 543 671" fill="#DEE0E2"/><path d="M902 508h1l.59 6.15.41 1.85 2 1-.72 8.63q-.27 3.15-.46 6.3c-.61 8.72-2.41 16.09-7.82 23.07l-2 1 .55-1.73q1.26-4.13 2.45-8.27l.83-2.68c3.17-11.5 2.92-23.47 3.17-35.32" fill="#D5D4D6"/><path d="M761 37h1a1350 1350 0 0 1 .09 11.54c.02 4.5-.2 8.79-.83 13.25-.57 4.88-.64 9.8-.82 14.71l-.13 3.36L760 88h-1l-1-11h-1c-.11-9.4.01-18.64 1-28h1l1 5z" fill="#262827"/><path d="m556 670 3 2-2.56 1.5c-5.61 3.75-10.45 8.99-12.44 15.5-.29 2.63-.5 5.18-.62 7.81l-.12 2.1q-.14 2.54-.26 5.09l-3-1c-2.68-5.36-.54-11.36 1.05-16.77 1.01-2.36 2.11-3.48 3.95-5.23l1-3h3l.69-1.75c1.64-2.82 3.71-4.33 6.31-6.25" fill="#DBD8E3"/><path d="M828 609c-3.27 3.27-6.32 3.47-10.71 3.82-2.29.18-2.29.18-5.73.74-4.54.56-9 .52-13.56.44v-2h-14v-1l1.95-.06c11.76-.38 23.36-.84 35-2.64 2.76-.27 4.47-.21 7.05.7" fill="#DCE0DD"/><path d="M762 430h1c3.32 10.37 3.32 10.37 1 15q-.55 2.5-1 5l-.69 3.12C762 456 762 456 764 459l-6 2a394 394 0 0 1 2.98-24.02z" fill="#D4D7D6"/><path d="M758 180h1l.18 2.09.26 2.85.27 3.07q.37 3.63.85 7.24c.93 8.1 1.2 16.78-.56 24.75v3h-2c-1.21-4.65-1.04-9.05-.88-13.8l.07-2.54.25-7.97.16-5.43q.18-6.63.4-13.26" fill="#F1F3F4"/><path d="M756 220h2c1.61 4.84.19 7.55-2 12l-1.44 3.06c-3.79 7.13-8.43 11.78-14.56 16.94l-3-1 3.06-2.38c9.09-7.91 12.69-17.38 15.94-28.62" fill="#E3E5E5"/><path d="m853 349 2 1a20.4 20.4 0 0 1-5.81 9.06l-2.17 2.11C845 363 845 363 842.38 364.88c-4.68 4.18-7.39 10.11-10.13 15.68C831 383 831 383 829 384c.18-8.24 4.79-14.81 10.51-20.5q2.57-2.27 5.18-4.49c3.34-2.91 6.31-6.02 8.31-10.01" fill="#DCDEDE"/><path d="M490 391h1l.5 4.88.28 2.74C492 401 492 401 492 403l.5 1.82c.96 4.18.44 8.48.25 12.74l-.08 2.91-.22 5.33c-.53 2.61-1.42 3.53-3.45 5.2l-.05-13.71-.03-4.66-.02-6.73-.01-2.08c0-4.38.4-8.5 1.11-12.82" fill="#1F2223"/><path d="M490 440c2.38 3.8 2.66 7.89 3.12 12.25l.27 2.26.61 5.49-14-3 1-3 9 1-1.12-4.12c-.97-4.23-.73-6.87 1.12-10.88" fill="#D4D6D7"/><path d="M494 28c1.25 3.74.16 5.15-1.25 8.66-1.34 4.2-1.33 8.47-1.44 12.84l-.1 2.78L491 59h-2c-1.07-5.1-1.06-9.83-.81-15l.05-2.37c.28-5.79 1.57-9.44 5.76-13.63" fill="#F1F1F3"/><path d="m792 350 2 1-1 3-.45 2.3a85 85 0 0 1-2.43 8.95l-.99 3.2L788 371l-3 1c-1.12-1.69-1.12-1.69-2-4 1-3.8 1.66-4.77 5-7 .66-2.09.66-2.09 1.06-4.5.73-4.29.73-4.29 2.94-6.5" fill="#F0F1F2"/><path d="M634 677h1l.3 3.22c.95 9.35 2.39 15.81 7.7 23.78-3.54-.2-4.78-.76-7.25-3.38-4.12-6.95-2.88-15.99-1.75-23.62" fill="#DCDEDF"/><path d="M830 383h1l.33 3.29.48 4.33.22 2.17A30 30 0 0 0 836 405c.69 2.88.69 2.88 1 5-3-1-3-1-4.39-3.01-3.74-7.7-4.45-14.48-3.61-22.99z" fill="#E6E7E8"/><path d="M488 408h1c1.19 24.78 1.19 24.78 1 36l-3-1 .06-3.75c.01-2.34-.05-4.22-.62-6.5-.56-2.23 0-3.53.56-5.75q.2-2.27.32-4.55l.12-2.56.25-5.33z" fill="#D6D8D9"/><path d="M488 396h1c.19 10.36-.39 20.66-1 31-2.75-2.75-2.43-4.67-2.69-8.5l-.26-3.53C485 412 485 412 486 410c.03-2.8-.07-5.58-.16-8.37C486 399 486 399 488 396" fill="#F0F2F4"/><path d="m712 672 2.72.46c5.54.8 11.13.9 16.72 1.1l3.37.13 8.19.31v1l-13 1v1l-6.12-.38-3.45-.21A39 39 0 0 1 711 674z" fill="#C0C1C1"/><path d="M773 611c8.38-.15 16.65.32 25 1v2q-5.4.04-10.81.06l-3.11.03-2.97.01-2.75.01C776 614 776 614 773 613z" fill="#F0F3EF"/><path d="M491 374h2a277 277 0 0 1-3 24c-2-2-2-2-2.27-4.36.04-5.63.42-10.31 2.27-15.64z" fill="#E4E7E8"/><path d="m786 457-1 3h-15v-2l-3-1a38.4 38.4 0 0 1 19 0" fill="#2A2D2B"/><path d="M492 652h1l.37 2.41c1.66 10.53 1.66 10.53 3.63 15.59h-3c-3.5-3.89-3.29-7.74-3.2-12.7.2-2.3.2-2.3 1.2-5.3" fill="#27292A"/><path d="M439 491h2l-1 27h-1q-.55-4.59-1.06-9.19l-.32-2.62c-.62-5.63-.42-9.78 1.38-15.19" fill="#F0F1F1"/><path d="M634 666h1c.11 6.77-.12 13.29-1 20l-3-2c-.31-3.6.13-6.54 1-10l-.06-3.12C632 668 632 668 634 666" fill="#F1F1F4"/><path d="M616 660h20v9c-2-3-2-3-2-6h-9v-1l-9-1z" fill="#DEDFDD"/><path d="M857 508h3v19h-3z" fill="#E3E2E1"/><path d="m772.06 609.94 2.94.06-2 1.5a149 149 0 0 0-11 10.5l-3-2q2.44-2.56 5-5h2l.94-1.94c1.57-3.05 1.57-3.05 5.12-3.12" fill="#DFE1E0"/><path d="M508 323h1c-.47 6.91-3.21 12.72-6 19h-2c.71-6.96 3.89-12.84 7-19" fill="#EAEBED"/><path d="M616 661h12c-3.64 2.43-5.71 2.16-10 2l1 1.69c1.13 2.61 1.16 4.49 1 7.31l-3 1z" fill="#F0F1F2"/><path d="M902 500h2a42.4 42.4 0 0 1 1.06 18.94l-.3 2.07q-.37 2.5-.76 4.99h-1z" fill="#F1F3F3"/><path d="m543 671 6 2v5h-3l-1 3-4-5z" fill="#F6F2F8"/><path d="M812 502h1q.67 4.88 1.25 9.75l.39 2.79.31 2.69.32 2.48C815 522 815 522 811 526z" fill="#DADDDB"/><path d="M812 491c3.47 3.47 3.27 7.75 3.69 12.5l.32 3.41c-.01 3.07-.38 4.54-2.01 7.09h-1a199 199 0 0 1-1-23" fill="#F0F3F2"/><path d="M783 454v2l-20 2v-2c7.15-2.37 12.55-3.34 20-2" fill="#F2F5F3"/><path d="M852 330c3 1 3 1 4.62 3.69 3.03 7.27 3.03 7.27 1.77 11.24A94 94 0 0 1 856 350h-2l.32-2.67.37-3.52.38-3.48c-.08-3.75-.98-5.3-3.07-8.33z" fill="#E8E9EC"/><path d="M902 508h1l.59 6.15.41 1.85 2 1a550 550 0 0 1-.49 9.08C905 529 905 529 902 532z" fill="#C8C9CA"/><path d="M842.75 323.48c4.72 1.08 7.56 2.48 10.25 6.52-3 0-3 0-5.43-1.44-5.08-2.23-10.08-2.3-15.57-2.56 3.83-3.35 5.9-3.25 10.75-2.52" fill="#D4D6DB"/><path d="M525 288h1c.36 5-.66 7.98-3 12.38l-1.69 3.21L520 306l-2-1a42 42 0 0 1 2.94-8.5l1.02-2.28q1.48-3.13 3.04-6.22" fill="#EAEAEB"/><path d="M763 408h1l.18 3.25.26 4.31.12 2.14c.2 3.44.51 6.76 1.03 10.18.43 3.26.23 4.45-1.59 7.12h-1z" fill="#E7EAE8"/><path d="M756 357c2.94 2.43 3.47 4.28 4 8a60 60 0 0 0 2 8l-3 1c-1.97-5.82-3.4-10.83-3-17" fill="#F0F2F1"/><path d="M760 445h1l.15 2.3.23 3.01.21 2.99c.41 2.7.41 2.7 2.41 5.7l-6 2c.5-5.37 1.02-10.69 2-16" fill="#D1D4D2"/><path d="M495 360h2a104 104 0 0 1-3 16c-2.2-2.2-2.65-2.97-3-6 .78-2.58.78-2.58 1.94-5.25l1.15-2.7z" fill="#DBDDDE"/><path d="M494 214c3.14 2.55 3.81 5.07 4.75 8.94l.8 3.15c.43 2.77.38 4.31-.55 6.91-4.08-4.08-4.9-11.1-5.19-16.69z" fill="#DBDDDD"/><path d="m687 660 3 2v4a17 17 0 0 0 4 2.75l2.25 1.3 1.75.95-2 2-9-4z" fill="#D9DAD8"/><path d="m762 656 1 2 2 1c-.39 5.71-.87 8.74-5 13l-2-1 1.44-3.56A44 44 0 0 0 762 656" fill="#F2F6F2"/><path d="M808 478c2.35 1.74 3.79 3.18 4.52 6.06.56 4.5.51 8.49-.52 12.94h-1a605 605 0 0 1-3-19" fill="#E3E6E5"/><path d="M513 22v1l-1.91.26A34.5 34.5 0 0 0 495 30c.38-2.47.73-3.73 2.53-5.52 5.45-3.58 9.15-3.96 15.47-2.48" fill="#E1E1E2"/><path d="M747 20v2l-2.05.37-2.7.51-2.67.49c-2.58.63-2.58.63-4.66 1.76-2.39 1.08-3.5.73-5.92-.13 13.52-7.24 13.52-7.24 18-5" fill="#EEECF0"/><path d="m490 432 3 1 1 11h-3c-1.33-3.98-1.07-7.85-1-12" fill="#1E2021"/><path d="M836 470c3.3 1.42 5.32 3.12 7.69 5.81l1.82 2.02c1.66 2.42 2.11 4.29 2.49 7.17a95 95 0 0 1-12-14z" fill="#E4E5E7"/><path d="M835 410c2.98.33 3.91.9 5.96 3.18l1.85 2.7 1.9 2.67L846 421l-1 3-5-6.44-1.45-1.85c-3.55-4.6-3.55-4.6-3.55-5.71" fill="#D9D9DD"/><path d="M556 666c-.25 1.88-.25 1.88-1 4-3.18 2.36-6.15 2.17-10 2l-1-2 4.88-2 2.74-1.12C554 666 554 666 556 666" fill="#E4E3E5"/><path d="M470 456q2.4-.08 4.81-.12l2.71-.08c2.48.2 2.48.2 5.48 2.2-1 1-1 1-3.5 1.1l-3.06-.04-3.07-.02L471 459z" fill="#282A2C"/><path d="M749 640c4.52 2.32 7.01 4.99 10 9v2h-2c-2-2-2-2-3-5l-2-.94c-2-1.06-2-1.06-2.75-3.18z" fill="#1D1D1F"/><path d="m754 22 2 3c-3 1-3 1-4.89.1L749 24c-2.36-.41-2.36-.41-4.75-.62l-2.42-.23L740 23v-1c9.69-2.74 9.69-2.74 14 0" fill="#D2D1D4"/><path d="M475.19 453.94a273 273 0 0 1 5.8.06l1 2-16 1v-2c3.3-1.1 5.75-1.1 9.2-1.06" fill="#EDEFF1"/><path d="M785 399c2.01 3.01 2.73 5.21 3.62 8.69l.79 3.01.59 2.3-3 2-1-5.19-.56-2.92A43 43 0 0 1 785 399" fill="#B8BCBB"/><path d="m761 65 2 1c.52 2.58.52 2.58.81 5.81l.33 3.21C764 78 764 78 761 82z" fill="#F1F3F1"/><path d="M715 35v3c-1.64 1.61-1.64 1.61-3.81 3.19l-2.15 1.6C707 44 707 44 704 44v-2a43 43 0 0 1 11-7" fill="#E2E3E6"/><path d="M760 649c3.25 2.83 4.52 4.69 5 9h-2l-1 5h-1a1236 1236 0 0 1-1.66-10.06L759 650z" fill="#E0E2E0"/><path d="M761 621c-1.49 3.79-3.69 5.68-7 8h-2c.34-3.14 1.03-4.03 3.38-6.25C758 621 758 621 761 621" fill="#EDEEF1"/><path d="M843 605c-4.96 2.37-9.46 4.43-15 5l-1-2q3.16-1.05 6.31-2.06l3.55-1.16C840 604 840 604 843 605" fill="#EAECEC"/><path d="M440 521c2 2 2 2 2.25 5.38-.22 3.26-.53 4.93-2.25 7.62a33 33 0 0 1-1.56-7.69l-.26-2.45L438 522z" fill="#E0E3E0"/><path d="M756 368h2l1 4.75.56 2.67C760 378 760 378 760 382h-3z" fill="#1C1E20"/><path d="M541 693h1l1 11-3-1c-1.38-2.76-1.19-4.95-1-8z" fill="#F0F0F3"/><path d="m459.94 461.56 2.06.44c-3.08 3.26-5.93 6.02-10 8l-2-1c6.08-6.86 6.08-6.86 9.94-7.44" fill="#1B1E1E"/><path d="M754 25h3v2l1.88.75c2.47 1.46 3.07 2.63 4.12 5.25l-3 2-2.93-5.37C756 28 756 28 754 27z" fill="#E1E1E2"/><path d="M551 677c.86 2.41 1.09 3.69.38 6.19-1.38 1.81-1.38 1.81-4 2.56L545 686c1.31-3.94 2.92-6.23 6-9" fill="#1F1D28"/><path d="m758 669 1 2c-3.17 3.54-5.17 5.59-10 6l-1-4 1.93-.62 2.51-.82 2.49-.81C757 670 757 670 758 669" fill="#D9DCDA"/><path d="M492 648c1.25 3.55.72 5.72-.44 9.25l-.87 2.7L490 662h-2c-.38-5.24.74-8.38 3-13z" fill="#EDEEEF"/><path d="M442 479h2c-.57 4.69-1.19 9.35-2 14-2.18-2.18-2.6-3.01-3-6 .56-2.14.56-2.14 1.44-4.25l.87-2.14z" fill="#E4E7E6"/><path d="m853 349 2 1c-1.39 4.43-3.61 6.87-7 10l-3-1 1.5-1.68 1.94-2.2 1.93-2.17C852 351 852 351 853 349" fill="#D3D5D6"/><path d="M498 640c.75 1.69.75 1.69 1 4a49 49 0 0 1-6 7c.49-6.4.49-6.4 3.06-9.44z" fill="#E0E0E2"/><path d="m843 551 2 2-3.38 3-1.89 1.69C838 559 838 559 836 559c.19-1.81.19-1.81 1-4 2.5-1.69 2.5-1.69 5-3z" fill="#E1E2E4"/><path d="M490 68h2v13c-2.36-2.36-2.37-3.26-2.69-6.5l-.26-2.41C489 70 489 70 490 68" fill="#F0F3EF"/><path d="M543 686c1.1 3.31.93 5.25.56 8.69l-.31 3.01-.25 2.3h-1l-.44-2.88C541 694 541 694 540 692c1.56-4.56 1.56-4.56 3-6" fill="#C9C9CC"/><path d="M795 352h2c-1.22 4.03-2.56 7.54-5 11h-2c1.22-4.03 2.56-7.54 5-11" fill="#1D1F20"/><path d="M903 531h1v9l-3 1c-.2-6.05-.2-6.05 0-8z" fill="#E6E7E6"/><path d="M856 497c2.12 3.53 2.53 6.94 3 11l-3-1c-.75-3.66-1.24-6.42 0-10" fill="#CED1CF"/><path d="M762 437h1l1 12-3 1z" fill="#F5F8F8"/><path d="M494 28c1.14 3.41.87 4-.44 7.19l-.87 2.17L492 39l-3-4c3.88-5.87 3.88-5.87 5-7" fill="#E9E9EC"/><path d="M452 566c2.64 3.13 3.84 6.09 5 10h-2c-4-5.29-4-5.29-4-9z" fill="#DCDEDE"/><path d="M756 220h2c.75 2.25.75 2.25 1 5-1.94 2.31-1.94 2.31-4 4-1.6-3.2-.03-5.72 1-9" fill="#D6D9DA"/><path d="M710 691h2c1.12 6.62 1.12 6.62 0 10h-2z" fill="#F0F3F2"/><path d="m773 455-1 2c-2.07.41-2.07.41-4.56.62l-2.51.23-1.93.15v-2c6.62-2.12 6.62-2.12 10-1" fill="#E7EAE9"/><path d="m846 421 3.44 2.88 1.93 1.61C853 427 853 427 854 429c-3.79-.54-5.59-2.08-8-5z" fill="#E7E7EA"/><path d="M490 391h1l1 10h-1l-1 5h-1a80 80 0 0 1 1-15" fill="#4A4D4F"/><path d="M697 672c3.24.35 4.62.56 6.81 3.06L705 677l-3 1z" fill="#E6E6E8"/><path d="M858 530h3a29 29 0 0 1-3 8h-2a60 60 0 0 1 2-8" fill="#1D1F1D"/><path d="M709 691h1l.5 4.81.28 2.71C711 701 711 701 711 704h-3z" fill="#BABDBC"/><path d="M798 608h6v2l4 1c-6.62.12-6.62.12-10-1z" fill="#1D201E"/><path d="M466 592c3.74 1.25 4.19 2.63 6 6h-3c-2.19-2.5-2.19-2.5-4-5z" fill="#DDE1DE"/><path d="M888 465c2.12 2.62 4.13 5.2 6 8l-3 1c-2.29-3.44-3-4.72-3-9" fill="#ECECEF"/><path d="M760 445h1l1 10h-3z" fill="#CBCDCC"/><path d="M830 383h1l1 8-3 2-.06-4.44-.04-2.49c.1-2.07.1-2.07 1.1-3.07" fill="#F1F2F3"/><path d="m759 374 4 1v3h-2v5h-1z" fill="#DCDEDF"/><path d="M441 530c2 3.99 2.2 5.7 2 10l-3-1z" fill="#EFF2EE"/><path d="M810 486h2c1.05 3.98.84 6.98 0 11h-1z" fill="#D3D5D5"/><path d="M446 472h2c-1.75 5.75-1.75 5.75-4 8-1-3-1-3 .31-5.69z" fill="#D7D7D9"/><path d="M806 440c2.65 2.58 4.94 4.92 7 8-1.81-.19-1.81-.19-4-1-3-4.18-3-4.18-3-7" fill="#B9BCBC"/><path d="M488 437h2v7l-3-1z" fill="#EFF1F3"/><path d="M840 324v1q-2.16.33-4.31.62l-2.43.36C831 326 831 326 828 324c4.78-2.05 7.22-2.05 12 0" fill="#EDEEF2"/><path d="m719 275 2 2c-.38 2.62-.38 2.62-1 5-1.5-1.31-1.5-1.31-3-3v-3z" fill="#1D201E"/><path d="m504 21 9 1v1l-11 1z" fill="#D8D9DA"/><path d="m762 665 2 2-4 5-2-1c1.75-4.88 1.75-4.88 4-6" fill="#E8ECE8"/><path d="m752 627-1 4-6 1c4.75-5 4.75-5 7-5" fill="#DFE2DF"/><path d="m859 596-1 3c-2.56 1.19-2.56 1.19-5 2l-2-2c5.75-3 5.75-3 8-3" fill="#DADBDD"/><path d="m878 582 2 2-5 4-2-1z" fill="#F2F2F5"/><path d="m850 544 1 3-5 4c.31-2.38.31-2.38 1-5z" fill="#E9EAE9"/><path d="m483 457 6 1v3l-7-1z" fill="#1D2021"/><path d="M788 412c1.5 1.12 1.5 1.12 3 3 .19 3.19.19 3.19 0 6-2.1-2.36-2.97-3.55-3.19-6.75z" fill="#D9DCDB"/><path d="M789 364h1l1 8-3 2c-.12-6.62-.12-6.62 1-10" fill="#1F2124"/><path d="M517 305h2c-.75 4.75-.75 4.75-3 7l-2-3c1.38-2 1.38-2 3-4" fill="#DCDFE0"/><path d="M723 31v2l-7 4c.25-1.88.25-1.88 1-4 2.15-1.38 3.44-2 6-2" fill="#D6D8D9"/><path d="M509 20h7l1 2c-3.33 1.11-5.62.84-9 0z" fill="#EDEFEE"/></svg>