<svg style="background:transparent" version="1.1" xmlns="http://www.w3.org/2000/svg" viewBox="0 0 1248 704"><path d="m512.01-.2 2.3.02 2.38.05 2.41.03 5.9.1v2l2.62.56c3.9 1.66 5.4 3.47 7.9 6.78C537 11 537 11 538.93 11.94c2.66 1.36 4.03 3.13 5.93 5.43A44 44 0 0 0 555 26q1.84 2.16 3.61 4.38c2.11 2.46 4.55 4.46 7.01 6.56 3.4 2.94 6.7 6 10 9.06q2.17 2 4.38 4l2.68 2.61c3.5 2.9 6.9 3.14 11.32 3.14l2.36.06q3.86.08 7.7.1l5.4.06q5.65.06 11.31.06 7.2.03 14.4.21 5.57.1 11.15.1 2.65 0 5.3.08c8.58.22 15.4.21 22.12-5.62 2.57-2.49 4.92-5.1 7.26-7.8a119 119 0 0 1 8.83-8.1c2.7-2.36 5.3-4.79 7.92-7.22a278 278 0 0 1 14.78-12.62c2.82-2.36 5.35-4.9 7.91-7.56C723.07 4.96 726.2 2 730 2V0c14.8-.82 14.8-.82 21 4 5.51 5.07 9.54 11.41 10.5 18.9q.03 2.06 0 4.13l.02 2.33q.01 3.83-.02 7.66l.02 5.51q.01 7.47-.02 14.94v15.66q.01 13.15-.04 26.3-.03 15.18 0 30.36a14259 14259 0 0 1-.02 41.68q0 7.33-.03 14.65v5.36c.04 16.57.04 16.57-3.4 24.52l-1.07 2.9c-2.76 6.93-5.49 11.88-10.94 17.1l-1.83 1.96a96 96 0 0 1-16.47 13.67c-2.89 1.97-4.73 3.41-6.7 6.37-.65 14.71 5.48 28.2 12 41a297 297 0 0 1 7.9 16.6c1.26 2.75 2.65 5.4 4.04 8.08 4.41 8.75 7.38 17.91 10.06 27.32q.98 3 2 6a147 147 0 0 1 6 25l.53 3.4c2.46 16.2 2.75 32.12 2.1 48.47l-.1 2.7A53 53 0 0 1 763 451q-.57 3.48-1 7l2.24-.7c11.04-3.13 20.51-2.84 30.76 2.7a32 32 0 0 1 5 5l1.97 1.78c5.16 4.71 7.41 8.48 9.03 15.22l.8 2.73c6.31 21.66 4.96 51.88-4.36 72.64-2.36 5.31-2.36 5.31-2.97 7.8C804 567 804 567 802 570l3.18-.29c35.92-2.76 86.72-1 118.44 17.16l2.78 1.6q1.28.74 2.6 1.53l2.2 1.28c11.91 7.23 20.1 15.41 26.8 27.72l1.6 2.82c5.18 11.7 3.86 25.51-.6 37.18a113 113 0 0 1-3.88 6.06l-2.05 3.03L951 671l-1.74 2.46c-3.16 3.54-6.79 6.25-10.57 9.1l-2.23 1.71a113 113 0 0 1-20.59 12.23l-3.57 1.71c-12.67 5.43-23.7 6.45-37.32 6.5l-5.74.04q-5.98.04-11.95.04-7.65.02-15.28.15-5.91.08-11.82.06-2.82.01-5.63.07c-14.57.26-14.57.26-19.48-3.03-5.57-6.1-7.32-11.79-7.08-19.98.61-5.92 2.57-10.05 7-14.06l3-1 .87-1.94c1.57-2.88 3.04-3.06 6.13-4.06l3.94-1.57c5.34-2.1 10.75-2.56 16.45-2.72l3.65-.1q1.86-.06 3.77-.1c20.5-.59 41.38-2.39 59.2-13.5 2.5-3.77 2.52-5.57 2-10-7.74-10.4-23.08-12.05-35-14-8.56-1.25-17.1-2.24-25.74-2.02-2.54.01-5-.23-7.52-.49-9.7-.96-19.33-.65-29.02.28-2.43.2-4.79.25-7.23.22-6.46-.09-13.35-.05-19.5 2h-7c-6.93.81-10.78 3.45-16 7.93a194 194 0 0 1-10 8.07l-1 1 2.44.81 2.56 1.2 1 3q.9.4 1.81.86c5.34 2.75 7.41 8.2 9.43 13.56 1.4 4.68 1.57 8.57-.3 13.2-4.87 5.95-9.19 9.12-16.94 10.37-20.12 1.81-37.16-1.83-55-11l2.41 1.46c8.91 5.64 15.08 10.85 18.13 21.15.8 4.11.9 8.23.46 12.4-1.9 1.88-5.25 1.15-7.77 1.18l-2.14.02-7.05.06-2.43.01-12.7.07q-6.6.03-13.16.11-5.05.04-10.1.05l-4.85.04q-3.39.05-6.78.03l-3.9.02c-3.12-.6-3.12-.6-4.96-2.95L635 699l-1.63-3c-2.23-5.3-2.34-11.32-2.37-17l1-1q.31-2.47.5-4.94c.4-4.85.4-4.85 1.5-7.06l-16-1 2 5q.06 2.5 0 5l.48 1.87c1.44 5.93.7 11.5-1.48 17.13l-3 10h-75c-2.2-4.42-2.26-6.46-1-11 3.6-10.33 7.11-16.96 17-22-2.97 0-5.3 1.23-8.06 2.31-15.65 5.8-35.07 8.97-51.07 2.87A24 24 0 0 1 488 667c-1.23-8.06 1.8-15.57 6.12-22.32 3.9-3.63 8.22-6.14 12.88-8.68l-2.27-1.65-2.98-2.17q-1.46-1.04-2.95-2.14L496 628l-2.36-1.64L492 625v-2l-1.73-.78c-6.64-3.58-11.85-9.52-16.27-15.5q-2.32-3.14-4.75-6.19c-12.96-16.43-24.1-36.25-27.72-57.08-.53-2.45-.53-2.45-1.52-5.24-6.05-19.2-4.48-44.84 4-63.2 5.4-8.72 13.1-15.93 23-19 8-1.28 15.16-1.15 23 1q-.21-.86-.4-1.74A153 153 0 0 1 487 441l-.53-2.82c-3.95-25.98 1.05-53.4 8-78.34.96-3.5 1.71-6.82 2.04-10.44.52-3.73.88-4.02 3.48-6.4.94-2.48 1.77-4.92 2.56-7.44 3.71-11.14 9.14-21.36 14.57-31.73 14.04-26.87 14.04-26.87 14-40.4v-2.25L531 259l-.1-1.99c-1.46-3.28-4.44-4.79-7.34-6.7-10.34-7.13-22.36-15.49-25.56-28.3-2.06-1.26-2.06-1.26-4-2l1-3c-.38-1.89-.38-1.89-1-4-1.03-4.23-1.16-8.33-1.19-12.65l-.02-2.3-.06-7.64-.05-5.48-.14-17.99-.04-6.2q-.11-14.56-.2-29.13-.1-16.8-.26-33.59-.12-13-.19-25.99-.04-7.76-.12-15.5-.07-7.32-.1-14.6 0-2.68-.04-5.35c-.14-10.53-.12-19.82 6.66-28.47L500.56 6l2.32-2.19c3.12-2.67 5.03-4.07 9.13-4m50 666.2v3Z" fill="#181A17"/><path d="m512.01-.2 2.3.02 2.38.05 2.41.03 5.9.1v2l2.62.56c3.9 1.66 5.4 3.47 7.9 6.78C537 11 537 11 538.93 11.94c2.66 1.36 4.03 3.13 5.93 5.43A44 44 0 0 0 555 26q1.84 2.16 3.61 4.38c2.11 2.46 4.55 4.46 7.01 6.56 3.4 2.94 6.7 6 10 9.06q2.17 2 4.38 4l2.68 2.61c3.5 2.9 6.9 3.14 11.32 3.14l2.36.06q3.86.08 7.7.1l5.4.06q5.65.06 11.31.06 7.2.03 14.4.21 5.57.1 11.15.1 2.65 0 5.3.08c8.58.22 15.4.21 22.12-5.62 2.57-2.49 4.92-5.1 7.26-7.8a119 119 0 0 1 8.83-8.1c2.7-2.36 5.3-4.79 7.92-7.22a278 278 0 0 1 14.78-12.62c2.82-2.36 5.35-4.9 7.91-7.56C723.07 4.96 726.2 2 730 2V0c14.8-.82 14.8-.82 21 4 5.51 5.07 9.54 11.41 10.5 18.9q.03 2.06 0 4.13l.02 2.33q.01 3.83-.02 7.66l.02 5.51q.01 7.47-.02 14.94v15.66q.01 13.15-.04 26.3-.03 15.18 0 30.36a14259 14259 0 0 1-.02 41.68q0 7.33-.03 14.65v5.36c.04 16.57.04 16.57-3.4 24.52l-1.07 2.9c-2.76 6.93-5.49 11.88-10.94 17.1l-1.83 1.96a96 96 0 0 1-16.47 13.67c-2.89 1.97-4.73 3.41-6.7 6.37-.65 14.71 5.48 28.2 12 41a297 297 0 0 1 7.9 16.6c1.26 2.75 2.65 5.4 4.04 8.08 4.41 8.75 7.38 17.91 10.06 27.32q.98 3 2 6a147 147 0 0 1 6 25l.53 3.4c2.46 16.2 2.75 32.12 2.1 48.47l-.1 2.7A53 53 0 0 1 763 451q-.57 3.48-1 7l2.24-.7c11.04-3.13 20.51-2.84 30.76 2.7a32 32 0 0 1 5 5l1.97 1.78c5.16 4.71 7.41 8.48 9.03 15.22l.8 2.73c6.31 21.66 4.96 51.88-4.36 72.64-2.36 5.31-2.36 5.31-2.97 7.8C804 567 804 567 802 570l3.18-.29c35.92-2.76 86.72-1 118.44 17.16l2.78 1.6q1.28.74 2.6 1.53l2.2 1.28c11.91 7.23 20.1 15.41 26.8 27.72l1.6 2.82c5.18 11.7 3.86 25.51-.6 37.18a113 113 0 0 1-3.88 6.06l-2.05 3.03L951 671l-1.74 2.46c-3.16 3.54-6.79 6.25-10.57 9.1l-2.23 1.71a113 113 0 0 1-20.59 12.23l-3.57 1.71c-12.67 5.43-23.7 6.45-37.32 6.5l-5.74.04q-5.98.04-11.95.04-7.65.02-15.28.15-5.91.08-11.82.06-2.82.01-5.63.07c-14.57.26-14.57.26-19.48-3.03-5.57-6.1-7.32-11.79-7.08-19.98.61-5.92 2.57-10.05 7-14.06l3-1 .87-1.94c1.57-2.88 3.04-3.06 6.13-4.06l3.94-1.57c5.34-2.1 10.75-2.56 16.45-2.72l3.65-.1q1.86-.06 3.77-.1c20.5-.59 41.38-2.39 59.2-13.5 2.5-3.77 2.52-5.57 2-10-7.74-10.4-23.08-12.05-35-14-8.56-1.25-17.1-2.24-25.74-2.02-2.54.01-5-.23-7.52-.49-9.7-.96-19.33-.65-29.02.28-2.43.2-4.79.25-7.23.22-6.46-.09-13.35-.05-19.5 2h-7c-6.93.81-10.78 3.45-16 7.93a194 194 0 0 1-10 8.07l-1 1 2.44.81 2.56 1.2 1 3q.9.4 1.81.86c5.34 2.75 7.41 8.2 9.43 13.56 1.4 4.68 1.57 8.57-.3 13.2-4.87 5.95-9.19 9.12-16.94 10.37-20.12 1.81-37.16-1.83-55-11l2.41 1.46c8.92 5.64 15.06 10.85 18.13 21.15.8 4.13.7 8.2.46 12.4l-3 1-.04-2.76c-.4-10.38-2.17-16.93-9.77-24.13-3.82-3.14-7.48-4.7-12.19-6.12v-9q3.56 1.78 7.1 3.62c13.33 6.87 24.76 9.55 39.77 9.56l3.15.04c7.05.01 14.23-.07 20.48-3.66 3.51-3.66 2.83-8.82 2.77-13.56-.56-6.24-3.56-9.53-8.02-13.69-3.82-3.19-7.72-5.29-12.25-7.3 3.66-3.86 7.7-6.75 12.03-9.78 2.97-2.23 2.97-2.23 5.5-4.68 8.05-7.72 15.78-8.19 26.47-8.55v-2h4l.71-1.63c2.26-4.18 5.38-7.77 8.3-11.5 1.71-2.47 2.6-3.95 3-6.87h2q.38-1.29.8-2.6a80 80 0 0 1 4.31-9.78l1.64-3.2L810 574l-12-1c1.43-4.35 2.86-8.69 4.46-12.98A143 143 0 0 0 811 502l-.14-2.22c-1-14.39-4.8-26.03-15.86-35.78-7.67-5.17-15.96-5.67-25-5-4.17.9-8.18 2.08-12 4l.26-1.83 1.18-8.42.4-2.88c5.1-36.74 1.75-71.97-10.84-106.87l-1.3-3.69c-4.75-13.22-10.72-25.72-17.39-38.06-6.9-12.84-15.63-30.28-12.3-45.25 2.14-3.1 4.86-4.94 8-7 15.84-11.2 25.81-21.98 30.53-41.2.57-3.49.61-6.92.61-10.45l.01-2.3.02-7.66.02-5.49.04-18.02.01-6.2.04-29.16q.02-16.82.08-33.65.04-13 .05-26.02l.03-15.53q.04-7.3.02-14.6 0-2.7.02-5.37.02-3.66 0-7.33l.03-2.12c-.08-5.9-1.93-11.16-6-15.47-5.42-4.69-10.26-4.92-17.19-4.82-9.68 1.12-17.07 10.6-23.87 17.01-2.44 2.3-4.98 4.48-7.52 6.68-5.94 5.18-11.74 10.51-17.57 15.82a551 551 0 0 1-11.72 10.4C672 55 672 55 670.9 56.56c-2.98 2.26-6.23 1.9-9.83 1.9l-2.45.02q-4.02.05-8.03.05l-5.59.04-11.72.04q-7.5 0-15 .12-5.76.05-11.54.05-2.77 0-5.53.05c-14.4.2-14.4.2-18.8-2.33A35 35 0 0 1 578 51a78 78 0 0 0-3.63-3.19 404 404 0 0 1-10.87-9.8c-4.09-3.8-8.2-7.54-12.42-11.18q-3.21-2.85-6.35-5.78c-20.05-18.57-20.05-18.57-30.46-18.3-5.57.61-10.4 3.28-14.27 7.25-5.58 8.04-4.56 17.86-4.5 27.2l-.02 5.53.01 14.98q.02 7.86.01 15.72l.03 26.4q.04 15.22.02 30.45l.01 29.36v12.47q0 7.35.03 14.7v5.37c-.05 18.2 3.35 32.22 16.2 45.9 5.9 5.63 12.87 10.11 19.6 14.67C533 254 533 254 534 256q.22 3.5.25 7l.08 3.81c-.36 8.84-4.39 17.15-7.89 25.12l-1.33 3.04a252 252 0 0 1-9.24 18.71c-11.74 21.76-20.38 46.57-23.93 71.07-.88 5.97-.88 5.97-1.46 8.45-.6 3.52-.64 6.97-.65 10.53v2.25l-.02 7.2v2.47c.01 11.56.3 22.91 2.2 34.35l.57 3.5q.65 3.76 1.42 7.5c-5.62-.92-5.62-.92-8.27-1.5-9.75-1.77-18.44-1.32-27.14 3.66-10.56 7.48-15 18.9-17.25 31.3-2.52 18.77-.13 38.56 5.66 56.54l1.02 3.18c4.83 14.25 11.07 27.63 19.98 39.82l2.2 3.1c11.08 15.07 25.7 30.71 42.8 38.9v2l-3.63 1.25c-7.42 2.83-12.29 6.93-16.37 13.75-1.7 5.15-1.85 10.82.12 15.87 4.02 4.56 9.35 5.88 15.23 6.3 20.85.35 38.45-2.43 56.65-13.17v9l-2.42 1.06c-9.25 4.31-14.52 8.48-18.58 17.94-.5 3.64-.5 3.64-.69 7.37l-.2 3.77-.1 2.86-3-1c-1.76-8.52.91-16 5.41-23.32 3.25-4.05 6.97-6.38 11.58-8.68-2.97 0-5.3 1.23-8.06 2.31-15.65 5.8-35.07 8.97-51.07 2.87A24 24 0 0 1 488 667c-1.23-8.06 1.8-15.57 6.12-22.32 3.9-3.63 8.22-6.14 12.88-8.68l-2.27-1.65-2.98-2.17q-1.46-1.04-2.95-2.14L496 628l-2.36-1.64L492 625v-2l-1.73-.78c-6.64-3.58-11.85-9.52-16.27-15.5q-2.32-3.14-4.75-6.19c-12.96-16.43-24.1-36.25-27.72-57.08-.53-2.45-.53-2.45-1.52-5.24-6.05-19.2-4.48-44.84 4-63.2 5.4-8.72 13.1-15.93 23-19 8-1.28 15.16-1.15 23 1q-.21-.86-.4-1.74A153 153 0 0 1 487 441l-.53-2.82c-3.95-25.98 1.05-53.4 8-78.34.96-3.5 1.71-6.82 2.04-10.44.52-3.73.88-4.02 3.48-6.4.94-2.48 1.77-4.92 2.56-7.44 3.71-11.14 9.14-21.36 14.57-31.73 14.04-26.87 14.04-26.87 14-40.4v-2.25L531 259l-.1-1.99c-1.46-3.28-4.44-4.79-7.34-6.7-10.34-7.13-22.36-15.49-25.56-28.3-2.06-1.26-2.06-1.26-4-2l1-3c-.38-1.89-.38-1.89-1-4-1.03-4.23-1.16-8.33-1.19-12.65l-.02-2.3-.06-7.64-.05-5.48-.14-17.99-.04-6.2q-.11-14.56-.2-29.13-.1-16.8-.26-33.59-.12-13-.19-25.99-.04-7.76-.12-15.5-.07-7.32-.1-14.6 0-2.68-.04-5.35c-.14-10.53-.12-19.82 6.66-28.47L500.56 6l2.32-2.19c3.12-2.67 5.03-4.07 9.13-4m50 666.2v3Z" fill="#191B18"/><path d="m512.01-.2 2.3.02 2.38.05 2.41.03 5.9.1v2l2.62.56c3.9 1.66 5.4 3.47 7.9 6.78C537 11 537 11 538.93 11.94c2.66 1.36 4.03 3.13 5.93 5.43A44 44 0 0 0 555 26q1.84 2.16 3.61 4.38c2.11 2.46 4.55 4.46 7.01 6.56 3.4 2.94 6.7 6 10 9.06q2.17 2 4.38 4l2.68 2.61c3.5 2.9 6.9 3.14 11.32 3.14l2.36.06q3.86.08 7.7.1l5.4.06q5.65.06 11.31.06 7.2.03 14.4.21 5.57.1 11.15.1 2.65 0 5.3.08c8.58.22 15.4.21 22.12-5.62 2.57-2.49 4.92-5.1 7.26-7.8a119 119 0 0 1 8.83-8.1c2.7-2.36 5.3-4.79 7.92-7.22a278 278 0 0 1 14.78-12.62c2.82-2.36 5.35-4.9 7.91-7.56C723.07 4.96 726.2 2 730 2V0c14.8-.82 14.8-.82 21 4 5.51 5.07 9.54 11.41 10.5 18.9q.03 2.06 0 4.13l.02 2.33q.01 3.83-.02 7.66l.02 5.51q.01 7.47-.02 14.94v15.66q.01 13.15-.04 26.3-.03 15.18 0 30.36a14259 14259 0 0 1-.02 41.68q0 7.33-.03 14.65v5.36c.04 16.57.04 16.57-3.4 24.52l-1.07 2.9c-2.76 6.93-5.49 11.88-10.94 17.1l-1.83 1.96a96 96 0 0 1-16.47 13.67c-2.89 1.97-4.73 3.41-6.7 6.37-.65 14.71 5.48 28.2 12 41a297 297 0 0 1 7.9 16.6c1.26 2.75 2.65 5.4 4.04 8.08 4.41 8.75 7.38 17.91 10.06 27.32q.98 3 2 6a147 147 0 0 1 6 25l.53 3.4c2.46 16.2 2.75 32.12 2.1 48.47l-.1 2.7A53 53 0 0 1 763 451q-.57 3.48-1 7l2.24-.7c11.04-3.13 20.51-2.84 30.76 2.7a32 32 0 0 1 5 5l1.97 1.78c5.16 4.71 7.41 8.48 9.03 15.22l.8 2.73c6.31 21.66 4.96 51.88-4.36 72.64-2.36 5.31-2.36 5.31-2.97 7.8C804 567 804 567 802 570l3.18-.29c35.92-2.76 86.72-1 118.44 17.16l2.78 1.6q1.28.74 2.6 1.53l2.2 1.28c11.91 7.23 20.1 15.41 26.8 27.72l1.6 2.82c5.18 11.7 3.86 25.51-.6 37.18a113 113 0 0 1-3.88 6.06l-2.05 3.03L951 671l-1.74 2.46c-3.16 3.54-6.79 6.25-10.57 9.1l-2.23 1.71C920.9 696.08 901.8 705.17 882 704v-1q.8-.15 1.62-.34c25.88-5.4 51.5-15.2 67.84-37.2 7.21-11.57 9.7-24.86 6.7-38.17-5.8-17.69-18.04-28.03-34.2-36.33-14.06-6.93-28.6-10.25-43.96-12.96l-2.59-.47c-26.19-4.66-52.89-4.96-79.4-5.53l1.38-3.53A188 188 0 0 0 809 535l.68-3.32c3.3-17.8 3.65-41.7-5.68-57.68-5.89-8.1-12.02-13.38-22-15-8.5-.63-16.3.14-24 4l.26-1.83 1.18-8.42.4-2.88c5.1-36.74 1.75-71.97-10.84-106.87l-1.3-3.69c-4.75-13.22-10.72-25.72-17.39-38.06-6.9-12.84-15.63-30.28-12.3-45.25 2.14-3.1 4.86-4.94 8-7 15.84-11.2 25.81-21.98 30.53-41.2.57-3.49.61-6.92.61-10.45l.01-2.3.02-7.66.02-5.49.04-18.02.01-6.2.04-29.16q.02-16.82.08-33.65.04-13 .05-26.02l.03-15.53q.04-7.3.02-14.6 0-2.7.02-5.37.02-3.66 0-7.33l.03-2.12c-.08-5.9-1.93-11.16-6-15.47-5.42-4.69-10.26-4.92-17.19-4.82-9.68 1.12-17.07 10.6-23.87 17.01-2.44 2.3-4.98 4.48-7.52 6.68-5.94 5.18-11.74 10.51-17.57 15.82a551 551 0 0 1-11.72 10.4C672 55 672 55 670.9 56.56c-2.98 2.26-6.23 1.9-9.83 1.9l-2.45.02q-4.02.05-8.03.05l-5.59.04-11.72.04q-7.5 0-15 .12-5.76.05-11.54.05-2.77 0-5.53.05c-14.4.2-14.4.2-18.8-2.33A35 35 0 0 1 578 51a78 78 0 0 0-3.63-3.19 404 404 0 0 1-10.87-9.8c-4.09-3.8-8.2-7.54-12.42-11.18q-3.21-2.85-6.35-5.78c-20.05-18.57-20.05-18.57-30.46-18.3-5.57.61-10.4 3.28-14.27 7.25-5.58 8.04-4.56 17.86-4.5 27.2l-.02 5.53.01 14.98q.02 7.86.01 15.72l.03 26.4q.04 15.22.02 30.45l.01 29.36v12.47q0 7.35.03 14.7v5.37c-.05 18.2 3.35 32.22 16.2 45.9 5.9 5.63 12.87 10.11 19.6 14.67C533 254 533 254 534 256q.22 3.5.25 7l.08 3.81c-.36 8.84-4.39 17.15-7.89 25.12l-1.33 3.04a252 252 0 0 1-9.24 18.71c-11.74 21.76-20.38 46.57-23.93 71.07-.88 5.97-.88 5.97-1.46 8.45-.6 3.52-.64 6.97-.65 10.53v2.25l-.02 7.2v2.47c.01 11.56.3 22.91 2.2 34.35l.57 3.5q.65 3.76 1.42 7.5c-5.62-.92-5.62-.92-8.27-1.5-9.75-1.77-18.44-1.32-27.14 3.66-10.56 7.48-15 18.9-17.25 31.3-2.52 18.77-.13 38.56 5.66 56.54l1.02 3.18c4.83 14.25 11.07 27.63 19.98 39.82l2.2 3.1c11.08 15.07 25.7 30.71 42.8 38.9v2l-3.63 1.25c-7.42 2.83-12.29 6.93-16.37 13.75-1.7 5.15-1.85 10.82.12 15.87 4.02 4.56 9.35 5.88 15.23 6.3 20.85.35 38.45-2.43 56.65-13.17v9l-2.42 1.06c-9.25 4.31-14.52 8.48-18.58 17.94-.5 3.64-.5 3.64-.69 7.37l-.2 3.77-.1 2.86-3-1c-1.76-8.52.91-16 5.41-23.32 3.25-4.05 6.97-6.38 11.58-8.68-2.97 0-5.3 1.23-8.06 2.31-15.65 5.8-35.07 8.97-51.07 2.87A24 24 0 0 1 488 667c-1.23-8.06 1.8-15.57 6.12-22.32 3.9-3.63 8.22-6.14 12.88-8.68l-2.27-1.65-2.98-2.17q-1.46-1.04-2.95-2.14L496 628l-2.36-1.64L492 625v-2l-1.73-.78c-6.64-3.58-11.85-9.52-16.27-15.5q-2.32-3.14-4.75-6.19c-12.96-16.43-24.1-36.25-27.72-57.08-.53-2.45-.53-2.45-1.52-5.24-6.05-19.2-4.48-44.84 4-63.2 5.4-8.72 13.1-15.93 23-19 8-1.28 15.16-1.15 23 1q-.21-.86-.4-1.74A153 153 0 0 1 487 441l-.53-2.82c-3.95-25.98 1.05-53.4 8-78.34.96-3.5 1.71-6.82 2.04-10.44.52-3.73.88-4.02 3.48-6.4.94-2.48 1.77-4.92 2.56-7.44 3.71-11.14 9.14-21.36 14.57-31.73 14.04-26.87 14.04-26.87 14-40.4v-2.25L531 259l-.1-1.99c-1.46-3.28-4.44-4.79-7.34-6.7-10.34-7.13-22.36-15.49-25.56-28.3-2.06-1.26-2.06-1.26-4-2l1-3c-.38-1.89-.38-1.89-1-4-1.03-4.23-1.16-8.33-1.19-12.65l-.02-2.3-.06-7.64-.05-5.48-.14-17.99-.04-6.2q-.11-14.56-.2-29.13-.1-16.8-.26-33.59-.12-13-.19-25.99-.04-7.76-.12-15.5-.07-7.32-.1-14.6 0-2.68-.04-5.35c-.14-10.53-.12-19.82 6.66-28.47L500.56 6l2.32-2.19c3.12-2.67 5.03-4.07 9.13-4m50 666.2v3Z" fill="#DEE1DE"/><path d="M672 496h2c-.48 7.5-3.9 12.85-8 19h-2v2h-2v2c-5.48 5-5.48 5-8 5v2a39 39 0 0 1-14 7l-.06 4.44-.04 2.49c.1 3.07.1 3.07.6 6.8.77 6.88.66 13.78.67 20.7l.01 4.53.01 9.52.02 9.57c.2 48.54.2 48.54-4.21 70.95h-22c-2.71-18.03-3.73-35.79-4-54l-.07-3.81c-.37-23.78.8-47.46 2.07-71.19l-2.89-1.41-3.8-1.88-1.9-.93c-9.44-4.68-16.14-10.52-21.41-19.78v-2h-2v-4h-2v-5c2.87 1.29 4.98 2.57 7 5v2l2.19.75A27 27 0 0 1 596 511v2l4 1v2l2.38.75c2.93 1.01 5.75 2.12 8.62 3.31 10.32 4.13 20.69 4.16 31-.06q4.4-2.22 8.65-4.7C653 514 653 514 656 513v-2l4.07-2.59c4.36-3.19 9.49-7.54 11.93-12.41" fill="#000100"/><path d="m756 210 2 2c-.13 6.47-2.95 11.41-6 17l-1.31 2.69c-2.7 3.69-6.21 6.39-9.69 9.31l-3.81 3.44c-4.1 3.6-8.5 6.73-12.97 9.86C722 256 722 256 721 258c-.11 14.94 5.36 27.95 12 41a308 308 0 0 1 7.91 16.61c1.25 2.74 2.64 5.4 4.03 8.08 4.41 8.74 7.38 17.91 10.06 27.31q.98 3 2 6a147 147 0 0 1 6 25l.54 3.39c2.45 16.21 2.74 32.14 2.08 48.49l-.09 2.7A53 53 0 0 1 763 451q-.56 3.5-1 7l2.24-.69c11.04-3.13 20.51-2.84 30.76 2.69a32 32 0 0 1 5 5l1.97 1.78c5.16 4.71 7.41 8.48 9.03 15.22l.8 2.73c6.31 21.67 4.96 51.89-4.36 72.65-2.36 5.3-2.36 5.3-2.97 7.78C804 567 804 567 802 570l3.18-.29c35.92-2.76 86.72-1.01 118.44 17.17l2.78 1.58L929 590l2.19 1.29c11.92 7.23 20.1 15.41 26.81 27.71l1.59 2.83c5.19 11.68 3.87 25.51-.59 37.17a113 113 0 0 1-3.88 6.06l-2.05 3.04L951 671l-1.74 2.46c-3.16 3.55-6.79 6.26-10.57 9.1l-2.23 1.71C920.89 696.09 901.8 705.17 882 704v-1l1.63-.33c25.88-5.41 51.48-15.21 67.83-37.21 7.21-11.57 9.71-24.86 6.7-38.17-5.81-17.69-18.03-28.02-34.2-36.32-14.06-6.93-28.59-10.26-43.96-12.97l-2.59-.47c-26.18-4.65-52.89-4.96-79.41-5.53l1.39-3.52A189 189 0 0 0 809 535l.68-3.31c3.3-17.8 3.65-41.7-5.68-57.69-5.88-8.11-12.02-13.38-22-15-8.5-.63-16.3.15-24 4l.26-1.83 1.18-8.42.41-2.87c5.08-36.74 1.74-71.98-10.85-106.88l-1.3-3.69c-4.75-13.21-10.72-25.72-17.39-38.06-6.9-12.83-15.62-30.27-12.31-45.25 2.16-3.11 4.87-4.93 8-7 15.29-10.8 24.68-20.78 30-39" fill="#DDDFDC"/><path d="M582.13 133.69q1.95 1.1 3.88 2.3.89.52 1.84 1.04c7.63 4.7 12.58 12.89 14.7 21.48 1.82 10.19-.4 19.23-6.15 27.92A39 39 0 0 1 578 199c-9.13.79-18.09 1.2-26-4l-2.13-1.35c-6.91-4.77-12.22-11.24-13.87-19.65-1.1-10.88-.63-19.8 6-29a32 32 0 0 1 6-5 41 41 0 0 1-4.12 6.88c-3.17 5.55-2.67 11.97-1.87 18.12 2.12 6.49 6.35 11.27 12 15 5.07 2.48 10.45 2.8 16 2 7-2.43 11.74-5.51 15.1-12.22 3.34-7.43 4.31-13.7 1.4-21.4-2.8-5.66-7.25-9.78-12.9-12.55-7-2.21-14.8-1.3-21.6 1.17 6.44-7.46 21.53-6.98 30.12-3.31" fill="#E6BE4C"/><path d="M740 470h1c.39 21.46-.02 43.25-6 64q-.92 3.72-1.81 7.44a286 286 0 0 1-13.32 39.97c-1.71 4.16-3.3 8.37-4.87 12.59l-1.44 3.69c-1.75 4.66-3.14 9.43-4.58 14.2a98 98 0 0 1-2.67 7.42 38 38 0 0 0-2 9.66 29 29 0 0 1-1.7 5.91c-2.15 6.24-2.91 12.67-3.8 19.18l-.53 3.78q-.66 4.58-1.28 9.16c-7.44-2.33-7.44-2.33-10-6-.09-3-.09-3 .5-6.56l.32-1.98q.56-3.24 1.18-6.46l.39-2.2c2.76-15.39 7.32-30.28 12.88-44.88 1.26-3.31 2.43-6.65 3.61-9.98l.78-2.22a682 682 0 0 0 4.96-14.66A177 177 0 0 1 716 560a179 179 0 0 0 9.23-29.22c.77-2.78.77-2.78 2.2-5.91 2.16-4.88 3.07-10.04 4.13-15.25l1.26-5.96.6-2.91q.78-3.72 1.63-7.42c1.16-5.15 2.02-10.34 2.89-15.55.96-5.57.96-5.57 2.06-7.78" fill="#010201"/><path d="m696 136 3.12 1.62c8.09 6.68 13.12 14.21 14.22 24.63.43 9.75-1.75 18.16-7.53 26.13-9.44 8.81-19.17 11.24-31.67 10.92-8.42-.45-14.06-4.35-20.12-10.01-7.91-8.99-8.94-19.62-8.29-31.09.94-7.78 6.41-14.32 12.03-19.47 11.38-8.77 25.64-9.54 38.24-2.73m-43 10c-3.65 6-4 12.16-3 19 2.49 7.79 5.94 12.91 13.05 17.01 6.16 3.12 13.13 3.07 19.79 1.19 7.5-3.36 12.03-8.84 15.6-16.14 1.63-8.87.74-15.5-4.44-23.06-4.54-5.12-9.93-8.54-16.83-9.32-10.68-.41-17.49 3.01-24.17 11.32" fill="#E7C04A"/><path d="M512 472c1.71 3.07 2.5 5.86 3.15 9.3l.6 3.13.63 3.32a400 400 0 0 0 5.99 26.9 864 864 0 0 1 2.29 8.75l1.84 6.98.86 3.31a129 129 0 0 0 5.63 16.79c1.88 4.69 3.38 9.52 4.95 14.33 2.48 7.54 5.05 15 7.97 22.38 2.21 5.72 4.05 11.58 5.93 17.42l.78 2.39.67 2.06c.71 1.94.71 1.94 1.67 3.69 1.52 3.28 2.22 6.74 3.04 10.25l1.22 4.95c5.93 24.43 5.93 24.43 5.78 34.05a46 46 0 0 1-10 3l-.48-3.79c-2.62-19.89-6.51-38.96-13.6-57.76a529 529 0 0 1-2.78-7.57 568 568 0 0 0-7.26-19.19c-3.62-8.93-6.86-17.9-9.06-27.29a414 414 0 0 0-2.71-10.5c-4.13-15.46-4.13-15.46-5.11-21.9l-.56-3.65c-1.89-13.74-1.64-27.5-1.44-41.35" fill="#000201"/><path d="m512.01-.2 2.3.02 2.38.05 2.41.03 5.9.1v2l2.62.56c3.9 1.66 5.4 3.47 7.9 6.78C537 11 537 11 538.93 11.94c2.66 1.36 4.03 3.13 5.93 5.43A44 44 0 0 0 555 26q1.84 2.16 3.61 4.38c2.11 2.46 4.55 4.46 7.01 6.56 3.4 2.94 6.7 6 10 9.06q2.17 2 4.38 4l2.68 2.61c3.5 2.9 6.9 3.14 11.32 3.14l2.36.06q3.86.08 7.7.1l5.4.06q5.65.06 11.31.06 7.2.03 14.4.21 5.57.1 11.15.1 2.65 0 5.3.08c8.58.22 15.4.21 22.12-5.62 2.57-2.49 4.92-5.1 7.26-7.8a119 119 0 0 1 8.83-8.1c2.7-2.36 5.3-4.79 7.92-7.22a278 278 0 0 1 14.78-12.62c2.82-2.36 5.35-4.9 7.91-7.56C723.07 4.96 726.2 2 730 2V0c14.8-.82 14.8-.82 21 4 5.51 5.07 9.54 11.42 10.5 18.9q.02 2.09 0 4.16l.01 2.34q.01 3.84-.03 7.68l.02 5.54q.02 7.5-.03 14.98v15.7l-.06 26.35q-.04 15.22-.04 30.46 0 16.21-.03 32.44v9.34q0 7.36-.04 14.68v5.4l-.03 7.34.01 2.16c-.04 3.94-.55 6.97-2.28 10.53h-2l.01-3q.14-36.25.2-72.47.02-17.52.1-35.05.05-15.27.06-30.54.01-8.09.05-16.17.04-7.61.03-15.23l.03-5.58q.02-3.82 0-7.64l.03-2.2c-.06-6-1.82-11.28-5.99-15.69-5.42-4.69-10.26-4.92-17.19-4.82-9.68 1.12-17.07 10.6-23.87 17.01-2.44 2.3-4.98 4.48-7.52 6.68-5.94 5.18-11.74 10.51-17.57 15.82a551 551 0 0 1-11.72 10.4C672 55 672 55 670.9 56.56c-2.98 2.26-6.23 1.9-9.83 1.9l-2.45.02q-4.02.05-8.03.05l-5.59.04-11.72.04q-7.5 0-15 .12-5.76.05-11.54.05-2.77 0-5.53.05c-14.4.2-14.4.2-18.8-2.33A35 35 0 0 1 578 51a78 78 0 0 0-3.63-3.19 404 404 0 0 1-10.87-9.8c-4.09-3.8-8.2-7.54-12.42-11.18q-3.21-2.85-6.35-5.78c-20.05-18.57-20.05-18.57-30.46-18.3-5.57.61-10.4 3.28-14.27 7.25-5.66 8.1-4.58 18.15-4.55 27.55l-.03 5.65q-.04 7.64-.03 15.28-.01 7.99-.05 15.98-.06 15.14-.08 30.25-.02 17.22-.09 34.45-.12 35.41-.17 70.84c-2.82-2.82-2.3-5.5-2.3-9.28l-.03-2.29q-.04-3.83-.05-7.67l-.05-5.48q-.07-7.46-.1-14.92l-.07-9.32q-.12-16.28-.2-32.54-.08-15.15-.2-30.3-.13-13.03-.19-26.04l-.1-15.54q-.08-7.31-.09-14.63-.01-2.68-.05-5.36c-.12-10.54-.1-19.86 6.68-28.5L500.56 6l2.32-2.19c3.12-2.67 5.03-4.07 9.13-4" fill="#E9EBE9"/><path d="m822.81 612.69 2.74-.01c62.74-.13 62.74-.13 80.45 17.32 2.35 3.54 2.5 4.84 2 9-3.79 8.26-12.47 11.58-20.5 14.69-5.23 1.73-10.36 3-15.79 3.9l-2.35.39c-9.52 1.48-19.09 1.75-28.7 2.03-12.18.38-24.3 1.15-33.66 9.99-4.38 5.64-5.42 10.26-5.35 17.27A26.4 26.4 0 0 0 811 704c-4.66-.72-6.56-3.33-9.45-6.83-4.06-5.66-3.92-11.53-3.23-18.21 1.04-4.52 3.26-7.85 6.68-10.96l3-1 .87-1.93c1.57-2.88 3.04-3.06 6.13-4.07l3.93-1.56c5.35-2.12 10.75-2.56 16.46-2.72l3.65-.11 3.77-.11c20.5-.58 41.38-2.38 59.2-13.5 2.5-3.75 2.52-5.56 2-10-7.74-10.4-23.08-12.03-35-14-8.56-1.23-17.1-2.22-25.74-2-2.54 0-5-.23-7.52-.5-9.7-.96-19.33-.64-29.02.28-2.43.2-4.79.26-7.23.22-6.46-.08-13.35-.05-19.5 2h-7c-6.93.82-10.78 3.46-16 7.94a188 188 0 0 1-10 8.06l-1 1 2.43.8L751 638l1 3 1.81.88c5.34 2.75 7.41 8.2 9.43 13.56 1.4 4.68 1.57 8.57-.3 13.19-4.87 5.96-9.19 9.13-16.94 10.37-20.12 1.8-37.16-1.83-55-11l2.41 1.47c8.92 5.64 15.06 10.85 18.13 21.15.8 4.12.7 8.2.46 12.38l-3 1-.05-2.74c-.4-10.38-2.16-16.93-9.76-24.13-3.83-3.14-7.48-4.7-12.19-6.13v-9q3.56 1.78 7.1 3.62c13.33 6.88 24.75 9.56 39.77 9.57l3.15.04c7.04 0 14.23-.07 20.48-3.66 3.5-3.66 2.83-8.82 2.77-13.56-.56-6.24-3.56-9.53-8.02-13.7-3.82-3.18-7.72-5.28-12.25-7.31 3.97-4.17 8.48-7.28 13.18-10.58C755 625 755 625 757.3 622.8c7.5-6.92 13.65-8.38 23.63-8.86l4.4-.3c12.47-.8 24.98-.91 37.48-.95" fill="#DBDEDB"/><path d="m696 136 3.12 1.62c8.09 6.68 13.12 14.21 14.22 24.63.43 9.75-1.75 18.16-7.53 26.13-9.44 8.81-19.17 11.24-31.67 10.92-8.42-.45-14.06-4.35-20.12-10.01-7.91-8.99-8.94-19.62-8.29-31.09.94-7.78 6.41-14.32 12.03-19.47 11.38-8.77 25.64-9.54 38.24-2.73m-43 10c-3.65 6-4 12.16-3 19 2.49 7.79 5.94 12.91 13.05 17.01 6.07 3.08 13.28 3.14 19.81 1.1A69 69 0 0 0 689 180l-1 4h-6v2l-6.88-.44-3.86-.24C668 185 668 185 666 184q-3-.06-6 0l-1 7 3 1v2h4v2c6.82 3.03 14.64 2.9 21.75 1l2.25-1v-2h6l2-4h3l-1-4h4v-2h2v-2h2v-6h2c2.39-3.58 2.27-5.31 2.25-9.56l.02-3.51C712 160 712 160 710 158l-1 4-.08-2.12-.17-2.76-.14-2.74c-.61-2.38-.61-2.38-2.66-3.7L704 150l.12-2.31C704 145 704 145 702 142h-2v-2h-2c-2 3-2 3-2 6h2v4h2v13l4-1v8h-2v-2h-2v2h-2v4h-2v2h-2v2l-2-1 2.38-3.12c4.38-6.23 5.68-12.35 4.62-19.88-2.81-8.52-7.62-13.42-15.19-17.88-12.71-3.75-22.65-.27-30.81 9.88" fill="#DFBD57"/><path d="m797 570 1 3h34v1h-22l-2 6a251 251 0 0 1-4.76 9.59L802 592h-2l-.26 2.16c-.9 3.44-2.4 5.46-4.55 8.28-2.28 2.98-4.36 5.79-6.07 9.12-4.57 5.25-12.72 4.53-19.24 5.06L764 617c1.38-1.5 1.38-1.5 3-3h2v-2h2l1-4h2l.75-1.62A67 67 0 0 1 780 598h2l.94-1.88L785 592h2l.34-1.67a40 40 0 0 1 3.22-7.58l1.38-2.7L793 578h2l.44-2.88C796 572 796 572 797 570" fill="#010301"/><path d="M630 183c4.21 1.52 5.52 2.28 8 6-.13 4.95-2.73 7.57-6 11h-2l.19 2.81c-.19 3.19-.19 3.19-1.31 5.07-2.76 1.65-4.73 1.51-7.88 1.12-2.56-1.64-2.97-2.88-3.81-5.81-1.19-3.18-1.91-4.06-4.31-6.25-2.08-1.96-2.81-2.7-3.63-5.5 1.15-3.74 3.65-5.21 6.75-7.44 4.16-2.08 9.46-1.34 14-1" fill="#61635F"/><path d="M757 15h2c1.82 4.66 2.29 8.81 2.25 13.75l.01 2.31v7.62l.01 5.47v30.4q.01 13.05-.01 26.1v30.17l.01 25.91v15.48q.01 7.28-.01 14.54l.01 5.34-.02 7.29.02 2.13c-.03 3.94-.55 6.95-2.27 10.49h-2z" fill="#F0F2F1"/><path d="M650 165c2 3 2 3 3.19 5.3 2.89 5.42 5.55 9.25 11.19 11.92 6.8 2.02 13.95 2.02 20.31-1.28L688 179l2 1-2 4h-6v2c-7.66.19-14.66.35-22-2v7l2 1v2h4v2c5.91 1.31 11.97 1.32 18 1l1-1q2.5-.06 5 0v-2l3.44-.88L697 192l1-2h3l-1-4h4v-2h2v-2h2v-6h2l1-4c.98 2.6 1.09 3.74.14 6.4-5.19 9.89-10.44 15.43-20.94 19.75-8.33 2.21-19.54 2.49-27.22-1.77-8.61-6-14.81-12.68-16.98-23.26 0-3.12 0-3.12 1.38-5.5z" fill="#E8BF54"/><path d="M494 17h1v193c-2.45-2.45-2.25-3.79-2.29-7.13v-2.18l-.02-2.31q-.04-3.85-.04-7.71l-.04-5.51-.08-14.99-.09-15.67-.13-26.33q-.06-15.22-.17-30.45L492 71.6l-.09-15.61-.1-20.07-.03-7.35-.02-2.17c.01-3.64.24-6.31 2.24-9.4" fill="#EBEFEB"/><path d="M580 138.45c5.5 5.09 9.05 11.3 9.57 18.87-.4 7.39-3.41 15.23-8.94 20.25-6.52 4.75-12.65 6.5-20.63 5.43-7.33-1.9-11.52-6.06-16-12l4-1 1 4h3l1 3 5 1v2l5.94-.43 3.34-.25C570 179 570 179 571 178q2.5-.06 5 0v-2h2v-2h4l-.12-2.06c.15-3.53 1.07-6.57 2.12-9.94h2v-10h-2v-6h-2v-2h-6v-6l-3.75.19c-3.03.02-4.07-.08-6.75-1.7q-.75-.72-1.5-1.5c5.72-2.01 11.26.03 16 3.46" fill="#2A1F09"/><path d="M616 663h20l-.11 5.81-.08 7.63-.07 3.82c-.07 9.06 1.16 15.72 5.26 23.74-2.49-.36-3.67-.57-5.23-2.6A37 37 0 0 1 632 688l-.31-2.4c-.6-4.71-.6-4.71-.69-6.6l1-1q.31-2.46.5-4.94c.39-4.84.39-4.84 1.5-7.06l-16-1 2 5q.06 2.5 0 5l.48 1.88c1.45 5.93.7 11.49-1.48 17.12a478 478 0 0 0-2.41 8.02L616 704l-4-1 1.44-2.62c2.46-5.32 2.68-10.29 2.66-16.09l-.01-3.77-.03-3.9-.01-3.96z" fill="#ECEFEA"/><path d="M582.13 133.69c2 1.1 2 1.1 3.88 2.3l2.04 1.29c4.75 3.15 4.75 3.15 5.96 6.72h-4c.15 1.32.15 1.32 1 8h1c.36 12.44.36 12.44-2 18l-.33 2.25c-.67 1.75-.67 1.75-3.11 3.06C584 176 584 176 582 175l1.05-2.08q.7-1.34 1.38-2.73l1.38-2.71a23 23 0 0 0 1.58-16.82c-2.63-6.78-7.25-11.62-13.77-14.83-7-2.21-14.82-1.3-21.62 1.17 6.45-7.46 21.54-6.98 30.13-3.31" fill="#D9B659"/><path d="M812 494c8.68 13.02 1.71 38.04-.94 52.29a52 52 0 0 1-3.62 11.09c-2.36 5.3-2.36 5.3-2.97 7.78C804 567 804 567 802 570l1.68-.12c19.5-1.38 19.5-1.38 28.32 1.12v1h-34l3.25-8.38c3.52-9.4 5.99-18.74 7.75-28.62l.45-2.51c2.26-12.9 2.93-25.41 2.55-38.49" fill="#D8DBD9"/><path d="M730 0c14.83-.81 14.83-.81 21 4 3.36 3.18 6.46 6.23 7 11l-2 2-1.12-3.19c-1.8-4.22-4.16-6.17-7.88-8.81-5.76-1.92-12.67-2.28-18.4-.08-6.69 4.24-12.39 10.27-18.13 15.71-2.45 2.29-4.99 4.48-7.52 6.67-5.95 5.18-11.75 10.52-17.57 15.82C673.18 54.21 673.18 54.21 669 57c0-3 0-3 2.48-5.56q1.63-1.45 3.27-2.88l3.23-2.87 1.58-1.39c1.88-1.7 3.65-3.5 5.44-5.3l4.83-4.11c2.69-2.34 5.3-4.77 7.92-7.2 4.77-4.42 9.71-8.55 14.78-12.62 2.82-2.37 5.35-4.92 7.91-7.56C723.07 4.96 726.2 2 730 2z" fill="#DCDEDC"/><path d="M547 140c0 3.45-.45 3.75-2.5 6.31-3.75 5.81-3.45 12.02-2.5 18.69 2.13 6.29 5.77 10.11 11 14v1h-5v-2h-6v6h2v2h2v2h2l1 3c-3 0-3 0-4.72-1.69-7.5-9.74-9.56-17.92-8.59-30.22 1.12-7.52 5.51-14.31 11.31-19.09" fill="#D8BC69"/><path d="M697 151c2.86 4.3 2.59 7.96 2 13-2.28 7.73-6.47 13.8-13.5 17.88-6.1 2.78-11.92 3.28-18.5 2.12a36 36 0 0 1-10-6v-2h3v2h5v2h5v1c4.14.1 7.94-.23 12-1v-2h6v-2h2v-4h2l2-10h2l-.06-3.25c.05-2.9.19-5.04 1.06-7.75" fill="#2D220B"/><path d="M696 130v2l2.31.38c3.95.91 5.45 2.26 7.69 5.62v4h2v4h5l-1 8 4 2v6h-1l-1 7h-1l-.3-2.78c-1.39-11.41-4.06-19.34-12.7-27.22a42 42 0 0 0-8-4l-2.75-1.19c-5.02-1.25-10.1-1.49-15.25-1.81v-1c7.34-1.17 14.58-1.09 22-1" fill="#1E1707"/><path d="M565 662v9l-2.41 1.07c-9.26 4.31-14.53 8.47-18.59 17.93-.51 3.65-.51 3.65-.69 7.38l-.2 3.77L543 704l-3-1c-1.75-8.51.92-15.99 5.43-23.32 3.25-4.05 6.96-6.37 11.57-8.68h-4c1.27-3.8 2.59-4.22 6-6.19l2.75-1.6C564 662 564 662 565 662m-3 4v3Z" fill="#DCDCDD"/><path d="m772 617 1 2-2.75.38c-5.58 1.07-9 3.92-13.25 7.56a188 188 0 0 1-10 8.06l-1 1 2.44.81L751 638l1 3 1.81.88c4.69 2.41 7.38 7.33 9.19 12.12.24 3.35.18 6.65 0 10h-1l-.34-2.27C760 653.09 756.77 647.65 750 642a64 64 0 0 0-10-5 60 60 0 0 1 9.12-7.75c3.89-2.75 7.53-5.64 11.13-8.75 4.16-3.4 6.45-4.42 11.75-3.5" fill="#E3E5E5"/><path d="M749 337c4.49 4.49 5.63 11.12 7.18 17.1a100 100 0 0 0 2.94 8.59 41 41 0 0 1 2.67 11.19c.25 2.56.77 5.03 1.27 7.56 1.36 7.83 1.11 15.65.94 23.56h-1l-.29-2.05c-2.75-19.39-5.98-38.4-12.79-56.82A25 25 0 0 1 749 337" fill="#E4E6E2"/><path d="M901 644v3c-21.74 11.37-41.72 12.53-66 12 3.44-2.3 5.13-2.35 9.21-2.6l3.71-.24 3.89-.22q3.8-.23 7.58-.48l3.41-.19c13.54-1.13 26.17-5.09 38.2-11.27" fill="#E7E8E8"/><path d="M596 144h4v4h2v2h2l1 7h2v-2l-2-1 1-2h2v8l-3 1-.15 3.95-.23 5.17-.09 2.6c-.22 4.73-.58 8.89-2.53 13.28-2 1-2 1-4 1l-2-2 .8-1.54c4.86-9.45 6.85-17.31 3.89-27.77A39 39 0 0 0 596 146z" fill="#231905"/><path d="M489 386h1l-.01 1.67-.04 17.38-.03 6.47-.02 9.34-.01 2.88c0 6.47.42 12.83 1.11 19.26l-2-3-1.6-2.29c-1.69-3.27-1.77-5.46-1.76-9.13l-.01-3.78.06-3.99.03-4.06C486 389 486 389 489 386" fill="#D3D6D1"/><path d="m710 172 2 1c-.33 6.26-3.21 11.16-7 16a56 56 0 0 1-10 7l-1.82 1.09c-7.39 3.59-18.36 3.18-26.21 1.11-3.88-1.63-5.59-2.63-7.97-6.2h3v2h4v2c5.91 1.31 11.97 1.32 18 1l1-1q2.5-.06 5 0v-2l3.44-.88L697 192l1-2h3l-1-4h4v-2h2v-2h2v-6h2z" fill="#D8B85D"/><path d="m679 132-1 3-2.56.23c-9.43 1.09-14.44 3.45-20.82 10.33-3.72 5.59-3.96 10.55-4.01 17.18-.07 1.96-.07 1.96-.61 5.26-2.04 1.46-2.04 1.46-4 2-.9-11.36.76-18.33 7.79-27.28 6.72-7.43 15.15-11.67 25.21-10.72" fill="#BBB081"/><path d="m543 16 2.06 2.19a41 41 0 0 0 6.44 5.25c2.9 2 4.96 4.19 7.15 6.98 2.09 2.45 4.53 4.44 6.97 6.53 3.41 2.94 6.7 6 10 9.05q4.22 3.9 8.63 7.56L587 56v2a25 25 0 0 1-7.61-5.23l-2.04-1.94-2.1-2.02a407 407 0 0 0-14.37-13.17c-3.25-2.84-6.4-5.78-9.57-8.72Q546.83 22.76 542 19z" fill="#DFE2DF"/><path d="m805 553 3 4-1.44 2.75A34 34 0 0 0 804 567l-2 3 1.68-.12c19.5-1.38 19.5-1.38 28.32 1.12v1h-34z" fill="#DCDFE0"/><path d="M764 658c.45 8.78.45 8.78-3 13-5.58 5.92-11.29 7.94-19.36 8.3q-2.2.03-4.39.01l-2.25.05c-4.28.01-6.91-.28-10-3.36l1.78-.06 8.16-.32 2.8-.09c6.81-.29 13.59-.66 19.75-3.8 2.06-2.36 2.25-4.27 2.63-7.35.39-2.98.39-2.98.88-5.38 2-1 2-1 3-1" fill="#D5D7D4"/><path d="M690 134c9.49 2.71 14.57 7.93 20 16 3.92 7.2 3.31 15.01 3 23h-1l-1-13-3 3-.11-2.34-.2-3.04-.18-3.02-.51-2.6-3-2c-.99-2.62-1.42-5.25-2-8h-2v-2l-8-2v-2h-2z" fill="#D2B964"/><path d="M650 165a60 60 0 0 1 4.12 7.19l1.08 2.17.8 1.64h-6v2h2l.88 2.81C654 184 654 184 656 187l-1 3c-9.31-11.33-9.31-11.33-8.81-18.81A16 16 0 0 1 650 165" fill="#CAB05C"/><path d="M692 667c3.76.4 6.88 1.32 10.31 2.81 11.34 4.68 23.48 6.77 35.69 7.19v1c-16.91 2.33-31.23-1.57-46-10z" fill="#D9DAD5"/><path d="M753 355a20 20 0 0 1 3.25 7.71l.65 2.77.66 2.9.67 2.86c1.56 6.72 2.91 12.82 2.77 19.76l-3 1-.15-2.48-.23-3.27-.21-3.23c-.39-2.89-1.1-4.48-2.41-7.02-.36-2.56-.5-5.08-.66-7.66C754 366 754 366 752 363c.03-2.74.55-5.28 1-8" fill="#1A1D18"/><path d="M553 669c-1 3-1 3-2.91 4.06a107 107 0 0 1-17.84 4.69l-2.15.39c-4.42.73-8.61.98-13.1.86v-1l-5-1v-1l2.97-.11c12.71-.58 26.11-6.89 38.03-6.89" fill="#DCDDD8"/><path d="M801 468c3.44 1.42 4.99 2.88 7 6 .96 2.42 1.83 4.78 2.62 7.25l.67 2.03c3.47 10.95 3.47 10.95 2.22 15.51-.7 3.01-.6 5.87-.57 8.96l.02 3.55.04 2.7h-1l-.1-1.98c-1.6-28.07-1.6-28.07-9.06-39.26C801 470 801 470 801 468" fill="#E0E3DE"/><path d="m542 167 1.12 1.56c3.08 4 6.31 7.87 9.88 11.44h-5v-2h-6v6h2v2h2v2h2l1 3c-3 0-3 0-4.89-1.65-5.09-6.06-5.09-6.06-5.15-9.74A59 59 0 0 1 541 173q.53-3 1-6" fill="#CFB460"/><path d="M944 603c7.76 3.42 12.24 11.16 15.77 18.56A59 59 0 0 1 963 641l-2 3-.52-3.37c-2.22-13.92-5.78-23.32-14.48-34.63z" fill="#E4E7E5"/><path d="M568.31 131.69h2.3c5.37.1 9.54.84 14.4 3.3v1h-5v2h2l-1 3-2.2-1.86c-6.27-4.74-12.2-4.65-19.8-4.13a45 45 0 0 0-7 2c4.44-5.15 9.83-5.36 16.3-5.31" fill="#A8A281"/><path d="m756 210 2 2c-.13 6.47-2.95 11.41-6 17l-1.44 2.81c-2.19 3.08-4.47 5-7.56 7.19l-3-1 1.79-1.8c7.44-7.8 11.66-15.77 14.21-26.2" fill="#D8DBD9"/><path d="m549 192 9 2v2h6v2l8-1v-1h10v-2h4v-2l3 1c-6.55 4.57-11.24 6.39-19.25 6.38l-2.29-.01c-7.66-.16-12.99-1.9-18.46-7.37" fill="#CFB76F"/><path d="M540 183q3.23 3.21 6.38 6.5A45 45 0 0 0 559 198c-2 2-2 2-5.62 2.12L550 200v-2h-4v-6h-2v-2h-4z" fill="#1D190B"/><path d="M709 181h1v5h-2v4h-2v2h-2v2h-4l-2 4h-2v2h-8l-1-2 1.94-.7c8.78-3.31 14.46-6.4 19.11-14.73z" fill="#2F230B"/><path d="M699 152h1l1 10h3v8h-2v-2h-2v2h-2v4h-2v2h-2v2l-3-1 2.38-3.12c4.82-6.86 5.12-13.7 5.62-21.88" fill="#E9C36A"/><path d="M751 4c3.37 3.15 6.46 6.25 7 11l-2 2-1.12-3.19c-1.8-4.22-4.16-6.17-7.88-8.81-3.32-1.11-6.2-1.32-9.69-1.56l-3.57-.26L731 3c1-2 1-2 2.62-2.62C740.47-.71 745.33.07 751 4" fill="#DFE1E1"/><path d="m656 177 1.95 1.31c7.37 4.54 13.43 6.06 22.05 4.69a50 50 0 0 0 8-4l2 1-2 4h-6v2l-6.62.12-3.73.08A29 29 0 0 1 662 184v-2h-4v-2h-2z" fill="#DAC06B"/><path d="M594 144c5.27 4.7 8.18 9.95 9 17 .31 5.74.27 10.61-2 16h-1v-23h-2v-4h-2v-2h-2z" fill="#C8AF65"/><path d="m772 617 1 2-2.75.38c-5.58 1.07-9 3.92-13.25 7.56l-6 5.06-2.12 1.88c-1.88 1.12-1.88 1.12-4.13.81L743 634l2.27-1.69 3.11-2.31 1.64-1.22c3.56-2.65 6.93-5.45 10.29-8.34 4.13-3.37 6.44-4.35 11.69-3.44" fill="#DADDDB"/><path d="M495 208c2.26 2.26 2.29 2.9 2.75 5.94 1.51 7.48 5.59 14.09 10.25 20.06-2.83-.35-3.82-.78-5.7-3l-1.55-2.44-1.58-2.43C498 224 498 224 498 222l-4-2 1-3-.5-1.88c-.62-2.63-.15-4.52.5-7.12" fill="#D1D2CD"/><path d="M668 135c8.6-.66 14.75.17 22 5 2.62 2.31 2.62 2.31 4 4l-2 4v-4l-7-2v-2a75 75 0 0 0-9.06-1.38c-3.9-.61-5.04-1.21-7.94-3.62" fill="#2B230E"/><path d="m595 186 1 4h-2v2h-2v2h-2v2h-2v2h-3v2h-20v-1l2.49-.04c10.83-.47 18.64-3.49 26.51-10.96z" fill="#312009"/><path d="M812 494c3.31 4.96 3.16 9.34 3.12 15.19v2.29c-.04 5.24-.37 10.33-1.12 15.52l-2-1z" fill="#E9EAE6"/><path d="M646 174a48 48 0 0 1 4.12 7.75c3.67 7.4 9.35 12.05 16.88 15.25v1h-7l-2-4h-2v-2h-2l-2-3h-4l-.68-6.15C647 181 647 181 646 180q-.06-3 0-6" fill="#241706"/><path d="M698 140h2v2h2c2.13 3.19 2.5 5.27 3 9l-5 3v-4h-2v-4h-2c.51-2.17 1-4 2-6" fill="#E1B94E"/><path d="M547 140c0 3.46-.42 3.66-2.5 6.19-4.12 6.15-2.89 13.73-2.5 20.81l-2-1v-6h-3c-1.01-6.41 2.4-11 6-16q1.95-2.05 4-4" fill="#C7B482"/><path d="M580 136c5.12-.62 7.6.69 11.58 3.61C593 141 593 141 594 144h-2v-2l-6-2v4h2v5l-1.88-2.38C584 144 584 144 582 142v-4h-2z" fill="#DCC072"/><path d="M634 677h1l.11 2.75c.49 9 1.78 16.24 5.89 24.25-1.86-.26-1.86-.26-4-1-1.23-1.74-1.23-1.74-2.19-3.88l-.98-2.11c-1.9-4.59-1.61-7.9-.89-12.7l.3-2.12z" fill="#D9DDD9"/><path d="M565 662v9c-5.75.12-5.75.12-8-1-2.12.44-2.12.44-4 1 1.27-3.8 2.59-4.22 6-6.19l2.75-1.6C564 662 564 662 565 662m-3 4v3Z" fill="#EEF1EC"/><path d="m496 362 3 3-.93 1.48c-1.48 3.49-1.79 7.04-2.19 10.77l-.27 2.26L495 385c-1.51-1.32-1.51-1.32-3-3 .11-2.52.44-4.55 1-7l.75-3.35q1.1-4.83 2.25-9.65" fill="#2C2D30"/><path d="m905 697 3 1c-1.45 2.9-3.22 3.06-6.25 4.12-6.66 2.17-12.81 2.28-19.75 1.88v-1l1.9-.44 8.48-2 2.98-.69 2.85-.68 2.64-.62C903 698 903 698 905 697" fill="#DDE1DD"/><path d="m826 570 3.5.56 2.5.44v1h-29c5.04-5.04 16.37-3.16 23-2" fill="#ECEFEF"/><path d="M729 296h2c3.39 5.85 6.58 11.67 9 18h-3l-4-7.31-1.16-2.09c-2.84-5.26-2.84-5.26-2.84-8.6" fill="#E7E9E8"/><path d="M617 678h1l.18 2.27.26 2.98.24 2.95c.32 2.8.32 2.8.94 4.87.5 2.56-.11 4.12-1 6.55l-.83 2.36C617 702 617 702 616 704l-4-1 1.43-2.38c1.96-4.53 2.36-8.62 2.76-13.5l.25-2.66z" fill="#DCDFDC"/><path d="M826 570a238 238 0 0 1 21.41.49c2.93.58 4.29 1.67 6.59 3.51q-5.03-.17-10.06-.38l-2.86-.09c-5.36-.22-10-.8-15.08-2.53z" fill="#DFDFE3"/><path d="M785.99 456.45c7.46 2.56 11.8 4.54 16 11.55-3 0-3 0-4.46-1.2-.26-.28-.26-.28-1.6-1.62-4.13-3.75-8.56-4.95-13.93-6.18v-2c2-1 2-1 3.99-.55" fill="#D9DAD5"/><path d="M488 433h1l1.5 8.06.43 2.28A63 63 0 0 1 492 457h-2c-1.94-8.29-3.34-15.51-2-24" fill="#E7EAE7"/><path d="M602 171c2.35 3.53 2.33 4.85 2 9-.75 3.31-.75 3.31-2 6-2 1-2 1-4 1l-2-2 .8-1.54A72 72 0 0 0 602 171" fill="#2F200F"/><path d="M580 142c2.61.36 3.78.77 5.62 2.69 3.4 5.71 3.64 10.84 3.38 17.31h-2l-.15-1.93-.23-2.51-.21-2.49L586 153l-2-1v-6h-2v-2h-2z" fill="#362709"/><path d="m651 154 1 4h2v11h2l-1 5c-3.63-4.73-4.12-7.07-4.06-13.12l.02-3.89z" fill="#1C1205"/><path d="m703 23 1 3-15 14-2-3 2.74-2.3 3.57-3.01 1.81-1.52 1.74-1.47 1.61-1.35A85 85 0 0 0 703 23" fill="#D6D9D6"/><path d="M770 458q2.84-.05 5.69-.06l3.2-.04c2.83.09 5.35.45 8.11 1.1l1 3h-4v2l-2-1 1-2h-12z" fill="#232420"/><path d="M492 453h1l1 8-2.51-.43a334 334 0 0 0-11.37-1.63l-2.08-.28L473 458v-1q3.09-.3 6.19-.56l3.48-.32c3.02-.11 5.42.14 8.33.88z" fill="#D3D6D4"/><path d="M588 162c1.62 1.5 1.62 1.5 3 4a19 19 0 0 1-2 8c-2.5 1.56-2.5 1.56-5 2l-2-1 1.06-2.08 1.38-2.73 1.37-2.71C587 165 587 165 588 162" fill="#D8BD5D"/><path d="M542 149h2c.19 4.82-.24 8.5-2 13h2c1.46 2.65 2 3.89 2 7h-3c-2.33-3.67-2.24-6.85-2.19-11.12l.02-3.76C541 151 541 151 542 149" fill="#2F2008"/><path d="m810 484 2 1c1.65 4.96 2.18 8.42 1.29 13.64-.63 5.08-.36 10.25-.29 15.36h-1l-1-11.62-.29-3.32-.27-3.22-.26-2.96A120 120 0 0 1 810 484" fill="#BDC0BB"/><path d="M492 371h2q-.42 3.88-.88 7.75l-.23 2.21c-.44 3.71-.89 6.84-2.89 10.04-1.31-7.43-.65-12.95 2-20" fill="#D1D2D3"/><path d="M696 130v2h-5v2l-17-2v-1c7.34-1.17 14.58-1.09 22-1" fill="#29210E"/><path d="M954 617c2.85 2.85 4.09 6.14 5 10a43 43 0 0 1-1 8 32 32 0 0 1-3-7.62c-1-3.38-1-3.38-3-5.38z" fill="#2A2D2C"/><path d="m647 172 1 4h2v2h2l.88 2.81C654 184 654 184 656 187l-1 3c-8.42-10.67-8.42-10.67-8-18" fill="#DBC176"/><path d="m686 132 2 2h-4v2h4l-1 3-1.76-.84c-4.42-2.05-8.34-3.66-13.24-4.16v-1c4.71-.77 9.22-1.28 14-1" fill="#C7B677"/><path d="M493 658a20 20 0 0 1 2.5 7.19l.5 2.81 2 1v2l4 2c-1.62.81-1.62.81-4 1-4.39-2.32-4.39-2.32-6-5-.22-3.77.29-7.3 1-11" fill="#282A26"/><path d="M659 192h3v2h4v2l21 2v1c-19.55.81-19.55.81-26-4z" fill="#C6B779"/><path d="M710 158c2 2 2 2 2.27 4.93l-.02 3.51.02 3.49C712 173 712 173 710 176h-2c-.12-5.75-.12-5.75 1-8q.34-2.55.56-5.12l.26-2.76z" fill="#E5C555"/><path d="M697 151c2.84 4.26 2.4 8 2 13-1 3.62-1 3.62-2 6h-1q-.04-3.62-.06-7.25l-.03-2.07c-.01-3.37.03-6.45 1.09-9.68" fill="#43330F"/><path d="M664 130h18v1a258 258 0 0 0-5.19.88l-2.92.49c-2.89.63-2.89.63-5.57 1.76C666 135 666 135 663 134z" fill="#181507"/><path d="M960 636h1q.33 3.32.62 6.62l.36 3.73c.02 3.7-.61 6.24-1.98 9.65h-3l.4-1.84c1.28-6.04 2.1-12.01 2.6-18.16" fill="#D5D9D3"/><path d="M491 409h1l1 31-3-1z" fill="#20241F"/><path d="m907 639 2 3c-3.3 6.6-3.3 6.6-7 8-3.25.12-3.25.12-6 0l2.19-1.69c7.06-5.8 7.06-5.8 8.81-9.31" fill="#212420"/><path d="m480 455 1 2-7.81 1.5-2.24.43A47 47 0 0 1 462 460v-2c6.01-2.65 11.47-3.13 18-3" fill="#E9ECEA"/><path d="M598 178h2c-1.36 6.04-4.86 9.63-9 14l-3-2h2l-1-3 5-1v-2h2v-4h2z" fill="#D5BC70"/><path d="M905 631h2c1.43 2.87 1.31 4.81 1 8-3.16 5.58-3.16 5.58-6 7 .51-2.17 1-4 2-6q.33-2.31.56-4.62l.26-2.48z" fill="#D1D2D1"/><path d="M489 386h1c.15 7.39-.29 14.64-1 22h-1c-.71-7.15-1.36-13.9 0-21z" fill="#E4E7E8"/><path d="m711 150 .25 1.88c.75 2.12.75 2.12 2.81 3.37l1.94.75v6h-1l-1 7h-1l-.4-2.92-.54-3.83-.52-3.8c-.54-3.45-.54-3.45-1.17-5.84L710 151z" fill="#322308"/><path d="m553 669-1 3c-2.36 1.17-2.36 1.17-5.31 2.19l-2.93 1.04C541 676 541 676 537 676v-2l8.85-3.22c4.92-1.78 4.92-1.78 7.15-1.78" fill="#E1E2DB"/><path d="M907 582c5.28.54 9.26 1.77 14 4v3l-15-5z" fill="#D7DAD8"/><path d="m540 183 12 12-3 1v-2h-3v-2h-2v-2h-4z" fill="#2D230B"/><path d="M730 0h6l-1.81.81C732 2 732 2 730.66 3.38a40 40 0 0 1-6.35 4.81l-2.45 1.6L720 11V8c1.68-1.61 1.68-1.61 3.88-3.19l2.17-1.6C728 2 728 2 730 2z" fill="#E3E6E1"/><path d="M784 456c-2 2-2 2-5.26 2.2l-3.86-.08-3.89-.05L768 458v-2c5.5-1.3 10.47-.71 16 0" fill="#E7E8E4"/><path d="M719 265h2l3 16-3-1c-1.99-5.14-2.19-9.52-2-15" fill="#E8EBE5"/><path d="M589 152h3v12l-3 1z" fill="#E1BE67"/><path d="M690 134c6.29 1.8 11.39 4.39 15 10h-3v-2h-2v-2l-8-2v-2h-2z" fill="#C6AF66"/><path d="M690 134v2h2l.38 2.38C693 141 693 141 695 143c-3 0-3 0-5.19-1.81C688 139 688 139 688 136h-4v-2c3.75-1.12 3.75-1.12 6 0" fill="#D9BE6A"/><path d="m575 132 10 3v1h-5v2h2l-1 3a79 79 0 0 1-7-6h2z" fill="#BBA86B"/><path d="M565.19 129.94h2.27l5.54.06v1l-2.56.33c-6.55.92-12.36 2.05-18.44 4.67v-3h2v-2c3.77-1.25 7.27-1.1 11.19-1.06" fill="#0F0C04"/><path d="M573 45c3.66 1.58 6.3 3.84 9.25 6.5l2.7 2.41C587 56 587 56 587 58c-3.66-1.58-6.3-3.84-9.25-6.5l-2.7-2.41C573 47 573 47 573 45" fill="#D6D9D9"/><path d="m945 673 3 2a451 451 0 0 1-5.25 4.56l-2.95 2.57c-2.8 1.87-2.8 1.87-5.16 1.65L933 683l1.86-1.43 2.45-1.88 2.43-1.87A52 52 0 0 0 945 673" fill="#D7DAD5"/><path d="M885 618c4.92-.17 8.5-.25 13 2v2c-3.43 1.19-5.38.8-8.75-.44l-2.42-.87L885 620z" fill="#252825"/><path d="m759 453 1 4 3.88-.12c2.17-.08 2.17-.08 4.12.12l2 2-2.12.62-2.76.82-2.74.81C760 462 760 462 758 463z" fill="#CDCEC8"/><path d="M753 355c1.95 2.93 2.75 5.08 3.69 8.44l.82 2.87c.49 2.68.38 4.15-.51 6.69l-2.15-5.18C754 366 754 366 752 363c.03-2.74.55-5.28 1-8" fill="#323330"/><path d="M801 690c2 3 2 3 3.88 6.44A28 28 0 0 0 811 704c-3.71-.56-5.34-1.98-7.81-4.75l-1.9-2.05c-1.29-2.2-1.29-2.2-.99-4.97z" fill="#D6D9D7"/><path d="m756 621 2 3-9 7-3-2 2.38-1.88C751 625 751 625 753 623z" fill="#1F2221"/><path d="M761 441c2.49 3.74 2.06 5.29 1.62 9.69l-.33 3.57L762 457h-2l-.06-5.19-.04-2.92c.1-2.75.48-5.21 1.1-7.89" fill="#DBDDD6"/><path d="m490 391 3 2c.19 3.12.19 3.12 0 6h-3v13h-1q-.05-3.84-.06-7.69l-.03-2.18c-.02-3.85.15-7.4 1.09-11.13" fill="#383A3B"/><path d="M709 181h1v5h-2v4h-2v2h-2v2l-3-1c0-3.29 2.75-4.75 5-7q1.55-2.47 3-5" fill="#291A08"/><path d="M606 152h2v8l-3 1-1 13h-1v-15h2v-2h2v-2l-2-1z" fill="#1B1406"/><path d="m857.19 571.38 3.86.34 2.95.27v2c-5.78.12-11.3 0-17-1 3.84-2.54 5.66-2.03 10.19-1.62" fill="#E7E9EB"/><path d="m538 165 4 2v9h-3l1-4h-2z" fill="#E0BC5E"/><path d="M442 542h2a37 37 0 0 1 2 14c-2.68-1.98-3.02-3.08-3.69-6.44C442 546 442 546 442 542" fill="#E8EAE9"/><path d="M581 176q2.51.43 5 1l-3 1v2l-9 2v2l-4-2 2.15-1.06 2.79-1.38 2.77-1.37C580 177 580 177 581 176" fill="#C8B15B"/><path d="m656 137 2 3c-6.29 5.57-6.29 5.57-10 6 1.58-4.27 4.51-6.27 8-9" fill="#242216"/><path d="m718 676 20 1v1q-3.87.33-7.75.62l-2.21.2c-3.9.28-6.75.45-10.04-1.82z" fill="#EDEFE9"/><path d="M553 663h2v2l5-2v3c-2.75 1.62-2.75 1.62-6 3-2.38-.81-2.38-.81-4-2l2-1z" fill="#20231E"/><path d="M796 467c2.34.17 3.69.7 5.38 2.33 3.62 4.24 3.62 4.24 3.62 6.67h-5l-.31-2.31c-.74-2.88-1.5-3.79-3.69-5.69z" fill="#20221F"/><path d="M692 667c5.54.57 10.04 2.63 15 5l-1 2c-5.45-1.57-9.76-3.04-14-7" fill="#E7E8E2"/><path d="M495 208c2.5 2.5 2.36 3.67 2.62 7.12l.23 2.76.15 2.12-3 1v-3l-.56-2.38c-.48-2.85-.15-4.84.56-7.62" fill="#DDDEDB"/><path d="m951 662 3 1-6 8-2-1c1.19-3.38 2.28-5.65 5-8" fill="#242520"/><path d="M756 361h2c3 6.75 3 6.75 3 9h-2l-1 2c-1.19-3.88-2-6.92-2-11" fill="#EEF0ED"/><path d="m710 172 2 1c-.52 5.28-2.25 8.57-5 13l-1-4h2v-6h2z" fill="#CEB56B"/><path d="m742 232 2 1a112 112 0 0 1-9 10l-2-2 3-1 .38-1.81c.91-3.19 3-4.31 5.62-6.19" fill="#212322"/><path d="M698 194c-4.77 2.71-8.34 4.57-14 4l1-2h5v-2c5.75-1.12 5.75-1.12 8 0" fill="#D7BE6B"/><path d="M560 183h12c-4.42 2.95-6.68 3.1-12 3z" fill="#DDC16E"/><path d="M543 690c2.86 2.86 2.96 6.1 3 10-.94 2.5-.94 2.5-2 4h-1z" fill="#242526"/><path d="M540 693h2l1 11-3-1c-1.12-6.62-1.12-6.62 0-10" fill="#F0F0F2"/><path d="m857 656 4.38-.12 2.46-.08c2.16.2 2.16.2 4.16 2.2l-12 1z" fill="#D9DAD9"/><path d="m651 150 1 2h2v5l-2 1q-.61 3.49-1 7h-1l-.06-5.81-.04-3.27c.1-2.92.1-2.92 1.1-5.92" fill="#342C1B"/><path d="M649 150h2l-2 12c-2-2-2-2-2.25-4.88.24-2.98.7-4.61 2.25-7.12" fill="#D1CA96"/><path d="M594 144c6.91 6.54 6.91 6.54 7.12 12.25L601 159h-1v-5h-2v-4h-2v-2h-2z" fill="#D7BB73"/><path d="M692 38v3c-1.75 1.39-1.75 1.39-4 2.69l-2.25 1.32L684 46v-3c2.63-2.42 4.59-3.86 8-5" fill="#202321"/><path d="M635 691c2.71 4.06 4.46 8.37 6 13-3.88-.88-3.88-.88-5-2q-.34-2.77-.56-5.56l-.26-3.07z" fill="#CDD0CD"/><path d="M759 648c3.07 4.01 4.13 6.04 4.06 11.12l-.02 2.76L763 664h-1l-1.5-5.75-.84-3.23C759 652 759 652 759 648" fill="#EDEFEF"/><path d="M811 522c2.12 4.24 2.26 6.36 2 11l-1 2h-2z" fill="#CDCECE"/><path d="m455 465 3 2-7 6-2-2z" fill="#222523"/><path d="M495 359h2l-.94 4.88-.52 2.74C495 369 495 369 494 371h-2l.94-4.88.52-2.74C494 361 494 361 495 359" fill="#E9EAEB"/><path d="m532 260 2 1v10l-3 1z" fill="#E2E5E2"/><path d="m714 161 2 1q.12 2.13.19 4.25l.1 2.39C716 171 716 171 713 175z" fill="#1C1307"/><path d="M458 570h2l1 3-3 1zm-3 3c1.94.75 1.94.75 4 2a13 13 0 0 1 1 4l-2 1z" fill="#212222"/><path d="m520 299 2 1a44 44 0 0 1-5 10h-2c1.45-3.79 3.15-7.39 5-11" fill="#E4E6E7"/><path d="m717 252 4 1-2 3c-.41 2.48-.41 2.48-.62 5.19l-.23 2.73L718 266h-1l-.56-5.88-.32-3.3C716 254 716 254 717 252" fill="#2C2E2A"/><path d="M646 174a47 47 0 0 1 4.12 7.69l1.08 2.45.8 1.86h-4a27.4 27.4 0 0 1-2-12" fill="#2C210A"/><path d="M697 167h1v7h-2v2h-2v2l-3-1 1.06-1.43 1.38-1.88 1.37-1.87C696 170 696 170 697 167" fill="#CCB46D"/><path d="M580 136c2.88-.12 2.88-.12 6 0l2 2-3 1c-.69 2.06-.69 2.06-1 4l-2-1v-4h-2z" fill="#D1B76A"/><path d="m710 692 2 1v10l-3 1z" fill="#EEEFEB"/><path d="M546 684c2 3 2 3 1.76 5.26l-.64 2.43-.61 2.45L546 696c-2.12-3.76-2.01-5.77-1-10z" fill="#1D1F1F"/><path d="M506 673h10v2l-10 1z" fill="#2B2C27"/><path d="M500 625c4.04 1.79 6.64 3.21 9 7l-3 1c-3.19-2.25-3.19-2.25-6-5z" fill="#222622"/><path d="M474 604a180 180 0 0 1 3.44 2.75l1.93 1.55c1.82 1.9 2.23 3.14 2.63 5.7-3.3-1.1-3.79-1.69-5.69-4.44l-1.32-1.87C474 606 474 606 474 604" fill="#E4E7E5"/><path d="M763 430h1l1 14h-3z" fill="#F2F3EB"/><path d="m719 255 2 1-2 12h-1l-.06-5.94-.04-3.34c.1-2.72.1-2.72 1.1-3.72" fill="#D6D7D4"/><path d="M547 140c0 3.36-.59 4.31-2.38 7.06l-1.33 2.1C542 151 542 151 540 153c-.31-3.14-.28-4.59 1.53-7.24l1.97-2.07 1.97-2.12z" fill="#B5B198"/><path d="M804 692c2.8 2.53 4.46 4.2 5 8h-3a96 96 0 0 1-3-6z" fill="#262A26"/><path d="M565 662v9l-3-1 1-4h-2l1-3c2-1 2-1 3-1" fill="#E0E3E0"/><path d="m880 657-1 2c-7.43.29-7.43.29-11-2 4.33-.93 7.67-.93 12 0" fill="#313231"/><path d="M883 618c-1.67 1.55-1.67 1.55-4 3-2.58-.14-2.58-.14-5.25-.81l-2.7-.65L869 619v-1c4.79-1.39 9.15-.69 14 0" fill="#D6DAD6"/><path d="M920 587c3.96.57 6.67 1.81 10 4l-2 2-4-2.44-2.25-1.37L920 588z" fill="#E5E7E7"/><path d="M839 571q2.63-.12 5.25-.19l2.95-.1c3.17.33 4.47 1.18 6.8 3.29-5.44.22-9.87.1-15-2z" fill="#BEBEC1"/><path d="M488 433h1l1 13-3-1z" fill="#F0F3F1"/><path d="M506 234c4.27 1.58 6.27 4.51 9 8-4.25-.47-6.27-2.89-9-6z" fill="#E1E3DF"/><path d="m748 229 1 2c-3.75 5.75-3.75 5.75-6 8l-3-1z" fill="#D2D5D2"/><path d="M761 202c.22 3.86-.4 6.49-2 10h-2c-.37-6.5-.37-6.5 1.44-8.94C760 202 760 202 761 202" fill="#E8EBE8"/><path d="M650 172h4l2 4h-8v-2h2z" fill="#D7B962"/><path d="m588 162 3 4-1 2h-2v4h-3z" fill="#C2AB65"/><path d="M542 149h2c.37 6.52.37 6.52-1.5 8.94L541 159c-.12-7.75-.12-7.75 1-10" fill="#281C0E"/><path d="M584 132v2l2.38.38C589 135 589 135 591 137l-2 2-9-6c2-1 2-1 4-1" fill="#2C1F07"/><path d="m537 674-1 3c-3.29.8-4.71 1.1-8 0v-2c3.15-.7 5.73-1 9-1" fill="#D5D6D2"/><path d="m875 654 1 2c-3.21 1.61-6.44 1.06-10 1v-2c2.96-1.48 5.74-1.06 9-1" fill="#E7E8EA"/><path d="M765 617h7l1 2-2.75.44c-2.46.42-4.84.91-7.25 1.56z" fill="#EEF0ED"/><path d="m757 381 3 3h1v7l-3 1z" fill="#2B2C28"/><path d="m602 151 2 1c.12 3.38.12 3.38 0 7l-2 2-2-9z" fill="#312508"/><path d="M577 138c3.88 1.75 3.88 1.75 5 4l-6 2q-.06-2.5 0-5z" fill="#231707"/><path d="M686 138c3.06 1.74 5.63 3.38 8 6l-2 4v-4l-1.88-.75c-2.47-1.46-3.07-2.63-4.12-5.25" fill="#392C0D"/><path d="M896 702c-3.42 2.28-4.68 2.22-8.69 2.12l-3.01-.05-2.3-.07v-1q2.37-.55 4.75-1.06l2.67-.6a13 13 0 0 1 6.58.66" fill="#BABDBB"/><path d="m882 616-1 2-11-1v-1c4.26-1.16 7.68-.76 12 0" fill="#363937"/><path d="M531 272h2l-2 9-2-2c.57-5.57.57-5.57 2-7" fill="#D2D5D0"/><path d="M688 192h9l-1 2h-6v2h-2z" fill="#E0BF51"/><path d="m666.56 191.94 3.44.06-1 4h-3v-2l-4-1c1-1 1-1 4.56-1.06" fill="#EBC555"/><path d="M651 166h3v3h2l-1 5c-2.15-2.62-3.4-4.64-4-8" fill="#251B06"/><path d="M748 7c4.88 1.75 4.88 1.75 6 4l-2 3v-2l-1.94-.31L748 11l-1-3z" fill="#21241D"/><path d="M739 0v2l3 1h-11c1-2 1-2 2.88-2.62C736 0 736 0 739 0" fill="#BDBFBD"/><path d="M816 663c-4.62 4-4.62 4-8 4 .81-1.94.81-1.94 2-4 3-1 3-1 6 0" fill="#DBDBDE"/><path d="M749 337c2.65 2.65 3.6 5.56 5 9l-3 1c-2.09-3.4-2.18-6.05-2-10" fill="#EBEDE9"/><path d="M596 186h4v4l-6 2v-2h2z" fill="#1D130C"/><path d="m688 179 2 1-2 4h-8c5.4-3.6 5.4-3.6 8-5" fill="#C9B468"/><path d="M694 144h2v2h2v4h2l-2 4-2-3.88-1.12-2.17C694 146 694 146 694 144" fill="#CFB063"/><path d="M512 2h9l1 3c-5.42.37-5.42.37-8.38-1.5z" fill="#292C29"/><path d="M705 688h3l1 6h-3z" fill="#252621"/><path d="m558 670 4 2-8 4v-3c2-1.69 2-1.69 4-3" fill="#DFE1DC"/><path d="m862 616 3.75-.12 2.11-.08c2.44.23 4.03.99 6.14 2.2q-2.15.37-4.31.69l-2.43.38c-2.26-.07-2.26-.07-4.05-1.55z" fill="#EBEEEC"/><path d="M795 462h3c2.19 3 2.19 3 4 6-3 0-3 0-5.19-1.88C795 464 795 464 795 462" fill="#D2D4CF"/><path d="m530 253 3 1 1 7c-3-2-3-2-3.69-5.12z" fill="#D7D9D5"/><path d="M659 192h3v2h4v2l4 1c-2.69.31-2.69.31-6 0-2.88-2.5-2.88-2.5-5-5" fill="#D8BF7C"/><path d="m595 187-5 5-2-2h2l-1-3c3-1 3-1 6 0" fill="#CCAD56"/><path d="M690 178h2v6h-4c.51-2.17 1-4 2-6" fill="#E0BF53"/><path d="M536 144h2v2l2 1-2 5h-2z" fill="#161407"/><path d="M692 134h8v4a37 37 0 0 1-8-4" fill="#33240B"/><path d="m709 688 2 1-1 13h-1l-.56-6.44-.32-3.62L708 689z" fill="#B3B4B0"/><path d="M490 653h2l-1 11h-1l-.56-4.38-.32-2.46C489 655 489 655 490 653" fill="#D8DAD8"/><path d="M899 625c5.88 3.75 5.88 3.75 7 6l-2 2c-2.5-2.31-2.5-2.31-5-5z" fill="#DADBDA"/><path d="M888 615v3c-2.38.62-2.38.62-5 1l-2-2c2.65-1.46 3.89-2 7-2" fill="#1E211E"/><path d="m438 518 1 4h2v8c-2.2-4.41-3.11-6.97-3-12" fill="#E5E7E6"/><path d="M492 453h1l1 8-6-1 1.44-1.25c1.72-1.93 2.13-3.23 2.56-5.75" fill="#C7CAC7"/><path d="M690 134c5.75 1.75 5.75 1.75 8 4-2.49 1.25-3.41.78-6 0v-2h-2z" fill="#CEB56A"/><path d="M529 9c2.38.31 2.38.31 5 1l2 3-4 1z" fill="#262927"/><path d="M523 0h2v2l3 1-1 3-6-3z" fill="#D7DBD7"/><path d="M918 688h4v3c-3.75 1.12-3.75 1.12-6 0 1-2 1-2 2-3" fill="#262724"/><path d="M562.25 672.88 564 674l-6 2-2-2c3.45-2.22 3.45-2.22 6.25-1.12" fill="#232520"/><path d="m689 671 6 2-2 2c-2.62-.38-2.62-.38-5-1z" fill="#242523"/><path d="M950 668h2l-3 6h-3c1.15-2.47 2.05-4.05 4-6" fill="#E4E6E2"/><path d="m881 652 2 3-7 1-1-2z" fill="#D9DBDC"/><path d="M508 639v3l-3 1-1 2c-2-1-2-1-3-3 4.75-3 4.75-3 7-3" fill="#242523"/><path d="m899 622 5 1v3l-3 1-3-3z" fill="#252724"/><path d="M809 540c1.43 2.35 2.09 3.48 1.62 6.25L810 548h-2q-.06-3.5 0-7z" fill="#E1E4E1"/><path d="M442 487h2l-1 8h-2z" fill="#333634"/><path d="m504 338 4 1-2 4h-3z" fill="#292C2A"/><path d="M582 172h2c-1.37 3.16-1.99 3.99-5 6l-1-4h4z" fill="#2E260C"/><path d="M538 172h2v9c-2.58-2.58-2.62-4.44-3-8z" fill="#D9C273"/><path d="m528 4 4 1 1 5a107 107 0 0 1-5-4z" fill="#E0E3E0"/></svg>