<svg style="background:transparent" version="1.1" xmlns="http://www.w3.org/2000/svg" viewBox="0 0 1248 704"><path d="M521 7c2.5 1.25 2.5 1.25 5 3l2.02 1.28c13.42 8.6 13.42 8.6 15.98 13.72q2.5 1.52 5 3a46 46 0 0 1 5 4v2l1.81.36c3.47 1.01 5.99 3.39 8.75 5.64l1.86 1.49q7.24 5.8 14.37 11.73c4.39 3.54 7.17 4.06 12.63 3.99h2.28l7.48-.05 5.2-.02 13.69-.06 21.9-.1 7.65-.04 4.7-.02 2.14-.02c3.65-.01 7 .23 10.54 1.1l.69-1.81C671 54 671 54 673.16 52.72c3.54-2.15 6.49-4.74 9.59-7.47 6.31-5.48 12.62-10.92 19.63-15.5C705 28 705 28 706.56 26.44c2.72-2.72 5.83-4.24 9.44-5.44l.88-1.88c1.53-2.89 3.24-3.53 6.12-5.12q3.38-2.28 6.72-4.6c4.64-2.85 7.95-3.68 13.4-3.21l3.14.23c3 .64 3.82 1.28 5.74 3.58l2.44 1.38c3.53 2.23 6.02 4.49 7.08 8.67q.54 3.75.79 7.51l.24 2.82c.51 7.01.39 13.86-.09 20.86-.53 7.83-.52 15.61-.42 23.45l.02 2.88.04 2.52c-.1 2.91-.1 2.91-.6 6.87-.63 5.55-.63 11.05-.6 16.63l.01 3.41.01 7.28.03 11.53.05 24.44.09 39.73.01 6.95.01 3.19v2.94l.01 2.54c-.59 11.78-5.86 21.42-13.12 30.4l-2 2.63a29 29 0 0 1-5.94 5.37 52 52 0 0 0-6.68 5.62c-2.59 2.59-5.34 4.37-8.38 6.38-2.38 1.81-2.38 1.81-4 4-.58 5.08.42 9.18 2 14l.94 2.88L725 280l.69 2.16A76 76 0 0 0 731 295l4.38 8.76 3.3 6.57a329 329 0 0 1 8.48 17.79c.75 1.67 1.6 3.28 2.46 4.88 1.46 3.18 2.1 6.09 2.78 9.5 1.33 5.54 3.5 10.87 5.7 16.12.9 2.38.9 2.38 1.34 5.69a31 31 0 0 0 2.12 7.75c1.39 3.48 1.52 6.18 1.44 9.94l1 3.44c1.04 3.71 1.07 6.73 1 10.56l1 4q.06 3 0 6c0 3 0 3 .49 4.8 1.89 8.18 1.16 19.25-1.49 27.2-.3 2.6-.51 5.21-.72 7.82C764 448 764 448 763 449q-.55 3.5-1 7l1.91-.44c12.05-2.61 21.07-1.81 31.84 4.69 9.04 6.07 13.57 13.22 16.25 23.75l.75 2.76A101 101 0 0 1 816 506c4.74-5.85 8.3-11.98 11.69-18.69a166 166 0 0 1 14.33-23.6q2.3-3.18 4.48-6.46c2.92-4.08 6.65-7.08 10.5-10.25l2.18-1.94c16.65-14.33 39.83-21.7 61.61-21.32 21.57 1.75 43.29 8.78 59.29 23.65 1.92 1.61 1.92 1.61 4.37 3.05a36 36 0 0 1 7.11 5.87l2.26 2.24A69 69 0 0 1 1000 467l3.55 4.74c7.76 10.44 16.93 24.72 16.32 38.17-.97 6.53-2.62 11.55-7.99 15.75-5.99 4.16-10.45 6.07-17.88 5.34-10.38-3.43-20.33-14.15-25.31-23.62l-1.31-2.68c-3.64-7.12-8.52-13.56-14.84-18.48C951 485 951 485 949.6 483.54c-7.19-6.9-16.03-9.4-25.6-10.54l-1-1q-3.13.07-6.25.31l-3.45.24A28 28 0 0 0 905 475l-2.88.88c-7.98 2.87-13.16 7.3-18.12 14.12l-2.44 2.75c-2.42 2.88-4 5.88-5.61 9.27-1.12 2.34-2.44 4.55-3.74 6.79-2.92 5.3-5.53 10.77-8.21 16.19l-1.14 2.26q-1.06 2.17-2.05 4.36a69 69 0 0 1-5.19 8.13 70 70 0 0 0-7.38 13.22c-1.47 2.4-2.71 2.92-5.24 4.03-1.12 2-1.12 2-2 4l-2 2q-2.25 2.71-4.46 5.44C833 570 833 570 830 571l-3 4h-2l-.69 1.81c-1.69 2.82-3.44 3.62-6.31 5.19l-3 2c-4.53 3.02-9.11 5.6-14 8l-2.29 1.23c-4.18 2.21-7.61 3.88-12.33 4.39-3.39.58-4.31 1.3-6.65 3.94q-2.13 3-4.1 6.1L774 610h-2l-.69 2.31c-1.63 3.35-3.14 3.79-6.31 5.69a100 100 0 0 0-3.12 3.69c-4.25 5.07-9.45 8.61-14.88 12.31a134 134 0 0 0 8.06 7.56c6.79 5.85 9.2 9.97 9.89 19.08.07 3.16-.16 4.71-1.95 7.36-7.93 8.28-15.52 9.7-26.63 10.09-10.44.13-20.61-.1-30.37-4.09-4.95-2-4.95-2-7-2l1.64 1.36c6.44 5.44 10.15 10.05 11.36 18.64q.08 3.13.05 6.28l-.02 3.25L712 704q-14.18.18-28.35.26-6.57.04-13.16.12-6.35.07-12.7.09-2.43.01-4.85.06-3.39.04-6.78.04l-3.91.03c-3.25-.6-3.25-.6-5.62-2.99-2.92-4.68-4-8.92-4.82-14.36l-.54-3.48L631 681l1-1c.07-2.72 0-5.42-.06-8.14C632 669 632 669 633 664l-15-1 2 4c.16 2.32.16 2.32.06 4.69A88 88 0 0 0 620 676l1 1c.14 4.25.19 7.91-1 12l-.38 3.25a37 37 0 0 1-2.16 7.98l-.83 2.15L616 704q-14.62.07-29.23.1l-13.58.05-18.09.06-6.99.02-2.1.02c-4.78-.02-4.78-.02-7.01-2.25-.97-9.01 2.12-15.94 7.71-22.88 2.91-3.48 5.5-6.6 9.29-9.12l-1.65.55-4.78 1.59q-2.47.82-4.93 1.69l-2.26.79-2.04.73c-6.79 1.88-13.85 1.97-20.84 2.27l-3.05.16c-9.25.41-15.97-.03-23.45-5.78a18.6 18.6 0 0 1-6-13c2.51-8.08 7.98-15.14 14-21 2.94-1.5 2.94-1.5 5-2a79 79 0 0 0-9.75-8.69c-4.53-3.56-8.21-7.47-11.97-11.81a80 80 0 0 0-7.28-6.88c-8.01-7.08-13.67-15.92-19.38-24.87l-1.26-1.97a59 59 0 0 1-5.69-11.95 55 55 0 0 0-3.23-6.89 47 47 0 0 1-4.94-15.5c-.5-3.44-.5-3.44-1.46-6.19a56 56 0 0 1-2.1-10.63l-.48-3.77L438 523l-.58-3.92c-.55-4.36-.35-8.58-.04-12.96l.15-2.38.47-6.74.22-3.18c.77-9.14 4.21-15.95 8.78-23.82l1.12-2.02c4.13-6.68 11.27-10.5 18.38-13.42 8.17-1.31 15.53-.65 23.5 1.44l-.94-5.75-.52-3.23c-.54-3.02-.54-3.02-1.04-4.86-1.1-4.74-1.23-9.69-1.62-14.54l-.31-3.4-.27-3.31-.25-3c-.05-3.1.38-5.87.95-8.91q.03-2.62-.06-5.25c-.05-4.57.49-8.63 1.49-13.08.65-3.07 1.12-6.13 1.57-9.23 1.12-7.43 2.5-14.18 5.18-21.21 1.72-4.68 3.11-9.48 4.57-14.25 1.49-4.81 3.21-9.38 5.25-13.98l1.25-3.56c3.12-8.42 7.6-16.41 11.94-24.25 17.1-31.09 17.1-31.09 13.81-45.19-3.15-3.67-6.78-6.43-10.69-9.25-16.17-12-16.17-12-20.31-20.75l-1.27-2.41c-5.52-10.54-6.9-20.48-6.83-32.21l.01-2.81.01-6.01.03-9.57.06-23.79.05-20.09.03-9.33c.02-10.38-.18-20.68-.87-31.03-.3-5.17-.3-10.32-.22-15.5l.06-5.48.04-2.35c-.1-2.42-.1-2.42-.59-5.22a73 73 0 0 1-.71-11.16l-.02-2.27-.02-4.74q-.02-3.58-.07-7.18l-.02-4.62-.04-2.14c.04-8.13 2.72-14.3 8.37-20.09 1.88-1.19 1.88-1.19 4-2l3.56-1.56c6.11-2.56 9.22-2.3 15.44-.44m169 658 1 2Z" fill="#151816"/><path d="M976.55 446.9q3.77 3 7.45 6.1l2.02 1.58c13.43 10.86 27.83 30.19 30.28 47.56.58 7.14.64 13.63-3.3 19.86-1.93 1.65-1.93 1.65-4 2.82l-2.06 1.2c-4.88 2.47-9.6 2.88-14.94 1.98-9.97-4.64-16-13.61-21.5-22.75-7.62-12.63-16.2-23.32-29.5-30.25l-2.72-1.52c-10.11-5.02-22.57-5.45-33.28-1.85a91 91 0 0 0-5 2.37l-2.64 1.36c-18.06 10.08-26.76 30.07-35.45 47.93-15.24 31.25-38.47 58.5-71.91 70.7-2.67.5-5.28.77-8 1l1.36-2.11 1.83-2.88 1.79-2.81q1-1.56 2.02-3.2.6-.87 1.19-1.78c3.46-5.3 6-10.81 8.44-16.64l1.15-2.7a144 144 0 0 0 8.16-25.23c3.27-14.38 8.53-26.88 15.9-39.61q2.2-3.88 4.33-7.8l1.77-3.2q1.8-3.25 3.58-6.51c5.64-10.2 11.96-19.58 20.3-27.77l1.82-1.8A72 72 0 0 1 872 439l3.34-1.82c32.76-17.22 71.76-12.31 101.2 9.73" fill="#0F1211"/><path d="M521 7c2.5 1.25 2.5 1.25 5 3l2.02 1.28c13.42 8.6 13.42 8.6 15.98 13.72q2.5 1.52 5 3a46 46 0 0 1 5 4v2l1.81.36c3.47 1.01 5.99 3.39 8.75 5.64l1.86 1.49q7.24 5.8 14.37 11.73c4.39 3.54 7.17 4.06 12.63 3.99h2.28l7.48-.05 5.2-.02 13.69-.06 21.9-.1 7.65-.04 4.7-.02 2.14-.02c3.65-.01 7 .23 10.54 1.1l.69-1.81C671 54 671 54 673.16 52.72c3.54-2.15 6.49-4.74 9.59-7.47 6.31-5.48 12.62-10.92 19.63-15.5C705 28 705 28 706.56 26.44c2.72-2.72 5.83-4.24 9.44-5.44l.88-1.88c1.53-2.89 3.24-3.53 6.12-5.12q3.38-2.28 6.72-4.6c4.64-2.85 7.95-3.68 13.4-3.21l3.14.23c3 .64 3.82 1.28 5.74 3.58l2.44 1.38c3.53 2.23 6.02 4.49 7.08 8.67q.54 3.75.79 7.51l.24 2.82c.51 7.01.39 13.86-.09 20.86-.53 7.83-.52 15.61-.42 23.45l.02 2.88.04 2.52c-.1 2.91-.1 2.91-.6 6.87-.63 5.55-.63 11.05-.6 16.63l.01 3.41.01 7.28.03 11.53.05 24.44.09 39.73.01 6.95.01 3.19v2.94l.01 2.54c-.59 11.78-5.86 21.42-13.12 30.4l-2 2.63a29 29 0 0 1-5.94 5.37 52 52 0 0 0-6.68 5.62c-2.59 2.59-5.34 4.37-8.38 6.38-2.38 1.81-2.38 1.81-4 4-.58 5.08.42 9.18 2 14l.94 2.88L725 280l.69 2.16A76 76 0 0 0 731 295l4.38 8.76 3.3 6.57a329 329 0 0 1 8.48 17.79c.75 1.67 1.6 3.28 2.46 4.88 1.46 3.18 2.1 6.09 2.78 9.5 1.33 5.54 3.5 10.87 5.7 16.12.9 2.38.9 2.38 1.34 5.69a31 31 0 0 0 2.12 7.75c1.39 3.48 1.52 6.18 1.44 9.94l1 3.44c1.04 3.71 1.07 6.73 1 10.56l1 4q.06 3 0 6c0 3 0 3 .49 4.8 1.89 8.18 1.16 19.25-1.49 27.2-.3 2.6-.51 5.21-.72 7.82C764 448 764 448 763 449q-.55 3.5-1 7l1.91-.44c12.05-2.61 21.07-1.81 31.84 4.69 9.04 6.07 13.57 13.22 16.25 23.75l.75 2.76A101 101 0 0 1 816 506c4.74-5.85 8.3-11.98 11.69-18.69a166 166 0 0 1 14.33-23.6q2.3-3.18 4.48-6.46c2.92-4.08 6.65-7.08 10.5-10.25l2.18-1.94c16.65-14.33 39.83-21.7 61.61-21.32 21.57 1.75 43.29 8.78 59.29 23.65 1.92 1.61 1.92 1.61 4.37 3.05a36 36 0 0 1 7.11 5.87l2.26 2.24A69 69 0 0 1 1000 467l3.55 4.74c7.76 10.44 16.93 24.72 16.32 38.17-.97 6.53-2.62 11.55-7.99 15.75-5.99 4.16-10.45 6.07-17.88 5.34-10.38-3.43-20.33-14.15-25.31-23.62l-1.31-2.68c-3.64-7.12-8.52-13.56-14.84-18.48C951 485 951 485 949.6 483.54c-7.19-6.9-16.03-9.4-25.6-10.54l-1-1q-3.13.07-6.25.31l-3.45.24A28 28 0 0 0 905 475l-2.88.88c-7.98 2.87-13.16 7.3-18.12 14.12l-2.44 2.75c-2.42 2.88-4 5.88-5.61 9.27-1.12 2.34-2.44 4.55-3.74 6.79-2.92 5.3-5.53 10.77-8.21 16.19l-1.14 2.26q-1.06 2.17-2.05 4.36a69 69 0 0 1-5.19 8.13 70 70 0 0 0-7.38 13.22c-1.47 2.4-2.71 2.92-5.24 4.03-1.12 2-1.12 2-2 4l-2 2q-2.25 2.71-4.46 5.44C833 570 833 570 830 571l-3 4h-2l-.69 1.81c-1.69 2.82-3.44 3.62-6.31 5.19l-3 2c-4.53 3.02-9.11 5.6-14 8l-2.29 1.23c-4.18 2.21-7.61 3.88-12.33 4.39-3.39.58-4.31 1.3-6.65 3.94q-2.13 3-4.1 6.1L774 610h-2l-.69 2.31c-1.63 3.35-3.14 3.79-6.31 5.69a100 100 0 0 0-3.12 3.69c-4.25 5.07-9.45 8.61-14.88 12.31a134 134 0 0 0 8.06 7.56c6.79 5.85 9.2 9.97 9.89 19.08.07 3.16-.16 4.71-1.95 7.36-7.93 8.28-15.52 9.7-26.63 10.09-10.44.13-20.61-.1-30.37-4.09-4.95-2-4.95-2-7-2l1.64 1.36c6.45 5.44 10.14 10.05 11.36 18.64.15 4.01.12 7.99 0 12l-4-1 .11-2.6c.23-10.07-1.35-16.12-8.21-23.6-3.85-3.64-7.73-5.51-12.9-6.8v-9a34 34 0 0 1 8.44 4.31c11.22 7.22 23.27 8.87 36.25 8.88l3.43.03c16.99.03 16.99.03 22.44-4.22 3.51-4.88 3.08-10.18 2.44-16-2.82-7.64-9.37-12.8-16.44-16.38L740 636c2.63-2.84 5.64-5.01 8.75-7.31C761.06 619.36 772.4 608.9 781 596c2.39-1 4.73-1.87 7.19-2.69 38.53-13.72 60.48-44.29 78-79.62l1-2.03.98-1.97.95-1.9 2.4-4.85c8-15.47 19.21-26.65 35.48-32.94 12.64-3.56 25.04-1.29 36.29 4.98A64 64 0 0 1 955 484l2.41 2.29c6.15 6.3 10.71 13.26 15.22 20.81 4.77 7.91 10.45 16.38 19.37 19.9 6.69 1.34 11.87-.37 17.87-3.32 3.85-3.04 4.96-6.48 5.63-11.24.26-16.9-6.75-29.15-16.5-42.44l-2.14-2.92A81 81 0 0 0 983 453l-2.73-2.34C958.96 433.13 932.22 426.27 905 428c-19.54 2.53-37.04 12.45-51 26l-2.11 1.89c-5.99 5.54-9.87 12.08-13.89 19.11l-2.96 5.12c-7.37 12.79-14.52 25.63-21.04 38.88h-2l-.03-1.84c-.71-36.97-.71-36.97-12.82-50.18-8.26-7.82-15.87-9.42-26.99-9.41-4.93.3-9.5 1.86-14.16 3.43l.26-1.88 1.18-8.56.41-2.95L761 439l.31-2.19c.96-7.36.93-14.77.94-22.19v-2.15c-.01-11.41-.79-22.31-3.25-33.47l-.84-4.15c-5.39-25.37-14.96-49.12-27.07-71.95-15.53-29.52-15.53-29.52-13.09-44.9 1.78-2.81 4.22-4.23 7-6 16-11.51 27.23-22.53 31.35-42.32 1.71-10.62 1.11-21.65 1.13-32.37l.04-8.14q.06-9.6.08-19.21.07-17.09.16-34.17l.05-13.81c.06-16.03.46-32.03 1.08-48.05q.34-8.88.42-17.74l.09-3.31c.05-6.5-.57-11.48-4.4-16.88-4.42-4.31-8.58-6.08-14.69-6.5-10.9.34-19.31 9.59-27.29 16.2a345 345 0 0 1-10.64 8.42 1213 1213 0 0 0-16.5 12.85l-1.79 1.35C682 50 682 50 679.46 52.43c-9.29 8.52-17.53 9.1-29.76 9l-5.55.05q-5.78.04-11.57-.01-7.34-.05-14.69.12-5.73.08-11.44.03-2.71 0-5.41.06c-13 .25-20.24-2.59-29.76-11.53l-1.71-1.66a67 67 0 0 0-6.39-5.22l-1.97-1.48-1.9-1.41a298 298 0 0 1-14.93-12A247 247 0 0 0 530 16.94l-1.89-1.41C521.24 10.51 515.47 8.7 507 10c-5.7 2.35-9.57 5.63-12.23 11.31-1.78 6.21-1.21 12.91-1.08 19.31l.03 4.45c.06 6.48.27 12.89.78 19.35.52 7.14.64 14.23.63 21.38v6l.01 6.35q0 6.66.03 13.33l.01 2.29.01 4.64q.06 15.48.06 30.97 0 10.5.05 21 .03 5.54.02 11.06c-.12 39.07-.12 39.07 12.68 53.56l2.14 2.44c5.99 6.35 12.75 11.38 19.83 16.41C533 256 533 256 534 257q.21 3.21.25 6.44l.08 3.56c-.35 8.31-4.07 16.28-7.33 23.81l-1.18 2.75a239 239 0 0 1-9.26 18.63C506.11 331.61 499.15 352.6 494 374l-.68 2.78c-6.44 27.37-4.07 55.79.68 83.22l-1.89-.42c-10.69-2.28-23.16-4.17-32.97 1.74-12.02 9.42-16.1 22.08-18.14 36.68-1.52 17.19 1.22 34.53 6 51l1.09 3.77c10.56 33.94 34.03 61.26 62.91 81.23l2 1v2l-1.98.7c-8.33 3.11-13.94 6.78-18.11 14.83a20.5 20.5 0 0 0 .28 15.41c4.01 4.57 8.42 5.82 14.33 6.24 18.65.43 36.76-.9 53.22-10.83C563 662 563 662 565 662v8l-1.98.92c-8.36 4.01-13.85 7.59-18.02 16.08-1.12 3.53-1.3 7.07-1.56 10.75l-.26 3.55-.18 2.7-4-2c-.86-11.67 4.38-19.03 11.66-27.53C553 672 553 672 556 670l-1.65.55-4.78 1.59q-2.47.82-4.93 1.69l-2.26.79-2.04.73c-6.79 1.88-13.85 1.97-20.84 2.27l-3.05.16c-9.25.41-15.97-.03-23.45-5.78a18.6 18.6 0 0 1-6-13c2.51-8.08 7.98-15.14 14-21 2.94-1.5 2.94-1.5 5-2a79 79 0 0 0-9.75-8.69c-4.53-3.56-8.21-7.47-11.97-11.81a80 80 0 0 0-7.28-6.88c-8.01-7.08-13.67-15.92-19.38-24.87l-1.26-1.97a59 59 0 0 1-5.69-11.95 55 55 0 0 0-3.23-6.89 47 47 0 0 1-4.94-15.5c-.5-3.44-.5-3.44-1.46-6.19a56 56 0 0 1-2.1-10.63l-.48-3.77L438 523l-.58-3.92c-.55-4.36-.35-8.58-.04-12.96l.15-2.38.47-6.74.22-3.18c.77-9.14 4.21-15.95 8.78-23.82l1.12-2.02c4.13-6.68 11.27-10.5 18.38-13.42 8.17-1.31 15.53-.65 23.5 1.44l-.94-5.75-.52-3.23c-.54-3.02-.54-3.02-1.04-4.86-1.1-4.74-1.23-9.69-1.62-14.54l-.31-3.4-.27-3.31-.25-3c-.05-3.1.38-5.87.95-8.91q.03-2.62-.06-5.25c-.05-4.57.49-8.63 1.49-13.08.65-3.07 1.12-6.13 1.57-9.23 1.12-7.43 2.5-14.18 5.18-21.21 1.72-4.68 3.11-9.48 4.57-14.25 1.49-4.81 3.21-9.38 5.25-13.98l1.25-3.56c3.12-8.42 7.6-16.41 11.94-24.25 17.1-31.09 17.1-31.09 13.81-45.19-3.15-3.67-6.78-6.43-10.69-9.25-16.17-12-16.17-12-20.31-20.75l-1.27-2.41c-5.52-10.54-6.9-20.48-6.83-32.21l.01-2.81.01-6.01.03-9.57.06-23.79.05-20.09.03-9.33c.02-10.38-.18-20.68-.87-31.03-.3-5.17-.3-10.32-.22-15.5l.06-5.48.04-2.35c-.1-2.42-.1-2.42-.59-5.22a73 73 0 0 1-.71-11.16l-.02-2.27-.02-4.74q-.02-3.58-.07-7.18l-.02-4.62-.04-2.14c.04-8.13 2.72-14.3 8.37-20.09 1.88-1.19 1.88-1.19 4-2l3.56-1.56c6.11-2.56 9.22-2.3 15.44-.44m169 658 1 2Z" fill="#E6E7E7"/><path d="M673 495c1.2 3.76.64 6.11-.85 9.79-2.16 4.16-5.16 7.63-8.15 11.21l-1.43 1.87c-1.8 2.34-3.08 3.94-5.88 5.01L655 523v2c-2.48 1.73-2.48 1.73-5.75 3.62l-3.23 1.92C643 532 643 532 639 532l.43 3.94c1.74 17.46 1.91 34.84 1.89 52.38q-.01 4.92.02 9.84c.22 41.49.22 41.49-3.34 60.84-1 1-1 1-3.13 1.11l-2.78-.01-3-.01-3.15-.03-3.17-.01L615 660a362 362 0 0 1-4-50l-.07-3.94c-.37-24.4.71-48.7 2.07-73.06l-2.43-1.17c-13.08-6.4-25.04-15.04-30.88-28.94-.68-2.85-.72-4.2.31-6.89l1.66 2.05c8.92 10.47 20.02 18.92 33.34 22.95l1.84.57c13.28 2.66 24.47-.98 35.85-7.82A85 85 0 0 0 673 495" fill="#000"/><path d="M739 471h2c-.73 22.05-1.67 43.49-7 65l-.72 2.95c-3.77 15.16-8.35 30-15.01 44.16C707.31 608 697.59 638.57 698 666c-4.53-.53-7.29-2.43-11-5 2.76-24.38 9.2-46.01 17.51-69.07q3.6-10 7.08-20.05 1.95-5.6 3.96-11.18a492 492 0 0 0 9.67-30.01l1.72-5.85a341 341 0 0 0 6.24-24.96l1.35-6.22A530 530 0 0 0 739 471" fill="#000100"/><path d="M512 471c2.03 3.04 2.46 4.62 3.08 8.14l.57 3.15.6 3.4c3.08 16.65 6.72 33.19 12.33 49.19 2.33 6.65 4.38 13.39 6.48 20.12 1.77 5.6 3.71 11.05 5.94 16.49 1.83 4.59 3.4 9.27 5 13.95l2 5.81 1 2.88q1.49 4.26 3.07 8.49c4.72 12.95 8.07 26.26 10.81 39.76l.65 3.18c2.01 10.32 2.01 10.32 1.47 15.44-3.12 2.7-4.83 4-9 4l-.34-2.23-1.54-10.15-.52-3.5c-1.64-10.72-3.68-20.95-6.91-31.31l-.94-3.04L543 606l-.73-2.32a242 242 0 0 0-7.82-21.23c-13.31-31.77-22.81-66.4-22.51-101.07l.01-3.05z" fill="#000101"/><path d="M814 518c5.32 10.64 3.22 30.76.13 41.82A306 306 0 0 1 806 580h-2l-.19 2.19c-1.25 4.34-3.87 6.57-7.64 8.98-4.72 2.57-8.83 3.45-14.17 3.83l1.36-2.12 1.83-2.88 1.79-2.81L789 584l1.19-1.79c3.46-5.31 6-10.81 8.43-16.65l1.16-2.69c4.49-10.6 7.39-21.25 10.06-32.43l.76-3.12.67-2.81A31 31 0 0 1 814 518" fill="#000101"/><path d="m623.75 186.63 2.13-.12c3.98-.06 6.44.33 9.62 2.83C638 192 638 192 638.19 195c-1.43 3.6-3.46 5.26-6.19 8-.93 2.06-.93 2.06-1.69 4.25C629 211 629 211 627 212c-5.3.45-5.3.45-7.75-1.12-1.25-1.87-1.25-1.87-2.12-4.75-1.13-3.12-1.13-3.12-3.69-5.7-2.44-2.43-2.44-2.43-3.5-4.93.09-3.56 1.63-5 4.06-7.5 3.1-1.56 6.35-1.3 9.75-1.37" fill="#616365"/><path d="M488 409h1l.08 3.79c.46 15.94 2.53 31.47 4.92 47.21l-1.89-.42c-10.69-2.28-23.16-4.17-32.97 1.74-8.94 7.01-13.94 15.83-16.33 26.8l-.5 2.29c-1.99 9.74-2.15 19.67-2.31 29.59l-2 1c-1.08-5.06-.97-9.64-.62-14.75l.15-2.42.47-6.83.22-3.19c.77-9.14 4.21-15.94 8.78-23.81l1.12-2.02c4.13-6.68 11.27-10.5 18.38-13.42 8.17-1.31 15.53-.65 23.5 1.44l-.94-5.75-.52-3.23c-.54-3.02-.54-3.02-1.1-5.06-2.31-10.27-.1-22.49.56-32.96" fill="#E0E2E2"/><path d="M616 661h20l-.11 6.03-.05 5.87-.1 6c-.08 9.55.83 17.08 6.26 25.1-2.65-.37-3.78-.76-5.62-2.75-2.74-4.48-3.79-8.83-4.57-14l-.54-3.48L631 681l1-1c.07-2.72 0-5.42-.06-8.14C632 669 632 669 633 664l-15-1 2 4c.16 2.32.16 2.32.06 4.69A88 88 0 0 0 620 676l1 1c.14 4.25.19 7.91-1 12l-.38 3.25c-.71 4.26-2.01 7.75-3.62 11.75h-5l.84-2.08 1.1-2.73 1.09-2.71c1.71-4.38 2.09-7.63 2.07-12.34l-.01-2-.03-6.33-.01-4.29z" fill="#ECEFEC"/><path d="M493 73h1c1.16 27.82 1.12 55.63 1.07 83.48l-.02 18.16L495 210c-3.4-3.4-3.12-6.81-3.13-11.49l.01-2.2v-2.34l.03-7.75.01-5.5c.05-20.75.29-41.5.54-62.26q.1-7.73.18-15.47z" fill="#EEEFEF"/><path d="M498 11c.75 1.62.75 1.62 1 4-1.88 3.06-1.88 3.06-4 6-1.19 3.58-1.13 6.46-1.13 10.24l-.01 2.17.01 4.57-.01 6.85c0 6.75.1 13.43.64 20.16.67 8.3.61 16.57.56 24.89l-.01 4.72L495 106h-3a393 393 0 0 1-.96-32.56l.02-2.67.04-2.35c-.1-2.42-.1-2.42-.59-5.22a73 73 0 0 1-.71-11.16l-.02-2.27-.02-4.74q-.02-3.58-.07-7.18l-.02-4.62-.04-2.14c.04-8.13 2.89-14.17 8.37-20.09" fill="#DDDEDF"/><path d="M710 171v2h2v3a21 21 0 0 1-5.88-2c-6.33-2.98-14.03-2.22-20.87-2.25l-3.42-.06c-6.35-.03-11.75.49-17.75 2.6A41 41 0 0 1 656 176v2h-4v2h-4c1.5-4.51 4.5-5.45 8.61-7.57 15.71-6.62 37.34-7.12 53.39-1.43" fill="#020303"/><path d="M593 173v2l3-1c2 1.75 2 1.75 4 4v4h-2l-1.72-1.83c-2.74-2.61-5.18-3.56-8.72-4.86l-3.37-1.26c-6.64-2.19-12.88-2.27-19.81-2.3l-3.13-.06a56 56 0 0 0-17.79 2.56A68 68 0 0 1 536 176c1-3 1-3 3.81-4.56 15.6-5.97 38.03-6.02 53.19 1.56" fill="#030405"/><path d="M759 379h1c2.57 11.87 3.29 23.52 3.25 35.62v2.11c-.03 7.49-.23 14.84-1.25 22.27l-1-3h-2l1-35h-1a766 766 0 0 1-1.12-8.19l-.34-2.33c-.57-4.41-.74-7.42 1.46-11.48" fill="#1F221F"/><path d="m754 354 3 1 .38 2.25c.62 2.75.62 2.75 1.62 4.56 1.26 2.76 1.41 5.31 1.71 8.31.29 1.88.29 1.88 1.35 4 1.32 2.64.94 4.95.94 7.88l1 3.44c1.04 3.71 1.07 6.73 1 10.56l1 4q.06 3 0 6v3l-.22 4.01-.14 2.3-.14 2.38-.14 2.41-.36 5.9h-1l-.14-2.27c-1.16-19-2.8-37.47-7.5-55.95A99 99 0 0 1 754 354" fill="#EEF1EE"/><path d="M495 208c1.9 2.85 2.7 5.23 3.6 8.5 2.16 7.81 4.69 13.57 10.4 19.5l1.92 2.15c5.14 5.5 10.91 9.83 17.12 14.04 4.82 3.36 4.82 3.36 5.65 5.97L534 260c-3.74-1.25-5.24-3.2-8-6a196 196 0 0 0-5.69-4.25c-16.17-12-16.17-12-20.31-20.75l-1.27-2.41c-2.49-4.76-4.77-9.28-5.73-14.59.88-2.44.88-2.44 2-4" fill="#DBDEDF"/><path d="m929 469 3 2c-3.46 1.96-5.87 2.02-9.69 1.5-10.37-1.28-21.83 2.44-30.31 8.5a139 139 0 0 0-5 5l-2 2-3-1c5.39-5.94 10.84-10.37 18-14l2.45-1.26c8.43-3.69 17.51-3.53 26.55-2.74" fill="#DFE2E3"/><path d="M929 425c-2.44 2.44-3.1 2.25-6.45 2.27l-2.74.06-2.93.05c-14.69.46-27.33 3.96-40.88 9.62v-3c16.63-7.02 34.76-13.19 53-9" fill="#E3E5E5"/><path d="M488 409h1l.08 3.79c.46 15.94 2.53 31.47 4.92 47.21l-10-2c3-2 3-2 6-2l-.94-5.75-.52-3.23c-.54-3.02-.54-3.02-1.1-5.06-2.31-10.27-.1-22.49.56-32.96" fill="#D6D8D9"/><path d="M759 156h1a555 555 0 0 1 1.12 36.94l.01 2.14v9.73A35 35 0 0 1 758 218h-2l1-13h1z" fill="#EAEDED"/><path d="M759 24h1c.15 18.7-.23 37.32-1 56h-1a753 753 0 0 1-1.12-36.5l-.02-2.83c.03-14.56.03-14.56 2.14-16.67" fill="#333433"/><path d="M698 672a25.7 25.7 0 0 1 12.89 13.1c1.57 6.18 1.3 12.57 1.11 18.9l-4-1 .11-2.6c.24-10.35-1.5-16.05-8.49-23.7q-1.79-1.87-3.62-3.7z" fill="#DCDFDC"/><path d="M487 456v1l-1.68.01c-22.64.3-22.64.3-31.94 9.3L451 469l-2-1c3.64-7.04 10.35-10.5 17.5-13.44 7.02-1.13 13.86-1.43 20.5 1.44" fill="#E7E9E8"/><path d="M1016 504h1q.2 3.81.31 7.62l.13 2.17c.09 3.97-.2 6.44-2.74 9.59-5.17 5.01-10.21 7.56-17.45 7.68L994 531v-3l2.12-.26c6.33-.94 12.16-2.16 16.88-6.74 1.93-3.73 2.35-7.15 2.62-11.31l.23-3.24z" fill="#CFCFD0"/><path d="M488 388h2q-.89 19.5-2 39l-2-1a44 44 0 0 1 0-17q0-2.62-.06-5.25c-.07-5.46.77-10.46 2.06-15.75" fill="#EDF0F1"/><path d="M755 216c2 2 2 2 2.12 4.94-1 5.9-5.5 10.51-9.12 15.06l-2.07 2.71C744 241 744 241 741 243l-3-1 1.72-1.48c7.56-6.93 12.04-14.79 15.28-24.52" fill="#E0E3E3"/><path d="M565 662v2l-3 2c-.69 2.12-.69 2.12-1 4l-3-1c-2.4.74-4.67 1.52-7 2.44-6.63 2.56-6.63 2.56-10 2.56l-2-2 1.66-.59 7.53-2.72 2.62-.94c4.32-1.57 9.85-5.75 14.19-5.75" fill="#E9EAEA"/><path d="M876 436v2l-1.98.93c-7.26 3.63-12.71 8.1-18.49 13.68C853 455 853 455 850 457l-1-3c20.14-18 20.14-18 27-18" fill="#DCDEDF"/><path d="m936.63 426.25 2.19.43c4.96 1 9.61 2.04 14.18 4.32 1.2 2.1 1.2 2.1 2 4l-1.59-.52a218 218 0 0 0-19.78-5.03q-2.84-.65-5.62-1.45l-1-2c3.15-1.58 6.26-.41 9.62.25" fill="#D7D8D7"/><path d="M754 165h1l.08 3.99.42 20.98.18 9.11.05 2.87.06 2.67.05 2.35C756 209 756 209 757 212q-.9 3.53-2 7c-1.56-1-1.56-1-3-3q.3-2.84.71-5.66c.52-4.16.53-8.34.61-12.53l.06-2.86.18-8.95.13-6.11z" fill="#1C201F"/><path d="m635 678 .26 3.4c.76 8.47 1.49 15.57 6.74 22.6-3.8-.78-3.8-.78-5.62-2.75-2.7-4.41-3.84-8.8-4.69-13.87l-.62-3.42c-.07-2.96-.07-2.96 1.32-4.86C634 678 634 678 635 678" fill="#E3E5E6"/><path d="M687 661a25 25 0 0 1 10 6v4l1 2a70 70 0 0 1-11-3zm3 4 1 2Z" fill="#E3E6E4"/><path d="m630.81 660.94 2.96.03 2.23.03-.44 8.13-.12 2.3A95 95 0 0 1 634 684h-1l-.57-7.18-.16-2.05c-.29-3.95-.06-6.81.73-10.77l-13-1v-1a44 44 0 0 1 10.81-1.06" fill="#F1F4F4"/><path d="M929 471c7.05.32 13.03 3.36 19 7l2 3-3 1c-2.05-1.14-2.05-1.14-4.31-2.81-3.49-2.46-6.52-4.1-10.69-5.19l-3-1z" fill="#E5E5E5"/><path d="M1013 491h2c3.53 9.45 6.33 16.98 3 27h-1l-.11-2.71c-.37-6.78-1.01-12.88-3.27-19.3-.62-1.99-.62-1.99-.62-4.99" fill="#E6E8E7"/><path d="M805 587c-1.5 4.51-4.93 5.83-9 8-3.5 1.31-3.5 1.31-6 2l-3-3 7.88-3.5 2.26-1.01 2.16-.96 2-.89c1.7-.64 1.7-.64 3.7-.64" fill="#DEDFDC"/><path d="M488 409h1l.08 1.84c.93 22.33.93 22.33 1.92 31.16l-1-3h-2c-1.12-3.36-1.03-5.67-.88-9.2l.15-3.66.17-3.83.16-3.86z" fill="#C7CACA"/><path d="m777 458-1 2c-2.53.64-5 1.17-7.56 1.62l-2.16.41-5.28.97-1-3c6.18-2.81 10.34-3.28 17-2" fill="#1D1F1E"/><path d="M618 689h2c-.57 5.45-1.95 9.91-4 15h-5c4.36-11.4 4.36-11.4 7-15" fill="#E3E3E5"/><path d="M763 395c2 1 2 1 2.62 2.69.46 2.8.44 5.47.38 8.31v3l-.22 4.01-.14 2.3-.14 2.38-.14 2.41-.36 5.9h-1a377 377 0 0 1-1-31" fill="#F4F6F5"/><path d="M759 379h1c1.39 6.07 2.54 11.76 2 18-1.52 2.23-1.52 2.23-3 4a766 766 0 0 1-1.12-8.19l-.34-2.33c-.57-4.41-.74-7.42 1.46-11.48" fill="#2B2D2B"/><path d="M438 497h2v23l-2 1c-1.15-5.25-.93-10.07-.56-15.38l.16-2.51q.18-3.06.4-6.11" fill="#EDF0EF"/><path d="M720 272h3l.25 2.94c.65 4.73 2.67 8.8 4.75 13.06h-4a553 553 0 0 1-3.12-8.11A21 21 0 0 1 720 272" fill="#ECECEE"/><path d="M541 689c2 2 2 2 2.2 5.04l-.08 3.58-.05 3.61L543 704l-4-2c-.17-4.92-.25-8.5 2-13" fill="#DDDDDF"/><path d="m491 665 1.69 2.31c4.72 5.49 10.54 6.84 17.31 8.69l-2 2c-6.81-.14-11.74-3.17-16.75-7.53L490 669c.31-2.19.31-2.19 1-4" fill="#E7E9EC"/><path d="M749 334c1.83 3.38 3.02 6.84 4.19 10.5l1.1 3.41c.68 2.94.78 4.32-.29 7.09a36 36 0 0 1-4.19-8.81l-1.1-3.08c-.78-3.41-.5-5.73.29-9.11" fill="#E7E9E8"/><path d="M812 500h1l1 10 3-1 1 2c-.78 1.95-.78 1.95-1.94 4.12l-1.15 2.2L814 519h-2z" fill="#C0C4C1"/><path d="M911 469q4.4-.08 8.81-.12l2.53-.06 2.43-.02 2.24-.03C929 469 929 469 932 471c-3.61 1.71-5.22 2.06-9 1q-3.12-.55-6.25-1.06l-3.27-.54-2.48-.4z" fill="#C8CCCE"/><path d="m618 675 3 2c.64 6.16-.58 10.35-3 16h-1z" fill="#F0F3F5"/><path d="M490 652h2l-1 15h-2c-2.54-7.63-2.54-7.63-.62-12z" fill="#E5E7E7"/><path d="M978 518c4.2 1.94 7.74 4.63 11.46 7.34A34 34 0 0 0 997 529v1c-7.44-.6-11.57-3.19-16.38-8.75q-1.32-1.62-2.62-3.25" fill="#E6E7E7"/><path d="m441 518 2 1c.53 2.65.93 5.2 1.25 7.88l.31 2.22c.69 5.53.69 5.53-1.56 8.9-1.42-6.78-2.23-13.07-2-20" fill="#242725"/><path d="M1016 504h1q.2 3.81.31 7.62l.13 2.17c.09 4.13-.26 6.5-2.96 9.73L1012 526l-1-3c1.38-2 1.38-2 3-4 1.05-3.16 1.31-5.87 1.56-9.19l.26-3.29z" fill="#C7C8C8"/><path d="M809 479c3.24 3.24 3.57 6.43 4.08 10.78-.09 2.55-.8 4.04-2.08 6.22q-.8-3.96-1.56-7.94l-.46-2.28q-.54-2.88-.98-5.78z" fill="#D9DCDA"/><path d="M718 258c2.78 2.78 2.54 5.15 3 9q.48 2.5 1 5h-2l-1 3a45 45 0 0 1-1.06-11.31l.02-3.24z" fill="#DEE0DF"/><path d="m728.82 674.9 4.75.04 2.44.01 5.99.05c-1.78 2.28-2.64 2.95-5.56 3.36l-2.87-.05h-2.87c-2.7-.3-4.38-.94-6.7-2.3 1-1 1-1 4.82-1.1" fill="#DBDEDC"/><path d="M455 576c3.17 1.09 3.99 1.98 5.75 4.94C462 584 462 584 462 587c-3.7-1.23-3.94-2.2-5.69-5.56l-1.32-2.51L454 577z" fill="#E9ECE9"/><path d="M470 454c11.52-.37 11.52-.37 17 2v1l-17-1z" fill="#ECEEF0"/><path d="m890 429-1 3c-2.94 1.39-2.94 1.39-6.56 2.69l-3.63 1.32-2.81.99v-3l5.88-2.5 3.3-1.41C888 429 888 429 890 429" fill="#E5E7E7"/><path d="M563 664h2v6c-6.62 3.12-6.62 3.12-10 2 3.75-3 3.75-3 6-3l.44-1.94C562 665 562 665 563 664" fill="#F1F2F3"/><path d="M462 460c-.68 2.71-1.38 4.52-3.62 6.26-1.88 1.12-1.88 1.12-5.38 2.74l-2-1q2.17-2 4.38-4l2.46-2.25C460 460 460 460 462 460" fill="#212424"/><path d="M490 416h2q.12 2.9.19 5.81l.1 3.27c-.29 2.92-.29 2.92-1.8 4.81L489 431l-.06-5.81-.04-3.27c.1-2.92.1-2.92 1.1-5.92" fill="#1F2224"/><path d="M512 471c2.3 3.44 2.54 5.94 3 10h-2v12h-1z" fill="#060807"/><path d="M534 260c2.31 2.74 3.42 4.45 3.38 8.06C537 272 537 272 535.5 274l-1.5 1c-1.1-3.41-.94-6.21-.56-9.75l.31-2.98z" fill="#2B2D2E"/><path d="M515 8v1l-1.98.33c-5.14.94-9.44 2.02-14.02 4.67 1.22-3.79 3.6-5.52 7.05-7.38 3.41-1.08 5.71.06 8.95 1.38" fill="#E1E1E4"/><path d="M759 646c3.36 2.24 3.82 3.27 5 7v3h-2v-2h-2c-1.43-2.35-2.09-3.48-1.62-6.25z" fill="#F0F0F0"/><path d="M512 5q2.22.38 4.44.81l2.49.46L521 7l1 3a168 168 0 0 1-12-2z" fill="#EEEFEE"/><path d="M749 640c2.19-.31 2.19-.31 5 0 2.81 2.5 2.81 2.5 5 5l-1 3-3.38-2.88-1.89-1.61A73 73 0 0 1 749 640" fill="#DEDEDE"/><path d="M945 428q1.95.6 3.88 1.25l2.17.7c2.42 1.3 2.97 2.54 3.95 5.05q-2.47-.63-4.94-1.31l-2.77-.74L945 432l-1-3z" fill="#DDDDDF"/><path d="M832 479h2c-.58 4.75-2.55 7.97-5 12l-2-1c1.45-3.79 3.15-7.39 5-11" fill="#DADCDE"/><path d="M488 439h2c2.43 7.43 2.43 7.43 1 11h-2l-1.06-4.94-.6-2.77L487 440z" fill="#E0E2E4"/><path d="M826 490h2c-2.71 9.59-2.71 9.59-7 13 0-3.49.9-5.11 2.5-8.19l1.41-2.73z" fill="#E5E7E8"/><path d="M471 457q3.09-.08 6.19-.12l3.48-.08c3.25.2 5.42.81 8.33 2.2a27 27 0 0 1-9 1v-1l-9-1z" fill="#0F1112"/><path d="m858 449 2 1-3.31 3.94-1.87 2.21C853 458 853 458 850 459c1.65-4.29 4.74-6.88 8-10" fill="#080A0B"/><path d="M493 441c2.16 3.23 2.47 4.25 2 8-1.52 1.66-1.52 1.66-3 3a220 220 0 0 1-.62-4.38l-.36-2.46L491 443z" fill="#1A1C1E"/><path d="M490 378h3l-2 12-2-2c.02-2.38.02-2.38.38-5.12l.33-2.76z" fill="#DADBDC"/><path d="M495 208c2.21 3.31 2.22 4.34 2.12 8.19l-.05 2.73L497 221c-2.75-2.75-3.22-5.22-4-9 .88-2.44.88-2.44 2-4" fill="#E1E3E4"/><path d="M554 675c0 3.62-.92 5.08-3 8l-3 1-1-2c4.75-5.88 4.75-5.88 7-7" fill="#27272A"/><path d="M1017 504h2c1.16 3.48.77 5.14.06 8.69l-.59 3.01-.47 2.3h-1z" fill="#ECEEED"/><path d="M440 486h2c.08 4.16-.02 7.95-1 12l-2-1q-.05-2.47-.06-4.94l-.04-2.77c.1-2.29.1-2.29 1.1-3.29" fill="#E6E9E7"/><path d="M761 373c2 3 2 3 1.75 5.5C762 381 762 381 760 384a220 220 0 0 1-.62-4.38l-.36-2.46L759 375z" fill="#E3E6E3"/><path d="m769 614-1 3-3 1c-1.39 1.41-1.39 1.41-2.69 3.06L760 624c0-3.52.58-4.1 2.81-6.69l1.58-1.88C766 614 766 614 769 614" fill="#ECEEED"/><path d="M690 41c-1.5 4.21-4.29 5.74-8 8v-3c5.35-5 5.35-5 8-5" fill="#E7E6EB"/><path d="M550 670c-2.35 2.72-4.62 3.81-8 5l-3-3q2.18-.8 4.38-1.56l2.46-.88C548 669 548 669 550 670" fill="#CFD1CE"/><path d="m757 671 2 1c-4.82 3.98-4.82 3.98-8.18 4.04A83 83 0 0 1 745 675v-1l2.12-.4 2.76-.54 2.74-.52C755 672 755 672 757 671" fill="#DBDEDB"/><path d="m882 488 2 1a19.4 19.4 0 0 1-5 7l-2 2c.43-4.75 1.33-6.92 5-10" fill="#E8EAEC"/><path d="m856 448 2 2-7 7-2-1v-2c1.53-1.51 1.53-1.51 3.5-3.12l1.97-1.64z" fill="#CCCDCF"/><path d="M968 439c3.91 1.27 5.79 2.51 8 6-4 0-5.8-1.73-9-4z" fill="#E9E9EB"/><path d="M745 326c3.54 3.69 3.59 7.09 4 12-2-1-2-1-3.12-3.19-.96-3.08-1.03-5.6-.88-8.81" fill="#ECECEE"/><path d="m729 298 4 1 2 7-2 1z" fill="#DEE1E1"/><path d="m491 665 1.81 2.31A58 58 0 0 0 498 673c-4 0-4 0-6.31-1.75-1.69-2.25-1.69-2.25-1.44-4.5z" fill="#D3D5D6"/><path d="m768 458-10 3v-3c5.5-2.25 5.5-2.25 10 0" fill="#DDE0DE"/><path d="m473.13 455.44 3.88.3 3 .26v1l-15 1-1-2c3.05-1.52 5.75-.84 9.12-.56" fill="#C4C6C9"/><path d="M761 446c2 3 2 3 1.81 6.56C762 456 762 456 759 458z" fill="#EEF1EF"/><path d="m511 316 3 1-4 9-2-1z" fill="#DEE1E2"/><path d="M973 509q3.6 4.42 7 9c-3.23-.56-5.07-1.29-7-4-.19-2.69-.19-2.69 0-5" fill="#D3D4D6"/><path d="m929 471 7 1 1 4-2.31-.94q-2.82-1.1-5.69-2.06z" fill="#EBEDF0"/><path d="m544 687 3 2-2 11h-1q-.3-2.12-.56-4.25l-.32-2.39c-.12-2.37.18-4.11.88-6.36" fill="#1C1E20"/><path d="m556 666 1 2c-2.69 2.69-5.38 3.06-9 4 4.62-4.88 4.62-4.88 8-6" fill="#E3E6E3"/><path d="M985 453c2.89.4 3.82.79 5.75 3.06L992 458l-3 1a89 89 0 0 1-4-4z" fill="#D7D8D9"/><path d="M752 345c2.13 3.19 2.5 5.27 3 9l-2 1c-1.84-3.78-2.16-5.95-1-10" fill="#DBDEDD"/><path d="M618 689h2l-1 7h-3c-.12-2.38-.12-2.38 0-5z" fill="#E9EBEC"/><path d="M760 619c0 3.6-.96 5.09-3 8h-2c.54-3.8 2.2-5.47 5-8" fill="#E0E2E1"/><path d="m762 614 3 1-3 4-4-1z" fill="#202322"/><path d="M506 235c3.37 1.39 4.99 2.98 7 6-3.53 0-4.47-.64-7-3z" fill="#D2D4D5"/><path d="m488 658 2 1c.59 2.65.74 5.29 1 8h-2l-1.06-3.94-.6-2.21L487 659z" fill="#EDEFEF"/><path d="m492 617 1.31 1.44C495 620 495 620 498 621l1 3c-3 0-3 0-5.19-1.81C492 620 492 620 492 617" fill="#1B1D1D"/><path d="M761 439h1l2 9-4 1z" fill="#D1D3D2"/><path d="M724 15c-1.25 3.74-2.63 4.19-6 6v-4c3.75-2 3.75-2 6-2" fill="#DADBDE"/><path d="M748 7a16 16 0 0 1 4 3v2l-7-2V8z" fill="#DCDCDF"/><path d="M491 655c1.46 2.92 2.34 4.92 3 8l-3 2z" fill="#2A2C2D"/><path d="m707 29 3 2c-5.75 4-5.75 4-8 4 1.13-3.4 2.13-4.05 5-6" fill="#1C1D1F"/><path d="M539 21c3.88 1.75 3.88 1.75 5 4l3 1-1 3c-2.65-2.58-4.94-4.92-7-8" fill="#E8EBE9"/></svg>