<svg style="background:transparent" version="1.1" xmlns="http://www.w3.org/2000/svg" viewBox="0 0 1248 704"><path d="M516.39 30.85c9.55 5.05 18.37 10.9 27.05 17.3a101 101 0 0 0 6.69 4.4 77 77 0 0 1 8.25 5.89 97 97 0 0 0 12.36 8.2c2.95 1.77 5.62 3.87 8.35 5.95 3.9 1.89 7.38 1.68 11.6 1.49l2.58-.08 5.46-.2q5.71-.21 11.44-.38l5.74-.18q11.76-.37 23.53-.36l3.36-.01a162 162 0 0 1 14.78.6c13.57 1.28 13.57 1.28 19.24-2.6A90 90 0 0 0 681 67q1.65-1.38 3.32-2.75L687 62l5-3c4.83-3.03 9.65-6.07 14.38-9.25q2.37-1.59 4.82-3.04c3.5-2.13 6.9-4.42 10.3-6.71 16.66-11.21 16.66-11.21 27.5-10 6.25 1.98 9.8 5.07 13.69 10.25 2.94 6.15 3.43 11.09 2.3 17.75-.1 2.9-.04 5.79 0 8.69.15 7.9.15 7.9-1 11.3-.06 3.3.02 6.59.08 9.88-.07 3.13-.07 3.13-.55 5-1.11 4.6-.92 9.46-1.08 14.16l-.13 3.73c-.5 15.9-.38 31.82-.31 47.74l.06 16.06q0 3.18.03 6.34v3.85l.03 3.38c-.1 2.5-.46 4.48-1.12 6.87a188 188 0 0 0 0 7.5l.06 4.5.1 7.02c.33 16.92.33 16.92-3.16 23.98l-.9 1.88c-2.26 4.29-5.15 7.7-8.47 11.18l-1.47 1.57L743 257l-1.98 2.1A92 92 0 0 1 737 263h-2l-.75 1.83c-1.44 2.52-2.71 3.4-5.18 4.86l-2.1 1.26C725 272 725 272 722 273c3.46 10.54 8.45 20.17 13.6 29.94l1.37 2.57 2.66 5c2 3.78 3.86 7.49 5.37 11.49q1.93 4.2 3.88 8.38c.96 2.25 1.6 4.25 2.12 6.62a124 124 0 0 0 5.07 15.06A72 72 0 0 1 760 366q.52 2.4 1.07 4.8.22 1.07.47 2.16.44 1.95.95 3.9c2.89 12 3.82 24.62 4.22 36.92.2 6.05.2 6.05 1.29 8.22l1.87-1.02c12.67-6.67 23.23-6.63 37.18-4.62 8.09 1.1 16.22 1.8 24.34 2.59 18.59 1.8 18.59 1.8 23.36 3.55 2.74.99 5.43 1.8 8.25 2.5 3.03.93 6 1.96 9 3l2.25.7c8.23 2.85 15 8 22 13.05q2.1 1.48 4.2 2.92A63 63 0 0 1 919 465l1.88 3.13c2.72 4.79 4.93 9.82 7.12 14.87l.92 2.06c3.94 9.55 4.29 19.75 4.77 29.94l.15 3.08.1 2.92q.07 1.3.12 2.63A25 25 0 0 1 933 530l-.43 3.88c-.77 6.3-3.25 11.89-5.63 17.74-.94 2.38-.94 2.38-1.87 5.57-1.13 2.98-2.68 5.24-4.6 7.77-1.71 2.39-3.16 4.89-4.65 7.42-3.21 5.1-6.95 8.75-11.54 12.63a34 34 0 0 0-4.9 5.18c-4.5 5.33-10.05 8.94-16.38 11.8a89 89 0 0 0-6.34 3.38c-6.98 4.05-13.9 6.5-21.66 8.63l-2.95.88a74 74 0 0 1-14.98 2.9c-2.07.22-2.07.22-4.45.7-12.18 2.4-25.37 2.3-37.62.52q-4.62-.39-9.26-.72A42 42 0 0 1 779 617q-2.25-.4-4.5-.7l-2.28-.31c-4.67.03-8.58 3.34-12.22 6l-2.43 2.95a27 27 0 0 1-6.38 5.8q-1.56 1.12-3.2 2.26v2q2.13 1.48 4.29 2.87c7.22 4.73 10.53 9.86 12.72 18.13.32 4.53.33 8.06-2 12-8.77 8.88-17.4 8.99-29.5 9.13q-2.74-.04-5.5-.13l-3.22-.08c-6.47-.32-11.75-1.27-17.66-3.98-2.71-1.2-5.14-1.94-8.12-1.94l1.36 1.07c7.99 6.52 11 11.38 12.48 21.75.17 3.25-.12 6-.84 9.18-1 1-1 1-3.93 1.12h-6.17l-7.18-.02h-4.97l-13.12-.03-13.37-.02L637 704c-2.67-6.6-4.05-12.94-5-20l-.62-2.06c-.54-2.81.08-5.14.62-7.94l.5-3.62c.5-3.38.5-3.38 1.5-7.38h-15l.49 3.9c.54 4.88.73 9.7.76 14.6l.07 2.4c.04 6.57-.82 12.89-4.94 18.2-3.23 2.59-5.3 2.4-9.41 2.4l-2.12.02-6.92-.02h-4.81q-5.03 0-10.07-.03-6.46-.04-12.93-.01-4.97 0-9.93-.02h-4.76q-3.33 0-6.65-.03l-3.83-.02-2.95-.4c-2.5-3.73-2.51-6.65-2-11 1.6-5.96 4.59-10.87 8-16-2.12-1.61-2.12-1.61-5-3-2.75.76-2.75.76-6 2-14.27 2.4-31.88 3.45-44.18-5.24-4.04-6.12-4.23-11.7-2.82-18.75 3-8.5 10.66-12.65 18-17-5.4-4.6-5.4-4.6-7.72-6.17-5.6-3.84-9.95-8.6-14.44-13.63a99 99 0 0 0-10.32-9.88 27 27 0 0 1-4.45-5.01q-.74-1-1.47-2.05L467 596l-1.94-2.57a125 125 0 0 1-12.94-21.2c-3.92-7.87-7.22-15.6-9.12-24.23l-.54-2.43-1-4.54c-.46-2.03-.46-2.03-1.52-5.22-1.2-4.82-1.42-9.55-1.7-14.5-.24-3.31-.24-3.31-.76-5.84-.58-3-.61-5.84-.6-8.91l-.01-3.3A66 66 0 0 1 438 494l.25-3.12c2.2-11.41 7.78-23.23 17.13-30.32 10.1-6.71 19.47-8.15 31.58-6.04l2.04.48c.17-3.88.04-7.18-.93-10.94-1.38-5.96-1.8-11.96-2.25-18.06l-.3-3.4c-.48-6.4-.42-12.24.48-18.6v-3.31c0-2.7 0-2.7.48-4.55.58-2.35.78-4.6.96-7.01A45 45 0 0 1 490 378l.67-5.9a46 46 0 0 1 2.38-8.34c1.25-3.62 2.38-7.28 3.52-10.95a235 235 0 0 1 15.42-37.82q2.53-4.98 5-10c6-12 6-12 7.06-13.97 1.92-3.71 3.24-6.87 3.95-11.02l2-3q.59-2.48 1-5l-1.62-.75c-6.18-3.25-10.98-7.46-16-12.25l-2-1.86-3.75-3.6q-1.9-1.79-3.9-3.5c-2.47-2.91-3.6-6.22-4.85-9.8l-.76-2.04c-3-8.22-4.4-15.3-4.18-24.07q.06-2.54.09-5.06l.06-2.22a99 99 0 0 0-.58-7.51c-.56-5.3-.62-10.52-.57-15.84v-2.92l.06-9.14.07-12.07.02-2.74c.02-4.95-.25-9.74-.86-14.66a57 57 0 0 1-.3-7.27l.04-2.75.03-2.82c.05-6.66-.01-13.18-.78-19.8a85 85 0 0 1-.15-10.23C491 97 491 97 490 94c-.07-3.26 0-6.51.07-9.77-.06-2.91-.46-5.4-1.07-8.23v-8l-.48-2.35c-1.92-9.84-.83-18.3 4.42-26.77 5.57-6.18 15.3-10.92 23.45-8.03M688.99 665l2 2v-2zm3 0v2l2-1zm-130 0-2 2h3zm-10.17 5-2.17 1.13-1.65.87 3 3a72 72 0 0 0 8-7c-3.2 0-4.41.55-7.18 2" fill="#141715"/><path d="M516.39 30.85c9.55 5.05 18.37 10.9 27.05 17.3a101 101 0 0 0 6.69 4.4 77 77 0 0 1 8.25 5.89 97 97 0 0 0 12.36 8.2c2.95 1.77 5.62 3.87 8.35 5.95 3.9 1.89 7.38 1.68 11.6 1.49l2.58-.08 5.46-.2q5.71-.21 11.44-.38l5.74-.18q11.76-.37 23.53-.36l3.36-.01a162 162 0 0 1 14.78.6c13.57 1.28 13.57 1.28 19.24-2.6A90 90 0 0 0 681 67q1.65-1.38 3.32-2.75L687 62l5-3c4.83-3.03 9.65-6.07 14.38-9.25q2.37-1.59 4.82-3.04c3.5-2.13 6.9-4.42 10.3-6.71 16.66-11.21 16.66-11.21 27.5-10 6.25 1.98 9.8 5.07 13.69 10.25 2.94 6.15 3.43 11.09 2.3 17.75-.1 2.9-.04 5.79 0 8.69.15 7.9.15 7.9-1 11.3-.06 3.3.02 6.59.08 9.88-.07 3.13-.07 3.13-.55 5-1.11 4.6-.92 9.46-1.08 14.16l-.13 3.73c-.5 15.9-.38 31.82-.31 47.74l.06 16.06q0 3.18.03 6.34v3.85l.03 3.38c-.1 2.5-.46 4.48-1.12 6.87a188 188 0 0 0 0 7.5l.06 4.5.1 7.02c.33 16.92.33 16.92-3.16 23.98l-.9 1.88c-2.26 4.29-5.15 7.7-8.47 11.18l-1.47 1.57L743 257l-1.98 2.1A92 92 0 0 1 737 263h-2l-.75 1.83c-1.44 2.52-2.71 3.4-5.18 4.86l-2.1 1.26C725 272 725 272 722 273c3.46 10.54 8.45 20.17 13.6 29.94l1.37 2.57 2.66 5c2 3.78 3.86 7.49 5.37 11.49q1.93 4.2 3.88 8.38c.96 2.25 1.6 4.25 2.12 6.62a124 124 0 0 0 5.07 15.06A72 72 0 0 1 760 366q.52 2.4 1.07 4.8.22 1.07.47 2.16.44 1.95.95 3.9c2.89 12 3.82 24.62 4.22 36.92.2 6.05.2 6.05 1.29 8.22l1.87-1.02c12.67-6.67 23.23-6.63 37.18-4.62 8.09 1.1 16.22 1.8 24.34 2.59 18.59 1.8 18.59 1.8 23.36 3.55 2.74.99 5.43 1.8 8.25 2.5 3.03.93 6 1.96 9 3l2.25.7c8.23 2.85 15 8 22 13.05q2.1 1.48 4.2 2.92A63 63 0 0 1 919 465l1.88 3.13c2.72 4.79 4.93 9.82 7.12 14.87l.92 2.06c3.94 9.55 4.29 19.75 4.77 29.94l.15 3.08.1 2.92q.07 1.3.12 2.63A25 25 0 0 1 933 530l-.43 3.88c-.77 6.3-3.25 11.89-5.63 17.74-.94 2.38-.94 2.38-1.87 5.57-1.13 2.98-2.68 5.24-4.6 7.77-1.71 2.39-3.16 4.89-4.65 7.42-3.21 5.1-6.95 8.75-11.54 12.63a34 34 0 0 0-4.9 5.18c-4.5 5.33-10.05 8.94-16.38 11.8a89 89 0 0 0-6.34 3.38c-6.98 4.05-13.9 6.5-21.66 8.63l-2.95.88a74 74 0 0 1-14.98 2.9c-2.07.22-2.07.22-4.45.7-12.18 2.4-25.37 2.3-37.62.52q-4.62-.39-9.26-.72A42 42 0 0 1 779 617q-2.25-.4-4.5-.7l-2.28-.31c-4.67.03-8.58 3.34-12.22 6l-2.43 2.95a27 27 0 0 1-6.38 5.8q-1.56 1.12-3.2 2.26v2q2.13 1.48 4.29 2.87c7.22 4.73 10.53 9.86 12.72 18.13.32 4.53.33 8.06-2 12-8.77 8.88-17.4 8.99-29.5 9.13q-2.74-.04-5.5-.13l-3.22-.08c-6.47-.32-11.75-1.27-17.66-3.98-2.71-1.2-5.14-1.94-8.12-1.94l1.36 1.07c7.99 6.52 11 11.38 12.48 21.75.17 3.24-.18 6.02-.84 9.18l-4 1 .14-3.22c.32-10.2-.23-16.65-7.26-24.47-4.05-3.84-8.8-6.1-13.88-8.31v-8a33 33 0 0 1 8.38 4.3c12.04 7.72 25.73 8.88 39.62 8.89q1.4 0 2.83.04c7.15 0 13.98-.34 20.24-4.04 3.13-5.16 2.7-10.31 1.93-16.2-1.78-6.1-6.92-10.45-12-14a53 53 0 0 0-8-3v-2a133 133 0 0 1 5.75-3.93c7.85-5.22 14.6-11.41 21.25-18.06 2.73.16 5.3.43 8 .8l9 1.2 2.13.29c37.4 4.38 75.44.46 106.44-22.54 20.28-16.51 34.24-39.41 37.25-65.63 2.02-23.61-2.94-47.88-18.5-66.41A167 167 0 0 0 903 451l-1.95-1.98c-22-20.85-55.55-26.2-84.57-28.53l-6.72-.57c-29.57-2.51-29.57-2.51-37.2 3.58-3.33 3.25-3.72 4.73-3.81 9.25.09 5.35 1.02 8.79 4.69 12.84 6.44 6.1 13.78 7.35 22.28 8.85l2.25.39a384 384 0 0 0 15.82 2.38l2.2.3a892 892 0 0 0 8.86 1.14c21.84 2.74 41.6 9.3 56.03 26.85 8.9 12.02 9.1 25.06 8.12 39.5-2.38 14.26-11.44 27.67-23 36.23A92 92 0 0 1 843 572l-1.82.57c-7 1.88-14.07 1.7-21.25 1.64q-3.29-.03-6.55-.02c-11.58-.04-11.58-.04-16.38-1.2a58 58 0 0 1 3.02-9.21c10.08-25.68 17.08-58.97 6.92-85.57-4.6-10.03-10.73-16.05-20.94-20.21-9.5-3.16-19.04-.61-28 3l.26-1.97 1.18-8.97.4-3.1q.41-3.05.8-6.12l.68-5.04c2.48-18.95 2.02-40.2-2.32-58.8l-.58-2.61c-5.68-24.8-15-47.72-26.42-70.4l-1.25-2.47-2.23-4.44c-9.74-19.35-9.74-19.35-8.52-25.08 3.24-2.83 6.75-5.27 10.25-7.75C744.1 254.17 753.6 243.2 757 226c.18-2.74.28-5.4.27-8.13l.02-2.35.02-5.05q0-4.1.04-8.17l.06-11.74q.08-15.48.24-30.94l.03-3.14c.26-24.12 1.23-48.18 2.4-72.26q.5-10.11.92-20.22l.15-3.03a518 518 0 0 0 .26-7.91l.1-2.18c.08-5.71-2.03-9.54-5.51-13.88-4.3-3.35-9.08-3.84-14.41-3.62-4.14.72-7.27 2.28-10.83 4.39l-2.08 1.2c-8.72 5.1-17.03 10.83-25.36 16.53l-4.8 3.26-8.9 6.07-2.21 1.47C685 68 685 68 682.27 70.32c-9.65 7.74-18.3 8.19-30.38 8.34l-5.83.15q-6.08.13-12.17.18-6.17.06-12.34.29c-42.65 1.58-42.65 1.58-61.36-15.34a75 75 0 0 0-9.51-6.9l-5.8-3.98C514.63 32.45 514.63 32.45 506 34c-5.77 2.54-10.15 6.3-13 12-.23 3.28-.16 6.58-.15 9.87v3.09c.08 11.5.72 22.97 1.38 34.44q.54 9.63 1.04 19.27l.2 3.8c.5 9.68.92 19.35 1.16 29.03l.05 2.07c.22 9.09.35 18.17.48 27.26l.23 15.84.13 11.63.1 7.24.03 3.32c.24 15.08 2.96 29.68 13.83 40.8A152 152 0 0 0 534 271c-.64 5.4-2.36 10.1-4.37 15.13l-1.06 2.65a158 158 0 0 1-9.07 18.28c-25.08 44.2-36.1 96.64-25.86 146.74.36 2.2.36 2.2.36 6.2l-2.23-.65c-12-3.3-21.8-3.65-32.9 2.34-10.55 8.49-14.55 18.2-16.87 31.3-.41 4.63-.47 9.19-.43 13.82l.02 3.8c.6 35.28 13.25 66.87 36.4 93.39l2.57 2.96c9.8 11.16 20.88 20.14 33.44 28.04a346 346 0 0 1-6.11 3 35.4 35.4 0 0 0-15.32 14.44c-1.1 4.99-1.32 9.64.56 14.44 3.73 4.22 8.8 5.92 14.3 6.28 20.32.32 37.75-1.46 55.57-12.16h2v8l-1.97.92c-8.15 3.9-14.15 7.66-18.12 16.04-1.75 5.89-1.27 11.96-.91 18.04h-3c-2.5-3.74-2.51-6.66-2-11 1.6-5.97 4.59-10.88 8-16-2.12-1.62-2.12-1.62-5-3-2.75.75-2.75.75-6 2-14.27 2.4-31.88 3.44-44.18-5.25-4.04-6.12-4.23-11.7-2.82-18.75 3-8.5 10.66-12.65 18-17-5.4-4.6-5.4-4.6-7.72-6.17-5.6-3.84-9.95-8.6-14.44-13.63a99 99 0 0 0-10.32-9.88 27 27 0 0 1-4.45-5.01q-.74-1-1.47-2.05L467 596l-1.94-2.57a125 125 0 0 1-12.94-21.2c-3.92-7.87-7.22-15.6-9.12-24.23l-.54-2.43-1-4.54c-.46-2.03-.46-2.03-1.52-5.22-1.2-4.82-1.42-9.55-1.7-14.5-.24-3.31-.24-3.31-.76-5.84-.58-3-.61-5.84-.6-8.91l-.01-3.3A66 66 0 0 1 438 494l.25-3.12c2.2-11.41 7.78-23.23 17.13-30.32 10.1-6.71 19.47-8.15 31.58-6.04l2.04.48c.17-3.88.04-7.18-.93-10.94-1.38-5.96-1.8-11.96-2.25-18.06l-.3-3.4c-.48-6.4-.42-12.24.48-18.6v-3.31c0-2.7 0-2.7.48-4.55.58-2.35.78-4.6.96-7.01A45 45 0 0 1 490 378l.67-5.9a46 46 0 0 1 2.38-8.34c1.25-3.62 2.38-7.28 3.52-10.95a235 235 0 0 1 15.42-37.82q2.53-4.98 5-10c6-12 6-12 7.06-13.97 1.92-3.71 3.24-6.87 3.95-11.02l2-3q.59-2.48 1-5l-1.62-.75c-6.18-3.25-10.98-7.46-16-12.25l-2-1.86-3.75-3.6q-1.9-1.79-3.9-3.5c-2.47-2.91-3.6-6.22-4.85-9.8l-.76-2.04c-3-8.22-4.4-15.3-4.18-24.07q.06-2.54.09-5.06l.06-2.22a99 99 0 0 0-.58-7.51c-.56-5.3-.62-10.52-.57-15.84v-2.92l.06-9.14.07-12.07.02-2.74c.02-4.95-.25-9.74-.86-14.66a57 57 0 0 1-.3-7.27l.04-2.75.03-2.82c.05-6.66-.01-13.18-.78-19.8a85 85 0 0 1-.15-10.23C491 97 491 97 490 94c-.07-3.26 0-6.51.07-9.77-.06-2.91-.46-5.4-1.07-8.23v-8l-.48-2.35c-1.92-9.84-.83-18.3 4.42-26.77 5.57-6.18 15.3-10.92 23.45-8.03M688.99 665l2 2v-2zm3 0v2l2-1zm-130 0-2 2h3zm-10.17 5-2.17 1.13-1.65.87 3 3a72 72 0 0 0 8-7c-3.2 0-4.41.55-7.18 2" fill="#EBECEE"/><path d="M578 496h2a34 34 0 0 1 3 3.44c9.73 11.28 23.23 22.61 38.73 23.76 16.7.27 30.19-6.69 42.15-18.01q2.92-3.02 5.62-6.25L672 496h2a28.5 28.5 0 0 1-3.94 11.69l-1.59 2.82q-1.66 2.79-3.47 5.49h-2l-.72 1.75c-4.18 7.33-13.67 12.21-21.28 15.25h-2l.18 2.01a609 609 0 0 1 2.13 54.37v3.92c-.07 57.21-.07 57.21-4.31 65.7h-22c-7.24-40.88-5.3-84.76-2-126l-2.27-1.03c-13.71-6.49-25.49-15.8-31.73-29.97-.81-3.56-.81-3.56-1-6" fill="#000"/><path d="M516.39 30.85c9.55 5.05 18.37 10.9 27.05 17.3a101 101 0 0 0 6.69 4.4 77 77 0 0 1 8.25 5.89 97 97 0 0 0 12.36 8.2c2.95 1.77 5.62 3.87 8.35 5.95 3.9 1.89 7.38 1.68 11.6 1.49l2.58-.08 5.46-.2q5.71-.21 11.44-.38l5.74-.18q11.76-.37 23.53-.36l3.36-.01a162 162 0 0 1 14.78.6c13.57 1.28 13.57 1.28 19.24-2.6A90 90 0 0 0 681 67q1.65-1.38 3.32-2.75L687 62l5-3c4.83-3.03 9.65-6.07 14.38-9.25q2.37-1.59 4.82-3.04c3.5-2.13 6.9-4.42 10.3-6.71 16.66-11.21 16.66-11.21 27.5-10 6.25 1.98 9.8 5.07 13.69 10.25 2.94 6.15 3.43 11.09 2.3 17.75-.1 2.9-.04 5.79 0 8.69.15 7.9.15 7.9-1 11.3-.06 3.3.02 6.59.08 9.88-.07 3.13-.07 3.13-.55 5-1.11 4.6-.92 9.46-1.08 14.16l-.13 3.73c-.5 15.9-.38 31.82-.31 47.74l.06 16.06q0 3.18.03 6.34v3.85l.03 3.38c-.1 2.5-.46 4.48-1.12 6.87a188 188 0 0 0 0 7.5l.06 4.5.1 7.02c.33 16.92.33 16.92-3.16 23.98l-.9 1.88c-2.26 4.29-5.15 7.7-8.47 11.18l-1.48 1.57L743 257l-1.87 2.07c-2.85 3.07-4.87 4.68-9.13 4.93a107 107 0 0 1 8.94-8.25c8.79-7.65 13.83-18.43 16.06-29.75.18-2.74.28-5.4.27-8.13l.02-2.35.02-5.05q0-4.1.04-8.17l.06-11.74q.08-15.48.24-30.94l.03-3.14c.26-24.12 1.23-48.18 2.4-72.26q.5-10.11.92-20.22l.15-3.03a518 518 0 0 0 .26-7.91l.1-2.18c.08-5.71-2.03-9.54-5.51-13.88-4.3-3.35-9.08-3.84-14.41-3.62-4.14.72-7.27 2.28-10.83 4.39l-2.08 1.2c-8.72 5.1-17.03 10.83-25.36 16.53l-4.8 3.26-8.9 6.07-2.21 1.47C685 68 685 68 682.27 70.32c-9.65 7.74-18.3 8.19-30.38 8.34l-5.83.15q-6.08.13-12.17.18-6.17.06-12.34.29c-42.65 1.58-42.65 1.58-61.36-15.34a75 75 0 0 0-9.51-6.9l-5.8-3.98C514.63 32.45 514.63 32.45 506 34c-5.77 2.54-10.15 6.3-13 12-.23 3.28-.16 6.58-.15 9.87v3.09c.08 11.5.72 22.97 1.38 34.44q.54 9.63 1.04 19.27l.2 3.8c.5 9.68.92 19.35 1.16 29.03l.05 2.07c.22 9.09.35 18.17.48 27.26l.23 15.84.13 11.63.1 7.24.03 3.32c.24 15.08 2.96 29.68 13.83 40.8A152 152 0 0 0 534 271c-.64 5.4-2.36 10.1-4.37 15.13l-1.06 2.65a158 158 0 0 1-9.07 18.28c-25.08 44.2-36.1 96.64-25.86 146.74.36 2.2.36 2.2.36 6.2l-2.23-.65c-12-3.3-21.8-3.65-32.9 2.34-10.55 8.49-14.55 18.2-16.87 31.3-.41 4.63-.47 9.19-.43 13.82l.02 3.8c.6 35.28 13.25 66.87 36.4 93.39l2.57 2.96c9.8 11.16 20.88 20.14 33.44 28.04a346 346 0 0 1-6.11 3 35.4 35.4 0 0 0-15.32 14.44c-1.1 4.99-1.32 9.64.56 14.44 3.73 4.22 8.8 5.92 14.3 6.28 20.32.32 37.75-1.46 55.57-12.16h2v8l-1.97.92c-8.15 3.9-14.15 7.66-18.12 16.04-1.75 5.89-1.27 11.96-.91 18.04h-3c-2.5-3.74-2.51-6.66-2-11 1.6-5.97 4.59-10.88 8-16-2.12-1.62-2.12-1.62-5-3-2.75.75-2.75.75-6 2-14.27 2.4-31.88 3.44-44.18-5.25-4.04-6.12-4.23-11.7-2.82-18.75 3-8.5 10.66-12.65 18-17-5.4-4.6-5.4-4.6-7.72-6.17-5.6-3.84-9.95-8.6-14.44-13.63a99 99 0 0 0-10.32-9.88 27 27 0 0 1-4.45-5.01q-.74-1-1.47-2.05L467 596l-1.94-2.57a125 125 0 0 1-12.94-21.2c-3.92-7.87-7.22-15.6-9.12-24.23l-.54-2.43-1-4.54c-.46-2.03-.46-2.03-1.52-5.22-1.2-4.82-1.42-9.55-1.7-14.5-.24-3.31-.24-3.31-.76-5.84-.58-3-.61-5.84-.6-8.91l-.01-3.3A66 66 0 0 1 438 494l.25-3.12c2.2-11.41 7.78-23.23 17.13-30.32 10.1-6.71 19.47-8.15 31.58-6.04l2.04.48c.17-3.88.04-7.18-.93-10.94-1.38-5.96-1.8-11.96-2.25-18.06l-.3-3.4c-.48-6.4-.42-12.24.48-18.6v-3.31c0-2.7 0-2.7.48-4.55.58-2.35.78-4.6.96-7.01A45 45 0 0 1 490 378l.67-5.9a46 46 0 0 1 2.38-8.34c1.25-3.62 2.38-7.28 3.52-10.95a235 235 0 0 1 15.42-37.82q2.53-4.98 5-10c6-12 6-12 7.06-13.97 1.92-3.71 3.24-6.87 3.95-11.02l2-3q.59-2.48 1-5l-1.62-.75c-6.18-3.25-10.98-7.46-16-12.25l-2-1.86-3.75-3.6q-1.9-1.79-3.9-3.5c-2.47-2.91-3.6-6.22-4.85-9.8l-.76-2.04c-3-8.22-4.4-15.3-4.18-24.07q.06-2.54.09-5.06l.06-2.22a99 99 0 0 0-.58-7.51c-.56-5.3-.62-10.52-.57-15.84v-2.92l.06-9.14.07-12.07.02-2.74c.02-4.95-.25-9.74-.86-14.66a57 57 0 0 1-.3-7.27l.04-2.75.03-2.82c.05-6.66-.01-13.18-.78-19.8a85 85 0 0 1-.15-10.23C491 97 491 97 490 94c-.07-3.26 0-6.51.07-9.77-.06-2.91-.46-5.4-1.07-8.23v-8l-.48-2.35c-1.92-9.84-.83-18.3 4.42-26.77 5.57-6.18 15.3-10.92 23.45-8.03M561.99 665l-2 2h3zm-10.17 5-2.17 1.13-1.65.87 3 3a72 72 0 0 0 8-7c-3.2 0-4.41.55-7.18 2" fill="#E1E2E3"/><path d="m861 424 2.79.77A64 64 0 0 1 877 430l3.19 1.19c6.42 2.69 11.98 7.5 17.33 11.88a27 27 0 0 0 4.94 3.31c3.23 2.06 5.63 4.66 8.16 7.5l1.45 1.56A50 50 0 0 1 919 465l1.88 3.12c2.72 4.8 4.93 9.82 7.12 14.88l.91 2.06c3.94 9.55 4.3 19.75 4.78 29.94l.14 3.08.12 2.92.1 2.62A25 25 0 0 1 933 530l-.44 3.88c-.76 6.3-3.24 11.89-5.63 17.73-.93 2.39-.93 2.39-1.87 5.58-1.12 2.97-2.67 5.24-4.59 7.77-1.72 2.38-3.16 4.88-4.66 7.42-3.2 5.11-6.94 8.75-11.53 12.63a34 34 0 0 0-4.9 5.18c-4.5 5.33-10.05 8.93-16.38 11.81a89 89 0 0 0-6.34 3.37c-6.99 4.05-13.89 6.51-21.66 8.63l-2.95.88c-5 1.45-9.79 2.49-14.98 2.91-2.07.21-2.07.21-4.46.7-12.18 2.38-25.36 2.29-37.61.51q-4.63-.38-9.27-.72A42 42 0 0 1 779 617q-2.24-.39-4.5-.69l-2.28-.32c-4.67.02-8.58 3.34-12.22 6.01l-2.44 2.94a28 28 0 0 1-6.37 5.81L748 633v2q2.11 1.47 4.28 2.87c7.22 4.73 10.53 9.86 12.72 18.13.32 4.52.33 8.05-2 12-8.77 8.88-17.41 8.98-29.5 9.12q-2.75-.03-5.5-.12l-3.22-.09c-6.48-.31-11.75-1.26-17.66-3.97-2.72-1.2-5.14-1.94-8.12-1.94l1.36 1.07c7.98 6.52 11.01 11.38 12.48 21.75.16 3.23-.18 6.01-.84 9.18l-4 1 .14-3.22c.32-10.2-.23-16.65-7.26-24.47-4.06-3.85-8.8-6.09-13.88-8.31v-8a33 33 0 0 1 8.38 4.31c12.04 7.7 25.72 8.87 39.62 8.88l2.83.03c7.14.02 13.98-.33 20.23-4.03 3.14-5.17 2.7-10.32 1.94-16.19-1.78-6.1-6.92-10.47-12-14a54 54 0 0 0-8-3v-2q2.81-2.04 5.75-3.94c7.84-5.22 14.6-11.41 21.25-18.06 2.72.16 5.31.43 8 .81l9 1.19 2.12.28c37.4 4.39 75.45.47 106.44-22.53 20.29-16.51 34.25-39.41 37.26-65.64 2.02-23.61-2.94-47.87-18.5-66.4A167 167 0 0 0 903 451l-1.95-1.98C885.73 434.5 862.66 426.35 842 424v-1c6.87-2.96 12.05-1.1 19 1M689 665l2 2v-2zm3 0v2l2-1z" fill="#E2E3E4"/><path d="M738 470h1c.42 9.87-.68 19.62-1.73 29.42l-.5 4.85a148 148 0 0 1-5.17 26.55q-.98 3.6-1.84 7.22c-4.6 18.71-10.91 36.81-17.7 54.83-7.71 20.49-14.07 42.81-14.92 64.77-.13 2.25-.52 4.2-1.14 6.36-3.9-.58-6.2-2.27-9-5-4.89-26.56 15.9-68 24.82-92.59a448 448 0 0 0 11.5-35.94q1.03-3.69 2.13-7.34a480 480 0 0 0 8.36-32.57l.47-2.06A306 306 0 0 0 738 470" fill="#000201"/><path d="M513 473c2.53 2.53 2.63 4.19 3.33 7.69l.73 3.56.75 3.75c3.64 18.16 8.92 35.66 14.69 53.25l1.84 5.64q4.45 13.7 9.18 27.3l.86 2.45.84 2.42c21.31 61.15 21.31 61.15 19.78 80.94-2.31 2.44-2.31 2.44-5 4h-3c-.94-3.98-1.27-7.92-1.59-11.99-1.69-20.79-7.58-39.36-14.41-59.01l-1.05-3.02-3.92-11.26a2519 2519 0 0 1-8.89-25.88c-4.56-13.59-7.62-27.32-9.95-41.44l-1.16-6.8A239 239 0 0 1 513 473" fill="#010201"/><path d="M752.75 31.19c5.74 3.2 9.92 7.58 11.91 13.92 1.21 4.77 1.16 8 .34 12.89-.1 2.9-.05 5.79 0 8.69.13 7.9.13 7.9-1 11.3-.07 3.3 0 6.59.06 9.88-.06 3.13-.06 3.13-.54 5-1.12 4.6-.92 9.46-1.08 14.16l-.13 3.73c-.49 15.9-.38 31.82-.31 47.74l.09 22.4.01 3.85.01 3.38A29 29 0 0 1 761 195a188 188 0 0 0 .01 7.5l.05 4.5q.04 3.51.11 7.02c.32 16.92.32 16.92-3.17 23.98l-.9 1.88c-2.26 4.29-5.16 7.7-8.47 11.19l-1.48 1.56L743 257l-1.87 2.07c-2.85 3.07-4.87 4.68-9.13 4.93a107 107 0 0 1 8.94-8.25c8.79-7.65 13.83-18.43 16.06-29.75.18-2.74.28-5.4.27-8.13l.02-2.35.02-5.05q0-4.1.03-8.17l.07-11.74q.07-15.48.24-30.94l.03-3.14c.26-24.12 1.22-48.18 2.41-72.26q.5-10.11.91-20.22l.14-3.03q.17-3.95.26-7.9l.11-2.2c.08-5.7-2.04-9.53-5.51-13.87-4.3-3.35-9.08-3.84-14.42-3.62-4.13.72-7.26 2.28-10.83 4.39l-2.08 1.2c-8.71 5.1-17.03 10.83-25.36 16.53l-4.8 3.26-8.89 6.07-2.21 1.46c-2.41 1.7-2.41 1.7-5.16 4.06-9.64 7.76-17.84 7.85-29.89 7.53l-5.6-.04q-7.3-.06-14.59-.22c-4.98-.1-9.96-.13-14.95-.18Q602.61 77.29 588 77v-1l3.08-.01q14.37-.06 28.74-.17l14.77-.1q7.12 0 14.26-.1l5.44-.01q3.8 0 7.62-.06h2.26c4.92-.08 7.31-1.15 10.83-4.55q2.39-1.7 4.81-3.37 4.77-3.3 9.38-6.82A90 90 0 0 1 700 54a76 76 0 0 0 8.37-6 31 31 0 0 1 6.26-3.75c3.64-1.73 6.71-3.9 9.93-6.31 8.65-6.45 17.5-10.13 28.19-6.75" fill="#E4E5E5"/><path d="M516.39 30.85c9.55 5.05 18.37 10.9 27.05 17.3a101 101 0 0 0 6.69 4.4 77 77 0 0 1 8.25 5.89 97 97 0 0 0 12.36 8.2c2.95 1.77 5.62 3.87 8.35 5.95 3.9 1.89 7.38 1.68 11.6 1.49l2.58-.08 5.46-.2q5.71-.21 11.44-.38l5.73-.18c17.7-.56 35.43-.65 53.1.76l1 2-3.07.03-28.7.3q-7.36.1-14.74.17l-14.24.16-5.43.05-7.61.09h-2.26c-3.17.06-6.17.24-9.3.78-3.53.56-4.71-.37-7.6-2.38l-2.84-1.94-3.02-2.13-3.17-2.18-6.64-4.6c-5.46-3.81-11-7.54-16.5-11.3l-3.18-2.15C514.59 32.45 514.59 32.45 506 34c-5.86 2.58-10.12 6.34-13.06 12.08-1.3 4.06-1.4 7.99-1.56 12.23L491 67h-3c-.67-21.9-.67-21.9 6.22-29.54 6.2-5.06 14.19-9.45 22.17-6.61" fill="#E4E5E4"/><path d="m624.75 207.75 3.67-.08A18.6 18.6 0 0 1 638 211c1.13 3.37 1.13 3.37 1 7-2.04 3.27-3.79 4.86-7 7q-1.05 3.49-2 7c-2 2-2 2-4.37 2.37-3.49-.49-4.53-1.59-6.63-4.37l-.44-2.44c-.79-3.62-2.86-5.12-5.56-7.56-2-2-2-2-2.44-4.37.44-2.63.44-2.63 2.81-4.88 4.1-2.73 6.43-2.94 11.38-3" fill="#616363"/><path d="m802 573 2 2h-2l-.33 2.14c-1.86 7.97-6.74 15.31-11.36 21.96-1.31 1.9-1.31 1.9-2.93 4.71-1.38 2.19-1.38 2.19-3.57 4.31C782 610 782 610 782 613q-2.68.04-5.38.06l-3.02.04c-2.6-.1-2.6-.1-4.6-1.1a29 29 0 0 1 4.72-7.33c6.88-8.07 12.56-16.04 17.48-25.44 3-5.38 4.48-6.9 10.8-6.23" fill="#010202"/><path d="m530 277 2 3c-.46 2.01-.46 2.01-1.46 4.32l-1.11 2.6-1.24 2.77-1.26 2.86a168 168 0 0 1-8.49 16.57C497.36 345.19 490.74 386.01 488 427c-4.04-6.05-3.24-14.01-2.25-21 .25-2 .25-2 .25-5.31 0-2.69 0-2.69.47-4.55.58-2.36.78-4.6.97-7.02A45 45 0 0 1 490 378l.67-5.89a47 47 0 0 1 2.37-8.35c1.26-3.62 2.39-7.28 3.52-10.95a235 235 0 0 1 15.43-37.82Q514.52 310 517 305c6-12 6-12 7.04-13.98 1.93-3.71 3.25-6.87 3.96-11.02z" fill="#E5E6E7"/><path d="M767 612c2.6.13 5.05.38 7.62.75l2.33.3q5.44.71 10.89 1.5c12.02 1.65 24.04 2.08 36.16 2.45v1l-13.82.48-4.7.17-6.77.23-2.11.08A38 38 0 0 1 786 618q-2.18-.28-4.38-.5c-2.86-.29-5.59-.68-8.43-1.19-3.45-.34-4.4-.2-7.19 1.69l-2.94 1.75c-3.06 2.25-3.06 2.25-5.5 5.19a28 28 0 0 1-6.37 5.81L748 633v2q2.11 1.47 4.28 2.87c7.75 5.08 10.4 10.31 12.68 18.98.05 2.9-1.08 4.04-2.96 6.15l-.3-1.94c-1.58-9.15-4.36-14.55-11.53-20.55-3.24-2.25-6.4-3.37-10.17-4.51v-2q2.81-2.04 5.75-3.94c7.84-5.22 14.6-11.41 21.25-18.06" fill="#E1E3E2"/><path d="M616 660h20l-.11 5.77-.08 7.61-.07 3.79c-.08 10.18.98 18.61 7.26 26.83h-6c-2.83-6.47-4.06-13.03-5-20l-.62-2.06c-.55-2.81.07-5.15.62-7.94l.5-3.62c.5-3.38.5-3.38 1.5-7.38h-15l.48 3.91c.54 4.87.74 9.69.77 14.59l.06 2.39c.05 6.83-.96 13.36-5.5 18.67L613 704l-3-1 1.4-1.7c5.63-8.09 4.98-18.57 4.79-27.99l-.04-3.89z" fill="#F1F2F4"/><path d="M720 41h2c-1.09 3.28-1.47 3.6-4.21 5.4l-2.06 1.37-2.25 1.46-2.32 1.53q-3.7 2.45-7.41 4.86l-7.28 4.8-4.53 2.98-2.18 1.42-2.28 1.47C685 68 685 68 682.23 70.35c-9.63 7.76-17.81 7.85-29.87 7.53l-5.6-.04q-7.3-.06-14.59-.22-7.47-.13-14.95-.18-14.61-.15-29.22-.44v-1l3.08-.01q14.37-.06 28.74-.17 7.38-.07 14.77-.09 7.12-.03 14.26-.1l5.44-.02q3.8 0 7.62-.06l2.26.01c4.92-.1 7.31-1.16 10.83-4.56q2.39-1.7 4.81-3.38 4.77-3.29 9.38-6.81A90 90 0 0 1 700 54a77 77 0 0 0 8.38-6c2.84-2.17 5.72-3.64 8.95-5.17C719 42 719 42 720 41" fill="#C8C9CB"/><path d="M440 498h1l.03 1.82c.5 26.07 4 49.95 15.79 73.36 1.63 3.31 2.18 5.02 2.18 8.82h-2a596 596 0 0 1-4-8l-1.72-3.48c-3.58-7.38-6.51-14.48-8.28-22.52l-.55-2.43-.98-4.53a79 79 0 0 0-1.53-5.48c-3.01-11.42-3.01-11.42-.94-15.56q.22-2.5.32-5.01l.37-9.27z" fill="#E1E3E3"/><path d="M708.5 190.88C711 193 711 193 712 196l-3.18-.84-4.26-1.1-2.08-.56c-9.03-2.3-16.61-2.78-25.79-.94l-2.78.53a56 56 0 0 0-17.73 6.73C654 201 654 201 651 201c1.51-4.53 4.69-5.4 8.8-7.5 13.18-6.16 35.08-9.93 48.7-2.62" fill="#030503"/><path d="m669 74 1 2-84 1v-2c2.73-1.37 5.01-1.22 8.07-1.32l3.86-.12 4.19-.12 2.15-.07c21.54-.62 43.24-1.18 64.73.63" fill="#F0F2F3"/><path d="M599.67 198.83 601 200l-2 2-2.53-1.83c-3.45-2.3-7.1-3.63-11.03-4.86l-1.96-.64c-12.34-3.98-28.42-5.15-40.48.33l-2.06 1.17C539 197 539 197 536 196c16.98-13.33 47.21-10.68 63.67 2.83" fill="#020403"/><path d="m859 610-1 3c-2.4.91-2.4.91-5.38 1.62l-2.96.73-2.66.65-3 1q-2.18.3-4.38.5c-2.39.23-4.68.51-7.04 1-8.93 1.74-24.85 4.66-32.58-.5v-2l2.77-.01c17.63-.14 34.36-.52 51.41-5.55C856 610 856 610 859 610" fill="#DDDDDF"/><path d="M759 140h1v12l2 1 .05 16.02.03 5.44.02 7.84.01 2.45c0 3.6-.19 6.78-1.11 10.25q-.21 2.7-.32 5.42l-.12 3.11-.25 6.49L760 218h-1z" fill="#F1F2F2"/><path d="m928 489 3 1c1.65 8.34 2.31 16.59 2.69 25.06l.14 3.07.12 2.91.1 2.6c-.05 2.3-.42 4.16-1.05 6.36q-.32 2.12-.56 4.25L932 538l-3 1 .22-2.61c1.21-15.99 1.23-31.52-1.22-47.39" fill="#EDEEF0"/><path d="M763 67h1c1.12 7.62 1.12 7.62 0 11-.07 3.29 0 6.58.06 9.87C764 91 764 91 763.51 92.8c-.66 2.86-.71 5.57-.79 8.5l-.11 3.71-.11 3.87-.22 7.55-.09 3.38A75 75 0 0 1 761 129h-1l-.05-16.49-.03-5.59c-.1-22.27-.1-22.27 1.08-28.92l1-1q.34-2.52.56-5.06l.26-2.79z" fill="#EBEEEC"/><path d="M488 409h1l.14 2.59c1.6 29.72 1.6 29.72 4.27 41.61.59 2.8.59 2.8.59 6.8l-5-1 .55-1.71c.52-2.64.2-4.3-.43-6.91-2.28-9.69-2.16-19.12-1.68-29l.16-3.63q.18-4.37.4-8.75" fill="#D4D6D5"/><path d="M759 106h1l.91 16.76.31 5.7.44 8.2.15 2.56c.22 4.43.13 8.41-.81 12.78h-1l-1 29h-1c-.11-25.02-.19-50 1-75" fill="#B4B5B5"/><path d="M495 169h1v44h-1c-1.71-9.41-2.22-18.63-2.25-28.19l-.03-3.33.01-3.15.01-2.82c.27-2.62.93-4.26 2.26-6.51" fill="#EEF0EF"/><path d="m552 673 3 1-2.69 1.88c-4.25 3.63-6.72 7.76-8.31 13.12-.39 5.05-.3 9.94 0 15h-3c-2.5-3.75-2.51-6.67-2-11 2.27-8.44 6.76-14.07 13-20" fill="#E1DFE8"/><path d="M440 498h1l.04 1.89c.37 14.25 1.49 28.06 3.96 42.11-3-1-3-1-4.11-2.59-1.21-3.28-1.65-6.59-2.08-10.03l-.28-2.07c-.66-5.05-.66-5.05.47-7.31q.22-2.5.32-5.01l.37-9.27z" fill="#D1D4D1"/><path d="M496 164h1v64c-3-3-3-3-3.09-5.5l.38-2.94c.68-6.17.92-12.25 1.03-18.45l.06-3.24.18-10.12.13-6.92z" fill="#AFB1B2"/><path d="M800 616h30v2c-6.17 1.83-11.98 2.22-18.38 2.25l-2.41.03c-3.91-.02-5.89-.06-9.21-2.28z" fill="#CED0D2"/><path d="M617 676h1c3.09 16.9 3.09 16.9-1 24-2.19 2.56-2.19 2.56-4 4l-3-1 1.4-1.69c4.95-7.14 5.17-16.9 5.6-25.31" fill="#E3E5EA"/><path d="M493 40c.93 2.5 1.19 3.59.06 6.06-1.47 4.07-1.52 7.96-1.68 12.25l-.12 2.54L491 67h-3c-.56-18.29-.56-18.29 3-25z" fill="#EFEDF1"/><path d="M634 677h1l.33 3.04c1.07 9.14 2.66 16.08 7.67 23.96h-6c-4.13-9.43-4.06-16.85-3-27" fill="#E0E1E5"/><path d="M488 396h1c.16 10.37-.35 20.65-1 31-4.03-6.05-3.25-14.01-2.25-20.99.25-2.01.25-2.01.19-5.45C486 398 486 398 488 396" fill="#EFF2F4"/><path d="M501 628c3.77.94 5.62 1.9 8.75 4.06l2.42 1.66L514 635l-1.72.85a200 200 0 0 0-6.78 3.59l-2.28 1.24A61 61 0 0 0 497 645c.34-2.88.78-3.82 3.07-5.7l2.49-1.55 2.51-1.58L507 635z" fill="#DDDDE0"/><path d="m761 656 2 4 2-1c0 6.82 0 6.82-2.71 10.02-3.17 2.79-6.31 5.44-10.29 6.98-3.25-.88-3.25-.88-6-2v-1l1.79-.26c3.99-.71 6.8-1.47 10.21-3.74 2.79-4.19 2.89-8.06 3-13" fill="#DDE0DD"/><path d="M480 608c7.57 6.39 15.05 12.94 22 20l-2 2c-16.63-14.67-16.63-14.67-20-22" fill="#E8EAEA"/><path d="M440 492h1l-1 28c-3.26-4.34-3.47-6.62-3.38-11.75l.02-2.16c.13-5.34.99-9.35 3.36-14.09" fill="#EEEFF0"/><path d="m783 456-1 3-2.45.18-3.24.26-3.2.24c-3.11.32-3.11.32-5.75.98-2.82.41-4-.17-6.36-1.66 7.5-3.05 13.95-3.34 22-3" fill="#2B2D2B"/><path d="M762 396h1v33h-3c-.41-11.08.84-22 2-33" fill="#202321"/><path d="M756 39c2.39.96 3.74 1.58 5.12 3.79.97 2.44 1.11 4.15 1.08 6.76l-.02 2.56-.06 2.64-.02 2.69L762 64c-2.97-2.76-2.97-2.76-3.22-4.91l.16-2.15c.22-6.21-.98-12.06-2.94-17.94" fill="#1C1F1C"/><path d="M489 401h1l1 9h1l1 18h-4z" fill="#212425"/><path d="m742.25 31.44 2.7.3L747 32v1h-3.63c-6.31.64-11.14 4.04-16.43 7.29-2.94 1.7-2.94 1.7-4.94 1.7 1.24-3.72 2.62-4.41 5.81-6.61l2.65-1.85c4.18-2.51 6.99-2.66 11.79-2.1" fill="#E4E5E7"/><path d="m476.5 455.88 2.78-.01c2.67.13 5.12.53 7.72 1.13l-1 3h-18v-2l-2-1a45 45 0 0 1 10.5-1.12" fill="#292B2B"/><path d="m491 664 1.62 2.31c2.63 2.97 4.76 4.14 8.38 5.69l2.5 1.12c2.81.99 5.55 1.47 8.5 1.88-2.68 1.84-3.79 2.03-7.06 1.5-11.83-3.71-11.83-3.71-14.94-8.5.19-2.31.19-2.31 1-4" fill="#E6E8E8"/><path d="M491 49h1a515 515 0 0 1 1 36c-3.31-3.88-4.05-6.97-3.93-12.05l.27-3.34.28-3.65.32-3.77.3-3.84z" fill="#C0C0C2"/><path d="M787 616c12.35-.22 24.67.43 37 1v1q-6.94.33-13.88.59l-4.72.21q-3.4.16-6.79.27l-2.13.12c-3.23.1-5.16.01-7.96-1.69z" fill="#F3F5F7"/><path d="m493 650 3 1-.49 1.72a29 29 0 0 0-.63 6.78l-.01 2.28c.13 2.19.53 4.11 1.13 6.22-1.94-.31-1.94-.31-4-1a23.5 23.5 0 0 1 0-15.06z" fill="#222325"/><path d="M756 642c2.94 1.01 3.94 1.9 5.62 4.56 3.3 8.25 3.3 8.25 3.38 12.44-1.46 2.27-1.46 2.27-3 4l-.37-2.05-.51-2.7-.49-2.67A29 29 0 0 0 758 649c-.12-2.75-.12-2.75 0-5h-2z" fill="#ECEDEE"/><path d="M900 587v3c-2.27 2.19-2.27 2.19-5.25 4.56l-2.95 2.38A35 35 0 0 1 885 601l-1-2c4.54-4.82 9.63-9.88 16-12" fill="#E8EAEB"/><path d="M877 430c7.31 2.49 12.99 7.3 19 12l-3 1a71 71 0 0 1-6.44-3.69l-1.73-1.07A41 41 0 0 1 876 431z" fill="#E1E1E4"/><path d="M762 48h1c1.41 21.07 1.41 21.07 0 29l-2 1c-.14-10.06.27-19.98 1-30" fill="#CBCFCB"/><path d="M763 392c3.55 5.33 3.24 11.64 3.56 17.88l.13 2.37.31 5.75h-2c-3.67-7.34-2.1-18.06-2-26" fill="#F2F6F2"/><path d="M928 537c2 2 2 2 2.31 4.76-.36 3.73-1.43 5.9-3.31 9.12l-1.69 2.92L924 556h-2l.55-1.62A479 479 0 0 0 928 537" fill="#DBDDDD"/><path d="m786.96 414.64 3.41.05h3.4c3.14.3 5.4.98 8.23 2.3v1h-21c3-3 3-3 5.96-3.35" fill="#F2F5F2"/><path d="M497 222h1l.33 2.02A183 183 0 0 0 503 244c-3-1-3-1-4.2-3.15-2.53-6.72-3.21-11.8-1.8-18.85" fill="#D4D6D3"/><path d="m836.56 419.19 2.37.1c2.26.13 2.26.13 6.07.7l2 3c-7.47.3-14.63-.83-22-2 3.92-2.6 7.05-2.1 11.56-1.8" fill="#EFEFF3"/><path d="m514 33 1 2-3.12.31c-3.87.69-6.47 1.79-9.88 3.69l-4 2c.93-3.43 1.66-4.77 4.62-6.81 4.11-1.45 7.05-1.41 11.38-1.19" fill="#262628"/><path d="M473.83 453.77a421 421 0 0 0 6.8.06c3.2.16 6.23.58 9.37 1.17l-1 3-20-2c2-2 2-2 4.83-2.23" fill="#EDF0F0"/><path d="M491 71h1a281 281 0 0 1 1 28c-2.06-2.27-2.96-3.56-3.25-6.66l.18-2.98.16-3.24.22-3.37.19-3.41q.23-4.17.5-8.34" fill="#F0F1F2"/><path d="m756 356 2 1c.6 1.93.6 1.93 1.06 4.31l.48 2.37.46 2.32 1 4h-3c-3.63-9.41-3.63-9.41-2-14" fill="#F0F2F1"/><path d="M811 517h2c.1 6.11.07 11.97-1 18h-3z" fill="#D3D5D4"/><path d="M440 498h1v30l-2-1c-1.26-4.48-1.26-4.48 0-7q.22-2.5.32-5.01l.37-9.27z" fill="#BABDB9"/><path d="m530 277 2 3c-.9 2.92-.9 2.92-2.38 6.19l-1.46 3.29L527 292h-3l.88-2.06C526 287 526 287 527 283.38c1-3.38 1-3.38 3-6.38" fill="#E9EBEB"/><path d="m718 673 21 1v1c-6.7.7-13.26 1.11-20 1z" fill="#D1D2D1"/><path d="M930 524c2.35 3.53 2.71 5.8 3 10-.94 2.94-.94 2.94-2 5h-2z" fill="#E7E7E9"/><path d="m441 541 4 1c1.14 4.27 2 7.56 2 12l-3-1-.4-2.12-.54-2.76-.52-2.74C442 543 442 543 441 541" fill="#ECEDEE"/><path d="M910 456c3.39 1.42 5.1 3.04 7.25 6l1.58 2.12C920 466 920 466 920 468h-3c-1.82-2.12-1.82-2.12-3.69-4.88l-1.88-2.74C910 458 910 458 910 456" fill="#E5E5E9"/><path d="m757 623 2 1c-3.81 3.4-7.49 6.54-12 9 .26-3.45 1.26-4.24 3.88-6.69C754 624 754 624 757 623" fill="#EBEDED"/><path d="M808 537h1c.24 6.95-.53 12.81-4 19-1.36-4.08-.14-7.18.94-11.19l.59-2.27z" fill="#D4D6D6"/><path d="M514 258c4.61 1.49 7.53 3.69 11 7v3a32 32 0 0 1-7.75-5l-1.86-1.56C514 260 514 260 514 258" fill="#E4E4E6"/><path d="M762 44h2c2.09 6.39 1.93 10.59 0 17h-1z" fill="#F0F3F0"/><path d="m753 239 2 3c-1.53 3.44-3.6 6.12-6 9l-3-1 1.81-2.12A46 46 0 0 0 753 239" fill="#D8D7DB"/><path d="M756 230c1.69 1.5 1.69 1.5 3 4a39 39 0 0 1-3 8h-2c1-8.57 1-8.57 2-12" fill="#E3E3E5"/><path d="M492 379a15.4 15.4 0 0 1 2.31 8.56l.05 2.32c-.44 2.6-1.36 3.47-3.36 5.12-1.27-3.65-.76-6.49-.06-10.25l.59-3.27z" fill="#2E2E30"/><path d="m564 665 1 4q-2.15 1.05-4.31 2.06l-2.43 1.16C556 673 556 673 553 672l1.64-1.02 2.17-1.36 2.15-1.33A272 272 0 0 0 564 665" fill="#EFEDF1"/><path d="M841 615v2c-3.88 1.19-6.92 2-11 2v-3c3.67-1.18 7.17-1.07 11-1" fill="#EEEFF1"/><path d="m617 695 1 3c-1.4 2.26-3.2 4.02-5 6l-3-1 1.44-1.81C613 699 613 699 614 696z" fill="#E7E9E8"/><path d="M459 579c2.4 2.88 4.47 5.56 6 9h-4c-1.56-2.81-1.56-2.81-3-6z" fill="#DDE0DC"/><path d="M492 441h2l2 7-4 3-.56-4.44-.32-2.49L491 442z" fill="#1C1F20"/><path d="m514 311 2 3-5 10-2-1a70 70 0 0 1 5-12" fill="#DBDCDE"/><path d="m504 35-2.75 1.81A143 143 0 0 0 494 42l-1-3c6.54-5.34 6.54-5.34 11-4" fill="#E2E1E3"/><path d="M694 666c3.72.51 6.73 1.12 10 3v3c-4.43-1.21-6.98-2.52-10-6" fill="#EEEEF1"/><path d="M751 638c1.94.75 1.94.75 4 2a13 13 0 0 1 1 4h2l-1 3-8-7z" fill="#D7D8DC"/><path d="M441 482c2.1 3.16 2.26 3.56 1.81 7.06l-.23 2.1C442 493 442 493 439 495c0-4.58.86-8.59 2-13" fill="#E4E7E8"/><path d="m786 453 7 1-1 3c-2.81.62-2.81.62-6 1l-3-2h4z" fill="#E0E1E2"/><path d="M541 691h1v10h-3c-.2-6.05-.2-6.05 0-8z" fill="#F1F1F4"/><path d="M699 673c3.4 1.01 4.76 1.65 6.81 4.62L707 680l-2 2-3-3.38-1.69-1.89C699 675 699 675 699 673" fill="#D9DADE"/><path d="M519 302h2a42 42 0 0 1-5 11c-.69-1.62-.69-1.62-1-4 2.28-5.28 2.28-5.28 4-7" fill="#EBEBED"/><path d="m495 216 2 1v11c-3-3-3-3-3.07-5.26l.38-2.43.37-2.45z" fill="#ECEDF0"/><path d="m556 672 2 1v2h-2v2h-2v2h-5z" fill="#292936"/><path d="M761 651c2.57 1.29 3.01 2.33 4 5-.37 3.06-1.23 4.35-3 7z" fill="#F5F8F4"/><path d="M830 613c2.44 1.5 2.44 1.5 4 3-5.13.1-9.95.04-15-1 3.65-2.33 6.74-2.38 11-2" fill="#2C2E2D"/><path d="M877 430a64 64 0 0 1 7 3l1 3c-4.31-.48-6.17-1.75-9-5z" fill="#EAEAED"/><path d="m724 41 2 2c-1.62 2-1.62 2-4 4-3.25.25-3.25.25-6 0 2.62-2.12 5.2-4.13 8-6" fill="#1C1D1E"/><path d="m491 664 1.81 2.31A58 58 0 0 0 498 672c-2.31.25-2.31.25-5 0-1.88-1.75-1.88-1.75-3-4 .31-2.25.31-2.25 1-4" fill="#D8DADB"/><path d="M628 661h8v8c-2-3-2-3-2-6l-6-1z" fill="#E9EAEB"/><path d="M748 342h2l2 9-3 1z" fill="#202320"/><path d="M492 451h1l1 9-5-1 .94-1.75c.99-2.09 1.58-4 2.06-6.25" fill="#CBCFCB"/><path d="M488 429h1l1 14-3-2z" fill="#F1F4F6"/><path d="M784 418v1c-4.27 1.14-7.56 2-12 2 3.83-4.2 6.58-4.08 12-3" fill="#E1E4E2"/><path d="M616 688h2l1 7h-2l-1 2c-1.11-3.33-.84-5.62 0-9" fill="#D9DCDE"/><path d="M699.5 663.81c2.5 1.2 2.5 1.2 4.5 3.2-1.69.74-1.69.74-4 1-2.75-1.95-2.75-1.95-5-4 2-1 2-1 4.5-.2" fill="#29292C"/><path d="m859 610-1 3c-3.41 1.52-6.44.73-10 0 3.74-2.01 6.74-3 11-3" fill="#C8CDCB"/><path d="M928 526h2l-1 11c-2.79-4.18-1.8-6.15-1-11" fill="#1D1F1F"/><path d="M462 460c-1.15 2.47-2.05 4.05-4 6h-3c1.47-3.4 2.86-6 7-6" fill="#1D1F21"/><path d="M530 39c2.48 1.11 4.68 2.58 7 4l-4 2-5-5z" fill="#E8ECE9"/><path d="m746 633 6 4-1 2-5-1c-.56-1.94-.56-1.94-1-4z" fill="#EDF0F0"/><path d="M567 65c3.91 1.27 5.79 2.51 8 6l-2 1c-4.88-4.75-4.88-4.75-6-7" fill="#E9EAE8"/><path d="m539 673-3 3-7-2v-1c6.62-1.12 6.62-1.12 10 0" fill="#E1E4E2"/><path d="M514 637c-2.4 2.9-4.31 3.5-8 4v-3c3.07-1.86 4.6-2.22 8-1" fill="#222326"/><path d="m905 580 1 2c-2.48 3.45-3.8 5.23-8 6l2.94-3.44 1.65-1.93q1.16-1.36 2.41-2.63" fill="#D5D8D7"/><path d="M906 574h2l1 3c-1.81 1.56-1.81 1.56-4 3l-3-1q1.93-2.56 4-5" fill="#1F2122"/><path d="m481 454 9 1-1 3-7-1z" fill="#E7EAE7"/><path d="M905 451c1.88.25 1.88.25 4 1a17 17 0 0 1 2 4c-3 0-3 0-4.69-1.38C905 453 905 453 905 451" fill="#D7D6DA"/><path d="m861 425 7 2v2l-7-1z" fill="#E4E3E8"/><path d="M508 323h2c-.75 5.75-.75 5.75-3 8l-2-3c1.38-2.5 1.38-2.5 3-5" fill="#E2E4E7"/><path d="m742.13 31.44 2.75.3 2.13.26v1l-1.87.19-2.46.25-2.41.25c-2.26.3-2.26.3-5.26 1.3v-3c2.62-1.3 4.23-.88 7.12-.55" fill="#BCBCC0"/><path d="m469 594 5 5-2 3c-1.5-1.19-1.5-1.19-3-3-.19-2.69-.19-2.69 0-5" fill="#DCDEDF"/><path d="M890 595v3c-2.5 1.69-2.5 1.69-5 3l-1-2c2.05-2.25 3.01-3 6-4" fill="#EEEEF2"/><path d="M742 251a20 20 0 0 1 1 4l-2 2c-2.12-.38-2.12-.38-4-1z" fill="#212222"/><path d="M508 252c3.37 1.39 4.99 2.98 7 6-3 0-3 0-5.19-1.88C508 254 508 254 508 252" fill="#D2D7D3"/><path d="M638 699h2a55 55 0 0 1 3 5h-6z" fill="#E8EAEC"/><path d="M542 692h1l1 12h-3z" fill="#BEBEC0"/><path d="M796 613h6l-2 3c-3.12.19-3.12.19-6 0l2-1z" fill="#222523"/><path d="m469 454 2 1Zm2 2v1l-8 1v-2c2.86-1.43 4.93-.6 8 0" fill="#E2E4E7"/><path d="M753 235c.69 1.62.69 1.62 1 4-1.44 3.25-1.44 3.25-3 6-1.1-3.29-.8-4.71 0-8h2z" fill="#0D0E0F"/><path d="m692 62 2 2c-1.19 1.5-1.19 1.5-3 3-2.69.19-2.69.19-5 0l2.44-1.94C691 63 691 63 692 62" fill="#1A1B1E"/><path d="m732 36 2 2-7 4-2-2z" fill="#1E1E1E"/></svg>