<svg style="background:transparent" version="1.1" xmlns="http://www.w3.org/2000/svg" viewBox="0 0 1248 704"><path d="m1001.5 89.88 2.18-.02c5.97.02 11.7.67 17.51 2.08 3.57.83 7.12 1.4 10.75 1.94 5.77.93 10.74 2.77 16.06 5.12q4.43 1.8 8.94 3.44a61 61 0 0 1 12.94 6.5 54 54 0 0 0 7.12 4c3.83 1.86 6.75 4.3 10 7.06q1.86 1.08 3.75 2.06c3.31 1.97 3.81 2.61 5.25 5.94l1.83.91c3.92 1.97 6.73 5.31 9.79 8.4l2.07 2.01c3.34 3.34 5.99 6.02 7.31 10.68l1.06 1.88a19.6 19.6 0 0 1 1.44 11.94c-3.94 8.38-7.96 13.99-16.79 17.42-3.88 1.1-6.69 1.16-10.71.75l-3.5-.24c-11.73-2.51-21.45-11.63-30.74-18.74-8.95-6.53-19.36-11.25-29.76-15.01l-2.39-.87c-14.37-4.81-31.6-4.9-45.61.87l-3.31 1.25c-9.76 4.28-18.45 10.37-23.69 19.75l-3 4.38a58 58 0 0 0-6 11.62 440 440 0 0 1-5.56 12.56 85 85 0 0 0-3.56 8.81A33 33 0 0 1 931 214a248 248 0 0 0-4.32 7.35 73 73 0 0 1-10.85 14.55c-1.94 2.22-3.32 4.56-4.83 7.1l-5 4q-2.74 3.09-5.35 6.3C899 255 899 255 896 256l-1.75 1.75c-4.75 4.75-10.42 8-16.25 11.25l-5 3a25 25 0 0 0 3.38 9.44l1.36 2.37L879 286a138 138 0 0 1 9.28 21.8c.7 2.16 1.51 4.22 2.34 6.32 1.38 3.6 1.89 7.06 2.38 10.88l1 3.06c1.44 4.7 1.49 9.56 1.75 14.44.25 3.5.25 3.5.76 6.63.56 4.45.63 8.79.62 13.26l.01 2.67-.01 5.5q-.01 4.23.01 8.48l-.01 5.35.01 2.57c-.03 5.93-.03 5.93-1.14 7.04a157 157 0 0 0 0 6.5q.07 3.25 0 6.5l-1 1q0 2.92.03 5.83c-.04 3.1-.57 6.1-1.03 9.17-1.05 10.5-2.06 21.25-1.96 31.8C892 458 892 458 891 461a71 71 0 0 0-.15 4.38l-.01 2.67-.01 2.88-.01 3-.01 6.3-.03 9.51c-.03 9.93-.04 19.53 2.22 29.25l.82 4.07.74 3.38q1.29 5.78 2.44 11.55a508 508 0 0 0 1.4 6.72c.6 2.28.6 2.28 1.63 4.73a25 25 0 0 1 1.53 7.93c.3 4.25.81 8.42 1.44 12.63 1.65 11.06 3.09 21.86 2.97 33.04.03 3.19.27 6.3.53 9.46 1.16 16.35 1.84 33.38-1.5 49.5q1.58.36 3.23.7c30.22 6.71 30.22 6.71 37.77 16.3.69 2.32.69 2.32 0 5-7.6 11.22-22.15 12.95-34.43 15.33a261 261 0 0 1-27.57 3.66q-1.57.14-3.18.26c-10.36.78-20.68 1-31.07 1h-2.87c-44.85 0-89.81-2.5-134.56-5.25a1634 1634 0 0 0-74.07-2.62l-2.08-.03c-22.76-.37-45.44-.4-68.17.64l-3 .14q-12.13.57-24.25 1.19c-.53.01-.53.01-3.23.15-11.99.6-23.95 1.36-35.9 2.49-31.78 2.95-63.31 3.62-95.21 3.51l-18.54-.01q-18.3 0-36.61-.05-17.69-.04-35.39-.03h-4.44q-20.34 0-40.66-.03l-14.29-.01q-9.56 0-19.12-.05h-7.02l-9.55-.02h-2.81c-4.43-.02-7.95-.17-11.98-2.27v2c-2.38.18-2.38.18-5 0l-2-3c3.27-1.88 6.28-2.5 10-3l2-10-3.54 1.72-4.65 2.21-2.33 1.14c-11.89 5.66-24.03 4.98-36.48.92-8.28-3.62-14.59-10.67-18-19-.65-8.7.91-15.91 6-23l1.75-2.67c6.39-6.58 15.05-11.7 24.25-12.33l4.44.7c4.44.61 7.03-.45 10.83-2.69 1.73-1 1.73-1 4.73-2l.88-1.87c1.49-2.84 3.37-3.53 6.12-5.13a262 262 0 0 0 5-5q1.74-1.51 3.5-3a96 96 0 0 0 6.06-5.57c2.44-2.43 2.44-2.43 5.5-4.86 3-2.62 4.77-5.28 6.94-8.58l3-1 .88-1.8c1.12-2.2 1.12-2.2 3.37-3.94 3-2.45 4.94-5.04 7.2-8.15 3.13-4.24 6.15-8.17 10.55-11.1q1.51-2.49 3-5a82 82 0 0 1 5-6h2l.73-2.16c1.46-3.26 3.31-5.5 5.65-8.22A66 66 0 0 0 282 539l-2.69-1.5L275 535l-3.01-1.7c-11.81-6.88-23.77-16.63-28.24-30.04L243 500l-1.5-2.87c-1.59-3.32-2.25-6.31-2.96-9.9a31 31 0 0 0-2.1-5.92c-1.4-3.21-1.94-5.87-2.44-9.31l-2-7a152 152 0 0 1-3-16l-.5-2.5q-.59-3.01-1-6.06A69 69 0 0 0 226 433l-1.5-6.44-.78-3.37q-.65-2.88-1.19-5.79c-.53-2.4-.53-2.4-1.53-4.78-1.21-3.17-1.59-6.13-2-9.5-1-7.6-1-7.6-2.12-11.19-.86-2.85-.96-4.99-.88-7.94a71 71 0 0 0-1-4c-.99-4.06-1-7.8-1-12l-.56-3.06c-.86-7.69-1.39-16.08 3.31-22.62 4.51-5 8.48-6.84 15.25-7.31 8.97.64 16.86 5.31 24.86 9.13 8.88 4.2 18.18 8.55 28.14 8.87 3.38-1.25 3.38-1.25 5.09-2.1 5.87-2.75 12.39-4.04 18.69-5.37 2.33-.55 4.53-1.3 6.78-2.1 2.88-1 5.53-1.67 8.56-2C328 341 328 341 331.44 340a40 40 0 0 1 8-1.43A36 36 0 0 0 352 335c1.5-2.19 1.5-2.19 2-4h2q1.56-2.46 3-5l2-2 1.75-2.19a222 222 0 0 1 15.19-17.06l1.76-1.86c3.84-3.88 7.09-6.15 12.3-7.9 2.12.2 2.12.2 4 1l2.44.82c5.78 2.69 8.41 6.13 11.12 11.81l.9 1.88c4.48 9.41 7.85 19.03 10.76 29.03.78 2.47.78 2.47 1.75 4.76 1.63 4.27 2.53 8.72 3.53 13.17q.67 2.8 1.5 5.54l2 1c2.39-.93 4.68-1.93 7-3l2.21-.95c4.14-1.79 8.06-3.7 11.94-6a109 109 0 0 1 6.35-3.3c5.11-2.52 10.13-5.2 15.15-7.9q4.25-2.29 8.58-4.46a57 57 0 0 0 6.27-3.63c4.31-2.75 8.85-4.99 13.42-7.24a150 150 0 0 0 8.96-4.7c2.31-1.35 4.6-2.57 7-3.75a239 239 0 0 0 11.03-5.92c2.65-1.46 5.37-2.8 8.09-4.15q2.65-1.5 5.28-3.03c2.52-1.43 5.13-2.68 7.72-3.98l5.17-2.97q2.73-1.5 5.54-2.9l2.12-1.05L564 294l6.15-3.04 4.11-2.05c3.68-1.82 7.23-3.76 10.74-5.92l6-3q2.13-1.15 4.25-2.37c5.87-3.28 11.9-6.23 17.94-9.19q3.97-2.04 7.81-4.37a85 85 0 0 1 7.06-3.2c3.42-1.5 6.74-3.23 10.06-4.93 7.24-3.68 7.24-3.68 10.56-4.99 2.32-.94 2.32-.94 4.77-2.44a39 39 0 0 1 8.43-3.5 92 92 0 0 0 9.93-3.62A73 73 0 0 1 682 238c4.22-1.13 8.29-2.47 12.38-4a82 82 0 0 1 12.51-3.5c2.15-.5 4.07-1.22 6.11-2.06 3.63-1.44 7.04-1.94 10.92-2.22 2.11-.22 4.03-.7 6.08-1.22l6.06-.75q2.24-.3 4.44-.75c8.05-1.6 15.94-1.66 24.12-1.62l3.65-.01h6.7c3.08.13 5.99.57 9.03 1.13q2.75.24 5.5.44c4.13.34 7.59 1.16 11.5 2.56h2.56c2.94 0 4.71.9 7.44 2 2.52.54 5.04 1.01 7.57 1.5 2.9.6 5.63 1.54 8.43 2.5 3.6.97 5.33 1.26 8.81-.12L839 230l2.06-1.07a80 80 0 0 0 13.8-9.28c2.14-1.66 2.14-1.66 4.62-3.12 5.5-3.34 10.8-7.66 13.83-13.4 1.79-3.31 2.46-3.68 5.69-5.13l1-4a61 61 0 0 1 2.44-3.94A44 44 0 0 0 887 181l2-4 .89-1.78.92-1.84 1.05-2.1q1.2-2.41 2.44-4.81c3.51-6.87 3.51-6.87 4.7-10.6 1.13-3.25 2.67-5.78 4.56-8.63 1.44-2.25 1.44-2.25 2.73-4.6 5.33-9.38 13.16-16.4 20.92-23.8C929 117 929 117 930.55 114.9c1.75-2.28 3.78-3.34 6.29-4.69 2.65-1.48 5.18-3.11 7.72-4.77 16.65-10.65 37.22-15.67 56.94-15.56" fill="#111311"/><path d="m1001.5 89.88 2.18-.02c5.97.02 11.7.67 17.51 2.08 3.57.83 7.12 1.4 10.75 1.94 5.77.93 10.74 2.77 16.06 5.12q4.43 1.8 8.94 3.44a61 61 0 0 1 12.94 6.5 54 54 0 0 0 7.12 4c3.83 1.86 6.75 4.3 10 7.06q1.86 1.08 3.75 2.06c3.31 1.97 3.81 2.61 5.25 5.94l1.83.91c3.92 1.97 6.73 5.31 9.79 8.4l2.07 2.01c3.34 3.34 5.99 6.02 7.31 10.68l1.06 1.88a19.6 19.6 0 0 1 1.44 11.94c-3.94 8.38-7.96 13.99-16.79 17.42-3.88 1.1-6.69 1.16-10.71.75l-3.5-.24c-11.73-2.51-21.45-11.63-30.74-18.74-8.95-6.53-19.36-11.25-29.76-15.01l-2.39-.87c-14.37-4.81-31.6-4.9-45.61.87l-3.31 1.25c-9.76 4.28-18.45 10.37-23.69 19.75l-3 4.38a58 58 0 0 0-6 11.62 440 440 0 0 1-5.56 12.56 85 85 0 0 0-3.56 8.81A33 33 0 0 1 931 214a248 248 0 0 0-4.32 7.35 73 73 0 0 1-10.85 14.55c-1.94 2.22-3.32 4.56-4.83 7.1l-5 4q-2.74 3.09-5.35 6.3C899 255 899 255 896 256l-1.75 1.75c-4.75 4.75-10.42 8-16.25 11.25l-5 3a25 25 0 0 0 3.38 9.44l1.36 2.37L879 286a138 138 0 0 1 9.28 21.8c.7 2.16 1.51 4.22 2.34 6.32 1.38 3.6 1.89 7.06 2.38 10.88l1 3.06c1.44 4.7 1.49 9.56 1.75 14.44.25 3.5.25 3.5.76 6.63.56 4.45.63 8.79.62 13.26l.01 2.67-.01 5.5q-.01 4.23.01 8.48l-.01 5.35.01 2.57c-.03 5.93-.03 5.93-1.14 7.04a157 157 0 0 0 0 6.5q.07 3.25 0 6.5l-1 1q0 2.92.03 5.83c-.04 3.1-.57 6.1-1.03 9.17-1.05 10.5-2.06 21.25-1.96 31.8C892 458 892 458 891 461a71 71 0 0 0-.15 4.38l-.01 2.67-.01 2.88-.01 3-.01 6.3-.03 9.51c-.03 9.93-.04 19.53 2.22 29.25l.82 4.07.74 3.38q1.29 5.78 2.44 11.55a508 508 0 0 0 1.4 6.72c.6 2.28.6 2.28 1.63 4.73a25 25 0 0 1 1.53 7.93c.3 4.25.81 8.42 1.44 12.63 1.65 11.06 3.09 21.86 2.97 33.04.03 3.19.27 6.3.53 9.46 1.16 16.35 1.84 33.38-1.5 49.5q1.58.36 3.23.7c30.22 6.71 30.22 6.71 37.77 16.3.69 2.32.69 2.32 0 5-7.6 11.22-22.15 12.95-34.43 15.33a261 261 0 0 1-27.57 3.66q-1.57.14-3.18.26c-10.36.78-20.68 1-31.07 1h-2.87c-44.85 0-89.81-2.5-134.56-5.25a1634 1634 0 0 0-74.07-2.62l-2.08-.03c-22.76-.37-45.44-.4-68.17.64l-3 .14q-12.13.57-24.25 1.19c-.53.01-.53.01-3.23.15l-9.72.51-3.57.2q-11.1.68-22.16 1.8c-39.02 3.88-77.99 3.5-117.16 3.3l-28.84-.07q-29.53-.07-59.07-.22a84 84 0 0 1 11.27-7.75l1.8-1.04 3.79-2.2q4.94-2.86 9.86-5.74c.32-.17.32-.17 1.95-1.12q7.12-4.16 14.08-8.57a448 448 0 0 1 15.13-9.2C373.18 657.7 391.14 646.4 409 635l2.02-1.28c13.15-8.42 26.12-17.12 39.09-25.79L453 606l3.03-2.16a21 21 0 0 1 8.41-3.2l3.16-.62q1.67-.3 3.4-.64c49.83-10.34 99.13-33.98 143.75-58.18q3.64-1.94 7.32-3.84a848 848 0 0 0 34.74-19.1q5.27-3.01 10.63-5.87 3.01-1.64 6-3.33l3.56-2 3.25-1.83c2.75-1.24 2.75-1.24 5.75-.24.92 2.28.92 2.28 1.75 5.38 6.24 21.42 14.79 43.36 29.25 60.63l1.39 1.68c6.7 8.08 13.53 15.82 21.49 22.7 11.4 9.9 23.17 21.26 24.39 37.17.04 3.18.03 6.29-.27 9.45-1.71 1.7-4.17 1.41-6.5 1.68-7.82 1.28-13.56 4.46-18.44 10.75A26.3 26.3 0 0 0 735 672c1.1 4.12 2.64 7 6.11 9.54 9.9 5.37 20.71 5.83 31.77 5.78l3.46-.03c10.97-.14 21.98-.77 30.66-8.3 7.21-7.87 10.35-19.59 12-30l.56-3.44c3-20.48 1.97-40.4-2.56-60.55l-.58-2.62L815 576a73 73 0 0 1 14 9.75l1.86 1.62c13.77 12.15 20.65 26.2 22.14 44.63q.2 4.64.19 9.32v2.25c-.06 5.3-.06 5.3-1.19 6.42a300 300 0 0 1-5.94.7c-6.7 1.02-11.99 2.66-17.06 7.3-5.04 7.2-8.01 14.2-7 23 1.81 5.83 4.89 9.63 10 13 7.2 3.54 14.78 3.5 22.64 3.46q3.14-.02 6.28.04c10.94.06 22.66-1.25 31.37-8.53 9.92-11.32 10.03-25.75 10.01-39.96l.01-4.66.01-9.8q-.01-4.92.02-9.87c.17-31-2.69-60.31-9.7-90.6l-.68-2.9-1.26-5.3c-3.07-12.92-4.08-25.81-4.01-39.06v-2.29c.07-23.78 2.02-47.52 4.18-71.2 3.95-43.74 5.9-87.81-16.13-127.4l-1.13-2.05q-1.08-1.95-2.21-3.87c-1.54-2.74-2.41-4.62-2.32-7.78 1.59-3.85 5.46-5.25 8.92-7.23q3.45-2.07 6.88-4.24l1.82-1.15a88 88 0 0 0 13.41-10.95C902 247 902 247 904 247l.75-1.73c1.45-2.61 3.17-4.41 5.25-6.57 13.01-14.32 20.91-31.55 28.14-49.32 8.39-20.62 20.78-34.9 40.71-45.1 7.31-2.94 14.45-3.64 22.27-3.59l2.79.02c22.44.4 40.84 9.47 58.72 22.44q6.32 4.6 12.87 8.86l3.34 2.19c7.22 4.14 13.98 4.62 22.16 3.8 5.45-1.57 8.84-4.25 12-9l2-3c1.37-8.4.02-14.92-4.63-22.02-7.81-9.8-17.81-17.34-28.37-23.97q-.97-.6-1.97-1.25a182 182 0 0 0-40.72-19.06l-2.23-.73c-11.87-3.7-23.92-4.36-36.27-4.33h-2.19c-11.31.03-21.81.86-32.62 4.37l-3.43 1.06c-27.02 9.34-47.1 30.53-59.45 55.76q-5.2 10.8-10.28 21.66c-12.18 25.91-30.58 44.46-56.09 57.6-5.8 1.94-10.9.82-16.63-.83l-6.04-1.68c-70.02-19.32-140.85 7.34-202.39 40.42-7.13 3.8-14.34 7.44-21.54 11.13a1231 1231 0 0 0-35.59 18.74A808 808 0 0 1 535.5 313q-10.98 5.69-21.81 11.63c-13.19 7.25-26.51 14.25-39.82 21.27l-11.75 6.24C432.32 368 432.32 368 426 368l-.53-1.87c-16.98-59.5-16.98-59.5-26.36-65.3A17.6 17.6 0 0 0 388 300c-8.02 4.51-13.42 11.88-19 19q-2.76 3.37-5.56 6.69l-1.28 1.55a236 236 0 0 1-4.16 4.75q-.84 1.04-1.71 2.08c-5.36 6.07-10.11 7.47-17.98 8.62l-6.7 1.17-3.37.56c-4.77.84-9.47 1.9-14.18 3.01l-2.56.62a204 204 0 0 0-19.64 5.99c-7.31 2.57-11.47 3.54-18.8.64q-1-.37-2.03-.79a624 624 0 0 1-22.14-9.46C234.38 338 234.38 338 226 338.99c-4.28 1.77-5.92 3.94-8 8-.65 3.96-.52 7.94-.5 11.94l.01 3.58c.39 21.66 5.15 43.42 11.11 64.18a78 78 0 0 1 2.24 11.58 294 294 0 0 0 4.7 24.6l.52 2.3c5.7 24.84 12.79 49.8 35.42 64.2A90 90 0 0 0 288 537a33 33 0 0 1-4.65 7.4l-1.59 1.93-1.7 2.04a566 566 0 0 0-11.3 14.1 248 248 0 0 1-16.05 18.64 217 217 0 0 0-6.27 6.96c-16.12 18.52-33.24 38.13-54.44 50.92-.28.2-.28.2-1.71 1.14-4.24 1.6-8.89 1.24-13.38 1.26-7.07.22-12.18 2.33-17.6 6.87-6.33 7.51-9.98 14.63-9.73 24.6.72 5.38 2.66 9.24 6.42 13.13 11.28 7.4 23.79 9 37 7 6.07-1.86 11.64-4.8 17.14-7.94A116 116 0 0 1 216 682l-.66 2.01A56 56 0 0 0 213 704l-7-2v2c-2.38.18-2.38.18-5 0l-2-3c3.27-1.88 6.28-2.5 10-3l2-10-3.54 1.72-4.65 2.21-2.33 1.14c-11.89 5.66-24.03 4.98-36.48.92-8.28-3.62-14.59-10.67-18-19-.65-8.7.91-15.91 6-23l1.75-2.67c6.39-6.58 15.05-11.7 24.25-12.33l4.44.7c4.44.61 7.03-.45 10.83-2.69 1.73-1 1.73-1 4.73-2l.88-1.87c1.49-2.84 3.37-3.53 6.12-5.13a262 262 0 0 0 5-5q1.74-1.51 3.5-3a96 96 0 0 0 6.06-5.57c2.44-2.43 2.44-2.43 5.5-4.86 3-2.62 4.77-5.28 6.94-8.58l3-1 .88-1.8c1.12-2.2 1.12-2.2 3.37-3.94 3-2.45 4.94-5.04 7.2-8.15 3.13-4.24 6.15-8.17 10.55-11.1q1.51-2.49 3-5a82 82 0 0 1 5-6h2l.73-2.16c1.46-3.26 3.31-5.5 5.65-8.22A66 66 0 0 0 282 539l-2.69-1.5L275 535l-3.01-1.7c-11.81-6.88-23.77-16.63-28.24-30.04L243 500l-1.5-2.87c-1.59-3.32-2.25-6.31-2.96-9.9a31 31 0 0 0-2.1-5.92c-1.4-3.21-1.94-5.87-2.44-9.31l-2-7a152 152 0 0 1-3-16l-.5-2.5q-.59-3.01-1-6.06A69 69 0 0 0 226 433l-1.5-6.44-.78-3.37q-.65-2.88-1.19-5.79c-.53-2.4-.53-2.4-1.53-4.78-1.21-3.17-1.59-6.13-2-9.5-1-7.6-1-7.6-2.12-11.19-.86-2.85-.96-4.99-.88-7.94a71 71 0 0 0-1-4c-.99-4.06-1-7.8-1-12l-.56-3.06c-.86-7.69-1.39-16.08 3.31-22.62 4.51-5 8.48-6.84 15.25-7.31 8.97.64 16.86 5.31 24.86 9.13 8.88 4.2 18.18 8.55 28.14 8.87 3.38-1.25 3.38-1.25 5.09-2.1 5.87-2.75 12.39-4.04 18.69-5.37 2.33-.55 4.53-1.3 6.78-2.1 2.88-1 5.53-1.67 8.56-2C328 341 328 341 331.44 340a40 40 0 0 1 8-1.43A36 36 0 0 0 352 335c1.5-2.19 1.5-2.19 2-4h2q1.56-2.46 3-5l2-2 1.75-2.19a222 222 0 0 1 15.19-17.06l1.76-1.86c3.84-3.88 7.09-6.15 12.3-7.9 2.12.2 2.12.2 4 1l2.44.82c5.78 2.69 8.41 6.13 11.12 11.81l.9 1.88c4.48 9.41 7.85 19.03 10.76 29.03.78 2.47.78 2.47 1.75 4.76 1.63 4.27 2.53 8.72 3.53 13.17q.67 2.8 1.5 5.54l2 1c2.39-.93 4.68-1.93 7-3l2.21-.95c4.14-1.79 8.06-3.7 11.94-6a109 109 0 0 1 6.35-3.3c5.11-2.52 10.13-5.2 15.15-7.9q4.25-2.29 8.58-4.46a57 57 0 0 0 6.27-3.63c4.31-2.75 8.85-4.99 13.42-7.24a150 150 0 0 0 8.96-4.7c2.31-1.35 4.6-2.57 7-3.75a239 239 0 0 0 11.03-5.92c2.65-1.46 5.37-2.8 8.09-4.15q2.65-1.5 5.28-3.03c2.52-1.43 5.13-2.68 7.72-3.98l5.17-2.97q2.73-1.5 5.54-2.9l2.12-1.05L564 294l6.15-3.04 4.11-2.05c3.68-1.82 7.23-3.76 10.74-5.92l6-3q2.13-1.15 4.25-2.37c5.87-3.28 11.9-6.23 17.94-9.19q3.97-2.04 7.81-4.37a85 85 0 0 1 7.06-3.2c3.42-1.5 6.74-3.23 10.06-4.93 7.24-3.68 7.24-3.68 10.56-4.99 2.32-.94 2.32-.94 4.77-2.44a39 39 0 0 1 8.43-3.5 92 92 0 0 0 9.93-3.62A73 73 0 0 1 682 238c4.22-1.13 8.29-2.47 12.38-4a82 82 0 0 1 12.51-3.5c2.15-.5 4.07-1.22 6.11-2.06 3.63-1.44 7.04-1.94 10.92-2.22 2.11-.22 4.03-.7 6.08-1.22l6.06-.75q2.24-.3 4.44-.75c8.05-1.6 15.94-1.66 24.12-1.62l3.65-.01h6.7c3.08.13 5.99.57 9.03 1.13q2.75.24 5.5.44c4.13.34 7.59 1.16 11.5 2.56h2.56c2.94 0 4.71.9 7.44 2 2.52.54 5.04 1.01 7.57 1.5 2.9.6 5.63 1.54 8.43 2.5 3.6.97 5.33 1.26 8.81-.12L839 230l2.06-1.07a80 80 0 0 0 13.8-9.28c2.14-1.66 2.14-1.66 4.62-3.12 5.5-3.34 10.8-7.66 13.83-13.4 1.79-3.31 2.46-3.68 5.69-5.13l1-4a61 61 0 0 1 2.44-3.94A44 44 0 0 0 887 181l2-4 .89-1.78.92-1.84 1.05-2.1q1.2-2.41 2.44-4.81c3.51-6.87 3.51-6.87 4.7-10.6 1.13-3.25 2.67-5.78 4.56-8.63 1.44-2.25 1.44-2.25 2.73-4.6 5.33-9.38 13.16-16.4 20.92-23.8C929 117 929 117 930.55 114.9c1.75-2.28 3.78-3.34 6.29-4.69 2.65-1.48 5.18-3.11 7.72-4.77 16.65-10.65 37.22-15.67 56.94-15.56" fill="#B8BBB8"/><path d="M686 505c.92 2.27.92 2.27 1.75 5.38 6.24 21.41 14.79 43.34 29.25 60.62l1.39 1.68c6.7 8.08 13.53 15.82 21.49 22.7 11.4 9.9 23.17 21.26 24.39 37.17.04 3.18.03 6.29-.27 9.45-1.72 1.72-4.21 1.46-6.56 1.75-4.24.64-7.08 1.36-10.5 3.94-3.06 2.13-4.7 2.53-8.38 2.02-5.37-.62-10.72-.98-16.12-1.23l-2.69-.13q-4.3-.21-8.63-.39l-3.05-.14a1426 1426 0 0 0-64.08-1.14l-8.98.01c-53.73.06-107.73.9-161.18 6.79q-7.8.84-15.6 1.59A1121 1121 0 0 0 415 660l-3.29.45A2176 2176 0 0 0 356 669a38 38 0 0 1 10.06-7.5c7.4-4.11 14.52-8.6 21.65-13.14 6.86-4.37 13.76-8.65 20.67-12.93A700 700 0 0 0 429 622l6.21-4.14 3.08-2.06c9.3-6.19 9.3-6.19 12.21-8.11a107 107 0 0 0 5.48-4.01c4.72-2.62 9.75-3.3 15.02-4.3 49.83-10.34 99.13-33.98 143.75-58.17q3.64-1.96 7.32-3.84a849 849 0 0 0 34.74-19.12q5.27-3.01 10.63-5.87 3.01-1.63 6-3.33l3.56-1.99 3.25-1.84C683 504 683 504 686 505" fill="#ECEEEC"/><path d="m1001.5 89.88 2.18-.02c5.97.02 11.7.67 17.51 2.08 3.57.83 7.12 1.4 10.75 1.94 5.77.93 10.74 2.77 16.06 5.12q4.43 1.8 8.94 3.44a61 61 0 0 1 12.94 6.5 54 54 0 0 0 7.12 4c3.83 1.86 6.75 4.3 10 7.06q1.86 1.08 3.75 2.06c3.31 1.97 3.81 2.61 5.25 5.94l1.83.91c3.92 1.97 6.73 5.31 9.79 8.4l2.07 2.01c3.34 3.34 5.99 6.02 7.31 10.68l1.06 1.88a19.6 19.6 0 0 1 1.44 11.94c-3.94 8.38-7.96 13.99-16.79 17.42-3.88 1.1-6.69 1.16-10.71.75l-3.5-.24c-11.73-2.51-21.45-11.63-30.74-18.74-8.95-6.53-19.36-11.25-29.76-15.01l-2.39-.87c-14.37-4.81-31.6-4.9-45.61.87l-3.31 1.25c-9.76 4.28-18.45 10.37-23.69 19.75l-3 4.38a58 58 0 0 0-6 11.62 440 440 0 0 1-5.56 12.56 85 85 0 0 0-3.56 8.81A33 33 0 0 1 931 214a248 248 0 0 0-4.32 7.35 73 73 0 0 1-10.85 14.55c-1.94 2.22-3.32 4.56-4.83 7.1l-5 4q-2.74 3.09-5.35 6.3C899 255 899 255 896 256l-1.75 1.75c-4.75 4.75-10.42 8-16.25 11.25l-5 3a25 25 0 0 0 3.38 9.44l1.36 2.37L879 286a138 138 0 0 1 9.28 21.8c.7 2.16 1.51 4.22 2.34 6.32 1.38 3.6 1.89 7.06 2.38 10.88l1 3.06c1.44 4.7 1.49 9.56 1.75 14.44.25 3.5.25 3.5.76 6.63.56 4.45.63 8.79.62 13.26l.01 2.67-.01 5.5q-.01 4.23.01 8.48l-.01 5.35.01 2.57c-.03 5.93-.03 5.93-1.14 7.04a157 157 0 0 0 0 6.5q.07 3.25 0 6.5l-1 1q0 2.92.03 5.83c-.04 3.1-.57 6.1-1.03 9.17-1.05 10.5-2.06 21.25-1.96 31.8C892 458 892 458 891 461a71 71 0 0 0-.15 4.38l-.01 2.67-.01 2.88-.01 3-.01 6.3-.03 9.51c-.03 9.93-.04 19.53 2.22 29.25l.82 4.07.74 3.38q1.29 5.78 2.44 11.55a508 508 0 0 0 1.4 6.72c.6 2.28.6 2.28 1.63 4.73a25 25 0 0 1 1.53 7.93c.3 4.25.81 8.42 1.44 12.63 1.65 11.06 3.09 21.86 2.97 33.04.03 3.19.27 6.3.53 9.46 1.16 16.35 1.84 33.38-1.5 49.5q1.58.36 3.23.7c30.22 6.71 30.22 6.71 37.77 16.3.69 2.32.69 2.32 0 5-7.6 11.22-22.15 12.95-34.43 15.33a261 261 0 0 1-27.57 3.66q-1.57.14-3.18.26c-10.36.78-20.68 1-31.07 1h-2.87c-44.85 0-89.81-2.5-134.56-5.25a1634 1634 0 0 0-74.07-2.62l-2.08-.03c-22.76-.37-45.44-.4-68.17.64l-3 .14a1978 1978 0 0 0-86.4 5.6 331 331 0 0 1-35.6 1.26c3.56-2.14 6.74-2.41 10.86-2.74l2.07-.16q3.41-.28 6.82-.52l4.86-.39 10.24-.78q6.12-.46 12.23-.99a1381 1381 0 0 1 58.03-3.62c23.93-.99 47.86-1.14 71.8-1.1h10.39c37.59.02 74.94.97 112.44 3.82 18.3 1.37 36.56 2.03 54.9 2.5q8.97.21 17.93.47l6.17.15q1.85.06 3.78.1l3.29.09c3.44.2 6.78.67 10.19 1.17 4.54.22 9.08.2 13.62.2l3.63.03c7 .01 13.62-.51 20.53-1.7 4.38-.7 8.78-1.1 13.2-1.5 10.16-.97 20.18-2.17 30.14-4.4l2.6-.55c7.1-1.7 15.47-4.25 20.28-10.08.41-2.5.41-2.5 0-5-7.48-8.42-21.76-10.46-32.28-13.07l-2.25-.56-5.47-1.37-.02-2.54q-.09-12.12-.22-24.22l-.11-12.44c-.21-30.98-3.01-60.43-10.01-90.71l-.68-2.92-1.26-5.3c-3.07-12.9-4.08-25.8-4.01-39.05v-2.29c.07-23.78 2.02-47.52 4.18-71.2 3.95-43.74 5.9-87.81-16.13-127.4l-1.13-2.05q-1.08-1.95-2.21-3.87c-1.54-2.74-2.41-4.62-2.32-7.78 1.59-3.85 5.46-5.25 8.92-7.23q3.45-2.07 6.88-4.24l1.82-1.15a88 88 0 0 0 13.41-10.95C902 247 902 247 904 247l.75-1.73c1.45-2.61 3.17-4.41 5.25-6.57 13.01-14.32 20.91-31.55 28.14-49.32 8.39-20.62 20.78-34.9 40.71-45.1 7.31-2.94 14.45-3.64 22.27-3.59l2.79.02c22.44.4 40.84 9.47 58.72 22.44q6.32 4.6 12.87 8.86l3.34 2.19c7.22 4.14 13.98 4.62 22.16 3.8 5.45-1.57 8.84-4.25 12-9l2-3c1.37-8.4.02-14.92-4.63-22.02-7.81-9.8-17.81-17.34-28.37-23.97q-.97-.6-1.97-1.25a182 182 0 0 0-40.72-19.06l-2.23-.73c-11.87-3.7-23.92-4.36-36.27-4.33h-2.19c-11.31.03-21.81.86-32.62 4.37l-3.43 1.06c-27.02 9.34-47.1 30.53-59.45 55.76q-5.2 10.8-10.28 21.66c-12.18 25.91-30.58 44.46-56.09 57.6-5.8 1.94-10.9.82-16.63-.83l-6.04-1.68c-70.02-19.32-140.85 7.34-202.39 40.42-7.13 3.8-14.34 7.44-21.54 11.13a1231 1231 0 0 0-35.59 18.74A808 808 0 0 1 535.5 313q-10.98 5.69-21.81 11.63c-13.19 7.25-26.51 14.25-39.82 21.27l-11.75 6.24C432.32 368 432.32 368 426 368l-.53-1.87c-16.98-59.5-16.98-59.5-26.36-65.3A17.6 17.6 0 0 0 388 300c-8.02 4.51-13.42 11.88-19 19q-2.76 3.37-5.56 6.69l-1.28 1.55a236 236 0 0 1-4.16 4.75q-.84 1.04-1.71 2.08c-5.36 6.07-10.11 7.47-17.98 8.62l-6.7 1.17-3.37.56c-4.77.84-9.47 1.9-14.18 3.01l-2.56.62a204 204 0 0 0-19.64 5.99c-7.31 2.57-11.47 3.54-18.8.64q-1-.37-2.03-.79a624 624 0 0 1-22.14-9.46C234.38 338 234.38 338 226 338.99c-4.28 1.77-5.92 3.94-8 8-.65 3.96-.52 7.94-.5 11.94l.01 3.58c.39 21.66 5.15 43.42 11.11 64.18a78 78 0 0 1 2.24 11.58 294 294 0 0 0 4.7 24.6l.52 2.3c5.7 24.84 12.79 49.8 35.42 64.2A90 90 0 0 0 288 537a33 33 0 0 1-4.65 7.4l-1.59 1.93-1.7 2.04a566 566 0 0 0-11.3 14.1 248 248 0 0 1-16.05 18.64 217 217 0 0 0-6.27 6.96c-16.12 18.52-33.24 38.13-54.44 50.92-.28.2-.28.2-1.71 1.14-4.24 1.6-8.89 1.24-13.38 1.26-7.07.22-12.18 2.33-17.6 6.87-6.33 7.51-9.98 14.63-9.73 24.6.72 5.38 2.66 9.24 6.42 13.13 11.28 7.4 23.79 9 37 7 6.07-1.86 11.64-4.8 17.14-7.94A116 116 0 0 1 216 682l-.66 2.01A56 56 0 0 0 213 704l-7-2v2c-2.38.18-2.38.18-5 0l-2-3c3.27-1.88 6.28-2.5 10-3l2-10-3.54 1.72-4.65 2.21-2.33 1.14c-11.89 5.66-24.03 4.98-36.48.92-8.28-3.62-14.59-10.67-18-19-.65-8.7.91-15.91 6-23l1.75-2.67c6.39-6.58 15.05-11.7 24.25-12.33l4.44.7c4.44.61 7.03-.45 10.83-2.69 1.73-1 1.73-1 4.73-2l.88-1.87c1.49-2.84 3.37-3.53 6.12-5.13a262 262 0 0 0 5-5q1.74-1.51 3.5-3a96 96 0 0 0 6.06-5.57c2.44-2.43 2.44-2.43 5.5-4.86 3-2.62 4.77-5.28 6.94-8.58l3-1 .88-1.8c1.12-2.2 1.12-2.2 3.37-3.94 3-2.45 4.94-5.04 7.2-8.15 3.13-4.24 6.15-8.17 10.55-11.1q1.51-2.49 3-5a82 82 0 0 1 5-6h2l.73-2.16c1.46-3.26 3.31-5.5 5.65-8.22A66 66 0 0 0 282 539l-2.69-1.5L275 535l-3.01-1.7c-11.81-6.88-23.77-16.63-28.24-30.04L243 500l-1.5-2.87c-1.59-3.32-2.25-6.31-2.96-9.9a31 31 0 0 0-2.1-5.92c-1.4-3.21-1.94-5.87-2.44-9.31l-2-7a152 152 0 0 1-3-16l-.5-2.5q-.59-3.01-1-6.06A69 69 0 0 0 226 433l-1.5-6.44-.78-3.37q-.65-2.88-1.19-5.79c-.53-2.4-.53-2.4-1.53-4.78-1.21-3.17-1.59-6.13-2-9.5-1-7.6-1-7.6-2.12-11.19-.86-2.85-.96-4.99-.88-7.94a71 71 0 0 0-1-4c-.99-4.06-1-7.8-1-12l-.56-3.06c-.86-7.69-1.39-16.08 3.31-22.62 4.51-5 8.48-6.84 15.25-7.31 8.97.64 16.86 5.31 24.86 9.13 8.88 4.2 18.18 8.55 28.14 8.87 3.38-1.25 3.38-1.25 5.09-2.1 5.87-2.75 12.39-4.04 18.69-5.37 2.33-.55 4.53-1.3 6.78-2.1 2.88-1 5.53-1.67 8.56-2C328 341 328 341 331.44 340a40 40 0 0 1 8-1.43A36 36 0 0 0 352 335c1.5-2.19 1.5-2.19 2-4h2q1.56-2.46 3-5l2-2 1.75-2.19a222 222 0 0 1 15.19-17.06l1.76-1.86c3.84-3.88 7.09-6.15 12.3-7.9 2.12.2 2.12.2 4 1l2.44.82c5.78 2.69 8.41 6.13 11.12 11.81l.9 1.88c4.48 9.41 7.85 19.03 10.76 29.03.78 2.47.78 2.47 1.75 4.76 1.63 4.27 2.53 8.72 3.53 13.17q.67 2.8 1.5 5.54l2 1c2.39-.93 4.68-1.93 7-3l2.21-.95c4.14-1.79 8.06-3.7 11.94-6a109 109 0 0 1 6.35-3.3c5.11-2.52 10.13-5.2 15.15-7.9q4.25-2.29 8.58-4.46a57 57 0 0 0 6.27-3.63c4.31-2.75 8.85-4.99 13.42-7.24a150 150 0 0 0 8.96-4.7c2.31-1.35 4.6-2.57 7-3.75a239 239 0 0 0 11.03-5.92c2.65-1.46 5.37-2.8 8.09-4.15q2.65-1.5 5.28-3.03c2.52-1.43 5.13-2.68 7.72-3.98l5.17-2.97q2.73-1.5 5.54-2.9l2.12-1.05L564 294l6.15-3.04 4.11-2.05c3.68-1.82 7.23-3.76 10.74-5.92l6-3q2.13-1.15 4.25-2.37c5.87-3.28 11.9-6.23 17.94-9.19q3.97-2.04 7.81-4.37a85 85 0 0 1 7.06-3.2c3.42-1.5 6.74-3.23 10.06-4.93 7.24-3.68 7.24-3.68 10.56-4.99 2.32-.94 2.32-.94 4.77-2.44a39 39 0 0 1 8.43-3.5 92 92 0 0 0 9.93-3.62A73 73 0 0 1 682 238c4.22-1.13 8.29-2.47 12.38-4a82 82 0 0 1 12.51-3.5c2.15-.5 4.07-1.22 6.11-2.06 3.63-1.44 7.04-1.94 10.92-2.22 2.11-.22 4.03-.7 6.08-1.22l6.06-.75q2.24-.3 4.44-.75c8.05-1.6 15.94-1.66 24.12-1.62l3.65-.01h6.7c3.08.13 5.99.57 9.03 1.13q2.75.24 5.5.44c4.13.34 7.59 1.16 11.5 2.56h2.56c2.94 0 4.71.9 7.44 2 2.52.54 5.04 1.01 7.57 1.5 2.9.6 5.63 1.54 8.43 2.5 3.6.97 5.33 1.26 8.81-.12L839 230l2.06-1.07a80 80 0 0 0 13.8-9.28c2.14-1.66 2.14-1.66 4.62-3.12 5.5-3.34 10.8-7.66 13.83-13.4 1.79-3.31 2.46-3.68 5.69-5.13l1-4a61 61 0 0 1 2.44-3.94A44 44 0 0 0 887 181l2-4 .89-1.78.92-1.84 1.05-2.1q1.2-2.41 2.44-4.81c3.51-6.87 3.51-6.87 4.7-10.6 1.13-3.25 2.67-5.78 4.56-8.63 1.44-2.25 1.44-2.25 2.73-4.6 5.33-9.38 13.16-16.4 20.92-23.8C929 117 929 117 930.55 114.9c1.75-2.28 3.78-3.34 6.29-4.69 2.65-1.48 5.18-3.11 7.72-4.77 16.65-10.65 37.22-15.67 56.94-15.56" fill="#E5E5E7"/><path d="M398 301c2.63.19 3.71.7 5.53 2.62 4.14 6.33 6.92 12.86 9.53 19.94l1.3 3.46C423 350.19 423 350.19 423 356h-3l.62 2.31A109 109 0 0 1 424 377c-3-1-3-1-4.06-3l-.94-2-2-1v-2l-1.56-.69C413 367 413 367 410 364.75c-4.95-3.62-10.49-6.1-16-8.75l-2-1.08c-7.97-3.66-17.59-4.4-26.2-5.49C363 349 363 349 361 348c1.35-8.7 6.45-16.56 11.42-23.69 2.5-3.65 4.76-7.44 7.06-11.22L381 311h2l1-3h2l1-3c2-.66 2-.66 4.44-1.06 4.36-.74 4.36-.74 6.56-2.94" fill="#252623"/><path d="M238 344c10.75 3.14 19.83 9.79 29 16l3 2v2l3 1c-.58 3.4-1.64 5.01-4.12 7.38l-1.93 1.85a86 86 0 0 1-5.33 4.39c-11.6 9.79-18.41 25.46-22.54 39.68q-1.43 4.88-3.08 9.7h-2a97 97 0 0 1-7.69-25.19l-1.2-6.67-.56-3.18q-.74-3.92-1.66-7.8a65 65 0 0 1-1.45-11.6c-.34-6.36-.34-6.36-1.44-8.56l.06-2.44C220 360 220 360 218 357q-.06-3 0-6l-.62-2.25L217 347l2-2v2l3 1 1.81-2.56c4.09-4.04 9.03-2.62 14.19-1.44" fill="#262825"/><path d="M815 576a73 73 0 0 1 14 9.75l1.86 1.62c13.77 12.16 20.65 26.2 22.14 44.63q.2 4.65.19 9.31v2.27c-.06 5.29-.06 5.29-1.19 6.42q-2.97.37-5.94.69c-6.83.98-11.46 3.41-17.06 7.31l-2 1-1-2q-3.49-.61-7-1l.44-7.5.12-2.11c.2-3.43.49-6.78.96-10.19 2.24-17.26.27-34.34-3.52-51.2l-.58-2.62z" fill="#EAECEA"/><path d="M216 351h1l.04 3.98c.53 24.28 4.88 48.38 11.58 71.71a77 77 0 0 1 2.24 11.59 295 295 0 0 0 4.7 24.6l.52 2.29c5.7 24.85 12.79 49.81 35.42 64.21A90 90 0 0 0 288 537a33 33 0 0 1-4.65 7.4l-1.59 1.93-1.7 2.05a566 566 0 0 0-11.3 14.08 246 246 0 0 1-16.05 18.65 229 229 0 0 0-6.27 6.95C230.32 606.59 213.2 626.2 192 639l-1.71 1.14c-4.24 1.59-8.89 1.22-13.38 1.25-7.07.21-12.18 2.32-17.6 6.86-6.33 7.53-9.98 14.63-9.73 24.61.72 5.39 2.66 9.23 6.42 13.14 11.28 7.38 23.79 8.99 37 7 6.07-1.87 11.64-4.81 17.14-7.95q2.88-1.6 5.86-3.05l-.66 2.02A56 56 0 0 0 213 704l-7-2v2c-2.38.19-2.38.19-5 0l-2-3c3.27-1.88 6.28-2.49 10-3l2-10-3.54 1.71-6.98 3.36c-11.89 5.66-24.03 4.98-36.48.93-8.28-3.63-14.59-10.69-18-19-.65-8.72.91-15.92 6-23l1.75-2.69c6.39-6.57 15.05-11.69 24.25-12.31q2.22.32 4.44.69c4.44.61 7.03-.44 10.83-2.68C195 634 195 634 198 633l.88-1.88c1.49-2.83 3.37-3.52 6.12-5.12a262 262 0 0 0 5-5q1.74-1.51 3.5-3a96 96 0 0 0 6.06-5.56c2.44-2.44 2.44-2.44 5.5-4.88 3-2.61 4.77-5.26 6.94-8.56l3-1 .88-1.81c1.12-2.19 1.12-2.19 3.37-3.94 3-2.45 4.94-5.04 7.2-8.15 3.13-4.24 6.15-8.17 10.55-11.1l3-5a80 80 0 0 1 5-6h2l.73-2.16c1.46-3.27 3.31-5.51 5.65-8.22A66 66 0 0 0 282 539l-2.69-1.5L275 535l-3.01-1.7c-11.81-6.89-23.77-16.64-28.24-30.05L243 500l-1.5-2.88c-1.59-3.31-2.25-6.3-2.96-9.89a31 31 0 0 0-2.1-5.92c-1.4-3.22-1.94-5.86-2.44-9.31l-2-7a152 152 0 0 1-3-16l-.5-2.5q-.59-3.01-1-6.06A69 69 0 0 0 226 433l-1.5-6.44-.78-3.37q-.66-2.88-1.19-5.79c-.53-2.4-.53-2.4-1.53-4.78-1.21-3.17-1.59-6.14-2-9.5-1-7.6-1-7.6-2.12-11.18-.86-2.86-.96-4.99-.88-7.94a69 69 0 0 0-1-4c-.74-2.8-1.05-4.71-.56-7.58.7-4.26.91-8.48 1.12-12.8l.13-2.51z" fill="#E5E6E6"/><path d="m361 564 3 1-2 4h-2l-1 3c-1.55 1.54-1.55 1.54-3.53 3.19-4.48 3.8-8.76 7.78-13.03 11.81l-2.17 2.04c-3.32 3.13-6.6 6.27-9.8 9.52-3.02 3.05-6.2 5.86-9.44 8.67-3.39 2.96-6.64 6.06-9.91 9.15A814 814 0 0 1 285 640l-1.48 1.29a532 532 0 0 1-21.73 18.06A355 355 0 0 1 257 663l-2.79 2.27c-4.38 2.36-8.18 2.4-13.09 2.48l-2.66.09q-3.23.1-6.46.16a76 76 0 0 1 10.19-8.94q7.91-5.87 15.69-11.94l2.33-1.82q8.74-6.81 17.44-13.67l6.73-5.26a946 946 0 0 0 21.3-17.17q6.67-5.51 13.51-10.82a397 397 0 0 0 15.84-13.1q6.13-5.32 12.52-10.32 2.74-2.2 5.4-4.48l2.99-2.54 2.71-2.35z" fill="#EAEAED"/><path d="M904 610h1l.08 2.67.42 14.14.29 9.87c.21 3.32.21 3.32.75 6 .47 2.37.43 4.14.12 6.53l-.28 2.27-.32 2.33-.3 2.39-.76 5.8 3.23.7c30.22 6.72 30.22 6.72 37.77 16.3.69 2.31.69 2.31 0 5-7.6 11.21-22.15 12.95-34.43 15.33A264 264 0 0 1 884 703l-3.18.26c-10.36.77-20.68.98-31.07.99h-2.87c-44.85-.01-89.81-2.51-134.56-5.25a1620 1620 0 0 0-76.15-2.66c-22.76-.35-45.44-.4-68.17.66l-3 .14a1978 1978 0 0 0-86.4 5.59A333 333 0 0 1 443 704c3.56-2.16 6.74-2.43 10.86-2.75l2.07-.16q3.41-.28 6.82-.53l4.86-.38 10.24-.78q6.12-.47 12.23-.98c18.3-1.51 36.6-2.71 54.95-3.49l3.08-.13c23.93-.99 47.86-1.16 71.8-1.12l10.39.01c37.59.02 74.94.98 112.44 3.82 18.3 1.36 36.56 2.03 54.9 2.5q8.97.22 17.93.47l9.95.25 3.29.09c3.44.19 6.78.67 10.19 1.18 4.54.21 9.08.19 13.62.19l3.63.03c7 .02 13.62-.52 20.53-1.7 4.38-.71 8.78-1.1 13.2-1.51 10.16-.95 20.18-2.17 30.14-4.39l2.6-.55c7.1-1.69 15.47-4.26 20.28-10.07.41-2.5.41-2.5 0-5-8.68-9.78-28.76-12.19-40-15z" fill="#E9ECEA"/><path d="m318 475 2 2-2 3h2l1-3c1.94.62 1.94.62 4 2 .63 3.09.63 3.09 1 6-12.07 6.02-24.36 10.69-38 7.24-6.59-2.27-13.34-4.93-17-11.24v-3c14.84-5.33 31.84-9.83 47-3" fill="#131615"/><path d="M893 386h1l1 6.56.56 3.69c.43 3.64.59 7.1.44 10.75l-1 1q0 2.92.03 5.84c-.04 3.1-.57 6.09-1.03 9.16-1.05 10.5-2.06 21.24-1.96 31.79C892 458 892 458 891 461q-.14 2.18-.15 4.37l-.01 2.68-.01 2.88-.01 3-.01 6.29-.03 9.52c-.03 9.93-.04 19.54 2.22 29.26l.82 4.06.74 3.38q1.29 5.77 2.44 11.56l.94 4.5.46 2.22c.6 2.28.6 2.28 1.63 4.73a25 25 0 0 1 1.53 7.93c.3 4.24.81 8.41 1.44 12.62 1.64 11.05 3.1 21.84 2.97 33.02a145 145 0 0 0 .53 9.98c.66 9 .59 17.98.5 27h-2l-1 13h-1l-.02-2.13q-.09-10.17-.22-20.33l-.11-10.44a391 391 0 0 0-10.01-86.03l-.68-2.9-1.26-5.3c-3.07-12.92-4.08-25.82-4.01-39.06v-2.29c.06-20.56 1.68-41.03 3.31-61.52l.44-5.56q1.24-15.72 2.56-31.44" fill="#EBECEC"/><path d="m401.38 449.88 3.2.05q1.2.04 2.42.06v4c-4.14 4.15-9.77 7.36-15 10h-3v2c-3.82 1.81-6.79 2.2-11 2l1 3a533 533 0 0 1-6.69 3.57l-1.9 1.04c-3 1.56-4.94 2.44-8.37 2.11L360 477c.25-6.1.25-6.1 2.41-8.67a76 76 0 0 1 3.33-2.87C367 464 367 464 367 460l10-1v-2l5.63-2.37 3.17-1.34c5.42-2.18 9.7-3.55 15.58-3.42" fill="#131615"/><path d="m904 246 2 1-3.31 3.94-1.87 2.21C899 255 899 255 896 256l-1.75 1.75c-4.75 4.75-10.42 8.01-16.25 11.25l-5 3a25 25 0 0 0 3.38 9.44l1.36 2.37L879 286a137 137 0 0 1 9.28 21.81c.7 2.14 1.51 4.22 2.34 6.31 1.38 3.6 1.89 7.06 2.38 10.88l1 3.06c1.44 4.7 1.49 9.57 1.75 14.44.25 3.5.25 3.5.75 6.64.57 4.42.68 8.73.7 13.19l.02 2.64.02 5.48q.02 4.21.07 8.41l.02 5.34.04 2.54c-.03 5.87-.03 5.87-1.89 8L894 396l-.02-1.67q-.1-8.81-.24-17.63l-.09-6.53c-.2-18.48-.91-37.31-6.4-55.11l-.78-2.6c-2.89-9.37-6.96-17.98-11.73-26.54a232 232 0 0 0-3.34-5.91c-1.54-2.74-2.41-4.62-2.32-7.8 1.59-3.83 5.46-5.24 8.92-7.21 8-4.86 15.3-9.76 22.11-16.25C902 247 902 247 904 246" fill="#E6E6E7"/><path d="m764.81 221.75 3.72-.06 3.55-.02 3.23-.03c2.7.36 2.7.36 4.56 1.88L781 225l-2.64.03c-48.57.65-94.49 12.07-137.97 34.11-2.65.95-3.8.86-6.39-.14q3.3-1.95 6.62-3.87l1.87-1.11A58 58 0 0 1 654 249l2-2q2.8-1.04 5.7-1.94c3.43-1.1 6.81-2.2 10.11-3.69a72 72 0 0 1 10.2-3.37c4.21-1.14 8.28-2.46 12.36-4a80 80 0 0 1 12.51-3.5 40 40 0 0 0 6.12-2.06c3.63-1.45 7.04-1.94 10.92-2.23 2.11-.21 4.03-.68 6.08-1.21l6.06-.75q2.24-.3 4.44-.75c8.08-1.62 16.1-1.71 24.31-1.75" fill="#ECECED"/><path d="M216 351h1l.04 3.98c.53 24.28 4.88 48.38 11.58 71.71a77 77 0 0 1 2.24 11.66c1.09 7.91 2.87 15.59 4.76 23.34l1.92 7.95.85 3.49C239 476 239 476 239 479h-2c-3.12-5.46-4.41-9.76-5-16l-2-7q-.54-3.5-1-7l-.5-2.5q-.59-3.01-1-6.06A69 69 0 0 0 226 433l-1.5-6.44-.78-3.37q-.66-2.88-1.19-5.79c-.53-2.4-.53-2.4-1.53-4.78-1.21-3.17-1.59-6.14-2-9.5-1-7.6-1-7.6-2.12-11.18-.86-2.86-.96-4.99-.88-7.94a69 69 0 0 0-1-4c-.74-2.8-1.05-4.71-.56-7.58.7-4.26.91-8.48 1.12-12.8l.13-2.51z" fill="#D8DADB"/><path d="M352 487c3.06 1.5 3.06 1.5 5 3-.47 4.17-1.05 6.93-4 10h-2l.56 3.44.44 3.56c-1 1-1 1-4.56 1.06L344 508l-.62-2.31C342 503 342 503 338.94 501.62c-2.94-1.62-2.94-1.62-4.19-5 .25-3.62.25-3.62 1.47-5.15 5.22-4.41 9.15-5.16 15.78-4.47" fill="#676867"/><path d="M893 386h1l1 6.56.56 3.69c.43 3.64.59 7.1.44 10.75l-1 1q0 2.92.03 5.84c-.04 3.1-.57 6.09-1.03 9.16-1.05 10.5-2.06 21.24-1.96 31.79C892 458 892 458 891 461q-.03 3.72.06 7.44c.18 7.11.18 7.11-1.04 9.44-1.26 2.62-1.34 4.65-1.43 7.54l-.12 3.11-.09 3.22-.12 3.27L888 503h-1c-.49-26.81.88-53.28 3-80l.44-5.56q1.24-15.72 2.56-31.44" fill="#CACBCC"/><path d="M149 676a41 41 0 0 1 4.44 6.88c3.7 5.7 12.13 8.73 18.56 10.12 14.56 1.79 25.48-.71 38.14-7.95q2.88-1.6 5.86-3.05l-.66 2.02A56 56 0 0 0 213 704l-7-2v2c-2.38.19-2.38.19-5 0l-2-3c3.27-1.88 6.28-2.49 10-3l2-10-3.54 1.71-6.98 3.36c-11.89 5.66-24.03 4.98-36.48.93a33.4 33.4 0 0 1-15-13c-.19-2.75-.19-2.75 0-5" fill="#D7D8D8"/><path d="M556 695v1h-8v2l-1.66.09-21.09 1.22-3.43.2c-14.61.86-29.18 1.87-43.76 3.18-11.71 1.05-23.3 1.74-35.06 1.31 3.56-2.16 6.74-2.43 10.86-2.75l2.07-.16q3.42-.28 6.82-.53l4.81-.38 10.17-.78 13.16-1.02c44.44-3.49 44.44-3.49 65.11-3.38" fill="#E5E7E6"/><path d="m285 475 .62 3.56c1.63 6.56 6.05 10.59 11.38 14.44-8.28-.04-15.09-2.42-22-7-4-4.28-4-4.28-4-8 4.93-2.04 8.58-3.41 14-3" fill="#DFBD6E"/><path d="M990 92a170 170 0 0 0 8.62.44l6.45.25 7.93.31v1l-2.38.03c-29.49.44-58.64 4.13-80.62 25.97l-1-3c1.81-3.5 4.44-4.98 7.84-6.8 2.65-1.47 5.18-3.11 7.72-4.76C956.67 97.68 975.45 88.98 990 92" fill="#E3E4E5"/><path d="m373 461 2.93 5.18A98 98 0 0 0 379 471a428 428 0 0 1-6.69 3.56l-1.89 1.04c-3.02 1.56-4.96 2.44-8.38 2.11L360 477c0-5.32 1.15-7.58 4.94-11.38 4.92-4.62 4.92-4.62 8.06-4.62" fill="#EFC869"/><path d="M890 321h2c5.32 16.34 5.2 34.11 5.24 51.13q.02 3.89.07 7.78l.02 4.98.04 2.34c-.03 5.38-.03 5.38-1.89 7.5L894 396l-.02-1.67q-.1-8.81-.24-17.63l-.09-6.53c-.14-13.44-.94-26.47-3.02-39.76A46 46 0 0 1 890 321" fill="#EEEEF1"/><path d="m902 577 2 1c.49 2.65.85 5.2 1.12 7.88l.26 2.35c.53 5.02.74 9.95.62 15 0 3.28.25 6.5.5 9.77.66 9 .59 17.98.5 27h-2l-1 13h-1z" fill="#CED0CF"/><path d="m764.81 221.75 3.72-.06 3.55-.02 3.23-.03c2.7.36 2.7.36 4.56 1.88L781 225l-2.8.06-15.05.36c-8.8.19-17.32.69-26.02 2.16-3.4.46-6.7.49-10.13.42v-2a158 158 0 0 1 16-3l3.35-.51c6.13-.76 12.3-.71 18.46-.74" fill="#F0F0F2"/><path d="M320.74 474.38c1.26 1.62 1.26 1.62 1.07 5.25l-.8 3.37-2 1 1-4h-2v-4c-14.7-5.7-31.72-3.48-46.05 2.64L269 480c1.36-3.31 2.48-4.66 5.75-6.12 11.84-4.8 35.05-8.16 46 .5" fill="#050502"/><path d="M999 141c18.24-.83 35.93 3.54 51 14l-1 2-2.05-.95c-12.81-5.89-24.74-11.11-38.97-11.84A39 39 0 0 1 1000 143z" fill="#E8E9E8"/><path d="m249.84 340.58 2.23 1.08 2.3 1.15 4.53 2.21 2.16 1.05a94 94 0 0 0 11.19 4.37l2.33.76 2.42.8q2.54.83 5.07 1.7l2.28.75 1.65.55-2 2c-5-.34-9.14-1.65-13.75-3.56q-.92-.39-1.9-.78L262 350l-5.2-2.18L243 342v-2c3.44-1.15 3.76-.94 6.84.58" fill="#E1E3E3"/><path d="M215 682c1 2 1 2 .44 3.78l-.88 2.16c-1.93 5.38-1.85 10.4-1.56 16.06l-7-2v2c-2.38.19-2.38.19-5 0l-2-3c3.27-1.88 6.28-2.49 10-3l2-10-9 4-2-2z" fill="#DADADC"/><path d="m493 581 2 1-1.94 1.36-2.62 1.83-2.76 1.92q-3.36 2.38-6.68 4.83c-3 2.06-3 2.06-5 2.06v2l2 2c-5.82 1.97-10.83 3.4-17 3a32 32 0 0 1 8.99-6.88l2.89-1.54 3-1.58c11.9-6.32 11.9-6.32 17.12-10" fill="#040605"/><path d="M235 477h2v2h2l1.14 3.08 1.55 4.17.81 2.19a300 300 0 0 0 6.71 16.3L250 507l-1 2c-1.88-.56-1.88-.56-4-2q-1.12-3.47-2-7l-1.5-2.88c-1.59-3.31-2.25-6.29-2.96-9.87-.79-3.29-2.13-6.18-3.54-9.25z" fill="#DDDEDE"/><path d="m875 698-1 4c-4.65.75-9.1 1.12-13.81 1.1l-3.76-.01-3.87-.03-3.95-.01L839 703v-1l14-1-6-1v-1l10.62-.5 3.03-.14c4.79-.23 9.56-.43 14.35-.36" fill="#CFD1CF"/><path d="m396 296 2.69.94C401 298 401 298 402 300l-3 1-2-1c-4.29-.9-7.68-.75-11.54 1.43-6.14 4.72-10.9 10.35-15.46 16.57-.7-1.76-.7-1.76-1-4 1.24-1.88 1.24-1.88 3.16-3.79l2.1-2.1 2.24-2.17 2.15-2.18c10.76-10.62 10.76-10.62 17.35-7.76" fill="#E0E0E1"/><path d="M216 351h1l.04 1.83c.31 11.34.79 22.43 3.03 33.58 1.23 6.25 1.23 6.25-.07 9.59l-3-1-.18-2.27-.26-2.98-.24-2.95A42 42 0 0 0 215 380c-.74-2.8-1.05-4.71-.56-7.58.7-4.26.91-8.48 1.12-12.8l.13-2.51z" fill="#D4D5D7"/><path d="M219 393c4.56 6.83 5.28 16.07 6.75 24.06l.42 2.24c.6 3.35.92 5.42-.17 8.7-2.25-5.3-4.33-10.24-5-16l-.5-2.5A74 74 0 0 1 219 393" fill="#E0E0E2"/><path d="m1001.25 89.88 2.24-.02c5.84.02 11.95.22 17.51 2.14l1 2-32-1v-2c3.78-1.25 7.32-1.14 11.25-1.12" fill="#F1F1F4"/><path d="m156 647 3 1-1.21 1.72c-6.83 9.96-8.35 17.42-8.79 29.28-2.32-2.45-2.98-3.72-3.25-7.14.74-10.45 3.38-16.98 10.25-24.86" fill="#EBEEEB"/><path d="m377 458 2 4h3v6l-5 1c-4-4.62-4-4.62-4-8l-5 2-1-3z" fill="#1A181A"/><path d="m373 461 2.93 5.18A98 98 0 0 0 379 471l-11 5v-2h2v-4h2v-2h2v-2l-3.31.5c-3.69.5-3.69.5-6.69.5l3.38-3 1.89-1.69C371 461 371 461 373 461" fill="#DCC079"/><path d="m406 448 2 2-2.28.01c-8.66.31-15.57 2.47-23.48 5.71C379 457 379 457 377 457v2l-6 1c9.26-8.34 22.5-13.64 35-12" fill="#030503"/><path d="m1116 165 3 1c-4.36 7.13-8.3 12.3-16.23 15.41-4.29.92-7.74.15-11.77-1.41v-1l1.91-.08c7.39-.49 13.25-1.85 18.4-7.42l1.69-2.5 1.75-2.31z" fill="#DEDDE0"/><path d="m278.13 476.94 2.75.03 2.13.03v3h-3l-1 6c-5.76-1.62-5.76-1.62-8-5v-3c2.51-1.26 4.3-1.1 7.12-1.06" fill="#DABB64"/><path d="M898 555h2c2.78 9.63 4.08 18.1 2 28h-1c-2.11-18.82-2.11-18.82-3-28" fill="#E1E1E2"/><path d="M890 435h3l-.22 3.25-.28 4.31-.14 2.14-.14 2.12-.14 2.11c-.08 1.99 0 3.98.08 5.97L892 458l-3 2a1221 1221 0 0 1-.09-10.99c-.02-4.78.29-9.29 1.09-14.01" fill="#F0F2F0"/><path d="M217 344c1.08 3.25.87 3.87 0 7a104 104 0 0 0-.44 6.75l-.12 2.5-.13 2.55-.31 6.2c-1.97-1.62-2.92-2.47-3.3-5.04l.25-4.83.17-2.63.11-2.63c.38-6.42.38-6.42 2.31-8.64z" fill="#F0F1F1"/><path d="M990 92a170 170 0 0 0 8.62.44l3.19.12 3.26.13 7.93.31v1l-2.54.08-9.41.29-6.04.19c-6.4.21-12.68.48-19.01 1.44v-3q2.09-.55 4.19-1.06l2.35-.6c2.78-.38 4.71.11 7.46.66" fill="#C3C3C5"/><path d="M904 610h1l.08 2.67.42 14.14.29 9.87c.18 2.88.62 5.5 1.21 8.32-.48 3.15-1.52 5.04-3 8z" fill="#F5F7F6"/><path d="M1059 103c4.21 2 8.1 4.29 12.03 6.79A83 83 0 0 0 1079 114v2c-5.1-.55-8.97-3.03-13.31-5.56l-2.25-1.29L1058 106z" fill="#E7E6E8"/><path d="m727 226 1 3-8.31 2-2.38.58-2.3.54-2.11.51c-1.9.37-1.9.37-4.9.37.62-1.94.62-1.94 2-4 2.69-.62 2.69-.62 6-1l3.62-1.06C723 226 723 226 727 226" fill="#E8E8EB"/><path d="m202 692-3.69 1.94-2.07 1.09c-4.41 1.91-8.67 2.13-13.43 2.16l-3.17.04C177 697 177 697 175 695l3-.11c12.02-.57 12.02-.57 16.69-2.51 3.44-1.43 4-1.46 7.31-.38" fill="#EDF0EF"/><path d="M215 682c1 2 1 2 .44 4.16l-.88 2.46-.87 2.48-.69 1.9-3-1 1-4-9 4-2-2z" fill="#D1D1D3"/><path d="M1074 174c4.09.44 7.62 1.55 11.44 3 4.25 1.6 8.04 2.6 12.56 3l-1 2c-9.1-.3-16.54-1.13-23-8" fill="#EAE9EB"/><path d="m361 564 3 1-2 4h-2l-1 3a104 104 0 0 1-6 4c0-4.75.86-5.6 4-9 2.06-1.88 2.06-1.88 4-3" fill="#DFE1DE"/><path d="m170 638 3 1a221 221 0 0 0 9.81.69l5.19.31v1l-3.66.08-4.84.17-2.4.04c-7.24.3-12.14 2.74-18.1 6.71v-3c1.64-1.32 1.64-1.32 3.81-2.56l2.15-1.26L167 640z" fill="#DDDEDD"/><path d="M321 477c1.94.62 1.94.62 4 2 .75 3.12.75 3.12 1 6q-1.93 1.04-3.88 2.06l-2.17 1.16-1.95.78-2-1 1.94-2.12c2.22-3.11 2.71-5.13 3.06-8.88" fill="#A8A987"/><path d="M662 694c11.04-.15 21.98.29 33 1v1c-7.02 1.1-13.91 1.1-21 1v-1l-12-1z" fill="#E1E4E1"/><path d="m352 571 2 1c-1.32 5.67-3.49 7.66-8 11v-3l-3-1z" fill="#E5E6E7"/><path d="M467 701c-3.58 2.39-5.14 3.13-9.35 3.1l-2.58-.01-2.69-.03-2.72-.01L443 704c7.31-3.83 15.92-3.15 24-3" fill="#E1E4E1"/><path d="M815 576c6.88 3.75 6.88 3.75 8 6l-1.38 1.75c-1.46 2.03-2.53 4-3.62 6.25l-1.5-5.31-.84-2.99C815 579 815 579 815 576" fill="#DEE0DE"/><path d="M283 474h7c1.12 3.75 1.12 3.75 0 6h-2v4l2 1h-3c-2.09-3.4-2.18-6.05-2-10z" fill="#261D0D"/><path d="m420 356 4 1c2.43 7.43 2.43 7.43 1 11h-3z" fill="#181A18"/><path d="m375 652 5 1c-2.3 2.54-4.67 4.07-7.69 5.69l-2.45 1.32-1.86.99 1-5h2l1-2 2 1z" fill="#1B1A1E"/><path d="M226 421c3.96 5.94 4.25 12.08 4 19h-2c-1.72-4.46-2.22-8.1-2.12-12.88l.05-3.49z" fill="#DCDDDE"/><path d="m980 148-2.88 1.12c-4.99 2.13-9.52 5.02-14.12 7.88v-3c1.79-1.57 1.79-1.57 4.19-3.12l2.35-1.58c3.83-2.03 6.31-2.68 10.46-1.3" fill="#EBECEA"/><path d="m1030.38 93.88 3.76 1.18q1.42.45 2.85.94l-1 2-6.12-.94-3.44-.53a804 804 0 0 1-9.44-1.53v-1c5.16-2.27 8.09-1.83 13.38-.12" fill="#D8D9DA"/><path d="m905 150 2 3-2 2-.38 2.81c-.73 3.74-1.99 5.48-4.62 8.19h-2c1.65-5.69 4.29-10.77 7-16" fill="#19191A"/><path d="m407 453 2 1c-13.14 12-13.14 12-20 12v-2l2.38-1.12c11.5-5.76 11.5-5.76 15.62-9.88" fill="#040805"/><path d="M220 384c2.67 3.48 4.15 5.58 4.19 10l.04 2.12C224 398 224 398 222 400a48 48 0 0 1-2-16" fill="#0B0B0E"/><path d="M811 228q2.38.43 4.75.88l2.67.49c2.45.6 4.39 1.41 6.58 2.63v2c-4.97-.51-9.29-1.23-14-3z" fill="#EAEAEE"/><path d="m156 647 3 1-2.81 4.25-1.58 2.39A151 151 0 0 1 150 661c.58-5.93 1.76-9.76 6-14" fill="#E4E7E4"/><path d="m494 331 4 2-12 6c2.19-4.39 3.91-5.51 8-8" fill="#E1E1E5"/><path d="M528 316c-4.24 3.83-8.78 5.86-14 8 .56-2.31.56-2.31 2-5 4.07-2.23 7.35-3.42 12-3" fill="#E3E3E6"/><path d="m559 296 2 1c-1 3-1 3-2.74 4.17l-2.14 1.02-2.11 1.04C552 304 552 304 549 304c1-3 1-3 2.75-4l2.25-1 2.62-1.69z" fill="#EDECEF"/><path d="m241 660 1 3-1 2 3 2-12 1a64 64 0 0 1 9-8" fill="#C5C8C6"/><path d="m178.52 636.96 2.85.41c3.86.55 6.83.58 10.63-.37v2c-3.3 1.65-6.99 1.1-10.63 1.06h-2.43L173 640c1.8-2.36 2.5-2.99 5.52-3.04" fill="#EFF2EF"/><path d="M913 235c1 3 1 3-.19 5.5-1.78 2.46-3.17 4.01-5.81 5.5l-3-1 1.46-1.43 1.92-1.88 1.89-1.87C911 238 911 238 913 235" fill="#DADBDC"/><path d="m999 141 6.25-.12 3.52-.08c3.06.19 4.67.59 7.23 2.2a43 43 0 0 1-9.62 1.25l-2.29.08c-2.6-.41-3.45-1.34-5.09-3.33" fill="#EFF2EF"/><path d="M271 531c4.86.61 8.74 2.73 13 5l-2 3c-4.28-2.31-7.72-4.33-11-8" fill="#EDEEF0"/><path d="m285 475 2 10-3-1-1-6-7-1c3.44-2.29 4.99-2.18 9-2" fill="#C3AB6C"/><path d="M367 460h7v2h4c0 4 0 4-1 7-4-4.62-4-4.62-4-8l-5 2z" fill="#2A1E0A"/><path d="M415 338c3 1 3 1 4.25 3.12.93 3.58.45 6.29-.25 9.88-2.88-4.31-4-7.81-4-13" fill="#18181A"/><path d="M467 349c-3.83 3.33-8.38 5.05-13 7v-3q2.4-1.3 4.81-2.56l2.71-1.44c2.48-1 2.48-1 5.48 0" fill="#E1E0E5"/><path d="M599 277c-1 3-1 3-3.75 4.69-3.1 1.25-4.97 1.6-8.25 1.31 1.8-1.8 3.27-2.86 5.44-4.12l1.81-1.08c1.75-.8 1.75-.8 4.75-.8" fill="#EDEEF0"/><path d="M1101 136c4.38.72 5.96 2.82 8.67 6.14A22 22 0 0 1 1113 149h-2c-1.44-1.71-1.44-1.71-3-3.94-2.79-3.96-2.79-3.96-5-5.06v-3z" fill="#18191A"/><path d="M590 283c-2.3 2.6-4.5 3.85-7.69 5.19l-2.45 1.04-1.86.77v-3c4.05-3.37 6.75-4.5 12-4" fill="#E1E0E2"/><path d="m807 227 3 1 1 3c-8.57-.86-8.57-.86-12-3 3.1-1.88 4.58-2.21 8-1" fill="#DADADD"/><path d="m237 594 3 1-2.88 3.44-1.61 1.93C234 602 234 602 232 603l-1-3 1.88-.75c2.47-1.46 3.07-2.63 4.12-5.25" fill="#DCDBDE"/><path d="M406 312c3.87 3.22 4.88 6.15 6 11l-2 2c-3.29-8.43-3.29-8.43-4-13" fill="#181818"/><path d="m630.31 531.31 1.7.7c-3.2 2.73-6.02 4.62-10 6 .18-1.82.18-1.82 1-4 4-3.15 4-3.15 7.3-2.7" fill="#232324"/><path d="M892 523c2.77 2.77 3.28 5.19 4 9-1.46 2.23-1.46 2.23-3 4l-1.66-9.28L891 524z" fill="#DBDBDD"/><path d="M930 208h1c.37 6.4.37 6.4-1.5 9.44L928 219l-3-1z" fill="#DCDBDD"/><path d="M1113 151h2c1.44 2.88 1.09 5.42 1.06 8.62l-.02 3.61-.04 2.77-1-3-2-1 1-3c-.12-2.04-.12-2.04-.44-4.19z" fill="#1F2021"/><path d="m872 268 2 1-2 10c-3-4-3-4-2.81-6.62C870 270 870 270 872 268" fill="#DADADB"/><path d="M934 201h2c-.61 4.13-2.04 7.33-4 11h-1c-.32-4.63.16-7.28 3-11" fill="#E6E5E7"/><path d="m243 659 .31 1.94.69 2.06 3 1 1 2h-8z" fill="#F2F4F4"/><path d="M904 602c2.6 3.9 2.15 7.47 2 12h-3q-.04-2.43-.06-4.88l-.04-2.74c.1-2.38.1-2.38 1.1-4.38" fill="#DFE3DF"/><path d="M316 472c2.47 1.15 4.05 2.05 6 4-.25 3.56-.25 3.56-1 7l-2 1 1-4h-2v-4l-2-2z" fill="#0B0A03"/><path d="M221 381h2l2 9h-2l-2-3-2 1c-.12-2.38-.12-2.38 0-5z" fill="#1C1C1E"/><path d="m487 338 1 4c-3.09 1.76-4.23 2-8 2 1-3 1-3 4.06-4.69z" fill="#1E2023"/><path d="M719 230c-3.53 2.12-6.94 2.53-11 3 1.44-3.73 1.44-3.73 3.81-4.88 2.82-.16 4.67.69 7.19 1.88" fill="#DADADC"/><path d="m212 693 2 4 2-1v7l-3 1c-1.2-2.41-1.1-3.95-1.06-6.62l.02-2.48z" fill="#38393B"/><path d="m364 663 1 2 3 2-12 2c4.5-4.5 4.5-4.5 8-6" fill="#DFDFDF"/><path d="m340 581 2 1-1.44 1.31C339 585 339 585 338 588c-3.56 1.69-3.56 1.69-7 3 1.38-3.21 2.92-5.05 5.62-7.25l1.92-1.58z" fill="#E4E5E3"/><path d="M363 468c0 2.84-.4 5.24-1 8h5l-2 2c-2.62-.38-2.62-.38-5-1 .75-6.75.75-6.75 3-9" fill="#D6C181"/><path d="M851 618c2.86 2.86 2.96 6.1 3 10-.94 2.5-.94 2.5-2 4-.95-4.76-1.08-9.17-1-14" fill="#2A282B"/><path d="m433.25 617.31 1.75.7c-2.37 2.6-4.94 4.25-8 6 0-4 0-4 1.75-5.82 2.25-1.19 2.25-1.19 4.5-.88" fill="#1D1E1F"/><path d="M892 419c1.98 2.92 1.99 4.12 1.62 7.75L893 430c-2-2-2-2-2.23-3.91.12-5.98.12-5.98 1.23-7.09" fill="#F2F2F5"/><path d="m225 415 5 1 1 4-3 2-2-1c-.62-3.06-.62-3.06-1-6" fill="#18191A"/><path d="m472 343 2 1Zm1 2c-2.13 2.45-3.71 3.68-7 4l-2-2c5.62-3.12 5.62-3.12 9-2" fill="#EFEFF4"/><path d="m633.75 259.31 2.25.7c-3.13 2.63-6.09 3.83-10 5 1.4-4.2 3.16-6.22 7.75-5.7" fill="#E0DFDF"/><path d="m792 224 4.44.88 2.49.49 2.07.63 1 2c-7.43.29-7.43.29-11-2z" fill="#F1F1F3"/><path d="M874 202c.71 1.77.71 1.77 1 4-1.43 1.92-1.43 1.92-3.44 3.75l-1.99 1.86L868 213l-2-1 2.31-2.19A34 34 0 0 0 874 202" fill="#ECEDEF"/><path d="M202 692q-1.9 1.05-3.81 2.06l-2.15 1.16C194 696 194 696 191 695h2v-2c3.53-1.67 5.28-2.14 9-1" fill="#DFDFDF"/><path d="m644 522 3 1v2l-7 3-2-2h2v-2h4z" fill="#1F2023"/><path d="M219 393c3.22 4.84 3.09 7.27 3 13-3.22-4.84-3.09-7.27-3-13" fill="#E2E2E6"/><path d="M1109 171h2c-1.08 3.13-2.01 4.01-4.88 5.81-3.27 1.25-3.97 1.19-7.12.19l3.88-2 2.17-1.12c1.95-.88 1.95-.88 3.95-.88z" fill="#0A0A0B"/><path d="M217 617c-1.39 3.37-2.98 4.99-6 7v-4c3.21-3 3.21-3 6-3" fill="#D8D8D9"/><path d="m615 538 2 1v2l-7 3-2-2c5.27-3.22 5.27-3.22 7-4" fill="#1C1D1C"/><path d="M444 484c1 2 1 2 .58 3.91l-.77 2.15-.73 2.16C442 494 442 494 439.89 494.75L438 495c1.45-4.11 3.51-7.43 6-11" fill="#030604"/><path d="M289 487a532 532 0 0 1 6.25 3.81L297 492v1l-10-1 3-1z" fill="#AFA272"/><path d="m322 480 4 1-1 5h-3z" fill="#DAC67C"/><path d="M236 468c2.12 3.53 2.53 6.94 3 11h-2c-1.98-2.92-1.99-4.12-1.62-7.75z" fill="#D1D3D4"/><path d="m286 355-2 2c-3.62-.38-3.62-.38-7-1v-2c3.77-1.26 5.37-.37 9 1" fill="#D9D9DC"/><path d="M400 300c2.38.19 2.38.19 5 1 1.31 2.56 1.31 2.56 2 5-1.81-.19-1.81-.19-4-1-1.75-2.56-1.75-2.56-3-5" fill="#ECECEF"/><path d="M937 192h2c-.5 3.73-.87 5.81-3 9h-2z" fill="#D9D8DC"/><path d="M235 477h2v2h2l1 7c-3.25-2.83-4.52-4.69-5-9" fill="#EDF0F0"/><path d="m400 297 2 3c-3.3 1.1-4.4.87-7.69.06l-2.45-.59L390 299v-1c3.39-.77 6.53-1.38 10-1" fill="#C7C8C7"/><path d="m872 277 3 1c1.69 3.56 1.69 3.56 3 7-1.88-.25-1.88-.25-4-1-1.72-2.58-2-3.85-2-7" fill="#ECEBED"/><path d="M669 248c-3.83 2.71-6.33 3.33-11 3 3.32-3.32 6.49-4.67 11-3" fill="#201F21"/><path d="m1020 91 2 3h-9v-2c2.53-1.27 4.19-1.28 7-1" fill="#EFF0F2"/><path d="m289 485 3 1v2h4l1 3c-2.78-.38-4.59-.67-6.81-2.44C289 487 289 487 289 485" fill="#191205"/><path d="m396 296-1 2c-2.65.59-5.29.74-8 1v-2c3.43-1.62 5.38-2.34 9-1" fill="#EEEFEE"/><path d="M1068 169c3.87.57 6.08 2.49 9 5-3.73-.5-5.81-.87-9-3z" fill="#DCDADE"/><path d="m154 685 9 5-3 2a169 169 0 0 1-6-5z" fill="#DFE1E1"/><path d="M200 632v2c-5.41 4-5.41 4-8 4 1.27-3.81 3.81-6 8-6" fill="#DBDEDC"/><path d="M249 502h2l1 9c-1.89-2.39-3.02-4.07-4-7z" fill="#19191B"/><path d="M227 440h3a41 41 0 0 1 1 6l-2 3-.44-2.25q-.69-3.4-1.56-6.75" fill="#E9ECEB"/><path d="M226 421c2.57 3.85 2.55 6.43 3 11l-3-1z" fill="#C3C3C6"/><path d="m219 364 2 2c-.24 2.38-.24 2.38-.88 5.12l-.61 2.76L219 376h-1c-.14-8.57-.14-8.57 1-12" fill="#0F1112"/><path d="m481 342-8 4-1-2h2v-2c3-1 3-1 7 0" fill="#E1E3E6"/><path d="M883 305h2l2 9h-2z" fill="#252724"/><path d="m571.19 294.38 1.8.62c-.32.5-.32.5-2 3-2.61.19-2.61.19-5 0v-2c3-2 3-2 5.2-1.62" fill="#171919"/><path d="m896 249 2 1c-.75 1.94-.75 1.94-2 4-2.12.75-2.12.75-4 1 1.15-2.47 2.05-4.05 4-6" fill="#1A1C1B"/><path d="M311 605c0 3.91-1.51 5.12-4 8l-2-1c1.39-3.37 2.98-4.99 6-7" fill="#E5E6E5"/><path d="M636 531c-.75 1.94-.75 1.94-2 4-2.12.75-2.12.75-4 1v-3c3.75-2 3.75-2 6-2" fill="#E6E7E7"/><path d="M232 465h3l1 7-3-1z" fill="#F1F1F3"/><path d="M362 464h2l1 3-4 3c-.62-1.88-.62-1.88-1-4z" fill="#231C17"/><path d="M889 314c1.62 1.69 1.62 1.69 3 4-.81 2.75-.81 2.75-2 5-1.62-2.57-2.04-3.68-1.62-6.75z" fill="#D8D9DB"/><path d="M384 302c0 3 0 3-2 5.19l-2 1.81-3-1z" fill="#242325"/><path d="m392 300 5 1-1 3h-5z" fill="#191919"/><path d="m565 293 3 3-7 3v-3c2-1.69 2-1.69 4-3" fill="#E0E2E2"/><path d="m827 232 4 2v2l-8-1z" fill="#D9D9DE"/><path d="M889 177h2l-1 2zm-1 3h1v5h-4q1.45-2.52 3-5" fill="#F1EFF3"/><path d="m891 174 2 1c-.53 3.82-1.5 6.06-4 9l.44-4.44.24-2.49C890 175 890 175 891 174" fill="#DCDBDE"/><path d="M318 609h2l-3 6-3-1q1.92-2.56 4-5" fill="#090A0F"/><path d="M255 517c3.16 1.37 3.99 1.99 6 5l-5-1z" fill="#DEDEE1"/><path d="M546 303q2.51.43 5 1c-2.39 1.89-4.07 3.02-7 4 .88-3.88.88-3.88 2-5" fill="#DADADE"/></svg>