<svg style="background:transparent" version="1.1" xmlns="http://www.w3.org/2000/svg" viewBox="0 0 1248 704"><path d="M332.09 155.14c4.42 1.06 8.2 2.08 11.9 4.86.18.33.18.33 1 2 2.95 2 4.4 3 8 3a85 85 0 0 1 3 5c5.73 8.42 12.8 15.86 20 23l2.45 2.5c2.56 2.5 2.56 2.5 5.38 4.69l2.18 1.8v2c3.95 2.2 7.49 3 12 3l3.69 1c4.85 1.27 9.66 1.75 14.56.39 2.45-.53 3.54.5 5.75 1.62a96 96 0 0 0 16 3l2.09.34c5.35.54 8-.75 12.23-4.1q2.38-2.07 4.68-4.24l2.1-1.95c1.9-2.05 1.9-2.05 3.34-4.51 1.84-2.98 3.96-4.84 6.63-7.1 3.19-2.71 5.1-4.72 6.93-8.44 3.62-2.84 6.9-4.06 11.5-3.81a28.7 28.7 0 0 1 13.44 14.88c1.23 3.92 1.65 7.85 2.06 11.93l1 3c.03 2.42-.06 4.82-.16 7.24.16 2.76.16 2.76 1.16 6.07 1.1 4.08 1.27 7.82 1.19 12l-.02 2.33a482 482 0 0 1-.72 19.79c-.32 5.45-.32 5.45-1.45 6.57q-.1 3.53-.06 7.07l.03 3.9.03 3.03 2.94.88C510 279 510 279 511 281l7.94.07 2.29.02q2.88 0 5.77-.1l1-1q2.92 0 5.8.04c4.12-.05 7.92-.48 11.7-2.1 3.25-1.21 6.06-1 9.5-.93a93 93 0 0 0 9.78-2.3l2.73-.77 2.87-.8a251 251 0 0 1 23.63-5.5c2.85-.6 5.3-1.53 7.99-2.63q2.99-.39 5.97-.72c3.1-.42 6.03-1.4 9.03-2.28 3.33-.72 6.66-1.36 10-2l2.64-.6c2.36-.4 2.36-.4 4.99.17C637 260 637 260 640 258q2.49-.01 4.98.04c5.8.07 5.8.07 8.02-1.04 2.5-.07 4.99 0 7.5.07 2.5-.07 2.5-.07 4.36-.57 4.36-1.01 8.98-.45 13.42-.34 3.66-.15 6.3-.95 9.72-2.16q3.51.43 7 1l2.69-.56c2.89-.54 3.78.22 6.3 1.56 3.14.23 5 0 8-1q3 .72 5.95 1.52c2.73.64 5.28.6 8.06.48 2.74 0 4.75.36 7.38 1 3.3.77 6.22 1.1 9.62 1 7.98 1.26 15.47 4.2 23 7l5.69 2.07c20.73 7.54 20.73 7.54 29.63 13.3 3.12 2.02 6.23 3.98 9.5 5.76 5.47 3.22 9.72 7.4 14.18 11.87q2.48 2.04 5 4c2.07 1.62 4.04 3.26 6 5v2l2 .34A94 94 0 0 1 870 324l2.3 1.53a51 51 0 0 1 10.34 9.83 32 32 0 0 0 3.86 4.02c2.8 2.93 4.89 6.04 7.07 9.44a39 39 0 0 0 2.86 4c2.19 3.04 3.89 6.3 5.64 9.62l1.06 1.99c3.36 6.32 5.54 12.62 7.44 19.5.1.4.1.4.67 2.39a94 94 0 0 1 3.26 19.12c.26 3.6.54 7.18 1.13 10.75.37 2.8.37 2.8-.63 4.8q-.3 2.52-.5 5.03l-.25 3.04-.25 3.19c-1.26 15.95-1.26 15.95-4 23.75l-3 9.88a94 94 0 0 1-5 12.3c-1.84 4.1-2.8 8.06-3.57 12.48-.58 3.18-1.51 6.24-2.43 9.34-2.17 7.66-2.17 7.66-1 10a94 94 0 0 1-.94 6.7c-.07 2.72.67 3.96 1.94 6.3q.44 2.11.75 4.25c1.4 6.6 5.04 11 10.25 15.13 5.55 3 10.79 3.96 17 4.62l3.44.5c18.6 2.6 18.6 2.6 26.69-.77 2.56-1 5.16-1.31 7.87-1.73l2.32-.93c8.85-3.5 21.05-5.4 30.28-2.16a32 32 0 0 1 5.4 4.09l1.74 1.5c3.13 2.88 5.2 5.38 6.26 9.5l.65 1.96c.94 3.87.92 6.1-1.17 9.57-7.28 8.54-16.35 15.18-27.3 17.89-2.18.58-2.18.58-5.36 2.2-3.3 1.62-6.2 1.88-9.82 2.38q-1.92.71-3.81 1.5c-3.96 1.59-7.7 2-11.94 2.32-2.47.2-4.82.67-7.25 1.18-11.93 1.89-24.92 2.13-36.38-2.05-2.7-.98-5.41-1.86-8.14-2.74-17.92-5.83-17.92-5.83-23.48-12.21a19 19 0 0 0-5.32-4.27c-7.57-4.88-12.61-13.83-17.17-21.41C850 551 850 551 848.34 549.5c-2.33-2.62-1.76-5.87-1.83-9.23-.51-2.28-.51-2.28-2.54-3.6q-.97-.32-1.97-.68l.63-1.81c.37-2.2.37-2.2-1.63-5.2l2-3a101 101 0 0 0-2-7c0-3.22.82-5.02 2-8v-3q.45-2 1-4l.85-3.1c1.42-4.97 3.24-9.8 5.03-14.66A57 57 0 0 0 853 474q.39-2.6.82-5.18l.39-2.55c.99-2.82 2.29-3.71 4.79-5.27l-1-4 4-2-.1-1.82c-.17-5.02-.01-7.2 3.1-11.18.42-2.23.63-4.42.79-6.68.2-2.32.2-2.32.7-4.7.6-3.05.89-6.07 1.14-9.18l.29-3.38c.07-2.7-.17-4.51-.92-7.06v-3c-.72-8.96-.72-8.96-4-13h-3c-.75 1.75-.75 1.75-1 4 1.94 2.25 1.94 2.25 4 4-3 2-3 2-5 2 0 .47 0 .47.07 2.82C858 411 858 411 857 414l-.43 3.82c-.42 3.6-1.4 6.74-2.57 10.18l-.43 3.38c-.53 3.39-1.54 6.15-2.81 9.33-1.22 3.69-1.7 7.48-2.3 11.32-2.18 13.96-2.18 13.96-6.4 19.54-2.65 3.78-3.37 8.07-4.35 12.53A56 56 0 0 1 835 492l-.5 3.57A19 19 0 0 1 832 503q-1.05 3.5-2 7l-1.06 3.38a63 63 0 0 0-1.7 10.5A47 47 0 0 1 826 530a108 108 0 0 0-.93 18.07C825 550 825 550 824 551q.01 2.76.13 5.5c.05 5.02-.61 8.78-2.4 13.42a25 25 0 0 0-1.23 6.15 37 37 0 0 1-2.67 9.85c-1.17 2.96-2.12 5.98-3.08 9-.76 2.13-1.74 4.06-2.75 6.08a161 161 0 0 0-1.5 4.38l-.77 2.38L809 610a172 172 0 0 1-4 11l-.93 2.94c-1.65 4.76-3.41 8.58-7.07 12.06v2l2.82-.12C803 638 803 638 806 640q3.21.75 6.45 1.3l3.93.7 2.07.37c36.76 6.59 36.76 6.59 44.55 15.63 1.32 2.5 1.32 2.5 1 5-4.16 6.8-10.72 9.33-18.27 11.16q-2.33.48-4.66.9l-2.63.5c-13.55 2.35-27.36 3.26-41.07 4.27q-2.73.2-5.48.43c-8.44.67-16.81.88-25.27.84h-3.96l-10.26-.03-10.5-.02-18.35-.04c-5.52-.01-5.52-.01-8.55.99l-1-1a132 132 0 0 0-5.97-.31l-3.95-.12-4.37-.12-2.26-.06c-20.58-.57-41.17-.6-61.76-.57h-3.01c-27.18 0-54.3.13-81.44 1.8-7.1.44-14.18.8-21.27 1.18a4287 4287 0 0 0-93.43 5.66q-15.86 1.14-31.72 2.17l-5.6.37-12.85.85-6.84.45c-51.51 3.43-51.51 3.43-69.53-7.3l-4-4-2.56-1c-2.84-1.16-3.81-2.44-5.44-5 4.5-4.64 8.87-4.76 15-5 0-2.93-1.54-4.2-3.31-6.5-4.58-6.5-7.45-12.5-6.25-20.56 2.42-9.18 7.47-14.66 15.55-19.44a71 71 0 0 1 12.29-4.57c7.45-2.52 12.55-7.4 17.04-13.65 1.88-2.54 3.87-4.96 5.87-7.4a53 53 0 0 0 6.8-10.88q2.14-3 4.39-5.9 1.67-2.16 3.28-4.4l1.59-2.2 1.46-2.03L373 571h2l.82-2.62A55 55 0 0 1 382 556h2l.38-2.25A28 28 0 0 1 387 547v-3l3-1c1.19-2.06 1.19-2.06 2-4h2l-.62-2.25c-.42-3.07 0-4.17 1.62-6.75l-2-2c-5.42 6.29-5.42 6.29-7 10h-2c-1.43 1.53-1.43 1.53-3 3.5-1.56 1.97-1.56 1.97-3 3.5h-2l-.66 1.69c-1.76 3.05-4.01 4.93-6.65 7.25-4.7 4.15-9.22 8.26-13.2 13.13C353 570 353 570 350.45 572c-2.44 2-2.44 2-4.25 4.82a29 29 0 0 1-6.06 6.56c-3.6 3-6.25 6.18-8.9 10.02C330 595 330 595 328 596l-1.31 2.2c-6.83 11.34-19.66 23.55-32.7 26.8l-2.38.72c-6.36 1.65-10.68 1.02-16.61-1.72l-2.9-1.32c-5.91-3.2-12.04-7.87-15.28-13.88-2.01-7.54-1.37-17.27 2-24.3q1.05-1.77 2.18-3.5l1.63-2.68c5.8-5.65 14.13-8.33 21.87-10.13 8.56-2.9 14.29-11.14 19.5-18.2l1.4-1.81q4.77-6.28 9.08-12.88 1.56-2.37 3.2-4.7l1.64-2.35 1.48-2.11c1.34-2.38 1.8-4.45 2.2-7.14l1.82-.12c3.3-1.33 3.7-3.7 5.18-6.88q1.77-2.45 3.56-4.88c1.78-2.6 3.28-5.31 4.82-8.05a58 58 0 0 1 9.14-12.25c1.76-2.15 2.5-4.23 3.48-6.82q1.45-2.56 3-5.06c2.84-4.61 2.84-4.61 4-7.01a34 34 0 0 1 3.94-5.74c2.72-3.56 4.35-7.03 6.06-11.2q2.17-3.74 4.45-7.44c3.03-4.97 5.96-9.97 8.18-15.36 1.37-3.2 1.37-3.2 2.94-5.25 1.88-2.53 2.67-4.88 3.43-7.94q-.47-2-1-4-.09-2.37-.06-4.75l.03-2.42.03-1.83a93 93 0 0 0-11.75-2.81c-4.75-.93-8.76-2.6-13.11-4.7a175 175 0 0 0-9.27-4.1l-4.12-1.71a51 51 0 0 1-11.16-6.54c-1.6-1.14-1.6-1.14-4.9-2.82-6.46-3.57-12.54-9.66-15.7-16.32a84 84 0 0 0-3.24-3.81l-1.87-2.11-3.53-3.9c-5.4-6.11-8.74-11.71-9.85-19.86C297 330 297 330 296 329a68 68 0 0 1-.12-4.75l-.01-2.61c.13-2.64.59-5.05 1.13-7.64q.29-2.7.5-5.37c.98-11.16.98-11.16 2.44-15.24 1.33-4.23 1.98-8.44 2.63-12.82l.38-2.5q.84-5.47 1.58-10.98c.49-3.21 1.45-6.01 2.47-9.1q.51-3.48 1-7a261 261 0 0 1 3.13-10.55c.85-3.34.95-6.01.87-9.44l1-5v-2.5c0-2.5 0-2.5.5-4.93.5-2.57.5-2.57.5-5.5 0-3.17.47-5.95 1-9.07 1-9.16 1-9.16 1-13.7 0-2.57.49-4.78 1-7.3q.24-2.1.44-4.18L318 174l.27-2.56c.95-6.75 3.39-10.25 8.73-14.44 3-2 3-2 5.09-1.86M397.99 532l1 2 1-2z" fill="#121413"/><path d="M332.09 155.14c4.42 1.06 8.2 2.08 11.9 4.86.18.33.18.33 1 2 2.95 2 4.4 3 8 3a85 85 0 0 1 3 5c5.73 8.42 12.8 15.86 20 23l2.45 2.5c2.56 2.5 2.56 2.5 5.38 4.69l2.18 1.8v2c3.95 2.2 7.49 3 12 3l3.69 1c4.85 1.27 9.66 1.75 14.56.39 2.45-.53 3.54.5 5.75 1.62a96 96 0 0 0 16 3l2.09.34c5.35.54 8-.75 12.23-4.1q2.38-2.07 4.68-4.24l2.1-1.95c1.9-2.05 1.9-2.05 3.34-4.51 1.84-2.98 3.96-4.84 6.63-7.1 3.19-2.71 5.1-4.72 6.93-8.44 3.62-2.84 6.9-4.06 11.5-3.81a28.7 28.7 0 0 1 13.44 14.88c1.23 3.92 1.65 7.85 2.06 11.93l1 3c.03 2.42-.06 4.82-.16 7.24.16 2.76.16 2.76 1.16 6.07 1.1 4.08 1.27 7.82 1.19 12l-.02 2.33a482 482 0 0 1-.72 19.79c-.32 5.45-.32 5.45-1.45 6.57q-.1 3.53-.06 7.07l.03 3.9.03 3.03 2.94.88C510 279 510 279 511 281l7.94.07 2.29.02q2.88 0 5.77-.1l1-1q2.92 0 5.8.04c4.12-.05 7.92-.48 11.7-2.1 3.25-1.21 6.06-1 9.5-.93a93 93 0 0 0 9.78-2.3l2.73-.77 2.87-.8a251 251 0 0 1 23.63-5.5c2.85-.6 5.3-1.53 7.99-2.63q2.99-.39 5.97-.72c3.1-.42 6.03-1.4 9.03-2.28 3.33-.72 6.66-1.36 10-2l2.64-.6c2.36-.4 2.36-.4 4.99.17C637 260 637 260 640 258q2.49-.01 4.98.04c5.8.07 5.8.07 8.02-1.04 2.5-.07 4.99 0 7.5.07 2.5-.07 2.5-.07 4.36-.57 4.36-1.01 8.98-.45 13.42-.34 3.66-.15 6.3-.95 9.72-2.16q3.51.43 7 1l2.69-.56c2.89-.54 3.78.22 6.3 1.56 3.14.23 5 0 8-1q3 .72 5.95 1.52c2.73.64 5.28.6 8.06.48 2.74 0 4.75.36 7.38 1 3.3.77 6.22 1.1 9.62 1 7.98 1.26 15.47 4.2 23 7l5.69 2.07c20.73 7.54 20.73 7.54 29.63 13.3 3.12 2.02 6.23 3.98 9.5 5.76 5.47 3.22 9.72 7.4 14.18 11.87q2.48 2.04 5 4c2.07 1.62 4.04 3.26 6 5v2l2 .34A94 94 0 0 1 870 324l2.3 1.53a51 51 0 0 1 10.34 9.83 32 32 0 0 0 3.86 4.02c2.8 2.93 4.89 6.04 7.07 9.44a39 39 0 0 0 2.86 4c2.19 3.04 3.89 6.3 5.64 9.62l1.06 1.99c3.36 6.32 5.54 12.62 7.44 19.5.1.4.1.4.67 2.39a94 94 0 0 1 3.26 19.12c.26 3.6.54 7.18 1.13 10.75.37 2.8.37 2.8-.63 4.8q-.3 2.52-.5 5.03l-.25 3.04-.25 3.19c-1.26 15.95-1.26 15.95-4 23.75l-3 9.88a94 94 0 0 1-5 12.3c-1.84 4.1-2.8 8.06-3.57 12.48-.58 3.18-1.51 6.24-2.43 9.34-2.17 7.66-2.17 7.66-1 10a94 94 0 0 1-.94 6.7c-.07 2.72.67 3.96 1.94 6.3q.44 2.11.75 4.25c1.4 6.6 5.04 11 10.25 15.13 5.55 3 10.79 3.96 17 4.62l3.44.5c18.6 2.6 18.6 2.6 26.69-.77 2.56-1 5.16-1.31 7.87-1.73l2.32-.93c8.85-3.5 21.05-5.4 30.28-2.16a32 32 0 0 1 5.4 4.09l1.74 1.5c3.13 2.88 5.2 5.38 6.26 9.5l.65 1.96c.94 3.87.92 6.1-1.17 9.57-7.28 8.54-16.35 15.18-27.3 17.89-2.18.58-2.18.58-5.36 2.2-3.3 1.62-6.2 1.88-9.82 2.38q-1.92.71-3.81 1.5c-3.96 1.59-7.7 2-11.94 2.32-2.47.2-4.82.67-7.25 1.18-11.93 1.89-24.92 2.13-36.38-2.05-2.7-.98-5.41-1.86-8.14-2.74-17.92-5.83-17.92-5.83-23.48-12.21a19 19 0 0 0-5.32-4.27c-7.57-4.88-12.61-13.83-17.17-21.41C850 551 850 551 848.34 549.5c-2.33-2.62-1.76-5.87-1.83-9.23-.51-2.28-.51-2.28-2.54-3.6q-.97-.32-1.97-.68l.63-1.81c.37-2.2.37-2.2-1.63-5.2l2-3a101 101 0 0 0-2-7c0-3.22.82-5.02 2-8v-3q.45-2 1-4l.85-3.1c1.42-4.97 3.24-9.8 5.03-14.66A57 57 0 0 0 853 474q.39-2.6.82-5.18l.39-2.55c.99-2.82 2.29-3.71 4.79-5.27l-1-4 4-2-.1-1.82c-.17-5.02-.01-7.2 3.1-11.18.42-2.23.63-4.42.79-6.68.2-2.32.2-2.32.7-4.7.6-3.05.89-6.07 1.14-9.18l.29-3.38c.07-2.7-.17-4.51-.92-7.06v-3c-.72-8.96-.72-8.96-4-13h-3c-.75 1.75-.75 1.75-1 4 1.94 2.25 1.94 2.25 4 4-3 2-3 2-5 2 0 .47 0 .47.07 2.82C858 411 858 411 857 414l-.43 3.82c-.42 3.6-1.4 6.74-2.57 10.18l-.43 3.38c-.53 3.39-1.54 6.15-2.81 9.33-1.22 3.69-1.7 7.48-2.3 11.32-2.18 13.96-2.18 13.96-6.4 19.54-2.65 3.78-3.37 8.07-4.35 12.53A56 56 0 0 1 835 492l-.5 3.57A19 19 0 0 1 832 503q-1.05 3.5-2 7l-1.06 3.38a63 63 0 0 0-1.7 10.5A47 47 0 0 1 826 530a108 108 0 0 0-.93 18.07C825 550 825 550 824 551q.01 2.76.13 5.5c.05 5.02-.61 8.78-2.4 13.42a25 25 0 0 0-1.23 6.15 37 37 0 0 1-2.67 9.85c-1.17 2.96-2.12 5.98-3.08 9-.76 2.13-1.74 4.06-2.75 6.08a161 161 0 0 0-1.5 4.38l-.77 2.38L809 610a172 172 0 0 1-4 11l-.93 2.94c-1.65 4.76-3.41 8.58-7.07 12.06v2l2.82-.12C803 638 803 638 806 640q3.21.75 6.45 1.3l3.93.7 2.07.37c36.76 6.59 36.76 6.59 44.55 15.63 1.32 2.5 1.32 2.5 1 5-4.16 6.8-10.72 9.33-18.27 11.16q-2.33.48-4.66.9l-2.63.5c-13.55 2.35-27.36 3.26-41.07 4.27q-2.73.2-5.48.43c-8.44.67-16.81.88-25.27.84h-3.96l-10.26-.03-10.5-.02-18.35-.04c-5.52-.01-5.52-.01-8.55.99l-1-1a132 132 0 0 0-5.97-.31l-3.95-.12-4.37-.12-2.26-.06c-20.58-.57-41.17-.6-61.76-.57h-3.01c-27.18 0-54.3.13-81.44 1.8-7.1.44-14.18.8-21.27 1.18a4287 4287 0 0 0-93.43 5.66q-15.86 1.14-31.72 2.17l-5.6.37-12.85.85-6.84.45c-51.51 3.43-51.51 3.43-69.53-7.3l-4-4-2.56-1c-2.84-1.16-3.81-2.44-5.44-5 4.5-4.64 8.87-4.76 15-5 0-2.93-1.54-4.2-3.31-6.5-4.58-6.5-7.45-12.5-6.25-20.56 2.42-9.18 7.47-14.66 15.55-19.44a71 71 0 0 1 12.29-4.57c7.45-2.52 12.55-7.4 17.04-13.65 1.88-2.54 3.87-4.96 5.87-7.4a53 53 0 0 0 6.8-10.88q2.14-3 4.39-5.9 1.67-2.16 3.28-4.4l1.59-2.2 1.46-2.03L373 571h2l.82-2.62A55 55 0 0 1 382 556h2l.38-2.25A28 28 0 0 1 387 547v-3l3-1c1.19-2.06 1.19-2.06 2-4h2l-.62-2.25c-.42-3.07 0-4.17 1.62-6.75l-2-2c-5.42 6.29-5.42 6.29-7 10h-2c-1.43 1.53-1.43 1.53-3 3.5-1.56 1.97-1.56 1.97-3 3.5h-2l-.66 1.69c-1.76 3.05-4.01 4.93-6.65 7.25-4.7 4.15-9.22 8.26-13.2 13.13C353 570 353 570 350.45 572c-2.44 2-2.44 2-4.25 4.82a29 29 0 0 1-6.06 6.56c-3.6 3-6.25 6.18-8.9 10.02C330 595 330 595 328 596l-1.31 2.2c-6.83 11.34-19.66 23.55-32.7 26.8l-2.38.72c-6.36 1.65-10.68 1.02-16.61-1.72l-2.9-1.32c-5.91-3.2-12.04-7.87-15.28-13.88-2.01-7.54-1.37-17.27 2-24.3q1.05-1.77 2.18-3.5l1.63-2.68c5.8-5.65 14.13-8.33 21.87-10.13 8.56-2.9 14.29-11.14 19.5-18.2l1.4-1.81q4.77-6.28 9.08-12.88 1.56-2.37 3.2-4.7l1.64-2.35 1.48-2.11c1.34-2.38 1.8-4.45 2.2-7.14l1.82-.12c3.3-1.33 3.7-3.7 5.18-6.88q1.77-2.45 3.56-4.88c1.78-2.6 3.28-5.31 4.82-8.05a58 58 0 0 1 9.14-12.25c1.76-2.15 2.5-4.23 3.48-6.82q1.45-2.56 3-5.06c2.84-4.61 2.84-4.61 4-7.01a34 34 0 0 1 3.94-5.74c2.72-3.56 4.35-7.03 6.06-11.2q2.17-3.74 4.45-7.44c3.03-4.97 5.96-9.97 8.18-15.36 1.37-3.2 1.37-3.2 2.94-5.25 1.88-2.53 2.67-4.88 3.43-7.94q-.47-2-1-4-.09-2.37-.06-4.75l.03-2.42.03-1.83a93 93 0 0 0-11.75-2.81c-4.75-.93-8.76-2.6-13.11-4.7a175 175 0 0 0-9.27-4.1l-4.12-1.71a51 51 0 0 1-11.16-6.54c-1.6-1.14-1.6-1.14-4.9-2.82-6.46-3.57-12.54-9.66-15.7-16.32a84 84 0 0 0-3.24-3.81l-1.87-2.11-3.53-3.9c-5.4-6.11-8.74-11.71-9.85-19.86C297 330 297 330 296 329a68 68 0 0 1-.12-4.75l-.01-2.61c.13-2.64.59-5.05 1.13-7.64q.29-2.7.5-5.37c.98-11.16.98-11.16 2.44-15.24 1.33-4.23 1.98-8.44 2.63-12.82l.38-2.5q.84-5.47 1.58-10.98c.49-3.21 1.45-6.01 2.47-9.1q.51-3.48 1-7a261 261 0 0 1 3.13-10.55c.85-3.34.95-6.01.87-9.44l1-5v-2.5c0-2.5 0-2.5.5-4.93.5-2.57.5-2.57.5-5.5 0-3.17.47-5.95 1-9.07 1-9.16 1-9.16 1-13.7 0-2.57.49-4.78 1-7.3q.24-2.1.44-4.18L318 174l.27-2.56c.95-6.75 3.39-10.25 8.73-14.44 3-2 3-2 5.09-1.86m-6.1 4.86c-3.64 5.35-4.8 9.82-5.5 16.19l-.34 2.87c-.83 7.2-1.46 14.42-2.08 21.64l-.25 2.89q-.63 7.2-1.2 14.44A189 189 0 0 1 311 251a851 851 0 0 0-3 14l-.45 2.12c-4 18.7-7.86 37.76-7.98 56.95l-.03 2.6c.1 7.72 1.46 15.79 6.59 21.83l1.85 2.22L310 353l2.2 2.5q2.3 2.55 4.62 5.09 2.9 3.22 5.68 6.54c16.89 19.25 41.32 27.02 65.5 32.87l.19 2.7.25 3.55.25 3.52c.3 3.23.3 3.23.94 5.2.47 2.56-.03 3.5-1.26 5.77l-1.17 2.2-1.32 2.38-1.36 2.5q-2.25 4.1-4.52 8.18l-1.57 2.85a852 852 0 0 1-21.32 36.35q-2.12 3.46-4.17 6.99a267 267 0 0 1-7.38 11.5q-4.96 7.4-9.86 14.83l-6 9.06-3.01 4.58C297 567.3 297 567.3 277.44 572.88c-6.96 2.1-11.05 4.35-14.96 10.53-3.92 7.55-4.97 14.86-2.81 23.14 2.79 7.24 7.77 11.32 14.52 14.83 8.98 3.6 17.8 2.12 26.5-1.58 9.35-5.1 16.68-12.61 23.12-21 5.25-6.7 11.09-12.88 16.94-19.05A828 828 0 0 0 355 564.38c3.47-3.81 7.03-7.23 10.97-10.54 4.95-4.47 9.26-9.65 13.63-14.68q6.37-7.3 13.03-14.34l1.94-2.08a662 662 0 0 1 14.6-14.9l6.36-6.3 3.34-3.33 4.86-4.84 1.52-1.5c2.2-2.2 4.02-4.26 5.75-6.87-1.5 5.42-4.04 9.65-7.06 14.32l-1.6 2.48c-5.75 8.97-11.8 17.76-17.8 26.55q-7.14 10.48-14.16 21.03l-1.13 1.68a713 713 0 0 0-10.96 16.83 130 130 0 0 1-8.22 11.55A218 218 0 0 0 359 595.02 287 287 0 0 1 348 610l-1.48 2.14c-5.08 6.89-13.28 8.93-21.2 11.24a28.5 28.5 0 0 0-16.38 13.3 28.2 28.2 0 0 0-1.27 19.62c3.3 7.43 9.17 12.57 16.44 15.98 8.86 3.4 21.26 3.22 30.14-.03 10.3-5.01 18.9-14.04 26.75-22.25 3.34-3.4 6.78-6.67 10.27-9.91a896 896 0 0 0 28.86-28.26l4.03-4.08c2.15-2.08 4.3-4.04 6.58-5.98 3.95-3.45 7.69-7.05 11.4-10.75l2-2 6.49-6.48 4.56-4.54 9.5-9.51 12.16-12.12 9.4-9.38 4.48-4.47c14.4-14.34 14.4-14.34 20.27-22.52a261 261 0 0 1 5.43-6.27L518 512l1.34-1.58c2.12-1.8 3.18-1.77 5.93-1.75l2.65-.03 2.9-.01c9.8-.23 19.33-1.36 29-3l3.8-.64a134 134 0 0 0 17.84-4.22c5.1-1.54 10.34-2.62 15.54-3.77l3.1-.68 6.18-1.36a1440 1440 0 0 0 37.17-8.68c5.5-1.36 10.9-2.64 16.55-3.28l.29 3.88c.6 5.39 2.24 10.1 4.2 15.12q.55 1.35 1.09 2.76c5.23 13.12 11.68 25.12 20.42 36.24l1.74 2.32A214 214 0 0 0 702 560l1.86 2.03c4 4.18 8.32 7.75 12.89 11.29 13.99 10.84 26.29 21.53 30.25 39.68.27 3.37.27 6.63 0 10l-2.05.4c-12.03 2.8-20.6 9.8-27.95 19.6q-.85 1.12-1.75 2.25c-2.1 4.63-2 9.02-.66 13.9 2.45 5.88 6.78 9.1 12.4 11.85 6.2 2.32 12.13 2.35 18.7 2.32l3.24-.02c10.68-.15 21.4-1.13 29.62-8.72 8.2-8.84 12.47-20.84 17.29-31.72q2.56-5.77 5.29-11.48c6.83-14.85 11.85-30.05 16.16-45.8q.86-3.09 1.78-6.15c2.24-8.14 2.34-16.31 2.6-24.7.22-7.07.86-13.8 2.33-20.73l.55-3.2c3-16.75 8.42-32.98 13.89-49.06a457 457 0 0 0 7.16-23.76q1.29-4.66 2.75-9.27c7.28-23 8.4-45.77 8.65-69.71a425 425 0 0 1 9.32 20.94l1.48 3.65c5.29 15.02 3.49 35.32-.8 50.4l-.54 2c-2.73 9.56-6.33 18.82-9.76 28.13a329 329 0 0 0-10.28 31.94c-2.52 11.88-1.73 27.06 3.58 37.94l1.58 3.5c3.33 7.19 7.15 13.59 12.42 19.5l1.58 1.79c8.9 9.46 19.25 15.84 31.42 20.2l3.17 1.27c8.9 2.99 17.63 3.1 26.96 3.12h3.83a124 124 0 0 0 34.36-5.13l2.7-.8c24.59-7.33 24.59-7.33 31.98-14.45l1.55-1.4c3.34-3.4 4.4-6.67 4.64-11.3a17.3 17.3 0 0 0-4.2-10.3c-7.4-6.03-12.57-7.47-22-7-6.05.69-11.67 2.52-17.42 4.5-16.55 5.68-34.28 6.58-50.85.25-11.47-5.8-15.77-13.84-19.72-25.75l-1-3c-.62-7.77.53-14.81 2.5-22.31l.8-3.12c2.87-10.78 6.72-21.16 10.7-31.57 9.44-24.85 9.66-52.41 3-78l-.53-2.1c-5.93-22.21-22.27-46.48-42.14-58.67a96 96 0 0 0-20.95-7.98c-7.15-2.11-11.17-6.1-16.38-11.25-3.6-3.1-7.3-6.04-11-9l-2.8-2.28c-12.28-9.7-26.28-15.5-40.86-20.84q-3.5-1.33-6.97-2.73c-20.78-8.08-43.71-10.33-65.9-10.28h-26l-3-.01h-2.8l-2.44.02c-2.21.12-4.11.54-6.23 1.12q-2 .24-4.03.4l-2.41.2-2.62.22a398 398 0 0 0-58.43 9.59c-3.95.94-7.91 1.79-11.88 2.66a458 458 0 0 0-16.75 4c-15.58 3.98-30.72 6.1-46.81 6.06h-11.42C503 283 503 283 502 282a129 129 0 0 1-.17-5.9l-.04-3.84-.02-2.07-.06-6.44q-.1-9.15-.18-18.32c-.46-51.94-.46-51.94-9.84-61.18-2.63-1.91-3.71-2.25-7.06-2.62-7.4 2.8-12.4 8.96-17.4 14.89-3.2 3.57-6.58 6.96-9.98 10.36l-2 2.02-1.92 1.9-1.72 1.73c-3.42 3.14-5.7 3.78-10.3 3.67-2.36-.2-4.58-.61-6.91-1.1a158 158 0 0 0-15.33-1.96l-7.42-.76q-2.5-.25-5.03-.45c-12.61-1-19.8-3.84-28.23-13.4-2.3-2.54-4.8-4.9-7.26-7.28a205 205 0 0 1-10.4-11.28c-18.63-21.07-18.63-21.07-27.3-22.34-2.92.45-4.85.85-7.43 2.37m72 372 1 2 1-2z" fill="#EEEFEE"/><path d="M338 159c3.59 2.74 6.76 5.86 10 9q2.02 1.76 4.06 3.5a156 156 0 0 1 16.19 16.25 207 207 0 0 0 10.37 11l1.67 1.68 1.62 1.62 1.44 1.43L385 205l2.17 2.1c3.62 2.43 7 2.86 11.24 3.31l2.46.31q3.88.47 7.75.9l10.17 1.23 2.46.3q9.98 1.2 19.82 3.29c3.25.4 5.47-.13 8.15-1.96 2.19-1.91 4.26-3.89 6.3-5.97q2.47-2.5 4.98-4.94c5.03-4.94 10.01-9.87 14.56-15.26 3.03-3.54 5.69-5.78 10.32-6.87 4.3.92 6.86 3.19 9.62 6.56 3.3 5.87 4.33 12.26 5.09 18.87l.26 2.25c.83 7.72.92 15.4.88 23.16v4.43l-.02 9.14-.02 11.74-.02 9.08v4.34l-.02 6-.02 3.44C501 283 501 283 500 284q-.63 4.33-1.12 8.67l-.65 5.39-1 8.53-.98 8.21-.29 2.56c-.51 4.2-1.19 7.75-2.96 11.64q-.54 2.83-.94 5.69c-1.02 6.48-2.11 13.11-5.56 18.78-1.51 2.55-2.21 4.75-3 7.59-3.54 10.06-12.14 18.14-21.5 22.94l-4.44 2.5-2.29 1.25q-2.22 1.23-4.42 2.54c-13.46 7.94-27.97 10-43.32 10.45q-3.33.11-6.67.27l-4.31.13-3.88.14c-4.13-.31-6.95-1.52-10.67-3.28a67 67 0 0 0-4.21-1.11l-2.25-.52-2.35-.56C348.7 389.68 330.47 376.96 314 358l-2.49-2.83c-11.49-13.46-12.77-25.9-11.51-43.17.72-6.67 1.72-13.31 2.75-19.94l.38-2.51c1.48-9.58 3.3-18.91 5.95-28.22 1.58-5.72 2.74-11.52 3.92-17.33l.47-2.11c1.41-6.6 2.14-13.15 2.71-19.86l.63-6.92.94-10.73c2.03-23.26 2.03-23.26 3.6-33.25l.6-3.87c1.26-3.91 2.89-5.67 6.05-8.26 3.74-1.25 6.36-1.44 10 0" fill="#101210"/><path d="M332.09 155.14c4.42 1.06 8.2 2.08 11.9 4.86.18.33.18.33 1 2 2.95 2 4.4 3 8 3a85 85 0 0 1 3 5c5.73 8.42 12.8 15.86 20 23l2.45 2.5c2.56 2.5 2.56 2.5 5.38 4.69l2.18 1.8v2c3.95 2.2 7.49 3 12 3l3.69 1c4.85 1.27 9.66 1.75 14.56.39 2.45-.53 3.54.5 5.75 1.62a96 96 0 0 0 16 3l2.09.34c5.35.54 8-.75 12.23-4.1q2.38-2.07 4.68-4.24l2.1-1.95c1.9-2.05 1.9-2.05 3.34-4.51 1.84-2.98 3.96-4.84 6.63-7.1 3.19-2.71 5.1-4.72 6.93-8.44 3.62-2.84 6.9-4.06 11.5-3.81a28.7 28.7 0 0 1 13.44 14.88c1.23 3.92 1.65 7.85 2.06 11.93l1 3c.03 2.42-.06 4.82-.16 7.24.16 2.76.16 2.76 1.16 6.07 1.1 4.08 1.27 7.82 1.19 12l-.02 2.33a482 482 0 0 1-.72 19.79c-.32 5.45-.32 5.45-1.45 6.57q-.1 3.53-.06 7.07l.03 3.9.03 3.03 2.94.88C510 279 510 279 511 281l7.94.07 2.29.02q2.88 0 5.77-.1l1-1q2.92 0 5.8.04c4.12-.05 7.92-.48 11.7-2.1 3.25-1.21 6.06-1 9.5-.93a93 93 0 0 0 9.78-2.3l2.73-.77 2.87-.8a251 251 0 0 1 23.63-5.5c2.85-.6 5.3-1.53 7.99-2.63q2.99-.39 5.97-.72c3.1-.42 6.03-1.4 9.03-2.28 3.33-.72 6.66-1.36 10-2l2.64-.6c2.36-.4 2.36-.4 4.99.17C637 260 637 260 640 258q2.49-.01 4.98.04c5.8.07 5.8.07 8.02-1.04 2.5-.07 4.99 0 7.5.07 2.5-.07 2.5-.07 4.36-.57 4.36-1.01 8.98-.45 13.42-.34 3.66-.15 6.3-.95 9.72-2.16q3.51.43 7 1l2.69-.56c2.89-.54 3.78.22 6.3 1.56 3.14.23 5 0 8-1q3 .72 5.95 1.52c2.73.64 5.28.6 8.06.48 2.74 0 4.75.36 7.38 1 3.3.77 6.22 1.1 9.62 1 7.98 1.26 15.47 4.2 23 7l5.69 2.07c20.73 7.54 20.73 7.54 29.63 13.3 3.12 2.02 6.23 3.98 9.5 5.76 5.47 3.22 9.72 7.4 14.18 11.87q2.48 2.04 5 4c2.07 1.62 4.04 3.26 6 5v2l2 .34A94 94 0 0 1 870 324l2.3 1.53a51 51 0 0 1 10.34 9.83 32 32 0 0 0 3.86 4.02c2.8 2.93 4.89 6.04 7.07 9.44a39 39 0 0 0 2.86 4c2.19 3.04 3.89 6.3 5.64 9.62l1.06 1.99c3.36 6.32 5.54 12.62 7.44 19.5.1.4.1.4.67 2.39a94 94 0 0 1 3.26 19.12c.26 3.6.54 7.18 1.13 10.75.37 2.8.37 2.8-.63 4.8q-.3 2.52-.5 5.03l-.25 3.04-.25 3.19c-1.26 15.95-1.26 15.95-4 23.75l-3 9.88a94 94 0 0 1-5 12.3c-1.84 4.1-2.8 8.06-3.57 12.48-.58 3.18-1.51 6.24-2.43 9.34-2.17 7.66-2.17 7.66-1 10a94 94 0 0 1-.94 6.7c-.07 2.72.67 3.96 1.94 6.3q.44 2.11.75 4.25c1.4 6.6 5.04 11 10.25 15.13 5.55 3 10.79 3.96 17 4.62l3.44.5c18.6 2.6 18.6 2.6 26.69-.77 2.56-1 5.16-1.31 7.87-1.73l2.32-.93c8.85-3.5 21.05-5.4 30.28-2.16a32 32 0 0 1 5.4 4.09l1.74 1.5c3.13 2.88 5.2 5.38 6.26 9.5l.65 1.96c.94 3.87.92 6.1-1.17 9.57-7.28 8.54-16.35 15.18-27.3 17.89-2.18.58-2.18.58-5.36 2.2-3.3 1.62-6.2 1.88-9.82 2.38q-1.92.71-3.81 1.5c-3.96 1.59-7.7 2-11.94 2.32-2.47.2-4.82.67-7.25 1.18-11.93 1.89-24.92 2.13-36.38-2.05-2.7-.98-5.41-1.86-8.14-2.74-17.92-5.83-17.92-5.83-23.48-12.21a19 19 0 0 0-5.32-4.27c-7.57-4.88-12.61-13.83-17.17-21.41C850 551 850 551 848.34 549.5c-2.33-2.62-1.76-5.87-1.83-9.23-.51-2.28-.51-2.28-2.54-3.6q-.97-.32-1.97-.68l.63-1.81c.37-2.2.37-2.2-1.63-5.2l2-3a101 101 0 0 0-2-7c0-3.22.82-5.02 2-8v-3q.45-2 1-4l.85-3.1c1.42-4.97 3.24-9.8 5.03-14.66A57 57 0 0 0 853 474q.39-2.6.82-5.18l.39-2.55c.99-2.82 2.29-3.71 4.79-5.27l-1-4 4-2-.1-1.82c-.17-5.02-.01-7.2 3.1-11.18.42-2.23.63-4.42.79-6.68.2-2.32.2-2.32.7-4.7.6-3.05.89-6.07 1.14-9.18l.29-3.38c.07-2.7-.17-4.51-.92-7.06v-3c-.72-8.96-.72-8.96-4-13h-3c-.75 1.75-.75 1.75-1 4 1.94 2.25 1.94 2.25 4 4-3 2-3 2-5 2 0 .47 0 .47.07 2.82C858 411 858 411 857 414l-.43 3.82c-.42 3.6-1.4 6.74-2.57 10.18l-.43 3.38c-.53 3.39-1.54 6.15-2.81 9.33-1.22 3.69-1.7 7.48-2.3 11.32-2.18 13.96-2.18 13.96-6.4 19.54-2.65 3.78-3.37 8.07-4.35 12.53A56 56 0 0 1 835 492l-.5 3.57A19 19 0 0 1 832 503q-1.05 3.5-2 7l-1.06 3.38a63 63 0 0 0-1.7 10.5A47 47 0 0 1 826 530a108 108 0 0 0-.93 18.07C825 550 825 550 824 551q.01 2.76.13 5.5c.05 5.02-.61 8.78-2.4 13.42a25 25 0 0 0-1.23 6.15 37 37 0 0 1-2.67 9.85c-1.17 2.96-2.12 5.98-3.08 9-.76 2.13-1.74 4.06-2.75 6.08a161 161 0 0 0-1.5 4.38l-.77 2.38L809 610a172 172 0 0 1-4 11l-.93 2.94c-1.65 4.76-3.41 8.58-7.07 12.06v2l2.82-.12C803 638 803 638 806 640q3.21.75 6.45 1.3l3.93.7 2.07.37c36.76 6.59 36.76 6.59 44.55 15.63 1.32 2.5 1.32 2.5 1 5-4.16 6.8-10.72 9.33-18.27 11.16q-2.33.48-4.66.9l-2.63.5c-13.55 2.35-27.36 3.26-41.07 4.27q-2.73.2-5.48.43c-8.44.67-16.81.88-25.27.84h-3.96l-10.26-.03-10.5-.02-18.35-.04c-5.52-.01-5.52-.01-8.55.99l-1-1a132 132 0 0 0-5.97-.31l-3.95-.12-4.37-.12-2.26-.06c-20.58-.57-41.17-.6-61.76-.57h-3.01c-27.18 0-54.3.13-81.44 1.8-7.1.44-14.18.8-21.27 1.18a4287 4287 0 0 0-93.43 5.66q-15.86 1.14-31.72 2.17l-5.6.37-12.85.85-6.84.45c-51.51 3.43-51.51 3.43-69.53-7.3l-4-4-2.56-1c-2.84-1.16-3.81-2.44-5.44-5 4.5-4.64 8.87-4.76 15-5 0-2.93-1.54-4.2-3.31-6.5-4.58-6.5-7.45-12.5-6.25-20.56 2.42-9.18 7.47-14.66 15.55-19.44a71 71 0 0 1 12.29-4.57c7.45-2.52 12.55-7.4 17.04-13.65 1.88-2.54 3.87-4.96 5.87-7.4a53 53 0 0 0 6.8-10.88q2.14-3 4.39-5.9 1.67-2.16 3.28-4.4l1.59-2.2 1.46-2.03L373 571h2l.82-2.62A55 55 0 0 1 382 556h2l.38-2.25A28 28 0 0 1 387 547v-3l3-1c1.19-2.06 1.19-2.06 2-4h2l-.62-2.25c-.42-3.07 0-4.17 1.62-6.75l-2-2c-5.42 6.29-5.42 6.29-7 10h-2c-1.43 1.53-1.43 1.53-3 3.5-1.56 1.97-1.56 1.97-3 3.5h-2l-.66 1.69c-1.76 3.05-4.01 4.93-6.65 7.25-4.7 4.15-9.22 8.26-13.2 13.13C353 570 353 570 350.45 572c-2.44 2-2.44 2-4.25 4.82a29 29 0 0 1-6.06 6.56c-3.6 3-6.25 6.18-8.9 10.02C330 595 330 595 328 596l-1.31 2.2c-6.83 11.34-19.66 23.55-32.7 26.8l-2.38.72c-6.36 1.65-10.68 1.02-16.61-1.72l-2.9-1.32c-5.91-3.2-12.04-7.87-15.28-13.88-2.01-7.54-1.37-17.27 2-24.3q1.05-1.77 2.18-3.5l1.63-2.68c5.8-5.65 14.13-8.33 21.87-10.13 8.56-2.9 14.29-11.14 19.5-18.2l1.4-1.81q4.77-6.28 9.08-12.88 1.56-2.37 3.2-4.7l1.64-2.35 1.48-2.11c1.34-2.38 1.8-4.45 2.2-7.14l1.82-.12c3.3-1.33 3.7-3.7 5.18-6.88q1.77-2.45 3.56-4.88c1.78-2.6 3.28-5.31 4.82-8.05a58 58 0 0 1 9.14-12.25c1.76-2.15 2.5-4.23 3.48-6.82q1.45-2.56 3-5.06c2.84-4.61 2.84-4.61 4-7.01a34 34 0 0 1 3.94-5.74c2.72-3.56 4.35-7.03 6.06-11.2q2.17-3.74 4.45-7.44c3.03-4.97 5.96-9.97 8.18-15.36 1.37-3.2 1.37-3.2 2.94-5.25 1.88-2.53 2.67-4.88 3.43-7.94q-.47-2-1-4-.09-2.37-.06-4.75l.03-2.42.03-1.83a93 93 0 0 0-11.75-2.81c-4.75-.93-8.76-2.6-13.11-4.7a175 175 0 0 0-9.27-4.1l-4.12-1.71a51 51 0 0 1-11.16-6.54c-1.6-1.14-1.6-1.14-4.9-2.82-6.46-3.57-12.54-9.66-15.7-16.32a84 84 0 0 0-3.24-3.81l-1.87-2.11-3.53-3.9c-5.4-6.11-8.74-11.71-9.85-19.86C297 330 297 330 296 329a68 68 0 0 1-.12-4.75l-.01-2.61c.13-2.64.59-5.05 1.13-7.64q.29-2.7.5-5.37c.98-11.16.98-11.16 2.44-15.24 1.33-4.23 1.98-8.44 2.63-12.82l.38-2.5q.84-5.47 1.58-10.98c.49-3.21 1.45-6.01 2.47-9.1q.51-3.48 1-7a261 261 0 0 1 3.13-10.55c.85-3.34.95-6.01.87-9.44l1-5v-2.5c0-2.5 0-2.5.5-4.93.5-2.57.5-2.57.5-5.5 0-3.17.47-5.95 1-9.07 1-9.16 1-9.16 1-13.7 0-2.57.49-4.78 1-7.3q.24-2.1.44-4.18L318 174l.27-2.56c.95-6.75 3.39-10.25 8.73-14.44 3-2 3-2 5.09-1.86m-6.1 4.86c-3.64 5.35-4.8 9.82-5.5 16.19l-.34 2.87c-.83 7.2-1.46 14.42-2.08 21.64l-.25 2.89q-.63 7.2-1.2 14.44A189 189 0 0 1 311 251a851 851 0 0 0-3 14l-.45 2.12c-4 18.7-7.86 37.76-7.98 56.95l-.03 2.6c.1 7.72 1.46 15.79 6.59 21.83l1.85 2.22L310 353l2.2 2.5q2.3 2.55 4.62 5.09 2.9 3.22 5.68 6.54c16.89 19.25 41.32 27.02 65.5 32.87l.19 2.7.25 3.55.25 3.52c.3 3.23.3 3.23.94 5.2.47 2.56-.03 3.5-1.26 5.77l-1.17 2.2-1.32 2.38-1.36 2.5q-2.25 4.1-4.52 8.18l-1.57 2.85a852 852 0 0 1-21.32 36.35q-2.12 3.46-4.17 6.99a267 267 0 0 1-7.38 11.5q-4.96 7.4-9.86 14.83l-6 9.06-3.01 4.58C297 567.3 297 567.3 277.44 572.88c-6.96 2.1-11.05 4.35-14.96 10.53-3.92 7.55-4.97 14.86-2.81 23.14 2.79 7.24 7.77 11.32 14.52 14.83 8.98 3.6 17.8 2.12 26.5-1.58 9.35-5.1 16.68-12.61 23.12-21 5.25-6.7 11.09-12.88 16.94-19.05A828 828 0 0 0 355 564.38c3.47-3.81 7.03-7.23 10.97-10.54 4.95-4.47 9.26-9.65 13.63-14.68q6.37-7.3 13.03-14.34l1.94-2.08a662 662 0 0 1 14.6-14.9l6.36-6.3 3.34-3.33 4.86-4.84 1.52-1.5c2.2-2.2 4.02-4.26 5.75-6.87-1.5 5.42-4.04 9.65-7.06 14.32l-1.6 2.48c-5.75 8.97-11.8 17.76-17.8 26.55q-7.14 10.48-14.16 21.03l-1.13 1.68a713 713 0 0 0-10.96 16.83 130 130 0 0 1-8.22 11.55A218 218 0 0 0 359 595.02 287 287 0 0 1 348 610l-1.48 2.14c-5.08 6.89-13.28 8.93-21.2 11.24a28.5 28.5 0 0 0-16.38 13.3 28.2 28.2 0 0 0-1.27 19.62c3.3 7.43 9.17 12.57 16.44 15.98 8.86 3.4 21.26 3.22 30.14-.03 8.99-4.37 16.89-11.8 23.32-19.37 4.46-4.54 10.4-4.3 16.43-4.88q4.85-.65 9.69-1.37l2.7-.38q7.25-1.03 14.48-2.2c27.79-4.48 55.64-7.14 83.7-9.17l3.34-.25q10.2-.74 20.42-1.38 5.65-.38 11.3-.8c25.77-1.81 51.53-1.72 77.34-1.64h14.22l13.9.02h6.53c12.53.02 24.98.3 37.49 1.06 3.8.22 7.6.33 11.4.43l2.28.06a1589 1589 0 0 0 11.7.32l11.5.3-2.35 2.35A73 73 0 0 0 717 643q-.85 1.12-1.75 2.25c-2.1 4.63-2 9.02-.66 13.9 2.45 5.88 6.78 9.1 12.4 11.85 6.2 2.32 12.13 2.35 18.7 2.32l3.24-.02c10.68-.15 21.4-1.13 29.62-8.72 8.2-8.84 12.47-20.84 17.29-31.72q2.56-5.77 5.29-11.48c6.83-14.85 11.85-30.05 16.16-45.8q.86-3.09 1.78-6.15c2.24-8.14 2.34-16.31 2.6-24.7.22-7.07.86-13.8 2.33-20.73l.55-3.2c3-16.75 8.42-32.98 13.89-49.06a457 457 0 0 0 7.16-23.76q1.29-4.66 2.75-9.27c7.28-23 8.4-45.77 8.65-69.71a425 425 0 0 1 9.32 20.94l1.48 3.65c5.29 15.02 3.49 35.32-.8 50.4l-.54 2c-2.73 9.56-6.33 18.82-9.76 28.13a329 329 0 0 0-10.28 31.94c-2.52 11.88-1.73 27.06 3.58 37.94l1.58 3.5c3.33 7.19 7.15 13.59 12.42 19.5l1.58 1.79c8.9 9.46 19.25 15.84 31.42 20.2l3.17 1.27c8.9 2.99 17.63 3.1 26.96 3.12h3.83a124 124 0 0 0 34.36-5.13l2.7-.8c24.59-7.33 24.59-7.33 31.98-14.45l1.55-1.4c3.34-3.4 4.4-6.67 4.64-11.3a17.3 17.3 0 0 0-4.2-10.3c-7.4-6.03-12.57-7.47-22-7-6.05.69-11.67 2.52-17.42 4.5-16.55 5.68-34.28 6.58-50.85.25-11.47-5.8-15.77-13.84-19.72-25.75l-1-3c-.62-7.77.53-14.81 2.5-22.31l.8-3.12c2.87-10.78 6.72-21.16 10.7-31.57 9.44-24.85 9.66-52.41 3-78l-.53-2.1c-5.93-22.21-22.27-46.48-42.14-58.67a96 96 0 0 0-20.95-7.98c-7.15-2.11-11.17-6.1-16.38-11.25-3.6-3.1-7.3-6.04-11-9l-2.8-2.28c-12.28-9.7-26.28-15.5-40.86-20.84q-3.5-1.33-6.97-2.73c-20.78-8.08-43.71-10.33-65.9-10.28h-26l-3-.01h-2.8l-2.44.02c-2.21.12-4.11.54-6.23 1.12q-2 .24-4.03.4l-2.41.2-2.62.22a398 398 0 0 0-58.43 9.59c-3.95.94-7.91 1.79-11.88 2.66a458 458 0 0 0-16.75 4c-15.58 3.98-30.72 6.1-46.81 6.06h-11.42C503 283 503 283 502 282a129 129 0 0 1-.17-5.9l-.04-3.84-.02-2.07-.06-6.44q-.1-9.15-.18-18.32c-.46-51.94-.46-51.94-9.84-61.18-2.63-1.91-3.71-2.25-7.06-2.62-7.4 2.8-12.4 8.96-17.4 14.89-3.2 3.57-6.58 6.96-9.98 10.36l-2 2.02-1.92 1.9-1.72 1.73c-3.42 3.14-5.7 3.78-10.3 3.67-2.36-.2-4.58-.61-6.91-1.1a158 158 0 0 0-15.33-1.96l-7.42-.76q-2.5-.25-5.03-.45c-12.61-1-19.8-3.84-28.23-13.4-2.3-2.54-4.8-4.9-7.26-7.28a205 205 0 0 1-10.4-11.28c-18.63-21.07-18.63-21.07-27.3-22.34-2.92.45-4.85.85-7.43 2.37m72 372 1 2 1-2z" fill="#BDBEBE"/><path d="m395 417 .73 3c3.95 15.71 10.78 25.32 21.8 37.19C419 459 419 459 419 461l1.69.81c6.88 3.54 11.41 7.44 15.31 14.19-5.42 9.81-11.63 17.29-19.69 25l-3.09 3.02-5.67 5.51A591 591 0 0 0 400 517l-2.21 2.18a203 203 0 0 0-11.71 12.46c-3.36 3.81-6.84 7.5-10.31 11.21a269 269 0 0 0-8.58 9.59c-2.82 3.27-5.94 6-9.23 8.79-2.61 2.36-4.83 4.98-7.11 7.67-2.03 2.3-4.16 4.45-6.35 6.6a170 170 0 0 0-9.69 10.41q-3.1 3.55-6.31 7.03a126 126 0 0 0-7.94 9.62c-8.16 10.68-18.85 18.94-32.38 20.83-8.94.51-16.41-2.25-23.2-8.14-5.44-5.93-6.56-12.11-6.43-20.01 1.04-7.52 4.68-14.43 10.69-19.15 3.25-2.01 6.85-2.84 10.51-3.84 8.21-2.53 13.56-5.64 19.25-12.25l1.38-1.6c14.38-16.86 26.2-35.71 38.25-54.25q3.78-5.79 7.64-11.51a248 248 0 0 0 8.73-14.08c2.87-4.94 5.77-9.84 8.81-14.68a573 573 0 0 0 23.6-42.21c2.09-3.52 3.45-4.67 7.59-4.67" fill="#060706"/><path d="M332.09 155.14c4.42 1.06 8.2 2.08 11.9 4.86.18.33.18.33 1 2 2.95 2 4.4 3 8 3a85 85 0 0 1 3 5c5.73 8.42 12.8 15.86 20 23l2.45 2.5c2.56 2.5 2.56 2.5 5.38 4.69l2.18 1.8v2c3.95 2.2 7.49 3 12 3l3.69 1c4.85 1.27 9.66 1.75 14.56.39 2.45-.53 3.54.5 5.75 1.62a96 96 0 0 0 16 3l2.09.34c5.35.54 8-.75 12.23-4.1q2.38-2.07 4.68-4.24l2.1-1.95c1.9-2.05 1.9-2.05 3.34-4.51 1.84-2.98 3.96-4.84 6.63-7.1 3.19-2.71 5.1-4.72 6.93-8.44 3.62-2.84 6.9-4.06 11.5-3.81a28.7 28.7 0 0 1 13.44 14.88c1.23 3.92 1.65 7.85 2.06 11.93l1 3c.03 2.42-.06 4.82-.16 7.24.16 2.76.16 2.76 1.16 6.07 1.1 4.08 1.27 7.82 1.19 12l-.02 2.33a482 482 0 0 1-.72 19.79c-.32 5.45-.32 5.45-1.45 6.57q-.1 3.53-.06 7.07l.03 3.9.03 3.03 2.94.88C510 279 510 279 511 281l7.94.07 2.29.02q2.88 0 5.77-.1l1-1q2.92 0 5.8.04c4.12-.05 7.92-.48 11.7-2.1 3.25-1.21 6.06-1 9.5-.93a93 93 0 0 0 9.78-2.3l2.73-.77 2.87-.8a251 251 0 0 1 23.63-5.5c2.85-.6 5.3-1.53 7.99-2.63q2.99-.39 5.97-.72c3.1-.42 6.03-1.4 9.03-2.28 3.33-.72 6.66-1.36 10-2l2.64-.6c2.36-.4 2.36-.4 4.99.17C637 260 637 260 640 258q2.49-.01 4.98.04c5.8.07 5.8.07 8.02-1.04 2.5-.07 4.99 0 7.5.07 2.5-.07 2.5-.07 4.36-.57 4.36-1.01 8.98-.45 13.42-.34 3.66-.15 6.3-.95 9.72-2.16q3.51.43 7 1l2.69-.56c2.89-.54 3.78.22 6.3 1.56 3.14.23 5 0 8-1q3 .72 5.95 1.52c2.73.64 5.28.6 8.06.48 2.74 0 4.75.36 7.38 1 3.3.77 6.22 1.1 9.62 1 7.98 1.26 15.47 4.2 23 7l5.69 2.07c20.73 7.54 20.73 7.54 29.63 13.3 3.12 2.02 6.23 3.98 9.5 5.76 5.47 3.22 9.72 7.4 14.18 11.87q2.48 2.04 5 4c2.07 1.62 4.04 3.26 6 5v2l2 .34A94 94 0 0 1 870 324l2.3 1.53a51 51 0 0 1 10.34 9.83 32 32 0 0 0 3.86 4.02c2.8 2.93 4.89 6.04 7.07 9.44a39 39 0 0 0 2.86 4c2.19 3.04 3.89 6.3 5.64 9.62l1.06 1.99c3.36 6.32 5.54 12.62 7.44 19.5.1.4.1.4.67 2.39a94 94 0 0 1 3.26 19.12c.26 3.6.54 7.18 1.13 10.75.37 2.8.37 2.8-.63 4.8q-.3 2.52-.5 5.03l-.25 3.04-.25 3.19c-1.26 15.95-1.26 15.95-4 23.75l-3 9.88a94 94 0 0 1-5 12.3c-1.84 4.1-2.8 8.06-3.57 12.48-.58 3.18-1.51 6.24-2.43 9.34-2.17 7.66-2.17 7.66-1 10a94 94 0 0 1-.94 6.7c-.07 2.72.67 3.96 1.94 6.3q.44 2.11.75 4.25c1.4 6.6 5.04 11 10.25 15.13 5.55 3 10.79 3.96 17 4.62l3.44.5c18.6 2.6 18.6 2.6 26.69-.77 2.56-1 5.16-1.31 7.87-1.73l2.32-.93c8.85-3.5 21.05-5.4 30.28-2.16a32 32 0 0 1 5.4 4.09l1.74 1.5c3.13 2.88 5.2 5.38 6.26 9.5l.65 1.96c.94 3.87.92 6.1-1.17 9.57-7.28 8.54-16.35 15.18-27.3 17.89-2.18.58-2.18.58-5.36 2.2-3.3 1.62-6.2 1.88-9.82 2.38q-1.92.71-3.81 1.5c-3.96 1.59-7.7 2-11.94 2.32-2.47.2-4.82.67-7.25 1.18-11.93 1.89-24.92 2.13-36.38-2.05-2.7-.98-5.41-1.86-8.14-2.74-17.92-5.83-17.92-5.83-23.48-12.21a19 19 0 0 0-5.32-4.27c-7.57-4.88-12.61-13.83-17.17-21.41C850 551 850 551 848.34 549.5c-2.33-2.62-1.76-5.87-1.83-9.23-.51-2.28-.51-2.28-2.54-3.6q-.97-.32-1.97-.68l.63-1.81c.37-2.2.37-2.2-1.63-5.2l2-3a101 101 0 0 0-2-7c0-3.22.82-5.02 2-8v-3q.45-2 1-4l.85-3.1c1.42-4.97 3.24-9.8 5.03-14.66A57 57 0 0 0 853 474q.39-2.6.82-5.18l.39-2.55c.99-2.82 2.29-3.71 4.79-5.27l-1-4 4-2-.1-1.82c-.17-5.02-.01-7.2 3.1-11.18.42-2.23.63-4.42.79-6.68.2-2.32.2-2.32.7-4.7.6-3.05.89-6.07 1.14-9.18l.29-3.38c.07-2.7-.17-4.51-.92-7.06v-3c-.72-8.96-.72-8.96-4-13h-3c-.75 1.75-.75 1.75-1 4 1.94 2.25 1.94 2.25 4 4-3 2-3 2-5 2 0 .47 0 .47.07 2.82C858 411 858 411 857 414l-.43 3.82c-.42 3.6-1.4 6.74-2.57 10.18l-.43 3.38c-.53 3.39-1.54 6.15-2.81 9.33-1.22 3.69-1.7 7.48-2.3 11.32-2.18 13.96-2.18 13.96-6.4 19.54-2.65 3.78-3.37 8.07-4.35 12.53A56 56 0 0 1 835 492l-.5 3.57A19 19 0 0 1 832 503q-1.05 3.5-2 7l-1.06 3.38a63 63 0 0 0-1.7 10.5A47 47 0 0 1 826 530a108 108 0 0 0-.93 18.07C825 550 825 550 824 551q.01 2.76.13 5.5c.05 5.02-.61 8.78-2.4 13.42a25 25 0 0 0-1.23 6.15 37 37 0 0 1-2.67 9.85c-1.17 2.96-2.12 5.98-3.08 9-.76 2.13-1.74 4.06-2.75 6.08a161 161 0 0 0-1.5 4.38l-.77 2.38L809 610a172 172 0 0 1-4 11l-.93 2.94c-1.65 4.76-3.41 8.58-7.07 12.06v2l2.82-.12C803 638 803 638 806 640q3.21.75 6.45 1.3l3.93.7 2.07.37c36.76 6.59 36.76 6.59 44.55 15.63 1.32 2.5 1.32 2.5 1 5-4.16 6.8-10.72 9.33-18.27 11.16q-2.33.48-4.66.9l-2.63.5c-13.55 2.35-27.36 3.26-41.07 4.27q-2.73.2-5.48.43c-8.44.67-16.81.88-25.27.84h-3.96l-10.26-.03-10.5-.02-18.35-.04c-5.52-.01-5.52-.01-8.55.99l-1-1a132 132 0 0 0-5.97-.31l-3.95-.12-4.37-.12-2.26-.06c-20.58-.57-41.17-.6-61.76-.57h-3.01c-27.18 0-54.3.13-81.44 1.8-7.1.44-14.18.8-21.27 1.18a4287 4287 0 0 0-93.43 5.66q-15.86 1.14-31.72 2.17l-5.6.37-12.85.85-6.84.45c-51.51 3.43-51.51 3.43-69.53-7.3l-4-4-2.56-1c-2.84-1.16-3.81-2.44-5.44-5 4.5-4.64 8.87-4.76 15-5 0-2.93-1.54-4.2-3.31-6.5-4.58-6.5-7.45-12.5-6.25-20.56 2.42-9.18 7.47-14.66 15.55-19.44a71 71 0 0 1 12.29-4.57c7.45-2.52 12.55-7.4 17.04-13.65 1.88-2.54 3.87-4.96 5.87-7.4a53 53 0 0 0 6.8-10.88q2.14-3 4.39-5.9 1.67-2.16 3.28-4.4l1.59-2.2 1.46-2.03L373 571h2l.82-2.62A55 55 0 0 1 382 556h2l.38-2.25A28 28 0 0 1 387 547v-3l3-1c1.19-2.06 1.19-2.06 2-4h2l-.62-2.25c-.42-3.07 0-4.17 1.62-6.75l-2-2c-5.42 6.29-5.42 6.29-7 10h-2c-1.43 1.53-1.43 1.53-3 3.5-1.56 1.97-1.56 1.97-3 3.5h-2l-.66 1.69c-1.76 3.05-4.01 4.93-6.65 7.25-4.7 4.15-9.22 8.26-13.2 13.13C353 570 353 570 350.45 572c-2.44 2-2.44 2-4.25 4.82a29 29 0 0 1-6.06 6.56c-3.6 3-6.25 6.18-8.9 10.02C330 595 330 595 328 596l-1.31 2.2c-6.83 11.34-19.66 23.55-32.7 26.8l-2.38.72c-6.36 1.65-10.68 1.02-16.61-1.72l-2.9-1.32c-5.91-3.2-12.04-7.87-15.28-13.88-2.01-7.54-1.37-17.27 2-24.3q1.05-1.77 2.18-3.5l1.63-2.68c5.8-5.65 14.13-8.33 21.87-10.13 8.56-2.9 14.29-11.14 19.5-18.2l1.4-1.81q4.77-6.28 9.08-12.88 1.56-2.37 3.2-4.7l1.64-2.35 1.48-2.11c1.34-2.38 1.8-4.45 2.2-7.14l1.82-.12c3.3-1.33 3.7-3.7 5.18-6.88q1.77-2.45 3.56-4.88c1.78-2.6 3.28-5.31 4.82-8.05a58 58 0 0 1 9.14-12.25c1.76-2.15 2.5-4.23 3.48-6.82q1.45-2.56 3-5.06c2.84-4.61 2.84-4.61 4-7.01a34 34 0 0 1 3.94-5.74c2.72-3.56 4.35-7.03 6.06-11.2q2.17-3.74 4.45-7.44c3.03-4.97 5.96-9.97 8.18-15.36 1.37-3.2 1.37-3.2 2.94-5.25 1.88-2.53 2.67-4.88 3.43-7.94q-.47-2-1-4-.09-2.37-.06-4.75l.03-2.42.03-1.83a93 93 0 0 0-11.75-2.81c-4.75-.93-8.76-2.6-13.11-4.7a175 175 0 0 0-9.27-4.1l-4.12-1.71a51 51 0 0 1-11.16-6.54c-1.6-1.14-1.6-1.14-4.9-2.82-6.46-3.57-12.54-9.66-15.7-16.32a84 84 0 0 0-3.24-3.81l-1.87-2.11-3.53-3.9c-5.4-6.11-8.74-11.71-9.85-19.86C297 330 297 330 296 329a68 68 0 0 1-.12-4.75l-.01-2.61c.13-2.64.59-5.05 1.13-7.64q.29-2.7.5-5.37c.98-11.16.98-11.16 2.44-15.24 1.33-4.23 1.98-8.44 2.63-12.82l.38-2.5q.84-5.47 1.58-10.98c.49-3.21 1.45-6.01 2.47-9.1q.51-3.48 1-7a261 261 0 0 1 3.13-10.55c.85-3.34.95-6.01.87-9.44l1-5v-2.5c0-2.5 0-2.5.5-4.93.5-2.57.5-2.57.5-5.5 0-3.17.47-5.95 1-9.07 1-9.16 1-9.16 1-13.7 0-2.57.49-4.78 1-7.3q.24-2.1.44-4.18L318 174l.27-2.56c.95-6.75 3.39-10.25 8.73-14.44 3-2 3-2 5.09-1.86m-6.1 4.86c-3.64 5.35-4.8 9.82-5.5 16.19l-.34 2.87c-.83 7.2-1.46 14.42-2.08 21.64l-.25 2.89q-.63 7.2-1.2 14.44A189 189 0 0 1 311 251a851 851 0 0 0-3 14l-.45 2.12c-4 18.7-7.86 37.76-7.98 56.95l-.03 2.6c.1 7.72 1.46 15.79 6.59 21.83l1.85 2.22L310 353l2.2 2.5q2.3 2.55 4.62 5.09 2.9 3.22 5.68 6.54c16.89 19.25 41.32 27.02 65.5 32.87l.19 2.7.25 3.55.25 3.52c.3 3.23.3 3.23.94 5.2.47 2.56-.03 3.5-1.26 5.77l-1.17 2.2-1.32 2.38-1.36 2.5q-2.25 4.1-4.52 8.18l-1.57 2.85a852 852 0 0 1-21.32 36.35q-2.12 3.46-4.17 6.99a267 267 0 0 1-7.38 11.5q-4.96 7.4-9.86 14.83l-6 9.06-3.01 4.58C297 567.3 297 567.3 277.44 572.88c-6.96 2.1-11.05 4.35-14.96 10.53-3.92 7.55-4.97 14.86-2.81 23.14 2.79 7.24 7.77 11.32 14.52 14.83 8.98 3.6 17.8 2.12 26.5-1.58 9.35-5.1 16.68-12.61 23.12-21 5.25-6.7 11.09-12.88 16.94-19.05A828 828 0 0 0 355 564.38c3.47-3.81 7.03-7.23 10.97-10.54 4.95-4.47 9.26-9.65 13.63-14.68q6.37-7.3 13.03-14.34l1.94-2.08a662 662 0 0 1 14.6-14.9l6.36-6.3 3.34-3.33 4.86-4.84 1.52-1.5c2.2-2.2 4.02-4.26 5.75-6.87-1.5 5.42-4.04 9.65-7.06 14.32l-1.6 2.48c-5.75 8.97-11.8 17.76-17.8 26.55q-7.14 10.48-14.16 21.03l-1.13 1.68a713 713 0 0 0-10.96 16.83 130 130 0 0 1-8.22 11.55A218 218 0 0 0 359 595.02 287 287 0 0 1 348 610l-1.48 2.14c-5.08 6.89-13.28 8.93-21.2 11.24a28.5 28.5 0 0 0-16.38 13.3 28.2 28.2 0 0 0-1.27 19.62c3.35 7.53 9.29 12.62 16.63 16.07 1.7.63 1.7.63 3.7.63l-1 2-1.57-.91c-5.77-3.14-5.77-3.14-9.43-2.84l-2 .75v2h-5l-1 6h4l1 5h2l1 2c1.8.49 1.8.49 4.16.82l2.6.38 2.74.37 2.65.38q3.93.56 7.85 1.05l1.96.26c5.87.73 11.64.9 17.55.9l3-.01c10.46-.07 20.87-.67 31.3-1.37q4.77-.33 9.55-.62l9-.6c3.94-.25 7.85-.55 11.75-1.07 4.2-.53 8.38-.77 12.62-.95l5.07-.24 7.82-.35c9.82-.43 19.6-1.01 29.39-1.92 13.58-1.25 27.19-1.88 40.8-2.53l11.05-.53 7.53-.37q9.67-.45 19.35-1.13c24.07-1.67 48.09-1.74 72.22-1.66h12.84q35.93 0 71.86.83 21.9.53 43.83.55 5.4 0 10.8.04c13.87.03 27.5-.54 41.28-1.98l6.6-.63c34.46-3.1 34.46-3.1 46.83-10.62 2-3 2-3 2-5.46-1.84-4.66-6.6-5.93-10.92-7.9-5.81-2.44-11.8-3.87-17.94-5.18q-3.34-.73-6.7-1.52c-22.1-5.12-22.1-5.12-32.44-4.94a60 60 0 0 1 5.69-16.93c7.6-15.67 13-31.71 17.6-48.5q.86-3.08 1.78-6.14c2.24-8.14 2.34-16.31 2.6-24.7.22-7.07.86-13.8 2.33-20.73l.55-3.2c3-16.75 8.42-32.98 13.89-49.06a457 457 0 0 0 7.16-23.76q1.29-4.66 2.75-9.27c7.28-23 8.4-45.77 8.65-69.71a425 425 0 0 1 9.32 20.94l1.48 3.65c5.29 15.02 3.49 35.32-.8 50.4l-.54 2c-2.73 9.56-6.33 18.82-9.76 28.13a329 329 0 0 0-10.28 31.94c-2.52 11.88-1.73 27.06 3.58 37.94l1.58 3.5c3.33 7.19 7.15 13.59 12.42 19.5l1.58 1.79c8.9 9.46 19.25 15.84 31.42 20.2l3.17 1.27c8.9 2.99 17.63 3.1 26.96 3.12h3.83a124 124 0 0 0 34.36-5.13l2.7-.8c24.59-7.33 24.59-7.33 31.98-14.45l1.55-1.4c3.34-3.4 4.4-6.67 4.64-11.3a17.3 17.3 0 0 0-4.2-10.3c-7.4-6.03-12.57-7.47-22-7-6.05.69-11.67 2.52-17.42 4.5-16.55 5.68-34.28 6.58-50.85.25-11.47-5.8-15.77-13.84-19.72-25.75l-1-3c-.62-7.77.53-14.81 2.5-22.31l.8-3.12c2.87-10.78 6.72-21.16 10.7-31.57 9.44-24.85 9.66-52.41 3-78l-.53-2.1c-5.93-22.21-22.27-46.48-42.14-58.67a96 96 0 0 0-20.95-7.98c-7.15-2.11-11.17-6.1-16.38-11.25-3.6-3.1-7.3-6.04-11-9l-2.8-2.28c-12.28-9.7-26.28-15.5-40.86-20.84q-3.5-1.33-6.97-2.73c-20.78-8.08-43.71-10.33-65.9-10.28h-26l-3-.01h-2.8l-2.44.02c-2.21.12-4.11.54-6.23 1.12q-2 .24-4.03.4l-2.41.2-2.62.22a398 398 0 0 0-58.43 9.59c-3.95.94-7.91 1.79-11.88 2.66a458 458 0 0 0-16.75 4c-15.58 3.98-30.72 6.1-46.81 6.06h-11.42C503 283 503 283 502 282a129 129 0 0 1-.17-5.9l-.04-3.84-.02-2.07-.06-6.44q-.1-9.15-.18-18.32c-.46-51.94-.46-51.94-9.84-61.18-2.63-1.91-3.71-2.25-7.06-2.62-7.4 2.8-12.4 8.96-17.4 14.89-3.2 3.57-6.58 6.96-9.98 10.36l-2 2.02-1.92 1.9-1.72 1.73c-3.42 3.14-5.7 3.78-10.3 3.67-2.36-.2-4.58-.61-6.91-1.1a158 158 0 0 0-15.33-1.96l-7.42-.76q-2.5-.25-5.03-.45c-12.61-1-19.8-3.84-28.23-13.4-2.3-2.54-4.8-4.9-7.26-7.28a205 205 0 0 1-10.4-11.28c-18.63-21.07-18.63-21.07-27.3-22.34-2.92.45-4.85.85-7.43 2.37m72 372 1 2 1-2z" fill="#E7E8EA"/><path d="m332.19 162.94 2.73.59 2.08.47v2l2.19 1.27c3.34 2.06 5.28 4.38 7.75 7.42l1.3 1.62c8.59 10.59 8.59 10.59 11.26 15.38 1.5 2.3 1.5 2.3 4.5 4.8 3.67 3.07 5.76 5.4 6.3 10.2-.3 2.3-.3 2.3-2.3 4.3-3.57 1.13-7.18 2.06-10.81 3-3.2 1-3.2 1-5.2 3q-1.87.77-3.8 1.39c-3.68 1.3-6.17 3.12-9.2 5.62h-3l-.18 1.88c-.81 2.12-.81 2.12-3.37 3.37L330 230v2l-3 2-4-1v-9l-3 1-.18-2.74-.25-3.57q-.14-1.75-.25-3.55C319 212 319 212 318 209q.01-4.14.25-8.25l.14-2.5a328 328 0 0 1 2.05-20.7l.37-2.98.38-2.81q.14-1.24.33-2.5A17 17 0 0 1 324 163c3.39-1.13 4.77-.82 8.19-.06" fill="#212221"/><path d="M434 296c2.8 2.03 4.9 4.26 7 7l1.32 1.67c4.16 6.56 3.66 14.9 2.68 22.33-2.5 6.58-7.84 11.7-14 15a44 44 0 0 1-15.06 2.38l-2.07.07c-6.03.03-9.3-2.14-13.66-6.06-6.79-7.7-7.72-15.36-7.21-25.39h1l.33 2.2c.9 5.46 1.92 9.92 4.67 14.8v2a27 27 0 0 0 19.42 1.27c4.48-2.33 6.25-5.04 8.08-9.71 2.74-9.25 2.74-9.25.29-13.81-2.85-4.5-5.5-8.61-10.73-10.42-5.28-.84-10.32-1.17-15.18 1.17L399 302c1.85-4.63 4.64-5.97 9.02-8.02 8.23-2.71 18.21-1.84 25.98 2.02" fill="#E9D467"/><path d="M352.71 282.17c6.88 4.44 11.4 9.8 13.3 17.83 1.11 9.06-.82 17.13-6.39 24.44-4.02 3.92-7.39 5.7-13 5.94-7.16-.27-12.97-3.04-18.62-7.38-4.76-5.27-5.23-10.17-5-17 2.18 3.27 3.1 6.22 4.22 9.94C328 318 328 318 330 320c5.51.45 8.4.26 13-3h2q.44-1.31.87-2.7c1.13-3.3 1.13-3.3 2.25-5.55 1.36-4.25 1.47-8.33.88-12.75-2-3.85-3.4-5.6-7-8-3.14-.41-3.14-.41-6.69-.62l-3.57-.23L329 287c6.34-6.8 14.9-8.62 23.71-4.83" fill="#E3D657"/><path d="M382 562c-1.65 5.26-4.95 9.31-8.19 13.69l-3.56 4.87-1.72 2.35q-2.63 3.6-5.15 7.28a648 648 0 0 1-13.13 18.14q-1.57 2.1-3.09 4.23c-5.56 7.18-13.49 9.34-21.91 11.88-6.82 2.25-11.67 5.91-15.25 12.18a28.4 28.4 0 0 0-1.37 19.67c3.63 8.42 11.32 13.11 19.37 16.71l-1 3-1.57-.88c-6.93-3.68-6.93-3.68-11.43-3.12v2h-5l1 4h-2v2h4c2.42 2.5 3 3.46 3 7-4.01-1.34-6.05-3.05-9-6l-2.56-1c-2.85-1.17-3.82-2.44-5.44-5 4.49-4.64 8.87-4.76 15-5 0-2.93-1.55-4.19-3.31-6.5-4.59-6.49-7.45-12.5-6.25-20.56 2.42-9.19 7.47-14.67 15.54-19.44a71 71 0 0 1 12.29-4.58c7.45-2.52 12.55-7.39 17.05-13.64 1.87-2.54 3.86-4.97 5.87-7.4A53 53 0 0 0 361 587q2.11-3.01 4.38-5.9 1.67-2.16 3.27-4.39l3.05-4.24L373 571h2l.81-2.81c2.31-6.19 2.31-6.19 6.19-6.19" fill="#E2E4E5"/><path d="M338 159c3.59 2.74 6.76 5.86 10 9q2.02 1.76 4.06 3.5a171 171 0 0 1 17.9 18.25c3.22 3.56 6.67 6.89 10.13 10.21A124 124 0 0 1 384 204v2l-2.38.44C379 207 379 207 377 208c-2.75.69-2.75.69-6 0a61 61 0 0 1-4.57-7.54c-1.71-2.94-3.76-4.39-6.43-6.46a79 79 0 0 1-2.5-3.75 166 166 0 0 0-10.06-13.69l-1.68-2.15c-2.93-3.63-5.06-6.23-9.76-7.41l1-3h-11l-1-2c3.73-4.09 7.81-5.06 13-3" fill="#09090A"/><path d="m892 508 3 1-.29 2.05-.33 2.7-.36 2.67c-.02 2.87.61 4.11 1.98 6.58q.43 2.12.75 4.25c1.39 6.6 5.03 11 10.25 15.13 5.55 3 10.79 3.95 17 4.62l3.44.5c18.6 2.61 18.6 2.61 26.68-.77 2.57-1 5.17-1.31 7.88-1.73l2.31-.94c8.86-3.5 21.06-5.38 30.29-2.15a32 32 0 0 1 5.4 4.09l1.73 1.49c3.14 2.88 5.21 5.38 6.27 9.51l.65 1.96c.63 2.62.81 4.37.35 7.04a38.4 38.4 0 0 1-14 13v-3c1.43-1.39 1.43-1.39 3.31-2.81 3.36-2.78 5.35-4.93 6.69-9.19.25-5.95-.93-10.52-5-15-6.36-5-12.1-5.83-20-5-6.07.73-11.68 2.52-17.44 4.5-16.57 5.69-34.19 6.51-50.81.28-10.2-5.1-16.16-12.67-19.91-23.34A47 47 0 0 1 891 509z" fill="#E8E8EA"/><path d="M364 394a89 89 0 0 1 17 3l2.03.54c4.84 1.33 4.84 1.33 5.97 2.46q.31 3.16.5 6.31c.4 6.37.4 6.37 1.12 8.66.48 2.56-.02 3.5-1.25 5.77l-1.18 2.2-1.31 2.37-1.36 2.51q-2.25 4.1-4.52 8.18l-1.58 2.85a851 851 0 0 1-21.3 36.33q-2.2 3.6-4.31 7.26c-3.24 5.44-7.01 10.49-10.81 15.56l-2-3 1.68-2.01 2.2-2.68 2.17-2.63A29 29 0 0 0 351 480a160 160 0 0 1 3-5.06c2.84-4.61 2.84-4.61 4-7.01a34 34 0 0 1 3.94-5.74c2.72-3.56 4.34-7.04 6.06-11.19q2.16-3.76 4.45-7.45c3.02-4.98 5.96-9.97 8.17-15.36 1.38-3.19 1.38-3.19 2.94-5.25 1.88-2.54 2.68-4.89 3.44-7.94q-.48-2-1-4a75 75 0 0 1-.06-4.75l.02-2.42.04-1.83c-4.03-1.23-7.98-2.2-12.12-2.94-3.82-.73-6.74-1.65-9.88-4.06z" fill="#E7E8EA"/><path d="M691 254.44c2.64.44 4.07.55 6.75 0 2.84-.55 3.75.24 6.25 1.56 3.13.23 5 0 8-1q3.53.9 7 2v2l-2.06.03-21.22.34-7.92.13-11.38.19-3.58.05-3.34.06-2.93.04c-2.34.15-4.32.53-6.57 1.16q-2.22.28-4.46.47l-2.6.23-2.75.24c-7.7.69-15.32 1.55-22.96 2.7-3.44.39-6.78.42-10.23.36v-3l2.01-.4c.44-.1.44-.1 2.68-.54L627 260l2.67-.6c2.33-.4 2.33-.4 4.95.16C637 260 637 260 640 258q2.5-.01 4.97.04c5.81.07 5.81.07 8.03-1.04 2.5-.07 4.99 0 7.49.06 2.51-.06 2.51-.06 4.37-.56 4.38-1.02 9.04-.45 13.51-.34 4.64-.2 8.03-2.62 12.63-1.72" fill="#EDEDF1"/><path d="M366 326c4.33-.55 6.76-.76 10.54 1.56q3.33 2.6 6.46 5.44c-.62 3.28-1.11 4.12-3.5 6.75-3.14 3.53-3.26 6.61-3.5 11.25l-3 1q-1.95-2.58-3.88-5.19l-2.17-2.92c-3.94-5.86-4.1-9.13-2.95-15.89h2z" fill="#757278"/><path d="M821 536h1l.18 3.11.13 2.02.26 4.39c.25 4.17.64 8.28 1.18 12.42.45 4.53-.33 7.74-1.99 11.94a23 23 0 0 0-1.26 6.18 37 37 0 0 1-2.68 9.86c-1.17 2.95-2.11 5.97-3.07 9-.77 2.13-1.74 4.06-2.75 6.08q-.8 2.17-1.5 4.38l-.78 2.38L809 610a178 178 0 0 1-4 11l-.94 2.94c-3.17 9.14-3.17 9.14-7.06 12.06h-3a90 90 0 0 1 5.19-12.75c7.29-15.42 12.59-31.23 17.1-47.67q.86-3.09 1.78-6.15c2.98-10.82 2.68-22.28 2.93-33.43" fill="#DDDEE1"/><path d="M299 316h1l.11 3.59c.52 13.51 1.65 22.98 10.89 33.41l2.21 2.5q2.28 2.56 4.6 5.09 2.93 3.25 5.75 6.6C335.2 380.45 350.02 386.4 366 393c-1.72 1.1-1.72 1.1-4 2-2.18-.52-2.18-.52-4.52-1.6l-2.6-1.18-2.69-1.28-2.66-1.2A79 79 0 0 1 335 381l-3.31-1.69c-6.46-3.57-12.54-9.65-15.69-16.31a84 84 0 0 0-3.25-3.81l-1.88-2.11-3.52-3.91c-5.65-6.38-9.71-12.37-9.23-21.15l.15-2.84.17-2.93.16-2.98z" fill="#E0E1E3"/><path d="M860 455c2.13 3.19 2.24 4.09 1.59 7.72-1.37 5.31-3.43 10.4-5.34 15.53-10.64 29.09-10.64 29.09-11.01 44.48L845 525l-2 1c-1.84-6.1-2.35-9.13 0-15v-3q.44-2.01 1-4l.85-3.11c1.42-4.97 3.24-9.81 5.03-14.66A57 57 0 0 0 853 474l.81-5.19.4-2.54c.98-2.83 2.29-3.71 4.79-5.27l-.62-1.88L858 457z" fill="#EDEFF3"/><path d="M993 577h2c-1.01 2.94-1.87 3.92-4.56 5.56a121 121 0 0 1-10.28 3.68c-2.16.76-2.16.76-5.28 2.38-3.33 1.6-6.23 1.88-9.88 2.38a89 89 0 0 0-3.81 1.5c-3.96 1.59-7.71 2-11.94 2.32-2.48.2-4.82.67-7.25 1.18q-2 .38-4 .69l-1.94.32c-2.68-.01-4.57-1.02-7.06-2.01a89 89 0 0 0-6.31-.62l-3.24-.23L917 594v-1l2.09-.06c59.78-1.81 59.78-1.81 73.91-15.94" fill="#DFDFE2"/><path d="M431.9 294.93c3.39 1.72 5 3.93 7.1 7.07-3 0-3 0-6-1q-2.1-.1-4.2-.07l-3.8.07-1 3-2.75-1.94c-5.48-3.48-10.86-3.68-17.25-3.06-3.12 1.5-3.12 1.5-5 3 1.85-4.63 4.64-5.97 9.02-8.02 7.73-2.55 16.25-1.62 23.88.95" fill="#E7CE6B"/><path d="M420 334h8v2l4-2c1.12 3.75 1.12 3.75 0 6h-4v2h-18v-2l-2.31.19c-2.69-.19-2.69-.19-4.5-1.69L402 337c1-1 1-1 4.82-1.1l4.74.04 2.45.01 5.99.05z" fill="#EAD554"/><path d="m502 208 2 1-.07 1.94-.05 2.62-.08 2.57c.2 2.87.2 2.87 1.2 6.19 1.11 4.08 1.26 7.81 1.19 11.99l-.03 2.33a598 598 0 0 1-.22 9.92q-.1 3.72-.25 7.44l-.07 2.34c-.11 2.16-.11 2.16-.62 5.66l-3 2c-1.1-35.86-1.1-35.86-1.12-47.69l-.02-2.29c.02-4.9.02-4.9 1.14-6.02" fill="#F6F7F7"/><path d="M867 571c3.58 1.58 6.33 3.8 9.38 6.25C892.35 589.5 913.37 593.16 933 595v1c-9.62 1.19-18.21 1.29-27.39-2.05-2.69-.98-5.41-1.86-8.13-2.74-17.92-5.83-17.92-5.83-23.48-12.21-2.4-2.6-4.92-4.25-8-6z" fill="#E3E3E6"/><path d="M314 668h2v2l1.73-.62c2.87-.48 4 .17 6.52 1.56l2.14 1.15 1.61.91-1 3-1.57-.88c-6.93-3.68-6.93-3.68-11.43-3.12v2h-5l1 4h-2v2h4c2.42 2.5 3 3.46 3 7-4.01-1.34-6.05-3.05-9-6l-2.56-1c-2.85-1.17-3.82-2.44-5.44-5 4.04-4.17 7.35-4.51 12.89-4.73L313 670z" fill="#D0D1D1"/><path d="m905 458 1 3 2 1c-1.33 4.84-2.76 9.43-4.95 13.96a55 55 0 0 0-4.62 14.69A84 84 0 0 1 896 500l-1 3.81c-1 3.19-1 3.19-3 5.19-.41 2.38-.41 2.38-.62 5.12l-.23 2.76L891 519h-1c-.34-7.85.5-14.73 2.5-22.31l.79-3.11c2.67-10.06 6.18-19.79 9.96-29.49A54 54 0 0 0 905 458" fill="#DEDEE0"/><path d="m347.5 319.88 2.49.02 6.01.1v4h-2v2h-4v2h-10v-2h-5v-2l-5-1v-1c6-1.75 11.27-2.25 17.5-2.12" fill="#E3DB44"/><path d="M304 274h1c.38 8.28-.64 16.03-2.08 24.17-1.99 11.25-3.72 22.38-3.92 33.83-2.13-1.71-2.94-2.55-3.33-5.3l.08-2.58.05-2.55c.2-2.59.68-5.02 1.2-7.57q.29-2.68.5-5.38c.97-11.12.97-11.12 2.47-15.37a58 58 0 0 0 2.09-10.5c.84-6.55.84-6.55 1.94-8.75" fill="#EAEBEB"/><path d="M704 679h84v1c-6.88 1.29-13.72 1.13-20.7 1.1l-3.99-.01-10.43-.02-10.63-.02-18.66-.04c-5.57-.02-5.57-.02-8.59.99l-1-1q-2.52-.34-5.06-.56l-2.79-.26L704 680z" fill="#EFEFF2"/><path d="M501 228h1l.08 3.1.29 11.57.13 4.97c.24 9.82.61 19.57 1.5 29.36l2.94.88C510 279 510 279 511 281c3.16.41 3.16.41 7.06.62l3.91.23 3.03.15v1c-4.58 1.14-9 1.18-13.69 1.19l-2.34.03A92 92 0 0 1 503 284c-2-2-2-2-2.24-4.29l.01-2.89v-3.28l.03-3.55.01-3.62q.02-5.75.07-11.49l.02-7.78q.03-9.55.1-19.1" fill="#D9DAD9"/><path d="M846 443h4c-3.75 23.61-3.75 23.61-10 32h-2c.61-7.13 2.5-13.67 4.56-20.5l1-3.36z" fill="#E8E8EA"/><path d="M326 594h1c.52 2.68.4 4.4-1.14 6.69a119 119 0 0 1-5.17 5.62l-1.93 2.01c-7.23 7.41-14.67 13.72-24.76 16.68l-2.56.81c-3.43.27-6.21-.73-9.44-1.81v-1l3.69-.19c14.14-1.7 25.37-9.22 34.09-20.19 1.6-2.1 3.11-4.22 4.61-6.38z" fill="#D9D9DA"/><path d="m355 171 3.38 3.39q1.75 1.74 3.52 3.44a75 75 0 0 1 9.22 10.42c2.53 3.51 5.18 5.47 8.88 7.75 4.79 4.36 4.79 4.36 6 8a31 31 0 0 0 4 2l3 2v2c-4.26-.51-6.45-2.95-9.5-5.81l-1.57-1.48c-7.83-7.38-15.55-14.89-22.53-23.09A84 84 0 0 0 354 174z" fill="#DCDCDD"/><path d="M794 636h2l1 2 2.81-.12C803 638 803 638 806 640q3.45.82 6.93 1.44l2.05.38 6.46 1.18 6.45 1.18q2.92.55 5.86 1.07c2.76.64 4.82 1.33 7.25 2.75-3.11.98-5.24.97-8.42.33l-2.59-.51-2.74-.57-5.68-1.13-2.84-.57q-5.82-1.16-11.67-2.24l-3.71-.7A493 493 0 0 0 794 641z" fill="#E9EAEE"/><path d="M838 313c11.96-1.01 22.28 4.47 32 11l2.22 1.47c4.7 3.29 7.69 6.7 10.78 11.53-3 0-3 0-4.73-1.54l-1.89-2.08C865.79 322.46 852.32 318.14 838 314z" fill="#D7D8DC"/><path d="m559.56 275.94 3.44.06c-5.78 6.9-18.6 6.73-27.06 7.66-5.33.46-10.6.52-15.94.34v-1l3.44-.94C527 281 527 281 528 280q2.9 0 5.81.03c4.1-.05 7.9-.48 11.7-2.1 3.22-1.2 6.07-1 9.5-.93 1-1 1-1 4.55-1.06" fill="#E9EAEB"/><path d="M323 306c2.18 3.27 3.09 6.22 4.22 9.94C328 318 328 318 330 320c2.62.62 2.62.62 5 1l-4 2 4 1v2h5v2l3.31-.56C347 327 347 327 350 328v-2h4v-2h4v-2l2 1c-6.26 6.6-6.26 6.6-11.08 7.3-8.2.05-14.38-2.28-20.92-7.3-4.76-5.27-5.23-10.17-5-17" fill="#C7C358"/><path d="M687 254q2.97.39 5.94.82c2.06.18 2.06.18 4.81-.38 2.84-.55 3.75.23 6.25 1.56 3.13.23 5 0 8-1q3.53.9 7 2v2a654 654 0 0 1-29.38-.5l-4-.14L676 258v-1l2.15-.4 2.79-.54 2.77-.52C686 255 686 255 687 254" fill="#F4F4F6"/><path d="M366 326c6.92-.61 9.67.56 15 5-3.69 2.46-5.64 2-10 2-2.94 1-2.94 1-5 2l-1-1-2 2 1-8h2z" fill="#636069"/><path d="m368 318 2 3 2 1v3l2 1h-8v2h-2v3l-4-1v-2l-4-1 2.19-1.69c2.81-2.31 2.81-2.31 5.5-5.06C366 318 366 318 368 318" fill="#090A10"/><path d="M500 228h1l.05 15.15.03 5.14c.04 9.62-.02 19.13-1.08 28.71h-1q-.3-6.61-.54-13.22l-.18-4.47c-.48-10.67.07-20.76 1.72-31.31" fill="#040504"/><path d="m958 591-1 3-2.01.18c-4.4.42-8.67.91-12.99 1.82q-2 .38-4 .69l-1.94.32c-2.68-.01-4.57-1.02-7.06-2.01a89 89 0 0 0-6.31-.62l-3.24-.23L917 594v-1l2.14-.08 9.74-.36 3.35-.12c5.93-.22 11.8-.57 17.69-1.23 2.7-.27 5.37-.28 8.08-.21" fill="#EAEBEC"/><path d="M393 313h1l.33 2.2c.9 5.46 1.92 9.92 4.67 14.8v2c6.61 3.06 13.79 2.86 20.75 1l2.25-1 1 2h-3v2l-8.31.5-2.38.14-2.3.14-2.11.13c-4.71.23-4.71.23-6.9-1.35-5.27-6.75-5.42-14.29-5-22.56" fill="#E4DE7B"/><path d="M664 256q2.56.13 5.11.4c7.37.68 14.74.94 22.14 1.16l4.03.13 9.72.31v1l-3.7.08-13.6.29-5.88.13-8.46.18-2.66.05-2.48.06-2.18.05c-2.11.17-4 .63-6.04 1.16q-2.37.1-4.75.06l-2.42-.02L651 261v-1h5l1-3 2.94.06C663 257 663 257 664 256" fill="#DCDCDE"/><path d="M490 182c4.76 1.76 7.73 5.47 9.95 9.89 1.88 4.67 2.53 9.12 3.05 14.11l1 2-2 1q-.61 3.49-1 7h-1l-.3-3.33c-2.08-21.34-2.08-21.34-8.45-27.86L489 183z" fill="#E7E9E7"/><path d="m892 508 3 1-.29 2.05-.33 2.7-.36 2.67c-.02 2.88.6 4.1 1.98 6.58q.63 2.3 1.12 4.62l.51 2.36C898 532 898 532 898 534c-3-1-3-1-4.17-3.05-2.78-7.38-3.56-14.08-2.83-21.95z" fill="#EFF0F3"/><path d="M338 282h13l1 6h2v-2h2v4h-2v2l-6-2v-2h-2v-2l-2.88-.88C340 284 340 284 338 282" fill="#EBE64B"/><path d="m313 671-1 2c-2.29.63-2.29.63-5.06 1.12l-2.79.51-2.15.37v2l4.81 1.25 2.71.7c2.9 1.23 3.94 2.33 5.48 5.05v3c-4.01-1.34-6.05-3.05-9-6l-2.56-1c-2.85-1.17-3.82-2.44-5.44-5 4.54-4.27 8.9-6.03 15-4" fill="#DADADB"/><path d="M821 536h1l.18 3.11.13 2.02.26 4.39c.25 4.17.64 8.28 1.18 12.42.49 5.01-.17 9.65-2.75 14.06l-3 1 .44-4.25.24-2.39c.32-2.36.32-2.36.82-4.15.6-2.65.72-5.14.82-7.85l.12-3.24.25-6.78z" fill="#C6C7C9"/><path d="M748 261c8.12.72 16.26 3.35 23 8v2c-5.08-1-9.78-2.22-14.62-4.06A45 45 0 0 0 744 264l4-1z" fill="#E0E0E3"/><path d="M363 292c2 1 2 1 3 2q.06 2.5 0 5h2c.57 8.72.86 16.93-5 24-2.17.76-2.17.76-4 1l1.06-1.83 1.38-2.42 1.37-2.39c2.01-3.98 2.35-7.36 2.38-11.8l.04-2.81c-.25-2.94-1.09-5.05-2.23-7.75z" fill="#180F05"/><path d="M425 304c2.81-.25 2.81-.25 6 0 1.88 1.75 1.88 1.75 3 4v4h-2l-.38 2.31C431 317 431 317 429 320a235 235 0 0 0-.88-4.81l-.49-2.71C427 310 427 310 425 307z" fill="#E6D274"/><path d="M299 316h1l.11 3.59c.77 19.73.77 19.73 5.89 27.41-.38 2.19-.38 2.19-1 4l-2.94-4.19-1.65-2.35c-2.34-4.09-2.54-7.91-2.29-12.54l.15-2.82.17-2.91.16-2.97z" fill="#D6D8D7"/><path d="M845 458c1.62 4.04.44 7.03-1 11-2 3.44-2 3.44-4 6h-2c.49-5.64 1.38-9.96 4-15z" fill="#F1F1F4"/><path d="m343.75 280.88 3.55.05 2.7.06v1c-2.64.33-5.28.68-8 1l2 4h-15c5.29-5.29 7.34-6.26 14.75-6.12" fill="#D6D05F"/><path d="m396 206 4 2c4.73 1.07 9.18 1.08 14 1h3l1 2c-6.97 3.48-17.75.83-25-1l1-3z" fill="#F2F3EF"/><path d="M316 687c6.01-.2 11.38.32 17.27 1.49 3.89.73 7.79 1.12 11.73 1.51-3.71 2.48-6.31 2.13-10.56 1.81l-2.16-.14A58 58 0 0 1 316 688z" fill="#E5E4E7"/><path d="M306 645h1l.08 1.69c.74 9.92 4.61 15.74 11.92 22.31l-3 1v-2h-3c-5.41-5.78-8.29-12.36-10-20h2z" fill="#D5DADA"/><path d="M902 591a394 394 0 0 1 24.02 2.98L933 595v1c-10.28 1.27-20.41 1.56-30-3z" fill="#EEEEF1"/><path d="M405.94 335.9a485 485 0 0 0 7.25.06l2.81.04v6h-6v-2l-2.3.2c-2.7-.2-2.7-.2-4.5-1.7L402 337c1-1 1-1 3.94-1.1" fill="#EFE458"/><path d="M320 171h1c.32 7.86-.64 15.27-2 23l-3-1c-.1-3.52.3-6.56 1-10q.35-3.46.62-6.91C318 174 318 174 320 171" fill="#EDEDEE"/><path d="M909 391c1.94.62 1.94.62 4 2 1.01 4.31 1.11 8.46 1.06 12.88l-.02 3.49L914 412h-2l-1.5-8.25-.43-2.36-.41-2.28q-.2-1.03-.38-2.1C909 395 909 395 909 391" fill="#DBDCDE"/><path d="M405 526c-.55 3.37-1.05 5.08-3 8h-2v-2h-2l-1 4h-3c0-3.11.54-4.35 2-7h3l2-2c2-1 2-1 4-1" fill="#EBF0F1"/><path d="M299 308h1l-1 24c-3-3-3-3-3.33-5.3.26-8.54.26-8.54 1.33-12.7l.5-2.75c.5-2.25.5-2.25 1.5-3.25" fill="#F2F5F1"/><path d="M845 506h1l-1 19-2 1c-1.84-6.1-2.35-9.13 0-15v-3z" fill="#F2F6F9"/><path d="M412 294h10v6c-7.75-.88-7.75-.88-10-2z" fill="#EBD34F"/><path d="m462 204 1 2-1 2h-2l-.44 1.88C459 212 459 212 458 214h-2v2h-7c3.1-3.99 5.54-6.53 10-9 1.81-1.69 1.81-1.69 3-3" fill="#060708"/><path d="M326 594h1c.48 2.66.43 4.38-1.12 6.63a126 126 0 0 1-4.88 5.18l-1.73 1.81L315 612l-4-1 1.5-1.18c5.01-4.12 8.6-8.46 12.15-13.88z" fill="#DBDDDF"/><path d="M810 597c1.41 2.27 2.08 3.47 1.68 6.15-4.2 11.61-4.2 11.61-8.68 13.85a563 563 0 0 1 7-20" fill="#D9DADA"/><path d="M366 326c7.51-.37 7.51-.37 10 1.5l1 1.5c-2.89.83-4.89 1-8 1-2.75.97-3.76 1.58-5.25 4.12L363 336l1-8h2z" fill="#4F4F55"/><path d="m491 181-1 2-3-.38c-4.49-.05-6.92 2.23-10.2 5.07C475 189 475 189 472 189c4.79-8.43 9.63-11.29 19-8" fill="#ECECEE"/><path d="M793 636h1v5l11 1-1 3-5-1v2l-4 2v-4l3 1v-3c-4.75 1.88-4.75 1.88-7 3 .49-3.12 1-6 2-9" fill="#BFBFC2"/><path d="M368 544h3c-.11 4.61-1.38 6.73-4.56 9.88q-1.7 1.58-3.44 3.12l-3-2 1-3h4a29 29 0 0 0 3-8" fill="#1E1E20"/><path d="M431 484c1 3 1 3-.43 5.92l-2.01 3.27-1.99 3.29L425 499l-2-3-2-1 1.43-1.39c6.18-6.1 6.18-6.1 8.57-9.61" fill="#DEE0E2"/><path d="M909 444h2c1.13 4.75.73 7.48-1 12q-.55 2.5-1 5h-3a94 94 0 0 1 3-17" fill="#DDDFE0"/><path d="m338 573 4 4-6 8-2-2c.32-3.97 1.84-6.71 4-10" fill="#090909"/><path d="M855 555c3.89 3.59 6.88 7.74 10 12l3 4c-3 0-3 0-4.97-1.86l-2.09-2.45-2.1-2.43C855 559.54 855 559.54 855 555" fill="#D6D8DB"/><path d="M991 543v2c-3.1 1.03-5.57 1.02-8.8.96a48 48 0 0 0-6.58.66L972 547l-2-2a75 75 0 0 1 21-2" fill="#1F1F23"/><path d="M794 636h2l1 2 2.62-.19c3.82.21 6.09 1.31 9.38 3.19v1c-5.13.1-9.95.04-15-1z" fill="#F2F2F5"/><path d="m928 548 8 1v2l8 1v1c-6.77.1-13.3.03-20-1l3-1z" fill="#DEDEE0"/><path d="M317 194h2l-1 21h-1c-2.48-11.5-2.48-11.5-1-17l.56-2.38z" fill="#D8DADB"/><path d="M917 593h24c-3.71 3.71-3.71 3.71-7 4l-2.24-.95c-3.1-1.18-5.76-1.46-9.07-1.67l-3.24-.23L917 594z" fill="#B7B7B9"/><path d="M298 557h3a23 23 0 0 1-5.38 7.62l-1.77 1.79A22 22 0 0 1 288 570c.33-3.07.9-3.91 3.31-5.94L294 562l2.12-2.75z" fill="#D2D2D6"/><path d="M822 536h2a34 34 0 0 1 1.25 9.12l.08 2.64L825 550l-3 2z" fill="#F2F2F8"/><path d="M856 368c3 2 3 2 3.69 4.62L860 375l-2 1-1 18h-1z" fill="#B0B2B3"/><path d="M771 269c4.49.66 8.67 1.7 13 3v3a56 56 0 0 1-13-3z" fill="#E8E7EB"/><path d="M450 211h2c-1.37 3.16-1.99 3.99-5 6-1.94.27-1.94.27-4 .25l-2.06.02C439 217 439 217 436 215l2.81-.62 3.63-.82 3.62-.81C449 212 449 212 450 211" fill="#DADADA"/><path d="m502 208 2 1c.25 6.57-.68 12.57-2 19h-1q-.05-4.72-.06-9.44l-.03-2.72-.01-2.59-.01-2.39C501 209 501 209 502 208" fill="#F1F1F0"/><path d="m327 157 4 2-2.38.25c-2.62.75-2.62.75-3.71 2.44a38 38 0 0 0-2.03 8.06l-.51 2.98L322 175c-2.12-3.93-2.69-6.49-2-11a47 47 0 0 1 7-7" fill="#DCDEDF"/><path d="M530.13 279.81c3.49.23 6.54 1.14 9.88 2.2v1c-6.7 1.02-13.25 1.1-20 1v-1l3.42-.95c2.75-.82 4.08-2.02 6.7-2.25" fill="#E3E3E4"/><path d="m495 682-4 1v2c-6.44.11-12.63-.04-19-1v-1c15.74-1.15 15.74-1.15 23-1" fill="#E4E4E5"/><path d="m943.25 548.81 3.27.08 2.48.11-1 3h-15c4.32-3.24 5.15-3.36 10.25-3.19" fill="#F5F4F7"/><path d="m347 311 3 1-2 8h-8c1.38-1.5 1.38-1.5 3-3h2z" fill="#D1C962"/><path d="M838 313a39.6 39.6 0 0 1 18 3v3c-6.01-1.63-12.02-3.27-18-5z" fill="#D2D2D6"/><path d="M738 259c3.86-.22 6.49.4 10 2v2h-10zm10 1 4 2h-3z" fill="#ECECEE"/><path d="M793 633c1.22 3.66.63 4.63-.81 8.12l-1.08 2.7C790 646 790 646 788 647l-.06-4.38-.04-2.46c.1-2.16.1-2.16 1.1-4.16h3z" fill="#0B0B0B"/><path d="m312.25 612.33 1.75.67a507 507 0 0 1-5.82 4.56l-1.65 1.33a66 66 0 0 1-4.53 3.1l-3-1a69 69 0 0 1 6.93-6.24l2.03-1.64c2.04-1.11 2.04-1.11 4.3-.78" fill="#DFE2E4"/><path d="M415 294h-3v4l-3.69.31A18 18 0 0 0 399 302c1.46-3.82 3.25-5.03 6.88-6.81l2.61-1.33c2.72-.93 3.87-.86 6.51.14" fill="#BBB574"/><path d="m351 164 5 5-2 4c-3-1.81-3-1.81-6-4v-3z" fill="#EFF1F3"/><path d="M436 686v1h-8v2h-12v-2c6.7-1.03 13.23-1.1 20-1" fill="#E2E2E4"/><path d="m381 649 3 2c-2.31 2.5-2.31 2.5-5 5h-3l-.75 1.81c-1.41 2.48-2.9 3.62-5.25 5.19 1.39-4.3 3.38-6.71 6.62-9.81l2.48-2.4z" fill="#C7C8C9"/><path d="m338 582 2 1a194 194 0 0 1-12 13l-1-3z" fill="#E6E7E9"/><path d="M288 568v2a52 52 0 0 1-16 4v-2c11.55-4 11.55-4 16-4" fill="#ECEBEF"/><path d="M871 400h1c1.5 7.92 2.33 15.01 1 23h-1a182 182 0 0 1-1-23" fill="#070808"/><path d="M393 313h1l.33 2.16c.95 5.72 2.12 10.63 4.67 15.84l-3 2c-2.82-6.79-3.37-12.69-3-20" fill="#A8A687"/><path d="M855 317c4.01.58 6.86 1.84 10.31 3.94l2.68 1.59L870 324v2q-4.68-1.77-9.19-3.94l-2.04-.96C857 320 857 320 855 317" fill="#E3E4E6"/><path d="m620 266-18 3c5.19-5.19 11.28-7.48 18-3" fill="#E0DFE6"/><path d="M398 420h2v12h-2c-1.62-4.1-2.34-6.74-1-11z" fill="#202021"/><path d="M321 180c2 3 2 3 1.62 5.19L322 187l2 1h-2v8l-2 1a1051 1051 0 0 1-.09-10.22q0-2.9.09-5.78z" fill="#191818"/><path d="M323 306c2.16 3.24 3.09 6.16 4.22 9.84C328 318 328 318 330 321l-2 2c-4.57-5.61-5.24-9.95-5-17" fill="#959569"/><path d="m269 576 2 1c-1 3-1 3-4 5-1.19 2.12-1.19 2.12-2 4h-2l-1 4c-1-3-1-3-.11-4.94l1.36-2.06 1.33-2.06A35 35 0 0 1 269 576" fill="#141614"/><path d="M1003 550c3.44 2.29 3.8 3.16 5 7a166 166 0 0 1 1 7l-3 2-.4-2.23-.54-2.96-.52-2.92A549 549 0 0 0 1003 550" fill="#EBECED"/><path d="M967 548v2c-3.19 1.89-5.35 2-9 2l-2 2-1-4q2.15-.8 4.31-1.56l2.43-.88C964 547 964 547 967 548" fill="#222326"/><path d="M911 413h1q.04 3.09.06 6.19l.04 3.48A40 40 0 0 1 911 431l-2-1 .44-6.81.24-3.83C910 416 910 416 911 413" fill="#07090A"/><path d="M652 257c2.06.44 2.06.44 4 1v2c-4.67 1.21-9.21 1.09-14 1l2-3c3.56-.12 3.56-.12 7 0z" fill="#F5F4F8"/><path d="M308 658c3.92 3.8 7.49 7.82 11 12h-3v-2h-3c-1.39-1.43-1.39-1.43-2.69-3.31l-1.32-1.87C308 661 308 661 308 658" fill="#E2E1E2"/><path d="M995 577c-1.07 3.09-2.01 4-4.81 5.81-3.38 1.26-4.82 1.28-8.19.19 2.12-2.12 3.77-2.93 6.5-4.12l2.41-1.08c2.09-.8 2.09-.8 4.09-.8" fill="#D7D7DA"/><path d="M990 541c5.59 1.36 8.91 4.15 13 8l-1 3-2.12-2.31C997 547 997 547 993.75 545.38L991 544z" fill="#D8D8DB"/><path d="m332 510 2 3-6 9-2-3a81 81 0 0 1 6-9" fill="#DDDFE0"/><path d="M445 313h1q.13 4.68.19 9.38l.07 2.69.03 2.58.05 2.38L446 332l-3 2-1-3 .9-1.73c1.53-3.16 1.53-6.03 1.72-9.52l.23-3.83z" fill="#4D3F17"/><path d="M327 314h3v2l3 1-1 3h6v1c-7.42.36-7.42.36-10-1.25-1-1.75-1-1.75-1-5.75" fill="#242408"/><path d="M420 290q2.38.35 4.75.75l2.67.42C430 292 430 292 434 296l-18-3 4-1z" fill="#30230C"/><path d="m601 265 3 2c-3.15 2.8-5.07 3.35-9.25 3.19l-2.7-.08L590 270c2.4-1.6 4.37-2.69 7-3.75l2.06-.86z" fill="#E7EAEB"/><path d="M314 224c2 2 2 2 2.19 5.81A41 41 0 0 1 315 239c-2.39-4.46-3.33-6.69-2.06-11.75z" fill="#DADCDF"/><path d="M386 403h3v11l-3-1z" fill="#F5F3F6"/><path d="M432 343c-6.51 3.76-12.84 2.92-20 2v-1q4.16-.55 8.31-1.06l2.38-.32 2.3-.28 2.11-.27c1.9-.07 1.9-.07 4.9.93" fill="#3A3319"/><path d="m427 211 5.44.88 3.06.49 2.5.63 1 2q-2.68.05-5.38.06l-3.02.04c-2.6-.1-2.6-.1-4.6-1.1z" fill="#EAECEB"/><path d="M490 182c3.81 1.5 5.81 3.56 8 7 .25 3.31.25 3.31 0 6a476 476 0 0 1-3.94-6c-1.58-2.31-3-4.14-5.06-6z" fill="#CCC"/><path d="M823 524c2 3 2 3 3 6-.94 3.19-.94 3.19-2 6h-2l-.06-4.31-.04-2.43c.1-2.26.1-2.26 1.1-5.26" fill="#D2D3D7"/><path d="M391 525a12 12 0 0 1 1 4c-1.91 3.49-4.46 5.27-8 7l-2-1 1.46-1.43 1.92-1.88 1.89-1.87C389 528 389 528 391 525" fill="#D4D6D4"/><path d="M907 378h2l3 14-2 1c-1.92-4.98-2.55-9.73-3-15" fill="#EDF0F0"/><path d="m404 328-1 6c-2.62-1.05-3.79-1.65-5.25-4.12L397 328c2.67-1.33 4.17-.67 7 0" fill="#251C16"/><path d="M332 160v2l5 1c-3.7 1.23-6.19.55-10 0l-2 1c.38-1.94.38-1.94 1-4 2.49-1.25 3.41-.78 6 0" fill="#111012"/><path d="M258 588h2c-.57 4.69-1.19 9.35-2 14h-2l.44-6.44.24-3.62C257 589 257 589 258 588" fill="#EFF0EF"/><path d="M896 534c3.51.57 5.03 1.69 7.31 4.38l1.62 1.83L906 542l-1 3-4.5-4.94-2.53-2.77C896 535 896 535 896 534" fill="#D5D5D8"/><path d="M904 370c2 1.38 2 1.38 4 4a57 57 0 0 1 0 10c-4.31-8.57-4.31-8.57-4-14" fill="#D5D6D7"/><path d="M882 337c3.32.99 4.75 1.65 6.81 4.5C890 344 890 344 890 346c-3.79-1.49-5.68-3.69-8-7z" fill="#E8E9EB"/><path d="M441 332c.55 2.08 1 3.84 1 6-1.88 2.12-1.88 2.12-4 4h-2v-2l-2-1 4.59-3.71C440 334 440 334 441 332" fill="#20180E"/><path d="M329 321h6l-4 2 4 1v2h5v3c-4.03-1.22-7.59-2.49-11-5z" fill="#B9B44F"/><path d="M427 313h1c.38 5.93-.89 10.47-3 16-2-3-2-3-1.62-5.06L424 322v-2h2z" fill="#180F03"/><path d="m415 208 3 3c-2.88 1.44-5.42 1.09-8.62 1.06l-3.61-.02L403 212v-1l2.37-.4 3.07-.54 3.06-.52C414 209 414 209 415 208" fill="#ECEBEA"/><path d="m462 199 3 1-12 12-2-2 2.15-1.9 2.79-2.48 2.77-2.46C461 201 461 201 462 199" fill="#E7E8E9"/><path d="M967 588v2c-4.33 2.23-7.28 1.92-12 1 4.2-2.25 7.21-3 12-3" fill="#D8D8DB"/><path d="m396 541 4 2-2 2v2l-4 2-2-2z" fill="#17191A"/><path d="M980 543v1l-2.05.4-2.7.54-2.67.52q-3.31.69-6.58 1.54v-3c5.2-2.21 8.58-1.93 14-1" fill="#D6D6DA"/><path d="M353 389c4.61.72 8.67 2.31 13 4-1.7 1.12-1.7 1.12-4 2-2.36-.68-2.36-.68-4.75-1.88l-2.42-1.17L353 391z" fill="#E0E1E5"/><path d="m361 323 3 1h-2l1 7-3-1v-2l-4-1c2.31-2.06 2.31-2.06 5-4" fill="#060105"/><path d="M404 292h12v1l-4.31 1.5-2.43.84C407 296 407 296 404 296z" fill="#191406"/><path d="m639 258 3 2q2.49.58 5 1v1l-12 1v-2c2-1.62 2-1.62 4-3" fill="#E3E2E7"/><path d="M316 687c6.64-.21 12.53.49 19 2v1l-6.12.12-3.45.08c-3.49-.2-6.19-.95-9.43-2.2z" fill="#DBDADC"/><path d="m805 615 2 2-.94 1.69A27 27 0 0 0 804 626l-4-1 1.38-3.88.77-2.17C803 617 803 617 805 615" fill="#F0F0F1"/><path d="m814 590 2 2-.94 2.31q-1.1 2.82-2.06 5.69l-2-1c-.37-5.54-.37-5.54 1.5-7.88z" fill="#E6E8EB"/><path d="M892 503h2l1 3-1.46 1.18c-2 2.36-2.03 3.95-2.23 7.01l-.2 2.73L891 519h-1l-.12-5.19-.08-2.92c.21-3.02.93-5.16 2.2-7.89" fill="#BEBFC1"/><path d="m353 482 2 3-4 7-3-1z" fill="#1B1B1D"/><path d="m862 448 4 1a43 43 0 0 1-3 10l-2-1z" fill="#E0E2E4"/><path d="M365 311h1c.29 4.94.21 8.1-3 12-2.11.63-2.11.63-4 1l1.06-1.83 1.38-2.42 1.37-2.39A24 24 0 0 0 365 311" fill="#231C09"/><path d="M431 295c3.54 1.91 5.79 3.63 8 7-3 0-3 0-6-1-2-3-2-3-2-6" fill="#D5BF60"/><path d="M477 186v6h-2l1 4-3-1 1-3-2-1zm-6 10 1 2-2-1z" fill="#1F1F22"/><path d="M358 593h2c-1.39 4.43-3.61 6.87-7 10l-1-2q1.42-2 2.88-4l1.61-2.25z" fill="#D7DADD"/><path d="m919 547 7 1 1 3h-7z" fill="#F3F3F6"/><path d="m396 529 3 3-3 5-3-3z" fill="#F4F5F7"/><path d="M327 373c3.37 1.44 5.51 3.33 8 6-4 0-4 0-6.75-2.5L326 374z" fill="#E2E5E5"/><path d="M400 338c2 0 2 0 4 1.88l2 2.12 2 2h-8z" fill="#201A0D"/><path d="m423 333-3 1v2h-14v-1l2.05-.15 2.7-.23 2.67-.21c2.58-.41 2.58-.41 4.72-1.51 1.86-.9 1.86-.9 4.86.1" fill="#D6CE80"/><path d="M863 324c3.7.39 5.62 1.12 8 4l-1 2-1.81-1c-2.19-1-2.19-1-5.19-1l-1-3z" fill="#0A0D0F"/><path d="M346 286v2h2v2l4 1-3 1-1 2-1.88-2.38C344 289 344 289 342 287c2-1 2-1 4-1" fill="#D7D05B"/><path d="M258 596h1l2 13h-3c-.84-4.66-1.02-8.37 0-13" fill="#D5D6D5"/><path d="M853 412c.2 6.05.2 6.05 0 8l-2 2c-1.48-2.96-1.06-5.74-1-9 2-1 2-1 3-1" fill="#0A0A0D"/><path d="M855 403h2l1 8-4 1z" fill="#DFDFDF"/><path d="M344 308h4l-1 5-5 1v-2h2z" fill="#0B0A0B"/><path d="m657 257 7 2c-3.06 1.78-5.22 2.23-8.75 2.12l-2.42-.05L651 261v-1h5z" fill="#D4D4D6"/><path d="m262 580 2 1-3 9-1-2h-2z" fill="#DEE0DD"/><path d="M879 581c5.75 1.88 5.75 1.88 8 3v2c-3.38-.31-3.38-.31-7-1l-2-3z" fill="#E9E9ED"/><path d="M306 348a64 64 0 0 1 8 9c-3 0-3 0-5.69-2.25C306 352 306 352 306 348" fill="#C9CDCE"/><path d="m464 200 1 4-1.75.75c-2.55 1.42-4.27 3.13-6.25 5.25l-2-1z" fill="#2B2D2D"/><path d="m319 604 1 3c-2.25 2.56-2.25 2.56-5 5l-4-1z" fill="#CECFD1"/><path d="m355 564 2 1c-2.42 3.19-4.68 5.75-8 8l-2-1z" fill="#E7EAE9"/><path d="M1005 558h1c-.35 8.19-.35 8.19-3.06 11.56L1001 571a95 95 0 0 1 2.56-8.75l.82-2.42z" fill="#29292C"/><path d="m362 557 1 2-5 5-3-1z" fill="#D2D2D2"/><path d="m328 520 4 2-6 6-2-2z" fill="#131615"/><path d="m850 486 3 1-3 9-2-1z" fill="#DEDFE3"/><path d="M431 484c1 3 1 3 .22 4.82L428 494l-2-4z" fill="#BABBBF"/><path d="M373 445c1 3 1 3-.25 5.69L371 453h-3c1.19-3.38 2.28-5.65 5-8" fill="#EEEFF1"/><path d="m333 283 3 1h-2v2h7v1h-12z" fill="#BCB57F"/><path d="M766 266a55 55 0 0 1 5 3v2l-9-2z" fill="#CDCBCE"/><path d="m348 611 2 1c-1.39 3.37-2.98 4.99-6 7l-2-1z" fill="#09090A"/><path d="m365 586 3 1-6 7-2-1z" fill="#1D1E1F"/><path d="M335 578h3l1 4-4 3c-1.12-4.75-1.12-4.75 0-7" fill="#131413"/><path d="M345 494h3c0 3 0 3-2 6l-4-1c1.31-2.5 1.31-2.5 3-5" fill="#191B1D"/><path d="M907 454h2c1.04 3.13.93 3.99 0 7h-3q-.06-3 0-6z" fill="#EAEBED"/><path d="M439 302c3.87 3.22 4.88 6.15 6 11h-3v-5h-2z" fill="#CCBB7F"/><path d="M784 273c2.38.75 2.38.75 5 2l2 4-9-3 2-1z" fill="#D9D9DA"/><path d="M304 640h3l-1 10c-2-2-2-2-2.2-3.95z" fill="#EFF2F2"/><path d="M368 544h3c-.38 2.94-.38 2.94-1 6l-2 1-2-2z" fill="#171817"/><path d="m857 376 1.38 1.44A10 10 0 0 0 862 380v2l-5 2z" fill="#F6F7FB"/><path d="M376 344v7l-3 1v-7c2-1 2-1 3-1" fill="#4E4850"/><path d="m430 310 2 1c.26 3.15.25 4.62-1.5 7.31L429 320c-.12-7.75-.12-7.75 1-10" fill="#F0DD80"/><path d="M306 273h2c.19 3.31.19 3.31 0 7l-3 3z" fill="#1F1F1E"/><path d="M631 259c2.12.94 2.12.94 4 2v2h-7l1-3z" fill="#F5F4F8"/><path d="m369 187 1.46 1.28 1.92 1.66 1.89 1.65A14 14 0 0 0 378 194l-1 2c-5.9-3.35-5.9-3.35-8-6z" fill="#ECECEA"/><path d="M833 674v1c-5.16 1.51-8.66 2.34-14 1v-1c4.76-.95 9.17-1.08 14-1" fill="#E0DEE2"/><path d="M317 666h3v2l5 1-1 3-7-4z" fill="#202020"/><path d="m822 556 2 1v6l-3 1q-.06-3.5 0-7z" fill="#F4F2F9"/><path d="m322 529 3 1c-1.31 2.5-1.31 2.5-3 5h-3z" fill="#161415"/><path d="M893 495a16.6 16.6 0 0 1 3 7l-4 1z" fill="#D8D9DA"/><path d="M340 496h2l1 3c-1.94 2.69-1.94 2.69-4 5-.93-2.61-1.15-3.64-.06-6.25z" fill="#DFE0E2"/><path d="M865 443h2l-1 6-4-2c1.38-2 1.38-2 3-4" fill="#EEEDF3"/><path d="M913 412h2l1 7-3 1z" fill="#F1F1F3"/><path d="M870 403h1v9l-4-1v-3h2z" fill="#D8D7DB"/><path d="M864 385c2.69 2.69 3.06 5.38 4 9l-2 1-1-6h-2z" fill="#D2D4D6"/><path d="M858 375h3l2 6-5-1z" fill="#D1D4D7"/><path d="M322 368c3.16 1.37 3.99 1.99 6 5h-4l-2-2z" fill="#DCDFE0"/><path d="m366 338 1.81 1.38q2.55 1.87 5.19 3.62h-3l-1 3c-2.62-3.06-3-3.73-3-8" fill="#868783"/><path d="M350 298h1v8l2 1-3 1-1 3c-1.41-2.81-.67-4.57-.06-7.62l.59-3.04z" fill="#BBBB5D"/><path d="m351 282 7 4-2 2v-2h-2v2h-2z" fill="#DAD261"/><path d="m501 204 3 4-2 1q-.61 3.49-1 7h-1q-.05-2.71-.06-5.44l-.04-3.06c.1-2.5.1-2.5 1.1-3.5" fill="#E1E3E1"/><path d="M330 155q3.51.39 7 1l1 2h-10z" fill="#EEF0F1"/><path d="m305 550 1 3-4 4-3-1z" fill="#E0E2E3"/><path d="M819 546c2 2 2 2 2.2 4.82l-.08 3.3-.05 3.33L821 560h-1l-.5-4.75-.28-2.67C819 550 819 550 819 546" fill="#242525"/><path d="m833 485 3 2c-.31 1.94-.31 1.94-1 4l-3 1z" fill="#DADBDE"/><path d="M901 472h2l1 3-4 4q-.06-3 0-6z" fill="#EBECEE"/><path d="m389 413 2 4-2 3h-2v-6z" fill="#DFDFE0"/><path d="M346 385c5.75 1.75 5.75 1.75 8 4-3 1-3 1-5.69-.31L346 387z" fill="#D2D2D4"/><path d="m379 333 4 1-2 4h-3z" fill="#92919A"/><path d="M590 271c1.95-.29 1.95-.29 4.12-.19l3.88.19-1.94.94C594 273 594 273 593 274q-2.5.06-5 0z" fill="#0C0E0D"/><path d="m279 623 8 1v2c-3.1 1.03-4.06 1.18-7 0z" fill="#EFF1EF"/><path d="M344 491h1c.19 2.38.19 2.38 0 5l-3 2-1-3c1.38-2.19 1.38-2.19 3-4" fill="#EEEEF0"/><path d="m364 394 8 1v2l-3 1c-2.69-1.38-2.69-1.38-5-3z" fill="#EEF0F2"/><path d="m334 328 5 1v3l-3 1z" fill="#0B0C07"/><path d="m347 311 3 1-1 4-4 1z" fill="#C5BD63"/><path d="m440 302 5 1-1 6c-1.89-2.39-3.02-4.07-4-7" fill="#25150C"/><path d="M403 299c2.31.19 2.31.19 4 1-2.97 1.9-5.51 3.35-9 4 2.25-2.56 2.25-2.56 5-5" fill="#0D0C08"/><path d="m540.25 279.31 1.75.7v2h-8c3.45-3.09 3.45-3.09 6.25-2.7" fill="#F4F5F7"/><path d="m771 269 6 1-1 3-5-1z" fill="#E3E1E5"/><path d="m609.25 265.25 2.75.75c-3.27 1.88-6.28 2.49-10 3 3.2-4.06 3.2-4.06 7.25-3.75" fill="#D6D7DC"/><path d="M315 218h1v8h-3c-.2-3.72-.15-4.77 2-8" fill="#F0F3F3"/></svg>