<svg style="background:transparent" version="1.1" xmlns="http://www.w3.org/2000/svg" viewBox="0 0 1248 704"><path d="M970 106q3.19.02 6.38-.06c10-.06 19.31 1.38 28.62 5.06l3.52 1.36A130 130 0 0 1 1051 140v2l1.81.69c2.77 1.66 3.58 3.55 5.19 6.31l2 1.5c2.48 1.86 3.44 3.82 5 6.5l3.5 5.31c5.73 8.98 8.72 17.98 7.5 28.69-2.62 8.46-8.02 14.09-15.56 18.5-6.6 1.35-12.77-1.32-18.44-4.5a67 67 0 0 1-7-6l-2.69-2.5a60 60 0 0 1-6.31-8.5 273 273 0 0 0-6-8l-1.26-1.71c-7.87-10.04-19.97-18.52-32.58-20.81A97 97 0 0 0 978 157l-2.52-.15A44.7 44.7 0 0 0 951 163l-2.49 1.39c-8.15 4.82-15.42 10.89-19.51 19.61q-1.2 1.89-2.44 3.75c-3.05 4.83-4.8 9.82-6.5 15.25a53 53 0 0 1-3.12 7.06 22 22 0 0 0-2.44 6.56c-.71 3.36-2.55 5.6-4.5 8.38q-1.02 2-2 4c-8.66 16.41-8.66 16.41-14 21h-2l-.69 2.12c-2.93 6.43-7.5 10.15-13.31 13.88h-2l-.69 1.79c-1.67 2.82-3.45 3.88-6.25 5.59l-2.95 1.8A366 366 0 0 1 852 283c.56 4.99 2.88 8.69 5.38 12.94 6.41 11.08 10.36 21.7 13.62 34.06l.6 2.12a75 75 0 0 1 2.19 13.52q.27 2.85.71 5.67c1.39 10.29 1.66 20.57 1.62 30.94l.02 3.64c-.01 6.46-.33 12.7-1.14 19.11v3.94c0 3.06 0 3.06-1 5.06a100 100 0 0 0 0 5.19c.05 4.38-.33 8.47-1 12.81v3.81c0 3.19 0 3.19-1 5.19-.07 3.61 0 7.2.06 10.81.01 2.95-.21 5.79-.55 8.72-.69 6.31-.66 12.63-.64 18.97l-.01 6.18c0 9.13.44 17.82 2.54 26.73.75 3.23 1.42 6.47 2.1 9.71 1 4.7 2.17 9.27 3.5 13.88q.76 3.67 1.44 7.38c.56 2.62.56 2.62 1.56 5.93a76 76 0 0 1 2.06 11.69c1.71 14.77 1.71 14.77 2.94 16q.07 2.54 0 5.06c-.03 3.4 0 6.65.5 10 .51 4.01.54 7.81.44 11.84.06 2.1.06 2.1 1.06 4.1q.15 4.42.13 8.84l.01 2.66-.01 5.58.01 8.54-.01 5.41.01 2.58c-.01 3.38-.07 6.17-1.14 9.39l3.56.25c11.01 1.23 25.58 4.13 34.13 11.63C928 666 928 666 928.25 669c-2.21 5.3-5.79 8.28-10.82 10.76q-2.05.72-4.12 1.36l-2.31.75c-11.37 3.41-23.24 4.79-35 6.13l-2.27.27c-14.12 1.61-28.09 2.05-42.29 1.98l-3.31-.01c-25.41-.07-50.76-1.06-76.13-2.24l-6.05-.28q-23.46-1.06-46.91-2.2l-8.89-.42-4.64-.22a890 890 0 0 0-44.13-1.05l-6.62-.01-13.79-.01-13.86-.02c-27.69-.08-55.25.25-82.89 2.06l-7.2.47c-8.19.52-16.39 1.05-24.57 1.72l-2.7.22c-12.2 1.01-24.38 2.17-36.56 3.36l-3.81.37a983 983 0 0 0-43.34 5.09 798 798 0 0 1-112.76 7.85l-10.35.04q-8.17.03-16.35-.05-3.02-.02-6.05-.01c-18.57.01-18.57.01-25.06-5.31A48 48 0 0 1 230 692c-2.25-1.38-2.25-1.38-4-2l2-3c.41-2.7.41-2.7.62-5.69l.23-3.01.15-2.3-1.65.77c-13.42 6.13-25.91 9.66-40.43 4.53-8.09-3.61-13.52-8.98-17.3-16.99-2.65-7.03-.87-12.83 2.07-19.5 4.05-7.38 10.51-12.73 18.31-15.81 5.25-1.32 10.27-2.12 15.69-1.75 4.44-.34 6.87-2.32 10.39-4.94C218 621 218 621 220 621l.69-1.81c1.31-2.19 1.31-2.19 3.43-3.44 3.63-2.21 6.21-5.03 9.11-8.11C235 606 235 606 237 606l.8-1.76c2.87-5.37 7.43-9.69 12.08-13.55 4.22-3.58 7.51-7.71 10.94-12.04a98 98 0 0 1 7.76-8.17c1.87-1.95 3.07-4.15 4.42-6.48l5-5c9.63-10.89 9.63-10.89 12.06-15.62 2.45-4.27 5.57-7.57 8.92-11.15C301 530 301 530 303 527l-1.77-.66c-10.02-3.88-19.36-7.92-27.23-15.34l-1.99-1.58c-11.48-9.24-18.09-25.67-21.01-39.86a111 111 0 0 0-2-8 157 157 0 0 1-3-13.56l-.54-2.66a148 148 0 0 1-2.19-17.17c-.8-9.45-2.36-18.73-4.1-28.05-10.34-55.64-10.34-55.64-1.58-68.44 6.33-7.46 6.33-7.46 11.59-8.01 4.54.39 7.81 1.72 11.88 3.64l2.07.94a168 168 0 0 1 16.87 8.71c15.29 9.09 15.29 9.09 23.69 7.35q2.16-.62 4.31-1.31c4.6-1.31 9.15-2.5 13.82-3.5 1.85-.42 3.68-.95 5.49-1.5 6.62-1.8 13.34-2.87 20.19-3.32 14.71-1.07 14.71-1.07 20.19-6.83 1.33-1.88 2.28-3.79 3.31-5.85a262 262 0 0 1 5-5 297 297 0 0 0 3.62-4.34q4.1-4.9 8.38-9.66l1.69-1.96c4.08-4.48 8.14-7.38 14.31-8.04 5.62.83 9.44 3.62 13 8a54 54 0 0 1 3 6l2.12 4c1.68 3.33 2.38 6.28 2.88 10q.96 2.51 2 5a97 97 0 0 1 4.46 16.59c.67 2.99 1.74 5.7 2.88 8.53 1.02 2.9 1.32 5.84 1.66 8.88q.48 2.5 1 5l1.62-.94c2.38-1.06 2.38-1.06 5.13-1.44 4.21-.8 7.49-2.62 11.25-4.62q4.73-2.37 9.47-4.72l3.59-1.78 1.82-.89c3.47-1.73 6.81-3.58 10.12-5.61l6.75-3.88 1.87-1.06A426 426 0 0 1 509 329l4.38-2.44q4.31-2.42 8.74-4.62 4.52-2.26 8.9-4.8c5.32-3.05 10.7-6.04 16.23-8.7a44 44 0 0 0 6.25-4c3.06-2.25 5.87-3.28 9.5-4.44q3.46-1.81 6.85-3.78c3.44-1.95 6.99-3.67 10.56-5.37 7.08-3.43 7.08-3.43 10.21-5.97 2.66-2.1 5.04-3 8.21-4.1 6.62-2.37 12.91-5.6 19.17-8.78l3.06-1.5c2.94-1.5 2.94-1.5 6.13-3.44 4.66-2.7 9.73-4.31 14.81-6.06a94 94 0 0 0 12.06-5.06c3.56-1.83 7.08-2.87 10.94-3.94q2.38-.95 4.75-1.94c4.52-1.85 9.07-3.18 13.79-4.41 2.46-.65 2.46-.65 5.52-1.71 3.47-1.11 6.94-1.76 10.51-2.44 2.43-.5 2.43-.5 5.81-1.5 31.13-8.59 65.48-6.18 96.07 3.16 5.68 1.66 10.75 2.48 16.55.84l2-2 3.44-1.12c5.04-1.78 8.94-4.9 13.14-8.14C839 231 839 231 842 230c1.51-1.5 1.51-1.5 3.12-3.44q4.16-4.9 8.5-9.62c8.12-9.02 13.65-18.79 18.38-29.94 2.88-6.76 2.88-6.76 3.97-8.93 1.04-2.08 1.98-4.19 2.91-6.32A127 127 0 0 1 891 150l1.26-1.93c15.11-21.9 40.85-36.08 66.43-41.32q2.15-.39 4.31-.75l2.64-.61C968 105 968 105 970 106" fill="#111311"/><path d="M970 106q3.19.02 6.38-.06c10-.06 19.31 1.38 28.62 5.06l3.52 1.36A130 130 0 0 1 1051 140v2l1.81.69c2.77 1.66 3.58 3.55 5.19 6.31l2 1.5c2.48 1.86 3.44 3.82 5 6.5l3.5 5.31c5.73 8.98 8.72 17.98 7.5 28.69-2.62 8.46-8.02 14.09-15.56 18.5-6.6 1.35-12.77-1.32-18.44-4.5a67 67 0 0 1-7-6l-2.69-2.5a60 60 0 0 1-6.31-8.5 273 273 0 0 0-6-8l-1.26-1.71c-7.87-10.04-19.97-18.52-32.58-20.81A97 97 0 0 0 978 157l-2.52-.15A44.7 44.7 0 0 0 951 163l-2.49 1.39c-8.15 4.82-15.42 10.89-19.51 19.61q-1.2 1.89-2.44 3.75c-3.05 4.83-4.8 9.82-6.5 15.25a53 53 0 0 1-3.12 7.06 22 22 0 0 0-2.44 6.56c-.71 3.36-2.55 5.6-4.5 8.38q-1.02 2-2 4c-8.66 16.41-8.66 16.41-14 21h-2l-.69 2.12c-2.93 6.43-7.5 10.15-13.31 13.88h-2l-.69 1.79c-1.67 2.82-3.45 3.88-6.25 5.59l-2.95 1.8A366 366 0 0 1 852 283c.56 4.99 2.88 8.69 5.38 12.94 6.41 11.08 10.36 21.7 13.62 34.06l.6 2.12a75 75 0 0 1 2.19 13.52q.27 2.85.71 5.67c1.39 10.29 1.66 20.57 1.62 30.94l.02 3.64c-.01 6.46-.33 12.7-1.14 19.11v3.94c0 3.06 0 3.06-1 5.06a100 100 0 0 0 0 5.19c.05 4.38-.33 8.47-1 12.81v3.81c0 3.19 0 3.19-1 5.19-.07 3.61 0 7.2.06 10.81.01 2.95-.21 5.79-.55 8.72-.69 6.31-.66 12.63-.64 18.97l-.01 6.18c0 9.13.44 17.82 2.54 26.73.75 3.23 1.42 6.47 2.1 9.71 1 4.7 2.17 9.27 3.5 13.88q.76 3.67 1.44 7.38c.56 2.62.56 2.62 1.56 5.93a76 76 0 0 1 2.06 11.69c1.71 14.77 1.71 14.77 2.94 16q.07 2.54 0 5.06c-.03 3.4 0 6.65.5 10 .51 4.01.54 7.81.44 11.84.06 2.1.06 2.1 1.06 4.1q.15 4.42.13 8.84l.01 2.66-.01 5.58.01 8.54-.01 5.41.01 2.58c-.01 3.38-.07 6.17-1.14 9.39l3.56.25c11.01 1.23 25.58 4.13 34.13 11.63C928 666 928 666 928.25 669c-2.21 5.3-5.79 8.28-10.82 10.76q-2.05.72-4.12 1.36l-2.31.75c-11.37 3.41-23.24 4.79-35 6.13l-2.27.27c-14.12 1.61-28.09 2.05-42.29 1.98l-3.31-.01c-25.41-.07-50.76-1.06-76.13-2.24l-6.05-.28q-23.46-1.06-46.91-2.2l-8.89-.42-4.64-.22a890 890 0 0 0-44.13-1.05l-6.62-.01-13.79-.01-13.86-.02c-27.69-.08-55.25.25-82.89 2.06l-7.2.47c-8.19.52-16.39 1.05-24.57 1.72l-2.7.22a2481 2481 0 0 0-40.33 3.73 1422 1422 0 0 0-44.66 5.09q-10.88 1.42-21.76 2.8l-2.42.3c-31.98 4.04-63.35 4.92-95.58 3.82a62 62 0 0 1 6.71-3.93 354 354 0 0 0 27.67-15.68c7.87-4.95 15.83-9.74 23.81-14.51l7.77-4.66 1.87-1.12A2529 2529 0 0 0 400 635l3.14-1.97a862 862 0 0 0 49.2-33.19l1.94-1.41q2.45-1.79 4.88-3.61c4.91-3.15 10.07-4.13 15.72-5.32 55.49-12.6 107.88-39.39 157.7-66.2l8.83-4.73c21-11.24 21-11.24 31.15-17.31C675 500 675 500 678 500l.59 1.7c6.49 18.54 13.24 37.01 24.41 53.3l2.01 2.93a162 162 0 0 0 26.79 29.16c20.77 18.1 20.77 18.1 23.2 31.91q.1 3.38.06 6.75l-.02 3.55-.04 2.7-2.27.23c-8.48 1.09-15.61 3.16-21.46 9.71-4.07 6.2-4.27 12.85-3.27 20.06 2.03 4.82 4.84 7.1 9.52 9.12 8.64 3.06 17.98 3.22 27.04 3.19l3.17.05c10.52.01 21.47-1.72 29.27-9.36 14.44-20.31 13.49-54.47 9.62-77.69-1.01-5.81-2.32-11.56-3.62-17.31 5.71 2.74 10.22 6.9 15 11l2.44 2.03C830.37 592 836.58 605.78 838 619c.28 6.34.18 12.66 0 19l-2.34.26c-6.24.84-10.91 1.9-16.04 5.62C818 645 818 645 815 646c-1 1.62-1 1.62-2 4l-1.62 2.94c-2.27 5.32-2.11 11.41-1.38 17.06a46 46 0 0 0 3 5v2a122 122 0 0 0 8.75 4.06l2.42 1.04c15.11 4.82 33.76 2.66 47.83-4.1 5.68-3.41 8.75-9.06 10.72-15.27 2.44-10.31 2.48-20.76 2.47-31.29v-2.24c-.07-37.26-4.45-73.32-13.78-109.41a119 119 0 0 1-3.64-30.46v-3.51l.02-7.3.02-11.12.02-7.13.01-3.32c.03-5.31.23-10.49.9-15.76.48-4.05.73-8.12 1.01-12.19l.2-2.85c6.69-97.8 6.69-97.8-20.79-138.9-1.16-2.25-1.16-2.25-.93-4.26 1.34-3.46 4.93-4.57 8.08-6.18 31.22-16.82 47.82-43.98 60.56-75.98 7.69-19.25 18.91-34.64 38.13-43.83 11.65-4.96 27.17-5.29 39.12-1.06 15.67 7.32 26.11 18.65 36.15 32.35 3.6 4.9 6.75 9.02 11.85 12.46l2.64 1.8c5.38 3.49 10.97 3.21 17.24 2.45 5.43-2.44 8.25-7.26 10.34-12.65 2.6-9.31-.62-18.23-4.78-26.6-8.51-14.91-22.98-29.83-37.56-38.75l-1.7-1.07c-23.53-14.6-50.94-19.95-78.22-14.02-26.51 6.62-47.98 25.26-61.96 48.15-4.56 8.22-8.09 16.94-11.64 25.64-11.04 26.66-30.02 49.77-57.1 61.08-10.39 3.75-21.16-.7-31.38-3.64-72.54-20.07-149.78 20.82-211.91 53.76q-5.75 3.02-11.53 5.99a1523 1523 0 0 0-34.76 18.58q-7.4 4.03-14.8 8.03a4806 4806 0 0 0-19.99 10.87L481 348l-1.79.97q-5.92 3.21-11.86 6.4l-3.88 2.1C442.19 369 442.19 369 435 369l-.85-3.28Q432.1 357.86 430 350l-.81-3.05c-2.94-10.97-5.96-21.88-9.81-32.57l-.81-2.28c-2.05-5.48-4.7-10.9-9.45-14.54-3.91-1.03-7.21-1.51-10.96.36-8.28 5.77-15 14.23-21.16 22.14l-4 4.94-2.25 2.79c-6.62 7.45-12.12 9.91-22.14 10.78-3.64.31-7.26.78-10.88 1.24l-2.22.27c-8.54 1.08-16.7 3.32-24.97 5.69-8.89 2.5-14.68 3.27-23.04-1.27l-2.09-1.08L279 340l-2.04-1.1-3.93-2.12C253.96 326.5 253.96 326.5 245 328c-2.37.92-3.69 1.49-5.03 3.69-2.27 6.9-2.51 13.52-2.47 20.75l.01 3.91c.21 18.17 3.19 36.39 7.1 54.11a107 107 0 0 1 2.27 15.23c2.68 28.91 7.25 64.75 30.75 84.52 8.96 6.86 18.53 10.9 29.37 13.79-1.61 5.25-4.95 9.08-8.31 13.31l-1.89 2.4L291 547l-1.74 2.18a722 722 0 0 1-30.03 35.34 241 241 0 0 0-3.66 4.15 324 324 0 0 1-18.23 19.25c-22.1 22.1-22.1 22.1-34.53 22.52-9.44.5-16.07 2-23.08 8.59-5.45 6.21-7.11 13.29-7.01 21.37.61 5.7 3.1 9.42 7.09 13.41 9.14 6.27 19.35 7.35 30.19 6.19 8.34-2.16 15.87-6.25 23-11h2l-.66 1.62c-2.7 7.23-3.95 14.29-.9 21.63 2.66 4.74 6.97 7.1 11.56 9.75l3 2c-6.51-.27-10.21-2.66-15-7-2.31-2.69-2.31-2.69-4-5a85 85 0 0 0-3-3l2-2c.41-2.6.41-2.6.62-5.62l.23-3.04.15-2.34-1.65.77c-13.42 6.13-25.91 9.66-40.43 4.53-8.09-3.61-13.52-8.98-17.3-16.99-2.65-7.03-.87-12.83 2.07-19.5 4.05-7.38 10.51-12.73 18.31-15.81 5.25-1.32 10.27-2.12 15.69-1.75 4.44-.34 6.87-2.32 10.39-4.94C218 621 218 621 220 621l.69-1.81c1.31-2.19 1.31-2.19 3.43-3.44 3.63-2.21 6.21-5.03 9.11-8.11C235 606 235 606 237 606l.8-1.76c2.87-5.37 7.43-9.69 12.08-13.55 4.22-3.58 7.51-7.71 10.94-12.04a98 98 0 0 1 7.76-8.17c1.87-1.95 3.07-4.15 4.42-6.48l5-5c9.63-10.89 9.63-10.89 12.06-15.62 2.45-4.27 5.57-7.57 8.92-11.15C301 530 301 530 303 527l-1.77-.66c-10.02-3.88-19.36-7.92-27.23-15.34l-1.99-1.58c-11.48-9.24-18.09-25.67-21.01-39.86a111 111 0 0 0-2-8 157 157 0 0 1-3-13.56l-.54-2.66a148 148 0 0 1-2.19-17.17c-.8-9.45-2.36-18.73-4.1-28.05-10.34-55.64-10.34-55.64-1.58-68.44 6.33-7.46 6.33-7.46 11.59-8.01 4.54.39 7.81 1.72 11.88 3.64l2.07.94a168 168 0 0 1 16.87 8.71c15.29 9.09 15.29 9.09 23.69 7.35q2.16-.62 4.31-1.31c4.6-1.31 9.15-2.5 13.82-3.5 1.85-.42 3.68-.95 5.49-1.5 6.62-1.8 13.34-2.87 20.19-3.32 14.71-1.07 14.71-1.07 20.19-6.83 1.33-1.88 2.28-3.79 3.31-5.85a262 262 0 0 1 5-5 297 297 0 0 0 3.62-4.34q4.1-4.9 8.38-9.66l1.69-1.96c4.08-4.48 8.14-7.38 14.31-8.04 5.62.83 9.44 3.62 13 8a54 54 0 0 1 3 6l2.12 4c1.68 3.33 2.38 6.28 2.88 10q.96 2.51 2 5a97 97 0 0 1 4.46 16.59c.67 2.99 1.74 5.7 2.88 8.53 1.02 2.9 1.32 5.84 1.66 8.88q.48 2.5 1 5l1.62-.94c2.38-1.06 2.38-1.06 5.13-1.44 4.21-.8 7.49-2.62 11.25-4.62q4.73-2.37 9.47-4.72l3.59-1.78 1.82-.89c3.47-1.73 6.81-3.58 10.12-5.61l6.75-3.88 1.87-1.06A426 426 0 0 1 509 329l4.38-2.44q4.31-2.42 8.74-4.62 4.52-2.26 8.9-4.8c5.32-3.05 10.7-6.04 16.23-8.7a44 44 0 0 0 6.25-4c3.06-2.25 5.87-3.28 9.5-4.44q3.46-1.81 6.85-3.78c3.44-1.95 6.99-3.67 10.56-5.37 7.08-3.43 7.08-3.43 10.21-5.97 2.66-2.1 5.04-3 8.21-4.1 6.62-2.37 12.91-5.6 19.17-8.78l3.06-1.5c2.94-1.5 2.94-1.5 6.13-3.44 4.66-2.7 9.73-4.31 14.81-6.06a94 94 0 0 0 12.06-5.06c3.56-1.83 7.08-2.87 10.94-3.94q2.38-.95 4.75-1.94c4.52-1.85 9.07-3.18 13.79-4.41 2.46-.65 2.46-.65 5.52-1.71 3.47-1.11 6.94-1.76 10.51-2.44 2.43-.5 2.43-.5 5.81-1.5 31.13-8.59 65.48-6.18 96.07 3.16 5.68 1.66 10.75 2.48 16.55.84l2-2 3.44-1.12c5.04-1.78 8.94-4.9 13.14-8.14C839 231 839 231 842 230c1.51-1.5 1.51-1.5 3.12-3.44q4.16-4.9 8.5-9.62c8.12-9.02 13.65-18.79 18.38-29.94 2.88-6.76 2.88-6.76 3.97-8.93 1.04-2.08 1.98-4.19 2.91-6.32A127 127 0 0 1 891 150l1.26-1.93c15.11-21.9 40.85-36.08 66.43-41.32q2.15-.39 4.31-.75l2.64-.61C968 105 968 105 970 106" fill="#B9BBB9"/><path d="m678 500 .59 1.7c6.49 18.54 13.24 37.01 24.41 53.3l2.01 2.93a162 162 0 0 0 26.79 29.16c20.77 18.1 20.77 18.1 23.2 31.91q.1 3.38.06 6.75l-.02 3.55-.04 2.7-2.27.23c-7.84 1-13.28 3.26-19.73 7.77l-3 2v-3l-1.84.03a147 147 0 0 1-18.01-1.02c-13.49-1.34-26.94-1.28-40.48-1.24h-8.08l-16.84.02q-8.54.03-17.06.02c-53.78 0-53.78 0-74.58.64l-3.8.12c-5.45.19-10.82.53-16.22 1.2-3.61.4-7.23.56-10.85.73l-4.89.25-7.58.37-7.41.38-2.27.11c-4.1.21-8.05.67-12.09 1.39q-2.27.2-4.55.32c-30.19 1.88-60.26 6.16-90.2 10.37l-2.11.29A250 250 0 0 0 365 658c2.5-2.63 4.86-4.7 7.99-6.52l2.35-1.38 2.54-1.48c26.11-15.43 51.4-32.33 76.21-49.8l2.09-1.48c1.82-1.34 1.82-1.34 4.28-3.59 3.7-2.55 7.48-3.05 11.85-3.87 56.48-11.85 109.8-39.42 160.27-66.58l8.83-4.73c21-11.24 21-11.24 31.15-17.31C675 500 675 500 678 500" fill="#ECEEEC"/><path d="M970 106q3.19.02 6.38-.06c10-.06 19.31 1.38 28.62 5.06l3.52 1.36A130 130 0 0 1 1051 140v2l1.81.69c2.77 1.66 3.58 3.55 5.19 6.31l2 1.5c2.48 1.86 3.44 3.82 5 6.5l3.5 5.31c5.73 8.98 8.72 17.98 7.5 28.69-2.62 8.46-8.02 14.09-15.56 18.5-6.6 1.35-12.77-1.32-18.44-4.5a67 67 0 0 1-7-6l-2.69-2.5a60 60 0 0 1-6.31-8.5 273 273 0 0 0-6-8l-1.26-1.71c-7.87-10.04-19.97-18.52-32.58-20.81A97 97 0 0 0 978 157l-2.52-.15A44.7 44.7 0 0 0 951 163l-2.49 1.39c-8.15 4.82-15.42 10.89-19.51 19.61q-1.2 1.89-2.44 3.75c-3.05 4.83-4.8 9.82-6.5 15.25a53 53 0 0 1-3.12 7.06 22 22 0 0 0-2.44 6.56c-.71 3.36-2.55 5.6-4.5 8.38q-1.02 2-2 4c-8.66 16.41-8.66 16.41-14 21h-2l-.69 2.12c-2.93 6.43-7.5 10.15-13.31 13.88h-2l-.69 1.79c-1.67 2.82-3.45 3.88-6.25 5.59l-2.95 1.8A366 366 0 0 1 852 283c.56 4.99 2.88 8.69 5.38 12.94 6.41 11.08 10.36 21.7 13.62 34.06l.6 2.12a75 75 0 0 1 2.19 13.52q.27 2.85.71 5.67c1.39 10.29 1.66 20.57 1.62 30.94l.02 3.64c-.01 6.46-.33 12.7-1.14 19.11v3.94c0 3.06 0 3.06-1 5.06a100 100 0 0 0 0 5.19c.05 4.38-.33 8.47-1 12.81v3.81c0 3.19 0 3.19-1 5.19-.07 3.61 0 7.2.06 10.81.01 2.95-.21 5.79-.55 8.72-.69 6.31-.66 12.63-.64 18.97l-.01 6.18c0 9.13.44 17.82 2.54 26.73.75 3.23 1.42 6.47 2.1 9.71 1 4.7 2.17 9.27 3.5 13.88q.76 3.67 1.44 7.38c.56 2.62.56 2.62 1.56 5.93a76 76 0 0 1 2.06 11.69c1.71 14.77 1.71 14.77 2.94 16q.07 2.54 0 5.06c-.03 3.4 0 6.65.5 10 .51 4.01.54 7.81.44 11.84.06 2.1.06 2.1 1.06 4.1q.15 4.42.13 8.84l.01 2.66-.01 5.58.01 8.54-.01 5.41.01 2.58c-.01 3.38-.07 6.17-1.14 9.39l3.56.25c11.01 1.23 25.58 4.13 34.13 11.63C928 666 928 666 928.25 669c-2.21 5.3-5.79 8.28-10.82 10.76q-2.05.72-4.12 1.36l-2.31.75c-11.37 3.41-23.24 4.79-35 6.13l-2.27.27c-14.12 1.61-28.09 2.05-42.29 1.98l-3.31-.01c-25.41-.07-50.76-1.06-76.13-2.24l-6.05-.28q-23.46-1.06-46.91-2.2l-8.89-.42-4.64-.22a890 890 0 0 0-44.13-1.05l-6.62-.01-13.79-.01-13.86-.02c-27.69-.08-55.25.25-82.89 2.06l-7.2.47c-8.19.52-16.39 1.05-24.57 1.72l-2.7.22a2412 2412 0 0 0-88.97 9.13l-2.59.31q-12.74 1.53-25.47 3.1-4.74.6-9.5 1.17l-4.39.55A192 192 0 0 1 330 704v-1l1.94-.21 9.31-1.04 3.05-.33a616 616 0 0 0 20.96-2.77c17.04-2.5 34.11-4.51 51.23-6.39l7.07-.79c19.73-2.18 39.47-4.24 59.25-5.91l2.78-.23c9.99-.84 19.97-1.53 29.98-1.97 3.41-.15 6.72-.4 10.1-.86 6.07-.8 12.19-.87 18.31-1.04l2.12-.07a2368 2368 0 0 1 65.28-.7l3.37-.01c34.62-.05 69.16.64 103.75 2.26l2.99.14a4301 4301 0 0 1 21.98 1.07l6.92.37 3.89.21c2.67.19 5.27.45 7.91.79a83 83 0 0 0 10.71.75l2.54.05 2.73.06a1300 1300 0 0 0 11.91.24q10.95.22 21.92.38l2.84.05c22.95.37 45.37-.17 68.16-3.05l3.92-.48C916.2 679.8 916.2 679.8 924 672c.38-3.44.38-3.44 0-7-9.5-8.61-25.8-10.01-38-12l-.06-3.16c-.87-44.29-3.4-87-14.53-130.05a119 119 0 0 1-3.64-30.46v-3.51l.02-7.3.02-11.12.02-7.13.01-3.32c.03-5.31.23-10.49.9-15.76.48-4.05.73-8.12 1.01-12.19l.2-2.85c6.69-97.8 6.69-97.8-20.79-138.9-1.16-2.25-1.16-2.25-.93-4.26 1.34-3.46 4.93-4.57 8.08-6.18 31.22-16.82 47.82-43.98 60.56-75.98 7.69-19.25 18.91-34.64 38.13-43.83 11.65-4.96 27.17-5.29 39.12-1.06 15.67 7.32 26.11 18.65 36.15 32.35 3.6 4.9 6.75 9.02 11.85 12.46l2.64 1.8c5.38 3.49 10.97 3.21 17.24 2.45 5.43-2.44 8.25-7.26 10.34-12.65 2.6-9.31-.62-18.23-4.78-26.6-8.51-14.91-22.98-29.83-37.56-38.75l-1.7-1.07c-23.53-14.6-50.94-19.95-78.22-14.02-26.51 6.62-47.98 25.26-61.96 48.15-4.56 8.22-8.09 16.94-11.64 25.64-11.04 26.66-30.02 49.77-57.1 61.08-10.39 3.75-21.16-.7-31.38-3.64-72.54-20.07-149.78 20.82-211.91 53.76q-5.75 3.02-11.53 5.99a1523 1523 0 0 0-34.76 18.58q-7.4 4.03-14.8 8.03a4806 4806 0 0 0-19.99 10.87L481 348l-1.79.97q-5.92 3.21-11.86 6.4l-3.88 2.1C442.19 369 442.19 369 435 369l-.85-3.28Q432.1 357.86 430 350l-.81-3.05c-2.94-10.97-5.96-21.88-9.81-32.57l-.81-2.28c-2.05-5.48-4.7-10.9-9.45-14.54-3.91-1.03-7.21-1.51-10.96.36-8.28 5.77-15 14.23-21.16 22.14l-4 4.94-2.25 2.79c-6.62 7.45-12.12 9.91-22.14 10.78-3.64.31-7.26.78-10.88 1.24l-2.22.27c-8.54 1.08-16.7 3.32-24.97 5.69-8.89 2.5-14.68 3.27-23.04-1.27l-2.09-1.08L279 340l-2.04-1.1-3.93-2.12C253.96 326.5 253.96 326.5 245 328c-2.37.92-3.69 1.49-5.03 3.69-2.27 6.9-2.51 13.52-2.47 20.75l.01 3.91c.21 18.17 3.19 36.39 7.1 54.11a107 107 0 0 1 2.27 15.23c2.68 28.91 7.25 64.75 30.75 84.52 8.96 6.86 18.53 10.9 29.37 13.79-1.61 5.25-4.95 9.08-8.31 13.31l-1.89 2.4L291 547l-1.74 2.18a722 722 0 0 1-30.03 35.34 241 241 0 0 0-3.66 4.15 324 324 0 0 1-18.23 19.25c-22.1 22.1-22.1 22.1-34.53 22.52-9.44.5-16.07 2-23.08 8.59-5.45 6.21-7.11 13.29-7.01 21.37.61 5.7 3.1 9.42 7.09 13.41 9.14 6.27 19.35 7.35 30.19 6.19 8.34-2.16 15.87-6.25 23-11h2l-.66 1.62c-2.7 7.23-3.95 14.29-.9 21.63 2.66 4.74 6.97 7.1 11.56 9.75l3 2c-6.51-.27-10.21-2.66-15-7-2.31-2.69-2.31-2.69-4-5a85 85 0 0 0-3-3l2-2c.41-2.6.41-2.6.62-5.62l.23-3.04.15-2.34-1.65.77c-13.42 6.13-25.91 9.66-40.43 4.53-8.09-3.61-13.52-8.98-17.3-16.99-2.65-7.03-.87-12.83 2.07-19.5 4.05-7.38 10.51-12.73 18.31-15.81 5.25-1.32 10.27-2.12 15.69-1.75 4.44-.34 6.87-2.32 10.39-4.94C218 621 218 621 220 621l.69-1.81c1.31-2.19 1.31-2.19 3.43-3.44 3.63-2.21 6.21-5.03 9.11-8.11C235 606 235 606 237 606l.8-1.76c2.87-5.37 7.43-9.69 12.08-13.55 4.22-3.58 7.51-7.71 10.94-12.04a98 98 0 0 1 7.76-8.17c1.87-1.95 3.07-4.15 4.42-6.48l5-5c9.63-10.89 9.63-10.89 12.06-15.62 2.45-4.27 5.57-7.57 8.92-11.15C301 530 301 530 303 527l-1.77-.66c-10.02-3.88-19.36-7.92-27.23-15.34l-1.99-1.58c-11.48-9.24-18.09-25.67-21.01-39.86a111 111 0 0 0-2-8 157 157 0 0 1-3-13.56l-.54-2.66a148 148 0 0 1-2.19-17.17c-.8-9.45-2.36-18.73-4.1-28.05-10.34-55.64-10.34-55.64-1.58-68.44 6.33-7.46 6.33-7.46 11.59-8.01 4.54.39 7.81 1.72 11.88 3.64l2.07.94a168 168 0 0 1 16.87 8.71c15.29 9.09 15.29 9.09 23.69 7.35q2.16-.62 4.31-1.31c4.6-1.31 9.15-2.5 13.82-3.5 1.85-.42 3.68-.95 5.49-1.5 6.62-1.8 13.34-2.87 20.19-3.32 14.71-1.07 14.71-1.07 20.19-6.83 1.33-1.88 2.28-3.79 3.31-5.85a262 262 0 0 1 5-5 297 297 0 0 0 3.62-4.34q4.1-4.9 8.38-9.66l1.69-1.96c4.08-4.48 8.14-7.38 14.31-8.04 5.62.83 9.44 3.62 13 8a54 54 0 0 1 3 6l2.12 4c1.68 3.33 2.38 6.28 2.88 10q.96 2.51 2 5a97 97 0 0 1 4.46 16.59c.67 2.99 1.74 5.7 2.88 8.53 1.02 2.9 1.32 5.84 1.66 8.88q.48 2.5 1 5l1.62-.94c2.38-1.06 2.38-1.06 5.13-1.44 4.21-.8 7.49-2.62 11.25-4.62q4.73-2.37 9.47-4.72l3.59-1.78 1.82-.89c3.47-1.73 6.81-3.58 10.12-5.61l6.75-3.88 1.87-1.06A426 426 0 0 1 509 329l4.38-2.44q4.31-2.42 8.74-4.62 4.52-2.26 8.9-4.8c5.32-3.05 10.7-6.04 16.23-8.7a44 44 0 0 0 6.25-4c3.06-2.25 5.87-3.28 9.5-4.44q3.46-1.81 6.85-3.78c3.44-1.95 6.99-3.67 10.56-5.37 7.08-3.43 7.08-3.43 10.21-5.97 2.66-2.1 5.04-3 8.21-4.1 6.62-2.37 12.91-5.6 19.17-8.78l3.06-1.5c2.94-1.5 2.94-1.5 6.13-3.44 4.66-2.7 9.73-4.31 14.81-6.06a94 94 0 0 0 12.06-5.06c3.56-1.83 7.08-2.87 10.94-3.94q2.38-.95 4.75-1.94c4.52-1.85 9.07-3.18 13.79-4.41 2.46-.65 2.46-.65 5.52-1.71 3.47-1.11 6.94-1.76 10.51-2.44 2.43-.5 2.43-.5 5.81-1.5 31.13-8.59 65.48-6.18 96.07 3.16 5.68 1.66 10.75 2.48 16.55.84l2-2 3.44-1.12c5.04-1.78 8.94-4.9 13.14-8.14C839 231 839 231 842 230c1.51-1.5 1.51-1.5 3.12-3.44q4.16-4.9 8.5-9.62c8.12-9.02 13.65-18.79 18.38-29.94 2.88-6.76 2.88-6.76 3.97-8.93 1.04-2.08 1.98-4.19 2.91-6.32A127 127 0 0 1 891 150l1.26-1.93c15.11-21.9 40.85-36.08 66.43-41.32q2.15-.39 4.31-.75l2.64-.61C968 105 968 105 970 106" fill="#E7E7E8"/><path d="m245 330 2 1q2.09.22 4.19.38c4.46.44 7.79 1.66 11.81 3.62v2l2.14.77c9.04 3.88 16.79 10.51 23.86 17.23-.34 1.92-.34 1.92-1 4-2.56 1.25-2.56 1.25-5 2v2c-1.57 1.52-1.57 1.52-3.69 3.25a50 50 0 0 0-7.19 7.19L270 376h-2l-.79 2.19a43 43 0 0 1-4.52 7.75c-4.71 7.27-8.06 15.3-9.2 23.92L253 413l-2 1c-2-1-2-1-2.69-3.02l-.6-2.64-.66-2.91-.67-3.05-.7-2.99c-1.18-5.25-1.97-10.02-1.68-15.39h-5c-2-10.19-2.2-20.33-2.19-30.69v-2.04c0-12.39 0-12.39 1.19-16.27h3l.88-1.94C243 331 243 331 245 330" fill="#272926"/><path d="M408.37 297.72c2.63.28 2.63.28 4.3 1.74a58 58 0 0 1 7.7 14.73l.86 2.39c4.26 12.26 7.5 24.87 10.77 37.42l.9 3.44.84 3.25.74 2.89C435 366 435 366 435 369l2 1-1.75-.7c-2.25-.3-2.25-.3-4.5 1.14L429 372v-3h-2v-2h-2a165 165 0 0 1-3.51-3.5c-4.03-4.06-7.91-7.81-13.5-9.5v-2l-2.86-.37C402 351 402 351 400 349c-7.12-2.64-14.63-3.63-22.13-4.57C375 344 375 344 373 343c.56-4.95 2.18-8.93 4.44-13.31q.45-.94.95-1.92c2.35-4.64 2.35-4.64 4.6-5.77q.73-1.72 1.45-3.5L386 315l3-1c1-1.81 1-1.81 2-4 1.5-2.25 1.5-2.25 3-4h2v-2h3v-2l2.94-1.44c5.3-2.71 5.3-2.71 6.43-2.84" fill="#232521"/><path d="M803 570c5.71 2.74 10.22 6.9 15 11l2.44 2.03C830.37 592 836.58 605.78 838 619c.28 6.34.18 12.66 0 19l-2.34.26c-6.17.83-10.86 1.86-15.94 5.52A26 26 0 0 1 814 647c-3.75-.88-3.75-.88-7-2-.07-4.56-.02-8.95.49-13.48 2.17-20.95.14-41.12-4.49-61.52" fill="#EDEFEE"/><path d="m372 556 3 1c-.58 3.13-1.39 4.76-3.66 6.99l-1.64 1.63-1.76 1.69-1.8 1.76a219 219 0 0 1-11.25 10.26c-3.04 2.68-5.83 5.6-8.68 8.49a117 117 0 0 1-6.15 5.62A153 153 0 0 0 331 602c-3.47 3.5-7 6.82-10.74 10.02-2.97 2.6-5.86 5.29-8.76 7.98a496 496 0 0 1-14.5 13l-2.92 2.52a424 424 0 0 1-17.27 14.1l-1.67 1.3c-3.7 2.82-5.86 4.18-10.49 4.4l-2.58.12-2.69.12-2.72.13-6.66.31c4.13-4.37 8.67-7.98 13.44-11.62l4.86-3.76 2.42-1.86c9.65-7.44 19.15-15.06 28.59-22.76q4.49-3.65 9-7.25c5.27-4.2 10.48-8.48 15.69-12.75l5.5-4.5 2.76-2.26 5.38-4.38q7.75-6.3 15.3-12.8l1.77-1.52q4.4-3.76 8.74-7.56l3.24-2.79 2.88-2.52z" fill="#EBEAEE"/><path d="m1010 113 1.91.89c12.12 5.71 23.02 12.39 33.34 20.99l1.74 1.44A93 93 0 0 1 1051 140v2l1.81.69c2.77 1.66 3.58 3.55 5.19 6.31l2 1.5c2.48 1.86 3.44 3.82 5 6.5l3.5 5.31c5.73 8.98 8.72 17.98 7.5 28.69-2.62 8.46-8.02 14.09-15.56 18.5-6.6 1.35-12.77-1.32-18.44-4.5a67 67 0 0 1-7-6l-2.69-2.5a60 60 0 0 1-6.31-8.5 273 273 0 0 0-6-8l-1.26-1.71c-7.87-10.04-19.97-18.52-32.58-20.81A97 97 0 0 0 978 157l-2.52-.15A44.7 44.7 0 0 0 951 163l-2.49 1.39c-8.15 4.82-15.42 10.89-19.51 19.61q-1.2 1.89-2.44 3.75c-3.01 4.77-4.81 9.67-6.37 15.06-1.87 5-4.57 9.55-7.19 14.19h-2c7.62-23.83 17.97-46.31 41.07-58.64 12.55-5.83 28.86-7.14 42.05-2.42 15.67 7.32 26.11 18.65 36.15 32.35 3.6 4.9 6.75 9.02 11.85 12.46l2.64 1.8c5.38 3.49 10.97 3.21 17.24 2.45 5.43-2.44 8.25-7.26 10.34-12.65 2.6-9.31-.62-18.23-4.78-26.6-8.51-14.91-22.98-29.83-37.56-38.75l-1.7-1.07c-14.05-8.71-28.8-14.24-45.3-15.93v-1c10.54-2.16 17.34-.63 27 4" fill="#E0E0E0"/><path d="M306.63 457.81h2.42c7.97.08 15.62.84 22.95 4.2 1.19 1.8 1.19 1.8 2 4l2 5c-10.82 5.81-21.36 10.36-33.8 7.3-7.68-2.55-14.74-6.35-19.2-13.3v-3l4.69-1.45 2.63-.8c5.54-1.57 10.58-1.96 16.3-1.95" fill="#161715"/><path d="m401.6 440.9 4.46.04 2.3.01 5.64.05v4c-7.2 6.42-17.24 10.11-26 14l-1-1v3l-7.25 3.06-2.06.9c-3.71 1.52-5.87 2.28-9.7 1.04-.7-2.25-.7-2.25-1-5 1.38-2.1 1.38-2.1 3.32-4.06 3.55-3.64 3.55-3.64 4.68-6.09 1-1.85 1-1.85 2.75-2.76l2.14-.59 2.4-.7 2.72-.8q3.26-1.04 6.5-2.13l3.1-1c5.32-1.92 5.32-1.92 7-1.97" fill="#151613"/><path d="M360 474c2.56 1.5 2.56 1.5 4 3-.48 4.29-1.02 6.02-4 9q-1.08 3.48-2 7c-1 1-1 1-3.56 1.06L352 494l-.56-2.19c-1.52-2.97-2.35-3.58-5.06-5.31-3.29-2.19-3.29-2.19-4.13-5.06 1.05-3.41 2.8-4.52 5.75-6.44 4.03-1.34 7.78-1.46 12-1" fill="#666667"/><path d="M237 369h1l.41 2.9 1.56 10.86.67 4.66a334 334 0 0 0 4.72 26.48c.88 4.25 1.34 8.47 1.7 12.79.57 6.15 1.32 12.14 2.67 18.18.29 2.32-.02 3.92-.73 6.13h-2l-.38-1.94a105 105 0 0 0-1.1-4.97 96 96 0 0 1-2.25-15.85c-1.01-12.25-3.3-24.28-5.59-36.34-1.46-7.84-2.65-15.04-.68-22.9" fill="#D2D5D1"/><path d="m297 459 .26 1.98c.99 6.15 2.14 9.74 6.74 14.02 2.81 1.38 2.81 1.38 5 2v1c-8.3.72-15.17-2.19-21.56-7.44-3.07-2.66-3.94-4.53-4.44-8.56l4.75-1.5 2.67-.84C293 459 293 459 297 459" fill="#E7C766"/><path d="M872 392h1a101 101 0 0 1 1 29l-.56 5.94-.26 2.65a74 74 0 0 0-.18 6.47c0 2.94 0 2.94-1 4.94q-.02 3.43.06 6.88c.1 6.88-.65 13.36-2.06 20.12-2-2-2-2-2.23-5.82q0-2.37.04-4.74v-2.35c.03-3.77.22-7.44.65-11.19.62-5.34.96-10.69 1.29-16.06l.2-3.12.61-9.78.42-6.67z" fill="#DFDFE1"/><path d="M380 450c3 4.38 3 4.38 3 7h2v2h2v2l-7.25 3.06-2.07.9c-3.7 1.52-5.86 2.28-9.68 1.04-.7-2.24-.7-2.24-1-5 1.29-2.13 1.29-2.13 3.19-4.12l1.85-2.01c5.1-4.87 5.1-4.87 7.96-4.87" fill="#EDCA63"/><path d="m1010 113 1.91.89a158 158 0 0 1 33.28 20.8l1.71 1.37c2.54 2.14 3.98 3.56 4.96 6.77l.14 2.17-2.88-2.44-1.98-1.67a75 75 0 0 1-4.09-3.87c-15.81-15.6-38.15-24.78-60.05-27.02v-1c10.54-2.16 17.34-.63 27 4" fill="#DFDFE1"/><path d="m235 669-.66 1.62c-2.7 7.23-3.95 14.29-.9 21.63 2.66 4.74 6.97 7.1 11.56 9.75l3 2c-6.51-.27-10.21-2.66-15-7-2.31-2.69-2.31-2.69-4-5a85 85 0 0 0-3-3l2-2c.41-2.6.41-2.6.62-5.62l.23-3.04.15-2.34-1.65.8A64 64 0 0 1 211 682l-1-2 3-1.14c5.98-2.3 16.34-9.86 22-9.86" fill="#DBDBDD"/><path d="m407 296 2 1v2l-1.81.38C405 300 405 300 402 302h-3v2h-3v2c-4.11 4.69-4.11 4.69-7.38 5.81-3.66 1.66-5.51 4.38-7.97 7.51L379 321h-3c3.69-5.22 7.7-10.03 12-14.75l1.51-1.68c5.18-5.62 9.46-9.34 17.49-8.57" fill="#161817"/><path d="M886 607h1l.08 1.69.36 7.87.13 2.89q.4 8.44 1.05 16.86A56 56 0 0 1 888 651l3.56.25c9.01.99 17.89 3.82 26.44 6.75v2q-4.96-.97-9.87-2.16l-2.74-.66-5.64-1.36-2.75-.66-2.47-.6c-2.82-.62-5.68-1.08-8.53-1.56z" fill="#EBEBEB"/><path d="M502 568v3a93 93 0 0 1-6.75 5l-3.8 2.62q-.88.63-1.81 1.25c-5.58 3.84-5.58 3.84-6.08 6.19L483 588c-3.74 1.89-7.16 2.35-11.31 2.62l-3.24.23-2.45.15 2-1v-2l1.7-.89A384 384 0 0 0 502 568" fill="#040504"/><path d="m871 340 3 2c.12 2.69.12 2.69 0 6l.44 3.06c1.49 10.44 1.74 20.91 1.75 31.44l.03 3.74.01 3.6.01 3.23A22 22 0 0 1 874 401h-1l-.08-3.7-.29-13.7-.13-5.9-.18-8.54-.05-2.62c-.13-5.18-.48-10.28-1.05-15.42-.38-3.72-.28-7.39-.22-11.12" fill="#F0F1F3"/><path d="M970 106c3.51.03 7.01-.07 10.52-.16 3.34.15 5.5.71 8.48 2.16v1l-2.12.04c-35.43.83-35.43.83-50.56 7.97-2.32.99-2.32.99-5.32.99v-2c9.84-4.75 19.42-7.58 30.13-9.64q2.4-.47 4.77-1.03c2.1-.33 2.1-.33 4.1.67" fill="#E7E9E8"/><path d="m764.18 235.84 2.56.31 2.89.35 3.12.44 3.2.43a222 222 0 0 1 22.99 4.63l3 .75 2.78.75 2.44.66 1.84.84 1 3a515 515 0 0 1-14-3.22 224 224 0 0 0-37-5.78c1.68-2.1 2.44-2.96 5.18-3.16" fill="#DDDCE0"/><path d="m824 683 32 2v2a28 28 0 0 1-8.13 1.11h-2.42l-2.59-.01-2.67-.01q-4.23 0-8.44-.03l-5.73-.01L812 688v-1h12z" fill="#BEC0C2"/><path d="M868 466h3l-.02 2.7-.03 10.05-.03 4.33c-.11 19.35-.11 19.35 2.08 25.92l-3 1a55 55 0 0 1-2.2-16.66l.01-2.38q.02-3.73.07-7.46l.02-5.09q.03-6.2.1-12.41" fill="#EAEAEC"/><path d="M969 154c16.33-.82 27.8 1.66 41 12l-1 2a74 74 0 0 1-8.56-4.94c-10.24-6.11-20.82-6.64-32.44-7.06z" fill="#E2E3E2"/><path d="M237 332h1l-1 42-2-1c-1.93-12.25-3.69-29.61 2-41" fill="#E5E6E5"/><path d="M261 333c10.15 1.33 10.15 1.33 13.69 4.12L276 339h-2v2c2.65 1.08 5.28 2.09 8 3v2h3l1 5c-4-1.4-7-3.31-10.38-5.88A99 99 0 0 0 263 337v-2h-2z" fill="#0A0B0B"/><path d="m372 556 3 1c-.58 3.3-1.55 4.91-3.94 7.23l-1.77 1.74-1.85 1.78-1.87 1.82L361 574l-3-1 2-1v-3l-1-1q4.44-4.57 9.12-8.88l2.01-1.86z" fill="#D9DBDA"/><path d="m238 345 2 1q.3 6.81.56 13.62l.17 3.9.15 3.77.14 3.46A48 48 0 0 1 240 380c-4.05-6.75-3.15-15.29-3.12-22.88l-.02-3.2.01-3.04v-2.77C237 346 237 346 238 345" fill="#1E201E"/><path d="M382 698c-3.43 2.28-6.23 2.62-10.2 3.07l-2.17.26-4.56.53-6.81.82A196 196 0 0 1 330 704v-1l2.16-.24 9.96-1.14 3.62-.41c6.07-.69 12.1-1.45 18.14-2.4 6.06-.91 12-1.01 18.12-.81" fill="#EAEEEA"/><path d="M380 450c3 4.38 3 4.38 3 7h2v2h2v2l-9 3v-2l6-2v-2h-2v-2h-2v-2c-6.75 2.75-6.75 2.75-9 5-.62 2.62-.62 2.62-1 5h6c-1.75 1.56-1.75 1.56-4 3-2.25-.31-2.25-.31-4-1-.7-2.24-.7-2.24-1-5 1.29-2.13 1.29-2.13 3.19-4.12l1.85-2.01c5.1-4.87 5.1-4.87 7.96-4.87" fill="#DAC47F"/><path d="m1033 194 1.47 1.14q3.24 2.46 6.53 4.86l1.93 1.44c5.37 3.73 10.64 4.77 17.07 5.56v2c-6.06 1.75-9.77.29-15.34-2.47-4.76-2.74-8.61-5.43-11.1-10.41z" fill="#E4E4E5"/><path d="M245 417h1l.37 3.77c1.63 16.36 1.63 16.36 3.36 24.1.29 2.32-.02 3.92-.73 6.13h-2l-.38-1.94q-.76-3.73-1.62-7.44l-1-4.62-.75-3.25c-.38-5.71.73-11.14 1.75-16.75" fill="#D2D2D3"/><path d="m308.31 455.75 2.26.02c14.87.29 14.87.29 19.55 4.86L332 463l-2.2-.93c-10.03-3.83-21.2-3.63-31.8-4.07v5l-1-4-4-1a44 44 0 0 1 15.31-2.25" fill="#020202"/><path d="M416 441c-2.54 1.27-4.67 1.01-7.46.93-6.86-.18-12.3.01-18.54 3.07q-2.4 1.14-4.81 2.25l-2.21 1.08C381 449 381 449 378 448c10.58-5.99 26.04-13.96 38-7" fill="#020302"/><path d="M286 468h4v2h4l1 2h3l1-2 1.43 1.24 1.88 1.64 1.87 1.61A39 39 0 0 0 309 478c-7.69.67-14.63-1.81-20.62-6.69L286 469z" fill="#E1C678"/><path d="M886 607h1l.08 1.67.36 7.83.13 2.88c.2 4.44.43 8.87.79 13.3.55 6.85.96 12.76-1.36 19.32h-1z" fill="#F5F7F5"/><path d="M239 396c7.03 8.56 6.38 19.53 6 30l-2-1a96 96 0 0 1-1-6.94c-.64-5.4-1.44-10.7-2.63-16.01C239 400 239 400 239 396" fill="#E4E4E5"/><path d="M932 118c-4.33 3.36-8.94 6.31-13.51 9.33A156 156 0 0 0 909 134v-3c4.91-4.9 15.86-15.38 23-13" fill="#D7D9D9"/><path d="M248 448c2.24 3.36 3.13 6.59 4.12 10.44l.56 2.02A35 35 0 0 1 254 470c-1.94-.5-1.94-.5-4-2-.62-3.75-.62-3.75-.78-5.91-.22-2.09-.22-2.09-1.34-5.21-1.02-3.36-.68-5.51.12-8.88" fill="#DEDEE2"/><path d="m884 576 3 1-.04 2.12c-.05 5.74.18 11.21 1.04 16.88h-2l-1 3a85 85 0 0 1-1.06-15.44l.01-2.21z" fill="#E9E9EA"/><path d="M1005 111c1.7 2.11 1.7 2.11 3 4l-3.44-.84-4.56-1.1-2.25-.55A117 117 0 0 0 983 110v-1c7.95-1.63 14.81-2.03 22 2" fill="#D7D7DA"/><path d="m858 276 2 1c-2.37 2.62-4.94 4.26-8 6a43 43 0 0 0 3 10l-2 1q-1.3-2.12-2.56-4.25l-1.44-2.39c-1-2.36-1-2.36-.93-4.48 1.29-2.6 2.82-3.35 5.37-4.69l2.43-1.33z" fill="#DFDFE1"/><path d="M1072 192h2c-.16 6.32-3.68 9.81-8 14-3.55 2.37-4.58 2.11-8.69 1.62l-3.01-.33-2.3-.29v-1l1.94-.01c5.82-.26 9.43-1.12 13.65-5.22 2.19-2.75 3.28-5.45 4.41-8.77" fill="#D7D8D9"/><path d="M871 509c3.06 3.19 3.44 5.89 3.81 10.11.19 1.89.19 1.89.81 4.14.47 2.18.05 3.65-.62 5.75-2.05-3.07-2.78-5.33-3.69-8.88l-.82-3.11c-.5-3.05-.3-5.06.51-8.01" fill="#E5E6E9"/><path d="M868 466h3v15h-2v10h-1z" fill="#F3F3F5"/><path d="M297 459v5l-1-4h-2l-1 3c-5.26 4-5.26 4-9 4l-1-5 4.75-1.5 2.67-.84C293 459 293 459 297 459" fill="#C7B169"/><path d="M249.81 323.44c3.2.56 3.2.56 6.2 2.56v2l-2.28-.07-2.98-.05-2.96-.07c-2.86.2-4.43.6-6.79 2.19-1.25 2.63-1.25 2.63-2 5l-1-4c6.68-6.8 6.68-6.8 11.81-7.56" fill="#D4D5D5"/><path d="M493 580a20 20 0 0 1 1 4c-2.31 2.31-3.48 2.5-6.62 3.12l-2.48.51-1.9.37c.06-2.31.06-2.31 1-5 5.69-3 5.69-3 9-3" fill="#171918"/><path d="M424 331h2q.8 3.59 1.56 7.19l.46 2.04c.82 3.9 1.11 6.92-.02 10.77a46 46 0 0 1-3.69-9.44l-.82-2.81c-.52-2.93-.26-4.9.51-7.75" fill="#1A1A1B"/><path d="M380 649v2h-2l1 3c-3.15 2.1-5.01 2.52-8.69 3.12l-3.01.51-2.3.37c3.38-3.97 9.54-9 15-9" fill="#E8E8EB"/><path d="m298 522 9 2c-1.59 5.09-4.74 8.87-8 13l-2-2 6-8-2.5-1.38L298 524z" fill="#DCDEDD"/><path d="m413 445 2 1a123 123 0 0 1-17.44 10.44l-2.15 1.11q-2.67 1.3-5.41 2.45l-2-1c6.54-3.9 13.08-7.66 19.94-10.96C410 447 410 447 413 445" fill="#040605"/><path d="M245 396c2.57 3.85 2.55 6.43 3 11l-5 1q-.37-2.15-.69-4.31l-.38-2.43c.07-2.26.07-2.26 1.55-4.05z" fill="#1A1B1A"/><path d="M432 354c1.33 4 1.13 7.83 1 12l-1 2h-2l-2-13c2-1 2-1 4-1" fill="#161815"/><path d="m762 236 2 2h-26v-1c16.6-2.89 16.6-2.89 24-1" fill="#F3F3F5"/><path d="m331 464 5 5c-1 3-1 3-3.88 4.75C329 475 329 475 326 474l1.38-1.06c2.27-2.71 2.79-5.55 3.62-8.94" fill="#A9A273"/><path d="M828 241c-4.07 4.5-9.56 6.83-15.56 7.25L810 248v-2l1.76-.55a67 67 0 0 0 10.62-4.2C825 240 825 240 828 241" fill="#EDEDF1"/><path d="M229 675c-5.94 3.68-11.11 5.8-18 7l-1-2q3.62-1.54 7.25-3.06l2.07-.9c3.7-1.52 5.86-2.28 9.68-1.04" fill="#DFDFE0"/><path d="m353 577 1 3-7 7-4-2 5-5 1.69-1.81C351 577 351 577 353 577" fill="#DDE1E3"/><path d="m372 556 3 1c-.31 1.88-.31 1.88-1 4-3 2-3 2-5 2l-3 2-3-1z" fill="#E2E5E5"/><path d="M281 515c6 1.83 11.45 4.07 17 7v2c-4.23-.62-7.52-2.11-11.31-4.06l-3.24-1.66L281 517z" fill="#EAEBEA"/><path d="M917 200c1.39 2.21 2.01 3.61 1.94 6.25A36 36 0 0 1 913 217h-2a364 364 0 0 1 6-17" fill="#D9D9DB"/><path d="m871 340 3 2c.12 2.69.12 2.69 0 6l.62 3.62c.38 3.4.26 4.61-1.62 7.38h-1c-.75-6.37-1.1-12.58-1-19" fill="#EFEFF2"/><path d="m792 687 9.56-.06 2.72-.03c5.02-.02 9.77.23 14.72 1.09-2 2-2 2-4.16 2.2l-2.46-.08-2.48-.05-1.9-.07v-2h-16z" fill="#E1E2E4"/><path d="M171 655h1l.3 2.2c.93 6.04 2.05 9.93 5.7 14.8v3c-4.09-2.87-6.41-5.22-8-10 .06-3.38.45-6.66 1-10" fill="#D3D4D5"/><path d="m211 627-1 3h-16l-1-2c6.07-.77 11.89-1.1 18-1" fill="#EFEFEF"/><path d="M744 685c7.42-.09 14.66-.17 22 1-2 2-2 2-4.82 2.2l-3.3-.08-3.33-.05L752 688v-1l-8-1z" fill="#E3E7E3"/><path d="M379 648a33 33 0 0 1-7.06 5.69l-2.1 1.32C368 656 368 656 366 656l1-4h2v-2c3.51-1.6 6.14-2.22 10-2" fill="#1A1A1B"/><path d="M238 360c3.43 6.07 3.59 13.31 2 20-2.57-3.84-2.23-7.81-2.12-12.25l.02-2.26z" fill="#0F100E"/><path d="M298 536c-1.52 5.4-5.27 8.98-9 13l-2-1 2.81-4.31 1.58-2.43c3.74-5.26 3.74-5.26 6.61-5.26" fill="#E7EAE8"/><path d="m968 105 2 1c3.51.03 7.01-.07 10.52-.16 3.34.15 5.5.71 8.48 2.16v1c-7.72.16-15.32-.33-23-1z" fill="#F2F2F3"/><path d="M918 659c4.43 1.39 7.15 3.31 10 7-.19 3.31-.19 3.31-1 6h-3l.25-3.31c-.25-3.69-.25-3.69-2.06-5.5L920 662l-3-2z" fill="#E4E6E4"/><path d="M1073 176h2c.96 3.23 1.16 6.2 1.19 9.56l.04 2.88C1076 191 1076 191 1074 194c-1.2-3.75-1.1-7.33-1.06-11.25l.02-3.83z" fill="#EBEEEC"/><path d="m299 471 1.43 1.02 1.88 1.36 1.87 1.33q2.39 1.67 4.82 3.29c-4.82.19-8.5-.24-13-2l2-1c.62-2.06.62-2.06 1-4" fill="#C7B77E"/><path d="m625 268 3 1v2l-4.88 2.5-2.74 1.41C618 276 618 276 616 276c1.12-3.26 1.96-3.98 5.06-5.69L624 269z" fill="#E1E1E4"/><path d="M872 189h2c-.61 4.86-2.73 8.74-5 13l-1-2-2-1c1.93-3.41 3.83-6.74 6-10" fill="#E1E2E4"/><path d="M1009 167c3.88.55 5.6 2.28 8.25 5.06l2.14 2.23L1021 176l-2 2-5-4.38-2.81-2.46L1009 169z" fill="#D6D7D8"/><path d="M241 369h1c1.04 5.05 1.1 9.87 1 15h-3c-1.2-3.53-.8-6.13-.06-9.75l.59-2.98z" fill="#1B1E1A"/><path d="m969 154-1 3c-2.29.95-2.29.95-5.06 1.69l-2.79.76-2.15.55-1-3c7.29-3.43 7.29-3.43 12-3" fill="#DADBDD"/><path d="M803 570c3.23 1.62 4.71 2.48 7 5l-2 4h-3z" fill="#DEE0DF"/><path d="m286 549 3 1-10 12-1-3c1.65-2.48 1.65-2.48 3.94-5.19l2.27-2.73z" fill="#DDDFDE"/><path d="M867 681v2l-7 2v2h-4v-2l-4-1 2.08-.4 2.73-.54 2.71-.52c7.12-1.54 7.12-1.54 7.48-1.54" fill="#ADAFB0"/><path d="M251 470h4l2 9-3 1a103 103 0 0 1-3-10" fill="#D7D6D9"/><path d="m309 342 2 1v2q-2.12.76-4.25 1.5l-2.39.84C302 348 302 348 298 348v-2l2.15-.62 2.79-.82 2.77-.81C308 343 308 343 309 342" fill="#EBEDED"/><path d="M1042 135c3.89.58 6.21 2.28 9 5 .81 2.75.81 2.75 1 5-7.48-6.15-7.48-6.15-10-10" fill="#D5D4D4"/><path d="M464 688c-4.49 3-6.24 3.04-11.62 2.56l-3.61-.31L446 690v-1a135 135 0 0 1 18-1" fill="#E0E0E2"/><path d="M969 154h14c-1 2-1 2-2.73 2.65-2.64.41-4.88.23-7.52-.09L968 156z" fill="#EFF1F2"/><path d="M966 107q3.38.33 6.75.56l3.55.26 2.7.18v1h-21c1.9-3.8 4.53-2.93 8-2" fill="#E8E9E9"/><path d="M883 566c2.17 3.25 3.28 5.24 2.66 9.14L884 581h-1l-.56-6.94-.32-3.9L882 567z" fill="#DADCDD"/><path d="m235 669-3 9-5-5c5.75-4 5.75-4 8-4" fill="#CFCFCF"/><path d="M885 585c2.57 3.85 2.55 6.43 3 11h-2l-1 3z" fill="#F3F2F4"/><path d="m799 243 10 2 1 3-4.38-.94-2.46-.52C801 246 801 246 799 245z" fill="#E0E0E3"/><path d="M1068 166h3c2.05 3.45 3.06 5.32 2.69 9.38L1073 178h-1z" fill="#DCDFD9"/><path d="m255 586 2 1-3.38 3.94-1.89 2.21C250 595 250 595 248 596c.58-3.35 1.59-4.94 4.06-7.25l1.66-1.58z" fill="#D4D6D6"/><path d="m292 464 1 6c-4.75-.75-4.75-.75-7-3 2.62-3 2.62-3 6-3" fill="#EEC95E"/><path d="M170 651h2l-1 11h-2c-1.26-4.29-.63-6.88 1-11" fill="#F0F1F0"/><path d="M826 640c-1 3-1 3-3.38 4.75C820 646 820 646 817 645c6.13-5 6.13-5 9-5m-11 6 2 1Z" fill="#171718"/><path d="m550 566-1 2h-2v2l-7-1c3.16-3.16 5.69-4.44 10-3" fill="#E4E3E4"/><path d="M384.38 462.88 386 464c-3.9 2.6-7.48 2.15-12 2 2.98-2.98 6.26-4.63 10.38-3.12" fill="#302314"/><path d="M1020 177c4.8 3.32 4.8 3.32 5.81 6.75l.19 2.25c-3-1-3-1-4.69-3.38C1020 180 1020 180 1020 177" fill="#E6E7E7"/><path d="M948 163c-1.12 3.37-1.47 3.56-4.44 5.12l-1.87 1.01L938 171c1.82-4.62 4.87-8 10-8" fill="#E8E8E9"/><path d="M735 637v2c-2.5 1.62-2.5 1.62-5 3v-3h-10v-1l6.38-.5 3.58-.28c1.68-.12 3.36-.22 5.04-.22" fill="#D3D7D2"/><path d="m367 461 3 1v2h6c-1.75 1.56-1.75 1.56-4 3-2.25-.31-2.25-.31-4-1z" fill="#C1AD76"/><path d="m365 332 1 3c-1.9 1.9-3.33 2.94-6.05 3.2q-2.98-.03-5.95-.2c3-2 3-2 6.06-3 2.94-1 2.94-1 4.94-3" fill="#1B1E1B"/><path d="M726 239v1l-10 1-1-2c4.34-2.3 6.53-1.87 11 0" fill="#E1E1E4"/><path d="M1051 207h9v2c-6.75 1.12-6.75 1.12-9 0z" fill="#EFF1F0"/><path d="m1064 204 3 1c-2.37 2.19-3.52 2.99-6.8 3.07l-2.95-.38-2.98-.37-2.27-.32v-1l2.12-.18 2.76-.26 2.74-.24C1062 205 1062 205 1064 204" fill="#C3C3C6"/><path d="M941 113v2c-6.62 3-6.62 3-10 3v-2c3.73-2.03 5.67-3 10-3" fill="#E4E4E6"/><path d="m294 634 3 1c-3.17 3.54-5.17 5.59-10 6z" fill="#1B1A20"/><path d="M331 464q2.56 2.43 5 5v2h-4z" fill="#CCC081"/><path d="M484 344c-1 3-1 3-3.94 4.69C477 350 477 350 475 350c1.07-2.91 1.67-3.84 4.5-5.25 2.5-.75 2.5-.75 4.5-.75" fill="#EBEBEF"/><path d="m382 313 1 4-6 5c0-4.39 2.13-5.77 5-9" fill="#1F2021"/><path d="m579 291 1 2 2 1-9 4v-3c3-2.19 3-2.19 6-4" fill="#DDDCDF"/><path d="M932 118a29 29 0 0 1-9 5l-1-2c6.62-4.12 6.62-4.12 10-3" fill="#DDDEE0"/><path d="m958.13 108.44 2.75.3 2.13.26v1l-12 1v-2c2.62-1.31 4.23-.9 7.12-.56" fill="#D2D4D3"/><path d="m342 590 2 1-6 7-3-1z" fill="#222124"/><path d="m509 332 1 4-6 2-1-3z" fill="#1B1B1F"/><path d="m536 315 2 2-8 4 1-4c2.56-1.25 2.56-1.25 5-2" fill="#DFDEDF"/><path d="M595.38 287.31q.8.33 1.62.7-2.97 1.95-6 4c-1.33-.67-2.63-1.33-4-2 5.41-3.09 5.41-3.09 8.38-2.7" fill="#211F21"/><path d="m908 134 1 3-5 5-3-1z" fill="#272629"/><path d="M178 674a29 29 0 0 1 9 5l-3 1c-3.19-1.81-3.19-1.81-6-4z" fill="#DFE1E2"/><path d="m342 667 2 2c-2.36 2.53-3.66 3.89-7 5l-2-2 3-2z" fill="#181A19"/><path d="m455 358 4 2-9 4v-3c2.25-1.81 2.25-1.81 5-3" fill="#DCDADD"/><path d="M426 340h2c.84 4.02 1.05 7.02 0 11-2.33-3.63-2.16-6.77-2-11" fill="#0F0F0F"/><path d="m588 287 2 2c-5.18 3.22-5.18 3.22-7 4l-3-1z" fill="#F2F0F1"/><path d="m175 668 5 1 2 6c-2.87-1.29-4.98-2.57-7-5z" fill="#08080B"/><path d="M305 626v3c-3 2.19-3 2.19-6 4 0-3 0-3 1.88-5.19C303 626 303 626 305 626" fill="#1C1A21"/><path d="m295 620 1 3-5 4-3-2z" fill="#E5E5E5"/><path d="M358 487h1c.12 2.38.12 2.38 0 5-2 2-2 2-4.62 2.12L352 494l1.88-.69c2.73-1.69 3.17-3.3 4.12-6.31" fill="#5F5E61"/><path d="M441 484h2c-.75 2.94-.75 2.94-2 6-2.12.88-2.12.88-4 1a56 56 0 0 1 4-7" fill="#020502"/><path d="m259 485 5 2-2 1 3 6-2 1z" fill="#19181C"/><path d="m428 335 3 3-2 6c-1.62-2.57-2.04-3.68-1.62-6.75z" fill="#D8D8DA"/><path d="M255 326c4.22.48 6.8 1.17 10 4l-3.88-.31-2.17-.18C257 329 257 329 255 326" fill="#E5E6E4"/><path d="m413 302 4 4-2 4c-1.56-2.31-1.56-2.31-3-5z" fill="#1B1B1D"/><path d="M704 243v1l-10 1v-2c3.69-1.23 6.21-.64 10 0" fill="#E5E4E7"/><path d="m239 699 9 4v1c-6.75-.88-6.75-.88-9-2z" fill="#D0D2D3"/><path d="m349 662 2 4-4 2-2-2z" fill="#181918"/><path d="m371 653 1 2 4 1-11 2c3.75-3.88 3.75-3.88 6-5" fill="#D8D7D9"/><path d="M231 612c-1.45 3.83-3.43 5.12-7 7 3.14-7 3.14-7 7-7" fill="#D6D8D7"/><path d="m553.69 560.38 2.3.62q-1.95 1.5-4 3-1.95-.99-4-2c3-2 3-2 5.7-1.62" fill="#1E1F20"/><path d="m878 545 4 2-2 6c-1.76-3.09-2-4.23-2-8" fill="#D5D7D9"/><path d="M276 511c3.87.57 6.08 2.49 9 5-2.25.31-2.25.31-5 0-2.31-2.5-2.31-2.5-4-5" fill="#DADADD"/><path d="m871 420 3 1c-.75 5.75-.75 5.75-3 8z" fill="#F2F2F3"/><path d="m488 340 2 3-6 3c.31-1.88.31-1.88 1-4z" fill="#E1DFE4"/><path d="m896 243 3 1a107 107 0 0 1-4 5h-2c.57-2.87.86-3.86 3-6" fill="#EEEEEF"/><path d="M173 645h2l-2 8-3-4c1.38-2 1.38-2 3-4" fill="#DCE0DC"/><path d="M276 635c0 3 0 3-1.25 4.75L273 641l-4-1z" fill="#E5E5E6"/><path d="M287 626c0 3 0 3-1 6h-5z" fill="#E2E5E2"/><path d="M218 623c-1 3-1 3-4.06 4.69L211 629c1.47-3.4 2.86-6 7-6" fill="#D7D8D8"/><path d="M248 448c2.15 3.23 2.2 4.28 2 8h-3z" fill="#F1F1F3"/><path d="m434 361 1.88 1.94C438 365 438 365 440 366l-1.94.38-2.06.62-1 2z" fill="#F1F0F4"/><path d="m493 337 2 1-1 3-5 1c1-3 1-3 4-5" fill="#EFECF0"/><path d="M262 331c5.75 1.75 5.75 1.75 8 4-5.75.12-5.75.12-8-1z" fill="#171A1C"/><path d="m530 319-1 3c-3.06 1.19-3.06 1.19-6 2v-2c2.56-2.3 3.48-3 7-3" fill="#ECEBEE"/><path d="m937 169 1 3a89 89 0 0 1-4 4h-2a19 19 0 0 1 5-7" fill="#CED0CE"/></svg>