<svg style="background:transparent" version="1.1" xmlns="http://www.w3.org/2000/svg" viewBox="0 0 1248 704"><path d="M516.04-.44c5.64-.73 8.9.71 13.3 4.02C535.78 8.74 542.42 14.1 547 21l5 3q2.86 2.44 5.63 5l2.85 2.62q2.1 1.97 4.14 4.01c1.55 1.54 3.2 2.91 4.88 4.31a30 30 0 0 1 5.13 5.24C576 47 576 47 578.43 48.44c2.95 1.8 4.5 3.84 6.57 6.56 3.03 1.51 6.17 1.17 9.5 1.2l2.34.02 7.68.05 2.65.02 13.89.06q7.17.02 14.35.11 5.51.05 11.02.05 2.65.01 5.29.05 3.7.04 7.4.02l2.2.05c3.9-.05 5.5-.47 8.5-3.03L672 51q2.69-2.3 5.44-4.5l2.9-2.36 4.57-3.66a34 34 0 0 0 5.97-5.92 27 27 0 0 1 5.78-5.27c4.34-3.2 8.16-6.79 12.03-10.54C728.8-.32 728.8-.32 736.88-.32a33.5 33.5 0 0 1 19.3 9.44c5.95 9.43 5.26 20.18 5.23 30.91q0 2.73.02 5.45.03 7.36 0 14.73l.02 12.32v29.1q-.01 14.96.03 29.93.03 12.9.02 25.77l.02 15.36-.01 14.46v5.28c.06 9.51-.31 17.81-4.51 26.57l-1.34 3.05c-3.46 6.77-6.56 12.22-12.66 16.95l-1.75 2.3c-2.62 3.15-5.48 5.44-8.75 7.88l-1.72 1.33a54 54 0 0 1-8.78 5.5c-3.38 6.75-.17 16.26 2 23q1.78 4.3 3.82 8.51c1.18 2.46 2.18 4.95 3.18 7.48a240 240 0 0 0 5.87 11.4c4.4 8.01 8 16 11.13 24.6q.8 1.87 1.63 3.75c2.39 5.65 4.16 11.48 5.87 17.37a54 54 0 0 0 3.07 8.2c1.75 4.5 2.3 8.84 2.97 13.61.46 3.07.46 3.07 1.53 6.7 1.1 3.94 1.4 7.73 1.69 11.82.24 2.55.24 2.55.77 4.5.64 2.77.53 5.4.47 8.23q-.05 2.91 0 5.82l1 1q.14 2.93.13 5.87v3.24c-.13 2.9-.13 2.9-1.13 5.9a69 69 0 0 0 0 4.05c0 3.94 0 3.94-1 5.94l.07 3.31c-.06 3.63-.68 5.42-2.07 8.7a164 164 0 0 0-1 7l3.13-1c8.63-2.12 18.28-2.34 26.43 1.47 9.02 5.6 17.14 13.63 20.18 24.02q.74 3.73 1.26 7.5.52 2.44 1.07 4.87A88 88 0 0 1 815 521l-.5 5.5a30 30 0 0 1-1.5 7.5l-.43 3.81a46 46 0 0 1-2.57 10.2l-1.43 5.36A123 123 0 0 1 804 567l2.49-.44c12.79-1.94 25.49-1.78 38.39-1.56q5.74.08 11.47.1c22.62.27 49.98 1.75 70.65 11.9l2.77 1.31c10.82 5.22 18.96 11 27.23 19.7.47.44.47.44 2.82 2.74 9.5 9.78 12.19 22.47 12.5 35.81A48.4 48.4 0 0 1 959 669h-2l-.68 1.75c-1.66 2.84-3.63 4.37-6.32 6.25h-2l-.66 1.81c-1.76 2.9-3.64 3.73-6.65 5.25a143 143 0 0 0-8.27 4.5c-5.8 3.46-11.9 5.72-18.42 7.44l-2.81.95a100 100 0 0 1-24.06 4.84c-2.13.21-2.13.21-4.04.7-9.93 2.44-20.91 1.61-31.1 1.51h-4a85 85 0 0 1-7-2l-2.41-.82c-7.76-2.82-14.01-6.7-17.77-14.28L820 685l-.9-2.03c-1.7-5.06-.95-8.22 1.28-13.03 5.5-9.8 12.27-15.33 22.7-19.04 4.77-1.32 9.52-1.08 14.42-.96 5.98.11 11.58.02 17.5-.94l3.5.12c12.39.15 26.29-3.74 36-11.55 1.5-1.57 1.5-1.57 2.69-4.63-.22-3.5-1.04-5.18-3.2-7.94-8.5-5.68-16.8-9.03-27-10l-4.74-1.06c-4.93-1.05-9.65-1.07-14.68-.92C865 613 865 613 862 612q-4.34-.15-8.68-.13l-2.57.01c-7.94.06-15.82.52-23.75 1.12l-3.9.25c-9.32.62-9.32.62-13.26 1.28-2.92.48-5.71.48-8.67.44-10.27.13-10.27.13-12.17 2.03h-6l-3 1h-6l-1 1-3.37-.13c-3.63.13-3.63.13-5.38 1.57L763 622l-3 1a161 161 0 0 0-3.46 3.45c-3.01 3.03-6.3 5.76-9.54 8.55l1.5 1.03c8.02 5.71 14.76 11.9 16.5 21.97-.18 3.18-.18 3.18-1 6l-.5 3c-2.33 4.67-5.86 6.76-10.5 9-8.63 2.86-18.01 2.27-27 2l-3.34-.09a44 44 0 0 1-16.4-3.92A61 61 0 0 0 697 671l1.58 1.06c9.1 6.44 11.78 11.76 14.04 22.73.45 3.78.06 5.87-1.62 9.21q-13.77.1-27.56.15l-12.8.07q-6.17.05-12.35.06l-4.71.03q-3.3.04-6.6.03l-3.8.02c-3.41-.39-4.75-.99-7.18-3.36-4.97-8.33-6-18.64-4-28q.07-3 0-6v-2l-14-1 2 4c.16 2.54.16 2.54.07 5.18A97 97 0 0 0 620 678l1 1c.29 5.51-.23 9.71-2 15l-.76 2.4c-2.08 6.44-2.08 6.44-3.24 7.6-2.3.1-4.6.11-6.9.11h-9.38l-4.97-.02-13.12-.02-13.37-.02q-13.12-.01-26.26-.05c-2.67-5.02-2.36-9.13-1.25-14.63 2.28-7.44 8.65-12.32 14.25-17.37-2.98 0-4.92.5-7.75 1.37l-2.68.83-2.57.8c-13.26 3.98-30.88 5.56-44.06.15A24 24 0 0 1 489 667c-1.6-6.86-1.1-13.4 2.5-19.56C493 646 493 646 495 646l.19-1.75c1.54-4.26 5.28-5.97 9.13-8L507 635l-2.93-1.5A58 58 0 0 1 491 623v-2l-2.12-.66c-3.6-1.68-6.11-4.05-8.88-6.84q-.82-.85-1.7-1.7C467.18 600.2 456 585.36 451 570q-.75-1.19-1.5-2.44c-1.81-3.1-2.53-6.1-3.5-9.56q-.98-2.35-2-4.69c-1.94-4.75-2.83-9.35-3.56-14.42a89 89 0 0 0-1.56-7.77c-.8-3.45-.95-6.57-.88-10.12l-.5-2.63c-2.46-16.83 1.34-37 10.69-51.17 2.93-3.89 6.53-6.08 10.8-8.2l2.07-1.1a36 36 0 0 1 26.69-2.9l2.25 1-.4-1.94A232 232 0 0 1 487 439l-.48-2.67c-1.81-11.72-1.72-23.56-.52-35.33l.26-2.84c1.16-12.46 1.16-12.46 2.68-16.9 1.2-3.7 1.8-7.35 2.4-11.19a86 86 0 0 1 2.84-9.66 308 308 0 0 0 3.12-9.7l1.54-4.96c1.25-3.99 2.53-7.9 4.16-11.75l1.33-3.17a377 377 0 0 1 6.55-14.15l1.28-2.68q3.19-6.7 6.53-13.34a110 110 0 0 0 5.42-12.34L525 286l2-5c3.5-8.86 3.5-8.86 4-13l.4-2.2c.48-4.24.43-6.76-2.27-10.17A115 115 0 0 0 521 249c-7.1-5.48-13.36-11-19-18l-1.75-2.16c-11.06-15.75-8.78-38.6-8.58-56.88l.08-11.68q.05-9.14.14-18.28.13-16.47.18-32.95.04-15.21.13-30.42.05-9.48.07-18.96.03-9.01.1-18.02l.03-6.7q0-4.65.06-9.26l-.02-2.72c.1-5.5.98-8.56 4.56-12.97l1.75-2.63c4.89-5.15 10.63-6.38 17.29-7.8" fill="#161917"/><path d="m797 568 1 2 2-1q4.3-.35 8.63-.54l2.69-.13a786 786 0 0 1 32.56-.64l3.23-.01c16.66-.01 32.7.86 49.11 3.82q3.6.64 7.22 1.15c20.44 3.32 43.91 13.91 56.44 30.89 8.3 13.4 11.78 27.25 8.25 42.89-2.16 8.03-5.32 14.53-11.13 20.57l-2.21 2.48c-14.28 15.29-35.48 23.73-55.73 27.64l-2.51.52c-10.89 2.15-21.64 2.57-32.71 2.6q-3.5.02-7.01.07c-10.58.08-20.26-.38-28.83-7.31-5.2-5.78-6.59-10.1-6.43-17.83.85-6.25 3.83-10.9 8.55-15.02 9-6.34 16.81-7.55 27.65-7.63 44.91-.41 44.91-.41 59.23-13.52 2.29-3.73 2.45-6.63 2-11-2.48-6.08-7.05-7.99-12.85-10.68-17.01-7.11-35.28-7.55-53.46-7.57l-2.31-.01c-12.9 0-25.71.64-38.57 1.64l-2.49.19c-9.26.72-18.49 1.61-27.7 2.79-5.26.66-10.33.81-15.62.64a118 118 0 0 1 10.25-12.56c8.51-9.33 18.01-21.92 20.75-34.44" fill="#151816"/><path d="M516.04-.44c5.64-.73 8.9.71 13.3 4.02C535.78 8.74 542.42 14.1 547 21l5 3q2.86 2.44 5.63 5l2.85 2.62q2.1 1.97 4.14 4.01c1.55 1.54 3.2 2.91 4.88 4.31a30 30 0 0 1 5.13 5.24C576 47 576 47 578.43 48.44c2.95 1.8 4.5 3.84 6.57 6.56 3.03 1.51 6.17 1.17 9.5 1.2l2.34.02 7.68.05 2.65.02 13.89.06q7.17.02 14.35.11 5.51.05 11.02.05 2.65.01 5.29.05 3.7.04 7.4.02l2.2.05c3.9-.05 5.5-.47 8.5-3.03L672 51q2.69-2.3 5.44-4.5l2.9-2.36 4.57-3.66a34 34 0 0 0 5.97-5.92 27 27 0 0 1 5.78-5.27c4.34-3.2 8.16-6.79 12.03-10.54C728.8-.32 728.8-.32 736.88-.32a33.5 33.5 0 0 1 19.3 9.44c5.95 9.43 5.26 20.18 5.23 30.91q0 2.73.02 5.45.03 7.36 0 14.73l.02 12.32v29.1q-.01 14.96.03 29.93.03 12.9.02 25.77l.02 15.36-.01 14.46v5.28c.06 9.51-.31 17.81-4.51 26.57l-1.34 3.05c-3.46 6.77-6.56 12.22-12.66 16.95l-1.75 2.3c-2.62 3.15-5.48 5.44-8.75 7.88l-1.72 1.33a54 54 0 0 1-8.78 5.5c-3.38 6.75-.17 16.26 2 23q1.78 4.3 3.82 8.51c1.18 2.46 2.18 4.95 3.18 7.48a240 240 0 0 0 5.87 11.4c4.4 8.01 8 16 11.13 24.6q.8 1.87 1.63 3.75c2.39 5.65 4.16 11.48 5.87 17.37a54 54 0 0 0 3.07 8.2c1.75 4.5 2.3 8.84 2.97 13.61.46 3.07.46 3.07 1.53 6.7 1.1 3.94 1.4 7.73 1.69 11.82.24 2.55.24 2.55.77 4.5.64 2.77.53 5.4.47 8.23q-.05 2.91 0 5.82l1 1q.14 2.93.13 5.87v3.24c-.13 2.9-.13 2.9-1.13 5.9a69 69 0 0 0 0 4.05c0 3.94 0 3.94-1 5.94l.07 3.31c-.06 3.63-.68 5.42-2.07 8.7a164 164 0 0 0-1 7l3.13-1c8.63-2.12 18.28-2.34 26.43 1.47 9.02 5.6 17.14 13.63 20.18 24.02q.74 3.73 1.26 7.5.52 2.44 1.07 4.87A88 88 0 0 1 815 521l-.5 5.5a30 30 0 0 1-1.5 7.5l-.43 3.81a46 46 0 0 1-2.57 10.2l-1.43 5.36A123 123 0 0 1 804 567l2.49-.44c12.79-1.94 25.49-1.78 38.39-1.56q5.74.08 11.47.1c22.62.27 49.98 1.75 70.65 11.9l2.77 1.31c10.82 5.22 18.96 11 27.23 19.7.47.44.47.44 2.82 2.74 9.5 9.78 12.19 22.47 12.5 35.81A48.4 48.4 0 0 1 959 669h-2l-.68 1.75c-1.66 2.84-3.63 4.37-6.32 6.25h-2l-.66 1.81c-1.76 2.9-3.64 3.73-6.65 5.25a143 143 0 0 0-8.27 4.5c-5.8 3.46-11.9 5.72-18.42 7.44l-2.81.95a100 100 0 0 1-24.06 4.84c-2.13.21-2.13.21-4.04.7-9.93 2.44-20.91 1.61-31.1 1.51h-4a85 85 0 0 1-7-2l-2.41-.82c-7.76-2.82-14.01-6.7-17.77-14.28L820 685l-.9-2.03c-1.7-5.06-.95-8.22 1.28-13.03 5.5-9.8 12.27-15.33 22.7-19.04 4.77-1.32 9.52-1.08 14.42-.96 5.98.11 11.58.02 17.5-.94l3.5.12c12.39.15 26.29-3.74 36-11.55 1.5-1.57 1.5-1.57 2.69-4.63-.22-3.5-1.04-5.18-3.2-7.94-8.5-5.68-16.8-9.03-27-10l-4.74-1.06c-4.93-1.05-9.65-1.07-14.68-.92C865 613 865 613 862 612q-4.34-.15-8.68-.13l-2.57.01c-7.94.06-15.82.52-23.75 1.12l-3.9.25c-9.32.62-9.32.62-13.26 1.28-2.92.48-5.71.48-8.67.44-10.27.13-10.27.13-12.17 2.03h-6l-3 1h-6l-1 1-3.37-.13c-3.63.13-3.63.13-5.38 1.57L763 622l-3 1a161 161 0 0 0-3.46 3.45c-3.01 3.03-6.3 5.76-9.54 8.55l1.5 1.03c8.02 5.71 14.76 11.9 16.5 21.97-.18 3.18-.18 3.18-1 6l-.5 3c-2.33 4.67-5.86 6.76-10.5 9-8.63 2.86-18.01 2.27-27 2l-3.34-.09a44 44 0 0 1-16.4-3.92A61 61 0 0 0 697 671l1.58 1.06c9.1 6.44 11.78 11.76 14.04 22.73.45 3.78.06 5.87-1.62 9.21l-3-1 .18-2.75c.3-8.07.06-13.89-5.18-20.25-4.7-5.04-9.73-8.2-16-11v-8l1.85 1.1a121 121 0 0 0 17.4 8.21l2 .77c8.5 3.13 16.76 3.1 25.69 3.1l3.46.04A61 61 0 0 0 758 671c2.65-5.29 2.79-11.23 2-17-3.5-9.1-11.5-14.13-20-18q4.17-3.35 8.38-6.62l1.8-1.4 3.65-2.83 1.8-1.4 1.78-1.38c1.59-1.37 1.59-1.37 3.76-4.09 4.53-3.65 9.49-3.75 15.15-4.4l3.82-.49c24.08-2.9 48.3-4.67 72.55-4.64h2.24c44.55.14 44.55.14 60.82 12.87 3.26 3.44 4.14 5.07 4.57 9.82-.42 4.74-1.43 6.94-5.06 10.06-12.97 9.52-31.27 11.41-46.95 11.73l-2.05.04q-5.07.1-10.14.1c-10.97.1-19.7 2.37-28.12 9.63-4.52 5.53-5.81 11.06-5.47 18.13.89 5.4 3.14 8.92 7.3 12.4 6.73 4.57 13.86 5.71 21.87 5.77l2.15.02h9.21c12.5-.06 24.67-.7 36.94-3.32l2.08-.44c22.59-4.98 46.13-15.77 59.74-35.25 6.64-11.74 8.38-26.47 5.45-39.59A61 61 0 0 0 964 613l-1.1-2.35c-8.92-17.64-27-26.83-44.83-33.4-9.67-3.04-19.72-4.42-29.74-5.79q-3.42-.49-6.82-1c-11.17-1.64-22.22-1.73-33.5-1.67l-9.52.02c-13.2.03-26.32.44-39.5 1.2.78-4.2 2.1-7.7 3.76-11.64 7.63-19.54 9.42-40.59 8.25-61.37l-.21-3.96c-1.1-10.17-5.88-21.77-13.73-28.64-8.73-5.95-17.62-7.72-28.06-6.4q-5.54 1.36-11 3l2.25-17.97.39-3.18q.43-3.34.94-6.68c3.95-32.14-3.13-62.94-13.58-93.17l-.94-2.75c-4.18-11.83-9.84-22.83-15.68-33.9C714.9 272.12 714.9 272.12 718 256c2.79-3.56 6.19-5.64 10-8q2.4-1.8 4.75-3.69 3.61-2.84 7.32-5.56c10.38-9 16.24-22.8 17.48-36.35.28-4.82.25-9.64.2-14.47q0-2.75.02-5.49.02-7.36-.03-14.73-.02-7.75-.01-15.5 0-12.97-.05-25.97-.06-14.99-.04-29.98 0-14.48-.02-28.95l-.01-12.28q0-7.23-.04-14.45l-.01-5.28c.05-19.07.05-19.07-5.93-25.87-4.23-3.87-8.46-5.24-14.06-5.75-12.63 1.11-22 12.5-30.68 20.77q-5.9 5.63-12.07 10.97-3.44 3-6.82 6.08A840 840 0 0 1 675 53l-2.5 3.05c-6.06 5.15-15.12 3.94-22.66 3.96l-5.4.06q-5.64.04-11.28.04-7.19.02-14.38.18-5.56.1-11.14.08-2.63.01-5.3.08c-8.57.21-15.35.18-22.07-5.67-2.56-2.48-4.91-5.1-7.27-7.78a129 129 0 0 0-4.12-3.63A496 496 0 0 1 559.5 35a574 574 0 0 0-11.34-10.09q-3.32-2.97-6.58-6c-16.71-15.53-16.71-15.53-28.53-15.3-5.47.68-8.95 3.08-12.61 7.1-4.33 5.62-4.58 10.92-4.58 17.9l-.01 2.3-.02 7.6-.02 5.47-.04 17.95-.02 6.18-.04 29.1q-.01 16.74-.07 33.51-.05 12.97-.05 25.94 0 7.74-.04 15.47-.03 7.29-.02 14.58l-.02 5.33c-.13 17.66 3.46 32.1 15.76 45.33 4.2 4.03 8.76 7.56 13.4 11.07a123 123 0 0 0 5.07 3.73c3.09 2.23 4.19 3.5 5.06 7.24-.12 9.84-1.94 17.6-5.92 26.6q-1.28 2.91-2.48 5.87a195 195 0 0 1-8.94 18.67c-16.82 30.75-27.66 66.9-27.71 102v2.36c-.01 12.18.75 24 2.89 36 .53 3.02.95 6.04 1.36 9.08-6.52-.9-6.52-.9-9.35-1.52-10.23-1.87-19-.6-27.8 4.85-9.47 7.17-13.53 19.41-15.42 30.7-2.16 19.97.34 39.95 6.57 58.97l.68 2.06c7.6 22.87 20.62 41.74 37.32 58.94l1.6 1.67c4.22 4.35 8.7 8.05 13.59 11.64l2.12 1.6A57 57 0 0 0 513 635v2q-.97.33-1.97.7c-8.3 3.08-13.5 6.4-18.03 14.3-1.73 5.53-2.16 11.7.5 16.93 6.93 5.71 14.8 5.6 23.38 5.56l3.62-.02c14.82-.3 26.95-4.1 39.88-11.13C563 662 563 662 565 662v8l-1.94.88c-7.7 3.65-14.67 7.52-18.34 15.55-1.58 5.68-1.56 11.7-1.72 17.57h-2c-2.94-4.78-2.33-9.32-1.25-14.63 2.28-7.44 8.65-12.32 14.25-17.37-2.98 0-4.92.5-7.75 1.37l-2.68.83-2.57.8c-13.26 3.98-30.88 5.56-44.06.15A24 24 0 0 1 489 667c-1.6-6.86-1.1-13.4 2.5-19.56C493 646 493 646 495 646l.19-1.75c1.54-4.26 5.28-5.97 9.13-8L507 635l-2.93-1.5A58 58 0 0 1 491 623v-2l-2.12-.66c-3.6-1.68-6.11-4.05-8.88-6.84q-.82-.85-1.7-1.7C467.18 600.2 456 585.36 451 570q-.75-1.19-1.5-2.44c-1.81-3.1-2.53-6.1-3.5-9.56q-.98-2.35-2-4.69c-1.94-4.75-2.83-9.35-3.56-14.42a89 89 0 0 0-1.56-7.77c-.8-3.45-.95-6.57-.88-10.12l-.5-2.63c-2.46-16.83 1.34-37 10.69-51.17 2.93-3.89 6.53-6.08 10.8-8.2l2.07-1.1a36 36 0 0 1 26.69-2.9l2.25 1-.4-1.94A232 232 0 0 1 487 439l-.48-2.67c-1.81-11.72-1.72-23.56-.52-35.33l.26-2.84c1.16-12.46 1.16-12.46 2.68-16.9 1.2-3.7 1.8-7.35 2.4-11.19a86 86 0 0 1 2.84-9.66 308 308 0 0 0 3.12-9.7l1.54-4.96c1.25-3.99 2.53-7.9 4.16-11.75l1.33-3.17a377 377 0 0 1 6.55-14.15l1.28-2.68q3.19-6.7 6.53-13.34a110 110 0 0 0 5.42-12.34L525 286l2-5c3.5-8.86 3.5-8.86 4-13l.4-2.2c.48-4.24.43-6.76-2.27-10.17A115 115 0 0 0 521 249c-7.1-5.48-13.36-11-19-18l-1.75-2.16c-11.06-15.75-8.78-38.6-8.58-56.88l.08-11.68q.05-9.14.14-18.28.13-16.47.18-32.95.04-15.21.13-30.42.05-9.48.07-18.96.03-9.01.1-18.02l.03-6.7q0-4.65.06-9.26l-.02-2.72c.1-5.5.98-8.56 4.56-12.97l1.75-2.63c4.89-5.15 10.63-6.38 17.29-7.8" fill="#E3E5E5"/><path d="M673 495c1.53 4.6.05 7.72-2 12-3.96 6.07-8.02 11.79-14 16h-2v2l-8.85 5.16C641.23 533 641.23 533 639 533l.18 2.31a754 754 0 0 1 2.14 58.23q-.01 4.29.02 8.58c.25 40.52.25 40.52-4.34 58.88h-21c-11.3-39.54-5.28-87.43-3-128l-2.47-1.21-6.48-3.2C593.8 523.24 585.29 514.3 580 504c-.7-2.77-.9-5.13-1-8q1.76 1.42 3.5 2.88l1.97 1.61L586 502v2l1.82.84c2.18 1.16 2.18 1.16 5.06 3.78 3.44 3.04 7.21 5.36 11.18 7.63l1.79 1.03c9.75 5.48 20.48 6.37 31.35 4.03A60 60 0 0 0 645 518l2.47-1.25A85 85 0 0 0 673 495" fill="#000"/><path d="M586 137c7.79 4.49 12.38 10.82 16 19 2.03 9.4 1.67 18.74-3.29 27.2-6.24 8.76-13.61 13.43-23.71 16.8-9.57.83-17.91-.44-25.75-6.19-7.92-6.69-13.06-14.75-14.6-25.16-.44-10.88 4.18-19.72 11.35-27.65 11.56-9.78 26.58-10.95 40-4m-40.46 7.02c-5.37 6.88-5.37 13.57-4.54 21.98 1.73 7.09 7.24 11.86 13 16 6.01 2.93 12.35 3.12 18.73 1.16 7.58-3.4 11.85-8.51 15.15-16.04 2.02-6.17 2.22-12.43-.57-18.37-3.78-6.53-7.89-11.63-15.31-13.75-11.45-1.4-18.45 1-26.46 9.02" fill="#ECC64F"/><path d="M691.94 135.13q2.56 1.37 5.06 2.88 1.1.6 2.2 1.24c6.6 4.25 10.94 11.35 13.47 18.7 1.68 10.47.65 19.67-5.3 28.46A37.7 37.7 0 0 1 685 200c-11.28 1.13-19.37-.85-28.35-7.83-7.2-6.63-10.8-13.37-11.24-23.15-.15-10.87 1.8-18.06 9.15-26.28 10.57-9.7 23.79-13.4 37.38-7.62M654 146c-4.34 5.89-4.92 12.86-4 20 2.1 6 5.08 10.9 10 15l2.44 2.3c6.45 3.06 13.67 2.81 20.48.84 7.02-3.14 11.38-7.87 14.2-14.97 1.78-6.44 2.34-13.72-.3-19.94-2.66-4.16-5.66-7.53-9.82-10.24l-2.56-1.75c-12.01-4.37-21.95.09-30.44 8.75" fill="#EFC853"/><path d="M739 474h1c.48 33.23-3.64 64.92-16 96l-1.49 4.03a538 538 0 0 1-6.86 17.76A221 221 0 0 0 708 614l-1.29 4.31-1.33 4.5-.63 2.1a179 179 0 0 0-5.61 26.84c-.65 4.62-1.47 8.86-3.14 13.25-3.81-.53-6.24-1.27-9-4-.84-7.87 1.78-16.41 3.69-24l.81-3.28c3.49-13.95 7.48-27.57 12.82-40.93 3.22-8.04 6.03-16.22 8.85-24.4q1.17-3.36 2.39-6.69c3.17-8.71 5.9-17.46 8.35-26.4l.7-2.52.59-2.21a97 97 0 0 1 2.26-6.33c1.6-4.2 2.6-8.41 3.51-12.8l.51-2.39q.8-3.74 1.58-7.49l1.07-5.01 1.5-7.09A1374 1374 0 0 1 739 474" fill="#000100"/><path d="M512 471c1.89 3.33 2.62 6.47 3.33 10.21l.72 3.74.38 1.97q.98 5.11 2 10.22l.4 2.05c2.9 14.55 6.5 28.64 11.42 42.63q1.1 3.22 2.15 6.46a513 513 0 0 0 8.72 24.6c25.69 67.59 25.69 67.59 23.88 88.12-1.43 1.71-1.43 1.71-3.31 2.94l-1.87 1.27C558 666 558 666 555 665l-.3-3.59a162 162 0 0 0-5.16-29.42q-.84-3.12-1.58-6.26l-.52-2.15-.5-2.08A118 118 0 0 0 542 606a2137 2137 0 0 1-13.94-38.06q-1.02-2.85-2.1-5.67a189 189 0 0 1-6.52-21.77l-.92-3.72a251 251 0 0 1-5.91-33.02c-1.06-10.86-.7-21.86-.61-32.76" fill="#000101"/><path d="M516.04-.44c5.64-.73 8.9.71 13.3 4.02C535.78 8.74 542.42 14.1 547 21l5 3q2.86 2.44 5.63 5l2.85 2.62q2.1 1.97 4.14 4.01c1.55 1.54 3.2 2.91 4.88 4.31a30 30 0 0 1 5.13 5.24C576 47 576 47 578.43 48.44c2.95 1.8 4.5 3.84 6.57 6.56 3.03 1.51 6.17 1.17 9.5 1.2l2.34.02 7.68.05 2.65.02 13.89.06q7.17.02 14.35.11 5.51.05 11.02.05 2.65.01 5.29.05 3.7.04 7.4.02l2.2.05c3.9-.05 5.5-.47 8.5-3.03L672 51q2.69-2.3 5.44-4.5l2.9-2.36 4.57-3.66a34 34 0 0 0 5.97-5.92 27 27 0 0 1 5.78-5.27c4.34-3.2 8.16-6.79 12.03-10.54C728.8-.32 728.8-.32 736.88-.32a33.5 33.5 0 0 1 19.3 9.44c5.98 9.47 5.24 20.25 5.18 31.02v5.5l-.02 14.8-.01 15.52-.04 26.04q-.04 16.72-.05 33.43 0 14.4-.03 28.76l-.01 9.24q0 7.25-.03 14.51l-.01 5.32-.01 7.26v2.14c-.02 3.26-.15 6.22-1.15 9.34h-2c-1.03-4.23-1.12-8.3-1.1-12.64l.02-2.3q0-3.83.03-7.65l.02-5.49.05-11.8.06-18.69.02-6.4v-3.24q.06-21.75.15-43.49.07-14.68.09-29.35 0-7.76.06-15.52.04-7.3.04-14.6 0-2.68.03-5.36c.17-19.2.17-19.2-5.84-26.03-4.23-3.88-8.46-5.25-14.06-5.76-12.63 1.11-22 12.5-30.68 20.77q-5.9 5.63-12.07 10.97-3.44 3-6.82 6.08A840 840 0 0 1 675 53l-2.5 3.05c-6.06 5.15-15.12 3.94-22.66 3.96l-5.4.06q-5.64.04-11.28.04-7.19.02-14.38.18-5.56.1-11.14.08-2.63.01-5.3.08c-8.57.21-15.35.18-22.07-5.67-2.56-2.48-4.91-5.1-7.27-7.78a129 129 0 0 0-4.12-3.63A496 496 0 0 1 559.5 35a574 574 0 0 0-11.34-10.09q-3.32-2.97-6.58-6c-16.71-15.53-16.71-15.53-28.53-15.3-5.47.68-8.95 3.08-12.61 7.1-4.34 5.63-4.58 10.95-4.6 17.94l-.01 2.31-.03 7.67-.03 5.5-.07 14.92-.07 15.6-.14 29.54-.16 33.63-.33 69.17c-2.05-4.12-3.12-6.6-3.12-11.26l-.01-3.42V170.8l.02-4.76q.01-14.78.08-29.57.04-10.04.06-20.09a15868 15868 0 0 1 .25-56.7q0-9.03.09-18.04l.03-6.7q0-4.65.06-9.26l-.02-2.72c.1-5.5.98-8.56 4.56-12.97l1.75-2.63c4.89-5.15 10.63-6.38 17.29-7.8" fill="#E7EAE8"/><path d="m797 568 1 2h13c-2.85 7.74-5.76 14.94-10 22l-1.4 2.46A126 126 0 0 1 788 611l1 2c-7.73 1.36-15.14 2.32-23 2a118 118 0 0 1 10.25-12.56c8.51-9.33 18.01-21.92 20.75-34.44" fill="#000101"/><path d="M869 566c8.17-.39 15.79.8 23.81 2.31l3.58.65c22.73 4.17 22.73 4.17 30.61 8.04l2.77 1.31c10.81 5.23 18.95 10.99 27.23 19.69l2.81 2.75c9.51 9.78 12.2 22.47 12.5 35.81A48.3 48.3 0 0 1 959 669h-2l-.69 1.75c-1.66 2.85-3.63 4.37-6.31 6.25h-2l-.67 1.81c-1.76 2.9-3.64 3.73-6.64 5.25a140 140 0 0 0-8.27 4.49c-5.8 3.47-11.91 5.73-18.42 7.45l-2.82.96a100 100 0 0 1-24.06 4.83c-2.12.21-2.12.21-4.15.8-1.97.41-1.97.41-3.71-.04-2.81-.68-5.46-.77-8.34-.87l-10.87-.37L851 701v-1l2.24-.04c37.69-.83 76.21-5.17 103.76-33.73 9.58-10.68 11.93-24.05 11.39-38.02-.4-5.55-1.91-10.25-4.39-15.21l-1.1-2.35c-8.93-17.64-27-26.82-44.84-33.4-15.72-4.95-32.73-6.4-49.06-8.25z" fill="#E4E6E6"/><path d="M734 0c7.12-1.39 13.07 2.34 19 6 5.13 3.99 6.81 9.84 8 16 .43 6.05.39 12.08.36 18.15v5.48l-.02 14.81q-.03 7.76-.02 15.52 0 13.02-.04 26.04-.04 16.72-.04 33.44l-.03 28.75-.01 9.25-.03 14.5-.01 5.33-.02 7.25v2.14c-.02 3.26-.14 6.22-1.14 9.34h-2c-1.03-4.23-1.13-8.31-1.09-12.64v-2.31l.04-7.64.02-5.49.05-11.81.06-18.68.01-6.4.01-3.24q.05-21.74.15-43.49.06-14.67.09-29.35 0-7.76.05-15.52.05-7.3.04-14.61l.03-5.35c.18-19.21.18-19.21-5.84-26.03C745.94 4.22 739.34 3.62 732 3z" fill="#F1F3F2"/><path d="m524 0 2 4-3.22-.18c-13.91-.53-13.91-.53-19.23 3.62-6.53 6.58-7.7 12.04-7.71 21.22l-.01 2.32-.04 7.66q0 2.76-.03 5.5l-.06 14.93-.08 15.59-.14 29.54-.16 33.63L495 207c-2.06-4.12-3.13-6.59-3.13-11.26l-.01-3.41.01-3.81-.01-4.06.02-13.65v-4.76l.09-29.57.06-20.08q.04-18.9.16-37.8l.08-18.92q.03-9.02.1-18.03l.02-6.71q0-4.62.06-9.24l-.01-2.73c.09-5.51.98-8.55 4.56-12.97l1.75-2.62C505.7.04 514.51-.17 524 0" fill="#EDF0EE"/><path d="M630 184a26 26 0 0 1 7 4c.32 4.14.43 6.34-1.88 9.88C633 200 633 200 631 201l-2 7c-2 2-2 2-4.94 2.31-3.06-.31-3.06-.31-4.94-1.43-1.59-2.66-1.32-4.85-1.12-7.88l-1.75-.69c-2.93-1.71-4.45-3.44-6.25-6.31 0-3.41.71-4.67 2.94-7.25 4.87-4.13 10.96-3.31 17.06-2.75" fill="#646664"/><path d="M691.94 135.13q2.56 1.36 5.06 2.88l2.28 1.34c5.35 3.56 8.05 7.87 10.72 13.66l-2 1-2-6h-2l-1-4h-5l.47 1.77c1.62 6.88 1.47 12.87.66 19.85l-.32 3.03A610 610 0 0 1 698 176h-4v2l-2-1q1.5-2.54 3.03-5.07c3.07-6.09 2.72-13.33 1.97-19.93-3-7.75-8.87-11.44-16-15-9.28-.74-15.8.31-23.25 6.13-4.82 4.46-6.38 8.97-7 15.43-.14 5.19.55 9.54 2.25 14.44q-1.49-.48-3-1v-4h-2l-1 8h-1c-.61-13.37-.75-22.84 8.56-33.25 10.57-9.7 23.79-13.4 37.38-7.62" fill="#BDAF81"/><path d="m968 642 1 2 2 1c-1.12 8.95-5.62 17.62-12 24h-2l-.69 1.75c-1.66 2.85-3.63 4.37-6.31 6.25h-2l-.67 1.81c-1.76 2.9-3.64 3.73-6.64 5.25a140 140 0 0 0-8.27 4.49c-5.8 3.47-11.91 5.73-18.42 7.45l-2.82.96a100 100 0 0 1-24.06 4.83c-2.12.21-2.12.21-4.15.8-1.97.41-1.97.41-3.71-.04-2.81-.68-5.46-.77-8.34-.87l-3.51-.12-3.66-.12-3.7-.13L851 701v-1l2.24-.04c37.69-.83 76.21-5.17 103.76-33.73 6.46-7.21 8.67-14.97 11-24.23" fill="#E0E3E1"/><path d="M878 651a33 33 0 0 1-9 1.21c-29.27.79-29.27.79-40 9.79-4.36 4.89-6.37 9.58-6.69 16.12.39 6.67 2.45 10.83 7.28 15.37 12.57 9.28 32.65 7.21 47.41 7.51l-1 2c-7.86 1.6-16.02 1.08-24 1h-4a85 85 0 0 1-7-2l-2.43-.81c-7.75-2.83-14.01-6.71-17.77-14.29l-.8-1.9-.89-2.02c-1.71-5.07-.97-8.22 1.27-13.04 5.49-9.81 12.26-15.32 22.71-19.04 4.78-1.33 9.55-1.08 14.47-.96 19.38.36 19.38.36 20.44 1.06" fill="#E3E5E3"/><path d="M586 137c7.79 4.49 12.38 10.82 16 19a45 45 0 0 1 1.06 10.88l-.02 2.36L603 171h-1v-8h-2v-7h-2v-4h-2v-2l-3-1v-5a93 93 0 0 0-9-4v3h2v3h2v4h2q.41 4.62.75 9.25l.25 2.64c.45 6.55.45 6.55-1.92 9.53L587 173l-1 3c-1.94 2.19-1.94 2.19-4 4h-2v2h-4v2c-4.08 1.95-7.32 2.22-11.81 2.12l-3.52-.05L558 186v-2h-4v-2l2.18.48c7.83 1.45 14.54 1.15 21.59-2.79 5.28-3.99 8.91-10.24 10.23-16.69.76-7.05-.16-12.03-4-18l-1.75-2.75c-5.04-5.04-9.7-6.5-16.81-6.63-4.83.15-8.93.7-13.44 2.38 7.64-9.33 24.73-5.8 34-1" fill="#D4BB68"/><path d="M616 662h20l-.11 5.81-.08 7.63-.07 3.82c-.08 9.4.91 16.85 6.26 24.74-3.08-.92-4.66-1.52-6.55-4.18-3.94-8.83-5.5-17.26-3.45-26.82q.07-3 0-6v-2l-14-1 2 4c.16 2.54.16 2.54.06 5.19q-.08 2.4-.06 4.81l1 1c.29 5.51-.24 9.71-2 15l-.8 2.44q-1.09 3.29-2.2 6.56l-5 1 .84-1.76 1.1-2.36 1.09-2.33c1.87-4.93 2.09-9.81 2.07-15.04l-.01-3.63-.03-3.76-.01-3.82z" fill="#EBEEEA"/><path d="M757 364h3l.37 2.6c1.41 9.66 1.41 9.66 2.69 14.02 1.1 3.96 1.41 7.75 1.69 11.83.25 2.55.25 2.55.78 4.5.64 2.78.53 5.39.47 8.24q-.07 2.9 0 5.81l1 1q.14 2.94.12 5.88l.01 3.24C767 424 767 424 766 427a69 69 0 0 0 0 4.06c0 3.94 0 3.94-1 5.94l.06 3.31c-.06 3.54-.42 5.6-2.06 8.69l-2 1 .22-3.43c1.5-25.61 2.11-49.95-3.76-75.05A34 34 0 0 1 757 364" fill="#ECEFED"/><path d="M782 615v3l-3.94-.06a61 61 0 0 0-4.06.06l-1 1-3.38-.12c-3.62.12-3.62.12-5.37 1.56L763 622l-3 1a141 141 0 0 0-3.46 3.46c-3.02 3.02-6.31 5.75-9.54 8.54l1.5 1.03c8 5.71 14.78 11.9 16.5 21.97a35 35 0 0 1-2 9h-2l-.04-2.56c-.41-9.6-2.21-15.18-9.27-21.69-3.62-2.91-7.48-4.83-11.69-6.75q4.15-3.35 8.38-6.62l1.79-1.4 3.66-2.83a73 73 0 0 0 7.88-6.95c4.96-4.77 13.77-3.32 20.29-3.2" fill="#E5E8E7"/><path d="M648 168h2l.31 1.94.69 2.06 3 1 1.69 2.75c2.9 4.08 5.65 6.4 10.31 8.25 4 .67 7.95.93 12 1v1l-15 1-1 3h-2v3l3 1-1 2c-13.48-11.3-13.48-11.3-15-18 .15-3.36.52-6.67 1-10" fill="#EACC67"/><path d="m550 138 2 1-1.43 1.32-1.88 1.8-1.87 1.76c-5.05 5.86-5.36 11.24-5.16 18.71.7 7.06 3.37 10.75 8.59 15.41q1.86 1.52 3.75 3l-4 1v-2h-4v-4h-2v-2h-4v4l-3-1c-3.41-7.18-2.59-15-.18-22.37 2.91-6.48 7.27-12.62 13.18-16.63" fill="#E9CD73"/><path d="M756 209h2c1.44 5.27.35 8.38-2.19 13l-.92 1.79c-3.25 6.18-6.38 10.94-11.89 15.21l-1.75 2.3c-2.62 3.15-5.48 5.44-8.75 7.89l-1.72 1.32A54 54 0 0 1 722 256c-1.8 3.6-.95 7.88-.84 11.84-.15 3.04-.56 4.62-2.16 7.16-1.4-6.36-2.24-12.55-1-19 2.79-3.56 6.19-5.64 10-8q2.4-1.81 4.75-3.69 3.62-2.83 7.31-5.56c9.36-8.09 12.93-18.2 15.94-29.75" fill="#E6E9E6"/><path d="m804 558 3 1-3 8 2.6-.45c13-1.96 25.79-1.56 38.9-1.17l6.86.17q8.32.21 16.64.45l1 2-1.76.03-18.45.34-6.84.13c-14.67.26-29.3.71-43.95 1.5.76-4.28 1.82-8.82 5-12" fill="#EDEFF0"/><path d="m730 1 4 3-2.88 1c-9.41 4.12-16.89 12.47-24.23 19.46a368 368 0 0 1-12.07 10.96q-3.44 3.01-6.82 6.08a946 946 0 0 1-9.44 8.44l-1.87 1.65C675 53 675 53 672 55v-4c2.2-2.18 2.2-2.18 5.12-4.44l3.05-2.38L683 42c2.92-2.3 5.59-4.47 7.88-7.44a27 27 0 0 1 5.77-5.27c4.35-3.2 8.17-6.79 12.04-10.54A207 207 0 0 1 730 1" fill="#DCDDDE"/><path d="M565 662v8l-1.94.88c-7.7 3.65-14.67 7.52-18.35 15.55-1.57 5.68-1.56 11.71-1.71 17.57h-2c-2.94-4.78-2.33-9.32-1.25-14.62 2.29-7.42 8.57-12.42 14.25-17.38l2-1-2-1v-3l4.38-2.5 2.46-1.41C563 662 563 662 565 662" fill="#F0F3F0"/><path d="M691 137c5.41-.45 7.77 1.53 11.84 4.84 3.28 3.27 5.27 6.97 7.16 11.16l-2 1-2-6h-2l-1-4h-5l.47 1.78c1.61 6.88 1.47 12.86.65 19.84l-.31 3.05q-.39 3.67-.81 7.33h-4v2l-2-1 3.03-5.08c3.07-6.07 2.54-13.31 1.97-19.92-1.01-2.85-2.17-4.53-4-7-1.86-3.25-2-4-2-8" fill="#D6B660"/><path d="m579 138 5 2v3h2v3h2v4h2q.41 4.62.75 9.25l.25 2.64c.45 6.55.45 6.55-1.92 9.53L587 173l-1 3c-1.94 2.19-1.94 2.19-4 4h-2v2h-4v2c-4.08 1.95-7.32 2.22-11.81 2.12l-3.52-.05L558 186v-2h-4v-2l2.18.48c7.83 1.45 14.54 1.15 21.59-2.79 5.28-3.99 8.91-10.24 10.23-16.69 1.14-10.56-2.85-16.8-9-25" fill="#D8C070"/><path d="M950 593c8.78 4.12 14.83 11.23 18.23 20.26 2.52 7.96 3.94 15.25 3.83 23.62l-.01 2.08L972 644h-3l-.08-3.99c-.27-9.61-.54-18.25-4.92-27.01l-1.06-2.3c-2.85-5.71-6.78-10.12-11.15-14.73C950 594 950 594 950 593" fill="#E4E6E4"/><path d="m632 664 4 1-.05 2.15-.14 9.79-.07 3.38c-.08 8.96 1.17 16.17 6.26 23.68-3.08-.92-4.66-1.52-6.55-4.18-3.94-8.83-5.5-17.26-3.45-26.82q.06-3 0-6z" fill="#EEF0F1"/><path d="m493 203 .88 1.81A36 36 0 0 0 497 210l.75 3.44c3.52 14.65 13.3 25.03 25.25 33.56l-2 2c-14.49-10.83-25.26-22.65-28-41a83 83 0 0 1 0-5" fill="#DDDFDF"/><path d="M439 497h1l.15 2.56.59 9.6.25 4.12c.47 7.84 1.14 15.51 2.6 23.23.53 3.23.56 6.23.41 9.49-3-2-3-2-3.7-4.57l-.42-3.12-.48-3.28-.4-3.03-.56-3.62L438 525l-.35-2.01c-1.27-8.72.21-17.32 1.35-25.99" fill="#DEE1DE"/><path d="M710 154c3.58 3.58 3.21 7.73 3.31 12.62A35.3 35.3 0 0 1 709 184h-3v-2h2v-22h1z" fill="#E3C663"/><path d="M489 431h1l.26 1.91 1.18 8.65.41 3q1.05 7.73 2.15 15.44l-3-.43q-5.97-.85-11.94-1.63l-2.07-.28L472 457v-1l4.25-.5 2.39-.28c3.99-.37 7.48-.08 11.36.78l-.4-1.94c-2.08-10.18-2.08-10.18-2.6-15.06l1-1q.55-3.5 1-7" fill="#D9DCDA"/><path d="M656 142c0 3 0 3-1.94 5.88-3.89 5.9-4.01 13.45-2.61 20.32q.7 2.42 1.55 4.8l-3-1v-4h-2l-1 8h-1c-1.01-21.91-1.01-21.91 6.45-30.7 1.36-1.42 1.36-1.42 3.55-3.3" fill="#D7C173"/><path d="m838 699 1.93.18c12.33 1.07 24.7 1.39 37.07 1.82l-1 2c-7.86 1.6-16.02 1.08-24 1h-4c-3.38-.89-6.68-1.89-10-3z" fill="#F4F6F4"/><path d="M903 696v3l-6.19 1.5-3.48.84c-2.91.58-5.38.74-8.33.66l-2.06.56c-1.94.44-1.94.44-3.68-.01-2.81-.68-5.45-.77-8.34-.87l-3.51-.12-3.66-.12-3.7-.13L851 701v-1l2.24-.04c14.45-.32 28.58-1 42.86-3.34 3.9-.62 3.9-.62 6.9-.62" fill="#C4C6C4"/><path d="M761 437h1v19l8-2q3.75-.2 7.5-.12l3.72.05 2.78.07v3l-2.89.11-3.92.2-3.83.18C769 458 769 458 758 461z" fill="#E9EBEA"/><path d="M813 611c-1.38 2-1.38 2-4 4-2.47.26-4.84.18-7.32.08-3.98-.12-7.74.36-11.68.92l-1 1a166 166 0 0 1-7-1l-3.44-.56L776 615v-1l12.43-1.28 4.22-.44 6.1-.62 3.7-.38c3.53-.28 7.01-.33 10.55-.28" fill="#DCDEDE"/><path d="M692 178c-7.2 6.33-13.07 7.66-22.53 7.5-5.13-.74-8.75-2.95-12.47-6.5v-1h5v2l3-1 1 2 18 1 1-3c2.94-1.96 3.52-2.16 7-1" fill="#2B210C"/><path d="M760 404h1q.3 6.63.54 13.28l.18 4.49c.46 10.34.01 20.01-1.72 30.23l-3-1 .44-6.94.24-3.9q.3-4.22.82-8.41c.64-5.59.85-11.19 1.06-16.81l.13-3.2z" fill="#1D201E"/><path d="M869 566c7.37-.26 14.26.47 21.5 1.81l2.99.5 2.85.52 2.57.46C901 570 901 570 903 573a1760 1760 0 0 1-34-4z" fill="#DCDCDE"/><path d="M658 180c4 2 4 2 5.75 3.03 2.87 1.23 5.39 1.39 8.5 1.59l3.27.23 2.48.15v1l-15 1-1 3h-2v3l3 1-1 2c-5.7-4.13-5.7-4.13-7.06-8.12.06-2.88.06-2.88 1.5-4.63L658 182z" fill="#DDBE61"/><path d="M535 162h1l.44 2.88C537 168 537 168 538 170l5-2 1.56 3.12c2.39 4.23 5.63 6.96 9.44 9.88l-4 1v-2h-4v-4h-2v-2h-4v4l-3-1c-2.35-4.94-2.21-9.66-2-15" fill="#D9BE6E"/><path d="M586 161c2 3 2 3 1.75 5.02-2.32 6.9-5.5 11.52-11.31 15.92-5.41 1.67-10.82 1.29-16.44 1.06v-1l7-1v-1h7v-2h4v-2h2l2-6h2l.44-2.25q.69-3.4 1.56-6.75" fill="#231A08"/><path d="m587 194 1 4h-4v2h-7v2h-19v-2l-6-3 1-2 2.69 1.44a31.5 31.5 0 0 0 22.18 1.7c3.12-1.25 6.13-2.64 9.13-4.14" fill="#1D1207"/><path d="M734 0c7.09-1.39 13.11 2.31 19 6a19 19 0 0 1 6 9h-2l-1 2-1.69-3.25c-2.54-4.41-5.35-6.9-10.06-8.94A77 77 0 0 0 732 3z" fill="#E3E4E3"/><path d="M542 185c1.94.31 1.94.31 4 1l1 3 3 1 2 3c3.12.69 3.12.69 6 1v2c2.59.86 4.34 1.18 7.01 1.32l2.3.12 2.38.12 2.41.13 5.9.31c-5.04 3.36-10.8 2.52-16.63 1.57-7.74-1.96-14.1-6.62-19.37-12.57z" fill="#CDB76B"/><path d="M566 132h16v2h8v2h2v4h2v2h2l-1 4-2-2.19c-7.68-7.63-16.46-9.9-27-10.81z" fill="#271C0A"/><path d="m821.98 609.9 3.53.01 3.68.03 3.71.01 9.1.05-1 2c-2.67.38-2.67.38-6.19.56l-3.8.22-1.99.1q-4.95.31-9.9.68L813 614v-3c3.24-1.08 5.58-1.12 8.98-1.1" fill="#E6E8E8"/><path d="m701 669 1.84.59c12.1 3.76 23.55 4.89 36.16 5.41v1q-5.93.42-11.88.75l-3.35.25c-7.62.4-12.94-.68-19.77-4l-3-1z" fill="#E6E8E6"/><path d="M757 644c4.73 3.96 6.82 7.92 8 14a35 35 0 0 1-2 9h-2l-.11-2.63c-.36-6.2-.68-10.93-3.89-16.37z" fill="#E2E5E4"/><path d="m501 638 2 1-2.08 2.42c-5.96 7.17-9.59 13.11-10.92 22.58l-2-1c.42-11.87.42-11.87 5-17h2l.19-1.75c1.13-3.14 3.15-4.34 5.81-6.25" fill="#E9E9EB"/><path d="M600 163h2c.62 8.83.23 15.63-5 23-2.81 2.62-2.81 2.62-5 4v-4h2v-2h2v-4h2l-.06-2.44C598 175 598 175 599 174q.34-2.77.56-5.56l.26-3.07z" fill="#E3C86D"/><path d="m545 681 2 2-1.46 2.51c-1.7 3.85-2.09 7.22-2.23 11.37l-.1 2.08L543 704h-2c-2.6-4.22-2.52-7.73-1.43-12.5 2.11-7.65 2.11-7.65 5.43-10.5" fill="#D4D4D7"/><path d="M651 151h1v9h2l.18 1.98c.46 4.71.96 9.36 1.82 14.02-3.26-2.64-4.93-6.02-6-10-.45-5.06-.31-10.07 1-15" fill="#261E0E"/><path d="M667 196h5v2h14v-2h8c-5.16 5.16-12.9 4.24-19.7 4.27-3.19-.26-5.42-.9-8.3-2.27z" fill="#DAC66F"/><path d="M760 384h1c2.11 9.82 2.24 19.27 2.12 29.25l-.02 4.61q-.03 5.57-.1 11.14h-1l-1-30-2 1c0-5.46.18-10.59 1-16" fill="#454846"/><path d="M540 174h4v2h2a154 154 0 0 1-2 9c-1.88-.12-1.88-.12-4-1-1.25-3.06-1.25-3.06-2-6h2z" fill="#E6C55F"/><path d="m550 138 2 1-1.43 1.32c-7.67 7.34-9.08 13.21-9.57 23.68h-1l-.38-3.44L539 157l-2-1c1.72-7.45 6.79-13.69 13-18" fill="#B2AD97"/><path d="M616 662h20l-1 3-17-1v9h-1z" fill="#F5F7F3"/><path d="M756 209h2c1.46 5.33.3 8.6-2.19 13.31l-.92 1.92c-2.32 4.54-2.32 4.54-5.13 5.69L748 230l.99-1.8A78 78 0 0 0 756 209" fill="#DEE0E1"/><path d="M878 651a36 36 0 0 1-9.11 1.28l-2.98.11-3.1.11c-6.99.24-13.87.64-20.81 1.5v-2c4.97-2.68 9.96-2.19 15.44-2.06 19.49.36 19.49.36 20.56 1.06" fill="#EDEEF1"/><path d="M776.25 456.94a370 370 0 0 1 6.75.06v3l-16 1v-2l-2-1c3.75-1.2 7.33-1.1 11.25-1.06" fill="#202120"/><path d="M650 174h2l1 6h5l1 3-5 3v-2h-2v-2h-2l-2-6h2z" fill="#F1CC60"/><path d="M541 152h2c1.33 5.97 1.09 11.93 1 18h2v2l2 1-3 1c-4.63-7.24-4.43-13.56-4-22" fill="#2C210A"/><path d="M487 412h1c.66 8.69 1.16 17.28 1 26-2.92-2.45-2.92-2.45-3.26-4.88l.14-2.12c.18-4.63-.27-9.03-.86-13.62C485 415 485 415 487 412" fill="#EEF1F1"/><path d="m568.25 132.81 3.7.02C575 133 575 133 577 134v3l-2.1-.49c-7.64-1.35-15.6-1.23-22.9 1.5 4.17-5.1 10.07-5.27 16.25-5.2" fill="#B7AD8D"/><path d="M529 276c1.17 1.52 1.17 1.52 2 4a62 62 0 0 1-2.75 7.69l-.84 2.09c-2.12 5.08-2.12 5.08-4.41 6.22-.37-5.11.82-8.4 3-13l1.12-2.81C528 278 528 278 529 276" fill="#EAEBEC"/><path d="M444 542c1.87 3.41 2.99 6.91 4.12 10.62l1.08 3.48c.8 2.9.8 2.9.8 4.9l-3-1c-1-2.06-1-2.06-2-5l-.86-1.93c-2.32-5.39-2.32-5.39-1.33-9.07z" fill="#D9DADB"/><path d="M594 145c5.43 4.99 8.28 9.62 9 17q.1 4.5 0 9h-1v-8h-2v-7h-2v-4h-2z" fill="#CEB872"/><path d="M656 142c0 3 0 3-1.81 5.44-3.27 4.56-4.04 10.16-5.19 15.56-2-2-2-2-2.19-3.88.63-7.5 3.98-11.91 9.19-17.12" fill="#C2BD9D"/><path d="m706 146 4 2v2h2v4l3 1-1 14h-1l-.26-2.49c-.98-7.74-2.77-13.79-6.74-20.51" fill="#2D1F0A"/><path d="m632 664 4 1-1 22h-1l-.18-2.55-.26-3.33-.24-3.3C633 675 633 675 632 673q-.06-3 0-6z" fill="#DFE0E2"/><path d="M439 497h1v25c-3-3-3-3-3.11-6.58q.15-2.12.36-4.23l.16-2.12c.33-4.07.86-8.05 1.59-12.07" fill="#EDEFEF"/><path d="M761 437h1l-.02 1.71-.07 10.36-.01 2.58-.01 2.38C762 456 762 456 763 458c-1.38 1.5-1.38 1.5-3 3h-2z" fill="#CED0CF"/><path d="m709 182 1 2h2v2h-4v4h-2v2c-1.9 2.24-3.39 3.75-6.12 4.88L698 197l-2-2 1.57-1.07A40 40 0 0 0 709 182" fill="#241507"/><path d="m910 644 3 2c-3.7 2.5-6.63 3.3-11 4l-1 2h-4v-2l-2-1 2.77-.84 3.61-1.1 3.58-1.09C908 645 908 645 910 644" fill="#191E21"/><path d="m721 253 1 3-1 2c-.03 3.28.07 6.55.16 9.84-.15 3.04-.56 4.62-2.16 7.16a54 54 0 0 1-1.25-12.12l-.08-3.7c.33-3.18.33-3.18 1.85-5.11z" fill="#DCDEDC"/><path d="M756 369h2l1 4.75.56 2.67C760 379 760 379 760 383l-3 1c-1.43-5.31-2.4-9.54-1-15" fill="#252824"/><path d="M616 689a47 47 0 0 1 3 7c-.78 2.04-.78 2.04-1.94 4.19l-1.15 2.17L615 704l-4-1 .84-1.54c2.19-4.17 3.68-7.7 4.16-12.46" fill="#E1E2E4"/><path d="M532 261h2c.33 6.82.24 11.92-3 18h-1a60 60 0 0 1 2-18" fill="#E0E2E2"/><path d="M812 488h1a699 699 0 0 1 1.66 7.62C815 498 815 498 814 500q-.34 3.3-.56 6.62l-.26 3.61L813 513h-1q-.3-5.68-.56-11.38l-.17-3.27-.15-3.12-.14-2.89C811 490 811 490 812 488" fill="#D7DAD6"/><path d="M693 136h9l1 3 3 1v6l-1.32-1.21c-3.69-3.28-7.11-5.78-11.68-7.79z" fill="#271C09"/><path d="M535 162h1l.44 2.88C537 168 537 168 538 170h2c.98 3.05.98 4.95 0 8l-3-1c-2.35-4.94-2.21-9.66-2-15" fill="#C4B065"/><path d="M822 668c1.13 3.51.99 6.53.69 10.19l-.24 3.23L822 684l-2 1c-2.52-7.36-2.52-7.36-1.24-11.38.99-1.95 2.04-3.8 3.24-5.62" fill="#EDEEEE"/><path d="M502 339h2l-.59 1.94A996 996 0 0 0 499 356l-2-1c.51-5.97 2.39-10.64 5-16" fill="#DCDFDE"/><path d="M888 568q3.19.38 6.38.81l3.58.46C901 570 901 570 903 573l-18-2 3-1z" fill="#CECFD0"/><path d="m691 178 1 4h-2l-2 4c-2.88.12-2.88.12-6 0l-2-2 2.15-1.06 2.79-1.38 2.77-1.37C690 179 690 179 691 178" fill="#E2C458"/><path d="M569 135c5.71.42 8.61 2.58 13 6l-2 2-2-1v-2l-2.75.19c-3.54-.21-4.7-.84-7.25-3.19z" fill="#2A1F0B"/><path d="M500 6c.75 1.62.75 1.62 1 4a174 174 0 0 1-4 6c-.75 2.88-.75 2.88-1 5-2-1-2-1-2.88-2.69-.19-3.62 1.76-5.48 3.88-8.31l1.75-2.38z" fill="#E5E8E5"/><path d="M737.13 2.69c4.52.37 7.7 1.56 11.88 3.3-3.78 1.35-6.87.74-10.76.08l-3.54-.6L732 5c2-2 2-2 5.12-2.31" fill="#1C1F1D"/><path d="m760 665 3 4c-8.63 7-8.63 7-13 7l-3-2 5.96-1.46q2.54-.69 5.04-1.54c1.19-3.06 1.19-3.06 2-6" fill="#D9DBDA"/><path d="m777.25 614.94 2.7.03 2.05.03v3l-3.75-.06c-2.91-.01-5.46.13-8.25 1.06l-2-3c3.16-.93 5.97-1.1 9.25-1.06" fill="#F0F3EF"/><path d="M720 271c2 1 2 1 3.07 3.62l1.05 3.26 1.08 3.24c.8 2.88.8 2.88.8 5.88-3.5-3.03-4.92-5.5-6-10-.12-3.38-.12-3.38 0-6" fill="#EDF0EC"/><path d="m482 454 9 3-1 2-18-2v-1l1.93-.18 2.51-.26 2.49-.24C481 455 481 455 482 454" fill="#D3D5D5"/><path d="M492 440h2l1 12-3 1-.56-5.38-.32-3.02c-.12-2.6-.12-2.6.88-4.6" fill="#242625"/><path d="M582 142c5.96 6.99 7.48 11.98 7 21h-1v-9h-2l-2-8h-4v-2h2z" fill="#41300F"/><path d="m695 163 2 2c-.2 5.3-1.38 8.15-5 12-.69-1.62-.69-1.62-1-4a99 99 0 0 1 3-6c.69-2.38.69-2.38 1-4" fill="#28200D"/><path d="M715 160h1c.33 6.82.24 11.92-3 18-1.31-3.75-.76-6.82-.12-10.69l.55-3.51c.57-2.8.57-2.8 1.57-3.8" fill="#1A1308"/><path d="M490 658h1l.26 2.01c.96 6.01 1.92 9.19 6.74 12.99-4 0-4 0-6.81-2.44-2.28-2.89-2.41-4.81-2-8.44q.35-2.07.81-4.12" fill="#D7D9DA"/><path d="M970 629h2v15h-3z" fill="#EFF0F1"/><path d="M506 327h2c-.54 4.56-1.79 7.97-4 12h-3q2.4-6.05 5-12" fill="#EAEDED"/><path d="M903 696v3c-5.51 1.71-8.53 2.46-14 0v-1l5.31-1 2.99-.56c2.7-.44 2.7-.44 5.7-.44" fill="#D2D4D2"/><path d="m668 199 19 1c-4 3-4 3-7.16 2.93l-3.46-.62-3.48-.57C670 201 670 201 668 199" fill="#120F03"/><path d="m517.07-.1 2.5.04 2.5.02L524 0l2 4c-8.57-.86-8.57-.86-12-3 1-1 1-1 3.07-1.1" fill="#F4F7F4"/><path d="m719.13 673.98 2.78.14 3 .15 6.32.33 7.77.4v1q-4.9.34-9.82.63l-2.8.19-2.72.16-2.49.16C719 677 719 677 716 675c1-1 1-1 3.13-1.02" fill="#CCCECD"/><path d="M647 174c1.95 2.92 2.45 4.63 3 8h2v2h2v2h2l-1 4c-4.69-5.11-8-8.77-8-16" fill="#E3CC7F"/><path d="M687 661c1.94.62 1.94.62 4 2 .75 3.12.75 3.12 1 6-1.94.56-1.94.56-4 1-1-1-1-1-1.1-2.85z" fill="#DEE1DF"/><path d="M937 585c3.2-.32 4.69-.2 7.46 1.53l2.35 1.97 2.4 1.97L951 592l-2 2z" fill="#D8DADA"/><path d="M441 532c3.16 4.75 3.11 8.32 3 14-3-2-3-2-3.75-4.75-.25-3.3.06-6.02.75-9.25" fill="#EAECEB"/><path d="M686 136c3.38-.12 3.38-.12 7 0l2 2h-4c1 3 1 3 3 5-4 0-5.8-1.73-9-4z" fill="#DBBF6E"/><path d="M635 690c2.15 3.22 3.5 6.44 5 10q.97 2.01 2 4c-2.38-.62-2.38-.62-5-2-1.93-4.05-2.21-7.56-2-12" fill="#D8DADB"/><path d="m710 691 2 1c.48 1.96.48 1.96.75 4.38l.3 2.39C713 701 713 701 711 704l-3-1 1-2q.34-2.55.56-5.12l.26-2.76z" fill="#EFF1F0"/><path d="M808 475c2.45 1.87 2.97 2.83 3.51 5.92l.18 3.27.2 3.29.11 2.52c-3.42-3.42-3.95-7.72-4.12-12.44z" fill="#EEF1ED"/><path d="M496 355h2c-.51 4.32-1.2 8.03-3 12h-3z" fill="#E9EBED"/><path d="m587 194 1 4h-4v2h-9a47 47 0 0 1 7.69-4.12l2.45-1.08z" fill="#2C1D0A"/><path d="M566 132h16l2 4-1.65-.4A120 120 0 0 0 566 133z" fill="#342911"/><path d="m496 16 1 2h2v12l-2 1z" fill="#1E2022"/><path d="M540 693h2l1 11h-2c-2.09-3.4-2.26-6.05-2-10z" fill="#EFEFF1"/><path d="M537 675c-3.97 2.64-7.15 3.28-11.88 2.56L523 677l1-2a28.4 28.4 0 0 1 13 0" fill="#EBECED"/><path d="M667 196h5v2h6v2c-4.55.18-7.88 0-12-2z" fill="#C9B667"/><path d="M657 178h5v2l3-1 3 4c-1.77.65-1.77.65-4 1-1.92-.96-1.92-.96-3.75-2.38l-1.86-1.39L657 179z" fill="#302512"/><path d="M538 149c1.14 3.41.87 4-.44 7.19l-.87 2.17L536 160h-2v2l-2-1v-5h3z" fill="#151109"/><path d="M678 130q2.3.39 4.56.94l2.51.59 1.93.47v1l-19 1v-2l1.93-.18 2.51-.26 2.49-.24C677 131 677 131 678 130" fill="#170F02"/><path d="M734 0c3.44-.38 3.44-.38 7 0l3 3h-12z" fill="#F4F6F5"/><path d="m894 696 1 2c-5.61.83-10.42 1.07-16 0v-1a80 80 0 0 1 15-1" fill="#212321"/><path d="M876 611q2.4-.08 4.81-.12l2.71-.08c2.48.2 2.48.2 5.48 2.2-4.11 1.54-7.79.76-12 0z" fill="#EEF1F2"/><path d="M736 306c2.45 2.45 3.64 4.82 5 8l-1 3c-2.33-2.12-3.91-4.02-5-7 .38-2.25.38-2.25 1-4" fill="#EAEDEB"/><path d="m730 1 4 3-3.25 1.38C728.12 6.5 725.54 7.68 723 9V6c1.53-1.39 1.53-1.39 3.5-2.69l1.97-1.32z" fill="#E2E2E4"/><path d="m707 684 3 1c1.3 5.5.71 10.47 0 16h-1l-.18-2.45-.26-3.24-.24-3.2c-.28-2.76-.72-5.4-1.32-8.11" fill="#CCCECD"/><path d="M813 611h10c-3 3-3 3-6.69 3.19L813 614z" fill="#F2F3F4"/><path d="m693 200-1 2h-4v2l-4-2 1-3c3.29-1.47 5.01-.82 8 1" fill="#282111"/><path d="m710 173 2 3c-.68 2.26-.68 2.26-1.88 4.69l-1.17 2.45L708 185l-2-1v-2h2v-6h2z" fill="#DFC36D"/><path d="M584 140c2.38.25 2.38.25 5 1a13 13 0 0 1 2 4l-5 1v-3h-2z" fill="#E4C358"/><path d="M925 689v3c-3.78 1.84-5.95 2.16-10 1 3.14-2.09 6.15-4 10-4" fill="#D6D9D8"/><path d="m763 655 2 2a43 43 0 0 1-2 10h-2z" fill="#F2F5F4"/><path d="M889 612c2.16.02 2.16.02 4.62.38l2.48.33 1.9.29c-2.95 1.97-4.54 2.65-8 3l-3-2z" fill="#DAE0E1"/><path d="M466 591c2.4 2.88 4.47 5.56 6 9h-3c-2.28-2.28-2.97-3.51-3.19-6.75z" fill="#E0E4E0"/><path d="M700 188h5c-2.64 3.62-4.97 5.99-9 8h-2v-2l6-2z" fill="#E0C56D"/><path d="M644 155h3l-2 16h-1z" fill="#190F06"/><path d="m919 576 9 1 1 4-10-3z" fill="#DADADC"/><path d="M697 168h1v8h-4v2l-2-1z" fill="#D8BF6E"/><path d="M491 656a53 53 0 0 1 3.62 8.75l.79 2.42.59 1.83c-2.5-.88-2.5-.88-5-3a45 45 0 0 1 0-10" fill="#262829"/><path d="M513 635v2l-11 4c2-4 2-4 4.94-5.25C510 635 510 635 513 635" fill="#DBDADD"/><path d="M786 613h13v2c-4.84 1.51-8.26.37-13-1z" fill="#E3E4E5"/><path d="M618 679h1l1 12-3 2z" fill="#F4F7F6"/><path d="m497 673 13 2v1c-5.04 1.01-8.24.97-13-1z" fill="#EBEBEE"/><path d="M753 355c2.12 3.53 2.53 6.94 3 11h-2v-3h-2z" fill="#2B2E2A"/><path d="m724 286 4 1c.62 1.75.62 1.75 1 4l-2 4z" fill="#DFE2E1"/><path d="M753 220h1c.37 5.42.37 5.42-1.5 8.38L751 230l-3-1 3.03-5.27A89 89 0 0 0 753 220" fill="#D5D8D5"/><path d="m601 176 1 2 3 1-2 3h-3v2l-2-1z" fill="#292010"/><path d="M553 673c2.16.36 2.16.36 4 1l-3.81 2.88-2.15 1.61A126 126 0 0 1 546 682c1.56-3.83 3.84-6.36 7-9" fill="#E3E6E6"/><path d="m698 672 6 4-1 3-7-5z" fill="#D9DDD7"/><path d="M965 655h2a93 93 0 0 1-4 9l-2-3q1.91-3.06 4-6" fill="#E4E7E5"/><path d="M757 644q2.56 2.43 5 5v2l-3 1c-1.76-3.09-2-4.23-2-8" fill="#EAEDEE"/><path d="m889 609 7 1v3l-10-1 3-1z" fill="#282D2F"/><path d="M809 518h1l1 10-3-2c-.25-3.56-.25-3.56 0-7z" fill="#1D201F"/><path d="M728 292c4.43 5.14 4.43 5.14 5 9-1.94-.56-1.94-.56-4-2-.75-3.62-.75-3.62-1-7" fill="#EBEEED"/><path d="m703 190 1 3c-2 3-2 3-4 3.81l-2 .19-2-2z" fill="#2F2008"/><path d="M653 173c2.53 2.36 3.89 3.66 5 7h-5c-1.12-4.75-1.12-4.75 0-7" fill="#DEC26B"/><path d="M649 153h1l-1 10c-2-2-2-2-2.25-5 .25-3 .25-3 2.25-5" fill="#E3D59A"/><path d="M694 147c2.44 1.91 3 3.01 3.81 6.06L698 156l-2 2v-6h-2z" fill="#2C200D"/><path d="M904 647v2h-2l-1 3h-4v-2l-2-1c6.75-2 6.75-2 9-2" fill="#28272C"/><path d="M452 463h3c-1.39 3.37-2.98 4.99-6 7 .75-4.75.75-4.75 3-7" fill="#E9ECEB"/><path d="M489 383h2v6h-2l-1 4c-1.47-3.81-.43-6.29 1-10" fill="#E7E9EA"/><path d="m493 366 2 1-1 7h-2l-1 2z" fill="#E2E4E4"/><path d="m669 192 1 4-6 1-1-3z" fill="#E8C860"/><path d="M538 152h2c.96 2.88 1.11 4.7 1.06 7.69l-.02 2.45L541 164h-1l-.38-3.44L539 157l-2-1z" fill="#C6B281"/><path d="m600 152 4 1-1 9h-1z" fill="#291E0B"/><path d="M687 132h5v2l3 1c-2.79 1.03-3.87 1.05-6.75.06L686 134z" fill="#2A230A"/><path d="M611 698h3c-.75 2.44-.75 2.44-2 5-2.12.81-2.12.81-4 1z" fill="#222224"/><path d="m932 687-1 3c-2.56 1.19-2.56 1.19-5 2v-4c2-1 2-1 6-1" fill="#E8EBEB"/><path d="m542 672-2 4-6-1v-2c2.76-.6 5.16-1 8-1" fill="#DBDBDA"/><path d="m751 624 3 1-5 5-3-2c2.31-2.06 2.31-2.06 5-4" fill="#222423"/><path d="M810 534h3c-.59 6.15-.59 6.15-1 8l-2 1c-1.12-5.62-1.12-5.62 0-9" fill="#ECEFEC"/><path d="M739 239h3c-1.05 2.62-1.65 3.79-4.12 5.25L736 245c.57-2.87.86-3.86 3-6" fill="#DFE2E1"/><path d="M648 182c2 1 2 1 3.06 3.88L652 189l1 3h-3c-1.32-3.62-2-6.1-2-10" fill="#18150C"/><path d="m691 178 1 4h-4v2h-5z" fill="#D3BC6E"/><path d="M537 156h2v7l-3-1q-.06-2.5 0-5z" fill="#D5BF75"/><path d="m965 608 3 4-3 3-2-6z" fill="#DDE1DD"/><path d="M802 560h2c-1.86 7.57-1.86 7.57-5 10a43 43 0 0 1 3-10" fill="#DDE0E0"/><path d="m785 455-1 2c-2.88.12-2.88.12-6 0l-2-2c3.38-.84 5.67-1.11 9 0" fill="#F1F3F2"/><path d="M510 318h1c-.75 6.62-.75 6.62-3 10-1.39-4.18.18-6.13 2-10" fill="#E4E6E7"/><path d="M677 49c-1.37 3.16-1.99 3.99-5 6v-4c3-2 3-2 5-2" fill="#D7D9D9"/><path d="m504 6 2 3c-1.81 1.56-1.81 1.56-4 3l-3-1z" fill="#232622"/><path d="m709 673 8 1-3 3q-2.52-1.46-5-3z" fill="#EEF1EF"/><path d="m805 551 3 4-4 4c-1-2-1-2-.06-5.12z" fill="#D2D5D6"/><path d="M757 364h3l-1 7c-2-2-2-2-2.12-4.62z" fill="#F1F4F0"/><path d="M657 193a29 29 0 0 1 9 5 154 154 0 0 1-9-2z" fill="#251609"/><path d="M582 194h5c-1.97 2.52-2.97 2.99-6.19 3.69L578 198v-2h4z" fill="#DCC277"/><path d="M650 184c2.5 2.31 2.5 2.31 5 5v3c-2.5-1.75-2.5-1.75-5-4z" fill="#312512"/></svg>