<svg style="background:transparent" version="1.1" xmlns="http://www.w3.org/2000/svg" viewBox="0 0 1248 704"><path d="m538 16 3 2v2l4 2v2l1.75.81A45 45 0 0 1 553 29l2.5 1.44A28 28 0 0 1 562 36v2l2.06.62c4.71 2.21 8.29 5.73 11.94 9.38l2.62 2 2.38 2v2l1.88.44C585 55 585 55 587 56q3.86.16 7.71.18l2.41.02 7.91.04 2.72.01 14.27.05q7.38.02 14.76.08 5.67.04 11.33.04 2.73 0 5.45.03 3.8.04 7.6.02l2.29.04c2.09-.02 2.09-.02 5.55-.51 1.8-2.03 1.8-2.03 3-4h3l.79-1.8c1.3-2.36 2.59-3.67 4.65-5.39l1.81-1.54C684 42 684 42 687 41l1.38-1.88C690 37 690 37 692.25 35.69c3.12-1.92 5.32-4.17 7.86-6.79 4.84-4.87 9.98-9.38 15.89-12.9h2l.69-1.75c3.43-5.89 10.48-8.97 16.75-11.06 7.24-.53 12.12.4 17.77 5.15L755 10l1.54 1.41c7.67 8.03 5.73 21.18 5.65 31.47l-.02 5c-.06 9.97-.26 19.92-.95 29.87-.27 4.05-.22 8.09-.21 12.15l.04 41.12.03 21.11.01 20.41.02 7.78v10.89l.01 3.23c-.01 9.15-.52 17.09-4.12 25.56l-.8 2.3c-1.59 3.57-3.73 6.55-6.01 9.7l-1.29 1.83c-6.51 9.05-6.51 9.05-10.9 11.11-2 1.06-2 1.06-4.5 4.06-2.34 2.81-3.3 3.64-6.5 5-3.25 1.62-3.25 1.62-6 4-1.11 8.34 1.83 16.64 4.94 24.31.93 2.36 1.69 4.7 2.44 7.13 1.31 4.01 3.18 7.1 5.62 10.56q1.02 2.5 2 5l2.93 5.05c1.94 3.54 3.48 7.25 5.07 10.95l3.05 6.94q1.25 2.66 2.64 5.25c1.4 2.99 1.78 5.56 2.31 8.81q1.1 2.55 2.25 5.08c.83 2.13 1.3 4.18 1.75 6.42a39 39 0 0 0 6 14.5q-.46 2-1 4l1.38 3.25c2.27 5.46 2.18 11.22 2.41 17.04.17 3.05.6 5.74 1.21 8.71q.06 2.31 0 4.62a18 18 0 0 0 1 7.38c.39 6.55.36 12.68-1.56 18.96-.74 3.46-.48 6.92-.32 10.43-.13 2.92-.98 4.93-2.12 7.61-.12 3.31-.12 3.31 0 6l2.02-.45c9.59-1.77 19.53-3.27 27.98 2.45 8.44 5.82 14.43 12.25 18 22l1 2.56c1.47 5.07 2.21 10.23 3 15.44l.62 3.75c.73 6.29.31 11.99-.62 18.25v3.19c0 2.57-.33 4.36-1 6.81a406 406 0 0 0-1 7c9.42-1.39 17.44-7.87 24.5-13.94C840 521 840 521 842 521l.75-1.88c1.52-2.58 2.57-2.86 5.25-4.12a247 247 0 0 0 4.3-3.58c11.73-9.83 26.69-19.76 41.45-23.92 2.54-.72 5.06-1.43 7.55-2.29 19.92-6.67 44.27-6.21 63.7 1.79h3q2.52 1.97 5 4l5.06 2.82c19.54 11.87 32.74 29.16 39.02 50.92 4.32 19.37 4.97 40.3-5.02 58.07-4.36 6.63-10.62 13.04-18.45 15.07-5.71.31-9.71-.32-14.17-4C973 607.1 968 598.55 968 589q.45-2.17 1-4.31c.95-4.03 1.09-7.57 1-11.69l1-1c.09-12.6-2.39-23.55-11-33-6.87-6.71-14.53-9.65-24-10l-2.99-.12c-8.46-.18-14.8 1.25-22.21 5.32-1.8.8-1.8.8-4.8.8-2.79 1.64-5.43 3.46-8.11 5.27-2.92 1.75-5.67 2.68-8.89 3.73-2.05 1.29-2.05 1.29-3.75 2.62C882.2 549 882.2 549 880 549l-.69 2.88C878 555 878 555 875.75 556.12L873 557c-6.51 3.83-6.51 3.83-8 8l-3-1-.7 1.75c-1.64 2.83-3.58 4.32-6.18 6.31l-2.61 2.04q-2.3 1.75-4.63 3.48a89 89 0 0 0-5 4.11C840 584 840 584 838 584l-1.8 1.82c-2.35 2.33-4.52 3.61-7.45 5.12a113 113 0 0 0-10 5.81c-3.47 2.21-6.74 3.23-10.75 4.25q-2.7.98-5.38 2c-6.56 2.41-12.63 3.93-19.62 4.19-8.98.82-14.26 8-19.74 14.45-4.24 4.42-9.27 7.84-14.26 11.36 1 3 1 3 4 5v2l4 2v2l1.86.69c4.2 2.57 4.97 7.76 6.14 12.31.74 4.37 1.02 8.08-1.11 12.07a20.7 20.7 0 0 1-13.89 8.25c-5.49.62-10.91.84-16.44.8l-2.52-.01c-9.16-.09-16.58-.5-25.01-4.37L704 673l-2 1 1.46 1.54c6.75 7.36 8.59 14.57 9.54 24.46a78 78 0 0 1-1 4q-14.4.18-28.79.26-6.69.04-13.37.12-6.45.07-12.89.09-2.47.01-4.93.06-3.44.04-6.89.04l-3.96.03c-3.17-.6-3.17-.6-5.06-2.99A64 64 0 0 1 631 681l1-1c.03-2.75-.07-5.49-.16-8.24.16-2.81.71-4.37 2.16-6.76l-6.44-.06-3.62-.04c-2.94.1-2.94.1-3.94 1.1q-.14 2.5-.12 5l-.01 2.75C620 676 620 676 621 677c.14 4.29.13 7.86-1 12l-.94 4.44c-1.84 8.34-1.84 8.34-4.06 10.56q-3.44.14-6.87.15l-2.18.01-7.16.01-4.96.01-10.41.01q-6.69 0-13.36.03l-10.25.01-4.92.01H548l-3.96.01C541 704 541 704 539 702c-.8-7.81 2.06-15.33 6-22 2.69-2.88 2.69-2.88 5-5l-2-2-1.77.84c-6.81 3.01-12.82 3.95-20.23 4.16l-3.83.16c-21.32.63-21.32.63-28.53-5A36 36 0 0 1 487 663c.59-10.36 5.5-17.15 13-24 3.29-1.8 3.29-1.8 6-3-1.25-2.5-2.96-3.32-5.25-4.8-5.09-3.49-9.4-7.85-13.75-12.2a443 443 0 0 0-6.23-5.25c-1.85-1.83-2.62-3.44-3.77-5.75-1.66-1.56-1.66-1.56-3.5-3a16.4 16.4 0 0 1-5.5-7l-1.62-2.12C465 594 465 594 465 592l-1.83-.73c-2.66-1.56-3.44-2.96-4.9-5.66l-1.43-2.65-1.46-2.77-1.49-2.74c-2.2-4.09-4.22-8.11-5.89-12.45l-1-2.54a84 84 0 0 1-4.51-16.07c-.49-2.39-.49-2.39-1.45-5.17-3.19-9.89-3.33-20.17-3.23-30.47v-3.64c.08-14.88 1.72-29.07 11.57-40.99L452 464l1.84-1.52A42.6 42.6 0 0 1 478 453c3.87.81 3.87.81 7 2q2.5.54 5 1l-.94-3.56c-2.1-7.99-2.53-16.24-3.18-24.44l-.31-3.48c-.45-5.75-.61-10.86.43-16.52q.03-2.4-.06-4.81c-.05-5.29.9-10.05 2.06-15.19q.8-3.84 1.56-7.69l.76-3.7q.69-3.63 1.19-7.31c.4-2.68.9-4.95 1.8-7.49l.81-2.3.88-2.51 1.94-5.88q2.42-7.24 5.06-14.4 1.01-2.74 1.96-5.5c3.1-8.85 7.27-16.9 11.85-25.06A174 174 0 0 0 525 286.5q1.2-2.97 2.56-5.88c1.43-3.6 1.98-6.79 2.44-10.62l1-1q.14-2.68.12-5.38l.01-2.96C531 258 531 258 530 255l-6-2c-2.88-2-2.88-2-5-4v-2l-1.81-.82a21 21 0 0 1-5.28-4.01l-1.69-1.67-1.72-1.75-1.72-1.7c-14.08-14.15-15.09-31.85-15.11-50.82l.07-10.82.02-7.66.08-18.01q.1-17.05.14-34.09.01-5.55.06-11.09c.05-11.58-.09-23.08-.8-34.63q-.42-7.09-.44-14.18l-.02-2.54-.02-5.18q-.02-3.93-.07-7.86c-.08-11.54-.09-21.73 8.36-30.48 5.1-4.43 10.63-6.48 17.36-6.92 8.78.78 15.65 7.29 21.59 13.23" fill="#161817"/><path d="M987.52 502.87c16.36 14.38 27.27 33.24 29.48 55.13 1.09 17.1-.07 35.29-11.5 49-5.93 4.75-10.51 7.48-18.16 7.33-4.91-.7-7.74-3.31-10.75-7.11-5.71-9.48-3.88-20.64-3.49-31.27.47-13.68.32-26.13-9.54-36.82-9.62-9.6-18.38-12.75-31.68-12.81-8.56.17-16.1.9-23.88 4.68l-3.22 1.4c-13.14 6.06-25.02 14.66-35.55 24.54a151 151 0 0 1-9.35 7.77q-3.32 2.64-6.57 5.37c-21.41 17.8-47.46 34.9-76.31 33.92l2.92-5.11 2.71-4.82q.67-1.04 1.37-2.07h2l.77-2.1a75 75 0 0 1 4.92-9.21 148 148 0 0 0 14.19-32.55c1.53-2.91 3.22-3.62 6.12-5.14a335 335 0 0 0 36.48-25.56c9.14-7.25 18.26-13.85 28.52-19.44l3.48-1.92c32.65-17.23 77.6-17.93 107.04 6.79" fill="#101212"/><path d="m538 16 3 2v2l4 2v2l1.75.81A45 45 0 0 1 553 29l2.5 1.44A28 28 0 0 1 562 36v2l2.06.62c4.71 2.21 8.29 5.73 11.94 9.38l2.62 2 2.38 2v2l1.88.44C585 55 585 55 587 56q3.86.16 7.71.18l2.41.02 7.91.04 2.72.01 14.27.05q7.38.02 14.76.08 5.67.04 11.33.04 2.73 0 5.45.03 3.8.04 7.6.02l2.29.04c2.09-.02 2.09-.02 5.55-.51 1.8-2.03 1.8-2.03 3-4h3l.79-1.8c1.3-2.36 2.59-3.67 4.65-5.39l1.81-1.54C684 42 684 42 687 41l1.38-1.88C690 37 690 37 692.25 35.69c3.12-1.92 5.32-4.17 7.86-6.79 4.84-4.87 9.98-9.38 15.89-12.9h2l.69-1.75c3.43-5.89 10.48-8.97 16.75-11.06 7.24-.53 12.12.4 17.77 5.15L755 10l1.54 1.41c7.67 8.03 5.73 21.18 5.65 31.47l-.02 5c-.06 9.97-.26 19.92-.95 29.87-.27 4.05-.22 8.09-.21 12.15l.04 41.12.03 21.11.01 20.41.02 7.78v10.89l.01 3.23c-.01 9.15-.52 17.09-4.12 25.56l-.8 2.3c-1.59 3.57-3.73 6.55-6.01 9.7l-1.29 1.83c-6.51 9.05-6.51 9.05-10.9 11.11-2 1.06-2 1.06-4.5 4.06-2.34 2.81-3.3 3.64-6.5 5-3.25 1.62-3.25 1.62-6 4-1.11 8.34 1.83 16.64 4.94 24.31.93 2.36 1.69 4.7 2.44 7.13 1.31 4.01 3.18 7.1 5.62 10.56q1.02 2.5 2 5l2.93 5.05c1.94 3.54 3.48 7.25 5.07 10.95l3.05 6.94q1.25 2.66 2.64 5.25c1.4 2.99 1.78 5.56 2.31 8.81q1.1 2.55 2.25 5.08c.83 2.13 1.3 4.18 1.75 6.42a39 39 0 0 0 6 14.5q-.46 2-1 4l1.38 3.25c2.27 5.46 2.18 11.22 2.41 17.04.17 3.05.6 5.74 1.21 8.71q.06 2.31 0 4.62a18 18 0 0 0 1 7.38c.39 6.55.36 12.68-1.56 18.96-.74 3.46-.48 6.92-.32 10.43-.13 2.92-.98 4.93-2.12 7.61-.12 3.31-.12 3.31 0 6l2.02-.45c9.59-1.77 19.53-3.27 27.98 2.45 8.44 5.82 14.43 12.25 18 22l1 2.56c1.47 5.07 2.21 10.23 3 15.44l.62 3.75c.73 6.29.31 11.99-.62 18.25v3.19c0 2.57-.33 4.36-1 6.81a406 406 0 0 0-1 7c9.42-1.39 17.44-7.87 24.5-13.94C840 521 840 521 842 521l.75-1.88c1.52-2.58 2.57-2.86 5.25-4.12a247 247 0 0 0 4.3-3.58c11.73-9.83 26.69-19.76 41.45-23.92 2.54-.72 5.06-1.43 7.55-2.29 19.92-6.67 44.27-6.21 63.7 1.79h3q2.52 1.97 5 4l5.06 2.82c19.54 11.87 32.74 29.16 39.02 50.92 4.32 19.37 4.97 40.3-5.02 58.07-4.36 6.63-10.62 13.04-18.45 15.07-5.71.31-9.71-.32-14.17-4C973 607.1 968 598.55 968 589q.45-2.17 1-4.31c.95-4.03 1.09-7.57 1-11.69l1-1c.09-12.6-2.39-23.55-11-33-6.87-6.71-14.53-9.65-24-10l-2.99-.12c-8.46-.18-14.8 1.25-22.21 5.32-1.8.8-1.8.8-4.8.8-2.79 1.64-5.43 3.46-8.11 5.27-2.92 1.75-5.67 2.68-8.89 3.73-2.05 1.29-2.05 1.29-3.75 2.62C882.2 549 882.2 549 880 549l-.69 2.88C878 555 878 555 875.75 556.12L873 557c-6.51 3.83-6.51 3.83-8 8l-3-1-.7 1.75c-1.64 2.83-3.58 4.32-6.18 6.31l-2.61 2.04q-2.3 1.75-4.63 3.48a89 89 0 0 0-5 4.11C840 584 840 584 838 584l-1.8 1.82c-2.35 2.33-4.52 3.61-7.45 5.12a113 113 0 0 0-10 5.81c-3.47 2.21-6.74 3.23-10.75 4.25q-2.7.98-5.38 2c-6.56 2.41-12.63 3.93-19.62 4.19-8.98.82-14.26 8-19.74 14.45-4.24 4.42-9.27 7.84-14.26 11.36 1 3 1 3 4 5v2l4 2v2l1.86.69c4.2 2.57 4.97 7.76 6.14 12.31.74 4.37 1.02 8.08-1.11 12.07a20.7 20.7 0 0 1-13.89 8.25c-5.49.62-10.91.84-16.44.8l-2.52-.01c-9.16-.09-16.58-.5-25.01-4.37L704 673l-2 1 1.46 1.54c6.75 7.36 8.59 14.57 9.54 24.46-.45 2.37-.45 2.37-1 4l-4-1 .18-2.75c.29-8.07.06-13.89-5.18-20.25-4.7-5.04-9.74-8.2-16-11v-8l2.09 1.17c14.68 8.14 27.59 12.38 44.6 12.21l3.47.03c6.89-.02 13.56-.31 19.84-3.41 3.78-4.2 3.56-8.58 3.41-14-.94-6.85-5.26-11.51-10.5-15.75-3.13-2.05-6.34-3.12-9.91-4.25v-2c1.8-1.41 1.8-1.41 4.31-3.06 9.87-6.73 21.64-14.81 28.6-24.64 2.67-2.94 4.19-3.05 8.09-3.42 29.63-3.63 53.73-18.81 75.76-38.07 3.5-3.06 7.12-5.95 10.77-8.83q2.64-2.12 5.19-4.34c19.98-17.3 41.55-28.69 68.46-26.98 10.13 1.23 18.59 7.48 24.82 15.34 6.15 8.16 8.5 16.36 8.12 26.5l-.1 5.38-.23 8.34c-.6 20.42-.6 20.42 5.21 27.78 3.33 3.18 5.88 4.24 10.38 4.5 4.21-.18 7.27-1.45 10.89-3.53C1002 609 1002 609 1005 608c1-1.73 1-1.73 2-4l1.4-2.45c9.4-17.13 10.07-38.83 5.19-57.56-6.15-20.67-19.08-37.28-37.88-47.84-22.81-11.91-49.95-15.12-74.73-7.53-22.97 7.56-41.61 21.2-60.36 36.05a261 261 0 0 1-20.71 14.75c-3.87 2.49-7.43 4.34-11.91 5.58.39-4.37.79-8.72 1.51-13.05 1.4-8.59 1.74-17.01 1.8-25.7l.06-3.44c-.01-12.59-3.06-25.41-11.41-35.2-6.86-6.54-13.85-9.76-23.34-10.05-6.48.2-12.42 1.62-18.62 3.44l2.25-17.97.39-3.17q.43-3.4.95-6.77c1.97-15.91 1.27-33.33-1.59-49.09l-.6-3.91c-4.46-26.27-14.76-52.78-27.55-76.02l-2.04-3.69-.97-1.76c-6.27-11.68-13.8-28.16-10.84-41.62 3.13-3.81 6.9-6.31 11-9 15.69-11.61 24.55-23.55 28-43 .4-4.74.44-9.46.43-14.22l.03-4.11q.04-5.54.05-11.08.01-5.88.06-11.75l.09-22.32.12-24.99.14-30.68.01-2.18.03-10.71.01-4.24V66.6q.03-6.97.11-13.95l.09-9.88.06-4.7c.31-18.63.31-18.63-4.95-25.23l-1.78-1.34-1.78-1.41C744.49 6.76 737.91 7.11 732 8c-4.21 2.07-7.5 4.91-11 8l-3.19 2.66a890 890 0 0 0-6.62 5.61c-3.76 3.23-7.6 6.36-11.44 9.48q-4.39 3.6-8.75 7.25-8.45 7.05-17 14l-2.14 2.09c-3.68 2.46-6.79 2.51-11.07 2.51l-2.47.04q-4.02.06-8.05.07l-5.62.04q-5.9.04-11.79.05-7.52.02-15.05.15-5.81.07-11.62.06-2.78.02-5.54.06c-16.22.3-16.22.3-22.68-5.48Q575.94 52.34 574 50a316 316 0 0 0-5.31-4.38q-6.15-4.99-12.19-10.12a900 900 0 0 0-14.73-12.23 352 352 0 0 1-5.91-4.95l-1.6-1.36-4.44-3.8c-5.81-4.45-11.34-6.6-18.66-6.51-5.17.84-9.03 4.16-12.54 7.85-3.34 5.14-3.9 9.48-3.82 15.52l.01 2.48q.01 4.16.05 8.32l.03 6.07.07 13.57q.07 12.09.06 24.18.02 20.54.11 41.07.06 11.9.07 23.8 0 10.6.06 21.19.03 5.55.03 11.09c-.04 20.63.06 40.04 15.25 55.86a123 123 0 0 0 16.17 12.78L529 252l2.73 1.77c3.07 3.01 3.06 4.72 3.15 8.98-.25 17.87-10.46 34.71-18.64 50.04-23.23 44.01-32.09 93.12-22.61 142.01.37 2.2.37 2.2.37 5.2-6-1-6-1-8.79-1.51-12.3-1.87-20.29-.15-30.46 6.7-11.38 11.64-13.75 27.44-14 43.12.68 41.03 16.81 76.42 45.25 105.69l1.59 1.67c4.22 4.35 8.72 8.05 13.6 11.64l2.11 1.59c3.15 2.34 6.14 4.42 9.7 6.1v2l-1.94.66c-7.55 2.77-13.38 5.97-17.5 13.09-2.5 5.6-2.19 11.29-.94 17.19 2.61 3.9 6.95 5.16 11.38 6.06 19.84 1.36 39.32-.04 56.71-10.65C563 662 563 662 565 662v8l-1.98.92c-7.86 3.77-13.85 7.32-18.05 15.26-1.96 5.71-1.88 11.82-1.97 17.82l-4-2c-.51-7.98 1.94-15.13 6-22 2.69-2.88 2.69-2.88 5-5l-2-2-1.77.84c-6.81 3.01-12.82 3.95-20.23 4.16l-3.83.16c-21.32.63-21.32.63-28.53-5A36 36 0 0 1 487 663c.59-10.36 5.5-17.15 13-24 3.29-1.8 3.29-1.8 6-3-1.25-2.5-2.96-3.32-5.25-4.8-5.09-3.49-9.4-7.85-13.75-12.2a443 443 0 0 0-6.23-5.25c-1.85-1.83-2.62-3.44-3.77-5.75-1.66-1.56-1.66-1.56-3.5-3a16.4 16.4 0 0 1-5.5-7l-1.62-2.12C465 594 465 594 465 592l-1.83-.73c-2.66-1.56-3.44-2.96-4.9-5.66l-1.43-2.65-1.46-2.77-1.49-2.74c-2.2-4.09-4.22-8.11-5.89-12.45l-1-2.54a84 84 0 0 1-4.51-16.07c-.49-2.39-.49-2.39-1.45-5.17-3.19-9.89-3.33-20.17-3.23-30.47v-3.64c.08-14.88 1.72-29.07 11.57-40.99L452 464l1.84-1.52A42.6 42.6 0 0 1 478 453c3.87.81 3.87.81 7 2q2.5.54 5 1l-.94-3.56c-2.1-7.99-2.53-16.24-3.18-24.44l-.31-3.48c-.45-5.75-.61-10.86.43-16.52q.03-2.4-.06-4.81c-.05-5.29.9-10.05 2.06-15.19q.8-3.84 1.56-7.69l.76-3.7q.69-3.63 1.19-7.31c.4-2.68.9-4.95 1.8-7.49l.81-2.3.88-2.51 1.94-5.88q2.42-7.24 5.06-14.4 1.01-2.74 1.96-5.5c3.1-8.85 7.27-16.9 11.85-25.06A174 174 0 0 0 525 286.5q1.2-2.97 2.56-5.88c1.43-3.6 1.98-6.79 2.44-10.62l1-1q.14-2.68.12-5.38l.01-2.96C531 258 531 258 530 255l-6-2c-2.88-2-2.88-2-5-4v-2l-1.81-.82a21 21 0 0 1-5.28-4.01l-1.69-1.67-1.72-1.75-1.72-1.7c-14.08-14.15-15.09-31.85-15.11-50.82l.07-10.82.02-7.66.08-18.01q.1-17.05.14-34.09.01-5.55.06-11.09c.05-11.58-.09-23.08-.8-34.63q-.42-7.09-.44-14.18l-.02-2.54-.02-5.18q-.02-3.93-.07-7.86c-.08-11.54-.09-21.73 8.36-30.48 5.1-4.43 10.63-6.48 17.36-6.92 8.78.78 15.65 7.29 21.59 13.23" fill="#E5E7E7"/><path d="M673 495c1.35 4.06.43 5.99-1 10a76 76 0 0 1-5.7 8.71c-5.76 7.64-12.95 12.67-21.5 16.91L640 533l.09 1.92a1287 1287 0 0 1 1.15 55.91q0 4.6.04 9.21c.37 51.65.37 51.65-4.28 60.96h-22c-2.2-16.06-3.73-31.8-4-48l-.03-1.98c-.42-26.4.58-52.67 2.03-79.02l-2.35-.43c-11.67-2.51-21.46-13.2-27.77-22.76l-1.19-1.76c-2.39-3.83-3.11-6.56-2.69-11.05l2.12 2.19a72 72 0 0 0 6.19 5.5L590 506v2l1.68.79a79 79 0 0 1 7.44 4.59c10.99 7.05 21.83 10.09 34.88 8.62 15.58-3.89 29.31-14.4 39-27" fill="#000"/><path d="M739 470h2c.78 28.22-3.82 54.68-11.06 81.88l-.71 2.68a91 91 0 0 1-5.29 14.34 86 86 0 0 0-3.38 9.41 148 148 0 0 1-5 13.5c-9.81 23.06-15.08 47.47-18.56 72.19-1.8.62-1.8.62-4 1-3.25-1.94-3.25-1.94-6-4 .88-22 7.71-44.35 16.03-64.59 1.64-4.06 3.04-8.21 4.47-12.35l1.84-5.29.87-2.51q1.43-4.05 2.91-8.07a582 582 0 0 0 11.42-35.26q1.3-4.44 2.71-8.82c3.11-9.93 5.34-20.01 7.5-30.17l.47-2.2 1.33-6.34.77-3.73A171 171 0 0 0 739 470" fill="#000201"/><path d="M512 472c2.01 3.02 2.44 4.54 3.04 8.03l.56 3.11.59 3.36c4.14 22.4 10.27 44.02 17.81 65.5l.82 2.36q1.83 5.24 3.7 10.47 1.56 4.38 3.09 8.78l.84 2.41 1.74 5q2.38 6.88 4.97 13.68a333 333 0 0 1 11.86 37.92c2.36 9.13 4.66 18.88 3.98 28.38-1.93 2.72-3.75 4.18-7 5l-3-1-.08-2.04c-1.1-19.39-5.55-37.68-11.92-55.96l-1.54-4.52a563 563 0 0 0-7.96-21.6l-.89-2.31a275 275 0 0 0-4.14-10.05c-13-30.02-17.07-64.09-16.47-96.52" fill="#000101"/><path d="m564.81 150.75 2.95.04c18.05.3 18.05.3 25.24 3.21l-1 2h-5l2 3c1.25 7.94-.39 14.47-5 21-4.63 5.04-9.12 8.53-16.05 9.37-7.39.15-12.39-.31-17.95-5.37-4.43-4.35-7.7-8.43-8.23-14.82l.04-2.87.02-2.88C542 161 542 161 543 159l-2-1c7.28-6.6 14.4-7.46 23.81-7.25" fill="#131513"/><path d="M818 541v3h-2l.19 3.19c-.06 16.32-8.55 30.93-16.19 44.81h-2l-.41 2.12A40 40 0 0 1 795 602c-5.49 2.97-11.87 2.2-18 2l2.92-5.11q1.36-2.4 2.7-4.83L784 592h2l.77-2.11a75 75 0 0 1 4.92-9.2 148 148 0 0 0 14.19-32.55c2.01-3.85 5.51-4.92 9.43-6.33z" fill="#010101"/><path d="M587 156c6.71 1.64 11.06 5.27 15 10.81 1.38 4.39 1.47 7.81 0 12.19-4.09 6.41-11 9.65-18 12-4.22.64-8.31.66-12.56.56l-3.21.04c-10.2-.1-18.11-2.75-25.53-9.81-3.39-3.57-5.44-6.26-6.26-11.17.72-4.66 2.61-7.96 5.56-11.62l2-1-1 3c-.7 7.13-.39 13.14 4 19 4 4.17 8.07 7.67 13.95 8.34 8.01.09 13.75-.38 19.76-5.92 5.88-6.37 7.64-12.41 7.49-20.97C588 159 588 159 587 156" fill="#F1CE5E"/><path d="M694 153a25.3 25.3 0 0 1 15.38 7.44c2.27 3.58 3.62 6.07 3.62 10.37-2.13 6.8-7.2 12.21-13 16.19-12.79 5.42-28.58 6.31-41.57 1.2-5.1-2.53-9.27-5.79-11.43-11.2-.39-3.38-.58-6.64 0-10 1.52-1.8 1.52-1.8 3-3l.23 1.87c1.22 7.89 4.51 14.92 10.77 20.13 7.47 3.09 14.5 3.93 22.16 1.24 6.08-2.7 9.37-6.66 12.65-12.43 1.97-6.33 2.33-12.8-.31-19z" fill="#E0C575"/><path d="M633.41 185.94c2.69 1.76 4.35 3.37 5.4 6.43-1.22 3.97-3.74 6.87-6.81 9.63h-2l.25 2.81c-.25 3.2-.25 3.2-1.94 5.06-2.73 1.33-4.3 1.6-7.31 1.13-1.81-1.13-1.81-1.13-3-3-.19-3.19-.19-3.19 0-6l-1.75-.69c-2.93-1.7-4.45-3.44-6.25-6.3 0-3.39.72-4.67 2.87-7.26 5.21-4.29 14.44-4.19 20.54-1.8" fill="#656766"/><path d="M756 12c3.66 2.8 4.71 5.53 5.62 9.97.87 6.92.63 13.94.57 20.91l-.02 5c-.06 9.97-.26 19.92-.95 29.87-.27 4.06-.22 8.11-.21 12.18q.06 20.64.09 41.3l.05 21.2.04 20.49.02 7.82.02 10.92.02 3.27-.01 3.02.01 2.6c-.28 2.77-1.11 4.92-2.25 7.45h-1l.01-2.84q.1-34.29.15-68.56.01-16.58.07-33.16.05-14.45.05-28.9l.04-15.3.02-14.42.02-5.27c.06-9.23-.16-17.76-3.36-26.55z" fill="#EBEDED"/><path d="M616 662h20l-.11 5.81-.08 7.63-.07 3.82c-.08 9.4.91 16.85 6.26 24.74-2.31-.06-2.31-.06-5-1a38 38 0 0 1-3-7l-1.12-3.44A73 73 0 0 1 631 681l1-1c.03-2.75-.07-5.49-.16-8.24.16-2.81.71-4.37 2.16-6.76l-6.44-.06-3.62-.04c-2.94.1-2.94.1-3.94 1.1q-.14 2.5-.12 5l-.01 2.75C620 676 620 676 621 677c.14 4.29.13 7.86-1 12l-.94 4.44c-1.62 7.14-1.62 7.14-3.06 9.56-2.57.62-2.57.62-5 1l.84-2.05 1.1-2.7 1.09-2.67c1.7-4.52 2.09-8.24 2.07-13.1l-.01-3.78-.03-3.95-.01-3.99z" fill="#F1F4F2"/><path d="M747 4c3.1 1.57 5.79 3.3 8 6v4l-1.43-1.06-1.88-1.38-1.87-1.37C744.57 6.76 737.98 7.1 732 8c-4.21 2.07-7.5 4.91-11 8l-3.19 2.66a890 890 0 0 0-6.62 5.61c-3.76 3.23-7.6 6.36-11.44 9.48q-4.39 3.6-8.75 7.25c-15.52 12.95-15.52 12.95-21 17l1-5 1.88-.25c2.12-.75 2.12-.75 3.04-2.6 1.21-2.4 2.47-3.62 4.52-5.34l1.81-1.54C684 42 684 42 687 41l1.38-1.88C690 37 690 37 692.25 35.69c3.12-1.92 5.32-4.17 7.86-6.79 4.84-4.87 9.98-9.38 15.89-12.9h2l.69-1.75C724.27 4.67 736.95 1.76 747 4" fill="#E2E3E6"/><path d="M700 158h4v2l1.88.31C708 161 708 161 710 164c.84 5.42 1.3 10.81-1.57 15.63A52 52 0 0 1 703 185l-5-1v2h-6v-2h2l.44-1.88C695 180 695 180 696 178h2v-4h2z" fill="#F3CB59"/><path d="M756 358c2.25 2.25 2.86 4.07 4 7l2 3q-.46 2-1 4l1.38 3.25c2.27 5.46 2.18 11.22 2.41 17.04.17 3.05.6 5.74 1.21 8.71q.06 2.31 0 4.62a18 18 0 0 0 1 7.38c.39 6.55.36 12.69-1.57 18.97-.55 2.6-.45 5-.37 7.65.11 4.56-.52 7.47-3.06 11.38h-1c-.12-4.75-.12-4.75 1-7q.14-2 .15-4.01l.01-2.51.01-2.74.01-2.83.01-5.98.03-8.98c.05-14.69-.97-28.67-4.34-43.01-1.28-5.45-2.1-10.33-1.88-15.94" fill="#E8EBE8"/><path d="M543 158q0 2.71-.14 5.42c-.26 6.46.19 11.31 4.14 16.58 4 4.17 8.07 7.67 13.95 8.34 6.86.08 12.51.02 18.05-4.34 2.19-2.2 4.1-4.54 6-7l2-2 1 3h-2v4h-2v2h-2v2l-2 1 8 1v-2l3 1c-5.26 5.26-12.26 4.37-19.19 4.38l-3.29.07c-10.39.04-18.25-2.45-25.82-9.66-3.39-3.57-5.44-6.26-6.26-11.17.75-4.87 3.04-9.1 6.56-12.62" fill="#D5BF7A"/><path d="M757 205c1.77 2.66 2.57 3.95 3 7-.49 1.96-.49 1.96-1.31 3.94l-.8 1.96-.89 2.1-.8 2.32c-1.59 3.56-3.73 6.53-6.01 9.68l-1.29 1.83c-6.51 9.05-6.51 9.05-10.9 11.11-2 1.06-2 1.06-4.5 4.06-3.05 3.66-5.43 4.55-9.75 6.38-2.75 2.62-2.75 2.62-3.06 5.41q.06 3.17.29 6.33c.02 2.98-.43 4.4-1.98 6.88-1.59-5.68-2.27-11.2-1-17 3.13-3.81 6.9-6.31 11-9 15.62-11.56 24.58-23.4 28-43" fill="#E9ECEE"/><path d="M488 409h1l.08 3.9c.4 14.13 2.16 27.8 4.57 41.72.35 2.38.35 2.38.35 5.38-6-1-6-1-8.79-1.51-9.15-1.39-17.04-1.52-25.12 3.32A19 19 0 0 1 454 464c6.46-7.26 14.31-10.35 24-11 3.88.81 3.88.81 7 2q2.5.54 5 1l-.94-3.56a64 64 0 0 1-1.94-19.12l.07-2.13.25-6.63.16-4.53q.18-5.5.4-11.03" fill="#E3E5E6"/><path d="M494 119h1l1 98c-4.88-4.88-4.1-14.96-4.16-21.62q.03-6.28.15-12.55l.07-5.45.16-11.34q.11-7.27.2-14.56l.16-11.21.07-5.38.11-7.46.03-2.25c.1-5.07.1-5.07 1.21-6.18" fill="#EEF0EF"/><path d="M937 526c8.94-.55 16.58 3.54 23.51 8.96 7.76 7.46 13.49 16.87 13.82 27.84q-.02 2.54-.08 5.08l-.03 2.71c-.15 9.15-.64 18.28-1.22 27.41h-1l-.18-3.69-.26-4.87-.12-2.43c-.19-3.71-.45-7.36-1.04-11.04L970 573l1-1c.09-12.6-2.39-23.55-11-33-5.48-5.36-12.33-9.01-20-10v-2z" fill="#DCDDDD"/><path d="m670 56-1 3h-83c2.84-2.84 5.62-2.31 9.43-2.32l2.32-.03 7.62-.06 5.28-.06 13.93-.13 14.17-.14 20.69-.2 2.2-.02q4.17-.03 8.36-.04" fill="#F0F2F4"/><path d="m491 665 2 3c3.14 3.83 6.23 5.14 11 6 4.15.33 8.28.38 12.44.38h3.49c9.29-.12 17.24-1.59 26.07-4.38q2.5-.55 5-1c-1 2.68-1.65 3.8-4.18 5.23A65 65 0 0 1 526 678l-3.82.16c-21.06.62-21.06.62-28.42-4.81-1.61-1.75-2.84-3.16-3.76-5.35z" fill="#DFE1DF"/><path d="M761 437h1c.88 6.15.88 6.15 1 8l-1 1q.14 2.54.44 5.06l.31 2.79.25 2.15 2.02-.45c9.58-1.77 19.54-3.28 27.98 2.45 8.1 5.65 8.1 5.65 11 10l-3 1c-1.69-1.29-1.69-1.29-3.56-3.19-7.24-6.58-14.4-8.44-24.1-8.15-5.31.54-10.21 1.86-15.34 3.34z" fill="#E1E4E3"/><path d="M496 211h1l.63 2.46c4.73 17.02 14.56 27.3 29.08 36.97L529 252l2.77 1.68c2.23 2.32 2.23 2.32 2.72 6.21q-.05 2.18-.18 4.36l-.07 2.26q-.08 2.75-.24 5.49c-1.76-3.08-2.31-5.54-2.56-9.06A30 30 0 0 0 530 255l-6-2c-2.88-2-2.88-2-5-4v-2l-1.81-.82a21 21 0 0 1-5.28-4.01l-1.69-1.67-1.72-1.75-1.72-1.7c-5.26-5.28-9.43-10.89-11.78-18.05.05-2.79.47-5.24 1-8" fill="#E0E1E2"/><path d="m949 483 1 2-2.59-.05c-18.85-.3-36.01-.41-53.96 6.28-2.45.77-2.45.77-6.45.77l1-3 2.15-.38a65 65 0 0 0 8.41-2.56c6.09-2.07 12.08-3.17 18.44-4.06l3.38-.62c9.38-.98 19.52-1.24 28.62 1.62" fill="#EBECED"/><path d="m749 629 3 1-3 3c1 3 1 3 4 5v2l4 2v2l1.85.66c2.9 1.81 3.39 3.53 4.53 6.72l1.08 2.89c.61 3.1.26 4.15-1.46 6.73a108 108 0 0 1-3.01-6.33c-3.58-7.95-8.21-13.44-16.49-16.61L740 637v-2c1.86-1.54 1.86-1.54 4.31-3.19l2.43-1.67z" fill="#EFF2F0"/><path d="M649 164h1l.23 1.87c1.22 7.89 4.51 14.93 10.77 20.13a43 43 0 0 0 18.05 3.04c2.42-.05 4.62.36 6.95.96v1c-23.94.96-23.94.96-33.56-6.44-4.85-5.1-5.77-8.32-5.74-15.26.3-2.3.3-2.3 2.3-5.3" fill="#C4B67E"/><path d="m564.81 150.75 2.95.04c18.05.3 18.05.3 25.24 3.21l-1 2c-6.63-.91-6.63-.91-9.3-1.56-12.24-1.99-26.6.01-37.7 5.56l-1-2h-3c7.28-6.6 14.4-7.46 23.81-7.25" fill="#060804"/><path d="M971 580h1l.01 3.55c.2 11.3 1.44 19.63 9.55 28.14 5.39 2.05 10.74 1.61 16.44 1.31l-1 4c-11.03 1.06-11.03 1.06-15.5-1.35-7.13-6.15-10.95-13.68-13.5-22.65 0-3.58.34-5.47 1.5-8.75l.84-2.42z" fill="#E9E9EC"/><path d="M802 468h3c2.32 3.94 4.45 7.69 6 12l1 2.56c1.47 5.07 2.21 10.23 3 15.44l.62 3.75c1.17 10.09 1.17 10.09-1.14 13.49L813 517l-.14-2.03a1447 1447 0 0 0-.89-12.47c-.74-9.68-2.52-18.46-7.16-27.06-2.81-5.26-2.81-5.26-2.81-7.44" fill="#E7EAE8"/><path d="M965 487h3q2.52 1.97 5 4l5.02 2.79c3.9 2.39 7.42 5.34 10.98 8.21l-2 2-1.26-1.07C974 493.52 959.04 487.18 944 486v-1c7.75-2.97 13.53-1.08 21 2" fill="#DFDFE0"/><path d="m692 151-1 3-3.73-.11c-9.56-.18-18.1.08-27.27 3.11l-3.69 1.06C654 159 654 159 653 161h-3c1.04-2.93 1.78-3.88 4.54-5.41 11.61-4.56 24.97-8.61 37.46-4.59" fill="#040704"/><path d="M764 405h1c2.78 8.85 3.17 18.06.43 26.97-.55 2.6-.45 5-.37 7.65.11 4.56-.52 7.47-3.06 11.38h-1c-.12-4.75-.12-4.75 1-7a246 246 0 0 0-.04-9.41c-.06-5.19-.06-5.19.52-7.52.58-2.31.73-4.45.84-6.84l.12-2.69.12-2.79.13-2.84z" fill="#F2F4F4"/><path d="m586 175 2 3h-2v4h-2v2h-2v2l-2 1 8 1v-2l3 1c-2.95 2.95-5.72 3.9-9.86 4.23l-3.1-.03-3.37-.02-3.48-.06-3.55-.02-8.64-.1c2.67-2.67 4.4-2.39 8.12-2.75 7.19-1.02 11.73-3.28 16.25-8.98 1.13-1.65 1.13-1.65 2.63-4.27" fill="#DDC168"/><path d="M588 176h6l-1 3 4 1v2h-3v2h-2v2h-4v2h-10l4-2v-2h2v-2h2v-4h2z" fill="#F0CC52"/><path d="M1016 576c3.3 5.22 1.88 11.17 1 17-1.25 3.31-1.25 3.31-3 6l-.96 1.85c-3.4 6.23-8.37 10.01-14.04 14.15l-2-3c5.75-4 5.75-4 8-4l.82-1.67q1.23-2.43 2.58-4.78c4.57-8.33 6.26-16.27 7.6-25.55" fill="#DEE1E2"/><path d="M495 21h2l-1 55h-1a125 125 0 0 1-1.13-18.81l-.01-3.05.01-6.34q.01-4.87-.01-9.75l.01-6.17-.01-2.96.01-2.71v-2.4C494 22 494 22 495 21" fill="#272729"/><path d="M757 205c1.77 2.66 2.57 3.95 3 7-.49 1.96-.49 1.96-1.31 3.94l-.8 1.96-.89 2.1-.81 2.3c-1.59 3.6-3.69 6.68-5.94 9.89l-1.27 1.9c-2.85 4.06-4.93 5.83-9.98 6.91l2.62-2.94c8.52-10.02 12.85-20.19 15.38-33.06" fill="#DBDEDE"/><path d="M696 160h2c.7 8.17-.24 14.2-5 21-3.28 3.61-6.15 6.06-11 7v-4h6v-6l3-1c2.78-4.27 3.43-8.09 3.79-13.05C695 162 695 162 696 160" fill="#2B2314"/><path d="M812 502h1l.18 3.11.26 4.08.12 2.04a58 58 0 0 0 1 8.42c.51 2.73.35 5.03.06 7.79l-.3 2.89q-.52 4.36-1.32 8.67h-3v3l2 2-4 1q.77-8.52 2-17c1.19-8.64 1.62-17.29 2-26" fill="#D8DCDB"/><path d="M758 146h1l.08 3.79.42 19.96.18 8.67.05 2.72.06 2.55.05 2.23c.16 2.13.62 4.02 1.16 6.08q.17 2.71.19 5.44l.04 2.81c-.24 2.93-1.01 5.09-2.23 7.75h-1z" fill="#F4F7F5"/><path d="M970 553c3.91 3.74 3.91 3.74 4.13 6.85v2.27l.01 2.56-.02 2.76v2.81c-.06 9.27-.53 18.5-1.12 27.75h-1l-.18-3.69-.26-4.87-.12-2.43c-.19-3.71-.45-7.36-1.04-11.04L970 573l1-1q.01-2.13-.12-4.25l-.15-2.59-.17-2.72-.16-2.73z" fill="#BCBEC0"/><path d="M836 524h2c-2.3 5.85-8 8.59-13 12l-3 2.07c-8 5.36-8 5.36-13 4.93.27-1.9.27-1.9 1-4 1.64-.94 1.64-.94 3.69-1.56l2.2-.74 2.11-.7a60 60 0 0 0 18-12" fill="#E5E5E6"/><path d="M488 388h2c.14 8.91-.41 17.74-1 26.62l-.29 4.49L488 430c-3.66-6.93-3.24-14.42-2-22q0-2.4-.06-4.81c-.08-5.25.85-10.1 2.06-15.19" fill="#E9ECED"/><path d="m646 160 6 1v11h2v4l2 1-1 3c-3.69-4.8-5-9.06-6-15-1.22 2.45-1.17 4.14-1.19 6.88l-.04 2.61c.24 2.63.9 4.25 2.23 6.51l-4-1-.56-8.88-.17-2.55-.15-2.44-.14-2.25C645 162 645 162 646 160" fill="#302813"/><path d="m491 665 2 3c3.14 3.83 6.25 5.1 11 6 3.81.36 7.61.51 11.44.62l3.08.12 7.48.26c-5.16 4.13-9.57 3.52-16 3-13.46-1.58-13.46-1.58-17.94-6.5-1.34-1.78-1.34-1.78-2.06-3.5z" fill="#D7DAD9"/><path d="M565 662v8l-9 4-2-2v-3l-2-1 5.38-3 3.02-1.69C563 662 563 662 565 662" fill="#E8E9E9"/><path d="M634 677h1l.11 2.53c.53 9.09 1.7 16.81 6.89 24.47-2.31-.06-2.31-.06-5-1a38 38 0 0 1-3-7l-1.12-3.44A83 83 0 0 1 631 681l2-1z" fill="#DCDFDF"/><path d="M761 437h1c.88 6.15.88 6.15 1 8l-1 1q.14 2.54.44 5.06l.31 2.79.25 2.15 2.31-.56C768 455 768 455 771 456l-1 2c-3.95 1.23-7.97 2.07-12 3z" fill="#D3D5D4"/><path d="M488 409h1l.06 1.73A422 422 0 0 0 492 449c-3.71-2.47-3.97-3.73-5-8-.14-3.62-.14-3.62.02-7.59l.08-2.12.28-6.67.17-4.54q.21-5.54.45-11.08" fill="#CACDCE"/><path d="M617 676h1c2.84 16.86 2.84 16.86-1 24l-1.19 2.5-.81 1.5-4-1 1.38-2c4.21-7.77 4.16-16.34 4.62-25" fill="#DDE0E0"/><path d="M762 400h1v29c-3-3-3-3-3.37-5.3l.01-2.66v-2.93l.05-3.05-.01-3.03c.06-8.15.06-8.15 2.32-12.03" fill="#242625"/><path d="M759 32h1l.43 20.72.14 7.04.21 10.13.07 3.19.06 2.97.05 2.61c.07 4.34.05 6.32-1.96 10.34z" fill="#F4F6F5"/><path d="M491 407h1l-.02 2.2-.04 9.92-.03 3.47-.01 3.36-.01 3.07c.11 3.07.54 5.97 1.11 8.98h-3c-1.2-6.45-2.98-16.04 0-22q.33-2.31.56-4.62l.26-2.48z" fill="#1C1E1F"/><path d="m578 182 3 1-3.31 2.44-1.87 1.37c-3.77 2.47-7.12 2.3-11.51 2.25l-3.57-.02L558 189v-3l-3-1c3.01-.93 3.87-1.04 7 0q3.09.33 6.19.56l3.29.26 2.52.18v-2h4z" fill="#211A0B"/><path d="m690 42-1.87 1.47A329 329 0 0 0 671 58c-.62-1.88-.62-1.88-1-4l2-2h3l.79-1.8c1.3-2.36 2.59-3.67 4.65-5.39l1.81-1.54c2.96-2.14 4.26-2.43 7.75-1.27" fill="#DFE0E4"/><path d="M441 500h1l.08 1.69.36 7.75.12 2.66c.24 5.03.64 9.94 1.44 14.91 0 2.46-.77 3.89-2 5.99-1.46-10.67-2.65-21.22-2-32z" fill="#272A29"/><path d="m808 598-1 3a64 64 0 0 1-7 3l-2.36.86C791.48 607 791.48 607 788 607v-4l2.41-.59c5.53-1.35 11.97-4.41 17.59-4.41" fill="#DEE0E0"/><path d="M441 527h1q1.04 4.62 2.06 9.25l.61 2.64.55 2.56.53 2.35c.27 2.35-.03 3.96-.75 6.2-3.31-3.61-4.05-7.35-5-12l-.75-3.19c-.28-3.19.33-4.97 1.75-7.81" fill="#DCDEDE"/><path d="m920 526 8.31-.12 2.38-.06 2.3-.02 2.11-.03c1.9.23 1.9.23 4.9 2.23-3.36 1.03-6.32 1.04-9.81.94-4.86-.06-8.64.41-13.19 2.06v-3h3z" fill="#E7E5E6"/><path d="M812 492c3 3 3 3 3.12 6.5L815 502l1 3c.47 7.38.47 7.38-3 12z" fill="#EEF1ED"/><path d="M649 164h1l.4 2.05.54 2.7.52 2.67c.54 2.58.54 2.58 1.17 4.78.37 1.8.37 1.8-.63 3.8-1.94-.38-1.94-.38-4-1-1.23-2.46-1.17-4.19-1.19-6.94l-.04-2.65C647 167 647 167 649 164" fill="#D1BB6B"/><path d="M589 159c.7 8.14-.35 14.15-5 21l-2 1c.49-3.12 1-6 2-9h2v-12c2-1 2-1 3-1" fill="#281F0B"/><path d="M542 686h2l-1 18-4-2c-.38-5.93.89-10.47 3-16" fill="#DDDFDE"/><path d="m776.56 456.81 3.44-.04c3 .23 3 .23 6 2.23v2l-8.88.2-2.55.06-2.44.03-2.25.05L768 461l-2-3c3.54-1.09 6.87-1.17 10.56-1.19" fill="#1E2021"/><path d="M764 428c2 2 2 2 2.01 4.1l-.32 2.52-.34 2.7L765 440l-.19 2.33c-.46 5.22-.46 5.22-2.37 7.67l-1.44 1c-.12-4.75-.12-4.75 1-7q.1-3.81.06-7.62l-.01-2.15L762 429z" fill="#E7E9E8"/><path d="M587 156q3.03.9 6 2l1 2h-4l.99 1.67c1.18 2.72 1.21 4.64 1.13 7.58l-.05 2.7L592 174l-5 1 .49-2.15c.52-2.89.64-5.54.63-8.47l.01-2.86C588 159 588 159 587 156" fill="#E6CA69"/><path d="M712 172h2l1 5-4 1v2h-2l-.94 1.88c-2.27 4.54-4.25 5.2-9.06 7.12l-2-2 3.12-1.56c5.52-3.15 9.21-7.73 11.88-13.44" fill="#231609"/><path d="m749 675-1 2c-4.76 1.52-9.87 1.11-14.81 1.06l-2.68-.01L724 678v-2l8-.5 2.25-.14q7.38-.43 14.75-.36" fill="#EBEEEE"/><path d="M971 580h1l1 22c-2.55-1.27-2.66-2.18-3.62-4.81l-.79-2.08c-1.12-4.01-.43-7.07.91-10.86l.84-2.42z" fill="#EFF0F4"/><path d="M758 644c3.48 2.32 3.9 3.54 5.31 7.38l1.12 2.89c.57 2.73.57 2.73-.32 5.08L763 661a446 446 0 0 1-4.19-8.5l-1.1-2.28c-.81-2.53-.59-3.76.29-6.22" fill="#F1F2F1"/><path d="M1017 556h2q.3 4.88.56 9.75l.17 2.79.15 2.69.14 2.48A21 21 0 0 1 1019 580h-2z" fill="#EBEDEE"/><path d="M752.4 7.45c1.77 1.7 2.64 3.3 3.6 5.55-3 0-3 0-4.93-1.87-4.61-3.2-9.58-3.46-15.07-4.13V6c6.62-2.12 10.58-2.6 16.4 1.45" fill="#D3D6D3"/><path d="M759 379h1c1.39 6.06 2.56 11.77 2 18l-3 2q-.58-3.59-1.12-7.19l-.34-2.04c-.62-4.21-.53-6.98 1.46-10.77" fill="#2B2D2B"/><path d="M586 178h2c.81 3.94 1 6 0 10h-10l4-2v-2h2v-2h2z" fill="#ECC34C"/><path d="M595 160c4.08 2.87 6.38 5.24 8 10 .04 3.08-.17 6.03-1 9l-2 1v-12h-2v-4h-2z" fill="#D7C781"/><path d="M543 158c0 2.94-.22 5.77-.5 8.69l-.28 3.01-.22 2.3h-5c.46-5.73 1.85-9.85 6-14" fill="#C7B785"/><path d="M709 688h2q.54 2.87 1.06 5.75l.6 3.23c.31 2.77.24 4.43-.66 7.02l-4-1z" fill="#D9DCDD"/><path d="m574 187 1 2c2.07.41 2.07.41 4.56.62l2.51.23 1.93.15v1h-25c2.72-2.72 4.85-2.61 8.62-3.12l3.61-.51z" fill="#C0AD7A"/><path d="M648 181c3.78 1.81 7.37 3.91 11 6v1l-1.93.15-2.51.23-2.49.21-2.07.41-1 2c-1-3.11-.83-4.89 0-8z" fill="#1B150C"/><path d="M487 407h1v23c-3.43-6.86-3.62-14.55-2-22z" fill="#F0F2F3"/><path d="m507 324 2 1c-.66 4.06-1.95 7.54-3.56 11.31l-1.38 3.24L503 342l-3-1 1.25-2.88c2.01-4.67 3.88-9.39 5.75-14.12" fill="#EAECED"/><path d="m593 186 1 2h-2v2c-3.45 2.3-4.71 2.24-8.76 2.2l-3.39-.02-3.54-.06-3.57-.02-8.74-.1v-1l1.69-.03q3.88-.09 7.75-.22l2.66-.04c6.4-.24 11.25-1.71 16.9-4.71" fill="#45300B"/><path d="m468 457 6.62-.06 3.73-.04c3.33.09 6.39.46 9.65 1.1l-2 1v2l-1.72-.47c-5.2-1.31-9.03-1.65-14.28-.53z" fill="#212324"/><path d="M720 270c3 2 3 2 3.56 4.19L724 277l1.06 3.69C726 284 726 284 726 286l-3-1c-2.46-5.28-3.36-9.22-3-15" fill="#EDF1EC"/><path d="m763 395 2 1c1.03 3.47.87 5.57 0 9a109 109 0 0 0-.32 4.77l-.12 2.69-.12 2.79-.13 2.84L764 425h-1z" fill="#E3E5E5"/><path d="m721 254 1 2-1 2c-.03 3.02.07 6.03.16 9.05A12.7 12.7 0 0 1 719 274c-1.08-3.53-1.2-6.88-1.25-10.56l-.08-3.44c.33-3 .33-3 1.85-4.9z" fill="#DDE0DF"/><path d="M536 169h1l.45 1.72c1.73 5.97 4.18 9.88 8.55 14.28l-2 1v-2l-3-1c-3-1-3-1-4.18-2.77-.91-2.49-1.02-4.34-.94-6.98l.05-2.42z" fill="#2C200C"/><path d="m547 181 1.79 1.24 2.4 1.64 2.35 1.61A40 40 0 0 0 561 189v1c-5.97.77-10.22-1.68-15-5l-1-2h2z" fill="#D1C685"/><path d="M692 177c.38 2.19.38 2.19 0 5-3.02 3.02-5.64 5.5-10 6v-4h6v-6c3-1 3-1 4-1" fill="#24180A"/><path d="M860 563c0 3.58-1.12 4.86-3.43 7.5-2.62 2.5-5.3 3.96-8.57 5.5l-2-1z" fill="#DBDCDF"/><path d="m869 499 2 1c-1.27 3.82-2.63 4.23-6.06 6.19l-2.79 1.6L860 509v-4c1.97-1.7 1.97-1.7 4.5-3.25l2.53-1.58z" fill="#E5E7E9"/><path d="m718.4 673.98 3.17.14 6.99.32 3.6.16 8.84.4v1q-5.94.34-11.87.63l-3.42.19-3.26.16-3.02.16C717 677 717 677 715 675c1-1 1-1 3.4-1.02" fill="#C3C6C5"/><path d="M820 589h4v2q-2.33 1.3-4.69 2.56l-2.63 1.44c-3.06 1.14-4.6.93-7.68 0 2.39-2.89 4.29-3.62 8-4l2 1z" fill="#181A1B"/><path d="M756 358c2.25 2.25 2.86 4.07 4 7l2 3-3 5c-2.76-5.16-3.11-9.13-3-15" fill="#F0F3EE"/><path d="m725 251-6 6a87 87 0 0 0-.56 4.56l-.26 2.51L718 266h-1q-.33-2.66-.62-5.31l-.36-2.99C716 255 716 255 718 252c2.99-1.93 3.49-2.17 7-1" fill="#2A2C2D"/><path d="m958 485 2 4-16-3v-1c5.38-1.97 8.51-2.37 14 0" fill="#D0D0D2"/><path d="m679 185 2 4c-9.41 1.33-9.41 1.33-14 0 2.85-1.9 4.42-2.46 7.69-3.12l2.45-.51z" fill="#252316"/><path d="M565 665v5l-6 2-1-2h-3v-2c7.2-3 7.2-3 10-3" fill="#F2F2F4"/><path d="M634 677h1v15l-3-1-1-10 2-1z" fill="#E3E5E6"/><path d="M791 604c-4.75 3.17-7.22 4.13-13 4l-2 1 1-4c4.72-.77 9.22-1.1 14-1" fill="#EEF1EF"/><path d="m586 175 2 3h-2v4h-2v2h-2v2l-6 1 2.25-2.19c2.96-3.02 5.85-6 7.75-9.81" fill="#C9AF5D"/><path d="M718 270a30 30 0 0 1 3.12 8.75l.51 2.42.37 1.83h-2v-3l-3-1-1-7h2z" fill="#222523"/><path d="M744 4c-3.28 2.19-5.33 2.54-9.19 3.12l-3.29.51L729 8l1-3c5-2.44 8.71-1.91 14-1" fill="#EDEEEF"/><path d="M449 471h2c.19 3.38.19 3.38 0 7-3 2-3 2-6 2 1.06-3.4 2.01-6.01 4-9" fill="#1D1F1F"/><path d="M491 377h2l-2 16h-1c-.85-5.83-1.48-10.45 1-16" fill="#D4D7D8"/><path d="m544 176 8 4v2h2l-2 4-3.44-3.31-1.93-1.87C545 179 545 179 544 176" fill="#29230F"/><path d="m534 675-1 2c-6.07 1.45-11.85.72-18 0v-1c6.36-.65 12.6-1.12 19-1" fill="#ECEFEF"/><path d="m703 670 5.38 1.38 3.02.77c2.6.85 2.6.85 4.6 2.85l-2 2-11-5z" fill="#E1E5E2"/><path d="m774 601 3 1v2h7v1l-1.83.08c-6.61.47-6.61.47-9.73 2.98L771 610c0-4 0-4 1-6h2z" fill="#242725"/><path d="M492 389c1.02 3.05 1.01 3.99.44 7.01l-.42 2.3-.46 2.38-.44 2.41L490 409h-1c-.37-7.31.18-13.21 3-20" fill="#282B2D"/><path d="m758 662 3 1c-.49 5.54-.49 5.54-3.06 7.88L756 672l-2-2 1.44-1.75A14 14 0 0 0 758 662" fill="#212521"/><path d="m451 464 4 1-7 8-3-1z" fill="#EAECED"/><path d="m785 455-1 2h-14l1-2c2.4-.45 2.4-.45 5.38-.69l2.96-.26C782 454 782 454 785 455" fill="#EEF0F0"/><path d="M509 6c5.53-.19 9.76.25 15 2v1q-3.18.12-6.38.19l-3.58.1L511 9z" fill="#1F211F"/><path d="m595 158 7 2c.62 2.88.62 2.88 1 6l-2 2c-2.22-3.25-4.35-6.42-6-10" fill="#211B09"/><path d="m534 13 1.81 1.38q2.55 1.87 5.19 3.62v2l2 1-2 2-9-8z" fill="#DEE0DF"/><path d="M756 12c2.08 1.88 3.74 3.44 4.94 6 .06 2 .06 2-2.94 6l-3-11z" fill="#E6E7E8"/><path d="M749 640c2.81-.25 2.81-.25 6 0 1.94 1.81 1.94 1.81 3 4l-1 3-4-2.94-2.25-1.65L749 641z" fill="#DFE0E0"/><path d="M464 589c4.01 3.68 6.45 7.19 9 12-3.81-1.5-5.72-3.63-8-7-.75-2.81-.75-2.81-1-5" fill="#DEE1DE"/><path d="M457 572c2.79 2.41 3.9 4.76 5.19 8.19l1.04 2.73.77 2.08-2 1c-3.06-4.84-4.53-8.29-5-14" fill="#1F211F"/><path d="M496 211h1q.8 2.37 1.56 4.75l.88 2.67A10 10 0 0 1 499 225c-2.06-1.94-2.06-1.94-4-5-.06-3.08.4-5.98 1-9" fill="#D4D6D7"/><path d="M649 164h1q.12 2.68.19 5.38l.1 3.02-.29 2.6-3 2q-.08-2.4-.12-4.81l-.08-2.71c.2-2.48.2-2.48 2.2-5.48" fill="#D5C680"/><path d="m561 36 1 2q2.48 1.05 5 2l3 2-1 2c-4.38-.51-6.82-3.18-10-6z" fill="#DDE0DC"/><path d="m617 695 2 1-4 8-4-1q1.91-3.06 4-6h2z" fill="#E7EAE9"/><path d="M732 249c-1 3-1 3-2.81 4l-2.19 1q-2.03 1.46-4 3l-2-1c2.97-4.18 5.61-7 11-7" fill="#EAEDEC"/><path d="m704 156 5 1 1 3h2v4l2 1-2 3-.73-1.61c-1.96-4.13-3.74-7.36-7.27-10.39" fill="#27190A"/><path d="M506 632c4.75 1.88 4.75 1.88 7 3v2l-7 2z" fill="#DEE0E0"/><path d="m896 491-1 4-7-1-1 2-2-2c3.86-2.15 6.55-3.39 11-3" fill="#191B1B"/><path d="M440 486c2.43 3.64 2.08 4.93 1.62 9.19l-.33 3.29L441 501a14.6 14.6 0 0 1-2.19-8.62l.02-2.36C439 488 439 488 440 486" fill="#DADCDD"/><path d="m696 174 2 4h-2l-2 6-5 1 1.28-1.9 1.66-2.48 1.65-2.46C695 176 695 176 696 174" fill="#D5BD68"/><path d="m707 176 3 1-7 8-1-3h2v-5l3 1z" fill="#DFC56A"/><path d="m998 613-1 4-9-1 1-2c3.14-.85 5.71-1 9-1" fill="#EBECEE"/><path d="m1006 605 1 2c-5.14 6.57-5.14 6.57-9 8l-1-3c5.75-4 5.75-4 8-4z" fill="#D3D4D7"/><path d="M507 233c4.88 1.35 6.49 3.72 9 8-3 0-3 0-4.61-1.24l-1.58-1.64-1.6-1.61C507 235 507 235 507 233" fill="#242527"/><path d="M587 156q3.03.9 6 2l1 2h-4v9h-1l-.18-2.08-.26-2.73-.24-2.71C588 159 588 159 587 156" fill="#D1BD8B"/><path d="M879 549c0 3.11-.54 4.35-2 7l-4-2c2.62-3.88 2.62-3.88 6-5" fill="#EDEDF1"/><path d="m493 374 3 3c-.19 1.81-.19 1.81-1 4l-1.06 3.25L493 387h-1z" fill="#252728"/><path d="M749 346h2l2 9-2 1c-2.44-5.85-2.44-5.85-3-9z" fill="#1E201F"/><path d="M542 176c3 1 3 1 5 4v3c-3.88-.88-3.88-.88-5-2q-.06-2.5 0-5" fill="#E6CC80"/><path d="m755 672 1 2c-1.19 1.5-1.19 1.5-3 3-2.69.19-2.69.19-5 0l-1-3z" fill="#D5D8D5"/><path d="M490 446c2.43 3.64 2.16 5.71 2 10h-2q-.58-1.93-1.12-3.88l-.64-2.17L488 448z" fill="#ECEEED"/><path d="m555.13 188.94 2.2.59 1.67.47-1 2h-6v-2h-2l-1 2v-3c2.54-1.27 3.42-.8 6.13-.06" fill="#221D0C"/><path d="M602 181v5h-6v2h-2c1.28-3.38 3.97-7 8-7" fill="#1F150D"/><path d="M662 178v4h-3l-1 2-2-4c3-2 3-2 6-2" fill="#1B1C0B"/><path d="M746 631c0 2.62-.31 4.51-1 7l-5-1v-2q2.94-2.09 6-4" fill="#D8DBD9"/><path d="M970 553c3 3 3 3 3.07 5.26l-.38 2.43-.37 2.45L972 565h-1z" fill="#EAEBEC"/><path d="M505 335c2.05 3.72 2.05 3.72 1.62 6.25L506 343h-2l-1 4c-1.16-3.48-.77-4.34.44-7.69l.87-2.45z" fill="#292B2B"/><path d="M695 172h2c-1.09 3.78-1.91 6.47-5 9v-6l3-1z" fill="#30200A"/><path d="M694 153c3.37.55 5.08 1.05 8 3h-4l1 4h-2z" fill="#D4BD7F"/><path d="M721 14c-1.12 3.35-1.75 3.79-4.56 5.69l-1.94 1.32-1.5.99v-4c5.11-4 5.11-4 8-4" fill="#D5D8DB"/><path d="m727 10 3 2c-1.75 2.06-1.75 2.06-4 4-2.25-.25-2.25-.25-4-1z" fill="#1C1D20"/><path d="m759 652 2 2c-.33 3.3-.62 4.62-3 7l-1-8z" fill="#272828"/><path d="M973 599a77 77 0 0 1 5 9c-1.88-.19-1.88-.19-4-1-1.31-2.38-1.31-2.38-2-5z" fill="#CACACE"/><path d="m841 575 2 3c-5.62 4-5.62 4-9 4l2-4h5z" fill="#18191A"/><path d="M856 566v2c-1.53 1.29-1.53 1.29-3.5 2.62L849 573l-2-2 3.38-2.5 1.89-1.41C854 566 854 566 856 566" fill="#17181A"/><path d="M968 545c2.5 2.94 3.47 5.18 4 9h-3c-2.12-6.75-2.12-6.75-1-9" fill="#CBCCCC"/><path d="M1004 524h2l2 6-2 2c-2-2-2-2-2.12-5.12z" fill="#191C1E"/><path d="M726 285c2.09 3.4 2.18 6.05 2 10-2.69-2.69-3.06-5.38-4-9z" fill="#E1E4E2"/><path d="m660 188 11 3v1h-9v-2h-2z" fill="#1E1C06"/><path d="m698 672 5 3-1 4-6-5z" fill="#DEE2DC"/><path d="M879 496v2l-8 4c1-4 1-4 2.88-5.25C876 496 876 496 879 496" fill="#D7DADB"/><path d="m705 182 1 4-7 3-2-2 5.37-3.03C704 183 704 183 705 182" fill="#2E200A"/><path d="m663 182 3 6-6-2v-3z" fill="#2C2A14"/><path d="M519 3c2.5 1.31 2.5 1.31 5 3v3l-7-2z" fill="#D9DDD8"/><path d="m760 668 1 4-4 3-2-1z" fill="#ECEFEC"/><path d="m865 561 2 2-3 2-2-1-2 4-2-1c3.62-4.88 3.62-4.88 7-6" fill="#ECEDF1"/><path d="m911 483 8 1c-3.13 1.86-5.37 2.2-9 2z" fill="#D6D8D8"/><path d="M492 452h1l1 8h-4l-1-3 2-1c.62-2.06.62-2.06 1-4" fill="#C8CACB"/><path d="M493 368h1l-1 9-3-1z" fill="#EDEFEF"/><path d="M551 186c3.56.61 6.68 1.58 10 3v1c-3.95.18-6.6.09-10-2z" fill="#D3D09A"/><path d="m698 184 3 1c-1 2-1 2-3 2.89l-2.44.8-2.43.82C691 190 691 190 689 189l9-3z" fill="#DBC07D"/><path d="m703 676 5 5-1 2h-2c-2-3-2-3-2-7" fill="#EAEEEA"/><path d="M741 675h8l-1 2c-2.65.59-5.29.74-8 1z" fill="#E6EAE4"/><path d="M808 598c-1 3-1 3-3.06 4.19L803 603l-3-3c5.75-2 5.75-2 8-2" fill="#D8D8D9"/><path d="M1014 587h1v5l2 1-2 3h-3z" fill="#CED3D4"/><path d="M885 543c0 3 0 3-1.19 4.62-2.22 1.69-4.07 2.01-6.81 2.38 2.58-2.65 4.92-4.94 8-7" fill="#D9DADB"/><path d="M963 539c2.5 2.31 2.5 2.31 5 5v3h-2c-2.04-2.91-3-4.4-3-8" fill="#DCDEE0"/><path d="M966 487c3.65 1.25 4.78 1.67 7 5l-3 1c-2.25-2.05-3-3.01-4-6" fill="#E9EAEA"/><path d="M764 442c1 3 1 3-.44 6.19L762 451h-1c-.26-3.15-.25-4.62 1.5-7.31z" fill="#F1F4F3"/><path d="M494 362h2l-1 9c-1.62-1.69-1.62-1.69-3-4 .81-2.75.81-2.75 2-5" fill="#E5E7EA"/><path d="M516 307c.62 1.81.62 1.81 1 4l-2 3-3-1z" fill="#ECEFF0"/><path d="m732 301 5 5-1 2-3-1c-1.19-2.56-1.19-2.56-2-5z" fill="#DFE4E3"/><path d="M651 172h3v4l2 1-1 3c-4-5.75-4-5.75-4-8" fill="#2A2409"/><path d="m692 152 2 2c-.38 2.12-.38 2.12-1 4l-5-3z" fill="#121206"/><path d="M690 42c-2.31 2.06-2.31 2.06-5 4l-3-1c2.55-3.82 3.61-4.46 8-3" fill="#D7D9DC"/><path d="M493 661h1l2 9h-3c-1.16-3.48-.71-5.46 0-9" fill="#292B2D"/><path d="m813 538 3 2h-3v3l-4-1 1-3z" fill="#F5F6F5"/><path d="m924 527-1 3-6 1v-3c3-1 3-1 7-1" fill="#F3F3F6"/><path d="M440 523h1v8c-1.56-1.25-1.56-1.25-3-3 .25-2.14.46-3.46 2-5" fill="#EEF1EF"/><path d="M487 455c1.81 1.44 1.81 1.44 3 3-2.86 1.43-4.93.6-8 0v-2c2.31-.69 2.31-.69 5-1" fill="#DCDFE0"/><path d="M749 334c1.8 2.76 2.01 3.89 1.62 7.25L750 344c-1.8-2.76-2.01-3.89-1.62-7.25z" fill="#DDDFDE"/><path d="m735 245-1 4c-3.75 1.12-3.75 1.12-6 0 4.75-4 4.75-4 7-4" fill="#D9DCDD"/><path d="M519 240h3v2l2 1 1 2-5-1v-2l-2-1z" fill="#0F120D"/><path d="m594 182 4 1c-2.31 2.06-2.31 2.06-5 4l-3-1h2v-2h2z" fill="#E8CC76"/><path d="M595 160c4.88 3.62 4.88 3.62 6 7l-3 1v-4h-2z" fill="#D8C472"/><path d="m683 46 3 1-3 5-3-1z" fill="#1C1E1F"/></svg>