<svg style="background:transparent" version="1.1" xmlns="http://www.w3.org/2000/svg" viewBox="0 0 1248 704"><path d="M1023 100c5.26 5.88 7.4 10.44 7.27 18.37a18.4 18.4 0 0 1-6.14 12.39c-5.91 4.63-11.93 7.41-19.51 7.32l-2.6-.02-2.79-.03-5.88-.04-9.24-.09-8.94-.06-2.77-.04c-5.23-.02-9.45.51-14.4 2.2l-2.48.64c-6.78 1.82-12.55 4.7-18.52 8.36l-2.82 1.71c-10.29 6.8-16.97 16.76-21.18 28.29l-1.12 3.06A220 220 0 0 0 909 193l-.49 1.9c-.61 2.5-1.1 5.01-1.57 7.54l-.54 2.81c-.4 2.75-.4 2.75-.4 5.41 0 3.06-1 5.46-2 8.34l-1 6q-.93 3.52-2 7l-.59 2.13c-1.8 6.1-4.77 10.7-8.41 15.87q-1.33 2.08-2.62 4.19l-1.24 1.97a245 245 0 0 0-2.95 4.9c-2.37 3.18-4.91 5.43-7.93 7.96a111 111 0 0 0-7.01 6.86c-11.37 11.41-24.19 18.65-39.16 24.3-2.1.82-4.09 1.78-6.09 2.82 1.39 2.84 2.78 5.64 4.42 8.35 4.08 6.84 7.6 13.94 9.93 21.58a82 82 0 0 0 2.21 6.01 60 60 0 0 1 2.91 11.47c.53 2.59.53 2.59 1.52 5.91a74 74 0 0 1 2.07 11.56l.25 2.14.69 5.98.31 2.48c.6 4.87.94 9.75 1.25 14.64l.14 2.03q.3 4.76.26 9.53c.04 3.32.04 3.32.54 5.72.5 2.6.6 4.9.56 7.55l-.02 2.82-.08 5.77c-.04 5.49.17 10.82.82 16.27.21 2.11.25 4.14.22 6.25 0 3.44.29 6.69.71 10.09.48 4.71.68 9.44.9 14.17.28 5.57.28 5.57 1.39 6.68q.07 2.03 0 4.06c-.06 5.81.55 11.3 2 16.94l1 7c1.71 7.53 4.09 15 7.06 22.12a98 98 0 0 1 4.22 13.15q1.06 3.96 2.28 7.85c4.4 14.58 6.33 29.71 7.05 44.88.29 5.59.29 5.59.9 8 .83 3.38.63 6.85.62 10.31l.01 2.43-.01 5.1.01 7.76-.01 4.96.01 2.33c-.02 3.83-.21 7.39-1.14 11.11l2.21.26c14.02 1.89 30.97 4.72 41.98 14.24 1.81 2.5 1.81 2.5 2.06 4.94-3.09 6.34-8.27 8.84-14.63 11.18-16.42 5.34-34.48 6.83-51.62 8.38l-3.54.34c-51.62 4.1-104.62-1.63-156.18-4.74q-13.64-.82-27.28-1.6l-3.46-.2c-20.28-1.13-40.6-1-60.92-.99h-2.8c-26.35.02-52.64.04-78.93 1.98l-9.8.7c-46.62 3.32-93.02 8.26-139.44 13.68l-11.62 1.35c-10.33 1.2-20.65 2.4-30.95 3.81-18.07 2.42-35.96 3.08-54.2 3.17l-3.54.03q-5.02.04-10.04 0l-3.01.03a35 35 0 0 1-16.11-3.8c-2.56-.89-3.64-.53-6.18.24-2.69-.81-2.69-.81-5-2l-1-2c-2.56-.62-2.56-.62-5-1l-1-3c-2.06-1.69-2.06-1.69-4-3 1.33-4 3.29-6.9 5.88-10.16 1.36-2.24 1.73-4.27 2.12-6.84l-2.34 1.28c-6.06 3.18-10.8 5.5-17.66 5.72l-2.25.11c-11.04.34-20.08-.49-28.63-7.94-5.45-5.57-7.96-10.45-9.12-18.17.62-3.75.62-3.75 2-7l1.12-3.38c4.1-9.02 11.84-15.03 20.88-18.62 3.7-.9 7.22-1.15 11.02-.83 9.05.66 15.18-6.23 21.73-11.67l1.65-1.36A72 72 0 0 0 242 601a49 49 0 0 1 5.75-5.19c3.15-2.6 5.74-5.52 8.38-8.63 2.62-3.06 5.35-6.03 8.07-9 1.8-2.18 1.8-2.18 3.41-4.89C269 571 269 571 271 570l1.19-2.12c2.02-3.22 4.38-5.48 7.1-8.1a31 31 0 0 0 4.02-5.22L285 552h2l.75-1.56A106 106 0 0 1 300 532l-3 1c-3.47-.98-6.71-2.54-10-4l-2.49-1.03c-7.28-3.26-13.1-8.16-18.51-13.97v-2l-1.77-.67c-2.93-1.75-4.08-3.75-5.85-6.64l-1.79-2.87a41 41 0 0 1-4.65-12.38 94 94 0 0 0-2.88-11.19c-2.16-6.6-3.44-13.17-4.5-20.03-.43-2.49-.95-4.91-1.54-7.37-1.23-5.47-1.8-10.97-2.4-16.54a367 367 0 0 0-6.21-37.97c-.56-3.19-.72-6.36-.91-9.59-.25-4.16-.52-8.3-1.06-12.44-1.13-9.8-1.69-20.19 4.18-28.64 2.8-3.35 5.24-6.06 9.38-7.67 12.29.22 24.12 7.9 34.9 13.17 12.76 6.19 19.82 5.25 33.41 1.89 11.92-2.93 23.37-5.32 35.63-6.18 9.31-.8 14.55-5.42 21.06-11.88q2.13-2.56 4.19-5.19a121 121 0 0 1 12.12-12.93l1.82-1.73 1.73-1.6 1.54-1.42c3.71-2.63 8.23-2.71 12.6-2.13 9.94 5.61 14.07 17.55 17 28l1 4 1.31 4.81Q427.19 357.4 430 368c3.11 0 5.58-1.62 8.31-3l2.07-1.04a834 834 0 0 0 58.18-32.53c3.68-2.15 7.52-3.97 11.36-5.82 3.3-1.63 6.16-3.4 9.08-5.61q2.97-1.56 6-3c7.4-3.6 14.62-7.43 21.81-11.44a297 297 0 0 1 21.98-11.07 139 139 0 0 0 10.3-5.44c2.87-1.58 5.89-2.79 8.91-4.05q1.85-.93 3.69-1.88c4.41-2.24 8.97-4.08 13.54-5.96 4-1.68 7.8-3.62 11.58-5.72a31 31 0 0 1 7.44-2.38c3.4-.68 6.42-1.66 9.63-3a97 97 0 0 1 13.45-4.34 106 106 0 0 0 7.42-2.34c3.73-1.29 7.34-1.86 11.25-2.38l2.94-1a34 34 0 0 1 7.31-1.56C680 254 680 254 682 253q3.12-.31 6.25-.5c3.26-.21 6.44-.45 9.66-.98 19.26-3.22 38.49-.23 57.55 3.06q3.1.5 6.23.86c3.44.58 6.49 1.58 9.77 2.73 16.08 5.27 16.08 5.27 23.92 2.52l2.36-.83q2.9-1.12 5.76-2.36a61 61 0 0 1 7.56-2.69c8.98-2.89 18.61-8.48 25.25-15.12a65 65 0 0 1 6.19-5.44c3.99-3.36 6.51-7.44 8.5-12.25v-3l1.94-2.31c2.37-3.09 2.6-4.87 3.06-8.69l1.06-3.5c.9-3.36 1.02-6.05.94-9.5l1-1q.27-2.84.44-5.69c.33-4.44 1-8.12 2.56-12.31l.44-3.5c.59-3.71 1.89-6.16 3.56-9.5l.5-3.56c.54-3.73 1.47-5.32 3.5-8.44q1.27-2.5 2.5-5c3.12-6.28 6.41-12.08 11.5-17h2l.25-1.75c1.28-3.85 3.89-5.74 7.31-7.75C896 118 896 118 897.5 116c1.89-2.51 3.76-3.45 6.5-5a703 703 0 0 0 6.33-4.3 92 92 0 0 1 22.36-10.39l2.76-.89q2.62-.85 5.25-1.68 2.86-.93 5.71-1.91c3.16-1.01 6.3-1.39 9.59-1.83l2-1c20.07-2.97 49.29-3.78 65 11" fill="#111311"/><path d="M1023 100c5.26 5.88 7.4 10.44 7.27 18.37a18.4 18.4 0 0 1-6.14 12.39c-5.91 4.63-11.93 7.41-19.51 7.32l-2.6-.02-2.79-.03-5.88-.04-9.24-.09-8.94-.06-2.77-.04c-5.23-.02-9.45.51-14.4 2.2l-2.48.64c-6.78 1.82-12.55 4.7-18.52 8.36l-2.82 1.71c-10.29 6.8-16.97 16.76-21.18 28.29l-1.12 3.06A220 220 0 0 0 909 193l-.49 1.9c-.61 2.5-1.1 5.01-1.57 7.54l-.54 2.81c-.4 2.75-.4 2.75-.4 5.41 0 3.06-1 5.46-2 8.34l-1 6q-.93 3.52-2 7l-.59 2.13c-1.8 6.1-4.77 10.7-8.41 15.87q-1.33 2.08-2.62 4.19l-1.24 1.97a245 245 0 0 0-2.95 4.9c-2.37 3.18-4.91 5.43-7.93 7.96a111 111 0 0 0-7.01 6.86c-11.37 11.41-24.19 18.65-39.16 24.3-2.1.82-4.09 1.78-6.09 2.82 1.39 2.84 2.78 5.64 4.42 8.35 4.08 6.84 7.6 13.94 9.93 21.58a82 82 0 0 0 2.21 6.01 60 60 0 0 1 2.91 11.47c.53 2.59.53 2.59 1.52 5.91a74 74 0 0 1 2.07 11.56l.25 2.14.69 5.98.31 2.48c.6 4.87.94 9.75 1.25 14.64l.14 2.03q.3 4.76.26 9.53c.04 3.32.04 3.32.54 5.72.5 2.6.6 4.9.56 7.55l-.02 2.82-.08 5.77c-.04 5.49.17 10.82.82 16.27.21 2.11.25 4.14.22 6.25 0 3.44.29 6.69.71 10.09.48 4.71.68 9.44.9 14.17.28 5.57.28 5.57 1.39 6.68q.07 2.03 0 4.06c-.06 5.81.55 11.3 2 16.94l1 7c1.71 7.53 4.09 15 7.06 22.12a98 98 0 0 1 4.22 13.15q1.06 3.96 2.28 7.85c4.4 14.58 6.33 29.71 7.05 44.88.29 5.59.29 5.59.9 8 .83 3.38.63 6.85.62 10.31l.01 2.43-.01 5.1.01 7.76-.01 4.96.01 2.33c-.02 3.83-.21 7.39-1.14 11.11l2.21.26c14.02 1.89 30.97 4.72 41.98 14.24 1.81 2.5 1.81 2.5 2.06 4.94-3.09 6.34-8.27 8.84-14.63 11.18-16.42 5.34-34.48 6.83-51.62 8.38l-3.54.34c-51.62 4.1-104.62-1.63-156.18-4.74q-13.64-.82-27.28-1.6l-3.46-.2c-20.28-1.13-40.6-1-60.92-.99h-2.8c-26.35.02-52.64.04-78.93 1.98l-9.8.7c-46.62 3.32-93.02 8.26-139.44 13.68l-11.62 1.35c-10.33 1.2-20.65 2.4-30.95 3.81-18.07 2.42-35.96 3.08-54.2 3.17l-3.54.03q-5.02.04-10.04 0l-3.01.03a35 35 0 0 1-16.11-3.8c-2.56-.89-3.64-.53-6.18.24-2.69-.81-2.69-.81-5-2l-1-2c-2.56-.62-2.56-.62-5-1l-1-3c-2.06-1.69-2.06-1.69-4-3 1.33-4 3.29-6.9 5.88-10.16 1.36-2.24 1.73-4.27 2.12-6.84l-2.34 1.28c-6.06 3.18-10.8 5.5-17.66 5.72l-2.25.11c-11.04.34-20.08-.49-28.63-7.94-5.45-5.57-7.96-10.45-9.12-18.17.62-3.75.62-3.75 2-7l1.12-3.38c4.1-9.02 11.84-15.03 20.88-18.62 3.7-.9 7.22-1.15 11.02-.83 9.05.66 15.18-6.23 21.73-11.67l1.65-1.36A72 72 0 0 0 242 601a49 49 0 0 1 5.75-5.19c3.15-2.6 5.74-5.52 8.38-8.63 2.62-3.06 5.35-6.03 8.07-9 1.8-2.18 1.8-2.18 3.41-4.89C269 571 269 571 271 570l1.19-2.12c2.02-3.22 4.38-5.48 7.1-8.1a31 31 0 0 0 4.02-5.22L285 552h2l.75-1.56A106 106 0 0 1 300 532l-3 1c-3.47-.98-6.71-2.54-10-4l-2.49-1.03c-7.28-3.26-13.1-8.16-18.51-13.97v-2l-1.77-.67c-2.93-1.75-4.08-3.75-5.85-6.64l-1.79-2.87a41 41 0 0 1-4.65-12.38 94 94 0 0 0-2.88-11.19c-2.16-6.6-3.44-13.17-4.5-20.03-.43-2.49-.95-4.91-1.54-7.37-1.23-5.47-1.8-10.97-2.4-16.54a367 367 0 0 0-6.21-37.97c-.56-3.19-.72-6.36-.91-9.59-.25-4.16-.52-8.3-1.06-12.44-1.13-9.8-1.69-20.19 4.18-28.64 2.8-3.35 5.24-6.06 9.38-7.67 12.29.22 24.12 7.9 34.9 13.17 12.76 6.19 19.82 5.25 33.41 1.89 11.92-2.93 23.37-5.32 35.63-6.18 9.31-.8 14.55-5.42 21.06-11.88q2.13-2.56 4.19-5.19a121 121 0 0 1 12.12-12.93l1.82-1.73 1.73-1.6 1.54-1.42c3.71-2.63 8.23-2.71 12.6-2.13 9.94 5.61 14.07 17.55 17 28l1 4 1.31 4.81Q427.19 357.4 430 368c3.11 0 5.58-1.62 8.31-3l2.07-1.04a834 834 0 0 0 58.18-32.53c3.68-2.15 7.52-3.97 11.36-5.82 3.3-1.63 6.16-3.4 9.08-5.61q2.97-1.56 6-3c7.4-3.6 14.62-7.43 21.81-11.44a297 297 0 0 1 21.98-11.07 139 139 0 0 0 10.3-5.44c2.87-1.58 5.89-2.79 8.91-4.05q1.85-.93 3.69-1.88c4.41-2.24 8.97-4.08 13.54-5.96 4-1.68 7.8-3.62 11.58-5.72a31 31 0 0 1 7.44-2.38c3.4-.68 6.42-1.66 9.63-3a97 97 0 0 1 13.45-4.34 106 106 0 0 0 7.42-2.34c3.73-1.29 7.34-1.86 11.25-2.38l2.94-1a34 34 0 0 1 7.31-1.56C680 254 680 254 682 253q3.12-.31 6.25-.5c3.26-.21 6.44-.45 9.66-.98 19.26-3.22 38.49-.23 57.55 3.06q3.1.5 6.23.86c3.44.58 6.49 1.58 9.77 2.73 16.08 5.27 16.08 5.27 23.92 2.52l2.36-.83q2.9-1.12 5.76-2.36a61 61 0 0 1 7.56-2.69c8.98-2.89 18.61-8.48 25.25-15.12a65 65 0 0 1 6.19-5.44c3.99-3.36 6.51-7.44 8.5-12.25v-3l1.94-2.31c2.37-3.09 2.6-4.87 3.06-8.69l1.06-3.5c.9-3.36 1.02-6.05.94-9.5l1-1q.27-2.84.44-5.69c.33-4.44 1-8.12 2.56-12.31l.44-3.5c.59-3.71 1.89-6.16 3.56-9.5l.5-3.56c.54-3.73 1.47-5.32 3.5-8.44q1.27-2.5 2.5-5c3.12-6.28 6.41-12.08 11.5-17h2l.25-1.75c1.28-3.85 3.89-5.74 7.31-7.75C896 118 896 118 897.5 116c1.89-2.51 3.76-3.45 6.5-5a703 703 0 0 0 6.33-4.3 92 92 0 0 1 22.36-10.39l2.76-.89q2.62-.85 5.25-1.68 2.86-.93 5.71-1.91c3.16-1.01 6.3-1.39 9.59-1.83l2-1c20.07-2.97 49.29-3.78 65 11m-135.31 28.45c-8.39 9.71-15.22 21.16-18.69 33.55q-.74 1.92-1.5 3.81c-3.35 9-4.77 18.01-5.88 27.5-2.47 20.53-9.69 37.67-26.37 50.88q-2.1 1.44-4.25 2.81l-2.66 1.79c-7.98 4.97-16.43 8.43-25.22 11.77l-3.53 1.38c-6.45 2.38-10.87 3.72-17.59 2.06l-3.64-.87-3.61-1.01-3.96-1.08L767 260c-15.52-4.26-30.64-6.5-46.71-6.34q-3.63.03-7.25.02c-48.71.08-94.97 18.69-137.84 40.22q-6.19 3.1-12.39 6.14c-14.69 7.26-29.19 14.66-43.38 22.85A641 641 0 0 1 502 332.5a1390 1390 0 0 0-38.99 21.81 334 334 0 0 1-20.37 10.88A253 253 0 0 0 428 373l-.59-3.24a284 284 0 0 0-7.35-29.32l-.98-3.28c-6.05-19.48-6.05-19.48-13.08-24.16-3.56-.94-6.43-.9-10 0-3.78 2.22-6.84 4.98-10 8l-2.12 1.96c-3.63 3.47-6.8 7.14-9.88 11.1-4.68 5.99-10.75 13.27-18.55 14.5l-4.33.44a274 274 0 0 0-35.74 6.06l-3.51.82c-8.39 1.96-8.39 1.96-11.87 3.12-11.52 1.47-23.92-7.29-33.9-12.17-13.9-6.74-13.9-6.74-22.1-5.83-5.61 4.36-8.08 9.08-9 16-1.88 25.11 3.81 51.2 8.12 75.84q.84 4.77 1.48 9.57c1.37 10.32 3.62 20.39 6.07 30.49l1.13 4.75c4.61 19.57 11.85 34.15 29.2 45.35 6.99 4.2 14.05 6.32 22 8-5.31 9.11-11.74 17.06-18.47 25.15a721 721 0 0 0-6.03 7.41c-5.22 6.38-10.65 12.59-16.07 18.8l-3.57 4.13a149 149 0 0 1-10.57 11.06C247 599 247 599 247 601h-2c-2.59 2.43-5 5-7.44 7.58-7.84 8.18-17.57 18.32-29.37 18.66-9.72.31-16.07 1.19-22.94 8.51q-1.67 2.09-3.25 4.25l-1.32 1.8c-3.77 6.15-3.74 13.23-2.68 20.2 3.09 7.23 9.68 11.23 16.71 14.11 15.06 4.08 29.21-.46 42.31-7.94L239 667l-1.5 2.81c-2.53 5.94-2.6 13-.38 19.07 4.61 7.67 11.95 10.48 20.12 13.2 18.82 4.61 36-2.09 52.03-11.75L313 688l4.55-2.8q5.23-3.23 10.46-6.49c7.95-4.94 15.95-9.78 23.96-14.62q9.99-6.05 19.92-12.18 4.35-2.66 8.71-5.3A1068 1068 0 0 0 418 623l2.68-1.77c38.43-25.34 38.43-25.34 47.32-34.23 1.97-.62 1.97-.62 4.43-1.16l2.8-.64 3.08-.7c30.28-7.27 58.58-19.83 86.81-32.69l2.2-1a878 878 0 0 0 42.99-21.19l3.23-1.68q9.74-5.07 19.46-10.19l2.29-1.2q5.78-3.04 11.52-6.17l2.36-1.27 4.4-2.42c3.49-1.89 5.37-2.69 9.43-2.69l1.14 2.83A189 189 0 0 0 703 566l2.02 2.25c5.6 6.02 12.11 10.64 18.74 15.44 21.26 15.46 21.26 15.46 25.24 24.31l1.04 2.24c1.21 3.47 1.66 6.94 2.08 10.57l.27 2.1.61 5.09-1.84.04c-7.48.43-14.09 2.34-19.79 7.41-1.31 1.49-1.31 1.49-3.37 4.55l-1.81 2.69a26 26 0 0 0 0 17.75c4.89 6.92 11.84 8.86 19.81 10.56 5.08.5 10.09.52 15.19.44l3.9.02c9.57-.06 19.29-.91 26.96-7.24 8.98-10.24 11.55-23.09 12.95-36.22l.39-3.17q.45-4.4.61-8.83l.08-1.98c.41-11.36-.72-21.91-3.08-33.02 12.97 7.71 20.5 14.87 24.75 29.62 1.94 7.83 2.4 15.33 2.25 23.38l-2.56.66c-8.52 2.38-15.15 4.51-20.26 12.01-3.72 6.67-5.62 12.71-4.18 20.33 3.49 7.25 9.57 11.34 17 14 5.6 1.25 11.17 1.18 16.88 1.19l2.89.03c10.3.03 20.4-2.02 28.32-9.08 8.2-8.93 10.22-19.42 10.21-31.15l.02-2.88q.01-4.62-.01-9.23v-3.19c-.05-22.36-.86-44.89-6.31-66.69l-.47-1.99c-2.83-11.82-6.47-23.35-10.32-34.88-4.62-14.01-6.93-27.56-8.27-42.19l-.26-2.7a1119 1119 0 0 1-4.43-78.58l-.08-2.89c-.18-2.98-.67-5.83-1.17-8.77a215 215 0 0 1-.36-5.06c-1.72-26.95-8.4-50.31-21.49-73.94l-1.24-2.25-1.12-1.98C822 303 822 303 822 300l2.72-.81c14.33-4.5 27.64-10.53 39.28-20.19l1.63-1.35c23.76-19.9 33.98-45.29 38.81-75.21 3.09-18.92 8.52-38.01 24.05-50.64 19.93-14.32 38.54-17.38 62.51-16.8q5.1.12 10.19.19l2.28.07c6.86.1 13.09-1.19 18.41-5.7L1024 127l1.75-2.06c2.68-4.15 3.15-9.12 2.25-13.94-4.4-9-10.84-13.54-20-17-41.31-13.12-91.4 3.73-120.31 34.45" fill="#BABDBA"/><path d="M661.78 502.83c3.37 1.78 4.1 4.64 5.34 8.04 8.38 20.77 21.3 39.14 36.88 55.13l1.8 1.88a105 105 0 0 0 15.4 12.93c28.65 20.78 28.65 20.78 31.42 35.5.41 3.95.45 7.72.38 11.7q-1.25.2-2.53.43c-10.3 2.06-10.3 2.06-14.72 5.87-3.58 2.67-6 2.87-10.39 2.24q-1.05-.16-2.15-.35l-4.6-.62-2.35-.32c-6.1-.7-12.27-.74-18.4-.87-.39 0-.39 0-2.32-.06-24.4-.58-48.82-.58-73.23-.58h-3.74c-36.38-.02-72.57.31-108.86 3.05a908 908 0 0 1-10.49.7 1141 1141 0 0 0-109.85 12.52q-8.15 1.3-16.37 1.98v-2c1.98-1.4 1.98-1.4 4.76-3.02l3.11-1.83 3.38-1.96 6.94-4.1 1.76-1.06A625 625 0 0 0 418 622l5.41-3.57c35.9-23.73 35.9-23.73 44.6-32.43 1.96-.62 1.96-.62 4.41-1.16l2.81-.64 3.08-.7c30.28-7.27 58.58-19.83 86.81-32.69l2.2-1a883 883 0 0 0 43-21.19l3.22-1.68q9.75-5.08 19.46-10.19l2.3-1.2a508 508 0 0 0 11.47-6.2l2.35-1.29q2.19-1.2 4.36-2.46c2.81-1.54 5.08-2.58 8.3-2.77" fill="#ECEEEC"/><path d="M1023 100c5.26 5.88 7.4 10.44 7.27 18.37a18.4 18.4 0 0 1-6.14 12.39c-5.91 4.63-11.93 7.41-19.51 7.32l-2.6-.02-2.79-.03-5.88-.04-9.24-.09-8.94-.06-2.77-.04c-5.23-.02-9.45.51-14.4 2.2l-2.48.64c-6.78 1.82-12.55 4.7-18.52 8.36l-2.82 1.71c-10.29 6.8-16.97 16.76-21.18 28.29l-1.12 3.06A220 220 0 0 0 909 193l-.49 1.9c-.61 2.5-1.1 5.01-1.57 7.54l-.54 2.81c-.4 2.75-.4 2.75-.4 5.41 0 3.06-1 5.46-2 8.34l-1 6q-.93 3.52-2 7l-.59 2.13c-1.8 6.1-4.77 10.7-8.41 15.87q-1.33 2.08-2.62 4.19l-1.24 1.97a245 245 0 0 0-2.95 4.9c-2.37 3.18-4.91 5.43-7.93 7.96a111 111 0 0 0-7.01 6.86c-11.37 11.41-24.19 18.65-39.16 24.3-2.1.82-4.09 1.78-6.09 2.82 1.39 2.84 2.78 5.64 4.42 8.35 4.08 6.84 7.6 13.94 9.93 21.58a82 82 0 0 0 2.21 6.01 60 60 0 0 1 2.91 11.47c.53 2.59.53 2.59 1.52 5.91a74 74 0 0 1 2.07 11.56l.25 2.14.69 5.98.31 2.48c.6 4.87.94 9.75 1.25 14.64l.14 2.03q.3 4.76.26 9.53c.04 3.32.04 3.32.54 5.72.5 2.6.6 4.9.56 7.55l-.02 2.82-.08 5.77c-.04 5.49.17 10.82.82 16.27.21 2.11.25 4.14.22 6.25 0 3.44.29 6.69.71 10.09.48 4.71.68 9.44.9 14.17.28 5.57.28 5.57 1.39 6.68q.07 2.03 0 4.06c-.06 5.81.55 11.3 2 16.94l1 7c1.71 7.53 4.09 15 7.06 22.12a98 98 0 0 1 4.22 13.15q1.06 3.96 2.28 7.85c4.4 14.58 6.33 29.71 7.05 44.88.29 5.59.29 5.59.9 8 .83 3.38.63 6.85.62 10.31l.01 2.43-.01 5.1.01 7.76-.01 4.96.01 2.33c-.02 3.83-.21 7.39-1.14 11.11l2.21.26c14.02 1.89 30.97 4.72 41.98 14.24 1.81 2.5 1.81 2.5 2.06 4.94-3.09 6.34-8.27 8.84-14.63 11.18-16.42 5.34-34.48 6.83-51.62 8.38l-3.54.34c-51.62 4.1-104.62-1.63-156.18-4.74q-13.64-.82-27.28-1.6l-3.46-.2c-20.28-1.13-40.6-1-60.92-.99h-2.8c-26.35.02-52.64.04-78.93 1.98l-9.8.7c-59.49 4.24-118.7 11.1-177.91 18.21-33.75 4.05-33.75 4.05-49.18 3.3v-1a394 394 0 0 1 26.12-2.94c8.24-.67 16.36-1.64 24.53-2.88a526 526 0 0 1 26.88-3.09 381 381 0 0 0 17.5-2.09 404 404 0 0 1 20.53-2.38l7.93-.77 2.08-.2q7.7-.77 15.41-1.63l2.33-.25 9.02-1.01c27.33-3.08 54.78-5.31 82.23-6.95l2.17-.13c55.45-3.28 111.42-3.33 166.83.55 19.38 1.34 38.79 2.4 58.19 3.46l3.1.17c25.95 1.42 51.85 2.62 77.84 2.58h3.5q4.78-.01 9.57-.07l2.7-.02c5.49-.1 10.67-.81 16.05-1.87 2.95-.57 5.88-.94 8.87-1.26l3.29-.36 6.66-.72c30.42-3.35 30.42-3.35 38.67-11.14.69-3.06.69-3.06 0-6-11.45-7.97-26.47-10.29-39.78-13.42C880 650 880 650 878 649l-.04-3.56c-.82-60.86-.82-60.86-6.96-85.44l-.47-1.99c-2.83-11.82-6.47-23.35-10.32-34.88-4.62-14.01-6.93-27.56-8.27-42.19l-.26-2.7a1119 1119 0 0 1-4.43-78.58l-.08-2.89c-.18-2.98-.67-5.83-1.17-8.77a215 215 0 0 1-.36-5.06c-1.72-26.85-8.22-50.43-21.58-73.85l-1.25-2.25-1.13-1.96c-.86-2.39-.68-3.56.32-5.88 2.82-1.2 2.82-1.2 6.56-2.25a101 101 0 0 0 36.97-20c23.4-19.31 33.21-45.15 37.91-74.31 3.42-20.93 9.84-40.3 27.56-53.44 19.09-13.14 37.38-15.55 60-15q5.1.12 10.19.19l2.28.07c5.67.08 10.26-1.24 15.53-3.26l3-1c1-1.63 1-1.63 2-4l1.62-3.25c1.51-4.11 2.35-7.47 1.38-11.75-3.68-7.79-8.95-12.08-16.56-15.69-28.21-9.62-63.51-3.43-89.71 9.28-21.96 11.29-41.66 29.42-49.61 53.41l-1.12 4q-.74 1.92-1.5 3.81c-3.35 9-4.77 18.01-5.88 27.5-2.54 21.1-10.44 38.49-27.43 51.94q-2.07 1.41-4.19 2.75l-2.66 1.78c-7.98 4.98-16.43 8.44-25.22 11.78l-3.53 1.38c-6.45 2.38-10.87 3.72-17.59 2.06l-3.64-.87-3.61-1.01-3.96-1.08L767 261c-15.52-4.26-30.64-6.5-46.71-6.34q-3.63.03-7.25.02c-48.71.08-94.97 18.69-137.84 40.22q-6.19 3.1-12.39 6.14c-14.69 7.26-29.19 14.66-43.38 22.85A641 641 0 0 1 502 333.5a1390 1390 0 0 0-38.99 21.81 317 317 0 0 1-20.42 10.9 144 144 0 0 0-9.44 5.02C430 373 430 373 428 373l-1.56-5.44-1.1-3.83a1081 1081 0 0 1-2.99-10.77C412.9 318.38 412.9 318.38 406 314c-3.61-1.11-6.38-1.02-10 0-3.76 2.24-6.84 4.98-10 8l-1.87 1.7c-3.52 3.35-6.53 7.01-9.57 10.8-11.1 13.79-11.1 13.79-19.11 15.06l-4.33.44a274 274 0 0 0-35.74 6.06l-3.51.82c-8.39 1.96-8.39 1.96-11.87 3.12-11.52 1.47-23.92-7.29-33.9-12.17-13.9-6.74-13.9-6.74-22.1-5.83-5.49 4.3-7.05 8.3-8 15-1.88 25.11 3.81 51.2 8.12 75.84q.84 4.77 1.48 9.57c1.37 10.32 3.62 20.39 6.07 30.49l1.13 4.75c4.51 19.14 11.28 33.38 28.2 44.35 6.95 4.09 14.31 6.64 22 9-1.59 4.92-4.45 8.58-7.56 12.62l-1.64 2.16a602 602 0 0 1-22.75 27.66q-3 3.5-5.94 7.02a203 203 0 0 1-15.43 16.83C248 599 248 599 247 601h-2l-1 3c-1.6 1.58-1.6 1.58-3.62 3.25a82 82 0 0 0-7.57 7.13c-6.47 6.62-15.29 13.59-24.63 13.86-8.13.26-14.64.55-20.84 6.3A49 49 0 0 0 183 640l-1.26 1.74c-3.79 6.19-3.81 13.23-2.74 20.26 3.08 7.07 8.77 10.3 15.68 13.08 10.75 2.98 23.34 1.71 33.32-3.08 2.75-1.56 5.41-3.17 8.04-4.93L238 666l2 1-1.5 2.81a26 26 0 0 0-.31 19.13c4.22 7.13 11.55 9.93 19.28 11.98q4.75 1.1 9.53 2.08v1c-7.11.49-12.36-.07-18.81-3.22-2.57-.91-3.64-.55-6.19.22-2.69-.81-2.69-.81-5-2l-1-2c-2.56-.62-2.56-.62-5-1l-1-3c-2.06-1.69-2.06-1.69-4-3 1.33-4 3.29-6.9 5.88-10.16 1.36-2.24 1.73-4.27 2.12-6.84l-2.34 1.28c-6.06 3.18-10.8 5.5-17.66 5.72l-2.25.11c-11.04.34-20.08-.49-28.63-7.94-5.45-5.57-7.96-10.45-9.12-18.17.62-3.75.62-3.75 2-7l1.12-3.38c4.1-9.02 11.84-15.03 20.88-18.62 3.7-.9 7.22-1.15 11.02-.83 9.05.66 15.18-6.23 21.73-11.67l1.65-1.36A72 72 0 0 0 242 601a49 49 0 0 1 5.75-5.19c3.15-2.6 5.74-5.52 8.38-8.63 2.62-3.06 5.35-6.03 8.07-9 1.8-2.18 1.8-2.18 3.41-4.89C269 571 269 571 271 570l1.19-2.12c2.02-3.22 4.38-5.48 7.1-8.1a31 31 0 0 0 4.02-5.22L285 552h2l.75-1.56A106 106 0 0 1 300 532l-3 1c-3.47-.98-6.71-2.54-10-4l-2.49-1.03c-7.28-3.26-13.1-8.16-18.51-13.97v-2l-1.77-.67c-2.93-1.75-4.08-3.75-5.85-6.64l-1.79-2.87a41 41 0 0 1-4.65-12.38 94 94 0 0 0-2.88-11.19c-2.16-6.6-3.44-13.17-4.5-20.03-.43-2.49-.95-4.91-1.54-7.37-1.23-5.47-1.8-10.97-2.4-16.54a367 367 0 0 0-6.21-37.97c-.56-3.19-.72-6.36-.91-9.59-.25-4.16-.52-8.3-1.06-12.44-1.13-9.8-1.69-20.19 4.18-28.64 2.8-3.35 5.24-6.06 9.38-7.67 12.29.22 24.12 7.9 34.9 13.17 12.76 6.19 19.82 5.25 33.41 1.89 11.92-2.93 23.37-5.32 35.63-6.18 9.31-.8 14.55-5.42 21.06-11.88q2.13-2.56 4.19-5.19a121 121 0 0 1 12.12-12.93l1.82-1.73 1.73-1.6 1.54-1.42c3.71-2.63 8.23-2.71 12.6-2.13 9.94 5.61 14.07 17.55 17 28l1 4 1.31 4.81Q427.19 357.4 430 368c3.11 0 5.58-1.62 8.31-3l2.07-1.04a834 834 0 0 0 58.18-32.53c3.68-2.15 7.52-3.97 11.36-5.82 3.3-1.63 6.16-3.4 9.08-5.61q2.97-1.56 6-3c7.4-3.6 14.62-7.43 21.81-11.44a297 297 0 0 1 21.98-11.07 139 139 0 0 0 10.3-5.44c2.87-1.58 5.89-2.79 8.91-4.05q1.85-.93 3.69-1.88c4.41-2.24 8.97-4.08 13.54-5.96 4-1.68 7.8-3.62 11.58-5.72a31 31 0 0 1 7.44-2.38c3.4-.68 6.42-1.66 9.63-3a97 97 0 0 1 13.45-4.34 106 106 0 0 0 7.42-2.34c3.73-1.29 7.34-1.86 11.25-2.38l2.94-1a34 34 0 0 1 7.31-1.56C680 254 680 254 682 253q3.12-.31 6.25-.5c3.26-.21 6.44-.45 9.66-.98 19.26-3.22 38.49-.23 57.55 3.06q3.1.5 6.23.86c3.44.58 6.49 1.58 9.77 2.73 16.08 5.27 16.08 5.27 23.92 2.52l2.36-.83q2.9-1.12 5.76-2.36a61 61 0 0 1 7.56-2.69c8.98-2.89 18.61-8.48 25.25-15.12a65 65 0 0 1 6.19-5.44c3.99-3.36 6.51-7.44 8.5-12.25v-3l1.94-2.31c2.37-3.09 2.6-4.87 3.06-8.69l1.06-3.5c.9-3.36 1.02-6.05.94-9.5l1-1q.27-2.84.44-5.69c.33-4.44 1-8.12 2.56-12.31l.44-3.5c.59-3.71 1.89-6.16 3.56-9.5l.5-3.56c.54-3.73 1.47-5.32 3.5-8.44q1.27-2.5 2.5-5c3.12-6.28 6.41-12.08 11.5-17h2l.25-1.75c1.28-3.85 3.89-5.74 7.31-7.75C896 118 896 118 897.5 116c1.89-2.51 3.76-3.45 6.5-5a703 703 0 0 0 6.33-4.3 92 92 0 0 1 22.36-10.39l2.76-.89q2.62-.85 5.25-1.68 2.86-.93 5.71-1.91c3.16-1.01 6.3-1.39 9.59-1.83l2-1c20.07-2.97 49.29-3.78 65 11" fill="#E6E8E8"/><path d="M258 347c9.99 5.01 21.68 12.52 29 21v3l-5 2v2a97 97 0 0 1-4.31 3.25c-12.34 9.64-19.73 22.61-24.8 37.21q-1.35 3.8-2.89 7.54h-2c-4.85-9.69-6.07-20.31-6.68-31-.46-4.32-1.75-7.96-3.32-12l-1 5h-1a119 119 0 0 1-1.12-18.12l-.02-2.63c.01-4.53.22-8.79 1.14-13.25l2 3 1.46-1.71 1.92-2.23 1.89-2.21c4.21-4.51 9.36-2.49 14.73-.85" fill="#292B27"/><path d="M407.02 311.14c9.42 7.42 13.2 19.6 15.98 30.86a390 390 0 0 0 4.34 15.4l.71 2.3q.69 2.28 1.41 4.55c1.65 5.42 1.65 5.42.54 8.75h-2l-1.56-5.44-1.1-3.83a1081 1081 0 0 1-2.99-10.77C412.9 318.38 412.9 318.38 406 314c-3.6-1.1-6.38-1.03-10 0-3.76 2.24-6.84 4.98-10 8l-1.87 1.7c-3.52 3.35-6.53 7.01-9.57 10.8-11.1 13.8-11.1 13.8-19.11 15.06q-2.16.24-4.32.44a274 274 0 0 0-35.75 6.06l-3.51.82c-8.39 1.96-8.39 1.96-11.87 3.12-11.52 1.47-23.92-7.29-33.9-12.17-13.9-6.74-13.9-6.74-22.1-5.83-5.49 4.3-7.05 8.3-8 15-1.88 25.11 3.81 51.2 8.12 75.84q.84 4.77 1.48 9.57c1.37 10.31 3.62 20.4 6.07 30.5l1.13 4.73c4.51 19.14 11.28 33.4 28.2 44.36 6.95 4.1 14.31 6.63 22 9-1.59 4.92-4.45 8.58-7.56 12.62l-1.64 2.16a602 602 0 0 1-22.75 27.66q-3 3.5-5.94 7.02a203 203 0 0 1-15.43 16.83C248 599 248 599 247 601h-2l-1 3c-1.6 1.58-1.6 1.58-3.62 3.25a84 84 0 0 0-7.57 7.12c-6.47 6.63-15.29 13.6-24.62 13.87-8.14.26-14.65.55-20.85 6.3A50 50 0 0 0 183 640l-1.26 1.74c-3.79 6.2-3.81 13.23-2.74 20.26 3.08 7.07 8.77 10.3 15.68 13.08 10.75 2.98 23.34 1.71 33.32-3.08 2.75-1.56 5.41-3.17 8.04-4.93L238 666l2 1-1.5 2.81a26.2 26.2 0 0 0-.31 19.13c4.22 7.13 11.55 9.93 19.28 11.98q4.75 1.1 9.53 2.08v1c-7.11.5-12.36-.07-18.81-3.22-2.57-.92-3.64-.55-6.19.22-2.69-.8-2.69-.8-5-2l-1-2c-2.56-.63-2.56-.63-5-1l-1-3c-2.06-1.69-2.06-1.69-4-3 1.33-4 3.29-6.9 5.88-10.16 1.36-2.24 1.73-4.27 2.12-6.84l-2.34 1.28c-6.06 3.18-10.8 5.5-17.66 5.72l-2.25.11c-11.04.34-20.08-.49-28.63-7.94-5.45-5.57-7.96-10.45-9.12-18.17.63-3.75.63-3.75 2-7l1.13-3.38c4.09-9.02 11.83-15.03 20.87-18.62 3.7-.9 7.22-1.15 11.02-.83 9.05.66 15.18-6.23 21.73-11.67l1.65-1.37A72 72 0 0 0 242 601a49 49 0 0 1 5.75-5.19c3.15-2.6 5.74-5.52 8.38-8.63 2.62-3.06 5.35-6.03 8.07-9 1.8-2.18 1.8-2.18 3.41-4.89C269 571 269 571 271 570l1.19-2.13c2.02-3.2 4.38-5.47 7.1-8.09 1.6-1.66 2.8-3.27 4.02-5.22L285 552h2l.75-1.56A106 106 0 0 1 300 532l-3 1c-3.47-.98-6.71-2.54-10-4l-2.49-1.03c-7.28-3.26-13.1-8.16-18.51-13.97v-2l-1.77-.67c-2.93-1.75-4.08-3.75-5.85-6.64l-1.79-2.87a41 41 0 0 1-4.65-12.38 94 94 0 0 0-2.88-11.19c-2.16-6.6-3.44-13.17-4.5-20.03-.43-2.49-.95-4.9-1.54-7.37-1.23-5.47-1.8-10.97-2.39-16.54a370 370 0 0 0-6.22-37.97c-.56-3.19-.72-6.36-.91-9.59-.25-4.16-.52-8.3-1.06-12.44-1.13-9.8-1.69-20.19 4.18-28.64 2.8-3.35 5.24-6.06 9.38-7.67 12.29.22 24.12 7.9 34.9 13.16 12.76 6.2 19.82 5.26 33.41 1.9 11.92-2.93 23.37-5.32 35.63-6.18 9.31-.8 14.55-5.42 21.06-11.88q2.13-2.56 4.19-5.19c3.73-4.69 7.76-8.84 12.12-12.94l1.82-1.72 1.73-1.6 1.54-1.42c4.13-2.92 10.22-3.48 14.62-.99" fill="#E2E4E3"/><path d="M404 313c5.73 2.48 8.66 7.16 11.27 12.69 1.62 4.11 2.75 7.3 2.65 11.77-.14 6.36 1.62 12.5 3.02 18.66l1.65 7.45.75 3.31A74 74 0 0 1 425 384c-2.69-1.06-3.94-1.92-5.7-4.27-2.79-3.31-5.81-5.44-9.42-7.79l-2.02-1.33a63 63 0 0 0-13.81-6.89c-2.05-.72-2.05-.72-3.93-1.76-2.78-1.26-5.4-1.52-8.43-1.9-5.09-.71-9.13-1.73-13.69-4.06 1.43-4 3.36-7.25 5.75-10.75q4.62-6.78 9.02-13.7L384 330h2l.81-2.44L388 325l3-1v-2c1.43-1.29 1.43-1.29 3.31-2.62l1.87-1.36C398 317 398 317 401 317v-2h3z" fill="#242522"/><path d="m373.38 557.19 1.62.8c0 3 0 3-1.7 5.08l-2.4 2.35q-1.27 1.3-2.61 2.6l-2.8 2.73q-1.3 1.32-2.68 2.67a271 271 0 0 1-13.96 12.95c-3.1 2.73-5.97 5.68-8.86 8.63a207 207 0 0 1-12.94 12.2c-3.56 3.12-6.94 6.4-10.37 9.68a260 260 0 0 1-17 14.98 252 252 0 0 0-7.56 6.32 444 444 0 0 1-6.63 5.56q-1.97 1.7-3.87 3.48c-7.76 6.59-16.92 5.85-26.62 5.78 3.92-4.07 8.1-7.65 12.5-11.2.36-.27.36-.27 2.14-1.72a807 807 0 0 1 16-12.48c5.96-4.57 11.74-9.35 17.54-14.1l4.82-3.94a993 993 0 0 0 16.17-13.47q5.08-4.32 10.26-8.52c4.87-3.96 9.62-8.02 14.37-12.11q6.84-5.87 13.87-11.54 2.94-2.44 5.76-5.04c2.56-1.88 2.56-1.88 4.94-1.7" fill="#EAEAED"/><path d="M803 581c9.6 3.56 18.15 10.97 22.54 20.27 3.68 9.77 7.42 22.16 5.46 32.73-2.86 1.9-3.96 2.29-7.19 2.81a21 21 0 0 0-8.87 3.81c-4.13 2.84-7.01 2.82-11.94 2.38l.44-6.75.13-2.08q.4-6 .99-11.98c1.16-13.89.39-27.42-1.56-41.19" fill="#ECEFEF"/><path d="m304.75 469.13 3.29.1c5.92.27 10.82.69 15.96 3.77.94 3.69.94 3.69 1 7h2v-5h2c3 4.38 3 4.38 3 7l-6.13 2.44-3.44 1.37c-10.04 3.49-21.66 3.63-31.43-.8a57 57 0 0 1-10-8c-.13-2.63-.13-2.63 0-5 8.12-2.75 15.23-3.36 23.75-2.88" fill="#131613"/><path d="m408 453 2 3a150 150 0 0 1-14 8l-3 2.06a31 31 0 0 1-9 3.94v4l-6 2v2l-1.94-.44c-4-.73-8.02-1.15-12.06-1.56l-1-5c10.89-10.54 28.97-21.75 45-18" fill="#161714"/><path d="M177 651h1l.01 2.12c.29 7.25 1.67 11.83 6.99 16.88 9.23 6.93 19.99 6.98 31 6 7.52-1.48 13.7-4.69 20.04-8.93L238 666l2 1-1.5 2.81a26 26 0 0 0-.31 19.13c4.22 7.13 11.55 9.93 19.28 11.98q4.75 1.1 9.53 2.08v1c-7.11.49-12.36-.07-18.81-3.22-2.57-.91-3.64-.55-6.19.22-2.69-.81-2.69-.81-5-2l-1-2c-2.56-.62-2.56-.62-5-1l-1-3c-2.06-1.69-2.06-1.69-4-3 1.33-4 3.29-6.9 5.88-10.16 1.36-2.24 1.73-4.27 2.12-6.84l-2.34 1.28c-6.06 3.18-10.8 5.5-17.66 5.72l-2.25.11c-11.04.34-20.08-.49-28.63-7.94-6.76-6.91-6.76-6.91-7.12-12.17.22-3.02.58-6 1-9" fill="#DADCDC"/><path d="M860 200h1c-1.04 17.4-10.55 31.45-23.09 42.91A96 96 0 0 1 831 248l-2.73 1.86c-7.96 4.95-16.4 8.37-25.15 11.7l-3.53 1.38c-6.45 2.38-10.87 3.72-17.59 2.06l-3.64-.87-3.61-1.01-3.96-1.08L767 261c-19.65-5.39-38.72-6.62-59-7v-1c21.6-1.2 42.81-2.04 63.57 5.2 15.98 5.24 15.98 5.24 23.81 2.49l2.36-.83q2.9-1.12 5.76-2.36a61 61 0 0 1 7.56-2.69c8.98-2.89 18.61-8.48 25.25-15.12a65 65 0 0 1 6.19-5.44c3.99-3.36 6.51-7.44 8.5-12.25v-3l1.94-2.31c2.37-3.09 2.53-4.89 3.06-8.69 2.24-6.24 2.24-6.24 4-8" fill="#E4E4E5"/><path d="m726 251 2 2-3.5.11c-45.5 1.73-88.8 12.75-129.9 32.4l-2.81 1.34-2.45 1.19c-2.44 1-4.74 1.53-7.34 1.96.98-2.55 1.47-3.75 3.99-4.94l2.32-.62a26 26 0 0 0 7.01-2.84c3.85-2.3 7.98-3.76 12.15-5.35a49 49 0 0 0 8.07-3.81c3.02-1.77 5.95-2.55 9.34-3.44 7.63-2.08 7.63-2.08 10.81-3.56 3.78-1.64 7.55-2.65 11.54-3.68 2.55-.7 5.02-1.51 7.52-2.38 3.73-1.29 7.34-1.86 11.25-2.38l2.94-1a34 34 0 0 1 7.31-1.56C680 254 680 254 682 253q3.12-.31 6.25-.5c4.32-.28 8.48-.78 12.75-1.5 8.24-.89 16.81-1.74 25 0" fill="#ECEBEE"/><path d="M878 616h1l1 32 13 2a179 179 0 0 1 11.5 2.97c7.96 2.34 16.45 5.07 21.5 12.03.25 2.44.25 2.44-1 5-14.55 16.62-48.76 15.47-69 17v-2c9.07-1.79 18.14-2.87 27.33-3.86 30.42-3.35 30.42-3.35 38.67-11.14.69-3.06.69-3.06 0-6-11.45-7.97-26.47-10.29-39.78-13.42C880 650 880 650 878 649z" fill="#E9EAEB"/><path d="M355 485c2.27 1.02 2.27 1.02 4 2-.43 4.59-.7 6.85-4 10q-.06 2.5 0 5c-2 2-2 2-5.12 2.12L347 504l-1.19-2.75c-1.89-3.39-3.67-5.04-6.81-7.25.2-3.64.78-4.8 3.5-7.31 4.3-2.08 7.8-2.43 12.5-1.69" fill="#666768"/><path d="M233 678h1v6l3 1q1.08 2.6 2.14 5.23c2.66 5.48 9.43 7.85 14.86 9.77 4.31 1.14 8.64 2.11 13 3v1c-7.11.49-12.36-.07-18.81-3.22-2.57-.91-3.64-.55-6.19.22-2.69-.81-2.69-.81-5-2l-1-2c-2.56-.62-2.56-.62-5-1l-1-3c-2.06-1.69-2.06-1.69-4-3 1.52-4.56 3.95-8.32 7-12" fill="#D5D6D7"/><path d="M237 393h1l.52 3.75q2.26 16.26 5 32.44 1.19 6.9 2.23 13.81c1.4 9.54 3.26 18.82 5.71 28.15l.65 2.53.59 2.24c.33 2.31.01 3.87-.7 6.08-3.34-4.42-4.49-7.36-5-13-.7-3.8-1.56-7.56-2.4-11.33L244 455l-.46-1.86c-1.8-7.56-2.56-15.19-3.4-22.9-.53-4.71-1.08-9.29-2.23-13.89-1.15-4.82-1.13-9.48-1.03-14.41l.02-2.63z" fill="#DDDDDE"/><path d="m294 470 .3 2.01c.89 5.29 1.59 9.23 5.7 12.99a25 25 0 0 0 5 2c-5.06 1.68-9.24 0-14-2a55 55 0 0 1-10-8c-.12-2.62-.12-2.62 0-5 4.52-1.23 8.29-2.13 13-2" fill="#D7C063"/><path d="M771.7 258.21c3.36 1.15 6.8 2.1 10.23 3.04C784 262 784 262 786 264a88 88 0 0 0 4 2c-7.9-.65-15.38-2.9-23-5-19.65-5.39-38.72-6.62-59-7v-1c21.6-1.2 42.94-2.1 63.7 5.21" fill="#DEDEE1"/><path d="m817 680 3.68.46c6.12.68 12.24.89 18.38 1.1l3.49.13 8.45.31v1l9 1c-3.98 1.99-5.42 2.25-9.69 2.23h-3.45l-3.72-.03-3.82-.01-10.02-.05-10.23-.04q-10.04-.03-20.07-.1v-1l21-1z" fill="#C9CBCB"/><path d="m251 338 1 2-3.69.69c-5.05 1.26-7.75 3.89-10.56 8.25-1.99 5.47-1.94 11.18-1.94 16.94v2.58c.06 8.24.74 16.39 1.57 24.58l.28 2.92.27 2.59c.08 2.63-.32 4.89-.93 7.45h-1a177 177 0 0 1-2.78-23.53c-.17-2.75-.43-5.43-.78-8.16-1.13-9.8-1.69-20.19 4.18-28.64 4.27-5.1 7.47-8.05 14.38-7.67" fill="#F0F3F1"/><path d="M980.81 133.88h2.73c9.17.06 18.31.53 27.46 1.12l-1 3-1.66-.01q-8.6-.07-17.18-.1-3.2 0-6.4-.04l-9.24-.04-2.87-.03c-5.29 0-9.65.48-14.65 2.22v-3c7.18-3.37 15.03-3.16 22.81-3.12" fill="#E7E8E9"/><path d="M374 462c3 1 3 1 4.56 4l1.44 3 2 1v2q-3.09 1.01-6.19 2l-3.48 1.12a24 24 0 0 1-8.33.88l-1-5 3.81-3.38 2.15-1.89C371 464 371 464 374 462" fill="#E1C274"/><path d="M878 616h1l1 32 13 2a179 179 0 0 1 11.5 2.96c14.9 4.37 14.9 4.37 19.5 10.04.19 3.19.19 3.19 0 6h-1l-.31-2.69c-2.7-5.29-7.24-6.54-12.69-8.31a499 499 0 0 0-19.02-5.19c-4.35-1.18-8.66-2.51-12.98-3.81z" fill="#E8E9E9"/><path d="m846 363 2 1c.29 2.61.47 5.13.56 7.75.19 4.51.53 8.82 1.44 13.25q.38 4.03.62 8.06l.16 2.15A29 29 0 0 1 850 405q-.2 2.16-.32 4.33l-.12 2.42-.12 2.5-.13 2.55-.31 6.2h-1l-.08-2.57-.42-13.59-.18-5.91-.11-3.59A84 84 0 0 0 846 388c-.3-3.35-.46-6.7-.62-10.06l-.16-2.68c-.22-4.26-.38-8.11.78-12.26" fill="#E3E4E5"/><path d="M273.94 347.94c7.54 3.93 14.99 7.37 23.06 10.06l-1 2c-8.17-1.32-14.71-4.61-22-8.44-17.74-9.24-17.74-9.24-28-10.56v-1c9.79-2.83 19.53 3.54 27.94 7.94" fill="#D9DADC"/><path d="M802 642c2.88-.12 2.88-.12 6 0l2 2-1.28 2.31c-3.4 6.41-5.48 11.42-5.72 18.69h-1v-6c-3.75-1.12-3.75-1.12-6 0 1.85-5.72 3.93-11.36 6-17" fill="#B1B4B4"/><path d="M301 695v6l3 1a240 240 0 0 1-37 2v-1l2.18.03c10.2-.3 18.68-3.58 28.06-7.4C299 695 299 695 301 695" fill="#BFBFC1"/><path d="m851 452 2 1c.71 4.44 1 8.86 1.25 13.34l.12 2.32.24 4.66c.28 5.57.28 5.57 1.39 6.68q.07 2.13 0 4.25c-.04 3.4.15 6.44 1 9.75l-3 1c-2.4-14.44-3.15-28.39-3-43" fill="#ECEDEF"/><path d="m499 565 2 1c-2.76 3.09-5.56 4.89-9.18 6.85-3.08 1.94-5.35 4.5-7.82 7.15l2 2c-10.37 3.44-10.37 3.44-16 3 1.27-2.54 2.37-2.85 4.88-4.12 4.81-2.59 9.08-5.69 13.46-8.94 3.47-2.53 6.92-4.83 10.66-6.94" fill="#040504"/><path d="M323.36 470.02c1.95 1.1 1.95 1.1 4.64 2.98l-2 1v6h-1l-.62-3.38C323 473 323 473 320.7 471.82c-5.38-1.19-10.7-1.3-16.2-1.45l-3.38-.12Q293.57 470 286 470c8.99-6 27.83-4.1 37.36.02" fill="#030402"/><path d="M418 336h3a27 27 0 0 1 3 8.81c1 5.27 2.38 10.3 4.05 15.4l1.14 3.54 1.1 3.36C431 370 431 370 430 373h-2l-2.71-9.5-2.89-10.04-.83-2.86-1.64-5.67-.76-2.63-.68-2.37C418 338 418 338 418 336" fill="#DEE0DF"/><path d="m995 89 1 2-2.82.08-10.57.29-4.53.13c-9.39.25-18.72.67-28.08 1.5 1-2 1-2 3.69-3.06 13.37-3.38 27.71-1.71 41.31-.94" fill="#ECEEF0"/><path d="M327 475h2c3 4.38 3 4.38 3 7l-9.57 3.81c-6.8 2.36-13.88 3.46-20.74 1-2.93-1.97-4.16-3.66-5.69-6.81h2v2h4v3l4-1v3l7.81-1.44 2.24-.41A64 64 0 0 0 325 483c.73-1.85.73-1.85 1.19-4.06l.48-2.23z" fill="#242119"/><path d="m190 629 2 2-1.57 1.18c-9.4 7.54-12.08 16.11-13.43 27.82l-2-1c-1.61-5.95-.77-10.51 2-16a58 58 0 0 1 13-14" fill="#EEF1ED"/><path d="M240 399h2q1.04 4.18 2.06 8.38l.61 2.4c1.44 5.99 1.44 5.99.33 8.22-2.06.62-2.06.62-4 1a46 46 0 0 1-1-20" fill="#181B18"/><path d="m286.85 470.9 6.15.1-1 3v-2h-2v3h2l2 6-4 1v-2h-4v-2h-2q-.06-3 0-6c1-1 1-1 2.85-1.1" fill="#F1CD5A"/><path d="m864 278 3 1c-18.43 16-18.43 16-25 16v-3l2.02-1.03a113 113 0 0 0 17.67-11.53z" fill="#E6E6E9"/><path d="M878 616h1l1 32 13 2 2 1v2q-2.84-.42-5.69-.88l-3.2-.49C883 651 883 651 878 649z" fill="#D9DBD9"/><path d="M401.88 451.94h2.08l5.04.06 1 2-2.1-.14c-11.15-.41-22.55 1.76-31.9 8.14l-3-2q2.35-1.2 4.69-2.37l2.63-1.34c7.25-3.5 13.54-4.45 21.56-4.35" fill="#030402"/><path d="m726 251 2 2-31 1 1-3 1.94.04c3.93.04 7.61.03 11.5-.6 4.89-.6 9.71-.36 14.56.56" fill="#F1F1F4"/><path d="M863 174h1a88 88 0 0 1-1.38 17.44l-.38 2.46q-.53 3.07-1.24 6.1l-2 1q-.57-2.99-1-6l1-1q.27-2.84.44-5.69c.39-5.23 1.2-9.59 3.56-14.31" fill="#EFF0F1"/><path d="M997.6 89c15.85 2.93 15.85 2.93 21.4 9l-2 1c-1.88-.7-1.88-.7-4.13-1.82-6.82-3.16-13.43-4.39-20.87-5.18 1.81-2.43 2.5-3 5.6-3" fill="#DADBDD"/><path d="M865 536c1.9.64 1.9.64 4 2 .98 2.61.98 2.61 1.62 5.75a60 60 0 0 0 2.76 9.75l.62 2.5c-1.46 2.16-1.46 2.16-3 4l-2.44-9.19-.69-2.62A154 154 0 0 1 865 536" fill="#E6E8EA"/><path d="m251 479 1 3h2l2.5 7.88.72 2.26c1.78 5.63 1.78 5.63 1.78 7.86h-2c-3.84-4.61-5.55-9.01-6-15l-.62-2.88L250 480z" fill="#E1E1E2"/><path d="m580 288 3 3-7.56 3.81-2.14 1.08q-6.54 3.3-13.3 6.11v-3l1.51-.79 6.8-3.59 2.38-1.24 2.3-1.22 2.11-1.11c1.68-.93 3.3-1.98 4.9-3.05" fill="#DBDDDC"/><path d="M235 377h1q.55 5.84 1.06 11.69l.32 3.34.28 3.23.27 2.97c.07 2.76-.28 5.09-.93 7.77h-1c-1.92-9.67-3.21-19.27-1-29" fill="#DDE0DD"/><path d="M237 393h1l1.44 9.94.41 2.8q1.23 8.62 2.15 17.26h-2c-3.73-9.88-3.29-19.62-3-30" fill="#D0D2CE"/><path d="m375 464 5 5c-1.9 1.9-3.33 2.94-6.05 3.2q-2.98-.03-5.95-.2v-4h4v-3z" fill="#E9C964"/><path d="m293 699 3 4c-9.66 1.27-19.28 1.09-29 1v-1l2.77-.18 3.61-.26 3.58-.24C280 702 280 702 282 701c2.3-.31 4.6-.51 6.91-.72C291 700 291 700 293 699" fill="#CACBCA"/><path d="M849 405c3.38 4.5 3.38 4.5 3.33 8l-.02 2.25-.06 2.31-.02 2.33c-.04 3.27-.19 5.99-1.23 9.11h-2z" fill="#F1F2F4"/><path d="m251 338 1 2-3.69.69c-5.05 1.26-7.75 3.89-10.56 8.25A38 38 0 0 0 236 357l-2-1c-.51-5.33.65-7.86 4-12 4.25-4.03 7.07-6.16 13-6" fill="#E7E7E8"/><path d="M376 329h2c-3.31 7.11-9.49 13.67-16 18h-4c2.89-2.98 5.84-5.75 9-8.44a51 51 0 0 0 6.88-7z" fill="#DEDFDF"/><path d="M868 158h2c-.75 6.39-.75 6.39-1.94 9.31-1.62 4.1-2.27 8.37-3.06 12.69h-1v-6l-2-1 2.44-6.94.69-2c1.76-4.95 1.76-4.95 2.87-6.06" fill="#DEDEE0"/><path d="M1018 98c2.82.36 3.88.88 5.89 2.96l1.8 2.42 1.82 2.39c2.36 3.54 2.61 6.28 2.55 10.42l-.02 2.73-.04 2.08h-2l-.01-1.87c-.33-7.24-2.58-11.49-6.99-17.13z" fill="#E9EBEA"/><path d="M361 565c.88 3.18 1.45 5.73.31 8.94-1.68 2.65-3.8 4.21-6.31 6.06-1-3-1-3-.33-4.9 1.89-3.57 3.73-6.98 6.33-10.1" fill="#E2E3E3"/><path d="M875 141h2c-.54 4.6-1.77 7.87-4.06 11.88l-1.66 2.92L870 158h-3a43 43 0 0 1 5-11q1.53-2.99 3-6" fill="#EEEEF0"/><path d="M248 461h1l2.06 8.25.61 2.36.55 2.28.53 2.1c.28 2.26-.07 3.85-.75 6.01-3.34-4.42-4.46-7.36-5-13l-1-2q.91-3.03 2-6" fill="#D5D7D6"/><path d="M410 316c3 1 3 1 4.57 3.48 5.15 10.43 5.15 10.43 5.43 16.52h-2z" fill="#E8E9E9"/><path d="m315 701-1 2c-4.76 1.52-9.87 1.11-14.81 1.06l-2.68-.01L290 704v-1c8.39-1.25 16.5-2.36 25-2" fill="#E1E2E3"/><path d="M642 508h8c-3.32 2.74-6.83 4.42-10.75 6.19L633 517l-1-3h2v-2h7z" fill="#1B1B1E"/><path d="m241 343 2 1c.62 2.56.62 2.56 1 5l-7 6c-.33-4.24-.44-6.36 2-9.94z" fill="#141514"/><path d="M205 624v2l9 1v1l-3.51.18-4.61.26-2.31.12c-4.26.24-8.37.64-12.57 1.44 3.56-4.4 8.51-6 14-6" fill="#CBCBCC"/><path d="M860 519h2a117 117 0 0 1 6 17c-1.86-.14-1.86-.14-4-1-1.27-2.58-1.27-2.58-2.25-5.81l-1.02-3.21C860 523 860 523 860 519" fill="#ECEDF0"/><path d="m846 363 2 1c1.72 8.15.73 15.95-1 24h-1q-.3-4.84-.56-9.69l-.17-2.76-.15-2.69-.14-2.46c.02-2.58.44-4.89 1.02-7.4" fill="#D9D9DC"/><path d="m771 258 6.38 1.88 3.58 1.05C784 262 784 262 786 264a88 88 0 0 0 4 2c-6.58-.62-12.67-2.15-19-4z" fill="#D7D7D9"/><path d="M958 138a33 33 0 0 1-15 7l-1-3q2.87-1.3 5.75-2.56l3.23-1.44c3-.99 4.15-1.16 7.02 0" fill="#DCDDDC"/><path d="m267 642 2 1a72 72 0 0 1-7 8l3 1-10 1c3.8-3.92 7.82-7.49 12-11" fill="#E3E7E2"/><path d="M327 475h2c3 4.38 3 4.38 3 7-6.62 3.12-6.62 3.12-10 2l3-1c.73-1.85.73-1.85 1.19-4.06l.48-2.23z" fill="#C1B179"/><path d="M382 472v3l-4 1v2a28 28 0 0 1-9-3q2.12-.76 4.25-1.5l2.39-.84C378 472 378 472 382 472" fill="#271A0F"/><path d="m236 357 2 1 1 20-1-2h-2z" fill="#090B0A"/><path d="M802 259c-1 3-1 3-2.86 3.95-4.51 1.43-8.34 2.42-13.14 2.05v-3l2.06.19c5.11-.33 8.72-3.19 13.94-3.19" fill="#EEEEF2"/><path d="m817 680 19 2v1l-8 1v1h-8l-1-3z" fill="#C6C8CA"/><path d="m408 457 2 1c-5.47 3.8-10.87 7.36-17 10l-3-1a62 62 0 0 1 18-10" fill="#070A07"/><path d="M911 108c-1.25 3.76-2.69 4.44-5.94 6.62l-2.71 1.86C900 118 900 118 898 119c.19-2.31.19-2.31 1-5 2.25-1.62 2.25-1.62 5-3l2.69-1.69C909 108 909 108 911 108" fill="#DCDDDC"/><path d="m190 629 2 2-1.64 1.39-2.17 1.86-2.15 1.83A37 37 0 0 0 181 642l-2-2 3.81-4.38 2.15-2.46C187 631 187 631 190 629" fill="#DEE1DF"/><path d="m262 342 1 3-17-4v-1c5.63-1.63 10.79-.47 16 2" fill="#D1D2D4"/><path d="M912 656c9.33 3.11 9.33 3.11 12 7 .25 3.25.25 3.25 0 6h-1l-.31-2.69c-2.64-5.18-7.43-6.32-12.69-8.31z" fill="#E2E2E3"/><path d="m295 480 1.43 1.24 1.88 1.64 1.87 1.61A39 39 0 0 0 305 488l-4.31-.44-2.43-.24C296 487 296 487 293 486z" fill="#C4B674"/><path d="M843 351c3.54 4.52 4.25 7.63 3.56 13.31L846 368c-2.15-3.53-2.38-6.66-2.62-10.75l-.23-3.55z" fill="#F0F0F2"/><path d="m844 232 3 1-2.81 3.38-1.58 1.89C841 240 841 240 838 242c.41-4.83 2.46-6.83 6-10" fill="#D9D9DD"/><path d="M400 691c-2.68 2.68-4 3-7.88 3.25A64 64 0 0 1 382 693v-1a135 135 0 0 1 18-1" fill="#DEE0DF"/><path d="m212.13 623.94 2.75.03 2.13.03-1 3h-15c4.4-2.2 6.28-3.12 11.12-3.06" fill="#EFEFF1"/><path d="m353 581 2 1c-1.45 3.44-3.28 5.36-6.12 7.75l-2.2 1.86L345 593l-2-2z" fill="#1B1D1D"/><path d="M841 349h1q.8 3.62 1.56 7.25l.46 2.07c.73 3.5 1.3 6.28-.02 9.68-4.04-5.9-3.28-12.07-3-19" fill="#2E2E30"/><path d="m386 318 3 1-10 10-2-1z" fill="#E6E7E9"/><path d="M814 255v2l-4.88 2-2.74 1.12C804 261 804 261 802 261c1-3 1-3 2.81-4.12A22.5 22.5 0 0 1 814 255" fill="#E7E7EA"/><path d="m926 153 1 2c-1 1.95-1 1.95-2.44 4.12l-1.43 2.2L922 163l-4-1z" fill="#D6D8D7"/><path d="M218 677c-3.15 2.8-5.07 3.35-9.25 3.19l-2.7-.08L204 680l-1-2a99 99 0 0 1 15-1" fill="#EDEDEF"/><path d="M413 325c3.83 2.79 4.22 6.56 5 11l-2 2c-1-1-1-1-1.06-4.06L415 331h-2z" fill="#1D1E1D"/><path d="M255 498h2v2h3l3 6-2 3-3-4.94-1.69-2.77C255 499 255 499 255 498" fill="#E9E9EA"/><path d="m850 288 2 2-3.88 2.5-2.17 1.41C844 295 844 295 842 295v-3z" fill="#EDECF2"/><path d="m374 462 3 1c1.19 2.56 1.19 2.56 2 5l-2 1-2-4h-3v3h-5a41 41 0 0 1 7-6" fill="#D4BE75"/><path d="m240 423 3 1v11h-2z" fill="#E6E7E7"/><path d="m238 391 1 2h2l1 6h-2v5c-1.78-3.06-2.23-5.22-2.12-8.75l.05-2.42z" fill="#0A0C0A"/><path d="M359 347v2h-13l1-2c2.21-.45 2.21-.45 4.94-.69l2.71-.26C357 346 357 346 359 347" fill="#EEF0ED"/><path d="m851 452 2 1c.41 2.07.41 2.07.62 4.56l.23 2.51.15 1.93-3 1z" fill="#F0F1F4"/><path d="M442 364c-1 3-1 3-2.78 4.17l-2.16 1.02-2.15 1.04C433 371 433 371 431 371c1-3 1-3 2.78-4.17l2.16-1.02 2.15-1.04C440 364 440 364 442 364" fill="#EAEAED"/><path d="M308 355v2q-1.87.8-3.75 1.56l-2.11.88c-2.44.64-3.78.36-6.14-.44l4.31-2 2.43-1.12C305 355 305 355 308 355" fill="#E6EAE7"/><path d="M825 250v2l-11 5c2.5-4.99 5.33-7 11-7" fill="#DBDDDD"/><path d="M514 326c-7.71 6-7.71 6-11 6 1.11-3.32 1.48-3.62 4.38-5.25l1.83-1.08C511 325 511 325 514 326" fill="#DFDFE2"/><path d="M609 278c-2.23 2.23-3.66 2.69-6.62 3.62l-2.48.79-1.9.59c1-3 1-3 4.38-4.75C606 277 606 277 609 278" fill="#E5E4E7"/><path d="M801 646h1c.64 5.26-.79 7.69-3.91 11.68L797 659l-1-2c1-2.6 1-2.6 2.44-5.62l1.43-3.04z" fill="#ADAFAF"/><path d="m285 552 2 3-6 7-2-2z" fill="#DBDADC"/><path d="M855 494a21 21 0 0 1 3 4c-.28 3-1.65 5.34-3 8l-.56-5.44-.32-3.06-.12-2.5z" fill="#E0E1E4"/><path d="m237 393 1 12-2 1-2-12c2-1 2-1 3-1" fill="#EFF1F0"/><path d="M672 258c-3.27 1.88-6.28 2.49-10 3v-3c4.08-2.1 5.92-2.1 10 0" fill="#E3E3E5"/><path d="m900 220 1 4 2 1-3 6h-2z" fill="#CFD2D2"/><path d="M237 379c3 3 3 3 3.19 6.19L240 388h-3z" fill="#0C0E0B"/><path d="M404 310c3.26 1.8 4.89 2.83 7 6h-3l-2-2q-3.49-.6-7-1v-1h5z" fill="#D0D3D1"/><path d="m372 558 4 1-4 5-3-1z" fill="#ECEEEF"/><path d="M285 471h8l-1 3v-2h-2v2h-6z" fill="#E9CF80"/><path d="m313 686-5 5-3-1c1-3 1-3 3.44-4.25C311 685 311 685 313 686" fill="#191A1D"/><path d="M802 642h6l-3 1-.38 2.38C804 648 804 648 802 650z" fill="#C2C4C5"/><path d="m241 343 2 1v3h-2l-1 3h-3a56 56 0 0 1 4-7" fill="#242624"/><path d="M418 336h3a14 14 0 0 1 2 4c-.88 2.75-.88 2.75-2 5a26 26 0 0 1-3-9" fill="#CECDD0"/><path d="M856 210h2l-1 7h-4c1.88-4.75 1.88-4.75 3-7" fill="#EFEEF1"/><path d="M742 253c4.22.48 6.8 1.17 10 4l-9-1z" fill="#D3D3D4"/><path d="M918 163h3a19 19 0 0 1-5 7l-1-3c1.25-2.19 1.25-2.19 3-4" fill="#E6E9E8"/><path d="M249 474h3l1 8c-3.33-2.22-3.75-3.35-5-7z" fill="#D0D1D0"/><path d="M366 468c1.43 2.86.6 4.93 0 8l-3-1c.75-4.75.75-4.75 3-7" fill="#D7C083"/><path d="M891 248c0 4-1.73 5.8-4 9l-1-3c2.33-4.67 2.33-4.67 5-6" fill="#EAE8EB"/><path d="M805 643h5l-3 6-2-2z" fill="#A9ABAC"/><path d="m283 626 3 2-5 4-2-1z" fill="#0C0C0B"/><path d="m580 288 3 3-6 2v-3z" fill="#E3E4E3"/><path d="m238 666 2 1-3 7-2-1c-.19-2.38-.19-2.38 0-5z" fill="#C9CAC5"/><path d="m810 643 2 1-4 7c-.69-1.75-.69-1.75-1-4 1.44-2.25 1.44-2.25 3-4" fill="#070809"/><path d="m873 567 4 1v3h-2l-1 4z" fill="#E5E6E8"/><path d="m870 553 4 1-2 6c-1.46-2.65-2-3.89-2-7" fill="#D6D8DB"/><path d="M281 472h3v6l-3-1z" fill="#D6C378"/><path d="m376 462 6 2-2 5c-2.5-2.17-3.44-3.73-4-7" fill="#2D220F"/><path d="M417 336c3.01 3.01 2.6 5.82 3 10-2.35-2.55-2.98-3.71-3.19-7.25z" fill="#0C0C0D"/><path d="M365 342c-1.05 2.62-1.65 3.79-4.12 5.25L359 348l-1-2c4.75-4 4.75-4 7-4" fill="#D2D2D4"/><path d="m375 333 3 1-3 4-3-1z" fill="#1A1A1A"/></svg>