<svg style="background:transparent" version="1.1" xmlns="http://www.w3.org/2000/svg" viewBox="0 0 1248 704"><path d="M520 5a49 49 0 0 1 5.13 3.65C527 10 527 10 529.79 11.32c3.8 1.99 6.75 4.44 9.96 7.24l1.75 1.5A118 118 0 0 1 548 26q1.64 1.24 3.31 2.44c4.32 3.2 8.39 6.66 12.46 10.16a367 367 0 0 0 14.82 11.87c4.3 3.32 4.3 3.32 5.41 5.53h87l2-4q2.03-1.38 4.11-2.68c2.42-1.69 4.52-3.63 6.7-5.63 4.55-4.17 9.27-7.98 14.19-11.69l2.27-1.77 2.17-1.67 1.93-1.49C706 26 706 26 708 26l.81-1.94C710 22 710 22 713 21l1.38-1.88c1.93-2.52 3.88-3.51 6.62-5.12l4.88-3.56c6.25-4.37 11.4-6.09 18.99-4.98 3.32.84 5.48 2.41 8.13 4.54l1.85 1.39c5.53 4.33 6.89 8.17 7.84 15.05.34 4.05.2 7.89-.13 11.94-.71 8.82-.61 17.61-.52 26.46l.02 3.49.04 3.09c-.08 2.9-.3 5.67-.6 8.55-.56 6.04-.61 12.01-.55 18.07l.02 3.49.05 7.43.06 11.8.01 4.06.01 2.05q.05 13.7.15 27.41l.09 18.57q0 4.89.05 9.78c.24 25.59.24 25.59-4.39 37.37l-1.04 3.21c-2.78 8.09-10.41 14.61-16.34 20.54l-2.13 2.21A49 49 0 0 1 723.76 256c-1.76 1-1.76 1-2.76 3-.28 5.53.26 9.69 2 15l1.38 4.81c2.16 7.17 4.78 13.82 8.55 20.3 1.82 3.21 3.44 6.52 5.07 9.83l1 2.01 1.99 4.02 4.09 8.18c3.54 7.1 6.02 14.19 8.17 21.82a97 97 0 0 0 4.81 13.41c.94 2.62.94 2.62 1.38 5.93a31 31 0 0 0 2.12 7.75c1.39 3.48 1.52 6.18 1.44 9.94l1 3.44c1.04 3.71 1.07 6.73 1 10.56l1 4q.06 3 0 6c0 3 0 3 .49 4.79 1.61 6.98.94 15.22-.49 22.21l-1 1q-.02 2.1.06 4.19c.05 4.04-.68 6.99-2.06 10.81-.44 2.66-.72 5.31-1 8l2.31-.66c9.58-2.58 16.59-3.98 25.69.66l2.88 1.19c9.1 5.28 14.88 12.2 18.24 22.12L812 484l.78 2.89c1.39 5.21 2.32 9.7 2.22 15.11l.5 3.5c.46 3.23.58 6.25.5 9.5l2-2.88a177 177 0 0 1 6.94-9c3.66-4.53 6.88-9.24 10.06-14.12 1.6-2.41 3.24-4.7 5-7h2l.82-1.79c9.79-18.27 35.45-32.19 54.43-38.02 26.08-7.4 50.71-1.54 74.34 11.16C974 455 974 455 975 458l1.75.38c3.33.92 4.87 3.16 7.25 5.62l2.46 2.39c4.48 4.38 8.62 8.72 12.25 13.82a40 40 0 0 0 3.79 4.6c11.1 13.2 15.87 30.48 15.81 47.38l.05 2.86c.01 8.87-2.55 14.78-8.55 21.2l-1.48 1.59c-4.59 4.72-7.87 6.88-14.54 7.3-7.08-.24-11.45-3.74-16.26-8.64-5.25-6.42-6.9-15.23-8.53-23.19-.86-4.13-2.3-7.88-3.94-11.77q-1.05-2.52-2-5.08c-3.01-8.11-6.8-15.43-14.06-20.46l-2.25-1.93c-8.61-6.47-19.25-8.12-29.75-7.07q-2.01.44-4 1l-2.52.58c-5.58 1.37-10.01 3.04-14.75 6.28A29 29 0 0 1 889 498l2 4c-3 2-3 2-7 2a75 75 0 0 0-3.66 5.04 38 38 0 0 1-4.09 4.9c-3.01 3.43-5.09 7.25-7.25 11.25-7.96 14.69-17.99 30.12-30 41.81l-2.12 2.75C835 572 835 572 832 573c-1.65 1.74-1.65 1.74-3.38 3.88-2.66 3.13-4.93 5.23-8.62 7.12l-2.88 1.94c-8.84 5.83-18.28 10.17-28.12 14.06l-2.56 1.06c-2.44.94-2.44.94-4.44 1.19-2.72 1.02-3.98 2.91-5.73 5.14-3 3.79-6.61 6.92-10.27 10.05a49 49 0 0 0-6.44 6.56c-2.9 3.39-6.06 5.79-9.67 8.39C748 634 748 634 747 637l1.75.31c6.27 1.93 11.17 8.14 14.35 13.64 1.49 3.39 1.72 6.35 1.9 10.05l.27 2.45c-.38 3.55-1.86 4.77-4.39 7.24l-2.33 2.32c-10.5 8.18-29.48 5.56-41.89 4.41-3.85-.61-7.07-1.91-10.66-3.42q-2.5-.55-5-1l1.9 1.87c7.58 7.85 9.18 12.73 9.13 23.42l-.01 3.25L712 704q-14.4.18-28.79.26-6.69.04-13.37.12-6.45.07-12.89.09-2.47.01-4.93.06-3.44.04-6.89.04l-3.96.03c-3.17-.6-3.17-.6-5.05-2.99L635 699l-1.11-2.39a52 52 0 0 1-2.08-9.36l-.54-3.48L631 681l1-1c.07-2.72 0-5.42-.06-8.14C632 669 632 669 633 664h-15l2 3c.16 2.45.16 2.45.06 5.12q-.08 2.44-.06 4.88l1 1c.15 3.89.05 7.27-1 11l-.31 3.25a25 25 0 0 1-2.73 7.98l-1.11 2.15L615 704q-14.42.07-28.84.1l-13.39.05-17.85.06-6.9.02-3.97.01C541 704 541 704 539 702c-.66-7.38.65-14.56 4.88-20.75L546 679q1.32-1.59 2.62-3.19C551 673 551 673 553 671l-2.12.8A128 128 0 0 1 534 677l-2.29.54c-5.82.98-11.82.58-17.71.46l-3.59-.05c-8.63-.35-13.63-2.27-19.79-8.26-3.02-5.01-4.02-8.77-2.81-14.57C491.42 647 498.65 640.69 506 636c-3.87-4.13-8.13-7.56-12.6-11.04A86 86 0 0 1 487 619l-3-2v-2l-1.94-.81C480 613 480 613 479 610c-1.74-1.65-1.74-1.65-3.88-3.38A28 28 0 0 1 468 598q-1.36-1.59-2.77-3.14c-3.29-3.79-5.85-7.83-8.35-12.17l-1.32-2.27a88 88 0 0 1-6.76-14.21c-1.13-3.13-2.55-6.1-3.97-9.1A35 35 0 0 1 443 550l-.5-2.5-2-10.02-1-4.8c-4.47-21.13-3.49-43.83 7.5-62.68l2-3.44c4.8-6.14 14.28-11.11 22-12.56 6.54-.55 12.64.51 19 2l-.94-3.88a86 86 0 0 1-1.8-12.4q-.4-4.02-.83-8.02c-1.16-11.13-2.2-21.99.05-33.08q.72-3.67 1.2-7.39l.38-2.69.75-5.53c1.1-7.94 2.46-15.48 5.41-22.96 1.42-3.73 2.54-7.55 3.72-11.36 5.15-16.44 11.45-31.66 20.26-46.47a96 96 0 0 0 6.3-14.22c.94-2.56 1.95-5 3.06-7.5 2.87-6.99 4.51-13.93 3.44-21.5-1.56-2.31-1.56-2.31-4-4l-3.31-2.38-1.84-1.28C509.3 242.26 497.02 229.67 494 214l-.53-2.32c-2.15-10.63-1.7-21.38-1.63-32.17l.02-6.59.06-17.28.1-27.55.04-9.51c.05-11.64-.22-23.22-.84-34.85-.32-6.33-.3-12.64-.22-18.98.08-6.88.02-13.59-.76-20.43-1.18-11.39-1.44-22 5.64-31.51C501.61 6.64 511.76 2.03 520 5m35 664-1 2 3-1z" fill="#161816"/><path d="m950 447 2.42.81c9.27 3.16 17.34 6.42 24.58 13.19l2.47 2.12c16.71 14.52 34.25 36.32 36.37 59.16.84 14.06.61 23.66-8.74 34.61-4.23 4.25-8.36 5.24-14.16 5.55-6.16-.22-9.19-2.77-13.56-6.94-4.91-6.29-6.29-14.8-7.82-22.44-2.24-10.91-6.18-20.91-12.56-30.06l-1.6-2.34c-6.91-8.9-20.12-15.6-31.3-17.03-16.21-.36-30.67 6.47-42.4 17.44-8.58 9.3-15.41 19.98-21.39 31.09-4.07 7.46-9.12 14.12-14.31 20.84l-2.12 2.81a123.6 123.6 0 0 1-48.63 38.13l-2.73 1.22c-5.1 2.17-8.97 3.33-14.52 2.84l2-4h2l.75-2.19c1.25-2.81 1.25-2.81 3.1-5.06 11.75-15 17.83-36.84 22.2-55.08 1.12-3.16 2.85-5.07 4.95-7.67q1.08-2.55 2.12-5.11c1.7-3.66 4.19-6.83 6.57-10.08l3.26-4.52 1.59-2.22a189 189 0 0 0 5.46-8.32c16.05-24.4 41.63-43.84 70-50.75l2.28-.58c15.01-2.31 29.48-.27 43.72 4.58" fill="#0F1110"/><path d="M520 5a49 49 0 0 1 5.13 3.65C527 10 527 10 529.79 11.32c3.8 1.99 6.75 4.44 9.96 7.24l1.75 1.5A118 118 0 0 1 548 26q1.64 1.24 3.31 2.44c4.32 3.2 8.39 6.66 12.46 10.16a367 367 0 0 0 14.82 11.87c4.3 3.32 4.3 3.32 5.41 5.53h87l2-4q2.03-1.38 4.11-2.68c2.42-1.69 4.52-3.63 6.7-5.63 4.55-4.17 9.27-7.98 14.19-11.69l2.27-1.77 2.17-1.67 1.93-1.49C706 26 706 26 708 26l.81-1.94C710 22 710 22 713 21l1.38-1.88c1.93-2.52 3.88-3.51 6.62-5.12l4.88-3.56c6.25-4.37 11.4-6.09 18.99-4.98 3.32.84 5.48 2.41 8.13 4.54l1.85 1.39c5.53 4.33 6.89 8.17 7.84 15.05.34 4.05.2 7.89-.13 11.94-.71 8.82-.61 17.61-.52 26.46l.02 3.49.04 3.09c-.08 2.9-.3 5.67-.6 8.55-.56 6.04-.61 12.01-.55 18.07l.02 3.49.05 7.43.06 11.8.01 4.06.01 2.05q.05 13.7.15 27.41l.09 18.57q0 4.89.05 9.78c.24 25.59.24 25.59-4.39 37.37l-1.04 3.21c-2.78 8.09-10.41 14.61-16.34 20.54l-2.13 2.21A49 49 0 0 1 723.76 256c-1.76 1-1.76 1-2.76 3-.28 5.53.26 9.69 2 15l1.38 4.81c2.16 7.17 4.78 13.82 8.55 20.3 1.82 3.21 3.44 6.52 5.07 9.83l1 2.01 1.99 4.02 4.09 8.18c3.54 7.1 6.02 14.19 8.17 21.82a97 97 0 0 0 4.81 13.41c.94 2.62.94 2.62 1.38 5.93a31 31 0 0 0 2.12 7.75c1.39 3.48 1.52 6.18 1.44 9.94l1 3.44c1.04 3.71 1.07 6.73 1 10.56l1 4q.06 3 0 6c0 3 0 3 .49 4.79 1.61 6.98.94 15.22-.49 22.21l-1 1q-.02 2.1.06 4.19c.05 4.04-.68 6.99-2.06 10.81-.44 2.66-.72 5.31-1 8l2.31-.66c9.58-2.58 16.59-3.98 25.69.66l2.88 1.19c9.1 5.28 14.88 12.2 18.24 22.12L812 484l.78 2.89c1.39 5.21 2.32 9.7 2.22 15.11l.5 3.5c.46 3.23.58 6.25.5 9.5l2-2.88a177 177 0 0 1 6.94-9c3.66-4.53 6.88-9.24 10.06-14.12 1.6-2.41 3.24-4.7 5-7h2l.82-1.79c9.79-18.27 35.45-32.19 54.43-38.02 26.08-7.4 50.71-1.54 74.34 11.16C974 455 974 455 975 458l1.75.38c3.33.92 4.87 3.16 7.25 5.62l2.46 2.39c4.48 4.38 8.62 8.72 12.25 13.82a40 40 0 0 0 3.79 4.6c11.1 13.2 15.87 30.48 15.81 47.38l.05 2.86c.01 8.87-2.55 14.78-8.55 21.2l-1.48 1.59c-4.59 4.72-7.87 6.88-14.54 7.3-7.08-.24-11.45-3.74-16.26-8.64-5.25-6.42-6.9-15.23-8.53-23.19-.86-4.13-2.3-7.88-3.94-11.77q-1.05-2.52-2-5.08c-3.01-8.11-6.8-15.43-14.06-20.46l-2.25-1.93c-8.61-6.47-19.25-8.12-29.75-7.07q-2.01.44-4 1l-2.52.58c-5.58 1.37-10.01 3.04-14.75 6.28A29 29 0 0 1 889 498l2 4c-3 2-3 2-7 2a75 75 0 0 0-3.66 5.04 38 38 0 0 1-4.09 4.9c-3.01 3.43-5.09 7.25-7.25 11.25-7.96 14.69-17.99 30.12-30 41.81l-2.12 2.75C835 572 835 572 832 573c-1.65 1.74-1.65 1.74-3.38 3.88-2.66 3.13-4.93 5.23-8.62 7.12l-2.88 1.94c-8.84 5.83-18.28 10.17-28.12 14.06l-2.56 1.06c-2.44.94-2.44.94-4.44 1.19-2.72 1.02-3.98 2.91-5.73 5.14-3 3.79-6.61 6.92-10.27 10.05a49 49 0 0 0-6.44 6.56c-2.9 3.39-6.06 5.79-9.67 8.39C748 634 748 634 747 637l1.75.31c6.27 1.93 11.17 8.14 14.35 13.64 1.49 3.39 1.72 6.35 1.9 10.05l.27 2.45c-.38 3.55-1.86 4.77-4.39 7.24l-2.33 2.32c-10.5 8.18-29.48 5.56-41.89 4.41-3.85-.61-7.07-1.91-10.66-3.42q-2.5-.55-5-1l1.9 1.87c8.54 8.85 9.38 14.82 9.17 26.82L712 704l-4-1 .14-2.78c.26-8.7.09-14.58-5.87-21.11-4.62-4.38-9.37-6.8-15.27-9.11v-9q3.59 1.79 7.14 3.62c13.21 6.76 23.77 9.56 38.67 9.57l3.45.03c15.92.03 15.92.03 21.24-4.22 3.62-4.83 3.14-10.18 2.5-16-2.42-6.56-7.92-12.1-14.23-15.04A106 106 0 0 0 740 637c1.16-3.47 1.61-3.6 4.62-5.38 12.06-7.71 25.12-18.65 32.57-30.96 2.31-2.12 4.61-2.49 7.63-3.13 3.58-.87 6.84-2.39 10.18-3.91l2.13-.95L803 590l2.39-1.07c26.19-12.26 44.57-36.96 58.55-61.43 11.55-20.07 24.74-35.59 47.12-43.44 13.36-3.47 24.41.23 36.19 6.63 14.77 9.45 21.24 26.08 25.75 42.31q.82 4.24 1.48 8.5c1.43 6.89 4.65 12.5 9.52 17.5 4.5 2.75 8.88 2.59 14 2 6.59-1.65 9.83-5.82 13.55-11.27 5.88-11.11 4.42-25.87 1.45-37.73-3.26-9.61-8.07-17.81-14-26l-2.16-3.06C984.3 465.6 970.15 454.6 950 448l-2.31-.78c-21.89-7.25-43.85-6.08-64.6 4.15-9.62 5.07-19.17 10.41-26.74 18.36C855 471 855 471 853 471l-.78 1.78c-1.33 2.42-2.75 3.85-4.78 5.72-8.39 8.2-14.66 18.19-21.08 27.95a252 252 0 0 1-6.3 9.05 39 39 0 0 0-4.81 8.56L814 527l-3 1 .03-2.64a1630 1630 0 0 0 .12-14.13c.19-15.96-.56-30.97-11.26-43.75-8.39-8.02-16.58-9.93-27.98-9.91-4.87.54-9.28 1.89-13.91 3.43l1.44-11.62.41-3.32.4-3.22.36-2.96q.4-2.9.92-5.8c.94-6.19.71-12.51.72-18.77v-2.24c-.01-11.62-.76-22.71-3.25-34.07l-.74-3.86c-5.26-26.08-15.75-50.95-28.24-74.29-5.03-9.53-10.35-20.11-12.02-30.85l-.52-3.02c-.33-3.62-.34-6.43.52-9.98 3.47-3.83 7.62-6.29 12-9 14.88-10.92 23.74-22.6 26.73-41.02.74-5.44.71-10.9.7-16.37l.03-4.11q.04-5.5.05-11.02l.06-11.7q.06-11.11.09-22.24.05-13.65.13-27.3.08-14.32.12-28.64l.02-6.84.01-4.43q.02-13.67.29-27.33l.12-8.12q.07-3.5.19-6.99c.17-8.14-.76-13.84-6.54-19.89-4.45-3.5-9.35-3.7-14.86-3.53-9.42 1.58-16.75 9.56-23.75 15.63a268 268 0 0 1-10.51 8.52 602 602 0 0 0-12.26 9.76l-2.52 2.02a108 108 0 0 0-6.47 5.83c-10.32 9.65-18.12 11.74-32.01 11.5l-5.46.03q-5.68.03-11.38-.07a464 464 0 0 0-14.44.05q-5.63.06-11.26 0-2.66-.02-5.32.03c-13.8.19-21.12-3.62-31-13.14-2.78-2.58-5.8-4.84-8.82-7.13a316 316 0 0 1-14.5-12.06C523.08 8.11 523.08 8.11 509.77 8.62c-5.31.73-8.19 3.59-11.58 7.44-3.45 4.63-3.33 8.46-3.29 14v2.56q0 4.3.03 8.6l.01 6.24.04 13.89.04 22.13q.02 21.46.11 42.92.06 11.79.07 23.59 0 10.51.06 21.02.03 5.5.03 10.99c-.05 21.45.63 40.52 16.15 56.94 5.38 5.19 11.34 9.5 17.44 13.81C532 255 532 255 534 257c.3 2.91.3 2.91.31 6.5l.05 3.53c-.77 8.4-4.04 16.1-7.36 23.78l-1.18 2.75a239 239 0 0 1-9.26 18.63C506.11 331.61 499.15 352.6 494 374l-.68 2.78c-5.54 23.57-5.1 49.4-.68 73.14.58 3.34.97 6.71 1.36 10.08-6.61-.89-6.61-.89-8.8-1.51-9.37-2.09-18.29-1.09-26.61 3.67-10.56 7.48-14.43 18.52-16.82 30.74-5.74 34.38 6.5 72.09 26.23 100.1a154 154 0 0 0 8 10l1.29 1.49c9.9 11.36 20.7 21.62 33.8 29.21L513 635v2l-1.94.66c-7.52 2.76-13.35 5.96-17.5 13.03-2.2 4.89-2.26 10.04-1.56 15.31 1.23 3.21 1.76 3.86 4.81 5.69 16.51 6.79 39.14 2.6 55.17-4.02A290 290 0 0 0 560 664q2.5-1.02 5-2v8l-1.98.92c-8.36 4.01-13.85 7.59-18.02 16.08-1.12 3.53-1.3 7.07-1.56 10.75l-.26 3.55-.18 2.7-4-2c-.42-7.48.58-14.44 4.88-20.75L546 679q1.32-1.59 2.62-3.19C551 673 551 673 553 671l-2.12.8A128 128 0 0 1 534 677l-2.29.54c-5.82.98-11.82.58-17.71.46l-3.59-.05c-8.63-.35-13.63-2.27-19.79-8.26-3.02-5.01-4.02-8.77-2.81-14.57C491.42 647 498.65 640.69 506 636c-3.87-4.13-8.13-7.56-12.6-11.04A86 86 0 0 1 487 619l-3-2v-2l-1.94-.81C480 613 480 613 479 610c-1.74-1.65-1.74-1.65-3.88-3.38A28 28 0 0 1 468 598q-1.36-1.59-2.77-3.14c-3.29-3.79-5.85-7.83-8.35-12.17l-1.32-2.27a88 88 0 0 1-6.76-14.21c-1.13-3.13-2.55-6.1-3.97-9.1A35 35 0 0 1 443 550l-.5-2.5-2-10.02-1-4.8c-4.47-21.13-3.49-43.83 7.5-62.68l2-3.44c4.8-6.14 14.28-11.11 22-12.56 6.54-.55 12.64.51 19 2l-.94-3.88a86 86 0 0 1-1.8-12.4q-.4-4.02-.83-8.02c-1.16-11.13-2.2-21.99.05-33.08q.72-3.67 1.2-7.39l.38-2.69.75-5.53c1.1-7.94 2.46-15.48 5.41-22.96 1.42-3.73 2.54-7.55 3.72-11.36 5.15-16.44 11.45-31.66 20.26-46.47a96 96 0 0 0 6.3-14.22c.94-2.56 1.95-5 3.06-7.5 2.87-6.99 4.51-13.93 3.44-21.5-1.56-2.31-1.56-2.31-4-4l-3.31-2.38-1.84-1.28C509.3 242.26 497.02 229.67 494 214l-.53-2.32c-2.15-10.63-1.7-21.38-1.63-32.17l.02-6.59.06-17.28.1-27.55.04-9.51c.05-11.64-.22-23.22-.84-34.85-.32-6.33-.3-12.64-.22-18.98.08-6.88.02-13.59-.76-20.43-1.18-11.39-1.44-22 5.64-31.51C501.61 6.64 511.76 2.03 520 5m35 664-1 2 3-1z" fill="#E5E6E7"/><path d="M673 495c1.2 3.76.64 6.11-.85 9.79-2.16 4.16-5.16 7.63-8.15 11.21l-1.43 1.87c-1.8 2.34-3.08 3.94-5.88 5.01L655 523v2c-2.48 1.73-2.48 1.73-5.75 3.62l-3.23 1.92C643 532 643 532 639 532l.43 3.94c1.74 17.46 1.91 34.84 1.89 52.38q-.01 4.92.02 9.84c.22 41.49.22 41.49-3.34 60.84-1 1-1 1-3.04 1.11l-2.65-.01-2.86-.01-3.01-.03-3.02-.01L616 660c-11.79-38.76-5.24-87.12-3-127l-2.43-1.17c-13.08-6.4-25.04-15.04-30.88-28.94-.68-2.85-.72-4.2.31-6.89l1.66 2.05c8.92 10.47 20.02 18.92 33.34 22.95l1.84.57c13.28 2.66 24.47-.98 35.85-7.82A85 85 0 0 0 673 495" fill="#000"/><path d="M739 471h2c-.37 30.53-3.3 60.74-14.1 89.57a153 153 0 0 0-1.93 5.57 159 159 0 0 1-3.53 9.18A367 367 0 0 0 697 666c-3.89-1.15-7.04-2.17-10-5-3.14-19.07 8.87-44.53 15-62l1.89-5.49c3.38-9.8 6.92-19.55 10.53-29.28l.8-2.15q.75-2.01 1.53-4.01a201 201 0 0 0 5.56-17.26l1.87-6.49.93-3.26q1.18-4.03 2.43-8.03c5.24-17.02 8.24-34.54 11.46-52.03" fill="#000100"/><path d="M512 471c2.03 3.04 2.46 4.62 3.08 8.14l.57 3.15.6 3.4c4.2 22.5 10.36 43.91 17.78 65.53q2.51 7.35 4.93 14.75a473 473 0 0 0 7.04 20.09l2.22 5.88 1.61 4.24c4 10.62 7.22 21.31 9.98 32.32l.88 3.5c5.49 22.56 5.49 22.56 4.31 29a19.4 19.4 0 0 1-7 5l-3-1-.16-2.23c-2.19-28.3-10.33-53.91-20.78-80.12A392 392 0 0 1 522 548l-.68-2.27c-4.15-14.01-6.39-28.26-8.32-42.73l-.33-2.35c-.8-6.24-.78-12.43-.73-18.71l.01-3.2z" fill="#000101"/><path d="m916 485-1 3-2.94.25c-6.64.94-12.41 4.3-18.06 7.75q-2.48 1.05-5 2l2 4c-3 2-3 2-7 2a75 75 0 0 0-3.66 5.04 38 38 0 0 1-4.09 4.9c-3.01 3.43-5.09 7.25-7.25 11.25-7.96 14.69-17.99 30.12-30 41.81l-2.12 2.75C835 572 835 572 832 573c-1.65 1.74-1.65 1.74-3.38 3.88-2.66 3.13-4.93 5.23-8.62 7.12l-2.88 1.94c-8.84 5.83-18.28 10.17-28.12 14.06l-2.56 1.06c-2.44.94-2.44.94-4.44 1.19-2.72 1.02-3.98 2.91-5.73 5.14-3 3.79-6.61 6.92-10.27 10.05a49 49 0 0 0-6.44 6.56c-2.9 3.39-6.06 5.79-9.67 8.39C748 634 748 634 747 637l1.75.31c6.27 1.93 11.17 8.14 14.35 13.64 1.49 3.39 1.72 6.35 1.9 10.05l.27 2.45c-.38 3.55-1.86 4.77-4.39 7.24l-2.33 2.32c-10.5 8.18-29.48 5.56-41.89 4.41-3.85-.61-7.07-1.91-10.66-3.42q-2.5-.55-5-1l1.9 1.87c8.54 8.85 9.38 14.82 9.17 26.82L712 704l-4-1 .14-2.78c.26-8.7.09-14.58-5.87-21.11-4.62-4.38-9.37-6.8-15.27-9.11v-9q3.59 1.79 7.14 3.62c13.21 6.76 23.77 9.56 38.67 9.57l3.45.03c15.92.03 15.92.03 21.24-4.22 3.62-4.83 3.14-10.18 2.5-16-2.42-6.56-7.92-12.1-14.23-15.04A106 106 0 0 0 740 637c1.16-3.47 1.61-3.6 4.62-5.38 12.06-7.71 25.12-18.65 32.57-30.96 2.31-2.12 4.61-2.49 7.63-3.13 3.58-.87 6.84-2.39 10.18-3.91l2.13-.95L803 590l2.39-1.07c26.19-12.26 44.57-36.96 58.55-61.43 10.99-19.1 27.47-42.96 52.06-42.5" fill="#E5E8E5"/><path d="M760 62h1q.3 2.9.56 5.81l.32 3.27c.1 3.11-.04 5.84-.37 8.91-.57 6.04-.62 12-.56 18.05l.02 3.49.05 7.43.06 11.8.01 4.06.01 2.05q.05 13.7.15 27.41l.09 18.57q0 4.89.05 9.78c.24 25.59.24 25.59-4.39 37.37l-1.04 3.21c-2.78 8.09-10.41 14.61-16.34 20.54l-2.13 2.21A49 49 0 0 1 723.76 256c-1.76 1-1.76 1-2.76 3-.28 5.53.26 9.69 2 15l1.38 4.81c2.16 7.17 4.78 13.82 8.55 20.3 1.82 3.21 3.44 6.52 5.07 9.83l1 2.01 1.99 4.02 4.09 8.18c3.54 7.1 6.02 14.19 8.17 21.82a97 97 0 0 0 4.81 13.41c.94 2.62.94 2.62 1.38 5.93a31 31 0 0 0 2.12 7.75c1.39 3.48 1.52 6.18 1.44 9.94l1 3.44c1.04 3.71 1.07 6.73 1 10.56l1 4q.06 3 0 6c0 3 0 3 .49 4.79 1.61 6.98.94 15.22-.49 22.21l-1 1q-.02 2.1.06 4.19c.05 3.98-.4 7.12-2.06 10.81l-2 1-.06-6.12-.04-3.45c.1-3.43.1-3.43.59-6.2.98-6.24.75-12.61.76-18.92v-2.24c-.01-11.62-.76-22.71-3.25-34.07l-.74-3.86c-5.26-26.08-15.75-50.95-28.24-74.29-5.03-9.53-10.35-20.11-12.02-30.85l-.52-3.02c-.33-3.62-.34-6.43.52-9.98 3.47-3.83 7.62-6.29 12-9 13.64-10.01 23.39-21.22 26.4-38.25 1.49-10.21 1.06-20.67 1.08-30.96l.04-7.64q.06-8.99.08-17.98.07-17 .17-33.97l.04-11.03c.04-11.26.2-22.5.64-33.76l.12-3.1.12-2.83.11-2.48c.2-2 .2-2 1.2-4" fill="#E4E6E6"/><path d="M812 528h3c5.77 17.31-2.58 36.18-9 52h-2l-.25 2c-2.39 9.58-2.39 9.58-7.44 12.62-5.52 2.44-10.27 4.07-16.31 3.38l2-4h2l.75-2.19c1.25-2.81 1.25-2.81 3.1-5.06 11.9-15.19 17.68-37.1 22.49-55.47C811 529 811 529 812 528" fill="#010101"/><path d="m750.13 7.69 2.88 2.3q.9.7 1.85 1.4c5.44 4.28 6.88 8.03 7.74 14.85.62 6.44.15 12.78-.33 19.22l-.42 6.19c-.72 10.07-.72 10.07-1.85 12.35q-.22 2.71-.32 5.45l-.12 3.26-.12 3.42-.14 3.44L759 88h-1l.04-2.48q.2-11.63.28-23.26.03-5.97.13-11.95.09-5.78.12-11.56l.06-4.4c.2-8.84-.25-15.65-6.62-22.35-4.47-3.5-9.36-3.7-14.87-3.52-9.42 1.58-16.75 9.56-23.75 15.62a261 261 0 0 1-10.51 8.53 638 638 0 0 0-12.25 9.75l-2.53 2.02a97 97 0 0 0-6.45 5.85c-8.7 8.22-15.27 11.39-27.26 11.23l-5.32-.21-5.59-.05q-7.26-.1-14.51-.32-7.45-.19-14.9-.26-14.54-.22-29.07-.64l1-4h85l2-4q2.04-1.38 4.1-2.68c2.43-1.7 4.53-3.63 6.72-5.63 4.54-4.16 9.25-7.98 14.18-11.7l2.26-1.75 2.17-1.67 1.95-1.5C706 26 706 26 708 26q.38-.96.8-1.93C710 22 710 22 713 21l1.37-1.87c1.92-2.53 3.88-3.52 6.63-5.13q2.44-1.77 4.87-3.56c7.76-5.43 15.62-7.41 24.25-2.75" fill="#E4E5E6"/><path d="M520 5a49 49 0 0 1 5.13 3.65C527 10 527 10 529.79 11.32c3.8 1.99 6.75 4.44 9.96 7.24l1.75 1.5A118 118 0 0 1 548 26q1.64 1.24 3.31 2.44a217 217 0 0 1 12.46 10.17q4.45 3.81 9.11 7.37l1.93 1.47q1.84 1.4 3.7 2.76c3.42 2.6 5.33 4.61 6.49 8.79-4.63-2.56-8.56-5.77-12.62-9.12l-2.16-1.77-4.27-3.5q-3.81-3.13-7.64-6.23a620 620 0 0 1-10.04-8.41c-25.58-21.84-25.58-21.84-38.5-21.35-5.31.73-8.19 3.59-11.58 7.44-2.65 3.55-3.32 5.91-3.31 10.21v2.64l.01 2.89v3.04l.01 9.98.01 6.92.02 18.21.02 18.58L495 125h-2c-1.25-20.68-2.27-41.29-2.01-62.01.06-6.32-.01-12.48-.75-18.76-1.23-11.34-1.4-21.96 5.64-31.42C501.61 6.64 511.76 2.03 520 5" fill="#E4E6E5"/><path d="M488 409h1l.04 1.69a304 304 0 0 0 3.61 39.04c.52 3.41.94 6.84 1.35 10.27-6.61-.89-6.61-.89-8.8-1.51-9.37-2.09-18.29-1.09-26.61 3.67-10.56 7.48-14.43 18.52-16.82 30.74-4.36 26.15 2.91 52.81 12.23 77.1-4.77-1.84-5.88-4.97-7.97-9.4-1.26-3.18-1.7-6.2-2.03-9.6q-.96-2.51-2-5a79 79 0 0 1-2.75-14.92A47 47 0 0 0 438 525c-3.33-18.41-.31-39.03 9-55l2-3.44c4.8-6.14 14.28-11.11 22-12.56 6.54-.55 12.64.51 19 2l-.94-3.88c-2.39-9.87-2.07-19.66-1.62-29.74l.16-3.92q.18-4.73.4-9.46" fill="#E4E6E6"/><path d="M633.69 187.38c4.18 2.94 4.18 2.94 4.75 5.88-.65 4.06-2.6 5.78-5.44 8.74l-2 1-.93 3.44C629 210 629 210 626 212c-2.77-.2-4.48-.62-6.75-2.25-1.25-1.75-1.25-1.75-1.62-4.19-.86-3.53-2.76-4.47-5.63-6.56-2-3-2-3-2-5.37a14 14 0 0 1 4.86-6.69c5.85-2.59 13-1.73 18.83.44" fill="#626465"/><path d="M760 445h1l1 11c2.32 0 4.3-.49 6.56-1 8.07-1.62 13.94-1.82 21.44 2l2.88 1.19c9.1 5.28 14.88 12.2 18.24 22.12L812 484l.78 2.89c1.39 5.21 2.32 9.7 2.22 15.11l.5 3.5c.46 3.23.58 6.25.5 9.5l2-2.88a177 177 0 0 1 6.94-9c3.66-4.53 6.88-9.24 10.06-14.12 1.6-2.41 3.24-4.7 5-7h2l.81-1.94C844 478 844 478 847 477c-1.5 3.38-3.46 5.84-5.88 8.62-5.29 6.37-9.78 13.2-14.31 20.12a262 262 0 0 1-6.87 9.95 38 38 0 0 0-4.69 8.37L814 527l-3 1 .03-2.64a1630 1630 0 0 0 .12-14.13c.19-15.96-.56-30.97-11.26-43.75-7.24-6.92-14.43-9.67-24.39-9.92A52 52 0 0 0 758 461z" fill="#E8EAE9"/><path d="M760 62h1q.3 2.9.56 5.81l.32 3.27c.09 3.11-.04 5.83-.37 8.9-.57 6.1-.64 12.13-.61 18.25l.01 3.54.01 7.56.03 11.93.05 25.3.05 27.42.05 20.95.01 3.33v3.02l.01 2.63C761 206 761 206 760 208h-2l-.05-45.69-.03-21.23-.01-18.54-.02-9.78c-.02-12.82.05-25.61.55-38.42l.12-3.09.13-2.81.11-2.46C759 64 759 64 760 62" fill="#F0F3F2"/><path d="M616 661h21l-1 7c-.22 3.62-.23 7.24-.25 10.88l-.06 2.85c-.05 8.33 1.59 15.3 6.31 22.27h-4c-3.77-5.08-5.26-10.57-6.19-16.75l-.54-3.48L631 681l1-1c.07-2.72 0-5.42-.06-8.14C632 669 632 669 633 664h-15l2 3c.16 2.45.16 2.45.06 5.12q-.08 2.44-.06 4.88l1 1c.15 3.89.05 7.27-1 11l-.31 3.25c-.82 4.44-2.51 7.84-4.69 11.75l-4-1 1.38-2.06c3.09-5.59 3.87-10.86 3.82-17.19l-.01-1.98q-.02-3.1-.07-6.21l-.02-4.24q-.03-5.16-.1-10.32" fill="#F0F3F2"/><path d="m754 354 3 1c.56 1.75.56 1.75 1 4l1 2.25a26 26 0 0 1 1.5 6.81c.5 3.94.5 3.94 1.56 6.06 1.32 2.64.94 4.95.94 7.88l1 3.44c1.04 3.71 1.07 6.73 1 10.56l1 4q.06 3 0 6c0 3 0 3 .49 4.79 1.61 6.98.94 15.22-.49 22.21l-1 1q-.02 2.1.06 4.19c.05 3.98-.4 7.12-2.06 10.81l-2 1-.06-6.12-.04-3.45c.1-3.43.1-3.43.59-6.2.98-6.24.75-12.61.76-18.92v-2.24c-.01-11.6-.67-22.74-3.25-34.07l-.52-2.29q-1-4.49-2.12-8.93A99 99 0 0 1 754 354" fill="#E8EBE9"/><path d="m671 55 2 1c-1.49 1.97-1.49 1.97-4 4-2.85.37-5.32.51-8.17.45l-2.48.01q-4.06-.02-8.12-.07l-5.63-.02q-7.41-.02-14.81-.1-7.56-.05-15.13-.07-14.82-.08-29.66-.2l1-4 3.14.01 29.22.04 15.03.03 14.49.01 5.54.02h7.73l2.33.01c5.29-.01 5.29-.01 7.52-1.12" fill="#D4D7D8"/><path d="M947.25 490.69c14.78 9.46 21.22 26.08 25.75 42.3.61 2.89 1.13 5.74 1.54 8.65.46 2.36.46 2.36 1.51 4.98.95 2.38.95 2.38.95 5.38l-3-1c-1.1-2.62-1.1-2.62-2.06-6l-1.04-3.58c-.71-2.7-1.35-5.37-1.9-8.11-.86-4.13-2.3-7.88-3.94-11.77q-1.05-2.52-2-5.08c-3.01-8.1-6.8-15.43-14.06-20.46l-2.25-1.93c-9.15-6.88-19.73-7.82-30.75-7.07v-2l-4-1c12.72-3.72 24.1.64 35.25 6.69" fill="#D5D7D8"/><path d="m916 485-1 3-2.94.25c-6.64.94-12.41 4.3-18.06 7.75q-2.48 1.05-5 2l2 4c-3 2-3 2-7 2a75 75 0 0 0-3.66 5.04 38 38 0 0 1-4.09 4.9c-3.01 3.43-5.09 7.25-7.25 11.25-5.06 9.34-11.12 17.95-17.35 26.54q-1.67 2.28-3.27 4.61l-1.56 2.19-1.36 1.96c-1.74 1.8-3.01 2.13-5.46 2.51l2.31-3A392 392 0 0 0 866 524c10.65-18.05 27.01-39.43 50-39" fill="#DBDCDD"/><path d="M493 24h1c.95 33.67 1.12 67.32 1 101h-2l-.85-15.89-.3-5.39c-1.47-27-1.47-27-.11-38.75.66-7.51.65-15.07.82-22.59l.13-5.36z" fill="#D9DADA"/><path d="M493 125h2v84l-2-1c-.95-4.1-1.13-8.06-1.13-12.26l-.01-3.77.02-4.09v-2.11c.03-20.26.59-40.52 1.12-60.77" fill="#EEF1EF"/><path d="M734 8a183 183 0 0 1-10 7.56 211 211 0 0 0-13.96 11.17q-5.78 4.93-11.79 9.58A973 973 0 0 0 674 56l-3-2 1.65-1.25c4.08-3.12 8.04-6.31 11.85-9.75A204 204 0 0 1 698 32l2.27-1.77 2.17-1.67 1.93-1.49C706 26 706 26 708 26l.81-1.94C710 22 710 22 713 21l1.38-1.88c1.95-2.55 3.83-3.51 6.62-5.12q3-2.37 5.94-4.79c2.51-1.48 4.19-1.43 7.06-1.21" fill="#DFE0E3"/><path d="M490 659h1l.33 1.86.94 4.88c.84 2.6 1.67 3.5 3.73 5.26 6.37 3.17 12.94 3.51 19.94 3.44l3.03-.02c9.37-.19 18.05-1.85 27.03-4.42l3.33-.93q3.36-.98 6.67-2.07c-1.48 3.72-1.48 3.72-3.78 4.94l-2.16.62-2.42.72-2.64.72-2.86.82c-9.62 2.69-18.18 3.38-28.14 3.18l-3.59-.05c-8.78-.36-13.54-2.46-19.97-8.26-2.1-3.93-1.32-6.38-.44-10.69" fill="#DADCDD"/><path d="M488 409h1l.04 1.69a304 304 0 0 0 3.61 39.04c.52 3.41.94 6.84 1.35 10.27l-2.97-.43a582 582 0 0 0-14.68-1.91L471 457v-3c6.64-.21 12.53.49 19 2l-.94-3.88c-2.39-9.87-2.07-19.66-1.62-29.74l.16-3.92q.18-4.73.4-9.46" fill="#DBDDDF"/><path d="M562.94 162.81q1.78 0 3.62-.04h3.47l3.18-.02c2.78.25 4.42.81 6.79 2.25v2l-2.41-.07q-5.48-.11-10.96-.18l-3.8-.1c-8.06-.09-16.31.15-22.54 5.94-1.41 1.66-1.41 1.66-3.3 4.41l-2-1c.18-2.27.18-2.27 1-5 2.4-1.99 2.4-1.99 5.39-3.75l2.96-1.8c6-3.27 11.92-2.64 18.6-2.64" fill="#050805"/><path d="M495 208c2.07 3.11 2.78 5.48 3.75 9.06 5.12 16.86 16.95 26.66 31.25 35.94l-4 2-6-5-1.68-1.39c-10.3-8.64-22.78-20.4-24.32-34.61-.12-2.75-.12-2.75 0-5z" fill="#E2E3E5"/><path d="M692 162v2l2 1-3.16.11c-27.97 1.19-27.97 1.19-37.92 9.46C651 176 651 176 648 176l2-4h2v-2c9.85-9.24 27.26-8 40-8" fill="#050705"/><path d="M441 524h1l.45 3.23c2.17 14.79 6.19 28.83 11.55 42.77-4.77-1.84-5.88-4.97-7.97-9.4-1.26-3.18-1.7-6.2-2.03-9.6q-.96-2.51-2-5a43 43 0 0 1-1-22" fill="#E2E3E5"/><path d="M696 166c10.09 1.83 10.09 1.83 13 5v3c-4.2 3.55-7.77 3.27-13 3-1.35-4.05-.62-6.79 0-11" fill="#BC9857"/><path d="M845 477h2c-1.5 3.38-3.46 5.84-5.88 8.62-5.87 7.06-10.8 14.7-15.81 22.37A740 740 0 0 1 820 516l-2-2c3.4-7.36 8.7-13.66 13.58-20.08 2.33-3.08 4.6-6.15 6.67-9.42L840 482h2l.94-1.94C844 478 844 478 845 477" fill="#E7E9EB"/><path d="m916 485-1 3-2.94.25c-6.64.94-12.41 4.3-18.06 7.75q-2.48 1.05-5 2l2 4-3 2-2-4c6.62-9.55 18.5-15.22 30-15" fill="#E7E9EA"/><path d="M493 21c1.3 3.91 1.01 7.54.88 11.61l-.07 2.54-.25 8.04-.16 5.45q-.18 6.68-.4 13.36h-1c-1.14-9.82-2.2-19.61-2.31-29.5l-.06-2.12c.01-4.08.5-6.41 3.37-9.38" fill="#F0F0F2"/><path d="M488 388h2q-.89 19.5-2 39l-2-1c-2.15-9.63-1.01-20.44 1-30q.3-2.16.56-4.31z" fill="#ECEFF0"/><path d="M494 69h1v56h-2l-1-23h2z" fill="#CDCECF"/><path d="M759 25h1c1.73 35.55 1.73 35.55 0 39q-.22 2.72-.32 5.45l-.12 3.26-.25 6.86L759 88h-1c-.17-21.02.3-41.99 1-63" fill="#BEC0BE"/><path d="m547 679 1 3q-1.43 2.54-3 5c-1.15 3.52-1.31 7.08-1.56 10.75l-.26 3.55-.18 2.7-4-2c-.38-6.8.07-14.1 4.31-19.75 1.38-1.37 1.38-1.37 3.69-3.25" fill="#DFDFE1"/><path d="M761 657h1c2 9.28 2 9.28-.28 13.22-4.21 4.35-8.24 6.7-14.45 6.84a311 311 0 0 1-9.65-.44l-3.38-.17q-4.12-.21-8.24-.45v-1l1.69-.06 7.75-.32 2.66-.09c14.54-.64 14.54-.64 19.4-4.53 2.22-2.96 2.7-4.99 3.06-8.62l.26-2.48z" fill="#CED1CE"/><path d="m687 661 4 2 2.19.81C695 665 695 665 695.5 667.38l.5 2.62a30 30 0 0 0 4 4l-1 2-12-6z" fill="#DFE2DF"/><path d="M616 661h21l-1 4v-3l-17 1 .56 4.88c.56 4.87.56 4.87-.56 7.12q-.34 2.81-.56 5.62l-.26 3.04L618 686h-1z" fill="#DFE3DF"/><path d="M438 497h2l1 33-3-2a96 96 0 0 1 0-7l-.52-2.65c-.62-4.32-.34-8.39-.04-12.73l.16-2.51q.18-3.06.4-6.11" fill="#ECEFEE"/><path d="M516 6v1l-1.76.3C505.88 8.9 501.12 12.32 496 19l-2 3h-3c2.35-6.53 5.18-10.94 11.4-14.3 4.83-2.12 8.36-3.35 13.6-1.7" fill="#E7E8EA"/><path d="M489 397h1l1 10h1q.13 5.16.19 10.31l.07 2.96.03 2.84.05 2.62C492 428 492 428 489 431z" fill="#27292B"/><path d="m554 667 2 1c-3.65 4.26-8.82 5.32-14 7l-2.29.77c-4.55 1.36-7.38 1.18-11.71-.77v-1l3.66-.77 4.84-1.04 2.4-.5c4-.87 7.76-1.88 11.57-3.39z" fill="#E4E6E3"/><path d="M495 208c2.08 3.12 2.86 5.6 3.88 9.19A73 73 0 0 0 505 232h-3l-3.44-6.19-1.93-3.48A25 25 0 0 1 494 209z" fill="#D2D5D5"/><path d="M754 165h1q.04 9.5.05 19.01l.03 6.46.02 9.3.01 2.92v2.73l.01 2.39A27 27 0 0 1 754 214h2l-1 6c-1.52-1.25-1.52-1.25-3-3-.09-1.9-.09-1.9.29-4.04.76-5.1.93-10.1 1.03-15.25l.06-2.85.18-8.92.13-6.09z" fill="#1F2221"/><path d="M757 644c4.77 4 6.73 7.91 8 14 .21 2.73.15 5.26 0 8h-3l-.33-2.41c-.87-5.79-1.83-10.42-4.67-15.59z" fill="#F1F3F1"/><path d="M588 171c7.61 1.06 7.61 1.06 11 3 .81 2.62.81 2.62 1 5-4.6.32-7.39-.01-11-3-.81-2.69-.81-2.69-1-5" fill="#B7964F"/><path d="M975 552c1.69.12 1.69.12 4 1q2.53 2.97 5 6c3.3 2.16 6.36 2.37 10.25 2.62l3.27.23 2.48.15v2c-7.58 1.43-12.14.6-18.69-3.81-2.62-2.48-4.43-5.12-6.31-8.19" fill="#DFE2E2"/><path d="M1015 540c1.39 2.21 2.01 3.59 1.92 6.22-1.33 4.02-3.85 6.5-6.73 9.53l-1.62 1.79c-4.73 5.06-4.73 5.06-8.57 5.46l-2-2 3.56-1.38c6.07-3.02 9.84-8.61 12.32-14.83.56-1.91.56-1.91 1.12-4.79" fill="#D3D5D4"/><path d="M634 678h1l.26 3.4c.76 8.47 1.49 15.57 6.74 22.6h-4c-3.6-4.84-6.34-10.94-5.66-17.02l.6-3.23.59-3.27z" fill="#E0E3E4"/><path d="M811 484c2.24 3.84 4.66 9.37 3.54 13.84a33 33 0 0 0-.86 6.71l-.12 2.56-.12 2.64-.13 2.69L813 519h-1l-.08-1.84q-.17-4.24-.36-8.47l-.13-3.05c-.27-5.96-.64-11.88-1.34-17.81C810 486 810 486 811 484" fill="#CCCFCC"/><path d="m754 354 3 1c.56 1.75.56 1.75 1 4l1 2.12c1.46 4.21 1.67 8.46 2 12.88l-2 1-2.5-7.69-.72-2.18c-1.22-3.82-2.1-7.06-1.78-11.13" fill="#EEF1EE"/><path d="m907 441 2 2-3.32.8-4.37 1.08-2.18.52c-3.1.77-5.96 1.53-8.9 2.8-2.55.91-3.73.73-6.23-.2 15.1-7.96 15.1-7.96 23-7" fill="#E7E8E9"/><path d="m724 252 2 1-2.5 2.5c-2.14 2.56-2.86 4.22-2.88 7.56.3 3.07.63 5.96 1.38 8.94h-2l-1 3c-1.35-5.96-1.86-11.93-1-18 1.79-2.61 3.19-3.42 6-5" fill="#E0E2E1"/><path d="m707 683 1 2 3 1c1.33 5.97 1.09 11.93 1 18l-4-1 .04-2.85.02-3.77.04-3.73A57 57 0 0 0 707 683" fill="#DDDFDE"/><path d="M488 409h1l.08 1.84c.93 22.33.93 22.33 1.92 31.16l-1-3h-2c-1.42-2.85-1.01-5.15-.88-8.32l.15-3.81.17-3.99.16-4.02z" fill="#C7C9CA"/><path d="M845 477h2c-1.59 3.64-3.84 6.4-6.38 9.44q-4.36 5.23-8.62 10.56c0-4.47.82-5.28 3.7-8.47 1.3-1.53 1.3-1.53 2.99-4.41L840 482h2l.94-1.94C844 478 844 478 845 477" fill="#E4E4E7"/><path d="M803 467c4.84 4.34 7.46 9.71 9 16l-2 3q-2.05-3.9-4.06-7.81l-1.18-2.24-1.11-2.16-1.03-1.98C802 470 802 470 803 467" fill="#E9ECE9"/><path d="m743 237 2 1-6.81 6.88-1.95 1.97-1.88 1.89-1.73 1.75C731 252 731 252 728 254l-3-1c3.9-4.16 8.2-7.62 12.7-11.13 1.9-1.54 3.62-3.1 5.3-4.87" fill="#E7EBEB"/><path d="m760 24 2 1c1.06 5.04 1.03 9.75.69 14.88l-.24 3.99L762 47l-2 1z" fill="#F1F1F1"/><path d="M759 379h1c1.39 6.07 2.54 11.76 2 18-1.52 2.23-1.52 2.23-3 4a766 766 0 0 1-1.12-8.19l-.34-2.33c-.57-4.41-.74-7.42 1.46-11.48" fill="#2B2D2B"/><path d="M775.69 456.94h2.13l5.18.06v3l-16 1v-2l-2-1c3.62-1.2 6.93-1.11 10.69-1.06" fill="#232625"/><path d="M704.56 169.31c2.44.7 2.44.7 4.44 1.7v3c-2.57 1.61-3.68 2.03-6.75 1.61L700 175l1-2-2-2c3-2 3-2 5.56-1.69" fill="#D2B572"/><path d="M441 524h1l3 21-4-2c-1.51-6.4-.77-12.53 0-19" fill="#D5D7D7"/><path d="M488 439h2c1.51 5.81 2.22 11 2 17h-2c-1.24-5.31-2.43-10.57-3-16z" fill="#E9ECEC"/><path d="M491 655c3.33 2.6 3.62 5.11 4.19 9.19l.48 3.29.33 2.52h-3c-2.03-3.35-2.22-5.87-2.12-9.75l.05-2.98z" fill="#282A2C"/><path d="M920 439v1l10 1v1h-23l-1-2c4.76-.95 9.17-1.08 14-1" fill="#BFC1BF"/><path d="M761 657h1c2.01 9.32 2.01 9.32-.35 13.25-3.01 3.07-5.37 4.97-9.65 5.75l-1-2 5.27-2.73c2.8-2.05 3.56-4.28 4.14-7.63l.21-2.39.23-2.42z" fill="#DADDDA"/><path d="M478 607a85 85 0 0 1 13 13c-2.94-.81-2.94-.81-6-2l-1-3-1.94-.81C480 613 480 613 478.75 609.88z" fill="#EBEEEC"/><path d="M972 533h1a258 258 0 0 0 .88 5.19l.49 2.92c.63 2.89.63 2.89 1.7 5.57.93 2.32.93 2.32.93 5.32l-3-1c-2.61-5.98-3.55-11.68-2-18" fill="#D1D3D4"/><path d="M760 445h1l.56 5.38.32 3.02c.12 2.6.12 2.6-.88 4.6l3 1-6 2z" fill="#D2D5D3"/><path d="M513 4c6.16.38 9.17 2.16 14 6l-2 2-2.44-1.44C518.33 8.71 514.57 8.29 510 8l4-2z" fill="#DDDFDD"/><path d="M532 675v2c-3.57 1.19-6.85 1.18-10.56 1.19l-2.08.03c-1.79.01-3.58-.1-5.36-.22l-2-2c6.69-.62 13.28-1.13 20-1" fill="#EAECED"/><path d="m695 666 11 5v3c-8-2-8-2-11-5z" fill="#EDF0ED"/><path d="M468 457h15l-2 1v2h-12z" fill="#1D2021"/><path d="M934 440v2l-20-1v-1c7.31-2.16 12.62-1.79 20 0" fill="#EFF1EF"/><path d="M507 8q2.84-.07 5.69-.12l3.2-.08c3.13.2 5.29.87 8.11 2.2v1h-15V9z" fill="#1C1E1D"/><path d="M759 428h1l1 17-2 1c-.62 2.56-.62 2.56-1 5h-1c.51-7.69 1.08-15.35 2-23" fill="#202320"/><path d="M887 497c0 3.94-1.37 5.14-3.81 8.19l-2.15 2.73L879 510h-3l3.25-4.25 1.83-2.39A71 71 0 0 1 887 497" fill="#D9DBDB"/><path d="m706 671 14 3c-2.24 2.24-2.89 2.75-6 3-3.69-1.25-3.69-1.25-7-3z" fill="#DFE3DF"/><path d="M512 471c2.57 3.85 2.55 6.43 3 11h-1l-1 12h-1z" fill="#050707"/><path d="m558 673-9 7-3-2c6.35-6.88 6.35-6.88 12-5" fill="#E8EAEA"/><path d="m939.63 441.25 2.98.27 2.4.48q.48.99 1 2c-5.48 1.4-9.7.43-15-1 3.5-2.34 4.54-2.16 8.62-1.75" fill="#D0D1D0"/><path d="m542 672-1 3c-3.98 1.64-6.23 2.2-10.44 1.12L528 675v-1l5.31-1 2.99-.56c2.7-.44 2.7-.44 5.7-.44" fill="#D6D7D7"/><path d="M987 562h13v2q-2.12.3-4.25.56l-2.39.32c-2.37.12-4.11-.18-6.36-.88z" fill="#E9EAE9"/><path d="M860 535h2c-1.59 5.09-4.74 8.87-8 13l-1-3c1.36-2.48 1.36-2.48 3.31-5.19l1.93-2.73z" fill="#E4E4E6"/><path d="M744 232h2c-.56 3.6-1.75 5-4.56 7.25l-1.94 1.58L738 242l-1-3 1.88-.75c2.49-1.47 3.02-2.63 4.12-5.25z" fill="#212324"/><path d="M749 637c5.75 3.75 5.75 3.75 8 6-.38 2.12-.38 2.12-1 4q-1.76-1.35-3.5-2.75l-1.97-1.55C749 641 749 641 749 637" fill="#E2E3E2"/><path d="M492 452h1l1 8c-4.06-.47-7.47-.88-11-3l8-1z" fill="#C6C9CA"/><path d="M763 437c2 2 2 2 2.08 4.09l-.27 2.41-.23 2.41C764 448 764 448 761 450l.44-5.94.24-3.34C762 438 762 438 763 437" fill="#F3F6F4"/><path d="M734 305c3 1 3 1 4.2 2.78l1.05 2.16 1.08 2.15.67 1.91-1 2c-2.65-2.48-4.68-4.59-6-8z" fill="#ECEFEF"/><path d="m615 694 3 3-2 6-5 1z" fill="#E2E2E4"/><path d="m857 467-2 4h-2l-.75 1.81c-1.41 2.48-2.9 3.62-5.25 5.19 0-3 0-3 1.68-5.04l2.2-2.15 2.17-2.17C855 467 855 467 857 467" fill="#CBCDCE"/><path d="M720 272h3l.44 3.19q.65 4.43 1.56 8.81l-3-1a22.4 22.4 0 0 1-2-11" fill="#EDF1EC"/><path d="m591 166 1 2c2.06.62 2.06.62 4 1-4.33 2.23-7.28 1.92-12 1v-2z" fill="#0B0B0A"/><path d="m755 624 3 2-9 7-1-3z" fill="#EBEEED"/><path d="m811 520 5 1a16.6 16.6 0 0 1-3 7h-2z" fill="#C3C7C8"/><path d="m532 266 2 1q-.17 2.19-.38 4.38l-.21 2.46C533 276 533 276 531 278c-1.37-4.52-.47-7.59 1-12" fill="#DCDEDE"/><path d="M495 208c2.21 3.31 2.22 4.34 2.12 8.19l-.05 2.73L497 221c-2.92-2.92-2.94-5.72-3.12-9.75C494 209 494 209 495 208" fill="#E2E4E5"/><path d="M761 373c2 3 2 3 1.75 5.5C762 381 762 381 760 384a220 220 0 0 1-.62-4.38l-.36-2.46L759 375z" fill="#E3E6E3"/><path d="M547 169v3h-4l-2 4h-2c.38-2.75.81-3.82 2.88-5.75C544 169 544 169 547 169" fill="#494E48"/><path d="M830 573c0 3 0 3-1.53 4.61l-1.97 1.58-1.97 1.6L823 582v-4c1.53-1.48 1.53-1.48 3.5-2.75l1.97-1.3z" fill="#EFEEF2"/><path d="m750 344 3 1c.73 2.07.73 2.07 1.19 4.56l.48 2.51.33 1.93-2 1-1.5-4.38-.84-2.46C750 346 750 346 750 344" fill="#DCDFDE"/><path d="M944 490a37 37 0 0 1 8 4l-1 3c-3.57-1.88-5.55-3.17-7-7" fill="#E1E1E2"/><path d="M712 168c.12 5.75.12 5.75-1 8h-3v-7c3-1 3-1 4-1" fill="#040503"/><path d="M757 14c2.72 2.35 3.81 4.62 5 8l-3 3c-1.42-3.82-2.24-6.91-2-11" fill="#EAEBEC"/><path d="m753 622 3 1c-4.75 4.88-4.75 4.88-7 6l-2-2c4.39-4 4.39-4 6-5" fill="#212321"/><path d="m875 511 4 1-8 8c.53-3.82 1.5-6.06 4-9" fill="#E2E3E3"/><path d="M917 484h12l-1 3h-6v-2h-5z" fill="#F0F3F4"/><path d="m497 673 12 2c-4.23 2.12-4.76 2.2-9 1l-3-1z" fill="#E7EAEC"/><path d="M831 498c.82 2.75 1.05 3.83.25 6.69C830 507 830 507 827 508l-1-2c1-1.95 1-1.95 2.44-4.12l1.43-2.2z" fill="#1A1B1D"/><path d="m889 496 3 1-3 1 2 4-3 2-2-4z" fill="#F1F1F2"/><path d="M904.06 440.69c2.94.3 2.94.3 4.94 2.3l-11 1c3-3 3-3 6.06-3.3" fill="#DCDFDC"/><path d="m511 316 3 1-4 9-2-4c1.38-3.25 1.38-3.25 3-6" fill="#DEE0E1"/><path d="m696 166 9 2c-3 2-3 2-5.12 1.69C698 169 698 169 697 168v5h-1z" fill="#A78D60"/><path d="m897 490 1 2c-1.75 2.06-1.75 2.06-4 4l-4-1z" fill="#DCDEDE"/><path d="M811 484c1.91 3.17 2.16 5.11 1.62 8.75l-.33 2.42L812 497h-1l-.56-5.38-.32-3.02c-.12-2.6-.12-2.6.88-4.6" fill="#D3D5D4"/><path d="m774 454 4.38-.06 2.46-.04c2.16.1 2.16.1 4.16 1.1v2l-11-1z" fill="#F1F3F3"/><path d="M594 174h5l1 4h-5z" fill="#DDBC68"/><path d="M505 639v3c-3 2.19-3 2.19-6 4l-2-1z" fill="#242324"/><path d="M490 382h2l-1 11h-1l-.56-4.94-.32-2.77L489 383z" fill="#CBCDCF"/><path d="M497 354h2l-2 10-2-2c.58-6.58.58-6.58 2-8" fill="#DCDFDE"/><path d="m724 252 2 1c-3.75 3.88-3.75 3.88-6 5-1.12 2.06-1.12 2.06-2 4-.38-2.19-.38-2.19 0-5 1.84-1.99 3.79-3.39 6-5" fill="#D5D9D7"/><path d="M812 497c.2 6.05.2 6.05 0 8l-2 2-1-9c2-1 2-1 3-1" fill="#20231E"/><path d="m848 477 2 2c-2.78 3.08-3.81 3.95-8 5z" fill="#1B1D1F"/><path d="m730 10 3 2c-2.36 2.1-3.55 2.97-6.75 3.19L724 15l2.44-1.94C729 11 729 11 730 10" fill="#1C1C1C"/><path d="M757 649c1.56 1 1.56 1 3 3-.03 2.77-.51 5.26-1 8-2.68-4.02-2.16-6.24-2-11" fill="#1E1F1F"/><path d="M450 562c2.15 2.62 3.4 4.64 4 8-3.88-1.75-3.88-1.75-5-4 .44-2.12.44-2.12 1-4" fill="#DADDDA"/><path d="m835 489 2 2-4 6-2-1c1.07-2.92 1.78-4.78 4-7" fill="#D8DBDB"/><path d="m944 444 8 1v2l-8-1z" fill="#DFDFE2"/><path d="M492 430h1v7l-3 1c-.12-2.88-.12-2.88 0-6z" fill="#1C1E1F"/><path d="m677 52 3 1-5 5-3-2c2.31-2.06 2.31-2.06 5-4" fill="#1D1D21"/><path d="M494 16h2l-1 6-3 1c0-3.11.54-4.35 2-7" fill="#E6E6E8"/><path d="M619 689c.93 2.61 1.15 3.64.06 6.25L618 697l-2-1v-5h2z" fill="#E8EBEC"/><path d="m778 600 3 2-4 4-3-1z" fill="#DDE0DC"/><path d="M1007 494a41 41 0 0 1 4 5l-1 3c-2.06-2.31-2.06-2.31-4-5z" fill="#DBDCDC"/><path d="M984 466c2.47 1.15 4.05 2.05 6 4l-1 3a139 139 0 0 1-5-5z" fill="#D1D1D3"/><path d="m635 199 2 1-2.38 2.31C632 205 632 205 630 208c-.31-2.25-.31-2.25 0-5 2.5-2.31 2.5-2.31 5-4" fill="#0E1011"/></svg>