<svg style="background:transparent" version="1.1" xmlns="http://www.w3.org/2000/svg" viewBox="0 0 1248 704"><path d="M1036 128q2.03 1.96 4 4l2.44 1.44c3 1.83 5.2 4 7.56 6.56l2.28 2.41 2.47 2.65 2.36 2.54c1.82 2.31 2.33 3.59 2.89 6.4l1.81.88c3.15 1.61 4.46 4.16 6.19 7.12l1.22 2.01A87 87 0 0 1 1077 182l.8 2.38c1.95 6.84.3 11.63-2.94 17.79-2.9 4.91-6.1 9.22-11.11 12.14-5.88 1.47-10.79 1.53-16.25-1.31-8.85-5.51-14.83-12.36-20.5-21l-1.56-2.07c-5.44-7.29-5.44-7.29-5.44-10.93l-1.69-.69c-2.97-1.68-4.92-3.86-7.31-6.31-9.9-9.68-20.22-14-34-14.25-11.18.18-19.72 2.87-29 9.25l-3.5 1.81c-4.1 2.32-6.66 5.49-9.5 9.19l-1.6 2.02a66 66 0 0 0-8.84 15.36 99 99 0 0 1-3.56 7.43 46 46 0 0 0-3.44 9.19 35 35 0 0 1-5.38 11.11C911 225 911 225 910.04 227.44a37 37 0 0 1-4.04 7.18l-1.56 2.29L903 239l-2 3h-2l-.32 1.77c-.78 2.56-1.85 3.92-3.62 5.92l-1.59 1.82C892 253 892 253 890 254l-1.25 2.31c-2.12 3.26-4.51 4.58-7.75 6.69l-1.88 2.38c-6.38 7.88-16.08 12.46-25.12 16.62 0 4.37.83 6.12 2.81 9.94l1.58 3.09c1.61 2.97 1.61 2.97 3.06 5.21 2.33 4.15 3.93 8.56 5.61 13.01l1.07 2.74a92 92 0 0 1 4.43 15.01c.44 2 .44 2 1.53 5.12 1.07 3.38 1.29 6.46 1.47 10 .35 6.52.35 6.52.95 8.83.51 2.13.62 3.97.62 6.15l.01 2.42-.01 2.6.01 2.72-.01 5.69.01 8.59c0 11.52-.49 22.8-1.7 34.26a77 77 0 0 0-.44 8.31c0 3.54-.48 6.8-1 10.31a175 175 0 0 0-.94 22.29C873 461 873 461 872 464q-.15 3.67-.13 7.34l-.01 2.17.01 4.54-.01 6.93.01 4.42-.01 2.08c.02 3.64.31 6.98 1.14 10.52q.25 2.34.44 4.69c.72 7.63 2.3 15.1 4.5 22.43 1.09 3.79 1.82 7.61 2.56 11.48a78 78 0 0 0 1.5 5.84c2.07 7.36 3.1 14.82 3.79 22.42.24 2.43.72 4.76 1.21 7.14.75 5.37 1 10.57 1 16l.5 3.2c.54 4.07.58 7.95.5 12.05-.13 7.35-.13 7.35 1 10.75.24 4.25.19 8.5.19 12.75l.03 3.54c.01 5.96-.15 11.1-2.22 16.71l1.88.3c13.02 2.2 25.83 4.92 36.81 12.58 1.31 2.12 1.31 2.12 1.5 5.5-1.63 4.97-3.74 6.97-8.19 9.62-16.69 8.2-36.75 9.05-55 10.75l-2.03.2c-22.41 2.14-45.01 1.01-67.47.3l-4.05-.12c-27.92-.87-55.81-2.25-83.7-3.72a1750 1750 0 0 0-91.63-2.66h-2.4c-64.41-.02-128.39 4.89-192.41 11.75l-3.89.42q-5.68.6-11.37 1.24l-3.87.42q-10.55 1.16-21.05 2.73c-26.76 3.94-53.25 4.5-80.28 4.4q-9.32-.03-18.63.04-7.26.04-14.53.01-3.44 0-6.88.03-4.76.02-9.53-.03l-2.81.04c-6.68-.12-10.73-2.08-15.47-6.8a184 184 0 0 1-4-6c-2.25-1.38-2.25-1.38-4-2l2-3c.41-2.7.41-2.7.62-5.69l.23-3.01.15-2.3-2.35 1.21c-11.81 5.79-23.58 9.83-36.55 5.91-8.35-3.02-14.49-7.55-19.35-15.06-2.67-5.74-2.14-12.03-.75-18.06 3.71-8.72 10.11-16.29 18.82-20.22 4.97-1.78 9.96-3.29 15.18-2.09 6.78.7 12.49-4.09 17.53-8.17 7.55-6.37 14.53-13.38 21.53-20.33l1.53-1.52c5.31-5.26 10.24-10.45 14.41-16.67q1.47-1.53 3-3l3.12-3.56q4.1-4.71 8.32-9.32c4.4-4.88 8.5-9.95 12.56-15.12l2.7-3.39c5.34-6.72 10.5-13.5 15.3-20.61l-3.12-.31c-3.9-.69-6.44-1.79-9.88-3.69l-2.81-1.31c-7.39-3.92-13.01-8.17-18.41-14.59-1.78-2.1-1.78-2.1-4.53-4.72-7.33-7.75-10.62-19.25-13.25-29.38l-1.06-3.56A87 87 0 0 1 248 459l-1-3c-1.38-7.74-2.37-15.55-3.45-23.34-3.46-24.94-3.46-24.94-5.74-36.28-2.72-13.76-4-27.3-4.69-41.32l-.22-3.73c-.35-8.79.64-15.66 5.96-22.84 3.35-2.86 5.5-4.36 9.89-5.24 11.7 1.2 23.06 9.27 33.25 14.75 15.33 8.21 15.33 8.21 24 5.69l5-1.69c4.5-1.34 9-2.48 13.59-3.44C327 338 327 338 330 337.01a51 51 0 0 1 9.87-1.62l3.24-.29q3.32-.28 6.64-.52c7.82-.75 11.99-2.76 17.25-8.58q1.97-2.03 4-4h2l.31-1.94.69-2.06 3-1 .44-1.94.56-2.06 4-2 .27-1.71c1.12-3.52 3.79-5.48 6.48-7.85l1.59-1.46c3.98-3.58 7.56-6.62 12.97-7.54 5.06.77 7.94 3.21 11.69 6.56l1.61 1.43c4.39 4.95 6.26 12.68 8.07 18.91a82 82 0 0 0 3.88 11.1c1.6 3.95 2.22 7.67 2.9 11.86a47 47 0 0 0 2.88 8.78c1.11 3.24 1.31 6.52 1.66 9.92l1 2-1 3c14.21-4.76 27.12-11.45 40-19a1533 1533 0 0 1 11.34-6.31A300 300 0 0 1 500 334l2.5-1.5c2.77-1.66 5.62-3.06 8.5-4.5l5.08-2.89q8.32-4.8 16.92-9.11c4.97-2.66 9.93-5.36 14.81-8.19 3.93-2.23 7.95-4.2 12-6.19 3.33-1.69 6.59-3.5 9.85-5.34 3.34-1.83 6.76-3.51 10.19-5.19 14.08-6.91 14.08-6.91 18.53-9.84 3.42-2.25 6.95-3.63 10.77-5.08 5.78-2.37 11.29-5.33 16.85-8.17 4.28-2.16 8.58-4.14 13-6l3.62-1.56q4.17-1.77 8.38-3.44l2.39-.96c13.66-5.5 13.66-5.5 18.99-6.98a74 74 0 0 0 8.43-3.06 57 57 0 0 1 12.67-3.51c2.52-.49 2.52-.49 5.86-1.45 8.6-2.45 17.5-4.16 26.41-4.83 2.25-.21 2.25-.21 5.08-.69 20.03-3.26 43.96-2.38 63.17 4.48l4 1 3.76 1.15c13.09 3.79 13.09 3.79 18.93.79q2.2-1.43 4.31-2.94l3.06-1.44C849.04 227.4 863.9 208.6 873 187c4.64-10.9 9.76-21.52 16.32-31.4 1.68-2.6 1.68-2.6 3.44-5.98 2.42-4.27 5.74-7.3 9.36-10.56l2.04-1.85q2.91-2.62 5.84-5.21l2.64-2.37c10.83-9.18 23.79-15.66 37.36-19.63l3.28-.96c28.56-7.24 59.32 1.93 82.72 18.96" fill="#111311"/><path d="M1036 128q2.03 1.96 4 4l2.44 1.44c3 1.83 5.2 4 7.56 6.56l2.28 2.41 2.47 2.65 2.36 2.54c1.82 2.31 2.33 3.59 2.89 6.4l1.81.88c3.15 1.61 4.46 4.16 6.19 7.12l1.22 2.01A87 87 0 0 1 1077 182l.8 2.38c1.95 6.84.3 11.63-2.94 17.79-2.9 4.91-6.1 9.22-11.11 12.14-5.88 1.47-10.79 1.53-16.25-1.31-8.85-5.51-14.83-12.36-20.5-21l-1.56-2.07c-5.44-7.29-5.44-7.29-5.44-10.93l-1.69-.69c-2.97-1.68-4.92-3.86-7.31-6.31-9.9-9.68-20.22-14-34-14.25-11.18.18-19.72 2.87-29 9.25l-3.5 1.81c-4.1 2.32-6.66 5.49-9.5 9.19l-1.6 2.02a66 66 0 0 0-8.84 15.36 99 99 0 0 1-3.56 7.43 46 46 0 0 0-3.44 9.19 35 35 0 0 1-5.38 11.11C911 225 911 225 910.04 227.44a37 37 0 0 1-4.04 7.18l-1.56 2.29L903 239l-2 3h-2l-.32 1.77c-.78 2.56-1.85 3.92-3.62 5.92l-1.59 1.82C892 253 892 253 890 254l-1.25 2.31c-2.12 3.26-4.51 4.58-7.75 6.69l-1.88 2.38c-6.38 7.88-16.08 12.46-25.12 16.62 0 4.37.83 6.12 2.81 9.94l1.58 3.09c1.61 2.97 1.61 2.97 3.06 5.21 2.33 4.15 3.93 8.56 5.61 13.01l1.07 2.74a92 92 0 0 1 4.43 15.01c.44 2 .44 2 1.53 5.12 1.07 3.38 1.29 6.46 1.47 10 .35 6.52.35 6.52.95 8.83.51 2.13.62 3.97.62 6.15l.01 2.42-.01 2.6.01 2.72-.01 5.69.01 8.59c0 11.52-.49 22.8-1.7 34.26a77 77 0 0 0-.44 8.31c0 3.54-.48 6.8-1 10.31a175 175 0 0 0-.94 22.29C873 461 873 461 872 464q-.15 3.67-.13 7.34l-.01 2.17.01 4.54-.01 6.93.01 4.42-.01 2.08c.02 3.64.31 6.98 1.14 10.52q.25 2.34.44 4.69c.72 7.63 2.3 15.1 4.5 22.43 1.09 3.79 1.82 7.61 2.56 11.48a78 78 0 0 0 1.5 5.84c2.07 7.36 3.1 14.82 3.79 22.42.24 2.43.72 4.76 1.21 7.14.75 5.37 1 10.57 1 16l.5 3.2c.54 4.07.58 7.95.5 12.05-.13 7.35-.13 7.35 1 10.75.24 4.25.19 8.5.19 12.75l.03 3.54c.01 5.96-.15 11.1-2.22 16.71l1.88.3c13.02 2.2 25.83 4.92 36.81 12.58 1.31 2.12 1.31 2.12 1.5 5.5-1.63 4.97-3.74 6.97-8.19 9.62-16.69 8.2-36.75 9.05-55 10.75l-2.03.2c-22.41 2.14-45.01 1.01-67.47.3l-4.05-.12c-27.92-.87-55.81-2.25-83.7-3.72a1750 1750 0 0 0-91.63-2.66h-2.4c-64.41-.02-128.39 4.9-192.41 11.75l-2.11.23c-27.42 2.92-27.42 2.92-39.94 4.83-30.99 4.65-62 3.93-93.26 3.44 2.58-2.58 5.56-3.78 8.81-5.31 9.69-4.71 18.68-10.44 27.78-16.18q4.85-3.03 9.79-5.95 10.64-6.36 21.22-12.84 8.25-5.03 16.51-10.01c12.1-7.32 24.16-14.68 35.97-22.45l5.88-3.81a2332 2332 0 0 0 28.45-18.59 140 140 0 0 0 15.21-11.55c7.54-6 16.42-6.96 25.64-8.74 6.53-1.37 12.83-3.56 19.13-5.69q4.25-1.42 8.49-2.81c29.17-9.69 56.74-22.46 84.22-36.13l8.33-4.12A1239 1239 0 0 0 636 522l3.13-1.67c23.89-12.77 23.89-12.77 34.43-19.07C676 500 676 500 679 500l.88 2.5c11.25 31.68 24.36 61.06 50.71 83.36 3.48 3.09 6.79 6.32 10.1 9.58l1.94 1.88c7.3 7.25 12.13 14.56 12.48 25.07q.02 4.81-.11 9.61l-2.53.45c-8.47 1.68-15.82 3.58-21.13 10.81-3.27 5.81-4.37 11.14-3.34 17.74 1.75 5.24 4.23 7.33 9 10 14.52 6.36 35.36 6.08 50.19.88 7.7-3.34 11.61-7.14 14.81-14.88 5.05-13.41 6.35-26.59 6.32-40.78q0-3.58.04-7.16A145 145 0 0 0 805 578l-.64-3.05q-.65-2.98-1.36-5.95a521 521 0 0 1 10.7 8.05c14.74 11.58 22.76 25.39 25.3 43.95q.64 8.5 0 17c-1.58 1.58-3.32 1.16-5.5 1.25-7.34.69-12.9 3.69-17.88 9.13-4.2 5.42-6.14 10.56-5.92 17.41.47 3.46 1.74 6.09 3.3 9.21l1 3c2.13 1 2.13 1 5 2l3.44 1.56c6.83 2.76 13.55 2.62 20.81 2.63l2.99.03c10.98.03 22-1.39 30.62-8.82 7.82-8.47 8.3-19.13 8.27-30.13l.01-2.49-.02-7.97v-2.76c-.09-37.32-2.73-73.03-12.2-109.22l-.54-2.1-1.53-5.72c-1.96-8.33-2.02-17.01-2.09-25.53l-.03-2.99-.04-9.74-.01-3.42c-.03-17.98.86-35.78 2.32-53.71 4.82-59.54 4.82-59.54-1-85.62l-.5-2.3c-3.58-15.71-10.11-30.21-18.35-44-1.34-3.14-1.32-4.52-.15-7.7 2.7-2.2 5.45-3.71 8.53-5.34A96 96 0 0 0 877 263l2.36-1.92c17.9-15.19 27.96-34.99 37.08-56.16 8.82-20.48 20.04-38.67 41.49-47.73 6.01-2.26 11.55-2.7 17.95-2.63l2.94.03c7.05.16 12.91 1 19.18 4.41l2.52 1.29c12.38 6.82 21.54 17.25 28.92 29.15 11.63 18.59 11.63 18.59 21.56 21.56 10.12 1.29 10.12 1.29 14.23-1.53L1067 208h2q1.03-2.5 2-5l.8-2.02c3.81-10.31 2.43-18.89-1.8-28.98a118.6 118.6 0 0 0-67.69-57.38c-25.66-7.1-51.81-4.56-75.03 8.45-25.01 14.64-38.02 35.63-49.34 61.68-12.14 27.89-30.47 49.75-58.9 62.21-4.54 1.55-7.47 1.27-12.04.04l-3.55-.88q-3.04-.75-6.08-1.53c-12.57-3.24-25.42-5.69-38.44-5.83l-2.26-.03q-3.62-.04-7.23-.04l-2.5-.01c-12.84 0-25.06.87-37.61 3.78q-3.2.74-6.44 1.34c-33.59 6.76-65.41 22.17-95.89 37.2l-3.26 1.6a850 850 0 0 0-36.62 18.95A856 856 0 0 1 547.5 312q-12.6 6.53-25.02 13.36Q511.76 331.23 501 337a4221 4221 0 0 0-39.24 21.35C442.38 369 442.38 369 435 369l-.9-3.45-3.42-12.97-1.45-5.55a392 392 0 0 0-8.91-30.04l-.86-2.5c-2.45-6.88-5.23-12.83-10.96-17.55-3.1-1.17-5.19-1.25-8.5-.94-7.13 4.21-12.55 10.51-17.61 16.96a368 368 0 0 1-8.51 10.35l-1.46 1.74A138 138 0 0 1 368 330l-1.56 1.7c-4.83 4.72-9.18 5.31-15.75 5.8-9.01.92-17.69 2.42-26.5 4.5l-3.23.76a191 191 0 0 0-14.28 3.93c-6.34 1.91-10.99 2.07-17.02-1.03l-1.91-1.04-2.05-1.06A615 615 0 0 1 279 340l-7.61-4.04-4.92-2.63c-7.13-3.81-14.23-7.11-22.47-5.33-3.95 2.9-6.02 6.25-7 11-1.53 21.22 1.04 42.93 5.52 63.65a214 214 0 0 1 2.98 18.66c8.27 66.8 8.27 66.8 26.5 84.69l2.13 2.09c9.15 8.07 21.04 13.28 32.87 15.91-1.57 3.48-3.64 6.34-5.94 9.38l-1.18 1.56c-18.93 24.9-39.37 48.37-60.88 71.06l-2.36 2.49c-21.75 22.38-21.75 22.38-34.46 22.75-10.07.32-16.36 1.88-24.18 8.76-4.8 6.82-7.03 13.62-6.57 21.95A20.4 20.4 0 0 0 178 674c10.28 6.73 21.06 6.96 33 6a34 34 0 0 0 10-4l2.93-1.6q2.88-1.58 5.72-3.23C232 670 232 670 235 670l-1.5 2.69c-2.78 6.49-2.51 14.27-.31 20.87 3.46 4.66 7.61 7.02 12.81 9.44v1c-6.03-.13-8.81-2.06-13.2-6.11A58 58 0 0 1 228 692q-1.47-1.53-3-3l2-2c.41-2.6.41-2.6.62-5.62l.23-3.04.15-2.34-2.35 1.21c-11.81 5.79-23.58 9.83-36.55 5.91-8.35-3.02-14.49-7.55-19.35-15.06-2.67-5.74-2.14-12.03-.75-18.06 3.71-8.72 10.11-16.29 18.82-20.22 4.97-1.78 9.96-3.29 15.18-2.09 6.78.7 12.49-4.09 17.53-8.17 7.55-6.37 14.53-13.38 21.53-20.33l1.53-1.52c5.31-5.26 10.24-10.45 14.41-16.67q1.47-1.53 3-3l3.12-3.56q4.1-4.71 8.32-9.32c4.4-4.88 8.5-9.95 12.56-15.12l2.7-3.39c5.34-6.72 10.5-13.5 15.3-20.61l-3.12-.31c-3.9-.69-6.44-1.79-9.88-3.69l-2.81-1.31c-7.39-3.92-13.01-8.17-18.41-14.59-1.78-2.1-1.78-2.1-4.53-4.72-7.33-7.75-10.62-19.25-13.25-29.38l-1.06-3.56A87 87 0 0 1 248 459l-1-3c-1.38-7.74-2.37-15.55-3.45-23.34-3.46-24.94-3.46-24.94-5.74-36.28-2.72-13.76-4-27.3-4.69-41.32l-.22-3.73c-.35-8.79.64-15.66 5.96-22.84 3.35-2.86 5.5-4.36 9.89-5.24 11.7 1.2 23.06 9.27 33.25 14.75 15.33 8.21 15.33 8.21 24 5.69l5-1.69c4.5-1.34 9-2.48 13.59-3.44C327 338 327 338 330 337.01a51 51 0 0 1 9.87-1.62l3.24-.29q3.32-.28 6.64-.52c7.82-.75 11.99-2.76 17.25-8.58q1.97-2.03 4-4h2l.31-1.94.69-2.06 3-1 .44-1.94.56-2.06 4-2 .27-1.71c1.12-3.52 3.79-5.48 6.48-7.85l1.59-1.46c3.98-3.58 7.56-6.62 12.97-7.54 5.06.77 7.94 3.21 11.69 6.56l1.61 1.43c4.39 4.95 6.26 12.68 8.07 18.91a82 82 0 0 0 3.88 11.1c1.6 3.95 2.22 7.67 2.9 11.86a47 47 0 0 0 2.88 8.78c1.11 3.24 1.31 6.52 1.66 9.92l1 2-1 3c14.21-4.76 27.12-11.45 40-19a1533 1533 0 0 1 11.34-6.31A300 300 0 0 1 500 334l2.5-1.5c2.77-1.66 5.62-3.06 8.5-4.5l5.08-2.89q8.32-4.8 16.92-9.11c4.97-2.66 9.93-5.36 14.81-8.19 3.93-2.23 7.95-4.2 12-6.19 3.33-1.69 6.59-3.5 9.85-5.34 3.34-1.83 6.76-3.51 10.19-5.19 14.08-6.91 14.08-6.91 18.53-9.84 3.42-2.25 6.95-3.63 10.77-5.08 5.78-2.37 11.29-5.33 16.85-8.17 4.28-2.16 8.58-4.14 13-6l3.62-1.56q4.17-1.77 8.38-3.44l2.39-.96c13.66-5.5 13.66-5.5 18.99-6.98a74 74 0 0 0 8.43-3.06 57 57 0 0 1 12.67-3.51c2.52-.49 2.52-.49 5.86-1.45 8.6-2.45 17.5-4.16 26.41-4.83 2.25-.21 2.25-.21 5.08-.69 20.03-3.26 43.96-2.38 63.17 4.48l4 1 3.76 1.15c13.09 3.79 13.09 3.79 18.93.79q2.2-1.43 4.31-2.94l3.06-1.44C849.04 227.4 863.9 208.6 873 187c4.64-10.9 9.76-21.52 16.32-31.4 1.68-2.6 1.68-2.6 3.44-5.98 2.42-4.27 5.74-7.3 9.36-10.56l2.04-1.85q2.91-2.62 5.84-5.21l2.64-2.37c10.83-9.18 23.79-15.66 37.36-19.63l3.28-.96c28.56-7.24 59.32 1.93 82.72 18.96" fill="#B9BBB9"/><path d="m679 500 .88 2.5c11.25 31.68 24.36 61.06 50.71 83.36 3.48 3.09 6.79 6.32 10.1 9.58l1.94 1.88c7.3 7.25 12.13 14.56 12.48 25.07q.02 4.81-.11 9.61l-2.56.48-3.44.71-3.38.67a21 21 0 0 0-7.31 3.79c-5.32 3.48-10.19 2.41-16.25 1.73a398 398 0 0 0-29.27-1.96l-2.06-.06c-20.5-.59-41.02-.51-61.54-.49h-17.11q-6.73-.01-13.46 0l-6.31-.01c-10.89-.01-21.76.12-32.65.59l-2.79.11q-7.86.37-15.66 1.22c-3.41.34-6.8.46-10.21.58l-7.05.28c-23.85 1.01-47.51 3.42-71.22 6.06l-7.57.82c-18.7 2.03-37.29 4.59-55.88 7.46l-2.48.38-4.55.71c-5.07.79-10.15 1.39-15.25 1.93 3.7-4.29 8.35-6.75 13.19-9.56a652 652 0 0 0 25.76-16.1l6.04-3.91a2327 2327 0 0 0 28.42-18.57 140 140 0 0 0 15.21-11.55c7.54-6 16.42-6.96 25.64-8.74 6.53-1.37 12.83-3.56 19.13-5.69q4.25-1.42 8.49-2.81c29.17-9.69 56.74-22.46 84.22-36.13l8.33-4.12A1239 1239 0 0 0 636 522l3.13-1.67c23.89-12.77 23.89-12.77 34.43-19.07C676 500 676 500 679 500" fill="#ECEEEC"/><path d="M1036 128q2.03 1.96 4 4l2.44 1.44c3 1.83 5.2 4 7.56 6.56l2.28 2.41 2.47 2.65 2.36 2.54c1.82 2.31 2.33 3.59 2.89 6.4l1.81.88c3.15 1.61 4.46 4.16 6.19 7.12l1.22 2.01A87 87 0 0 1 1077 182l.8 2.38c1.95 6.84.3 11.63-2.94 17.79-2.9 4.91-6.1 9.22-11.11 12.14-5.88 1.47-10.79 1.53-16.25-1.31-8.85-5.51-14.83-12.36-20.5-21l-1.56-2.07c-5.44-7.29-5.44-7.29-5.44-10.93l-1.69-.69c-2.97-1.68-4.92-3.86-7.31-6.31-9.9-9.68-20.22-14-34-14.25-11.18.18-19.72 2.87-29 9.25l-3.5 1.81c-4.1 2.32-6.66 5.49-9.5 9.19l-1.6 2.02a66 66 0 0 0-8.84 15.36 99 99 0 0 1-3.56 7.43 46 46 0 0 0-3.44 9.19 35 35 0 0 1-5.38 11.11C911 225 911 225 910.04 227.44a37 37 0 0 1-4.04 7.18l-1.56 2.29L903 239l-2 3h-2l-.32 1.77c-.78 2.56-1.85 3.92-3.62 5.92l-1.59 1.82C892 253 892 253 890 254l-1.25 2.31c-2.12 3.26-4.51 4.58-7.75 6.69l-1.88 2.38c-6.38 7.88-16.08 12.46-25.12 16.62 0 4.37.83 6.12 2.81 9.94l1.58 3.09c1.61 2.97 1.61 2.97 3.06 5.21 2.33 4.15 3.93 8.56 5.61 13.01l1.07 2.74a92 92 0 0 1 4.43 15.01c.44 2 .44 2 1.53 5.12 1.07 3.38 1.29 6.46 1.47 10 .35 6.52.35 6.52.95 8.83.51 2.13.62 3.97.62 6.15l.01 2.42-.01 2.6.01 2.72-.01 5.69.01 8.59c0 11.52-.49 22.8-1.7 34.26a77 77 0 0 0-.44 8.31c0 3.54-.48 6.8-1 10.31a175 175 0 0 0-.94 22.29C873 461 873 461 872 464q-.15 3.67-.13 7.34l-.01 2.17.01 4.54-.01 6.93.01 4.42-.01 2.08c.02 3.64.31 6.98 1.14 10.52q.25 2.34.44 4.69c.72 7.63 2.3 15.1 4.5 22.43 1.09 3.79 1.82 7.61 2.56 11.48a78 78 0 0 0 1.5 5.84c2.07 7.36 3.1 14.82 3.79 22.42.24 2.43.72 4.76 1.21 7.14.75 5.37 1 10.57 1 16l.5 3.2c.54 4.07.58 7.95.5 12.05-.13 7.35-.13 7.35 1 10.75.24 4.25.19 8.5.19 12.75l.03 3.54c.01 5.96-.15 11.1-2.22 16.71l1.88.3c13.02 2.2 25.83 4.92 36.81 12.58 1.31 2.12 1.31 2.12 1.5 5.5-1.63 4.97-3.74 6.97-8.19 9.62-16.69 8.2-36.75 9.05-55 10.75l-2.03.2c-22.41 2.14-45.01 1.01-67.47.3l-4.05-.12c-27.92-.87-55.81-2.25-83.7-3.72a1750 1750 0 0 0-91.63-2.66h-2.4c-78.93-.02-157.79 6.67-236.04 16.81l-2.8.36q-6.15.8-12.3 1.66c-10.56 1.45-20.92 1.64-31.58 1.42v-1l1.77-.17 7.98-.77 2.79-.26 2.69-.26 2.48-.24A52 52 0 0 0 355 700q3.9-.44 7.81-.81c8.46-.84 16.88-1.92 25.3-3.04 15.33-2.01 30.67-3.73 46.04-5.33l8.44-.9a954 954 0 0 1 55.69-4.5l3.43-.18c3.46-.25 6.86-.73 10.29-1.24 4.41-.37 8.82-.62 13.24-.88q3.06-.17 6.12-.37c26.67-1.62 53.38-1.92 80.1-1.88h11.84c29.13-.04 58.16.97 87.26 2.43l9.98.5 9.8.48 3.54.17q8.55.43 17.08 1.06a508 508 0 0 0 23.39 1.11c17.09.52 34.18.53 51.28.51h23.76l4.93.01 6.8-.01h3.89C868 687 868 687 870 686q2.56-.38 5.14-.65l3.16-.35 3.39-.38c30.48-3.55 30.48-3.55 40.31-9.62 1.94-2.68 2.95-4.25 3.19-7.56-1.9-3.9-5.36-4.91-9.19-6.44l-2.34-1c-5.9-2.33-11.86-3.79-18.04-5.12l-2.52-.56L887 653l-.06-3.43c-.4-21.9-.79-43.75-2.94-65.57l-.27-2.92c-1.89-19.63-5.82-39.17-10.81-58.25l-.54-2.1-1.53-5.72c-1.96-8.33-2.02-17.01-2.09-25.53l-.03-2.99-.04-9.74-.01-3.42c-.03-17.98.86-35.78 2.32-53.71 4.82-59.54 4.82-59.54-1-85.62l-.5-2.3c-3.58-15.71-10.11-30.21-18.35-44-1.34-3.14-1.32-4.52-.15-7.7 2.7-2.2 5.45-3.71 8.53-5.34A96 96 0 0 0 877 263l2.36-1.92c17.9-15.19 27.96-34.99 37.08-56.16 8.82-20.48 20.04-38.67 41.49-47.73 6.01-2.26 11.55-2.7 17.95-2.63l2.94.03c7.05.16 12.91 1 19.18 4.41l2.52 1.29c12.38 6.82 21.54 17.25 28.92 29.15 11.63 18.59 11.63 18.59 21.56 21.56 10.12 1.29 10.12 1.29 14.23-1.53L1067 208h2q1.03-2.5 2-5l.8-2.02c3.81-10.31 2.43-18.89-1.8-28.98a118.6 118.6 0 0 0-67.69-57.38c-25.66-7.1-51.81-4.56-75.03 8.45-25.01 14.64-38.02 35.63-49.34 61.68-12.14 27.89-30.47 49.75-58.9 62.21-4.54 1.55-7.47 1.27-12.04.04l-3.55-.88q-3.04-.75-6.08-1.53c-12.57-3.24-25.42-5.69-38.44-5.83l-2.26-.03q-3.62-.04-7.23-.04l-2.5-.01c-12.84 0-25.06.87-37.61 3.78q-3.2.74-6.44 1.34c-33.59 6.76-65.41 22.17-95.89 37.2l-3.26 1.6a850 850 0 0 0-36.62 18.95A856 856 0 0 1 547.5 312q-12.6 6.53-25.02 13.36Q511.76 331.23 501 337a4221 4221 0 0 0-39.24 21.35C442.38 369 442.38 369 435 369l-.9-3.45-3.42-12.97-1.45-5.55a392 392 0 0 0-8.91-30.04l-.86-2.5c-2.45-6.88-5.23-12.83-10.96-17.55-3.1-1.17-5.19-1.25-8.5-.94-7.13 4.21-12.55 10.51-17.61 16.96a368 368 0 0 1-8.51 10.35l-1.46 1.74A138 138 0 0 1 368 330l-1.56 1.7c-4.83 4.72-9.18 5.31-15.75 5.8-9.01.92-17.69 2.42-26.5 4.5l-3.23.76a191 191 0 0 0-14.28 3.93c-6.34 1.91-10.99 2.07-17.02-1.03l-1.91-1.04-2.05-1.06A615 615 0 0 1 279 340l-7.61-4.04-4.92-2.63c-7.13-3.81-14.23-7.11-22.47-5.33-3.95 2.9-6.02 6.25-7 11-1.53 21.22 1.04 42.93 5.52 63.65a214 214 0 0 1 2.98 18.66c8.27 66.8 8.27 66.8 26.5 84.69l2.13 2.09c9.15 8.07 21.04 13.28 32.87 15.91-1.57 3.48-3.64 6.34-5.94 9.38l-1.18 1.56c-18.93 24.9-39.37 48.37-60.88 71.06l-2.36 2.49c-21.75 22.38-21.75 22.38-34.46 22.75-10.07.32-16.36 1.88-24.18 8.76-4.8 6.82-7.03 13.62-6.57 21.95A20.4 20.4 0 0 0 178 674c10.28 6.73 21.06 6.96 33 6a34 34 0 0 0 10-4l2.93-1.6q2.88-1.58 5.72-3.23C232 670 232 670 235 670l-1.5 2.69c-2.78 6.49-2.51 14.27-.31 20.87 3.46 4.66 7.61 7.02 12.81 9.44v1c-6.03-.13-8.81-2.06-13.2-6.11A58 58 0 0 1 228 692q-1.47-1.53-3-3l2-2c.41-2.6.41-2.6.62-5.62l.23-3.04.15-2.34-2.35 1.21c-11.81 5.79-23.58 9.83-36.55 5.91-8.35-3.02-14.49-7.55-19.35-15.06-2.67-5.74-2.14-12.03-.75-18.06 3.71-8.72 10.11-16.29 18.82-20.22 4.97-1.78 9.96-3.29 15.18-2.09 6.78.7 12.49-4.09 17.53-8.17 7.55-6.37 14.53-13.38 21.53-20.33l1.53-1.52c5.31-5.26 10.24-10.45 14.41-16.67q1.47-1.53 3-3l3.12-3.56q4.1-4.71 8.32-9.32c4.4-4.88 8.5-9.95 12.56-15.12l2.7-3.39c5.34-6.72 10.5-13.5 15.3-20.61l-3.12-.31c-3.9-.69-6.44-1.79-9.88-3.69l-2.81-1.31c-7.39-3.92-13.01-8.17-18.41-14.59-1.78-2.1-1.78-2.1-4.53-4.72-7.33-7.75-10.62-19.25-13.25-29.38l-1.06-3.56A87 87 0 0 1 248 459l-1-3c-1.38-7.74-2.37-15.55-3.45-23.34-3.46-24.94-3.46-24.94-5.74-36.28-2.72-13.76-4-27.3-4.69-41.32l-.22-3.73c-.35-8.79.64-15.66 5.96-22.84 3.35-2.86 5.5-4.36 9.89-5.24 11.7 1.2 23.06 9.27 33.25 14.75 15.33 8.21 15.33 8.21 24 5.69l5-1.69c4.5-1.34 9-2.48 13.59-3.44C327 338 327 338 330 337.01a51 51 0 0 1 9.87-1.62l3.24-.29q3.32-.28 6.64-.52c7.82-.75 11.99-2.76 17.25-8.58q1.97-2.03 4-4h2l.31-1.94.69-2.06 3-1 .44-1.94.56-2.06 4-2 .27-1.71c1.12-3.52 3.79-5.48 6.48-7.85l1.59-1.46c3.98-3.58 7.56-6.62 12.97-7.54 5.06.77 7.94 3.21 11.69 6.56l1.61 1.43c4.39 4.95 6.26 12.68 8.07 18.91a82 82 0 0 0 3.88 11.1c1.6 3.95 2.22 7.67 2.9 11.86a47 47 0 0 0 2.88 8.78c1.11 3.24 1.31 6.52 1.66 9.92l1 2-1 3c14.21-4.76 27.12-11.45 40-19a1533 1533 0 0 1 11.34-6.31A300 300 0 0 1 500 334l2.5-1.5c2.77-1.66 5.62-3.06 8.5-4.5l5.08-2.89q8.32-4.8 16.92-9.11c4.97-2.66 9.93-5.36 14.81-8.19 3.93-2.23 7.95-4.2 12-6.19 3.33-1.69 6.59-3.5 9.85-5.34 3.34-1.83 6.76-3.51 10.19-5.19 14.08-6.91 14.08-6.91 18.53-9.84 3.42-2.25 6.95-3.63 10.77-5.08 5.78-2.37 11.29-5.33 16.85-8.17 4.28-2.16 8.58-4.14 13-6l3.62-1.56q4.17-1.77 8.38-3.44l2.39-.96c13.66-5.5 13.66-5.5 18.99-6.98a74 74 0 0 0 8.43-3.06 57 57 0 0 1 12.67-3.51c2.52-.49 2.52-.49 5.86-1.45 8.6-2.45 17.5-4.16 26.41-4.83 2.25-.21 2.25-.21 5.08-.69 20.03-3.26 43.96-2.38 63.17 4.48l4 1 3.76 1.15c13.09 3.79 13.09 3.79 18.93.79q2.2-1.43 4.31-2.94l3.06-1.44C849.04 227.4 863.9 208.6 873 187c4.64-10.9 9.76-21.52 16.32-31.4 1.68-2.6 1.68-2.6 3.44-5.98 2.42-4.27 5.74-7.3 9.36-10.56l2.04-1.85q2.91-2.62 5.84-5.21l2.64-2.37c10.83-9.18 23.79-15.66 37.36-19.63l3.28-.96c28.56-7.24 59.32 1.93 82.72 18.96" fill="#E3E3E4"/><path d="M246.81 327.19q1.07.4 2.2.8l-1 2c.33.13.33.13 2.08.7 9.7 3.38 17.7 8.07 26.16 13.8q1.02.71 2.08 1.42c3.94 2.72 7.63 5.35 10.67 9.09.11 2.06.11 2.06-1 4-2.15 2.07-2.15 2.07-4.8 4.13l-2.66 2.07A38 38 0 0 1 274 369v2l-3.44 3.3c-5.3 5.74-10.48 13.17-13.06 20.58a98 98 0 0 1-3.13 7.69A36 36 0 0 0 252 413l-1.94.3-2.06.7-1 3-3 1-.55-3.37-.76-4.63-.4-2.48a320 320 0 0 0-2.09-11.54c-3.06-15.18-4.36-30.37-4.5-45.85l-.07-3.05c.01-7.4 1.06-12.16 5.74-18.08 2.63-2 2.63-2 5.44-1.81" fill="#272825"/><path d="M406 295c7.67 3.67 11.5 11.12 14.31 18.84q1.09 3.26 2.13 6.54l1.14 3.51c2.75 8.62 5.23 17.3 7.54 26.05l.94 3.48.82 3.23.73 2.85c.4 2.54.22 4.08-.61 6.5l-3-3v8a103 103 0 0 1-10-9c-5.57-5.54-11.89-8.76-19-12l-3.19-1.54c-4.73-2.01-9.71-2.76-14.75-3.65l-2.94-.53q-3.55-.66-7.12-1.28c-.29-4.59.22-7.05 2.75-10.88a79 79 0 0 0 5.37-9.5c1.55-3.18 3.37-5.11 5.88-7.62a153 153 0 0 0 3.77-6.75 63 63 0 0 1 3.48-5.63C396 300 396 300 397 297c3.53-2.36 4.84-2.49 9-2" fill="#232521"/><path d="M803 569q4.03 2.96 8 6l2.7 2.05c14.74 11.58 22.76 25.39 25.3 43.95q.64 8.5 0 17c-1.58 1.58-3.32 1.16-5.5 1.25-5.78.51-9.66 2.73-14.5 5.75-4.37 2.59-7.1 1.82-12 1-.13-7.32-.13-7.32.49-10.64.58-3.83.69-7.58.71-11.44l.02-2.34.02-4.91q.02-3.66.07-7.32A143 143 0 0 0 805 578l-.64-3.04A302 302 0 0 0 803 569" fill="#EAECEC"/><path d="m885 580 1 2h2l-.04 1.94-.02 2.62-.04 2.57c.1 2.87.1 2.87.6 6.19.55 4.03.58 7.88.5 11.93-.13 7.35-.13 7.35 1 10.75.24 4.25.19 8.5.19 12.75l.03 3.54c.01 5.96-.15 11.1-2.22 16.71l1.88.3c13.02 2.2 25.83 4.92 36.81 12.58 1.31 2.12 1.31 2.12 1.5 5.5-1.63 4.97-3.74 6.97-8.19 9.62-16.69 8.2-36.75 9.05-55 10.75l-2.03.2c-22.41 2.14-45.01 1.01-67.47.3l-4.05-.12c-27.92-.87-55.81-2.25-83.7-3.72a1750 1750 0 0 0-91.63-2.66h-2.4c-78.93-.02-157.79 6.67-236.04 16.81l-2.8.36q-6.15.8-12.3 1.66c-10.56 1.45-20.92 1.64-31.58 1.42v-1l1.77-.17 7.98-.77 2.79-.26 2.69-.26 2.48-.24A52 52 0 0 0 355 700q3.9-.44 7.81-.81c8.46-.84 16.88-1.92 25.3-3.04 15.33-2.01 30.67-3.73 46.04-5.33l8.44-.9a954 954 0 0 1 51.77-4.29l3.92-.21 3.43-.18c3.46-.25 6.86-.73 10.29-1.24 4.41-.37 8.82-.62 13.24-.88q3.06-.17 6.12-.37c26.67-1.62 53.38-1.92 80.1-1.88h11.84c29.13-.04 58.16.97 87.26 2.43l9.98.5 9.8.48 3.54.17q8.55.43 17.08 1.06a508 508 0 0 0 23.39 1.11c17.09.52 34.18.53 51.28.51h23.76l4.93.01 6.8-.01h3.89C868 687 868 687 870 686q2.56-.38 5.14-.65l3.16-.35 3.39-.38c30.48-3.55 30.48-3.55 40.31-9.62 1.94-2.68 2.95-4.25 3.19-7.56-1.9-3.9-5.36-4.91-9.19-6.44l-2.34-1c-5.9-2.33-11.86-3.79-18.04-5.12l-2.52-.56L887 653l-.08-3.6-.29-13.47-.13-5.78a675 675 0 0 0-1.29-31.82c-.25-3.96-.31-7.87-.27-11.83l.02-3.78z" fill="#E8E9E8"/><path d="M764 236v1l-1.73.04C705.74 238.63 657.25 256.21 607 281l-3.26 1.6a850 850 0 0 0-36.62 18.95A856 856 0 0 1 547.5 312q-12.6 6.53-25.02 13.36Q511.76 331.23 501 337a4221 4221 0 0 0-39.24 21.35C442.38 369 442.38 369 435 369l-.9-3.45-3.42-12.97-1.45-5.55a392 392 0 0 0-8.91-30.04l-.86-2.5c-2.45-6.88-5.23-12.83-10.96-17.55-3.1-1.17-5.19-1.25-8.5-.94-7.13 4.21-12.55 10.51-17.61 16.96a368 368 0 0 1-8.51 10.35l-1.46 1.74A138 138 0 0 1 368 330l-1.56 1.7c-4.83 4.72-9.18 5.31-15.75 5.8-10.11 1.02-19.78 2.94-29.64 5.34A281 281 0 0 1 301 347v-2c16.23-4.9 16.23-4.9 23.59-6.44C327 338 327 338 330 337.01a51 51 0 0 1 9.87-1.62l3.24-.29q3.32-.28 6.64-.52c7.82-.75 11.99-2.76 17.25-8.58q1.97-2.03 4-4h2l.31-1.94.69-2.06 3-1 .44-1.94.56-2.06 4-2 .27-1.71c1.12-3.52 3.79-5.48 6.48-7.85l1.59-1.46c3.98-3.58 7.56-6.62 12.97-7.54 5.06.77 7.94 3.21 11.69 6.56l1.61 1.43c4.39 4.95 6.26 12.68 8.07 18.91a82 82 0 0 0 3.88 11.1c1.6 3.95 2.22 7.67 2.9 11.86a47 47 0 0 0 2.88 8.78c1.11 3.24 1.31 6.52 1.66 9.92l1 2-1 3c14.21-4.76 27.12-11.45 40-19a1533 1533 0 0 1 11.34-6.31A300 300 0 0 1 500 334l2.5-1.5c2.77-1.66 5.62-3.06 8.5-4.5l5.08-2.89q8.32-4.8 16.92-9.11c4.97-2.66 9.93-5.36 14.81-8.19 3.93-2.23 7.95-4.2 12-6.19 3.33-1.69 6.59-3.5 9.85-5.34 3.34-1.83 6.76-3.51 10.19-5.19 14.08-6.91 14.08-6.91 18.53-9.84 3.42-2.25 6.95-3.63 10.77-5.08 5.78-2.37 11.29-5.33 16.85-8.17 4.28-2.16 8.58-4.14 13-6l3.62-1.56a359 359 0 0 1 10.77-4.4c13.66-5.5 13.66-5.5 18.99-6.98a74 74 0 0 0 8.43-3.06 57 57 0 0 1 12.67-3.51c2.52-.49 2.52-.49 5.86-1.45a139 139 0 0 1 26.61-4.86c2.05-.18 2.05-.18 4.93-.68 10.78-1.73 22.66-3.22 33.12.5" fill="#E7E7E9"/><path d="m372 556 3 1c-.48 4.33-3.04 6.37-6.06 9.31l-1.51 1.47a224 224 0 0 1-10.6 9.61 99 99 0 0 0-5.33 5.11 113 113 0 0 1-7.25 6.75 195 195 0 0 0-12.34 11.91c-2.82 2.81-5.81 5.4-8.82 8.01-3.45 3.02-6.76 6.18-10.09 9.33a458 458 0 0 1-16 14.5l-1.64 1.42c-25.34 21.86-25.34 21.86-31.59 21.78l-2.43-.02-2.53-.06-2.56-.02-6.25-.1a101 101 0 0 1 11.19-9.94l1.82-1.41L269 640l8.88-6.88 2.3-1.78a894 894 0 0 0 17.06-13.65q6.38-5.2 12.88-10.25c5.45-4.24 10.7-8.66 15.91-13.17a368 368 0 0 1 12.42-10.22c4.69-3.77 9.26-7.69 13.84-11.6l8.71-7.39 1.6-1.36 4.4-3.7 2.69-2.38z" fill="#EAE8EC"/><path d="M332 463c2.38 3 2.38 3 4 6-1 3-1 3-3.15 4.32-12.64 5.65-23.73 7.71-36.97 2.96-5.38-2.39-9.61-5.37-12.88-10.28v-4c13.29-4.5 37.25-8.97 49 1" fill="#161816"/><path d="m414 441 2 3a197 197 0 0 1-28 15v-2l-4-2 1.5 1.88C387 459 387 459 387 461l-7.25 3.06-2.07.9c-3.7 1.52-5.86 2.28-9.68 1.04-.76-2.7-.76-2.7-1-6 1.7-2.52 1.7-2.52 4.12-4.81l2.39-2.33c2.6-1.94 4.3-2.51 7.49-2.86l1-3a53.4 53.4 0 0 1 32-6" fill="#141613"/><path d="M360 474a23 23 0 0 1 4 3c-.48 4.29-1.02 6.02-4 9q-1.08 3.48-2 7c-1 1-1 1-3.44 1.19C352 494 352 494 350 492v-4l-2.38-.88C345 486 345 486 343 484c-.5-2.31-.5-2.31 0-5 4.65-5.65 9.91-6.28 17-5" fill="#656567"/><path d="M407 293a50 50 0 0 1 8 6l1.61 1.43c4.39 4.95 6.26 12.68 8.07 18.91a82 82 0 0 0 3.88 11.1c1.6 3.95 2.22 7.67 2.9 11.86a47 47 0 0 0 2.88 8.78c1.11 3.24 1.31 6.52 1.66 9.92l1 2-1 3 2.3-.88 3.01-1.12 2.99-1.12c2.7-.88 2.7-.88 5.7-.88v2l-5.81 2.5-3.27 1.41C438 369 438 369 435 369l-.9-3.45-3.42-12.97-1.45-5.55a392 392 0 0 0-8.91-30.04l-.86-2.5c-2.45-6.88-5.23-12.83-10.96-17.55-3.91-1.47-7.01-1.57-10.88.06l-1.62 1-1-2c4.12-2.99 6.94-3.77 12-3" fill="#ECEDEE"/><path d="M859 278a33 33 0 0 1-6 5c2 4.76 4.14 9.3 6.75 13.75 3.02 5.44 5.28 11.08 7.5 16.87l1.03 2.68a94 94 0 0 1 4.28 14.69c.44 2.01.44 2.01 1.53 5.13 1.07 3.38 1.29 6.46 1.47 10 .35 6.55.35 6.55.95 8.7.63 2.8.62 5.43.62 8.3l.01 3.59-.02 3.73.02 3.72-.01 3.59v3.27c-.12 2.77-.5 5.28-1.13 7.98h-1l-.04-1.81c-.93-34.34-4.7-67.4-22.61-97.38-1.55-2.7-2.36-4.46-2.25-7.6 1.78-4.36 4.69-4.44 8.9-4.21" fill="#E8E9EA"/><path d="M238 358h1l.15 1.72.23 2.34.21 2.29c.41 2.65.41 2.65 1.32 5.68 1.92 6.43 2.6 13.19 3.59 19.81 1.41 9.18 1.41 9.18 2.62 13.19.88 2.97.88 2.97.88 6.97l-4 2c-2.19-5.14-3.12-10.21-4.06-15.69l-.53-3.08a176 176 0 0 1-2.35-21.29c-.19-4.77.25-9.23.94-13.94" fill="#161915"/><path d="M247 448h2c1.45 4.99 2.82 9.97 3.81 15.07C256.9 484.01 264.16 501.3 282 514l2 1-1 3c-6-2.81-9.62-6.61-13.93-11.61-2.07-2.39-2.07-2.39-4.88-5.08-7.3-7.71-10.57-19.22-13.19-29.31l-1.06-3.56A87 87 0 0 1 248 459l-1-3c-.13-2.67-.04-5.32 0-8" fill="#E5E4E6"/><path d="m296 460 .48 2.01c2.02 7.64 5.04 11.43 11.52 15.99-8.86-.59-15.95-2.29-22.66-8.37-1.97-2.39-2.27-4.59-2.34-7.63 4.52-1.23 8.29-2.13 13-2" fill="#D4BD6C"/><path d="m1010 114 4.23 1.9c9.47 4.3 18.45 8.52 25.77 16.1l2.44 1.44c3.01 1.83 5.14 4.01 7.56 6.56l2.31 2.31L1054 144l-1 3a102 102 0 0 1-10.06-9.31c-15.34-15.48-38.88-24.07-59.94-26.69v-1c10.18-2.71 17.74-.4 27 4" fill="#DFE0E2"/><path d="m885 580 1 2h2l-.04 1.94-.02 2.62-.04 2.57c.1 2.87.1 2.87.6 6.19.55 4.03.58 7.88.5 11.93-.13 7.35-.13 7.35 1 10.75.24 4.25.19 8.5.19 12.75l.03 3.54c.01 5.96-.15 11.1-2.22 16.71l2.09.37A364 364 0 0 1 908 655l-1 2-20-4-.18-8.62a2382 2382 0 0 1-.32-14.23 675 675 0 0 0-1.29-31.82c-.25-3.96-.31-7.87-.27-11.83l.02-3.78z" fill="#F1F2F3"/><path d="M380 450q2.04 2.97 4 6l1.75 1.75C387 459 387 459 387 461l-7.25 3.06-2.07.9c-3.7 1.52-5.86 2.28-9.68 1.04-.77-2.7-.77-2.7-1-6 1.8-2.52 1.8-2.52 4.31-4.81l2.49-2.33c3.39-2.86 3.39-2.86 6.2-2.86" fill="#E9CC70"/><path d="M874 365h1l.08 2.04.36 9.34.12 3.21c.19 4.95.45 9.86 1 14.79.4 3.78.43 7.32.06 11.12l-.3 3.32q-.55 5.5-1.14 10.97a73 73 0 0 0-.18 5.9c0 5.52-1.07 10.88-2 16.31l-3 1q.73-17.54 2-35.06a977 977 0 0 0 2-42.94" fill="#D9D9DB"/><path d="m233 669 2 1-1.5 2.69c-2.78 6.49-2.51 14.27-.31 20.87 3.46 4.66 7.61 7.02 12.81 9.44v1c-6.03-.13-8.81-2.06-13.2-6.11A58 58 0 0 1 228 692q-1.47-1.53-3-3l2-2c.41-2.6.41-2.6.62-5.62l.23-3.04.15-2.34-2.6 1.28-3.46 1.66-3.41 1.65c-5.58 2.23-10.54 2.63-16.47 1.97l-2.9-.31L197 682v-1l2.71-.08c11.17-.52 24.97-3.6 33.29-11.92" fill="#D2D4D2"/><path d="M253 324c9.51 3.01 18.24 8.22 26.99 12.92 12.95 6.94 12.95 6.94 18.2 8.33l2.81.75 1 2c-5.63.39-9.39-.73-14.25-3.38l-2.05-1.06A615 615 0 0 1 279 340l-7.61-4.04-4.92-2.63c-7.3-3.9-14.05-6.73-22.47-5.33-2.51 1.42-3.99 2.88-6 5 .24-3.27 1.28-4.3 3.56-6.75 3.67-2.79 6.99-3.16 11.44-2.25" fill="#DDDFE1"/><path d="M794 240q3.96 1.02 7.97 1.9l2.23.51 4.6 1.04c3.64.84 6.95 1.62 10.2 3.55-6.8 1.63-11.69.16-18.3-1.88-19.51-5.89-39.49-6.55-59.7-7.12v-1l2.05-.08a1414 1414 0 0 0 12.42-.48l3.11-.12 2.85-.11c11.47-.92 21.44-.18 32.57 3.79" fill="#DCDCDF"/><path d="m372 556 3 1c-.44 4.35-3.32 6.69-6.31 9.56l-1.48 1.46C360.08 575 360.08 575 355 575q-2.5.45-5 1c3.82-5.13 8.34-8.9 13.34-12.87 2.12-1.7 4.14-3.44 6.16-5.25z" fill="#EDEFED"/><path d="M249 592c0 6.48-7.96 12.05-12.25 16.44-22.4 22.37-22.4 22.37-32.01 22.66l-3.86-.04-3.89-.02L194 631v-1l2.27-.26c22.74-3.12 37.46-22.15 52.73-37.74" fill="#E0E1E1"/><path d="M1054 145c3.23 2.98 4.98 4.78 6 9l1.81.88c3.15 1.61 4.46 4.16 6.19 7.12l1.22 2.01c4.98 8.48 7.89 17.37 9.78 26.99l-3 1-.66-2.86c-3.68-15.15-10.34-27.03-20.68-38.8L1053 148z" fill="#E5E5E4"/><path d="M501 569v3c-2.09 1.83-2.09 1.83-4.94 3.81l-3.02 2.13a249 249 0 0 1-10.36 6.64c-2.01 1.7-2.32 2.85-2.68 5.42-3.98 1.33-7.85 1.07-12 1v-2c1.66-1.19 1.66-1.19 4.06-2.56l2.75-1.6L478 583q3.83-2.27 7.62-4.56l1.96-1.17q6.76-4.06 13.42-8.27" fill="#050505"/><path d="M764 236v1l-1.94.08q-4.44.17-8.87.36l-3.05.12q-8.9.38-17.76 1.23c-2.7.24-5.36.31-8.07.27l-2.51-.02-1.8-.04v-2c4.62-1.26 9.25-1.58 14-2l2.93-.29C755.55 233 755.55 233 764 236" fill="#F2F2F4"/><path d="M237 331c1.01 3.15.79 4.85 0 8q-.12 2.1-.11 4.22v2.48l.01 2.66.01 2.74q0 4.33.03 8.65l.01 5.87L237 380l-2-1c-1.21-7.74-1.46-15.61-1.81-23.44l-.23-3.81c-.35-7.86.35-13.74 4.04-20.75" fill="#E4E7E5"/><path d="m872 338 3 1 .18 2.92.26 3.83.24 3.8c.32 3.45.32 3.45.83 5.28.63 2.8.62 5.42.62 8.29l.01 3.59-.02 3.73.02 3.72-.01 3.59v3.27c-.12 2.77-.5 5.28-1.13 7.98h-1l-.06-1.89c-.4-11.91-.93-23.75-2.28-35.6-.51-4.54-.75-8.94-.66-13.51" fill="#EEEEF1"/><path d="M888 685c-2.5 2.5-3.91 2.52-7.38 3.06l-2.89.48-3.73.46-2.34.3c-10.3 1.08-20.59.58-30.91.26l-5.76-.16L821 689v-1l1.77-.03 25-.47 9.75-.18 3.09-.05 2.85-.06 2.52-.05C868 687 868 687 870 686a117 117 0 0 1 18-1" fill="#E1E3E2"/><path d="M341 336v2a3419 3419 0 0 1-18.37 4.51l-6.73 1.64-2.08.52A118 118 0 0 1 301 347v-2c15.8-4.77 15.8-4.77 23.8-6.5 3.1-.71 6.14-1.62 9.2-2.5 4.7-1.15 4.7-1.15 7 0" fill="#EAECEC"/><path d="M307.38 455.69h2.5c8.3.16 16.24 1.32 23.12 6.3q-.48 1-1 2l-1.81-1.36c-9.81-5-21.49-3.84-32.2-3.63q-.48.99-1 2v-2l-9 1c1-2 1-2 2.75-2.62a75 75 0 0 1 16.63-1.7" fill="#040403"/><path d="M229 677h1l.08 2.12c.46 7.72 1.63 13.67 7.3 19.19A70 70 0 0 0 246 703v1c-6.03-.13-8.81-2.06-13.2-6.11A58 58 0 0 1 228 692q-1.47-1.53-3-3l2-2c.38-2.13.38-2.13.56-4.56.34-4.34.34-4.34 1.44-5.44" fill="#D8D8DA"/><path d="m414 439 2 3-2.94-.18c-7.68-.31-14.46.14-21.81 2.49l-2.02.65c-3.53 1.22-6.39 2.6-9.23 5.04l-2-2c11.62-7.46 22.01-10.75 36-9" fill="#020402"/><path d="M974.31 106.81h2.67c3.86.03 7.28.13 11.02 1.2v2c-24.99 1.18-24.99 1.18-35 1 5.14-5.16 14.5-4.3 21.31-4.2" fill="#E5E7E6"/><path d="M295 462c.76 4.32 1.16 7.74 0 12-2.38-.19-2.38-.19-5-1-1.86-3.28-2-5.17-2-9 3-2 3-2 7-2" fill="#EBC766"/><path d="M380 454v2h2l2 6c-4.27 1.14-7.56 2-12 2v-4h2v-2c3.53-4 3.53-4 6-4" fill="#EFCB6F"/><path d="M284 516a81 81 0 0 1 10.38 4 61 61 0 0 0 12.62 4l-2 4-7.11-2.86a189 189 0 0 0-5.75-2.16l-2.7-.98-2.51-.88C285 520 285 520 284.22 517.88z" fill="#DCDDDC"/><path d="m1010 114 1 3-1.81-.55c-8.62-2.5-17.35-3.99-26.19-5.45v-1c9.66-2.58 18.38-1.04 27 4" fill="#D7D7D9"/><path d="M180 677c3.59.68 7.09 1.55 10.62 2.5A90 90 0 0 0 208 682v2c-10.27 1.9-18.59-.88-28-5z" fill="#EEE"/><path d="m773.06 235.25 2.6.2c2.66.63 3.63 1.47 5.34 3.55-13.35.22-26.67-.43-40-1v-1l2.05-.08 9.2-.36 3.22-.12 3.11-.12 2.85-.11c4.11-.33 7.45-1.34 11.63-.96" fill="#CDCBCF"/><path d="m372 556 3 1c-.41 4.45-3.5 6.84-6.56 9.75l-1.58 1.54L363 572l-1-3 1-2h2l2-4-1-1z" fill="#D8DADB"/><path d="M976 155c9.27-.65 17.17.78 25 6l-1 3-2.94-1.88c-4.2-2.4-8.35-3.22-13.06-4.12q-4-.97-8-2z" fill="#E9EAE8"/><path d="M253 324c2.78.83 5.32 1.85 8 3v1l-3.51-.18-4.61-.13-2.31-.13c-4.26-.09-6.79.18-10.12 2.96L238 333c.24-3.27 1.28-4.3 3.56-6.75 3.59-2.78 7.05-3.03 11.44-2.25" fill="#DFE0E0"/><path d="M722 239v1q-4.59 1.05-9.19 2.06l-2.62.61c-7.94 1.73-7.94 1.73-12.19.33 3.24-2.86 5.82-3.55 10.06-4.12 10.46-1.48 10.46-1.48 13.94.12" fill="#DFDEE1"/><path d="M249 592c0 6.54-8.09 12.14-12.44 16.5L232 613l-1-3z" fill="#D4D7D4"/><path d="M918 201h1c-.48 7.18-1.31 13.93-6.19 19.5L911 222c-1-2-1-2-.38-3.97l1.03-2.38 1.11-2.58 1.18-2.69 1.17-2.72q1.43-3.34 2.89-6.66" fill="#DCDCDF"/><path d="m871 442 2 1q.04 4.4.06 8.81l.03 2.53.01 2.43.01 2.24C873 461 873 461 872 464h-2a1817 1817 0 0 1-.09-13.45l-.01-2.86-.01-2.65C870 443 870 443 871 442" fill="#F1F1F2"/><path d="M1075 187h1c1.52 7.08.89 11.51-2.58 17.87A27 27 0 0 1 1069 210l-3-1 3-1c1-2 1-2 2-5l.75-2.09c1.65-4.65 2.73-9 3.25-13.91" fill="#D1D2D3"/><path d="M295 469c4.46 1.4 6.81 3.64 10 7l3 2c-5.27-.45-10.02-1.08-15-3l2-1z" fill="#E1C372"/><path d="M887 254h2c-.36 2.62-.67 3.73-2.75 5.44L884 261l-2.44 2.44A77 77 0 0 1 874 270l-2-1c4.28-5.24 8.84-9.64 14-14z" fill="#E9E9EC"/><path d="M926 185h2c-1.55 6.96-4.72 13.7-8 20h-1c.26-7.96 2.87-13.25 7-20" fill="#E2E2E4"/><path d="m885 580 1 2h2l-.04 1.94c-.04 4.01 0 7.77.6 11.75.49 3.66.1 6.69-.56 10.31h-1l-1-11h-1z" fill="#EDEEEE"/><path d="M245 428h1l1.5 7.75.43 2.21A51 51 0 0 1 249 448h-3c-1.59-7.04-2.17-12.86-1-20" fill="#D7D8D6"/><path d="M741 238c-7.03.75-13.93 1.14-21 1v-2c7.23-1.95 14.42-3.39 21 1" fill="#EAEAEC"/><path d="M264 574c.65 1.8.65 1.8 1 4a70 70 0 0 1-5.75 6.62l-1.67 1.78A43 43 0 0 1 250 593a43 43 0 0 1 4.94-8.06l1.52-2.04A60 60 0 0 1 261 578q1.53-1.98 3-4" fill="#E5E7E6"/><path d="m331 464 5 5c-1 3-1 3-3.88 4.75C329 475 329 475 326 474l1.38-1.06c2.27-2.71 2.79-5.55 3.62-8.94" fill="#CDBF8A"/><path d="m925 121 3 1a122 122 0 0 1-11.82 8.54A123 123 0 0 0 910 135c.25-3.3 1.1-4.09 3.65-6.32q1.63-1.2 3.29-2.37l1.67-1.22A46 46 0 0 1 925 121" fill="#DADBDC"/><path d="m976 155 2 2-2.23.4-2.96.54-2.92.52q-2.83.53-5.64 1.2L962 160c-1.81-1.44-1.81-1.44-3-3 5.48-2.37 11.11-2.65 17-2" fill="#DCDFDF"/><path d="m379 648 2 1c-3.74 6.63-3.74 6.63-7.34 7.69-2.23.22-4.41.34-6.66.31a37.5 37.5 0 0 1 12-9" fill="#DFDEE0"/><path d="m1065 210 3 1c-4.55 3.83-7.72 4.43-13.63 4.34-2.5-.36-4.2-1.09-6.37-2.34v-2l3.21.04 4.17.02 2.11.03c5.28.02 5.28.02 7.51-1.09" fill="#EDEDEF"/><path d="m356 573 2 3-7 7-2-1 1-5-2-1 3.44-.94C355 574 355 574 356 573" fill="#DCE0E1"/><path d="M247 448h2l1.56 5.25.88 2.95c.55 2.76.5 4.19-.44 6.8-2.65-1.96-3.01-3.06-3.69-6.38-.25-2.9-.4-5.71-.31-8.62" fill="#DFDFE1"/><path d="M871 422h1q.62 4.4 1.19 8.81l.36 2.53.61 4.67c-.16 1.99-.16 1.99-1.59 3.75C871 443 871 443 870 443z" fill="#C8C8C9"/><path d="M1042 135c4.27.47 6.17 2.96 9 6l1.81 1.81L1054 144l-1 3c-8.37-7.05-8.37-7.05-11-10z" fill="#DAD8D9"/><path d="m830 237 2 1c-1 3-1 3-3.14 4.39l-2.67 1.3-2.65 1.32C821 246 821 246 817 246l1-3q2.99-1.04 6-2 3.05-1.91 6-4" fill="#EAEAED"/><path d="m233 669 2 1-1.44 2.81c-2.12 4.88-2.28 9.94-2.56 15.19h-1l-1-13-4-1q1.93-1.3 3.88-2.56l2.17-1.44z" fill="#C9CAC8"/><path d="M250 462c2.55 2.22 3.39 3.69 4 7q.1 2.38.06 4.75l-.02 2.42L254 478c-3.17-3.44-3.49-6.44-4-11l-1-2z" fill="#EDEDF0"/><path d="m367 460 1 2h2v-2h2v4l7-1c-2.28 2.28-3.94 3.05-7 4-2.31-.38-2.31-.38-4-1z" fill="#CFB671"/><path d="M246 402c1.76 3.09 2 4.23 2 8l-4 2c-1.5-3.37-2-5.2-2-9l3 1z" fill="#1A191B"/><path d="m838 685 7.31-.12 2.09-.06c3.77-.03 5.38.04 8.6 2.18-3.03 1.01-5.26 1.2-8.44 1.25l-2.87.08c-3.08-.38-4.41-1.28-6.69-3.33" fill="#B2B2B5"/><path d="M246 327c7.75-.12 7.75-.12 10 1l-1 4-8-1 1-2z" fill="#0F0F11"/><path d="M203 629v1l-2.45.4-3.24.54-3.2.52q-4.06.7-8.11 1.54v-2c12.46-4.86 12.46-4.86 17-2" fill="#EDEEEE"/><path d="M384 462v5l-4 2v-2l-2.88.62-3.12.38-2-2 4.31-2 2.43-1.12C381 462 381 462 384 462" fill="#291E14"/><path d="M242 414h2c1.13 3.61 1.1 6.98 1.06 10.75l-.02 3.55-.04 2.7-2-1c-.31-2.71-.51-5.34-.62-8.06l-.12-2.3z" fill="#ECECEC"/><path d="M380 450q2.04 2.97 4 6l1.75 1.75C387 459 387 459 387 461l-5-1v-4h-2v-3h-5c2.75-3 2.75-3 5-3" fill="#D2BE7E"/><path d="M861 209h2c-.6 3.33-1.72 5.21-3.94 7.75l-1.59 1.86C856 220 856 220 854 220c1.49-4.6 3.75-7.5 7-11" fill="#EEECEF"/><path d="m800 661 1 3c-1.36 2.01-1.36 2.01-3.31 4.12l-1.93 2.14C794 672 794 672 792 673l-2-1-1 2-2-2 1.83-.88c5.29-2.72 8.35-4.85 11.17-10.12" fill="#ADB1AE"/><path d="m803 569 7 5-1 4h-4z" fill="#DCDEDE"/><path d="M394 297h2c-1.51 3.84-3.77 5.52-7 8a262 262 0 0 0-5 5c.48-4.34 1.63-6.03 5-8.75l2.19-1.8L393 298z" fill="#D8D9D9"/><path d="M299 470h3v2h7l-1 4c-4 0-4 0-6.75-2.44C299 471 299 471 299 470" fill="#241D0F"/><path d="M957 111c-4.14 2.41-9.45 4.51-14.25 3.55L941 114c5.78-3.05 9.56-4.64 16-3" fill="#DFE0E0"/><path d="M463 357c-8.26 5.37-8.26 5.37-13 7v-3q2.4-1.3 4.81-2.56l2.71-1.44c2.48-1 2.48-1 5.48 0" fill="#DCDCDE"/><path d="M237 331c1.1 3.35.89 5.75.19 9.19l-.52 2.67L236 345l-2 1c-1.19-4.15-.79-6.39.94-10.31l1.15-2.68z" fill="#EDEDEE"/><path d="m260 333 9 1 1 6c-6.71-2.61-6.71-2.61-9-4z" fill="#0A0C0B"/><path d="m853 219 3 2-7 7-1-4c2.44-2.75 2.44-2.75 5-5" fill="#D8D8DB"/><path d="m282 554 1 3c-1.43 2.04-1.43 2.04-3.44 4.19l-1.99 2.17L276 565l-2-2z" fill="#DCDEDD"/><path d="M548 309v3l-9 4v-3c5.14-4 5.14-4 9-4" fill="#DFDEE1"/><path d="M918 201h1l-.44 4.38-.24 2.46C918 210 918 210 917 212h-3l1.44-4.38.81-2.46C917 203 917 203 918 201" fill="#D5D4D7"/><path d="m943 166 1 3q-1.89 1.8-3.81 3.56l-2.15 2.01L936 176l-3-1z" fill="#D2D3D3"/><path d="m830 685 16 1c-4.22 2.11-6.4 2.18-11 2v-1l-5-1z" fill="#C0C1C3"/><path d="M228 675c-4.13 3.25-6.64 5-12 5v-2c7.29-3.43 7.29-3.43 12-3" fill="#DEE1DD"/><path d="m172 666 1.69 2.12q3.61 4.48 7.31 8.88c-3.46 0-3.82-.37-6.19-2.69-2.19-2.28-2.76-2.95-3.19-6.19z" fill="#D3D5D6"/><path d="M210 628v2c-3 1.5-5.79 1.09-9.12 1.06l-3.89-.02L194 631v-1l5.75-1 3.23-.56C206 628 206 628 210 628" fill="#D5D5D5"/><path d="M367 563h2c-.18 2.38-.7 3.7-2.4 5.38A178 178 0 0 1 362 572l1-5h2z" fill="#CED0CF"/><path d="m788 238 1 3-14-1v-1a60 60 0 0 1 13-1" fill="#D8D6DB"/><path d="M180 677c4.08.74 8.02 1.83 12 3l-3 2c-2.26-.46-2.26-.46-4.69-1.38l-2.45-.89L180 679z" fill="#E2E3E4"/><path d="m870 507 1 3h2c1.25 6.62 1.25 6.62-1 10l-1-4.25-.56-2.39C870 511 870 511 870 507" fill="#C7C9CB"/><path d="M874 408c1.72 2.63 2.01 3.87 1.75 7.06C875 418 875 418 873 421l-.06-5.94-.04-3.34c.1-2.72.1-2.72 1.1-3.72" fill="#F1F1F3"/><path d="m448 361 2 1v2l-10 4c1.12-3.35 1.51-3.62 4.44-5.25z" fill="#E9E6EA"/><path d="M273 338q2.51.43 5 1l-1 3c-2.06.69-2.06.69-4 1-.56-1.94-.56-1.94-1-4z" fill="#0A0C0A"/><path d="m1038 203 11 7-1 2c-4.43-1.39-6.96-3.52-10-7z" fill="#E2E2E3"/><path d="M878 545h1l1 4.25.56 2.39C881 554 881 554 881 558h-2c-1.32-2.64-1.1-4.68-1.06-7.62l.02-3.04z" fill="#1D1E1E"/><path d="M408 294c5.75 3.62 5.75 3.62 8 7l-2 2-1.75-2.31A28 28 0 0 0 406 295z" fill="#E0E1E2"/><path d="m267 638 2 3-7 5-1-4h3c1.69-2 1.69-2 3-4" fill="#1A1819"/><path d="M330 468h4v3c-2.31 2.25-2.31 2.25-5 4l-3-1 1.44-1.31C329 471 329 471 330 468" fill="#B4AB70"/><path d="M261 327v1l-15-1v-1c5.79-1.02 9.46-.96 15 1" fill="#B7B9B8"/><path d="M988 108v2l-4.31.12-2.43.08C979 110 979 110 976 108c4.32-.76 7.74-1.16 12 0" fill="#EFF0F2"/><path d="m379 648 2 1c-3.62 4.88-3.62 4.88-7 6v-4c2.38-1.81 2.38-1.81 5-3" fill="#E5E4E7"/><path d="m325 606 3 1-6 6-3-1z" fill="#19181E"/><path d="m299 471 4.39 3.71A68 68 0 0 0 308 478l-9-1z" fill="#CFC190"/><path d="m428 347 1 3h2c-.75 5.75-.75 5.75-3 8z" fill="#171A18"/><path d="m526 319 1 2c-2.53 2.8-4.2 4.46-8 5 1.45-3.83 3.43-5.12 7-7" fill="#ECECEE"/><path d="m863 273 1 2c-1.69 2.06-1.69 2.06-4 4-2.75-.25-2.75-.25-5-1 2.41-2.41 4.94-3.54 8-5" fill="#DADCD9"/><path d="M378 454h2v2h2l1 3-3 1v-2l-4-1z" fill="#F2CA5D"/><path d="m505 334 3 3c-2.25 1.12-2.25 1.12-5 2-2.31-.88-2.31-.88-4-2z" fill="#222024"/><path d="M420 319h2l2 8c-1.94-.69-1.94-.69-4-2-.81-2.56-.81-2.56-1-5z" fill="#29292C"/><path d="m1075 183 3 1 1 7-3 1z" fill="#EFF1EF"/><path d="M230 674h2l-1 14h-1l-.56-6.44-.32-3.62L229 675z" fill="#ADAFAE"/><path d="m349 662 1 2 3 1c-2.35 1.43-3.48 2.09-6.25 1.62L345 666z" fill="#181A18"/><path d="M880 547h2a61 61 0 0 1 1 7l-2 2c-1.48-2.96-1.06-5.74-1-9" fill="#EDEDEF"/><path d="m1001 161 7 4v3l-7-4z" fill="#E2E3E1"/><path d="M630 525c-2.39 1.89-4.07 3.02-7 4 .38-1.94.38-1.94 1-4 2.49-1.25 3.41-.78 6 0" fill="#1C1D21"/><path d="M417 310c1.5 1.19 1.5 1.19 3 3 .19 2.69.19 2.69 0 5h-2c-1.35-2.71-1.07-5.01-1-8" fill="#181819"/><path d="m578 292 2 1v2l-7 3v-3c2.38-1.75 2.38-1.75 5-3" fill="#DDDDDF"/><path d="m951 163-1 3c-3.06 1.19-3.06 1.19-6 2 1.77-3.93 2.48-5 7-5" fill="#EBEBEC"/><path d="M390 639c-.81 2.44-.81 2.44-2 5l-3 1v-2l-2-1c4.75-3 4.75-3 7-3" fill="#1D1E1D"/><path d="m314 616 2 1-3 5-4-1z" fill="#25222A"/><path d="M249 592c0 3 0 3-2.5 5.69L244 600c0-3 0-3 2.5-5.69z" fill="#DADCDD"/><path d="M431 358h2l1 8-4-3z" fill="#2E302E"/><path d="m324 338 4 2c-3 2-3 2-7 2v-2z" fill="#E2E1E3"/><path d="m552 305 2 1-1 3c-2.56 1.19-2.56 1.19-5 2 1.15-2.47 2.05-4.05 4-6" fill="#EAEAEE"/><path d="M854 289c2.5 2.17 3.44 3.73 4 7l-2 1-3-7z" fill="#DADADC"/><path d="M878 264v3c-2 1.69-2 1.69-4 3l-2-1c2.62-3.88 2.62-3.88 6-5" fill="#F1F1F4"/><path d="m893 247 1 2c-.69 2.06-.69 2.06-2 4-2.12.75-2.12.75-4 1 1.52-2.63 2.84-4.84 5-7" fill="#DBDBDD"/><path d="M1041 204h5v3l2 1-1 2a120 120 0 0 1-6-4z" fill="#1C1C1D"/></svg>