<svg style="background:transparent" version="1.1" xmlns="http://www.w3.org/2000/svg" viewBox="0 0 1248 704"><path d="m1035 119 2.34 1.34c7.52 4.5 13.75 10.54 19.97 16.66l1.88 1.79c3.59 3.54 5.59 6.19 6.81 11.21l1.62 4c1.61 4.38 2.35 7.65.5 12.12-3.42 6.69-7.92 12.69-14.87 15.94-6.02 1.86-11.93.4-17.58-2.08-6.6-3.71-12.52-8.59-18.43-13.31-6.49-5.11-13.16-8.39-20.86-11.36l-3.23-1.26c-14.97-4.99-30.44-2.21-44.4 4.26-13.8 7.45-20.92 18.35-26.75 32.69l-1.69 3.31A29 29 0 0 0 918 201c-1.52 6.16-3.25 11.93-5.96 17.68a98 98 0 0 0-3.04 8.01 40 40 0 0 1-6 11.31l-1.45 1.96a236 236 0 0 1-6.74 8.73C893 251 893 251 891.44 253.62A26 26 0 0 1 887 259l-2.5 3.12A61 61 0 0 1 864 278q-2.51 1.47-5 3a95 95 0 0 1-8.06 4.5A38 38 0 0 0 844 290l1.25 2.01c2.08 3.55 3.92 7.18 5.75 10.87l1.04 2.06c2.86 5.74 5.55 11.51 7.52 17.62l.69 2.13.75 2.31.96 2.66c1.36 4.35 2.23 8.74 3.1 13.22l.53 2.6c1.33 6.71 2.6 13.4 2.41 20.27-.04 3.65.14 7.18.5 10.81.47 5.14.61 10.23.62 15.38l.02 2.19a40 40 0 0 1-.64 8.25c-.54 2.84-.6 5.43-.56 8.32l.02 3.22.04 3.33.06 6.58.04 2.93C868 429 868 429 867 430q-.1 2.03-.06 4.04l.02 2.51.08 5.22.02 2.52.04 2.3c-.1 2.41-.1 2.41-.6 5.27a62 62 0 0 0-.63 10.01l-.01 3.93.01 2.03-.01 6.1c.01 6.46.17 12.68 1.14 19.07v6q.46 2.5 1 5l.44 3.94c.42 3.56 1.38 6.66 2.56 10.06q.77 3.32 1.44 6.66c.56 2.34.56 2.34 1.53 5.22a97 97 0 0 1 2.53 9.5q1.17 5.27 2.5 10.51c1.04 4.13 1.83 8.29 2.56 12.49l.4 2.24c.82 4.78 1.47 9.55 1.83 14.4.21 1.98.21 1.98.73 3.87.84 3.7.49 7.46.42 11.23.06 2.88.06 2.88.56 4.82 1 4.11.51 8.45.44 12.65.06 3.41.06 3.41.56 5.68.61 3.31.61 6.42.6 9.78l-.01 2q0 3.13-.03 6.26l-.01 4.27L887 650l3.34.33c5.2.65 10.13 1.99 15.16 3.42l2.72.73c6.77 1.91 12.75 4.49 17.78 9.52.61 3.86.2 5.65-1.75 9.06-15.42 16.32-56.16 15.4-76.7 16.05q-5.84.08-11.67.08h-2.28c-42.43-.09-84.86-2.43-127.22-4.65-31.54-1.65-63.04-2.76-94.63-2.73h-3.73c-23.35.03-46.63.67-69.94 2.01l-9.52.54c-28.93 1.64-57.75 4.1-86.56 7.13l-4.88.52a1397 1397 0 0 0-50.78 6 693 693 0 0 1-96.45 6.86q-4.4 0-8.79.04-6.93.04-13.85-.02-2.56-.03-5.12-.01c-9.53.02-17.6-.25-25.13-6.88-6-6.57-6-6.57-6-11l-3 1-2-3 3-2c.73-2.16.73-2.16 1.19-4.62l.48-2.48.33-1.9-3.11 1.5-4.08 1.94-2.04.98c-9.39 4.45-20.75 5.27-30.89 2.83A51 51 0 0 1 184 678l-1.93-1.09c-1.69-1.03-1.69-1.03-4.07-2.91v-2l-1.89-.69c-2.81-1.75-3-3.15-3.8-6.31-1.29-4.95-1.29-4.95-2.31-7 .49-2.43.49-2.43 1.31-5.31l.8-2.87c2.63-8.36 6.65-15.45 14.58-19.76 6.56-2.9 13.71-4.38 20.87-3.75 7.39-.67 13.9-6.66 19.44-11.31l1.69-2.25L230 611h2l.62-1.69c1.52-2.54 3.32-4.08 5.65-5.87 2.4-2 4.54-4.22 6.73-6.44l2.68-2.61c5.27-5.17 10.08-10.34 14.32-16.39a62 62 0 0 1 5.86-6.81c3.08-3.15 5.66-6.65 8.34-10.14L278 559h2l.75-1.64a67 67 0 0 1 5.25-8.05l2.12-2.95C290 544 290 544 292 543l2.78-5.01c2.03-3.31 4.61-6.13 7.22-8.99-4.7-2.9-9.56-5.43-14.47-7.95A60 60 0 0 1 277 514l-2.5-1.36c-3.24-2.13-5.3-4.87-7.56-7.95l-1.28-1.69c-7.71-10.27-7.71-10.27-9.22-15.19l-.72-2.31a575 575 0 0 1-3.03-11 98 98 0 0 0-1.81-5.75c-1.03-3.23-1.4-6.4-1.88-9.75l-.96-2.74c-1.16-3.64-1.65-7.1-2.1-10.88-.85-7.04-.85-7.04-1.44-9.31-.54-2.25-.77-4.4-.96-6.7l-.24-2.7-.46-5.52A146 146 0 0 0 240 403a135 135 0 0 1-1.72-10.2l-.39-2.91-.78-6.05-.39-2.91-.35-2.65C236 376 236 376 235 373c-.24-4.2-.19-8.41-.19-12.62l-.03-3.49c-.03-17.44-.03-17.44 5.66-23.33l1.81-1.93c3.51-3.26 5.87-4 10.64-3.87 3.37.38 6.1 1.59 9.17 2.99l2.01.9A359 359 0 0 1 286.02 343c6.01 3.24 10.94 5.72 17.93 4.48l2.74-.86 2.76-.83L312 345l4-1 2.69-.94c6.23-2 12.46-3.2 18.97-3.81 3.13-.33 6.23-.8 9.34-1.25l3.57-.43 3.55-.45 3.58-.42c6.03-1.27 9.17-4.35 13.18-8.89l2.62-2.96L376 322l2.06-2.29a66 66 0 0 0 7.13-9.09c1.88-2.73 2.92-3.27 5.81-4.62l.88-1.91c1.93-3.61 5.4-4.73 9.12-6.09 4.92-.69 7.76.54 12 3 5.23 5.51 8.62 11.43 10.42 18.79.58 2.21.58 2.21 2.2 5.46 1.49 2.97 1.89 5.48 2.38 8.75l.94 2.25c1.31 3.39 1.93 6.78 2.6 10.35.75 3.88 1.81 7.62 2.96 11.4.91 2.99 1.77 5.96 2.5 9 6.44-2.56 12.69-5.18 18.67-8.69 2.68-1.51 5.41-2.86 8.16-4.22q5.42-2.74 10.79-5.59l2.2-1.14c4.24-2.24 8.23-4.63 12.18-7.36 3.54-2.24 7.2-4.11 10.95-5.96q2.88-1.48 5.67-3.1c3.08-1.77 6.21-3.35 9.38-4.94 3.52-1.91 6.88-3.92 10.19-6.19 2.55-1.64 3.98-2.1 6.81-2.81q3.03-1.96 6-4 1.99-1.03 4-2c4.18-2.05 8.31-4.15 12.38-6.44 4.79-2.69 9.69-5.13 14.62-7.56l3.25-1.62C581 291 581 291 584.06 289.5a87 87 0 0 0 5.44-3c3.75-2.25 7.68-4.11 11.62-6 2.88-1.5 2.88-1.5 5-3.12 1.88-1.38 1.88-1.38 3.67-1.82a41 41 0 0 0 7.52-2.94q6.3-2.9 12.69-5.62l4.12-1.88A268 268 0 0 1 661 255l4.56-1.5 2.25-.74a154 154 0 0 0 6.31-2.38c3.6-1.38 7.06-1.84 10.88-2.38q2.24-.71 4.44-1.5a37 37 0 0 1 8.68-2.06c3.88-.44 3.88-.44 7-1.44 4.67-1.45 9.53-1.49 14.38-1.75 3.5-.25 3.5-.25 6.64-.77 5.56-.69 11.07-.62 16.67-.6l3.47-.02 3.3.01h3.01C755 240 755 240 757 241q2.34.32 4.71.54c11.52 1.21 22.38 2.91 33.42 6.48 4.78 1.52 8.79 2.42 13.87 1.98 2.62-1.44 2.62-1.44 5-3l2.37-.45a22 22 0 0 0 7.07-2.86l2.35-1.36A177 177 0 0 0 834 237c4.71-3 4.71-3 7-3l.69-1.75c1.31-2.25 1.31-2.25 3.59-4.01 3-2.47 5.28-5.21 7.6-8.3l1.3-1.73c10.8-14.44 10.8-14.44 12.82-23.21a614 614 0 0 1 3-7q1.04-2.99 2-6a69 69 0 0 1 4-10l.88-2.69c1.43-4.24 3.25-8.25 5.12-12.31l1.38-3.06c9.04-16.36 24.14-28.95 39.62-38.94l1.92-1.27c8.36-5.18 18.21-7.99 27.72-10.15C955 103 955 103 957 102c26.6-5.3 55.18 3.67 78 17" fill="#111311"/><path d="m1035 119 2.34 1.34c7.52 4.5 13.75 10.54 19.97 16.66l1.88 1.79c3.59 3.54 5.59 6.19 6.81 11.21l1.62 4c1.61 4.38 2.35 7.65.5 12.12-3.42 6.69-7.92 12.69-14.87 15.94-6.02 1.86-11.93.4-17.58-2.08-6.6-3.71-12.52-8.59-18.43-13.31-6.49-5.11-13.16-8.39-20.86-11.36l-3.23-1.26c-14.97-4.99-30.44-2.21-44.4 4.26-13.8 7.45-20.92 18.35-26.75 32.69l-1.69 3.31A29 29 0 0 0 918 201c-1.52 6.16-3.25 11.93-5.96 17.68a98 98 0 0 0-3.04 8.01 40 40 0 0 1-6 11.31l-1.45 1.96a236 236 0 0 1-6.74 8.73C893 251 893 251 891.44 253.62A26 26 0 0 1 887 259l-2.5 3.12A61 61 0 0 1 864 278q-2.51 1.47-5 3a95 95 0 0 1-8.06 4.5A38 38 0 0 0 844 290l1.25 2.01c2.08 3.55 3.92 7.18 5.75 10.87l1.04 2.06c2.86 5.74 5.55 11.51 7.52 17.62l.69 2.13.75 2.31.96 2.66c1.36 4.35 2.23 8.74 3.1 13.22l.53 2.6c1.33 6.71 2.6 13.4 2.41 20.27-.04 3.65.14 7.18.5 10.81.47 5.14.61 10.23.62 15.38l.02 2.19a40 40 0 0 1-.64 8.25c-.54 2.84-.6 5.43-.56 8.32l.02 3.22.04 3.33.06 6.58.04 2.93C868 429 868 429 867 430q-.1 2.03-.06 4.04l.02 2.51.08 5.22.02 2.52.04 2.3c-.1 2.41-.1 2.41-.6 5.27a62 62 0 0 0-.63 10.01l-.01 3.93.01 2.03-.01 6.1c.01 6.46.17 12.68 1.14 19.07v6q.46 2.5 1 5l.44 3.94c.42 3.56 1.38 6.66 2.56 10.06q.77 3.32 1.44 6.66c.56 2.34.56 2.34 1.53 5.22a97 97 0 0 1 2.53 9.5q1.17 5.27 2.5 10.51c1.04 4.13 1.83 8.29 2.56 12.49l.4 2.24c.82 4.78 1.47 9.55 1.83 14.4.21 1.98.21 1.98.73 3.87.84 3.7.49 7.46.42 11.23.06 2.88.06 2.88.56 4.82 1 4.11.51 8.45.44 12.65.06 3.41.06 3.41.56 5.68.61 3.31.61 6.42.6 9.78l-.01 2q0 3.13-.03 6.26l-.01 4.27L887 650l3.34.33c5.2.65 10.13 1.99 15.16 3.42l2.72.73c6.77 1.91 12.75 4.49 17.78 9.52.61 3.86.2 5.65-1.75 9.06-15.42 16.32-56.16 15.4-76.7 16.05q-5.84.08-11.67.08h-2.28c-42.43-.09-84.86-2.43-127.22-4.65-31.54-1.65-63.04-2.76-94.63-2.73h-3.73c-23.35.03-46.63.67-69.94 2.01l-9.52.54a1828 1828 0 0 0-89 7.39l-2.43.26a2106 2106 0 0 0-51.88 6l-21.39 2.76c-27 3.44-53.67 4.18-80.86 3.23a52 52 0 0 1 8.24-4.36c9.43-4.21 18.05-9.36 26.77-14.88a840 840 0 0 1 19.04-11.59 1921 1921 0 0 0 30.39-18.48q8.06-5 16.18-9.91A1015 1015 0 0 0 418 623l2.58-1.7a1308 1308 0 0 0 31.94-21.68l2.36-1.66 2.21-1.55c1.91-1.41 1.91-1.41 4.39-3.69 3.69-2.52 7.42-2.86 11.77-3.6 26.96-5.22 53.77-15.88 78.75-27.12l2.94-1.31q10.57-4.76 21.06-9.69l2.98-1.4a726 726 0 0 0 33.88-16.87q7.55-4 15.17-7.91a936 936 0 0 0 31.1-16.64l1.89-1.06q2.19-1.23 4.36-2.51l2.42-1.39 2.22-1.28C672 501 672 501 675 501l.61 1.66c12.32 33.46 28.05 60.95 55.39 84.34 20.8 17.99 20.8 17.99 23 29 .29 5.03.24 9.96 0 15l-2.27.23c-8.45 1.08-16.03 3-21.46 10-3.46 6.09-4.23 11.87-3.27 18.77 1.29 4.44 2.44 5.63 6.31 8.19 14.82 6.38 34.83 7.53 50.28 2.79 8.26-3.35 13.41-7.98 16.97-16.29 4.38-10.95 6.01-22.96 6.44-34.69l.1-2.53c.44-13.03-.29-24.96-3.32-37.65C803 576 803 576 804 573c15.84 11.27 28.02 23.28 31.57 43.2.48 4.28.54 8.44.49 12.74l-.01 2.36-.05 5.7-2.31.23c-8.35 1.06-14.5 3.2-20.28 9.51-4.71 6.17-6.3 12.57-5.41 20.26 1.89 5.18 4.86 9.49 9.96 11.94a75 75 0 0 0 7.8 2.58c12.77 2.73 30.41 2.36 42.24-3.52l2.14-1.06c6.09-3.69 8.92-9.82 10.91-16.44 1.23-5.03 1.22-9.92 1.18-15.08v-3.05l-.02-6.38-.02-9.56c-.03-17.06-.38-34.11-2.5-51.05l-.4-3.21A237 237 0 0 0 874 545l-1.74-7.05q-2.21-8.88-4.45-17.76L867 517l-1.03-3.81a90 90 0 0 1-2.08-13.46l-.26-2.63c-.83-9.28-.89-18.53-.82-27.85l.02-5.44q.08-15.38.67-30.75c.5-14.19.74-28.38.84-42.59l.09-7.55c.47-30.25-4.63-57.8-19.56-84.22a437 437 0 0 0-2.98-5.31c-1.11-2.99-1.06-4.42.11-7.39 2-1.49 2-1.49 4.64-2.73l2.92-1.42 3.13-1.47c32.11-15.99 49.34-42.64 60.54-75.99l.65-1.95c4.23-12.51 9.27-24.43 18.12-34.44l2.25-2.56c15.62-13.85 29.71-17.27 49.99-16.62 5.68.37 10.55 1.89 15.76 4.18l2.81 1.11c7.75 3.41 14.1 8.46 20.61 13.78 8.61 6.98 16.24 11.87 27.58 11.11 5.35-1.34 8.46-4.86 11.62-9.25 2.95-5.88 2.39-13.37.54-19.57-4.97-10.7-13.52-17.79-23.16-24.18l-3.1-2.07A131 131 0 0 0 1013 112l-2.85-1.15c-25.07-9.35-53.04-7.77-77.44 2.54C907.09 125.3 889.13 145.86 879 172q-2.2 6.3-4.3 12.64c-5.86 17.6-12.36 31.37-25.7 44.36l-2.21 2.2c-10.37 9.8-27.43 21.9-42.23 22.42-3.04-.3-5.65-.93-8.51-2-6-2.05-12.14-3.12-18.36-4.24l-3.48-.66c-25.08-4.6-50.29-3.8-75.21 1.28l-2.65.52c-41.56 8.27-81.09 27.87-118.24 47.77a907 907 0 0 1-14.35 7.47l-4.03 2.07a1467 1467 0 0 0-46.68 25.01l-1.83 1.01-3.72 2.05-3.74 2.07A3957 3957 0 0 1 467 356l-2.68 1.45C439.16 371 439.16 371 434 371l-.38-1.64c-12.66-54.54-12.66-54.54-22.93-65.92-3.55-1.9-6.82-2.39-10.69-1.44-8.57 5.03-15.34 12.79-21.5 20.5L374 328l-2.37 3.03c-7.28 8.43-13.62 9.76-24.19 10.74-4.06.39-8.09.96-12.13 1.54l-2.47.35c-7.8 1.16-15.34 3.18-22.89 5.45-12.67 3.61-20.5-.46-31.57-6.49l-5.81-3.09-5.26-2.83c-7.21-3.7-13.08-5.84-21.31-4.7-4.2 2.32-5.52 4.55-7 9-.42 3.99-.33 7.99-.31 12l.01 3.59c.21 16.9 1.29 34.19 5.75 50.55 1.72 6.67 2.39 13.45 3.13 20.28 6.51 59.51 6.51 59.51 23.42 77.58l1.5 1.81c8.78 9.88 22.41 14.72 34.5 19.19a84 84 0 0 1-10.06 14.56l-3.49 4.23-1.76 2.13c-2.53 3.11-4.98 6.28-7.44 9.46a224 224 0 0 1-12.1 14.22 164 164 0 0 0-6.21 7.46c-5.91 7.29-12.38 14.04-18.87 20.79l-4 4.19c-24.54 25.79-24.54 25.79-38.01 26.27-9.39.54-16.93 1.94-23.56 9-5.97 7.54-7.6 14.16-6.5 23.69 1.55 5.83 4.88 9.21 9.61 12.77 8.95 4.6 22.09 5.25 31.73 2.58 4.76-1.72 9.2-3.97 13.66-6.35l6-3-1 3.19c-1.58 6.53-2.53 13.82-.08 20.21 4.03 6.17 10.5 8.79 17.08 11.6v1c-6.59-.28-10.97-2.78-16-7-2.83-3.1-5-5.65-5-10l-3 1-2-3 3-2c.73-2.16.73-2.16 1.19-4.62l.48-2.48.33-1.9-3.11 1.5-4.08 1.94-2.04.98c-9.39 4.45-20.75 5.27-30.89 2.83A51 51 0 0 1 184 678l-1.93-1.09c-1.69-1.03-1.69-1.03-4.07-2.91v-2l-1.89-.69c-2.81-1.75-3-3.15-3.8-6.31-1.29-4.95-1.29-4.95-2.31-7 .49-2.43.49-2.43 1.31-5.31l.8-2.87c2.63-8.36 6.65-15.45 14.58-19.76 6.56-2.9 13.71-4.38 20.87-3.75 7.39-.67 13.9-6.66 19.44-11.31l1.69-2.25L230 611h2l.62-1.69c1.52-2.54 3.32-4.08 5.65-5.87 2.4-2 4.54-4.22 6.73-6.44l2.68-2.61c5.27-5.17 10.08-10.34 14.32-16.39a62 62 0 0 1 5.86-6.81c3.08-3.15 5.66-6.65 8.34-10.14L278 559h2l.75-1.64a67 67 0 0 1 5.25-8.05l2.12-2.95C290 544 290 544 292 543l2.78-5.01c2.03-3.31 4.61-6.13 7.22-8.99-4.7-2.9-9.56-5.43-14.47-7.95A60 60 0 0 1 277 514l-2.5-1.36c-3.24-2.13-5.3-4.87-7.56-7.95l-1.28-1.69c-7.71-10.27-7.71-10.27-9.22-15.19l-.72-2.31a575 575 0 0 1-3.03-11 98 98 0 0 0-1.81-5.75c-1.03-3.23-1.4-6.4-1.88-9.75l-.96-2.74c-1.16-3.64-1.65-7.1-2.1-10.88-.85-7.04-.85-7.04-1.44-9.31-.54-2.25-.77-4.4-.96-6.7l-.24-2.7-.46-5.52A146 146 0 0 0 240 403a135 135 0 0 1-1.72-10.2l-.39-2.91-.78-6.05-.39-2.91-.35-2.65C236 376 236 376 235 373c-.24-4.2-.19-8.41-.19-12.62l-.03-3.49c-.03-17.44-.03-17.44 5.66-23.33l1.81-1.93c3.51-3.26 5.87-4 10.64-3.87 3.37.38 6.1 1.59 9.17 2.99l2.01.9A359 359 0 0 1 286.02 343c6.01 3.24 10.94 5.72 17.93 4.48l2.74-.86 2.76-.83L312 345l4-1 2.69-.94c6.23-2 12.46-3.2 18.97-3.81 3.13-.33 6.23-.8 9.34-1.25l3.57-.43 3.55-.45 3.58-.42c6.03-1.27 9.17-4.35 13.18-8.89l2.62-2.96L376 322l2.06-2.29a66 66 0 0 0 7.13-9.09c1.88-2.73 2.92-3.27 5.81-4.62l.88-1.91c1.93-3.61 5.4-4.73 9.12-6.09 4.92-.69 7.76.54 12 3 5.23 5.51 8.62 11.43 10.42 18.79.58 2.21.58 2.21 2.2 5.46 1.49 2.97 1.89 5.48 2.38 8.75l.94 2.25c1.31 3.39 1.93 6.78 2.6 10.35.75 3.88 1.81 7.62 2.96 11.4.91 2.99 1.77 5.96 2.5 9 6.44-2.56 12.69-5.18 18.67-8.69 2.68-1.51 5.41-2.86 8.16-4.22q5.42-2.74 10.79-5.59l2.2-1.14c4.24-2.24 8.23-4.63 12.18-7.36 3.54-2.24 7.2-4.11 10.95-5.96q2.88-1.48 5.67-3.1c3.08-1.77 6.21-3.35 9.38-4.94 3.52-1.91 6.88-3.92 10.19-6.19 2.55-1.64 3.98-2.1 6.81-2.81q3.03-1.96 6-4 1.99-1.03 4-2c4.18-2.05 8.31-4.15 12.38-6.44 4.79-2.69 9.69-5.13 14.62-7.56l3.25-1.62C581 291 581 291 584.06 289.5a87 87 0 0 0 5.44-3c3.75-2.25 7.68-4.11 11.62-6 2.88-1.5 2.88-1.5 5-3.12 1.88-1.38 1.88-1.38 3.67-1.82a41 41 0 0 0 7.52-2.94q6.3-2.9 12.69-5.62l4.12-1.88A268 268 0 0 1 661 255l4.56-1.5 2.25-.74a154 154 0 0 0 6.31-2.38c3.6-1.38 7.06-1.84 10.88-2.38q2.24-.71 4.44-1.5a37 37 0 0 1 8.68-2.06c3.88-.44 3.88-.44 7-1.44 4.67-1.45 9.53-1.49 14.38-1.75 3.5-.25 3.5-.25 6.64-.77 5.56-.69 11.07-.62 16.67-.6l3.47-.02 3.3.01h3.01C755 240 755 240 757 241q2.34.32 4.71.54c11.52 1.21 22.38 2.91 33.42 6.48 4.78 1.52 8.79 2.42 13.87 1.98 2.62-1.44 2.62-1.44 5-3l2.37-.45a22 22 0 0 0 7.07-2.86l2.35-1.36A177 177 0 0 0 834 237c4.71-3 4.71-3 7-3l.69-1.75c1.31-2.25 1.31-2.25 3.59-4.01 3-2.47 5.28-5.21 7.6-8.3l1.3-1.73c10.8-14.44 10.8-14.44 12.82-23.21a614 614 0 0 1 3-7q1.04-2.99 2-6a69 69 0 0 1 4-10l.88-2.69c1.43-4.24 3.25-8.25 5.12-12.31l1.38-3.06c9.04-16.36 24.14-28.95 39.62-38.94l1.92-1.27c8.36-5.18 18.21-7.99 27.72-10.15C955 103 955 103 957 102c26.6-5.3 55.18 3.67 78 17" fill="#B9BBB9"/><path d="m675 501 .61 1.66c12.32 33.46 28.05 60.95 55.39 84.34 20.8 17.99 20.8 17.99 23 29 .29 5.03.24 9.96 0 15l-2.27.23c-7.87 1.01-13.22 3.32-19.73 7.77l-2 1v-2a1776 1776 0 0 0-97.1-2.26q-9.24.01-18.5-.01c-24.35-.04-48.66.16-72.99 1.22l-3.01.13-8.36.39-2.44.12c-3.64.19-7.25.46-10.87.93-2.85.37-5.57.62-8.43.68-16.03.46-31.88 2.1-47.8 3.94l-8.24.93a1454 1454 0 0 0-64.21 8.48q-9.58 1.46-19.05 3.45c1.15-3.44 1.59-3.64 4.59-5.36l2.34-1.36 2.57-1.47c24.57-14.4 48.34-30.25 71.69-46.56l2.48-1.73 2.31-1.63 2.16-1.51c1.86-1.38 1.86-1.38 4.33-3.65 3.7-2.53 7.42-2.87 11.78-3.61 26.96-5.22 53.77-15.88 78.75-27.12l2.94-1.31q10.57-4.76 21.06-9.69l2.98-1.4a726 726 0 0 0 33.88-16.87q7.55-4 15.17-7.91a936 936 0 0 0 31.1-16.64l1.89-1.06q2.19-1.23 4.36-2.51l2.42-1.39 2.22-1.28C672 501 672 501 675 501" fill="#ECEEEC"/><path d="m1035 119 2.34 1.34c7.52 4.5 13.75 10.54 19.97 16.66l1.88 1.79c3.59 3.54 5.59 6.19 6.81 11.21l1.62 4c1.61 4.38 2.35 7.65.5 12.12-3.42 6.69-7.92 12.69-14.87 15.94-6.02 1.86-11.93.4-17.58-2.08-6.6-3.71-12.52-8.59-18.43-13.31-6.49-5.11-13.16-8.39-20.86-11.36l-3.23-1.26c-14.97-4.99-30.44-2.21-44.4 4.26-13.8 7.45-20.92 18.35-26.75 32.69l-1.69 3.31A29 29 0 0 0 918 201c-1.52 6.16-3.25 11.93-5.96 17.68a98 98 0 0 0-3.04 8.01 40 40 0 0 1-6 11.31l-1.45 1.96a236 236 0 0 1-6.74 8.73C893 251 893 251 891.44 253.62A26 26 0 0 1 887 259l-2.5 3.12A61 61 0 0 1 864 278q-2.51 1.47-5 3a95 95 0 0 1-8.06 4.5A38 38 0 0 0 844 290l1.25 2.01c2.08 3.55 3.92 7.18 5.75 10.87l1.04 2.06c2.86 5.74 5.55 11.51 7.52 17.62l.69 2.13.75 2.31.96 2.66c1.36 4.35 2.23 8.74 3.1 13.22l.53 2.6c1.33 6.71 2.6 13.4 2.41 20.27-.04 3.65.14 7.18.5 10.81.47 5.14.61 10.23.62 15.38l.02 2.19a40 40 0 0 1-.64 8.25c-.54 2.84-.6 5.43-.56 8.32l.02 3.22.04 3.33.06 6.58.04 2.93C868 429 868 429 867 430q-.1 2.03-.06 4.04l.02 2.51.08 5.22.02 2.52.04 2.3c-.1 2.41-.1 2.41-.6 5.27a62 62 0 0 0-.63 10.01l-.01 3.93.01 2.03-.01 6.1c.01 6.46.17 12.68 1.14 19.07v6q.46 2.5 1 5l.44 3.94c.42 3.56 1.38 6.66 2.56 10.06q.77 3.32 1.44 6.66c.56 2.34.56 2.34 1.53 5.22a97 97 0 0 1 2.53 9.5q1.17 5.27 2.5 10.51c1.04 4.13 1.83 8.29 2.56 12.49l.4 2.24c.82 4.78 1.47 9.55 1.83 14.4.21 1.98.21 1.98.73 3.87.84 3.7.49 7.46.42 11.23.06 2.88.06 2.88.56 4.82 1 4.11.51 8.45.44 12.65.06 3.41.06 3.41.56 5.68.61 3.31.61 6.42.6 9.78l-.01 2q0 3.13-.03 6.26l-.01 4.27L887 650l3.34.33c5.2.65 10.13 1.99 15.16 3.42l2.72.73c6.77 1.91 12.75 4.49 17.78 9.52.61 3.86.2 5.65-1.75 9.06-15.42 16.32-56.16 15.4-76.7 16.05q-5.84.08-11.67.08h-2.28c-42.43-.09-84.86-2.43-127.22-4.65-31.54-1.65-63.04-2.76-94.63-2.73h-3.73c-23.35.03-46.63.67-69.94 2.01l-9.52.54c-49.1 2.78-97.99 8.04-146.81 13.94l-2.34.28a4061 4061 0 0 0-28.24 3.48l-7.31.92c-7.98.98-15.82 1.18-23.86 1.02v-1l8.75-1.38 2.38-.38c5.81-.89 11.63-1.53 17.48-2.1 9.1-.87 18.19-1.91 27.27-2.98l2.15-.25 13.29-1.58q18.34-2.19 36.68-4.33l3.73-.44a1354 1354 0 0 1 48.39-4.68l9.45-.77 5.78-.46q6.07-.48 12.11-1.16c72.77-8.31 148.1-4.09 220.96.2 113.03 6.64 113.03 6.64 155.58.31l2.52-.37c11.58-1.79 24.03-4.17 34.48-9.63 2.29-3.44 2.18-4.99 2-9-9.37-5.42-18.48-7.9-29-10l-2.75-.55L884 652l-.06-2.11c-2.17-73.98-2.17-73.98-9.94-104.89l-1.74-7.05q-2.21-8.88-4.45-17.76L867 517l-1.03-3.81a90 90 0 0 1-2.08-13.46l-.26-2.63c-.83-9.28-.89-18.53-.82-27.85l.02-5.44q.08-15.38.67-30.75c.5-14.19.74-28.38.84-42.59l.09-7.55c.47-30.25-4.63-57.8-19.56-84.22a437 437 0 0 0-2.98-5.31c-1.11-2.99-1.06-4.42.11-7.39 2-1.49 2-1.49 4.64-2.73l2.92-1.42 3.13-1.47c32.11-15.99 49.34-42.64 60.54-75.99l.65-1.95c4.23-12.51 9.27-24.43 18.12-34.44l2.25-2.56c15.62-13.85 29.71-17.27 49.99-16.62 5.68.37 10.55 1.89 15.76 4.18l2.81 1.11c7.75 3.41 14.1 8.46 20.61 13.78 8.61 6.98 16.24 11.87 27.58 11.11 5.35-1.34 8.46-4.86 11.62-9.25 2.95-5.88 2.39-13.37.54-19.57-4.97-10.7-13.52-17.79-23.16-24.18l-3.1-2.07A131 131 0 0 0 1013 112l-2.85-1.15c-25.07-9.35-53.04-7.77-77.44 2.54C907.09 125.3 889.13 145.86 879 172q-2.2 6.3-4.3 12.64c-5.86 17.6-12.36 31.37-25.7 44.36l-2.21 2.2c-10.37 9.8-27.43 21.9-42.23 22.42-3.04-.3-5.65-.93-8.51-2-6-2.05-12.14-3.12-18.36-4.24l-3.48-.66c-25.08-4.6-50.29-3.8-75.21 1.28l-2.65.52c-41.56 8.27-81.09 27.87-118.24 47.77a907 907 0 0 1-14.35 7.47l-4.03 2.07a1467 1467 0 0 0-46.68 25.01l-1.83 1.01-3.72 2.05-3.74 2.07A3957 3957 0 0 1 467 356l-2.68 1.45C439.16 371 439.16 371 434 371l-.38-1.64c-12.66-54.54-12.66-54.54-22.93-65.92-3.55-1.9-6.82-2.39-10.69-1.44-8.57 5.03-15.34 12.79-21.5 20.5L374 328l-2.37 3.03c-7.28 8.43-13.62 9.76-24.19 10.74-4.06.39-8.09.96-12.13 1.54l-2.47.35c-7.8 1.16-15.34 3.18-22.89 5.45-12.67 3.61-20.5-.46-31.57-6.49l-5.81-3.09-5.26-2.83c-7.21-3.7-13.08-5.84-21.31-4.7-4.2 2.32-5.52 4.55-7 9-.42 3.99-.33 7.99-.31 12l.01 3.59c.21 16.9 1.29 34.19 5.75 50.55 1.72 6.67 2.39 13.45 3.13 20.28 6.51 59.51 6.51 59.51 23.42 77.58l1.5 1.81c8.78 9.88 22.41 14.72 34.5 19.19a84 84 0 0 1-10.06 14.56l-3.49 4.23-1.76 2.13c-2.53 3.11-4.98 6.28-7.44 9.46a224 224 0 0 1-12.1 14.22 164 164 0 0 0-6.21 7.46c-5.91 7.29-12.38 14.04-18.87 20.79l-4 4.19c-24.54 25.79-24.54 25.79-38.01 26.27-9.39.54-16.93 1.94-23.56 9-5.97 7.54-7.6 14.16-6.5 23.69 1.55 5.83 4.88 9.21 9.61 12.77 8.95 4.6 22.09 5.25 31.73 2.58 4.76-1.72 9.2-3.97 13.66-6.35l6-3-1 3.19c-1.58 6.53-2.53 13.82-.08 20.21 4.03 6.17 10.5 8.79 17.08 11.6v1c-6.59-.28-10.97-2.78-16-7-2.83-3.1-5-5.65-5-10l-3 1-2-3 3-2c.73-2.16.73-2.16 1.19-4.62l.48-2.48.33-1.9-3.11 1.5-4.08 1.94-2.04.98c-9.39 4.45-20.75 5.27-30.89 2.83A51 51 0 0 1 184 678l-1.93-1.09c-1.69-1.03-1.69-1.03-4.07-2.91v-2l-1.89-.69c-2.81-1.75-3-3.15-3.8-6.31-1.29-4.95-1.29-4.95-2.31-7 .49-2.43.49-2.43 1.31-5.31l.8-2.87c2.63-8.36 6.65-15.45 14.58-19.76 6.56-2.9 13.71-4.38 20.87-3.75 7.39-.67 13.9-6.66 19.44-11.31l1.69-2.25L230 611h2l.62-1.69c1.52-2.54 3.32-4.08 5.65-5.87 2.4-2 4.54-4.22 6.73-6.44l2.68-2.61c5.27-5.17 10.08-10.34 14.32-16.39a62 62 0 0 1 5.86-6.81c3.08-3.15 5.66-6.65 8.34-10.14L278 559h2l.75-1.64a67 67 0 0 1 5.25-8.05l2.12-2.95C290 544 290 544 292 543l2.78-5.01c2.03-3.31 4.61-6.13 7.22-8.99-4.7-2.9-9.56-5.43-14.47-7.95A60 60 0 0 1 277 514l-2.5-1.36c-3.24-2.13-5.3-4.87-7.56-7.95l-1.28-1.69c-7.71-10.27-7.71-10.27-9.22-15.19l-.72-2.31a575 575 0 0 1-3.03-11 98 98 0 0 0-1.81-5.75c-1.03-3.23-1.4-6.4-1.88-9.75l-.96-2.74c-1.16-3.64-1.65-7.1-2.1-10.88-.85-7.04-.85-7.04-1.44-9.31-.54-2.25-.77-4.4-.96-6.7l-.24-2.7-.46-5.52A146 146 0 0 0 240 403a135 135 0 0 1-1.72-10.2l-.39-2.91-.78-6.05-.39-2.91-.35-2.65C236 376 236 376 235 373c-.24-4.2-.19-8.41-.19-12.62l-.03-3.49c-.03-17.44-.03-17.44 5.66-23.33l1.81-1.93c3.51-3.26 5.87-4 10.64-3.87 3.37.38 6.1 1.59 9.17 2.99l2.01.9A359 359 0 0 1 286.02 343c6.01 3.24 10.94 5.72 17.93 4.48l2.74-.86 2.76-.83L312 345l4-1 2.69-.94c6.23-2 12.46-3.2 18.97-3.81 3.13-.33 6.23-.8 9.34-1.25l3.57-.43 3.55-.45 3.58-.42c6.03-1.27 9.17-4.35 13.18-8.89l2.62-2.96L376 322l2.06-2.29a66 66 0 0 0 7.13-9.09c1.88-2.73 2.92-3.27 5.81-4.62l.88-1.91c1.93-3.61 5.4-4.73 9.12-6.09 4.92-.69 7.76.54 12 3 5.23 5.51 8.62 11.43 10.42 18.79.58 2.21.58 2.21 2.2 5.46 1.49 2.97 1.89 5.48 2.38 8.75l.94 2.25c1.31 3.39 1.93 6.78 2.6 10.35.75 3.88 1.81 7.62 2.96 11.4.91 2.99 1.77 5.96 2.5 9 6.44-2.56 12.69-5.18 18.67-8.69 2.68-1.51 5.41-2.86 8.16-4.22q5.42-2.74 10.79-5.59l2.2-1.14c4.24-2.24 8.23-4.63 12.18-7.36 3.54-2.24 7.2-4.11 10.95-5.96q2.88-1.48 5.67-3.1c3.08-1.77 6.21-3.35 9.38-4.94 3.52-1.91 6.88-3.92 10.19-6.19 2.55-1.64 3.98-2.1 6.81-2.81q3.03-1.96 6-4 1.99-1.03 4-2c4.18-2.05 8.31-4.15 12.38-6.44 4.79-2.69 9.69-5.13 14.62-7.56l3.25-1.62C581 291 581 291 584.06 289.5a87 87 0 0 0 5.44-3c3.75-2.25 7.68-4.11 11.62-6 2.88-1.5 2.88-1.5 5-3.12 1.88-1.38 1.88-1.38 3.67-1.82a41 41 0 0 0 7.52-2.94q6.3-2.9 12.69-5.62l4.12-1.88A268 268 0 0 1 661 255l4.56-1.5 2.25-.74a154 154 0 0 0 6.31-2.38c3.6-1.38 7.06-1.84 10.88-2.38q2.24-.71 4.44-1.5a37 37 0 0 1 8.68-2.06c3.88-.44 3.88-.44 7-1.44 4.67-1.45 9.53-1.49 14.38-1.75 3.5-.25 3.5-.25 6.64-.77 5.56-.69 11.07-.62 16.67-.6l3.47-.02 3.3.01h3.01C755 240 755 240 757 241q2.34.32 4.71.54c11.52 1.21 22.38 2.91 33.42 6.48 4.78 1.52 8.79 2.42 13.87 1.98 2.62-1.44 2.62-1.44 5-3l2.37-.45a22 22 0 0 0 7.07-2.86l2.35-1.36A177 177 0 0 0 834 237c4.71-3 4.71-3 7-3l.69-1.75c1.31-2.25 1.31-2.25 3.59-4.01 3-2.47 5.28-5.21 7.6-8.3l1.3-1.73c10.8-14.44 10.8-14.44 12.82-23.21a614 614 0 0 1 3-7q1.04-2.99 2-6a69 69 0 0 1 4-10l.88-2.69c1.43-4.24 3.25-8.25 5.12-12.31l1.38-3.06c9.04-16.36 24.14-28.95 39.62-38.94l1.92-1.27c8.36-5.18 18.21-7.99 27.72-10.15C955 103 955 103 957 102c26.6-5.3 55.18 3.67 78 17" fill="#E3E3E5"/><path d="m248 331 1 3c2.34.7 2.34.7 5.38 1.25 6.94 1.59 11.88 4.63 17.62 8.75l2.92 2.06Q279 348.98 283 352l1.99 1.48c3.01 2.34 4.3 3.79 5.01 7.52l-6.25 5.38-1.78 1.53A40 40 0 0 1 273 374c-.75 2.12-.75 2.12-1 4h-2l-.79 1.67a85 85 0 0 1-4.65 7.64A68 68 0 0 0 258 400l-1.56 3.5A83 83 0 0 0 253 414h-2c-1.92-5.34-3.4-10.35-4-16-3 1-3 1-5 3q-.73-4.59-1.44-9.19l-.41-2.56c-1.79-11.69-2.35-23.37-2.4-35.19l-.06-3.57c-.05-10.72-.05-10.72 3.31-15.49 4.32-4 4.32-4 7-4" fill="#282926"/><path d="M412 304c11.62 11.62 14.88 34.19 18.94 49.44l.96 3.57.88 3.36.79 3c.43 2.63.3 4.14-.57 6.63l-1-2h-2v7h-2a625 625 0 0 1-4-6c-4.7-5.19-9.77-7.96-16-11v-2l-6-1v-2c-19.97-4.22-19.97-4.22-29-6v-6h2l.62-2.44c1.51-3.9 3.5-6.91 5.87-10.33a68 68 0 0 0 3.57-5.92c4.83-8.26 4.83-8.26 8.94-10.31l1-3c1.74-1.16 3.53-2.02 5.41-2.94C402 305 402 305 403 302c3.77-1.88 5.83-.38 9 2" fill="#232521"/><path d="M803 573c4.95 2.65 9 5.46 13.06 9.31l1.58 1.49q2.19 2.08 4.36 4.2l1.93 1.85c4.64 4.88 6.8 10.9 9.07 17.15l1.08 2.93c1.9 6.32 2.06 12.48 1.98 19.01l-.01 2.36-.05 5.7-2.31.23c-5.6.71-9.77 1.43-14.31 4.89-4.69 3.55-8.68 3.52-14.38 2.88l.44-5.75.27-3.65q.25-3.15.58-6.29c1.75-16.75 1.44-33.09-2.41-49.49C803 576 803 576 803 573" fill="#EDEFF0"/><path d="M883 593c3.23 6.33 3.06 11.5 2.94 18.59.06 3.41.06 3.41.56 5.68.61 3.31.61 6.42.6 9.78l-.01 2q0 3.13-.03 6.26l-.01 4.27L887 650l3.34.33c5.2.65 10.13 1.99 15.16 3.42l2.72.73c6.77 1.91 12.75 4.49 17.78 9.52.61 3.86.2 5.65-1.75 9.06-15.42 16.32-56.16 15.4-76.7 16.05q-5.84.08-11.67.08h-2.28c-42.43-.09-84.86-2.43-127.22-4.65-31.54-1.65-63.04-2.76-94.63-2.73h-3.73c-23.35.03-46.63.67-69.94 2.01l-9.52.54c-49.1 2.78-97.99 8.04-146.81 13.94l-2.34.28a4061 4061 0 0 0-28.24 3.48l-7.31.92c-7.98.98-15.82 1.18-23.86 1.02v-1l8.75-1.38 2.38-.38c5.81-.89 11.63-1.53 17.48-2.1 9.1-.87 18.19-1.91 27.27-2.98l2.15-.25 13.29-1.58q18.34-2.19 36.68-4.33l3.73-.44a1354 1354 0 0 1 48.39-4.68l9.45-.77 5.78-.46q6.07-.48 12.11-1.16c72.77-8.31 148.1-4.09 220.96.2 113.03 6.64 113.03 6.64 155.58.31l2.52-.37c11.58-1.79 24.03-4.17 34.48-9.63 2.29-3.44 2.18-4.99 2-9-9.37-5.42-18.48-7.9-29-10l-2.75-.55L884 652a1197 1197 0 0 1-1-59" fill="#E8E9E9"/><path d="m373.81 557.25 2.2.75a237 237 0 0 1-15.39 16.5q-1.2 1.22-2.46 2.47a242 242 0 0 1-13.38 12.46 135 135 0 0 0-7.28 7.07 186 186 0 0 1-11.43 10.67c-3.38 2.98-6.62 6.1-9.88 9.2a259 259 0 0 1-16.69 14.59 162 162 0 0 0-7.38 6.48c-18.3 16.69-18.3 16.69-25.79 16.97l-2.7.12-2.82.1-2.85.11-6.96.26a77 77 0 0 1 9.62-8.37l3.5-2.67 1.88-1.44c10.2-7.79 20.3-15.7 30.23-23.83q6.42-5.23 12.96-10.32c5.7-4.44 11.23-9.06 16.73-13.75a456 456 0 0 1 8.58-7.12c6.24-5.08 12.37-10.29 18.5-15.5l7-5.94 1.6-1.36 4.4-3.7 2.7-2.33c2.3-1.67 2.3-1.67 5.11-1.42" fill="#E9E9EC"/><path d="M237 346h1l.14 2.9c1.92 40.1 1.92 40.1 6.35 58.18 1.56 6.69 2.35 13.35 3.04 20.18 6.22 59.32 6.22 59.32 23.47 77.74l1.5 1.81c8.78 9.88 22.41 14.72 34.5 19.19a84 84 0 0 1-10.06 14.56l-3.49 4.23-1.76 2.13c-2.53 3.11-4.98 6.28-7.44 9.46a224 224 0 0 1-12.1 14.22 164 164 0 0 0-6.21 7.46c-5.91 7.29-12.38 14.04-18.87 20.79l-4 4.19c-24.54 25.79-24.54 25.79-38.01 26.27-9.39.54-16.93 1.94-23.56 9-5.97 7.54-7.6 14.16-6.5 23.69 1.55 5.83 4.88 9.21 9.61 12.77 8.95 4.6 22.09 5.25 31.73 2.58 4.76-1.72 9.2-3.97 13.66-6.35l6-3-1 3.19c-1.58 6.53-2.53 13.82-.08 20.21 4.03 6.17 10.5 8.79 17.08 11.6v1c-6.59-.28-10.97-2.78-16-7-2.83-3.1-5-5.65-5-10l-3 1-2-3 3-2c.73-2.16.73-2.16 1.19-4.62l.48-2.48.33-1.9-3.11 1.5-4.08 1.94-2.04.98c-9.39 4.45-20.75 5.27-30.89 2.83A51 51 0 0 1 184 678l-1.93-1.09c-1.69-1.03-1.69-1.03-4.07-2.91v-2l-1.89-.69c-2.81-1.75-3-3.15-3.8-6.31-1.29-4.95-1.29-4.95-2.31-7 .49-2.43.49-2.43 1.31-5.31l.8-2.87c2.63-8.36 6.65-15.45 14.58-19.76 6.56-2.9 13.71-4.38 20.87-3.75 7.39-.67 13.9-6.66 19.44-11.31l1.69-2.25L230 611h2l.62-1.69c1.52-2.54 3.32-4.08 5.65-5.87 2.4-2 4.54-4.22 6.73-6.44l2.68-2.61c5.27-5.17 10.08-10.34 14.32-16.39a62 62 0 0 1 5.86-6.81c3.08-3.15 5.66-6.65 8.34-10.14L278 559h2l.75-1.64a67 67 0 0 1 5.25-8.05l2.12-2.95C290 544 290 544 292 543l2.78-5.01c2.03-3.31 4.61-6.13 7.22-8.99-4.7-2.9-9.56-5.43-14.47-7.95A60 60 0 0 1 277 514l-2.5-1.36c-3.24-2.13-5.3-4.87-7.56-7.95l-1.28-1.69c-7.71-10.27-7.71-10.27-9.22-15.19l-.72-2.31a575 575 0 0 1-3.03-11 98 98 0 0 0-1.81-5.75c-1.03-3.23-1.4-6.4-1.88-9.75l-.96-2.74c-1.16-3.64-1.65-7.1-2.1-10.88-.85-7.04-.85-7.04-1.44-9.31-.54-2.25-.77-4.4-.96-6.7l-.24-2.7-.46-5.52A146 146 0 0 0 240 403a135 135 0 0 1-1.72-10.2l-.39-2.91-.78-6.05-.39-2.91-.35-2.65C236 376 236 376 235 373q.09-3.1.34-6.2l.28-3.66.32-3.83.3-3.86z" fill="#E3E4E4"/><path d="M328 463c3.37 2.13 4.8 3.69 7 7 .02 2.52.02 2.52-1 5-2.77 1.55-2.77 1.55-6.25 2.75l-3.45 1.23c-10.87 3.35-20.85 2.7-31.3-1.98-8.22-5.61-8.22-5.61-9.73-10.25L283 465c13.85-4.62 30.74-6.99 45-2" fill="#141614"/><path d="m996.44 103.5 2.37.57A136 136 0 0 1 1035 119l2.34 1.34c7.52 4.5 13.76 10.54 19.98 16.66q.9.88 1.87 1.79c3.59 3.54 5.59 6.19 6.8 11.21l1.64 4c1.6 4.38 2.35 7.65.49 12.12-3.42 6.69-7.92 12.69-14.87 15.94-6.02 1.86-11.93.4-17.58-2.08-6.6-3.71-12.52-8.59-18.43-13.31-6.5-5.11-13.16-8.39-20.86-11.36l-3.23-1.26c-14.97-4.99-30.44-2.21-44.4 4.26-13.8 7.45-20.92 18.35-26.75 32.69l-1.68 3.31A29 29 0 0 0 918 201c-1.54 6.23-3.28 12.11-6.02 17.92-.94 2-1.74 4.02-2.54 6.08l-1.44 3-3 1 2.04-6.11 2.03-6.13c12.17-36.58 12.17-36.58 22.93-48.76l2.25-2.56c15.63-13.85 29.7-17.27 50-16.62 5.67.37 10.54 1.89 15.75 4.18l2.82 1.11c7.74 3.41 14.09 8.46 20.6 13.78 8.6 6.98 16.25 11.87 27.58 11.11 5.35-1.34 8.47-4.86 11.62-9.25 2.95-5.88 2.39-13.37.54-19.57-4.97-10.7-13.52-17.79-23.16-24.18l-3.1-2.07A131 131 0 0 0 1013 112l-2.85-1.15c-9.4-3.5-19.26-4.56-29.15-5.85v-1c5.76-2.12 9.54-1.98 15.44-.5" fill="#E5E6E8"/><path d="m906 228 2 2a159 159 0 0 1-13.19 18.69C893 251 893 251 891.44 253.62A26 26 0 0 1 887 259l-2.5 3.12A61 61 0 0 1 864 278q-2.51 1.47-5 3a95 95 0 0 1-8.06 4.5A38 38 0 0 0 844 290l1.25 2.01c2.08 3.55 3.92 7.18 5.75 10.87l1.04 2.06c2.86 5.74 5.55 11.51 7.52 17.62l.69 2.13.75 2.31.96 2.66c1.36 4.35 2.23 8.74 3.1 13.22l.53 2.6c1.33 6.71 2.6 13.4 2.41 20.27-.04 3.65.14 7.18.5 10.81.45 5.07.64 10.1.69 15.19l.04 2.11c.01 5.01-.86 9.32-2.23 14.14h-1l-.06-2.86c-1.52-70.23-1.52-70.23-17.58-100.09l-1.39-2.6q-1.37-2.53-2.81-5.02l-1.28-2.31-1.17-2.05c-.96-2.8-.75-4.3.29-7.07 2-1.49 2-1.49 4.64-2.73l2.92-1.42 3.13-1.47c22.34-11.12 38.95-27.41 50.34-49.77C904 229 904 229 906 228" fill="#E4E4E7"/><path d="M415 445v2q-3.33 1.98-6.69 3.94l-1.89 1.13c-3.46 2.01-6.38 3.44-10.42 3.93v2l-3.81 1.56-2.15.88C388 461 388 461 385 460l1 3-5.69 2.44-3.2 1.37c-2.76 1.06-5.17 1.91-8.11 2.19l-2-2c.1-3.57.9-4.89 3.31-7.56L373 457l2.06-2.31C377 453 377 453 381 453v-2c23.62-11.19 23.62-11.19 34-6" fill="#141714"/><path d="m731.54 240.12 3.95.15 4.14.17 4.16.15 10.2.41 1 2-2.44.03c-18.18.26-35.67 1.36-53.55 4.97l-2.64.51c-28.38 5.66-55.85 16.9-81.77 29.56l-2.15 1.05q-5.26 2.56-10.48 5.2l-3.8 1.88-3.4 1.71c-2.76 1.1-2.76 1.1-5.76.1a30 30 0 0 1 12.1-7.26c2.72-1.08 4.68-2.9 6.9-4.75q2-.52 4-1 2.69-1.14 5.3-2.38 6.32-2.9 12.7-5.62l4.13-1.88A265 265 0 0 1 661 255l4.56-1.5 2.25-.74q3.18-1.12 6.32-2.39c3.59-1.37 7.06-1.84 10.87-2.37q2.24-.72 4.44-1.5a37 37 0 0 1 8.69-2.06c3.87-.44 3.87-.44 7-1.44 4.8-1.5 9.86-1.49 14.86-1.76 4.16-.34 7.18-1.29 11.55-1.12" fill="#EAEAED"/><path d="m1000 153 2.96 1.27c4.89 2.26 4.89 2.26 7.04 3.73l1 3q-3.65-1.44-7.25-2.96c-15.28-6.44-30.92-8.9-46.82-3.24-16.45 6.72-26.06 15.96-33.31 32.2l-1.62 4-1.69 3.31A29 29 0 0 0 918 201c-1.54 6.23-3.28 12.11-6.03 17.92-.93 2-1.73 4.02-2.53 6.08l-1.44 3-3 1 2.04-6.11 2.03-6.13c12.17-36.58 12.17-36.58 22.93-48.76l2.25-2.56c18.19-16.13 42.73-22.59 65.75-12.44" fill="#DFE0E1"/><path d="m174 653 .3 2.41c1.11 7.9 2.5 13.24 8.95 18.34 8.02 5.96 21.3 5.59 30.75 4.25 5.68-1.57 10.82-4.24 16-7l6-3-1 3.19c-1.58 6.53-2.53 13.82-.08 20.21 4.03 6.17 10.5 8.79 17.08 11.6v1c-6.59-.28-10.97-2.78-16-7-2.83-3.1-5-5.65-5-10l-3 1-2-3 3-2c.73-2.16.73-2.16 1.19-4.62l.48-2.48.33-1.9-3.11 1.5-4.08 1.94-2.04.98c-9.39 4.45-20.75 5.27-30.89 2.83A51 51 0 0 1 184 678l-1.93-1.09c-1.69-1.03-1.69-1.03-4.07-2.91v-2l-1.89-.69c-2.81-1.75-3-3.15-3.8-6.31-1.29-4.95-1.29-4.95-2.31-7 .31-2.06.31-2.06 1-4 2-1 2-1 3-1" fill="#DEDFE1"/><path d="M237 346h1l.14 2.9c1.92 40.11 1.92 40.11 6.33 58.11 1.82 7.74 2.68 15.54 3.53 23.43l.94 8.43.23 2.06c.71 5.84 1.93 11.48 3.34 17.2.47 2.76.43 4.27-.51 6.87-2.62-1.94-2.99-2.97-3.56-6.25L248 455l-1-3.31a59 59 0 0 1-1.75-11.36c-.25-2.33-.25-2.33-.74-4.19a44 44 0 0 1-.97-6.77l-.24-2.7-.46-5.52A146 146 0 0 0 240 403a135 135 0 0 1-1.72-10.2l-.39-2.91-.78-6.05-.39-2.91-.35-2.65C236 376 236 376 235 373q.09-3.1.34-6.2l.28-3.66.32-3.83.3-3.86z" fill="#DBDDDB"/><path d="M361 477c2 2 2 2 2.31 4.94-.36 3.59-.9 3.65-3.31 6.06-.87 2.64-1.42 5.27-2 8h-7l-.62-2.25c-1.38-2.75-1.38-2.75-4.5-4.69C343 487 343 487 342.25 484c.75-3 .75-3 3-5.38 4.68-2.7 10.54-2.29 15.75-1.62" fill="#646566"/><path d="m297 462 .26 2.01c1.29 8.1 4.28 11.16 10.74 15.99-9.31-.38-15.61-2.13-22.06-9.06-1.79-2.04-1.79-2.04-2.94-3.94l1-3a37 37 0 0 1 13-2" fill="#EACB6B"/><path d="M380 453a33 33 0 0 1 3.19 5l1.6 2.81L386 463l-5.69 2.44-3.2 1.37c-2.76 1.06-5.17 1.91-8.11 2.19l-2-2c.1-3.57.9-4.89 3.31-7.56L373 457l2.12-2.31C377 453 377 453 380 453" fill="#DCC574"/><path d="m996.44 103.5 2.37.57A136 136 0 0 1 1035 119l2.44 1.41c3.65 2.19 6.7 4.38 9.56 7.59l-1 3-1.47-1.25c-18.78-15.3-39.96-21.43-63.53-24.75v-1c5.76-2.12 9.54-1.98 15.44-.5" fill="#D7D8D7"/><path d="m238 348 3 1 .11 3.45c.39 9.72 1.25 19.19 2.87 28.79A68 68 0 0 1 245 395l-3 1c-3.54-16.09-4.15-31.56-4-48" fill="#171A16"/><path d="M235 668c1 2 1 2 .09 4.73L234 676c-.78 6.06-1.21 12.15 2.25 17.44 4.18 4.75 10.03 7.11 15.75 9.56v1c-6.59-.28-10.97-2.78-16-7-2.83-3.1-5-5.65-5-10l-3 1-2-3 3-2c.73-2.16.73-2.16 1.19-4.62l.48-2.48.33-1.9-2.62 1.5c-3.49 1.55-5.63 1.77-9.38 1.5 3.13-2.09 6.37-3.86 9.69-5.62l1.84-.99z" fill="#D3D4D4"/><path d="M864 347c2.78 2.78 2.54 5.15 3 9l.56 2.31c.55 3.34.45 6.54.41 9.91.03 2.81.25 5.54.53 8.34.45 5.07.64 10.1.69 15.19l.04 2.11c.01 5.01-.86 9.32-2.23 14.14h-1l-.08-2.97-.29-11.16-.13-4.78c-.23-9.3-.59-18.55-1.29-27.83-.3-4.75-.3-9.5-.21-14.26" fill="#EFF1F3"/><path d="M827 683h31v1l7 1v1c-6.97.83-13.81 1.14-20.82 1.1l-2.98-.01q-4.67 0-9.32-.03l-6.37-.01L810 687v-1h18z" fill="#B8B9BB"/><path d="M883 593c3.23 6.33 3.06 11.5 2.94 18.59.06 3.41.06 3.41.56 5.72.58 3.12.6 6.02.56 9.2l-.02 3.74-.04 3.87-.06 7.64-.04 3.41c.1 2.83.1 2.83 1.1 5.83h-4a1145 1145 0 0 1-1-58" fill="#F2F3F3"/><path d="M879 164h1c.33 5.1-.85 9.16-2.62 13.88l-.82 2.23-1.71 4.6q-1.23 3.31-2.41 6.64c-2.6 7.21-5.35 14.13-9.44 20.65l-3-1 .92-1.73c5.04-9.76 8.74-19.95 12.08-30.39a56 56 0 0 1 3-6.88q1.02-3 2-6z" fill="#EBEBEE"/><path d="m974.81 101.31 2.9.11 2.74.13 2.5.11C985 102 985 102 987 104l-1.86.04c-18.1.48-34.9 1.92-51.79 9.08-2.35.88-2.35.88-5.35.88l1-3c2.56-1.03 2.56-1.03 6-2q1.94-.6 3.87-1.22l6.21-1.93 2.04-.63 2.01-.62q2.48-.8 4.93-1.7c6.95-2.14 13.58-1.95 20.75-1.59" fill="#E5E6E6"/><path d="M501 568v3a82 82 0 0 1-6.25 4.44c-7.94 5.17-7.94 5.17-10.75 8.56v3c-6.21 2.14-11.43 3.37-18 3 4.64-4.08 9.88-6.89 15.25-9.88A242 242 0 0 0 501 568" fill="#030504"/><path d="M754 241a268 268 0 0 1 46.19 8.46C802 250 802 250 804 251v2c-4.92-.62-9.57-1.6-14.38-2.88-12.38-3.18-24.84-5.41-37.62-6.12z" fill="#E2E2E5"/><path d="M331 467h2c2 3 2 3 2.02 5.52-1.02 2.48-1.02 2.48-3.79 4.03l-3.48 1.2-3.45 1.23c-5.93 1.83-12.12 3.25-18.3 2.02-3.59-2.69-5.59-5.78-7-10l3-1v4h2v2h4v2c13.78.62 13.78.62 20-3 1.56-2.67 2.2-4.96 3-8" fill="#2F2E29"/><path d="M971 149c13.87-.64 27.15.92 39 9l1 3q-3.65-1.44-7.25-2.96c-9.29-3.92-18.49-6.25-28.57-6.73C973 151 973 151 971 149" fill="#E8E9E9"/><path d="M1047 129c4.38 2 7.25 4.88 10.62 8.25l1.78 1.7c3.5 3.48 5.38 6.15 6.6 11.05l1.62 4a20.5 20.5 0 0 1 1.38 10l-1 2h-2l-.26-2.49c-1.56-12.42-5.75-20.77-14.74-29.51l-2.25-1.63L1047 131z" fill="#E1E3E2"/><path d="M413 442c1.83 1.52 1.83 1.52 3 3l-3.23-.18c-10.51-.39-17.99 1.1-27.77 5.18a62 62 0 0 1-4 1v2a53 53 0 0 1-9 3c9.16-11.12 27.07-15.86 41-14" fill="#010302"/><path d="m407 301-4 1-.19 1.81c-1.15 3.09-2.92 3.78-5.81 5.19h-2l-1 4-1-2h-2l-1 3a104 104 0 0 1-6 4l-2-1q3.36-3.45 6.75-6.88l1.92-1.97 1.88-1.89 1.71-1.75c4.11-3.57 7.35-3.72 12.74-3.51" fill="#191B18"/><path d="m254 588 1 2a272 272 0 0 1-16.44 17.5l-2.5 2.49L230 616l-2-3 1.88-.75c2.12-1.25 2.12-1.25 3-3.06 1.36-2.65 3.25-4.09 5.56-5.92 2.36-1.92 4.43-4.09 6.56-6.27l4.81-4.81 2.4-2.4z" fill="#E2E5E2"/><path d="M243 398h4l4 16h2v2c-3.72.2-4.77.15-8-2-1.96-5.14-2.23-10.56-2-16" fill="#181819"/><path d="m731.54 240.12 3.95.15 4.14.17 4.16.15 10.2.41c.18.33.18.33 1 2l-41 1v-2l1.9-.18 2.49-.26 2.46-.24c8.7-1.28 8.7-1.28 10.7-1.2" fill="#F0EFF2"/><path d="M410.25 299.25c2.78 1.77 3.7 2.69 4.75 5.75-3 0-3 0-4.69-1.5-3.34-2.17-6.49-2.17-10.31-1.5-4.45 2.4-8.17 5.72-12 9l-1-2 2-3h2l.77-1.86c3.73-6.48 12.08-7.35 18.48-4.89" fill="#DCDEDC"/><path d="m373.8 557.27 2.2.73a85 85 0 0 1-13 13l-2-2c.23-3.92 2.45-5.77 5.25-8.31l2.33-2.18C371 557 371 557 373.8 557.27" fill="#E8EBEA"/><path d="M1011 159c6 3.82 11.66 7.96 17.22 12.4A82 82 0 0 0 1040 179v2c-6.22-1.47-10.63-5.14-15.62-8.94l-2.57-1.92L1015 165l-2.27-1.52L1011 162z" fill="#DFDFDD"/><path d="M306.63 458.81q1.43 0 2.9-.04c5.9 0 11.88.13 17.48 2.23l1 2-1.9-.22c-7.94-.82-15.81-.9-23.8-.85l-3.9.02-9.4.05c6.03-3.13 10.93-3.19 17.62-3.19" fill="#020201"/><path d="M376 456h4v4h2c-.51 2.17-1 4-2 6h-10l1-4 3-1 2 1z" fill="#EBC85F"/><path d="m588 287 1 2 2 1c-16.71 8.45-16.71 8.45-25 12v-3a208 208 0 0 1 13-7 77 77 0 0 0 9-5" fill="#E4E4E5"/><path d="m827 242 1 3c-15.56 7.85-15.56 7.85-24 8v-2l3.19-.88c5.09-1.5 9.8-3.54 14.62-5.74l2.96-1.36z" fill="#EAEAED"/><path d="m885 257 2 1c-1.61 4.16-4.66 6.81-7.88 9.75l-1.6 1.54c-3.16 2.9-4.07 3.71-8.52 3.71 1.23-3.7 2.68-4.54 5.75-6.88A85 85 0 0 0 885 257" fill="#EBEBEE"/><path d="M858 683v1l7 1v1c-7.07.85-14.01 1.13-21.12 1.06l-2.9-.01L834 687c2.25-2.57 2.79-2.97 6.36-3.51l3.95-.18 3.93-.2q4.88-.15 9.76-.11" fill="#C6C8C9"/><path d="M240 393c4.65 8.22 5.58 18.72 5 28-2.82-2.82-2.92-6.01-3.56-9.81l-.76-4.27L240 403l-.62-2.84c-.46-2.62-.04-4.6.62-7.16" fill="#E9EAE8"/><path d="M262 335a38 38 0 0 1 7 3l1 3q2.99 1.05 6 2l1 2a41 41 0 0 0 4 2v2a23 23 0 0 1-7.86-3.21l-2.13-1.33-2.2-1.4-2.23-1.38c-5.45-3.42-5.45-3.42-6.58-5.68z" fill="#090B0C"/><path d="m294 464-2 6h-7l-2-5c4.07-2.04 6.59-2.03 11-1" fill="#D6BB64"/><path d="M882 578c1.91 2.14 2.97 3.36 3.11 6.27l-.36 2.54a239 239 0 0 0-1.31 14.38l-.26 3.92L883 608h-1q-.25-6.16-.48-12.34l-.17-4.19-.23-6.03-.14-3.66C881 579 881 579 882 578" fill="#D8DADB"/><path d="M864 480h1c1.35 5.76 2.16 11.1 2 17.02 0 2.42.4 4.64 1 6.98l-3 1c-1-3-1.12-4.97-1.1-8.11l.01-2.97.03-3.11.01-3.14z" fill="#F0F1F2"/><path d="M240 334c1 2 1 2 .48 3.79l-.86 2.27c-2.4 7.45-2.36 15.18-2.62 22.94-2-2-2-2-2.27-4.94.08-18.64.08-18.64 5.27-24.06" fill="#EDEEEE"/><path d="m974.56 101.31 2.94.11 2.81.13 2.58.11C985 102 985 102 987 104h-27c2.42-4.84 9.97-2.9 14.56-2.69" fill="#F0F2F2"/><path d="M290 472h2l1 2 3.19-.81c3.81-.19 3.81-.19 6.56 2.12L305 478l3 2c-7-.29-11.91-1.5-18-5z" fill="#D3BD71"/><path d="m326 342 1 2-8.75 2.5-2.5.72-2.42.69-2.22.63C309 349 309 349 305 349v-2c15.65-5.32 15.65-5.32 21-5" fill="#EBEDEC"/><path d="m927 113 2 2-2.85 1.83-3.77 2.42-1.88 1.2A669 669 0 0 0 909 128c.11-1.71.11-1.71 1-4a69 69 0 0 1 6.31-4.62l1.77-1.2A63 63 0 0 1 927 113" fill="#DEDFDF"/><path d="M285 344c3.3.53 6.3 1.44 9.44 2.56 3.67 1.28 6.66 1.54 10.56 1.44l2 2c-8.68 1.7-14.25-.12-22-4z" fill="#E1E4E5"/><path d="M754 241q4.72.42 9.44.88l2.72.23 2.59.26 2.39.22 1.86.41 1 2c-7.39.15-14.64-.29-22-1z" fill="#E4E3E8"/><path d="M255 328c2.5 1 2.5 1 4 2v1l-2.67.11-3.52.2-3.48.18c-3.48.53-5.48 1.5-8.33 3.51 2.8-6.78 7.15-7.86 14-7" fill="#ECEFEC"/><path d="M1064 149c3.84 3.84 4.88 6.86 5.19 12.25C1069 164 1069 164 1068 166h-2z" fill="#EDF0ED"/><path d="M954 155c-1.67 1.93-2.88 2.95-5.28 3.91a53 53 0 0 0-8.03 4.21l-2.68 1.64L936 166c1.48-3.73 3.5-5.45 6.75-7.75l2.55-1.86c3.13-1.61 5.22-1.65 8.7-1.39" fill="#E8E8E9"/><path d="M876 545c1.98 1.38 2.9 2.5 3.39 4.88q.23 2.08.4 4.18C880 556 880 556 881 559l-1 2h-2c-1.39-5.45-2.24-10.37-2-16" fill="#EEEEF0"/><path d="M345 341v1l-18 2-1-2c7.06-3.11 11.73-3.13 19-1" fill="#DDDFE0"/><path d="M331 467h2c2 3 2 3 1.62 5.69L334 475l-7 2z" fill="#C6BB7C"/><path d="m864 440 3 1c.22 6-.49 11.19-2 17h-1z" fill="#F2F2F3"/><path d="M872 534c1.92.71 1.92.71 4 2 .83 2.16.83 2.16 1.25 4.62l.45 2.48.3 1.9h-2l-1 4-1.5-5.81-.84-3.27C872 537 872 537 872 534" fill="#D7D9DA"/><path d="M245 414h1l1 17-2 1c-2.22-6.65-1.79-11.27 0-18" fill="#D0D1D2"/><path d="M178 638c.83 2.37 1.14 3.59.29 6l-1.1 2-1.08 2-1.11 2-2 4h-1c.75-6.39 1.91-10.98 6-16" fill="#E9ECE9"/><path d="M232 675c1.07 3.21.94 4.4.25 7.62l-.48 2.42L231 687l-3 1-2-3 3-2q1.1-3.47 2-7z" fill="#DDDEE0"/><path d="M276 562h2c-1.44 3.24-3.26 5.62-5.62 8.25l-1.92 2.14L269 574l-3-1 1.62-1.56c2.51-2.57 4.76-5.27 7.01-8.05z" fill="#EAEAED"/><path d="M431 353h2q.8 2.34 1.56 4.69l.88 2.63c.61 2.93.34 4.82-.44 7.68-3.41-3.41-3.93-8.32-4.12-13z" fill="#EEF0F2"/><path d="m419 322 3 1c.8 1.96.8 1.96 1.31 4.38l.55 2.39C424 332 424 332 422 335q-.76-2.12-1.5-4.25l-.84-2.39C419 326 419 326 419 322" fill="#151517"/><path d="M670 503v2l-6 2v2l-7 3-2-2 6.38-3.5 1.82-1.01c4.57-2.49 4.57-2.49 6.8-2.49" fill="#DFE0E1"/><path d="m884 154 2 1a129 129 0 0 1-5 13h-1c-.38-5.24.74-8.38 3-13z" fill="#DFE0E2"/><path d="M210 627v2h-14l1-2c4.57-1.2 8.38-.83 13 0" fill="#F4F4F5"/><path d="M883 611h2c.91 4.97.91 9.03 0 14-2-2-2-2-2.2-4.82l.08-3.3.05-3.33z" fill="#E6E7E9"/><path d="M385 461h2l1 4c-9.41 3.44-9.41 3.44-14 3a30 30 0 0 1 7.19-3.62l2.17-.79L385 463z" fill="#312516"/><path d="M250 453c2.02 3.04 2.32 4.19 2.62 7.69l.23 2.45.15 1.86c-1.95-.82-1.95-.82-4-2-1-3.27-1.33-5.17-.06-8.38z" fill="#D8D8DC"/><path d="M243 405h1c1.13 5.36 1.1 10.55 1 16-2.55-2.55-2.4-3.89-2.69-7.44l-.26-2.93C242 408 242 408 243 405" fill="#E0E0E2"/><path d="m793 248 4.38.94 2.46.52C802 250 802 250 804 251v2c-4.06-.47-7.47-.88-11-3z" fill="#D6D6D9"/><path d="M1027 173c4.99.47 9.13 2.92 13 6v2c-5.26-1.41-8.76-3.69-13-7z" fill="#E3E2E6"/><path d="M248 331h7l1 4h-7z" fill="#0B0B0D"/><path d="M566 300c-1 3-1 3-3.88 4.69C559 306 559 306 556 306c1-3 1-3 3.88-4.69C563 300 563 300 566 300" fill="#EFEEF2"/><path d="m555 304 2 3-10 5c2.19-4.39 3.91-5.51 8-8" fill="#E1E1E4"/><path d="M1065 157h1c1.45 10 1.45 10-.44 14.19L1064 173l-3-1 1.44-1.88c2.14-4.28 2.29-8.39 2.56-13.12" fill="#C2C5C3"/><path d="m996 104-2 2c-3.04-.02-3.04-.02-6.62-.38l-3.61-.33L981 105v-1c5.86-2.2 9.04-1.88 15 0" fill="#D1D3D5"/><path d="M232 678h1l.15 2.27.23 2.98.21 2.95c.39 2.7 1.05 4.47 2.41 6.8l-4-1a36 36 0 0 1 0-14" fill="#C8C9CB"/><path d="M292 462h5l1 10h-4l1-8z" fill="#CDBA6A"/><path d="m694 414 2 2c-.31 2.62-.31 2.62-1 6q-.3 2.19-.56 4.38L694 430h-1l-.06-7.44-.03-2.14q0-2.71.09-5.42z" fill="#070906"/><path d="M239 365h1c1.4 6.12 2.23 11.72 2 18-2.91-4.37-3.12-7.55-3.06-12.75l.02-2.98z" fill="#0C100D"/><path d="m588 287 1 2 2 1-10 4-2-2 2.81-1.38C585 289 585 289 588 287" fill="#E7E5E6"/><path d="M696 246v2c-3.88 1.19-6.92 2-11 2l1-3c1.78-.77 1.78-.77 3.94-1.25l2.15-.52C694 245 694 245 696 246" fill="#EFEFF1"/><path d="M687 250v1l-11 2c3.17-6.34 4.77-4.96 11-3" fill="#E5E5E7"/><path d="m1037 175 6 2v2h8v1c-5.44.22-9.87.1-15-2z" fill="#222224"/><path d="M275 339c4.13.61 7.33 2.04 11 4l-1 2a57 57 0 0 1-10-4z" fill="#D8D8DC"/><path d="m885 257 2 1c-1.45 3.83-3.43 5.12-7 7 0-3 0-3 2.5-5.69z" fill="#F2F1F4"/><path d="M892 248c1 3 1 3-.19 5.62-1.81 2.38-1.81 2.38-4 3.19L886 257c1.53-3.44 3.6-6.12 6-9" fill="#DBDBDF"/><path d="M1023 114c4.51.53 7.35 2.37 11 5-3 1-3 1-5.04.22l-2.15-1.16-2.17-1.15-1.64-.91z" fill="#DFE0E2"/><path d="m375 650 2 4c-5.75 2-5.75 2-8 2 1.25-3.74 2.63-4.19 6-6" fill="#DEE0DE"/><path d="m510.19 329.38 1.8.62c-2.06 2.8-3.13 3.02-6.68 3.69l-3.31.3c4.95-5.18 4.95-5.18 8.19-4.62" fill="#EDEDF0"/><path d="m1061 173 2 1-8 7-4-2 2.19-.75c3.06-1.36 5.28-3.08 7.81-5.25" fill="#DCDDDC"/><path d="m1015 110 9 3-1 2-10-3z" fill="#D3D5D6"/><path d="m313 687-5 2v3l-3 1-1-3c2-3 2-3 3.94-3.75C310 686 310 686 313 687" fill="#171819"/><path d="m367 463 1 3h9c-2.93 1.95-4.56 2.65-8 3l-2-2z" fill="#CAB581"/><path d="m463 355 3 2-9 4-1-3c3.31-1.62 3.31-1.62 7-3" fill="#DBDBDD"/><path d="m426 343 2 1c1.12 4.19 1.11 6.26-1 10l-1.06-4.94-.6-2.77L425 344z" fill="#0D0F0D"/><path d="m1011 159 9 6-4 1c-2.75-1.75-2.75-1.75-5-4z" fill="#D4D5D5"/><path d="m927 113 2 2-9 5 1-4c3.06-1.75 3.06-1.75 6-3" fill="#D8D8DA"/><path d="M349 584c0 3.59-.66 4.11-3 6.69l-1.69 1.88L343 594l-1-3z" fill="#242625"/><path d="M866 504c2 3 2 3 3 6-.94 2.69-.94 2.69-2 5h-1l-.56-4.94-.32-2.77L865 505z" fill="#DCDDDF"/><path d="M295 461h7l-2 4-1-1-1 5h-1v-7z" fill="#1F1B0E"/><path d="M245 329c2.38.02 2.38.02 5.12.38l2.76.33 2.12.29v1l-1.79.11c-4.82.4-8.22.93-12.21 3.89 1.15-2.47 2.05-4.05 4-6" fill="#BFBFC1"/><path d="m534 315 2 1c-1 3-1 3-2.88 4.19-2.12.81-2.12.81-5.12.81 1-3 1-3 3-4.12l2-.88z" fill="#EEEDEF"/><path d="M182 633h3c-1.39 3.37-2.98 4.99-6 7 .75-4.75.75-4.75 3-7" fill="#DCDFDC"/><path d="M259 491c3 1 3 1 4.25 2.81.87 2.53.63 3.71-.25 6.19-4-5.62-4-5.62-4-9" fill="#E8E8EB"/><path d="M372 468h8v2h-2v2h-4v-2z" fill="#1C141B"/><path d="M381 450v3a53 53 0 0 1-9 3c5.85-6 5.85-6 9-6" fill="#0F0903"/><path d="m370 331 1 2-5 7-2-1c1.44-3.37 3.33-5.51 6-8" fill="#272829"/><path d="m527 319 1 2 2 1-7 3c.31-1.88.31-1.88 1-4z" fill="#DFDEE1"/><path d="M780 245v2l-11-1v-1c3.98-1.05 6.98-.84 11 0" fill="#D5D5D9"/><path d="M1000 151v2l-13-3v-1c4.98-1.71 8.43-.01 13 2" fill="#1F2120"/><path d="M241 700c4.56.44 7.58.85 11 4-4.56-.44-7.58-.85-11-4" fill="#DBDEDF"/><path d="M173 667h4l2 3-1 3a295 295 0 0 1-5-5z" fill="#E7E8EB"/><path d="m420 618 4 2-7 4-2-2 1.94-.88C419 620 419 620 420 618" fill="#1B1B1C"/><path d="M233 609h2c-1.39 3.37-2.98 4.99-6 7l-1-3 2-2h3z" fill="#D7D8D8"/><path d="m548 564 1 2-1 2c-2.94.75-2.94.75-6 1l-2-2z" fill="#E3E1E2"/><path d="M454 362v3c-3.33 3-3.33 3-6 3v-3z" fill="#201D1E"/><path d="M863 351h1a80 80 0 0 1 1 15h-1c-1.43-5.31-2.4-9.54-1-15" fill="#4D4E4F"/><path d="M424 335h2v7l-2 1q-.57-3.5-1-7z" fill="#191A1B"/><path d="m578.56 292.94 2.44.06v2l-7 3c1.12-4.98 1.12-4.98 4.56-5.06" fill="#DBDBDC"/><path d="m354.13 476.94 2.75.03 2.13.03v1l-3.76.44c-2.81.35-5.52.77-8.25 1.56v-2c2.52-1.26 4.31-1.1 7.13-1.06" fill="#6B6C6D"/><path d="m300 475 8 4v1c-6.15-.59-6.15-.59-8-1l-1-2z" fill="#D4C994"/><path d="m1004 155 7 4v2c-3.38-1.19-5.65-2.28-8-5z" fill="#E0E1E0"/><path d="M1003 109c6.75.88 6.75.88 9 2v2l-7-1v-2z" fill="#070608"/><path d="m1003 105-1 2h-7l-1-2c3.07-1.53 5.7-.55 9 0" fill="#DFDEE1"/><path d="M176 660h2l-.06 2.38C178 665 178 665 179 667h-3q-.57-2.99-1-6z" fill="#090A0D"/><path d="m217 624-1 3c-3.06 1.19-3.06 1.19-6 2 1-3 1-3 2.94-4.19C215 624 215 624 217 624" fill="#DFDFE0"/><path d="m254 588 1 2-5 6-1-3z" fill="#D5D6D7"/><path d="m301 470 1 4h2v3l-3-1c-1.19-2.56-1.19-2.56-2-5z" fill="#28200D"/><path d="m382 459 4 4c-1.81 1.06-1.81 1.06-4 2l-3-1 2-1c.62-2.06.62-2.06 1-4" fill="#DECF8A"/><path d="M376 460h2l2 6-6-1z" fill="#E4C264"/><path d="M857 320c2.5 2.17 3.44 3.73 4 7h-3z" fill="#EDEFEE"/><path d="M402 298c6.75.75 6.75.75 9 3l-9-1z" fill="#ECEEEC"/><path d="m887 148 2 1Zm-1 1 2 1-1 5-3-1z" fill="#EDEDF1"/></svg>