<svg style="background:transparent" version="1.1" xmlns="http://www.w3.org/2000/svg" viewBox="0 0 1248 704"><path d="M529.56 38.31c4.35 2.86 8.45 5.95 12.51 9.2A58 58 0 0 0 549 52q2.1 1.37 4.16 2.78 3.4 2.2 6.84 4.33a247 247 0 0 1 15.14 10.5c6.16 4.51 10.52 5.68 18.1 5.4l2.42-.08q3.9-.11 7.78-.25l5.36-.16c9.86-.3 19.72-.7 29.57-1.3 4.77-.25 9.42-.17 14.2.14l3.4.21q3.23.22 6.47.54c7.67.54 11.7-1.24 17.56-6.12l2.56-1.94 2-1.63c3.41-2.69 6.9-5.07 10.62-7.33q2.35-1.44 4.63-2.98c3.82-2.55 7.71-4.99 11.6-7.44 2.28-1.48 4.42-3.05 6.6-4.68q2.7-1.77 5.43-3.5l2.8-1.78c8.61-5.38 15.12-7.77 25.32-6.16 5.08 2.12 8.74 5.64 11.6 10.35 2.92 7.26 1.93 16.42 1.96 24.15l.02 2.53v4.51C765 74 765 74 764 77c-.07 3.5 0 6.96.06 10.45-.06 3.55-.06 3.55-.55 6.38-.92 5.7-.9 11.47-1.07 17.24l-.07 2.1c-.52 17.57-.45 35.13-.37 52.7.15 35.27.15 35.27-.38 50.95l-.09 3.16c-.22 5.34-.8 9.95-2.53 15.02l-.9 2.66c-2.05 5.36-4.14 9.18-8.1 13.34l-2.5 2.62A116 116 0 0 1 740 260l-2.25 2.31c-4.3 4.2-8.99 8.77-14.75 10.7 1.2 8.44 5 15.4 8.9 22.87q2.63 5.1 5.16 10.24 2.93 5.9 5.93 11.75l.96 1.88 2.6 5.06a65 65 0 0 1 3.45 10.2q.93 2.66 1.94 5.3a187 187 0 0 1 4.33 13.41c.73 2.28.73 2.28 2.35 5.9a24 24 0 0 1 1.94 7.5c.44 3.88.44 3.88 1.43 6.31a23 23 0 0 1 1.51 7.57c.31 4.26.85 8.41 1.56 12.62a69 69 0 0 1 .94 13.12c0 3.6.46 7.12.88 10.68.12 2.72-.33 4.92-.88 7.58-.03 2.76.06 5.51.16 8.28-.18 2.96-1 5.01-2.16 7.72v3h3v3l-4 1-1 8 2.44-.94c4.18-1.25 8.22-1.7 12.56-2.06q0-3.22-.03-6.45c.26-7.77 2.52-13 8.03-18.55a30 30 0 0 1 16.9-5.86c2.1-.14 2.1-.14 4.12-.66 4.27-.69 8.43-.46 12.75-.28l2.9.11 6.05.25 9.12.33c15.36.6 28.98 2.87 43.16 9.11l2.43.94c7.71 3.17 13.9 6.98 19.57 13.06l2.44 1.37c3.2 2.03 5.23 4.5 7.66 7.38 1.98 2.35 4.06 4.61 6.15 6.87A36 36 0 0 1 925 471q1.56 3.14 3.15 6.27c7.83 16.24 10.95 34.84 7.85 52.73l-.4 2.46c-1.92 10.42-5.04 19.5-10.6 28.54l-1.32 2.31a108 108 0 0 1-6 8.43c-2.45 3.3-4.7 6.72-6.97 10.16-1.83 2.24-3.14 2.9-5.7 4.1a76 76 0 0 0-3.7 3.7c-5.14 5.26-10.62 10.13-17.3 13.3l-3.15 1.62c-6.49 3.32-12.82 6.43-19.86 8.38l-2.78.77-5.7 1.53q-2.99.84-5.9 1.9c-2.7.83-4.8.87-7.62.8l-1.84.46c-8.2 2.04-17.07 1.7-25.48 1.66l-3.16.01c-4.97 0-9.64-.16-14.52-1.13q-4.2-.4-8.42-.72A46 46 0 0 1 779 617q-2.3-.32-4.63-.57l-2.35-.25c-3.83-.35-3.83-.35-7.02 2.32-3 2.5-3 2.5-5 2.5l-.69 1.74c-1.68 2.9-3.72 4.37-6.37 6.38-4.85 3.68-4.85 3.68-5.94 5.88l2 .56c5.4 2.6 10.46 6.45 12.87 12.06L763 651l1.18 2.5c1.35 4.13 1.25 7.9.13 12.06-4.07 7.56-4.07 7.56-8.98 9.48-14.3 3.63-31.38 3.91-45.33-1.04l-3.16-1.09q-3.94-1.4-7.84-2.9l1 1 1.81 2.3c2.2 2.7 2.2 2.7 4.2 4.5 6.02 6.6 7.35 14.37 7 23.2q-1 1.46-2 3c-3.06.35-3.06.35-7.03.33h-2.19q-3.58-.01-7.18-.05h-4.96q-6.55-.03-13.09-.09-6.67-.04-13.36-.06-13.1-.05-26.2-.14c-2.24-6.67-4.03-13.03-5-20l-1-1c-.24-6.53-.24-6.53 1-9l1-7 1-4h-15l.48 3.9c.54 4.88.74 9.7.77 14.6l.06 2.4c.04 6.56-.82 12.88-4.94 18.2-3.23 2.58-5.29 2.4-9.4 2.4l-2.12.02q-3.46.01-6.92-.03l-4.8.01a1129 1129 0 0 1-10.09-.04q-6.44-.03-12.92 0l-9.93-.02h-4.77q-3.32 0-6.65-.04h-3.83L541 704c-2.55-3.82-2.66-6.6-2-11 2.55-9.42 7.48-15.87 15-22 2.31-1.28 2.31-1.28 4-2a140 140 0 0 0-13.54 5.2c-2.64.86-4.7.86-7.46.8l-3 1c-30.97 3.3-30.97 3.3-41.06-4.62-3.9-4.06-5.02-7.7-4.9-13.32.54-7.59 4.8-12.3 10.07-17.45 2.77-2.36 5.65-3.96 8.9-5.6-5.39-4.58-5.39-4.58-7.77-6.22-5.36-3.7-9.49-8.17-13.8-12.98a74 74 0 0 0-8.57-8.3c-10.92-9.13-18.69-22.9-24.87-35.5l-1.19-2.29a85 85 0 0 1-8.34-24.45C442 543 442 543 440.94 540c-1.12-3.57-1.4-6.97-1.73-10.69a67 67 0 0 0-1.2-7.3c-1.45-9.3-1.69-18.76 0-28l.24-3.14c2.21-11.4 7.78-23.22 17.12-30.3A157 157 0 0 1 461 457l1.9-1.16c6.93-3.37 18.94-3.23 26.1-.84l-.44-5.75-.25-3.24c-.3-3-.3-3-.8-4.83-1.17-4.96-1.25-10.17-1.64-15.25l-.3-3.62-.27-3.47-.25-3.18C485 413 485 413 486 410q.06-2.31 0-4.63c-.05-4.87.35-9.55 1-14.37l.44-3.63c.6-3.56 1.57-6.9 2.56-10.37l.44-3.38c.68-4.43 2.07-8.4 3.56-12.62l1.37-4.13.75-2.23 2.04-6.19a247 247 0 0 1 19.1-43.39c2.52-4.59 4.7-9.24 6.74-14.06l1.54-3.53c4.71-10.83 4.71-10.83 5.46-14.47l-2.17-1.58a374 374 0 0 1-16.83-13.1l-1.64-1.34c-9.52-8-14.82-20.79-15.94-33.03-.6-7.2-.47-14.4-.38-21.64.03-4.83 0-9.56-.54-14.37-.87-8.49-.57-17.04-.5-25.57l.06-10.35.03-2.34c.02-4.62-.3-9.08-.87-13.66a59 59 0 0 1-.28-7.4l.02-2.79.08-5.66c.04-5.14-.18-10.09-.82-15.18-.3-2.65-.28-5.26-.22-7.93.11-4.84.11-4.84-1-7.06q-.07-3.03 0-6.07a98 98 0 0 0-.78-13.82c-.3-3-.24-5.97-.18-8.98-.04-2.13-.04-2.13-.67-5.82-.42-3.77.2-5.83 1.63-9.3l.68-2.45c3.5-6.8 8.94-10.28 15.9-13.03 7.7-1.69 16.68 3.85 22.98 7.78M690 665.01l1 2Zm-128 0-2 2h3z" fill="#141715"/><path d="M529.56 38.31c4.35 2.86 8.45 5.95 12.51 9.2A58 58 0 0 0 549 52q2.1 1.37 4.16 2.78 3.4 2.2 6.84 4.33a247 247 0 0 1 15.14 10.5c6.16 4.51 10.52 5.68 18.1 5.4l2.42-.08q3.9-.11 7.78-.25l5.36-.16c9.86-.3 19.72-.7 29.57-1.3 4.77-.25 9.42-.17 14.2.14l3.4.21q3.23.22 6.47.54c7.67.54 11.7-1.24 17.56-6.12l2.56-1.94 2-1.63c3.41-2.69 6.9-5.07 10.62-7.33q2.35-1.44 4.63-2.98c3.82-2.55 7.71-4.99 11.6-7.44 2.28-1.48 4.42-3.05 6.6-4.68q2.7-1.77 5.43-3.5l2.8-1.78c8.61-5.38 15.12-7.77 25.32-6.16 5.08 2.12 8.74 5.64 11.6 10.35 2.92 7.26 1.93 16.42 1.96 24.15l.02 2.53v4.51C765 74 765 74 764 77c-.07 3.5 0 6.96.06 10.45-.06 3.55-.06 3.55-.55 6.38-.92 5.7-.9 11.47-1.07 17.24l-.07 2.1c-.52 17.57-.45 35.13-.37 52.7.15 35.27.15 35.27-.38 50.95l-.09 3.16c-.22 5.34-.8 9.95-2.53 15.02l-.9 2.66c-2.05 5.36-4.14 9.18-8.1 13.34l-2.5 2.62A116 116 0 0 1 740 260l-2.25 2.31c-4.3 4.2-8.99 8.77-14.75 10.7 1.2 8.44 5 15.4 8.9 22.87q2.63 5.1 5.16 10.24 2.93 5.9 5.93 11.75l.96 1.88 2.6 5.06a65 65 0 0 1 3.45 10.2q.93 2.66 1.94 5.3a187 187 0 0 1 4.33 13.41c.73 2.28.73 2.28 2.35 5.9a24 24 0 0 1 1.94 7.5c.44 3.88.44 3.88 1.43 6.31a23 23 0 0 1 1.51 7.57c.31 4.26.85 8.41 1.56 12.62a69 69 0 0 1 .94 13.12c0 3.6.46 7.12.88 10.68.12 2.72-.33 4.92-.88 7.58-.03 2.76.06 5.51.16 8.28-.18 2.96-1 5.01-2.16 7.72v3h3v3l-4 1-1 8 2.44-.94c4.18-1.25 8.22-1.7 12.56-2.06q0-3.22-.03-6.45c.26-7.77 2.52-13 8.03-18.55a30 30 0 0 1 16.9-5.86c2.1-.14 2.1-.14 4.12-.66 4.27-.69 8.43-.46 12.75-.28l2.9.11 6.05.25 9.12.33c15.36.6 28.98 2.87 43.16 9.11l2.43.94c7.71 3.17 13.9 6.98 19.57 13.06l2.44 1.37c3.2 2.03 5.23 4.5 7.66 7.38 1.98 2.35 4.06 4.61 6.15 6.87A36 36 0 0 1 925 471q1.56 3.14 3.15 6.27c7.83 16.24 10.95 34.84 7.85 52.73l-.4 2.46c-1.92 10.42-5.04 19.5-10.6 28.54l-1.32 2.31a108 108 0 0 1-6 8.43c-2.45 3.3-4.7 6.72-6.97 10.16-1.83 2.24-3.14 2.9-5.7 4.1a76 76 0 0 0-3.7 3.7c-5.14 5.26-10.62 10.13-17.3 13.3l-3.15 1.62c-6.49 3.32-12.82 6.43-19.86 8.38l-2.78.77-5.7 1.53q-2.99.84-5.9 1.9c-2.7.83-4.8.87-7.62.8l-1.84.46c-8.2 2.04-17.07 1.7-25.48 1.66l-3.16.01c-4.97 0-9.64-.16-14.52-1.13q-4.2-.4-8.42-.72A46 46 0 0 1 779 617q-2.3-.32-4.63-.57l-2.35-.25c-3.83-.35-3.83-.35-7.02 2.32-3 2.5-3 2.5-5 2.5l-.69 1.74c-1.68 2.9-3.72 4.37-6.37 6.38-4.85 3.68-4.85 3.68-5.94 5.88l2 .56c5.4 2.6 10.46 6.45 12.87 12.06L763 651l1.18 2.5c1.35 4.13 1.25 7.9.13 12.06-4.07 7.56-4.07 7.56-8.98 9.48-14.3 3.63-31.38 3.91-45.33-1.04l-3.16-1.09q-3.94-1.4-7.84-2.9l1 1 1.81 2.3c2.2 2.7 2.2 2.7 4.2 4.5 6.02 6.6 7.35 14.37 7 23.2q-1 1.46-2 3h-3q.23-.97.5-1.95c1.4-8.68.37-14.6-4.5-22.06-4.58-5.97-10.2-9.03-17-12v-8a50 50 0 0 1 8.93 4.31c12.2 6.88 24.16 8.87 37.93 8.88l3.15.03c7.04.02 14.23-.07 20.48-3.66 3.53-3.68 2.76-8.85 2.71-13.62-.46-6.29-3.58-9.93-8.2-13.94-3.86-2.72-7.35-5.05-12-6v-2q2.77-2.02 5.67-3.88a99 99 0 0 0 15.91-13.22c3.13-3.05 5.1-4.42 9.41-4.9 2.68.25 2.68.25 5.6.77q1.64.29 3.32.56l3.58.6c38.73 5.94 78.34 1.8 110.72-21.57 19.2-14.42 33.8-37.5 37.78-61.36 1.55-27.94-2.14-50.6-20-73l-1.87-2.5C894.3 436.93 867.48 428 844 426c-3.6-.16-7.2-.2-10.8-.24l-3.06-.03q-3.18 0-6.35-.03-3.22 0-6.45-.06a984 984 0 0 0-9.4-.07l-2.87-.05c-7.76.02-15.06 1.47-20.7 7.1-2.33 5.73-2.19 10.91-.25 16.75 4.13 5.78 10.21 8 16.88 9.63 5.3.75 10.61 1.2 15.94 1.62l4.24.37q7.38.65 14.75 1.24a73 73 0 0 1 15.44 2.96l2.21.67c16.06 5.05 26.7 13.03 34.82 27.71 3.13 6.73 3.92 12.56 3.85 19.86l.02 2.45c-.04 13.56-5.24 26.08-14.27 36.12l-2.1 2.34c-9.13 9.67-19.29 14.03-31.9 17.66l-3.3.97c-13.76 3.53-29.97 3.71-43.7.03a57 57 0 0 1 3.32-9.54c10.38-24.83 16.68-59.45 6.58-85.28-4.69-10.14-10.7-15.59-20.9-20.18-9.54-3.02-18.88-.04-28 3 .48-4.6 1-9.18 1.75-13.75 3.61-22.83 4.53-47.6-.75-70.25l-.59-2.6c-5.67-24.82-14.98-47.73-26.4-70.4-.22-.4-.22-.4-1.26-2.49l-2.24-4.43c-9.5-18.89-9.5-18.89-8.5-25.08a40 40 0 0 1 6.24-4.69l3.86-2.6 1.97-1.35c11.85-8.45 19.63-18.39 23.92-32.36.1-.29.1-.29.53-1.74.62-2.99.62-5.84.66-8.89l.02-2 .07-6.59.05-4.66.11-9.9q.13-11.63.28-23.25l.1-7.7q.22-19.57.62-39.15l.05-2.66c.28-12.42.85-24.8 1.57-37.2a695 695 0 0 0 1.31-31.64l.08-3c.02-6.09-.86-9.66-4.45-14.62-4.87-3.96-9.35-4.95-15.6-4.67-13.72 2.71-26.59 14.41-37.8 22.14-7.7 5.3-15.47 10.46-23.25 15.61L677.47 73q-1.26.82-2.55 1.7C673 76 673 76 672 77q-3.93.36-7.85.55l-2.5.14c-7.74.41-15.48.68-23.23.92q-7.77.23-15.54.67c-29.2 1.72-47.6-1.47-70.32-20.4-5.36-4.43-11.2-8.16-17.04-11.95q-4.12-2.71-8.19-5.48C519.86 36.43 514.1 33.62 505 35c-5.1 2.03-8.77 4.87-11 10-1.36 4.57-1.17 9.04-1.15 13.77v2.95c.07 9.95.68 19.84 1.37 29.76A1257 1257 0 0 1 497 157l.05 3.31.13 7.27.12 7.65.31 18.98c.7 46.32.7 46.32 14.11 59.7L514 256l1.93 1.87c5.5 5.1 11.78 9.08 18.07 13.12-.56 5.51-1.95 10.04-4.13 15.12l-1.03 2.44c-3.08 7.1-6.67 13.92-10.29 20.76A269 269 0 0 0 501 350l-.79 2.25c-3.84 11.04-6.18 22.26-8.2 33.75l-.7 3.65c-2.93 17.82-2.1 36.58.7 54.35l1.11 9 .51 4.06.37 2.94c-.46-.1-.46-.1-2.75-.66-12.25-2.8-21.09-3.75-32.38 2.35-10.52 8.46-14.62 18.22-16.87 31.31-.43 5.17-.49 10.31-.44 15.5l.01 2.11c.31 40.87 18.05 76.2 46.7 104.68a135 135 0 0 0 20.05 15.87A30 30 0 0 1 514 636l-1.9.63c-7.95 2.86-14.33 6.75-18.6 14.24a20 20 0 0 0-.38 16c3.66 4.15 8.68 5.9 14.1 6.3 20.18.34 38.06-1.54 55.78-12.17h2v8l-1.98.92c-8.15 3.9-14.15 7.65-18.12 16.03-1.75 5.9-1.27 11.97-.9 18.05h-3c-2.55-3.82-2.66-6.6-2-11 2.55-9.42 7.48-15.87 15-22 2.31-1.28 2.31-1.28 4-2a140 140 0 0 0-13.54 5.2c-2.64.86-4.7.86-7.46.8l-3 1c-30.97 3.3-30.97 3.3-41.06-4.62-3.9-4.06-5.02-7.7-4.9-13.32.54-7.59 4.8-12.3 10.07-17.45 2.77-2.36 5.65-3.96 8.9-5.6-5.39-4.58-5.39-4.58-7.77-6.22-5.36-3.7-9.49-8.17-13.8-12.98a74 74 0 0 0-8.57-8.3c-10.92-9.13-18.69-22.9-24.87-35.5l-1.19-2.29a85 85 0 0 1-8.34-24.45C442 543 442 543 440.94 540c-1.12-3.57-1.4-6.97-1.73-10.69a67 67 0 0 0-1.2-7.3c-1.45-9.3-1.69-18.76 0-28l.24-3.14c2.21-11.4 7.78-23.22 17.12-30.3A157 157 0 0 1 461 457l1.9-1.16c6.93-3.37 18.94-3.23 26.1-.84l-.44-5.75-.25-3.24c-.3-3-.3-3-.8-4.83-1.17-4.96-1.25-10.17-1.64-15.25l-.3-3.62-.27-3.47-.25-3.18C485 413 485 413 486 410q.06-2.31 0-4.63c-.05-4.87.35-9.55 1-14.37l.44-3.63c.6-3.56 1.57-6.9 2.56-10.37l.44-3.38c.68-4.43 2.07-8.4 3.56-12.62l1.37-4.13.75-2.23 2.04-6.19a247 247 0 0 1 19.1-43.39c2.52-4.59 4.7-9.24 6.74-14.06l1.54-3.53c4.71-10.83 4.71-10.83 5.46-14.47l-2.17-1.58a374 374 0 0 1-16.83-13.1l-1.64-1.34c-9.52-8-14.82-20.79-15.94-33.03-.6-7.2-.47-14.4-.38-21.64.03-4.83 0-9.56-.54-14.37-.87-8.49-.57-17.04-.5-25.57l.06-10.35.03-2.34c.02-4.62-.3-9.08-.87-13.66a59 59 0 0 1-.28-7.4l.02-2.79.08-5.66c.04-5.14-.18-10.09-.82-15.18-.3-2.65-.28-5.26-.22-7.93.11-4.84.11-4.84-1-7.06q-.07-3.03 0-6.07a98 98 0 0 0-.78-13.82c-.3-3-.24-5.97-.18-8.98-.04-2.13-.04-2.13-.67-5.82-.42-3.77.2-5.83 1.63-9.3l.68-2.45c3.5-6.8 8.94-10.28 15.9-13.03 7.7-1.69 16.68 3.85 22.98 7.78M690 665.01l1 2Zm-128 0-2 2h3z" fill="#EBECEE"/><path d="M578 496h2a34 34 0 0 1 3 3.44c9.73 11.28 23.23 22.61 38.73 23.76 14.31.23 26.67-4.59 37.56-13.96C662 507 662 507 664 507l.81-1.77a32 32 0 0 1 4.19-5.98l1.56-1.86C672 496 672 496 674 496a28.5 28.5 0 0 1-3.94 11.69l-1.59 2.82q-1.66 2.79-3.47 5.49h-2l-.71 1.75c-3.91 6.83-13.16 12.22-20.29 15.25h-3l.18 2.01a609 609 0 0 1 2.13 54.37v3.92c-.07 57.21-.07 57.21-4.31 65.7h-22c-7.24-40.88-5.3-84.76-2-126l-2.61-1.11C596.6 525.57 585.04 516.37 579 502c-.67-3.35-.67-3.35-1-6" fill="#000"/><path d="M529.56 38.31c4.35 2.86 8.45 5.95 12.51 9.2A58 58 0 0 0 549 52q2.1 1.37 4.16 2.78 3.4 2.2 6.84 4.33a247 247 0 0 1 15.14 10.5c6.16 4.51 10.52 5.68 18.1 5.4l2.42-.08q3.9-.11 7.78-.25l5.36-.16c9.86-.3 19.72-.7 29.57-1.3 4.77-.25 9.42-.17 14.2.14l3.4.21q3.23.22 6.47.54c7.67.54 11.7-1.24 17.56-6.12l2.56-1.94 2-1.63c3.41-2.69 6.9-5.07 10.62-7.33q2.35-1.44 4.63-2.98c3.82-2.55 7.71-4.99 11.6-7.44 2.28-1.48 4.42-3.05 6.6-4.68q2.7-1.77 5.43-3.5l2.8-1.78c8.61-5.38 15.12-7.77 25.32-6.16 5.08 2.12 8.74 5.64 11.6 10.35 2.92 7.26 1.93 16.42 1.96 24.15l.02 2.53v4.51C765 74 765 74 764 77c-.07 3.5 0 6.96.06 10.45-.06 3.55-.06 3.55-.55 6.38-.92 5.7-.9 11.47-1.07 17.24l-.07 2.1c-.52 17.57-.45 35.13-.37 52.7.15 35.27.15 35.27-.38 50.95l-.09 3.16c-.22 5.34-.8 9.95-2.53 15.02l-.9 2.66c-2.05 5.36-4.14 9.18-8.1 13.34l-2.5 2.62A116 116 0 0 1 740 260l-2.25 2.31c-4.3 4.2-8.99 8.77-14.75 10.7 1.2 8.44 5 15.4 8.9 22.87q2.63 5.1 5.16 10.24 2.93 5.9 5.93 11.75l.96 1.88 2.6 5.06a65 65 0 0 1 3.45 10.2q.93 2.66 1.94 5.3a187 187 0 0 1 4.33 13.41c.73 2.28.73 2.28 2.35 5.9a24 24 0 0 1 1.94 7.5c.44 3.88.44 3.88 1.43 6.31a23 23 0 0 1 1.51 7.57c.31 4.26.85 8.41 1.56 12.62a69 69 0 0 1 .94 13.12c0 3.6.46 7.12.88 10.68.12 2.72-.33 4.92-.88 7.58-.03 2.76.06 5.51.16 8.28-.18 2.96-1 5.01-2.16 7.72v3h3v3l-4 1-.08 2.33-.17 3.04-.14 3.03-.6 2.6c-2.05 1.16-2.05 1.16-4 2 .47-4.6 1-9.18 1.74-13.75 3.61-22.83 4.53-47.6-.75-70.25l-.59-2.6c-5.67-24.82-14.98-47.73-26.4-70.4-.22-.4-.22-.4-1.26-2.49l-2.24-4.43c-9.5-18.89-9.5-18.89-8.5-25.08a40 40 0 0 1 6.24-4.69l3.86-2.6 1.97-1.35c11.85-8.45 19.63-18.39 23.92-32.36.1-.29.1-.29.53-1.74.62-2.99.62-5.84.66-8.89l.02-2 .07-6.59.05-4.66.11-9.9q.13-11.63.28-23.25l.1-7.7q.22-19.57.62-39.15l.05-2.66c.28-12.42.85-24.8 1.57-37.2a695 695 0 0 0 1.31-31.64l.08-3c.02-6.09-.86-9.66-4.45-14.62-4.87-3.96-9.35-4.95-15.6-4.67-13.72 2.71-26.59 14.41-37.8 22.14-7.7 5.3-15.47 10.46-23.25 15.61L677.47 73q-1.26.82-2.55 1.7C673 76 673 76 672 77q-3.93.36-7.85.55l-2.5.14c-7.74.41-15.48.68-23.23.92q-7.77.23-15.54.67c-29.2 1.72-47.6-1.47-70.32-20.4-5.36-4.43-11.2-8.16-17.04-11.95q-4.12-2.71-8.19-5.48C519.86 36.43 514.1 33.62 505 35c-5.1 2.03-8.77 4.87-11 10-1.36 4.57-1.17 9.04-1.15 13.77v2.95c.07 9.95.68 19.84 1.37 29.76A1257 1257 0 0 1 497 157l.05 3.31.13 7.27.12 7.65.31 18.98c.7 46.32.7 46.32 14.11 59.7L514 256l1.93 1.87c5.5 5.1 11.78 9.08 18.07 13.12-.56 5.51-1.95 10.04-4.13 15.12l-1.03 2.44c-3.08 7.1-6.67 13.92-10.29 20.76A269 269 0 0 0 501 350l-.79 2.25c-3.84 11.04-6.18 22.26-8.2 33.75l-.7 3.65c-2.93 17.82-2.1 36.58.7 54.35l1.11 9 .51 4.06.37 2.94c-.46-.1-.46-.1-2.75-.66-12.25-2.8-21.09-3.75-32.38 2.35-10.52 8.46-14.62 18.22-16.87 31.31-.43 5.17-.49 10.31-.44 15.5l.01 2.11c.31 40.87 18.05 76.2 46.7 104.68a135 135 0 0 0 20.05 15.87A30 30 0 0 1 514 636l-1.9.63c-7.95 2.86-14.33 6.75-18.6 14.24a20 20 0 0 0-.38 16c3.66 4.15 8.68 5.9 14.1 6.3 20.18.34 38.06-1.54 55.78-12.17h2v8l-1.98.92c-8.15 3.9-14.15 7.65-18.12 16.03-1.75 5.9-1.27 11.97-.9 18.05h-3c-2.55-3.82-2.66-6.6-2-11 2.55-9.42 7.48-15.87 15-22 2.31-1.28 2.31-1.28 4-2a140 140 0 0 0-13.54 5.2c-2.64.86-4.7.86-7.46.8l-3 1c-30.97 3.3-30.97 3.3-41.06-4.62-3.9-4.06-5.02-7.7-4.9-13.32.54-7.59 4.8-12.3 10.07-17.45 2.77-2.36 5.65-3.96 8.9-5.6-5.39-4.58-5.39-4.58-7.77-6.22-5.36-3.7-9.49-8.17-13.8-12.98a74 74 0 0 0-8.57-8.3c-10.92-9.13-18.69-22.9-24.87-35.5l-1.19-2.29a85 85 0 0 1-8.34-24.45C442 543 442 543 440.94 540c-1.12-3.57-1.4-6.97-1.73-10.69a67 67 0 0 0-1.2-7.3c-1.45-9.3-1.69-18.76 0-28l.24-3.14c2.21-11.4 7.78-23.22 17.12-30.3A157 157 0 0 1 461 457l1.9-1.16c6.93-3.37 18.94-3.23 26.1-.84l-.44-5.75-.25-3.24c-.3-3-.3-3-.8-4.83-1.17-4.96-1.25-10.17-1.64-15.25l-.3-3.62-.27-3.47-.25-3.18C485 413 485 413 486 410q.06-2.31 0-4.63c-.05-4.87.35-9.55 1-14.37l.44-3.63c.6-3.56 1.57-6.9 2.56-10.37l.44-3.38c.68-4.43 2.07-8.4 3.56-12.62l1.37-4.13.75-2.23 2.04-6.19a247 247 0 0 1 19.1-43.39c2.52-4.59 4.7-9.24 6.74-14.06l1.54-3.53c4.71-10.83 4.71-10.83 5.46-14.47l-2.17-1.58a374 374 0 0 1-16.83-13.1l-1.64-1.34c-9.52-8-14.82-20.79-15.94-33.03-.6-7.2-.47-14.4-.38-21.64.03-4.83 0-9.56-.54-14.37-.87-8.49-.57-17.04-.5-25.57l.06-10.35.03-2.34c.02-4.62-.3-9.08-.87-13.66a59 59 0 0 1-.28-7.4l.02-2.79.08-5.66c.04-5.14-.18-10.09-.82-15.18-.3-2.65-.28-5.26-.22-7.93.11-4.84.11-4.84-1-7.06q-.07-3.03 0-6.07a98 98 0 0 0-.78-13.82c-.3-3-.24-5.97-.18-8.98-.04-2.13-.04-2.13-.67-5.82-.42-3.77.2-5.83 1.63-9.3l.68-2.45c3.5-6.8 8.94-10.28 15.9-13.03 7.7-1.69 16.68 3.85 22.98 7.78M562 665.01l-2 2h3z" fill="#E5E7E6"/><path d="M828 422c18.64.25 34.77 1.42 52 9l2.43.95c7.72 3.16 13.9 6.97 19.57 13.05l2.44 1.38c3.19 2.02 5.24 4.49 7.66 7.37 1.99 2.35 4.06 4.61 6.15 6.87A36 36 0 0 1 925 471q1.56 3.14 3.15 6.27c7.83 16.24 10.95 34.84 7.85 52.73l-.41 2.46c-1.91 10.43-5.02 19.49-10.59 28.54l-1.31 2.31c-1.85 2.95-3.9 5.67-6.01 8.43-2.45 3.3-4.71 6.73-6.97 10.16-1.82 2.24-3.14 2.9-5.71 4.1a76 76 0 0 0-3.69 3.69c-5.13 5.27-10.62 10.14-17.31 13.31l-3.14 1.62c-6.48 3.32-12.81 6.43-19.86 8.38l-2.78.77q-2.85.78-5.71 1.53-2.97.84-5.89 1.89c-2.71.84-4.8.88-7.62.81l-1.84.46c-8.21 2.05-17.07 1.7-25.47 1.66l-3.17.02c-4.97-.01-9.63-.16-14.52-1.14q-4.2-.4-8.41-.72A45 45 0 0 1 779 617q-2.31-.32-4.62-.56l-2.36-.26c-3.82-.34-3.82-.34-7.02 2.32-3 2.5-3 2.5-5 2.5l-.68 1.74c-1.69 2.89-3.73 4.37-6.38 6.38-4.84 3.69-4.84 3.69-5.94 5.88l2 .56c5.4 2.59 10.47 6.45 12.88 12.06L763 651l1.19 2.5c1.34 4.13 1.24 7.89.12 12.06-4.07 7.56-4.07 7.56-8.98 9.49-14.3 3.62-31.38 3.9-45.33-1.05l-3.16-1.09q-3.94-1.4-7.84-2.91l1 1 1.81 2.31C704 676 704 676 706 677.81c6.04 6.61 7.36 14.38 7 23.19l-2 3h-3l.5-1.94c1.42-8.67.38-14.6-4.5-22.06-4.57-5.97-10.2-9.03-17-12v-8a50 50 0 0 1 8.94 4.31c12.19 6.89 24.16 8.87 37.94 8.88l3.14.03c7.05.02 14.23-.06 20.48-3.66 3.53-3.68 2.77-8.85 2.71-13.61-.45-6.3-3.58-9.94-8.21-13.95-3.85-2.72-7.33-5.04-12-6v-2q2.78-2.01 5.69-3.88a100 100 0 0 0 15.91-13.22c3.12-3.05 5.08-4.41 9.4-4.9 2.68.25 2.68.25 5.59.78l3.33.56 3.58.6c38.74 5.94 78.34 1.8 110.72-21.57 19.2-14.43 33.8-37.51 37.78-61.37 1.56-27.94-2.13-50.59-20-73l-1.87-2.5c-15.88-18.62-42.61-27.4-66.13-29.5a310 310 0 0 0-12.28-.38l-8.28-.18-5.66-.13L804 425v-1h24zM690 665l1 2Z" fill="#E5E5E7"/><path d="M739 469c1.24 3.72.77 6.79.33 10.61l-.25 2.29-.55 4.83-.8 7.21a363 363 0 0 1-7.17 41.25l-.64 2.82c-2.25 9.67-5 18.85-8.92 27.99a463 463 0 0 0-2.94 9.62 217 217 0 0 1-5.52 15.06 163 163 0 0 0-7.67 25.43c-.72 3.19-1.52 6.31-2.43 9.45a140 140 0 0 0-5.13 31.87C697 660 697 660 695 663c-2.59-.35-4.52-.65-6.66-2.19-2.81-3.8-1.36-9-.74-13.44 4.69-27.55 14.73-54.78 24.22-80.96a445 445 0 0 0 11.49-35.92 462 462 0 0 1 2.17-7.5 497 497 0 0 0 12.08-51.16C738 470 738 470 739 469" fill="#010201"/><path d="M513 472c2.65 2.65 2.74 4.66 3.48 8.32l.83 3.96.43 2.11c6.32 30.67 16.06 60.13 26.42 89.64 22.39 63.89 22.39 63.89 20.84 83.97-2.31 2.44-2.31 2.44-5 4h-3l-.26-3.79c-1.5-19.34-5.53-37.84-11.74-56.21l-1.18-3.64a582 582 0 0 0-8.37-23.64 172 172 0 0 1-4.75-14.42c-.61-2.02-1.35-4-2.1-5.98-10.02-26.48-14.2-56.18-15.6-84.32" fill="#000101"/><path d="M767 612q3.83.32 7.62.81l2.07.25q5.32.65 10.63 1.44c9.73 1.42 19.3 1.92 29.12 2.12l4.56.12 11 .26v2c-6.52 1.18-12.95 1.15-19.56 1.12l-3.37.02-3.26-.01h-2.95A66 66 0 0 1 794 619q-4.2-.4-8.41-.72A45 45 0 0 1 779 617q-2.31-.32-4.62-.56l-2.36-.26c-3.82-.34-3.82-.34-7.02 2.32-3 2.5-3 2.5-5 2.5l-.68 1.74c-1.69 2.89-3.73 4.37-6.38 6.38-4.84 3.69-4.84 3.69-5.94 5.88l2 .56c5.4 2.59 10.47 6.45 12.88 12.06L763 651l1.19 2.5c1.34 4.13 1.24 7.89.12 12.06-4.07 7.56-4.07 7.56-8.98 9.49-14.3 3.62-31.38 3.9-45.33-1.05l-3.16-1.09q-3.94-1.4-7.84-2.91l1 1 1.81 2.31C704 676 704 676 706 677.81c6.04 6.61 7.36 14.38 7 23.19l-2 3h-3l.5-1.94c1.42-8.67.38-14.6-4.5-22.06-4.57-5.97-10.2-9.03-17-12v-8a50 50 0 0 1 8.94 4.31c12.19 6.89 24.16 8.87 37.94 8.88l3.14.03c7.05.02 14.23-.06 20.48-3.66 3.53-3.68 2.77-8.85 2.71-13.61-.45-6.3-3.58-9.94-8.21-13.95-3.85-2.72-7.33-5.04-12-6v-2q2.78-2.01 5.69-3.88c7.85-5.21 14.65-11.46 21.31-18.12m-77 53 1 2Z" fill="#E1E3E1"/><path d="M488 409h1l.14 2.59c1.6 29.72 1.6 29.72 4.27 41.61.59 2.8.59 2.8.59 6.8l-2.75-.66c-12.25-2.8-21.09-3.75-32.37 2.35-10.53 8.46-14.63 18.22-16.88 31.31-.42 5.17-.49 10.32-.44 15.5l.01 2.11c.12 17.15 2.75 32.52 9.23 48.44 2.29 5.67 2.29 5.67 1.2 8.95-4.8-3.64-5.53-8.46-7-14l-1.06-3.06a96 96 0 0 1-2.43-9.7 95 95 0 0 0-1.63-5.99A26 26 0 0 1 439 527l-1-5c-1.44-9.28-1.68-18.75 0-28l.25-3.12c2.21-11.41 7.78-23.23 17.13-30.32q2.77-1.83 5.62-3.56l1.89-1.16c6.95-3.36 18.96-3.22 26.11-.84l-.44-5.75-.24-3.23c-.32-3.02-.32-3.02-.85-5.09-2.41-9.83-.1-21.88.53-31.93" fill="#DDDFE0"/><path d="M634.56 209.38c4.28 2.84 4.28 2.84 5 6.3-.74 4.35-2.69 5.63-5.87 8.5-2.56 2.75-3.03 5.19-3.69 8.81-6.4 1.33-6.4 1.33-8.94-.06-1.48-2.7-1.26-4.9-1.06-7.94l-2.32-.74c-3.03-1.41-4.13-2.3-5.68-5.25-.5-3-.5-3 0-6 6.11-6.12 14.7-6.66 22.56-3.62" fill="#626464"/><path d="M796 573c2.69.18 5.33.62 8 1l-2 1v3h-2l-.28 2.03c-.91 3.77-2.49 7.08-4.22 10.53l-1.05 2.12c-3.02 5.86-6.63 10.94-10.76 16.06C782 611 782 611 782 613l-3.18-.07-4.13-.05-2.09-.06c-3.77-.03-5.38.04-8.6 2.18 1.04-2.74 1.69-3.83 4.29-5.29 3.21-2.03 5.1-4.3 7.46-7.27l2.36-2.94C780 597 780 597 781 595h2l.79-2.16a53 53 0 0 1 4.65-8.34c1.78-2.74 3.54-5.47 5.22-8.28C795 574 795 574 796 573" fill="#010202"/><path d="M767 612q3.83.32 7.62.81l2.07.25q5.32.65 10.63 1.44c9.73 1.42 19.3 1.92 29.12 2.12l4.56.12 11 .26v2c-6.52 1.18-12.95 1.15-19.56 1.12l-3.37.02-3.26-.01h-2.95A66 66 0 0 1 794 619q-4.2-.4-8.41-.72A45 45 0 0 1 779 617q-2.31-.32-4.62-.56l-2.36-.26c-3.82-.34-3.82-.34-7.02 2.32-3 2.5-3 2.5-5 2.5l-.68 1.74c-1.69 2.89-3.73 4.37-6.38 6.38-4.84 3.69-4.84 3.69-5.94 5.88l2 .56c5.4 2.59 10.47 6.45 12.88 12.06L763 651l1.25 2.69c.84 2.6.82 3.81-.25 6.31l-2 1-.73-2.67-1.02-3.52-.98-3.48c-2.13-5.59-5.15-8.62-10.27-11.58l-2.56-1.52A23 23 0 0 0 740 636v-2q2.78-2.01 5.69-3.88c7.85-5.21 14.65-11.46 21.31-18.12" fill="#E7E9E9"/><path d="M762 81c2.05 3.35 2.12 5.48 1.66 9.35a296 296 0 0 0-1.23 21.06l-.06 2.06a988 988 0 0 0-.39 36.34q.04 10.7.12 21.4c.23 34.43.23 34.43-2.1 48.79h-1l-.05-43.27-.03-20.09-.01-19.44-.02-7.37c-.07-35.12-.07-35.12 2.11-47.83z" fill="#DFE1DE"/><path d="M616 660h20l-.11 6.03-.05 5.87-.1 6c-.08 10.27 1.1 17.81 7.26 26.1h-6a107 107 0 0 1-5-20l-1-1c-.24-6.53-.24-6.53 1-9q.52-3.5 1-7l1-4h-15l.48 3.91c.54 4.87.74 9.69.77 14.59l.06 2.39c.05 6.83-.96 13.36-5.5 18.67L613 704l-3-1 1.4-1.7c5.63-8.09 4.98-18.57 4.79-27.99l-.04-3.89z" fill="#F0F0F2"/><path d="M758 152h1l1 56h1q.08 4.78.12 9.56l.06 2.72c.03 5.29-.41 9.67-2.18 14.72l-.89 2.66c-2.05 5.36-4.15 9.18-8.11 13.34l-2.5 2.62c-2.4 2.29-4.91 4.31-7.5 6.38l-2.25 2.31c-4.3 4.2-8.99 8.77-14.75 10.69l1 9-2 1c-1.81-3.85-2.62-6.76-2-11a40 40 0 0 1 6.25-4.69l3.86-2.6 1.97-1.34c11.86-8.46 19.63-18.4 23.92-32.37l.53-1.7c.65-3.2.65-6.38.68-9.64l.03-2.22.08-7.24.06-5.02.15-13.22.16-13.5z" fill="#E5E5E7"/><path d="M505 330h1c-.52 6.77-1.96 12.5-4.25 18.88-8.7 25.41-13.02 51.22-13.75 78.12-2.15-3.23-2.38-4.72-2.69-8.5l-.26-2.91C485 413 485 413 486 410q.06-2.31 0-4.62c-.05-4.88.35-9.56 1-14.38l.44-3.62c.59-3.57 1.57-6.91 2.56-10.38l.44-3.38c.69-4.43 2.07-8.4 3.56-12.62l1.38-4.12.74-2.22 2.08-6.32 1.3-3.96 1.22-3.73c1.28-3.64 2.72-7.12 4.28-10.65" fill="#E5E7E8"/><path d="M601 199c.73 2.16.73 2.16 1 4-4.16-1.6-8-3.55-11.91-5.68-8.51-3.63-16.52-4.79-25.71-4.63l-2.95-.01c-8.17.06-15.51.71-22.43 5.32h-2c1.48-3.89 3.26-5.25 7-7a75 75 0 0 1 9-2l2.24-.41c14.07-2.04 34.64 1.12 45.76 10.41" fill="#030404"/><path d="m692 188 3.59.06c9.55.35 9.55.35 12.72 3.5L710 194c-3.32 0-5.74-.31-8.94-1-14.74-2.71-29.67-.79-43.06 6q-2.02.89-4.06 1.75L651 202c.36-2.62.73-3.76 2.72-5.56 11.91-7.32 24.51-9.2 38.28-8.44" fill="#030503"/><path d="M440 498h1l.03 2.15c.34 20.68 1.91 39.62 9.77 58.9 2.29 5.67 2.29 5.67 1.2 8.95-4.8-3.64-5.53-8.46-7-14l-1.06-3.06a96 96 0 0 1-2.43-9.7 95 95 0 0 0-1.63-5.99A26 26 0 0 1 439 527l-.56-2.69C438 522 438 522 439 520q.22-2.5.32-5.01l.37-9.27z" fill="#DDDEDF"/><path d="m695 58 2 2-2.19 1.45-8.01 5.33-3.47 2.31-4.98 3.31-3.03 2.02C673 76 673 76 672 77q-3.82.14-7.64.11h-2.42l-7.98-.01-5.51-.01-14.53-.02-14.82-.02L590 77v-1h2.89q13.52.01 27.05-.08 6.96-.05 13.9-.04 6.73 0 13.45-.06h5.1c13.09.07 21.73-2.19 31.92-11.01 3.45-2.87 6.56-5.07 10.69-6.81" fill="#D3D4D6"/><path d="M828 422c36.69.49 36.69.49 48 9l1 2-1.95-.55c-13.62-3.79-26.54-6.48-40.68-6.77l-2.65-.06-8.28-.18-5.66-.13L804 425v-1h24z" fill="#D1D2D4"/><path d="M760 148h1l.57 19.26c1.01 33.14 1.01 33.14-.57 44.86l-.29 2.36L760 220h-1l-.05-27.72-.03-12.87-.01-12.41-.02-4.75v-6.62l-.01-3.81C759 149 759 149 760 148" fill="#F1F2F1"/><path d="m656.13 73.44 3.5.16q4.2.19 8.38.4v2l-84 1 1-2 3.28-.07 12.38-.3 5.3-.12c9.16-.22 18.3-.5 27.43-1.07 7.62-.47 15.12-.4 22.73 0" fill="#F0F2F3"/><path d="M495 162h1c.86 21.68 1.13 43.31 1 65-1.48-1.08-1.48-1.08-3-3-.32-3.01-.32-3.01-.26-6.69l.02-1.99q.04-3.16.12-6.32l.11-8.25.03-2.02c.04-4.87-.25-9.64-.79-14.48-.32-3.1-.3-6.14-.23-9.25h2z" fill="#EDF0EF"/><path d="M925 472c4.41 4.41 5.95 12.16 8 18l1.02 2.84c2.81 8.8 4.99 22.18 1.98 31.16l-2 2-.12-2.15c-1.89-32.15-1.89-32.15-9.24-46.02-.8-2.29-.42-3.57.36-5.83" fill="#E1E0E3"/><path d="M488 409h1l.14 2.59c1.6 29.72 1.6 29.72 4.27 41.61.59 2.8.59 2.8.59 6.8l-9-2 2.01-1.13c1.99-1.87 1.99-1.87 2.2-4.65l-.4-3.16-.35-3.15c-.46-2.91-.46-2.91-1-4.97-2.33-9.89-.09-21.84.54-31.94" fill="#DBDDDE"/><path d="m742.69 31.44 3 .3 2.3.26v1l-1.61-.1c-14.74.22-28.9 12.96-40.48 20.87l-3.01 2.05q-1.35.9-2.71 1.86C698 59 698 59 696 59c1.49-3.91 3.44-4.96 7-7q2.8-1.73 5.57-3.5l2.8-1.78A87 87 0 0 0 716 43.5c2.4-1.8 4.9-3.4 7.44-5l2.8-1.78c9.63-6 9.63-6 16.45-5.28" fill="#E8E9EB"/><path d="M497 214h1l.01 2.94c.34 15.94 4.47 27.75 15.99 39.06l2 3c-4.08 0-5.36-1.65-8.3-4.3-6.62-6.62-10.89-16.59-12.7-25.7l1-2q.34-3.3.56-6.62l.26-3.61z" fill="#E1E1E3"/><path d="M495 120h1q1.2 36.5 1 73h-1l-.15-3.8-.23-4.95-.09-2.5-.12-2.42-.09-2.22c-.32-2.11-.32-2.11-1.34-3.92-1.19-2.65-1.15-4.43-1.02-7.33l.12-3.09.16-3.32.15-3.41q.23-5.4.49-10.79l.31-7.32z" fill="#C1C3C3"/><path d="M758 152h1l1 56h1q.13 4.93.19 9.88l.07 2.83.03 2.72.05 2.51L761 228l-3 2z" fill="#B8BAB9"/><path d="M762 429h1v7l2 1-1 7h3v3l-4 1-.08 2.34-.17 3.04-.14 3.02-.61 2.6c-2.04 1.16-2.04 1.16-4 2 .76-7.03 1.64-14.05 2.56-21.06l.42-3.2z" fill="#E5E7E8"/><path d="m552 673 3 1-2.69 1.88c-4.25 3.63-6.72 7.76-8.31 13.12-.39 5.05-.3 9.94 0 15h-3c-2.54-3.81-2.67-6.6-2-11 2.45-8.49 6.27-14.32 13-20" fill="#E7E6EB"/><path d="M440 498h1l.04 2.21c.32 14.18.85 27.92 3.96 41.79-3-1-3-1-4.15-2.75a24 24 0 0 1-1.41-7.19c-.23-2.77-.5-5.34-1.06-8.06-.38-2-.38-2 .62-4q.22-2.5.32-5.01l.37-9.27z" fill="#D8DBD8"/><path d="M933 508h1l.18 3.76.26 4.93.12 2.47c.17 3.31.36 6.46 1.03 9.71.64 3.31-.59 5.96-1.59 9.13l-.44 3.12A17.5 17.5 0 0 1 930 549l-3 1 .59-2.12.79-2.88.77-2.81.85-3.19 1.06-3.62c1.34-5.4 1.4-10.85 1.56-16.38l.12-3.21z" fill="#E1E5E5"/><path d="M795 617h37v2c-6.54 1.18-13 1.18-19.62 1.19l-3.4.03-3.27.01-2.96.01A22 22 0 0 1 795 618z" fill="#EEF0F1"/><path d="m807.22 420.98 2.9.14 3.14.15 3.3.17 3.31.16 8.13.4v2l-2.02.08c-24.35.93-24.35.93-33.98 1.92 1.68-2.03 2.6-2.91 5.22-3.47l2.4-.15c2.96-.2 4.9-1.37 7.6-1.4" fill="#F0F1F5"/><path d="M875 430c10.77 1.85 20.51 7.23 27 16-4-.65-6.87-2.66-10.25-4.81a105 105 0 0 0-11.44-6.5C877 433 877 433 875 430" fill="#E6E6E8"/><path d="M617 676h1c3.09 16.9 3.09 16.9-1 24-2.19 2.56-2.19 2.56-4 4l-3-1 1.4-1.69c4.95-7.14 5.17-16.9 5.6-25.31" fill="#E3E5EA"/><path d="M764 405c1.83 3.17 2.38 5.81 2.69 9.44l.26 2.81c.05 2.77-.39 5.05-.95 7.75q-.1 2.91-.06 5.81l.02 2.96.04 2.23h-3c-.12-10.39.17-20.64 1-31" fill="#F2F5F3"/><path d="M810 488h1c1.18 6.48 1.11 12.86 1.06 19.44l-.01 3.37L812 519h-1q-.85-5.5-1.62-11l-.49-3.12c-.88-6.26-.9-10.87 1.11-16.88" fill="#242724"/><path d="M494 120h1v31h-1c-2.26-9.72-4.46-21.69 0-31" fill="#EFF0F0"/><path d="M488 396h1c.16 10.37-.35 20.65-1 31-2.15-3.23-2.38-4.72-2.69-8.5l-.26-2.91C485 413 485 413 486 410c.03-2.52-.07-5.01-.16-7.53.17-2.65.82-4.2 2.16-6.47" fill="#EFF2F4"/><path d="M753 641c3.25.27 4.72.74 7.12 3 2.63 4.2 5.27 9.14 4.58 14.21C764 660 764 660 762 661l-.7-2.6c-1.93-6.75-3.78-12-8.3-17.4" fill="#EEEEF0"/><path d="M440 492h1l-1 28c-3.26-4.34-3.47-6.62-3.38-11.75l.02-2.16c.13-5.34.99-9.35 3.36-14.09" fill="#EEF0F0"/><path d="M706 681c3 1 3 1 4.62 3.25 1.99 5.43 2.54 10.98 2.38 16.75l-2 3h-3l.5-1.94c1.26-7.7.38-13.82-2.5-21.06" fill="#ECEFEE"/><path d="M762 396h1v33l-3-1c-.45-10.72.89-21.35 2-32" fill="#2A2C2A"/><path d="M550 670v2c-8.07 3.28-8.07 3.28-13 3l-3 1q-3.53-.9-7-2v-1l10.38-1.5 2.98-.43 2.85-.41 2.64-.38C548 670 548 670 550 670" fill="#ECECED"/><path d="M532 40v1c-4.56-.29-7.46-1.11-11.38-3.5-4.6-2.75-8.3-3.25-13.62-3.5v-1c9.62-2.06 17.29 1.36 25 7" fill="#E5E8E5"/><path d="M493 45c3.46 6 3.02 11.41 2 18h-1l-1 8h-1q-.05-5.37-.06-10.75l-.03-3.08-.01-2.97-.01-2.73c.1-2.3.46-4.26 1.11-6.47" fill="#272428"/><path d="M505 674h26v2l-23 1v-2z" fill="#ECEEED"/><path d="m485 457 1 3-3.43-.04-4.45-.02-2.26-.03c-5.63-.02-5.63-.02-7.86 1.09v-3l-2-1a38.4 38.4 0 0 1 19 0" fill="#242626"/><path d="M515 259c4.37 1.48 7.55 3.75 11.19 6.56 5.66 4.36 5.66 4.36 7.81 5.44v4c-3.1-1.03-4.09-2.1-6.26-4.4-3.22-2.97-6.91-5.34-10.51-7.83L515 261z" fill="#DDE0DE"/><path d="m493 650 3 1-1 3a81 81 0 0 0-.12 4.94l-.01 2.59c.12 2.3.49 4.27 1.13 6.47-1.94-.31-1.94-.31-4-1a23.5 23.5 0 0 1 0-15.06z" fill="#222325"/><path d="M857 425c14.03 1.58 14.03 1.58 19 6l1 2a267 267 0 0 1-20-6z" fill="#D9D9DE"/><path d="m742.75 31.44 2.98.3L748 32v1h-1.77c-7.76.38-13.52 3.23-20.23 7v-3c1.39-1.35 1.39-1.35 3.25-2.62l1.83-1.3c3.99-2.25 7.17-2.12 11.67-1.64" fill="#E3E3E5"/><path d="M934 505c2.9 2.9 2.71 6.09 3 10l.16 2.2c.09 2.11.09 2.11-.16 5.8l-3 3z" fill="#F1F1F3"/><path d="M491 444h1l2 16-9-2 1.92-1.14c2.69-2.41 2.83-4.02 3.33-7.55l.45-3.01z" fill="#D0D3D2"/><path d="M635 689c2 3 2 3 3.44 6.38A60 60 0 0 0 643 704h-6l-2-6-.69-2.06c-.4-2.5.08-4.5.69-6.94" fill="#E5E7E8"/><path d="M473 600c11.83 9.66 11.83 9.66 15 16-4.12-1.66-7.07-4.62-10.25-7.62l-1.68-1.57L472 603z" fill="#EAEBEC"/><path d="M793.18 425.94 795 427l-1.87.7c-6.55 2.64-6.55 2.64-9.13 5.55-1.32 3.61-1.68 6.92-2 10.75h-1c-.87-3.8-1.68-7.35-.17-11.05 2.73-4.06 7.1-9.28 12.35-7" fill="#D9DCDE"/><path d="M694 669c5.04 1.26 7.01 2.81 10 7q1.96 2.03 4 4l-3 2-1.36-1.61c-3.31-3.87-6.5-7.38-10.64-10.39z" fill="#DCDCE0"/><path d="m491 664 1.62 2.31c3.42 3.87 7.34 5.72 12.38 6.69v2l3 1c-6.57-.57-11.15-1.74-16.44-5.94-1.56-2.06-1.56-2.06-1.31-4.31z" fill="#E5E8E8"/><path d="m514 635-1.72.85c-5.8 2.92-11.36 5.86-16.28 10.15.38-2.59.77-3.78 2.67-5.63 10.15-7.29 10.15-7.29 15.33-5.37" fill="#D9D9DC"/><path d="m512 315 3 1-3.38 7.31-.96 2.09A62 62 0 0 1 506 334c-1.35-5.29-1.35-5.29.19-8.38L508 323q1.13-2.15 2.19-4.31l1.04-2.12z" fill="#E2E5E7"/><path d="M440 498h1v30l-3-2 .46-2.29c.73-5.02.9-10.02 1.1-15.09l.13-3.09z" fill="#BEC1BD"/><path d="M763 392c2 2.99 2.58 4.5 3 8l-.45 2.18c-.69 3.53-.9 7.05-1.11 10.63l-.13 2.1L764 420h-1z" fill="#E3E6E3"/><path d="m756 356 2 1c.6 1.93.6 1.93 1.06 4.31l.48 2.37.46 2.32 1 4h-3c-3.63-9.41-3.63-9.41-2-14" fill="#F0F2F3"/><path d="m887 594 2 3-12 7-3-2 2-2h4a83 83 0 0 0 3-4c2.19-1.25 2.19-1.25 4-2" fill="#191A1A"/><path d="M760 443h1q.3 2.84.56 5.69l.32 3.2c.11 2.92-.17 5.28-.88 8.11l-3 1z" fill="#CBCDCE"/><path d="M931 490h2c2.24 6.66 3.8 11.37 1 18h-1l-1-6.19-.56-3.48A51 51 0 0 1 931 490" fill="#E4E5E7"/><path d="M474.48 453.8q2.07.02 4.15.07l2.14.03q2.62.03 5.23.1l1 3-18-1c2-2 2-2 5.48-2.2" fill="#E6E9E9"/><path d="M489 401h1l1 9h1l1 18h-2l-.18-2.59-.26-3.35-.24-3.34C490 416 490 416 489 415q-.1-3.53-.06-7.06l.02-3.91z" fill="#26292A"/><path d="M565 64c7.75 2.81 14.48 7.93 20 14-4.03-.35-5.72-1.51-8.4-4.46-2.88-2.77-6.28-4.86-9.59-7.09L565 65z" fill="#E8E9E9"/><path d="M491 44h1l-1 17c-2.84-2.84-2.74-5.04-3-9a40 40 0 0 1 3-8" fill="#F2EEF2"/><path d="M901 446c4.65.45 6.37 2.02 9.31 5.56l2.12 2.51L914 456l-2 2-1.56-2.12a59 59 0 0 0-8.05-7.65L901 447z" fill="#DBDADD"/><path d="M744 331h2q1.3 3.38 2.56 6.75l.75 1.92c1.27 3.44 2.16 5.85.69 9.33-2.12-3.53-2.53-6.94-3-11h-2z" fill="#1D211D"/><path d="M762 81c2.26 3.56 2.07 6.13 1.62 10.25l-.33 3.27L763 97c-2-2-2-2-2.23-5l.04-3.56.02-3.57C761 82 761 82 762 81" fill="#F0F2F1"/><path d="m556 672 2 1c-1.38 3.34-2.82 5.22-6 7l-4-1z" fill="#2A2833"/><path d="M892 437c4.18 2.56 7.13 5.02 10 9-3.22-.63-5.51-1.78-8.25-3.56l-2.14-1.38L890 440l2-1z" fill="#E2E1E5"/><path d="m490 392 3 2c.36 2.97.36 2.97.31 6.5l-.01 3.53C493 407 493 407 491 409z" fill="#1E2223"/><path d="M933 508h1l.18 3.76.26 4.93.12 2.47c.21 4.04.48 7.9 1.44 11.84l-3 1z" fill="#C5C7C8"/><path d="M749 674v2c-4.25 1.1-7.96.93-12.31.56L730 676v-1c6.38-.82 12.57-1.12 19-1" fill="#EEF1EE"/><path d="m563 664 2 1v4q-2.15 1.05-4.31 2.06l-2.43 1.16C556 673 556 673 553 672l1.68-.99 2.2-1.32 2.17-1.3C561 667 561 667 563 664" fill="#EEEDF1"/><path d="M841 615v2c-3 2-3 2-5.48 1.76l-2.71-.64-2.73-.61L828 617v-1a60 60 0 0 1 13-1" fill="#D6D8D9"/><path d="M497 214h1q.34 4.68.62 9.38l.2 2.69.16 2.58.16 2.38C499 233 499 233 497 235q-1.09-2.97-2-6l1-2q.34-3.3.56-6.62l.26-3.61z" fill="#C5C7C6"/><path d="M740 30c5.22-.18 9.07.03 14 2v2l-2.5-.44A297 297 0 0 0 740 32z" fill="#EDEFEF"/><path d="m617 695 1 3c-1.4 2.26-3.2 4.02-5 6l-3-1 1.44-1.81C613 699 613 699 614 696z" fill="#E7EAE9"/><path d="M790 456q3.53.9 7 2l1 2h-3l-1 2-6-3 2-1z" fill="#E0E0E2"/><path d="M506 251c3.6.56 5 1.75 7.25 4.56l1.58 1.94L516 259c-3.54 0-4.1-.61-6.69-2.88l-1.88-1.61C506 253 506 253 506 251" fill="#D6D8D7"/><path d="m713 48 3 2-5 2v2l-6 2-1-2z" fill="#1E1F1F"/><path d="M522 35v2l-2.44-.94c-4.18-1.25-8.22-1.69-12.56-2.06v-1c5.76-1.23 10-1.33 15 2" fill="#CDD0CF"/><path d="M441 482c2.1 3.16 2.26 3.56 1.81 7.06l-.23 2.1C442 493 442 493 439 495c0-4.58.86-8.59 2-13" fill="#E4E7E8"/><path d="m720 272 3 1 1 9-2 1c-1.8-3.83-2.2-6.78-2-11" fill="#DEE2DD"/><path d="M540 673c-1.44 1.62-1.44 1.62-4 3a50 50 0 0 1-9-2v-1c4.66-.84 8.37-1.02 13 0" fill="#D2D5D4"/><path d="M853 610v3l-8 1v-3c2.93-.98 4.96-1.08 8-1" fill="#1C1E1E"/><path d="m441 541 4 1 1 8h-3l-.44-3.38C442 543 442 543 441 541" fill="#ECECED"/><path d="M772 456v1l-10 2 1-4c3.62-1.34 5.57-.62 9 1" fill="#E5E6EA"/><path d="m724 269-1.31 1.19c-1.95 2.09-3.23 4.36-4.69 6.81h-1c-.25-2.81-.25-2.81 0-6 2.66-2.84 3.21-3.26 7-2" fill="#212422"/><path d="m544 688 3 1-1 2a104 104 0 0 0-.56 4.62l-.26 2.48-.18 1.9h-1l-.56-5.44-.32-3.06-.12-2.5z" fill="#1B1B1F"/><path d="M761 651c3.09 3.09 3.45 3.92 4 8l-3 2z" fill="#F4F6F4"/><path d="m514 31-1 2c-2.5.41-2.5.41-5.56.62l-3.07.23L502 34c3.73-3.73 6.97-4.44 12-3" fill="#EEF1F1"/><path d="M491 67h1v13c-2-2.99-2.67-4.48-3-8 .94-2.81.94-2.81 2-5" fill="#F1F3F1"/><path d="m691 665 7 1v3l-5 1c-2-3.88-2-3.88-2-5" fill="#F2F2F2"/><path d="M548 664h6v3c-3.01.93-3.87 1.04-7 0z" fill="#202025"/><path d="m746 630 1 3-2 3c-2.62.19-2.62.19-5 0v-2q2.94-2.09 6-4" fill="#DFDFDD"/><path d="M795 617h14v1c-8.04 2.28-8.04 2.28-12.06 1.12L795 618z" fill="#F2F4F6"/><path d="M861 611v2l-9 2-1-2c3.62-1.32 6.1-2 10-2" fill="#EBEEED"/><path d="M780 436h1v10c-3-3-3-3-3.31-5.56C778 438 778 438 780 436" fill="#F5F5F7"/><path d="m493 366 2 2c-.03 2.73-.56 5.3-1 8-1.62-1.62-1.62-1.62-3-4 .81-3.25.81-3.25 2-6" fill="#DDDFE0"/><path d="M616 688h2l1 7-4 1z" fill="#D9DBDD"/><path d="m491 664 1.81 2.31A58 58 0 0 0 498 672c-2.72-.37-4.61-.73-6.88-2.31-1.12-1.69-1.12-1.69-.81-3.88z" fill="#D7D9DA"/><path d="m867 608-1 4c-1.81.69-1.81.69-4 1-1.75-1.44-1.75-1.44-3-3 5.75-2 5.75-2 8-2" fill="#D3D8D7"/><path d="M452 567c1.5 1.12 1.5 1.12 3 3 .19 3.19.19 3.19 0 6-2.88-2.38-3.61-4.3-4-8z" fill="#E9EBEA"/><path d="M874 475a104 104 0 0 1 9 5l-1 4-4-3.94-2.25-2.21C874 476 874 476 874 475" fill="#060709"/><path d="m742.63 31.44 3.03.3 2.35.26v1l-2.1.19-2.73.25-2.7.25c-2.48.3-2.48.3-5.48 1.3v-3c2.73-1.35 4.6-.87 7.63-.55" fill="#C4C5C8"/><path d="M635 689c2.29 3.44 2.18 4.99 2 9l-3-1c-.12-5.75-.12-5.75 1-8" fill="#DDDFE0"/><path d="m907 577 1 4-4 3-2-2z" fill="#1D1F1D"/><path d="M783 431c1.13 3.38.82 4.77.06 8.19l-.59 2.73L782 444h-1c-1.45-8.19-1.45-8.19.44-11.56z" fill="#CACBCD"/><path d="M753 354c2.58 4.38 1.81 7.11 1 12-2.24-3.35-2.17-3.91-1.62-7.69l.33-2.45z" fill="#242726"/><path d="M517 306c.69 1.69.69 1.69 1 4-1.31 2.75-1.31 2.75-3 5h-2c.65-3.49 2.1-6.03 4-9" fill="#EAEDEE"/><path d="m752 242 3 1c-1.15 2.47-2.05 4.05-4 6l-3-1z" fill="#DBDADF"/><path d="m552 667 1 2-1 2h-9c2.99-1.99 5.6-2.94 9-4" fill="#DBDADE"/><path d="M933 498h2c1.31 3.94.24 6.12-1 10h-1z" fill="#ECEDEE"/><path d="m452 467 3 1-3 5-4-1z" fill="#1D1F1E"/><path d="M875 430c3.69.5 5.6 1.1 8 4-2.31.25-2.31.25-5 0-1.81-2-1.81-2-3-4" fill="#ECEBF0"/><path d="M756 374h3l-1 10c-2-3.99-2.2-5.7-2-10" fill="#1E211E"/><path d="m714 45 2 2-8 5v-3c3-2.19 3-2.19 6-4" fill="#E0E0E2"/><path d="M542 692h1l1 12h-3z" fill="#BEBEC1"/><path d="m758 664 2 4-4 3-2-2z" fill="#232623"/><path d="m897 590 1 3c-1.75 1.56-1.75 1.56-4 3l-4-1z" fill="#DCDDDE"/><path d="M929 543h2l1 4-5 3z" fill="#D8DADA"/><path d="M744 331h2l2 8-3-1z" fill="#2C2D2D"/><path d="m512 315 3 1-3 6h-2c.88-4.75.88-4.75 2-7" fill="#DCDEDF"/><path d="M498 233h2l2 8c-2-1.19-2-1.19-4-3-.25-2.69-.25-2.69 0-5" fill="#D4D4D4"/></svg>