<svg style="background:transparent" version="1.1" xmlns="http://www.w3.org/2000/svg" viewBox="0 0 1248 704"><path d="M523 0v2l2.58.13c4.57 1.16 6.82 3.49 10.11 6.75l1.72 1.64q3.12 3 6.16 6.06c1.65 1.64 3.37 3.15 5.12 4.67l2.13 1.86L553 25l5.98 5.24 4.16 3.62c3.4 2.95 6.67 5.95 9.86 9.14q2.5 2.14 5.02 4.24C580 49 580 49 581.22 50.45c2.8 3.21 4.25 4.44 8.53 5.35q2.13.07 4.27.06l2.37.05q3.86.07 7.71.06l5.4.06q5.66.04 11.33.03 7.21 0 14.42.15 5.58.08 11.17.07 2.65 0 5.31.07c15.22.32 15.22.32 21.66-5.22 2.34-2.27 4.47-4.67 6.61-7.13a82 82 0 0 1 3.62-3.09A164 164 0 0 0 697 29q3.74-3.48 7.54-6.89c2.4-2.19 4.74-4.39 7.02-6.7A84 84 0 0 1 719 9l2.46-2.11 2.48-2.08 2.46-2.1C729.37.75 731.49.33 735 0l2.12-.2c7.38-.19 11.98 2.91 17.34 7.73 3.84 3.67 4.87 6.18 5.54 11.47l1 3q.15 3.65.13 7.31l.01 2.27.01 7.56.01 5.41.01 14.71.01 12.28.01 28.97.02 29.89.03 40.98v14.42l.01 5.29v7.22l.01 2.11A31 31 0 0 1 759 212l-.51 2.07c-2.3 9.05-6.77 17.41-13.49 23.93l-2.07.96c-2.45 1.32-2.71 2.57-3.93 5.04-2.24 2.07-2.24 2.07-4.88 4.12l-2.61 2.08A40 40 0 0 1 725 254c-2.43 1.69-3.79 2.91-4.36 5.88-.33 8.88 2.8 17.12 6.36 25.12l1.44 4.56c1.28 3.97 3.11 7.04 5.56 10.44a74 74 0 0 1 3.31 7.12 140 140 0 0 0 4.13 8.76 143 143 0 0 1 8.85 21.01c.71 2.11.71 2.11 2.21 5.49a91 91 0 0 1 3.81 12.05 91 91 0 0 0 1.75 5.69c1.05 3.23 1.73 6.46 2.43 9.77.51 2.11.51 2.11 1.63 4.86 1.01 2.59.88 4.48.88 7.25l1 3.44c.96 3.43 1.08 6.03 1 9.56l.5 2.25c.64 3.51.52 6.88.44 10.45.06 2.3.06 2.3 1.06 5.3q.13 2.94.12 5.88l.01 3.11c-.12 2.8-.53 5.29-1.13 8.01q-.28 2.09-.5 4.19l-.25 2.35q-.25 2.5-.46 5.02A62 62 0 0 1 762 456l1.69-.44c10.44-2.54 20.93-3 30.4 2.69 13.79 9.7 17.87 22.86 20.91 38.75 1.51 10.6.53 20.48-1 31l-.44 5c-.55 5.66-2.05 10.72-4.12 16a41 41 0 0 0-2.44 11c3.01.93 3.87 1.04 7 0q2.6-.26 5.19-.44c3.36-.28 6.5-.64 9.75-1.56 4.38-1.22 8.78-1.46 13.31-1.79A89 89 0 0 0 851 555c38.2-4.96 76.84-2.91 109.25 19.88A58 58 0 0 1 975 592l2 3.19c6.61 11.55 8.1 25.59 5.19 38.37-2.72 7.87-6.2 15.73-11.19 22.44l-3 1-.87 1.78c-3.66 7.18-12.89 12.14-20.13 15.22l-2.18 1.05a53 53 0 0 1-13.58 4.46c-2.24.49-2.24.49-4.76 1.53-5.13 1.42-10.12 1.25-15.42 1.21l-3.21.02c-5.69-.01-10.47-.39-15.85-2.27l-2.38-.44c-13.17-2.82-25.89-8.79-33.94-19.83-3.6-5.83-5.23-10.12-3.99-16.98 2.15-8.97 6.33-14.06 14.22-18.93 6.7-2.99 15.02-3 21.97-.99 2.43.97 4.77 2.03 7.12 3.17a28 28 0 0 0 10.25 2.56c4.65.34 4.65.34 5.75 1.44 1.93.17 1.93.17 4.31.19l2.37.04c2.55-.25 4.08-1.03 6.32-2.23l3.06-.5C930 627 930 627 933 625c.39-4.71.56-8.86-2-13q-2.48-1.06-5-2l-6-3c-9.72-4.49-19.13-5.29-29.73-4.97C888 602 888 602 887 601a70 70 0 0 0-4.81-.12l-2.65-.01c-2.34.12-4.28.56-6.54 1.13q-2.16.06-4.31 0c-4-.05-7.74.36-11.69 1l-4.5.5c-9.77 1.06-9.77 1.06-13.37 1.97-6.6 1.64-13.4 2.59-20.13 3.53l-2.5.5q-3.01.59-6.06 1c-3.44.5-3.44.5-5.38 1-2.16.52-4.22.75-6.44.94-2.76.28-4.91.66-7.56 1.56-3.6 1.17-6.98 1.47-10.74 1.79A59 59 0 0 0 773 617l-2.94.25c-4.09 1-5.92 2.97-9.06 5.75h-2l-.69 1.75c-1.67 2.87-3.58 4.39-6.31 6.25h-3l-2 5 2.06.62c8.05 3.77 12.09 9.63 15.25 17.76.85 4.45.97 8.25-.31 12.62-2.25 2.81-2.25 2.81-5 5l-2.44 2.19c-6.33 4.48-12.85 4.08-20.31 4h-3.13c-17.67-.1-17.67-.1-24.5-3.19a44 44 0 0 0-8.62-3l2.12 1.94c5.53 5.57 10.11 12.11 10.88 20.06q-.17 2.63-.46 5.25l-.3 2.71L712 704q-14.4.18-28.79.26-6.69.04-13.37.12-6.45.07-12.89.09-2.47.01-4.93.06-3.44.04-6.89.04l-3.96.03c-3.17-.6-3.17-.6-5.05-2.98L635 699l-1.11-2.42A46 46 0 0 1 632 673l-.06-2.81C632 668 632 668 634 665q-3.18-.04-6.38-.06l-3.58-.04c-3.04.1-3.04.1-5.04 1.1l1 1c.07 2.33 0 4.64-.06 6.97C620 676 620 676 621 677c.14 4.25.19 7.91-1 12l-.31 3.25C619 696 619 696 615 704h-74c-2.67-5.34-2.49-8.83-.81-14.44 1.6-4.5 3.76-7.88 6.81-11.56h2l.81-1.88C551 674 551 674 554 672a50 50 0 0 0-10.44 2.5A53 53 0 0 1 532 677l-1.73.51c-10.42 2.25-25.44 1.46-34.83-3.32-5.25-4.71-7.05-7.79-7.48-14.83.05-2.95.55-4.8 2.04-7.36l1.62-2.81c3.09-4.15 6.67-7.61 10.38-11.19l4-4-1.62-.75A46 46 0 0 1 491 623v-2l-2.16-.68c-7.82-3.64-14.16-12.24-18.84-19.32l-3.06-4.06c-7.33-9.74-14.08-19.91-18.44-31.32l-1.28-3.33c-1.69-4.55-3.25-9.03-4.22-13.79a58 58 0 0 0-2.06-7.5c-1.04-3.31-1.4-6.41-1.69-9.85A46 46 0 0 0 438 525c-2.42-14.88-1.79-34.42 5-48l.91-1.99c2.85-6.1 5.86-11.01 12.09-14.01l3.38-2.44c6.6-4.11 14.45-6.13 22.19-5.07 2.87.71 5.64 1.52 8.43 2.51l-.94-3.88a90 90 0 0 1-1.81-12.86c-.25-2.26-.25-2.26-.74-4.14-.87-3.62-.93-7.29-1.13-11l-.16-2.39c-.25-4.44-.05-8.34.78-12.73.03-2.62-.06-5.21-.16-7.83a65 65 0 0 1 1.6-10.48q.82-3.96 1.52-7.94l.49-2.65.96-5.33a97 97 0 0 1 3.81-14.54q1.19-3.44 2.24-6.91c2.55-8.24 5.08-16.41 8.54-24.32l.92-2.17c2.77-6.4 5.93-12.61 9.08-18.83 3.17-6.27 6.32-12.5 9-19l1.5-3.38c3.72-8.98 6.78-17.77 5.5-27.62-2.06-2.88-2.06-2.88-5-5l-1.64-1.19q-1.76-1.26-3.53-2.49c-12.8-9.22-12.8-9.22-14.83-15.32l-1.8-.72c-3.44-2-4.67-5.25-6.32-8.72l-1.06-1.94c-2.53-5.25-3.34-10.43-3.92-16.16l-.26-2.52c-.9-9.62-.86-19.19-.78-28.84l.03-6.17.07-13.55q.06-11.77.08-23.55.03-19.54.14-39.09.07-11.26.09-22.53.02-10.04.08-20.09.04-5.25.04-10.51 0-5.78.06-11.57l-.01-3.45c.1-7.82 1.33-11.18 6.71-16.86C507.08.67 512.54-.34 523 0" fill="#161817"/><path d="M881.51 555.68q3.82 0 7.65-.05c14-.05 27.67 1.4 40.96 6.05l2.24.78c19.18 6.9 35.06 18.5 44.01 37.3 5.24 11.57 5.34 25.1 1.56 37.17A74 74 0 0 1 968 655l-1.29 1.91c-9.02 12.11-26.65 18.82-41.03 21.46-21.54 2.6-44.02.31-61.93-12.94-5.14-4.36-8.46-8.86-9.03-15.76-.33-12.92-.33-12.92 3.65-17.3 6.95-5.82 12.9-7.83 21.92-7.8 6.9.8 13.32 3.34 19.8 5.76 8.67 3.01 20.12 3.15 28.78-.02a21 21 0 0 0 6.31-4.5c1.21-4.16 1.01-7.66-.18-11.8-5.18-7.69-16.35-11.14-24.95-13.47-33.4-5.93-67.8 1.56-100.66 7.42l-2.8.5q-7.42 1.32-14.82 2.68l-6.14 1.11-2.83.53A80 80 0 0 1 766 614l2-1.94 3-3.06q.82-.85 1.7-1.7a120 120 0 0 0 23.45-36.35c.83-1.89.83-1.89 2.85-4.95 4.57-1.62 9.1-2.4 13.9-3l3.9-.5 4.01-.5c14.72-1.84 14.72-1.84 20.01-3 13.41-2.8 27.03-3.36 40.7-3.32" fill="#131615"/><path d="M523 0v2l2.58.13c4.57 1.16 6.82 3.49 10.11 6.75l1.72 1.64q3.12 3 6.16 6.06c1.65 1.64 3.37 3.15 5.12 4.67l2.13 1.86L553 25l5.98 5.24 4.16 3.62c3.4 2.95 6.67 5.95 9.86 9.14q2.5 2.14 5.02 4.24C580 49 580 49 581.22 50.45c2.8 3.21 4.25 4.44 8.53 5.35q2.13.07 4.27.06l2.37.05q3.86.07 7.71.06l5.4.06q5.66.04 11.33.03 7.21 0 14.42.15 5.58.08 11.17.07 2.65 0 5.31.07c15.22.32 15.22.32 21.66-5.22 2.34-2.27 4.47-4.67 6.61-7.13a82 82 0 0 1 3.62-3.09A164 164 0 0 0 697 29q3.74-3.48 7.54-6.89c2.4-2.19 4.74-4.39 7.02-6.7A84 84 0 0 1 719 9l2.46-2.11 2.48-2.08 2.46-2.1C729.37.75 731.49.33 735 0l2.12-.2c7.38-.19 11.98 2.91 17.34 7.73 3.84 3.67 4.87 6.18 5.54 11.47l1 3q.15 3.65.13 7.31l.01 2.27.01 7.56.01 5.41.01 14.71.01 12.28.01 28.97.02 29.89.03 40.98v14.42l.01 5.29v7.22l.01 2.11A31 31 0 0 1 759 212l-.51 2.07c-2.3 9.05-6.77 17.41-13.49 23.93l-2.07.96c-2.45 1.32-2.71 2.57-3.93 5.04-2.24 2.07-2.24 2.07-4.88 4.12l-2.61 2.08A40 40 0 0 1 725 254c-2.43 1.69-3.79 2.91-4.36 5.88-.33 8.88 2.8 17.12 6.36 25.12l1.44 4.56c1.28 3.97 3.11 7.04 5.56 10.44a74 74 0 0 1 3.31 7.12 140 140 0 0 0 4.13 8.76 143 143 0 0 1 8.85 21.01c.71 2.11.71 2.11 2.21 5.49a91 91 0 0 1 3.81 12.05 91 91 0 0 0 1.75 5.69c1.05 3.23 1.73 6.46 2.43 9.77.51 2.11.51 2.11 1.63 4.86 1.01 2.59.88 4.48.88 7.25l1 3.44c.96 3.43 1.08 6.03 1 9.56l.5 2.25c.64 3.51.52 6.88.44 10.45.06 2.3.06 2.3 1.06 5.3q.13 2.94.12 5.88l.01 3.11c-.12 2.8-.53 5.29-1.13 8.01q-.28 2.09-.5 4.19l-.25 2.35q-.25 2.5-.46 5.02A62 62 0 0 1 762 456l1.69-.44c10.44-2.54 20.93-3 30.4 2.69 13.79 9.7 17.87 22.86 20.91 38.75 1.51 10.6.53 20.48-1 31l-.44 5c-.55 5.66-2.05 10.72-4.12 16a41 41 0 0 0-2.44 11c3.01.93 3.87 1.04 7 0q2.6-.26 5.19-.44c3.36-.28 6.5-.64 9.75-1.56 4.38-1.22 8.78-1.46 13.31-1.79A89 89 0 0 0 851 555c38.2-4.96 76.84-2.91 109.25 19.88A58 58 0 0 1 975 592l2 3.19c6.61 11.55 8.1 25.59 5.19 38.37-2.72 7.87-6.2 15.73-11.19 22.44l-3 1-.87 1.78c-3.66 7.18-12.89 12.14-20.13 15.22l-2.18 1.05a53 53 0 0 1-13.58 4.46c-2.24.49-2.24.49-4.76 1.53-5.13 1.42-10.12 1.25-15.42 1.21l-3.21.02c-5.69-.01-10.47-.39-15.85-2.27l-2.38-.44c-13.17-2.82-25.89-8.79-33.94-19.83-3.6-5.83-5.23-10.12-3.99-16.98 2.15-8.97 6.33-14.06 14.22-18.93 6.7-2.99 15.02-3 21.97-.99 2.43.97 4.77 2.03 7.12 3.17a28 28 0 0 0 10.25 2.56c4.65.34 4.65.34 5.75 1.44 1.93.17 1.93.17 4.31.19l2.37.04c2.55-.25 4.08-1.03 6.32-2.23l3.06-.5C930 627 930 627 933 625c.39-4.71.56-8.86-2-13q-2.48-1.06-5-2l-6-3c-9.72-4.49-19.13-5.29-29.73-4.97C888 602 888 602 887 601a70 70 0 0 0-4.81-.12l-2.65-.01c-2.34.12-4.28.56-6.54 1.13q-2.16.06-4.31 0c-4-.05-7.74.36-11.69 1l-4.5.5c-9.77 1.06-9.77 1.06-13.37 1.97-6.6 1.64-13.4 2.59-20.13 3.53l-2.5.5q-3.01.59-6.06 1c-3.44.5-3.44.5-5.38 1-2.16.52-4.22.75-6.44.94-2.76.28-4.91.66-7.56 1.56-3.6 1.17-6.98 1.47-10.74 1.79A59 59 0 0 0 773 617l-2.94.25c-4.09 1-5.92 2.97-9.06 5.75h-2l-.69 1.75c-1.67 2.87-3.58 4.39-6.31 6.25h-3l-2 5 2.06.62c8.05 3.77 12.09 9.63 15.25 17.76.85 4.45.97 8.25-.31 12.62-2.25 2.81-2.25 2.81-5 5l-2.44 2.19c-6.33 4.48-12.85 4.08-20.31 4h-3.13c-17.67-.1-17.67-.1-24.5-3.19a44 44 0 0 0-8.62-3l2.12 1.94c5.47 5.51 10.26 12.14 10.88 20.06a91 91 0 0 1-1 10l-4-1 .18-2.75c.29-8.07.06-13.89-5.18-20.25-4.7-5.04-9.74-8.2-16-11v-8l1.98 1.14c14.88 8.34 27.46 12.22 44.52 12.17l3.51.05c6.95.01 13.66-.22 19.99-3.36 3.78-4.2 3.56-8.58 3.41-14-.94-6.85-5.26-11.51-10.5-15.75-3.13-2.05-6.34-3.12-9.91-4.25v-2q2.81-2.04 5.75-3.94c7.44-4.95 13.94-10.75 20.25-17.06q4.4-.73 8.83-1.35a881 881 0 0 0 28.35-4.64l13.03-2.3 2.58-.45A1064 1064 0 0 1 851 600l2.45-.35c25-3.48 55.36-5.4 77.48 8.71 4.05 3.21 5.73 6.56 6.57 11.7-.69 4.04-1.72 5.9-4.5 8.94-7.84 5.23-17.94 5.18-27 4-6.57-1.4-12.8-3.82-19.09-6.14-7.92-2.33-15.55-1.28-22.91 2.14l-2.38.94c-2.11 1.38-2.65 2.76-3.62 5.06l-2 3c-.72 7.02-1.31 15.12 2.57 21.31 9.78 11.59 26.85 17.1 41.43 18.69 20.32 1.45 42.59-1.17 58.62-14.93C960 662 960 662 962 662l.83-1.81a21 21 0 0 1 3.92-5.19c4.17-4.77 6.72-10.23 9.25-16l1.04-2.36c4.49-12.2 2.99-26.74-2.26-38.33-9.51-18.99-26.87-29.26-46.22-36.12-14.66-4.47-28.87-5.71-44.12-5.57l-2.65.02c-14.12.07-27.86.96-41.79 3.36l-3.06.52c-8.44 1.43-8.44 1.43-12.45 2.13A175 175 0 0 1 800 565l.85-2.1c9.52-24.03 16.5-56.12 7.41-81.17-4.53-9.85-9.84-17.44-19.88-22.17-10.13-3.61-20.44-1.83-30.38 1.44l.26-1.89 1.18-8.61.41-2.98.79-5.86q.44-3.2.94-6.39c.81-6.65.66-13.39.67-20.08v-2.23c-.01-11.59-.77-22.63-3.25-33.96l-.74-3.86c-5.25-26.06-15.72-50.92-28.24-74.22-6.92-13.1-14.91-29.75-12.02-44.92 2.78-3.56 6.19-5.64 10-8a278 278 0 0 0 6.91-5.36L737 241l1.87-1.42c10.65-8.47 15.52-20.53 18.13-33.58.18-2.68.28-5.25.26-7.92l.01-2.3v-7.53l.02-5.43.01-14.69.01-12.29.01-28.99q-.01-14.94.02-29.87.03-12.85.02-25.69l.02-15.32V36.28c.09-19.81.09-19.81-5.03-26.4-5.72-4.37-10.2-6.53-17.55-6.3-8.58 1.29-15.5 8.51-21.42 14.36l-4.23 4.09-2.08 2.01c-3.26 3.09-6.67 6.02-10.07 8.96a963 963 0 0 0-7.43 6.68L687 42l-5.06 4.56-2.23 2.01L677 51l-1.59 1.94c-4.67 5.14-8.87 6.82-15.72 7.19q-4.99.16-9.98.14l-5.37.07q-5.6.06-11.23.03c-4.76-.01-9.51.08-14.27.19q-5.54.1-11.09.08-2.62.01-5.25.08c-9.28.25-15.81-.32-22.95-6.66a143 143 0 0 1-7.11-7.47 55 55 0 0 0-5.69-5.34q-4.68-4.06-9.25-8.25a570 570 0 0 0-11.34-10.08q-3.35-3-6.64-6.07c-8.9-8.27-14.77-13.25-27.35-13.13-5.56.49-8.37 3.26-11.92 7.22-3.82 5.2-4.55 9.39-4.52 15.75l-.01 2.32-.01 7.7-.02 5.53q-.03 7.5-.02 15l-.02 9.39-.02 32.78q0 15.25-.05 30.5-.04 13.11-.04 26.22l-.02 15.65q-.03 7.36-.01 14.73l-.01 5.38c-.11 17.5 3.3 32.12 15.48 45.28 5.88 5.75 12.7 10.56 19.28 15.48 3.68 2.86 3.68 2.86 4.15 6.48.23 10.08-1.47 17.7-5.53 26.88q-1.28 2.92-2.49 5.88a189 189 0 0 1-8.94 18.67c-23.07 42.19-33.58 91.78-24.81 139.34.58 3.35.97 6.72 1.36 10.1-6.53-.9-6.53-.9-9.32-1.51-11.98-2.18-20.09.07-29.93 6.7-12.28 12.56-14.01 29.63-13.83 46.34L441 516l.05 3.03c1.89 36.66 19.86 69.14 44.95 94.97l1.59 1.67c4.22 4.35 8.72 8.05 13.6 11.64l2.11 1.59c3.15 2.34 6.14 4.42 9.7 6.1v2l-1.94.66c-7.52 2.76-13.35 5.96-17.5 13.03-2.2 4.96-2.36 9.98-1.56 15.31 2.19 4.38 5 5.74 9.53 7.37 4.92 1.25 9.92 1.11 14.97 1.07l3.5-.03c14.69-.28 26.75-4.35 40-10.41q2.5-1.02 5-2v8l-1.98.92c-8.36 4.01-13.85 7.59-18.02 16.08-1.12 3.53-1.3 7.07-1.56 10.75l-.26 3.55-.18 2.7-4-2c-.52-9.51 1.91-16.66 8-24h2l.81-1.88C551 674 551 674 554 672a50 50 0 0 0-10.44 2.5A53 53 0 0 1 532 677l-1.73.51c-10.42 2.25-25.44 1.46-34.83-3.32-5.25-4.71-7.05-7.79-7.48-14.83.05-2.95.55-4.8 2.04-7.36l1.62-2.81c3.09-4.15 6.67-7.61 10.38-11.19l4-4-1.62-.75A46 46 0 0 1 491 623v-2l-2.16-.68c-7.82-3.64-14.16-12.24-18.84-19.32l-3.06-4.06c-7.33-9.74-14.08-19.91-18.44-31.32l-1.28-3.33c-1.69-4.55-3.25-9.03-4.22-13.79a58 58 0 0 0-2.06-7.5c-1.04-3.31-1.4-6.41-1.69-9.85A46 46 0 0 0 438 525c-2.42-14.88-1.79-34.42 5-48l.91-1.99c2.85-6.1 5.86-11.01 12.09-14.01l3.38-2.44c6.6-4.11 14.45-6.13 22.19-5.07 2.87.71 5.64 1.52 8.43 2.51l-.94-3.88a90 90 0 0 1-1.81-12.86c-.25-2.26-.25-2.26-.74-4.14-.87-3.62-.93-7.29-1.13-11l-.16-2.39c-.25-4.44-.05-8.34.78-12.73.03-2.62-.06-5.21-.16-7.83a65 65 0 0 1 1.6-10.48q.82-3.96 1.52-7.94l.49-2.65.96-5.33a97 97 0 0 1 3.81-14.54q1.19-3.44 2.24-6.91c2.55-8.24 5.08-16.41 8.54-24.32l.92-2.17c2.77-6.4 5.93-12.61 9.08-18.83 3.17-6.27 6.32-12.5 9-19l1.5-3.38c3.72-8.98 6.78-17.77 5.5-27.62-2.06-2.88-2.06-2.88-5-5l-1.64-1.19q-1.76-1.26-3.53-2.49c-12.8-9.22-12.8-9.22-14.83-15.32l-1.8-.72c-3.44-2-4.67-5.25-6.32-8.72l-1.06-1.94c-2.53-5.25-3.34-10.43-3.92-16.16l-.26-2.52c-.9-9.62-.86-19.19-.78-28.84l.03-6.17.07-13.55q.06-11.77.08-23.55.03-19.54.14-39.09.07-11.26.09-22.53.02-10.04.08-20.09.04-5.25.04-10.51 0-5.78.06-11.57l-.01-3.45c.1-7.82 1.33-11.18 6.71-16.86C507.08.67 512.54-.34 523 0" fill="#E5E7E7"/><path d="M673 495h1c1.16 7.47-2.75 12.12-7 18-2.89 3.91-6 7.19-10 10h-2v2l-8.85 5.16C641.23 533 641.23 533 639 533l.18 1.92c1.68 18.66 2.17 37.18 2.14 55.91q-.01 4.6.02 9.21c.3 51.68.3 51.68-4.34 60.96h-22a404 404 0 0 1-4-49l-.03-1.98c-.42-25.73.59-51.33 2.03-77.02l-2.47-1.21-6.48-3.2c-10.93-5.71-19.77-15.45-25.05-26.59-.19-3.34-.19-3.34 0-6l1.88 1.94L584 501l2.03 2.02a88 88 0 0 0 15.59 11.86l1.85 1.11c7.12 4.16 13.54 6.57 21.84 6.45l2.25-.03c15.33-.45 29.52-10.02 39.81-20.92q2.1-2.38 4.13-4.8z" fill="#000"/><path d="M739 470h2c1 35.82-4.98 72.24-18.93 105.41-1.74 4.22-3.3 8.51-4.88 12.8q-1.75 4.76-3.76 9.41c-2.26 5.33-3.78 10.84-5.43 16.38l-1.23 3.92c-4.87 15.72-7.89 31.74-9.77 48.08-3.88-1.15-7.09-2.13-10-5-.84-7.87 1.78-16.41 3.69-24l.81-3.28c3.49-13.95 7.48-27.57 12.82-40.93 3.22-8.04 6.02-16.21 8.84-24.39q1.2-3.42 2.44-6.81a267 267 0 0 0 7.66-24.44c.87-3.3 1.8-6.28 3.2-9.41 2.27-5.08 3.28-10.52 4.48-15.93l.78-3.46a1065 1065 0 0 0 5.07-23.85c.95-4.82 1.65-9.62 2.21-14.5" fill="#000100"/><path d="M695.38 136.46c8.38 4.92 12.45 10.84 16.62 19.54l1 2c1.06 11.92-.57 21.65-8.07 31.37-6.4 6.74-15.07 10-24.17 10.83-10.43.23-18.85-3.84-26.52-10.8-7.1-7.58-8.87-16.05-8.79-26.14A28.3 28.3 0 0 1 651 147l2.25-3.25c11.67-11.67 27.18-14.56 42.13-7.29m-41.94 10.47C649.3 152.85 649.17 159 650 166c2.24 7.36 6.62 12.75 13 17 5.91 2.84 12.23 3.07 18.54 1.27 4.74-1.96 8.17-4.26 11.46-8.27l1.41-1.54c4.35-5.52 4.51-11.78 4.13-18.54-.92-6.64-3.39-11.37-8.62-15.6-13.66-8.95-26.53-4.87-36.48 6.61" fill="#EFC950"/><path d="M562 133c16.63-.79 16.63-.79 24 4l2.55 1.62A35 35 0 0 1 603 161c.99 8.93-.83 17.35-5.92 24.81-5.66 6.74-11.8 10.43-20.08 13.19-12.2 1.05-21.56.2-31.34-7.95-6.45-6.5-10.77-15.5-11.16-24.74A39.6 39.6 0 0 1 548 139l2 1-3.61 4.1c-5.08 6.95-5.49 13.54-4.39 21.9a28 28 0 0 0 12.17 15c3.66 1.29 7.17 1.57 11.02 1.62l2.05.04c5.88-.17 9.31-2.42 13.55-6.3 5.43-6.26 7.93-12.4 7.62-20.77a24.5 24.5 0 0 0-9.35-16.09c-5.42-3.6-10.64-4.73-17.06-5.5z" fill="#EDC74C"/><path d="M512 471a28 28 0 0 1 3.08 8.95l.57 2.96.6 3.21 1.36 6.89 1.98 10.05c5.26 26.76 15.09 52.35 24.5 77.89C567.51 644.9 567.51 644.9 565 661c-1.88 2.73-3.77 4.19-7 5l-3-1-.27-2.42c-1.92-16.66-4.39-32.61-9.73-48.58l-.74-2.25a455 455 0 0 0-5.51-15.69l-.91-2.47q-3.15-8.48-6.46-16.9l-2.6-6.69q-1.02-2.63-2.08-5.25c-7.04-18.36-11.38-38.25-13.7-57.75l-.39-3.24c-1.06-10.86-.7-21.86-.61-32.76" fill="#000101"/><path d="M756 11c3 2 3 2 3.62 4.94L760 19l1 3q.15 3.65.13 7.31l.01 2.27.01 7.56.01 5.41.01 14.71.01 12.28.01 28.97.02 29.89.03 40.98v14.42l.01 5.29v7.22l.01 2.11A31 31 0 0 1 759 212l-.51 2.07c-2.3 9.05-6.77 17.41-13.49 23.93l-2.07.96c-2.45 1.32-2.71 2.57-3.93 5.04-2.24 2.07-2.24 2.07-4.88 4.12l-2.61 2.08A40 40 0 0 1 725 254c-2.43 1.69-3.79 2.91-4.36 5.88-.33 8.88 2.8 17.12 6.36 25.12l1.44 4.56c1.28 3.97 3.11 7.04 5.56 10.44a74 74 0 0 1 3.31 7.12 140 140 0 0 0 4.13 8.76 143 143 0 0 1 8.85 21.01c.71 2.11.71 2.11 2.21 5.49a91 91 0 0 1 3.81 12.05 91 91 0 0 0 1.75 5.69c1.05 3.23 1.73 6.46 2.43 9.77.51 2.11.51 2.11 1.63 4.86 1.01 2.59.88 4.48.88 7.25l1 3.44c.96 3.43 1.08 6.03 1 9.56l.5 2.25c.64 3.51.52 6.88.44 10.45.06 2.3.06 2.3 1.06 5.3q.13 2.94.12 5.88l.01 3.11A43 43 0 0 1 766 430l-.44 2.25L765 434l-2 1-.04-3.09c-.58-37.43-.58-37.43-3.96-52.91l-.73-3.85c-5.26-26.07-15.73-50.92-28.25-74.23-6.92-13.1-14.91-29.75-12.02-44.92 2.78-3.56 6.19-5.64 10-8q2.37-1.79 4.69-3.62l2.22-1.74L737 241l1.87-1.42c10.65-8.47 15.52-20.53 18.13-33.58.18-2.68.27-5.25.25-7.92l.01-2.3v-7.53l.01-5.43v-30.1q.01-12.94-.01-25.87V96.98l.01-25.69V55.97q.01-7.21-.01-14.41l.01-5.28c.01-8.35-.1-16.15-2.27-24.28z" fill="#E8EBE9"/><path d="M523 0v2l2.58.13c4.57 1.16 6.82 3.49 10.11 6.75l1.72 1.64q3.12 3 6.16 6.06c1.65 1.64 3.37 3.15 5.12 4.67l2.13 1.86L553 25l5.98 5.24 4.16 3.62c3.4 2.95 6.67 5.95 9.86 9.14q2.5 2.14 5.02 4.24C580 49 580 49 581.22 50.45c2.8 3.21 4.25 4.44 8.53 5.35q2.13.07 4.27.06l2.37.05q3.86.07 7.71.06l5.4.06q5.66.04 11.33.03 7.21 0 14.42.15 5.58.08 11.17.07 2.65 0 5.31.07c15.22.32 15.22.32 21.66-5.22 2.34-2.27 4.47-4.67 6.61-7.13a82 82 0 0 1 3.62-3.09A164 164 0 0 0 697 29q3.74-3.48 7.54-6.89c2.4-2.19 4.74-4.39 7.02-6.7A84 84 0 0 1 719 9l2.46-2.11 2.48-2.08 2.46-2.1C729.37.75 731.49.33 735 0l2.12-.2c7.46-.19 11.98 3.07 17.56 7.7C756 9 756 9 756 12a27 27 0 0 1-6.44-4c-4.68-3.65-8.88-4.61-14.76-4.42-8.58 1.28-15.5 8.51-21.42 14.36l-4.23 4.09-2.08 2.01c-3.26 3.09-6.67 6.02-10.07 8.96a963 963 0 0 0-7.43 6.68L687 42l-5.06 4.56-2.23 2.01L677 51l-1.59 1.94c-4.67 5.14-8.87 6.82-15.72 7.19q-4.99.16-9.98.14l-5.37.07q-5.6.06-11.23.03c-4.76-.01-9.51.08-14.27.19q-5.54.1-11.09.08-2.62.01-5.25.08c-9.28.25-15.81-.32-22.95-6.66a143 143 0 0 1-7.11-7.47 55 55 0 0 0-5.69-5.34q-4.68-4.06-9.25-8.25a570 570 0 0 0-11.34-10.08q-3.35-3-6.64-6.07c-8.91-8.28-14.76-13.21-27.34-13.14-4.31.39-6 1.45-9.18 4.29l-3 2V7c7.04-6.87 13.46-7.31 23-7" fill="#D2D5D5"/><path d="m811.44 563.88 2.62.04q.95.05 1.94.08l-3 1c-1 2.6-1 2.6-2 6a158 158 0 0 1-12.62 25.63l-1.38 2.25c-7.1 11.34-7.1 11.34-12.01 13.37-6.46 1.25-12.41 2.09-19 1.75q1-.94 2-1.93 1.53-1.54 3-3.08l1.7-1.7a120 120 0 0 0 23.46-36.33c1.6-3.63 2.53-4.83 6.24-6.38 3.1-.5 5.92-.8 9.05-.7" fill="#010201"/><path d="M498 9h2c-2 5-2 5-3.05 7.2-1.19 3.52-1.23 6.81-1.22 10.49l-.01 2.32-.01 7.7-.02 5.53q-.03 7.5-.02 15l-.02 9.39-.02 32.78q0 15.25-.05 30.5-.04 13.11-.04 26.22l-.02 15.65q-.03 7.36-.01 14.73l-.01 5.38c-.11 17.5 3.3 32.12 15.48 45.28 5.88 5.75 12.7 10.56 19.28 15.48 3.68 2.86 3.68 2.86 4.15 6.48.25 10.88-2.05 18.97-6.41 28.87l-2 5-2-1c.43-5.1 1.66-8.52 4.08-13 1.34-2.91 1.6-5.84 1.92-9l1-1c.61-5.17 1.04-9.55-2.06-13.88L526 253l-1.64-1.19q-1.76-1.26-3.53-2.49c-12.8-9.22-12.8-9.22-14.83-15.32l-1.8-.72c-3.44-2-4.67-5.25-6.32-8.72l-1.06-1.94c-2.53-5.25-3.34-10.43-3.92-16.16l-.26-2.52c-.9-9.62-.86-19.19-.78-28.84l.03-6.17.07-13.55q.06-11.77.08-23.55.03-19.54.14-39.09.07-11.26.09-22.53.02-10.04.08-20.09.04-5.25.04-10.51 0-5.78.06-11.57l-.01-3.45c.09-6.77.67-10.7 5.56-15.59" fill="#E5E7E7"/><path d="M695.38 136.46c8.38 4.92 12.45 10.84 16.62 19.54l1 2q.11 3.81.06 7.62v2.14L713 173h-1l-1-8h-1l-.19-2.09a347 347 0 0 0-.5-5.43c-.3-2.48-.3-2.48-1.3-5.48h-2v-4h-2v-2h-2v-2l-5 1c.1.26.1.26.68 1.58 2.51 6.44 2.36 11.64 1.31 18.42h-1v-2.5c-.29-8.13-1.4-14.35-7-20.5-6.2-5.04-12.9-5.8-20.73-5.49-7.24 1.07-11.47 5.22-16.05 10.64-3.92 5.9-4.04 11.98-3.22 18.85 2.14 6.83 5.9 12.17 12 16a24.7 24.7 0 0 0 18.61 1.13c2.17-.98 4.27-2.04 6.4-3.13l3-1c.92-1.63.92-1.63 2-4q1.95-3.52 4-7h1v5h-2v3h-2v4h-2v2h-4v2h-2v2h-24v-2h-2v-2h-2v-2h-2v-2h-4v5l-2 1c-4.67-8.47-5.36-17.55-4-27a34 34 0 0 1 5-10q1.09-1.61 2.24-3.25c11.67-11.67 27.18-14.56 42.13-7.29" fill="#DEC672"/><path d="M622.94 183.56h3.59c3.93.5 7.59 1.56 10.47 4.44.38 3.25.38 3.25 0 7-2.37 2.81-2.37 2.81-5 5-2.68 2.68-3.06 5.37-4 9-2.81.62-2.81.62-6 1-3-2-3-2-3.87-5.32-1.28-4.19-2.87-5.83-6.13-8.68l-2-2c.08-3.75.48-5.47 3.13-8.17 3.53-2.25 5.65-2.34 9.8-2.27" fill="#676968"/><path d="M756 11c3 2 3 2 3.62 4.94L760 19l1 3q.14 3.18.13 6.36l.01 1.97.01 6.53.01 4.68.01 12.75v7.99l.02 27.95.02 25.91.03 35.62c.04 18.19-.02 36.16-2.24 54.24h-1l-.01-2.86q-.12-34.53-.28-69.04l-.13-33.38-.12-29.1q-.04-7.7-.06-15.41l-.07-14.51-.01-5.31c-.02-8.38-.14-16.23-2.32-24.39z" fill="#F2F4F3"/><path d="M498 9h2c-2 5-2 5-3.05 7.2-1.19 3.51-1.24 6.77-1.23 10.42l-.02 2.31-.02 7.62-.03 5.47q-.04 7.43-.05 14.84l-.07 15.52q-.08 14.68-.12 29.38l-.14 33.44q-.15 34.4-.27 68.8h-1q-.6-48-1-96l-.03-3.4q-.18-21.06-.26-42.14-.02-6.08-.07-12.16-.06-7.15-.06-14.31 0-2.62-.03-5.24-.04-3.57-.02-7.15l-.04-2.08c.06-5.26 1.79-8.8 5.51-12.52" fill="#EFF1F0"/><path d="M616 662h20l-.07 5.62-.05 7.38-.06 3.7c-.04 7.94-.04 15.35 4.3 22.3l1.88 3h-4c-5.55-7.48-7.87-18.32-6.62-27.5l.62-3.5-.06-2.81C632 668 632 668 634 665q-3.18-.04-6.38-.06l-3.58-.04c-3.04.1-3.04.1-5.04 1.1l1 1c.07 2.33 0 4.64-.06 6.97C620 676 620 676 621 677c.14 4.25.19 7.91-1 12l-.31 3.25c-.82 4.44-2.51 7.84-4.69 11.75l-4-1 1.38-2c4.39-8.12 3.86-16.49 3.74-25.5l-.02-3.94z" fill="#F1F3F2"/><path d="M523 0v2l2.58.13c4.57 1.16 6.82 3.49 10.11 6.75l1.72 1.64q3.12 3 6.16 6.06c1.65 1.64 3.37 3.15 5.12 4.67l2.13 1.86L553 25l5.98 5.24 4.16 3.62c3.4 2.95 6.67 5.95 9.86 9.14q2.6 2.23 5.22 4.41a46 46 0 0 1 4.59 4.9c3.26 3.4 6.67 3.48 11.21 3.68L596 56v1c-3.87 1.37-6.94 1.74-11 1-4.77-3.02-8.6-7.36-12.47-11.42a79 79 0 0 0-5.72-5.27q-4.7-4.09-9.31-8.31a570 570 0 0 0-11.34-10.08q-3.35-3-6.64-6.07c-8.91-8.28-14.76-13.21-27.34-13.14-4.31.39-6 1.45-9.18 4.29l-3 2V7c7.04-6.87 13.46-7.31 23-7" fill="#E2E6E3"/><path d="m548 139 2 1-3.61 4.1c-5.06 6.92-5.45 13.57-4.39 21.9a28 28 0 0 0 3.91 6.55C547 174 547 174 547 176h-3v-2h-4v6h4v6h2v2h2v3l9 3v2h13v2h7v1c-12.28.79-21.44.3-31.34-7.95-6.45-6.5-10.77-15.5-11.16-24.74A39.6 39.6 0 0 1 548 139" fill="#DBC167"/><path d="m857.94 600.44 3.46.3 2.6.26-2 2h-7c-2.33.45-4.62 1-6.92 1.56-2.4.5-4.63.5-7.08.44l-4 1a331 331 0 0 1-18 3l-2.5.5q-3.01.59-6.06 1c-3.44.5-3.44.5-5.38 1-2.16.53-4.22.75-6.43.94-2.93.29-4.96.69-7.75 1.75-3.82 1.08-6.21.13-9.88-1.2v-1q18.77-3.3 37.55-6.58l6.2-1.08 9.1-1.6 2.78-.47c14.24-2.48 14.24-2.48 21.3-1.82" fill="#E5E7E7"/><path d="M754.68 7.5C756 9 756 9 756 12a27 27 0 0 1-6.44-4c-4.68-3.65-8.88-4.61-14.76-4.42-8.58 1.28-15.5 8.51-21.42 14.36l-4.23 4.09-2.08 2.01c-3.26 3.09-6.67 6.02-10.07 8.96l-4.87 4.38-2.53 2.27-5.39 4.89L681.5 47l-2.47 2.25C677 51 677 51 675 52c.84-4.7 3.79-6.91 7.25-9.94l3.45-3.09 1.7-1.51q2.16-2 4.23-4.1a75 75 0 0 1 7.12-6.17c12.29-9.72 12.29-9.72 16.44-14.94 2.26-2.81 4.76-4.33 7.81-6.25l3.56-2.69c9.96-7.09 19.7-2.81 28.12 4.19" fill="#DDDFE0"/><path d="M562 133c15.07-.71 22.53 2.13 34 12l-1 3-2 1-1 3h-2l2 2c.48 2.06.48 2.06.75 4.44l.3 2.37C593 163 593 163 591 166h-2l-1 6-3 1 .66-1.84c2.74-8.24 3.95-15.26.34-23.41-3.33-6.01-7.82-9.39-14.06-12.06A91 91 0 0 0 562 134z" fill="#E5C056"/><path d="m756 357 2 1c.56 2.04.56 2.04 1 4.62a91 91 0 0 0 2.06 9.07c.98 3.43 1.44 6.78 1.94 10.31l1.06 3.56c.92 3.37 1.02 5.98.94 9.44l.5 2.25c.64 3.51.52 6.88.44 10.45.06 2.3.06 2.3 1.06 5.3q.13 2.94.12 5.88l.01 3.11A43 43 0 0 1 766 430l-.44 2.25L765 434l-2 1-.04-3.09c-.34-22.03-1.03-43.02-6.78-64.4-.99-3.85-1.34-6.67-.18-10.51" fill="#EAEDEC"/><path d="M687 135c7.34.31 12.77 3.53 17.77 8.89A73 73 0 0 1 709 150l1.25 1.76c4.02 6.45 3.09 13.94 2.75 21.24h-1l-1-8h-1l-.18-2.08-.26-2.73-.24-2.71C709 155 709 155 708 152h-2v-4h-2v-2h-2v-2l-5 1 .69 1.58c2.52 6.44 2.36 11.64 1.31 18.42h-1l-.01-2.49c-.28-8.09-1.57-14.29-6.99-20.51-2.7-1.77-2.7-1.77-5-3z" fill="#E8C660"/><path d="M756 376c2.46 2.46 3 4.71 4 8h1a158 158 0 0 1 2.26 28.39q-.01 3.16.01 6.33A152 152 0 0 1 761 445l-3-1 .18-2.7a997 997 0 0 0 1.38-29.42l.14-3.81c.18-5.69.36-11.37.3-17.07h-2l-1-5.25-.56-2.95C756 380 756 380 756 376" fill="#272A28"/><path d="m491 666 1.32 1.24a246 246 0 0 1 3.56 3.25c6.18 4.4 13.21 3.89 20.5 3.89l3.5-.01c10.22-.13 19.36-1.57 28.85-5.5C551 668 551 668 554 668c-.56 1.88-.56 1.88-2 4-3.25 1.12-3.25 1.12-7 2l-3 1.06c-3.33 1.04-6.55 1.49-10 1.94l-1.75.52c-9.87 2.12-26.27 1.96-34.87-3.4A28 28 0 0 1 490 668z" fill="#DFE1DF"/><path d="M537 179a39 39 0 0 1 5.62 6.81A33.7 33.7 0 0 0 560 198a107 107 0 0 0 9.81.12l2.68-.02 6.51-.1v3c-2.14 2.14-6.85 1.19-9.81 1.19l-2.49.03-2.41.01-2.2.01c-2.39-.27-4.01-1.06-6.09-2.24v-2h-4v-2l-2.88-.81C546 194 546 194 544 191c-1.95-.51-1.95-.51-4.12-.69L536 190l-.06-4.38-.04-2.46c.1-2.16.1-2.16 1.1-4.16" fill="#191208"/><path d="m932.31 560.19 2.52.94c8.44 3.24 16.25 6.97 23.17 12.87l2.56 1.5A30 30 0 0 1 967 581l-1 3-2.88-2.56c-15.1-12.84-33.48-20.7-53.12-23.44v-1c7.8-2.2 15.04.43 22.31 3.19" fill="#E1E2E4"/><path d="M488 409h1l.04 1.69a304 304 0 0 0 3.61 39.04c.52 3.41.94 6.84 1.35 10.27a168 168 0 0 1-12-2c3.09-1.76 4.23-2 8-2l-.94-3.88a90 90 0 0 1-1.81-12.86c-.25-2.26-.25-2.26-.75-4.13a36 36 0 0 1-.82-6.46l-.12-2.42-.25-5.05-.31-6.2h2z" fill="#D4D6D7"/><path d="m863 628-1 3h-2l-.88 1.81C858 635 858 635 856 638c-.72 7.03-1.29 15.07 2.54 21.3 5.03 5.87 11.51 9.54 18.46 12.7v1c-7.27-.45-12.09-3.01-17.18-8.24-4.87-5.74-9.23-11.54-8.61-19.37A70 70 0 0 1 853 638l.75-2.81c1.9-3.33 5.2-7.19 9.25-7.19" fill="#E1E1E3"/><path d="M702 136h2c3 5.75 3 5.75 3 8h3v2h2c.8 3.29 1.1 4.71 0 8h2c2 2 2 2 2.23 4.15l-.03 2.64-.02 2.85-.06 2.98-.02 3.01-.1 7.37-1-2h-2l-.04-3.37c-.34-12.62-2.65-20.72-11.6-30.04C700 140 700 140 700 138h2z" fill="#211709"/><path d="M596 147c4.73 4.11 6.45 10.48 7.39 16.52a35.5 35.5 0 0 1-8.51 24.92A38 38 0 0 1 580 198h-2v-2h4v-2h4v-2h2v-2h2v-2l4-2v-2h2v-2h2v-6h2v-20h-2v-5h-2z" fill="#D8BE6E"/><path d="M874 673c4.5-.34 7.57.57 11.73 2.2 12.02 4.22 25.71 3.43 38.27 3.8l-1 3q-5.78.08-11.56.12l-3.29.06c-5.82.03-10.66-.23-16.15-2.18l-2.38-.44c-5.59-1.2-11.31-2.62-15.62-6.56" fill="#EDEFEE"/><path d="M967 582c3.31 3.13 5.81 6.01 8 10l2 3.19c4.79 8.37 8.47 21.38 6 30.81l-2 1-.33-3.15c-1.52-13.71-4.16-25.83-13.11-36.85l-1.56-2z" fill="#E6E7E7"/><path d="M562 133c13.56-.64 21.43 1.36 32 10l-2 1-1.75-1.44A14 14 0 0 0 584 140l2 2.69c1.99 3.29 2.44 4.59 2 8.31a62 62 0 0 1-4.69-6.94c-5.06-6.7-11.07-8.6-19.19-9.8L562 134z" fill="#D7BC72"/><path d="M697 672c5.6 1.36 8.75 5.51 12 10a26 26 0 0 1 2 6l1.19 2.75c1.14 4.56.48 8.65-.19 13.25l-4-1 .18-2.75c.29-8.03.06-13.91-5.18-20.25a62 62 0 0 0-7-6z" fill="#D9DCD9"/><path d="m584 173 2 1-2 4h-2v2h-2v2h-4v2c-6.07 2.16-11.59 2.21-18 2v-2h-4v-2h-4v-2h-2l-1-4 1.62 1.31c5.52 3.92 9.98 5.29 16.63 5.31l2.04.04c6.49-.18 10.05-3.07 14.59-7.41z" fill="#E7C665"/><path d="m678.13 132.75 2.16-.02c3.78.01 5.5.13 8.72 2.27-1.2 1.56-1.2 1.56-3 3q-2.52-.45-5-1c-8.73-.73-15.17-.77-22 5l-2.5 1.81L655 145v-3c2-1.75 2-1.75 4.67-3.56l2.65-1.82c5.32-3.23 9.6-3.94 15.8-3.87" fill="#C9B57D"/><path d="M440 516h1l.08 1.99c.45 7.53 1.81 14.63 3.55 21.95.73 3.09 1.37 5.87 1.37 9.06-1.94-.56-1.94-.56-4-2-.62-3.25-.62-3.25-1-7l-1.06-3.12c-.94-2.87-1.02-4.9-.94-7.88l-.55-1.85c-.54-2.61-.15-4.33.49-6.9l.59-2.42z" fill="#E3E6E3"/><path d="m905.94 553.88 2.39.24q2.85.34 5.67.88l1 2-5.06.07-2.85.02c-3.1-.1-3.1-.1-6.15-.56-5.61-.75-11.22-.9-16.88-1.1l-3.51-.12L872 555v-1c11.24-1.87 22.66-1.3 33.94-.12" fill="#ECECEE"/><path d="m546 679 2 1-.88 2.12c-2.08 5.34-3.39 10-3.74 15.76l-.23 3.49L543 704l-4-2c-.49-8.93 1.67-15.83 7-23" fill="#DEDEE1"/><path d="M889.25 623.38C892 625 892 625 893 627l-3.75-.5c-9.3-1-17.52-1.2-26.25 2.5v-3c8.01-4.63 17.45-6.15 26.25-2.62" fill="#EEEFF2"/><path d="m491 666 1.32 1.24a246 246 0 0 1 3.56 3.25c5.61 4 11.87 3.91 18.5 4.13l2.8.12 6.82.26v1l-5 1v1c-20.62-.73-20.62-.73-25.58-5.53-1.42-1.66-1.42-1.66-3.42-4.47z" fill="#E7EAEB"/><path d="M756 642c4.96 4.13 7.36 8.76 9 15-.1 6.02-.1 6.02-2.56 8.69L761 667l-.08-2.49c-.34-6.82-1.22-12.36-4.08-18.58C756 644 756 644 756 642" fill="#ECEDEC"/><path d="m543 187 5 1v3l9 3v2h13v2h7v1c-10.95.7-19.7.71-29-6a32 32 0 0 1-5-6" fill="#D6BD6C"/><path d="M764 407c3.33 3.52 3.35 6.19 3.25 10.94l-.05 3.65A49 49 0 0 1 766 430l-.44 2.25L765 434l-2 1c-.11-9.4.01-18.64 1-28" fill="#F0F3F2"/><path d="M760 404h1l.48 14.62.17 4.97.23 7.17.08 2.22c.12 4.14-.13 7.96-.96 12.02l-3-1 .18-2.91c.77-12.36 1.31-24.72 1.82-37.09" fill="#202221"/><path d="M699 140c4.93 2.1 7.09 5.66 10 10l1.27 1.78c3.99 6.45 3.07 13.92 2.73 21.22h-1l-1-8h-1l-.18-2.08-.26-2.73-.24-2.71C709 155 709 155 708 152h-2v-4h-2v-2h-2v-2h-2z" fill="#D1BA6E"/><path d="M494 204c1.81 3.29 2.8 6.58 3.81 10.19A65 65 0 0 0 505 230l1 2-2 2c-6.46-9.78-11.04-18.01-10-30" fill="#E1E3E4"/><path d="M691 178c-6.69 5.88-11.84 7.35-20.55 7.2C668 185 668 185 665 184v-2l3.32-.11 4.37-.2 2.18-.07c6.05-.3 10.23-4.13 16.13-3.62" fill="#31280B"/><path d="M488 388h2c.16 7.76-.33 15.4-1 23.12l-.29 3.48-.71 8.4h-1c-.98-12.02-1.87-23.2 1-35" fill="#EEF1F2"/><path d="m696 192 3 1c-3.26 4.02-7.97 5.52-12.88 6.69-7.8.78-13.78.23-21.12-2.69v-1q2.5-.06 5 0l1 1q3.78.36 7.56.56l2.16.13 5.28.31 1-2 3 1v-3h6z" fill="#C5B56C"/><path d="m563.67 197.9 2.7.01 2.82.03 2.85.01 6.96.05v3c-2.15 2.15-6.84 1.23-9.81 1.25l-2.5.06c-6.1.04-6.1.04-9.26-1.83L556 199a21 21 0 0 1 7.67-1.1" fill="#251A0B"/><path d="M617 676h1l.18 2.48.26 3.27.24 3.23c.32 3.02.32 3.02.94 5.13.51 2.51-.07 4.05-.93 6.45l-.8 2.32C617 701 617 701 615 704l-4-1 1.38-2c4.21-7.77 4.16-16.34 4.62-25" fill="#DEE0E3"/><path d="M490 441c2.26 3.69 2.64 7.54 3.12 11.75l.27 2.11.61 5.14c-4.03-.56-8.02-1.16-12-2 3.09-1.76 4.23-2 8-2l-.51-1.76c-1.33-5.09-1.78-8.28.51-13.24" fill="#DBDDDD"/><path d="m832 557 3 3c-8.4 1.88-16.33 3.55-25 3 2.7-2.98 2.7-2.98 5.44-3.12l2.56.12 4-1c2.36-.29 4.71-.5 7.07-.72C831 558 831 558 832 557" fill="#F1F2F4"/><path d="M783 457v3l-3.8.15-4.95.23-2.5.09-2.42.12-2.22.09c-2.36.36-4.04 1.16-6.11 2.32l-1-3c7.78-3.22 14.64-3.32 23-3" fill="#202222"/><path d="M601 151c3 1 3 1 4.17 2.69 1.03 2.86 1.1 5.22 1.08 8.25l.02 3.09c-.27 3.02-1 5.23-2.27 7.97h-1l-.4-3.32-.54-4.37-.26-2.18c-.38-3.07-.79-6.06-1.43-9.09L600 152z" fill="#1A1307"/><path d="m548 139 2 1-2.31 2.62c-5.55 6.79-6.29 12.8-6.69 21.38l-2-4h-2c-1.02-6.46 2.41-10.95 6-16a50 50 0 0 1 5-5" fill="#CFBC8C"/><path d="M543 148c1.2 3.75 1.1 7.33 1.06 11.25l-.02 3.83L544 166h2v5l-2 1c-2.65-4.57-3.39-7.86-3.31-13.12l.01-3.64c.28-3 .72-4.71 2.3-7.24" fill="#261A0B"/><path d="M634 677h1l.26 3.62c1.38 16.39 1.38 16.39 6.74 23.38h-4c-4.13-5.55-5.44-11.24-6-18l1-1q.34-2.02.56-4.06z" fill="#E1E3E4"/><path d="M697 168h1v5h-2v3h-2v4h-2v2h-4v2h-2v2l-7-1c9-6 9-6 12-6l.75-1.56c1.65-3.21 3.45-6.32 5.25-9.44" fill="#D4BB64"/><path d="m708 673 1.96.18c9.67.86 19.35 1.34 29.04 1.82v1h-12v2c-13.82-.59-13.82-.59-19-4z" fill="#E7EAE6"/><path d="m646 174 .83 1.7c3.78 7.44 7.5 13.21 14.17 18.3l2 2c-2.25.25-2.25.25-5 0-2.31-1.88-2.31-1.88-4-4v-2h-2v-2l-1.88-.75c-2.64-1.56-3.2-2.33-4.12-5.25-.15-2.69-.09-5.3 0-8" fill="#29210F"/><path d="M855 655a44 44 0 0 1 5.69 6.38c2.84 3.22 5.81 4.92 9.56 6.93l1.97 1.09q2.38 1.32 4.78 2.6v1c-9.22-.58-14.77-5.29-20.75-12.04C855 659 855 659 855 655" fill="#E2E5E2"/><path d="M813 500c2.91 2.91 2.85 6.06 3 10a98 98 0 0 1-2 16l-2-1z" fill="#EDF0EC"/><path d="m653 173 2.06 2.19c6 5.99 11.09 8.78 19.63 9.37l3.57.26 2.74.18v1h-19v-2h-2v-2h-2v-2h-2v-2h-2z" fill="#D8BF73"/><path d="m589 153 3 1q.33 2.16.62 4.31l.36 2.43C593 163 593 163 591 166h-2l-1 6-3 1 .62-1.84A72 72 0 0 0 589 153" fill="#E0C46C"/><path d="M980 615h1l.18 2.52.26 3.29.24 3.27C982 627 982 627 983 630c-.92 3.91-2.03 7.49-4 11l-2-2c.21-1.89.21-1.89.81-4.25 1.49-6.53 1.82-13.08 2.19-19.75" fill="#D4D6D3"/><path d="M548 176c2.34.54 4.54 1.19 6.81 2a55 55 0 0 0 10.19 2v2l3 1c-7.62.77-12.21.01-18.42-4.59L548 177z" fill="#261C09"/><path d="M727 249v3a120 120 0 0 1-5 4c-1.35 2.7-1.34 5.12-1.56 8.12l-.26 3.33L720 270h-2c-.54-4.78-.79-9.24 0-14 2.56-3.18 5.41-5.1 9-7" fill="#E0E2DF"/><path d="m893 625 3.19 1.44a26 26 0 0 0 6.43 2c3.17.75 4.98 2.43 7.38 4.56-7.09-.55-13.33-2.61-20-5l3-1z" fill="#D6D7D9"/><path d="M659 192h11v2h2v2h2v2c-10.15-1.33-10.15-1.33-13.69-4.12z" fill="#E8C95C"/><path d="M578.83 138.23c3.5 2.86 6.22 5.64 8.17 9.77v2h-3v-4l-4-1-.3-1.94-.7-2.06-3-1v-2h-10v-1c4.67-1.24 8.66-1.57 12.83 1.23" fill="#201303"/><path d="M856 557v1l-7.5.94-2.11.26-8.71 1.09-2.21.28-3.47.43c2.62-3.93 4.49-3.95 9-5l2.88-.75c4.28-.34 8 .64 12.12 1.75" fill="#D7D7DA"/><path d="m784 613-1 3-6.31.5-3.55.28q-3.07.21-6.14.22v-2a50 50 0 0 1 17-2" fill="#F1F2F1"/><path d="m980 609 3 1q.37 3.4.69 6.81l.38 3.83C984 624 984 624 981 627z" fill="#EFF0F0"/><path d="m756 357 2 1c.6 2.14.6 2.14 1.06 4.81.91 5.1.91 5.1 1.56 7.33C761 372 761 372 760 375c-2.39-2.39-2.79-4.07-3.69-7.31l-.82-2.87c-.51-2.96-.27-4.94.51-7.82" fill="#F0F3EF"/><path d="M439 497h1v23l-2 1c-1.06-5.57-.83-10.34-.06-15.94l.3-2.36z" fill="#EDEFEF"/><path d="m696 161 2 2c-.22 5.6-1.73 8.67-5 13l-2-1c.38-2.94.38-2.94 1-6l2-1q1.1-3.47 2-7" fill="#2D240F"/><path d="M536 157c2.03 3.05 2.25 3.6 2.2 7.01l-.02 2.3-.06 2.38-.02 2.41-.1 5.9c-3.39-6.78-3.94-12.49-2-20" fill="#C7B46D"/><path d="M653 144h2l-.81 1.94c-2.16 5.56-4.24 11.16-5.19 17.06-2.43-3.65-2.63-4.68-2-9a59 59 0 0 1 6-10" fill="#D1C898"/><path d="m762 665 2 2a262 262 0 0 1-5 5l-2.38 2.38C754 676 754 676 750.19 675.75L747 675v-1l2.05-.48c5.51-1.44 8.86-2.41 11.95-7.52z" fill="#E7EAE7"/><path d="M710 174h2c-2.05 7.75-5.17 14.44-12 19v-3h2v-2h2l.44-1.88C705 184 705 184 706 182h2v-4h2z" fill="#D9C06C"/><path d="m673.69 134.44 3 .3 2.3.26v1l-2.33.05c-7.28.33-11.93 1.45-17.66 5.95l-2.5 1.82L655 145v-3c2.08-1.8 2.08-1.8 4.8-3.62l2.72-1.85c4.02-2.47 6.58-2.58 11.17-2.1" fill="#959174"/><path d="M747.88 2.56C751.45 4.2 753.5 5.98 756 9v3a27 27 0 0 1-6.43-4 24 24 0 0 0-7.58-4c3-2 3-2 5.88-1.44" fill="#DADADB"/><path d="M766 614c2.19.31 2.19.31 4 1h-3l-.19 1.75c-1.14 3.17-3.07 4.38-5.81 6.25h-2l-1 3-3-2 1.64-1.43 2.17-1.88 2.15-1.87c2.04-1.82 2.04-1.82 3.66-3.57z" fill="#DCDFDC"/><path d="m796 610 1 2c-9.77 3.41-9.77 3.41-13.81 2.06L781 613v-1c5.07-1.26 9.73-2.27 15-2" fill="#D7DADA"/><path d="M442 531h1a343 343 0 0 1 3 18c-1.94-.56-1.94-.56-4-2-.69-3.5-.69-3.5-1-7l-1-2q.91-3.53 2-7" fill="#D7D9D8"/><path d="M762 431c2.24 4.48 2.69 7.06 3 12l-2 3h-2l-1 3z" fill="#DEE1E0"/><path d="M547 138c0 3.51-.35 3.64-2.69 6-4 4.42-6.08 9.54-8.31 15-1.32-3.95-.3-5.35 1.31-9.12l1.37-3.26C540 144 540 144 542 143l1-3c2.06-1.19 2.06-1.19 4-2" fill="#171109"/><path d="M505 329h2c-.61 5.76-2.76 10.72-5 16h-1c-.4-6.55 1.13-10.26 4-16" fill="#EAECED"/><path d="m693 199-4 2v1c-6.11.11-11.95-.1-18-1v-1q4.38-.55 8.75-1.06l2.5-.32 2.42-.28 2.22-.27a18 18 0 0 1 6.11.93" fill="#181105"/><path d="m572 130 2 2-18 2v-3c5.4-.77 10.55-1.28 16-1" fill="#0A0803"/><path d="M539 156h1l.4 2.05.54 2.7.52 2.67q.69 3.31 1.54 6.58l-5 1-.06-5.25-.04-2.95c.09-2.46.39-4.46 1.1-6.8" fill="#E6C970"/><path d="m687 38 1 3-12 11-1-3z" fill="#D7D9D9"/><path d="m510.88 634.25 2.12.75v2l-2.12.84-2.75 1.1-2.75 1.09C503 641 503 641 501 642c.13-1.75.13-1.75 1-4 4.88-4.1 4.88-4.1 8.88-3.75" fill="#DFDEE1"/><path d="M811 522c2.4 3.59 3.4 6.66 3 11-2.44 2.5-2.44 2.5-5 4a210 210 0 0 1 2-15" fill="#D4D7D5"/><path d="M750 346a27 27 0 0 1 3.69 7.94l.82 2.59c.51 2.58.34 4.01-.51 6.47h-2l-.38-3c-.39-2.84-1-5.54-1.74-8.31C749 348 749 348 750 346" fill="#232623"/><path d="m547 176 1.77 1.28c6.72 4.49 12.18 5.69 20.23 5.72v1h-15v-2h-4v-2h-2z" fill="#BFA76A"/><path d="M586 160c1.48 2.36 2.09 3.5 1.61 6.29l-.86 2.33-.83 2.36C585 173 585 173 583 175l-3-1h2l.44-2.31C583 169 583 169 584 166h2z" fill="#241B09"/><path d="M687 135c4.56.44 7.58.85 11 4l-4 1v-2l-3-1-1 4-4-2z" fill="#D9C06B"/><path d="m820 606-2 4-2.25-.06c-2.45.05-4.41.37-6.75 1.06l1-2-2-2c4.06-.77 7.86-1.1 12-1" fill="#DADBDB"/><path d="m472.63 457.31 2.4.24 1.98.45q.48.99 1 2l-2.02.18c-8.78.83-8.78.83-12.99 1.82.81-1.94.81-1.94 2-4 3.04-1 4.51-1.03 7.63-.69" fill="#222427"/><path d="M976 639h2c.94 2.54 1.17 3.61.07 6.14l-1.38 2.11-1.37 2.14L974 651h-2c.66-4.39 2.19-7.98 4-12" fill="#E6E7E6"/><path d="M926 558v3l-16-3v-1c5.49-1.54 10.63-.79 16 1" fill="#D5D6D8"/><path d="M693 144h3v2h2c2.14 6.66 1.94 12.1 1 19h-1l-.08-2.56c-.36-7.2-1.17-12.26-4.92-18.44" fill="#C5A553"/><path d="M702 136h2l4 10c-3.57-1.79-5.43-3.07-8-6v-2h2z" fill="#141003"/><path d="M496 362h1q.08 2.84.12 5.69l.08 3.2A20 20 0 0 1 495 379h-2a94 94 0 0 1 3-17" fill="#2E3031"/><path d="M534 258h1l1 6h1c.37 7.51.37 7.51-1.5 10l-1.5 1c-1.22-3.67-.88-6.34-.56-10.19z" fill="#303233"/><path d="m532 675-1 3q-2.9.08-5.81.12l-3.27.08C519 678 519 678 516 676a99 99 0 0 1 16-1" fill="#E9ECEC"/><path d="m696 192 3 1c-2.32 2.68-4.32 3.66-7.69 4.69l-2.45.76-1.86.55v-3l3 1v-3h6z" fill="#DAC26A"/><path d="M562 133h15v4l-15-3z" fill="#C6B78A"/><path d="m490 393 3 2c.19 3.12.19 3.12 0 6l-2 1q-.61 3.49-1 7h-1l-.06-5.19-.04-2.92c.1-2.75.48-5.21 1.1-7.89" fill="#323537"/><path d="m878.25 624.88 3.27.04c.41.03.41.03 2.48.08v2c-3.55 1.16-6.56.92-10.25.57l-3.27-.32L868 627c3.48-2.14 6.21-2.22 10.25-2.12" fill="#353737"/><path d="M486 456v1l-15-1c1-2 1-2 3-2.81 4.38-.28 7.95 1.25 12 2.81" fill="#EFF1F3"/><path d="m754 217 2 2c-.32 3.97-1.84 6.71-4 10l-3-1 .84-1.64 1.1-2.17 1.09-2.15C753 220 753 220 754 217" fill="#D6D8D8"/><path d="M646 161c2.9 4.35 3.17 7.1 2.56 12.25l-.31 2.7L648 178c-2.26-3.59-2.21-6.57-2.12-10.75l.05-3.55z" fill="#E1CA78"/><path d="m513.16 674.9 3.9.04 3.91.02 3.03.04v1l-5 1v1c-6.63.25-6.63.25-10-2 1-1 1-1 4.16-1.1" fill="#D7D9D9"/><path d="M832 557a14 14 0 0 1 3 3c-4.27 1.14-7.56 2-12 2v-2c6.63-2.76 6.63-2.76 9-3" fill="#EAEAEC"/><path d="M492 452h1l1 8a168 168 0 0 1-12-2c2.26-1.37 3.46-2.08 6.12-1.69C490 457 490 457 492 458z" fill="#C2C4C5"/><path d="M761 373c2.33 3.63 2.16 6.77 2 11h-3a220 220 0 0 1-.62-4.38l-.36-2.46L759 375z" fill="#E5E8E4"/><path d="m593 189 1 3h-2v2h-2v2h-2v2h-4c1.16-3.49 2.14-4.1 5.06-6.19l2.23-1.6z" fill="#291808"/><path d="M714 163c1.93 3.87 2.23 5.15 2.12 9.25l-.05 2.7L716 177l-1-2h-2z" fill="#171009"/><path d="M568 135v1l-3.5.88-2.19.54-4.62 1.16-2.19.54-3.5.88c1-3 1-3 2.94-4.19 4.36-1.15 8.57-.97 13.06-.81" fill="#120E06"/><path d="m707 684 4 2v15h-1l-.4-2.45-.54-3.24-.52-3.2A252 252 0 0 0 707 684" fill="#EFF2F0"/><path d="M491 655a30 30 0 0 1 3.12 8.75l.51 2.42.37 1.83h-3c-1.32-2.64-1.1-4.68-1.06-7.62l.02-3.04z" fill="#2A2C2B"/><path d="M824.44 604.81c3.56.2 3.56.2 5.56 2.2l-10 2c0-4.29.1-3.96 4.44-4.2" fill="#E9E9EC"/><path d="M812 532h1q-.17 2.68-.38 5.38l-.21 3.02C812 543 812 543 810 545c-1.35-7.24-1.35-7.24.38-11z" fill="#ECEFEC"/><path d="M500 343c2 3 2 3 1.54 5.48l-.92 2.71-.89 2.73L499 356l-2-1c.51-4.32 1.2-8.03 3-12" fill="#DBDDDD"/><path d="m706 187 2 1-5 5-2.62 2.81C698 198 698 198 695 198c1.15-3.46 2.04-4.01 4.94-6.06A46 46 0 0 0 706 187" fill="#211103"/><path d="M589 166h1l1 9-5 1-1-3 3-1z" fill="#EACD56"/><path d="M722 675h17v1h-12v2l-6-1z" fill="#C5C7C6"/><path d="M759 441h1q.07 2.4.12 4.81l.08 2.71C760 451 760 451 758 454q-.33-2.12-.62-4.25l-.36-2.39c-.02-2.68.61-4.09 1.98-6.36" fill="#101112"/><path d="m651 186 1.36 1.17q5.22 4.53 10.64 8.83c-2.25.25-2.25.25-5 0-2.31-1.88-2.31-1.88-4-4v-2h-2z" fill="#231706"/><path d="M651 151a12 12 0 0 1 3 3c-.31 2.69-.31 2.69-1 5h-1l-1 7h-1l-.06-5.81-.04-3.27c.1-2.92.1-2.92 1.1-5.92" fill="#332D1E"/><path d="m505 7 2 1-1.5 1.24-1.94 1.64-1.93 1.61C500 14 500 14 499 16h-2c1.35-4.88 3.72-6.49 8-9" fill="#1E221D"/><path d="M757 625c-1.14 3.42-2 4.15-5 6h-3l-1 2c.34-3.14 1.03-4.03 3.38-6.25C754 625 754 625 757 625" fill="#E9ECEB"/><path d="M763 445c1.6 4 .29 7.05-1 11h-2c-.12-6.62-.12-6.62 1-10z" fill="#EFF2F1"/><path d="M490 378c2.43 3.64 2.08 4.93 1.62 9.19l-.33 3.29L491 393h-1c-1.33-10.56-1.33-10.56 0-15" fill="#D1D3D4"/><path d="m519 303 1 2c-1 2.16-1 2.16-2.44 4.62l-1.43 2.48L515 314h-2a25.4 25.4 0 0 1 6-11" fill="#EBEDEF"/><path d="M648 168h2v4h2v4l-3 1c-1-1-1-1-1.1-2.85z" fill="#ECCB62"/><path d="M694 134h4v2h4v2h-2l-1 2c-2.5-1.31-2.5-1.31-5-3z" fill="#201709"/><path d="M955 668c-1 3-1 3-2.75 4.12-2.4.94-4.71 1.46-7.25 1.88 1-3 1-3 3.88-4.69C952 668 952 668 955 668" fill="#EAEDEA"/><path d="M853 640h1v12l-3-2 .44-4.44.24-2.49C852 641 852 641 853 640" fill="#F1F5F6"/><path d="m836 603-2 4c-5.75-.75-5.75-.75-8-3 3.44-.62 6.49-1 10-1" fill="#D6D6D8"/><path d="m548 139 2 1-2.31 2.75A143 143 0 0 0 542 150l-2-2z" fill="#B2AF9F"/><path d="M585 136h5v2h2v2h2l-1 3-4-2.94-2.25-1.65L585 137z" fill="#33230C"/><path d="m616 697 2 2-3 5-4-1c2.75-4.88 2.75-4.88 5-6" fill="#EAECEC"/><path d="M756 209h2c1.23 5.42 1.23 5.42.06 8.38L757 219h-2z" fill="#E1E3E4"/><path d="m735 0 3.88-.19 2.17-.1L743 0l2 3-11-1z" fill="#F4F4F5"/><path d="M749 640c2.31-.25 2.31-.25 5 0 1.88 1.81 1.88 1.81 3 4l-1 3-3.5-2.94-1.97-1.65L749 641z" fill="#DCDCDE"/><path d="M905 600c5.75-.12 5.75-.12 8 1v3l-8-1z" fill="#EFF2F1"/><path d="M742 323c3 1 3 1 4.69 4.06L748 330l-3 2z" fill="#E0E0E1"/><path d="M716 257h1l1 15-1-2h-2z" fill="#0E100F"/><path d="M524 250c3.87.57 6.08 2.49 9 5l-1 3-3.44-2.88-1.93-1.61C525 252 525 252 524 250" fill="#EBEDED"/><path d="m584 173 2 1-2 4h-2v2h-3a19 19 0 0 1 5-7" fill="#CBB764"/><path d="m714 16 4 1-8 6c0-3 0-3 1.75-5.25z" fill="#1B1D1E"/><path d="m543 187 5 1v3l5 2-2 2-4-3.44-2.25-1.93L543 188z" fill="#CEB465"/><path d="M691 178c-4.31 3.94-4.31 3.94-7.81 4.25L681 182c3.34-3.49 5.15-4.13 10-4" fill="#261C0A"/><path d="m551 175 7 1v2l3 1c-4.18 1.39-6.13-.18-10-2z" fill="#121308"/><path d="M679 137c5.29.41 8.12 1.35 12 5l-5 1v-3l-7-2z" fill="#251707"/><path d="M707 25v3c-2 1.69-2 1.69-4 3l-2-1c.75-1.94.75-1.94 2-4 2.12-.75 2.12-.75 4-1" fill="#1D1F21"/><path d="m756 11 3 2c.31 3 .31 3 0 6l-2 2-1.66-6.93L755 12z" fill="#E8E8EA"/><path d="M634 677h1q.08 2.9.12 5.81l.08 3.27C635 689 635 689 633 692q-.57-2.99-1-6l1-1q.34-2.02.56-4.06z" fill="#D9DBDD"/><path d="m491 666 7 6-1 2c-3.37-1.39-4.99-2.98-7-6z" fill="#D3D6D5"/><path d="M854 641h1q.33 3.43.62 6.88l.36 3.86.02 3.26-2 2a29 29 0 0 1-.56-10.81l.31-2.96z" fill="#B2B5B5"/><path d="m932 563-1 2c-5.75-.75-5.75-.75-8-3 3.77-1.26 5.37-.37 9 1" fill="#1A1B1C"/><path d="M809 518h1l1 10-1-2h-2q-.06-3.5 0-7z" fill="#1E2120"/><path d="M759 451h1l.94 3.38C762 458 762 458 763 460l-5 1z" fill="#C9CCCA"/><path d="M488 432h1l1 12-3-1z" fill="#F1F4F6"/><path d="m732 301 5 5-1 2-3-1c-1.19-2.56-1.19-2.56-2-5z" fill="#DEE2E2"/><path d="M581 143h3c3 4.22 3 4.22 3 7h-3v-4l-4-1z" fill="#2B1D09"/><path d="M565 37c2.47 1.15 4.05 2.05 6 4v3c-2.99-1.1-3.85-1.68-5.25-4.62z" fill="#D9DCDA"/><path d="m506 2 1 3-7 5c0-3 0-3 1.31-4.39z" fill="#DEE1DD"/><path d="m755 672 2 2c-3.85 2.57-5.59 1.83-10 1v-1q1.93-.58 3.88-1.12l2.17-.64z" fill="#D6D9D6"/><path d="M745 636c3.69.5 5.6 1.1 8 4l-7-1z" fill="#F0F0F0"/><path d="M885 624c2.88-.19 2.88-.19 6 0l2 3-9-1z" fill="#E7E8EB"/><path d="M950 570c3.34.6 5.46 1.74 8 4v2l-8-4z" fill="#D9DADC"/><path d="m512 314 3 1-4 8h-1c.88-6.75.88-6.75 2-9" fill="#DDDFE1"/><path d="M497 216c2.69 2.69 3.06 5.38 4 9l-3-1c-1.25-2.94-1.25-2.94-2-6z" fill="#D8DADA"/><path d="m578 179 2 1v2h-4v2h-7l1.69-.81c2.31-1.19 2.31-1.19 4.93-2.88z" fill="#D9C16F"/><path d="m690 136 4 2v2l3 1-3 2c-2-1.81-2-1.81-4-4z" fill="#E3C351"/><path d="M775 613h9l-1 3c-3.37-.55-5.08-1.05-8-3" fill="#E4E8E6"/><path d="M488 388h2v10c-2-3-2-3-3-6 .44-2.19.44-2.19 1-4" fill="#E7E9EA"/><path d="M734 246c-1.25 3.74-2.63 4.19-6 6v-4c3-2 3-2 6-2" fill="#EAEDEA"/><path d="m578 134 7 2-2 2c-2.12-.38-2.12-.38-4-1l-1 2-1-3z" fill="#C1AB6B"/><path d="m562 33 4 4-1 3-5-6z" fill="#E9ECE8"/><path d="M533 8c3.16 1.37 3.99 1.99 6 5l-3 1c-1.5-1.31-1.5-1.31-3-3z" fill="#EBEFEC"/><path d="m735.63 1.44 2.48.3L740 2v1l-11 2V2c2.51-1.26 3.85-.92 6.62-.56" fill="#D4D6D7"/><path d="m696 161 2 2a47 47 0 0 1-3 7l-3-1 2-1q1.1-3.47 2-7" fill="#221C0E"/><path d="M542 166h4v5l-2 1z" fill="#271C0A"/><path d="M547 138c0 3 0 3-1.31 4.39L541 146c1.48-5.66 1.48-5.66 4.12-7.38z" fill="#0B0A07"/><path d="m728 2 1 3c-1.81 1.56-1.81 1.56-4 3l-3-1z" fill="#E3E5E7"/></svg>