<svg style="background:transparent" version="1.1" xmlns="http://www.w3.org/2000/svg" viewBox="0 0 1248 704"><path d="M757 16v2l1.89.69c3.52 2.19 3.65 5.44 4.58 9.3.99 5.63.82 10.89.05 16.54-.72 5.59-.88 11.21-1.08 16.85l-.13 3.53c-.33 9.63-.38 19.24-.27 28.86l.02 3.1.04 2.72c-.1 2.41-.1 2.41-.6 4.29a26 26 0 0 0-.61 6.48v2.62l.01 2.85.01 3.02.01 6.5.03 10.27q.02 12.77.06 25.52l.05 21.57q0 5.06.03 10.12l.01 6.21.01 2.85c0 13.82-5.41 29.01-15.11 39.11a174 174 0 0 1-6 4l-5 6c-2.5 1.62-2.5 1.62-5 3a324 324 0 0 0-5 4l-3 2c-3.53 11.61 4.01 24.12 9.11 34.18q1.15 2.41 2.14 4.88a98 98 0 0 0 4.75 9.44c2.26 4.09 4.23 8.17 6 12.5 1.8 4.16 3.63 8.28 5.69 12.31A29 29 0 0 1 752 340a375 375 0 0 0 6.35 21.07c1.66 4.95 2.96 10.01 4.27 15.05l.79 3.01c.56 2.73.62 5.1.59 7.87q.48 2 1 4 .29 2.66.5 5.31c.24 3.04.55 6.01 1.02 9.02.53 4.05.63 7.97.6 12.05v2.26c-.06 6.23-.13 12.39-2.12 18.36l.06 2.88c-.06 3.29-.81 5.11-2.06 8.12a166 166 0 0 0-1 7l1.87-.44c11.4-2.5 21.16-2.31 31.44 3.82 3.32 2.21 6 4.68 8.69 7.62 1.02-3.07 1.1-5.09 1.06-8.3l-.02-3.15-.08-6.55c-.1-13.77-.1-13.77 2.48-20.06a99 99 0 0 0 2.5-6.94c2.48-7.02 5.96-12.43 10.5-18.25l1.41-1.83A50 50 0 0 1 831 393l1.38-2c1.88-2.32 3.95-3.49 6.57-4.87 2.05-1.13 2.05-1.13 4.17-2.54 19.22-12.65 44.95-14.2 67-9.86q2.94.62 5.88 1.27l3.2.62c13.54 2.91 25.27 9.99 36.8 17.38l2.62 1.55A71 71 0 0 1 974 407l2.19 2.12a25.5 25.5 0 0 1 3.51 16.44c-1.65 5.75-5.19 11.02-10.45 14-8.85 3.65-18.44 1.03-27.25-1.56-3.38-1.5-3.38-1.5-6-3a614 614 0 0 0-7-3c-6.5-2.75-6.5-2.75-8.83-3.93-11.83-5.81-25.33-10.26-38.55-7.32L878 422l-2.67.78c-6.51 2.05-10.89 4.17-14.33 10.22-3.74 8.41-5.17 15.94-5.12 25.06l-.02 2.38c.01 5.51.39 10.93.88 16.42.45 5.41.67 10.84.88 16.26l.16 3.34c.51 12.65-1.26 23.93-4.99 35.99q-.8 2.6-1.54 5.23l-.75 2.63-.66 2.37A37 37 0 0 1 846 550l-1.43 2.46A81 81 0 0 1 835 566l-1.4 1.71c-5.92 7.19-12.8 12.28-20.6 17.29l-2.7 1.79c-8.05 5.27-15.8 9.38-25.3 11.21l-2-1-.73 1.7c-1.52 2.76-3.38 4.8-5.52 7.11a284 284 0 0 0-8 9A84 84 0 0 1 756 627l-2.19 1.75C752 630 752 630 750 630l-.94 1.94C748 634 748 634 747 635l1.98 1.21c7.96 5.18 13.23 10.5 15.52 19.91.66 4.52.55 7.7-1.5 11.88-6.92 7.74-13.98 9.4-24 10-13.22.66-25.52-1.73-38-6 .39 1.95.39 1.95 1 4l1.75.81c3.51 1.85 5.33 4.78 7.25 8.19 1.68 5.81 1.92 13.24 0 19q-13.75.18-27.51.26a1815 1815 0 0 0-12.78.12q-6.16.07-12.33.09-2.36.01-4.7.06-3.3.05-6.59.04l-3.79.03c-4.2-.76-5.64-2.34-8.3-5.6-3.55-7.54-5.68-18.96-3-27q.55-2.34 1.06-4.69L634 663h-16l2 4c.2 3.35.2 3.35.12 7.06l-.05 3.73L620 681q0 2.82.12 5.62c-.25 6.84-1.14 12.39-6.12 17.38-3.24.62-3.24.62-7.12.62l-2.15.01q-3.51.01-7.02-.04h-4.88q-5.1 0-10.21-.05-6.55-.05-13.11-.03l-10.07-.03-4.83-.01q-3.38 0-6.75-.05l-3.88-.03L541 704c-2.38-3.57-2.73-5.88-2-10q2.57-7.19 6-14l-1.94-.81C541 678 541 678 540 675l-3 .94c-7.38 2.3-14.81 2.17-22.44 1.81l-2.69-.08c-7.54-.34-14.87-1.22-20.31-6.86-2.74-3.7-4.87-7.09-4.56-11.81a75 75 0 0 1 6-12l1.48-2.69a16 16 0 0 1 5.08-5.06l1.82-1.23C503 637 503 637 505 636v-2c-1.69-1.48-1.69-1.48-4-3.19A145 145 0 0 1 484 616l-2.28-2.27C463.45 595.36 463.45 595.36 458 584l-2.88-5.19a143 143 0 0 1-6.24-12.82 83 83 0 0 0-2.57-5.18c-1.4-3.01-1.84-5.54-2.31-8.81l-.94-3.25a136 136 0 0 1-2.6-11.42 85 85 0 0 0-.99-4.4c-.62-2.56-.91-5.14-1.22-7.75q-.24-2.09-.54-4.17c-.97-7.28-1.03-14.68-.71-22.01l1-1q.16-2.4.25-4.81c.54-6.71 2.9-12.16 5.75-18.19l1.44-3.31c5.02-8.65 12.29-14.25 21.86-17.19 7.36-1.36 15.86-1.78 22.7 1.5l-.4-1.84-.54-2.54-.52-2.46c-.74-4.37-1.13-8.75-1.54-13.16l-.57-5.61-.55-5.7-.31-2.92-.27-2.82-.25-2.52A30 30 0 0 1 486 409q.03-2.6-.06-5.19c-.05-4.6.48-8.68 1.49-13.15.64-3 1.08-6 1.51-9.04 1.27-8.45 3.14-16.61 6.31-24.56a83 83 0 0 0 2.25-7.56A119 119 0 0 1 502 336l1.06-2.75a69 69 0 0 1 1.78-3.93c1.92-3.85 3.7-7.76 5.51-11.66a320 320 0 0 1 11.13-21.54A27 27 0 0 0 524 288q1.47-3.01 3-6c2.64-6.31 4.15-11.91 4.06-18.81l-.02-2.96L531 258l-2.69-.69c-3.79-1.5-5.52-3.38-8.31-6.31l-2.5-1.5c-3-1.8-5.1-3.97-7.5-6.5l-2.31-2.19C506 239 506 239 506 237l-1.81-.62c-6.35-4-9.34-16.22-11.19-23.38-.98-4.85-1.13-9.56-1.1-14.5l.01-2.52.01-5.43.03-8.7.06-21.68c.14-43.45.14-43.45-.45-63.25l-.06-2.04q-.35-11.86-1.3-23.7a148 148 0 0 1-.14-12.66A27 27 0 0 0 489 52c-.21-3.34-.09-6.66 0-10l.05-3.41c.36-9.49 2.3-16.19 8.39-23.53 5.21-4.19 9.35-5.64 15.98-5.41 7.37.99 14.25 5.26 19.58 10.35v2l1.75.25c2.89.96 4.14 2.58 6.25 4.75q2.5 1.52 5 3c3.73 2.59 7.36 5.29 11 8l1.77 1.31q2.73 2.03 5.42 4.07l1.75 1.29A92 92 0 0 1 570 48v2l1.75.25c2.88.96 4.11 2.61 6.25 4.75 4.78 2.95 8.88 3.44 14.37 3.4l2.48.02q4.05.03 8.08.01l5.64.02h11.81q7.55-.02 15.11.03 5.82.03 11.64.02l5.57.01q3.9.03 7.8-.01l2.3.03c7.5-.1 12.31-3.38 17.7-8.53 3.01-2.87 6-4.9 9.64-6.9 3.26-1.93 6.16-4.3 9.11-6.66l1.85-1.46c4.53-3.6 4.53-3.6 6.38-5.52 2.02-1.94 4.38-3.08 6.82-4.42 2.24-1.37 3.88-3.16 5.7-5.04q2.46-1.57 5-3 3.03-1.9 6.04-3.82c9.5-5.72 17.38-4 25.96 2.82m-68 649 1 3c2.06.69 2.06.69 4 1-1.38-2-1.38-2-3-4zm-134.92 3.78-1.83 1.16L549 672l3 3 8-6c-4-1-4-1-5.92-.22" fill="#151816"/><path d="M960.33 398.42q2.35 1.77 4.67 3.58c.38.27.38.27 2.25 1.68 4.8 3.8 9.04 8.4 10.16 14.58.2 5.16-.8 9.22-3.41 13.74-4.53 4.67-7.92 6.17-14.37 6.31l-3.46.11c-11.61-.6-23.16-7.35-33.57-12-10.61-4.66-21.63-9.26-33.41-8.86l-2.18.04c-9.37.34-16.88 3.23-24.01 9.4-8.1 9.37-9.47 19.08-9.25 31.12l.04 3.64c.09 7.27.4 14.47.98 21.71 1.88 28.66-2.5 57.62-21.1 80.38Q830.4 567.5 827 571l-1.62 1.85c-9 9.87-23.51 17.85-36.38 21.15-3.37.12-3.37.12-6 0q3.66-6.68 7.47-13.26c7.66-13.26 12.7-26.34 16.85-41.06l.77-2.7c5.23-19.38 4.26-41.72 1.4-61.42-3.36-23.43-3.5-48.25 10.8-68.35 34.67-44.8 97.67-40.02 140.04-8.79" fill="#101311"/><path d="M757 16v2l1.89.69c3.52 2.19 3.65 5.44 4.58 9.3.99 5.63.82 10.89.05 16.54-.72 5.59-.88 11.21-1.08 16.85l-.13 3.53c-.33 9.63-.38 19.24-.27 28.86l.02 3.1.04 2.72c-.1 2.41-.1 2.41-.6 4.29a26 26 0 0 0-.61 6.48v2.62l.01 2.85.01 3.02.01 6.5.03 10.27q.02 12.77.06 25.52l.05 21.57q0 5.06.03 10.12l.01 6.21.01 2.85c0 13.82-5.41 29.01-15.11 39.11a174 174 0 0 1-6 4l-5 6c-2.5 1.62-2.5 1.62-5 3a324 324 0 0 0-5 4l-3 2c-3.53 11.61 4.01 24.12 9.11 34.18q1.15 2.41 2.14 4.88a98 98 0 0 0 4.75 9.44c2.26 4.09 4.23 8.17 6 12.5 1.8 4.16 3.63 8.28 5.69 12.31A29 29 0 0 1 752 340a375 375 0 0 0 6.35 21.07c1.66 4.95 2.96 10.01 4.27 15.05l.79 3.01c.56 2.73.62 5.1.59 7.87q.48 2 1 4 .29 2.66.5 5.31c.24 3.04.55 6.01 1.02 9.02.53 4.05.63 7.97.6 12.05v2.26c-.06 6.23-.13 12.39-2.12 18.36l.06 2.88c-.06 3.29-.81 5.11-2.06 8.12a166 166 0 0 0-1 7l1.87-.44c11.4-2.5 21.16-2.31 31.44 3.82 3.32 2.21 6 4.68 8.69 7.62 1.02-3.07 1.1-5.09 1.06-8.3l-.02-3.15-.08-6.55c-.1-13.77-.1-13.77 2.48-20.06a99 99 0 0 0 2.5-6.94c2.48-7.02 5.96-12.43 10.5-18.25l1.41-1.83A50 50 0 0 1 831 393l1.38-2c1.88-2.32 3.95-3.49 6.57-4.87 2.05-1.13 2.05-1.13 4.17-2.54 19.22-12.65 44.95-14.2 67-9.86q2.94.62 5.88 1.27l3.2.62c13.54 2.91 25.27 9.99 36.8 17.38l2.62 1.55A71 71 0 0 1 974 407l2.19 2.12a25.5 25.5 0 0 1 3.51 16.44c-1.65 5.75-5.19 11.02-10.45 14-8.85 3.65-18.44 1.03-27.25-1.56-3.38-1.5-3.38-1.5-6-3a614 614 0 0 0-7-3c-6.5-2.75-6.5-2.75-8.83-3.93-11.83-5.81-25.33-10.26-38.55-7.32L878 422l-2.67.78c-6.51 2.05-10.89 4.17-14.33 10.22-3.74 8.41-5.17 15.94-5.12 25.06l-.02 2.38c.01 5.51.39 10.93.88 16.42.45 5.41.67 10.84.88 16.26l.16 3.34c.51 12.65-1.26 23.93-4.99 35.99q-.8 2.6-1.54 5.23l-.75 2.63-.66 2.37A37 37 0 0 1 846 550l-1.43 2.46A81 81 0 0 1 835 566l-1.4 1.71c-5.92 7.19-12.8 12.28-20.6 17.29l-2.7 1.79c-8.05 5.27-15.8 9.38-25.3 11.21l-2-1-.73 1.7c-1.52 2.76-3.38 4.8-5.52 7.11a284 284 0 0 0-8 9A84 84 0 0 1 756 627l-2.19 1.75C752 630 752 630 750 630l-.94 1.94C748 634 748 634 747 635l1.98 1.21c7.96 5.18 13.23 10.5 15.52 19.91.66 4.52.55 7.7-1.5 11.88-6.92 7.74-13.98 9.4-24 10-13.22.66-25.52-1.73-38-6 .39 1.95.39 1.95 1 4l1.75.81c3.51 1.85 5.33 4.78 7.25 8.19 1.68 5.81 1.92 13.24 0 19l-3-1 .11-2.6c.23-10.07-1.35-16.12-8.21-23.6-3.85-3.64-7.73-5.51-12.9-6.8v-9a77 77 0 0 1 8.6 3.84l1.99 1.03 4 2.12c10.3 5.31 20.04 6.5 31.53 6.39l3.67.03c15.4-.05 15.4-.05 20.89-4.89 3.19-3.67 2.71-7.69 2.65-12.34-.62-5.92-2.89-10.14-7.45-13.96A86 86 0 0 0 740 636a63 63 0 0 1 9.44-8c8.3-6.14 16.55-12.7 22.64-21.11 6.94-9.57 12.01-13.61 23.47-16.61C815.91 584.9 831.77 567.5 842 550c12.12-21.16 13.41-46.15 11.5-69.94-2.78-38.96-2.78-38.96 7.62-52.5 7.02-7.25 15.64-10.56 25.55-10.9 16.05-.23 29.36 6 43.84 12.33 26.16 11.39 26.16 11.39 37.6 7.24 3.44-2.15 6.29-5.17 7.44-9.09 1.23-5.84 1.27-10.5-1.93-15.7-15.61-20.97-46.77-31.62-71.5-35.63-18.33-2.36-36.49-.23-53.12 8.19l-2.97 1.49c-16.41 8.87-28.2 22.59-33.97 40.4-2.46 8.67-3.25 16.94-3.25 25.92v3.06c.06 7.86.7 15.53 1.75 23.32.42 3.68.52 7.12.44 10.81-1.89-2.83-2.46-4.47-3.25-7.69-2.51-8.6-8.43-15.23-15.75-20.31-5.31-2.75-9.47-3.47-15.31-3.38l-2.11-.03c-5.88.03-11.04 1.52-16.58 3.41l1.44-11.62.41-3.32.4-3.22.36-2.96q.4-2.9.92-5.79c4.77-31.38-2.27-64.86-13.53-94.09l-1.55-4.21a257 257 0 0 0-13.51-29.41C720.1 282.18 720.1 282.18 718 270l-.7-2.44c-.57-3.41-.49-5.27.7-8.56 4.27-4.6 9.74-7.98 14.88-11.51 13.39-9.4 20.23-21.03 23.69-36.86.79-4.83.72-9.67.72-14.56l.02-3.52.03-7.55q0-6.04.05-12.07.07-12.87.11-25.74.06-16.82.16-33.65l.01-2.05c.1-17.82.36-35.6 1.64-53.38q.76-10.33.85-20.69l.03-2.27c0-5.98-.76-11.17-4.19-16.15-5.38-4.5-10.2-5.5-17.05-5.39-5.25.69-8.76 3.31-12.95 6.39l-1.69 1.24a711 711 0 0 0-9.92 7.43 645 645 0 0 1-8.91 6.66l-2.18 1.61q-2.38 1.73-4.8 3.44c-4.19 3-7.98 6-11.52 9.76-13.58 13.57-27.56 14.05-45.83 14.07q-4.37-.04-8.75-.12c-4.92-.1-9.82-.04-14.74.05-35.96.57-35.96.57-49.68-12.01a177 177 0 0 1-4.05-4.16c-3.08-3.14-6.6-5.61-10.18-8.16l-5.76-4.3a637 637 0 0 1-6.4-4.93c-21.98-17.05-21.98-17.05-32.95-16.92-5.85.76-9.54 3.93-13.08 8.46-2.47 4.55-2.72 8.21-2.68 13.26v2.32a885 885 0 0 0 .68 26.67l.12 3.55.11 3.11q.17 3.29.45 6.56c1.02 11.66.9 23.33.9 35.03a2383 2383 0 0 0 .04 14l.01 4.15q.06 13.88.06 27.74 0 9.42.05 18.83.03 4.95.02 9.91c-.06 20.16 1.1 37.75 15.62 53.19 5.65 5.42 12.07 9.88 18.49 14.35 4.41 3.39 4.41 3.39 5.04 6.6.19 17.53-9.28 35.01-17.5 50.09-6.75 12.4-11.52 25.14-15.97 38.52l-1.49 4.3a188 188 0 0 0-9.82 59.14l-.01 2.19a185 185 0 0 0 3.95 38.14C494 456 494 456 494 460l-1.59-.44c-10.51-2.52-23.66-4.06-33.27 1.77-11.26 8.78-16 20.73-17.91 34.62-3.86 34.81 7.93 73.26 29.54 100.66q3.33 4.02 6.87 7.88 2.03 2.26 4 4.59c8.6 9.91 18.7 17.95 29.88 24.8L513 635v2l-1.94.66c-7.55 2.77-13.38 5.97-17.5 13.09a22 22 0 0 0-.44 17.19c4.88 5.36 11.2 5.75 18.03 6.2 17.96.79 33.43-2.79 49.47-10.95C563 662 563 662 565 662v8l-2.41 1.07c-8.1 3.77-13.71 7.26-17.4 15.55-1.88 5.58-1.93 11.55-2.19 17.38h-2c-2.38-3.57-2.73-5.88-2-10q2.57-7.19 6-14l-1.94-.81C541 678 541 678 540 675l-3 .94c-7.38 2.3-14.81 2.17-22.44 1.81l-2.69-.08c-7.54-.34-14.87-1.22-20.31-6.86-2.74-3.7-4.87-7.09-4.56-11.81a75 75 0 0 1 6-12l1.48-2.69a16 16 0 0 1 5.08-5.06l1.82-1.23C503 637 503 637 505 636v-2c-1.69-1.48-1.69-1.48-4-3.19A145 145 0 0 1 484 616l-2.28-2.27C463.45 595.36 463.45 595.36 458 584l-2.88-5.19a143 143 0 0 1-6.24-12.82 83 83 0 0 0-2.57-5.18c-1.4-3.01-1.84-5.54-2.31-8.81l-.94-3.25a136 136 0 0 1-2.6-11.42 85 85 0 0 0-.99-4.4c-.62-2.56-.91-5.14-1.22-7.75q-.24-2.09-.54-4.17c-.97-7.28-1.03-14.68-.71-22.01l1-1q.16-2.4.25-4.81c.54-6.71 2.9-12.16 5.75-18.19l1.44-3.31c5.02-8.65 12.29-14.25 21.86-17.19 7.36-1.36 15.86-1.78 22.7 1.5l-.4-1.84-.54-2.54-.52-2.46c-.74-4.37-1.13-8.75-1.54-13.16l-.57-5.61-.55-5.7-.31-2.92-.27-2.82-.25-2.52A30 30 0 0 1 486 409q.03-2.6-.06-5.19c-.05-4.6.48-8.68 1.49-13.15.64-3 1.08-6 1.51-9.04 1.27-8.45 3.14-16.61 6.31-24.56a83 83 0 0 0 2.25-7.56A119 119 0 0 1 502 336l1.06-2.75a69 69 0 0 1 1.78-3.93c1.92-3.85 3.7-7.76 5.51-11.66a320 320 0 0 1 11.13-21.54A27 27 0 0 0 524 288q1.47-3.01 3-6c2.64-6.31 4.15-11.91 4.06-18.81l-.02-2.96L531 258l-2.69-.69c-3.79-1.5-5.52-3.38-8.31-6.31l-2.5-1.5c-3-1.8-5.1-3.97-7.5-6.5l-2.31-2.19C506 239 506 239 506 237l-1.81-.62c-6.35-4-9.34-16.22-11.19-23.38-.98-4.85-1.13-9.56-1.1-14.5l.01-2.52.01-5.43.03-8.7.06-21.68c.14-43.45.14-43.45-.45-63.25l-.06-2.04q-.35-11.86-1.3-23.7a148 148 0 0 1-.14-12.66A27 27 0 0 0 489 52c-.21-3.34-.09-6.66 0-10l.05-3.41c.36-9.49 2.3-16.19 8.39-23.53 5.21-4.19 9.35-5.64 15.98-5.41 7.37.99 14.25 5.26 19.58 10.35v2l1.75.25c2.89.96 4.14 2.58 6.25 4.75q2.5 1.52 5 3c3.73 2.59 7.36 5.29 11 8l1.77 1.31q2.73 2.03 5.42 4.07l1.75 1.29A92 92 0 0 1 570 48v2l1.75.25c2.88.96 4.11 2.61 6.25 4.75 4.78 2.95 8.88 3.44 14.37 3.4l2.48.02q4.05.03 8.08.01l5.64.02h11.81q7.55-.02 15.11.03 5.82.03 11.64.02l5.57.01q3.9.03 7.8-.01l2.3.03c7.5-.1 12.31-3.38 17.7-8.53 3.01-2.87 6-4.9 9.64-6.9 3.26-1.93 6.16-4.3 9.11-6.66l1.85-1.46c4.53-3.6 4.53-3.6 6.38-5.52 2.02-1.94 4.38-3.08 6.82-4.42 2.24-1.37 3.88-3.16 5.7-5.04q2.46-1.57 5-3 3.03-1.9 6.04-3.82c9.5-5.72 17.38-4 25.96 2.82m-68 649 1 3c2.06.69 2.06.69 4 1-1.38-2-1.38-2-3-4zm-134.92 3.78-1.83 1.16L549 672l3 3 8-6c-4-1-4-1-5.92-.22" fill="#E4E5E6"/><path d="M673 495h1c.48 5.35-.87 8.1-3.75 12.56l-2.11 3.32c-3.27 4.77-6.4 8.75-11.14 12.12h-2v2c-2.48 1.73-2.48 1.73-5.75 3.62l-3.23 1.92C643 532 643 532 639 532l.18 1.66c1.82 17.41 2.13 34.72 2.08 52.2q-.01 5.64.01 11.26c.03 14.19-.09 28.32-1.16 42.48l-.24 3.13A125 125 0 0 1 637 660h-22l-1.44-10.38-.44-3.14c-2.19-16.29-2.32-32.69-2.31-49.1v-2.97c0-20.51.91-40.94 2.19-61.41l-2.46-1.2-3.24-1.6-3.21-1.57c-3.98-2.1-7.85-4.47-11.09-7.63v-2l-1.71-.62c-3.14-1.89-4.94-4.53-6.98-7.5l-1.22-1.77c-2.98-4.5-4.19-7.76-4.09-13.11l1.88 1.94c7.43 7.37 14.93 13.94 24.12 19.06l2.77 1.54c9.49 4.63 19.64 5.09 29.82 2.57 14.21-5.08 26.07-14.36 35.41-26.11" fill="#000"/><path d="M739 470h1c.48 17.28-.05 33.47-3.5 50.46q-.66 3.37-1.19 6.77c-1.94 11.93-5.63 23.29-9.31 34.77l-1.17 3.71a201 201 0 0 1-6.48 16.98 338 338 0 0 0-6.58 18.06q-1.16 3.38-2.34 6.74A256 256 0 0 0 701 638l-.62 2.72c-1.66 7.68-2.47 15.49-3.38 23.28-1.62.81-1.62.81-4 1-2.7-1.63-4.2-2.54-6-5-.25-3.46-.25-3.46.44-7.38l.36-2.14q.38-2.2.8-4.39.52-2.8.94-5.59c2.96-17.46 9.52-34.36 15.74-50.88a698 698 0 0 0 6.23-17.5q2.45-7.02 5.05-14c2.47-6.86 4.34-13.85 6.21-20.9a276 276 0 0 1 4.73-15.91c5.32-16.65 8.5-34.11 11.5-51.31" fill="#000101"/><path d="M757 16v2l1.89.69c3.52 2.19 3.65 5.44 4.58 9.3.99 5.63.82 10.89.05 16.54-.72 5.59-.88 11.21-1.08 16.85l-.13 3.53c-.33 9.63-.38 19.24-.27 28.86l.02 3.1.04 2.72c-.1 2.41-.1 2.41-.6 4.29a26 26 0 0 0-.61 6.48v2.62l.01 2.85.01 3.02.01 6.5.03 10.27q.02 12.77.06 25.52l.05 21.57q0 5.06.03 10.12l.01 6.21.01 2.85c0 13.82-5.41 29.01-15.11 39.11a174 174 0 0 1-6 4l-5 6c-2.5 1.63-2.5 1.63-5 3a324 324 0 0 0-5 4l-3 2c-3.53 11.61 4.01 24.12 9.11 34.18q1.15 2.41 2.14 4.88a98 98 0 0 0 4.75 9.44c2.26 4.09 4.23 8.17 6 12.5 1.8 4.16 3.63 8.28 5.69 12.31A29 29 0 0 1 752 340a375 375 0 0 0 6.35 21.07c1.66 4.95 2.96 10.01 4.27 15.05l.79 3.01c.56 2.73.62 5.1.59 7.87q.48 2 1 4 .29 2.66.5 5.31c.24 3.04.55 6 1.02 9.01.53 4.1.66 8.06.67 12.18l.03 2.18c.02 4.82-.59 8.78-2.22 13.32l-2 2-.01-3.15c-.19-31.91-3.42-61.81-14.99-91.85l-1.55-4.21a257 257 0 0 0-13.51-29.41C720.1 282.18 720.1 282.18 718 270l-.7-2.44c-.57-3.41-.49-5.27.7-8.56 4.27-4.6 9.74-7.98 14.88-11.51 13.39-9.4 20.23-21.03 23.69-36.86.79-4.83.72-9.67.72-14.56l.02-3.52.03-7.55q0-6.04.05-12.07.07-12.87.11-25.74.06-16.82.16-33.65l.01-2.05c.1-17.82.36-35.6 1.64-53.38q.76-10.33.85-20.69l.03-2.27c0-5.98-.76-11.17-4.19-16.15-5.38-4.5-10.2-5.5-17.05-5.39-5.25.69-8.76 3.31-12.95 6.39l-1.69 1.24a640 640 0 0 0-9.92 7.43 742 742 0 0 1-8.94 6.69l-2.2 1.63q-2.4 1.75-4.81 3.45c-4.1 2.93-7.81 5.81-11.23 9.51-10.17 10.27-20.01 12.32-33.94 12.51-7.69.02-15.36-.17-23.05-.43-4.99-.16-9.99-.22-14.98-.3Q600.62 61.49 586 61v-2c8.15-1.03 16.17-1.08 24.36-.98l7.16.06q10.15.05 20.31.17 6.24.07 12.49.09l4.73.05q3.3.05 6.61.05l3.79.03c6.22-.83 10.56-4.18 15.05-8.47 3.01-2.87 6-4.9 9.64-6.9 3.26-1.93 6.16-4.3 9.11-6.66l1.85-1.46c4.53-3.6 4.53-3.6 6.38-5.52 2.02-1.94 4.38-3.08 6.82-4.42 2.24-1.37 3.88-3.16 5.7-5.04q2.46-1.57 5-3 3.03-1.9 6.04-3.82c9.5-5.72 17.38-4 25.96 2.82" fill="#E4E6E6"/><path d="M512 470a29 29 0 0 1 3.11 8.9l.59 2.92.61 3.12c6.36 31.26 15.58 61.18 26.65 91.1 21.23 57.4 21.23 57.4 22.04 84.96-5.62 4-5.62 4-9 4l-.29-2.15c-4.52-33.2-13.38-64.03-26.41-94.93-12.88-30.63-17.77-64.86-17.3-97.92" fill="#000101"/><path d="m812 520 1 4h2c4.86 9.73.12 29.62-3.17 39.52q-1.23 2.9-2.57 5.73c-1.81 3.96-3.02 8.08-4.27 12.25-1.02 2.56-2.01 3.66-3.99 5.5l-1 3c-5.3 2.7-11.01 4.65-17 4 2.45-4.44 4.91-8.87 7.46-13.25 11.13-19.26 16.26-39.33 21.54-60.75" fill="#010201"/><path d="M520.63 11.63A51 51 0 0 1 533 20v2l1.74.23c2.88.98 4.14 2.59 6.25 4.77l5 3c3.73 2.57 7.37 5.29 11 8l1.77 1.3 7.16 5.36A99 99 0 0 1 570 48v2l1.74.23c2.25.77 2.25.77 4 2.57 3.02 2.95 6.45 4.45 10.25 6.2v2h84v1q-16.47.56-32.94.82-7.65.12-15.3.38c-40.44 1.41-40.44 1.41-53.86-11.02a175 175 0 0 1-3.99-4.2c-3.05-3.18-6.57-5.63-10.16-8.18a545 545 0 0 1-5.75-4.3q-3.22-2.44-6.41-4.92c-21.99-17.07-21.99-17.07-32.96-16.93-5.83.75-9.53 3.93-13.06 8.47-2.47 4.54-2.72 8.2-2.7 13.25l.01 2.32c.06 7.68.3 15.36.56 23.04l.12 3.63q.28 8.64.98 17.24c.69 9.25.56 18.5.52 27.77l-.01 5.45L495 128h-2c-.95-9.61-1.27-19.22-1.5-28.87a477 477 0 0 0-1.3-28.03c-.27-4.2-.22-8.36-.13-12.57A27 27 0 0 0 489 52c-.22-3.34-.1-6.67 0-10q.01-1.69.05-3.42c.36-9.5 2.29-16.19 8.38-23.53 7.18-5.77 14.6-6.97 23.19-3.44" fill="#E5E6E7"/><path d="M632.36 189.87A25 25 0 0 1 638 194c-.07 3.25-.07 3.25-1 7a467 467 0 0 1-6 5 95 95 0 0 0-2 7c-3.22 2.15-4.26 2.56-8 2-2.2-2.12-2.93-3.48-3.38-6.5-.87-3.47-2.8-4.43-5.62-6.5-2-3-2-3-2-5.94 1.03-3.16 1.95-4.69 4.86-6.37 5.5-1.78 12.08-1.82 17.5.18" fill="#606162"/><path d="M616 661h20l-.11 6.03-.05 5.87-.1 6c-.08 9.55.83 17.08 6.26 25.1-4.7-1.48-4.7-1.48-6.07-3.82-3.64-8.51-6.98-19.04-3.93-28.18q.55-2.34 1.06-4.69L634 663h-16l2 4c.2 3.35.2 3.35.12 7.06l-.05 3.73L620 681q0 2.82.12 5.62c-.25 6.84-1.22 12.32-6.12 17.38l-3-1 .84-1.57 1.1-2.12 1.09-2.07c2-4.62 2.09-9.08 2.07-14.07l-.01-3.92-.03-4.06-.01-4.13z" fill="#F0F1F2"/><path d="M760 84h1c1.59 15.73 1.59 15.73.5 19.92a25 25 0 0 0-.6 6.46l.01 2.63.02 2.87.02 3.03.04 6.53.04 10.31q.06 14.66.14 29.31.05 8.96.08 17.93 0 3.42.04 6.85l.03 9.54.04 2.88-.01 2.62.02 2.28L761 209l-3 2-.05-37.98-.03-17.64-.01-17.07-.02-6.46a728 728 0 0 1 .67-35.81c.2-4.1.45-8.03 1.44-12.04" fill="#EFF2F1"/><path d="M493 368h2c-.63 6.27-1.89 12.3-3.28 18.44-1.81 8.98-2 17.86-2.03 27l-.01 2.19a185 185 0 0 0 3.95 38.14C494 456 494 456 494 460l-10-2v-1h7l-.62-2.05-.82-2.83-.81-2.74c-.99-4.44-1.35-8.85-1.75-13.38l-.57-5.61-.55-5.7-.31-2.92-.27-2.82-.25-2.52A30 30 0 0 1 486 409q.03-2.6-.06-5.19a55 55 0 0 1 1.49-13.13c.89-4.17 1.43-8.38 2.01-12.6 1.45-7.97 1.45-7.97 3.56-10.08" fill="#E2E3E5"/><path d="M539 28c2.94-.25 4.57-.26 7.14 1.29l2.11 1.77 2.36 1.94 2.39 2 4.56 3.56 2.22 1.74c2.88 2.21 5.83 4.33 8.79 6.44L570 48v2l1.75.25c2.25.75 2.25.75 4 2.56 3.02 2.94 6.44 4.45 10.25 6.19v2h84v1q-16.47.56-32.94.83-7.65.1-15.31.38c-40.44 1.41-40.44 1.41-53.79-10.98a177 177 0 0 1-4-4.21c-3.26-3.36-7.04-5.99-10.84-8.71l-3.67-2.76a294 294 0 0 0-7.4-5.32L539 29z" fill="#C3C4C5"/><path d="M493 128h2l1 88-3-1a119 119 0 0 1-1.13-17.68l-.01-2.8.02-8.96v-3.08q.03-27.25 1.12-54.48" fill="#EDEFEE"/><path d="m694 169 1 2 2.38-.31c5.13.44 9.26 2.6 13.62 5.31l1 2-3.94-.88-2.51-.54q-2.34-.54-4.66-1.16c-17.52-4.61-36.23.25-51.89 8.58v-3c2.39-2.08 5.23-3.49 8-5l2.01-1.14c10.51-5.36 23.43-5.12 34.99-5.86" fill="#030504"/><path d="M492 46h1l.08 2.44a2813 2813 0 0 0 .48 15.02c.2 6.09.47 12.15.97 18.23.7 9.22.58 18.44.53 27.69l-.01 5.44L495 128h-2c-.95-9.62-1.27-19.22-1.5-28.88l-.22-8.74-.05-2.15q-.22-6.8-.82-13.56a97 97 0 0 1 .53-18.55l.3-2.98z" fill="#D9DADA"/><path d="m765 615 3 1-2.12 1.56a52 52 0 0 0-7.35 7.85c-2.48 2.57-5.19 3.48-8.53 4.59-1.12 2-1.12 2-2 4l-1 1 1.98 1.21c8.05 5.24 13.28 10.57 15.52 20.1.7 3.65.43 5.5-1.5 8.69h-1l-.48-2.82c-2.81-14.9-2.81-14.9-9.93-19.86A137 137 0 0 0 740 636a67 67 0 0 1 9.69-8.25A178 178 0 0 0 765 615" fill="#E7E8E7"/><path d="M598.28 57.85h2.17q3.53-.03 7.05-.02h4.92q5.14-.02 10.3-.02 6.6 0 13.18-.03h10.16l4.86-.03h10.7c3.24.24 5.47.84 8.38 2.25v1h-84v-2c4.14-1 8.03-1.14 12.28-1.15" fill="#F1F3F5"/><path d="M596.28 178.54C598 180 598 180 599 183c-3.44-1.32-6.7-2.85-10-4.5-14.56-6.58-32.27-6.37-47.24-1.37-2.76.87-2.76.87-5.76.87v-2c17.79-10.26 43.12-8.26 60.28 2.54" fill="#030504"/><path d="M928 378c9.96 4.02 18.97 9.22 28 15l2.6 1.54a77 77 0 0 1 6.71 4.65l2.12 1.6L969 402l-3 2-1.62-1.43C946.82 387.76 925.47 379.66 903 376c7.3-4.22 17.47-.43 25 2" fill="#DADBDD"/><path d="m761 28 3 1 .06 5.5.04 3.09c-.09 3.07-.44 6-.85 9.04-.66 6.3-.62 12.69-.77 19.02-.2 6.86-.88 13.43-2.01 20.2-.74 4.97-.93 9.94-1.09 14.96l-.12 3L759 111h-1c-.78-27.7 1.34-55.36 3-83" fill="#EDEEEE"/><path d="M762 380h2l-.06 3.25c.05 3.03.35 4.91 1.06 7.75q.29 2.66.5 5.31c.24 3.04.55 6 1.02 9.01.53 4.1.66 8.06.67 12.18l.03 2.18c.02 4.82-.59 8.78-2.22 13.32l-2 2-.08-3.47-.29-12.81-.13-5.53-.18-7.98-.05-2.47c-.12-4.65-.54-9.13-1.27-13.74-.15-2.7-.09-5.29 0-8z" fill="#EEF1EF"/><path d="M440 516h1l.18 1.69a205 205 0 0 0 8.14 39.12q1.4 4.58 2.68 9.19l-2 2c-2.84-5.3-5.33-9.95-6-16l-.94-3.25a136 136 0 0 1-2.6-11.42 82 82 0 0 0-.98-4.39c-1.6-6.42-1.66-10.77.52-16.94" fill="#EAEBED"/><path d="M867 424a33 33 0 0 1-4.44 7.19c-5.23 7.17-6.71 15.87-6.62 24.58l.02 3.94.06 6.14c.13 14.13.13 14.13-1.02 21.15h-1c-4.25-45.28-4.25-45.28 7.69-59.81 2.96-3.19 2.96-3.19 5.31-3.19" fill="#DDDDE0"/><path d="M756 98h1q.07 22.37.1 44.72l.05 20.77.04 20.03.02 7.65.02 10.71.02 3.2-.01 2.95.01 2.56c-.28 2.75-1.12 4.9-2.25 7.41h-1l.21-3.76c.72-13.65 1-27.28 1.11-40.95l.06-6.57.15-17.05.16-17.5z" fill="#060908"/><path d="m855 479 2 1q.3 6.18.56 12.38l.17 3.5c.64 14.96-2.02 27.98-6.73 42.12h-2c.76-5.77 1.95-11.35 3.28-17.01 1.96-9.72 1.94-19.86 2.28-29.74l.13-3.59z" fill="#EAEBED"/><path d="m762 431 2 2 2-1c-.55 8.18-2.17 16.02-4 24l1.91-.47c5.78-1.32 10.26-1.61 16.09-.53v1l-2.27.33-3.11.48-3.02.46c-4.63.94-9.09 2.31-13.6 3.73l1.44-11.62.41-3.32.4-3.22.36-2.96q.61-4.45 1.39-8.88" fill="#DBDEDB"/><path d="M496 213h1l.66 2.49c5.38 18.91 16.61 28.79 32.34 39.51l-2 2a35 35 0 0 1-8-6l-2.38-1.38c-3.02-1.87-5.18-4.05-7.62-6.62l-2.31-2.19C506 239 506 239 506 237l-1.8-.61c-3.13-1.98-3.9-4.29-5.39-7.64l-1.54-3.39c-1.68-4.45-2.8-7.77-1.27-12.36" fill="#E3E4E6"/><path d="M758 29h3c.13 12.42-.24 24.73-1 37.12l-.29 4.96L759 83h-1l-1-11h-1a1017 1017 0 0 1-.09-10.05c-.01-3.25.05-5.84 1.09-8.95q.22-2.76.32-5.54l.12-3.25.25-6.83z" fill="#161717"/><path d="M911 422c4.76.59 8.8 2 13.15 3.94l1.99.87 6.24 2.75 4.25 1.87q5.2 2.27 10.37 4.57v2c-4.51.4-7.06-.87-11-3a614 614 0 0 0-7-3 184 184 0 0 1-11-5 545 545 0 0 0-7-3z" fill="#EBEBEC"/><path d="M889.31 371.81h2.57c4.8.04 9.42.21 14.12 1.2l1 2-2.39-.03-10.74-.05-3.75-.02h-3.63l-3.33-.03c-3.14.12-6.08.55-9.16 1.12-2.68.11-5.32.04-8 0l1-2c7.17-2.25 14.86-2.18 22.31-2.19" fill="#E8EAEB"/><path d="M489 431h1l2.58 15.76.54 3.38.51 3.11C494 456 494 456 494 460l-10-2v-1h7l-.62-2.16c-2.45-8.69-3.99-15.08-1.38-23.84" fill="#D9DBDC"/><path d="M760 58h1l.06 12.69.03 3.63.01 3.5.01 3.23c-.1 2.78-.54 5.23-1.11 7.95q-.2 2.64-.32 5.3l-.12 2.96-.12 3.05-.13 3.11L759 111h-1c-.1-13.72-.14-27.42.44-41.12l.12-2.94c.31-6.68.31-6.68 1.44-8.94" fill="#C9CACB"/><path d="M493 22c1 3 1 3 0 6a196 196 0 0 0-.32 6.86l-.06 2-.18 6.33-.13 4.29L492 58c-2.58-2.58-2.91-4.51-3.13-8.09q.03-7.59.44-15.16l.18-3.45c.56-3.6 1.73-6.15 3.51-9.3" fill="#EFEFF1"/><path d="M489 398h1l.18 2.59.26 3.35.24 3.34C491 410 491 410 492 411q.15 4.47.12 8.94l.02 2.53-.01 2.43v2.24C492 429 492 429 491 431h-2z" fill="#202324"/><path d="M867 424a33 33 0 0 1-4.44 7.19c-3.83 5.26-5.53 11.43-6.56 17.81h-3c.62-7.17 4.73-25 14-25" fill="#DDE0DF"/><path d="M634 674h1l.11 3.18c.43 9.87 1.19 18.41 6.89 26.82-4.69-1.48-4.69-1.48-6.06-3.79-.95-2.24-1.83-4.47-2.63-6.77l-.82-2.32C632 689 632 689 633 686q.33-3.09.56-6.19l.26-3.29z" fill="#DDDFE2"/><path d="M617 677h1l.18 2.08.26 2.73.24 2.71C619 687 619 687 620 690c-.54 5.65-1.99 9.85-6 14l-3-1 1.92-3.41c2.33-4.65 2.93-8.95 3.33-14.09l.23-2.49q.28-3 .52-6.01" fill="#E3E6E7"/><path d="m543 684 2 1-2 19h-2c-2.55-3.83-2.44-5.43-2-10 1.15-3.42 2.52-6.71 4-10" fill="#DEDEE1"/><path d="M451 566h2q2.05 3.87 4.06 7.75l1.18 2.21 1.11 2.15 1.03 1.97c.76 2.34.41 3.62-.38 5.92l-3.38-4.69-1.89-2.63c-2.76-4.27-4.02-7.59-3.73-12.68" fill="#E7E9E7"/><path d="M756 361c4.95 5.45 6.59 11.71 7 19-1.49 2.21-1.49 2.21-3 4l-2-9.25-.58-2.64-.54-2.56-.51-2.35C756 365 756 365 756 361" fill="#E6E9E6"/><path d="M487 406h1l1 31-2-1c-.76-3.47-.94-7.03-1.25-10.56l-.31-2.97c-.55-6.01-.28-10.71 1.56-16.47" fill="#EFF2F2"/><path d="M490 658h1l.26 2.05c1.13 7.16 1.13 7.16 3.68 10.45 4.5 2.2 9.12 2.84 14.06 3.5-3.45 1.96-5.91 2.3-9.9 1.67-3.84-1.23-6.54-3.61-9.1-6.67-1.53-3.83-.83-7.02 0-11" fill="#D8DADC"/><path d="M473 601c6.12 4.95 13.43 10.87 17 18q-2-.98-4-2l-2.38-1.19c-5.07-3.5-8.68-8.42-11.62-13.81z" fill="#E8E8EB"/><path d="M439 496h1v26c-4-4-3.16-10.32-3.19-15.69l-.04-3.95C437 499 437 499 439 496" fill="#EFF0F0"/><path d="M758 29h3c.11 10.4.02 20.64-1 31h-1c-1.16-10.34-1.1-20.62-1-31" fill="#3A3B3B"/><path d="M734 306h3c7 13.76 7 13.76 7 17-3-1-3-1-4.82-4.09q-.96-1.92-1.87-3.85l-.97-1.96c-2.34-4.8-2.34-4.8-2.34-7.1" fill="#EAEDEB"/><path d="M757 208c2.62 3.92 2.62 3.92 3 7-.67 2.47-.67 2.47-1.75 5.06l-1.05 2.6A16 16 0 0 1 753 228c-1.54-3.08-.18-5.11.88-8.31A86 86 0 0 0 757 208" fill="#E1E3E5"/><path d="M635 668h1l2 22h2l-1 4-3-1c-1-3-1.12-4.97-1.1-8.11l.01-2.97.03-3.11.01-3.14z" fill="#252629"/><path d="M761 658h1c1 6.62 1 6.62 1 10-3.22 3.74-6.66 6.58-11.38 8.06C749 676 749 676 747 674l1.86-.55 2.45-.76 2.43-.74c2.47-1.04 3.66-1.81 5.26-3.95.73-2.48.73-2.48 1.19-5.19l.48-2.73z" fill="#D7DBD8"/><path d="M446 549a37 37 0 0 1 4.25 8.94l1.14 3.15c.61 2.91.61 2.91-.28 5.29L450 568c-4.13-6.84-5.66-11.1-4-19" fill="#D9DBDC"/><path d="m848 536 2 2c-.4 7.15-2.85 11.21-8 16l-1-2c.93-2.17.93-2.17 2.31-4.75A60 60 0 0 0 848 536" fill="#DCDCDF"/><path d="M471.01 456.9a395 395 0 0 1 7.1.05l5.9.05q.48 1.49 1 3-4.7.09-9.39.12l-2.69.05-2.58.02-2.38.03C466 460 466 460 464 458c2.71-.9 4.24-1.12 7.01-1.1" fill="#1D1E20"/><path d="M806 437h2l-1 26h-1a89 89 0 0 1-1.12-15.25l-.02-2.14c.01-3.14.14-5.61 1.14-8.61" fill="#EEF1F3"/><path d="M701 670c5.13.63 9.97 1.68 14.94 3.06l2.07.57L723 675c-3 2-3 2-6.69 1.43q-2.16-.54-4.31-1.12l-2.2-.53c-6.51-1.67-6.51-1.67-8.8-4.78" fill="#EAE9EB"/><path d="M617 664c1.49 1.06 1.49 1.06 3 3 .29 3.25.29 3.25.19 7l-.08 3.75L620 681v3l-2 3c-.97-7.69-1.11-15.26-1-23" fill="#F2F3F7"/><path d="M759 649h3c1.79 3.12 2.34 5.68 2.62 9.25l.23 2.7.15 2.05-3 2z" fill="#F2F4F3"/><path d="M488 395h1v33h-1l-.08-1.89-.36-8.61-.12-2.98c-.19-4.39-.42-8.7-1.1-13.05C486 398 486 398 488 395" fill="#D3D6D7"/><path d="M768 457h17l-1 3h-16z" fill="#1F2120"/><path d="M442 479h2c-.72 6.39-1.8 12.68-3 19-2.36-2.36-2.3-2.91-2.31-6.12.08-4.84 1.39-8.47 3.31-12.88" fill="#EAEDEC"/><path d="m811 479 2 1c1.14 3.93 1.1 7.75 1.06 11.81l-.02 3.52L814 498l-2 1c-.7-6.7-1.11-13.26-1-20" fill="#020405"/><path d="M491 446h1l1 4.75.56 2.67C494 456 494 456 494 460l-10-2v-1h7l-.56-2.69c-.42-3.16-.25-5.26.56-8.31" fill="#C3C3C5"/><path d="M496 213h1l.8 2.67 1.08 3.52 1.05 3.48c.91 2.84 1.92 5.58 3.07 8.33h-3q-1.3-2.8-2.56-5.62l-1.44-3.17c-1.11-3.55-.9-5.64 0-9.21" fill="#D9DBDC"/><path d="m560 666-4 1v2l-2.81 1.31c-2.66 1.41-4.27 2.45-6.19 4.69l-2-4a54 54 0 0 1 7.5-4.19l2.34-1.1C557 665 557 665 560 666" fill="#E1DEE1"/><path d="M780 455v1a364 364 0 0 1-20 3v-2a559 559 0 0 1 7-2l2.44-.69c3.66-.44 6.92.13 10.56.69" fill="#ECEEEE"/><path d="m810 422 3 1-.62 2.16c-1.49 5.28-2.77 10.39-3.38 15.84-3.42-6.38-3.42-6.38-2.48-10.04l.86-2.02.83-2.04.79-1.9z" fill="#DADBDD"/><path d="m755 198 2 1 .12 6.69.08 3.76A20 20 0 0 1 755 218h-1z" fill="#0C0F0F"/><path d="m768 608 2 3-9 9-3-2a89 89 0 0 1 4-4h2l.88-1.88C766 610 766 610 768 608" fill="#191B19"/><path d="M470 454q3.6-.08 7.19-.12l2.04-.06c4.06-.04 7.12.38 10.77 2.18v1c-6.74.11-13.3-.3-20-1z" fill="#EDEEF1"/><path d="m558 672 1 3-2.38.75C554 677 554 677 553 679s-1 2-3.62 3.25L547 683a17.4 17.4 0 0 1 5.5-7.19l1.84-1.54C556 673 556 673 558 672" fill="#2B2932"/><path d="M440 516h1a80 80 0 0 1 1 15h-2c-2.23-3.34-2.35-4.13-2-8q.92-3.52 2-7" fill="#D5D8D6"/><path d="M497 359h1q.3 2.13.56 4.25l.32 2.39c.17 3.4-.16 5.55-2.44 8.11L495 375c-1.27-3.81-.52-5.82.44-9.69l.87-3.57z" fill="#222324"/><path d="M791 594v3c-5.75 1.12-5.75 1.12-8 0l-1 3h-2c.19-1.88.19-1.88 1-4 3.38-1.88 6.18-2.22 10-2" fill="#E9EDEA"/><path d="M760 445h1q.33 2.66.62 5.31l.36 2.99c.02 2.7.02 2.7-1.98 5.7l2 1-4 1z" fill="#D1D4D2"/><path d="m911.56 374.19 2.32.23c2.47.68 3.48 1.64 5.12 3.58-2.89 1.45-4.9.36-7.89-.45a80 80 0 0 0-8.1-1.55c3.06-1.81 5.02-2.22 8.55-1.81" fill="#D4D7D6"/><path d="M504 631c3.48.65 6.09 1.98 9 4v2l-6 1c-3-4.75-3-4.75-3-7" fill="#DFDFE3"/><path d="M887.88 373.94h2.09l5.02.06v1l-2.14.15-2.78.23-2.79.2c-.37.08-.37.08-2.28.42l-1 2-10-2v-1a66 66 0 0 1 13.88-1.06" fill="#48494A"/><path d="m473.81 455.38 2.1.17 5.1.44v1c-.48.05-.48.05-2.86.2l-3.78.25q-1.84.11-3.72.25c-3.27.27-6.43.73-9.65 1.3v-2c4.35-2.2 8.08-2.06 12.81-1.62" fill="#C9CACD"/><path d="M616 661h20v1l-17 1-2 5h-1z" fill="#E0E2E0"/><path d="M816 410c.88 2.47 1.13 3.64.22 6.14l-1.16 2.11-1.15 2.14L813 422l-3-1 2.44-4.94 1.37-2.77C815 411 815 411 816 410" fill="#EAEBED"/><path d="M853 449h2q.37 2.4.69 4.81l.38 2.71C856 459 856 459 853 462z" fill="#EEEEF2"/><path d="M756 361c4.89 5.68 4.89 5.68 5 9-1.44 1.75-1.44 1.75-3 3-1.14-4.27-2-7.56-2-12" fill="#EEF2EE"/><path d="M533 271c2.31 3.47 2.42 4.92 2 9-1.38 1.88-1.38 1.88-3 3h-2z" fill="#272A29"/><path d="M439 531h3l2 10-3-1c-.73-2.07-.73-2.07-1.19-4.56l-.48-2.51z" fill="#E3E6E3"/><path d="M755 363c2.13 2.13 2.48 3.04 3.19 5.88l.54 2.05c.3 2.3-.04 3.88-.73 6.07-2.19-3.28-2.35-4.83-2.62-8.69l-.23-3.01z" fill="#2D302C"/><path d="M480 609c7.48 6.15 7.48 6.15 10 10q-2-.98-4-2l-2.69-1.31C481 614 481 614 480.19 611.31z" fill="#F1F4F1"/><path d="m947 436 15 2v1q-2.62.33-5.25.62l-2.95.36c-2.93.02-4.35-.45-6.8-1.98z" fill="#D1D3D2"/><path d="M577 56c3.73.5 5.81.87 9 3v2c-5.54-.49-5.54-.49-7.88-3.06z" fill="#E7E9EA"/><path d="M742 323c3 1 3 1 4.69 4.06L748 330l-3 3z" fill="#DADADC"/><path d="M749 15c3.8.54 5.47 2.2 8 5l-2 2v-2h-3v-2l-3-1z" fill="#1F1F21"/><path d="m818 578 1 3c-2.75 2.06-2.75 2.06-6 4l-4-1z" fill="#D9D9DA"/><path d="M755 217c2 3 2 3 1.31 6.62L755 227l-3 1z" fill="#D6D8DA"/><path d="M517.81 10.69c2.2 1.3 2.2 1.3 3.2 4.3-1.99-.32-1.99-.32-12-2v-1c3.31-1.38 5.25-2.17 8.8-1.3" fill="#E0E0E1"/><path d="m513 10 1 2-11 2v-2c3.64-2.43 5.71-2.16 10-2" fill="#EFEFEF"/><path d="M489 654h2l-1 10c-2-1-2-1-2.75-2.75-.32-2.89.52-4.65 1.75-7.25" fill="#EFF1F1"/><path d="m765 615 3 1-2.19 1.69A95 95 0 0 0 758 625c1.67-3.94 4.23-6.79 7-10" fill="#EEF0EF"/><path d="M856 500h1c1.02 4.37 1.17 7-1 11l-2 1v-7h1z" fill="#DDDEDF"/><path d="M493 368h2l-1 8-1-2-2-1c.88-3.88.88-3.88 2-5" fill="#DBDBDC"/><path d="m704 35 2 3-5 4-2-1c1.13-3.4 2.13-4.05 5-6" fill="#1E1F20"/><path d="m537 673-2 4c-4.75-.75-4.75-.75-7-3 3.06-.54 5.89-1 9-1" fill="#DEE1E0"/><path d="M822 405h2c-.18 2.38-.7 3.7-2.4 5.38A178 178 0 0 1 817 414c1.24-3.44 2.56-6.25 5-9" fill="#1E1F21"/><path d="m762 614 3 1-5 5-2-2z" fill="#222423"/><path d="m842 553 1 3c-1.31 2.19-1.31 2.19-3 4h-2c.31-2.38.31-2.38 1-5z" fill="#E7E7EB"/><path d="M491 446h1l1 10-3-1z" fill="#CCCDCD"/><path d="M440 489h2l-1 9-2-2c.38-3.62.38-3.62 1-7" fill="#E2E5E3"/><path d="M762 438h1l1 10-3 2z" fill="#F5F8F6"/><path d="m976 425 2 2c-.32 3.29-1.55 4.87-4 7l-2-1 1.44-1.75A14 14 0 0 0 976 425" fill="#D7D7DA"/><path d="M967 403a40 40 0 0 1 8 5l-1 3c-2.65-2.58-4.94-4.92-7-8" fill="#E2E4E6"/><path d="m918 376 8 2v2l-7-1z" fill="#EAEAEB"/><path d="M684 50c0 3 0 3-1.75 5.25L680 57l-4-1z" fill="#202024"/><path d="M571 51c2.89.4 3.82.79 5.75 3.06L578 56c-3.52 0-4.44-.7-7-3z" fill="#DADCDD"/><path d="M611 698h3c-.75 2.44-.75 2.44-2 5-2.12.81-2.12.81-4 1z" fill="#202420"/><path d="M491 655c1.46 2.92 2.34 4.92 3 8l-3 2z" fill="#2B2D2E"/><path d="M796 593v2l-5 1v-2l-2-1c3.13-1.04 3.99-.93 7 0" fill="#D7D8D8"/><path d="m456 463 2 3c-1.81 1.56-1.81 1.56-4 3l-3-1z" fill="#1E211F"/><path d="M854 442c1.56 1.81 1.56 1.81 3 4l-1 3h-3z" fill="#CCCDCD"/><path d="M856 436h2l-1 8h-2z" fill="#E0E1E2"/><path d="M867 424c-1.15 2.47-2.05 4.05-4 6l-3-1c4.75-5 4.75-5 7-5" fill="#D2D5D5"/><path d="m978 419 2 1v7h-3z" fill="#EFF0F2"/><path d="m816 414 2 1c-.81 2.94-.81 2.94-2 6l-3 1c1.88-5.75 1.88-5.75 3-8" fill="#222324"/><path d="m558 39 5 5-3 1-4-4h2z" fill="#DCDDDE"/></svg>