<svg style="background:transparent" version="1.1" xmlns="http://www.w3.org/2000/svg" viewBox="0 0 1248 704"><path d="m524 0 1 3 2.03.08c4.48 1.39 7.15 4.39 10.47 7.61l1.97 1.85a96 96 0 0 1 8.37 8.85c2.11 2.55 3.29 3.22 6.16 4.61l1.81 2.31c2.33 2.86 4.65 4.57 7.7 6.58C565 36 565 36 566 38l2.19 1.19a21 21 0 0 1 5.69 5.19 35 35 0 0 0 8.51 7.48C584 53 584 53 585.12 54.54c2.9 2.25 5.99 1.93 9.51 1.94l2.35.05q3.86.06 7.72.08l5.37.05q5.63.05 11.27.06 7.2.04 14.39.17 5.55.09 11.11.08 2.64.01 5.3.07c13.82.29 13.82.29 18.83-2.98A74 74 0 0 0 677 47a131 131 0 0 1 7.05-5.39C686 40 686 40 687.63 37.8L689 36h2l.62-1.75c1.54-2.52 3.22-3.47 5.66-5.05 3.14-2.19 5.83-4.88 8.6-7.51l3.73-3.5 1.78-1.68c3.13-2.94 6.3-5.78 9.61-8.51l2.57-2.2c5.35-4.28 9.23-6.9 16.22-6.26 3.17.66 5.48 1.7 8.21 3.46l1.81 1.14c3.81 2.51 6.15 4.69 8.19 8.86l1.56 2.67c1.66 3.83 1.85 7.04 1.81 11.12l.01 2.32-.02 7.67v5.51q0 7.48-.02 14.95-.03 7.82-.02 15.63 0 13.14-.04 26.26-.04 16.85-.04 33.71l-.03 28.97-.01 9.32-.03 14.63-.01 5.37-.02 7.33v2.16c-.02 3.28-.17 6.24-1.14 9.38l-.29 1.97c-1.14 7.11-4.72 12.17-8.71 18.03l-1.39 2.52c-1.97 3.03-4.27 5.1-6.99 7.48-2.83 2.5-5.59 4.97-8.21 7.68a19 19 0 0 1-6.53 4.38c-5.44 2.61-5.44 2.61-6.88 5.94-1.42 9.51 2 19.51 6 28l1.88 4.31c2.22 4.98 4.66 9.83 7.12 14.69l3.62 7.25 1.73 3.45L743 319l1.59 3.09a74 74 0 0 1 3.35 8.22 116 116 0 0 0 4.25 10.5A34 34 0 0 1 755 351c.92 2.51 1.97 4.93 3.06 7.38 1.14 3.17 1.46 6.28 1.94 9.62l1 2.38c1.21 3.18 1.47 6.15 1.75 9.53C763 382 763 382 764 385q.3 2.43.5 4.88c.22 2.58.48 5.04 1.03 7.58.53 2.85.53 5.46.47 8.35-.04 3.69.04 7.22.56 10.88L767 420l-1 1q-.07 2.75 0 5.5t0 5.5l-1 1c-.03 3.01.07 6.01.16 9.02-.16 3.01-.72 4.41-2.16 6.98q-.59 3.49-1 7l2.27-.44C775 453.62 784.2 452.34 794 458c9.66 7.14 15.74 15 18.46 26.71C813 487 813 487 814 489c1.09 7.9 1.1 15.91 1.12 23.88l.02 2.7A86 86 0 0 1 814 530l-.44 3.5A85 85 0 0 1 811 544l-.75 4.12c-1.15 5.45-3.59 10.27-6.01 15.26C803 566 803 566 803 567l3.25-.04 4.19-.02 2.14-.03q2.71 0 5.42.09l1 1q2.66.03 5.32-.05c9.23-.07 18.32.96 27.49 1.93l5.2.52q7.5.77 14.99 1.6l2.33.26q3.25.36 6.49.75l3.71.43c3.61.58 6.97 1.49 10.47 2.56l2.47.74c9.38 2.94 18.6 5.97 27.41 10.38l1.88.95a77 77 0 0 1 10.6 6.78 45 45 0 0 0 5.33 3.09c3.75 2.34 5.06 4.29 7.31 8.06a308 308 0 0 0 3.06 4.06A75 75 0 0 1 959 619l1.12 1.88c4.28 10.39 2.93 25.24-.95 35.51L958 659l-1.3 2.94c-1.96 3.53-4.34 6.38-7.08 9.31l-1.57 1.7C937.31 684.2 923.9 693.34 909 698q-3.59 1.47-7.14 3a62 62 0 0 1-20.28 3.39l-2.39.05-7.73.11-16.73.15q-5.8.04-11.59.16-7.02.14-14.05.17-2.67.02-5.33.09c-13.76.35-13.76.35-18.6-3.21-4.74-5.66-7.76-12.19-7.54-19.7 1.33-7.78 6.24-14.46 12.38-19.21a59 59 0 0 1 8-4l2.56-1.19c5.51-1.83 11.43-2.01 17.19-2.37l2.13-.14c3.89-.22 7.73-.32 11.62-.24 15.84.2 39.66-2.53 51.5-14.06a13.3 13.3 0 0 0 1-9c-3.87-6.3-12.3-8.65-19.13-10.61a64 64 0 0 0-5.68-.83 43 43 0 0 1-7.75-1.62c-3.65-1-6.68-1.01-10.44-.94l-2.28-.46c-12.52-2.48-26.01-1.7-38.71-1.67q-4.54.01-9.09-.01l-5.86.01-2.7-.01c-5.21.02-10.2.4-15.36 1.14l-4.75.44-5.25.56-3.06.33c-8.35 1.12-12.69 3.42-18.56 9.29A28 28 0 0 1 748 633h-2c1.24 3.72 2.71 3.99 6.02 5.77 6.11 3.81 9.69 8.78 12.17 15.42.98 4.59 1.3 8.31-.19 12.81-3.88 5.66-9.18 9.01-15.91 10.39-14.72 2.07-31.61 1.67-45.23-4.59-1.86-.8-1.86-.8-3.86-.8l1.43 1.14 1.88 1.55 1.87 1.51c5.29 5.23 7.35 12.68 8.82 19.8-.2 3.04-.76 5.76-3 8q-3.23.18-6.46.21l-8.77.1-2.32.02-12.16.08q-5.03.02-10.06.1-6.07.09-12.14.1l-4.63.05q-3.24.05-6.48.04l-3.73.03c-4.59-1.03-5.6-2.91-8.25-6.73-3.75-6.37-4.37-13.76-4-21l1-3-.06-3c.06-3 .06-3 2.06-6h-15l1 4v7l1 1c.49 5.43-.07 9.89-2 15l-.44 3c-.64 3.4-1.97 5.94-3.56 9q-14.42.1-28.84.16-6.7.01-13.39.07-6.46.05-12.92.05l-4.93.04-6.9.02-3.97.02L541 704c-2.83-4.24-1.92-7.15-1-12 1.52-6.72 4.17-11.13 9-16l2.38-2.44L553 672a241 241 0 0 0-12.74 3.02c-8.26 2.26-15.63 3.67-24.26 2.98l-2.07-.15q-3.4-.26-6.81-.6l-2.16-.19c-6.13-.69-9.86-3.08-14.27-7.25-2.74-4.56-2.93-9.26-2.44-14.5 2.95-9.08 7.69-14.14 15.96-18.43L506 636v-2l-3.44-1.81c-3.44-1.81-3.44-1.81-4.56-5.19l-2.44-.94c-3.11-1.29-3.12-2.17-4.56-5.06l-2.24-.82c-10.93-4.66-21.07-20.3-26.76-30.18-1.41-2.42-2.86-4.8-4.45-7.11-2.94-4.26-5.05-7.9-6.55-12.89q-1.2-2.64-2.44-5.25c-3.38-7.34-5.44-14.79-7.09-22.68a73 73 0 0 0-1.53-5.45c-1.05-4.04-1.41-7.91-1.69-12.07-.25-2.55-.25-2.55-.76-4.42-3.25-14.22.47-35.82 8.17-48.17L447 470l1.76-2.94c2.46-3.36 5.15-5.57 8.55-7.87l1.65-1.2c3.99-2.75 7.26-3.57 12.04-3.99l2.62-.62c2.75-.44 4.73-.12 7.44.5l2.54.55q3.2.76 6.4 1.57l-.4-1.94A226 226 0 0 1 487 439l-.52-2.7a76 76 0 0 1-.61-11.3l-.01-2.27.01-4.75-.01-7.22.01-4.63-.01-2.15c.03-5.88.72-11.52 2.08-17.23q1.16-5.1 2.06-10.25c.62-3.42 1.24-6.84 1.94-10.25l.4-1.98c.74-2.53 1.79-4.87 2.85-7.28 1.82-4.47 3.09-9.16 4.47-13.79A121 121 0 0 1 506 327l1.13-2.42q1.8-3.83 3.62-7.64l1.32-2.78a487 487 0 0 1 7.18-14.48c6.18-11.96 11.95-24.85 11.81-38.49l-.02-3.52L531 255l-2.07-.68c-3.73-1.68-6.63-3.96-9.81-6.51l-1.88-1.51c-12.88-10.41-22.38-21.37-24.24-38.3q-.35-4.5-.55-9.02l-.13-2.64c-.75-16.96-.45-33.96-.37-50.94q.07-14.54.02-29.09-.03-17.27.01-34.55.03-9.8-.01-19.59-.04-9.38.02-18.75.01-3.51-.02-7.02c-.17-20.24-.17-20.24 4.9-26.74 2.12-2.07 2.12-2.07 4.13-3.66l3.06-2.5C510.74.09 516.66-.27 524 0" fill="#171916"/><path d="m858 573 2.99.31c28.11 2.94 55.87 8.48 79.01 25.69l2.57 1.85c8.37 6.66 15.64 18.49 17.43 29.15a55.8 55.8 0 0 1-10 38c-12.73 15.3-30.59 23.97-49.12 30.25l-2.1.71a112 112 0 0 1-35.46 5.54l-4.4.03q-4.57.03-9.14.03-5.84 0-11.67.09-4.53.04-9.06.04-2.14 0-4.3.04c-12.52.18-12.52.18-17.03-3.55-4.96-5.18-6.94-10.14-7.16-17.3.18-4.69.72-7.95 3.44-11.88l1.94-3c6.97-7.87 17.63-10.13 27.65-10.86 6.11-.35 12.23-.54 18.35-.75 7.48-.28 14.73-.78 22.06-2.39l3.68-.81c9.49-2.3 22.66-5.5 28.32-14.19.68-3.16.69-5.84 0-9-6.43-9.44-21.21-12.52-31.73-14.52-21.57-3.74-43.24-3.68-65.06-3.49l-2.9.02-5.43.05c-4.42.04-8.53-.16-12.88-1.06a39 39 0 0 1 5.56-10.19c3.37-4.66 3.37-4.66 4.44-6.81h2l.32-1.64c.85-2.94 2.15-5.45 3.56-8.17 1.74-3.42 3.44-6.81 4.87-10.38 4.45-10.01 39.56-2.86 49.25-1.81" fill="#171917"/><path d="m524 0 1 3 2.03.08c4.48 1.39 7.15 4.39 10.47 7.61l1.97 1.85a96 96 0 0 1 8.37 8.85c2.11 2.55 3.29 3.22 6.16 4.61l1.81 2.31c2.33 2.86 4.65 4.57 7.7 6.58C565 36 565 36 566 38l2.19 1.19a21 21 0 0 1 5.69 5.19 35 35 0 0 0 8.51 7.48C584 53 584 53 585.12 54.54c2.9 2.25 5.99 1.93 9.51 1.94l2.35.05q3.86.06 7.72.08l5.37.05q5.63.05 11.27.06 7.2.04 14.39.17 5.55.09 11.11.08 2.64.01 5.3.07c13.82.29 13.82.29 18.83-2.98A74 74 0 0 0 677 47a131 131 0 0 1 7.05-5.39C686 40 686 40 687.63 37.8L689 36h2l.62-1.75c1.54-2.52 3.22-3.47 5.66-5.05 3.14-2.19 5.83-4.88 8.6-7.51l3.73-3.5 1.78-1.68c3.13-2.94 6.3-5.78 9.61-8.51l2.57-2.2c5.35-4.28 9.23-6.9 16.22-6.26 3.17.66 5.48 1.7 8.21 3.46l1.81 1.14c3.81 2.51 6.15 4.69 8.19 8.86l1.56 2.67c1.66 3.83 1.85 7.04 1.81 11.12l.01 2.32-.02 7.67v5.51q0 7.48-.02 14.95-.03 7.82-.02 15.63 0 13.14-.04 26.26-.04 16.85-.04 33.71l-.03 28.97-.01 9.32-.03 14.63-.01 5.37-.02 7.33v2.16c-.02 3.28-.17 6.24-1.14 9.38l-.29 1.97c-1.14 7.11-4.72 12.17-8.71 18.03l-1.39 2.52c-1.97 3.03-4.27 5.1-6.99 7.48-2.83 2.5-5.59 4.97-8.21 7.68a19 19 0 0 1-6.53 4.38c-5.44 2.61-5.44 2.61-6.88 5.94-1.42 9.51 2 19.51 6 28l1.88 4.31c2.22 4.98 4.66 9.83 7.12 14.69l3.62 7.25 1.73 3.45L743 319l1.59 3.09a74 74 0 0 1 3.35 8.22 116 116 0 0 0 4.25 10.5A34 34 0 0 1 755 351c.92 2.51 1.97 4.93 3.06 7.38 1.14 3.17 1.46 6.28 1.94 9.62l1 2.38c1.21 3.18 1.47 6.15 1.75 9.53C763 382 763 382 764 385q.3 2.43.5 4.88c.22 2.58.48 5.04 1.03 7.58.53 2.85.53 5.46.47 8.35-.04 3.69.04 7.22.56 10.88L767 420l-1 1q-.07 2.75 0 5.5t0 5.5l-1 1c-.03 3.01.07 6.01.16 9.02-.16 3.01-.72 4.41-2.16 6.98q-.59 3.49-1 7l2.27-.44C775 453.62 784.2 452.34 794 458c9.66 7.14 15.74 15 18.46 26.71C813 487 813 487 814 489c1.09 7.9 1.1 15.91 1.12 23.88l.02 2.7A86 86 0 0 1 814 530l-.44 3.5A85 85 0 0 1 811 544l-.75 4.12c-1.15 5.45-3.59 10.27-6.01 15.26C803 566 803 566 803 567l3.25-.04 4.19-.02 2.14-.03q2.71 0 5.42.09l1 1q2.66.03 5.32-.05c9.23-.07 18.32.96 27.49 1.93l5.2.52q7.5.77 14.99 1.6l2.33.26q3.25.36 6.49.75l3.71.43c3.61.58 6.97 1.49 10.47 2.56l2.47.74c9.38 2.94 18.6 5.97 27.41 10.38l1.88.95a77 77 0 0 1 10.6 6.78 45 45 0 0 0 5.33 3.09c3.75 2.34 5.06 4.29 7.31 8.06a308 308 0 0 0 3.06 4.06A75 75 0 0 1 959 619l1.12 1.88c4.28 10.39 2.93 25.24-.95 35.51L958 659l-1.3 2.94c-1.96 3.53-4.34 6.38-7.08 9.31l-1.57 1.7C937.31 684.2 923.9 693.34 909 698l-4.81 2c-8.52 3.41-16.03 4.31-25.19 4 3.24-1.92 6.53-2.69 10.14-3.55 19.28-4.61 37.66-12.52 52.86-25.45l1.83-1.43c8.96-7.78 14.38-21.41 15.51-33.03.15-13.47-4.34-25.48-13.27-35.76-33.28-31.59-87.54-32.31-130.57-33.34l-5.13-.13L798 571c1.01-3.1 2.05-6.11 3.33-9.1 10.36-24.64 14.96-57.43 5.61-83.02-3.81-8.44-9.13-14.95-17.56-19-10.34-3.72-21.27-2.88-31.38 1.12l.61-4.87.53-4.35c.42-3.44.87-6.86 1.44-10.28 5.28-33.83-.62-66.41-11.58-98.5l-.78-2.34c-4.83-14.25-11.66-27.69-18.47-41.07-14.61-28.74-14.61-28.74-11.75-43.59 2.79-3.56 6.19-5.64 10-8q2.43-1.84 4.81-3.75l2.08-1.61L737 241l2.51-1.88c10.24-8.71 16.5-22.79 17.66-36.08.28-5.4.23-10.8.2-16.2l.01-5.41q.01-7.3-.01-14.6l-.01-15.32-.02-25.7q-.04-14.84-.02-29.69l-.01-28.62-.01-12.16q.01-7.15-.02-14.3v-5.25l-.02-7.16.01-2.1c-.06-6.9-1.95-12.15-6.27-17.53-3.3-2.42-6.9-4.49-11-5l-3.12-.44c-10.52 1.19-18.13 10.08-25.43 17.07q-2.77 2.59-5.64 5.06c-4.66 4.04-9.23 8.18-13.81 12.31-12.31 11.12-12.31 11.12-18 16l-2.62 2.56c-3.54 2.92-6.93 3.19-11.4 3.18l-2.37.06q-3.86.07-7.71.08l-5.4.05q-5.66.05-11.33.05-7.21.02-14.42.18-5.58.1-11.17.08-2.65.01-5.31.08c-15.23.34-15.23.34-21.64-5.17A115 115 0 0 1 574 48a125 125 0 0 0-4.06-3.56c-4.16-3.61-8.22-7.33-12.29-11.04a547 547 0 0 0-8.49-7.49 369 369 0 0 1-6.53-5.96C524.7 3.33 524.7 3.33 512.53 3.62c-5.92.88-9.98 4.31-13.47 9-2.92 4.79-3.21 8.36-3.2 13.8l-.01 2.31-.01 7.69-.02 5.51-.02 14.97-.01 9.37q-.03 14.64-.03 29.3 0 16.9-.05 33.8-.03 13.07-.03 26.14l-.03 15.6q-.02 7.35-.01 14.7l-.01 5.37c-.09 17.95 3.1 33.04 15.95 46.51 3.92 3.74 8.1 7.05 12.42 10.31l5.06 3.94 2.23 1.71c2.68 2.11 2.68 2.11 3.02 4.88.41 10.82-2.37 19.5-6.31 29.47l-.81 2.06A233 233 0 0 1 516 313.44c-24.64 46.15-30.18 95.44-22 146.56l-1.88-.42c-9.44-2.03-22.76-4.49-31.36 1.04L459 462l-2.29 1.7c-10.81 8.71-13.96 21-15.71 34.3-.94 11.42.05 22.73 2 34l.62 3.73c7.27 39.78 31.26 72.84 63.68 96.16A48 48 0 0 0 513 635v2l-1.94.66c-7.78 2.86-14.45 6.56-18.4 14.22-1.76 5.67-1.77 11.85.84 17.18 6.83 5.3 13.95 5.4 22.25 5.25l3.25-.04c15.87-.3 30.35-3.93 44-12.27h2v8l-2.41 1.07c-9.23 4.3-14.57 8.47-18.59 17.93a78 78 0 0 0-.69 7.88l-.1 2.08L543 704h-2c-2.83-4.24-1.92-7.15-1-12 1.52-6.72 4.17-11.13 9-16l2.38-2.44L553 672a241 241 0 0 0-12.74 3.02c-8.26 2.26-15.63 3.67-24.26 2.98l-2.07-.15q-3.4-.26-6.81-.6l-2.16-.19c-6.13-.69-9.86-3.08-14.27-7.25-2.74-4.56-2.93-9.26-2.44-14.5 2.95-9.08 7.69-14.14 15.96-18.43L506 636v-2l-3.44-1.81c-3.44-1.81-3.44-1.81-4.56-5.19l-2.44-.94c-3.11-1.29-3.12-2.17-4.56-5.06l-2.24-.82c-10.93-4.66-21.07-20.3-26.76-30.18-1.41-2.42-2.86-4.8-4.45-7.11-2.94-4.26-5.05-7.9-6.55-12.89q-1.2-2.64-2.44-5.25c-3.38-7.34-5.44-14.79-7.09-22.68a73 73 0 0 0-1.53-5.45c-1.05-4.04-1.41-7.91-1.69-12.07-.25-2.55-.25-2.55-.76-4.42-3.25-14.22.47-35.82 8.17-48.17L447 470l1.76-2.94c2.46-3.36 5.15-5.57 8.55-7.87l1.65-1.2c3.99-2.75 7.26-3.57 12.04-3.99l2.62-.62c2.75-.44 4.73-.12 7.44.5l2.54.55q3.2.76 6.4 1.57l-.4-1.94A226 226 0 0 1 487 439l-.52-2.7a76 76 0 0 1-.61-11.3l-.01-2.27.01-4.75-.01-7.22.01-4.63-.01-2.15c.03-5.88.72-11.52 2.08-17.23q1.16-5.1 2.06-10.25c.62-3.42 1.24-6.84 1.94-10.25l.4-1.98c.74-2.53 1.79-4.87 2.85-7.28 1.82-4.47 3.09-9.16 4.47-13.79A121 121 0 0 1 506 327l1.13-2.42q1.8-3.83 3.62-7.64l1.32-2.78a487 487 0 0 1 7.18-14.48c6.18-11.96 11.95-24.85 11.81-38.49l-.02-3.52L531 255l-2.07-.68c-3.73-1.68-6.63-3.96-9.81-6.51l-1.88-1.51c-12.88-10.41-22.38-21.37-24.24-38.3q-.35-4.5-.55-9.02l-.13-2.64c-.75-16.96-.45-33.96-.37-50.94q.07-14.54.02-29.09-.03-17.27.01-34.55.03-9.8-.01-19.59-.04-9.38.02-18.75.01-3.51-.02-7.02c-.17-20.24-.17-20.24 4.9-26.74 2.12-2.07 2.12-2.07 4.13-3.66l3.06-2.5C510.74.09 516.66-.27 524 0" fill="#E7EAE7"/><path d="M673 495c1.31 3.92.58 5.2-1 9-2.93 5.42-6.49 10.77-11 15h-2l-.57 1.71c-2.07 3.32-5.1 4.97-8.37 6.98l-1.92 1.22A37 37 0 0 1 640 533l.09 1.96c.79 17.85 1.1 35.67 1.1 53.53l.02 8.41c.1 21.47-.1 42.95-4.21 64.1h-22l-1.44-10.5-.44-3.2c-2.1-15.7-2.32-31.36-2.31-47.18v-3.04c0-21.4.93-42.72 2.19-64.08l-2.47-1.21-6.48-3.2c-10.93-5.71-19.77-15.45-25.05-26.59-.19-3.34-.19-3.34 0-6q1.76 1.42 3.5 2.88l1.97 1.61L586 502v2l1.82.84c2.18 1.16 2.18 1.16 5.06 3.78 3.44 3.04 7.21 5.36 11.18 7.63l1.79 1.03c9.75 5.48 20.48 6.37 31.35 4.03 14.18-4.86 26.53-14.7 35.8-26.31" fill="#000"/><path d="M583.63 135.69q2.72 1.59 5.38 3.3.9.6 1.85 1.17c6.41 4.6 10.78 13.23 12.14 20.84.97 8.6-.7 17.19-5.64 24.4A71 71 0 0 1 592 191l-2.37 2.25c-8.84 5.89-17.75 8.03-28.25 6.33-8.04-2.05-15.17-7.06-20.25-13.66-4.85-8.22-7.75-16.77-5.62-26.2 2.72-9.2 8.28-17.95 16.62-23.01 9.87-5.03 21.38-5.97 31.5-1.02m-38.15 8.4c-4.8 6.19-5.44 13.3-4.48 20.9 2.16 8.13 7.13 13.7 14.25 17.95 7.05 2 13.3 2.08 20.07-.94 6.66-3.76 10.86-9.62 13.2-16.88 1.8-7.91.55-13.66-3.6-20.63-3.64-4.72-8.3-7.61-13.91-9.5-10.91-.97-18.04 1.03-25.53 9.1" fill="#EBC44E"/><path d="M700.31 139.56c6.94 5.7 12.04 14.56 13.02 23.48.14 11.12-2.09 19.76-9.9 27.95-9.2 7.63-18.82 9.75-30.43 9.01-9.45-1.39-16.5-6.69-22.44-14-5.03-9.65-6.27-19.25-3.9-29.98 3.84-10.7 12.17-17.52 22.15-22.4 11.12-2.18 22-.38 31.5 5.94m-46.97 7.48c-3.95 5.77-4.1 12.16-3.34 18.96 2.11 7.32 6.04 12.61 11.93 17.37 6.17 3.21 14.2 2.57 20.76.97 7.2-2.82 11.26-7.9 14.68-14.66 2.37-5.89 2.77-11.27.74-17.33-2.63-5.8-5.86-9.77-11.1-13.35l-2.7-1.88c-12.18-4.13-23.19.07-30.97 9.92" fill="#ECC653"/><path d="M739 474h1c.79 35.43-5.4 68.97-18.23 102a979 979 0 0 0-3.89 10.25l-.77 2.02a314 314 0 0 0-5.06 14.69c-.91 2.63-1.92 5.17-2.98 7.74a128 128 0 0 0-5.07 15.74l-.77 2.92c-3.02 12.05-4.65 24.33-6.23 36.64-6.71-1.94-6.71-1.94-9-5-1.75-10.18 1.42-20.38 4.06-30.12l1.25-4.71a260 260 0 0 1 9.8-29.92c1.72-4.36 3.3-8.78 4.89-13.19l1.02-2.81 2.01-5.56 1.89-5.22a468 468 0 0 0 10.68-33.25c1.15-4.07 2.29-8.07 3.88-11.98 2.17-5.57 3.29-11.44 4.57-17.26l1.34-6.03A991 991 0 0 0 739 474" fill="#000100"/><path d="M512 471h1l.47 2.44c6.67 34.3 15.43 67.44 27.89 100.14a766 766 0 0 1 10.7 30.17l.8 2.38c13.28 39.96 13.28 39.96 12.14 54.87-2.75 2.44-2.75 2.44-6 4-2.2-.4-2.2-.4-4-1l-.23-1.72c-1.45-10.9-3.04-21.62-5.77-32.28l-.97-4.03A213 213 0 0 0 538.4 596a542 542 0 0 1-6.15-15.98 264 264 0 0 0-3.68-9.46c-8.09-19.93-13.08-42.23-15.57-63.56l-.39-3.22c-1.07-10.87-.7-21.87-.61-32.78" fill="#000100"/><path d="M904.71 627.7c2.27 2.3 2.57 4.36 2.8 7.48-.08 3.81-.74 5.76-3.33 8.57-6.98 6.01-15.55 8.51-24.25 11l-2.2.64c-9.52 2.57-19.13 2.75-28.92 3.04-32.58 1.24-32.58 1.24-41.85 10.63-5.16 6.64-5.7 12.67-4.96 20.94 1.71 5.98 5.05 9.4 10 13l-4 1-6.06-7.23c-3.56-5.07-4.99-10.63-3.94-16.77 3-8.5 8.06-15.17 16.12-19.32q1.94-.86 3.88-1.68l2.56-1.19c5.51-1.84 11.42-2.02 17.2-2.38l2.12-.13q5.8-.35 11.62-.24c15.84.2 39.65-2.53 51.5-14.06a13.4 13.4 0 0 0 1-9c-3.87-6.3-12.3-8.65-19.14-10.62-1.87-.38-3.78-.6-5.68-.82a42 42 0 0 1-7.75-1.63c-3.64-.99-6.67-1-10.43-.93l-2.29-.46c-12.52-2.48-26-1.7-38.7-1.67h-17.65c-5.22.01-10.2.4-15.36 1.13q-2.38.23-4.75.43L777 618l-3.06.33c-8.35 1.11-12.7 3.42-18.57 9.3A28 28 0 0 1 748 633h-2c1.23 3.72 2.71 4 6.01 5.76 6.12 3.81 9.7 8.8 12.17 15.42.98 4.6 1.3 8.31-.18 12.82-3.89 5.66-9.18 9-15.92 10.4-14.7 2.06-31.6 1.66-45.23-4.6-1.85-.8-1.85-.8-3.85-.8l1.42 1.13 1.9 1.55 1.85 1.52c5.3 5.23 7.34 12.67 8.83 19.8-.1 3-.58 4.28-2 7l-3 1 .17-2.97c.28-8.12.27-14.54-5.17-21.03-4.72-5.04-9.74-8.2-16-11v-8q3.59 1.78 7.13 3.62c13.5 6.9 24.17 9.56 39.3 9.56l3.32.04c6.13.01 11.37-.44 17.25-2.22l2.13-.42c1.87-.58 1.87-.58 3.12-2.96 1.35-6.54 2.17-12.96-1.32-18.94-4.86-6.66-10.12-10.22-17.93-12.68 1.35-4.07 3.37-4.8 6.93-7.13a113 113 0 0 0 15.14-12.12c22.61-20.55 120.6-8.08 142.64 9.95" fill="#E6E8E8"/><path d="M763 412h1l1.06 9.94.32 2.86.28 2.73.27 2.52.07 1.95-1 1c-.03 3.01.07 6.01.16 9.02-.16 3.01-.72 4.41-2.16 6.98q-.59 3.49-1 7l2.27-.44C775 453.62 784.2 452.34 794 458c9.66 7.14 15.74 15 18.46 26.71C813 487 813 487 814 489c1.09 7.9 1.1 15.91 1.12 23.88l.02 2.7A86 86 0 0 1 814 530l-.44 3.5A85 85 0 0 1 811 544l-.75 4.12c-1.15 5.45-3.59 10.27-6.01 15.26C803 566 803 566 803 567l3.25-.04 4.19-.02 2.14-.03q2.71 0 5.42.09l1 1q2.66.03 5.32-.05c9.23-.07 18.32.96 27.49 1.93l5.2.52q7.5.77 14.99 1.6l2.33.26q3.25.36 6.49.75l3.71.43c3.61.58 6.97 1.49 10.47 2.56l2.47.74c9.38 2.94 18.6 5.97 27.41 10.38l1.88.95a77 77 0 0 1 10.6 6.78 45 45 0 0 0 5.33 3.09c3.75 2.34 5.06 4.29 7.31 8.06a308 308 0 0 0 3.06 4.06A75 75 0 0 1 959 619l1.12 1.88c4.28 10.39 2.93 25.24-.95 35.51L958 659l-1.3 2.94c-1.96 3.53-4.34 6.38-7.08 9.31l-1.57 1.7C937.31 684.2 923.9 693.34 909 698l-4.81 2c-8.52 3.41-16.03 4.31-25.19 4 3.24-1.92 6.53-2.69 10.14-3.55 19.28-4.61 37.66-12.52 52.86-25.45l1.83-1.43c8.96-7.78 14.38-21.41 15.51-33.03.15-13.47-4.34-25.48-13.27-35.76-33.28-31.59-87.54-32.31-130.57-33.34l-5.13-.13L798 571c1.01-3.1 2.05-6.11 3.33-9.1 10.36-24.64 14.96-57.43 5.61-83.02-3.81-8.44-9.13-14.95-17.56-19-10.34-3.72-21.27-2.88-31.38 1.12l.61-4.87.54-4.32q.66-5.42 1.39-10.84c1.29-9.65 2-19.25 2.46-28.97" fill="#E1E4E2"/><path d="m797 569 1 2h14l-2 1-1.94 6.1c-2.15 5.87-5.18 11.36-8.06 16.9h-2l-.74 2.11c-1.46 3.36-3.32 6.18-5.38 9.2l-2.2 3.24L788 612h6v1c-9.73 1.4-19.14 2.3-29 2l2.38-2.31C770 610 770 610 772 607h2l.72-1.61a69 69 0 0 1 5.78-8.64l1.22-1.68A86 86 0 0 1 785 591h2l.39-1.78a26 26 0 0 1 2.42-5.79l1.07-1.97 1.12-2.02c3.88-7.07 3.88-7.07 5-10.44" fill="#010201"/><path d="M736.69-.25c4.56.06 7.4.74 11.3 3.25l1.82 1.14c3.8 2.51 6.16 4.69 8.19 8.86l1.56 2.67c1.66 3.83 1.86 7.04 1.8 11.12l.02 2.32-.02 7.67v5.51q0 7.48-.02 14.95l-.02 15.63q0 13.14-.04 26.26-.04 16.85-.04 33.71l-.03 28.97-.01 9.32q0 7.31-.03 14.63l-.01 5.37-.02 7.33v2.16c-.01 3.29-.2 6.22-1.14 9.38v2h-3v-2.97q.08-35.72.1-71.43l.05-34.54q.03-15.05.04-30.11l.02-15.94.02-15.01v-5.51q.03-3.75 0-7.52c.02-.36.02-.36.03-2.2-.04-7.01-1.85-12.3-6.26-17.77-7.08-5.2-13.4-5.58-21.93-4.5L726 5l2.44-1.94c4.02-3.23 4.02-3.23 8.25-3.31" fill="#F2F4F3"/><path d="M632.34 184.9A37 37 0 0 1 637 188c.32 4.07.43 6.32-1.82 9.81-2.18 2.2-2.18 2.2-5.18 4.2q-1.1 3.45-2 7c-1 1-1 1-3.88 1.24-3.12-.25-3.12-.25-5-1.38-1.59-2.65-1.33-4.84-1.12-7.87l-1.82-.82c-3.52-1.9-4.85-3.2-6.18-7.06 0-3.12 0-3.12 2.25-5.94 5.4-4.29 13.66-4.74 20.1-2.29" fill="#636662"/><path d="M700.31 139.56c6.94 5.7 12.04 14.56 13.02 23.48A46 46 0 0 1 709 184h-1v-8h2c.72-16.29.72-16.29-3.13-24.18C706 150 706 150 706 148c-3.88 1.75-3.88 1.75-5 4h-2v-2l-1.75-.13c-2.25-.87-2.25-.87-3.88-3.56-2.94-4.7-7.3-7.27-12.37-9.3-7.29-1.36-13.39-.22-19.8 3.43-5.25 3.71-8.97 8.15-10.2 14.56-.8 7.91.54 13.87 4 21l-3-1v-2h-2v-5h-2c.96 9.41.96 9.41 2 14h2v2h2l-1 4c-6.86-7.57-7.7-15.29-7.35-25.09.81-9.12 4.63-15.77 11.35-21.9 13.27-10.42 29.04-10.93 43.31-1.45" fill="#E8BF54"/><path d="M583.63 135.69q2.72 1.59 5.38 3.3.9.6 1.85 1.17c6.41 4.6 10.78 13.23 12.14 20.84.96 8.52-.66 17.18-5.6 24.32A81 81 0 0 1 593 190l-1-4h2v-2h2v-4h2v-4h2q-.14-4.81-.32-9.62l-.06-2.74c-.22-5.31-.87-8.96-3.62-13.64v-2c-2.65 1.33-3.62 2.36-5 5q.8 2.4 1.63 4.8c.8 4.74-.75 9.86-2.62 14.2-2.12 1.36-2.12 1.36-4 2v4h-4q-1 1.97-2 4h-4v2h-6c3-2 3-2 4.86-3.01 6.59-3.66 9.38-8.13 12.45-14.86 1.83-8.38.96-14.27-3.47-21.7-3.43-4.5-7.58-6.67-12.85-8.43q-2.94-.14-5.87-.12l-3.12-.01c-2.78.12-5.3.5-8 1.13 1-2 1-2 3.58-3.1 8.76-2.32 17.84-2.2 26.03 1.79" fill="#E4C161"/><path d="m552 137 2 1-1.86 1.47c-6.33 5.24-9.5 8.98-10.44 17.16-.31 6.52.61 11.91 4.3 17.37 3.71 4.05 7.62 7.49 13 9v1h-10v2h-3l1 4h3v2h2v2l8 2v2h18c-5.04 3.36-10.8 2.52-16.63 1.57-8.04-2.04-15.17-7.06-20.24-13.65-4.84-8.23-7.74-16.77-5.62-26.19 2.61-8.83 7.57-15.72 14.49-21.73z" fill="#D5B860"/><path d="m727.25 5.31 1.75.7-1.4.98c-5.89 4.3-11.23 9.08-16.6 14.01l-5.13 4.62-2.51 2.26a416 416 0 0 1-6.3 5.55q-4.83 4.23-9.56 8.57A593 593 0 0 1 674 54l-2.61 2.56c-3.59 2.97-7.03 3.14-11.55 3.07l-2.41.02q-3.92.02-7.85-.02h-5.47q-5.72.02-11.43-.04-7.34-.04-14.67 0-5.64.01-11.28-.02h-5.41q-3.77.02-7.55-.04l-2.26.02c-5.06-.09-5.06-.09-7.5-2.59L583 55l1.52.48c3.4.71 6.77.72 10.23.77l2.35.05q10.72.18 21.45.25 7.19.05 14.38.18 6.97.14 13.95.16 2.64.01 5.29.1c13.8.33 13.8.33 18.8-2.92A77 77 0 0 0 677 47c2.29-1.9 4.64-3.65 7.05-5.4C686 40 686 40 687.63 37.8L689 36h2l.63-1.75c1.53-2.52 3.21-3.48 5.65-5.05 3.14-2.2 5.83-4.88 8.59-7.5l3.71-3.5 1.78-1.67q4.7-4.4 9.64-8.53l1.96-1.74C725 5 725 5 727.25 5.31" fill="#EBEDEE"/><path d="M616 662h20l-.11 5.81-.08 7.63-.07 3.82c-.08 9.4.91 16.85 6.26 24.74-4.88-2.07-6.74-5.35-9-10-2.17-6.39-3.16-13.52-1-20l-.06-3c.06-3 .06-3 2.06-6h-15l1 4v7l1 1c.49 5.43-.07 9.89-2 15l-.44 3c-.63 3.4-1.91 5.98-3.56 9l-4-1 .84-1.61 1.1-2.14 1.09-2.11c1.96-4.33 2.09-8.13 2.07-12.87l-.01-3.93-.03-4.09-.01-4.14z" fill="#F3F6F1"/><path d="M871 654v3c-7.4.86-14.75 1.21-22.19 1.44-32.58 1.23-32.58 1.23-41.85 10.63-5.16 6.63-5.71 12.66-4.96 20.93 1.71 5.99 5.06 9.41 10 13l-4 1q-1.95-2.3-3.88-4.62l-2.17-2.61c-3.56-5.07-4.99-10.62-3.95-16.77 2.99-8.5 8.06-15.17 16.12-19.31q1.93-.87 3.88-1.69l2.56-1.19c5.51-1.83 11.43-2.01 17.19-2.37l2.12-.14c3.97-.23 7.9-.32 11.88-.24 5.08.08 9.84-.73 14.82-1.72C869 653 869 653 871 654" fill="#E5E7E7"/><path d="m756 210 1 2h2c-.16 7.31-4.01 12.09-8 18l-1.39 2.52c-1.97 3.03-4.27 5.1-6.99 7.48-2.83 2.5-5.59 4.97-8.21 7.68a19 19 0 0 1-6.53 4.38c-5.44 2.61-5.44 2.61-6.88 5.94-.95 6.39.63 12.27 2.34 18.4.66 2.6.66 2.6.66 5.6l-2 1c-3.21-8.64-6.24-17.78-4-27 2.82-3.53 6.19-5.64 10-8q2.43-1.84 4.81-3.75l2.08-1.61L737 241l2.51-1.88c8.79-7.48 13.69-18.15 16.49-29.12" fill="#E6E9E5"/><path d="m684 133 2 2h-2v2l-2.93-.18c-9.41-.32-16.66.33-23.94 6.86-5.4 5.83-6.57 11.61-6.47 19.42.54 4.67 2.3 8.7 4.34 12.9l-3-1v-2h-2v-5h-2c.96 9.41.96 9.41 2 14h2v2h2l-1 4c-6.85-7.56-7.7-15.29-7.34-25.09.8-9.12 4.62-15.77 11.34-21.91 8.52-6.68 16.12-9.11 27-8" fill="#D9C171"/><path d="M472 453c2 .05 2 .05 4.44.31l2.43.24C481 454 481 454 483 456l-3.22.3c-12.64 1.28-20.93 4-29.78 13.7-10.42 14.28-9.75 35.21-10 52h-2c-4.07-13.98-.34-35.48 6.5-48.19A96 96 0 0 1 447 470l1.76-2.94c2.46-3.36 5.15-5.57 8.55-7.87l1.65-1.2c3.98-2.73 7.28-3.53 12.04-3.99z" fill="#E3E5E4"/><path d="M773 616c-2.77 3.01-5.12 3.71-9 5a41 41 0 0 0-8.56 6.56A28 28 0 0 1 748 633h-2c1.24 3.72 2.71 3.99 6.02 5.77 6.17 3.84 9.79 8.85 12.17 15.61.82 3.68.7 5.99-.19 9.62h-2l-.26-1.91c-1.46-8.89-4.78-15.14-11.83-20.84-3.13-2.05-6.34-3.12-9.91-4.25 1.35-4.06 3.37-4.8 6.94-7.12a76 76 0 0 0 12.31-9.94c4.68-4.42 7.45-4.85 13.75-3.94" fill="#E9EBEA"/><path d="M754 40h1l1 159h1v11c-3-3-3-3-3.37-5.98l.01-3.72-.01-2.08.03-6.89v-4.94q0-6.7.04-13.42l.02-14.01.06-26.55q.05-15.12.07-30.23.04-31.09.15-62.18" fill="#1C1F1D"/><path d="M822.44 611.75h2.42c14.08.04 14.08.04 19.14 1.25v1l-3.51.08-12.93.29-5.6.13-8.04.18-2.52.05-2.36.06-2.08.05c-2.08.17-3.94.64-5.96 1.16q-3.3.3-6.62.5c-8.18.54-16.28 1.27-24.38 2.5l1-2-5-1v-1c18.82-1.91 37.5-3.3 56.44-3.25" fill="#D4D6D4"/><path d="M648 168h2v5h2l2.06 2.12c6.57 6.68 12.19 9.52 21.63 9.87l2.31.01c-1.27 1.49-1.27 1.49-3 3-3.69.19-3.69.19-7 0v-2h-4v2h-2v-2h-2l-2 6c-3.88-1.75-3.88-1.75-5-4 .44-2.12.44-2.12 1-4h-2v-2h-2c-2.4-4.65-2.2-8.91-2-14" fill="#ECC95E"/><path d="m727.25 5.31 1.75.7-1.4.98c-5.89 4.3-11.23 9.08-16.6 14.01l-5.13 4.62-2.51 2.26a416 416 0 0 1-6.3 5.55q-4.83 4.23-9.56 8.57c-7.34 6.67-7.34 6.67-9.94 9l-1.81 1.62A27 27 0 0 1 670 56c1.58-4.12 4.58-6.6 7.81-9.44l3.15-2.8c.25-.24.25-.24 1.54-1.38a106 106 0 0 0 4.26-4.23C689 36 689 36 691 36l.63-1.75c1.53-2.52 3.21-3.48 5.65-5.05 3.14-2.2 5.83-4.88 8.59-7.5l3.71-3.5 1.78-1.67q4.7-4.4 9.64-8.53l1.96-1.74C725 5 725 5 727.25 5.31" fill="#E2E3E3"/><path d="M488 411h1l.08 3.1c.54 15.44 2.73 30.63 4.92 45.9l-1.94-.42c-5.07-1.05-10-1.87-15.18-2.2l-3.39-.23L471 457v-1h12l1-2 6 2-.4-1.94A226 226 0 0 1 487 439l-.62-3.06c-.42-3.28.08-5.69.62-8.94q.36-4.18.56-8.38l.13-2.23z" fill="#C8CAC8"/><path d="m524 0 1 3 2.31.31c2.86.73 3.85 1.46 5.69 3.69l-1 3-1.61-1.06-2.14-1.38-2.11-1.37C521.16 3.42 515.56 3.27 510 4c-6.16 2.38-9.63 6.49-13 12a25 25 0 0 0-1.32 7.67l-.37 8.37L495 39h-1c-2.24-20.02-2.24-20.02.5-26.61A36 36 0 0 1 501 6l3.06-2.5C510.74.09 516.66-.27 524 0" fill="#E7EAE6"/><path d="M586 149c3.29 3.82 3.51 6.36 3.35 11.28-.98 7.63-4.43 14.74-10.35 19.72-6.18 4.07-12.71 5.03-20 4l-3-2h12v-2h6v-2h2v-2l6-2 .38-2.12c.62-2.88.62-2.88 1.62-5.6 1.1-3.62 1.41-6.88 1.62-10.66l.23-3.77z" fill="#2D220B"/><path d="M440 517h1l.33 2.75c1.84 14.61 4.75 28.37 9.67 42.25l2 6-2 2a120 120 0 0 1-9.53-27.91 84 84 0 0 0-1.53-5.65c-1.97-7.22-2.13-12.24.06-19.44" fill="#E0E3DF"/><path d="M586.55 137.2c2.69 1.98 4.49 4.1 6.45 6.8l-1.68-.87A96 96 0 0 0 584 140v2h2v2h2v7a49 49 0 0 1-4.56-6.94c-3.45-4.34-7.17-6.4-12.44-8.06a51 51 0 0 0-17 1c1-2 1-2 3.59-3.1 10.32-2.73 19.65-1.73 28.96 3.3" fill="#D2BB6B"/><path d="M633 663h2c1.3 2.61 1.06 4.43.99 7.35l-.05 3.27q-.06 3.4-.15 6.8c-.12 8.94 1.13 16.08 6.21 23.58-4.88-2.07-6.74-5.35-9-10-2.17-6.39-3.16-13.52-1-20l-.06-3c.06-3 .06-3 2.06-6l-2-1z" fill="#EAEBEB"/><path d="m813 661 3 1-2.19 1.69c-4.91 4.03-9.76 8.17-11.81 14.31-.67 7.4-.63 13.92 4 20a49 49 0 0 0 6 5l-4 1q-1.95-2.3-3.88-4.62l-2.17-2.61c-3.56-5.07-4.99-10.62-3.95-16.77 2.89-8.21 7.8-14.2 15-19" fill="#E7E8E9"/><path d="M762 397h1l.05 13.29.03 4.51.02 6.52.01 3.95c-.11 3.68-.52 7.1-1.11 10.73l-3-1q.14-6.68.32-13.34l.1-4.54.17-6.53.09-3.97A33 33 0 0 1 762 397" fill="#272925"/><path d="m756 210 1 2h2c-.16 7.31-4.01 12.09-8 18l-1.43 2.57c-1.78 2.76-3.76 4.61-6.26 6.74l-2.45 2.12L739 243l-3-1 2.5-1.81c9.26-7.75 14.57-18.71 17.5-30.19" fill="#DDE0DE"/><path d="m552 137 2 1-1.86 1.47c-6.81 5.64-9.59 9.38-10.53 18.15A299 299 0 0 0 541 168l-2-4-2 6h-1c-.82-9.59.23-16.18 6-24 6.15-7.08 6.15-7.08 10-9" fill="#D4BE7A"/><path d="M538 170c2.44.75 2.44.75 5 2 .81 2.12.81 2.12 1 4h2v2h2v2l-3 1-1 7c-3.73-3.21-5.4-6.36-7-11-.25-3.38-.25-3.38 0-6z" fill="#E8C257"/><path d="M599 152c3.68 3.68 4.15 8.66 4.38 13.69-.24 9.65-3.61 17.54-10.38 24.31l-1-4h2v-2h2v-4h2v-4h2z" fill="#DFC56E"/><path d="m678.06 132.81 3.22-.04C684 133 684 133 686 135h-2v2l-2.93-.18c-8.38-.29-15.1-.03-22.07 5.18a35 35 0 0 0-8 11l-2-1c2.64-7.6 8.23-12.36 15.31-15.94 4.75-2.2 8.5-3.22 13.75-3.25" fill="#CABA89"/><path d="M542 152h2v14h2v6h2v2h2l1 3 3 1v2l4 1c-1.75.69-1.75.69-4 1-6.54-3.88-10.63-9.89-13-17q-.13-2.78-.12-5.56l-.01-2.94c.13-2.5.13-2.5 1.13-4.5" fill="#271908"/><path d="M703 143c5.87 5 9.6 12.2 10.24 19.85A45 45 0 0 1 709 184h-1v-8h2c.73-16.29.73-16.29-3.12-24.18C706 150 706 150 706 148h-2z" fill="#DABE6D"/><path d="M736.69-.25c4.56.06 7.4.74 11.3 3.25l1.9 1.07c3.8 2.34 4.94 3.21 6.05 7.74L756 15q-.75-1.07-1.5-2.19C750.6 8.43 745.84 5.1 740 4c-4.78-.18-9.27.23-14 1l2.44-1.94c4.02-3.23 4.02-3.23 8.25-3.31" fill="#E3E4E3"/><path d="M748 637a21 21 0 0 1 9.19 5.88l2.04 2.05c3.32 3.89 4.66 8.11 5.77 13.07-.38 3.44-.38 3.44-1 6h-2l-.26-1.91c-1.52-9.24-4.84-15.15-12.38-20.77L748 640z" fill="#E3E5E6"/><path d="M495 207c2 3 2 3 2.75 6.44 2.43 10.16 7.97 18.25 15.25 25.56l-2 2c-16.32-17.38-16.32-17.38-17-31z" fill="#DCDFDC"/><path d="M687 661c3.2 1.54 6.22 3.29 9.25 5.12l2.7 1.64L701 669l-1 3h-2l-3 1c-2.04-.78-2.04-.78-4.19-1.94l-2.17-1.15L687 669z" fill="#ECEEED"/><path d="m619 676 2 1c.22 5.5-.03 9.79-2 15l-.44 3c-.63 3.4-1.91 5.98-3.56 9l-4-1 .84-1.61 1.1-2.14 1.09-2.11c2.49-5.48 2.3-11.18 2.59-17.12L617 677z" fill="#E9ECE9"/><path d="m658 180 3.25 1.94c5.36 2.73 10.83 2.86 16.75 3.06-1.27 1.49-1.27 1.49-3 3-3.69.19-3.69.19-7 0v-2h-4v2h-2v-2h-2l-2 6c-3.88-1.75-3.88-1.75-5-4l2-1c3-4.5 3-4.5 3-7" fill="#DBBC5F"/><path d="M535 162h1l1 7 1-7c3.4 1.82 4.43 3.78 5.75 7.25 2.6 6.3 7.16 10.27 13.25 13.19l2 .56v1c-6.36.49-6.36.49-9.44-1.88C548 180 548 180 548 178h-2v-2h-2l-.75-1.94C542 172 542 172 539.88 171.25L538 171l-2 3a20 20 0 0 1-1.06-7.69l.02-2.45z" fill="#C5AB62"/><path d="M854 570v2c-9.17.09-18.34.17-27.5-.38l-3.59-.21C820 571 820 571 817 569c12.48-1.6 24.55-.31 37 1" fill="#EAECED"/><path d="M697 152c2.9 4.34 2.79 7.9 2 13-2.46 6.72-5.12 11.78-11 16 .88-4.75.88-4.75 2-7h2v-2h2v-9l3-1z" fill="#281B07"/><path d="m519.25-.06 2.7.03L524 0l1 3 2.31.32c2.86.73 3.85 1.45 5.69 3.68l-1 3-3.13-2.37c-5.76-3.68-12.2-4-18.87-4.63V1c3.16-.93 5.97-1.1 9.25-1.06" fill="#EDF0EE"/><path d="M812 502h3l.06 10.06.03 2.86c.02 5.14-.2 10.01-1.09 15.08l-4 1z" fill="#D5D8D6"/><path d="M488 395h1c.13 10.72-.2 21.31-1 32l-2-1q-.08-5.9-.11-11.8-.02-2.99-.07-5.98l-.02-3.8-.03-3.51C486 398 486 398 488 395" fill="#F0F1F1"/><path d="M533 8a39 39 0 0 1 9.56 7.44l2.26 2.31L547 20l2.21 2.04c1.87 2.04 2.4 3.26 2.79 5.96q-5.6-4.77-11.12-9.62-4.34-3.82-8.88-7.38z" fill="#E4E5E6"/><path d="m833.08 656.12 3.52.15 3.65.17 3.7.15 9.05.41v1l-2.3.15-10.51.72-3.62.24c-7.31.52-14.4 1.4-21.57 2.9v-2l3.75-1.45 2.1-.8c4.27-1.5 7.69-1.84 12.23-1.64" fill="#F1F3F4"/><path d="M809 481h2c4.66 11.15 3.94 21.18 3 33h-1l-.37-3.16Q810.89 495.91 809 481" fill="#DFE2DF"/><path d="M587 166a14 14 0 0 1 3 3c-.12 2.12-.12 2.12-1 4l-3 1v4h-4l-2 4h-4v2h-6c3-2 3-2 4.87-3.01 6.4-3.56 9.82-8.05 12.13-14.99" fill="#CDB864"/><path d="m688.16 134.56 2.46.88 2.48.87 1.9.69-3 1v4h2c1.06 1.8 1.06 1.8 2 4l-1 3-1.5-2.7c-2.64-4-6.37-6.03-10.5-8.3l1-3c2-1 2-1 4.16-.44" fill="#D8BF70"/><path d="M489 401h1v10h2q.12 4.18.19 8.38l.07 2.4A72 72 0 0 1 492 428l-3 2z" fill="#202222"/><path d="M667 196h5v2h14v-2h8c-4.1 4.1-9.47 4.15-15 4.25a37 37 0 0 1-13-2.25z" fill="#CCBC69"/><path d="M492 374h1c-.86 9.02-1.93 18.01-3 27h-1c-2.65-12.43-2.65-12.43 0-19l1.62-4.44z" fill="#DADBDD"/><path d="m569.13 132.69 2.13-.05c4.2 0 6.7.37 9.75 3.36-6.63 1.13-6.63 1.13-10 0q-2.95-.14-5.88-.12l-3.12-.01c-2.78.12-5.3.5-8 1.13 1-2 1-2 3.54-3.1 3.9-1.02 7.58-1.23 11.58-1.21" fill="#B5AB87"/><path d="m481 454 2 2-3.22.33c-7.32.81-14.01 1.57-20.78 4.67l-1-2c7.48-4.58 14.18-7.23 23-5" fill="#E9E9EB"/><path d="m672 130 2.44.44c4.17.66 8.36 1.12 12.56 1.56v1l-2.93.08c-7.43.32-13.41.87-20.21 4.18L662 138l-2-1 3-2c.69-2.12.69-2.12 1-4h8z" fill="#171208"/><path d="M634 677h1l.11 2.53c.53 9.09 1.7 16.81 6.89 24.47-3.9-1.73-5.88-3.54-8.09-7.16-2.02-6.32-.65-13.35.09-19.84" fill="#D1D3D4"/><path d="M763 412h1q.62 4.84 1.19 9.69l.36 2.76c.59 5.24.78 8.18-2.55 12.55-.69 3.81-.69 3.81-1 7h-1c-.07-3.85-.09-7.4.47-11.22.59-4.24.87-8.44 1.09-12.72l.13-2.36z" fill="#DADCD9"/><path d="M759 373c4.96 4.64 4.78 9.61 5 16l.19 3.56C764 395 764 395 762 397l-1.5-8.62-.43-2.45A61 61 0 0 1 759 373" fill="#E8EBE7"/><path d="M532 260h2c.66 8.17-.87 15.43-4 23l-2 1c.64-5.55 1.5-11.01 2.56-16.5l.42-2.2z" fill="#E8EBE9"/><path d="M761 657h1c1.18 3.35 2.01 6.43 2 10-2.52 4.22-6.45 7.2-11 9-3.75-.38-3.75-.38-7-1v-1c8-2 8-2 10.19-2.41L758 671c2.08-4.49 2.5-9.13 3-14" fill="#D5D7D7"/><path d="M650 155h2l.18 1.83.26 2.42.24 2.39c.3 2.18.74 4.24 1.32 6.36h2c-.38 2.44-.38 2.44-1 5l-2 1c-2.96-6.53-3.35-11.87-3-19" fill="#2B200E"/><path d="M800 680h1l.26 2.6c1.2 9.73 3.49 14.69 10.74 21.4-4 0-4 0-6.11-1.98l-2.08-2.64-2.1-2.61c-3.44-5.58-2.67-10.59-1.71-16.77" fill="#D2D5D5"/><path d="M761 654c.58 11.97.58 11.97-3 17l-3 1-2-2 2-1.31c3.13-4.21 2.31-8.62 2-13.69 3-1 3-1 4-1" fill="#1C1E1E"/><path d="M959 621c4.36 4.36 3.15 12.53 3.23 18.33C962 642 962 642 960 645l-.18-3-.26-4-.13-2.07a150 150 0 0 0-1.05-10.81L958 622z" fill="#EFF0EF"/><path d="M574.77 136.53c5.48 2.6 8.06 5.31 11.23 10.47l-2 3v-4h-4v-2h-2v-4l-2.94-.38L572 139l-1-2c2-1 2-1 3.77-.47" fill="#2C1E0E"/><path d="m727.19 5.38 1.8.62-1.4 1a165 165 0 0 0-14.5 12.15C711 20.99 711 20.99 709 22c.38-4.55 3.68-6.81 6.89-9.62l1.64-1.49c6.73-6.01 6.73-6.01 9.67-5.51" fill="#D9DADA"/><path d="M446 549c1.78 3.42 3.29 6.93 4.75 10.5l1.42 3.41c.83 3.09.83 3.09-.03 5.5L451 570l-2.44-5.31-1.37-2.99c-2.12-4.8-2.07-7.54-1.19-12.7" fill="#D9DBDB"/><path d="M669 136c8.08-.75 13.35.01 20.23 4.39L691 142v3l-3-1v-2l-1.88-.38C684 141 684 141 682 139a93 93 0 0 0-6.62-1.12l-3.61-.51L669 137z" fill="#2D200C"/><path d="M439 497h1v25h-2c-.98-3.17-1-5.69-.66-8.98l.28-2.84.32-2.93.3-2.98z" fill="#ECEFEC"/><path d="m697.04 138 2.14 1.44 2.17 1.44L703 142l-1 2h-2v-2h-2v2h-2l-1 2-1-4h-2v-4c3-1 3-1 5.04 0" fill="#DEBE5E"/><path d="M534 258h1l1 6h1c.17 4.92.25 8.5-2 13h-3z" fill="#2C2F2D"/><path d="m701 192 1 4-2.25.81C697 198 697 198 695.19 199.69c-3.48 2.08-6.28 1.03-10.19.31z" fill="#2E210D"/><path d="M669 136a91 91 0 0 1-4.87 3.08c-5.99 3.5-10.35 7.36-13.13 13.92l-2-1c2.37-6.91 7.65-11.79 13.81-15.56C666 135 666 135 669 136" fill="#ACAA91"/><path d="M536 179c3.49 1.16 3.78 1.82 5.56 4.88l1.26 2.11L544 188l2 3-2 1v-2h-2v-2h-4v-2h-2z" fill="#21170A"/><path d="m538 170 3 2c.26 2.06.26 2.06.12 4.44-.14 3.02-.1 4.63.88 7.56h2l-1 4c-4-5.42-6.21-10.15-6-17z" fill="#E2C76E"/><path d="M773 616c-2.76 3-5.12 3.76-9 5l-2.69 1.69L759 624l-3-1c5.38-5.75 9.03-8.16 17-7" fill="#E9ECE9"/><path d="m734.29-.1 2.78.04 2.78.02L742 0v3l-1.72.18A364 364 0 0 0 726 5l2.44-1.94C732.26 0 732.26 0 734.29-.1" fill="#F1F4F1"/><path d="M818.94 568.38C820 570 820 570 820 571h-22l1-2 11 1v-2c6.5-1.36 6.5-1.36 8.94.38" fill="#CCCFD0"/><path d="M811 497h1v24h-1l-1-5h-1l.44-6.12.24-3.45c.3-3.18.75-6.29 1.32-9.43" fill="#242621"/><path d="M579 134h9v2h4v6l-4.81-2.88-2.71-1.61A164 164 0 0 1 579 134" fill="#2D1C0C"/><path d="m729 244 2 1c-1.32 3.95-3.05 4.55-6.56 6.69l-3.07 1.88L719 255l-1-3z" fill="#232622"/><path d="m577.72 193.9 3.34.04 3.35.02 2.6.04c-1.7 2.04-2.65 2.92-5.27 3.51l-2.43.18-2.45.2-1.86.11-1-3c1-1 1-1 3.72-1.1" fill="#E3C564"/><path d="M488 431h1l1 7.19.29 2.04c.49 3.62.82 7.12.71 10.77l-3-2c-.12-2.31-.12-2.31 0-5l-.56-2.31c-.61-3.75-.01-6.94.56-10.69" fill="#F0F3F0"/><path d="m546 191 2.16 1.24c5.22 2.94 9.98 5.46 15.84 6.76v1a207 207 0 0 1-4.31.19l-2.43.1c-2.79-.36-3.4-1.27-5.26-3.29-3.19-.69-3.19-.69-6-1z" fill="#271807"/><path d="M802 691h3q2.07 2.95 4 6a89 89 0 0 0 4 4c-2.29.24-2.29.24-5 0-1.8-1.68-1.8-1.68-3.31-3.88l-1.55-2.17C802 693 802 693 802 691" fill="#222522"/><path d="M857 615q2.88-.08 5.75-.12l3.23-.08c2.94.2 4.54.67 7.02 2.2l-1 2-2.69-.5c-3.31-.5-3.31-.5-5.93-.38-2.99-.15-4.1-1.28-6.38-3.12" fill="#EDEFF1"/><path d="M950 609h3c1.64 2.05 1.64 2.05 3.25 4.75l1.64 2.67c1.11 2.58 1.11 2.58.78 4.91L958 623a49 49 0 0 1-5.69-9.25l-1.32-2.7z" fill="#D7D9D8"/><path d="M697 150h2c1.15 2.3 1.12 3.58 1.1 6.13l-.01 2.44-.03 2.55-.01 2.58-.05 6.3h-2v2h-2l1-2.88a36.4 36.4 0 0 0 0-19.12" fill="#EBC97C"/><path d="M692 132v2h6l-1 4-13-4c3.23-2.15 4.28-2.2 8-2" fill="#2E220C"/><path d="M951 658h2c-.25 4.31-.58 6.5-3.38 9.88C947 670 947 670 944 671l2-4 1.5-3.06C949 661 949 661 951 658" fill="#22231F"/><path d="m491 654 1.94 2.44A31 31 0 0 0 496 660q.06 2.5 0 5l-5 1z" fill="#272629"/><path d="M768 457h15l-1 3q-2.94.12-5.88.19l-3.3.1L770 460z" fill="#22261F"/><path d="M740 3c2.44 1 2.44 1 4 2-1.88 1.88-5.04 1.39-7.56 1.56l-3.63.26L730 7l1-3c3.02-1.51 5.66-1.17 9-1" fill="#282B28"/><path d="m859.69 570.88 3 .04 2.3.08 1 3c-5.14.1-9.91-.15-15-1 3.43-2.28 4.69-2.22 8.7-2.12" fill="#D4D4D6"/><path d="M697 152c2.17 3.26 2.25 4.23 2.19 8l-.02 2.62C699 165 699 165 698 168h-4v-5l3-1z" fill="#514220"/><path d="M510 2v2c-1.61 1.08-1.61 1.08-3.75 2.25-4.05 2.41-5.97 4.66-8.25 8.75-.75-1.69-.75-1.69-1-4 2.95-4.72 7.22-9 13-9" fill="#E2E5E2"/><path d="m717 674 25 1v1q-5.68.3-11.38.56l-3.27.17-3.12.15-2.89.14C719 677 719 677 717 676z" fill="#CED1CE"/><path d="M763 436c2.34 3.51 2.41 4.87 2 9-1.44 2.88-1.44 2.88-3 5h-1l.44-6.44.24-3.62C762 437 762 437 763 436" fill="#F4F5F1"/><path d="m758 437 1 3h2l-1 12-3-1z" fill="#252623"/><path d="M604 174v7l-4 1 1 4h-2c-1.12-3.36-.92-3.97.31-7.12l.8-2.14c.94-1.85 1.68-2.74 3.89-2.74" fill="#291D0F"/><path d="M540 692h2l1 12h-2c-2.24-3.35-2.17-3.91-1.62-7.69l.33-2.45z" fill="#EEEEF0"/><path d="m493 663 1.75 2.25A77 77 0 0 0 501 672l-3 1c-2.26-1.4-4.02-3.2-6-5z" fill="#1D1D1E"/><path d="M442 540c2.54 2.21 3.55 3.65 4 7 .07 2.67.04 5.32 0 8-3.17-3.44-3.49-6.44-4-11l-1-2z" fill="#EAEBEC"/><path d="M812 493h2c1.2 4.49.92 8.73.56 13.31l-.16 2.25q-.18 2.72-.4 5.44h-1z" fill="#F2F3F0"/><path d="m710 181 2 1c-.38 1.94-.38 1.94-1 4l-2 1-1 3h-2v2l-4-1 1.24-1.43 1.64-1.88 1.61-1.87C708 184 708 184 710 181" fill="#281908"/><path d="m711 152 1.38 1.88A28 28 0 0 0 716 158c-.31 2.19-.31 2.19-1 5l-1 7h-1l-.4-2.96-.54-3.85-.52-3.83C711 156 711 156 710 153z" fill="#2D1D07"/><path d="M809 542c2 3 2 3 1.75 5.44-.7 2.38-1.55 4.4-2.75 6.56l-2-1c.75-7.62.75-7.62 3-11" fill="#E9ECEA"/><path d="M710 690c2.66 2.66 2.78 4.27 3 8-1.44 3.38-1.44 3.38-3 6h-2l1-3q.33-2.84.56-5.69l.26-3.01z" fill="#ECEFEC"/><path d="m687 661 4 2v6h-4z" fill="#D9DCD9"/><path d="m898 647 2 3c-2.69 2.12-2.69 2.12-6 4-2.88-.75-2.88-.75-5-2a77 77 0 0 1 9-5" fill="#1E1F24"/><path d="m746 632 .44 1.81q.69 2.63 1.56 5.19l-8-2c1.13-3.38 2.21-5 6-5" fill="#D9DCDC"/><path d="M666 182h10v2l4 1h-14z" fill="#33250D"/><path d="m552 137 2 1-1.86 1.57-2.45 2.12-2.43 2.07A29 29 0 0 0 542 151c-.77-1.71-.77-1.71-1-4 1.8-2.32 1.8-2.32 4.31-4.69l2.49-2.38C550 138 550 138 552 137" fill="#A9AA99"/><path d="M488 395h1v16c-1.67-3.34-2.34-5.03-2.75-8.56l-.3-2.32C486 398 486 398 488 395" fill="#E7EAEA"/><path d="m515 310 2 1-6 12h-1c.45-5.63 1.68-8.61 5-13" fill="#DBDDDE"/><path d="M718 270h1q.76 2.4 1.5 4.81l.84 2.71C722 280 722 280 722 283c-3-1-3-1-5-4 .02-2.26.02-2.26.38-4.69l.33-2.45z" fill="#232621"/><path d="M599 152c3.97 3.97 4.12 9.08 4.12 14.44q-.04 2.28-.12 4.56h-1l-.38-3.56c-.48-3.96-1.52-7.61-2.62-11.44z" fill="#B9A668"/><path d="m761 653 3 1c1.12 7.75 1.12 7.75 0 10h-2z" fill="#F4F7F5"/><path d="M472 453q2.19.17 4.38.38l2.46.21C481 454 481 454 483 456h-13z" fill="#F2F2F5"/><path d="m506 5 3 2c-4.75 4-4.75 4-7 4l-1 2-1-3z" fill="#202420"/><path d="M634 677h1l1 19-3-1z" fill="#DADCDD"/><path d="M543 683h1l-1 17h-1q-.33-2.84-.62-5.69l-.36-3.2c-.02-3.25.57-5.21 1.98-8.11" fill="#CBCBCD"/><path d="M943 599c3.63 1.91 5.45 3.19 7 7l2 3c-3 0-3 0-4.82-1.75l-1.87-2.25-1.88-2.25L942 601z" fill="#E9EAEA"/><path d="M441 527h1q.55 2.37 1.06 4.75l.6 2.67A13 13 0 0 1 443 541c-1.52-1.14-1.52-1.14-3-3-.07-2.7-.07-2.7.31-5.69l.37-3.01z" fill="#D3D7D2"/><path d="M647 174c2.62 3.06 3 3.73 3 8h2v2h2l-1 4c-3.96-4.62-6-7.85-6-14" fill="#E1CA81"/><path d="M650 151c1.6 4 .29 7.05-1 11l-2-1c-.37-5.42-.37-5.42 1.5-8.38z" fill="#DACF99"/><path d="M757 646c1.88.25 1.88.25 4 1 1.44 2.28 2.14 4.43 3 7h-4c-3-5.75-3-5.75-3-8" fill="#EBEDED"/><path d="M760 445h1c1.02 4.65.72 8.32 0 13l1 2-4 1z" fill="#C6CAC4"/><path d="M645 163h1l.18 2.45.26 3.24.24 3.2c.28 2.76.72 5.4 1.32 8.11h-2c-2.38-3.67-2.05-6.49-1.62-10.75l.33-3.55z" fill="#40381E"/><path d="M686 196h8c-2.43 2.43-4.07 2.96-7.48 3.1l-2.71-.04-2.73-.02L679 199v-1h7z" fill="#D9C573"/><path d="M756 12c3.67 3.08 4.57 5.25 5 10l-2-2-2 1z" fill="#E9E9EB"/><path d="M563 662h2v7h-5a16.6 16.6 0 0 1 3-7" fill="#F2F5F1"/><path d="M449 470c1.12 3.36.92 3.97-.31 7.12l-.8 2.14C447 481 447 481 445 482c.47-4.78 1.24-8.04 4-12" fill="#222323"/><path d="M459 460c-1.33 4-3.5 4.84-7 7l-2-2 3.38-2.5 1.89-1.41C457 460 457 460 459 460" fill="#DDDEE0"/><path d="m601 151 3 2c.31 3 .31 3 0 6l-2 2-1.66-6.93L600 152z" fill="#292007"/><path d="m891 702-1 2h-11c7.13-3.57 7.13-3.57 12-2" fill="#D3D6D4"/><path d="m824.44 657.81 1.56 1.2v1l-11 2v-2c6.4-3.2 6.4-3.2 9.44-2.2" fill="#EAECEF"/><path d="M873 616q2.3.14 4.56.44l2.51.31 1.93.25c-1.75 1.56-1.75 1.56-4 3-3-.27-3.83-.83-6-3z" fill="#DADCDC"/><path d="m805 551 3 4-3 6-2-1z" fill="#DCDFE0"/><path d="M678 48c-1.44 3.36-3.25 5.59-6 8h-2c1.52-3.54 3.75-8 8-8" fill="#DADCDD"/><path d="m937 679 1 3c-2.75 2.06-2.75 2.06-6 4l-4-1z" fill="#DCE0DB"/><path d="M491 666q1.76 1.42 3.5 2.88l1.97 1.61L498 672v2c-3.26-.35-4.02-1.02-6.25-3.56L490 668z" fill="#D7D8D8"/><path d="M814 664c-1.45 3.83-3.43 5.12-7 7v-3c4.34-4 4.34-4 7-4" fill="#222322"/><path d="M753 624v3c-2.38 1.75-2.38 1.75-5 3l-2-1c1-3 1-3 2.94-4.19C751 624 751 624 753 624" fill="#242626"/><path d="m481 457 8 1c-2.69 2.69-5.38 3.06-9 4z" fill="#242723"/><path d="M733 304c1.94.62 1.94.62 4 2 .75 3.12.75 3.12 1 6h-2c-3-5.75-3-5.75-3-8" fill="#EBEFED"/><path d="M526 249c3.37.55 5.08 1.05 8 3l-1 3-3.5-2.44-1.97-1.37L526 250z" fill="#212521"/><path d="m584 196 2 2h-2v2h-9c2.99-1.99 5.6-2.94 9-4" fill="#2E1E0B"/><path d="m553 138 2 1-2.75 2.25A89 89 0 0 0 545 148c.56-3.6 1.75-5 4.56-7.25l1.94-1.58z" fill="#0B0E07"/><path d="M573 136a30 30 0 0 1 6 3l1 3h-2v-2l-2.94-.38L572 139l-1-2z" fill="#261A07"/><path d="m614 697 2 2c-.38 2.62-.38 2.62-1 5l-4-1z" fill="#DEE1DF"/><path d="M901 626c2.99 1.1 3.85 1.68 5.25 4.62L907 633c-2.99-1.1-3.85-1.68-5.25-4.62z" fill="#DEE0DF"/><path d="M492 430h1v9l-3-1c-.12-2.88-.12-2.88 0-6z" fill="#1E211E"/><path d="M538 178h2l2 6h2l-1 4-2.5-3.88-1.41-2.17C538 180 538 180 538 178" fill="#D0BC74"/><path d="M712 146v6h-3l-1-5c2-1 2-1 4-1" fill="#1C1209"/><path d="M562 135h9l-1 3c-2.88.19-2.88.19-6 0z" fill="#1E1709"/><path d="M544 19c3.4 1.13 4.69 2.3 7 5 .62 2.14.62 2.14 1 4l-3.44-2.81-1.93-1.58C545 22 545 22 544 19" fill="#EDF1ED"/><path d="M804 672h3c-.31 1.88-.31 1.88-1 4l-3 2-1-3z" fill="#242927"/><path d="M914 584c6.75.75 6.75.75 9 3-2.79 1.03-3.87 1.05-6.75.06L914 586z" fill="#D8DADC"/><path d="m811 528 1 3 2 1-2 6c-1.8-2.76-2.01-3.89-1.62-7.25z" fill="#EEF0EF"/><path d="M495 358h2c-.59 6.15-.59 6.15-1 8l-2 1c-.81-2.91-1.22-4.46-.06-7.31z" fill="#ECEFEF"/><path d="M752 222h1c-.25 3.38-.25 3.38-1 7-2.06 1.44-2.06 1.44-4 2a93 93 0 0 1 4-9" fill="#D3D7D3"/><path d="M680 184h6l-2 4h-5l2-2z" fill="#DEBF58"/><path d="M682 186c-3.35 2.24-3.91 2.17-7.69 1.62l-2.45-.33L670 187v-1c8.57-1.29 8.57-1.29 12 0" fill="#ECCF6E"/><path d="m549 179 10 4v1c-6.48.37-6.48.37-8.94-1.38C549 181 549 181 549 179" fill="#D6BD67"/><path d="M687 181c-1 2-1 2-2.81 2.75-2.69.31-3.92-.37-6.19-1.75 3.43-1.62 5.38-2.34 9-1" fill="#29230E"/><path d="M584 137c4.42 1.35 6.34 3.26 9 7l-1.69-.88A100 100 0 0 0 584 140z" fill="#DEC277"/><path d="M692 33h3c-1.37 3.16-1.99 3.99-5 6l-2-2 3-1z" fill="#DBDEDA"/><path d="M803 697c3.82 1.56 6.19 4.04 9 7h-4c-1.48-1.53-1.48-1.53-2.75-3.5l-1.3-1.97z" fill="#E5E9E5"/><path d="m940 673 3 1-5 5c0-4 0-4 2-6" fill="#222520"/><path d="M761 654c.12 5.75.12 5.75-1 8h-2l-1-7c3-1 3-1 4-1" fill="#292B2B"/><path d="m884 655-1 2-9-1v-1c3.7-.95 6.3-.95 10 0" fill="#343536"/><path d="m869 653 2 1v3h-6l1-3z" fill="#D4D5D6"/><path d="M961 642h1l-1 9h-2c-.12-3.38-.12-3.38 0-7z" fill="#E3E7E2"/><path d="M921 587c5.54.62 5.54.62 7.88 2.56L930 591l-2 1c-2.48-1.11-4.68-2.58-7-4z" fill="#E9EBEC"/><path d="m721 253 2 1c-1.37 3.16-1.99 3.99-5 6 .75-4.75.75-4.75 3-7" fill="#DCDFDB"/><path d="M690 174h2l1 3-5 4c.88-4.75.88-4.75 2-7" fill="#2F230C"/><path d="m672 137-4 2-2.06 1.19C664 141 664 141 661 140c3.83-2.71 6.33-3.33 11-3" fill="#100E04"/><path d="M496 12c1.6 4 .29 7.05-1 11h-1c-1.35-6.4-1.35-6.4.44-9.44z" fill="#ECF0EC"/><path d="m894.63 699.88 2.38.12-1 3c-1.94.82-1.94.82-4 1l-2-2c2-2 2-2 4.62-2.12" fill="#ECEFED"/><path d="m902.63 693.88 2.38.12-1 3c-1.94.82-1.94.82-4 1l-2-2c2-2 2-2 4.62-2.12" fill="#212321"/><path d="m709 687 2 1-1 13h-1l-.56-6.44-.32-3.62L708 688z" fill="#C0C3C0"/><path d="M865 655v2h-8v-2c3.29-.8 4.71-1.1 8 0" fill="#EDF0F1"/><path d="m955 616 4 2-1 5c-3-3.62-3-3.62-3-7" fill="#E0E3E3"/><path d="M809 518h1l1 9-1-2h-2q-.06-3 0-6z" fill="#1D201F"/><path d="m490 392 3 1v6l-3 1z" fill="#1E2122"/><path d="M743 322a12 12 0 0 1 3 3c-.31 2.69-.31 2.69-1 5-1.74-2.61-2.5-4.01-3-7z" fill="#DFE3DE"/><path d="M524 295c1.19 1.62 1.19 1.62 2 4-1.38 3.25-1.38 3.25-3 6l-2-3c1.38-3.69 1.38-3.69 3-7" fill="#212322"/><path d="m747 231 3 1-4 5-2-1z" fill="#E9EBEA"/><path d="M654 174h2v2l4 1-1 4c-5-5.88-5-5.88-5-7" fill="#3D2D10"/><path d="M699 164h1v6h-2v2h-2c1.88-6.88 1.88-6.88 3-8" fill="#E2C26F"/><path d="m651 145 1 2a96 96 0 0 1-3 6h-2l1-7z" fill="#181406"/><path d="m742 1 6 3v2l-8-2 2-1z" fill="#D7DBD8"/></svg>