<svg style="background:transparent" version="1.1" xmlns="http://www.w3.org/2000/svg" viewBox="0 0 1248 704"><path d="m1031 125 2.72 1.59c3.01 1.86 5.61 4.11 8.28 6.41l1.69 1.41c6.33 5.31 11.86 10.45 16.06 17.61a51 51 0 0 0 5.82 7.24A47 47 0 0 1 1070 166l1.46 2.48c5.02 9.22 9.46 20.46 8.07 31.13-2.18 7.08-5.12 12.37-11.59 16.2-5.81 2.09-12.39 3.21-18.4 1.48-11.55-5.72-17.96-17.7-24.4-28.27-3.98-6.47-8.1-13.1-14.35-17.61L1009 170v-2l-1.56-.25c-4.39-1.35-8.22-3.97-12.06-6.44-2.54-1.4-4.53-1.88-7.38-2.31l-2.32-.51c-12.44-2.27-25.55 1.18-36.05 8.06q-1.94 1.48-3.81 3.02C944 171 944 171 941.54 172.38c-6.16 3.94-10.67 11.01-13.54 17.62l-2.06 4.06A105 105 0 0 0 922 203a288 288 0 0 1-9.07 19.11 166 166 0 0 0-5.12 11.01A31 31 0 0 1 901 243h-2l-.32 1.77c-.78 2.56-1.84 3.88-3.62 5.85l-1.59 1.79c-2.09 2.26-4.29 4.41-6.47 6.59l-2.12 2.25c-3.1 2.96-6.37 5.52-9.79 8.1-2.09 1.65-2.09 1.65-3.73 3.31-1.88 1.85-3.89 2.37-6.36 3.34a343 343 0 0 0-9 5c0 4.85 1.58 8.48 4.26 12.45 3.35 5.28 5.57 10.94 7.86 16.74l1.31 3.17A114 114 0 0 1 877 345l1 2q0 3.24-.03 6.47c.03 2.38.23 4.64.52 7 .67 6.32.66 12.62.63 18.97l.02 3.54-.01 3.39v3.06C879 392 879 392 878 395q-.07 5.05.04 10.11c.04 3.48-.07 6.55-1.04 9.89v7l-1 1a79 79 0 0 0 0 4.62c.04 4.24-.31 8.19-1 12.38-.96 6.64-1.04 13.09-.98 19.78.02 3.6-.01 7.1-.52 10.66-2.24 16.42-.61 34.6 3.5 50.56l.94 4.31c.61 2.77 1.28 5.46 2.06 8.19a213 213 0 0 1 6 29.5l.5 2.5c1.82 9.08 2.5 18.25 2.5 27.5q.23 2.07.5 4.12c.62 5 .53 9.94.44 14.96.06 2.92.06 2.92.55 4.75 1.1 4.68.69 9.64.7 14.42l.03 3.36c.02 6.16-.4 11.49-2.22 17.39l3.94.44 2.49.29q2.43.25 4.86.42c5.9.44 10.47 2.14 15.71 4.85l2.43 1.23c8.06 4.28 8.06 4.28 10.57 7.77.69 2.31.69 2.31 0 5-6.38 9.7-18.7 11.91-29.31 14.19-17.45 3.54-35.09 4.94-52.89 5.01l-3.75.02-12.17.03h-2.13c-32.75.04-65.4-1.37-98.11-3.06q-8.09-.41-16.19-.8l-17.39-.85-8.76-.43-7.12-.38c-19.57-1.02-39.15-.92-58.73-.92l-12.29-.02a1409 1409 0 0 0-115.85 4.27l-3.88.31c-31.28 2.44-62.45 5.97-93.62 9.54l-2.22.26-6.45.74-2.17.25a432 432 0 0 0-12.45 1.62c-15.36 2.16-30.46 2.73-45.96 2.76l-7.64.04q-7.92.03-15.85.03-9.13 0-18.26.1-8.87.08-17.73.07-3.75.01-7.48.05-5.22.05-10.42.01l-3.09.06c-6.53-.09-9.86-1.51-14.51-6.13A100 100 0 0 1 227 692a85 85 0 0 0-3-3l2-2c.41-2.38.41-2.38.62-5.12l.23-2.76.15-2.12-3.12 1.5c-12.43 5.69-24.51 9.16-37.88 4.5-6.74-3.05-12.67-6.73-17-12.81-3.16-10.08-1.75-17.57 2.86-26.94 3.14-5.92 7.19-9.19 13.14-12.25l1.93-1.08c5.37-2.53 10.87-2.08 16.7-1.83 3.55-.09 6.12-.7 9.37-2.09 1.12-2 1.12-2 2-4q1.99-1.02 4-2 1.73-1.72 3.41-3.47c1.94-1.86 4.02-3.45 6.15-5.09 8.64-6.84 16.52-14.63 22.94-23.6 1.64-2.01 3.43-3.3 5.5-4.84l1.5-2.56c1.67-2.72 2.75-3.07 5.5-4.44q.53-2 1-4c1.94-2.25 1.94-2.25 4-4h2l.66-1.6c1.84-3.3 4.3-6.01 6.78-8.84 2.68-3.06 5.2-5.95 7.28-9.47L287 546h2l.81-1.69A73 73 0 0 1 294 537h2l.25-1.69c.98-3.01 2.7-4.93 4.75-7.31l-1.76-.77c-4.47-1.97-8.9-3.97-13.24-6.23l-2.16-1.12c-4.75-2.55-8.92-5.16-12.84-8.88v-2l-4-2v-2l-2.19-1.56c-6.32-5.48-9.24-13.96-11.31-21.88-.79-2.95-1.6-5.85-2.56-8.75-.97-2.91-1.72-5.83-2.44-8.81-.46-1.83-1.01-3.64-1.56-5.44a55 55 0 0 1-1.6-10.15c-.34-2.41-.34-2.41-1.32-5.57-1.22-4.6-1.52-8.99-1.83-13.72a171 171 0 0 0-3.57-23.74c-2.3-10.68-3.73-21.35-4.93-32.19l-.27-2.33c-3.45-30.79-3.45-30.79 3.96-40.3 3.48-3.4 5.82-5.27 10.68-6.06 5.78.73 10.66 3.13 15.94 5.5l2.32.86c4.79 2.04 9.22 4.75 13.73 7.33 15.48 8.73 15.48 8.73 22.95 6.81l2.51-.63a359 359 0 0 0 8.55-2.31l2.93-.8c3.82-1.05 7.6-2.12 11.34-3.42a33 33 0 0 1 8.29-1.4c5.03-.35 5.03-.35 7.27-.94 2.11-.5 2.11-.5 5.43-.65 6.7-.4 11.44-.79 16.2-5.83 1.93-2.27 3.72-4.62 5.48-7.02q1.93-1.94 3.94-3.81c2.06-2.19 2.06-2.19 3.5-4.63 1.85-3.03 3.99-5.1 6.56-7.56l1.89-1.95c9.85-10.15 9.85-10.15 16.55-10.67 4.51.21 6.91 1.8 10.07 4.92 6.38 7.27 9.35 15.71 11.7 24.93a69 69 0 0 0 2.91 8.02A41 41 0 0 1 431 343l.94 2.31c1.32 3.34 1.89 6.66 2.55 10.17.66 3.24 1.55 6.36 2.51 9.52 3.64-.79 7.03-2.09 10.5-3.44l3.41-1.31a107 107 0 0 0 11.71-5.78l2.65-1.46 2.73-1.51 5.38-2.97 2.39-1.32c2.06-1.12 4.14-2.16 6.23-3.21l5-3 5.31-3.03q2.14-1.24 4.25-2.53c2.75-1.62 5.58-3.01 8.44-4.44l4.5-2.5c9.51-5.31 9.51-5.31 12.75-5.94L524 322l.88-2 1.12-2q3-.54 6-1a87 87 0 0 0 4.11-2.76c3.47-2.27 7.27-3.96 10.99-5.79q3.44-1.7 6.78-3.64c2.99-1.73 6.03-3.26 9.12-4.81l7.25-3.88A539 539 0 0 1 591 285.56c3.6-1.87 7.01-4 10.44-6.16 2.79-1.52 5.54-2.42 8.56-3.4q3-1.38 5.94-2.88l3.18-1.61a128 128 0 0 0 6.38-3.57c7.31-4.29 15.57-7.02 23.5-9.94a252 252 0 0 0 8.19-3.38c6.51-2.8 13.06-5.42 19.81-7.62l2.27-.96c3.02-1.15 6-1.85 9.17-2.54a89 89 0 0 0 9.54-2.5c8.42-2.8 17.22-4.16 26.02-5l2.5-.5c8.47-1.69 16.98-1.66 25.58-1.63q3.27.01 6.54-.01l4.21.01h3.81c2.94.11 5.5.46 8.36 1.13l2.29.45a575 575 0 0 1 18.77 4.05l8.31 1.89q2.6.6 5.17 1.25l2.39.58 2.09.53c5.97.74 11.43-3.51 16.17-6.63C832 236 832 236 834.69 235c3.14-1.36 4.93-3.57 7.31-6l5-3q2.03-1.96 4-4l3-2q1.45-2.49 2.84-5.02a57 57 0 0 1 4.04-5.86c4.88-6.38 9.19-12.59 12.12-20.12a228 228 0 0 1 6.88-14.88l1.07-2.13c6.62-13.11 13.55-25.5 24.89-35.14q3.28-2.84 6.47-5.79c10.01-8.9 19.77-14.64 32.5-18.62l2.87-.92c29.96-9.47 56.94-2.51 83.32 13.48" fill="#121412"/><path d="m1031 125 2.72 1.59c3.01 1.86 5.61 4.11 8.28 6.41l1.69 1.41c6.33 5.31 11.86 10.45 16.06 17.61a51 51 0 0 0 5.82 7.24A47 47 0 0 1 1070 166l1.46 2.48c5.02 9.22 9.46 20.46 8.07 31.13-2.18 7.08-5.12 12.37-11.59 16.2-5.81 2.09-12.39 3.21-18.4 1.48-11.55-5.72-17.96-17.7-24.4-28.27-3.98-6.47-8.1-13.1-14.35-17.61L1009 170v-2l-1.56-.25c-4.39-1.35-8.22-3.97-12.06-6.44-2.54-1.4-4.53-1.88-7.38-2.31l-2.32-.51c-12.44-2.27-25.55 1.18-36.05 8.06q-1.94 1.48-3.81 3.02C944 171 944 171 941.54 172.38c-6.16 3.94-10.67 11.01-13.54 17.62l-2.06 4.06A105 105 0 0 0 922 203a288 288 0 0 1-9.07 19.11 166 166 0 0 0-5.12 11.01A31 31 0 0 1 901 243h-2l-.32 1.77c-.78 2.56-1.84 3.88-3.62 5.85l-1.59 1.79c-2.09 2.26-4.29 4.41-6.47 6.59l-2.12 2.25c-3.1 2.96-6.37 5.52-9.79 8.1-2.09 1.65-2.09 1.65-3.73 3.31-1.88 1.85-3.89 2.37-6.36 3.34a343 343 0 0 0-9 5c0 4.85 1.58 8.48 4.26 12.45 3.35 5.28 5.57 10.94 7.86 16.74l1.31 3.17A114 114 0 0 1 877 345l1 2q0 3.24-.03 6.47c.03 2.38.23 4.64.52 7 .67 6.32.66 12.62.63 18.97l.02 3.54-.01 3.39v3.06C879 392 879 392 878 395q-.07 5.05.04 10.11c.04 3.48-.07 6.55-1.04 9.89v7l-1 1a79 79 0 0 0 0 4.62c.04 4.24-.31 8.19-1 12.38-.96 6.64-1.04 13.09-.98 19.78.02 3.6-.01 7.1-.52 10.66-2.24 16.42-.61 34.6 3.5 50.56l.94 4.31c.61 2.77 1.28 5.46 2.06 8.19a213 213 0 0 1 6 29.5l.5 2.5c1.82 9.08 2.5 18.25 2.5 27.5q.23 2.07.5 4.12c.62 5 .53 9.94.44 14.96.06 2.92.06 2.92.55 4.75 1.1 4.68.69 9.64.7 14.42l.03 3.36c.02 6.16-.4 11.49-2.22 17.39l3.94.44 2.49.29q2.43.25 4.86.42c5.9.44 10.47 2.14 15.71 4.85l2.43 1.23c8.06 4.28 8.06 4.28 10.57 7.77.69 2.31.69 2.31 0 5-6.38 9.7-18.7 11.91-29.31 14.19-17.45 3.54-35.09 4.94-52.89 5.01l-3.75.02-12.17.03h-2.13c-32.75.04-65.4-1.37-98.11-3.06q-8.09-.41-16.19-.8l-17.39-.85-8.76-.43-7.12-.38c-19.57-1.02-39.15-.92-58.73-.92l-12.29-.02a1409 1409 0 0 0-115.85 4.27l-3.88.31c-30.47 2.38-60.84 5.79-91.2 9.27l-4.83.55c-7.3.83-14.59 1.66-21.85 2.74-16.91 2.49-33.68 2.43-50.72 2.28q-5.91-.05-11.83-.06-11.5-.06-23-.15a46 46 0 0 1 9.06-5.44c7.43-3.64 14.27-8.1 21.23-12.56q5.91-3.78 11.96-7.38 10.72-6.39 21.36-12.9 8.15-4.98 16.32-9.91a1748 1748 0 0 0 64.76-41.19l2.79-1.85 8.03-5.36 2.58-1.71c4.45-2.98 8.73-6.07 12.94-9.38 5.31-3.91 10.36-4.97 16.78-6.01 37.69-7.3 73.81-23.91 108.05-40.78q4.56-2.21 9.16-4.37a507 507 0 0 0 30.57-15.54c6.93-3.84 13.93-7.5 20.97-11.12q13.71-7.03 26.98-14.89l2.45-1.44 2.14-1.27c1.87-.9 1.87-.9 4.87-.9l.67 2.05C687.09 521.65 694.08 541 706 558l1.7 2.51c7.65 10.79 17.29 19.6 26.82 28.72 21.16 20.31 21.16 20.31 21.58 34l-.04 3.52-.02 3.55-.04 2.7-2.27.23c-8.5 1.09-15.55 3.18-21.46 9.67-4.27 6.42-4.37 13.65-3.27 21.1 1.4 3.75 3.79 5.38 7.35 7.2 9.24 3.97 18.09 3.98 28.03 3.99l3.9.03c9.98.02 20.9-.42 28.42-7.91 11.92-14.86 12.49-36.02 12.54-54.26q.02-3.22.07-6.44c.1-13.09-2.18-25.15-6.31-37.61 14.75 6.6 27.25 21.27 33 36 3.95 11.02 3.32 22.47 3 34l-2.05.23c-8.24 1.16-15.38 3.51-20.87 10.06-4.92 7.18-5.81 13.06-5.08 21.71a12 12 0 0 0 4 7c13.27 8.36 30.99 9.52 46.25 6.25A44 44 0 0 0 876 677h2l.88-1.78a84 84 0 0 1 2.12-3.97c5.12-9.26 5.3-19.37 5.27-29.73v-3.55l-.01-7.41q-.01-5.54.01-11.08c.02-19.27-.66-38.59-4.08-57.6l-.51-2.96a515 515 0 0 0-6.07-28.33q-1.45-6.2-2.86-12.4l-.49-2.12c-1.87-8.25-2.42-16.42-2.46-24.86l-.02-2.8-.03-9.03-.01-3.14c0-22.54 1.47-44.87 3.9-67.28 3.37-31.36 3.69-65.11-7.64-94.96l-1.11-3.03c-2.74-7.01-6.24-13.56-9.94-20.1-3.81-6.88-3.81-6.88-2.95-10.87a74 74 0 0 1 8-5c14.7-8.38 26.85-18.4 37-32l1.23-1.63c9.19-12.36 14.93-26.29 20.89-40.39 8.61-20.19 21.37-35.42 41.91-44.25 10.2-3.76 24.76-3.4 34.61 1.02L998 159l2.46 1.21c13.86 7.54 22.51 19.16 30.54 32.35 11.08 18.13 11.08 18.13 21 21.44 6.23.51 11.72.73 17-3 4.96-5.1 6.3-10.57 6.44-17.56-.36-21.14-16.63-39.5-30.63-54A88 88 0 0 0 1030 128l-1.73-1.07c-22.84-14.04-48.38-19.86-74.85-13.84-15.23 4.04-28.25 11.05-40.42 20.91l-1.98 1.52c-15.97 12.71-24.79 32.42-32.93 50.57-4.77 10.58-9.8 21-17.59 29.72l-1.44 1.65q-2.01 2.28-4.06 4.54l-1.84 2.06c-8.84 9.36-24.76 22.12-38.18 23.18-5.13-.31-9.69-1.64-14.6-3.05-83.24-22.4-165.15 19.39-236.38 59.06-5.77 3.2-11.64 6.22-17.5 9.25a1349 1349 0 0 0-28.84 15.4c-7.3 4.01-14.63 7.94-21.97 11.88q-9.29 4.99-18.53 10.07C440.65 369.89 440.65 369.89 434 368l-.61-2.56c-3.44-14.39-6.9-28.76-11.58-42.82l-.93-2.83c-6.35-18.53-6.35-18.53-14.88-22.79-3.05-.51-5.16-.47-7.89 1.06-8.14 5.91-14.54 13.34-20.81 21.13A194 194 0 0 1 366 332l-2.45 2.67c-4.69 3.8-10.89 3.63-16.67 4.21-33.46 3.91-33.46 3.91-45.88 10.12-6.38.04-11.37-1.72-16.89-4.75l-2.13-1.12-6.67-3.57-6.69-3.55-4.14-2.22c-6.7-3.57-12.85-5.94-20.48-4.79-3.6 2.14-5.49 4.13-7 8-.51 5.23-.44 10.5-.44 15.75v2.33c-.01 18.49 2.81 36.25 6.55 54.32.86 4.21 1.33 8.38 1.7 12.66 2.87 28.46 8.16 67.67 30.19 87.94a94 94 0 0 0 11 7l2.57 1.43A80 80 0 0 0 306 525c-5.05 11.07-14.83 20.82-22.5 30.17q-1.95 2.37-3.88 4.77C237.11 612.46 237.11 612.46 212 629l-1.83 1.22c-3.36 1.21-6.77 1.03-10.29 1.09-8.98.36-15.9 2.2-22.26 8.94-4.97 6.55-7.35 12.82-7 21.11.83 5.74 3.13 9.39 7.19 13.45 9.5 6.52 19.96 7.19 31.19 6.19a65 65 0 0 0 12-5l2.89-1.41q3.58-1.76 7.11-3.59l2-1-1 2.62c-1.99 7.05-2.41 15.34.69 22A55 55 0 0 0 240 701l2.31 1.75L244 704c-4.9-.1-7.24-.81-10.75-4.31A81 81 0 0 1 227 692q-1.47-1.53-3-3l2-2c.41-2.38.41-2.38.62-5.12l.23-2.76.15-2.12-3.12 1.5c-12.43 5.69-24.51 9.16-37.88 4.5-6.74-3.05-12.67-6.73-17-12.81-3.16-10.08-1.75-17.57 2.86-26.94 3.14-5.92 7.19-9.19 13.14-12.25l1.93-1.08c5.37-2.53 10.87-2.08 16.7-1.83 3.55-.09 6.12-.7 9.37-2.09 1.12-2 1.12-2 2-4q1.99-1.02 4-2 1.73-1.72 3.41-3.47c1.94-1.86 4.02-3.45 6.15-5.09 8.64-6.84 16.52-14.63 22.94-23.6 1.64-2.01 3.43-3.3 5.5-4.84l1.5-2.56c1.67-2.72 2.75-3.07 5.5-4.44q.53-2 1-4c1.94-2.25 1.94-2.25 4-4h2l.66-1.6c1.84-3.3 4.3-6.01 6.78-8.84 2.68-3.06 5.2-5.95 7.28-9.47L287 546h2l.81-1.69A73 73 0 0 1 294 537h2l.25-1.69c.98-3.01 2.7-4.93 4.75-7.31l-1.76-.77c-4.47-1.97-8.9-3.97-13.24-6.23l-2.16-1.12c-4.75-2.55-8.92-5.16-12.84-8.88v-2l-4-2v-2l-2.19-1.56c-6.32-5.48-9.24-13.96-11.31-21.88-.79-2.95-1.6-5.85-2.56-8.75-.97-2.91-1.72-5.83-2.44-8.81-.46-1.83-1.01-3.64-1.56-5.44a55 55 0 0 1-1.6-10.15c-.34-2.41-.34-2.41-1.32-5.57-1.22-4.6-1.52-8.99-1.83-13.72a171 171 0 0 0-3.57-23.74c-2.3-10.68-3.73-21.35-4.93-32.19l-.27-2.33c-3.45-30.79-3.45-30.79 3.96-40.3 3.48-3.4 5.82-5.27 10.68-6.06 5.78.73 10.66 3.13 15.94 5.5l2.32.86c4.79 2.04 9.22 4.75 13.73 7.33 15.48 8.73 15.48 8.73 22.95 6.81l2.51-.63a359 359 0 0 0 8.55-2.31l2.93-.8c3.82-1.05 7.6-2.12 11.34-3.42a33 33 0 0 1 8.29-1.4c5.03-.35 5.03-.35 7.27-.94 2.11-.5 2.11-.5 5.43-.65 6.7-.4 11.44-.79 16.2-5.83 1.93-2.27 3.72-4.62 5.48-7.02q1.93-1.94 3.94-3.81c2.06-2.19 2.06-2.19 3.5-4.63 1.85-3.03 3.99-5.1 6.56-7.56l1.89-1.95c9.85-10.15 9.85-10.15 16.55-10.67 4.51.21 6.91 1.8 10.07 4.92 6.38 7.27 9.35 15.71 11.7 24.93a69 69 0 0 0 2.91 8.02A41 41 0 0 1 431 343l.94 2.31c1.32 3.34 1.89 6.66 2.55 10.17.66 3.24 1.55 6.36 2.51 9.52 3.64-.79 7.03-2.09 10.5-3.44l3.41-1.31a107 107 0 0 0 11.71-5.78l2.65-1.46 2.73-1.51 5.38-2.97 2.39-1.32c2.06-1.12 4.14-2.16 6.23-3.21l5-3 5.31-3.03q2.14-1.24 4.25-2.53c2.75-1.62 5.58-3.01 8.44-4.44l4.5-2.5c9.51-5.31 9.51-5.31 12.75-5.94L524 322l.88-2 1.12-2q3-.54 6-1a87 87 0 0 0 4.11-2.76c3.47-2.27 7.27-3.96 10.99-5.79q3.44-1.7 6.78-3.64c2.99-1.73 6.03-3.26 9.12-4.81l7.25-3.88A539 539 0 0 1 591 285.56c3.6-1.87 7.01-4 10.44-6.16 2.79-1.52 5.54-2.42 8.56-3.4q3-1.38 5.94-2.88l3.18-1.61a128 128 0 0 0 6.38-3.57c7.31-4.29 15.57-7.02 23.5-9.94a252 252 0 0 0 8.19-3.38c6.51-2.8 13.06-5.42 19.81-7.62l2.27-.96c3.02-1.15 6-1.85 9.17-2.54a89 89 0 0 0 9.54-2.5c8.42-2.8 17.22-4.16 26.02-5l2.5-.5c8.47-1.69 16.98-1.66 25.58-1.63q3.27.01 6.54-.01l4.21.01h3.81c2.94.11 5.5.46 8.36 1.13l2.29.45a575 575 0 0 1 18.77 4.05l8.31 1.89q2.6.6 5.17 1.25l2.39.58 2.09.53c5.97.74 11.43-3.51 16.17-6.63C832 236 832 236 834.69 235c3.14-1.36 4.93-3.57 7.31-6l5-3q2.03-1.96 4-4l3-2q1.45-2.49 2.84-5.02a57 57 0 0 1 4.04-5.86c4.88-6.38 9.19-12.59 12.12-20.12a228 228 0 0 1 6.88-14.88l1.07-2.13c6.62-13.11 13.55-25.5 24.89-35.14q3.28-2.84 6.47-5.79c10.01-8.9 19.77-14.64 32.5-18.62l2.87-.92c29.96-9.47 56.94-2.51 83.32 13.48" fill="#B9BBB8"/><path d="m680 500 .67 2.05C687.09 521.65 694.08 541 706 558l1.7 2.51c7.65 10.79 17.29 19.6 26.82 28.72 21.16 20.31 21.16 20.31 21.58 34l-.04 3.52-.02 3.55-.04 2.7-2.27.23c-7.87 1.01-13.22 3.32-19.73 7.77l-2 1v-3l-2.74.04q-12.77.08-25.53-.39c-23.76-.84-47.53-.84-71.3-.84q-7.28 0-14.55-.02c-57.16-.15-114.06 2.3-170.84 8.97l-9.79 1.13-6.87.8-3.11.36-2.81.34-2.41.28C420 650 420 650 417 651q-3.53.44-7.06.81c-7.82.87-15.6 1.99-23.38 3.19l-3.3.5A372 372 0 0 0 364 659c3.65-4.2 8.13-6.62 12.88-9.38 18.67-11.05 36.74-22.97 54.81-35l2.79-1.85 8.03-5.36 2.58-1.71c4.45-2.98 8.73-6.07 12.94-9.38 5.31-3.91 10.36-4.97 16.78-6.01 37.69-7.3 73.81-23.91 108.05-40.78q4.56-2.21 9.16-4.37a507 507 0 0 0 30.57-15.54c6.93-3.84 13.93-7.5 20.97-11.12q13.71-7.03 26.98-14.89l2.45-1.44 2.14-1.27c1.87-.9 1.87-.9 4.87-.9" fill="#ECEEEC"/><path d="M444 482c1 2 1 2 .75 3.94-.75 2.06-.75 2.06-2.13 3.37-2.44 2.54-3.33 5.43-4.62 8.69h-2v3a62 62 0 0 1-5 5l-2.04 1.88C423.28 513 423.28 513 421 513v2c-13.22 9.52-26.9 13.96-42.65 17.45q-3.15.74-6.26 1.66c-7.62 2.2-15.23 2.01-23.09 1.89 6.32 8.22 14.42 14.28 23 20-7.19 7.43-15.05 14.11-23.08 20.61a653 653 0 0 0-9.48 7.95 548 548 0 0 1-14 11.5 561 561 0 0 0-7.56 6.13 5310 5310 0 0 1-24.49 19.93c-7.66 6.16-15.43 12.16-23.2 18.18l-6.03 4.68-3.41 2.64-2.95 2.29a116 116 0 0 1-6.09 4.23c-2.8 1.92-3.33 2.91-4.71 5.86l-4 2a61 61 0 0 0-3.12 2.69c-12.26 10.6-25.97 18.58-42.57 17.67-9.28-1.01-16.8-3.11-23.19-10.36-4.3-6.08-5.17-11.68-4.12-19 3.21-9.47 8.36-16.1 17.24-20.67 4.25-1.5 7.57-1.6 12.01-1.58 15.21-.52 24.47-11.65 34.75-21.75l2.51-2.47a1983 1983 0 0 0 10.52-10.43c4.87-4.87 9.5-9.87 13.97-15.1l3.04-3.46a699 699 0 0 0 32.52-39.74c3.33-4.42 6.81-8.64 10.44-12.8l5.37 1.46c20.89 4.26 45.1 2.77 65.63-2.46l2.21-.55c9.39-2.42 17.82-6.16 26.36-10.68 3.43-1.77 3.43-1.77 6.32-2.88C415 509 415 509 416 507l2.23-.87c10.68-4.35 18.89-15.24 25.77-24.13" fill="#020302"/><path d="m1031 125 2.72 1.59c3.01 1.86 5.61 4.11 8.28 6.41l1.69 1.41c6.33 5.31 11.86 10.45 16.06 17.61a51 51 0 0 0 5.82 7.24A47 47 0 0 1 1070 166l1.46 2.48c5.02 9.22 9.46 20.46 8.07 31.13-2.18 7.08-5.12 12.37-11.59 16.2-5.81 2.09-12.39 3.21-18.4 1.48-11.55-5.72-17.96-17.7-24.4-28.27-3.98-6.47-8.1-13.1-14.35-17.61L1009 170v-2l-1.56-.25c-4.39-1.35-8.22-3.97-12.06-6.44-2.54-1.4-4.53-1.88-7.38-2.31l-2.32-.51c-12.44-2.27-25.55 1.18-36.05 8.06q-1.94 1.48-3.81 3.02C944 171 944 171 941.54 172.38c-6.16 3.94-10.67 11.01-13.54 17.62l-2.06 4.06A105 105 0 0 0 922 203a288 288 0 0 1-9.07 19.11 166 166 0 0 0-5.12 11.01A31 31 0 0 1 901 243h-2l-.32 1.77c-.78 2.56-1.84 3.88-3.62 5.85l-1.59 1.79c-2.09 2.26-4.29 4.41-6.47 6.59l-2.12 2.25c-3.1 2.96-6.37 5.52-9.79 8.1-2.09 1.65-2.09 1.65-3.73 3.31-1.88 1.85-3.89 2.37-6.36 3.34a343 343 0 0 0-9 5c0 4.85 1.58 8.48 4.26 12.45 3.35 5.28 5.57 10.94 7.86 16.74l1.31 3.17A114 114 0 0 1 877 345l1 2q0 3.24-.03 6.47c.03 2.38.23 4.64.52 7 .67 6.32.66 12.62.63 18.97l.02 3.54-.01 3.39v3.06C879 392 879 392 878 395q-.07 5.05.04 10.11c.04 3.48-.07 6.55-1.04 9.89v7l-1 1a79 79 0 0 0 0 4.62c.04 4.24-.31 8.19-1 12.38-.96 6.64-1.04 13.09-.98 19.78.02 3.6-.01 7.1-.52 10.66-2.24 16.42-.61 34.6 3.5 50.56l.94 4.31c.61 2.77 1.28 5.46 2.06 8.19a213 213 0 0 1 6 29.5l.5 2.5c1.82 9.08 2.5 18.25 2.5 27.5q.23 2.07.5 4.12c.62 5 .53 9.94.44 14.96.06 2.92.06 2.92.55 4.75 1.1 4.68.69 9.64.7 14.42l.03 3.36c.02 6.16-.4 11.49-2.22 17.39l3.94.44 2.49.29q2.43.25 4.86.42c5.9.44 10.47 2.14 15.71 4.85l2.43 1.23c8.06 4.28 8.06 4.28 10.57 7.77.69 2.31.69 2.31 0 5-6.38 9.7-18.7 11.91-29.31 14.19-17.45 3.54-35.09 4.94-52.89 5.01l-3.75.02-12.17.03h-2.13c-32.75.04-65.4-1.37-98.11-3.06q-8.09-.41-16.19-.8l-17.39-.85-8.76-.43-7.12-.38c-19.57-1.02-39.15-.92-58.73-.92l-12.29-.02a1409 1409 0 0 0-115.85 4.27l-3.88.31c-39.66 3.1-79.29 7.46-118.74 12.56l-3.31.43-5.82.78c-8.85 1.17-17.65 1.14-26.56.86v-1q19.5-2.57 39.06-4.56c10.69-1.09 21.36-2.2 31.97-3.94a251 251 0 0 1 25.99-2.62c7.33-.49 14.55-1.34 21.83-2.34 12.21-1.67 24.41-2.48 36.71-3.16l9.41-.56 5.77-.33c4.5-.26 8.82-.72 13.26-1.49q3-.2 6-.28l3.44-.11 3.56-.11 6.94-.22 3.09-.09q3.38-.15 6.75-.42c11.16-.93 22.29-.95 33.49-.97l6.54-.02 21-.03h3.6c38.29-.03 76.39.65 114.61 3.06q6.67.41 13.35.8 6.02.34 12.02.74c21.9 1.47 43.81 1.86 65.76 1.89q4.52 0 9.05.04c78.26.58 78.26.58 95.07-14.28 1.73-2 1.73-2 2.48-4.44-1.07-3.66-3.2-4.44-6.38-6.34-3.91-2.01-7.96-3.18-12.18-4.34l-2.5-.73q-6.75-1.91-13.51-3.74l-2.96-.8L887 653l-.02-1.93-.3-20.25-.1-7.51c-.27-20.53-.74-41.18-4.39-61.43l-.51-2.96a515 515 0 0 0-6.07-28.33q-1.45-6.2-2.86-12.4l-.49-2.12c-1.87-8.25-2.42-16.42-2.46-24.86l-.02-2.8-.03-9.03-.01-3.14c0-22.54 1.47-44.87 3.9-67.28 3.37-31.36 3.69-65.11-7.64-94.96l-1.11-3.03c-2.74-7.01-6.24-13.56-9.94-20.1-3.81-6.88-3.81-6.88-2.95-10.87a74 74 0 0 1 8-5c14.7-8.38 26.85-18.4 37-32l1.23-1.63c9.19-12.36 14.93-26.29 20.89-40.39 8.61-20.19 21.37-35.42 41.91-44.25 10.2-3.76 24.76-3.4 34.61 1.02L998 159l2.46 1.21c13.86 7.54 22.51 19.16 30.54 32.35 11.08 18.13 11.08 18.13 21 21.44 6.23.51 11.72.73 17-3 4.96-5.1 6.3-10.57 6.44-17.56-.36-21.14-16.63-39.5-30.63-54A88 88 0 0 0 1030 128l-1.73-1.07c-22.84-14.04-48.38-19.86-74.85-13.84-15.23 4.04-28.25 11.05-40.42 20.91l-1.98 1.52c-15.97 12.71-24.79 32.42-32.93 50.57-4.77 10.58-9.8 21-17.59 29.72l-1.44 1.65q-2.01 2.28-4.06 4.54l-1.84 2.06c-8.84 9.36-24.76 22.12-38.18 23.18-5.13-.31-9.69-1.64-14.6-3.05-83.24-22.4-165.15 19.39-236.38 59.06-5.77 3.2-11.64 6.22-17.5 9.25a1349 1349 0 0 0-28.84 15.4c-7.3 4.01-14.63 7.94-21.97 11.88q-9.29 4.99-18.53 10.07C440.65 369.89 440.65 369.89 434 368l-.61-2.56c-3.44-14.39-6.9-28.76-11.58-42.82l-.93-2.83c-6.35-18.53-6.35-18.53-14.88-22.79-3.05-.51-5.16-.47-7.89 1.06-8.14 5.91-14.54 13.34-20.81 21.13A194 194 0 0 1 366 332l-2.45 2.67c-4.69 3.8-10.89 3.63-16.67 4.21-33.46 3.91-33.46 3.91-45.88 10.12-6.38.04-11.37-1.72-16.89-4.75l-2.13-1.12-6.67-3.57-6.69-3.55-4.14-2.22c-6.7-3.57-12.85-5.94-20.48-4.79-3.6 2.14-5.49 4.13-7 8-.51 5.23-.44 10.5-.44 15.75v2.33c-.01 18.49 2.81 36.25 6.55 54.32.86 4.21 1.33 8.38 1.7 12.66 2.87 28.46 8.16 67.67 30.19 87.94a94 94 0 0 0 11 7l2.57 1.43A80 80 0 0 0 306 525c-5.05 11.07-14.83 20.82-22.5 30.17q-1.95 2.37-3.88 4.77C237.11 612.46 237.11 612.46 212 629l-1.83 1.22c-3.36 1.21-6.77 1.03-10.29 1.09-8.98.36-15.9 2.2-22.26 8.94-4.97 6.55-7.35 12.82-7 21.11.83 5.74 3.13 9.39 7.19 13.45 9.5 6.52 19.96 7.19 31.19 6.19a65 65 0 0 0 12-5l2.89-1.41q3.58-1.76 7.11-3.59l2-1-1 2.62c-1.99 7.05-2.41 15.34.69 22A55 55 0 0 0 240 701l2.31 1.75L244 704c-4.9-.1-7.24-.81-10.75-4.31A81 81 0 0 1 227 692q-1.47-1.53-3-3l2-2c.41-2.38.41-2.38.62-5.12l.23-2.76.15-2.12-3.12 1.5c-12.43 5.69-24.51 9.16-37.88 4.5-6.74-3.05-12.67-6.73-17-12.81-3.16-10.08-1.75-17.57 2.86-26.94 3.14-5.92 7.19-9.19 13.14-12.25l1.93-1.08c5.37-2.53 10.87-2.08 16.7-1.83 3.55-.09 6.12-.7 9.37-2.09 1.12-2 1.12-2 2-4q1.99-1.02 4-2 1.73-1.72 3.41-3.47c1.94-1.86 4.02-3.45 6.15-5.09 8.64-6.84 16.52-14.63 22.94-23.6 1.64-2.01 3.43-3.3 5.5-4.84l1.5-2.56c1.67-2.72 2.75-3.07 5.5-4.44q.53-2 1-4c1.94-2.25 1.94-2.25 4-4h2l.66-1.6c1.84-3.3 4.3-6.01 6.78-8.84 2.68-3.06 5.2-5.95 7.28-9.47L287 546h2l.81-1.69A73 73 0 0 1 294 537h2l.25-1.69c.98-3.01 2.7-4.93 4.75-7.31l-1.76-.77c-4.47-1.97-8.9-3.97-13.24-6.23l-2.16-1.12c-4.75-2.55-8.92-5.16-12.84-8.88v-2l-4-2v-2l-2.19-1.56c-6.32-5.48-9.24-13.96-11.31-21.88-.79-2.95-1.6-5.85-2.56-8.75-.97-2.91-1.72-5.83-2.44-8.81-.46-1.83-1.01-3.64-1.56-5.44a55 55 0 0 1-1.6-10.15c-.34-2.41-.34-2.41-1.32-5.57-1.22-4.6-1.52-8.99-1.83-13.72a171 171 0 0 0-3.57-23.74c-2.3-10.68-3.73-21.35-4.93-32.19l-.27-2.33c-3.45-30.79-3.45-30.79 3.96-40.3 3.48-3.4 5.82-5.27 10.68-6.06 5.78.73 10.66 3.13 15.94 5.5l2.32.86c4.79 2.04 9.22 4.75 13.73 7.33 15.48 8.73 15.48 8.73 22.95 6.81l2.51-.63a359 359 0 0 0 8.55-2.31l2.93-.8c3.82-1.05 7.6-2.12 11.34-3.42a33 33 0 0 1 8.29-1.4c5.03-.35 5.03-.35 7.27-.94 2.11-.5 2.11-.5 5.43-.65 6.7-.4 11.44-.79 16.2-5.83 1.93-2.27 3.72-4.62 5.48-7.02q1.93-1.94 3.94-3.81c2.06-2.19 2.06-2.19 3.5-4.63 1.85-3.03 3.99-5.1 6.56-7.56l1.89-1.95c9.85-10.15 9.85-10.15 16.55-10.67 4.51.21 6.91 1.8 10.07 4.92 6.38 7.27 9.35 15.71 11.7 24.93a69 69 0 0 0 2.91 8.02A41 41 0 0 1 431 343l.94 2.31c1.32 3.34 1.89 6.66 2.55 10.17.66 3.24 1.55 6.36 2.51 9.52 3.64-.79 7.03-2.09 10.5-3.44l3.41-1.31a107 107 0 0 0 11.71-5.78l2.65-1.46 2.73-1.51 5.38-2.97 2.39-1.32c2.06-1.12 4.14-2.16 6.23-3.21l5-3 5.31-3.03q2.14-1.24 4.25-2.53c2.75-1.62 5.58-3.01 8.44-4.44l4.5-2.5c9.51-5.31 9.51-5.31 12.75-5.94L524 322l.88-2 1.12-2q3-.54 6-1a87 87 0 0 0 4.11-2.76c3.47-2.27 7.27-3.96 10.99-5.79q3.44-1.7 6.78-3.64c2.99-1.73 6.03-3.26 9.12-4.81l7.25-3.88A539 539 0 0 1 591 285.56c3.6-1.87 7.01-4 10.44-6.16 2.79-1.52 5.54-2.42 8.56-3.4q3-1.38 5.94-2.88l3.18-1.61a128 128 0 0 0 6.38-3.57c7.31-4.29 15.57-7.02 23.5-9.94a252 252 0 0 0 8.19-3.38c6.51-2.8 13.06-5.42 19.81-7.62l2.27-.96c3.02-1.15 6-1.85 9.17-2.54a89 89 0 0 0 9.54-2.5c8.42-2.8 17.22-4.16 26.02-5l2.5-.5c8.47-1.69 16.98-1.66 25.58-1.63q3.27.01 6.54-.01l4.21.01h3.81c2.94.11 5.5.46 8.36 1.13l2.29.45a575 575 0 0 1 18.77 4.05l8.31 1.89q2.6.6 5.17 1.25l2.39.58 2.09.53c5.97.74 11.43-3.51 16.17-6.63C832 236 832 236 834.69 235c3.14-1.36 4.93-3.57 7.31-6l5-3q2.03-1.96 4-4l3-2q1.45-2.49 2.84-5.02a57 57 0 0 1 4.04-5.86c4.88-6.38 9.19-12.59 12.12-20.12a228 228 0 0 1 6.88-14.88l1.07-2.13c6.62-13.11 13.55-25.5 24.89-35.14q3.28-2.84 6.47-5.79c10.01-8.9 19.77-14.64 32.5-18.62l2.87-.92c29.96-9.47 56.94-2.51 83.32 13.48" fill="#E6E7E7"/><path d="m246 328-1 4 3.62.06c11.28 1.28 21.76 9.05 30.38 15.94l2.42 1.92c5.91 4.9 5.91 4.9 6.58 9.08q-2.92 2.76-5.88 5.5l-1.68 1.59C276.23 370 276.23 370 274 370v2a295 295 0 0 1-5 5c-6.07 7.15-10.45 13.93-13 23h-2l-.4 2.55-.54 3.33-.52 3.3C252 412 252 412 251 414h-2c-2.28-3.42-2.84-6.06-3.73-10.07l-.46-2.08-1.43-6.54-.99-4.44L240 380h-3a126 126 0 0 1-1.24-16.23l-.02-2.27-.04-4.73-.06-4.8q-.06-3.5-.07-7.01l-.05-2.15c.02-5.08 1.33-7.89 4.48-11.81 3.4-3 3.4-3 6-3" fill="#272825"/><path d="M406 296c8.68 4.43 11.59 11.72 14.55 20.48L422 321l.92 2.85c4.02 12.5 7.76 24.99 10.53 37.83l.54 2.44.45 2.14C435 368 435 368 437 370h-6l1-8h-2v10l-2.19-2.25C425 367 425 367 422.19 364.81L420 363v-2l-3-1v-2l-1.73-.33c-2.59-.76-4.34-1.92-6.58-3.42-9.89-6.04-20.58-8.61-31.96-9.89C374 344 374 344 372 343v-5l2-1q1.58-3.46 3-7h2l.17-2c1.19-4.28 3.58-7.41 6.14-11l1.48-2.12c2.11-3 4.23-5.91 6.58-8.74 1.63-2.14 1.63-2.14 1.38-4.45L394 300c4.13-3.15 6.76-4.87 12-4" fill="#232522"/><path d="M803 569c14.75 6.6 27.25 21.27 33 36 3.95 11.02 3.32 22.47 3 34l-2.05.23c-5.48.77-9.42 1.81-14.01 4.96-4.64 3.07-7.7 3.19-13.1 2.24L808 646l-.06-4.44-.04-2.49c.1-3.07.1-3.07.59-6.91.74-6.35.73-12.73.75-19.11q.02-3.22.07-6.44c.1-13.09-2.18-25.15-6.31-37.61" fill="#ECEEED"/><path d="m373.27 557.3 1.73.7a19.5 19.5 0 0 1-5.02 7.03l-1.83 1.7-1.97 1.77-2.03 1.87L358 576q-3.38 3.08-6.75 6.2-.8.7-1.6 1.46c-4.45 4.1-8.7 8.35-12.92 12.67a199 199 0 0 1-8.62 7.81c-3.56 3.13-6.99 6.41-10.43 9.67-9.05 8.55-18.09 17-27.78 24.82q-3.16 2.58-6.27 5.24l-1.74 1.48-3.3 2.84q-2.26 1.93-4.59 3.81l-2.8 2.31c-4.32 2.28-7.78 2.14-12.58 1.94l-2.52-.06q-3.05-.06-6.1-.19c3.71-3.85 7.62-7.25 11.81-10.56a455 455 0 0 1 16.31-12.5 280 280 0 0 0 16.08-12.87c3.85-3.3 7.8-6.46 11.8-9.57a439 439 0 0 0 15.38-12.58q6-5.08 12.17-9.98a667 667 0 0 0 20.51-17l5.28-4.52 4.63-4 2.65-2.23 2.3-1.96c2.08-1.23 2.08-1.23 4.35-.93" fill="#EAEAED"/><path d="m743.17 233.8 2.31-.02 4.81-.02q3.69-.02 7.38-.07l4.7-.01 2.22-.04c2.06 0 2.06 0 5.41.36l2 3-3.08.03c-75.19.8-140.16 30.15-204.93 66.22a621 621 0 0 1-17.49 9.25 1306 1306 0 0 0-28.84 15.4q-10.96 5.99-21.97 11.88-9.29 4.99-18.53 10.07c-36.5 20.04-36.5 20.04-43.16 18.15l-.6-2.55c-9.47-39.53-9.47-39.53-16.53-56.1-.98-2.63-.83-3.75.13-6.35l.88 1.78a116 116 0 0 0 2.08 3.98c2.52 4.69 3.95 9.29 5.25 14.44a68 68 0 0 0 2.91 8.05A41 41 0 0 1 431 343l.94 2.32c1.31 3.33 1.9 6.65 2.55 10.17a100 100 0 0 0 2.51 9.5c3.64-.78 7.02-2.08 10.5-3.42l3.4-1.31c4.08-1.65 7.88-3.66 11.72-5.8l2.64-1.45 2.74-1.51 5.37-2.97 2.4-1.32A244 244 0 0 1 482 344l5-3 5.31-3.02q2.14-1.25 4.25-2.54c2.75-1.62 5.58-3.01 8.44-4.44l4.5-2.5c9.51-5.3 9.51-5.3 12.75-5.93q.86-.3 1.75-.57l.87-2c.2-.33.2-.33 1.13-2q3-.55 6-1a82 82 0 0 0 4.1-2.76c3.48-2.27 7.27-3.96 11-5.8q3.44-1.7 6.77-3.62c3-1.74 6.03-3.27 9.13-4.82q3.63-1.92 7.25-3.87A499 499 0 0 1 591 285.57c3.6-1.88 7-4 10.44-6.16 2.8-1.53 5.54-2.42 8.56-3.41q3-1.38 5.94-2.87l3.18-1.62a128 128 0 0 0 6.38-3.57c7.3-4.3 15.57-7.02 23.5-9.94q4.12-1.61 8.2-3.37A233 233 0 0 1 677 247l2.26-.96a63 63 0 0 1 9.18-2.54c3.25-.7 6.4-1.44 9.54-2.5 8.41-2.8 17.22-4.16 26.02-5q2.5-.46 5-1a75 75 0 0 1 14.17-1.2" fill="#E9E9EB"/><path d="m310.31 459.56 3.4-.07c7.42.02 13.3.85 18.91 6 1.44 1.57 1.44 1.57 3.38 4.51-1 3-1 3-3.23 4.31-12.36 5.43-23.54 8.31-36.77 3.44-5.53-2.24-9.66-4.74-13-9.75.37-2.69.37-2.69 1-5 8.7-2.96 17.2-3.36 26.31-3.44" fill="#151714"/><path d="m407.19 441.88 3.73-.01C414 442 414 442 416 443v2q-1.22.66-2.5 1.32a263 263 0 0 0-18.28 10.51A21 21 0 0 1 388 459l-1 3a77 77 0 0 1-7.31 3.25l-2.05.86c-2.86 1.12-5.04 1.96-8.12 1.56-.25-.1-.25-.1-1.52-.68-.7-2.24-.7-2.24-1-5 1.3-2.12 1.3-2.12 3.19-4.12l1.86-2c5.1-4.87 5.1-4.87 8.95-4.87l1-3c2.77-1.36 2.77-1.36 6.25-2.62q1.7-.65 3.46-1.3c5.3-1.75 9.88-2.21 15.48-2.2" fill="#141612"/><path d="M235 343h1l.01 2.15c.15 14.9 1.03 29.34 3.43 44.04l.33 2.03c1 6.09 2.08 12.16 3.34 18.2.86 4.21 1.33 8.37 1.7 12.64 2.27 22.48 6.36 50.33 17 70.56L263 495l-1 2c-1.81-.5-1.81-.5-4-2-2.41-5.31-3.83-10.84-5.31-16.46q-.8-2.9-1.75-5.73c-.97-2.91-1.72-5.83-2.44-8.81-.46-1.83-1.01-3.64-1.56-5.44a55 55 0 0 1-1.6-10.15c-.34-2.41-.34-2.41-1.32-5.57-1.22-4.6-1.52-8.99-1.83-13.72-.74-9.52-2.3-18.7-4.34-28.03a160 160 0 0 1-3.47-42.03l.17-4.71q.2-5.67.45-11.35" fill="#DDD"/><path d="m875 520 2 1c.56 1.82.56 1.82 1 4.12.57 2.85 1.2 5.58 2 8.38a213 213 0 0 1 6 29.5l.5 2.5c1.82 9.08 2.5 18.25 2.5 27.5q.23 2.07.5 4.12c.62 5 .53 9.94.44 14.96.06 2.92.06 2.92.55 4.75 1.1 4.72.69 9.72.7 14.55l.03 3.4c.02 10.2.02 10.2-2.22 15.22h-1l-.04-2.89c-.62-37.66-2.2-75.11-11.39-111.81A52 52 0 0 1 875 520" fill="#E9EAEA"/><path d="M360 475a23 23 0 0 1 4 3c-.63 5.64-.63 5.64-2.5 7.44-2.36 2.45-2.14 5.28-2.5 8.56-1 1-1 1-3.81 1.44L352 495c-2.06-2.75-2.06-2.75-4-6l-2.75-2.06C343 485 343 485 342.31 482.56c.82-3.04 2.12-4.71 4.64-6.61 4.1-1.9 8.67-1.74 13.05-.95" fill="#656566"/><path d="M873 415h1a79 79 0 0 1 .7 27.15c-.77 5.9-.73 11.7-.68 17.63.02 3.6-.01 7.1-.52 10.66-2.12 15.56-1.46 34.67 3.5 49.56h-2l-1 4q-.73-3.21-1.44-6.44l-.81-3.62c-1.53-7.53-1.91-15.06-1.95-22.73l-.02-2.81q-.03-4.51-.03-9.02l-.01-3.12c-.01-20.52 1.28-40.84 3.26-61.26" fill="#DCDDDE"/><path d="M170 664q1.96 2.94 3.81 5.94c4.28 5.98 9.74 9.17 16.97 10.62 11.26 1.54 20.11.64 30.22-4.56l2.89-1.41q3.58-1.76 7.11-3.59l2-1-1 2.62c-1.99 7.05-2.41 15.34.69 22A55 55 0 0 0 240 701l2.31 1.75L244 704c-4.9-.1-7.24-.81-10.75-4.31A81 81 0 0 1 227 692q-1.47-1.53-3-3l2-2c.41-2.38.41-2.38.62-5.12l.23-2.76.15-2.12-3.12 1.5c-12.43 5.69-24.51 9.16-37.88 4.5-6.62-2.99-13.64-6.74-17.06-13.44L168 667z" fill="#EAEDEC"/><path d="m296 461 .45 2.23c2.06 8.97 2.06 8.97 5.43 11.83A35 35 0 0 0 310 479v1c-8.03.93-16.29-2.35-22.77-6.98C285 471 285 471 283 468c.38-2.69.38-2.69 1-5l3.75-1 2.11-.56C292 461 292 461 296 461" fill="#E5C46A"/><path d="M380 451q2.04 2.97 4 6l1.75 1.75C387 460 387 460 387 462l-7.25 3.06-2.07.9c-3.7 1.52-5.86 2.28-9.68 1.04-.7-2.24-.7-2.24-1-5 1.29-2.13 1.29-2.13 3.19-4.12l1.85-2.01c5.1-4.87 5.1-4.87 7.96-4.87" fill="#D4C17E"/><path d="M875 346c5.38 8.07 4.29 19.57 4.21 28.99q-.02 3.15-.02 6.31c-.04 10.26-.04 10.26-1.19 13.7q-.07 5.05.04 10.11c.04 3.48-.08 6.54-1.04 9.89l.12 3.56c-.12 3.44-.12 3.44-1.63 5.15L874 425l-.06-8.12-.03-2.25c-.02-4.61.2-9.13.59-13.72.82-10.75.61-21.52.56-32.29l-.01-6.6z" fill="#EDEEEF"/><path d="M416 303c5.72 5.2 7.37 12.98 9.21 20.23a69 69 0 0 0 2.91 8.02A41 41 0 0 1 431 343l.94 2.31c1.32 3.34 1.89 6.66 2.55 10.17.66 3.24 1.55 6.36 2.51 9.52h2l-1 4-4-1-.61-2.56c-9.6-40.13-9.6-40.13-16.49-55.98-.9-2.46-.9-2.46-.9-6.46" fill="#ECECEE"/><path d="m373.27 557.3 1.73.7a20 20 0 0 1-5.34 7.34l-1.97 1.84-2.06 1.88-2.04 1.9c-6.46 5.95-6.46 5.95-9.59 8.04-2.25-.32-2.25-.32-4-1l-1 3-1-2-2-1a2003 2003 0 0 1 16.63-14.42q2.01-1.74 4.06-3.46l2.26-1.93c2.05-1.19 2.05-1.19 4.32-.89" fill="#DFE1E1"/><path d="m502 569 2 1-7.75 5.88-2.21 1.68-2.15 1.62-1.97 1.49A47 47 0 0 1 484 584c-1.75 1.62-1.75 1.62-3 3l2 2a30 30 0 0 1-10.81 2.62l-2.96.23-2.23.15c4.33-4.91 9.37-7.75 15-11q3.91-2.33 7.81-4.69l3.77-2.26q3.16-1.89 6.24-3.88z" fill="#060706"/><path d="M984 108c13.35 1.38 25.31 4.81 37.19 11.06l1.89 1A32 32 0 0 1 1032 127l-2 1a145 145 0 0 1-7.06-4.06A94 94 0 0 0 982 111z" fill="#DCDEDE"/><path d="m232 670 1 2-.91 2.19c-2.08 5.36-1.63 11.16-1.09 16.81 2.13 4.58 4.95 7.06 9 10l2.31 1.75L244 704c-4.9-.1-7.24-.81-10.75-4.31A81 81 0 0 1 227 692q-1.47-1.53-3-3l2-2c.41-2.38.41-2.38.62-5.12l.23-2.76.15-2.12h-6c2.1-2.1 4.03-3.21 6.62-4.62l2.48-1.36z" fill="#CCCCCF"/><path d="M870 454h1l.08 3.47.29 12.71.13 5.51.18 7.9.05 2.5c.16 5.8.16 5.8 1.27 6.91q.27 2.66.44 5.31c.55 7.28 1.24 14.74 3.56 21.69h-2l-1 4q-.73-3.21-1.44-6.44l-.81-3.62c-1.62-8.01-1.89-15.94-1.85-24.1l.01-3.12.03-9.78.01-6.67z" fill="#D2D3D3"/><path d="m779.6 235.8 2.65.57 2.75.63 2.73.6a1119 1119 0 0 1 11.15 2.45A146 146 0 0 1 816 245v2a90 90 0 0 1-17.75-3.38c-10.3-2.87-20.66-4.33-31.25-5.62v-1c4.6-1.53 7.84-2.28 12.6-1.2" fill="#E1E1E5"/><path d="M887 596h1l.17 1.68.77 7.57.26 2.64.26 2.56.24 2.35c.3 2.2.3 2.2.82 4.13 1.08 4.68.66 9.67.67 14.45l.03 3.4c.02 10.2.02 10.2-2.22 15.22h-1l-.43-15.36-.14-5.2c-.32-11.15-.5-22.28-.43-33.44" fill="#F2F4F4"/><path d="M250 326v1l-2.69.75c-4.12 1.56-7.09 3.42-9.56 7.13-1.62 4.58-1.89 9.35-2.07 14.17l-.12 3.36-.12 3.47-.13 3.53L235 368c-2.4-3.6-2.48-6.51-2.69-10.69l-.11-2.19c-.42-9.16.46-17.32 5.8-25 3.92-4.16 6.45-4.33 12-4.12" fill="#EEF1EF"/><path d="M235 343h1l.04 2.33c.3 13.91.66 27.58 3.03 41.32.65 3.79 1.05 6.66-.07 10.35h-2c-3.92-18.01-2.91-35.73-2-54" fill="#C7CAC7"/><path d="M928 183c.62 1.75.62 1.75 1 4q-.96 2.02-2 4a246 246 0 0 0-1.94 5.38A92 92 0 0 1 920 208a1200 1200 0 0 0-5 11h-3c2.29-7.42 5.29-14.34 8.56-21.38l1.5-3.26c3.66-7.95 3.66-7.95 5.94-11.36" fill="#E1E0E4"/><path d="M887 612h1l1 40c9 1 9 1 11.67 1.18 4.96.32 7.68 1.17 11.33 4.82-8.87-.42-16.17-2.64-25-5z" fill="#D7D8D8"/><path d="M328.21 460.02a24 24 0 0 1 3.8 2.98l-3 1-2.8-1.43c-3.56-1.74-5.64-1.9-9.56-1.8l-3.58.06-3.7.1q-3.65.1-7.28.16l-3.25.1A13 13 0 0 1 292 459c10.25-3.89 26.16-3.63 36.21 1.02" fill="#070806"/><path d="m296 461 .45 2.23c2.06 8.97 2.06 8.97 5.43 11.83A35 35 0 0 0 310 479v1c-6.67.59-11.87-1.52-18-4l4-2-1-6h-1v-5l-1.81.62C290 464 290 464 287 462c3.15-.7 5.73-1 9-1" fill="#CFB66C"/><path d="M405.75 439.81h2.29c3.23.03 5.87.16 8.96 1.2v2l-3.23-.15c-11.15-.34-21.81.45-31.77 6.14l-2 2-2-2 5.56-3.38 3.13-1.9c6.37-3.32 12.03-4.03 19.06-3.9" fill="#030403"/><path d="M380 454v2l3 1-1 5-8 2v2l-3-1-1-5h2v-2h2v-2c3-2 3-2 6-2" fill="#EDCA65"/><path d="M406 296c5.58 3.16 5.58 3.16 7 6l-2.06-.56c-4.95-.74-8.77-.22-12.94 2.56h-3l-1-4c4.13-3.15 6.76-4.87 12-4" fill="#1B1C1B"/><path d="M170 664q1.96 2.94 3.81 5.94c4.46 6.24 10.13 9.25 17.63 10.75l2.56.31c-3 2-3 2-6.19 1.94-4.68-1.15-7.92-3.17-11.81-5.94l-2.81-1.94c-2.58-2.42-3.8-4.83-5.19-8.06z" fill="#D6D8D7"/><path d="M245 325c7.15-.81 12.58 2.12 19 5l2.72 1.03c2.75 1.17 4.3 2.77 6.28 4.97l-2 1a138 138 0 0 1-6.94-3.31C257.8 330.61 252 328.71 245 328z" fill="#DBDCDF"/><path d="M1071 170c5.45 6.69 9.4 18.07 8.81 26.76-.56 2.18-.56 2.18-1.81 5.24h-1l-.3-3.11c-.8-7.63-1.83-14.45-4.9-21.56-.88-2.57-.94-4.62-.8-7.33" fill="#E9EBE7"/><path d="M871 454h2a68 68 0 0 1 .32 17.52 361 361 0 0 0-1.01 15.04L872 492h-1z" fill="#F1F2F3"/><path d="M983 107v3l-26 1-1-2c8.92-2.64 17.79-2.18 27-2" fill="#EFF1F1"/><path d="M224 615c2.16.36 2.16.36 4 1l-6.06 5.25-1.7 1.49C210.6 631 210.6 631 206 631l1-3 2.94-.94C213 626 213 626 214.12 624l.88-2q1.99-1.02 4-2l2.5-2.69z" fill="#E4E5E5"/><path d="M1076 190h1c.74 16 .74 16-4 22-2 2-2 2-4.62 2.12L1066 214l2.25-1.94c6.03-6.1 7.4-13.77 7.75-22.06" fill="#D6D8D9"/><path d="M255 477a34 34 0 0 1 4 8.31l1.05 2.95q1.52 4.35 2.95 8.74c-2.31-.5-2.31-.5-5-2-3.13-6.04-3.37-11.29-3-18" fill="#DBDBDE"/><path d="m919.23 127.32 1.77.68-1.75 1.36c-6.4 4.94-12.61 9.84-18.25 15.64l-2-2 7.26-6.53q2.56-2.3 5.05-4.66l2.07-1.94 1.83-1.75c1.79-1.12 1.79-1.12 4.02-.8" fill="#DBDBDD"/><path d="m415 447-8.12 4.81-2.31 1.37c-12.33 7.28-12.33 7.28-17.57 6.82 1-2 1-2 2.82-2.68l2.3-.63c4-1.25 6.82-2.88 10.12-5.41 8.06-5.85 8.06-5.85 12.76-4.28" fill="#040607"/><path d="m345 336 1 2a117 117 0 0 1-20 3l1-3c6.07-1.23 11.8-2.28 18-2" fill="#E9E9EA"/><path d="M992 157c6.68 1.76 14.11 5.16 18 11-4.63-.56-8.12-2.57-12-5l-1.78-1.08A72 72 0 0 1 992 159z" fill="#E5E6E5"/><path d="m331 465 5 5c-1 3-1 3-2.74 4.2l-2.14 1.05-2.11 1.08C327 477 327 477 324 476l2.38-2.12c2.7-2.97 3.64-5.04 4.62-8.88" fill="#CAB97F"/><path d="m232 670 1 2-.9 2.23c-1.24 3.12-1.5 5.74-1.72 9.08l-.23 3.24L230 689h-1l-2-12h-6c2.1-2.1 4.03-3.21 6.62-4.62l2.48-1.36z" fill="#CCCDCC"/><path d="M936 116v3a678 678 0 0 1-6.81 4.06l-1.95 1.18c-1.7 1-3.47 1.89-5.24 2.76l-3-1 4.75-3.88 2.67-2.17c3.35-2.53 5.35-3.95 9.58-3.95" fill="#DFE0E2"/><path d="m275.38 633.19 1.62.8c-4.14 4.55-8.82 7.73-14 11q-.5-.97-1-2 2.45-2.51 5-5l1.52-1.47c3.93-3.56 3.93-3.56 6.86-3.33" fill="#151516"/><path d="m247 593 1 3q-4.6 4.81-9.25 9.56l-2.64 2.77-2.56 2.61-2.35 2.43c-2.2 1.63-2.2 1.63-4.48 1.38L225 614l1.55-1.11c5.01-3.74 9.54-7.78 13.95-12.2l1.6-1.6c3.76-3.82 3.76-3.82 4.9-6.09" fill="#ECEEED"/><path d="m1047 213 1.98.5c3.79.63 7.5.61 11.33.56l2.25-.01 5.44-.05-1 2c-2.33.67-2.33.67-5.25 1.19l-2.89.54c-4.54.43-7.91-.54-11.86-2.73z" fill="#E9EAEB"/><path d="M886 623h1v23c-2.27-2.27-2.54-2.89-3-6 .06-2.75.18-5.45.38-8.19l.13-2.23c.36-5.45.36-5.45 1.49-6.58" fill="#030504"/><path d="m364 563 3 1-4.75 4.31-2.67 2.43c-4.63 4.06-4.63 4.06-6.58 5.26l-3-1 5.31-4.88 1.52-1.39A57 57 0 0 1 364 563" fill="#EDEFEC"/><path d="M250 326v1l-2.69.75c-4.12 1.56-7.09 3.42-9.56 7.13A40 40 0 0 0 236 343l-2-2c.12-6.12 1.89-8.79 6-13 3.64-2.43 5.71-2.16 10-2" fill="#E6E7E7"/><path d="M274 511c3.57.66 6.18 2.16 9.25 4.06l2.7 1.66L288 518l-2 1-1 2q-2.2-1.35-4.38-2.75l-2.46-1.55c-2.25-1.77-3.12-3.07-4.16-5.7" fill="#E2E2E5"/><path d="M302 458q4.28-.08 8.56-.12l2.43-.06c7.25-.06 12.85 1.07 19.01 5.18l-3 1-2.51-1.36c-4.74-2.22-9.19-2.45-14.37-2.83l-2.95-.25L302 459z" fill="#010201"/><path d="M872 333h3l1.48 6.68q.6 2.6 1.33 5.2c.19 2.12.19 2.12-1.19 3.93C875 350 875 350 874 350z" fill="#DCDCDF"/><path d="M830 238c-.16 1.83-.16 1.83-1 4-2.43 1.48-2.43 1.48-5.44 2.75l-2.99 1.3C818 247 818 247 816 247v-3l3.75-1.31c3.44-1.28 6.78-4.69 10.25-4.69" fill="#EEEFF2"/><path d="m198.75 627.88 3.55.04c.44.03.44.03 2.7.08l1 3-18 1v-2c3.59-2.25 6.57-2.2 10.75-2.12" fill="#EFF3F0"/><path d="m767.34 233.78 2.66.22 2 3c-7.42.1-14.63 0-22-1v-1l6.63-.5 3.73-.28z" fill="#F2F1F5"/><path d="M928 183c1.09 3.77 1.09 3.77.25 5.81L927 191q-.82 1.87-1.62 3.75L924 198h-3c1.55-5.48 4.16-10.11 7-15" fill="#DAD9DA"/><path d="M245 325c5.8-.36 9.64.74 15 3l-1 2-14-2z" fill="#D1D2D1"/><path d="M298 475c4.34.37 8.07 2.23 12 4v1c-5.65.35-9.03-.57-14-3z" fill="#BAAE7D"/><path d="m227 680 2 1c.41 2.29.41 2.29.62 5.06l.23 2.79.15 2.15-4 1-2-3 2-2q.6-3.49 1-7" fill="#DDDEE0"/><path d="M225 677c-2.22 2.22-3.99 3-6.88 4.19l-2.61 1.1c-2.68.76-3.94.65-6.51-.29 5.2-3.47 9.69-5.46 16-5" fill="#DFE2DE"/><path d="M492 342c-1.26 3.79-2.62 4.07-6 6-1.81 1.69-1.81 1.69-3 3l-2-1v-3l4.38-2.5 2.46-1.41C490 342 490 342 492 342" fill="#1A191D"/><path d="m398 295 2 2-1.57 1.17A348 348 0 0 0 387 307c.54-3.79 2.04-5.27 4.94-7.69l2.15-1.82C396 296 396 296 398 295" fill="#DDDEDD"/><path d="M243 419h1a83 83 0 0 1 1 16h-2l-.56-6.88-.32-3.86C242 421 242 421 243 419" fill="#EDEFED"/><path d="m380 451 2 5h-2v-2l-6 2v2h-2v2l-3 1a18 18 0 0 1 5.5-7.25l1.84-1.58C378 451 378 451 380 451" fill="#D9C580"/><path d="m350 578 4 1-3.38 3.5-1.89 1.97C347 586 347 586 345 586l1-5 3-1z" fill="#EBEFF1"/><path d="M451 363a27 27 0 0 1-7.69 3.62q-1.2.4-2.45.79L439 368c1.64-3.84 1.64-3.84 4.88-5.31 2.96-.65 4.34-.76 7.12.31" fill="#E3E0E5"/><path d="m952 161 1 3q-1.61 1.3-3.25 2.56l-1.83 1.44c-1.92 1-1.92 1-5.92 0z" fill="#E1E1E2"/><path d="M613 277c-3.41 2.86-6.91 4.35-11 6 .06-1.81.06-1.81 1-4 6.13-3.29 6.13-3.29 10-2" fill="#E8E8EA"/><path d="M238 362h1l1 12-3 2-.06-5.31-.04-2.99c.1-2.7.1-2.7 1.1-5.7" fill="#0E110E"/><path d="m224 615 4 1-9 8-2-2 2.38-1.81C222 618 222 618 224 615" fill="#DEDEDE"/><path d="m241 330 3 1a104 104 0 0 1-5 9l-2-3c.9-3.07 1.73-4.73 4-7" fill="#1B1C1C"/><path d="m285 625 1 3-6 4-3-3c5.75-4 5.75-4 8-4" fill="#151715"/><path d="M875 413c2 2 2 2 2.31 5.44-.33 3.82-.59 4.22-3.31 6.56q-.04-2.71-.06-5.44l-.04-3.06c.1-2.5.1-2.5 1.1-3.5" fill="#F1F1F3"/><path d="M780 237v2l-13-1v-1c8.43-2.57 8.43-2.57 13 0" fill="#DAD9DC"/><path d="m427 348 4 3-1 8-2-1c-.41-2.29-.41-2.29-.62-5.06l-.23-2.79z" fill="#171A19"/><path d="m260 331 9 4v3c-2.93-.63-5.48-1.35-8-3z" fill="#111214"/><path d="m873 267 3 1q-1.35 1.55-2.75 3.06l-1.55 1.73c-1.7 1.21-1.7 1.21-3.9.89L866 273h2l.81-1.88C870 269 870 269 873 267" fill="#EDEDEF"/><path d="m730 236 4 2-12 1v-2c3.09-1.88 4.6-2.28 8-1" fill="#E4E4E7"/><path d="m365 568 1 2-6 8-2-1c1.56-3.82 4.04-6.19 7-9" fill="#1F1F21"/><path d="m379 316 3 1-6 7-3-1z" fill="#1C1D1D"/><path d="M936 116v3c-2.35 1.43-3.48 2.09-6.25 1.62L928 120c2.68-2.68 4.13-4 8-4" fill="#EDEDEF"/><path d="m182 679 12 2c-3 2-3 2-6.56 1.69C184 682 184 682 182 681z" fill="#E0E2E1"/><path d="m249 461 3 1v8c-2.88-2.38-3.61-4.3-4-8z" fill="#E8E8EC"/><path d="m368 460 4 2c-.31 1.94-.31 1.94-1 4l-3 1c-1.12-4.75-1.12-4.75 0-7" fill="#CEB568"/><path d="m1077 189 2 1c1.29 4.64.79 7.58-1 12h-1z" fill="#EFF1F0"/><path d="M881 547c2.52 1.97 2.99 2.97 3.69 6.19L885 556h-3c-1.48-2.96-1.06-5.74-1-9" fill="#ECEDEF"/><path d="M282 464a47 47 0 0 1 3 7 23 23 0 0 0 4 2v3l-3-1v-3l-3-1z" fill="#2B1F0E"/><path d="m315 603 2 1c-2.88 4.21-5.04 5.76-10 7z" fill="#DCDBDD"/><path d="M882 556h2c.76 4.32 1.16 7.74 0 12h-1z" fill="#D5D6D8"/><path d="M334 338v2l-8 1 1-3c2.94-1.18 3.9-1.03 7 0" fill="#F0F0F1"/><path d="M738 234v2l4 1h-12c2.63-2.63 4.3-3 8-3" fill="#F3F3F5"/><path d="M915 210c2 4 2 4 1.12 6.75L915 219h-3z" fill="#D3D3D5"/><path d="m393 640 1 2h-2l-1 4-5-1c4.75-3.88 4.75-3.88 7-5" fill="#E2E4E2"/><path d="M722 639h10v5l-2 1-1-4-7-1z" fill="#C5C9C5"/><path d="M880 540c1.62 1.62 1.62 1.62 3 4-.81 3.25-.81 3.25-2 6h-1l-.56-4.44-.32-2.49L879 541z" fill="#DCDDDF"/><path d="m852 283 4 1 1 6-2 1c-3-5.75-3-5.75-3-8" fill="#DCDFDE"/><path d="m921 198 3 1-3 6h-2c.88-5.88.88-5.88 2-7" fill="#E9E7EB"/><path d="M235 699a29 29 0 0 1 9 5c-3.38-.25-3.38-.25-7-1-1.44-2.06-1.44-2.06-2-4" fill="#D4D5D7"/><path d="m251 588 4 1-7 6c1-4 1-4 3-7" fill="#DEE0E1"/><path d="m588 544 3 1v2l-6 2-2-2c2.31-1.56 2.31-1.56 5-3" fill="#202222"/><path d="M648 512h5l-1 3c-2.56 1.19-2.56 1.19-5 2z" fill="#191D1E"/><path d="m297 472 4 2c-2.38 2.38-3.7 2.67-7 3l-2-2 1.94-.38L296 474z" fill="#D8BD74"/><path d="m475 349-1 3c-3.56 1.69-3.56 1.69-7 3 1.01-2.54 1.65-3.78 4-5.25 2-.75 2-.75 4-.75" fill="#DDDCE1"/><path d="M427 340c2.57 3.85 2.55 6.43 3 11-1.5-1-1.5-1-3-3-.27-2.72-.13-5.26 0-8" fill="#383839"/><path d="m480 344 2 1-1 3c-3.06 1.19-3.06 1.19-6 2 1.13-3.4 2.13-4.05 5-6" fill="#E8E8EC"/><path d="M959 159v3l-6 2c.38-1.94.38-1.94 1-4 2-1 2-1 5-1" fill="#EEECF1"/><path d="m378 650-1 4c-1.88.62-1.88.62-4 1l-2-2c4.75-3 4.75-3 7-3" fill="#E1E1E4"/><path d="m671 500 5 1c-2.39 1.89-4.07 3.02-7 4l-2-2 4-1z" fill="#1B1C1C"/><path d="m289 462-3.44.81L282 464l-1 3-1-5c3.38-.84 5.67-1.11 9 0" fill="#0F0903"/><path d="m578 292 2 1v2l-7 3v-3c2.38-1.75 2.38-1.75 5-3" fill="#DEDDE0"/><path d="M660 256c-2.46 2.46-4.71 3-8 4v-3c4.62-2.12 4.62-2.12 8-1" fill="#E2E1E6"/><path d="m371.25 655.25 2.75.75c-3.27 1.88-6.28 2.49-10 3 3.2-4.06 3.2-4.06 7.25-3.75" fill="#D6D4D2"/><path d="m550 565 2 1c-1.31 2-1.31 2-3 4h-3l-1-3c2.38-1.06 2.38-1.06 5-2" fill="#E3E2E4"/><path d="m625 525 3 3-7 3v-2h2v-3z" fill="#242528"/><path d="M303 525h3a19 19 0 0 1-5 7c0-3.11.54-4.35 2-7" fill="#D1D1D1"/><path d="M281 516c4.75.75 4.75.75 7 3h-2l-1 2a189 189 0 0 1-4-4z" fill="#DDD"/><path d="m329 471 1 2 3 1c-2.81 1.56-2.81 1.56-6 3l-3-1z" fill="#999378"/><path d="M252 466c1.76 3.09 2 4.23 2 8l-4-2v-2h2z" fill="#D8D8DC"/><path d="M240 373h1l-1 7h-3c.75-4.75.75-4.75 3-7" fill="#1C1F1B"/><path d="M421 324h2a41 41 0 0 1 1 6l-2 3z" fill="#1C1C20"/><path d="m537 313 2 1-1 3c-2.56 1.19-2.56 1.19-5 2l-1-2z" fill="#ECEBEC"/><path d="M416 309c1.5 1.19 1.5 1.19 3 3 .19 2.69.19 2.69 0 5h-2z" fill="#141416"/><path d="M823 244c-2.36 2.36-3.78 2.49-7 3v-3c3.01-.93 3.87-1.04 7 0" fill="#E7E7EB"/><path d="m1073 186 3 2c.29 2.16.29 2.16.19 4.62l-.08 2.48-.11 1.9h-1c-1.19-3.88-2-6.92-2-11" fill="#070806"/></svg>