<svg style="background:transparent" version="1.1" xmlns="http://www.w3.org/2000/svg" viewBox="0 0 1248 704"><path d="m526 32 3.12 2.06L532 36l2.94 1.94q3.31 2.23 6.56 4.56 4.68 3.34 9.5 6.5c8.53 5.64 8.53 5.64 12.38 8.44 4.72 3.41 9.67 6.48 14.62 9.56l2.17 1.6c3.66 1.81 6.77 1.68 10.74 1.47l2.38-.08q2.55-.08 5.1-.19a1261 1261 0 0 1 16.64-.56c10.16-.31 20.3-.37 30.46-.37h14.13l2.49-.01c5.66.02 5.66.02 7.89 1.14l1.76-1.17C691 56 691 56 693.88 54.12c3.1-2.1 6.05-4.34 9-6.66C705 46 705 46 707.78 44.63A96 96 0 0 0 718.56 38c19.57-13.27 19.57-13.27 30.19-11.61 3.34.9 5.59 2.43 8.25 4.61l3.19 1.94c4.55 3.83 5.21 10.44 5.81 16.06q-.42 3.02-1 6-.06 2.25 0 4.5c.08 7.82-.5 15.63-1.5 23.38-.55 4.29-.85 8.56-1.06 12.87l-.13 2.62c-.47 11-.36 22.01-.27 33.01l.01 2.3.04 4.23c.02 3.6-.17 7.09-.59 10.66-.66 6.11-.61 12.2-.58 18.34l.03 6.36.05 13.48.06 15.68.03 6.24a497 497 0 0 0 .02 7.21c-.33 9.21-2.48 18.73-8.11 26.12l-1.25 2.44c-2.19 3.21-4.85 5.42-7.82 7.91-1.93 1.65-1.93 1.65-4.31 4.09C738 258 738 258 736 258l-.56 1.69c-3.23 5.19-8.68 7.76-14.44 9.31l.91 2.16a66 66 0 0 1 2.47 8.28c1.19 4.54 2.88 7.72 5.62 11.56l.44 2.4c.63 2.91 1.63 4.46 3.37 6.85 3.05 4.4 5.18 8.8 7.19 13.75l2.56 6.25 1.19 2.95A65 65 0 0 0 749 331q1.05 2.48 2 5l1.56 3.38c1.44 3.62 1.44 3.62 1.88 7.06.69 4.39 2.41 7.71 4.56 11.56 2.75-2.6 5-5 7.06-8.19 1.98-2.87 2.81-3.58 5.94-4.81l2.31-1.62c3.54-1.81 5.76-1.86 9.69-1.38 9.11 4.56 13.65 12.33 16.95 21.62 1 3.21 1.84 6.42 2.61 9.69 2.19 9.21 6.52 15.41 12.44 22.69l2 2.81a18 18 0 0 0 5.62 4.25c3.51 2.01 3.8 2.55 5.38 5.94a28 28 0 0 0 5 2 83 83 0 0 1 12 6l3.75 1.88c6.91 3.42 13.3 7.01 19.39 11.77 1.86 1.35 1.86 1.35 5.3 3.04C877 435 877 435 878 438l1.69.38c3.59.97 5.6 3.09 8.31 5.62v2l1.81.75c2.54 1.45 3.5 2.89 5.19 5.25l2.94 3.94 1.46 1.96q1.76 2.3 3.61 4.53c12.9 16.67 19.13 43.77 16.49 64.53q-1.1 5.05-2.5 10.04l-1.56 7.06a53 53 0 0 1-5.88 15.38 104 104 0 0 0-4.18 8.06C904 570 904 570 901 571l-.5 2-.5 2-3 1-.84 1.7c-1.63 3.24-4.1 5.54-6.66 8.05l-1.61 1.6c-6.03 5.87-11.95 11.62-19.89 14.65a604 604 0 0 0-6.69 3.44A84 84 0 0 1 844 612l-5.06 1.62c-4 1.21-7.84 1.84-11.99 2.2-1.95.18-1.95.18-4.45.68-11.96 2.39-24.45 2.07-36.5.5l-2.07-.25c-5.81-.72-5.81-.72-8.18-1.28-2.4-.49-4.31-.76-6.75-.47-2.81 1.92-4.8 4.42-7 7-4.69 4.38-9.83 8.21-15 12l2.06 1.62L752 638l1.79 1.43c6.93 5.69 10.14 12.3 11.65 21.13-.95 5.29-3.13 9.31-7.19 12.82-16.36 8.18-37.16 4.74-53.86-.52L702 672l1.69 2 2.31 3 1.31 1.62c4.4 6.07 5.54 12.97 5.69 20.38a90 90 0 0 1-2 5q-13.95.25-27.9.36-6.48.05-12.96.17-6.25.11-12.51.13-2.38.02-4.77.08c-12.45.28-12.45.28-15.94-2.25a23 23 0 0 1-4.17-10.61l-.39-2.45L632 687l-.57-2.56c-.63-3.56.02-6.91.57-10.44l.5-3.69q.62-4.18 1.5-8.31l-2.38.56c-4.66.57-8.98.04-13.62-.56l1 2.12c1.11 3.2 1.17 5.57 1.06 8.94-.1 3.57.01 6.5.94 9.94a78 78 0 0 1-1 5l-.38 3.44c-.86 4.92-2.88 8.44-5.62 12.56-3.01.36-3.01.36-6.93.34h-2.16q-3.53 0-7.07-.05l-4.91-.01q-6.45-.02-12.91-.07l-13.17-.06q-12.92-.06-25.85-.15c-2.13-3.93-2.44-6.47-2-11 1.73-5.7 3.9-10.6 8-15l-1.75.75-2.25.25-1.62-2.06C539 675 539 675 537.16 675.18l-2.28.57c-11.16 2.77-28.28 3.37-38.53-2.19-4.35-2.89-6.93-5.03-8.35-10.18a30.4 30.4 0 0 1 5.12-18.63c3.74-3.57 7.75-6.65 11.88-9.75l1-1-1.71-1.21-2.23-1.6-2.21-1.58C498 628 498 628 497 625l-1.75-.31c-3.51-1.07-4.98-3.9-7.25-6.69l-1.79-.81c-3.3-1.78-5.55-4.5-8.02-7.25l-1.61-1.77c-14.81-16.43-31.04-39.47-34.08-61.86-.5-3.31-.5-3.31-1.5-5.15-1.27-2.74-1.38-5.08-1.56-8.1A72 72 0 0 0 438 522c-1.27-7.61-1.33-15.31-1-23l1-1q.42-2.53.8-5.07c1.96-12.68 6.5-25.02 17.2-32.93 6.82-4.04 12.34-6.14 20.31-6.12l3.93-.01c3.36.12 6.47.49 9.76 1.13l-.4-1.91c-.85-4.12-1.67-8.22-2.16-12.4-.44-3.69-.44-3.69-.93-5.79-.76-4.32-.92-8.65-1.13-13.02a227 227 0 0 1-.29-5.39l-.13-2.39c.04-2.1.04-2.1 1.04-5.1q.06-2.81 0-5.62-.07-2.7 0-5.38l1-1-.06-3.19c.06-3.83.86-6.22 2.06-9.81q.54-3.09.94-6.19c1.45-9.82 4.39-18.97 7.5-28.37l.87-2.65a328 328 0 0 1 10.19-26.04l.86-2.02A65 65 0 0 1 516 307c6.45-12.06 11.79-24.71 15-38l-3.19-2.31-1.79-1.3C524 264 524 264 521.63 262.66a58 58 0 0 1-8.51-6.85l-1.58-1.47c-13.85-12.97-17.94-26.48-18.61-45.37-.17-7.81-.06-15.63.01-23.44l.02-2.4.02-2.38c.05-6.86-.16-13.7-.48-20.56q-.58-12.46-.5-24.94c.04-7.15-.09-14.18-.71-21.31-.41-5.62-.59-11.25-.79-16.88-.86-23.7-.86-23.7-2.06-32.44A90 90 0 0 1 488 52c0-3 0-3-.25-5.69.44-5.89 2.35-9.65 6.82-13.56 10.73-8.01 20.35-9.07 31.43-.75m36 633-2.5 1.25L548 672l3 3 2.06-1.75A76 76 0 0 1 563 667zm129 1 1 2 2-1zm3 2 2 2v-2z" fill="#151815"/><path d="M789.31 347.38c6.27 6.12 8.06 13.74 10.06 22 4.31 17.35 15.54 31.98 30.76 41.51 6.96 4.13 14.14 7.9 21.28 11.73 30.13 16.13 52.34 37.1 62.75 70.19 6.71 25.56 1.26 51.54-11.7 73.83-3.79 6.04-8.58 11.19-13.46 16.36l-1.87 2.1c-5.8 6.26-12.82 10.6-20.13 14.9-.47.27-.47.27-2.83 1.7-18.1 9.91-39 12.65-59.3 12.5l-7.89-.02-5.09-.01h-2.35c-4.92-.04-9.66-.48-14.54-1.17v-2h-7l2.24-2.16c6.58-6.76 11.83-14.8 17.13-22.59l1.26-1.83c2.9-4.3 4.7-8.52 6.37-13.42l2.21.08c14.77.45 28 .57 41.8-5.09l3.3-1.3c13.94-6.25 23.63-17.3 29.06-31.44 4.8-14.57 3.37-29.37-2.87-43.25-9.13-17.28-26.42-27.9-43.33-36.51-27.15-13.87-48.26-32.57-59.17-61.5l-1.1-2.77c-1.97-5.92-2.2-11.74-2.28-17.9l-.04-2.43c.07-8.33 2.46-14.94 8.42-20.9 5.38-3.37 12.62-2.98 18.31-.62" fill="#111312"/><path d="m526 32 3.12 2.06L532 36l2.94 1.94q3.31 2.23 6.56 4.56 4.68 3.34 9.5 6.5c8.53 5.64 8.53 5.64 12.38 8.44 4.72 3.41 9.67 6.48 14.62 9.56l2.17 1.6c3.66 1.81 6.77 1.68 10.74 1.47l2.38-.08q2.55-.08 5.1-.19a1261 1261 0 0 1 16.64-.56c10.16-.31 20.3-.37 30.46-.37h14.13l2.49-.01c5.66.02 5.66.02 7.89 1.14l1.76-1.17C691 56 691 56 693.88 54.12c3.1-2.1 6.05-4.34 9-6.66C705 46 705 46 707.78 44.63A96 96 0 0 0 718.56 38c19.57-13.27 19.57-13.27 30.19-11.61 3.34.9 5.59 2.43 8.25 4.61l3.19 1.94c4.55 3.83 5.21 10.44 5.81 16.06q-.42 3.02-1 6-.06 2.25 0 4.5c.08 7.82-.5 15.63-1.5 23.38-.55 4.29-.85 8.56-1.06 12.87l-.13 2.62c-.47 11-.36 22.01-.27 33.01l.01 2.3.04 4.23c.02 3.6-.17 7.09-.59 10.66-.66 6.11-.61 12.2-.58 18.34l.03 6.36.05 13.48.06 15.68.03 6.24a497 497 0 0 0 .02 7.21c-.33 9.21-2.48 18.73-8.11 26.12l-1.25 2.44c-2.19 3.21-4.85 5.42-7.82 7.91-1.93 1.65-1.93 1.65-4.31 4.09C738 258 738 258 736 258l-.56 1.69c-3.23 5.19-8.68 7.76-14.44 9.31l.91 2.16a66 66 0 0 1 2.47 8.28c1.19 4.54 2.88 7.72 5.62 11.56l.44 2.4c.63 2.91 1.63 4.46 3.37 6.85 3.05 4.4 5.18 8.8 7.19 13.75l2.56 6.25 1.19 2.95A65 65 0 0 0 749 331q1.05 2.48 2 5l1.56 3.38c1.44 3.62 1.44 3.62 1.88 7.06.69 4.39 2.41 7.71 4.56 11.56 2.75-2.6 5-5 7.06-8.19 1.98-2.87 2.81-3.58 5.94-4.81l2.31-1.62c3.54-1.81 5.76-1.86 9.69-1.38 9.11 4.56 13.65 12.33 16.95 21.62 1 3.21 1.84 6.42 2.61 9.69 2.19 9.21 6.52 15.41 12.44 22.69l2 2.81a18 18 0 0 0 5.62 4.25c3.51 2.01 3.8 2.55 5.38 5.94a28 28 0 0 0 5 2 83 83 0 0 1 12 6l3.75 1.88c6.91 3.42 13.3 7.01 19.39 11.77 1.86 1.35 1.86 1.35 5.3 3.04C877 435 877 435 878 438l1.69.38c3.59.97 5.6 3.09 8.31 5.62v2l1.81.75c2.54 1.45 3.5 2.89 5.19 5.25l2.94 3.94 1.46 1.96q1.76 2.3 3.61 4.53c12.9 16.67 19.13 43.77 16.49 64.53q-1.1 5.05-2.5 10.04l-1.56 7.06a53 53 0 0 1-5.88 15.38 104 104 0 0 0-4.18 8.06C904 570 904 570 901 571l-.5 2-.5 2-3 1-.84 1.7c-1.63 3.24-4.1 5.54-6.66 8.05l-1.61 1.6c-6.03 5.87-11.95 11.62-19.89 14.65a604 604 0 0 0-6.69 3.44A84 84 0 0 1 844 612l-5.06 1.62c-4 1.21-7.84 1.84-11.99 2.2-1.95.18-1.95.18-4.45.68-11.96 2.39-24.45 2.07-36.5.5l-2.07-.25c-5.81-.72-5.81-.72-8.18-1.28-2.4-.49-4.31-.76-6.75-.47-2.81 1.92-4.8 4.42-7 7-4.69 4.38-9.83 8.21-15 12l2.06 1.62L752 638l1.79 1.43c6.93 5.69 10.14 12.3 11.65 21.13-.95 5.29-3.13 9.31-7.19 12.82-16.36 8.18-37.16 4.74-53.86-.52L702 672l1.69 2 2.31 3 1.31 1.62c4.4 6.07 5.54 12.97 5.69 20.38-.96 2.93-.96 2.93-2 5h-3l.18-3.18c.37-9.58-.04-16.17-6.75-23.55-4.27-4.02-9.03-6.11-14.43-8.27v-9a46 46 0 0 1 9.56 4.88c11.46 7 23.11 8.3 36.25 8.31l3.45.03c15.18.03 15.18.03 21.8-4.16 3.28-5.18 2.6-10.43 1.53-16.31-1.73-5.85-5.64-9.39-10.59-12.75a78 78 0 0 0-9-4v-2c1.58-1.19 1.58-1.19 3.81-2.56 3.78-2.44 7.32-5.04 10.81-7.88l2.84-2.3c2.26-2.01 3.9-4 5.73-6.38 2.42-2.45 3.5-2.87 7.01-2.95l3.84.37 4.33.35 2.3.19c20.16 1.39 41.86 2.04 61.33-3.84l2.02-.57c23.42-6.61 45.46-21.14 57.98-42.43a250 250 0 0 0 8-16.14 51 51 0 0 0 2-5.86l.84-2.87c6.4-26 1.98-51.06-10.84-74.13a96 96 0 0 0-8-11l-2.01-2.5c-12.6-14.9-29.51-24.2-46.61-33-17.65-9.12-37.26-21.92-44.13-41.75q-.66-2.37-1.25-4.75c-6.04-22.49-6.04-22.49-11.85-26.17-5.04-1.94-10.52-1.4-15.53.36-5.4 3.73-7.13 7.52-8.62 13.81a68 68 0 0 0 5 35l.84 2.04c4.49 10.46 10.41 18.68 18.16 26.96l2.07 2.38c10.15 11.11 24.13 18.33 37.24 25.31 20.31 10.81 38.09 23.07 45.96 45.7a56 56 0 0 1-4.57 41.76c-9.56 16.08-23.73 25.23-41.68 29.95-9.75 2.1-20.11 1.29-30.02.9a84 84 0 0 1 3.33-8.99c10.91-24.49 15.99-59.12 6.6-84.94-4.11-8.93-9.74-15.43-18.93-19.07l-2.36-1.08c-3.03-1.06-5.5-1.26-8.7-1.3l-3.1-.08c-5.55.67-10.6 2.56-15.84 4.46l1.44-12.56.41-3.58.4-3.49.36-3.19q.4-3.32.93-6.62c.74-5.69.65-11.38.65-17.1l.03-6.37c.04-8.22-.6-16.02-2.22-24.09l-.93-5.5c-5.33-28.96-17.26-55.23-30.51-81.28C718 276.42 718 276.42 719 269c1.73-1.98 1.73-1.98 4.19-3.75l2.75-2.05L729 261c13.92-10.25 24.15-19.98 27.58-37.76.82-6.33.72-12.71.73-19.08q0-4.09.03-8.18l.07-11.75c.16-35.32.95-70.55 2.78-105.83.98-19.26.98-19.26 1.15-28.81l.08-2.37c.05-5.52-1.31-8.66-4.42-13.22-3.62-3.22-8.26-4.34-13-4.81-5.03.3-8.72 1.94-13 4.44l-2.07 1.18c-9.96 5.82-19.42 12.44-28.93 18.94l-8.63 5.87-5.32 3.62-2.45 1.67-2.11 1.45L679 68l-1.76 1.27c-5.04 3.47-8.87 4.51-14.93 4.62l-2.52.09a451 451 0 0 1-11.08.27q-7.56.16-15.12.23-6.16.06-12.31.3c-27.48 1.05-45.95-1.17-67.24-19.28-4.75-3.91-9.87-7.17-15.04-10.5l-4.86-3.3-2.25-1.52-4.46-3.04c-7.4-4.99-14.24-8.83-23.43-7.14-4.76 2-8.85 4.7-11.06 9.5-3.54 13.83-.26 30.63.7 44.69 1.72 25.39 2.32 50.79 2.61 76.23l.02 2.3q.12 10.36.21 20.74.04 5.8.12 11.57l.03 4.3c.12 18.47 1.25 37.12 14.71 51.1 7.02 6.61 14.73 12.13 22.66 17.57a56 56 0 0 1-3.56 15.5l-.8 2.08c-3.3 8.4-7.48 16.36-11.65 24.36A309 309 0 0 0 503 344l-1.4 3.73c-2.77 7.82-4.82 15.78-6.79 23.83l-.76 3.08a165 165 0 0 0-4.36 39.48v2.18c.02 11.06.83 21.74 2.95 32.61.64 3.68.98 7.38 1.36 11.09l-2.2-.66c-11.42-3.16-21.1-3.97-31.8 1.66l-1.93.99c-8.23 5.01-12.75 14.57-14.99 23.64-3.79 19.29-2.21 41.54 2.92 60.37l.55 2.05c9.04 32.4 32.09 63.91 60.26 82.38A43 43 0 0 1 513 636l-2.38 1.03c-7.85 3.62-13.94 7.39-17.77 15.37-1.48 4.52-1.52 8.91-.85 13.6 2.82 4.32 5.66 5.45 10.58 6.6 20.29 3.38 39.52-.31 57.32-9.99C563 661 563 661 565 661v8l-1.98.92c-8.15 3.9-14.15 7.66-18.12 16.03-1.74 5.9-1.26 11.97-.9 18.05h-3c-2.37-3.71-2.42-6.67-2-11 1.73-5.7 3.9-10.6 8-15l-1.75.75-2.25.25-1.62-2.06C539 675 539 675 537.16 675.18l-2.28.57c-11.16 2.77-28.28 3.37-38.53-2.19-4.35-2.89-6.93-5.03-8.35-10.18a30.4 30.4 0 0 1 5.12-18.63c3.74-3.57 7.75-6.65 11.88-9.75l1-1-1.71-1.21-2.23-1.6-2.21-1.58C498 628 498 628 497 625l-1.75-.31c-3.51-1.07-4.98-3.9-7.25-6.69l-1.79-.81c-3.3-1.78-5.55-4.5-8.02-7.25l-1.61-1.77c-14.81-16.43-31.04-39.47-34.08-61.86-.5-3.31-.5-3.31-1.5-5.15-1.27-2.74-1.38-5.08-1.56-8.1A72 72 0 0 0 438 522c-1.27-7.61-1.33-15.31-1-23l1-1q.42-2.53.8-5.07c1.96-12.68 6.5-25.02 17.2-32.93 6.82-4.04 12.34-6.14 20.31-6.12l3.93-.01c3.36.12 6.47.49 9.76 1.13l-.4-1.91c-.85-4.12-1.67-8.22-2.16-12.4-.44-3.69-.44-3.69-.93-5.79-.76-4.32-.92-8.65-1.13-13.02a227 227 0 0 1-.29-5.39l-.13-2.39c.04-2.1.04-2.1 1.04-5.1q.06-2.81 0-5.62-.07-2.7 0-5.38l1-1-.06-3.19c.06-3.83.86-6.22 2.06-9.81q.54-3.09.94-6.19c1.45-9.82 4.39-18.97 7.5-28.37l.87-2.65a328 328 0 0 1 10.19-26.04l.86-2.02A65 65 0 0 1 516 307c6.45-12.06 11.79-24.71 15-38l-3.19-2.31-1.79-1.3C524 264 524 264 521.63 262.66a58 58 0 0 1-8.51-6.85l-1.58-1.47c-13.85-12.97-17.94-26.48-18.61-45.37-.17-7.81-.06-15.63.01-23.44l.02-2.4.02-2.38c.05-6.86-.16-13.7-.48-20.56q-.58-12.46-.5-24.94c.04-7.15-.09-14.18-.71-21.31-.41-5.62-.59-11.25-.79-16.88-.86-23.7-.86-23.7-2.06-32.44A90 90 0 0 1 488 52c0-3 0-3-.25-5.69.44-5.89 2.35-9.65 6.82-13.56 10.73-8.01 20.35-9.07 31.43-.75m36 633-2.5 1.25L548 672l3 3 2.06-1.75A76 76 0 0 1 563 667zm129 1 1 2 2-1zm3 2 2 2v-2z" fill="#ECEDEE"/><path d="m579 496 1 2h2a39 39 0 0 1 3 3.5c9.38 10.97 23.04 20.43 37.75 21.75A84 84 0 0 0 631 523l2.13-.14c14.2-2.05 28.55-13.74 37.07-24.69L672 496h2c.54 4.85-1.17 7.47-3.75 11.5l-2.11 3.34c-3.15 4.64-6.29 8.55-10.64 12.1l-2.28 1.9a81 81 0 0 1-9.42 5.3l-3.29 1.62L640 533l.09 1.97c.77 17.65 1.1 35.27 1.1 52.93l.02 8.2c.07 14.33-.07 28.6-1.1 42.9l-.23 3.33A98 98 0 0 1 637 659h-21c-1.46-4.38-2.28-7.11-2.6-11.49l-.24-3.14-.22-3.25-.24-3.12q-.37-5-.7-10l-.28-3.72a422 422 0 0 1-.84-31.22v-2.57c.03-19.2.66-38.34 2.12-57.49l-2.34-1.1c-12.85-6.2-12.85-6.2-17.66-10.9v-2l-1.71-.62c-3.14-1.89-4.94-4.53-6.98-7.5l-1.22-1.77c-2.98-4.5-4.19-7.76-4.09-13.11" fill="#000"/><path d="m526 32 3.12 2.06L532 36l2.94 1.94q3.31 2.23 6.56 4.56 4.68 3.34 9.5 6.5c8.53 5.64 8.53 5.64 12.38 8.44 4.72 3.41 9.67 6.48 14.62 9.56l2.17 1.6c3.66 1.81 6.77 1.68 10.74 1.47l2.38-.08q2.55-.08 5.1-.19a1261 1261 0 0 1 16.64-.56c10.16-.31 20.3-.37 30.46-.37h14.13l2.49-.01c5.66.02 5.66.02 7.89 1.14l1.76-1.17C691 56 691 56 693.88 54.12c3.1-2.1 6.05-4.34 9-6.66C705 46 705 46 707.78 44.63A96 96 0 0 0 718.56 38c19.57-13.27 19.57-13.27 30.19-11.61 3.34.9 5.59 2.43 8.25 4.61l3.19 1.94c4.55 3.83 5.21 10.44 5.81 16.06q-.42 3.02-1 6-.06 2.25 0 4.5c.08 7.82-.5 15.63-1.5 23.38-.55 4.29-.85 8.56-1.06 12.87l-.13 2.62c-.47 11-.36 22.01-.27 33.01.04 6.75.02 13.39-.79 20.09-.68 6.92-.62 13.94-.77 20.89l-.1 3.67-.08 3.33C760 182 760 182 758 184c-.4-33.37.26-66.53 1.93-99.85 1.23-24.35 1.23-24.35 1.41-34.7l.09-2.34c.04-5.59-1.37-8.62-4.43-13.11-3.62-3.22-8.26-4.34-13-4.81-5.03.3-8.72 1.94-13 4.44l-2.07 1.18c-9.96 5.82-19.42 12.44-28.93 18.94l-8.63 5.87-5.32 3.62-2.45 1.67-2.11 1.45L679 68l-1.76 1.27c-5.04 3.47-8.87 4.51-14.93 4.62l-2.52.09a451 451 0 0 1-11.08.27q-7.56.16-15.12.23-6.16.06-12.31.3c-27.48 1.05-45.95-1.17-67.24-19.28-4.75-3.91-9.87-7.17-15.04-10.5l-4.86-3.3-2.25-1.52-4.46-3.04c-7.4-4.99-14.24-8.83-23.43-7.14-4.76 2-8.85 4.7-11.06 9.5-3.54 13.83-.26 30.63.7 44.69 1.72 25.39 2.32 50.79 2.61 76.23l.02 2.3q.12 10.36.21 20.74.04 5.8.12 11.57l.03 4.3c.12 18.47 1.25 37.12 14.71 51.1 7.02 6.61 14.73 12.13 22.66 17.57a56 56 0 0 1-3.56 15.5l-.8 2.08c-3.3 8.4-7.48 16.36-11.65 24.36A309 309 0 0 0 503 344l-1.4 3.73c-2.77 7.82-4.82 15.78-6.79 23.83l-.76 3.08a165 165 0 0 0-4.36 39.48v2.18c.02 11.06.83 21.74 2.95 32.61.64 3.68.98 7.38 1.36 11.09l-2.2-.66c-11.42-3.16-21.1-3.97-31.8 1.66l-1.93.99c-8.23 5.01-12.75 14.57-14.99 23.64-3.79 19.29-2.21 41.54 2.92 60.37l.55 2.05c9.04 32.4 32.09 63.91 60.26 82.38A43 43 0 0 1 513 636l-2.38 1.03c-7.85 3.62-13.94 7.39-17.77 15.37-1.48 4.52-1.52 8.91-.85 13.6 2.82 4.32 5.66 5.45 10.58 6.6 20.29 3.38 39.52-.31 57.32-9.99C563 661 563 661 565 661v8l-1.98.92c-8.15 3.9-14.15 7.66-18.12 16.03-1.74 5.9-1.26 11.97-.9 18.05h-3c-2.37-3.71-2.42-6.67-2-11 1.73-5.7 3.9-10.6 8-15l-1.75.75-2.25.25-1.62-2.06C539 675 539 675 537.16 675.18l-2.28.57c-11.16 2.77-28.28 3.37-38.53-2.19-4.35-2.89-6.93-5.03-8.35-10.18a30.4 30.4 0 0 1 5.12-18.63c3.74-3.57 7.75-6.65 11.88-9.75l1-1-1.71-1.21-2.23-1.6-2.21-1.58C498 628 498 628 497 625l-1.75-.31c-3.51-1.07-4.98-3.9-7.25-6.69l-1.79-.81c-3.3-1.78-5.55-4.5-8.02-7.25l-1.61-1.77c-14.81-16.43-31.04-39.47-34.08-61.86-.5-3.31-.5-3.31-1.5-5.15-1.27-2.74-1.38-5.08-1.56-8.1A72 72 0 0 0 438 522c-1.27-7.61-1.33-15.31-1-23l1-1q.42-2.53.8-5.07c1.96-12.68 6.5-25.02 17.2-32.93 6.82-4.04 12.34-6.14 20.31-6.12l3.93-.01c3.36.12 6.47.49 9.76 1.13l-.4-1.91c-.85-4.12-1.67-8.22-2.16-12.4-.44-3.69-.44-3.69-.93-5.79-.76-4.32-.92-8.65-1.13-13.02a227 227 0 0 1-.29-5.39l-.13-2.39c.04-2.1.04-2.1 1.04-5.1q.06-2.81 0-5.62-.07-2.7 0-5.38l1-1-.06-3.19c.06-3.83.86-6.22 2.06-9.81q.54-3.09.94-6.19c1.45-9.82 4.39-18.97 7.5-28.37l.87-2.65a328 328 0 0 1 10.19-26.04l.86-2.02A65 65 0 0 1 516 307c6.45-12.06 11.79-24.71 15-38l-3.19-2.31-1.79-1.3C524 264 524 264 521.63 262.66a58 58 0 0 1-8.51-6.85l-1.58-1.47c-13.85-12.97-17.94-26.48-18.61-45.37-.17-7.81-.06-15.63.01-23.44l.02-2.4.02-2.38c.05-6.86-.16-13.7-.48-20.56q-.58-12.46-.5-24.94c.04-7.15-.09-14.18-.71-21.31-.41-5.62-.59-11.25-.79-16.88-.86-23.7-.86-23.7-2.06-32.44A90 90 0 0 1 488 52c0-3 0-3-.25-5.69.44-5.89 2.35-9.65 6.82-13.56 10.73-8.01 20.35-9.07 31.43-.75m36 633-2.5 1.25L548 672l3 3 2.06-1.75A76 76 0 0 1 563 667z" fill="#E4E5E6"/><path d="M791.75 347.49c6.83 7.37 9.54 16.19 11.82 25.82 2.18 9.2 6.52 15.4 12.43 22.69l2 2.8a18 18 0 0 0 5.63 4.26c3.5 2 3.79 2.55 5.37 5.94a28 28 0 0 0 5 2 83 83 0 0 1 12 6l3.75 1.88c6.92 3.43 13.3 7 19.39 11.77 1.86 1.35 1.86 1.35 5.3 3.04 2.56 1.3 2.56 1.3 3.56 4.3l1.69.39c3.6.97 5.6 3.09 8.3 5.62v2l1.83.75c2.53 1.45 3.5 2.89 5.18 5.25l2.94 3.94 1.47 1.96q1.75 2.3 3.6 4.53c12.9 16.68 19.13 43.77 16.49 64.53Q918.4 532 917 537l-1.56 7.06a53 53 0 0 1-5.87 15.38c-1.52 2.67-2.9 5.27-4.2 8.06C904 570 904 570 901 571l-.5 2-.5 2-3 1-.84 1.7c-1.63 3.24-4.1 5.54-6.66 8.05l-1.61 1.6c-6.02 5.87-11.94 11.62-19.9 14.65a602 602 0 0 0-6.67 3.44A84 84 0 0 1 844 612l-5.06 1.63c-4 1.2-7.83 1.83-12 2.19-1.94.18-1.94.18-4.44.68-11.96 2.39-24.44 2.07-36.5.5l-2.07-.25c-5.81-.72-5.81-.72-8.18-1.28-2.4-.5-4.31-.76-6.75-.47-2.81 1.93-4.8 4.42-7 7-4.7 4.38-9.82 8.2-15 12l2.07 1.63L752 638l1.79 1.43c6.93 5.69 10.14 12.3 11.65 21.13-.95 5.29-3.13 9.3-7.2 12.82-16.35 8.18-37.15 4.74-53.85-.51q-1.16-.44-2.4-.87l1.7 2 2.3 3 1.32 1.62c4.4 6.07 5.54 12.97 5.69 20.38-.96 2.93-.96 2.93-2 5h-3l.18-3.18c.37-9.58-.04-16.17-6.75-23.55-4.26-4.02-9.02-6.11-14.43-8.27v-9a46 46 0 0 1 9.57 4.88c11.46 7 23.1 8.3 36.25 8.3l3.44.05c15.19.02 15.19.02 21.8-4.17 3.29-5.18 2.6-10.43 1.54-16.3-1.74-5.86-5.64-9.4-10.6-12.76a77 77 0 0 0-9-4v-2c1.59-1.2 1.59-1.2 3.82-2.56 3.78-2.44 7.3-5.04 10.8-7.88l2.85-2.3a42 42 0 0 0 5.72-6.38c2.42-2.45 3.5-2.87 7-2.95l3.85.37 4.33.36 2.3.18c20.16 1.39 41.86 2.04 61.33-3.84l2.03-.57c23.4-6.61 45.45-21.14 57.97-42.43 2.5-4.6 4.8-9.25 7-14l1-2.14a51 51 0 0 0 2-5.86l.84-2.87c6.4-26 1.99-51.05-10.84-74.13a95 95 0 0 0-8-11l-2-2.5c-12.61-14.9-29.52-24.2-46.62-33-17.65-9.12-37.26-21.92-44.13-41.75q-.66-2.37-1.25-4.75c-6.07-22.6-6.07-22.6-11.88-26.15-3.33-1.34-6.55-1.5-10.12-1.85v-1c9.06-1.51 9.06-1.51 13.75 2.49M691 665.99l1 2 2-1q-1.49-.48-3-1m3 2 2 2v-2z" fill="#E6E6E7"/><path d="M738 470h2c-.89 38.76-9.75 76.89-23.91 112.89a297 297 0 0 0-18.75 74.77A53 53 0 0 1 696 664c-3.9-.58-6.2-2.27-9-5-3.92-24.85 13.46-59.84 21.49-82.82a1052 1052 0 0 0 17.07-53.12l.85-2.92A446 446 0 0 0 738 470" fill="#000100"/><path d="M512 469h2l.27 1.87c1.91 12.84 4.28 25.28 8.09 37.7q1.54 5.06 2.97 10.17a630 630 0 0 0 11.87 37.67q1.71 4.94 3.39 9.89 4.3 12.62 8.66 25.21a381 381 0 0 1 13.29 48.01c2.9 13.85 2.9 13.85 2.46 20.48-2.31 2.44-2.31 2.44-5 4h-3c-.93-3.13-1.25-6.23-1.54-9.48-2.93-31.2-13.55-59.34-24.53-88.41L529 561l-.77-2.05c-10.7-28.82-13.37-59.59-16.23-89.95" fill="#000101"/><path d="M491 58h1a6061 6061 0 0 1 1.64 25.42c1.69 25.65 2.32 51.31 2.61 77l.02 2.3q.12 10.36.21 20.74.04 5.8.12 11.57l.03 4.3c.12 18.47 1.25 37.12 14.71 51.1a120 120 0 0 0 18.24 14.08c1.74 1.17 1.74 1.17 4.42 3.49.39 2.79.39 2.79 0 5h-4l1-4-3.19-2.31-1.79-1.3C524 264 524 264 521.63 262.66a58 58 0 0 1-8.51-6.85l-1.58-1.47c-13.85-12.97-17.94-26.48-18.61-45.37-.17-7.81-.06-15.63.01-23.44l.02-2.4.02-2.38c.05-6.86-.16-13.7-.48-20.56q-.58-12.46-.5-24.94c.04-7.15-.1-14.18-.71-21.3-.42-5.67-.63-11.34-.85-17.01l-.14-3.27c-.37-9.99-.68-20.01.2-29.98l.28-3.3z" fill="#D4D6D5"/><path d="m526 32 3.12 2.06L532 36l2.94 1.94q3.31 2.23 6.56 4.56 4.68 3.34 9.5 6.5c8.53 5.64 8.53 5.64 12.38 8.44 4.72 3.41 9.67 6.48 14.62 9.56l2.17 1.6c3.66 1.81 6.77 1.68 10.74 1.47l2.38-.08q2.55-.08 5.1-.19 6.87-.27 13.73-.47l2.9-.09c11.18-.34 22.36-.33 33.54-.3h2.97L668 69v2c-3.03 1.51-6.22 1.36-9.55 1.52l-2.37.13q-10.96.55-21.94.86-7.33.21-14.67.63c-27.02 1.55-44.43-.92-65.4-18.63-4.77-3.9-9.89-7.17-15.07-10.51l-4.86-3.3-2.25-1.52-4.46-3.04c-7.4-4.99-14.24-8.83-23.43-7.14-5.1 2.15-8.16 4.36-10.71 9.34-2.05 6.03-1.86 12.36-1.98 18.66l-.1 3.79L491 71c-3.69-3.69-3.05-9.81-3.06-14.81q.02-2.1.06-4.19c0-3 0-3-.25-5.69.44-5.89 2.35-9.65 6.82-13.56 10.73-8.01 20.35-9.07 31.43-.75" fill="#E4E4E4"/><path d="M916 509h1l.18 3.58.26 4.67.12 2.36.23 4.38c.21 2.01.21 2.01.79 4.01.5 2.4.16 3.78-.54 6.12l-.68 2.34-.74 2.42c-2.52 8.5-2.52 8.5-3.17 12.5-.61 3.55-2.38 5.7-4.45 8.62a335 335 0 0 0-3 6c-1.56 2.88-1.56 2.88-3 5h-2l-.31 1.94L900 575l-3 1-.84 1.7c-1.63 3.24-4.1 5.54-6.66 8.05l-1.61 1.6c-6.03 5.87-11.95 11.62-19.89 14.65a604 604 0 0 0-6.69 3.44A84 84 0 0 1 844 612l-5.06 1.62c-4 1.21-7.84 1.84-11.99 2.2-1.95.18-1.95.18-4.45.68-11.96 2.39-24.67 2.62-36.5-.5 3.66-2.44 5.45-2.25 9.81-2.27l4.17-.06 2.21-.02c13.63-.16 26.61-.95 39.81-4.65l2.05-.56c23.4-6.63 45.43-21.16 57.95-42.44q3.72-6.89 7-14l1-2.14c5.38-12.87 5.6-27.15 6-40.86" fill="#DCDDDD"/><path d="M633.41 203.9c1.9 1.1 1.9 1.1 4.59 3.1.46 3.14.49 5.24-1.27 7.95A44 44 0 0 1 632 220h-2l.19 2.81c-.19 3.2-.19 3.2-1.38 5.06-2.47 1.53-3.96 1.55-6.81 1.13-1.81-1.13-1.81-1.13-3-3-.19-3.19-.19-3.19 0-6l-1.75-.75A18.4 18.4 0 0 1 611 214c-.5-3-.5-3 0-6 5.06-6.46 15.02-6.85 22.41-4.1" fill="#626563"/><path d="m795 571 1.98.46c3.77.67 7.51.89 11.33 1.1l2.25.13 5.44.31v1h-13v4l-2 1c-.82 1.86-.82 1.86-1.69 4.31A82 82 0 0 1 790 601h-2l-.25 1.75c-.96 2.87-2.6 4.17-4.75 6.25l-1 3-14-1 2.24-2.16c6.58-6.76 11.83-14.81 17.14-22.59l1.26-1.82c2.88-4.3 4.69-8.53 6.36-13.43" fill="#010101"/><path d="M438 498h3l.03 2.15c.7 42.5 12.63 75.31 39.97 107.85l-2 1c-17.06-13.58-33.56-41-36.5-62.69-.5-3.31-.5-3.31-1.5-5.15-1.27-2.74-1.38-5.08-1.56-8.1A72 72 0 0 0 438 522c-1.27-7.61-1.33-15.31-1-23z" fill="#E5E6E6"/><path d="M616 660h20l-.11 5.77-.08 7.61-.07 3.79c-.08 10.18.98 18.61 7.26 26.83-2.25-.06-2.25-.06-5-1-3.68-5.04-4.9-9.94-6-16l-.69-2.56c-.45-3.56.14-6.93.69-10.44l.5-3.69q.62-4.18 1.5-8.31l-2.38.56c-4.66.57-8.98.04-13.62-.56l1 2.12c1.11 3.2 1.17 5.57 1.06 8.94-.1 3.57.01 6.5.94 9.94a78 78 0 0 1-1 5l-.38 3.44c-.86 4.92-2.88 8.44-5.62 12.56l-4-1 1.88-2.44c5.26-8.04 4.37-17.91 4.24-27.12l-.02-3.93z" fill="#EEEEF2"/><path d="M687 660a46 46 0 0 1 9.56 4.88c10.94 6.68 22.27 8.19 34.82 8.68l3.09.13 7.53.31v1h-14v2c-8.93-1.02-17.39-2.32-26-5l1.69 2 2.31 3 1.31 1.62c4.4 6.07 5.54 12.97 5.69 20.38-.96 2.93-.96 2.93-2 5h-3l.18-3.18c.37-9.58-.04-16.17-6.75-23.55-4.27-4.02-9.03-6.11-14.43-8.27zm4 6 1 2 2-1zm3 2 2 2v-2z" fill="#E7E8EA"/><path d="M791.75 347.49c6.83 7.37 9.54 16.19 11.82 25.82 2.18 9.2 6.52 15.4 12.43 22.69l2 2.8a18 18 0 0 0 5.63 4.26c3.5 2 3.79 2.55 5.37 5.94a28 28 0 0 0 5 2 83 83 0 0 1 12 6q3.98 2.04 8 4v3c-12.33-3.57-24.6-11.4-34-20l-2.05-1.81c-8.25-7.71-15.18-17.18-17.95-28.2-6.07-22.6-6.07-22.6-11.88-26.14-3.33-1.34-6.55-1.5-10.12-1.85v-1c9.06-1.51 9.06-1.51 13.75 2.49" fill="#E1E2E3"/><path d="M668 69v2c-3.14 1.57-6.49 1.18-9.94 1.21l-2.48.03-8.15.08-5.64.06-14.87.15-15.16.16L582 73c2.21-2.51 2.73-2.96 6.22-3.43q2.03-.06 4.06-.08l2.25-.06 7.41-.12 5.16-.1c20.3-.37 40.6-.3 60.9-.21" fill="#F2F3F5"/><path d="m684.38 183.75 3.33-.02c9.36.02 16.3 1.28 24.28 6.27v2l-2-.62-5.32-1.63c-16.9-4.76-33.99-1.75-49.67 5.25l-4.25 1.81L648 198l2-4h2v-2q3.3-1.44 6.63-2.87l1.87-.82q2.74-1.18 5.5-2.31l2.68-1.18c5.2-1.29 10.36-1.11 15.7-1.07" fill="#020402"/><path d="m595 191 3.06 1.62C600 194 600 194 601 197a29 29 0 0 1-7.75-2.88c-14.77-7.49-31.96-9.84-47.98-4.97-2.27.85-2.27.85-4.38 2.01C539 192 539 192 536 191c4.35-5.08 9.96-6.41 16.38-7.19l3.77-.48c13.46-1.16 27.18.54 38.85 7.67" fill="#020403"/><path d="M491 58h1c3.58 53.25 3.58 53.25 3 74h-2c-2.2-18.96-2.2-18.96-2-27.57a65 65 0 0 0-.5-7.37c-1.3-12.91-.82-26.16.5-39.06" fill="#CED0CE"/><path d="M916 509h1l.18 3.58.26 4.67.12 2.36.23 4.38c.21 2.01.21 2.01.79 4.01.5 2.4.16 3.78-.54 6.12l-.68 2.34-.74 2.42c-2.52 8.5-2.52 8.5-3.17 12.5-.61 3.55-2.38 5.7-4.45 8.62a335 335 0 0 0-3 6c-1.56 2.88-1.56 2.88-3 5h-2l-1 4h-3a171 171 0 0 1 6.94-12.69c9.69-16.78 11.5-34.28 12.06-53.31" fill="#E2E2E5"/><path d="M763 44h2l.56 4.38.32 2.46C766 53 766 53 765 55a67 67 0 0 0 0 4.25 165 165 0 0 1-1.5 23.52c-.76 5.85-.88 11.74-1.11 17.63A86 86 0 0 1 761 114h-1c-.15-23.45-.18-46.72 3-70" fill="#EBEDEC"/><path d="M514 27v1l-1.87.23c-6.55 1.01-12.47 2.84-17.13 7.77-3.64 7.09-3.54 14.15-3.69 22l-.1 3.79L491 71c-3.69-3.69-3.05-9.81-3.06-14.81q.02-2.1.06-4.19c0-3 0-3-.25-5.69.44-5.89 2.35-9.65 6.82-13.56 7.13-5.32 10.56-7.28 19.43-5.75" fill="#EAEAEC"/><path d="M488 408h1l.04 1.79a278 278 0 0 0 3.61 38.96c.58 3.74.96 7.49 1.35 11.25l-8-2 4-3-.4-1.91c-.85-4.12-1.67-8.22-2.16-12.4-.44-3.69-.44-3.69-1.06-6.38-.38-2.31-.38-2.31.06-4.34.8-4.24.93-8.48 1.12-12.78l.13-2.68z" fill="#E0E2E2"/><path d="m770.48 611.99 4.27.32 2.13.15c4.1.3 8.08.8 12.12 1.54l-3 1v2l-3.44-.44-2.2-.24c-2.36-.32-2.36-.32-4.65-.85a20 20 0 0 0-6.7-.47c-2.83 1.93-4.8 4.42-7 7a133 133 0 0 1-5.44 4.84C755 628 755 628 752 629c.35-4.56 3.71-6.82 6.93-9.62l3.28-2.92 2.8-2.46c2-2 2-2 5.47-2.01" fill="#ECEFED"/><path d="M910 480h2l2.38 7 .67 1.96a84 84 0 0 1 4.64 24.35l.14 2.71c.3 6.58.3 6.58-.83 9.98h-2l-.11-3.12c-.34-7.73-.94-15.32-2.27-22.94l-.34-2.05c-.78-4.24-2-8.06-3.68-12.03-.6-1.86-.6-1.86-.6-5.86" fill="#EAECED"/><path d="m526 32 3 2 3 2 2.94 1.94L538 40l1.9 1.22 1.91 1.28 1.77 1.16c1.77 1.67 2.03 2.98 2.42 5.34-6.38-3.52-12.33-7.54-18.33-11.67-6.71-4.54-12.45-7.49-20.67-8.33v-1c8.03-1.44 12.39-.82 19 4" fill="#DFE1E1"/><path d="M493 132h2v55h-1l-.85-12.64-.3-4.29c-.74-10.78-1.28-21.46-.35-32.26l.28-3.35z" fill="#EDEFEE"/><path d="m556 670 2 2-1.79 1.18c-6.1 4.31-10.24 8.47-12.21 15.82-.38 5.05-.3 9.94 0 15h-3c-2.37-3.71-2.42-6.67-2-11 2.44-9.75 8.89-17.27 17-23" fill="#DFDEE5"/><path d="m775 409 4 1 1 5 1.88.25c2.12.75 2.12.75 3.06 2.5L786 420a262 262 0 0 0 5 5l5 6q2.45 2.55 5 5l-2 1c-9.17-7.81-17.51-15.74-24-26z" fill="#0A0C0B"/><path d="M438 498h3l.08 2.32.36 10.56.12 3.64c.24 6.87.64 13.66 1.44 20.48l-2 1a47 47 0 0 1-2.78-11.96c-.2-1.87-.49-3.74-.78-5.6-.81-6.4-.72-13.01-.44-19.44z" fill="#CED0CE"/><path d="M491 58h1c1.29 15.65 1.1 31.31 1 47-7.29-10.94-3.3-34.32-2-47" fill="#DADCDB"/><path d="M759 182h1q.29 7.34.54 14.68l.18 4.99q.14 3.59.26 7.19l.09 2.24c.12 4.12-.21 7.2-2.07 10.9h-1l-.05-16.13-.03-5.48-.02-7.88-.01-2.49c0-5.79 0-5.79 1.11-8.02" fill="#F2F4F4"/><path d="M893 452c8.43 5.87 14.56 15.42 18 25-.34 2.36-.34 2.36-1 4-2.84-3.48-4.79-7.33-6.81-11.31A66 66 0 0 0 893 455z" fill="#E1E1E3"/><path d="M488 389h2c.14 8.06-.41 16.03-1 24.06l-.29 4.07L488 427c-2.23-3.35-2.39-5.05-2.69-9l-.26-3.19C485 412 485 412 486 409q.06-2.81 0-5.62-.07-2.7 0-5.38l1-1v-3.5c0-3.5 0-3.5 1-4.5" fill="#EEF1F3"/><path d="m693 54 3 2a421 421 0 0 1-18.38 13.06l-1.76 1.23c-2.81 1.85-4.37 2.75-7.77 2.46L666 72l1.73-.82a66 66 0 0 0 6.65-4.06l2.38-1.6L679 64q4.61-3.08 9.25-6.12C691 56 691 56 693 54" fill="#E5E6E8"/><path d="M495 360h2a104 104 0 0 1-3 16.06 112 112 0 0 0-3 14.94c-2-2-2-2-2.01-4.32l.32-2.8.35-3.01.34-2.87.16-2.15c.47-5.75 2.54-10.64 4.84-15.85" fill="#DBDDDE"/><path d="m755.74 29.7 2.57 2.12 2.62 2.08c2.22 2.26 2.55 3.08 3.07 6.1-.08 2.77-.22 5.49-.44 8.25l-.15 2.26L763 56h-1l-.08-3.03c-.51-13.9-.51-13.9-4.92-18.97-4.7-3.3-9.35-4.53-15-5v-1c5.16-1.36 9.15-1.15 13.74 1.7" fill="#D9DADA"/><path d="M763 44h2l.56 4.38.32 2.46C766 53 766 53 765 55a82 82 0 0 0 0 4.69c.03 4.25-.05 8.16-1 12.31l-3 2c-.32-10.18.65-19.93 2-30" fill="#E2E5E1"/><path d="m784 342 2 3-1.98.33c-6.37 1.16-11.72 2.17-16.27 7.11A40 40 0 0 0 764 359c-.69-1.69-.69-1.69-1-4 3.88-7.95 11.84-14.47 21-13" fill="#E4E5E9"/><path d="M634 677h1l.33 3c2.07 17.6 2.07 17.6 7.67 24-2.25-.06-2.25-.06-5-1-4.63-6.61-6.45-12.36-5.12-20.44q.54-2.78 1.12-5.56" fill="#DFE1E2"/><path d="M916 509h1l.18 3.58.26 4.67.12 2.36.23 4.38c.21 2.01.21 2.01.78 4.04.73 3.36-.57 6.49-1.51 9.72l-.59 2.11q-.72 2.58-1.47 5.14c-2-2-2-2-2.01-3.99l.32-2.32.3-2.3q.4-2.38.89-4.74c.48-2.53.7-4.94.82-7.51l.12-2.69.12-2.76.13-2.82z" fill="#D4D8D6"/><path d="m495 648 2 1c-1.88 5.88-1.88 5.88-3 7-.36 6.46-.36 6.46 2 10-.38 2.19-.38 2.19-1 4-2-1.31-2-1.31-4-4-.92-6.24-.53-11.63 3-17z" fill="#262829"/><path d="M553 669v2l-4 2v3c-2 1.69-2 1.69-4 3l-4-2c1.31-3.44 1.31-3.44 3-7 3.2-1.07 5.66-1.07 9-1" fill="#F2F0F3"/><path d="M494 194h2v28l-2-1a79 79 0 0 1-.69-7.38l-.12-2.17c-.28-5.88.01-11.61.81-17.45" fill="#EDEEF0"/><path d="M493 646h2a30 30 0 0 1-2.04 6.26c-1.11 3.17-1.09 5.58-.96 8.93.12 3.17.12 3.17 0 5.81l-2 2c-2.65-6.48-1.93-12.33 0-19 1.46-2.36 1.46-2.36 3-4" fill="#E9EAEB"/><path d="m616 688 3 1c-.28 6.2-1.11 10.1-5 15l-4-1 1.88-2.44c2.62-3.88 3.35-8 4.12-12.56" fill="#E2E5E5"/><path d="M793 615h22l-1 2c-3.15 1.05-5.39 1.1-8.69 1.06l-3.01-.02-2.3-.04v-2h-7z" fill="#F2F2F3"/><path d="m475.81 455.81 3.21-.04c2.92.22 4.55.62 6.98 2.23l1 2-7.88-.38-2.26-.09c-5.64-.3-5.64-.3-7.86-2.53 1.8-1.79 4.4-1.18 6.81-1.19" fill="#282A2C"/><path d="m791.89 347.77 1.8 2.04 1.82 2.02c1.66 2.42 2.12 4.29 2.49 7.17l-2 1-.91-2.08c-3.4-7.31-3.4-7.31-6.4-9.98-3.58-1.25-6.9-1.62-10.7-1.94v-1c9.3-1.55 9.3-1.55 13.9 2.77" fill="#E0E2E7"/><path d="M496 213h1l.4 3.07.54 4.05.26 2.02q.79 5.95 1.8 11.86h-4c-.79-7.22-1.08-13.81 0-21" fill="#CED1D1"/><path d="M570 62a47 47 0 0 1 5.44 3.25l2.93 1.89A33 33 0 0 1 584 72l-3 1c-2.88-1.58-2.88-1.58-6.12-3.81l-3.26-2.21C569 65 569 65 568 63z" fill="#E9EBE9"/><path d="M758 369h4c1.38 2.76 1.1 5.05 1.06 8.12l-.02 3.33L763 383c-3.29-2.96-4.02-5.68-5-10z" fill="#F7F9F8"/><path d="M491 406h1q.13 5.4.19 10.81l.07 3.11.03 2.97.05 2.75c-.4 2.78-1.18 3.64-3.34 5.36q-.05-3.18-.06-6.38l-.04-3.58c.1-3.04.1-3.04 1.1-5.04q.34-2.55.56-5.12l.26-2.76z" fill="#222526"/><path d="M496 112c2.21 3.31 2.22 4.34 2.12 8.19l-.05 2.73L498 125h-1l-1 17h-1l-.06-12.75-.03-3.66-.01-3.51-.01-3.24c.09-2.46.39-4.49 1.11-6.84" fill="#292C29"/><path d="M797 359h2c2.58 6.05 3.61 11.44 4 18h-2l-2-6.75-1.12-3.8C797 363 797 363 797 359" fill="#E5E5E9"/><path d="M882 441c2.44.81 2.44.81 5 2l1 3 1.88.94c2.53 1.26 3.57 2.73 5.12 5.06l-3 1-5-4.88-2.81-2.74C882 443 882 443 882 441" fill="#ECECF0"/><path d="m687 660 5 2-3 4 5 2v3l-7-2z" fill="#DFE0DD"/><path d="M760 647c2.23 2.23 2.69 3.66 3.62 6.62l.79 2.48.59 1.9-2 1c-.62 2.56-.62 2.56-1 5h-1l-1.06-7.38-.32-2.11c-.73-5.28-.73-5.28.38-7.51" fill="#DFE0DF"/><path d="M478 609c4.68.46 6.63 2.19 9.81 5.56l2.4 2.51L492 619l-2 2-1.28-1.31c-2.25-2.21-4.67-4.18-7.1-6.19C480 612 480 612 478 609" fill="#ECEFEC"/><path d="m917 509 2 1c1.09 5.65.91 10.34 0 16h-2z" fill="#F0F1F2"/><path d="m776.75 455.88 3.55.05 2.7.06v2c-.3.05-.3.05-1.83.2l-2.42.25q-1.18.11-2.39.25c-2.36.3-2.36.3-4.52.9-2.51.56-3.7-.28-5.84-1.6 3.59-2.25 6.57-2.2 10.75-2.12" fill="#2D2F2E"/><path d="m760 380 4 1c1.25 7.62 1.25 7.62-1 11l-2 1z" fill="#C5C7C6"/><path d="M718 674h24v1h-14v2l-10-1z" fill="#CBCCCA"/><path d="m897 573 1 2c-2.24 4.9-6.15 8.34-10 12l-3-1 2.12-2.08 2.76-2.73 2.74-2.71C895 576 895 576 897 573" fill="#D2D4D5"/><path d="M762 69h1a56 56 0 0 1-1 22h-1l-.06-8.19-.03-2.33c-.01-3.97.1-7.61 1.09-11.48" fill="#F1F5F1"/><path d="M748 342h2l2 5.75 1.12 3.23C754 354 754 354 754 358h-2c-1.8-5.39-3.25-10.35-4-16" fill="#232623"/><path d="M491 374h2a303 303 0 0 1-2 17c-2-2-2-2-2.01-4.46l.32-2.92.3-2.89c.33-2.31.77-4.49 1.39-6.73" fill="#E3E6E6"/><path d="m543 671-1 4c-4.72.92-7.67 1.23-12-1v-1l4.81-1 2.71-.56C540 671 540 671 543 671" fill="#DDDFDF"/><path d="M738 470h2l-1 20h-1l-.44-3.25c-.56-3.75-.56-3.75-1.15-5.69-.51-2.55-.1-4.3.53-6.81l.59-2.42z" fill="#060905"/><path d="M763 658c2 3 2 3 1.68 5.19l-.8 2.37-.76 2.38c-1.35 2.48-2.53 3.06-5.12 4.06l1.94-6.44 1.09-3.62C762 659 762 659 763 658" fill="#EFF2EF"/><path d="M506 329c.93 2.55 1.09 3.74.22 6.36l-1.16 2.39-1.15 2.42L503 342h-2c.52-5.28 2.25-8.57 5-13" fill="#EAECED"/><path d="m758 669 1 2c-2.52 3.12-3.73 3.95-7.75 4.75L748 676l-2-3 1.86-.37 2.45-.51 2.43-.49C755 671 755 671 758 669" fill="#D8DBD8"/><path d="M916 509h1l.18 3.58.26 4.67.12 2.36.23 4.38c.21 2.01.21 2.01.92 4.08L919 530l-3 3z" fill="#B8BABA"/><path d="M765 389c2.19 3.28 3 6.21 4 10l-3 2c-2.83-4-1.76-7.43-1-12" fill="#DBDEDC"/><path d="m759 51 3 1v9l-4 2c-.14-8.57-.14-8.57 1-12" fill="#1B1F1B"/><path d="M762 389c2.9 4.36 4.2 8.19 3.62 13.44L765 405h-1c-1.39-5.45-2.24-10.37-2-16" fill="#F5F7F6"/><path d="M889 451c3.67 1.48 5.41 3.48 7.75 6.62l1.86 2.48L900 462h-3a274 274 0 0 1-4-5l-3-1v-3l-2-1z" fill="#1B1B1D"/><path d="M706 48v2c-2.19 1.51-2.19 1.51-5 3.12l-2.81 1.64L696 56c0-3 0-3 1.25-4.56 2.93-2.41 4.92-3.44 8.75-3.44" fill="#DFE0E2"/><path d="m618 679 3 1c-1 8.57-1 8.57-2 12h-2z" fill="#F1F3F8"/><path d="M533 674v2c-3.9 1.36-7.71.89-11.75.56l-2.11-.16q-2.58-.18-5.14-.4v-1c6.36-.65 12.6-1.12 19-1" fill="#EFF0F3"/><path d="M466 456v2l-4.31 2.5-2.43 1.41C457 463 457 463 454 463c6.63-7 6.63-7 12-7" fill="#DDDFE2"/><path d="M754 640c4.69 3.52 4.69 3.52 6 5v4h-2c-2.69-2.81-2.69-2.81-5-6z" fill="#ECECEE"/><path d="M492 451h1l1 9-8-2c2-2 2-2 5-3 .69-2.06.69-2.06 1-4" fill="#CACCCD"/><path d="M759 428h1l1 17h-3z" fill="#222523"/><path d="M492 42h1c1 5.96 1.07 10.29-1 16h-1q-.05-3.43-.06-6.88l-.04-3.86C491 44 491 44 492 42" fill="#1C1D1F"/><path d="M539 41c5.63 3.04 5.63 3.04 6.88 6.25L546 49c-7.57-4.14-7.57-4.14-10-7z" fill="#DCDEDA"/><path d="m761 38 3 1-1 17h-1z" fill="#CED1CE"/><path d="M747 26v2l-12 2v-2a27.4 27.4 0 0 1 12-2" fill="#EDEBEF"/><path d="M441 525h1l1 10-2 1c-2.22-5.29-2.22-5.29-1.12-8.88z" fill="#D8DCD9"/><path d="M846 418q2.52.93 5 2 2 .54 4 1l-1 3c-3.91-1.16-6.87-2.36-10-5z" fill="#DADADD"/><path d="M777 342c3.38-.19 3.38-.19 7 0l2 3h-9z" fill="#F3F2F7"/><path d="M736 30c-2.3 1.74-4.6 3.4-7 5-2.19-.38-2.19-.38-4-1 6.85-5.38 6.85-5.38 11-4" fill="#E6E6E9"/><path d="M709 691h1l.38 2.81C711 697 711 697 713 700l-2 4h-3z" fill="#C7C9C8"/><path d="m865 477 .88 1.81A36 36 0 0 0 869 484l-1 2c-2 0-2 0-3.75-1.69-1.25-2.31-1.25-2.31-.44-5.06z" fill="#0C0C0D"/><path d="m709 671 11 2-2 2c-2.73-.03-5.3-.56-8-1z" fill="#DDDDDF"/><path d="m506 246 3.38 2.81 1.89 1.58C513 252 513 252 515 255c-2.34-.17-3.69-.7-5.38-2.33-3.62-4.24-3.62-4.24-3.62-6.67" fill="#E7E8EA"/><path d="m767 612 1 4-5 4-2-2z" fill="#DCDEDD"/><path d="M870 486c3.01 3.01 2.6 5.82 3 10h-2c-2.12-6.62-2.12-6.62-1-10" fill="#0A0A0A"/><path d="M489 42h2l-1 13c-3-4-3-4-2.75-7.62C488 44 488 44 489 42" fill="#F1F2F4"/><path d="M541 692h1v8h-3c-.12-2.88-.12-2.88 0-6z" fill="#F2F2F5"/><path d="M558 664c-2.62 2.15-4.64 3.4-8 4l-1-3c2.96-1.48 5.74-1.06 9-1" fill="#1B1B1E"/><path d="m495 648 2 1a98 98 0 0 1-2 6l-2 1c-.69-1.75-.69-1.75-1-4 1.44-2.25 1.44-2.25 3-4" fill="#1E1F20"/><path d="M490 391h1l1 10h-1l-1 5h-1a80 80 0 0 1 1-15" fill="#484B4D"/><path d="m509 321 2 1-3 9-1-2-2-1z" fill="#DFE1E3"/><path d="M729 296c2.99 1.1 3.85 1.68 5.25 4.62L735 303h-4c-1.46-2.65-2-3.89-2-7" fill="#E2E5E2"/><path d="M531 274h2l-3 9-2-2c1.88-5.88 1.88-5.88 3-7" fill="#EBEEEB"/><path d="M871 597v3c-2.31 1.75-2.31 1.75-5 3l-3-1a40 40 0 0 1 8-5" fill="#DBDBDC"/><path d="M456 574c4.43 5.14 4.43 5.14 5 9-2.5-1.12-2.5-1.12-5-3-.31-3.19-.31-3.19 0-6" fill="#DFE3DF"/><path d="M893 452c3.24 2.39 5.51 4.2 7 8h-3c-4-4.23-4-4.23-4-8" fill="#DDDFDF"/><path d="M542 692h1l1 12h-3l-1-4h2z" fill="#B8B8BB"/><path d="m564 665 1 4c-4.62 2.12-4.62 2.12-8 1z" fill="#EDEDF0"/><path d="m884 587 3 1c-4.39 4-4.39 4-6 5l-3-1c4.39-4 4.39-4 6-5" fill="#DEE3E0"/><path d="M801 377h3l2 7-2 1c-3-5.75-3-5.75-3-8" fill="#D3D3D3"/><path d="M790 346v2l-12-2v-1c8.57-1.43 8.57-1.43 12 1" fill="#BABABF"/><path d="M757 220c2.36 2.36 2.49 3.78 3 7l-4 1z" fill="#DCDFE1"/><path d="M500 641c-1.37 3.16-1.99 3.99-5 6v-4c3-2 3-2 5-2" fill="#DBDBDD"/><path d="M760 619h3c-1 2.99-1.75 3.95-4 6l-3-1c1.81-2.5 1.81-2.5 4-5" fill="#F0F2F2"/><path d="m909 556 2 2q-1.95 3.03-4 6h-1q.39-3.51 1-7z" fill="#EBE9EC"/><path d="M868 532h4l-2 7c-2-2-2-2-2.12-4.62z" fill="#E2E3E1"/><path d="M910 480h2l2 7-2 2c-1.5-3.37-2-5.2-2-9" fill="#E5E6E7"/><path d="m452 466 2 3-2 4-4-1z" fill="#242725"/><path d="m460 460 1 2c-2 3-2 3-5.12 3.69L453 466c4.75-4.88 4.75-4.88 7-6" fill="#252729"/><path d="M839 414c3.65 1.25 4.78 1.67 7 5-4.75-.88-4.75-.88-7-2z" fill="#E7E7EB"/><path d="M762 384h3l-1 8c-2.15-3.23-2.2-4.28-2-8" fill="#DDE0DD"/><path d="m800 368 2 1c.59 2.65.74 5.29 1 8h-2z" fill="#EDECEE"/><path d="M749 339h3c.62 1.81.62 1.81 1 4l-2 3c-1.46-2.65-2-3.89-2-7" fill="#EFF2EF"/><path d="M753 31c3.57 1.88 5.55 3.17 7 7-2.8-.39-3.82-.8-5.75-2.94C753 33 753 33 753 31" fill="#1F221F"/><path d="m687 660 5 2-5 5z" fill="#D0D1CE"/><path d="M800 564h2l-2 8h-3c1.88-5.75 1.88-5.75 3-8" fill="#E6E6E6"/><path d="M441 482c2.79 4.18 1.8 6.15 1 11-2.79-4.18-1.8-6.15-1-11" fill="#DFE2E0"/><path d="M490 440c1.76 3.09 2 4.23 2 8l-3-1z" fill="#D3D6D6"/></svg>