<svg style="background:transparent" version="1.1" xmlns="http://www.w3.org/2000/svg" viewBox="0 0 1248 704"><path d="M962.17 104.91c11.92.27 23.7.7 35.46 2.9l2.52.46c5.46 1.13 9.98 3.06 14.85 5.73l2.59 1.23c9.07 4.37 17.3 9.8 25.29 15.9l1.62 1.23c5.77 4.48 10.66 9.8 15.63 15.14l1.59 1.68c5.05 5.43 7.87 10.86 10.28 17.82l1.32 3.31c1.1 6 .3 11.55-2.51 17-3.31 4.77-7.3 8.67-12.81 10.7-9.4 1.57-16.33-1.02-23.95-6.39-1.67-1.3-1.67-1.3-4.05-3.62v-2l-1.7-.65c-3.12-1.84-4.82-4.25-7.05-7.1-6.77-8.43-14.57-13.58-24.25-18.25l-1.81-1c-6.67-3.05-12.82-3.34-20.06-3.32q-1.41-.01-2.86-.05c-14.82 0-26.55 7.56-37.27 17.37-2.31 3.06-2.31 3.06-4 6a366 366 0 0 1-3.85 5.2c-1.38 2.16-2.21 4.4-3.15 6.8l-2.37 4.5a61 61 0 0 0-4.44 11.56 105 105 0 0 1-6.2 15.81l-1 2.13c-2.86 5.93-5.86 11.77-9.92 17a188 188 0 0 0-5.7 7.75A48 48 0 0 1 888 257l-2.5 2.5-6.5 6.5-2.12 2.31a71 71 0 0 1-18.88 12.7q-2.7 1.32-5.37 2.67-2.32 1.15-4.63 2.32c2.19 4.45 4.45 8.8 6.93 13.08 3.45 6.14 6.33 12.06 8.07 18.92a354 354 0 0 0 4 11.76 88 88 0 0 1 2.57 11.5l.39 2.26c1.15 6.86 2.1 13.64 2.04 20.6 0 3.88 0 3.88.5 7.55.58 4.5.65 8.92.63 13.45l-.01 2.5a224 224 0 0 1-.9 18.3 94 94 0 0 0-.22 6.72c0 3.15-.34 6.12-.78 9.23a71 71 0 0 0-.15 9.34c-.07 1.8-.07 1.8-1.07 2.8q-.07 4.9.04 9.82l.06 4.03c-.1 2.14-.1 2.14-.6 4.87-.6 3.87-.64 7.65-.63 11.55v19.57l-.01 2.24c.02 3.78.32 7.23 1.14 10.91v7c.53 4.87 1.65 9.3 3 14q.5 2.46.94 4.93c.6 3.15 1.34 5.98 2.56 8.94 1.73 4.28 2.29 8.61 2.96 13.16.5 2.74 1.2 5.17 2.17 7.78 1.39 3.88 1.44 7.04 1.37 11.2.43 2.75.97 5.5 1.5 8.24a166 166 0 0 1 2.44 34.05c.06 2.7.06 2.7.56 6.38.52 4.05.62 8.01.6 12.1v2.11l-.03 6.61-.02 4.51-.05 11a63 63 0 0 0 10.24 3.32l2.99.73q3.06.74 6.14 1.46c7.58 1.88 14.37 4.46 19.63 10.48.69 2.75.69 2.75 0 6-7.54 10.55-22.96 12.2-34.81 14.18a387 387 0 0 1-40.31 4.44l-2.28.12c-17.22.8-34.48.03-51.7-.49l-4.32-.13q-32.24-.96-64.45-2.62l-7.51-.39-11.06-.57L700 685l-3.27-.17C635.8 681.74 574.86 681.9 514 686l-3.3.22c-24.6 1.65-49.12 3.93-73.63 6.53l-3.52.36c-13.58 1.44-27.1 3.07-40.61 5.05-33.51 4.8-66.48 6.63-100.35 6.64l-9.78.03q-7.74.02-15.48-.04-2.87-.03-5.74-.02-3.98-.01-7.93-.08l-2.31.02c-6.77-.18-11.4-3.08-16.37-7.52-4.81-5.8-6.4-10.54-5.98-18.19q.45-2.01 1-4l-3.3 1.5c-8.56 3.77-16.16 6.77-25.7 6.5l-2.1-.05c-6.45-.49-14.62-2.2-19.64-6.4C178 675 178 675 176 672l-2.18-2.07c-2.08-2.2-2.88-4.06-3.82-6.93l-.6-1.83c-.5-2.72-.15-4.82.35-7.55l.49-2.77c2.37-8.83 8.56-15.05 15.8-20.35 5.36-3.02 10.94-3.2 16.96-3.5 5.73-.34 9.3-1.54 14-5h2l.75-1.88c1.25-2.12 1.25-2.12 2.99-2.96 12.55-6.48 25.46-22.24 33.77-33.43L258 582h2l.19-1.75c1.13-3.14 3.22-4.2 5.8-6.25q2.08-2.97 4-6a94 94 0 0 1 3-3l2.08-2.69q.94-1.15 1.93-2.3h2l.84-1.78a39 39 0 0 1 3.85-5.92l1.6-2.1 1.7-2.2 1.79-2.32c2.6-3.37 5.2-6.7 7.97-9.94A55 55 0 0 0 302 528l1-1-2.01-.8-8-3.2-2.5-.9c-2.92-1.29-5.24-2.94-7.8-4.85l-2.9-2.16L277 513l-2.37-1.72-2.12-1.53-1.84-1.33c-3.22-2.76-5.38-6.43-7.72-9.92l-1.53-2.29c-2.63-4.15-4.26-8.4-5.91-13.03l-1.28-3.58A219 219 0 0 1 251 469l-1-3.19c-1.37-5.22-2.16-10.49-3-15.8q-.63-4.14-1.47-8.23c-1.33-6.22-2-12.33-2.46-18.66-.57-6.95-1.4-13.45-3.34-20.17-1.11-4.5-1.58-9.09-2.08-13.7-.56-5.07-.56-5.07-1.65-7.25q-.37-4-.6-8l-.15-2.44-.3-5.08q-.2-3.86-.46-7.73-.16-2.48-.28-4.95l-.15-2.3c-.4-7.79.95-14.27 5.94-20.5 3.22-3.44 5.55-5.33 10.25-5.57 5.38.31 9.9 2.35 14.75 4.57l3.69 1.5a94 94 0 0 1 8.37 4.4 256 256 0 0 0 9.94 5.28l2.04 1.08c4.93 2.51 9.63 4.34 15.27 3.32l2.13-.77a183 183 0 0 1 13.75-3.94l2.02-.52c4.25-1.06 8.45-1.79 12.79-2.35l4.78-.72 2.56-.39 5.19-.79 2.56-.39 2.5-.38q2.33-.33 4.67-.52c4.64-.38 6.98-1.17 10.12-4.63l1.96-2.08A31 31 0 0 0 373 322q2.48-2.54 5-5c3.08-3.4 6.1-6.83 8.89-10.49 3.95-4.7 9.35-9.5 15.4-11.13 4.49-.16 8.02 1.18 11.7 3.62 5.49 5.63 7.95 12.57 10 20l3 6q.55 1.98 1 4 .5 1.1 1 2.25c1.07 2.9 1.4 5.65 1.74 8.71.74 5.5 2.84 10.73 4.62 15.96.65 2.08.65 2.08 1.22 4.95C437 363 437 363 439 366a434 434 0 0 0 19-9l4.25-2.13q.94-.45 1.89-.95 1.95-.97 3.94-1.93c1.92-.99 1.92-.99 4.42-2.74 3.02-2.07 6.22-3.64 9.5-5.25a97 97 0 0 0 12-7 334 334 0 0 1 20.04-10.47l3.03-1.47 3.03-1.47A52 52 0 0 0 528 318q2-.52 4-1 3.03-1.95 6-4 2-1.04 4-2c4.19-2.06 8.32-4.16 12.38-6.44 4.79-2.69 9.69-5.13 14.62-7.56l4.63-2.32C595 284 595 284 597.28 282.88q2.5-1.3 4.9-2.76a76 76 0 0 1 8.07-4c3.48-1.5 6.76-3.2 10.07-5.06 7.57-4.2 15.47-7.34 23.68-10.06 3.1-1.3 6.19-2.62 9.24-4.05A44 44 0 0 1 666 253q3.52-1.46 7-3a90 90 0 0 1 12.78-3.5q2.88-.68 5.72-1.5c7.49-2.14 15.16-3.59 22.82-5l2.67-.5a172.5 172.5 0 0 1 72 3.5l2.8.74 2.75.74 2.64.7q2.41.66 4.82 1.38c8.13 2.34 13.76.14 21-3.56q3.05-1.93 6-4l5-3a46 46 0 0 0 9.25-7.25L846 226h2l.7-1.65c1.67-3.02 3.79-5.38 6.05-7.98 8.67-10.18 13.89-21.26 18.32-33.8a129 129 0 0 1 6.7-15.07c1.2-2.47 2.23-4.95 3.23-7.5 1.68-3.66 3.19-6.2 6-9l1.69-3.25c2.08-3.8 4.85-6.2 8.22-8.88 2.17-1.95 3.92-4.1 5.76-6.36 10.07-11.47 26.12-18.93 40.33-23.5l3.19-1.2a42 42 0 0 1 7.13-1.38c3.27-.39 3.97-1.4 6.85-1.52" fill="#111311"/><path d="M962.17 104.91c11.92.27 23.7.7 35.46 2.9l2.52.46c5.46 1.13 9.98 3.06 14.85 5.73l2.59 1.23c9.07 4.37 17.3 9.8 25.29 15.9l1.62 1.23c5.77 4.48 10.66 9.8 15.63 15.14l1.59 1.68c5.05 5.43 7.87 10.86 10.28 17.82l1.32 3.31c1.1 6 .3 11.55-2.51 17-3.31 4.77-7.3 8.67-12.81 10.7-9.4 1.57-16.33-1.02-23.95-6.39-1.67-1.3-1.67-1.3-4.05-3.62v-2l-1.7-.65c-3.12-1.84-4.82-4.25-7.05-7.1-6.77-8.43-14.57-13.58-24.25-18.25l-1.81-1c-6.67-3.05-12.82-3.34-20.06-3.32q-1.41-.01-2.86-.05c-14.82 0-26.55 7.56-37.27 17.37-2.31 3.06-2.31 3.06-4 6a366 366 0 0 1-3.85 5.2c-1.38 2.16-2.21 4.4-3.15 6.8l-2.37 4.5a61 61 0 0 0-4.44 11.56 105 105 0 0 1-6.2 15.81l-1 2.13c-2.86 5.93-5.86 11.77-9.92 17a188 188 0 0 0-5.7 7.75A48 48 0 0 1 888 257l-2.5 2.5-6.5 6.5-2.12 2.31a71 71 0 0 1-18.88 12.7q-2.7 1.32-5.37 2.67-2.32 1.15-4.63 2.32c2.19 4.45 4.45 8.8 6.93 13.08 3.45 6.14 6.33 12.06 8.07 18.92a354 354 0 0 0 4 11.76 88 88 0 0 1 2.57 11.5l.39 2.26c1.15 6.86 2.1 13.64 2.04 20.6 0 3.88 0 3.88.5 7.55.58 4.5.65 8.92.63 13.45l-.01 2.5a224 224 0 0 1-.9 18.3 94 94 0 0 0-.22 6.72c0 3.15-.34 6.12-.78 9.23a71 71 0 0 0-.15 9.34c-.07 1.8-.07 1.8-1.07 2.8q-.07 4.9.04 9.82l.06 4.03c-.1 2.14-.1 2.14-.6 4.87-.6 3.87-.64 7.65-.63 11.55v19.57l-.01 2.24c.02 3.78.32 7.23 1.14 10.91v7c.53 4.87 1.65 9.3 3 14q.5 2.46.94 4.93c.6 3.15 1.34 5.98 2.56 8.94 1.73 4.28 2.29 8.61 2.96 13.16.5 2.74 1.2 5.17 2.17 7.78 1.39 3.88 1.44 7.04 1.37 11.2.43 2.75.97 5.5 1.5 8.24a166 166 0 0 1 2.44 34.05c.06 2.7.06 2.7.56 6.38.52 4.05.62 8.01.6 12.1v2.11l-.03 6.61-.02 4.51-.05 11a63 63 0 0 0 10.24 3.32l2.99.73q3.06.74 6.14 1.46c7.58 1.88 14.37 4.46 19.63 10.48.69 2.75.69 2.75 0 6-7.54 10.55-22.96 12.2-34.81 14.18a387 387 0 0 1-40.31 4.44l-2.28.12c-17.22.8-34.48.03-51.7-.49l-4.32-.13q-32.24-.96-64.45-2.62l-7.51-.39-11.06-.57L700 685l-3.27-.17C635.8 681.74 574.86 681.9 514 686l-3.3.22c-24.6 1.65-49.12 3.92-73.63 6.53l-3.5.36a1529 1529 0 0 0-39.9 4.77l-19.1 2.5-2.12.26c-29.56 3.77-58.65 4.3-88.45 3.36a56 56 0 0 1 7.53-4.16c11.96-5.68 23.1-12.78 34.36-19.7a1364 1364 0 0 1 15.55-9.39 1548 1548 0 0 0 22.7-13.9q7.68-4.77 15.43-9.37A790 790 0 0 0 412 627l1.87-1.24 12.82-8.5 4.3-2.85c7.3-4.85 14.57-9.75 21.7-14.84l1.72-1.22c2.48-1.78 4.87-3.59 7.19-5.57 2.52-1.87 4.02-2.43 7.09-2.92l2.76-.48q1.47-.26 2.99-.5c52.04-9.89 102.33-36.64 148.74-61.33q5.39-2.85 10.8-5.64l6.4-3.29 3.18-1.64a430 430 0 0 0 23.98-13.47l2.46-1.44 2.13-1.29C674 500 674 500 677 501c1.03 2.01 1.03 2.01 1.95 4.67l1.06 2.98 1.12 3.22c11.45 31.58 28.27 56.57 53.97 78.46 8.39 7.35 15.93 14.68 18.9 25.67.14 2.66.19 5.21.13 7.87l-.03 2.1q-.03 2.5-.1 5.03l-2.31.48c-8.54 1.93-16.63 3.86-21.7 11.52-1.61 3-2.73 5.56-3 9l-.3 3.87c.12 4.42 1.17 7.93 4.3 11.13 13.22 8.5 31.59 8.64 46.72 6.46A47 47 0 0 0 793 667l3-1c1.07-1.84 1.07-1.84 2-4l.97-1.76c12.75-23.7 10.85-55.62 5.49-81.03q-.83-4.09-1.46-8.2c16.34 10.14 27.78 22.35 32.88 41.17 1.7 8.16 1.59 16.53 1.12 24.82-1.7 1.7-4.16 1.41-6.5 1.68-7.14 1.17-12.57 3.61-17.13 9.38-4.22 6.54-5.02 12.2-4.37 19.94 1.44 3.5 1.44 3.5 3 6l1 3c2.13 1 2.13 1 5 2l3.5 1.56c12.63 5.18 31.46 4.41 44.1-.43 7.1-3.36 11.65-7.5 15.09-14.63 3.45-10.25 3.67-21.49 3.63-32.19l-.02-3.94c-.3-35.44-4.27-69.62-13.12-103.92l-.6-2.27-1.08-4.18q-.78-3-1.5-6l-.56-2.33c-1.42-6.39-1.73-12.49-1.7-19.02l-.01-3.25q0-5.24.02-10.47v-3.65c.03-15.33.36-30.6 1.25-45.9a842 842 0 0 0 1.36-44.1q0-3.33.06-6.68c.37-31.46-6.01-60.6-22.58-87.56-.84-2.04-.84-2.04-.71-4.15 1.14-2.48 2.28-3.07 4.67-4.34l2.39-1.3c.42-.24.42-.24 2.56-1.38 31.5-17.55 48.95-43.97 60.86-77.33 7.29-20.34 19.26-36.36 38.87-45.95 10.86-4.92 25.66-5.87 37-1.68q1.25.53 2.52 1.1l3.3 1.36c9 4.1 15.78 9.6 22.7 16.63l1.95 1.98 2.08 2.11 2.12 2.14 4.07 4.2c6.36 6.51 12.29 11.11 21.53 11.88 4.74-.07 8.37-1.65 12.25-4.3 5.43-5.72 5.59-11.44 5.4-19.02-.96-14.34-13.82-26.1-23.96-35.1-5.17-4.44-10.71-8.2-16.44-11.89l-2.47-1.68c-21.24-13.74-49.28-17.74-73.87-13.24-26.08 5.65-48.06 21.78-62.51 44.06-6.82 10.98-11.42 23.1-16.12 35.1-10.12 25.58-26.78 44.6-51.34 57.26l-1.96 1.02c-9.31 4.6-16.36 3.24-26.1.66l-6.46-1.64-3.17-.8c-13.24-3.27-26.15-3.98-39.75-3.99h-2.35c-12.83.01-25.3.7-37.9 3.25l-2.41.48c-41.27 8.7-80.28 27.42-117.27 47.18a574 574 0 0 1-14.4 7.38 874 874 0 0 0-23.54 12.21l-4.22 2.24a2891 2891 0 0 0-31.47 17.04q-8.85 4.82-17.71 9.6-7.43 4.01-14.82 8.07C441.32 370 441.32 370 435 370a494 494 0 0 1-5.61-20.35c-10.47-41.49-10.47-41.49-19.32-49.22-3.58-1.68-5.18-2.2-9.07-1.43-9.71 5.38-17.41 15-24.13 23.61q-2.67 3.41-5.5 6.7l-1.53 1.8-1.84 1.9-2.5 2.62c-4.35 3.55-9.52 3.44-14.93 3.87a212 212 0 0 0-28.7 4.61 226 226 0 0 0-13.53 3.54c-9.05 2.44-14.64 1.28-22.84-3.15l-5.28-2.75-2.64-1.4A545 545 0 0 0 266 334.5q-1.9-.96-3.81-1.9l-3.2-1.6-2.18-1.2c-3.21-1.43-6.42-1.45-9.81-.8a16.8 16.8 0 0 0-8 9c-.44 4.92-.33 9.87-.31 14.81v2.17c.07 17.67 2.58 34.57 5.9 51.9a172 172 0 0 1 2.35 18.37c2.39 28.8 7.5 65.22 30.63 84.93 8.74 6.72 18.58 11.7 29.43 13.82-.91 4.52-3.43 7.6-6.18 11.18l-1.61 2.12A692 692 0 0 1 280 561l-1.48 1.76a1238 1238 0 0 1-11.1 13.1 305 305 0 0 1-19.23 20.95 93 93 0 0 0-5.5 6.06c-8.2 9.53-20.66 22.81-32.7 27.13q-4.06.25-8.11.31c-8.14.33-14.77 1.5-20.71 7.55-5.5 6.88-7.8 13.4-7.5 22.2.62 5.45 2.18 9.07 6.36 12.7 9.13 6.47 19.06 7.33 29.97 6.24 7.87-1.7 14.94-5.24 22-9l4-2-.65 1.58c-2.75 7.26-3.71 14.32-1.22 21.8 4.2 5.9 9.44 8.62 15.87 11.62v1c-7.24-.58-11.42-3.1-16.25-8.38-4.25-5.23-5.12-9.93-4.75-16.62q.45-2.01 1-4l-3.3 1.5c-8.56 3.77-16.16 6.77-25.7 6.5l-2.1-.05c-6.45-.49-14.62-2.2-19.64-6.4C178 675 178 675 176 672l-2.18-2.07c-2.08-2.2-2.88-4.06-3.82-6.93l-.6-1.83c-.5-2.72-.15-4.82.35-7.55l.49-2.77c2.37-8.83 8.56-15.05 15.8-20.35 5.36-3.02 10.94-3.2 16.96-3.5 5.73-.34 9.3-1.54 14-5h2l.75-1.88c1.25-2.12 1.25-2.12 2.99-2.96 12.55-6.48 25.46-22.24 33.77-33.43L258 582h2l.19-1.75c1.13-3.14 3.22-4.2 5.8-6.25q2.08-2.97 4-6a94 94 0 0 1 3-3l2.08-2.69q.94-1.15 1.93-2.3h2l.84-1.78a39 39 0 0 1 3.85-5.92l1.6-2.1 1.7-2.2 1.79-2.32c2.6-3.37 5.2-6.7 7.97-9.94A55 55 0 0 0 302 528l1-1-2.01-.8-8-3.2-2.5-.9c-2.92-1.29-5.24-2.94-7.8-4.85l-2.9-2.16L277 513l-2.37-1.72-2.12-1.53-1.84-1.33c-3.22-2.76-5.38-6.43-7.72-9.92l-1.53-2.29c-2.63-4.15-4.26-8.4-5.91-13.03l-1.28-3.58A219 219 0 0 1 251 469l-1-3.19c-1.37-5.22-2.16-10.49-3-15.8q-.63-4.14-1.47-8.23c-1.33-6.22-2-12.33-2.46-18.66-.57-6.95-1.4-13.45-3.34-20.17-1.11-4.5-1.58-9.09-2.08-13.7-.56-5.07-.56-5.07-1.65-7.25q-.37-4-.6-8l-.15-2.44-.3-5.08q-.2-3.86-.46-7.73-.16-2.48-.28-4.95l-.15-2.3c-.4-7.79.95-14.27 5.94-20.5 3.22-3.44 5.55-5.33 10.25-5.57 5.38.31 9.9 2.35 14.75 4.57l3.69 1.5a94 94 0 0 1 8.37 4.4 256 256 0 0 0 9.94 5.28l2.04 1.08c4.93 2.51 9.63 4.34 15.27 3.32l2.13-.77a183 183 0 0 1 13.75-3.94l2.02-.52c4.25-1.06 8.45-1.79 12.79-2.35l4.78-.72 2.56-.39 5.19-.79 2.56-.39 2.5-.38q2.33-.33 4.67-.52c4.64-.38 6.98-1.17 10.12-4.63l1.96-2.08A31 31 0 0 0 373 322q2.48-2.54 5-5c3.08-3.4 6.1-6.83 8.89-10.49 3.95-4.7 9.35-9.5 15.4-11.13 4.49-.16 8.02 1.18 11.7 3.62 5.49 5.63 7.95 12.57 10 20l3 6q.55 1.98 1 4 .5 1.1 1 2.25c1.07 2.9 1.4 5.65 1.74 8.71.74 5.5 2.84 10.73 4.62 15.96.65 2.08.65 2.08 1.22 4.95C437 363 437 363 439 366a434 434 0 0 0 19-9l4.25-2.13q.94-.45 1.89-.95 1.95-.97 3.94-1.93c1.92-.99 1.92-.99 4.42-2.74 3.02-2.07 6.22-3.64 9.5-5.25a97 97 0 0 0 12-7 334 334 0 0 1 20.04-10.47l3.03-1.47 3.03-1.47A52 52 0 0 0 528 318q2-.52 4-1 3.03-1.95 6-4 2-1.04 4-2c4.19-2.06 8.32-4.16 12.38-6.44 4.79-2.69 9.69-5.13 14.62-7.56l4.63-2.32C595 284 595 284 597.28 282.88q2.5-1.3 4.9-2.76a76 76 0 0 1 8.07-4c3.48-1.5 6.76-3.2 10.07-5.06 7.57-4.2 15.47-7.34 23.68-10.06 3.1-1.3 6.19-2.62 9.24-4.05A44 44 0 0 1 666 253q3.52-1.46 7-3a90 90 0 0 1 12.78-3.5q2.88-.68 5.72-1.5c7.49-2.14 15.16-3.59 22.82-5l2.67-.5a172.5 172.5 0 0 1 72 3.5l2.8.74 2.75.74 2.64.7q2.41.66 4.82 1.38c8.13 2.34 13.76.14 21-3.56q3.05-1.93 6-4l5-3a46 46 0 0 0 9.25-7.25L846 226h2l.7-1.65c1.67-3.02 3.79-5.38 6.05-7.98 8.67-10.18 13.89-21.26 18.32-33.8a129 129 0 0 1 6.7-15.07c1.2-2.47 2.23-4.95 3.23-7.5 1.68-3.66 3.19-6.2 6-9l1.69-3.25c2.08-3.8 4.85-6.2 8.22-8.88 2.17-1.95 3.92-4.1 5.76-6.36 10.07-11.47 26.12-18.93 40.33-23.5l3.19-1.2a42 42 0 0 1 7.13-1.38c3.27-.39 3.97-1.4 6.85-1.52" fill="#B9BBB9"/><path d="M677 501c1.02 2.02 1.02 2.02 1.95 4.68l1.06 2.98 1.11 3.22c11.46 31.58 28.27 56.56 53.98 78.46 8.38 7.34 15.92 14.67 18.9 25.66.13 2.67.19 5.22.12 7.88l-.02 2.08-.1 5.04-2.31.48c-6.25 1.41-11.42 3.1-16.85 6.53-3.31 1.78-7.24.85-10.89.59l-3.82-.26-7.71-.54c-26.67-1.8-53.35-2-80.07-1.99h-8.27c-23.44 0-46.85.22-70.27 1.13l-3.42.13-9.43.39-2.7.12q-7.05.36-14.05 1.19c-3.73.39-7.46.5-11.19.65-12.13.55-24.19 1.67-36.27 2.83l-3.48.33c-28.13 2.68-56.17 5.91-84.05 10.57A408 408 0 0 1 368 656c3.67-4.24 8.22-6.66 13-9.44A702 702 0 0 0 412 627l1.87-1.24q6.42-4.24 12.82-8.5l4.29-2.85a778 778 0 0 0 21.72-14.84l1.7-1.21c2.48-1.79 4.88-3.59 7.2-5.58 2.52-1.87 4.02-2.43 7.08-2.91l2.77-.49 2.99-.5c52.03-9.89 102.33-36.63 148.74-61.33q5.38-2.86 10.8-5.63l6.4-3.3 3.17-1.63a437 437 0 0 0 23.99-13.47l2.45-1.45 2.14-1.29C674 500 674 500 677 501" fill="#ECEEEC"/><path d="M962.17 104.91c11.92.27 23.7.7 35.46 2.9l2.52.46c5.46 1.13 9.98 3.06 14.85 5.73l2.59 1.23c9.07 4.37 17.3 9.8 25.29 15.9l1.62 1.23c5.77 4.48 10.66 9.8 15.63 15.14l1.59 1.68c5.05 5.43 7.87 10.86 10.28 17.82l1.32 3.31c1.1 6 .3 11.55-2.51 17-3.31 4.77-7.3 8.67-12.81 10.7-9.4 1.57-16.33-1.02-23.95-6.39-1.67-1.3-1.67-1.3-4.05-3.62v-2l-1.7-.65c-3.12-1.84-4.82-4.25-7.05-7.1-6.77-8.43-14.57-13.58-24.25-18.25l-1.81-1c-6.67-3.05-12.82-3.34-20.06-3.32q-1.41-.01-2.86-.05c-14.82 0-26.55 7.56-37.27 17.37-2.31 3.06-2.31 3.06-4 6a366 366 0 0 1-3.85 5.2c-1.38 2.16-2.21 4.4-3.15 6.8l-2.37 4.5a61 61 0 0 0-4.44 11.56 105 105 0 0 1-6.2 15.81l-1 2.13c-2.86 5.93-5.86 11.77-9.92 17a188 188 0 0 0-5.7 7.75A48 48 0 0 1 888 257l-2.5 2.5-6.5 6.5-2.12 2.31a71 71 0 0 1-18.88 12.7q-2.7 1.32-5.37 2.67-2.32 1.15-4.63 2.32c2.19 4.45 4.45 8.8 6.93 13.08 3.45 6.14 6.33 12.06 8.07 18.92a354 354 0 0 0 4 11.76 88 88 0 0 1 2.57 11.5l.39 2.26c1.15 6.86 2.1 13.64 2.04 20.6 0 3.88 0 3.88.5 7.55.58 4.5.65 8.92.63 13.45l-.01 2.5a224 224 0 0 1-.9 18.3 94 94 0 0 0-.22 6.72c0 3.15-.34 6.12-.78 9.23a71 71 0 0 0-.15 9.34c-.07 1.8-.07 1.8-1.07 2.8q-.07 4.9.04 9.82l.06 4.03c-.1 2.14-.1 2.14-.6 4.87-.6 3.87-.64 7.65-.63 11.55v19.57l-.01 2.24c.02 3.78.32 7.23 1.14 10.91v7c.53 4.87 1.65 9.3 3 14q.5 2.46.94 4.93c.6 3.15 1.34 5.98 2.56 8.94 1.73 4.28 2.29 8.61 2.96 13.16.5 2.74 1.2 5.17 2.17 7.78 1.39 3.88 1.44 7.04 1.37 11.2.43 2.75.97 5.5 1.5 8.24a166 166 0 0 1 2.44 34.05c.06 2.7.06 2.7.56 6.38.52 4.05.62 8.01.6 12.1v2.11l-.03 6.61-.02 4.51-.05 11a63 63 0 0 0 10.24 3.32l2.99.73q3.06.74 6.14 1.46c7.58 1.88 14.37 4.46 19.63 10.48.69 2.75.69 2.75 0 6-7.54 10.55-22.96 12.2-34.81 14.18a387 387 0 0 1-40.31 4.44l-2.28.12c-17.22.8-34.48.03-51.7-.49l-4.32-.13q-32.24-.96-64.45-2.62l-7.51-.39-11.06-.57L700 685l-3.27-.17C635.8 681.74 574.86 681.9 514 686l-3.3.22c-39.55 2.66-78.98 6.88-118.34 11.66a13270 13270 0 0 0-35.34 4.33l-5.65.72c-8.15 1-16.15 1.24-24.37 1.07v-1l2.02-.25 9.23-1.13 3.17-.38c5.1-.63 10.2-1.33 15.27-2.23a327 327 0 0 1 21.6-2.7l12.34-1.3 2.46-.27q10.05-1.07 20.1-2.3l2.99-.37 11.85-1.45a1205 1205 0 0 1 47.82-4.8l5.76-.48c3.17-.32 6.26-.82 9.39-1.34q3-.28 6-.47l3.6-.23q8.79-.54 17.58-1.03 4.72-.26 9.44-.56c26.14-1.62 52.26-1.9 78.44-1.9h7.76c35.08 0 70.02 1.16 105.04 3.05 34.15 1.84 68.2 3.34 102.4 3.38q5 0 10 .04c19.14.12 37.8-.12 56.74-3.28l2.44-.4c10.78-1.74 22.1-3.88 31.56-9.6 2.16-3.24 2.74-4.25 2-8-4.2-3.27-8.25-4.98-13.31-6.5l-3.74-1.16c-7.24-2.06-14.61-3.65-21.95-5.34l-.04-2.63c-.78-42.16-3.21-82.98-13.78-123.92l-.6-2.27-1.08-4.18q-.78-3-1.5-6l-.56-2.33c-1.42-6.39-1.73-12.49-1.7-19.02l-.01-3.25q0-5.24.02-10.47v-3.65c.03-15.33.36-30.6 1.25-45.9a842 842 0 0 0 1.36-44.1q0-3.33.06-6.68c.37-31.46-6.01-60.6-22.58-87.56-.84-2.04-.84-2.04-.71-4.15 1.14-2.48 2.28-3.07 4.67-4.34l2.39-1.3c.42-.24.42-.24 2.56-1.38 31.5-17.55 48.95-43.97 60.86-77.33 7.29-20.34 19.26-36.36 38.87-45.95 10.86-4.92 25.66-5.87 37-1.68q1.25.53 2.52 1.1l3.3 1.36c9 4.1 15.78 9.6 22.7 16.63l1.95 1.98 2.08 2.11 2.12 2.14 4.07 4.2c6.36 6.51 12.29 11.11 21.53 11.88 4.74-.07 8.37-1.65 12.25-4.3 5.43-5.72 5.59-11.44 5.4-19.02-.96-14.34-13.82-26.1-23.96-35.1-5.17-4.44-10.71-8.2-16.44-11.89l-2.47-1.68c-21.24-13.74-49.28-17.74-73.87-13.24-26.08 5.65-48.06 21.78-62.51 44.06-6.82 10.98-11.42 23.1-16.12 35.1-10.12 25.58-26.78 44.6-51.34 57.26l-1.96 1.02c-9.31 4.6-16.36 3.24-26.1.66l-6.46-1.64-3.17-.8c-13.24-3.27-26.15-3.98-39.75-3.99h-2.35c-12.83.01-25.3.7-37.9 3.25l-2.41.48c-41.27 8.7-80.28 27.42-117.27 47.18a574 574 0 0 1-14.4 7.38 874 874 0 0 0-23.54 12.21l-4.22 2.24a2891 2891 0 0 0-31.47 17.04q-8.85 4.82-17.71 9.6-7.43 4.01-14.82 8.07C441.32 370 441.32 370 435 370a494 494 0 0 1-5.61-20.35c-10.47-41.49-10.47-41.49-19.32-49.22-3.58-1.68-5.18-2.2-9.07-1.43-9.71 5.38-17.41 15-24.13 23.61q-2.67 3.41-5.5 6.7l-1.53 1.8-1.84 1.9-2.5 2.62c-4.35 3.55-9.52 3.44-14.93 3.87a212 212 0 0 0-28.7 4.61 226 226 0 0 0-13.53 3.54c-9.05 2.44-14.64 1.28-22.84-3.15l-5.28-2.75-2.64-1.4A545 545 0 0 0 266 334.5q-1.9-.96-3.81-1.9l-3.2-1.6-2.18-1.2c-3.21-1.43-6.42-1.45-9.81-.8a16.8 16.8 0 0 0-8 9c-.44 4.92-.33 9.87-.31 14.81v2.17c.07 17.67 2.58 34.57 5.9 51.9a172 172 0 0 1 2.35 18.37c2.39 28.8 7.5 65.22 30.63 84.93 8.74 6.72 18.58 11.7 29.43 13.82-.91 4.52-3.43 7.6-6.18 11.18l-1.61 2.12A692 692 0 0 1 280 561l-1.48 1.76a1238 1238 0 0 1-11.1 13.1 305 305 0 0 1-19.23 20.95 93 93 0 0 0-5.5 6.06c-8.2 9.53-20.66 22.81-32.7 27.13q-4.06.25-8.11.31c-8.14.33-14.77 1.5-20.71 7.55-5.5 6.88-7.8 13.4-7.5 22.2.62 5.45 2.18 9.07 6.36 12.7 9.13 6.47 19.06 7.33 29.97 6.24 7.87-1.7 14.94-5.24 22-9l4-2-.65 1.58c-2.75 7.26-3.71 14.32-1.22 21.8 4.2 5.9 9.44 8.62 15.87 11.62v1c-7.24-.58-11.42-3.1-16.25-8.38-4.25-5.23-5.12-9.93-4.75-16.62q.45-2.01 1-4l-3.3 1.5c-8.56 3.77-16.16 6.77-25.7 6.5l-2.1-.05c-6.45-.49-14.62-2.2-19.64-6.4C178 675 178 675 176 672l-2.18-2.07c-2.08-2.2-2.88-4.06-3.82-6.93l-.6-1.83c-.5-2.72-.15-4.82.35-7.55l.49-2.77c2.37-8.83 8.56-15.05 15.8-20.35 5.36-3.02 10.94-3.2 16.96-3.5 5.73-.34 9.3-1.54 14-5h2l.75-1.88c1.25-2.12 1.25-2.12 2.99-2.96 12.55-6.48 25.46-22.24 33.77-33.43L258 582h2l.19-1.75c1.13-3.14 3.22-4.2 5.8-6.25q2.08-2.97 4-6a94 94 0 0 1 3-3l2.08-2.69q.94-1.15 1.93-2.3h2l.84-1.78a39 39 0 0 1 3.85-5.92l1.6-2.1 1.7-2.2 1.79-2.32c2.6-3.37 5.2-6.7 7.97-9.94A55 55 0 0 0 302 528l1-1-2.01-.8-8-3.2-2.5-.9c-2.92-1.29-5.24-2.94-7.8-4.85l-2.9-2.16L277 513l-2.37-1.72-2.12-1.53-1.84-1.33c-3.22-2.76-5.38-6.43-7.72-9.92l-1.53-2.29c-2.63-4.15-4.26-8.4-5.91-13.03l-1.28-3.58A219 219 0 0 1 251 469l-1-3.19c-1.37-5.22-2.16-10.49-3-15.8q-.63-4.14-1.47-8.23c-1.33-6.22-2-12.33-2.46-18.66-.57-6.95-1.4-13.45-3.34-20.17-1.11-4.5-1.58-9.09-2.08-13.7-.56-5.07-.56-5.07-1.65-7.25q-.37-4-.6-8l-.15-2.44-.3-5.08q-.2-3.86-.46-7.73-.16-2.48-.28-4.95l-.15-2.3c-.4-7.79.95-14.27 5.94-20.5 3.22-3.44 5.55-5.33 10.25-5.57 5.38.31 9.9 2.35 14.75 4.57l3.69 1.5a94 94 0 0 1 8.37 4.4 256 256 0 0 0 9.94 5.28l2.04 1.08c4.93 2.51 9.63 4.34 15.27 3.32l2.13-.77a183 183 0 0 1 13.75-3.94l2.02-.52c4.25-1.06 8.45-1.79 12.79-2.35l4.78-.72 2.56-.39 5.19-.79 2.56-.39 2.5-.38q2.33-.33 4.67-.52c4.64-.38 6.98-1.17 10.12-4.63l1.96-2.08A31 31 0 0 0 373 322q2.48-2.54 5-5c3.08-3.4 6.1-6.83 8.89-10.49 3.95-4.7 9.35-9.5 15.4-11.13 4.49-.16 8.02 1.18 11.7 3.62 5.49 5.63 7.95 12.57 10 20l3 6q.55 1.98 1 4 .5 1.1 1 2.25c1.07 2.9 1.4 5.65 1.74 8.71.74 5.5 2.84 10.73 4.62 15.96.65 2.08.65 2.08 1.22 4.95C437 363 437 363 439 366a434 434 0 0 0 19-9l4.25-2.13q.94-.45 1.89-.95 1.95-.97 3.94-1.93c1.92-.99 1.92-.99 4.42-2.74 3.02-2.07 6.22-3.64 9.5-5.25a97 97 0 0 0 12-7 334 334 0 0 1 20.04-10.47l3.03-1.47 3.03-1.47A52 52 0 0 0 528 318q2-.52 4-1 3.03-1.95 6-4 2-1.04 4-2c4.19-2.06 8.32-4.16 12.38-6.44 4.79-2.69 9.69-5.13 14.62-7.56l4.63-2.32C595 284 595 284 597.28 282.88q2.5-1.3 4.9-2.76a76 76 0 0 1 8.07-4c3.48-1.5 6.76-3.2 10.07-5.06 7.57-4.2 15.47-7.34 23.68-10.06 3.1-1.3 6.19-2.62 9.24-4.05A44 44 0 0 1 666 253q3.52-1.46 7-3a90 90 0 0 1 12.78-3.5q2.88-.68 5.72-1.5c7.49-2.14 15.16-3.59 22.82-5l2.67-.5a172.5 172.5 0 0 1 72 3.5l2.8.74 2.75.74 2.64.7q2.41.66 4.82 1.38c8.13 2.34 13.76.14 21-3.56q3.05-1.93 6-4l5-3a46 46 0 0 0 9.25-7.25L846 226h2l.7-1.65c1.67-3.02 3.79-5.38 6.05-7.98 8.67-10.18 13.89-21.26 18.32-33.8a129 129 0 0 1 6.7-15.07c1.2-2.47 2.23-4.95 3.23-7.5 1.68-3.66 3.19-6.2 6-9l1.69-3.25c2.08-3.8 4.85-6.2 8.22-8.88 2.17-1.95 3.92-4.1 5.76-6.36 10.07-11.47 26.12-18.93 40.33-23.5l3.19-1.2a42 42 0 0 1 7.13-1.38c3.27-.39 3.97-1.4 6.85-1.52" fill="#E8E8E9"/><path d="M255 328v2h-8l1 2c1.97.46 1.97.46 4.5.81 5.65 1.06 9.69 3.1 14.5 6.19l1.74 1.11c19.69 12.64 19.69 12.64 20.95 17.58-.89 2.97-2.01 3.81-4.69 5.31h-2v2c-1.68 1.73-1.68 1.73-3.88 3.62l-2.17 1.92C275 372 275 372 273 372l-1 4h-2v2h-2l-.81 2.19c-1.56 3.68-3.64 6.92-5.75 10.31A49 49 0 0 0 258 398l-.78 1.99a94 94 0 0 0-3.28 9.95L253 413l-2 1c-4.04-11.76-6.48-23.85-9-36l-3 2c-1.03-8.02-1.25-16.02-1.3-24.1l-.06-4.32q-.06-3.18-.07-6.35l-.04-3.77c.7-5.14 3.22-8.14 6.72-11.84 3.82-2.25 6.36-1.92 10.75-1.62" fill="#272926"/><path d="M415 304c4.04 6.36 6.38 13.53 8.56 20.69l.9 2.88C431 348.82 431 348.82 431 355h-3l.44 1.94c1.1 5.14 1.79 9.81 1.56 15.06l-1-2h-2v-2h-2c-2.62-2.38-2.62-2.38-5-5v-2l-2.12-.81A122 122 0 0 1 409 356v-2l-2.69-.75q-3.58-1-7.11-2.17c-8.64-2.8-17.26-4.57-26.2-6.08.51-4.98 2.2-8.65 4.75-12.88l1.09-1.84 2.16-3.62q1.3-2.17 2.57-4.35 1.63-2.7 3.43-5.31h2l.75-2.38c1.46-3.06 2.3-3.24 5.25-4.62l.88-1.94c1.69-3.1 3.9-3.76 7.12-5.06 4.62-1.25 7.79-1.42 12 1" fill="#232521"/><path d="M803 571c16.34 10.16 27.77 22.37 32.88 41.19 1.7 8.15 1.59 16.52 1.12 24.81-1.71 1.71-4.17 1.41-6.5 1.69-4.61.7-7.49 1.67-11.19 4.5-3.34 2.53-5.18 3.17-9.37 2.69A66 66 0 0 1 806 645c-.2-5.56.2-10.74 1-16.25 2.28-16.97.98-32.83-2.54-49.53q-.83-4.1-1.46-8.22" fill="#EDEFF0"/><path d="m372 556 4 2a213 213 0 0 1-13.38 14.5l-2.01 2a196 196 0 0 1-11.79 10.9c-3.02 2.65-5.78 5.55-8.6 8.41a159 159 0 0 1-8.19 7.38c-2.27 2.02-4.4 4.15-6.53 6.31a176 176 0 0 1-10.4 9.69c-3.19 2.75-6.29 5.58-9.41 8.4a624 624 0 0 1-19.13 16.47l-2.12 1.78A291 291 0 0 1 278 649l-2.19 1.74c-5.6 4.14-9.97 5.16-16.87 5.14l-2.63.06q-3.16.06-6.31.06a89 89 0 0 1 10.88-9.56q7.51-5.71 14.87-11.63a698 698 0 0 1 11.69-9.25c4.85-3.75 9.59-7.64 14.34-11.52q6.64-5.4 13.41-10.66c5.7-4.45 11.23-9.07 16.73-13.77q4.21-3.57 8.52-7.05c4.85-3.95 9.6-8.01 14.34-12.09a645 645 0 0 1 14.21-11.83C371 557 371 557 372 556" fill="#E9E8ED"/><path d="M237 344h1l.04 2.02c.5 20.68 2.66 40.56 6.55 60.86a175 175 0 0 1 2.35 18.37c2.39 28.8 7.5 65.22 30.63 84.94 8.74 6.72 18.57 11.68 29.43 13.81-.91 4.52-3.43 7.6-6.19 11.19l-1.61 2.12A680 680 0 0 1 280 561l-1.48 1.77a1237 1237 0 0 1-11.09 13.08c-6.18 7.26-12.41 14.31-19.25 20.97a88 88 0 0 0-5.49 6.06c-8.21 9.53-20.66 22.81-32.69 27.12q-4.06.25-8.12.31c-8.14.33-14.77 1.5-20.71 7.55-5.5 6.88-7.79 13.39-7.51 22.21.63 5.45 2.18 9.07 6.36 12.68 9.13 6.48 19.07 7.35 29.98 6.25 7.87-1.69 14.94-5.24 22-9l4-2-.66 1.58c-2.74 7.26-3.71 14.32-1.22 21.8 4.22 5.9 9.45 8.63 15.88 11.62v1c-7.24-.58-11.42-3.09-16.25-8.38-4.25-5.22-5.12-9.93-4.75-16.62q.46-2 1-4l-3.3 1.5c-8.57 3.78-16.16 6.78-25.7 6.5l-2.09-.04c-6.46-.49-14.64-2.22-19.65-6.42C178 675 178 675 176 672l-2.19-2.06c-2.07-2.22-2.88-4.07-3.81-6.94l-.6-1.82c-.5-2.73-.15-4.83.35-7.56l.48-2.77c2.38-8.83 8.57-15.05 15.82-20.35 5.34-3.01 10.93-3.2 16.95-3.5 5.73-.34 9.31-1.54 14-5h2l.75-1.88c1.25-2.12 1.25-2.12 2.99-2.95 12.55-6.48 25.46-22.24 33.77-33.44L258 582h2l.19-1.75c1.13-3.13 3.22-4.2 5.81-6.25q2.06-2.96 4-6 1.47-1.53 3-3l2.06-2.69L277 560h2l.83-1.77a41 41 0 0 1 3.86-5.92l1.6-2.1L287 548l1.77-2.31c2.6-3.37 5.22-6.7 7.98-9.94A54 54 0 0 0 302 528l1-1-2.01-.8L293 523l-2.5-.9c-2.93-1.29-5.25-2.94-7.81-4.85L277 513l-2.39-1.72-2.11-1.53-1.84-1.33c-3.22-2.76-5.38-6.42-7.72-9.92l-1.54-2.28c-2.62-4.15-4.26-8.4-5.9-13.03l-1.28-3.58A209 209 0 0 1 251 469l-1-3.19c-1.37-5.21-2.17-10.49-3-15.81-.43-2.75-.89-5.49-1.48-8.22-1.32-6.22-2-12.32-2.46-18.66-.56-6.95-1.39-13.45-3.33-20.17-1.11-4.51-1.59-9.08-2.08-13.7-.56-5.07-.56-5.07-1.65-7.25-.69-12.61.42-25.41 1-38" fill="#E5E6E7"/><path d="M1039.6 128.63c7.56 5.69 14.1 11.96 20.52 18.88l1.6 1.68c5.04 5.43 7.86 10.86 10.28 17.81l1.31 3.31a25.5 25.5 0 0 1-2.5 17c-3.32 4.78-7.3 8.68-12.8 10.7-9.42 1.57-16.35-1.01-23.97-6.38-1.67-1.31-1.67-1.31-4.04-3.62v-2l-1.7-.66c-3.13-1.84-4.83-4.25-7.05-7.1-6.78-8.43-14.58-13.57-24.25-18.25l-1.82-1c-6.67-3.05-12.82-3.34-20.06-3.31l-2.85-.06c-14.83 0-26.56 7.56-37.27 17.38-2.32 3.06-2.32 3.06-4 6a464 464 0 0 1-3.86 5.19c-1.38 2.17-2.2 4.4-3.14 6.8l-2.38 4.5a61 61 0 0 0-4.44 11.63 94 94 0 0 1-6.25 15.62l-1.03 2.13c-2.53 5-2.53 5-5.9 6.13 1.32-4.15 2.86-8.1 4.62-12.07q2.86-6.44 5.23-13.02c7.94-22.05 19.06-39.82 40.9-50.3 10.62-4.88 25.58-5.82 36.73-1.7q1.24.5 2.52 1.09l3.3 1.37c9 4.1 15.77 9.59 22.7 16.63l1.94 1.97 2.08 2.1 2.12 2.16q2.06 2.07 4.07 4.19c6.37 6.51 12.3 11.12 21.54 11.88 4.74-.06 8.37-1.64 12.25-4.3 5.42-5.71 5.6-11.44 5.4-19.01-.96-14.34-13.83-26.1-23.97-35.1-5.16-4.44-10.7-8.22-16.43-11.9l-2.48-1.67c-11.7-7.58-24.93-11.1-38.52-13.33v-1c17.5-4.92 38.16 9.72 51.6 19.63" fill="#DDDDDE"/><path d="M334 464v2l2 1v5c-11.74 6.32-21.19 10.08-34.44 6.31-6.53-2.13-14.2-4.81-17.56-11.31v-4c15.67-5.77 34.76-6.62 50 1" fill="#161714"/><path d="m406.56 441.88 2.88-.01C412 442 412 442 415 443c-3.1 7.86-14.7 11.68-22 15a92 92 0 0 1-6 2v2q-3.35 1.31-6.69 2.56l-1.9.75c-3.86 1.44-6.45 1.95-10.4.69-.44-3.87-.45-5.45 2.03-8.56q1.35-1.13 2.71-2.31l2.67-2.37C378 451 378 451 382 451l1-3a67 67 0 0 1 6.81-2.62l3.77-1.3c4.57-1.44 8.17-2.21 12.98-2.2" fill="#121514"/><path d="M237 344h1l.04 2.02c.5 20.68 2.66 40.56 6.55 60.86a175 175 0 0 1 2.35 18.37 233 233 0 0 0 10.27 51.25l.75 2.43.68 2.1c.42 2.28.07 3.78-.64 5.97-5.08-5.08-6.34-13.87-7.57-20.73C250 464 250 464 249 460.5a116 116 0 0 1-3.79-20.41c-.41-3.99-1.01-7.96-1.72-11.91-.48-3.12-.7-6.16-.87-9.3a78 78 0 0 0-2.86-15.61c-1.08-4.63-1.6-9.29-2.11-14.02-.56-5.07-.56-5.07-1.65-7.25-.69-12.61.42-25.41 1-38" fill="#DEDFE0"/><path d="m734.02 237.73 2.33-.04c18.25-.24 34.9.67 52.65 5.3q2.4.58 4.82 1.13c7.31 1.75 7.31 1.75 10.18 2.88l1 3a201 201 0 0 1-17.06-3.5c-14.28-3.64-27.99-4.74-42.69-4.75h-2.35c-22.55.03-43.28 4-64.9 10.25v-2c3.44-2.45 6.67-3.61 10.75-4.56l3.18-.75q1.51-.33 3.07-.7l2.61-.58a398 398 0 0 1 16.83-3.41l2.74-.5 2.82-.5 2.68-.51c3.78-.55 7.52-.7 11.34-.76" fill="#E3E3E5"/><path d="M360 475c2.56 1.5 2.56 1.5 4 3-.48 4.29-1.02 6.02-4 9q-1.08 3.48-2 7c-1 1-1 1-3.56 1.06L352 495l-1.12-2.75C349 489 349 489 345.81 486.94 343 485 343 485 342.31 482.5c.96-3.5 2.7-4.55 5.69-6.5 4.03-1.34 7.78-1.46 12-1" fill="#646566"/><path d="M869 368h1l.08 3.21.29 11.84.13 5.12.18 7.37.05 2.29c.12 4.15.55 8.09 1.27 12.17a119 119 0 0 1-.44 6.81c-.35 4.19-.62 8.3-.56 12.5V433l-1 1q-.07 4.92.04 9.83l.02 2.12.04 1.92c-.1 2.13-.1 2.13-.6 4.94a60 60 0 0 0-.56 10.23l.01 1.97.05 6.18q.04 4.08.06 8.17l.04 3.64c-.1 3-.1 3-1.1 6h-2c-.23-21.9.02-43.68 1.21-65.54a1206 1206 0 0 0 1.48-40.71z" fill="#F1F1F3"/><path d="m297 460 .3 2.01c.89 5.3 1.59 9.22 5.7 12.99a45 45 0 0 0 6 3v1c-8.73-.29-17.18-3.02-23.36-9.45C284 467 284 467 284 463q2.12-.76 4.25-1.5l2.39-.84C293 460 293 460 297 460" fill="#D6BB68"/><path d="M380 451a32 32 0 0 1 2.5 3.94c2.29 3.95 2.29 3.95 4.5 5.06v2q-3.33 1.3-6.69 2.56l-1.89.75c-3.87 1.44-6.46 1.96-10.42.69-.3-2.7-.3-2.7 0-6 2.12-2.55 2.12-2.55 4.88-4.88l2.74-2.36C378 451 378 451 380 451" fill="#EBC860"/><path d="m395 299 3 1q-3.66 3.7-7.39 7.32a152 152 0 0 0-13.74 15.29 186 186 0 0 1-5.49 6.7l-1.54 1.8L368 333l-2.5 2.65c-4.33 3.54-9.49 3.37-14.88 3.66l-3.09.22q-3.76.26-7.53.47v-2c4.93-1.06 9.79-2.04 14.81-2.5 7.42-.81 11.43-3.82 16.19-9.5q1.02-2 2-4a262 262 0 0 1 5-5c3.14-3.47 6.21-6.97 9.06-10.69A42 42 0 0 1 395 299" fill="#E2E4E3"/><path d="m235 668 1 2-1.44 2.94c-2.68 5.9-2.46 12.37-.44 18.44 4.22 5.9 9.45 8.63 15.88 11.62v1c-7.24-.58-11.42-3.09-16.25-8.38-4.25-5.22-5.12-9.93-4.75-16.62q.46-2 1-4l-3.65 1.57-4.73 1.99-2.4 1.04-2.31.97-2.12.9C213 682 213 682 211 681l-1-2 2.27-.7c8.09-2.57 15.65-5.58 22.73-10.3" fill="#D8D9DA"/><path d="M867 340c2 1 2 1 2.6 2.71 1.48 7.1 2.49 14.15 2.4 21.41 0 3.88 0 3.88.49 7.53.6 4.6.69 9.15.7 13.79l.03 2.41A61 61 0 0 1 871 404h-1l-.06-2.99c-.71-34.29-.71-34.29-2.54-49.12A98 98 0 0 1 867 340" fill="#EEF0F2"/><path d="M407 298c5.59 2.96 5.59 2.96 6.88 6.25L414 306l-1.16-1.53c-1.84-1.47-1.84-1.47-4.36-1.5-6.14 1.14-9.26 2.19-13.48 7.03l-2.33.3c-3.84 1-5.1 3.17-7.48 6.26l-2.4 3.07L381 322l-3-1a104 104 0 0 1 12.06-14.31l1.54-1.56c4.7-4.67 8.53-8.11 15.4-7.13" fill="#171817"/><path d="m372 556 4 2a211 211 0 0 1-13.88 14.94l-2.08 2.07L355 580l-2-2c.38-1.94.38-1.94 1-4v-3c2.16-2.05 2.16-2.05 5.06-4.31l3.03-2.39L365 562a670 670 0 0 0 7-6" fill="#E0E1E2"/><path d="M501 568v3a98 98 0 0 1-6.75 4.94c-4.09 2.77-7.88 5.4-11.25 9.06l2 2c-6.21 2.14-11.43 3.37-18 3 4.55-3.93 9.59-6.84 14.75-9.88A334 334 0 0 0 501 568" fill="#030404"/><path d="m883 576 3 2c.26 2.29.26 2.29.12 5.06-.1 3.55-.09 6.92.38 10.44.56 4.32.52 8.55.47 12.9.04 3.29.46 6.37 1.03 9.6h-4l-.91-16.61-.31-5.65-.59-10.68q-.14-3.03-.19-6.06z" fill="#E8EAEB"/><path d="m1036 126-2 2-2.72-1.76c-13.73-8.67-27.27-13.62-43.28-16.24v-1c16.4-4.61 35.06 8.15 48 17" fill="#DDDCDF"/><path d="M245 599c-4.83 11-18.69 19.91-28 27l-1.77 1.39c-5.29 3.65-11.11 2.97-17.23 2.61v-1l1.91-.3c5.29-.92 9.69-2.19 14.4-4.8C216 623 216 623 219 622l.94-1.94C221 618 221 618 222.7 617.2c3.17-1.65 5.59-4.02 8.18-6.45l1.61-1.49q4.17-3.87 8.13-7.95C243 599 243 599 245 599" fill="#DDDEDE"/><path d="M921 188h1c.4 5.65-.13 8.79-2.87 13.69-1.35 2.77-2.12 5.53-2.94 8.5A70 70 0 0 1 907 230l-3 1c1.32-4.14 2.86-8.09 4.62-12.06a469 469 0 0 0 8.75-22.01l.99-2.63.89-2.37C920 190 920 190 921 188" fill="#DBDBDD"/><path d="m767.3 238.96 2.72.48 3.02.51 3.2.61 3.27.6c18.46 3.4 18.46 3.4 24.49 5.84l1 3a207 207 0 0 1-17.06-3.5A152 152 0 0 0 762 242c1.73-2.23 2.43-2.99 5.3-3.04" fill="#E0DFE3"/><path d="M237 344h1l.04 2.02c.37 15.07 1.4 29.81 3.7 44.71.28 2.44.3 4.82.26 7.27l-3-1-.4-2.77-.54-3.61-.52-3.58C237 384 237 384 236 382c-.69-12.61.42-25.41 1-38" fill="#C5C7C4"/><path d="M335.69 337.94a152 152 0 0 1 4.3.06v2l-2.63.6-9.8 2.28-4.21.98-6.1 1.42-3.7.85q-3.68.9-7.32 1.97c-2.94.82-5.2 1.09-8.23.9 2.69-3.58 6.36-4.08 10.5-5l4.33-1.02 2.14-.5q4.2-1 8.34-2.16l2.56-.7c3.49-1.01 6.17-1.73 9.82-1.68" fill="#E9EBEB"/><path d="M869 368h1l.08 3.21.29 11.84.13 5.12.18 7.37.05 2.29A80 80 0 0 0 872 410c-.09 2.34-.09 2.34-.38 4.5l-.3 2.31q-.6 4.11-1.32 8.19l-2-1c-.08-12.34.17-24.66.5-37l.14-5.56z" fill="#C6C7C9"/><path d="M962.39 104.95q5.1.15 10.24.37c.58 0 .58 0 3.56.1 5.92.23 11.22.57 16.8 2.58v1l-2.83-.01-10.6-.04-4.55-.02c-9.06-.05-18 .1-27.01 1.07 2.4-2.56 3.58-3.37 7.13-3.62 3.53-.34 4.13-1.36 7.26-1.43" fill="#F0F1F1"/><path d="M951 110a35 35 0 0 1-8.38 3.19c-11.48 3.38-21.28 9.47-30.62 16.81l-1-3c26.34-19.79 26.34-19.79 40-17" fill="#DDDEDF"/><path d="M239 343c2.2 3.31 2.23 4.24 2.16 8.07l-.03 2.97-.07 3.08-.09 6.08-.05 2.71C241 368 241 368 242 369q.06 3 0 6l-3 1a65 65 0 0 1-1.13-12.24l-.01-3.48.02-3.59-.02-3.65.01-3.47v-3.16C238 344 238 344 239 343" fill="#151815"/><path d="M878 171h2c-.6 6.12-3.03 11.45-5.38 17.06l-1.21 2.97A85 85 0 0 1 867 204c-.81-2.32-1.13-3.6-.36-5.97l1.05-2.09c2.08-4.37 3.77-8.8 5.38-13.36A93 93 0 0 1 878 171" fill="#EDEDF0"/><path d="M885 612h1v5h2l-.02 2.89-.03 10.62-.03 4.59-.02 6.61-.01 2.07c0 3.03.14 5.32 1.11 8.22h-4z" fill="#F2F5F3"/><path d="m416 442-1 2-3-1c-7.35-.63-13.19.35-20 3q-3.62 1.14-7.25 2.25C383 449 383 449 382 451q-3.49.61-7 1c2.71-3.27 6.29-4.82 10.06-6.56l2.04-.94c8.62-3.86 20.11-7.47 28.9-2.5" fill="#030403"/><path d="m305.75 456.75 2.37.02c16.94.29 16.94.29 23.88 5.23v2l-2.19-.93c-9.03-3.44-18.46-3.33-28-3.2l-3.75.03-9.06.1v-1a56 56 0 0 1 16.75-2.25" fill="#020303"/><path d="m274 337-3 3-1.69-1.88c-2.38-2.18-4.27-3.11-7.31-4.12l1 3-1.88-.88c-4.28-1.54-8.65-2.3-13.12-3.12l-1-3c10.41-2.08 17.9 2.2 27 7" fill="#101113"/><path d="M1063 152c5.37 3.58 6.99 9.12 9 15l1.25 3.56c.84 3.86.67 6.61-.25 10.44l-2 1-.04-1.98A46.4 46.4 0 0 0 1063 156z" fill="#E7E9E6"/><path d="m418 317 3 1c1.39 2.91 1.39 2.91 2.69 6.62l1.32 3.67A29 29 0 0 1 426 339l-2 2c-1.51-1.51-1.22-2.96-1.38-5.06a37 37 0 0 0-2.92-11.08A34 34 0 0 1 418 317" fill="#1D1E1F"/><path d="M1070 171h1c2.1 13.61 2.1 13.61-1.44 18.56-3.22 3.5-7.1 6.7-11.56 8.44l-3-1c1.27-2.53 2.26-2.7 4.81-3.81 3.75-1.8 5.91-3.63 8.19-7.19 1.05-3.16 1.31-5.87 1.56-9.19l.26-3.29z" fill="#DBDCDE"/><path d="M295 462c2.7 2.7 3.71 5.43 5 9-.31 2.44-.31 2.44-1 4l-5-1v-2h-2v-2l-2-1 3-4 2 1z" fill="#EACD6B"/><path d="M1032 187a48 48 0 0 1 7.5 4.5c5.1 3.27 10.57 3.84 16.5 4.5l-1 2c-8.17.66-14.35-1.14-20.74-6.45-1.38-1.36-1.38-1.36-3.26-3.55z" fill="#E2E2E4"/><path d="M866 489h2c1.83 4.47 2.16 8.11 1.97 12.85.03 2.21.41 4.04 1.03 6.15l-3 1c-1.81-4.62-2.22-8.43-2.12-13.38l.05-3.77z" fill="#DDDEE0"/><path d="M357 700v2c-10.09 1.47-19.78 2.29-30 2v-1l11.62-1.5 3.32-.43 3.22-.41 2.96-.38c2.97-.29 5.89-.33 8.88-.28" fill="#EBEEEB"/><path d="m885 256 3 1-16 16-3-1 1.94-1.31C873 269 873 269 874 266c1.74-1.72 1.74-1.72 3.88-3.5A97 97 0 0 0 885 256" fill="#EBEBEE"/><path d="M1008 111c1.94 1.62 1.94 1.62 3 3-3.16 1.58-6.02.06-9.25-.88A108 108 0 0 0 988 110v-1c6.68-1.88 13.59-.26 20 2" fill="#D2D2D4"/><path d="M519 683v1h-5v2h-29v-1c11.15-2.05 22.69-2.19 34-2" fill="#D9DADB"/><path d="m263 645 3 1-1.44 1.25c-1.72 1.93-2.13 3.23-2.56 5.75l2 1h-11c6.27-6.45 6.27-6.45 10-9" fill="#EEEEF0"/><path d="m413 446 2 1c-15.92 11.3-15.92 11.3-25 14-2.38-.85-2.38-.85-4-2l1.84-.56c7.16-2.37 13.41-5.67 19.85-9.53 1.74-1.03 3.52-1.97 5.31-2.91" fill="#050705"/><path d="M236 341h1v27c-2.81-4.21-2.53-7.97-2.75-12.94l-.17-2.75-.13-2.65-.12-2.42c.19-2.51.91-4.08 2.17-6.24" fill="#F0F0F1"/><path d="M253 465c1.95 3.52 3.06 7.15 4.19 11l1.1 3.69c.65 3.04.82 4.48-.29 7.31-3.94-3.94-5.96-10.2-6.04-15.73.25-2.1.63-4.19 1.04-6.27" fill="#D1D0D3"/><path d="M847 228c-1.53 4.14-4.5 6.28-7.94 8.81l-1.63 1.27c-1.58 1.19-1.58 1.19-4.43 2.92l-3-1a43 43 0 0 1 10-8l2.12-2.19C844 228 844 228 847 228" fill="#E2E2E6"/><path d="m240 398 3 1c1.19 5.38 2.29 10.45 2 16h-2l-1.44-4.69-.81-2.63c-2.01-7.16-2.01-7.16-.75-9.68" fill="#E2E1E1"/><path d="m883 576 3 2-.44 3.81c-.6 5.39-1.09 10.79-1.56 16.19h-1q-.3-5.22-.56-10.44l-.17-3.01-.15-2.86-.14-2.65C882 577 882 577 883 576" fill="#D9D9DB"/><path d="M331 465h2a14 14 0 0 1 3 4c-.13 2.03-.13 2.03-1 4-2.07 1.05-2.07 1.05-4.56 1.75l-2.51.73-1.93.52 1-2h2z" fill="#A19A72"/><path d="m505 331 3 1c-3.34 3.89-7.26 6.17-12 8h-3c.69-1.88.69-1.88 2-4 2.31-1.06 2.31-1.06 5-2l2.62-1.69z" fill="#EDECF0"/><path d="M925 666h1c.44 2.62.44 2.62 0 6-4.22 5.7-10.36 7.48-17 9l-2-2 2.96-.95 3.85-1.3 1.95-.62c3.91-1.34 6.21-2.47 8.24-6.13.69-2.25.69-2.25 1-4" fill="#E8E9E9"/><path d="M172 663h2l.63 1.57c2.5 5.65 5.12 8.2 10.37 11.43l-1 2c-3.07-.33-3.93-.92-6-3.31l-2-2.69-2.25-2c-1.75-2-1.75-2-2-4.75z" fill="#DFE1E3"/><path d="M803 571c6.43 4.14 6.43 4.14 9 7h-2v2l-5 2z" fill="#E0E2E1"/><path d="M291 472h3v2h2.31c5.69 0 7.84 1.07 12.69 4v1a43 43 0 0 1-18-5z" fill="#C9BC80"/><path d="M967 152h17l-1 3-16 1z" fill="#CED0D0"/><path d="m678 248 2 2h-2v2l-5.81 2-3.27 1.12C666 256 666 256 663 256l1-3a74 74 0 0 1 5.01-1.46c3.15-.85 6.02-2.21 8.99-3.54" fill="#EFEEF1"/><path d="M869 448c1 2 1 2 .56 4.5-.72 4.52-.64 8.93-.56 13.5l-2 1c-1.21-3.62-1.11-6.93-1.06-10.69l.01-2.12.05-5.19z" fill="#E7E7E8"/><path d="m249 455 3 1c1.13 5.36 1.1 10.55 1 16l-2-1q-.55-3.5-1-7l-1.12-3.81C248 457 248 457 249 455" fill="#E5E5E9"/><path d="M243 415h3v16h-2c-1.13-5.36-1.1-10.55-1-16" fill="#E5E5E6"/><path d="M370 327h2c-1.42 3.3-3.14 5.36-5.81 7.75l-2.02 1.86c-2.6 1.66-4.15 1.66-7.17 1.39l-1-2 3.62-1.12c4.64-1.71 7.04-4.31 10.38-7.88" fill="#D9DBDB"/><path d="m203 627 2 2-7.31 1.5-2.09.43c-2.93.6-5.61 1.07-8.6 1.07v-2c10.94-3.63 10.94-3.63 16-3" fill="#ECEDED"/><path d="M1050 140c4.2.49 6.05 2.76 8.81 5.81l2.46 2.65c1.73 2.54 1.73 2.54 1.49 4.86L1062 155l-1.36-1.76A397 397 0 0 0 1050 140" fill="#E1E2E1"/><path d="m235 694 1.76 1.21c4.3 2.92 8.51 5.61 13.24 7.79v1c-5.45-.44-8.72-1.59-13-5-1.88-2.25-1.88-2.25-3-4z" fill="#CCCDCF"/><path d="M303 524h4c-.61 3.44-1.92 5.52-4.06 8.25l-1.66 2.14L300 536l-1-3q1.43-2.54 3-5c.69-2.31.69-2.31 1-4" fill="#DEE0DF"/><path d="M239 343c2.43 3.64 2.08 4.93 1.62 9.19l-.33 3.29L240 358h-2q-.05-3.46-.06-6.94l-.04-3.9c.1-3.16.1-3.16 1.1-4.16" fill="#0D0E0F"/><path d="m929 178 2 2-2.38 2.69c-2.21 2.63-3.42 5.07-4.62 8.31l-2 1c.46-4.7 1.03-8.23 4-12h3z" fill="#E7E9E8"/><path d="m844.25 683.94 3.27.03 2.48.03 1 3h-17v-2c3.46-1.06 6.64-1.1 10.25-1.06" fill="#B1B2B4"/><path d="m896 242 1 2c-1.68 4.75-4.16 8.71-8 12l-3-1 1.68-2.08 2.2-2.73 2.17-2.71C894 245 894 245 896 242" fill="#DFDEE0"/><path d="m349 662 1 3c-2.49 2.67-4.63 4.56-8 6l-3-2c5.75-4 5.75-4 8-4v-2z" fill="#171918"/><path d="M245 599c-1.48 3.45-3.44 5.65-6.12 8.25l-2.2 2.14L235 611l-2-2 4.88-5 2.74-2.81C243 599 243 599 245 599" fill="#C9CCC9"/><path d="m938 166 1 2-3.88 5-2.17 2.81L931 178h-2v2l-2-1 3.25-4.25 1.83-2.39A71 71 0 0 1 938 166" fill="#DBDCDB"/><path d="M376 462h7c-4.32 3.66-8.35 5-14 5l1-3h6z" fill="#E3CB80"/><path d="m375 454 1 2h-2l1 3-2.44.69L370 461c-.81 2.62-.81 2.62-1 5h-1c-.44-2.62-.44-2.62 0-6a42 42 0 0 1 7-6" fill="#DFC472"/><path d="M865 327c3.12 5.83 2.97 9.54 2 16h-1q-.54-3.15-1.06-6.31l-.6-3.55C864 330 864 330 865 327" fill="#E1E1E3"/><path d="M418 317c3 1 3 1 4.25 3.12.93 3.58.45 6.29-.25 9.88h-1z" fill="#171719"/><path d="m730.63 238.31 2.4.24 1.98.45 1 2h-15c3.08-3.09 5.49-3.14 9.62-2.69" fill="#EEEEF0"/><path d="m388 639 2 3-9 5-2-2h3l.75-1.88c1.46-2.47 2.63-3.07 5.25-4.12" fill="#1A1C1A"/><path d="m232 610 2 1q-1.87 1.95-3.75 3.88l-2.11 2.17A20 20 0 0 1 222 621l-2-2 2.06-1.12c3.62-2.31 6.74-5.03 9.94-7.88" fill="#E5E7E6"/><path d="M290 520c4.85.59 8.61 1.98 13 4v2c-9.59-1.56-9.59-1.56-13-6" fill="#EAECEA"/><path d="M261 332c4.86.61 8.74 2.73 13 5l-3 3-1.62-1.88c-2.69-2.4-4.93-3.18-8.38-4.12zm-2 2 4 2h-3z" fill="#191A1C"/><path d="M1024 179c4.27 1.58 6.27 4.51 9 8l-3 1v-2l-1.88-.69c-2.73-1.69-3.17-3.3-4.12-6.31" fill="#D6D7D5"/><path d="M425 328c3 1 3 1 4.25 3.38C430 334 430 334 429 337l-3-1z" fill="#EEEDEF"/><path d="M1013 168c3.45 1.48 5.65 3.44 8.25 6.12l2.14 2.2L1025 178l-2 2-1.43-1.68-1.88-2.2-1.87-2.17C1016 172 1016 172 1013 170z" fill="#E5E6E7"/><path d="M863 682v4h-10c2-3 2-3 3.88-3.69C859 682 859 682 863 682" fill="#B3B5B4"/><path d="M378 451h2a32 32 0 0 1 2.5 3.94c2.29 3.95 2.29 3.95 4.5 5.06v2h-3c-4-5.26-4-5.26-4-8l-4-1z" fill="#D6C385"/><path d="M868 439c1.85 3.13 2.45 5.37 2 9a83 83 0 0 1-3 4l-.06-5.94-.04-3.34c.1-2.72.1-2.72 1.1-3.72" fill="#F4F4F6"/><path d="M861 317c2.53 2.2 3.53 3.68 4 7q.07 3 0 6c-3.09-3.09-3.94-6.55-4.12-10.88z" fill="#EBEDED"/><path d="M727 241v1l-6.38.56-3.58.32C714 243 714 243 712 242v-2c5.69-1.19 9.43-.66 15 1" fill="#DEDEE1"/><path d="M917 201c1.16 3.48.77 4.34-.44 7.69l-.87 2.45L915 213h-2c.47-4.78 1.24-8.04 4-12" fill="#E3E3E5"/><path d="m417 620 4 2-9 6-1-2 1-2h3v-2h2z" fill="#181918"/><path d="M685 246c2.12.94 2.12.94 4 2-3.51 1.96-7.13 2.96-11 4v-2a67 67 0 0 1 7-4" fill="#DBDBDD"/><path d="M795 245q2.22.38 4.44.81l2.49.46 2.07.73 1 3-11-2z" fill="#D7D7DA"/><path d="m1015 166 2 1v2l2.44.69L1022 171c.81 2.62.81 2.62 1 5l-3.38-2.81-1.89-1.58C1016 170 1016 170 1014 167z" fill="#1B1D1D"/><path d="m369 698-4 1v2l-3.81.12-2.15.08C357 701 357 701 354 699a99 99 0 0 1 15-1" fill="#E0E4E0"/><path d="m372 556 4 2-5 6c-1.05-3.14-1-3.99 0-7z" fill="#DDDFE0"/><path d="m593 540 2 1v2l-9 4v-3c5.27-3.22 5.27-3.22 7-4" fill="#1B1E1B"/><path d="M380 451h2v3l4 1 1 4h-3c-4-5.26-4-5.26-4-8" fill="#2B2315"/><path d="m651 258 2 3-9 3-2-2z" fill="#E2E2E5"/><path d="M1070 171h1q.37 3.4.69 6.81l.38 3.83C1072 185 1072 185 1069 188z" fill="#C1C4C2"/><path d="M297 467a21 21 0 0 1 3 4c-.31 2.25-.31 2.25-1 4l-5-1 2-1-1-4h2z" fill="#DDC461"/><path d="m383 314 2 3-4 5-3-1z" fill="#212123"/><path d="M908 221h2c-.55 3.32-1.17 6.15-3 9l-3 1a57 57 0 0 1 4-10" fill="#D6D5D7"/><path d="m876 544 5 5-2 6h-1z" fill="#DFDFE1"/><path d="M605.44 535.75 607 537c-6.4 3.08-6.4 3.08-9.44 2.69L596 539c6.4-4.18 6.4-4.18 9.44-3.25" fill="#1F221F"/><path d="M378 465v3h-2v2h-2v-2h-6l1-2c3.02-.55 5.93-1 9-1" fill="#3B2A1A"/><path d="M237 371h1l1 13-3-1c-.14-8.57-.14-8.57 1-12" fill="#EDF2ED"/><path d="m256 327 9 3-4 2c-3.25-1.38-3.25-1.38-6-3z" fill="#DBDDDC"/><path d="M408 297c5.75 1.62 5.75 1.62 8 5l-3 1c-3.19-1.94-3.19-1.94-6-4z" fill="#E0E0E2"/><path d="M1071 171h2c1.24 3.73.78 6.18 0 10l-2 1z" fill="#EEF2EE"/><path d="M368 651c2.31.81 2.31.81 4 2l-6 3-3-2c2.25-1.62 2.25-1.62 5-3" fill="#1A1B1B"/><path d="m867 492 3 1v6h-2l-1 3z" fill="#F3F3F5"/><path d="M387 460h7c-1.62 2.06-1.62 2.06-4 4-3.25-.25-3.25-.25-6-1l3-1z" fill="#1C1A18"/><path d="M243 404h1l1 11h-2c-1.29-7.43-1.29-7.43 0-11" fill="#CECED0"/><path d="m452 363 1 2c-1.19 1.56-1.19 1.56-3 3-2.69-.31-2.69-.31-5-1 2.39-1.89 4.07-3.02 7-4" fill="#242122"/><path d="m426 340 2 1c1 3.99 1.05 7.03 0 11-2.6-3.9-2.15-7.47-2-12" fill="#0E0F0E"/><path d="M551 306c2.62.38 2.62.38 5 1a29 29 0 0 1-9 5c1.15-2.47 2.05-4.05 4-6" fill="#DDDCE0"/><path d="m627 271 1 3h-2l-1 3-5-2a56 56 0 0 1 7-4" fill="#1F1F22"/><path d="M321 683v3c-1.75 1.75-1.75 1.75-4 3l-4-1z" fill="#B1B3B3"/><path d="M248 447h2l1 8h-3z" fill="#D5D6D7"/><path d="m263 331 8 1 1 3c-5.54-.62-5.54-.62-7.88-2.56z" fill="#E6E8EB"/><path d="m626.69 269.38 2.3.62c-2.61 2.15-4.63 3.4-8 4v-3c3-2 3-2 5.7-1.62" fill="#E5E5E8"/><path d="m970.69 152.94 5.3.06v1l-5.8 1-3.27.56C964 156 964 156 961 156c1.94-3.87 5.86-3.11 9.69-3.06" fill="#F0F2F4"/><path d="m235 668 1 2a135 135 0 0 1-3 7l-3-6z" fill="#BDBEBC"/><path d="M925 666h1c.33 3.64.42 5.41-1.75 8.44-2.25 1.56-2.25 1.56-4.5 1.31L918 675l1.81-.56c3.29-2.16 3.84-4.79 5.19-8.44" fill="#DEDDE1"/><path d="m424 619 2 1-7 6-2-2z" fill="#DEDEE1"/><path d="M873 531c1.94.69 1.94.69 4 2 .75 2.62.75 2.62 1 5h-4z" fill="#E4E4E5"/><path d="m428 336 3 3-2 6c-1.62-2.57-2.04-3.68-1.62-6.75z" fill="#D9D9DA"/><path d="m534 315 1 2c-1.75 2.06-1.75 2.06-4 4-2.25-.25-2.25-.25-4-1l1-2 4-1z" fill="#EFEFF1"/><path d="M1010 113c3.56.61 6.68 1.58 10 3v1c-2.75.25-2.75.25-6 0-2.38-2-2.38-2-4-4" fill="#E1E4E4"/><path d="M237 668h2c-1.19 3.38-2.28 5.65-5 8 .75-5.75.75-5.75 3-8" fill="#060704"/><path d="m372 652 6 2v1l-10 1z" fill="#DBDBDD"/><path d="m371 559-1 5h-5c1.13-3.38 2.21-5 6-5" fill="#EBEDEE"/><path d="M287 551c-1.44 3.37-3.33 5.51-6 8 .38-2.78.67-4.59 2.44-6.81C285 551 285 551 287 551" fill="#DBDEDD"/><path d="M869 508c3 3.75 3 3.75 3 6h-2l-1 3c-.88-6.15-.88-6.15-1-8z" fill="#E7E7E9"/><path d="M332 466c2 1.31 2 1.31 4 3v3h-4z" fill="#D1C578"/><path d="M432 350c2.64 5.17 2.64 5.17 3 8l-2 3c-1.2-2.41-1.1-3.95-1.06-6.62l.02-2.48z" fill="#EFF0F0"/><path d="M525 320q2.51.43 5 1c-2.39 1.89-4.07 3.02-7 4 .88-3.88.88-3.88 2-5" fill="#DDDCDF"/><path d="M375 320c.69 1.81.69 1.81 1 4-1.44 1.75-1.44 1.75-3 3l-2-1c1.15-2.47 2.05-4.05 4-6" fill="#EAEBEB"/><path d="m395 299 3 1c-4.75 4.88-4.75 4.88-7 6 .56-3.27 1.5-4.83 4-7" fill="#D3D6D2"/><path d="M689 245h6l1 2-8 1z" fill="#EEEDF0"/><path d="M303 628c-1.15 2.47-2.05 4.05-4 6l-3-1c4.75-5 4.75-5 7-5" fill="#1F1D25"/><path d="M352 573c3 1 3 1 4 3l-2.88.94C350 578 350 578 348 579c1.15-2.47 2.05-4.05 4-6" fill="#EFF0F0"/><path d="M255 480h3l1 6-2 1z" fill="#DAD8DB"/><path d="M373 453c0 3 0 3-1.31 4.39L367 461c1.27-3.91 2.51-5.79 6-8" fill="#130902"/><path d="M917 123v3c-3 2.19-3 2.19-6 4 .19-1.81.19-1.81 1-4 2.56-1.75 2.56-1.75 5-3" fill="#E0E2E1"/></svg>