<svg style="background:transparent" version="1.1" xmlns="http://www.w3.org/2000/svg" viewBox="0 0 1248 704"><path d="M1024.9 99.19a94 94 0 0 1 10.1 4.8l2 .95a60 60 0 0 1 12.05 7.6c1.95 1.46 1.95 1.46 4.39 2.85 2.92 1.84 5.05 3.94 7.44 6.42 3.36 3.44 6.73 6.7 10.46 9.74 9.92 8.62 18.56 19.94 22.66 32.45l1.69 3.07c1.49 3.33 1.84 6.17 2.1 9.78.2 2.15.2 2.15.75 4.22 1.29 5.39-.83 10.36-3.54 14.93-5.8 8.53-5.8 8.53-10 11-3.24.62-3.24.62-6.87.88l-3.62.3c-8.92-.45-15.75-7.94-21.51-14.18a120 120 0 0 1-3-5l-2.87-4.25c-2.1-3.11-3.98-6.25-5.75-9.56a30 30 0 0 0-6.38-8.2v-2c-.32-.13-.32-.13-1.93-.86C1031 163 1031 163 1030 161c-8.76-9.4-22.32-13.62-34.87-14.17l-4.13-.02-2.07-.03c-4.4-.01-7.85.66-11.93 2.22l-3.25.75c-7.76 2.59-14.05 7.16-19.96 12.74-1.8 1.5-1.8 1.5-3.9 2.47-2.43 1.34-2.78 2.5-3.9 5.04q-.77 1.29-1.58 2.6c-5.14 8.48-8.95 17.24-12.68 26.4-4.23 10.38-8.92 20.42-14.73 30q-.44.98-.87 2c-1.58 2.8-3.86 4.74-6.13 7a141 141 0 0 0-3 5l-5 5-2.37 2.44A99 99 0 0 1 892 257l-2.12 2.25c-5.47 5.23-11.63 9.85-18.5 13.06L868 274c-1 3-1 3 .19 5.69l1.8 3.3 1.95 3.89 1.02 2.04 4.1 8.2q1.28 2.55 2.6 5.08a44 44 0 0 1 2.84 7.68c.9 3.15 1.88 6.16 3.13 9.19 1.43 3.65 1.88 7.15 2.16 11.05.2 1.88.2 1.88 1.2 3.88q.32 3.13.5 6.25c.22 3.19.42 6.28 1.02 9.42.6 4.05.64 7.97.63 12.06v2.49l-.01 5.2v15.38A48 48 0 0 1 890 396a118 118 0 0 0 0 5.3c.04 3.9-.15 7.62-.71 11.48-.51 3.99-.74 8-1.04 12q-.32 4.09-.75 8.16c-.77 7.55-1.53 15.15-1.46 22.74-.04 3.32-.04 3.32-.53 5.28-.52 2.1-.64 3.9-.65 6.05l-.02 2.36v2.53l-.01 2.65-.01 5.56q0 4.19-.04 8.37c-.08 23.15-.08 23.15 4.22 33.52.38 2.32.38 2.32.57 4.57.24 2.92.68 5.6 1.43 8.43l1.5 6.78q.45 2.04.98 4.07a184 184 0 0 1 5.35 36.55c.13 2.69.34 5.29.66 7.96 1.62 14 1.63 28.2 1.69 42.29q0 2.27.03 4.55.03 3.22.02 6.45l.02 3.79A42 42 0 0 1 899 658l1.63.26c12.37 2.22 27.56 5.56 37.06 14.18 1.3 2.56 1.3 2.56 1.5 5.5-2.1 5.38-5.74 7.79-10.77 10.4-26.47 11.35-59.42 11.22-87.67 11.04l-3.94-.01c-33-.11-65.91-1.9-98.84-3.77-74.68-4.23-149.3-5.86-223.97-.6l-3.26.23q-11.02.76-22.05 1.65l-2.64.2c-9.45.77-18.88 1.64-28.3 2.79a673 673 0 0 1-84.4 4.8h-16.24q-13.54.02-27.08-.02-15.65-.02-31.28 0-13.55.05-27.11.03h-16.1q-7.5.02-15-.02h-5.5q-3.74.02-7.47-.02l-2.22.03c-2.02-.04-2.02-.04-5.35-.67-2.6-3.2-3.41-5.92-3.75-10l-.23-2.5c-.02-2.63.38-4.94.98-7.5l-2.16 1.24-2.9 1.64-2.85 1.6c-10.21 5-23.63 5.37-34.62 2.65-8.51-3.64-15.77-9.56-19.47-18.13-1.9-8.76.03-16.07 4-24 4.99-7.45 11.7-12.07 20.38-14.31 3.45-.68 6.56-.63 10.06-.44 9.3.18 16.03-6.28 22.56-12.25l3.82-3.25c4.96-4.34 9.55-9.05 14.18-13.75l2.55-2.52c2.25-2.28 4.36-4.62 6.45-7.04a70 70 0 0 1 9-8.44l1.5-2.5c1.5-2.5 1.5-2.5 3.94-4.43 2.92-2.35 4.52-4.96 6.56-8.07h2l.19-1.7c1.15-3.26 3.33-4.93 5.8-7.3q1.54-1.98 3-4 2.25-2.63 4.5-5.22A115 115 0 0 0 280 548l1.62-2 1.58-2 1.6-2c1.2-2 1.2-2 1.2-6l-2.3-1.06c-9.14-4.63-17.65-10.44-24.7-17.94v-2c-1.67-1.53-3.45-2.88-5.26-4.27-2.1-2.1-2.76-3.94-3.73-6.73l-.96-2.3a119 119 0 0 1-5.38-16.24c-.66-2.46-.66-2.46-1.72-5.52a62 62 0 0 1-1.87-7.81 45 45 0 0 0-2.63-9.13 27 27 0 0 1-1.92-8.62c-.47-5.21-1.26-10.3-2.2-15.44l-.52-2.83c-1.98-10.56-4.57-20.96-7.13-31.4-2.05-8.4-3.9-16.66-4.46-25.31-.21-2.4-.21-2.4-.73-4.98-.62-3.15-.48-6.21-.48-9.42l-1-2c-.05-7.54.39-14.8 5-21 5.52-5.12 10.56-6.17 18-6 3.25.95 6.06 2.35 9 4a44 44 0 0 0 8.13 3.3c4.45 1.45 8.45 3.44 12.6 5.57A45 45 0 0 0 280 352l2.05.67c6.25 1.79 10.07.82 15.95-1.67 7.18-2.92 13.92-5.42 21.6-6.6 2.4-.4 2.4-.4 5.78-1.4 4.4-1.21 8.8-1.83 13.33-2.5 11.72-1.77 17.8-3.98 25.29-13.5l3-5 5-5q2.35-3.13 4.57-6.33C378 309 378 309 381 308a75 75 0 0 0 2-4c2.5-3.3 6.06-4.98 10-6 4.93-.17 9.16.87 13 4 6.15 6.95 8.8 14.33 11.68 23.04l2.26 6.84.76 2.3q1.82 5.55 3.89 11a81 81 0 0 1 3.04 10l.73 2.99q.89 3.9 1.64 7.83c18.65-8.24 18.65-8.24 26-12l3.57-1.77q7.1-3.57 14.12-7.3 1.24-.63 2.5-1.3A210 210 0 0 0 488 337l5.14-2.81q5.85-3.18 11.69-6.38c2.73-1.5 5.45-2.94 8.25-4.31 2.69-1.37 5.23-2.86 7.8-4.43 4.29-2.6 8.63-4.9 13.13-7.07l3.13-1.56q2.84-1.42 5.69-2.81 3.88-1.99 7.68-4.13c4.5-2.52 9.1-4.82 13.75-7.06C567 295 567 295 569 293l5-2q4.03-1.95 8-4l1.85-.91c4-2.02 7.92-4.2 11.86-6.33q4.62-2.45 9.29-4.76l2.88-1.43L625 265l2.8-1.41q4.64-2.27 9.33-4.4a381 381 0 0 0 16.12-7.9A72 72 0 0 1 662 248l3.25-1.42a67 67 0 0 1 8.82-3.07c2.97-.85 5.4-1.73 8.18-3.12 3-1.5 5.45-1.86 8.75-2.38q2.08-.66 4.13-1.37a150 150 0 0 1 14.1-3.94 119 119 0 0 0 6.2-1.75c4.43-1.16 8.87-1.82 13.39-2.47q3.2-.47 6.38-1.03c2.97-.46 5.8-.44 8.8-.44l1-1q3.36-.14 6.7-.13h20.91c2.94.12 5.53.47 8.39 1.13q2.34.24 4.69.44c5.2.49 10.22 1.45 15.3 2.56l2.4.5a128 128 0 0 1 16.74 4.63c5.55 1.69 8.73.75 13.8-1.94l3.04-1.58L840 230l3.26-1.58c2.74-1.42 2.74-1.42 4.68-3.35 2.06-2.07 2.06-2.07 5.38-3.82 6.56-3.6 10.8-10.24 15.14-16.17 2.26-3.03 4.64-5.96 7.03-8.9a30 30 0 0 0 3.5-7.18l1.83-3.56c3.14-6.2 5.69-12.66 8.25-19.12 2.17-5.36 5.03-10.33 7.93-15.32l1.32-2.31c2-3.21 4.29-6.16 6.62-9.12a140 140 0 0 0 7.16-9.78 24 24 0 0 1 5.4-5.91 63 63 0 0 0 5.63-5.07c2.13-2.05 4.32-3.31 6.87-4.81l5.44-3.43 2.9-1.86q3.06-1.96 6.04-4.02c2.52-1.62 4.8-2.7 7.62-3.7l2.57-.92c8.1-2.51 16-4.25 24.43-5.07 11.58-5.78 34.22.35 45.9 4.19" fill="#111311"/><path d="M1024.9 99.19a94 94 0 0 1 10.1 4.8l2 .95a60 60 0 0 1 12.05 7.6c1.95 1.46 1.95 1.46 4.39 2.85 2.92 1.84 5.05 3.94 7.44 6.42 3.36 3.44 6.73 6.7 10.46 9.74 9.92 8.62 18.56 19.94 22.66 32.45l1.69 3.07c1.49 3.33 1.84 6.17 2.1 9.78.2 2.15.2 2.15.75 4.22 1.29 5.39-.83 10.36-3.54 14.93-5.8 8.53-5.8 8.53-10 11-3.24.62-3.24.62-6.87.88l-3.62.3c-8.92-.45-15.75-7.94-21.51-14.18a120 120 0 0 1-3-5l-2.87-4.25c-2.1-3.11-3.98-6.25-5.75-9.56a30 30 0 0 0-6.38-8.2v-2c-.32-.13-.32-.13-1.93-.86C1031 163 1031 163 1030 161c-8.76-9.4-22.32-13.62-34.87-14.17l-4.13-.02-2.07-.03c-4.4-.01-7.85.66-11.93 2.22l-3.25.75c-7.76 2.59-14.05 7.16-19.96 12.74-1.8 1.5-1.8 1.5-3.9 2.47-2.43 1.34-2.78 2.5-3.9 5.04q-.77 1.29-1.58 2.6c-5.14 8.48-8.95 17.24-12.68 26.4-4.23 10.38-8.92 20.42-14.73 30q-.44.98-.87 2c-1.58 2.8-3.86 4.74-6.13 7a141 141 0 0 0-3 5l-5 5-2.37 2.44A99 99 0 0 1 892 257l-2.12 2.25c-5.47 5.23-11.63 9.85-18.5 13.06L868 274c-1 3-1 3 .19 5.69l1.8 3.3 1.95 3.89 1.02 2.04 4.1 8.2q1.28 2.55 2.6 5.08a44 44 0 0 1 2.84 7.68c.9 3.15 1.88 6.16 3.13 9.19 1.43 3.65 1.88 7.15 2.16 11.05.2 1.88.2 1.88 1.2 3.88q.32 3.13.5 6.25c.22 3.19.42 6.28 1.02 9.42.6 4.05.64 7.97.63 12.06v2.49l-.01 5.2v15.38A48 48 0 0 1 890 396a118 118 0 0 0 0 5.3c.04 3.9-.15 7.62-.71 11.48-.51 3.99-.74 8-1.04 12q-.32 4.09-.75 8.16c-.77 7.55-1.53 15.15-1.46 22.74-.04 3.32-.04 3.32-.53 5.28-.52 2.1-.64 3.9-.65 6.05l-.02 2.36v2.53l-.01 2.65-.01 5.56q0 4.19-.04 8.37c-.08 23.15-.08 23.15 4.22 33.52.38 2.32.38 2.32.57 4.57.24 2.92.68 5.6 1.43 8.43l1.5 6.78q.45 2.04.98 4.07a184 184 0 0 1 5.35 36.55c.13 2.69.34 5.29.66 7.96 1.62 14 1.63 28.2 1.69 42.29q0 2.27.03 4.55.03 3.22.02 6.45l.02 3.79A42 42 0 0 1 899 658l1.63.26c12.37 2.22 27.56 5.56 37.06 14.18 1.3 2.56 1.3 2.56 1.5 5.5-2.1 5.38-5.74 7.79-10.77 10.4-26.47 11.35-59.42 11.22-87.67 11.04l-3.94-.01c-33-.11-65.91-1.9-98.84-3.77-74.68-4.23-149.3-5.86-223.97-.6l-3.26.23q-11.02.76-22.05 1.65l-2.64.2-7.85.66-2.85.25q-8.72.79-17.41 1.9c-32.9 4.27-65.46 4.74-98.55 4.47q-10.74-.07-21.47-.11-21.96-.07-43.92-.25c2.55-2.65 5.1-4.37 8.29-6.23l3.26-1.91 1.73-1.01q4.6-2.68 9.18-5.38l1.9-1.12c6.37-3.76 12.67-7.64 18.96-11.54q11.75-7.29 23.68-14.31a1620 1620 0 0 0 37-22.5l2.77-1.72a1493 1493 0 0 0 36.67-23.84l2.19-1.46 6.24-4.17 1.87-1.24q4.54-3.03 8.9-6.3c2.7-1.92 4.89-3 8.2-3.57l2.69-.51 2.85-.5c12.9-2.55 25.2-6.41 37.62-10.7l2.86-.97c23.68-8.21 46.48-18.36 69.14-29.02l5.64-2.63a653 653 0 0 0 31.6-15.9l9.4-5.01a4179 4179 0 0 0 38.46-20.77l2.4-1.31q2.73-1.5 5.46-3.05l2.98-1.67 2.7-1.54C681 503 681 503 684 503l1 3.42c5.49 18.35 12.55 36.44 23 52.58l1.9 2.99c7.69 11.57 17.62 20.78 27.6 30.35 22.97 22.1 22.97 22.1 23.64 36.72.05 2.99.07 5.95-.14 8.94-1.62 1.63-3.7 1.4-5.93 1.69-6.98 1.24-13.13 3.8-17.77 9.34-4.34 6.68-5.1 13.08-4.3 20.97 2.1 4.8 4.85 7.09 9.52 9.12 16.54 5.86 38.07 6.98 54.24-.37 10.29-5.51 12.76-13.53 16.13-24.16 3.04-11.57 3.46-23.17 3.43-35.06q0-3.69.05-7.38A119 119 0 0 0 810 573c16.12 7.17 28.77 21.85 35 38 3.72 11 3.59 22.52 3 34-1.77 1.78-4.58 1.43-7 1.69-8.15 1.22-13.9 4.22-18.93 10.8-4.08 6.48-5.07 12.96-4.07 20.5 2.08 5.98 5.89 9.08 11.33 12 7.57 2.86 14.96 3.37 22.99 3.32l3.07-.01c7.2-.11 13.82-.71 20.6-3.3l2.26-.81c7.3-3.1 12-8.92 15.03-16.14 1.29-3.67 1.85-7.42 2.39-11.25l.38-2.65c1.25-9.3 1.37-18.48 1.27-27.84l-.04-5.36c-.32-36.35-4-71.95-13.4-107.2-1.75-7.46-2.04-14.93-2.08-22.58l-.02-2.83-.03-9.15V481c0-25.4 1.48-50.73 4.18-76 4.38-41.4 2.2-83.83-19.13-120.45a35 35 0 0 1-3.6-8.67c1.14-4.11 3.43-5.11 7-7.22l2.62-1.48 5.25-3.16 2.58-1.56c4.84-3.03 9.13-6.63 13.35-10.47l2.09-1.87c14.2-13.47 23.46-30.23 30.98-48.06q.37-.92.78-1.86l2.3-5.5c8.63-20.44 18.7-38.36 40.1-47.64q2.86-1.08 5.75-2.07l2.08-.74c13.64-4.18 28.78-.95 41.12 5.37A61 61 0 0 1 1035 162l1.6 1.7c5.44 5.94 9.37 12.52 13.42 19.44 5 8.35 11 18.2 20.98 20.86 5.26.72 9.5.67 14.38-1.5 4.62-4.4 8.4-9.8 8.79-16.32l.02-3.3.04-3.26c-.5-7.68-2.5-14.07-6.16-20.81l-1.2-2.21c-14.75-26.5-39.65-46.68-68.76-55.05A210 210 0 0 0 1012 100l-2.35-.56c-26.55-5.83-53.27 1.1-75.9 15.3-21.92 15.37-34.37 36.78-44.75 60.89-11.41 26.46-28.72 48.79-54.81 62-8.72 3.36-16.44.9-25.01-1.63a140 140 0 0 0-16.55-3.75l-2.1-.35c-57.94-9.06-114.17 11.1-165.21 36.94q-5.13 2.58-10.27 5.1l-11.4 5.68-5.82 2.89c-9.65 4.79-19.23 9.54-28.47 15.09a129 129 0 0 1-9.67 5.09 1155 1155 0 0 0-45.07 23.6q-12.92 7.06-25.92 13.99-8.88 4.72-17.7 9.54c-11.47 6.27-22.85 12.3-35 17.18l-2.73 1.17C431 369 431 369 428 369l-.6-2.04-2.71-9.33-.93-3.22c-5.77-19.77-5.77-19.77-8.76-27.41l-1.31-3.55C407.5 307 407.5 307 399.99 302a17 17 0 0 0-9 0c-3.81 2.53-6.85 5.68-10 9l-2.56 2.7a207 207 0 0 0-11.5 13.43l-1.98 2.45a111 111 0 0 0-3.74 4.9c-6.56 8.03-14.75 8.57-24.44 10.07a234 234 0 0 0-13.64 2.76l-2.74.62a224 224 0 0 0-23.07 6.84c-9.04 3.06-14.9 2.43-23.57-1.27l-2.61-1.08A940 940 0 0 1 263 349l-5.42-2.27-7.57-3.2-2.26-.96-1.98-.85A24.5 24.5 0 0 0 232 340a16.8 16.8 0 0 0-8 9c-3.67 25.29 3.46 53.64 10.37 77.85a119 119 0 0 1 3.13 15.53c3.97 27.19 10 62.05 32.5 80.02 7.2 5.33 14.75 9.16 23 12.6-1.7 3.93-4.3 7.12-6.93 10.44l-1.48 1.86a609 609 0 0 1-14.2 17.08q-2.11 2.47-4.21 4.97a540 540 0 0 1-14.91 17.14 178 178 0 0 0-3.66 4.15c-5.6 6.52-11.61 12.6-17.67 18.67l-1.68 1.69c-7.94 7.94-15.88 15.73-25.26 22l-1.65 1.12c-4.3 2.7-7.57 3.36-12.72 3.45-8.88.39-17.15 1.86-23.63 8.43a70 70 0 0 0-5 9l-1.11 1.93c-2.24 5.22-1.63 11.57-.05 16.9 3.23 7.26 7.38 10.28 14.6 13.13 13.64 4.42 25.84 2.47 38.39-3.88q5.65-2.93 11.17-6.08l-.65 1.58c-3.25 8.59-3.42 16.77-.35 25.42-3-1-3-1-4.75-4.37-1.84-5.25-1.07-10.23-.25-15.63l-2.16 1.24-2.9 1.64-2.85 1.6c-10.21 5-23.63 5.37-34.62 2.65-8.51-3.64-15.77-9.56-19.47-18.13-1.9-8.76.03-16.07 4-24 4.99-7.45 11.7-12.07 20.38-14.31 3.45-.68 6.56-.63 10.06-.44 9.3.18 16.03-6.28 22.56-12.25l3.82-3.25c4.96-4.34 9.55-9.05 14.18-13.75l2.55-2.52c2.25-2.28 4.36-4.62 6.45-7.04a70 70 0 0 1 9-8.44l1.5-2.5c1.5-2.5 1.5-2.5 3.94-4.43 2.92-2.35 4.52-4.96 6.56-8.07h2l.19-1.7c1.15-3.26 3.33-4.93 5.8-7.3q1.54-1.98 3-4 2.25-2.63 4.5-5.22A115 115 0 0 0 280 548l1.62-2 1.58-2 1.6-2c1.2-2 1.2-2 1.2-6l-2.3-1.06c-9.14-4.63-17.65-10.44-24.7-17.94v-2c-1.67-1.53-3.45-2.88-5.26-4.27-2.1-2.1-2.76-3.94-3.73-6.73l-.96-2.3a119 119 0 0 1-5.38-16.24c-.66-2.46-.66-2.46-1.72-5.52a62 62 0 0 1-1.87-7.81 45 45 0 0 0-2.63-9.13 27 27 0 0 1-1.92-8.62c-.47-5.21-1.26-10.3-2.2-15.44l-.52-2.83c-1.98-10.56-4.57-20.96-7.13-31.4-2.05-8.4-3.9-16.66-4.46-25.31-.21-2.4-.21-2.4-.73-4.98-.62-3.15-.48-6.21-.48-9.42l-1-2c-.05-7.54.39-14.8 5-21 5.52-5.12 10.56-6.17 18-6 3.25.95 6.06 2.35 9 4a44 44 0 0 0 8.13 3.3c4.45 1.45 8.45 3.44 12.6 5.57A45 45 0 0 0 280 352l2.05.67c6.25 1.79 10.07.82 15.95-1.67 7.18-2.92 13.92-5.42 21.6-6.6 2.4-.4 2.4-.4 5.78-1.4 4.4-1.21 8.8-1.83 13.33-2.5 11.72-1.77 17.8-3.98 25.29-13.5l3-5 5-5q2.35-3.13 4.57-6.33C378 309 378 309 381 308a75 75 0 0 0 2-4c2.5-3.3 6.06-4.98 10-6 4.93-.17 9.16.87 13 4 6.15 6.95 8.8 14.33 11.68 23.04l2.26 6.84.76 2.3q1.82 5.55 3.89 11a81 81 0 0 1 3.04 10l.73 2.99q.89 3.9 1.64 7.83c18.65-8.24 18.65-8.24 26-12l3.57-1.77q7.1-3.57 14.12-7.3 1.24-.63 2.5-1.3A210 210 0 0 0 488 337l5.14-2.81q5.85-3.18 11.69-6.38c2.73-1.5 5.45-2.94 8.25-4.31 2.69-1.37 5.23-2.86 7.8-4.43 4.29-2.6 8.63-4.9 13.13-7.07l3.13-1.56q2.84-1.42 5.69-2.81 3.88-1.99 7.68-4.13c4.5-2.52 9.1-4.82 13.75-7.06C567 295 567 295 569 293l5-2q4.03-1.95 8-4l1.85-.91c4-2.02 7.92-4.2 11.86-6.33q4.62-2.45 9.29-4.76l2.88-1.43L625 265l2.8-1.41q4.64-2.27 9.33-4.4a381 381 0 0 0 16.12-7.9A72 72 0 0 1 662 248l3.25-1.42a67 67 0 0 1 8.82-3.07c2.97-.85 5.4-1.73 8.18-3.12 3-1.5 5.45-1.86 8.75-2.38q2.08-.66 4.13-1.37a150 150 0 0 1 14.1-3.94 119 119 0 0 0 6.2-1.75c4.43-1.16 8.87-1.82 13.39-2.47q3.2-.47 6.38-1.03c2.97-.46 5.8-.44 8.8-.44l1-1q3.36-.14 6.7-.13h20.91c2.94.12 5.53.47 8.39 1.13q2.34.24 4.69.44c5.2.49 10.22 1.45 15.3 2.56l2.4.5a128 128 0 0 1 16.74 4.63c5.55 1.69 8.73.75 13.8-1.94l3.04-1.58L840 230l3.26-1.58c2.74-1.42 2.74-1.42 4.68-3.35 2.06-2.07 2.06-2.07 5.38-3.82 6.56-3.6 10.8-10.24 15.14-16.17 2.26-3.03 4.64-5.96 7.03-8.9a30 30 0 0 0 3.5-7.18l1.83-3.56c3.14-6.2 5.69-12.66 8.25-19.12 2.17-5.36 5.03-10.33 7.93-15.32l1.32-2.31c2-3.21 4.29-6.16 6.62-9.12a140 140 0 0 0 7.16-9.78 24 24 0 0 1 5.4-5.91 63 63 0 0 0 5.63-5.07c2.13-2.05 4.32-3.31 6.87-4.81l5.44-3.43 2.9-1.86q3.06-1.96 6.04-4.02c2.52-1.62 4.8-2.7 7.62-3.7l2.57-.92c8.1-2.51 16-4.25 24.43-5.07 11.58-5.78 34.22.35 45.9 4.19" fill="#B8BAB8"/><path d="m684 503 1 3.42c5.49 18.35 12.55 36.43 23 52.58l1.91 2.98c7.68 11.58 17.61 20.79 27.58 30.36 22.98 22.1 22.98 22.1 23.65 36.71.04 3 .06 5.96-.14 8.95-2.04 2.04-5.98 1.75-8.75 2.11-3.09.85-4.64 1.77-7.25 3.51-5.65 3.24-10.71 2.61-17.03 1.96-3.66-.37-7.34-.62-11.02-.89l-2.41-.19c-9.78-.71-19.56-.94-29.35-1.12l-2.98-.06C619.12 642.17 555.89 642.3 493 648l-2.54.23a1889 1889 0 0 0-93.1 10.89q-7.77 1.09-15.55 2c-5.01.61-9.89 1.42-14.79 2.61-2.28.31-3.82-.12-6.02-.73a2186 2186 0 0 1 31.94-19.94c16.6-10.19 32.84-20.89 49.06-31.68l2.02-1.35 5.73-3.82 1.73-1.15a92 92 0 0 0 6.63-4.75c2.18-1.51 3.83-1.94 6.43-2.42l2.72-.52 2.93-.56c12.94-2.63 25.33-6.51 37.81-10.81l2.86-.98c23.68-8.21 46.47-18.36 69.14-29.02l5.64-2.63a661 661 0 0 0 31.6-15.89l9.4-5.02a4072 4072 0 0 0 38.46-20.78l2.39-1.3 5.47-3.05 2.97-1.67 2.72-1.54C681 503 681 503 684 503" fill="#ECEEEC"/><path d="M1024.9 99.19a94 94 0 0 1 10.1 4.8l2 .95a60 60 0 0 1 12.05 7.6c1.95 1.46 1.95 1.46 4.39 2.85 2.92 1.84 5.05 3.94 7.44 6.42 3.36 3.44 6.73 6.7 10.46 9.74 9.92 8.62 18.56 19.94 22.66 32.45l1.69 3.07c1.49 3.33 1.84 6.17 2.1 9.78.2 2.15.2 2.15.75 4.22 1.29 5.39-.83 10.36-3.54 14.93-5.8 8.53-5.8 8.53-10 11-3.24.62-3.24.62-6.87.88l-3.62.3c-8.92-.45-15.75-7.94-21.51-14.18a120 120 0 0 1-3-5l-2.87-4.25c-2.1-3.11-3.98-6.25-5.75-9.56a30 30 0 0 0-6.38-8.2v-2c-.32-.13-.32-.13-1.93-.86C1031 163 1031 163 1030 161c-8.76-9.4-22.32-13.62-34.87-14.17l-4.13-.02-2.07-.03c-4.4-.01-7.85.66-11.93 2.22l-3.25.75c-7.76 2.59-14.05 7.16-19.96 12.74-1.8 1.5-1.8 1.5-3.9 2.47-2.43 1.34-2.78 2.5-3.9 5.04q-.77 1.29-1.58 2.6c-5.14 8.48-8.95 17.24-12.68 26.4-4.23 10.38-8.92 20.42-14.73 30q-.44.98-.87 2c-1.58 2.8-3.86 4.74-6.13 7a141 141 0 0 0-3 5l-5 5-2.37 2.44A99 99 0 0 1 892 257l-2.12 2.25c-5.47 5.23-11.63 9.85-18.5 13.06L868 274c-1 3-1 3 .19 5.69l1.8 3.3 1.95 3.89 1.02 2.04 4.1 8.2q1.28 2.55 2.6 5.08a44 44 0 0 1 2.84 7.68c.9 3.15 1.88 6.16 3.13 9.19 1.43 3.65 1.88 7.15 2.16 11.05.2 1.88.2 1.88 1.2 3.88q.32 3.13.5 6.25c.22 3.19.42 6.28 1.02 9.42.6 4.05.64 7.97.63 12.06v2.49l-.01 5.2v15.38A48 48 0 0 1 890 396a118 118 0 0 0 0 5.3c.04 3.9-.15 7.62-.71 11.48-.51 3.99-.74 8-1.04 12q-.32 4.09-.75 8.16c-.77 7.55-1.53 15.15-1.46 22.74-.04 3.32-.04 3.32-.53 5.28-.52 2.1-.64 3.9-.65 6.05l-.02 2.36v2.53l-.01 2.65-.01 5.56q0 4.19-.04 8.37c-.08 23.15-.08 23.15 4.22 33.52.38 2.32.38 2.32.57 4.57.24 2.92.68 5.6 1.43 8.43l1.5 6.78q.45 2.04.98 4.07a184 184 0 0 1 5.35 36.55c.13 2.69.34 5.29.66 7.96 1.62 14 1.63 28.2 1.69 42.29q0 2.27.03 4.55.03 3.22.02 6.45l.02 3.79A42 42 0 0 1 899 658l1.63.26c12.37 2.22 27.56 5.56 37.06 14.18 1.3 2.56 1.3 2.56 1.5 5.5-2.1 5.38-5.74 7.79-10.77 10.4-26.47 11.35-59.42 11.22-87.67 11.04l-3.94-.01c-33-.11-65.91-1.9-98.84-3.77-74.68-4.23-149.3-5.86-223.97-.6l-3.26.23c-19.6 1.37-39.16 3.03-58.7 5.14l-3.23.35q-7.64.83-15.27 1.7c-10.24 1.17-20.22 1.9-30.54 1.58v-1l1.9-.18 2.48-.25q1.2-.14 2.46-.25C412 702 412 702 414 701q4.31-.6 8.62-1.05l2.7-.3 9-.96 3.14-.33q24.96-2.62 49.98-4.48l2.97-.23q9.69-.72 19.38-1.36 4.59-.3 9.18-.66c31.47-2.34 62.75-3.07 94.3-2.95h14.02c25.14-.02 50.16.38 75.24 2.09q6.9.44 13.8.76l4.26.2 6.62.32q15.6.74 31.16 1.75c100.39 6.42 100.39 6.42 144.63-1.8l3.92-.72c23.64-4.51 23.64-4.51 29.08-12.28.82-2.81.82-2.81 1-5l-1.8-.88q-2.77-1.42-5.51-2.93c-10.3-5.13-21.53-7.71-32.7-10.2l.03-1.66c.36-47.51-.8-93.32-13.13-139.57-1.76-7.47-2.05-14.94-2.1-22.6l-.01-2.82-.03-9.15V481c0-25.4 1.48-50.73 4.18-76 4.38-41.4 2.2-83.83-19.13-120.45a35 35 0 0 1-3.6-8.67c1.14-4.11 3.43-5.11 7-7.22l2.62-1.48 5.25-3.16 2.58-1.56c4.84-3.03 9.13-6.63 13.35-10.47l2.09-1.87c14.2-13.47 23.46-30.23 30.98-48.06q.37-.92.78-1.86l2.3-5.5c8.63-20.44 18.7-38.36 40.1-47.64q2.86-1.08 5.75-2.07l2.08-.74c13.64-4.18 28.78-.95 41.12 5.37A61 61 0 0 1 1035 162l1.6 1.7c5.44 5.94 9.37 12.52 13.42 19.44 5 8.35 11 18.2 20.98 20.86 5.26.72 9.5.67 14.38-1.5 4.62-4.4 8.4-9.8 8.79-16.32l.02-3.3.04-3.26c-.5-7.68-2.5-14.07-6.16-20.81l-1.2-2.21c-14.75-26.5-39.65-46.68-68.76-55.05A210 210 0 0 0 1012 100l-2.35-.56c-26.55-5.83-53.27 1.1-75.9 15.3-21.92 15.37-34.37 36.78-44.75 60.89-11.41 26.46-28.72 48.79-54.81 62-8.72 3.36-16.44.9-25.01-1.63a140 140 0 0 0-16.55-3.75l-2.1-.35c-57.94-9.06-114.17 11.1-165.21 36.94q-5.13 2.58-10.27 5.1l-11.4 5.68-5.82 2.89c-9.65 4.79-19.23 9.54-28.47 15.09a129 129 0 0 1-9.67 5.09 1155 1155 0 0 0-45.07 23.6q-12.92 7.06-25.92 13.99-8.88 4.72-17.7 9.54c-11.47 6.27-22.85 12.3-35 17.18l-2.73 1.17C431 369 431 369 428 369l-.6-2.04-2.71-9.33-.93-3.22c-5.77-19.77-5.77-19.77-8.76-27.41l-1.31-3.55C407.5 307 407.5 307 399.99 302a17 17 0 0 0-9 0c-3.81 2.53-6.85 5.68-10 9l-2.56 2.7a207 207 0 0 0-11.5 13.43l-1.98 2.45a111 111 0 0 0-3.74 4.9c-6.56 8.03-14.75 8.57-24.44 10.07a234 234 0 0 0-13.64 2.76l-2.74.62a224 224 0 0 0-23.07 6.84c-9.04 3.06-14.9 2.43-23.57-1.27l-2.61-1.08A940 940 0 0 1 263 349l-5.42-2.27-7.57-3.2-2.26-.96-1.98-.85A24.5 24.5 0 0 0 232 340a16.8 16.8 0 0 0-8 9c-3.67 25.29 3.46 53.64 10.37 77.85a119 119 0 0 1 3.13 15.53c3.97 27.19 10 62.05 32.5 80.02 7.2 5.33 14.75 9.16 23 12.6-1.7 3.93-4.3 7.12-6.93 10.44l-1.48 1.86a609 609 0 0 1-14.2 17.08q-2.11 2.47-4.21 4.97a540 540 0 0 1-14.91 17.14 178 178 0 0 0-3.66 4.15c-5.6 6.52-11.61 12.6-17.67 18.67l-1.68 1.69c-7.94 7.94-15.88 15.73-25.26 22l-1.65 1.12c-4.3 2.7-7.57 3.36-12.72 3.45-8.88.39-17.15 1.86-23.63 8.43a70 70 0 0 0-5 9l-1.11 1.93c-2.24 5.22-1.63 11.57-.05 16.9 3.23 7.26 7.38 10.28 14.6 13.13 13.64 4.42 25.84 2.47 38.39-3.88q5.65-2.93 11.17-6.08l-.65 1.58c-3.25 8.59-3.42 16.77-.35 25.42-3-1-3-1-4.75-4.37-1.84-5.25-1.07-10.23-.25-15.63l-2.16 1.24-2.9 1.64-2.85 1.6c-10.21 5-23.63 5.37-34.62 2.65-8.51-3.64-15.77-9.56-19.47-18.13-1.9-8.76.03-16.07 4-24 4.99-7.45 11.7-12.07 20.38-14.31 3.45-.68 6.56-.63 10.06-.44 9.3.18 16.03-6.28 22.56-12.25l3.82-3.25c4.96-4.34 9.55-9.05 14.18-13.75l2.55-2.52c2.25-2.28 4.36-4.62 6.45-7.04a70 70 0 0 1 9-8.44l1.5-2.5c1.5-2.5 1.5-2.5 3.94-4.43 2.92-2.35 4.52-4.96 6.56-8.07h2l.19-1.7c1.15-3.26 3.33-4.93 5.8-7.3q1.54-1.98 3-4 2.25-2.63 4.5-5.22A115 115 0 0 0 280 548l1.62-2 1.58-2 1.6-2c1.2-2 1.2-2 1.2-6l-2.3-1.06c-9.14-4.63-17.65-10.44-24.7-17.94v-2c-1.67-1.53-3.45-2.88-5.26-4.27-2.1-2.1-2.76-3.94-3.73-6.73l-.96-2.3a119 119 0 0 1-5.38-16.24c-.66-2.46-.66-2.46-1.72-5.52a62 62 0 0 1-1.87-7.81 45 45 0 0 0-2.63-9.13 27 27 0 0 1-1.92-8.62c-.47-5.21-1.26-10.3-2.2-15.44l-.52-2.83c-1.98-10.56-4.57-20.96-7.13-31.4-2.05-8.4-3.9-16.66-4.46-25.31-.21-2.4-.21-2.4-.73-4.98-.62-3.15-.48-6.21-.48-9.42l-1-2c-.05-7.54.39-14.8 5-21 5.52-5.12 10.56-6.17 18-6 3.25.95 6.06 2.35 9 4a44 44 0 0 0 8.13 3.3c4.45 1.45 8.45 3.44 12.6 5.57A45 45 0 0 0 280 352l2.05.67c6.25 1.79 10.07.82 15.95-1.67 7.18-2.92 13.92-5.42 21.6-6.6 2.4-.4 2.4-.4 5.78-1.4 4.4-1.21 8.8-1.83 13.33-2.5 11.72-1.77 17.8-3.98 25.29-13.5l3-5 5-5q2.35-3.13 4.57-6.33C378 309 378 309 381 308a75 75 0 0 0 2-4c2.5-3.3 6.06-4.98 10-6 4.93-.17 9.16.87 13 4 6.15 6.95 8.8 14.33 11.68 23.04l2.26 6.84.76 2.3q1.82 5.55 3.89 11a81 81 0 0 1 3.04 10l.73 2.99q.89 3.9 1.64 7.83c18.65-8.24 18.65-8.24 26-12l3.57-1.77q7.1-3.57 14.12-7.3 1.24-.63 2.5-1.3A210 210 0 0 0 488 337l5.14-2.81q5.85-3.18 11.69-6.38c2.73-1.5 5.45-2.94 8.25-4.31 2.69-1.37 5.23-2.86 7.8-4.43 4.29-2.6 8.63-4.9 13.13-7.07l3.13-1.56q2.84-1.42 5.69-2.81 3.88-1.99 7.68-4.13c4.5-2.52 9.1-4.82 13.75-7.06C567 295 567 295 569 293l5-2q4.03-1.95 8-4l1.85-.91c4-2.02 7.92-4.2 11.86-6.33q4.62-2.45 9.29-4.76l2.88-1.43L625 265l2.8-1.41q4.64-2.27 9.33-4.4a381 381 0 0 0 16.12-7.9A72 72 0 0 1 662 248l3.25-1.42a67 67 0 0 1 8.82-3.07c2.97-.85 5.4-1.73 8.18-3.12 3-1.5 5.45-1.86 8.75-2.38q2.08-.66 4.13-1.37a150 150 0 0 1 14.1-3.94 119 119 0 0 0 6.2-1.75c4.43-1.16 8.87-1.82 13.39-2.47q3.2-.47 6.38-1.03c2.97-.46 5.8-.44 8.8-.44l1-1q3.36-.14 6.7-.13h20.91c2.94.12 5.53.47 8.39 1.13q2.34.24 4.69.44c5.2.49 10.22 1.45 15.3 2.56l2.4.5a128 128 0 0 1 16.74 4.63c5.55 1.69 8.73.75 13.8-1.94l3.04-1.58L840 230l3.26-1.58c2.74-1.42 2.74-1.42 4.68-3.35 2.06-2.07 2.06-2.07 5.38-3.82 6.56-3.6 10.8-10.24 15.14-16.17 2.26-3.03 4.64-5.96 7.03-8.9a30 30 0 0 0 3.5-7.18l1.83-3.56c3.14-6.2 5.69-12.66 8.25-19.12 2.17-5.36 5.03-10.33 7.93-15.32l1.32-2.31c2-3.21 4.29-6.16 6.62-9.12a140 140 0 0 0 7.16-9.78 24 24 0 0 1 5.4-5.91 63 63 0 0 0 5.63-5.07c2.13-2.05 4.32-3.31 6.87-4.81l5.44-3.43 2.9-1.86q3.06-1.96 6.04-4.02c2.52-1.62 4.8-2.7 7.62-3.7l2.57-.92c8.1-2.51 16-4.25 24.43-5.07 11.58-5.78 34.22.35 45.9 4.19" fill="#E8E8E9"/><path d="M255.84 350.39c8.46 4.43 16.53 9.69 23.16 16.6a834 834 0 0 1-8.44 8.39l-3.68 3.62-1.88 1.83a47 47 0 0 0-8 10.17h-2l-.75 2.57C253 397 253 397 251.19 399.94c-4.76 7.98-7.17 18.07-9.2 27.06-4.61-2.55-5.41-6.28-7-11l-1-2h-2l-1-6-2 2-2.55-14.08-.87-4.8q-.64-3.45-1.25-6.9l-.4-2.13a62 62 0 0 1-.92-14.1q1.46-2.02 3-4c.64-3.81.95-7.6 1.28-11.46.8-3.9 1.59-5.17 4.72-7.53 8.78-2.92 16.05 1.58 23.84 5.39" fill="#262826"/><path d="M405.06 305.7c6.92 4.65 9.34 16.96 11.77 24.66.82 2.56 1.69 5.04 2.65 7.55 1.6 4.24 2.94 8.55 4.2 12.9l.69 2.28c.9 3.06 1.63 5.7 1.63 8.9h-3l1 3.58c1 3.94 1.17 7.39 1 11.43h-2a228 228 0 0 1-3-5l-2-1v-2l-1.56-.68c-2.44-1.32-2.44-1.32-5.25-3.5-12.08-8.74-26.2-12.2-40.7-14.4C368 350 368 350 365 349c-.11-2.37-.11-2.37 0-5l2-2q.9-2.28 1.64-4.62l.79-2.48.58-1.9h2l.66-2.5c1.67-4.35 4.06-7.66 6.84-11.37q.75-1.03 1.5-2.1a138 138 0 0 1 4-5.03h2l.63-1.81c3.68-5.85 11.28-6.57 17.43-4.5" fill="#252623"/><path d="M810 573c16.12 7.16 28.76 21.85 35 38 3.71 11 3.59 22.52 3 34-1.79 1.79-4.63 1.47-7.06 1.75-4.43.62-7.48 1.24-11.06 3.94-4.2 3.07-7.78 2.43-12.76 1.7L815 652l-.06-4.06-.04-2.29c.1-2.65.1-2.65.59-5.79.55-4.14.69-8.15.71-12.33l.02-2.42.02-5.05q.02-3.79.07-7.58A119 119 0 0 0 810 573" fill="#EBECEB"/><path d="m366.31 562.25 1.7.75a146 146 0 0 1-16.74 17.25c-4.17 3.63-8.2 7.39-12.2 11.19l-4.48 4.22L330 600c-11.84 11.19-23.7 22.33-36 33l-3.27 2.86a800 800 0 0 1-20.36 17.27l-2 1.64A269 269 0 0 1 263 659l-2.35 1.82c-4.06 1.8-8.07 1.75-12.46 1.87l-2.68.1-6.5.21a77 77 0 0 1 9.61-8.37l3.5-2.67 1.9-1.44q5.38-4.13 10.73-8.33 7.9-6.18 15.91-12.24a432 432 0 0 0 20.44-16.48c3.3-2.81 6.66-5.5 10.05-8.19q5.58-4.5 11.1-9.09a657 657 0 0 1 15.94-12.82 423 423 0 0 0 17.75-14.74l1.57-1.35q2.1-1.82 4.14-3.69c2.35-1.59 2.35-1.59 4.66-1.34" fill="#ECEBEE"/><path d="M222 355h1l-.03 3.26c.27 22.92 5.11 46.58 11.4 68.58a119 119 0 0 1 3.13 15.54c3.96 27.18 10 62.05 32.51 80.02 7.19 5.33 14.74 9.16 22.99 12.6-1.7 3.93-4.29 7.12-6.94 10.44l-1.47 1.86a627 627 0 0 1-14.21 17.08l-4.2 4.97a579 579 0 0 1-14.91 17.14 181 181 0 0 0-3.67 4.15c-5.58 6.52-11.6 12.6-17.66 18.67l-1.68 1.69c-7.95 7.94-15.88 15.73-25.26 22l-1.66 1.12c-4.28 2.71-7.56 3.36-12.72 3.44-8.87.4-17.14 1.87-23.62 8.44a70 70 0 0 0-5 9l-1.11 1.93c-2.24 5.21-1.63 11.57-.05 16.9 3.23 7.25 7.38 10.28 14.59 13.13 13.64 4.42 25.84 2.47 38.4-3.88q5.65-2.93 11.17-6.08l-.66 1.58c-3.24 8.58-3.42 16.77-.34 25.42-3-1-3-1-4.75-4.38-1.84-5.24-1.07-10.22-.25-15.62l-2.16 1.24-2.9 1.64-2.85 1.61c-10.22 4.99-23.64 5.36-34.63 2.63-8.5-3.63-15.77-9.55-19.46-18.12-1.9-8.76.02-16.07 4-24 4.98-7.46 11.71-12.07 20.38-14.31 3.44-.68 6.56-.63 10.06-.44 9.3.18 16.03-6.29 22.56-12.25l3.81-3.25c4.97-4.35 9.56-9.05 14.19-13.75l2.55-2.52c2.25-2.28 4.36-4.62 6.45-7.04 2.8-3.2 5.68-5.79 9-8.44l1.5-2.5c1.5-2.5 1.5-2.5 3.94-4.44 2.92-2.35 4.51-4.95 6.56-8.06h2l.19-1.69c1.15-3.27 3.32-4.94 5.81-7.31q1.51-1.99 3-4 2.24-2.62 4.5-5.22A115 115 0 0 0 280 548l1.61-2 1.58-2 1.6-2c1.21-2 1.21-2 1.21-6l-2.31-1.06c-9.15-4.63-17.65-10.44-24.69-17.94v-2c-1.68-1.53-3.47-2.88-5.27-4.27-2.1-2.1-2.77-3.94-3.73-6.73l-.96-2.29a120 120 0 0 1-5.39-16.25c-.65-2.46-.65-2.46-1.71-5.52a62 62 0 0 1-1.88-7.82c-.6-3.22-1.36-6.1-2.62-9.12a27 27 0 0 1-1.92-8.62c-.47-5.21-1.27-10.3-2.21-15.44l-.51-2.83c-1.99-10.56-4.58-20.97-7.14-31.4-2.05-8.39-3.89-16.66-4.45-25.31-.21-2.4-.21-2.4-.79-4.66-.6-3.95-.01-7.61.52-11.55l.3-2.39z" fill="#E6E7E7"/><path d="m285 471 2.31.56c3.22.38 5.69.33 8.88 0 18.61-1.92 18.61-1.92 25.81 1.44a18 18 0 0 1 2 4l2-2c4.02 4.39 4.02 4.39 3.93 7.01-2 4.28-7.75 5.43-11.93 6.99-10.15 3.4-22.2 3.52-32-1a57 57 0 0 1-10-8c.12-2.02.12-2.02 1-4 1.85-1.05 1.85-1.05 4.06-1.75l2.23-.73L285 473z" fill="#151615"/><path d="m615.36 688.8 18.6.05q18.01.04 36.04.15v1a2680 2680 0 0 1-14.68.5q-16.2.51-32.43.68c-57.09.67-114.06 3.06-170.85 9.18l-3.23.35q-7.65.82-15.28 1.71c-10.24 1.17-20.22 1.9-30.53 1.58v-1l1.9-.19 2.47-.25 2.47-.25c2.16-.3 2.16-.3 4.16-1.3q4.3-.6 8.61-1.06l2.72-.3 8.98-.97 3.15-.33a1638 1638 0 0 1 49.98-4.48l2.97-.22q9.69-.73 19.4-1.36 4.55-.3 9.12-.66c32.18-2.44 64.17-3.02 96.43-2.84" fill="#E4E7E4"/><path d="M411 450c-1.06 3.28-2.62 4.57-5.5 6.25C402 458 402 458 400 458v2l-2.52 1.24-3.29 1.64-3.27 1.61C388 466 388 466 385 468h-3v2q-3.62 1.8-7.25 3.56l-2.07 1.04c-3.7 1.78-5.76 2.71-9.68 1.4-.3-3.45-.41-5.38 1.55-8.31 9.72-9.39 31.94-24.95 46.45-17.69" fill="#131614"/><path d="M222 355h1l-.03 3.26c.27 22.92 5.11 46.58 11.4 68.58a119 119 0 0 1 3.13 15.54c2.19 15.1 6.04 29.76 10.62 44.31l.74 2.38.67 2.09C250 493 250 493 250 496h-2a124 124 0 0 1-8-24l-1.56-6.38-.75-3.01c-.69-2.61-.69-2.61-1.81-5.73a32 32 0 0 1-1.32-7.19c-1.35-15.26-5.26-30.06-8.88-44.9-2.05-8.42-3.91-16.71-4.47-25.39-.21-2.4-.21-2.4-.79-4.66-.6-3.95-.01-7.61.52-11.55l.3-2.39z" fill="#DADBDC"/><path d="m166 641 4 1-2.19 1.44c-3.69 3.36-5.59 7.14-7.81 11.56l-1.12 1.93c-2.22 5.22-1.62 11.57-.04 16.9 3.23 7.25 7.38 10.28 14.59 13.13 13.64 4.42 25.84 2.47 38.4-3.88q5.64-2.93 11.17-6.08l-.66 1.58c-3.24 8.58-3.42 16.77-.34 25.42-3-1-3-1-4.75-4.38-1.84-5.24-1.07-10.22-.25-15.62l-2.16 1.24a489 489 0 0 0-5.75 3.25c-10.22 4.99-23.64 5.36-34.63 2.63-8.5-3.63-15.77-9.55-19.46-18.12-1.89-8.72-.03-16.13 4-24a77 77 0 0 1 7-8" fill="#E4E6E4"/><path d="m351.44 485.75 2.93-.08c2.63.33 2.63.33 4.49 1.69 1.14 1.64 1.14 1.64 1.02 4.08-.88 2.56-.88 2.56-2.38 4.43-2.05 2.91-2.1 5.64-2.5 9.13-1 1-1 1-3.87 1.37L348 506c-1.5-2.25-1.5-2.25-3-5l-3.18-1.94C339 497 339 497 338.32 494c.89-3.89 2.38-4.88 5.68-7 2.58-1.29 4.56-1.2 7.44-1.25" fill="#666664"/><path d="M241 339c3.56 1 3.56 1 6 2l-2 5-2.01-.32c-7.29-.99-7.29-.99-11.05.7-3.55 2.97-3.42 5.66-3.94 10.12-.86 7.36-.86 7.36-2 8.5q-.34 2.52-.56 5.06l-.26 2.79L225 375h-1a107 107 0 0 1-1.31-16.56l-.09-2.5c-.07-6.8 1.96-10.29 6.59-15.32 3.97-2.29 7.32-2.17 11.81-1.62" fill="#171719"/><path d="M358 333h2a18.6 18.6 0 0 1-6 8c-2.9.97-5.86 1.44-8.88 1.94l-5.43 1.01-2.85.52a299 299 0 0 0-42.51 11.17l-2.32.8C290 357 290 357 287 357l1-3a67 67 0 0 1 6.94-2.5l2.06-.65q3-.94 6-1.85l2.9-.92c4.64-1.44 9.28-2.62 14.03-3.62 1.8-.4 3.56-.92 5.32-1.46 4.45-1.19 8.9-1.83 13.46-2.5 13.9-2.1 13.9-2.1 18.29-5.5z" fill="#ECECEE"/><path d="m289 473 .48 1.76c1.65 5.51 3.33 9.24 7.52 13.24 3.31 1.38 3.31 1.38 6 2v1c-9.04.59-16.36-1.93-23.41-7.6A82 82 0 0 1 276 480c.07-2.02.07-2.02 1-4 2.21-1.05 2.21-1.05 4.94-1.75l2.71-.73C287 473 287 473 289 473" fill="#DABD69"/><path d="M376 460a30 30 0 0 1 2.56 3.88l1.32 2.17Q380.99 468 382 470q-3.62 1.8-7.25 3.56l-2.07 1.04c-3.7 1.78-5.76 2.71-9.68 1.4-.38-3.76-.42-5.45 1.9-8.52l2.48-2.29 2.46-2.33c3.33-2.86 3.33-2.86 6.16-2.86" fill="#E2C475"/><path d="M888 345c2.69 2.57 3.23 4.64 3.36 8.23q0 2.58-.03 5.17l-.01 2.77q0 2.9-.04 5.8-.04 4.42-.05 8.86 0 2.82-.03 5.63l-.01 2.67c-.05 4.1-.24 7.86-1.19 11.87q-.06 2.81 0 5.62c.07 3.24.03 5.29-1 8.38h-2c-.08-14.22.18-28.41.5-42.62l.14-6.55z" fill="#E7E9E8"/><path d="m935 111 2 2-1.77 1.14C917.78 125.86 905.18 141.13 896 160c-1.25-1.56-1.25-1.56-2-4 2.95-6.4 7.49-11.82 11.84-17.33 4.97-6.33 4.97-6.33 6.66-9.36 1.87-2.88 4.15-4.73 6.8-6.9 1.7-1.41 1.7-1.41 3.82-3.6 2.13-2.05 4.3-3.36 6.88-4.81l2.81-1.69z" fill="#E3E4E4"/><path d="M886 401h1a87 87 0 0 1 1 27l-.5 4.94-.25 2.39A228 228 0 0 0 886 459l-2 1c-1.82-13.67-.64-27.08.5-40.75l.43-5.33z" fill="#E7E7E9"/><path d="M898 600c5.21 5.21 3.12 17.65 3.14 24.74l-.01 5.11q-.01 3.92.01 7.83l-.01 5 .01 2.36c-.02 3.49-.2 6.6-1.14 9.96h-2z" fill="#F1F3F3"/><path d="M883 451h1c1.4 11.71 1.11 23.48 1.06 35.25l-.01 6.34L885 508l-2 1a21 21 0 0 1-1.13-7.64l-.01-2.84.01-3.07-.01-3.16.01-6.64-.01-10.12.01-6.45-.01-3.05c.02-5.12.26-9.98 1.14-15.03" fill="#F1F1F3"/><path d="M1017 97a84 84 0 0 1 18 7l1.99.93a63 63 0 0 1 12.19 7.69c1.82 1.38 1.82 1.38 4.57 3A26 26 0 0 1 1060 121v2c-3.63-1.64-6.66-3.86-9.88-6.19-11.93-8.38-24.13-13.13-38.12-16.81l1.94-.94C1016 98 1016 98 1017 97" fill="#DEE0DF"/><path d="m214 621 2 1c-10.14 9.71-17.07 15.41-31.43 15.79-3.98.23-7.09 1.15-10.76 2.58-2.32.81-4.38.87-6.81.63 6.44-5.19 13.34-7.29 21.56-6.88 9.37.32 15.42-4.83 22.06-10.92C212 622 212 622 214 621" fill="#E1E3E3"/><path d="M398 300v1l-2.88-.06c-12.03 1.77-23.52 20.05-30.43 29.06-1.69 2-1.69 2-4.69 4 0-3 0-3 1.81-4.88L364 327l1.44-2.44c1.83-3 4.07-5.07 6.56-7.56q2.35-3.12 4.57-6.33C378 309 378 309 381 308a88 88 0 0 0 2-4c4.22-5.22 8.73-5.23 15-4" fill="#E2E4E3"/><path d="m495 578 2 1-7.69 5.88-2.18 1.68c-3.58 2.71-6.79 5.09-11.13 6.44v3c-3.47 1.16-6.36 1.07-10 1 4.08-4.59 8.54-7.21 13.94-10.06A151 151 0 0 0 495 578" fill="#010302"/><path d="m252 652 4 2v8l-17 1a84 84 0 0 1 8.75-7.75l2.42-1.86z" fill="#E6E9E6"/><path d="M226 399c2.24 3.36 2.94 6.1 3.94 10l1.04 4.07.52 2.03c.68 2.59 1.48 5.15 2.25 7.71 1.42 5.12 1.56 9.91 1.25 15.19h-2l-.52-2.46c-2.26-10.7-2.26-10.7-3.57-15.97l-.55-2.24-1.09-4.29A49 49 0 0 1 226 399" fill="#DDE2DE"/><path d="M752.1 225.6h2.05l4.28.01q3.3.01 6.57-.02l4.16.01 3.83.01 3.01.4 2 3h-37c4.48-3.38 5.7-3.4 11.1-3.4" fill="#F4F4F6"/><path d="m235.5 336.81 2.41-.04C240 337 240 337 242 339l-1.98.04c-6.41.35-9.61 1.22-14.02 5.96-2.34 3.62-2.64 7.56-3.12 11.75A396 396 0 0 0 222 364h-3c.45-16.02.45-16.02 5-22 3.82-3.55 6.32-5.15 11.5-5.19" fill="#EBECEC"/><path d="m970 151-1.91 1.07a74 74 0 0 0-14.3 10.41c-1.84 1.56-3.65 2.46-5.79 3.52-1 1.81-1 1.81-2 4a175 175 0 0 1-4 5c1.08-8.32 7.89-14.32 14.06-19.5 9.09-6.93 9.09-6.93 13.94-4.5" fill="#DBDCDB"/><path d="M225 376c2.65 1.33 3.3 3.08 4.39 5.76 1.22 4.48.91 9.07.8 13.68l-.04 3.08q-.06 3.74-.15 7.48c-2.96-2.96-3-6.51-3.62-10.5l-.4-2.46A83 83 0 0 1 225 376" fill="#131414"/><path d="M302.31 468.81h2.44q6.11.04 12.23.51l2.2.17C321 470 321 470 323 473l-1.8-.22c-9.7-1.09-18.99-.95-28.67.2C290 473 290 473 287 471c5.23-2.14 9.77-2.27 15.31-2.19" fill="#020303"/><path d="m222 677 1 2-1.44 2.94c-3.2 7.03-2.08 14.98.44 22.06-3-1-3-1-4.75-4.31-1.95-5.57-.96-10.95-.25-16.69v-3c2.5-1.69 2.5-1.69 5-3" fill="#D5D5D7"/><path d="M846.66 693.6H850l3.49.02 3.5-.03 3.35.01 3.07.01c2.58.4 2.58.4 5.58 3.4h-31c3.46-3.47 4-3.39 8.66-3.4" fill="#BFC2BF"/><path d="m626.69 265.38 2.3.62c-2.75 2.76-6.08 4.18-9.55 5.88l-2.18 1.07A314 314 0 0 1 602 280c2.6-5.75 7.53-7.31 13-10 9.94-4.87 9.94-4.87 11.69-4.62" fill="#DEDEE0"/><path d="m883 322 4 1 .18 1.9.26 2.48.24 2.46C888 332 888 332 889 334c.42 7.03-.15 14.02-1 21h-1l-.15-1.84c-1.86-22.33-1.86-22.33-3.85-31.16" fill="#DCDDDF"/><path d="M1095 179h3c1.74 4.84.68 9.37-1.25 14-4.45 7.63-4.45 7.63-6.75 10h-3a131 131 0 0 1 3.25-6.23A36 36 0 0 0 1095 179" fill="#DBDADD"/><path d="M575 290c2 1 2 1 3 3l-21 11-1-3 3.75-2.38 2.11-1.33A75 75 0 0 1 568 294c5.88-2.88 5.88-2.88 7-4" fill="#E5E4E7"/><path d="m413 450-2 1-2-1c-9.87-1.45-20.84 2.27-29.25 7.38L377 459l-3-1c10.18-6.48 27.23-15.85 39-8" fill="#020302"/><path d="M235 433h1l1.44 9 .41 2.54q1.22 7.72 2.15 15.46l-1-3h-2c-1.87-4.03-2.4-7.58-2.69-12l-.26-3.62c-.04-3.01.22-5.48.95-8.38" fill="#DBDBDC"/><path d="m917 224 2 1-2 4-.81 1.94c-1.62 2.81-3.9 4.77-6.19 7.06a79 79 0 0 0-3 5l-4-1 1.29-1.4A150 150 0 0 0 917 224" fill="#E9E8EB"/><path d="m194 637-3.8.37-4.95.51-2.5.23-2.42.26-2.22.22c-2.31.45-4.02 1.35-6.11 2.41-2.75.12-2.75.12-5 0 8.28-6.6 17.37-9.22 27-4" fill="#E4E7E4"/><path d="m290 480 1.69 2.25c3.25 3.87 6.68 6.69 11.31 8.75-6.17.4-11.18-1.03-17-3v-2h4z" fill="#D1B568"/><path d="M217 682v2c-6.61 3.93-12.38 6.75-20 8v-3l2.7-1.02 3.55-1.36 3.52-1.33c3.23-1.29 3.23-1.29 5.46-2.45C214 682 214 682 217 682" fill="#DCDDDD"/><path d="m234.22 606.31 1.78.7q-1.48.97-3 2c-4.73 3.55-7.46 6.54-10 12q-1.48.48-3 1l-2-2q3.35-3.58 6.75-7.08l1.93-2.05 1.87-1.92 1.7-1.79c1.75-1.17 1.75-1.17 3.97-.86M215 622.01h2l-1 3z" fill="#0F100F"/><path d="M812.88 232.88c2.5 1.31 3.5 2.84 5.12 5.12l-3.25-.84-4.32-1.1-2.12-.56A110 110 0 0 0 795 233c6.88-3.44 10.53-2.35 17.88-.12" fill="#DFDFE2"/><path d="M1016 98v1c-8.61.46-16.61-1.27-25-3 7.33-4.51 17.57-.98 25 2" fill="#EAEBEC"/><path d="M883 451h1c.94 9.04 1.11 17.93 1 27h-2c-1.38-8.99-1.63-18.03 0-27" fill="#EBEBED"/><path d="M810 573c4 2 4 2 8 5l-3 10h-1z" fill="#DADDDB"/><path d="m1086 202 3 2c-3.53 3.33-6.5 3.47-11.25 3.69l-3.83.2-2.92.11-2-3 2.7-.15 3.55-.23 3.52-.21c2.94-.37 4.73-.89 7.23-2.41" fill="#EDEEEF"/><path d="M897 584c3.13 3.13 2.97 6.77 3 11-.5 5.03-1.2 10.01-2 15h-1z" fill="#E6E8E7"/><path d="M896 566c4.82 7.75 1.99 20.31 1 29h-1q-.3-5.57-.56-11.12l-.17-3.18c-.24-5.05-.43-9.73.73-14.7" fill="#D5D5D8"/><path d="M325 475a38 38 0 0 1 5 5c-.19 2.31-.19 2.31-1 4l-7 2 .94-2.12A42 42 0 0 0 325 475" fill="#CFBD75"/><path d="M375 460c3 3.62 3 3.62 3 7h-2v3h-5l-1-2c.94-2.12.94-2.12 2-4h2z" fill="#E8C166"/><path d="M398 300v1h-2.94c-5.61.72-9.22 5.18-13.06 9-.63-1.84-.63-1.84-1-4 5.13-6.34 9.13-7.54 17-6" fill="#D4D4D7"/><path d="M230 607c-1.61 4.07-4.54 6.77-7.62 9.75l-1.57 1.54L217 622l-2-2q3.18-3.26 6.38-6.5l1.82-1.88 1.76-1.78 1.62-1.65C228 607 228 607 230 607" fill="#DCDDDE"/><path d="M886 401h1c2.73 15.13 2.73 15.13 0 21l-2 1z" fill="#CDCECF"/><path d="M226 399c2.03 3.05 2.78 5.29 3.69 8.81l.82 3.08c.53 3.33.22 5.84-.51 9.11-3.58-6.67-4.27-13.53-4-21" fill="#E4E7E6"/><path d="M413 316c2 1 2 1 3 3.5a296 296 0 0 1 2.83 10.55L419 332l-2 2q-1.3-3.65-2.56-7.31l-.75-2.09c-1.8-5.26-1.8-5.26-.69-8.6" fill="#E9E9EB"/><path d="M1017 97a675 675 0 0 1 7.52 2.05c2.53.97 3.75 1.9 5.48 3.95-4.06 1.63-7.2.3-11.25-.94l-3.83-1.15-2.92-.91 1.94-.94C1016 98 1016 98 1017 97" fill="#D4D6D7"/><path d="M237 457h2c2.26 5.36 3.36 9.2 3 15h-2l-1.5-5.81-.84-3.27C237 460 237 460 237 457" fill="#E8E9E9"/><path d="M856 221c-1.51 4.1-3.96 5.54-7.62 7.75l-3.04 1.86L843 232c0-3 0-3 1.39-4.54l1.86-1.52 1.83-1.54c2.54-1.85 4.72-3.4 7.92-3.4" fill="#DEDEE0"/><path d="M884 178h3c-.61 4.86-2.73 8.74-5 13l-2-1a22.7 22.7 0 0 1 4-11z" fill="#E3E6E3"/><path d="M1075 138c2.73.37 3.81.79 5.7 2.85l1.55 2.21 1.58 2.23L1085 147l-1 2c-3.45-1.15-4.09-2.08-6.19-4.94l-1.6-2.15C1075 140 1075 140 1075 138" fill="#E1E1E1"/><path d="m285 471 5 1v2h2v6h2l-1 4c-3.15-3.42-3.56-6.44-4-11l-4 1z" fill="#2C210D"/><path d="M288 475v5h-2v-2h-2v2c-3.75 1.12-3.75 1.12-6 0v-3l4.44-1 2.49-.56C287 475 287 475 288 475" fill="#E4C35B"/><path d="m459.88 353.25 2.12.75c-3.82 3.33-8.37 5.05-13 7 2.12-4.76 5.33-8.23 10.88-7.75" fill="#DCDDE0"/><path d="M258 512c7.48 6.15 7.48 6.15 10 10h-4c-3.11-3.18-5.14-5.64-6-10" fill="#EDEDEF"/><path d="m244 483 3 1c.95 1.96.95 1.96 1.69 4.38l.76 2.39C250 493 250 493 250 496h-2l-5-12z" fill="#DEE0DD"/><path d="m970 151-4.88 2.94-2.74 1.65A72 72 0 0 1 958 158l-2-2c9.37-7.32 9.37-7.32 14-5" fill="#EBEBEA"/><path d="M264 567c.75 1.7.75 1.7 1 4-1.65 2.36-1.65 2.36-3.94 4.75l-2.27 2.42L257 580l-1-2q1.91-3.06 4-6h2l.44-1.94C263 568 263 568 264 567" fill="#E9EBEA"/><path d="M334 344v1c-9.41 2.48-9.41 2.48-14 1 1.66-2.01 2.83-2.94 5.31-3.81 3.31-.23 5.63.6 8.69 1.81" fill="#E2E3E5"/><path d="M589 287c-1.25 3.65-1.67 4.78-5 7h-3v-2l-2-1a472 472 0 0 1 6.05-3.12C587 287 587 287 589 287" fill="#211F21"/><path d="M934 187h2a182 182 0 0 1-5 14l-2-1q.68-2.41 1.38-4.81l.77-2.71C932 190 932 190 934 187" fill="#E2E0E4"/><path d="m378 473-4 1v2c-3.23 2.15-4.28 2.2-8 2v2h-2v-3q2.66-1.3 5.31-2.56l2.99-1.44c2.7-1 2.7-1 5.7 0" fill="#24190B"/><path d="M376 460h2v2h7l-3 3 1 3h-3c-4-5.26-4-5.26-4-8" fill="#261B0F"/><path d="M225 386h1l2 16h-3q-.3-2.6-.56-5.19l-.32-2.92c-.12-2.83.2-5.14.88-7.89" fill="#CCCDCE"/><path d="m880 309 3 1c1.34 4.31 2 7.48 2 12h-2q-.76-2.12-1.5-4.25l-.84-2.39C880 313 880 313 880 309" fill="#ECEBEF"/><path d="M578 557c-3.13 2.64-6.09 3.84-10 5l-2-2c7.29-4.71 7.29-4.71 12-3" fill="#222824"/><path d="m449 357 1 2c-2.13 2.35-4.03 3.86-7 5-2.75.12-2.75.12-5 0a21 21 0 0 1 7.19-5.19l2.17-1.04z" fill="#EDEDF0"/><path d="M865 210h2c-1.48 3.45-3.44 5.65-6.12 8.25l-2.2 2.14L857 222l-2-2 5-5 1.69-1.81C863 212 863 212 865 212z" fill="#EFEFF1"/><path d="M471 696v1h-6v2l-12-1v-1c6.05-.9 11.89-1.11 18-1" fill="#DDE1DD"/><path d="M323 472c7.1 4.41 7.1 4.41 9 8-.31 2.25-.31 2.25-1 4l-3.03-5.37C327 477 327 477 326 476l-2 2c-1.06-1.88-1.06-1.88-2-4z" fill="#130C06"/><path d="M235 433h1q.33 3.16.62 6.31l.36 3.55C237 446 237 446 235 449q-.3-2.6-.56-5.19l-.32-2.92c-.12-2.83.2-5.14.88-7.89" fill="#CED0D1"/><path d="M408 306c3.48 3.02 4.79 5.57 6 10h-3c-2.03-3.73-3-5.67-3-10" fill="#EEEEF1"/><path d="m600 277 2 1c-1 3-1 3-3.07 4.17l-2.49 1.02-2.51 1.04-1.93.77v-2h2v-2q2.94-2.09 6-4" fill="#E9E7EA"/><path d="M911 232c1 3 1 3 0 5.04l-1.44 2.15-1.43 2.17L907 243l-4-1 1.5-1.68 1.94-2.2 1.93-2.17C910 234 910 234 911 232" fill="#DADCDD"/><path d="M1043 173c2.64 3.19 5.1 6.31 7 10l-1 2c-4.88-4.62-4.88-4.62-6-8z" fill="#DADADB"/><path d="m185.38 634.31 2.34.24c2.38.47 4.16 1.26 6.28 2.45q-3.19.08-6.37.12l-3.6.07C181 637 181 637 179 635c2.44-1.23 3.68-.99 6.38-.69" fill="#F2F4F3"/><path d="M888 382h2c1.33 9.41 1.33 9.41 0 14-2.28-3.42-2.22-4.68-2.12-8.69l.05-3.01z" fill="#EFF2F0"/><path d="M335 596c-1.45 3.44-3.28 5.36-6.12 7.75l-2.2 1.86L325 607c0-3 0-3 1.68-5.04l2.2-2.15 2.17-2.17C333 596 333 596 335 596" fill="#0A0B0E"/><path d="M294.31 487.25q4.38 1.24 8.7 2.75v1c-5.2.21-9.14-.41-14-2 3-2 3-2 5.3-1.75" fill="#B7A979"/><path d="m789 228 3.88.31 2.17.18C797 229 797 229 799 232c-7.43.14-7.43.14-11-1z" fill="#F0F0F3"/><path d="M865 213c0 3.26-.22 4.33-2 7-3.12 2.25-3.12 2.25-6 4 .57-3.63 1.92-5.26 4.56-7.75l1.94-1.86z" fill="#272728"/><path d="m987.13 144.44 3.32.3 2.55.26c-3.66 2.45-5.68 2.08-10 2l-2 1-2-1v-2c2.84-1.42 5-.86 8.13-.56" fill="#EBEDE8"/><path d="M970 99v1l-12 2-1-2c5.15-2.68 7.45-3.57 13-1" fill="#E3E4E6"/><path d="M979 97v1l-11 1-1-2c4.78-1.69 7.45-2.48 12 0" fill="#EDEEEF"/><path d="M165 684q2.13.68 4.25 1.38l2.39.77c2.23.8 4.27 1.75 6.36 2.85-2.69 1.01-4.42 1.23-7.11.18q-2.99-1.5-5.89-3.18z" fill="#E4E8E6"/><path d="m222 677 1 2a135 135 0 0 1-3 7l-4-5z" fill="#BFC2BF"/><path d="m380 647 2 4a96 96 0 0 1-6 3l-2-1c1.25-3.74 2.63-4.19 6-6" fill="#1A1A1D"/><path d="m509 325 2 2-1.94.31-2.06.69-1 3-5 1c1.46-4.39 3.98-4.88 8-7" fill="#EFEFF1"/><path d="m219 686 3 2c.29 2.16.29 2.16.19 4.62l-.08 2.48-.11 1.9h-3z" fill="#232325"/><path d="m223 617 1 3-4 2-2-2zm-8 5h2l-1 3z" fill="#070608"/><path d="M418 335c1.9 2.85 2.46 4.42 3.12 7.69l.51 2.45.37 1.86h-3a20 20 0 0 1-1.06-7.69l.02-2.45z" fill="#303031"/><path d="m240 336 2.12.88c2.93 1.14 5.89 2.15 8.88 3.12-1.62 1.12-1.62 1.12-4 2-3.19-.62-3.19-.62-6-2-.88-2.12-.88-2.12-1-4" fill="#E3E4E5"/><path d="M364 562c2.12.38 2.12.38 4 1a318 318 0 0 1-5 6h-1c-.12-2.38-.12-2.38 0-5z" fill="#DBDEDB"/><path d="M922 213h1c-.47 4.06-.88 7.47-3 11l-3-1z" fill="#D7D7D7"/><path d="m201 632-1 3c-2.81 1.31-2.81 1.31-6 2-2.2-.96-2.2-.96-4-2l4.38-1.5 2.46-.84C199 632 199 632 201 632" fill="#E7EAE8"/><path d="m349 581 3 1v2l-10 5 2.94-3.44 1.65-1.93q1.16-1.36 2.41-2.63" fill="#070A0B"/><path d="m618 534 1 3-8 4v-3z" fill="#1B1C1A"/><path d="M888 345c3.16 4.22 3.34 5.06 3 10h-3z" fill="#F1F2F3"/><path d="M470 348c-1 3-1 3-3.94 4.69C463 354 463 354 461 354v-2c6.75-4 6.75-4 9-4" fill="#ECEBEE"/><path d="M254.63 341.25C257 343 257 343 258 346l-9-3v-2c3-1 3-1 5.62.25" fill="#D6D6D7"/><path d="m540.06 309.94 2.94.06c-2.53 3.09-5.23 3.9-9 5 2.41-5 2.41-5 6.06-5.06" fill="#E5E5E8"/><path d="m877 201 1 3-7 5c0-3 0-3 1.88-5.12C875 202 875 202 877 201" fill="#212123"/><path d="m1091 196 4 1c-3.61 4.69-3.61 4.69-5 6h-3a56 56 0 0 1 4-7" fill="#E1E1E3"/><path d="m948 164 1 2-6 9-1-4c1.21-1.92 1.21-1.92 2.94-3.75l1.71-1.86z" fill="#E6E8E6"/><path d="m281 548 2 1-6 8-1-4c2.44-2.75 2.44-2.75 5-5" fill="#DFE0E2"/><path d="M221 354h1v10h-3l.44-4.44.24-2.49C220 355 220 355 221 354" fill="#EFF0F0"/><path d="m229.56 338.94 2.44.06c-2.32 2.5-2.32 2.5-5 5h-3c2.41-4.98 2.41-4.98 5.56-5.06" fill="#DEDEE0"/><path d="M865 280h3a18 18 0 0 1 3 5l-1 3c-2.72-2.35-3.81-4.62-5-8" fill="#DEDCE0"/><path d="m246 589 2 2-6 5v-4c2-1.75 2-1.75 4-3" fill="#DCDBDF"/><path d="M325 475c2 2 2 2 2.2 3.95L327 485l-5 1 .94-2.12A42 42 0 0 0 325 475" fill="#B3A87E"/><path d="m277.19 350.94 1.8 1.06v3l-7-2v-2c3-1 3-1 5.2-.06" fill="#DEE0DC"/><path d="M877 267c-1.25 3.75-2.57 4.24-6 6h-2v-2h2l1-3c2-1 2-1 5-1" fill="#EEEEEF"/><path d="m894 247 3 3-5 4-2-2z" fill="#191A19"/><path d="m817 234 7 2-1 3c-2.38-.31-2.38-.31-5-1l-2-3z" fill="#E8E8EC"/><path d="m159 676 1.81 2.31A58 58 0 0 0 166 684c-3 0-3 0-4.39-1.31L158 678z" fill="#D5D6D5"/><path d="M365 660c2.94.06 5.17 1.06 8 2v1l-12 1z" fill="#DEE1DE"/><path d="m293 633 1 2a89 89 0 0 1-4 4h-2l-1 2c0-3 0-3 1.31-4.39z" fill="#17161C"/><path d="M483 593v2l-7 1v-3c2.67-1.33 4.17-.67 7 0" fill="#1F2120"/><path d="m365 326 1 3-6 5c0-3 0-3 2.5-5.69z" fill="#DBDFDB"/><path d="M304 697v3c-2.81 1.56-2.81 1.56-6 3l-3-1z" fill="#B4B7B6"/><path d="m264 639 3 1c-1.31 2-1.31 2-3 4h-3c.38-1.94.38-1.94 1-4z" fill="#0C0A09"/><path d="m309 618 2 2-6 5c0-3 0-3 2-5.19z" fill="#202024"/><path d="m374 460 1 2-1 2h-2v2l-4-1z" fill="#DEC97D"/><path d="M228 395c2 2 2 2 2.2 4.16l-.08 2.46-.05 2.48-.07 1.9c-3.03-3.03-2.66-5.77-3-10z" fill="#101312"/><path d="M221 370h2v9c-1.56-1.69-1.56-1.69-3-4 .31-2.75.31-2.75 1-5" fill="#F0F0F3"/><path d="M1093 167h2a18 18 0 0 1 2 5c-1.38 2.31-1.38 2.31-3 4z" fill="#E1E1E2"/><path d="m363 658 2 1-1 3-3 1-2-1v-2c1.88-1.06 1.88-1.06 4-2" fill="#1D201D"/><path d="m399 636 2 1c-1.75 2.06-1.75 2.06-4 4-2.25-.25-2.25-.25-4-1 2.05-2.25 3.01-3 6-4" fill="#1B1C1C"/><path d="M891 542c1.62 1.69 1.62 1.69 3 4-.81 2.75-.81 2.75-2 5h-1c-.88-6.15-.88-6.15-1-8z" fill="#D8D8DB"/><path d="M885 518h3l1 5h-2l-1 2z" fill="#F1EEF2"/><path d="M364 464h4c-1.75 3.88-1.75 3.88-4 5l-2-2z" fill="#291E16"/><path d="M415 332h2c1.35 2.71 1.07 5.01 1 8l-2-1q-.61-3.49-1-7" fill="#0E0F10"/><path d="m416 325 2 1c.75 2.94.75 2.94 1 6l-2 2-1.06-3.94-.6-2.21L415 326z" fill="#DBDCDB"/><path d="M572 295v3c-1.75 1.06-1.75 1.06-4 2l-4-1z" fill="#1F1F21"/><path d="m938 180 1 2c-.94 2.62-.94 2.62-2 5h-3q.9-3.03 2-6z" fill="#DADBDE"/><path d="m1187 698 3 3-3 2-2-3z" fill="#F5F5F7"/></svg>