<svg style="background:transparent" version="1.1" xmlns="http://www.w3.org/2000/svg" viewBox="0 0 1248 704"><path d="M517.75 19.06a355 355 0 0 1 21.88 14.2l1.86 1.27c4.39 3.12 4.39 3.12 5.51 6.47q2.46 1.08 5 2c2.81 1.5 2.81 1.5 5 3v2l2.13.72c3.34 1.5 5.87 3.4 8.74 5.65 8.55 6.57 14.45 9.75 25.34 9.85l2.5.04c8.61.11 17.23.15 25.84.2q6.13.03 12.25.12 7.4.1 14.81.12 2.82.01 5.63.07c16.51.3 16.51.3 22.3-4.2q1.77-1.75 3.46-3.57a146 146 0 0 1 5.44-3.44c4.74-2.94 8.99-6.26 13.3-9.79a49 49 0 0 1 7.36-4.66c5.43-3.18 10.4-7.25 15.44-11 6.75-4.92 13.72-9.38 22.09-10.67 6.36 1.06 12.38 3.26 16.31 8.67 4.8 8.53 6.03 16.48 4.58 26.06-.52 3.86-.83 7.7-1.06 11.6l-.13 2.21-.39 7.14-.14 2.48a578 578 0 0 0-.83 36.78c.07 8.6-.29 17.05-.97 25.62l.02 9.98.03 21.61.03 13.08.01 12.66.02 4.82v6.74l.01 3.88c-.1 2.64-.35 4.72-1.12 7.23l-.43 2.15A42 42 0 0 1 755 233l-.8 1.9c-2.2 5.06-4.99 8.03-9.25 11.5-1.95 1.6-1.95 1.6-4.64 4.28-4.33 4.34-9.14 7.55-14.32 10.76-2.79 2.2-3.81 4.27-4.3 7.74.46 4.18 1.85 7.9 3.31 11.82l.91 2.45a168 168 0 0 0 10.65 22.11 117 117 0 0 1 5.53 11.37q1.2 2.69 2.54 5.32c1.27 2.55 2.31 5.1 3.37 7.75l1.18 2.7a104 104 0 0 1 6.14 18.47c1.13 4.71 2.44 9.51 4.74 13.8 1.04 2.25 1.27 4 1.44 6.47.24 2.72.51 4.57 1.56 7.12 1.36 3.53 1 6.66.94 10.44l1 3c.31 3.58.51 7.16.72 10.75C766 406 766 406 767 409q.14 3.5.13 7v3.75C767 423 767 423 766 426v3.44c0 2.93-.29 4.8-1 7.56v3.12c0 2.88 0 2.88-1 4.88q-.34 2.8-.56 5.62l-.26 3.04L763 456l3.13-.94c7.75-2.17 15.19-3.36 22.68.32 2.84 1.76 5.52 3.62 8.19 5.62l2.26 1.67c8.45 6.77 12.17 14.82 13.74 25.33l1.06 4.56c1.43 6.38 2.27 12.9 1.94 19.44l-1 1a84 84 0 0 0 0 4.75c.04 3.6-.17 6.74-1 10.25l-.44 3.94c-.42 3.56-1.38 6.66-2.56 10.06q-.52 2.25-1 4.5a87 87 0 0 1-3 10.5q-.53 2-1 4c11.05-1 22.49-4.5 30.06-13.13A16 16 0 0 0 839 541l3-3c5.77-9.7 6.27-20.97 3.94-31.82-2.15-7.84-5.76-15.96-10.66-22.46C834 482 834 482 834 480l-1.87-.75C830 478 830 478 829.2 476.3c-1.66-3.18-4.02-5.63-6.45-8.23q-.7-.75-1.41-1.55a73 73 0 0 0-7.5-7.16 45 45 0 0 1-6.09-5.98 364 364 0 0 0-8.88-10C788.9 432.4 788.9 432.4 786 426l-1.19-2.48c-8.49-17.97-11.36-39.36-4.81-58.52 4.03-9.74 9.54-17.55 17-25l2.11-2.33c10.31-11.08 24.81-19.5 40.16-20.2 6.66-.09 12.24.5 17.73 4.53l2.81 1.81c4.01 4.01 6.07 9.55 6.19 15.2-3.64 9.92-10.59 17.27-20.13 21.74l-3.62 1.66c-5.74 2.8-10.68 6.6-13.25 12.6a59 59 0 0 0-.79 5.93c-.21 2.06-.21 2.06-.75 4.42-1.68 9.57.67 19.37 5.72 27.54A101 101 0 0 0 838 419l1.25 1.51c8.34 10.1 17.09 19.85 27.19 28.24 3.22 2.73 5.31 5.57 7.36 9.26 1.2 2 1.2 2 3.11 4.36a71 71 0 0 1 5.72 8.57l1.78 3.02A52 52 0 0 1 888 483l1.44 3.12c1.87 4.25 2.85 8.7 3.91 13.21C894 502 894 502 895 505c2.3 13.51 1.71 27.14-3 40l-.94 2.94c-4.46 12.86-4.46 12.86-8.72 18.2C881 568 881 568 879.2 571.35c-2.07 3.68-4.77 6.4-7.95 9.14l-1.63 1.43L865 586l-2 1.98c-6.25 6.1-14.2 9.35-22 13.02q-3 1.46-5.94 3.03c-4.13 1.94-8.65 2.83-13.06 3.97l-3.07.82A96 96 0 0 1 801 612l-1.96.15c-15.21 1.13-15.21 1.13-22.29.1-3.86-.44-4.48-.42-8 1.7-1.36 1.38-1.36 1.38-2.75 3.05l-1.7 1.97-3.58 4.18c-2.29 2.46-4.87 4.1-7.72 5.85-2.05 1.61-4.02 3.3-6 5l2 1.56 3 2.44 1.97 1.54c6.03 4.92 9.57 9.76 10.9 17.52.2 6-.95 11.07-5.06 15.65-4.02 2.86-9.04 3.45-13.81 4.3q-1.1.18-2.24.4c-4.92.72-9.8.76-14.76.6q-1.21-.04-2.45-.06c-6.77-.36-12.78-2.08-19.16-4.22-2.93-.99-5.27-1.73-8.39-1.73l1.61 1.32c7.73 6.51 10.69 11.41 12.29 21.46.1 3.22.1 3.22-1.9 9.22h-74a75 75 0 0 1-3.49-10.83q-.52-2.22-1.12-4.4c-1.38-5.38-1.29-9.3-.39-14.77l-.06-3.19c.06-2.8.06-2.8 2.06-7.8l-15 1 .49 3.4c.59 4.72.69 9.4.7 14.15l.03 2.46c.02 7.21-.82 13.05-5.71 18.71-2.67 2.25-5.27 2.01-8.66 2l-2.12.01q-3.45 0-6.9-.05h-4.8q-5.04 0-10.06-.08-6.45-.07-12.9-.06a1640 1640 0 0 1-21.31-.12l-3.82-.03-2.94-.4c-2.38-3.58-2.75-5.87-2-10q1.33-3.3 2.75-6.56c2.41-5.83 2.41-5.83 1.69-8.6-1.13-1.66-1.13-1.66-3.44-3.84l-1.73.4c-13.42 2.92-30.64 5.06-43.19-2.06-3.18-2.74-6.74-6.05-7.38-10.36-.04-8.2 2.79-14.9 8.3-20.98a86 86 0 0 1 6.43-4.64L504 636v-3q-2.47-2.05-5-4v-2l-1.81-.25c-2.82-.97-3.44-2.38-5.19-4.75-.37-.2-.37-.2-2.23-1.29-3.29-2.04-5.89-4.54-8.58-7.27l-1.52-1.5C476 608.25 476 608.25 476 606l-5-4a46 46 0 0 1-6.06-8.63c-1.94-3.37-1.94-3.37-3.5-4.93-2.14-2.14-3.11-4.73-4.44-7.44a238 238 0 0 0-3.82-6.07c-5.97-9.74-9.58-20.7-11.18-31.93-.61-2.6-1.31-5.17-2-7.75a87 87 0 0 1-2-12.25l-.28-2.24c-1.03-8.77-1.77-18.1.28-26.76l.8-3.46c1.87-7.46 3.93-14.06 8.2-20.54l1.04-1.85c4.47-7.32 12.82-12 20.96-14.15 7.01-.48 14.09-.32 21 1l-.94-3.82a90 90 0 0 1-1.81-13.8C487 435 487 435 486 432c-.34-3.35-.46-6.7-.63-10.06l-.15-2.8-.13-2.68-.13-2.45c.04-2 .04-2 1.04-4q.07-2.63 0-5.26a55 55 0 0 1 1-11.75l.44-3.94c.45-3.83 1.5-7.36 2.56-11.06l.66-5.96c.47-2.8 1.43-5.28 2.52-7.89 1.14-3 1.95-6.07 2.82-9.15 4.09-13.54 8.47-26.4 15-39l1.53-3.08c1.62-3.23 3.39-6.35 5.19-9.48 1.3-2.47 2.4-4.99 3.48-7.57q1.22-2.84 2.55-5.63c3.95-8.5 7.25-16.68 7.25-26.24l-1.66-.76c-6.84-3.62-13.03-8.65-18.34-14.24a347 347 0 0 0-4.13-3.5c-8.85-7.7-13.03-21.38-14.09-32.88q.03-1.98.16-3.95c.08-3.5-.18-6.96-.42-10.45-.5-7.78-.64-15.5-.6-23.3l.03-6.54.05-13.82.06-16.13.03-6.37c.01-6.39-.09-12.66-.87-19.02-.36-3.32-.27-6.58-.22-9.92.05-5.62-.18-11.13-.71-16.73a298 298 0 0 1-1.23-32.59C489 52 489 52 488 51c-.67-8.08-.88-15.27 4-22l1.78-2.5c5.87-6.6 15.5-10.7 23.97-7.44M561 666l1 2 1-2zm129 0 1 2 2-1zm-142 6 3 3 7-5c-4.18-1.39-6.13.17-10 2" fill="#151816"/><path d="M854.09 322.72c3.58 2.4 5.98 5.42 7.91 9.28.63 5.68.57 10.6-2.7 15.42-5.03 6.1-11.3 9.36-18.31 12.87-2.86 1.64-4.72 3.36-6.99 5.7h-2l-.75 1.64C830 370 830 370 828 372.8c-4.42 7.05-5.36 15.06-3.56 23.16q.83 3.2 1.81 6.34l.62 2.03c4.34 13.15 15.6 23.38 25.28 32.83 4.52 4.42 8.75 9 12.85 13.83l2.12 2.44c5.82 7.03 10.4 14.64 14.88 22.56l1.54 2.69c3.63 6.77 5.59 13.89 7.46 21.3l.69 2.5c5.05 20.49-.15 43.83-10.56 61.85-14.09 22.78-36.4 34.85-61.56 41.87-10.71 2.37-20.9 3.05-31.82 2.92l-4.32-.03q-5.2-.03-10.43-.1c0-3.6.62-4.07 2.88-6.75a205 205 0 0 0 9.06-12.25l1.31-1.9a51 51 0 0 0 5.57-10.74c4.2-11.31 4.2-11.31 7.97-13.31 4.28-1.3 8.66-1.52 13.09-1.82 10.79-1.16 20.52-7.6 27.31-15.8 9-13.23 11.04-26.28 8.18-41.88-5.49-18.5-18.97-32.5-32.43-45.61-20.33-19.8-36.47-42.31-37.5-71.75.97-19.85 9.98-37.17 24.19-50.81 13.32-11.53 34.14-22.46 51.46-13.66" fill="#0F1110"/><path d="M517.75 19.06a355 355 0 0 1 21.88 14.2l1.86 1.27c4.39 3.12 4.39 3.12 5.51 6.47q2.46 1.08 5 2c2.81 1.5 2.81 1.5 5 3v2l2.13.72c3.34 1.5 5.87 3.4 8.74 5.65 8.55 6.57 14.45 9.75 25.34 9.85l2.5.04c8.61.11 17.23.15 25.84.2q6.13.03 12.25.12 7.4.1 14.81.12 2.82.01 5.63.07c16.51.3 16.51.3 22.3-4.2q1.77-1.75 3.46-3.57a146 146 0 0 1 5.44-3.44c4.74-2.94 8.99-6.26 13.3-9.79a49 49 0 0 1 7.36-4.66c5.43-3.18 10.4-7.25 15.44-11 6.75-4.92 13.72-9.38 22.09-10.67 6.36 1.06 12.38 3.26 16.31 8.67 4.8 8.53 6.03 16.48 4.58 26.06-.52 3.86-.83 7.7-1.06 11.6l-.13 2.21-.39 7.14-.14 2.48a578 578 0 0 0-.83 36.78c.07 8.6-.29 17.05-.97 25.62l.02 9.98.03 21.61.03 13.08.01 12.66.02 4.82v6.74l.01 3.88c-.1 2.64-.35 4.72-1.12 7.23l-.43 2.15A42 42 0 0 1 755 233l-.8 1.9c-2.2 5.06-4.99 8.03-9.25 11.5-1.95 1.6-1.95 1.6-4.64 4.28-4.33 4.34-9.14 7.55-14.32 10.76-2.79 2.2-3.81 4.27-4.3 7.74.46 4.18 1.85 7.9 3.31 11.82l.91 2.45a168 168 0 0 0 10.65 22.11 117 117 0 0 1 5.53 11.37q1.2 2.69 2.54 5.32c1.27 2.55 2.31 5.1 3.37 7.75l1.18 2.7a104 104 0 0 1 6.14 18.47c1.13 4.71 2.44 9.51 4.74 13.8 1.04 2.25 1.27 4 1.44 6.47.24 2.72.51 4.57 1.56 7.12 1.36 3.53 1 6.66.94 10.44l1 3c.31 3.58.51 7.16.72 10.75C766 406 766 406 767 409q.14 3.5.13 7v3.75C767 423 767 423 766 426v3.44c0 2.93-.29 4.8-1 7.56v3.12c0 2.88 0 2.88-1 4.88q-.34 2.8-.56 5.62l-.26 3.04L763 456l3.13-.94c7.75-2.17 15.19-3.36 22.68.32 2.84 1.76 5.52 3.62 8.19 5.62l2.26 1.67c8.45 6.77 12.17 14.82 13.74 25.33l1.06 4.56c1.43 6.38 2.27 12.9 1.94 19.44l-1 1a84 84 0 0 0 0 4.75c.04 3.6-.17 6.74-1 10.25l-.44 3.94c-.42 3.56-1.38 6.66-2.56 10.06q-.52 2.25-1 4.5a87 87 0 0 1-3 10.5q-.53 2-1 4c11.05-1 22.49-4.5 30.06-13.13A16 16 0 0 0 839 541l3-3c5.77-9.7 6.27-20.97 3.94-31.82-2.15-7.84-5.76-15.96-10.66-22.46C834 482 834 482 834 480l-1.87-.75C830 478 830 478 829.2 476.3c-1.66-3.18-4.02-5.63-6.45-8.23q-.7-.75-1.41-1.55a73 73 0 0 0-7.5-7.16 45 45 0 0 1-6.09-5.98 364 364 0 0 0-8.88-10C788.9 432.4 788.9 432.4 786 426l-1.19-2.48c-8.49-17.97-11.36-39.36-4.81-58.52 4.03-9.74 9.54-17.55 17-25l2.11-2.33c10.31-11.08 24.81-19.5 40.16-20.2 6.66-.09 12.24.5 17.73 4.53l2.81 1.81c4.01 4.01 6.07 9.55 6.19 15.2-3.64 9.92-10.59 17.27-20.13 21.74l-3.62 1.66c-5.74 2.8-10.68 6.6-13.25 12.6a59 59 0 0 0-.79 5.93c-.21 2.06-.21 2.06-.75 4.42-1.68 9.57.67 19.37 5.72 27.54A101 101 0 0 0 838 419l1.25 1.51c8.34 10.1 17.09 19.85 27.19 28.24 3.22 2.73 5.31 5.57 7.36 9.26 1.2 2 1.2 2 3.11 4.36a71 71 0 0 1 5.72 8.57l1.78 3.02A52 52 0 0 1 888 483l1.44 3.12c1.87 4.25 2.85 8.7 3.91 13.21C894 502 894 502 895 505c2.3 13.51 1.71 27.14-3 40l-.94 2.94c-4.46 12.86-4.46 12.86-8.72 18.2C881 568 881 568 879.2 571.35c-2.07 3.68-4.77 6.4-7.95 9.14l-1.63 1.43L865 586l-2 1.98c-6.25 6.1-14.2 9.35-22 13.02q-3 1.46-5.94 3.03c-4.13 1.94-8.65 2.83-13.06 3.97l-3.07.82A96 96 0 0 1 801 612l-1.96.15c-15.21 1.13-15.21 1.13-22.29.1-3.86-.44-4.48-.42-8 1.7-1.36 1.38-1.36 1.38-2.75 3.05l-1.7 1.97-3.58 4.18c-2.29 2.46-4.87 4.1-7.72 5.85-2.05 1.61-4.02 3.3-6 5l2 1.56 3 2.44 1.97 1.54c6.03 4.92 9.57 9.76 10.9 17.52.2 6-.95 11.07-5.06 15.65-4.02 2.86-9.04 3.45-13.81 4.3q-1.1.18-2.24.4c-4.92.72-9.8.76-14.76.6q-1.21-.04-2.45-.06c-6.77-.36-12.78-2.08-19.16-4.22-2.93-.99-5.27-1.73-8.39-1.73l1.61 1.32c7.73 6.51 10.69 11.41 12.29 21.46.11 3.53-.6 5.96-1.9 9.22h-3l.21-3.15c.43-9.04.14-15.77-6.21-22.85-4.47-4.23-9.27-6.85-15-9v-8a89 89 0 0 1 10.44 4.87c16.58 8.4 38.44 11.51 56.56 6.13 2.97-1.86 4.46-2.92 6-6 .7-7.42.62-13.9-4-20-4.49-5-9.8-7.6-16-10a90 90 0 0 1 11.37-9.94c12.57-9.55 12.57-9.55 15.77-14.12 2.2-2.63 2.71-2.9 6.28-3.67l3.91.03 2.12-.02 4.49.01c3.87.03 7.74-.04 11.61-.1l2.28-.04c27.07-.47 53.77-12.26 72.79-31.34 15.06-15.75 21.93-38.4 21.8-59.9-.82-25.84-14.12-52.59-32.76-70.3a72 72 0 0 1-4.79-5.24c-2.7-3.15-5.57-6.07-8.54-8.96-9.15-8.92-17.48-17.94-21.33-30.4l-.68-2.02c-2.9-9.75-1.73-18.9 2.68-27.99 5.08-7.85 13.64-12.88 21.81-17.06 5.79-3.03 10.09-6.64 12.19-12.94.53-5.03.57-8.88-1.75-13.44-4.31-4.9-8.25-7.16-14.85-7.82-16.81-.65-31.13 7.34-43.31 18.27-13.26 12.46-20.81 30.04-21.65 48.17 1.15 29.95 17.61 52.25 38.24 72.41 16.19 15.83 32.61 33.88 32.88 57.85.04 12.55-3.82 22.55-11.87 32.18-10.53 10.6-23.99 14.8-38.69 15.38l1.19-3.44L803 556l1.21-3.65c7.59-23.7 11.71-52.67 1.55-76.22A56 56 0 0 0 802 470l-1.69-2.69c-7.2-7.2-14.61-9.49-24.5-9.56l-2.17-.07c-5.68-.04-10.37 1.26-15.64 3.32l1.44-12.19.41-3.49.76-6.46c.39-2.86.39-2.86.92-5.33 1.03-5.59.71-11.36.72-17.03v-2.1A184 184 0 0 0 759 379l-.39-2.19c-4.49-25.04-14.18-48.85-26.11-71.19-15.43-29.02-15.43-29.02-14.61-40.09 2.29-5.23 7.65-7.64 12.37-10.42 3.66-2.34 6.69-5.46 9.81-8.46C742 245 742 245 744 245l.85-1.78a61 61 0 0 1 3.52-5.85c6.57-10.42 8.93-21.22 8.92-33.37l.02-3.27.03-6.99q0-5.6.05-11.18.07-11.94.11-23.88c.14-34.82.29-69.47 3.3-104.18.83-10.27.89-18.35-4.49-27.32-3.96-3.74-8.27-4.83-13.56-5.74-8.96 1.34-16.44 6.82-23.53 12.17-4 3.01-8.15 5.77-12.28 8.57a951 951 0 0 0-25.79 18.26L679 62l-3.08 2.55c-4.21 3-7.76 3.2-12.81 3.2l-2.62.05q-4.26.06-8.52.07l-5.97.06q-6.27.05-12.53.05a845 845 0 0 0-15.92.18q-6.18.08-12.36.08-2.93 0-5.86.07c-13.76.3-22.17-2.1-32.78-11.02a88 88 0 0 0-6.42-4.75l-4-2.92-2.23-1.6q-5.83-4.23-11.62-8.49C517.22 21.16 517.22 21.16 507 22c-5.91 1.96-9.41 5-13 10-1.6 3.21-1.14 6.7-1.13 10.22l-.01 2.5.01 5.22-.01 7.94.01 5.1-.01 2.37c.02 4.24.31 8.3.89 12.51.51 4.35.6 8.74.75 13.12l.12 3.3.38 10.9.13 3.81q.88 25.3 1.12 50.62l.05 5.24q.12 11.61.17 23.21l.07 9.7.02 4.51c0 15.92 2.86 31.6 14.12 43.66 4.3 3.83 9 7.14 13.7 10.45A94 94 0 0 1 534 264c1.45 9.5-3.17 18.95-7.06 27.44l-1.18 2.6a300 300 0 0 1-8.82 17.46c-5.14 9.53-9.2 19.34-12.94 29.5l-.83 2.21c-8.19 22.14-13.59 45.96-13.42 69.6l.01 2c.04 9.91.65 19.4 2.24 29.2q.59 4.48 1.13 9l.5 4.05.37 2.94-2.71-.66c-11.45-2.63-20.68-4.28-31.29 1.66-9.34 6.1-14.7 15.83-17.17 26.54-1.2 6.6-1.17 13.21-1.14 19.9v2c.11 22.96 4.65 44.16 15.31 64.56l.95 1.81c7.21 13.6 16.49 25.1 27.05 36.2l2.14 2.32c6.34 6.71 13.72 12 21.19 17.37A43 43 0 0 1 513 636l-2.41 1.06c-6.61 3.08-11.57 5.77-15.59 11.94l-1.87 2.81a23.8 23.8 0 0 0-.13 16.13c4.43 4.56 10.15 5.25 16.24 5.53q3.54.04 7.07.03l3.76-.02c14.4-.27 27.11-3.26 39.68-10.35C562 662 562 662 565 662v7l-2.13 1c-7.75 3.88-13.96 8.48-18.08 16.3-1.03 3.52-1.01 6.87-.92 10.51l.03 2.1.1 5.1h-3c-2.38-3.59-2.75-5.88-2-10q1.33-3.3 2.75-6.57c2.41-5.83 2.41-5.83 1.69-8.6-1.13-1.66-1.13-1.66-3.44-3.84l-1.73.4c-13.42 2.92-30.64 5.06-43.19-2.06-3.18-2.74-6.74-6.05-7.38-10.36-.04-8.2 2.79-14.9 8.3-20.98a86 86 0 0 1 6.43-4.64L504 636v-3q-2.47-2.05-5-4v-2l-1.81-.25c-2.82-.97-3.44-2.38-5.19-4.75-.37-.2-.37-.2-2.23-1.29-3.29-2.04-5.89-4.54-8.58-7.27l-1.52-1.5C476 608.25 476 608.25 476 606l-5-4a46 46 0 0 1-6.06-8.63c-1.94-3.37-1.94-3.37-3.5-4.93-2.14-2.14-3.11-4.73-4.44-7.44a238 238 0 0 0-3.82-6.07c-5.97-9.74-9.58-20.7-11.18-31.93-.61-2.6-1.31-5.17-2-7.75a87 87 0 0 1-2-12.25l-.28-2.24c-1.03-8.77-1.77-18.1.28-26.76l.8-3.46c1.87-7.46 3.93-14.06 8.2-20.54l1.04-1.85c4.47-7.32 12.82-12 20.96-14.15 7.01-.48 14.09-.32 21 1l-.94-3.82a90 90 0 0 1-1.81-13.8C487 435 487 435 486 432c-.34-3.35-.46-6.7-.63-10.06l-.15-2.8-.13-2.68-.13-2.45c.04-2 .04-2 1.04-4q.07-2.63 0-5.26a55 55 0 0 1 1-11.75l.44-3.94c.45-3.83 1.5-7.36 2.56-11.06l.66-5.96c.47-2.8 1.43-5.28 2.52-7.89 1.14-3 1.95-6.07 2.82-9.15 4.09-13.54 8.47-26.4 15-39l1.53-3.08c1.62-3.23 3.39-6.35 5.19-9.48 1.3-2.47 2.4-4.99 3.48-7.57q1.22-2.84 2.55-5.63c3.95-8.5 7.25-16.68 7.25-26.24l-1.66-.76c-6.84-3.62-13.03-8.65-18.34-14.24a347 347 0 0 0-4.13-3.5c-8.85-7.7-13.03-21.38-14.09-32.88q.03-1.98.16-3.95c.08-3.5-.18-6.96-.42-10.45-.5-7.78-.64-15.5-.6-23.3l.03-6.54.05-13.82.06-16.13.03-6.37c.01-6.39-.09-12.66-.87-19.02-.36-3.32-.27-6.58-.22-9.92.05-5.62-.18-11.13-.71-16.73a298 298 0 0 1-1.23-32.59C489 52 489 52 488 51c-.67-8.08-.88-15.27 4-22l1.78-2.5c5.87-6.6 15.5-10.7 23.97-7.44M561 666l1 2 1-2zm129 0 1 2 2-1zm-142 6 3 3 7-5c-4.18-1.39-6.13.17-10 2" fill="#E3E5E5"/><path d="m579 496 1.88 1.94c11.89 11.79 26.64 24.47 44.24 25.44 14.64-.4 28.38-8.75 38.88-18.38q3.31-3.56 6.41-7.31L672 496h2c.54 4.85-1.17 7.47-3.75 11.5l-2.11 3.34c-3.15 4.64-6.29 8.55-10.64 12.1l-2.28 1.9a81 81 0 0 1-9.42 5.3l-3.29 1.62L640 533l.09 1.97c.77 17.65 1.1 35.27 1.1 52.93l.02 8.2c.07 14.31-.07 28.56-1.1 42.84l-.23 3.3A126 126 0 0 1 637 660h-22a368 368 0 0 1-3.25-32.09c-1.56-26.24-1.29-52.68.25-78.91l.15-2.54q.39-6.73.85-13.46l-2.34-1.1c-12.85-6.2-12.85-6.2-17.66-10.9v-2l-1.71-.62c-3.14-1.89-4.94-4.53-6.98-7.5l-1.22-1.77c-2.98-4.5-4.19-7.76-4.09-13.11" fill="#000"/><path d="M495 139h1l.02 2.84q.09 13.33.22 26.66l.11 13.7q.03 6.62.11 13.24l.04 5.03c.07 16.57 2.35 32.78 14.18 45.46 4.3 3.84 9 7.14 13.7 10.46A93 93 0 0 1 534 264c1.45 9.51-3.17 18.95-7.06 27.44l-1.18 2.6a300 300 0 0 1-8.82 17.46c-5.14 9.54-9.2 19.34-12.94 29.5l-.83 2.21c-8.19 22.15-13.59 45.96-13.42 69.6l.01 1.99c.04 9.92.65 19.41 2.24 29.2q.59 4.5 1.12 9l.51 4.06.37 2.94-2.71-.66c-11.45-2.63-20.68-4.27-31.29 1.66-9.34 6.09-14.7 15.83-17.17 26.54-1.2 6.6-1.17 13.21-1.14 19.9v2c.11 22.96 4.65 44.17 15.31 64.56l.95 1.82c7.21 13.58 16.49 25.09 27.05 36.18l2.14 2.33c6.34 6.71 13.72 11.99 21.19 17.37A43 43 0 0 1 513 636l-2.41 1.07c-6.61 3.07-11.57 5.77-15.59 11.93l-1.88 2.81a23.8 23.8 0 0 0-.12 16.13c4.43 4.56 10.15 5.25 16.24 5.53q3.54.04 7.07.03l3.76-.02c14.4-.27 27.11-3.26 39.68-10.34C562 662 562 662 565 662v7l-2.12 1c-7.76 3.88-13.97 8.48-18.09 16.29-1.03 3.53-1.01 6.88-.91 10.52l.02 2.1.1 5.09h-3c-2.38-3.58-2.75-5.87-2-10q1.33-3.3 2.75-6.56c2.41-5.83 2.41-5.83 1.69-8.61-1.13-1.64-1.13-1.64-3.44-3.83l-1.73.4c-13.42 2.93-30.64 5.06-43.19-2.06-3.18-2.74-6.74-6.05-7.38-10.36-.04-8.2 2.79-14.9 8.3-20.98a86 86 0 0 1 6.43-4.64L504 636v-3a214 214 0 0 0-5-4v-2l-1.81-.25c-2.82-.97-3.44-2.37-5.19-4.75l-2.23-1.29c-3.29-2.03-5.89-4.53-8.58-7.27l-1.52-1.5C476 608.25 476 608.25 476 606l-5-4a46 46 0 0 1-6.06-8.62c-1.94-3.38-1.94-3.38-3.5-4.94-2.14-2.14-3.11-4.73-4.44-7.44a257 257 0 0 0-3.82-6.07c-5.97-9.73-9.58-20.71-11.18-31.93-.61-2.6-1.31-5.17-2-7.75a87 87 0 0 1-2-12.25l-.28-2.23c-1.03-8.77-1.77-18.12.28-26.77l.8-3.45c1.87-7.47 3.93-14.07 8.2-20.55l1.04-1.85c4.47-7.32 12.82-12.01 20.96-14.15 7.01-.47 14.09-.32 21 1l-.94-3.81a90 90 0 0 1-1.81-13.81C487 435 487 435 486 432c-.34-3.34-.46-6.7-.62-10.06a236 236 0 0 1-.29-5.48l-.13-2.44C485 412 485 412 486 410q.07-2.62 0-5.25a55 55 0 0 1 1-11.75l.44-3.94c.45-3.82 1.5-7.35 2.56-11.06l.66-5.96c.47-2.8 1.43-5.28 2.52-7.89 1.14-3 1.95-6.06 2.82-9.15 4.09-13.54 8.47-26.41 15-39l1.53-3.08c1.62-3.22 3.39-6.35 5.19-9.48 1.3-2.47 2.4-4.99 3.48-7.56q1.22-2.84 2.55-5.64c3.95-8.51 7.25-16.67 7.25-26.24l-1.66-.76c-6.84-3.62-13.03-8.65-18.34-14.24l-4.12-3.5c-7.04-6.13-9.8-14.44-12.13-23.25l-.56-2c-.89-3.29-1.29-4.94-.19-8.25a184 184 0 0 0 .24-9.2l.08-7.06.06-4.9.15-12.89.16-13.15zm66 527 1 2 1-2zm-13 6 3 3 7-5c-4.18-1.39-6.13.18-10 2" fill="#E4E6E6"/><path d="m739 469 2 1c-4.15 49.08-4.15 49.08-10 70l-.67 2.45a454 454 0 0 1-14.35 43.45q-2.5 6.54-4.98 13.1l-1.41 3.72c-7.14 20.01-10.45 41.22-12.59 62.28-3.37-.55-5.08-1.05-8-3v-2h-2c.27-8.13 1.2-15.87 2.88-23.81l.48-2.35c1.03-4.66 2.34-9.14 3.9-13.65 1.16-3.44 2.12-6.94 3.12-10.44 1.8-6.25 3.88-12.29 6.3-18.33 1.31-3.4 2.49-6.81 3.62-10.27l1.32-3.99.69-2.07 7.04-20.99c2.53-7.5 4.98-15 6.98-22.67q.97-3.46 2.17-6.85c1.89-5.53 3.17-11.2 4.5-16.89l1.5-6.37.74-3.16q1.15-4.77 2.38-9.5c1.07-4.28 1.92-8.47 2.5-12.85.78-5.71.78-5.71 1.88-6.81" fill="#000201"/><path d="M513 474c1.84 3.26 2.62 6.35 3.38 10.01l.77 3.68.42 1.97c7.53 35.38 19.71 69.8 32.11 103.73a330 330 0 0 1 10.82 36.3l.52 2.14A143 143 0 0 1 565 661c-4.62 3-4.62 3-8 3-1.24-2.48-1.34-4.82-1.59-7.56-1.99-21.07-7.6-40.44-14.41-60.44l-.93-2.75a413 413 0 0 0-8.01-21.56 300 300 0 0 1-10.32-30.92 237 237 0 0 1-6.68-35.69q-.38-3.32-.78-6.62A163 163 0 0 1 513 474" fill="#000100"/><path d="M751.63 19.63c6.38 3.14 9.08 7.2 11.69 13.61 2.17 6.5 2.21 12.23 1.2 18.93a145 145 0 0 0-1.05 11.59q-.08 1.1-.13 2.23l-.4 7.14-.14 2.47a545 545 0 0 0-.81 37.27c.06 5.82-.09 11.36-.99 17.13h-1l-1 12h-1c-.2-20.83-.35-41.64.93-62.43l.14-2.16q.62-9.97 1.48-19.92c.95-11.15 1.66-20.48-4.23-30.3-3.97-3.76-8.29-4.84-13.58-5.76-8.95 1.36-16.44 6.84-23.52 12.19-4 3-8.14 5.77-12.29 8.57a933 933 0 0 0-23.97 16.94l-2.02 1.45q-1.96 1.44-3.9 2.94A83 83 0 0 1 672 67l-3-1 2.06-1.62c2.15-1.75 4.22-3.53 6.3-5.37a45 45 0 0 1 8.54-5.74c3.96-2.4 7.57-5.33 11.23-8.15 2.56-1.9 5.13-3.5 7.87-5.12q3.37-2.34 6.67-4.76a870 870 0 0 0 10.07-7.28c9.2-6.7 18.46-12.78 29.88-8.34" fill="#E2E3E5"/><path d="M630 196c3.23 1.14 5.66 2.48 8 5 .88 2.94.88 2.94 0 6a28 28 0 0 1-6 6h-2l.19 2.81c-.19 3.19-.19 3.19-1.31 5.07-2.72 1.63-4.78 1.45-7.88 1.12-2-2-2-2-2.25-4.81-1.05-4.48-3.12-5.47-6.75-8.19-1.44-2.87-1.38-4.82-1-8 5.79-5.64 11.19-5.86 19-5" fill="#626563"/><path d="M747 632v3a26 26 0 0 0 4.12 2.75c5.89 3.74 11.02 8.3 12.88 15.25 1.38 7.13.84 11.81-2.88 18.25-3.85 4.28-9.7 4.8-15.12 5.75l-2.24.4c-4.92.73-9.8.77-14.76.6l-2.45-.05c-6.77-.36-12.78-2.07-19.16-4.22-2.93-.99-5.27-1.73-8.39-1.73l1.61 1.32c7.73 6.52 10.69 11.41 12.29 21.46.11 3.53-.6 5.96-1.9 9.22h-3l.21-3.15c.43-9.04.14-15.77-6.21-22.85-4.47-4.23-9.27-6.85-15-9v-8a88 88 0 0 1 10.44 4.88c16.58 8.38 38.44 11.5 56.56 6.12 2.97-1.86 4.46-2.91 6-6 .7-7.42.62-13.91-4-20-4.49-5-9.8-7.61-16-10 3.62-4 3.62-4 7-4m-57 34 1 2 2-1z" fill="#E7E8E7"/><path d="M495 139h1l.02 2.84q.09 13.33.22 26.66l.11 13.7q.03 6.62.11 13.24l.04 5.03c.07 16.57 2.35 32.78 14.18 45.46 4.3 3.84 9 7.14 13.7 10.46A93 93 0 0 1 534 264c1.45 9.51-3.17 18.95-7.06 27.44l-1.18 2.6a331 331 0 0 1-10.08 19.77 160 160 0 0 0-9.08 20.96l-.91 2.43-.77 2.15C504 341 504 341 501 342c.57-5.6 2.63-9.98 5-15l1.61-3.53c3.1-6.78 6.33-13.42 10.03-19.91 1.65-3.11 2.99-6.31 4.36-9.56l1.75-3.76c3.95-8.51 7.25-16.67 7.25-26.24l-1.66-.76c-6.84-3.62-13.03-8.65-18.34-14.24l-4.12-3.5c-7.04-6.13-9.8-14.44-12.13-23.25l-.56-2c-.89-3.29-1.29-4.94-.19-8.25a184 184 0 0 0 .24-9.2l.08-7.06.06-4.9.15-12.89.16-13.15z" fill="#E6E7E8"/><path d="M565 662v7l-2.12 1c-7.76 3.88-13.97 8.48-18.09 16.29-1.03 3.53-1.01 6.88-.91 10.52l.02 2.1.1 5.09h-3c-2.38-3.58-2.75-5.87-2-10q1.33-3.3 2.75-6.56c2.41-5.83 2.41-5.83 1.69-8.61-1.13-1.64-1.13-1.64-3.44-3.83l-1.73.4c-9.55 2.08-19.6 3.65-29.27 1.6l-1-2 3.05-.08C529.33 674.26 548.77 662 565 662m-4 4 1 2 1-2zm-13 6 3 3 7-5c-4.18-1.39-6.13.18-10 2" fill="#EBEAEE"/><path d="M616 660h21l-1 9c-.18 3.19-.18 6.37-.19 9.56l-.03 2.42c-.02 6.99 1 13.27 4.34 19.52L642 704h-5a61 61 0 0 1-3.49-10.83q-.52-2.2-1.12-4.4c-1.38-5.38-1.29-9.3-.39-14.77l-.06-3.19C632 668 632 668 634 663l-15 1 .49 3.4c.59 4.73.69 9.4.7 14.16l.03 2.46c.02 8.22-1.43 14.05-7.22 19.98h-2l.81-1.94L613 699l.77-1.72c2.96-7.44 2.57-14.98 2.42-22.84l-.04-4.22z" fill="#DCDEE1"/><path d="M592.94 63.85h2.38q3.87-.03 7.75-.02h5.39l11.3-.02q7.25 0 14.49-.03h11.14l5.34-.03h9.69c3.69.01 6.44.2 9.58 2.25v1h-89l-1-2c4.32-1.06 8.52-1.15 12.94-1.15" fill="#F2F4F5"/><path d="M759 101h1l.43 15.64.14 5.33.28 10.05q.13 4.48.15 8.98l.05 6.99q.07 10.83.11 21.66.01 6.54.07 13.1.05 6.33.05 12.67l.04 4.84.02 6.75.02 3.88c-.36 3.11-.36 3.11-1.88 5.05L758 217l-.06-34.94-.01-2.59c-.02-26.17.14-52.31 1.07-78.47" fill="#F1F4F3"/><path d="M711 183v2c-5.54-.76-5.54-.76-7.88-2-11.3-5.32-28.8-2.02-40 1.88A80 80 0 0 0 651 191h-2v-3l5-2v-2c7.23-2.93 14.27-5.77 22-7l2.28-.41c11-1.57 23.38.18 32.72 6.41" fill="#030403"/><path d="M501 342h2a266 266 0 0 1-4.88 16.62c-6.86 22.2-9 45.3-10.12 68.38-2.75-2.75-2.43-4.67-2.69-8.5l-.26-3.53C485 412 485 412 486 410q.07-2.62 0-5.25a55 55 0 0 1 1-11.75l.44-3.94c.45-3.82 1.5-7.35 2.56-11.06l.66-5.96c.48-2.87 1.51-5.43 2.59-8.12 1.14-2.91 1.9-5.92 2.75-8.92 3.73-11.73 3.73-11.73 5-13" fill="#E3E5E6"/><path d="M599 187a17 17 0 0 1 2 4c-3.14-.63-5.45-1.73-8.19-3.38-14.71-8.35-33-8.64-49.11-4.47A91 91 0 0 0 536 186c1-3 1-3 2.5-4.1 18.67-9.28 43.36-6.19 60.5 5.1" fill="#030503"/><path d="M875 461c3.25 2.99 5.42 6.06 7.62 9.88l1.79 3.05A54 54 0 0 1 888 483l1.44 3.12c1.87 4.25 2.85 8.7 3.91 13.21C894 502 894 502 895 505c3.18 18.73 3.18 18.73-1 25-1.14-3.7-1.18-7.27-1.31-11.12-.94-18.19-6.45-34.01-15.83-49.54A91 91 0 0 1 874 464z" fill="#E3E4E6"/><path d="M760 64h1c1.05 11.15 1.15 22.23 1.13 33.42q-.01 4.46.01 8.92l-.01 5.75.01 2.65c-.02 5.18-.4 10.14-1.14 15.26h-1l-1 12h-1c-.24-26.09.11-51.98 2-78" fill="#D7D8D7"/><path d="M495 139h1l.02 2.84q.09 13.33.22 26.66l.11 13.7q.03 6.62.11 13.24l.04 5.03c.04 9.6.54 18.29 3.5 27.53l.86 2.72q1.04 3.15 2.14 6.28c-3.44-1.43-3.9-1.77-5.56-5.38-4.98-14.99-4.98-14.99-3.44-19.62a184 184 0 0 0 .24-9.2l.08-7.06.06-4.9.15-12.89.16-13.15z" fill="#B1B4B3"/><path d="M488 410h1l.14 2.5c1.6 28.68 1.6 28.68 4.27 40.66.59 2.84.59 2.84.59 6.84l-14-3 1-3 9 1-.94-3.81a90 90 0 0 1-1.81-13.81C487 435 487 435 486 432q.47-2.5 1-5c.26-2.93.41-5.87.56-8.81l.13-2.39z" fill="#CFD1D1"/><path d="M500 237c4.54.5 4.54.5 6.56 2.71l1.44 2.23c4.63 6.36 10.7 10.49 17 15.06l4.75 3.56 1.86 1.38A16 16 0 0 1 534 264c.48 6.56-.87 11.82-3 18h-1l1-18-4-2c-5.78-3.9-11.19-7.93-16-13l-4.12-3.5c-2.99-2.57-5.14-4.91-6.88-8.5" fill="#E0E2E2"/><path d="M490 37h1c1.31 20.02 2.37 39.92 2 60-2.49-2.49-2.33-3.42-2.56-6.88l-.22-3.23L490 83l-.14-2.35c-.51-8.95-1.02-17.88-.8-26.85C489 52 489 52 488 51c-.45-5.02-.35-9.45 2-14" fill="#F1F2F3"/><path d="M479 608c3.79 1.55 5.97 3.9 8.75 6.88 6.22 6.48 13.32 11.65 20.62 16.85C510 633 510 633 513 636l-10 4c0-3 0-3 2-6l-3-2.38-3-2.62v-2l-1.81-.25c-2.82-.97-3.44-2.37-5.19-4.75l-2.19-1.25A44 44 0 0 1 479 611z" fill="#E2E4E3"/><path d="M762 431c2.2 4.39 3.21 6.97 3 12l-1 2q-.34 2.81-.56 5.62l-.26 3.04L763 456l7-2 1 2h11v1l-2.96.11-3.98.2-3.9.18c-4.64.39-8.82 1.88-13.16 3.51l1.44-12.19.41-3.48.4-3.37.36-3.1c.36-2.65.83-5.24 1.39-7.86" fill="#D7D9D8"/><path d="M440 498h1l.04 1.99c.85 34.22.85 34.22 6.41 50.2.55 1.81.55 1.81.55 4.81l-4-1c-1.01-3.62-1.47-7.28-2-11-.61-2.6-1.31-5.17-2-7.75-2.6-10.45-2.6-10.45-1-15.25q.22-2.55.32-5.11l.12-2.97.12-3.11.13-3.14z" fill="#E5E6E7"/><path d="m763 395 2 1c.29 1.93.57 3.86.75 5.8.25 2.2.25 2.2.77 4.52.59 3.3.61 6.45.6 9.8l.01 3.7C767 423 767 423 766 426l.12 3.56L766 433l-3 2z" fill="#EAEDEB"/><path d="M782.31 608.63a454 454 0 0 1 11.7.38v1l-1.83-.01q-4.12.02-8.25.13l-2.85-.01c-6 .16-9.4 1.03-13.69 5.31l-1.39 1.58q-1 1.07-2 2.19l-1.57 1.92A35 35 0 0 1 753 629l-3.38 2.25L747 633l-2-2 2.6-1.98c16.55-12.63 16.55-12.63 19.32-17.16 3.87-4.73 9.82-3.49 15.4-3.24" fill="#E7E9E9"/><path d="M493 80h1c.7 18.01 1.17 35.97 1 54h-2c-2.36-18.3-1.59-35.7 0-54" fill="#D9DAD9"/><path d="M617 664c2.2 1.74 2.94 2.61 3.37 5.43l-.01 2.87v3.15l-.05 3.3.01 3.25c-.06 9.08-.82 15.34-7.32 22h-2l.81-1.94L613 699l.75-1.79c2.61-6.86 2.8-13.49 2.94-20.77l.1-3.64q.12-4.4.21-8.8" fill="#E4E6E8"/><path d="M697 671c6.38 3.74 11.63 8.52 14.38 15.5l.62 3.5.4 2c.78 4.57.4 7.75-1.4 12h-3l.21-3.15c.43-9.09.04-15.65-6.21-22.85a48 48 0 0 0-6-5z" fill="#E7E8EA"/><path d="m552 673 4 1-1.61 1.25c-4.83 3.95-8.89 7.53-10.39 13.75-.31 5.03-.24 9.97 0 15h-3c-2.38-3.58-2.73-5.88-2-10 1.45-4.1 3.16-8.06 5-12l1.04-2.33.96-1.67 4-1c1.25-2.06 1.25-2.06 2-4" fill="#D4D3D8"/><path d="M812 608c-5.82 5.82-19.04 4.86-26.9 5.03A43 43 0 0 1 773 611v-1l12.81-.85 4.34-.3 6.29-.41 3.81-.26c3.93-.19 7.82-.21 11.75-.18" fill="#F1F4F1"/><path d="M544 672v2a81 81 0 0 1-15.81 3.19l-2.39.26c-11.41 1.13-11.41 1.13-16.8-.45l-1-2 3.19-.11c8.83-.38 17.13-1.34 25.74-3.37 2.86-.48 4.39-.51 7.07.48" fill="#ECECEF"/><path d="M762 36h2a21 21 0 0 1 1.12 7.75l.01 2.48C765 49 765 49 764.52 52.29c-.68 4.85-.89 9.68-1.13 14.57A61 61 0 0 1 762 78h-1c-.1-14.04-.18-28 1-42" fill="#EEF1EF"/><path d="M616 660h21l-1 9c-2-3-2-3-2-6l-17 1v6h-1z" fill="#D4D5D3"/><path d="M488 389h2q-.85 19-2 38c-2.75-2.75-2.43-4.67-2.69-8.5l-.26-3.53C485 412 485 412 486 410q.07-2.62 0-5.25a57 57 0 0 1 2-15.75" fill="#EEF0F2"/><path d="M747 632v3a26 26 0 0 0 4.12 2.75c4.6 2.89 7.55 5.99 10.88 10.25l-3 2-1.11-1.54c-4.97-6.31-10.59-9.3-17.89-12.46 3.62-4 3.62-4 7-4" fill="#EAEBEB"/><path d="M812 502h1q.55 4.82 1.06 9.62l.32 2.74c.69 6.52.77 11.74-2.38 17.64a69 69 0 0 0-1 4h-2l.4-3.38A475 475 0 0 0 812 502" fill="#D2D5D3"/><path d="M726.54 671.8a397 397 0 0 1 6.64.07l3.43.03q4.2.03 8.4.1v2a19 19 0 0 1-7.03 1.13h-7.2A64 64 0 0 1 718 674c3.4-2.27 4.56-2.24 8.54-2.2" fill="#282B27"/><path d="m812 327 1 3-1.43 1.03c-8.71 6.38-16.03 12.59-21.57 21.97l-2-1a21 21 0 0 1 5.48-8.85l2.09-2.08 2.18-2.13 2.13-2.15c3.82-3.77 7.53-7.01 12.12-9.79" fill="#E1E2E4"/><path d="M439 491h2l-1 29-2-1c-1.03-4.36-1.13-8.6-1.12-13.06l-.01-3.6c.16-4.07.84-7.48 2.13-11.34" fill="#EEEFEF"/><path d="M759 375c1.96.73 1.96.73 4 2 .57 1.95.57 1.95.69 4.25.17 2.73.39 5.13 1 7.81.43 4.04-.55 7.05-1.69 10.94h-1l-1.5-10.25-.43-2.93-.41-2.84-.38-2.6C759 379 759 379 759 375" fill="#E6E7E8"/><path d="M892 500c2.98 2.7 2.98 2.7 3.12 5.38L895 508l.48 2.22c.62 3.34.69 6.51.71 9.9l.04 3.7C896 527 896 527 894 530c-1-3.38-1.2-6.56-1.32-10.08l-.12-3.51-.12-3.66-.13-3.7z" fill="#EFF0F0"/><path d="m716 674 29 1c-7.66 5.11-18.29 3.21-27 2l-2-1z" fill="#EDF0ED"/><path d="M499 628c3.99.56 6.53 1.76 9.81 4.06l2.4 1.66L513 635c-2.1 2.1-3.38 2.65-6.12 3.62l-2.2.79-1.68.59c0-3 0-3 2-6l-3-2.44-3-2.56z" fill="#E9E9ED"/><path d="M754 353c3.46 2.67 3.92 5.9 5 10l1.06 2c1.36 2.9 1.58 5.84 1.94 9h-4l-2-7.69-.58-2.18c-.97-3.8-1.67-7.18-1.42-11.13" fill="#ECEFEE"/><path d="m831 603-1 3c-2.44.88-2.44.88-5.56 1.56l-3.27.74-3.17.7q-2.37.58-4.75 1.19L810 611l-1-4 2.41-.37C817.93 605.6 824.5 603 831 603" fill="#E0E2E1"/><path d="M811 488h2c1.88 7.71 3.78 16.02 3 24l-3 2z" fill="#F0F2F1"/><path d="M803 446c6 4.96 11.46 10.35 16.94 15.88l2.65 2.66L829 471l-2 2-1.72-1.98c-7.08-8.01-7.08-8.01-10.9-11.14-4.61-3.78-9.47-8.16-11.38-13.88" fill="#E8EAEC"/><path d="M849 508h1q.13 4.75.19 9.5l.07 2.69A34.4 34.4 0 0 1 847 536c-2.01-2.82-1.99-4.09-1.57-7.61q.42-2.07.88-4.14l.87-4.11.42-2.04A132 132 0 0 0 849 508" fill="#E4E5E3"/><path d="M760 666h1c.31 2.25.31 2.25 0 5-3.88 4.53-9.27 5.52-15 6-2.31-.46-2.31-.46-4-1v-2l2.45-.3c10.74-1.5 10.74-1.5 14.55-5.7z" fill="#DBDFDA"/><path d="M490 391h1l1 10h-1v6h1v20h-1l-.18-2.37-.26-3.07-.24-3.06C490 416 490 416 489 415q-.15-4.07-.12-8.12l-.02-2.27c.01-4.64.38-9.03 1.14-13.61" fill="#1E2021"/><path d="m496 649 1 2c-.94 2.12-.94 2.12-2 4h-2c.43 6.15 1.65 9.82 5 15l-3 1c-3.86-4.58-4.43-7.78-4.34-13.73.55-3.68 2.75-5.8 5.34-8.27" fill="#272729"/><path d="M544 671c2.44.75 2.44.75 5 2 .81 2.12.81 2.12 1 4l-1.94.31-2.06.69-1 3-4-4z" fill="#F4F2F8"/><path d="M634 666h1c.12 7.08-.15 13.97-1 21-2.97-2.63-2.97-2.63-3.25-5.94.21-2.53.64-4.62 1.25-7.06l-.06-3.12C632 668 632 668 634 666" fill="#F1F1F4"/><path d="M493 28h2l-.96 2.35c-1.34 4.7-1.5 9.16-1.66 14.03L492 54h-1l-1-15-2 3c-.63-5.08 1.52-8.74 4-13z" fill="#CFD0D2"/><path d="M764 407h1q.37 6.43.69 12.88l.22 3.7.16 3.54.18 3.27L766 433l-3 2c-.13-9.41.2-18.62 1-28" fill="#F4F6F4"/><path d="M492 72h1v25c-3.61-3.61-2.97-9.1-3-14a98 98 0 0 1 2-11" fill="#EAEBEA"/><path d="m777 393 3 1c.71 1.86.71 1.86 1.17 4.25l.52 2.59.5 2.72.53 2.73q.66 3.36 1.28 6.71c-3.51-2.23-4.84-4.01-6-8a89 89 0 0 1-.62-6.31l-.23-3.24z" fill="#CFD2D3"/><path d="M778 373h2l-1 24c-2.12-4.24-2.24-6.23-2.19-10.88l.02-3.61A68 68 0 0 1 778 373" fill="#EDEEF0"/><path d="m530 262 4 2c.37 6.57-.86 11.79-3 18h-1l.25-3.36.31-4.39.17-2.21c.25-3.59.27-6.59-.73-10.04" fill="#E2E4E5"/><path d="m747 18 1 3a302 302 0 0 0-5.75.88l-3.23.49A25 25 0 0 0 732 25c-2.25-.38-2.25-.38-4-1 6.27-3.99 11.45-6.46 19-6" fill="#F2F2F5"/><path d="m811 532 2 2a80 80 0 0 1-1.36 5.7c-.87 3.13-1.41 6.31-1.98 9.51L809 551l-3 1 .94-6.31.52-3.55C808 539 808 539 809 536h2z" fill="#EDF0ED"/><path d="M507 325h2c-.66 4.06-1.95 7.54-3.56 11.31l-1.38 3.24L503 342h-2c.64-6.24 3.23-11.46 6-17" fill="#EAEBED"/><path d="M862 335h1c1.2 4.25 1.8 7.54-.39 11.53-2.64 3.42-5 6.06-8.61 8.47l-2-2 2.81-2.12c5.21-4.38 6.53-9.23 7.19-15.88" fill="#DEDFE0"/><path d="M757 215a14 14 0 0 1 3 3c-.07 2.09-.07 2.09-.69 4.38l-.63 2.39A60 60 0 0 1 756 232l-2-1c.59-5.51 1.57-10.65 3-16" fill="#E6E9EB"/><path d="M617 664c1.48 1.04 1.48 1.04 3 3 .33 3.4.33 3.4.25 7.38l-.05 3.96c-.16 3.01-.5 5.73-1.2 8.66h-1a182 182 0 0 1-1-23" fill="#F1F2F6"/><path d="m475 455.88 2.62-.01C480 456 480 456 483 457l-1 3-6.94-.37-3.9-.21-3.16-.43-1-2c2.95-.98 4.93-1.12 8-1.12" fill="#282A2B"/><path d="m552 676 1 2-2.5 2.62c-2.16 2.56-2.49 3.25-2.81 6.76L548 690h-2l-1 3h-2c.31-7.4 3.87-11.87 9-17" fill="#23222B"/><path d="M440 498h1v30h-2c-.8-3.29-1.1-4.71 0-8q.22-2.55.32-5.11l.12-2.97.12-3.11.13-3.14z" fill="#B8BBB8"/><path d="M467 595c5.41 3.17 9.04 7.18 13 12l-2 3-.69-1.75c-1.65-2.83-3.74-4.23-6.31-6.25-4-4.54-4-4.54-4-7" fill="#EAEDEA"/><path d="m497 673 28 1v1q-5.6.34-11.19.62l-3.19.2a359 359 0 0 0-5.94.32c-2.94-.15-5.02-.91-7.68-2.14z" fill="#C7C8C9"/><path d="m775.64 608.6 3.24.05 3.37.1 3.41.06q4.17.06 8.34.19v1l-1.86.04-8.39.27-2.93.07-2.84.1-2.6.09c-2.38.43-2.38.43-4.5 2.03L769 614l-3-1c3.1-3.71 4.84-4.5 9.64-4.4" fill="#C0C2C1"/><path d="m842 425 18 18-2 2-1.21-1.43c-4.13-4.8-8.46-9.25-13.07-13.59C842 428 842 428 842 425" fill="#E7E7E9"/><path d="M812 608c-3.08 3.08-6.74 3.57-11 4a32 32 0 0 1-7-2v-1a135 135 0 0 1 18-1" fill="#EAECE9"/><path d="M462 460c-1.36 4.91-3.7 6.46-8 9l-3 2c0-3 0-3 1.9-5.04l2.48-2.15 2.46-2.17C460 460 460 460 462 460" fill="#1D2020"/><path d="m687 661 4 2v4l4 2-1 3-7-3z" fill="#E1E3DF"/><path d="m780.19 453.44 3.29.3 2.52.26v3l-15-1v-2c3.43-1.14 5.6-.91 9.19-.56" fill="#F0F3F1"/><path d="M823 383h1l.38 2.44.62 2.56 2 1q.61 3.49 1 7h-2l-1 4c-2.44-5.64-2.19-10.98-2-17" fill="#DBDDDC"/><path d="m835 549 1 3-4.81 3.44-2.71 1.93C826 559 826 559 823 560v-3c2.37-1.79 2.37-1.79 5.44-3.62 5.54-3.36 5.54-3.36 6.56-4.38" fill="#DBDBDC"/><path d="M851 512h1l.12 8.25.06 2.36c.06 7.11.06 7.11-2.18 10.39h-2z" fill="#070807"/><path d="M812 502h1q.58 4.93 1.12 9.88l.34 2.83.3 2.72.28 2.51C815 522 815 522 813 524c-1-1-1-1-1.11-3.04l.01-2.65.01-2.86.03-3.01.01-3.02z" fill="#DFE2E0"/><path d="M500 237c3.28.31 4.68.67 7.02 3.07l1.79 2.49 1.83 2.51L512 247c-3.63 0-4.9-1.23-7.57-3.55A25 25 0 0 1 500 237" fill="#E8E8E9"/><path d="M760 64h1l1 17h-1l-1 13h-1c-.12-10.06.12-19.97 1-30" fill="#B1B3B2"/><path d="M749 640c4.52 2.32 7.01 4.99 10 9v2h-2c-2-2-2-2-3-5q-1.99-1.02-4-2l-2-3z" fill="#1D1D1E"/><path d="m825 376 1 2 2 1c-.91 4.69-1.95 9.34-3 14h-1l-.06-6.81-.04-3.83c.1-3.36.1-3.36 1.1-6.36" fill="#E8EAEB"/><path d="m555 666 1 2c-2 3-2 3-3.88 3.58l-2.12.23-2.12.27C546 672 546 672 544 670z" fill="#E2E0E2"/><path d="M503 639v2c-1.43 1.37-1.43 1.37-3.31 2.88-2.64 2.17-4.8 4.23-6.69 7.12l-1-2c1.82-4.92 5.18-10 11-10" fill="#E0E0E2"/><path d="m820.56 557.94 2.44.06v2l-13 4 1-4 2.94-.44c3.1-.57 3.6-1.55 6.62-1.62" fill="#EFEFF0"/><path d="M496 225h3a711 711 0 0 1 3.12 7.62C503 235 503 235 503 237c-1.81-.5-1.81-.5-4-2-1.59-3.14-3-6.45-3-10" fill="#D8DBD9"/><path d="M544 672v2c-5.14 1.85-7.96 2.21-13 0v-1q2.12-.55 4.25-1.06l2.39-.6c2.46-.35 4.02-.11 6.36.66" fill="#DADCDB"/><path d="M877 564c.75 1.62.75 1.62 1 4-2.96 5.6-2.96 5.6-6.25 6.88L870 575c1.49-4.59 3.85-7.44 7-11" fill="#191A1C"/><path d="M475.19 453.94a273 273 0 0 1 5.8.06l1 2-16 1v-2c3.3-1.1 5.75-1.1 9.2-1.06" fill="#EDEFF1"/><path d="M878 568h2c-.57 3.88-2.38 6.15-5 9l-3 1c.51-4.4 3.08-6.87 6-10" fill="#E6E6E9"/><path d="M810 478c2.38 3.7 2.21 6.93 2.12 11.25l-.05 3.83L812 496h-1a453 453 0 0 1-1.62-7.31l-.49-2.09a71 71 0 0 1-.89-5.6z" fill="#D6D6D7"/><path d="M634 696h4l4 8h-5a133 133 0 0 1-3-8" fill="#E2E5E7"/><path d="M794 434c3.89 3.59 6.9 7.74 10 12-3 0-3 0-4.82-1.61l-1.87-2.14-1.88-2.11C794 438 794 438 794 434" fill="#DADDDF"/><path d="m762 656 1 2 2 1c-.62 7.62-.62 7.62-4 11z" fill="#F1F4F1"/><path d="M836 599c-2.79 3.83-6.56 4.22-11 5l-2-2c4.17-2.78 8.1-4.63 13-3" fill="#181B1C"/><path d="m445 555 4 1 1 9c-2.52-2.52-3.71-3.83-5-7z" fill="#EBECED"/><path d="M893 526c2.09 3.4 2.34 6.04 2 10l-2 3h-2l.44-5.38.24-3.02c.32-2.6.32-2.6 1.32-4.6" fill="#E2E3E2"/><path d="m888 490 3 1c.8 1.93.8 1.93 1.31 4.31l.55 2.37C893 500 893 500 891 504z" fill="#DDE0E1"/><path d="M884 478c4.18 3.46 5.33 6.98 7 12-1.89-.26-1.89-.26-4-1-1.05-1.74-1.05-1.74-1.75-3.88l-.73-2.11C884 481 884 481 884 478" fill="#E9E9EC"/><path d="M761 386h2c2.46 5.47 1.71 8.49 0 14h-1z" fill="#DBDEDC"/><path d="M727 293c3.29 1.13 4 1.99 5.75 5.12L734 301l-3 2-2-3.88-1.12-2.17C727 295 727 295 727 293" fill="#E1E4E1"/><path d="M529 278h1c.63 6-1.62 10.63-4 16h-1c.39-5.96 1.37-10.63 4-16" fill="#E4E6E4"/><path d="M739 21c7.43-.29 7.43-.29 11 2-1 1-1 1-3.29 1.1l-2.77-.04-2.79-.02L739 24z" fill="#272729"/><path d="m552 673 4 1-1.68 1.46-2.2 1.92-2.17 1.89A87 87 0 0 0 546 683l-1-3c1.38-1.5 1.38-1.5 3-3h2z" fill="#D5D3DF"/><path d="M442 479h2c-.57 4.69-1.19 9.35-2 14-2-2-2-2-2.01-4.06l.32-2.38.3-2.37C441 482 441 482 442 479" fill="#E5E7E6"/><path d="m770 454 1 2h11v1q-4.18.33-8.38.62l-2.4.2c-2.07.14-4.15.17-6.22.18l-2-2z" fill="#C1C4C3"/><path d="M751 23c3.97 2.1 6.44 4.3 9 8v2h-2v-2l-3-1v-2l-3-1c-.69-2.06-.69-2.06-1-4" fill="#202022"/><path d="M441 523h1q.33 2.88.62 5.75l.36 3.23c.02 3.06-.37 4.48-1.98 7.02-2.01-6.26-2.01-9.74 0-16" fill="#D2D4D3"/><path d="M781 409c2.96 3.36 3.92 6.69 5 11l-2 1c-1.95-3.64-3.53-6.87-4-11z" fill="#E8E9EA"/><path d="m826 396 2 1q.58 3.49 1 7 .45 2.01 1 4h-3c-2.28-8.04-2.28-8.04-1-12" fill="#EBECEC"/><path d="M829 324c-1.76 2.18-2.69 2.94-5.48 3.51l-2.71.18-2.73.2-2.08.11c7.72-5.95 7.72-5.95 13-4" fill="#1B1C20"/><path d="M507 240c3.06 1.74 5.63 3.38 8 6l-1 3c-5.78-4.43-5.78-4.43-6.88-7.31z" fill="#232425"/><path d="M760 666h1c.31 2.25.31 2.25 0 5-4.11 4-4.11 4-7 4v-3a120 120 0 0 1 5-4z" fill="#E2E5E2"/><path d="M450 561c5 7.5 5 7.5 5 11-2.41-.96-3.77-1.69-5.31-3.81-.86-2.73-.45-4.47.31-7.19" fill="#DDE0DE"/><path d="M816 328v3c-2.75 2.25-2.75 2.25-6 4-2.2-.39-2.2-.39-4-1l3.88-3 2.17-1.69C814 328 814 328 816 328" fill="#151618"/><path d="M488 429h1a80 80 0 0 1 1 15c-1.52-1.11-1.52-1.11-3-3-.07-2.92-.07-2.92.31-6.19l.37-3.29z" fill="#F1F3F5"/><path d="m725 256 3 1c-2.49 2.67-4.63 4.56-8 6l-2-2q1.64-1.3 3.31-2.56l1.87-1.44z" fill="#212324"/><path d="M540 693h2v8h-3q-.06-3.5 0-7z" fill="#F2F2F4"/><path d="M706 671c4.03.55 8.02 1.16 12 2l-2 2a43 43 0 0 1-10-2z" fill="#DEDEE1"/><path d="M846 502c1.49 1.14 1.49 1.14 3 3 .29 2.7.29 2.7.19 5.69l-.08 3.01-.11 2.3c-1.79-3.12-2.34-5.68-2.62-9.25l-.23-2.7z" fill="#EEF0EE"/><path d="M849 524c1.12 3.3.9 5.05-.44 8.25l-.87 2.14L847 536c-1.12-1.69-1.12-1.69-2-4 .88-2.75.88-2.75 2-5h2z" fill="#C8CAC7"/><path d="M762 437h1l1 12-3 1z" fill="#F5F8F8"/><path d="m862 331 3 1c1.12 6.75 1.12 6.75 0 9h-2z" fill="#EFF1F3"/><path d="m833 318 3 1Zm2 2v1q-2.18.58-4.38 1.12l-2.46.64-2.16.24-2-2c4.07-2.04 6.59-2.03 11-1" fill="#DFDFE1"/><path d="M463 586c2.92 3.54 5.5 7.16 8 11-3.8-1.49-5.75-3.62-8-7z" fill="#DEE1DE"/><path d="M859 444c3.91 1.27 5.79 2.51 8 6l-3 1a139 139 0 0 1-5-5z" fill="#DCDCDF"/><path d="M793 344h2c-1.53 3.44-3.6 6.12-6 9 0-4.68.88-5.7 4-9" fill="#DBDBE0"/><path d="M739 21c-6.2 4.13-6.2 4.13-9.25 3.62L728 24c6.98-4.34 6.98-4.34 11-3" fill="#EBEBEE"/><path d="M516 20c3.84.3 6.09 1.52 9 4-2.17.95-3.56 1.14-5.82.4q-2.62-1.16-5.18-2.4z" fill="#DCDFDD"/><path d="M828 472c3.16 1.37 3.99 1.99 6 5v3c-1.88-.62-1.88-.62-4-2-1.25-3.12-1.25-3.12-2-6" fill="#E1E2E6"/><path d="M759 442h1l.12 4.31.08 2.43C760 451 760 451 758 454c-1.43-8.57-1.43-8.57 1-12" fill="#0E1010"/><path d="M490 391h1l1 10h-1l-1 5h-1a80 80 0 0 1 1-15" fill="#4B4E50"/><path d="m700 47-9 6c1-4 1-4 2.81-5.81C696 46 696 46 700 47" fill="#D8D8DA"/><path d="M511.63 17.88 515 18l1 3-10-1c2-2 2-2 5.62-2.12" fill="#F2F3F4"/><path d="m781 365 2 1-2 9-2-2c.31-2.94.67-5.35 2-8" fill="#D9D8DD"/><path d="M709 691h1l.5 4.81.28 2.71C711 701 711 701 711 704h-3z" fill="#B9BCBA"/><path d="m491 665 1.75 2.31A28 28 0 0 0 499 673l-3 1-6-7z" fill="#DCDDDE"/><path d="m699.56 663.94 2.44.06 1 3c-1.82.69-1.82.69-4 1-1.75-1.44-1.75-1.44-3-3 1-1 1-1 3.56-1.06" fill="#232228"/><path d="m493 367 2 1-1 8c-2.15-2.15-2.64-3.04-3-6z" fill="#DBDBDC"/><path d="m752 346 2 1c.75 2.94.75 2.94 1 6l-2 2-1.06-3.94-.6-2.21L751 347z" fill="#DADDDB"/><path d="M862 335h1q.37 2.15.69 4.31l.38 2.43C864 344 864 344 861 347z" fill="#CFD1D2"/><path d="m531 272 2 1c-.75 6.75-.75 6.75-3 9-.12-6.62-.12-6.62 1-10" fill="#D0D2D2"/><path d="m568 58 7 4-1 2c-2.44-.75-2.44-.75-5-2-.81-2.12-.81-2.12-1-4" fill="#1B1E1B"/><path d="m882 560 2 3-3 5-3-1z" fill="#D7D7DA"/><path d="m892 500 3 3-2 7h-1z" fill="#EAECEE"/><path d="M797 465c3.35 1.12 3.79 1.75 5.69 4.56l1.32 1.94.99 1.5-2 1-3-3.38-1.69-1.89C797 467 797 467 797 465" fill="#202123"/><path d="m763 395 2 1c.62 3.06.62 3.06 1 6h-2l-1 2z" fill="#F3F6F5"/><path d="m719 275 2 2c-.38 2.62-.38 2.62-1 5-1.5-1.31-1.5-1.31-3-3v-3z" fill="#1E201F"/><path d="m736 247 2 3c-1.31 1.5-1.31 1.5-3 3h-3c1.15-2.47 2.05-4.05 4-6" fill="#1C1F1B"/><path d="m844 599-6 4v-4c2.49-1.25 3.41-.78 6 0" fill="#E4E6E6"/><path d="m806 546 2 8-4 2c.46-3.47.89-6.67 2-10" fill="#CACDCA"/><path d="m839 541 1 4-2-3zm-2 5 1 4-2 1-1-3z" fill="#EEEFEF"/><path d="M732 302c1.94.75 1.94.75 4 2a13 13 0 0 1 1 4h-3z" fill="#EDF1F0"/><path d="M536 267h1l-1 7-3 1a29 29 0 0 1 3-8" fill="#1E211F"/><path d="m675 61 1 3c-1.81 1.56-1.81 1.56-4 3l-3-1 2.44-1.94C674 62 674 62 675 61" fill="#DFDFE3"/><path d="m731 26 1 3c-1 1-1 1-3.56 1.06L726 30l1-3c2-1 2-1 4-1" fill="#1D1C22"/></svg>