<svg style="background:transparent" version="1.1" xmlns="http://www.w3.org/2000/svg" viewBox="0 0 1248 704"><path d="M754.92 32.68c4.87 3.1 7.48 6.68 9.45 12.07 1.31 6.85.8 13.8.13 20.69-.62 6.52-.56 13-.46 19.53l.02 2.5.04 2.2c-.1 2.33-.1 2.33-.59 5.05a90 90 0 0 0-.83 12.35l-.06 2.79a1433 1433 0 0 0-.25 12.52q-.43 23.35-.36 46.7v2.59q.02 12.93.1 25.85l.04 9.76.03 4.57.03 6.3.02 3.59c-.24 3.4-1.07 6.07-2.23 9.26l-.44 3.57c-.6 3.66-1.49 5.39-3.56 8.43l-2.44 4c-3.32 5.27-6.16 8.82-11.56 12l-1.63 2.19-1.37 1.8h-3q-.3.88-.63 1.76c-1.88 3.09-4.32 4.36-7.37 6.25q-2.01 1.49-4 3c1.1 12.9 9.37 24.87 15.15 36.24 3.63 7.14 7.1 14.23 9.85 21.76l1.02 2.7c1.65 4.44 3.17 8.88 4.48 13.43a58 58 0 0 0 3.62 9.44c1.8 3.85 2.36 7.22 2.66 11.43.28 2.56 1.24 4.65 2.22 7q.06 2.5 0 5l1 3q.3 2.69.5 5.38c.21 2.8.47 5.47 1.03 8.22.44 2.28.54 4.22.47 6.53a99 99 0 0 0 .88 13.3c.12 2.7-.3 4.93-.88 7.57v3.5c0 3.1-.36 5.5-1 8.5-1.19 6.38-2.3 12.5-2 19l1.65-.65c8.07-2.98 15.2-3.52 23.35-.35 9.84 4.86 17.81 10.54 22 21 2.82 8.6 5 16.89 5 26l1 2q-.14 3.42-.44 6.82c-.57 6.8-.57 6.8-.53 9.95C815 523 815 523 814 526v2.38c0 4.28-1.1 8.19-2.38 12.25-1.4 4.58-2.66 9.19-3.88 13.83-1.22 4.16-2.9 8-4.87 11.86l-1.07 2.1-.8 1.58c15.51 3.07 32.28 3.7 47.46-1.18q2.55-.81 5.11-1.5A47 47 0 0 0 869 560l2.4-1.55c5.2-3.4 9.03-6.05 11.97-11.63a86 86 0 0 1 5.25-8.63c6.38-10.23 7.16-24.07 4.62-35.66-1.7-5.45-3.8-9.98-7.24-14.53q-.66-1.29-1.3-2.62c-1.99-2.8-3.88-3.86-6.89-5.38-1.8-1-1.8-1-3.77-2.51-8.3-6.02-20.58-5.57-30.37-5.44C841 472 841 472 839 471q-2.84 0-5.66.02c-11.32-.08-19.2-2.66-27.7-10.23-3.86-4.21-4.32-8.34-4.2-13.9 1.04-5.38 4.4-8.53 8.56-11.9 16.27-10.8 40.44-9.13 59-7q3.52.94 7 2c.44.14.44.14 2.66.76 4.73 1.36 9.02 2.85 13.34 5.25l3.44 1.88a95 95 0 0 1 8.94 5.98c1.62 1.14 1.62 1.14 4.18 2.52 2.9 1.93 4.71 4.19 6.9 6.87a30 30 0 0 0 4.66 4.25c3.26 2.83 4.95 5.74 6.88 9.5l1.37 2.4c5.3 9.36 10.3 18.85 11.63 29.6l1 2c.5 4.66.74 9.33 1 14l.13 2.36c.13 4.58-.65 8.76-1.64 13.2a55 55 0 0 0-.87 6.5c-.65 4.1-1.88 7.15-3.66 10.86C935 550 935 550 934.12 553c-1.38 3.68-3.4 6.57-5.68 9.76C927 565 927 565 926.12 567.4a20 20 0 0 1-4.43 6.46l-2 2.12-2.13 2.2-2.19 2.3A217 217 0 0 1 898 597l-2.23 1.88c-7.39 5.69-16.03 8.86-24.63 12.27q-2.67 1.07-5.3 2.2c-5.06 2.17-9.38 3.1-14.84 3.65l-2.63 1.07c-2.89 1.14-5.29 1-8.37.93l-1 1c-2.23.08-4.45 0-6.68-.06-2.32.06-2.32.06-4.24.56-9.79 2.39-21.62.24-31.52-1.06-3.56-.44-3.56-.44-6.19-.37-3.04-.08-5.5-1.11-8.37-2.07q-2.5-.05-5 0l-3-1c-4.07-.54-5.56-.31-8.94 2.13L762 621q-1.68 1.46-3.38 2.88Q752.8 628.9 747 634l3 2c5.85 4.09 9.98 7.48 13 14l1.25 2.44c1.41 4.83 1.23 8.95-.19 13.69-4.56 6.36-10.08 9.05-17.75 10.3-6.6.67-13.12.62-19.75.39l-2.8-.1A43 43 0 0 1 708 673q-4.34-1.58-8.68-3.13C697 669 697 669 695 668l2.77 2.23 3.6 2.96 1.83 1.46c3.44 2.85 5.54 4.93 6.8 9.35l1.06 2.63A50 50 0 0 1 713 701l-2 3c-3.05.36-3.05.36-7.02.34h-2.19q-3.58 0-7.17-.04l-4.97-.02q-6.55-.02-13.09-.07l-13.35-.06q-13.12-.05-26.2-.15-.74-2.13-1.44-4.28l-.8-2.41c-4.1-12.35-3.93-21.7-.77-34.31h-15l1 3c.26 4.04.23 8.08.25 12.13l.06 3.34c.03 6.38.04 12.9-3.3 18.53-3.98 3.89-6.57 4.5-12.07 4.5l-2.09.02-6.8-.02h-4.74l-9.9-.03q-6.37-.04-12.73-.01l-9.78-.02h-4.69q-3.28 0-6.55-.03l-3.76-.02q-1.43-.18-2.9-.4c-2.54-3.8-2.67-6.6-2-11a43 43 0 0 1 17-24l-2.38 1.07c-5.6 2.43-10.53 4.43-16.62 4.94l-3 1c-6.23 1.02-12.15 1.05-18.44.75l-2.7-.08c-7.75-.35-15.54-1.88-21.86-6.67-3.05-5.02-3.83-11.47-2.49-17.18 3.38-7.64 10.31-13.8 17.5-17.82a56 56 0 0 0-8.76-7.68c-4.37-3.18-7.7-7.03-11.17-11.14C484 614 484 614 482 613.02c-2.82-1.44-4.23-3.48-6.18-5.95-4.67-5.9-4.67-5.9-7.05-8.64a117 117 0 0 1-12.2-17.24l-1.29-2.17A57 57 0 0 1 450 567a99 99 0 0 0-2-3.81c-1.85-3.58-2.74-6.95-3.5-10.9a57 57 0 0 0-2.06-6.85c-1.46-4.16-1.99-8.06-2.44-12.44l-1-3q-.56-3.99-1-8l-.29-2.58c-1-9.85-1.2-18.8 1.3-28.42.06-.4.06-.4.45-2.43 2.63-12.54 8.07-22.81 18.84-29.94L461 457l1.9-1.16c7.38-3.58 19.4-2.97 27.1-.84l-.4-1.9-.54-2.6-.53-2.53c-1.38-7.7-1.99-15.5-2.66-23.28l-.3-3.28-.27-3.14-.25-2.85C485 413 485 413 486 410q.06-2.31 0-4.62c-.06-8.46 1.32-16.08 3.31-24.3a59 59 0 0 0 1.2-7.33 48 48 0 0 1 2.61-10.2c1.03-2.97 1.92-5.97 2.82-8.98 1.48-4.86 3.17-9.54 5.12-14.22.94-2.34 1.73-4.7 2.5-7.1A64 64 0 0 1 508 323l2.31-4.68q2.8-5.59 5.81-11.07a158 158 0 0 0 8.83-18.72 87 87 0 0 1 3.24-6.84 25 25 0 0 0 2.81-8.7l-1.44-1.05c-23.4-17.48-23.4-17.48-27.56-24.94l-2.06-3.25c-4-7.13-4.24-15-4.7-23.02q-.16-2.88-.49-5.74c-.98-7.98-.83-15.96-.77-23.98q.17-23.57-.42-47.13l-.06-2.6-.19-7.28q-.01-1.06-.05-2.15c-.13-4.35-.62-8.55-1.26-12.85q-.07-3.96 0-7.93c.08-8.46.08-8.46-.5-12.38-.56-4.1-.52-8.03-.47-12.16-.04-2.92-.54-5.65-1.03-8.53q-.03-2.4 0-4.81c.04-3.32-.09-6.51-.5-9.81l-.26-2.24L489 59c-.89-7.75 1.57-13.6 6-20 6.32-5.6 12.6-8 21-8 3.31 1.25 3.31 1.25 6 3l2.31 1.32c3.18 1.99 6.3 4.08 9.41 6.18q2.34 1.54 4.76 2.95a62 62 0 0 1 7.33 5.49c3.61 2.94 7.02 5.26 11.3 7.08 2.57 1.34 4.64 3.16 6.9 4.98q2.58 1.73 5.24 3.38c5.58 3.48 5.58 3.48 7.63 5.19 6.82 5.36 12.42 4.95 20.81 4.3a832 832 0 0 1 11.13-.57c7.4-.34 14.78-.33 22.18-.28l3.68.02q7.37.05 14.74.14 5.22.06 10.44.08l3.18.06c8.86.03 8.86.03 12.96-3.32l1.88-1.36q.9-.67 1.81-1.4c3.9-2.96 7.9-5.77 11.93-8.57q3.05-2.14 6.07-4.35a82 82 0 0 1 8.5-5.22 60 60 0 0 0 5.68-4.03c3.5-2.7 7.14-4.77 11.04-6.84a30 30 0 0 0 5.15-3.85c8.08-6.53 17.6-7.31 26.86-2.7M690 665v2l3-1zm-128 0-3 3 4-1z" fill="#151715"/><path d="M912.48 452.81c14.63 13.05 24.22 32.37 25.82 51.92q.19 5.86.13 11.7l.06 3.95c0 12.7-3.15 23.88-8.68 35.24l-1.18 2.45A91 91 0 0 1 916 577l-2.52 3.04c-19.13 22.44-47.93 33.72-76.69 36.75-6.59.48-13.19.5-19.79.52l-2.4.01c-15.5.03-30.53-1.46-45.6-5.32 1.74-4 4.36-7.32 7-10.75l1.36-1.83q1.76-2.25 3.64-4.42h2l.68-1.99c1.75-4 4.03-7.58 6.38-11.26l1.4-2.22c3.38-5.38 3.38-5.38 4.54-6.53q2.57.14 5.14.41c17.45 1.6 36.18 2.68 52.86-3.4q1.58-.56 3.23-1.1c6.56-2.46 11.87-5.85 17.4-10.14 2.37-1.77 2.37-1.77 4.55-2.76 2.34-1.3 2.75-2.6 3.82-5q1.37-1.8 2.81-3.5c3.85-5.07 6.01-10.58 8.2-16.5l.96-2.55c4.33-12.44 2.2-24.5-3.26-36.22-5.58-10.17-13.83-16.46-24.7-20.24a80 80 0 0 0-10-2l-3.67-.52c-5.77-.7-11.58-.83-17.39-1-9.9-.39-19.87-1.27-27.33-8.42-3.34-4.13-3.37-8.1-3.07-13.26.75-4.73 2.5-7.29 6.25-10.2 28.52-19.22 76.88-4.28 100.68 16.21" fill="#121413"/><path d="M754.92 32.68c4.87 3.1 7.48 6.68 9.45 12.07 1.31 6.85.8 13.8.13 20.69-.62 6.52-.56 13-.46 19.53l.02 2.5.04 2.2c-.1 2.33-.1 2.33-.59 5.05a90 90 0 0 0-.83 12.35l-.06 2.79a1433 1433 0 0 0-.25 12.52q-.43 23.35-.36 46.7v2.59q.02 12.93.1 25.85l.04 9.76.03 4.57.03 6.3.02 3.59c-.24 3.4-1.07 6.07-2.23 9.26l-.44 3.57c-.6 3.66-1.49 5.39-3.56 8.43l-2.44 4c-3.32 5.27-6.16 8.82-11.56 12l-1.63 2.19-1.37 1.8h-3q-.3.88-.63 1.76c-1.88 3.09-4.32 4.36-7.37 6.25q-2.01 1.49-4 3c1.1 12.9 9.37 24.87 15.15 36.24 3.63 7.14 7.1 14.23 9.85 21.76l1.02 2.7c1.65 4.44 3.17 8.88 4.48 13.43a58 58 0 0 0 3.62 9.44c1.8 3.85 2.36 7.22 2.66 11.43.28 2.56 1.24 4.65 2.22 7q.06 2.5 0 5l1 3q.3 2.69.5 5.38c.21 2.8.47 5.47 1.03 8.22.44 2.28.54 4.22.47 6.53a99 99 0 0 0 .88 13.3c.12 2.7-.3 4.93-.88 7.57v3.5c0 3.1-.36 5.5-1 8.5-1.19 6.38-2.3 12.5-2 19l1.65-.65c8.07-2.98 15.2-3.52 23.35-.35 9.84 4.86 17.81 10.54 22 21 2.82 8.6 5 16.89 5 26l1 2q-.14 3.42-.44 6.82c-.57 6.8-.57 6.8-.53 9.95C815 523 815 523 814 526v2.38c0 4.28-1.1 8.19-2.38 12.25-1.4 4.58-2.66 9.19-3.88 13.83-1.22 4.16-2.9 8-4.87 11.86l-1.07 2.1-.8 1.58c15.51 3.07 32.28 3.7 47.46-1.18q2.55-.81 5.11-1.5A47 47 0 0 0 869 560l2.4-1.55c5.2-3.4 9.03-6.05 11.97-11.63a86 86 0 0 1 5.25-8.63c6.38-10.23 7.16-24.07 4.62-35.66-1.7-5.45-3.8-9.98-7.24-14.53q-.66-1.29-1.3-2.62c-1.99-2.8-3.88-3.86-6.89-5.38-1.8-1-1.8-1-3.77-2.51-8.3-6.02-20.58-5.57-30.37-5.44C841 472 841 472 839 471q-2.84 0-5.66.02c-11.32-.08-19.2-2.66-27.7-10.23-3.86-4.21-4.32-8.34-4.2-13.9 1.04-5.38 4.4-8.53 8.56-11.9 16.27-10.8 40.44-9.13 59-7q3.52.94 7 2c.44.14.44.14 2.66.76 4.73 1.36 9.02 2.85 13.34 5.25l3.44 1.88a95 95 0 0 1 8.94 5.98c1.62 1.14 1.62 1.14 4.18 2.52 2.9 1.93 4.71 4.19 6.9 6.87a30 30 0 0 0 4.66 4.25c3.26 2.83 4.95 5.74 6.88 9.5l1.37 2.4c5.3 9.36 10.3 18.85 11.63 29.6l1 2c.5 4.66.74 9.33 1 14l.13 2.36c.13 4.58-.65 8.76-1.64 13.2a55 55 0 0 0-.87 6.5c-.65 4.1-1.88 7.15-3.66 10.86C935 550 935 550 934.12 553c-1.38 3.68-3.4 6.57-5.68 9.76C927 565 927 565 926.12 567.4a20 20 0 0 1-4.43 6.46l-2 2.12-2.13 2.2-2.19 2.3A217 217 0 0 1 898 597l-2.23 1.88c-7.39 5.69-16.03 8.86-24.63 12.27q-2.67 1.07-5.3 2.2c-5.06 2.17-9.38 3.1-14.84 3.65l-2.63 1.07c-2.89 1.14-5.29 1-8.37.93l-1 1c-2.23.08-4.45 0-6.68-.06-2.32.06-2.32.06-4.24.56-9.79 2.39-21.62.24-31.52-1.06-3.56-.44-3.56-.44-6.19-.37-3.04-.08-5.5-1.11-8.37-2.07q-2.5-.05-5 0l-3-1c-4.07-.54-5.56-.31-8.94 2.13L762 621q-1.68 1.46-3.38 2.88Q752.8 628.9 747 634l3 2c5.85 4.09 9.98 7.48 13 14l1.25 2.44c1.41 4.83 1.23 8.95-.19 13.69-4.56 6.36-10.08 9.05-17.75 10.3-6.6.67-13.12.62-19.75.39l-2.8-.1A43 43 0 0 1 708 673q-4.34-1.58-8.68-3.13C697 669 697 669 695 668l2.77 2.23 3.6 2.96 1.83 1.46c3.44 2.85 5.54 4.93 6.8 9.35l1.06 2.63A50 50 0 0 1 713 701l-2 3h-3l.5-1.93c1.62-9.96-.57-16.32-6.25-24.62-2.72-2.95-5.44-4.44-9-6.26l-3.55-1.83L687 668v-8a95 95 0 0 1 11.37 5.38c17.14 8.64 35.68 9.9 54.46 6.34A16 16 0 0 0 759 668c1.87-5.6 2-12.34-.25-17.87-3.3-5.9-6.45-8.85-12.5-11.94l-3.55-1.83L740 635q3.64-2.93 7.32-5.82A221 221 0 0 0 767 612c1.9-.08 1.9-.08 4.37.19q1.5.14 3.06.32 3.75.53 7.48 1.24c22.81 4.25 48.42 4.42 71.1-.75l3.25-.65c25.86-5.7 50.14-20.91 64.9-43.08 2.5-3.98 4.7-8.08 6.84-12.27l1.72-3.35c5.94-12.2 7.82-23.36 7.72-36.9l-.02-2.07c-.15-20-5.18-38.22-18.42-53.68q-1.14-1.42-2.3-2.9c-13.28-15.87-35.73-24.62-55.7-27.1-4.3-.25-8.57-.28-12.88-.25l-3.45.03c-26.62.34-26.62.34-36.3 9.79-2.08 5.19-2.33 9.93-1.37 15.43 2.16 4.5 5.37 7 9.94 8.88 6.78 2.28 13.98 2.3 21.06 2.56 19.06.85 35.9 2.76 49.7 17.25 7.67 9.18 10.94 20.74 10.74 32.54A69.4 69.4 0 0 1 886 549l-2.13 3.07c-11.6 13.1-28.98 20.06-45.87 22.93-4.2.2-8.39.19-12.59.19q-3 0-6.03.04c-7.69 0-14.88-.5-22.38-2.23.77-3.36 1.98-6.4 3.32-9.58C810.8 538.2 817.14 504.2 807 478c-3.7-8.23-9.34-15.08-17.69-18.87-11.15-3.8-20.37-1.77-31.3 1.87l.86-8.12.24-2.25c.4-3.62.82-7.21 1.4-10.81a166 166 0 0 0 1.86-26.7v-2.16c-.17-36.64-12.08-72.51-29.46-104.53-4.27-7.91-7.68-16.05-10.9-24.43l-1.26-2.65c-.98-3.06-1-4.36.25-7.35a73 73 0 0 1 6.87-5.18l4.12-2.93 2.06-1.47c12.71-9.26 20.5-20.4 23.58-35.93 1.41-9.53.93-19.37.91-28.98l.03-7.78q.04-9.18.05-18.38.02-19.2.1-38.4l.02-3.94c.08-18.9.57-37.7 1.7-56.55a368 368 0 0 0 .76-22.33c-.38-5.97-2.53-9.57-6.83-13.56-5.49-3.62-10.94-3.4-17.37-2.57-4.42 1.76-8.12 4.29-12 7l-3.64 2.46a913 913 0 0 0-10.16 7q-5.8 4.04-11.64 7.98c-4.84 3.3-9.65 6.6-14.4 10.02l-2.35 1.68q-2.19 1.57-4.38 3.17l-1.99 1.43q-.85.6-1.73 1.26c-4.12 2.42-8.54 2.14-13.2 2.1h-2.27l-4.87-.02-7.72-.02-19.18-.07-16.2-.04-7.58-.03-4.69-.01-2.1-.02c-3.47 0-6.8.2-10.23.69-4.25.49-5.39 0-8.75-2.5l-2.74-1.97-2.87-2.17-6.14-4.45-3.1-2.28A405 405 0 0 0 549 55.63l-5.17-3.42-2.47-1.63q-3.36-2.25-6.69-4.53C516.52 33.64 516.52 33.64 507 35c-5.77 2.58-10.14 6.28-13 12q-.14 2.8-.13 5.6v10.67c0 6.93.31 13.77.85 20.68.67 9.2.9 18.45 1.22 27.68l.13 3.5q.87 23.97 1.31 47.93l.16 8.55.12 5.7.05 2.86.3 16.92q.07 5.35.18 10.7l.08 4.99c.17 16.65 3.43 30.79 15.23 43.22a98 98 0 0 0 14.94 11.6c4.24 2.84 4.24 2.84 5.61 5.24-.08 3.38-1.26 6.3-2.49 9.4l-.82 2.14a209 209 0 0 1-12.64 25.98c-23.48 41.72-33.8 91.13-25.47 138.4.61 3.73.98 7.48 1.37 11.24l-2.75-.65c-12.25-2.8-21.09-3.75-32.38 2.34-10.53 8.47-14.6 18.22-16.87 31.3-.4 4.94-.43 9.82-.38 14.76l.03 4c.15 9.77.97 18.77 3.35 28.25l.5 2.15a137.6 137.6 0 0 0 32.15 61.35q1.96 2.2 3.88 4.44c8.03 9.16 17.23 16.33 27.16 23.34A39 39 0 0 1 514 636l-1.94.7c-7.88 2.97-13.8 5.48-18 13.05-2.18 4.83-3 9-2.06 14.25 1.42 3.63 2.54 4.72 5.87 6.75 17.64 7.06 40.12 1.68 56.9-5.25 3.23-1.5 3.23-1.5 6.03-3.18C563 661 563 661 565 661v8l-2.42 1.07c-8.22 3.83-14.66 7.86-18.12 16.63-1.12 5.63-.66 11.59-.46 17.3h-3c-2.54-3.81-2.67-6.6-2-11a43 43 0 0 1 17-24l-2.38 1.06c-5.6 2.43-10.53 4.43-16.62 4.94l-3 1c-6.23 1.02-12.15 1.05-18.44.75l-2.7-.08c-7.75-.35-15.54-1.88-21.86-6.67-3.05-5.02-3.83-11.47-2.49-17.18 3.38-7.64 10.31-13.8 17.5-17.82a56 56 0 0 0-8.76-7.68c-4.37-3.18-7.7-7.03-11.17-11.14C484 614 484 614 482 613.02c-2.82-1.44-4.23-3.48-6.18-5.95-4.67-5.9-4.67-5.9-7.05-8.64a117 117 0 0 1-12.2-17.24l-1.29-2.17A57 57 0 0 1 450 567a99 99 0 0 0-2-3.81c-1.85-3.58-2.74-6.95-3.5-10.9a57 57 0 0 0-2.06-6.85c-1.46-4.16-1.99-8.06-2.44-12.44l-1-3q-.56-3.99-1-8l-.29-2.58c-1-9.85-1.2-18.8 1.3-28.42.06-.4.06-.4.45-2.43 2.63-12.54 8.07-22.81 18.84-29.94L461 457l1.9-1.16c7.38-3.58 19.4-2.97 27.1-.84l-.4-1.9-.54-2.6-.53-2.53c-1.38-7.7-1.99-15.5-2.66-23.28l-.3-3.28-.27-3.14-.25-2.85C485 413 485 413 486 410q.06-2.31 0-4.62c-.06-8.46 1.32-16.08 3.31-24.3a59 59 0 0 0 1.2-7.33 48 48 0 0 1 2.61-10.2c1.03-2.97 1.92-5.97 2.82-8.98 1.48-4.86 3.17-9.54 5.12-14.22.94-2.34 1.73-4.7 2.5-7.1A64 64 0 0 1 508 323l2.31-4.68q2.8-5.59 5.81-11.07a158 158 0 0 0 8.83-18.72 87 87 0 0 1 3.24-6.84 25 25 0 0 0 2.81-8.7l-1.44-1.05c-23.4-17.48-23.4-17.48-27.56-24.94l-2.06-3.25c-4-7.13-4.24-15-4.7-23.02q-.16-2.88-.49-5.74c-.98-7.98-.83-15.96-.77-23.98q.17-23.57-.42-47.13l-.06-2.6-.19-7.28q-.01-1.06-.05-2.15c-.13-4.35-.62-8.55-1.26-12.85q-.07-3.96 0-7.93c.08-8.46.08-8.46-.5-12.38-.56-4.1-.52-8.03-.47-12.16-.04-2.92-.54-5.65-1.03-8.53q-.03-2.4 0-4.81c.04-3.32-.09-6.51-.5-9.81l-.26-2.24L489 59c-.89-7.75 1.57-13.6 6-20 6.32-5.6 12.6-8 21-8 3.31 1.25 3.31 1.25 6 3l2.31 1.32c3.18 1.99 6.3 4.08 9.41 6.18q2.34 1.54 4.76 2.95a62 62 0 0 1 7.33 5.49c3.61 2.94 7.02 5.26 11.3 7.08 2.57 1.34 4.64 3.16 6.9 4.98q2.58 1.73 5.24 3.38c5.58 3.48 5.58 3.48 7.63 5.19 6.82 5.36 12.42 4.95 20.81 4.3a832 832 0 0 1 11.13-.57c7.4-.34 14.78-.33 22.18-.28l3.68.02q7.37.05 14.74.14 5.22.06 10.44.08l3.18.06c8.86.03 8.86.03 12.96-3.32l1.88-1.36q.9-.67 1.81-1.4c3.9-2.96 7.9-5.77 11.93-8.57q3.05-2.14 6.07-4.35a82 82 0 0 1 8.5-5.22 60 60 0 0 0 5.68-4.03c3.5-2.7 7.14-4.77 11.04-6.84a30 30 0 0 0 5.15-3.85c8.08-6.53 17.6-7.31 26.86-2.7M690 665v2l3-1zm-128 0-3 3 4-1z" fill="#E3E4E6"/><path d="M578 496h2a34 34 0 0 1 3 3.44c8.81 10.21 21.86 21.98 36 23.56 16.39 1.12 28.73-4.24 41.22-14.68C662 507 662 507 664 507l.81-1.77a32 32 0 0 1 4.19-5.98l1.56-1.86C672 496 672 496 674 496a28.5 28.5 0 0 1-3.94 11.69l-1.59 2.82q-1.66 2.79-3.47 5.49h-2l-.71 1.75c-3.91 6.83-13.16 12.22-20.29 15.25h-3l.18 2.11a643 643 0 0 1 2.13 54.83v3.84c-.07 56.73-.07 56.73-4.31 65.22h-21c-2.25-6.75-2.25-6.75-2.6-10.21l-.24-2.34-.22-2.39-.24-2.28q-.38-3.88-.7-7.78l-.27-3.08c-.98-12.42-.93-24.85-.92-37.3v-3.52c0-19.1.59-38.07 2.19-57.1l-2.82-1.33c-12.84-6.17-12.84-6.17-18.12-11.36l-1.6-1.53c-6.45-6.4-11.33-13.65-12.46-22.78" fill="#000"/><path d="M738 470h1c1.01 24.43-3.72 50.76-11 74l-.97 3.11a800 800 0 0 1-11.78 35.46q-2.49 6.86-4.87 13.74l-.88 2.5-1.69 4.87q-.75 2.16-1.56 4.3c-2.67 7.29-3.96 14.92-5.41 22.53l-1.41 7.25c-1.39 7.15-2.73 14.22-3.23 21.49C696 661 696 661 695 663c-2.17-.51-4-1-6-2v-2h-2c-.56-12.01 2.8-23.55 6-35l1.94-7.44A486 486 0 0 1 702 593l.77-2.48c1.44-4.5 3.18-8.84 4.98-13.21 3.64-8.92 6.47-18.07 9.31-27.27q1.46-4.7 2.95-9.39c4.27-13.54 8-27.14 11.32-40.95q1.06-4.18 2.23-8.35c1.29-4.65 2.29-9.29 3.13-14.04l.39-2.16z" fill="#010201"/><path d="M514 475c1.8 3.24 2.68 6.36 3.52 9.96l.84 3.58.89 3.84 1.91 7.98.48 2.01c4.81 20 11.14 39.37 17.74 58.83q6.9 20.37 13.62 40.8l1.01 3.03c3.55 10.75 6.11 21.63 8.37 32.72l.79 3.9c2.4 12.28 2.4 12.28 1.83 18.35-2.31 2.5-2.31 2.5-5 4h-3l-.12-1.83c-1.08-15.77-2.71-31.22-8.19-46.17-.69-2-.69-2-1.48-5.34-1.59-6.48-3.83-12.78-5.96-19.1l-1.36-4.04c-7.46-22.23-7.46-22.23-10.61-30.39-10.09-26.14-13.87-54.32-15.28-82.13" fill="#000201"/><path d="M760 109h1c.96 25.83 1.14 51.67 1.18 77.52l.03 7.82.02 12.5.01 4.67v6.47l.01 3.68c-.26 3.44-1.08 6.12-2.25 9.34l-.44 3.56c-.6 3.67-1.48 5.4-3.56 8.44l-2.44 4c-3.32 5.27-6.16 8.81-11.56 12l-1.62 2.19L739 263h-3l-.62 1.75c-1.89 3.09-4.33 4.36-7.38 6.25q-2.01 1.48-4 3c1.1 12.9 9.37 24.87 15.16 36.24 3.62 7.14 7.08 14.23 9.84 21.76l1.02 2.7c1.65 4.44 3.18 8.87 4.48 13.42a59 59 0 0 0 3.62 9.44c1.8 3.85 2.37 7.23 2.67 11.44.27 2.55 1.23 4.64 2.21 7q.06 2.5 0 5l1 3q.3 2.68.5 5.38c.22 2.79.47 5.47 1.03 8.21.45 2.28.54 4.22.47 6.53-.07 5.34.45 10.58 1 15.88l-2 1-.38-3.25c-4.42-37.49-11.31-73.31-29.5-106.94-5-9.4-9.31-18.87-13.12-28.81l-1.24-2.65c-.99-3.06-1.01-4.36.24-7.35a72 72 0 0 1 6.88-5.19l4.11-2.92 2.06-1.47c13.64-9.95 20.93-21.83 23.95-38.42.52-5.24.58-10.44.57-15.7l.05-4.44q.04-4.65.05-9.32.03-7.24.1-14.5l.12-14.48q.15-19.78.67-39.56l.14-5.36z" fill="#EBEDEC"/><path d="m769.1 611.95 5.63.63q6.9.9 13.79 1.88A343 343 0 0 0 830 618v2c-10.3 3.11-22.93.81-33.44-.57-3.56-.43-3.56-.43-6.18-.37-3.04-.08-5.5-1.1-8.38-2.06a93 93 0 0 0-5 0l-3-1c-4.07-.55-5.56-.32-8.94 2.12L762 621l-3.37 2.87Q752.78 628.9 747 634l3 2c5.85 4.08 9.98 7.47 13 14l1.25 2.43c1.4 4.83 1.23 8.96-.2 13.7-4.55 6.36-10.07 9.04-17.74 10.3-6.6.66-13.12.61-19.75.38l-2.8-.09A43 43 0 0 1 708 673l-8.68-3.14C697 669 697 669 695 668l2.78 2.23 3.6 2.95q.9.74 1.82 1.47c3.44 2.84 5.55 4.92 6.8 9.35l1.06 2.62A50 50 0 0 1 713 701l-2 3h-3l.5-1.94c1.63-9.96-.57-16.32-6.25-24.62-2.72-2.95-5.43-4.44-9-6.26l-3.55-1.83L687 668v-8a95 95 0 0 1 11.38 5.37c17.13 8.64 35.68 9.91 54.45 6.34a16 16 0 0 0 6.17-3.7c1.87-5.6 1.99-12.36-.25-17.89-3.3-5.89-6.45-8.85-12.5-11.94l-3.55-1.83L740 635q3.65-2.93 7.33-5.83c5.13-4.05 15.56-17.08 21.77-17.22M690 665v2l3-1z" fill="#E4E7E5"/><path d="M492 50h1a2891 2891 0 0 1 4.38 112.96l.16 8.57.06 2.87.11 5.73q.17 8.48.29 16.96.08 5.35.2 10.7l.07 4.98c.19 17.87 4.48 31.82 16.73 45.23-5.19-1.03-8.69-4.09-11.62-8.38L502 247l-2.06-3.25c-4.01-7.14-4.23-15.01-4.69-23.03-.13-1.91-.26-3.83-.5-5.73-.98-7.98-.83-15.96-.77-23.99q.17-23.56-.42-47.12l-.06-2.6-.18-7.29-.05-2.15A109 109 0 0 0 492 119q-.07-3.97 0-7.94c.08-8.46.08-8.46-.5-12.37-.56-4.1-.52-8.02-.46-12.15-.04-2.54-.04-2.54-.6-5.79-.44-2.76-.14-4.87.29-7.6.55-4.34.65-8.72.83-13.09l.13-2.94z" fill="#E5E7E6"/><path d="M533.72 41.5q2.34 1.53 4.76 2.94a60 60 0 0 1 7.33 5.5c3.62 2.94 7.02 5.25 11.3 7.08 2.57 1.34 4.64 3.16 6.89 4.98a223 223 0 0 0 5.25 3.38c5.58 3.48 5.58 3.48 7.63 5.19 6.86 5.41 12.6 4.94 21.06 4.31q4.35-.25 8.72-.44l2.39-.12c10.47-.5 20.94-.46 31.4-.45l10.18-.01 6.3.01 2.95-.01 2.7.01h2.38C667 74 667 74 670 75v2l-2.94.03-27.55.31-14.15.16-13.68.15-5.2.06-7.32.08-2.15.02c-3.5.05-6.9.28-10.35.77-4.24.49-5.38 0-8.73-2.49l-2.74-1.98-2.88-2.17-6.13-4.45-3.12-2.28c-4.6-3.32-9.32-6.46-14.06-9.59l-5.17-3.42-2.47-1.63q-3.36-2.24-6.7-4.52C516.53 33.64 516.53 33.64 507 35c-5.91 2.64-10.34 6.39-13.07 12.34a24 24 0 0 0-1.34 7.74l-.12 2.82-.1 2.91-.11 2.97q-.15 3.61-.26 7.22c-2.66-3.99-2.65-7.31-3-12l-.44-3.81c.12-6.01 3.1-11.35 6.44-16.19 13.88-12.29 24.94-6.82 38.72 2.5" fill="#E7E8E6"/><path d="M631 209c3.29 1.12 6.5 2.5 9 5 .47 3.4.18 4.73-1.75 7.62-2.25 2.38-2.25 2.38-4.37 3.76-2.77 2.39-3.04 5.15-3.88 8.62l-1 1c-6.6-.6-6.6-.6-9-3l-.25-2.81C619 226 619 226 616 223.56c-3-2.56-3-2.56-4.19-6.12.19-3.44.19-3.44 2.5-5.82 5.49-3.31 10.34-3.22 16.69-2.62" fill="#606262"/><path d="M796 573c2.69.18 5.33.62 8 1l-1.69 2.25c-3.25 4.83-5.18 10.36-7.31 15.75h-2l-.23 2.12c-.99 3.7-2.79 5.93-5.15 8.94l-2.39 3.1L783 609l-1.57 2.35C780 613 780 613 776.56 613.31A33 33 0 0 1 769 612c1.74-4 4.36-7.32 7-10.75l1.37-1.82q1.75-2.27 3.63-4.43h2l.68-1.98c1.75-4.01 4.04-7.58 6.38-11.27l1.4-2.22c3.39-5.38 3.39-5.38 4.54-6.53" fill="#010201"/><path d="M488 409h1l.14 2.59c1.6 29.72 1.6 29.72 4.27 41.61.59 2.8.59 2.8.59 6.8l-2.75-.66c-12.25-2.8-21.09-3.75-32.37 2.35-10.23 8.22-15.24 18.37-16.88 31.31-.59 7.32-.82 14.66-1 22h-1l-.18-3.8-.26-4.95-.12-2.5-.12-2.42-.11-2.22c-.21-2.11-.21-2.11-.77-4.19-.73-3.18.53-5.93 1.56-8.92l.82-2.55c4.08-12.1 9.08-19.76 20.18-26.45l1.89-1.16c7.39-3.58 19.41-2.97 27.11-.84l-.4-1.91-.54-2.59-.52-2.53c-1.56-8.65-1.49-16.69-1.1-25.47l.16-3.94q.18-4.78.4-9.56" fill="#DDDEE0"/><path d="M616 660h20l-.11 5.52-.08 7.29-.07 3.63c-.09 10.13.86 19.39 7.26 27.56h-6c-5.08-14.94-6.88-25.48-3-41h-15l1 3c.26 4.04.23 8.08.25 12.12l.06 3.35c.03 6.55-.26 12.61-3.31 18.53-2.69 2.56-2.69 2.56-5 4l-2-1 2.93-4.69c3.72-8.04 3.31-16.11 3.19-24.81l-.02-3.94z" fill="#EEEFF1"/><path d="M882.88 432.31q1.05.44 2.13.87l1.99.82 2.57.93c5.38 2.35 10.1 5.45 14.8 8.92a26 26 0 0 0 4.2 2.52c2.88 1.93 4.7 4.2 6.88 6.87a31 31 0 0 0 4.67 4.26c3.25 2.83 4.96 5.73 6.88 9.5l1.37 2.4c5.3 9.35 10.3 18.85 11.63 29.6l1 2-1 3q-.21 2.33-.32 4.67l-.12 2.7-.12 2.82-.14 2.84-.3 6.97h-1l-.02-1.86c-.45-22.68-3.75-43.36-18.99-61.14l-2.3-2.9c-10.03-11.99-25.89-19.87-40.7-24.1v-2c3.35-1.1 3.8-.96 6.88.31" fill="#DDDDE1"/><path d="M762 46c2.96 2.72 2.96 2.72 3.33 5.28l-.08 2.66-.08 3a221 221 0 0 1-.67 8.5c-.62 6.51-.56 12.99-.46 19.53l.02 2.49.04 2.21c-.1 2.33-.1 2.33-.58 4.92-.73 4.83-.76 9.62-.84 14.5l-.24 13.29-.13 6.85L762 146h-1l-1 6h-1c-.47-35.45.8-70.62 3-106" fill="#E6E8E7"/><path d="M836 469q4.93-.08 9.88-.12l2.78-.06c13.6-.09 26.47 3.43 36.78 12.74a44.3 44.3 0 0 1 11.62 30.69l-.01 2.26L897 520l-3-2c-.15-2.4-.15-2.4.06-5.38.23-9.2-2.53-17.3-8.06-24.62l-1.31-2.62c-1.98-2.79-3.87-3.87-6.87-5.39-1.82-.99-1.82-.99-3.77-2.51-8.29-6.01-20.55-5.57-30.32-5.44-3.01-.04-5.03-.77-7.73-2.04z" fill="#E6E7E8"/><path d="M760 109h1c.93 25.04 1.16 50.08 1.23 75.13l.05 10.51q.04 6.29.04 12.58l.03 4.71.02 10.21L762 225l-3 2q-.04-17.4-.06-34.81l-.01-2.59c-.02-26.88.18-53.73 1.07-80.6" fill="#F1F2F1"/><path d="M559.71 188.88c11.71-.26 22.5 1.54 33.3 6.12l2.41 1c2.2 1 2.2 1 5.58 3 .71 2.13.71 2.13 1 4a49 49 0 0 1-6.66-2.92c-13.53-7.48-33.23-9.2-48.27-5.76A26 26 0 0 0 540 198h-2c.98-2.45 1.64-3.77 3.88-5.23 6-2.56 11.36-3.6 17.83-3.9" fill="#030404"/><path d="M633.33 73.87h20.7l3.82-.01 3.51.01h3.1C667 74 667 74 670 75v2h-84l1-2c15.44-1.08 30.86-1.16 46.33-1.13" fill="#F0F2F4"/><path d="M711 194v2l-1.63-.66c-16.15-5.46-35.2-3.41-50.37 3.66q-3.54 1.94-7 4h-2c2.28-5.56 6.74-7.56 12-10 14.68-5.32 35.35-8.1 49 1" fill="#030403"/><path d="M882 606c-9.28 5.01-18.85 8.21-29 11l-3.56 1.12a32 32 0 0 1-9.44.88l-1 1q-3.16-.33-6.3-.71c-4.74-.51-9.5-.66-14.26-.85l-3.06-.13L808 618v-1l2.09-.04c22.52-.53 44.16-2.14 65.1-11.07 2.87-.91 4.06-.98 6.81.11" fill="#E2E4E5"/><path d="M758 224c2.02 2.22 3.01 3.34 2.96 6.4-1.09 4.73-2.11 8.59-4.96 12.6l-2.44 4c-3.32 5.27-6.16 8.81-11.56 12l-1.62 2.19L739 263h-3l-.62 1.75c-2.34 3.82-5.94 5.71-10.07 7.25-2.73 1.18-3.74 2.52-5.31 5 .07-2.18.07-2.18 1-5a72 72 0 0 1 6.88-5.19l4.11-2.92 2.06-1.47c13.98-10.19 20.31-21.89 23.95-38.42" fill="#E3E4E5"/><path d="M763 407h1l1 8.56.29 2.43c.74 6.47 1.21 12.6-.29 19.01-3.29 17.42-3.29 17.42-1 22l-6 2 1.15-10.63q.77-7.08 1.91-14.12c1.46-9.68 1.61-19.48 1.94-29.25" fill="#DEE1E1"/><path d="M497 194h1l.03 2.91q.06 5.46.18 10.9l.06 4.68c.17 18 4.4 32 16.73 45.51-5.19-1.03-8.69-4.09-11.62-8.38L502 247l-2.06-3.25c-3.83-6.78-4.24-14.1-3.92-21.72l.08-2.45q.13-3.83.28-7.64l.17-5.23q.21-6.36.45-12.71" fill="#D0D2D2"/><path d="M760 81h1a712 712 0 0 1 1.06 44.31l-.01 6.07L762 146h-1l-1 6h-1q-.04-9.87-.05-19.73l-.03-6.68c-.05-14.89.25-29.71 1.08-44.59" fill="#C5C6C5"/><path d="M923 464c5.08 1.69 6.64 6.4 9 11q1.99 4.3 3.81 8.69l.92 2.16A48 48 0 0 1 940 499l1 2-1 3a91 91 0 0 0-.32 4.67l-.12 2.7-.25 5.67L939 524h-1l-.03-1.86c-.35-18.48-2.36-33.33-11.17-49.71A71 71 0 0 1 923 464" fill="#DDDDE0"/><path d="M517 32v2l-1.91.04c-7.93.44-12.99 2.69-18.47 8.46a23 23 0 0 0-4.03 12.58l-.12 2.82-.09 2.91L492 71c-2.66-3.99-2.65-7.31-3-12l-.44-3.81c.12-6.01 3.1-11.35 6.44-16.19 4.57-4.05 9.42-6.93 15.5-7.62l2.41-.29C515 31 515 31 517 32" fill="#EBE9ED"/><path d="M456 462a39 39 0 0 1-4.94 7.88C441.03 483.2 441.39 498.99 441 515h-1l-.18-3.8-.26-4.95-.12-2.5-.12-2.42-.11-2.22c-.21-2.11-.21-2.11-.77-4.19-.73-3.18.53-5.93 1.56-8.92l.82-2.55C448.06 462 448.06 462 456 462" fill="#DBDCDC"/><path d="M897 508h1c1.55 16.29-4.62 32.08-14.88 44.62L881 555l-2-2 1.1-1.62A726 726 0 0 0 885 544l1.63-2.4c3.57-5.52 5.42-10.59 6.73-17.03C894 522 894 522 896 519c.41-2.7.41-2.7.62-5.69l.23-3.01z" fill="#E2E3E6"/><path d="m788 616 4.38-.06 2.46-.04a101 101 0 0 1 7.78.57c5.66.59 11.32.86 17 1.09l3.05.13 7.33.31v2c-9.05 2.74-19.74.93-29 0l-2.97-.29L791 619v-2z" fill="#EFF0F2"/><path d="M797.62 460.15q1.18.9 2.38 1.85v4l-1.62-1.21c-11.57-8.22-21.76-8.52-35.38-6.8l1-3c12.68-4.3 22.21-1.2 33.62 5.16" fill="#E9EAEE"/><path d="M761 656h4c.32 5.26.06 8.64-3 13-8.42 6.95-16.04 7.68-26.65 6.77q-3.17-.36-6.35-.77v-1l2.02-.14q4.55-.32 9.1-.67l3.18-.22c10.2-.8 10.2-.8 14.7-3.97 1.97-2.79 2.33-5.39 2.62-8.75l.23-2.42z" fill="#DFE3E0"/><path d="M492 50h1q.44 7.68.85 15.36l.3 5.2c.63 11.16.99 22.26.85 33.44h-1l-1-10h-1q-.55-3.78-1.06-7.56l-.32-2.14c-.62-4.69-.38-8.59.38-13.3.26-3.64.41-7.29.56-10.94l.13-2.94z" fill="#B6B7B7"/><path d="M489 401h1l1 9h1l1 18h-2l.56 3.19A21 21 0 0 1 491 440h-1c-1.1-8.38-1.12-16.68-1.06-25.12l.01-4.06z" fill="#232526"/><path d="M439 497h1c.65 10.35 1.16 20.63 1 31l-3-2a77 77 0 0 1-.04-5.87c.04-2.13.04-2.13-.46-5.44-1.74-12.83-1.74-12.83 1.5-17.69" fill="#ECEDEC"/><path d="M758 224c2.02 2.22 3.01 3.34 2.96 6.4-1.09 4.71-2.07 8.64-4.96 12.6l-1.2 1.82c-3.4 5.05-3.4 5.05-6.8 6.18a80 80 0 0 1 4.44-9.56c2.85-5.59 4.27-11.32 5.56-17.44" fill="#E4E3E6"/><path d="M496 97h1c.78 15.75 1.17 31.27 0 47h-1a872 872 0 0 1-1.12-37.56l-.02-2.56c.02-5.76.02-5.76 1.14-6.88" fill="#2A2D2C"/><path d="M939 504c3.74 3.74 2.95 9.88 3.19 14.94-.08 6.14-1.68 12.13-3.19 18.06h-2z" fill="#F2F2F5"/><path d="M767 612c8.36.21 16.74 1.76 25 3l-1 4c-7.62-.88-7.62-.88-11-2a57 57 0 0 0-13-1l-1-3z" fill="#E3E5E5"/><path d="M750 637c5.4 2.29 9.15 5.3 11.75 10.5L763 651l1.19 2.94.81 2.06h-2v7h-1l-.33-1.72c-2-9.73-5.51-16.37-12.67-23.28z" fill="#E9E9EC"/><path d="M473.01 453.9a395 395 0 0 1 7.1.05l5.9.05q.48 1.49 1 3l-3.2-.1c-10.66-.26-18.29.97-27.8 6.1v-3l4.8-2.44 2.71-1.37c3.3-1.59 5.86-2.32 9.5-2.29" fill="#E6E9E9"/><path d="M496 186h1v34c-4.21-6.32-3.12-15.04-3.19-22.44l-.04-2.4c0-3.91.01-5.83 2.23-9.16" fill="#EEF0F0"/><path d="M746 30c7.05 1.36 11.15 3.38 15.72 8.96A15.5 15.5 0 0 1 764 45l-3 2-.7-1.61c-2.46-5.33-4.91-8.69-10.3-11.39q-2.55-.34-5.12-.56l-2.76-.26L740 33v-1l6-1z" fill="#E9ECEA"/><path d="M846 616c-2 3-2 3-4.24 3.55l-2.64.2-2.61.23c-2.51.02-2.51.02-4.34-.46-2.49-.6-4.82-.73-7.37-.84l-2.97-.12-3.08-.12-3.13-.13L808 618v-1l12.25-.5 3.45-.14q11.15-.45 22.3-.36" fill="#CDCED1"/><path d="M849 427v2l-11.69 1.5-3.34.43-3.23.41-2.97.38c-2.61.26-5.15.33-7.77.28v-2a122 122 0 0 1 29-3" fill="#E5E5EB"/><path d="M488 396h1c.16 10.37-.35 20.65-1 31-2.15-3.23-2.38-4.72-2.69-8.5l-.26-2.91C485 413 485 413 486 410c.03-2.52-.07-5.01-.16-7.53.17-2.65.82-4.2 2.16-6.47" fill="#EFF2F4"/><path d="M441 523h1l1.44 8.06.41 2.28q1.2 6.81 2.15 13.66c-3-1-3-1-4.12-3.06-1.09-3.66-1.45-7.15-1.88-10.94l-1-3q.9-3.53 2-7" fill="#D8DBD9"/><path d="M762 46c3 3 3 3 3.36 5.14-.16 8.37-1.2 16.58-2.36 24.86h-1z" fill="#F1F5F1"/><path d="M761 47h1c.15 11.37-.32 22.65-1 34h-1V70h-2V59l2 1z" fill="#333632"/><path d="M936 489c3.44 3.01 3.51 5.51 4 10l1 2-1 3a91 91 0 0 0-.32 4.67l-.12 2.7-.25 5.67L939 524h-1l-.08-1.92c-.93-23.26-.93-23.26-1.92-33.08" fill="#CBCCCD"/><path d="M689 64v2c-1.65 1.33-1.65 1.33-3.94 2.82l-2.46 1.62-2.6 1.68-2.6 1.71q-3.2 2.1-6.4 4.17l-2-1a63 63 0 0 1 14-11c3-2 3-2 6-2" fill="#E1E0E3"/><path d="m485 457 1 3-3.43-.04-4.45-.02-2.26-.03c-5.63-.02-5.63-.02-7.86 1.09v-3l-2-1a38.4 38.4 0 0 1 19 0" fill="#242626"/><path d="M571 69c3.59.34 5.93 1.49 8.88 3.44 3.65 2.4 6.87 3.58 11.12 4.56v1c-4.66 1.43-6.78 1.63-11.2-.64-3.06-2.01-6.01-4-8.8-6.36z" fill="#DCDEDD"/><path d="M441 482c2.32 3.47 1.94 4.64 1.33 8.6-.63 4.61-.71 9.26-.89 13.9l-.13 3.07L441 515h-1l-.18-3.8-.26-4.95-.24-4.92-.11-2.22c-.21-2.11-.21-2.11-.78-4.16-.7-3.21.59-5.89 1.57-8.95z" fill="#C8CBCA"/><path d="M755 361c3.7 5.56 5.68 13.63 4.69 20.31L759 384h-2c-1.33-10.56-1.33-10.56 0-15h-3l.5-1.75c.5-2.25.5-2.25.5-6.25" fill="#2D2E2C"/><path d="M635 687h1l.52 2.2c1.43 5.7 2.84 10.15 6.48 14.8h-6l-.62-1.9-.82-2.48-.81-2.46C634 695 634 695 633 693q.91-3.03 2-6" fill="#E8EBED"/><path d="M708 684h2a43 43 0 0 1 3 17l-2 3h-3l.5-1.94A49 49 0 0 0 708 684" fill="#EDF0ED"/><path d="M859 613v3l-3.56.38A63 63 0 0 0 844 619l1-2-2-2c5.38-1.19 10.45-2.29 16-2" fill="#DCDCDE"/><path d="M563 664c-3.55 4.51-8.6 6.47-14 8l-2-1c3.73-4.54 10.12-8.96 16-7" fill="#E8E7EB"/><path d="M494 648c.99 2.75.96 4.25.44 7.19-.54 4.66.33 8.34 1.56 12.81-1.94-.31-1.94-.31-4-1-1.8-5.39-1.77-10.81.5-16.06z" fill="#272828"/><path d="m810 528 4 3c-.78 4.85-2.4 9.38-4 14h-1q-.04-2.84-.06-5.69l-.04-3.2c.09-2.83.45-5.35 1.1-8.11" fill="#E7EAE8"/><path d="M616 688a47 47 0 0 1 3 7c-1.63 4.12-3.21 6.65-7 9l-2-1 1.88-3c2.24-3.9 3.2-7.61 4.12-12" fill="#E9ECEB"/><path d="M510.74 633.17C513 634 513 634 514 636l-2.01.77c-4.56 1.78-8.9 3.5-13 6.23 0-3 0-3 1.8-4.86l2.4-1.89 2.35-1.92c2.46-1.33 2.46-1.33 5.2-1.16" fill="#DDDEE0"/><path d="m781 456 2 2c-1 1-1 1-2.77 1.11l-2.27-.01-2.45-.01-2.57-.03-2.59-.01L764 459c5.07-3.38 11.01-3.69 17-3" fill="#272929"/><path d="M507 674h24v2c-5.01 1.48-9.73.67-14.81.06l-2.68-.3L507 675z" fill="#EEEFEF"/><path d="M816 575h16v3c-3.55 1.16-6.56.92-10.25.56l-3.27-.31L816 578z" fill="#222424"/><path d="M529 282c.93 2.55 1.09 3.74.22 6.36l-1.16 2.39-1.15 2.42L526 295h-3c.48-5.15 3.19-8.82 6-13" fill="#EBECED"/><path d="m749 250 2 2a28 28 0 0 1-6.56 5.5c-2.54 1.56-3.82 3.03-5.44 5.5l-2-1c1.13-3.4 2.19-4.29 4.88-6.56l2.11-1.82C746 252 746 252 749 250" fill="#EAECEC"/><path d="M491 51h1v20c-2.95-4.43-3.47-9.11-2.61-14.37q.72-2.83 1.61-5.63" fill="#F2F1F2"/><path d="M462 584c2.92 3.54 5.5 7.16 8 11l-2 2q-1.8-2.1-3.56-4.25l-2.01-2.39C461 588 461 588 461.29 585.7z" fill="#E1E2E2"/><path d="m469 454 2 1Zm2 2v1l-1.76.55A77 77 0 0 0 456 463v-3q2.33-1.3 4.69-2.56l2.63-1.44c3.06-1.14 4.6-.93 7.68 0" fill="#E1E2E4"/><path d="M758 86c2.49 3.74 2.21 5.74 2.12 10.19l-.05 3.85L760 103l-3-2c-.33-2.97-.33-2.97-.25-6.5l.05-3.53C757 88 757 88 758 86" fill="#1B1C1B"/><path d="M891 539c.83 2.38 1.12 3.63.33 6.07l-1.08 2.05-1.05 2.08C888 551 888 551 885 553l-1-3c1.18-2.19 1.18-2.19 2.88-4.56 3.1-4.4 3.1-4.4 4.12-6.44" fill="#191A1D"/><path d="M803 444h2v15c-3-3-3-3-3.33-5.66l.08-2.96.05-2.98c.2-2.4.2-2.4 1.2-3.4" fill="#F3F4F7"/><path d="m528 270 5 1c1.19 3.43.8 5.38-.44 8.75l-.87 2.42L531 284c-1.96-3.28-2.06-3.76-1.12-7.75L531 273z" fill="#E2E5E2"/><path d="m617 676 1 3 2 1v11l-3 1z" fill="#E9EBEF"/><path d="M800 571q3.43.17 6.88.38l3.86.21C814 572 814 572 816 574h-15z" fill="#E9ECEA"/><path d="M792.25 457.69c3.14 1.5 5.9 3.33 8.75 5.3l-1 3q-6-3.98-12-8c2-1 2-1 4.25-.3" fill="#DEDFE0"/><path d="M492 451h1l1 9-9-2c2-2 2-2 5-3v-2h2z" fill="#D1D3D2"/><path d="M767 612q2.79.14 5.56.44l5.44.56c-3.75 3.16-6.09 3.28-11 3l-1-3z" fill="#DDE0DF"/><path d="M897 508h1c.37 13.63.37 13.63-2 20l-2-1 1-8h1z" fill="#BFC2C3"/><path d="M808 462c4.61.72 8.67 2.31 13 4l-2 1-1 2a273 273 0 0 1-6.05-2.83C810 465 810 465 808 462" fill="#EBECEE"/><path d="m490 392 3 2c.36 2.97.36 2.97.31 6.5l-.01 3.53C493 407 493 407 491 409z" fill="#1E2223"/><path d="M836 469h15l-1 2c-4.96 1.27-9.42 1.51-14-1z" fill="#F1F1F5"/><path d="M913 453c3.92 1.66 6.9 4.11 10 7 .88 2.31.88 2.31 1 4-3.42-1.44-5.36-3.25-7.75-6.06l-1.86-2.16C913 454 913 454 913 453" fill="#E4E3E7"/><path d="m746 30 1 2-16 3v-2c5.36-2.26 9.2-3.36 15-3" fill="#EEEEF1"/><path d="M699 673c3.83 1.56 6.28 3.91 9 7 .81 2.31.81 2.31 1 4l-2 1-3.44-4.88-1.93-2.74C700 675 700 675 699 673" fill="#E3E4E7"/><path d="m551.07 663.9 2.5.04 2.5.02 1.93.04c-3.36 2.96-6.7 3.92-11 5 1.12-4.96 1.12-4.96 4.07-5.1" fill="#1B1B20"/><path d="m920 571 1 3q-1.93 2.26-3.88 4.5l-2.17 2.53L913 583h-2c1.44-3.24 3.26-5.62 5.62-8.25l1.92-2.14z" fill="#DCDBE0"/><path d="M779 453c7.39.6 7.39.6 11 3v2l-9-1v-2l-3-1z" fill="#E6E8E8"/><path d="M492 369h2c.19 4.82-.24 8.5-2 13h-1c-1.01-5.04-.97-8.24 1-13" fill="#E9E9EB"/><path d="M544 686h3l-2 14h-1q-.3-2.65-.56-5.31l-.32-2.99c-.12-2.7-.12-2.7.88-5.7" fill="#1C1C21"/><path d="M517 32v2l-13 1v-2c2.25-1.13 4-1.34 6.5-1.62l2.41-.29C515 31 515 31 517 32" fill="#EBEFF0"/><path d="M690 667c4.83.41 6.83 2.46 10 6-3.2 0-4.42-.55-7.19-2l-2.17-1.12L689 669z" fill="#D7D9D8"/><path d="M759 451c2.83 2.83 3.72 4.35 5 8l-6 2z" fill="#CACCCD"/><path d="M907 446a19 19 0 0 1 7 5l-1 3-8-6z" fill="#D7D7D9"/><path d="M509 321c1.12 1.7 1.12 1.7 2 4-.68 2.36-.68 2.36-1.88 4.75l-1.17 2.42L507 334c-1.08-1.77-1.08-1.77-2-4a84 84 0 0 1 4-9" fill="#E0E0E3"/><path d="M895 508h2v12l-3-2z" fill="#F0F4F5"/><path d="M849 427q3.51.39 7 1l1 2h-14v-1h6z" fill="#DADADD"/><path d="M723 272c1.85 3.69 2 7.92 2 12h-2c-2.03-4.06-2.1-6.6-1-11z" fill="#EFF2EE"/><path d="M542 692v9h-3v-8c2-1 2-1 3-1" fill="#F1F1F3"/><path d="M938 524c2 2 2 2 2.19 5.38-.15 2.77-.35 5-1.19 7.62h-2z" fill="#EBECEE"/><path d="M893 527h2c-.47 4.06-.88 7.47-3 11h-2l.94-4.94.52-2.77C892 528 892 528 893 527" fill="#EAECF1"/><path d="M894 497c2.57 3.85 2.55 6.43 3 11h-2a140 140 0 0 1-1.62-3.81l-.92-2.15L892 500z" fill="#DEE0E2"/><path d="M498 228h1q.58 2.4 1.12 4.81l.64 2.71C501 238 501 238 499 241c-1.63-4.79-2.21-8.06-1-13" fill="#DEDFDE"/><path d="M517 33c6.75 1.62 6.75 1.62 9 5l-2 1c-2.16-.78-2.16-.78-4.62-1.94l-2.48-1.15L515 35z" fill="#D8DBD8"/><path d="m800 564 3 1-.94 2.31q-1.1 2.82-2.06 5.69h-3c.7-3.15 1.76-6.03 3-9" fill="#DEDFDF"/><path d="M492 73h1v12l-2-1c-1.19-4.37-1.02-6.96 1-11" fill="#EFF2EF"/><path d="m502 34 3 1c-2.62 2.12-5.2 4.13-8 6l-2-2q1.64-1.3 3.31-2.56l1.87-1.44z" fill="#D6D8D9"/><path d="m697 663 7 1-1 4-6-2z" fill="#25272A"/><path d="M871 561v2l-10 5v-3l3.88-2 2.17-1.12C869 561 869 561 871 561" fill="#DCDDDE"/><path d="m883 551 1 2-7 8-2-2a89 89 0 0 1 4-4h2z" fill="#212225"/><path d="M898 507c1.74 2.61 2.5 4.01 3 7l-1 1q-.34 2.02-.56 4.06L899 523h-1z" fill="#020303"/><path d="M746 30q3.53.9 7 2l1 2-14-1v-1l6-1z" fill="#C8C8CC"/><path d="M691 664c3.73.5 5.81.87 9 3l-1 3c-3.06-1.74-5.63-3.38-8-6" fill="#EAEDEC"/><path d="M480 608q1.76 1.4 3.5 2.81l1.97 1.58C487 614 487 614 487 617l-1.81-1.38q-2.55-1.87-5.19-3.62z" fill="#EFF2EF"/><path d="M462 460c-.31 1.88-.31 1.88-1 4-3 2-3 2-6 2 1.47-3.4 2.86-6 7-6" fill="#1C1D1E"/><path d="m761 444 2 1q-.17 2.22-.38 4.44l-.21 2.49L762 454l-2 1c-.12-7.62-.12-7.62 1-11" fill="#EBEDEE"/><path d="m893.19 436.44 2.8 1.56v2c-5.53-.61-5.53-.61-7.86-2.56L887 436c3-1 3-1 6.19.44" fill="#E4E7E9"/><path d="M633 676h1l1 15h-2c-1.14-3.43-.91-5.61-.56-9.19l.31-3.29z" fill="#F4F4F7"/><path d="M754 38c1.88.19 1.88.19 4 1a23 23 0 0 1 2 5l-2 2-2-6h-2z" fill="#1B1E1B"/><path d="M564 660h2v8l2 1-3 3-3-3h3z" fill="#2A2A2C"/><path d="M817 464c6.62-.12 6.62-.12 10 1v2q-2.22-.17-4.44-.38l-2.49-.21L818 466z" fill="#1F2423"/><path d="M753 354c2.58 4.38 1.81 7.11 1 12-2.24-3.35-2.17-3.91-1.62-7.69l.33-2.45z" fill="#252525"/><path d="m758 224 3 4c-1.37 3.16-1.99 3.99-5 6z" fill="#D5D5D6"/><path d="m523 38 9 5c-3.62 1.21-4.64.54-8-1v-2l-2-1z" fill="#1E201D"/><path d="M616 688c2 4 2 4 3 7-1.38 1.5-1.38 1.5-3 3h-2z" fill="#D9DBDD"/><path d="m761 652 3 1 1 3h-2v7h-1z" fill="#F6F7F6"/><path d="m723 284 4 1 1 6-2 1z" fill="#E2E5E2"/><path d="m533 275 3 1a16.6 16.6 0 0 1-3 7h-2z" fill="#252826"/><path d="m754 33 4 2v4l-6-4z" fill="#DEDEE0"/><path d="m700 667 9 3-4 2c-2.75-1.25-2.75-1.25-5-3z" fill="#DFE1E2"/><path d="M565 661v8h-2l-.44-2.38C562 664 562 664 561 662c2-1 2-1 4-1" fill="#DDDDDF"/><path d="m869 606-1 4-5 1-1-3c4.75-2 4.75-2 7-2" fill="#1A1E1F"/><path d="m930 553 2 4c-1.38 2-1.38 2-3 4h-2c1.88-5.75 1.88-5.75 3-8" fill="#D4D4D8"/><path d="M635 687h1l1 9-4-2z" fill="#CED0D3"/><path d="M749 640c3.65 1.25 4.78 1.67 7 5l-2 2z" fill="#212223"/><path d="M915 573h3c-.75 1.94-.75 1.94-2 4-2.12.75-2.12.75-4 1 1.88-3.88 1.88-3.88 3-5" fill="#1A1B1E"/><path d="M784 458h4v2l2 1h-2v2l-3-1c-.69-2.06-.69-2.06-1-4" fill="#0C110D"/><path d="m773 453 8 2v1h-9z" fill="#F2F5F3"/><path d="M828 429v2l-8 1v-2c2.89-.83 4.89-1 8-1" fill="#ECEEF3"/><path d="m528 270 5 1a20 20 0 0 1 1 4l-2 2-.88-1.81C530 273 530 273 528 270" fill="#E9EBEA"/><path d="M508 252c3.37 1.39 4.99 2.98 7 6-3.24-.56-4.93-1.41-7-4z" fill="#CDD0CE"/><path d="m703 55 2 2-3 1v2l-3 1-2-2z" fill="#212123"/><path d="M709 50c-1 3-1 3-4.06 4.69L702 56c1.47-3.4 2.86-6 7-6" fill="#DCDDDE"/></svg>