<svg style="background:transparent" version="1.1" xmlns="http://www.w3.org/2000/svg" viewBox="0 0 1248 704"><path d="M527.07 36.56c2.31 1.73 4.73 3.23 7.18 4.75 4.91 3.1 9.59 6.42 14.24 9.89 2.44 1.75 4.94 3.26 7.51 4.8q3 2.2 5.94 4.5A85 85 0 0 0 569 65l8.28 5.38c5.48 3.27 9.89 3.9 16.23 3.8l2.56-.01q4.17-.03 8.34-.1l5.81-.04 12.16-.14q7.8-.1 15.6-.15 6-.04 11.99-.12l5.75-.06q4.02-.02 8.03-.1h2.41c5.39-.11 5.39-.11 7.71-1.9L675 70a315 315 0 0 1 5-3q2.67-1.91 5.31-3.87a199 199 0 0 1 16.31-10.7A144 144 0 0 0 707 49a126 126 0 0 1 5.25-3.34A380 380 0 0 0 722 39.5c16.32-10.57 16.32-10.57 27-9.5 6.25 1.95 9.74 5.08 13.69 10.19 2.13 4.56 3.88 10.04 2.84 15.07a54 54 0 0 0-.81 9.07l-.11 3.67-.11 3.8c-.39 13.96-.39 13.96-1 18.37-.67 5.09-.88 10.15-1.06 15.27l-.13 3.52c-.48 15.02-.36 30.04-.27 45.07l.01 3.14.04 5.83c.02 5.48-.32 10.82-.87 16.28-.36 4.44-.32 8.86-.28 13.32l.01 2.89.05 9 .06 11.98.03 2.77.01 2.56.01 2.24C761 226 761 226 760 229l-.44 2.94A21 21 0 0 1 757 239l-.84 2.35c-3.46 7.9-11.66 14.22-17.85 20.09l-1.9 1.83A40 40 0 0 1 725 271l-2 2c.95 9.14 5.77 17 10 25l1.32 2.5 1.36 2.58 1.36 2.58 2.63 4.96A97 97 0 0 1 745 322q1.92 4.2 3.88 8.38A35 35 0 0 1 751 337c1.42 5.15 3 10.14 5.06 15.06a57 57 0 0 1 3.45 11.93c.49 2 .49 2 1.54 4.1 1.21 2.43 1.02 4.24.95 6.9l.43 1.73c3.07 12.36 3.08 25.63 3.57 38.28l2.69-.94c11.81-3.78 23.31-1.84 35.23.52A75 75 0 0 0 820 416l1 1q3.77.28 7.56.44c5.76.3 10.9.87 16.44 2.56l5.06 1.3c7.08 1.95 14 4.34 20.94 6.7l3.13.97a40 40 0 0 1 7.93 3.97l2.47 1.53L887 436l2.65 1.58c4.73 2.87 8.46 6.52 12.35 10.42l3.16 3.02c10.7 10.29 10.7 10.29 13.93 17.08.91 1.9.91 1.9 3.03 4.84 2.02 3.3 3.02 6.2 4.02 9.9q1 3.67 2.16 7.28c3.04 9.82 4.5 18.54 3.7 28.88l-.17 2.47q-.29 3.98-.64 7.97l-.21 2.5a45 45 0 0 1-3.21 13.17c-.73 1.8-1.34 3.65-1.95 5.49-2.06 6.28-3.88 11.29-8.55 16.03-1.74 1.88-2.36 3.99-3.27 6.37a51 51 0 0 1-10 10 77 77 0 0 0-7.38 8c-2.92 3.35-5.94 5.58-9.62 8l-2.94 2.06c-13.99 8.86-31.12 14.62-47.56 16.5-3.5.44-3.5.44-4.5 1.44a90 90 0 0 1-4.94 0c-3.69-.04-7.21.08-10.87.56-6.45.73-12.76 0-19.19-.56l-7.13-.5A52 52 0 0 1 780 617q-2.5-.4-5-.7l-2.56-.31c-2.77 0-4.1.6-6.44 2l-2.94 1.76c-3.06 2.25-3.06 2.25-5.5 5.19a27 27 0 0 1-6.37 5.8L748 633v2q2.1 1.39 4.21 2.76c6.83 4.76 10.57 10.23 12.79 18.24.86 4.89-.05 7.56-2.56 11.69-3.71 5.05-6.89 7.7-13.13 8.76a126 126 0 0 1-9.31.55l-3.02.09c-11.8.15-21.88-.97-32.98-5.1l-6-2 3.12 2.45c5.51 4.72 9.79 10.28 10.88 17.56l.39 2.54.3 2.52.32 2.54C713 700 713 700 711 704h-74c-2.66-6.65-4.06-12.9-5-20l-.63-2.62c-.43-2.78-.02-4.65.63-7.38l.5-3.56c.5-3.44.5-3.44 1.5-7.44h-15l.5 3.94c.53 4.7.59 9.33.5 14.06q0 3.06.19 6.13c-.27 5.52-1.39 10.54-4.82 14.97-3.23 2.59-5.29 2.4-9.4 2.4l-2.12.02-6.92-.02h-4.81q-5.04 0-10.07-.03-6.47-.04-12.93-.01l-9.93-.02h-4.77a739 739 0 0 1-10.47-.05l-2.95-.4c-2.38-3.56-2.6-5.87-2-10 1.44-5.35 3.07-10.3 6.81-14.5q1.08-1.21 2.19-2.5l-1-3a18 18 0 0 0-7.75.95c-13.3 4.35-31.57 3.98-44.25-1.94-4.18-2.95-5.87-5.9-6.85-10.82A24 24 0 0 1 493 646a57 57 0 0 1 13-11l-2.11-1.65a191 191 0 0 1-10.69-9.46c-4.53-4.17-8.85-8.54-13.2-12.9l-2.36-2.3c-15.98-16.3-29.71-38.2-34.64-60.7l-.55-2.42-.98-4.54c-.47-2.03-.47-2.03-1.53-5.22-1.19-4.83-1.43-9.55-1.69-14.5-.25-3.31-.25-3.31-.77-5.84-.58-3-.61-5.84-.61-8.91v-3.3A66 66 0 0 1 438 494l.25-3.12c2.21-11.41 7.78-23.23 17.12-30.32 9.57-6.34 17.02-7.51 28.63-6.56 2.39.55 4.66 1.25 7 2l-1.5-3.62c-1.37-3.63-1.67-6.48-1.5-10.38l-1-5c-.46-4.03-.79-8.08-1.13-12.12l-.3-3.33-.27-3.18-.25-2.9C485 413 485 413 486 410q.02-2.54-.06-5.06c-.06-5.55.8-10.55 2.06-15.94.96-4.57 1.68-9.16 2.4-13.77 1.32-7.13 3.39-13.96 5.6-20.85l.79-2.5a241 241 0 0 1 15.27-37.02l3.75-7.48 3.64-7.25c4.58-9.23 8.7-17.95 10.55-28.13-3.07-2.7-5.95-5.07-9.56-7-3.48-2.02-5.68-4.1-8.44-7l-1.62-1.16c-9.17-6.67-13.12-19.17-15.38-29.84l-.57-2.5c-.59-3.42-.45-6.72-.37-10.2a97 97 0 0 0-.56-8.32c-.53-5.7-.61-11.31-.56-17.02l.01-3.05.05-9.53a2644 2644 0 0 0 .09-15.48c.02-5.03-.24-9.9-.87-14.9-.3-2.66-.32-5.28-.28-7.96l.02-3.18.08-6.44c.04-6.04-.16-11.94-.82-17.94a74 74 0 0 1-.22-7.73c.05-4.02-.42-7.77-1-11.75q-.03-3.47.03-6.95C490 82 490 82 489.5 79.55c-.65-3.33-.52-6.55-.44-9.95-.07-2.95-.56-5.7-1.06-8.6-.95-9.4.19-16.36 6-24 10.64-8.91 22.27-8.78 33.07-.44M689 665l2 2v-2zm-127 0-2 2h3zm-12 6 1 2c3.37-1.18 5.65-2.27 8-5-3.69 0-5.78 1.28-9 3" fill="#151715"/><path d="M804.97 417.44c6.96 1.14 13.87 2 20.9 2.56 30.36 2.64 59.94 12.59 81.38 35.19a101 101 0 0 1 18.75 33.8c.11.36.11.36.7 2.09 7.32 23.22 1.8 49.45-8.89 70.55-4.15 7.4-9.33 13.93-14.8 20.37l-1.78 2.09c-12.55 13.53-31.67 23.05-49.23 27.9l-2.14.6c-25.17 6.57-55.75 5.98-80.86-.6 1.65-3.97 4.42-6.92 7.25-10.11 5.27-6.1 10.04-12.34 12.9-19.96 1.58-3.67 2.98-6.12 5.85-8.92 6.12-1.46 12.01-1 18.25-.56q4.91.24 9.82.44l2.38.1c6.3.19 11.64-.75 17.55-2.98l3.53-1.14c17.27-6.45 28.87-16.42 37.01-33 5.12-12.35 5.7-26.7.72-39.22-8.15-17-19.52-25.96-37-32.7-13.4-4.57-27.87-6.25-41.89-7.81a153 153 0 0 1-18.8-3.88q-1.4-.33-2.8-.7C775.36 449.3 769 445.24 764 438c-2-4-1.63-8.65-1-13 8.11-15.63 28.1-9.84 41.97-7.56" fill="#121413"/><path d="m762 434 1.12 1.56L765 438l1.25 1.68 1.44 1.82 1.32 1.72c5.33 4.77 12.25 6.69 19.05 8.4l2.53.66c6.04 1.5 12.03 2.48 18.21 3.21 23.94 2.83 50.09 6.75 67.2 25.51 10.29 13.6 13.51 27.26 12 44-2.53 14.23-12.07 27.24-23.42 35.83-14.09 9.57-28.92 13.53-45.8 13.38l-6.12-.02c-10.83-.05-10.83-.05-15.66-1.19.67-4.27 2.13-7.9 3.81-11.88 10.15-24.82 15.55-57.16 6.12-83.05-4.1-8.92-9.73-15.45-18.93-19.07l-2.75-1.25c-9.82-2.27-18.03-.3-27.25 3.25q.7-6.19 1.44-12.38l.41-3.56.4-3.4.36-3.14C761 436 761 436 762 434" fill="#EBECEE"/><path d="M527.07 36.56c2.31 1.73 4.73 3.23 7.18 4.75 4.91 3.1 9.59 6.42 14.24 9.89 2.44 1.75 4.94 3.26 7.51 4.8q3 2.2 5.94 4.5A85 85 0 0 0 569 65l8.28 5.38c5.48 3.27 9.89 3.9 16.23 3.8l2.56-.01q4.17-.03 8.34-.1l5.81-.04 12.16-.14q7.8-.1 15.6-.15 6-.04 11.99-.12l5.75-.06q4.02-.02 8.03-.1h2.41c5.39-.11 5.39-.11 7.71-1.9L675 70a315 315 0 0 1 5-3q2.67-1.91 5.31-3.87a199 199 0 0 1 16.31-10.7A144 144 0 0 0 707 49a126 126 0 0 1 5.25-3.34A380 380 0 0 0 722 39.5c16.32-10.57 16.32-10.57 27-9.5 6.25 1.95 9.74 5.08 13.69 10.19 2.13 4.56 3.88 10.04 2.84 15.07a54 54 0 0 0-.81 9.07l-.11 3.67-.11 3.8c-.39 13.96-.39 13.96-1 18.37-.67 5.09-.88 10.15-1.06 15.27l-.13 3.52c-.48 15.02-.36 30.04-.27 45.07l.01 3.14.04 5.83c.02 5.48-.32 10.82-.87 16.28-.36 4.44-.32 8.86-.28 13.32l.01 2.89.05 9 .06 11.98.03 2.77.01 2.56.01 2.24C761 226 761 226 760 229l-.44 2.94A21 21 0 0 1 757 239l-.84 2.35c-3.46 7.9-11.66 14.22-17.85 20.09l-1.9 1.83A40 40 0 0 1 725 271l-2 2c.95 9.14 5.77 17 10 25l1.32 2.5 1.36 2.58 1.36 2.58 2.63 4.96A97 97 0 0 1 745 322q1.92 4.2 3.88 8.38A35 35 0 0 1 751 337c1.42 5.15 3 10.14 5.06 15.06a57 57 0 0 1 3.45 11.93c.49 2 .49 2 1.54 4.1 1.21 2.43 1.02 4.24.95 6.9l.43 1.73c3.07 12.36 3.08 25.63 3.57 38.28l2.69-.94c11.81-3.78 23.31-1.84 35.23.52A75 75 0 0 0 820 416l1 1q3.77.28 7.56.44c5.76.3 10.9.87 16.44 2.56l5.06 1.3c7.08 1.95 14 4.34 20.94 6.7l3.13.97a40 40 0 0 1 7.93 3.97l2.47 1.53L887 436l2.65 1.58c4.73 2.87 8.46 6.52 12.35 10.42l3.16 3.02c10.7 10.29 10.7 10.29 13.93 17.08.91 1.9.91 1.9 3.03 4.84 2.02 3.3 3.02 6.2 4.02 9.9q1 3.67 2.16 7.28c3.04 9.82 4.5 18.54 3.7 28.88l-.17 2.47q-.29 3.98-.64 7.97l-.21 2.5a45 45 0 0 1-3.21 13.17c-.73 1.8-1.34 3.65-1.95 5.49-2.06 6.28-3.88 11.29-8.55 16.03-1.74 1.88-2.36 3.99-3.27 6.37a51 51 0 0 1-10 10 77 77 0 0 0-7.38 8c-2.92 3.35-5.94 5.58-9.62 8l-2.94 2.06c-13.99 8.86-31.12 14.62-47.56 16.5-3.5.44-3.5.44-4.5 1.44a90 90 0 0 1-4.94 0c-3.69-.04-7.21.08-10.87.56-6.45.73-12.76 0-19.19-.56l-7.13-.5A52 52 0 0 1 780 617q-2.5-.4-5-.7l-2.56-.31c-2.77 0-4.1.6-6.44 2l-2.94 1.76c-3.06 2.25-3.06 2.25-5.5 5.19a27 27 0 0 1-6.37 5.8L748 633v2q2.1 1.39 4.21 2.76c6.83 4.76 10.57 10.23 12.79 18.24.86 4.89-.05 7.56-2.56 11.69-3.71 5.05-6.89 7.7-13.13 8.76a126 126 0 0 1-9.31.55l-3.02.09c-11.8.15-21.88-.97-32.98-5.1l-6-2 3.12 2.45c5.51 4.72 9.79 10.28 10.88 17.56l.39 2.54.3 2.52.32 2.54c-.01 2.69-.64 4.12-2.01 6.4h-3l.14-3.22c.32-10.2-.23-16.65-7.27-24.47-4.05-3.85-8.79-6.1-13.87-8.31v-8a33 33 0 0 1 8.37 4.3c11.41 7.35 24.73 8.88 37.94 8.89q1.63 0 3.3.04c7.57 0 14.81-.11 21.45-4.04 3.15-5.18 2.82-10.3 1.94-16.2-2.41-6.56-7.91-12.1-14.23-15.02A98 98 0 0 0 740 636v-2q2.78-2.02 5.69-3.87c7.85-5.22 14.65-11.47 21.31-18.13 4.42.13 8.85.83 13.21 1.49 10.05 1.5 19.94 1.95 30.1 1.95h2.51c33.51-.1 64.05-8.93 88.55-32.74 17.52-18.52 26.8-41.75 26.82-67.07l.03-2.93c.05-22.5-9.39-43.8-24.56-60.23-10.61-10.01-23.03-17.42-36.66-22.47l-3.65-1.37c-14.94-5.3-29.86-6.98-45.55-8.5a241 241 0 0 1-20.74-2.82c-19.01-3.42-19.01-3.42-26.12.44A436 436 0 0 0 763 424l-.04-2.27c-.93-42.61-11.77-79.67-30.96-117.73l-1.25-2.48-2.23-4.44C719 278.18 719 278.18 720 271a36 36 0 0 1 6.37-4.87q1.95-1.29 3.88-2.6l1.93-1.27C743.55 254.4 751.83 244.2 756 231c1.09-6.02 1.19-11.96 1.27-18.07l.04-3.32.1-7.13.17-11.43.44-30.5.38-25.76.06-3.92c.29-17.94.82-35.84 1.88-53.76q.39-6.56.66-13.11l.1-2.5q.14-3.83.21-7.68l.09-2.36c.06-5.63-1.2-8.81-4.4-13.46-1.85-1.52-1.85-1.52-3.63-2.37q-2.7-1.3-5.37-2.63c-11.33-1.18-20.53 6-29.44 12.13l-3.51 2.37-7.31 4.96c-5.57 3.79-11.18 7.5-16.78 11.24l-8.42 5.6L677 73l-2.63 2.07c-4.22 2.42-7.25 2.55-12.03 2.58l-2.57.06q-4.21.07-8.41.1l-2.93.04q-7.67.1-15.35.1-7.86.06-15.71.24-6.1.11-12.2.1-2.9.03-5.78.1c-14.5.37-23.18-2.95-34.55-11.95a108 108 0 0 0-8.01-5.54q-5.7-3.8-11.37-7.63l-7.8-5.25-3.97-2.7-5.87-3.93-1.76-1.2c-6.59-4.4-13.01-7.66-21.06-6.2-5.64 2.34-9.19 5.54-12 11-.55 3.63-.44 7.17-.38 10.82l.06 3.2c.16 6.95.49 13.84 1 20.76 1.22 16.98 1.62 33.95 1.92 50.96l.16 8.1q.34 17.86.62 35.72.13 9.42.33 18.83.1 4.94.16 9.87c.23 19.88 1.42 36.99 16.08 51.7 6.46 6.06 13.8 11.02 21.05 16.05a88 88 0 0 1-6 18.94l-1.2 2.78a168 168 0 0 1-8.74 17.03c-12.95 22.4-21.36 48.59-25.69 74.05q-.5 2.92-1.05 5.83c-2.95 17.82-2.12 36.6.68 54.37q.58 4.5 1.12 9l.88 7-2.24-.65c-12-3.3-21.79-3.65-32.89 2.34-10.55 8.49-14.55 18.2-16.87 31.3a138 138 0 0 0-.44 13.82l.03 3.8c.75 41.12 17.84 76 46.67 104.69a136 136 0 0 0 20.06 15.86A30 30 0 0 1 514 636l-1.91.63c-7.94 2.86-14.32 6.75-18.59 14.25a20.4 20.4 0 0 0-.44 16c3.43 3.76 9.03 5.93 14.11 6.27 19.15.17 37.46-.87 54.19-11.23C563 661 563 661 565 661v8l-1.98.92c-8.15 3.9-14.15 7.66-18.12 16.03-1.74 5.9-1.27 11.97-.9 18.05h-3c-2.38-3.57-2.6-5.88-2-10 1.44-5.36 3.07-10.31 6.81-14.5L548 677l-1-3a18 18 0 0 0-7.75.94c-13.3 4.35-31.57 3.98-44.25-1.94-4.18-2.95-5.87-5.9-6.85-10.82A24 24 0 0 1 493 646a57 57 0 0 1 13-11l-2.11-1.65a191 191 0 0 1-10.69-9.46c-4.53-4.17-8.85-8.54-13.2-12.9l-2.36-2.3c-15.98-16.3-29.71-38.2-34.64-60.7l-.55-2.42-.98-4.54c-.47-2.03-.47-2.03-1.53-5.22-1.19-4.83-1.43-9.55-1.69-14.5-.25-3.31-.25-3.31-.77-5.84-.58-3-.61-5.84-.61-8.91v-3.3A66 66 0 0 1 438 494l.25-3.12c2.21-11.41 7.78-23.23 17.12-30.32 9.57-6.34 17.02-7.51 28.63-6.56 2.39.55 4.66 1.25 7 2l-1.5-3.62c-1.37-3.63-1.67-6.48-1.5-10.38l-1-5c-.46-4.03-.79-8.08-1.13-12.12l-.3-3.33-.27-3.18-.25-2.9C485 413 485 413 486 410q.02-2.54-.06-5.06c-.06-5.55.8-10.55 2.06-15.94.96-4.57 1.68-9.16 2.4-13.77 1.32-7.13 3.39-13.96 5.6-20.85l.79-2.5a241 241 0 0 1 15.27-37.02l3.75-7.48 3.64-7.25c4.58-9.23 8.7-17.95 10.55-28.13-3.07-2.7-5.95-5.07-9.56-7-3.48-2.02-5.68-4.1-8.44-7l-1.62-1.16c-9.17-6.67-13.12-19.17-15.38-29.84l-.57-2.5c-.59-3.42-.45-6.72-.37-10.2a97 97 0 0 0-.56-8.32c-.53-5.7-.61-11.31-.56-17.02l.01-3.05.05-9.53a2644 2644 0 0 0 .09-15.48c.02-5.03-.24-9.9-.87-14.9-.3-2.66-.32-5.28-.28-7.96l.02-3.18.08-6.44c.04-6.04-.16-11.94-.82-17.94a74 74 0 0 1-.22-7.73c.05-4.02-.42-7.77-1-11.75q-.03-3.47.03-6.95C490 82 490 82 489.5 79.55c-.65-3.33-.52-6.55-.44-9.95-.07-2.95-.56-5.7-1.06-8.6-.95-9.4.19-16.36 6-24 10.64-8.91 22.27-8.78 33.07-.44M689 665l2 2v-2zm-127 0-2 2h3zm-12 6 1 2c3.37-1.18 5.65-2.27 8-5-3.69 0-5.78 1.28-9 3" fill="#E5E6E7"/><path d="M578 496h2a34 34 0 0 1 3 3.44c6.38 7.41 13.01 13.35 21.62 18l1.85 1c10.36 5.32 21.44 6.13 32.58 2.72 12.09-4.76 22.1-12.27 30.45-22.22L672 496h2a28.5 28.5 0 0 1-3.94 11.69l-1.59 2.82q-1.66 2.79-3.47 5.49h-2l-.72 1.75c-4.18 7.33-13.67 12.21-21.28 15.25h-2l.18 2.01a609 609 0 0 1 2.13 54.37v3.92c-.07 57.21-.07 57.21-4.31 65.7h-21a119 119 0 0 1-4.19-24.06l-.24-3.55c-1.93-32.6-1.17-65.85 1.43-98.39l-2.27-1.03c-13.71-6.49-25.49-15.8-31.73-29.97-.81-3.56-.81-3.56-1-6" fill="#000"/><path d="M738 470h1c.56 42.75-12.05 83.36-26.99 122.96a183 183 0 0 0-7.18 23.48 178 178 0 0 1-2.39 9.06 142 142 0 0 0-5.13 31.93C697 660 697 660 695 663c-2.59-.35-4.52-.65-6.66-2.19-2.81-3.8-1.36-9-.74-13.44 4.69-27.55 14.73-54.78 24.22-80.96a448 448 0 0 0 11.5-35.94q1.03-3.69 2.13-7.34a480 480 0 0 0 8.36-32.57l.47-2.06A306 306 0 0 0 738 470" fill="#000201"/><path d="M513 473c2.53 2.53 2.63 4.19 3.33 7.69l.73 3.56.75 3.75c3.64 18.16 8.91 35.66 14.69 53.25l1.83 5.6a3127 3127 0 0 0 15.27 45.29l2.17 6.3q1.06 3.08 2.15 6.16c2.18 6.25 3.63 12.63 5.08 19.09l4.05 17.8c1.44 6.27 2.78 12.09 1.95 18.51-2.31 2.56-2.31 2.56-5 4h-3c-.93-4-1.13-7.78-1.25-11.88-1.07-20.5-8-39.91-14.75-59.12l-2.04-5.88-2.94-8.42-1.98-5.71-2.17-6.21c-9.28-26.63-14.74-52.47-17.99-80.42l-.27-2.33c-.42-3.7-.71-7.31-.61-11.03" fill="#000201"/><path d="M527.07 36.56c2.31 1.73 4.73 3.23 7.18 4.75 4.91 3.1 9.59 6.42 14.24 9.89 2.44 1.75 4.94 3.26 7.51 4.8q3 2.2 5.94 4.5A85 85 0 0 0 569 65c11.68 7.08 11.68 7.08 16 12-5.75-.42-9.11-2.77-13.63-6.06l-3.91-2.8q-1.04-.75-2.13-1.5c-3.62-2.54-7.31-4.97-10.99-7.42q-4.47-2.96-8.9-5.97l-7.78-5.23-3.97-2.7-5.87-3.93-1.76-1.2c-6.59-4.4-13.01-7.66-21.06-6.2-5.64 2.34-9.19 5.54-12 11-.55 3.63-.47 7.18-.38 10.82l.04 3.27c.18 9.9.82 19.79 1.48 29.67.6 9.1 1.05 18.18 1.05 27.3v2.75c-.04 5.15-.45 10.1-1.19 15.2-1.88-3.18-2.2-5.4-2.06-9.06.07-3.9-.04-7.63-.44-11.5-.45-4.42-.52-8.73-.47-13.17-.04-3.13-.58-6.17-1.03-9.27q-.03-3.47.03-6.95C490 82 490 82 489.5 79.55c-.65-3.33-.52-6.55-.44-9.95-.07-2.95-.56-5.7-1.06-8.6-.95-9.4.19-16.36 6-24 10.64-8.91 22.27-8.78 33.07-.44" fill="#E4E6E5"/><path d="M634.56 208.94c3.13 1.76 3.13 1.76 4.44 3.06-.17 4.4-.59 6.5-3.44 9.94C633 224 633 224 631 224l.12 2.82C631 230 631 230 629 233c-3.42.38-5.9.64-8.94-1.12-1.5-2.66-1.26-4.88-1.06-7.88l-1.75-.68c-2.93-1.71-4.45-3.45-6.25-6.32-.06-2.56-.06-2.56 1-5 6.37-6.03 14.71-6.97 22.56-3.06" fill="#616363"/><path d="M752.81 31.19c5.78 3.29 9.91 7.66 11.88 14.07 1.44 5.93 1.23 9.96-.69 15.74h-1l-.08-2.52c-.43-8.46-1.17-15.73-7.36-21.91-5-3.05-8.64-4.15-14.56-3.57-8.39 2.48-15.3 7.22-22.44 12.13l-3.5 2.37q-3.67 2.47-7.32 4.97-8.36 5.65-16.79 11.23l-8.4 5.6L677 73l-2.63 2.09c-4.28 2.42-7.23 2.42-12.04 2.27l-2.57-.02q-4.2-.06-8.38-.17l-5.83-.08q-7.64-.11-15.29-.28-7.8-.15-15.63-.26-15.3-.24-30.63-.55l1-2 3.28-.02q15.3-.08 30.6-.21 7.86-.08 15.72-.11 7.6-.04 15.17-.12l5.8-.04q4.05 0 8.1-.07h2.43c5.45-.08 5.45-.08 7.77-1.86L675 70q2.48-1.52 5-3a326 326 0 0 0 5.31-3.87 201 201 0 0 1 16.31-10.7A144 144 0 0 0 707 49q2.58-1.74 5.25-3.34A380 380 0 0 0 722 39.5c18.67-12.1 18.67-12.1 30.81-8.31" fill="#E9EAEC"/><path d="M488 409h1l.14 2.59c1.6 29.72 1.6 29.72 4.27 41.61.59 2.8.59 2.8.59 6.8l-2.24-.66c-12-3.29-21.79-3.65-32.88 2.35-10.56 8.49-14.56 18.21-16.88 31.31a138 138 0 0 0-.44 13.81l.01 3.77c.42 27.4.42 27.4 5.43 37.42q.06 3 0 6l-3-1-.37-1.98-.51-2.64-.49-2.61C442 543 442 543 441 540.12a55 55 0 0 1-2.06-10.43l-.25-2.01L438 522l-.35-2.52c-1.12-8.49-1.18-17.05.35-25.48l.25-3.12c2.21-11.41 7.78-23.23 17.13-30.32 9.56-6.34 17.01-7.51 28.62-6.56 2.39.55 4.66 1.24 7 2l-1.5-3.62c-1.37-3.63-1.67-6.48-1.5-10.38l-.5-2.26c-.59-3.21-.51-6.1-.38-9.35l.15-3.78.17-3.92.16-3.98z" fill="#DDE0E0"/><path d="m795 573 13 1v1h-6l-.33 2.14c-1.86 7.97-6.74 15.31-11.36 21.96-1.31 1.9-1.31 1.9-2.93 4.71-1.53 2.42-3.36 4.17-5.38 6.19l-1 3c-8.57.14-8.57.14-12-1 1.66-3.99 4.43-6.93 7.25-10.12A97 97 0 0 0 788 585l3.88-6.62z" fill="#010201"/><path d="M616 660h20l-.14 6.25-.08 6.07-.08 4.18c-.2 8.27-.07 15.25 4.3 22.5l1.75 3.06L643 704h-6c-2.83-6.46-4.08-13.03-5-20l-.62-2.62c-.44-2.78-.03-4.65.62-7.38l.5-3.56c.5-3.44.5-3.44 1.5-7.44h-15l.5 3.94c.53 4.71.59 9.33.5 14.06q0 3.07.19 6.12c-.29 5.86-1.53 10.93-5.38 15.44L613 704l-3-1 1.31-1.44c5.51-8.36 5.06-17.47 4.88-27.12l-.04-4.22z" fill="#EBEBEE"/><path d="M494 126h1a386 386 0 0 1 1.1 32.43l-.01 4.85-.02 12.59-.02 12.91L496 214c-4.53-6.79-3.13-17.1-3.06-25.04l.01-3.05.05-9.53a2657 2657 0 0 0 .09-15.48c.02-5.06-.21-9.97-.86-14.99a59 59 0 0 1-.29-7.97l.02-2.85.04-2.09h1z" fill="#E8E9E8"/><path d="M500 343c1.16 1.47 1.16 1.47 2 4a92 92 0 0 1-2.62 8.5c-7.73 22.94-10.51 47.39-11.38 71.5-2.15-3.23-2.38-4.72-2.69-8.5l-.26-2.91C485 413 485 413 486 410q.02-2.54-.06-5.06c-.06-5.56.8-10.56 2.06-15.94.96-4.57 1.68-9.16 2.4-13.77 1.34-7.21 3.44-14.13 5.66-21.11l.82-2.58c1.99-6.27 1.99-6.27 3.12-8.54" fill="#E5E7E9"/><path d="M708.69 190.94c2.3 2.06 2.3 2.06 3.3 5.06l-1.86-.58c-4.22-1.3-8.45-2.56-12.75-3.6q-.97-.23-1.98-.5c-14.93-2.05-31.96 2.39-44.4 10.68l-1-4c4.63-3 4.63-3 8-3v-2l8.13-2.44 2.3-.7c12-3.56 29-5.93 40.26 1.08" fill="#030503"/><path d="M491 48h1a8053 8053 0 0 1 1.72 29.77c.74 12.68 1.41 25.33 1.44 38.04v2.78c-.02 5.22-.41 10.24-1.16 15.41-1.88-3.18-2.2-5.39-2.06-9.06.08-3.89-.04-7.64-.44-11.5-.45-4.42-.52-8.73-.47-13.17-.04-3.14-.58-6.17-1.03-9.27q-.03-3.47.04-6.95C490 82 490 82 489.44 79.5a19 19 0 0 1 0-6.5c.62-5.18.89-10.35 1.12-15.56l.13-2.77z" fill="#D2D3D5"/><path d="M599 198a22 22 0 0 1 2 4l-2.31-1.21c-12.19-6.25-22.45-8.97-36.13-8.98l-2.41-.03c-7.71-.02-14.63.87-21.15 5.22h-2v-3q1.99-1.24 4-2.44l2.25-1.37c15.85-6.86 42.76-3.13 55.75 7.81" fill="#030403"/><path d="M758 155h1l.03 2.25.31 21.09.16 10.84.15 10.49.08 5.9c.11 6.21.34 12.29 1.16 18.45C761 226 761 226 760 229l-.44 2.94A21 21 0 0 1 757 239l-.79 2.3c-1.43 3.2-3.26 5.26-5.65 7.82l-2.37 2.58A236 236 0 0 1 743 257l-3-1 1.32-1.18c9.9-9.3 15.22-20.71 15.84-34.28l.05-3.67.03-2.04.08-6.61.06-4.61.15-12.08.16-12.34z" fill="#DFDFE0"/><path d="M770 613c8.11.46 16.17 1.09 24.25 2a418 418 0 0 0 28.75 2c-3.31 3.31-7.47 2.87-12 3-4.68-.18-9.33-.59-14-1l-7.12-.5A54 54 0 0 1 780 617q-2.62-.32-5.25-.56l-2.7-.26L770 616z" fill="#EEF1F1"/><path d="M516 31v2l-2.12.04c-6.8.34-11.71 1.39-16.88 5.96-3.5 4.48-5.07 8.03-5.32 13.67l-.37 8.37L491 68c-2.7-2.34-2.98-2.84-3.5-6.62q-.08-2.19-.06-4.38v-2.3A27.6 27.6 0 0 1 494 37c6.21-5.15 14.01-8.66 22-6" fill="#EAEAEB"/><path d="M759 136h1l.18 2.3.26 3.01.24 2.99c.32 2.7.32 2.7 1.32 5.7q.13 2.25.13 4.5l.01 2.69-.02 2.81.02 2.71a136 136 0 0 1-.61 13.37c-.78 7.85-.89 15.73-1.09 23.61l-.13 4.76L760 216h-1z" fill="#F2F2F2"/><path d="M440 498h1l.03 1.82c.72 37.69.72 37.69 5.97 48.18q.06 3 0 6l-3-1-.37-1.98-.51-2.64-.49-2.61C442 543 442 543 441 540.14a61 61 0 0 1-2.19-10.83l-.54-3.95C438 522 438 522 439 519q.22-2.44.32-4.89l.37-8.79z" fill="#E4E5E7"/><path d="M496 191h1v3.03c.05 36.54.05 36.54 7 49.97l1.19 2.41.81 1.59-3 1c-3.51-7.18-6.2-14.2-8-22l-.64-2.32c-.39-2.9-.08-5.44.35-8.32.59-4.76.67-9.57.85-14.36l.13-3.21z" fill="#D9DBDB"/><path d="M495 170h1v44c-4.62-6.94-3.1-17.16-3.12-25.25l-.02-2.87c.03-13.77.03-13.77 2.14-15.88" fill="#EEEFF0"/><path d="m551 673 4 1-2.69 1.88c-4.25 3.63-6.72 7.76-8.31 13.12-.39 5.05-.3 9.94 0 15h-3c-2.38-3.58-2.59-5.88-2-10 2.06-8.51 6.22-14.53 12-21" fill="#E8E7EC"/><path d="M481 610c4.11 1.64 6.93 4.61 10.06 7.62 5.65 5.35 11.5 9.99 17.94 14.38l-1 2c-4.2-1.42-7.11-3.48-10.5-6.31l-2.78-2.3A142 142 0 0 1 487 618l-1.56-1.56L480 611z" fill="#E6E7E9"/><path d="M758 155h1l.03 2.25.31 21.09.16 10.84.15 10.49.08 5.9c.12 6.86.43 13.62 1.27 20.43l-3 2z" fill="#D6D7D7"/><path d="m846 614-2 3c-2.44.12-2.44.12-5 0l-3 1q-2.2.36-4.44.62l-2.31.29c-2.25.09-2.25.09-4.11-.38a33 33 0 0 0-6.69-.85l-2.56-.12-2.64-.12-2.69-.13L804 617v-1l2.2-.06 10.05-.32 3.45-.09c6.74-.23 13.16-.87 19.77-2.21 2.53-.32 4.13-.12 6.53.68" fill="#DDDDE0"/><path d="M761 396h2q.25 5.94.48 11.9l.25 6c.26 6.81.46 13.37-.73 20.1l-2 2z" fill="#202322"/><path d="M761 657h1c.78 9.93.78 9.93-2.19 14-4.85 3.45-7.66 5.42-13.77 5.07l-3.37-.16-3.48-.22-3.55-.19q-4.32-.23-8.64-.5v-1l3.84-.15 5.1-.23 2.52-.09c13.8-.64 13.8-.64 19.54-4.59 2.66-3.91 2.89-7.3 3-11.94" fill="#DBDEDC"/><path d="M488 396h1c.16 10.37-.35 20.65-1 31-2.15-3.23-2.38-4.72-2.69-8.5l-.26-2.91C485 413 485 413 486 410c.03-2.81-.07-5.6-.16-8.41C486 399 486 399 488 396" fill="#EFF2F4"/><path d="M489 401h1l1 6h1l1 21h-4z" fill="#202324"/><path d="m707 684 4 1a96 96 0 0 1 1.69 10.06l.32 2.54c-.01 2.69-.64 4.12-2.01 6.4h-3l.04-3.36.05-6.6c.01-3.53-.14-6.65-1.09-10.04" fill="#C8C9CA"/><path d="M440 492h1l-1 27c-3.26-3.26-3.38-4.15-3.42-8.55a145 145 0 0 0 .06-4.31c.13-5.36.98-9.38 3.36-14.14" fill="#EEEFEF"/><path d="M492 379c1.52 1.21 1.52 1.21 3 3 .11 2.16.11 2.16-.25 4.62l-.36 2.66L494 392l-.56 5.12L493 401h-2c-1.3-7.7-.43-14.36 1-22" fill="#1A1C1D"/><path d="M489 47h2v21c-3-3-3-3-3.33-6.98q.02-2.33.08-4.64l.02-2.4c.08-5.83.08-5.83 1.23-6.98" fill="#F1F0F3"/><path d="m782 411.81 3.69-.04c3.08.21 4.74.6 7.31 2.23v1l-22 1v-3c3.67-1.15 7.17-1.17 11-1.19m-15 3.2 3 1-4 1z" fill="#F0F3F0"/><path d="M491 444h1l2 16-12-3 2-3 7 2-.56-2.62c-.45-3.43-.16-6.02.56-9.38" fill="#D4D6D5"/><path d="M762 48h1c.93 9.7 1.11 19.27 1 29l-3 1c-.14-10.06.27-19.98 1-30" fill="#CCCFCB"/><path d="m728 36 2 2-9.38 5.94-2.69 1.71-2.58 1.63-2.38 1.5C711 50 711 50 709 51c.19-1.81.19-1.81 1-4a97 97 0 0 1 5-3l6.81-4.19 1.81-1.11z" fill="#E1E2E4"/><path d="M763 402h1v14h8a74 74 0 0 1-9 8z" fill="#DEE0E0"/><path d="M762 70h1q.34 4.71.62 9.44l.2 2.66A50 50 0 0 1 762 99h-1a1667 1667 0 0 1-.09-12.83c-.02-5.49.28-10.74 1.09-16.17" fill="#F0F3F1"/><path d="M447 552a46 46 0 0 1 4.25 7.94l1.14 2.59c.61 2.47.61 2.47-.28 4.79L451 569l-2.44-4.75-1.37-2.67c-1.91-4.13-1.91-4.13-2.19-6.58z" fill="#DDDEDF"/><path d="M492 652h3l-.04 2.48-.02 3.27-.04 3.23c.08 2.55.35 4.6 1.1 7.02-1.94-.31-1.94-.31-4-1a20 20 0 0 1-1.12-7.5l-.01-2.34C491 655 491 655 492 652" fill="#202223"/><path d="m476.38 455.81 2.9-.04c2.76.23 4.37.82 6.72 2.23v2q-3.69-.18-7.37-.38l-2.12-.09c-5.28-.3-5.28-.3-7.51-2.53 2.57-1.29 4.5-1.17 7.38-1.19" fill="#242627"/><path d="M756 39c4.88 2.62 4.88 2.62 6 6q.12 2.22.1 4.45l-.01 2.57-.03 2.67-.01 2.7L762 64h-1l-.33-3.76-.48-4.93-.22-2.47c-.47-4.72-1.2-7.86-3.97-11.84z" fill="#1E211E"/><path d="M635 690c2.2 2.2 3.04 4.33 4.2 7.18A51 51 0 0 0 643 704h-6a36 36 0 0 1-3-12z" fill="#DEE0E1"/><path d="M616 660h20v1h-8v2l-1.9-.07-2.48-.05-2.46-.08c-2.16.2-2.16.2-4.16 2.2z" fill="#F4F5F5"/><path d="m753 34-2 2c-1.99-.06-1.99-.06-4.31-.44-3.55-.5-6.17-.31-9.69.44l-2-2c6.36-2.48 11.75-3.03 18 0" fill="#222224"/><path d="M760 649c4.12 4.12 4.85 4.93 5.25 10.44C765 663 765 663 762 667z" fill="#F0F1F0"/><path d="M697 61v2l-2.75 1.19c-3.39 1.89-5.04 3.67-7.25 6.81l-6-1a324 324 0 0 1 10.25-8.05C693 61 693 61 697 61" fill="#1C1D20"/><path d="M616 690a30 30 0 0 1 3 3c0 4.9-2.87 7.55-6 11l-3-1 1.31-1.44c2.37-3.59 3.45-7.46 4.69-11.56" fill="#EBEEF0"/><path d="M500 673c15.74.96 15.74.96 23 2v1c-15.74 1.52-15.74 1.52-23-1z" fill="#EAECEC"/><path d="M773 612a393 393 0 0 1-13 10l-2-1q2.05-2.27 4.12-4.5l2.33-2.53c3.09-2.39 4.74-2.37 8.55-1.97m-17 10 2 1h-3z" fill="#DFE2E0"/><path d="M490 382h2l-2 19h-1c-1.55-5.64-2.4-10.18-1-16z" fill="#DCDFE0"/><path d="M517 306h2a77 77 0 0 1-5.12 12.38L511 324l-2-1c1.67-6.16 4.88-11.48 8-17" fill="#E0E3E4"/><path d="M440 498h1v30l-2-1c-.95-3.28-1.1-4.7 0-8q.22-2.44.32-4.89l.37-8.79z" fill="#BBBEBB"/><path d="m739 257 3 1-4.69 4.31-2.63 2.43A47 47 0 0 1 727 270v-4c2.37-2.11 2.37-2.11 5.44-4.19l3.06-2.1L738 258z" fill="#E9E9EB"/><path d="M804 616h28l-2 3-2.88-.46c-4.67-.67-9.35-.88-14.06-1.1l-2.65-.13L804 617z" fill="#D6D8DA"/><path d="M928 527c2.74 4.88 2.63 9.58 1.25 14.88-1.47 2.49-2.66 2.95-5.25 4.12l.62-1.87A75 75 0 0 0 928 527" fill="#E4E4E6"/><path d="m850.63 421.31 2.85.8c2.52.9 2.52.9 5.52 2.9-4.08 1.35-7.17.13-11.18-.95l-2.28-.59-5.53-1.47v-1c4-1.09 6.63-.85 10.62.31" fill="#E7E7E9"/><path d="m903 577 2 3-8 8-3-2z" fill="#1C201F"/><path d="M491 48h1l1 30h-1v-6h-2z" fill="#A1A1A3"/><path d="m756 356 2 1c.63 2 .63 2 1.12 4.44l.51 2.43C760 366 760 366 760 368h-3c-1.47-4.41-2.37-7.48-1-12" fill="#F0F2F3"/><path d="m533 673 1 2c-6.64 2.72-12.11 1.47-19 0v-1l5.62-.5 3.17-.28c3.08-.21 6.12-.26 9.21-.22" fill="#DDE0E0"/><path d="M758 622v3c-2.19 2.04-2.19 2.04-5 4.19l-2.81 2.17L748 633l-1-3 3.25-2.88 1.83-1.61A28 28 0 0 1 758 622" fill="#EBEEED"/><path d="M762 44h2c1.93 6.41 2.09 10.61 0 17h-1z" fill="#F0F4F0"/><path d="m491 664 1.56 2.31c3 3.31 5.3 4.18 9.44 5.69l-2 2c-3.61-.1-5.03-1.02-7.88-3.31-2.12-2.69-2.12-2.69-1.93-5z" fill="#D6D9DA"/><path d="M618 676c2.41 4.82 3.25 6.87 2 12l-.56 2.31L619 692h-2z" fill="#F0F1F6"/><path d="M459 579a69 69 0 0 1 8 12c-3.59-1-4.96-1.95-7.38-4.88-1.62-3.12-1.62-3.12-1.37-5.5z" fill="#DEE1DD"/><path d="m919 557 2 2c-.33 3.4-1.82 5.27-4.06 7.75l-1.66 1.86L914 570l-2-1 1.28-2.12 1.66-2.76 1.65-2.74A72 72 0 0 0 919 557" fill="#DCDDE0"/><path d="M749 246h2c-.57 3.63-1.92 5.26-4.56 7.75l-1.94 1.86L743 257l-3-1 1.46-1.43 1.92-1.88 1.89-1.87C747 249 747 249 749 246" fill="#DBDADC"/><path d="M633 675h1l1 17-2-1q-.6-3.49-1-7l-.69-2.69c-.37-2.77.22-3.98 1.69-6.31" fill="#F1F1F4"/><path d="M481 610c4.29 1.65 6.88 4.74 10 8l-1 3-10-10z" fill="#EEF1EE"/><path d="m755 237 2 4-5 7-2-3z" fill="#E8E8EB"/><path d="M493 103h1v18c-3.26-3.26-2.97-7.53-3-12 .94-3.62.94-3.62 2-6" fill="#EEEFF0"/><path d="M441 522h1q.33 3.13.62 6.25l.36 3.52c.02 3.17-.28 4.61-1.98 7.23-2.43-6.2-1.67-10.63 0-17" fill="#D2D5D3"/><path d="m802.94 416.06 2.06.94c-3.65 1.27-6.5.75-10.25.06l-3.26-.59-2.5-.47c4.89-2.78 8.78-1.8 13.95.06" fill="#D7D9D9"/><path d="M710 691c2.17 3.25 2.69 5.15 3 9-.94 2.38-.94 2.38-2 4h-3z" fill="#EFF1F0"/><path d="m555 673 3 2h-2v2h-2v2l-6 2c1.49-3.8 3.76-5.61 7-8" fill="#292933"/><path d="m564 665 1 4q-2.15 1.05-4.31 2.06l-2.43 1.16C556 673 556 673 553 672l1.64-1.02 2.17-1.36 2.15-1.33A272 272 0 0 0 564 665" fill="#EEEEF1"/><path d="m762 383 2 1 .12 4.31.08 2.43C764 393 764 393 762 396c-1.33-3.99-1.14-7.84-1-12z" fill="#DDE0DD"/><path d="m695 662 1 2 2.88-.19 3.12.19 2 3c-1.56.75-1.56.75-4 1-2.5-1.13-4.67-2.52-7-4z" fill="#262629"/><path d="m746 630 1 3-2 3h2l-1 2-6-2v-2q2.94-2.09 6-4" fill="#DEDEDD"/><path d="M441 482c2.1 3.16 2.26 3.56 1.81 7.06l-.23 2.1C442 493 442 493 439 495c0-4.58.86-8.59 2-13" fill="#E4E7E8"/><path d="m774.75 457.44 3.55.3 2.7.26v1l-2.23.19a395 395 0 0 0-5.88.5c-2.68.29-5.26.74-7.89 1.3l-1-3c3.68-1.22 6.91-.9 10.75-.55" fill="#1E211D"/><path d="M774 446c4.38.82 8.68 1.9 13 3l-1 2c-4.32-.51-8.03-1.2-12-3z" fill="#1D1F20"/><path d="M726 267v3l-3 3c-1.19 2.69-1.19 2.69-2 5h-1c-.38-3.25-.38-3.25 0-7 3-2.44 3-2.44 6-4" fill="#DEE1DF"/><path d="M761 657h1q.12 2.63.19 5.25l.1 2.95c-.33 3.17-1.18 4.47-3.29 6.8l-4-1 2.44-1.94c3.31-3.96 3.44-7.03 3.56-12.06" fill="#D0D4D0"/><path d="M688 661c2.92 1.07 4.78 1.78 7 4l-2 3h-2v-3h-3z" fill="#ECEDEA"/><path d="M801 414q2.68.42 5.38.88l3.02.49c2.6.63 2.6.63 4.6 2.63-9.41.37-9.41.37-14-2z" fill="#F0F1F3"/><path d="m507 36-10 6c1.45-5.56 1.45-5.56 3.88-7.5C503 34 503 34 507 36" fill="#1D1D1F"/><path d="M740 30q2.16-.05 4.31-.06l2.43-.04C749 30 749 30 752 31v2l-12-1z" fill="#EEEEF1"/><path d="M490 72h2v13c-2.52-3.78-3.26-6.31-2.56-10.81z" fill="#F0F2F0"/><path d="M492 379c3 3 3 3 3.07 5.48l-.38 2.71-.37 2.73L494 392h-1z" fill="#232525"/><path d="M748 342h2l2 9-3 1z" fill="#202320"/><path d="M830 615h9l-1 3h-8z" fill="#E9EAEB"/><path d="m462 459 1 3-5 4-2-1c1.05-2.62 1.65-3.79 4.12-5.25z" fill="#1D1F22"/><path d="M498 233h2l2 8h-3z" fill="#D0D4CF"/><path d="M555 56c7.57 4 7.57 4 10 8-3 0-3 0-5.56-2.44L557 59l-2-1z" fill="#ECEAEC"/><path d="m762 656 3 3c-.26 3.48-1.03 5.05-3 8z" fill="#F5F8F5"/><path d="M901 451c3.37 1.39 4.99 2.98 7 6-3 0-3 0-5.19-1.88C901 453 901 453 901 451" fill="#252427"/><path d="M805 453v2c-6.62.25-6.62.25-10-2 3.28-1.64 6.43-.52 10 0" fill="#232628"/><path d="M615 694c.69 1.62.69 1.62 1 4-1.44 3.25-1.44 3.25-3 6l-3-1 1.38-1.69A29 29 0 0 0 615 694" fill="#E0E3E0"/><path d="m543 689 3 1-1 10h-1z" fill="#202024"/><path d="M462 589c2.92 1.07 4.78 1.78 7 4v3c-4-1.33-4.84-3.5-7-7" fill="#EAEBEB"/><path d="m927 538 2 4-4 4-1-2a96 96 0 0 1 3-6" fill="#D2D4D3"/><path d="m897 443 4 3-1 3-6-4z" fill="#D9D7DC"/><path d="M871 431c2.94.81 2.94.81 6 2l1 3h-5z" fill="#1D1D22"/><path d="M850 422v1c-6.62.25-6.62.25-10-2 4.05-1.16 6.22-.84 10 1" fill="#F1F1F4"/><path d="m496 355 2 2c-.38 3.62-.38 3.62-1 7h-3z" fill="#DEE1E1"/><path d="m564 64 6 1v4l-6-3z" fill="#DEDEDD"/><path d="M638 699h2a55 55 0 0 1 3 5h-6z" fill="#E8EAEA"/><path d="M542 692h1l1 12h-3z" fill="#BEBEC0"/><path d="m687 660 2 1c.73 2.77 1 5.13 1 8l-3-1z" fill="#D9DAD5"/><path d="M767 612h6c-4.62 4-4.62 4-8 4z" fill="#D1D4D3"/><path d="m469 454 2 1Zm2 2v1l-8 1v-2c2.86-1.43 4.93-.6 8 0" fill="#E2E3E7"/><path d="m875 429 6 4c-1.81.62-1.81.62-4 1l-3-2z" fill="#EBEBF0"/><path d="M496 371c.93 3.01 1.04 3.87 0 7h-3c.38-2.94.38-2.94 1-6z" fill="#1B1C1E"/><path d="m545 674 3 3-3 2-2-3z" fill="#F5F3F8"/></svg>