<svg style="background:transparent" version="1.1" xmlns="http://www.w3.org/2000/svg" viewBox="0 0 1248 704"><path d="m994.06 91.75 3.72-.02c6.46.01 12.04.42 18.22 2.27q2.09.31 4.18.5c12.87 1.69 26.93 10.37 37.37 17.77 2.45 1.73 2.45 1.73 5.17 3.33 2.5 1.53 3.54 3.09 5.28 5.4l2.26 1.28c3.21 2.01 5.56 4.48 8.05 7.28l1.45 1.61c10.62 11.92 24.03 27.33 24.27 44.27-.52 8.35-3.38 14.67-9.52 20.38a18 18 0 0 1-6.5 3.18l-1.89.63c-6.16 1.08-10.62.32-16.12-2.63a95 95 0 0 1-7-6q-1.05-.9-2.15-1.8l-4.15-3.49c-1.8-1.81-2.6-3.42-3.7-5.71a126 126 0 0 0-4.76-5.32C1047 173 1047 173 1047 170l-1.82-.69c-2.77-1.66-3.54-3.55-5.18-6.31-2.32-2-2.32-2-5-4l-2.63-2.44c-4.25-3.55-9.29-5.47-14.37-7.56l-2.63-1.17a55 55 0 0 0-38.99-.84A112 112 0 0 0 963 154l-2.56 1.51c-4.8 3.01-7.55 5.64-10.44 10.49h-2l-.76 1.56q-1.47 2.88-3.05 5.69c-3.7 6.68-6.78 13.03-9 20.37-5 14.18-12.5 31.68-23.19 42.38a367 367 0 0 0-3 5l-2 2-2 3h-2l-.68 1.68C896.5 257.88 883.7 264.93 874 271l-2.82 1.78C869 274 869 274 867 274l2.01 4.02q1.1 2.2 2.16 4.39a84 84 0 0 0 6.01 10.78c2.06 3.19 2.82 6.16 3.82 9.81l1.5 2.37c1.77 3.1 2.34 5.92 3.04 9.39.46 2.24.46 2.24 1.4 5.43a226 226 0 0 1 2.62 10.56l.75 3.36c2.66 15.12 3.71 31.92 1.94 47.18-.4 4.33-.27 8.65-.19 13C892 397 892 397 891 400a165 165 0 0 0-.5 6.29l-.25 3.83-.25 4.07-.27 4.11-.5 8.07-.58 8.96c-.66 9.99-.66 9.99-.6 14.01C888 452 888 452 887 453c-.08 3.53 0 7.05.06 10.58-.06 3.42-.06 3.42-.56 5.23-.67 2.9-.63 5.63-.64 8.61v3.8l.01 3.97v3.91c0 8.47.32 16.6 2.13 24.9l1.4 8.09c.6 2.91.6 2.91 1.57 6.28 1.06 3.74 1.85 7.45 2.6 11.26.11.63.11.63.74 3.85q.6 2.99 1.15 5.98.68 3.12 1.53 6.18c1.26 4.97 1.66 9.96 2.07 15.05l.47 5.51.2 2.43c.27 2.37.27 2.37.78 4.89.46 2.34.7 4.54.8 6.92q.08 1.25.13 2.52l.12 2.6.13 2.52q.33 6.85.3 13.72c-.03 7.83.37 15.64.74 23.46l.15 3.38.14 3.05C903 644 903 644 902 645q-.11 3.29-.06 6.56l.02 3.63.04 2.81a77 77 0 0 0 12.18 3.87c9.34 2.44 18.9 4.99 25.82 12.13 1.37 2.94 1.37 2.94 1 6-3.02 6.04-8.35 8.6-14.44 10.88-14.46 4.55-29.5 6.58-44.56 8.12l-2.84.29c-12.99 1.13-26.07 1-39.1 1.02l-2.07.01c-24.48.05-48.86-.82-73.3-2.13l-2.53-.14q-13.8-.74-27.6-1.52c-66.79-3.74-133.74-5.85-200.56-1.53l-3.19.21c-63.5 4.14-63.5 4.14-94.85 8.04-5.37.66-10.63.9-16.03.9l-2.63.02-8.65.02-6.22.03-20.36.05-7.02.02-29.17.05q-20.9.02-41.79.11-14.7.06-29.4.06-8.8 0-17.57.05-8.25.05-16.5.02l-6.06.03q-4.12.02-8.25 0l-2.44.04c-2.23-.03-2.23-.03-5.87-.65-3.39-3.92-3.33-7.25-3.19-12.31l.08-3.8.11-2.89-3 1.71-4 2.23-1.97 1.13c-4.77 2.62-8.6 3.54-14.03 3.93l-3.56.31c-11.22-.2-22.14-4.35-30.25-12.02-4.84-5.5-6.12-12.07-6.19-19.29.9-3.2.9-3.2 2-6l1-3.25c3.28-7.49 10.57-13.57 17.84-17 3.68-1.28 7.24-1.21 11.1-1.19 7.24-.2 12.24-.94 18.06-5.56l2.45-1.84c10.78-8.45 20.61-18.18 30.36-27.79l1.51-1.46c2.5-2.5 4.17-4.74 5.68-7.91 1.48-1.42 1.48-1.42 3.18-2.75 6-4.94 10.65-10.92 15.24-17.14 3.96-5.3 8.13-10.43 12.43-15.46l1.48-1.74 2.9-3.36A60 60 0 0 0 286 537l-1.62-.88q-2.39-1.32-4.76-2.66a243 243 0 0 0-5.02-2.71c-5.4-2.95-9.7-6.49-14.04-10.81l-1.54-1.54A42 42 0 0 1 252 509l-1.5-2.51a62 62 0 0 1-6.86-16.88 73 73 0 0 0-2.14-6.98c-1.65-4.79-2.7-9.68-3.8-14.61a100 100 0 0 0-1.83-6.89 57 57 0 0 1-1.53-7.85c-.78-5.24-1.77-10.44-2.72-15.65l-.63-3.58c-1.08-5.92-2.32-11.57-4.35-17.24-2.04-5.73-2.8-11.81-3.64-17.81l-1-3q-.3-2.22-.5-4.44A55 55 0 0 0 220 383c-1-6.95-1.5-14-2-21l-.17-2.23c-.28-6.75 1.81-14.51 6.17-19.77 5.45-4.31 10.46-4.28 17.17-3.55 4.82.94 8.87 3.04 13.2 5.3A187 187 0 0 0 282 353l2.11.7c2.41.38 3.85-.11 6.14-.95l2.38-.85q2.25-.85 4.48-1.74a55 55 0 0 1 12.9-3.16l2-2q2.94-.4 5.91-.72C320 344 320 344 322.94 343c2.55-.83 4.43-1.2 7.06-1.44 13.27-1.26 22.03-3.71 31-13.56q2.29-2.92 4.44-5.93c2.34-3.11 4.94-5.96 7.56-8.84q1.93-2.15 3.75-4.4c4.4-5.41 9.32-9.99 16.42-11.2A21 21 0 0 1 404 300a34 34 0 0 1 4.18 4.75l2.05 2.55c1.87 2.86 2.8 5.43 3.77 8.7q.94 2.45 1.94 4.87l1.05 2.63 1.83 4.54a131 131 0 0 1 4.43 14.17c1.15 4.29 2.45 8.54 3.75 12.79l1.68 5.63.77 2.53.55 1.84a130 130 0 0 0 18.12-7.51q3.4-1.76 6.85-3.45l2.14-1.05 4.18-2.05A97 97 0 0 0 473 344l5-2c3.03-1.6 6.01-3.31 9-5a353 353 0 0 1 15-8q3.26-1.79 6.5-3.61 4.05-2.25 8.12-4.45 4.57-2.48 9.06-5.07c4.72-2.66 9.56-5.03 14.44-7.37 2.88-1.5 2.88-1.5 5.82-3.5 3.25-2.13 6.47-3.51 10.06-5a139 139 0 0 0 13-7c4.93-2.81 9.9-5.5 15-8l4-2c24-12 24-12 26.35-13.16 3.8-1.87 7.56-3.75 11.21-5.9 4.04-2.28 8.18-4.12 12.44-5.94l3.5-1.5 3.5-1.5c4.48-1.95 8.91-3.93 13.25-6.19A29 29 0 0 1 667 246c3.13-1.26 6.18-2.62 9.24-4.05A44 44 0 0 1 689 238q2.87-1.06 5.74-2.18c6.86-2.5 14-4.06 21.16-5.39C718 230 718 230 721 229q3.71-.54 7.44-1a93 93 0 0 0 11.56-2h6l2-1q2.8-.14 5.63-.13l3.44-.01 3.61.01 3.56-.01c5.7.01 11.14.18 16.76 1.14l3.06-.06c3.32.07 5.81.99 8.94 2.06h2.5c3.14 0 5.53.99 8.5 2l3.37.44c2.91.45 4.8.96 7.44 2.06 5.88 2.3 11.58 3.29 17.7 1.44A71 71 0 0 0 836 232l2.43-1.4c12.01-7.05 12.01-7.05 15.62-10.66C856 218 856 218 858.5 216.56c3.64-2.27 5.68-5.4 8.12-8.87L868 206h2l.25-1.69c.98-3.02 2.74-4.84 4.75-7.31 11.21-18.94 11.21-18.94 13.37-27.87 3.01-11.48 10.77-22.57 17.94-31.87 1.7-2.26 1.7-2.26 3.11-4.74 9.1-14.54 26.5-25.24 41.58-32.52l2.12-1.07a50 50 0 0 1 14.91-4.44c2.97-.49 2.97-.49 4.82-.98 7.06-1.83 13.95-1.81 21.21-1.76" fill="#111311"/><path d="m994.06 91.75 3.72-.02c6.46.01 12.04.42 18.22 2.27q2.09.31 4.18.5c12.87 1.69 26.93 10.37 37.37 17.77 2.45 1.73 2.45 1.73 5.17 3.33 2.5 1.53 3.54 3.09 5.28 5.4l2.26 1.28c3.21 2.01 5.56 4.48 8.05 7.28l1.45 1.61c10.62 11.92 24.03 27.33 24.27 44.27-.52 8.35-3.38 14.67-9.52 20.38a18 18 0 0 1-6.5 3.18l-1.89.63c-6.16 1.08-10.62.32-16.12-2.63a95 95 0 0 1-7-6q-1.05-.9-2.15-1.8l-4.15-3.49c-1.8-1.81-2.6-3.42-3.7-5.71a126 126 0 0 0-4.76-5.32C1047 173 1047 173 1047 170l-1.82-.69c-2.77-1.66-3.54-3.55-5.18-6.31-2.32-2-2.32-2-5-4l-2.63-2.44c-4.25-3.55-9.29-5.47-14.37-7.56l-2.63-1.17a55 55 0 0 0-38.99-.84A112 112 0 0 0 963 154l-2.56 1.51c-4.8 3.01-7.55 5.64-10.44 10.49h-2l-.76 1.56q-1.47 2.88-3.05 5.69c-3.7 6.68-6.78 13.03-9 20.37-5 14.18-12.5 31.68-23.19 42.38a367 367 0 0 0-3 5l-2 2-2 3h-2l-.68 1.68C896.5 257.88 883.7 264.93 874 271l-2.82 1.78C869 274 869 274 867 274l2.01 4.02q1.1 2.2 2.16 4.39a84 84 0 0 0 6.01 10.78c2.06 3.19 2.82 6.16 3.82 9.81l1.5 2.37c1.77 3.1 2.34 5.92 3.04 9.39.46 2.24.46 2.24 1.4 5.43a226 226 0 0 1 2.62 10.56l.75 3.36c2.66 15.12 3.71 31.92 1.94 47.18-.4 4.33-.27 8.65-.19 13C892 397 892 397 891 400a165 165 0 0 0-.5 6.29l-.25 3.83-.25 4.07-.27 4.11-.5 8.07-.58 8.96c-.66 9.99-.66 9.99-.6 14.01C888 452 888 452 887 453c-.08 3.53 0 7.05.06 10.58-.06 3.42-.06 3.42-.56 5.23-.67 2.9-.63 5.63-.64 8.61v3.8l.01 3.97v3.91c0 8.47.32 16.6 2.13 24.9l1.4 8.09c.6 2.91.6 2.91 1.57 6.28 1.06 3.74 1.85 7.45 2.6 11.26.11.63.11.63.74 3.85q.6 2.99 1.15 5.98.68 3.12 1.53 6.18c1.26 4.97 1.66 9.96 2.07 15.05l.47 5.51.2 2.43c.27 2.37.27 2.37.78 4.89.46 2.34.7 4.54.8 6.92q.08 1.25.13 2.52l.12 2.6.13 2.52q.33 6.85.3 13.72c-.03 7.83.37 15.64.74 23.46l.15 3.38.14 3.05C903 644 903 644 902 645q-.11 3.29-.06 6.56l.02 3.63.04 2.81a77 77 0 0 0 12.18 3.87c9.34 2.44 18.9 4.99 25.82 12.13 1.37 2.94 1.37 2.94 1 6-3.02 6.04-8.35 8.6-14.44 10.88-14.46 4.55-29.5 6.58-44.56 8.12l-2.84.29c-12.99 1.13-26.07 1-39.1 1.02l-2.07.01c-24.48.05-48.86-.82-73.3-2.13l-2.53-.14q-13.8-.74-27.6-1.52c-66.79-3.74-133.74-5.85-200.56-1.53l-3.19.21a2535 2535 0 0 0-90.68 7.56q-3.03.34-6.05.75c-6.13.68-12.25.61-18.4.59h-3.97l-10.68-.01-11.2-.01-21.16-.02-24.1-.02L295 704c2.85-3 6.06-4.96 9.62-7.03l1.98-1.16 4.21-2.47q5.52-3.23 11.02-6.48l2.18-1.3a475 475 0 0 0 15.67-9.69c7.81-5.02 15.8-9.7 23.82-14.37a832 832 0 0 0 31.04-18.94q5.69-3.59 11.4-7.12 18.13-11.28 35.77-23.28l8.54-5.79 2.67-1.83c6.32-4.26 11.84-6.38 19.33-7.85 36.54-7.73 71.1-22.84 104.75-38.69l2.96-1.39a745 745 0 0 0 36.31-18.15l9.36-5a3810 3810 0 0 0 33.31-17.96l2.7-1.48q5.78-3.15 11.53-6.32l3.58-1.95 2.98-1.64C682 503 682 503 684 503l.8 2.41c4.84 14.68 9.6 29.06 17.2 42.59l1.92 3.61c8.7 16.13 20.97 30.75 34.98 42.57 10.73 9.33 20.52 19.26 23.1 33.82.25 3.69.34 7.32 0 11-1.64 1.64-3.75 1.44-6 1.75-8.9 1.59-14.7 4.95-19.9 12.38-2.29 3.9-2.27 7.31-2.29 11.74l-.04 3.68c.22 3.39.5 5.54 2.23 8.45 2.3 1.18 2.3 1.18 5 2l2.61 1.04 2.7 1.02 2.68 1.04c16.04 4.8 36.76 3.93 51.51-3.97 12.2-10.37 14.97-26.86 16.5-42.13q.17-4.05.2-8.09l.02-2.28.02-4.74q.02-3.54.07-7.08c.08-11.32-.76-22.31-4.44-33.11-.9-2.81-.9-3.99.13-6.7 18.44 13.33 31.02 25.78 35.43 48.68 1.17 7.68 1 15.58.57 23.32-1.78 1.78-4.59 1.43-7 1.69-7.4 1.11-12.8 3.37-17.59 9.27-4.35 6.58-6.46 13.15-5.4 21.04 1.33 4.75 3.47 8 7.55 10.81 8.63 4.59 17.6 5.73 27.25 5.63l3.18-.03c11.7-.24 23.08-2.22 32.01-10.41 9.67-10.87 9.15-28.16 9.17-41.84l.01-3.37v-14.42c-.02-17.19-.06-34.29-2.18-51.37l-.36-2.96c-1.87-14.77-5.17-29.14-8.9-43.52-3.72-14.37-3.98-28.38-3.99-43.15v-2.81c0-23.2 1.67-46.27 3.9-69.35 1.22-13.16 1.58-26.26 1.64-39.47l.05-5.99c.17-19.51-1.46-38.36-8.34-56.75l-.78-2.11a140 140 0 0 0-12.72-25.84c-1.74-3.54-2.48-5.19-1.5-9.05 2.51-2.23 5.37-3.73 8.31-5.31a811 811 0 0 0 7.44-4.32c4.85-2.95 9.06-6.55 13.25-10.37l2.5-2.25c15.71-14.91 25.47-33.58 33.54-53.4 8.71-21.33 19.41-41.1 41.32-51.28 16.22-6.56 33.3-5.58 49.26 1.18 5.57 2.67 10.47 6.03 15.38 9.75l3.06 2.25c7.43 6.4 13.1 15.18 18.9 23.02 5.3 7.08 10.17 12.73 19.3 14.28 6.11.25 11.2-.17 16.15-3.97 5.12-5.09 6-10.28 6.15-17.39-.07-7.38-1.8-12.89-5.56-19.19l-1.5-2.7c-4.19-7.07-9.43-13-15.12-18.87q-1.93-2.01-3.82-4.06c-18.56-19.5-45.66-32.93-72.75-33.77q-3.61-.02-7.25.03l-3.85.02c-8.92.15-17.13.75-25.7 3.35l-3.52 1.03c-27.79 9.04-48.9 29.64-62.22 55.21-3.3 6.56-6.12 13.32-8.97 20.08-11.43 27.02-30 51.45-57.9 62.97-3.77 1.12-6.72.75-10.4-.29l-6.63-1.81-1.88-.53a211 211 0 0 0-17.93-3.85l-2.8-.5c-21.87-3.85-43.94-3.28-65.76.69l-2.65.46C694.27 237.58 666.7 248.72 640 261l-3.03 1.39a562 562 0 0 0-29.6 14.72 677 677 0 0 1-19.19 9.76 660 660 0 0 0-25.82 13.56c-6.9 3.8-13.86 7.46-20.86 11.07q-13.09 6.76-25.99 13.84a2570 2570 0 0 1-25.83 13.94q-8.83 4.7-17.6 9.51C441.7 365.37 441.7 365.37 428 369a329 329 0 0 1-4.94-15.63 493 493 0 0 0-8.56-26.5l-1.08-3.12c-2.82-7.86-6.03-15.72-12.36-21.38-3.9-1.75-5.82-2.16-10.06-1.37-10.3 5.84-17.78 16.39-25 25.51a332 332 0 0 1-8.63 10.36c-6.13 5.51-13.86 6.1-21.72 7.46-15.02 2.63-29.26 6.62-43.65 11.67-6.07 2.02-10.86 1.01-16.63-1.44l-1.89-.79q-3.24-1.37-6.48-2.77l-8.26-3.54-5.5-2.39c-7.79-3.37-14.6-6.25-23.24-5.07-3.65 2.13-5.44 4.13-7 8-2.5 22.74 2.14 45.1 7.64 67.01 2.18 8.79 3.8 17.64 5.36 26.55 11.76 66.8 11.76 66.8 35.78 83.7A86 86 0 0 0 292 535a40 40 0 0 1-4.8 7.8l-1.7 2.19-1.82 2.32-1.88 2.42a446 446 0 0 1-15.86 18.89 261 261 0 0 0-7.38 8.88c-9.38 11.5-19.92 21.98-30.35 32.51l-3.49 3.55c-24.19 24.64-24.19 24.64-36.79 24.8l-2.18.01c-8.72.29-14.49 2.43-21.5 7.69-5.42 7.07-9.28 14.32-8.7 23.4 1.07 6.01 3.65 10.72 8.61 14.45 9.77 5.82 22.65 8.41 33.8 5.59A73 73 0 0 0 220 678l2 1-1.5 2.56c-2.77 6.34-2.66 15.97-.5 22.44-3-1-3-1-4.18-2.61-1.13-3.28-1-6.18-.95-9.64l.06-3.83.07-2.92-3 1.71-4 2.23-1.97 1.13c-4.77 2.62-8.6 3.54-14.03 3.93l-3.56.31c-11.22-.2-22.14-4.35-30.25-12.02-4.84-5.5-6.12-12.07-6.19-19.29.9-3.2.9-3.2 2-6l1-3.25c3.28-7.49 10.57-13.57 17.84-17 3.68-1.28 7.24-1.21 11.1-1.19 7.24-.2 12.24-.94 18.06-5.56l2.45-1.84c10.78-8.45 20.61-18.18 30.36-27.79l1.51-1.46c2.5-2.5 4.17-4.74 5.68-7.91 1.48-1.42 1.48-1.42 3.18-2.75 6-4.94 10.65-10.92 15.24-17.14 3.96-5.3 8.13-10.43 12.43-15.46l1.48-1.74 2.9-3.36A60 60 0 0 0 286 537l-1.62-.88q-2.39-1.32-4.76-2.66a243 243 0 0 0-5.02-2.71c-5.4-2.95-9.7-6.49-14.04-10.81l-1.54-1.54A42 42 0 0 1 252 509l-1.5-2.51a62 62 0 0 1-6.86-16.88 73 73 0 0 0-2.14-6.98c-1.65-4.79-2.7-9.68-3.8-14.61a100 100 0 0 0-1.83-6.89 57 57 0 0 1-1.53-7.85c-.78-5.24-1.77-10.44-2.72-15.65l-.63-3.58c-1.08-5.92-2.32-11.57-4.35-17.24-2.04-5.73-2.8-11.81-3.64-17.81l-1-3q-.3-2.22-.5-4.44A55 55 0 0 0 220 383c-1-6.95-1.5-14-2-21l-.17-2.23c-.28-6.75 1.81-14.51 6.17-19.77 5.45-4.31 10.46-4.28 17.17-3.55 4.82.94 8.87 3.04 13.2 5.3A187 187 0 0 0 282 353l2.11.7c2.41.38 3.85-.11 6.14-.95l2.38-.85q2.25-.85 4.48-1.74a55 55 0 0 1 12.9-3.16l2-2q2.94-.4 5.91-.72C320 344 320 344 322.94 343c2.55-.83 4.43-1.2 7.06-1.44 13.27-1.26 22.03-3.71 31-13.56q2.29-2.92 4.44-5.93c2.34-3.11 4.94-5.96 7.56-8.84q1.93-2.15 3.75-4.4c4.4-5.41 9.32-9.99 16.42-11.2A21 21 0 0 1 404 300a34 34 0 0 1 4.18 4.75l2.05 2.55c1.87 2.86 2.8 5.43 3.77 8.7q.94 2.45 1.94 4.87l1.05 2.63 1.83 4.54a131 131 0 0 1 4.43 14.17c1.15 4.29 2.45 8.54 3.75 12.79l1.68 5.63.77 2.53.55 1.84a130 130 0 0 0 18.12-7.51q3.4-1.76 6.85-3.45l2.14-1.05 4.18-2.05A97 97 0 0 0 473 344l5-2c3.03-1.6 6.01-3.31 9-5a353 353 0 0 1 15-8q3.26-1.79 6.5-3.61 4.05-2.25 8.12-4.45 4.57-2.48 9.06-5.07c4.72-2.66 9.56-5.03 14.44-7.37 2.88-1.5 2.88-1.5 5.82-3.5 3.25-2.13 6.47-3.51 10.06-5a139 139 0 0 0 13-7c4.93-2.81 9.9-5.5 15-8l4-2c24-12 24-12 26.35-13.16 3.8-1.87 7.56-3.75 11.21-5.9 4.04-2.28 8.18-4.12 12.44-5.94l3.5-1.5 3.5-1.5c4.48-1.95 8.91-3.93 13.25-6.19A29 29 0 0 1 667 246c3.13-1.26 6.18-2.62 9.24-4.05A44 44 0 0 1 689 238q2.87-1.06 5.74-2.18c6.86-2.5 14-4.06 21.16-5.39C718 230 718 230 721 229q3.71-.54 7.44-1a93 93 0 0 0 11.56-2h6l2-1q2.8-.14 5.63-.13l3.44-.01 3.61.01 3.56-.01c5.7.01 11.14.18 16.76 1.14l3.06-.06c3.32.07 5.81.99 8.94 2.06h2.5c3.14 0 5.53.99 8.5 2l3.37.44c2.91.45 4.8.96 7.44 2.06 5.88 2.3 11.58 3.29 17.7 1.44A71 71 0 0 0 836 232l2.43-1.4c12.01-7.05 12.01-7.05 15.62-10.66C856 218 856 218 858.5 216.56c3.64-2.27 5.68-5.4 8.12-8.87L868 206h2l.25-1.69c.98-3.02 2.74-4.84 4.75-7.31 11.21-18.94 11.21-18.94 13.37-27.87 3.01-11.48 10.77-22.57 17.94-31.87 1.7-2.26 1.7-2.26 3.11-4.74 9.1-14.54 26.5-25.24 41.58-32.52l2.12-1.07a50 50 0 0 1 14.91-4.44c2.97-.49 2.97-.49 4.82-.98 7.06-1.83 13.95-1.81 21.21-1.76" fill="#B8BAB8"/><path d="m684 503 .79 2.41c4.85 14.68 9.61 29.06 17.21 42.59l1.92 3.61c8.71 16.13 20.97 30.75 34.98 42.57 10.73 9.33 20.52 19.26 23.1 33.82.26 3.69.35 7.32 0 11-2.04 2.04-5.98 1.75-8.75 2.11-3.1.85-4.57 1.75-7.16 3.51-6.48 3.72-13.34 2.45-20.47 1.76q-4.03-.35-8.08-.67l-2.29-.18c-28.32-2.07-56.87-1.73-85.25-1.72h-2.83c-30.77.01-61.45.36-92.17 2.19l-2.75.16a1618 1618 0 0 0-76.81 6.58l-7.38.78c-30.66 3.24-30.66 3.24-43.01 5.33-7.55 1.28-15.14 2.27-22.74 3.27l-3.91.52q-9.2 1.22-18.4 2.36c3.27-3.66 7.02-5.93 11.25-8.31a913 913 0 0 0 30.83-18.85l8.15-5.12a1028 1028 0 0 0 31.36-20.48l8.47-5.74 2.71-1.85c6.39-4.31 11.92-6.47 19.48-7.96 36.54-7.73 71.1-22.84 104.75-38.69l2.96-1.39a745 745 0 0 0 36.32-18.15l9.35-5a3810 3810 0 0 0 33.31-17.96l2.7-1.48 11.54-6.32 3.57-1.95 2.98-1.64C682 503 682 503 684 503" fill="#ECEEEC"/><path d="m994.06 91.75 3.72-.02c6.46.01 12.04.42 18.22 2.27q2.09.31 4.18.5c12.87 1.69 26.93 10.37 37.37 17.77 2.45 1.73 2.45 1.73 5.17 3.33 2.5 1.53 3.54 3.09 5.28 5.4l2.26 1.28c3.21 2.01 5.56 4.48 8.05 7.28l1.45 1.61c10.62 11.92 24.03 27.33 24.27 44.27-.52 8.35-3.38 14.67-9.52 20.38a18 18 0 0 1-6.5 3.18l-1.89.63c-6.16 1.08-10.62.32-16.12-2.63a95 95 0 0 1-7-6q-1.05-.9-2.15-1.8l-4.15-3.49c-1.8-1.81-2.6-3.42-3.7-5.71a126 126 0 0 0-4.76-5.32C1047 173 1047 173 1047 170l-1.82-.69c-2.77-1.66-3.54-3.55-5.18-6.31-2.32-2-2.32-2-5-4l-2.63-2.44c-4.25-3.55-9.29-5.47-14.37-7.56l-2.63-1.17a55 55 0 0 0-38.99-.84A112 112 0 0 0 963 154l-2.56 1.51c-4.8 3.01-7.55 5.64-10.44 10.49h-2l-.76 1.56q-1.47 2.88-3.05 5.69c-3.7 6.68-6.78 13.03-9 20.37-5 14.18-12.5 31.68-23.19 42.38a367 367 0 0 0-3 5l-2 2-2 3h-2l-.68 1.68C896.5 257.88 883.7 264.93 874 271l-2.82 1.78C869 274 869 274 867 274l2.01 4.02q1.1 2.2 2.16 4.39a84 84 0 0 0 6.01 10.78c2.06 3.19 2.82 6.16 3.82 9.81l1.5 2.37c1.77 3.1 2.34 5.92 3.04 9.39.46 2.24.46 2.24 1.4 5.43a226 226 0 0 1 2.62 10.56l.75 3.36c2.66 15.12 3.71 31.92 1.94 47.18-.4 4.33-.27 8.65-.19 13C892 397 892 397 891 400a165 165 0 0 0-.5 6.29l-.25 3.83-.25 4.07-.27 4.11-.5 8.07-.58 8.96c-.66 9.99-.66 9.99-.6 14.01C888 452 888 452 887 453c-.08 3.53 0 7.05.06 10.58-.06 3.42-.06 3.42-.56 5.23-.67 2.9-.63 5.63-.64 8.61v3.8l.01 3.97v3.91c0 8.47.32 16.6 2.13 24.9l1.4 8.09c.6 2.91.6 2.91 1.57 6.28 1.06 3.74 1.85 7.45 2.6 11.26.11.63.11.63.74 3.85q.6 2.99 1.15 5.98.68 3.12 1.53 6.18c1.26 4.97 1.66 9.96 2.07 15.05l.47 5.51.2 2.43c.27 2.37.27 2.37.78 4.89.46 2.34.7 4.54.8 6.92q.08 1.25.13 2.52l.12 2.6.13 2.52q.33 6.85.3 13.72c-.03 7.83.37 15.64.74 23.46l.15 3.38.14 3.05C903 644 903 644 902 645q-.11 3.29-.06 6.56l.02 3.63.04 2.81a77 77 0 0 0 12.18 3.87c9.34 2.44 18.9 4.99 25.82 12.13 1.37 2.94 1.37 2.94 1 6-3.02 6.04-8.35 8.6-14.44 10.88-14.46 4.55-29.5 6.58-44.56 8.12l-2.84.29c-12.99 1.13-26.07 1-39.1 1.02l-2.07.01c-24.48.05-48.86-.82-73.3-2.13l-2.53-.14q-13.8-.74-27.6-1.52c-66.79-3.74-133.74-5.85-200.56-1.53l-3.19.21c-31.73 2.07-63.53 4.36-95.12 8.06-4.15.49-8.2.85-12.38.83l-2.92-.01-2.95-.03-3.06-.01L407 704v-1c26.4-3 52.78-5.73 79.3-7.65l12.07-.93 10.13-.79 4.64-.37A1181 1181 0 0 1 531 692l3.93-.25c26.38-1.66 52.72-2.15 79.16-2.13h9.63c38.15.01 76.08 1.45 114.14 3.98 13.37.88 26.75 1.65 40.14 2.4l3.21.18c15.77.87 31.54.98 47.34.95h10.36c40.13.06 40.13.06 58.03-2.82l3.27-.51c27.27-4.55 27.27-4.55 35.8-10.8 2-3 2-3 2.61-5.37-.74-3.12-1.23-3.35-3.84-5.03-5.6-3.35-11.73-5.03-17.97-6.85l-3.52-1.06A151 151 0 0 0 899 661a5370 5370 0 0 1-.29-22.46q-.08-5.22-.13-10.44c-.4-34.66-3.1-67.97-11.85-101.58-3.7-14.37-3.97-28.38-3.98-43.15v-2.81c0-23.2 1.67-46.27 3.9-69.35 1.22-13.16 1.58-26.26 1.64-39.47l.05-5.99c.17-19.51-1.46-38.36-8.34-56.75l-.78-2.11a140 140 0 0 0-12.72-25.84c-1.74-3.54-2.48-5.19-1.5-9.05 2.51-2.23 5.37-3.73 8.31-5.31a811 811 0 0 0 7.44-4.32c4.85-2.95 9.06-6.55 13.25-10.37l2.5-2.25c15.71-14.91 25.47-33.58 33.54-53.4 8.71-21.33 19.41-41.1 41.32-51.28 16.22-6.56 33.3-5.58 49.26 1.18 5.57 2.67 10.47 6.03 15.38 9.75l3.06 2.25c7.43 6.4 13.1 15.18 18.9 23.02 5.3 7.08 10.17 12.73 19.3 14.28 6.11.25 11.2-.17 16.15-3.97 5.12-5.09 6-10.28 6.15-17.39-.07-7.38-1.8-12.89-5.56-19.19l-1.5-2.7c-4.19-7.07-9.43-13-15.12-18.87q-1.93-2.01-3.82-4.06c-18.56-19.5-45.66-32.93-72.75-33.77q-3.61-.02-7.25.03l-3.85.02c-8.92.15-17.13.75-25.7 3.35l-3.52 1.03c-27.79 9.04-48.9 29.64-62.22 55.21-3.3 6.56-6.12 13.32-8.97 20.08-11.43 27.02-30 51.45-57.9 62.97-3.77 1.12-6.72.75-10.4-.29l-6.63-1.81-1.88-.53a211 211 0 0 0-17.93-3.85l-2.8-.5c-21.87-3.85-43.94-3.28-65.76.69l-2.65.46C694.27 237.58 666.7 248.72 640 261l-3.03 1.39a562 562 0 0 0-29.6 14.72 677 677 0 0 1-19.19 9.76 660 660 0 0 0-25.82 13.56c-6.9 3.8-13.86 7.46-20.86 11.07q-13.09 6.76-25.99 13.84a2570 2570 0 0 1-25.83 13.94q-8.83 4.7-17.6 9.51C441.7 365.37 441.7 365.37 428 369a329 329 0 0 1-4.94-15.63 493 493 0 0 0-8.56-26.5l-1.08-3.12c-2.82-7.86-6.03-15.72-12.36-21.38-3.9-1.75-5.82-2.16-10.06-1.37-10.3 5.84-17.78 16.39-25 25.51a332 332 0 0 1-8.63 10.36c-6.13 5.51-13.86 6.1-21.72 7.46-15.02 2.63-29.26 6.62-43.65 11.67-6.07 2.02-10.86 1.01-16.63-1.44l-1.89-.79q-3.24-1.37-6.48-2.77l-8.26-3.54-5.5-2.39c-7.79-3.37-14.6-6.25-23.24-5.07-3.65 2.13-5.44 4.13-7 8-2.5 22.74 2.14 45.1 7.64 67.01 2.18 8.79 3.8 17.64 5.36 26.55 11.76 66.8 11.76 66.8 35.78 83.7A86 86 0 0 0 292 535a40 40 0 0 1-4.8 7.8l-1.7 2.19-1.82 2.32-1.88 2.42a446 446 0 0 1-15.86 18.89 261 261 0 0 0-7.38 8.88c-9.38 11.5-19.92 21.98-30.35 32.51l-3.49 3.55c-24.19 24.64-24.19 24.64-36.79 24.8l-2.18.01c-8.72.29-14.49 2.43-21.5 7.69-5.42 7.07-9.28 14.32-8.7 23.4 1.07 6.01 3.65 10.72 8.61 14.45 9.77 5.82 22.65 8.41 33.8 5.59A73 73 0 0 0 220 678l2 1-1.5 2.56c-2.77 6.34-2.66 15.97-.5 22.44-3-1-3-1-4.18-2.61-1.13-3.28-1-6.18-.95-9.64l.06-3.83.07-2.92-3 1.71-4 2.23-1.97 1.13c-4.77 2.62-8.6 3.54-14.03 3.93l-3.56.31c-11.22-.2-22.14-4.35-30.25-12.02-4.84-5.5-6.12-12.07-6.19-19.29.9-3.2.9-3.2 2-6l1-3.25c3.28-7.49 10.57-13.57 17.84-17 3.68-1.28 7.24-1.21 11.1-1.19 7.24-.2 12.24-.94 18.06-5.56l2.45-1.84c10.78-8.45 20.61-18.18 30.36-27.79l1.51-1.46c2.5-2.5 4.17-4.74 5.68-7.91 1.48-1.42 1.48-1.42 3.18-2.75 6-4.94 10.65-10.92 15.24-17.14 3.96-5.3 8.13-10.43 12.43-15.46l1.48-1.74 2.9-3.36A60 60 0 0 0 286 537l-1.62-.88q-2.39-1.32-4.76-2.66a243 243 0 0 0-5.02-2.71c-5.4-2.95-9.7-6.49-14.04-10.81l-1.54-1.54A42 42 0 0 1 252 509l-1.5-2.51a62 62 0 0 1-6.86-16.88 73 73 0 0 0-2.14-6.98c-1.65-4.79-2.7-9.68-3.8-14.61a100 100 0 0 0-1.83-6.89 57 57 0 0 1-1.53-7.85c-.78-5.24-1.77-10.44-2.72-15.65l-.63-3.58c-1.08-5.92-2.32-11.57-4.35-17.24-2.04-5.73-2.8-11.81-3.64-17.81l-1-3q-.3-2.22-.5-4.44A55 55 0 0 0 220 383c-1-6.95-1.5-14-2-21l-.17-2.23c-.28-6.75 1.81-14.51 6.17-19.77 5.45-4.31 10.46-4.28 17.17-3.55 4.82.94 8.87 3.04 13.2 5.3A187 187 0 0 0 282 353l2.11.7c2.41.38 3.85-.11 6.14-.95l2.38-.85q2.25-.85 4.48-1.74a55 55 0 0 1 12.9-3.16l2-2q2.94-.4 5.91-.72C320 344 320 344 322.94 343c2.55-.83 4.43-1.2 7.06-1.44 13.27-1.26 22.03-3.71 31-13.56q2.29-2.92 4.44-5.93c2.34-3.11 4.94-5.96 7.56-8.84q1.93-2.15 3.75-4.4c4.4-5.41 9.32-9.99 16.42-11.2A21 21 0 0 1 404 300a34 34 0 0 1 4.18 4.75l2.05 2.55c1.87 2.86 2.8 5.43 3.77 8.7q.94 2.45 1.94 4.87l1.05 2.63 1.83 4.54a131 131 0 0 1 4.43 14.17c1.15 4.29 2.45 8.54 3.75 12.79l1.68 5.63.77 2.53.55 1.84a130 130 0 0 0 18.12-7.51q3.4-1.76 6.85-3.45l2.14-1.05 4.18-2.05A97 97 0 0 0 473 344l5-2c3.03-1.6 6.01-3.31 9-5a353 353 0 0 1 15-8q3.26-1.79 6.5-3.61 4.05-2.25 8.12-4.45 4.57-2.48 9.06-5.07c4.72-2.66 9.56-5.03 14.44-7.37 2.88-1.5 2.88-1.5 5.82-3.5 3.25-2.13 6.47-3.51 10.06-5a139 139 0 0 0 13-7c4.93-2.81 9.9-5.5 15-8l4-2c24-12 24-12 26.35-13.16 3.8-1.87 7.56-3.75 11.21-5.9 4.04-2.28 8.18-4.12 12.44-5.94l3.5-1.5 3.5-1.5c4.48-1.95 8.91-3.93 13.25-6.19A29 29 0 0 1 667 246c3.13-1.26 6.18-2.62 9.24-4.05A44 44 0 0 1 689 238q2.87-1.06 5.74-2.18c6.86-2.5 14-4.06 21.16-5.39C718 230 718 230 721 229q3.71-.54 7.44-1a93 93 0 0 0 11.56-2h6l2-1q2.8-.14 5.63-.13l3.44-.01 3.61.01 3.56-.01c5.7.01 11.14.18 16.76 1.14l3.06-.06c3.32.07 5.81.99 8.94 2.06h2.5c3.14 0 5.53.99 8.5 2l3.37.44c2.91.45 4.8.96 7.44 2.06 5.88 2.3 11.58 3.29 17.7 1.44A71 71 0 0 0 836 232l2.43-1.4c12.01-7.05 12.01-7.05 15.62-10.66C856 218 856 218 858.5 216.56c3.64-2.27 5.68-5.4 8.12-8.87L868 206h2l.25-1.69c.98-3.02 2.74-4.84 4.75-7.31 11.21-18.94 11.21-18.94 13.37-27.87 3.01-11.48 10.77-22.57 17.94-31.87 1.7-2.26 1.7-2.26 3.11-4.74 9.1-14.54 26.5-25.24 41.58-32.52l2.12-1.07a50 50 0 0 1 14.91-4.44c2.97-.49 2.97-.49 4.82-.98 7.06-1.83 13.95-1.81 21.21-1.76" fill="#E7E7E9"/><path d="M398 300c9.92 4.66 13.51 15.74 17.05 25.39a627 627 0 0 1 7.58 23.09l1.75 5.61 1.02 3.31c.6 2.6.6 2.6-.4 4.6l-2-1 .44 1.98c1.01 4.75 1.82 9.13 1.56 14.02-3-1-3-1-4.31-3.31-2.06-3.27-4.48-4.62-7.69-6.69v-2l-2-.75c-3.76-1.57-7.37-3.4-11-5.25v-2c-11.2-3.22-22.39-5.84-34-7l-2-1c.45-6.69 3.07-12.03 6-18h2c1.28-2.52 2.44-5.03 3.56-7.62 2.35-4.76 5.8-8.35 9.42-12.18C387 309 387 309 389 306c-3.26 1.17-4.05 2.09-5.94 5.12L381 314c-2.75.38-2.75.38-5 0 12.68-15.93 12.68-15.93 22-14" fill="#252623"/><path d="M242.7 344.84c11.8 4.7 24.17 11.2 33.3 20.16l1 3-1.6 1.5c-15.05 14.28-25.26 26.44-31.4 46.5l-.97 3.1q-1.05 3.45-2.03 6.9h-3c-1.86-3.13-2.2-5.37-2-9h-2l-6-27h-2l1-7-2 6h-1c-1.75-9.34-2.26-18.31-2.13-27.81l.03-3.87.1-9.32c.38 0 .38 0 2.31.07 2.7-.07 2.7-.07 5.7-1.07v-2c4.15-2.08 8.4-1.5 12.7-.16" fill="#272825"/><path d="M812 574c5.67 2.83 9.96 6.47 14.58 10.78a93 93 0 0 0 6.11 5.1c10.64 9.05 14.81 23.75 16.31 37.12q.52 9.5 0 19c-1.79 1.79-4.63 1.47-7.06 1.75-4.43.62-7.48 1.24-11.06 3.94-4.2 3.07-7.78 2.43-12.76 1.7L816 653l-.06-4-.04-2.25c.1-2.75.1-2.75.59-6.42.53-4.14.69-8.25.71-12.42l.02-2.28.02-4.74q.02-3.54.07-7.08c.08-11.27-.71-22.26-4.41-33.01-.9-2.8-.9-2.8-.9-6.8" fill="#E9EBE9"/><path d="M254.44 341.75c3.43 1.75 6.86 3.41 10.42 4.87l1.93.8 5.47 2.19C275 351 275 351 276 354a187 187 0 0 1-19.68-7.56c-17.47-7.65-17.47-7.65-26.32-6.44-3.64 2.13-5.43 4.13-7 8-2.5 22.74 2.14 45.1 7.65 67.01a393 393 0 0 1 5.35 26.55c11.76 66.8 11.76 66.8 35.79 83.7a86 86 0 0 0 20.2 9.74 40 40 0 0 1-4.8 7.8l-1.68 2.19-1.82 2.32-1.88 2.42a454 454 0 0 1-15.86 18.89 250 250 0 0 0-7.4 8.88c-9.36 11.5-19.9 21.98-30.33 32.51l-3.5 3.55c-24.2 24.64-24.2 24.64-36.78 24.8l-2.2.01c-8.71.29-14.48 2.43-21.5 7.69-5.4 7.07-9.27 14.32-8.7 23.4 1.08 6.01 3.67 10.72 8.63 14.45 9.77 5.82 22.64 8.41 33.8 5.59q12-3.85 22.03-11.5l2 1-1.5 2.56c-2.77 6.34-2.65 15.97-.5 22.44-3-1-3-1-4.18-2.61-1.12-3.28-1.01-6.18-.94-9.64l.05-3.83.07-2.92-3 1.71-4 2.23-1.96 1.13c-4.77 2.62-8.61 3.54-14.04 3.93l-3.56.31c-11.22-.2-22.14-4.35-30.24-12.02-4.84-5.5-6.13-12.07-6.2-19.29.9-3.2.9-3.2 2-6l1-3.25c3.29-7.49 10.57-13.57 17.85-17 3.67-1.28 7.24-1.21 11.09-1.19 7.25-.2 12.24-.94 18.06-5.56l2.45-1.84c10.78-8.45 20.6-18.18 30.37-27.79l1.5-1.46c2.5-2.5 4.17-4.74 5.68-7.91 1.48-1.42 1.48-1.42 3.19-2.75 5.98-4.94 10.65-10.92 15.23-17.14a308 308 0 0 1 13.92-17.2l2.89-3.36A60 60 0 0 0 286 537l-1.61-.88q-2.4-1.32-4.77-2.66-2.49-1.38-5.02-2.71c-5.41-2.95-9.7-6.49-14.04-10.81l-1.54-1.54A42 42 0 0 1 252 509l-1.5-2.51a62 62 0 0 1-6.85-16.88 70 70 0 0 0-2.15-6.98c-1.64-4.79-2.71-9.68-3.81-14.61a100 100 0 0 0-1.81-6.89 57 57 0 0 1-1.54-7.85c-.78-5.24-1.76-10.44-2.71-15.65l-.64-3.58c-1.08-5.92-2.31-11.57-4.34-17.24-2.04-5.73-2.81-11.81-3.65-17.81l-1-3q-.3-2.22-.5-4.44A55 55 0 0 0 220 383c-1.01-6.95-1.51-14-2-21l-.17-2.23c-.28-6.75 1.82-14.51 6.17-19.77 9.5-7.5 20.82-3.21 30.44 1.75" fill="#E4E5E5"/><path d="M900 614c1.98 3.96 2.3 5.75 2.45 10.04l.13 3.5.11 3.65.14 3.68c.23 6.6.23 6.6.17 9.13l-1 1q-.1 3.29-.06 6.56A497 497 0 0 0 902 658a79 79 0 0 0 12.19 3.88c9.34 2.43 18.88 4.98 25.81 12.12 1.38 2.94 1.38 2.94 1 6-3.02 6.04-8.34 8.6-14.43 10.88-14.47 4.55-29.52 6.58-44.57 8.12l-2.84.29c-12.99 1.13-26.06 1-39.1 1.02l-2.07.01c-24.48.05-48.86-.82-73.3-2.13l-2.53-.14q-13.8-.74-27.6-1.52c-66.79-3.74-133.74-5.85-200.56-1.53l-3.19.21c-31.72 2.07-63.53 4.36-95.12 8.06-4.15.49-8.2.85-12.38.83l-2.92-.01-2.95-.03-3.06-.01L407 704v-1c26.4-3 52.78-5.73 79.29-7.65q6.05-.45 12.08-.93l10.13-.79 4.64-.37A1181 1181 0 0 1 531 692l3.93-.25c26.39-1.66 52.72-2.15 79.16-2.13h9.64c38.14.01 76.08 1.45 114.13 3.98 13.37.88 26.76 1.65 40.14 2.4l3.21.18c15.78.87 31.55.98 47.34.95h10.36c40.13.06 40.13.06 58.03-2.82l3.27-.51c27.27-4.55 27.27-4.55 35.79-10.8 2-3 2-3 2.62-5.38-.74-3.11-1.22-3.34-3.83-5.02-5.62-3.35-11.73-5.03-17.98-6.85l-3.52-1.06A156 156 0 0 0 899 661z" fill="#E6E9E6"/><path d="M367 563a21 21 0 0 1-5.46 7.47l-2.1 1.96A2646 2646 0 0 0 348 583l-3.56 3.3q-4.71 4.36-9.44 8.7-10.58 9.73-21.06 19.56L306 622l-1.7 1.59a335 335 0 0 1-18.66 16.23 188 188 0 0 0-7.52 6.62c-3.86 3.52-7.86 6.8-12 10l-1.65 1.29c-4.21 3.21-7.45 5.45-12.8 5.68l-2.42.12-2.5.09-2.55.12-6.2.26c3.96-4.19 8.26-7.61 12.88-11.06 5.6-4.24 11.15-8.52 16.62-12.94a670 670 0 0 1 16.12-12.56 391 391 0 0 0 18.49-14.97c3.29-2.81 6.66-5.5 10.05-8.19q5.58-4.5 11.09-9.09a784 784 0 0 1 18.06-14.49c3.72-2.9 7.29-5.93 10.82-9.06q3.26-2.86 6.62-5.58l2.17-1.77C363 563 363 563 367 563" fill="#EDECEF"/><path d="m303.38 471.75 3.7-.06 3.56-.02 3.26-.03c3.6.42 6.02 1.48 9.1 3.36.88 2.19.88 2.19 1 4l2-3c2.63 3.06 3 3.73 3 8-14.57 6.68-26.74 10.22-42.63 5.01-3.9-1.67-7.55-3.81-10.37-7.01-.71-2.7-.71-2.7-1-5l5.25-1.94 2.95-1.09c6.74-2.34 13.07-2.19 20.18-2.22" fill="#151615"/><path d="M900 614c1.98 3.96 2.3 5.75 2.45 10.04l.13 3.5.11 3.65.14 3.68c.23 6.6.23 6.6.17 9.13l-1 1q-.1 3.29-.06 6.56l.02 3.63.04 2.81a79 79 0 0 0 12.19 3.88c9.34 2.43 18.88 4.98 25.81 12.12 1.38 2.94 1.38 2.94 1 6-3.02 6.04-8.34 8.6-14.43 10.88-14.47 4.55-29.52 6.58-44.57 8.12l-2.84.29c-12.99 1.13-26.06 1-39.1 1.02l-2.04.01c-25.74.06-51.39-.91-77.08-2.26l-2.66-.14a3508 3508 0 0 1-19.86-1.07l-6.39-.37-3.62-.21c-3.5-.28-6.94-.74-10.41-1.27v-1c16.47-.28 32.77.25 49.2 1.33a917 917 0 0 0 61.35 1.8h10.36c40.13.06 40.13.06 58.03-2.82l3.27-.51c27.27-4.55 27.27-4.55 35.79-10.8 2-3 2-3 2.62-5.38-.74-3.11-1.22-3.34-3.83-5.02-5.62-3.35-11.73-5.03-17.98-6.85l-3.52-1.06A156 156 0 0 0 899 661z" fill="#EAECEB"/><path d="M411 450c-1.16 3.49-1.89 3.85-4.94 5.69l-2.15 1.32C402 458 402 458 400 458v2l-5.62 2.88-3.17 1.61C388 466 388 466 384.66 467.06L382 468c-.88 2.12-.88 2.12-1 4l-2.5.25a24 24 0 0 0-7.56 2.87c-2.81 1.5-3.66 1.9-6.94 1.63l-2-.75c-.23-2.86-.28-4.53 1.21-7.03 13.03-14.44 28.87-19.45 47.79-18.97" fill="#161814"/><path d="M355 486c2.56 1.5 2.56 1.5 4 3-.63 5.52-.63 5.52-2.56 8-1.44 2-1.44 2-1.44 5.12V505c-3 2-3 2-5.5 1.94-3.31-1.25-3.77-2.92-5.5-5.94-2.62-1.75-2.62-1.75-5-3l-1-1c0-3.31 0-3.31 1-7 4.96-4.03 9.68-5.06 16-4" fill="#666664"/><path d="M889 342h2c1 6.05 1.36 12.07 1.62 18.19l.14 3.11c.23 6.07.19 11.95-.51 17.99-.4 4.33-.27 8.65-.19 13C892 397 892 397 891 400a165 165 0 0 0-.5 6.29l-.25 3.83-.12 2.02-.4 6.16c-.38 5.69-.74 11.37-.94 17.07l-.09 2.21q-.1 2.75-.16 5.49c-.66 3.57-2.09 5.31-4.54 7.93.34-9.72.83-19.41 1.7-29.1 2.37-26.62 3-53.18 3.3-79.9" fill="#DFE2E0"/><path d="M155 655h1l-.14 3.44c-.47 16.03-.47 16.03 4.14 21.56 7.49 7.84 17.92 10.03 28.44 10.44 11.8-.09 22.29-5.35 31.56-12.44l2 1-1.5 2.56c-2.77 6.34-2.66 15.97-.5 22.44-3-1-3-1-4.18-2.61-1.13-3.28-1.01-6.18-.94-9.64l.05-3.83.07-2.92-3 1.71-4 2.23-1.96 1.13c-4.78 2.62-8.61 3.54-14.04 3.93l-3.56.31c-11.22-.2-22.14-4.35-30.24-12.02-4.84-5.5-6.13-12.07-6.2-19.29a43 43 0 0 1 3-8" fill="#ECF0EE"/><path d="m1025 96 2.68.85a120 120 0 0 1 29.8 15.39 54 54 0 0 0 5.25 3.37c2.49 1.52 3.54 3.08 5.27 5.39l2.26 1.28c3.21 2.01 5.56 4.48 8.05 7.28l1.45 1.61c6.95 7.79 13.21 15.65 18.24 24.83l1.29 2.1c3.87 7.05 2.64 14.2 1.71 21.9h-1l-.04-2.68c-.34-8.56-1.73-14.88-5.96-22.32l-1.5-2.7c-4.2-7.07-9.43-13-15.12-18.87q-1.92-2.01-3.82-4.06A109 109 0 0 0 1012 97v-1c5.22-1.88 7.9-2.17 13 0" fill="#E3E3E4"/><path d="m948 163 1 2q-1.35 2.55-2.82 5.02c-4.75 7.96-8.95 16.31-11.28 25.28-1.95 5.84-5.04 11.26-7.87 16.71q-2.11 4.12-4.15 8.26C919.97 226 916.54 231.46 912 236l-1.38 2.5c-1.85 2.86-3.62 3.96-6.62 5.5 1.42-4.12 3.42-7.04 6.12-10.44 8.83-11.47 14.5-23.88 19.92-37.21 9.76-23.89 9.76-23.89 17.96-33.35" fill="#DDDDDF"/><path d="m288 474 .63 1.98c2.04 5.77 4.03 9.29 8.98 12.96L299 490v1c-8.79-.21-16.28-2.28-22.62-8.62C275 480 275 480 275 477q2.12-.76 4.25-1.5l2.39-.84C284 474 284 474 288 474" fill="#D5B76C"/><path d="M254.44 341.75c3.43 1.75 6.86 3.41 10.42 4.87l1.93.8 5.47 2.19C275 351 275 351 276 354a187 187 0 0 1-19.68-7.56c-17.47-7.65-17.47-7.65-26.32-6.44-3.66 2.14-5.4 4.14-7 8-.32 2.29-.32 2.29-.41 4.77l-.12 2.69-.1 2.79-.11 2.84q-.15 3.45-.26 6.91h-1q-.37-5.06-.68-10.13l-.23-2.88c-.32-5.47-.37-9.33 2.9-13.99 9.46-8.81 21.38-4.45 31.45.75" fill="#DDDEDF"/><path d="M373 460c3 1 3 1 4.56 3.88L379 467l2 3a428 428 0 0 1-6.69 3.56l-1.89 1.04c-3.02 1.56-4.96 2.44-8.38 2.11L362 476c-.27-3.01-.29-4.56 1.39-7.13l1.86-1.99 1.83-2.01A33 33 0 0 1 373 460" fill="#E7C670"/><path d="M753.64 224.87h10.6c5.7 0 11.14.18 16.76 1.13l3-.12c3.93.16 6.47 1.43 10 3.12v1l-7.03.1c-2.97-.1-2.97-.1-6.47-.6-5.94-.78-11.9-.64-17.87-.62h-3.74q-14.46.06-28.9 1.12c5.12-4.08 9.64-4 16-4 2.66-1.32 4.68-1.13 7.65-1.13" fill="#F1F1F3"/><path d="M220 350h1l.12 2.01c.84 13.47 2.05 26.71 4.56 39.98A78 78 0 0 1 227 409l-3-1-.18-1.86-.26-2.45-.24-2.43C223 399 223 399 222 396q-.3-2.22-.5-4.44A55 55 0 0 0 220 383c-3.93-27.1-3.93-27.1 0-33" fill="#D7D8D9"/><path d="M948 103c-1 3-1 3-3.05 4.25l-2.7 1.31c-15.79 8.28-26.91 20.5-37.1 34.83A225 225 0 0 1 901 149c.26-5.25 2.23-8.04 5.43-11.97C908 135 908 135 909.4 132.56c6.1-9.75 25.94-29.56 38.6-29.56" fill="#E1E3E2"/><path d="M367 563c-1.43 3.29-3.16 5.35-5.77 7.79l-2.25 2.1-2.36 2.17-2.32 2.18c-3.33 3.1-6.62 6.08-10.3 8.76l-.38-1.94L343 582l-2-1q6.48-5.53 13-11l2.73-2.29 2.33-1.9 2.04-1.67C363 563 363 563 367 563" fill="#E6E6E8"/><path d="m836 694 32 1-4 1v2h-63v-1h35z" fill="#C0C2BF"/><path d="M1101 169c2.96 2.65 2.96 2.65 3.31 5.81A33 33 0 0 1 1102 184l-1.25 3.5c-2.46 4.92-5.42 8.34-10.37 10.81l-2.38.69-1.88.62c-3.04.54-6.03.44-9.12.38l-1-3 2.12-.26c6.47-.96 12.07-2.09 16.88-6.74 4.7-6.49 5.84-13.12 6-21" fill="#DFDFE2"/><path d="m220 678 2 1-1.5 2.56c-2.77 6.34-2.66 15.97-.5 22.44-3-1-3-1-4.18-2.61-1.13-3.28-1.01-6.18-.94-9.64l.05-3.83.07-2.92-2.45 1.35-3.24 1.71-3.2 1.73c-3.33 1.3-4.76 1.3-8.11.21a1895 1895 0 0 1 12.12-6l2.21-1.08 2.12-1.04 1.92-.95C218 680 218 680 220 678" fill="#C0C3C1"/><path d="M323 472c1.76 1.61 1.76 1.61 3 3h-2v5h-1l-.19-2.38c-.81-2.62-.81-2.62-2.98-3.77-3.11-.93-5.63-1.09-8.87-1.08l-3.51.01-3.64.03h-3.58c-6.8.04-13.48.35-20.23 1.19l1-2c12.51-3.83 29.93-6.09 42 0" fill="#050504"/><path d="m494 579 2 1a61 61 0 0 1-13.98 9.82A20 20 0 0 0 477 594l1 2c-3.83 1.75-7.12 2.35-11.31 2.62l-3.24.23-2.45.15a66 66 0 0 1 10.85-7.38l3.33-1.85 3.44-1.89 9.82-5.43A90 90 0 0 0 494 579" fill="#030504"/><path d="M398 300c3.44 1.81 3.44 1.81 6 4v3l-3 1-3-2c-4.83-.63-9.45-1.06-13.56 1.75A43 43 0 0 0 381 314h-5c12.68-15.93 12.68-15.93 22-14" fill="#1C1C1F"/><path d="M900 614c1.98 3.96 2.3 5.75 2.45 10.04l.13 3.5.11 3.65.14 3.68c.23 6.6.23 6.6.17 9.13l-1 1q-.1 3.29-.06 6.56l.02 3.63.04 2.81 8 3v1l-11-1z" fill="#F1F1F1"/><path d="M222 352h4c1.13 2.94 1 3.99-.06 7.06L225 362l2 3-.94 2.19c-1.84 4.88-.5 9.87.94 14.81h-2l-1 3c-1.95-7.31-2.24-14.02-2.12-21.56l.02-3.35z" fill="#141514"/><path d="M227 405h1c7.68 28.67 7.68 28.67 7 37l-2 3-.32-1.78-1.49-8.16-.5-2.8a98 98 0 0 0-4.01-15.29c-1.66-4.83-1.57-7.08.32-11.97" fill="#D8DCD9"/><path d="M1050 173h2a93 93 0 0 1 3.88 5.19c5.64 8.01 10.84 15.29 21 17.41 2.38.24 4.72.39 7.12.4v1q-2.6.33-5.19.62l-2.92.36c-4.42.03-6.89-1.1-10.21-4l-2.24-2.36-2.26-2.33L1059 187l-2.11-2.07a47 47 0 0 1-4.64-5.49l-1.3-1.76C1050 176 1050 176 1050 173" fill="#DADBDC"/><path d="M899 592h2q.3 3.25.56 6.5l.32 3.66c.1 3.35-.19 6.37-.63 9.68-.4 3.46-.48 6.91-.57 10.38l-.06 2.25-.18 7.03-.13 4.8L900 648h-1z" fill="#E0E1E0"/><path d="m412 449-1 2-2.71-.11c-11.24-.25-19.15 1.67-28.97 7.02A26 26 0 0 1 372 460c9.34-7.89 27.53-17.24 40-11" fill="#040504"/><path d="M889 342h2c.84 5.31 1.28 10.57 1.56 15.94l.13 2.36.31 5.7h-2l-1 18h-1z" fill="#CACBCB"/><path d="M220 350h1c.62 10.01 1.18 19.97 1 30h-3l.06-3.94c.01-3.25-.16-6.39-.56-9.62-1.45-12.02-1.45-12.02 1.5-16.44" fill="#EEF0EF"/><path d="M992 142c22.29-.75 22.29-.75 31 6l1 3c-3.51-.91-6.44-1.69-9.62-3.47-4.36-1.98-8.54-2.57-13.26-3.22l-2.66-.39L992 143z" fill="#E9EBE8"/><path d="M890 361h1c2.2 8.01 2 15.3 1.25 23.5l-.26 2.93c-.45 4.33-.83 7.73-2.99 11.57-.18-12.69.38-25.33 1-38" fill="#F1F4F1"/><path d="M886 418h1c2.25 11.19 3.77 22.69-2 33h-1c.99-22.59.99-22.59 2-33" fill="#CFD0D2"/><path d="M992.48 91.73h2.6l2.67.02 2.63-.03c5.52.02 10.35.57 15.62 2.28l1 2c-7.25.12-14.35-.36-21.57-1l-3.34-.29-8.09-.7a15 15 0 0 1 8.48-2.28" fill="#EFEFF1"/><path d="m885 444 1 4h2l-.22 2.12c-.85 8.69-.85 8.69-.72 12.88.1 5.1-1.04 10.03-2.06 15h-1a2843 2843 0 0 1-.09-16.79c-.01-5.84.01-11.46 1.09-17.21" fill="#EFEFF1"/><path d="M243 590c.64 1.82.64 1.82 1 4a60 60 0 0 1-5.59 6.08l-1.75 1.73q-2.8 2.74-5.6 5.44l-3.77 3.7q-4.62 4.55-9.29 9.05l-2-2 1.7-1.48a382 382 0 0 0 17.65-16.65l1.74-1.73 1.56-1.54A24 24 0 0 0 242 591z" fill="#EBECEC"/><path d="M645 690c14.04-.12 27.99.01 42 1v1c-8.02 1.13-15.92 1.1-24 1v-1l-18-1z" fill="#DEE1DE"/><path d="M215 619h2a16 16 0 0 1-5.27 6.91l-1.94 1.56-2.04 1.59-1.99 1.61C196.5 638 196.5 638 192 638c1-3 1-3 2.68-4.07l2.2-1.05c6.75-3.55 12.73-8.49 18.12-13.88" fill="#DFE1E0"/><path d="M373 460c3 1 3 1 4.56 3.88L379 467l2 3-5 1 2-1c-2-3-2-3-5.12-3.69L370 466l-1 3-4-1c2.38-3.15 4.55-6 8-8" fill="#DBC075"/><path d="M253 342c4.9 1.55 9.6 3.42 14.31 5.44l2.21.91A86 86 0 0 1 275 351l1 3c-8.64-2.62-16.77-6.31-25-10z" fill="#DCDDDD"/><path d="m623 532 3 1a20 20 0 0 1-7.01 5.04l-2.3 1.07-2.38 1.08-2.41 1.11-5.9 2.7-2-2 5.38-3 3.02-1.69C615 536 615 536 617 536v-2l2.44-.44C622 533 622 533 623 532" fill="#1D1D1D"/><path d="M379 471c1.62 2 1.62 2 3 4l-2 3h-2v2h-4l-1-3c-2.06-1.19-2.06-1.19-4-2a472 472 0 0 1 6.05-3.12C377 471 377 471 379 471" fill="#1B1419"/><path d="M1050 109c7.06 1.45 12.09 5.96 17 11a79 79 0 0 0 5 3l-1 3-1.36-1.03c-16.38-12.34-16.38-12.34-19.64-13.97z" fill="#E2E3E2"/><path d="M367 563a21.3 21.3 0 0 1-8 10c-3.38-.12-3.38-.12-6-1 8.75-9 8.75-9 14-9" fill="#DCDFDB"/><path d="M411 323h3q1.3 3.55 2.56 7.12l.75 2.02c1.52 4.36 1.85 7.39.69 11.86-1.91-3.56-3.26-7.26-4.62-11.06l-1.36-3.73C411 326 411 326 411 323" fill="#1D1F20"/><path d="M812 232c-3.67 2.45-4.49 2.02-8.69 1.19-4.77-.9-9.49-1.63-14.31-2.19v-1c8.06-3.15 15.08-.92 23 2" fill="#E0E0E4"/><path d="m964 149 1 2c-2.56 2.71-4.9 4.94-8.06 6.94-3.43 2.41-4.83 4.49-6.94 8.06l-2-1c3.6-6.99 9.37-11.96 16-16" fill="#E5E6E4"/><path d="m865 272 4 2h-2l1.25 2.5L870 280l1.12 2.07 1.13 2.12 1.08 1.98C874 288 874 288 873 291c-8.95-11.6-8.95-11.6-8-19" fill="#E0E1E2"/><path d="M579 557a44 44 0 0 1-9.62 5.75l-2.92 1.36-2.46.89-2-1c1-3 1-3 3.21-4.13l2.73-.99 2.71-1.01L573 557c2.49-1.25 3.41-.78 6 0" fill="#1F2320"/><path d="M277 476h7c1.26 2.91 2 4.8 2 8l-8-2z" fill="#E6C35C"/><path d="m732 228 2 3-19 3 1-3c2.31-1.12 2.31-1.12 5-2l1.88-.62c3.11-.56 5.96-.61 9.12-.38" fill="#DADADC"/><path d="M884 494h1l.4 3.11.54 4.08.26 2.04c.48 3.62 1.03 7.2 1.8 10.77l-4 1z" fill="#E5E3E6"/><path d="m911 130 3 1-1.1 1.4A148 148 0 0 0 902 149c-.7-1.69-.7-1.69-1-4 1.33-2.4 1.33-2.4 3.25-4.94 2.45-3.27 4.7-6.52 6.75-10.06" fill="#DDDDDE"/><path d="M984 93a288 288 0 0 0 9.86.69L999 94v1l-1.72.08q-3.93.17-7.84.36l-2.72.12c-4.97.23-9.81.64-14.72 1.44v-3c7.64-2.17 7.64-2.17 12-1" fill="#E0E0E2"/><path d="M192 636v2l-3.11.18-4.08.26-2.04.12c-3.67.23-7.19.61-10.77 1.44.57-1.95.57-1.95 2-4 3.12-.64 3.12-.64 6.88-.81l3.74-.21c2.74.02 4.8.17 7.38 1.02" fill="#EDF0ED"/><path d="M241 470c1.86 3.42 3.03 6.92 4.19 10.62l1.1 3.48c.71 2.9.71 2.9-.29 4.9-3.89-3.24-5.09-6.04-6-11a62 62 0 0 1 1-8" fill="#D8DBDC"/><path d="m224 340 3 1-1.95 2.85c-2.7 4.72-2.72 9.26-2.8 14.59l-.09 2.79q-.1 3.38-.16 6.77h-1q-.38-5.06-.69-10.12l-.22-2.89c-.32-5.51-.26-9.21 2.91-13.99z" fill="#C3C4C4"/><path d="M903 145c1.62 1.69 1.62 1.69 3 4-.81 2.75-.81 2.75-2 5h-2v2l-5 2c1.41-4.83 3.43-8.72 6-13" fill="#19191C"/><path d="M325 476c2 1.75 2 1.75 4 4v4c-2.81 1.56-2.81 1.56-6 3l-3-1 1.38-1.62c1.84-2.7 2.7-5.27 3.62-8.38" fill="#C4B680"/><path d="m1028.38 98.13 2.61 1.88c-3.4 1.7-7.06-.06-10.62-.95l-2.42-.59q-2.98-.72-5.96-1.47v-1c6.97-2.5 10.23-1.75 16.38 2.13" fill="#DCDCDE"/><path d="M1091 196c-2.2 2.53-3.67 3.54-7 4q-3.5.06-7 0l-1-3q2.63-.55 5.25-1.06l2.95-.6a13.3 13.3 0 0 1 6.8.66" fill="#F0F0F2"/><path d="M155 655h1l-1 21c-3.07-4.61-3.09-9.54-3-15a18 18 0 0 1 3-6" fill="#EDF0EC"/><path d="M155 672c2 2 2 2 3.81 5.38 1.88 3.38 4.01 5.36 7.19 7.62l2 2c-3.31 0-5.4-.5-7.96-2.64-3.08-3.29-4.91-5.3-5.48-9.86z" fill="#D8DAD9"/><path d="M243 488c1.81.06 1.81.06 4 1 2.68 4.71 3.41 7.76 2 13-2-1-2-1-2.82-3.43l-.74-3.01c-1.36-5.41-1.36-5.41-2.44-7.56" fill="#E8EAE7"/><path d="M463 352v2l-15 7v-3c4.32-3.14 9.61-6 15-6" fill="#DCDDE0"/><path d="M224 395c2 1 2 1 2.62 2.77a37 37 0 0 1 .44 6.98l-.02 2.42L227 409l-3-1-.5-4.31-.28-2.43C223 399 223 399 223 396z" fill="#DDDFDE"/><path d="M227 382h1c.2 3.72.15 4.77-2 8l3-1 1 8-3-3-2 2-.12-5.31-.08-2.99c.2-2.7.2-2.7 2.2-5.7" fill="#1B1B1D"/><path d="M416 322a83 83 0 0 1 2 4l.91 1.91.9 2.09.9 2c.29 2 .29 2-1.14 4.25L418 338l-2-5.88-1.12-3.3C414 326 414 326 414 324h2z" fill="#E2E2E6"/><path d="m925 119 2 1c-2.98 5.01-6.44 8.39-11 12l-2-2z" fill="#1A1B1A"/><path d="M165 687c5.72.75 11.35 1.83 17 3l1 3c-6.61-.49-11.95-2.33-18-5z" fill="#E2E5E4"/><path d="M254 579h2c-1.58 3.71-3.91 6.3-6.62 9.25l-2.48 2.7L245 593l-1-4 2.19-1.62a38 38 0 0 0 5.5-5.63z" fill="#DEE0DF"/><path d="M926 117c-1.59 3.9-4.13 6.34-7.12 9.25l-2.76 2.7L914 131l-2-2 9-9 1.67-1.79C924 117 924 117 926 117" fill="#E9E9E9"/><path d="M294 619c0 3 0 3-2 5.38-3.38 2.96-6.9 5.72-11 7.62l-2-1 3.03-2.37 3.91-3.07 2-1.56 1.9-1.5 1.76-1.38C293 620 293 620 294 619" fill="#E4E4E6"/><path d="M362 329c-.57 3.63-1.92 5.26-4.56 7.75l-1.94 1.86L354 340l-2-3 3.88-4 2.17-2.25C360 329 360 329 362 329" fill="#E1E1E3"/><path d="M215 685a388 388 0 0 1-5.69 3.06l-3.2 1.73c-3.33 1.3-4.76 1.3-8.11.21l4-2 2.94-1.56c6.67-3.13 6.67-3.13 10.06-1.44" fill="#D9D9DA"/><path d="M352 572c2.62-.19 2.62-.19 5 0-1.49 3.8-3.76 5.61-7 8l-2-1a56 56 0 0 1 4-7" fill="#F0F2F2"/><path d="m424 355 3 1c.95 1.93.95 1.93 1.69 4.31l.76 2.37C430 365 430 365 430 369l-3-1c-.95-2.94-.95-2.94-1.69-6.56l-.76-3.63z" fill="#DFE1DE"/><path d="m307 347 2 1v2c-4.5 2.25-8.08 2.17-13 2 2.06-2.78 3.1-3.02 6.62-3.62L306 348z" fill="#EDEEEF"/><path d="M817.63 232.69q1.14.26 2.35.5c2.02.8 2.02.8 4.02 3.8-5.8.38-9.63-.73-15-3 3.2-1.94 4.99-2.16 8.63-1.3" fill="#E9E9EC"/><path d="M1101 169c3 3 3 3 3.31 5.81A34 34 0 0 1 1102 184h-2z" fill="#F1F1F3"/><path d="M1072 124c3.6 3.49 6.83 7.11 10 11-3 0-3 0-5.04-1.75l-2.15-2.25-2.17-2.25L1071 127z" fill="#D0D1D1"/><path d="M604 276v3l-11 5v-3c1.64-1.39 1.64-1.39 3.81-2.69l2.15-1.32C601 276 601 276 604 276" fill="#E4E3E5"/><path d="M286 473h6c1.03 2.79 1.05 3.87.06 6.75L291 482c-2-2-2-2-2.5-5.06L288 474z" fill="#2A2117"/><path d="M1098 160h2c2.21 4.35 2.08 8.08 1.62 12.81l-.17 2.1q-.21 2.54-.45 5.09h-1l-.18-2.85-.26-3.77-.24-3.73c-.29-3.27-.73-6.43-1.32-9.65" fill="#D3D5D4"/><path d="M217 688h1l.18 2.74.26 3.57.24 3.55C219 701 219 701 220 704c-3-1-3-1-4.19-2.69-1-2.86-.95-5.3-.81-8.31h1z" fill="#B9B9BB"/><path d="M288 474v6l-3 1-1-5h-5v-1c3.15-.7 5.73-1 9-1" fill="#DDBF6A"/><path d="m1068 193 2.38.94c4.52 1.32 8.93 1.71 13.62 2.06v1q-2.6.33-5.19.62l-2.92.36c-3.13.02-5.08-.64-7.89-1.98z" fill="#D8D7D9"/><path d="M223 371c2.45 3.67 4 6.55 4 11h-2l-1 3c-1.05-3.15-1.1-5.39-1.06-8.69l.02-3.01z" fill="#0E0F0F"/><path d="M276 351a57 57 0 0 1 10 4v1c-6.62.12-6.62.12-10-1l-1-3z" fill="#E7E8E7"/><path d="M784.13 225.75c3.78.33 6.44 1.63 9.88 3.25v1q-2.42.12-4.83.19l-2.7.1c-2.9-.34-3.7-1.04-5.48-3.29 1-1 1-1 3.13-1.25" fill="#EBEBED"/><path d="M509 694v1h-5v2l-13-1v-1c6.02-.61 11.95-1.13 18-1" fill="#E0E3E0"/><path d="M264 644c-1.5 3.81-3.76 5.57-7 8l-2 2v-2l-2-1q2.17-1.76 4.38-3.5l2.46-1.97C262 644 262 644 264 644" fill="#E2E1E1"/><path d="M829.75 235.38q1.2.15 2.42.34c.3.03.3.03 1.83.28-3.25 2.16-5.15 2.69-9 3-2.37-.94-2.37-.94-4-2 3.17-1.9 5.11-2.16 8.75-1.62" fill="#D7D7DA"/><path d="m948 163 1 2a111 111 0 0 1-6 10l-3-1z" fill="#D9DBDA"/><path d="m205 696 5 5-4 2-3-5z" fill="#D7D9D8"/><path d="M809 673v2c-1.97 1.73-1.97 1.73-4.5 3.62l-2.53 1.92L800 682l-3-2 2.81-1.81c3.19-2.19 3.19-2.19 4.88-3.94C806 673 806 673 809 673" fill="#AEAFAE"/><path d="M956.88 98.25 959 99c-3.37 2.96-6.7 3.92-11 5v-2c5.01-4.09 5.01-4.09 8.88-3.75" fill="#EBECED"/><path d="m449 699 1 2c-5.58 1.07-10.39.83-16 0v-1a99 99 0 0 1 15-1" fill="#DDE0DD"/><path d="M262 569h2c-1.39 4.43-3.61 6.87-7 10l-2-1q1.68-2.26 3.38-4.5l1.89-2.53z" fill="#EAEDEA"/><path d="M227 405h1q.55 2.12 1.06 4.25l.6 2.39c.35 2.46.11 4.02-.66 6.36-2.99-4.4-2.99-4.4-4-7 .75-3.44.75-3.44 2-6" fill="#CACBCC"/><path d="M470 349v3c-5.14 4-5.14 4-9 4v-2z" fill="#19191B"/><path d="m326 602 3 1-7 7-3-1z" fill="#1A191C"/><path d="m422 354 1 3h2l1 5-3-1-1 2c-.88-6.15-.88-6.15-1-8z" fill="#1E201D"/><path d="M801 230v2l-12-1v-1c4.78-1.69 7.45-2.48 12 0" fill="#D7D7D9"/><path d="M555 568c-2.57 2.11-4.63 3.66-8 4l-2-2c6.62-3.12 6.62-3.12 10-2" fill="#1C1E1B"/><path d="m423 361 3 1 1 7h-3z" fill="#0C0E0A"/><path d="M238 336c-1 2-1 2-3.5 2.85l-3.06.77-3.07.79-2.37.59c3.38-4.99 6.15-5.13 12-5" fill="#EDEFED"/><path d="m381 308 3 1c-1.19 2.5-1.19 2.5-3 5-2.69.31-2.69.31-5 0z" fill="#242326"/><path d="M409 629c3.62-.19 3.62-.19 7 0a19 19 0 0 1-7 5l-2-2z" fill="#1A1B1B"/><path d="m345 585 2 1-7 7-2-2z" fill="#1A1A1B"/><path d="m234 442 2 1c.41 2.07.41 2.07.62 4.56l.23 2.51.15 1.93-3-1z" fill="#DDDEDE"/><path d="M402 300c3.4 1.13 4.22 1.97 6 5l-1 3-7-6z" fill="#E1E1E3"/><path d="M898 654h1v7h2c-1.07 2.92-1.78 4.78-4 7z" fill="#A2A2A2"/><path d="M418 346h3v7l-5-3z" fill="#171719"/><path d="m865 213 1 4-5 4-2-2z" fill="#212123"/><path d="m216 685 2 1-1 11c-2.01-4.01-2.28-5.67-2-10z" fill="#DFDFE2"/><path d="m171 638 1 3-7 4v-3c3-2.19 3-2.19 6-4" fill="#DBDEDB"/><path d="M590 548h2c-.19 1.88-.19 1.88-1 4-2.56 1.25-2.56 1.25-5 2l-1-4 2-1 3 1z" fill="#171918"/><path d="M892 542h2l2 8-3 1z" fill="#EFEFF2"/><path d="m237 466 4 1v9c-2.19-3.28-3-6.21-4-10" fill="#EAEBEC"/><path d="M482 341c-1 3-1 3-2.75 4.19-2.55.92-4.56.96-7.25.81 2.7-2.7 6.08-5 10-5" fill="#EBECEE"/><path d="M881 306c2.25 2.05 3 3.01 4 6-.94 2.19-.94 2.19-2 4-1.6-3.51-2.22-6.14-2-10" fill="#EEEDF2"/><path d="m875 197 3 1-5 7-2-1a56 56 0 0 1 4-7" fill="#DEE2DF"/><path d="m954 157 2 1-1.31 1.19c-1.95 2.09-3.28 4.33-4.69 6.81l-2-1c1.74-3.06 3.38-5.63 6-8" fill="#EBEDEC"/><path d="M343 581h1c.25 2.31.25 2.31 0 5-2 1.81-2 1.81-4 3 .75-5.75.75-5.75 3-8" fill="#F5F5F7"/><path d="M350 579c-1.39 3.37-2.98 4.99-6 7 .31-2.38.31-2.38 1-5 3-2 3-2 5-2" fill="#D5D8D9"/><path d="m278 550 3 1-5 6-2-3z" fill="#DEDEE1"/><path d="M293 486q3.03 1.96 6 4v1l-10-1 4-1z" fill="#C6B47C"/><path d="M376 474v4a47 47 0 0 1-7-3c3.62-2.12 3.62-2.12 7-1" fill="#271F14"/><path d="M421 346c1.95 3.9 2.51 6.72 3 11l-4-2z" fill="#2F2F31"/><path d="M415 334c2.06 1.62 2.06 1.62 4 4-.25 3.25-.25 3.25-1 6-1.88-3.27-2.49-6.28-3-10" fill="#0F1012"/><path d="M924 212h2c-1.88 5.75-1.88 5.75-3 8h-2c.55-3.37 1.05-5.08 3-8" fill="#E9E9E9"/><path d="M932 191h1l1 7-5 3z" fill="#D2CFD3"/><path d="M940 175h2c-1.88 5.75-1.88 5.75-3 8h-2c.55-3.37 1.05-5.08 3-8" fill="#E6E7E9"/><path d="m1019 94 3 2v2l-10-1v-1c3.31-1.12 3.31-1.12 7-2" fill="#C9CACC"/><path d="m287 638 3 1-6 5-1-3c1.81-1.56 1.81-1.56 4-3" fill="#18161C"/><path d="m434 617-4 4-3-1v-2c3.62-2.12 3.62-2.12 7-1" fill="#1D1D1E"/><path d="m885 444 1 4h2c-.38 2.44-.38 2.44-1 5l-2 1z" fill="#F2F2F4"/><path d="m224 395 2 1-1 8c-1.74-2.6-2.61-3.99-3-7z" fill="#E4E3E5"/><path d="M219 374h3v6h-3z" fill="#EFEFF2"/><path d="M889 342h2l1 7-3 1z" fill="#F2F2F3"/><path d="m247 342 4 2-1 4-4-1z" fill="#131315"/><path d="m526 316 2 1v2l-7 3c.81-2.44.81-2.44 2-5z" fill="#E1E1E4"/><path d="M1081 135c3.83 1.45 5.12 3.43 7 7h-3c-4-4.34-4-4.34-4-7" fill="#DBDCDC"/><path d="m219 685 2 4-1 1q-.55 3.5-1 7h-1q-.05-2.71-.06-5.44l-.04-3.06c.1-2.5.1-2.5 1.1-3.5" fill="#070708"/><path d="m812 574 5 3-3 3-2-2z" fill="#D1D4D1"/><path d="m894 550 2 2c-.03 2.73-.56 5.3-1 8h-1l-.56-4.44-.32-2.49L893 551z" fill="#E0E0E2"/><path d="M227 382h1c.22 3.86-.4 6.49-2 10h-1c-.25-6.62-.25-6.62 2-10" fill="#111112"/><path d="M301 352c-2.93 1.95-4.56 2.65-8 3l-2-2c3.58-2.34 5.92-1.93 10-1" fill="#E4E4E5"/><path d="M312 345h3l-1 4-5 1c1.88-3.88 1.88-3.88 3-5" fill="#DEDDDF"/><path d="m874 202 3 2-6 5c0-3.52.82-4.37 3-7" fill="#1E211E"/><path d="M1060 187a34 34 0 0 1 8 5v2c-3.8-1.49-5.61-3.76-8-7" fill="#E4E2E6"/></svg>