<svg style="background:transparent" version="1.1" xmlns="http://www.w3.org/2000/svg" viewBox="0 0 1248 704"><path d="m901.63 146.88 2.6-.01h4.76C911 147 911 147 914 148l3.63.38c4.7.55 8.92 2.03 13.38 3.62l3 .94c4.1 1.46 8.03 3.24 12 5.06l3 1.38c3.44 1.87 6.63 4 9.88 6.2 2.1 1.41 2.1 1.41 5.04 3.04 2.38 1.58 2.83 2.9 4.08 5.38l1.83.38c2.87.82 3.8 2.2 5.66 4.5 1.8 2.22 3.35 4 5.65 5.7 1.86 1.42 1.86 1.42 2.86 4.41q1.07 1.04 2.17 2.07c3.86 3.68 6.2 8.37 8.83 12.94l1.49 2.4c2.4 4.16 4.15 8.6 6 13.03q1.34 3.2 2.75 6.32c2.33 5.3 3.27 10 3.58 15.8.17 2.44.17 2.44.7 4.34 1.85 8.37-.1 18.98-4.4 26.3l-2.12 2.8-1.63 2.2c-5.65 4.31-12.35 5.27-19.27 4.53-7.09-2.42-10.9-9.43-14.1-15.73a99 99 0 0 1-3-12q-.55-1.8-1.08-3.68a99 99 0 0 1-1.8-7.75c-1.41-6.51-4.66-11.93-8.12-17.56l-1.7-3.31c-6.4-10.99-18.37-18.09-30.3-21.7l-3.38-1.06c-7.36-1.9-19.62-4.44-26.62-.94l-1.76-.56c-3.23-.62-5.18.41-8.25 1.56q-.96.3-1.97.56c-11.05 3.22-25.17 10.61-30.96 20.88L848 223c-.5.18-.5.18-3 1q-.14 1.36-.32 2.76c-.67 3.25-.67 3.25-2.05 4.97-2.2 3.09-3.22 6.46-4.38 10.03a214 214 0 0 1-6.93 17.94l-.88 1.95a120 120 0 0 1-9 16.99A91 91 0 0 0 816 288c-1.43 1.56-1.43 1.56-3 3l-1.5 1.5-4.5 4.5-2.57 2.63c-2.42 2.37-2.42 2.37-4.42 3.37a77 77 0 0 0 4.42 7.94 183 183 0 0 1 8.7 15.06l1.56 3.06A32 32 0 0 1 817 337l1.57 3.5c1.38 3.38 1.51 4.97 1.43 8.5a314 314 0 0 0 2 7c1.82 6.6 2.13 12.84 2.02 19.68-.06 4.96.16 9.86.55 14.81.37 5.41.35 10.19-.57 15.5a460 460 0 0 0 .07 9l.02 2.57A29 29 0 0 1 823 424v3.44c0 3.12-.34 5.55-1 8.56a74 74 0 0 0-1 12.19c0 3.21-.37 5.7-1 8.8q-.02 2.04 0 4.07c0 3.15-.26 5-1 7.94q-.02 2.1 0 4.19v3.8l-1 1q-.14 3.93-.13 7.84v15.19c-.01 14.9-.01 14.9.91 21.98.23 2 .23 2 .19 4.7.03 2.3.03 2.3 1.03 3.3q.14 3.25.13 6.5v3.6c-.12 2.9-.12 2.9-1.12 3.9a162 162 0 0 0-.05 9.37q0 2.82.04 5.63c0 3.59-.59 6.29-1.5 9.7a71 71 0 0 0-1.25 10.1C816 582 816 582 815 585a105 105 0 0 0-.43 4.32 47 47 0 0 1-2.57 10.67v2.5c0 3.16-1 5.51-2 8.5q-.84 3.57-1.57 7.13a238 238 0 0 1-4.42 17.88c6.24 1.93 12.58 3.14 19 4.38 40.25 7.93 40.25 7.93 47 17.62.24 3.07.24 3.07-1 6-7.52 8.77-21.1 9.5-31.83 11.18l-3.18.52c-13.6 2-27.24 2.45-40.96 2.5l-4.22.02-13.64.03h-2.35c-30.96.04-61.77-1.09-92.69-2.7a1399 1399 0 0 0-72.7-1.73h-2.2c-24.64 0-49.2.5-73.8 2.03l-7.14.41c-52.01 2.86-103.97 8.74-155.67 15q-1.04.11-2.12.25a7816 7816 0 0 0-34.27 4.22c-15.2 1.88-30.32 3.54-45.62 4.14l-3.6.15c-10.38.28-20.37-.76-30.16-4.37-1.86-.65-1.86-.65-4.62-1.08-3.16-.8-4.78-2.4-7.24-4.58-.33-.26-.33-.26-1.99-1.66-3.41-2.93-6.4-5.65-9-9.34 2.76-3.08 5.06-4.67 9-6v-5l-1.74 1.06q-1.14.7-2.34 1.38-1.12.69-2.28 1.38c-9.26 4.16-25.7 4-35.33.88-5.85-2.87-9.77-8.39-13.31-13.7-2.6-7.74-1.43-15.75 2-23 3.88-7.62 9.7-12 17.67-14.67 4.5-1.32 8.42-1.4 13.06-1.24 4.88-.18 8.02-2.7 11.26-6.09l2.24-1.28a57 57 0 0 0 8.38-6.59q1.4-1.26 2.86-2.54c2.38-2.44 3.81-4.68 5.53-7.59 1.9-1.84 1.9-1.84 3.92-3.5A52 52 0 0 0 259 584l2.57-2.5c2.44-2.5 2.44-2.5 3.72-4.73 2.14-3.46 4.7-6.4 7.4-9.44a303 303 0 0 0 12.79-15.63L287 550h2l.25-1.63c1-3.16 2.68-5.38 4.63-8.04l2.12-2.96c2-2.37 2-2.37 5-3.37 1.08-1.82 1.08-1.82 2-4a76 76 0 0 1 10-16c-.41.05-.41.05-2.5.2-3.51-.2-6.07-1.08-9.3-2.4a45 45 0 0 0-7.27-1.8 45 45 0 0 1-11.93-4l-3-1.43a232 232 0 0 1-10-5.56l-2.5-1.37a67 67 0 0 1-7.74-6.14c-1.75-1.49-1.75-1.49-4.94-3.62-3.5-2.32-6.04-4.56-8.2-8.19a35 35 0 0 0-4.55-5.93c-9.32-10.77-9.39-25.25-9.3-38.83v-3.62l.02-7.44q.04-5.72.03-11.42 0-3.65.02-7.27v-3.44c.03-5.04.17-9.77 1.16-14.74q.13-2.06.13-4.15v-6.73c0-5.62 0-5.62-.62-8.08a26 26 0 0 1-.65-6.49l-.02-2.65v-2.86l-.01-2.96-.01-6.25q-.01-4.72-.05-9.44c-.09-30.37-.09-30.37 7.37-37.92 3.33-2.6 4.87-3.52 9.2-3.25 8.2 1.78 15.8 5.7 22.3 10.95 3.38 2.63 6.9 5.03 10.43 7.46q.99.71 2.04 1.42c3.16 2.19 6.35 4.26 9.72 6.15 3.18 1.8 3.18 1.8 5.99 4.06 3.23 1.77 4.22 1.97 7.76 1.9l2.68-.05q6.4-.24 12.8-.6c15.94-.91 15.94-.91 22.57 0 3.99.53 7.98.72 12 .81l3.78.12c7.75-.93 12.64-7.05 17.33-12.8 2.98-3.52 6.35-6.17 10.01-8.92 2.68-2.03 5.17-4.2 7.64-6.44 3.1-2.43 5-3.28 8.99-3.2 5.36 1.38 8.2 3.63 11.04 8.24 3.84 7.4 5.63 14.46 6.58 22.69q.48 1.5 1 3 .26 2.3.44 4.63c.3 3.44.8 6.7 1.63 10.06.93 3.83.94 7.37.94 11.3.99 2.2.99 2.2 2 4a61 61 0 0 0 21.12-10.6c2.47-1.83 5.13-3.01 7.88-4.4q2.22-1.31 4.43-2.68c4.3-2.62 8.68-4.99 13.13-7.31 5.05-2.64 9.86-5.44 14.5-8.77 2.22-1.42 4.5-2.25 6.94-3.24q1.2-.95 2.43-2c2.83-2.2 5.17-2.87 8.56-4q3.12-1.47 6.21-3.08l3.52-1.81c.3-.17.3-.17 1.82-.96l5.45-2.82a198 198 0 0 0 14.65-8.2 36 36 0 0 1 9.36-4.12l5-3a211 211 0 0 1 6.5-2.9q3.82-1.7 7.62-3.48a263 263 0 0 1 15.66-6.48 48 48 0 0 0 7.85-3.75c2.52-1.49 4.5-1.9 7.37-2.4q2.44-.9 4.87-1.93A97 97 0 0 1 615 269l3.24-.94c16.15-4.57 16.15-4.57 23.38-6l2.63-.53 5.5-1.06q1.32-.28 2.67-.54l2.45-.46c2.13-.48 2.13-.48 5.13-1.48q2.24-.3 4.5-.5l2.67-.24c.48-.03.48-.03 2.83-.25l2.74-.28a155 155 0 0 1 18.25-.73q3.06 0 6.13-.06c3.53.06 6.9.35 10.4.79 2.72.3 5.44.51 8.15.71 4.08.37 7.47 1.2 11.33 2.56q2.93.35 5.88.68c2.97.46 5.65 1.44 8.48 2.44 4.4 1.5 8.9 2.69 13.4 3.92 2.83.85 5.51 1.83 8.24 2.97l.74-1.81c1.47-2.56 2.87-3.44 5.25-5.2q2.75-2.74 5.41-5.56c1.6-1.44 1.6-1.44 3.6-1.44l.24-1.68c.75-2.3.75-2.3 2.5-4.44 3.63-4.63 6.1-9.97 8.25-15.44.93-2.28 2-4.3 3.25-6.44 2.1-3.69 3.9-7.44 5.63-11.3 4.33-9.5 9.49-19.56 16.13-27.7h2l.65-2.17c1.65-3.45 3.94-5.6 6.77-8.06l1.62-1.44q2.45-2.18 4.96-4.32 1.48-1.3 3.01-2.6c4.51-3.8 8.63-6.89 13.99-9.4l1.94-1.03c5.5-2.87 11.2-4.94 17.05-6.97l2.46-.88A61 61 0 0 1 882 149c2.37-.46 4.72-.93 7.04-1.53 4.2-.68 8.34-.62 12.59-.6" fill="#111412"/><path d="m901.63 146.88 2.6-.01h4.76C911 147 911 147 914 148l3.63.38c4.7.55 8.92 2.03 13.38 3.62l3 .94c4.1 1.46 8.03 3.24 12 5.06l3 1.38c3.44 1.87 6.63 4 9.88 6.2 2.1 1.41 2.1 1.41 5.04 3.04 2.38 1.58 2.83 2.9 4.08 5.38l1.83.38c2.87.82 3.8 2.2 5.66 4.5 1.8 2.22 3.35 4 5.65 5.7 1.86 1.42 1.86 1.42 2.86 4.41q1.07 1.04 2.17 2.07c3.86 3.68 6.2 8.37 8.83 12.94l1.49 2.4c2.4 4.16 4.15 8.6 6 13.03q1.34 3.2 2.75 6.32c2.33 5.3 3.27 10 3.58 15.8.17 2.44.17 2.44.7 4.34 1.85 8.37-.1 18.98-4.4 26.3l-2.12 2.8-1.63 2.2c-5.65 4.31-12.35 5.27-19.27 4.53-7.09-2.42-10.9-9.43-14.1-15.73a99 99 0 0 1-3-12q-.55-1.8-1.08-3.68a99 99 0 0 1-1.8-7.75c-1.41-6.51-4.66-11.93-8.12-17.56l-1.7-3.31c-6.4-10.99-18.37-18.09-30.3-21.7l-3.38-1.06c-7.36-1.9-19.62-4.44-26.62-.94l-1.76-.56c-3.23-.62-5.18.41-8.25 1.56q-.96.3-1.97.56c-11.05 3.22-25.17 10.61-30.96 20.88L848 223c-.5.18-.5.18-3 1q-.14 1.36-.32 2.76c-.67 3.25-.67 3.25-2.05 4.97-2.2 3.09-3.22 6.46-4.38 10.03a214 214 0 0 1-6.93 17.94l-.88 1.95a120 120 0 0 1-9 16.99A91 91 0 0 0 816 288c-1.43 1.56-1.43 1.56-3 3l-1.5 1.5-4.5 4.5-2.57 2.63c-2.42 2.37-2.42 2.37-4.42 3.37a77 77 0 0 0 4.42 7.94 183 183 0 0 1 8.7 15.06l1.56 3.06A32 32 0 0 1 817 337l1.57 3.5c1.38 3.38 1.51 4.97 1.43 8.5a314 314 0 0 0 2 7c1.82 6.6 2.13 12.84 2.02 19.68-.06 4.96.16 9.86.55 14.81.37 5.41.35 10.19-.57 15.5a460 460 0 0 0 .07 9l.02 2.57A29 29 0 0 1 823 424v3.44c0 3.12-.34 5.55-1 8.56a74 74 0 0 0-1 12.19c0 3.21-.37 5.7-1 8.8q-.02 2.04 0 4.07c0 3.15-.26 5-1 7.94q-.02 2.1 0 4.19v3.8l-1 1q-.14 3.93-.13 7.84v15.19c-.01 14.9-.01 14.9.91 21.98.23 2 .23 2 .19 4.7.03 2.3.03 2.3 1.03 3.3q.14 3.25.13 6.5v3.6c-.12 2.9-.12 2.9-1.12 3.9a162 162 0 0 0-.05 9.37q0 2.82.04 5.63c0 3.59-.59 6.29-1.5 9.7a71 71 0 0 0-1.25 10.1C816 582 816 582 815 585a105 105 0 0 0-.43 4.32 47 47 0 0 1-2.57 10.67v2.5c0 3.16-1 5.51-2 8.5q-.84 3.57-1.57 7.13a238 238 0 0 1-4.42 17.88c6.24 1.93 12.58 3.14 19 4.38 40.25 7.93 40.25 7.93 47 17.62.24 3.07.24 3.07-1 6-7.52 8.77-21.1 9.5-31.83 11.18l-3.18.52c-13.6 2-27.24 2.45-40.96 2.5l-4.22.02-13.64.03h-2.35c-30.96.04-61.77-1.09-92.69-2.7a1399 1399 0 0 0-72.7-1.73h-2.2c-24.64 0-49.2.5-73.8 2.03l-7.14.41c-52.01 2.86-103.97 8.74-155.67 15q-1.04.11-2.12.25a7816 7816 0 0 0-34.27 4.22c-15.2 1.88-30.32 3.54-45.62 4.14l-3.6.15c-10.38.28-20.37-.76-30.16-4.37-1.86-.65-1.86-.65-4.62-1.08-3.16-.8-4.78-2.4-7.24-4.58-.33-.26-.33-.26-1.99-1.66-3.41-2.93-6.4-5.65-9-9.34 2.76-3.08 5.06-4.67 9-6v-5l-1.74 1.06q-1.14.7-2.34 1.38-1.12.69-2.28 1.38c-9.26 4.16-25.7 4-35.33.88-5.85-2.87-9.77-8.39-13.31-13.7-2.6-7.74-1.43-15.75 2-23 3.88-7.62 9.7-12 17.67-14.67 4.5-1.32 8.42-1.4 13.06-1.24 4.88-.18 8.02-2.7 11.26-6.09l2.24-1.28a57 57 0 0 0 8.38-6.59q1.4-1.26 2.86-2.54c2.38-2.44 3.81-4.68 5.53-7.59 1.9-1.84 1.9-1.84 3.92-3.5A52 52 0 0 0 259 584l2.57-2.5c2.44-2.5 2.44-2.5 3.72-4.73 2.14-3.46 4.7-6.4 7.4-9.44a303 303 0 0 0 12.79-15.63L287 550h2l.25-1.63c1-3.16 2.68-5.38 4.63-8.04l2.12-2.96c2-2.37 2-2.37 5-3.37 1.08-1.82 1.08-1.82 2-4a76 76 0 0 1 10-16c-.41.05-.41.05-2.5.2-3.51-.2-6.07-1.08-9.3-2.4a45 45 0 0 0-7.27-1.8 45 45 0 0 1-11.93-4l-3-1.43a232 232 0 0 1-10-5.56l-2.5-1.37a67 67 0 0 1-7.74-6.14c-1.75-1.49-1.75-1.49-4.94-3.62-3.5-2.32-6.04-4.56-8.2-8.19a35 35 0 0 0-4.55-5.93c-9.32-10.77-9.39-25.25-9.3-38.83v-3.62l.02-7.44q.04-5.72.03-11.42 0-3.65.02-7.27v-3.44c.03-5.04.17-9.77 1.16-14.74q.13-2.06.13-4.15v-6.73c0-5.62 0-5.62-.62-8.08a26 26 0 0 1-.65-6.49l-.02-2.65v-2.86l-.01-2.96-.01-6.25q-.01-4.72-.05-9.44c-.09-30.37-.09-30.37 7.37-37.92 3.33-2.6 4.87-3.52 9.2-3.25 8.2 1.78 15.8 5.7 22.3 10.95 3.38 2.63 6.9 5.03 10.43 7.46q.99.71 2.04 1.42c3.16 2.19 6.35 4.26 9.72 6.15 3.18 1.8 3.18 1.8 5.99 4.06 3.23 1.77 4.22 1.97 7.76 1.9l2.68-.05q6.4-.24 12.8-.6c15.94-.91 15.94-.91 22.57 0 3.99.53 7.98.72 12 .81l3.78.12c7.75-.93 12.64-7.05 17.33-12.8 2.98-3.52 6.35-6.17 10.01-8.92 2.68-2.03 5.17-4.2 7.64-6.44 3.1-2.43 5-3.28 8.99-3.2 5.36 1.38 8.2 3.63 11.04 8.24 3.84 7.4 5.63 14.46 6.58 22.69q.48 1.5 1 3 .26 2.3.44 4.63c.3 3.44.8 6.7 1.63 10.06.93 3.83.94 7.37.94 11.3.99 2.2.99 2.2 2 4a61 61 0 0 0 21.12-10.6c2.47-1.83 5.13-3.01 7.88-4.4q2.22-1.31 4.43-2.68c4.3-2.62 8.68-4.99 13.13-7.31 5.05-2.64 9.86-5.44 14.5-8.77 2.22-1.42 4.5-2.25 6.94-3.24q1.2-.95 2.43-2c2.83-2.2 5.17-2.87 8.56-4q3.12-1.47 6.21-3.08l3.52-1.81c.3-.17.3-.17 1.82-.96l5.45-2.82a198 198 0 0 0 14.65-8.2 36 36 0 0 1 9.36-4.12l5-3a211 211 0 0 1 6.5-2.9q3.82-1.7 7.62-3.48a263 263 0 0 1 15.66-6.48 48 48 0 0 0 7.85-3.75c2.52-1.49 4.5-1.9 7.37-2.4q2.44-.9 4.87-1.93A97 97 0 0 1 615 269l3.24-.94c16.15-4.57 16.15-4.57 23.38-6l2.63-.53 5.5-1.06q1.32-.28 2.67-.54l2.45-.46c2.13-.48 2.13-.48 5.13-1.48q2.24-.3 4.5-.5l2.67-.24c.48-.03.48-.03 2.83-.25l2.74-.28a155 155 0 0 1 18.25-.73q3.06 0 6.13-.06c3.53.06 6.9.35 10.4.79 2.72.3 5.44.51 8.15.71 4.08.37 7.47 1.2 11.33 2.56q2.93.35 5.88.68c2.97.46 5.65 1.44 8.48 2.44 4.4 1.5 8.9 2.69 13.4 3.92 2.83.85 5.51 1.83 8.24 2.97l.74-1.81c1.47-2.56 2.87-3.44 5.25-5.2q2.75-2.74 5.41-5.56c1.6-1.44 1.6-1.44 3.6-1.44l.24-1.68c.75-2.3.75-2.3 2.5-4.44 3.63-4.63 6.1-9.97 8.25-15.44.93-2.28 2-4.3 3.25-6.44 2.1-3.69 3.9-7.44 5.63-11.3 4.33-9.5 9.49-19.56 16.13-27.7h2l.65-2.17c1.65-3.45 3.94-5.6 6.77-8.06l1.62-1.44q2.45-2.18 4.96-4.32 1.48-1.3 3.01-2.6c4.51-3.8 8.63-6.89 13.99-9.4l1.94-1.03c5.5-2.87 11.2-4.94 17.05-6.97l2.46-.88A61 61 0 0 1 882 149c2.37-.46 4.72-.93 7.04-1.53 4.2-.68 8.34-.62 12.59-.6M857 159l-2.04.84c-28.09 12.03-44.64 35.03-56.83 62.07-8.1 17.97-17.14 37.77-34.13 49.09-4 .6-6.86-.25-10.5-1.69-29.92-11.53-66.03-13.7-97.3-7.73q-3.22.6-6.47 1.15c-53.65 9.25-105.13 36.63-152.34 62.93q-3.38 1.88-6.8 3.74a844 844 0 0 0-27.23 15.67C435.02 361.94 435.02 361.94 423 367l.1-2.48c.42-18.52-.12-48.64-13.42-63.02-3.78-2.12-5.37-2.34-9.68-1.5-8.25 4.37-14.68 11.44-21.08 18.1A253 253 0 0 1 373 324l-1.86 1.88c-6.67 6.05-12.62 6.09-21.35 5.87l-4.1-.04a614 614 0 0 1-8.57-.17q-5.44-.14-10.87-.13-4.25-.03-8.48-.13l-5.92-.04c-10.1-.35-15.85-3.44-23.85-9.25l-5.23-3.59-4.84-3.46C253.21 297.4 253.21 297.4 243 299c-3.74 1.91-5.22 4-6.62 7.82-1.92 6.13-1.8 12.17-1.76 18.54l-.02 3.99v41.04q.04 10.93 0 21.86v40.64q.02 2.82 0 5.65c.14 19.8 5.89 33.13 19.86 47A80 80 0 0 0 267 495c.54.36.54.36 3.27 2.1 8.23 5.05 16.47 8.23 25.74 10.9l3.02.94a81 81 0 0 0 17.98 3.06c-7.14 12.86-16.46 24.38-25.43 35.96q-1.5 1.97-3.03 3.92a520 520 0 0 1-30.88 36.24 777 777 0 0 0-5.42 5.91c-24.96 27.56-24.96 27.56-35.28 28.15l-3.6.15c-8.69.56-14.87 2.82-21.37 8.67-4.47 6.4-8.09 12.85-7.42 20.8 1.53 7.95 5.9 12.76 12.42 17.2 12.24 4.9 23.97 3.86 36-1q5.62-2.75 11-6l-.98 2.04c-1.24 3.6-1.36 6.62-1.4 10.4 0 .65 0 .65-.09 3.88.65 5.2 2.63 8.24 6.73 11.49l2.42 1.38 2.4 1.43c7.03 3.35 13.38 4.92 21.16 4.82l2.52-.01a53 53 0 0 0 20.25-4.42l3.06-1.3c10.05-4.69 19.29-10.8 28.63-16.73a1015 1015 0 0 1 18.05-11.1 784 784 0 0 0 23.97-15.1 953 953 0 0 1 17.1-10.95c25.24-15.89 50.14-32.87 73.19-51.83l2.88-2.33c7.86-6.35 7.86-6.35 9.86-8.75 3.4-2.88 7.18-3.52 11.44-4.6 20.92-5.64 40.71-13.68 60.38-22.72q4.97-2.29 9.98-4.55c19.24-8.78 38.1-18.28 56.99-27.8A1159 1159 0 0 1 648 497.99l.4 2.28c4.7 21.7 22.95 42.14 37.97 57.41l2.06 2.14c8.8 8.76 19 15.2 29.56 21.61 24.96 15.5 24.96 15.5 29 28.57.7 4.68.99 9.27 1 14l-3.43-.25a22 22 0 0 0-15.63 6.15c-5.7 6.36-7.44 10.6-7.25 19.2.43 4.07 1.43 5.96 4.31 8.9 13.83 10.63 27.07 11.1 44 10a38 38 0 0 0 12-4l2.27-1.07c9.82-5.25 13.06-15.3 16.15-25.37A421 421 0 0 0 812.02 587l.38-2.41 1.24-7.9c.05-.4.05-.4.37-2.43 1.68-11.33 2.1-22.42 1.96-33.87q-.1-6.75-.12-13.5l-.02-2.87c-.23-28.57-.4-56.94 2.68-85.4l.36-3.27.35-3.25a367 367 0 0 0 2.22-40.98v-2.48c-.07-27.58-4.51-54.14-20.14-77.37-2.27-3.4-3.87-6.16-4.28-10.27q.87-.4 1.76-.84c20.63-10.84 30.02-39.76 37.52-60.07 6.87-18.44 17.85-32.22 35.72-41.1 18.32-7.17 36.92-6.92 55.24.38 10.59 4.66 19.15 9.7 25.82 19.31q.63.94 1.3 1.88c6.42 9.38 9.6 18.4 12.14 29.4 4.99 21.02 4.99 21.02 14.5 28.03 3.7 1.87 7.93 1.45 12 1 6.49-3.18 10.64-8.44 13.38-15.09 5.38-16.72-3.16-38.66-10.5-53.25A127 127 0 0 0 981.02 188l-1.8-2.31c-9.98-12.26-23.97-20.37-38.2-26.7q-.94-.42-1.87-.86C912.74 145.95 883.4 148 857 159" fill="#BBBDBB"/><path d="m648 498 1.25 3.01c8.16 19.32 18.76 36.46 33.36 51.55l4.14 4.35c9.29 9.61 19.85 16.6 31.25 23.53 23.2 14.35 23.2 14.35 28 24.56l1.11 2.28c1.13 3.45 1.08 6.41 1.01 10.03l-.05 3.8L748 624l-2.2.33c-7.84 1.29-13.17 2.84-18.8 8.67h-2v-2l-2.66.04c-8.12.05-16.19-.11-24.3-.48C541.68 623.6 541.68 623.6 491 634q-4.31.22-8.63.36c-12.84.54-25.51 2.24-38.25 3.89l-7.4.94a4258 4258 0 0 0-36.44 4.78q-6.17.83-12.35 1.7l-4.29.58-3.7.52C377 647 377 647 374 646a228 228 0 0 1 18.38-12.06c9.38-5.66 18.31-11.88 27.23-18.25l6.69-4.69c38.16-26.52 38.16-26.52 48.1-37.55 1.86-1.69 3.18-2.13 5.61-2.74l2.45-.65 2.66-.68c20.92-5.73 40.76-13.74 60.44-22.8q4.98-2.3 9.99-4.54c19.29-8.82 38.22-18.35 57.16-27.89C644.79 498 644.79 498 648 498" fill="#EDEEEC"/><path d="m901.63 146.88 2.6-.01h4.76C911 147 911 147 914 148l3.63.38c4.7.55 8.92 2.03 13.38 3.62l3 .94c4.1 1.46 8.03 3.24 12 5.06l3 1.38c3.44 1.87 6.63 4 9.88 6.2 2.1 1.41 2.1 1.41 5.04 3.04 2.38 1.58 2.83 2.9 4.08 5.38l1.83.38c2.87.82 3.8 2.2 5.66 4.5 1.8 2.22 3.35 4 5.65 5.7 1.86 1.42 1.86 1.42 2.86 4.41q1.07 1.04 2.17 2.07c3.86 3.68 6.2 8.37 8.83 12.94l1.49 2.4c2.4 4.16 4.15 8.6 6 13.03q1.34 3.2 2.75 6.32c2.33 5.3 3.27 10 3.58 15.8.17 2.44.17 2.44.7 4.34 1.85 8.37-.1 18.98-4.4 26.3l-2.12 2.8-1.63 2.2c-5.65 4.31-12.35 5.27-19.27 4.53-7.09-2.42-10.9-9.43-14.1-15.73a99 99 0 0 1-3-12q-.55-1.8-1.08-3.68a99 99 0 0 1-1.8-7.75c-1.41-6.51-4.66-11.93-8.12-17.56l-1.7-3.31c-6.4-10.99-18.37-18.09-30.3-21.7l-3.38-1.06c-7.36-1.9-19.62-4.44-26.62-.94l-1.76-.56c-3.23-.62-5.18.41-8.25 1.56q-.96.3-1.97.56c-11.05 3.22-25.17 10.61-30.96 20.88L848 223c-.5.18-.5.18-3 1q-.14 1.36-.32 2.76c-.67 3.25-.67 3.25-2.05 4.97-2.2 3.09-3.22 6.46-4.38 10.03a214 214 0 0 1-6.93 17.94l-.88 1.95a120 120 0 0 1-9 16.99A91 91 0 0 0 816 288c-1.43 1.56-1.43 1.56-3 3l-1.5 1.5-4.5 4.5-2.57 2.63c-2.42 2.37-2.42 2.37-4.42 3.37a77 77 0 0 0 4.42 7.94 183 183 0 0 1 8.7 15.06l1.56 3.06A32 32 0 0 1 817 337l1.57 3.5c1.38 3.38 1.51 4.97 1.43 8.5a314 314 0 0 0 2 7c1.82 6.6 2.13 12.84 2.02 19.68-.06 4.96.16 9.86.55 14.81.37 5.41.35 10.19-.57 15.5a460 460 0 0 0 .07 9l.02 2.57A29 29 0 0 1 823 424v3.44c0 3.12-.34 5.55-1 8.56a74 74 0 0 0-1 12.19c0 3.21-.37 5.7-1 8.8q-.02 2.04 0 4.07c0 3.15-.26 5-1 7.94q-.02 2.1 0 4.19v3.8l-1 1q-.14 3.93-.13 7.84v15.19c-.01 14.9-.01 14.9.91 21.98.23 2 .23 2 .19 4.7.03 2.3.03 2.3 1.03 3.3q.14 3.25.13 6.5v3.6c-.12 2.9-.12 2.9-1.12 3.9a162 162 0 0 0-.05 9.37q0 2.82.04 5.63c0 3.59-.59 6.29-1.5 9.7a71 71 0 0 0-1.25 10.1C816 582 816 582 815 585a105 105 0 0 0-.43 4.32 47 47 0 0 1-2.57 10.67v2.5c0 3.16-1 5.51-2 8.5q-.84 3.57-1.57 7.13a238 238 0 0 1-4.42 17.88c6.24 1.93 12.58 3.14 19 4.38 40.25 7.93 40.25 7.93 47 17.62.24 3.07.24 3.07-1 6-7.52 8.77-21.1 9.5-31.83 11.18l-3.18.52c-13.6 2-27.24 2.45-40.96 2.5l-4.22.02-13.64.03h-2.35c-30.96.04-61.77-1.09-92.69-2.7a1399 1399 0 0 0-72.7-1.73h-2.2c-24.64 0-49.2.5-73.8 2.03l-7.14.41c-52.01 2.86-103.97 8.74-155.67 15q-1.04.11-2.12.25a7816 7816 0 0 0-34.27 4.22c-15.2 1.88-30.32 3.54-45.62 4.14l-3.6.15c-10.38.28-20.37-.76-30.16-4.37-1.86-.65-1.86-.65-4.62-1.08-3.16-.8-4.78-2.4-7.24-4.58-.33-.26-.33-.26-1.99-1.66-3.41-2.93-6.4-5.65-9-9.34 2.76-3.08 5.06-4.67 9-6v-5l-1.74 1.06q-1.14.7-2.34 1.38-1.12.69-2.28 1.38c-9.26 4.16-25.7 4-35.33.88-5.85-2.87-9.77-8.39-13.31-13.7-2.6-7.74-1.43-15.75 2-23 3.88-7.62 9.7-12 17.67-14.67 4.5-1.32 8.42-1.4 13.06-1.24 4.88-.18 8.02-2.7 11.26-6.09l2.24-1.28a57 57 0 0 0 8.38-6.59q1.4-1.26 2.86-2.54c2.38-2.44 3.81-4.68 5.53-7.59 1.9-1.84 1.9-1.84 3.92-3.5A52 52 0 0 0 259 584l2.57-2.5c2.44-2.5 2.44-2.5 3.72-4.73 2.14-3.46 4.7-6.4 7.4-9.44a303 303 0 0 0 12.79-15.63L287 550h2l.25-1.63c1-3.16 2.68-5.38 4.63-8.04l2.12-2.96c2-2.37 2-2.37 5-3.37 1.08-1.82 1.08-1.82 2-4a76 76 0 0 1 10-16c-.41.05-.41.05-2.5.2-3.51-.2-6.07-1.08-9.3-2.4a45 45 0 0 0-7.27-1.8 45 45 0 0 1-11.93-4l-3-1.43a232 232 0 0 1-10-5.56l-2.5-1.37a67 67 0 0 1-7.74-6.14c-1.75-1.49-1.75-1.49-4.94-3.62-3.5-2.32-6.04-4.56-8.2-8.19a35 35 0 0 0-4.55-5.93c-9.32-10.77-9.39-25.25-9.3-38.83v-3.62l.02-7.44q.04-5.72.03-11.42 0-3.65.02-7.27v-3.44c.03-5.04.17-9.77 1.16-14.74q.13-2.06.13-4.15v-6.73c0-5.62 0-5.62-.62-8.08a26 26 0 0 1-.65-6.49l-.02-2.65v-2.86l-.01-2.96-.01-6.25q-.01-4.72-.05-9.44c-.09-30.37-.09-30.37 7.37-37.92 3.33-2.6 4.87-3.52 9.2-3.25 8.2 1.78 15.8 5.7 22.3 10.95 3.38 2.63 6.9 5.03 10.43 7.46q.99.71 2.04 1.42c3.16 2.19 6.35 4.26 9.72 6.15 3.18 1.8 3.18 1.8 5.99 4.06 3.23 1.77 4.22 1.97 7.76 1.9l2.68-.05q6.4-.24 12.8-.6c15.94-.91 15.94-.91 22.57 0 3.99.53 7.98.72 12 .81l3.78.12c7.75-.93 12.64-7.05 17.33-12.8 2.98-3.52 6.35-6.17 10.01-8.92 2.68-2.03 5.17-4.2 7.64-6.44 3.1-2.43 5-3.28 8.99-3.2 5.36 1.38 8.2 3.63 11.04 8.24 3.84 7.4 5.63 14.46 6.58 22.69q.48 1.5 1 3 .26 2.3.44 4.63c.3 3.44.8 6.7 1.63 10.06.93 3.83.94 7.37.94 11.3.99 2.2.99 2.2 2 4a61 61 0 0 0 21.12-10.6c2.47-1.83 5.13-3.01 7.88-4.4q2.22-1.31 4.43-2.68c4.3-2.62 8.68-4.99 13.13-7.31 5.05-2.64 9.86-5.44 14.5-8.77 2.22-1.42 4.5-2.25 6.94-3.24q1.2-.95 2.43-2c2.83-2.2 5.17-2.87 8.56-4q3.12-1.47 6.21-3.08l3.52-1.81c.3-.17.3-.17 1.82-.96l5.45-2.82a198 198 0 0 0 14.65-8.2 36 36 0 0 1 9.36-4.12l5-3a211 211 0 0 1 6.5-2.9q3.82-1.7 7.62-3.48a263 263 0 0 1 15.66-6.48 48 48 0 0 0 7.85-3.75c2.52-1.49 4.5-1.9 7.37-2.4q2.44-.9 4.87-1.93A97 97 0 0 1 615 269l3.24-.94c16.15-4.57 16.15-4.57 23.38-6l2.63-.53 5.5-1.06q1.32-.28 2.67-.54l2.45-.46c2.13-.48 2.13-.48 5.13-1.48q2.24-.3 4.5-.5l2.67-.24c.48-.03.48-.03 2.83-.25l2.74-.28a155 155 0 0 1 18.25-.73q3.06 0 6.13-.06c3.53.06 6.9.35 10.4.79 2.72.3 5.44.51 8.15.71 4.08.37 7.47 1.2 11.33 2.56q2.93.35 5.88.68c2.97.46 5.65 1.44 8.48 2.44 4.4 1.5 8.9 2.69 13.4 3.92 2.83.85 5.51 1.83 8.24 2.97l.74-1.81c1.47-2.56 2.87-3.44 5.25-5.2q2.75-2.74 5.41-5.56c1.6-1.44 1.6-1.44 3.6-1.44l.24-1.68c.75-2.3.75-2.3 2.5-4.44 3.63-4.63 6.1-9.97 8.25-15.44.93-2.28 2-4.3 3.25-6.44 2.1-3.69 3.9-7.44 5.63-11.3 4.33-9.5 9.49-19.56 16.13-27.7h2l.65-2.17c1.65-3.45 3.94-5.6 6.77-8.06l1.62-1.44q2.45-2.18 4.96-4.32 1.48-1.3 3.01-2.6c4.51-3.8 8.63-6.89 13.99-9.4l1.94-1.03c5.5-2.87 11.2-4.94 17.05-6.97l2.46-.88A61 61 0 0 1 882 149c2.37-.46 4.72-.93 7.04-1.53 4.2-.68 8.34-.62 12.59-.6M857 159l-2.04.84c-28.09 12.03-44.64 35.03-56.83 62.07-8.1 17.97-17.14 37.77-34.13 49.09-4 .6-6.86-.25-10.5-1.69-29.92-11.53-66.03-13.7-97.3-7.73q-3.22.6-6.47 1.15c-53.65 9.25-105.13 36.63-152.34 62.93q-3.38 1.88-6.8 3.74a844 844 0 0 0-27.23 15.67C435.02 361.94 435.02 361.94 423 367l.1-2.48c.42-18.52-.12-48.64-13.42-63.02-3.78-2.12-5.37-2.34-9.68-1.5-8.25 4.37-14.68 11.44-21.08 18.1A253 253 0 0 1 373 324l-1.86 1.88c-6.67 6.05-12.62 6.09-21.35 5.87l-4.1-.04a614 614 0 0 1-8.57-.17q-5.44-.14-10.87-.13-4.25-.03-8.48-.13l-5.92-.04c-10.1-.35-15.85-3.44-23.85-9.25l-5.23-3.59-4.84-3.46C253.21 297.4 253.21 297.4 243 299c-3.74 1.91-5.22 4-6.62 7.82-1.92 6.13-1.8 12.17-1.76 18.54l-.02 3.99v41.04q.04 10.93 0 21.86v40.64q.02 2.82 0 5.65c.14 19.8 5.89 33.13 19.86 47A80 80 0 0 0 267 495c.54.36.54.36 3.27 2.1 8.23 5.05 16.47 8.23 25.74 10.9l3.02.94a81 81 0 0 0 17.98 3.06c-7.14 12.86-16.46 24.38-25.43 35.96q-1.5 1.97-3.03 3.92a520 520 0 0 1-30.88 36.24 777 777 0 0 0-5.42 5.91c-24.96 27.56-24.96 27.56-35.28 28.15l-3.6.15c-8.69.56-14.87 2.82-21.37 8.67-4.47 6.4-8.09 12.85-7.42 20.8 1.53 7.95 5.9 12.76 12.42 17.2 12.24 4.9 23.97 3.86 36-1q5.62-2.75 11-6l-.98 2.04c-1.24 3.6-1.36 6.62-1.4 10.4 0 .65 0 .65-.09 3.88.65 5.2 2.63 8.24 6.73 11.49l2.42 1.38 2.4 1.43c7.4 3.52 14.3 5 22.49 5.32l3.15.14c20.13.43 40.91-2.14 60.73-5.64 3.8-.64 7.64-1.07 11.48-1.5 7.52-.81 7.52-.81 10.36-1.41 3.28-.62 6.5-.9 9.82-1.16l6.48-.54a551 551 0 0 0 31.92-3.33 549 549 0 0 1 30.59-3.17c9.32-.8 18.61-1.7 27.9-2.89a576 576 0 0 1 53.16-4.02q9.84-.37 19.64-1.15c18.91-1.47 37.77-1.53 56.73-1.46q5.04.03 10.09.02a2063 2063 0 0 1 55.1.68c7.31.2 14.59.45 21.87 1.26 4.97.5 9.95.6 14.94.77q1.82.08 3.66.13l13.92.47c21.02.69 42.03 1.07 63.07 1.05h3.57c36.1 0 36.1 0 51.5-2.5l2.49-.38c22.38-3.7 22.38-3.7 30.26-10.3.88-2.5.88-2.5 0-5-4.63-4.59-9.22-6.55-15.37-8.5l-2.75-.9c-15.88-4.97-32.34-7.97-48.87-9.6a490 490 0 0 1 5.8-27.35 347 347 0 0 0 5.94-29.77l.33-2a227 227 0 0 0 2.88-39.49q-.1-6.75-.12-13.5l-.02-2.87c-.23-28.57-.4-56.94 2.68-85.4l.36-3.27.35-3.25a367 367 0 0 0 2.22-40.98v-2.48c-.07-27.58-4.51-54.14-20.14-77.37-2.27-3.4-3.87-6.16-4.28-10.27q.87-.4 1.76-.84c20.63-10.84 30.02-39.76 37.52-60.07 6.87-18.44 17.85-32.22 35.72-41.1 18.32-7.17 36.92-6.92 55.24.38 10.59 4.66 19.15 9.7 25.82 19.31q.63.94 1.3 1.88c6.42 9.38 9.6 18.4 12.14 29.4 4.99 21.02 4.99 21.02 14.5 28.03 3.7 1.87 7.93 1.45 12 1 6.49-3.18 10.64-8.44 13.38-15.09 5.38-16.72-3.16-38.66-10.5-53.25A127 127 0 0 0 981.02 188l-1.8-2.31c-9.98-12.26-23.97-20.37-38.2-26.7q-.94-.42-1.87-.86C912.74 145.95 883.4 148 857 159" fill="#E6E7E7"/><path d="M675 400h1l.08 3.04.29 11.31.13 4.87c.62 24.86.62 24.86 3.69 34.3a143 143 0 0 1 2.2 7.59c2.76 10.16 5.79 19.51 10.61 28.89l1.46 3.07c5.71 11.84 13.15 22.34 20.74 33.03l1.79 2.52 1.61 2.26A48 48 0 0 1 722 537h2a24 24 0 0 1 2.62 3.38l1.36 1.89C729 544 729 544 729 546h2l2 5h2c3.23 3.47 6.09 7.26 9 11l2.16 2.76c9.59 12.67 15.51 25.15 13.6 41.25q-.45 3.2-1.01 6.37l-.33 2.01c-.92 4.78-2.56 7.79-5.42 11.61l-5-1-.01-2.86c-.31-10.27-1.85-18.56-9.1-26.43-7.51-6.58-16.41-11.46-24.91-16.64A154 154 0 0 1 688 559l-1.52-1.43c-15.13-14.21-26.64-31.05-35.54-49.76l-.91-1.89c-1.51-3.3-2.03-5.2-2.03-8.92l6.06-2.81 3.41-1.58q5.24-2.37 10.53-4.61l-.05-2.8c-.9-61.36-.9-61.36 7.05-85.2" fill="#010101"/><path d="M251 299a85 85 0 0 1 10 5v3h-2a96 96 0 0 0 10 9c4.59 3.73 8.94 7.63 13.19 11.75l1.75 1.64c2.49 2.47 3.98 3.95 4.42 7.5L288 339l-1.58.66C274.04 345 261.15 351.08 254 363h-2l-.32 1.67c-.82 2.81-2.07 5.06-3.56 7.58l-1.55 2.7L245 377h-3a241 241 0 0 1-2.62-32.44l-.12-4.5q-.27-10.03-.26-20.06h-2l-1 46h-1q-.12-11.29-.16-22.58l-.07-7.67q-.05-5.53-.06-11.06l-.05-3.44c0-7.63.4-14.81 5.53-20.81 3.74-1.92 6.75-2.28 10.81-1.44" fill="#252724"/><path d="M409 304v2h2l2 3h2l1.88 7.38.52 2.05q.55 2.16 1.06 4.32.52 2.17 1.13 4.33c2.08 8.23 1.48 16.6 1.19 25.01l-.24 8.01-.15 5.13-.07 2.4A79 79 0 0 1 419 380l-3-1v-5h-2c-3-4.38-3-4.38-3-7l-3-1c-1.43-1.52-1.43-1.52-2.88-3.38-2.49-3-4.65-4.76-8.12-6.62q-2.1-1.42-4.19-2.88c-7.45-4.99-15.6-8.57-23.81-12.12.63-3.71 2.29-6.19 4.44-9.25l1.87-2.7L377 327h2l.67-1.66c1.75-3.08 4.12-5.34 6.64-7.78l1.44-1.41L392 312l2.67-2.73c4.39-4.27 8.25-5.7 14.33-5.27" fill="#212320"/><path d="M373.38 418.06c5.72 3.23 10.16 7.8 12.62 13.94.96 8.86-.19 14.74-5.06 22.12-5.15 5.7-11.75 8.18-19.31 8.56-7.92-.34-15.02-3.03-20.64-8.72a50 50 0 0 1-4-5.96l-1.1-1.99c-1.62-3.69-1.57-7.08-.9-11 3.57-8.74 9.33-13.3 17.26-17.89 7.26-2.18 14.15-2.24 21.13.94" fill="#F6DA62"/><path d="M290.93 416.14A35 35 0 0 1 297 421l1.54 1.45c4.32 4.6 6.53 10.31 6.9 16.55a20 20 0 0 1-4.44 12c-6.37 5.4-11.98 7.45-20.27 7.34-6.33-.79-11.8-3.94-16.1-8.59-4.14-5.43-7.5-11.73-7.07-18.7a24.5 24.5 0 0 1 8.69-14.12c6.97-3.79 17.4-3.64 24.68-.79" fill="#161814"/><path d="m380.31 548.25 2.7.75c-1.5 3.49-3.47 5.64-6.2 8.25a132 132 0 0 0-8.3 8.75 151 151 0 0 1-16.14 16.12c-5.22 4.53-10.02 9.46-14.87 14.38-5.42 5.5-10.83 10.92-16.7 15.94-2.78 2.4-5.44 4.92-8.1 7.43a296 296 0 0 1-19.49 16.55c-14.88 11.8-14.88 11.8-19.88 11.99l-2.7.12-2.82.1-2.85.11-6.96.26a102 102 0 0 1 11.43-10.13l1.85-1.43 7.51-5.83a565 565 0 0 0 24.44-20.08l8.96-7.72 1.77-1.52q5.22-4.46 10.54-8.79a662 662 0 0 0 27.27-23.49q4.05-3.63 8.15-7.19 4.88-4.31 9.68-8.71c6.97-6.14 6.97-6.14 10.71-5.86" fill="#EAEAED"/><path d="M362.15 421.62c5.44 2.36 9.3 6 11.85 11.38 1.15 5.25.57 9.66-2 14.38-3.43 4.76-7.54 7-13.27 8.03-5 .34-8.37-.64-12.22-3.88-4.7-4.75-5.8-8.45-6.14-15.03.16-5.42 1.1-8.4 4.92-12.23 5.25-3.91 10.6-4.45 16.86-2.65" fill="#161713"/><path d="M290.93 416.14A35 35 0 0 1 297 421l1.54 1.45c4.32 4.6 6.53 10.31 6.9 16.55a20 20 0 0 1-4.44 12c-6.37 5.4-11.98 7.45-20.27 7.34-6.33-.79-11.8-3.94-16.1-8.59-4.14-5.43-7.5-11.73-7.07-18.7a24.5 24.5 0 0 1 8.69-14.12c6.97-3.79 17.4-3.64 24.68-.79M263 427c-.65 6.12-.93 11.98 1.69 17.62 4.4 4.53 7.66 7.5 14.06 7.7 4.92-.09 7.56-.89 11.25-4.32 2.97-3.63 4.77-6.83 5.69-11.44-1.27-6.58-5-11.73-10.44-15.63-9.2-5.06-16.68-2.29-22.25 6.07" fill="#EBCF65"/><path d="M253 593c-2.31 5.27-6.48 8.81-10.5 12.81l-2.32 2.37c-7.98 7.99-15.21 14.69-26.8 15.13-7.65.52-13 2.1-19.07 6.75-5.2 6.61-9.3 13.01-8.7 21.65 1.05 6.18 3.54 10.39 8.39 14.29 10.38 5.61 21.12 6.67 32.5 3.38 6.48-2.18 12.49-5.13 18.5-8.38l-.98 2.53c-1.12 3.8-1.35 7.01-1.4 10.97l-.08 3.84c.55 4.35 1.62 6.35 4.46 9.66 2.88 1.83 2.88 1.83 6 3.25l3.12 1.45L259 694l4 2-1 2-2.23-.62-2.96-.82-2.92-.81c-2.89-.75-2.89-.75-5.61-1.25-3.23-.71-4.8-2.31-7.28-4.5l-1.99-1.68c-3.42-2.91-6.41-5.63-9.01-9.32 2.77-3.08 5.06-4.69 9-6v-5l-1.72 1.06a348 348 0 0 0-4.63 2.75c-9.25 4.15-25.71 4.01-35.34.88-5.85-2.88-9.75-8.38-13.31-13.69-2.58-7.75-1.43-15.76 2-23 3.9-7.62 9.71-12.01 17.69-14.69 4.49-1.3 8.41-1.38 13.05-1.23 4.88-.18 8.03-2.71 11.26-6.08l2.24-1.29a57 57 0 0 0 8.38-6.59l2.86-2.55A34 34 0 0 0 247 596c3.41-3 3.41-3 6-3" fill="#E7E7E9"/><path d="M408 298c6.97 4.32 9.65 11.08 12.25 18.62.84 3.8 1.3 7.52 1.75 11.38l1 3q.26 2.31.44 4.62c.31 3.45.8 6.71 1.62 10.07.92 3.84 1.01 7.35.94 11.31l.56 3.75C427 364 427 364 426 367h-3l-.15-1.66q-.77-8.27-1.58-16.55l-.5-5.18c-3.1-32.25-3.1-32.25-11.58-41.61-3.54-1.62-5.28-1.68-9.19-1-8.26 4.35-14.69 11.44-21.08 18.1A253 253 0 0 1 373 325l-1.93 1.9c-6.29 5.56-11.13 6-19.32 5.56l-3.46-.09q-5.43-.18-10.85-.43l-7.4-.24q-9.02-.3-18.04-.7v-1l20-1v-2c4.27-.09 8.38-.09 12.62.5a107 107 0 0 0 12 .81l3.79.12c7.75-.92 12.65-7.04 17.34-12.81 2.97-3.51 6.33-6.17 10.01-8.92 2.66-2.02 5.15-4.2 7.63-6.44 4.34-3.41 7.22-3.65 12.61-2.26" fill="#E2E4E5"/><path d="M360 418h10v2h4v2l4-1 2.88 3.25 1.61 1.83c3.15 4.01 3.77 6.81 3.7 11.92l-.02 3.12A29 29 0 0 1 385 448h-3v2h-2v2h-2v2h-6v-6h2v-20l-4-2c-1.25-2.12-1.25-2.12-2-4h-4v-2h-4z" fill="#F8D658"/><path d="M562 293c-2.13 2.13-3.81 2.98-6.52 4.25l-2.82 1.33-3.04 1.42-6.33 3-3.21 1.53a795 795 0 0 0-42.51 22.05l-7.01 3.84a912 912 0 0 0-28.95 16.69 911 911 0 0 1-20.92 12.2l-1.85 1.04q-2.4 1.34-4.84 2.65l-3.23 1.79C428 366 428 366 425 365c3.36-3.75 5.16-5.07 10-6a73 73 0 0 0 16-10q2.99-1.53 6-3 2.23-1.33 4.44-2.69c4.29-2.61 8.67-4.98 13.12-7.31 5.06-2.65 9.87-5.43 14.51-8.77 2.21-1.41 4.5-2.26 6.93-3.23l2.44-2c2.83-2.21 5.16-2.88 8.56-4q3.13-1.49 6.21-3.08l3.52-1.83 1.82-.95 5.44-2.82c4.98-2.59 9.92-5.18 14.66-8.2A36 36 0 0 1 548 297q2.54-1.44 5-3c3.39-2.12 5.16-2.07 9-1" fill="#E4E4E6"/><path d="M323 454c3.19 2 3.19 2 5 4-.42 4.91-2.62 6.62-6 10-.81 2.81-.81 2.81-1 5h-7l-1.25-3.19a22 22 0 0 0-4-6.5C307 461 307 461 307 458.88c3.33-6.25 9.8-5.75 16-4.88" fill="#666866"/><path d="m244 661 1 2-.91 1.66c-1.53 3.28-1.43 6.11-1.47 9.72l-.08 3.89c.54 4.39 1.58 6.4 4.46 9.73 2.88 1.83 2.88 1.83 6 3.25l3.12 1.45L259 694l4 2-1 2-2.23-.62-2.96-.82-2.92-.81c-2.89-.75-2.89-.75-5.61-1.25-3.23-.71-4.8-2.31-7.28-4.5l-1.99-1.68c-3.42-2.91-6.41-5.63-9.01-9.32 2.77-3.08 5.06-4.69 9-6v-5l-1 1q-3.5.06-7 0a62 62 0 0 1 8.75-5.69l2.42-1.32z" fill="#D6D7D8"/><path d="m742.19 624.94 2.73.03 2.08.03v2l-3.31.32c-3.67.68-4.44.96-6.7 3.68h-2l-.8 1.69a73 73 0 0 1-4.2 7.3h-2c-.45 7.29 1.5 13.64 5 20l2 2c-4.91-.42-7.48-2.63-11-6-3.1-4.87-2.67-10.42-2-16 2.23-5.94 6.84-10.44 12-14 3.03-1 5.05-1.1 8.2-1.05" fill="#050606"/><path d="M251 299a85 85 0 0 1 10 5v3h-2l-1 2-1.83-.88-2.42-1.12-2.39-1.12C249 305 249 305 245 305v-3c-2.87 1.72-3.92 2.81-5.25 5.94C239 311 239 311 239 315l-1 1c-1.4 10.66-1.31 21.57-1.56 32.31l-.13 5.17L236 366h-1q-.12-11.29-.16-22.58l-.07-7.67q-.05-5.53-.06-11.06l-.05-3.44c0-7.63.4-14.81 5.53-20.81 3.74-1.92 6.75-2.28 10.81-1.44" fill="#1E1F20"/><path d="m372.75 418 3.25 2v3l-2-1v-2h-4v-2h-10v2h4v2h4a49 49 0 0 1 4 5l2 1v5l-1.56-2.19c-3.87-4.46-8.44-8.35-14.49-9.05-5.53-.18-8.6.51-12.95 4.24-3.18 3.37-3.41 5.86-3.37 10.44l-.03 3.37c.44 3.47 1.58 5.26 3.4 8.19l-1 3-2-1v-4h-2v-14h-2l.04 1.86.02 2.45.04 2.43C338 441 338 441 337 444h-2c-.77-7.94 1.01-12.76 6-19 8.56-8.23 20.53-12.6 31.75-7" fill="#E1CE76"/><path d="m901.69 146.75 2.63-.06 2.5-.02 2.29-.03 1.89.36 2 3-3.96.11c-22.76.78-42.55 4.48-62.77 15.26-3.42 1.81-6.43 3.12-10.27 3.63a31 31 0 0 1 11-8l3.69-1.94c4.94-2.47 10.1-4.26 15.3-6.06l2.47-.88A60 60 0 0 1 882 149q3.54-.65 7.05-1.52c4.2-.69 8.37-.7 12.64-.73" fill="#EDEDEE"/><path d="M426 395c8.72 13.08 6.7 40.93 3.92 55.93q-.85 4.06-1.92 8.07c-2.41-3.62-2.24-6.19-2.16-10.36l.02-2.22.05-4.72q.07-6.14.09-12.27l.01-2.45c.03-7.83-.28-15.64-.74-23.45-.36-6.34-.36-6.34.73-8.53" fill="#020403"/><path d="M820 414h1c1.71 7.6 2.69 14.29 1 22a76 76 0 0 0-1 12.19c0 3.21-.38 5.7-1 8.81q-.03 2.03 0 4.06c0 3.16-.27 5.01-1 7.94l.12 3.88c.08 4.01-1.04 6.65-3.12 10.12h-1c-.14-9.21.21-18.23 1.09-27.4l.34-3.64 1.07-11.34.72-7.75z" fill="#DEDEDF"/><path d="m814 567 1 2 2 1c.08 3.04-.02 5.07-1 8q-.26 2.65-.44 5.31A46 46 0 0 1 813 595q-.43 3.71-.66 7.44c-.4 3.03-1.36 5.67-2.34 8.56q-.82 3.55-1.56 7.12c-1.56 7.51-1.56 7.51-2.44 10.88l-4 1c.81-5.16 1.79-10.26 3.07-15.32 3.98-15.75 6.5-31.63 8.93-47.68" fill="#E1E1E1"/><path d="M944 209c4.11 1.54 6.31 4.47 8.88 7.88l1.33 1.76c7.16 9.74 10.67 19.68 13.32 31.35 1.91 8.21 4 15.82 8.47 23.01v3c-6.26-5.57-8.98-11.69-10.57-19.85-.38-1.9-.9-3.78-1.43-5.65a94 94 0 0 1-1.88-7.94c-1.4-6.51-4.66-11.93-8.12-17.56l-1.81-3.44a28 28 0 0 0-5.44-6.81L944 212z" fill="#E2E4E2"/><path d="M692 255q2.5.47 5 1 3.24.29 6.5.5A63 63 0 0 1 721 260v1l-3.17-.22c-18.8-1.19-38.07-2.2-56.73.78-3.08.44-6 .52-9.1.44v-2a96 96 0 0 1 18-3l2.73-.28c5.49-.56 10.85-.8 16.37-.66C691 256 691 256 692 255" fill="#F0F0F2"/><path d="m286 415-2 1 1 5-1.69-.48c-5.35-1.2-10.55-1.58-15.31 1.29-3.52 3.85-4.29 6.25-4.62 11.38l-.23 3.29L263 439l-2-4-2 4c-1.64-3.27-1.52-6.47-1-10 2.01-5.65 5.13-10.23 10.4-13.2 5.65-1.73 11.76-1.14 17.6-.8" fill="#D9C678"/><path d="M338 432h2v14h2v4l2.06.25c3.1.79 5.37 2.18 8.09 3.83 2.91 1.45 5.63 1.66 8.85 1.92l-1 2h-4v2l2 1c-7.62-.41-12.4-2.53-17.91-7.84-3.01-3.68-4.11-6.03-4.01-10.86.49-3.48 1.11-6.87 1.92-10.3" fill="#EDD96F"/><path d="M235 366h1c.16 24.35-.29 48.66-1 73h-1l-1-8h-1l-.08-21.31-.02-7.79-.01-2.43c0-4.28.3-8.25 1.11-12.47q.03-2.07-.06-4.12c-.09-5.74 1-11.26 2.06-16.88" fill="#DEE1DF"/><path d="M261 305c6.32 2.26 11.5 6.23 17 10l2.34 1.53c1.91 1.28 1.91 1.28 4.66 3.47v3c-2.87-.57-3.86-.86-6-3l-1 3c-3.4-1.52-6.06-3.52-8.94-5.88l-2.52-2.05L264 313l-2.82-2.13L259 309v-2h2z" fill="#09090B"/><path d="m855 209 2 1c-2.17 4-4.79 6.79-8 10-1.31 2.31-1.31 2.31-2 4h-2l-.31 2.75c-.69 3.25-.69 3.25-2.05 4.94-2.31 3.25-3.29 6.73-4.52 10.5-5.43 16.02-5.43 16.02-11.12 19.81 2.03-6.21 4.4-12.25 6.81-18.31l1.29-3.31c3.3-8.29 6.86-16.18 12.46-23.19l1.69-2.15A94 94 0 0 1 855 209" fill="#DEDFDF"/><path d="M360 418h10v2h4v2l4-1 2.88 3.25 1.61 1.83c3.15 4.01 3.79 6.87 3.76 11.98l.02 3.16C386 444 386 444 384 447v-15h-2l-.75-2.44C380 427 380 427 377.88 426.19L376 426l-1 5-1-3-1.94-.94c-2.51-1.29-3.03-2.48-4.06-5.06h-4v-2h-4z" fill="#F4D158"/><path d="M373 320h3c-2.35 5.6-6.83 9.03-12 12-4.18.95-8.09.81-12.35.56l-3.46-.1c-3.61-.11-7.21-.29-10.81-.46l-7.38-.25q-9-.31-18-.75v-1l20-1v-2c4.27-.09 8.38-.09 12.62.5a107 107 0 0 0 12 .81l3.79.12c4.22-.51 6.3-1.79 9.59-4.43l1.69-2.25z" fill="#D2D3D4"/><path d="M260 434c2.78 1.39 2.77 2.85 3.75 5.75 2.15 5.66 4.77 8.51 10.25 11.25q3.32.1 6.62.06l3.61-.02L287 451l-1 4-10-1v2c-5.33-.32-8.47-3.28-12-7-3.88-4.86-4.42-8.97-4-15" fill="#DCCD74"/><path d="M822 378c2.12 3.87 2.47 7.4 2.69 11.75l.12 2.17A62 62 0 0 1 824 406v14h-3c-.15-14.03.29-27.99 1-42" fill="#F0F0F2"/><path d="m347 420 4 2-2.81 1.75c-2.93 2.07-4.42 3.22-6.19 6.25-.4 3.06-.4 3.06-.38 6.44l-.02 3.37c.44 3.47 1.58 5.26 3.4 8.19l-1 3-2-1v-4h-2v-14h-2l.04 1.86.02 2.45.04 2.43C338 441 338 441 337 444h-2c-.77-7.97 1.11-12.68 6-19a45 45 0 0 1 6-5" fill="#DCD482"/><path d="m652 261 2 2-2.97.52a291 291 0 0 0-30.67 7.25c-2.17.61-2.17.61-5.36 1.23l-2-2c3.76-2.18 7.81-3.07 12-4.06l2.16-.53L633 264a98 98 0 0 0 7.25-2.06A35 35 0 0 1 652 261" fill="#E0E1DF"/><path d="m837.31 169.25 1.7.75-2.43 1.7a95 95 0 0 0-18.62 17.21A72 72 0 0 0 810 201c-.75-1.56-.75-1.56-1-4a27 27 0 0 1 4-7l3-1 .82-2.21c1.55-3.67 4.06-5.8 7-8.35.25-.24.25-.24 1.57-1.42l3.12-2.74a204 204 0 0 0 4.12-3.68c2.37-1.6 2.37-1.6 4.68-1.35" fill="#E1E1E2"/><path d="m870 153 1 2-3.01 1.07c-8.32 3-16.19 6.35-24 10.51A26 26 0 0 1 836 169a31 31 0 0 1 11-8l3.75-1.94c12.84-6.38 12.84-6.38 19.25-6.06" fill="#E7E8E9"/><path d="m502 549 2 1-1.29 1.25a243 243 0 0 0-9.59 9.94l-1.74 1.92c-1.46 2-1.81 3.51-2.38 5.89-3.66 2.09-6.85 2.19-11 2l1-2h2v-2c2.2-1.84 4.4-3.59 6.69-5.31A101 101 0 0 0 500 551z" fill="#030303"/><path d="M299 440h2v5l1-1 1 4h-3v2h-2v2h-4v2h-4l-1-3 2-3h3v-4h2v-2h3z" fill="#F5D462"/><path d="M421 337h2l.4 1.83.54 2.42.52 2.39q.51 2.24 1.11 4.45c.67 2.95.43 5.9.43 8.91l.56 3.75C427 364 427 364 426 367h-3l-1-9.94-.29-2.8c-.57-5.79-.81-11.45-.71-17.26" fill="#D7D9D9"/><path d="M413 305c3 1 3 1 4.56 4.12 2.43 6.24 3.67 12.27 4.44 18.88l1 3q.53 3 1 6h-3z" fill="#E9E8EC"/><path d="m881 197 1 2-3.75 1.06c-7.43 2.47-14.72 6.37-20.25 11.94h-2c1.34-5.19 4.57-7.13 8.94-9.75l1.92-1.21c4.99-3.09 8.29-4.17 14.14-4.04" fill="#E8E9EB"/><path d="m313 511 5 1a138 138 0 0 1-9.06 14.25l-1.32 1.85c-2.03 2.84-4.02 5.55-6.62 7.9l-2-2h2q1.48-2.9 2.86-5.86a58 58 0 0 1 7.97-12.38C313 514 313 514 313 511" fill="#E6E6E8"/><path d="m899.06 192.88 2.62.03 6.32.09v1l-6.15.59-1.85.4-1 2-2.38-.06C894 197 894 197 892 198l-1.82-.5c-2.18-.5-2.18-.5-4.56 0-3.12.6-5.53.16-8.62-.5 6.6-4.39 14.36-4.28 22.06-4.12" fill="#D7D8D9"/><path d="m814 567 1 2 2 1c.08 3.04-.02 5.07-1 8q-.2 2.65-.31 5.31c-.41 5.1-1.43 7.8-4.69 11.69-1.16-3.47-.85-6.06-.22-9.64l.55-3.24.61-3.37.59-3.41z" fill="#E7E7EB"/><path d="M934.06 153.56 936 155v2l-3.08-.8A230 230 0 0 0 908 151v-1c8.83-3.76 17.9-.6 26.06 3.56" fill="#E3E3E4"/><path d="M822 361c2.08 3.12 2.25 3.83 2.19 7.38l-.02 2.27c-.17 2.35-.17 2.35-.66 4.65-.52 2.77-.72 5.4-.83 8.22l-.12 3.1-.25 6.45L822 401h-1l-1-37h2z" fill="#D8D8DB"/><path d="M343 329v1l-39 1 1-3c12.95-.96 25.16-1.04 38 1" fill="#EFF1F1"/><path d="M294 422h2v2l5 1v7l-7 1c-1.69-2.69-1.69-2.69-3-6 1.19-2.88 1.19-2.88 3-5" fill="#EDCE5D"/><path d="M481 335c-4.36 3.8-9.14 6.44-14.19 9.19l-2.48 1.36c-5.76 3.17-5.76 3.17-8.33 4.45.34-2.74.69-3.75 2.9-5.49l2.48-1.39 2.71-1.52L467 340l3-1.75 2.94-1.69 2.71-1.56c2.35-1 2.35-1 5.35 0" fill="#E2E2E5"/><path d="M1006 235c2.78 2.78 2.54 5.16 3 9l.55 1.79c.64 3.14.32 6.02.07 9.21l-.27 3.69A39 39 0 0 1 1008 266h-2z" fill="#EEEFEE"/><path d="M233 412h1c1.19 29.14 1.19 29.14 1 42-1.85-1.56-2.9-2.46-3.36-4.88l.03-2.12.02-2.41.06-2.59.03-2.66c.15-9.12.64-18.23 1.22-27.34" fill="#F0F4F0"/><path d="M203 624a46 46 0 0 1-6.88 4.5c-4.71 3.03-6.75 8.62-9.12 13.5-1.07-1.81-1.07-1.81-2-4 1.68-4.75 4-7.07 8-10l2.19-2.19c2.87-2.87 4.04-2.94 7.81-1.81" fill="#DADCDB"/><path d="M779 252c.69 1.76.69 1.76 1 4-1.22 1.93-1.22 1.93-3.06 3.88l-1.95 2.08L773 264l-1.8 1.85A328 328 0 0 1 767 270l-4-2 2.62-1.56c3.31-2.18 5.57-4.84 7.99-7.95C775 257 775 257 778 256c.69-2.06.69-2.06 1-4" fill="#E8E9EC"/><path d="M812 592h2c-.46 3.47-.89 6.67-2 10l-.44 3.38A31 31 0 0 1 809 614l-2-1c.45-7.45 1.64-14.28 5-21" fill="#E9EAE8"/><path d="M368 456v6h-13l1-4c3.91-2.3 7.55-2.17 12-2" fill="#EACF51"/><path d="M967 252c1.84 3.34 2.84 6.71 3.88 10.38 1.46 4.89 2.94 8.64 6.12 12.62h-3c-5.01-5.28-7.59-11.78-8-19 .46-2.29.46-2.29 1-4" fill="#D6D9D6"/><path d="M718 258c12.34 1.88 12.34 1.88 18 4q2 .53 4 1v2a223 223 0 0 1-23-3z" fill="#E4E2E5"/><path d="M300 448h2c-1.39 3.35-2.78 4.83-5.88 6.69l-2.05 1.26c-3.81 1.93-7.08 2.17-11.32 2.11l-2.7-.02L278 458l-1-2h11v-2h6v-2h4v-2h2z" fill="#E0CB7A"/><path d="M235 366h1v33h-1l-1-7h-1c-.24-8.91.21-17.26 2-26" fill="#D5D7D6"/><path d="M816 482c2.41 3.61 2.24 5.35 2.19 9.62l-.02 3.54C818 498 818 498 817 499q-.34 2.77-.56 5.56l-.26 3.07L816 510h-1l-.06-13.44-.03-3.87-.01-3.69-.01-3.41C815 483 815 483 816 482" fill="#F5F5F7"/><path d="m241 300 2 1-.88 1.62c-2 4.24-3.12 7.67-3.12 12.38a74 74 0 0 1-2 5h-1c-.69-12.9-.69-12.9 1.94-16.75C240 301 240 301 241 300" fill="#191B17"/><path d="M234 342h1v29c-3-3-3-3-3.26-5.08l.15-2.38.15-2.62.21-2.73.16-2.7c.29-4.55.73-9 1.59-13.49" fill="#ECF0ED"/><path d="M237 320h2c.92 6.21 1.12 12.23 1.06 18.5l-.01 2.78L240 348h-1l-1-5h-1z" fill="#151616"/><path d="M373 320h3c-2.27 5.54-7 8.95-12 12-3.01.64-4.91.46-8 0l-1-3 1.76-.08c5.47-.4 8.9-1.3 13.24-4.92l1.69-2.25z" fill="#DBDCDF"/><path d="m244 661 1 2-.9 1.73c-1.4 2.88-1.52 5.33-1.72 8.52l-.23 3.27L242 679h-1l-1-11-2 1q-3.5.06-7 0a62 62 0 0 1 8.75-5.69l2.42-1.32z" fill="#C5C7C6"/><path d="M269 451h18l-1 4-10-1v2c-2.38-.25-2.38-.25-5-1z" fill="#E9D576"/><path d="M378 423c3.65 1.17 5.45 3.39 7.24 6.73 1.53 4.58 1.36 9.51.76 14.27l-2 3v-15h-2l-.88-2.44C380 427 380 427 378 426z" fill="#EBD470"/><path d="M957 165c4.12 1.92 7.63 3.93 11 7v2l4 1v4l-1.43-1.1A262 262 0 0 0 955 167z" fill="#DEDFDF"/><path d="m261 423 .44 1.88C262 427 262 427 263 429q.1 2.57.06 5.12l-.02 2.76L263 439l-2-4-2 4c-1.6-3.19-1.39-6.53-1-10 1.5-3.5 1.5-3.5 3-6" fill="#C1B878"/><path d="m816 528 4 3c.39 3.14.39 3.14.25 6.69l-.11 3.57L820 544l-2 1-2 3z" fill="#E3E3E4"/><path d="m711 674 38 1v1l-33 1v-1l-5-1z" fill="#DADDDA"/><path d="m1005 264 3 4-8 11-5-1 2.25-2.12c3.46-3.63 6.16-7.1 7.75-11.88" fill="#DCDDDB"/><path d="M636 266v1l-2.56.59-7.02 1.6q-4.08.98-8.11 2.12L615 272l-2-2c7.32-3.91 14.84-4.31 23-4" fill="#DFDFE0"/><path d="m220 619 1 3c-1.51 1.51-2.92 1.21-5.04 1.32l-2.45.12-2.57.12-2.59.13-6.35.31c2.32-2.44 3.62-3.51 7-4q2.6-.06 5.19 0 2.4.07 4.81 0z" fill="#EEEEEF"/><path d="M944 209c4.21 1.52 6.25 4.62 8.75 8.12l1.25 1.71 3 4.17-3 1-1.17-1.61c-2.28-3.09-4.45-6.02-7.21-8.7C944 212 944 212 944 209" fill="#DDDEDF"/><path d="M373 443h1v5h-2l-.62 2.31c-1.91 3.72-3.44 4.35-7.38 5.69-3.35.23-6.65.18-10 0v-1l1.98-.3c5.51-.94 9.71-1.91 14.02-5.7 1.88-3.25 1.88-3.25 3-6" fill="#D9C97A"/><path d="M300 693c-.7 1.95-.7 1.95-2 4-2.24.68-2.24.68-4.88.88l-2.61.24c-2.7-.13-4.22-.74-6.51-2.12q3.15-1.05 6.31-2.06l3.55-1.16C297 692 297 692 300 693" fill="#B3B3B7"/><path d="m261 696 20 2-1 2q-3.91-.13-7.81-.31l-2.24-.07c-4.48-.22-5.65-.32-8.95-3.62" fill="#EAEAED"/><path d="M299 509a75 75 0 0 1 15 3c-2.77 1.88-4.08 1.99-7.5 1.75-2.9-.62-4.98-1.24-7.5-2.75z" fill="#EFEFF1"/><path d="m437 358 1 3q-2.4 1.3-4.81 2.56l-2.71 1.44c-2.48 1-2.48 1-5.48 0 3.22-3.58 5.16-5.48 10-6z" fill="#F0F0F2"/><path d="M419 323h3l-.06 2.31C422 328 422 328 423 331q.53 3 1 6h-3c-1.34-4.84-2.25-8.93-2-14" fill="#EFEFF2"/><path d="M236 669c-3.64 3.34-7.29 3.98-12 5v-2l-4-1a48 48 0 0 1 16-2" fill="#E5E5E5"/><path d="M262 448c2.99 1.4 5.6 3.03 8.25 5l2.14 1.56L274 456v2c-2.17-.51-4-1-6-2q-2-.53-4-1l2-3h-2v-2h-2z" fill="#181207"/><path d="M904 147c3.38-.19 3.38-.19 7 0l2 3h-21v-1h12z" fill="#F7F7F9"/><path d="M812 578h1c2.52 7.56 2.52 7.56 1 12-1.56 2.81-1.56 2.81-3 5-1.34-3.77-.72-6.86-.06-10.75l.59-3.55z" fill="#D5D6D8"/><path d="M338 432h2v14l-4-2z" fill="#F6E560"/><path d="M357 569q3.01.43 6 1c-1.39 3.37-2.98 4.99-6 7q-.57-3.5-1-7z" fill="#DEE0E3"/><path d="M243 676h2v5l3 1-1 4h-3c-1.8-2.76-2.01-3.89-1.62-7.25z" fill="#191A1C"/><path d="M364 420v2h4a52 52 0 0 1 4 5l2 1v5l-1.56-2.19c-2.83-3.26-5.87-5.45-9.44-7.81l-3-2c2-1 2-1 4-1" fill="#E2C76C"/><path d="M804 629c.93 3.01 1.04 3.87 0 7l4 3h-7c-.37-6.52-.37-6.52 1.5-8.94z" fill="#F2F2F1"/><path d="M382 551c0 4.69-2.83 7.69-6 11-2.88 1-2.88 1-5 1 3.51-4.18 7.08-8.2 11-12" fill="#292B2B"/><path d="M267 419c-.5 4.4-2.09 6.71-5 10l-2-2h2l.38-3.44.62-3.56c2-1 2-1 4-1" fill="#E6D883"/><path d="M421 337h2c2.2 5.86 1.88 9.04 0 15h-1c-1.04-5.05-1.1-9.87-1-15" fill="#D5D4D6"/><path d="M972 178a34 34 0 0 1 11 8c.94 2.88.94 2.88 1 5-4.67-3.4-8.42-7.49-12-12z" fill="#EAECED"/><path d="m294 440 2 4h-2v4l-3 1-2 3-3-1 1.24-1.39 1.64-1.86 1.61-1.83A28 28 0 0 0 294 440" fill="#D7BF6A"/><path d="M235 449h1l2 13-3 1c-1.03-3.27-.96-5.86-.56-9.25l.31-2.7z" fill="#D4D4D5"/><path d="M340 432h1l.11 2.23c.37 5.45.73 9.18 3.89 13.77l-1 3-2-1v-4h-2z" fill="#C7B770"/><path d="M819 442c2 2 2 2 2.2 3.95L821 452l-3 1-.06-4.94-.04-2.77c.1-2.29.1-2.29 1.1-3.29" fill="#F2F3F4"/><path d="M819 433a12 12 0 0 1 3 3c-.12 2.56-.12 2.56-1 5l-3 2-.06-4.44-.04-2.49c.1-2.07.1-2.07 1.1-3.07" fill="#D9DCDA"/><path d="m299 425 2 1v6h-5l-1-2c1.47-3.74 1.47-3.74 4-5" fill="#F4D255"/><path d="m811 290 2 2-2.88 1.75c-2.88 2.08-3.96 3-5.12 6.25l-3-1 2.81-3.38 1.58-1.89C808 292 808 292 811 290" fill="#F1F3F2"/><path d="M185 654a92 92 0 0 1 4 6.56c2 3.44 2 3.44 4 5.44-3 0-3 0-4.64-1.36-4.39-4.99-4.39-4.99-4.24-8.58z" fill="#D8D9D8"/><path d="m382 448 2 1c-2.81 4.75-5.25 7.19-10 10v-3l4-1v-3h2v-2h2z" fill="#DDC774"/><path d="m819 354 3 1c1.12 5.62 1.12 5.62 0 9h-2c-1.16-3.47-1.07-6.36-1-10" fill="#EFF0F4"/><path d="M665 260v1l-13 1v-2c5.04-2.21 7.86-1.85 13 0" fill="#ECEDEE"/><path d="m855 209 2 1c-1.8 3.26-2.83 4.89-6 7l-3-1z" fill="#D4D5D7"/><path d="m837.27 169.29 1.73.7q-2.13 1.8-4.31 3.58l-2.42 2L830 177l-3-1a315 315 0 0 1 3.75-3.56l2.1-2c2.15-1.44 2.15-1.44 4.42-1.15" fill="#D9D9DB"/><path d="m891 151-2 3c-4.24.39-7.37.32-11-2a60 60 0 0 1 13-1" fill="#1E1F1F"/><path d="m313 511 5 1-4 7-2-1z" fill="#D7D8D8"/><path d="M373 418c4.75.88 4.75.88 7 2v2h2v2h2l-1 4-2.19-2.75A43 43 0 0 0 373 418" fill="#221606"/><path d="M412 301a17 17 0 0 1 2 4l-2 1-2.19-2.44c-2.84-2.58-4.08-3.24-7.81-3.56v-1c4.4-1.38 6.38-.84 10 2" fill="#D4D3D8"/><path d="m347 420 4 2c-5.75 3.88-5.75 3.88-8 5l-2-2z" fill="#C8C181"/><path d="m362.19 327.94 3.8.06-2 4h-8q-.48-1.48-1-3a19 19 0 0 1 7.2-1.06" fill="#D2D2D5"/><path d="M658 261h13v1q-2.4.55-4.81 1.06l-2.71.6C661 264 661 264 658 263z" fill="#18191A"/><path d="m555.31 540.31 1.7.7c-2.15 2.44-3.72 3.67-7 4l-2-2c4.42-3.09 4.42-3.09 7.3-2.7" fill="#191B1C"/><path d="M236 461a18 18 0 0 1 5 7v3c-3-1-3-1-4.19-3.31C236 465 236 465 236 461" fill="#E9EBE9"/><path d="M293 431c2 2 2 2 2.25 5.5C295 440 295 440 293 442c-1.29-7.43-1.29-7.43 0-11" fill="#433618"/><path d="m446 353 2 2-3.88 2.5-2.17 1.41C440 360 440 360 438 360c1.46-4.39 3.98-4.88 8-7" fill="#E0E0E0"/><path d="M301 629c0 3 0 3-2.5 5.69L296 637l-3-1zm-10 8 2 1Z" fill="#17171B"/><path d="M246 478c3.37 1.39 4.99 2.98 7 6l-2 2c-2.8-2.53-4.46-4.2-5-8" fill="#E8E7EA"/><path d="M335 435h3l-1 9h-2z" fill="#D8C471"/><path d="m505 318 2 1c-1 3-1 3-2.88 4.25C502 324 502 324 499 323c1.4-2.8 3.26-3.6 6-5" fill="#EDEDEF"/><path d="m992 276 2 2c-1 1-1 1-3.29 1.1l-2.77-.04-2.79-.02L983 279v-2q2.19-.33 4.38-.62l2.46-.36z" fill="#1E1F20"/><path d="M615 271c-2.8 2.8-5.12 2.67-9 3a56 56 0 0 1-4-1c8.26-3.63 8.26-3.63 13-2" fill="#EEEFEF"/><path d="M969 178c5.01 1.43 6.94 3.98 10 8l-2 1v-2l-4-2v-2l-4-2z" fill="#1F2121"/><path d="M232 663h3l1 3c-2.31 1.56-2.31 1.56-5 3l-3-1h2z" fill="#0B0C0C"/><path d="M253 593c-1.39 3.37-2.98 4.99-6 7l-2-2c5.75-5 5.75-5 8-5" fill="#E0DEE4"/><path d="M816 561a21 21 0 0 1 3 4c-.31 2.25-.31 2.25-1 4h-3q-.06-3.5 0-7z" fill="#F2F3F5"/><path d="m286 415 3 1-2 5-3-1v-4z" fill="#E7C763"/><path d="M481 335c-5.14 4.43-5.14 4.43-9 5 1-3 1-3 3.38-4.75C478 334 478 334 481 335" fill="#DBDCDF"/><path d="m807 318 5 5-1 3c-2-1.75-2-1.75-4-4z" fill="#F1F1F3"/><path d="m499 321 2 4-7 3v-3c2.5-2.19 2.5-2.19 5-4" fill="#E0E0E2"/><path d="m406 297 1 2-10 3c2.6-5.2 3.56-5.14 9-5" fill="#E5E7EA"/><path d="M900 194h10l-3 1v2l-8-1z" fill="#F4F7F4"/><path d="M336 446c2.12 2.62 4.13 5.2 6 8h-4v-2h-2z" fill="#312514"/><path d="m291 448 1 2h2v4h-4l-1-3z" fill="#FAD96B"/><path d="m265 442 1 2h2v2h4l-1 4c-4.69-3.61-4.69-3.61-6-5z" fill="#221808"/><path d="M237 302c1.31 3.94.24 6.12-1 10l-2-2c.45-5.45.45-5.45 3-8" fill="#E0E1DF"/><path d="m637.06 262.94 2.94.06v2c-2.4 1.2-3.95 1.1-6.63 1.06l-2.47-.02-1.9-.04 1.94-.94c4.04-2.08 4.04-2.08 6.12-2.12" fill="#EFEFF1"/><path d="M993 202c2.16 2.16 3.48 4.37 5 7h-4l-2-6z" fill="#E8E8ED"/><path d="M385 430h3l-1 12h-1z" fill="#372C1C"/><path d="M609 273v2l-9 2-1-2c6.62-2 6.62-2 10-2" fill="#E3E3E5"/><path d="M875 197h6l1 2-7 2z" fill="#EFF1F2"/><path d="m188 634 2 2-3 6-2-4z" fill="#D6D7D6"/><path d="M417 615v2c-2.14 2.14-3.13 2.43-6 3 .38-1.94.38-1.94 1-4 2-1 2-1 5-1" fill="#17191A"/><path d="M812 592h2l-1 7-3 1c-.2-3.72-.15-4.77 2-8" fill="#F1F1F1"/><path d="m490 564 3 1 1 3-5 1c0-4 0-4 1-5" fill="#1A1A1C"/><path d="m648 498 1 5-7-2c3.75-3 3.75-3 6-3" fill="#CFD1D4"/><path d="m368 456 5 3c-2 2-2 2-5.12 2.12L365 461l3-1z" fill="#EAD672"/><path d="M292 440c.81 1.69.81 1.69 1 4-2.44 2.75-2.44 2.75-5 5v-3h2v-4h2z" fill="#1F1205"/><path d="m821 423 2 1v7l-3 1z" fill="#F0F1F0"/><path d="m276.19 418.81 2.73.08 2.08.11v1l-3.7.43q-4.67.58-9.3 1.57c2.5-3.18 4.23-3.34 8.19-3.19" fill="#261D05"/><path d="M816 346c1.98 2.92 1.99 4.12 1.62 7.75L817 357h-1l-.56-4.38-.32-2.46C815 348 815 348 816 346" fill="#232325"/><path d="m423 346 3 1v6h-3z" fill="#F2F2F5"/><path d="m265 303 6 5-3 1-4-4z" fill="#E4E6E5"/><path d="m801 298 2 1-1 3c-2.56 1.19-2.56 1.19-5 2v-3c2-1.69 2-1.69 4-3" fill="#E5E5E7"/><path d="m396 300 1 3-6 4c.4-2.89.79-3.82 3.06-5.75z" fill="#D5D6D7"/><path d="M792 229h3c-1.75 5.75-1.75 5.75-4 8q-.06-3.5 0-7z" fill="#DCDCDF"/><path d="m843 226 2 2-5 5c.38-2.94.38-2.94 1-6z" fill="#EAEBEC"/><path d="M931 152a55 55 0 0 1 5 3v2l-8-2z" fill="#D8D8D8"/><path d="M229 671c-1.38 1.5-1.38 1.5-3 3h-2v-2l-4-1c3.38-.84 5.67-1.11 9 0" fill="#D4D5D6"/><path d="M193 628c0 3 0 3-2 5.19l-2 1.81-2-2z" fill="#E5E7E6"/><path d="m352 457 4 1v2l2 1-8-1 2-1z" fill="#E8CF65"/><path d="M342 444h2v2h2v2h2l-1 4-2.5-3.44-1.41-1.93C342 445 342 445 342 444" fill="#2E290B"/><path d="m437 358 1 3-7 3c1.05-2.62 1.65-3.79 4.12-5.25z" fill="#E9E9EB"/><path d="M998 278c-1.5 1.56-1.5 1.56-4 3-2.77-.03-5.25-.5-8-1v-1a65 65 0 0 1 12-1" fill="#E2E4E3"/><path d="m944 209 4 2v4c-2-1.31-2-1.31-4-3z" fill="#D4D4D6"/></svg>