<svg style="background:transparent" version="1.1" xmlns="http://www.w3.org/2000/svg" viewBox="0 0 1248 704"><path d="M757 26c6.14 6.24 7.04 14.16 7.19 22.62C764 52 764 52 763 53q-.23 3.36-.32 6.74l-.06 2.19q-.1 3.69-.18 7.39l-.07 2.62c-.64 26.99-.44 54-.37 81l.06 27.52.03 10.92.01 6.58.01 3.06v2.76l.01 2.41C762 208 762 208 761 209c-.03 2.98.07 5.94.16 8.92-.17 3.19-.89 5.18-2.16 8.08l-.46 2.48c-1.75 8.17-7.56 15.86-13.54 21.52a97 97 0 0 1-5 3l-1.62 2.19L737 257h-3l-.62 1.75c-1.88 3.07-4.37 4.32-7.38 6.25-3.13 2.4-3.93 3.45-4.46 7.43a464 464 0 0 1 .12 7.75A47 47 0 0 0 724 291l.71 2.34A145 145 0 0 0 731 309l2.06 4.69q1.62 3.67 3.44 7.25c3.22 6.56 5.7 13.32 7.69 20.35q1.05 3.48 2.24 6.92c1.58 4.74 2.93 9.52 4.19 14.35l.66 2.42c1.32 5.01 2.14 9.87 2.72 15.02q.46 2 1 4c2.82 21.12 3.03 42.08-1 63l2.31-.91c10.38-3.82 17.54-3.25 27.69.91a26 26 0 0 1 7 5l2.81 2c4.22 3.49 6 8.1 8.19 13l1.16 2.23c2.69 5.3 3.39 10.05 3.66 15.97.18 2.8.18 2.8.69 5.1.7 3.87.63 7.66.61 11.58l.02 2.35A83 83 0 0 1 807 518l-.5 3.03-.5 2.91c-.59 3.49-1.13 6.97-1.5 10.5A32 32 0 0 1 802 543l-.44 2.88c-.66 3.67-2.05 6.71-3.56 10.12l-.43 1.88c-.72 2.66-1.88 4.92-3.13 7.37l-1.38 2.7L792 570c22.55 11.27 56.8 8.11 80 .62a76 76 0 0 0 16-7.62l3-1.88 3-2.12 2.16-1.52A51 51 0 0 0 909 544l2.25-3.12A35 35 0 0 0 915 532l1.56-4.62c3.94-11.62 3.01-21.47-2-32.57-3.21-5.79-5.82-9.36-11.56-12.81-3.06-1.96-5.67-3.64-8.12-6.31L893 474c-2.25.25-2.25.25-4 1l-4-6 1-2-1.94-.69C882 465 882 465 881.31 462.62L881 460l-.5-2-.5-2-.75-2.44c-.41-4.15 2.12-6.72 4.55-9.95 6.87-8.09 6.87-8.09 13.2-8.61 11.02.26 19.63 4.73 29 10l3.07 1.66c11.9 6.91 19.84 17.82 26.93 29.34l1.59 2.55c7.35 12.78 8.47 26.28 8.6 40.7l.04 2.62c0 4.82-.46 8.58-2.23 13.13l-.48 2.44a68 68 0 0 1-2.9 9.5l-1.27 3.59A100 100 0 0 1 947 573h-2l-.8 1.79a23 23 0 0 1-4.32 5.6l-1.88 1.89-2 1.97-2.05 2.03c-7.64 7.48-15.33 13.97-24.95 18.72l-3.37 1.68A152 152 0 0 1 875 618l-2.81 1a58 58 0 0 1-10.19 2l-2 .5c-2.97.74-5.97 1.09-9 1.5l-3.28.52c-3.67.47-7.17.61-10.86.61l-3.99.01-2.05-.01q-3.12-.01-6.23.01l-3.98-.01h-3.63C814 624 814 624 811 623q-2.5-.26-5-.44c-4.89-.4-9.62-1.16-14.43-2.09-2.3-.42-4.56-.72-6.88-.97A49 49 0 0 1 775 617l-3.5-.5a45 45 0 0 1-9.5-2.5c-2.22 2.06-3.91 3.83-5.38 6.5-1.62 2.5-1.62 2.5-4.56 4.44-3.56 2.4-4.9 4.41-7.06 8.06l2 .56c6.48 3.11 13.15 9 15.94 15.69 1.94 5.69 2.52 9.89 1.06 15.75-2.98 5.65-6.08 7.97-12.02 10.06-4.76 1.32-9.5 1.28-14.42 1.25l-2.93-.01c-13.1-.21-24.75-2.58-36.63-8.3l-2.07-.99q-1.98-.98-3.93-2.01c4.54 3.79 4.54 3.79 7 4.94 5.38 2.85 10.01 8.51 12.19 14.12 1.61 6.59 3.14 13.84-.19 19.94q-13.75.22-27.51.31-6.39.04-12.78.14-6.16.1-12.33.12-2.36.01-4.7.06-3.3.06-6.59.05l-3.79.04c-4.68-1.02-5.66-2.78-8.3-6.72-3.9-11.7-3.53-23.85-1.44-35.85.44-3.15.44-3.15.44-6.42 0-2.73 0-2.73 1-4.73l-2.69.56c-3.25.43-5.15.13-8.31-.56a182 182 0 0 0-7 0 67 67 0 0 0 .46 10.5c.71 5.47 1.01 10.94 1.29 16.44l.21 3.13c.32 6.56-.14 11.94-2.96 17.93l-1.13 2.59C613 704 613 704 609.96 704.63h-3.77l-2.09.02q-3.4.02-6.82-.02l-4.74.01q-4.96 0-9.94-.04a902 902 0 0 0-12.74-.01q-4.89.01-9.79-.02l-4.7.01q-3.27 0-6.56-.05l-3.77-.02c-3.04-.51-3.04-.51-4.95-2.39-2.44-4.75-.83-10.64.63-15.56 2.06-5.12 5.02-8.93 8.79-12.93C551 672 551 672 552 670l-3.06 1.38c-13.86 5.9-36.53 8.13-50.94 2.62-4.6-2.29-8.15-4.61-9.92-9.59-.93-6.57.19-11.93 3.92-17.41 4.65-5.55 9.5-9.81 16-13l4-2c-7.37-6.51-7.37-6.51-10.81-9.19C499 621 499 621 497.5 618.94c-1.5-1.94-1.5-1.94-3.81-3.25-3.09-1.94-4.93-4.14-7.23-6.94-1.46-1.75-1.46-1.75-3.9-4.19C464.83 586.83 446.45 559.3 443 534l-1-3.5a86 86 0 0 1-2.5-13.69C439 513 439 513 438 510c-.11-4.54.1-9.08.25-13.62l.08-3.78c.23-7.06.93-13.08 3.67-19.6l1.31-3.5c4.34-9 10.16-17.56 19.75-21.44 7.69-2.17 17.68-2.54 24.94.94l-.94-2.25c-1.74-6.14-2.1-12.5-2.02-18.87-.04-2.88-.04-2.88-.53-4.76-2.43-10.06-.42-22.16 1.49-32.12l.73-4.04q1.1-6 2.27-11.96l.5-2.66c.97-4.87 2.58-9.24 4.5-13.81a69 69 0 0 0 2.38-7.41c1.45-5.09 3.74-9.59 6.22-14.26A65 65 0 0 0 506 328q1.47-2.51 3-5l2.31-4.62a253 253 0 0 1 5.69-10.82c2.54-4.61 4.77-9.3 6.9-14.11q1.35-2.98 2.85-5.89A27 27 0 0 0 529 281l1-2.75c1.17-3.79 1.59-7.31 2-11.25-7.2-5.52-7.2-5.52-10.81-7.69A23 23 0 0 1 516 255l-2.69-2.06L511 251v-2l-1.81-.72c-6.96-4.06-10-14.96-12.19-22.28-.99-4.11-1.18-8.05-1.28-12.28l-.06-2.09-.16-6.57-.22-8.65-.09-3.87c-.19-3.54-.19-3.54-.7-6.44-.64-4.07-.59-8.02-.55-12.14l.02-5.36.02-2.81c.09-13.99.09-27.93-.76-41.91-.24-4.15-.24-8.26-.19-12.42-.05-3.83-.45-7.63-.81-11.45-.29-3.95-.25-7.87-.16-11.83C492 86 492 86 491 84a104 104 0 0 1-.06-5.3l.02-3.21.08-6.7.02-3.22.04-2.94c-.09-2.4-.51-4.33-1.1-6.63.17-2.66.41-5.24.75-7.88l.23-2.1c.84-6.8 3.36-11.93 8.02-17.02 4.83-3.71 9.43-6.19 15.62-5.73 6.85 1.73 11.8 4.21 16.79 9.2 1.99 1.91 4.03 2.55 6.59 3.53q1.75 1.42 3.44 2.94a27 27 0 0 0 6.44 4.5c3.61 1.8 6.47 4.08 9.62 6.59Q566.93 57.46 577 64c5.89 3.89 5.89 3.89 7 5q2.46.09 4.92.02l3.19-.06 3.51-.08 3.63-.07 11.63-.25a4252 4252 0 0 1 18.82-.39q9.49-.2 18.96-.07l3.71.06q3.48.05 6.95.16c6.56.1 10.33-.45 15.68-4.32l2.17-1.49 1.8-1.39 2.04-1.54 2.05-1.58c4.56-3.49 9.14-6.84 13.94-10a308 308 0 0 0 4.06-3.06 66 66 0 0 1 6.38-4.38 72 72 0 0 0 7.06-5.06A71 71 0 0 1 724 29a79 79 0 0 0 8.44-5.62c7.87-5.61 17.46-3.35 24.56 2.62" fill="#141715"/><path d="M918 443c20.99 10.3 33.91 26.17 42 48l1.09 2.9c4.08 13.95 3.74 32.49-1.09 46.1l-1.07 3.37C950.3 569.42 932.26 590.22 908 603c-11.27 5.62-22.45 10.32-34.75 13.12l-2.09.49c-14.24 3.08-28.27 3.83-42.78 3.83h-2.85C773.4 620.4 773.4 620.4 762 609l2.16-2.04c3.15-3.16 5.73-6.66 8.34-10.27l1.46-2.03c5.3-7.36 9.53-13.86 12.04-22.66l1 2c2.27.53 2.27.53 5.38.94l3.58.49 1.98.26q3.19.49 6.38 1.1c30.49 5.61 63.94 2.37 90.38-14.9 12.92-9.06 23.11-23.3 26.3-38.89 1.12-8.98 1.21-18.8-3-27l-1.18-2.47c-3.68-6.9-8.53-11.03-14.82-15.53-15.48-11.26-15.48-11.26-18-20-.64-4.99-.57-8.77 1.56-13.38 9.78-10.52 20.66-7.13 32.44-1.62" fill="#121413"/><path d="M757 26c6.14 6.24 7.04 14.16 7.19 22.62C764 52 764 52 763 53q-.23 3.36-.32 6.74l-.06 2.19q-.1 3.69-.18 7.39l-.07 2.62c-.64 26.99-.44 54-.37 81l.06 27.52.03 10.92.01 6.58.01 3.06v2.76l.01 2.41C762 208 762 208 761 209c-.03 2.98.07 5.94.16 8.92-.17 3.19-.89 5.18-2.16 8.08l-.46 2.48c-1.75 8.17-7.56 15.86-13.54 21.52a97 97 0 0 1-5 3l-1.62 2.19L737 257h-3l-.62 1.75c-1.88 3.07-4.37 4.32-7.38 6.25-3.13 2.4-3.93 3.45-4.46 7.43a464 464 0 0 1 .12 7.75A47 47 0 0 0 724 291l.71 2.34A145 145 0 0 0 731 309l2.06 4.69q1.62 3.67 3.44 7.25c3.22 6.56 5.7 13.32 7.69 20.35q1.05 3.48 2.24 6.92c1.58 4.74 2.93 9.52 4.19 14.35l.66 2.42c1.32 5.01 2.14 9.87 2.72 15.02q.46 2 1 4c2.82 21.12 3.03 42.08-1 63l2.31-.91c10.38-3.82 17.54-3.25 27.69.91a26 26 0 0 1 7 5l2.81 2c4.22 3.49 6 8.1 8.19 13l1.16 2.23c2.69 5.3 3.39 10.05 3.66 15.97.18 2.8.18 2.8.69 5.1.7 3.87.63 7.66.61 11.58l.02 2.35A83 83 0 0 1 807 518l-.5 3.03-.5 2.91c-.59 3.49-1.13 6.97-1.5 10.5A32 32 0 0 1 802 543l-.44 2.88c-.66 3.67-2.05 6.71-3.56 10.12l-.43 1.88c-.72 2.66-1.88 4.92-3.13 7.37l-1.38 2.7L792 570c22.55 11.27 56.8 8.11 80 .62a76 76 0 0 0 16-7.62l3-1.88 3-2.12 2.16-1.52A51 51 0 0 0 909 544l2.25-3.12A35 35 0 0 0 915 532l1.56-4.62c3.94-11.62 3.01-21.47-2-32.57-3.21-5.79-5.82-9.36-11.56-12.81-3.06-1.96-5.67-3.64-8.12-6.31L893 474c-2.25.25-2.25.25-4 1l-4-6 1-2-1.94-.69C882 465 882 465 881.31 462.62L881 460l-.5-2-.5-2-.75-2.44c-.41-4.15 2.12-6.72 4.55-9.95 6.87-8.09 6.87-8.09 13.2-8.61 11.02.26 19.63 4.73 29 10l3.07 1.66c11.9 6.91 19.84 17.82 26.93 29.34l1.59 2.55c7.35 12.78 8.47 26.28 8.6 40.7l.04 2.62c0 4.82-.46 8.58-2.23 13.13l-.48 2.44a68 68 0 0 1-2.9 9.5l-1.27 3.59A100 100 0 0 1 947 573h-2l-.8 1.79a23 23 0 0 1-4.32 5.6l-1.88 1.89-2 1.97-2.05 2.03c-7.64 7.48-15.33 13.97-24.95 18.72l-3.37 1.68A152 152 0 0 1 875 618l-2.81 1a58 58 0 0 1-10.19 2l-2 .5c-2.97.74-5.97 1.09-9 1.5l-3.28.52c-3.67.47-7.17.61-10.86.61l-3.99.01-2.05-.01q-3.12-.01-6.23.01l-3.98-.01h-3.63C814 624 814 624 811 623q-2.5-.26-5-.44c-4.89-.4-9.62-1.16-14.43-2.09-2.3-.42-4.56-.72-6.88-.97A49 49 0 0 1 775 617l-3.5-.5a45 45 0 0 1-9.5-2.5c-2.22 2.06-3.91 3.83-5.38 6.5-1.62 2.5-1.62 2.5-4.56 4.44-3.56 2.4-4.9 4.41-7.06 8.06l2 .56c6.48 3.11 13.15 9 15.94 15.69 1.94 5.69 2.52 9.89 1.06 15.75-2.98 5.65-6.08 7.97-12.02 10.06-4.76 1.32-9.5 1.28-14.42 1.25l-2.93-.01c-13.1-.21-24.75-2.58-36.63-8.3l-2.07-.99q-1.98-.98-3.93-2.01c4.54 3.79 4.54 3.79 7 4.94 5.38 2.85 10.01 8.51 12.19 14.12 1.36 5.59 3.08 12.89.83 18.3L711 704l-4-1 2-3c1.55-8.69-1.09-15.87-6-23-4.28-4.39-9.32-6.87-15-9l1-9 2.64 1.61c10.81 6.46 21.67 11.51 34.51 11.52l3.55.01 3.68-.02 3.65.02c16.85-.02 16.85-.02 21.97-5.14a27.2 27.2 0 0 0-.84-19.12c-4.35-7.04-11.84-10.63-19.16-13.88a70 70 0 0 1 10.83-10.98c2.49-2.32 4.48-4.87 6.61-7.52 3.86-4.3 3.86-4.3 6.53-5.05 2.49.22 4.64.83 7.03 1.55l7.88 1.88 2.09.5a184 184 0 0 0 44.68 5.01q4.07-.01 8.15.02c17.41.02 34.65-1.77 51.2-7.41l1.9-.64c15.19-5.15 28.68-12.11 41.1-22.36l3.02-2.45c17.46-14.71 28.05-36.28 31.98-58.55.21-3.73.19-7.45.19-11.19l.03-3c.04-20.47-8.3-39.86-22.22-54.81-10.36-9.99-25.37-19.71-40.12-20.44-5.03.17-7.87 1.41-11.88 4.44-3.41 3.74-3.52 7.58-3.34 12.45 1.08 8.07 6.35 13.44 12.34 18.55 3.9 2.89 7.92 5.6 11.95 8.31 6.31 4.76 10.6 12.52 12.72 20.07 2.03 15.99-.31 29.5-9.73 42.74A187 187 0 0 1 908 550l-2.38 3c-15.21 17.43-39.94 25.23-62.38 26.87A165 165 0 0 1 788 574c.6-4.68 1.91-8.54 3.75-12.88 11.67-28.66 18.83-64.51 6.66-94.14-4.35-9.22-11.12-14.88-20.41-18.98-3.07-.41-6.15-.32-9.25-.31l-2.49-.05c-5.75-.01-9.99 1.06-15.26 3.36a87 87 0 0 1 .71-13.78c3.02-22.01 1.27-43.46-2.71-65.22l-.44-2.51c-3.92-22.14-12.87-42.78-22.4-62.99-4.16-8.95-7.18-17.62-8.16-27.5l-.36-3.21c-.48-7.5-.48-7.5 1.54-10.59A42 42 0 0 1 725 261a510 510 0 0 0 8.16-5.87c11.63-8.71 20.32-19.09 23.37-33.66.61-4.48.69-8.9.75-13.42l.06-3.07.16-10.23.12-7.35.38-25.4.03-2.42q.47-32.7.81-65.41.13-12.86.37-25.71.12-6.38.19-12.76.03-2.78.11-5.56c.39-14.91.39-14.91-3.22-20.13-3.9-4.06-7.8-5.31-13.35-5.57-7.23.19-12.17 3.51-17.94 7.56l-2.06 1.45a893 893 0 0 0-13.79 9.97q-4.52 3.3-9.09 6.52c-6.64 4.72-13.2 9.56-19.75 14.42l-2.35 1.73-2.1 1.56c-3.33 2.42-5.2 3.6-9.3 3.67l-2.73.06-2.98.03-3.11.06q-8.55.15-17.09.24l-3.51.04-7.04.08q-10.51.14-21.01.72c-16.41.81-28.7.94-41.68-10.55l-2.18-2.02c-3.82-3.4-8.07-6.17-12.29-9.04l-4.95-3.46q-7.66-5.36-15.37-10.67l-2.35-1.64c-7.8-5.35-13.61-8.42-23.27-7.17-5.35 1.74-8.35 5.12-11 10-5 15.1-1.14 37.32-.19 53.12a1163 1163 0 0 1 1.81 52.7q.24 13.44.43 26.88.15 10.16.33 20.3.09 4.68.14 9.36c.3 18.41 1.72 35.19 15.43 48.84 5.51 5.2 11.58 10.12 18.41 13.42 2.64 2.38 2.64 2.38 3.12 4.56.18 5.91-1.07 10.87-3.36 16.26l-1.01 2.48c-3.87 9.07-8.5 17.78-13.05 26.52-8.82 16.94-16.69 33.6-22.44 51.87l-.97 3.11a133 133 0 0 0-5.93 41.4q.04 3.46.05 6.93c.06 12.15.77 24.18 2.23 36.25l-2.05-.44c-10.57-2.1-19.24-2.93-28.95 2.44-9.78 6.56-14.36 15.88-16.87 27.14-6.72 34.63 6.25 72.52 25.11 101.32 6.33 9.37 13.88 17.46 21.76 25.54l2.73 2.85a167 167 0 0 0 15.71 14.1c3.25 2.61 6.41 5.32 9.56 8.05-2.41 2.41-4.51 3.09-7.69 4.31-8.57 3.55-13.51 6.38-17.43 15.06a20.8 20.8 0 0 0 .12 14.51c4.53 4.81 10.37 5.32 16.67 5.52q3.75.01 7.52-.02l3.75.03c10.94-.03 21.03-1.85 31.12-6.1 3.78-1.58 5.79-2.31 9.94-2.31-.47 4.55-.47 4.55-2.86 6.55l-2.33 1.33c-6.05 3.74-10.73 8.15-12.81 15.12a86 86 0 0 0-.12 8.81l.02 2.39.1 5.8c-3-1-3-1-5-4-.47-9.53 2.48-17.35 8.69-24.44l1.82-1.93C551 672 551 672 552 670l-3.06 1.38c-13.86 5.9-36.53 8.13-50.94 2.62-4.6-2.29-8.15-4.61-9.92-9.59-.93-6.57.19-11.93 3.92-17.41 4.65-5.55 9.5-9.81 16-13l4-2c-7.37-6.51-7.37-6.51-10.81-9.19C499 621 499 621 497.5 618.94c-1.5-1.94-1.5-1.94-3.81-3.25-3.09-1.94-4.93-4.14-7.23-6.94-1.46-1.75-1.46-1.75-3.9-4.19C464.83 586.83 446.45 559.3 443 534l-1-3.5a86 86 0 0 1-2.5-13.69C439 513 439 513 438 510c-.11-4.54.1-9.08.25-13.62l.08-3.78c.23-7.06.93-13.08 3.67-19.6l1.31-3.5c4.34-9 10.16-17.56 19.75-21.44 7.69-2.17 17.68-2.54 24.94.94l-.94-2.25c-1.74-6.14-2.1-12.5-2.02-18.87-.04-2.88-.04-2.88-.53-4.76-2.43-10.06-.42-22.16 1.49-32.12l.73-4.04q1.1-6 2.27-11.96l.5-2.66c.97-4.87 2.58-9.24 4.5-13.81a69 69 0 0 0 2.38-7.41c1.45-5.09 3.74-9.59 6.22-14.26A65 65 0 0 0 506 328q1.47-2.51 3-5l2.31-4.62a253 253 0 0 1 5.69-10.82c2.54-4.61 4.77-9.3 6.9-14.11q1.35-2.98 2.85-5.89A27 27 0 0 0 529 281l1-2.75c1.17-3.79 1.59-7.31 2-11.25-7.2-5.52-7.2-5.52-10.81-7.69A23 23 0 0 1 516 255l-2.69-2.06L511 251v-2l-1.81-.72c-6.96-4.06-10-14.96-12.19-22.28-.99-4.11-1.18-8.05-1.28-12.28l-.06-2.09-.16-6.57-.22-8.65-.09-3.87c-.19-3.54-.19-3.54-.7-6.44-.64-4.07-.59-8.02-.55-12.14l.02-5.36.02-2.81c.09-13.99.09-27.93-.76-41.91-.24-4.15-.24-8.26-.19-12.42-.05-3.83-.45-7.63-.81-11.45-.29-3.95-.25-7.87-.16-11.83C492 86 492 86 491 84a104 104 0 0 1-.06-5.3l.02-3.21.08-6.7.02-3.22.04-2.94c-.09-2.4-.51-4.33-1.1-6.63.17-2.66.41-5.24.75-7.88l.23-2.1c.84-6.8 3.36-11.93 8.02-17.02 4.83-3.71 9.43-6.19 15.62-5.73 6.85 1.73 11.8 4.21 16.79 9.2 1.99 1.91 4.03 2.55 6.59 3.53q1.75 1.42 3.44 2.94a27 27 0 0 0 6.44 4.5c3.61 1.8 6.47 4.08 9.62 6.59Q566.93 57.46 577 64c5.89 3.89 5.89 3.89 7 5q2.46.09 4.92.02l3.19-.06 3.51-.08 3.63-.07 11.63-.25a4252 4252 0 0 1 18.82-.39q9.49-.2 18.96-.07l3.71.06q3.48.05 6.95.16c6.56.1 10.33-.45 15.68-4.32l2.17-1.49 1.8-1.39 2.04-1.54 2.05-1.58c4.56-3.49 9.14-6.84 13.94-10a308 308 0 0 0 4.06-3.06 66 66 0 0 1 6.38-4.38 72 72 0 0 0 7.06-5.06A71 71 0 0 1 724 29a79 79 0 0 0 8.44-5.62c7.87-5.61 17.46-3.35 24.56 2.62" fill="#E3E4E4"/><path d="M577 492a112 112 0 0 1 10.62 9.88c8.82 8.92 22.97 17.55 35.78 18.26 15.97-.84 29.23-9.1 40.77-19.5 2.55-2.29 5.19-4.46 7.83-6.64-.43 9.83-6.54 17.31-13.43 23.89A60 60 0 0 1 638 529l.4 2.61c2.68 18.48 2.79 37 2.79 55.64l.03 10.96c.04 16.69-.8 33.16-2.22 49.79l-6.68.09-5.11.09A46 46 0 0 1 612 646c-10.68-21.37-3.68-64.68-2.12-88.69l.23-3.7c.62-8.59 1.67-17.08 2.89-25.61l-3.3-.38c-4.3-.72-6.8-2.42-10.08-5.12l-1.69-1.37c-8.83-7.2-16.18-14.57-20.93-25.13z" fill="#000"/><path d="M626.38 199.75c4.9.34 8.59 1.85 12.62 4.62 1 1.63 1 1.63 1 3.94-1.5 4.05-4.04 7.71-8 9.69-.63 1.85-.63 1.85-1.12 4.06l-.51 2.23L630 226c-6.42.36-6.42.36-8.87-1.19-1.13-1.81-1.13-1.81-1.5-4.25-.87-3.52-2.76-4.46-5.63-6.56-2.17-3.27-2.73-4.21-2-8 4.67-4.78 7.77-5.76 14.38-6.25" fill="#616360"/><path d="M962 528c2 3 2 3 3 6-.79 2.75-.79 2.75-2 6l-1.18 3.44-1.26 3.56-1.24 3.56A98 98 0 0 1 947 573h-2l-.8 1.79a23 23 0 0 1-4.32 5.6l-1.88 1.89-2 1.97-2.05 2.03c-7.64 7.48-15.33 13.97-24.95 18.72l-3.37 1.68A152 152 0 0 1 875 618l-2.81 1a58 58 0 0 1-10.19 2l-2 .5c-5.01 1.25-8.99 1.52-14 .5q-3.2-.21-6.39-.32l-3.65-.12-3.77-.12-3.84-.13L819 621v-1l2.42-.04c21.25-.44 42.25-1.04 62.58-7.96l1.9-.64c15.19-5.15 28.68-12.11 41.1-22.36l3.02-2.45C947.63 571.7 957.76 550.34 962 528" fill="#E1E3E5"/><path d="m613 647 25 1-1 12c-.22 4.85-.27 9.7-.31 14.56l-.09 3.75c-.07 9.64 1.22 18.01 7.4 25.69-3.31-.28-4.74-.76-7.19-3.06-6.82-11.06-5.38-26.58-3.25-38.79.44-3.15.44-3.15.44-6.42 0-2.73 0-2.73 1-4.73l-2.69.56c-3.25.43-5.15.13-8.31-.56a182 182 0 0 0-7 0 67 67 0 0 0 .46 10.5c.71 5.47 1.01 10.94 1.29 16.44l.21 3.13c.4 8.07-.56 16.49-5.96 22.93-2.69.31-2.69.31-5 0l1.81-2.44c4.79-7.27 5.66-14.71 5.5-23.25l-.02-2.91c-.11-6.63-.68-13-1.85-19.52C613 653 613 653 613 647" fill="#EDEEED"/><path d="M761 39h2c1.1 4.42 1.15 8.47 1 13l-1 1q-.23 3.36-.31 6.74l-.07 2.19-.18 7.38-.06 2.63c-.61 25.7-.49 51.41-.45 77.12l.02 20.01L762 208l-2 1c-1.1-69.26-1.1-69.26-1.12-103.88l-.01-3.31c-.04-20.94.32-41.94 2.13-62.81" fill="#E8EBE9"/><path d="M486 430h2l1.5 8.75.43 2.5.41 2.42.38 2.22C491 448 491 448 491 452l-2.05-.44c-10.57-2.1-19.24-2.93-28.95 2.44-10.11 6.78-14.94 16.83-17.25 28.51-1.92 11.95-1.62 24.42-1.75 36.49-4-7.21-3.02-14.76-2.75-22.75l.08-3.75c.23-7.03.95-13.01 3.67-19.5l1.31-3.5c4.34-9 10.16-17.56 19.75-21.44 7.69-2.17 17.68-2.54 24.94.94l-.94-2.25c-1.46-5.17-1.95-10.38-2.06-15.75z" fill="#E3E4E6"/><path d="m786 572 1 2q3.49.61 7 1l-1.89.18c-2.11.82-2.11.82-3.16 3.11l-.7 2.77-.73 2.79L787 586h-2l-.33 2.66c-1.58 7.85-6.48 14.41-11.67 20.34l-1 3 3 1c-9.59-.59-9.59-.59-13-4l2.16-2.04c3.15-3.16 5.73-6.66 8.34-10.27l1.46-2.03c5.3-7.36 9.53-13.86 12.04-22.66" fill="#010201"/><path d="m689 659 2.64 1.61c10.55 6.3 21.18 11.2 33.66 11.71l2.96.12 6.16.25 7.58.31v1l-2.23.18-2.96.26-2.92.24c-2.89.32-2.89.32-5.28.93-3.53.53-6.71-.06-10.17-.73l-2.13-.41c-6.48-1.34-12.35-3.6-18.31-6.47l-2.07-.99q-1.98-.98-3.93-2.01c4.54 3.79 4.54 3.79 7 4.94 5.38 2.85 10.01 8.51 12.19 14.12 1.36 5.59 3.08 12.89.83 18.3L711 704l-4-1 2-3c1.55-8.69-1.09-15.87-6-23-4.28-4.39-9.32-6.87-15-9z" fill="#DEDFE0"/><path d="M768 613c9.09.87 18.01 2.54 26.99 4.18 12.75 2.27 25.39 2.95 38.32 3.38l3.73.13 8.96.31v2c-2.89 1.45-5.42 1.13-8.65 1.13l-1.99.01-4.16-.01-6.37.01-4.04-.01h-3.73C814 624 814 624 811 623q-2.5-.26-5-.44c-4.89-.4-9.62-1.16-14.43-2.09-2.3-.42-4.56-.72-6.88-.97A49 49 0 0 1 775 617a166 166 0 0 0-7-1z" fill="#E6E8E9"/><path d="m798 545 3 1a40 40 0 0 1-3 11l-.88 2.25c-1.61 3.96-3.37 7.85-5.12 11.75a167 167 0 0 0 17.17 3.54q3.92.65 7.83 1.46v1l26 1c-2.86 2.86-5.11 2.29-9.03 2.33l-2.91-.02-2.98-.01c-13.66-.2-26.94-2.6-40.08-6.3.6-4.79 2.02-8.95 3.88-13.38l1.62-3.96L795 553a484 484 0 0 0 3-8" fill="#DEDEE1"/><path d="M493 44h1l.06 2.32.32 11.24.06 2.14q.36 13 1.07 25.98l.14 2.45.27 4.91A765 765 0 0 1 497 147h-1l-1-6h-1c-1.08-20.65-1.08-20.65-.97-29.54-.05-3.83-.45-7.63-.81-11.45-.29-3.95-.25-7.87-.16-11.83C492 86 492 86 491 84q.08-4.47.34-8.95l.14-2.68.46-8.49.3-5.76z" fill="#DCDBDD"/><path d="M496 353c1.56 2.42 2.07 3.57 1.62 6.47l-.89 2.75-.94 3.08-1.04 3.2c-5.11 16.07-6.02 30.49-5.87 47.25l.02 6.2q.03 7.52.1 15.05h-1v-7h-2c-3.7-12.71-2.46-26.17 0-39l.73-4.04q1.1-6 2.27-11.96l.5-2.66c.99-4.98 2.63-9.5 4.6-14.18q1.04-2.54 1.9-5.16" fill="#C7C7CA"/><path d="m688.75 180.5 2.9-.06c7.15.07 14.67 1.18 20.13 6.19L713 188l-1 2-1.98-.84-2.65-1.1-2.6-1.09c-12.77-4.48-29.48-3-41.58 2.79q-3.68 1.84-7.29 3.81C653 195 653 195 650 195v-3h4v-2c10.99-7.09 21.87-9.35 34.75-9.5" fill="#030503"/><path d="M562 664c-.47 4.55-.47 4.55-2.86 6.55l-2.33 1.33c-6.05 3.74-10.73 8.15-12.81 15.12a86 86 0 0 0-.12 8.81l.02 2.39.1 5.8c-3-1-3-1-5-4-.47-9.53 2.48-17.35 8.69-24.44l1.82-1.93C551 672 551 672 552 670l-3.12 1.38A108 108 0 0 1 539 675v-2l-2-2 3.19-.69c5.14-1.26 9.96-3.28 14.86-5.29C558 664 558 664 562 664" fill="#DEDFE1"/><path d="M885 614c-4.07 4.07-10.14 4.46-15.61 5.49-2.39.51-2.39.51-5.64 1.63-3.06.98-5.55.95-8.75.88l-2.06.56c-1.94.44-1.94.44-4.16-.01a56 56 0 0 0-9.17-.87l-3.65-.12-7.61-.25L819 621v-1l2.42-.04c19.7-.4 39.36-.88 58.4-6.51C882 613 882 613 885 614" fill="#D8DAD9"/><path d="M495 118h1c1.32 26.66 1.1 53.32 1 80h-1a134 134 0 0 1-2.09-23.53l.01-2.45c.07-10.73.33-21.47.58-32.21l.14-6.39z" fill="#F0F2F0"/><path d="M449 460h2a45 45 0 0 1-3.94 9.5c-5.43 10.76-5.55 23.09-5.75 34.88l-.1 4.28q-.12 5.17-.21 10.34c-4-7.21-3.02-14.76-2.75-22.75l.08-3.75c.23-7.02.94-13.01 3.67-19.5l1.44-3.69A50 50 0 0 1 449 460" fill="#EAECEC"/><path d="M772 444c7.93 1.07 13.24 2.24 19 8l2.81 2c6.57 5.46 8.76 13.92 10.19 22l-2 1-.88-2.56c-4.15-11.48-8.43-18.34-19.12-24.44l-1.79-1.12c-3.24-1.29-6.52-1.35-9.96-1.5l-2.11-.12L763 447v-1l9-1z" fill="#E2E3E5"/><path d="M761 39h2c1.1 4.42 1.15 8.47 1 13l-1 1q-.2 4.37-.25 8.74l-.1 5.42-.13 8.58-.14 8.25-.03 2.6-.05 2.41-.03 2.13C762 93 762 93 760 96l-.05-17.6-.03-5.97c-.04-11.2.02-22.28 1.08-33.43" fill="#EFF2F0"/><path d="M763.57 610.59a30 30 0 0 1 6.43 1.4c-2.17 2.19-3.07 2.48-6 3h-3c-2.05 1.63-3.07 3.14-4.31 5.45-1.69 2.56-1.69 2.56-4.63 4.5-3.56 2.4-4.9 4.4-7.06 8.06l5 2-1 2c-3.72-.5-6.73-1.11-10-3a70 70 0 0 1 10.83-10.98c2.49-2.31 4.48-4.86 6.61-7.52 3.79-4.37 3.79-4.37 7.13-4.91" fill="#EBEDEB"/><path d="m616 665 2 1q.38 5.71.69 11.44l.22 3.24c.43 8.24-.38 16.73-5.91 23.32-2.69.31-2.69.31-5 0l1.81-2.44c5.13-7.81 5.68-15.99 5.88-25.12l.1-3.35q.12-4.04.21-8.09" fill="#EBEBED"/><path d="m752 380 3 1-.06 3.19c.06 3.81.06 3.81.53 6.07.67 3.44.89 6.87 1.09 10.36l.13 2.14c.92 16.89.92 16.89-1.69 24.24h-1l-.08-2.43-.36-11.01-.12-3.82A233 233 0 0 0 752 390q-.1-2.78-.06-5.56l.02-2.57z" fill="#F0F2EF"/><path d="M633 669c3.41 3.54 3.39 6.89 3.44 11.56.31 8.76 1.95 16.46 7.56 23.44-3.31-.28-4.74-.76-7.19-3.06-5.1-8.27-5.14-19.46-4.81-28.94z" fill="#D4D4D6"/><path d="M867 573v2c-13.08 4.79-26.68 4.13-40.38 3.56l-4.28-.16q-5.17-.18-10.34-.4v-1c7.48-.63 14.85-1.05 22.35-.92 9.07.16 17.46-.58 26.34-2.42C864 573 864 573 867 573" fill="#EBEBEC"/><path d="M742 343c1.87.54 1.87.54 4 2a56 56 0 0 1 2.06 7.44l.99 4.36.48 2.17a163 163 0 0 0 2.16 8.15c2.91 10.69 2.91 10.69.31 15.88h-1l-.29-1.66c-1.98-11.28-4.32-22.23-7.76-33.16C742 345 742 345 742 343" fill="#E4E5E4"/><path d="m804 475 2 1c.38 2.55.38 2.55.56 5.75.36 5.88.36 5.88.96 8.57.71 3.95.62 7.86.6 11.87l.02 2.48c-.01 6.08-.01 6.08-1.14 8.33h-2l-.08-2-.36-9.19-.13-3.31c-.28-6.83-.68-13.61-1.34-20.4L803 476z" fill="#EFF2EF"/><path d="M495 93h1c1.07 18.01 1.11 35.97 1 54h-1l-1-6h-1q-.3-5-.56-10l-.17-2.83c-.3-5.59-.06-10.64.73-16.17q.36-5 .56-10l.13-2.64z" fill="#C3C3C3"/><path d="M920 518h1c1.13 10.96-3.64 20.42-10.38 28.88A232 232 0 0 1 907 551c-.64-1.82-.64-1.82-1-4a82 82 0 0 1 3.66-4.44c5.28-6.17 7.25-14.76 8.34-22.56z" fill="#E6E7EA"/><path d="m550 673 3 1-1.46 1.57-1.92 2.12-1.89 2.07c-3.99 5.17-3.99 9.79-3.85 16.05l.02 2.39.1 5.8c-3-1-3-1-5-4-.45-9.21 2.34-17.09 8.25-24.06q1.36-1.49 2.75-2.94" fill="#E0DFE6"/><path d="m754 24 2.69 1.81c3.41 3.23 4.84 6.79 6.31 11.19l-1 2a213 213 0 0 0-.56 7.12l-.26 3.89L761 53h-1l-.01-3.66c-.28-15.73-.28-15.73-5.39-21.06-4.64-3.71-9.86-3.81-15.6-4.28v-1c5.96-1.84 9.55-2.71 15 1" fill="#E0E2E1"/><path d="M699 672c4.53 1.92 8.67 4.5 11.02 8.91 2.29 6.21 4.63 15.16 1.99 21.45L711 704l-4-1 2-3c1.57-8.81-1.39-15.62-6-23q-1.95-2.54-4-5" fill="#E7E8E9"/><path d="m815 575 2 2c2.61.32 2.61.32 5.88.41l3.54.12 3.7.09 3.74.12q4.56.14 9.14.26c-2.86 2.86-5.11 2.29-9.04 2.33l-2.9-.02h-2.95c-9.56-.13-18.75-1.49-28.11-3.31v-1c5.13-2.24 9.62-2.33 15-1" fill="#C6C6C7"/><path d="M817 621h29v2c-3.98 1.99-9 1.23-13.38 1.25l-3.19.06-3.08.02-2.82.03C821 624 821 624 817 621" fill="#F2F4F4"/><path d="M758 35h2v45h-1l-.08-2.09q-.17-4.74-.36-9.47l-.12-3.29A139 139 0 0 0 757 49a100 100 0 0 1-.12-5.19l-.01-2.48c.12-2.24.51-4.18 1.13-6.33" fill="#292C2A"/><path d="m493 650 2 1-.04 2.7-.02 3.55-.04 3.52A25 25 0 0 0 496 668l7 1-1 3c-4.84-.41-6.86-2.42-10-6-2.13-4.25-1.43-9.67 0-14.06z" fill="#282A2B"/><path d="M768 613c8.45.75 16.69 2.38 25 4-3.05 2.63-3.62 3.02-7.88 2.81A64 64 0 0 1 775 617a166 166 0 0 0-7-1z" fill="#ECEEEE"/><path d="M540 672c-1.68 2.14-2.74 2.94-5.41 3.59-4.99.57-9.94.51-14.97.47l-3.09-.01L509 676v-2l11-1 3.12-.29c5.65-.5 11.2-.82 16.88-.71" fill="#EBEBEC"/><path d="m488 451 2 4-11-2v-2h-10v2l-7 2c.62-1.88.62-1.88 2-4 7.3-3.65 16.52-2.67 24 0" fill="#1D1E1F"/><path d="M882 448h1l.33 1.91A80 80 0 0 0 888 466l-4 1c-3.13-3.39-3.09-5.51-3-10q-.98-2.01-2-4l1-3h2z" fill="#E7E5EB"/><path d="m908 602 2 1a19 19 0 0 1-7.05 5.01l-2.37 1.05-2.46 1.06-2.43 1.09c-3.87 1.71-7.47 3.23-11.69 3.79v-3l3.22-1.17c12.88-4.74 12.88-4.74 17.66-7.27z" fill="#E0E2E2"/><path d="m491 664 1.5 2.31c5.19 5.58 11.78 6.04 19.02 6.31l2.98.07 3.07.1q3.72.12 7.43.21v1q-5.53.38-11.06.69l-3.15.22c-7.53.4-11.68-.59-18.23-4.29-1.56-1.62-1.56-1.62-1.81-4.31z" fill="#D8DADB"/><path d="m498 641 2 1-1.24 1.57-1.64 2.12-1.61 2.07c-3.08 4.58-3.8 8.59-4.13 14.05l-.23 3.52L491 668c-2.85-2.85-2.78-5.35-3.09-9.27.2-6.2 3.06-10.95 7.34-15.29z" fill="#E9E9EB"/><path d="M485 401h2v24l-3-1-.06-9.81-.03-2.82-.01-2.7-.01-2.49C484 404 484 404 485 401" fill="#F1F1F3"/><path d="M441 507h1l1.5 9.75.43 2.79.41 2.69.38 2.48C445 527 445 527 445 531c-1.94-.5-1.94-.5-4-2-1.81-7.23-.67-14.66 0-22" fill="#D8DBD8"/><path d="M614 659h1c.99 6.54 1.12 12.9 1.06 19.5l-.01 3.07L616 689l-2-1q-.3-5.28-.56-10.56l-.17-3c-.27-5.32-.26-10.2.73-15.44" fill="#313130"/><path d="m857 619-3 4-3.12-.46c-6.27-.79-12.57-.9-18.88-1.1l-3.79-.13L819 621v-1l12.38-.43 4.2-.14c14.32-.5 14.32-.5 21.42-.43" fill="#A9AAAA"/><path d="m494 366 2 2c-.7 10.7-.7 10.7-4 14-.28 2.06-.45 4.12-.62 6.19L491 390l-2 1c.41-8.69 2.62-16.69 5-25" fill="#393A3D"/><path d="M645 68h25v3l-9.06.06-2.57.03c-4.91.02-9.53-.26-14.37-1.09z" fill="#EFEEF1"/><path d="M635 689h2l.77 2.27 2.06 5.93A25 25 0 0 0 644 704c-3.49-.29-4.76-.76-7.25-3.31-2.3-3.54-2.98-5.27-2.31-9.44z" fill="#D8D8DA"/><path d="M493 86c2.23 3.35 2.24 4.42 2.2 8.32l-.02 3.12-.06 3.25-.02 3.28-.1 8.03c-4.8-7.2-3.05-17.77-2-26" fill="#F1F0F0"/><path d="m746 627 1 3-2 3 5 2-1 2c-3.72-.51-6.73-1.12-10-3 4.75-5.88 4.75-5.88 7-7" fill="#E7E7E9"/><path d="M742 343c1.89.64 1.89.64 4 2a25 25 0 0 1 1.81 5.81l.77 3.15c.42 3.03.22 5.11-.58 8.04-2.85-2.85-3.16-6.19-4-10l-.57-2.53z" fill="#DFE1DF"/><path d="M492 40h2l-1 26h-1c-2.79-8.92-1.45-16.98 0-26" fill="#F1F1F3"/><path d="m715 672 27 1v1l-2.23.18-2.96.26-2.92.24c-2.89.32-2.89.32-5.46.91-2.68.45-4.49.22-7.12-.4l-2.32-.52C717 674 717 674 715 672" fill="#D4D5D3"/><path d="M772 444a486 486 0 0 1 8.3 1.27c2.84.77 3.97 1.39 5.7 3.73v2c-5.75-1.88-5.75-1.88-8-3a217 217 0 0 0-9.77-.69L763 447v-1l9-1z" fill="#DEDEE0"/><path d="m747 239 3 1-4.31 4.88-2.43 2.74C741 250 741 250 738 252l-1-3z" fill="#1C1D1F"/><path d="m509 328 2 2c-.13 5.63-2.91 9.51-6 14l-2-1c1.6-5.2 3.74-10.07 6-15" fill="#2B2B2E"/><path d="m532 274 2 1c-.68 4.18-2.01 7.88-3.56 11.81l-1.38 3.52L528 293c-2.08-3.66-2.08-3.66-1.38-6.69q2.58-6.2 5.38-12.31" fill="#E6E6E7"/><path d="m755 233 1 2c-1.29 2.5-1.29 2.5-3.19 5.44l-1.85 2.93A21 21 0 0 1 745 249c1.41-4.83 3.43-8.72 6-13h3z" fill="#E4E6E5"/><path d="m749 673 1 2a19 19 0 0 1-7.23 1.1l-2.43-.01-2.53-.03-2.56-.01L729 676c2.52-2.52 3.69-2.36 7.19-2.62l2.97-.23c3.29-.17 6.54-.22 9.84-.15" fill="#ECEDE9"/><path d="M486 430h2c.99 5.71 1.1 11.21 1 17-1.49-1.33-1.49-1.33-3-3-.12-2.75-.12-2.75 0-6l-.56-3.81L485 431z" fill="#EEEFF1"/><path d="m760 664 2 4c-2.45 3.67-5.12 5.06-9 7q-3.03-.91-6-2v-1l3.19-.25c4.13-.81 5.87-1.81 8.81-4.75z" fill="#E0E3DF"/><path d="m442 531 4 1c1.14 4.27 2 7.56 2 12l-3-1c-.7-1.96-.7-1.96-1.12-4.38A56 56 0 0 0 442 531" fill="#E7E8E7"/><path d="M920 518h1c.35 5.84.17 9.85-3 15-1.12-1.62-1.12-1.62-2-4 .81-3 .81-3 2-6l.56-2.31C919 519 919 519 920 518" fill="#ECEEF0"/><path d="M959 489c1.88.5 1.88.5 4 2 2 5.46 2.46 8.54 0 14h-1a376 376 0 0 1-3-16" fill="#DFDFE2"/><path d="M551 184v2l-4.75 1.94-2.67 1.09c-2.19.82-4.3 1.46-6.58 1.97 1.01-2.58 1.68-3.8 4.06-5.3l2.38-1.01 2.37-1.05C548 183 548 183 551 184" fill="#040603"/><path d="M815 575c2.56 2.06 2.56 2.06 4 4-6.57.25-12.57-.68-19-2v-1c5.15-2.25 9.62-2.46 15-1" fill="#D2D3D2"/><path d="M797 461c3.92 3.25 5.97 7.05 7 12-.43 2.25-.43 2.25-1 4-2.37-2.37-3-4.3-4.12-7.44l-1.08-2.93C797 464 797 464 797 461" fill="#DEE0DD"/><path d="m772 444 1 2-17 2v-2c5.73-2.3 9.94-3.64 16-2" fill="#EFEFF2"/><path d="M496 353c1.12 1.58 1.12 1.58 2 4-.68 3.23-.68 3.23-1.88 6.75l-1.17 3.55-.95 2.7c-1.61-1.68-1.61-1.68-3-4 .55-2.47.55-2.47 1.75-5.06l1.17-2.6L495 356z" fill="#DEDFE1"/><path d="M891 439c-1 3-1 3-2.94 4.56-3.1 3.67-3.38 7.78-4.06 12.44h-1l-.38-2.88C882 450 882 450 880 448q2.18-2.26 4.38-4.5l2.46-2.53C889 439 889 439 891 439" fill="#DCDCDF"/><path d="m501 346 2 1q-.14 2.16-.31 4.31l-.18 2.43c-.6 2.65-1.37 3.63-3.51 5.26h-2l2.25-8.4c.75-2.6.75-2.6 1.75-4.6" fill="#2B2C2D"/><path d="m793 571 3.25.94c2.03.57 4.06 1.13 6.13 1.56l1.62.5 1 2c-4.92.17-8.5.25-13-2z" fill="#F1F2F2"/><path d="M489 443h1l1 9-11-2 2-1 1-2 5 2z" fill="#CFD1CF"/><path d="M720 34v2c-2.12 1.73-2.12 1.73-4.88 3.62l-2.74 1.92C710 43 710 43 708 43c2.06-5.56 6.12-9 12-9" fill="#E1E1E4"/><path d="M962 528c2 3 2 3 3 6-.81 3.12-.81 3.12-2 6l-2 1c-1.12 2.06-1.12 2.06-2 4-1.38-2.76-.57-3.92.38-6.81A79 79 0 0 0 962 528" fill="#D5D7D8"/><path d="M492 368h1a71 71 0 0 1-3 16c-1.85-2.72-2-4.08-1.81-7.44A21 21 0 0 1 492 368" fill="#EAEBEF"/><path d="M902 478c4.51 2.46 8.19 5.6 12 9l-3 1-1.19-1.31C908 485 908 485 905.44 483.5 903 482 903 482 901 479z" fill="#DCDCDE"/><path d="M628 648h10l-1 12c-2.39-2.39-2.6-3.7-3-7l1-3-7-1z" fill="#DEE0DC"/><path d="M905 437v1q-3.43.58-6.88 1.12l-3.86.64-3.26.24-2-2c5.98-3.31 9.55-3.03 16-1" fill="#EEEEF1"/><path d="m646.63 68.94 2.48.59 1.9.47v1h-26v-1l3.2-.18q2.07-.14 4.16-.26l2.13-.11c11.3-.71 11.3-.71 12.13-.51" fill="#F6F6F9"/><path d="m516.06 24.31 2.72.8c2.22.9 2.22.9 3.22 2.9q-6.52-.92-13-2v-2c2.8-1.4 4.12-.59 7.06.3" fill="#ECECEF"/><path d="M485 605c4.27 1.58 6.27 4.51 9 8h-4c-5-5.23-5-5.23-5-8" fill="#D9DCDA"/><path d="M489 654h2v14c-2.46-2.46-2.39-3.59-2.69-7l-.26-2.69C488 656 488 656 489 654" fill="#EEF0F0"/><path d="m763.26 610.93 4.88.75 1.86.32c-2.18 2.18-3.07 2.47-6 3-3 0-3 0-6-1 1.72-2.17 2.42-2.98 5.26-3.07" fill="#DBDDDB"/><path d="M867 573v2c-4.5 1.76-8.18 2.19-13 2l1-2c1.96-.63 1.96-.63 4.38-1.12l2.39-.51C864 573 864 573 867 573" fill="#ECECED"/><path d="m514 318 2 1c-.5 4.4-2.09 6.71-5 10-1-3-1-3-.22-5.04l1.16-2.15 1.15-2.17z" fill="#2B2D2D"/><path d="M882 448h1v10l-4-3 1-5h2z" fill="#F7F5FB"/><path d="m631.63 648.44 3.03.3 2.35.26c-3.7 3.03-3.7 3.03-6.5 2.82A35 35 0 0 1 624 649c2.72-1.36 4.6-.88 7.62-.56" fill="#F3F7F3"/><path d="M801 535h1c.84 4.02 1.05 7.02 0 11h-3l.44-4.38.24-2.46C800 537 800 537 801 535" fill="#EEEEF0"/><path d="M688 57v2c-1.75 1.29-1.75 1.29-4 2.62l-2.25 1.36L680 64l-1-3c4.5-4 4.5-4 9-4" fill="#E0DFE3"/><path d="M498 30h2l-.81 1.5c-1.63 3.42-2.89 6.94-4.19 10.5l-2-2c.24-4.37 2.04-6.87 5-10" fill="#E2E0E3"/><path d="M804 509c2.2 4.4 2.52 7.19 3 12l-3 1z" fill="#E7EAE7"/><path d="m762 656 3 1-1 8-3 1z" fill="#F2F6F2"/><path d="M942 460c4.03 2.02 5.61 3.28 8 7l-1 4z" fill="#E1E1E1"/><path d="m503 29 2 3a104 104 0 0 1-9 5c1.91-3.54 3.63-5.79 7-8" fill="#1C1C1F"/><path d="m894 612-10 3v-3c5.5-2.25 5.5-2.25 10 0" fill="#D7DADB"/><path d="M918 598c-1 3-1 3-3.38 4.75C912 604 912 604 909 603c4.77-5 4.77-5 9-5" fill="#E9EAEB"/><path d="M789 568h2l.38 2.94.62 3.06 2 1-6-1z" fill="#D7D8D3"/><path d="M794 561c.69 1.69.69 1.69 1 4-1.44 2.75-1.44 2.75-3 5l-2-4z" fill="#EDEDEB"/><path d="M888 463c1.88.12 1.88.12 4 1a31 31 0 0 1 2 6c-2.47-1.15-4.05-2.05-6-4z" fill="#07080A"/><path d="m772 444 6 1-1 2h-14v-1l9-1z" fill="#C2C2C3"/><path d="m755 226 3 3c-.16 2.58-.8 3.75-2.44 5.75C754 236 754 236 752 236z" fill="#DADEDA"/><path d="M746 21v2l-10 1 1-3c3.38-.84 5.67-1.11 9 0" fill="#F1F2F3"/><path d="m746 627 1 3c-4.62 4-4.62 4-8 4 4.75-5.88 4.75-5.88 7-7" fill="#CBCCCC"/><path d="M798 616h10l1 2c-5.96 1.07-5.96 1.07-8 1z" fill="#1E1E20"/><path d="M885 614c-2.46 2.46-4.71 3-8 4v-4c3.29-.8 4.71-1.1 8 0" fill="#E6E8EA"/><path d="m479 598 7 6-1 2c-1.88-.62-1.88-.62-4-2-1.25-3.12-1.25-3.12-2-6" fill="#E6E8E7"/><path d="M452 556h2a54 54 0 0 1 3 6l-1 3c-2-1-2-1-3.12-3.38C452 559 452 559 452 556" fill="#D6D9D6"/><path d="M752 23c-3.17 1.91-5.11 2.16-8.75 1.62l-2.42-.33L739 24v-1q2.12-.58 4.25-1.12l2.39-.64c2.78-.28 4.02.31 6.36 1.76" fill="#CED1CF"/><path d="m758 662 2 3c-1.75 3.88-1.75 3.88-4 5l-2-2z" fill="#212420"/><path d="m798 545 3 1-1 6h-3z" fill="#E5E4E7"/><path d="m488 382 2 2c-.02 2.16-.02 2.16-.38 4.62l-.33 2.48-.29 1.9-2-2c.02-2.16.02-2.16.38-4.62l.33-2.48z" fill="#DFE1E3"/><path d="m742 343 4 2-1 7c-2.13-3.19-2.5-5.27-3-9" fill="#D2D5D4"/><path d="M733 317c2.58 1.29 3.07 2.3 4 5-.88 2.25-.88 2.25-2 4-1.56-2.81-1.56-2.81-3-6z" fill="#E3E4E4"/><path d="M758 212c2.13 3.19 2.5 5.27 3 9h-3z" fill="#EFF0F1"/><path d="m726 27 1 2-2-1zm-2 2 1 3-5 3-2-2z" fill="#E8EAED"/><path d="M638 698h2q2.09 2.94 4 6l-5-1z" fill="#E7E9E9"/><path d="M542 690h1l1 14-3-1z" fill="#B2B2B4"/><path d="m862 619-1 3-10-1v-1a51 51 0 0 1 11-1" fill="#F4F5F5"/><path d="m794 455 5 5-3 2c-1.56-1.81-1.56-1.81-3-4z" fill="#EDECEE"/><path d="m721 261 3 1-5 5-2-1c1.75-3.88 1.75-3.88 4-5" fill="#1D1E20"/><path d="m497 668 6 1-1 3-5-1z" fill="#232626"/><path d="M488 393h1l.44 2.31C490 398 490 398 491 401l-3 4z" fill="#383A3B"/><path d="m750 241 2 1-6 7c0-3.13.42-4.37 2-7z" fill="#EFEFF1"/><path d="M753 26c-3.12.97-5.52.99-8.75.56l-2.42-.31L740 26v-1c4.94-1.21 8.21-.63 13 1" fill="#1D1F1D"/><path d="m553 673 2 2-6 5c0-3 0-3 2-5.19z" fill="#141221"/><path d="m799 532 2 1-1 8-2-2c.38-3.62.38-3.62 1-7" fill="#26272A"/><path d="m880 466 3 3-3 2-2-3z" fill="#F3F3F7"/></svg>