<svg style="background:transparent" version="1.1" xmlns="http://www.w3.org/2000/svg" viewBox="0 0 1248 704"><path d="M982.38 99.79c26.83-1.14 52.58 12.87 71.88 30.44 6.31 6.4 12.8 13.65 16.74 21.77q1.38 2.05 2.81 4.07c5.64 8.4 8.75 17.18 11.2 26.93l1 3c2.3 18.34 2.3 18.34-2.69 25.32L1082 213l-1.38 2.82c-2.32 3.12-5.16 4.52-8.62 6.18l-2.57 1.25c-3.9 1.2-6.77 1.48-10.6-.2-13.95-7.43-21.27-19.86-26.08-34.73-4.42-12.5-11.85-24-23.88-30.25-10.89-4.91-22.99-6.72-34.75-4.25-8.93 3.39-16.4 7.1-23.3 13.68l-1.55 1.44q-2.14 2.01-4.27 4.06l-2.14 1.99c-2.23 2.4-3.78 4.92-5.43 7.76l-1.75 2.99a73 73 0 0 0-3.86 9.06c-1.58 4.25-3.4 8.4-5.2 12.58l-1.13 2.67c-6.6 15.42-15 26.72-26 39.25q-1.88 2.15-3.72 4.35c-3.04 3.6-5.6 6.04-9.77 8.35l-1.5 2c-1.87 2.5-3.8 3.45-6.5 5l-3.05 1.83-3.14 1.86-3.17 1.89C866 276 866 276 864 276a31 31 0 0 0 3.37 9.94l1.36 2.64L870 291c10.2 20.02 17 41.4 17 64l.5 3.88c.55 4.59.61 9.14.62 13.75l.02 2.17A93 93 0 0 1 887 388a131 131 0 0 0 0 5.94c.03 4.03-.13 7.87-.7 11.86a125 125 0 0 0-1.27 17.79c-.04 2.59-.5 4.87-1.03 7.4a266 266 0 0 0-.57 6.89l-.25 3.55q-.19 3.73-.15 7.46c-.03 3.1-.03 3.1-1.03 4.1-.08 3.19 0 6.35.06 9.52-.06 3.49-.06 3.49-.56 6.66-.7 5.39-.65 10.72-.63 16.15v3.26c.01 16.07.01 16.07 2.13 22.42l.68 5.9c.47 3.13 1.43 6.08 2.32 9.1q.49 2.34.93 4.69a195 195 0 0 0 2.63 11.5c1.1 4.28 1.88 8.44 2.44 12.8l1 3q.27 2.45.43 4.89c.34 4.07.87 8.04 1.57 12.06 2.83 18.05 2.13 36.6 2.06 54.8v7.4L897 655l2.1.6 9.47 2.7 3.3.94c18.25 5.25 18.25 5.25 23.13 12.76.74 2.75.45 4.2-.94 6.67-9.26 11.42-31.83 13.72-45.3 15.25q-3.75.37-7.5.7l-3.64.38c-21.28 2-42.53 2.19-63.87 1.38l-3.64-.13c-32.49-1.14-64.96-2.84-97.42-4.48-30.13-1.53-60.2-2.98-90.38-2.95h-3.66c-64.79.09-129.15 4.63-193.54 11.6l-3.65.39c-9.4 1.04-9.4 1.04-13.82 1.7-9.67 1.45-19.12 1.8-28.89 1.8q-2.5 0-5 .03l-13.47.03-8.42.02q-14.7.04-29.4.04-13.7 0-27.39.08-11.78.05-23.57.05-7.03 0-14.06.03-6.58.04-13.18.02l-4.83.02a363 363 0 0 1-6.6-.01h-3.73c-3.1-.62-3.1-.62-5.45-2.96-4.27-6.85-3.68-12.97-2.65-20.66l-1.69.99-2.3 1.33-2.26 1.3a45 45 0 0 1-19.69 5.2l-2.4.1c-10.02.34-18.67-1.61-26.4-8.3-4.79-5.57-7.43-10.31-8.26-17.62.25-3.06.25-3.06 1-6l.41-2.03c.84-3.91 1.52-6.4 4.6-8.97l1.17-2.31c4.47-6.61 12.15-10.85 19.82-12.7q3.3-.07 6.62 0c14.22.4 24.63-11.81 34.38-21 3.71-3.6 7.36-7.3 11-11l2.63-2.6a98 98 0 0 0 5.37-5.82l1.52-1.8 2.8-3.37a82 82 0 0 1 6-6.65c3.18-3.26 5.93-6.8 8.75-10.38A86 86 0 0 1 271 562a2083 2083 0 0 1 9-12l2.25-3 1.75-2h2l.75-1.62c1.54-2.94 3.38-5.63 5.25-8.38l-1.98-.73c-7.16-2.75-12.57-5.82-18.02-11.27l-2.32-1.31a38 38 0 0 1-9.68-8.7v-3l-1.88-.67c-2.79-1.73-2.98-3.28-4.12-6.32q-1.26-2.48-2.57-4.93A31 31 0 0 1 248 487l-.96-1.9a24 24 0 0 1-2.04-6.41c-.57-2.7-1.18-5.3-1.94-7.94a211 211 0 0 1-6.63-32.18A57 57 0 0 0 235 431q-.52-2.47-1-4.93l-.5-2.53q-.5-2.48-.94-4.98c-.56-2.56-.56-2.56-1.53-5.32-1.26-3.94-1.9-7.84-2.53-11.92l-.78-4.82-.37-2.34q-.69-4.12-1.48-8.22c-5.64-31.17-5.64-31.17 1.46-41.95 3.07-3.82 5.9-6.6 10.91-7.31 6.52-.07 11.44 1.28 17.38 3.89l2.6 1.09q6.2 2.63 12.35 5.36l2.14.95 3.91 1.78c8.21 3.7 14.46 5.09 23.06 1.88l2.04-.8c3.5-1.27 7.08-2.2 10.68-3.14q3.12-.83 6.22-1.75a192 192 0 0 1 21.78-4.47C343 341 343 341 346 340q2.1-.08 4.18-.12c5.78-.58 9.04-3.67 12.82-7.88 1.68-2.56 1.68-2.56 3-5 2.38-3.17 4.66-5.77 8-8l1.18-2.18c2.2-3.4 4.82-5.53 7.9-8.11 1.92-1.71 1.92-1.71 4.17-4.52 2.6-3.24 5.87-4.52 9.87-5.44 3.5-.34 4.65.09 7.55 2.18C414.6 310.6 418.9 322.02 423 335l.93 2.93C431 360.45 431 360.45 431 366a141 141 0 0 0 18-7l1.97-.91 6.78-3.15 2.22-1.03A103 103 0 0 0 471 348l7-4 3.5-2 1.76-1q2.54-1.46 5.05-2.93c2.78-1.6 5.62-3.03 8.5-4.44 3.5-1.73 6.86-3.6 10.2-5.63 5.87-3.6 12.02-6.57 18.24-9.56C528 317 528 317 531 314.94c3-1.93 5.64-2.82 9-3.94q3.03-1.94 6-4l4-2 5.12-2.81q5.4-2.97 10.94-5.7c3.3-1.6 6.4-3.35 9.5-5.3 5.23-3.21 10.71-5.76 16.3-8.3 4.53-2.07 8.82-4.36 13.14-6.9 19.26-10.55 19.26-10.55 22.93-11.47a37 37 0 0 0 6.5-2.45q3.6-1.66 7.25-3.13c2.32-.94 2.32-.94 5.13-2.37a87 87 0 0 1 9.06-3.75c2.22-.85 4.35-1.82 6.5-2.82a87 87 0 0 1 12.3-4.28c2.33-.72 2.33-.72 5.83-2.22a95 95 0 0 1 11.16-3.81q2.7-.8 5.34-1.75a94 94 0 0 1 10.63-2.47 82 82 0 0 0 9.3-2.4c15.33-4.34 31.83-4.14 47.63-4.2h3.03c8.25 0 15.57.52 23.41 3.13q2.15.27 4.31.44c4.15.39 7.72 1.47 11.64 2.87 2.65.9 5.28 1.29 8.05 1.69l2.08.6c7.17 2.03 11.27.44 17.6-3.1L837 233l2.5-1.43c2.5-1.57 2.5-1.57 4.87-3.5a38 38 0 0 1 6.2-4c3.32-1.84 5.14-4.01 7.43-7.07l2.5-1.93c2.93-2.42 4.5-4.84 6.5-8.07l3.06-4.56A153 153 0 0 0 880 185l1.56-3.06q1.47-3 2.75-6.06c3.04-7.21 6.61-14.2 10.7-20.88l1.92-3.43c5.65-9 13.21-17.45 21.4-24.18 1.67-1.4 1.67-1.4 4.35-4.07 14.88-14.87 39.28-21.7 59.7-23.53" fill="#111311"/><path d="M982.38 99.79c26.83-1.14 52.58 12.87 71.88 30.44 6.31 6.4 12.8 13.65 16.74 21.77q1.38 2.05 2.81 4.07c5.64 8.4 8.75 17.18 11.2 26.93l1 3c2.3 18.34 2.3 18.34-2.69 25.32L1082 213l-1.38 2.82c-2.32 3.12-5.16 4.52-8.62 6.18l-2.57 1.25c-3.9 1.2-6.77 1.48-10.6-.2-13.95-7.43-21.27-19.86-26.08-34.73-4.42-12.5-11.85-24-23.88-30.25-10.89-4.91-22.99-6.72-34.75-4.25-8.93 3.39-16.4 7.1-23.3 13.68l-1.55 1.44q-2.14 2.01-4.27 4.06l-2.14 1.99c-2.23 2.4-3.78 4.92-5.43 7.76l-1.75 2.99a73 73 0 0 0-3.86 9.06c-1.58 4.25-3.4 8.4-5.2 12.58l-1.13 2.67c-6.6 15.42-15 26.72-26 39.25q-1.88 2.15-3.72 4.35c-3.04 3.6-5.6 6.04-9.77 8.35l-1.5 2c-1.87 2.5-3.8 3.45-6.5 5l-3.05 1.83-3.14 1.86-3.17 1.89C866 276 866 276 864 276a31 31 0 0 0 3.37 9.94l1.36 2.64L870 291c10.2 20.02 17 41.4 17 64l.5 3.88c.55 4.59.61 9.14.62 13.75l.02 2.17A93 93 0 0 1 887 388a131 131 0 0 0 0 5.94c.03 4.03-.13 7.87-.7 11.86a125 125 0 0 0-1.27 17.79c-.04 2.59-.5 4.87-1.03 7.4a266 266 0 0 0-.57 6.89l-.25 3.55q-.19 3.73-.15 7.46c-.03 3.1-.03 3.1-1.03 4.1-.08 3.19 0 6.35.06 9.52-.06 3.49-.06 3.49-.56 6.66-.7 5.39-.65 10.72-.63 16.15v3.26c.01 16.07.01 16.07 2.13 22.42l.68 5.9c.47 3.13 1.43 6.08 2.32 9.1q.49 2.34.93 4.69a195 195 0 0 0 2.63 11.5c1.1 4.28 1.88 8.44 2.44 12.8l1 3q.27 2.45.43 4.89c.34 4.07.87 8.04 1.57 12.06 2.83 18.05 2.13 36.6 2.06 54.8v7.4L897 655l2.1.6 9.47 2.7 3.3.94c18.25 5.25 18.25 5.25 23.13 12.76.74 2.75.45 4.2-.94 6.67-9.26 11.42-31.83 13.72-45.3 15.25q-3.75.37-7.5.7l-3.64.38c-21.28 2-42.53 2.19-63.87 1.38l-3.64-.13c-32.49-1.14-64.96-2.84-97.42-4.48-30.13-1.53-60.2-2.98-90.38-2.95h-3.66c-64.79.09-129.15 4.63-193.54 11.6l-3.65.39c-9.6 1.06-9.6 1.06-13.82 1.73-11.95 1.87-23.79 1.72-35.86 1.66l-6.93-.01-18.09-.05-18.53-.04q-18.11-.03-36.23-.1a75 75 0 0 1 9.5-6.74l2.6-1.52 2.77-1.61q11.91-6.96 23.7-14.13l2.87-1.75q11.06-6.78 22.06-13.63 8-4.94 16.12-9.68a579 579 0 0 0 20.06-12.3q5.84-3.74 11.78-7.34c14.67-8.86 28.8-18.5 42.94-28.18l2.6-1.77 4.87-3.33c6.22-4.24 11.75-6.25 19.13-7.77 28.44-6.14 55.43-16.51 82-28.25l1.95-.85a998 998 0 0 0 52.98-25.21l2.35-1.2c8.2-4.22 16.27-8.57 24.2-13.27a131 131 0 0 1 9.7-5.03c8.71-4.22 17.1-9.03 25.48-13.86q1.54-.9 3.14-1.8l2.82-1.62C680 502 680 502 683 502l.68 2.07c6.1 18.35 12.25 36.48 22.7 52.87l1.2 1.9c8.81 13.2 20.24 24.2 31.61 35.16 19.5 18.85 19.5 18.85 19.92 32.55q.01 5.23-.1 10.45l-2.36.27c-6.3.85-10.96 1.94-16.13 5.7C739 644 739 644 737 644l-.87 1.78a68 68 0 0 1-2.2 4c-3.09 5.39-3.88 10.08-2.93 16.22 1.08 3.95 2.78 6.18 6.17 8.47 9.57 5.12 18.86 5.9 29.58 5.85l3.5-.02c11.6-.17 22.85-.91 31.75-9.3 14.84-20.06 14.4-52.77 11.42-76.3-.6-3.95-1.45-7.82-2.42-11.7l-.87-3.46q-1-3.78-2.13-7.54c14.81 6.57 27.48 20.3 33.22 35.16 3.03 8.77 3.92 16.49 3.84 25.72v2.95L845 643l-2.75.45c-10.25 1.89-17.64 4.33-23.82 13.05-3.69 6.8-3.7 14.35-1.87 21.78 2.14 4.7 6.2 6.74 10.7 8.72 15.08 5.5 34.53 4.97 49.05-1.75 7.4-3.93 10.96-8.3 13.78-16.23 4.44-14.75 3.3-31 3.28-46.2v-3.97c-.04-27.97-1.67-55.1-8.7-82.26-1.23-4.78-2.32-9.6-3.42-14.4q-.3-1.33-.64-2.7l-.6-2.57-.52-2.22c-1.29-7.07-1.65-14.08-1.66-21.25v-2.7l-.02-8.62v-2.96c.02-34.3.02-34.3 2.7-50.13 3.05-18.61 2.7-38.04 2.74-56.85l.01-2.95c.13-30.53-5.47-56.04-19.74-83.07-1.76-3.38-3-6.38-3.52-10.17a455 455 0 0 1 14.13-9.18A111 111 0 0 0 893 252l2.22-2c15.72-14.63 24.83-34.96 32.66-54.55 7.9-19.37 21.21-35.27 40.68-43.61 10.57-3.64 25.87-3.87 36.25.23a67 67 0 0 1 14.2 9.93l1.85 1.62c9.41 8.72 13.81 19.79 18.32 31.53 3.53 8.95 7.91 18.26 16.72 23 5.65 2.28 10.23 2.5 15.91.23 5.25-2.7 7.77-5.94 9.94-11.38 4.68-15.66-1.24-31.44-8.62-45.21-14.86-26.76-36.19-45.21-65.2-55-24.72-6.73-51.14-1.1-72.93 11.2a95 95 0 0 0-11 8l-2.57 2.16c-16.8 14.64-26.33 31.8-35.26 51.86-5.58 12.44-12.3 23.55-21.17 33.99l-1.7 2.12c-8.97 10.8-23.52 22.32-37.3 25.88-6.49.48-11.55-.84-17.69-2.81-29.89-8.88-62.94-8.95-93.3-2.2-.48.12-.48.12-2.84.63-38.75 8.68-74.62 26.44-109.92 44.07l-3.46 1.73a1141 1141 0 0 0-39.97 20.94A680 680 0 0 1 540.5 314a1387 1387 0 0 0-32.74 17.49q-8.88 4.85-17.8 9.65-7.32 3.95-14.6 8a420 420 0 0 1-28.24 14.55c-.45.2-.45.2-2.72 1.28-5.22 2.36-9.68 3.64-15.4 4.03l-.43-1.73c-13.32-53.9-13.32-53.9-24.6-62.61-3.9-2.18-5.56-2.54-9.97-1.66-9.22 5.72-15.83 14.3-22.57 22.63A131 131 0 0 1 360 338l-1.77 2.02c-2.63 2.34-4.17 2.7-7.62 3.22l-3.25.54-3.49.54a299 299 0 0 0-28.87 6.25l-3.16.85a170 170 0 0 0-17.45 5.86c-7.68 2.32-15.84-3.11-22.72-6.2a881 881 0 0 0-16.1-7.01l-2.77-1.22c-5.57-2.34-10.73-3.96-16.8-2.85a16.3 16.3 0 0 0-7.14 7.08c-6.6 22.34 2.64 52.1 7.77 73.93 1.61 6.9 2.87 13.84 3.97 20.84 4.3 26.9 10.17 61.09 32.4 79.15a88 88 0 0 0 23 12c-1.58 5.34-5.1 9.04-8.63 13.19l-3.84 4.6-1.86 2.2a331 331 0 0 0-5.8 7.2 510 510 0 0 1-26.43 30.26c-2.28 2.46-4.5 4.95-6.76 7.43-9.84 10.77-19.98 21.36-31.68 30.12l-2.53 2.07c-6.44 4.8-11.37 5.4-19.12 5.53-7.07.2-12.66 2.05-18.35 6.4a41 41 0 0 0-6 9l-1.13 1.83c-2.4 6-1.97 15.74.5 21.74 3.4 5.47 9.24 8.38 15.23 10.25 17.87 3.8 30.05-1.12 45.4-9.82l2-1-.66 1.8c-2.29 6.84-4.25 14.4-1.48 21.38 1.07 1.89 1.07 1.89 3.14 4.82l1 2c-1.75-.06-1.75-.06-4-1-4.5-6.16-5.49-12.05-4.57-19.56q.3-1.2.57-2.44l-1.69.99-2.3 1.33-2.26 1.3a45 45 0 0 1-19.69 5.2l-2.4.1c-10.02.34-18.67-1.61-26.4-8.3-4.79-5.57-7.43-10.31-8.26-17.62.25-3.06.25-3.06 1-6l.41-2.03c.84-3.91 1.52-6.4 4.6-8.97l1.17-2.31c4.47-6.61 12.15-10.85 19.82-12.7q3.3-.07 6.62 0c14.22.4 24.63-11.81 34.38-21 3.71-3.6 7.36-7.3 11-11l2.63-2.6a98 98 0 0 0 5.37-5.82l1.52-1.8 2.8-3.37a82 82 0 0 1 6-6.65c3.18-3.26 5.93-6.8 8.75-10.38A86 86 0 0 1 271 562a2083 2083 0 0 1 9-12l2.25-3 1.75-2h2l.75-1.62c1.54-2.94 3.38-5.63 5.25-8.38l-1.98-.73c-7.16-2.75-12.57-5.82-18.02-11.27l-2.32-1.31a38 38 0 0 1-9.68-8.7v-3l-1.88-.67c-2.79-1.73-2.98-3.28-4.12-6.32q-1.26-2.48-2.57-4.93A31 31 0 0 1 248 487l-.96-1.9a24 24 0 0 1-2.04-6.41c-.57-2.7-1.18-5.3-1.94-7.94a211 211 0 0 1-6.63-32.18A57 57 0 0 0 235 431q-.52-2.47-1-4.93l-.5-2.53q-.5-2.48-.94-4.98c-.56-2.56-.56-2.56-1.53-5.32-1.26-3.94-1.9-7.84-2.53-11.92l-.78-4.82-.37-2.34q-.69-4.12-1.48-8.22c-5.64-31.17-5.64-31.17 1.46-41.95 3.07-3.82 5.9-6.6 10.91-7.31 6.52-.07 11.44 1.28 17.38 3.89l2.6 1.09q6.2 2.63 12.35 5.36l2.14.95 3.91 1.78c8.21 3.7 14.46 5.09 23.06 1.88l2.04-.8c3.5-1.27 7.08-2.2 10.68-3.14q3.12-.83 6.22-1.75a192 192 0 0 1 21.78-4.47C343 341 343 341 346 340q2.1-.08 4.18-.12c5.78-.58 9.04-3.67 12.82-7.88 1.68-2.56 1.68-2.56 3-5 2.38-3.17 4.66-5.77 8-8l1.18-2.18c2.2-3.4 4.82-5.53 7.9-8.11 1.92-1.71 1.92-1.71 4.17-4.52 2.6-3.24 5.87-4.52 9.87-5.44 3.5-.34 4.65.09 7.55 2.18C414.6 310.6 418.9 322.02 423 335l.93 2.93C431 360.45 431 360.45 431 366a141 141 0 0 0 18-7l1.97-.91 6.78-3.15 2.22-1.03A103 103 0 0 0 471 348l7-4 3.5-2 1.76-1q2.54-1.46 5.05-2.93c2.78-1.6 5.62-3.03 8.5-4.44 3.5-1.73 6.86-3.6 10.2-5.63 5.87-3.6 12.02-6.57 18.24-9.56C528 317 528 317 531 314.94c3-1.93 5.64-2.82 9-3.94q3.03-1.94 6-4l4-2 5.12-2.81q5.4-2.97 10.94-5.7c3.3-1.6 6.4-3.35 9.5-5.3 5.23-3.21 10.71-5.76 16.3-8.3 4.53-2.07 8.82-4.36 13.14-6.9 19.26-10.55 19.26-10.55 22.93-11.47a37 37 0 0 0 6.5-2.45q3.6-1.66 7.25-3.13c2.32-.94 2.32-.94 5.13-2.37a87 87 0 0 1 9.06-3.75c2.22-.85 4.35-1.82 6.5-2.82a87 87 0 0 1 12.3-4.28c2.33-.72 2.33-.72 5.83-2.22a95 95 0 0 1 11.16-3.81q2.7-.8 5.34-1.75a94 94 0 0 1 10.63-2.47 82 82 0 0 0 9.3-2.4c15.33-4.34 31.83-4.14 47.63-4.2h3.03c8.25 0 15.57.52 23.41 3.13q2.15.27 4.31.44c4.15.39 7.72 1.47 11.64 2.87 2.65.9 5.28 1.29 8.05 1.69l2.08.6c7.17 2.03 11.27.44 17.6-3.1L837 233l2.5-1.43c2.5-1.57 2.5-1.57 4.87-3.5a38 38 0 0 1 6.2-4c3.32-1.84 5.14-4.01 7.43-7.07l2.5-1.93c2.93-2.42 4.5-4.84 6.5-8.07l3.06-4.56A153 153 0 0 0 880 185l1.56-3.06q1.47-3 2.75-6.06c3.04-7.21 6.61-14.2 10.7-20.88l1.92-3.43c5.65-9 13.21-17.45 21.4-24.18 1.67-1.4 1.67-1.4 4.35-4.07 14.88-14.87 39.28-21.7 59.7-23.53" fill="#B9BBB9"/><path d="m683 502 .68 2.07c6.1 18.34 12.26 36.48 22.7 52.87l1.2 1.89c8.81 13.21 20.24 24.21 31.61 35.17 19.5 18.85 19.5 18.85 19.92 32.54q.02 5.23-.11 10.46l-2.34.26-3.16.43-3.09.38c-3.21.88-4.42 1.59-6.98 3.5-4.97 3.16-8.96 2.82-14.67 2.26l-6.46-.46-3.51-.28c-6.56-.5-13.12-.88-19.69-1.23l-2.2-.12c-21.76-1.16-43.55-1.13-65.34-1.12l-3.19.01c-38.18.04-76.26.96-114.37 3.37l-2.91.18A798 798 0 0 0 478 647l-2.43.25c-37.26 3.92-74.7 8.01-111.57 14.75 1.86-4.2 3.86-5.33 7.94-7.5 5.84-3.2 11.51-6.6 17.12-10.19 9.58-6.11 9.58-6.11 14.42-9.02 14.66-8.86 28.78-18.5 42.92-28.17l2.6-1.77 4.87-3.34c6.22-4.23 11.76-6.24 19.13-7.76 28.45-6.14 55.43-16.52 82-28.25l1.95-.86a987 987 0 0 0 52.99-25.2l2.34-1.21c8.2-4.21 16.27-8.56 24.21-13.27 3.17-1.84 6.39-3.44 9.7-5.02 8.71-4.23 17.08-9.04 25.47-13.87l3.14-1.79 2.82-1.62C680 502 680 502 683 502" fill="#ECEEEC"/><path d="M982.38 99.79c26.83-1.14 52.58 12.87 71.88 30.44 6.31 6.4 12.8 13.65 16.74 21.77q1.38 2.05 2.81 4.07c5.64 8.4 8.75 17.18 11.2 26.93l1 3c2.3 18.34 2.3 18.34-2.69 25.32L1082 213l-1.38 2.82c-2.32 3.12-5.16 4.52-8.62 6.18l-2.57 1.25c-3.9 1.2-6.77 1.48-10.6-.2-13.95-7.43-21.27-19.86-26.08-34.73-4.42-12.5-11.85-24-23.88-30.25-10.89-4.91-22.99-6.72-34.75-4.25-8.93 3.39-16.4 7.1-23.3 13.68l-1.55 1.44q-2.14 2.01-4.27 4.06l-2.14 1.99c-2.23 2.4-3.78 4.92-5.43 7.76l-1.75 2.99a73 73 0 0 0-3.86 9.06c-1.58 4.25-3.4 8.4-5.2 12.58l-1.13 2.67c-6.6 15.42-15 26.72-26 39.25q-1.88 2.15-3.72 4.35c-3.04 3.6-5.6 6.04-9.77 8.35l-1.5 2c-1.87 2.5-3.8 3.45-6.5 5l-3.05 1.83-3.14 1.86-3.17 1.89C866 276 866 276 864 276a31 31 0 0 0 3.37 9.94l1.36 2.64L870 291c10.2 20.02 17 41.4 17 64l.5 3.88c.55 4.59.61 9.14.62 13.75l.02 2.17A93 93 0 0 1 887 388a131 131 0 0 0 0 5.94c.03 4.03-.13 7.87-.7 11.86a125 125 0 0 0-1.27 17.79c-.04 2.59-.5 4.87-1.03 7.4a266 266 0 0 0-.57 6.89l-.25 3.55q-.19 3.73-.15 7.46c-.03 3.1-.03 3.1-1.03 4.1-.08 3.19 0 6.35.06 9.52-.06 3.49-.06 3.49-.56 6.66-.7 5.39-.65 10.72-.63 16.15v3.26c.01 16.07.01 16.07 2.13 22.42l.68 5.9c.47 3.13 1.43 6.08 2.32 9.1q.49 2.34.93 4.69a195 195 0 0 0 2.63 11.5c1.1 4.28 1.88 8.44 2.44 12.8l1 3q.27 2.45.43 4.89c.34 4.07.87 8.04 1.57 12.06 2.83 18.05 2.13 36.6 2.06 54.8v7.4L897 655l2.1.6 9.47 2.7 3.3.94c18.25 5.25 18.25 5.25 23.13 12.76.74 2.75.45 4.2-.94 6.67-9.26 11.42-31.83 13.72-45.3 15.25q-3.75.37-7.5.7l-3.64.38c-21.28 2-42.53 2.19-63.87 1.38l-3.64-.13c-32.49-1.14-64.96-2.84-97.42-4.48-30.13-1.53-60.2-2.98-90.38-2.95h-3.66c-64.79.09-129.15 4.63-193.54 11.6l-3.65.39q-11.08 1.22-22.1 2.79c-4.79.58-9.49.63-14.3.53l-2.69-.03q-3.18-.03-6.37-.1v-1c19.9-2.6 39.85-4.81 59.81-6.93l2.5-.27c23.47-2.5 46.94-4.7 70.5-6.23l3.58-.24c12.62-.81 25.24-1.5 37.88-1.96 4.13-.16 8.2-.4 12.3-.88 7.55-.8 15.15-.65 22.73-.65l5.12-.02h19.28c40.41 0 80.6 1.32 120.92 3.88 140.94 8.93 140.94 8.93 186.38-4.7l3.58-1.07c4.86-1.61 8-2.97 11.42-6.93.56-2.5.56-2.5 0-5-4.08-4-8.67-5.67-13.94-7.56l-2.32-.88a108 108 0 0 0-15.08-4.16l-3.79-.8-2.87-.6v-2.26c-.47-84.91-.47-84.91-9.34-119.15-1.22-4.78-2.3-9.6-3.4-14.4l-.65-2.7-.6-2.57-.52-2.22c-1.29-7.07-1.65-14.08-1.66-21.25v-2.7l-.02-8.62v-2.96c.02-34.3.02-34.3 2.7-50.13 3.05-18.61 2.7-38.04 2.74-56.85l.01-2.95c.13-30.53-5.47-56.04-19.74-83.07-1.76-3.38-3-6.38-3.52-10.17a455 455 0 0 1 14.13-9.18A111 111 0 0 0 893 252l2.22-2c15.72-14.63 24.83-34.96 32.66-54.55 7.9-19.37 21.21-35.27 40.68-43.61 10.57-3.64 25.87-3.87 36.25.23a67 67 0 0 1 14.2 9.93l1.85 1.62c9.41 8.72 13.81 19.79 18.32 31.53 3.53 8.95 7.91 18.26 16.72 23 5.65 2.28 10.23 2.5 15.91.23 5.25-2.7 7.77-5.94 9.94-11.38 4.68-15.66-1.24-31.44-8.62-45.21-14.86-26.76-36.19-45.21-65.2-55-24.72-6.73-51.14-1.1-72.93 11.2a95 95 0 0 0-11 8l-2.57 2.16c-16.8 14.64-26.33 31.8-35.26 51.86-5.58 12.44-12.3 23.55-21.17 33.99l-1.7 2.12c-8.97 10.8-23.52 22.32-37.3 25.88-6.49.48-11.55-.84-17.69-2.81-29.89-8.88-62.94-8.95-93.3-2.2-.48.12-.48.12-2.84.63-38.75 8.68-74.62 26.44-109.92 44.07l-3.46 1.73a1141 1141 0 0 0-39.97 20.94A680 680 0 0 1 540.5 314a1387 1387 0 0 0-32.74 17.49q-8.88 4.85-17.8 9.65-7.32 3.95-14.6 8a420 420 0 0 1-28.24 14.55c-.45.2-.45.2-2.72 1.28-5.22 2.36-9.68 3.64-15.4 4.03l-.43-1.73c-13.32-53.9-13.32-53.9-24.6-62.61-3.9-2.18-5.56-2.54-9.97-1.66-9.22 5.72-15.83 14.3-22.57 22.63A131 131 0 0 1 360 338l-1.77 2.02c-2.63 2.34-4.17 2.7-7.62 3.22l-3.25.54-3.49.54a299 299 0 0 0-28.87 6.25l-3.16.85a170 170 0 0 0-17.45 5.86c-7.68 2.32-15.84-3.11-22.72-6.2a881 881 0 0 0-16.1-7.01l-2.77-1.22c-5.57-2.34-10.73-3.96-16.8-2.85a16.3 16.3 0 0 0-7.14 7.08c-6.6 22.34 2.64 52.1 7.77 73.93 1.61 6.9 2.87 13.84 3.97 20.84 4.3 26.9 10.17 61.09 32.4 79.15a88 88 0 0 0 23 12c-1.58 5.34-5.1 9.04-8.63 13.19l-3.84 4.6-1.86 2.2a331 331 0 0 0-5.8 7.2 510 510 0 0 1-26.43 30.26c-2.28 2.46-4.5 4.95-6.76 7.43-9.84 10.77-19.98 21.36-31.68 30.12l-2.53 2.07c-6.44 4.8-11.37 5.4-19.12 5.53-7.07.2-12.66 2.05-18.35 6.4a41 41 0 0 0-6 9l-1.13 1.83c-2.4 6-1.97 15.74.5 21.74 3.4 5.47 9.24 8.38 15.23 10.25 17.87 3.8 30.05-1.12 45.4-9.82l2-1-.66 1.8c-2.29 6.84-4.25 14.4-1.48 21.38 1.07 1.89 1.07 1.89 3.14 4.82l1 2c-1.75-.06-1.75-.06-4-1-4.5-6.16-5.49-12.05-4.57-19.56q.3-1.2.57-2.44l-1.69.99-2.3 1.33-2.26 1.3a45 45 0 0 1-19.69 5.2l-2.4.1c-10.02.34-18.67-1.61-26.4-8.3-4.79-5.57-7.43-10.31-8.26-17.62.25-3.06.25-3.06 1-6l.41-2.03c.84-3.91 1.52-6.4 4.6-8.97l1.17-2.31c4.47-6.61 12.15-10.85 19.82-12.7q3.3-.07 6.62 0c14.22.4 24.63-11.81 34.38-21 3.71-3.6 7.36-7.3 11-11l2.63-2.6a98 98 0 0 0 5.37-5.82l1.52-1.8 2.8-3.37a82 82 0 0 1 6-6.65c3.18-3.26 5.93-6.8 8.75-10.38A86 86 0 0 1 271 562a2083 2083 0 0 1 9-12l2.25-3 1.75-2h2l.75-1.62c1.54-2.94 3.38-5.63 5.25-8.38l-1.98-.73c-7.16-2.75-12.57-5.82-18.02-11.27l-2.32-1.31a38 38 0 0 1-9.68-8.7v-3l-1.88-.67c-2.79-1.73-2.98-3.28-4.12-6.32q-1.26-2.48-2.57-4.93A31 31 0 0 1 248 487l-.96-1.9a24 24 0 0 1-2.04-6.41c-.57-2.7-1.18-5.3-1.94-7.94a211 211 0 0 1-6.63-32.18A57 57 0 0 0 235 431q-.52-2.47-1-4.93l-.5-2.53q-.5-2.48-.94-4.98c-.56-2.56-.56-2.56-1.53-5.32-1.26-3.94-1.9-7.84-2.53-11.92l-.78-4.82-.37-2.34q-.69-4.12-1.48-8.22c-5.64-31.17-5.64-31.17 1.46-41.95 3.07-3.82 5.9-6.6 10.91-7.31 6.52-.07 11.44 1.28 17.38 3.89l2.6 1.09q6.2 2.63 12.35 5.36l2.14.95 3.91 1.78c8.21 3.7 14.46 5.09 23.06 1.88l2.04-.8c3.5-1.27 7.08-2.2 10.68-3.14q3.12-.83 6.22-1.75a192 192 0 0 1 21.78-4.47C343 341 343 341 346 340q2.1-.08 4.18-.12c5.78-.58 9.04-3.67 12.82-7.88 1.68-2.56 1.68-2.56 3-5 2.38-3.17 4.66-5.77 8-8l1.18-2.18c2.2-3.4 4.82-5.53 7.9-8.11 1.92-1.71 1.92-1.71 4.17-4.52 2.6-3.24 5.87-4.52 9.87-5.44 3.5-.34 4.65.09 7.55 2.18C414.6 310.6 418.9 322.02 423 335l.93 2.93C431 360.45 431 360.45 431 366a141 141 0 0 0 18-7l1.97-.91 6.78-3.15 2.22-1.03A103 103 0 0 0 471 348l7-4 3.5-2 1.76-1q2.54-1.46 5.05-2.93c2.78-1.6 5.62-3.03 8.5-4.44 3.5-1.73 6.86-3.6 10.2-5.63 5.87-3.6 12.02-6.57 18.24-9.56C528 317 528 317 531 314.94c3-1.93 5.64-2.82 9-3.94q3.03-1.94 6-4l4-2 5.12-2.81q5.4-2.97 10.94-5.7c3.3-1.6 6.4-3.35 9.5-5.3 5.23-3.21 10.71-5.76 16.3-8.3 4.53-2.07 8.82-4.36 13.14-6.9 19.26-10.55 19.26-10.55 22.93-11.47a37 37 0 0 0 6.5-2.45q3.6-1.66 7.25-3.13c2.32-.94 2.32-.94 5.13-2.37a87 87 0 0 1 9.06-3.75c2.22-.85 4.35-1.82 6.5-2.82a87 87 0 0 1 12.3-4.28c2.33-.72 2.33-.72 5.83-2.22a95 95 0 0 1 11.16-3.81q2.7-.8 5.34-1.75a94 94 0 0 1 10.63-2.47 82 82 0 0 0 9.3-2.4c15.33-4.34 31.83-4.14 47.63-4.2h3.03c8.25 0 15.57.52 23.41 3.13q2.15.27 4.31.44c4.15.39 7.72 1.47 11.64 2.87 2.65.9 5.28 1.29 8.05 1.69l2.08.6c7.17 2.03 11.27.44 17.6-3.1L837 233l2.5-1.43c2.5-1.57 2.5-1.57 4.87-3.5a38 38 0 0 1 6.2-4c3.32-1.84 5.14-4.01 7.43-7.07l2.5-1.93c2.93-2.42 4.5-4.84 6.5-8.07l3.06-4.56A153 153 0 0 0 880 185l1.56-3.06q1.47-3 2.75-6.06c3.04-7.21 6.61-14.2 10.7-20.88l1.92-3.43c5.65-9 13.21-17.45 21.4-24.18 1.67-1.4 1.67-1.4 4.35-4.07 14.88-14.87 39.28-21.7 59.7-23.53" fill="#E8E8EA"/><path d="M401 302c8.75 3.93 12.36 14.14 15.72 22.55a403 403 0 0 1 10.16 31.39l.65 2.31c.82 3 1.47 5.62 1.47 8.75h-2v10h-3a170 170 0 0 1-3-5c-11.69-11.72-27.67-17.19-43.56-20.19l-2.77-.53q-3.34-.66-6.67-1.28c-1.4-4.37-.02-7.07 2-11q1.94-3.54 4-7l1.52-2.66 1.6-2.78 1.51-2.62L380 322h2c2-5.75 2-5.75 2-8l-5 2c12.68-15.93 12.68-15.93 22-14" fill="#252623"/><path d="M247 345c12.37 3.41 24.3 11.83 34 20-.25 3.64-.91 4.9-3.48 7.58q-1.56 1.35-3.14 2.67A80 80 0 0 0 261 390l-1.61 2.28c-6.08 8.82-9.44 17.43-12.39 27.72l-.7 2.39L245 427c-9.45-7.73-10.89-29.83-12.27-41.2q-.54-5.4-.73-10.8h-2l-1-9-1 6h-1v-22l2 3 1-4h3l1-3c4.42-2.95 7.93-1.97 13-1" fill="#272825"/><path d="M808 572c14.81 6.56 27.48 20.29 33.22 35.16 3.04 8.76 3.92 16.49 3.84 25.72l-.01 2.95L845 643l-2.78.48c-11.25 2.14-11.25 2.14-15.41 5.27-4.15 3.03-7.77 2.36-12.69 1.64L812 650l.44-3.32c2.54-20.96 3.73-43.05-1.44-63.68l-.87-3.46q-1-3.8-2.13-7.54" fill="#ECEEED"/><path d="m880 507 3 2a93 93 0 0 1 0 5q.98 3 2 6l1 7q.68 2.4 1.39 4.79a162 162 0 0 1 4.14 19.96C892 555 892 555 893 558q.26 2.43.44 4.88c.33 4.07.86 8.03 1.56 12.06 2.83 18.05 2.13 36.6 2.06 54.81l-.01 7.39L897 655l2.1.59 9.47 2.71 3.3.93c18.26 5.26 18.26 5.26 23.13 12.77.74 2.75.45 4.19-.94 6.66-9.25 11.42-31.82 13.72-45.29 15.25q-3.76.38-7.52.71l-3.63.37c-21.28 2.02-42.52 2.19-63.87 1.39l-3.64-.13c-32.49-1.14-64.95-2.84-97.42-4.48-30.13-1.53-60.2-2.99-90.38-2.96h-3.65c-64.8.09-129.16 4.64-193.54 11.6l-3.66.4a709 709 0 0 0-22.1 2.79c-4.78.57-9.49.62-14.3.52l-2.68-.02-6.38-.1v-1c19.91-2.59 39.85-4.82 59.81-6.94l2.49-.26a1752 1752 0 0 1 70.51-6.24l3.58-.23q18.93-1.25 37.89-1.97c4.12-.16 8.19-.39 12.29-.88 7.55-.79 15.15-.64 22.73-.65l5.12-.01 16.46-.01h2.83c40.4.01 80.59 1.33 120.91 3.88 140.94 8.93 140.94 8.93 186.38-4.69l3.58-1.07c4.86-1.62 8.01-2.98 11.42-6.93.56-2.5.56-2.5 0-5-4.08-3.99-8.67-5.68-13.94-7.56l-2.32-.88a109 109 0 0 0-15.07-4.17l-3.8-.79-2.87-.6-.01-2.26c-.47-86.98-.47-86.98-10.94-125.2-2.12-7.88-2.73-15.41-3.05-23.54" fill="#E9EAE9"/><path d="M250.79 338.5q2.43 1 4.84 2.06l2.59 1.1q3.9 1.63 7.78 3.34l2.38 1.03c5.7 2.48 5.7 2.48 8.42 3.71a86 86 0 0 0 8.5 3.32c3.1 1.07 4.57 2.48 6.7 4.94a63 63 0 0 1-16.2-5.07l-2-.9-4.37-1.95q-6.9-3.07-13.87-6.02l-2.76-1.22c-5.56-2.34-10.73-3.96-16.8-2.84a16.3 16.3 0 0 0-7.14 7.07c-6.6 22.34 2.65 52.11 7.77 73.93 1.6 6.9 2.87 13.84 3.98 20.84 4.28 26.91 10.17 61.1 32.39 79.16a88 88 0 0 0 23 12c-1.57 5.33-5.1 9.03-8.62 13.18q-1.94 2.3-3.85 4.6l-1.86 2.22a308 308 0 0 0-5.8 7.18 513 513 0 0 1-26.43 30.26q-3.4 3.7-6.75 7.43c-9.84 10.78-20 21.36-31.7 30.13l-2.51 2.06c-6.45 4.8-11.38 5.41-19.13 5.53-7.07.21-12.65 2.05-18.35 6.41a41 41 0 0 0-6 9l-1.12 1.82c-2.42 6.01-1.97 15.74.5 21.74 3.39 5.47 9.24 8.38 15.23 10.25 17.86 3.8 30.04-1.12 45.39-9.8l2-1-.66 1.8c-2.3 6.82-4.25 14.4-1.47 21.37A42 42 0 0 0 228 702l1 2c-1.75-.07-1.75-.07-4-1-4.5-6.16-5.48-12.05-4.56-19.57L221 681l-1.7.98-2.3 1.33-2.25 1.3a45 45 0 0 1-19.7 5.2l-2.4.11c-10 .33-18.66-1.62-26.4-8.3-4.78-5.57-7.42-10.32-8.25-17.62.25-3.07.25-3.07 1-6l.4-2.04c.85-3.9 1.53-6.39 4.6-8.96l1.19-2.32c4.46-6.6 12.15-10.85 19.8-12.68q3.33-.1 6.64 0c14.2.4 24.63-11.83 34.37-21q5.56-5.44 11-11l2.64-2.62c1.87-1.89 3.64-3.79 5.36-5.82l1.53-1.8 2.79-3.37a79 79 0 0 1 5.99-6.64c3.2-3.27 5.94-6.8 8.77-10.39A85 85 0 0 1 271 562a189 189 0 0 0 3-4q2.98-4.01 6-8l2.25-3 1.75-2h2l.75-1.63A86 86 0 0 1 292 535l-1.98-.74c-7.16-2.75-12.57-5.8-18.02-11.26l-2.31-1.32a38 38 0 0 1-9.7-8.68v-3l-1.86-.69c-2.8-1.73-2.98-3.28-4.13-6.3q-1.26-2.49-2.56-4.95A31 31 0 0 1 248 487l-.96-1.9a24 24 0 0 1-2.04-6.42c-.56-2.69-1.17-5.29-1.94-7.93a210 210 0 0 1-6.62-32.19A58 58 0 0 0 235 431l-1-4.94-.5-2.53q-.5-2.47-.94-4.98c-.56-2.55-.56-2.55-1.53-5.32-1.26-3.94-1.9-7.84-2.53-11.92l-.77-4.82-.38-2.34q-.69-4.12-1.47-8.22c-5.65-31.17-5.65-31.17 1.45-41.95 6.33-7.86 14.06-8.9 23.46-5.48" fill="#DCDDDD"/><path d="m367 560 3 1c-3.25 7.77-11.33 13.52-17.61 18.89a445 445 0 0 0-23.5 22.25 109 109 0 0 1-5.61 5.11c-4.2 3.65-8.25 7.43-12.28 11.25a467 467 0 0 1-16 14.5l-1.7 1.48a689 689 0 0 1-20.36 17.08l-1.88 1.52A273 273 0 0 1 266 657l-2.38 1.83c-3.82 1.71-7.31 1.49-11.43 1.36l-2.39-.04q-2.9-.06-5.8-.15c3.71-3.85 7.62-7.24 11.81-10.56l1.97-1.57c5.43-4.3 10.96-8.45 16.52-12.58q7.04-5.26 13.79-10.88 5.46-4.5 10.97-8.97l2.11-1.72q5.36-4.35 10.77-8.66c5.23-4.17 10.37-8.44 15.52-12.71q6.9-5.68 13.98-11.16a234 234 0 0 0 14.24-12.1q3.55-3.2 7.26-6.21l2.15-1.76z" fill="#EBEAED"/><path d="m412 449 1 3a4532 4532 0 0 1-18.36 10.84l-2.98 1.76A22 22 0 0 1 385 467v2l-8.31 3.5-2.38 1.01-2.3.96-2.11.89c-1.9.64-1.9.64-4.9.64-.53-3.04-.47-5.19 1.1-7.9 11.12-13.85 28.73-19.68 45.9-19.1" fill="#141414"/><path d="M587.13 685.9h5.54l14.5.03 14.81.02L651 686v1l-3.1.03-28.93.31-14.86.15-14.34.16-5.48.06-7.65.08-2.3.02c-5.23.07-5.23.07-6.34 1.2q-2.65.26-5.32.38l-3.6.2-1.99.11q-5.62.31-11.26.65l-2.55.15a2234 2234 0 0 0-103.6 8.35l-14.57 1.56-3.65.4q-11.08 1.22-22.1 2.8c-4.79.56-9.49.61-14.3.51l-2.69-.02-6.37-.1v-1c19.9-2.59 39.85-4.82 59.81-6.94l2.5-.27c23.47-2.49 46.94-4.69 70.5-6.23l3.58-.23q18.92-1.25 37.88-1.97c4.1-.16 8.12-.39 12.2-.89 8.17-.86 16.44-.59 24.66-.57" fill="#E3E5E3"/><path d="m884 355 2 3 2 1a1859 1859 0 0 1 .09 13.56A95 95 0 0 1 887 388q-.06 2.97 0 5.94c.03 4.03-.12 7.86-.71 11.86a123 123 0 0 0-1.25 17.78c-.04 2.6-.52 4.88-1.04 7.42q-.32 3.43-.56 6.88l-.26 3.55q-.18 3.72-.14 7.45C883 452 883 452 882 453c-.07 3.17 0 6.33.06 9.51-.06 3.49-.06 3.49-.55 6.63-.73 5.5-.65 10.95-.63 16.48l-.02 3.4.01 3.27v2.96a23 23 0 0 0 .67 5.36c.56 2.91.15 5.47-.28 8.39a51 51 0 0 0-.26 8h-1c-2.18-11.76-2.31-23.27-2.25-35.19l.01-2.92c.08-34.21.08-34.21 2.74-49.84.86-5.26 1.14-10.55 1.5-15.86l.26-3.87c1.17-18.08 1.41-36.21 1.74-54.32" fill="#D5D6D7"/><path d="m352.44 484.81 2.93-.04C358 485 358 485 361 487c.44 2.87.44 2.87 0 6l-2 1.93c-2 2.07-2 2.07-2.18 5.76L357 504c-1 1-1 1-4.56 1.06L349 505l-.62-2.25c-1.77-3.54-4.12-4.6-7.38-6.75-1.18-1.88-1.18-1.88-1-4 3.95-5.45 5.84-7.15 12.44-7.19" fill="#646461"/><path d="M269 519c3.57 1.67 6.81 3.76 10.12 5.88A80 80 0 0 0 296 533c-1.57 5.34-5.1 9.03-8.62 13.19l-3.85 4.59-1.86 2.22a308 308 0 0 0-5.79 7.19 507 507 0 0 1-22.38 26l-1.49 1.64A48 48 0 0 1 244 595c2.3-4.98 4.92-9.26 9.25-12.69 4.12-3.34 6.87-7.44 9.9-11.76A53 53 0 0 1 270 563c2.45-2.92 4.72-5.95 7-9 5.25-7 5.25-7 7-9h2l.75-1.62A87 87 0 0 1 292 535l-1.98-.73c-7.16-2.75-12.57-5.82-18.02-11.27-2.25-1.25-2.25-1.25-4-2z" fill="#E5E6E6"/><path d="m292 472 .45 2.01c1.61 6.36 3.12 9.29 8.55 12.99l2 2c-7.78.9-13.45-1.92-20-6-2.36-1.95-2.36-1.95-4-4v-4c4.64-1.89 7.95-3.21 13-3" fill="#D7BB67"/><path d="M996 102v1l-3.2.08c-18.45.63-35.24 3.61-51.8 11.92l-3.21 1.56A332 332 0 0 0 931 120l-2-2c16.45-11.36 47.28-24.3 67-16m-69 17 2 1h-3z" fill="#E6E7E8"/><path d="M1004 153c10.36 2.39 19.38 11.96 25.31 20.44 4.29 6.92 7.15 14.51 10.14 22.06 2.11 5.28 4.26 9.86 7.55 14.5v2c-4.45-1.47-5.93-4.81-7.94-8.75l-1.06-2.02c-2.24-4.39-4-8.8-5.56-13.48-4.25-12.53-11.97-23.75-24-29.81A145 145 0 0 0 1004 156z" fill="#E0E1E1"/><path d="M378 459a30 30 0 0 1 2.56 3.88l1.32 2.17Q382.99 467 384 469l-7.81 3.5-2.24 1.01-2.16.96-1.98.89C368 476 368 476 365 476c-.57-3.27-.48-5.3 1.42-8.07C374.16 459 374.16 459 378 459" fill="#D5BA72"/><path d="M876 310h2c6.78 14.53 9.43 31.23 8.88 47.19l-.07 2.52-.25 7.85-.16 5.37q-.18 6.54-.4 13.07h-1l-.04-2.5c-.43-21.75-1.67-42.79-7.09-63.97-.78-3.17-1.38-6.3-1.87-9.53" fill="#ECEDEE"/><path d="m367 560 3 1c-4.06 9.7-15.66 17.84-24 24l-1-2c1.88-4.71 4.29-7.6 8-11l2.41-2.21c8.97-8.17 8.97-8.17 11.59-9.79" fill="#EBEDEB"/><path d="M501 574v2a120 120 0 0 1-6.62 4.38l-3.73 2.33-1.85 1.16c-7.63 4.8-7.63 4.8-8.8 7.13l2 2c-12.49 3.44-12.49 3.44-19 3 1.56-3.13 4.26-3.71 7.38-5.19a126 126 0 0 0 16.41-9.52C489 580 489 580 492 580v-2c6.75-4 6.75-4 9-4" fill="#050605"/><path d="M247 339c5.37.53 9.73 1.96 14.62 4.25l4.22 1.91 2.11.95c4 1.74 8.09 3.24 12.18 4.75 8.72 3.47 8.72 3.47 11.87 7.14-6.58-1.06-12.29-3.31-18.32-6.03a426 426 0 0 0-17.68-7.41l-2.7-1.07L247 341z" fill="#DADCDC"/><path d="m947 166 2 3-2.71 2.04c-3.54 2.96-5.7 6.29-7.98 10.27l-1.14 1.9c-2.26 3.85-4 7.7-5.5 11.9a123 123 0 0 1-3.17 7.83l-1.22 2.84C926 208 926 208 923 209c5.1-16.42 12.1-30.49 24-43" fill="#DBDCDC"/><path d="M997 101a64 64 0 0 1 22 6l2.81 1.27c5.19 2.44 5.19 2.44 7.19 3.73l1 3a130 130 0 0 1-11.3-4.21c-13.41-5.62-26.29-6.25-40.7-6.79v-1l3.9-.18 5.04-.26 2.57-.12 2.45-.12 2.27-.11C996 102 996 102 997 101" fill="#DBDDDD"/><path d="m226 674 1 2-1.44 3.44c-2.21 5.64-2.97 12.01-.69 17.75 1.07 1.87 1.07 1.87 3.13 4.81l1 2c-1.75-.06-1.75-.06-4-1-4.49-6.16-5.49-12.05-4.56-19.56L221 681l-3 2c-3.19.12-3.19.12-6 0a87 87 0 0 1 9.25-6.19l2.7-1.6z" fill="#DADADE"/><path d="M326 471q1.53 1.47 3 3l-3.37-.99c-7.77-1.73-15.78-1.22-23.69-1.13l-4.94.02q-6 .03-12 .1c9.87-6.58 30.48-6.3 41-1" fill="#040404"/><path d="m880 507 3 2a93 93 0 0 1 0 5q.98 3 2 6l1 7 1 3.31c1.22 4.49 2.1 9.03 2 13.69l-2 3c-7-27.68-7-27.68-7-40" fill="#DEDEE0"/><path d="m240.63 338.94 2.47.03 1.9.03-1 3 1 3-3.75-.25c-3.31-.02-3.94-.01-6.56 2.25l-1.69 2h-3l-1 7h-1c-.5-4.02-.87-7.54 1.26-11.12 3.62-4.22 5.7-6.02 11.37-5.94" fill="#1B1B1B"/><path d="m894 156 2 1c-2.02 6.33-4.7 12.27-7.44 18.31l-1.48 3.36-1.45 3.19-1.31 2.92C883 187 883 187 880 188c.51-3.75 1.14-6.7 3-10l3-6z" fill="#E9E9EB"/><path d="M415 449c-3.06 1.02-4.83 1.01-8 .88-10.83-.08-19.87 3.99-29.1 9.33-1.9.79-1.9.79-4.9-.21 13.22-8.17 26.32-15.23 42-10" fill="#040504"/><path d="M198 633v2l-2.86.01c-10.46.31-19.58 2.23-27.39 9.87L166 647c0-4 0-4 1.65-5.78 10.56-7.94 17.01-9.97 30.35-8.22" fill="#E4E7E4"/><path d="M372 464h2v2h6c-.12 1.88-.12 1.88-1 4-2.88 1.12-2.88 1.12-6 2l-3 2h-4v-6h4z" fill="#EAC663"/><path d="M885 387h1c.71 7.2 1.23 13.85 0 21l-.44 3.88C885 415 885 415 883 417c-1.72-3.45-.9-7.29-.69-11.06l.11-2.49A86 86 0 0 1 885 387" fill="#D1D1D3"/><path d="M924 208c1.37 4.1-.21 6.32-2 10l-1.14 2.43A82 82 0 0 1 912 235c-1-2-1-2 .18-5.6 1.75-4.39 3.76-8.62 5.88-12.84l1.07-2.18c2.63-5.26 2.63-5.26 4.87-6.38" fill="#EAE9EC"/><path d="M225 354h1c1.42 11.07 2.3 21.83 2 33-5.54-6.49-4.08-16-4.12-24.12l-.02-2.3c.02-5.46.02-5.46 1.14-6.58" fill="#EAEBEA"/><path d="m395.24 303.34 1.76.66-2 1v3c-1.39 1.6-1.39 1.6-3.25 3.18l-1.83 1.61C388 314 388 314 384 314a74 74 0 0 0-5 2c10.56-13.53 10.56-13.53 16.24-12.66" fill="#1B1B1D"/><path d="M216 683c-6.18 5.41-13.49 6.49-21.38 6.81l-2.44.16c-2.06.1-4.12.07-6.18.03l-2-2 3.66-.33 4.84-.48 2.4-.22c7.28-.74 13.85-4.51 21.1-3.97" fill="#E7EAE8"/><path d="M996 102v1l-27 1c6.14-6.14 19.31-5.24 27-2" fill="#F0F0F3"/><path d="M228 380h1q1.04 5.87 2.06 11.75l.61 3.37.55 3.24.53 2.98c.24 2.56.05 4.24-.75 6.66h-2q-1.04-4.96-2.06-9.94l-.61-2.86-.55-2.73-.53-2.52L226 388l1-1q.55-3.5 1-7" fill="#D3D5D3"/><path d="m884 342 2 1c1.42 4.51 1.04 9.14.88 13.8l-.07 2.54-.25 7.97-.16 5.43q-.18 6.63-.4 13.26h-1z" fill="#F2F3F5"/><path d="m894 588 2 1c1.41 8.35 3.8 22.8-1 30-1.18-6.48-1.11-12.86-1.06-19.44l.01-3.37z" fill="#F1F2F3"/><path d="M911 230c1 3 1 3-.56 6.26-2.41 3.92-5.3 7.26-8.44 10.62l-1.58 1.75c-2.7 2.92-4.5 4.66-8.42 5.37l2.56-3 1.66-1.95q1.74-2.01 3.53-3.98c4.26-4.73 7.85-9.69 11.25-15.07" fill="#DDDEDD"/><path d="m367 560 3 1c-1.48 3.45-3.44 5.65-6.12 8.25l-2.2 2.14L360 573l-2-2 1-2-2-1q2.39-2.05 4.81-4.06l2.71-2.29z" fill="#D6D8D5"/><path d="M614 273v3l-17 8c2.22-5.56 2.82-5.91 7.94-8.31l3.21-1.55C611 273 611 273 614 273" fill="#E6E5E8"/><path d="m219 618 2 1c-16.63 16-16.63 16-23 16 1.23-3.69 2.11-3.88 5.44-5.69 5.65-3.24 10.58-7.13 15.56-11.31" fill="#E0E1E0"/><path d="M231 406c3.44 2.66 3.85 5.61 4.69 9.75l.76 3.61c.55 3.61.65 7 .55 10.64-2-1-2-1-2.82-3.04-1.44-5-2.53-9.8-3.18-14.96l-1-2c.44-2.12.44-2.12 1-4" fill="#E0DFE1"/><path d="M668 687c11.69-.2 23.33.41 35 1v1c-8.69.89-17.27 1.12-26 1v-2h-9z" fill="#E3E5E2"/><path d="m517.31 323.32 1.7.68c-4.9 4.38-12.26 10-19 10 1-3 1-3 2.74-3.99q1.1-.5 2.25-1 3.8-2.43 7.56-4.87c2.44-1.14 2.44-1.14 4.75-.82" fill="#EAEBED"/><path d="M997 101q3.04.39 6.06.94l3.35.59 2.59.47 1 3-32-2v-1l3.9-.18 5.04-.26 2.57-.12 2.45-.12 2.27-.11C996 102 996 102 997 101" fill="#D1D2D2"/><path d="M980 150q4.32-.12 8.62-.19l2.45-.07c5.11-.07 8.46.51 12.93 3.26l-2 2-3-1c-4.09-1.19-7.76-1.15-12-1v-2h-7z" fill="#E8E8E7"/><path d="M965 156a52 52 0 0 1-6.94 6l-2.02 1.5L954 165l-2.13 1.69C950 168 950 168 948 168c1.44-3.39 3.2-5.32 6-7.69l2.12-1.82c3.1-2.46 4.99-2.59 8.88-2.49" fill="#E5E4E7"/><path d="M226 674c1 2 1 2 .44 3.95l-.88 2.17-.87 2.2L224 684l-3-3-3 2c-3.19.12-3.19.12-6 0a87 87 0 0 1 9.25-6.19l2.7-1.6z" fill="#CACBCB"/><path d="M250 485c1.91 2.86 3 5.35 4.19 8.56l1.1 2.94c.71 2.5.71 2.5-.29 4.5-3-1-3-1-3.98-2.86-1.57-4.76-2.43-8.15-1.02-13.14" fill="#E2E3E0"/><path d="M882 415c3.1 3.1 2.83 6.75 3 11-.38 2.62-.38 2.62-1 5l-1 7h-1c-.89-7.84-1-15.17 0-23" fill="#EDEDF0"/><path d="M422 347c3.74 2.72 4.27 6.68 5 11 .12 3 .12 3 0 5-3.42-2.28-3.64-3.07-4.75-6.88l-.8-2.61c-.46-2.58-.29-4.06.55-6.51" fill="#141815"/><path d="M308 350v2q-3.33 1.3-6.69 2.56l-1.89.75c-3.87 1.44-6.46 1.96-10.42.69l1-2 2.62-.44c3.38-.56 3.38-.56 6.94-2.12 3.21-1.34 5.04-1.75 8.44-1.44" fill="#EBEDEC"/><path d="m861 215 2 2-5.81 5.44-1.66 1.56c-2.49 2.31-4.27 3.91-7.53 5l-2-2 1.79-1.14c4.57-2.96 8.53-5.84 12.21-9.86z" fill="#E4E3E4"/><path d="M1084 186h2q.37 4.38.69 8.75l.22 2.5.16 2.42.18 2.22C1087 204 1087 204 1084 208z" fill="#EDECEE"/><path d="M882 328c2 1 2 1 2.7 2.9 1.51 6.83.97 12.33-.7 19.1h-1l-1.06-10.44-.32-3.01-.28-2.86-.27-2.65L881 329z" fill="#DBDADE"/><path d="m165 646 1 3-1.38 2.38c-2.4 5.37-2.37 10.79-2.62 16.62h-1q-.45-3.81-.81-7.62l-.27-2.17c-.37-4.17-.17-6.45 2.57-9.73z" fill="#CED1CE"/><path d="M1083 202h1c.27 5.37.42 8.6-3 13a89 89 0 0 1-4 4l-3-2 2.25-1.88c3.69-3.62 5.09-8.33 6.75-13.12" fill="#D8D9D8"/><path d="M1046 126c4.95.15 7.37 2.86 10.74 6.11 1.26 1.89 1.26 1.89.96 4.12l-.7 1.77-7.09-7a294 294 0 0 1-3.91-4z" fill="#EDEEEE"/><path d="m370 656 1 2h13v1l-20 3c2.25-4.5 2.25-4.5 6-6" fill="#DFE0DF"/><path d="m551 304 2 1c-1 3-1 3-3.14 4.39l-2.67 1.3-2.65 1.32C542 313 542 313 538 313c1.26-2.52 2.29-2.77 4.81-3.94 3-1.43 5.62-2.92 8.19-5.06" fill="#EFEEF2"/><path d="M894 253v3q-2.44 2.07-5 4l-2.62 2.75C884 265 884 265 881 265c1.43-3.36 3.18-5.32 5.94-7.69l2.09-1.82C891 254 891 254 894 253" fill="#E9E8E9"/><path d="m350 574 3 2c-.18 2.38-.7 3.7-2.4 5.38A178 178 0 0 1 346 585l-1-2a60 60 0 0 1 5-9" fill="#E1E4E6"/><path d="m187.45 631.83 7.62.8 2.93.37v2l-18 1c4-4 4-4 7.45-4.17" fill="#EAEDEB"/><path d="M328 475a24 24 0 0 1 4 4c-.25 2.25-.25 2.25-1 4l-7 2z" fill="#BFAE71"/><path d="m384 469-7.81 3.5-2.24 1.01-2.16.96-1.98.89C368 476 368 476 365 476v-6l1 4 3.06-1.31 1.93-.82q1.97-.86 3.89-1.77c3.55-1.67 5.4-2.3 9.12-1.1" fill="#D9C38B"/><path d="m241.06 336.75 2.6-.02C246 337 246 337 249 339c-3.7 1.08-6.96 1-10.78.84-2.5.18-4.07.91-6.22 2.16v-3c3.13-1.83 5.45-2.27 9.06-2.25" fill="#E9EBE9"/><path d="M1046 212a79 79 0 0 1 8.06 4.5l2.04 1.28q2.46 1.6 4.9 3.22c-1.62.75-1.62.75-4 1-2.94-1.69-2.94-1.69-6-4l-2.88-2.12L1046 214z" fill="#E5E6E6"/><path d="m309 619 1 2-3.31 3.88-1.87 2.17C303 629 303 629 300 631l-2-2z" fill="#19181C"/><path d="m880 507 3 2a93 93 0 0 1 0 5q.94 3.01 2 6v2h-4z" fill="#ECEBED"/><path d="M463 355c-3.66 3.05-9.08 7-14 7 1-3 1-3 3.18-4.42l2.7-1.33 2.67-1.36C460 354 460 354 463 355" fill="#DDDCDF"/><path d="M888 544h2c1.57 5.73 2.24 10.16 1 16-2.93-5.27-3.12-10.03-3-16" fill="#EFEFF3"/><path d="m879 458 1 3h2q-.17 2.94-.38 5.88l-.21 3.3C881 473 881 473 879 475z" fill="#F0F2F3"/><path d="m427 354 2 1c.7 2.4.7 2.4 1.25 5.38l.58 2.96C431 366 431 366 429 369l-1.56-5.25-.88-2.95c-.55-2.76-.5-4.19.44-6.8" fill="#DBDEDC"/><path d="m879 188 3 1-6 11-2-1a42 42 0 0 1 5-11" fill="#E1E2E3"/><path d="M159 658h2q.33 2.94.62 5.88l.36 3.3.02 2.82-2 2c-1.79-5.17-2.12-8.51-1-14" fill="#EDF0EC"/><path d="M808 572c3.58 1.65 6.75 3.78 10 6l-2 2a69 69 0 0 1-4-1l-2 1z" fill="#DDDFDD"/><path d="M885 387h1q.3 3.13.56 6.25l.32 3.52c.1 2.75-.02 4.65-.88 7.23h-2c-.18-11.52-.18-11.52 1-17" fill="#F1F1F4"/><path d="m295 483 4 2.44 2.25 1.37L303 488v1l-3.81.12-2.15.08C295 489 295 489 292 487h2z" fill="#B9AB6F"/><path d="M407 308c3.32 2.98 5.42 5.8 7 10-.93 2.19-.93 2.19-2 4l-2.5-5.88-1.41-3.3C407 310 407 310 407 308" fill="#181819"/><path d="M864 273c1.42 4.25.19 6.72-1 11-1.95-2.92-2.45-4.63-3-8z" fill="#DBDEDB"/><path d="M417 699c-2.88 2.88-6.09 2.85-10 3a66 66 0 0 1-7-1v-1c5.72-.83 11.22-1.12 17-1" fill="#DEE1DE"/><path d="M253 500c1.81.12 1.81.12 4 1 1.95 3.21 3 5.22 3 9-2.87-1.05-3.82-1.64-5.19-4.44L254 503z" fill="#E4E5E6"/><path d="M650 258c-3.63 3.17-7.51 4.43-12 6a11.3 11.3 0 0 1 4.31-5.81c3.11-1.38 4.5-1.19 7.69-.19" fill="#E4E4E8"/><path d="M216 683c-4.71 3.74-8.02 4.11-14 4 4.78-3.19 8.22-4.27 14-4" fill="#DFE1E3"/><path d="M473 348c-1 3-1 3-2.78 4.17l-2.16 1.02-2.15 1.04C464 355 464 355 462 355v-2l4.38-2.5 2.46-1.41C471 348 471 348 473 348" fill="#ECEAEF"/><path d="m824 239-1 3-9-1v-2c3.28-1.64 6.43-.52 10 0" fill="#E1E1E4"/><path d="m239 454 4 1 1 8h-2a26 26 0 0 1-3-9" fill="#E3E2E5"/><path d="m855 223 2 2c-3.49 4-5.65 5.63-11 6l2.25-1.75A77 77 0 0 0 855 223" fill="#171817"/><path d="M980 150h14v2l-7 1v-2h-7z" fill="#F3F5F3"/><path d="m946.69 109.38 2.3.62a29 29 0 0 1-9 5c.32-1.87.32-1.87 1-4 3-2 3-2 5.7-1.62" fill="#E0E1E2"/><path d="M251 584c.71 1.77.71 1.77 1 4-1.43 1.92-1.43 1.92-3.44 3.75l-1.99 1.86L245 595c0-3.61.77-4.28 3-7l1.69-2.25z" fill="#EDEEEF"/><path d="m278 476 1.62 2.25c2.53 2.93 5.1 4.74 8.38 6.75-2.42.86-3.65 1.11-6.12.31-2.26-1.58-2.97-2.72-3.88-5.31z" fill="#291A0D"/><path d="m297 480 1 4h5v4c-2.92-1.07-4.78-1.78-7-4 .38-2.12.38-2.12 1-4" fill="#1E1408"/><path d="M359 340c-3.44 2.3-5.94 2.54-10 3v-3c3.66-.75 6.42-1.24 10 0" fill="#DFE0E3"/><path d="m523 319 3 1v2l-9 4-1-2h3v-2c1.81-1.69 1.81-1.69 4-3" fill="#E1E2E4"/><path d="M780 231v1h-11l-1-2c4.72-.92 7.67-1.23 12 1" fill="#F2F2F5"/><path d="M924 208c1 3 1 3-.25 6.12C922 217 922 217 919 218l1.38-4.44.77-2.49C922 209 922 209 924 208" fill="#E3E1E6"/><path d="M1058 136c2.5 1.69 2.5 1.69 5 4 .31 2.75.31 2.75 0 5-4.88-4.75-4.88-4.75-6-7z" fill="#DCDCDD"/><path d="M483 692v1h-5v2l-11-1v-1a107 107 0 0 1 16-1" fill="#DFE2DD"/><path d="M253 653c-1.38 3.34-2.85 5.19-6 7l-3-1 3.38-3 1.89-1.69C251 653 251 653 253 653" fill="#E2E5E2"/><path d="m379 647 2 1c-3.62 4.88-3.62 4.88-7 6l-1-3c2.05-2.25 3.01-3 6-4" fill="#1B1A1E"/><path d="M864 281c2.15 2.62 3.4 4.64 4 8h-3c-1.43-2.35-2.09-3.48-1.62-6.25z" fill="#EDECEF"/><path d="M1028 173c4.76 5.53 4.76 5.53 5 9l-2 2q-1.05-2.17-2.06-4.38l-1.16-2.46-.78-2.16z" fill="#D9D9DB"/><path d="M971 152c-.81 1.94-.81 1.94-2 4-3 1-3 1-5.19.06L962 155c5.62-3 5.62-3 9-3" fill="#DEE0DF"/><path d="m290 539 1 3c-1.4 2.26-3.2 4.02-5 6l-2-1v-2h2l.88-1.88C288 541 288 541 290 539" fill="#E0E0E3"/><path d="M250 485c2.13 3.19 2.5 5.27 3 9l-4-1z" fill="#D1D2D1"/><path d="m1076 218-1 3-7 1-1-2c5.62-2 5.62-2 9-2" fill="#E4E5E6"/><path d="M1075 160c3.09 2.53 3.91 5.22 5 9-1.94-.56-1.94-.56-4-2-.75-3.62-.75-3.62-1-7" fill="#EFEFF1"/><path d="M955 161c-.39 2.8-.8 3.82-2.94 5.75C950 168 950 168 948 168c3.14-7 3.14-7 7-7" fill="#EDEFEE"/><path d="M886 536h2c1.25 7.62 1.25 7.62-1 11z" fill="#E4E4E6"/><path d="m365 332 2 1v2c-2.31 2.19-2.31 2.19-5 4l-3-1z" fill="#252526"/><path d="M414 316c2 1.62 2 1.62 4 4 .25 3.25.25 3.25 0 6-2-1-2-1-3.12-3.31C414 320 414 320 414 316" fill="#EDEEEE"/><path d="m539.31 312.88 1.7 1.12a130 130 0 0 1-7 3l-2-1v-2c4.42-2.21 4.42-2.21 7.3-1.12" fill="#E2E1E4"/><path d="M576 294c-2.35 2.72-4.62 3.81-8 5v-3c3.23-2.15 4.28-2.2 8-2" fill="#E4E5E5"/><path d="m675.19 246.38 2.8.62c-2.97 2-5.58 2.94-9 4v-3c3-2 3-2 6.2-1.62" fill="#E4E3E8"/><path d="m861 215 2 2-6 5v-4c2-1.75 2-1.75 4-3" fill="#CECECF"/><path d="m551 569-1 3c-3.56 1.19-3.56 1.19-7 2l-2-2c6.62-3 6.62-3 10-3" fill="#DEE1DE"/><path d="m673 507-2 4h-3l-1 2v-4c3.75-2 3.75-2 6-2" fill="#E6E7E8"/><path d="m289 478 1 2h2v4h-4q-.06-2.5 0-5z" fill="#EDC260"/><path d="M436 366v2l-6 1v-3c3-1 3-1 6 0" fill="#F0F0F3"/><path d="M859 276c5 7.5 5 7.5 5 11-3-1-3-1-4.19-3.25-.81-2.75-.97-4.9-.81-7.75" fill="#171817"/><path d="M1036 190c2.69 2.69 3.06 5.38 4 9l-5-3z" fill="#D6D6D8"/><path d="m932 186 2 3c-.69 2.62-.69 2.62-2 5l-3 1z" fill="#D2D2D3"/><path d="m920 126 2 1-6 6-3-1z" fill="#E4E4E3"/><path d="m1186 698 3 2-2 4-3-2z" fill="#F4F6F5"/><path d="m325 679 2 2-3 1v3l-3 1-2-2c3.75-3 3.75-3 6-3z" fill="#191A18"/><path d="m887 676 1 3c-1.4 2.26-3.2 4.02-5 6l-1-3c1.4-2.26 3.2-4.02 5-6" fill="#A8A7A8"/><path d="m397 636 2 1c-4.75 4.88-4.75 4.88-7 6l-1-4a96 96 0 0 1 6-3" fill="#1E1E1F"/><path d="M613 538c-2.39 1.89-4.07 3.02-7 4v-3c3.62-2.12 3.62-2.12 7-1" fill="#191A18"/><path d="M269 519a56 56 0 0 1 7 4v2l-8-4z" fill="#E8E8EA"/><path d="m668 506 3 1c-2.31 2.06-2.31 2.06-5 4l-3-1c1.63-1.71 2.87-2.93 5-4" fill="#1F2122"/><path d="m234 421 3 2c.19 3.62.19 3.62 0 7l-2-1c-.59-2.65-.74-5.29-1-8" fill="#EBECEA"/><path d="M283 354c2.25-.25 2.25-.25 5 0 2.31 2 2.31 2 4 4l-9-2z" fill="#D3D4D4"/><path d="m477 344 3 3-7 3v-3c2-1.69 2-1.69 4-3" fill="#D9D8DE"/><path d="M262 344c5.75 1.75 5.75 1.75 8 4-3 1-3 1-5.69-.31L262 346z" fill="#E4E5E4"/><path d="m622 269 2 2-9 4c1-3 1-3 4.06-4.69z" fill="#E2E2E5"/><path d="m930 194 2 2-4 6c-.93-3.01-1.04-3.87 0-7z" fill="#E5E3E7"/><path d="M904 142h2c-1.27 3.91-2.51 5.79-6 8 .6-3.34 1.74-5.46 4-8" fill="#E9E7E9"/><path d="m446 483 1 2c-1.25 3.06-1.25 3.06-3 6l-3 1a104 104 0 0 1 5-9" fill="#030503"/><path d="m382 462 3 1-1 5c-2-1.38-2-1.38-4-3v-2z" fill="#23170E"/><path d="M421 339a26 26 0 0 1 3 9h-3c-.84-3.38-1.11-5.67 0-9" fill="#343635"/><path d="M1083 179c1.46 2.65 2 3.89 2 7l-2 3c-1.12-6.62-1.12-6.62 0-10" fill="#D5D8D3"/><path d="m219 697 3 3-3 2-2-3z" fill="#D6D6DB"/></svg>