<svg style="background:transparent" version="1.1" xmlns="http://www.w3.org/2000/svg" viewBox="0 0 1248 704"><path d="M754 28c2.75 2.87 2.75 2.87 5 6l2.75 2c2.91 2.58 2.94 4.19 3.25 8l.54 2.35c.5 2.86.4 5.22.12 8.11l-.28 3.16-.32 3.32c-.74 8.3-1.27 16.44-1.03 24.78C764 88 764 88 763 89q-.38 4.21-.56 8.44l-.13 2.74a615 615 0 0 0-.27 31.56l.01 2.14.05 5.74a155 155 0 0 1-.6 10.97c-.55 7.37-.61 14.7-.56 22.09l.01 4.06.05 12.7.09 20.67c.04 14.1-2.18 28.08-12.09 38.89l-5 4-1.69 2.25L741 257h-2l-.77 1.85c-1.41 2.46-2.53 3.21-4.98 4.59l-2.14 1.29L729 266a24 24 0 0 0-6 5c0 4.88.95 8.58 3 13l.77 1.88c2.38 5.67 5.36 10.85 8.49 16.12 3.57 6.14 6.59 12.23 8.74 19l1.38 2.75c3.89 7.79 6.65 15.98 9.12 24.31 2.75 9.19 2.75 9.19 5.5 11.94l1.94-1.06c3.65-1.12 6.19-.77 9.91-.22 2.15.28 2.15.28 5.03.16 2.74.16 3.32 1.15 5.12 3.12h3l.62 2c1.58 3.43 3.61 6.09 5.94 9.04 2.18 2.97 3.44 5.95 4.75 9.4 2.22 4.69 4.79 7.54 9.38 10 3.06 2.07 3.19 4.13 4.31 7.56 1.81.69 1.81.69 4 1q2.53 1.45 5 3c8.8 5.15 17.9 9.47 27.31 13.38 5.35 2.27 10.5 5 15.69 7.62l3.13 1.54c6.79 3.45 12.88 7.79 18.87 12.46l3.06 2.38a83 83 0 0 1 8.15 8.59 87 87 0 0 0 5.29 5.41A62 62 0 0 1 913 473l1.56 2.94c1.44 3.06 1.44 3.06 1.9 5.42.76 3.75 2.21 7.17 3.6 10.73 1.07 3.3 1.5 6.47 1.94 9.91l.64 3.19c4.02 22.24-3.01 47.33-15.64 65.81a78 78 0 0 1-6 7h-2l1 4c-3 2-3 2-5 2-1.11 1.43-1.11 1.43-2.31 3.31-2.63 3.82-5.2 6.19-9.88 7.13L881 595l-.88 1.88c-1.66 3.14-3.9 3.69-7.12 5.12l-3.69 1.88L865 606l-2.43 1.23c-18.83 9.1-39.82 10.96-60.45 10.89l-3.62.02-3.49-.01h-3.14c-2.73-.12-5.2-.54-7.87-1.13-2.79-.29-5.58-.5-8.38-.72A39 39 0 0 1 769 615l-2 3-2.31 1.38C762 621 762 621 759.81 623.19c-3.97 3.97-8.39 7.35-12.81 10.81l3 2c6.6 5.05 13.94 11.36 15.54 19.88.19 6.33-.64 10.99-5.04 15.74-8.86 7.45-23.45 6.78-34.44 6.26-7.54-.81-14.77-3.08-21.75-6.01C702 671 702 671 699 671l2.62 1.94c6.53 5.52 9.81 11.88 11.45 20.19C713 696 713 696 710 704h-73c-4.52-11.29-7.06-22.61-4.44-34.56.44-2.44.44-2.44.44-6.44l-2.52.04-3.29.02-3.27.04C621 663 621 663 618 662l1 3.31c1.33 5.23 1.16 10.33 1 15.69q0 3.07.19 6.12c-.2 4.03-1.06 7.03-2.44 10.77C617 700 617 700 616 704h-76c-1.13-10.14-1.13-10.14.31-14.31l.8-2.43c.85-2.16 1.81-4.2 2.89-6.26l-1.5-1.31C541 678 541 678 541 675l-4.19.44-2.35.24c-2.46.32-2.46.32-4.82.84-10.95 1.98-25.49 1.3-35.64-3.52-4.17-4.07-6.76-8.04-7-14a35 35 0 0 1 3-8l1.12-2.94c3.52-5.74 8.61-11.37 14.88-14.06v-2l-3.38-.88C499 630 499 630 497 628v-3l-2.12-.56c-3.44-1.72-5.05-3.78-7.35-6.78-1.53-1.66-1.53-1.66-3.59-2.63-2.45-1.3-2.8-2.56-3.94-5.03l-3-2.44c-3.64-2.98-6.41-6.4-9.25-10.12l-1.29-1.68A101 101 0 0 1 460 586l-1.88-2.69A104 104 0 0 1 449 565l-1.44-3.25a102 102 0 0 1-6.13-19.8C441 540 441 540 440 537l-.75-6.09c-.25-1.91-.25-1.91-.81-3.97-.67-2.96-.44-5.92-.44-8.94l-.49-2.34c-1.79-9.31-.35-18.63 2.02-27.68.47-1.98.47-1.98.72-3.95 1.49-10.07 8.8-18.06 16.42-24.37 9.36-6.67 19.65-6.82 30.78-5.14l2.55.48-.94-3.81a92 92 0 0 1-1.81-13.71c-.25-2.48-.25-2.48-.74-4.39-.84-3.46-.93-6.99-1.13-10.53l-.16-2.27c-.24-4-.11-7.37.78-11.29q.06-2.75 0-5.5c-.12-5.17.8-9.69 2-14.69a72 72 0 0 0 1.5-10c.35-3.9 1.17-7.11 2.5-10.81q.7-2.87 1.38-5.75a88 88 0 0 1 4.66-13.77 58 58 0 0 0 2.27-7.73c1.52-5.9 4.19-11.09 6.99-16.46 1.38-2.67 2.64-5.34 3.82-8.1 1.67-3.86 3.65-7.48 5.72-11.13 2.37-4.2 4.41-8.51 6.27-12.95q1.04-2.46 2.12-4.91A82 82 0 0 0 531 269l-3 1-1.91-1.72-2.59-2.34-2.78-2.51q-3.35-2.98-6.78-5.87c-9.02-7.87-15.21-15.49-18.06-27.25l-.52-1.95c-2.66-10.72-2.47-21.6-2.38-32.57.1-12.71 0-25.37-.62-38.06-.39-8.17-.43-16.32-.32-24.5.05-5.63-.22-11.13-.82-16.73-.22-2.51-.26-4.97-.22-7.5.06-4.51-.33-8.91-.78-13.4-.2-2.3-.26-4.54-.22-6.85 0-3.71-.47-7.09-1-10.75a307 307 0 0 1-1.25-25.56l-.06-2.56c-.03-5.12.66-8.36 3.31-12.88l.56-2.81L492 32l2-1 3 1c1.76-1 1.76-1 3.69-2.44C504.94 26.77 508 26.11 513 27c5.08 1.28 8.94 3.51 13.07 6.68 3.05 2.09 6.41 3.52 9.79 5.01C538 40 538 40 539.04 42.09L540 44c1.87.59 1.87.59 4 1a42 42 0 0 1 4.06 2.62 309 309 0 0 0 10.38 6.82c6.08 3.86 12.19 7.78 17.75 12.37l2.06 1.69 1.77 1.53c1.98.97 1.98.97 4.59.53 3.9-.64 7.66-.66 11.6-.61l2.42.02 5.19.05 8.23.06q11.68.06 23.37.17 7.15.07 14.31.09l5.45.05q3.81.05 7.61.05l2.26.05c5.16-.03 7.93-1.34 11.95-4.49l3.12-2.06q2.43-1.63 4.78-3.37 3.24-2.4 6.6-4.63l2.28-1.54A60 60 0 0 1 700 51l-1-3c3-2 3-2 7-2 4.23-1.82 7.77-4.16 11.44-6.94C727.86 31.37 740.73 22.56 754 28M562 665l-5 3 1 2 5-3zm-18 8 1 2 1.81-.5c2.19-.5 2.19-.5 5.19-.5l2-3c-3.95-.18-6.6-.09-10 2" fill="#141716"/><path d="M763 402c2.91 1.45 3.25 3.49 4.56 6.44 3.19 6.57 7.32 11.41 12.44 16.56l2.62 2.75c5.33 5.05 10.71 9.37 17.07 13.06l2.2 1.29c7.19 4.11 14.67 7.43 22.24 10.75 22.35 9.8 41.94 21.05 51.81 44.59 4.72 14.22 3.24 29.83-3.23 43.22-8.9 16.05-22.6 24.75-39.7 30.31-11.76 3.09-23.95 2.31-36.01 2.03.78-4.26 2.12-7.88 3.81-11.88 10.15-24.82 15.55-57.16 6.12-83.05-4.1-8.92-9.73-15.45-18.93-19.07l-2.75-1.25c-9.94-2.29-17.86-.12-27.25 3.25l.26-2.24 1.18-10.2.41-3.53.79-6.9q.32-2.78.66-5.54c.78-6.37 1.03-12.74 1.26-19.15l.13-3.35z" fill="#ECEEEE"/><path d="M754 28c2.75 2.87 2.75 2.87 5 6l2.75 2c2.91 2.58 2.94 4.19 3.25 8l.54 2.35c.5 2.86.4 5.22.12 8.11l-.28 3.16-.32 3.32c-.74 8.3-1.27 16.44-1.03 24.78C764 88 764 88 763 89q-.38 4.21-.56 8.44l-.13 2.74a615 615 0 0 0-.27 31.56l.01 2.14.05 5.74a155 155 0 0 1-.6 10.97c-.55 7.37-.61 14.7-.56 22.09l.01 4.06.05 12.7.09 20.67c.04 14.1-2.18 28.08-12.09 38.89l-5 4-1.69 2.25L741 257h-2l-.77 1.85c-1.41 2.46-2.53 3.21-4.98 4.59l-2.14 1.29L729 266a24 24 0 0 0-6 5c0 4.88.95 8.58 3 13l.77 1.88c2.38 5.67 5.36 10.85 8.49 16.12 3.57 6.14 6.59 12.23 8.74 19l1.38 2.75c3.89 7.79 6.65 15.98 9.12 24.31 2.75 9.19 2.75 9.19 5.5 11.94l1.94-1.06c3.65-1.12 6.19-.77 9.91-.22 2.15.28 2.15.28 5.03.16 2.74.16 3.32 1.15 5.12 3.12h3l.62 2c1.58 3.43 3.61 6.09 5.94 9.04 2.18 2.97 3.44 5.95 4.75 9.4 2.22 4.69 4.79 7.54 9.38 10 3.06 2.07 3.19 4.13 4.31 7.56 1.81.69 1.81.69 4 1q2.53 1.45 5 3c8.8 5.15 17.9 9.47 27.31 13.38 5.35 2.27 10.5 5 15.69 7.62l3.13 1.54c6.79 3.45 12.88 7.79 18.87 12.46l3.06 2.38a83 83 0 0 1 8.15 8.59 87 87 0 0 0 5.29 5.41A62 62 0 0 1 913 473l1.56 2.94c1.44 3.06 1.44 3.06 1.9 5.42.76 3.75 2.21 7.17 3.6 10.73 1.07 3.3 1.5 6.47 1.94 9.91l.64 3.19c4.02 22.24-3.01 47.33-15.64 65.81a78 78 0 0 1-6 7h-2l1 4c-3 2-3 2-5 2-1.11 1.43-1.11 1.43-2.31 3.31-2.63 3.82-5.2 6.19-9.88 7.13L881 595l-.88 1.88c-1.66 3.14-3.9 3.69-7.12 5.12l-3.69 1.88L865 606l-2.43 1.23c-18.83 9.1-39.82 10.96-60.45 10.89l-3.62.02-3.49-.01h-3.14c-2.73-.12-5.2-.54-7.87-1.13-2.79-.29-5.58-.5-8.38-.72A39 39 0 0 1 769 615l-2 3-2.31 1.38C762 621 762 621 759.81 623.19c-3.97 3.97-8.39 7.35-12.81 10.81l3 2c6.6 5.05 13.94 11.36 15.54 19.88.19 6.33-.64 10.99-5.04 15.74-8.86 7.45-23.45 6.78-34.44 6.26-7.54-.81-14.77-3.08-21.75-6.01C702 671 702 671 699 671l2.62 1.94c6.5 5.49 10.12 11.99 11.34 20.4.06 4.15-1.14 6.96-2.96 10.66h-2l.14-3.22c.48-15.28.48-15.28-4.14-20.78a49 49 0 0 0-17-12v-8a34 34 0 0 1 8.44 4.31c11.55 7.42 24.02 8.87 37.37 8.88l3.45.03c7.69.02 15.05-.04 21.8-4.03 3.15-5.18 2.82-10.31 1.94-16.19-2.42-6.42-7.28-11.14-13.38-14.19q-3.28-1.48-6.62-2.81v-2q2.81-2.04 5.75-3.94c7.84-5.22 14.6-11.41 21.25-18.06 2.94-.01 2.94-.01 6.56.31l3.57.3c1.95.2 3.9.39 5.84.65 34.74 4.44 72.17-.43 100.47-22.26q2.31-1.96 4.56-4l2.25-2.01C901.1 574.76 908.28 562.64 914 549l1.09-2.43c6.88-19.39 5.43-42.44-1.09-61.57l-.84-2.56c-11.27-31.46-39.13-47.9-67.6-61.4a332 332 0 0 0-13.39-5.93c-18.92-7.85-31.95-19.47-41.98-37.34l-1.81-3.21-1.61-2.93A21.7 21.7 0 0 0 778 364c-6.14-.89-10.19.13-15.27 3.61A49 49 0 0 0 758 372l-1.69-5.44-1.12-3.61q-1.2-3.94-2.29-7.9c-5.14-18.51-12.92-35.47-21.64-52.56-12.6-24.86-12.6-24.86-12.1-31.61 1.14-2.54 2.6-3.56 4.84-5.19l2.46-1.83L729 262a867 867 0 0 0 9-7l1.91-1.46c10.41-8.3 15.58-20.58 17.09-33.54.38-6.49.33-13.01.34-19.51l.05-5.76.07-12.15a8191 8191 0 0 1 .29-34.45c.16-16.35.5-32.67 1.25-49.01l.13-2.8q.53-11.88 1.41-23.74.7-9.5.77-19.02l.09-3.1c.05-6.4-.51-10.3-4.4-15.46-5-4.19-10.61-5.42-17-5-13.93 5.16-26.54 15.52-38.78 23.82a727 727 0 0 1-11.94 7.95 91 91 0 0 0-6.43 4.77c-10.5 8.27-19.53 8.92-32.58 8.72l-5.9.01q-6.15.01-12.29-.08-7.84-.08-15.67-.01-6.08.02-12.16-.03h-5.77c-12.41.05-19.75-.96-29.48-9.15a338 338 0 0 0-5.93-3.93l-5.95-3.95-3.17-2.1a435 435 0 0 1-16.45-11.46c-21.14-15.17-21.14-15.17-31.1-14.18-4.79 1.23-8.74 2.97-11.43 7.27a25.6 25.6 0 0 0-3.31 14.45l.05 2.33c.23 9 .87 17.97 1.52 26.95 1.85 26.13 2.64 52.17 2.95 78.36l.08 6.94.06 4.69a4931 4931 0 0 1 .28 25.22l.05 6.11c.26 19.68 2.79 37.16 17.35 51.51 4.05 3.62 8.66 6.48 13.21 9.43 5.48 3.69 5.48 3.69 6.93 6.82-.18 3.3-1.03 5.88-2.2 8.98l-.71 1.86q-1.1 2.85-2.23 5.7l-1.29 3.32A182 182 0 0 1 517.5 311c-10.95 19.63-18.25 41.01-23.05 62.98a151 151 0 0 1-1 4.21c-2.91 11.72-3.83 23.15-3.83 35.19v3.99c.1 9.04 1.04 17.7 2.38 26.63l.63 4.96.26 2.05.23 1.93.27 2.1.61 4.96-2.24-.66c-10.41-2.85-19.72-3.94-29.76.66-6.87 3.96-11.18 8.65-14.69 15.75l-1.76 3.48c-3.98 9.09-3.99 18.5-3.99 28.27v2.2c.12 35.87 12.98 67.42 36.44 94.3l2.44 2.87c9.62 11.04 20.68 19.7 32.56 28.13a70 70 0 0 1-7.31 4.19c-6.99 3.87-11.27 9.14-13.69 16.81-.54 3.9-.37 7.13 1.19 10.81 3.6 4.35 6.95 5.37 12.48 5.99 19.22 1.65 38.2-.18 55.04-10.45C563 661 563 661 565 661v8l-1.98.92c-8.15 3.9-14.15 7.66-18.12 16.03-1.74 5.9-1.26 11.97-.9 18.05l-4-1c-1.67-8.17.15-14.67 4-22l-1.5-1.31C541 678 541 678 541 675l-4.19.44-2.35.24c-2.46.32-2.46.32-4.82.84-10.95 1.98-25.49 1.3-35.64-3.52-4.17-4.07-6.76-8.04-7-14a35 35 0 0 1 3-8l1.12-2.94c3.52-5.74 8.61-11.37 14.88-14.06v-2l-3.38-.88C499 630 499 630 497 628v-3l-2.12-.56c-3.44-1.72-5.05-3.78-7.35-6.78-1.53-1.66-1.53-1.66-3.59-2.63-2.45-1.3-2.8-2.56-3.94-5.03l-3-2.44c-3.64-2.98-6.41-6.4-9.25-10.12l-1.29-1.68A101 101 0 0 1 460 586l-1.88-2.69A104 104 0 0 1 449 565l-1.44-3.25a102 102 0 0 1-6.13-19.8C441 540 441 540 440 537l-.75-6.09c-.25-1.91-.25-1.91-.81-3.97-.67-2.96-.44-5.92-.44-8.94l-.49-2.34c-1.79-9.31-.35-18.63 2.02-27.68.47-1.98.47-1.98.72-3.95 1.49-10.07 8.8-18.06 16.42-24.37 9.36-6.67 19.65-6.82 30.78-5.14l2.55.48-.94-3.81a92 92 0 0 1-1.81-13.71c-.25-2.48-.25-2.48-.74-4.39-.84-3.46-.93-6.99-1.13-10.53l-.16-2.27c-.24-4-.11-7.37.78-11.29q.06-2.75 0-5.5c-.12-5.17.8-9.69 2-14.69a72 72 0 0 0 1.5-10c.35-3.9 1.17-7.11 2.5-10.81q.7-2.87 1.38-5.75a88 88 0 0 1 4.66-13.77 58 58 0 0 0 2.27-7.73c1.52-5.9 4.19-11.09 6.99-16.46 1.38-2.67 2.64-5.34 3.82-8.1 1.67-3.86 3.65-7.48 5.72-11.13 2.37-4.2 4.41-8.51 6.27-12.95q1.04-2.46 2.12-4.91A82 82 0 0 0 531 269l-3 1-1.91-1.72-2.59-2.34-2.78-2.51q-3.35-2.98-6.78-5.87c-9.02-7.87-15.21-15.49-18.06-27.25l-.52-1.95c-2.66-10.72-2.47-21.6-2.38-32.57.1-12.71 0-25.37-.62-38.06-.39-8.17-.43-16.32-.32-24.5.05-5.63-.22-11.13-.82-16.73-.22-2.51-.26-4.97-.22-7.5.06-4.51-.33-8.91-.78-13.4-.2-2.3-.26-4.54-.22-6.85 0-3.71-.47-7.09-1-10.75a307 307 0 0 1-1.25-25.56l-.06-2.56c-.03-5.12.66-8.36 3.31-12.88l.56-2.81L492 32l2-1 3 1c1.76-1 1.76-1 3.69-2.44C504.94 26.77 508 26.11 513 27c5.08 1.28 8.94 3.51 13.07 6.68 3.05 2.09 6.41 3.52 9.79 5.01C538 40 538 40 539.04 42.09L540 44c1.87.59 1.87.59 4 1a42 42 0 0 1 4.06 2.62 309 309 0 0 0 10.38 6.82c6.08 3.86 12.19 7.78 17.75 12.37l2.06 1.69 1.77 1.53c1.98.97 1.98.97 4.59.53 3.9-.64 7.66-.66 11.6-.61l2.42.02 5.19.05 8.23.06q11.68.06 23.37.17 7.15.07 14.31.09l5.45.05q3.81.05 7.61.05l2.26.05c5.16-.03 7.93-1.34 11.95-4.49l3.12-2.06q2.43-1.63 4.78-3.37 3.24-2.4 6.6-4.63l2.28-1.54A60 60 0 0 1 700 51l-1-3c3-2 3-2 7-2 4.23-1.82 7.77-4.16 11.44-6.94C727.86 31.37 740.73 22.56 754 28M562 665l-5 3 1 2 5-3zm-18 8 1 2 1.81-.5c2.19-.5 2.19-.5 5.19-.5l2-3c-3.95-.18-6.6-.09-10 2" fill="#E4E5E6"/><path d="M578 496c3.4 1.13 4.15 2.1 6.38 4.81A56 56 0 0 0 593 509v2l2.2.82a53 53 0 0 1 7.68 4.12c9.91 6.04 19.79 8.88 31.48 6.6 2.3-.71 4.44-1.57 6.64-2.54l2.87-1.25a72 72 0 0 0 16.97-11.02c2-1.6 3.88-2.6 6.16-3.73 1.06-1.88 1.06-1.88 2-4 1.5-2.25 1.5-2.25 3-4h2a28.5 28.5 0 0 1-3.94 11.69l-1.59 2.82q-1.66 2.79-3.47 5.49h-2l-.76 1.79c-3.4 6.05-10.53 9.49-16.56 12.44l-3.24 1.58L640 533l.09 1.99q1.15 27 1.16 54.03v4.12c.04 24.39-.9 48.58-3.25 72.86h-1v-7h-21c-2.1-7.34-2.95-14.25-3.62-21.81l-.2-2.21c-2.95-33.69-1.87-68.3.82-101.98l-2.34-1.1c-12.85-6.2-12.85-6.2-17.66-10.9v-2l-1.75-.68c-6.68-3.91-10.82-12.42-12.87-19.64C578 497 578 497 578 496" fill="#000"/><path d="M739 469c1.76 5.28.69 10.88.31 16.38l-.27 3.95a217 217 0 0 1-4.56 30.44q-.67 3.12-1.23 6.25c-3.94 21.35-11.45 42.22-19.17 62.46-4.56 12-8.1 24.06-11.08 36.52l-1.62 6.31a146 146 0 0 0-4.13 27.82C697 662 697 662 696 664c-3.9-.58-6.2-2.27-9-5-3.52-22.3 11.3-56.18 19.09-76.6 7.28-19.28 13.9-38.7 19.16-58.63q1.09-3.98 2.29-7.92c3.61-11.92 6.23-23.94 8.54-36.16l.72-3.77.63-3.39C738 470 738 470 739 469" fill="#000201"/><path d="M513 472h1l.33 1.74c5.32 27.52 13.35 54 22.38 80.48q3.2 9.4 6.3 18.83a1525 1525 0 0 0 5.46 16.11c4.3 12.54 8.31 25.04 11.53 37.9l.84 3.37A219 219 0 0 1 565 653l.3 2.22c.14 1.84.14 1.84-.3 4.78-2.25 2.5-2.25 2.5-5 4-2.17-.41-2.17-.41-4-1l-.09-1.71c-1.02-18.06-4.12-35.52-10.01-52.65q-1.42-4.17-2.79-8.36l-2.87-8.67-1.48-4.48-2.17-6.54-.65-2A153 153 0 0 0 531 566c-5.03-13.38-8.79-27.09-12-41l-.54-2.23a117 117 0 0 1-2.52-16.65l-.48-4.99-.19-2.19C515 497 515 497 514 494q-.22-2.55-.32-5.11l-.12-2.97-.12-3.11-.13-3.14z" fill="#000201"/><path d="M632.28 204.57c3.34 1.35 4.7 2.39 6.72 5.43-.1 3.69-.92 4.92-3.43 7.69l-2.57 2.3c-2 2-2 2-3 5s-1 3-3 5c-2.81.37-4.38.4-6.81-1.11-1.68-2.65-1.4-4.81-1.2-7.88l-1.74-.75A18 18 0 0 1 611 215c-.56-3-.56-3 0-6 6.02-5.86 13.22-6.44 21.28-4.43" fill="#626463"/><path d="M488 410h1l.14 2.5c1.6 28.68 1.6 28.68 4.27 40.66.59 2.84.59 2.84.59 6.84l-2.24-.66c-10.41-2.85-19.72-3.94-29.76.66-6.87 3.96-11.18 8.65-14.69 15.75l-1.76 3.48c-3.98 9.09-3.99 18.5-3.99 28.27v2.18c-.01 14.32.99 29.56 6.52 42.93.92 2.39.92 2.39.92 5.39-1.93-.75-1.93-.75-4-2-.72-1.81-.72-1.81-1.06-4a77 77 0 0 0-2.5-10.06A65 65 0 0 1 439 529l-.56-2.06c-.67-2.96-.44-5.92-.44-8.94l-.49-2.34c-1.79-9.31-.35-18.63 2.02-27.68.47-1.98.47-1.98.72-3.95 1.49-10.07 8.8-18.06 16.42-24.37 9.36-6.67 19.65-6.82 30.78-5.14l2.55.48-.94-3.81a92 92 0 0 1-1.81-13.71c-.25-2.48-.25-2.48-.84-4.55-.49-2.33.01-3.64.59-5.93q.2-2.06.32-4.11l.12-2.28.12-2.36.13-2.4z" fill="#E9EBEB"/><path d="m798.83 572.49 3.17.5c1.12 3.76 1.12 3.76 0 6h-2l-.34 2.16c-2.05 8.83-7.73 18.05-13.66 24.85l-4 2-1 3c-3.03 1.5-5.66 1.17-9 1-2.44-1-2.44-1-4-2l2.24-1.64c2.9-2.48 4.8-4.96 6.95-8.11A108 108 0 0 1 781 595h2l.71-1.95c1.74-4.11 3.8-7.97 5.98-11.86l1.24-2.4c3.2-5.67 3.2-5.67 7.9-6.3" fill="#000101"/><path d="M492 91h2a836 836 0 0 1 1.5 32.81l.06 2.16a2014 2014 0 0 1 .71 40.8l.06 4.67.03 2.34.14 13.93.1 8.88.05 6.11c.22 16.93 2.49 31.6 11.35 46.3-5.18-2.4-7.93-5.47-10.14-10.69-4.68-13.91-5.15-28.43-4.95-42.98q.07-6.06.09-12.12l.01-2.42c.02-7.7-.28-15.37-.65-23.06-.39-8.17-.43-16.32-.32-24.5.04-4.61-.08-9.09-.57-13.66-.6-5.96-.37-11.79-.03-17.76l.16-3.17q.18-3.82.4-7.64" fill="#E3E5E4"/><path d="M762 44h1c.9 10.31 1.11 20.59 1.12 30.94l.02 3.82-.01 3.58v3.23C764 88 764 88 763 89q-.38 4.21-.56 8.44l-.14 2.8a483 483 0 0 0-.25 23.46c.09 14.06-.27 28.06-.99 42.11l-.13 2.66-.39 7.49-.12 2.24A62 62 0 0 1 759 189h-1c-.25-36.4.05-72.64 2-109l.29-5.54q.8-15.23 1.71-30.46" fill="#DDDFDD"/><path d="M616 660h20l-.14 6.21-.08 6.06-.08 4.16c-.26 10.59.59 19.04 7.3 27.57h-6c-4.8-10.97-7-22.89-4.44-34.56.44-2.44.44-2.44.44-6.44l-2.52.04-3.29.02-3.27.04C621 663 621 663 618 662l1 3.31c1.33 5.23 1.16 10.33 1 15.69q0 3.07.19 6.12c-.2 4.03-1.06 7.03-2.44 10.77A56 56 0 0 0 616 704h-6l1.06-1.98 1.38-2.64 1.37-2.61c2.17-5.04 2.31-10.04 2.29-15.48l-.01-3.77-.03-3.9-.01-3.96z" fill="#EFEFF2"/><path d="M707 187c2.9 2.61 2.9 2.61 5 5a73 73 0 0 1-9.55-2.02c-5.04-1.27-9.96-1.32-15.14-1.29l-2.94.01c-10.57.17-24.42 1.35-32.37 9.3q-2.5.06-5 0c1.38-1.5 1.38-1.5 3-3h2v-2l3.25-1.19a264 264 0 0 0 13.82-5.72c11.27-4.18 26.76-3.32 37.93.91" fill="#030504"/><path d="M601 197c-3 1-3 1-4.98.11l-2.21-1.36c-13.53-7.87-27.48-8.98-42.69-6.37l-2.23.38c-2.91.53-5.51 1.04-8.15 2.4-1.74.84-1.74.84-3.99.46L535 192c18.63-13.94 48.96-9.58 66 5" fill="#030403"/><path d="m591.72 69.63 2.35.04h2.5q4.05.02 8.12.08l5.62.03c19.23.13 38.46.63 57.7 1.22.15.33.15.33 1 2h-86c3.3-3.32 4.24-3.35 8.71-3.37" fill="#F1F2F4"/><path d="M768.38 358.38c2.84.33 5.51.63 8.38.56 2.24.06 2.24.06 3.87 1.56L782 362h3l.88 2.25A84 84 0 0 0 789 371c-3.45-1.52-6.1-3.62-9-6-3.5-1.75-7.17-1.56-11-1a35 35 0 0 0-11 8c-1.75-4.5-2.2-8.18-2-13l1.82.63c3.68.63 6.22-1.78 10.55-1.25" fill="#EDEFF1"/><path d="M493 31q2.51.43 5 1c-.97 1.98-1.96 3.93-3.06 5.85-2.78 5-3.49 8.85-3.25 14.53l.04 2.33c.18 7.09.61 14.16 1.04 21.24.56 9.42.07 18.65-.77 28.05h-1c-1.08-10.45-1.08-10.45-1-15.25 0-3.71-.47-7.09-1-10.75a307 307 0 0 1-1.25-25.56l-.06-2.56c-.03-5.12.65-8.37 3.31-12.88q.56-2.48 1-5z" fill="#E6E6E8"/><path d="m502 636 4 2-2.12 1.56c-5.86 4.97-11.07 10.56-12.16 18.48-.2 4.51.4 7.49 3.28 10.96 4.8 3.93 10.38 3.77 16.31 4.19l3.11.25q3.79.3 7.58.56v1c-19.65 2.3-19.65 2.3-28-2-3.81-3.48-5.9-6.92-6.92-11.92-.15-3.78 1.3-6.74 2.92-10.08l1.12-2.94c2.89-4.71 6.88-8.28 10.88-12.06" fill="#E1E3E3"/><path d="M440 498h1l.01 2.08c.18 17.27.4 36.3 7.07 52.55.92 2.37.92 2.37.92 5.37-1.93-.75-1.93-.75-4-2-.72-1.81-.72-1.81-1.06-4a77 77 0 0 0-2.5-10.06A65 65 0 0 1 439 529l-.62-2.19c-.38-1.81-.38-1.81.08-4.09.54-2.72.74-5.26.86-8.02l.12-2.96.12-3.05.13-3.11z" fill="#DFE2E2"/><path d="m771 613 4.44-.06 2.49-.04c3.07.1 3.07.1 6.82.57 7.56.89 15.21.9 22.81 1.09l4.79.13L824 615v2c-7.24 1.13-14.37 1.15-21.69 1.12l-3.66.02-3.54-.01h-3.19A45 45 0 0 1 784 617q-4.28-.31-8.57-.52L773 616z" fill="#EEF0EE"/><path d="M754 28c2.75 2.88 2.75 2.88 5 6l2.75 2c2.91 2.58 2.94 4.19 3.25 8l.57 2.33c.5 3.1.12 5.41-.51 8.48l-.59 2.96L764 60h-1l-.08-3.22c-.58-16.44-.58-16.44-7.3-23.16-6.76-4.19-12.94-4.29-20.56-2.62L731 32v-2c7.94-3.15 14.71-5.4 23-2" fill="#E9EAEB"/><path d="M920 509h1q.34 5.19.62 10.38l.2 2.92A62 62 0 0 1 920 541l-.88 4.56c-1.41 6.29-3.85 12.53-8.12 17.44l-2-1a91 91 0 0 1 4.44-11.25c5.49-13.11 6.04-27.71 6.56-41.75" fill="#E1E3E2"/><path d="M689 667c8.32 1.59 14.45 6.48 19.44 13.25 3.36 5.51 5.45 11.79 4 18.23-.82 2.21-.82 2.21-2.44 5.52h-2l.14-3.22c.48-15.28.48-15.28-4.14-20.78-4.77-5.05-9.4-8.75-16-11z" fill="#E1E1E4"/><path d="M478 606c3.52 2.94 6.91 5.86 10.06 9.19 7.41 7.54 16.33 13.73 24.94 19.81-2.92 1.95-4.63 2.45-8 3 0-3 0-3 1-6l-3.38-.88C499 630 499 630 497 628v-3l-2.12-.56c-3.44-1.72-5.05-3.78-7.35-6.78-1.7-1.84-3.3-2.58-5.53-3.66-1.12-2.06-1.12-2.06-2-4l-2-1z" fill="#E4E5E7"/><path d="m545 671 1 3 3-1 1 3-7 5c-2-3.75-2-3.75-2-6l-4.19.44-2.35.24c-2.46.32-2.46.32-4.77.85-3.51.61-6.96.58-10.5.53l-2.1-.01L512 677v-2l2.14-.26 9.61-1.18 3.37-.41 3.24-.4 2.98-.36c9.84-1.44 9.84-1.44 11.66-1.39" fill="#EAEDEE"/><path d="M488 410h1l.14 2.5c1.6 28.68 1.6 28.68 4.27 40.66.59 2.84.59 2.84.59 6.84l-5-1 3-2-1.44-2.44c-1.61-3.68-2.05-6.51-2.38-10.46A57 57 0 0 0 487 437c-.78-3.84-.98-6.26 0-10q.2-2.06.32-4.11l.12-2.28.25-4.76z" fill="#D9DBDC"/><path d="M492 91h2a481 481 0 0 1 1.19 32l.04 3.49v3.26l.01 2.92C495 135 495 135 493 137a246 246 0 0 1-1-46" fill="#D7DAD8"/><path d="M862 605v2c-10.01 5.36-10.01 5.36-16 6q-2.22.45-4.44.94l-2.34.51c-2.22.55-2.22.55-5.66 1.8-4.86 1.02-8.81-.01-13.56-1.25v-1l3.96-.45c11.04-1.35 21.1-3.5 31.55-7.34C859 605 859 605 862 605" fill="#E0E2E2"/><path d="m762 656 3 1c.32 5.26.06 8.64-3 13-4.9 4.73-9.19 6.41-16 6.37q-3.8-.2-7.56-.49l-3.93-.23q-4.76-.29-9.51-.65v-1l1.78-.06 8.16-.32 2.8-.09c14.43-.61 14.43-.61 20.2-4.53 2.82-4.11 3.43-8.12 4.06-13" fill="#E7EAE7"/><path d="M772 414h2v2h2c1.48 1.5 1.48 1.5 3.19 3.56 2.46 2.9 4.96 5.72 7.62 8.44l1.71 1.75C790 431 790 431 792 431l1 2 3 2-2 3a926 926 0 0 1-8-6l-3-2.25c-4.27-3.61-7.9-8.11-11-12.75z" fill="#0D0E0E"/><path d="M442 477h2c-.41 4.99-.94 9.86-2 14.75-1.8 9.25-1.69 18.85-2 28.25-3.18-3.83-3.44-6.77-3.31-11.62l.03-2.16c.13-5.57.85-10.83 2.28-16.22a264 264 0 0 0 2.06-8.75l.54-2.42z" fill="#EAEDED"/><path d="m552 673 2 2-2.19 1.38c-4.95 4.61-7.8 9.77-8.12 16.61-.05 3.68.09 7.34.31 11.01l-4-1c-1.78-8.74.15-15.45 4.94-22.94 2.04-2.99 4.08-5 7.06-7.06" fill="#E0DFE7"/><path d="M756 155h1v65l-2 1-.18-2.05-.26-2.7-.24-2.67A45 45 0 0 0 753 207l2-1z" fill="#070A09"/><path d="M496 214h1l.3 2.89c1.38 11.95 4.45 21.73 10.7 32.11-5.25-2.44-7.92-5.57-10.24-10.79-2.95-8.35-2.96-15.5-1.76-24.21" fill="#E0E3E1"/><path d="M488 389h2q-.85 19-2 38c-2.05-3.07-2.36-4.32-2.69-7.88l-.26-2.55c-.05-2.69.41-4.94.95-7.57q.06-2.75 0-5.5c-.11-5.11.72-9.58 2-14.5" fill="#EEF1F2"/><path d="M787 371c1.91.34 1.91.34 4 1a38 38 0 0 1 3 6c3.26 7.27 6.81 12.1 14 16l-2 2c-2.77-.17-3.87-.88-5.89-2.79-5.56-6.93-9.41-14.19-13.11-22.21" fill="#E6E7E9"/><path d="M490 659h1l.55 1.86.76 2.45.74 2.43c1.03 2.46 1.83 3.66 3.95 5.26 7.94 2.5 16.75 2.54 25 3v1c-21.79 2.55-21.79 2.55-29.71-3.25-2.07-2.1-3.26-3.94-3.36-6.92.26-2.21.26-2.21 1.07-5.83" fill="#DEE1E0"/><path d="M759 184h1q.29 7.58.54 15.16l.18 5.16q.14 3.7.26 7.41l.09 2.33c.11 3.83.12 6.7-2.07 9.94h-1l-.05-14.68-.03-4.99-.02-7.19-.01-2.24c0-3.76.2-7.24 1.11-10.9" fill="#F2F5F4"/><path d="M747 334c1.88.56 1.88.56 4 2a64 64 0 0 1 2 7q.74 2.54 1.5 5.06l.77 2.56q1.3 4.21 2.73 8.38h-2l-1 4-.73-2.93c-1.77-6.89-3.61-13.51-6.54-20.02C747 338 747 338 747 334" fill="#E1E4E3"/><path d="M634 677h1l.08 2.49c.47 9.36 2.01 17.07 7.92 24.51h-6c-3.2-7.31-4.5-15.2-6-23l2-1z" fill="#E1E3E5"/><path d="m855 464 .75 1.81c1.43 2.51 2.83 3.61 5.19 5.25 6.67 4.71 6.67 4.71 7.75 8.13L869 481a19 19 0 0 1-8.88-5.81A68 68 0 0 0 849 466v-1z" fill="#0C0E0E"/><path d="m763 402 2 1c.62 2.56.62 2.56 1 5h-2l.25 3.84.31 5.1.17 2.52c.33 5.65.04 10.92-.73 16.54h-2v7h-1l.18-2.88c.79-12.7 1.32-25.4 1.82-38.12" fill="#CED1D0"/><path d="m461 457 3 1a60 60 0 0 1-7.25 4.81c-5.75 4-8.6 11.14-11.75 17.19l-2-4c4.65-7.3 10.04-15.02 18-19" fill="#E2E5E6"/><path d="M896 454c5.71.78 8.66 5.71 12 10 1.74 3.03 2.9 5.7 4 9l-3 1-1.32-2.34c-3.55-6.21-7.2-12.09-11.68-17.66" fill="#E0E1E2"/><path d="M701 46q2 .47 4 1c2.25-.44 2.25-.44 4-1-1.53 4.21-4.28 5.89-7.94 8.31l-3.21 2.18L695 58l-3-1c4.62-4.88 4.62-4.88 8-6l-1-3z" fill="#E8E9EA"/><path d="M493 368h2c-.79 7.77-2.42 15.36-4 23-2-2-2-2-2.08-5.27l.27-3.98.23-3.95A26 26 0 0 1 493 368" fill="#DDE0E0"/><path d="m718 674 25 1v2c-7.6 1.12-17.94 2.53-25-1z" fill="#EDF0EE"/><path d="M718 671q6.43.17 12.88.38l3.7.09 3.54.12 3.27.09C744 672 744 672 746 674q-6.43.13-12.88.19l-3.7.07-3.54.03-3.27.05L720 674z" fill="#1C1F1D"/><path d="M778.13 359.13C780 360 780 360 782 362h3q.41 1.1.87 2.24A81 81 0 0 0 789 371a22 22 0 0 1-6.26-4c-3.54-2.58-6.48-3.12-10.75-4 3.42-4.04 3.42-4.04 6.13-3.87" fill="#E8ECEE"/><path d="M760 35c1.94 1.12 1.94 1.12 4 3 .69 2.88.69 2.88 1 6l.58 2.33c.49 3.1.11 5.42-.52 8.48l-.59 2.96L764 60h-1l-.15-3.32-.23-4.37-.09-2.18A30 30 0 0 0 760 39z" fill="#F1F4F1"/><path d="M920 509h1q.34 5.31.62 10.62l.2 3.03c.51 9.58.51 9.58-1.82 14.35l-2 1z" fill="#DBDEDC"/><path d="m895 580 1 2c-5.86 9.91-5.86 9.91-12 12h-2c1.13-3.39 2.12-4.2 4.81-6.44 2.86-2.42 5.6-4.86 8.19-7.56" fill="#DEE1DF"/><path d="m476.38 455.81 2.9-.04c2.76.23 4.37.82 6.72 2.23v2l-17-1v-2c2.57-1.29 4.5-1.17 7.38-1.19" fill="#252726"/><path d="M492 652h3v15h-3a24 24 0 0 1 0-15" fill="#1E211F"/><path d="M479 605c3.57.55 4.89 1.67 7.06 4.5 2.06 2.67 2.63 3.4 5.94 4.5l-1 4c-4.17-3.5-8.31-6.98-12-11z" fill="#202321"/><path d="M616 662h2c3.03 8.08 1.31 15.7 0 24h-1z" fill="#E2E2E7"/><path d="M862 605v2c-6.84 4.13-11.1 5.66-19 4a64 64 0 0 1 10.06-4.12l3.16-1.08c2.78-.8 2.78-.8 5.78-.8" fill="#D9DBDB"/><path d="m765 358 1.9.22 2.48.28 2.46.28c2.16.22 2.16.22 4.16.22l-1 3c-2 .77-2 .77-4.44 1.25l-2.43.52C766 364 766 364 764 363z" fill="#F4F7F8"/><path d="M440 498h1v30h-3c-.12-5.75-.12-5.75 1-8q.22-2.5.32-5.01l.37-9.27z" fill="#BCBEBD"/><path d="m920 501 2 1c.54 2.42.93 4.74 1.25 7.19l.31 2c.6 4.48.18 7.65-1.56 11.81h-1z" fill="#EFF1F1"/><path d="M478 606c4.92 4.12 9.53 8.4 14 13l-1 3-2.25-2.88c-2.08-2.52-3.8-3.7-6.75-5.12-1.12-2.06-1.12-2.06-2-4l-2-1z" fill="#EDF0EE"/><path d="M543 671h2l1 3 3-1 1 3-7 5c-1.12-1.62-1.12-1.62-2-4 .88-3.25.88-3.25 2-6" fill="#F2F1F6"/><path d="m752 673-1 3-26-1v-1l10.12-.5 2.89-.14c4.67-.23 9.31-.42 13.99-.36" fill="#C1C4C1"/><path d="M757 220c2.47 4.94 2.43 8.74 1 14l-5 4z" fill="#E5E7E8"/><path d="M543 46c3.94 1.16 6.84 2.38 10 5l3 2-1 3-5.38-3.38-3.02-1.89C544 49 544 49 542 47z" fill="#DEDFDE"/><path d="m774 612-3 2-1.88 1.94c-2.61 2.54-5.33 5.06-9.12 5.06 2.81-6.9 6.54-9.73 14-9" fill="#E0E2E2"/><path d="m867 431 9 5-1 2c-3.37.23-5.41.34-8.38-1.38L865 435v-2h2z" fill="#1C1D1E"/><path d="M812 502h1l1 9h1q.37 2.4.69 4.81l.38 2.71c-.07 2.48-.07 2.48-1.55 4.3L813 524a159 159 0 0 1-1-22" fill="#E2E5E3"/><path d="m502 673 20 1v1c-6.37.75-12.58 1.1-19 1z" fill="#D2D4D5"/><path d="m502 636 4 2a264 264 0 0 1-9 7l-2-2z" fill="#E0DFE3"/><path d="M543 671c-.72 1.96-.72 1.96-2 4-2.06.57-2.06.57-4.44.69-2.84.16-4.82.4-7.56 1.31l1-4 4.81-1 2.71-.56C540 671 540 671 543 671" fill="#E4E6E6"/><path d="M759 659c1.47 2.33 2.01 3.71 1.94 6.5-1.23 3.28-3.1 4.53-5.94 6.5l-3-2 2.38-1.56c3.18-2.96 3.73-5.26 4.62-9.44" fill="#1E221E"/><path d="M754 224c2 3 2 3 1.75 5.88A47 47 0 0 1 753 238h-3c.55-3.37 1.05-5.08 3-8q.59-2.99 1-6" fill="#1A1B1E"/><path d="M491 444h1l2 16-5-1 3-2-1.62-2.56c-1.72-4.29-.98-6.22.62-10.44" fill="#C6C9C8"/><path d="M618 675c2.54 5.08 3.38 7.49 2 13l-.56 2.31L619 692h-2z" fill="#F0F1F6"/><path d="M760 650h3c1.43 2.35 2.09 3.48 1.62 6.25L764 658h-1l-1 6h-1z" fill="#DFE0DD"/><path d="M731 296a61 61 0 0 1 6 9l-1 2c-3-1-3-1-4.75-3.81-1.24-3.15-1.53-4.16-.25-7.19" fill="#EFF2F0"/><path d="M752.38 28c3.9 1.49 5.27 3.56 7.62 7l-1 3-2.07-2.31c-3.28-3.02-5.8-4.15-9.93-5.69 3-2 3-2 5.38-2" fill="#DCDEDD"/><path d="M808 519c3 3 3 3 3.07 5.26l-.38 2.43-.37 2.45L810 531l-3 1z" fill="#1C1F1D"/><path d="M769 363c6.24-.5 10.01-.24 15 4l1 2a60 60 0 0 1-8-2v-3h-8z" fill="#1E2120"/><path d="m549 678 2 1-.94 2.31q-1.1 2.82-2.06 5.69c-2.06.69-2.06.69-4 1 1.16-3.91 2.36-6.87 5-10" fill="#272530"/><path d="M575 67c4.42 1.35 6.34 3.26 9 7-4.51-.53-7.35-2.37-11-5z" fill="#DEE0DF"/><path d="M513 29v1l-1.76.11c-5.06.43-8.78 1.26-13.24 3.89v-3c5.15-4.88 8.78-4.05 15-2" fill="#D9DBDA"/><path d="M870 543c.99 2.68 1.07 3.81.12 6.56L869 552l-1 3h-2c-.5-5.29.81-7.81 4-12" fill="#1F1F21"/><path d="m845 457 2 1q.61 3.49 1 7l-6-3 1-4 2 1z" fill="#0C0E0E"/><path d="M908 562h3c-1.06 3.4-2.01 6.01-4 9h-2a26 26 0 0 1 3-9" fill="#ECEAEE"/><path d="M492 440h2c.91 3.07 1.34 5.8 1 9l-3 2-.56-4.94-.32-2.77L491 441z" fill="#1B1D1E"/><path d="M759 427h1l1 17-3 1z" fill="#202321"/><path d="M766 408c2.4 2.88 4.47 5.56 6 9l-6-1c-1.12-5.75-1.12-5.75 0-8" fill="#DEE1E0"/><path d="M496 214h1l1 15-3-1z" fill="#C5C7C9"/><path d="m761 79 1 2h2c.3 5.28.32 6.58-3 11z" fill="#F1F4F4"/><path d="m762 656 3 1v7l-4 2z" fill="#F3F7F3"/><path d="m918 493 3 1c1.51 4.84.37 8.26-1 13h-1z" fill="#D9DBDC"/><path d="M910 473h3c3 5.75 3 5.75 3 8l-4-1z" fill="#EEEEF0"/><path d="m734 32 1 2c-1.62 2-1.62 2-4 4-3.25.25-3.25.25-6 0 2.88-2.4 5.56-4.47 9-6" fill="#1C1D1C"/><path d="M616 688c2.76 5.52 2.76 5.52 3 8-1.31 1.75-1.31 1.75-3 3h-2z" fill="#DCDEE1"/><path d="M745 631a85 85 0 0 1 2 7l-7-2v-2c2.5-1.62 2.5-1.62 5-3" fill="#DCDEDD"/><path d="m461 457 3 1a169 169 0 0 1-10 7c.12-1.75.12-1.75 1-4 2.88-2.31 2.88-2.31 6-4" fill="#D6D9DA"/><path d="m741 248 4 1-4 5-4-1z" fill="#212322"/><path d="M637 694h2l1 3h4l-1 4h-3c-3-4.22-3-4.22-3-7" fill="#1C1E1E"/><path d="M540 692h2v8h-3q-.06-3.5 0-7z" fill="#F1F3F2"/><path d="m501 624 7 2-1 5c-2.99-1.1-3.85-1.68-5.25-4.62z" fill="#1D1D1D"/><path d="m847 465 6 3-4 3v-2h-5z" fill="#E5E7E9"/><path d="M489 655h2l-1 11c-2-4-2-4-2-8z" fill="#EDF0EE"/><path d="M871 602c-1.97 2.52-2.97 2.99-6.19 3.69L862 606v-2c5.62-3.12 5.62-3.12 9-2" fill="#ECEBEE"/><path d="M836 571c-1.06 1.5-1.06 1.5-3 3-3.69.19-3.69.19-7 0 2-3 2-3 3.88-3.75 2.32-.27 3.91.04 6.12.75" fill="#242424"/><path d="M760 35c2 1.12 2 1.12 4 3 .25 3.19.25 3.19 0 6h-2c-1.5-3.37-2-5.2-2-9" fill="#EAEDEA"/><path d="M507 27q2.16.17 4.31.38l2.43.21C516 28 516 28 519 30c-3.3 1.12-5.05.9-8.25-.44l-2.14-.87L507 28z" fill="#EBECED"/><path d="M900 569h3c-1.27 3.91-2.51 5.79-6 8 1.88-6.88 1.88-6.88 3-8" fill="#0D1010"/><path d="M474 454c-1.42 2.03-2.55 2.9-4.98 3.42q-3 .35-6.02.58v-2c3.82-1.42 6.91-2.24 11-2" fill="#E4E6E9"/><path d="M517 304h3c-1.75 5.75-1.75 5.75-4 8l-2-3c1.31-2.5 1.31-2.5 3-5" fill="#DDE0E1"/><path d="m722 264 3 1c-2.31 2.5-2.31 2.5-5 5h-3c1.37-3.16 1.99-3.99 5-6" fill="#222223"/><path d="M752 624v3c-2.5 1.69-2.5 1.69-5 3l-2-2c4.75-4 4.75-4 7-4" fill="#202120"/><path d="m911 556 3 1-2 6-3-1z" fill="#DFDFE0"/><path d="M441 525h1l1 9h-3c-1.26-3.77-.37-5.37 1-9" fill="#D5D7D6"/><path d="M863 474c1.88.12 1.88.12 4 1a31 31 0 0 1 2 6c-2.44-.69-2.44-.69-5-2-.81-2.62-.81-2.62-1-5" fill="#060809"/><path d="M542 692h1l1 12-4-1z" fill="#BCBFBE"/><path d="M543 689h3l-1 11h-1z" fill="#1E2023"/><path d="M513 635c-2.92 1.95-4.63 2.45-8 3v-3c3.05-.98 4.95-.98 8 0" fill="#EDEDF1"/><path d="M919 526h1l1 10-3 2z" fill="#CDD0D0"/><path d="M490 440h1v10l-3-2z" fill="#E9EBEC"/><path d="M501 349c2 3 2 3 1.62 5.19L502 356h-3c.88-5.88.88-5.88 2-7" fill="#1E201F"/><path d="M506 329a12 12 0 0 1 1 4c-1.44 2.25-1.44 2.25-3 4l-2-2c1.75-4.88 1.75-4.88 4-6" fill="#ECEFEF"/><path d="m733 256 3 1-5 5-3-2c2.31-2.06 2.31-2.06 5-4" fill="#1E1F20"/><path d="M757 220c2 4 2 4 2 8l-3 2z" fill="#DFE1E1"/><path d="M491 75h1v10h-2l-1-7h2z" fill="#F0F3F0"/><path d="M709 691h1l1 12-3 1z" fill="#B8BABB"/><path d="m638 699 5 5h-6z" fill="#ECEEEE"/><path d="m687 660 5 2-2 1a80 80 0 0 0-2 5h-1z" fill="#D2D3D2"/><path d="m754 644 5 5c-3.11 0-4.35-.54-7-2z" fill="#1F1F22"/><path d="M475 596c1.89 2.39 3.02 4.07 4 7l-4-1a94 94 0 0 1-1-5z" fill="#1E2122"/><path d="m469 594 5 5-2 3c-1.5-1.19-1.5-1.19-3-3-.19-2.69-.19-2.69 0-5" fill="#D8DADC"/><path d="M441 534h2v9c-2.16-2.16-2.55-3.05-3-6z" fill="#EBEDED"/><path d="M789 376c2.72 2.35 3.81 4.62 5 8l-2 1c-2.29-3.44-3-4.72-3-9" fill="#222225"/><path d="M787 371c1.88.25 1.88.25 4 1a17 17 0 0 1 2 4l-3 1z" fill="#DBDEE0"/><path d="M751 348c2.13 3.19 2.5 5.27 3 9l-2 1-1.06-3.88-.6-2.17C750 350 750 350 751 348" fill="#272A28"/><path d="M496 229h3c.62 2.88.62 2.88 1 6l-2 2c-1.26-2.91-2-4.8-2-8" fill="#D7D9D9"/><path d="M563 58c2.12.94 2.12.94 4 2l-1 4c-2.5-1.38-2.5-1.38-5-3v-2z" fill="#E1E2E0"/><path d="m726 34 1 3c-3 2-3 2-5.19 1.62L720 38c2.05-2.25 3.01-3 6-4" fill="#E6E6E7"/><path d="M750 28v1h-10c3.62-3.62 5.66-2.99 10-1" fill="#F0F0F3"/><path d="M710 691a18 18 0 0 1 3 4c-.31 2.75-.31 2.75-1 5h-2z" fill="#F1F3F4"/><path d="M757 617h2l1 3-4 3-2-2c1.38-2 1.38-2 3-4" fill="#272A27"/><path d="M897 578h2l1 4-3 2-2-2z" fill="#EBECED"/><path d="m455 575 3 1 1 5c-1.94-.81-1.94-.81-4-2l-1-3z" fill="#EDEFEC"/><path d="M446 472h2c-1.75 5.75-1.75 5.75-4 8-.69-1.75-.69-1.75-1-4 1.31-2.25 1.31-2.25 3-4" fill="#D5D7D6"/><path d="M494 362h2l-1 6h-3z" fill="#EFEFF2"/><path d="m505 338 2 2-1 3h-2v3h-2c1.88-6.88 1.88-6.88 3-8" fill="#1F2122"/><path d="m614 216 6 1 1 3c-1.81.69-1.81.69-4 1-1.75-1.31-1.75-1.31-3-3z" fill="#6B6C6B"/></svg>