<svg style="background:transparent" version="1.1" xmlns="http://www.w3.org/2000/svg" viewBox="0 0 1248 704"><path d="M992.31 86.7q3.4.3 6.81.42c10.71.49 22.08 3.93 29.71 11.77 5.72 6.3 7.73 10.36 7.63 18.99-.72 4.89-3.03 8.6-6.46 12.12h-2l-.57 1.88c-2.16 3.2-4.77 3.26-8.43 4.12l-2.38 1.13c-4.22 1.4-9.56 1.9-13.62-.13-4.42-.21-8.85-.18-13.28-.18q-3.28 0-6.57-.04c-10.4-.04-19.64.64-29.15 5.22l-1.86.77c-6.43 2.83-11.12 7.42-16.14 12.23q-1.33 1.19-2.69 2.44c-5.34 5.92-9.62 11.73-11.3 19.56l-1 2.32c-1.24 3.3-1.86 6.6-2.5 10.06q-.74 3.7-1.64 7.37a31 31 0 0 0-.87 7.5c0 3.1-.85 4.9-2 7.75l-.3 3.57c-.52 4.92-2.52 9.1-4.5 13.59a47 47 0 0 0-2.33 6.84c-.88 3.04-1.87 4.6-3.87 7a246 246 0 0 0-4.32 7.32 82 82 0 0 1-6.06 8.25l-2.27 2.8A54 54 0 0 1 883 268c-1.48 1.67-1.48 1.67-2.63 3.19-2.37 2.8-2.37 2.8-5.37 3.8l-2.19 2.83c-2.52 3.17-5.08 4.55-8.73 6.2a45 45 0 0 0-5.7 3.3 129 129 0 0 1-11.63 6.43l-1.83.93A41 41 0 0 1 836 298l-3 2 1.56 2.63c7.25 12.72 12.88 25.56 16.51 39.76q.94 3.66 2.01 7.29a42 42 0 0 1 1.48 7.82q.33 3.73.9 7.42c.87 5.93 1.14 11.93 1.54 17.9l.72 10.59q.21 2.89.53 5.76c.82 7.22.88 14.36.85 21.6v3.92l-.03 10.18-.02 10.39q-.01 9.1-.05 18.2c0 5.53 0 5.53 1 7.54.07 3.5 0 7-.07 10.52.06 3.02.42 5.56 1.07 8.48v6l1 1-.07 3.13c.07 4.05.87 7.02 2.07 10.87q.46 2.16.87 4.32c.92 4.27 2.44 8.12 4.12 12.15 2.52 6.32 4.14 12.86 5.54 19.5.47 2.03.47 2.03 1.53 5.16 1.07 3.28 1.45 6.47 1.94 9.87l1.06 3.07c1.01 3.15 1.01 5.65.94 8.93l1 3v6l1 3q0 2.96-.03 5.9c.04 3.09.57 6.06 1.03 9.1.84 7.59 1.08 15.05.93 22.68.07 3.32.07 3.32.6 6.75.52 3.96.35 7.53.03 11.5l-.16 2.08-.4 4.99 3.91.36c4.97.56 9.7 1.6 14.52 2.89l2.52.67c17.13 4.74 17.13 4.74 21.05 11.08.12 3.44.12 3.44-1 7-15.09 14.48-44.2 14.39-64 16l-2.1.18c-52.25 4.17-105.84-1.27-158.09-3.9l-19.52-.96-12.6-.65c-19.58-1-39.17-.91-58.76-.92h-2.87c-31.46-.01-62.73.64-94.1 3.03l-8.72.65c-51.4 3.79-102.69 9.76-153.86 16l-2.07.25-9.56 1.17c-12 1.47-23.78 2.34-35.88 2.43h-2.13l-11.17.07-9.15.09q-5.58.07-11.16.08-2.1 0-4.2.04c-8.34.14-14.5-.47-21.8-4.68-2.26-.88-2.26-.88-4.38.03L237 701a42 42 0 0 1-10-4l1-4-4-3 2-4h2l2-4h1l2-9-1.76 1.03c-11.48 6.55-24.36 9.4-37.5 6.17-8.79-3.27-14.7-8.64-19.87-16.38-1.5-6.6-1.63-14.45 1.56-20.56L177 641l2-3h2l.78-1.8c2.9-5.21 8.47-8.2 13.97-10.07 4.88-1.31 9.47-1.26 14.5-.94 3.35-.23 5-1.26 7.75-3.2l1.88-1.27c9.53-7.07 17.95-15.4 26.31-23.78l2.57-2.56c13.08-13.1 13.08-13.1 17.24-20.38q1.47-1.53 3-3 1.29-1.58 2.56-3.18L274 565h2l.75-1.62c3.3-6.26 7.73-11.41 12.36-16.7 1.94-2.25 3.72-4.33 5.04-7.01C295 538 295 538 298 537c.56-1.93.56-1.93 1-4l2-2-3.22-1.35C288 525.48 279.51 521.72 272 514l-2.57-1.5c-9.3-5.72-14.62-20.64-17.12-30.75q-.3-1.39-.64-2.82-.74-3.16-1.66-6.3a117 117 0 0 1-2.5-11.56c-.7-3.97-1.45-7.83-2.52-11.71-1.52-5.91-1.82-12-2.37-18.04-.85-8.95-1.89-17.75-3.69-26.57a225 225 0 0 1-4.39-41.13l-.1-4.31c-.24-7.64-.4-13.9 4.98-19.85 4.45-4.1 7.3-5.82 13.44-5.7 3.5.39 6.5 1.75 9.64 3.24l2.06.95a471 471 0 0 1 14.81 7.24c9 4.54 9 4.54 13.2 6.38l2.12.94c6.66 1.43 14.27-1.71 20.68-3.38 13.22-3.37 26.22-6.23 39.9-6.82 5.57-.63 8.31-2.52 11.85-6.81 2.26-2.7 3.93-4.53 6.88-6.5l1.37-2.31c1.86-3.06 4.07-5.2 6.63-7.7.3-.37.3-.37 1.8-2.34a46 46 0 0 1 8.07-7.4l3.06-2.35A17 17 0 0 1 404 304c5.62 2.1 10.5 5.5 13.62 10.69l1.38 3.3q.46 1.15.96 2.3c3.2 7.79 5.86 15.49 7.57 23.73a20 20 0 0 0 1.47 4.42c1.3 3.32 1.88 6.67 2.53 10.16.47 2.4.47 2.4 1.03 4.46.44 1.94.44 1.94.44 5.94 14.65-5.41 28.9-13.03 42.11-21.32a193 193 0 0 1 18.18-9.78A90 90 0 0 0 505 331c3.94-2.47 8.03-4.55 12.2-6.6a992 992 0 0 0 24.26-12.52l6.8-3.6 4.37-2.33 2.03-1.07c3.51-1.86 6.93-3.82 10.34-5.88q1.89-1 3.81-1.93l2.07-1.03 4.23-2.07a140 140 0 0 0 10.9-5.97q2.46-1.07 4.96-2.11c3.27-1.43 6.42-3.07 9.6-4.7 2.44-1.2 4.91-2.2 7.43-3.2l2.87-1.42a138 138 0 0 1 15.5-6.5 124 124 0 0 0 10.38-4.2A67 67 0 0 1 648 262q6.44-1.8 12.8-3.85c5.86-1.88 11.63-3.61 17.71-4.68 3.03-.57 6-1.3 9-2.03a89 89 0 0 1 14.37-2.22c2.13-.22 4.05-.7 6.12-1.22 17.54-2.65 38.22-1.77 55.37 2.82a372 372 0 0 0 21.16 4.79c3.37.69 6.5 1.4 9.74 2.59 3.06.9 4.24.76 7.16-.38l2.36-.9c2.38-1 4.76-1.98 7.12-3.03 3.97-1.68 8.05-3.12 12.1-4.6a27 27 0 0 0 7-4.3q2.46-1.5 5-3l2.68-1.67C840 239 840 239 842 239l.75-1.87c1.25-2.13 1.25-2.13 3.11-3 6.08-3.2 10.04-11.15 13.14-17.13l1.28-2.34A55 55 0 0 0 866 198l1.12-4.62c.87-3.85.95-7.43.88-11.38q.46-2 1-4l.31-3.62c.5-4.36 2.01-8.07 3.75-12.08.86-2.1 1.4-4.1 1.94-6.3 1.21-3.05 2.61-6.02 4-9l1.13-2.5c6.84-14.48 6.84-14.48 12.87-17.5l1.31-2.31c1.9-3.01 3.87-4.54 6.7-6.7l2.15-2.26c3.37-3.24 6.97-5.75 10.84-8.35l2.11-1.45A92 92 0 0 1 944.01 93l3.36-1 3.63-1 2.6-.75a91 91 0 0 1 20.27-3.03C977 87 977 87 979.5 86.46c4.28-.78 8.5-.13 12.81.24" fill="#111411"/><path d="M992.31 86.7q3.4.3 6.81.42c10.71.49 22.08 3.93 29.71 11.77 5.72 6.3 7.73 10.36 7.63 18.99-.72 4.89-3.03 8.6-6.46 12.12h-2l-.57 1.88c-2.16 3.2-4.77 3.26-8.43 4.12l-2.38 1.13c-4.22 1.4-9.56 1.9-13.62-.13-4.42-.21-8.85-.18-13.28-.18q-3.28 0-6.57-.04c-10.4-.04-19.64.64-29.15 5.22l-1.86.77c-6.43 2.83-11.12 7.42-16.14 12.23q-1.33 1.19-2.69 2.44c-5.34 5.92-9.62 11.73-11.3 19.56l-1 2.32c-1.24 3.3-1.86 6.6-2.5 10.06q-.74 3.7-1.64 7.37a31 31 0 0 0-.87 7.5c0 3.1-.85 4.9-2 7.75l-.3 3.57c-.52 4.92-2.52 9.1-4.5 13.59a47 47 0 0 0-2.33 6.84c-.88 3.04-1.87 4.6-3.87 7a246 246 0 0 0-4.32 7.32 82 82 0 0 1-6.06 8.25l-2.27 2.8A54 54 0 0 1 883 268c-1.48 1.67-1.48 1.67-2.63 3.19-2.37 2.8-2.37 2.8-5.37 3.8l-2.19 2.83c-2.52 3.17-5.08 4.55-8.73 6.2a45 45 0 0 0-5.7 3.3 129 129 0 0 1-11.63 6.43l-1.83.93A41 41 0 0 1 836 298l-3 2 1.56 2.63c7.25 12.72 12.88 25.56 16.51 39.76q.94 3.66 2.01 7.29a42 42 0 0 1 1.48 7.82q.33 3.73.9 7.42c.87 5.93 1.14 11.93 1.54 17.9l.72 10.59q.21 2.89.53 5.76c.82 7.22.88 14.36.85 21.6v3.92l-.03 10.18-.02 10.39q-.01 9.1-.05 18.2c0 5.53 0 5.53 1 7.54.07 3.5 0 7-.07 10.52.06 3.02.42 5.56 1.07 8.48v6l1 1-.07 3.13c.07 4.05.87 7.02 2.07 10.87q.46 2.16.87 4.32c.92 4.27 2.44 8.12 4.12 12.15 2.52 6.32 4.14 12.86 5.54 19.5.47 2.03.47 2.03 1.53 5.16 1.07 3.28 1.45 6.47 1.94 9.87l1.06 3.07c1.01 3.15 1.01 5.65.94 8.93l1 3v6l1 3q0 2.96-.03 5.9c.04 3.09.57 6.06 1.03 9.1.84 7.59 1.08 15.05.93 22.68.07 3.32.07 3.32.6 6.75.52 3.96.35 7.53.03 11.5l-.16 2.08-.4 4.99 3.91.36c4.97.56 9.7 1.6 14.52 2.89l2.52.67c17.13 4.74 17.13 4.74 21.05 11.08.12 3.44.12 3.44-1 7-15.09 14.48-44.2 14.39-64 16l-2.1.18c-52.25 4.17-105.84-1.27-158.09-3.9l-19.52-.96-12.6-.65c-19.58-1-39.17-.91-58.76-.92h-2.87c-31.46-.01-62.73.64-94.1 3.03l-8.72.65c-51.4 3.79-102.69 9.76-153.86 16l-2.07.25-9.56 1.17c-10.29 1.26-20.42 2.32-30.8 2.25h-2.7l-8.44-.03-5.78-.02q-7-.01-14.03-.05c3.46-1.8 6.87-2.88 10.62-4 13.61-4.34 25.6-12.38 37.55-20.03 8.48-5.42 17.1-10.62 25.7-15.83q8.46-5.11 16.9-10.3a1010 1010 0 0 1 13.36-8.1 1058 1058 0 0 0 68.3-44.3l2.11-1.47c3.54-2.51 6.83-5.14 10.08-8.03 4.6-3.65 9.67-4.3 15.33-5.22 25.1-4.2 49.96-15.48 73.05-25.72l2.94-1.3c22.8-10.17 45.6-20.8 67.41-32.95a937 937 0 0 1 29.72-15.66l6.75-3.47 2.06-1.06A59 59 0 0 1 667 503c2.4 4.7 4.75 9.42 6.91 14.23 8.02 17.7 17.8 33.56 31.1 47.77l2.47 2.7c5.54 5.77 11.6 10.64 17.92 15.5 24.41 18.87 24.41 18.87 27.6 31.8.3 4.69.24 9.3 0 14l-2.3.49c-15.75 3.55-15.75 3.55-20.33 9.7-3.4 5.9-4.95 10.94-4.37 17.8 1.11 3.8 2.54 6.9 5.73 9.34 9.31 5 19.4 5 29.7 4.99q1.88.01 3.82.05c10 0 21.16-1.06 28.75-8.37 8.31-12.14 11.17-28.12 11.13-42.57v-15.2c.01-8.8-.17-17.48-1.13-26.23 11.47 5.69 21.38 13.8 26 26 3.16 10 4.97 19.45 4 30-1.5 1.5-2.9 1.15-5 1.25a25.4 25.4 0 0 0-16.88 8.69L810 648l-1.8 2.57a31 31 0 0 0 0 20c4 5.38 9.3 8.54 15.84 9.84 15.64 1.94 32.21 2.1 45.83-6.73 7.13-5.6 9.07-12.94 10.13-21.68.15-2.9.18-5.78.2-8.67l.02-2.52q.03-4.05.03-8.12v-2.81c-.03-36.73-4.98-70.92-16.19-105.94l-.95-3.02q-.88-2.78-1.8-5.55c-4.07-12.83-4.65-26.66-5.4-40.02l-.14-2.17c-1.1-19.48-1.15-38.97-1.23-58.47-.15-36.43-2.48-71.2-19.6-104.02l-.96-1.81q-1.05-2.01-2.15-4.01l-1.14-2.14-1.05-1.94c-.64-1.8-.64-1.8.36-4.8 1.7-.92 1.7-.92 3.91-1.71l2.47-.93 2.68-.97c14.32-5.5 26.4-12.26 37.94-22.38l2.54-1.96c12.88-10.67 22.2-27.41 27.46-43.04l.74-2.17c2.33-7.22 3.46-14.53 4.63-22.01 3.9-23.37 10.8-42.07 30.56-56.63 13.18-8.78 26.46-11.48 42-11.11l5.66.08q4.38.05 8.78.17c21.55.5 21.55.5 28.63-5.33 2.62-3.13 4.52-5.91 5-10l.43-3.62c-.13-5.76-2.65-10.14-6.43-14.38-11.68-8.32-25.92-9.51-39.8-9.31l-2 .02c-32.15.3-61.43 9.07-85 31.6-12.68 13.25-20.95 28.94-25.2 46.69l-.8 3.26a184 184 0 0 0-3.22 18.6c-1.16 9.06-2.6 17-6.98 25.14l-1.38 2.63c-11.28 20.1-31.53 31.63-52.5 39.44l-3.24 1.23c-6.12 2.18-10.57 3.34-16.88 1.7l-2.64-.61q-4.57-1.1-9.1-2.26c-17.6-4.26-33.92-6.4-52-6.44l-2.39-.01c-14.45-.03-28.45 1.2-42.56 4.57l-2.79.66C639.57 266.2 603.45 282.7 568 301l-2.7 1.4q-6.89 3.56-13.7 7.22l-9.03 4.8a2621 2621 0 0 0-45.1 24.65 1949 1949 0 0 1-45.35 24.75l-2.8 1.47c-12.95 6.7-12.95 6.7-18.32 6.7l-.35-1.64a390 390 0 0 0-8.22-32.6l-.84-2.8c-6.38-20.53-6.38-20.53-12.9-25.82-3.64-1.52-5.77-1.72-9.69-1.13-8.94 4.75-16.26 13.7-22.44 21.5-12.7 15.62-12.7 15.62-22.43 17.1q-3.78.35-7.57.59-4.12.37-8.2.8c-.36.05-.36.05-2.1.22-8.64.95-16.9 3.2-25.26 5.5-8.88 2.43-14.95 3.3-23.5-.71l-2.08-.94a235 235 0 0 1-14.42-7.31c-8.53-4.61-16-8.42-26-6.75-3.93 2.8-5.48 5.52-7 10-.42 3.72-.33 7.45-.3 11.19v3.33c.22 16.63 2.36 33 5.9 49.23a135 135 0 0 1 2.33 17.44c2.08 25.67 7.1 63.76 26.57 82.44 9.74 8.25 20.18 13.27 32.5 16.37-.6 3.28-1.7 5.24-3.78 7.84l-1.73 2.2-1.87 2.34c-.3.4-.3.4-1.9 2.42l-3.88 4.88a587 587 0 0 0-4.9 6.27 271 271 0 0 1-14.79 17.66 165 165 0 0 0-6.22 7.46c-6.52 8.05-13.74 15.48-20.93 22.93q-.89.94-1.84 1.9c-6.67 6.9-13.42 13.4-21.16 19.1l-1.87 1.56c-5.45 4.13-10.89 3.97-17.57 4.2-7.76.52-14.18 3.86-19.69 9.37-4.78 7.33-7.52 15.08-5.87 23.87 2.72 6.86 7.04 10.17 13.63 13.13 10.15 3.75 23.46 3.19 33.37-1.13 3.4-1.56 6.7-3.24 10-5l4-2-1 3.19c-1.7 6.95-2.3 14.54.37 21.25 6.44 6.29 13.98 9.47 22.63 11.56v1c-6.65.63-10.64-.94-16.49-4.1-2.5-.9-2.5-.9-4.65 0L237 701a42 42 0 0 1-10-4l1-4-4-3 2-4h2l2-4h1l2-9-1.76 1.03c-11.48 6.55-24.36 9.4-37.5 6.17-8.79-3.27-14.7-8.64-19.87-16.38-1.5-6.6-1.63-14.45 1.56-20.56L177 641l2-3h2l.78-1.8c2.9-5.21 8.47-8.2 13.97-10.07 4.88-1.31 9.47-1.26 14.5-.94 3.35-.23 5-1.26 7.75-3.2l1.88-1.27c9.53-7.07 17.95-15.4 26.31-23.78l2.57-2.56c13.08-13.1 13.08-13.1 17.24-20.38q1.47-1.53 3-3 1.29-1.58 2.56-3.18L274 565h2l.75-1.62c3.3-6.26 7.73-11.41 12.36-16.7 1.94-2.25 3.72-4.33 5.04-7.01C295 538 295 538 298 537c.56-1.93.56-1.93 1-4l2-2-3.22-1.35C288 525.48 279.51 521.72 272 514l-2.57-1.5c-9.3-5.72-14.62-20.64-17.12-30.75q-.3-1.39-.64-2.82-.74-3.16-1.66-6.3a117 117 0 0 1-2.5-11.56c-.7-3.97-1.45-7.83-2.52-11.71-1.52-5.91-1.82-12-2.37-18.04-.85-8.95-1.89-17.75-3.69-26.57a225 225 0 0 1-4.39-41.13l-.1-4.31c-.24-7.64-.4-13.9 4.98-19.85 4.45-4.1 7.3-5.82 13.44-5.7 3.5.39 6.5 1.75 9.64 3.24l2.06.95a471 471 0 0 1 14.81 7.24c9 4.54 9 4.54 13.2 6.38l2.12.94c6.66 1.43 14.27-1.71 20.68-3.38 13.22-3.37 26.22-6.23 39.9-6.82 5.57-.63 8.31-2.52 11.85-6.81 2.26-2.7 3.93-4.53 6.88-6.5l1.37-2.31c1.86-3.06 4.07-5.2 6.63-7.7.3-.37.3-.37 1.8-2.34a46 46 0 0 1 8.07-7.4l3.06-2.35A17 17 0 0 1 404 304c5.62 2.1 10.5 5.5 13.62 10.69l1.38 3.3q.46 1.15.96 2.3c3.2 7.79 5.86 15.49 7.57 23.73a20 20 0 0 0 1.47 4.42c1.3 3.32 1.88 6.67 2.53 10.16.47 2.4.47 2.4 1.03 4.46.44 1.94.44 1.94.44 5.94 14.65-5.41 28.9-13.03 42.11-21.32a193 193 0 0 1 18.18-9.78A90 90 0 0 0 505 331c3.94-2.47 8.03-4.55 12.2-6.6a992 992 0 0 0 24.26-12.52l6.8-3.6 4.37-2.33 2.03-1.07c3.51-1.86 6.93-3.82 10.34-5.88q1.89-1 3.81-1.93l2.07-1.03 4.23-2.07a140 140 0 0 0 10.9-5.97q2.46-1.07 4.96-2.11c3.27-1.43 6.42-3.07 9.6-4.7 2.44-1.2 4.91-2.2 7.43-3.2l2.87-1.42a138 138 0 0 1 15.5-6.5 124 124 0 0 0 10.38-4.2A67 67 0 0 1 648 262q6.44-1.8 12.8-3.85c5.86-1.88 11.63-3.61 17.71-4.68 3.03-.57 6-1.3 9-2.03a89 89 0 0 1 14.37-2.22c2.13-.22 4.05-.7 6.12-1.22 17.54-2.65 38.22-1.77 55.37 2.82a372 372 0 0 0 21.16 4.79c3.37.69 6.5 1.4 9.74 2.59 3.06.9 4.24.76 7.16-.38l2.36-.9c2.38-1 4.76-1.98 7.12-3.03 3.97-1.68 8.05-3.12 12.1-4.6a27 27 0 0 0 7-4.3q2.46-1.5 5-3l2.68-1.67C840 239 840 239 842 239l.75-1.87c1.25-2.13 1.25-2.13 3.11-3 6.08-3.2 10.04-11.15 13.14-17.13l1.28-2.34A55 55 0 0 0 866 198l1.12-4.62c.87-3.85.95-7.43.88-11.38q.46-2 1-4l.31-3.62c.5-4.36 2.01-8.07 3.75-12.08.86-2.1 1.4-4.1 1.94-6.3 1.21-3.05 2.61-6.02 4-9l1.13-2.5c6.84-14.48 6.84-14.48 12.87-17.5l1.31-2.31c1.9-3.01 3.87-4.54 6.7-6.7l2.15-2.26c3.37-3.24 6.97-5.75 10.84-8.35l2.11-1.45A92 92 0 0 1 944.01 93l3.36-1 3.63-1 2.6-.75a91 91 0 0 1 20.27-3.03C977 87 977 87 979.5 86.46c4.28-.78 8.5-.13 12.81.24" fill="#BABCBA"/><path d="M666 503c3.42 3.13 4.81 6.86 6.56 11.06 12.52 28.97 30.68 52.24 55.56 71.56 17.66 13.73 17.66 13.73 22.88 24.38l1.15 2.34c1.09 3.42 1.04 6.39.97 9.97l-.05 3.8L753 629l-2.31.48A57 57 0 0 0 732 637l-2 1v-2l-2.4.02c-7.72.03-15.4-.17-23.11-.51-14.44-.58-28.85-.69-43.3-.71l-4.01-.01-18.91-.03q-9.57 0-19.14-.04c-35.63-.14-71.05.55-106.61 3.1q-5.42.38-10.85.74-9.34.63-18.67 1.38l-3.19.25c-27.68 2.17-55.12 5.15-82.51 9.66A536 536 0 0 1 374 653v-3c1.49-1.22 1.49-1.22 3.6-2.43l2.39-1.39 2.63-1.49 5.56-3.26 2.92-1.71c19.97-11.86 39.35-24.92 58.34-38.28l2.1-1.48a116 116 0 0 0 10.08-8.02c4.6-3.65 9.68-4.29 15.33-5.22 25.1-4.2 49.96-15.48 73.05-25.72l2.94-1.3c22.8-10.17 45.6-20.79 67.41-32.96 9.03-5.02 18.21-9.72 27.4-14.43l2.4-1.23C662.6 504.7 662.6 504.7 666 503" fill="#ECEEEC"/><path d="M992.31 86.7q3.4.3 6.81.42c10.71.49 22.08 3.93 29.71 11.77 5.72 6.3 7.73 10.36 7.63 18.99-.72 4.89-3.03 8.6-6.46 12.12h-2l-.57 1.88c-2.16 3.2-4.77 3.26-8.43 4.12l-2.38 1.13c-4.22 1.4-9.56 1.9-13.62-.13-4.42-.21-8.85-.18-13.28-.18q-3.28 0-6.57-.04c-10.4-.04-19.64.64-29.15 5.22l-1.86.77c-6.43 2.83-11.12 7.42-16.14 12.23q-1.33 1.19-2.69 2.44c-5.34 5.92-9.62 11.73-11.3 19.56l-1 2.32c-1.24 3.3-1.86 6.6-2.5 10.06q-.74 3.7-1.64 7.37a31 31 0 0 0-.87 7.5c0 3.1-.85 4.9-2 7.75l-.3 3.57c-.52 4.92-2.52 9.1-4.5 13.59a47 47 0 0 0-2.33 6.84c-.88 3.04-1.87 4.6-3.87 7a246 246 0 0 0-4.32 7.32 82 82 0 0 1-6.06 8.25l-2.27 2.8A54 54 0 0 1 883 268c-1.48 1.67-1.48 1.67-2.63 3.19-2.37 2.8-2.37 2.8-5.37 3.8l-2.19 2.83c-2.52 3.17-5.08 4.55-8.73 6.2a45 45 0 0 0-5.7 3.3 129 129 0 0 1-11.63 6.43l-1.83.93A41 41 0 0 1 836 298l-3 2 1.56 2.63c7.25 12.72 12.88 25.56 16.51 39.76q.94 3.66 2.01 7.29a42 42 0 0 1 1.48 7.82q.33 3.73.9 7.42c.87 5.93 1.14 11.93 1.54 17.9l.72 10.59q.21 2.89.53 5.76c.82 7.22.88 14.36.85 21.6v3.92l-.03 10.18-.02 10.39q-.01 9.1-.05 18.2c0 5.53 0 5.53 1 7.54.07 3.5 0 7-.07 10.52.06 3.02.42 5.56 1.07 8.48v6l1 1-.07 3.13c.07 4.05.87 7.02 2.07 10.87q.46 2.16.87 4.32c.92 4.27 2.44 8.12 4.12 12.15 2.52 6.32 4.14 12.86 5.54 19.5.47 2.03.47 2.03 1.53 5.16 1.07 3.28 1.45 6.47 1.94 9.87l1.06 3.07c1.01 3.15 1.01 5.65.94 8.93l1 3v6l1 3q0 2.96-.03 5.9c.04 3.09.57 6.06 1.03 9.1.84 7.59 1.08 15.05.93 22.68.07 3.32.07 3.32.6 6.75.52 3.96.35 7.53.03 11.5l-.16 2.08-.4 4.99 3.91.36c4.97.56 9.7 1.6 14.52 2.89l2.52.67c17.13 4.74 17.13 4.74 21.05 11.08.12 3.44.12 3.44-1 7-15.09 14.48-44.2 14.39-64 16l-2.1.18c-52.25 4.17-105.84-1.27-158.09-3.9l-19.52-.96-12.6-.65c-19.58-1-39.17-.91-58.76-.92h-2.87c-31.46-.01-62.73.64-94.1 3.03l-8.72.65c-51.4 3.79-102.69 9.76-153.86 16l-2.07.25-9.56 1.17c-10.5 1.29-20.85 2.32-31.44 2.22l-2.74-.02L298 704v-1c10.9-1.74 21.81-2.55 32.83-3.21 6.34-.4 12.46-1.1 18.7-2.32 3.57-.67 7.16-1.01 10.78-1.34 8.55-.83 17.05-1.96 25.56-3.13a713 713 0 0 1 33.26-3.73q8.7-.81 17.37-1.7l3.35-.34 3.5-.35 3.92-.4q5.46-.54 10.9-1.15a1415 1415 0 0 1 58.52-5.01l2.51-.17c68.54-4.5 137.56-3.26 206.06 1.35l9.85.64c27.6 1.8 55.21 2.13 82.86 2.23q4.1.01 8.21.05c18.06.14 35.95 0 53.9-2.2l3.88-.46c11.65-1.58 23.85-3.71 34.44-9.02 1.6-.74 1.6-.74 3.6-.74l1-8c-9.74-8.07-25.03-9.84-37.07-12.5C884 651 884 651 882 650l-.14-3.13c-1.86-42.37-4.79-82.3-17.8-122.93l-.95-3.02q-.88-2.78-1.8-5.55c-4.07-12.83-4.65-26.66-5.4-40.02l-.14-2.17c-1.1-19.48-1.15-38.97-1.23-58.47-.15-36.43-2.48-71.2-19.6-104.02l-.96-1.81q-1.05-2.01-2.15-4.01l-1.14-2.14-1.05-1.94c-.64-1.8-.64-1.8.36-4.8 1.7-.92 1.7-.92 3.91-1.71l2.47-.93 2.68-.97c14.32-5.5 26.4-12.26 37.94-22.38l2.54-1.96c12.88-10.67 22.2-27.41 27.46-43.04l.74-2.17c2.33-7.22 3.46-14.53 4.63-22.01 3.9-23.37 10.8-42.07 30.56-56.63 13.18-8.78 26.46-11.48 42-11.11l5.66.08q4.38.05 8.78.17c21.55.5 21.55.5 28.63-5.33 2.62-3.13 4.52-5.91 5-10l.43-3.62c-.13-5.76-2.65-10.14-6.43-14.38-11.68-8.32-25.92-9.51-39.8-9.31l-2 .02c-32.15.3-61.43 9.07-85 31.6-12.68 13.25-20.95 28.94-25.2 46.69l-.8 3.26a184 184 0 0 0-3.22 18.6c-1.16 9.06-2.6 17-6.98 25.14l-1.38 2.63c-11.28 20.1-31.53 31.63-52.5 39.44l-3.24 1.23c-6.12 2.18-10.57 3.34-16.88 1.7l-2.64-.61q-4.57-1.1-9.1-2.26c-17.6-4.26-33.92-6.4-52-6.44l-2.39-.01c-14.45-.03-28.45 1.2-42.56 4.57l-2.79.66C639.57 266.2 603.45 282.7 568 301l-2.7 1.4q-6.89 3.56-13.7 7.22l-9.03 4.8a2621 2621 0 0 0-45.1 24.65 1949 1949 0 0 1-45.35 24.75l-2.8 1.47c-12.95 6.7-12.95 6.7-18.32 6.7l-.35-1.64a390 390 0 0 0-8.22-32.6l-.84-2.8c-6.38-20.53-6.38-20.53-12.9-25.82-3.64-1.52-5.77-1.72-9.69-1.13-8.94 4.75-16.26 13.7-22.44 21.5-12.7 15.62-12.7 15.62-22.43 17.1q-3.78.35-7.57.59-4.12.37-8.2.8c-.36.05-.36.05-2.1.22-8.64.95-16.9 3.2-25.26 5.5-8.88 2.43-14.95 3.3-23.5-.71l-2.08-.94a235 235 0 0 1-14.42-7.31c-8.53-4.61-16-8.42-26-6.75-3.93 2.8-5.48 5.52-7 10-.42 3.72-.33 7.45-.3 11.19v3.33c.22 16.63 2.36 33 5.9 49.23a135 135 0 0 1 2.33 17.44c2.08 25.67 7.1 63.76 26.57 82.44 9.74 8.25 20.18 13.27 32.5 16.37-.6 3.28-1.7 5.24-3.78 7.84l-1.73 2.2-1.87 2.34c-.3.4-.3.4-1.9 2.42l-3.88 4.88a587 587 0 0 0-4.9 6.27 271 271 0 0 1-14.79 17.66 165 165 0 0 0-6.22 7.46c-6.52 8.05-13.74 15.48-20.93 22.93q-.89.94-1.84 1.9c-6.67 6.9-13.42 13.4-21.16 19.1l-1.87 1.56c-5.45 4.13-10.89 3.97-17.57 4.2-7.76.52-14.18 3.86-19.69 9.37-4.78 7.33-7.52 15.08-5.87 23.87 2.72 6.86 7.04 10.17 13.63 13.13 10.15 3.75 23.46 3.19 33.37-1.13 3.4-1.56 6.7-3.24 10-5l4-2-1 3.19c-1.7 6.95-2.3 14.54.37 21.25 6.44 6.29 13.98 9.47 22.63 11.56v1c-6.65.63-10.64-.94-16.49-4.1-2.5-.9-2.5-.9-4.65 0L237 701a42 42 0 0 1-10-4l1-4-4-3 2-4h2l2-4h1l2-9-1.76 1.03c-11.48 6.55-24.36 9.4-37.5 6.17-8.79-3.27-14.7-8.64-19.87-16.38-1.5-6.6-1.63-14.45 1.56-20.56L177 641l2-3h2l.78-1.8c2.9-5.21 8.47-8.2 13.97-10.07 4.88-1.31 9.47-1.26 14.5-.94 3.35-.23 5-1.26 7.75-3.2l1.88-1.27c9.53-7.07 17.95-15.4 26.31-23.78l2.57-2.56c13.08-13.1 13.08-13.1 17.24-20.38q1.47-1.53 3-3 1.29-1.58 2.56-3.18L274 565h2l.75-1.62c3.3-6.26 7.73-11.41 12.36-16.7 1.94-2.25 3.72-4.33 5.04-7.01C295 538 295 538 298 537c.56-1.93.56-1.93 1-4l2-2-3.22-1.35C288 525.48 279.51 521.72 272 514l-2.57-1.5c-9.3-5.72-14.62-20.64-17.12-30.75q-.3-1.39-.64-2.82-.74-3.16-1.66-6.3a117 117 0 0 1-2.5-11.56c-.7-3.97-1.45-7.83-2.52-11.71-1.52-5.91-1.82-12-2.37-18.04-.85-8.95-1.89-17.75-3.69-26.57a225 225 0 0 1-4.39-41.13l-.1-4.31c-.24-7.64-.4-13.9 4.98-19.85 4.45-4.1 7.3-5.82 13.44-5.7 3.5.39 6.5 1.75 9.64 3.24l2.06.95a471 471 0 0 1 14.81 7.24c9 4.54 9 4.54 13.2 6.38l2.12.94c6.66 1.43 14.27-1.71 20.68-3.38 13.22-3.37 26.22-6.23 39.9-6.82 5.57-.63 8.31-2.52 11.85-6.81 2.26-2.7 3.93-4.53 6.88-6.5l1.37-2.31c1.86-3.06 4.07-5.2 6.63-7.7.3-.37.3-.37 1.8-2.34a46 46 0 0 1 8.07-7.4l3.06-2.35A17 17 0 0 1 404 304c5.62 2.1 10.5 5.5 13.62 10.69l1.38 3.3q.46 1.15.96 2.3c3.2 7.79 5.86 15.49 7.57 23.73a20 20 0 0 0 1.47 4.42c1.3 3.32 1.88 6.67 2.53 10.16.47 2.4.47 2.4 1.03 4.46.44 1.94.44 1.94.44 5.94 14.65-5.41 28.9-13.03 42.11-21.32a193 193 0 0 1 18.18-9.78A90 90 0 0 0 505 331c3.94-2.47 8.03-4.55 12.2-6.6a992 992 0 0 0 24.26-12.52l6.8-3.6 4.37-2.33 2.03-1.07c3.51-1.86 6.93-3.82 10.34-5.88q1.89-1 3.81-1.93l2.07-1.03 4.23-2.07a140 140 0 0 0 10.9-5.97q2.46-1.07 4.96-2.11c3.27-1.43 6.42-3.07 9.6-4.7 2.44-1.2 4.91-2.2 7.43-3.2l2.87-1.42a138 138 0 0 1 15.5-6.5 124 124 0 0 0 10.38-4.2A67 67 0 0 1 648 262q6.44-1.8 12.8-3.85c5.86-1.88 11.63-3.61 17.71-4.68 3.03-.57 6-1.3 9-2.03a89 89 0 0 1 14.37-2.22c2.13-.22 4.05-.7 6.12-1.22 17.54-2.65 38.22-1.77 55.37 2.82a372 372 0 0 0 21.16 4.79c3.37.69 6.5 1.4 9.74 2.59 3.06.9 4.24.76 7.16-.38l2.36-.9c2.38-1 4.76-1.98 7.12-3.03 3.97-1.68 8.05-3.12 12.1-4.6a27 27 0 0 0 7-4.3q2.46-1.5 5-3l2.68-1.67C840 239 840 239 842 239l.75-1.87c1.25-2.13 1.25-2.13 3.11-3 6.08-3.2 10.04-11.15 13.14-17.13l1.28-2.34A55 55 0 0 0 866 198l1.12-4.62c.87-3.85.95-7.43.88-11.38q.46-2 1-4l.31-3.62c.5-4.36 2.01-8.07 3.75-12.08.86-2.1 1.4-4.1 1.94-6.3 1.21-3.05 2.61-6.02 4-9l1.13-2.5c6.84-14.48 6.84-14.48 12.87-17.5l1.31-2.31c1.9-3.01 3.87-4.54 6.7-6.7l2.15-2.26c3.37-3.24 6.97-5.75 10.84-8.35l2.11-1.45A92 92 0 0 1 944.01 93l3.36-1 3.63-1 2.6-.75a91 91 0 0 1 20.27-3.03C977 87 977 87 979.5 86.46c4.28-.78 8.5-.13 12.81.24" fill="#E4E4E6"/><path d="m409 311 2.11.33c2.6.92 3 1.95 4.2 4.42 5.86 12.66 9.59 26.37 13.19 39.81l.81 2.98.72 2.78.64 2.45c.35 2.39.08 3.95-.67 6.23v-2h-2v13a139 139 0 0 1-5-5v-2l-5-2v-2l-4-1v-2l-2.16-.82a92 92 0 0 1-8.28-4.06c-9.36-4.72-19.37-6.91-29.56-9.12l-2-1c-.12-5.75-.12-5.75 1-8h2l.69-2.55c1.55-4.09 3.71-7.15 6.31-10.64l2.69-3.67L387 324l2-3h2v-2h2l.7-1.82c1.66-2.79 3.28-3.57 6.18-4.99l2.61-1.33c2.81-.96 3.78-.85 6.51.14" fill="#232521"/><path d="m857 415 2 1v53l1 2c.07 3.51 0 7.01-.06 10.52.05 3.01.41 5.56 1.06 8.48v6l1 1-.06 3.12c.06 4.05.86 7.03 2.06 10.88l.88 4.31c.91 4.28 2.43 8.12 4.11 12.15 2.52 6.33 4.14 12.87 5.54 19.52.47 2.02.47 2.02 1.53 5.14 1.07 3.28 1.45 6.47 1.94 9.88l1.06 3.06c1.01 3.15 1.01 5.65.94 8.94l1 3v6l1 3q0 2.96-.03 5.91c.04 3.07.57 6.05 1.03 9.09.84 7.58 1.08 15.05.94 22.68.06 3.32.06 3.32.59 6.74.52 3.96.35 7.54.03 11.52l-.16 2.07q-.18 2.5-.4 4.99l3.91.36c4.97.56 9.7 1.6 14.53 2.89l2.51.67c17.13 4.73 17.13 4.73 21.05 11.08.12 3.44.12 3.44-1 7-15.09 14.47-44.21 14.39-64 16l-2.09.18c-52.25 4.16-105.84-1.27-158.1-3.9l-19.52-.97q-6.3-.3-12.61-.64c-19.56-.99-39.16-.91-58.74-.92h-2.88c-31.45-.02-62.73.63-94.11 3.03l-8.71.64c-51.41 3.8-102.69 9.77-153.85 16l-2.08.26q-4.78.57-9.56 1.17c-10.51 1.28-20.84 2.32-31.44 2.21l-2.74-.01L298 704v-1c10.9-1.74 21.82-2.56 32.83-3.21 6.35-.41 12.46-1.1 18.69-2.33 3.58-.67 7.17-1.01 10.79-1.34 8.55-.83 17.05-1.95 25.57-3.12a700 700 0 0 1 33.25-3.74q8.68-.81 17.37-1.7l3.35-.33 3.49-.35 3.93-.39 10.91-1.16a1396 1396 0 0 1 58.51-5.02l2.51-.16c68.54-4.51 137.56-3.26 206.07 1.34l7.73.51 2.11.14c27.6 1.8 55.21 2.12 82.86 2.22q4.1.01 8.21.06c18.06.13 35.95-.01 53.9-2.19l3.88-.47c11.65-1.58 23.85-3.71 34.44-9.03 1.6-.73 1.6-.73 3.6-.73l1-8c-9.74-8.08-25.03-9.85-37.07-12.51C884 651 884 651 882 650l-.14-3.13c-1.86-42.38-4.79-82.29-17.8-122.94-3.51-11.04-6.24-21.35-7.06-32.93l-.33-3.9a263 263 0 0 1-.72-20.22v-2.33c.03-9.89.3-19.78.55-29.67l.14-5.83z" fill="#E8EAE9"/><path d="M999.41 87.76A40.7 40.7 0 0 1 1027 97c6.59 6.77 9.58 11.25 9.46 20.87-.72 4.9-3.03 8.6-6.46 12.13h-2l-.56 1.88c-2.16 3.19-4.78 3.25-8.44 4.12l-2.38 1.13c-4.21 1.4-9.56 1.9-13.62-.13-4.42-.21-8.85-.18-13.27-.18l-6.57-.04c-10.41-.04-19.65.64-29.16 5.22l-1.86.77c-6.43 2.82-11.11 7.42-16.14 12.23l-2.69 2.44c-5.33 5.9-9.62 11.72-11.31 19.56l-1 2.3c-1.23 3.32-1.84 6.62-2.49 10.08q-.74 3.7-1.64 7.37a31 31 0 0 0-.87 7.5c0 3.1-.84 4.9-2 7.75l-.31 3.56c-.51 4.93-2.51 9.1-4.49 13.6a47 47 0 0 0-2.33 6.84c-.88 3.04-1.87 4.6-3.87 7a246 246 0 0 0-4.32 7.3 80 80 0 0 1-6.06 8.26l-2.27 2.82A54 54 0 0 1 883 268c-1.48 1.67-1.48 1.67-2.63 3.19-2.37 2.8-2.37 2.8-5.37 3.8-.36.48-.36.48-2.19 2.82-2.52 3.17-5.08 4.56-8.73 6.2a47 47 0 0 0-5.71 3.3 128 128 0 0 1-11.62 6.44q-.9.44-1.83.93A40 40 0 0 1 836 298l-3 2 1.56 2.63c7.25 12.72 12.88 25.56 16.51 39.76q.94 3.66 2.01 7.29a42 42 0 0 1 1.48 7.82c.23 2.5.51 4.94.9 7.42.87 5.93 1.14 11.92 1.54 17.89 1 14.73 1 14.73 1.81 22.05.3 3.39.25 6.74.19 10.14h-2v42h-2l-.02-2.63a6949 6949 0 0 0-.22-24.97l-.11-12.82c-.24-37.04-2.28-72.47-19.72-105.9a325 325 0 0 0-3.1-5.81l-1.13-2.15-1.06-1.94C829 299 829 299 830 296c1.7-.93 1.7-.93 3.91-1.72l2.48-.93 2.67-.97c14.32-5.5 26.39-12.26 37.94-22.38l2.54-1.96c12.88-10.67 22.21-27.41 27.46-43.04l.74-2.17c2.33-7.22 3.46-14.54 4.63-22.02 3.89-23.36 10.81-42.06 30.57-56.62 13.17-8.78 26.45-11.5 41.99-11.11l5.66.08q4.39.06 8.78.16c21.56.5 21.56.5 28.63-5.32 2.62-3.13 4.52-5.92 5-10l.44-3.62c-.14-5.76-2.66-10.15-6.44-14.38-14.35-10.23-32.18-9.63-49-10v-1q7.86-.49 15.72-.88 2.84-.16 5.69-.36" fill="#E4E5E6"/><path d="m371 557 5 2a169 169 0 0 1-20.88 21.38c-4.35 3.71-8.31 7.79-12.33 11.85a176 176 0 0 1-10.97 10.16A114 114 0 0 0 326 608a165 165 0 0 1-9.88 9.16 370 370 0 0 0-6.93 6.22 322 322 0 0 1-13.26 11.22q-3.15 2.58-6.23 5.24l-1.71 1.46-3.22 2.81c-7.35 6.32-12.89 9.63-22.77 9.7l-2.64.08q-3.18.09-6.36.11a89 89 0 0 1 10.69-9.44l3.46-2.63 1.87-1.42A1300 1300 0 0 0 305 612l2.84-2.32q4.09-3.33 8.16-6.68l1.89-1.55c8.15-6.67 16.25-13.38 24.22-20.26 4.3-3.7 8.67-7.3 13.07-10.88 5.33-4.37 10.57-8.84 15.82-13.31" fill="#E9E8EB"/><path d="M804 579c11.47 5.68 21.38 13.8 26 26 3.17 10 4.97 19.45 4 30-1.5 1.5-2.91 1.15-5 1.25-5.51.54-9.36 2.9-14 5.75-3.99 2.33-6.47 1.87-11 1l.21-2.39c.77-9.43.94-18.79.92-28.24q-.01-3.75.01-7.49c0-8.68-.2-17.24-1.14-25.88" fill="#ECEEEF"/><path d="M298 466c22.63-.69 22.63-.69 30 3l-2 9h-2l1 2c2.5-2.94 3.47-5.18 4-9h2a14 14 0 0 1 3 4c-.18 2.01-.18 2.01-1 4-8.1 5.77-19.46 6.61-29.01 5.54-7.9-1.42-15.83-4.05-20.99-10.54-.68-2.19-.68-2.19-1-4q2.12-.76 4.25-1.5l2.39-.84C291 467 291 467 295 467v4h2z" fill="#141815"/><path d="m411 449 2 3c-20.86 12.44-20.86 12.44-28 13v3q-3.62 1.3-7.25 2.56l-2.07.75c-6.26 2.16-6.26 2.16-9.68.69-.27-2.23-.27-2.23 0-5 1.83-2.2 1.83-2.2 4.25-4.25l2.39-2.08c2.29-1.62 3.7-2.03 6.36-2.67l1.43-1.43c3.26-3.25 8.27-4.18 12.57-5.57l2.15-.7c5.08-1.46 10.61-2.21 15.85-1.3" fill="#141613"/><path d="m853 228 1 3c-13.32 12.98-28.85 21.54-46.25 27.94l-2.55.96c-5.37 1.9-9.59 2.42-15.2 1.1l-2.64-.61q-4.57-1.1-9.11-2.27c-19.51-4.73-37.89-6.52-57.93-6.74l-2.42-.04-4.54-.04c-5.14-.08-5.14-.08-7.36-2.3 14.1-7.05 42.58-2.15 57.38 1.81 7 1.84 14.05 3.38 21.15 4.79 3.38.69 6.5 1.41 9.75 2.59 3.06.91 4.23.77 7.16-.38l2.35-.89q3.57-1.47 7.12-3.04c3.98-1.68 8.05-3.11 12.1-4.6A27 27 0 0 0 830 245q2.49-1.53 5-3l2.69-1.69C840 239 840 239 842 239l.75-1.88c1.51-2.56 2.61-2.84 5.25-4.12q2.56-2.44 5-5" fill="#E6E6E8"/><path d="M999.41 87.76A40.7 40.7 0 0 1 1027 97c6.59 6.77 9.58 11.25 9.46 20.87-.72 4.9-3.03 8.6-6.46 12.13h-2l-.56 1.88c-2.16 3.19-4.78 3.25-8.44 4.12l-2.38 1.13c-6.82 2.27-13.85.67-20.62-1.13v-1l-21-1v-1l3.79.08q7.01.13 14.03.2 3.03.03 6.05.1c22.11.46 22.11.46 29.13-5.38 2.62-3.13 4.52-5.92 5-10l.44-3.62c-.14-5.76-2.66-10.15-6.44-14.38-14.35-10.23-32.18-9.63-49-10v-1q7.86-.49 15.72-.88 2.84-.16 5.69-.36" fill="#D1D2D4"/><path d="m237 667 1 2-.91 2.72c-2.11 6.37-2.21 13.47.29 19.72 6.44 6.28 13.97 9.46 22.62 11.56v1c-6.64.63-10.63-.94-16.48-4.1-2.52-.9-2.52-.9-4.66 0L237 701a42 42 0 0 1-10-4l1-4-4-3 2-4h2l2-4h1l2-9-3 2c-3.19.12-3.19.12-6 0 2.34-2.34 4.71-3.56 7.62-5.12l3.04-1.64z" fill="#D1D2D3"/><path d="M360.5 482.19c1.5 1.8 1.5 1.8 2 4.25-.5 2.56-.5 2.56-2.44 4.44-2.77 2.86-2.76 5.24-3.06 9.12l-7 1-.56-2.2c-1.97-3.84-4.84-5.53-8.44-7.8.29-3.53.75-4.76 3.38-7.25 4.93-3.3 10.72-4.13 16.12-1.56" fill="#626263"/><path d="m881 142 2 1a45 45 0 0 1-3.02 10.16c-4.97 12.31-7.39 24.92-9.07 38.05-1.15 8.94-2.58 16.75-6.91 24.79l-1.52 2.84c-2.42 4.27-4.36 7.38-8.48 10.16l-2-2 2.62-2.69c6.37-7.43 9.73-16.78 11.38-26.31l1.12-4.62c.87-3.85.96-7.43.88-11.38q.45-2 1-4l.31-3.62c.5-4.37 2.02-8.08 3.75-12.08.94-2.3.94-2.3 1.44-4.32a36 36 0 0 1 2.44-6.42q2.16-4.72 4.06-9.56" fill="#E9EAEC"/><path d="M855 378c2.92 2.92 2.42 6.08 2.56 10l.22 4.65.11 2.28q.23 3.82.67 7.63c.46 4.17.52 8.24.44 12.44h-2v42h-2z" fill="#CED0D1"/><path d="m973.46 133.8 2.06.01 6.41.06 4.4.03q5.33.03 10.67.1l-1 3-2.14-.04-9.74-.09-3.36-.05c-9.65-.06-18 .96-26.76 5.18l-1.86.76c-5.54 2.44-9.57 6.07-13.95 10.21C936 155 936 155 933 157l-3-1c11.45-12.32 26.07-22.34 43.46-22.2" fill="#E3E4E3"/><path d="m295 467 .7 2.27c3.19 9.64 3.19 9.64 8.3 12.73l2 2c-7.89-.38-14.71-2.24-20.78-7.56-1.41-1.56-1.41-1.56-3.22-4.44l1-3c4.31-1.34 7.48-2 12-2" fill="#CEBD71"/><path d="M729.35 247.3q3.12.12 6.23.2c19 .65 19 .65 26.42 3.5v2l-3.04-.2a518 518 0 0 0-23.65-1.04l-2.43-.05q-4.92-.1-9.86-.18l-7.33-.15-2.26-.02c-5.2-.13-5.2-.13-7.43-2.36 6.87-3.43 15.9-1.98 23.35-1.7" fill="#D7D6D9"/><path d="M410 308c4.82 2.78 6.91 4.86 9 10l.96 2.29c3.21 7.78 5.86 15.49 7.58 23.73.46 1.98.46 1.98 1.46 4.42 1.3 3.32 1.88 6.66 2.54 10.16.46 2.4.46 2.4 1.05 4.57.5 2.23.1 3.68-.59 5.83a19 19 0 0 1-3.23-7.48l-.67-2.74-.72-2.97a409 409 0 0 0-7.38-25.69l-.93-2.96a53 53 0 0 0-7.9-15.39C410 310 410 310 410 308" fill="#E8E9E9"/><path d="m255 334 1 2-2.23.26c-7.99 1.15-7.99 1.15-11.83 4.05-3.04 4.21-4.19 7.7-4.17 12.87v3.04a329 329 0 0 1 .06 6.54c.1 10.76.57 21.5 1.17 32.24h-2c-1.76-10.42-2.31-20.86-2.46-31.41q-.04-2.14-.11-4.28c-.22-7.64-.39-13.9 4.99-19.86 5.34-4.91 8.52-5.94 15.58-5.45" fill="#EFF2F0"/><path d="m379 458 5 9q-3.33 1.5-6.68 2.97-2.58 1.15-5.13 2.34c-2.5.79-3.77.59-6.19-.31-.27-2.23-.27-2.23 0-5 1.9-2.2 1.9-2.2 4.38-4.25l2.46-2.08c3.45-2.67 3.45-2.67 6.16-2.67" fill="#E3C164"/><path d="m1033 118 2 3a22 22 0 0 1-5 9h-2l-.56 1.88c-2.16 3.19-4.78 3.25-8.44 4.12l-2.38 1.12c-6.82 2.28-13.85.67-20.62-1.12v-1l-21-1v-1l3.79.08q7.02.13 14.03.19 3.03.04 6.05.11c22.11.46 22.11.46 29.13-5.38 2.65-3.17 4.37-5.9 5-10" fill="#D3D5D4"/><path d="M240 388h3l1 7 3 1-2 1 .59 1.58c2.14 6.06 3.4 12.08 4.41 18.42h-2l-1 2h-3c-4.78-21.61-4.78-21.61-4-31" fill="#171B17"/><path d="m803 640 1 3h7c0 3.18-.39 3.93-1.94 6.56-2.47 4.69-2.85 9.21-3.06 14.44h-1l-1-5-5-1c.69-6.19 2.28-12.02 4-18" fill="#B4B4B6"/><path d="M499 568v3c-2.12 1.82-2.12 1.82-4.88 3.69l-2.74 1.88C489 578 489 578 487 578l-.5 3.31c-1.5 3.69-1.5 3.69-3.27 4.79A57 57 0 0 1 477 588l-2.02.57c-2.99.65-5.93.49-8.98.43 1.41-2.81 3.09-2.84 6-4q3.29-2 6.5-4.12l3.7-2.42 1.89-1.23c4.91-3.17 9.92-6.19 14.91-9.23" fill="#0A0C0B"/><path d="M274.13 342.81a186 186 0 0 0 24.88 11.2l-1 2c-10.03-1.74-19.06-6.94-27.87-11.8-5.85-3.19-11.9-6.3-18.63-6.9l-3.5-.3v-1c10.1-2.04 17.38 1.96 26.12 6.8" fill="#D8DADD"/><path d="M238 381h1l.3 3.23c.92 9.4 2.29 18.56 4.38 27.78A63 63 0 0 1 245 428l-2 1-.35-1.94-1.59-8.75-.55-3.05-.54-2.96-.49-2.71q-.48-2.56-1.03-5.1a40 40 0 0 1-.55-7.57l.01-2.82.03-2.91.01-2.97z" fill="#DEE0DE"/><path d="m371 557 5 2c-5.27 6.41-11.09 12.19-17 18l-4-2a46 46 0 0 1 9.06-9.12A69 69 0 0 0 372 559l-2-1z" fill="#DFE0E0"/><path d="m762 251 11.69 2.45 3.97.84 5.73 1.2 3.47.73c2.86.71 5.44 1.61 8.14 2.78l-2 2c-1.86-.07-1.86-.07-4.31-.56l-2.92-.59A1392 1392 0 0 1 761 254z" fill="#DEDDE1"/><path d="M244 428c2.8 2.8 2.56 5.03 3 8.94l.49 4.09.25 2.04c.36 2.66.86 5.29 1.38 7.93.79 4.1 1.07 7.84.88 12-2-1-2-1-2.78-3.16-2.43-9.81-4.77-20.67-4.22-30.84z" fill="#E7E7E9"/><path d="M303.94 463.69h2.86c16.78.27 16.78.27 22 4.92L330 470l-3.31-.93c-8.03-2-22.12-4.85-29.7-1.07l-1 3v-5h-5c4.27-2.84 7.94-2.34 12.95-2.31" fill="#020404"/><path d="m229 614 2 1a297 297 0 0 1-9 8l-1.75 1.64c-6.73 5.4-16.13 3.75-24.25 3.36 1-2 1-2 2.69-2.63 3.78-.6 7.53-.28 11.34-.11 4.96-.43 8.25-3.37 12.09-6.32 2.27-1.73 4.51-3.36 6.88-4.94" fill="#E0E1E0"/><path d="M877 576h1l1.28 13.98.44 4.74c.78 8.45 1.48 16.78 1.28 25.28h-1l-.59-6.15L879 612l-2-1 .04-2.54c.06-7.77-.24-15.34-.92-23.08-.12-3.3.22-6.16.88-9.38" fill="#272A2A"/><path d="M708 250v2l-3.18.37c-12.78 1.51-12.78 1.51-18.07 2.75-3.75.88-3.75.88-7.75.88v-2c22.47-7.26 22.47-7.26 29-4" fill="#EBEAED"/><path d="m253 590 1 3-22 22-2-2z" fill="#D9DBDA"/><path d="m455 359 3 2q-5.62 2.77-11.25 5.5l-3.22 1.59-3.11 1.5-2.85 1.4C435 372 435 372 431 372l1-4 2.97-.25c4.63-.66 8.38-2.64 12.47-4.81l2.21-1.15z" fill="#DEDDDF"/><path d="M412 448v3l-1-1c-7.94-1.26-14.97 1.29-22.36 3.81-2.9.95-5.64 1.69-8.64 2.19l-1 3v-2l-2-1c11.74-6.44 21.59-8.53 35-8" fill="#030302"/><path d="M284 470h2v2h2v-2h2v2h4c2.15 3.23 2.2 4.28 2 8h-2v-4l-2.25 1.12c-2.75.88-2.75.88-5 .38-2.54-2.18-2.47-4.27-2.75-7.5" fill="#EBC85A"/><path d="M996 87v2c-10.35.65-20.63 1.16-31 1l1-2c2.42-.52 4.73-.9 7.19-1.19l2.15-.26c6.99-.76 13.68-.36 20.66.45" fill="#EDEFF1"/><path d="m243 339 2 1-1 3-.31 2c-.69 2-.69 2-2.69 3.29-2 1.71-2 1.71-2.55 4.16l-.06 2.87-.1 3.12-.04 3.25-.09 3.28q-.1 4.01-.16 8.03h-1q-.12-6.06-.19-12.12l-.07-3.47c-.06-6.92.12-11.92 4.95-17.29z" fill="#3C3D3D"/><path d="m410 453 2 1c-19.19 13-19.19 13-26 13v2l-4-1h3v-3l1.66-.59a130 130 0 0 0 18.34-8.86q2.45-1.33 5-2.55" fill="#070805"/><path d="M228 675c-2.28 2.66-3.95 3.48-7.38 4.12l-2.42.47-2.2.41-2.62.62c-3.14.5-6.21.44-9.38.38v-3l2.92-.4 3.83-.54 3.8-.52c3.45-.54 3.45-.54 5.7-1.1 2.58-.65 5.1-.5 7.75-.44" fill="#E1E2E3"/><path d="m246 405 2 1c.63 2.5.63 2.5 1.12 5.56l.51 3.07.37 2.37h-2l-1 2h-3c-1.11-5.83-1.27-8.77 2-14" fill="#1F231F"/><path d="m237 667 1 2q-1.1 2.85-2.23 5.69c-1.23 3.7-1.51 7.44-1.77 11.31h-1v-13l-3 2c-3.19.12-3.19.12-6 0 2.34-2.34 4.71-3.56 7.62-5.12l3.04-1.64z" fill="#E0E1E0"/><path d="M406 307c2.94 1.5 2.94 1.5 5 3l-1 3-2-2c-2.31.31-2.31.31-5 1l-5 1-1-5c3.06-1.53 5.62-1.23 9-1" fill="#151615"/><path d="M1026 98c5.17 2.18 7.78 5.94 10 11 .48 4.06.37 7.94 0 12h-2l-.01-2.05c-.32-7.79-2.62-12.6-6.99-18.95z" fill="#EBEFEB"/><path d="M426 354c3.18 3.47 4.46 7.39 5 12-.45 2.25-.45 2.25-1 4v-2h-4l-.56-6.44-.32-3.62L425 355z" fill="#1A1E1B"/><path d="M272 342v2a121 121 0 0 1-10.88-4.06A41 41 0 0 0 248 337v-1c9.42-1.88 16.02 1.08 24 6" fill="#CCCDCF"/><path d="M301 531h2c-1.45 4.36-3.68 7.32-6.62 10.81l-2.48 2.96L292 547l-3-1 1.81-2.25a98 98 0 0 0 3.81-5.06L296 537h2l.38-1.88C299 533 299 533 301 531" fill="#E5E8E6"/><path d="m255 334 1 2-2.23.26c-8.02 1.16-8.02 1.16-11.89 4.18C240 343 240 343 239 346l-3-1c5.25-8.56 9.35-11.16 19-11" fill="#E8EAE8"/><path d="m287 522 2.67 1.06 3.52 1.38 3.48 1.37c2.8 1 5.4 1.71 8.33 2.19l-1 4-7.31-2.81-2.09-.79c-6.3-2.47-6.3-2.47-8.6-5.4z" fill="#DDDFDD"/><path d="M238 381h1l.4 3.66.54 4.84.26 2.4q.84 7.56 1.8 15.1h-3a43 43 0 0 1-1.1-10.08l.01-2.82.03-2.91.01-2.97z" fill="#C5C8C4"/><path d="m289 547 3 1-4.81 5.81-1.37 1.66A86 86 0 0 1 279 563c0-6.6 5.8-11.36 10-16" fill="#E1E3E2"/><path d="M295 467v5h-5v-2h-2v2h-2v-2h-2l1 5-3-3 1-3c4.31-1.34 7.48-2 12-2" fill="#DDC773"/><path d="m914 190 4 4-1 3.12a29 29 0 0 0-1 9.88l-4 1z" fill="#DADCDB"/><path d="m944.25 145.31 1.75.7-4.81 4.36-2.71 2.46C936 155 936 155 933 157l-3-1q1.88-1.92 3.75-3.8l2.11-2.16c5.39-5.15 5.39-5.15 8.39-4.73" fill="#ECEDEC"/><path d="M974 134h23l-1 3-8.19-.44-2.33-.12A64 64 0 0 1 974 135z" fill="#F3F5F3"/><path d="M235 373h3l1 22h-2l-1-8.19-.29-2.33A76 76 0 0 1 235 373" fill="#EEF3EE"/><path d="M914 109c-1.18 3.55-2.3 4.24-5.25 6.44l-2.45 1.84L904 119l-5 4c.58-3.94 2.28-6.14 5-9 6.9-5 6.9-5 10-5" fill="#D7D8D7"/><path d="m879 574 2 1-.1 5.96c.1 2.04.1 2.04 1.1 5.04q-.37 3.6-.94 7.19l-.59 3.85L880 600h-1q-.3-4.82-.56-9.62l-.17-2.74c-.26-4.72-.31-8.99.73-13.64" fill="#E3E5E5"/><path d="M870 180h1c.1 6.77.03 13.3-1 20-3.39-6.1-2.94-10.65-1.5-17.31.5-1.69.5-1.69 1.5-2.69" fill="#E2E2E4"/><path d="M881 635h1v15h2l1 3c-1.88 3.19-1.88 3.19-4 6h-1z" fill="#B5B8B7"/><path d="M329 471h2c1.99 2.06 3 3.21 3 6.12-1 1.88-1 1.88-3.38 3.19C328 481 328 481 325 480l1.44-1.69c1.68-2.49 2.15-4.35 2.56-7.31" fill="#B2A875"/><path d="M245 337a29 29 0 0 1 9 5l-3.31.94q-3.37.95-6.69 2.06c-.93-2.61-1.15-3.64-.06-6.25z" fill="#1D1D1F"/><path d="M325 701v1l-1.9.18-2.48.26-2.46.24C316 703 316 703 314 704q-4.07.1-8.12.06l-2.29-.01L298 704v-1c9.09-1.39 17.78-2.31 27-2" fill="#DBDCDC"/><path d="m885 262 1 2c-7.15 10.1-7.15 10.1-13 12l-2-1 2.3-1.83 3.01-2.42 2.99-2.39A31 31 0 0 0 885 262" fill="#D9D9DB"/><path d="M913 207h1q-.17 3.13-.38 6.25l-.21 3.52A16 16 0 0 1 911 224h-2c1.23-14.23 1.23-14.23 4-17" fill="#E6E6E9"/><path d="M241 697a47 47 0 0 1 10.06 2.94l2.54 1.02q3.25 1.4 6.4 3.04c-7.09.66-12.01-1.15-18-5z" fill="#D8D9DA"/><path d="m363 340 2 1c-1.55 1.98-1.55 1.98-4 4-3.45.39-3.45.39-7.25.25l-3.83-.11L347 345c2.37-2.37 3.08-2.28 6.31-2.5 3.6-.31 6.36-1.09 9.69-2.5" fill="#E9EBE9"/><path d="m893 253 3 1-2.81 3.81-1.58 2.15A47 47 0 0 1 887 265l-2-1c2.29-4.09 4.96-7.46 8-11" fill="#E7E7E9"/><path d="M877 576h1c.88 6.71 1.11 13.23 1 20l-2 1q-.3-3.56-.56-7.12l-.17-2.02A41 41 0 0 1 877 576" fill="#222424"/><path d="m929 157 3 1q-1.35 2.2-2.75 4.38l-1.55 2.46c-1.77 2.25-3.07 3.12-5.7 4.16l3.71-7.62C927 159 927 159 929 157" fill="#E6E7E6"/><path d="m356 570 1 3-1 2 2 2-3 3-2-1 1-3-5 2c1.49-3.8 3.76-5.61 7-8" fill="#EEF0F0"/><path d="m373 330 2 2-9 9-2-2 3.38-3.94 1.89-2.21C371 331 371 331 373 330" fill="#D9DADB"/><path d="m600 281 3 1a22 22 0 0 1-7 5.19l-2.06 1.04C592 289 592 289 589 289v-2l2.69-1.31c3.31-1.69 3.31-1.69 6-3.44z" fill="#F0EEEF"/><path d="M966 134c4.52-.08 8.59-.1 13 1v2l-3.69-.06c-3.23-.01-6.16.27-9.31 1.06l-1-2z" fill="#E3E4E5"/><path d="m945 92 1 2c-1 2-1 2-2.86 2.85-4.52 1.5-8.31 2.52-13.14 2.15 2.95-2.46 5.49-3.63 9.19-4.62 4.72-1.29 4.72-1.29 5.81-2.38" fill="#EAECEC"/><path d="M854 366c3.13 4.69 2.39 9.63 1.5 15.06L855 383h-1l-.56-7.94-.17-2.28q-.19-2.89-.27-5.78z" fill="#D8D9DC"/><path d="m191 677 9.57.68c3.18.3 6.29.75 9.43 1.32v1c-13.82 1.7-13.82 1.7-19-2z" fill="#ECEDEF"/><path d="M857 467c3.38 4.5 3.38 4.5 3.19 8.75l-.08 2.42L860 480l-3 1z" fill="#F3F3F6"/><path d="m379 458 5 9-4 2-2-7h-2l-3-1c3.75-3 3.75-3 6-3" fill="#CBB878"/><path d="M287 350q2.44.67 4.88 1.38l2.74.77C297 353 297 353 299 355c-3.69 1.37-5.71.6-9.25-.94l-2.7-1.15L285 352z" fill="#D4D7D7"/><path d="M873 275v3c-5.12 5-5.12 5-10 5v-2c1.43-1.25 1.43-1.25 3.31-2.56l1.87-1.32C870 276 870 276 873 275" fill="#EAEAED"/><path d="M852 353a25 25 0 0 1 3 3c.12 2.94.12 2.94 0 6 .5 2.38.5 2.38 1 4l-3 1c-.94-3.16-1.11-5.97-1.06-9.25l.02-2.7z" fill="#EFEFF2"/><path d="m898 121 1 3c-1.43 2.04-1.43 2.04-3.44 4.19l-1.99 2.17L892 132l-3-2 1.81-1.19c2.45-2.02 3.61-4.08 5.19-6.81z" fill="#E0E2E3"/><path d="m204 624.81 2.06-.04C208 625 208 625 211 627c-1 1-1 1-4.16 1.1l-3.9-.04-3.91-.03L196 628c1.68-3.36 4.6-3.16 8-3.19" fill="#F0F0F1"/><path d="m880 593 2 1c1.44 5.77.56 10.33-1 16h-1z" fill="#EBEEEE"/><path d="m869 538 4 1 .44 2.81A29 29 0 0 0 875 548l-3 2z" fill="#E4E5E8"/><path d="M875 159h1q-.17 2.38-.38 4.75l-.21 2.67A18 18 0 0 1 873 173c-1.25-2.5-1.25-2.5-2-6 1-2.87 2.41-5.41 4-8" fill="#E2E3E4"/><path d="M377 460c0 3 0 3-1.69 5.25-2.31 1.75-2.31 1.75-5.06 1.5L368 466c5.14-5.57 5.14-5.57 9-6" fill="#D9BC61"/><path d="m375 470 2 1-1 5h-6v-4c2.38-1.06 2.38-1.06 5-2" fill="#251A1A"/><path d="m429 357 3 1 1 10-2 1c-1.29-4.12-2.26-7.67-2-12" fill="#EDF0EE"/><path d="M886 139h2c-.66 3.3-1.89 5.84-3.56 8.75l-1.38 2.42L882 152h-2c1.41-4.83 3.43-8.72 6-13" fill="#1D1D1F"/><path d="m816 679 9 2-1 3-6 1 1-3z" fill="#C3C4C6"/><path d="M199 628a166 166 0 0 1-8.75 4.12l-2.42 1.08-1.83.8c1.33-3.05 1.9-3.93 4.81-5.81 3.38-1.26 4.82-1.28 8.19-.19" fill="#DBDDDC"/><path d="M966 136c-3.29 2.16-6.03 3.68-10 4l-2-2q1.87-.8 3.75-1.56l2.11-.88c2.44-.64 3.78-.36 6.14.44" fill="#D4D4D6"/><path d="m243 393 1 2 3 1-2 1v7h-2c-1.12-7.62-1.12-7.62 0-11" fill="#1D201D"/><path d="m678 253 1 3c-3.82 1.42-6.91 2.24-11 2v-2z" fill="#F0F0F3"/><path d="M854 681h5l-1 2 4 2h-11l2-1z" fill="#C4C7C4"/><path d="M825 681c3.5-.44 3.5-.44 7 0l3 3-13 1z" fill="#AFB1B4"/><path d="M499 568v3c-2.41 1.82-2.41 1.82-5.5 3.69l-3.09 1.88L488 578c1.46-3.69 3.3-5.16 6.62-7.25l2.48-1.58z" fill="#020403"/><path d="m241 376 .38 1.94.62 2.06 2 1c0 3 0 3-2 6l-2-2c.02-2.16.02-2.16.38-4.62l.33-2.48z" fill="#1B1F1B"/><path d="M421 340h1l.88 2.94C424 346 424 346 426 347l-1 5h-2v-4h-2z" fill="#181A19"/><path d="m486 341 3 2c-5.42 4.06-5.42 4.06-8.38 3.75L479 346c2.3-1.74 4.6-3.4 7-5" fill="#E9E9EC"/><path d="M396 308v2c-1.75 1.73-1.75 1.73-4 3.62l-2.25 1.92L388 317l-2-2 3.88-3.5 2.17-1.97C394 308 394 308 396 308" fill="#D9DAD9"/><path d="M416 321c2 1 2 1 3.12 3.25A19 19 0 0 1 420 332c-3-2-3-2-3.51-4.16l-.18-2.46-.2-2.48z" fill="#151615"/><path d="M388 318c0 3 0 3-1.31 4.39L382 326l-2-2c2.49-2.67 4.63-4.56 8-6" fill="#1C1D1E"/><path d="M348 576h1v10l-3-1 .5-2.31c.5-2.69.5-2.69.5-5.69z" fill="#E0E2E5"/><path d="M250 459h1q.55 2.12 1.06 4.25l.6 2.39c.35 2.46.11 4.02-.66 6.36v-3h-2c-1.12-1.62-1.12-1.62-2-4 .88-3.25.88-3.25 2-6" fill="#CFCFD3"/><path d="M242 337h2a104 104 0 0 1-5 9l-3-1c3.75-5.75 3.75-5.75 6-8" fill="#DCDCDD"/><path d="M876 560a12 12 0 0 1 3 3c-.24 3.34-.61 4.61-3 7l-.56-4.44-.32-2.49L875 561z" fill="#E6E7E6"/><path d="M295 538c.75 1.69.75 1.69 1 4-1.94 2.75-1.94 2.75-4 5l-3-1 1.88-2.31C293 541 293 541 295 538" fill="#ECEFED"/><path d="M285 474h7l-1 4-6-2z" fill="#ECC467"/><path d="M367 466h1v5l6-1c-1.75 1.56-1.75 1.56-4 3-2.25-.31-2.25-.31-4-1q-.06-2.5 0-5z" fill="#D1BB84"/><path d="M466 354c-1 3-1 3-3.88 4.75C459 360 459 360 456 359l3.88-2.5 2.17-1.41C464 354 464 354 466 354" fill="#EBE9EB"/><path d="M840 293v2a154 154 0 0 1-11 4c1-3 1-3 2.78-3.95l2.16-.74 2.15-.76C838 293 838 293 840 293" fill="#E0E1E1"/><path d="m861 282 3 1c-1.62 2-1.62 2-4 4-3.25.25-3.25.25-6 0 4.75-3.88 4.75-3.88 7-5" fill="#DFDFE2"/><path d="m826 248 2 2-8 4-1-3z" fill="#DFE0DF"/><path d="m853 228 1 3-6 5c0-3 0-3 2.5-5.69z" fill="#D9DADC"/><path d="M863 209h1c.31 3.31.31 3.31 0 7-2.5 1.94-2.5 1.94-5 3a57 57 0 0 1 4-10" fill="#F2F0F3"/><path d="m936 150 2 1c-1.37 3.16-1.99 3.99-5 6l-3-1z" fill="#F2F2F6"/><path d="M1009.56 88.75C1012 90 1012 90 1013 93l-11-2c4.65-3.1 4.65-3.1 7.56-2.25" fill="#D7D8DA"/><path d="M294 476v4l2 1c-5.54-.62-5.54-.62-7.88-2.56L287 477c4.75-1 4.75-1 7-1" fill="#DDBF71"/><path d="M235 373h3c.18 4.6.11 6.78-2 11z" fill="#E1E3E0"/><path d="m348.63 343.94 2.48.59 1.9.47v1l-11 1v-3c2.63-1.31 3.8-.75 6.62-.06" fill="#CACDCA"/><path d="M551 308v2a472 472 0 0 1-6.05 3.12C543 314 543 314 541 314v-2c6.62-4 6.62-4 10-4" fill="#E9E9EA"/><path d="m639 265 2 3-9 3v-3z" fill="#E4E4E8"/><path d="M1026 98c3.79 1.49 5.77 3.62 8 7l-1 3a69 69 0 0 1-7-10" fill="#E4E6E7"/><path d="M436 611v3c-2.31 2.25-2.31 2.25-5 4l-3-1c2.62-2.12 5.2-4.13 8-6" fill="#E3E4E5"/><path d="M243 606c-1 2-1 2-3 4l-1.5 1.62C237 613 237 613 235 613c1.86-4.15 3.17-7 8-7" fill="#090A08"/><path d="m254 593 2 1c-4.62 4.88-4.62 4.88-8 6l-1 2c0-3 0-3 1.53-4.61l1.97-1.58 1.97-1.6z" fill="#080A09"/><path d="m371 557 5 2-5 5 1-5-2-1z" fill="#D7D9DA"/><path d="M247 453a19 19 0 0 1 3 3c.19 3.69.19 3.69 0 7l-2-1c-.41-2.07-.41-2.07-.62-4.56l-.23-2.51z" fill="#ECECEC"/><path d="M320.63 348.94a155 155 0 0 1 4.38.06c-3.64 1.98-6.9 2.53-11 3v-2c2.4-1.2 3.94-1.1 6.62-1.06" fill="#DBDBDB"/><path d="M699 249c6.75-.12 6.75-.12 9 1v2c-3.38.19-3.38.19-7 0z" fill="#DEDDE0"/><path d="M288 701v2c-2.41 1.2-3.95 1.1-6.62 1.06l-2.48-.02-1.9-.04c3.79-1.95 6.7-3 11-3" fill="#B2B4B2"/><path d="m882 651 3 1c-2.75 5.88-2.75 5.88-5 7v-7z" fill="#A9ABAA"/><path d="m330 472 4 3-1 4-3-1z" fill="#CFC176"/><path d="M249 469h3c1.16 3.47 1.07 6.36 1 10-2.83-3.2-3.52-5.78-4-10" fill="#F0F0F3"/><path d="M788 257c2.94.38 2.94.38 6 1l1 2c-2.91.81-4.46 1.22-7.31.06L786 259h2z" fill="#D9D9DC"/><path d="M310.25 687.88 312 689a96 96 0 0 1-6 3l-2-1v-2c3.45-2.22 3.45-2.22 6.25-1.12" fill="#1A1B1B"/><path d="m215 623 3 2c-1.75 1.56-1.75 1.56-4 3-2.25-.31-2.25-.31-4-1z" fill="#E8E8E9"/><path d="M237 608c-1.39 3.37-2.98 4.99-6 7 0-3 0-3 1.88-5.19C235 608 235 608 237 608" fill="#D4D5D4"/><path d="M281 556h3a19 19 0 0 1-5 7c0-3.11.54-4.35 2-7" fill="#DBDBDF"/><path d="m272 342 8 4-2 2-6-3z" fill="#E2E3E5"/><path d="m564 299 3 3-7 3v-3c2-1.69 2-1.69 4-3" fill="#D6D7D9"/><path d="M688 254v1l-9 1v-2c3.07-1.53 5.7-.55 9 0" fill="#DEDDE0"/><path d="m967.13 88.94 2.75.59 2.13.47v1h-12v-2c2.72-1.36 4.17-.7 7.12-.06" fill="#CCCECF"/><path d="M237 667c1 2 1 2 .06 5.12L236 675l-4-5z" fill="#CBCCC8"/><path d="M174 653h1l1 9-3-1q-.06-3.5 0-7z" fill="#EEF1EF"/><path d="m357 577 2 1c-2.31 2.5-2.31 2.5-5 5h-3z" fill="#28292C"/><path d="m380 461 4 1v2l2 1-1 3c-3.01-1.51-3.61-4.03-5-7" fill="#2E2216"/><path d="M247 445h1l1 9-3-1c-1.21-3.62-.54-4.64 1-8" fill="#D0D1D0"/><path d="M428 368h2l1 5 3 1h-5z" fill="#050806"/><path d="M412 313a20 20 0 0 1 4 4c-.25 2.75-.25 2.75-1 5-2.76-2.76-2.58-5.21-3-9" fill="#1B1E1B"/><path d="M896 248h2l1 3-2 2c-2.12-.38-2.12-.38-4-1 1.38-2 1.38-2 3-4" fill="#DCDCDD"/></svg>