<svg style="background:transparent" version="1.1" xmlns="http://www.w3.org/2000/svg" viewBox="0 0 1248 704"><path d="M497.66 27.26c5.95 1.32 9.83 4.8 14.34 8.74l5.5 4.44 2.72 2.27q2.85 2.36 5.74 4.65c4.93 3.94 9.12 7.7 13.04 12.64a46 46 0 0 0 8.56 6.5c3.54 2.18 6.23 5.06 8.9 8.25 3.85 4.36 6.67 6.08 12.48 6.66l2.58.15 2.72.24q4.28.35 8.57.64l5.72.48c7.76.64 15.44 1.17 23.24 1.06 3.37.03 6.58.5 9.91 1.02 4.85.74 9.42 1.02 14.32 1l3.37.8c5.35.29 8.24-1.91 12.63-4.8l1.78-1.17q4.9-3.23 9.76-6.52A176 176 0 0 1 672 69q5.44-3.5 10.85-7.06l2.21-1.44 2-1.31c1.94-1.2 1.94-1.2 4.1-2.21C693 56 693 56 694.42 53.94c2.04-2.52 3.44-2.4 6.57-2.94l1.86-1.44c4.18-3.05 9.38-3.65 14.47-3.48 7.48 1.2 13.13 5.69 17.73 11.55 1.26 4.53 1.11 8.77.94 13.45 0 2.92 0 2.92 1 5.92l-1.38 3.69c-2.07 5.73-2.17 11.53-2.4 17.54-.25 4.22-.9 8.2-1.76 12.33a65 65 0 0 0-.9 7.5c-.34 4.1-.9 8.09-1.63 12.13a69 69 0 0 0-.93 13.8 57 57 0 0 1-1.54 6.86 27 27 0 0 0-.46 6.84q.05 2.16 0 4.3l-1 1q-.32 3.33-.5 6.64c-.5 7.9-.5 7.9-1.07 11.37-.43 3-.43 3-.43 6.19 0 2.59-.38 4.33-1 6.8q-.4 2.78-.72 5.56l-.39 3.25-.39 3.39-.4 3.33q-.87 7.26-1.64 14.53c-.46 3.95-.46 3.95-.99 6C717 232 717 232 717 235c-.46 2.04-1.02 4.05-1.57 6.06C715 243 715 243 715 246l-3 1q-.14 1.01-.32 2.06c-.83 3.55-2.17 6.63-3.68 9.94l-1.38 3.13c-1.8 3.19-4.04 5.29-6.62 7.87a63 63 0 0 0-1 4l-3 1 2 3v3c2.64 1.46 3.9 2 7 2l5 5q2.97 1.55 6 3a151 151 0 0 1 15.95 11.49c2.05 1.5 2.05 1.5 3.91 2.43 3.07 1.56 5.73 3.62 8.45 5.7l1.75 1.35a63 63 0 0 1 10.4 10.25 34 34 0 0 0 4.91 4.59c5.88 4.85 11.45 11.23 14.63 18.19l1.43 2.38A116 116 0 0 1 782 356l1.56 3.06c2.4 4.89 3.94 9.72 5.44 14.94l1 2.3c1.24 3.37 1.83 6.72 2.5 10.23.5 2.47.5 2.47 1.5 5.9 2.47 8.8 3.3 17.26 3.18 26.38v3.03a78 78 0 0 1-1.75 16.72c-.46 2.6-.7 4.8-.43 7.44 1.43 1.8 3 2.86 4.88 4.17 7.35 6.35 11.23 16.8 14.12 25.83l1 3.06c2.9 10.48 3.34 21.14 3.31 31.94l.05 3.89v3.74l.01 3.35c-.42 3.4-1.52 5.19-3.37 8.02-.65 3.4-1 6.54-1 10a20 20 0 0 0 3.25 3.06l1.82 1.54A39 39 0 0 0 825 548l2.81 1.9a88 88 0 0 0 10.2 5.66l3.55 1.76L845 559l3.07 1.56c7.1 3.5 14.18 6.56 21.98 8.04 1.95.4 1.95.4 4.95 1.46 3.4 1.07 6.6 1.4 10.14 1.7C887 572 887 572 888 573c4.45.22 8.9.19 13.36.19q3.34 0 6.7.04h4.3l3.92.02A43 43 0 0 0 927 571q2.18-.33 4.37-.62c13.52-2.7 27.4-10.3 35.26-21.77A98 98 0 0 0 970 542q1.1-1.91 2.25-3.81a25 25 0 0 0 2.75-7.2l1.45-3.65c1.72-4.51 2.52-9.04 3.36-13.78 1.65-8.46 3.7-15.21 10.87-20.56 5.18-2.23 9.74-2.62 15.32-2 3.25 1.63 3.25 1.63 6 4l3.12 2.3c7.25 7.66 7.33 20.49 7.14 30.4q-.1 3.15-.26 6.3l-.14 2.86a37 37 0 0 1-3.05 12.02c-.8 2.12-.8 2.12-1.69 5.4-4.24 13.96-13.45 25.13-23.5 35.35l-1.59 1.62C988.24 595 988.24 595 986 595q-.3.88-.64 1.78c-1.87 3.04-4.08 4.1-7.18 5.85l-3.14 1.79A77 77 0 0 1 967 608l-4.13 1.94c-5.8 2.6-11.88 4.12-18.07 5.58-1.8.48-1.8.48-3.93 1.48-4.2 1.47-8.45 1.64-12.87 2l-4.69.5-2 .22q-2.78.36-5.5.83c-4.4.52-8.54.4-12.94.14l-2.52-.14a163 163 0 0 1-17.62-2.08q-3.54-.6-7.1-.97A65 65 0 0 1 865 615l-3.5-1-10.5-3-3.28-.84a62 62 0 0 1-10.85-4.72c-3.93-2.1-7.47-3.61-11.87-4.44-2.1-1.12-2.1-1.12-4.07-2.44A71 71 0 0 0 813 594q-4.63-2.48-9.25-5c-4.17-2.23-8.38-4.2-12.75-6l-3.38 4.25-1.9 2.39A38 38 0 0 0 782 596l-1.57 2c-1.43 2-1.43 2-1.87 3.88-1.16 4.39-4.25 7.76-7.19 11.12-2.4 3.04-3.26 5.34-4.37 9l-3 4a227 227 0 0 0-3.07 5.5l-1.53 2.85L758 637l-1.3 2.07c-.7 1.93-.7 1.93-.06 4.08l1.17 2.23c1.75 3.6 2.84 6.59 3.2 10.62l.61 3.25c-1.02 6.1-5.1 9.73-9.62 13.75-8.04 5.25-18.15 4.07-27.3 3.88l-2.9-.04-2.65-.05c-2.15.2-2.15.2-4.15 2.2.35 1.77.35 1.77 1 4 .47 5.64.77 10.44-1.75 15.57-4.83 5.23-4.83 5.23-8.79 5.82h-2.89l-3.28.04-3.54-.02h-3.65l-7.63-.01q-5.84-.01-11.68.02l-7.42-.01-3.52.02-3.3-.03-2.89-.01c-4.36-.62-6.94-2.47-9.65-5.87l-1.76-2.82-1.8-2.8c-1.52-3.02-2.08-5.54-2.45-8.9q-1.37.05-2.77.08l-3.92.06-2.13.03c-4.3.02-8.39-.27-12.64-.92-14.14-2.1-14.14-2.1-18.3.46-1.93 2.36-1.93 2.36-3.58 4.9-2.89 4.17-7.05 5.64-11.66 7.4l-2.45.97c-5.92 1.96-11.68 2.33-17.87 2.4l-2.3.05c-7.26-.06-12.26-2.81-17.65-7.53-2.7-2.94-4.5-6.3-6.37-9.81C537 680 537 680 534 679q-3.57-.2-7.13-.31c-11.23-.6-24.19-1.48-32.43-9.91-3.4-4.2-5.4-7.34-6.44-12.78 4.2-13.01 15.34-22.64 26.95-29.08 3.42-1.53 7.01-2.58 10.6-3.72 2.45-1.2 2.45-1.2 3.8-3.2.81-2.5.65-3.6-.35-6-1.57-1.75-1.57-1.75-3-3l2-3c-.2-2.16-.2-2.16-.82-4.62a75 75 0 0 1-1.68-10.2A27 27 0 0 0 523 584l-.5-2.12C522 580 522 580 520 577a88 88 0 0 1-1.19-4.5c-1.5-5.23-4.02-9.2-7.04-13.7-2.3-3.63-4-7.42-5.72-11.36q-1.28-2.92-2.74-5.75c-1.86-3.81-3.05-7.73-4.19-11.81-1.22-3.13-2.6-4.7-5.12-6.88l1.56-1.25L497 520c-.35-1.9-.35-1.9-1-4a75 75 0 0 1-2.66-17.26c-.34-2.74-.34-2.74-1.39-4.71-1.35-2.87-.96-5.1-.64-8.22l.3-3.23c.4-2.58.4-2.58 1.4-3.58.23-2.6.41-5.15.55-7.75l.13-2.17q.31-5.53.31-11.08c.41-2.23 1-4 2-6.05 1.37-4.04 1.51-7.9 1.68-12.14l.12-2.58c.24-5.84.04-11.43-.8-17.23q-.26-2.52-.5-5.06-.45-4.64-1-9.25c-1.3-11.9-1.66-23.63-1.63-35.6v-15.98c0-3.3.08-5.96 1.13-9.11.26-2.73.44-5.47.62-8.21.4-2.9 1.27-5.1 2.38-7.8.3-2.16.3-2.16.43-4.3a37 37 0 0 1 2.87-10.92A35 35 0 0 0 503 307q.97-3.5 2-7l.93-3.37a99 99 0 0 1 1.9-5.9l.85-2.35.83-2.17c.64-2.91.57-4.41-.5-7.21a60 60 0 0 0-6.33-4.62 132 132 0 0 1-17.06-13.91 106 106 0 0 0-6.62-5.72c-3.25-2.75-5.1-5.98-7-9.75l-2.57-4.44c-9.56-17.27-6.35-36.65-4.43-55.56l.25-2.5.5-4.95q.4-4.14.75-8.3c.24-2.82.55-5.52 1.06-8.31.4-2.65.46-5.02.44-7.7-.06-5.7.01-11.65 1.53-17.18.58-2.57.52-4.93.47-7.56-.08-3.42.17-6.2 1-9.5.06-2.7 0-5.36-.07-8.05.07-2.95.07-2.95.57-6.21.47-3.57.6-6.91.56-10.51l-.02-3.75-.04-3.85-.07-7.65-.03-3.41C472 73 472 73 473 72q.07-5.56-.04-11.12c-.05-4.43.14-8.52 1.04-12.88l.36-2.16c1.03-5.04 2.66-7.4 6.64-10.84l1.42-1.86c4.36-5.41 8.38-6.27 15.24-5.88" fill="#141714"/><path d="M1009.25 494.5c6.73 6.11 9.3 13.16 9.94 22.13q.1 4.15.06 8.31l.02 2.8c-.02 9.8-2.05 18.55-5.46 27.7l-.93 2.5A73 73 0 0 1 1003 576l-1.87 2.57C987.28 596.79 967.69 606.86 946 613l-2.07.6c-24.11 6.74-51.78 4.96-75.93-.6l-2.4-.54c-20.16-4.63-38.92-13.73-57.19-23.21q-3.29-1.7-6.61-3.36l-3.55-1.83-2.98-1.52c-2.5-1.69-3.48-2.64-4.27-5.54.58-1.91.58-1.91 1.81-4.06 2.82-5.2 5.41-10.47 7.94-15.82l1.21-2.52 1.15-2.4 1.03-2.16c.84-2 1.4-3.92 1.86-6.04h2v-2c3.04.62 5.28 1.61 7.91 3.26l2.23 1.38 2.36 1.48 4.91 3.03q3.9 2.42 7.77 4.85c14.14 8.65 29.73 14.27 45.82 18l3.17.75c24.36 4.67 51.46 1.53 72.5-12.09 14.7-10.48 22.52-25.39 26.53-42.79l.65-2.83q.64-2.79 1.23-5.61c1.7-7.76 4.18-12.76 10.92-17.43 5.31-1.77 10.14-1.86 15.25.5" fill="#111311"/><path d="M497.66 27.26c5.95 1.32 9.83 4.8 14.34 8.74l5.5 4.44 2.72 2.27q2.85 2.36 5.74 4.65c4.93 3.94 9.12 7.7 13.04 12.64a46 46 0 0 0 8.56 6.5c3.54 2.18 6.23 5.06 8.9 8.25 3.85 4.36 6.67 6.08 12.48 6.66l2.58.15 2.72.24q4.28.35 8.57.64l5.72.48c7.76.64 15.44 1.17 23.24 1.06 3.37.03 6.58.5 9.91 1.02 4.85.74 9.42 1.02 14.32 1l3.37.8c5.35.29 8.24-1.91 12.63-4.8l1.78-1.17q4.9-3.23 9.76-6.52A176 176 0 0 1 672 69q5.44-3.5 10.85-7.06l2.21-1.44 2-1.31c1.94-1.2 1.94-1.2 4.1-2.21C693 56 693 56 694.42 53.94c2.04-2.52 3.44-2.4 6.57-2.94l1.86-1.44c4.18-3.05 9.38-3.65 14.47-3.48 7.48 1.2 13.13 5.69 17.73 11.55 1.26 4.53 1.11 8.77.94 13.45 0 2.92 0 2.92 1 5.92l-1.38 3.69c-2.07 5.73-2.17 11.53-2.4 17.54-.25 4.22-.9 8.2-1.76 12.33a65 65 0 0 0-.9 7.5c-.34 4.1-.9 8.09-1.63 12.13a69 69 0 0 0-.93 13.8 57 57 0 0 1-1.54 6.86 27 27 0 0 0-.46 6.84q.05 2.16 0 4.3l-1 1q-.32 3.33-.5 6.64c-.5 7.9-.5 7.9-1.07 11.37-.43 3-.43 3-.43 6.19 0 2.59-.38 4.33-1 6.8q-.4 2.78-.72 5.56l-.39 3.25-.39 3.39-.4 3.33q-.87 7.26-1.64 14.53c-.46 3.95-.46 3.95-.99 6C717 232 717 232 717 235c-.46 2.04-1.02 4.05-1.57 6.06C715 243 715 243 715 246l-3 1q-.14 1.01-.32 2.06c-.83 3.55-2.17 6.63-3.68 9.94l-1.38 3.13c-1.8 3.19-4.04 5.29-6.62 7.87a63 63 0 0 0-1 4l-3 1 2 3v3c2.64 1.46 3.9 2 7 2l5 5q2.97 1.55 6 3a151 151 0 0 1 15.95 11.49c2.05 1.5 2.05 1.5 3.91 2.43 3.07 1.56 5.73 3.62 8.45 5.7l1.75 1.35a63 63 0 0 1 10.4 10.25 34 34 0 0 0 4.91 4.59c5.88 4.85 11.45 11.23 14.63 18.19l1.43 2.38A116 116 0 0 1 782 356l1.56 3.06c2.4 4.89 3.94 9.72 5.44 14.94l1 2.3c1.24 3.37 1.83 6.72 2.5 10.23.5 2.47.5 2.47 1.5 5.9 2.47 8.8 3.3 17.26 3.18 26.38v3.03a78 78 0 0 1-1.75 16.72c-.46 2.6-.7 4.8-.43 7.44 1.43 1.8 3 2.86 4.88 4.17 7.35 6.35 11.23 16.8 14.12 25.83l1 3.06c2.9 10.48 3.34 21.14 3.31 31.94l.05 3.89v3.74l.01 3.35c-.42 3.4-1.52 5.19-3.37 8.02-.65 3.4-1 6.54-1 10a20 20 0 0 0 3.25 3.06l1.82 1.54A39 39 0 0 0 825 548l2.81 1.9a88 88 0 0 0 10.2 5.66l3.55 1.76L845 559l3.07 1.56c7.1 3.5 14.18 6.56 21.98 8.04 1.95.4 1.95.4 4.95 1.46 3.4 1.07 6.6 1.4 10.14 1.7C887 572 887 572 888 573c4.45.22 8.9.19 13.36.19q3.34 0 6.7.04h4.3l3.92.02A43 43 0 0 0 927 571q2.18-.33 4.37-.62c13.52-2.7 27.4-10.3 35.26-21.77A98 98 0 0 0 970 542q1.1-1.91 2.25-3.81a25 25 0 0 0 2.75-7.2l1.45-3.65c1.72-4.51 2.52-9.04 3.36-13.78 1.65-8.46 3.7-15.21 10.87-20.56 5.18-2.23 9.74-2.62 15.32-2 3.25 1.63 3.25 1.63 6 4l3.12 2.3c7.25 7.66 7.33 20.49 7.14 30.4q-.1 3.15-.26 6.3l-.14 2.86a37 37 0 0 1-3.05 12.02c-.8 2.12-.8 2.12-1.69 5.4-4.24 13.96-13.45 25.13-23.5 35.35l-1.59 1.62C988.24 595 988.24 595 986 595q-.3.88-.64 1.78c-1.87 3.04-4.08 4.1-7.18 5.85l-3.14 1.79A77 77 0 0 1 967 608l-4.13 1.94c-5.8 2.6-11.88 4.12-18.07 5.58-1.8.48-1.8.48-3.93 1.48-4.2 1.47-8.45 1.64-12.87 2l-4.69.5-2 .22q-2.78.36-5.5.83c-4.4.52-8.54.4-12.94.14l-2.52-.14a163 163 0 0 1-17.62-2.08q-3.54-.6-7.1-.97A65 65 0 0 1 865 615l-3.5-1-10.5-3-3.28-.84a62 62 0 0 1-10.85-4.72c-3.93-2.1-7.47-3.61-11.87-4.44-2.1-1.12-2.1-1.12-4.07-2.44A71 71 0 0 0 813 594q-4.63-2.48-9.25-5c-4.17-2.23-8.38-4.2-12.75-6l-3.38 4.25-1.9 2.39A38 38 0 0 0 782 596l-1.57 2c-1.43 2-1.43 2-1.87 3.88-1.16 4.39-4.25 7.76-7.19 11.12-2.4 3.04-3.26 5.34-4.37 9l-3 4a227 227 0 0 0-3.07 5.5l-1.53 2.85L758 637l-1.3 2.07c-.7 1.93-.7 1.93-.06 4.08l1.17 2.23c1.75 3.6 2.84 6.59 3.2 10.62l.61 3.25c-1.02 6.1-5.1 9.73-9.62 13.75-8.04 5.25-18.15 4.07-27.3 3.88l-2.9-.04-2.65-.05c-2.15.2-2.15.2-4.15 2.2.35 1.77.35 1.77 1 4 .47 5.64.77 10.44-1.75 15.57-3.84 4.16-3.84 4.16-6.25 5.44-2.25-.31-2.25-.31-4-1l4.5-3.51c2.76-2.73 3.44-4.85 3.8-8.73l.01-3.63.05-3.62c-.39-3.8-1.53-6.2-3.36-9.51v-2l2.1.49c5.63 1 11.37.78 17.08.82l3.87.09c7.63.05 14.33-.3 20.95-4.4 4.24-4.63 3.54-10.43 3.37-16.38-.48-4.62-1.79-6.86-4.37-10.62.4-3.23 1.83-5.77 3.41-8.58l1.53-2.73 1.68-2.94 1.74-3.05a751 751 0 0 1 13.45-22.51l1.81-2.94c10.7-17.08 10.7-17.08 15.38-19.12 2.45-.16 3.54.34 5.66 1.54l2.17 1.19 2.35 1.33 5.14 2.78 2.78 1.5c31.57 16.7 63.42 28 99.52 27.9h2.26c12.08-.04 23.5-.9 35.12-4.37l2.5-.73c24.54-7.37 45.35-20.22 58.5-42.68 7.34-14.01 11.17-27.62 11.18-43.46l.04-2.86c.02-8.96-.89-15.97-6.22-23.27v-2l-2.44-.94C1007 495 1007 495 1006 494c-5.67-.62-10.17-.26-15 3-5.3 5-6.38 11.97-7.8 18.87-2.2 10.68-5.8 19.66-11.2 29.13l-1.5 2.69c-9.03 14.8-25.7 22.78-41.94 27.26A117 117 0 0 1 876 574l-2.23-.55c-22.05-5.53-41.34-15.67-60-28.55C811 543 811 543 809 542a54 54 0 0 1 3.28-14.72c6.1-19.27 2.35-44.48-5.87-62.66-3.2-5.92-6.9-10.63-12.4-14.5-1.66-1.35-1.66-1.35-3-3.12-.1-2.16-.1-2.16.28-4.72.88-7.3.95-14.56.96-21.9v-2.15c0-10.72-.62-20.8-3.25-31.23l-.85-3.74A120.4 120.4 0 0 0 762 332l-2.24-2.67c-6.52-7.54-13.8-13.43-21.76-19.33l-1.74-1.31a184 184 0 0 0-22.43-14.43C704.47 289.1 695.8 283.34 688 276l2.06-2.06a179 179 0 0 1 4.62-4.51c9.31-8.88 15.21-19.4 17.38-32.05l.5-2.75a534 534 0 0 0 5.6-42.12c1.21-12.62 2.68-25.22 4.1-37.82l1.56-14.27a787 787 0 0 1 4.12-32.88 385 385 0 0 0 2.63-23.51l.18-2.07c.25-1.96.25-1.96.76-4 1.52-6.1 1.84-15.4-1-21.15-4.2-4.71-8.16-6.5-14.39-7.31-9.68.58-18.32 6.8-26.25 11.8q-2.56 1.62-5.12 3.2l-5.26 3.3q-5.13 3.24-10.28 6.4l-6.4 3.99q-1.48.9-2.98 1.85l-2.8 1.76-2.66 1.64a69 69 0 0 0-5.98 4.49c-4.48 2.74-7.37 2.5-12.46 2l-2.69-.2-5.94-.46q-5.42-.43-10.86-.73l-7.88-.48-3.73-.22c-7.3-.48-14.45-1.33-21.68-2.43a70 70 0 0 0-9.92-.48c-6.07.03-10.69-.42-15.36-4.68L553 75a320 320 0 0 0-7.63-6.62L541.48 65q-.89-.78-1.84-1.58a836 836 0 0 1-14.46-12.8c-20.84-18.8-20.84-18.8-30.5-20.07-4.99.6-7.95 2.12-11.68 5.44-5.65 7.72-5.93 16.14-6.25 25.38l-.22 4.52q-.52 11.39-.73 22.79l-.18 8.69q-.01 1.1-.05 2.22c-.38 17.28-2.06 34.4-3.73 51.58a2757 2757 0 0 0-2.83 31.43l-.79 9.15c-3.47 40.23-3.47 40.23 8.58 55.75 10.97 12.45 23.2 22.6 37.2 31.5a55 55 0 0 1-3.19 15.69c-6.39 18.48-10.23 36.94-12.8 56.3l-.33 2.14c-2.87 19.88-.32 40.83 2.34 60.6l.27 2.02 1.38 9.9c1.54 10.9 1.66 19.39-1.1 30.04q-.7 2.72-1.38 5.45l-.62 2.4c-3.99 17.16-2.53 36.4 1.43 53.46l.51 3.07c2.87 15.7 10.54 30.9 18.36 44.68 7.28 12.86 10.07 25.3 12.65 39.75.61 3.23 1.35 6.42 2.12 9.62.5 2.62.35 4.4-.64 6.88-3.2 3.93-7.03 5.49-11.63 7.3-11.55 4.85-20.43 11.05-27.3 21.7-1.72 4.83-1.86 8.92 0 13.8 3.93 4.47 9.26 5.42 14.93 6.2q3.4.2 6.82.28l3.87.12 6.02.15 5.86.17 3.52.09C538 671 538 671 541 672c.94 3.47 1.47 6.94 2.05 10.49 1.21 4.5 2.77 7 6.64 9.69 5.3 3 10.05 3.45 16.06 3.32l2.66-.03c10.05-.3 19.72-2.92 27.6-9.47 6.5-8.05 6.98-17 6-27a84 84 0 0 0-5.59-19.65c-3.2-7.52-3.97-16.03-1.19-23.8q1.6-3.51 3.23-7.01c3.11-7.18 4.3-14.86 5.54-22.54 7.74-.25 15.3.1 23 .88l2.46.23 2.35.26 2.08.22c2.52.49 4.73 1.44 7.11 2.4l-.02 3.02q-.1 14.1-.14 28.24l-.07 14.5a3283 3283 0 0 0-.09 19.37c-.29 33.13-.29 33.13 8.77 42.36A71 71 0 0 0 654 701q1.16.9 2.37 1.8L658 704c-4.34.37-6.48-.5-10-3-1.99-2.5-1.99-2.5-3.75-5.31l-1.8-2.8c-1.52-3.02-2.08-5.54-2.45-8.9q-1.37.05-2.77.08l-3.92.06-2.13.03c-4.3.02-8.39-.27-12.64-.92-14.14-2.1-14.14-2.1-18.3.46-1.93 2.36-1.93 2.36-3.58 4.9-2.89 4.17-7.05 5.64-11.66 7.4l-2.45.97c-5.92 1.96-11.68 2.33-17.87 2.4l-2.3.05c-7.26-.06-12.26-2.81-17.65-7.53-2.7-2.94-4.5-6.3-6.37-9.81C537 680 537 680 534 679q-3.57-.2-7.13-.31c-11.23-.6-24.19-1.48-32.43-9.91-3.4-4.2-5.4-7.34-6.44-12.78 4.2-13.01 15.34-22.64 26.95-29.08 3.42-1.53 7.01-2.58 10.6-3.72 2.45-1.2 2.45-1.2 3.8-3.2.81-2.5.65-3.6-.35-6-1.57-1.75-1.57-1.75-3-3l2-3c-.2-2.16-.2-2.16-.82-4.62a75 75 0 0 1-1.68-10.2A27 27 0 0 0 523 584l-.5-2.12C522 580 522 580 520 577a88 88 0 0 1-1.19-4.5c-1.5-5.23-4.02-9.2-7.04-13.7-2.3-3.63-4-7.42-5.72-11.36q-1.28-2.92-2.74-5.75c-1.86-3.81-3.05-7.73-4.19-11.81-1.22-3.13-2.6-4.7-5.12-6.88l1.56-1.25L497 520c-.35-1.9-.35-1.9-1-4a75 75 0 0 1-2.66-17.26c-.34-2.74-.34-2.74-1.39-4.71-1.35-2.87-.96-5.1-.64-8.22l.3-3.23c.4-2.58.4-2.58 1.4-3.58.23-2.6.41-5.15.55-7.75l.13-2.17q.31-5.53.31-11.08c.41-2.23 1-4 2-6.05 1.37-4.04 1.51-7.9 1.68-12.14l.12-2.58c.24-5.84.04-11.43-.8-17.23q-.26-2.52-.5-5.06-.45-4.64-1-9.25c-1.3-11.9-1.66-23.63-1.63-35.6v-15.98c0-3.3.08-5.96 1.13-9.11.26-2.73.44-5.47.62-8.21.4-2.9 1.27-5.1 2.38-7.8.3-2.16.3-2.16.43-4.3a37 37 0 0 1 2.87-10.92A35 35 0 0 0 503 307q.97-3.5 2-7l.93-3.37a99 99 0 0 1 1.9-5.9l.85-2.35.83-2.17c.64-2.91.57-4.41-.5-7.21a60 60 0 0 0-6.33-4.62 132 132 0 0 1-17.06-13.91 106 106 0 0 0-6.62-5.72c-3.25-2.75-5.1-5.98-7-9.75l-2.57-4.44c-9.56-17.27-6.35-36.65-4.43-55.56l.25-2.5.5-4.95q.4-4.14.75-8.3c.24-2.82.55-5.52 1.06-8.31.4-2.65.46-5.02.44-7.7-.06-5.7.01-11.65 1.53-17.18.58-2.57.52-4.93.47-7.56-.08-3.42.17-6.2 1-9.5.06-2.7 0-5.36-.07-8.05.07-2.95.07-2.95.57-6.21.47-3.57.6-6.91.56-10.51l-.02-3.75-.04-3.85-.07-7.65-.03-3.41C472 73 472 73 473 72q.07-5.56-.04-11.12c-.05-4.43.14-8.52 1.04-12.88l.36-2.16c1.03-5.04 2.66-7.4 6.64-10.84l1.42-1.86c4.36-5.41 8.38-6.27 15.24-5.88" fill="#E3E4E5"/><path d="m557 473 1.32 1.14 1.8 1.55 1.92 1.65q2.67 2.24 5.4 4.41L570 484v2l2.24.79a26 26 0 0 1 6.9 4.53c4.84 3.87 9.84 6.2 15.55 8.49l2.76 1.16c10.16 4.21 19.07 7.28 30.07 3.97 9.71-4.09 13.93-8.88 17.86-18.44q.83-2.24 1.62-4.5h1c.37 6.71-.3 11.81-3 18l-2.69 7-2.31 6h-2l.43 2.65c.84 5.94 1.22 11.93 1.63 17.91l.14 1.99c1.18 17.8.99 35.62.8 53.45a899 899 0 0 1-26.94-2.06l-2.97-.28L604 586l-.04 2.1a64.5 64.5 0 0 1-7.58 27.88c-1.64 3.58-1.88 6.48-2.07 10.4l-.2 3.77L594 633a39 39 0 0 1-4.06-7.94l-1.04-2.59c-1.65-4.51-2.04-8.33-2.07-13.16l-.01-1.97-.01-6.34.01-2.2a288 288 0 0 1 10.63-76.13c.61-2.95.64-5.67.55-8.67l-2.12-.25c-9.65-2.52-20.08-12.72-26.88-19.75v-2h-2v-3h-2c-1.44-1.86-1.44-1.86-3-4.31l-1.56-2.43L559 480l-2-3z" fill="#010101"/><path d="M604 586c7.74-.25 15.3.09 23 .88l2.46.23 2.35.26 2.08.22c2.53.49 4.75 1.4 7.11 2.41l.05 17.71.03 6.01c.1 24.01.1 24.01-1.08 31.28-2.11 2.11-6.71 1.26-9.63 1.32l-2.62.06-8.31.18-5.63.13L600 647l-2.44-5.19-1.37-2.92c-3.03-7.36-3.66-15.8-.96-23.33q1.59-3.53 3.24-7.02c3.11-7.18 4.28-14.86 5.53-22.54" fill="#EFF0F1"/><path d="m640 645 .04 2.22c.93 41.61.93 41.61 9.41 50.26A71 71 0 0 0 654 701a292 292 0 0 0 4 3c-4.33.37-6.48-.49-10-3-1.98-2.49-1.98-2.49-3.75-5.31l-1.8-2.8c-1.52-3.02-2.07-5.55-2.45-8.89l-2.76.07-3.93.05-2.13.04c-4.29.01-8.39-.28-12.64-.92-14.14-2.1-14.14-2.1-18.3.46-1.93 2.36-1.93 2.36-3.58 4.91-2.89 4.15-7.05 5.63-11.66 7.39l-2.45.96c-5.92 1.97-11.68 2.34-17.86 2.42l-2.32.04c-7.28-.06-12.32-2.83-17.69-7.61A29.6 29.6 0 0 1 537 676l-3.72.09c-5.98-.01-11.85-.72-17.78-1.47l-3.32-.38-3.15-.39-2.86-.35-2.17-.5-1-2a54 54 0 0 1 12.82-.91l3.87.13 1.99.08 6.04.21c9.89.36 9.89.36 13.28 1.49.94 3.47 1.47 6.94 2.06 10.48 1.21 4.52 2.77 7.02 6.64 9.7 5.29 3.01 10.05 3.45 16.05 3.32l2.66-.03c10.05-.3 19.73-2.92 27.59-9.47 6.68-8.26 6.53-16.8 6-27q-.75-6.04-2-12c3.72-1.24 7.25-1.23 11.13-1.32l2.4-.06 7.59-.18 5.14-.13c12.06-.31 12.06-.31 13.74-.31" fill="#CCCFCE"/><path d="M765 450h2l-1 5h-2l-1 5h-2l-.94 2.88C759 466 759 466 758 468h-2v4h-2l-.45 1.69c-1.28 4.35-2.6 7.64-5.55 11.12-3.92 4.88-4.73 10.18-6 16.19q-.8 2.88-1.62 5.75A75 75 0 0 0 738 520h-2l-.73 2.97c-6.4 25.78-6.4 25.78-9.61 35.02-1.08 3.29-1.86 6.64-2.66 10.01h-2a231 231 0 0 0-2.48 31.66c-.21 8.08-1.89 13.31-6.52 20.03l-1.5 2.2L709 624l-1.56 2.27L706 628h-2v3h-2c-.3-6.14.56-10.66 2.75-16.38l.82-2.23q2.7-7.3 5.67-14.51.96-2.41 1.76-4.88l-9-1c.45-4.99 1.22-9.14 3.18-13.75.94-2.57 1.56-5.18 2.21-7.84 1.25-4.93 2.73-9.79 4.17-14.66l1.88-6.39.84-2.83A165 165 0 0 0 718 540h2l.31-3.25c.7-5.7 2.22-11.21 3.69-16.75h2l.37-2.54c.67-3.7 1.64-7.22 2.69-10.84l1.1-3.77.84-2.85h2l.12-3.25c.73-6.16 3.95-11.38 6.88-16.75h2v-4h2v-2h2v-2h2v-2h2l2-6h2l.5-2.06c1.91-3.75 4.5-5.76 7.72-8.39C764 452 764 452 765 450" fill="#020402"/><path d="M495 478h1l.04 1.75c.36 12.7 1.35 24.82 3.96 37.25l.51 3.09c2.91 15.7 10.54 30.88 18.37 44.66 7.27 12.86 10.07 25.3 12.64 39.74q.95 4.84 2.12 9.63c.5 2.62.35 4.4-.64 6.88-3.21 3.92-7.03 5.49-11.62 7.31-11.56 4.84-20.44 11.04-27.32 21.69-1.7 4.8-1.8 8.84-.12 13.75 3.07 3.35 6.86 4.67 11.06 6.25l-1 2q5.68.76 11.38 1.5l3.21.43c6.51.84 12.84 1.27 19.41 1.07v5l-1.55-.48c-3.22-.68-6.35-.72-9.64-.83-11.21-.6-24.14-1.5-32.36-9.91-3.41-4.19-5.4-7.34-6.45-12.78 4.19-13.01 15.35-22.64 26.95-29.08 3.42-1.53 7.02-2.59 10.59-3.72 2.46-1.2 2.46-1.2 3.81-3.2.81-2.49.66-3.6-.35-6-1.56-1.75-1.56-1.75-3-3l2-3c-.21-2.16-.21-2.16-.81-4.62a75 75 0 0 1-1.69-10.19A27 27 0 0 0 523 584l-.5-2.12C522 580 522 580 520 577q-.64-2.24-1.19-4.5c-1.49-5.24-4.02-9.2-7.04-13.7-2.3-3.63-4-7.42-5.71-11.36q-1.28-2.92-2.75-5.75c-1.86-3.81-3.04-7.74-4.19-11.81-1.22-3.13-2.61-4.7-5.12-6.88l1.56-1.25L497 520c-.34-1.89-.34-1.89-1-4-3.73-12.28-1.79-25.36-1-38" fill="#E1E1E3"/><path d="m703 263 1 3-1.94 1.75c-2.12 2.31-2.36 3.34-3.06 6.25l-3 1 2 3v3c2.65 1.46 3.89 2 7 2l5 5q2.97 1.55 6 3a151 151 0 0 1 15.96 11.48 17 17 0 0 0 3.91 2.43c3.06 1.57 5.72 3.63 8.44 5.71l1.76 1.35a64 64 0 0 1 10.4 10.24 33 33 0 0 0 4.91 4.6c5.88 4.84 11.44 11.23 14.62 18.19l1.44 2.38c1.67 2.81 3.12 5.68 4.56 8.62l1.56 3.06c2.39 4.88 3.95 9.72 5.44 14.94l1 2.31c1.25 3.35 1.84 6.71 2.5 10.22.5 2.47.5 2.47 1.5 5.91 2.47 8.81 3.34 17.36 3.31 26.5l.05 3.07v2.95l.01 2.65c-.44 2.85-1.49 4.24-3.37 6.39l-.04-1.69c-1.07-36.67-7.43-71.73-31.96-100.31l-2.23-2.68c-6.52-7.53-13.81-13.43-21.77-19.32l-1.74-1.31a183 183 0 0 0-22.42-14.43c-9.37-5.15-18.04-10.92-25.84-18.26l5-5 2.5-2.62A33 33 0 0 1 703 263" fill="#E6E7E7"/><path d="M510 288h1c-.61 7.43-2.71 14.24-4.81 21.38-3.93 13.73-6.39 27.44-8.19 41.62l-.31 2.09c-2.87 19.9-.33 40.85 2.33 60.64l.28 2.02a814 814 0 0 0 1.38 9.91c1.51 10.74 1.7 19.15-1.06 29.65l-1.38 5.6-.66 2.68c-2.59 10.72-3.12 21.44-3.58 32.41l-3-1c-1.13-3.4-.94-5.58-.62-9.12l.27-3.26C492 480 492 480 493 479q.36-3.87.56-7.75l.13-2.17q.33-5.54.31-11.08c.42-2.23 1-4 2-6.05 1.37-4.04 1.51-7.9 1.69-12.14l.12-2.58A92 92 0 0 0 497 420l-.5-5.06q-.46-4.63-1-9.25c-1.3-11.9-1.66-23.64-1.63-35.6q.01-4.11-.01-8.24l.01-5.26-.01-2.48c.01-3.3.09-5.97 1.14-9.11.27-2.73.44-5.47.62-8.21.39-2.89 1.28-5.11 2.38-7.79.31-2.18.31-2.18.44-4.31a36 36 0 0 1 2.87-10.92A35 35 0 0 0 503 307a559 559 0 0 1 2-7l.94-3.62c1-3.2 2.15-5.64 4.06-8.38" fill="#E7E8EB"/><path d="M589.52 212.92c3.74 2.08 5.22 3.21 6.48 7.4V223l-3.87 3q-1.08.82-2.18 1.7C588 229 588 229 586 229v6c-3.25 1.62-6.39 1.11-10 1-1-1-1-1-1.25-4.19-.72-3.68-.96-4.39-3.31-6.94-2.44-2.87-2.44-2.87-3.13-5.43.83-2.95 2.13-4.65 4.59-6.48 5.23-2.39 11.31-1.98 16.62-.04" fill="#696A6A"/><path d="M808 542c2.68 2.68 2.39 4.06 2.5 7.81-.06 7.73-2.03 14.58-4.37 21.9-1.44 4.58-2.51 8.42-2.13 13.29-4.97-.47-8.15-1.79-12-5 0-3.81.31-5.17 1.83-8.48l1.17-2.59 1.25-2.68 1.2-2.63q3.19-7.02 6.74-13.84c.86-1.9 1.36-3.75 1.81-5.78h2z" fill="#020302"/><path d="M500 30c5.93.33 8.7 2.84 12.88 6.69l3.71 3.29 1.78 1.6c2.54 2.22 5.24 4.21 7.96 6.2 4.91 3.59 8.77 7.54 12.67 12.22a47 47 0 0 0 8.56 6.5c3.54 2.18 6.24 5.06 8.89 8.25 3.86 4.36 6.69 6.08 12.49 6.65l2.58.16 2.72.24q4.29.35 8.57.64l5.72.48c7.76.64 15.44 1.16 23.22 1.06 3.48.03 6.81.47 10.25.96l3.88.52C629 86 629 86 631 87v2c-11.71-.4-23.39-.93-35.06-2l-2.75-.25c-3.47-.33-6.87-.69-10.3-1.31a55 55 0 0 0-8.95-.42c-6.4-.05-11.16-.25-16.06-4.77L553 75c-2.49-2.27-5.06-4.44-7.62-6.62l-3.9-3.37-1.83-1.59q-7.32-6.3-14.46-12.8C507.18 34.39 507.18 34.39 500 32z" fill="#DFE0E0"/><path d="M704 593h9a58 58 0 0 1-4.19 14.06c-5.38 12.38-8.63 25.85-11.81 38.94h-2c-.17-6.99.27-13.71 1.25-20.62l.4-2.89c1.46-10.02 3.37-20.13 7.35-29.49" fill="#E2E5E2"/><path d="M757 653h1c1.22 12.17 1.22 12.17-1.61 16.42-9.42 8.29-19.8 7.7-31.69 7.45l-2.9-.03-2.65-.05C717 677 717 677 715 679a36 36 0 0 0 1 4c.48 5.63.77 10.42-1.75 15.56-3.83 4.16-3.83 4.16-6.25 5.44-2.25-.31-2.25-.31-4-1l4.49-3.52c2.77-2.72 3.45-4.85 3.81-8.72l.01-3.64.05-3.61c-.39-3.81-1.53-6.19-3.36-9.51v-2l2.09.49c5.64.99 11.38.78 17.1.82l3.87.09c7.71.05 14.15-.53 20.94-4.4 4.16-4.16 3.72-10.4 4-16" fill="#D2D3D5"/><path d="M719 184h1c2.18 7.87 1.85 14.54.69 22.56l-.87 6.44-.43 3.09a261 261 0 0 0-.93 7.94c-.46 3.97-.46 3.97-.99 6.03C717 232 717 232 717 235c-.46 2.04-1.01 4.04-1.56 6.06C715 243 715 243 715 246l-3 1-.31 2.06c-1.33 5.67-4.05 10.79-6.69 15.94h-6l1.14-1.4c16.78-21.39 16.45-53.45 18.86-79.6" fill="#E5E4E5"/><path d="M685 275c1.88.25 1.88.25 4 1a17 17 0 0 1 2 4l-1.81.36c-2.79.81-4.69 2.45-6.99 4.16-5.5 3.7-11.5 7.48-18.2 7.48v2h-4v2h-8v2q-3.87.8-7.75 1.56l-2.21.46c-3.71.73-6.43 1.08-10.04-.02v-2l16-2v-2a27.4 27.4 0 0 1 12-2v-2h4v-2c2.91-1.26 4.8-2 8-2v-2h4v-2l1.94-.88C680 280 680 280 681 278h3z" fill="#040605"/><path d="M465 214h1l.3 2.64c2.82 22.52 13.32 36.73 30.79 50.53q8.2 6.29 16.91 11.83-.17 2.19-.38 4.38l-.21 2.46C513 288 513 288 511 290l-.44-3.25L510 283l-.14-1.95c-1.38-3.28-4.29-4.73-7.17-6.61a135 135 0 0 1-17.06-13.97 109 109 0 0 0-6.63-5.72c-3.25-2.75-5.1-5.99-7-9.75l-2.56-4.44q-1.23-2.26-2.44-4.56l-1.02-1.86c-3.03-6.48-1.79-13.22-.98-20.14" fill="#DCDCDB"/><path d="M660 202v2l6 1 1 3-7-1v-2l-3.44-.44C653 204 653 204 652 203q-3-.14-6.02-.13l-3.79-.01-2 .01-5.88-.01c-7.82.01-15.53.34-23.31 1.14v-2c15.93-5.74 33.25-7.07 49 0" fill="#030604"/><path d="m840 557 1.98.92c19.89 9.13 19.89 9.13 28.07 10.68 1.95.4 1.95.4 4.95 1.46 3.4 1.06 6.61 1.4 10.14 1.69C887 572 887 572 888 573l3.5.5c3.5.5 3.5.5 4.5 1.5q2.24.23 4.47.32l8.47.37 7.06.31v1c-13.71.33-26.63.39-40-3l-2.23-.55c-12.23-3.07-23.95-6.81-34.77-13.45z" fill="#DDDDDF"/><path d="M793 412h1l.08 1.92a1265 1265 0 0 0 .48 11.73c.21 4.88.62 9.53 1.44 14.35l-.75 2.56L795 445c1.94 2.12 1.94 2.12 3.34 3.36A59 59 0 0 1 814 476l1.25 3.62c.82 3.7.53 5.12-1.25 8.38h-1l-.48-2.64c-2.68-13.67-6.63-26.9-18.52-35.24-1.64-1.34-1.64-1.34-3-3.12-.09-2.27-.09-2.27.28-4.9.76-6.26 1.05-12.49 1.28-18.79l.13-3.32z" fill="#E8E9E7"/><path d="M512.3 670.09c.37 0 .37 0 2.2.06l4.59.15q3.51.12 7 .2l4.47.15 2.12.06c3.02.1 5.44.33 8.32 1.29l2 13c-4-2-4-2-5.25-5.62L537 676l-3.72.09c-5.98 0-11.85-.71-17.78-1.46l-3.32-.38-3.15-.4-2.85-.34L504 673l-1-2c3-1.5 6.03-1.02 9.3-.91" fill="#C2C2C4"/><path d="M528 186v2l3.25-.25c5.93-.04 11.26 2.2 16.75 4.25v2c-4.22-.49-8.41-1.05-12.59-1.79-10.79-1.86-20.51-2.47-31.41-1.21v2h-4c1-3 1-3 2.69-4.17 8.32-3.67 16.41-3.2 25.31-2.83" fill="#030503"/><path d="m492 661 1.44 2.25c3.36 3.61 7.01 5.01 11.56 6.75l-1 2q5.68.76 11.38 1.5l3.21.43c6.51.84 12.84 1.27 19.41 1.07v5l-1.55-.48c-3.22-.68-6.35-.72-9.64-.83-11.42-.61-24.26-1.55-32.56-10.2L493 667l-1-1q-.06-2.5 0-5" fill="#E2E2E4"/><path d="m591.3 83.05 3.7.12 3.87.14 3.95.14c22.94.93 22.94.93 28.18 3.55v2a612 612 0 0 1-35.07-2l-2.75-.25c-4.43-.43-8.8-.94-13.18-1.75v-1a41 41 0 0 1 11.3-.95" fill="#DCDCDE"/><path d="M497 450h2c.31 6.4-.29 12.23-1.44 18.5-1.66 9.15-2.24 18.22-2.56 27.5l-3-1c-1.13-3.4-.94-5.58-.62-9.12l.27-3.26C492 480 492 480 493 479q.36-3.87.56-7.75l.13-2.17a104 104 0 0 0 .24-8.83c.11-3.76 1.66-6.78 3.07-10.25" fill="#F7F5F8"/><path d="M790 580c4.25.94 7.9 2.84 11.75 4.81l2.05 1.04 4.1 2.09q5.04 2.55 10.1 5.06l-2 1-1 2-1.44-1.07c-7.07-4.98-14.69-8.42-22.56-11.93l-3.38 4.25-1.89 2.39C784 592 784 592 782.94 594.12c-1.42 2.84-3.66 4.72-5.94 6.88l-1-2c3.62-7.07 8.57-13.24 14-19" fill="#E3E4E5"/><path d="M945 568c-2.28 2.28-3.98 2.9-7 4l-2.69 1c-9.06 2.74-17.49 3.26-26.93 3.12l-3.63-.02-8.75-.1-1-2 2.18-.06 9.88-.32 3.44-.09c5.87-.2 10.94-.64 16.5-2.53q2.55-.54 5.12-1a39 39 0 0 0 7.82-2.19C942 567 942 567 945 568" fill="#E8E8EB"/><path d="m810 534 .2 1.74c1.12 3.17 2.97 4.35 5.61 6.38l2.65 2.08A42 42 0 0 0 825 548l2.69 1.88c3.93 2.52 8.01 4.32 12.31 6.12v3c-4.7-.55-8.19-2.67-12.12-5.12l-1.99-1.22A826 826 0 0 1 809 542z" fill="#E2E4E2"/><path d="m1001.06 490.81 2.66-.04c2.28.23 2.28.23 4.28 2.23-2.37 1.18-3.63 1.01-6.25.87-5.5-.04-8.9 1.38-12.94 5.2-2.07 3.35-3.05 6.5-4.09 10.28q-1.1 3.92-2.4 7.77l-.77 2.26L981 521h-2c2.53-19.32 2.53-19.32 9-26 4.2-3.13 7.87-4.15 13.06-4.19" fill="#E8E8EB"/><path d="M793 398c2.6 2.23 3.41 3.59 3.69 7 .37 5.28.48 10.58.56 15.88l.07 2.52a194 194 0 0 0 .04 4.56c-.46 2.62-1.65 4.04-3.36 6.04-.61-12.01-1.18-23.97-1-36" fill="#F2F4F2"/><path d="M1016 546c2 2 2 2 2.12 3.88-.62 5.85-2.22 10.11-5.24 15.12l-1.22 2.08A103 103 0 0 1 1001 582l-3-1 1.54-1.98c7.75-10.28 12.75-20.72 16.46-33.02" fill="#DBDDDF"/><path d="M540 684c2.76 1.08 3.96 1.95 5.75 4.38 4.61 5.37 11.04 7.34 17.92 7.94l4.08.24 2.11.13 5.14.31-1 2q-4.32.12-8.62.19l-2.45.07c-7.76.1-12.64-2.56-18.38-7.63-2.16-2.27-3.38-4.74-4.55-7.63" fill="#E8E7E7"/><path d="M474 52h1c.87 5.98 1.16 11.77 1.12 17.81v2.65c-.04 6.22-.33 12.37-1.12 18.54h-1l-1.06-8.94-.32-2.57-.28-2.45-.27-2.27L472 73l1-1c.06-3.83.02-7.65-.04-11.47l-.02-2.43-.04-2.24C473 54 473 54 474 52" fill="#EAECEA"/><path d="M495 347h2l-1 40h-1c-.97-8.55-1.15-17.02-1.12-25.62l-.02-3.88.01-3.66v-3.33C494 348 494 348 495 347" fill="#F3F3F6"/><path d="M712 241h2l2 4-1.94.69c-2.06 1.31-2.06 1.31-2.62 3.5L711 252a156 156 0 0 1-6 13h-6l1.14-1.4c5.38-6.85 9.43-14.2 11.86-22.6" fill="#E3E4E6"/><path d="M963 608c-3.17 3.78-5.2 4.35-10 5l-3.5 1.56c-5.89 2.37-12.27 1.68-18.5 1.44v-1l2.75-.48a149 149 0 0 0 24.3-6.63C961 607 961 607 963 608" fill="#DADADC"/><path d="M722 160c4.31 6.46 2.24 16.55 1 24q-.07 3 0 6l-3 1c-.27-10.54.47-20.58 2-31" fill="#E6E8EA"/><path d="M754 639c5.91 6.12 7.31 13.94 7.4 22.19C761 663 761 663 758 665l-.33-3.32-.48-4.37-.22-2.18A22.7 22.7 0 0 0 753 644c.31-2.81.31-2.81 1-5" fill="#EAEAEE"/><path d="M495 478h1l.06 1.75A374 374 0 0 0 499 517l-3-1c-4.25-11.84-1.77-25.67-1-38" fill="#DFDEDF"/><path d="M793 412h1l.08 1.92a1265 1265 0 0 0 .48 11.73c.21 4.87.58 9.54 1.44 14.35-.38 2.62-.38 2.62-1 5l-.56 2.31L794 449l-3-2 .2-1.96c.7-7.24 1.09-14.46 1.36-21.73l.13-3.32z" fill="#C6CAC7"/><path d="m763 620 4 2-1.32 1.66a57 57 0 0 0-4.49 7.78c-2.52 4.71-4.82 7.54-9.19 10.56a27 27 0 0 1 3.29-8.33l1.35-2.42 1.42-2.5 1.43-2.55z" fill="#E2E2E4"/><path d="M497 450h2c.3 7.55-.57 14.59-2 22-2.37-4.56-3.48-8.84-3-14a115 115 0 0 1 3-8" fill="#EDEDF0"/><path d="m615.16 84.3 2.4.27 2.5.3 2.51.28c6.16.71 6.16.71 8.43 1.85v2l-23-1v-3c2.95-.99 4.17-1.04 7.16-.7" fill="#DDDBDE"/><path d="m512.41 670.12 2.21.07 7 .25 4.74.15L538 671v1c-7.57.94-15 1.12-22.63 1.06h-3.33L504 673l-1-2c3.02-1.5 6.1-1 9.41-.88" fill="#AFAFB0"/><path d="M499 327h2a806 806 0 0 1-3 24c-3.49-6.77-3.21-12.01-1-19.31 1-2.69 1-2.69 2-4.69" fill="#E4E4E6"/><path d="m714 684 2 1c.36 5.04.58 8.85-1.75 13.44-3.69 4.2-3.69 4.2-6.25 5.56-2.25-.31-2.25-.31-4-1l2.81-2c5.21-4.33 6.38-10.5 7.19-17" fill="#E6E6E8"/><path d="m790 580 3 1h-2l-.69 1.56c-1.5 2.79-3.29 5.23-5.15 7.78C784 592 784 592 783 594.12c-1.49 2.8-3.72 4.72-6 6.88l-1-2c3.62-7.07 8.57-13.24 14-19" fill="#DFE0DE"/><path d="M881 572q3-.06 6 0l1 1 3.5.5c3.5.5 3.5.5 4.5 1.5q2.24.23 4.47.32l2.73.12 5.74.25 7.06.31v1c-26.18.62-26.18.62-36-3z" fill="#B9BABB"/><path d="m512 674 26 1v5l-1.58-.44c-3.04-.7-6.08-1.09-9.17-1.5A113 113 0 0 1 512 675z" fill="#D6D6D7"/><path d="M740 310c4.57.49 6.7 2.13 10 5.25l2.62 2.46L755 320l1.72 1.64c1.76 1.71 3.17 3.15 4.28 5.36-4.22-.52-6.37-2.9-9.38-5.75-6.14-5.75-6.14-5.75-9.31-8.31L740 311z" fill="#ECEDEC"/><path d="M500 271a43 43 0 0 1 9.81 5.12L514 279q-.17 2.19-.38 4.38l-.21 2.46C513 288 513 288 511 290l-.44-3.25L510 283l-.25-2.04c-1.07-2.81-2.77-3.56-5.31-5.08q-2.27-1.36-4.44-2.88z" fill="#DFE0E1"/><path d="m707 47 2 1h-3zm-3 1 3 3a502 502 0 0 1-6.19 4l-1.75 1.16c-3.49 2.21-5.9 3.34-10.06 2.84 1-2 1-2 4-3l1.38-2c2.07-2.56 3.45-2.45 6.62-3 1.81-1.56 1.81-1.56 3-3" fill="#EAEBEF"/><path d="M641 688h3l.66 1.57c2.38 5.23 4.7 8.05 9.34 11.43l2.38 1.81L658 704c-4.33.37-6.48-.48-10-3-2.02-2.63-2.02-2.63-3.81-5.56l-1.83-2.94C641 690 641 690 641 688" fill="#DDDEDD"/><path d="M724 137h1q.54 3.15 1.06 6.31l.6 3.55C727 150 727 150 726 153a73 73 0 0 0-.06 4.69l.02 2.45.04 1.86-3 1c-.11-8.75-.01-17.3 1-26" fill="#D9DCDA"/><path d="M728 121c2 3 2 3 1.76 5.64l-.64 3.05A61 61 0 0 0 728 144l-3 1c-.27-7.79.56-15.33 2-23z" fill="#F0F3F0"/><path d="M757 653h1c1.21 12.15 1.21 12.15-1.61 16.45-3.54 3.17-6.57 5.13-11.39 5.55l-2-2 2.08-.7c7.24-2.62 7.24-2.62 9.98-5.36 1.46-4.56 1.7-9.18 1.94-13.94" fill="#C7CAC8"/><path d="m728 108 4 4-1.44 4.44-.81 2.49C729 121 729 121 728 122q-.59 3.52-1.06 7.06l-.54 3.91-.4 3.03h-1c-.18-6.33.49-12.26 1.5-18.5l.43-2.78z" fill="#C7CAC8"/><path d="M528 624a43 43 0 0 1-9.56 5.69l-2.88 1.32C513 632 513 632 510 632l1-3c2.12-1 2.12-1 5-2l3.5-1.62c3.21-1.27 5.12-1.69 8.5-1.38" fill="#E9EAEC"/><path d="m789 383 3 1c1.12 3.19 1.12 3.19 2 7l.75 3c.31 3.71-.56 6.5-1.75 10h-1l-1.5-8.25-.43-2.36-.41-2.28q-.2-1.03-.38-2.1C789 387 789 387 789 383" fill="#E0E1E0"/><path d="M465 200h1c.1 7.75.06 15.31-1 23h-2c-.36-18.29-.36-18.29 2-23" fill="#EDEEED"/><path d="M471 128h2c.1 6.77.03 13.3-1 20-3.09-5.15-3.34-10.19-2.06-15.94q.5-2.03 1.06-4.06" fill="#E1E2E0"/><path d="M526 582a30 30 0 0 1 3.19 9l.54 2.56c.27 2.47.03 4.1-.73 6.44l-3-1-.5-4.81-.28-2.71c-.3-3.43-.13-6.18.78-9.48" fill="#D5D5D6"/><path d="M714 226h1c1.71 4.81 2.43 8.06 1 13l-1 2h-3c.96-10.56.96-10.56 2-15" fill="#D4D4D5"/><path d="M466 186c2 2 2 2 2.14 4.06l-.16 2.51-.16 2.72-.2 2.83-.17 2.87q-.21 3.5-.45 7.01h-1c-1.5-7.32-2.33-13.61-1-21z" fill="#DCDDDC"/><path d="M528 598c3.06 3.06 3.79 6.73 4 11-1.88 3.06-1.88 3.06-4 5l-2-3 2-3c-.06-1.97-.06-1.97-.44-4.06C527 600 527 600 528 598" fill="#EBEBED"/><path d="M1016 546c2 2 2 2 2.12 3.99-.53 5.1-1.22 8.34-5.12 12.01h-2a406 406 0 0 1 5-16" fill="#D3D6D3"/><path d="M501 325c2.03 2.25 2.98 3.44 3.11 6.51l-.36 2.61-.33 2.64C503 339 503 339 502 341h-3a390 390 0 0 1 2-16" fill="#29292B"/><path d="m531 52 2 2.06c3.49 3.51 7.25 6.71 11 9.94l-2 2-12-11z" fill="#DBDAD9"/><path d="M719 184h1c1.65 6.3 2.6 10.9 0 17l-2 1c-.18-12.67-.18-12.67 1-18" fill="#D2D3D3"/><path d="m701 627 1 4h2c-.55 3.32-1.17 6.15-3 9l-3 1 .94-5.31.52-2.99c.54-2.7.54-2.7 1.54-5.7" fill="#1B1E1B"/><path d="M472 140h1c.95 6.86.95 13.14 0 20h-2c-.1-6.77-.03-13.3 1-20" fill="#262926"/><path d="m492 661 1.44 2.25c3.36 3.61 7.01 5.01 11.56 6.75-3.69 2.08-3.69 2.08-6.5 1.38-2.78-1.53-4.56-2.86-6.5-5.38-.25-2.75-.25-2.75 0-5" fill="#D4D5D7"/><path d="m881 616 5.25-.12 2.95-.08c2.82.2 4.41.75 6.8 2.2-3.63 2.42-4.48 2.06-8.62 1.25l-2.98-.55-2.4-.7z" fill="#E4E8EA"/><path d="M793 398c3.33 3.33 3.82 4.41 4 9-1.38 2.88-1.38 2.88-3 5h-1z" fill="#ECEDEE"/><path d="m814 484 2 1c.7 2.36.7 2.36 1.25 5.31l.58 2.93c.18 2.98-.25 4.28-1.83 6.76-2.36-2.36-1.97-7.06-2.06-10.24q0-2.88.06-5.76" fill="#F0F2F3"/><path d="M745 674v2c-6.87.74-13.17 1.18-20 0v-1c13.63-1.15 13.63-1.15 20-1" fill="#EAEDEA"/><path d="M582 695v2c-5.14.9-9.7.98-14.94.56l-2.07-.16q-2.5-.18-4.99-.4v-1l7.62-.5 2.17-.14c4.08-.27 8.12-.41 12.21-.36" fill="#B3B3AF"/><path d="M495 650c1.37 3.82.68 7.07 0 11h-3c-.37-7.51-.37-7.51 1.5-10z" fill="#242528"/><path d="M500 420h1c.95 4.76 1.08 9.17 1 14l-1-2h-2c-1.12-4.69-.81-7.54 1-12" fill="#DBDCDF"/><path d="M465 214h1l2 18h-3c-.9-6.33-.9-11.67 0-18" fill="#C9C9CA"/><path d="m758 652 2 1c1.18 3.54 1.27 6.28 1 10l-3 2z" fill="#F3F6F3"/><path d="M722 177c1.32 2.64 1.1 4.68 1.06 7.62l-.02 3.04L723 190l-3 1-.12-4.75-.08-2.67c.21-2.69.83-4.28 2.2-6.58" fill="#F4F5F6"/><path d="m638.69 86.44 2.45.3L643 87l1 3c-4.51.08-8.6.1-13-1v-2c3.1-1.03 4.53-.97 7.69-.56" fill="#EEEEF0"/><path d="M761 619c.69 1.62.69 1.62 1 4-1.44 3.25-1.44 3.25-3 6l-1-3h-2v-3h2v-2z" fill="#202121"/><path d="M829 553c4.06.47 7.47.88 11 3v3c-4.51-.53-7.38-2.31-11-5z" fill="#ECECEC"/><path d="m521 576 4 1 1 9-3-1-.38-2.31C522 580 522 580 520 577z" fill="#EDECEE"/><path d="m967 548 1 4c-1.65 2.14-1.65 2.14-3.94 4.25l-2.27 2.14L960 560l-1-3z" fill="#D4D3D9"/><path d="M492 652v13c-2.77-2.77-3.28-5.19-4-9 2.15-4 2.15-4 4-4" fill="#EEEFF1"/><path d="M928 572v2c-3.82 1.42-6.91 2.24-11 2l-1-2c9.51-3.24 9.51-3.24 12-2" fill="#E8E7EB"/><path d="M814 528c1.55 3.09.59 5.68 0 9l-1 2-3-1c1.75-7.75 1.75-7.75 4-10" fill="#EEF0EF"/><path d="M495 347h2v12c-2.38-2.38-2.37-3.3-2.69-6.56l-.26-2.44-.05-2z" fill="#EDEDF0"/><path d="M505 310c2.5 3.76 1.96 4.87 1.12 9.19l-.61 3.29L505 325h-3l.94-5.25.52-2.95q.65-3.43 1.54-6.8" fill="#27282A"/><path d="M473 72h2v19h-1l-1.06-8.94-.32-2.57-.28-2.45-.27-2.27L472 73z" fill="#F4F7F4"/><path d="m696 635 2 1-1 10h-2l-.06-4.94-.04-2.77c.1-2.29.1-2.29 1.1-3.29" fill="#BABDBB"/><path d="m767 609 2 3-4 7-2-1c.62-5.54.62-5.54 2.56-7.88z" fill="#212120"/><path d="M712 241h2l2 4-4 2v3h-2c.88-7.88.88-7.88 2-9" fill="#E7E7E6"/><path d="M500 30c4.87.45 7.39 1.71 11 5l-1 3-1.43-1.06-1.88-1.38-1.87-1.37C503 33 503 33 500 32z" fill="#DADADA"/><path d="M640 672h1l2 16-3-1z" fill="#B6B5B9"/><path d="M495 643h2c-1.16 3.91-2.36 6.87-5 10l-2-3q1.17-1.76 2.38-3.5l1.33-1.97z" fill="#E2E5E6"/><path d="M490 28h11l1 2c-3.12.97-5.52.99-8.75.56l-2.42-.31L489 30z" fill="#EBECEF"/><path d="M540 684c3.81 1.5 5.57 3.76 8 7l2 2c-2.19-.06-2.19-.06-5-1-5-5.5-5-5.5-5-8" fill="#DFDDE1"/><path d="m543 668 2 2-1 2a104 104 0 0 0-.56 4.62l-.26 2.48-.18 1.9h-1c-.98-4.05-1.08-7.84-1-12z" fill="#050509"/><path d="M945 614c-2 2-2 2-4.82 2.2l-3.3-.08-3.33-.05L931 616v-1q2.37-.55 4.75-1.06l2.67-.6a13 13 0 0 1 6.58.66" fill="#D5D5D8"/><path d="m814 519 4 5-5 6c-1.32-2.63-.75-3.8-.06-6.62l.59-2.48z" fill="#D8D9DA"/><path d="M498 414c2 2 2 2 2.2 4.16l-.08 2.46-.05 2.48-.07 1.9-3-2c-.47-2.74-.18-5.2 0-8z" fill="#F3F3F7"/><path d="m953 611-1 3c-3.56 1.19-3.56 1.19-7 2l-1-3c3.13-1.86 5.37-2.2 9-2" fill="#E7E7E9"/><path d="m531 609 2 1c.41 2.29.41 2.29.62 5.06l.23 2.79.15 2.15c-2.41-2.41-3.54-4.94-5-8z" fill="#D6D6D8"/><path d="M708 594h4l-1 6h-3z" fill="#EDF0ED"/><path d="m968 551 3 1-9 8-2-1z" fill="#08070B"/><path d="M807 539h2l-1 5h-2v4h-2v-5h2z" fill="#1C1E1F"/><path d="m810 534 .31 1.88C811 538 811 538 814 540v3l-5-1z" fill="#D5D7D6"/><path d="M755 665c-.25 1.88-.25 1.88-1 4-2.06 1.25-2.06 1.25-4 2l-1-3c2.62-3 2.62-3 6-3" fill="#1D201D"/><path d="m608 646-1 3-6 1-1-3c2.93-.98 4.96-1.08 8-1" fill="#D8D8D9"/><path d="M875 614q2.3.14 4.56.44l2.51.31 1.93.25c-1.75 1.56-1.75 1.56-4 3-3-.27-3.83-.83-6-3z" fill="#E1E1E2"/><path d="M791 392h2c1.91 3.51 2.04 4.81 1.12 8.81L793 404h-1z" fill="#D5D8D6"/><path d="M782 366h2l2 8h-2v-3h-3z" fill="#1C1D1D"/><path d="M472 117h1v11h-2c-1.26-4.29-.63-6.88 1-11" fill="#F0F3F1"/><path d="m866 613 9 1-3 3-6-2z" fill="#EFF1F0"/><path d="M791 581c3.96.57 6.67 1.81 10 4l-1 2q-1.98-.93-3.94-1.88l-2.21-1.05C792 583 792 583 791 581" fill="#EDEFED"/><path d="M594 85v1c-4.83.08-9.24-.05-14-1v-1c4.95-1.6 9.13-.28 14 1" fill="#C7C7C8"/><path d="M734 71c2 3 2 3 3 6l-3 1-1 2c-.1-6.15-.1-6.15 0-8z" fill="#F4F7F4"/><path d="M543 65c5.66 1.48 5.66 1.48 7.38 4.12L551 71c-3.26-.35-4.02-1.02-6.25-3.56z" fill="#E7E7E6"/><path d="m507 635 3 1-1.88 1.31C506 639 506 639 504 642l-1-4c1.81-1.56 1.81-1.56 4-3" fill="#232324"/><path d="M813 477c1.62 1.56 1.62 1.56 3 4-.81 3.75-.81 3.75-2 7h-1l-.56-4.38-.32-2.46C812 479 812 479 813 477" fill="#E0E2E2"/><path d="m632 298 10 1v1l-9 1z" fill="#0A0C0B"/><path d="M500 271a37 37 0 0 1 8 4v2a37 37 0 0 1-8-4z" fill="#E5E7E6"/><path d="m488 28 1 2 2 1-7 4c0-3 0-3 2-5.19z" fill="#DADADC"/><path d="m704 666 1 2 2 .5 2 .5 1 2h-2l-1 2-1-3h-2z" fill="#050508"/><path d="m597 607 2 3-3 6h-1c-.25-5.62-.25-5.62 2-9" fill="#21221F"/><path d="m988 495 3 1-4 6-2-2z" fill="#E0E0E2"/><path d="M497 450h2v7l-4-2z" fill="#F6F6F9"/><path d="m500 335 3 1-1 5h-3q-.06-2.5 0-5z" fill="#232524"/><path d="M888 617h8c-1.25 1.56-1.25 1.56-3 3-2.12-.19-2.12-.19-4-1z" fill="#F4F3F6"/><path d="M881 572h6l1 3-8-1z" fill="#F3F4F6"/><path d="m511 290 3 1-2 5h-2zm3 0 4 1Z" fill="#1F1F21"/><path d="m709 249 2 1c-.81 2.94-.81 2.94-2 6l-3 1c1.88-5.75 1.88-5.75 3-8" fill="#D5D6D5"/><path d="M467 178h1v10l-3-4c.81-3.25.81-3.25 2-6" fill="#F1F3F3"/></svg>