<svg style="background:transparent" version="1.1" xmlns="http://www.w3.org/2000/svg" viewBox="0 0 1248 704"><path d="M754.89 32.67a21 21 0 0 1 9.26 11.54 48 48 0 0 1 1.04 12.1l-.02 2.28c-.06 4.65-.38 9.2-.95 13.81-.4 4.65-.23 9.32-.15 13.98-.07 3.62-.07 3.62-.55 6.9a99 99 0 0 0-.83 10.86l-.07 2.07-.18 6.82-.06 2.41c-.57 21.71-.45 43.41-.38 65.12a7392 7392 0 0 1 .09 29.36v5.04l.03 2.3c0 3.41-.13 6.47-1.12 9.74l-.25 3.12c-2.46 12.73-12.17 23.63-21.75 31.88h-2l-.56 1.7c-2.98 4.78-8.64 7.54-13.44 10.3l1.32 4.62.73 2.6A64 64 0 0 0 729 290l1.9 3.8 1.02 2.02 4.07 8.15 1.99 3.98a768 768 0 0 1 7.7 15.8l1.23 2.53 1.17 2.45 1.05 2.2A35 35 0 0 1 751 337q1.14 3.85 2.32 7.7l.66 2.16a82 82 0 0 0 4.27 11.08c1.77 3.7 2.25 7 2.54 11.06.27 2.55 1.23 4.64 2.2 7a93 93 0 0 1 0 5l1 3q.31 2.7.5 5.37c.23 2.8.48 5.47 1.04 8.22.45 2.28.54 4.22.47 6.53-.06 4.5.35 8.85.88 13.3.13 2.72-.32 4.92-.88 7.58q-.03 2.44.07 4.87c.03 3.16-.12 5.31-1 8.38-1.65 5.81-1.75 11.74-2.07 17.75l1.66-.66c9.6-3.55 16.77-2.7 26.34.66l-1-3.19c-1.1-4.22-1.85-7.1.14-11.09 4.45-6.37 8.4-11.8 15.86-14.72 2.67-.47 5.3-.73 8-1l2-1q4.21-.19 8.42-.2l2.58-.02 5.42-.02q4.06-.01 8.14-.07c10.56-.07 20.2.7 30.44 3.31l2.92.74c12.6 3.35 24.5 10.53 34.08 19.26l1.96 1.65 2.04 1.72 1.82 1.53a69 69 0 0 1 14.37 19.41l1.3 2.53c6.08 12.01 9.3 23.33 10.2 36.72l.15 2.17q.14 2.63.16 5.27l-1 1 .07 2.81c.08 10.23-2.9 18.98-7.07 28.2a163 163 0 0 0-3.06 8.05c-2.08 4.9-5.51 8.9-8.74 13.07a116 116 0 0 0-4.76 6.68c-2.4 3.41-5.4 5.95-8.57 8.61-1.87 1.58-1.87 1.58-4.24 4.02C901 593 901 593 899 593l-.56 1.75c-2.07 3.24-5.12 4.52-8.44 6.25l-2.43 1.5c-12.2 7.14-25.53 12.61-39.57 14.5l-3 1.06c-3.47 1.1-6.37 1-10 .94l-2.27.5c-3.31.61-6.42.63-9.8.63h-20.48A63 63 0 0 1 793 619q-3.8-.4-7.63-.72A45 45 0 0 1 779 617c-4.43-1.04-8.23-1.77-12.51.1-4.34 2.8-7.33 5.82-10.5 9.9a136 136 0 0 1-6.28 4.67C748 633 748 633 747 635l2 .56c5.4 2.6 10.47 6.45 12.88 12.06L763 651l1.19 2.5c1.38 4.24 1.2 8.03.06 12.31-1.48 2.6-2.61 2.95-5.25 4.2l-.77 1.94c-1.23 2.05-1.23 2.05-3.74 3.1-8.62 1.9-16.68 2.31-25.5 1.95l-3.33-.06c-13.04-.52-24.3-5.89-35.66-11.94v2l2.68.76c8.33 3.1 14.68 9.54 18.37 17.5 1.1 3.17 1.44 6.02 1.7 9.36l.3 3.42C713 701 713 701 711 704c-3.05.36-3.05.36-7.02.34h-2.18q-3.6-.01-7.18-.05h-4.97l-13.1-.09-13.34-.06q-13.1-.05-26.21-.14c-2.67-6.59-4.06-12.95-5-20l-.62-2.3c-.92-6.58.55-12.48 2.62-18.7h-15l1 3c.24 3.7.19 7.41.19 11.12l.04 3.06c0 8.46 0 15.82-5.71 22.51-2.66 2.3-5.25 2.05-8.66 2.04l-2.12.01q-3.45.01-6.9-.05h-4.81q-5.02 0-10.06-.07-6.45-.08-12.9-.06-4.95 0-9.91-.04l-4.76-.02q-3.33 0-6.64-.07l-3.82-.03-2.94-.4c-2.53-3.8-2.68-6.6-2-11 3.53-11.1 8.56-17.39 18-24l-3.1 1.31-4.08 1.7q-1.01.4-2.05.86c-3.76 1.54-6.71 2.36-10.77 2.13l-3 1c-6 1.15-11.73 1.02-17.81.75l-2.83-.08c-7.78-.34-15.93-1.17-21.98-6.48-3.96-5.27-3.24-11.97-2.38-18.19 1.57-3.44 1.57-3.44 4-6l1.58-1.76A42 42 0 0 1 507 635c-3.15-2.68-6.3-5.2-9.68-7.56-4.41-3.24-7.9-7.19-11.46-11.3-3.47-3.95-3.47-3.95-5.86-5.1-3.23-1.68-5.1-4.63-7.25-7.48l-1.46-1.9-4.3-5.66-2.31-3.06A120 120 0 0 1 454 576l-1.5-2.88L451 570l-1.18-2.43c-4.08-8.58-6.38-17.25-8.34-26.5a89 89 0 0 0-1.6-5.82c-.81-2.99-.96-5.2-.88-8.25l-1-5c-1.34-10.62-1.68-20.6 1-31l.46-2.44c2.64-12.53 8.07-22.8 18.84-29.93L461 457l1.89-1.16c6.95-3.37 18.96-3.23 26.1-.84a25 25 0 0 0-.96-9.17c-1.15-4.28-1.43-8.18-1.6-12.58l-.2-4.77-.11-2.32c-.2-3.7-.6-7.4-1.03-11.1-.1-2.06-.1-2.06.9-5.06q.08-2.37 0-4.75c-.03-4.2.32-8.1 1-12.25l.45-4c.46-3.8 1.5-7.32 2.56-11l.67-5.92c.48-2.98 1.44-5.7 2.45-8.54 1.02-2.95 1.92-5.93 2.82-8.92 4.98-16.14 11.48-32.2 19.94-46.87 3.67-6.36 6.89-12.75 9.12-19.75l2-4.5a86 86 0 0 0 4-10.5 59 59 0 0 0-7.62-5.56A27 27 0 0 1 518 263l-2.43-1.38c-2.92-1.85-4.45-3.9-6.57-6.62l-2.43-1.69c-9.9-8.92-12-26.25-12.71-38.92-.2-6.32-.1-12.64.02-18.95l.09-8.35.07-5.13c.06-4.68-.24-9.18-.81-13.82a85 85 0 0 1-.3-9.7l.02-2.02q.01-3.15.05-6.3l.1-12.08C493 135 493 135 492 132q-.1-2.62-.06-5.23l.02-3.13.08-6.47c.04-5.49-.11-10.8-.81-16.25-.3-2.54-.3-5.05-.23-7.6.05-3.93-.34-7.46-1-11.32a193 193 0 0 1 0-4.8 63 63 0 0 0-.5-9.45c-1.12-9.4-2.2-18.69 3.5-26.75l1.94-2.8A24 24 0 0 1 502 33l2.25-1.19c5.09-1.5 9.86-1.55 14.82.38L522 34l1.76 1.06Q526.9 37.01 530 39l2.68 1.67c4.22 2.64 8.37 5.3 12.32 8.33 2.9 2.23 5.89 4.24 9 6.2a390 390 0 0 1 14.25 9.42l2 1.38c5.59 3.86 5.59 3.86 7.2 5.22 4.5 3.62 8.1 4.47 13.89 4.25l2.43-.02q3.94-.06 7.9-.18l5.5-.09q7.26-.13 14.5-.3 7.36-.16 14.73-.28 11.9-.21 23.79-.48c2.9-.07 5.78-.12 8.67-.06 5.59-.16 10.85-5.78 15.14-9.06 4.23-3.23 8.37-6.36 13-9l4.13-2.76c3.39-2.24 6.84-4.39 10.29-6.56 2.27-1.48 4.4-3.05 6.58-4.68q2.7-1.77 5.44-3.5l2.8-1.78c9.67-6.03 17.87-9.34 28.65-4.05M801.99 464a30 30 0 0 0 4.45 7.06c3.3 4.52 4.34 9.55 5.56 14.94l.55 2.08c1.18 4.96 1.45 9.85 1.45 14.92l1 2q-.15 3.16-.43 6.31c-.57 6.3-.57 6.3-.54 9.36-.03 2.3-.44 4.11-1.03 6.33q-.25 2.47-.43 4.94A30 30 0 0 1 810 542q-.5 2.18-.93 4.37A55 55 0 0 1 805 558l-2.12 5.25-1.01 2.51A121 121 0 0 0 800 571c2.82.94 4.97 1 8 1 3.2 0 5.04.25 8 1a73 73 0 0 0 14.96-.72c2.22-.3 4.44-.5 6.67-.72A41 41 0 0 0 848 569c6-2 6-2 8.88-2.8 4.08-1.57 7.49-3.8 11.12-6.2l3.19-2c12.34-8.78 18.53-23.39 21.46-37.83 1.56-9.6-.4-19.98-5.65-28.17l-1-2.69c-1-2.3-1-2.3-4-4.3l-1-3c-2.18-1.45-2.18-1.45-5-3l-2.87-2c-8.38-5.37-18.17-8.44-28.13-8l-2-1q-2.74-.08-5.5 0c-5.27.1-5.27.1-7.5-1a159 159 0 0 0-6.56 0q-3.22.05-6.44 0l-1-1q-2.68-.32-5.37-.5c-3.15-.24-5.62-.5-8.63-1.5M562 665q-1.46 1.49-3 3l4-1z" fill="#151715"/><path d="M833.49 427.55q4.02 0 8.03-.05c26.17-.1 51 8.02 70.24 26.18 17.3 17.85 24.69 38.8 24.6 63.3-.42 26.7-12.04 49.94-30.36 69.02-23.9 22.85-57.03 31.21-89.25 31.25h-2.12A199 199 0 0 1 769 612a31 31 0 0 1 4.5-7.18l1.49-1.8 1.57-1.9a170 170 0 0 0 11.63-15.87l1.13-1.77A33 33 0 0 0 793 576c3.6-2.4 6.12-2.23 10.27-2.13l2.19.02 9.2.15c23.77.4 46.25-3.68 64.09-20.6 11.45-12.4 15.84-27.84 15.53-44.4-.53-11.2-7.05-22.86-15.18-30.45-13.56-10.28-30.85-12.19-47.31-12.95l-5.98-.3q-2.93-.13-5.85-.2c-9.88-.49-18.53-2.72-25.71-9.89-1.74-4.54-2.01-8.46-1.25-13.25 2.79-5.9 7.25-9.59 13.3-11.87 9.05-2.53 17.88-2.62 27.19-2.58" fill="#121513"/><path d="M754.89 32.67a21 21 0 0 1 9.26 11.54 48 48 0 0 1 1.04 12.1l-.02 2.28c-.06 4.65-.38 9.2-.95 13.81-.4 4.65-.23 9.32-.15 13.98-.07 3.62-.07 3.62-.55 6.9a99 99 0 0 0-.83 10.86l-.07 2.07-.18 6.82-.06 2.41c-.57 21.71-.45 43.41-.38 65.12a7392 7392 0 0 1 .09 29.36v5.04l.03 2.3c0 3.41-.13 6.47-1.12 9.74l-.25 3.12c-2.46 12.73-12.17 23.63-21.75 31.88h-2l-.56 1.7c-2.98 4.78-8.64 7.54-13.44 10.3l1.32 4.62.73 2.6A64 64 0 0 0 729 290l1.9 3.8 1.02 2.02 4.07 8.15 1.99 3.98a768 768 0 0 1 7.7 15.8l1.23 2.53 1.17 2.45 1.05 2.2A35 35 0 0 1 751 337q1.14 3.85 2.32 7.7l.66 2.16a82 82 0 0 0 4.27 11.08c1.77 3.7 2.25 7 2.54 11.06.27 2.55 1.23 4.64 2.2 7a93 93 0 0 1 0 5l1 3q.31 2.7.5 5.37c.23 2.8.48 5.47 1.04 8.22.45 2.28.54 4.22.47 6.53-.06 4.5.35 8.85.88 13.3.13 2.72-.32 4.92-.88 7.58q-.03 2.44.07 4.87c.03 3.16-.12 5.31-1 8.38-1.65 5.81-1.75 11.74-2.07 17.75l1.66-.66c9.6-3.55 16.77-2.7 26.34.66l-1-3.19c-1.1-4.22-1.85-7.1.14-11.09 4.45-6.37 8.4-11.8 15.86-14.72 2.67-.47 5.3-.73 8-1l2-1q4.21-.19 8.42-.2l2.58-.02 5.42-.02q4.06-.01 8.14-.07c10.56-.07 20.2.7 30.44 3.31l2.92.74c12.6 3.35 24.5 10.53 34.08 19.26l1.96 1.65 2.04 1.72 1.82 1.53a69 69 0 0 1 14.37 19.41l1.3 2.53c6.08 12.01 9.3 23.33 10.2 36.72l.15 2.17q.14 2.63.16 5.27l-1 1 .07 2.81c.08 10.23-2.9 18.98-7.07 28.2a163 163 0 0 0-3.06 8.05c-2.08 4.9-5.51 8.9-8.74 13.07a116 116 0 0 0-4.76 6.68c-2.4 3.41-5.4 5.95-8.57 8.61-1.87 1.58-1.87 1.58-4.24 4.02C901 593 901 593 899 593l-.56 1.75c-2.07 3.24-5.12 4.52-8.44 6.25l-2.43 1.5c-12.2 7.14-25.53 12.61-39.57 14.5l-3 1.06c-3.47 1.1-6.37 1-10 .94l-2.27.5c-3.31.61-6.42.63-9.8.63h-20.48A63 63 0 0 1 793 619q-3.8-.4-7.63-.72A45 45 0 0 1 779 617c-4.43-1.04-8.23-1.77-12.51.1-4.34 2.8-7.33 5.82-10.5 9.9a136 136 0 0 1-6.28 4.67C748 633 748 633 747 635l2 .56c5.4 2.6 10.47 6.45 12.88 12.06L763 651l1.19 2.5c1.38 4.24 1.2 8.03.06 12.31-1.48 2.6-2.61 2.95-5.25 4.2l-.77 1.94c-1.23 2.05-1.23 2.05-3.74 3.1-8.62 1.9-16.68 2.31-25.5 1.95l-3.33-.06c-13.04-.52-24.3-5.89-35.66-11.94v2l2.68.76c8.33 3.1 14.68 9.54 18.37 17.5 1.1 3.17 1.44 6.02 1.7 9.36l.3 3.42C713 701 713 701 711 704h-3l.5-1.94c1.46-8.9-.04-14.24-4.5-22.06l-.91-2.17c-1.4-2.36-2.58-2.77-5.1-3.83l-5.74-3.13-2.98-1.63L687 668v-8c4.08 1.54 7.88 3.44 11.75 5.44 11.82 6 21.85 7.74 35 7.81l3.1.06c7.4.04 16.6-.06 22.34-5.3 2-7.42 1.56-14.32-2.2-21-3-4.38-6.03-6.43-10.74-8.82q-1.75-.89-3.54-1.84L740 635q4.1-3.3 8.27-6.52l3.55-2.73 1.88-1.45a63 63 0 0 0 9.49-9.05c2.13-2.22 3.13-3.2 6.25-3.4l2.7.35 2.95.36q5.05.75 10.08 1.6c10.44 1.68 20.78 2.14 31.33 2.15l2.03.01c32.39.1 65.48-9.8 89.04-32.83C919.8 570.3 928.76 554.53 933 537l.53-2.16c4.6-20.38 2.1-41.39-7.53-59.84l-1.5-2.92c-10.24-18.9-27.46-31.9-47.95-38.17q-5.25-1.56-10.55-2.9-1-.28-2.04-.54a66 66 0 0 0-16.38-1.77l-2.64-.02h-5.47q-4.14 0-8.28-.04c-23.74-.09-23.74-.09-33.66 7.76-3.1 3.24-3.82 6.12-3.84 10.54l-.05 2.52c.46 3.2 1.49 4.91 3.36 7.54 8.2 6 16.69 6.92 26.57 7.2q3.97.17 7.96.38l3.88.2c15.39.95 31.22 3.41 43.59 13.22l1.83 1.38c6.88 5.93 12.34 16.8 14.17 25.62 1 17.27-2.42 33.28-13.76 46.84C868.2 566.45 849.23 573.66 830 575q-5.46.21-10.93.2h-2.91c-6.55-.06-12.81-.5-19.16-2.2.65-3.3 1.94-6.2 3.28-9.28 10.69-25.29 17.15-59.33 6.55-85.63-4.95-10.7-11.02-15.44-21.83-20.09-9.15-3.05-18.22.07-27 3l.26-2.05 1.18-9.33.4-3.2q.6-4.72 1.16-9.42l.32-2.52c3.97-34.95-3.06-67.88-15.32-100.48l-1.13-3.1c-3.12-8.02-7.31-15.5-11.34-23.1A224 224 0 0 1 722 282l-1.24-3.15c-.85-3.22-1.01-4.77.24-7.85 2.34-1.92 2.34-1.92 5.38-3.75 14.7-9.34 26.12-20.03 30.17-37.63.43-2.5.6-4.82.64-7.36l.04-2.8.04-3.04.05-3.24.1-6.97.16-11.16q.25-15.88.47-31.75c.42-28.8.97-57.55 2.64-86.3 1.68-29.82 1.68-29.82-2.7-37l-1-3c-2.42-1.13-2.42-1.13-5-2l-2-1c-9.8-1.98-15.86.96-23.9 6.17q-3.56 2.4-7.1 4.83l-4.8 3.24q-5.99 4.05-11.91 8.17-4.35 3.03-8.71 6.02l-3.8 2.62-3.56 2.41C684 69 684 69 681.68 70.96c-9.3 7.26-17.93 7.52-29.38 7.81l-5.76.2q-6.04.16-12.08.27-6.1.11-12.17.43c-29.02 1.51-47.53-2.2-70.06-21.03-4.45-3.7-9.23-6.88-14.04-10.08q-2.17-1.48-4.33-2.98C516.12 33.56 516.12 33.56 506 35c-5.62 2.3-9.1 5.65-12 11-1.25 3.77-1.16 7.3-1.15 11.22v2.53c.09 10.6.86 21.13 1.59 31.7a1226 1226 0 0 1 2.83 73.63q.12 11.17.2 22.36l.13 12.41.04 4.63c.1 17.7 1.2 34.65 13.36 48.52q.67.82 1.38 1.65c6.07 6.7 14.15 11.38 21.62 16.35-.52 6.67-2.9 12.31-5.5 18.44l-1.35 3.23a174 174 0 0 1-9.96 19.74c-4.05 6.93-7.2 14.15-10.2 21.6l-.85 2.12C492.23 370.78 486.17 406.91 492 444q.59 4.5 1.13 9l.5 4.06.37 2.94-2.74-.66c-12.25-2.8-21.1-3.75-32.38 2.35C448.33 470.17 444.3 479.9 442 493c-.42 4.8-.47 9.56-.43 14.37l.02 3.96c.58 40.7 18.2 75.63 46.68 103.96a135 135 0 0 0 20.05 15.87A30 30 0 0 1 514 636l-1.9.63c-7.95 2.86-14.33 6.75-18.6 14.24a20 20 0 0 0-.37 16c3.66 4.15 8.67 5.9 14.09 6.3 20.19.34 38.06-1.54 55.78-12.17h2v8l-1.97.92c-8.15 3.9-14.15 7.66-18.12 16.03-1.75 5.9-1.27 11.97-.91 18.05h-3c-2.53-3.8-2.68-6.6-2-11 3.53-11.1 8.56-17.39 18-24l-3.1 1.31-4.08 1.7q-1.01.4-2.05.86c-3.76 1.54-6.71 2.36-10.77 2.13l-3 1c-6 1.15-11.73 1.02-17.81.75l-2.83-.08c-7.78-.34-15.93-1.17-21.98-6.48-3.96-5.27-3.24-11.97-2.38-18.19 1.57-3.44 1.57-3.44 4-6l1.58-1.76A42 42 0 0 1 507 635c-3.15-2.68-6.3-5.2-9.68-7.56-4.41-3.24-7.9-7.19-11.46-11.3-3.47-3.95-3.47-3.95-5.86-5.1-3.23-1.68-5.1-4.63-7.25-7.48l-1.46-1.9-4.3-5.66-2.31-3.06A120 120 0 0 1 454 576l-1.5-2.88L451 570l-1.18-2.43c-4.08-8.58-6.38-17.25-8.34-26.5a89 89 0 0 0-1.6-5.82c-.81-2.99-.96-5.2-.88-8.25l-1-5c-1.34-10.62-1.68-20.6 1-31l.46-2.44c2.64-12.53 8.07-22.8 18.84-29.93L461 457l1.89-1.16c6.95-3.37 18.96-3.23 26.1-.84a25 25 0 0 0-.96-9.17c-1.15-4.28-1.43-8.18-1.6-12.58l-.2-4.77-.11-2.32c-.2-3.7-.6-7.4-1.03-11.1-.1-2.06-.1-2.06.9-5.06q.08-2.37 0-4.75c-.03-4.2.32-8.1 1-12.25l.45-4c.46-3.8 1.5-7.32 2.56-11l.67-5.92c.48-2.98 1.44-5.7 2.45-8.54 1.02-2.95 1.92-5.93 2.82-8.92 4.98-16.14 11.48-32.2 19.94-46.87 3.67-6.36 6.89-12.75 9.12-19.75l2-4.5a86 86 0 0 0 4-10.5 59 59 0 0 0-7.62-5.56A27 27 0 0 1 518 263l-2.43-1.38c-2.92-1.85-4.45-3.9-6.57-6.62l-2.43-1.69c-9.9-8.92-12-26.25-12.71-38.92-.2-6.32-.1-12.64.02-18.95l.09-8.35.07-5.13c.06-4.68-.24-9.18-.81-13.82a85 85 0 0 1-.3-9.7l.02-2.02q.01-3.15.05-6.3l.1-12.08C493 135 493 135 492 132q-.1-2.62-.06-5.23l.02-3.13.08-6.47c.04-5.49-.11-10.8-.81-16.25-.3-2.54-.3-5.05-.23-7.6.05-3.93-.34-7.46-1-11.32a193 193 0 0 1 0-4.8 63 63 0 0 0-.5-9.45c-1.12-9.4-2.2-18.69 3.5-26.75l1.94-2.8A24 24 0 0 1 502 33l2.25-1.19c5.09-1.5 9.86-1.55 14.82.38L522 34l1.76 1.06Q526.9 37.01 530 39l2.68 1.67c4.22 2.64 8.37 5.3 12.32 8.33 2.9 2.23 5.89 4.24 9 6.2a390 390 0 0 1 14.25 9.42l2 1.38c5.59 3.86 5.59 3.86 7.2 5.22 4.5 3.62 8.1 4.47 13.89 4.25l2.43-.02q3.94-.06 7.9-.18l5.5-.09q7.26-.13 14.5-.3 7.36-.16 14.73-.28 11.9-.21 23.79-.48c2.9-.07 5.78-.12 8.67-.06 5.59-.16 10.85-5.78 15.14-9.06 4.23-3.23 8.37-6.36 13-9l4.13-2.76c3.39-2.24 6.84-4.39 10.29-6.56 2.27-1.48 4.4-3.05 6.58-4.68q2.7-1.77 5.44-3.5l2.8-1.78c9.67-6.03 17.87-9.34 28.65-4.05M801.99 464a30 30 0 0 0 4.45 7.06c3.3 4.52 4.34 9.55 5.56 14.94l.55 2.08c1.18 4.96 1.45 9.85 1.45 14.92l1 2q-.15 3.16-.43 6.31c-.57 6.3-.57 6.3-.54 9.36-.03 2.3-.44 4.11-1.03 6.33q-.25 2.47-.43 4.94A30 30 0 0 1 810 542q-.5 2.18-.93 4.37A55 55 0 0 1 805 558l-2.12 5.25-1.01 2.51A121 121 0 0 0 800 571c2.82.94 4.97 1 8 1 3.2 0 5.04.25 8 1a73 73 0 0 0 14.96-.72c2.22-.3 4.44-.5 6.67-.72A41 41 0 0 0 848 569c6-2 6-2 8.88-2.8 4.08-1.57 7.49-3.8 11.12-6.2l3.19-2c12.34-8.78 18.53-23.39 21.46-37.83 1.56-9.6-.4-19.98-5.65-28.17l-1-2.69c-1-2.3-1-2.3-4-4.3l-1-3c-2.18-1.45-2.18-1.45-5-3l-2.87-2c-8.38-5.37-18.17-8.44-28.13-8l-2-1q-2.74-.08-5.5 0c-5.27.1-5.27.1-7.5-1a159 159 0 0 0-6.56 0q-3.22.05-6.44 0l-1-1q-2.68-.32-5.37-.5c-3.15-.24-5.62-.5-8.63-1.5M562 665q-1.46 1.49-3 3l4-1z" fill="#E4E5E6"/><path d="M578 496h2a34 34 0 0 1 3 3.44c8.81 10.21 21.86 21.98 36 23.56 16.39 1.12 28.73-4.24 41.22-14.68C662 507 662 507 664 507l.81-1.77a32 32 0 0 1 4.19-5.98l1.56-1.86C672 496 672 496 674 496a28.5 28.5 0 0 1-3.94 11.69l-1.59 2.82q-1.66 2.79-3.47 5.49h-2l-.71 1.75c-3.91 6.83-13.16 12.22-20.29 15.25h-3l.18 2.01a609 609 0 0 1 2.13 54.37v3.92c-.07 57.21-.07 57.21-4.31 65.7h-22l-1.44-11.56-.41-3.23c-1.87-15.33-2.32-30.48-2.27-45.9v-2.85c.03-20.84.46-41.67 2.12-62.46l-2.61-1.11C596.6 525.57 585.04 516.37 579 502c-.67-3.35-.67-3.35-1-6" fill="#000"/><path d="M738 470h1c.22 7.85-.46 15.46-1.38 23.25l-.42 3.63a1743 1743 0 0 1-1.47 12.49c-.99 8.46-2.88 16.46-5.19 24.66q-.84 3.1-1.58 6.23l-.52 2.14-1.41 5.94c-1.05 3.74-2.5 7.1-4.03 10.66-.91 2.81-1.71 5.65-2.5 8.5A114 114 0 0 1 715 583a307 307 0 0 0-19 81c-4.75-1.88-4.75-1.88-7-3v-2h-2c-.52-11.17 2.33-21.97 5.35-32.63q.76-2.79 1.48-5.61c2.3-8.86 4.96-17.55 7.9-26.22l2.12-6.31q3.9-11.63 8.05-23.17a614 614 0 0 0 18.74-62.54q1.37-5.62 2.93-11.18a153 153 0 0 0 3.12-14.03l.39-2.16z" fill="#010201"/><path d="M514 476c1.83 3.28 2.7 6.45 3.55 10.1l.87 3.68.89 3.84a513 513 0 0 0 13.51 48.12l2.31 6.87q3.93 11.75 8.04 23.45c23.69 67.56 23.69 67.56 21.83 87.94-2.31 2.44-2.31 2.44-5 4h-3l-.14-1.67c-1.31-15.83-3.35-31.05-7.86-46.33l-.89-3.2c-1.33-4.55-2.8-9.05-4.3-13.55l-.93-2.8a599 599 0 0 0-6.32-17.83L533 569l-1.01-2.71A280 280 0 0 1 520 524l-.68-3.25c-3.09-14.96-5.14-29.47-5.32-44.75" fill="#000101"/><path d="M519.13 32.19q1.42.9 2.88 1.8.85.54 1.75 1.08Q526.89 37 530 39l2.66 1.67c4.23 2.64 8.38 5.3 12.34 8.33 2.9 2.24 5.88 4.24 9 6.19 4.83 3.03 9.54 6.2 14.24 9.44q1 .67 2 1.38c5.6 3.86 5.6 3.86 7.2 5.2 4.5 3.64 8.1 4.47 13.88 4.24l2.43-.04q3.96-.08 7.9-.21l5.52-.1 14.49-.33q11.6-.3 23.2-.51l8.09-.2 4.96-.11 2.26-.08c4.09-.07 7.16.3 10.83 2.13v1q-16.55.98-33.12 1.53-7.69.25-15.37.7c-29.17 1.76-47.64-1.55-70.3-20.58-4.44-3.71-9.22-6.9-14.04-10.08l-4.32-3c-17.75-12-17.75-12-27.85-10.57-5.62 2.29-9.1 5.65-12 11a26 26 0 0 0-1.31 8.1q-.08 1.47-.13 2.99l-.25 6.24q-.16 3.83-.3 7.67l-2 1c-3.1-22.38-3.1-22.38 3-31 .3-.46.3-.46 1.93-2.81a25 25 0 0 1 7.06-5.2l1.86-1.05c4.82-2.11 10.43-1.6 15.26.25" fill="#E8E8E9"/><path d="M634.56 209.38A19 19 0 0 1 639 213c.51 3.81.33 5.5-1.82 8.75C635 224 635 224 632 226q-1.1 3.47-2 7c-1 1-1 1-3.88 1.25-3.12-.25-3.12-.25-4.87-1.37-1.25-1.88-1.25-1.88-2.13-4.75-1.34-3.72-3.2-5.51-6.12-8.13l-1-1c0-3.31 0-3.31 1-7 6.26-5.3 14.04-5.53 21.56-2.62" fill="#616461"/><path d="m800.19 573.88 3.8.12q-1.46.5-3 1l-.24 2.99c-.66 4.56-2.56 8.24-4.75 12.26l-1.2 2.25c-3.6 6.5-7.9 11.92-12.8 17.5l-2 3c-3.85.28-7.31.18-11-1 1.75-4.2 4.69-7.4 7.57-10.87a172 172 0 0 0 11.62-15.87l1.13-1.77a33 33 0 0 0 3.68-7.5c3.09-2.04 3.7-2.23 7.19-2.12" fill="#000101"/><path d="M488 409h1l.14 2.59c1.6 29.72 1.6 29.72 4.27 41.61.59 2.8.59 2.8.59 6.8l-2.75-.66c-12.25-2.8-21.09-3.75-32.37 2.35-10.18 8.18-15.34 18.39-16.88 31.31-.61 8.32-.82 16.66-1 25h-1l-.08-1.86q-.17-4.2-.36-8.39l-.12-2.93-.12-2.84-.11-2.6c-.21-2.38-.21-2.38-.77-4.5-.74-3.15.54-5.91 1.56-8.88l.82-2.55c4.08-12.1 9.08-19.76 20.18-26.45l1.89-1.16c6.95-3.36 18.96-3.22 26.11-.84.17-3.41 0-6-1-9.29-3.08-11.39-.75-25 0-36.71" fill="#D9DADC"/><path d="M616 660h20l-.11 6.03-.05 5.87-.1 6c-.08 10.27 1.1 17.81 7.26 26.1h-6c-2.83-6.46-4.08-13.03-5-20l-.62-2.31c-.92-6.57.55-12.47 2.62-18.69h-15l1 3c.23 3.7.19 7.41.19 11.12l.03 3.06c.02 9.5-.41 16.83-7.22 23.82l-3-1 1.38-1.69c4.28-6.1 4.75-12.74 4.72-20.02l-.01-3.77-.03-3.9-.01-3.96z" fill="#EFF0F2"/><path d="M492 68h1c4.3 65.72 4.3 65.72 4 97h-1l-1-6h-1l-.08-2.16a1585 1585 0 0 0-.48-13.05l-.23-6.25C493 135 493 135 492 132q-.1-2.6-.06-5.23l.02-3.13.08-6.46c.04-5.5-.12-10.81-.82-16.25a55 55 0 0 1-.22-7.62c.04-2.93-.02-5.42-.56-8.31A37.6 37.6 0 0 1 492 68" fill="#E4E5E5"/><path d="M601 199c.73 2.16.73 2.16 1 4-4.16-1.6-8-3.55-11.91-5.68-8.51-3.63-16.52-4.79-25.71-4.63l-2.95-.01c-8.17.06-15.51.71-22.43 5.32h-2c1.64-3.8 3.46-5.37 7.29-7.11 16.96-5.57 42.68-3.6 56.71 8.11" fill="#030504"/><path d="M760 107h1l.05 23.21q0 5.39.03 10.78l.01 10.4.02 5.9v3.63l.01 3.2c-.11 2.75-.57 5.2-1.12 7.88q-.16 2.67-.21 5.34l-.06 3.15-.05 3.37-.06 3.48-.18 10.97-.13 7.45L759 224h-1c-.2-62.28-.2-62.28.44-92.81l.06-3.08q.08-4.26.18-8.5l.05-2.5c.1-3.52.33-6.72 1.27-10.11" fill="#C7C8C6"/><path d="M760 38c3.38 2.61 4.2 5.98 5 10 .24 2.78.24 5.53.19 8.31l-.02 2.28c-.07 4.65-.38 9.2-.95 13.81-.39 4.66-.24 9.32-.16 13.99-.06 3.61-.06 3.61-.54 6.79a113 113 0 0 0-.84 12.6l-.06 2.46-.18 7.7-.13 5.25L762 134h-1c-.7-17.16-1.36-34.16-.5-51.31q.62-12.56.69-25.13l.04-3.17c0-5.54-.37-10.16-2.23-15.39z" fill="#ECEFEC"/><path d="m690.81 188.19 2.4.12c6.12.43 11.34 1.75 16.8 4.69l-1 2-3.18-.98c-5.98-1.5-11.96-1.31-18.08-1.27l-3.55-.02h-6.49c-2.76.28-4.32.94-6.7 2.27l-2.83.44c-3.73.66-6.65 1.99-10.06 3.63l-3.49 1.66L652 202c.38-2.32.66-3.66 2.35-5.34 10.81-6.82 23.85-9.14 36.46-8.47" fill="#030503"/><path d="M495 153h1c.91 9.13 1.2 18.22 1.32 27.39l.06 4.32.15 11.25.16 11.52L498 230c-6.34-9.51-4.2-24.2-4.06-35.19l.07-8.04.05-4.96c.04-4.65-.23-9.15-.84-13.77-.33-3.03-.28-6-.22-9.04h2z" fill="#E6E8E8"/><path d="M760 167h1c.98 12.81 1.11 25.6 1.12 38.44l.01 2.53v7.21l.01 2.21c-.02 3.36-.17 6.38-1.14 9.61v2h-2l-1 2 .34-22.82.16-10.6.18-12.19.05-3.83.11-6.72c.15-2.71.56-5.2 1.16-7.84" fill="#EBEDEB"/><path d="m461 457 3 1-1.76 1.31C450.46 468.2 444.2 478.34 442 493q-.2 3.03-.32 6.05l-.12 3.36-.12 3.47-.13 3.53L441 518h-1l-.08-1.86a1177 1177 0 0 0-.48-11.32l-.12-2.84-.11-2.6c-.21-2.38-.21-2.38-.77-4.5-.74-3.15.54-5.91 1.56-8.88l.82-2.55c3.92-11.63 8.91-20.56 20.18-26.45" fill="#DCDDDE"/><path d="M935 527c2.21 4.04 2.74 7.46 2 12-1.43 4.11-3.2 8.04-5 12q-1.65 3.99-3.06 8.06c-2.5 5.91-7.01 10.92-10.94 15.94l-3-1 1.79-2.17c10.24-13.11 15.33-28.65 18.21-44.83" fill="#E3E4E7"/><path d="m513 31 1 2-3.5.69c-6.25 1.58-10.96 4.34-14.94 9.43-2.07 3.82-2.7 6.71-2.88 10.99l-.12 2.97-.12 3.11-.13 3.14L492 71l-2 1c-3.09-22.38-3.09-22.38 3-31l1.94-2.81c2.2-2.34 4.23-3.7 7.06-5.19l1.88-1.19c3.05-1.17 5.88-.93 9.12-.81" fill="#E8E7E9"/><path d="M803 558h1q-.17 2.16-.38 4.31l-.21 2.43C803 567 803 567 801 570c3.14 1.05 5.69 1.04 8.96.94 2.04.06 2.04.06 3.9.54 2.19.53 4.21.72 6.47.84L834 573c-3.06 1.77-5.29 2.26-8.82 2.27l-2.8.01-2.94-.03-2.99-.01c-6.64-.08-13.01-.51-19.45-2.24.72-3.2 1.78-6.15 3-9.19l1.06-2.67C802 559 802 559 803 558" fill="#DEE0E0"/><path d="m934 491 3 1a131 131 0 0 1 2.69 19.62l.14 2.16q.14 2.61.17 5.22l-1 1v3.31c0 2.91-.13 4.97-1 7.69h-2l-.08-2.6-.29-9.67-.13-4.16c-.23-7.89-.55-15.73-1.5-23.57" fill="#F2F2F4"/><path d="m552 673 3 1-2.69 1.88c-4.25 3.63-6.72 7.76-8.31 13.12-.39 5.05-.3 9.94 0 15h-3c-2.54-3.8-2.69-6.61-2-11 2.59-8.16 5.73-15.16 13-20" fill="#E5E4EB"/><path d="M496 227c3.76 2.51 4.09 4.94 5.25 9.06 2.08 6.81 4.92 11.64 9.75 16.94l2.44 3.06L515 258c-4.29 0-5.91-2-9-4.8-6.54-7.2-9.02-16.77-10-26.2" fill="#D8DDD8"/><path d="m757 227 4 4c-3.54 10.73-9.74 19.36-18 27l-3-1 2.12-2c7.73-7.83 13.02-17.04 14.88-28" fill="#DDDDDF"/><path d="M761 46h1c.42 21.72-.79 43.33-2 65h-1c-.12-12.71.14-25.32 1-38h-2v-9l2 2z" fill="#484B48"/><path d="M762 427h1l.18 1.9.26 2.48.24 2.46C764 436 764 436 765 438a80 80 0 0 1-.94 5.12c-2.24 11.52-2.24 11.52-.06 15.88l-6 2 .26-2.04 1.18-9.34.41-3.21q1.23-9.69 2.15-19.41" fill="#D3D6D7"/><path d="M892 518h2c1 11.75-4.06 21.77-11 31l-2-1q1.45-2.93 2.96-5.82c4.04-7.73 6.33-15.66 8.04-24.18" fill="#EAEAEE"/><path d="M439 497h1l1 31-3-2a77 77 0 0 1-.04-5.87c.04-2.13.04-2.13-.46-5.44-1.74-12.83-1.74-12.83 1.5-17.69" fill="#EDEFEE"/><path d="m739 258 3 1c-1.38 1.5-1.38 1.5-3 3h-2l-.56 1.69c-2.98 4.79-8.64 7.55-13.44 10.31l1 3h-2l-1 4-1-9 3.65-2.55 4.73-3.33 2.4-1.68 2.31-1.62 2.12-1.49C737 260 737 260 739 258" fill="#E7E8E9"/><path d="M495 116h1a965 965 0 0 1 1 49h-1l-1-6h-1c-.2-14.35.41-28.66 1-43" fill="#BABDBC"/><path d="M565 661v8q-2.15 1.05-4.31 2.06l-2.43 1.16C556 673 556 673 553 672l4-3-5 1c1.44-3.65 3.06-4.94 6.5-6.75l2.41-1.3C563 661 563 661 565 661m-3 4-3 3 4-1z" fill="#EBEAF0"/><path d="M804 470h3a58 58 0 0 1 6 16l.58 1.97c.71 3.44-.06 6.58-.58 10.03-1.88-3.31-2.62-6.47-3.38-10.19a59 59 0 0 0-4.85-14.1C804 472 804 472 804 470" fill="#EEEEEF"/><path d="M617 676h1c3.03 15.06 3.03 15.06 0 22a40 40 0 0 1-5 6l-3-1 1.38-1.69c3.65-5.2 4.15-10.45 4.74-16.62l.27-2.54z" fill="#DEE0E3"/><path d="M759 173h1l1 56h-2l-1 2z" fill="#F6F7F7"/><path d="m876 605 1 3c-19.75 8.59-19.75 8.59-25.12 7.19L850 614v-1l2.13-.48c8.21-1.94 15.98-4.57 23.87-7.52" fill="#DCDEDF"/><path d="M764 409h2q.3 2.6.56 5.19l.32 2.92c.12 2.86-.28 5.1-.88 7.89q-.1 2.66-.06 5.31A272 272 0 0 0 766 435l-3 1c-.1-9.06-.07-17.98 1-27" fill="#F1F4F3"/><path d="M488 396h1c.16 10.37-.35 20.65-1 31-2.15-3.23-2.38-4.72-2.69-8.5l-.26-2.91C485 413 485 413 486 410c.03-2.52-.07-5.01-.16-7.53.17-2.65.82-4.2 2.16-6.47" fill="#EFF2F4"/><path d="M706 681h3c3.38 6.31 4.2 12.86 4 20l-2 3h-3l.5-1.94c1.26-7.7.38-13.82-2.5-21.06" fill="#ECEFEE"/><path d="M838 425v1l12 1v1h-35c7.23-3.62 15.04-3.15 23-3" fill="#D5D7DA"/><path d="M787 455c-2 2-2 2-4.72 2.16l-3.34-.1A104 104 0 0 0 763 458l1-3c7.77-2.64 15.3-3.16 23 0" fill="#F0F0F0"/><path d="M843 467c7.56-.39 14.98-.15 22 3l1 3c-3.92-.41-7.34-.77-11.06-2.06-3.43-1.1-6.36-1.01-9.94-.94l-2-1z" fill="#EAEAEC"/><path d="M935 527c2.5 3.75 2.63 7.66 2 12a95 95 0 0 1-4 10h-3l.84-3.54 1.1-4.65.55-2.33c.9-3.81 1.78-7.63 2.51-11.48" fill="#D2D5D5"/><path d="m477.88 453.88 2.38.02 5.74.1 1 3-3.21-.04c-13.94-.1-13.94-.1-20.8 1.04v-2c5.13-2.07 9.47-2.25 14.88-2.12" fill="#E6E8E9"/><path d="M441 482c2.31 3.47 1.94 4.57 1.33 8.51-.68 5.13-.71 10.32-.89 15.49l-.13 3.5-.31 8.5h-1l-.08-1.86a1177 1177 0 0 0-.48-11.32l-.12-2.84-.11-2.6c-.21-2.38-.21-2.38-.78-4.47-.71-3.18.59-5.87 1.57-8.91z" fill="#C6C9C8"/><path d="M924 470h3l3.44 7.12.98 2.02c1.89 3.96 3.09 7.45 3.58 11.86l-2 1-1.21-3.29-1.6-4.33-.79-2.17c-1.57-4.21-3.3-8.22-5.4-12.21" fill="#DBDBDE"/><path d="M514 635q-3.07 1.53-6.15 3.04A34 34 0 0 0 495 649l-2-2c4.64-6.2 12.41-15.14 21-12" fill="#DCDDE0"/><path d="m485 457 1 3-3.43-.04-4.45-.02-2.26-.03c-5.63-.02-5.63-.02-7.86 1.09v-3l-2-1a38.4 38.4 0 0 1 19 0" fill="#242626"/><path d="M495 153h1v27h-1a75 75 0 0 1-2-21h2z" fill="#EFF3EF"/><path d="m847 568 1 3c-7.62 3.89-14.78 2.89-23 2 3.16-2.1 3.6-2.2 7.12-2a43 43 0 0 0 13.88-2z" fill="#E5E6EA"/><path d="m826 465 6.12-.06 3.45-.04c3.24.09 6.25.49 9.43 1.1-3.43 3.43-8.32 2.97-13 3a36 36 0 0 1-7-2z" fill="#DDDEDE"/><path d="M782 456v3l-2.45-.07-3.24-.05-3.2-.08c-3.11.2-3.11.2-5.75 1.33-2.36.87-2.36.87-4.67-.01L761 459c7.16-2.29 13.48-3.44 21-3" fill="#292A2A"/><path d="m847.19 424.88 2.44-.01h4.47c1.9.13 1.9.13 4.9 1.13v2l-27-1v-1c5.1-1.04 10-1.15 15.19-1.12" fill="#F0F1F3"/><path d="M892 498c3.32 4.98 3.13 9.39 3.06 15.25l-.01 2.26L895 521c-2.49-3.73-2.72-7.15-3.19-11.5l-.28-2.34c-.39-3.42-.63-5.86.47-9.16" fill="#D8D9DB"/><path d="M491 49h1v22l-2 1a76 76 0 0 1 0-22z" fill="#F2F1F2"/><path d="M635 689c2 3 2 3 3.44 6.38A60 60 0 0 0 643 704h-6c-2.29-5.34-3.47-9.28-2-15" fill="#DEE0E1"/><path d="M491 444h1l2 16-9-2 1.92-1.14c2.69-2.41 2.83-4.02 3.33-7.55l.45-3.01z" fill="#D0D3D1"/><path d="m529 39-2 2-2.38-1.28C514.19 34.28 514.19 34.28 508 34v-1c8.85-3.43 13.94.67 21 6" fill="#D9DBDB"/><path d="M441 523h1l3 19c-3-1-3-1-4.12-2.62-2.24-6.07-1.94-10.45.12-16.38" fill="#D4D7D4"/><path d="M506 674h24c-3 3-3 3-5.27 3.16l-2.62-.3-2.84-.31-2.96-.36-2.99-.33q-3.66-.4-7.32-.86z" fill="#EDEFEE"/><path d="m492 647 2 1-.94 2.81c-1.44 4.97-1.71 10.05-2.06 15.19h-2a498 498 0 0 1-.19-6.69l-.1-3.76c.31-3.74 1.11-5.56 3.29-8.55" fill="#EAEBEC"/><path d="M758 35a17 17 0 0 1 2 4h-3v-2l-2.38-.94C752 35 752 35 750 34q-2.55-.34-5.12-.56l-2.76-.26L740 33v-1c7.08-1.08 11.95-1.42 18 3" fill="#DCDCDE"/><path d="M763 395h2a27 27 0 0 1 .66 9.86l-.28 2.69-.32 2.76-.3 2.82L764 420h-1z" fill="#E3E6E3"/><path d="M756 356c2 1 2 1 3.06 3.06 1.17 3.67 1.55 7.11 1.94 10.94h-3c-3.63-9.41-3.63-9.41-2-14" fill="#F1F3F2"/><path d="m752 242 2 3c-3.39 4.69-6.78 9.03-11 13l-3-1 2.12-2c3.81-3.79 7.47-8.18 9.88-13" fill="#D5D5D8"/><path d="M797 617c7.4-.13 14.64.2 22 1v1q-4.93.3-9.88.56l-2.83.17-2.72.15-2.51.14C799 620 799 620 797 619z" fill="#F0F3F4"/><path d="M489 401h1l1 9h1l1 18h-2l-.18-2.59-.26-3.35-.24-3.34C490 416 490 416 489 415q-.1-3.53-.06-7.06l.02-3.91z" fill="#26292A"/><path d="m762 655 3 1c.18 4.51.14 7.97-2 12l-2 1z" fill="#F2F5F1"/><path d="M762 427h1l.18 1.9.26 2.48.24 2.46C764 436 764 436 765 438a149 149 0 0 1-1 7h-2l-2 2z" fill="#CBCCCD"/><path d="M760 38c3.49 2.69 4.24 5.76 5 10a50 50 0 0 1-2 8h-1l-.4-2.7-.54-3.55-.52-3.52C760 43 760 43 759.37 40.64L759 39z" fill="#EBEEEB"/><path d="M633 674h1l1 17h-2l-.44-3.19c-.56-3.81-.56-3.81-1.18-6.5A11 11 0 0 1 632 675z" fill="#F0F1F3"/><path d="M760 665h1v5h-2l-.5 1.94c-1.5 2.06-1.5 2.06-3.31 2.62-5.6.83-5.6.83-9.19-1.56l2.3-.48c8.24-1.93 8.24-1.93 10.82-5.21z" fill="#DCDFDC"/><path d="m915 575 2 1c-3.35 5.72-7.99 10.99-14 14 1.62-3.9 4.28-6.71 7.12-9.75l1.42-1.54z" fill="#EAEBED"/><path d="M492 92h2v16h-2c-.83-5.61-1.07-10.42 0-16" fill="#EFEFF1"/><path d="M866 471c4.62 1.32 8.1 3.21 12 6l-1 2a43 43 0 0 1-10-5z" fill="#D9DADC"/><path d="M748 30v2c-11.52 2.11-11.52 2.11-17 3 1.46-2.92 3.77-3.34 6.72-4.4 3.52-.92 6.66-.79 10.28-.6" fill="#EEEEF1"/><path d="M936 508h1l.18 2.89.26 3.8.24 3.76c.32 3.55.32 3.55.88 6.36.49 2.42.21 3.88-.56 6.19h-2z" fill="#E2E3E5"/><path d="m770.44 611.56 2.56.44-1.68 1.18C769 615 769 615 766.5 617.75L764 620c-2.15-.36-2.15-.36-4-1 5.92-6.86 5.92-6.86 10.44-7.44" fill="#D6D8D7"/><path d="M800 430h2c-.33 3.11-.92 3.93-3.38 6l-2.62 2c-1.81 2.25-1.81 2.25-3 4l-1-3c1.4-2.01 1.4-2.01 3.38-4.12l1.96-2.14q1.31-1.38 2.66-2.74" fill="#DEE0E4"/><path d="m881 548 1 3-8 8-2-2a43 43 0 0 1 9-9" fill="#D9DADE"/><path d="m713 48 3 2a218 218 0 0 1-3.75 3.06l-2.11 1.73C708 56 708 56 705.73 55.68L704 55q4.43-3.6 9-7" fill="#1D1E1E"/><path d="m730 34 3 2-12 8-1-3z" fill="#DFDFE1"/><path d="M749 674v2c-4.1 1.04-7.61.94-11.81.56l-3.52-.31L731 676v-1c6.05-.9 11.89-1.11 18-1" fill="#EEF1ED"/><path d="m494 654 .18 2.05.26 2.7.24 2.67c.28 2.27.71 4.38 1.32 6.58-1.94-.31-1.94-.31-4-1a20 20 0 0 1-1.06-7.69l.02-2.45.04-1.86c2-1 2-1 3-1" fill="#272A2B"/><path d="m617 692 2 1c-1.12 4.85-2.13 7.78-6 11l-3-1q1.92-2.56 4-5h2z" fill="#ECEFEF"/><path d="M792 440c.97 3.12.99 5.52.56 8.75l-.31 2.42L792 453l-3-2c-.42-3.82-.54-6.12 1.5-9.44z" fill="#F2F2F4"/><path d="m726 268 1 2h-2c-1.06 1.81-1.06 1.81-2 4l1 3h-2l-1 4-1-9z" fill="#D9DCD9"/><path d="M544 686h3l-2 14h-1q-.3-2.65-.56-5.31l-.32-2.99c-.12-2.7-.12-2.7.88-5.7" fill="#1C1C21"/><path d="M540 673c-2.61 2.51-3.95 2.99-7.62 3.38L529 676l-2-3c4.66-.84 8.37-1.02 13 0" fill="#D7D9D8"/><path d="M479 607c3.81 3.21 7.55 6.41 11 10l-1 3-1.39-1.68-1.86-2.2-1.83-2.17A16 16 0 0 0 478 610z" fill="#EFF2EF"/><path d="M813 498h1c2.43 6.2 1.67 10.63 0 17h-1z" fill="#F0F4EF"/><path d="M492 375c1.46 4.52.27 7.52-1 12h-3q.42-2.72.88-5.44l.49-3.06.63-2.5z" fill="#E9EAEC"/><path d="m500 343 2 1-.88 4.38-.49 2.46C500 353 500 353 498 355c-1.16-3.48-.77-4.34.44-7.69l.87-2.45z" fill="#E9E9EB"/><path d="M808 537c2 4 2 4 2 8-1 2.25-1 2.25-2 4h-2z" fill="#DBDFDC"/><path d="M883 433c3.22.63 5.51 1.78 8.25 3.56l2.14 1.38L895 439c-3 1-3 1-6.56-.19-3.34-1.75-4.36-2.32-5.44-5.81" fill="#E5E8EA"/><path d="M522 297h2c-.58 4.75-2.55 7.97-5 12h-1c-.62-5.08 1.38-7.83 4-12" fill="#DCDDDE"/><path d="m861 609-1 3c-4.32.76-7.74 1.16-12 0 4.28-2.85 7.93-3.14 13-3" fill="#1D1F1F"/><path d="M815 465h11l-2 3c-3.5.38-3.5.38-7 0z" fill="#F3F3F6"/><path d="m687 660 2 1v5l2.44.81L694 668l1 3c-6.88-1.88-6.88-1.88-8-3-.14-2.67-.04-5.32 0-8" fill="#D0D4CF"/><path d="m441 541 4 1 1 8h-3l-.44-3.38C442 543 442 543 441 541" fill="#ECECED"/><path d="M887 602c-3.29 2.91-5.6 4.5-10 5 1-3 1-3 3.88-4.75C884 601 884 601 887 602" fill="#EBEDEA"/><path d="M810 533h3l-1 7-3 1c-.12-5.75-.12-5.75 1-8" fill="#EFF3F1"/><path d="M753 237c1 3 1 3 0 5.04l-1.44 2.15-1.43 2.17L749 248v-8l3-1z" fill="#0D0D0F"/><path d="m758 664 2 4c-4.75 4-4.75 4-7 4 0-3 0-3 2.5-5.69z" fill="#242724"/><path d="M517 306c.69 1.69.69 1.69 1 4-1.31 2.75-1.31 2.75-3 5h-2c.65-3.49 2.1-6.03 4-9" fill="#EBEDEE"/><path d="M530 39q3.06 1.91 6 4v2c-3.24-.35-4.62-.56-6.81-3.06L528 40z" fill="#E7EAE7"/><path d="m761 444 2 1q-.17 2.22-.38 4.44l-.21 2.49L762 454l-2 1c-.12-7.62-.12-7.62 1-11" fill="#EBECEF"/><path d="M722 277c3.09 2.53 3.91 5.22 5 9l-4-1z" fill="#EEF1ED"/><path d="m770 454 2 1Zm-6 1c2.88-.12 2.88-.12 6 0l2 2-9 1z" fill="#E8E8EE"/><path d="M496 227c4.24 2.83 3.98 5.12 5 10-1.94-.5-1.94-.5-4-2-.69-2.7-.82-5.2-1-8" fill="#D6D6D6"/><path d="M565 661v5h-5c.38-1.94.38-1.94 1-4 2-1 2-1 4-1" fill="#E5E5E7"/><path d="m493 650 3 1-1 3h-2v9h-1q-.05-2.68-.06-5.38l-.04-3.02c.1-2.6.1-2.6 1.1-4.6" fill="#1B1C1E"/><path d="m750 624 3 1-5 5-2-1c1.75-3.88 1.75-3.88 4-5" fill="#232623"/><path d="m759 616 2 1c-1.37 3.16-1.99 3.99-5 6 0-4 0-4 1.5-5.75z" fill="#242723"/><path d="m934 491 3 1c.12 3.38.12 3.38 0 7l-2 2z" fill="#E9EAEB"/><path d="M498 236c3 1 3 1 4 3q.06 3 0 6c-4-4.5-4-4.5-4-9" fill="#E6E7E4"/><path d="m753 32 1 2-14-1v-1c8.92-1.36 8.92-1.36 13 0" fill="#C6C6CA"/><path d="m552 675 3 1-1 3-6 1z" fill="#2C2938"/><path d="M498 641h2c-1.44 3.37-3.33 5.51-6 8l-1-2q2.43-3.06 5-6" fill="#D4D4D7"/><path d="M810 527h2v3l2 1-1.94.88C810 533 810 533 809 535z" fill="#CED1D0"/><path d="M755 361c2.57 3.85 2.55 6.43 3 11l-1-3h-2c-.8-3.29-1.1-4.71 0-8" fill="#353737"/><path d="m678 72 2 1v2l-6 3-2-2z" fill="#1C1D1F"/><path d="m522 34 7 5-2 2c-2.5-1.25-2.5-1.25-5-3z" fill="#E0E3DF"/><path d="m853 566 2 1-1 3-6 1v-2c2.38-1.69 2.38-1.69 5-3" fill="#E6E7E8"/><path d="m452 467 3 1-3 5-4-1z" fill="#1D1F1E"/><path d="M490 440h1v10l-3-3z" fill="#E9E9EB"/><path d="M756 374h3l-1 10c-2-3.99-2.2-5.7-2-10" fill="#1E211E"/><path d="m758 370 4 2v4l-3 1z" fill="#E3E3E3"/><path d="M638 699h2a55 55 0 0 1 3 5h-6z" fill="#E8EAEB"/><path d="M542 692h1l1 12h-3z" fill="#BEBEC1"/><path d="m760 652 4 1-2 10h-1z" fill="#C5C9C4"/><path d="M768 613h7l-1 3h-5z" fill="#F4F7F3"/><path d="M920 567a12 12 0 0 1 1 4c-1.44 2.25-1.44 2.25-3 4l-3-1 1.94-2.38C919 569 919 569 920 567" fill="#DADADE"/><path d="m866 471 6 2-1 3c-1.94-.81-1.94-.81-4-2z" fill="#E0E1E5"/><path d="m808 427-1 4-5 1c1.13-3.38 2.21-5 6-5" fill="#E9EAEF"/></svg>