<svg style="background:transparent" version="1.1" xmlns="http://www.w3.org/2000/svg" viewBox="0 0 1248 704"><path d="m1021 100 3.5 1.28A101 101 0 0 1 1047 113l2.92 1.8a87 87 0 0 1 15.58 12.32l1.49 1.49A66 66 0 0 1 1075 139q1.9 2.4 3.88 4.75A83 83 0 0 1 1092 166l.77 1.79c4.2 10.12 5.48 19.87 1.23 30.21-2.38 2.88-2.38 2.88-5 5q-1.27 1.6-2.5 3.25c-3.25 3.57-5.46 3.56-10.11 3.99-7.89.22-12.82-.9-18.64-6.35a91 91 0 0 1-16.5-24.77c-6.43-13.1-16.48-22.96-30.25-28.12l-2.23-.85c-6.22-2.01-12.1-2.44-18.58-2.46l-2.46-.02c-7.97.09-13.89 2.78-20.85 6.39l-4.2 2.16-1.85.96c-1.83.82-1.83.82-4 1.32l-1.83.5a93 93 0 0 0-2 4l-2.19 2.12C939.98 175.8 933.47 191.68 929 206a127 127 0 0 1-10.85 21.12C917 229 917 229 915.5 232.25c-1.73 3.18-3.67 4.54-6.5 6.75a174 174 0 0 0-4 6c-2.45 2.63-5.2 4.85-7.99 7.11a50 50 0 0 0-4.74 5.23c-3.3 3.9-7.03 6.61-11.27 9.41l-2.08 1.42A89 89 0 0 1 867 275c-.58 4.91 1.3 7.02 4 11q1.8 3.41 3.5 6.88c1.91 3.9 3.84 7.78 5.88 11.62A30 30 0 0 1 883 314l.94 2.75a78 78 0 0 1 2.49 10.21q.62 3.28 1.33 6.55c1.84 8.91 2.63 17.71 2.99 26.8l.14 3.25c.19 6.2-.04 12.21-.63 18.38-.56 6.58-.66 13.19-.87 19.79-.18 5.5-.51 10.83-1.39 16.27q-.28 3.06-.5 6.12-.62 8.46-1.32 16.91c-.18 2.97-.18 2.97-.14 6.29C886 450 886 450 885 451q-.07 5.38.04 10.74c.03 3.35.03 6.06-1.04 9.26q-.13 2.66-.13 5.3l-.01 3.19.02 3.39.01 3.43c.06 10.81.44 21.17 3.11 31.69l.94 4.25q.84 3.83 1.75 7.64a400 400 0 0 1 7.43 42.05l.27 2.01c2.49 19.39 2.74 38.59 2.67 58.11l-.01 7.29L900 657l1.78.49 8.16 2.26 2.8.77c7.74 2.17 15.67 4.54 21.82 9.92l2.01 1.68C938 674 938 674 938.39 676.5c-.71 4.59-3.8 6.82-7.39 9.5-33.38 19.73-88.38 13.49-125.44 12.19l-3.83-.13a3184 3184 0 0 1-66.99-3.14c-42.18-2.35-84.48-4.45-126.74-3.92l-2.28.03c-36.8.42-73.54 2.11-110.23 4.88l-2.62.2c-14.63 1.14-29.25 2.4-43.81 4.17a644 644 0 0 1-79.5 4.39q-7.86-.01-15.74.01-13.12.01-26.23-.03-15.15-.04-30.3.01-13.14.03-26.26.01-7.8-.01-15.59.01-7.27.03-14.53-.02h-5.33q-3.62.02-7.25-.03l-2.14.04c-1.95-.04-1.95-.04-5.19-.67-3.7-4.67-4.13-8.95-4.06-14.75l.02-2.98.04-2.27-1.77.99c-11.99 6.39-24.57 9.36-37.91 5.62-8.03-2.52-16.44-6.18-20.56-13.95A44 44 0 0 1 155 670l-.67-2.39c-.42-3.34.35-5.46 1.48-8.61l1.08-3.06L158 653l.91-2.62c2.94-6.42 9.45-11.31 15.6-14.49 5.33-1.91 11.04-1.85 16.65-1.91 11.57-.62 20.54-11.1 28.42-18.64 1.76-1.66 3.58-3.22 5.42-4.78 7.93-6.88 15.77-14.32 21.82-22.94 1.8-2.47 4-4.49 6.18-6.62q2.7-3.05 5.35-6.13c1.65-1.87 1.65-1.87 3.27-3.46 1.38-1.41 1.38-1.41 2.76-3.79 1.86-3 4.12-5.12 6.62-7.62l1.81-2.71c2.86-4.29 6.07-8.25 9.3-12.25 2.31-2.9 4.43-5.6 5.89-9.04l-3.12-1.25A55 55 0 0 1 275 529l-2.38-1.31C263.89 522.07 253.29 513 250 503l-1-3-1-3-.97-2.36a67 67 0 0 1-2.47-7.95 86 86 0 0 0-3.18-9.94A44 44 0 0 1 239 466a70 70 0 0 0-2-8.31 76 76 0 0 1-2-11.69l-1-5-.76-3.91c-2.2-11.25-4.61-22.44-7.13-33.62-2.22-9.84-4.28-19.49-5.23-29.53l-.27-2.53c-2-20.47-2-20.47 2.95-27.68 4.03-4.51 7.78-6.99 13.83-7.73 9.53.01 17.78 4.86 26.01 9.16A77 77 0 0 0 272 349l2.65 1.04c13.15 4.95 13.15 4.95 18.41 2.58L296 351q3-.54 6-1l1.91-.96a24 24 0 0 1 6.47-2.04 65 65 0 0 0 7.74-2.06c3.29-1.07 6.47-1.46 9.88-1.94l3.06-.94A74 74 0 0 1 354 339l.69-1.75c1.65-2.83 3.74-4.22 6.31-6.25 2.36-2.65 4.52-5.16 6.28-8.25 2.23-3.56 4.86-6.64 7.6-9.81l1.56-1.86c4.92-5.73 10.29-10.62 17.56-13.08 4.84.08 8.22.98 12 4a48 48 0 0 1 10.38 18.06l.77 2.35 1.79 5.49c1.58 4.82 3.21 9.55 5.18 14.22 2 4.88 2.97 9.71 3.88 14.88q.97 4.5 2 9l2.75-1.19q3.52-1.51 7.07-2.95c6.34-2.57 12.28-5.4 18.18-8.86l5.37-3.1 3.67-2.13A67 67 0 0 1 477 343c4.98-2.32 9.79-4.96 14.58-7.65q3.95-2.2 7.92-4.35 5.18-2.81 10.31-5.69c2.42-1.35 4.81-2.61 7.31-3.81a45 45 0 0 0 6.38-4.06c3.05-2.25 5.9-3.24 9.5-4.44l5.05-3.66c3.15-2.16 6.52-3.8 9.95-5.46l2.04-1.02q4.73-2.33 9.57-4.4c3.32-1.43 6.46-3.04 9.64-4.77l3.4-1.85L576 290l3.04-1.65c4-2.17 7.98-4.35 11.9-6.66A25 25 0 0 1 598 279l1.88-1.44c2.12-1.56 2.12-1.56 4.87-2.44a28 28 0 0 0 6.94-3.43c4.07-2.66 8.33-4.61 12.78-6.57q2.86-1.27 5.65-2.68c4.69-2.34 9.47-4.5 14.34-6.4a96 96 0 0 0 7.54-3.54 80 80 0 0 1 14.88-5.94A96 96 0 0 0 679 242a91 91 0 0 1 19-6 62 62 0 0 0 6.81-2c3.4-1.07 6.67-1.5 10.19-2l2.88-1c3.29-1.05 6.27-1.4 9.69-1.71 2.57-.31 5.03-.8 7.55-1.35A49 49 0 0 1 747 227l1-1q2.34-.14 4.7-.13l2.92-.01 3.07.02 3.01-.02c4.9.01 9.48.2 14.3 1.14q2.94.24 5.88.44A71 71 0 0 1 796 230c3.47.73 6.95 1.34 10.44 1.94 4.01.72 7.71 1.69 11.56 3.06 6.96 2.27 6.96 2.27 10.62 1.31L831 235l2.75-1.31c6.13-3.18 11.93-6.24 17.25-10.69l2.88-1.75c6-4.32 10.33-10.34 14.66-16.28a80 80 0 0 1 2.89-3.69c8.3-10.21 13.05-23.08 17.57-35.28 2.74-7.11 6.53-12.86 11-19l3.38-5c3.78-5.41 8.09-10.2 12.62-15l2.05-2.28c13.03-13.94 31.63-24.08 50.36-27.26a87 87 0 0 0 8.44-1.98c13.9-3.1 31.07-.55 44.15 4.52" fill="#111311"/><path d="m1021 100 3.5 1.28A101 101 0 0 1 1047 113l2.92 1.8a87 87 0 0 1 15.58 12.32l1.49 1.49A66 66 0 0 1 1075 139q1.9 2.4 3.88 4.75A83 83 0 0 1 1092 166l.77 1.79c4.2 10.12 5.48 19.87 1.23 30.21-2.38 2.88-2.38 2.88-5 5q-1.27 1.6-2.5 3.25c-3.25 3.57-5.46 3.56-10.11 3.99-7.89.22-12.82-.9-18.64-6.35a91 91 0 0 1-16.5-24.77c-6.43-13.1-16.48-22.96-30.25-28.12l-2.23-.85c-6.22-2.01-12.1-2.44-18.58-2.46l-2.46-.02c-7.97.09-13.89 2.78-20.85 6.39l-4.2 2.16-1.85.96c-1.83.82-1.83.82-4 1.32l-1.83.5a93 93 0 0 0-2 4l-2.19 2.12C939.98 175.8 933.47 191.68 929 206a127 127 0 0 1-10.85 21.12C917 229 917 229 915.5 232.25c-1.73 3.18-3.67 4.54-6.5 6.75a174 174 0 0 0-4 6c-2.45 2.63-5.2 4.85-7.99 7.11a50 50 0 0 0-4.74 5.23c-3.3 3.9-7.03 6.61-11.27 9.41l-2.08 1.42A89 89 0 0 1 867 275c-.58 4.91 1.3 7.02 4 11q1.8 3.41 3.5 6.88c1.91 3.9 3.84 7.78 5.88 11.62A30 30 0 0 1 883 314l.94 2.75a78 78 0 0 1 2.49 10.21q.62 3.28 1.33 6.55c1.84 8.91 2.63 17.71 2.99 26.8l.14 3.25c.19 6.2-.04 12.21-.63 18.38-.56 6.58-.66 13.19-.87 19.79-.18 5.5-.51 10.83-1.39 16.27q-.28 3.06-.5 6.12-.62 8.46-1.32 16.91c-.18 2.97-.18 2.97-.14 6.29C886 450 886 450 885 451q-.07 5.38.04 10.74c.03 3.35.03 6.06-1.04 9.26q-.13 2.66-.13 5.3l-.01 3.19.02 3.39.01 3.43c.06 10.81.44 21.17 3.11 31.69l.94 4.25q.84 3.83 1.75 7.64a400 400 0 0 1 7.43 42.05l.27 2.01c2.49 19.39 2.74 38.59 2.67 58.11l-.01 7.29L900 657l1.78.49 8.16 2.26 2.8.77c7.74 2.17 15.67 4.54 21.82 9.92l2.01 1.68C938 674 938 674 938.39 676.5c-.71 4.59-3.8 6.82-7.39 9.5-33.38 19.73-88.38 13.49-125.44 12.19l-3.83-.13a3184 3184 0 0 1-66.99-3.14c-42.18-2.35-84.48-4.45-126.74-3.92l-2.28.03c-36.8.42-73.54 2.11-110.23 4.88l-2.62.2q-4.7.36-9.37.77l-2.48.2a715 715 0 0 0-31.38 3.21c-31.18 3.97-62.08 4.34-93.47 4.07q-10.37-.08-20.75-.11-21.21-.08-42.42-.25a72 72 0 0 1 10.33-7.14l3.13-1.78 3.35-1.89a663 663 0 0 0 26.13-15.63A936 936 0 0 1 361.5 662a1287 1287 0 0 0 34.43-21.07q3.36-2.11 6.75-4.21a929 929 0 0 0 28.94-18.78q6.2-4.17 12.43-8.31 3.88-2.57 7.71-5.23c6.83-4.68 12.74-7.66 21.05-8.78 35.63-6.19 69.93-22.16 102.31-37.72l5.62-2.68a1215 1215 0 0 0 77.62-40.25l7.44-4.19 5.37-3.06 3.31-1.86 2.94-1.67C680 503 680 503 684 503l.81 2.8c9.52 31.98 23.85 58.28 47.74 81.71l1.68 1.65q3.39 3.33 6.81 6.64c10.41 10.07 19.06 19.94 20.17 35.08.04 2.4.05 4.73-.21 7.12-1.73 1.73-4.26 1.5-6.62 1.81A30.5 30.5 0 0 0 741 645h-2l-.75 1.56C737 649 737 649 734.88 651.88c-3.19 5.51-2.58 11.99-1.88 18.12 1.82 4.59 3.95 6.19 8.25 8.25 8.9 3.7 17.08 4.06 26.63 4l3.68.02c11.5-.02 22.35-.86 31.25-8.77 16.01-18.29 14.32-49.45 13.04-72.07-.74-9.76-3.08-19.07-5.85-28.43 14.78 6.86 27.82 20.82 33.96 35.71 2.7 8.52 3.31 16.51 3.16 25.41l-.02 3.19-.1 7.69-2.48.28c-8.51 1.02-15.78 3.25-21.44 10.01-5.11 7.45-5.85 13.73-5.08 22.71 1.21 4.03 3.4 6.47 6.56 9.25 8.92 4.54 17.94 5.27 27.82 5.19l3.6-.02c12.27-.22 22.64-2.04 31.64-11.04 10.64-13.78 8.72-34.29 8.63-50.69l-.01-3.12c-.1-33.33-2.42-65.02-10.37-97.45A821 821 0 0 1 883 518l-.68-2.92c-2.07-10.3-1.67-20.87-1.63-31.33v-3.18c.04-23.22 1.73-46.19 3.95-69.28 1.29-13.98 1.57-27.89 1.61-41.91l.02-2.86c.12-29.38-4.73-57.31-20.7-82.48-1.75-3.4-2.23-6.25-2.57-10.04l3.75-2.5 2.49-1.67q2.81-1.86 5.64-3.69c27.31-17.79 42.1-40.86 54.57-70.25 5.92-13.93 11.78-25.11 22.55-35.89l2.07-2.1c9.61-9.11 22.67-13.86 35.81-14.28 17.23.57 31.35 6.57 43.27 18.84 6.01 6.49 10.26 13.63 14.38 21.45 5.25 9.93 10.58 18.76 21.47 22.84 6.61.83 11.63.32 17-3.75 5.97-7.33 6.74-14.76 6.23-23.96-2.05-18.41-16.04-35.12-28.23-48.04l-1.86-2.05c-16.63-17.7-42.03-29.29-66.23-30.17-30.26-.69-56.08 9-78.44 29.69-13.47 13.79-21.68 30.52-29.13 48.06-10.51 24.73-25.75 44.92-49.34 58.47l-3.04 1.75c-8.72 4.51-14.94 3.16-24.01.53-28.98-8.39-62.37-9.75-91.95-3.28l-2.81.6c-51.29 11.26-100.47 36.57-146.12 61.98a720 720 0 0 1-21.48 11.32 744 744 0 0 0-31.95 17.23 649 649 0 0 1-26.94 14.34 787 787 0 0 0-22.2 11.84 459 459 0 0 1-21.81 11.31l-2.55 1.26A63 63 0 0 1 428 369l-.62-2.25C411.71 310.37 411.71 310.37 400 302c-4.14-.74-6.36-.89-10.04 1.11A65 65 0 0 0 384 308l-1.78 1.61c-4.12 3.93-7.6 8.29-11.1 12.77a215 215 0 0 1-9.04 10.3 90 90 0 0 0-4.16 4.99c-3.68 4.47-7.49 4.91-12.92 5.71-15.64 2.48-30.46 5.8-45.46 10.98-8.55 2.89-14.46 3.51-22.98.08l-2.08-.81c-5-1.97-9.93-4.09-14.86-6.25l-2.03-.9a534 534 0 0 1-8.47-3.81c-5.69-2.52-10.89-3.78-17.12-2.67-3.65 2.13-5.43 4.13-7 8-3.01 25.05 2.39 51.18 9.25 75.18 1.75 6.29 2.74 12.62 3.69 19.07 3.37 22.46 8.13 52.86 23.06 70.75l1.72 2.1c8.26 9.09 19.58 15.48 31.28 18.9-1.71 3.99-4.38 7.2-7.06 10.56l-1.49 1.88c-17.15 21.55-35.08 42.37-54.53 61.88l-5.36 5.43c-23.33 23.55-23.33 23.55-37.81 23.63-9.44.33-16.07 2.44-22.69 9.5-5.62 7.15-6.69 12.65-6.47 21.74.77 6.39 3.71 10.27 8.66 14.19 10.24 6.44 22.47 6.78 34.16 4.53 7.48-2.28 13.98-6.24 20.59-10.34l2-1-.66 1.55A37 37 0 0 0 223 704l-3-1c-3.19-6.38-3.35-11.95-3-19l-1.77.99c-11.99 6.39-24.57 9.36-37.91 5.62-8.03-2.52-16.44-6.18-20.56-13.95A44 44 0 0 1 155 670l-.67-2.39c-.42-3.34.35-5.46 1.48-8.61l1.08-3.06L158 653l.91-2.62c2.94-6.42 9.45-11.31 15.6-14.49 5.33-1.91 11.04-1.85 16.65-1.91 11.57-.62 20.54-11.1 28.42-18.64 1.76-1.66 3.58-3.22 5.42-4.78 7.93-6.88 15.77-14.32 21.82-22.94 1.8-2.47 4-4.49 6.18-6.62q2.7-3.05 5.35-6.13c1.65-1.87 1.65-1.87 3.27-3.46 1.38-1.41 1.38-1.41 2.76-3.79 1.86-3 4.12-5.12 6.62-7.62l1.81-2.71c2.86-4.29 6.07-8.25 9.3-12.25 2.31-2.9 4.43-5.6 5.89-9.04l-3.12-1.25A55 55 0 0 1 275 529l-2.38-1.31C263.89 522.07 253.29 513 250 503l-1-3-1-3-.97-2.36a67 67 0 0 1-2.47-7.95 86 86 0 0 0-3.18-9.94A44 44 0 0 1 239 466a70 70 0 0 0-2-8.31 76 76 0 0 1-2-11.69l-1-5-.76-3.91c-2.2-11.25-4.61-22.44-7.13-33.62-2.22-9.84-4.28-19.49-5.23-29.53l-.27-2.53c-2-20.47-2-20.47 2.95-27.68 4.03-4.51 7.78-6.99 13.83-7.73 9.53.01 17.78 4.86 26.01 9.16A77 77 0 0 0 272 349l2.65 1.04c13.15 4.95 13.15 4.95 18.41 2.58L296 351q3-.54 6-1l1.91-.96a24 24 0 0 1 6.47-2.04 65 65 0 0 0 7.74-2.06c3.29-1.07 6.47-1.46 9.88-1.94l3.06-.94A74 74 0 0 1 354 339l.69-1.75c1.65-2.83 3.74-4.22 6.31-6.25 2.36-2.65 4.52-5.16 6.28-8.25 2.23-3.56 4.86-6.64 7.6-9.81l1.56-1.86c4.92-5.73 10.29-10.62 17.56-13.08 4.84.08 8.22.98 12 4a48 48 0 0 1 10.38 18.06l.77 2.35 1.79 5.49c1.58 4.82 3.21 9.55 5.18 14.22 2 4.88 2.97 9.71 3.88 14.88q.97 4.5 2 9l2.75-1.19q3.52-1.51 7.07-2.95c6.34-2.57 12.28-5.4 18.18-8.86l5.37-3.1 3.67-2.13A67 67 0 0 1 477 343c4.98-2.32 9.79-4.96 14.58-7.65q3.95-2.2 7.92-4.35 5.18-2.81 10.31-5.69c2.42-1.35 4.81-2.61 7.31-3.81a45 45 0 0 0 6.38-4.06c3.05-2.25 5.9-3.24 9.5-4.44l5.05-3.66c3.15-2.16 6.52-3.8 9.95-5.46l2.04-1.02q4.73-2.33 9.57-4.4c3.32-1.43 6.46-3.04 9.64-4.77l3.4-1.85L576 290l3.04-1.65c4-2.17 7.98-4.35 11.9-6.66A25 25 0 0 1 598 279l1.88-1.44c2.12-1.56 2.12-1.56 4.87-2.44a28 28 0 0 0 6.94-3.43c4.07-2.66 8.33-4.61 12.78-6.57q2.86-1.27 5.65-2.68c4.69-2.34 9.47-4.5 14.34-6.4a96 96 0 0 0 7.54-3.54 80 80 0 0 1 14.88-5.94A96 96 0 0 0 679 242a91 91 0 0 1 19-6 62 62 0 0 0 6.81-2c3.4-1.07 6.67-1.5 10.19-2l2.88-1c3.29-1.05 6.27-1.4 9.69-1.71 2.57-.31 5.03-.8 7.55-1.35A49 49 0 0 1 747 227l1-1q2.34-.14 4.7-.13l2.92-.01 3.07.02 3.01-.02c4.9.01 9.48.2 14.3 1.14q2.94.24 5.88.44A71 71 0 0 1 796 230c3.47.73 6.95 1.34 10.44 1.94 4.01.72 7.71 1.69 11.56 3.06 6.96 2.27 6.96 2.27 10.62 1.31L831 235l2.75-1.31c6.13-3.18 11.93-6.24 17.25-10.69l2.88-1.75c6-4.32 10.33-10.34 14.66-16.28a80 80 0 0 1 2.89-3.69c8.3-10.21 13.05-23.08 17.57-35.28 2.74-7.11 6.53-12.86 11-19l3.38-5c3.78-5.41 8.09-10.2 12.62-15l2.05-2.28c13.03-13.94 31.63-24.08 50.36-27.26a87 87 0 0 0 8.44-1.98c13.9-3.1 31.07-.55 44.15 4.52" fill="#B8BAB8"/><path d="m681 502 3 1a71 71 0 0 1 2.19 6.81c8.93 30.52 23.7 55.47 46.36 77.7l1.68 1.65q3.39 3.33 6.81 6.64c10.41 10.07 19.06 19.94 20.17 35.08.04 2.4.05 4.73-.21 7.12-1.7 1.7-4.11 1.45-6.44 1.75-5.46.84-9.51 2.46-14.21 5.32-3.13 1.24-5.04.52-8.35-.07q-3.86-.32-7.72-.53l-2.24-.12c-8.5-.46-17-.7-25.5-.9l-2.62-.06c-21.05-.5-42.1-.58-63.16-.58l-12.74-.02c-38.96-.12-77.86.83-116.71 3.96l-3.14.25c-25.13 1.97-50.16 4.86-75.17 8l-3.09.39A647 647 0 0 0 388 660q-6.56 1.11-13.12 2.19l-3.4.57-3.24.53-2.91.49C363 664 363 664 361 663a498 498 0 0 1 18.75-12.06l2.76-1.71q6.78-4.19 13.58-8.33a1102 1102 0 0 0 39.77-25.79l13.52-9.05 2.15-1.45 3.85-2.54q2-1.34 3.96-2.76c4.11-2.02 8.42-2.52 12.91-3.31 35.83-6.92 70.16-22.38 102.87-38.1l5.62-2.68c24.5-11.64 48.52-24.1 72.26-37.22l3.57-1.97 13.08-7.23 5.12-2.84 2.99-1.66C680 503 680 503 681 502" fill="#ECEEEC"/><path d="m1021 100 3.5 1.28A101 101 0 0 1 1047 113l2.92 1.8a87 87 0 0 1 15.58 12.32l1.49 1.49A66 66 0 0 1 1075 139q1.9 2.4 3.88 4.75A83 83 0 0 1 1092 166l.77 1.79c4.2 10.12 5.48 19.87 1.23 30.21-2.38 2.88-2.38 2.88-5 5q-1.27 1.6-2.5 3.25c-3.25 3.57-5.46 3.56-10.11 3.99-7.89.22-12.82-.9-18.64-6.35a91 91 0 0 1-16.5-24.77c-6.43-13.1-16.48-22.96-30.25-28.12l-2.23-.85c-6.22-2.01-12.1-2.44-18.58-2.46l-2.46-.02c-7.97.09-13.89 2.78-20.85 6.39l-4.2 2.16-1.85.96c-1.83.82-1.83.82-4 1.32l-1.83.5a93 93 0 0 0-2 4l-2.19 2.12C939.98 175.8 933.47 191.68 929 206a127 127 0 0 1-10.85 21.12C917 229 917 229 915.5 232.25c-1.73 3.18-3.67 4.54-6.5 6.75a174 174 0 0 0-4 6c-2.45 2.63-5.2 4.85-7.99 7.11a50 50 0 0 0-4.74 5.23c-3.3 3.9-7.03 6.61-11.27 9.41l-2.08 1.42A89 89 0 0 1 867 275c-.58 4.91 1.3 7.02 4 11q1.8 3.41 3.5 6.88c1.91 3.9 3.84 7.78 5.88 11.62A30 30 0 0 1 883 314l.94 2.75a78 78 0 0 1 2.49 10.21q.62 3.28 1.33 6.55c1.84 8.91 2.63 17.71 2.99 26.8l.14 3.25c.19 6.2-.04 12.21-.63 18.38-.56 6.58-.66 13.19-.87 19.79-.18 5.5-.51 10.83-1.39 16.27q-.28 3.06-.5 6.12-.62 8.46-1.32 16.91c-.18 2.97-.18 2.97-.14 6.29C886 450 886 450 885 451q-.07 5.38.04 10.74c.03 3.35.03 6.06-1.04 9.26q-.13 2.66-.13 5.3l-.01 3.19.02 3.39.01 3.43c.06 10.81.44 21.17 3.11 31.69l.94 4.25q.84 3.83 1.75 7.64a400 400 0 0 1 7.43 42.05l.27 2.01c2.49 19.39 2.74 38.59 2.67 58.11l-.01 7.29L900 657l1.78.49 8.16 2.26 2.8.77c7.74 2.17 15.67 4.54 21.82 9.92l2.01 1.68C938 674 938 674 938.39 676.5c-.71 4.59-3.8 6.82-7.39 9.5-33.38 19.73-88.38 13.49-125.44 12.19l-3.83-.13a3184 3184 0 0 1-66.99-3.14c-42.18-2.35-84.48-4.45-126.74-3.92l-2.28.03c-52.94.61-105.89 3.6-158.52 9.34l-3.21.35q-7.58.82-15.14 1.71A244 244 0 0 1 395 704c3.26-1.89 6.04-2.41 9.78-2.78l3.5-.36 3.66-.36 3.46-.36c8.17-.83 16.34-1.59 24.51-2.37q7.71-.73 15.42-1.5c27.21-2.7 54.43-4.63 81.74-6.11q4.21-.23 8.41-.48c36.34-2.13 72.7-2.17 109.08-1.52l2.06.04c12.63.26 25.25.86 37.87 1.58l6.9.39q11.89.66 23.78 1.37c36.86 2.16 73.65 3.86 110.58 3.84h7.4c21.37.01 42.31-.58 63.35-4.69l3.18-.57c8.99-1.73 19.15-3.89 25.32-11.12.62-2.44.62-2.44 0-5-4.89-5.03-10.11-6.69-16.75-8.62l-2.84-.87q-4.2-1.27-8.41-2.51l-10-3-.02-1.78c-1.22-86.73-1.22-86.73-11.11-127.1A821 821 0 0 1 883 518l-.68-2.92c-2.07-10.3-1.67-20.87-1.63-31.33v-3.18c.04-23.22 1.73-46.19 3.95-69.28 1.29-13.98 1.57-27.89 1.61-41.91l.02-2.86c.12-29.38-4.73-57.31-20.7-82.48-1.75-3.4-2.23-6.25-2.57-10.04l3.75-2.5 2.49-1.67q2.81-1.86 5.64-3.69c27.31-17.79 42.1-40.86 54.57-70.25 5.92-13.93 11.78-25.11 22.55-35.89l2.07-2.1c9.61-9.11 22.67-13.86 35.81-14.28 17.23.57 31.35 6.57 43.27 18.84 6.01 6.49 10.26 13.63 14.38 21.45 5.25 9.93 10.58 18.76 21.47 22.84 6.61.83 11.63.32 17-3.75 5.97-7.33 6.74-14.76 6.23-23.96-2.05-18.41-16.04-35.12-28.23-48.04l-1.86-2.05c-16.63-17.7-42.03-29.29-66.23-30.17-30.26-.69-56.08 9-78.44 29.69-13.47 13.79-21.68 30.52-29.13 48.06-10.51 24.73-25.75 44.92-49.34 58.47l-3.04 1.75c-8.72 4.51-14.94 3.16-24.01.53-28.98-8.39-62.37-9.75-91.95-3.28l-2.81.6c-51.29 11.26-100.47 36.57-146.12 61.98a720 720 0 0 1-21.48 11.32 744 744 0 0 0-31.95 17.23 649 649 0 0 1-26.94 14.34 787 787 0 0 0-22.2 11.84 459 459 0 0 1-21.81 11.31l-2.55 1.26A63 63 0 0 1 428 369l-.62-2.25C411.71 310.37 411.71 310.37 400 302c-4.14-.74-6.36-.89-10.04 1.11A65 65 0 0 0 384 308l-1.78 1.61c-4.12 3.93-7.6 8.29-11.1 12.77a215 215 0 0 1-9.04 10.3 90 90 0 0 0-4.16 4.99c-3.68 4.47-7.49 4.91-12.92 5.71-15.64 2.48-30.46 5.8-45.46 10.98-8.55 2.89-14.46 3.51-22.98.08l-2.08-.81c-5-1.97-9.93-4.09-14.86-6.25l-2.03-.9a534 534 0 0 1-8.47-3.81c-5.69-2.52-10.89-3.78-17.12-2.67-3.65 2.13-5.43 4.13-7 8-3.01 25.05 2.39 51.18 9.25 75.18 1.75 6.29 2.74 12.62 3.69 19.07 3.37 22.46 8.13 52.86 23.06 70.75l1.72 2.1c8.26 9.09 19.58 15.48 31.28 18.9-1.71 3.99-4.38 7.2-7.06 10.56l-1.49 1.88c-17.15 21.55-35.08 42.37-54.53 61.88l-5.36 5.43c-23.33 23.55-23.33 23.55-37.81 23.63-9.44.33-16.07 2.44-22.69 9.5-5.62 7.15-6.69 12.65-6.47 21.74.77 6.39 3.71 10.27 8.66 14.19 10.24 6.44 22.47 6.78 34.16 4.53 7.48-2.28 13.98-6.24 20.59-10.34l2-1-.66 1.55A37 37 0 0 0 223 704l-3-1c-3.19-6.38-3.35-11.95-3-19l-1.77.99c-11.99 6.39-24.57 9.36-37.91 5.62-8.03-2.52-16.44-6.18-20.56-13.95A44 44 0 0 1 155 670l-.67-2.39c-.42-3.34.35-5.46 1.48-8.61l1.08-3.06L158 653l.91-2.62c2.94-6.42 9.45-11.31 15.6-14.49 5.33-1.91 11.04-1.85 16.65-1.91 11.57-.62 20.54-11.1 28.42-18.64 1.76-1.66 3.58-3.22 5.42-4.78 7.93-6.88 15.77-14.32 21.82-22.94 1.8-2.47 4-4.49 6.18-6.62q2.7-3.05 5.35-6.13c1.65-1.87 1.65-1.87 3.27-3.46 1.38-1.41 1.38-1.41 2.76-3.79 1.86-3 4.12-5.12 6.62-7.62l1.81-2.71c2.86-4.29 6.07-8.25 9.3-12.25 2.31-2.9 4.43-5.6 5.89-9.04l-3.12-1.25A55 55 0 0 1 275 529l-2.38-1.31C263.89 522.07 253.29 513 250 503l-1-3-1-3-.97-2.36a67 67 0 0 1-2.47-7.95 86 86 0 0 0-3.18-9.94A44 44 0 0 1 239 466a70 70 0 0 0-2-8.31 76 76 0 0 1-2-11.69l-1-5-.76-3.91c-2.2-11.25-4.61-22.44-7.13-33.62-2.22-9.84-4.28-19.49-5.23-29.53l-.27-2.53c-2-20.47-2-20.47 2.95-27.68 4.03-4.51 7.78-6.99 13.83-7.73 9.53.01 17.78 4.86 26.01 9.16A77 77 0 0 0 272 349l2.65 1.04c13.15 4.95 13.15 4.95 18.41 2.58L296 351q3-.54 6-1l1.91-.96a24 24 0 0 1 6.47-2.04 65 65 0 0 0 7.74-2.06c3.29-1.07 6.47-1.46 9.88-1.94l3.06-.94A74 74 0 0 1 354 339l.69-1.75c1.65-2.83 3.74-4.22 6.31-6.25 2.36-2.65 4.52-5.16 6.28-8.25 2.23-3.56 4.86-6.64 7.6-9.81l1.56-1.86c4.92-5.73 10.29-10.62 17.56-13.08 4.84.08 8.22.98 12 4a48 48 0 0 1 10.38 18.06l.77 2.35 1.79 5.49c1.58 4.82 3.21 9.55 5.18 14.22 2 4.88 2.97 9.71 3.88 14.88q.97 4.5 2 9l2.75-1.19q3.52-1.51 7.07-2.95c6.34-2.57 12.28-5.4 18.18-8.86l5.37-3.1 3.67-2.13A67 67 0 0 1 477 343c4.98-2.32 9.79-4.96 14.58-7.65q3.95-2.2 7.92-4.35 5.18-2.81 10.31-5.69c2.42-1.35 4.81-2.61 7.31-3.81a45 45 0 0 0 6.38-4.06c3.05-2.25 5.9-3.24 9.5-4.44l5.05-3.66c3.15-2.16 6.52-3.8 9.95-5.46l2.04-1.02q4.73-2.33 9.57-4.4c3.32-1.43 6.46-3.04 9.64-4.77l3.4-1.85L576 290l3.04-1.65c4-2.17 7.98-4.35 11.9-6.66A25 25 0 0 1 598 279l1.88-1.44c2.12-1.56 2.12-1.56 4.87-2.44a28 28 0 0 0 6.94-3.43c4.07-2.66 8.33-4.61 12.78-6.57q2.86-1.27 5.65-2.68c4.69-2.34 9.47-4.5 14.34-6.4a96 96 0 0 0 7.54-3.54 80 80 0 0 1 14.88-5.94A96 96 0 0 0 679 242a91 91 0 0 1 19-6 62 62 0 0 0 6.81-2c3.4-1.07 6.67-1.5 10.19-2l2.88-1c3.29-1.05 6.27-1.4 9.69-1.71 2.57-.31 5.03-.8 7.55-1.35A49 49 0 0 1 747 227l1-1q2.34-.14 4.7-.13l2.92-.01 3.07.02 3.01-.02c4.9.01 9.48.2 14.3 1.14q2.94.24 5.88.44A71 71 0 0 1 796 230c3.47.73 6.95 1.34 10.44 1.94 4.01.72 7.71 1.69 11.56 3.06 6.96 2.27 6.96 2.27 10.62 1.31L831 235l2.75-1.31c6.13-3.18 11.93-6.24 17.25-10.69l2.88-1.75c6-4.32 10.33-10.34 14.66-16.28a80 80 0 0 1 2.89-3.69c8.3-10.21 13.05-23.08 17.57-35.28 2.74-7.11 6.53-12.86 11-19l3.38-5c3.78-5.41 8.09-10.2 12.62-15l2.05-2.28c13.03-13.94 31.63-24.08 50.36-27.26a87 87 0 0 0 8.44-1.98c13.9-3.1 31.07-.55 44.15 4.52" fill="#E5E6E6"/><path d="m237.25 338.81 2.7.08 2.05.11v2h-8v3l2.87-.25c13.49.1 31.51 12.14 41.13 21.25.82 2.26.82 2.26 1 4l-1.87 1.4A106 106 0 0 0 260 387l-1.72 2.06c-6.41 8.12-9.7 16.71-12.37 26.64A106 106 0 0 1 242 427l-.31-1.94L241 423l-3-1c-5.04-10.8-8-26.12-8-38h-2l-1-2-2 2c-1.19-6.32-1.26-12.52-1.3-18.94q-.01-2.07-.06-4.12-.05-3-.07-6l-.04-3.6c.68-4.82 2.95-7.87 6.39-11.2 2.61-1.43 4.37-1.45 7.33-1.33" fill="#262825"/><path d="m399 306 3.19.06c3.16 1.06 3.47 1.5 5.06 4.25q.9 1.83 1.75 3.69l1.25 2.44.75 1.56h2a270 270 0 0 1 9.9 29.97q1.28 4.79 2.91 9.47C427 361 427 361 427 364h-2v13l-1.88-2c-14.97-14.72-32.89-21.91-53.57-24.61C367 350 367 350 365 349c-.12-2.38-.12-2.38 0-5l2-2c.85-1.95.85-1.95 1.62-4.12l.79-2.2.59-1.68h2l.62-3c1.14-4 3.22-6.78 5.79-10a102 102 0 0 0 4.34-6l2.25-3h2l.81-1.88c2.7-4.81 6.2-4.37 11.19-4.12" fill="#252623"/><path d="M810 573c14.78 6.86 27.82 20.82 33.96 35.71 2.7 8.52 3.31 16.51 3.16 25.41l-.02 3.19-.1 7.69-2.48.28c-5.72.68-9.84 1.62-14.58 4.97-4.04 2.72-6.28 3.02-11.06 2.13A101 101 0 0 1 814 651l.44-5 .24-2.81q.35-3.37.84-6.72c2.69-21.24.52-43.05-5.52-63.47" fill="#ECEEEC"/><path d="M368 562c-1.59 3.91-4.14 6.37-7.12 9.31l-2.76 2.74c-2.91 2.8-5.96 5.44-9.01 8.09-3.64 3.2-7.15 6.53-10.67 9.86l-2.17 2.04a419 419 0 0 0-11.69 11.41 101 101 0 0 1-5.08 4.61 377 377 0 0 0-12 10.94 456 456 0 0 1-15.5 14l-3.1 2.7a507 507 0 0 1-20.11 16.65A355 355 0 0 1 264 658l-2.79 2.27c-4.38 2.36-8.18 2.4-13.09 2.48l-2.66.09q-3.23.1-6.46.16a68 68 0 0 1 9.12-7.88 1115 1115 0 0 0 34.47-26.79q5.36-4.3 10.77-8.52 8.54-6.66 16.75-13.69 5.72-4.84 11.64-9.43a833 833 0 0 0 33.79-27.87L360 565l2.14-1.83C364 562 364 562 368 562" fill="#EBEAED"/><path d="m304.31 470.81 2.8-.04c5.36 0 9.86.33 14.9 2.23 2 2 2 2 2 4l1-2h2c4 5.41 4 5.41 4 8q-4.04 1.73-8.08 3.43l-2.27 1c-9.99 4.2-21.3 5.24-31.66 1.57-9.02-4.52-9.02-4.52-12-9v-4l6.25-1.94 3.51-1.09c6.05-1.82 11.24-2.16 17.55-2.16" fill="#151615"/><path d="m758.81 225.75 3.06-.06 2.96-.02 2.71-.03c2.91.43 4.28 1.44 6.46 3.36l-1.94.03c-72.73 1.31-138.46 32.76-200.97 67.53-9.3 5.16-18.76 9.99-28.23 14.84l-1.9.98-3.72 1.9a301 301 0 0 0-13.97 7.68C521 323 521 323 517 323c2.27-4.55 8.47-7.48 13.12-9.06L533 313l5.04-3.66c3.15-2.16 6.52-3.8 9.96-5.47l2.04-1.01a193 193 0 0 1 9.57-4.4c3.32-1.43 6.46-3.04 9.64-4.77L576 290l3.04-1.65c4-2.17 7.98-4.35 11.9-6.66A25 25 0 0 1 598 279l1.87-1.44c2.13-1.56 2.13-1.56 4.88-2.43a28 28 0 0 0 6.94-3.44c4.07-2.66 8.33-4.61 12.78-6.57q2.86-1.27 5.65-2.68c4.7-2.34 9.47-4.5 14.34-6.4a96 96 0 0 0 7.54-3.54 81 81 0 0 1 14.87-5.94A96 96 0 0 0 679 242a91 91 0 0 1 19-6 63 63 0 0 0 6.81-2c3.4-1.07 6.67-1.5 10.2-2l2.86-1c3.3-1.05 6.27-1.4 9.7-1.71 2.56-.31 5.03-.8 7.55-1.35A49 49 0 0 1 747 227c2.41-2.41 8.57-1.23 11.81-1.25" fill="#EAEAED"/><path d="M409 449c1.72 1.52 1.72 1.52 3 3l-4.88 3-2.74 1.69C402 458 402 458 400 458v2l-3.56 1.75a131 131 0 0 0-8.32 4.5C385 468 385 468 383 468l1 3-2.88.19c-4.44.59-7.93 2.65-11.79 4.85-2.64 1.09-3.7.96-6.33-.04-.39-3.79-.45-5.44 1.97-8.48l2.53-2.27A139 139 0 0 0 372 461v-2l2.81-.69a58 58 0 0 0 9.44-3.75c7.9-3.66 15.96-6.5 24.75-5.56" fill="#131513"/><path d="M220 617c-2.43 6.5-9.68 10.84-15 15l-2.26 1.79c-5.48 3.67-11.05 3.59-17.43 3.77-8.52.34-14.38 3.06-20.25 9.32-5.62 7.15-6.69 12.65-6.47 21.74.77 6.39 3.71 10.27 8.66 14.19 10.24 6.44 22.47 6.78 34.16 4.53 7.48-2.28 13.98-6.24 20.59-10.34l2-1-.66 1.55A37 37 0 0 0 223 704l-3-1c-3.19-6.38-3.35-11.95-3-19l-1.77.99c-11.99 6.39-24.57 9.36-37.91 5.62-8.03-2.52-16.44-6.18-20.56-13.95A44 44 0 0 1 155 670l-.67-2.39c-.42-3.34.35-5.46 1.48-8.61l1.08-3.06L158 653l.91-2.62c2.94-6.42 9.45-11.31 15.6-14.49 5.33-1.91 11.04-1.85 16.65-1.91 10.02-.54 17.98-8.68 24.84-15.26 2-1.72 2-1.72 4-1.72" fill="#DEE1DF"/><path d="M223 352h1v1.86c.1 23.6 3.76 46.63 10.25 69.31 1.75 6.29 2.74 12.63 3.69 19.08 2.48 16.68 6.9 32.76 12.18 48.77.88 2.98.88 2.98.88 5.98-3-1-3-1-4.1-2.73a60 60 0 0 1-2.34-7.52 85 85 0 0 0-3.18-10A44 44 0 0 1 239 466a70 70 0 0 0-2-8.31 76 76 0 0 1-2-11.69l-1-5-.76-3.91c-2.2-11.25-4.61-22.44-7.13-33.62-4.39-19.5-4.39-19.5-4.3-24.85l.05-2.97q.47-11.83 1.14-23.65" fill="#D7D8D7"/><path d="m357 486 3 2c-.63 5.52-.63 5.52-2.56 8-1.95 2.71-1.51 4.74-1.44 8-2 2-2 2-4.88 2.5-3.12-.5-3.12-.5-5.18-3.31L344 500l-2.75-1.5c-2.25-1.5-2.25-1.5-2.94-4.38.75-3.39 1.76-5.12 4.57-7.21 4.43-1.9 9.42-1.55 14.12-.91" fill="#656563"/><path d="M796 230c3.47.73 6.95 1.34 10.44 1.94 4.01.72 7.71 1.69 11.56 3.06 6.96 2.27 6.96 2.27 10.62 1.31L831 235l3.19-1.56L837 232l2-1v2l2 1c-12.23 6.61-18.51 6.32-31.31 2.62-20.25-5.82-40.77-6.25-61.69-6.62v-1l2.35-.08 10.53-.36 3.7-.12 3.54-.12 3.27-.11c8.63-.68 15.89-.66 24.61 1.79" fill="#E5E6E9"/><path d="m290 473 .48 2.01c1.48 5.61 2.74 9.35 7.52 12.99 2.81 1.31 2.81 1.31 5 2v1c-9.25-.19-17.12-2.21-24.12-8.56C277 480 277 480 277 476c4.64-1.89 7.95-3.21 13-3" fill="#D8B66C"/><path d="M400 301c5.73 3.43 10.12 8.54 12 15-.25 3-.25 3-1 5-2.02-3.03-3.05-5.75-4.22-9.16C406 310 406 310 404 308a31 31 0 0 0-12-1c-2.81 2.5-2.81 2.5-5 5h-2l-.81 1.81A15 15 0 0 1 380 319h-3q-2.01.46-4 1c15.41-21.95 15.41-21.95 27-19" fill="#1A1A1B"/><path d="M376 460c4 5.41 4 5.41 4 8h2v2q-3.62 1.8-7.25 3.56l-2.07 1.04c-3.7 1.78-5.76 2.71-9.68 1.4-.38-3.76-.42-5.45 1.9-8.52l2.48-2.29 2.46-2.33c3.33-2.86 3.33-2.86 6.16-2.86" fill="#E6BF66"/><path d="m223 676 1 2-1.44 2.88c-3.29 7.21-2.2 15.86.44 23.12l-3-1c-3.19-6.38-3.35-11.95-3-19l-1.98 1.02-5.25 2.69c-5.81 2.7-10.27 3.53-16.65 2.91l-2.08-.17L186 690v-1l3.08-.26c13.03-1.27 23.27-4.91 33.92-12.74" fill="#D4D5D6"/><path d="M897 596h1a113 113 0 0 1 2.16 23.82l-.02 3.23q-.02 5.04-.08 10.07l-.07 10.19-.05 6.3-.02 2.86-.03 2.51C900 657 900 657 901 659h-4z" fill="#E6E7E8"/><path d="m903 244 2 2-2.73 1.68c-3.11 2.08-5.27 4.47-7.65 7.38-7.34 8.31-17.34 15.66-27.62 19.94l-3-1a33 33 0 0 1 9.38-7.06C883.7 261.06 892.8 253.57 901 245z" fill="#E7E6E7"/><path d="m929 115 3 1-2.14 1.69c-14.3 11.56-24.2 24.18-32.86 40.31h-2a46 46 0 0 1 5.94-12.62l1.18-1.84c4.31-6.47 9.45-12 14.88-17.54l2.34-2.42c6.45-6.58 6.45-6.58 9.66-8.58" fill="#E4E4E5"/><path d="M244 338v1l-2.45.08c-8.64.46-8.64.46-12.61 2.48-4.99 6.28-5.43 13.23-5.63 20.94l-.1 2.78L223 372h-2c-2.95-20.26-2.95-20.26 2.56-28.27 4.21-4.7 7.95-6.72 14.14-7.77 2.62.05 4.08.71 6.3 2.04" fill="#ECEEED"/><path d="M499 575v3c-1.36 1.27-1.36 1.27-3.25 2.52l-2.1 1.41-2.21 1.45-4.26 2.83-2.11 1.41c-8.22 5.5-8.22 5.5-10.64 8.01-1.43 1.37-1.43 1.37-3.47 1.66L465 597l1-2h2v-2l1.6-.82c18.92-9.76 18.92-9.76 26.4-15.18z" fill="#030504"/><path d="M1081 149c3 1 3 1 4.1 2.71l.96 2.1.98 2.08.96 2.11 1.03 2.05c1.46 2.93 2.7 5.94 3.97 8.95l1.02 2.34a49 49 0 0 1 2.23 8.72l.58 3.1c.18 3.02-.22 4.33-1.83 6.84h-1l-.41-3.16c-1.7-11.77-4.98-22.43-11.31-32.61C1081 152 1081 152 1081 149" fill="#E6E7E7"/><path d="M223 352h1l.04 2.12c.28 11.99.57 23.72 3.01 35.48A34 34 0 0 1 227 404h-1l-1.44-8.12-.41-2.31-.4-2.27-.36-2.06L223 387l-.55-2.84a54 54 0 0 1-.33-10.09l.15-3.91.17-4.04.16-4.1z" fill="#CCC"/><path d="m758.81 225.75 3.06-.06 2.96-.02 2.71-.03C770 226 770 226 774 229l-38 1c1-2 1-2 2.7-2.63 2.77-.45 5.48-.37 8.3-.37 2.41-2.41 8.57-1.23 11.81-1.25" fill="#F3F3F6"/><path d="M368 562c-1.62 3.95-4.31 6.75-7.25 9.75l-1.41 1.54c-2.51 2.56-3.9 3.66-7.51 4.04L349 577h-3l6.75-5.81 1.92-1.66q2.66-2.28 5.33-4.53l2.2-1.89C364 562 364 562 368 562" fill="#E3E5E4"/><path d="M1093 182h1c1.6 12.69 1.6 12.69-.62 17.56L1091 202l-2.5 2.69-2.5 2.31-1.7 1.63c-3.25 1.93-5.81 1.66-9.55 1.56l-3.83-.08-2.92-.11 1-2q2.8-.5 5.62-.81c5.55-.87 9.61-1.88 13.38-6.19 3.82-5.92 4.71-12.07 5-19" fill="#E8E8E9"/><path d="M896 694c-4.21 1.95-8.36 2.65-12.93 3.15l-2.36.26c-9.95.96-19.87.56-29.83.21l-5.83-.17q-7.02-.2-14.05-.45v-1l3.54-.06 13.31-.26 5.7-.1c11.14-.19 22.14-.66 33.21-1.99 5.94-.69 5.94-.69 9.24.41" fill="#E0E1E1"/><path d="M883 431h1l1 6.12.56 3.45c.41 3.2.59 6.21.44 9.43l-1 1q-.1 3.03-.06 6.06A425 425 0 0 0 885 463l-2 1c-.62 2.56-.62 2.56-1 5h-1c-.16-8.44.33-16.77 1-25.19l.29-3.75z" fill="#C5C5C7"/><path d="M970 151a105 105 0 0 1-8.06 5.69l-2.04 1.32c-1.9.99-1.9.99-4.9.99l-.69 1.69c-1.67 2.94-3.92 4.92-6.31 7.31l-2.19 3.31L944 174h-2c.91-5.24 4.47-8.24 8-12l1.77-1.93c5.24-5.51 10.17-9.86 18.23-9.07" fill="#EBECEB"/><path d="m289 473-1 7-3 1-2 3-3-2v-2h-3v-4l3.75-1.5 2.11-.84C285 473 285 473 289 473" fill="#DBBD65"/><path d="M242 470h2l3.5 11.81 1.01 3.4.96 3.25.89 3C251 494 251 494 251 497c-3-1-3-1-4.09-2.72a66 66 0 0 1-2.47-7.78l-.76-2.84L243 481l-.59-2.11c-.64-2.95-.47-5.88-.41-8.89" fill="#D5D6D5"/><path d="m989.13 94.81 2.66-.04c4.51 0 8.12.08 12.22 2.23v1l-32 1v-3c5.73-.98 11.3-1.19 17.12-1.19" fill="#F0F0F2"/><path d="M412 448v3l-3-1a41 41 0 0 0-16.06 2.25l-2.03.62a42 42 0 0 0-9.66 4.36C378 459 378 459 375.56 458.75L374 458c13.19-8.27 22.73-10.51 38-10" fill="#030403"/><path d="M888 358h1c2.69 13.86 1.47 27.04 0 41h-1a72 72 0 0 1-.88-15.12l.07-2.26.25-7.06.16-4.82q.18-5.87.4-11.74" fill="#EEF0EF"/><path d="M224 348h2a98 98 0 0 1 1.12 16.06l.02 2.04A80 80 0 0 1 226 379l-2-1z" fill="#161618"/><path d="M897 596h1c1.85 8.99 2.25 17.59 2.12 26.75l-.02 3.88-.1 9.37c-2.99-2.99-2.47-6.41-2.62-10.44l-.12-2.53c-.37-9.01-.35-18.01-.26-27.03" fill="#F2F4F3"/><path d="M887 342c2 1 2 1 2.61 2.79.39 2.2.59 4.31.71 6.54l.12 2.42.25 5.05.31 6.2h-2l-1 17h-1z" fill="#C9CACB"/><path d="m303.31 468.75 2.72-.02A66 66 0 0 1 323 471v2l-3.1-.5c-6.44-.8-12.92-.61-19.4-.56l-3.94.01-9.56.05v-1c5.48-2.29 10.47-2.3 16.31-2.25" fill="#010102"/><path d="M236 449h2q1.31 4.5 2.56 9l.75 2.54c1.54 5.6 1.79 9.75.69 15.46-2.33-3.49-2.5-5.87-3-10-.72-4.09-1.84-8.01-3-12-.69-2.38-.69-2.38-1-4z" fill="#E6E7E8"/><path d="m385 457-5 3h4c1 3 1 3 0 6-2.06 1.19-2.06 1.19-4 2-4-5.75-4-5.75-4-8l-3 1-1-2 3.38-.94c6.65-1.95 6.65-1.95 9.62-1.06" fill="#191918"/><path d="M365 468h1v6h3v-5l1 3h2v-2l10-2v2q-3.62 1.8-7.25 3.56l-2.07 1.04c-3.7 1.78-5.76 2.71-9.68 1.4-.12-2.88-.12-2.88 0-6z" fill="#D6BB7B"/><path d="M896 577c2.14 3.57 2.54 6.89 3 11l.39 2.39c.88 6.17.23 9.96-2.39 15.61h-1l-.48-11.91-.17-4.05-.23-5.82-.14-3.54C895 578 895 578 896 577" fill="#DADCDA"/><path d="M246 588c.64 1.82.64 1.82 1 4a60 60 0 0 1-5.59 6.08l-1.75 1.73q-2.8 2.74-5.6 5.44l-3.77 3.7q-4.62 4.55-9.29 9.05l-2-2 2.24-2.02A512 512 0 0 0 237 599.19l2.62-2.58A59 59 0 0 0 246 588" fill="#EBECEC"/><path d="M663 689c9.73-.1 19.31-.05 29 1v1a64 64 0 0 1-29-1z" fill="#E2E4E1"/><path d="M227 401h2q1.05 4.59 2.06 9.19l.61 2.62c1.73 7.94 1.73 7.94.33 12.19-4.01-7.32-5.48-15.74-5-24" fill="#E0E2E0"/><path d="M289 473h1l.48 2.01c1.48 5.61 2.74 9.35 7.52 12.99 2.81 1.31 2.81 1.31 5 2v1l-11-1c-1-3-1-3 0-6h-2v-4h-2z" fill="#BFA86D"/><path d="m364 327 3 1c-14 14-14 14-16.56 14.06L348 342l1-3h5l.69-1.75c1.64-2.82 3.74-4.25 6.31-6.25 1.81-2.25 1.81-2.25 3-4" fill="#E4E7E5"/><path d="m421 351 3 1c.95 1.96.95 1.96 1.69 4.38l.76 2.39C427 361 427 361 427 364h-2v2h-2l-1-4.69-.56-2.63A39 39 0 0 1 421 351" fill="#222522"/><path d="m783 228 1 2h-36v-1l2.35-.08 10.53-.36 3.7-.12 3.54-.12 3.27-.11c9.07-.72 9.07-.72 11.61-.21" fill="#CACBCC"/><path d="m173 687 22 3v2c-7.93.37-14.53-.23-22-3z" fill="#EAEDEB"/><path d="M515 322q2.51.43 5 1c-3.2 2.59-6.55 4.38-10.25 6.19l-3.27 1.6L504 332c.22-1.83.22-1.83 1-4 2.03-1.45 2.03-1.45 4.5-2.69 4.47-2.28 4.47-2.28 5.5-3.31" fill="#E2E2E3"/><path d="M218 617h2c-1.59 4.47-5.07 6.86-8.62 9.75l-1.86 1.54L205 632l-1-3 2.81-2.37 3.63-3.07 1.85-1.56c4.6-3.89 4.6-3.89 5.71-5" fill="#DADBDB"/><path d="M810 573c5.54 2.77 5.54 2.77 7 5-.31 3.69-.31 3.69-1 7l-3 1z" fill="#DBDFDC"/><path d="m972 98 1 2-5.69 1.44-3.2.81q-4.03.97-8.11 1.75v-3c5.08-2.93 10.24-3.14 16-3" fill="#DADBDB"/><path d="M275 528c5.54.57 10.04 2.63 15 5l-1 3c-5.24-1.44-9.63-3.82-14-7z" fill="#ECECEF"/><path d="M226 379c2.07 3.1 2.48 4.83 3.06 8.44A97 97 0 0 0 231 397l-3 1a61 61 0 0 1-2-19" fill="#0E100F"/><path d="m417 701-4 1v2h-18c6.88-3.44 14.41-3.14 22-3" fill="#DDDEDD"/><path d="M326 476q2.56 2.43 5 5v2l-9 3z" fill="#BDB280"/><path d="M882 459h1c2.09 7.08 2.28 12.89 0 20l-2 1c-.12-7.08.15-13.97 1-21" fill="#EEEEF1"/><path d="M1092 171c3.22 2.56 3.67 4.96 4.31 8.94l.55 3.15c.15 3.05-.23 4.38-1.86 6.91h-1l-1-6.12-.56-3.45a61 61 0 0 1-.44-9.43" fill="#EFEFF1"/><path d="M728 692c8.06-.13 15.97.2 24 1v1a44 44 0 0 1-10.81 1.06l-2.96-.02L736 695v-2h-8z" fill="#E5E7E5"/><path d="M228 384h2l1.56 6.75.88 3.8c.49 3.04.64 4.63-.44 7.45v-2l-4 1v-3l2-1-.44-1.83-.56-2.42-.56-2.39C228 388 228 388 228 384" fill="#1C1E1C"/><path d="M867 207c.81 1.67.81 1.67 1 4-2.09 2.58-2.09 2.58-4.94 5.25l-2.84 2.7L858 221l-3-1 2.06-2c3.51-3.49 6.71-7.25 9.94-11" fill="#EFEFF1"/><path d="m370 657 1 3 4 2-14 2c3.11-3.11 5.28-4.93 9-7" fill="#E0E2E0"/><path d="m427 359 2 1c.62 3.06.62 3.06 1 6l2.38-.62L435 365l2 2-9 2c-1.16-3.47-1.07-6.36-1-10" fill="#DEDFE0"/><path d="m863 274 3 1q1.07 2.98 2 6a97 97 0 0 0 3 5h-2l-1 2-2.5-4.75-1.41-2.67C863 278 863 278 863 274" fill="#DADADB"/><path d="m205 687-1 3c-6.33.9-11.67.9-18 0v-1l7.81-1 2.24-.29c3-.38 5.92-.71 8.95-.71" fill="#CDD0D0"/><path d="M242 470h2l3 13-5-3c-.49-2.48-.49-2.48-.31-5.19l.13-2.73z" fill="#D2D2D6"/><path d="M1093 182h1q.37 3.34.69 6.69l.38 3.76c-.08 3.85-.74 5.54-3.07 8.55h-1l.44-3.88q.83-7.55 1.56-15.12" fill="#EAEAEC"/><path d="m614 536 2 1c-3.54 4.31-7.95 5.97-13 8v-2h2v-3q2.17-1.05 4.38-2.06l2.46-1.16z" fill="#282927"/><path d="M796 230c-3.67 2.38-6.49 2.05-10.75 1.62l-3.55-.33-2.7-.29v-1c6.2-2.43 10.63-1.67 17 0" fill="#DBDCDD"/><path d="M276 477c3 3.75 3 3.75 3 6l2 1c-3 2-3 2-6 2-1.06-1.88-1.06-1.88-2-4l1-2h2z" fill="#231D14"/><path d="M374 468v2h-2v2h-2l-1 2h-3v-6c3.29-.8 4.71-1.1 8 0" fill="#EEC560"/><path d="M376 460v2h-2l-1 4h-2v2h-5l2.88-3.44 1.61-1.93c1.83-1.98 2.8-2.63 5.51-2.63" fill="#DDC471"/><path d="M157 655h2l-2 15h-2c-1.08-3.97-.86-6.43.44-10.31l.87-2.68z" fill="#EFF1EF"/><path d="M373 655c-2.56 2.98-5.38 4.52-9 6-2.38-.31-2.38-.31-4-1 4.45-3.73 7.17-5.16 13-5" fill="#191B19"/><path d="m894 562 2 1c.41 3.16.41 3.16.62 7.06l.23 3.91.15 3.03-2 1c-1.13-5.36-1.1-10.55-1-16" fill="#EEEEF1"/><path d="M290 534h4c-1.56 3.82-4.04 6.19-7 9l-1-3c1.69-3.19 1.69-3.19 4-6" fill="#DBDBDF"/><path d="M188 636q-2.87.8-5.75 1.56l-3.23.88c-2.86.53-4.34.54-7.02-.44 4.96-3.57 10.61-5.59 16-2" fill="#ECEFED"/><path d="M885 517c2.19 3.28 3 6.21 4 10h-2l-1 3c-1.63-4.79-2.21-8.06-1-13" fill="#E0DEE2"/><path d="M226 389h1q.33 2.9.62 5.81l.36 3.27C228 401 228 401 226 404c-1.19-4.61-1.33-9.27-1-14z" fill="#D3D6D3"/><path d="m911 232 1 3c-1.33 2.23-1.33 2.23-3.25 4.62l-1.89 2.42C905 244 905 244 902 245c1.49-3.28 3.39-5.93 5.62-8.75l1.92-2.42z" fill="#D9DADC"/><path d="M220 685h2c1.18 3.67 1.07 7.17 1 11l-3 1z" fill="#1B1B1E"/><path d="M368 562c-1.39 3.37-2.98 4.99-6 7v-2l-3-1c4.5-4 4.5-4 9-4" fill="#DADCD9"/><path d="M886 392h2c1.52 9.41 1.52 9.41-1 14h-1z" fill="#D2D3D3"/><path d="m234 341 10 1-1 3-9-1z" fill="#131317"/><path d="m865 213 1 4-3.38 3-1.89 1.69C859 223 859 223 857 223c1.65-4.29 4.74-6.88 8-10" fill="#27282A"/><path d="m883 442 3 2c.47 4.2-.21 7.2-2 11h-1z" fill="#F2F2F4"/><path d="m887 255 1 3c-2.31 2.06-2.31 2.06-5 4l-3-1c1.18-3.55 3.01-6 7-6" fill="#19181A"/><path d="M353 576c-.69 1.94-.69 1.94-2 4-2.43.73-4.47 1-7 1 1-3 1-3 2.81-4.19C349 576 349 576 353 576" fill="#F1F3F4"/><path d="m929 115 3 1-10 8c0-3 0-3 1.43-4.64l1.88-1.61 1.87-1.64z" fill="#DCDFDC"/><path d="M291 475c3 2 3 2 3.81 3.88C295 481 295 481 293 485l-3-9z" fill="#261D0E"/><path d="m398 460 2 1q-2.34 1.49-4.69 2.94l-2.63 1.65A22 22 0 0 1 385 468c2.38-2.67 4.87-4.15 8.06-5.75l2.66-1.36z" fill="#040905"/><path d="m736.75 228.88 2.42.62q.9.23 1.83.5v1l-13 1v-2c3.29-2.03 5.04-2.1 8.75-1.12" fill="#DFE0E0"/><path d="M445 361v2c-3.73 2.03-5.67 3-10 3 1-3 1-3 3.31-4.19C441 361 441 361 445 361" fill="#EDECEF"/><path d="M417 330c3 1 3 1 3.95 2.85l.74 2.21.76 2.23.55 1.71h-2l-1 2z" fill="#E1E3E1"/><path d="m903 244 2 2-2.75 1.75A42 42 0 0 0 895 254l-2-1a721 721 0 0 1 6.05-6.15C901 245 901 245 903 244" fill="#ECECEF"/><path d="M928 199a14 14 0 0 1 2 4c-.69 2.69-.69 2.69-2 5l-3 1a43 43 0 0 1 3-10" fill="#D5D4D6"/><path d="m445 609 1 3-4 4-4-2z" fill="#E2E4E3"/><path d="m416 335 3 1a61 61 0 0 1 1 7l-2 2z" fill="#121214"/><path d="m264 643 2 4-1.88.38C262 648 262 648 260 650l-4-1z" fill="#E5E3E4"/><path d="m171 638 3 2-9 6c0-3 0-3 1.31-4.39z" fill="#DADEDA"/><path d="m436 615 2 1a25 25 0 0 1-10 7l-2-1z" fill="#E1E2E3"/><path d="M268 522c3.99.61 6.74 2.71 10 5-1.69.69-1.69.69-4 1-2.69-1.25-2.69-1.25-5-3z" fill="#DFE0E0"/><path d="M233 403h1v9l-3 1 .44-4.44.24-2.49C232 404 232 404 233 403" fill="#111211"/><path d="m172 642 1 3-1.75.31c-2.57.79-4.19 2-6.25 3.69.78-4.52 2.18-7 7-7" fill="#060805"/><path d="M629 531c-2.39 1.89-4.07 3.02-7 4l-2-1v-2c3.43-1.62 5.38-2.34 9-1" fill="#242524"/><path d="M645 523q-1.86 1.05-3.75 2.06l-2.11 1.16c-2.5.91-3.67.66-6.14-.22 2.16-2.16 3.12-2.48 6-3.19l2.12-.54C643 522 643 522 645 523" fill="#1E1E21"/><path d="m421 351 3 1v11c-2.02-3.04-2.32-4.19-2.62-7.69l-.23-2.45z" fill="#111410"/><path d="M224 348h2c1.37 4.52.47 7.59-1 12h-1z" fill="#19191C"/><path d="m472 345 2 2h-2l-1 3-5 1c1.25-3.74 2.63-4.19 6-6" fill="#EFEFF4"/><path d="M244 338c2.94.81 2.94.81 6 2l1 3-9-3z" fill="#D4D4D6"/><path d="M401 300c1.88.12 1.88.12 4 1a31 31 0 0 1 3 5c-3 0-3 0-5.69-2.5L400 301z" fill="#E1E1E3"/><path d="m908 232 2 3-5 5-1-3c1.94-2.69 1.94-2.69 4-5" fill="#181B19"/><path d="M748 229v1h-12c2.49-4.99 7.82-2.17 12-1" fill="#EFEFF1"/><path d="M1026 158c3.21 1.38 5.05 2.92 7.25 5.62l1.58 1.92L1036 167c-3 0-3 0-4.82-1.71l-1.87-2.23-1.88-2.21C1026 159 1026 159 1026 158" fill="#EBECE8"/><path d="M998 146c7.75-.12 7.75-.12 10 1l-1 3-9-3z" fill="#EDF0EC"/><path d="m1036 106 8 5-2 2-6-3z" fill="#E6E7E7"/><path d="m220 675 3 1c-3.08 3.67-5.25 4.57-10 5l2-2h3z" fill="#0A0D09"/><path d="M244 482c3 1 3 1 4 3q.06 3 0 6c-2-1-2-1-2.63-2.85l-.49-2.21-.51-2.23z" fill="#E6E7E9"/><path d="M312 348c-1.12 1.56-1.12 1.56-3 3-3.19-.31-3.19-.31-6-1 5-3.33 5-3.33 9-2" fill="#EFEEF1"/><path d="M356 338v2c-3.23 2.15-4.28 2.2-8 2l1-3c4.75-1 4.75-1 7-1" fill="#DADADE"/><path d="M946 166h2l-4 8h-2c.6-3.34 1.74-5.46 4-8" fill="#E5E7E5"/><path d="M372 459h5l1 3h2l-1 4c-3-3.75-3-3.75-3-6l-3 1z" fill="#2F1F0F"/><path d="M236 449h2l1 8-3-1q-.57-2.99-1-6z" fill="#F1F1F1"/><path d="m465 349 1 2 2 1-7 3c.31-1.88.31-1.88 1-4z" fill="#DCDBDF"/><path d="M551 304v3c-2.71 1.35-5.01 1.07-8 1 2.43-2.66 4.24-4 8-4" fill="#F0F1F3"/><path d="m1186 698 3 2-2 4-3-2z" fill="#F4F7F4"/><path d="M846 693h12v1h-9v2h-3z" fill="#AAADAB"/><path d="M268 636h4c-1 3-1 3-3.06 4.19L267 641c0-4 0-4 1-5" fill="#1A1A1B"/><path d="M220 617c-1.39 3.37-2.98 4.99-6 7 0-3 0-3 1.88-5.19C218 617 218 617 220 617" fill="#D4D4D5"/><path d="M359 567h3c-.31 1.88-.31 1.88-1 4l-3 2c0-4 0-4 1-6" fill="#EAEDE9"/><path d="M889 540h2c1.12 1.69 1.12 1.69 2 4-.88 2.75-.88 2.75-2 5h-1z" fill="#D9D9DC"/><path d="M887 405h1c1.12 6.75 1.12 6.75 0 9h-2c-.1-6.15-.1-6.15 0-8z" fill="#EFF0F2"/><path d="m580 291 1 3-2 2c-2.62-.38-2.62-.38-5-1a36 36 0 0 1 6-4" fill="#1A191D"/><path d="m715 235-1 3c-1.88.88-1.88.88-4 1-1.75-1.44-1.75-1.44-3-3 2.89-.83 4.89-1 8-1" fill="#2B2B2F"/><path d="M870 203h3c-1.25 3.65-1.67 4.78-5 7 .88-5.88.88-5.88 2-7" fill="#DFDFE0"/><path d="m921 124 2 1c-2.85 3.01-5.24 5.28-9 7l2.94-3.44 1.65-1.93q1.16-1.36 2.41-2.63" fill="#252626"/><path d="M862 693h6v2h5v1h-8v-2z" fill="#C2C6C4"/><path d="M157 662h1l1 12-3-1z" fill="#C9CCC9"/><path d="M330 601c-1.45 3.83-3.43 5.12-7 7 3.14-7 3.14-7 7-7" fill="#0A0A0C"/><path d="M892 556h3l-1 9h-1z" fill="#E1E1E2"/><path d="m252 504 4 2v5c-2-1.81-2-1.81-4-4z" fill="#EFF1F0"/><path d="M287 482h3v2h2l-1 3-4-1z" fill="#E9C25D"/><path d="m326 476 4 4-3 3c-1-1-1-1-1.06-4.06z" fill="#CABA77"/><path d="M239 455c1.76 3.09 2 4.23 2 8h-2c-1.12-5.75-1.12-5.75 0-8" fill="#E0E0E1"/><path d="M412 317c1.94.75 1.94.75 4 2a13 13 0 0 1 1 4l-3 1z" fill="#E5E6E7"/><path d="m544.56 307.94 3.44.06c-2.39 1.89-4.07 3.03-7 4l-1-3c1-1 1-1 4.56-1.06" fill="#E1E1E5"/><path d="M1093 182h1l1 11-3 1z" fill="#CFCFD1"/><path d="M903 142h2a29 29 0 0 1-5 9c.5-3.73.87-5.81 3-9" fill="#DEDCDE"/><path d="M972 96c2.94.38 2.94.38 6 1l1 2h-7z" fill="#EAEAEB"/></svg>