<svg style="background:transparent" version="1.1" xmlns="http://www.w3.org/2000/svg" viewBox="0 0 1248 704"><path d="M993.5 89.88h2.21c14.27.17 27.91 3.1 41.29 8.12l2.28.84c3.46 1.47 6.74 3.25 10.03 5.03a219 219 0 0 0 12.5 6.38c3.19 1.75 3.19 1.75 4.14 3.8L1067 116q1.99.56 4 1c7.95 5.42 14.37 12.34 20.68 19.51q1.95 2.19 3.94 4.3l2.44 2.63 2.16 2.3A23 23 0 0 1 1104 153l1.5 3.32c2.75 6.77 4.83 13.03 2.25 20.13-3.26 6.64-6.46 12.14-13.52 14.99a30 30 0 0 1-17.54-.62L1074 189l-1.91-1.25A85 85 0 0 1 1067 184v-2q-.85-.37-1.73-.72c-2.72-1.53-4.49-3.34-6.65-5.6l-2.54-2.62q-2.6-2.7-5.2-5.44A81 81 0 0 0 1026 150l-3.31-1.56A72 72 0 0 0 1010 145l-2.45-.51c-9.84-1.87-19.1-2.06-28.55 1.5l-2.69.76c-18.62 7.03-28.97 19.33-37.14 36.97a244 244 0 0 0-7 17.56A141 141 0 0 1 917 231h-2l-.76 1.65a69 69 0 0 1-5.12 7.97q-1 1.44-2.05 2.91c-2.04 2.44-3.32 3.13-6.07 4.47q-1.03 1.98-2 4c-7.78 8.5-17.21 14.16-27 20-.5.32-.5.32-3 2a129 129 0 0 0 6 13l3.12 6.25 1.51 3.01L881 299l1.09 2.06a45 45 0 0 1 2.41 6.88c.71 2.5 1.41 4.87 2.46 7.25 1.55 4.2 2.29 8.54 3.1 12.94l.54 2.85c1.58 8.67 2.61 17.12 2.34 25.94.06 2.07.06 2.07.55 4.47.56 2.88.64 5.55.63 8.49l.01 2.99c-.13 3.13-.13 3.13-.61 6.24-.73 5.44-.8 10.9-.96 16.38-.27 8.4-.8 16.5-2.09 24.8-.7 5.5-.91 11.02-1.13 16.57-.15 3.91-.39 7.76-.87 11.64-.55 4.69-.55 9.3-.47 14q.07 4.23 0 8.5l-1 1q-.14 3.13-.13 6.26l-.01 3.9.01 2.03-.01 6.12.01 3.9v3.58c.12 2.88.5 5.4 1.13 8.2l1 8c.43 3.55.95 6.83 1.94 10.25 1.41 5 2.32 10.05 3.28 15.13.78 3.63.78 3.63 1.78 6.38 1.49 4.83 1.96 9.74 2.56 14.75l.76 6.1.35 2.88q.38 2.88.89 5.73c.57 3.6.76 7.17.94 10.78l.22 4.13.12 2.32q.17 2.67.41 5.33c1.08 12.36.86 24.72.81 37.1l-.01 7.04L903 659a62 62 0 0 0 9 3.08c24.06 6.15 24.06 6.15 30 14.91.21 3.25-.22 5.02-2.25 7.59-7.54 7.2-18.54 9.07-28.44 11.04-.52.12-.52.12-3.17.64-21.25 4.23-42.59 5.07-64.2 5.17q-1.83.03-3.71.03c-44.05.12-88.11-2.98-132.08-5.44-21.46-1.18-42.88-2.17-64.38-2.23l-5.84-.01q-9.28-.03-18.55-.02l-3.21-.01c-32.46-.01-64.72.48-97.09 3.01q-4.88.38-9.76.73-16.12 1.15-32.23 2.44c-.46.05-.46.05-2.79.24-5.03.42-10.03.9-15.04 1.58-23.45 3.03-46.95 2.7-70.56 2.65h-48.77q-17.66-.02-35.3 0h-71.76l-8.47-.01-2.52.01c-2.28-.02-2.28-.02-5.88-.4l-2-3-1.56.93c-3.11 1.37-6.09 1.69-9.44 2.07l-1-4c3-2 3-2 7-2 2.19-.93 2.19-.93 4-3a53 53 0 0 0 1-9q-1.31.6-2.67 1.25l-3.52 1.63-3.48 1.62L201 692l-2.34 1.16c-11.46 3.6-24.17 1.14-34.89-3.45-2.94-1.82-3.43-2.68-4.77-5.72q-.98-.45-1.99-.95c-3.95-2.04-4.69-7.02-6.01-11.04-2.1-6.85.8-12.91 4-19 4.65-8.63 10.41-12.76 19.44-16.37 3.16-.55 5.69-.62 8.87-.5 8.9.15 15.23-3.31 21.69-9.13h2l.62-1.75c1.38-2.25 1.38-2.25 4.11-4 3.61-2.49 6.18-5.2 9.02-8.5 1.71-1.98 3.44-3.87 5.25-5.75h2l.69-1.68c1.68-2.98 3.88-4.92 6.31-7.33q3.27-3.45 6.5-7 5.62-6.11 11.5-12 1.83-2 3.62-4.06l1.73-1.97c1.63-1.94 3.15-3.92 4.65-5.97q1.92-2.55 4-5h2l.75-1.62c4.11-7.8 4.11-7.8 7.25-9.37q1.54-2.47 3-5l2.25-3.07c1.75-2.93 1.75-2.93 1.59-4.99-1.09-2.5-2.04-2.87-4.53-3.95a64 64 0 0 1-10.31-6q-1.6-.96-3.25-2c-2.77-2-3.36-3.01-4.75-6l-2-1c-2.55-1.26-2.76-2.48-4-5a84 84 0 0 0-2.88-3.12c-3.66-4.19-5.34-8.66-7.12-13.87l-1.06-3.06A284 284 0 0 1 237 470l-.5-1.96a209 209 0 0 1-4.5-22.05l-1-2q-.37-3.3-.69-6.62c-1.03-9.45-3.46-18.51-5.87-27.7a193 193 0 0 1-3.01-13.6C221 394 221 394 220 391q-.3-2-.5-4l-.25-2.4q-.52-5.46-1-10.9-.35-3.7-.81-7.38c-.97-8.76-1.44-18 4.31-25.25 4.17-4.34 8.25-5.14 14.13-5.44 5.24.1 8.67 1.78 13.12 4.37 3.82 1.74 7.63 3.23 11.62 4.5A38 38 0 0 1 270 349a27 27 0 0 0 9.06 3.06c2.77.5 5.26 1.05 7.94 1.94 1.95-.7 1.95-.7 4.12-1.81a49 49 0 0 1 11.88-3.76 36 36 0 0 0 7-2.44 47 47 0 0 1 12.02-2.72c1.98-.27 1.98-.27 5.17-1.2A80 80 0 0 1 337.5 340q1.68-.27 3.43-.53 3.37-.52 6.76-.98c7.72-3.49 13.22-11.02 18.07-17.8A33 33 0 0 1 371 315h2l.14-1.64c1.27-3.49 3.84-5.5 6.55-7.92l1.57-1.45c3.86-3.5 7.77-6.67 13.12-7.23 5.48.63 8.06 1.77 11.62 6.25l2 2.13c6.31 9.06 10 20.68 12.94 31.25 1.06 3.63 1.06 3.63 2.44 7.06 2.56 6.62 3.97 13.67 5.62 20.56 3.78 0 5.11-.29 8.38-1.81l2.39-1.12q2.62-1.25 5.23-2.57c3.2-1.6 6.46-3.02 9.75-4.44A78 78 0 0 0 462 350a306 306 0 0 1 16.31-8.62 114 114 0 0 0 15.61-9.04c2.84-1.83 5.84-3.1 8.95-4.41a70 70 0 0 0 12.01-6.94 64 64 0 0 1 9.74-4.92c3.23-1.45 6.27-3.17 9.34-4.93q2.97-1.64 6.04-3.14c4.49-2.2 8.89-4.48 13.21-7 2.55-1.43 5.17-2.7 7.8-3.98a71 71 0 0 0 4.26-2.38c3.37-2.02 6.82-3.87 10.29-5.7l2-1.06q4.68-2.51 9.44-4.88l2.37-1.19 10.52-5.24q4.13-2.1 8.21-4.32A280 280 0 0 1 638 258l2.75-1.37A209 209 0 0 1 658 249q4.12-1.62 8.19-3.37c7.06-3.03 14.08-5.84 21.49-7.91C690 237 690 237 692.46 236c8.12-3.22 17.05-5.12 25.66-6.5 2.88-.5 2.88-.5 6-1.5 4.21-1.26 8.46-1.47 12.82-1.75q3.2-.27 6.39-.74c10.04-1.4 20.33-1.98 30.41-.76 2.26.25 2.26.25 6.14.25 2.93 0 5.26.4 8.12 1l4.75.38c4.36.4 8.07 1.44 12.16 2.94 2.09.68 2.09.68 5.65 1.18 2.85.41 4.82.96 7.44 2 5.64 2.18 9.84 3.25 15.56.81A77 77 0 0 0 844 227l2.62-1.56A72 72 0 0 0 853 221l2-1.43a47 47 0 0 0 11.62-11.88l1.38-1.7h2l.84-2.25a32 32 0 0 1 3.78-6.62c5.85-8.6 11.32-17.9 13.81-28.06A29 29 0 0 1 891 163l1.38-2.75L894 157l.84-1.78a96 96 0 0 1 8.72-14.47l1.59-2.24C921.29 116.2 943.25 97.87 971 93q5.13-.8 10.28-1.53c9.42-1.61 9.42-1.61 12.22-1.6" fill="#111311"/><path d="M993.5 89.88h2.21c14.27.17 27.91 3.1 41.29 8.12l2.28.84c3.46 1.47 6.74 3.25 10.03 5.03a219 219 0 0 0 12.5 6.38c3.19 1.75 3.19 1.75 4.14 3.8L1067 116q1.99.56 4 1c7.95 5.42 14.37 12.34 20.68 19.51q1.95 2.19 3.94 4.3l2.44 2.63 2.16 2.3A23 23 0 0 1 1104 153l1.5 3.32c2.75 6.77 4.83 13.03 2.25 20.13-3.26 6.64-6.46 12.14-13.52 14.99a30 30 0 0 1-17.54-.62L1074 189l-1.91-1.25A85 85 0 0 1 1067 184v-2q-.85-.37-1.73-.72c-2.72-1.53-4.49-3.34-6.65-5.6l-2.54-2.62q-2.6-2.7-5.2-5.44A81 81 0 0 0 1026 150l-3.31-1.56A72 72 0 0 0 1010 145l-2.45-.51c-9.84-1.87-19.1-2.06-28.55 1.5l-2.69.76c-18.62 7.03-28.97 19.33-37.14 36.97a244 244 0 0 0-7 17.56A141 141 0 0 1 917 231h-2l-.76 1.65a69 69 0 0 1-5.12 7.97q-1 1.44-2.05 2.91c-2.04 2.44-3.32 3.13-6.07 4.47q-1.03 1.98-2 4c-7.78 8.5-17.21 14.16-27 20-.5.32-.5.32-3 2a129 129 0 0 0 6 13l3.12 6.25 1.51 3.01L881 299l1.09 2.06a45 45 0 0 1 2.41 6.88c.71 2.5 1.41 4.87 2.46 7.25 1.55 4.2 2.29 8.54 3.1 12.94l.54 2.85c1.58 8.67 2.61 17.12 2.34 25.94.06 2.07.06 2.07.55 4.47.56 2.88.64 5.55.63 8.49l.01 2.99c-.13 3.13-.13 3.13-.61 6.24-.73 5.44-.8 10.9-.96 16.38-.27 8.4-.8 16.5-2.09 24.8-.7 5.5-.91 11.02-1.13 16.57-.15 3.91-.39 7.76-.87 11.64-.55 4.69-.55 9.3-.47 14q.07 4.23 0 8.5l-1 1q-.14 3.13-.13 6.26l-.01 3.9.01 2.03-.01 6.12.01 3.9v3.58c.12 2.88.5 5.4 1.13 8.2l1 8c.43 3.55.95 6.83 1.94 10.25 1.41 5 2.32 10.05 3.28 15.13.78 3.63.78 3.63 1.78 6.38 1.49 4.83 1.96 9.74 2.56 14.75l.76 6.1.35 2.88q.38 2.88.89 5.73c.57 3.6.76 7.17.94 10.78l.22 4.13.12 2.32q.17 2.67.41 5.33c1.08 12.36.86 24.72.81 37.1l-.01 7.04L903 659a62 62 0 0 0 9 3.08c24.06 6.15 24.06 6.15 30 14.91.21 3.25-.22 5.02-2.25 7.59-7.54 7.2-18.54 9.07-28.44 11.04-.52.12-.52.12-3.17.64-21.25 4.23-42.59 5.07-64.2 5.17q-1.83.03-3.71.03c-44.05.12-88.11-2.98-132.08-5.44-21.46-1.18-42.88-2.17-64.38-2.23l-5.84-.01q-9.28-.03-18.55-.02l-3.21-.01c-32.46-.01-64.72.48-97.09 3.01q-4.88.38-9.76.73c-38.39 2.77-38.39 2.77-50.67 4.25-18 2.15-35.75 2.67-53.86 2.56l-11.54-.01q-10.84-.02-21.69-.07-12.38-.06-24.77-.07-25.4-.05-50.79-.15a38 38 0 0 1 8.39-6.75l2.61-1.51 2.81-1.62q3-1.73 5.98-3.49l3.11-1.8q7.4-4.39 14.72-8.9 10.66-6.5 21.38-12.93a2080 2080 0 0 0 47.57-29.2q5.33-3.36 10.68-6.68a677 677 0 0 0 29.67-19.53l2.55-1.77 4.92-3.45c6.22-4.3 11.82-7.24 19.36-8.55 30.41-6.26 60.08-17.99 88.25-30.83q1.5-.66 3.06-1.37c28.69-12.95 57.08-26.87 84.54-42.27q3.82-2.15 7.67-4.24l2.64-1.45q2.54-1.37 5.08-2.77a366 366 0 0 0 11.26-6.4l1.97-1.14 5.13-3.09C682 503 682 503 685 504a16 16 0 0 1 1.36 3.88l.68 2.45.71 2.67c9.14 32 26.67 60.7 52.26 82.29 9.72 8.37 19.9 18.48 21.99 31.7q.2 6.51 0 13l-2.53.46c-8.38 1.66-15.58 3.7-21.09 10.57-4.2 6.4-5.19 12.38-4.38 19.98 1.08 3.63 2.66 6.05 5.77 8.25 9.01 4.85 18.23 5.13 28.22 5.13q3.26 0 6.53.07c10.04.08 20.74-.48 29.07-6.8 17.17-18.8 15.1-50.25 14.41-73.65-.58-10.23-3.36-20.14-6-30 5.33 2.43 9.54 6.26 14 10l3.07 2.56c9.83 8.4 15.91 17.74 18.93 30.44l1.07 3.58c1.32 5.27 1.15 10.51 1.05 15.91l-.02 3.09-.1 7.41-2.49.24c-8.64 1.01-16.44 2.77-22.17 9.8A57 57 0 0 0 822 663l-1.1 1.86c-2.22 5.28-1.83 12.18-.13 17.6 3.38 6.25 9.37 9 15.95 11.08 5.02 1 10.28.64 15.39.64q3.18.01 6.36.05c11.36.04 21.54-.9 30.34-8.74q1.08-1.21 2.19-2.5c.27-.28.27-.28 1.62-1.8 8.83-14.04 6.7-34.27 6.64-50.12q-.01-5.22.01-10.42c.02-20.57-.87-41.17-4.46-61.47l-.63-3.7a393 393 0 0 0-6.86-30.73c-3.5-13.62-3.52-26.9-3.51-40.87V481c.03-20.58 1.02-41 2.99-61.5a536 536 0 0 0 2.51-50.68l.01-2.8c.07-30.12-5.39-57.24-20.53-83.55-3.66-6.5-3.66-6.5-2.79-10.48 1.55-1.5 1.55-1.5 3.75-2.8l2.49-1.54L875 266a136 136 0 0 0 22-17l2.2-1.97c16.39-15.28 25.78-35.85 33.86-56.31 7.95-20.1 19.28-37.6 39.58-46.93 15.82-6.66 34.68-5.28 50.43 1.03 11.72 5.05 20.77 11.94 29.7 20.99a688 688 0 0 1 7.8 8c6.91 7.13 14.76 14.22 25.05 14.56 6.08-.06 9.93-1.2 14.38-5.37 4.7-5.4 4.79-11 4.56-18.03-1.56-14.57-14.46-28.3-25.38-37.26L1077 126l-2.99-2.4c-29.36-23.21-61.75-32.26-98.97-28.28-9.09 1.46-17.77 4.68-26.04 8.68l-2.76 1.34c-17.4 8.97-30.92 22.2-41.24 38.66l-1.98 3.09c-5.08 8.35-8.69 17.11-12.38 26.16-11.27 27.5-28.78 49.19-55.45 62.94-8.52 3.53-16.32.63-24.87-1.6-27.96-7.25-58.96-8.5-87.32-2.6q-1.4.3-2.83.57c-25.79 5.32-50.28 14.5-74.17 25.44l-6.54 2.94a515 515 0 0 0-31.34 15.28 606 606 0 0 1-19.18 9.77 480 480 0 0 0-23.01 12.15 607 607 0 0 1-19.18 10.24 1007 1007 0 0 0-23.19 12.3 1975 1975 0 0 1-30.79 16.5 1525 1525 0 0 0-26.71 14.38 419 419 0 0 1-20.31 10.5l-2.24 1.08A102 102 0 0 1 427 369l-.71-2.77a525 525 0 0 0-8.95-29.87q-.71-2.15-1.39-4.3c-8.21-25.6-8.21-25.6-17.95-31.06-4.39-.87-6.47-.87-10.35 1.34-7.33 5.5-12.95 12.56-18.65 19.66l-4.69 5.81q-.95 1.22-1.95 2.45c-.39.47-.39.47-2.36 2.74l-1.58 2c-5.7 6.57-11.27 7.68-19.67 8.81q-3.48.53-6.95 1.08-1.7.28-3.46.54c-10.8 1.84-21.08 5.34-31.42 8.88-8.99 2.96-14.86 3.63-23.67-.31l-2.19-.94-4.63-2a989 989 0 0 0-10.11-4.31l-4.9-2.09c-7.43-3.16-14.2-6-22.42-4.67a15.7 15.7 0 0 0-7 7c-1.89 25.7 2.36 50.26 9 75a188 188 0 0 1 3.97 19.51c2.47 17.08 7.22 33.48 12.53 49.88l1.08 3.4A60 60 0 0 0 258 513l1.84 2.54c7.33 8.7 19.75 17.79 31.16 19.46-.59 3.43-1.76 5.16-4.12 7.68a125 125 0 0 0-7.13 8.5c-3.41 4.45-7 8.7-10.64 12.96a302 302 0 0 0-7.99 9.8 210 210 0 0 1-12.29 13.88 277 277 0 0 0-8.15 9.01 272 272 0 0 1-12.93 13.6l-2.54 2.55A183 183 0 0 1 207 628.99l-2.45 1.99c-6.63 5.32-11.72 8.38-20.43 8.51-8.45.37-15.06 1.59-21.44 7.52-5.78 6.84-8.65 14.3-8.13 23.24 1.08 6.63 4.11 11.4 9.45 15.5 9.87 6.17 24.19 5.8 35.32 3.6 6.21-2.1 11.72-5.58 17.25-9.06L219 679l2 1q-.7 1.1-1.44 2.2c-2.78 5-3.03 10.14-2.56 15.8 1 3.5 1 3.5 2 6-1.94-.37-1.94-.37-4-1l-1-2-1.56.94c-3.11 1.37-6.09 1.69-9.44 2.07l-1-4c3-2 3-2 7-2 2.19-.93 2.19-.93 4-3a53 53 0 0 0 1-9q-1.31.6-2.67 1.25l-3.52 1.63-3.48 1.62L201 692l-2.34 1.16c-11.46 3.6-24.17 1.14-34.89-3.45-2.94-1.82-3.43-2.68-4.77-5.72q-.98-.45-1.99-.95c-3.95-2.04-4.69-7.02-6.01-11.04-2.1-6.85.8-12.91 4-19 4.65-8.63 10.41-12.76 19.44-16.37 3.16-.55 5.69-.62 8.87-.5 8.9.15 15.23-3.31 21.69-9.13h2l.62-1.75c1.38-2.25 1.38-2.25 4.11-4 3.61-2.49 6.18-5.2 9.02-8.5 1.71-1.98 3.44-3.87 5.25-5.75h2l.69-1.68c1.68-2.98 3.88-4.92 6.31-7.33q3.27-3.45 6.5-7 5.62-6.11 11.5-12 1.83-2 3.62-4.06l1.73-1.97c1.63-1.94 3.15-3.92 4.65-5.97q1.92-2.55 4-5h2l.75-1.62c4.11-7.8 4.11-7.8 7.25-9.37q1.54-2.47 3-5l2.25-3.07c1.75-2.93 1.75-2.93 1.59-4.99-1.09-2.5-2.04-2.87-4.53-3.95a64 64 0 0 1-10.31-6q-1.6-.96-3.25-2c-2.77-2-3.36-3.01-4.75-6l-2-1c-2.55-1.26-2.76-2.48-4-5a84 84 0 0 0-2.88-3.12c-3.66-4.19-5.34-8.66-7.12-13.87l-1.06-3.06A284 284 0 0 1 237 470l-.5-1.96a209 209 0 0 1-4.5-22.05l-1-2q-.37-3.3-.69-6.62c-1.03-9.45-3.46-18.51-5.87-27.7a193 193 0 0 1-3.01-13.6C221 394 221 394 220 391q-.3-2-.5-4l-.25-2.4q-.52-5.46-1-10.9-.35-3.7-.81-7.38c-.97-8.76-1.44-18 4.31-25.25 4.17-4.34 8.25-5.14 14.13-5.44 5.24.1 8.67 1.78 13.12 4.37 3.82 1.74 7.63 3.23 11.62 4.5A38 38 0 0 1 270 349a27 27 0 0 0 9.06 3.06c2.77.5 5.26 1.05 7.94 1.94 1.95-.7 1.95-.7 4.12-1.81a49 49 0 0 1 11.88-3.76 36 36 0 0 0 7-2.44 47 47 0 0 1 12.02-2.72c1.98-.27 1.98-.27 5.17-1.2A80 80 0 0 1 337.5 340q1.68-.27 3.43-.53 3.37-.52 6.76-.98c7.72-3.49 13.22-11.02 18.07-17.8A33 33 0 0 1 371 315h2l.14-1.64c1.27-3.49 3.84-5.5 6.55-7.92l1.57-1.45c3.86-3.5 7.77-6.67 13.12-7.23 5.48.63 8.06 1.77 11.62 6.25l2 2.13c6.31 9.06 10 20.68 12.94 31.25 1.06 3.63 1.06 3.63 2.44 7.06 2.56 6.62 3.97 13.67 5.62 20.56 3.78 0 5.11-.29 8.38-1.81l2.39-1.12q2.62-1.25 5.23-2.57c3.2-1.6 6.46-3.02 9.75-4.44A78 78 0 0 0 462 350a306 306 0 0 1 16.31-8.62 114 114 0 0 0 15.61-9.04c2.84-1.83 5.84-3.1 8.95-4.41a70 70 0 0 0 12.01-6.94 64 64 0 0 1 9.74-4.92c3.23-1.45 6.27-3.17 9.34-4.93q2.97-1.64 6.04-3.14c4.49-2.2 8.89-4.48 13.21-7 2.55-1.43 5.17-2.7 7.8-3.98a71 71 0 0 0 4.26-2.38c3.37-2.02 6.82-3.87 10.29-5.7l2-1.06q4.68-2.51 9.44-4.88l2.37-1.19 10.52-5.24q4.13-2.1 8.21-4.32A280 280 0 0 1 638 258l2.75-1.37A209 209 0 0 1 658 249q4.12-1.62 8.19-3.37c7.06-3.03 14.08-5.84 21.49-7.91C690 237 690 237 692.46 236c8.12-3.22 17.05-5.12 25.66-6.5 2.88-.5 2.88-.5 6-1.5 4.21-1.26 8.46-1.47 12.82-1.75q3.2-.27 6.39-.74c10.04-1.4 20.33-1.98 30.41-.76 2.26.25 2.26.25 6.14.25 2.93 0 5.26.4 8.12 1l4.75.38c4.36.4 8.07 1.44 12.16 2.94 2.09.68 2.09.68 5.65 1.18 2.85.41 4.82.96 7.44 2 5.64 2.18 9.84 3.25 15.56.81A77 77 0 0 0 844 227l2.62-1.56A72 72 0 0 0 853 221l2-1.43a47 47 0 0 0 11.62-11.88l1.38-1.7h2l.84-2.25a32 32 0 0 1 3.78-6.62c5.85-8.6 11.32-17.9 13.81-28.06A29 29 0 0 1 891 163l1.38-2.75L894 157l.84-1.78a96 96 0 0 1 8.72-14.47l1.59-2.24C921.29 116.2 943.25 97.87 971 93q5.13-.8 10.28-1.53c9.42-1.61 9.42-1.61 12.22-1.6" fill="#B8BAB8"/><path d="M685 504a16 16 0 0 1 1.36 3.88l.68 2.45.71 2.67c9.14 32 26.67 60.71 52.26 82.29 9.72 8.37 19.9 18.47 21.99 31.71q.2 6.5 0 13a597 597 0 0 0-9.47 1.95C749 643 749 643 745.92 645.07c-4.66 2.7-8.91 2.24-14.14 1.88l-6.55-.31-3.57-.19q-9.98-.5-19.95-.86l-2.24-.08c-22-.79-44.01-.76-66.02-.76l-9.8-.01c-29.17-.07-58.22.62-87.35 2.14l-9.75.48q-8.53.44-17.05.95l-2.97.18c-21.8 1.34-43.46 3.67-65.14 6.23l-10.59 1.2-6.86.77-2.9.32c-5.75.67-11.47 1.5-17.19 2.39q-7.04 1.08-14.09 2.11l-2.72.4-8.35 1.21-5.75.84L359 666c2.34-2.44 4.49-4.49 7.44-6.16l1.99-1.14 2.13-1.2a688 688 0 0 0 26.19-16.08q4.04-2.55 8.1-5.06a907 907 0 0 0 45.95-30.24c6.05-4.22 11.59-7.01 18.95-8.31 30.41-6.25 60.08-17.98 88.25-30.81l3.06-1.38c28.69-12.94 57.08-26.88 84.54-42.28a941 941 0 0 1 7.67-4.23l2.64-1.44 5.08-2.78a388 388 0 0 0 13.23-7.55q2.57-1.52 5.13-3.07C682 503 682 503 685 504" fill="#ECEEEC"/><path d="M993.5 89.88h2.21c14.27.17 27.91 3.1 41.29 8.12l2.28.84c3.46 1.47 6.74 3.25 10.03 5.03a219 219 0 0 0 12.5 6.38c3.19 1.75 3.19 1.75 4.14 3.8L1067 116q1.99.56 4 1c7.95 5.42 14.37 12.34 20.68 19.51q1.95 2.19 3.94 4.3l2.44 2.63 2.16 2.3A23 23 0 0 1 1104 153l1.5 3.32c2.75 6.77 4.83 13.03 2.25 20.13-3.26 6.64-6.46 12.14-13.52 14.99a30 30 0 0 1-17.54-.62L1074 189l-1.91-1.25A85 85 0 0 1 1067 184v-2q-.85-.37-1.73-.72c-2.72-1.53-4.49-3.34-6.65-5.6l-2.54-2.62q-2.6-2.7-5.2-5.44A81 81 0 0 0 1026 150l-3.31-1.56A72 72 0 0 0 1010 145l-2.45-.51c-9.84-1.87-19.1-2.06-28.55 1.5l-2.69.76c-18.62 7.03-28.97 19.33-37.14 36.97a244 244 0 0 0-7 17.56A141 141 0 0 1 917 231h-2l-.76 1.65a69 69 0 0 1-5.12 7.97q-1 1.44-2.05 2.91c-2.04 2.44-3.32 3.13-6.07 4.47q-1.03 1.98-2 4c-7.78 8.5-17.21 14.16-27 20-.5.32-.5.32-3 2a129 129 0 0 0 6 13l3.12 6.25 1.51 3.01L881 299l1.09 2.06a45 45 0 0 1 2.41 6.88c.71 2.5 1.41 4.87 2.46 7.25 1.55 4.2 2.29 8.54 3.1 12.94l.54 2.85c1.58 8.67 2.61 17.12 2.34 25.94.06 2.07.06 2.07.55 4.47.56 2.88.64 5.55.63 8.49l.01 2.99c-.13 3.13-.13 3.13-.61 6.24-.73 5.44-.8 10.9-.96 16.38-.27 8.4-.8 16.5-2.09 24.8-.7 5.5-.91 11.02-1.13 16.57-.15 3.91-.39 7.76-.87 11.64-.55 4.69-.55 9.3-.47 14q.07 4.23 0 8.5l-1 1q-.14 3.13-.13 6.26l-.01 3.9.01 2.03-.01 6.12.01 3.9v3.58c.12 2.88.5 5.4 1.13 8.2l1 8c.43 3.55.95 6.83 1.94 10.25 1.41 5 2.32 10.05 3.28 15.13.78 3.63.78 3.63 1.78 6.38 1.49 4.83 1.96 9.74 2.56 14.75l.76 6.1.35 2.88q.38 2.88.89 5.73c.57 3.6.76 7.17.94 10.78l.22 4.13.12 2.32q.17 2.67.41 5.33c1.08 12.36.86 24.72.81 37.1l-.01 7.04L903 659a62 62 0 0 0 9 3.08c24.06 6.15 24.06 6.15 30 14.91.21 3.25-.22 5.02-2.25 7.59-7.54 7.2-18.54 9.07-28.44 11.04-.52.12-.52.12-3.17.64-21.25 4.23-42.59 5.07-64.2 5.17q-1.83.03-3.71.03c-44.05.12-88.11-2.98-132.08-5.44-21.46-1.18-42.88-2.17-64.38-2.23l-5.84-.01q-9.28-.03-18.55-.02l-3.21-.01c-32.46-.01-64.72.48-97.09 3.01q-4.88.38-9.76.73a1628 1628 0 0 0-64.28 5.64A186 186 0 0 1 418 704v-1c65.15-7.53 65.15-7.53 97.38-8.83 4.34-.2 8.66-.54 12.99-.93 27.63-2.5 55.26-2.4 82.98-2.37h16.45c44.16-.04 44.16-.04 66.2 1.13l4.03.2q21.45 1.13 42.89 2.46c32.21 2 64.36 3.74 96.64 3.72h6.08c25.98 0 51.32-1.41 76.55-7.88l2.39-.62c6.24-1.65 12.35-3.56 16.42-8.88.1-2.63.1-2.63 0-5-11.42-7.62-25.64-11.38-39-14l-.02-2.17q-.12-10.38-.27-20.74l-.13-10.63c-.26-23.18-.72-46.4-4.77-69.28l-.63-3.7a393 393 0 0 0-6.86-30.73c-3.5-13.62-3.52-26.9-3.51-40.87V481c.03-20.58 1.02-41 2.99-61.5a536 536 0 0 0 2.51-50.68l.01-2.8c.07-30.12-5.39-57.24-20.53-83.55-3.66-6.5-3.66-6.5-2.79-10.48 1.55-1.5 1.55-1.5 3.75-2.8l2.49-1.54L875 266a136 136 0 0 0 22-17l2.2-1.97c16.39-15.28 25.78-35.85 33.86-56.31 7.95-20.1 19.28-37.6 39.58-46.93 15.82-6.66 34.68-5.28 50.43 1.03 11.72 5.05 20.77 11.94 29.7 20.99a688 688 0 0 1 7.8 8c6.91 7.13 14.76 14.22 25.05 14.56 6.08-.06 9.93-1.2 14.38-5.37 4.7-5.4 4.79-11 4.56-18.03-1.56-14.57-14.46-28.3-25.38-37.26L1077 126l-2.99-2.4c-29.36-23.21-61.75-32.26-98.97-28.28-9.09 1.46-17.77 4.68-26.04 8.68l-2.76 1.34c-17.4 8.97-30.92 22.2-41.24 38.66l-1.98 3.09c-5.08 8.35-8.69 17.11-12.38 26.16-11.27 27.5-28.78 49.19-55.45 62.94-8.52 3.53-16.32.63-24.87-1.6-27.96-7.25-58.96-8.5-87.32-2.6q-1.4.3-2.83.57c-25.79 5.32-50.28 14.5-74.17 25.44l-6.54 2.94a515 515 0 0 0-31.34 15.28 606 606 0 0 1-19.18 9.77 480 480 0 0 0-23.01 12.15 607 607 0 0 1-19.18 10.24 1007 1007 0 0 0-23.19 12.3 1975 1975 0 0 1-30.79 16.5 1525 1525 0 0 0-26.71 14.38 419 419 0 0 1-20.31 10.5l-2.24 1.08A102 102 0 0 1 427 369l-.71-2.77a525 525 0 0 0-8.95-29.87q-.71-2.15-1.39-4.3c-8.21-25.6-8.21-25.6-17.95-31.06-4.39-.87-6.47-.87-10.35 1.34-7.33 5.5-12.95 12.56-18.65 19.66l-4.69 5.81q-.95 1.22-1.95 2.45c-.39.47-.39.47-2.36 2.74l-1.58 2c-5.7 6.57-11.27 7.68-19.67 8.81q-3.48.53-6.95 1.08-1.7.28-3.46.54c-10.8 1.84-21.08 5.34-31.42 8.88-8.99 2.96-14.86 3.63-23.67-.31l-2.19-.94-4.63-2a989 989 0 0 0-10.11-4.31l-4.9-2.09c-7.43-3.16-14.2-6-22.42-4.67a15.7 15.7 0 0 0-7 7c-1.89 25.7 2.36 50.26 9 75a188 188 0 0 1 3.97 19.51c2.47 17.08 7.22 33.48 12.53 49.88l1.08 3.4A60 60 0 0 0 258 513l1.84 2.54c7.33 8.7 19.75 17.79 31.16 19.46-.59 3.43-1.76 5.16-4.12 7.68a125 125 0 0 0-7.13 8.5c-3.41 4.45-7 8.7-10.64 12.96a302 302 0 0 0-7.99 9.8 210 210 0 0 1-12.29 13.88 277 277 0 0 0-8.15 9.01 272 272 0 0 1-12.93 13.6l-2.54 2.55A183 183 0 0 1 207 628.99l-2.45 1.99c-6.63 5.32-11.72 8.38-20.43 8.51-8.45.37-15.06 1.59-21.44 7.52-5.78 6.84-8.65 14.3-8.13 23.24 1.08 6.63 4.11 11.4 9.45 15.5 9.87 6.17 24.19 5.8 35.32 3.6 6.21-2.1 11.72-5.58 17.25-9.06L219 679l2 1q-.7 1.1-1.44 2.2c-2.78 5-3.03 10.14-2.56 15.8 1 3.5 1 3.5 2 6-1.94-.37-1.94-.37-4-1l-1-2-1.56.94c-3.11 1.37-6.09 1.69-9.44 2.07l-1-4c3-2 3-2 7-2 2.19-.93 2.19-.93 4-3a53 53 0 0 0 1-9q-1.31.6-2.67 1.25l-3.52 1.63-3.48 1.62L201 692l-2.34 1.16c-11.46 3.6-24.17 1.14-34.89-3.45-2.94-1.82-3.43-2.68-4.77-5.72q-.98-.45-1.99-.95c-3.95-2.04-4.69-7.02-6.01-11.04-2.1-6.85.8-12.91 4-19 4.65-8.63 10.41-12.76 19.44-16.37 3.16-.55 5.69-.62 8.87-.5 8.9.15 15.23-3.31 21.69-9.13h2l.62-1.75c1.38-2.25 1.38-2.25 4.11-4 3.61-2.49 6.18-5.2 9.02-8.5 1.71-1.98 3.44-3.87 5.25-5.75h2l.69-1.68c1.68-2.98 3.88-4.92 6.31-7.33q3.27-3.45 6.5-7 5.62-6.11 11.5-12 1.83-2 3.62-4.06l1.73-1.97c1.63-1.94 3.15-3.92 4.65-5.97q1.92-2.55 4-5h2l.75-1.62c4.11-7.8 4.11-7.8 7.25-9.37q1.54-2.47 3-5l2.25-3.07c1.75-2.93 1.75-2.93 1.59-4.99-1.09-2.5-2.04-2.87-4.53-3.95a64 64 0 0 1-10.31-6q-1.6-.96-3.25-2c-2.77-2-3.36-3.01-4.75-6l-2-1c-2.55-1.26-2.76-2.48-4-5a84 84 0 0 0-2.88-3.12c-3.66-4.19-5.34-8.66-7.12-13.87l-1.06-3.06A284 284 0 0 1 237 470l-.5-1.96a209 209 0 0 1-4.5-22.05l-1-2q-.37-3.3-.69-6.62c-1.03-9.45-3.46-18.51-5.87-27.7a193 193 0 0 1-3.01-13.6C221 394 221 394 220 391q-.3-2-.5-4l-.25-2.4q-.52-5.46-1-10.9-.35-3.7-.81-7.38c-.97-8.76-1.44-18 4.31-25.25 4.17-4.34 8.25-5.14 14.13-5.44 5.24.1 8.67 1.78 13.12 4.37 3.82 1.74 7.63 3.23 11.62 4.5A38 38 0 0 1 270 349a27 27 0 0 0 9.06 3.06c2.77.5 5.26 1.05 7.94 1.94 1.95-.7 1.95-.7 4.12-1.81a49 49 0 0 1 11.88-3.76 36 36 0 0 0 7-2.44 47 47 0 0 1 12.02-2.72c1.98-.27 1.98-.27 5.17-1.2A80 80 0 0 1 337.5 340q1.68-.27 3.43-.53 3.37-.52 6.76-.98c7.72-3.49 13.22-11.02 18.07-17.8A33 33 0 0 1 371 315h2l.14-1.64c1.27-3.49 3.84-5.5 6.55-7.92l1.57-1.45c3.86-3.5 7.77-6.67 13.12-7.23 5.48.63 8.06 1.77 11.62 6.25l2 2.13c6.31 9.06 10 20.68 12.94 31.25 1.06 3.63 1.06 3.63 2.44 7.06 2.56 6.62 3.97 13.67 5.62 20.56 3.78 0 5.11-.29 8.38-1.81l2.39-1.12q2.62-1.25 5.23-2.57c3.2-1.6 6.46-3.02 9.75-4.44A78 78 0 0 0 462 350a306 306 0 0 1 16.31-8.62 114 114 0 0 0 15.61-9.04c2.84-1.83 5.84-3.1 8.95-4.41a70 70 0 0 0 12.01-6.94 64 64 0 0 1 9.74-4.92c3.23-1.45 6.27-3.17 9.34-4.93q2.97-1.64 6.04-3.14c4.49-2.2 8.89-4.48 13.21-7 2.55-1.43 5.17-2.7 7.8-3.98a71 71 0 0 0 4.26-2.38c3.37-2.02 6.82-3.87 10.29-5.7l2-1.06q4.68-2.51 9.44-4.88l2.37-1.19 10.52-5.24q4.13-2.1 8.21-4.32A280 280 0 0 1 638 258l2.75-1.37A209 209 0 0 1 658 249q4.12-1.62 8.19-3.37c7.06-3.03 14.08-5.84 21.49-7.91C690 237 690 237 692.46 236c8.12-3.22 17.05-5.12 25.66-6.5 2.88-.5 2.88-.5 6-1.5 4.21-1.26 8.46-1.47 12.82-1.75q3.2-.27 6.39-.74c10.04-1.4 20.33-1.98 30.41-.76 2.26.25 2.26.25 6.14.25 2.93 0 5.26.4 8.12 1l4.75.38c4.36.4 8.07 1.44 12.16 2.94 2.09.68 2.09.68 5.65 1.18 2.85.41 4.82.96 7.44 2 5.64 2.18 9.84 3.25 15.56.81A77 77 0 0 0 844 227l2.62-1.56A72 72 0 0 0 853 221l2-1.43a47 47 0 0 0 11.62-11.88l1.38-1.7h2l.84-2.25a32 32 0 0 1 3.78-6.62c5.85-8.6 11.32-17.9 13.81-28.06A29 29 0 0 1 891 163l1.38-2.75L894 157l.84-1.78a96 96 0 0 1 8.72-14.47l1.59-2.24C921.29 116.2 943.25 97.87 971 93q5.13-.8 10.28-1.53c9.42-1.61 9.42-1.61 12.22-1.6" fill="#E7E8E9"/><path d="M404 304c6.53 7.76 9.61 18.59 13 28l.81 2.25c3.15 8.82 3.15 8.82 4.19 12.75l-1 2c-.67 5.98.45 10.85 2.33 16.49 1.04 3.91.86 7.49.67 11.51h-2l-1.06-2.06c-4.62-7-13.98-13.29-21.94-15.94v-2l-1.93-.35c-3.26-.69-6.45-1.54-9.66-2.41-8.09-2.2-16.09-4.13-24.41-5.24v-6h2l.59-1.83.79-2.42.77-2.39c.8-2.23 1.75-4.27 2.85-6.36h2v-3h2l.76-2.68c2.62-7.03 8.58-13.43 14.24-18.32a90 90 0 0 1 5-2l1-2c3.85-1.79 5.71-.29 9 2" fill="#252623"/><path d="M241.7 344.84c12.2 4.86 25.08 11.63 34.3 21.16 0 3 0 3-1.4 4.48l-1.98 1.59c-3.45 2.89-6.73 5.9-9.94 9.06l-2.48 2.44c-2.2 2.43-2.2 2.43-3.87 5.24L255 391h-2l-.25 2.07c-.95 3.7-2.8 6.68-4.75 9.93-3.39 5.69-5.1 11.58-6.6 17.99a98 98 0 0 1-1.4 5c-.33.18-.33.18-2 1-6.07-6.05-6.99-17.9-8.6-26.11-.4-1.97-.9-3.92-1.4-5.88l-2-1v-5l-3 1 3-12h-2l.06-3.31c-.06-3.7-.06-3.7-1.06-6.7l2-4-1-3q.37-3.34.93-6.67l.6-3.58.47-2.74 3-1v-2c4.16-2.08 8.4-1.5 12.7-.16" fill="#272926"/><path d="M812 574c5.33 2.43 9.54 6.26 14 10l3.07 2.55c9.83 8.4 15.91 17.75 18.93 30.45l1.07 3.58c1.32 5.28 1.15 10.51 1.05 15.92l-.02 3.07-.1 7.43-2.49.23c-6.09.71-10.66 1.5-15.76 5.02-4.08 2.76-4.08 2.76-7.33 2.73-5.68-1.24-5.68-1.24-7.42-2.98q.15-4.16.44-8.31c1.38-24.12.81-46.34-5.44-69.69" fill="#E9EBEA"/><path d="M249 340c3.82 1.74 7.63 3.22 11.62 4.5A37 37 0 0 1 270 349a27 27 0 0 0 9.06 3.06A57 57 0 0 1 287 354c1.87-.59 1.87-.59 3.88-1.5 3.42-1.4 5.51-1.74 9.12-.5a28 28 0 0 1-7.25 3.62l-2.2.79c-6.47 1.49-11.38.23-17.3-2.41l-2.19-.94-4.63-2q-5.05-2.19-10.11-4.32l-4.9-2.07c-7.43-3.16-14.2-6.02-22.42-4.67-3.12 1.69-5.39 3.78-7 7-1.89 25.69 2.36 50.24 9 75 1.64 6.47 3.02 12.9 3.97 19.5 2.47 17.09 7.22 33.47 12.53 49.88l1.08 3.4A60 60 0 0 0 258 513l1.84 2.53c7.33 8.71 19.75 17.79 31.16 19.47-.59 3.43-1.76 5.16-4.12 7.69a121 121 0 0 0-7.13 8.5c-3.41 4.44-7 8.69-10.64 12.94a302 302 0 0 0-7.99 9.81 213 213 0 0 1-12.29 13.89 258 258 0 0 0-8.15 9.01 272 272 0 0 1-12.93 13.6l-2.54 2.54A185 185 0 0 1 207 629l-2.45 1.98c-6.63 5.32-11.72 8.37-20.43 8.52-8.45.36-15.06 1.58-21.44 7.52-5.78 6.82-8.65 14.29-8.13 23.22 1.08 6.64 4.11 11.42 9.45 15.51 9.87 6.17 24.19 5.8 35.32 3.59 6.21-2.09 11.72-5.56 17.25-9.05L219 679l2 1-1.44 2.19c-2.78 5.01-3.03 10.15-2.56 15.81 1 3.5 1 3.5 2 6-1.94-.38-1.94-.38-4-1l-1-2-1.56.94c-3.11 1.35-6.09 1.67-9.44 2.06l-1-4c3-2 3-2 7-2 2.19-.94 2.19-.94 4-3 .64-2.99.87-5.95 1-9l-2.67 1.24-3.52 1.64-3.48 1.61L201 692l-2.34 1.16c-11.46 3.6-24.17 1.15-34.89-3.46-2.94-1.81-3.43-2.67-4.77-5.7l-1.99-.95c-3.95-2.06-4.69-7.04-6.01-11.05-2.1-6.85.8-12.92 4-19 4.65-8.64 10.41-12.76 19.44-16.38a41 41 0 0 1 8.87-.5c8.9.16 15.23-3.31 21.69-9.12h2l.62-1.75c1.38-2.25 1.38-2.25 4.11-4 3.61-2.48 6.18-5.21 9.02-8.5q2.55-2.94 5.25-5.75h2l.69-1.69c1.68-2.96 3.88-4.91 6.31-7.31q3.27-3.48 6.5-7a395 395 0 0 1 11.5-12q1.83-2 3.62-4.06l1.73-1.98c1.63-1.93 3.15-3.92 4.65-5.96a96 96 0 0 1 4-5h2l.75-1.62c4.11-7.81 4.11-7.81 7.25-9.38q1.54-2.48 3-5l2.25-3.06c1.75-2.94 1.75-2.94 1.59-5-1.09-2.51-2.04-2.88-4.53-3.94a65 65 0 0 1-10.31-6l-3.25-2c-2.77-2.01-3.36-3.03-4.75-6l-2-1c-2.55-1.28-2.76-2.48-4-5a71 71 0 0 0-2.88-3.12c-3.66-4.19-5.34-8.66-7.12-13.88l-1.06-3.06A286 286 0 0 1 237 470l-.5-1.97A209 209 0 0 1 232 446l-1-2q-.37-3.32-.69-6.62c-1.03-9.46-3.46-18.53-5.87-27.72a190 190 0 0 1-3.01-13.59C221 394 221 394 220 391q-.3-2-.5-4l-.25-2.41q-.52-5.44-1-10.89-.35-3.7-.81-7.39c-.97-8.75-1.44-17.99 4.31-25.25 7.74-8.04 18.49-6.14 27.25-1.06" fill="#E1E2E2"/><path d="m363 563 3 1v2c-1.36 1.34-1.36 1.34-3.31 2.94a184 184 0 0 0-12.78 12.22c-2.83 2.83-5.84 5.42-8.86 8.04-3.26 2.86-6.4 5.83-9.55 8.8l-4.2 3.95L323 606a1082 1082 0 0 1-37.34 33.94 487 487 0 0 1-21 17.55q-2.32 1.78-4.66 3.51l-2.29 1.76c-4.08 1.87-8.08 1.81-12.52 1.93l-2.68.1-6.51.21c3.45-3.7 7.32-6.58 11.38-9.56a1098 1098 0 0 0 32.01-24.95q6.4-5.13 12.86-10.18A874 874 0 0 0 310 606l8.56-7.06 2.24-1.85q5.68-4.7 11.45-9.28c3.82-3.03 7.54-6.15 11.25-9.31 13.58-11.55 13.58-11.55 19.5-15.5" fill="#EBEBED"/><path d="m403.13 449.81 3.2-.04C409 450 409 450 411 452l-4.38 3-2.46 1.7C402 458 402 458 400 458v2l-12 6-2.2 1.2c-1.8.8-1.8.8-4.8.8l-1 3c-2.76 1.64-2.76 1.64-6.25 3.25l-3.45 1.64c-3.4 1.14-4.94 1.2-8.3.11.1-4.55.68-7.14 3.81-10.5 9.9-9 23.82-15.6 37.32-15.69" fill="#131614"/><path d="M896 252c0 3 0 3-1.95 4.98A183 183 0 0 1 872 272l-3 2c1.69 4.49 3.83 8.73 6 13l3.12 6.25 1.51 3.02L881 299l1.09 2.05a45 45 0 0 1 2.41 6.89c.71 2.5 1.41 4.87 2.46 7.24 1.55 4.21 2.29 8.54 3.1 12.94l.54 2.86c1.58 8.68 2.61 17.12 2.34 25.95.06 2.07.06 2.07.56 4.43.58 3.04.6 5.86.56 8.95l-.02 3.24L894 376l-3 1-.23-3.53q-.42-6.58-.89-13.16l-.37-5.66c-1.61-24.86-7.33-45.74-18.64-67.99l-.95-1.88q-1.3-2.49-2.66-4.94c-1.32-2.97-1.84-4.65-1.26-7.84 1.55-1.52 1.55-1.52 3.75-2.81l2.47-1.52L875 266q3.1-2.01 6.19-4.06l3.07-2.04a74 74 0 0 0 6.3-4.84C893 253 893 253 896 252" fill="#E9E8EA"/><path d="M153 664h1l.3 2.41c1.17 8.34 2.93 14.18 9.92 19.49 9.78 6.05 24.12 5.62 35.1 3.44 6.21-2.09 11.72-5.56 17.25-9.05L219 679l2 1-1.44 2.19c-2.78 5.01-3.03 10.15-2.56 15.81 1 3.5 1 3.5 2 6-1.94-.38-1.94-.38-4-1l-1-2-1.56.94c-3.11 1.35-6.09 1.67-9.44 2.06l-1-4c3-2 3-2 7-2 2.19-.94 2.19-.94 4-3 .64-2.99.87-5.95 1-9l-2.67 1.24-3.52 1.64-3.48 1.61L201 692l-2.34 1.16c-11.46 3.6-24.17 1.15-34.89-3.46-2.87-1.76-3.58-2.65-4.77-5.7l-1.94-.81c-2.58-1.49-3.52-3.23-4.6-5.97-.91-4.4-.12-8.82.54-13.22" fill="#D6D6D8"/><path d="M242 591c.81 1.65.81 1.65 1 4a49 49 0 0 1-4.98 5.54l-1.61 1.6-3.41 3.35a483 483 0 0 0-5.1 5.03A245 245 0 0 1 207 629l-4.81 3.88c-5.78 4.62-10.67 6.5-18.07 6.62-8.46.36-15.05 1.59-21.45 7.52-6.04 7.18-8.62 15.8-9.67 24.98h-2c-2.19-7.75 1.53-14.42 5.16-21.15 4.53-7.51 10.24-11.01 18.28-14.23a41 41 0 0 1 8.87-.5c8.9.16 15.23-3.31 21.69-9.12h2l.62-1.75c1.38-2.25 1.38-2.25 4.11-4 3.61-2.48 6.18-5.21 9.02-8.5q2.55-2.94 5.25-5.75h2l.69-1.69c1.68-2.97 3.84-4.96 6.31-7.31l2.69-2.81C240 593 240 593 242 593z" fill="#D4D7D4"/><path d="M356.44 487.5 358 489c-.75 6.75-.75 6.75-3 9-.41 1.95-.41 1.95-.62 4.12L354 506l-7 1-1.12-2.25c-2.21-3.23-4.56-4.73-7.88-6.75-1-1-1-1-1.44-3.25.44-2.75.44-2.75 3.19-5.5 5.02-3.47 11.1-5.19 16.69-1.75" fill="#666664"/><path d="M1032 96c7.59 2.55 14.49 6.28 21.49 10.11 2.75 1.48 5.49 2.84 8.32 4.14 3.19 1.75 3.19 1.75 4.14 3.8L1067 116q1.99.55 4 1c7.38 5.04 13.47 11.35 19.35 18.01q2.58 2.91 5.27 5.73c4.36 4.59 7.41 7.92 8.38 14.26l-2 1-.93-1.73A96 96 0 0 0 1077 126l-3-2.39c-22.65-17.92-46.55-28.01-75.5-29.17l-3.07-.13L988 94v-1l1.71-.08 7.67-.36 2.69-.12 2.58-.12 2.38-.11c9.74-1.02 17.3.7 26.97 3.79" fill="#E3E4E4"/><path d="M890 362h1l1 14h1l-.32 13.28-.1 4.49c-.2 9.08-.81 17.86-2.12 26.85-.62 4.58-.87 9.14-1.02 13.76-.18 4.85-.39 9.7-.78 14.53l-.16 2.17c-.62 2.37-1.66 3.35-3.5 4.92-.2-10.59.37-20.91 1.44-31.44a716 716 0 0 0 3.25-52.68z" fill="#DEE0DF"/><path d="m288 474 .62 3.56c1.63 6.56 6.05 10.59 11.38 14.44-8.28-.04-15.09-2.42-22-7-2.41-2.52-2.41-2.52-4-5l1-3c2.18-.95 2.18-.95 4.88-1.69l2.67-.76C285 474 285 474 288 474" fill="#DFBD69"/><path d="m231 339 1 5-3 1v2l-2 1a92 92 0 0 0-1.12 7.38l-.27 2.07A70 70 0 0 0 225 366l-.56 2c-.44 2-.44 2 .56 5-.44 2.69-.44 2.69-1 5h2c-.59 6.15-.59 6.15-1 8l-2 1c-2.06-7.49-2.44-14.81-2.48-22.54a325 325 0 0 0-.14-6.26c-.18-11.18-.18-11.18 3.53-15.6 2.22-2.1 3.93-3.6 7.09-3.6" fill="#19191A"/><path d="M882 306c6.01 5.35 6.74 14.81 8.12 22.38l.53 2.79c1.56 8.61 2.55 17 2.29 25.76.06 2.07.06 2.07.56 4.43.58 3.04.6 5.86.56 8.95l-.02 3.24L894 376l-3 1-.23-3.53q-.42-6.58-.89-13.16l-.37-5.66c-.92-14.23-2.31-27.92-6.96-41.5A24 24 0 0 1 882 306" fill="#EEECF2"/><path d="M993.81 89.81q1.06 0 2.16-.04c4.13 0 7.32.38 11.03 2.23v1l-2.39.12c-21 1.1-40.26 2.65-59.18 12.75C943 107 943 107 940 106c10.38-7.96 22.07-11.85 34.93-13.63l5.03-.72 2.21-.3c8.17-1.54 8.17-1.54 11.64-1.54" fill="#E9E9EB"/><path d="m375 460 1.31 2.75A46 46 0 0 0 381 470a428 428 0 0 1-6.69 3.56l-1.89 1.04c-3.02 1.56-4.96 2.44-8.38 2.11L362 476c.1-4.95.84-7.27 4.38-10.81 5.57-5.19 5.57-5.19 8.62-5.19" fill="#EDC870"/><path d="M1103 155h2q1.01 3.09 2 6.19l1.12 3.48c1.62 6.17.69 9.62-2.12 15.33-3.72 6.05-6.89 10.16-14 12-4.05.45-7.98.72-12 0-2.36-2.03-2.36-2.03-4-4l3.22.18c14.07.54 14.07.54 19.3-3.66 5.16-5.28 5.71-8.76 5.79-16.08A80 80 0 0 0 1103 155" fill="#EEEEF0"/><path d="M937 106c2.06.44 2.06.44 4 1a53 53 0 0 1-9 7.5c-14.79 10.67-24.74 24.34-33 40.5-1.17-1.7-1.17-1.7-2-4 7.15-17.37 24.8-32.69 39-44z" fill="#DFE0E0"/><path d="M900 618h1l.08 2.92.42 15.45.18 6.73.05 2.08c.34 10.95.34 10.95 2.27 14.82q4.38 1.27 8.81 2.31c15.92 3.99 15.92 3.99 22.19 7.69l1 3-2.12-.88c-5.2-2.02-10.55-3.55-15.88-5.18l-3.56-1.11-3.44-1.05-3.12-.96A102 102 0 0 0 900 662z" fill="#E5E6E6"/><path d="M1032 96a121 121 0 0 1 14 6l-1 3-3.11-1.21c-14.56-5.59-27.77-8.73-43.39-9.35l-3.07-.13L988 94v-1l1.71-.08 7.67-.36 2.69-.12 2.58-.12 2.38-.11c9.73-1.02 17.32.67 26.97 3.79" fill="#DFDFE0"/><path d="M153 664h1l.3 2.41c1.17 8.35 2.94 14.15 9.91 19.49 8.8 5.4 19.82 4.78 29.79 5.1v1l-2.92.18-3.83.26-3.8.24c-3.45.32-3.45.32-5.43 1.02-3.47.51-6.48-1.09-9.64-2.39l-2.07-.78c-4.98-2-4.98-2-6.65-4.69L159 684l-1.94-.81c-2.58-1.49-3.52-3.23-4.6-5.97-.91-4.4-.12-8.82.54-13.22" fill="#D5D6D6"/><path d="m495 579 1 2-1.62 1.07L487 587l-2.75 1.82-2.69 1.8-2.49 1.67C477 594 477 594 476.13 596.16L475 598c-3.04.61-3.04.61-6.62.75l-3.61.17-2.77.08c2.39-3.59 4.13-4.17 8-6q3.93-2.14 7.81-4.38l4.24-2.39 2.05-1.16q5.43-3.06 10.9-6.07" fill="#030504"/><path d="M1044 158c6.25 5.18 11.84 10.84 17.42 16.72A65 65 0 0 0 1078 187l-2 1-1 2q-2-1.42-4-2.88l-2.25-1.61L1067 184v-2l-1.7-.71c-2.84-1.59-4.78-3.54-7.07-5.86l-2.69-2.72-2.79-2.83-2.84-2.87L1043 160z" fill="#E1E0E2"/><path d="M242 591c.84 1.63.84 1.63 1 4a55 55 0 0 1-5.37 5.86l-1.69 1.66q-2.68 2.63-5.38 5.23l-3.62 3.56q-4.45 4.36-8.94 8.69l-2-2q2.43-2.76 4.88-5.5l1.39-1.59q1.81-2 3.73-3.91h2l.69-1.69c1.68-2.97 3.84-4.96 6.31-7.31l2.69-2.81C240 593 240 593 242 593z" fill="#DDE0DE"/><path d="m398 300 1 2h-4l-1 3-2.25.88c-3.41 1.39-5.23 3.47-7.75 6.12l-2 1c-2.12-.94-2.12-.94-4-2 5.73-7.47 10.23-11.86 20-11" fill="#1A1A1D"/><path d="M866 272c4.06 4.51 6.39 9.58 9 15l3.19 6.38L881 299l1.2 2.12c1.29 3.03.41 5.73-.2 8.88-1.94-2.92-2.9-5.34-4.06-8.62-2.44-6.53-5.55-12.51-8.99-18.55-2.08-3.75-3.53-6.41-2.95-10.83" fill="#E5E6E8"/><path d="M219 350h1l1 13.38.29 3.79c.51 6.96.86 13.85.71 20.83l-3-2c-.48-3.16-.48-3.16-.62-7.06-.4-8.62-.4-8.62-.94-12.88-1.37-11.67-1.37-11.67 1.56-16.06" fill="#EDEFEF"/><path d="m593.23 548.36 1.77.64-2.25 1.3c-2.75 1.7-2.75 1.7-4.6 3.13-4.2 3.06-8.99 5.12-13.65 7.38l-3.17 1.6-3.05 1.49-2.78 1.37c-2.5.73-2.5.73-4.83-.14L559 564l7.5-3.81 2.11-1.08a94 94 0 0 1 10.65-4.7c3.8-1.43 6.62-3.18 9.88-5.52 1.86-.9 1.86-.9 4.1-.53" fill="#1E211E"/><path d="M887 416h1c.84 7.08 1.18 14.06 1.19 21.19l.03 2.86c.02 5.36-.28 9.92-2.22 14.95l-2 1c-.39-13.41.81-26.66 2-40" fill="#D9D9DB"/><path d="m302.25 469.63 3.28-.07A40 40 0 0 1 325 474l-3 2q-2.42-1.12-4.81-2.25c-4.48-1.55-9.26-1.1-13.94-1l-3.09.01c-6.76.07-13.44.53-20.16 1.25 7.54-3.81 13.87-4.37 22.25-4.38" fill="#030302"/><path d="m215 619 2 1c-6.57 7.2-16.51 17.65-26.67 18.2q-2.04-.02-4.08-.08l-2.11-.02-5.14-.1v-1l2.71-.23c8.58-.93 14.24-2.91 21.29-7.77l2.22-1.07c1.78-.93 1.78-.93 2.66-2.81 1.64-3.1 4.17-4.33 7.12-6.12" fill="#E5E7E6"/><path d="m423 352 3 1c.95 2.5.95 2.5 1.69 5.56l.76 3.07.55 2.37c3.63 0 5.85-.43 9.25-1.5l2.7-.84L443 361l1 2-7.38 3-2.11.87C429.23 369 429.23 369 427 369l-2-6.25-1.12-3.52C423 356 423 356 423 352" fill="#E2E1E4"/><path d="m411 450-2.71.11c-11.85.65-20.33 3.09-30.72 8.78C375 460 375 460 372 459c27.32-16.79 27.32-16.79 39-9" fill="#030503"/><path d="m915 228 1 2a61 61 0 0 1-8 12l-1.29 1.64A119 119 0 0 1 903 248h-2l-.69 1.94C899 252 899 252 896.38 252.75L894 253q5.4-6.37 11.06-12.5c3.66-4 6.94-8 9.94-12.5" fill="#DADBDD"/><path d="m287 474-1 9-6 1v-2h-2v-2h-2v-2c3.54-2.46 6.67-4 11-4" fill="#E9C35B"/><path d="M974 146c-2.34 2.57-4.81 4.2-7.81 5.94l-2.69 1.59L961 155c-4.73 2.85-7.66 5.68-11 10l-1-3c16.28-17.09 16.28-17.09 25-16" fill="#E6E8E5"/><path d="M236 338v1l-1.79.23-2.4.39-2.35.36c-3.6 1.5-5.73 3.6-7.46 7.02-.72 3.63-.79 7.18-.81 10.88l-.08 2.95q-.08 3.58-.11 7.17h-1l-.18-3.83-.26-4.98-.12-2.53-.12-2.43-.11-2.24C219 350 219 350 218 347c4.83-8.58 8.79-10.34 18-9" fill="#C8C9CA"/><path d="M567 296v2l-23 12-1-3 8.88-5.18a218 218 0 0 0 5.3-3.18c3.41-2.1 5.78-3.13 9.82-2.64" fill="#E9E9EB"/><path d="M240 470a22 22 0 0 1 3.29 6.91l.66 2.25.67 2.34.7 2.34c.93 3.21 1.68 5.8 1.68 9.16l-4-1-.37-1.79c-1.44-6.79-1.44-6.79-2.82-9.77-1.22-3.68-.45-6.64.19-10.44" fill="#D8DADB"/><path d="m618 268 1 3-19 9c1-4 1-4 3.36-5.63l2.95-1.49 2.93-1.51L612 270l2.23-1.18C616 268 616 268 618 268" fill="#E1E1E3"/><path d="M993.81 89.81q1.06 0 2.16-.04c4.13 0 7.32.38 11.03 2.23v1h-23v-2c3.11-1.56 6.4-1.19 9.81-1.19" fill="#F2F2F4"/><path d="M765.82 223.83q3.13.26 6.24.67c3.75.48 7.18.58 10.94.5l1 2c-9.18 1.1-17.82.82-27 0 2.74-3.21 4.6-3.32 8.82-3.17" fill="#F1F1F4"/><path d="m927 209 1 2c-.86 2.14-.86 2.14-2.19 4.69l-1.4 2.7A158 158 0 0 1 917 231l-2-1c2.81-7.27 6.46-15.46 12-21" fill="#E3E1E4"/><path d="m876 694-2 4h-12v-1l-17-1v-1l12.12-.5 3.47-.14 3.36-.14 3.07-.13q4.49-.13 8.98-.09" fill="#919392"/><path d="m376 465 5 5-13 6v-2h2v-4h2l1-3h3z" fill="#ECC675"/><path d="M888 519c4.13 4.84 5.18 10.98 4.9 17.27a64 64 0 0 1-.9 4.73c-1.88-3.36-2.8-6.69-3.69-10.44l-.82-3.37A17 17 0 0 1 888 519" fill="#E0E0E3"/><path d="M891 353h1c2.13 7.74 2.2 15 2 23l-3 1z" fill="#F2F2F5"/><path d="M412 324h2q1.3 3.55 2.56 7.12l.75 2.02c1.52 4.36 1.85 7.39.69 11.86-1.84-3.38-2.99-6.83-4.12-10.5l-1.08-3.41C412 328 412 328 412 324" fill="#181A1B"/><path d="M845 226h3c-1.5 4.4-4.42 5.73-8.38 7.88l-3.46 1.92c-3.16 1.2-3.16 1.2-5.57.4L829 235l1.76-.73c10.47-4.5 10.47-4.5 14.24-8.27" fill="#E9EAED"/><path d="M156 651h1c-.41 3.45-.88 6.64-2 9.94-1.21 3.71-1.6 7.18-2 11.06h-2c-1.97-7 .8-12.81 4-19z" fill="#F0F3EF"/><path d="M761 225v1l11 1v1h-24v-2q2.12-.55 4.25-1.06l2.39-.6c2.46-.35 4.02-.11 6.36.66" fill="#D3D3D5"/><path d="m1014 92 3 2c-1 1-1 1-3.68 1.02l-3.54-.14-3.82-.15-4.02-.17-4.04-.16-9.9-.4v-1l1.71-.08 7.67-.36 2.69-.12 2.58-.12 2.38-.11c7.01-.74 7.01-.74 8.97-.21" fill="#C2C2C4"/><path d="M324 476c2.5 2.31 2.5 2.31 5 5v3l-9 3 1.44-2.69A27 27 0 0 0 324 476" fill="#CBBC86"/><path d="M1103 155h2q1.01 3.09 2 6.19l1.12 3.48c.79 2.97 1.06 5.28.88 8.33l-3 1-.4-2.63-.54-3.49-.52-3.45q-.75-4.72-1.54-9.43" fill="#EFEFF1"/><path d="m375 460 1 4-1.75.81A42 42 0 0 0 368 469l-3-2 3.88-3.5 2.17-1.97C373 460 373 460 375 460" fill="#DAC172"/><path d="M886 455c2.06 3.4 2.3 6.12 2.31 10.06l.05 3.16c-.41 3.17-1.07 3.73-3.36 5.78a1332 1332 0 0 1-.09-11.51l-.01-2.45-.01-2.27C885 456 885 456 886 455" fill="#F0F0F3"/><path d="M1105 165h1l.5 4.31.28 2.43c.47 4.88-.66 7.85-2.78 12.26l-2 1-2-2 1.94-2.81c2.78-4.78 2.86-9.77 3.06-15.19" fill="#EBE9EE"/><path d="m300 626 1 2c-3.8 3.92-7.82 7.49-12 11l-2-1c8.26-8.45 8.26-8.45 13-12m-15 13 2 1h-3z" fill="#1C1B20"/><path d="m198 691-1 3h-17v-2l6.75-.5 3.8-.28q3.72-.23 7.45-.22" fill="#ECF1EE"/><path d="m291 485 4.5 2.94 2.53 1.65L300 491v1l-4.81-.44-2.71-.24C290 491 290 491 287 490v-2l3-1z" fill="#B5A87A"/><path d="M401 298c2.81 2.25 2.81 2.25 5 5v4l-2.5-2.38c-3.6-3.03-6.92-3.75-11.5-4.62 3.13-1.85 5.38-2.62 9-2" fill="#DEDEE1"/><path d="M213 686a388 388 0 0 1-5.69 3.06l-3.2 1.73c-3.33 1.3-4.76 1.3-8.11.21q4.23-2.14 8.5-4.19l2.28-1.1c2.53-.81 3.76-.59 6.22.29" fill="#DBDBDC"/><path d="m669.56 507.94 2.44.06c-3.72 4.56-8.79 6.58-14 9v-2h2v-3l2.94-1.44c5.07-2.58 5.07-2.58 6.62-2.62" fill="#1F2020"/><path d="m277 476 3 1-4 1v2h2v2h2v2h4l-1 3c-4.38-1.34-6.54-3.12-9-7l1-3z" fill="#CEB471"/><path d="M890 341c3 4 3 4 2.75 7.69L892 353q-.3 2.5-.56 5l-.26 2.31L891 362h-1z" fill="#ECEDEE"/><path d="m931 195 2 2c-.37 4.33-2.04 8.16-4 12-2.19 1.44-2.19 1.44-4 2a212 212 0 0 1 6-16" fill="#D8D7DA"/><path d="M948 163c1 3 1 3-.33 5.92l-1.92 3.27-1.89 3.29L942 178h-3a40 40 0 0 1 5.62-10.31l1.92-2.68z" fill="#D9DADB"/><path d="m370.31 659.31 1.7.7c-2.88 3.48-4.85 5.28-9.32 5.8l-3.69.2c6.8-7.3 6.8-7.3 11.31-6.7" fill="#E2E3E2"/><path d="m223 370 2 1-1 7h2c-.59 6.15-.59 6.15-1 8l-2 1a52 52 0 0 1 0-17" fill="#131314"/><path d="M420 348c2.77 2.35 3.52 4.15 4.19 7.69l.48 2.45.33 1.86h-4c-1.26-2.52-1.1-4.31-1.06-7.12l.02-2.76z" fill="#1A1A1A"/><path d="M887 329h3c1.88 6.93 2.16 12.12 0 19h-1z" fill="#E1E2E3"/><path d="M416 324c2 3 2.91 5.59 4 9l1 2-3 4-2-5.88-1.12-3.3C414 327 414 327 414 325z" fill="#E0E2E2"/><path d="m685 504 1 6-8-2v-3c3.62-2.12 3.62-2.12 7-1" fill="#DFE1DE"/><path d="M382 469v5h-8v2h-5c3.09-2.57 8.78-7 13-7" fill="#2C1B0F"/><path d="m369 317 1 4c-1.43 2.14-1.43 2.14-3.44 4.25l-1.99 2.14L363 329l-2-3z" fill="#ECEEEC"/><path d="M257 644h4c-1.46 3.69-3.3 5.16-6.62 7.25l-2.48 1.58L250 654c.31-2.39.31-2.39 1-5 3.06-1.81 3.06-1.81 6-3z" fill="#191A18"/><path d="M226 610c-1.38 3.21-2.92 5.05-5.62 7.25l-1.92 1.58L217 620c0-3.52.58-4.1 2.81-6.69l1.58-1.88C223 610 223 610 226 610" fill="#D7D8DA"/><path d="M1016 143v1c-4.08.85-6.97.98-11 0l-7-1v-1c6.59-1.05 11.59-.83 18 1" fill="#EDEEEC"/><path d="m984 92 4 2-16 2v-2c3.72-2.48 7.68-2.57 12-2" fill="#DFDFE1"/><path d="m496 331 3 1c-3.02 3.48-5.57 4.79-10 6v-3l1.81-.88C493 333 493 333 496 331" fill="#EDEEEF"/><path d="m376 309 2 1c-1.67 3.94-4.23 6.79-7 10l-1-4 3-1c.56-1.94.56-1.94 1-4z" fill="#DFE1E0"/><path d="M804 229c2.25.27 2.25.27 5 .81l2.75.52 2.25.67 1 2c-3.98 1.05-6.98.84-11 0l-1-3z" fill="#E2E2E7"/><path d="m219 679 2 1-4 7-6-2c2.62-2.12 5.2-4.13 8-6" fill="#CDCFCD"/><path d="M265 523c3.22.63 5.51 1.78 8.25 3.56l2.14 1.38L277 529l-3 2c-3.65-1.92-5.36-3.22-7-7z" fill="#E0E1E1"/><path d="m258 515 3.38 2.75 1.89 1.55A16 16 0 0 1 267 525h-3l-3-5c-2.19-1.31-2.19-1.31-4-2z" fill="#F0F0F3"/><path d="M886 507c2.93 3.54 3.2 5.4 3 10l1 2-3 1c-1-1-1-1-1.1-3.72l.04-3.34.02-3.35z" fill="#EBECEA"/><path d="M222 382h1l1 14h-2c-2.57-4.42-1.72-7.51-.51-12.21z" fill="#D4D4D6"/><path d="m927 209 1 2c-1 2.38-1 2.38-2.44 5.12l-1.43 2.76L923 221h-2c.56-4.76 2.59-8.59 6-12" fill="#E9E9EA"/><path d="M174 691h20v1l-2.92.18-3.83.26-3.8.24c-3.45.32-3.45.32-5.78.92-1.67.4-1.67.4-3.67-.6z" fill="#B8BCBA"/><path d="m593.44 548.25 1.56.75-2.25 1.31C590 552 590 552 587.88 553.69 586 555 586 555 583 555c1.28-3.85 2.79-4.42 6.2-6.28 1.8-.72 1.8-.72 4.24-.47" fill="#1C1D1D"/><path d="m623 532 4 2-10 5 1-4 5-1z" fill="#262626"/><path d="m375 460 2 1 3 1v4l3 1-3 2c-5-5.62-5-5.62-5-9" fill="#281C0F"/><path d="M1078 123c5.88 4.62 5.88 4.62 7 8-3 0-3 0-5.69-2.5L1077 126z" fill="#D9DADA"/><path d="m1017 92 11 3v2q-2.44-.17-4.88-.38l-2.74-.21C1018 96 1018 96 1016 94z" fill="#EAEBED"/><path d="m243 659 2 1v4l-9 1a41 41 0 0 1 7-6" fill="#D6D9D7"/><path d="m378 649 5 1c-2.88 2.4-5.56 4.47-9 6l2-5h2z" fill="#1B1A1D"/><path d="M415 630c-2.12 2.33-4.02 3.91-7 5-2.25-.38-2.25-.38-4-1 3.34-4.28 5.71-4.41 11-4" fill="#1C1D1D"/><path d="M287 535h4c-.31 1.88-.31 1.88-1 4l-3 2-2-1z" fill="#D9D9DB"/><path d="m376 465 5 5-7 3v-3h2z" fill="#D3B87E"/><path d="m450 356 1 3c-4.43 3.08-4.43 3.08-7.31 2.69L442 361c2.41-2.41 4.94-3.54 8-5" fill="#E8E7EB"/><path d="M567 296v2l-9 4c1.99-5.54 3.18-6.15 9-6" fill="#E0DFE1"/><path d="M868 206c.75 1.73.75 1.73 1 4-1.65 2.14-1.65 2.14-3.94 4.25l-2.27 2.14L861 218c0-3.96 1.47-5.04 4-8z" fill="#EAECEC"/><path d="m287 474-1 9h-2v-7l-3-1c2.08-.55 3.84-1 6-1" fill="#E3C371"/><path d="M885 441h1l.44 3.25c.56 3.75.56 3.75 1.25 5.94.42 2.47-.42 3.72-1.69 5.81h-1z" fill="#C7C8CB"/><path d="M231 336h10v3l-10-1z" fill="#ECEEED"/><path d="m522 317 2 1Zm-1 1 1 3c-3.23 2.15-4.28 2.2-8 2 2.36-2.53 3.66-3.89 7-5" fill="#F0F0F2"/><path d="M626 264v3c-5.75 3-5.75 3-8 3 1.01-2.54 1.65-3.78 4-5.25 2-.75 2-.75 4-.75" fill="#EFEEF0"/><path d="M1102 158h2c1.05 3.15 1.1 5.39 1.06 8.69l-.02 3.01-.04 2.3h-1c-2.3-9.41-2.3-9.41-2-14" fill="#191B1A"/><path d="M161 644h2c-.61 3.99-2.71 6.74-5 10-1-3-1-3 .38-6.12C160 645 160 645 161 644" fill="#E0E3E0"/><path d="m402 635 3 2-7 4-2-2z" fill="#181B18"/><path d="M252 507h2c4 5.29 4 5.29 4 9-4.69-3.52-4.69-3.52-6-5z" fill="#DDDEDE"/><path d="M156 651h1c-.75 6.62-.75 6.62-3 10-1.05-3.35-1.2-4.59.38-7.81z" fill="#E8EBE8"/><path d="M287 474h1l1.46 5.96q.69 2.54 1.54 5.04l-3 1v-4h-2z" fill="#C4A55A"/><path d="m236 466 4 1v9c-2.95-2.95-3.09-5.96-4-10" fill="#ECEDED"/><path d="M233 435h1l1 12-4-2z" fill="#CFD2D0"/><path d="m423 352 3 1c1.23 5.42 1.23 5.42.06 8.38L425 363c-1.19-3.88-2-6.92-2-11" fill="#D7DAD6"/><path d="M1056 170q1.76 1.4 3.5 2.81l1.97 1.58C1063 176 1063 176 1063 179q-1.76-1.4-3.5-2.81l-1.97-1.58C1056 173 1056 173 1056 170" fill="#D9D8DA"/><path d="M932 113h2c-1.15 2.47-2.05 4.05-4 6-2.62.62-2.62.62-5 1z" fill="#171A17"/><path d="M490 696v1c-10.37 2.48-10.37 2.48-16 1v-1a99 99 0 0 1 16-1" fill="#D8DCD8"/><path d="M614.44 538.75 616 540c-6.4 3.08-6.4 3.08-9.44 2.69L605 542c6.4-4.18 6.4-4.18 9.44-3.25" fill="#222322"/><path d="M924 119c-1.49 3.8-3.76 5.61-7 8 0-3 0-3 2.38-5.69C922 119 922 119 924 119" fill="#D8D8D8"/><path d="m283 624 3 2-5 4-2-1c1-3 1-3 4-5" fill="#0C0C0B"/><path d="M287 540c-1.25 3.65-1.67 4.78-5 7l-1-3c3.75-4 3.75-4 6-4" fill="#ECEEEE"/><path d="m289 476 1 2h2v5l-2 1c-1.43-2.35-2.09-3.48-1.62-6.25z" fill="#241A0C"/><path d="m717 229 6 2c-2.57 1.62-3.68 2.04-6.75 1.62L714 232z" fill="#DFDFE2"/><path d="M742 225c2.62-.19 2.62-.19 5 0l1 3h-8z" fill="#F3F3F5"/><path d="m890 166 2 1-1 6-3 1c.88-6.88.88-6.88 2-8" fill="#EEF1EE"/><path d="M886 320h2l1 9h-2z" fill="#EFEFF1"/><path d="M874 270c-4.75 4-4.75 4-7 4 .38-1.94.38-1.94 1-4 2.49-1.25 3.41-.78 6 0" fill="#EDEEEE"/><path d="M956 155c0 3.59-.66 4.11-3 6.69l-1.69 1.88L950 165l-1-3z" fill="#EBEDEC"/><path d="M159 685c2.88.25 2.88.25 6 1 1.38 2.06 1.38 2.06 2 4-6.88-2.75-6.88-2.75-8-5" fill="#E6E8E7"/><path d="m291 485 4 4-8 1v-2l3-1z" fill="#C3AC6D"/><path d="M278 352c2.69.31 2.69.31 5 1l-2 3-6-1c1.19-1.56 1.19-1.56 3-3" fill="#DADBDB"/><path d="M880 300c1.56 1.06 1.56 1.06 3 3-.31 3.69-.31 3.69-1 7-2.43-3.64-2.16-5.71-2-10" fill="#D0CED3"/><path d="m570 292 2 1-4 4-3-2c2.38-1.56 2.38-1.56 5-3" fill="#EFEEF3"/><path d="M611 274v3c-2.5 1.69-2.5 1.69-5 3l-1-3z" fill="#191519"/><path d="M880 189a12 12 0 0 1 1 4c-1.44 2.25-1.44 2.25-3 4l-2-1c2.88-5.88 2.88-5.88 4-7" fill="#EAEEEB"/><path d="m887 174 3 1-3 7-2-1z" fill="#E2E1E0"/><path d="M1105 165h1l.5 4.31.28 2.43c.22 2.26.22 2.26.22 5.26l-3 1z" fill="#D0D0D4"/><path d="m942 167 2 3c-1.31 2.5-1.31 2.5-3 5h-3v-3h3z" fill="#171819"/><path d="M894 163c1.47 3.81.43 6.29-1 10h-2a43 43 0 0 1 3-10" fill="#272A27"/><path d="m318 686 2 3c-2.35 1.43-3.48 2.09-6.25 1.62L312 690z" fill="#181A1A"/><path d="M247 587c-.31 1.88-.31 1.88-1 4l-3 2-1-3c2.75-3 2.75-3 5-3" fill="#F0EFF3"/><path d="m891 532 2 2c-.38 3.62-.38 3.62-1 7-1.62-2.57-2.04-3.68-1.62-6.75z" fill="#D3D3D6"/><path d="m225 382 2 1v5l-4 2z" fill="#1E1F1F"/><path d="m339 340 7 1v1l-8 1z" fill="#E0E0E4"/><path d="m885 313 3 4-2 4-2-2c.38-3.12.38-3.12 1-6" fill="#E1E1E5"/><path d="m874 202 2 4-5 3a16.6 16.6 0 0 1 3-7" fill="#1C201C"/></svg>