<svg style="background:transparent" version="1.1" xmlns="http://www.w3.org/2000/svg" viewBox="0 0 1248 704"><path d="m517.38-.19 3.2.08L523 0v2l2.17.24c7.84 2.1 14.42 9.94 19.3 16.13C546 20 546 20 547.99 20.98c2.48 1.25 3.66 2.74 5.4 4.9A37 37 0 0 0 563 34l3 3q1.68 1.45 3.38 2.87c3.02 2.58 5.85 5.28 8.62 8.13 8.12 8.31 8.12 8.31 14.53 8.47l2.22.01a405 405 0 0 0 10.04.13l5.37.05 11.25.06c4.8.01 9.59.1 14.38.17a820 820 0 0 0 11.09.08q2.64.01 5.28.07c13.8.3 13.8.3 18.88-3.02A60 60 0 0 0 677 47c1.58-1.46 1.58-1.46 3.03-2.6 4.73-3.69 9.15-7.44 13.32-11.74 2.33-2.35 4.84-4.49 7.37-6.65q3.32-2.94 6.56-5.97C728.93-.02 728.93-.02 737.44-.5c7.1.36 12.9 4.07 18.1 8.72 2.63 3.17 3.5 6.84 4.47 10.78l1 3q.14 3.66.13 7.32v171.49c0 3.01-.16 5.3-1.13 8.2l-.32 2.61C757.55 222.2 751.57 232.5 743 239l-1.87 2.43c-2.92 3.53-6.4 5.95-10.13 8.57l-1.78 1.27c-3.94 2.73-3.94 2.73-6.23 2.73-4 7.14-1.88 14.67.15 22.21a73 73 0 0 0 3.86 9.8l2 4.55c2.1 4.8 4.5 9.44 6.87 14.1a266 266 0 0 1 10.04 21.68 136 136 0 0 0 3.16 7.1c2.54 5.66 4.15 11.62 5.92 17.56l1.63 5.06q.35 1 .66 2.04c.72 1.9.72 1.9 1.78 4 1.13 2.3 1.52 4.37 1.94 6.9l.5 2.87q.55 3.44 1 6.88c.5 3.25.5 3.25 1.5 5.25q.3 2.65.5 5.31c.22 2.8.44 5.45 1.03 8.18.53 2.82.54 5.4.47 8.26q-.05 2.62 0 5.25l1 1q.14 2.93.13 5.87v3.24c-.13 2.9-.13 2.9-1.13 5.9v2.92c0 3.07 0 3.07-.5 5-.5 2.07-.5 2.07-.43 5.5-.07 3.56-.7 5.36-2.08 8.57a164 164 0 0 0-1 7l3.13-1c8.56-2.1 18.26-2.36 26.37 1.41 10.86 6.86 17.42 15.04 20.5 27.6l.76 2.86C816.28 501 816.13 513.7 814 528l-.43 4.5c-.45 4-1.4 7.64-2.58 11.5l-.92 4.43a68 68 0 0 1-3.34 10.7c-1.02 2.6-1.87 5.23-2.74 7.87l1.99-.2c9.52-.92 19.01-1.04 28.59-1.05h2.58c15.15 0 29.86 1.05 44.85 3.25l4.84.62A155 155 0 0 1 931.99 583l3.2 1.5a75 75 0 0 1 8.68 5.56l2.94 2.1L949 594v2l1.68.12c6.88 2.6 11.27 12.63 14.43 18.87 3.7 8.3 6.82 19.21 3.88 28.01l-1 4q-.65 2.75-1.37 5.5l-.7 2.84A19 19 0 0 1 962 662l-1.25 1.82c-4.17 5.93-9.25 10.5-14.75 15.18l-1.8 1.57A55 55 0 0 1 935 687l-3.37 2c-13.65 7.75-30.15 11.91-45.63 14l-2.37.51c-2.68.5-5.18.67-7.88.74l-3.12.1q-7.03.14-14.04.22-3.7.06-7.4.16c-23.1.67-23.1.67-30.2-5.07-2.28-2.4-2.28-2.4-4-4.66l-1.43-1.7A23 23 0 0 1 811 676c2.87-7.22 6.02-14.12 12.93-18.13L826 657l2.43-1.5c9.32-3.92 19.98-3.79 29.95-4 14.5-.44 27.86-1.54 41.62-6.5l2.66-.94c3.89-1.52 6.09-2.79 8.97-5.87 1.8-4.17 1.98-5.92.37-10.19-8.07-7.2-18.66-9.86-29-12l-2.25-.5c-12.91-2.37-26.54-1.66-39.6-1.63h-24.91c-2.2.13-4.12.56-6.25 1.13a118 118 0 0 1-6.78-.07c-2.23.07-4.07.51-6.22 1.07h-6l-1 1q-2.93 0-5.88-.03c-2.77.04-5.38.53-8.12 1.03l-2.12.15c-8.37.6-13.04 3.73-18.87 9.85a311 311 0 0 1-5.54 4.67c-1.47 1.33-1.47 1.33-2.47 3.33l1.76.8A35 35 0 0 1 764 653c1.49 5.44 1.38 10.84-1 16-6.85 7.21-14.99 8.78-24.54 9.13-14 .28-29.5-.03-41.47-8.13l2.25 1.72c7.88 6.5 11.57 13 13.59 22.98.18 3.62-.6 5.92-1.84 9.3q-13.76.1-27.56.15l-12.8.07q-6.17.05-12.35.06l-4.7.03q-3.3.04-6.6.03l-3.8.02c-3.41-.39-4.75-.99-7.18-3.36-4.5-7.28-6.34-17.87-4.51-26.22l.5-1.78q.07-3 0-6v-2l-14-1 2 4q.07 3.5 0 7l1 1q.18 3.12.2 6.25l.04 3.45A21 21 0 0 1 619 694a537 537 0 0 0-2.3 7.11c-.7 1.9-.7 1.9-1.7 2.9q-3.42.14-6.87.13l-2.18.01-7.16.02-4.95.01H583.4l-13.36.03-15.16.03h-10.85C541 704 541 704 539 702c-.78-7.1.66-13.69 4-20a72 72 0 0 1 14-12l-4.25 1.25-2.82.82c-2.92.93-2.92.93-5.5 1.98-13.25 5.28-31.67 5.94-45.43 1.95-5.07-2.24-8.24-4.33-10.56-9.44-1.01-8.28-.19-13.65 4.56-20.56h2l.68-1.77c1.7-2.87 3.68-4.14 6.44-5.98l2.76-1.86L507 635l-1.73-1.1c-13.08-8.53-13.08-8.53-15.27-12.9l-2.2-1.28c-3.3-2.03-5.9-4.49-8.62-7.22l-1.57-1.59c-6.17-6.33-11.09-13.35-15.62-20.9l-1.5-1.95c-1.85-2.54-3.1-5.24-4.5-8.06l-1.43-2.37a96 96 0 0 1-8.88-20.56c-.69-2.07-.69-2.07-1.67-4.49-3.44-8.78-4.76-18.28-6.01-27.58l-.37-2.38c-2.32-16.92-.48-38.29 9.37-52.62l1.75-2.98c2.56-3.45 4.99-5.1 8.69-7.27l3.37-2.02c5.52-3 9.26-4 15.63-3.98l3.87-.02A31 31 0 0 1 490 456l-.4-2-1.6-8-.56-2.67c-.46-2.49-.44-4.8-.44-7.33l-1-3q-.38-4.38-.62-8.75l-.16-2.39c-.28-4.78.02-9.1.77-13.86q.09-3.06 0-6.13c-.06-3.8.14-7.16 1-10.87l.47-2.1.48-2.09c2.83-12.74 2.83-12.74 3.44-18.3.68-3.84 1.94-6.99 3.44-10.56a197 197 0 0 0 3.87-10.76l1.25-3.77A82 82 0 0 0 502 335c2.9-7.94 7.19-15.47 11-23l3.09-6.19a651 651 0 0 1 3.28-6.46 88 88 0 0 0 6.01-14.4c.62-1.95.62-1.95 1.62-4.39 3.41-8.74 4.4-16.15 4-25.56-.35-.1-.35-.1-2.07-.67-3.76-1.7-6.66-4.05-9.86-6.64l-1.82-1.44q-2.63-2.11-5.25-4.25l-1.64-1.32c-6.2-5.02-11.4-10.82-13.37-18.68l-1.5-4.07c-3.79-11.65-3.79-23.59-3.76-35.7l-.03-5.25v-14.15l-.01-11.85q-.01-13.96 0-27.95 0-14.38-.04-28.78l-.01-24.78-.01-14.77q-.02-6.93 0-13.88l-.01-5.07c-.1-19.56-.1-19.56 5.64-26.49l2.56-2.14 2.51-2.18c5.05-3.67 8.77-5.34 15.05-5.13" fill="#161917"/><path d="m797 567 1 3 2.33-.21c9.92-.82 19.79-.94 29.74-.92l8.19-.01c15.27 0 30.38.46 45.49 2.83l3.33.52c14.75 2.43 29.41 6.29 42.92 12.79l3.15 1.45c12.24 6.02 23.04 15.01 28.85 27.55l1.24 2.47c5.48 12.5 3.61 27.24-1.05 39.69C954 674.47 935.83 684.94 918 692a164 164 0 0 1-35 9l-2.17.31c-43.63 6.02-43.63 6.02-59.25-4.99-5.2-4.33-7.26-8.97-7.89-15.63.63-7.48 2.8-13.42 8.31-18.69 8-5.51 16.14-7.23 25.68-7.49l5.01-.2q3.86-.14 7.73-.26c17.64-.57 40.35-1.82 53.58-15.05 1.62-3.24 1.55-6.49 1-10-3.53-6-8.72-8.36-15-11l-1.76-.75c-5.31-2.16-10.51-3.12-16.18-3.87l-2.55-.37q-3.75-.54-7.51-1.01l-1.99-.26c-5.46-.66-10.85-.91-16.35-.94l-2.66-.02q-4.25-.03-8.5-.03l-2.94-.01A468 468 0 0 0 786 614c-5.39.59-10.69 1.13-16.12 1.06l-2.83-.02L765 615l2.18-2.13c12.29-12.31 25.95-28.53 29.82-45.87" fill="#151817"/><path d="m517.38-.19 3.2.08L523 0v2l2.17.24c7.84 2.1 14.42 9.94 19.3 16.13C546 20 546 20 547.99 20.98c2.48 1.25 3.66 2.74 5.4 4.9A37 37 0 0 0 563 34l3 3q1.68 1.45 3.38 2.87c3.02 2.58 5.85 5.28 8.62 8.13 8.12 8.31 8.12 8.31 14.53 8.47l2.22.01a405 405 0 0 0 10.04.13l5.37.05 11.25.06c4.8.01 9.59.1 14.38.17a820 820 0 0 0 11.09.08q2.64.01 5.28.07c13.8.3 13.8.3 18.88-3.02A60 60 0 0 0 677 47c1.58-1.46 1.58-1.46 3.03-2.6 4.73-3.69 9.15-7.44 13.32-11.74 2.33-2.35 4.84-4.49 7.37-6.65q3.32-2.94 6.56-5.97C728.93-.02 728.93-.02 737.44-.5c7.1.36 12.9 4.07 18.1 8.72 2.63 3.17 3.5 6.84 4.47 10.78l1 3q.14 3.66.13 7.32v171.49c0 3.01-.16 5.3-1.13 8.2l-.32 2.61C757.55 222.2 751.57 232.5 743 239l-1.87 2.43c-2.92 3.53-6.4 5.95-10.13 8.57l-1.78 1.27c-3.94 2.73-3.94 2.73-6.23 2.73-4 7.14-1.88 14.67.15 22.21a73 73 0 0 0 3.86 9.8l2 4.55c2.1 4.8 4.5 9.44 6.87 14.1a266 266 0 0 1 10.04 21.68 136 136 0 0 0 3.16 7.1c2.54 5.66 4.15 11.62 5.92 17.56l1.63 5.06q.35 1 .66 2.04c.72 1.9.72 1.9 1.78 4 1.13 2.3 1.52 4.37 1.94 6.9l.5 2.87q.55 3.44 1 6.88c.5 3.25.5 3.25 1.5 5.25q.3 2.65.5 5.31c.22 2.8.44 5.45 1.03 8.18.53 2.82.54 5.4.47 8.26q-.05 2.62 0 5.25l1 1q.14 2.93.13 5.87v3.24c-.13 2.9-.13 2.9-1.13 5.9v2.92c0 3.07 0 3.07-.5 5-.5 2.07-.5 2.07-.43 5.5-.07 3.56-.7 5.36-2.08 8.57a164 164 0 0 0-1 7l3.13-1c8.56-2.1 18.26-2.36 26.37 1.41 10.86 6.86 17.42 15.04 20.5 27.6l.76 2.86C816.28 501 816.13 513.7 814 528l-.43 4.5c-.45 4-1.4 7.64-2.58 11.5l-.92 4.43a68 68 0 0 1-3.34 10.7c-1.02 2.6-1.87 5.23-2.74 7.87l1.99-.2c9.52-.92 19.01-1.04 28.59-1.05h2.58c15.15 0 29.86 1.05 44.85 3.25l4.84.62A155 155 0 0 1 931.99 583l3.2 1.5a75 75 0 0 1 8.68 5.56l2.94 2.1L949 594v2l1.68.12c6.88 2.6 11.27 12.63 14.43 18.87 3.7 8.3 6.82 19.21 3.88 28.01l-1 4q-.65 2.75-1.37 5.5l-.7 2.84A19 19 0 0 1 962 662l-1.25 1.82c-4.17 5.93-9.25 10.5-14.75 15.18l-1.8 1.57A55 55 0 0 1 935 687l-3.37 2c-13.65 7.75-30.15 11.91-45.63 14l-2.37.51c-2.68.5-5.18.67-7.88.74l-3.12.1q-7.03.14-14.04.22-3.7.06-7.4.16c-23.1.67-23.1.67-30.2-5.07-2.28-2.4-2.28-2.4-4-4.66l-1.43-1.7A23 23 0 0 1 811 676c2.87-7.22 6.02-14.12 12.93-18.13L826 657l2.43-1.5c9.32-3.92 19.98-3.79 29.95-4 14.5-.44 27.86-1.54 41.62-6.5l2.66-.94c3.89-1.52 6.09-2.79 8.97-5.87 1.8-4.17 1.98-5.92.37-10.19-8.07-7.2-18.66-9.86-29-12l-2.25-.5c-12.91-2.37-26.54-1.66-39.6-1.63h-24.91c-2.2.13-4.12.56-6.25 1.13a118 118 0 0 1-6.78-.07c-2.23.07-4.07.51-6.22 1.07h-6l-1 1q-2.93 0-5.88-.03c-2.77.04-5.38.53-8.12 1.03l-2.12.15c-8.37.6-13.04 3.73-18.87 9.85a311 311 0 0 1-5.54 4.67c-1.47 1.33-1.47 1.33-2.47 3.33l1.76.8A35 35 0 0 1 764 653c1.49 5.44 1.38 10.84-1 16-6.85 7.21-14.99 8.78-24.54 9.13-14 .28-29.5-.03-41.47-8.13l2.25 1.72c7.88 6.5 11.57 13 13.59 22.98.18 3.61-.48 5.98-1.84 9.3h-3q.1-1.46.18-2.97c.29-8.12.27-14.54-5.17-21.03-4.72-5.04-9.74-8.2-16-11v-8l1.94 1.13c14.7 8.32 28.17 12.23 45 12.18l3.33.05c6.91 0 14.5-.06 20.73-3.36 3-5.7 3.2-12.94 1.38-19.09-3.98-7.77-11.67-12.47-19.38-15.9l2-1.6a2424 2424 0 0 0 11.13-8.98l2.16-1.74 2.1-1.7 1.88-1.52C761 619 761 619 762.4 617.38c6.38-5.5 21.26-4.2 29.67-4.95l4.17-.38 8.13-.72q3.18-.28 6.32-.64c9.81-1.07 19.7-.93 29.56-.94h2.96c53.81 0 53.81 0 70.4 15.7 2.62 2.92 2.8 5.58 2.72 9.46-.59 3.75-2.46 5.85-5.34 8.1-8.67 5.54-18.06 7.86-28 10l-2.17.51c-3.82.65-7.63.77-11.49.91l-5.15.22-8.03.32c-26.25 1-26.25 1-36.15 10.03-4.05 5.8-5.58 11.98-5 19 1.75 5.63 3.83 9.87 9 13 8.7 4.43 17.9 5.37 27.57 5.31h2.98c32.45-.49 72.49-7.27 96.45-31.3 11.7-13.19 14.94-26.7 14.17-43.96-1-11.46-8.56-22.79-17.17-30.05-33.25-27.36-82.52-27.2-123.07-27.07l-7.85.02-19.09.05 1.25-3c3.5-8.59 6.37-16.9 8.33-25.98q.41-2 .88-3.98c5.1-22 5.62-47.38-6.46-67.04-4.66-6.64-11.25-9.9-19-12-8.75-1.1-16.62.54-25 3l2.25-17.97.4-3.18q.42-3.34.94-6.68c5.36-43.73-8.25-88.26-28.59-126.55-19.22-36.36-19.22-36.36-15-50.62 2.85-3.57 6.14-5.66 10-8q2.41-1.8 4.76-3.69 3.6-2.84 7.32-5.56c10.36-8.99 16.25-22.8 17.47-36.34.28-4.8.23-9.6.18-14.42v-5.47q.01-7.33-.05-14.68l-.02-15.42q-.02-12.93-.08-25.86-.1-16.58-.1-33.17 0-14.3-.06-28.6l-.01-9.16-.06-14.38-.02-5.27-.04-7.2V26.7c-.07-7.24-1.62-12.88-6.51-18.18-3.98-3.4-8.23-4.35-13.34-4.89C724.85 5 715.61 16.16 706.9 24.45q-5.92 5.63-12.07 10.97-3.45 3-6.83 6.08A840 840 0 0 1 675 53l-2.49 3.05c-6.07 5.15-15.12 3.94-22.66 3.96l-5.4.06q-5.65.04-11.29.04-7.18.02-14.37.18-5.56.1-11.14.08-2.63.01-5.3.08c-8.58.21-15.36.18-22.07-5.66A137 137 0 0 1 573 47q-2.05-1.9-4.18-3.69-4.45-3.86-8.83-7.8a554 554 0 0 0-8.87-7.89q-4.31-3.77-8.5-7.68C524.75 3.37 524.75 3.37 512.79 3.62c-5.26.71-8.87 3.21-12.34 7.16-3.94 5.27-4.58 9.31-4.58 15.67l-.01 2.31-.03 7.72-.01 5.53-.05 18.17-.01 6.26-.05 29.43q0 16.97-.06 33.93-.05 13.13-.06 26.25 0 7.83-.03 15.66-.05 7.38-.03 14.76l-.01 5.4c-.12 17.73 3.4 32.21 15.75 45.51 4.22 4.03 8.76 7.56 13.4 11.07l1.69 1.3q1.65 1.25 3.38 2.44c2.9 2.12 4.18 3.54 5.27 7 .63 20.28-11.3 40.04-20.7 57.4-5.52 10.4-9.54 21.27-13.3 32.41q-.37 1.14-.79 2.31a203 203 0 0 0-10.45 64l-.01 2.12c-.01 11.36.83 22.36 2.88 33.54.55 3 .95 6.01 1.37 9.03-6.51-.9-6.51-.9-9.32-1.5-9.49-1.76-17.63-1.13-26.06 3.67-9.97 6.93-14.25 17.23-16.44 28.9-3.4 20.58-.88 42.24 5.81 61.93l.64 1.9c7.55 22.23 19.98 41.34 36.37 58.1l1.9 2.01c7.1 7.41 15.24 13.3 24.05 18.54L513 635v2l-1.98.7c-8.28 3.1-13.48 6.4-18.02 14.3-1.74 5.54-2.17 11.71.5 16.93 6.55 5.4 13.64 5.53 21.75 5.38l3.1-.04c15.14-.28 29.99-3.29 43.01-11.35C563 662 563 662 565 662v8l-1.97.92c-7.87 3.77-13.85 7.32-18.05 15.25-1.97 5.72-1.88 11.83-1.98 17.83l-4-2c-.54-7.2.62-13.58 4-20a72 72 0 0 1 14-12l-4.24 1.25-2.82.82c-2.92.93-2.92.93-5.5 1.98-13.25 5.28-31.67 5.94-45.43 1.95-5.07-2.24-8.24-4.33-10.56-9.44-1.01-8.28-.19-13.65 4.56-20.56h2l.68-1.77c1.7-2.87 3.68-4.14 6.44-5.98l2.76-1.86L507 635l-1.73-1.1c-13.08-8.53-13.08-8.53-15.27-12.9l-2.2-1.28c-3.3-2.03-5.9-4.49-8.62-7.22l-1.57-1.59c-6.17-6.33-11.09-13.35-15.62-20.9l-1.5-1.95c-1.85-2.54-3.1-5.24-4.5-8.06l-1.43-2.37a96 96 0 0 1-8.88-20.56c-.69-2.07-.69-2.07-1.67-4.49-3.44-8.78-4.76-18.28-6.01-27.58l-.37-2.38c-2.32-16.92-.48-38.29 9.37-52.62l1.75-2.98c2.56-3.45 4.99-5.1 8.69-7.27l3.37-2.02c5.52-3 9.26-4 15.63-3.98l3.87-.02A31 31 0 0 1 490 456l-.4-2-1.6-8-.56-2.67c-.46-2.49-.44-4.8-.44-7.33l-1-3q-.38-4.38-.62-8.75l-.16-2.39c-.28-4.78.02-9.1.77-13.86q.09-3.06 0-6.13c-.06-3.8.14-7.16 1-10.87l.47-2.1.48-2.09c2.83-12.74 2.83-12.74 3.44-18.3.68-3.84 1.94-6.99 3.44-10.56a197 197 0 0 0 3.87-10.76l1.25-3.77A82 82 0 0 0 502 335c2.9-7.94 7.19-15.47 11-23l3.09-6.19a651 651 0 0 1 3.28-6.46 88 88 0 0 0 6.01-14.4c.62-1.95.62-1.95 1.62-4.39 3.41-8.74 4.4-16.15 4-25.56-.35-.1-.35-.1-2.07-.67-3.76-1.7-6.66-4.05-9.86-6.64l-1.82-1.44q-2.63-2.11-5.25-4.25l-1.64-1.32c-6.2-5.02-11.4-10.82-13.37-18.68l-1.5-4.07c-3.79-11.65-3.79-23.59-3.76-35.7l-.03-5.25v-14.15l-.01-11.85q-.01-13.96 0-27.95 0-14.38-.04-28.78l-.01-24.78-.01-14.77q-.02-6.93 0-13.88l-.01-5.07c-.1-19.56-.1-19.56 5.64-26.49l2.56-2.14 2.51-2.18c5.05-3.67 8.77-5.34 15.05-5.13" fill="#E1E3E2"/><path d="M673 495h1c1.03 6.5-2.42 10.91-6 16-2.19 2.81-4.38 5.58-7 8h-2l-2 4h-2v2l-8.85 5.16C641.23 533 641.23 533 639 533l.18 1.88c1.78 19.35 2.05 38.68 2.07 58.1l.02 5.98c.06 20.87-.71 41.45-4.27 62.04h-22a404 404 0 0 1-4-49l-.03-1.98c-.42-25.73.59-51.33 2.03-77.02l-2.47-1.21-6.48-3.2C593.8 523.24 585.29 514.3 580 504c-.7-2.77-.9-5.13-1-8q1.76 1.42 3.5 2.88l1.97 1.61L586 502v2l1.82.84c2.18 1.16 2.18 1.16 5.06 3.78 3.44 3.04 7.21 5.36 11.18 7.63l1.79 1.03c9.75 5.48 20.48 6.37 31.35 4.03A60 60 0 0 0 645 518l2.47-1.25A88 88 0 0 0 673 495" fill="#000"/><path d="m589 139 3.31 2.12c5.51 5.89 9.79 12.79 10.69 20.88l.24 2.13c.32 8.56-2.09 16.82-7.68 23.37A118 118 0 0 1 592 191l-2.38 2.25c-8.83 5.89-17.75 8.02-28.25 6.32-8.93-2.27-15.86-7.82-21.08-15.34-5.18-8.98-6.71-17.29-4.17-27.29 3.15-9.43 10.44-16.75 18.67-22.11 11.24-5.28 24.37-2.26 34.21 4.17m-43.52 5.1c-5.02 6.46-5.4 13.96-4.48 21.9 1.83 7.08 7.22 11.85 13 16 6.01 2.93 12.35 3.12 18.73 1.16 6.21-2.79 9.72-6.43 13.27-12.16l2-3c2.18-7.2 1.87-14.05-1.5-20.75-3.53-5.92-7.91-10.05-14.5-12.25-11.34-.95-18.72.67-26.52 9.1" fill="#ECC651"/><path d="M691.88 135.13q2.6 1.37 5.12 2.88l2.22 1.24c6.58 4.25 10.91 11.35 13.45 18.7 1.68 10.47.66 19.67-5.3 28.46A37.6 37.6 0 0 1 685 200c-10.22 1.03-17.36-.5-26-6l-1.9-1.2c-4.47-3.25-6.8-7.94-9.1-12.8l-1.12-2.25c-2.51-7.85-2.36-18.9 1.12-26.38 9.13-14.87 26.98-23.64 43.88-16.25m-36.81 9.75c-4.53 5.6-5.6 11.42-5.46 18.5 1.03 7.03 4.97 13.13 10.38 17.63l2.44 2.3c6.47 3.06 13.68 2.81 20.5.84 6.05-2.7 9.74-6.47 13.07-12.15l1.13-1.76c2.4-6.12 2.07-14.93-.15-21.08-3.83-6.19-9.58-9.95-15.99-13.15-11.1-1.12-18.23.74-25.92 8.87" fill="#EAC44F"/><path d="M739 474h1c.48 33.23-3.64 64.92-16 96l-1.49 4.03a538 538 0 0 1-6.86 17.76A221 221 0 0 0 708 614l-1.29 4.31-1.33 4.5-.63 2.1a174 174 0 0 0-5.61 27.58c-.59 4.44-1.15 8.43-3.14 12.51-3.81-.53-6.24-1.27-9-4-.84-7.87 1.78-16.41 3.69-24l.81-3.28c3.49-13.95 7.48-27.57 12.82-40.93 3.22-8.04 6.03-16.22 8.85-24.4q1.17-3.36 2.39-6.69a337 337 0 0 0 8.44-26.75l.7-2.56.62-2.28c.68-2.11.68-2.11 1.68-4.06a32 32 0 0 0 2.33-7.28l.73-3.15.75-3.37.79-3.46c2.61-11.56 5.04-23.17 7.4-34.79" fill="#000100"/><path d="M512 471c1.7 3.04 2.47 5.78 3.08 9.2l.57 3.13.6 3.36c3.5 18.75 7.63 37.19 14.01 55.19q1.48 4.31 2.89 8.65a721 721 0 0 0 13.41 37.51c19.67 50.77 19.67 50.77 18.44 72.96-1.69 1.94-1.69 1.94-4 3-2.75-.31-2.75-.31-5-1-1.22-4.55-2.2-9.04-2.94-13.69-1.05-6.52-2.5-12.9-4.06-19.31l-.48-2-1.52-6.31-.94-3.87c-1.12-4.05-2.53-7.9-4.06-11.82a2137 2137 0 0 1-13.94-38.06q-1.02-2.85-2.1-5.67a189 189 0 0 1-6.52-21.77l-.92-3.72a251 251 0 0 1-5.91-33.02c-1.06-10.86-.7-21.86-.61-32.76" fill="#000100"/><path d="m517.38-.19 3.2.08L523 0v2l2.17.24c7.84 2.1 14.42 9.94 19.3 16.13C546 20 546 20 547.99 20.98c2.48 1.25 3.66 2.74 5.4 4.9A37 37 0 0 0 563 34l3 3q1.68 1.45 3.38 2.87c3.02 2.58 5.85 5.28 8.62 8.13 8.12 8.31 8.12 8.31 14.53 8.47l2.22.01a405 405 0 0 0 10.04.13l5.37.05 11.25.06c4.8.01 9.59.1 14.38.17a820 820 0 0 0 11.09.08q2.64.01 5.28.07c13.8.3 13.8.3 18.88-3.02A60 60 0 0 0 677 47c1.58-1.46 1.58-1.46 3.03-2.6 4.73-3.69 9.15-7.44 13.32-11.74 2.33-2.35 4.84-4.49 7.37-6.65q3.32-2.94 6.56-5.97C728.93-.02 728.93-.02 737.44-.5c7.1.36 12.9 4.07 18.1 8.72 2.63 3.17 3.5 6.84 4.47 10.78l1 3q.14 3.66.13 7.32v171.49c0 3.01-.16 5.3-1.13 8.2v3h-2c-1.02-4.23-1.13-8.3-1.1-12.63v-2.3l.01-7.6.01-5.48.04-11.76.03-18.6q.04-26.47.1-52.92.04-14.62.05-29.23.01-9.25.05-18.49l.01-11.5.02-5.34.01-7.29.02-2.12c-.03-7.27-1.57-12.92-6.49-18.24-3.97-3.4-8.22-4.35-13.33-4.89C724.85 5 715.61 16.16 706.9 24.45q-5.92 5.63-12.07 10.97-3.45 3-6.83 6.08A840 840 0 0 1 675 53l-2.49 3.05c-6.07 5.15-15.12 3.94-22.66 3.96l-5.4.06q-5.65.04-11.29.04-7.18.02-14.37.18-5.56.1-11.14.08-2.63.01-5.3.08c-8.58.21-15.36.18-22.07-5.66A137 137 0 0 1 573 47q-2.05-1.9-4.18-3.69-4.45-3.86-8.83-7.8a554 554 0 0 0-8.87-7.89q-4.31-3.77-8.5-7.68C524.75 3.37 524.75 3.37 512.79 3.62c-5.26.71-8.87 3.21-12.34 7.16-3.98 5.33-4.58 9.4-4.55 15.81v2.36a2059 2059 0 0 0 .04 13.51l.02 12.14q.04 9.59.05 19.18.03 27.28.1 54.55l.04 30.12.06 19.08v11.86l.03 5.51v7.51l.02 2.22c-.01 3.68-.14 5.21-2.25 8.37-2-10.34-2.3-20.28-2.27-30.77l-.03-5.25v-14.15l-.01-11.85q-.01-13.96 0-27.95 0-14.38-.04-28.78l-.01-24.78-.01-14.77q-.02-6.93 0-13.88l-.01-5.07c-.1-19.56-.1-19.56 5.64-26.49l2.56-2.14 2.51-2.18c5.05-3.67 8.77-5.34 15.05-5.13" fill="#E6E9E8"/><path d="m701 148 1 2h4v2h2v4h2c1.07 3.46 1.1 6.64 1.06 10.25l-.02 3.27L711 172h-2l-1 10h-2v4h-2l-.06 2.19c-1.19 3.56-2.68 4.82-5.75 6.87-3.96 1.7-7.98 1.32-12.19.94v2h-14v-2h-2v-2h3l1-2h-4v-2h2v-2l3.75-.38c3.1-.39 5.66-.75 8.25-2.62l1-3c5.26-4 5.26-4 9-4v-2h2l1-3 2-1 .08-2.1.36-9.34.12-3.3.23-6.04C700 149 700 149 701 148" fill="#EEC852"/><path d="m797 567 1 3h11c1.78 5.33-1.67 10.13-4 15-4.23 8.27-8.72 16.24-14.69 23.4C789 610 789 610 788 612l2 1c-8.4 1.37-16.49 2.31-25 2l2.18-2.13c12.29-12.31 25.95-28.53 29.82-45.87" fill="#010201"/><path d="M734.88-.43c8.35-.01 14.46 3.13 20.64 8.65 2.63 3.18 3.5 6.85 4.48 10.78l1 3q.14 3.67.12 7.33l.01 2.28v169.2c0 3.02-.17 5.3-1.13 8.19v3h-2c-1.03-4.22-1.14-8.3-1.1-12.61v-2.3l.02-7.62V184l.03-11.77.04-18.6q.03-26.46.1-52.92.05-14.61.05-29.22l.05-18.5.02-11.51.01-5.33.01-7.3.02-2.11c-.04-7.27-1.56-12.92-6.49-18.24C745.2 3.74 738.03 3.4 731 3c2-3 2-3 3.88-3.43" fill="#EFF2F1"/><path d="m517.38-.19 3.2.08L523 0v2l2.38.37C528 3 528 3 530 5l-1 3-3.32-2C520.5 3.43 515.7 3.05 510 4c-6.18 2.36-9.62 6.47-13 12-1.2 3.6-1.12 6.85-1.1 10.6v2.35a2059 2059 0 0 0 .03 13.51l.02 12.14q.04 9.59.05 19.18.03 27.28.1 54.55l.04 30.12.06 19.08v11.86l.03 5.51v7.51l.02 2.22c-.01 3.68-.14 5.21-2.25 8.37-2-10.34-2.3-20.28-2.27-30.77l-.03-5.25v-14.15l-.01-11.85q-.01-13.96 0-27.95 0-14.38-.04-28.78l-.01-24.78-.01-14.77q-.02-6.93 0-13.88l-.01-5.07c-.1-19.56-.1-19.56 5.64-26.49l2.56-2.14 2.51-2.18c5.05-3.67 8.77-5.34 15.05-5.13" fill="#EDF0EE"/><path d="M632.4 184.91A31 31 0 0 1 637 188c.33 4.14.43 6.34-1.87 9.87C633 200 633 200 631 201l-2 7c-2 2-2 2-4.94 2.31-3.06-.31-3.06-.31-4.93-1.44-1.6-2.65-1.33-4.84-1.13-7.87l-1.75-.69c-2.93-1.71-4.45-3.44-6.25-6.31-.18-3.67.96-4.94 3.25-7.81 5.18-3.96 13.29-3.5 19.15-1.28" fill="#636663"/><path d="M694.54 136.54 697 138l2.2 1.25c6.6 4.26 10.94 11.35 13.47 18.7 1.45 9.07 1.07 18.05-3.67 26.05a33 33 0 0 1-5 5v-3h2v-4h2v-10l2-1v-15h-2v-4l-2.94-.93C702 150 702 150 701 149l-.03 2.05q-.08 4.6-.22 9.2l-.04 3.23-.1 3.1-.06 2.86c-.7 3.27-1.97 4.5-4.55 6.56h-2v2l-2-1 1.09-1.4c4.98-7.4 5.1-15.04 3.9-23.6-2.31-6.52-7.14-10.72-13.15-13.96a27.2 27.2 0 0 0-18.46-.14c-5.67 2.86-10.76 7.1-13.2 13.1-.55 1.94-.55 1.94-1.18 5l-4 1c1.24-8.11 6.83-13.75 13.16-18.67 10.63-6.92 23.1-7.76 34.38-1.8" fill="#DAB351"/><path d="m582 135-2 1-1 3-2.69-1.5c-6.1-2.59-13.32-2.55-19.68-.88-6.34 2.78-10.9 8.08-14.07 14.13-1.27 7.35-1.82 14.78 2.02 21.43 2.68 3.44 5.98 6.15 9.42 8.82l-2 3c-4.88-4.62-4.88-4.62-6-8h-2v-2h-4c.35 5.89 1.66 8.09 6 12l1 3 3 1v2h2v2h6v2c2.59.86 4.34 1.18 7.01 1.32l7.09.37 5.9.31c-5.04 3.36-10.8 2.52-16.63 1.57-8.93-2.26-15.87-7.82-21.08-15.34-5.18-8.98-6.71-17.29-4.17-27.29 3.15-9.43 10.44-16.75 18.67-22.11 7.44-3.5 19.88-3.4 27.21.17" fill="#CDBE8B"/><path d="M616 662h20l-.11 5.81-.08 7.63-.07 3.82c-.08 9.4.91 16.85 6.26 24.74-3.02-.91-4.65-1.53-6.55-4.11-3.8-8.35-6.05-17.83-3.45-26.89q.06-3 0-6v-2l-14-1 2 4q.06 3.5 0 7l1 1q.18 3.13.19 6.25l.04 3.45A21 21 0 0 1 619 694q-.83 2.4-1.62 4.81l-.79 2.4L616 703l-5 1 1.08-2.31c3.87-8.95 4.55-16.24 4.23-26l-.07-4.02q-.08-4.84-.24-9.67" fill="#EFF0EF"/><path d="M580 136c6.44.17 10.65 3.57 15 8 4.23 5.8 7.51 10.64 7 18h-2v-6h-2l-1-6h-4l.07 2.23.05 2.96.08 2.92c-.21 3.05-1.03 5.08-2.2 7.89-.34 2.63-.5 5.24-.66 7.89L590 176l-2 1-1-2-1 3h-4l-2 4h-4v2h-6c3-2 3-2 4.83-2.97 5.75-3.16 9.26-7.15 12.17-13.03 2.31-9.09 1.38-15.47-3.39-23.55A101 101 0 0 0 579 138z" fill="#E5C25E"/><path d="M758 71h1l.03 2.09.31 19.8.16 10.17c.19 12.89.39 25.76 1.03 38.64.58 11.84.62 23.66.6 35.51q-.01 5.41.01 10.81l-.01 6.9.01 3.25-.01 2.99v2.62C761 206 761 206 760 209v3h-2a44 44 0 0 1-1.08-10.76l.02-3.49.04-3.8.03-4.02.09-10.9.09-11.39.18-21.57.21-24.56z" fill="#F2F5F4"/><path d="M911.75 623.69c3.24 3.07 4.17 4.48 4.62 9.06-.09 3.68-.86 6.06-3.49 8.8-7.62 5.86-17.22 9.92-26.88 9.45 2.28-2.66 3.87-3.43 7.31-4a35 35 0 0 0 10.69-4l2.63-.81c3.48-1.74 4.67-3.72 6.37-7.2.31-3.5.31-3.5-1-7-8.06-7.2-18.67-9.85-29-12l-2.32-.51c-3.33-.6-6.62-.78-9.99-.98-5.27-.32-10.46-.75-15.69-1.5v-1c17.96-2.8 42.54-.5 56.75 11.69" fill="#E3E3E4"/><path d="m766.26 615.7 2.43.12c.4 0 .4 0 2.45.08l1.86.1v3l-3.13-.25c-6.78.44-10.32 4.59-14.87 9.25a311 311 0 0 1-5.55 4.67C748 634 748 634 747 636l1.75.8A34.6 34.6 0 0 1 764 653c.61 2.4.84 4.52 1 7h-2l-1 3-.38-2.31c-1.62-8.11-4.18-13.4-10.62-18.7a98 98 0 0 0-11-6l2-1.58q5.57-4.47 11.12-8.97l2.17-1.75 3.98-3.22c1.73-1.47 1.73-1.47 3.31-3.14C764 616 764 616 766.26 615.7" fill="#E9EBEB"/><path d="M758 361c2.01 3.02 2.43 4.51 3 8l.5 2.88q.55 3.42 1 6.87c.5 3.25.5 3.25 1.5 5.25q.3 2.66.5 5.31a61 61 0 0 0 1.03 8.19c.53 2.81.53 5.39.47 8.25q-.07 2.63 0 5.25l1 1q.14 2.94.12 5.88l.01 3.24C767 424 767 424 766 427q-.06 3 0 6l-2 1c-1.47-2.94-1.14-5.9-1.14-9.12l-.05-4.49-.03-2.39c-.18-13.86-1.09-26.94-4.14-40.52-1.32-5.94-1.83-10.49-.64-16.48" fill="#EDF0EE"/><path d="m884.5 569.38 2.39.38a214 214 0 0 1 26.11 6.06l2.54.7A68 68 0 0 1 932 584v2a481 481 0 0 1-10.51-3.59c-22.13-7.7-44.1-11.32-67.49-12.41v-1l5.44-.5 3.06-.28c7.53-.48 14.55-.1 22 1.15" fill="#D8DADA"/><path d="M495 210h2l.62 3.25c4.05 15.77 14.53 25.74 27.05 35.21l1.67 1.29q1.66 1.25 3.4 2.38c2.31 1.61 4.04 3.02 4.76 5.81.16 2.26.12 4.42 0 6.68l-.03 2.32c-.11 3.82-.31 5.82-2.47 9.06-1.1-7.02-1.1-13.91-1-21l-2.07-.67c-3.76-1.71-6.67-4.05-9.87-6.64l-1.8-1.44L512 242l-1.65-1.31c-6.19-5.02-11.38-10.82-13.35-18.69l-1.12-2.44c-1.12-3.26-1.01-6.14-.88-9.56" fill="#E0E0E2"/><path d="M539 157h1l.3 1.69c1.99 10.15 5.49 15.93 13.7 22.31l-2 3c-4.88-4.62-4.88-4.62-6-8h-2v-2h-4c.35 5.89 1.66 8.09 6 12l1 3 3 1v2h2v2h6v2c2.59.86 4.34 1.18 7.01 1.32L578 198c-5.04 3.36-10.8 2.52-16.63 1.57-9.95-2.52-17-9.02-22.37-17.57-2.4-4.28-1.93-7.24-1-12h2l-.5-1.7c-.53-2.43-.6-4.57-.56-7.05l.02-2.42z" fill="#CFB86E"/><path d="M932 583a73 73 0 0 1 11.88 7.06l2.92 2.1L949 594v2l1.69.12c6.86 2.6 11.26 12.63 14.41 18.88 3.68 8.17 5.99 16.38 2.9 25h-1l-.41-3.66c-2.12-16.88-7.44-30.44-21.18-41.4A76 76 0 0 0 932 587z" fill="#E3E5E5"/><path d="M732.44 2.75 734 4l-2.87 1c-9.42 4.12-16.9 12.47-24.24 19.46a368 368 0 0 1-12.07 10.96q-3.44 3.01-6.82 6.08c-11.93 10.76-11.93 10.76-18 15.5.58-3.25 1.44-4.78 3.88-6.99l1.78-1.63 1.9-1.69 1.95-1.77q5.65-5.13 11.44-10.12 4.07-3.6 8.05-7.3 5.93-5.47 12-10.75 2.26-1.98 4.47-4.04c12.32-11.39 12.32-11.39 16.97-9.96" fill="#DDDFDF"/><path d="M756 209h2c1.56 5.08.54 8-1.7 12.56L755 224l-1.39 2.62c-2.99 5.3-5.8 8.72-10.61 12.38l-1.88 2.44c-2.92 3.52-6.39 5.94-10.12 8.56l-1.78 1.27C725.28 254 725.28 254 723 254l-2 4h-2l-1 2c.22-3.67.81-4.82 3.55-7.36q1.65-1.21 3.33-2.39l3.56-2.64 1.81-1.33c14.27-10.45 21.33-20.36 25.75-37.28" fill="#E4E6E4"/><path d="M565 662v8l-1.98.92c-7.86 3.77-13.85 7.32-18.05 15.26-1.96 5.71-1.88 11.82-1.97 17.82l-4-2c-.55-7.19.61-13.58 4-20a72 72 0 0 1 14-12l-2-2c7.08-6 7.08-6 10-6" fill="#DCDCDE"/><path d="m803 565 1 2 1.94-.21c9.01-.88 17.98-.98 27.02-.98l7.8-.03c8.61-.03 16.83.12 25.24 2.22v1h-65z" fill="#EEEFF0"/><path d="M966 631h1l.38 2.44.62 2.56 2 1c-.55 8.5-3.07 15.48-7 23l-1.72 3.35c-2.32 4.01-5.3 6.94-8.72 10.03l-1.69 1.61c-3.17 2.9-5.41 4.69-9.87 5.01a66 66 0 0 1 7.39-6.82c12.32-10.28 15.83-23.59 17.31-38.85z" fill="#DDE0DC"/><path d="m632 664 4 1-.05 2.15-.14 9.79-.07 3.38c-.08 8.96 1.17 16.17 6.26 23.68-3.02-.91-4.65-1.53-6.55-4.11-3.8-8.35-6.05-17.84-3.45-26.89q.06-3 0-6z" fill="#EEF1F2"/><path d="M694 147c3.51 3.36 4.19 5.44 4.39 10.36.17 8.34-.75 14.07-6.39 20.64-3.03 2.96-5.9 4.84-10 6-2.31-.38-2.31-.38-4-1 1.33-2.66 2.43-2.61 5.19-3.56 5.62-2.35 7.97-6.23 10.81-11.44h-2c1-3 1-3 3-5 .23-2.43.23-2.43.19-5.31l-.02-2.87A47 47 0 0 0 694 147" fill="#261E0F"/><path d="m711 154 4 1v24l-3 1c-1.06 2.69-1.06 2.69-2 6l-2 6h-4v2h-2l-2 4h-8q2.94-2.25 5.96-4.36c7.01-4.94 12.28-10.99 14.04-19.64.43-6.78.26-13.32-1-20" fill="#291B09"/><path d="M586 165c.97 2.56 1.16 3.63.07 6.18-4.28 6.42-8.7 10.36-16.07 12.82-6.34.52-11.5.57-17-3v-1h21v-2a31 31 0 0 1 8-4l.44-2.38C583 169 583 169 584 167h2z" fill="#2B200D"/><path d="m679.38 132.88 3.76.05 2.86.06v5q-1.05-.22-2.1-.47c-8.14-1.47-15.87-1.7-22.97 2.92-5.53 4.44-8.5 8.6-9.93 15.56-1.33.32-2.63.66-4 1 1.24-8.12 6.84-13.75 13.16-18.68 6.2-4.04 11.75-5.58 19.22-5.44" fill="#AFAA8C"/><path d="M813 674h1l.3 2.6c1.84 14.08 1.84 14.08 7.35 18.82 4.7 3.27 9.58 4.66 15.13 5.9l2.22.68 1 2c-5.56.79-10.13 1.08-15.11-1.79-6.75-5.45-11.78-10.61-13.89-19.21-.25-3.75-.25-3.75 0-7z" fill="#ECECEA"/><path d="M803 469h3c2.63 4.92 4.66 9.55 6 15l.75 2.87c2.27 9.1 4.5 18.84 2.25 28.13l-2-1c-.44-2.33-.44-2.33-.71-5.4l-.34-3.39-.63-7.05c-1-10.01-3.74-18.23-8.32-27.16z" fill="#E4E7E3"/><path d="M704 145c5.92 4.93 8.52 10.76 9.39 18.41.25 8.15-.52 15.76-5.77 22.31-1.37 1.4-1.37 1.4-3.62 3.28v-3h2v-4h2v-10l2-1v-15h-2v-4h-2v-4h-2z" fill="#DFC370"/><path d="M439 499h1l.15 2.38.73 10.87.23 3.74c.48 6.9 1.2 13.62 2.49 20.42.4 2.57.47 4.99.4 7.59h-3l-.4-2.89-.54-3.8-.52-3.76c-.44-2.88-.95-5.7-1.54-8.55-1.62-8.86-.32-17.2 1-26" fill="#DFE2DF"/><path d="m885 650.44 2.31.3 1.69.26v1c-14.95 3.15-29.8 3.14-45 3v-1h8v-2l1.71-.07 7.79-.37 2.69-.11c4.08-.2 8.1-.45 12.15-1.01a31 31 0 0 1 8.66 0" fill="#D6D8D9"/><path d="m899 617-1 3-2.44-.88c-4.14-1.3-8.31-2.24-12.56-3.12l-2.32-.53a86 86 0 0 0-9.99-.97c-5.27-.32-10.46-.75-15.69-1.5v-1c14.57-2.28 30.39-.75 44 5" fill="#E8ECEA"/><path d="m650 154 .15 2.38c.41 5.81.97 11.1 2.85 16.62l-3-1v-4h-2c.96 9.41.96 9.41 2 14h2v2h2l-1 4c-6.09-6.72-7.51-13.56-7.38-22.31l-.03-2.42c.03-5.82.03-5.82 1.87-8.02C649 154 649 154 650 154" fill="#DDC77D"/><path d="M734.88-.43c8.35-.01 14.46 3.13 20.64 8.65 2.63 3.18 3.5 6.85 4.48 10.78l1 3-4-1-.63-3.06a20 20 0 0 0-9.19-12.01C742 3.77 736.58 3.33 731 3c2-3 2-3 3.88-3.43" fill="#E4E6E5"/><path d="M943 681c-2.39 2.64-4.91 4.25-8 6l-3.38 2c-5.89 3.35-12.74 7-19.62 7 1-3 1-3 4.21-4.61q2.08-.87 4.17-1.7a132 132 0 0 0 17.48-8.72C940 680 940 680 943 681" fill="#E4E6E6"/><path d="M761 657c2.12 2.06 2.12 2.06 4 5-.28 3.8-.99 6.02-3.75 8.71-5.22 4.06-9.79 6.66-16.55 6.27l-2.96-.16-3.05-.2-3.11-.17q-3.8-.21-7.58-.45v-1l3.77-.11c20.78-.76 20.78-.76 26.23-3.89 1.72-3.21 2.3-6.22 2.62-9.81l.23-2.4z" fill="#DEE0DF"/><path d="M539 157h1l.3 1.69c1.99 10.15 5.49 15.93 13.7 22.31l-2 3c-4.88-4.62-4.88-4.62-6-8h-2v-2h-4v4l-3-1 1-7h2l-.5-1.7c-.53-2.43-.6-4.57-.56-7.05l.02-2.42z" fill="#E5CA71"/><path d="M686 134c6.7 1.66 11.61 3.66 17 8l-1 2h-2v-2h-2v-2h-4v4h2l-1 3-3.31-2.81-1.87-1.58L688 141l-1.79-1.45L685 138c.31-2.19.31-2.19 1-4" fill="#D8B964"/><path d="M648 168h2l.31 1.94.69 2.06 3 1c1.59 2.22 2.72 4.58 4 7h-2l-2 4h-2v-2h-2c-2.4-4.65-2.2-8.91-2-14" fill="#E8C664"/><path d="m569.06 132.75 2.1-.02c4.06.01 7.2.48 10.84 2.27l-2 1-1 3-2.69-1.5c-6.07-2.58-13.48-2.69-19.75-.74A47 47 0 0 0 546 144c1.5-4.47 5.04-6.78 9-9 4.7-1.95 9.02-2.31 14.06-2.25" fill="#B1A786"/><path d="M489 432h1l4 28-7-1 4-1-.62-1.69c-3.12-8.84-3.93-15.2-1.38-24.31" fill="#E0E1E1"/><path d="m658 192 1.94.88c3.94 1.44 7.95 2.28 12.06 3.12v2h14v-2h8c-4.22 4.22-9.99 4.24-15.69 4.5-7.45-.08-13.16-2.34-19.31-6.5z" fill="#CEBA6B"/><path d="M658 180c4 2 4 2 5.71 3.06 3.14 1.29 5.84 1.17 9.23 1.13l3.65-.02c2.93-.15 5.56-.5 8.41-1.17-1 3-1 3-2.67 4.18-2.97 1.04-5.44 1.01-8.58.94l-3.27-.05L668 188v-2h-8v-4h-2z" fill="#E1C561"/><path d="M812 502h1q.55 5.38 1.06 10.75l.32 3.08.28 2.97.27 2.73c.07 2.41-.25 4.17-.93 6.47l-.31 2.5c-.86 3.1-2.3 4.42-4.69 6.5l.44-4.12.24-2.33q.33-2.61.82-5.21c.68-4.56.86-9.11 1.06-13.72l.13-2.8z" fill="#D7DAD8"/><path d="M754 160h1a8385 8385 0 0 1 .72 30.05 2007 2007 0 0 1 .35 14.42 368 368 0 0 0 .13 6.04c-.21 2.63-.86 4.23-2.2 6.49l-2-1 .48-3.8c.6-5.45.74-10.88.84-16.36l.06-3.12.18-9.78.13-6.67z" fill="#1C1E1D"/><path d="M566 132h16v2h9l-1 4h2v2h2v2h2l-1 4-2-2.19c-6-6-13.34-9.82-21.81-10.43l-2.96-.23L566 133z" fill="#261B0C"/><path d="m555 666 2 1c-4.38 5.59-9.27 6.47-16 8l-2.28.7c-4.59 1.39-7.35 1.27-11.72-.7v-1l2.1-.26c21.21-3.05 21.21-3.05 25.9-7.74" fill="#D7DAD8"/><path d="M565 662v8l-10 4-1-2 3-2-2-2c7.08-6 7.08-6 10-6" fill="#EFEFF0"/><path d="M487 403h1l1 35c-3.38-3.38-3.38-3.38-3.58-7.25l-.14-2.52-.09-2.67-.12-2.71A71 71 0 0 1 487 403" fill="#EEF1F0"/><path d="M580 136c6.06.3 9.51 3.28 14 7l-2 1-1.75-1.44A14 14 0 0 0 584 140v2h2v2h2v7a157 157 0 0 1-6.19-8.75l-1.6-2.42L579 138z" fill="#D6BC6F"/><path d="M563 672c-2 3-2 3-4.25 4.25-3.67 2.33-6.06 5.38-8.75 8.75l-4-2c10.11-13.3 10.11-13.3 17-11" fill="#1E1F1F"/><path d="M468 595a263 263 0 0 1 10.31 10.81l2.68 2.96L483 611l-1 2c-3.53-1.48-5.56-3.44-8.06-6.31l-2.04-2.3A43 43 0 0 1 467 597z" fill="#E9EBE9"/><path d="M489 400h1l1 11h1q.12 4.13.19 8.25l.07 2.36.03 2.28.05 2.1C492 428 492 428 489 432z" fill="#252826"/><path d="M531 272h1a54 54 0 0 1-3.81 15.94l-.75 2.03c-.77 1.93-.77 1.93-2.44 5.03-2.2.94-2.2.94-4 1a191 191 0 0 1 7-16q.53-2 1-4 .95-2.03 2-4" fill="#EAEBEC"/><path d="M602 162h1c.61 9.2-1.12 18.07-7.25 25.25L593 190l-1-4h2v-2h2v-3h2v-7h2v-4h2z" fill="#D5BC70"/><path d="M760 384h1c2.11 9.82 2.24 19.27 2.12 29.25l-.02 4.61q-.03 5.57-.1 11.14h-1l-1-30-2 1c0-5.46.18-10.59 1-16" fill="#464846"/><path d="M756 209h2c1.59 5.16.45 8.16-1.81 12.81A76 76 0 0 1 751 230l-3-1 1.75-2.69c3.11-5.37 4.57-11.37 6.25-17.31" fill="#DEE1E2"/><path d="M616 662h20l-1 3-17-1v10h-1c-1.03-4.27-1-7.37-1-12" fill="#F4F6F2"/><path d="m882 569 1 3-2.03-.18A838 838 0 0 0 854 570v-1c9.49-.9 18.57-1.61 28 0" fill="#D5D5D6"/><path d="M587 168h1c.18 3.95.09 6.6-2 10h-4l-2 4h-4v2h-6c3-2 3-2 4.83-2.97 5.24-2.89 7.98-6.12 11.04-11.24z" fill="#D1BC69"/><path d="M810 534h3c-.85 6.97-2.74 13.37-5 20l-2-1c.7-6.58 1.9-12.71 4-19" fill="#E3E6E4"/><path d="M657 178c2.39.58 4.67 1.22 7 2v2h12v2l4 1c-8.53.66-14.58.75-21.52-4.59L657 179z" fill="#30250C"/><path d="M757 644c4.38 4.03 7.79 7.73 8.19 13.88L765 660h-2l-1 3-.59-2.52-.79-3.29-.77-3.27C759 651 759 651 757 648z" fill="#EDEFEF"/><path d="M773 616v3l-3.12-.25c-4.56.29-6.38 1.39-9.88 4.25-1.88 2.25-1.88 2.25-3 4l-2-1c2.77-8.3 9.85-11.19 18-10" fill="#EBEEEA"/><path d="m654 146 2 3-2 2c-1.24 3.45-1.13 6.86-1.12 10.5l-.01 3.41c.11 2.56.38 4.65 1.13 7.09h2v2c-3-1-3-1-4.69-3.94-2.99-7.75-1.58-15.63 1.69-23.06z" fill="#281D0F"/><path d="M760 445h1l1 11 2.88-.12C768 456 768 456 770 458l-12 3z" fill="#D9DBDA"/><path d="M488 393h2l-1 34h-1l-.08-2.09q-.17-4.74-.36-9.47l-.12-3.29c-.35-9.07-.35-9.07-1.1-13.24C486 396 486 396 488 393" fill="#D0D3D2"/><path d="m719 675 24 1-1 2-7.56.06-2.14.03A77 77 0 0 1 719 677z" fill="#EDF0ED"/><path d="M575 136a74 74 0 0 1 7 5l-2 2-2-1v-2l-3.75.25c-3.36.02-4-.05-6.75-2.25l-1.5-2c3.66-1.22 5.28-1 9 0" fill="#291F0C"/><path d="M677 130a79 79 0 0 1 5.06.94l2.79.59 2.15.47v1l-2.93.08c-8.19.35-14.6 1.32-22.07 4.92q-2.5 1.02-5 2c5.61-6.29 10.89-8.3 19-9z" fill="#161105"/><path d="M760 654h1q.12 2.84.19 5.69l.1 3.2c-.33 3.51-1.2 5.3-3.29 8.11-2.19 1.31-2.19 1.31-4 2l-1-3 1.94-1.5c2.88-3.49 2.76-6.03 3.06-10.5h2z" fill="#222424"/><path d="M812 492c1.45 1.04 1.45 1.04 3 3 .55 3.4.55 3.4.75 7.38l.23 3.96A32 32 0 0 1 815 515l-2-1c-1.26-7.2-1.15-14.71-1-22" fill="#EFF0EC"/><path d="m632 664 4 1-1 22h-1l-.18-2.55-.26-3.33-.24-3.3C633 675 633 675 632 673q-.06-3 0-6z" fill="#DEE0E1"/><path d="M699 155h1q.16 4.13.25 8.25l.1 2.36c.1 5.78.1 5.78-2.24 8.94C696 176 696 176 694 176v2l-2-1 1.02-1.51c4.09-6.58 5.19-12.85 5.98-20.49" fill="#DFC373"/><path d="M645 162h1l.15 2.6c.4 6.07.84 11.64 2.85 17.4-3.23-.56-5.02-1.33-7-4v-4h3z" fill="#342D1A"/><path d="m903 643 1 4-5.62 2-3.17 1.12a28 28 0 0 1-9.21.88c2.3-2.69 3.91-3.43 7.38-4a22.5 22.5 0 0 0 9.62-4" fill="#E5E6EA"/><path d="M966 631h1l.38 2.44.62 2.56 2 1c-.59 9.59-.59 9.59-4 13-1-1-1-1-1.02-2.77l.14-2.27.15-2.45.17-2.57.16-2.59z" fill="#D4D5D5"/><path d="M883 570c13.75 1.17 13.75 1.17 18 2l1 2c-4.48 1.29-7.81.61-12.31-.44l-3.8-.87L883 572z" fill="#E5E6E7"/><path d="M444 542a52 52 0 0 1 3.69 9l.82 2.56c.51 2.56.33 4-.51 6.44-4.02-4.76-5.13-9.94-6-16h2z" fill="#DADADC"/><path d="M439 499h1v23c-3-3-3-3-3.11-6.65a155 155 0 0 1 .36-4.29l.16-2.17c.27-3.38.61-6.64 1.59-9.89" fill="#ECEFEE"/><path d="M672 133h14v5c-4.69-.91-9.34-1.95-14-3z" fill="#C5B17B"/><path d="M755 674c-2.39 2.39-3.99 2.99-7.36 3.02l-2.75-.14-2.97-.15-3.11-.17-3.14-.16-7.67-.4v-1l3.98-.18 5.21-.26 2.62-.12c3.45-.17 6.73-.35 10.12-1.04 2.07-.4 2.07-.4 5.07.6" fill="#CFD2CF"/><path d="m803 565 1 2 28 1v1h-31z" fill="#F5F7F7"/><path d="M472 454c7.1-.31 12.68-.45 19 3v1l-4.38.06-2.46.04C482 458 482 458 480 457a104 104 0 0 0-4.62-.56l-2.48-.26-1.9-.18z" fill="#E6E9E8"/><path d="M542 166h2v4h2v2h2v2h4v4l2 1c-4 0-4 0-5.89-1.57l-1.8-2.12-1.82-2.07c-1.63-2.45-2.11-4.35-2.49-7.24" fill="#211607"/><path d="m507 2 3 1-1.62 1.19c-7.81 5.95-7.81 5.95-10.38 9.81h-3c1.52-3.8 3.77-5.77 6.94-8.31l2.65-2.18zm-13 12 1 4-2-2z" fill="#E6E9E7"/><path d="M495 210h2l.81 3.44c1.15 4.61 2.63 9.08 4.19 13.56-3-1-3-1-4.17-2.82-2.21-5.01-3.3-8.7-2.83-14.18" fill="#D6D8D8"/><path d="M538 156h1l1 14h-2l-1 5c-1.78-3.06-2.23-5.22-2.12-8.75l.05-2.42.07-1.83 2 2z" fill="#C3AC60"/><path d="M616 691c3 4 3 4 2.81 6.11l-.81 2.08-.75 2.1C616 703 616 703 611 704z" fill="#E9EBEC"/><path d="M733 303c3 1 3 1 4.39 3.18l1.3 2.7 1.32 2.67C741 314 741 314 741 317c-3-1-3-1-4.39-3.18l-1.3-2.7-1.32-2.67C733 306 733 306 733 303" fill="#EAEEEC"/><path d="M533 256h1l.12 8.31.06 2.38.02 2.3.03 2.11C534 273 534 273 532 276c-1.06-6.38-1.99-14.02 1-20" fill="#D5D8D7"/><path d="M769 454h15v3h-16z" fill="#ECEFED"/><path d="M743.24 3.67q2.9 1.1 5.76 2.33v1l-6.25-.38-3.51-.2A16 16 0 0 1 732 4c3.6-1.8 7.43-1.47 11.24-.33" fill="#1E221E"/><path d="m650 184 1.5 2.12c3.12 3.59 6.65 6.13 10.5 8.88l4 3a154 154 0 0 1-9-2l-.25-1.88c-.75-2.12-.75-2.12-2.69-3.24L652 190l-2-2z" fill="#2D2110"/><path d="M561 130h15v2l-16 1z" fill="#140D07"/><path d="M490 658h1l.26 2.01c.96 6.01 1.92 9.19 6.74 12.99-4 0-4 0-6.19-1.12-2.48-2.57-2.6-4.35-2.81-7.88.44-3.38.44-3.38 1-6" fill="#D9D9DA"/><path d="M817 611c-2.32 2.44-3.61 3.52-7 4q-3 .07-6 0l-1-3c4.67-1.21 9.21-1.09 14-1" fill="#E3E5E6"/><path d="M658 180c4 2 4 2 5.75 3.03 2.87 1.23 5.39 1.39 8.5 1.59l3.27.23 2.48.15v1h-18v-4h-2z" fill="#CDB669"/><path d="m542 168 1.12 1.56c3.37 4.38 6.93 8.58 10.88 12.44l-2 2c-4.88-4.62-4.88-4.62-6-8h-2v-2h-2z" fill="#D1B96E"/><path d="M635 690c2.15 3.22 3.5 6.44 5 10q.97 2.01 2 4c-3.52-.95-4.79-1.69-6.88-4.75-1.25-3.62-1.08-5.59-.12-9.25" fill="#DCDEDF"/><path d="M966 623h2q.58 2.84 1.12 5.69l.64 3.2c.26 3.35-.27 5.13-1.76 8.11h-1z" fill="#EFEFF0"/><path d="M534 258h1l1 6h1c.18 5.22-.03 9.07-2 14a19 19 0 0 1-1.1-7.01l.01-2.3.03-2.38.01-2.41z" fill="#292C2B"/><path d="M594 145c4.63 4.26 7.83 7.92 8.19 14.38L602 162h-2v-6h-2l-1.44-3.81-.81-2.15q-.91-2.5-1.75-5.04" fill="#DCC375"/><path d="M456 462a32 32 0 0 1-5 7.75l-1.56 1.86C448 473 448 473 446 473c5.3-11 5.3-11 10-11" fill="#E6E8E8"/><path d="M758 361c1.98 2.97 2.4 4.58 3 8l1 3-3 3c-2.21-5.2-1.93-8.58-1-14" fill="#EFF3EF"/><path d="m890 697-1 3q-2.4.33-4.81.62l-2.71.36C879 701 879 701 876 699c9.41-2.3 9.41-2.3 14-2" fill="#20241E"/><path d="M506 327h2c-.54 4.56-1.79 7.97-4 12-1.12-1.73-1.12-1.73-2-4 .68-2.14.68-2.14 1.88-4.25l1.17-2.14z" fill="#EBEBED"/><path d="M655 143c0 4.95-2.29 8.94-5 13l-3 1c1.25-6.1 3.7-9.55 8-14" fill="#BBB494"/><path d="m710 18 3 1-12 11-1-3z" fill="#D6D7D8"/><path d="M733 0c2.09-.4 2.09-.4 4.5-.38l2.41-.02L742 0l2 3h-13z" fill="#F4F7F4"/><path d="M864 654h8v3h-19v-1l11-1z" fill="#28292A"/><path d="m725 7 3 1c-4.43 5.78-4.43 5.78-7.31 6.88L719 15v-3c2.81-2.75 2.81-2.75 6-5" fill="#1C1E1E"/><path d="M557 667c-2.88 3.41-4.37 4.87-8.81 5.81L545 673c1-3 1-3 3-4.2l2.44-1.05 2.43-1.08C555 666 555 666 557 667" fill="#DFE1DF"/><path d="M687 661c1.94.62 1.94.62 4 2 .75 3.12.75 3.12 1 6-1.94.56-1.94.56-4 1-1-1-1-1-1.1-2.85z" fill="#DFE2DF"/><path d="M504 631a93 93 0 0 1 9 4v2l-7 2 1-4-4-3z" fill="#DDDDE0"/><path d="M756 369h2c.88 6.15.88 6.15 1 8l-1 1q-.06 3 0 6a20 20 0 0 1-2.69-8.62l-.26-2.36C755 371 755 371 756 369" fill="#2D302C"/><path d="M727 249v3l-1.88.75c-2.47 1.46-3.07 2.63-4.12 5.25h-2l-1 2c0-2.12 0-2.12 1-5 2.5-2.25 5.2-4.14 8-6" fill="#DDE0DB"/><path d="M921 690c-3.34 2.23-6.09 3.16-10 4l-3-2c8.26-3.63 8.26-3.63 13-2" fill="#1E201F"/><path d="M502 337c1.12 1.58 1.12 1.58 2 4-.68 3.23-.68 3.23-1.88 6.75l-1.17 3.55-.95 2.7h-1c-.35-6.33.71-11.1 3-17" fill="#DBDDDE"/><path d="M686 196h8c-3.42 3.42-7.72 3.95-12.44 4.12L679 200l1-2h6z" fill="#DAC56F"/><path d="m503 7 2 2-1 2h-2v4l-5 1c1.31-3.94 2.92-6.23 6-9" fill="#222621"/><path d="m887 701-2 3c-2.82.29-2.82.29-6.12.19l-3.33-.08L873 704l1-2a58 58 0 0 1 13-1" fill="#F4F8F3"/><path d="M813 674h1v14c-3.69-4.91-3.47-6.13-3-12z" fill="#F3F4F4"/><path d="M750 638c2.63 1.52 4.84 2.84 7 5l-1 4-7-6z" fill="#DDDFE0"/><path d="M462 585a69 69 0 0 1 7 10l-2 2c-4.9-6.07-4.9-6.07-5.31-9.94z" fill="#DBDDDB"/><path d="m459 461 2 3-9 6-2-1z" fill="#242627"/><path d="M694 140h4v2h2v2h-2v3l-3 1 1-4h-2z" fill="#E4BE54"/><path d="M814 684q3.88 5.77 7 12c-1.75-.06-1.75-.06-4-1-2.35-2.92-4.14-5.63-3.75-9.44z" fill="#DBDEDB"/><path d="m755 624 1 2c-2.39 3.24-4.2 5.51-8 7l-2-2z" fill="#E1E4E3"/><path d="M753 355c2.12 3.53 2.53 6.94 3 11l-3-1c-1.37-2.74-1.13-4.97-1-8z" fill="#282B27"/><path d="M739 317c1.92.33 1.92.33 4 1 1.89 4.06 2.21 7.57 2 12a39 39 0 0 1-4.12-8.19l-1.08-2.73z" fill="#DFE2E0"/><path d="M538 149c1.14 3.41.87 4-.44 7.19l-.87 2.17L536 160h-2v2l-2-1 1-5h2z" fill="#151108"/><path d="M491 656a53 53 0 0 1 3.62 8.75l.79 2.42.59 1.83c-1.94-.38-1.94-.38-4-1-1.26-2.52-1.1-4.31-1.06-7.12l.02-2.76z" fill="#252528"/><path d="m761 373 .38 1.56c.81 3.17 1.71 6.3 2.62 9.44h-4a220 220 0 0 1-.62-4.38l-.36-2.46L759 375z" fill="#E5E8E4"/><path d="M492 372h2l-2 13c-2.22-3.32-2.19-3.88-1.69-7.62l.3-2.42C491 373 491 373 492 372" fill="#DDDDDF"/><path d="M522 249c5.05.45 7.48 2.56 11 6v3h-2v-3l-2.25-.75c-2.95-1.34-4.6-2.86-6.75-5.25" fill="#E9EAEA"/><path d="M702 140h4v4h4l-1 4c-3.36-1.39-5.07-2.92-7-6z" fill="#191204"/><path d="M938 681a14.6 14.6 0 0 1-8 5l-3-2c3.83-2.71 6.33-3.33 11-3" fill="#1D2020"/><path d="m523 245 3 1v3l2.31.25c3.21.9 3.98 1.97 5.69 4.75-3.54 0-4.41-.73-7.19-2.81l-2.17-1.58L523 248z" fill="#222423"/><path d="M540 185h2a32 32 0 0 1 3 3.38 78 78 0 0 0 5 5.62l-4 1v-3h-2v-2h-2v-2h-2z" fill="#291A0A"/><path d="M586 165c.75 1.62.75 1.62 1 4-1.88 3.25-1.88 3.25-4 6h-1c-.2-3.72-.15-4.77 2-8h2z" fill="#1F1906"/><path d="m686 134 9 3v1q-2.5.06-5 0l-1-1-2 3-2-2z" fill="#D7BF72"/><path d="M541 693h1l1 11-4-2z" fill="#F1F1F3"/><path d="m710 673 11 1c-2 2-2 2-3.95 2.2L711 676z" fill="#DDDFDE"/><path d="m761 653 4 2v5h-2l-1 3z" fill="#F5F7F6"/><path d="m587 197-3 1v2h-9c4.02-2.68 7.26-4.58 12-3" fill="#2A1B0A"/><path d="m699 193 2 1-1 4h-8c2.3-1.74 4.6-3.4 7-5" fill="#312310"/><path d="m700 188 4 1c-3.13 3.39-5.57 5.61-10 7v-2l6-2z" fill="#DFC66B"/><path d="m822 662 2 1c-1.45 3.83-3.43 5.12-7 7 1.19-3.38 2.28-5.65 5-8" fill="#252526"/><path d="m824 657 2 1c-1.38 3.34-2.85 5.19-6 7l-3-1z" fill="#E7E8E8"/><path d="M938 589a27 27 0 0 1-9 1l-1-3c4.18-1.39 6.13.18 10 2" fill="#1E201F"/><path d="m491 429 2 1v9l-3-1z" fill="#1E1F20"/><path d="M753 220h1c.37 5.42.37 5.42-1.5 8.38L751 230l-3-1 3.03-5.27A89 89 0 0 0 753 220" fill="#D5D8D6"/><path d="m884.63 650.44 2.48.3 1.9.26v1l-10 1-1-2c2.51-1.26 3.85-.92 6.62-.56" fill="#DEDEE1"/><path d="M588 138h4v2h2v2h2l-1 4c-2.65-2.58-4.94-4.92-7-8" fill="#35240B"/><path d="M709 692h1l.44 3.38C711 699 711 699 712 701l-1 3h-3z" fill="#BDBFBE"/><path d="M719 675h9v3l-9-1z" fill="#E7E9E8"/><path d="m751 624 3 1-5 5-3-2c2.31-2.06 2.31-2.06 5-4" fill="#222423"/><path d="M809 518h1l1 10c-3-3-3-3-3.25-6.12C808 519 808 519 809 518" fill="#1E2120"/><path d="M498 348h1c.12 7.62.12 7.62-1 11h-2c.88-7.62.88-7.62 2-11" fill="#E2E4E5"/><path d="M538 152h2c.96 2.88 1.11 4.7 1.06 7.69l-.02 2.45L541 164h-1l-.38-3.44L539 157l-2-1z" fill="#C5B281"/><path d="M489 654h2l-1 10-2-1c-.12-6.75-.12-6.75 1-9" fill="#F0F0F1"/><path d="M459 580c2.1 2.36 2.97 3.55 3.19 6.75L462 589c-2.88-2.38-3.61-4.3-4-8z" fill="#E3E6E2"/><path d="M441 537h2l1 7h-3q-.57-2.99-1-6z" fill="#E7E9E8"/><path d="M708 180h2c-1.31 3.94-2.92 6.23-6 9v-3h2v-4h2z" fill="#D5BA71"/><path d="M687 132h5v2l2 1c-3.62 1.21-4.64.54-8-1z" fill="#2B230A"/><path d="M681 46h2a40 40 0 0 1-5 8l-2-1c1.52-2.63 2.84-4.84 5-7" fill="#1D1F1E"/><path d="m537.19 670.94 1.8 1.06c-2.63 1.46-3.88 2-7 2v-3c3-1 3-1 5.2-.06" fill="#1F211F"/><path d="m896 651-5 4-2-4c3.13-1.04 3.99-.93 7 0" fill="#262629"/><path d="M914 629h2v8l-3-1z" fill="#DADBDB"/><path d="M492 453c1.46 2.65 2 3.89 2 7l-7-1 1.94-.75c2.06-1.25 2.06-1.25 2.81-3.37z" fill="#BABDBA"/><path d="M750 346c2.13 3.19 2.5 5.27 3 9l-2 1-1.06-3.88-.6-2.17C749 348 749 348 750 346" fill="#222522"/><path d="M509 320h2c-.55 3.37-1.05 5.08-3 8l-2-3c1.38-2.5 1.38-2.5 3-5" fill="#E4E4E7"/><path d="M656 179c-.31 1.94-.31 1.94-1 4l-3 1v-2h-2v-2c2.08-.55 3.84-1 6-1" fill="#F3CC61"/><path d="M542 166h2v4h2v2h2l-1 3c-3.25-2.83-4.52-4.69-5-9" fill="#312207"/><path d="m706 146 4 2v2h2l-1 4c-2.25-2.69-3.88-4.65-5-8" fill="#2E210D"/><path d="M511 0c3.62-.19 3.62-.19 7 0l-1 2c-2.65.59-5.29.74-8 1z" fill="#F5F9F5"/><path d="M614 697h2l-1 7-4-1z" fill="#E3E3E5"/><path d="m707 684 3 1 1 6-2 1z" fill="#EBEEEC"/><path d="m698 672 5 3-1 3-6-4z" fill="#D7D9D4"/><path d="M810 534h3q-.39 3.51-1 7l-2 1c-.8-3.29-1.1-4.71 0-8" fill="#ECEFED"/><path d="M657 193a29 29 0 0 1 9 5 154 154 0 0 1-9-2z" fill="#251609"/><path d="M582 194h5c-1.97 2.52-2.97 2.99-6.19 3.69L578 198v-2h4z" fill="#DDC378"/><path d="M586 161c2 3 2 3 1.62 5.19L587 168l-3-1c.88-4.88.88-4.88 2-6" fill="#2A2717"/><path d="m651 145 1 2-4 6c-1.33-2.67-.67-4.17 0-7z" fill="#141105"/><path d="m656 137 2 4-4 3-2-1v-3l4 1z" fill="#252519"/><path d="M553 138v3c-2.22 2.22-4.08 2.93-7 4 4.75-5.88 4.75-5.88 7-7" fill="#0B0A05"/><path d="M693 136h8l-1 4-7-3z" fill="#2D1E09"/><path d="M528 6v1h-8l-1-2c3.77-1.26 5.37-.37 9 1" fill="#1F221F"/></svg>