<svg style="background:transparent" version="1.1" xmlns="http://www.w3.org/2000/svg" viewBox="0 0 1248 704"><path d="m516.06-.62 2.93-.03c5.93.1 9.51.7 14.01 4.65l1 2 2.44 1.38c2.8 1.76 3.17 2.76 4.56 5.61l1.87.95c2.13 1.05 2.13 1.05 4 3.44C549 20 549 20 551.94 21.94c2.83 1.9 4.5 3.75 6.58 6.42 2.44 2.7 5.42 4.73 8.33 6.9a30 30 0 0 1 4.96 5.06c2.14 2.63 3.27 3.27 6.2 4.67q.9 1.18 1.86 2.38c3.34 4.14 6.45 6.38 11.76 7.2l4.1.08 2.27.05a458 458 0 0 0 9.98.14q6.75.09 13.51.13 6.92.03 13.85.23 5.37.08 10.74.1 2.55 0 5.1.1c8.34.23 14.88.16 21.41-5.5 2.1-2.03 4.06-4.14 6-6.34 2.36-2.6 4.98-4.9 7.6-7.25q1.5-1.36 2.98-2.73 3.87-3.52 7.77-7.01 5.82-5.25 11.56-10.57 6.07-5.62 12.18-11.18l2.4-2.18c5.7-4.86 15.43-3.36 22.52-2.97 4.2.57 6.51 2.3 9.16 5.48L756 6.99l1.87 2.38c4.01 9.36 3.41 19.26 3.37 29.22l.01 5.33-.02 14.45v15.15q0 12.71-.03 25.42l-.02 29.37v31.3l-.02 9v14.17q-.03 2.59-.02 5.19c.01 16.24-.44 30.02-11.49 43C748 233 748 233 746.57 235.5c-1.75 2.78-3.53 4.31-6.13 6.3l-2.67 2.06L735 246l-5.44 4.38c-2.48 2-4.9 3.86-7.56 5.62-3.73 13.56 3.72 30.08 10 42l2 2a82 82 0 0 1 1.5 3.94c2.4 6.26 5.62 12.07 8.88 17.94a66 66 0 0 1 5.84 14.33c.9 3.25 1.92 6.44 2.93 9.66q.59 1.8 1.16 3.69 1.2 3.74 2.37 7.48c10.33 32.94 12.48 68.07 5.32 101.95q1.5-.47 3.03-.98c6.21-1.76 12.58-1.21 18.97-1.01l2.57.06c3.62.23 5.31.84 8.11 3.2L797 463l2.44 2.31c13.8 14.49 16.41 32.9 16.62 52.21-.16 6.33-1.65 12.34-3.06 18.48q-.82 4.27-1.56 8.57c-1.2 6.66-2.66 13.05-5.5 19.25l-1.04 2.26q-.93 1.98-1.9 3.91l2.67-.01c9.94-.07 19.83.26 29.77.84.4.01.4.01 2.37.13 31.01 1.77 63.32 5.26 91.2 20.04q.84.47 1.72.92c13.95 8 26.3 21.26 31.1 36.74 2.47 11.1 2.2 24.25-3.52 34.33a111 111 0 0 1-3.69 4.93C953 670 953 670 952 672.08c-3.89 7.51-14.3 13.14-20.99 17.91l-2.26 1.63c-15.72 10.36-32.42 13.62-50.89 13.45l-6.12.01q-6.33.02-12.67-.04-8.1-.05-16.2.04-6.28.02-12.56 0-3-.01-5.98.01c-15.39.12-15.39.12-20.08-2.8-4.28-4.7-6.19-9.99-6.27-16.3.58-7.72 3.8-13.14 9.47-18.3 9.73-8.35 19.26-8.98 31.55-9.53 40.5-1.87 40.5-1.87 56.23-9.78C898 647 898 647 900 647l.87-1.87C902 643 902 643 904 641c.4-3.62.64-6.01-1.38-9.12-20.84-14.88-51.19-14.22-75.7-14.09q-5.26.04-10.53.03l-6.77.01h-3.14c-5.24.03-10.36.26-15.57.92-2.96.38-5.93.55-8.9.75l-3.63.26q-3.06.21-6.1.38c-4.94.36-7.9 1.15-11.28 4.86l-.44 2.13L760 629q-3 1.02-6 2c-2.78 1.86-5.4 3.9-8 6 2.4 1.99 4.66 3.82 7.4 5.3 5.02 3.3 7.97 8.38 10.6 13.7 1.06 5.18.54 9.38-1.13 14.38-3.87 5.4-7.5 8.13-14 9.27-10.92 1.32-21.08 1.92-31.87-.65l-3.82-.86c-4.4-1.1-8.43-2.82-12.56-4.7l-2.15-.97A187 187 0 0 1 691 669l-1 2 2.18.33c6.8 1.65 10.75 6.25 14.82 11.67 4.41 7.46 5 11.8 5 21h-75c-6.07-12.12-6.86-21.75-4-35l1-2h-16l.65 3.51q.44 2.31.85 4.63l.43 2.3c1.08 5.98 1.8 11.29-.3 17.14l-.78 2.18q-1.4 3.64-2.85 7.25h-77c1.1-9.83 2.6-16.49 9-24l.37-2.18.63-1.83c2.62-1 2.62-1 6-2 6.61-3.23 6.61-3.23 8-6q-1.41.81-2.87 1.62c-17.59 9.53-39 14.64-58.78 9.41-4.96-1.55-8.28-3.56-11.27-7.82-2.32-4.73-2.69-8.56-1.5-13.68 2.58-7.54 7.65-14.9 14.92-18.59l2.5-.93c-3.53-3.7-6.59-6.4-11-9v-2l-3 1-1.13-1.57c-3.7-4.81-7.42-9.1-12.12-13-5.59-4.84-9.5-10.7-13.62-16.77q-1.5-2.16-3.07-4.25c-5.18-6.94-8.63-14.52-12.06-22.41l-1.45-3.27c-10.16-23.65-17.02-57.73-8.83-82.96 4.92-11.65 14.1-21.1 25.73-25.93 5.38-1.77 9.65-1.8 15.23-.96l2.05.27c4.98.7 4.98.7 7.27 1.85l-.4-2.81c-1.6-11.2-1.6-11.2-2.1-14.96-.5-3.23-.5-3.23-1.5-6.24-1.7-25.4 1.61-50.3 8.38-74.74L495 358l.58-2.1c.42-1.9.42-1.9.42-4.9a87 87 0 0 1 2.88-6.94c6.02-13.27 6.02-13.27 7.6-20.18.76-2.76 2.41-4.93 3.94-7.31 10.83-17.6 22.1-38.75 20.4-59.88-1.27-2.62-3.3-3.3-5.82-4.7-9.59-6.49-18.35-14.06-24.47-23.96-1.69-2.24-3.07-2.8-5.53-4.03-1.27-3.47-2-6.3-2-10q0-3.9-.04-7.81-.15-34.68-.22-69.37-.04-17.8-.12-35.63a8060 8060 0 0 1-.09-31.1q0-8.23-.06-16.46-.06-7.75-.04-15.48 0-2.84-.03-5.67c-.1-11.85.27-20.93 8.72-30.06 4.56-3.51 9.4-3.23 14.94-3.04" fill="#181B17"/><path d="M741 0c3.78-.55 5.88-.72 9.14 1.38 6.65 5.69 9.63 10.9 10.86 19.62.29 5.86.26 11.72.24 17.59l.01 5.34-.01 14.44-.01 15.14-.02 25.43q-.03 14.69-.02 29.36l-.02 31.32v9l-.02 14.16v5.19c0 16.24-.45 30.02-11.5 42.99-1.65 2.04-1.65 2.04-3.08 4.56-1.75 2.77-3.53 4.31-6.13 6.29l-2.67 2.06L735 246l-5.44 4.38A107 107 0 0 1 722 256c-3.72 13.57 3.72 30.09 10 42l2 2q.8 1.95 1.5 3.94c2.4 6.27 5.62 12.07 8.88 17.93a66 66 0 0 1 5.84 14.34c.91 3.25 1.92 6.45 2.94 9.65l1.16 3.69 2.36 7.49C767.01 389.99 769.17 425.1 762 459l3.04-.99c6.2-1.77 12.57-1.22 18.96-1.01l2.57.05c3.62.24 5.32.85 8.12 3.2L797 463l2.44 2.31c13.8 14.48 16.42 32.9 16.62 52.22-.16 6.32-1.65 12.33-3.06 18.47q-.81 4.28-1.56 8.56c-1.21 6.68-2.65 13.07-5.5 19.25l-1.04 2.27A177 177 0 0 1 803 570l2.67-.03a477 477 0 0 1 32.14.98c31.01 1.78 63.33 5.27 91.19 20.05l1.73.91c13.95 8 26.29 21.27 31.09 36.73 2.49 11.12 2.2 24.26-3.51 34.34a109 109 0 0 1-3.69 4.93C953 670 953 670 952 672.07c-3.89 7.53-14.32 13.15-21 17.93l-2.25 1.62c-15.73 10.36-32.43 13.62-50.9 13.44l-6.11.03q-6.34.01-12.67-.05-8.1-.05-16.21.03-6.27.04-12.56 0l-5.98.02c-15.38.11-15.38.11-20.07-2.8-4.29-4.7-6.2-9.98-6.27-16.29.57-7.72 3.79-13.16 9.46-18.31 9.73-8.35 19.27-8.97 31.55-9.52 40.5-1.87 40.5-1.87 56.24-9.79C898 647 898 647 900 647l.88-1.88C902 643 902 643 904 641c.4-3.62.64-6.01-1.38-9.12-20.83-14.89-51.19-14.22-75.7-14.09l-10.52.02-6.78.02-3.13.01c-5.25.03-10.37.25-15.58.92-2.96.37-5.93.55-8.91.74l-3.62.26q-3.05.23-6.1.38c-4.94.36-7.9 1.16-11.28 4.86l-.44 2.12L760 629l-6 2c-2.78 1.86-5.4 3.9-8 6 2.4 1.99 4.66 3.82 7.41 5.29 5.02 3.31 7.97 8.4 10.59 13.71 1.06 5.19.54 9.39-1.12 14.38-3.87 5.41-7.51 8.14-14 9.28-10.93 1.3-21.08 1.91-31.88-.66l-3.82-.85c-4.4-1.11-8.43-2.84-12.56-4.71l-2.15-.96A187 187 0 0 1 691 669l-1 2 2.19.31c6.79 1.66 10.75 6.26 14.81 11.69 3.13 5.29 5.14 9.97 5.06 16.19l-.02 2.73L712 704h-2l-.26-2.27c-1.31-9.56-3.41-17.4-11.12-23.67A47 47 0 0 0 687 672v-8a101 101 0 0 1 10.75 4.94c5 2.51 9.84 4.63 15.25 6.06l2.3.62c12.41 2.8 28.84 3.46 40.7-1.62 3.04-2.47 3.85-4.7 4.31-8.6.28-6.66-.3-11.07-4.4-16.43-4.56-4.7-9.82-7.67-15.91-9.97v-2a75 75 0 0 1 4.69-2.94 92 92 0 0 0 14.63-11.33c6.57-5.87 14.05-6.11 22.47-6.97 3.63-.86 4.79-2.02 7.21-4.76h2l.69-2a52 52 0 0 1 6.31-11h2v-4h2l.69-2.94A36.4 36.4 0 0 1 812 575l-14-1a224 224 0 0 1 4.11-11.4c8.71-22.36 15.6-56.04 6.14-79.29-2.89-6.32-6.38-11.89-11.56-16.56l-2.18-2.02c-5.84-4.03-12.23-4.07-19.07-4.04l-2.5-.05c-5.13-.01-8.42.72-12.94 3.36h-2l1.37-10.94.28-2.31a452 452 0 0 1 .86-6.29 203 203 0 0 0 1.8-29.27v-2.24c-.04-11.56-.82-22.64-3.31-33.95l-.62-3.21c-2.3-11.12-5.95-21.98-9.38-32.79l-.78-2.47a110 110 0 0 0-5.16-13.09l-.87-1.86c-2.46-5.16-5.04-10.25-7.61-15.34-15.49-30.62-15.49-30.62-16.58-41.24l-.39-3.18c-.57-8.36-.57-8.36 1.76-11.89A53 53 0 0 1 726 249q3.01-2.2 6-4.44l3.1-2.31c11.23-8.72 19.03-20.22 21.44-34.43.47-3.9.61-7.71.6-11.62l.01-2.29.01-7.54.02-5.43.02-14.71.01-9.2.03-28.8q0-16.6.05-33.2.03-12.85.03-25.7l.03-15.33q.02-7.21.01-14.43l.01-5.28c.11-19.78.11-19.78-5.56-27.67C748.32 3.36 745.54 2.39 741 1z" fill="#191D18"/><path d="M673 496h1c.33 4.81-.46 7.54-2.88 11.69l-1.61 2.82A165 165 0 0 1 666 516h-2v2h-2v2c-5.48 5-5.48 5-8 5v2l-6 2v2l-8 3 .09 1.89c.8 17.73 1.14 35.44 1.16 53.18v4.15c.04 23.7-.87 47.18-3.25 70.78h-23c-2.59-18.02-3.71-35.8-3.97-53.98l-.1-5.88c-.36-23.76.8-47.42 2.07-71.14l-2.37-.44c-7.62-1.62-15.04-7.31-20.63-12.56v-2h-2l-1-4h-2l-.81-2.31C583 509 583 509 581.44 507.62c-2.25-2.54-2.13-5.33-2.44-8.62 2.87 1.29 4.98 2.57 7 5v2l1.81.25c2.8.96 3.49 2.39 5.19 4.75l3 1v2l4 1v2l2.38.75c3.78 1.31 7.46 2.8 11.16 4.35 10.53 3.85 21.19 2.24 31.17-2.34q3.67-1.84 7.29-3.76l4-2v-2q2.48-1.54 5-3l1.69-1.69L664 506h2l.69-1.62c1.75-3.18 3.9-5.66 6.31-8.38" fill="#000100"/><path d="M741 0c3.78-.55 5.88-.72 9.14 1.38 6.65 5.69 9.63 10.9 10.86 19.62.29 5.86.26 11.72.24 17.59l.01 5.34-.01 14.44-.01 15.14-.02 25.43q-.03 14.69-.02 29.36l-.02 31.32v9l-.02 14.16v5.19c0 16.24-.45 30.02-11.5 42.99-1.65 2.04-1.65 2.04-3.08 4.56-1.75 2.77-3.53 4.31-6.13 6.29l-2.67 2.06L735 246l-5.44 4.38A107 107 0 0 1 722 256c-3.72 13.57 3.72 30.09 10 42l2 2q.8 1.95 1.5 3.94c2.4 6.27 5.62 12.07 8.88 17.93a66 66 0 0 1 5.84 14.34c.91 3.25 1.92 6.45 2.94 9.65l1.16 3.69 2.36 7.49C767.01 389.99 769.17 425.1 762 459l3.04-.99c6.2-1.77 12.57-1.22 18.96-1.01l2.57.05c3.62.24 5.32.85 8.12 3.2L797 463l2.44 2.31c13.8 14.48 16.42 32.9 16.62 52.22-.16 6.32-1.65 12.33-3.06 18.47q-.81 4.28-1.56 8.56c-1.21 6.68-2.65 13.07-5.5 19.25l-1.04 2.27A177 177 0 0 1 803 570l2.67-.03c9.95-.06 19.84.28 29.77.84l2.37.14c31.01 1.78 63.33 5.27 91.19 20.05l1.73.91c13.95 8 26.29 21.27 31.09 36.73 2.49 11.12 2.2 24.26-3.51 34.34a109 109 0 0 1-3.69 4.93C953 670 953 670 952 672.07c-3.89 7.53-14.32 13.15-21 17.93l-2.25 1.62c-5.74 3.78-12.01 6.25-18.37 8.76l-2.72 1.08c-5.48 2.08-9.8 2.94-15.66 2.54 3.4-2.27 6.85-3.36 10.69-4.62 19.85-6.79 41.78-17.73 51.75-37.18a54.3 54.3 0 0 0 3.72-35.8c-6.58-16.77-20.04-28.12-36.23-35.32a294 294 0 0 0-6.81-2.77l-2.1-.83c-11.47-4.33-23.1-7.08-35.2-8.86l-6.25-.95a249 249 0 0 0-37.38-3.05l-10.81-.18-7.38-.13-18-.31q1.89-5.76 4.11-11.4c8.71-22.36 15.6-56.04 6.14-79.29-2.89-6.32-6.38-11.89-11.56-16.56l-2.18-2.02c-5.84-4.03-12.23-4.07-19.07-4.04l-2.5-.05c-5.13-.01-8.42.72-12.94 3.36h-2l1.37-10.94.28-2.31a452 452 0 0 1 .86-6.29 203 203 0 0 0 1.8-29.27v-2.24c-.04-11.56-.82-22.64-3.31-33.95l-.62-3.21c-2.3-11.12-5.95-21.98-9.38-32.79l-.78-2.47a110 110 0 0 0-5.16-13.09l-.87-1.86c-2.46-5.16-5.04-10.25-7.61-15.34-15.49-30.62-15.49-30.62-16.58-41.24l-.39-3.18c-.57-8.36-.57-8.36 1.76-11.89A53 53 0 0 1 726 249q3.01-2.2 6-4.44l3.1-2.31c11.23-8.72 19.03-20.22 21.44-34.43.47-3.9.61-7.71.6-11.62l.01-2.29.01-7.54.02-5.43.02-14.71.01-9.2.03-28.8q0-16.6.05-33.2.03-12.85.03-25.7l.03-15.33q.02-7.21.01-14.43l.01-5.28c.11-19.78.11-19.78-5.56-27.67C748.32 3.36 745.54 2.39 741 1z" fill="#DBDDDE"/><path d="m512 0-1.75.84c-6.63 3.41-10.84 6.87-13.47 13.96-1.69 6.9-1.33 14.06-1.3 21.12l-.02 5.42q-.02 7.32 0 14.64v15.39q-.01 12.93.02 25.86.02 14.89-.01 29.78-.03 12.83-.01 25.66.02 7.65-.01 15.29-.01 7.2.02 14.4v5.24c-.09 18.63 1.99 35.29 15.09 49.46 4.12 3.93 8.73 7.16 13.43 10.35 9.56 6.55 9.56 6.55 10.74 11.91.05 11.68-3.06 21.05-7.73 31.68l-.97 2.22a223 223 0 0 1-9.22 18.74c-6.8 12.17-11.44 24.82-15.81 38.04l-.91 2.75c-5.55 16.99-10.15 34.87-10.26 52.84l-.01 2.1-.01 6.69v2.3c.02 11.23.44 22.21 2.19 33.32l.58 3.96q.67 4.53 1.42 9.04l-2.68-.66c-15.66-3.63-23.91-2.82-37.63 5.72-12.53 13.7-13.53 31.55-13.1 49.17 1.78 38.41 19.38 73.78 46.41 100.77a189 189 0 0 0 11 9l1.62 1.25c9.68 7.4 9.68 7.4 12.38 8.75v2l-1.98.92c-7.18 3.44-13.38 6.62-17.02 14.08-.94 3.05-1.13 5.81-1.12 9l-.01 2.56c.13 2.38.23 4.24 1.13 6.44 11.81 7.8 29.88 6.08 43.1 3.49A78 78 0 0 0 563 664h2v8l-2.16 1.03c-8.47 4.29-15.63 9.69-18.84 18.97-.52 3.99-.81 7.98-1 12h-4c.6-9.3 2.88-16.82 9-24l.38-2.19.62-1.81c2.63-1 2.63-1 6-2 6.62-3.23 6.62-3.23 8-6l-2.87 1.61c-17.58 9.53-39.01 14.65-58.78 9.42-4.96-1.56-8.28-3.57-11.27-7.83-2.32-4.73-2.69-8.55-1.51-13.68 2.6-7.55 7.66-14.9 14.93-18.58l2.5-.94c-3.53-3.69-6.59-6.4-11-9v-2l-3 1-1.12-1.56c-3.71-4.82-7.42-9.12-12.13-13-5.59-4.85-9.49-10.7-13.61-16.79q-1.5-2.16-3.08-4.25c-5.18-6.93-8.63-14.51-12.06-22.4l-1.45-3.28c-10.16-23.64-17.02-57.72-8.83-82.95 4.92-11.66 14.1-21.1 25.74-25.93 5.38-1.78 9.64-1.8 15.23-.96l2.05.27c4.97.71 4.97.71 7.26 1.85l-.4-2.82C488 445 488 445 487.5 441.22 487 438 487 438 486 435c-1.7-25.41 1.61-50.32 8.38-74.76L495 358l.58-2.11C496 354 496 354 496 351a87 87 0 0 1 2.88-6.94c6.03-13.28 6.03-13.28 7.6-20.18.76-2.76 2.41-4.92 3.94-7.32 10.83-17.59 22.11-38.73 20.39-59.87-1.26-2.62-3.29-3.29-5.81-4.69-9.59-6.5-18.34-14.07-24.46-23.97-1.7-2.24-3.07-2.81-5.54-4.03-1.26-3.48-2-6.3-2-10l-.03-7.81q-.16-34.68-.23-69.37-.03-17.82-.12-35.64-.07-15.54-.09-31.09 0-8.23-.06-16.46-.04-7.74-.04-15.49l-.03-5.67c-.19-19.91-.19-19.91 7.34-28.45C503.58.15 506.46-.68 512 0" fill="#D8DBD9"/><path d="M579.07 130.65c7.9 2.89 14.1 8.55 18.93 15.35l1.63 2.25a36 36 0 0 1 2.53 24.96c-3.58 10.37-9.06 17.95-19.01 22.86-8.9 3.85-17.26 4.35-26.33.87-10.2-4.7-16.58-11.8-20.63-22.2-2.85-9.54-1.74-18.94 2.8-27.74 9.32-14.81 23.27-19.9 40.08-16.35m-34.91 11.5c-4.1 6.54-3.85 13.36-3.16 20.85a27 27 0 0 0 4 8l1.82 2.75c4.6 4.74 10.1 7.4 16.68 7.63 7.15-.07 12.72-2.07 18.13-6.8a31 31 0 0 0 7.7-21.04c-1.01-7.73-5.46-13.3-11.26-18.16-11.54-7.7-25.63-3.43-33.91 6.78" fill="#E2BB49"/><path d="M697.38 134.1c7.1 5.15 13.98 13.02 15.62 21.9.85 12.48-.27 22.18-8.37 32.25-7.13 7.67-16.13 10.2-26.31 11.06-8.68-.15-17.22-4.28-23.33-10.3-8.2-10.07-10.25-20.17-9.28-32.89 1.2-8.65 7.66-15.86 14.28-21.12 11.3-7.07 25.83-7.57 37.38-.9m-42.9 8c-4.03 5.2-5.07 10.82-4.83 17.31 1.12 8.34 4.84 14.4 11.35 19.6 5.63 4.14 12.3 3.81 19 3 6.85-2.12 12.17-5.92 16-12 3.3-6.6 3.16-15.47 1.35-22.56-2.82-6.22-7.78-9.95-13.53-13.33-11.75-3.46-21.12-.88-29.35 7.97" fill="#E2BC4B"/><path d="M740 472h1c.25 14.81-.06 29.31-2 44l-.44 3.34c-1.16 7.71-3.12 15.23-5.08 22.77q-1.02 4.05-1.98 8.14a138 138 0 0 1-8.57 24.61 90 90 0 0 0-3.11 8.72c-.79 2.33-1.67 4.58-2.6 6.85-6.48 16.1-12.94 32.29-15.22 49.57l-.79 5.09A481 481 0 0 0 698 669c-3.4-1.06-6.01-2.01-9-4v-2l-3-1 1-1q.7-4.27 1.31-8.56c3.29-21.61 10.27-42.15 17.84-62.59a314 314 0 0 0 6.13-18.44c1.19-3.91 2.59-7.65 4.22-11.41 2.82-6.52 4.85-13.22 6.88-20.01q.86-2.73 1.8-5.44c5.72-16.98 8.97-34.9 12.39-52.46.7-3.39 1.56-6.74 2.43-10.09" fill="#010301"/><path d="M512 472c2.18 4.02 2.78 8.02 3.44 12.5A208 208 0 0 0 520 506l1.81 7.38a1276 1276 0 0 0 5.19 20l.72 2.73a126 126 0 0 0 5.26 15.34c1.81 4.53 3.26 9.17 4.77 13.8a876 876 0 0 0 16.13 45l.68 1.75.69 1.75c.89 2.68 1.57 5.4 2.23 8.14q.73 2.92 1.48 5.83c8.15 31.65 8.15 31.65 4.92 37.22-2.64 1.49-4.91 1.13-7.88 1.06l-.29-1.67C552 642.95 547.72 622.32 540 602l-.93-2.47c-5.26-13.91-5.26-13.91-8.26-20.34-2.52-5.54-4.1-11.36-5.81-17.19l-1.22-4.02A407 407 0 0 1 516 528l-.62-2.66c-3.89-17.61-3.63-35.4-3.38-53.34" fill="#000201"/><path d="M824.81 613.81h2.52c12.33.03 24.47.3 36.67 2.2l2.74.4c29.1 4.4 29.1 4.4 39.26 14.6 2.06 3.52 2.71 5.88 2 10-4.52 8.32-13.39 12.15-22 15-14.68 4.26-30.08 4.68-45.26 5.22-13.8.53-25.19 1.82-35.12 12.27-3.73 5.74-4.64 11.78-3.62 18.5a50 50 0 0 0 5 9l2 3c-4.1-1.52-6.72-4.36-9-8-2.57-6.09-2.36-11.8-.35-18 3.23-7.59 10.12-13.29 17.35-17 7.14-2.45 14.52-2.5 22-2.84 40.5-1.86 40.5-1.86 56.22-9.79C898 647 898 647 900 647l.87-1.88C902 643 902 643 904 641c.4-3.62.64-6-1.38-9.13-20.84-14.88-51.19-14.2-75.7-14.08q-5.26.02-10.53.02l-6.77.02h-3.14c-5.24.04-10.36.26-15.57.93-2.96.37-5.93.54-8.9.74l-3.63.26q-3.06.21-6.1.38c-4.94.36-7.9 1.16-11.28 4.86l-.44 2.12L760 629l-6 2c-2.78 1.86-5.4 3.9-8 6 2.4 1.98 4.66 3.81 7.4 5.3 5.02 3.3 7.97 8.38 10.6 13.7 1.06 5.2.54 9.38-1.13 14.37-3.87 5.42-7.5 8.14-14 9.28-10.92 1.31-21.08 1.92-31.87-.65l-3.82-.85c-4.4-1.12-8.43-2.84-12.56-4.72l-2.15-.95c-2.5-1.13-5-2.25-7.47-3.48l-1 2 2.2.31c6.77 1.66 10.73 6.26 14.8 11.7 3.13 5.27 5.14 9.96 5.06 16.18L712 704h-2l-.26-2.28c-1.32-9.55-3.42-17.39-11.12-23.66A47 47 0 0 0 687 672v-8c3.72 1.42 7.21 3.1 10.75 4.93 5 2.52 9.83 4.64 15.25 6.07l2.3.62c12.41 2.8 28.84 3.46 40.7-1.62 3.04-2.47 3.84-4.7 4.31-8.6.28-6.66-.3-11.08-4.4-16.43-4.56-4.7-9.82-7.67-15.9-9.97v-2a71 71 0 0 1 4.68-2.94 92 92 0 0 0 14.63-11.33c5.92-5.29 12.47-6.02 20.05-6.8l2.08-.23c14.41-1.55 28.87-1.9 43.36-1.89" fill="#DEE1DE"/><path d="m512 0-1.75.84c-6.63 3.41-10.84 6.87-13.47 13.96-1.69 6.9-1.33 14.06-1.3 21.12l-.02 5.42q-.02 7.32 0 14.64v15.39q-.01 12.93.02 25.86.02 14.89-.01 29.78-.03 12.83-.01 25.66.02 7.65-.01 15.29-.01 7.2.02 14.4v5.24c-.09 18.63 1.99 35.29 15.09 49.46 4.12 3.93 8.73 7.16 13.43 10.35 9.56 6.55 9.56 6.55 10.74 11.91.05 11.68-3.06 21.05-7.73 31.68l-.97 2.22a223 223 0 0 1-9.22 18.74c-6.8 12.17-11.44 24.82-15.81 38.04l-.91 2.75C492.43 376.23 489.85 399.5 488 424h-1c-2.71-21.63 1.62-42.96 7.38-63.76L495 358l.58-2.11C496 354 496 354 496 351a87 87 0 0 1 2.88-6.94c6.03-13.28 6.03-13.28 7.6-20.18.76-2.76 2.41-4.92 3.94-7.32 10.83-17.59 22.11-38.73 20.39-59.87-1.26-2.62-3.29-3.29-5.81-4.69-9.59-6.5-18.34-14.07-24.46-23.97-1.7-2.24-3.07-2.81-5.54-4.03-1.26-3.48-2-6.3-2-10l-.03-7.81q-.16-34.68-.23-69.37-.03-17.82-.12-35.64-.07-15.54-.09-31.09 0-8.23-.06-16.46-.04-7.74-.04-15.49l-.03-5.67c-.19-19.91-.19-19.91 7.34-28.45C503.58.15 506.46-.68 512 0" fill="#DCDEDF"/><path d="M741 0c3.78-.55 5.88-.72 9.14 1.38 6.65 5.69 9.63 10.9 10.86 19.62.29 5.86.26 11.72.24 17.59l.01 5.34-.01 14.44-.01 15.14-.02 25.43q-.03 14.69-.02 29.36l-.02 31.32v9l-.02 14.16v5.19c0 16.24-.45 30.02-11.5 42.99-1.65 2.04-1.65 2.04-3.08 4.56-1.75 2.77-3.53 4.31-6.13 6.29l-2.67 2.06L735 246l-5.44 4.38A107 107 0 0 1 722 256c-3.72 13.57 3.72 30.09 10 42l2 2q.8 1.95 1.5 3.94c2.4 6.27 5.62 12.07 8.88 17.93a66 66 0 0 1 5.84 14.34c.91 3.25 1.92 6.45 2.94 9.65l1.16 3.69 2.36 7.49c3.85 12.27 6.64 24.29 8.01 37.08l.38 3.53c.72 7.1 1.21 14.15 1.24 21.29l.02 2.32c-.05 3.83-.49 6.42-2.33 9.74l-.14-2.73c-1.72-33.58-1.72-33.58-4.86-49.27l-.61-3.22c-2.34-11.11-5.96-21.97-9.39-32.78l-.78-2.47a110 110 0 0 0-5.16-13.09l-.87-1.86c-2.46-5.16-5.04-10.25-7.61-15.34-15.49-30.62-15.49-30.62-16.58-41.24l-.39-3.18c-.57-8.36-.57-8.36 1.76-11.89A53 53 0 0 1 726 249q3.01-2.2 6-4.44l3.1-2.31c11.23-8.72 19.03-20.22 21.44-34.43.47-3.9.61-7.71.6-11.62l.01-2.29.01-7.54.02-5.43.02-14.71.01-9.2.03-28.8q0-16.6.05-33.2.03-12.85.03-25.7l.03-15.33q.02-7.21.01-14.43l.01-5.28c.11-19.78.11-19.78-5.56-27.67C748.32 3.36 745.54 2.39 741 1z" fill="#E2E5E3"/><path d="M697.38 134.1c7.1 5.15 13.98 13.02 15.62 21.9.85 12.48-.27 22.18-8.37 32.25-6.53 7.02-15.15 10.28-24.63 10.87-3.85.11-6.75.04-10-2.12 3.62-1.2 6.92-1.1 10.68-1.07l2.14.02 5.17.05v-2c3.14-1.86 5.38-2.2 9-2l1-4h5l1-4h2v-4h2v-4h2v-19l-2-1c-.59-2.3-.95-4.62-1.33-6.97-.1-.34-.1-.34-.66-2.03l-3-1-2 6h-1l-1 10h-1l-.08-2.35c-.46-8.53-1.6-14.34-7.74-20.47-7.36-5.05-13.26-6.22-22.18-5.18-6.72 1.8-11.09 6.44-15 12-2.9 5.8-2.86 12.37-1.38 18.62 2.5 7.25 6.81 11.54 13.25 15.54 5.54 2.18 12.37 1.65 18 0 6.1-2.75 9.66-6.49 13.13-12.16l2 4h-2l-2 4h-2v6h-10v2h-16v-2h-4v-2l-7 1c.48 4.24 2.97 6.2 6 9l-1 2c-6.18-2.67-9.5-8.49-12.37-14.38a43.3 43.3 0 0 1-.55-26.95c4.53-8.9 11.47-16.16 20.91-19.67a37 37 0 0 1 29.38 3.1" fill="#CAB265"/><path d="m797 572 1 2h38v1l-2.16.04-9.65.27-3.4.07-3.25.11-3 .08c-2.94.5-3.77 1.07-5.54 3.43-.98 1.72-.98 1.72-1.82 3.57l-.93 2.03-1.91 4.21L802 594h-2v4h-2l-.69 2c-2.89 6.61-6.27 11.94-12.31 16-4.32.98-8.45 1.11-12.88 1.06l-3.49-.02L766 617q1.93-2.56 4-5h2l.25-1.75c.96-2.87 2.56-4.2 4.75-6.25l1-2h2v-2h2l.81-1.69A73 73 0 0 1 787 591h2l.31-2.12c.78-3.27 2.11-5.93 3.69-8.88h2l.44-3.44C796 573 796 573 797 572" fill="#010302"/><path d="M521 0c5.29-.5 7.87.73 12 4l1 2 2.44 1.38c2.79 1.77 3.18 2.76 4.56 5.62l1.88.94c2.12 1.06 2.12 1.06 4 3.44C549 20 549 20 551.94 21.94c2.84 1.91 4.5 3.75 6.58 6.42 2.45 2.71 5.42 4.72 8.34 6.9a30 30 0 0 1 4.95 5.05c2.14 2.63 3.27 3.28 6.19 4.69l1.88 2.38c3.34 4.12 6.45 6.36 11.75 7.18q2.05.08 4.1.08l2.27.06q3.7.09 7.41.11l2.58.04q6.75.09 13.5.11 6.92.05 13.85.23 5.37.11 10.74.1 2.55.03 5.1.1c8.34.24 14.89.18 21.41-5.5 2.09-2.03 4.06-4.14 5.99-6.33 2.37-2.6 4.99-4.9 7.61-7.25l2.98-2.73q3.87-3.53 7.77-7.02 4.98-4.46 9.88-9.01l3.35-3.08q3.87-3.55 7.63-7.2C725.56-.14 725.56-.14 732 0l-1.7 1.27c-6.22 4.68-12.2 9.44-17.62 15.04a86 86 0 0 1-5.18 4.75c-4.06 3.5-7.97 7.15-11.88 10.82a838 838 0 0 1-24.03 21.71A82 82 0 0 0 668 57c-2.53.27-4.96.41-7.5.47l-2.35.07c-8.15.24-16.3.34-24.46.43q-5.77.07-11.56.27c-35.47 1.15-35.47 1.15-44.32-6.34a61 61 0 0 1-6.34-7.95c-2.65-3.52-6.1-6.14-9.47-8.95q-3.53-3.22-7-6.5c-4.25-3.97-8.52-7.9-12.94-11.68a165 165 0 0 1-4.96-4.58l-1.58-1.49-3.05-2.93c-3.6-3.41-6.9-5.11-11.47-6.82z" fill="#DFE1E1"/><path d="M763 410h1c1.04 16.75 1.16 32.49-2 49l3.04-.99c6.2-1.77 12.57-1.22 18.96-1.01l2.57.05c3.62.24 5.32.85 8.12 3.2L797 463l2.44 2.31c13.8 14.48 16.42 32.9 16.62 52.22-.16 6.32-1.65 12.33-3.06 18.47q-.81 4.28-1.56 8.56c-1.21 6.68-2.65 13.07-5.5 19.25l-1.04 2.27A177 177 0 0 1 803 570l5 1v1l24 1v1h-34a224 224 0 0 1 4.11-11.4c8.71-22.36 15.6-56.04 6.14-79.29-2.89-6.32-6.38-11.89-11.56-16.56l-2.18-2.02c-5.84-4.03-12.23-4.07-19.07-4.04l-2.5-.05c-5.13-.01-8.42.72-12.94 3.36h-2l.61-4.87.54-4.33q.65-5.33 1.39-10.65c1.57-11.36 2.07-22.7 2.46-34.15" fill="#E0E3DE"/><path d="m623.94 181.44 2.09-.07c3.9 0 6.44.62 9.44 3 2.53 2.63 2.53 2.63 3.09 5.19A12 12 0 0 1 635 196h-2l-1 3h-2l.19 2.82c-.2 3.18-.2 3.18-1.31 5.06-2.72 1.63-4.77 1.45-7.88 1.12-2-2-2-2-2.12-5.62L619 199l-1.68-.12c-3.68-1.4-5.2-3.66-7.32-6.88-.12-3.12-.12-3.12 1-6 3.97-4.1 7.45-4.65 12.94-4.56" fill="#5E615C"/><path d="M741 0c3.78-.55 5.88-.72 9.14 1.38 6.65 5.69 9.63 10.9 10.86 19.62.29 5.86.26 11.72.24 17.59l.01 5.34-.01 14.44-.01 15.14-.02 25.43q-.03 14.69-.02 29.36l-.02 31.32v9l-.02 14.16v5.19c0 22.22 0 22.22-3.15 28.03h-2l.21-1.99c.91-9.41.95-18.76.95-28.21l.02-5.43.02-14.65.01-9.16q.03-14.36.03-28.72 0-16.54.05-33.08.03-12.82.03-25.63 0-7.64.03-15.28.02-7.18.01-14.37l.01-5.25c.11-19.72.11-19.72-5.56-27.61C748.32 3.36 745.54 2.39 741 1z" fill="#EFF1F0"/><path d="m512 0-1.75.84c-6.6 3.4-10.85 6.85-13.46 13.91-1.74 7.18-1.36 14.66-1.34 22.01l-.03 5.68q-.03 7.67-.03 15.34-.01 8.04-.05 16.07-.06 15.19-.07 30.38-.03 17.31-.1 34.61-.12 35.58-.17 71.16l-2-1q-.18-37.48-.26-74.97-.03-17.41-.12-34.82-.07-15.17-.09-30.35 0-8.03-.06-16.06-.04-7.56-.04-15.13 0-2.78-.03-5.54c-.1-10.72-.12-19.64 7.34-28.11C503.58.15 506.46-.68 512 0" fill="#EBEEEB"/><path d="m547 137 2 1-3.71 4.2c-4.46 6.23-3.96 13.46-3.29 20.8 1.87 6.51 6.05 11.08 11.69 14.75 5.37 2.91 10.24 2.83 16.31 2.25a45 45 0 0 0 8-4h2l-1 3-5 1v2h-4v2h-11v-2h-5v-2l-5 1 .5 2.19c.48 2.67.58 5.1.5 7.81-3 0-3 0-4.65-1.29-6.64-7.3-10.53-15.9-10.91-25.83.57-11.13 5.27-18.72 12.56-26.88" fill="#DAB850"/><path d="M579.07 130.65c7.9 2.89 14.1 8.55 18.93 15.35l1.63 2.25c3.32 6.65 4.24 14.39 3.37 21.75-1.01 2.29-1.01 2.29-2 4-1.2-2.4-1.11-3.9-1.1-6.57l.02-2.71.02-2.84V159q.04-3.5.06-7.01h-2c-3-5.75-3-5.75-3-8h-5v8h2v8h-2v6h-2l.13 3.3C588 173 588 173 586 176c-3.12.19-3.12.19-6 0q.6-.85 1.25-1.72c5.06-7.26 8.16-14.3 6.75-23.28-2.3-6.8-5.87-12.16-12-16-5.54-2.66-10.96-2.68-17-2a55 55 0 0 0-8 4l-2-1 3.88-2.44 2.18-1.37c6.5-4 16.66-3.1 24-1.54" fill="#D7B763"/><path d="M903 642h3c-2.67 6.8-9.64 9.77-15.96 12.55-15.57 5.94-32.85 6.1-49.3 6.68-13.81.53-25.19 1.82-35.12 12.27-3.72 5.74-4.64 11.78-3.62 18.5a50 50 0 0 0 5 9l2 3c-4.11-1.52-6.71-4.36-9-8-2.56-6.08-2.36-11.8-.35-18 3.23-7.59 10.12-13.28 17.35-17 7.14-2.45 14.52-2.5 21.99-2.83 40.5-1.87 40.5-1.87 56.24-9.79C898 647 898 647 900 647l.94-1.94C902 643 902 643 903 642" fill="#D8DBD9"/><path d="M646 154c3.21 4.08 4.98 7.92 6.62 12.81 2.47 6.27 6.62 9.85 12.25 13.35 5.55 2.19 12.36 1.65 17.99 0 6.11-2.75 9.68-6.49 13.14-12.16l2 4h-2l-2 4h-2v6h-10v2h-16v-2h-4v-2l-7 1c.47 4.25 2.97 6.2 6 9l-1 2c-6.18-2.67-9.5-8.49-12.38-14.38-2.83-7.45-1.93-15.78-1.62-23.62" fill="#D5B966"/><path d="M615 664h21l-.11 5.7-.08 7.55-.07 3.74A73 73 0 0 0 639 704c-3-1-3-1-4.56-3.75-3.97-10.37-3.76-20.52-1.44-31.25l1-2h-16l.66 3.51.84 4.61.43 2.31c1.09 5.98 1.81 11.29-.31 17.13l-.82 2.32q-1.33 3.57-2.8 7.12h-3l.66-1.67c4.08-12.21 2.91-25.75 1.34-38.33" fill="#DADED8"/><path d="M960 636h1c1.43 14 .47 23.21-8 35a139 139 0 0 1-5 5l-2.54 2.43a105 105 0 0 1-34.84 21.76l-2.74 1.11c-5.58 2.17-9.9 3.13-15.88 2.7 3.4-2.27 6.85-3.36 10.69-4.62 19.85-6.79 41.78-17.73 51.75-37.18 3.14-6.74 4.64-12.02 5.12-19.45l.26-3.83z" fill="#DADDD9"/><path d="M697.84 134.5C700 136 700 136 701 138h-3v2h-2l-1 4-1.5-1.43c-7.11-6.5-12.82-9.22-22.57-8.9-7.06.81-11.9 4.36-16.39 9.76-3.04 5.07-4.25 10.84-5.54 16.57-2-2-2-2-2.44-4.56 1.09-8.52 6.96-15.17 13.44-20.44 11.81-7.42 25.84-7.19 37.84-.5" fill="#CEB260"/><path d="M814 500h1c1.08 12.71.87 23.51-2 36q-.81 4.28-1.56 8.56c-1.21 6.68-2.65 13.07-5.5 19.25l-1.04 2.27A177 177 0 0 1 803 570l5 1v1l24 1v1h-34a224 224 0 0 1 4.11-11.4c6.55-16.81 8.92-32.95 9.41-50.92l.1-2.83.08-2.54A16 16 0 0 1 814 500" fill="#C8CBC6"/><path d="M495 204h1l.63 3.55c3.51 18.44 11.97 29.4 27.36 39.86 3.73 2.56 7.22 4.99 10.01 8.59.42 2.94.57 5.22.44 8.12l-.02 2.17c-.09 3.73-.31 5.54-2.42 8.71a77 77 0 0 1-1-12.25c0-5.67 0-5.67-1-7.75-2.06-1.37-2.06-1.37-5-3-9.59-6.5-18.34-14.07-24.46-23.97-1.7-2.24-3.07-2.81-5.54-4.03-2.01-5.54-2.18-9.5-1-15.19l.56-2.73z" fill="#DBDEDA"/><path d="M741 0c3.78-.55 5.88-.72 9.14 1.38C756.8 7.08 759.72 12.27 761 21c.2 4.6.1 9.18-.02 13.79l-.08 3.92q-.1 5.13-.23 10.26l-.22 10.5Q760.24 69.74 760 80h-2l-.02-2.26q-.09-10.57-.22-21.13l-.11-10.87q-.03-5.25-.11-10.5-.04-2.97-.05-5.92c-.13-8.25-.71-15.84-5.68-22.7C748.32 3.36 745.54 2.39 741 1z" fill="#EAEDEB"/><path d="m680 133-2 3c-2.53.26-2.53.26-5.5.12-5.33-.21-5.33-.21-7.5.88q-1.1 3.47-2 7l-2-1q-2.52.42-5 1l.12 3.31C656 151 656 151 654 154l-1-3c-.39 13.46-.39 13.46 2 18a41 41 0 0 0 4 2 13 13 0 0 1 1 4h-3c-5.03-5.03-7.14-10.99-7.38-18 .27-6.79 1.9-11.73 6.57-16.75 7.52-6.85 13.73-7.86 23.81-7.25" fill="#1A160B"/><path d="M903 642h3c-2.67 6.79-9.62 9.76-15.93 12.54-17.24 6.58-35.93 5.98-54.07 5.46 4.11-2.29 7.88-2.32 12.5-2.44 15.64-.62 32.54-2.04 46.73-9.18C898 647 898 647 900 647l.94-1.94C902 643 902 643 903 642" fill="#E3E6E4"/><path d="M755 213c2 3 2 3 2 5.62-1.42 4.8-4.11 8.34-7 12.38l-1.16 1.85c-3.57 5.6-8.61 9.17-13.84 13.15l-5.44 4.38A107 107 0 0 1 722 256a80 80 0 0 0-1 8l-.56 5.5-.44 4.5h-1c-1.33-6.02-2.01-11.88-1-18 2.09-3.19 4.84-4.93 8-7q3.01-2.2 6-4.44l3.1-2.31c10.07-7.81 16.5-16.92 19.9-29.25" fill="#DCE0DB"/><path d="M756 360c2 1 2 1 3.18 4.52a215 215 0 0 1 7.13 54.42l.02 2.33c-.05 3.82-.49 6.41-2.33 9.73l-.14-2.73c-1.03-20.17-2.2-39.87-7.31-59.51A38 38 0 0 1 756 360" fill="#E1E5DE"/><path d="m732 0-1.7 1.27c-6.22 4.68-12.2 9.44-17.62 15.04a86 86 0 0 1-5.18 4.75c-4.06 3.5-7.97 7.15-11.88 10.82C680.26 46.27 680.26 46.27 673 52c0-3 0-3 1.69-5.02l2.31-2.23 2.52-2.43q4.02-3.75 8.2-7.32 4.32-3.82 8.53-7.75l1.68-1.56 3.4-3.14Q708.14 16.25 715 10l2.9-2.65 2.72-2.47 2.42-2.2C726.15.02 727.98-.11 732 0" fill="#D2D5D3"/><path d="M596 176h4c-.95 6.76-5.01 11.49-10.15 15.81-8.18 5.76-16.8 8.67-26.85 7.19a65 65 0 0 1-12-5l-1-2h4v2h5v1l17 1v-2h8v-2h2l.19-1.88c.81-2.12.81-2.12 3.25-3.37C592 186 592 186 594 186l-.12-2.19c.13-3.02.87-5.08 2.12-7.81" fill="#D2B663"/><path d="M602 144h4v4h-2l1 11 2-1c-.88 6.55-.88 6.55-1.52 8.97-.5 2.12-.66 4.11-.79 6.28-.5 4.95-2.26 8.44-4.69 12.75h-2l-1 2q-2.46 2.04-5 4l-2-1 1.36-1.29c6.55-6.78 10.79-15.28 11.14-24.83-.35-6.54-2.44-12.71-4.5-18.88h4z" fill="#201809"/><path d="M569 132c8.04 1.62 12.29 5.41 17 12 3.2 5.02 3.74 10.19 3 16-1.6 6.34-4.46 12.31-10 16-.75-1.75-.75-1.75-1-4 1.81-2.25 1.81-2.25 4-4h2v-4h2v-12h-2v-8h-4v-4h-4v-4l-8-1z" fill="#34280D"/><path d="M763 410h1c1.04 16.75 1.16 32.49-2 49l3-.53c4.04-.57 7.87-.36 11.94-.03l2.07.16q2.5.18 4.99.4v1l-3.73.11-4.89.2-2.45.07c-5.06.23-8.46 1.05-12.93 3.62h-2l.61-4.87.54-4.33q.65-5.33 1.39-10.65c1.57-11.36 2.07-22.7 2.46-34.15" fill="#C4C8C0"/><path d="m826.44 613.75 2.56-.02h7.25l2.2-.01c3.77.04 6.27.47 9.55 2.28l-3.8.06-14.17.26-6.1.1c-10.75.17-21.26.44-31.87 2.25-4.58.49-8.68-.33-13.06-1.67v-1a494 494 0 0 1 47.44-2.25" fill="#D2D6D0"/><path d="m543 672-1 3c-15.33 3.47-29.78 4.93-45 0l1-2 1.79.21c6.5.72 12.92.97 19.46.98l2.89.03c7.29.02 13.63-2.51 20.86-2.22" fill="#2F322D"/><path d="M710 148h6c1.16 4.57 1.11 8.95 1.06 13.62l-.01 2.32L717 170v3c-2 3-2 3-4 4l-1 3h-2l1-3c2.29-9.15 1.97-20.08-1-29" fill="#2D2309"/><path d="M489 659h1l.4 1.83.54 2.42.52 2.39.54 2.36.32 2.17c.68 1.83.68 1.83 2.43 2.98 10.87 4.09 21.78 4.5 33.25 4.85v2c-11.59 1.42-24.42 2.21-34.52-4.73-3.97-4.05-5.3-7.88-5.6-13.48C488 660 488 660 489 659" fill="#E6E9E5"/><path d="m500 7 2 1-.94 1.62c-2.46 5.5-2.2 11.38-2.16 17.28l.01 2.53.03 7.95.01 5.41L499 56l-2 1q-.36-9-.65-17.99l-.22-6.11q-.18-4.4-.3-8.81l-.13-2.74c-.14-6.02.86-9.38 4.3-14.35" fill="#202221"/><path d="m677.75 129.94 5.25.06-1 3-2.78.08c-9.65.45-16 1.45-22.97 8.3-4.45 5.36-5.75 11.97-7.25 18.62-2-2-2-2-2.44-4.56 1.09-8.52 6.96-15.16 13.44-20.44 5.81-3.65 10.89-5.14 17.75-5.06" fill="#B2AA8E"/><path d="m547 137 2 1-3.71 4.2c-3.07 4.28-3.6 8.43-3.91 13.61l-.23 3.52L541 162l-4 1-1 7h-1c-.81-12.91 2-21.35 10.39-31.2z" fill="#9F967E"/><path d="m586 128 1 3 3 2v3h2v2h2v2h4l1 3-2 3-1.36-1.61c-7.81-9.13-14.11-13.05-26.2-14.08q-2.72-.17-5.44-.31v-1c7.36-1 14.57-1.1 22-1" fill="#271A09"/><path d="M579.28 130.82c3.47 1.37 6.07 2.53 8.72 5.18h-4v-2h-4l3 4c-4.01 0-5.74-1.77-9-4-5.47-1.83-12.04-2.1-17.5-.07q-2.77 1.48-5.5 3.07l-2-1 3.88-2.44 2.18-1.37c6.52-4 16.92-3.2 24.22-1.37" fill="#AEA37C"/><path d="M698 138c2.38.31 2.38.31 5 1l2 3c-3 6-3 6-4.06 7.88-1.11 2.51-1.35 4.64-1.56 7.37l-.23 2.7L699 162h-1l-.15-2.41c-.39-5.56-1-10.31-2.85-15.59.38-2.38.38-2.38 1-4h2z" fill="#D2B153"/><path d="M495 204h1l.66 3.59c1.8 9.1 3.63 16.84 9.34 24.41h-3a625 625 0 0 1-4-6l-2.12-.94c-1.88-1.06-1.88-1.06-3.13-4.5-.91-4.34-.64-7.46.25-11.75l.56-2.73z" fill="#CBCFC7"/><path d="M806 552h1c1.65 6.46.04 10.21-3 16l-1 2 5 1v1l24 1v1h-34c2.25-6.75 2.25-6.75 3.51-10.09l.8-2.12.81-2.17.84-2.23z" fill="#B5B8B8"/><path d="M536 162h5l1 6h-3c-.08 3.52-.04 6.62 1 10h2v4l1.94.31 2.06.69 1 3-1 2h2l-1 3c-6.37-6.25-10.5-12.86-11.24-21.93-.01-2.37.06-4.7.24-7.07" fill="#CFB760"/><path d="m699 150 1 2h2l.44 3.44C703 159 703 159 704 160c.47 5.42.47 5.42-1.38 7.69L701 169l-2 3v-2h-2l.44-3.25c.7-5.57 1.12-11.16 1.56-16.75" fill="#DCBB5D"/><path d="M704 142c4.44 4.2 7.76 7.94 9 14q.1 4.13.06 8.25l-.01 2.26L713 172h-3v-15l-2-1c-.64-2.3-1.02-4.61-1.44-6.97L706 147l-2-1z" fill="#CDB55E"/><path d="m745 330 3 1c2 4.23 3.3 8.74 4.75 13.19l1.29 3.73 1.19 3.62 1.1 3.32c.73 3.41.46 5.77-.33 9.14-2.18-3.83-3.25-7.98-4.44-12.19a319 319 0 0 0-4.31-14.12A87 87 0 0 1 745 330" fill="#DCDFDA"/><path d="M884 621c8.2.53 16.08 4.27 22 10 2.28 3.25 2.34 6.09 2 10l-2 2-2-2 .12-3.38c-.12-3.62-.12-3.62-1.5-5.74-3.95-2.83-8.24-4.81-12.62-6.88l-3.62-1.81L884 622z" fill="#DBDEDC"/><path d="M439 496h1l1 38h-2q-.55-5.87-1.06-11.75l-.32-3.31c-.63-7.39-.76-14.59.38-21.94z" fill="#E5E8E6"/><path d="M681 134c5.2 1.36 8.1 3.47 12 7l-2 3c-3.62.19-3.62.19-7 0v-2l-4-2q-.06-2.5 0-5z" fill="#1E1D14"/><path d="m541 184 1.94 2.12A47 47 0 0 0 560 197l-4 1v2h-6l-1-3c-2.06-.69-2.06-.69-4-1v-5l-5-1z" fill="#231E09"/><path d="m550 176 3.25 2c5.46 2.71 10.77 2.83 16.75 2a46 46 0 0 0 8-4h2l-1 3-5 1v2h-4v2h-11v-2h-5v-2h-4z" fill="#DFBF61"/><path d="m699 130 2 1-2 5-1.91-1.06c-7.7-3.91-14.51-4.8-23.09-4.94v-1c18.55-2.91 18.55-2.91 25 1" fill="#29220B"/><path d="M489 398h1l1 13h1a1083 1083 0 0 1 .09 10.34A78 78 0 0 1 491 435c-2.46-3.69-2.26-6.47-2.2-10.73l.01-2.27q.02-3.6.07-7.19l.02-4.87q.03-5.97.1-11.94" fill="#272A27"/><path d="M551 176h3v2c8.01-.54 16.01-1.14 24-2-3.08 3.56-6.25 4.82-10.9 5.3-10.35.04-10.35.04-15.1-3.3z" fill="#382A0A"/><path d="m778.38 616.94 3.76.03 2.86.03c-1.3 1.49-1.3 1.49-3 3q-3.5.14-7 0c-4.6.14-8.01.4-12 2.82-1.99 2.16-2.7 3.3-3 6.18h-3c2.01-4.56 4.1-7.83 8-11 4.48-1.04 8.8-1.1 13.38-1.06" fill="#E0E3E1"/><path d="m763 395 2 1c1.44 7.13 1.12 14.75 1.19 22l.04 2.5v2.38l.01 2.11c-.28 2.34-1.09 3.97-2.24 6.01-.65-12.01-1.17-23.97-1-36" fill="#E9ECE6"/><path d="M489 387h1a242 242 0 0 1-1 24.69l-.29 3.6L488 424h-1c-.94-9.13-1.07-17.8-.12-26.94l.27-2.67c.7-6.24.7-6.24 1.85-7.39" fill="#E8EAE9"/><path d="M953 614h2c5.57 10.19 9.55 20.16 8 32l-2 2-.26-3.52c-.75-8.67-1.8-16.14-5.62-24.1A27 27 0 0 1 953 614" fill="#EBEDED"/><path d="m826.88 570.25 2.64.12c6.23.37 6.23.37 8.48 2.63h-38v-1a122 122 0 0 1 26.88-1.75" fill="#EBEEEE"/><path d="M550 192h4v2h5v1l22 1c-7.15 3.58-13.63 4.36-21.36 1.95-8.36-3.4-8.36-3.4-9.64-5.95" fill="#BEA965"/><path d="M693 142c3.8 3.28 4.88 6.6 5.3 11.56l.01 3.88.05 3.87c-.38 3.9-1.39 6.34-3.36 9.69l-2-1c.88-5.88.88-5.88 2-7q.34-3.27.56-6.56l.26-3.63.18-2.81h-2z" fill="#2F2006"/><path d="M540 142h2q-1.47 3.72-3.04 7.4c-3.03 7.5-3.73 14.56-3.96 22.6h-1l-1-13h-1v-7h4v-7h2l1-2z" fill="#191406"/><path d="M554 672c-6.1 6.1-17.81 6.9-26 8v-2l-2-1 3.22-.55c12.87-2.27 12.87-2.27 17.53-4.2 3.37-1.29 4.02-1.29 7.25-.25" fill="#DCDFD8"/><path d="M903 642h3c-2.4 6.11-7.86 8.64-13.56 11.25l-3.38 1.58C886 656 886 656 882 656l1-3c2.29-1.1 2.29-1.1 5.19-2.06l3.01-1.04q3.16-1.01 6.36-1.9c2.44-1 2.44-1 3.75-3.06L902 643z" fill="#DCDFDE"/><path d="M760 448h1l1 11 3-.53c4.04-.57 7.87-.36 11.94-.03l2.07.16q2.5.18 4.99.4v1l-3.73.11-4.89.2-2.45.07c-5.06.23-8.46 1.05-12.93 3.62h-2z" fill="#B7B9B3"/><path d="m721 7 3 1-2 3h-2l-.12 1.69c-1.37 3.6-3.79 5.04-6.88 7.31h-2l-1 3h-5c2.94-4.04 6.32-7.13 10.09-10.35A90 90 0 0 0 721 7" fill="#1E211F"/><path d="M548 128h25v1l-2.85.33-3.77.48-3.73.46c-3.68.74-6.35 2-9.65 3.73h-3v-3l-3-1z" fill="#15140D"/><path d="M527.47 2.73c1.94 1.6 2.16 2.83 2.53 5.27l-2.81-1.5c-3.2-1.5-3.2-1.5-6.2-1.5V4l-2.32-.15-3.04-.23-3.03-.2C510 3 510 3 508 1c7.08-1.97 12.89-1.56 19.47 1.73" fill="#212421"/><path d="m718 677 28 1v2c-22.62 1.69-22.62 1.69-28-1z" fill="#EBEFE7"/><path d="M488 410h1l1 30c-4-3-4-3-4.45-5.27l.06-2.62.04-2.84.1-2.96.05-2.99q.08-3.66.2-7.32h1z" fill="#CBCECA"/><path d="M651 148h1l.15 3.07.23 4.05.09 2.02c.25 4.25.87 7.93 2.53 11.86a41 41 0 0 0 4 2 13 13 0 0 1 1 4h-3c-5.14-5.14-7.17-11.1-7.25-18.25.06-3.08.41-5.79 1.25-8.75" fill="#2D220C"/><path d="M659 176h6v2h7v1l11 1c-4.9 3.26-10.28 2.69-16 2a26 26 0 0 1-8-5z" fill="#31230A"/><path d="M761 660h1c1.85 8.34 1.85 8.34-.09 12.15-2.81 3.39-5.52 5.86-9.91 6.85-3.19.25-3.19.25-6 0l-2-2 2.52-.55 3.29-.76 3.27-.74c2.96-.96 4.19-1.41 5.92-3.95.73-2.7.73-2.7 1.19-5.69l.48-3.01z" fill="#CBCECF"/><path d="m543 672-1 3c-11.15 2.46-21.69 1.83-33 1v-1l1.83-.06 8.29-.32 2.89-.09c7.28-.3 13.74-2.82 20.99-2.53" fill="#252822"/><path d="M745 228h2c-.42 4.93-2.55 6.98-6.06 10.31l-2.79 2.68L736 243l-3-2c2.49-3.2 4.93-6.33 8-9h3z" fill="#242726"/><path d="M698 135v1c-3.57.08-6.57-.09-10-1l-4.12-.38L680 134l-2-3c7.6-2.07 13.44.33 20 4" fill="#C4AE6F"/><path d="M770.35 459.9a499 499 0 0 1 8 .05l6.65.05v3l-2.3-.04c-6.34-.05-12.43.2-18.7 1.04v-3c2.35-1.18 3.74-1.12 6.35-1.1" fill="#21231E"/><path d="M646 154c3.48 4.58 5.49 8.13 6 14l-2 2v-6h-2v12c-1.81-3.62-2.25-4.6-2.2-8.33l.02-2.42.06-2.5.02-2.55z" fill="#C4B06B"/><path d="M599 149c4.62 4.62 4.23 12.55 4.27 18.74-.29 2.47-1.03 4.12-2.27 6.26-1.2-2.4-1.11-3.89-1.1-6.57l.01-2.72.03-2.83.01-2.87.05-7.01h-2z" fill="#C1A861"/><path d="M811 532h1c.33 8.65-.29 17.05-4 25h-1c-.63-8.79 1.69-16.6 4-25" fill="#DFE2E1"/><path d="M810 486h2c2.6 6.88 2.22 13.67 2.12 20.94l-.02 3.8-.1 9.26h-1l-.17-2.37-.77-10.69-.26-3.73c-.42-5.77-.86-11.49-1.8-17.21" fill="#E7EAE5"/><path d="m483.69 459.5 2.3.5c-4.82 3.22-8.3 3-14 3l-3 1-3-3c5.2-3.46 11.68-2.32 17.7-1.5" fill="#2E312E"/><path d="M741 0c3.78-.55 5.88-.72 9.14 1.38 3.57 3.06 7.18 6.15 8.86 10.62-.31 3.81-.31 3.81-1 7a60 60 0 0 1-3.25-7.44c-2.56-5.22-5.73-7.78-11.13-9.87L741 1z" fill="#D7D9D9"/><path d="M563 664h2v8c-2.65 1.46-3.89 2-7 2v-2l1.94-.88C562 670 562 670 563 668l-3.31 2c-2.63 1.58-3.52 2-6.69 2v-2l1.93-1.06 2.51-1.38 2.49-1.37C562 665 562 665 563 664" fill="#DFE3DF"/><path d="M588 160c2 3 2 3 2 6h-2l.12 3.31C588 173 588 173 586 176c-3.12.19-3.12.19-6 0l1.24-1.72c3.29-4.71 5.56-8.65 6.76-14.28" fill="#CFB65A"/><path d="M509 225c1 1 1 1 1.06 4.38L510 233v3c-3.29-3.11-5.84-6.02-8-10 2.48-1.24 4.25-1.14 7-1" fill="#23261F"/><path d="M714 160c2.76 4.14 3 8.09 3 13-2 3-2 3-4 4l-1 3h-2l.62-2.34c1.53-5.9 2.8-11.6 3.38-17.66" fill="#241B0B"/><path d="m512 0-1.75.84c-7.27 3.74-10.98 7.36-13.66 15.18L496 18l-2-2c.17-5.97 4.41-10.37 8.38-14.44 3.36-2 5.77-1.86 9.62-1.56" fill="#D9DDD7"/><path d="M488 434h1v6h2l1 18c-3.87-5.8-5.58-13.87-4.69-20.81z" fill="#D7DAD8"/><path d="M601 174h1c.18 4.55 0 7.88-2 12h-2l-1 2q-2.46 2.04-5 4l-2-1 1.39-1.43A44 44 0 0 0 601 174" fill="#312008"/><path d="M569 132c6.54 1.63 10.29 3.25 14 9v3h-3v-4h-4v-4l-8-1z" fill="#2A1C07"/><path d="M706 684h2c3.27 6.86 4.58 12.4 4 20h-2l-.37-2.45-.51-3.24-.49-3.2A45 45 0 0 0 706 687z" fill="#E6E9E1"/><path d="M453 570h3c3.34 4.15 4.78 7.93 6 13l-2 2-3.5-6.38-1.01-1.82c-2.49-4.57-2.49-4.57-2.49-6.8" fill="#292C2B"/><path d="M752 647c3.86.96 4.96 1.94 7.31 5.25 1.74 3.32 2.06 5.98 1.69 9.75h-2l-4-10h-2z" fill="#272A2C"/><path d="M497 624c3.97 1.32 6.16 2.96 9 6l2 1v2l4 2c-1.64.77-1.64.77-4 1-2.8-1.77-2.8-1.77-5.75-4.25l-2.98-2.45C497 627 497 627 497 624" fill="#232622"/><path d="M902 582c6.62.31 11.22 1.74 17 5v2c-11.52-3.08-11.52-3.08-17-5z" fill="#CFD2CE"/><path d="M657 137c-1.53 3.45-3.61 6.1-6 9l-3 4c-.61-7.19-.61-7.19 2.25-11 2.75-2 2.75-2 6.75-2" fill="#211E0D"/><path d="M473 604a94 94 0 0 1 12.52 12.27A44 44 0 0 0 489 620c-3 0-3 0-4.87-1.57l-2.01-2.12-2.11-2.21L478 612l-3-2.81c-2-2.19-2-2.19-2-5.19" fill="#E2E5E1"/><path d="M492 454h1l1 9-14-3c4.36-2.18 5.47-2.03 10-1l.44-1.94C491 455 491 455 492 454" fill="#CCCFCD"/><path d="M493 440h1c2.48 9.41 2.48 9.41 1 14h-3c-1.18-3.69-1.21-7.15-1-11z" fill="#262927"/><path d="M536 162h5l1 6h-3c-.07 3.34-.07 5.8 1 9l-3-1c-1.19-3.03-1.1-6.02-1.06-9.25l.02-2.7z" fill="#D9BE71"/><path d="M700 136h4v2h3c3.22 5.18 3.22 5.18 4 7l-1 3a71 71 0 0 1-10-12" fill="#271E07"/><path d="M584 128v3c-4.22 1.25-7.96.67-12.25.06l-2.26-.3L564 130v-1c6.71-.88 13.23-1.11 20-1" fill="#342B15"/><path d="M751 672c2 2 2 2 2 4-7.13 1.26-13.82.71-21 0v-2l2.38.07c5.97.1 10.99-.02 16.62-2.07" fill="#222620"/><path d="M441 528h1c1.41 6.98 2.35 12.97 1 20-3.57-3.57-2.86-9.14-3-14 .44-3.75.44-3.75 1-6" fill="#CDD0CB"/><path d="M484 457v2l-18 1-1-2c6.48-2.5 12.18-1.83 19-1" fill="#EBEEEC"/><path d="M901 629c1.81.19 1.81.19 4 1 2.24 2.81 2.96 4.6 3.31 8.19C908 641 908 641 906 643l-2-2 .06-3.31c-.06-3.95-.78-5.55-3.06-8.69" fill="#CFD2D0"/><path d="M648 164h2l1.44 3.75.81 2.11A59 59 0 0 1 654 176c-3 0-3 0-6-2-.29-2.38-.29-2.38-.19-5.12l.08-2.76z" fill="#D7B757"/><path d="M909 698v3c-5.9 2.29-10.67 3.35-17 3 3.03-2.02 5.61-2.99 9.06-4.12l3.23-1.08c2.71-.8 2.71-.8 4.71-.8" fill="#D0D3D1"/><path d="M803 672h2l-.59 1.94A996 996 0 0 0 800 689l-2-1c.44-6.21 1.92-10.61 5-16" fill="#E3E5E4"/><path d="m908 642 1 3a89 89 0 0 1-4 4h-2l-1 3-5-1 2.12-1.69q4.48-3.61 8.88-7.31" fill="#1F231F"/><path d="m543 692 4 1-1 11h-3z" fill="#242627"/><path d="m848 615 16 1c-2 2-2 2-4.75 2.23l-3.25-.04-3.25-.02C850 618 850 618 848 617z" fill="#D2D4D3"/><path d="M763 434h1c.1 6.77.03 13.3-1 20h-2a72 72 0 0 1 2-20" fill="#E9ECE4"/><path d="M523 298c2 2 2 2 2 6h-2v6l-4 1c.5-4.97 1.55-8.64 4-13" fill="#202224"/><path d="M541 163q2.66 4.03 5.12 8.19l1.64 2.73L549 176h-3v-2h-2v-2h-4z" fill="#C3A860"/><path d="m732 0-1.68 1.24c-3.44 2.61-6.75 5.37-10.08 8.12C718 11 718 11 716 11c1.23-3.69 2.75-4.75 5.75-7.19l2.61-2.17c2.88-1.79 4.32-2 7.64-1.64" fill="#DADDDA"/><path d="m491 658 1 4h2l2 9-3 1c-1.91-3.21-2.22-5.54-2.12-9.25l.05-2.7z" fill="#272A28"/><path d="M679.19 195.94a273 273 0 0 1 5.8.06v2c-4.51 1.5-9.05 1.78-13.5 0l-1.5-1c3.3-1.1 5.75-1.1 9.2-1.06" fill="#BAA65F"/><path d="m758 15 2 1c1.08 3.68 1.03 6.95.69 10.75l-.24 2.92L760 32l-2 1z" fill="#F0F3F0"/><path d="m754 622 3 4c-1.97 2.52-2.97 2.99-6.19 3.69L748 630l2-6h4z" fill="#1E211F"/><path d="M881 616c2.36.36 2.36.36 4.75 1.31l2.42.93 1.83.76v3l-13-3z" fill="#272929"/><path d="M886 577q3.66.67 7.31 1.38l2.09.38c3.44.66 5.65 1.27 8.6 3.24-3.94 1.53-6.77.43-10.69-.81l-3.51-1.08C887 579 887 579 886 577" fill="#E4E7E5"/><path d="M533 256h1q.08 3.9.12 7.81l.06 2.24c.03 3.86.01 5.66-2.18 8.95-1.28-6.76-.49-12.31 1-19" fill="#D1D4D2"/><path d="M803 690c2 2 2 2 2 6h2a89 89 0 0 1 4 4l-2 4c-4.28-4.72-6-7.5-6-14" fill="#2A2E2A"/><path d="m797 467 3.44 2.81 1.93 1.58C804 473 804 473 805 476l-2 2v-2h-3l-.31-1.88C799 472 799 472 796 470z" fill="#282B27"/><path d="M718 269h1l3 13h-2v-2h-3l.06-2.25c-.06-2.75-.06-2.75-.68-4.94L716 271z" fill="#22261F"/><path d="M953 614h2a357 357 0 0 1 3.12 5.75l1.76 3.23c1.12 3.02 1.12 3.02.3 5.41L959 630l-3.81-8.98A43 43 0 0 1 953 614" fill="#E4E7E6"/><path d="M791 458c2.26 1.4 4.02 3.2 6 5l-1 3-1.56-1.38c-3.01-2-5.95-2.75-9.44-3.62 3-2 3-2 6-3" fill="#D3D7CE"/><path d="m752 350 3 1c.8 1.93.8 1.93 1.31 4.31l.55 2.37c.16 2.71-.46 4.03-1.86 6.32a434 434 0 0 1-2.34-7.42C752 354 752 354 752 350" fill="#D0D4CF"/><path d="m759 202 2 1q-.18 2.13-.38 4.25l-.21 2.39A19 19 0 0 1 758 216h-2q.17-2.94.38-5.88l.21-3.3C757 204 757 204 759 202" fill="#E7EAE7"/><path d="m690 172 4 1-3.25 2.94-1.83 1.65c-2.04 1.5-3.4 2.17-5.92 2.41l-2-2c2.65-1.46 3.89-2 7-2z" fill="#36280C"/><path d="m919 586 12 6v2a28 28 0 0 1-11-4c-.67-2.11-.67-2.11-1-4" fill="#E3E6E5"/><path d="M888 580c8.57.86 8.57.86 12 3h-2v2q-2.22-.38-4.44-.81l-2.49-.46L889 583z" fill="#2C2F2C"/><path d="M760 448h1l.5 5.31.28 2.99c.22 2.7.22 2.7.22 5.7l-4 2z" fill="#BCC0B8"/><path d="m756 360 2 1a92 92 0 0 1 1.62 6.56l.79 3.63.59 2.81-2 1c-1.91-5.1-3.43-9.46-3-15" fill="#EBEFE9"/><path d="m590 193-2 5h-11l4-2 3.06-1.62C587 193 587 193 590 193" fill="#2E1D08"/><path d="m653 186 1.36 1.17q5.22 4.53 10.64 8.83h-8l-2-3.88-1.12-2.17C653 188 653 188 653 186" fill="#2F210C"/><path d="M709 180a31 31 0 0 1 2 4l-1 2-3 1-1 3h-2v2l-4-1 2.25-2.12A53 53 0 0 0 709 180" fill="#2E1F0A"/><path d="m550 176 3.31 1.94c5.07 2.57 10.08 2.85 15.69 3.06v1h-15v-2h-4z" fill="#CBAE63"/><path d="M687 664a29 29 0 0 1 9 5c-3 1-3 1-5.19.06L689 668l-2 4z" fill="#C6C7C2"/><path d="M497 628c4.59 1.49 7.44 3.85 11 7l-3 2-2.25-2.38c-2.29-2.19-3.87-3.45-6.75-4.62z" fill="#DFE2E1"/><path d="m762 616 2 1q3.5.06 7 0v1l-3.19.75c-3.62 1.02-6.01 2.7-8.81 5.25l-2-2 3-2-1-2h3z" fill="#2B2E2A"/><path d="M466 459v2l-4.31 2.44-2.43 1.37C457 466 457 466 454 467c1.04-3.25 2.59-4.57 5.44-6.25C463 459 463 459 466 459" fill="#D3D6D2"/><path d="m695 195 1 3h-4v2l-10-1v-1l1.9-.4 2.48-.54 2.46-.52c2.27-.57 3.81-1.54 6.16-1.54" fill="#31250F"/><path d="M521 0c5.27-.5 7.91.67 12 4l1 3c-3.95 0-4.98-1.56-8-4-2.81-1.25-2.81-1.25-5-2z" fill="#D6D9D8"/><path d="m494 672 2.06 1.38c3.24 1.79 6.36 2.71 9.94 3.62v2c-9-.75-9-.75-12-4z" fill="#DEE0DF"/><path d="m758 660 1 2h2q-.17 2.22-.38 4.44l-.21 2.49L760 671l-2 1c-1.53-4.08-.63-7.79 0-12" fill="#1D1F20"/><path d="M496 648c1.11 3.33.84 5.62 0 9l-4 1c.57-3.96 1.81-6.67 4-10" fill="#2B2E2A"/><path d="m721 286 2 1v3h3l2 7-4-3-2 2z" fill="#1F2221"/><path d="m651 173 3 3-2 7c-2.52-1.97-2.99-2.97-3.69-6.19L648 174l2 1z" fill="#E2C368"/><path d="M536 154h1v6h4v2l-4 1-1 7h-1q-.04-2.87-.06-5.75l-.04-3.23c.08-2.55.35-4.6 1.1-7.02" fill="#AB9761"/><path d="m699 150 1 2h2v8h-2l-1 3z" fill="#E1BF6F"/><path d="m714 673 11 1-2 3-10-1z" fill="#2C3027"/><path d="m541 184 9 9-4 1-1-3-5-1z" fill="#2D250A"/><path d="m577 45 3.38 2.88 1.89 1.61A73 73 0 0 1 586 53l-1 3-10-9z" fill="#D5D8D8"/><path d="M495 211c2.79 4.18 1.8 6.15 1 11l-2-1c-.83-2.48-1-4.35-1-7z" fill="#E2E5E2"/><path d="M695 144h3c2.82 5.96 1.76 11.67 1 18h-1l-.15-2.41c-.74-10.53-.74-10.53-2.85-15.59" fill="#AD8F49"/><path d="m721 7 3 1-2 3h-2l-1 4-4 1c1.64-3.51 3.03-6.46 6-9" fill="#272929"/><path d="M700 682c3.69 1.23 4.72 2.94 7 6l-2.75-.56c-2.93-.4-4.51-.39-7.25.56v-3h4z" fill="#212421"/><path d="M865.31 616.81c3.03.15 5.74.47 8.7 1.2q-.5.97-1 2l-13-1c2-2 2-2 5.3-2.2" fill="#E6E9E8"/><path d="M497 360c2 3 2 3 1.61 5.45l-.86 2.67-.83 2.7C496 373 496 373 494 374c.51-4.97 1.23-9.29 3-14" fill="#2F3230"/><path d="M505 232c7.48 6.15 7.48 6.15 10 10-3.54-.56-4.99-1.7-7.25-4.44l-1.58-1.87C505 234 505 234 505 232" fill="#E0E3DC"/><path d="M648 180h2l3 6-2 2h-3z" fill="#2A1D0C"/><path d="M590 136h2v2h2v2h4l1 3-2 3-3.5-3.88-1.97-2.17C590 138 590 138 590 136" fill="#372809"/><path d="m693 39-4 1v2a120 120 0 0 1-6 4c.12-2.31.12-2.31 1-5 5.07-3.31 5.07-3.31 9-2" fill="#232625"/><path d="M533 7c3.67.31 4.78.76 7.31 3.56L542 13l-3 1z" fill="#E5E8E5"/><path d="M741 0c6.03-.6 6.03-.6 8.8 1.11A86 86 0 0 1 754 5l-2 2-2.12-1.88C746.94 2.96 744.49 1.97 741 1z" fill="#CACDCB"/><path d="M732 0h9v3l-8 1z" fill="#1F2221"/><path d="M755 213c2 3 2 3 1.69 6.06C756 222 756 222 755 224h-3z" fill="#CFD2D0"/><path d="M690 178h2v4h-12c3.64-2.43 5.71-2.16 10-2z" fill="#D1B55B"/><path d="M541 152h1v8h2v8c-2.51-2.51-2.97-4.19-3.1-7.7l.04-2.99.02-3.01z" fill="#2C1906"/><path d="M635 692h1l3 12c-3-1-3-1-4.25-2.62-1.05-3.33-.4-6 .25-9.38" fill="#C4C8C4"/><path d="M494 657c2.43 3.64 2.16 5.71 2 10l-2-1v-4h-2v-4z" fill="#1D201F"/><path d="M695 163h3l-2 7h-3c.88-5.88.88-5.88 2-7" fill="#35250F"/><path d="M599 148h3v4h2l-1 8h-1z" fill="#352608"/><path d="M648 150h2c.2 6.05.2 6.05 0 8l-2 2c-1.37-2.74-1.13-4.97-1-8z" fill="#CDC48F"/><path d="M684 135c4.04 1.79 6.64 3.21 9 7h-3v-2l-5-1z" fill="#3C2D09"/><path d="m681 134 3 1a31 31 0 0 1 2 5h-6q-.06-2.5 0-5z" fill="#26210D"/><path d="M540 695h2v9h-3z" fill="#F2F4F3"/><path d="m745 631 3 1c-3.32 3.94-3.32 3.94-6.75 4.25L739 636l1-4h4z" fill="#20231F"/><path d="M918 589c5.75 1.75 5.75 1.75 8 4-3.81 1.47-6.29.43-10-1l2-1z" fill="#2A2D29"/><path d="M490 378c2.24 3.35 2.17 3.91 1.62 7.69l-.33 2.45L491 390c-2.24-3.35-2.17-3.91-1.62-7.69l.33-2.45z" fill="#D5D7D6"/><path d="M748 343h2l2 9h-3z" fill="#272B26"/><path d="m517 309 .44 1.88C518 313 518 313 519 315l-1 3-4-1 .94-2.31q1.1-2.82 2.06-5.69" fill="#242628"/><path d="M704 142c4.88 4.62 4.88 4.62 6 8l-2 2-.88-2.44C706 147 706 147 704 146z" fill="#D0BA69"/><path d="M676 48c2.25.25 2.25.25 4 1l-5 6-1-2-2-1c1.75-2.06 1.75-2.06 4-4" fill="#1F2122"/><path d="m754 676-2 3c-3 .31-3 .31-6 0l-2-2c3.38-1.04 6.48-1.08 10-1" fill="#D6D9D5"/><path d="M492 385h1v7h-2v6h-1c-.17-4.92-.25-8.5 2-13" fill="#3A3C3D"/><path d="m758 373 3 1c1.25 6.62 1.25 6.62-1 10z" fill="#D1D5CF"/><path d="m501 340 2 4a79 79 0 0 1-6 7l-1-2 1.94-2.81C500 343 500 343 501 340" fill="#DFE1E1"/><path d="M735 309c3 1 3 1 4.19 2.75.92 2.55.96 4.56.81 7.25-2.64-3.13-3.84-6.09-5-10" fill="#D4D7D8"/><path d="M531 272h1l-1 9-3 1 .94-4.44.52-2.49C530 273 530 273 531 272" fill="#E5E8E4"/><path d="m727 245 2 1c-1 3-1 3-4 5-2.19-.38-2.19-.38-4-1l3-1v-2z" fill="#2F332E"/><path d="M751 224h3a34 34 0 0 1-5 8h-2z" fill="#D8DBD9"/><path d="M588 160c2 3 2 3 2 6h-2v4h-3z" fill="#C0AA65"/><path d="M537 153h3v7h-3z" fill="#D1BC82"/><path d="M698 144h6l-4 8c-1.26-2.91-2-4.8-2-8" fill="#DDB146"/><path d="M592 140c4.21 2.88 5.76 5.04 7 10a89 89 0 0 1-4-4v-2h-3z" fill="#D6B770"/><path d="m542 13 5 5-1 3-6-7z" fill="#CED2CE"/><path d="m460 463 1 2 2 1-3 1-2 2-4-2z" fill="#202222"/><path d="M758 376c2.15 3.23 2.2 4.28 2 8h-2l-1 2c-.12-7.75-.12-7.75 1-10" fill="#242822"/><path d="M544 168h4v5h2l-1 3c-5-5.75-5-5.75-5-8" fill="#2E1F09"/><path d="M714 160c2.31 3.47 2.42 4.92 2 9l-3 3z" fill="#211402"/><path d="M657 137c-1.75 3.88-1.75 3.88-4 5l-3-2c2.5-3 2.74-3 7-3" fill="#28251A"/><path d="M558 32c2.62 1.05 3.79 1.65 5.25 4.12L564 38h-3c-2.19-2.5-2.19-2.5-4-5z" fill="#242824"/><path d="m715 10 2 2-7 6c0-3 0-3 2.5-5.69z" fill="#CBCECD"/><path d="M554 672c-2.39 2.39-3.68 2.68-7 3l-3-2c6.29-2.43 6.29-2.43 10-1" fill="#CDD1CB"/><path d="m954 618 3 4-2 4c-1.56-2.38-1.56-2.38-3-5 1-2 1-2 2-3" fill="#333536"/><path d="M453 466c0 4.32-2.13 5.93-5 9h-2c1.56-3.82 4.04-6.19 7-9" fill="#E3E6E4"/><path d="M750 341c2 1 2 1 2.63 2.85l.49 2.21.51 2.23.37 1.71-3-1z" fill="#E3E7E3"/><path d="M504 334h2l-2 8h-2c.88-6.88.88-6.88 2-8" fill="#D3D7D2"/><path d="m656 185 5 5-1 2c-3.88-1.75-3.88-1.75-5-4z" fill="#CAAC5C"/><path d="m580 176-1 3-5 1v2l-4-2a472 472 0 0 1 6.05-3.12C578 176 578 176 580 176" fill="#BFAA5E"/><path d="m702 159 2 1v6h-3q-.06-3 0-6z" fill="#EBBF5A"/><path d="m569 132 9 3v1l-10-1z" fill="#33280C"/><path d="M564 133c6.75.75 6.75.75 9 3h-9z" fill="#242012"/><path d="M696 130h5l-2 6-4-2 3-2h-2z" fill="#2C2412"/><path d="m697 29 2 3-4 4-2-1c1.15-2.47 2.05-4.05 4-6" fill="#242723"/><path d="M508 2v3h-2v2h-5c4.75-5 4.75-5 7-5" fill="#282B24"/><path d="m953 660 2 3-3 5-2-1c1.88-5.88 1.88-5.88 3-7" fill="#2A2D29"/><path d="M777 617h8c-1.12 1.56-1.12 1.56-3 3-3.19-.31-3.19-.31-6-1z" fill="#EBEEEB"/><path d="m911 585 7 1 1 3q-3.53-.9-7-2z" fill="#D6D9DA"/><path d="M488 434h1l1 12c-3-3-3-3-3.07-5.26l.38-2.43.37-2.45z" fill="#F1F4F2"/><path d="M652 168c2.12 2.62 4.13 5.2 6 8l-2 1c-2.57-1.28-2.95-2.37-4-5z" fill="#C3AD6B"/><path d="m708 17 2 1-2.88 3-1.61 1.69C704 24 704 24 702 24c1.39-3.37 2.98-4.99 6-7" fill="#DEE0DF"/><path d="M902 699v2c-2.31.62-2.31.62-5 1l-3-2c3.07-1.86 4.6-2.22 8-1" fill="#272A27"/><path d="m491 658 1 4h2c-.57 2.87-.86 3.86-3 6z" fill="#2E3030"/><path d="M959 646c.93 2.61 1.15 3.64.06 6.25L958 654c-1-1-1-1-1.06-4.06L957 647z" fill="#292D25"/><path d="m908 642 1 3-4 3-2-2z" fill="#2B2F2B"/><path d="m445 475 3 1-3 6h-2c.88-4.75.88-4.75 2-7" fill="#CED0D1"/><path d="M493 376h3l-1 6-3 1z" fill="#333538"/><path d="m500 346 2 1-2 7h-2c.88-6.88.88-6.88 2-8" fill="#D3D6D4"/><path d="m504 225 3 1 1 3-4 1-2-4z" fill="#292D23"/><path d="m666 196 8 2-2 2c-3.12-.38-3.12-.38-6-1z" fill="#271E0B"/><path d="M635 181h2v3h2l1-2-1 5-4-2z" fill="#1D201D"/><path d="m538 177 4 1v6c-2.5-2.17-3.44-3.73-4-7" fill="#C3AD67"/><path d="M659 176h6l1 3-3 1z" fill="#33250A"/><path d="M668 133h12l-2 3h-2v-2h-8z" fill="#2E250C"/></svg>