<svg style="background:transparent" version="1.1" xmlns="http://www.w3.org/2000/svg" viewBox="0 0 1248 704"><path d="M356.56 121.13c6.92 1.76 11.15 5.26 15.44 10.88l2.31 1.3c4.02 2.53 6.68 6.06 9.7 9.7l1.55 1.78c3.44 3.97 3.44 3.97 3.44 6.22l1.72.69c2.86 1.64 4.56 3.63 6.72 6.12q1.18 1.31 2.4 2.72L402 163c11.93 13.09 27.53 12.36 44.22 13.85 6.46.6 12.53 1.38 18.78 3.14 3.06.19 3.06.19 6-1a70 70 0 0 0 5.38-6.97C478 170 478 170 481 169c2.33-2.72 4.48-5.57 6.65-8.44 2.44-2.66 4.01-3.37 7.35-4.56l3.55-4.53c3.2-3.23 7.5-4.42 11.95-4.53 5.35 2.28 10.26 5.56 12.5 11.06a56 56 0 0 1 3.06 13.06c.87 6.63.87 6.63 1.46 9.32.48 2.66.6 5.06.61 7.75l.01 3v37.14l-.02 2.62c-.12 2.12-.12 2.12-1.12 4.12-.15 3.37-.08 5.77 1 9l-2 6a93 93 0 0 0 0 5q-.44 2.5-1 5l1.81-.94c2.2-1.06 2.2-1.06 5.2-2.06l.67 1.93c1.32 2.06 1.32 2.06 3.7 2.94 2.88.13 4.2-.36 6.62-1.87q.5.48 1 1 8.12 1.07 16.31 1c3.67 0 7.07.44 10.7 1h4l6.07.02 7.3.04 3.7.02h3.57l3.25.03c3.12-.12 6.03-.56 9.1-1.12q2.5-.29 5-.5c3.7-.36 7.33-.87 11-1.5h3l1.87-.56c2.13-.44 2.13-.44 4.63.13 2.93.5 4.02-.01 6.5-1.56q1.49.95 3 2 2.52-.95 5-2 1.49.48 3 1 2.74.09 5.5.06l2.9-.04 2.6-.02 6.18.02 3.7.04 3.67.03A47 47 0 0 0 684 258l1 1q2.9.1 5.81.06l3.21-.03 2.98-.02c13 0 13 0 15.5.62 2.5.38 2.5.38 5.5-1.62 2.23.27 3.83.9 5.81 1.97a30 30 0 0 0 7.2 2.2l2.55.56c2.47.26 4.1.02 6.44-.74l2 4 3-1c2.6.56 2.6.56 5.5 1.44 3.04.9 5.32 1.56 8.5 1.56a69 69 0 0 1 4.31 1.94 28 28 0 0 0 7.75 2.56c4.1.7 7.31 2.56 10.94 4.5l3 1.5 3 1.5a174 174 0 0 1 4.06 2l1.91.94c11.2 5.87 22.33 13.88 31.03 23.07a188 188 0 0 0 13 11.9c2 2.1 2 2.1 2 5.1l2.56.5c8.12 1.75 14.5 3.87 21.44 8.5v2l2.68.68c3.9 1.55 5.53 3.19 8.32 6.31l1.86 2.03c5.14 5.69 5.14 5.69 5.14 7.98l1.75.62c3.1 1.9 4.37 4.28 6.25 7.38l1.56 2.5c5.1 8.87 8.82 18.31 12.33 27.9 1.94 5.3 1.94 5.3 3.26 7.7 1.56 3.49 1.32 7.33 1.5 11.12.35 2.76.35 2.76 2.35 5.77-.38 1.93-.38 1.93-1 4q-.09 2.1-.03 4.24l.04 2.43.11 4.98c.07 5-.42 9.43-1.63 14.28-.68 2.88-.98 5.76-1.3 8.7-1.24 8.98-4.2 17.05-7.37 25.51a63 63 0 0 0-3.82 14.87q-.75 2.32-1.56 4.62c-1.15 3.26-1.75 5.87-1.44 9.38 0 3 0 3-1 6-.24 4.88-.29 7.68 2 12l.37 3.87c.68 5.98 3.67 9.54 8.25 13.25 6.66 4.7 13.16 7.36 21.38 6.88q1.12.21 2.26.48c3.3.62 6.4.64 9.74.63l3.62.01a45 45 0 0 0 8.38-1.12l3.5-.44A34 34 0 0 0 960 546a153 153 0 0 1 21-6l2.9-.62c5.16-.81 8.41-.7 12.91 2.13 6.23 4.84 10.27 9.63 12.94 17.09.5 4.7-1.07 8.38-3.68 12.25-11.69 13-26.57 17.61-42.92 22.25q-3.1.9-6.15 1.97c-3.32 1.02-6.56 1.47-10 1.93l-2 1c-17.15 1.91-33.63 1.74-50-4l-2.43-.85c-10.1-3.7-18.12-8.49-25.97-15.82-2.6-2.33-2.6-2.33-4.83-3.4-2.38-1.25-2.69-2.48-3.77-4.92q-2.55-4.13-5.17-8.24a27 27 0 0 1-3.83-8.76l-2-.94c-2-1.07-2-1.07-2.69-3.25l-.3-2.82a281 281 0 0 0-1.95-12.25l-.46-2.51C841 528 841 528 839 525l2-4-2-3 1-1.82c1-2.17 1-2.17 1-5.17q.98-3.01 2-6 .54-2.5 1-5a54 54 0 0 1 5-15v-5l3-3c.62-2.94.62-2.94 1-6l.56-2.2c.44-1.8.44-1.8.44-4.8l2.27-5.12c1.1-2.87 1.3-5.85 1.73-8.88q.7-1.94 1.5-3.82c3.68-9.4 4.23-23.51 1.5-33.18v-3l-.5-3.5c-.5-3.5-.5-3.5-.5-6.5q-1.97-1-4-2c1 1.99 1 1.99 3 5l-1.94 2.43c-2.29 3.4-2.57 6.37-2.85 10.38-.28 2.92-1.22 5.44-2.2 8.19-.09.38-.09.38-.48 2.35-.7 3.46-1.76 6.77-2.8 10.14-.73 2.5-.73 2.5-1.26 5.14-.47 2.36-.47 2.36-1.53 4.99C845 449 845 449 845 452l-.56 2c-.44 2-.44 2 .56 5-1.24 1.51-2.48 3.05-3.79 4.5-1.44 1.78-1.89 3.25-2.2 5.5q-.5.97-1 2l-.45 2.24A41 41 0 0 1 832 487q-.54 2-1 4a270 270 0 0 1-4.06 13.06 120 120 0 0 0-3.44 14.62c-.5 2.33-.5 2.33-1.5 5.07-1.05 3.41-1.39 6.56-1.72 10.1-.28 2.14-.28 2.14-1.34 5.15-1.09 3.45-1.04 6.3-.95 9.9.01 2.47-.47 4.7-.99 7.1v3.13c0 2.88 0 2.88-1 5.88.94 2.17.94 2.17 2 4l-1.82 2.3c-2.48 3.7-3.33 7.59-4.39 11.88a56 56 0 0 1-3.93 9.73c-.86 2.09-.86 2.09-1.3 4.35-.77 3.72-2.13 7.13-3.5 10.66a258 258 0 0 0-4.13 11.28 74 74 0 0 1-2.93 7.36 129 129 0 0 0-5 12.43l1.87.34L802 641l3.57.64c43.38 7.91 43.38 7.91 51.05 17.37.38 2 .38 2-.44 4.37-10.65 12.77-29.98 13.26-45.43 14.8l-4.68.5q-6.53.7-13.07 1.33c-.43.03-.43.03-2.57.25-7.83.73-15.59.87-23.46.83l-4.09-.01-8.79-.04-14.12-.03q-18.84-.03-37.68-.1c-44.8-.15-89.5.27-134.29 2.1l-2.8.1q-14.8.6-29.58 1.4l-7.6.38-21.02 1.12-2.84.14a2311 2311 0 0 0-41.56 2.6c-119.14 8.62-119.14 8.62-142.6-6.75a23 23 0 0 1-4-6c5.86-8.2 12.81-10.87 22.08-13.7 2.92-1.3 2.92-1.3 3.83-3.45l.1-1.85c-4.54-3.67-4.54-3.67-6.95-5.33-6.65-4.6-11.47-10.56-13.06-18.66-.08-6.65.38-11.95 5-17q4.14-3.59 8.44-6.95a40 40 0 0 0 7.18-7.18c2.61-2.06 3.43-2.14 6.63-2.37 6.75-.59 10.74-2.18 15.26-7.42q2.64-3.4 5.16-6.9a91 91 0 0 1 5.77-7.19 54 54 0 0 0 5.56-8c3.8-5.76 7.81-11.15 12.52-16.21A26 26 0 0 0 397 548q1.48-2.53 3-5l3.68-6.13 1.9-3.13C407 531 407 531 407 528l2-1 2 1q.44-.86.87-1.75L415 520l-3 1-2-1-2 6c-3 0-3 0-5-1l-.69 2.13c-2.14 4.69-5.6 8.33-9.3 11.88q-1 .96-2 2a128 128 0 0 1-3.57 3.42c-1.44 1.58-1.44 1.58-2.82 4-1.62 2.58-1.62 2.58-3.94 4.32-3.27 2.75-5.14 5.8-7.35 9.42q-.66.89-1.33 1.84h-2l-.82 1.62L368 568l-1.06 2.74c-2.38 3.99-5.32 6.4-8.88 9.33A15.5 15.5 0 0 0 354 586l-3 3-1.44 2.57c-1.76 2.75-2.72 3.03-5.56 4.43q-2.06 1.66-4.06 3.38c-4.96 3.9-9.92 5.87-15.94 7.63l-2.39.75c-7.12 1.97-12.55.63-19.17-2.38-7.1-4.47-13.78-11.31-16.44-19.37-.68-9.28 3-17.1 8.4-24.35 1.73-1.8 3.36-2.58 5.6-3.65l.94-2c1.5-2.83 3.06-3.06 6.06-4l2.94-.83c14.95-5.8 25.65-25.63 33.06-39.17l1.01-2.58c1.24-3.05 2.94-5.54 4.8-8.25a400 400 0 0 0 12.25-19.3q3.32-5.53 6.94-10.87a256 256 0 0 0 12.12-22.32 61 61 0 0 1 4.25-7.25c2.78-4.32 4.55-9 6.38-13.79 1.82-4.7 3.91-9.1 6.36-13.5 1.04-2.51.93-4.45.9-7.14 1.5-1.82 1.5-1.82 3-3l-1.45-2.7a28 28 0 0 1-2.56-8.3l-.5-1.88c-.5-2.12-.5-2.12-.94-5.56A34 34 0 0 0 393 377a27 27 0 0 1-.82-8.44c-1.47-4.44-2.62-4.75-6.68-6.82A128 128 0 0 0 370 356a60 60 0 0 1-24-14 93 93 0 0 1-2-4 295 295 0 0 0-5-5c-4-4.64-4-4.64-4-7l-1.78-.66c-2.92-1.75-4.03-3.75-5.78-6.65l-1.76-2.87-1.68-2.81-1.64-2.69c-3-5.13-3.47-9.44-3.36-15.31l-.49-1.91c-1.35-5.54-.77-11.6.5-17.1v-2.56c0-2.44 0-2.44.46-4.3.74-2.99.96-5.96 1.25-9.01C321 258 321 258 322 255q.39-3.04.75-6.1c.42-3.23 1.33-6.17 2.31-9.28.94-3.62.94-3.62.94-6.88 0-2.75 0-2.75 2-5.75.56-1.9.56-1.9 1-4l.5-2.25 1-4.62c.5-2.12.5-2.12 1.5-5.12l.5-2.13c.5-1.87.5-1.87 1.5-2.87.06-3.13.02-6.25-.04-9.37-.04-3.4.1-6.37 1.04-9.63q.32-2.72.56-5.44l.25-2.81c.2-2.76.2-2.76.15-5.48C336 171 336 171 337 169q.99-6.72 1-13.5c0-2.5 0-2.5 1-4.5q.2-2.81.31-5.62c.8-9.57 4.43-15.06 11.4-21.63 2.3-1.75 2.3-1.75 5.85-2.62M856 394l1 2 1-2zM427 500c-2.59.88-3.74 1.5-5.06 3.93L421 506q-1.47 1.52-3 3c-5 5.56-5 5.56-5 8l5 1-1-4q1.1-.6 2.25-1.18c2.96-1.97 4.64-3.99 6.75-6.82l2-2 1-3z" fill="#111312"/><path d="M356.56 121.13c6.92 1.76 11.15 5.26 15.44 10.88l2.31 1.3c4.02 2.53 6.68 6.06 9.7 9.7l1.55 1.78c3.44 3.97 3.44 3.97 3.44 6.22l1.72.69c2.86 1.64 4.56 3.63 6.72 6.12q1.18 1.31 2.4 2.72L402 163c11.93 13.09 27.53 12.36 44.22 13.85 6.46.6 12.53 1.38 18.78 3.14 3.06.19 3.06.19 6-1a70 70 0 0 0 5.38-6.97C478 170 478 170 481 169c2.33-2.72 4.48-5.57 6.65-8.44 2.44-2.66 4.01-3.37 7.35-4.56l3.55-4.53c3.2-3.23 7.5-4.42 11.95-4.53 5.35 2.28 10.26 5.56 12.5 11.06a56 56 0 0 1 3.06 13.06c.87 6.63.87 6.63 1.46 9.32.48 2.66.6 5.06.61 7.75l.01 3v37.14l-.02 2.62c-.12 2.12-.12 2.12-1.12 4.12-.15 3.37-.08 5.77 1 9l-2 6a93 93 0 0 0 0 5q-.44 2.5-1 5l1.81-.94c2.2-1.06 2.2-1.06 5.2-2.06l.67 1.93c1.32 2.06 1.32 2.06 3.7 2.94 2.88.13 4.2-.36 6.62-1.87q.5.48 1 1 8.12 1.07 16.31 1c3.67 0 7.07.44 10.7 1h4l6.07.02 7.3.04 3.7.02h3.57l3.25.03c3.12-.12 6.03-.56 9.1-1.12q2.5-.29 5-.5c3.7-.36 7.33-.87 11-1.5h3l1.87-.56c2.13-.44 2.13-.44 4.63.13 2.93.5 4.02-.01 6.5-1.56q1.49.95 3 2 2.52-.95 5-2 1.49.48 3 1 2.74.09 5.5.06l2.9-.04 2.6-.02 6.18.02 3.7.04 3.67.03A47 47 0 0 0 684 258l1 1q2.9.1 5.81.06l3.21-.03 2.98-.02c13 0 13 0 15.5.62 2.5.38 2.5.38 5.5-1.62 2.23.27 3.83.9 5.81 1.97a30 30 0 0 0 7.2 2.2l2.55.56c2.47.26 4.1.02 6.44-.74l2 4 3-1c2.6.56 2.6.56 5.5 1.44 3.04.9 5.32 1.56 8.5 1.56a69 69 0 0 1 4.31 1.94 28 28 0 0 0 7.75 2.56c4.1.7 7.31 2.56 10.94 4.5l3 1.5 3 1.5a174 174 0 0 1 4.06 2l1.91.94c11.2 5.87 22.33 13.88 31.03 23.07a188 188 0 0 0 13 11.9c2 2.1 2 2.1 2 5.1l2.56.5c8.12 1.75 14.5 3.87 21.44 8.5v2l2.68.68c3.9 1.55 5.53 3.19 8.32 6.31l1.86 2.03c5.14 5.69 5.14 5.69 5.14 7.98l1.75.62c3.1 1.9 4.37 4.28 6.25 7.38l1.56 2.5c5.1 8.87 8.82 18.31 12.33 27.9 1.94 5.3 1.94 5.3 3.26 7.7 1.56 3.49 1.32 7.33 1.5 11.12.35 2.76.35 2.76 2.35 5.77-.38 1.93-.38 1.93-1 4q-.09 2.1-.03 4.24l.04 2.43.11 4.98c.07 5-.42 9.43-1.63 14.28-.68 2.88-.98 5.76-1.3 8.7-1.24 8.98-4.2 17.05-7.37 25.51a63 63 0 0 0-3.82 14.87q-.75 2.32-1.56 4.62c-1.15 3.26-1.75 5.87-1.44 9.38 0 3 0 3-1 6-.24 4.88-.29 7.68 2 12l.37 3.87c.68 5.98 3.67 9.54 8.25 13.25 6.66 4.7 13.16 7.36 21.38 6.88q1.12.21 2.26.48c3.3.62 6.4.64 9.74.63l3.62.01a45 45 0 0 0 8.38-1.12l3.5-.44A34 34 0 0 0 960 546a153 153 0 0 1 21-6l2.9-.62c5.16-.81 8.41-.7 12.91 2.13 6.23 4.84 10.27 9.63 12.94 17.09.5 4.7-1.07 8.38-3.68 12.25-11.69 13-26.57 17.61-42.92 22.25q-3.1.9-6.15 1.97c-3.32 1.02-6.56 1.47-10 1.93l-2 1c-17.15 1.91-33.63 1.74-50-4l-2.43-.85c-10.1-3.7-18.12-8.49-25.97-15.82-2.6-2.33-2.6-2.33-4.83-3.4-2.38-1.25-2.69-2.48-3.77-4.92q-2.55-4.13-5.17-8.24a27 27 0 0 1-3.83-8.76l-2-.94c-2-1.07-2-1.07-2.69-3.25l-.3-2.82a281 281 0 0 0-1.95-12.25l-.46-2.51C841 528 841 528 839 525l2-4-2-3 1-1.82c1-2.17 1-2.17 1-5.17q.98-3.01 2-6 .54-2.5 1-5a54 54 0 0 1 5-15v-5l3-3c.62-2.94.62-2.94 1-6l.56-2.2c.44-1.8.44-1.8.44-4.8l2.27-5.12c1.1-2.87 1.3-5.85 1.73-8.88q.7-1.94 1.5-3.82c3.68-9.4 4.23-23.51 1.5-33.18v-3l-.5-3.5c-.5-3.5-.5-3.5-.5-6.5q-1.97-1-4-2c1 1.99 1 1.99 3 5l-1.94 2.43c-2.29 3.4-2.57 6.37-2.85 10.38-.28 2.92-1.22 5.44-2.2 8.19-.09.38-.09.38-.48 2.35-.7 3.46-1.76 6.77-2.8 10.14-.73 2.5-.73 2.5-1.26 5.14-.47 2.36-.47 2.36-1.53 4.99C845 449 845 449 845 452l-.56 2c-.44 2-.44 2 .56 5-1.24 1.51-2.48 3.05-3.79 4.5-1.44 1.78-1.89 3.25-2.2 5.5q-.5.97-1 2l-.45 2.24A41 41 0 0 1 832 487q-.54 2-1 4a270 270 0 0 1-4.06 13.06 120 120 0 0 0-3.44 14.62c-.5 2.33-.5 2.33-1.5 5.07-1.05 3.41-1.39 6.56-1.72 10.1-.28 2.14-.28 2.14-1.34 5.15-1.09 3.45-1.04 6.3-.95 9.9.01 2.47-.47 4.7-.99 7.1v3.13c0 2.88 0 2.88-1 5.88.94 2.17.94 2.17 2 4l-1.82 2.3c-2.48 3.7-3.33 7.59-4.39 11.88a56 56 0 0 1-3.93 9.73c-.86 2.09-.86 2.09-1.3 4.35-.77 3.72-2.13 7.13-3.5 10.66a258 258 0 0 0-4.13 11.28 74 74 0 0 1-2.93 7.36 129 129 0 0 0-5 12.43l1.87.34L802 641l3.57.64c43.38 7.91 43.38 7.91 51.05 17.37.38 2 .38 2-.44 4.37-10.65 12.77-29.98 13.26-45.43 14.8l-4.68.5q-6.53.7-13.07 1.33c-.43.03-.43.03-2.57.25-7.83.73-15.59.87-23.46.83l-4.09-.01-8.79-.04-14.12-.03q-18.84-.03-37.68-.1c-44.8-.15-89.5.27-134.29 2.1l-2.8.1q-14.8.6-29.58 1.4l-7.6.38-21.02 1.12-2.84.14a2311 2311 0 0 0-41.56 2.6c-119.14 8.62-119.14 8.62-142.6-6.75a23 23 0 0 1-4-6c5.86-8.2 12.81-10.87 22.08-13.7 2.92-1.3 2.92-1.3 3.83-3.45l.1-1.85c-4.54-3.67-4.54-3.67-6.95-5.33-6.65-4.6-11.47-10.56-13.06-18.66-.08-6.65.38-11.95 5-17q4.14-3.59 8.44-6.95a40 40 0 0 0 7.18-7.18c2.61-2.06 3.43-2.14 6.63-2.37 6.75-.59 10.74-2.18 15.26-7.42q2.64-3.4 5.16-6.9a91 91 0 0 1 5.77-7.19 54 54 0 0 0 5.56-8c3.8-5.76 7.81-11.15 12.52-16.21A26 26 0 0 0 397 548q1.48-2.53 3-5l3.68-6.13 1.9-3.13C407 531 407 531 407 528l2-1 2 1q.44-.86.87-1.75L415 520l-3 1-2-1-2 6c-3 0-3 0-5-1l-.69 2.13c-2.14 4.69-5.6 8.33-9.3 11.88q-1 .96-2 2a128 128 0 0 1-3.57 3.42c-1.44 1.58-1.44 1.58-2.82 4-1.62 2.58-1.62 2.58-3.94 4.32-3.27 2.75-5.14 5.8-7.35 9.42q-.66.89-1.33 1.84h-2l-.82 1.62L368 568l-1.06 2.74c-2.38 3.99-5.32 6.4-8.88 9.33A15.5 15.5 0 0 0 354 586l-3 3-1.44 2.57c-1.76 2.75-2.72 3.03-5.56 4.43q-2.06 1.66-4.06 3.38c-4.96 3.9-9.92 5.87-15.94 7.63l-2.39.75c-7.12 1.97-12.55.63-19.17-2.38-7.1-4.47-13.78-11.31-16.44-19.37-.68-9.28 3-17.1 8.4-24.35 1.73-1.8 3.36-2.58 5.6-3.65l.94-2c1.5-2.83 3.06-3.06 6.06-4l2.94-.83c14.95-5.8 25.65-25.63 33.06-39.17l1.01-2.58c1.24-3.05 2.94-5.54 4.8-8.25a400 400 0 0 0 12.25-19.3q3.32-5.53 6.94-10.87a256 256 0 0 0 12.12-22.32 61 61 0 0 1 4.25-7.25c2.78-4.32 4.55-9 6.38-13.79 1.82-4.7 3.91-9.1 6.36-13.5 1.04-2.51.93-4.45.9-7.14 1.5-1.82 1.5-1.82 3-3l-1.45-2.7a28 28 0 0 1-2.56-8.3l-.5-1.88c-.5-2.12-.5-2.12-.94-5.56A34 34 0 0 0 393 377a27 27 0 0 1-.82-8.44c-1.47-4.44-2.62-4.75-6.68-6.82A128 128 0 0 0 370 356a60 60 0 0 1-24-14 93 93 0 0 1-2-4 295 295 0 0 0-5-5c-4-4.64-4-4.64-4-7l-1.78-.66c-2.92-1.75-4.03-3.75-5.78-6.65l-1.76-2.87-1.68-2.81-1.64-2.69c-3-5.13-3.47-9.44-3.36-15.31l-.49-1.91c-1.35-5.54-.77-11.6.5-17.1v-2.56c0-2.44 0-2.44.46-4.3.74-2.99.96-5.96 1.25-9.01C321 258 321 258 322 255q.39-3.04.75-6.1c.42-3.23 1.33-6.17 2.31-9.28.94-3.62.94-3.62.94-6.88 0-2.75 0-2.75 2-5.75.56-1.9.56-1.9 1-4l.5-2.25 1-4.62c.5-2.12.5-2.12 1.5-5.12l.5-2.13c.5-1.87.5-1.87 1.5-2.87.06-3.13.02-6.25-.04-9.37-.04-3.4.1-6.37 1.04-9.63q.32-2.72.56-5.44l.25-2.81c.2-2.76.2-2.76.15-5.48C336 171 336 171 337 169q.99-6.72 1-13.5c0-2.5 0-2.5 1-4.5q.2-2.81.31-5.62c.8-9.57 4.43-15.06 11.4-21.63 2.3-1.75 2.3-1.75 5.85-2.62m-6.5 5.5c-6.4 7.38-7.49 15.36-8.54 24.77l-.38 3.35-.8 7.05-1.22 10.6c-2.17 18.97-2.17 18.97-2.56 28.38-.33 6.28-1.6 11.78-3.48 17.75-6.93 22.23-11.25 45.45-11.46 68.72l-.04 3.43c.1 15.84 7.75 26.32 17.42 38.32l2.02 2.69c7.85 10.19 16.8 17.13 28.98 21.32q1.75.78 3.56 1.62a38 38 0 0 0 7.94 2.25c4.81.94 7.65 3.13 11.5 6.13h2l-.22 3.65c0 6.53 1.88 12.53 3.66 18.77l.98 3.6c2.4 8.6 2.4 8.6 3.58 10.98 0 9.19-4.16 16.86-8 25l-1.3 2.8-4.26 9.06-1.36 2.88a169 169 0 0 1-8.64 15.87c-2.2 3.64-4.22 7.38-6.26 11.13a266 266 0 0 1-11 18.35q-3.5 5.35-6.68 10.9c-2.86 4.96-5.9 9.79-9.03 14.57a184 184 0 0 0-5.66 9.2c-7.47 13-18.03 29.78-32.63 35.05-8.09 3.08-13.6 8.32-17.18 16.18-1.67 6.1-2.26 13.96.18 19.88 12.12 14.2 12.12 14.2 20.12 15.5 10.45.26 20.87-3 28.97-9.72a93 93 0 0 0 6.96-7.61 80 80 0 0 1 5.52-5.67c5.7-5.62 10.4-12.05 15.25-18.37 5.68-7.37 11.38-14.6 17.68-21.44 2.72-3.01 5.33-6.1 7.94-9.2A539 539 0 0 1 410 515.68a240 240 0 0 0 13.06-15.26c2-2.49 4.1-4.82 6.26-7.18 6.4-7 12.11-14.56 17.87-22.1l1.88-2.45 1.6-2.12c1.34-1.56 1.34-1.56 3.34-2.56a69 69 0 0 1-7 13l-1.19 3.12c-1.47 3.67-3.72 6.5-6.13 9.62a71 71 0 0 0-7.43 11.38c-4 7.7-9.35 14.5-14.49 21.48q-4.34 5.9-8.64 11.82c-.27.39-.27.39-1.67 2.3a201 201 0 0 0-8 11.9c-6.62 10.64-14.64 20.47-22.44 30.26a284 284 0 0 0-6.68 8.74l-1.3 1.77-3.55 4.86c-4.19 4.63-8.84 6.87-14.98 8.12-4.72 1.18-7.48 2.77-10.95 6.14-1.55 1.49-1.55 1.49-4.74 3.55-5.22 3.58-7.82 7.95-9.8 13.93-.98 6.48.15 11.68 4 17 6.32 7.15 13.32 10.7 22.8 11.49 17.5.9 28.22-4.82 41.2-16.49l1.9-1.65c8.3-7.3 16.04-15.16 23.84-22.98l12.04-12.03 2.18-2.18a235 235 0 0 0 11.34-12.25c2.7-3.04 5.55-5.91 8.43-8.78q.92-.94 1.87-1.87l3.87-3.87 5.85-5.85c5.57-5.59 11.12-11.12 17.13-16.21a85 85 0 0 0 5.85-5.7c3.17-3.23 6.44-6.08 10-8.88 4.98-3.98 9.18-8.37 13.42-13.1a75 75 0 0 1 8.27-8.08c6.08-5.09 10.97-11.49 16-17.57q1.16-1.4 2.36-2.8C539 492 539 492 539 490l2.73.43a179 179 0 0 0 27.95 1.81h2.18c63.96-.29 63.96-.29 82.14-7.24l.07 1.85c.45 6.71 2.15 11.91 5.05 17.96l1.24 2.64q1.8 3.8 3.64 7.56l.95 1.94c11.5 23.42 29.68 43 50.67 58.17 24.5 17.73 24.5 17.73 28.06 31.51.7 4.64.67 9.2-1.2 13.55-2.75 3.37-6.66 4.8-10.57 6.5a33 33 0 0 0-6.9 4.33q-1.74.66-3.5 1.37c-3.92 1.82-5.18 3.04-7.5 6.63q-.68.96-1.36 1.97c-3.54 5.59-4.97 10.43-3.65 17.02 2.65 6.43 7.27 11.09 13.44 14.25 14.14 4.13 32.34 3.25 45.32-3.8 11.36-7.35 16.97-24.59 22.24-36.45l1.71-3.8a371 371 0 0 0 15.54-41.58l1.03-3.3c3.05-9.99 4.83-19.7 6.06-30.06 3.1-26.13 9.31-50.18 18.28-74.9 4.64-12.8 9.06-25.59 12.44-38.79a284 284 0 0 1 3-10.44c4.22-14.78 5.68-29.86 6.94-45.12h2c1.55 3.73 2.82 7.5 4 11.37l1 3.26 1 3.37 1.1 3.24c1.17 4.88 1.24 9.5 1.21 14.5v3.06c-.36 23.7-7.76 45.92-15.77 68-6.94 19.25-8.72 40.4.12 59.44 5.6 11.29 12.4 20.9 22.34 28.75l2.2 1.8c19.47 14.88 43.87 17.18 67.48 14.52 13.02-2.08 25.54-5.88 37.94-10.25l2.73-.96c7.86-2.87 15.22-6.76 20.65-13.3l1.68-1.97c2.72-3.8 2.76-7.33 2.32-11.84-2.69-6.1-7-11-13-14-12.09-.83-21.5.63-32.63 5.63-9 3.67-18.25 3.7-27.87 3.69q-1.87 0-3.8.04c-11.54 0-21.49-2.07-30.7-9.36-8.53-9.37-9.8-20.65-9.4-32.82.8-13.17 5.15-25.63 9.46-38 10.47-30.25 12.1-63.8-1.5-93.31A284 284 0 0 0 893 370l-1.37-2.74c-8.22-16.02-22.09-32.92-39.68-38.97-3.28-.9-6.53-1.62-9.87-2.25-3.8-1.29-4.34-2.54-6.08-6.04-1.58-1.51-1.58-1.51-3.25-2.81a45 45 0 0 1-6.8-6.87c-5.14-6.04-11.6-10.66-17.95-15.31l-2.29-1.72a115 115 0 0 0-18.77-10.92l-3.04-1.44A144 144 0 0 0 758 272l-3.33-1c-13.55-4.01-27.72-5.86-41.67-8l-3.3-.56a117 117 0 0 0-13.64-.65l-2.93-.02-9.57-.02h-3.36c-15.84-.01-31.54.57-47.33 1.75-18.88 1.4-37.7 1.81-56.62 1.81l-6.29.01c-16.89.04-33.3-.45-49.96-3.31l.93-1.9c1.46-4.27 1.76-8.45 2.13-12.93l.24-2.56q.37-4.31.7-8.62l.3-3.37c.86-11.52.74-23 .51-34.55q-.09-5.01-.14-10.03l-.13-6.5-.02-2.98c-.2-8.12-1.06-16.72-5.52-23.7-2.85-2.67-4.6-3.8-8.5-4.44-11.19.38-20.32 11.91-27.56 19.44q-2.32 2.4-4.64 4.75-2.08 2.12-4.14 4.26c-2.65 2.6-3.46 3.07-7.16 3.3a38 38 0 0 1-8.42-1.13c-7.37-1.53-14.83-1.77-22.33-2.18-15.57-.97-27.3-3.8-37.94-15.8l-3.3-4.06-4-4.5a614 614 0 0 1-7.57-8.63 163 163 0 0 0-16.74-16.4 76 76 0 0 1-3.7-3.47c-4.69-1.19-8.65-1.77-12.94.61M856 394l1 2 1-2zM427 500c-2.59.88-3.74 1.5-5.06 3.93L421 506q-1.47 1.52-3 3c-5 5.56-5 5.56-5 8l5 1-1-4q1.1-.6 2.25-1.18c2.96-1.97 4.64-3.99 6.75-6.82l2-2 1-3z" fill="#EEEFEE"/><path d="M356.56 121.13c6.92 1.76 11.15 5.26 15.44 10.88l2.31 1.3c4.02 2.53 6.68 6.06 9.7 9.7l1.55 1.78c3.44 3.97 3.44 3.97 3.44 6.22l1.72.69c2.86 1.64 4.56 3.63 6.72 6.12q1.18 1.31 2.4 2.72L402 163c11.93 13.09 27.53 12.36 44.22 13.85 6.46.6 12.53 1.38 18.78 3.14 3.06.19 3.06.19 6-1a70 70 0 0 0 5.38-6.97C478 170 478 170 481 169c2.33-2.72 4.48-5.57 6.65-8.44 2.44-2.66 4.01-3.37 7.35-4.56l3.55-4.53c3.2-3.23 7.5-4.42 11.95-4.53 5.35 2.28 10.26 5.56 12.5 11.06a56 56 0 0 1 3.06 13.06c.87 6.63.87 6.63 1.46 9.32.48 2.66.6 5.06.61 7.75l.01 3v37.14l-.02 2.62c-.12 2.12-.12 2.12-1.12 4.12-.15 3.37-.08 5.77 1 9l-2 6a93 93 0 0 0 0 5q-.44 2.5-1 5l1.81-.94c2.2-1.06 2.2-1.06 5.2-2.06l.67 1.93c1.32 2.06 1.32 2.06 3.7 2.94 2.88.13 4.2-.36 6.62-1.87q.5.48 1 1 8.12 1.07 16.31 1c3.67 0 7.07.44 10.7 1h4l6.07.02 7.3.04 3.7.02h3.57l3.25.03c3.12-.12 6.03-.56 9.1-1.12q2.5-.29 5-.5c3.7-.36 7.33-.87 11-1.5h3l1.87-.56c2.13-.44 2.13-.44 4.63.13 2.93.5 4.02-.01 6.5-1.56q1.49.95 3 2 2.52-.95 5-2 1.49.48 3 1 2.74.09 5.5.06l2.9-.04 2.6-.02 6.18.02 3.7.04 3.67.03A47 47 0 0 0 684 258l1 1q2.9.1 5.81.06l3.21-.03 2.98-.02c13 0 13 0 15.5.62 2.5.38 2.5.38 5.5-1.62 2.23.27 3.83.9 5.81 1.97a30 30 0 0 0 7.2 2.2l2.55.56c2.47.26 4.1.02 6.44-.74l2 4 3-1c2.6.56 2.6.56 5.5 1.44 3.04.9 5.32 1.56 8.5 1.56a69 69 0 0 1 4.31 1.94 28 28 0 0 0 7.75 2.56c4.1.7 7.31 2.56 10.94 4.5l3 1.5 3 1.5a174 174 0 0 1 4.06 2l1.91.94c11.2 5.87 22.33 13.88 31.03 23.07a188 188 0 0 0 13 11.9c2 2.1 2 2.1 2 5.1l2.56.5c8.12 1.75 14.5 3.87 21.44 8.5v2l2.68.68c3.9 1.55 5.53 3.19 8.32 6.31l1.86 2.03c5.14 5.69 5.14 5.69 5.14 7.98l1.75.62c3.1 1.9 4.37 4.28 6.25 7.38l1.56 2.5c5.1 8.87 8.82 18.31 12.33 27.9 1.94 5.3 1.94 5.3 3.26 7.7 1.56 3.49 1.32 7.33 1.5 11.12.35 2.76.35 2.76 2.35 5.77-.38 1.93-.38 1.93-1 4q-.09 2.1-.03 4.24l.04 2.43.11 4.98c.07 5-.42 9.43-1.63 14.28-.68 2.88-.98 5.76-1.3 8.7-1.24 8.98-4.2 17.05-7.37 25.51a63 63 0 0 0-3.82 14.87q-.75 2.32-1.56 4.62c-1.15 3.26-1.75 5.87-1.44 9.38 0 3 0 3-1 6-.24 4.88-.29 7.68 2 12l.37 3.87c.68 5.98 3.67 9.54 8.25 13.25 6.66 4.7 13.16 7.36 21.38 6.88q1.12.21 2.26.48c3.3.62 6.4.64 9.74.63l3.62.01a45 45 0 0 0 8.38-1.12l3.5-.44A34 34 0 0 0 960 546a153 153 0 0 1 21-6l2.9-.62c5.16-.81 8.41-.7 12.91 2.13 6.23 4.84 10.27 9.63 12.94 17.09.5 4.7-1.07 8.38-3.68 12.25-11.69 13-26.57 17.61-42.92 22.25q-3.1.9-6.15 1.97c-3.32 1.02-6.56 1.47-10 1.93l-2 1c-17.15 1.91-33.63 1.74-50-4l-2.43-.85c-10.1-3.7-18.12-8.49-25.97-15.82-2.6-2.33-2.6-2.33-4.83-3.4-2.38-1.25-2.69-2.48-3.77-4.92q-2.55-4.13-5.17-8.24a27 27 0 0 1-3.83-8.76l-2-.94c-2-1.07-2-1.07-2.69-3.25l-.3-2.82a281 281 0 0 0-1.95-12.25l-.46-2.51C841 528 841 528 839 525l2-4-2-3 1-1.82c1-2.17 1-2.17 1-5.17q.98-3.01 2-6 .54-2.5 1-5a54 54 0 0 1 5-15v-5l3-3c.62-2.94.62-2.94 1-6l.56-2.2c.44-1.8.44-1.8.44-4.8l2.27-5.12c1.1-2.87 1.3-5.85 1.73-8.88q.7-1.94 1.5-3.82c3.68-9.4 4.23-23.51 1.5-33.18v-3l-.5-3.5c-.5-3.5-.5-3.5-.5-6.5q-1.97-1-4-2c1 1.99 1 1.99 3 5l-1.94 2.43c-2.29 3.4-2.57 6.37-2.85 10.38-.28 2.92-1.22 5.44-2.2 8.19-.09.38-.09.38-.48 2.35-.7 3.46-1.76 6.77-2.8 10.14-.73 2.5-.73 2.5-1.26 5.14-.47 2.36-.47 2.36-1.53 4.99C845 449 845 449 845 452l-.56 2c-.44 2-.44 2 .56 5-1.24 1.51-2.48 3.05-3.79 4.5-1.44 1.78-1.89 3.25-2.2 5.5q-.5.97-1 2l-.45 2.24A41 41 0 0 1 832 487q-.54 2-1 4a270 270 0 0 1-4.06 13.06 120 120 0 0 0-3.44 14.62c-.5 2.33-.5 2.33-1.5 5.07-1.05 3.41-1.39 6.56-1.72 10.1-.28 2.14-.28 2.14-1.34 5.15-1.09 3.45-1.04 6.3-.95 9.9.01 2.47-.47 4.7-.99 7.1v3.13c0 2.88 0 2.88-1 5.88.94 2.17.94 2.17 2 4l-1.82 2.3c-2.48 3.7-3.33 7.59-4.39 11.88a56 56 0 0 1-3.93 9.73c-.86 2.09-.86 2.09-1.3 4.35-.77 3.72-2.13 7.13-3.5 10.66a258 258 0 0 0-4.13 11.28 74 74 0 0 1-2.93 7.36 129 129 0 0 0-5 12.43l1.87.34L802 641l3.57.64c43.38 7.91 43.38 7.91 51.05 17.37.38 2 .38 2-.44 4.37-10.65 12.77-29.98 13.26-45.43 14.8l-4.68.5q-6.53.7-13.07 1.33c-.43.03-.43.03-2.57.25-7.83.73-15.59.87-23.46.83l-4.09-.01-8.79-.04-14.12-.03q-18.84-.03-37.68-.1c-44.8-.15-89.5.27-134.29 2.1l-2.8.1q-14.8.6-29.58 1.4l-7.6.38-21.02 1.12-2.84.14a2311 2311 0 0 0-41.56 2.6c-119.14 8.62-119.14 8.62-142.6-6.75a23 23 0 0 1-4-6c5.86-8.2 12.81-10.87 22.08-13.7 2.92-1.3 2.92-1.3 3.83-3.45l.1-1.85c-4.54-3.67-4.54-3.67-6.95-5.33-6.65-4.6-11.47-10.56-13.06-18.66-.08-6.65.38-11.95 5-17q4.14-3.59 8.44-6.95a40 40 0 0 0 7.18-7.18c2.61-2.06 3.43-2.14 6.63-2.37 6.75-.59 10.74-2.18 15.26-7.42q2.64-3.4 5.16-6.9a91 91 0 0 1 5.77-7.19 54 54 0 0 0 5.56-8c3.8-5.76 7.81-11.15 12.52-16.21A26 26 0 0 0 397 548q1.48-2.53 3-5l3.68-6.13 1.9-3.13C407 531 407 531 407 528l2-1 2 1q.44-.86.87-1.75L415 520l-3 1-2-1-2 6c-3 0-3 0-5-1l-.69 2.13c-2.14 4.69-5.6 8.33-9.3 11.88q-1 .96-2 2a128 128 0 0 1-3.57 3.42c-1.44 1.58-1.44 1.58-2.82 4-1.62 2.58-1.62 2.58-3.94 4.32-3.27 2.75-5.14 5.8-7.35 9.42q-.66.89-1.33 1.84h-2l-.82 1.62L368 568l-1.06 2.74c-2.38 3.99-5.32 6.4-8.88 9.33A15.5 15.5 0 0 0 354 586l-3 3-1.44 2.57c-1.76 2.75-2.72 3.03-5.56 4.43q-2.06 1.66-4.06 3.38c-4.96 3.9-9.92 5.87-15.94 7.63l-2.39.75c-7.12 1.97-12.55.63-19.17-2.38-7.1-4.47-13.78-11.31-16.44-19.37-.68-9.28 3-17.1 8.4-24.35 1.73-1.8 3.36-2.58 5.6-3.65l.94-2c1.5-2.83 3.06-3.06 6.06-4l2.94-.83c14.95-5.8 25.65-25.63 33.06-39.17l1.01-2.58c1.24-3.05 2.94-5.54 4.8-8.25a400 400 0 0 0 12.25-19.3q3.32-5.53 6.94-10.87a256 256 0 0 0 12.12-22.32 61 61 0 0 1 4.25-7.25c2.78-4.32 4.55-9 6.38-13.79 1.82-4.7 3.91-9.1 6.36-13.5 1.04-2.51.93-4.45.9-7.14 1.5-1.82 1.5-1.82 3-3l-1.45-2.7a28 28 0 0 1-2.56-8.3l-.5-1.88c-.5-2.12-.5-2.12-.94-5.56A34 34 0 0 0 393 377a27 27 0 0 1-.82-8.44c-1.47-4.44-2.62-4.75-6.68-6.82A128 128 0 0 0 370 356a60 60 0 0 1-24-14 93 93 0 0 1-2-4 295 295 0 0 0-5-5c-4-4.64-4-4.64-4-7l-1.78-.66c-2.92-1.75-4.03-3.75-5.78-6.65l-1.76-2.87-1.68-2.81-1.64-2.69c-3-5.13-3.47-9.44-3.36-15.31l-.49-1.91c-1.35-5.54-.77-11.6.5-17.1v-2.56c0-2.44 0-2.44.46-4.3.74-2.99.96-5.96 1.25-9.01C321 258 321 258 322 255q.39-3.04.75-6.1c.42-3.23 1.33-6.17 2.31-9.28.94-3.62.94-3.62.94-6.88 0-2.75 0-2.75 2-5.75.56-1.9.56-1.9 1-4l.5-2.25 1-4.62c.5-2.12.5-2.12 1.5-5.12l.5-2.13c.5-1.87.5-1.87 1.5-2.87.06-3.13.02-6.25-.04-9.37-.04-3.4.1-6.37 1.04-9.63q.32-2.72.56-5.44l.25-2.81c.2-2.76.2-2.76.15-5.48C336 171 336 171 337 169q.99-6.72 1-13.5c0-2.5 0-2.5 1-4.5q.2-2.81.31-5.62c.8-9.57 4.43-15.06 11.4-21.63 2.3-1.75 2.3-1.75 5.85-2.62m-6.5 5.5c-6.4 7.38-7.49 15.36-8.54 24.77l-.38 3.35-.8 7.05-1.22 10.6c-2.17 18.97-2.17 18.97-2.56 28.38-.33 6.28-1.6 11.78-3.48 17.75-6.93 22.23-11.25 45.45-11.46 68.72l-.04 3.43c.1 15.84 7.75 26.32 17.42 38.32l2.02 2.69c7.85 10.19 16.8 17.13 28.98 21.32q1.75.78 3.56 1.62a38 38 0 0 0 7.94 2.25c4.81.94 7.65 3.13 11.5 6.13h2l-.22 3.65c0 6.53 1.88 12.53 3.66 18.77l.98 3.6c2.4 8.6 2.4 8.6 3.58 10.98 0 9.19-4.16 16.86-8 25l-1.3 2.8-4.26 9.06-1.36 2.88a169 169 0 0 1-8.64 15.87c-2.2 3.64-4.22 7.38-6.26 11.13a266 266 0 0 1-11 18.35q-3.5 5.35-6.68 10.9c-2.86 4.96-5.9 9.79-9.03 14.57a184 184 0 0 0-5.66 9.2c-7.47 13-18.03 29.78-32.63 35.05-8.09 3.08-13.6 8.32-17.18 16.18-1.67 6.1-2.26 13.96.18 19.88 12.12 14.2 12.12 14.2 20.12 15.5 10.45.26 20.87-3 28.97-9.72a93 93 0 0 0 6.96-7.61 80 80 0 0 1 5.52-5.67c5.7-5.62 10.4-12.05 15.25-18.37 5.68-7.37 11.38-14.6 17.68-21.44 2.72-3.01 5.33-6.1 7.94-9.2A539 539 0 0 1 410 515.68a240 240 0 0 0 13.06-15.26c2-2.49 4.1-4.82 6.26-7.18 6.4-7 12.11-14.56 17.87-22.1l1.88-2.45 1.6-2.12c1.34-1.56 1.34-1.56 3.34-2.56a69 69 0 0 1-7 13l-1.19 3.12c-1.47 3.67-3.72 6.5-6.13 9.62a71 71 0 0 0-7.43 11.38c-4 7.7-9.35 14.5-14.49 21.48q-4.34 5.9-8.64 11.82c-.27.39-.27.39-1.67 2.3a201 201 0 0 0-8 11.9c-6.62 10.64-14.64 20.47-22.44 30.26a284 284 0 0 0-6.68 8.74l-1.3 1.77-3.55 4.86c-4.19 4.63-8.84 6.87-14.98 8.12-4.72 1.18-7.48 2.77-10.95 6.14-1.55 1.49-1.55 1.49-4.74 3.55-5.22 3.58-7.82 7.95-9.8 13.93-.98 6.48.15 11.68 4 17 5.61 6.35 12.53 10.28 21 11.4q4.7.25 9.43.28l6.37.15 2.8.02c2.4.15 2.4.15 5.4 1.15q2.5-1.47 5-3c9.97-3.34 20.3-5.05 30.67-6.62l3.98-.62 7.76-1.2q4.66-.73 9.28-1.58c8.71-1.47 17.51-2.15 26.3-2.98l7.87-.75 5.28-.5q6.38-.6 12.74-1.26a765 765 0 0 1 36.72-2.87l9.57-.57 6.34-.37 2.76-.16a1581 1581 0 0 1 12.15-.64 838 838 0 0 1 42.82-1.01h35.36c29.47-.03 58.92.38 88.4 1.13 0 2.82-1.29 4.09-2.89 6.38-4.39 6.35-6.26 10.78-5.12 18.63 2.6 6.41 7.3 11.1 13.44 14.24 14.14 4.13 32.34 3.25 45.32-3.8 11.36-7.35 16.97-24.59 22.24-36.45l1.71-3.8a371 371 0 0 0 15.54-41.58l1.03-3.3c3.05-9.99 4.83-19.7 6.06-30.06 3.1-26.13 9.31-50.18 18.28-74.9 4.64-12.8 9.06-25.59 12.44-38.79a284 284 0 0 1 3-10.44c4.22-14.78 5.68-29.86 6.94-45.12h2c1.55 3.73 2.82 7.5 4 11.37l1 3.26 1 3.37 1.1 3.24c1.17 4.88 1.24 9.5 1.21 14.5v3.06c-.36 23.7-7.76 45.92-15.77 68-6.94 19.25-8.72 40.4.12 59.44 5.6 11.29 12.4 20.9 22.34 28.75l2.2 1.8c19.47 14.88 43.87 17.18 67.48 14.52 13.02-2.08 25.54-5.88 37.94-10.25l2.73-.96c7.86-2.87 15.22-6.76 20.65-13.3l1.68-1.97c2.72-3.8 2.76-7.33 2.32-11.84-2.69-6.1-7-11-13-14-12.09-.83-21.5.63-32.63 5.63-9 3.67-18.25 3.7-27.87 3.69q-1.87 0-3.8.04c-11.54 0-21.49-2.07-30.7-9.36-8.53-9.37-9.8-20.65-9.4-32.82.8-13.17 5.15-25.63 9.46-38 10.47-30.25 12.1-63.8-1.5-93.31A284 284 0 0 0 893 370l-1.37-2.74c-8.22-16.02-22.09-32.92-39.68-38.97-3.28-.9-6.53-1.62-9.87-2.25-3.8-1.29-4.34-2.54-6.08-6.04-1.58-1.51-1.58-1.51-3.25-2.81a45 45 0 0 1-6.8-6.87c-5.14-6.04-11.6-10.66-17.95-15.31l-2.29-1.72a115 115 0 0 0-18.77-10.92l-3.04-1.44A144 144 0 0 0 758 272l-3.33-1c-13.55-4.01-27.72-5.86-41.67-8l-3.3-.56a117 117 0 0 0-13.64-.65l-2.93-.02-9.57-.02h-3.36c-15.84-.01-31.54.57-47.33 1.75-18.88 1.4-37.7 1.81-56.62 1.81l-6.29.01c-16.89.04-33.3-.45-49.96-3.31l.93-1.9c1.46-4.27 1.76-8.45 2.13-12.93l.24-2.56q.37-4.31.7-8.62l.3-3.37c.86-11.52.74-23 .51-34.55q-.09-5.01-.14-10.03l-.13-6.5-.02-2.98c-.2-8.12-1.06-16.72-5.52-23.7-2.85-2.67-4.6-3.8-8.5-4.44-11.19.38-20.32 11.91-27.56 19.44q-2.32 2.4-4.64 4.75-2.08 2.12-4.14 4.26c-2.65 2.6-3.46 3.07-7.16 3.3a38 38 0 0 1-8.42-1.13c-7.37-1.53-14.83-1.77-22.33-2.18-15.57-.97-27.3-3.8-37.94-15.8l-3.3-4.06-4-4.5a614 614 0 0 1-7.57-8.63 163 163 0 0 0-16.74-16.4 76 76 0 0 1-3.7-3.47c-4.69-1.19-8.65-1.77-12.94.61M856 394l1 2 1-2zM427 500c-2.59.88-3.74 1.5-5.06 3.93L421 506q-1.47 1.52-3 3c-5 5.56-5 5.56-5 8l5 1-1-4q1.1-.6 2.25-1.18c2.96-1.97 4.64-3.99 6.75-6.82l2-2 1-3z" fill="#BDBFBE"/><path d="M356.56 121.13c6.92 1.76 11.15 5.26 15.44 10.88l2.31 1.3c4.02 2.53 6.68 6.06 9.7 9.7l1.55 1.78c3.44 3.97 3.44 3.97 3.44 6.22l1.72.69c2.86 1.64 4.56 3.63 6.72 6.12q1.18 1.31 2.4 2.72L402 163c11.93 13.09 27.53 12.36 44.22 13.85 6.46.6 12.53 1.38 18.78 3.14 3.06.19 3.06.19 6-1a70 70 0 0 0 5.38-6.97C478 170 478 170 481 169c2.33-2.72 4.48-5.57 6.65-8.44 2.44-2.66 4.01-3.37 7.35-4.56l3.55-4.53c3.2-3.23 7.5-4.42 11.95-4.53 5.35 2.28 10.26 5.56 12.5 11.06a56 56 0 0 1 3.06 13.06c.87 6.63.87 6.63 1.46 9.32.48 2.66.6 5.06.61 7.75l.01 3v37.14l-.02 2.62c-.12 2.12-.12 2.12-1.12 4.12-.15 3.37-.08 5.77 1 9l-2 6a93 93 0 0 0 0 5q-.44 2.5-1 5l1.81-.94c2.2-1.06 2.2-1.06 5.2-2.06l.67 1.93c1.32 2.06 1.32 2.06 3.7 2.94 2.88.13 4.2-.36 6.62-1.87q.5.48 1 1 8.12 1.07 16.31 1c3.67 0 7.07.44 10.7 1h4l6.07.02 7.3.04 3.7.02h3.57l3.25.03c3.12-.12 6.03-.56 9.1-1.12q2.5-.29 5-.5c3.7-.36 7.33-.87 11-1.5h3l1.87-.56c2.13-.44 2.13-.44 4.63.13 2.93.5 4.02-.01 6.5-1.56q1.49.95 3 2 2.52-.95 5-2 1.49.48 3 1 2.74.09 5.5.06l2.9-.04 2.6-.02 6.18.02 3.7.04 3.67.03A47 47 0 0 0 684 258l1 1q2.9.1 5.81.06l3.21-.03 2.98-.02c13 0 13 0 15.5.62 2.5.38 2.5.38 5.5-1.62 2.23.27 3.83.9 5.81 1.97a30 30 0 0 0 7.2 2.2l2.55.56c2.47.26 4.1.02 6.44-.74l2 4 3-1c2.6.56 2.6.56 5.5 1.44 3.04.9 5.32 1.56 8.5 1.56a69 69 0 0 1 4.31 1.94 28 28 0 0 0 7.75 2.56c4.1.7 7.31 2.56 10.94 4.5l3 1.5 3 1.5a174 174 0 0 1 4.06 2l1.91.94c11.2 5.87 22.33 13.88 31.03 23.07a188 188 0 0 0 13 11.9c2 2.1 2 2.1 2 5.1l2.56.5c8.12 1.75 14.5 3.87 21.44 8.5v2l2.68.68c3.9 1.55 5.53 3.19 8.32 6.31l1.86 2.03c5.14 5.69 5.14 5.69 5.14 7.98l1.75.62c3.1 1.9 4.37 4.28 6.25 7.38l1.56 2.5c5.1 8.87 8.82 18.31 12.33 27.9 1.94 5.3 1.94 5.3 3.26 7.7 1.56 3.49 1.32 7.33 1.5 11.12.35 2.76.35 2.76 2.35 5.77-.38 1.93-.38 1.93-1 4q-.09 2.1-.03 4.24l.04 2.43.11 4.98c.07 5-.42 9.43-1.63 14.28-.68 2.88-.98 5.76-1.3 8.7-1.24 8.98-4.2 17.05-7.37 25.51a63 63 0 0 0-3.82 14.87q-.75 2.32-1.56 4.62c-1.15 3.26-1.75 5.87-1.44 9.38 0 3 0 3-1 6-.24 4.88-.29 7.68 2 12l.37 3.87c.68 5.98 3.67 9.54 8.25 13.25 6.66 4.7 13.16 7.36 21.38 6.88q1.12.21 2.26.48c3.3.62 6.4.64 9.74.63l3.62.01a45 45 0 0 0 8.38-1.12l3.5-.44A34 34 0 0 0 960 546a153 153 0 0 1 21-6l2.9-.62c5.16-.81 8.41-.7 12.91 2.13 6.23 4.84 10.27 9.63 12.94 17.09.5 4.7-1.07 8.38-3.68 12.25-11.69 13-26.57 17.61-42.92 22.25q-3.1.9-6.15 1.97c-3.32 1.02-6.56 1.47-10 1.93l-2 1c-17.15 1.91-33.63 1.74-50-4l-2.43-.85c-10.1-3.7-18.12-8.49-25.97-15.82-2.6-2.33-2.6-2.33-4.83-3.4-2.38-1.25-2.69-2.48-3.77-4.92q-2.55-4.13-5.17-8.24a27 27 0 0 1-3.83-8.76l-2-.94c-2-1.07-2-1.07-2.69-3.25l-.3-2.82a281 281 0 0 0-1.95-12.25l-.46-2.51C841 528 841 528 839 525l2-4-2-3 1-1.82c1-2.17 1-2.17 1-5.17q.98-3.01 2-6 .54-2.5 1-5a54 54 0 0 1 5-15v-5l3-3c.62-2.94.62-2.94 1-6l.56-2.2c.44-1.8.44-1.8.44-4.8l2.27-5.12c1.1-2.87 1.3-5.85 1.73-8.88q.7-1.94 1.5-3.82c3.68-9.4 4.23-23.51 1.5-33.18v-3l-.5-3.5c-.5-3.5-.5-3.5-.5-6.5q-1.97-1-4-2c1 1.99 1 1.99 3 5l-1.94 2.43c-2.29 3.4-2.57 6.37-2.85 10.38-.28 2.92-1.22 5.44-2.2 8.19-.09.38-.09.38-.48 2.35-.7 3.46-1.76 6.77-2.8 10.14-.73 2.5-.73 2.5-1.26 5.14-.47 2.36-.47 2.36-1.53 4.99C845 449 845 449 845 452l-.56 2c-.44 2-.44 2 .56 5-1.24 1.51-2.48 3.05-3.79 4.5-1.44 1.78-1.89 3.25-2.2 5.5q-.5.97-1 2l-.45 2.24A41 41 0 0 1 832 487q-.54 2-1 4a270 270 0 0 1-4.06 13.06 120 120 0 0 0-3.44 14.62c-.5 2.33-.5 2.33-1.5 5.07-1.05 3.41-1.39 6.56-1.72 10.1-.28 2.14-.28 2.14-1.34 5.15-1.09 3.45-1.04 6.3-.95 9.9.01 2.47-.47 4.7-.99 7.1v3.13c0 2.88 0 2.88-1 5.88.94 2.17.94 2.17 2 4l-1.82 2.3c-2.48 3.7-3.33 7.59-4.39 11.88a56 56 0 0 1-3.93 9.73c-.86 2.09-.86 2.09-1.3 4.35-.77 3.72-2.13 7.13-3.5 10.66a258 258 0 0 0-4.13 11.28 74 74 0 0 1-2.93 7.36 129 129 0 0 0-5 12.43l1.87.34L802 641l3.57.64c43.38 7.91 43.38 7.91 51.05 17.37.38 2 .38 2-.44 4.37-10.65 12.77-29.98 13.26-45.43 14.8l-4.68.5q-6.53.7-13.07 1.33c-.43.03-.43.03-2.57.25-7.83.73-15.59.87-23.46.83l-4.09-.01-8.79-.04-14.12-.03q-18.84-.03-37.68-.1c-44.8-.15-89.5.27-134.29 2.1l-2.8.1q-14.8.6-29.58 1.4l-7.6.38-21.02 1.12-2.84.14a2311 2311 0 0 0-41.56 2.6c-119.14 8.62-119.14 8.62-142.6-6.75a23 23 0 0 1-4-6c5.86-8.2 12.81-10.87 22.08-13.7 2.92-1.3 2.92-1.3 3.83-3.45l.1-1.85c-4.54-3.67-4.54-3.67-6.95-5.33-6.65-4.6-11.47-10.56-13.06-18.66-.08-6.65.38-11.95 5-17q4.14-3.59 8.44-6.95a40 40 0 0 0 7.18-7.18c2.61-2.06 3.43-2.14 6.63-2.37 6.75-.59 10.74-2.18 15.26-7.42q2.64-3.4 5.16-6.9a91 91 0 0 1 5.77-7.19 54 54 0 0 0 5.56-8c3.8-5.76 7.81-11.15 12.52-16.21A26 26 0 0 0 397 548q1.48-2.53 3-5l3.68-6.13 1.9-3.13C407 531 407 531 407 528l2-1 2 1q.44-.86.87-1.75L415 520l-3 1-2-1-2 6c-3 0-3 0-5-1l-.69 2.13c-2.14 4.69-5.6 8.33-9.3 11.88q-1 .96-2 2a128 128 0 0 1-3.57 3.42c-1.44 1.58-1.44 1.58-2.82 4-1.62 2.58-1.62 2.58-3.94 4.32-3.27 2.75-5.14 5.8-7.35 9.42q-.66.89-1.33 1.84h-2l-.82 1.62L368 568l-1.06 2.74c-2.38 3.99-5.32 6.4-8.88 9.33A15.5 15.5 0 0 0 354 586l-3 3-1.44 2.57c-1.76 2.75-2.72 3.03-5.56 4.43q-2.06 1.66-4.06 3.38c-4.96 3.9-9.92 5.87-15.94 7.63l-2.39.75c-7.12 1.97-12.55.63-19.17-2.38-7.1-4.47-13.78-11.31-16.44-19.37-.68-9.28 3-17.1 8.4-24.35 1.73-1.8 3.36-2.58 5.6-3.65l.94-2c1.5-2.83 3.06-3.06 6.06-4l2.94-.83c14.95-5.8 25.65-25.63 33.06-39.17l1.01-2.58c1.24-3.05 2.94-5.54 4.8-8.25a400 400 0 0 0 12.25-19.3q3.32-5.53 6.94-10.87a256 256 0 0 0 12.12-22.32 61 61 0 0 1 4.25-7.25c2.78-4.32 4.55-9 6.38-13.79 1.82-4.7 3.91-9.1 6.36-13.5 1.04-2.51.93-4.45.9-7.14 1.5-1.82 1.5-1.82 3-3l-1.45-2.7a28 28 0 0 1-2.56-8.3l-.5-1.88c-.5-2.12-.5-2.12-.94-5.56A34 34 0 0 0 393 377a27 27 0 0 1-.82-8.44c-1.47-4.44-2.62-4.75-6.68-6.82A128 128 0 0 0 370 356a60 60 0 0 1-24-14 93 93 0 0 1-2-4 295 295 0 0 0-5-5c-4-4.64-4-4.64-4-7l-1.78-.66c-2.92-1.75-4.03-3.75-5.78-6.65l-1.76-2.87-1.68-2.81-1.64-2.69c-3-5.13-3.47-9.44-3.36-15.31l-.49-1.91c-1.35-5.54-.77-11.6.5-17.1v-2.56c0-2.44 0-2.44.46-4.3.74-2.99.96-5.96 1.25-9.01C321 258 321 258 322 255q.39-3.04.75-6.1c.42-3.23 1.33-6.17 2.31-9.28.94-3.62.94-3.62.94-6.88 0-2.75 0-2.75 2-5.75.56-1.9.56-1.9 1-4l.5-2.25 1-4.62c.5-2.12.5-2.12 1.5-5.12l.5-2.13c.5-1.87.5-1.87 1.5-2.87.06-3.13.02-6.25-.04-9.37-.04-3.4.1-6.37 1.04-9.63q.32-2.72.56-5.44l.25-2.81c.2-2.76.2-2.76.15-5.48C336 171 336 171 337 169q.99-6.72 1-13.5c0-2.5 0-2.5 1-4.5q.2-2.81.31-5.62c.8-9.57 4.43-15.06 11.4-21.63 2.3-1.75 2.3-1.75 5.85-2.62m-6.5 5.5c-6.4 7.38-7.49 15.36-8.54 24.77l-.38 3.35-.8 7.05-1.22 10.6c-2.17 18.97-2.17 18.97-2.56 28.38-.33 6.28-1.6 11.78-3.48 17.75-6.93 22.23-11.25 45.45-11.46 68.72l-.04 3.43c.1 15.84 7.75 26.32 17.42 38.32l2.02 2.69c7.85 10.19 16.8 17.13 28.98 21.32q1.75.78 3.56 1.62a38 38 0 0 0 7.94 2.25c4.81.94 7.65 3.13 11.5 6.13h2l-.22 3.65c0 6.53 1.88 12.53 3.66 18.77l.98 3.6c2.4 8.6 2.4 8.6 3.58 10.98 0 9.19-4.16 16.86-8 25l-1.3 2.8-4.26 9.06-1.36 2.88a169 169 0 0 1-8.64 15.87c-2.2 3.64-4.22 7.38-6.26 11.13a266 266 0 0 1-11 18.35q-3.5 5.35-6.68 10.9c-2.86 4.96-5.9 9.79-9.03 14.57a184 184 0 0 0-5.66 9.2c-7.47 13-18.03 29.78-32.63 35.05-8.09 3.08-13.6 8.32-17.18 16.18-1.67 6.1-2.26 13.96.18 19.88 12.12 14.2 12.12 14.2 20.12 15.5 10.45.26 20.87-3 28.97-9.72a93 93 0 0 0 6.96-7.61 80 80 0 0 1 5.52-5.67c5.7-5.62 10.4-12.05 15.25-18.37 5.68-7.37 11.38-14.6 17.68-21.44 2.72-3.01 5.33-6.1 7.94-9.2A539 539 0 0 1 410 515.68a240 240 0 0 0 13.06-15.26c2-2.49 4.1-4.82 6.26-7.18 6.4-7 12.11-14.56 17.87-22.1l1.88-2.45 1.6-2.12c1.34-1.56 1.34-1.56 3.34-2.56a69 69 0 0 1-7 13l-1.19 3.12c-1.47 3.67-3.72 6.5-6.13 9.62a71 71 0 0 0-7.43 11.38c-4 7.7-9.35 14.5-14.49 21.48q-4.34 5.9-8.64 11.82c-.27.39-.27.39-1.67 2.3a201 201 0 0 0-8 11.9c-6.62 10.64-14.64 20.47-22.44 30.26a284 284 0 0 0-6.68 8.74l-1.3 1.77-3.55 4.86c-4.19 4.63-8.84 6.87-14.98 8.12-4.72 1.18-7.48 2.77-10.95 6.14-1.55 1.49-1.55 1.49-4.74 3.55-5.22 3.58-7.82 7.95-9.8 13.93-.98 6.48.15 11.68 4 17 5.05 5.72 10.77 8.72 18 11l1.83.6c3.15.58 6.21.5 9.41.47l3.83-.04 2.92-.02v2l-2.49.28c-6.49.88-12.18 2.08-18.17 4.7a80 80 0 0 1-7.03 2.58 112 112 0 0 0-11.3 4.43v2h-2v2l-4 1c-1.14 3.75-1.14 3.75 0 6 19 9.63 43.8 10.15 64.6 10.13h3.61c14.55-.06 29.07-.75 43.6-1.47l8.87-.4 8.63-.4q3.01-.15 6.03-.28l3.67-.2 3.22-.14c2.76-.24 2.76-.24 4.71-.74 2.93-.72 5.81-.8 8.83-.95l2.05-.1 6.74-.36 4.8-.25q6.38-.34 12.74-.64l9.87-.52q8.65-.46 17.32-.88 11.4-.55 22.76-1.2c24.53-1.4 48.97-1.87 73.54-1.85q9.45.01 18.91-.01 26.84-.06 53.67-.04 14.95 0 29.9-.05h15.64c21.83.07 43.4-.57 65.11-2.87l2.88-.3c9.4-.99 18.57-2.26 27.67-4.85l2.04-.55c4.98-1.54 8.5-3.94 12.58-7.08.18-3.18.18-3.18-1-7-3.46-2.23-7.15-3.6-11-5l-2.38-1.01a76 76 0 0 0-10.37-2.87l-2.32-.5a453 453 0 0 0-21.06-3.87l-3.19-.53A86 86 0 0 0 786 642a327 327 0 0 1 6.48-15.62 363 363 0 0 0 14.77-39.75l1.03-3.31c3.05-9.99 4.83-19.7 6.06-30.06 3.1-26.13 9.31-50.18 18.28-74.9 4.64-12.8 9.06-25.59 12.44-38.79a284 284 0 0 1 3-10.44c4.22-14.78 5.68-29.86 6.94-45.12h2c1.55 3.73 2.82 7.5 4 11.37l1 3.26 1 3.37 1.1 3.24c1.17 4.88 1.24 9.5 1.21 14.5v3.06c-.36 23.7-7.76 45.92-15.77 68-6.94 19.25-8.72 40.4.12 59.44 5.6 11.29 12.4 20.9 22.34 28.75l2.2 1.8c19.47 14.88 43.87 17.18 67.48 14.52 13.02-2.08 25.54-5.88 37.94-10.25l2.73-.96c7.86-2.87 15.22-6.76 20.65-13.3l1.68-1.97c2.72-3.8 2.76-7.33 2.32-11.84-2.69-6.1-7-11-13-14-12.09-.83-21.5.63-32.63 5.63-9 3.67-18.25 3.7-27.87 3.69q-1.87 0-3.8.04c-11.54 0-21.49-2.07-30.7-9.36-8.53-9.37-9.8-20.65-9.4-32.82.8-13.17 5.15-25.63 9.46-38 10.47-30.25 12.1-63.8-1.5-93.31A284 284 0 0 0 893 370l-1.37-2.74c-8.22-16.02-22.09-32.92-39.68-38.97-3.28-.9-6.53-1.62-9.87-2.25-3.8-1.29-4.34-2.54-6.08-6.04-1.58-1.51-1.58-1.51-3.25-2.81a45 45 0 0 1-6.8-6.87c-5.14-6.04-11.6-10.66-17.95-15.31l-2.29-1.72a115 115 0 0 0-18.77-10.92l-3.04-1.44A144 144 0 0 0 758 272l-3.33-1c-13.55-4.01-27.72-5.86-41.67-8l-3.3-.56a117 117 0 0 0-13.64-.65l-2.93-.02-9.57-.02h-3.36c-15.84-.01-31.54.57-47.33 1.75-18.88 1.4-37.7 1.81-56.62 1.81l-6.29.01c-16.89.04-33.3-.45-49.96-3.31l.93-1.9c1.46-4.27 1.76-8.45 2.13-12.93l.24-2.56q.37-4.31.7-8.62l.3-3.37c.86-11.52.74-23 .51-34.55q-.09-5.01-.14-10.03l-.13-6.5-.02-2.98c-.2-8.12-1.06-16.72-5.52-23.7-2.85-2.67-4.6-3.8-8.5-4.44-11.19.38-20.32 11.91-27.56 19.44q-2.32 2.4-4.64 4.75-2.08 2.12-4.14 4.26c-2.65 2.6-3.46 3.07-7.16 3.3a38 38 0 0 1-8.42-1.13c-7.37-1.53-14.83-1.77-22.33-2.18-15.57-.97-27.3-3.8-37.94-15.8l-3.3-4.06-4-4.5a614 614 0 0 1-7.57-8.63 163 163 0 0 0-16.74-16.4 76 76 0 0 1-3.7-3.47c-4.69-1.19-8.65-1.77-12.94.61M856 394l1 2 1-2zM427 500c-2.59.88-3.74 1.5-5.06 3.93L421 506q-1.47 1.52-3 3c-5 5.56-5 5.56-5 8l5 1-1-4q1.1-.6 2.25-1.18c2.96-1.97 4.64-3.99 6.75-6.82l2-2 1-3z" fill="#E7E8EA"/><path d="M455.74 262.4c6.12 4.35 10.15 11.47 12.26 18.6a28.7 28.7 0 0 1-4 20c-5.43 6.17-11.7 10.81-20.12 11.5-12.79.4-12.79.4-17.57-3.06-1.73-1.65-1.73-1.65-3.3-3.44l-1.78-1.89c-3.75-4.18-5.37-6.5-5.29-12.24l.02-2.75.04-2.12c3 2.82 5.15 5.24 7.2 8.81 1.58 2.3 2.32 3.07 5.06 3.78 5.88.23 11.05-.94 15.74-4.59 3.11-3.39 4.24-6.8 4.44-11.38-.26-4.79-1.08-9.4-3.44-13.62-2.94-2-2.94-2-6-3l-1.94-.69c-7.56-1.14-11.79.71-18.06 4.7 2.34-5.54 6.88-7.6 12.17-10 8.72-3.28 16.36-3.2 24.57 1.38" fill="#EDD467"/><path d="M363.7 245.64c4.72-.4 8.02-.4 12.16 2.05 5.96 5.07 10.54 10.28 11.33 18.25q.22 3.34.25 6.68l.03 2.18c-.1 6.23-1.7 10.82-5.47 15.9a31.8 31.8 0 0 1-21 6.7c-5.1-1-8.2-4.28-11-8.4-3.65-7.1-5.67-13-5-21a38 38 0 0 1 2.88 6.94c1.43 3.91 3.3 7.15 7.12 9.06 4.8.52 8.73.71 13-1.69 4.75-5.49 4.49-11.4 4-18.3a100 100 0 0 0-2-9l-1.81-.39c-2.2-.62-2.2-.62-5.2-2.62-1.93-.23-1.93-.23-4-.19l-2.05.02C355 252 355 252 352 253a88 88 0 0 0-2 4l-2 1c1.46-4.52 3.65-7.65 7-11 2.92-1 5.66-.96 8.7-1.36" fill="#F1DE52"/><path d="M1002 545.8c4.12 4.27 7.45 9.15 8 15.2-1.75 8.94-7.6 14.91-14.92 20.05-9.94 5.68-20.97 8.94-31.93 12.05q-3.1.89-6.15 1.96c-3.32 1.04-6.56 1.47-10 1.94l-2 1c-17.15 1.91-33.63 1.73-50-4l-2.43-.85c-10.1-3.7-18.12-8.49-25.97-15.83-2.6-2.32-2.6-2.32-4.83-3.4-2.39-1.25-2.69-2.47-3.77-4.92a559 559 0 0 0-4.06-6.63c-3.22-5.17-5.08-8.16-4.94-14.37a80 80 0 0 1 4.62 8.06c10.32 18.84 26.25 29.62 46.37 36.11a79 79 0 0 0 22.63 3.08l2.94-.03c18.88-.28 36.35-4.9 54.06-11.16l2.73-.95c9.05-3.3 17.15-8 22.65-16.1 1.41-4.25 1.94-7.92.06-12.1-2.85-4.79-6-8.38-11.06-10.9-10.5-.73-19.16-.03-29 4l-5.25 1.74L956 551v-4l3.25-.75a101 101 0 0 0 10.31-3.25c12.42-4.14 22.28-6.4 32.43 2.8" fill="#DDDEE0"/><path d="m638 258 2.19 1.12c3.47 1.08 4.58.32 7.81-1.12l3 1q2.75.1 5.5.06l2.91-.02L662 259q3.09 0 6.18.04l3.7.02 3.67.04A48 48 0 0 0 684 258l1 1q2.91.1 5.81.06l3.21-.02L697 259c13 0 13 0 15.5.62 2.5.38 2.5.38 5.5-1.62 2.19.38 2.19.38 4 1v2c-3.38 2.25-4.42 2.23-8.36 2.18l-3.36-.03-3.67-.06-5.8-.05-6.21-.06c-20.91-.21-41.68-.1-62.54 1.52-19.65 1.51-39.23 1.78-58.94 1.75h-4.37l-12.24-.05-3.75-.01-3.42-.03-2.99-.02C544 266 544 266 542 265l1-4 2.56.22c10.4.85 10.4.85 14.82.78 3.64 0 7.02.45 10.62 1h4l6.09.04a1772 1772 0 0 1 14.56.06l3.25.01c3.12-.11 6.04-.54 9.1-1.11q2.5-.27 5-.5a146 146 0 0 0 11-1.5h3l1.88-.56c2.12-.44 2.12-.44 4.74.12l2.38.44z" fill="#DCDCDE"/><path d="m907 412 2 1c1.42 4.61 1.18 9.47 1.19 14.25l.03 2.45c.02 4.96-.54 9.41-1.73 14.23-.68 2.87-.98 5.76-1.3 8.69-1.23 8.99-4.19 17.06-7.37 25.52A63 63 0 0 0 896 493q-.75 2.33-1.56 4.62c-1.15 3.28-1.75 5.88-1.44 9.38 0 3 0 3-1 6-.23 4.89-.29 7.7 2 12l.38 3.88c.67 5.97 3.66 9.54 8.24 13.24 6.66 4.71 13.16 7.36 21.38 6.88l2.26.48c3.29.62 6.39.65 9.74.64l3.62.01c2.95-.11 5.52-.46 8.38-1.13 3.69-.69 3.69-.69 7-1l2 2c-7.89 3.24-14.97 3.45-23.44 3.38l-3.81.03c-12.22-.04-23.47-2.43-32.57-11.16-8.26-9.97-9.3-22.26-8.45-34.69 1.27-12.22 5.31-23.84 9.33-35.37 6.81-19.7 8.62-39.45 8.94-60.19" fill="#EAECED"/><path d="m339 152 2 1c.2 8.54-.39 16.78-1.44 25.25-.9 7.53-1.7 14.99-2 22.56a55 55 0 0 1-2.37 13.73c-7.05 23.77-12.34 47.86-12.57 72.71l-.04 3.43c.06 9.33 1.74 16.39 6.98 24.2l1.82 2.74L333 320c2 3 2 3 2 6-3.98-1.5-5.4-3.73-7.56-7.31l-1.76-2.87L324 313l-1.64-2.68c-3.01-5.14-3.47-9.44-3.36-15.32l-.49-1.9c-1.35-5.54-.77-11.6.49-17.1v-2.56c0-2.44 0-2.44.47-4.31.74-2.98.96-5.96 1.25-9.01C321 258 321 258 322 255l.75-6.09c.42-3.23 1.33-6.17 2.31-9.29.94-3.62.94-3.62.94-6.87 0-2.75 0-2.75 2-5.75.56-1.9.56-1.9 1-4l.5-2.25 1-4.63c.5-2.12.5-2.12 1.5-5.12l.5-2.12c.5-1.88.5-1.88 1.5-2.88.06-3.13.02-6.24-.04-9.37-.04-3.4.1-6.36 1.04-9.63q.32-2.71.56-5.44l.26-2.81c.18-2.75.18-2.75.14-5.47C336 171 336 171 337 169q1-6.75 1-13.56c0-2.44 0-2.44 1-3.44" fill="#E3E4E3"/><path d="M416 287c2.99 2.82 5.16 5.24 7.19 8.81 1.59 2.3 2.34 3.07 5.07 3.78 5.84.23 11.12-.89 15.74-4.59a35 35 0 0 0 4-7l3 2 2-1-.11 2.99-.08 3.89-.1 3.86.29 3.26c3 2 3 2 6 3l-3.25 2.44-1.83 1.37c-6.18 3.83-15.9 3.16-22.92 2.19-3.45-1.41-5.56-3.23-8-6l-1.77-1.89c-3.75-4.18-5.37-6.51-5.29-12.23l.02-2.76z" fill="#EDD354"/><path d="M384 258c3.15 4.73 3.21 8.74 3.25 14.25l.06 2.24c.05 6.45-1.4 10.95-5.31 16.2a31.8 31.8 0 0 1-21 6.7c-5.1-.99-8.2-4.27-11-8.39-3.65-7.11-5.67-13-5-21a38 38 0 0 1 2.88 6.94c1.43 3.91 3.31 7.15 7.12 9.06 5.35.68 9.65.74 14.12-2.5L372 279l2 1v2l-2 2h2l1 1 3-2c3.19.38 3.19.38 6 1v-12h-2v-5h1z" fill="#F2DD5E"/><path d="M862 407h2c7.98 23.94-2.66 54.74-11 77-7.62 20.71-10.27 38.33-5 60l1 2q.06 3 0 6c-1.94-.69-1.94-.69-4-2-.69-2.19-.69-2.19-1-5q-.82-6.15-1.94-12.25l-.46-2.52C841 528 841 528 839 525l2-4-2-3 1-1.81c1-2.19 1-2.19 1-5.19q.98-3 2-6 .54-2.5 1-5a54 54 0 0 1 5-15v-5l3-3c.62-2.94.62-2.94 1-6l.56-2.19C854 467 854 467 854 464l2.28-5.11c1.1-2.87 1.29-5.86 1.72-8.89a89 89 0 0 1 1.5-3.81c3.7-9.45 4.18-23.46 1.5-33.19.44-2.12.44-2.12 1-4z" fill="#EBECEF"/><path d="M356.56 121.13c6.92 1.76 11.15 5.26 15.44 10.88l2.31 1.3c4.02 2.53 6.68 6.06 9.7 9.7l1.55 1.78c3.44 3.97 3.44 3.97 3.44 6.22l1.72.69c2.86 1.64 4.56 3.63 6.72 6.12q1.18 1.31 2.4 2.72L402 163c7.24 7.94 13.91 10.72 24.5 11.8A684 684 0 0 0 437 176v2l3.18-.07c3.14.05 5.8.32 8.82 1.06v1c-35.79-.84-35.79-.84-49.26-14.25A235 235 0 0 1 393 158l-6.06-7.12-1.56-1.83a170 170 0 0 0-18.72-18.6A74 74 0 0 1 363 127a30 30 0 0 0-10-1c-4.97 3.23-7.43 8.4-9 14-1 5.94-1.5 11.98-2 18h-1a30.5 30.5 0 0 1 .5-23.2c3.43-5.94 8.26-12.01 15.06-13.69" fill="#E8EAEB"/><path d="M455.74 262.38c5.39 3.86 8.68 9.6 11.26 15.62v2l-5-1v-7h-2l-1-2-1 2h-10l-1 3-.62-2.31c-2.07-4.04-5.2-4.91-9.32-6.38-7.56-1.14-11.78.7-18.06 4.69 2.34-5.53 6.89-7.6 12.18-9.98 8.72-3.3 16.34-3.2 24.56 1.36" fill="#E4CF63"/><path d="M524 182h1l1 14h1l.43 11.95.21 6.04c.65 18.42.65 18.42-.64 21.01-.14 3.38-.08 5.77 1 9q-.98 3-2 6-.06 2.5 0 5-.44 2.5-1 5l1.81-.94C529 258 529 258 532 257l.69 1.94c1.31 2.06 1.31 2.06 3.69 2.94 2.88.13 4.2-.36 6.62-1.88l-1 5c-7.9.41-14.47-.63-22-3l.4-2.39a262 262 0 0 0 2.72-23.55l.26-3.65c1.05-16.78.8-33.6.62-50.41" fill="#E4E4E4"/><path d="M416 287c2.99 2.82 5.16 5.24 7.19 8.81 1.59 2.3 2.34 3.07 5.07 3.78 5.84.23 11.12-.89 15.74-4.59a35 35 0 0 0 4-7l2 3-3.71 4.39A68 68 0 0 0 443 300c-2.62.19-2.62.19-5 0v2l-5 1-1 3h-2v2h2v3l18-1v-2h4v-2l5-1c-4.1 4.75-8.95 7.01-15.12 7.5-12.79.4-12.79.4-17.57-3.06-1.73-1.65-1.73-1.65-3.31-3.44l-1.77-1.89c-3.75-4.18-5.37-6.51-5.29-12.23l.02-2.76z" fill="#DDC454"/><path d="M363.7 245.64c4.88-.42 8.06-.43 12.27 2.26 6.62 5.87 6.62 5.87 8.03 10.1h-2v-2l-6 2v4h-2v11h-1l-.37-3.94c-.53-4.78-1.5-9.39-2.63-14.06l-1.81-.38c-2.2-.62-2.2-.62-5.2-2.62-1.93-.23-1.93-.23-4-.19l-2.05.02C355 252 355 252 352 253a88 88 0 0 0-2 4l-2 1c1.46-4.52 3.65-7.65 7-11 2.92-1 5.66-.96 8.7-1.36" fill="#F3E663"/><path d="M396 294a38 38 0 0 1 5 5l2 2c0 2.38 0 2.38-1 5-3.85 3.22-7.02 4.53-12 5v2h2v4c-3.88-1.88-3.88-1.88-5-3q-.1-4.28-.06-8.56l.01-2.45.05-5.99h2v-2c2.64-1.32 4.06-1.41 7-1" fill="#7E807A"/><path d="M345 268a38 38 0 0 1 2.88 6.94c1.31 3.57 2.27 5.5 5.12 8.06 3.3 1 6.59 1.56 10 2v1l-11 1v2h2v3h4v-3c6.29-2.43 6.29-2.43 10-1v2h-2v2h-2v2l5-1 1-3h4v-2h9c-2.96 5.08-6.76 6.52-12.12 8.27-5.74 1.46-9.93 1.74-15.26-1.02-6.06-5.2-10.03-13.09-10.94-21.04.01-2.07.15-4.14.32-6.21" fill="#F3E455"/><path d="m646 258 2.15.5c2.9.51 5.54.6 8.47.56l2.86-.02a202 202 0 0 1 8.7 0l3.7.02 3.67.04A48 48 0 0 0 684 258l1 1q2.91.1 5.81.06l3.21-.02L697 259c13 0 13 0 15.5.62 2.5.38 2.5.38 5.5-1.62 2.19.38 2.19.38 4 1v2c-3.62 2.41-6.15 2.23-10.32 2.14l-2.24-.03-7.36-.13-5.1-.08q-6.7-.1-13.42-.23l-13.69-.22q-13.43-.21-26.87-.45z" fill="#EEEEF1"/><path d="M417 507h2c-1.37 4-3.26 6.8-6 10l3-1v-2c3.09-1.76 4.23-2 8-2-.38 5.46-3.62 9.06-6.81 13.25l-1.62 2.22-1.59 2.11-1.44 1.92c-1.8 1.75-3.09 2.11-5.54 2.5l-1-5 3-2 2 1 .88-1.75L415 520l-3 1-2-1-2 6h-3l-2-2a53 53 0 0 1 7.56-10.19l2.38-2.6A161 161 0 0 1 417 507" fill="#EDF1F4"/><path d="M335 324a83 83 0 0 1 9 10.25c9.36 11.48 23.29 19.13 37.88 21.75 4.96.94 9.61 3.33 13.12 7 .25 2.7.25 2.7 0 5l-1-2-6-2-2.36-1.44a42 42 0 0 0-8.08-3.62l-2.93-1.05q-2.8-.94-5.63-1.77c-9.06-3.39-20.76-9-25-18.12a262 262 0 0 0-5-5c-4-4.43-4-4.43-4-9" fill="#E1E2E3"/><path d="M851 413c1.62 1.44 1.62 1.44 3 4-.39 5.42-2.5 10.64-4.28 15.73-.97 3.05-1.6 6.14-2.25 9.26-.57 2.45-1.51 4.69-2.47 7.01v3l-.56 2c-.44 2-.44 2 .56 5a109 109 0 0 1-3.79 4.51c-1.44 1.77-1.89 3.24-2.21 5.49l-1 2q-.54 2.5-1 5l-3-1 1-2 .4-2.54c.76-4.38 1.98-8.57 3.22-12.84l.8-2.73q2.2-7.65 4.46-15.29l.95-3.21 1.81-6.13A222 222 0 0 0 851 413" fill="#E0E2E4"/><path d="M452 464h2c-.42 4.46-2.35 7.32-4.75 10.96C448 477 448 477 446.56 480.5c-1.94 4.35-4.59 7.8-7.56 11.5l-1-2h-3c-.71-1.75-.71-1.75-1-4 1.37-1.97 1.37-1.97 3.44-4.06 4.06-4.3 7.49-8.83 10.9-13.65C450 466 450 466 452 464" fill="#E4E6E6"/><path d="M391 154c3.06.31 3.96.95 6.04 3.29l2.15 2.9c6.94 8.77 14.05 13 25.21 14.44q2.27.26 4.54.49l2.36.27 5.7.61v2l3.19-.06c3.14.05 5.78.33 8.81 1.06v1c-35.8-.83-35.8-.83-49.61-14.61-6.41-6.91-6.41-6.91-8.39-11.39" fill="#E2E1DF"/><path d="m793 626 3 1-1.38 2.62A67 67 0 0 0 791 639l1.84.33q11.55 2.08 23.07 4.27l4.22.8 6.18 1.16 3.68.69C833 647 833 647 836 649c-6.84.38-13.25-1.05-19.94-2.38-10-1.92-19.93-3.58-30.06-4.62.53-4.14 1.39-7.21 3.5-10.81l1.34-2.33C792 627 792 627 793 626" fill="#ECEDF0"/><path d="M1004 571c-3.53 7.89-11.31 11.84-19 15a303 303 0 0 1-21.86 7.1c-3.14.9-3.14.9-6.26 2.09-3.11.87-4.82.71-7.88-.19v-2l3.38-.81a286 286 0 0 0 27.24-8.13l2.73-.94c6.71-2.45 13.25-5.6 18.28-10.8C1002 571 1002 571 1004 571" fill="#D8D8DA"/><path d="m488 161 3 1c-3.99 4.9-8.29 9.4-12.75 13.88l-1.75 1.76c-5.31 5.29-5.31 5.29-9.5 5.55-3.77-.06-7.28-.75-10.96-1.55-3.87-.82-7.77-1.54-11.66-2.26l-4.23-.79L437 178v-2l9.5.88 2.69.23A96 96 0 0 1 465 180c3.06.19 3.06.19 6-1a70 70 0 0 0 5.39-6.97C478 170 478 170 481 169c1.82-1.85 1.82-1.85 3.69-4.06l1.88-2.23z" fill="#E5E6E6"/><path d="M336 650c3.29.49 6.3 1.41 9.44 2.5 6.4 1.99 12.89 2.22 19.56 2.5v2l-2.67.59-3.52.79-3.48.77c-3.33.85-3.33.85-6.05 1.94-2.85 1.14-5.24 1.05-8.28.91l2-5-1.88-.88c-2.52-1.33-4.1-3.1-6.12-5.12z" fill="#F4F6F7"/><path d="m726.88 260.88 2.62.55q2.36.54 4.67 1.17c2.24.48 3.69.08 5.83-.6q.99 1.95 2 4l3-1c2.49.77 2.49.77 5.18 1.94l2.74 1.14 2.08.92v2l3 1c-6.26-.79-12.38-2.1-18.57-3.44A292 292 0 0 0 713 264v-1l3.38-.94c6.78-1.99 6.78-1.99 10.5-1.19" fill="#DBDBDD"/><path d="m339 152 2 1c.36 10.22-.77 20.13-2 30.25l-.58 4.89q-.7 5.94-1.42 11.86l-3-1c-.07-4.29-.06-7.85 1-12q.32-2.71.56-5.44l.26-2.81c.18-2.75.18-2.75.14-5.47C336 171 336 171 337 169q1-6.75 1-13.56c0-2.44 0-2.44 1-3.44" fill="#E8EAEA"/><path d="M834 471c2 3 2 3 2 5l.19 2.44c-.23 3.17-1.01 3.38-3.19 5.56-.76 2.34-1.4 4.62-2 7l-1.5 5.06-.78 2.6a170 170 0 0 1-1.78 5.4c-1.25 3.93-2.1 7.91-2.94 11.94l-4 1a75 75 0 0 1 3.06-14l.64-2c3.23-10.07 6.78-20.03 10.3-30" fill="#DFE0E1"/><path d="m893 591 6.93 1.37q2.54.51 5.05 1.14c5.95 1.48 11.53 1.76 17.64 1.68l2.9-.02c6.93-.06 13.79-.46 20.68-1.15C949 594 949 594 952 596c-17.84 6.34-39.39 3.73-57-2l-2-1z" fill="#EDECF0"/><path d="M433 302h5v2h6v2h8v2h-2v2c-3.75 1.2-7.33 1.1-11.25 1.06l-3.83-.02L432 311v-3h-2v-2h2z" fill="#EAC844"/><path d="M382 256v2h2q.08 2.38.12 4.75l.08 2.67c-.21 2.73-.72 4.3-2.2 6.58-2 .81-2 .81-4 1l-2-1v-2h-2v-8h2v-4c3-2 3-2 6-2" fill="#F5E754"/><path d="m333 611 2 1-1.21 1.29c-5.29 5.85-8.46 11.37-8.13 19.44 1.13 7.46 5.47 11.92 11.34 16.27l-1 2c-5.66-1.33-8.03-5.36-11-10-3.74-6.28-3.42-12.02-2-19 2.4-4.9 5.76-7.72 10-11" fill="#EAEDEB"/><path d="M365.8 130.15c3.1 1.2 5.03 3.15 7.45 5.41l2.7 2.5L378 140l-2 5c-3.28-1.39-5.78-3.38-8.47-5.69a194 194 0 0 0-6.53-5.3l1-3c2-1 2-1 3.8-.86" fill="#090A0A"/><path d="M805 590c2 2 2 2 2.38 5.12-.4 4.07-1.38 6.27-3.3 9.77-2.31 4.51-3.64 9.48-4.96 14.36-1.39 3.41-3.39 5.31-6.12 7.75 0-2.94.4-4.44 1.43-7.13l.91-2.45.97-2.54A436 436 0 0 0 803 596z" fill="#D9D9D9"/><path d="M344 662c-2.17 2.17-3.38 2.6-6.25 3.5l-2.42.78-5.83 1.78c-2.5.94-2.5.94-3.5 2.94h-2v2l-4 1v6l2.11.4c3.09.64 6.14 1.39 9.2 2.16l3.24.82 2.45.62v1c-6.43.35-11.39.37-17-3a34 34 0 0 1-4-6c6.16-8.63 17.08-15.18 28-14" fill="#E0E0E3"/><path d="M392 366h2c6.75 21.61 6.75 21.61 8 31-3-1-3-1-4.69-3.19-1.51-3.23-1.38-5.28-1.31-8.81a54 54 0 0 0-3.12-8.38c-1.22-3.64-1.01-6.78-.88-10.62" fill="#E0E1E1"/><path d="M374 288h9c-2.96 5.08-6.76 6.51-12.11 8.27-3.97 1-7.85 1.62-11.89.73l-4-3 14-1 1-3h4z" fill="#D4C461"/><path d="m355 247 3 1v2l3.19-.62c3.85-.38 5.48-.19 8.81 1.62 2 2 2 2 2.12 5.62L372 260h2v13h-1l-.38-3.94A108 108 0 0 0 370 255l-1.81-.38C366 254 366 254 363 252c-1.94-.23-1.94-.23-4-.19l-2.06.02C355 252 355 252 352 253a88 88 0 0 0-2 4l-2 1c1.49-4.59 3.85-7.44 7-11" fill="#CDC164"/><path d="m403 522 1 2c-2.45 5.99-6.35 10.56-11 15l-2 2a128 128 0 0 1-3.56 3.44c-1.84 1.99-3.06 4.24-4.44 6.56h-1c-.41-4.48-.41-4.48 1.36-6.75q.97-.82 1.95-1.69c4.54-4.23 8.24-8.91 12.01-13.81A67 67 0 0 1 403 522" fill="#E1E3E4"/><path d="m366 126 2.12 2.25c2.88 2.75 2.88 2.75 5.76 4.56 4.09 2.87 6.95 6.36 10.12 10.19l1.55 1.78c3.45 3.97 3.45 3.97 3.45 6.22l4 2-3 2-1.43-1.87a149 149 0 0 0-22.04-22.72C365 129 365 129 364 127z" fill="#E0E1DF"/><path d="M956 548v3c-6.25 1.83-11.88 2.31-18.38 2.25l-2.73.02h-2.6l-2.35-.01C928 553 928 553 926 551c4.48-1.49 8.87-1.02 13.55-.94 5.85-.1 10.65-2.19 16.45-2.06" fill="#E9E9EB"/><path d="M901 468c1.13 3.39.89 3.93-.31 7.12a70 70 0 0 0-2.75 9.63A49 49 0 0 1 895 494q-.56 2.49-1 5h-3c.59-6.81 2.34-12.94 4.44-19.44l.94-3.04.93-2.89.84-2.62C899 469 899 469 901 468" fill="#D4D4D6"/><path d="M524 182h1l1 14h1l.54 13.56.18 4.62.26 6.62.09 2.09c.06 1.71 0 3.41-.07 5.11l-2 2c-1.8-16.05-2.25-31.86-2-48" fill="#D1D2CE"/><path d="M852 478h2c-.65 5.07-2.16 9.49-3.94 14.25A99 99 0 0 0 845 511c-1.54-1.8-1.54-1.8-3-4 .69-3.19.69-3.19 1.33-5.01a51 51 0 0 0 1.61-6.55c.81-3.84 2.24-6.96 4.06-10.44v-3h2z" fill="#E5E7EA"/><path d="M416 287c4.01 3.68 6.45 7.19 9 12l-3 5c-5.95-5.8-5.95-5.8-6.1-9.38l.04-2.74.02-2.76z" fill="#BFAD46"/><path d="m543 261 2.56.22c10.39.85 10.39.85 14.63.72 4.77.08 9.17 1 13.81 2.06v1h-32z" fill="#F6F7F8"/><path d="M384 258c3.17 4.76 3.18 8.77 3.19 14.31l.03 2.27c.02 4.54-.5 8.14-2.22 12.42h-1v-15h-2v-5h1z" fill="#F2E368"/><path d="M905 544c2.14.74 2.14.74 4.69 1.88A43 43 0 0 0 922 549a15 15 0 0 1 6 4c-9.26.45-16.85-1.5-25-6v-2z" fill="#DEDEE0"/><path d="M524 169h2l.18 1.79.26 2.4.24 2.35c.32 2.46.32 2.46.85 4.84.57 3.18.57 6.2.53 9.43l-.02 3.52L528 196h-2l-1 3a362 362 0 0 1-1-30" fill="#F4F5F4"/><path d="M841 456h3l1 3a109 109 0 0 1-3.79 4.51c-1.44 1.77-1.89 3.24-2.21 5.49l-1 2q-.54 2.5-1 5l-3-1 1-2 .38-2.56c1.95-10.77 1.95-10.77 5.62-14.44" fill="#EDEDEF"/><path d="M381.69 145.13c2.3.88 2.3.88 4.3 3.88l-2 3h-2l1 8q-1.46-.5-3-1l1-3h-2l-1.36-3.44C376 149 376 149 374 148c2.74-1.97 4.27-3.04 7.69-2.88" fill="#141613"/><path d="M604 679v1h-13v2c-19.34.19-19.34.19-29-1v-1a709 709 0 0 1 42-1" fill="#E0E1E0"/><path d="M883 351c5.92 5.41 9.56 11.8 13 19l1.19 2.38.81 1.62c-1.75-.07-1.75-.07-4-1a67 67 0 0 1-4.06-6.81c-3.71-6.9-3.71-6.9-5.69-9.39C883 355 883 355 883 351" fill="#E3E3E7"/><path d="M861 394c7.27 10.91 5.31 25.53 5 38h-1l-1-25h-2l1 4c-1.56-1-1.56-1-3-3-.02-3.51.42-6.85 2-10l-2-1z" fill="#C1C2C3"/><path d="M843 509h1q.08 4.68.12 9.38l.06 2.69.02 2.58.03 2.38C844 528 844 528 842 530c-1.62-2.25-1.62-2.25-3-5 .81-2.31.81-2.31 2-4l-2-3 1-1.81c1-2.19 1-2.19 1-5.19z" fill="#F0F2F6"/><path d="M399 396c3.88 1.75 3.88 1.75 5 4-.05 2.02-.05 2.02-.31 4.38l-.24 2.33A20 20 0 0 1 401 413l-3-1c-.37-4.55-.37-4.55 1.5-6.81L401 404l-3-7z" fill="#EEEEF0"/><path d="m907 412 2 1c1.49 4.73 1.15 9.78 1.12 14.69l.02 2.62-.01 2.51v2.29C910 437 910 437 909 439h-2z" fill="#F2F3F5"/><path d="M448 264h2v2h4c-1 2-1 2-4 4v2h-2l-1 3-.62-2.31c-1.83-3.56-3.75-4.17-7.38-5.69l-4-2h10l1 3h2z" fill="#CEC061"/><path d="M438 260v2h-2v2l2 1-1.87.04c-6.81.39-11.45 2.24-17.13 5.96 1.39-3.36 2.76-4.8 5.88-6.62l2.05-1.23c3.98-2.21 6.42-3.41 11.07-3.15" fill="#EAE0A1"/><path d="M341 515h2c-1.17 9.22-8.93 17.32-15 24l-2-2 1.25-1.26c5.84-6.23 9.72-13.28 13.75-20.74" fill="#DEE0E2"/><path d="M388 288h2l.38 1.94.62 2.06 2 1c-1.69 1.56-1.69 1.56-4 3a31 31 0 0 1-7.06-1.69c-2.55-.41-3.78.38-5.94 1.69 2.01-3.01 3.57-4.75 7-6h4z" fill="#080706"/><path d="M345 268a38 38 0 0 1 2.88 6.94c1.31 3.57 2.27 5.5 5.12 8.06 3.3 1 6.59 1.56 10 2v1h-14c-3.3-6.49-4.46-10.74-4-18" fill="#ACA543"/><path d="M337 178h1c.09 7.42.17 14.66-1 22l-3-1c-.13-8.09-.13-8.09 1-12l.5-3.62c.5-3.38.5-3.38 1.5-5.38" fill="#F0F3F2"/><path d="M379 356c6.25.27 11.56 2.45 16 7 .25 2.7.25 2.7 0 5l-1-2-6-2a28 28 0 0 1-7-5l1-2z" fill="#BCBEBE"/><path d="m448 288 2 3-3.71 4.39A68 68 0 0 0 443 300c-2.62.19-2.62.19-5 0v2h-12c2.49-2.49 3.87-2.45 7.31-2.94 7.55-1.3 7.55-1.3 10.69-4.06a65 65 0 0 0 4-7" fill="#DCC869"/><path d="M355 251c6.37-.45 9.84.1 15 4l1 5-10-2 1-6h-7z" fill="#564D21"/><path d="M340 173h1c.16 7.72-.33 15.32-1 23h-1l-1 8h-1c-.26-7.3.14-14.44.94-21.69l.26-2.43c.67-5.75.67-5.75 1.8-6.88" fill="#303232"/><path d="M854 383c3.48 1.16 3.72 1.68 5.31 4.81l1.12 2.08c.57 2.11.57 2.11-.32 4.37L859 396l-1-2h-2l-1 2c-1.1-4.41-1.08-8.48-1-13" fill="#ECEEF2"/><path d="M416 176h21v2l3.19-.06c3.14.05 5.78.33 8.81 1.06v1q-5.44-.17-10.88-.38l-3.07-.09A98 98 0 0 1 416 177z" fill="#BABBB9"/><path d="M374 580h2c-1.72 3.91-4.24 7.19-6.81 10.56l-1.29 1.75c-2.62 3.44-5.04 5.74-8.9 7.69 2.39-5.32 6.33-9.52 10-14l1.57-1.98A88 88 0 0 1 374 580" fill="#D9DADD"/><path d="M351 498h2c-.55 4.62-2.59 7.98-5.06 11.81l-1.15 1.81L344 516l-2-1c1.31-4.41 3.02-8 5.5-11.88l1.84-2.92z" fill="#E5E5E8"/><path d="M438 259c7.25-.53 11.73.28 18 4l-4 1v-2l-5.75.44-3.23.24c-2.46.26-4.66.64-7.02 1.32v-2h2z" fill="#E3D484"/><path d="M400 308v3l-3 2c-.69 2.12-.69 2.12-1 4l-7 1 1-2 2 1v-4h-2v-2l3.88-1.5 2.17-.84C398 308 398 308 400 308" fill="#1F1E17"/><path d="M397 298c2.87.57 3.86.86 6 3-.33 3.3-.62 4.62-3 7-2.12-.38-2.12-.38-4-1h2l-1.06-1.69c-1.16-2.85-.75-4.4.06-7.31" fill="#838382"/><path d="M805 590c2 2 2 2 2.38 5.12-.4 4.11-1.43 6.54-3.41 10.08C803 607 803 607 802 610h-2c-.49-5.08 1.31-9.3 3-14l1.19-3.56z" fill="#DEE0E2"/><path d="M440 262c2.82-.29 2.82-.29 6.12-.19l3.33.08 2.55.11v2h2v2h-4v-2h-2v4h-2l-1-2q-3.49-.61-7-1z" fill="#DDCA57"/><path d="M514 151c3.35.28 4.74.75 7.19 3.12A23.7 23.7 0 0 1 525 169l-2 1-.48-2.45c-1.4-6.4-2.32-10.45-7.52-14.55z" fill="#E7E8E7"/><path d="M892 531h2a32 32 0 0 1 2.25 3.75c2.42 4.08 4.74 5.83 8.75 8.25v2l-3 1c-4.9-3.33-7.44-6.68-10-12z" fill="#E5E5E8"/><path d="M374 288h9c-1.56 2.56-1.56 2.56-4 5-3.75-.19-3.75-.19-7-1v2l-3-1 1-3h4z" fill="#EEDA61"/><path d="M382 254h2v2h2v2h2v27h-2l.06-1.77c.67-21.39.67-21.39-4.06-29.23" fill="#261C07"/><path d="M325 635a163 163 0 0 1 3.75 5.88c2.48 3.44 4.91 5.54 8.25 8.12l-1 2c-4.9-1.15-6.99-4.03-9.77-7.96-1.42-2.35-2.15-4.28-2.23-7.04z" fill="#E0E3E2"/><path d="M849 548c2.99 4.49 5.45 9.25 8 14l1.09 1.98q1.04 1.97 1.91 4.02l-1 2-4.44-6.88-1.27-1.97c-3.18-4.93-4.42-7.28-4.29-13.15" fill="#DDDFE2"/><path d="m396 294 1 2-2.31.81c-2.74 1.21-3.92 1.82-5.69 4.19-.51 3.14-.51 3.14-.69 6.69l-.2 3.57L388 314h-1v-17h2v-2c2.46-1.23 4.28-1.07 7-1" fill="#5C5C5A"/><path d="M862 407h2c1.02 3.06 1.12 5.12 1.1 8.32l-.01 3.12-.03 3.25-.01 3.28L865 433h-1l-.15-2.6c-.68-10.49-.68-10.49-1.97-14.46-.89-2.97-.93-4.11.12-6.94z" fill="#F5F6F8"/><path d="M416 300c3 0 3 0 4.75 1.71l1.81 2.23c3.26 3.97 3.26 3.97 5.44 5.06v3h-2v2l-4-1 .56-1.81C423 309 423 309 422 306h-2c-2.12-1.88-2.12-1.88-4-4z" fill="#140F06"/><path d="M320 262h3c.18 11.52.18 11.52-1 17h-2c-1.21-8.09-1.21-8.09 0-12a93 93 0 0 0 0-5" fill="#EDEEEF"/><path d="M289 581h1l.3 2.01c.91 5.38 1.72 9.01 5.7 12.99l1.75 1.81L299 599h-4c-3.24-3.32-5.88-6.41-7-11 .38-3.81.38-3.81 1-7" fill="#DDD"/><path d="M844 439c.93 3.01 1.04 3.87 0 7l2 1c0 3.78-1.08 5.77-3 9-2.11 1.18-2.11 1.18-4 2l1.94-7.81.55-2.24c.75-3.02 1.52-5.99 2.51-8.95" fill="#DFE0E1"/><path d="M456 264c3.81 1.47 5.17 3.38 7.19 6.88l1.54 2.61A23 23 0 0 1 467 280l-5-1v-7h-2v-4h-2v-2h-2z" fill="#D8C870"/><path d="M740 624v4c-2.9 1.93-3.9 2.3-7.19 2.62L729 631c2.89-5.48 4.76-7 11-7" fill="#090A0A"/><path d="M876 584c4.49.59 8.23 1.76 12.38 3.56l3.21 1.38L894 590l-1 2c-4.23-.62-7.52-2.11-11.31-4.06l-3.24-1.66L876 585z" fill="#DDDDE0"/><path d="M466 287h2c-.34 6.36-1.74 11.11-6 16-2.17 1.23-2.17 1.23-4 2v-3h2v-2h2v-4h2v-2h2z" fill="#D8C778"/><path d="M725.13 260.94 728 262v2l4 1c-6.44.1-12.66.16-19-1v-1l3.37-.94c6.32-1.85 6.32-1.85 8.75-1.12" fill="#E1E0E2"/><path d="m488 161 3 1a74 74 0 0 1-12 12l-1-3z" fill="#DCDDDE"/><path d="M893 591a689 689 0 0 1 19 4l-1 2a63 63 0 0 1-18-4z" fill="#DFE2E3"/><path d="M899 464h1c-.49 6.61-2.33 11.95-5 18h-1q-.06-2.5 0-5l1-1c.53-2.54.96-5.09 1.4-7.65.6-2.35.6-2.35 2.6-4.35" fill="#0A0C0C"/><path d="M437.17 265.6c3.2 1.16 5.4 1.96 7.83 4.4l-2.6-.47c-11.35-1.94-11.35-1.94-17.4-.53l1-3c3.58-1.79 7.37-1.46 11.17-.4" fill="#0D0602"/><path d="M353 122c5.26-.32 8.45.33 13 3v2l-15-1z" fill="#EAEAED"/><path d="m991 539 1 4h-16v-2z" fill="#D4D4D7"/><path d="m456 305 3 1-3.25 2.44-1.83 1.37c-3.22 1.99-6.3 2.32-10.03 2.29l-2.28-.01-2.36-.03-2.4-.01L431 312v-1l19-1v-2h4v-2z" fill="#BFA549"/><path d="m464 270 2 1 1 3 3-2v12h-2q-1.01-2.37-2-4.75l-1.12-2.67C464 274 464 274 464 270" fill="#130C08"/><path d="M360 240h9l-2 3 4 2h-11z" fill="#0E0A0B"/><path d="M393 537c-.81 2.44-.81 2.44-2 5l-3 1c-1.35 1.85-1.35 1.85-2.62 4.06q-1.15 2-2.38 3.94h-1c-.43-3.44-.26-4.67 1.9-7.46l2.48-2.35 2.46-2.4C391 537 391 537 393 537" fill="#ECEDEF"/><path d="M904 453h2c.31 5.93-.11 9.76-3 15l-3 1z" fill="#ECEEEF"/><path d="M344 264h1v14l-5 1 .44-1.68c.81-3.36 1.42-6.77 2.06-10.18.5-2.14.5-2.14 1.5-3.14" fill="#0C0E06"/><path d="m934.69 549.94 5.3.06v3q-2.92.09-5.86.13l-3.31.07C928 553 928 553 926 551c3.15-1.05 5.39-1.1 8.69-1.06" fill="#F4F4F7"/><path d="M846 510c1.49 2.97 1.13 5.7 1.12 9l.01 3.81C847 526 847 526 846 528h-2v-17z" fill="#2F3135"/><path d="M901 468c1.15 3.44.82 4.21-.38 7.5l-.83 2.34L899 480l-1 3h-2c.51-4.93 1.09-9.38 3-14z" fill="#DBDDDE"/><path d="M454 464c-.58 4.75-2.55 7.97-5 12h-1c-.81-2.62-.81-2.62-1-6 1.61-2.86 3.47-6 7-6" fill="#C6C8CA"/><path d="M361 286v3h-3v3h-4v-3h-2v-2c2.96-1.48 5.74-1.06 9-1" fill="#F4EB5B"/><path d="m814 547 4 1q-.17 2.47-.38 4.94l-.21 2.77L817 558l-2 1-1 3z" fill="#EAEBED"/><path d="M847 432h3l-.94 3.19c-1.06 3.81-1.06 3.81-1.5 6.62C847 444 847 444 844 446l.94-6.44.52-3.62C846 433 846 433 847 432" fill="#E2E3E5"/><path d="m646 258 2.19.5c2.67.48 5.1.58 7.81.5v3h-13z" fill="#F5F5F7"/><path d="M441 488c1 2 1 2 .44 4.16l-.88 2.46-.87 2.48-.69 1.9-5 1c1.56-4.67 4.08-8.09 7-12" fill="#212324"/><path d="M838 324q2.84.17 5.69.38l3.2.21c3.02.4 5.35 1.15 8.11 2.41l-1 2q-2.87-.42-5.75-.88l-3.23-.49A22 22 0 0 1 838 325z" fill="#CCCDD0"/><path d="M341 142h2l-1 16h-1c-1.79-5.15-2.18-8.53-1-14z" fill="#E0DFDF"/><path d="m327 539 3 1c-2.34 6.65-2.34 6.65-5.69 8.44L322 549l-2-2 2.38-2.31C325 542 325 542 327 539" fill="#1C1C1E"/><path d="M888 502h1c.13 6.74-.2 13.3-1 20h-1q-.33-3.87-.62-7.75l-.2-2.21c-.28-3.9-.45-6.75 1.82-10.04" fill="#07080A"/><path d="M416 287c5.8 5.65 5.8 5.65 8 9v2h-4v-5h-2l-2 4z" fill="#A39943"/><path d="m377 649 2 1v3c-2.31 1.75-2.31 1.75-5 3-3-1-3-1-6-3q2.17-1.05 4.38-2.06l2.46-1.16z" fill="#DBDCE0"/><path d="M289 573h1a80 80 0 0 1-1 15l-3-2q.17-2.4.38-4.81l.21-2.71C287 576 287 576 289 573" fill="#F1F3F1"/><path d="M860 444h3c.12 6.75.12 6.75-1 9l-4-1z" fill="#F0F1F4"/><path d="M320 281h1l1 23-3-2c-.25-2.15-.25-2.15-.07-4.79l.16-2.85.22-2.98.19-3.01q.23-3.69.5-7.37" fill="#F3F5F3"/><path d="M612 261c2.6-.29 2.6-.29 5.62-.19l3.04.08 2.34.11 1 3h-14z" fill="#F4F4F9"/><path d="M952 595c-3.62 2.42-5.47 3.19-9.8 2.66l-2.95-.6-2.98-.59L934 596v-1c6.21-.73 11.84-1.23 18 0" fill="#E3E4E5"/><path d="M454 461h2l2 7c-1.31 1.5-1.31 1.5-3 3h-3l.44-4.44.24-2.49C453 462 453 462 454 461" fill="#222426"/><path d="m905 402 3 2q.57 3.5 1 7l2 3-2 1-1-2-2 3z" fill="#DAD8DC"/><path d="M430 256h2v2l6 1v1l-12 4v-2h2l.44-1.88C429 258 429 258 430 256" fill="#1C180C"/><path d="M323 251c2.26 3.56 2.07 6.13 1.62 10.25l-.33 3.27L324 267h-1v-5h-2l.44-4.94.24-2.77C322 252 322 252 323 251" fill="#DEDEE0"/><path d="m355 247 3 1v3l-2.88.75C352 253 352 253 350.75 255.06L350 257l-2 1c1.49-4.59 3.85-7.44 7-11" fill="#C2C090"/><path d="M496 157c1.04 3.13.93 3.99 0 7l-1.94.38-2.06.62-1 2-3-1 2.88-3.38 1.61-1.89A73 73 0 0 1 496 157" fill="#1C1C1F"/><path d="m343 603 4 1-11 8-2-2 2.81-1.81c3.19-2.19 3.19-2.19 4.81-4z" fill="#D7D9DA"/><path d="M834 316c3 1.81 3 1.81 6 4v3l6 1v1c-2.69.31-2.69.31-6 0a35 35 0 0 1-7-8z" fill="#EBECEF"/><path d="M463 301c0 3.52-.7 4.44-3 7h-2v2h-4v2h-6l1.71-.78a45 45 0 0 0 6.91-4.72l2.36-1.84C461 303 461 303 463 301" fill="#291C05"/><path d="M523 245h3q.12 2.38.19 4.75l.1 2.67C526 255 526 255 523 259z" fill="#F4F5F6"/><path d="M378 147h2v2l2 1c.41 2.29.41 2.29.62 5.06l.23 2.79.15 2.15-3-1 1-3h-2z" fill="#1C1E1B"/><path d="M742 614h2c-.61 6.42-.61 6.42-2.31 8.94C740 624 740 624 736 624l1-3h3a85 85 0 0 0 2-7" fill="#E5E6E8"/><path d="M971 547c-2.66 3.44-5.9 4-10 5l-1-3c7.43-3.57 7.43-3.57 11-2" fill="#2C2D2F"/><path d="M894 373c2.66 1.02 3.81 1.67 5.27 4.16l.98 2.46 1.02 2.48.73 1.9h-2l-1 2-1.94-4.81-1.09-2.71q-1.06-2.72-1.97-5.48" fill="#D3D3D5"/><path d="m365.75 245.94 2.42.03 1.83.03v2l-12 2-1-3a28 28 0 0 1 8.75-1.06" fill="#FCF395"/><path d="M331 221c1.09 2.83.96 4.17.25 7.19L330 231l-3 1c0-4.35.89-7.89 4-11" fill="#ECECEF"/><path d="m386 439 3 1-5 9-3-2z" fill="#E1E2E3"/><path d="M854 391h1v5l6-2 1 6-6-2-2 2z" fill="#F5F6F8"/><path d="M343 330h3l2 8h2l-1 3q-1.8-1.89-3.56-3.81l-2.01-2.15L342 333z" fill="#191B1D"/><path d="M374 270h2v6l-2 1 2 1v2l-5-1z" fill="#DCCF4C"/><path d="M522 249h1l.15 2.05.23 2.7.21 2.67A18 18 0 0 0 526 263l-6-1z" fill="#B9B9B9"/><path d="m362 252-1 4c-6.75-.75-6.75-.75-9-3 3.21-1.61 6.44-1.06 10-1" fill="#1C1C10"/><path d="M332 222c2 1.38 2 1.38 4 3v2h-3l-1 7h-2l.44-4.31.24-2.43C331 225 331 225 332 222" fill="#1C1C1D"/><path d="m324.19 670.38 1.8.62h-2v2q-1.95.5-4 1c-.32 1.33-.65 2.63-1 4q-1.46-.5-3-1c4.07-7.34 4.07-7.34 8.2-6.62" fill="#D5D8D8"/><path d="M844 543c1.94.38 1.94.38 4 1 1.35 2.71 1.07 5.01 1 8-1.94-.56-1.94-.56-4-2-.75-3.62-.75-3.62-1-7" fill="#EAEAEE"/><path d="M773.31 273.63c3.5.49 5.12 2.02 7.7 4.38-3.32 1.12-5.06.88-8.26-.44q-1.05-.44-2.14-.87l-1.6-.7c2-2 2-2 4.3-2.37" fill="#DBDBDD"/><path d="m429.88 263.25 2.12.75-1.7.84q-3.56 1.81-7.05 3.79l-2.43 1.35L419 271c2.12-4.76 5.33-8.23 10.88-7.75" fill="#9A947A"/><path d="M384 644c0 3 0 3-1 5l2 2-7 1c1.27-3.91 2.51-5.79 6-8" fill="#E5E5E8"/><path d="m333 611 2 1-1.21 1.39c-2.7 3.13-5.37 6.25-7.79 9.61l-1-5z" fill="#E6E7E8"/><path d="m347.63 603.88 2.38.12c-1.38 1.5-1.38 1.5-3 3h-2l-1 3c-2.57 1.18-2.57 1.18-5 2 5.19-7.97 5.19-7.97 8.62-8.12" fill="#090A0B"/><path d="M812 552h1q.04 2.9.06 5.81l.04 3.27C813 564 813 564 812 567l-3-1z" fill="#070808"/><path d="M851 486h2l1 5-2 1a134 134 0 0 0-3 6c-1.16-3.48-.77-4.34.44-7.69l.87-2.45z" fill="#181A1C"/><path d="M883 351c2.65 2.58 4.94 4.92 7 8l-1 3v-2l-1.88-.81C885 358 885 358 883 355z" fill="#EDEAF0"/><path d="m477 171 2 1c-.56 3.23-1.37 4.98-4 7h-3a40 40 0 0 1 5-8" fill="#EAEAEC"/><path d="m448 288 2 3-3.71 4.39A68 68 0 0 0 443 300l-2-3 1.81-1.69A34 34 0 0 0 448 288" fill="#B2A453"/><path d="M345 277c5 7.5 5 7.5 5 11h-2l-.31-1.94L347 284l-3-1q-.06-2.5 0-5z" fill="#302D26"/><path d="M328 231h2c-.8 8.04-.8 8.04-3 12q-.33-2.43-.62-4.88l-.36-2.74L326 233z" fill="#E0DFE2"/><path d="m337 170 2 1v13h-1c-2.38-8.79-2.38-8.79-2-13z" fill="#E5E9E7"/><path d="M366 126c4.88 4.62 4.88 4.62 6 8h2l-1 2-3.94-3.38-2.21-1.89C365 129 365 129 364 127z" fill="#D7D8D9"/><path d="m381 570 2 3q-1.42 1.76-2.88 3.5l-1.61 1.97L377 580h-2c1.65-3.58 3.78-6.75 6-10" fill="#E2E3E5"/><path d="M351 498h2c-.55 3.37-1.05 5.08-3 8h-3a37 37 0 0 1 4-8" fill="#ECECED"/><path d="M893 483c1.32 3.66.65 6.08-.44 9.75l-.87 2.98L891 498l-2-1a40 40 0 0 1 4-14" fill="#070808"/><path d="M370 246c4.25.47 6.2 2.97 9 6h-3v-2l-5 1z" fill="#E6D96E"/><path d="m798 677-1.94.94C794 679 794 679 793 680c-3.44.19-3.44.19-7 0l-2-2c4.72-.77 9.22-1.1 14-1" fill="#E4E3E6"/><path d="M333 602c-2 3-2 3-5.5 3.81l-3.5.19-2-2q2.18-.8 4.38-1.56l2.46-.88C331 601 331 601 333 602" fill="#CBCDCD"/><path d="M414 528c1 4 1 4 0 7l-3 2-3-1z" fill="#1C1E1F"/><path d="m333 529 2 2-7 8-2-2z" fill="#D7D8DA"/><path d="M345 268c2.1 3.97 3.15 7.59 4 12l-2 2c-2.4-4.65-2.2-8.91-2-14" fill="#BAB884"/><path d="m442.82 261.8 3.3.07 3.32.05 2.56.08v1l-4.75 1.06-2.67.6c-2.57.33-4.15.15-6.58-.66 2-2 2-2 4.82-2.2" fill="#ECDB65"/><path d="m392 157 6 5-2 3h-2a96 96 0 0 1-3-6z" fill="#1F1D1A"/><path d="m494 538 2 1Zm-2 1 2 1-6 7-3-1z" fill="#DEE0DE"/><path d="M325 538h2c-1.39 4.43-3.61 6.87-7 10l-1-3 2.44-2.38C324 540 324 540 325 538" fill="#E2E1E5"/><path d="M859 453h3l-1 7-1-2-3-1z" fill="#E3E4E7"/><path d="m439.56 295.94 2.44.06c-1.12 1.49-1.12 1.49-3 3-2.92.3-2.92.3-6.19.19l-3.29-.08L427 299v-1l1.93-.18 2.51-.26 2.5-.24c2.7-.42 2.71-1.31 5.62-1.38" fill="#0E0600"/><path d="M524 169h2c1.01 5.04.97 8.24-1 13h-1z" fill="#EEF0EE"/><path d="M713 633h6l-4 6-3-3z" fill="#B6B7B5"/><path d="M340 597c-1.44 3.81-3.35 5.27-7 7l-2-1 3.38-3 1.89-1.69C338 597 338 597 340 597" fill="#DBDDDF"/><path d="M854 383c3 1 3 1 4.75 3.44L860 389l-1 2-1.94-1.5C855 388 855 388 854 388z" fill="#D1D3D6"/><path d="M388 298h3v2l-2 1c-.41 2.94-.41 2.94-.62 6.56l-.23 3.63L388 314h-1l-.06-7.44-.03-2.14q0-2.71.09-5.42z" fill="#6A6B67"/><path d="m424 299 4 2h-2v5h-3c0-4 0-4 1-7" fill="#D4BB50"/><path d="M362.44 248.63c2.56.38 2.56.38 4.38 2.38q.58.96 1.18 2l-1 2-1.68-1.44c-2.5-1.7-4.36-2.16-7.32-2.56 2-2 2-2 4.44-2.38" fill="#BCA84F"/><path d="M514 151c3.67.31 4.78.76 7.31 3.56L523 157l-3 1c-4.88-4.75-4.88-4.75-6-7" fill="#DCDDDC"/><path d="M889 513h3v7l-3 1z" fill="#F3F5F6"/><path d="m821 510 4 1-2 6h-3z" fill="#D1D1D2"/><path d="M834 471c2 3 2 3 2 7-2 2-2 2-5 4z" fill="#D3D3D4"/><path d="m394 421 2 1-1 5-4 1c1.88-5.88 1.88-5.88 3-7" fill="#EEEEF1"/><path d="m385 285 1 3h2l-2 4v-2l-6 2z" fill="#261F0E"/><path d="M435 265h10v4l-10-3z" fill="#978940"/><path d="M384 258c3.27 4.9 3.09 8.32 3 14h-1v-6h-2z" fill="#C6BB75"/><path d="M523 236h1l1 5h2l1 3-4 2c-1-1-1-1-1.1-3.07l.04-2.49.02-2.51z" fill="#DADADC"/><path d="M332 213c2 3 2 3 1.62 6.19L333 222l-3-3z" fill="#DFDFE2"/><path d="m339 152 2 1v7l-3-1q-.06-3 0-6z" fill="#F4F2F3"/><path d="M336 650c3.37.55 5.08 1.05 8 3l-3 2-6-3z" fill="#ECEEED"/><path d="M846 501h2c.69 1.62.69 1.62 1 4-1.44 3.25-1.44 3.25-3 6-1.24-3.58-.75-6.34 0-10" fill="#1A1B1E"/><path d="M422 500h1c.12 2.38.12 2.38 0 5l-2 2c-2.12-.38-2.12-.38-4-1q2.46-3.03 5-6" fill="#D5D7DB"/><path d="M905 442h1l1 10-3 1z" fill="#CDCFD1"/><path d="M372 355c3.47.46 6.67.89 10 2v2q-2.22-.42-4.44-.88l-2.49-.49L373 357z" fill="#E8E9EA"/><path d="M377 288h6a107 107 0 0 1-4 5h-2z" fill="#D6C76C"/><path d="M755 269v2l3 1c-6.62-.75-6.62-.75-10-3 2.67-1.33 4.17-.67 7 0" fill="#C4C4C6"/><path d="M725 266c7.75-.12 7.75-.12 10 1l-1 2c-3.63.2-5.87-.14-9-2z" fill="#0C0B0D"/><path d="m525 234 2 1c.37 4.55.37 4.55-1.5 6.81L524 243c-.1-6.15-.1-6.15 0-8z" fill="#F6F6F9"/><path d="m843 650-1 2-11-2v-1c4.52-1.37 7.59-.47 12 1" fill="#E3E4E5"/><path d="M324 625h1v11l-3-1z" fill="#F3F8F8"/><path d="m374 462 1 3c-1.44 2.69-1.44 2.69-3 5l-3-1z" fill="#EEECF2"/><path d="M355 346c2.44.81 2.44.81 5 2l1 3c-3.27-.56-4.83-1.5-7-4z" fill="#E9EBEC"/><path d="M335 324c2.65 2.58 4.94 4.92 7 8-3.23-.56-5.02-1.33-7-4z" fill="#D4D5D7"/><path d="M828 312c1.88.25 1.88.25 4 1a17 17 0 0 1 2 4c-3 0-3 0-4.69-1.38C828 314 828 314 828 312" fill="#DCDEE0"/><path d="m350 286 4 1h-2v2h2l1 5c-2.5-2.31-2.5-2.31-5-5z" fill="#DAD16C"/><path d="m510 147 6 3v1l-9-1z" fill="#F4F4F6"/><path d="M360 126h3l1 4-5 2-1-4h2z" fill="#2F2F31"/><path d="M811 575h3l-2 8c-2-3-2-3-1.62-5.69z" fill="#F2F4F7"/><path d="m296 560 3 1a79 79 0 0 1-6 7c-.37-4.55-.37-4.55 1.5-6.81z" fill="#D3D6D4"/><path d="M319 546c-.31 1.88-.31 1.88-1 4l-3 2-2-2c3.75-4 3.75-4 6-4" fill="#EBEBED"/><path d="m890 520 4 4-2 1-2 3q-.57-3.5-1-7z" fill="#E6E8E9"/><path d="m844 502 2 1-1 8c-1.62-1.69-1.62-1.69-3-4 .81-2.75.81-2.75 2-5" fill="#E1E4E7"/><path d="m359 485 2 1c-.81 2.94-.81 2.94-2 6l-3 1c1.88-6.88 1.88-6.88 3-8" fill="#E7E6EC"/><path d="M864 436h1l-1 10-1-2-2-1v-3h3z" fill="#D9DADD"/><path d="M392 366h2c1.12 5.75 1.12 5.75 0 8h-2z" fill="#EEEFEE"/><path d="m389 362 6 1v5l-1-2-2-1c-2-1-2-1-3-3" fill="#C6C8C7"/><path d="M392 312h2c1.12 3.75 1.12 3.75 0 6h-5l1-2 2 1z" fill="#2E2E2A"/><path d="M386 276h1q-.17 2.19-.38 4.38l-.21 2.46C386 285 386 285 384 287c-.29-7.43-.29-7.43 2-11" fill="#CBBF6E"/><path d="M498 152h4c-1 3-1 3-3.06 4.19L497 157c0-4 0-4 1-5" fill="#DFDFE2"/><path d="m353 122 7 2v1l-9 1z" fill="#F3F3F5"/><path d="M893 591c5.75.88 5.75.88 8 2v2l-8-2z" fill="#E8E8EB"/><path d="M1006 564h2c-.5 3.69-1.1 5.6-4 8l-1-2a96 96 0 0 1 3-6" fill="#E0E0E3"/><path d="M977 543a29 29 0 0 1-8 3v-3c3.29-1.1 4.71-.8 8 0" fill="#E0E2E0"/><path d="M417 520h2c-1.19 3.38-2.28 5.65-5 8l-1-2 1-2h2z" fill="#E2E2E7"/><path d="M845 439h3c-.31 2.38-.31 2.38-1 5l-3 2z" fill="#F5F6F7"/><path d="M416 300h3c2.19 3 2.19 3 4 6-3 0-3 0-5.19-1.88C416 302 416 302 416 300" fill="#1E1709"/><path d="M324 246h2l-1 9h-1c-.88-6.15-.88-6.15-1-8z" fill="#F2F1F3"/><path d="M390 160h2a20 20 0 0 1 1 4l-2 2-3-4z" fill="#0D0C07"/><path d="M372 133c1.81.19 1.81.19 4 1a31 31 0 0 1 3 5l-4-1-.38-1.94L374 134z" fill="#E9EBED"/></svg>