<svg style="background:transparent" version="1.1" xmlns="http://www.w3.org/2000/svg" viewBox="0 0 1248 704"><path d="M518.32 16.88A83 83 0 0 1 525 21l2.41 1.43c7.5 4.53 14.34 9.88 21.26 15.23 4.44 3.43 8.9 6.83 13.47 10.08 3.21 2.3 6.34 4.63 9.38 7.14 10.66 8.51 19.24 9.7 32.61 9.37h5.66q5.89-.03 11.78-.15 7.52-.13 15.04-.12 5.84-.01 11.66-.08l5.55-.04q3.87-.01 7.74-.12h2.29c5.81-.18 8.62-2.16 13.15-5.74h2l.75-1.88c1.51-2.57 2.61-2.83 5.25-4.12q2.25-1.68 4.44-3.44A78 78 0 0 1 699 42a301 301 0 0 0 7.32-5.1L709 35q5-3.52 10-7l2.21-1.57c17.35-12 17.35-12 26.79-10.43 6.07 1.97 10.81 5.43 14 11 2.48 6.9 4.08 14.08 2.48 21.35-.66 3.61-.5 7.08-.42 10.73-.07 3.37-.58 6.58-1.06 9.92q-.37 4.37-.56 8.75l-.13 2.63c-.47 10.95-.36 21.92-.27 32.88l.01 2.26.05 6.14c-.1 3.34-.1 3.34-.6 5.05-.75 3.41-.61 6.82-.58 10.3l.01 2.43q0 2.62.03 5.23l.03 8.3q.04 11.8.11 23.6l.08 19.94c.11 14.31-.5 26-8.18 38.5l-1.19 2.86c-2.52 4.34-5.96 6.98-9.81 10.13l-5.56 4.93C735 254 735 254 733 254l-.63 1.81c-1.88 3-4.2 3.7-7.37 5.2-1.88 1.17-1.88 1.17-3 3-.91 8.8 2.47 16.05 6 24l1.5 3.55a173 173 0 0 0 9.63 18.31A66 66 0 0 1 744 320l1.44 3.31c3.6 8.38 6.49 17.01 9.06 25.75 1.3 4.4 2.86 8.66 4.5 12.94 1.6 4.35 2.36 8.41 3 13l1.06 3.5c.98 3.66 1.01 6.73.94 10.5l1 3c.31 3.58.51 7.16.72 10.75C766 406 766 406 767 409q.15 3.76.12 7.5l.02 2.05c-.01 3.1-.16 5.5-1.14 8.45v2.93c0 3.07 0 3.07-.5 4.94-.5 2.13-.5 2.13-.44 6.06.05 3.51-.62 5.84-2.06 9.07q-.58 3-1 6l3.81-1c9.62-2.08 18.42-1.77 27.19 3 12.17 8.08 17.42 16.71 20.42 31.02L814 492l.52 2.57.48 2.43.55 2.45c.5 2.81.58 5.45.57 8.3l.01 2.92C816 513 816 513 815 514q-.02 2.9.06 5.8A38 38 0 0 1 814 527l-.94 5.87A99 99 0 0 1 810 546c-1.14 4.3-2.18 8.62-3 13 9.59-.8 9.59-.8 14-3l2.05-.96c10.01-5.02 15.24-12.62 18.95-23.04a50 50 0 0 0 2-16v-3c-.98-26.14-20.67-46.2-38.48-63.35-4.08-4.07-7.4-8.62-10.77-13.28l-1.85-2.52c-4.7-6.44-8.3-12.44-11.03-19.92l-.8-2.14c-5.95-16.08-6.23-34.13.93-49.79l1.43-3.33c4.18-9.09 9.43-15.7 16.57-22.67l1.99-2.02c13.45-12.79 31.49-18.69 49.76-18.32 7.34.4 12.73 3.38 17.69 8.71 5.85 7.78 5.85 7.78 5.31 13.01a28.3 28.3 0 0 1-13.13 17.93 83 83 0 0 1-10.36 3.91A61 61 0 0 0 841 364l-1.84.94c-5.99 3.55-8.96 9.61-11.16 16.06.47 2.18.47 2.18 1 4l-2 3 1 3q.46 3.15.87 6.31c.73 4.8 1.55 8.52 4.13 12.7l1.56 3.17c4.74 8.25 12.53 15.17 19.39 21.66 3.42 3.26 5.39 5.68 7.05 10.16l1.86.93c5.08 2.54 8.46 8.22 11.14 13.07l1.5 2.5 1.5 2.5 1.38 2.26c5.62 9.5 9.44 18.4 11.8 29.14.82 3.6.82 3.6 1.91 6.32 1.4 5.04 1.16 10.01 1.1 15.21v3.21c-.05 7.7-.55 14.58-3.19 21.86l-1.11 3.3c-5.57 16.03-12.82 32.75-28.89 40.7l-.81 1.87c-1.53 2.74-3.58 3.6-6.26 5.07q-2.63 1.47-5.22 3.02c-8.37 4.95-17.05 9.94-26.77 11.54-2.94.5-2.94.5-5.43 1.52-2.96 1.15-5.53 1.35-8.7 1.54-5.61.34-5.61.34-7.81 1.44q-2.85.06-5.71 0-1.7-.04-3.46-.06l-7.25-.16-3.47-.04-3.19-.07c-6.1.68-9.32 4.64-13.11 9.08A68 68 0 0 1 747 634l2 1.56 3 2.44 1.97 1.54c6.52 5.32 9.79 10.23 10.9 18.64.22 3.86.35 6.53-1.87 9.82-7.12 7.92-14.51 9.04-24.8 9.73-10.94.55-19.79-.27-30.2-3.73l-3.65-1.16A342 342 0 0 1 696 670l3.19 2.18c5.66 4.07 10.64 8.45 12.5 15.38A109 109 0 0 1 712 703c-1.89 1.88-5.16 1.15-7.68 1.17l-2.11.02-6.95.05-2.4.01-12.53.04q-6.5.02-12.97.1l-9.96.03q-2.39 0-4.78.03l-6.69.02-3.84.01c-3.09-.48-3.09-.48-4.96-2.38-4.33-8.04-5.31-16.4-5.38-25.42l-.03-2.06c.03-4.27.63-6.5 2.28-10.62h-15l1 2c.24 4.05.18 8.12.19 12.18l.03 3.41c.02 8.12-.17 14.7-5.71 21.13-2.67 2.26-5.26 2.02-8.66 2.01l-2.12.01q-3.45 0-6.9-.05h-4.81q-5.03-.01-10.05-.08-6.45-.07-12.9-.06a1640 1640 0 0 1-21.31-.12l-3.82-.03-2.94-.4c-2.02-3.03-2.58-4.79-2.54-8.4 1.22-5.92 4.64-11.34 7.54-16.6h-3c-1.69-2-1.69-2-3-4l-2.69.93c-8.99 2.5-18.05 2.21-27.25 1.32l-2.44-.23c-7.62-.85-13.15-3.68-18.62-9.02-.88-2.38-.88-2.38-1-5l-.31-3.25c.76-9.2 5.51-14.49 11.97-20.78C502 637 502 637 505 636c-1.25-3.75-2.83-4.68-5.94-7.07-4.95-3.82-4.95-3.82-7.06-5.93l-3.06-2.57c-11.71-9.98-11.71-9.98-13.94-14.43l-3-2-.44-2.5-.56-2.5a88 88 0 0 0-4-2 91 91 0 0 1-3-5l-2-2.44c-2.14-2.75-3.47-5.44-5-8.56l-2.94-4.82A87 87 0 0 1 442 543c-.61-2.6-1.31-5.17-2-7.75a87 87 0 0 1-2-12.25l-.28-2.24c-1.03-8.77-1.77-18.12.28-26.76l.8-3.46c1.87-7.46 3.92-14.07 8.2-20.54l1.11-1.89c4.17-6.6 11.18-11.14 18.52-13.65 7.57-1.48 15.82-.9 23.37.54l-.4-1.73-.54-2.34-.53-2.28c-1.56-7.76-2.06-15.59-2.66-23.47l-.3-3.75-.27-3.58-.25-3.26C485 412 485 412 486 410c.07-2.99 0-5.97-.06-8.96.06-2.84.44-5.28 1.06-8.04l.44-3.88c.45-3.85 1.49-7.39 2.56-11.12l.66-5.96c.47-2.8 1.43-5.28 2.52-7.89 1.14-3 1.95-6.07 2.82-9.15 4.09-13.54 8.47-26.4 15-39l1.53-3.08a158 158 0 0 1 3.97-7.36c2.11-3.77 3.86-7.57 5.5-11.56l1.94-4.25c4.07-9.22 7.06-17.6 7.06-27.75l-2.16-.73c-3.27-1.47-5.55-3.32-8.28-5.65-5.85-4.93-5.85-4.93-9.12-6.94-2.63-1.8-3.13-2.88-4.44-5.68l-2.38-1.75c-7.25-6.22-10.96-19.63-11.9-29.05q.03-2.3.19-4.59c.1-2.84-.12-5.54-.39-8.37a248 248 0 0 1-.6-21.62l.03-6.96.05-14.79.09-23.98c.02-6.93-.1-13.76-.87-20.64-.35-3.57-.28-7.1-.22-10.69a346 346 0 0 0-.56-22.93 56 56 0 0 0-.98-9.13c-.72-3.9-.52-7.79-.46-11.75q.07-4.38 0-8.75l-1-1c-.84-9.23.35-16.06 6.25-23.25 6.69-7.09 14.31-10.58 24.07-6.87M561 666l-1 2h3v-2zm129 0 1 2 2-1zm-141 6 1 3 4-4c-3 0-3 0-5 1" fill="#151816"/><path d="M862.69 321.25a28 28 0 0 1 8.3 9.75c.53 5.2.68 9.62-1.61 14.37-4.95 5.47-9.23 8.3-16.13 10.57-10.94 3.88-20.27 8.56-26.34 18.93-4.66 10.39-1.68 22.4 1.98 32.61 5.06 11.55 15.28 20.68 23.8 29.71 23.5 24.94 38.69 51.8 37.69 86.77-1.17 23.49-11.62 43.25-28.45 59.44C841.3 601.69 811.3 610.27 784 609q-6-.4-12-1l2.38-3.06A365 365 0 0 0 788 585l1.84-2.8c3.64-5.79 6.06-11.7 8.16-18.2l3.04.14c11.58-.41 24.59-6.24 33.08-14.12 8.56-9.21 13.07-22.2 13.45-34.65-.94-23.58-15.7-42-31.86-57.71-3.45-3.39-6.6-6.95-9.71-10.66l-2.4-2.77c-16.58-19.29-24.88-39.04-23.82-64.51 1.37-16.5 10.04-32.64 22.32-43.54 16.07-13.6 39.95-24.53 60.59-14.93" fill="#0F1110"/><path d="M518.32 16.88A83 83 0 0 1 525 21l2.41 1.43c7.5 4.53 14.34 9.88 21.26 15.23 4.44 3.43 8.9 6.83 13.47 10.08 3.21 2.3 6.34 4.63 9.38 7.14 10.66 8.51 19.24 9.7 32.61 9.37h5.66q5.89-.03 11.78-.15 7.52-.13 15.04-.12 5.84-.01 11.66-.08l5.55-.04q3.87-.01 7.74-.12h2.29c5.81-.18 8.62-2.16 13.15-5.74h2l.75-1.88c1.51-2.57 2.61-2.83 5.25-4.12q2.25-1.68 4.44-3.44A78 78 0 0 1 699 42a301 301 0 0 0 7.32-5.1L709 35q5-3.52 10-7l2.21-1.57c17.35-12 17.35-12 26.79-10.43 6.07 1.97 10.81 5.43 14 11 2.48 6.9 4.08 14.08 2.48 21.35-.66 3.61-.5 7.08-.42 10.73-.07 3.37-.58 6.58-1.06 9.92q-.37 4.37-.56 8.75l-.13 2.63c-.47 10.95-.36 21.92-.27 32.88l.01 2.26.05 6.14c-.1 3.34-.1 3.34-.6 5.05-.75 3.41-.61 6.82-.58 10.3l.01 2.43q0 2.62.03 5.23l.03 8.3q.04 11.8.11 23.6l.08 19.94c.11 14.31-.5 26-8.18 38.5l-1.19 2.86c-2.52 4.34-5.96 6.98-9.81 10.13l-5.56 4.93C735 254 735 254 733 254l-.63 1.81c-1.88 3-4.2 3.7-7.37 5.2-1.88 1.17-1.88 1.17-3 3-.91 8.8 2.47 16.05 6 24l1.5 3.55a173 173 0 0 0 9.63 18.31A66 66 0 0 1 744 320l1.44 3.31c3.6 8.38 6.49 17.01 9.06 25.75 1.3 4.4 2.86 8.66 4.5 12.94 1.6 4.35 2.36 8.41 3 13l1.06 3.5c.98 3.66 1.01 6.73.94 10.5l1 3c.31 3.58.51 7.16.72 10.75C766 406 766 406 767 409q.15 3.76.12 7.5l.02 2.05c-.01 3.1-.16 5.5-1.14 8.45v2.93c0 3.07 0 3.07-.5 4.94-.5 2.13-.5 2.13-.44 6.06.05 3.51-.62 5.84-2.06 9.07q-.58 3-1 6l3.81-1c9.62-2.08 18.42-1.77 27.19 3 12.17 8.08 17.42 16.71 20.42 31.02L814 492l.52 2.57.48 2.43.55 2.45c.5 2.81.58 5.45.57 8.3l.01 2.92C816 513 816 513 815 514q-.02 2.9.06 5.8A38 38 0 0 1 814 527l-.94 5.87A99 99 0 0 1 810 546c-1.14 4.3-2.18 8.62-3 13 9.59-.8 9.59-.8 14-3l2.05-.96c10.01-5.02 15.24-12.62 18.95-23.04a50 50 0 0 0 2-16v-3c-.98-26.14-20.67-46.2-38.48-63.35-4.08-4.07-7.4-8.62-10.77-13.28l-1.85-2.52c-4.7-6.44-8.3-12.44-11.03-19.92l-.8-2.14c-5.95-16.08-6.23-34.13.93-49.79l1.43-3.33c4.18-9.09 9.43-15.7 16.57-22.67l1.99-2.02c13.45-12.79 31.49-18.69 49.76-18.32 7.34.4 12.73 3.38 17.69 8.71 5.85 7.78 5.85 7.78 5.31 13.01a28.3 28.3 0 0 1-13.13 17.93 83 83 0 0 1-10.36 3.91A61 61 0 0 0 841 364l-1.84.94c-5.99 3.55-8.96 9.61-11.16 16.06.47 2.18.47 2.18 1 4l-2 3 1 3q.46 3.15.87 6.31c.73 4.8 1.55 8.52 4.13 12.7l1.56 3.17c4.74 8.25 12.53 15.17 19.39 21.66 3.42 3.26 5.39 5.68 7.05 10.16l1.86.93c5.08 2.54 8.46 8.22 11.14 13.07l1.5 2.5 1.5 2.5 1.38 2.26c5.62 9.5 9.44 18.4 11.8 29.14.82 3.6.82 3.6 1.91 6.32 1.4 5.04 1.16 10.01 1.1 15.21v3.21c-.05 7.7-.55 14.58-3.19 21.86l-1.11 3.3c-5.57 16.03-12.82 32.75-28.89 40.7l-.81 1.87c-1.53 2.74-3.58 3.6-6.26 5.07q-2.63 1.47-5.22 3.02c-8.37 4.95-17.05 9.94-26.77 11.54-2.94.5-2.94.5-5.43 1.52-2.96 1.15-5.53 1.35-8.7 1.54-5.61.34-5.61.34-7.81 1.44q-2.85.06-5.71 0-1.7-.04-3.46-.06l-7.25-.16-3.47-.04-3.19-.07c-6.1.68-9.32 4.64-13.11 9.08A68 68 0 0 1 747 634l2 1.56 3 2.44 1.97 1.54c6.52 5.32 9.79 10.23 10.9 18.64.22 3.86.35 6.53-1.87 9.82-7.12 7.92-14.51 9.04-24.8 9.73-10.94.55-19.79-.27-30.2-3.73l-3.65-1.16A342 342 0 0 1 696 670l3.19 2.18c5.66 4.07 10.64 8.45 12.5 15.38.46 5.14.38 10.27.31 15.44l-4 1 .21-3.15c.43-9.05.14-15.77-6.21-22.85-4.47-4.23-9.27-6.86-15-9v-8c4.06 1.53 7.84 3.43 11.69 5.43 16.27 8.28 37.54 10.85 55.31 5.57 2.97-1.86 4.46-2.92 6-6 .69-7.33.74-14.06-4-20-4.69-4.46-10.17-7.3-16-10a77 77 0 0 1 10.06-8.63c15.52-11.74 15.52-11.74 19.94-18.37 2.31-.39 2.31-.39 5.21-.4l3.24-.07 3.49-.03c32.49-.83 63.43-8.5 86.68-32.73 8.43-9.83 13.5-20.52 17.38-32.77l1.03-3.03c6.81-23.52 1.29-48.99-10.13-70-7.32-12.95-16.73-23.62-26.94-34.34-14.54-15.28-26.53-29.23-26.23-51.54.68-7.77 3.9-13.88 9.61-19.15 7.42-5.42 16.07-9.2 24.78-12 5.82-1.96 9.16-5.5 11.88-10.94.53-5.34.68-9.68-1.81-14.5L866 325l-1.44-1.75c-6.4-5.13-15.8-4.77-23.56-4.25-14.23 1.83-27.24 8.68-38 18l-2.46 1.83c-8.08 6.9-13.11 17.3-16.54 27.17l-.97 2.45c-6.01 17.6-1.79 37.32 5.97 53.55 5.17 9.87 12.25 18.23 19.75 26.4C810 450 810 450 810 452l3 1a36 36 0 0 1 3.19 3.56 92 92 0 0 0 7.62 8.06c13.32 13.2 24.02 31.81 24.75 50.75-.41 13.71-5.78 27.44-15.81 36.94-8.67 7.18-21.29 13.26-32.75 12.7l.55-1.6a311 311 0 0 0 5.51-18.23l.78-2.75a121 121 0 0 0 4.47-33.25l-.01-3.44c-.21-14.64-2.25-28.42-12.3-39.74-2.66-1.99-2.66-1.99-5.5-3.75l-2.84-1.8c-4.88-2.67-9.36-2.66-14.85-2.7l-2.17-.07c-5.68-.04-10.37 1.26-15.64 3.32l1.44-12 .41-3.4.4-3.35.39-3.3q.3-2.55.67-5.1c4.17-29.35-1.26-60.46-11.29-88.04a453 453 0 0 1-2.82-8.07c-4.03-11.47-9.33-22.04-15.04-32.76-12.81-24.24-12.81-24.24-14.16-34.98l-.56-3.42c.62-3.98.97-4.37 3.93-6.79a202 202 0 0 1 4.5-3.17l4.7-3.4 2.31-1.67c13.31-9.75 20.71-21.39 24.12-37.55 1.02-8.39.79-16.86.73-25.29l.03-7.3q.04-9.59 0-19.16-.02-15.16.03-30.33l.01-7.4c.04-19.5.67-38.9 1.86-58.35.44-7.4.6-14.82.71-22.24l.06-3.54c.06-6.36-.6-10.26-4.43-15.39-4.99-3.88-9.18-5.53-15.44-5.39-9.99 1.5-19 10.2-26.94 16.02a421 421 0 0 1-12.81 9 600 600 0 0 0-19.41 13.86q-.79.59-1.61 1.17a71 71 0 0 0-3.35 2.65c-4.66 3.75-8.24 4.44-14.14 4.45l-2.55.06q-4.15.06-8.31.1l-5.83.05q-6.12.06-12.23.06-7.77.03-15.53.21-6.03.1-12.07.1-2.85 0-5.71.08c-14.22.34-22.54-2.82-33.41-12.03a91 91 0 0 0-6.7-4.99l-4.02-2.9-2.24-1.6q-6.55-4.77-12.99-9.68C517.75 18.74 517.75 18.74 506 20c-5.87 1.97-10.26 6.53-13 12q-.17 3.84-.15 7.7v2.61c.11 13.47.74 26.92 1.27 40.38 1 25.65 1.93 51.3 2.23 76.96l.03 2.73a4526 4526 0 0 1 .3 35.54l.02 6.45c.05 6.56.3 12.36 2.3 18.63l.82 2.61c5.63 14.72 16.19 23.82 28.83 32.66 3.82 2.81 3.82 2.81 5.35 4.73 1.86 16.7-9.77 35.26-17.56 49.5-5 9.17-8.82 18.71-12.44 28.5l-.83 2.22c-8.19 22.14-13.59 45.96-13.42 69.6l.01 1.98c.04 9.92.65 19.41 2.24 29.2q.59 4.5 1.12 9l.51 4.06.37 2.94-2.71-.66c-11.41-2.63-20.73-4.3-31.29 1.66-10.92 7.7-15.4 18.24-18.19 30.93-3.54 21.96.59 46.33 8.19 67.07l.71 1.95c6.66 17.68 17.41 33.34 30.29 47.05l1.65 1.77a149 149 0 0 0 24.27 21.02A35 35 0 0 1 513 636l-2.41 1.06c-6.61 3.08-11.57 5.77-15.59 11.94l-1.88 2.81a23.2 23.2 0 0 0-.06 16.12c3.41 3.63 7.56 4.9 12.37 5.5l3.59.07 1.96.04q3.13.04 6.27.02h2.16c14.8-.04 28.4-2.47 41-10.68C562 662 562 662 565 662v8l-3.44 1c-6.65 2.51-12.38 7.5-16.12 13.56-2.64 5.93-1.74 13.08-1.44 19.44h-3c-2.02-3.03-2.58-4.79-2.54-8.4 1.22-5.92 4.64-11.34 7.54-16.6h-3c-1.69-2-1.69-2-3-4l-2.69.93c-8.99 2.5-18.05 2.21-27.25 1.32l-2.44-.23c-7.62-.85-13.15-3.68-18.62-9.02-.88-2.38-.88-2.38-1-5l-.31-3.25c.76-9.2 5.51-14.49 11.97-20.78C502 637 502 637 505 636c-1.25-3.75-2.83-4.68-5.94-7.07-4.95-3.82-4.95-3.82-7.06-5.93l-3.06-2.57c-11.71-9.98-11.71-9.98-13.94-14.43l-3-2-.44-2.5-.56-2.5a88 88 0 0 0-4-2 91 91 0 0 1-3-5l-2-2.44c-2.14-2.75-3.47-5.44-5-8.56l-2.94-4.82A87 87 0 0 1 442 543c-.61-2.6-1.31-5.17-2-7.75a87 87 0 0 1-2-12.25l-.28-2.24c-1.03-8.77-1.77-18.12.28-26.76l.8-3.46c1.87-7.46 3.92-14.07 8.2-20.54l1.11-1.89c4.17-6.6 11.18-11.14 18.52-13.65 7.57-1.48 15.82-.9 23.37.54l-.4-1.73-.54-2.34-.53-2.28c-1.56-7.76-2.06-15.59-2.66-23.47l-.3-3.75-.27-3.58-.25-3.26C485 412 485 412 486 410c.07-2.99 0-5.97-.06-8.96.06-2.84.44-5.28 1.06-8.04l.44-3.88c.45-3.85 1.49-7.39 2.56-11.12l.66-5.96c.47-2.8 1.43-5.28 2.52-7.89 1.14-3 1.95-6.07 2.82-9.15 4.09-13.54 8.47-26.4 15-39l1.53-3.08a158 158 0 0 1 3.97-7.36c2.11-3.77 3.86-7.57 5.5-11.56l1.94-4.25c4.07-9.22 7.06-17.6 7.06-27.75l-2.16-.73c-3.27-1.47-5.55-3.32-8.28-5.65-5.85-4.93-5.85-4.93-9.12-6.94-2.63-1.8-3.13-2.88-4.44-5.68l-2.38-1.75c-7.25-6.22-10.96-19.63-11.9-29.05q.03-2.3.19-4.59c.1-2.84-.12-5.54-.39-8.37a248 248 0 0 1-.6-21.62l.03-6.96.05-14.79.09-23.98c.02-6.93-.1-13.76-.87-20.64-.35-3.57-.28-7.1-.22-10.69a346 346 0 0 0-.56-22.93 56 56 0 0 0-.98-9.13c-.72-3.9-.52-7.79-.46-11.75q.07-4.38 0-8.75l-1-1c-.84-9.23.35-16.06 6.25-23.25 6.69-7.09 14.31-10.58 24.07-6.87M561 666l-1 2h3v-2zm129 0 1 2 2-1zm-141 6 1 3 4-4c-3 0-3 0-5 1" fill="#E6E7E7"/><path d="M673 495c.7 1.57.7 1.57 1 4a65 65 0 0 1-3.12 6.88l-.9 1.81c-5.53 10.79-15.72 19.76-26.98 24.31h-4l.18 2.07a637 637 0 0 1 2.14 55.44l-.01 6.26c-.04 59.96-.04 59.96-4.31 64.23q-2.45.13-4.91.1l-3-.01-3.15-.03-3.17-.01L615 660a359 359 0 0 1-3.25-32.09c-1.65-27.7-2.18-56.31 1.04-83.91.25-2.36.31-4.69.27-7.06L613 533l-2.34-1.1c-12.85-6.2-12.85-6.2-17.66-10.9v-2l-1.71-.62c-3.14-1.89-4.94-4.53-6.98-7.5l-1.22-1.77c-2.98-4.5-4.19-7.76-4.09-13.11l1.88 1.94c11.89 11.79 26.64 24.47 44.24 25.44 15.83-.44 30.85-10.02 41.5-21.11A313 313 0 0 0 673 495" fill="#000"/><path d="M739 469h1c.7 34.53-6.55 67.57-18 100l-1.34 3.86a690 690 0 0 1-5.12 14.02l-.78 2.05-2.14 5.6a240 240 0 0 0-9.93 33.89l-1.36 6.32c-1.81 8.42-3.48 16.55-3.39 25.2l.02 3.46.04 2.6c-4.47-1.25-7.78-2.59-11-6-4.4-30.26 16.92-70.72 27.15-98.68 10.97-30 18.66-61.03 24.85-92.32" fill="#000201"/><path d="M512 470h2l.45 3.09c5.8 38.36 18.87 76.27 32.43 112.53l.82 2.22 3.04 8.12c4.03 10.85 6.86 21.99 9.57 33.23l.54 2.18A142 142 0 0 1 565 661c-3.44 2.29-4.72 3-9 3l-.3-3.96c-2.47-30.55-12.12-60.05-23.64-88.35a300 300 0 0 1-10.32-30.92 265 265 0 0 1-6.86-35.39l-.53-3.93A306 306 0 0 1 512 470" fill="#000101"/><path d="M863.98 319.45c5.3 4.07 9.35 8.99 11.02 15.55-.78 7.54-4.44 13.04-10 18-4.53 3.34-9.74 5.15-15 7l-3-3 3.28-1.07c15.35-5.21 15.35-5.21 19.72-13.93.53-5.34.68-9.68-1.82-14.5L866 325l-1.44-1.75c-6.4-5.12-15.8-4.77-23.56-4.25-14.23 1.83-27.25 8.68-38 18l-2.46 1.83c-8.09 6.9-13.1 17.3-16.54 27.17l-.97 2.46c-6 17.59-1.8 37.3 5.97 53.54 5.17 9.87 12.24 18.23 19.75 26.4C810 450 810 450 810 452l3 1a37 37 0 0 1 3.18 3.56 94 94 0 0 0 7.63 8.07c12.8 12.67 24.15 31.2 24.5 49.53-.02 8.24-.02 8.24-1.3 10.84h-2q-.27-2.15-.5-4.31l-.3-2.43c-.2-2.26-.2-2.26-.2-5.26-.99-26.14-20.68-46.2-38.49-63.35-4.09-4.06-7.4-8.61-10.77-13.27l-1.86-2.53c-4.69-6.43-8.29-12.43-11.02-19.91l-.8-2.14c-5.95-16.1-6.24-34.14.93-49.8l1.43-3.32c4.17-9.1 9.42-15.72 16.57-22.68l2-2.02c14.44-13.74 43.2-25.87 61.98-14.53" fill="#E1E2E4"/><path d="M495 137h1l.02 2.91.27 27.19.13 13.97.14 13.5.04 5.14.08 7.22.01 2.12c.23 13.67 6.13 26.58 15.6 36.3a153 153 0 0 0 16.36 12.92c3.82 2.81 3.82 2.81 5.35 4.73 1.93 17.38-10.54 36.76-18.68 51.53-3.49 6.48-6.15 13.23-8.67 20.14l-.92 2.45-.8 2.2C504 341 504 341 501 342c.57-5.6 2.63-9.98 5-15l1.71-3.7c7.08-15.26 7.08-15.26 10.23-20.55 2.05-3.55 3.51-7.24 4.99-11.07 1.13-2.82 2.4-5.55 3.69-8.3 3.3-7.21 4.66-13.45 4.38-21.38l-2.16-.73c-3.27-1.46-5.55-3.32-8.28-5.65-5.85-4.93-5.85-4.93-9.12-6.93-2.63-1.82-3.13-2.89-4.44-5.69l-2.38-1.75c-7.25-6.22-10.96-19.63-11.9-29.05q.03-2.38.17-4.77c.12-2.72-.12-5.28-.39-7.99-.92-10.78-.58-21.63-.5-32.44l2-1z" fill="#E3E5E4"/><path d="M629 194c3.26 1.13 6.52 2.52 9 5 .44 2.69.44 2.69 0 6a27 27 0 0 1-6 6h-2l.19 2.81c-.19 3.19-.19 3.19-1.31 5.07-2.72 1.63-4.78 1.45-7.88 1.12-2-2-2-2-2.25-4.81-1.05-4.48-3.12-5.47-6.75-8.19-1.44-2.87-1.38-4.82-1-8 5.57-5.42 10.48-5.77 18-5" fill="#626463"/><path d="M779 382h1l.11 3.08c1.14 25.58 11.52 44.68 28.64 63.33C810 450 810 450 810 452l3 1a38 38 0 0 1 3.19 3.56 92 92 0 0 0 7.62 8.06c12.8 12.68 24.16 31.22 24.51 49.54-.02 8.24-.02 8.24-1.32 10.84h-2l-.5-4.31-.28-2.43C844 516 844 516 844 513c-.98-26.14-20.67-46.19-38.48-63.35-4.08-4.06-7.4-8.61-10.77-13.27l-1.85-2.53c-4.7-6.43-8.3-12.43-11.02-19.91l-.81-2.15c-1.88-5.09-3.26-9.12-2.95-14.56l.15-2.69.17-2.79.16-2.84z" fill="#DCDEDF"/><path d="M750.13 16.67A24.6 24.6 0 0 1 762 27c1.78 6.92.69 13.95 0 21h-1l-.09-3.25c-.5-14.5-.5-14.5-4.91-19.75-5-3.87-9.2-5.52-15.46-5.38-9.98 1.49-19 10.18-26.92 16a439 439 0 0 1-12.81 9A604 604 0 0 0 681.4 58.5q-.79.59-1.62 1.17a81 81 0 0 0-4.75 3.97c-4.92 3.49-10.04 3-15.87 2.86l-3.4-.02q-5.35-.06-10.7-.16l-7.27-.06q-8.9-.09-17.78-.25v-1h1.75q9.13 0 18.25-.1l6.8-.02q4.92 0 9.82-.07l3.03.02c6.55-.13 10.38-1.52 15.58-5.54C677 58 677 58 679 58l.75-1.86c1.51-2.57 2.62-2.83 5.25-4.13q2.26-1.67 4.43-3.44a79 79 0 0 1 9.58-6.56 300 300 0 0 0 4.67-3.25l2.65-1.85L709 35q4.99-3.52 10-7l2.25-1.56Q724.6 24.16 728 22l2.7-1.71c6.67-3.96 11.82-6.01 19.42-3.62" fill="#D6D7D9"/><path d="M888 534c2.38 4.18 2.09 7.42 1 12-4.78 14.49-12.97 31.94-27.25 39.14L860 586l-.81 1.88c-1.53 2.73-3.58 3.58-6.26 5.06q-2.63 1.47-5.22 3.02c-8.37 4.95-17.05 9.94-26.77 11.54-2.94.5-2.94.5-5.43 1.53-2.96 1.14-5.53 1.35-8.7 1.53-5.61.34-5.61.34-7.81 1.44q-3 .06-6 0l-1-2c3.86-2.42 8.08-2.67 12.5-3.25 26.91-3.93 52.07-14.69 68.91-36.93A90 90 0 0 0 888 534" fill="#DEE0E1"/><path d="M762 35h2c1.11 4.67.81 8.59.25 13.28-.34 3.67-.28 7.3-.19 10.98-.07 3.31-.59 6.47-1.06 9.74q-.37 4.37-.56 8.75l-.13 2.63c-.47 10.96-.36 21.92-.27 32.89l.01 2.25.05 6.15A31 31 0 0 1 761 129q-.23 4.13-.32 8.27l-.06 2.4-.18 7.58-.13 5.15L760 165l-2 1c-.44-72.34-.44-72.34 2-106l.15-2.04Q760.96 46.47 762 35" fill="#DFE0E0"/><path d="M615 660h21l-.07 5.84-.05 7.66-.06 3.84c-.05 9.74.39 16.55 6.18 24.66v2c-3.08-.22-4.01-1.01-6.12-3.31-5.26-8.76-4.62-21.81-3.88-31.69l2-5h-15l1 2c.24 4.06.19 8.12.19 12.19l.03 3.41c.02 9.28-.57 15.58-7.22 22.4h-2l.81-1.94L613 699l.76-1.88c2.31-6.16 2.63-11.65 2.49-18.18l-.02-2.86c-.06-5.5-.54-10.55-1.23-16.08" fill="#DBDEDF"/><path d="M770 609c2.98-.34 2.98-.34 6.76-.29l2.01.01q3.18.03 6.35.09l4.31.04q5.3.06 10.57.15v1l-2.31.15q-5.19.35-10.38.73l-3.63.23-3.5.26-3.23.22c-6.5.9-9.5 3.74-13.64 8.6A69 69 0 0 1 747 634l2 1.56 3 2.44 1.97 1.54c6.67 5.45 9.87 10.33 10.78 18.96q.16 2.25.25 4.5h-3l-.45-2.34c-1.5-6.99-3.03-12.85-8.55-17.66a129 129 0 0 0-13-7 76 76 0 0 1 10.06-8.62c15.52-11.75 15.52-11.75 19.94-18.38" fill="#EDEEED"/><path d="m481 454 1 2-2.27.08c-11.98.66-20.6 3.84-28.73 12.92-9.38 13.19-10.32 29.04-10.12 44.69l.02 4.18.1 10.13h-2c-2.49-10.69-3.54-23.29-1-34l.8-3.45c1.87-7.47 3.92-14.08 8.2-20.55l1.11-1.89c4.22-6.68 11.22-11.08 18.63-13.65 4.7-.95 9.49-.67 14.26-.46" fill="#E1E3E3"/><path d="m698.31 175.63 2.44.5c4.5 1.06 7.28 2.1 10.25 5.88-3.66 1.2-4.76.3-8.12-1.25-12.38-5.05-30.5-1.57-42.36 3.16L658 185l-2.68 1.14q-3.17 1.39-6.32 2.85c2.44-5.72 7.1-7.72 12.6-10.13 12.21-4.53 24-5.86 36.71-3.25" fill="#020302"/><path d="m593 182 3.44 1.5c2.72 1.6 3.54 2.56 4.56 5.5-3.22-.66-5.79-1.84-8.69-3.38-14.36-7.28-31.7-9.36-47.31-4.62q-3.04 1.42-6 3h-3l1-3h3v-2c17.85-6.04 36-5.08 53 3" fill="#030403"/><path d="M877 468c4.13 1.38 4.49 3.22 6.44 7.06 3.27 6.58 5.17 13.19 6.74 20.35.82 3.59.82 3.59 1.91 6.31 1.4 5.04 1.16 10.01 1.1 15.22v3.21c-.07 11.08-.07 11.08-1.19 15.85l-3 2 .06-2.76c.44-21.73-.12-39.91-9.57-59.95A30 30 0 0 1 877 468" fill="#E9EAEB"/><path d="M495 137h1v80l-2 1c-1-3.52-1.02-6.72-.97-10.37-.03-2.74-.27-5.4-.53-8.13-.92-10.8-.58-21.67-.5-32.5l2-1z" fill="#BDBEBD"/><path d="M760 445h1l1 11 3.81-1c9.62-2.08 18.38-1.71 27.19 3a83 83 0 0 1 9 8l-1 3-2-2.19c-7.71-7.71-14.94-9.02-25.48-9.07-5.71.06-10.25.96-15.52 3.26z" fill="#E8EAEA"/><path d="M524 290h2a29 29 0 0 1-3.66 11.35l-1.65 3.05-1.75 3.22a206 206 0 0 0-12.49 27.45c-.74 2.01-1.59 3.97-2.45 5.93l-3 1c.57-5.6 2.63-9.98 5-15l1.71-3.7c6.99-15.07 6.99-15.07 10.23-20.61 2.36-4.08 4.21-8.36 6.06-12.69" fill="#E4E6E7"/><path d="M488 410h1l.14 2.5c1.6 28.68 1.6 28.68 4.27 40.66.59 2.84.59 2.84.59 6.84l-14-3 1-3 9 1-.94-4.06c-2.99-13.68-1.98-27.09-1.06-40.94" fill="#CDCFD0"/><path d="M762 35h2c1.11 4.67.81 8.59.25 13.28-.34 3.67-.28 7.3-.19 10.98-.06 2.74-.06 2.74-.53 5.91-.79 5.74-.92 11.48-1.14 17.27l-.11 2.72-.09 2.46c-.2 2.52-.65 4.91-1.19 7.38h-1c-.23-20.12-.11-39.97 2-60" fill="#EAECEB"/><path d="M759 165h1c.6 12.54 1.11 25.07 1.19 37.62l.04 2.85c0 5.25-.51 9.57-2.23 14.53-2.2-3.3-2.23-4.18-2.15-8.01l.05-3.08.09-3.32.07-3.41.16-7.14q.13-5.48.24-10.97l.15-6.92.07-3.34.08-3.06.07-2.71C758 166 758 166 759 165" fill="#F1F3F3"/><path d="M616 662h2c1.97 3.3 2.26 5.8 2.27 9.61v3.29l-.02 3.41.02 3.38c-.02 9.23-.66 15.54-7.27 22.31h-2l.81-1.94L613 699l.77-1.76c2.82-7.19 2.57-14.17 2.42-21.8l-.04-3.93z" fill="#E9EAED"/><path d="M802 466c8.05 7.16 9.92 15.68 12 26l.61 2.38c.55 3.67.24 7.25-.05 10.93l-.16 2.25q-.18 2.72-.4 5.44h-1l-.21-2c-3.33-30.6-3.33-30.6-10.79-41z" fill="#EAE9EC"/><path d="M492 52h1c.92 22.79 1.21 45.22 0 68h-1c-1.13-9.45-1.16-18.87-1.12-28.38v-2.39c.01-12.43.3-24.82 1.12-37.23" fill="#D3D4D4"/><path d="m758 385 3 1c2 9.52 2.22 18.93 2.25 28.62l.03 3.78-.01 3.58-.01 3.22C763 428 763 428 761 432l-1-31h-1z" fill="#1C1E1D"/><path d="m553 672 3 1-2.25 2.19c-5.13 5.24-9.47 10.11-10.04 17.68q.03 2 .1 4.01l.04 2.08.15 5.04h-3c-2.57-3.86-2.88-6.55-2-11 3.18-8.16 7.08-15.4 14-21" fill="#D2D2D7"/><path d="M439 491h2v37h-2c-2.73-11.69-3.82-25.53 0-37" fill="#EEEFEF"/><path d="m871 334 3 2c-.58 7.27-3.1 11.44-8.44 16.25A25 25 0 0 1 857 357l-3.81 1.62L850 360l-3-3 3.29-1.07c14.22-4.81 14.22-4.81 17.8-9.92 1.74-3.85 2.42-7.84 2.91-12.01" fill="#D9DBDD"/><path d="M489 35h2a463 463 0 0 1 1 38c-3.29-3.29-3.05-6.93-3.06-11.39l.06-4.86q.08-4.37 0-8.75l-1-1q-.14-2.75-.12-5.5l-.01-3.03C488 36 488 36 489 35" fill="#F0F0F3"/><path d="M615 660h21v9c-2-3-2-3-2-5h-16v-2h-3z" fill="#D7DAD8"/><path d="M816 458c9.43 7.62 22.87 19.51 25 32h-3l-1-2.02c-5.17-10.02-12.2-18.15-19.79-26.42C816 460 816 460 816 458" fill="#DFE0E3"/><path d="M488 389h2q-.85 19-2 38c-2.75-2.75-2.43-4.67-2.69-8.5l-.26-3.53C485 412 485 412 486 410c.07-2.99 0-5.97-.06-8.96.08-4.18 1.01-8.01 2.06-12.04" fill="#EEF0F2"/><path d="M764 425c2 2 2 2 2.19 4.88-.19 3.12-.19 3.12-.69 5-.64 2.73-.45 5.35-.4 8.15-.13 2.6-.94 4.65-2.1 6.97h-2c-.21-8.17-.36-16.1 2-24z" fill="#D7DAD8"/><path d="M826 380c2 2 2 2 3 5l-2 3 1 3a322 322 0 0 1 1.34 10.46L830 407h-2c-3.53-8.91-4.14-16.44-4-26z" fill="#EBEDED"/><path d="M779 382h1l.11 3.08c.53 11.73 2.43 22.1 7.12 32.96.77 1.96.77 1.96.77 3.96-3-1-3-1-4.32-3.55l-1.24-3.2-1.26-3.17L780 409l-1.08-2.36c-1.01-2.9-1.07-4.89-.9-7.94l.16-2.96.2-3.05.17-3.11q.21-3.8.45-7.58" fill="#DCDEDF"/><path d="m716 671 29 1 1 2a29 29 0 0 1-8.05 1.13l-2.31.01-2.39-.02-2.34.02c-5.06-.01-9.91-.42-14.91-1.14z" fill="#242524"/><path d="M750 17c5.18 2.64 8.74 5.01 12 10 1.71 6.96.7 13.93 0 21h-1l-.08-3.25c-.51-14.5-.51-14.5-4.92-19.75-3.06-2.31-3.06-2.31-6-4l-3-2z" fill="#D4D4D6"/><path d="M496 215h1l.75 3.38A78 78 0 0 0 507 240l-2 2c-5.47-6.2-9.95-13.81-10.02-22.32.27-1.93.27-1.93 1.02-4.68" fill="#E1E1E5"/><path d="M754 640c5.81 4.22 9.24 8.52 10.46 15.74q.39 3.62.54 7.26h-3l-.48-2.38c-1.51-6.8-3.3-11.14-7.52-16.62z" fill="#EEEEF0"/><path d="M760 445h1l1 11 5-1c2.63.08 5.2.22 7.81.44l2.1.16q2.54.18 5.09.4v1l-2.96.11c-7.49.38-14.03 1.06-21.04 3.89z" fill="#D4D6D5"/><path d="M498 20c2.19.31 2.19.31 4 1l-2.25 2.12c-6.06 6.34-7.37 10.72-7.5 19.26l-.09 2.8q-.1 3.42-.16 6.82h-1l-.18-3.61-.26-4.7-.12-2.38-.12-2.3-.11-2.11C490 35 490 35 489 32c1.11-2.16 1.11-2.16 2.75-4.5l1.61-2.34A30 30 0 0 1 498 20" fill="#DADADC"/><path d="m743.75 15.88 2.42.04q.9.05 1.83.07l1 3c-.33.02-.33.02-2.02.02-9.21.38-15.45 3.97-22.98 8.98-2.19-.36-2.19-.36-4-1l7.25-4.36 2.07-1.25 2.01-1.21 1.84-1.12c3.74-2.14 6.2-3.3 10.58-3.18" fill="#E7E7EB"/><path d="m496 649 1 2c-.94 2.12-.94 2.12-2 4h-2q.6 2.88 1.25 5.75l.7 3.23c1.14 3.29 2.43 4.79 5.05 7.02-1.75.75-1.75.75-4 1-2.77-2.22-3.87-3.61-5-7a76 76 0 0 1-.19-5l-.04-2.62c.37-3.79 2.6-5.87 5.23-8.38" fill="#262628"/><path d="M749.2 19.68c4.85 2.22 7.77 4.95 10.8 9.32v2h-2v-2l-3-1c-2.18-1.94-2.18-1.94-4-4v-2h-14l-1-2c4.04-2.02 8.96-1.64 13.2-.32" fill="#1F1F21"/><path d="M888 534c2.37 4.18 2.1 7.43 1 12a107 107 0 0 1-6 14l-3-1 1.24-3.18c2.78-7.21 5.4-14.18 6.76-21.82" fill="#DBDBE0"/><path d="M845 497h2c2.38 9.99 4.05 19.69 3 30l-2 2c-1-1-1-1-1.08-2.77l.05-2.32.04-2.55.05-2.74c.08-7.41-.2-14.39-2.06-21.62" fill="#040505"/><path d="M761 657h1c1.18 3.35 2 6.43 2 10-2.25 3.88-5.61 6.1-9.31 8.5-4.28.8-8.41.11-12.69-.5v-1l2.45-.3c10.74-1.5 10.74-1.5 14.55-5.7 1.15-2.3 1.31-4.08 1.56-6.62l.26-2.48z" fill="#DADDDA"/><path d="M779 371h2l-.18 1.81A620 620 0 0 0 779 399c-2.49-3.73-2.24-5.68-2.19-10.12l.02-2.03c.23-13.91.23-13.91 2.17-15.85" fill="#ECEDEF"/><path d="M771.01 456.9a395 395 0 0 1 7.1.05l5.9.05q.48 1.49 1 3l-2.1-.04c-6.07-.06-11.9.25-17.9 1.04l-1-3c2.7-.9 4.23-1.12 7-1.1" fill="#1B1D1C"/><path d="M809 330c-1.23 3.68-2.52 4.32-5.62 6.56-5.34 4.12-8.85 8.74-12.38 14.44-.75-1.7-.75-1.7-1-4 3.36-4.93 12.52-17 19-17" fill="#DEDFE2"/><path d="M744 632c7.64 5.09 7.64 5.09 10 11l-14-7z" fill="#E2E3E3"/><path d="M850 434c3.8.55 5.31 2.05 7.75 4.94l1.86 2.15C861 443 861 443 861 445l3 1-1 3-3.36-3.36a325 325 0 0 0-3.75-3.68l-2.2-2.15-2.12-2.04C850 436 850 436 850 434" fill="#DDDDDF"/><path d="M785 422h4c1.56 2.01 1.56 2.01 3 4.69a47 47 0 0 0 5.44 8.19L799 437c-.4 2.13-.4 2.13-1 4l-4.81-6.69-1.37-1.89c-2.43-3.4-4.74-6.8-6.82-10.42" fill="#DEE0E2"/><path d="m720 28 3 1-18 13-1-3 6.88-4.94 1.97-1.42c4.92-3.53 4.92-3.53 7.15-4.64" fill="#DADBDC"/><path d="m510.31 15.69 2.86-.11c3.57.53 5.22 2 7.83 4.42l-3.1-.03-4.09-.03-2.04-.03c-3.73-.01-7.15.2-10.77 1.09 2.22-4.91 4.04-5.17 9.31-5.31" fill="#EDEDEF"/><path d="M467 595c5.8 3.34 9.71 7.91 14 13l-2 3-1.25-1.81C476 607 476 607 473.88 605.56 472 604 472 604 471.5 601.44L471 599c-2.06-1.31-2.06-1.31-4-2z" fill="#E9EBEB"/><path d="M764 396c2.34 3.5 2.18 4.66 1.98 8.76l-.16 3.39-.2 3.54-.17 3.57q-.21 4.37-.45 8.74h-1c-1.84-22.49-1.84-22.49 0-28" fill="#F5F7F6"/><path d="m481 454 1 2-2.31.15c-6.42.46-12.44 1.29-18.69 2.85v-2c6.8-3.14 12.57-3.33 20-3" fill="#EAECEF"/><path d="M823 556c-1 3-1 3-4.25 4.69-3.29 1.15-5.34 1.62-8.75 1.31l1-4 2.31.12c3.97-.18 5.44-2.12 9.69-2.12" fill="#EDEDEE"/><path d="M441 523h1c2.48 13.63 2.48 13.63 1 20-3.27-3.27-3.59-7.5-4-12a41 41 0 0 1 2-8" fill="#D5D8D5"/><path d="M732 254v3a45 45 0 0 1-6.86 3.87c-1.89.94-1.89.94-5.14 3.13-.94 3.25-.94 3.25-1 6h-1c-.96-4.2-.96-4.2 0-7 4.09-3.85 8.65-7.22 14-9" fill="#ECEFEB"/><path d="M634 666h1c.12 7.08-.15 13.97-1 21-2.55-2.55-2.26-4.23-2.27-7.72l.02-2.22-.02-2.21c.01-3.81.11-5.61 2.27-8.85" fill="#F0F3F4"/><path d="M565 662v8h-3l1-4-6 3v-4c2.87-2.17 4.36-3 8-3" fill="#E9EAED"/><path d="M480 609c3.22 1.41 5.32 3.1 7.75 5.62l1.86 1.92L491 618l-2 3a615 615 0 0 1-7.03-6.74C480 612 480 612 480 609" fill="#DFE2DE"/><path d="m763 436 2 1c.17 4.92.25 8.5-2 13h-2l.44-6.44.24-3.62C762 437 762 437 763 436" fill="#F3F5F5"/><path d="M841 599c-3.2 2.71-6.26 3.93-10.25 5.19l-3.27 1.04-2.48.77c.24-1.89.24-1.89 1-4 4.58-2.58 9.81-3.4 15-3" fill="#E6E6E7"/><path d="M616 690c1.62 1.69 1.62 1.69 3 4-.94 4.06-3.22 6.96-6 10h-2l.81-1.94c1.54-3.97 2.87-8.01 4.19-12.06" fill="#E2E5E5"/><path d="m802.25 607.88 3.27.04c.41.03.41.03 2.48.08v2c-5.07 1.26-9.73 2.27-15 2l-1-2c3.48-2.14 6.21-2.22 10.25-2.12" fill="#E4E5E5"/><path d="m835 546 2 2a769 769 0 0 1-6.54 6.05A23 23 0 0 1 823 558c1.41-3.4 3-5.02 6-7.12a45 45 0 0 0 6-4.88" fill="#DFDFE1"/><path d="m475.06 455.81 2.66-.04C480 456 480 456 482 458c-3.15 1.05-5.39 1.1-8.69 1.06l-3-.03-2.3-.03-1-2a23 23 0 0 1 8.05-1.19" fill="#2D2F31"/><path d="m812 491 3 2c.25 2.06.25 2.06.07 4.57l-.16 2.72-.22 2.83-.19 2.87q-.23 3.5-.5 7.01h-1c-.8-7.36-1.13-14.6-1-22" fill="#F4F6F5"/><path d="m501 638 2 1v2c-1.43 1.37-1.43 1.37-3.31 2.88-2.64 2.17-4.8 4.23-6.69 7.12-.78-1.7-.78-1.7-1-4 1.87-2.36 1.87-2.36 4.44-4.75l2.56-2.42z" fill="#E3E2E6"/><path d="m890 503 3 2c.36 2.9.36 2.9.31 6.38l-.01 3.46C893 518 893 518 891 522z" fill="#F0F1F3"/><path d="M761 386h2c1.96 4.73 2.18 8 1 13l-2 1z" fill="#DEE1DF"/><path d="M524 290h2c-.54 4.56-1.79 7.97-4 12l-3-1c3.14-7.43 3.14-7.43 5-11" fill="#ECECEE"/><path d="M847 508h1a908 908 0 0 1 .09 9.49c.02 5.28.02 5.28-1.09 7.51h-2c-1.49-3.87-.34-6.2 1-10a166 166 0 0 0 1-7" fill="#C5C7C5"/><path d="M867 324c3.69 1.23 4.35 2.88 6.15 6.21.9 1.9 1.52 3.71 1.85 5.79h-2l-1 2-1.94-5.31-1.09-2.99q-1.01-2.83-1.97-5.7" fill="#E9ECEF"/><path d="M811 526h1c.92 5.34 1.35 8.93-1 14l-2 1 .44-6.38.24-3.58C810 528 810 528 811 526" fill="#E8ECEA"/><path d="M732 299c3.73 3.73 6 6.64 6 12-3-1-3-1-4.69-3.75-1.25-3.1-1.6-4.97-1.31-8.25" fill="#EFF2F0"/><path d="m506 240 3.31 2.81 1.87 1.58A91 91 0 0 1 516 249l-1 2c-4.2-2.52-6.88-4.53-9-9z" fill="#EBECED"/><path d="M762 651c2.39 3.83 2.56 7.6 3 12h-3l-.56-4.88-.32-2.74C761 653 761 653 762 651" fill="#F3F6F4"/><path d="m445 555 4 1 1 9c-2.52-2.52-3.71-3.83-5-7z" fill="#EBECED"/><path d="M759 428h1l1 17h-3z" fill="#1F2220"/><path d="m819 325 1 3-1 2q-3.47 1.1-7 2l-2-2z" fill="#151619"/><path d="M750 236c.68 1.8.68 1.8 1 4-1.21 1.7-1.21 1.7-2.94 3.25l-1.71 1.58L745 246l-2-1a35 35 0 0 1 7-9" fill="#EDF0F1"/><path d="M496 215h1c1.1 4.32 2.18 8.62 3 13h-3c-1.97-4.76-2.01-7.96-1-13" fill="#CFD0D1"/><path d="m764 455 18 1v1l-19 1z" fill="#C6C9C8"/><path d="M835 321c-1 2-1 2-2.74 2.7l-2.14.55-2.11.58C826 325 826 325 823 323q1.87-.8 3.75-1.56l2.11-.88c2.44-.64 3.78-.36 6.14.44" fill="#1D1E20"/><path d="M540 692h2v9h-3c-.1-6.15-.1-6.15 0-8z" fill="#F1F1F3"/><path d="M497 356c1.16 3.48.77 4.34-.44 7.69l-.87 2.45L495 368l-3-2z" fill="#E8E9EA"/><path d="M779 382h1l1 20h-3z" fill="#B6B8BA"/><path d="m493 376 3 1-1.38 5.44-.77 3.06C493 388 493 388 491 389l.44-4.25.24-2.39c.3-2.18.74-4.24 1.32-6.36" fill="#222424"/><path d="M728 292c2.53 2.36 3.89 3.66 5 7-.94 2.19-.94 2.19-2 4q-1.05-1.9-2.06-3.81l-1.16-2.15C727 295 727 295 728 292" fill="#E1E5E2"/><path d="M518 20c4.45-.39 7.14.85 11 3v2c-3 1-3 1-5.04.04l-2.15-1.42-2.17-1.39L518 21z" fill="#DCDDDC"/><path d="M845 508h2c.08 4.16-.02 7.95-1 12-2-1-2-1-2.75-3.19-.3-3.39.51-5.67 1.75-8.81" fill="#F3F5F4"/><path d="M488 429h1a80 80 0 0 1 1 15l-3-2z" fill="#F2F4F6"/><path d="m761 375 2 1c.41 2.29.41 2.29.62 5.06l.23 2.79.15 2.15h-3z" fill="#EFF1EF"/><path d="M809 330c-1.16 3.49-2.14 4.1-5.06 6.19l-2.23 1.6L800 339c0-3 0-3 1.46-4.61l1.92-1.58 1.89-1.6C807 330 807 330 809 330" fill="#D4D4D7"/><path d="M739 16h9l1 3h-11z" fill="#F0F0F3"/><path d="M618 679c2.35 4.71 2.17 6.87 2 12l-3 1z" fill="#F1F2F7"/><path d="M494 203h1c.95 4.76 1.08 9.17 1 14l-2 1c-1.1-3.41-.94-6.21-.56-9.75l.31-2.98z" fill="#EDEDEF"/><path d="m861 583 3 1-1.88.75c-2.47 1.46-3.07 2.63-4.12 5.25h-3c1.38-3.34 2.85-5.19 6-7" fill="#E5E5E9"/><path d="M845 525h2l-3 11-2-4c1.38-3.75 1.38-3.75 3-7" fill="#E2E3E2"/><path d="M440 516h1v12h-2c-1.37-4.52-.47-7.59 1-12" fill="#E5E8E5"/><path d="M785 422h4a54 54 0 0 1 3 6l-1 3z" fill="#E5E7E9"/><path d="M496 364h3l-1 8-3 1c-.12-6.75-.12-6.75 1-9" fill="#1F2121"/><path d="m553 672 3 1c-2.58 2.65-4.92 4.94-8 7 0-3 0-3 2.5-5.69z" fill="#D5D5E2"/><path d="M463 586c2.92 3.54 5.5 7.16 8 11-2.88-1.29-5.09-2.45-7-5-.69-3.19-.69-3.19-1-6" fill="#DBDEDD"/><path d="M453 570h2c2.09 4.43 2.09 4.43 1.62 7.31L456 579c-2.06-2.81-2.06-2.81-4-6z" fill="#E8EAEA"/><path d="M503 640c0 3 0 3-2.5 5.69L498 648l-1-3z" fill="#1C1C20"/><path d="m869 575 1 3-5 5-3-1z" fill="#D6D6DA"/><path d="m489 458-1 3-9-2c3.85-2.57 5.59-1.83 10-1" fill="#1E2021"/><path d="m879 556 2 1a98 98 0 0 1-2 6l-2 1c-.69-1.75-.69-1.75-1-4 1.44-2.25 1.44-2.25 3-4" fill="#1C1E1D"/><path d="M811 483c1.91 3.17 2.16 5.11 1.62 8.75l-.33 2.42L812 496h-1q-.3-2.4-.56-4.81l-.32-2.71C810 486 810 486 811 483" fill="#DDDFDF"/><path d="m809 476 3 6c-.94 2.12-.94 2.12-2 4-1.84-3.78-2.16-5.95-1-10" fill="#EFF1F0"/><path d="M793 461c4.31.48 6.17 1.75 9 5l-1 3z" fill="#CFD1D1"/><path d="m720 263 2 1c.12 5.75.12 5.75-1 8h-2c-.1-6.15-.1-6.15 0-8z" fill="#F4F6F5"/><path d="m725 259-1 3-2 .81-2 1.19c-.75 3.12-.75 3.12-1 6h-1c-.31-3.25-.31-3.25 0-7 3.9-4 3.9-4 7-4" fill="#CBCECC"/><path d="M709 691h1l.5 4.81.28 2.71C711 701 711 701 711 704h-3z" fill="#B6B9B8"/><path d="m753 673-1 3-10-1v-1c7.62-1 7.62-1 11-1" fill="#D4D5D0"/><path d="m552.63 663.88 2.38.12v3c-1.83.63-1.83.63-4 1l-3-2c2-2 2-2 4.62-2.12" fill="#1F2125"/><path d="m770 609 9 1v2h-9z" fill="#E2E3DF"/><path d="M888 534c2 4 2 4 1.81 6.62C889 543 889 543 886 545z" fill="#CBCBCE"/><path d="M844 500h2l1 8-3-1z" fill="#D2D5D4"/><path d="m481 454 8 2-1 2-8-1z" fill="#D8DADD"/><path d="M755 361c1.95 3.9 2.51 6.72 3 11l-1-3-3 1z" fill="#363937"/><path d="m493 367 2 1-1 8c-2.15-2.15-2.64-3.04-3-6z" fill="#D9DBDB"/><path d="M789 348c.69 1.69.69 1.69 1 4-1.31 2.75-1.31 2.75-3 5h-2c1.06-3.4 2.01-6.01 4-9" fill="#E8E8ED"/><path d="m750 17 6 3c-1.69 1.12-1.69 1.12-4 2-2.75-.88-2.75-.88-5-2z" fill="#DEDEE0"/><path d="m552 676 1 4-5 2v2l-2-1z" fill="#1F1F2A"/><path d="M562 662h3v8h-3l.56-2.88C563 664 563 664 562 662" fill="#DFDFE1"/><path d="m860 580 3 1-5 5c0-4 0-4 2-6" fill="#19191C"/><path d="m466 458-1 4-5 1v-3c3.75-2 3.75-2 6-2" fill="#222327"/><path d="m857 355-1.81.81A18 18 0 0 0 850 360l-3-3q1.93-.8 3.88-1.56l2.17-.88C855 354 855 354 857 355" fill="#C9CBCA"/><path d="M752 352c2.13 3.19 2.5 5.27 3 9h-2c-2.12-6.75-2.12-6.75-1-9" fill="#252823"/><path d="m719 272 4 1-1 6c-3-3.62-3-3.62-3-7" fill="#E3E7E2"/><path d="M705 178c2.47 1.15 4.05 2.05 6 4-3.62 1.21-4.64.54-8-1z" fill="#07070A"/><path d="M676 59v3c-1.75 1.75-1.75 1.75-4 3l-4-1z" fill="#E7E9EB"/><path d="m508.19 635.38 1.8.62c-2.37 1.9-4.06 3.02-7 4v-3c3-2 3-2 5.2-1.62" fill="#F0EFF4"/><path d="M753 629c-1.75 2.06-1.75 2.06-4 4-2.25-.25-2.25-.25-4-1 2.47-3.12 4.11-3.32 8-3" fill="#EDEFED"/><path d="M845 595v3c-2.71 1.35-5.01 1.07-8 1 2.39-2.39 4.54-4 8-4" fill="#D5D7D7"/><path d="M888 543c1.21 3.62.54 4.64-1 8h-2c.75-5.75.75-5.75 3-8" fill="#E6E6EB"/><path d="m846 527 2 1v5l-4 2z" fill="#1D1E1C"/><path d="M805 476h2c1.26 2.91 2 4.8 2 8h-2c-1.26-2.91-2-4.8-2-8" fill="#262727"/><path d="m844 426 8 8c-3.79-.54-5.59-2.08-8-5z" fill="#ECECEE"/><path d="M759 368c3 3.75 3 3.75 3 6l-3 1c-1-1-1-1-1.12-3.5.12-2.5.12-2.5 1.12-3.5" fill="#E8ECE8"/><path d="M781 365h2l-1 7-3-3z" fill="#DCDCE0"/><path d="m842 363-5 4-1-4c2.49-1.25 3.41-.78 6 0" fill="#EAEAEE"/><path d="m503 335 2 1-2 6h-2c.88-5.88.88-5.88 2-7" fill="#EBEEEE"/></svg>