<svg style="background:transparent" version="1.1" xmlns="http://www.w3.org/2000/svg" viewBox="0 0 1248 704"><path d="M757 33c5.27 5.21 7.57 10.64 8 18-.13 3.54-.4 7.05-.71 10.58-.49 6.24-.34 12.49-.25 18.74l.02 2.71.04 2.39c-.1 2.58-.1 2.58-.59 5.83-.47 3.48-.67 6.8-.72 10.31l-.06 3.86-.05 4.16-.06 4.4-.15 11.82-.1 7.35c-.24 17.52-.41 35.04-.36 52.56v2.08a3788 3788 0 0 0 .15 28.19l.04 3.1c.02 5.4-.4 9.82-2.2 14.92l-.93 2.7c-1.84 4.74-3.66 8.45-7.07 12.3l-1.5 2.69c-1.7 2.62-2.74 3.01-5.5 4.31l-2.56 2.56C740 261 740 261 737 262l-.84 1.82c-2.07 3.89-6.19 5.73-9.82 8.08-2.34 2.1-2.34 2.1-2.8 4.42 1.09 6.35 3.3 11.87 6.08 17.62l1.06 2.21q4.2 8.76 8.62 17.41a174 174 0 0 1 8.74 20.89c.96 2.55.96 2.55 2 4.59a37 37 0 0 1 2.34 6.58 118 118 0 0 0 4.75 13.15c1.57 4.02 2.09 7.83 2.49 12.13.38 2.1.38 2.1 1.38 4.35 1.31 3.59 1.42 7.09 1.56 10.87.32 7.52.32 7.52 1.44 10.88q.15 3.96.13 7.91l.01 2.34-.01 4.87.01 7.5-.01 4.73.01 2.28c-.03 5.26-.03 5.26-1.14 6.37v3.38c0 3.62 0 3.62-1 6.62q-.33 2.6-.56 5.19l-.26 2.73L761 453l2.02-.44c10.43-2.1 18.64-3.17 27.98 2.44a86 86 0 0 1 7.25 5.69l1.86 1.59c4.52 4.06 7.29 7.78 8.89 13.72l1.12 3c2.65 9.06 3.16 17.14 3.07 26.56v3.87c-.08 15.23-.08 15.23-2.19 21.57l-.44 2.62A118 118 0 0 1 803 560c-3 7.24-3 7.24-3 11 14.83 4.63 34.07 4.6 49 1l4.88-.81c14.04-2.9 27.13-10.92 35.82-22.44 4.74-7.26 7.69-13.65 9.65-22.14C900 524 900 524 901 522q.14-2.9.12-5.81l.01-3.15c-.41-9.37-4.59-16.71-10.13-24.04l-1-2c-2.06-1.37-2.06-1.37-5-3l-1.72-1.01c-7.34-4.06-15.02-4.75-23.25-5.63-9.44-1.05-16.93-3.36-25.03-8.36l-1.96-.41c-2.98-.86-4.43-2.78-6.12-5.3-2.11-5.25-1.01-11.23.85-16.44 3.3-6.41 8.03-9.62 14.54-12.1 7.7-2.39 15.67-2.8 23.69-2.75l1 1q2.4.08 4.81.12c12.88 1.01 25.34 6.61 36.69 12.5l2.12 1.09c4.1 2.24 6.6 4.45 9.38 8.29q1.67 1.52 3.44 2.94c7.67 6.41 12.53 14.57 16.68 23.56l1.06 2.22c2.97 6.38 4.91 12.27 5.82 19.28.44 1.95.95 3.84 1.52 5.76.57 2.69.61 5.18.6 7.93l.01 2.95C949 522 949 522 948 523q.02 2.25.12 4.5c.06 4.56-.7 8.07-2.37 12.3-.75 2.2-.75 2.2-1.14 5.03-.72 3.75-2.22 6.82-3.99 10.17l-.92 1.79L937 562l-1.61 3.25c-3 5.95-7.02 10.79-11.39 15.75l-1.77 2.08c-3.18 3.73-6.25 7.01-10.23 9.92l-1.73 1.32a240 240 0 0 1-4.08 3.05 133 133 0 0 0-4.23 3.29c-12.77 9.89-29.61 14.12-44.96 18.34l-3 1c-9.87 1.91-19.5 2.29-29.52 2.21l-6.93-.02c-9.01-.03-17.7-.37-26.55-2.19l-3.94-.44c-2.53-.29-4.44-.7-6.87-1.56a41 41 0 0 0-14.19-2c-2.5 1.88-2.5 1.88-4 4l-3 1q-1.87 2.24-3.67 4.52c-1.81 2.02-3.99 3.13-6.33 4.48-1.81 2.19-1.81 2.19-3 4l2.21.76c3.01 1.34 4.98 2.86 7.41 5.05l2.29 2.02c3.93 4.09 5.38 7.6 6.09 13.17l.62 1.94c.73 3.97.32 7.42-1.71 10.96-4.37 5.72-9.35 7.33-16.25 8.49-2.56.32-5.09.48-7.66.61l-2.93.2c-13.8.51-27.08-3.95-40.07-8.2l1.54 1.25c7.98 6.7 12.55 12.43 15.21 22.63.33 4.1-.69 7.15-1.75 11.12q-13.95.29-27.9.41-6.48.06-12.96.19-6.25.13-12.51.16-2.38.01-4.77.09c-12.44.32-12.44.32-15.93-2.55A24 24 0 0 1 634 696l-.7-2.04c-2.17-6.97-2.94-14.86-1.3-21.96l1-7 1-6-17-1 2 6c.16 2.16.16 2.16.06 4.06-.06 3.94-.06 3.94.43 6.31.57 2.93.64 5.65.63 8.63l.01 3.06c-.24 5.37-1.53 9.24-4.13 13.94l-1.17 2.16C613 704 613 704 609.91 704.48l-3.86-.03-2.13.01q-3.48-.02-6.96-.07l-4.83-.02q-6.36-.02-12.71-.1-6.5-.05-12.97-.07-12.73-.08-25.45-.2c-2.13-3.93-2.44-6.47-2-11 3.23-10.5 8.7-17.01 17-24l-1.91.8A80 80 0 0 1 529 676l-3.86.39c-11.21 1-21.71.46-32.14-4.39-3.93-4.26-4.93-8.49-5.2-14.14.52-7.44 4.25-12.31 9.7-17.07 6.58-5.48 6.58-5.48 10.5-6.79l-1.97-1.46-2.53-1.92-2.53-1.89L499 627v-2l-1.69-.69c-2.97-1.68-4.92-3.87-7.31-6.31l-2.94-2.94-7.62-7.63a377 377 0 0 0-4.05-3.95 73 73 0 0 1-6.7-8.17l-2.12-2.88C465 590 465 590 465 588l-1.88-.69c-2.78-1.72-2.94-3.3-4.12-6.31a98 98 0 0 0-3-4.5 42 42 0 0 1-5-9.5l-1.56-2.56A20 20 0 0 1 447 558q-.7-2.44-1.44-4.88l-.8-2.67q-.86-2.75-1.82-5.45a91 91 0 0 1-2.43-10.56c-.51-2.44-.51-2.44-1.63-5.88-1.01-4.09-.99-7.72-.85-11.91A38 38 0 0 0 437 509c-1.06-14.72 3.3-32.04 12-44 7.05-7.14 15.53-12.26 25.66-13.05 5.28.11 10.35 1.39 15.34 3.05l-.4-1.79L488 446l-.56-2.5c-2.66-15.18-3.5-31.21-1.44-46.5l.44-3.58c.88-6.91 1.92-13.65 3.56-20.42l.45-2.42c.57-2.69 1.4-5.13 2.36-7.7l1.08-2.91L495 357l2.06-5.69q1.75-4.82 3.56-9.62a98 98 0 0 0 2.18-6.38c1.52-4.21 3.57-8.01 5.7-11.93l2.41-4.48 1.07-1.98A253 253 0 0 0 515 311l1.37-2.66a181 181 0 0 0 7.69-17.02c1.19-2.95 2.61-5.75 4.05-8.57 2.89-5.69 2.89-5.69 2.89-8.75-2.04-4.07-6.05-6.44-9.88-8.69L519 264v-2l-1.66-.7c-9.72-5.41-15.88-15.02-19.34-25.3a91 91 0 0 1-1.5-12.31c-.25-3.61-.56-7.17-1.03-10.75-.71-6.2-.53-12.4-.47-18.63l.03-7.57.02-3.4c-.07-4.51-.42-8.97-.83-13.46-.4-7-.26-14.02-.18-21.03.04-6.16-.18-12.16-.82-18.29-.34-3.94-.29-7.86-.22-11.81a96 96 0 0 0-1-15.75c-.06-3.77 0-7.52.06-11.28-.06-3.66-.51-7.1-1.06-10.72a77 77 0 0 1 0-4.31c.04-3.2-.13-6.26-.5-9.44-1.87-17.93-1.87-17.93 1.96-24.4 4.81-5.78 11.13-10.79 18.61-12.26 7.17-.32 11.99 2.68 17.93 6.41l2.72 1.64a201 201 0 0 1 17.65 12.44c2.2 1.6 4.21 2.72 6.63 3.92 2.24 1.69 4.41 3.47 6.59 5.25C565 62 565 62 567.95 63.43c4.33 2.23 7.64 5.39 11.27 8.61 3.1 2.18 5.02 2.75 8.78 2.96l1.72-.49c3.24-.72 6.42-.58 9.72-.51l4.62.07 2.47.04q6.5.1 13.01.14 8.27.08 16.52.22 6.69.12 13.38.16 2.53.02 5.07.08c10.75.25 17.93-.45 26.49-7.71l2.16-1.8a83 83 0 0 0 3.3-2.94c1.74-1.43 3.53-2.27 5.54-3.26q1.88-1.37 3.69-2.81a59 59 0 0 1 8.81-5.63 37 37 0 0 0 8.12-5.75 101 101 0 0 1 12-9.12l1.93-1.31c9.76-6.48 20.57-8.89 30.45-1.38m-67 631 1 3c2.06.69 2.06.69 4 1-1.38-2-1.38-2-3-4z" fill="#151715"/><path d="M910.88 449.81a105 105 0 0 1 4.12 3.2l2.85 2.24c8.41 7 13.92 15.21 19.14 24.75q.69 1.22 1.38 2.5A56 56 0 0 1 941 489l1.12 2.92c5.53 16.88 5.13 37.48-1.12 54.08l-1.28 3.74c-5.24 14.63-13.8 26.33-24.73 37.26l-2.12 2.17C902.1 599.43 888.89 606.1 875 611l-3.58 1.36c-26.9 9.83-59.6 9.41-87.42 3.64l-5.64-1.09q-7.2-1.4-14.37-2.9l4-2v-2h2l.68-1.6c1.79-3.24 4.13-5.95 6.46-8.79a120 120 0 0 0 12.31-18.86C791 576 791 576 793 574c4.04-.34 7.35.04 11.26 1 6.5 1.33 12.98 1.3 19.58 1.26l6.31.01c21.74.03 40.96-5.95 57.12-20.9 12.44-12.94 16.49-27.85 16.13-45.37-.52-10.15-6.12-17.73-12.99-24.88-8.82-7.8-20.63-9.92-32.08-10.62-9.29-.59-17.75-2.52-24.33-9.5a37 37 0 0 1-5.67-13.13c1.27-5.36 4.78-9.38 9.05-12.75 23-9.85 53.2-1.92 73.5 10.7" fill="#131514"/><path d="M757 33c5.27 5.21 7.57 10.64 8 18-.13 3.54-.4 7.05-.71 10.58-.49 6.24-.34 12.49-.25 18.74l.02 2.71.04 2.39c-.1 2.58-.1 2.58-.59 5.83-.47 3.48-.67 6.8-.72 10.31l-.06 3.86-.05 4.16-.06 4.4-.15 11.82-.1 7.35c-.24 17.52-.41 35.04-.36 52.56v2.08a3788 3788 0 0 0 .15 28.19l.04 3.1c.02 5.4-.4 9.82-2.2 14.92l-.93 2.7c-1.84 4.74-3.66 8.45-7.07 12.3l-1.5 2.69c-1.7 2.62-2.74 3.01-5.5 4.31l-2.56 2.56C740 261 740 261 737 262l-.84 1.82c-2.07 3.89-6.19 5.73-9.82 8.08-2.34 2.1-2.34 2.1-2.8 4.42 1.09 6.35 3.3 11.87 6.08 17.62l1.06 2.21q4.2 8.76 8.62 17.41a174 174 0 0 1 8.74 20.89c.96 2.55.96 2.55 2 4.59a37 37 0 0 1 2.34 6.58 118 118 0 0 0 4.75 13.15c1.57 4.02 2.09 7.83 2.49 12.13.38 2.1.38 2.1 1.38 4.35 1.31 3.59 1.42 7.09 1.56 10.87.32 7.52.32 7.52 1.44 10.88q.15 3.96.13 7.91l.01 2.34-.01 4.87.01 7.5-.01 4.73.01 2.28c-.03 5.26-.03 5.26-1.14 6.37v3.38c0 3.62 0 3.62-1 6.62q-.33 2.6-.56 5.19l-.26 2.73L761 453l2.02-.44c10.43-2.1 18.64-3.17 27.98 2.44a86 86 0 0 1 7.25 5.69l1.86 1.59c4.52 4.06 7.29 7.78 8.89 13.72l1.12 3c2.65 9.06 3.16 17.14 3.07 26.56v3.87c-.08 15.23-.08 15.23-2.19 21.57l-.44 2.62A118 118 0 0 1 803 560c-3 7.24-3 7.24-3 11 14.83 4.63 34.07 4.6 49 1l4.88-.81c14.04-2.9 27.13-10.92 35.82-22.44 4.74-7.26 7.69-13.65 9.65-22.14C900 524 900 524 901 522q.14-2.9.12-5.81l.01-3.15c-.41-9.37-4.59-16.71-10.13-24.04l-1-2c-2.06-1.37-2.06-1.37-5-3l-1.72-1.01c-7.34-4.06-15.02-4.75-23.25-5.63-9.44-1.05-16.93-3.36-25.03-8.36l-1.96-.41c-2.98-.86-4.43-2.78-6.12-5.3-2.11-5.25-1.01-11.23.85-16.44 3.3-6.41 8.03-9.62 14.54-12.1 7.7-2.39 15.67-2.8 23.69-2.75l1 1q2.4.08 4.81.12c12.88 1.01 25.34 6.61 36.69 12.5l2.12 1.09c4.1 2.24 6.6 4.45 9.38 8.29q1.67 1.52 3.44 2.94c7.67 6.41 12.53 14.57 16.68 23.56l1.06 2.22c2.97 6.38 4.91 12.27 5.82 19.28.44 1.95.95 3.84 1.52 5.76.57 2.69.61 5.18.6 7.93l.01 2.95C949 522 949 522 948 523q.02 2.25.12 4.5c.06 4.56-.7 8.07-2.37 12.3-.75 2.2-.75 2.2-1.14 5.03-.72 3.75-2.22 6.82-3.99 10.17l-.92 1.79L937 562l-1.61 3.25c-3 5.95-7.02 10.79-11.39 15.75l-1.77 2.08c-3.18 3.73-6.25 7.01-10.23 9.92l-1.73 1.32a240 240 0 0 1-4.08 3.05 133 133 0 0 0-4.23 3.29c-12.77 9.89-29.61 14.12-44.96 18.34l-3 1c-9.87 1.91-19.5 2.29-29.52 2.21l-6.93-.02c-9.01-.03-17.7-.37-26.55-2.19l-3.94-.44c-2.53-.29-4.44-.7-6.87-1.56a41 41 0 0 0-14.19-2c-2.5 1.88-2.5 1.88-4 4l-3 1q-1.87 2.24-3.67 4.52c-1.81 2.02-3.99 3.13-6.33 4.48-1.81 2.19-1.81 2.19-3 4l2.21.76c3.01 1.34 4.98 2.86 7.41 5.05l2.29 2.02c3.93 4.09 5.38 7.6 6.09 13.17l.62 1.94c.73 3.97.32 7.42-1.71 10.96-4.37 5.72-9.35 7.33-16.25 8.49-2.56.32-5.09.48-7.66.61l-2.93.2c-13.8.51-27.08-3.95-40.07-8.2l1.54 1.25c8.71 7.31 14.17 14.1 15.46 25.75a31 31 0 0 1-2 8h-3l.5-1.94c1.65-10.13-.8-16.32-6.31-24.87-4.06-4.06-9.06-6.68-14.19-9.19v-8a106 106 0 0 1 11.69 5.44c15.56 7.92 34.71 10.48 51.87 6.37 2.9-1 4.64-1.96 7.13-3.81 2.57-5.87 2-11.79.12-17.81-4.8-8.45-10.01-11.23-18.81-15.19v-2c1.88-1.55 3.78-3 5.75-4.44a91 91 0 0 0 10.5-8.7l1.57-1.54q2.13-2.17 4.23-4.36c3.3-2.19 4.82-2.24 8.65-1.48l2.3.52 5.53.94 8.98 1.6 2.96.52 2.64.48a123 123 0 0 0 18.84 1.66l2.23.02c37.95.29 74.38-6.27 102.76-33.72A95 95 0 0 0 929 569l1.77-2.7c12.41-19.84 16.43-43.78 12.61-66.84-4.77-19.75-16.76-38.62-34-49.58-16.42-9.2-31.52-13.05-50.32-13.26l-2.87-.04c-7.56.05-14.67 1.17-21.13 5.3-4.88 5.03-4.88 5.03-5.23 9.12.31 6.47 2.91 11.22 7.17 16 6.65 5.5 15.6 6.2 23.88 6.94 6.65.67 12.86 1.57 19.12 4.06l2.09.8c9.45 4.13 15.32 12.25 19.91 21.2l1.15 2.19c1.27 4.2 1.14 8.26 1.1 12.62l.02 2.62c-.04 14.42-6.06 27.12-16.02 37.39L886 557l-2 1.96c-7.48 6.92-15.53 11.11-25.12 14.35l-2.28.77c-9.92 3.19-19.78 3.15-30.1 3.17l-2.16.01c-10.38.01-20.28-.48-30.34-3.26 1.3-4.12 2.62-8.13 4.36-12.09 5.05-11.57 7.41-23.53 9.64-35.91l.55-2.92c2.68-18.24 2.42-40.36-7.99-56.06A33 33 0 0 0 781 455c-8.84-.59-16.62.13-25 3 .38-4.64.83-9.16 1.73-13.73 4.42-22.47 3.72-46.88-.73-69.27l-.37-2.07c-4.14-22.68-13.73-43.73-23.92-64.22-3.73-7.52-7.31-15.01-10.21-22.9l-.82-2.21c-1.39-3.96-2.58-7.45-1.68-11.6 2.17-2.17 4.69-3.67 7.31-5.25l4.42-2.89 2.21-1.45c11.94-8.17 20.31-19.53 23.6-33.74.45-2.63.6-5.06.61-7.73l.03-3.02.01-3.28.02-3.48.05-7.49.08-11.9.15-23.19.27-42.99c.08-12.9.4-25.74 1.14-38.62.36-6.87.36-13.74.4-20.61q.01-2.71.06-5.41.06-4 .07-8l.05-2.42c-.02-5.64-1.23-8.89-4.48-13.53-3.16-2.5-5.96-4.51-10-5l-3.06-.44c-10.58 1.18-20.15 9.85-28.68 15.85l-7.1 4.96A1530 1530 0 0 0 679.56 72l-2.13 1.55-1.87 1.37c-3.99 2.77-8.12 2.31-12.81 2.4l-2.89.06q-7.97.17-15.95.28l-3.31.05-6.71.1q-9.37.14-18.74.58c-34.61 1.62-34.61 1.62-46.97-9.55l-2.01-1.91c-4.07-3.63-8.69-6.49-13.23-9.49l-5.54-3.77-2.73-1.85-5.28-3.6-7.33-4.97-2.16-1.48c-7.36-4.94-13.83-8.05-22.9-6.77-5.72 1.86-9.11 5.86-12 11-1.19 3.58-1.17 6.83-1.15 10.55v2.38c.1 11.42.89 22.8 1.59 34.19 1.71 28.42 2.73 56.77 3.09 85.24.36 29.36.36 29.36.9 41.18l.09 2.34c.68 13.08 5.94 24.31 14.48 34.12a135 135 0 0 0 6.25 5l1.73 1.32c4.2 3.15 8.49 6.02 13.02 8.68-.48 6.88-3.14 12.57-5.94 18.81l-1.49 3.38a204 204 0 0 1-9.63 18.87c-17.78 30.78-28.16 66-28.13 101.44v2.43c.01 11.49.43 22.69 2.19 34.07q.52 4 1 8c-7.45-.88-7.45-.88-10.44-1.52-8.21-1.55-15.41-.92-22.56 3.52-8.67 6.15-14.68 14.58-17 25-5.75 35.83 3.15 73.84 24.35 103.26A221 221 0 0 0 486 610l2.64 2.8a167 167 0 0 0 19.39 16.89A47 47 0 0 1 514 635l-2.45 1.17-3.24 1.58-3.2 1.55c-7.05 3.85-10.43 8.19-13.11 15.7a21.4 21.4 0 0 0 1.06 11.88c3.39 3.71 7.54 4.95 12.4 5.54l3.63.05 1.98.03q3.15.02 6.31 0h2.16c14.6-.07 26.73-2.31 39.58-9.58C561 662 561 662 564 662v7l-2.16 1.03c-7.4 3.75-13.08 7.74-17.02 15.2-1.1 3.7-1.03 7.26-.94 11.08l.02 2.25.1 5.44h-3c-2.37-3.71-2.42-6.67-2-11 3.23-10.5 8.7-17.01 17-24l-1.91.8A80 80 0 0 1 529 676l-3.86.39c-11.21 1-21.71.46-32.14-4.39-3.93-4.26-4.93-8.49-5.2-14.14.52-7.44 4.25-12.31 9.7-17.07 6.58-5.48 6.58-5.48 10.5-6.79l-1.97-1.46-2.53-1.92-2.53-1.89L499 627v-2l-1.69-.69c-2.97-1.68-4.92-3.87-7.31-6.31l-2.94-2.94-7.62-7.63a377 377 0 0 0-4.05-3.95 73 73 0 0 1-6.7-8.17l-2.12-2.88C465 590 465 590 465 588l-1.88-.69c-2.78-1.72-2.94-3.3-4.12-6.31a98 98 0 0 0-3-4.5 42 42 0 0 1-5-9.5l-1.56-2.56A20 20 0 0 1 447 558q-.7-2.44-1.44-4.88l-.8-2.67q-.86-2.75-1.82-5.45a91 91 0 0 1-2.43-10.56c-.51-2.44-.51-2.44-1.63-5.88-1.01-4.09-.99-7.72-.85-11.91A38 38 0 0 0 437 509c-1.06-14.72 3.3-32.04 12-44 7.05-7.14 15.53-12.26 25.66-13.05 5.28.11 10.35 1.39 15.34 3.05l-.4-1.79L488 446l-.56-2.5c-2.66-15.18-3.5-31.21-1.44-46.5l.44-3.58c.88-6.91 1.92-13.65 3.56-20.42l.45-2.42c.57-2.69 1.4-5.13 2.36-7.7l1.08-2.91L495 357l2.06-5.69q1.75-4.82 3.56-9.62a98 98 0 0 0 2.18-6.38c1.52-4.21 3.57-8.01 5.7-11.93l2.41-4.48 1.07-1.98A253 253 0 0 0 515 311l1.37-2.66a181 181 0 0 0 7.69-17.02c1.19-2.95 2.61-5.75 4.05-8.57 2.89-5.69 2.89-5.69 2.89-8.75-2.04-4.07-6.05-6.44-9.88-8.69L519 264v-2l-1.66-.7c-9.72-5.41-15.88-15.02-19.34-25.3a91 91 0 0 1-1.5-12.31c-.25-3.61-.56-7.17-1.03-10.75-.71-6.2-.53-12.4-.47-18.63l.03-7.57.02-3.4c-.07-4.51-.42-8.97-.83-13.46-.4-7-.26-14.02-.18-21.03.04-6.16-.18-12.16-.82-18.29-.34-3.94-.29-7.86-.22-11.81a96 96 0 0 0-1-15.75c-.06-3.77 0-7.52.06-11.28-.06-3.66-.51-7.1-1.06-10.72a77 77 0 0 1 0-4.31c.04-3.2-.13-6.26-.5-9.44-1.87-17.93-1.87-17.93 1.96-24.4 4.81-5.78 11.13-10.79 18.61-12.26 7.17-.32 11.99 2.68 17.93 6.41l2.72 1.64a201 201 0 0 1 17.65 12.44c2.2 1.6 4.21 2.72 6.63 3.92 2.24 1.69 4.41 3.47 6.59 5.25C565 62 565 62 567.95 63.43c4.33 2.23 7.64 5.39 11.27 8.61 3.1 2.18 5.02 2.75 8.78 2.96l1.72-.49c3.24-.72 6.42-.58 9.72-.51l4.62.07 2.47.04q6.5.1 13.01.14 8.27.08 16.52.22 6.69.12 13.38.16 2.53.02 5.07.08c10.75.25 17.93-.45 26.49-7.71l2.16-1.8a83 83 0 0 0 3.3-2.94c1.74-1.43 3.53-2.27 5.54-3.26q1.88-1.37 3.69-2.81a59 59 0 0 1 8.81-5.63 37 37 0 0 0 8.12-5.75 101 101 0 0 1 12-9.12l1.93-1.31c9.76-6.48 20.57-8.89 30.45-1.38m-67 631 1 3c2.06.69 2.06.69 4 1-1.38-2-1.38-2-3-4z" fill="#E5E6E7"/><path d="M578 496h2c1.45 1.5 1.45 1.5 3.12 3.56 9.64 11.23 23.7 22.13 38.88 23.44l1.91.23c13.04.9 26.18-6.33 36.09-14.23 9.77-8.54 9.77-8.54 12-13h2c-1.23 9.94-7.04 18.92-14.7 25.22C645.35 532 645.35 532 639 532l.18 2.2a682 682 0 0 1 2.13 55.92v3.85c-.02 20.49-.92 40.68-3.31 61.03h-24c-4.95-34.33-4.85-68.81-2.27-103.32q.67-9.34 1.27-18.68l-1.89-.82c-12.91-5.74-25.56-15.63-31.25-28.84-1.86-5.35-1.86-5.35-1.86-7.34" fill="#000"/><path d="m636.69 210 3.3 2c.33 4.08.45 6.32-1.8 9.81-2.2 2.19-2.2 2.19-5.2 4.19q-1.09 3.47-2 7c-1 1-1 1-3.86 1.25-3.13-.25-3.13-.25-5-1.37-1.6-2.66-1.33-4.85-1.13-7.88l-1.75-.69c-2.95-1.72-4.46-3.39-6.25-6.31-.2-3.06-.2-3.06 1-6 6.63-5.48 15.04-5.8 22.69-2" fill="#606361"/><path d="m796.63 573.88 3.38.12c.15.34.15.34 1 2h-3l-.35 2.15c-2.17 9.37-10.02 24.63-17.65 30.85h-2c-.35 1.33-.66 2.63-1 4-4.3-.34-8.6-.65-13-1l4-2v-2h2l.66-1.6c1.79-3.24 4.13-5.93 6.46-8.77a120 120 0 0 0 12.32-18.87c2.65-4.73 2.65-4.73 7.17-4.88" fill="#010201"/><path d="M614 655h23l-.5 5.75q-.64 9.27-.75 18.56l-.06 2.5c-.05 8.51 2.24 15.37 7.31 22.19-2.25-.06-2.25-.06-5-1-5.47-7.65-6.82-16.74-7-26q.43-2.51 1-5l1-7 1-6-17-1 2 6c.16 2.16.16 2.16.06 4.06-.06 3.94-.06 3.94.43 6.31.57 2.93.64 5.65.63 8.63l.01 3.06c-.32 7.05-2.7 12.45-7.13 17.94l-4-1 1.06-1.64 1.38-2.17 1.37-2.15c2.2-3.78 2.32-6.85 2.32-11.14l.01-3.68-.02-3.84.02-3.78-.01-3.7v-3.36c-.15-4.19-.67-8.37-1.13-12.54" fill="#E8E8EB"/><path d="m761 43 3 1c.67 5.33 1.19 10.46.56 15.81-.77 6.76-.61 13.52-.52 20.31l.02 2.77.04 2.47c-.1 2.64-.1 2.64-.59 5.84-.51 3.8-.67 7.46-.72 11.3l-.03 2.16-.08 6.99-.06 4.88-.15 12.79-.16 13.07L762 168h-1l-1 29h-1l-.05-34.95-.03-16.23-.01-15.72-.02-5.95c-.03-12.39.3-24.7 1-37.06.23-4.41.34-8.82.43-13.23l.06-2.74.18-8.37.13-5.8z" fill="#D6D8D7"/><path d="M495 40c.95 2.56 1.17 3.62.04 6.16-1.3 3.56-1.31 6.79-1.25 10.52l.01 2.35c.17 11.38.94 22.74 1.64 34.09 1.41 23.46 2.75 46.87 2.62 70.38l-.01 4.88L498 180h-1l-1-29h-1c-1.18-11.72-2.28-23.36-2.01-35.15.08-4.4-.36-8.5-.99-12.85-.06-3.77 0-7.52.06-11.28-.06-3.66-.51-7.1-1.06-10.72a77 77 0 0 1 0-4.31c.04-3.2-.13-6.26-.5-9.44-1.01-9.65-1.85-17.82 3.5-26.25z" fill="#E3E5E3"/><path d="M564 662v7l-2.16 1.03c-7.4 3.75-13.08 7.74-17.02 15.2-1.1 3.7-1.03 7.26-.94 11.08l.02 2.25.1 5.44h-3c-2.37-3.71-2.42-6.67-2-11 3.23-10.5 8.7-17.01 17-24l-1.91.8A95 95 0 0 1 538 675l-2.81.69C533 676 533 676 530 675q-2.44-.22-4.89-.32l-8.79-.37L509 674v-1l2.03-.01c17.37-.19 32.7-1.36 48.09-10.07C561 662 561 662 564 662" fill="#E1E0E8"/><path d="m691.56 187.56 2.77-.03A37 37 0 0 1 710 191v2h2v2l-2.25-.66c-18.86-4.99-36.4-2.5-53.77 6.23C653 202 653 202 651 202c2.3-5.57 6.7-7.58 12-10 9.42-3.27 18.61-4.36 28.56-4.44" fill="#030503"/><path d="M599.5 197.31q1.78 1.3 3.5 2.7l-1 3-2.13-1.44c-11.93-7.52-22.76-8.82-36.56-9.07l-3.16-.1c-6.91 0-11.85 1.34-17.98 4.52C540 198 540 198 538 198c1.47-3.87 3.32-5.2 7-7 16.86-6.16 39.55-3.38 54.5 6.31" fill="#030403"/><path d="m888 437 3.07 1.04a149 149 0 0 1 17.99 7.96l1.92.97c3.99 2.14 6.36 4.4 9.02 8.03q1.67 1.52 3.44 2.94c5.17 4.32 8.93 9.41 12.56 15.06l-3 2-1.36-2.27c-7.04-11.2-15.76-19.71-27.64-25.73l-1.72-.88c-10.2-5.1-20-7.65-31.28-9.12v-1c6.12-3.14 10.88-1.09 17 1" fill="#DADADE"/><path d="M934 474c3 1 3 1 4.15 2.71q1.77 3.64 3.47 7.29l1.24 2.5c2.3 4.87 3.66 9.11 3.98 14.49a39 39 0 0 0 1.71 7.9c.56 2.64.58 5.11.57 7.8l.01 2.95C949 522 949 522 948 523q-.58 2.52-1.06 5.06l-.54 2.79-.4 2.15h-1l-.03-2.42c-.27-18.85-1.27-34.91-9.8-52.07C934 476 934 476 934 474" fill="#E3E4E6"/><path d="M598.36 73.77h2.1q3.37 0 6.73.04l4.6.02c10.77.06 21.49.38 32.2 1.17-2.87 2.88-5.91 2.47-9.8 2.62l-2.4.12c-9.63.41-19.27.37-28.91.32l-5.54-.01L584 78c1-2 1-2 3.6-3.11 3.73-.98 6.9-1.13 10.76-1.12" fill="#DDDEE0"/><path d="M758 443c1.88 3.27 2.49 6.28 3 10l2.02-.44c17.94-3.61 17.94-3.61 25.92.95 4.33 3.13 8.21 6.79 12.06 10.49l-1 3-1.88-2.69c-4.12-4.99-10.78-8.17-17.12-9.31-8.84-.59-16.62.13-25 3 .96-10.56.96-10.56 2-15" fill="#E5E6E7"/><path d="M760 117h1l1 110-3 1c-.09-23.41.15-46.81.46-70.21q.1-6.93.18-13.87z" fill="#F4F7F4"/><path d="M496 149h1a1453 1453 0 0 1 1 67h-1c-1.98-9.22-2.13-18.08-2.03-27.47a208 208 0 0 0-.74-19.51c-1.03-13.54-1.03-13.54 1.77-20.02" fill="#F0F0F0"/><path d="M487 401h1l.06 1.81c.39 11.32.89 22.56 2.28 33.81.62 5.16.74 10.18.66 15.38-2-1-2-1-3.12-3.62-.94-3.59-.95-6.69-.88-10.38l-1-1q0-3.17.03-6.34a87 87 0 0 0-.53-8.04c-1.46-15.09-1.46-15.09 1.5-21.62" fill="#E0E3E2"/><path d="M801 464c5.98 3.49 7.1 8.74 9 15l.91 2.58c3.27 10.45 2.36 21.59 2.09 32.42h-2l-.08-3.3c-.47-13.95-1.68-28.51-8.97-40.75C801 468 801 468 801 464" fill="#EDEEEE"/><path d="M440 497h1l.03 1.85c.24 12.62 1.05 24.74 3.69 37.1 1.64 7.88 1.64 7.88.28 12.05l-2-1q-.54-3.5-1-7l-1-2.38c-1.24-3.24-1.47-6.29-1.75-9.73C439 526 439 526 438 525c-.14-3.66-.16-6.51 1-10q.21-2.12.32-4.23l.12-2.43.12-2.53.13-2.56z" fill="#E2E5E1"/><path d="m617 672 3 1a982 982 0 0 1 .09 9.87c.04 8.46-1.71 14.47-7.09 21.13l-4-1 1.02-1.54 1.36-2.08 1.33-2.04c3.11-5.63 3.66-10.93 3.91-17.22l.12-2.37q.14-2.87.26-5.75" fill="#F1F1F6"/><path d="M495 118c2.37 2.37 2.28 2.94 2.41 6.18l.12 2.7.09 3 .12 3.1c.5 15.67.35 31.35.26 47.02h-1l-1-29h-1z" fill="#BFC1C1"/><path d="M880 609v3l-9.06 2.88-2.57.81c-19.07 6.04-19.07 6.04-28.37 3.31v-1l3.74-.45a141 141 0 0 0 30.83-7.34C878 609 878 609 880 609" fill="#EBEBEC"/><path d="M901 506h2c3.3 9.89 1.35 22.35-3.12 31.5L898 541c-1.42-3.83-.58-6.73.38-10.62l.83-3.48c.79-2.9.79-2.9 1.79-4.9q.1-2.94.06-5.88l-.02-3.17L901 510z" fill="#ECECF2"/><path d="M810 496h1l.18 3.73.26 4.89.12 2.45c.18 3.48.42 6.82 1 10.25.78 4.73-.05 9.14-1.56 13.68l-.44 3c-.56 3-.56 3-2.56 6h-2a138 138 0 0 1 2-14.03c1.15-6.21 1.44-12.35 1.62-18.66z" fill="#E3E6E4"/><path d="M490 375h3l-.62 3.61c-2.45 15.1-3.08 30.11-3.38 45.39h-1l-.08-2.02a1383 1383 0 0 0-.48-12.28c-.33-8.06-.33-8.06-1.03-12.04-1.14-7.34 1.31-15.66 3.59-22.66" fill="#CED0D2"/><path d="M909 448c4.93.42 6.69 2.46 10 6q1.99 1.74 4 3.44c5.28 4.58 9.23 9.69 13 15.56l-3 2-1.36-2.27a72 72 0 0 0-15.03-17.48c-2.67-2.3-5.14-4.73-7.61-7.25" fill="#E0E1E2"/><path d="M552 669h-2l-1 3c-2.33.91-2.33.91-5.25 1.62l-2.89.73-2.86.65-2.67.65C533 676 533 676 530 675q-2.44-.22-4.89-.32l-8.79-.37L509 674v-1l2.07-.03c23.86-.41 23.86-.41 34.36-4.23 2.7-.78 3.97-.72 6.57.26" fill="#E3E3E3"/><path d="M614 655h23v1l-20 1 2 7c.04 3.09.04 3.09-.24 6.15l-.3 3.35-.34 3.44A645 645 0 0 1 617 689h-1l-.08-2.15-.36-9.79-.12-3.38-.12-3.33-.11-3.03c-.26-4.12-.75-8.22-1.21-12.32" fill="#AEAEB0"/><path d="M495 40c.97 2.62 1.13 3.68.05 6.31-1.11 2.83-1.36 4.97-1.46 7.99l-.12 2.96-.09 3.05L493 71l-2 1c-2.77-21.91-2.77-21.91 3-31z" fill="#F0EFF1"/><path d="M758 226c2.21 2.21 2.68 2.94 3 6-.86 2.84-.86 2.84-2.19 5.94l-1.29 3.09A32 32 0 0 1 752 249c-2.13.64-2.13.64-4 1l1.68-3.22 3.3-6.39A56 56 0 0 0 758 226" fill="#E3E3E6"/><path d="M849 575c-5.68 1.93-10.72 2.31-16.69 2.25l-2.55.02h-2.46l-2.21-.01c-2.38-.3-4.02-1.08-6.09-2.26 5.43-1.33 10.75-1.03 16.31-.94 3.69-.06 3.69-.06 7.01-.62 3.03-.5 4.16-.09 6.68 1.56" fill="#EDEFF1"/><path d="M493 67h1c1.91 22.79 1.91 22.79 0 33-2.1-3.15-2.22-3.7-2.06-7.25.11-2.85-.02-5.25-.49-8.08-.49-3.96-.15-7.18.49-11.11l.59-3.74z" fill="#E2E3E4"/><path d="m844 619 1 2a47 47 0 0 1-11.39 1.1l-3.65-.01-3.77-.03-3.84-.01L813 622l-1-2 10.94-.5 3.09-.14q8.99-.42 17.97-.36" fill="#F1F3F4"/><path d="M745 634c4.63.48 6.83 2.23 10.19 5.38l2.6 2.39C760 644 760 644 762 647l-1 3h-2c-1.23-1.57-1.23-1.57-2.62-3.69-2.8-3.91-5.6-6.01-9.84-8.2L745 637z" fill="#E9E9EC"/><path d="M495 208h4l1 30c-3.67-3.67-3.16-9.33-3.5-14.31q-.57-7.86-1.5-15.69" fill="#E4E2E4"/><path d="m759 197 2 1 1 29-3 1z" fill="#EEEFEE"/><path d="M440 488h1l-1 27-3-2a60 60 0 0 1 2-24z" fill="#EDF0ED"/><path d="M499 640c0 3.56-.67 4.09-2.81 6.81-4.1 5.86-5.06 12.24-6.19 19.19h-1c-1.4-7.28-1.24-12.31 2.45-18.83 2.18-3.06 4.47-5.02 7.55-7.17" fill="#EBECED"/><path d="m494 648 2 3-1 1q-.14 2.9-.12 5.81l-.01 3.21c.11 2.54.26 4.61 1.13 6.98l2 1-3 1c-3.51-4.28-4.57-7.2-4.34-12.74.52-3.46 1.75-6.15 3.34-9.26" fill="#242627"/><path d="M487 401h1q.08 6.18.12 12.38l.06 3.56.02 3.4.03 3.14C488 426 488 426 486 428c-2.17-20.01-2.17-20.01 1-27" fill="#F0F3F5"/><path d="M564 662v7l-5 1v-2l-2.31.94q-2.82 1.1-5.69 2.06c0-3 0-3 2-5a68 68 0 0 1 3.94-2.12l2.09-1.08c1.97-.8 1.97-.8 4.97-.8" fill="#E3E3E6"/><path d="m799 618 36 1v1l-2 .08-9.06.36-3.15.12c-8.68.36-8.68.36-12.79 1.03-3.99.54-6.25-.29-10-1.59z" fill="#C9CCCD"/><path d="m750 249 1 3-2.06 1.62a214 214 0 0 0-8.39 7.21C739 262 739 262 737 262l-.88 1.94C735 266 735 266 733 267c1.45-5.16 4.62-7.81 8.5-11.25l1.8-1.64c4.37-3.94 4.37-3.94 6.7-5.11" fill="#EDEEEF"/><path d="M708 684h2c2.28 7.36 3.69 12.64 1 20h-3l.5-1.94A49 49 0 0 0 708 684" fill="#EEF1EF"/><path d="M615 656h22l-2 4-3-1q-4.81-.34-9.64-.52c-5.15-.27-5.15-.27-7.36-2.48" fill="#EFEFF0"/><path d="M440 497h1v28h-3c-.12-6.62-.12-6.62 1-10q.21-2.12.32-4.23l.12-2.43.12-2.53.13-2.56z" fill="#CED0CD"/><path d="m875 434 1 2c-8.05.15-15.98-.29-24-1 7.2-3.94 15.33-3.6 23-1" fill="#F1F3F5"/><path d="M946 511c1.93 1.62 2.91 2.47 3.33 5.01-.22 5.88-.22 5.88-1.33 6.99q-.58 2.52-1.06 5.06l-.54 2.79-.4 2.15h-1c-.15-7.39.29-14.64 1-22" fill="#F3F3F5"/><path d="M758 443a19 19 0 0 1 2.5 7.19l.5 2.81 2 1v2l-7 2c.96-10.56.96-10.56 2-15" fill="#CCCECF"/><path d="M635 689c2 3 2 3 3.44 6.38A60 60 0 0 0 643 704c-2.25-.06-2.25-.06-5-1-3.21-4.42-4.66-7.42-4-13z" fill="#E7E9EA"/><path d="M693 668c4.15 1.37 6.62 3.22 9.69 6.31l2.32 2.3c2 2.41 3.01 4.44 3.99 7.39l-2 1-1-1.76c-3.75-6.16-7.74-9.69-14-13.24z" fill="#E0E0E3"/><path d="m733 263 1 2c-1.15 3.45-1.83 3.84-4.81 5.69l-2.08 1.32C725 273 725 273 721 273v5h-1c-.41-2.7-.41-2.7 0-6a41 41 0 0 1 6.5-4.88l1.88-1.21q2.3-1.48 4.62-2.91" fill="#E5E6E8"/><path d="M945 501c3 3 3 3 3.12 5.94L948 510c.5 2.38.5 2.38 1 4l-2 1c-.41 1.85-.41 1.85-.62 4.06L946 523h-1z" fill="#DFDFE1"/><path d="M760 429h1l1.06 5.31.6 2.99c.34 2.7.34 2.7-.66 5.7l-1 4h-2c-.1-6.11-.07-11.97 1-18" fill="#E6E5E7"/><path d="m560 653 1 3h2l1 5c-3 2-3 2-7 2l1-7h2z" fill="#07080A"/><path d="M739 31c5.5-.34 9.14.39 14 3a47 47 0 0 1 5 5c-5.6-1.65-5.6-1.65-7.81-3.56-3.43-2.25-7.17-2.19-11.19-2.44z" fill="#212123"/><path d="M751 626c-1.65 3.58-3.78 6.75-6 10l-5-1v-2c1.9-1.73 1.9-1.73 4.38-3.62l2.46-1.92C749 626 749 626 751 626" fill="#DDDEDD"/><path d="M810 496h1l.18 3.73.26 4.89.12 2.45c.18 3.53.43 6.85 1.1 10.33.34 2.6.34 2.6-1.66 5.6-1-1-1-1-1.11-3.5l.01-3.29.01-3.54.03-3.73.01-3.75z" fill="#C1C4C2"/><path d="M896 493h2q1.55 2.87 3.06 5.75l1.73 3.23c1.22 3.05 1.46 4.07.21 7.02v-3l-3-1c-1.17-1.96-1.17-1.96-2.19-4.38l-1.04-2.39C896 496 896 496 896 493" fill="#D3D4D7"/><path d="M494 94h1v22h-1l-1-4.69-.56-2.63c-.89-5.42-.08-9.45 1.56-14.68" fill="#F0F1F1"/><path d="M529 38c4.11 1.45 7.5 3.4 11 6v2c-5.03-.46-8.15-2.99-12-6z" fill="#EBEEEB"/><path d="m511.13 32.44 2.75.3 2.13.26v1l-2.42.26C506.8 35.16 502.75 36 498 41l-2 2c.56-3.53 1.68-4.95 4.44-7.18l1.87-1.55c3.2-2.4 4.9-2.28 8.81-1.83" fill="#E3E4E6"/><path d="m745 28 3 3-16 2 1-3q2.9-.62 5.81-1.19l3.27-.67z" fill="#F1F2F2"/><path d="M758 85c2.03 3.05 2.25 3.6 2.2 7.01l-.02 2.3-.06 2.38-.02 2.41-.1 5.9c-3.04-3.33-3.36-5.55-3.25-10l.05-3.12c.17-2.45.5-4.55 1.2-6.88" fill="#1C201D"/><path d="M506 35c-1.03 2.58-1.51 3.76-4.06 5-1.94 1-1.94 1-2.69 3.12L499 45l-4 1c1.23-4.66 5.69-11 11-11" fill="#1D1D1F"/><path d="M509 673h27l-1 3-2.18-.48a57 57 0 0 0-7.9-.84l-2.82-.12-2.91-.12-2.97-.13L509 674z" fill="#B0B1B0"/><path d="M823 576v1l-6.12.06-3.45.04A58 58 0 0 1 804 576v-1c6.8-1.65 12.45-1.14 19 1" fill="#D9DADC"/><path d="M880 609v3c-9.41 3.63-9.41 3.63-14 2a27 27 0 0 1 7.56-3.62l2.38-.79C878 609 878 609 880 609" fill="#D3D7D4"/><path d="m545 683 2 1-2 5 2 1-2 10h-1q-.33-2.84-.62-5.69l-.36-3.2c-.02-3.25.57-5.21 1.98-8.11" fill="#1F1F23"/><path d="M947 528h1c-.51 4.97-1.23 9.29-3 14h-2c-.24-6.22.63-8.94 4-14" fill="#E8E9EB"/><path d="M760 665h1c.36 4.48.36 4.48-1.19 6.69-2.15 1.56-4.31 2.43-6.81 3.31v-2l-4-1 3.25-.69c4.14-1.45 5.33-2.77 7.75-6.31" fill="#D8DCD8"/><path d="M806 540h3a371 371 0 0 1-1.27 7.52c-.78 2.66-1.62 3.74-3.73 5.48-1.18-3.55-.7-4.7.44-8.19l.87-2.73z" fill="#ECEDEC"/><path d="M490 663q2.52 2.51 5 5.06c2 1.94 2 1.94 5 3.94l-6 1c-4-5.5-4-5.5-4-10" fill="#D9DCDD"/><path d="M853 617c1.88 1.5 1.88 1.5 3 3-6.07 1.08-10.1.79-16-1v-1c8.7-1.39 8.7-1.39 13-1" fill="#D4D5D7"/><path d="m469 455 5.31-.06 2.99-.04c2.7.1 2.7.1 5.7 1.1v2h-10v-2z" fill="#222626"/><path d="m824.31 573.75 2.36-.08c2.84.4 4.2 1.48 6.33 3.33l-4.75.13-2.67.07A13.3 13.3 0 0 1 819 575c1.57-1.57 3.14-1.21 5.31-1.25" fill="#F4F4F7"/><path d="M901 506h2c1 3.01 1.1 5.04 1.06 8.19l-.02 2.73L904 519h-2l-.5-4.25-.28-2.39C901 510 901 510 901 506" fill="#F1F3F5"/><path d="m493 364 2 1c-.88 7.75-.88 7.75-2 10l-3-1 .94-4.44.52-2.49C492 365 492 365 493 364" fill="#EEEEF1"/><path d="m731 32 4 2-11 6c1-4 1-4 4.06-6.25z" fill="#E1E1E3"/><path d="m558.38 669.19 1.62.8c-3.62 2.76-7.3 5.38-11 8 .63-3.48 1.1-4.1 3.82-6.8 3.17-2.2 3.17-2.2 5.55-2" fill="#CFCDD8"/><path d="M942 491c1.94 1.06 1.94 1.06 4 3 .75 3.69.75 3.69 1 7h-2l-1 3-1-4.25-.56-2.39C942 495 942 495 942 491" fill="#EEEEF0"/><path d="m850 473 15 1c-3.99 1.99-5.47 2.23-9.75 2.12l-2.98-.05L850 476z" fill="#DFDEE2"/><path d="M489 440c2.14 3.2 2.23 4.02 2.12 7.69l-.05 2.45L491 452c-2-1-2-1-3.12-3.81C487 445 487 445 487 441z" fill="#EBEEEC"/><path d="M517 260c4.59 1.49 7.44 3.85 11 7l-1 2q-2-1.17-4-2.38l-2.25-1.33L519 264v-2h-2z" fill="#E4E7E4"/><path d="m746 247 2 4-7 6c0-5.3 1.54-6.19 5-10" fill="#212323"/><path d="m749.31 623.69 2.7.3c-5.32 5.76-5.32 5.76-9 6q-1-.48-2-1c4.17-4.91 4.17-4.91 8.3-5.3" fill="#1B1E1C"/><path d="M803.63 571.81c.4.1.4.1 2.4.52 1.98.67 1.98.67 2.98 2.67-8.2.47-8.2.47-11.58-1.5l-1.42-1.5c3.23-1.08 4.38-.92 7.62-.19" fill="#EDEDF0"/><path d="M490 421h2q.33 2.68.62 5.38l.36 3.02.02 2.6-2 2c-2-2-2-2-2.19-5.94A20 20 0 0 1 490 421" fill="#202223"/><path d="m558 672-1 3-4 2-1 3-5 1 2.81-3.38 1.58-1.89c2.01-2.16 3.56-3.73 6.61-3.73" fill="#1B1927"/><path d="m721 273 3 1-.06 2.31C724 279 724 279 725 282l-3 1c-1.61-3.21-1.06-6.44-1-10" fill="#EEF1ED"/><path d="m932 567 2 2-6 7-1-4c2.44-2.75 2.44-2.75 5-5" fill="#E9E9ED"/><path d="M875 564v2c-6.4 4.06-6.4 4.06-9.44 3.75L864 569c7.5-5 7.5-5 11-5" fill="#DCDDDC"/><path d="M633 676h1l1 14h-3z" fill="#F1F2F4"/><path d="M796 567h4l-2 7h-4z" fill="#D9D9DA"/><path d="m896 539 2 3-5 8c-1.19-4.78-.38-5.88 2-10z" fill="#DDDFE1"/><path d="M762 424c2 2 2 2 2.31 5l-.31 3-3 2-.06-4.44-.04-2.49c.1-2.07.1-2.07 1.1-3.07" fill="#F3F4F3"/><path d="M614 695h1c.25 5.62.25 5.62-2 9l-4-1 2.44-4 1.37-2.25z" fill="#DDE0DE"/><path d="M902 519h2l-1 12h-1c-2.22-7.38-2.22-7.38-1.12-10.5z" fill="#E2E5E5"/><path d="M881 479c6.75 2.62 6.75 2.62 9 6-4.68 0-5.7-.88-9-4z" fill="#E3E3E5"/><path d="m479 454-4.75 1-2.67.56C469 456 469 456 465 456v-2q2.66-.58 5.31-1.12l2.99-.64C476 452 476 452 479 454" fill="#EAEDEE"/><path d="M619 691c-.62 5.54-.62 5.54-2.56 7.88L615 700v-8c2-1 2-1 4-1" fill="#EAECEE"/><path d="M552 669h-2l-1 3c-1.88.88-1.88.88-4 1-1.75-1.44-1.75-1.44-3-3 6.29-2.43 6.29-2.43 10-1" fill="#D6D5D8"/><path d="M807 531h2a41 41 0 0 1 1 6l-2 3h-2z" fill="#D6DAD9"/><path d="M763 454v2l-7 2v-4c3.13-1.04 3.99-.93 7 0" fill="#D2D5D5"/><path d="M635 689c2.43 3.64 2.16 5.71 2 10-1.5-1.12-1.5-1.12-3-3-.25-3.12-.25-3.12 0-6z" fill="#E1E3E5"/><path d="M466 456c-2.65 2.65-5.56 3.6-9 5v-3c5.62-3.12 5.62-3.12 9-2" fill="#DEDEE1"/><path d="m762 659 3 3-3 7h-1z" fill="#F2F6F2"/><path d="M889 607c-2.99 1.99-5.6 2.94-9 4 1-3 1-3 2.81-4.25 2.53-.87 3.71-.63 6.19.25" fill="#E3E2E4"/><path d="M758 423h1l1 13c-3-3-3-3-3.07-5.48l.38-2.71.37-2.73z" fill="#1E1D1D"/><path d="m510 320 2 4c-1.38 3.25-1.38 3.25-3 6l-2-1z" fill="#DBDBDE"/><path d="M526 288h1c.37 5.54.37 5.54-1.5 7.88L524 297c-.69-1.69-.69-1.69-1-4 1.38-2.75 1.38-2.75 3-5" fill="#EDEDF1"/><path d="m725 269 3 2c-3 2-3 2-7 2v5h-1c-.31-2.81-.31-2.81 0-6 2.5-1.88 2.5-1.88 5-3" fill="#D6D8D7"/><path d="M510 252q1.76 1.4 3.5 2.81l1.97 1.58C517 258 517 258 517 261l-3.5-2.81-1.97-1.58C510 255 510 255 510 252" fill="#D3D7D3"/><path d="M711 696c.98 3.05.98 4.95 0 8h-3c.55-3.37 1.05-5.08 3-8" fill="#E6E9E6"/><path d="M541 691h1v9h-3a154 154 0 0 1 2-9" fill="#F2F2F5"/><path d="m483 453 1 3-12-1v-1c3.73-.57 7.21-1 11-1" fill="#D4D6D6"/><path d="M504 247c1.88.31 1.88.31 4 1l2 3-1 3a139 139 0 0 1-5-5z" fill="#E2E5E3"/><path d="M542 692h1l1 12h-3z" fill="#AEAEB1"/><path d="m477 602 7 6-2 2c-5-5.75-5-5.75-5-8" fill="#E4E7E6"/><path d="M466 589c3.41 1.14 4.12 2.04 6 5v2c-2.99-1.1-3.85-1.68-5.25-4.62z" fill="#D7DBD8"/><path d="m942 540 3 3c-1 3-1 3-3.06 4.19L940 548z" fill="#D4D7D8"/><path d="m689 64 2 1v2h-3v3h-3c.31-1.88.31-1.88 1-4z" fill="#1B1C1E"/><path d="M509 31h9v3c-6.15-.59-6.15-.59-8-1z" fill="#F0F2F3"/><path d="m511.13 32.44 2.75.3 2.13.26v1l-11 1-1-2c2.62-1.31 4.23-.9 7.12-.56" fill="#D4D8D9"/><path d="m780 615 8 1-3 1v2l-5-2z" fill="#E4E5E8"/><path d="M904 595h2c-.62 1.94-.62 1.94-2 4-3.12.75-3.12.75-6 1l2.44-1.94C903 596 903 596 904 595" fill="#DADADA"/><path d="m861 572 1 3-6 2v-3c3-2 3-2 5-2" fill="#292B2C"/><path d="m483 456 6 1v3l-7-1z" fill="#1C1E1C"/><path d="m765.69 455.38 2.3.62c-.32.5-.32.5-2 3l-6-2c3-2 3-2 5.7-1.62" fill="#27282C"/><path d="M490 375h3l-1 8c-1.74-2.61-2.5-4.01-3-7z" fill="#D6D6D8"/><path d="M759 41c2 3 2 3 1.75 5.62L760 49l-2 1c-.12-6.75-.12-6.75 1-9" fill="#292C28"/></svg>