<svg style="background:transparent" version="1.1" xmlns="http://www.w3.org/2000/svg" viewBox="0 0 1248 704"><path d="M753.98 31.78c6 3.61 9.69 6.94 11.6 13.84.78 4.38 1.46 9.3-.58 13.38q-.06 4.25 0 8.5c.14 8.23.14 8.23-1 10.5-.07 3.05 0 6.1.07 9.15C764 90 764 90 763 93c-.34 3.68-.43 7.37-.56 11.06l-.13 3.43c-.37 11.05-.37 22.1-.27 33.15.05 6.94-.08 13.8-.54 20.72-.77 12.1-.57 24.21-.5 36.33l.09 17.05c.03 7.21-.17 13.56-3.1 20.26l-.67 2.7A45.5 45.5 0 0 1 741 258h-2l-.7 1.77c-1.64 2.81-3.48 4.04-6.17 5.85l-2.62 1.8A58 58 0 0 1 723 271c-.68 7.28 3.45 14.2 6.69 20.5l2.13 4.21 1.09 2.15c7.5 14.76 14.84 29.4 20.09 45.14l1.5 3.81a64 64 0 0 1 2.98 11.11c.52 2.08.52 2.08 1.55 4.14.97 1.94.97 1.94 1.4 5.2.65 4.28 2 7.7 3.57 11.74v2c1.5 1.62 1.5 1.62 3 3l-3 2 1 10 3-3c2.2-.62 2.2-.62 4.69-.88l2.45-.3c7.13.45 13.9 4.54 20.24 7.62 16.2 7.77 16.2 7.77 23.62 9.56l6 2 4.63 1.37c4.99 1.48 9.9 3.15 14.8 4.86 2.57.77 2.57.77 5.57.77l5 3 2.8.92a65 65 0 0 1 9.2 4.02l6 3.06q1.5.74 3.06 1.48A69 69 0 0 1 894 444l2.32 1.31c5.38 3.38 9.96 7.93 12.68 13.7l2.32 2.68c7.78 9.13 11.48 20.95 14.68 32.31l1.05 3.22c1.1 4.41 1.45 8.56 1.64 13.1l.12 2.53c.33 8.23-.08 15.34-2.81 23.15v2.56c0 2.93-.82 4.76-2 7.44l-.93 2.94A67 67 0 0 1 919 558l-.94 1.98A49 49 0 0 1 911 571l-2 3.2c-2.02 2.83-3.01 3.36-6 4.8l-.43 1.81c-.87 3.36-3.02 4.94-5.57 7.2q-1.49.48-3 1a262 262 0 0 0-5 5c-5.32 4.65-10.67 7.9-17 11l-2.93 1.5c-27.53 13.47-65.4 16.9-95.17 8.93-1.77-.44-1.77-.44-4.9-.44a37 37 0 0 0-5.52 4.65C762 621 762 621 760 621l-.64 1.7c-1.82 3.1-4.18 4.83-6.98 7.05l-3.04 2.42L747 634l3 2c6.44 5.25 11.68 9.78 14 18l1 3c.6 3.73.54 6.11-1.42 9.4-5.76 7.63-10.35 9-19.58 10.3-13.55 1.88-24.55.5-37.5-3.89-2.5-.8-2.5-.8-5.5-.8l1 3 1.82.74c4.06 2.32 5.6 6.93 7.43 11.06 1.46 6.18 1.6 11.48-1.25 17.2h-73c-2.66-6.66-4.06-12.9-5-20l-.62-2.64c-.44-2.76.06-4.64.62-7.37q.3-2.9.57-5.8l.43-5.2h-14l.5 3.94c.53 4.7.59 9.33.5 14.06q0 3.06.19 6.12c-.3 6.05-1.81 12.46-6.2 16.88-3.11.5-3.11.5-7 .5l-2.15.02q-3.5.02-7.03-.03l-4.88.01q-5.12 0-10.23-.03-6.57-.04-13.13-.02h-10.08q-2.42-.03-4.85 0-3.37-.01-6.76-.05H544l-3-.4c-2.52-3.78-2.57-6.63-2-11 2.53-10.4 9.74-17.6 18-24l-2.34 1.06c-6.01 2.62-11.12 4.46-17.66 4.94l-3 1c-30.72 2.75-30.72 2.75-40-3l-1-3-2-.83-2-1.17c-.68-2.65-.68-2.65-.87-5.8l-.24-3.16c.12-3.18.76-5.19 2.1-8.04q.64-1.45 1.26-2.94c3.15-5.5 7.24-9 12.75-12.06l2-2v-2l-2.43-.5c-6.67-2.8-11.52-8.43-16.57-13.5l-1.5-1.44c-1.5-1.56-1.5-1.56-3.31-3.94a35 35 0 0 0-5.37-5.25C474 605 474 605 473 602a179 179 0 0 0-3.4-3.35c-5.1-5.26-9.62-10.95-12.6-17.65l-1.85-3.22c-6.26-10.85-11.5-22.3-13.15-34.78l-.96-2.75a57 57 0 0 1-2.1-10.56l-.25-2.02-.7-5.67-.33-2.49c-1.12-8.37-1.51-17.24.34-25.5l.25-3.07c1.72-12.12 9.09-23.5 18.35-31.2 9.36-6.76 19.68-6.9 30.86-5.22l2.54.48-.4-1.9-.53-2.6c-.1-.42-.1-.42-.53-2.53-1.4-7.68-2-15.46-2.66-23.22l-.3-3.26-.27-3.13-.25-2.83c-.05-2.43.28-4.22.94-6.53a90 90 0 0 0 0-4.94c-.03-3.54.2-6.6 1-10.06q.24-2.19.44-4.38c.42-4.04 1.43-7.7 2.56-11.62l.66-5.96c.47-2.8 1.44-5.28 2.53-7.89.8-2.15.8-2.15 1.75-5.45 1.4-4.89 3.18-9.62 4.94-14.4 1.12-3.3 1.12-3.3 1.59-5.79.72-3.38 2.13-6.38 3.53-9.5l1.69-3.98 1.75-4.09.87-2.07A67 67 0 0 1 516 307q1-1.78 1.88-3.63 1.78-3.7 3.67-7.38l1.64-3.18 1.54-2.98A31 31 0 0 0 527 282l1.5-2.94A26 26 0 0 0 531 270l-1.67-.25c-5.18-1.68-9.25-6.26-13.33-9.75l-2.72-2.3c-4.65-4.03-4.65-4.03-6.28-5.7v-2l-1.8-.6c-3.11-1.98-3.85-4.25-5.32-7.59l-1.51-3.35c-2.88-7.29-3.92-14.08-4.5-21.84l-.25-3.45c-.85-12.9-.76-25.8-.63-38.73.07-8.45-.06-16.75-.76-25.18-.38-5.53-.3-11.04-.23-16.57.08-6.68.08-13.19-.77-19.82a47 47 0 0 1-.23-6.93 178 178 0 0 0-1.5-26c-.71-5.64-1.1-11.27-1.38-16.94a236 236 0 0 0-.43-5.92c-.4-8.03.43-13.27 5.24-19.83 3.79-4.1 7.8-6.5 13.07-8.25 10.25-.09 18.08 3.86 26 10a130 130 0 0 0 13 9c3.02 1.97 6 4 9 6l3.19 2.12 5.5 3.7c3.84 2.52 7.73 4.96 11.63 7.4C577 69 577 69 579.12 71.08c3.96 2.63 6.97 2.45 11.62 2.36h2.63q4.3-.02 8.6-.09l5.99-.05 12.54-.15q8.03-.12 16.07-.14 6.18-.04 12.36-.13l5.92-.05q4.15-.01 8.29-.1h2.46c5.83-.16 8.25-1.66 12.4-5.73q2.45-1.57 5-3a77 77 0 0 0 8.88-5.94A90 90 0 0 1 703 51q2.03-1.47 4-3a222 222 0 0 1 13.25-8.3 91 91 0 0 0 4.72-3.08c9.94-6.96 17.7-10.9 29-4.84M562 665l-2 2h3zm129 1 1 2 2-1z" fill="#151715"/><path d="M777.56 394.26c5.47 1.18 10.06 3.77 14.94 6.39 13.6 7.26 28.22 12.02 42.93 16.4 14.34 4.3 28.46 9.67 41.57 16.95l2.71 1.5c8.06 4.8 14.65 10.95 21.3 17.5l2.27 2.2c17.45 18.12 22.16 41.95 21.93 66.13-.16 7.26-.99 13.72-3.2 20.67q-.56 1.76-1.1 3.56c-9.15 27.4-28.64 46.39-54.07 59.18-17.53 8.44-36.25 10.78-55.49 10.65q-4.18-.01-8.35.02c-11.18.02-22.15-.53-33-3.41l-2-2 2.24-1.64c2.9-2.48 4.8-4.96 6.94-8.11q1.84-2.68 3.82-5.25h2l.72-2.02a85 85 0 0 1 5.78-10.67l1.22-2.04c1.6-2.66 3.07-5.06 5.28-7.27 2.9-.28 2.9-.28 6.6-.34l1.98-.05 6.36-.11c20.53-.31 40.72-3.53 56.37-18.25 11.62-12.53 16.11-26.7 15.97-43.55-1.18-15.52-9.3-27.22-20.3-37.6-13.66-11.5-32.56-17.47-49.47-22.26-16.05-4.56-38.27-11.77-47.76-26.7-1.44-4.11-1.48-8.4-1.6-12.74-.15-3.4-.15-3.4-.8-6.6-.35-2.8-.35-2.8.44-4.92 3.95-4.97 7.48-6.01 13.77-5.62" fill="#121513"/><path d="M763 420h2a68 68 0 0 1 2.31 3.94c10.77 16.52 35.08 22.73 52.71 28.19 15.93 4.94 32.36 10.6 44.98 21.87l2.11 1.87c9.22 8.64 16.35 21.36 17.06 34.2.1 18.26-4.61 31.42-17.05 44.98-15.3 14.98-35.19 18.14-55.62 18.01l-4.23-.01L797 573a40 40 0 0 1 3.32-10.21c11.05-24.29 15.94-59.06 6.61-84.72-4.11-8.92-9.73-15.45-18.93-19.07l-2.75-1.25c-9.76-2.25-18.09-.39-27.25 3.25l.24-1.93q2.48-19.53 4.76-39.07" fill="#ECEDEF"/><path d="M753.98 31.78c6 3.61 9.69 6.94 11.6 13.84.78 4.38 1.46 9.3-.58 13.38q-.06 4.25 0 8.5c.14 8.23.14 8.23-1 10.5-.07 3.05 0 6.1.07 9.15C764 90 764 90 763 93c-.34 3.68-.43 7.37-.56 11.06l-.13 3.43c-.37 11.05-.37 22.1-.27 33.15.05 6.94-.08 13.8-.54 20.72-.77 12.1-.57 24.21-.5 36.33l.09 17.05c.03 7.21-.17 13.56-3.1 20.26l-.67 2.7A45.5 45.5 0 0 1 741 258h-2l-.7 1.77c-1.64 2.81-3.48 4.04-6.17 5.85l-2.62 1.8A58 58 0 0 1 723 271c-.68 7.28 3.45 14.2 6.69 20.5l2.13 4.21 1.09 2.15c7.5 14.76 14.84 29.4 20.09 45.14l1.5 3.81a64 64 0 0 1 2.98 11.11c.52 2.08.52 2.08 1.55 4.14.97 1.94.97 1.94 1.4 5.2.65 4.28 2 7.7 3.57 11.74v2c1.5 1.62 1.5 1.62 3 3l-3 2 1 10 3-3c2.2-.62 2.2-.62 4.69-.88l2.45-.3c7.13.45 13.9 4.54 20.24 7.62 16.2 7.77 16.2 7.77 23.62 9.56l6 2 4.63 1.37c4.99 1.48 9.9 3.15 14.8 4.86 2.57.77 2.57.77 5.57.77l5 3 2.8.92a65 65 0 0 1 9.2 4.02l6 3.06q1.5.74 3.06 1.48A69 69 0 0 1 894 444l2.32 1.31c5.38 3.38 9.96 7.93 12.68 13.7l2.32 2.68c7.78 9.13 11.48 20.95 14.68 32.31l1.05 3.22c1.1 4.41 1.45 8.56 1.64 13.1l.12 2.53c.33 8.23-.08 15.34-2.81 23.15v2.56c0 2.93-.82 4.76-2 7.44l-.93 2.94A67 67 0 0 1 919 558l-.94 1.98A49 49 0 0 1 911 571l-2 3.2c-2.02 2.83-3.01 3.36-6 4.8l-.43 1.81c-.87 3.36-3.02 4.94-5.57 7.2q-1.49.48-3 1a262 262 0 0 0-5 5c-5.32 4.65-10.67 7.9-17 11l-2.93 1.5c-27.53 13.47-65.4 16.9-95.17 8.93-1.77-.44-1.77-.44-4.9-.44a37 37 0 0 0-5.52 4.65C762 621 762 621 760 621l-.64 1.7c-1.82 3.1-4.18 4.83-6.98 7.05l-3.04 2.42L747 634l3 2c6.44 5.25 11.68 9.78 14 18l1 3c.6 3.73.54 6.11-1.42 9.4-5.76 7.63-10.35 9-19.58 10.3-13.55 1.88-24.55.5-37.5-3.89-2.5-.8-2.5-.8-5.5-.8l1 3 1.82.74c4.06 2.32 5.6 6.93 7.43 11.06 1.39 5.9 1.87 11.82-1.25 17.2h-2l.14-3.23c.32-10.2-.23-16.66-7.26-24.47-4.05-3.85-8.8-6.09-13.88-8.3v-8a36 36 0 0 1 8.63 4.36c11.54 7.36 24.54 8.98 37.94 8.88l3.24.02c7.49-.02 14.69-.2 21.26-4.08 3.14-5.18 2.82-10.3 1.93-16.19-2.41-6.42-7.27-11.14-13.38-14.19q-3.3-1.48-6.62-2.8v-2a124 124 0 0 1 5.75-3.95c7.85-5.22 14.6-11.4 21.25-18.06 4.78-.3 8.88-.08 13.53 1 8.96 1.66 18.08 1.44 27.16 1.44h2.9c21.18-.04 40.44-2.46 59.4-12.44l1.86-.95c21.18-10.99 39.1-29.24 47.15-52.05a238 238 0 0 0 4-16l.54-2.36c.9-5.16.69-10.4.7-15.64l.08-3.5c.05-11.13-1.9-21.5-6.57-31.63l-.92-2.03c-8.88-19.16-24.32-35.5-43.4-44.78l-2.12-1.04q-3.15-1.52-6.31-3.02l-3.23-1.57c-8.67-3.96-17.63-6.6-26.73-9.33a371 371 0 0 1-41.8-15.67 72 72 0 0 1-8.8-4.6c-5.13-2.73-9.76-2.8-15.44-1.83-2.32 1.44-3.33 2.77-5 5h-2l-.26-3.42c-2.75-32.32-13.97-62.92-28.74-91.58-4.17-8.14-8.26-16.2-11.56-24.75l-.8-2.03c-.92-2.47-1.62-4.73-1.7-7.38 1.75-3.04 4.64-4.64 7.5-6.53 13.99-9.62 24.65-19.62 29.56-36.3a89 89 0 0 0 1.18-15.05l.02-2.34.03-5.04.07-8.09.09-11.52c.44-54.8.44-54.8 1.6-79.9q.09-1.34.14-2.74.54-11.31 1.28-22.59.81-12.13.9-24.3l.09-3.65c.05-6.82-.13-11.35-4.4-16.79-4.4-3.9-10.24-4.87-15.97-4.63-4.9 1.02-8.9 3.42-13.06 6.1L726 39.7l-2.01 1.3-1.9 1.2a959 959 0 0 0-24.05 15.86l-2.22 1.51-8.93 6.12-6.67 4.56-2.03 1.4c-6.02 4.1-10.38 4.5-17.54 4.58l-2.54.04q-13.19.17-26.36.23-6.23.04-12.47.15-7.55.12-15.11.14-2.87.01-5.73.08c-12.43.24-19.72-.59-29.45-8.88q-1.9-1.32-3.85-2.57a4074 4074 0 0 1-26-17.42l-4.34-2.93-6.43-4.33q-.95-.65-1.94-1.3C519.7 34.94 513.3 31.67 505 33c-5.61 2.05-9.03 5.78-12.1 10.8-4.56 11.12-.08 29.9.75 41.7 2.1 30.45 2.56 60.9 2.88 91.4q.07 7.44.17 14.9l.06 6.81c.4 37.04.4 37.04 12.24 51.4q.7.83 1.4 1.7c6.66 7.24 15.45 12.86 23.6 18.3-1.57 14.2-9.5 27.41-16.01 39.93-23.5 45.23-33.44 93.04-24.35 143.57.36 2.5.36 2.5.36 6.5l-2.23-.67c-10.41-2.85-19.73-3.94-29.77.66-10 5.77-14.95 14.04-18.42 24.76-7.9 30.58.78 67.92 16.3 94.8A169 169 0 0 0 514 635a346 346 0 0 1-6.11 3.01 35.3 35.3 0 0 0-15.32 14.43c-1.1 5-1.35 9.66.62 14.43 3.69 4.33 7.3 5.44 12.8 6.13 19.32.94 38.56-.68 55.38-11.08C563 661 563 661 565 661v8l-2.01.95c-8.37 4.06-13.56 7.76-18 16.05-1.2 3.62-1.1 6.92-1.05 10.7v2.11l.06 5.2h-3c-2.52-3.79-2.57-6.64-2-11 2.53-10.42 9.74-17.62 18-24l-2.34 1.05c-6.01 2.62-11.12 4.46-17.66 4.94l-3 1c-30.72 2.75-30.72 2.75-40-3l-1-3-2-.83-2-1.17c-.68-2.65-.68-2.65-.87-5.8l-.24-3.16c.12-3.18.76-5.19 2.1-8.04q.64-1.45 1.26-2.94c3.15-5.5 7.24-9 12.75-12.06l2-2v-2l-2.43-.5c-6.67-2.8-11.52-8.43-16.57-13.5l-1.5-1.44c-1.5-1.56-1.5-1.56-3.31-3.94a35 35 0 0 0-5.37-5.25C474 605 474 605 473 602a179 179 0 0 0-3.4-3.35c-5.1-5.26-9.62-10.95-12.6-17.65l-1.85-3.22c-6.26-10.85-11.5-22.3-13.15-34.78l-.96-2.75a57 57 0 0 1-2.1-10.56l-.25-2.02-.7-5.67-.33-2.49c-1.12-8.37-1.51-17.24.34-25.5l.25-3.07c1.72-12.12 9.09-23.5 18.35-31.2 9.36-6.76 19.68-6.9 30.86-5.22l2.54.48-.4-1.9-.53-2.6c-.1-.42-.1-.42-.53-2.53-1.4-7.68-2-15.46-2.66-23.22l-.3-3.26-.27-3.13-.25-2.83c-.05-2.43.28-4.22.94-6.53a90 90 0 0 0 0-4.94c-.03-3.54.2-6.6 1-10.06q.24-2.19.44-4.38c.42-4.04 1.43-7.7 2.56-11.62l.66-5.96c.47-2.8 1.44-5.28 2.53-7.89.8-2.15.8-2.15 1.75-5.45 1.4-4.89 3.18-9.62 4.94-14.4 1.12-3.3 1.12-3.3 1.59-5.79.72-3.38 2.13-6.38 3.53-9.5l1.69-3.98 1.75-4.09.87-2.07A67 67 0 0 1 516 307q1-1.78 1.88-3.63 1.78-3.7 3.67-7.38l1.64-3.18 1.54-2.98A31 31 0 0 0 527 282l1.5-2.94A26 26 0 0 0 531 270l-1.67-.25c-5.18-1.68-9.25-6.26-13.33-9.75l-2.72-2.3c-4.65-4.03-4.65-4.03-6.28-5.7v-2l-1.8-.6c-3.11-1.98-3.85-4.25-5.32-7.59l-1.51-3.35c-2.88-7.29-3.92-14.08-4.5-21.84l-.25-3.45c-.85-12.9-.76-25.8-.63-38.73.07-8.45-.06-16.75-.76-25.18-.38-5.53-.3-11.04-.23-16.57.08-6.68.08-13.19-.77-19.82a47 47 0 0 1-.23-6.93 178 178 0 0 0-1.5-26c-.71-5.64-1.1-11.27-1.38-16.94a236 236 0 0 0-.43-5.92c-.4-8.03.43-13.27 5.24-19.83 3.79-4.1 7.8-6.5 13.07-8.25 10.25-.09 18.08 3.86 26 10a130 130 0 0 0 13 9c3.02 1.97 6 4 9 6l3.19 2.12 5.5 3.7c3.84 2.52 7.73 4.96 11.63 7.4C577 69 577 69 579.12 71.08c3.96 2.63 6.97 2.45 11.62 2.36h2.63q4.3-.02 8.6-.09l5.99-.05 12.54-.15q8.03-.12 16.07-.14 6.18-.04 12.36-.13l5.92-.05q4.15-.01 8.29-.1h2.46c5.83-.16 8.25-1.66 12.4-5.73q2.45-1.57 5-3a77 77 0 0 0 8.88-5.94A90 90 0 0 1 703 51q2.03-1.47 4-3a222 222 0 0 1 13.25-8.3 91 91 0 0 0 4.72-3.08c9.94-6.96 17.7-10.9 29-4.84M562 665l-2 2h3zm129 1 1 2 2-1z" fill="#E2E3E4"/><path d="M578 496c3.41 1.14 4.2 2.15 6.44 4.88a31 31 0 0 0 5.78 5.75L592 508v2l1.52.72c2.07 1.07 4.05 2.19 6.05 3.37 14.35 8.44 14.35 8.44 21.43 8.91l2.45.17c2.54.08 5.01 0 7.55-.17l2.07-.14c14.25-2.08 28.57-13.69 37.13-24.69L672 496h2a28.5 28.5 0 0 1-3.94 11.69l-1.59 2.82q-1.66 2.79-3.47 5.49h-2l-.72 1.75c-4.18 7.33-13.67 12.21-21.28 15.25h-2l.18 1.97a577 577 0 0 1 2.08 52.93q-.01 5.13.01 10.25c.04 13.64-.18 27.24-1.16 40.85l-.24 3.33A97 97 0 0 1 637 659h-21a120 120 0 0 1-4.19-24.62l-.24-3.7c-1.86-32.39-1.15-65.36 1.43-97.68l-2.85-1.36-3.77-1.83-1.88-.88A45 45 0 0 1 593 521v-2l-1.81-.77c-5.65-3.18-9.36-10.57-12.19-16.23-.75-3.44-.75-3.44-1-6" fill="#000"/><path d="M739 469c1.04 3.11 1.02 4.77.77 7.99l-.24 3.04-.28 3.28-.29 3.41c-3.33 37.52-13.42 73.31-27.65 108.14A147 147 0 0 0 702 630l-2 7c-1.83 7.24-2.39 14.44-2.75 21.88C697 662 697 662 696 664c-3.9-.58-6.2-2.27-9-5-.69-4.34.3-8.68 1-13l.32-2c2.43-14.64 7.14-28.69 11.66-42.79q1.36-4.28 2.61-8.58 1.55-5.2 3.5-10.25c1.97-5.16 3.81-10.37 5.67-15.57l1.48-4.1c2.75-7.6 5.25-15.15 7.1-23.03.8-3.24 1.83-6.36 2.92-9.52 4.1-12.02 7.13-24.42 9.99-36.78l.75-3.23a319 319 0 0 0 3.56-18.08C738 470 738 470 739 469" fill="#000201"/><path d="m512 470 2 1c.74 2.61.74 2.61 1.45 6.11l.81 3.93.42 2.11c6.5 31.84 16.89 62.43 27.51 93.08 7.22 20.85 14.3 41.55 18.75 63.21l.64 3.1c1.15 5.92 1.83 11.43 1.42 17.46-2.25 2.62-2.25 2.62-5 4-2.17-.41-2.17-.41-4-1l-.04-3.06a174 174 0 0 0-11.28-56.42c-2.29-6.06-4.34-12.2-6.43-18.33a620 620 0 0 0-8.15-22.84c-11.18-29.18-16.25-61.24-18.1-92.35" fill="#000101"/><path d="M759 136h1l.44 33.67.21 15.63.19 15.1.08 5.75.1 8.07.04 2.39c.06 6.49-.44 12.38-3.06 18.39l-.69 2.69A45.5 45.5 0 0 1 741 258h-2l-.7 1.77c-1.64 2.81-3.48 4.04-6.18 5.85l-2.61 1.79A58 58 0 0 1 723 271c-.68 7.28 3.45 14.19 6.69 20.5l2.13 4.21 1.09 2.15c7.51 14.76 14.84 29.39 20.09 45.14l1.5 3.81a64 64 0 0 1 2.97 11.11c.53 2.08.53 2.08 1.56 4.14.97 1.94.97 1.94 1.41 5.19.64 4.29 1.99 7.72 3.56 11.75v2c1.5 1.63 1.5 1.63 3 3l-3 2 .56 3.81c.45 3.02.44 4.19-.56 7.19h-2l-.52-3.56c-4.6-31.03-14.13-59.58-28.48-87.44-4.18-8.14-8.26-16.21-11.56-24.75l-.8-2.03c-.92-2.47-1.63-4.73-1.69-7.38 1.74-3.04 4.63-4.64 7.49-6.53 13.99-9.62 24.65-19.62 29.56-36.31 3.07-18.94 2.29-38.61 2.53-57.76l.16-11.95z" fill="#E9EAEA"/><path d="M518.48 30.79c4.99 2.12 9.25 4.9 13.52 8.2 4.24 3.24 8.4 6.32 13 9q4.52 3 9 6 1.57 1.07 3.19 2.14l5.5 3.69c3.83 2.53 7.73 4.97 11.63 7.4C577 69 577 69 579.17 71.09c3.64 2.46 6.59 2.4 10.83 2.26l2.4-.03q3.9-.07 7.81-.18l5.46-.1q7.17-.11 14.34-.28 11.46-.25 22.94-.44l8-.17 4.92-.1 2.23-.06c4.09-.08 7.89.2 11.9 1v2q-17.1.5-34.19.82-7.95.15-15.88.37-7.67.22-15.35.33-2.91.06-5.83.16c-12.56.4-19.94-.22-29.75-8.67q-1.9-1.31-3.86-2.56-8.74-5.82-17.44-11.68l-8.55-5.74-4.35-2.94q-3.2-2.17-6.43-4.32l-1.93-1.32c-6.75-4.5-13.14-7.76-21.44-6.44-5.61 2.05-9.07 5.77-12.08 10.8-1.13 2.7-1.24 4.92-1.33 7.85l-.12 3.24-.1 3.36-.11 3.42L491 70l-2-1a58 58 0 0 1-1-8l-.31-3.48c-.41-8.17.35-13.6 5.23-20.27A31 31 0 0 1 503 30c4.48-2.24 10.87-.67 15.48.79" fill="#E4E6E5"/><path d="M633.31 206.72c2.81 1.45 4.46 2.82 5.88 5.66-.28 3.78-1.84 5.7-4.19 8.62l-2.13 1.44c-2.8 2.34-3.09 5.09-3.87 8.56-6.4 1.33-6.4 1.33-8.94-.06-1.48-2.7-1.26-4.91-1.06-7.94l-1.75-.75A19 19 0 0 1 611 217c-.63-2.44-.63-2.44 0-5 6.55-6.26 13.42-8.04 22.31-5.28" fill="#626563"/><path d="m799.13 572.88 2.88.12c0 8.38-4.99 16.08-9.08 23.13l-1.31 2.3-1.28 2.15-1.14 1.92C788 604 788 604 785 605c-1.07 1.88-1.07 1.88-2 4l-2 3 3 1a48 48 0 0 1-16-2l2.57-2.93c3.14-3.66 6.04-7.48 8.91-11.35L781 595h2l.72-2a85 85 0 0 1 5.78-10.67l1.23-2.06c4.36-7.23 4.36-7.23 8.4-7.38" fill="#000101"/><path d="M488 408h1l.08 3.64c.43 14.12 2.27 27.84 4.57 41.76.35 2.6.35 2.6.35 6.6l-2.24-.66c-10.41-2.85-19.72-3.94-29.76.66-10 5.77-14.95 14.04-18.42 24.76-1.72 6.65-1.89 13.29-2.14 20.12l-.13 3.24L441 516h-1l-.08-1.68a958 958 0 0 0-.48-10.21l-.12-2.56-.11-2.35c-.21-2.2-.21-2.2-.77-4.29-.73-3.17.54-5.92 1.56-8.91l.82-2.58c3.83-11.46 9.99-20.43 20.45-26.81 8.92-4.22 19.25-3.4 28.73-1.61l-.4-1.91c-3.15-15.25-2.55-29.64-1.6-45.09" fill="#DCDEDF"/><path d="M491 60h1c2.18 32.37 4.04 64.62 4.17 97.07l.04 6.21.02 8.7.02 2.67c-.02 6.12-.02 6.12-2.25 8.35l-.08-1.89-.36-8.73-.13-3.23c-.23-5.33-.52-10.64-.99-15.96-.64-7.95-.49-15.9-.4-23.87.04-5.55-.11-10.94-.82-16.45a49 49 0 0 1-.22-6.93c.08-8.62-.3-17.38-1.59-25.9-.57-4.3-.11-8.27.53-12.54l.3-2.2q.37-2.66.76-5.3" fill="#DADCDB"/><path d="M616 660h20l-.11 5.77-.08 7.61-.07 3.79c-.08 10.18.98 18.61 7.26 26.83h-6c-2.83-6.46-4.08-13.03-5-20l-.62-2.62c-.44-2.77.06-4.64.62-7.38q.32-2.9.56-5.81L633 663h-14l.5 3.94c.53 4.71.59 9.33.5 14.06q0 3.07.19 6.12c-.3 6.19-1.93 12.21-6.19 16.88l-4-1 2.93-4c2.78-5.2 3.32-10.45 3.27-16.25l-.01-1.98q-.02-3.1-.07-6.21l-.02-4.24q-.03-5.16-.1-10.32" fill="#EDEEF0"/><path d="M757 80c3.82 3.82 3.12 9.84 3.14 15l-.02 2.25-.01 2.38q-.07 8.3-.45 16.61c-.88 20.31-.99 40.63-1.19 60.94l-.16 15.21L758 222h-1c-.71-39.54-1.3-79.02-.18-118.56.21-7.82.24-15.62.18-23.44" fill="#1D201E"/><path d="M709.81 191.19q1.07.9 2.2 1.8c-2.4.87-3.53 1.24-5.89.14L704 192a61 61 0 0 0-12.93-1.1h-3.9l-4.05.04h-4.1L669 191v2l-1.65.48a60 60 0 0 0-14.4 6.63C651 201 651 201 648 200c15.7-13.2 43.27-20.98 61.81-8.81" fill="#030504"/><path d="M601 199c-3 1-3 1-4.98.11l-2.21-1.36c-15-8.72-31.1-9.36-47.81-5.6a38 38 0 0 0-7 2.85c-2.25-.38-2.25-.38-4-1h2v-2c18.65-11.42 48.01-7.09 64 7" fill="#020402"/><path d="M670 73v2h-86v-2l30.54-.44 14.18-.21 13.69-.19 5.22-.08 7.32-.1 2.17-.04c4.42-.05 8.54.34 12.88 1.06" fill="#EBEDED"/><path d="m793.38 398.25 6.05 3.02q1.45.7 2.9 1.44c4.16 2.02 8.42 3.69 12.75 5.29 1.91 1 1.91 1 2.91 4a203 203 0 0 1-19.62-7.44l-2.73-1.16a85 85 0 0 1-11.4-5.65c-5.01-2.71-9.69-2.7-15.25-1.75-2.32 1.45-3.33 2.77-5 5h-2v-4c2.2-1.63 2.2-1.63 5-3l2.2-1.25c8.77-2.34 16.51 1.56 24.18 5.5" fill="#DEDFDF"/><path d="M770 613c5.78-.25 11.28.12 17 .94 11.59 1.64 23.32 1.73 35 2.06v2a158 158 0 0 1-46-2l-2.79-.44L771 615z" fill="#EFF2F1"/><path d="M759 136h1q.3 16.94.55 33.87.1 7.87.25 15.73.14 7.59.23 15.18l.1 5.79.12 8.1.06 2.44c.03 5.43.03 5.43-1.83 7.91L758 226c-.09-18.35.18-36.69.46-55.03l.18-11.87z" fill="#F3F5F5"/><path d="M908 460c6.65 2.45 9.43 10.62 12.23 16.66 2.07 5 3.68 10.11 5.16 15.31C926 494 926 494 927 496c-.94 2.62-.94 2.62-2 5h-1l-.41-2.28c-2.55-12.6-7.52-24.11-14.52-34.9C908 462 908 462 908 460" fill="#E7E7E9"/><path d="M749 637c5.46.87 8.65 4.86 12 9a41 41 0 0 1 3 8l1 3c.46 6.41.46 6.41-1.5 8.94L762 667c-1.79-1.79-1.17-4.64-1.25-7.06-.5-7.02-2.13-11.7-7.41-16.43l-1.65-1.32L749 640z" fill="#E6E7EA"/><path d="m919 552 3 1-1.25 2a99 99 0 0 0-3.69 7 43 43 0 0 1-6.06 9l-2 3.19c-2 2.8-2.99 3.46-6 4.81l-1 3-2-2 1.91-2.35a150 150 0 0 0 14.59-21.95c1.5-2.7 1.5-2.7 2.5-3.7" fill="#E3E3E6"/><path d="M760 666h2c-1.38 4.51-3 6.5-7 9a79 79 0 0 1-10.94 1.81l-2.96.41c-4.92.62-9.21 1-14.1-.22l-1-3 1.69-.06 7.75-.32 2.66-.09c14.8-.65 14.8-.65 19.84-5.15z" fill="#D9DBD9"/><path d="m699 671 3 2v2l1.75.56c4.66 2.98 7.02 9.21 8.25 14.44.39 5.17.66 9.41-2 14h-2l.14-3.22c.28-8.88.42-15.64-5.74-22.58a92 92 0 0 0-4.4-4.2z" fill="#E2E2E6"/><path d="M489 401h1l1 6h1c1.19 21.53 1.19 21.53 1 32-3-2-3-2-3.68-5.22-.58-6.4-.42-12.86-.38-19.28l.01-3.94z" fill="#1E2122"/><path d="M747 29c7.12 2.16 13.47 5.36 17.17 12.14 1.88 5.05 2.7 10.51 1.83 15.86l-2 2-2-1c-.21-2.2-.31-4.41-.38-6.62-.37-6.07-.67-9.72-4.62-14.38-4.99-3.58-9.97-4.57-16-5v-1h6z" fill="#D3D7D3"/><path d="m552 673 3 1-2.19 1.5A30.5 30.5 0 0 0 544 689q-.1 3.85-.06 7.69l.01 2.12.05 5.19h-3c-2.52-3.78-2.57-6.63-2-11 2.05-8.43 6.99-13.96 13-20" fill="#E2E0E7"/><path d="m557 56 1.58 1.07q6.43 4.31 12.98 8.43c4.66 2.95 9.1 6.1 13.44 9.5-1.66.71-1.66.71-4 1-2.52-1.34-2.52-1.34-5.38-3.38l-3.16-2.21-1.68-1.18c-3.13-2.16-6.33-4.19-9.53-6.23l-3.61-2.31L555 59l2-1z" fill="#DDDEDD"/><path d="M495 181h1v40c-1.74-3.47-2.26-4.64-2.41-8.23l-.12-2.44-.09-2.52-.12-2.46c-.38-8.5-.65-16.14 1.74-24.35" fill="#EFF0F1"/><path d="M760 88h1c1.15 6.18 1.18 12.16 1.19 18.44l.03 3.35c.02 5.8-.23 10.74-2.22 16.21h-1c-.14-12.7.26-25.32 1-38" fill="#E2E5E2"/><path d="M439 497h1c.61 10.34 1.19 20.64 1 31l-2-1c-.38-1.89-.38-1.89-.56-4.25-.2-2.42-.43-4.72-.96-7.1-.6-3.31-.65-6.48-.67-9.84l-.04-3.73C437 499 437 499 439 497" fill="#ECEEED"/><path d="M634 677h1l.33 3.04c1.07 9.14 2.66 16.08 7.67 23.96h-6c-4.13-9.43-4.06-16.85-3-27" fill="#E6E8E9"/><path d="M479 607a428 428 0 0 1 14.74 13.04q4.23 3.88 8.26 7.96l-1 3-4.75-4.25-2.67-2.39A180 180 0 0 1 487 618l-1.44-1.38C479 609.8 479 609.8 479 607" fill="#E6E7E9"/><path d="M494 129h1l.06 12.12.03 3.47.01 3.36.01 3.07A59 59 0 0 1 494 160h-1c-1.84-22.83-1.84-22.83 1-31" fill="#EDEFEE"/><path d="M838 614v2c-5.01 1.52-8.28 2.05-13.53 1.29-5.3-.62-10.64-.67-15.97-.85l-3.65-.13L796 616v-1l14.09-.43 4.78-.14 6.91-.21 2.13-.07q7.04-.2 14.09-.15" fill="#C4C6C6"/><path d="M488 396h1c.18 10.03-.38 19.99-1 30-2.54-2.54-2.4-3.85-2.69-7.38l-.26-2.89c-.05-2.54.31-4.31.95-6.73.03-2.56-.06-5.1-.16-7.66C486 399 486 399 488 396" fill="#F0F2F4"/><path d="M861 607c-.98 2.61-1.5 3.76-4.07 4.98l-2.49.64-2.71.71-2.73.67-2.45.7c-4.84 1.29-7.83 1.48-12.55-.7v-1l1.76-.34q3.96-.75 7.93-1.54l2.76-.52c4.68-.92 9.95-3.6 14.55-3.6" fill="#DDDFDF"/><path d="M442 479h2c-.91 7.55-.91 7.55-1.5 10.53-.73 5.1-.87 10.2-1.06 15.35l-.13 3.24L441 516h-1l-.08-1.68a958 958 0 0 0-.48-10.21l-.12-2.56-.11-2.35c-.21-2.2-.21-2.2-.78-4.28-.72-3.2.58-5.85 1.57-8.92q.57-1.96 1.12-3.94z" fill="#C9CCCB"/><path d="m495 648 2 1-1 2.44a29.6 29.6 0 0 0 0 16.56c-1.94-.31-1.94-.31-4-1-1.78-5.35-1.7-10.29.44-15.5C494 649 494 649 495 648" fill="#212224"/><path d="m495 643 2 1a47 47 0 0 1-3.56 7.62c-2.01 4.71-2.18 9.31-2.44 14.38h-2c-1.51-10.49-1.51-10.49 1-15l1.5-3.19C493 645 493 645 495 643" fill="#EAEAEC"/><path d="M490 44h2l-1 26-2-1c-1.49-7.43-1.54-15.45-1-23z" fill="#F0F0F2"/><path d="M817 409c16.93 3.4 16.93 3.4 21 8-6.67.61-13-1.05-19-4-1.36-2.14-1.36-2.14-2-4" fill="#E5E5E7"/><path d="M496 211h1l.11 2.86c.43 8.39 1.49 16.04 3.89 24.14h-3c-3.91-8.99-2.91-17.51-2-27" fill="#D9DCDB"/><path d="m874 483 5 2v3h2v3l3-1c.19 2.38.19 2.38 0 5l-3 2q-1.76-2.93-3.5-5.88l-1.97-3.3C874 485 874 485 874 483" fill="#0C0C0D"/><path d="M548 669v2h-2l-1 3c-6.28.84-11.7 1.14-18 0v-1l2.38-.37c5.92-.94 12.72-3.63 18.62-3.63" fill="#DBDCDB"/><path d="M441 522h1l3 22c-4-2-4-2-4.9-4.29-1.12-6.55-.99-11.32.9-17.71" fill="#D7D9D9"/><path d="m476.38 455.81 2.9-.04c2.79.23 4.39.71 6.72 2.23l1 2-17-1-1-2c2.57-1.29 4.5-1.17 7.38-1.19" fill="#242727"/><path d="m739 256 3 1-3 1-.88 1.83c-1.49 2.89-3.38 4.05-6.06 5.86l-2.65 1.82C727 269 727 269 724 270v-3a98 98 0 0 1 6.94-5.12l3.9-2.7L738 257z" fill="#E9EAEB"/><path d="M811 516h1l1 7 2-1-1 11h-3l-2 2z" fill="#D4D6D4"/><path d="M687 660c4 1.37 6.8 3.26 10 6-3.75 1.12-3.75 1.12-6 0l1 4-5-2z" fill="#E9EAE7"/><path d="M747 29v2l-1.69.3a44 44 0 0 0-13.68 4.9C730 37 730 37 728 37c.56-1.81.56-1.81 2-4 3.31-1.62 3.31-1.62 7-3l2.62-1.25c2.84-.9 4.55-.56 7.38.25" fill="#E6E7E9"/><path d="M757 80c3.59 3.59 3.05 8.99 3.1 13.84l-.04 5.1-.01 2.65L760 108h-1l-1-12h-1z" fill="#272A27"/><path d="M496 111h2v10h-1l-1 15h-1a2376 2376 0 0 1-.09-15.38l-.01-3.27-.01-3.03C495 112 495 112 496 111" fill="#272928"/><path d="M751 342a28 28 0 0 1 5 9l.81 2.06c.27 2.79-1.11 3.83-2.81 5.94l-2.06-7.94-.61-2.28q-.72-2.88-1.33-5.78z" fill="#E3E6E6"/><path d="m756 356 2 1c.56 1.75.56 1.75 1 4l.5 2.5.5 2.5 1 4h-3c-3.63-9.41-3.63-9.41-2-14" fill="#F1F3F4"/><path d="m500 32 2 2-1.46 1.17-1.92 1.58-1.89 1.55A16 16 0 0 0 493 44l-3-1q1.35-2.2 2.75-4.38l1.55-2.46c1.77-2.25 3.07-3.12 5.7-4.16" fill="#DEDDE0"/><path d="M768 393q3.04.14 6.06.44l3.35.31 2.59.25v1l-2.23.04c-8.1.4-8.1.4-11.83 3.52L764 401h-2v-4c2.44-1.69 2.44-1.69 5-3z" fill="#D2D5D5"/><path d="M754 359c3.26 3.26 3.93 7.41 4.12 11.94L758 373h-3l-.44-3.31C754 366 754 366 753 363c.44-2.19.44-2.19 1-4" fill="#232527"/><path d="M749 245h2c-.08 2.86-.61 4.56-2.52 6.7-3.48 3.14-3.48 3.14-5.48 4.3l-3-1 1.46-1.43 1.92-1.88 1.89-1.87C747 248 747 248 749 245" fill="#DDDEDE"/><path d="M758 370c1.94.75 1.94.75 4 2 .69 1.94.69 1.94 1 4l1 3-3 1-1 2c-1.14-4.27-2-7.56-2-12" fill="#E6E5E7"/><path d="M495 361h1l-1 11h-4q.42-2.19.88-4.38l.49-2.46C493 363 493 363 495 361" fill="#E9E9ED"/><path d="m754 619 5 1c-2.58 2.65-4.92 4.94-8 7h-3v-2l4-1v-2h2z" fill="#232624"/><path d="M443 544h2c2.09 3.4 2.18 6.05 2 10l-3-1c-.77-1.81-.77-1.81-1.25-4l-.52-2.19L442 545z" fill="#E8E8EA"/><path d="m865 473 4 1v2h2l4 7-2 1-3.44-3.81-1.93-2.15C866 476 866 476 865 473" fill="#17191A"/><path d="M634 677h1l2 17-3-1c-1.53-3.05-.84-5.76-.56-9.12l.31-3.89z" fill="#DBDCDE"/><path d="m717 674 22 1v1q-4.37.37-8.75.69l-2.5.22-2.42.16-2.22.18C721 677 721 677 717 674" fill="#EFF1F1"/><path d="m543 689 3 1q.12 2.43.19 4.88l.1 2.74L546 700l-3 2z" fill="#1B1B1E"/><path d="M504 674h17v1q-2.84.55-5.69 1.06l-3.2.6c-3.02.33-5.19.11-8.11-.66z" fill="#E4E6E6"/><path d="m762 656 3 1c.37 6.52.37 6.52-1.5 8.94L762 667c-1.35-4.05-.62-6.79 0-11" fill="#F3F6F2"/><path d="M776 612v1l-3.31.81C769 615 769 615 767.31 616.69L766 618c-2.19-.31-2.19-.31-4-1 4.26-5.49 7.51-5.64 14-5" fill="#CED1D0"/><path d="M730 297c3.35 1.12 3.62 1.51 5.25 4.44L737 305l-1 2c-3-1-3-1-4.69-3.88C730 300 730 300 730 297" fill="#F0F3F0"/><path d="m747 29 8 3v3l-2.5-.94c-3.89-1.18-7.46-1.64-11.5-2.06v-1h6z" fill="#D3D3D5"/><path d="M710 691c2 2 2 2 2.25 5.38-.22 3.26-.53 4.93-2.25 7.62h-2z" fill="#ECEFEE"/><path d="M479 607c4.14 3.38 7.81 6.67 11 11-2.31-.19-2.31-.19-5-1-1.62-2.38-1.62-2.38-3-5l-1.69-1.69L479 609z" fill="#EEF1EF"/><path d="M916 552c.98 2.61 1.12 3.69.07 6.32l-1.38 2.37-1.37 2.38C912 565 912 565 910 566l.94-2.75C912 560 912 560 912.5 557.69l.5-1.69 2-1z" fill="#0C0D0C"/><path d="M755 34c4.42 1.35 6.34 3.26 9 7l-3 3-2.93-5.18A98 98 0 0 0 755 34" fill="#E8EBE9"/><path d="m776.25 455.81 3.27.08 2.48.11v1l-9 1v2l-7-1c3.39-3.13 5.71-3.34 10.25-3.19" fill="#3F423E"/><path d="m557 56 8 6-2 2-8-5 2-1z" fill="#D9D8D9"/><path d="M751 33c4.59 1.94 6.81 3.49 9 8h-3l-2-3-3-1c-.69-2.06-.69-2.06-1-4" fill="#212322"/><path d="M541 692h1v9h-3c-.12-3.38-.12-3.38 0-7z" fill="#F2F2F4"/><path d="m760 649 4 4c-.05 2.8-.05 2.8-.75 5.75l-.67 2.98L762 664h-1z" fill="#D7DBD6"/><path d="M757 222c1.46 2.92 2.34 4.92 3 8l-5 4z" fill="#DBDBDE"/><path d="m708 686 3 1 1 6h-1l-1 6h-1z" fill="#C0C2C2"/><path d="M924 528h2l1 7-4 2z" fill="#D2D5D4"/><path d="M748 342h2l2 9-3 1z" fill="#1E211E"/><path d="M723 268c0 3.61-.96 6.56-2 10-1.35-2.22-2.04-3.5-1.81-6.12C720 270 720 270 723 268" fill="#D2D3D3"/><path d="M747 29v2l-10 1v-2c3.78-1.84 5.95-2.16 10-1" fill="#F1F1F3"/><path d="M512 30c-2.9 1.93-3.9 2.3-7.19 2.62L501 33l1-3c3.69-1.23 6.21-.64 10 0" fill="#EAEEEB"/><path d="m555 673 1 4c-1.81 1.06-1.81 1.06-4 2l-3-1z" fill="#2C2934"/><path d="M761 82c2.67 5.33 2.67 5.33 3 8-.94 2.25-.94 2.25-2 4h-1z" fill="#F0F4F2"/><path d="M566 62q3.06 1.91 6 4v2c-3.8-.54-5.47-2.2-8-5z" fill="#EAEBE9"/><path d="m687 660 2 1-1 5h3l1 4-5-2z" fill="#D1D3CF"/><path d="m555 662 1 2 2 1-7 3-1-3z" fill="#1E1F20"/><path d="M869 605c-5.14 4.43-5.14 4.43-9 5 2.18-4.84 3.79-5.14 9-5" fill="#E9E9EB"/><path d="M449 560h2l2 7-2 2c-1.86-3.13-2.2-5.37-2-9" fill="#D9DCDA"/><path d="m724 264 3 1c-1.75 2.06-1.75 2.06-4 4-2.25-.25-2.25-.25-4-1 2.31-2.06 2.31-2.06 5-4" fill="#1E1F1F"/><path d="m691 667 8 4-2 2a120 120 0 0 1-6-4z" fill="#E9EAE9"/><path d="M460 460a20 20 0 0 1 1 4l-2 2-3-1c1.75-3.88 1.75-3.88 4-5" fill="#1D1F22"/><path d="m762 388 2 1c.95 3.28 1.1 4.7 0 8h-2z" fill="#F3F5F6"/><path d="M542 692h1l1 12h-3z" fill="#BEBEC0"/><path d="m713 672 8 1-1.94.38-2.06.62-1 2-4-1z" fill="#D9D9DB"/><path d="M762 666c-1.25 3.65-1.67 4.78-5 7l-2-2c4.75-5 4.75-5 7-5" fill="#E3E7E3"/><path d="m491 664 4 5-2 2-4-4z" fill="#D6D8D8"/><path d="M875 602c-1.12 1.5-1.12 1.5-3 3-3.19.19-3.19.19-6 0 3.07-2.73 4.9-3.34 9-3" fill="#DEDEDF"/><path d="M799 566c2 3 2 3 2 7h-4c.88-4.75.88-4.75 2-7" fill="#D0D1D1"/><path d="m483 454 6 2v2l-7-1z" fill="#DFE2E1"/><path d="M838 416c3.19.88 3.19.88 6 2v2l-9-2z" fill="#DADADB"/></svg>