<svg style="background:transparent" version="1.1" xmlns="http://www.w3.org/2000/svg" viewBox="0 0 1248 704"><path d="M994.8 90.87h19.73c4.81.18 9.28.79 13.9 2.13 3.57 1 3.57 1 7.38 1.38 5.1.56 9.5 2.6 14.2 4.62l5.05 2c7.26 2.92 14.21 5.99 20.94 10l2.62 1.57L1081 114l2.12 1.2c10.11 6.33 19.81 14.02 27.88 22.8l2.81 2.69c6 6.34 7.68 12.84 7.5 21.38-.76 7.25-5.35 11.67-10.75 16.26-5.39 3.52-11.5 4.02-17.8 3.49A46 46 0 0 1 1082 178q-1.57-.75-3.19-1.5a49 49 0 0 1-6.8-4.5l-4.39-2.87a73 73 0 0 1-7.75-5.75c-4.8-3.98-10.26-6.68-15.87-9.38l-2.44-1.2c-7.94-3.76-15.7-6.84-24.56-6.8l-2.23-.5c-4.05-.73-8.04-.68-12.15-.68l-2.5-.04c-5.13-.01-9.26.6-14.12 2.22l-3.32.69c-5.23 1.86-9.24 5.04-13.68 8.3l-3.32 2.14a39 39 0 0 0-9.37 9.19l-1.3 1.68h-2l-.76 2c-1.25 3-2.67 5.86-4.16 8.75A191 191 0 0 0 944 189c-12.03 28.03-12.03 28.03-20 38q-1.03 1.8-2 3.63c-1.9 3.2-3.09 4.3-6 6.37l-1.32 2.32c-1.94 3.09-4.14 4.93-6.94 7.23-1.74 1.45-1.74 1.45-4.06 3.77a245 245 0 0 1-7.75 7.37L893.4 260a27 27 0 0 1-6.4 4q-3.85 2.3-7.66 4.66C877 270 877 270 874 271c.64 3.06 1.67 5.5 3.18 8.23a313 313 0 0 0 4.05 7.42 80 80 0 0 1 6.15 14.39 69 69 0 0 0 2.68 6.9c2.01 4.94 3.05 9.83 3.94 15.06q.9 4.63 2 9.19a87 87 0 0 1 1.96 20.72c.04 2.35.3 4.63.56 6.97.63 6.74.4 13.37.1 20.12l-.13 3.62q-.41 10.71-1.49 21.38-.14 1.6-.32 3.24l-.25 2.5a87 87 0 0 0-.43 9.39V423l-1 1a61 61 0 0 0 0 4.07c.03 3.08-.07 6-.5 9.06-.5 3.87-.5 3.87-.5 7.44 0 3.43 0 3.43-.5 6.75a71 71 0 0 0-.44 11.64C893 465 893 465 892 466a230 230 0 0 0-.14 8.7v24.78l.01 2.4v2.13c.13 2.1.58 3.96 1.13 5.99q.36 3.78.62 7.57c.4 2.5 1.2 4.19 2.38 6.43v5q.95 3 2 6a155 155 0 0 1 3 16q.45 2.13.93 4.25a165 165 0 0 1 3.85 26.59c.22 3.16.22 3.16.78 7.04.36 2.55.47 4.8.44 7.37 0 3.75 0 3.75 1 6.75q.13 2.78.12 5.54l.01 3.44v45.64C908 660 908 660 907 662l2.22.66q5.09 1.5 10.15 3.03l3.5 1.03c20.18 6.1 20.18 6.1 25.13 14.28-.2 2.95-.65 4.56-2.5 6.88l-1.94 1.69q-.93.81-1.87 1.69c-7.5 4.87-16 6.7-24.69 8.37l-3.02.62c-15.9 3.1-31.6 4.07-47.77 4.05l-5.63.02H845.6l-9.37-.01c-26.16-.02-52.28-.33-78.4-1.62l-2.03-.1a2546 2546 0 0 1-39.04-2.24c-31.03-1.98-61.93-2.64-93.02-2.66l-9.13-.01c-32.4-.04-64.75.66-97.06 3.3-33.88 2.75-67.56 3.58-101.54 3.44q-10.8-.04-21.6-.04a16461 16461 0 0 1-38.5-.08l-37.24-.08h-2.35l-11.65-.02q-47.84-.06-95.66-.2c-1.24-2.47-1.14-4.18-1.13-6.93v-2.66C208 692 208 692 209 689l-2.79 1.46c-12.72 6.6-24.43 9.97-38.79 6.74-8.14-2.8-16.2-7.63-20.63-15.3-2.99-7.2-2.96-16.22-.16-23.54C151 650.8 158.7 642.12 167 639a34 34 0 0 1 13.68-.37c6.97.79 12.46-3.77 17.9-7.67 2.97-2.41 5.3-5.1 7.71-8.05 2.26-2.53 4.81-4.38 7.56-6.33 6.66-4.9 12.4-10.74 18.02-16.76l2.01-2.12 1.92-2.05 1.72-1.84A28 28 0 0 0 241 588c1.84-1.74 1.84-1.74 3.93-3.43A28 28 0 0 0 252 576q1.68-1.74 3.41-3.43a149 149 0 0 0 18-21.62q1.73-2.51 3.6-4.95h2l.42-1.81q.7-2.62 1.57-5.2l-3.63-1.17c-4.29-1.6-6.96-3.8-10.37-6.82l-1.9-.92c-11.88-6.1-20.15-18.87-24.23-31.14l-.97-3.08q-1.15-3.63-2.53-7.17a129 129 0 0 1-3.37-10.7l-1.63-4.61A25 25 0 0 1 231 464q-.69-2.45-1.43-4.9c-.96-3.5-1.5-7.07-2.1-10.64C227 446 227 446 226 443q-.26-2.15-.44-4.31a47 47 0 0 0-2.56-10.7 265 265 0 0 1-1.54-8.4c-.4-2.23-.9-4.4-1.46-6.6q-.49-2.35-.94-4.74a144 144 0 0 0-2.13-9.37c-.96-4-1.47-7.8-1.93-11.88l-.5-2.5c-.57-2.8-.9-5.6-1.22-8.43-.28-2.07-.28-2.07-.78-4.4-1.65-8.75-2.84-21.44 2-29.23 3.2-3.65 6.72-6.32 11.5-7.44 10.15-.32 19.01 3.78 28 8 24.5 11.49 24.5 11.49 31.22 9.27q2.53-1.05 5.02-2.15c3.87-1.57 7.83-2.47 11.9-3.41 2.86-.71 2.86-.71 5.8-1.7a89 89 0 0 1 9.81-2.51l3.72-.77L325 341l2.71-.56c3.45-.71 6.9-1.38 10.4-1.9l3.2-.47 2.92-.41A21 21 0 0 0 352 334l.93-1.87c1.07-2.13 1.07-2.13 4-4.56 2.94-2.47 4.25-4.27 6.07-7.57a68 68 0 0 1 6-7l2.62-3.18c11.22-13.15 11.22-13.15 18.5-14.1 4.73-.2 8.11.12 11.88 3.28v2l1.83.77c5.28 3 7.5 9.68 9.17 15.23q.98 2.5 2 5a138 138 0 0 1 5.43 16.38 88 88 0 0 0 3.13 9.75 63 63 0 0 1 3.01 10.99C427 361 427 361 428 363l-1 2 8.62-3.75 2.45-1.05A74 74 0 0 0 451 353q3.47-1.54 7-3 3-1.47 6-3l1.94-.93A94 94 0 0 0 478 339q1.98-1.02 4-2l1.92-.96 1.95-.97 2.11-1.06 5.2-2.57a92 92 0 0 0 5.32-2.94c2.76-1.66 5.61-3.05 8.5-4.5l3.5-2c3.1-1.8 6.28-3.4 9.5-5q2.18-1.2 4.37-2.43c3.48-1.96 7.01-3.77 10.6-5.53 3.01-1.54 5.96-3.21 8.92-4.88q2.68-1.47 5.42-2.78c2.7-1.38 2.7-1.38 4.58-2.86a23 23 0 0 1 6.48-3.2c5.8-2.23 11-5.27 16.33-8.41 3.05-1.77 6.13-3.37 9.3-4.91 7.42-3.65 7.42-3.65 10.37-5.43 4.08-2.44 8.36-4.47 12.63-6.57l3.12-1.56 19.84-9.92 5.85-2.94 2.62-1.33 2.31-1.17q2.4-1.14 4.88-2.12c2.38-.96 2.38-.96 4.94-2.52 2.32-1.37 3.85-1.82 6.44-2.44q2.97-.9 5.93-1.87l3.1-1A47 47 0 0 0 676 239c2.07-.84 2.07-.84 4.12-1.5l2.34-.74q5.46-1.6 10.96-3.01c2.58-.75 2.58-.75 5.13-1.77a39 39 0 0 1 6.82-1.98 96 96 0 0 0 8-2c4.06-1.12 8.12-1.84 12.27-2.53C728 225 728 225 730 224q2.33-.27 4.68-.43c4.46-.36 8.83-.94 13.25-1.63 6.18-.85 12.21-1.12 18.44-1.12l2.48-.01c4.76.05 9.4.37 14.12.95 3.47.42 6.96.62 10.45.86 2.77.4 4.98 1.34 7.58 2.38 2.5.35 2.5.35 5 .5 3.74.32 6.54.99 10 2.5q3.39.79 6.81 1.44c2.2.56 2.2.56 4.1 1.63 2.88 1.29 4.94 1.23 8.1.93 3.02-1.17 3.02-1.17 6.05-2.75l3.03-1.54A60 60 0 0 0 852 222l2.37-1.37a57 57 0 0 0 7.87-6.1q2.34-2 4.76-3.9c13.93-12.2 23.42-29.52 30-46.63a208 208 0 0 1 7-15l.8-1.78c1.82-3.37 4.11-6.4 6.38-9.47l1.5-2.02c7.85-10.57 7.85-10.57 11.32-13.73h2l.62-1.7c1.9-3.15 4.53-5.07 7.44-7.23q.88-.68 1.78-1.35A88 88 0 0 1 950 103l3.1-1.52c9.78-4.68 19.26-7.51 29.9-9.48l2.22-.52a55 55 0 0 1 9.58-.61" fill="#111311"/><path d="M994.8 90.87h19.73c4.81.18 9.28.79 13.9 2.13 3.57 1 3.57 1 7.38 1.38 5.1.56 9.5 2.6 14.2 4.62l5.05 2c7.26 2.92 14.21 5.99 20.94 10l2.62 1.57L1081 114l2.12 1.2c10.11 6.33 19.81 14.02 27.88 22.8l2.81 2.69c6 6.34 7.68 12.84 7.5 21.38-.76 7.25-5.35 11.67-10.75 16.26-5.39 3.52-11.5 4.02-17.8 3.49A46 46 0 0 1 1082 178q-1.57-.75-3.19-1.5a49 49 0 0 1-6.8-4.5l-4.39-2.87a73 73 0 0 1-7.75-5.75c-4.8-3.98-10.26-6.68-15.87-9.38l-2.44-1.2c-7.94-3.76-15.7-6.84-24.56-6.8l-2.23-.5c-4.05-.73-8.04-.68-12.15-.68l-2.5-.04c-5.13-.01-9.26.6-14.12 2.22l-3.32.69c-5.23 1.86-9.24 5.04-13.68 8.3l-3.32 2.14a39 39 0 0 0-9.37 9.19l-1.3 1.68h-2l-.76 2c-1.25 3-2.67 5.86-4.16 8.75A191 191 0 0 0 944 189c-12.03 28.03-12.03 28.03-20 38q-1.03 1.8-2 3.63c-1.9 3.2-3.09 4.3-6 6.37l-1.32 2.32c-1.94 3.09-4.14 4.93-6.94 7.23-1.74 1.45-1.74 1.45-4.06 3.77a245 245 0 0 1-7.75 7.37L893.4 260a27 27 0 0 1-6.4 4q-3.85 2.3-7.66 4.66C877 270 877 270 874 271c.64 3.06 1.67 5.5 3.18 8.23a313 313 0 0 0 4.05 7.42 80 80 0 0 1 6.15 14.39 69 69 0 0 0 2.68 6.9c2.01 4.94 3.05 9.83 3.94 15.06q.9 4.63 2 9.19a87 87 0 0 1 1.96 20.72c.04 2.35.3 4.63.56 6.97.63 6.74.4 13.37.1 20.12l-.13 3.62q-.41 10.71-1.49 21.38-.14 1.6-.32 3.24l-.25 2.5a87 87 0 0 0-.43 9.39V423l-1 1a61 61 0 0 0 0 4.07c.03 3.08-.07 6-.5 9.06-.5 3.87-.5 3.87-.5 7.44 0 3.43 0 3.43-.5 6.75a71 71 0 0 0-.44 11.64C893 465 893 465 892 466a230 230 0 0 0-.14 8.7v24.78l.01 2.4v2.13c.13 2.1.58 3.96 1.13 5.99q.36 3.78.62 7.57c.4 2.5 1.2 4.19 2.38 6.43v5q.95 3 2 6a155 155 0 0 1 3 16q.45 2.13.93 4.25a165 165 0 0 1 3.85 26.59c.22 3.16.22 3.16.78 7.04.36 2.55.47 4.8.44 7.37 0 3.75 0 3.75 1 6.75q.13 2.78.12 5.54l.01 3.44v45.64C908 660 908 660 907 662l2.22.66q5.09 1.5 10.15 3.03l3.5 1.03c20.18 6.1 20.18 6.1 25.13 14.28-.2 2.95-.65 4.56-2.5 6.88l-1.94 1.69q-.93.81-1.87 1.69c-7.5 4.87-16 6.7-24.69 8.37l-3.02.62c-15.9 3.1-31.6 4.07-47.77 4.05l-5.63.02H845.6l-9.37-.01c-26.16-.02-52.28-.33-78.4-1.62l-2.03-.1a2546 2546 0 0 1-39.04-2.24c-31.03-1.98-61.93-2.64-93.02-2.66l-9.13-.01c-32.32-.04-64.62.57-96.83 3.34-42.29 3.56-84.42 3.47-126.82 3.27l-30.5-.1q-31.23-.05-62.45-.2c2.72-2.83 5.54-4.61 8.96-6.58l1.78-1.03q1.88-1.1 3.8-2.18 4.98-2.88 9.96-5.8l2-1.15a414 414 0 0 0 15-9.25 626 626 0 0 1 24-14.5 815 815 0 0 0 31.21-19.04q3.53-2.25 7.07-4.46a1686 1686 0 0 0 41.1-26.91l2.31-1.55 4.31-2.9c10.26-6.87 10.26-6.87 15.68-7.51 30.1-4.6 61.45-17.2 88.83-30.2q5.12-2.38 10.27-4.71c18.57-8.46 37.01-17.1 55-26.76l9.31-4.96a1285 1285 0 0 0 36.77-20.2q6.48-3.74 13.1-7.23l2.42-1.28c2.12-.8 2.12-.8 5.12.2.85 1.66.85 1.66 1.54 3.82l.8 2.43.84 2.64c11 32.72 26.77 58.43 52.07 81.87 11 10.2 23.04 21.5 23.93 37.49q0 4.39-.18 8.76l-2.75.45c-8.73 1.6-16.15 3.42-21.88 10.58-4.25 6.47-5 12.3-4.37 19.97 1.51 5.04 4.08 7.36 8.56 9.83 8.75 4.2 17.68 4.66 27.25 4.55l3.74-.03c12.71-.2 24.22-.75 33.51-10.35 5.83-7.23 8.15-16.1 10.2-25l.48-2.15c4.15-19.55 4.04-41.47-.74-60.85l-.87-3.85q-1.03-4.58-2.13-9.15c13.37 5.93 27.6 19.4 33.18 32.85 1.07 3.03 1.98 6.05 2.82 9.15l.68 2.5c2.05 9.09 2.07 19.24 1.32 28.5-1.63 1.63-3.63 1.12-5.88 1.19-7.5.65-13.95 3.32-19.08 8.97-4.59 6.52-7.28 13.77-6.04 21.84 1.9 5.82 4.88 9.56 10 13 12.52 6.22 32.83 6.29 46 2l3.01-.96c8.56-3.13 12.94-7.31 17.8-14.85 5.4-14.48 4.36-31.14 4.31-46.37v-2.68q-.04-9.08-.12-18.14l-.04-3.87a327 327 0 0 0-10.15-76.43c-4.2-16.62-5.2-32.24-5.19-49.32V481c.01-26.93 1.23-54.26 4.92-80.96.65-5 .64-10 .66-15.02l.02-3.18.02-6.65q.02-4.98.07-9.96c.15-30.6-4.88-60.65-22.06-86.55-1.58-3.37-1.47-6.01-1.25-9.68l3.07-1.65c20.4-11.1 37.55-25.5 49.93-45.35l1.6-2.56c4.78-7.9 8.44-16.08 11.96-24.56 9.07-21.83 20.3-40.06 42.75-49.81 7.41-2.96 14.31-4.44 22.25-4.38h2.36c23.86.47 44.36 10.82 63.22 24.54 8.75 6.35 17.63 12.38 28.8 12.27l2.12-.02c5.87-.2 9.84-1.24 13.94-5.48 3.52-3.92 5.3-7.57 5.62-12.87-.57-9.85-6.7-17.57-13.62-24.13-23.52-20.12-51.52-33.95-82-39-.48-.1-.48-.1-2.86-.53-5.82-.87-11.7-.71-17.58-.72h-2.05c-9.86.02-19 .4-28.5 3.25l-3.67 1c-14.5 4.33-27.17 11.8-38.34 22l-2.32 2.08c-14.3 13.48-22.62 31.2-30.84 48.75-7.4 15.73-15.49 28.85-27.84 41.17l-2.2 2.24c-6.73 6.4-14.79 11.15-22.8 15.76l-1.97 1.19c-8.92 5.03-16.99 2.6-26.4 0a181 181 0 0 0-51-6.56h-2.59c-12.88.09-25.42.6-38.04 3.37l-2.76.59c-41.9 9.1-81.42 27.73-119.1 47.76q-5.32 2.8-10.68 5.54-.97.5-1.99 1l-4.02 2.07a1222 1222 0 0 0-31.59 16.75A896 896 0 0 1 534.5 313q-11.04 5.72-21.94 11.69a2971 2971 0 0 1-39.76 21.3l-10.4 5.52c-26.96 14.27-26.96 14.27-36.4 16.49a169 169 0 0 1-5.69-17.56c-12.37-44.07-12.37-44.07-21.8-50.25-3.87-1.31-6.46-1.53-10.5-1.2-10.85 6.07-18.62 17.68-26.14 27.26L358 331l-1.9 2.34c-5.97 6.64-10.85 8.22-19.54 9.29q-3.6.55-7.19 1.13l-3.7.59a200 200 0 0 0-17.55 4.15l-3.3.9c-6.57 1.83-12.79 3.92-18.92 6.95-9.9 2.22-20.86-4.47-29.72-8.35l-4.5-1.94-8.25-3.58c-6.8-2.93-11.95-4.53-19.43-3.48-2.95 1.3-3.85 2.4-6 5-8.16 23.36 1.32 59.58 9.06 82.1 1.41 4.37 2.02 8.83 2.75 13.34 2.96 17.36 6.44 34.18 12.12 50.88l1.24 3.66c7.21 20.56 19.61 32.45 38.7 42.09q2.05.98 4.13 1.93c-4.4 9.94-13.3 18.66-20.36 26.89a368 368 0 0 0-7.08 8.6 260 260 0 0 1-12.14 13.75 250 250 0 0 0-7.53 8.38c-4.6 5.28-9.55 10.22-14.5 15.17l-4.88 4.93c-9.05 9.09-18.48 17.62-29.5 24.28l-1.75 1.14c-3.42 1.3-6.9 1.2-10.5 1.3-8.09.36-14.96 1.09-21.32 6.77-5.34 6.6-8.88 15.06-8.72 23.58a23.5 23.5 0 0 0 7.46 14.59c3.9 3.02 8.1 4.4 12.82 5.62l1.9.52c16.88 3.87 31.04-2.73 45.1-11.52-1.88 5.75-1.88 5.75-3 8q-.34 3.56-.57 7.13l-.25 3.88L211 704h-2c-1.24-2.47-1.14-4.18-1.13-6.93v-2.66C208 692 208 692 209 689l-2.79 1.46c-12.72 6.6-24.43 9.97-38.79 6.74-8.14-2.8-16.2-7.63-20.63-15.3-2.99-7.2-2.96-16.22-.16-23.54C151 650.8 158.7 642.12 167 639a34 34 0 0 1 13.68-.37c6.97.79 12.46-3.77 17.9-7.67 2.97-2.41 5.3-5.1 7.71-8.05 2.26-2.53 4.81-4.38 7.56-6.33 6.66-4.9 12.4-10.74 18.02-16.76l2.01-2.12 1.92-2.05 1.72-1.84A28 28 0 0 0 241 588c1.84-1.74 1.84-1.74 3.93-3.43A28 28 0 0 0 252 576q1.68-1.74 3.41-3.43a149 149 0 0 0 18-21.62q1.73-2.51 3.6-4.95h2l.42-1.81q.7-2.62 1.57-5.2l-3.63-1.17c-4.29-1.6-6.96-3.8-10.37-6.82l-1.9-.92c-11.88-6.1-20.15-18.87-24.23-31.14l-.97-3.08q-1.15-3.63-2.53-7.17a129 129 0 0 1-3.37-10.7l-1.63-4.61A25 25 0 0 1 231 464q-.69-2.45-1.43-4.9c-.96-3.5-1.5-7.07-2.1-10.64C227 446 227 446 226 443q-.26-2.15-.44-4.31a47 47 0 0 0-2.56-10.7 265 265 0 0 1-1.54-8.4c-.4-2.23-.9-4.4-1.46-6.6q-.49-2.35-.94-4.74a144 144 0 0 0-2.13-9.37c-.96-4-1.47-7.8-1.93-11.88l-.5-2.5c-.57-2.8-.9-5.6-1.22-8.43-.28-2.07-.28-2.07-.78-4.4-1.65-8.75-2.84-21.44 2-29.23 3.2-3.65 6.72-6.32 11.5-7.44 10.15-.32 19.01 3.78 28 8 24.5 11.49 24.5 11.49 31.22 9.27q2.53-1.05 5.02-2.15c3.87-1.57 7.83-2.47 11.9-3.41 2.86-.71 2.86-.71 5.8-1.7a89 89 0 0 1 9.81-2.51l3.72-.77L325 341l2.71-.56c3.45-.71 6.9-1.38 10.4-1.9l3.2-.47 2.92-.41A21 21 0 0 0 352 334l.93-1.87c1.07-2.13 1.07-2.13 4-4.56 2.94-2.47 4.25-4.27 6.07-7.57a68 68 0 0 1 6-7l2.62-3.18c11.22-13.15 11.22-13.15 18.5-14.1 4.73-.2 8.11.12 11.88 3.28v2l1.83.77c5.28 3 7.5 9.68 9.17 15.23q.98 2.5 2 5a138 138 0 0 1 5.43 16.38 88 88 0 0 0 3.13 9.75 63 63 0 0 1 3.01 10.99C427 361 427 361 428 363l-1 2 8.62-3.75 2.45-1.05A74 74 0 0 0 451 353q3.47-1.54 7-3 3-1.47 6-3l1.94-.93A94 94 0 0 0 478 339q1.98-1.02 4-2l1.92-.96 1.95-.97 2.11-1.06 5.2-2.57a92 92 0 0 0 5.32-2.94c2.76-1.66 5.61-3.05 8.5-4.5l3.5-2c3.1-1.8 6.28-3.4 9.5-5q2.18-1.2 4.37-2.43c3.48-1.96 7.01-3.77 10.6-5.53 3.01-1.54 5.96-3.21 8.92-4.88q2.68-1.47 5.42-2.78c2.7-1.38 2.7-1.38 4.58-2.86a23 23 0 0 1 6.48-3.2c5.8-2.23 11-5.27 16.33-8.41 3.05-1.77 6.13-3.37 9.3-4.91 7.42-3.65 7.42-3.65 10.37-5.43 4.08-2.44 8.36-4.47 12.63-6.57l3.12-1.56 19.84-9.92 5.85-2.94 2.62-1.33 2.31-1.17q2.4-1.14 4.88-2.12c2.38-.96 2.38-.96 4.94-2.52 2.32-1.37 3.85-1.82 6.44-2.44q2.97-.9 5.93-1.87l3.1-1A47 47 0 0 0 676 239c2.07-.84 2.07-.84 4.12-1.5l2.34-.74q5.46-1.6 10.96-3.01c2.58-.75 2.58-.75 5.13-1.77a39 39 0 0 1 6.82-1.98 96 96 0 0 0 8-2c4.06-1.12 8.12-1.84 12.27-2.53C728 225 728 225 730 224q2.33-.27 4.68-.43c4.46-.36 8.83-.94 13.25-1.63 6.18-.85 12.21-1.12 18.44-1.12l2.48-.01c4.76.05 9.4.37 14.12.95 3.47.42 6.96.62 10.45.86 2.77.4 4.98 1.34 7.58 2.38 2.5.35 2.5.35 5 .5 3.74.32 6.54.99 10 2.5q3.39.79 6.81 1.44c2.2.56 2.2.56 4.1 1.63 2.88 1.29 4.94 1.23 8.1.93 3.02-1.17 3.02-1.17 6.05-2.75l3.03-1.54A60 60 0 0 0 852 222l2.37-1.37a57 57 0 0 0 7.87-6.1q2.34-2 4.76-3.9c13.93-12.2 23.42-29.52 30-46.63a208 208 0 0 1 7-15l.8-1.78c1.82-3.37 4.11-6.4 6.38-9.47l1.5-2.02c7.85-10.57 7.85-10.57 11.32-13.73h2l.62-1.7c1.9-3.15 4.53-5.07 7.44-7.23q.88-.68 1.78-1.35A88 88 0 0 1 950 103l3.1-1.52c9.78-4.68 19.26-7.51 29.9-9.48l2.22-.52a55 55 0 0 1 9.58-.61" fill="#B8BBB8"/><path d="M686 506c.86 1.65.86 1.65 1.54 3.8l.8 2.43.85 2.65c10.99 32.72 26.77 58.42 52.06 81.87 11.01 10.2 23.04 21.49 23.93 37.48q.02 4.38-.18 8.77l-6.62 1.25-3.73.7C751 646 751 646 748.37 648.07c-4.57 2.62-7.83 2.25-12.97 1.88l-6.32-.31-3.49-.19c-6.6-.36-13.21-.62-19.81-.86l-2.28-.08c-24.86-.87-49.73-.76-74.59-.76l-11.6-.01c-27.21-.05-54.31.06-81.46 1.99q-5.7.4-11.42.74A1568 1568 0 0 0 355 670a38 38 0 0 1 9.52-7.4l3.31-1.93 1.75-1.01q4.6-2.66 9.17-5.36l1.87-1.1a726 726 0 0 0 24.72-15.5q4-2.56 8.04-5.09a1013 1013 0 0 0 33.41-22.01l3.03-2.08 2.67-1.84c4.3-2.87 7.52-4.94 12.7-5.56 30.09-4.59 61.44-17.2 88.82-30.19q5.13-2.38 10.28-4.71c18.57-8.46 37.01-17.11 54.99-26.76l9.32-4.96a1285 1285 0 0 0 36.77-20.2 406 406 0 0 1 13.09-7.23l2.42-1.28C683 505 683 505 686 506" fill="#ECEEEC"/><path d="M994.8 90.87h19.73c4.81.18 9.28.79 13.9 2.13 3.57 1 3.57 1 7.38 1.38 5.1.56 9.5 2.6 14.2 4.62l5.05 2c7.26 2.92 14.21 5.99 20.94 10l2.62 1.57L1081 114l2.12 1.2c10.11 6.33 19.81 14.02 27.88 22.8l2.81 2.69c6 6.34 7.68 12.84 7.5 21.38-.76 7.25-5.35 11.67-10.75 16.26-5.39 3.52-11.5 4.02-17.8 3.49A46 46 0 0 1 1082 178q-1.57-.75-3.19-1.5a49 49 0 0 1-6.8-4.5l-4.39-2.87a73 73 0 0 1-7.75-5.75c-4.8-3.98-10.26-6.68-15.87-9.38l-2.44-1.2c-7.94-3.76-15.7-6.84-24.56-6.8l-2.23-.5c-4.05-.73-8.04-.68-12.15-.68l-2.5-.04c-5.13-.01-9.26.6-14.12 2.22l-3.32.69c-5.23 1.86-9.24 5.04-13.68 8.3l-3.32 2.14a39 39 0 0 0-9.37 9.19l-1.3 1.68h-2l-.76 2c-1.25 3-2.67 5.86-4.16 8.75A191 191 0 0 0 944 189c-12.03 28.03-12.03 28.03-20 38q-1.03 1.8-2 3.63c-1.9 3.2-3.09 4.3-6 6.37l-1.32 2.32c-1.94 3.09-4.14 4.93-6.94 7.23-1.74 1.45-1.74 1.45-4.06 3.77a245 245 0 0 1-7.75 7.37L893.4 260a27 27 0 0 1-6.4 4q-3.85 2.3-7.66 4.66C877 270 877 270 874 271c.64 3.06 1.67 5.5 3.18 8.23a313 313 0 0 0 4.05 7.42 80 80 0 0 1 6.15 14.39 69 69 0 0 0 2.68 6.9c2.01 4.94 3.05 9.83 3.94 15.06q.9 4.63 2 9.19a87 87 0 0 1 1.96 20.72c.04 2.35.3 4.63.56 6.97.63 6.74.4 13.37.1 20.12l-.13 3.62q-.41 10.71-1.49 21.38-.14 1.6-.32 3.24l-.25 2.5a87 87 0 0 0-.43 9.39V423l-1 1a61 61 0 0 0 0 4.07c.03 3.08-.07 6-.5 9.06-.5 3.87-.5 3.87-.5 7.44 0 3.43 0 3.43-.5 6.75a71 71 0 0 0-.44 11.64C893 465 893 465 892 466a230 230 0 0 0-.14 8.7v24.78l.01 2.4v2.13c.13 2.1.58 3.96 1.13 5.99q.36 3.78.62 7.57c.4 2.5 1.2 4.19 2.38 6.43v5q.95 3 2 6a155 155 0 0 1 3 16q.45 2.13.93 4.25a165 165 0 0 1 3.85 26.59c.22 3.16.22 3.16.78 7.04.36 2.55.47 4.8.44 7.37 0 3.75 0 3.75 1 6.75q.13 2.78.12 5.54l.01 3.44v45.64C908 660 908 660 907 662l2.22.66q5.09 1.5 10.15 3.03l3.5 1.03c20.18 6.1 20.18 6.1 25.13 14.28-.2 2.95-.65 4.56-2.5 6.88l-1.94 1.69q-.93.81-1.87 1.69c-7.5 4.87-16 6.72-24.69 8.37q-1.64.3-3.33.64c-16 3-31.39 4.04-47.67 3.73v-1l2.55-.18 3.32-.25q1.63-.14 3.31-.25C878 702 878 702 880 701q2.27-.23 4.56-.36c11.08-.71 21.91-1.85 32.81-4.01l3.07-.6c18.4-3.83 18.4-3.83 23.56-10.03.4-2.8.23-5.14 0-8l-2.17-.85a173 173 0 0 1-5.42-2.3c-8-3.51-15.96-5.77-24.4-7.85l-8-2v-1.76c.31-88.17.31-88.17-10.2-129.54-4.2-16.62-5.2-32.24-5.19-49.32V481c.01-26.93 1.23-54.26 4.92-80.96.65-5 .64-10 .66-15.02l.02-3.18.02-6.65q.02-4.98.07-9.96c.15-30.6-4.88-60.65-22.06-86.55-1.58-3.37-1.47-6.01-1.25-9.68l3.07-1.65c20.4-11.1 37.55-25.5 49.93-45.35l1.6-2.56c4.78-7.9 8.44-16.08 11.96-24.56 9.07-21.83 20.3-40.06 42.75-49.81 7.41-2.96 14.31-4.44 22.25-4.38h2.36c23.86.47 44.36 10.82 63.22 24.54 8.75 6.35 17.63 12.38 28.8 12.27l2.12-.02c5.87-.2 9.84-1.24 13.94-5.48 3.52-3.92 5.3-7.57 5.62-12.87-.57-9.85-6.7-17.57-13.62-24.13-23.52-20.12-51.52-33.95-82-39-.48-.1-.48-.1-2.86-.53-5.82-.87-11.7-.71-17.58-.72h-2.05c-9.86.02-19 .4-28.5 3.25l-3.67 1c-14.5 4.33-27.17 11.8-38.34 22l-2.32 2.08c-14.3 13.48-22.62 31.2-30.84 48.75-7.4 15.73-15.49 28.85-27.84 41.17l-2.2 2.24c-6.73 6.4-14.79 11.15-22.8 15.76l-1.97 1.19c-8.92 5.03-16.99 2.6-26.4 0a181 181 0 0 0-51-6.56h-2.59c-12.88.09-25.42.6-38.04 3.37l-2.76.59c-41.9 9.1-81.42 27.73-119.1 47.76q-5.32 2.8-10.68 5.54-.97.5-1.99 1l-4.02 2.07a1222 1222 0 0 0-31.59 16.75A896 896 0 0 1 534.5 313q-11.04 5.72-21.94 11.69a2971 2971 0 0 1-39.76 21.3l-10.4 5.52c-26.96 14.27-26.96 14.27-36.4 16.49a169 169 0 0 1-5.69-17.56c-12.37-44.07-12.37-44.07-21.8-50.25-3.87-1.31-6.46-1.53-10.5-1.2-10.85 6.07-18.62 17.68-26.14 27.26L358 331l-1.9 2.34c-5.97 6.64-10.85 8.22-19.54 9.29q-3.6.55-7.19 1.13l-3.7.59a200 200 0 0 0-17.55 4.15l-3.3.9c-6.57 1.83-12.79 3.92-18.92 6.95-9.9 2.22-20.86-4.47-29.72-8.35l-4.5-1.94-8.25-3.58c-6.8-2.93-11.95-4.53-19.43-3.48-2.95 1.3-3.85 2.4-6 5-8.16 23.36 1.32 59.58 9.06 82.1 1.41 4.37 2.02 8.83 2.75 13.34 2.96 17.36 6.44 34.18 12.12 50.88l1.24 3.66c7.21 20.56 19.61 32.45 38.7 42.09q2.05.98 4.13 1.93c-4.4 9.94-13.3 18.66-20.36 26.89a368 368 0 0 0-7.08 8.6 260 260 0 0 1-12.14 13.75 250 250 0 0 0-7.53 8.38c-4.6 5.28-9.55 10.22-14.5 15.17l-4.88 4.93c-9.05 9.09-18.48 17.62-29.5 24.28l-1.75 1.14c-3.42 1.3-6.9 1.2-10.5 1.3-8.09.36-14.96 1.09-21.32 6.77-5.34 6.6-8.88 15.06-8.72 23.58a23.5 23.5 0 0 0 7.46 14.59c3.9 3.02 8.1 4.4 12.82 5.62l1.9.52c16.88 3.87 31.04-2.73 45.1-11.52-1.88 5.75-1.88 5.75-3 8q-.34 3.56-.57 7.13l-.25 3.88L211 704h-2c-1.24-2.47-1.14-4.18-1.13-6.93v-2.66C208 692 208 692 209 689l-2.79 1.46c-12.72 6.6-24.43 9.97-38.79 6.74-8.14-2.8-16.2-7.63-20.63-15.3-2.99-7.2-2.96-16.22-.16-23.54C151 650.8 158.7 642.12 167 639a34 34 0 0 1 13.68-.37c6.97.79 12.46-3.77 17.9-7.67 2.97-2.41 5.3-5.1 7.71-8.05 2.26-2.53 4.81-4.38 7.56-6.33 6.66-4.9 12.4-10.74 18.02-16.76l2.01-2.12 1.92-2.05 1.72-1.84A28 28 0 0 0 241 588c1.84-1.74 1.84-1.74 3.93-3.43A28 28 0 0 0 252 576q1.68-1.74 3.41-3.43a149 149 0 0 0 18-21.62q1.73-2.51 3.6-4.95h2l.42-1.81q.7-2.62 1.57-5.2l-3.63-1.17c-4.29-1.6-6.96-3.8-10.37-6.82l-1.9-.92c-11.88-6.1-20.15-18.87-24.23-31.14l-.97-3.08q-1.15-3.63-2.53-7.17a129 129 0 0 1-3.37-10.7l-1.63-4.61A25 25 0 0 1 231 464q-.69-2.45-1.43-4.9c-.96-3.5-1.5-7.07-2.1-10.64C227 446 227 446 226 443q-.26-2.15-.44-4.31a47 47 0 0 0-2.56-10.7 265 265 0 0 1-1.54-8.4c-.4-2.23-.9-4.4-1.46-6.6q-.49-2.35-.94-4.74a144 144 0 0 0-2.13-9.37c-.96-4-1.47-7.8-1.93-11.88l-.5-2.5c-.57-2.8-.9-5.6-1.22-8.43-.28-2.07-.28-2.07-.78-4.4-1.65-8.75-2.84-21.44 2-29.23 3.2-3.65 6.72-6.32 11.5-7.44 10.15-.32 19.01 3.78 28 8 24.5 11.49 24.5 11.49 31.22 9.27q2.53-1.05 5.02-2.15c3.87-1.57 7.83-2.47 11.9-3.41 2.86-.71 2.86-.71 5.8-1.7a89 89 0 0 1 9.81-2.51l3.72-.77L325 341l2.71-.56c3.45-.71 6.9-1.38 10.4-1.9l3.2-.47 2.92-.41A21 21 0 0 0 352 334l.93-1.87c1.07-2.13 1.07-2.13 4-4.56 2.94-2.47 4.25-4.27 6.07-7.57a68 68 0 0 1 6-7l2.62-3.18c11.22-13.15 11.22-13.15 18.5-14.1 4.73-.2 8.11.12 11.88 3.28v2l1.83.77c5.28 3 7.5 9.68 9.17 15.23q.98 2.5 2 5a138 138 0 0 1 5.43 16.38 88 88 0 0 0 3.13 9.75 63 63 0 0 1 3.01 10.99C427 361 427 361 428 363l-1 2 8.62-3.75 2.45-1.05A74 74 0 0 0 451 353q3.47-1.54 7-3 3-1.47 6-3l1.94-.93A94 94 0 0 0 478 339q1.98-1.02 4-2l1.92-.96 1.95-.97 2.11-1.06 5.2-2.57a92 92 0 0 0 5.32-2.94c2.76-1.66 5.61-3.05 8.5-4.5l3.5-2c3.1-1.8 6.28-3.4 9.5-5q2.18-1.2 4.37-2.43c3.48-1.96 7.01-3.77 10.6-5.53 3.01-1.54 5.96-3.21 8.92-4.88q2.68-1.47 5.42-2.78c2.7-1.38 2.7-1.38 4.58-2.86a23 23 0 0 1 6.48-3.2c5.8-2.23 11-5.27 16.33-8.41 3.05-1.77 6.13-3.37 9.3-4.91 7.42-3.65 7.42-3.65 10.37-5.43 4.08-2.44 8.36-4.47 12.63-6.57l3.12-1.56 19.84-9.92 5.85-2.94 2.62-1.33 2.31-1.17q2.4-1.14 4.88-2.12c2.38-.96 2.38-.96 4.94-2.52 2.32-1.37 3.85-1.82 6.44-2.44q2.97-.9 5.93-1.87l3.1-1A47 47 0 0 0 676 239c2.07-.84 2.07-.84 4.12-1.5l2.34-.74q5.46-1.6 10.96-3.01c2.58-.75 2.58-.75 5.13-1.77a39 39 0 0 1 6.82-1.98 96 96 0 0 0 8-2c4.06-1.12 8.12-1.84 12.27-2.53C728 225 728 225 730 224q2.33-.27 4.68-.43c4.46-.36 8.83-.94 13.25-1.63 6.18-.85 12.21-1.12 18.44-1.12l2.48-.01c4.76.05 9.4.37 14.12.95 3.47.42 6.96.62 10.45.86 2.77.4 4.98 1.34 7.58 2.38 2.5.35 2.5.35 5 .5 3.74.32 6.54.99 10 2.5q3.39.79 6.81 1.44c2.2.56 2.2.56 4.1 1.63 2.88 1.29 4.94 1.23 8.1.93 3.02-1.17 3.02-1.17 6.05-2.75l3.03-1.54A60 60 0 0 0 852 222l2.37-1.37a57 57 0 0 0 7.87-6.1q2.34-2 4.76-3.9c13.93-12.2 23.42-29.52 30-46.63a208 208 0 0 1 7-15l.8-1.78c1.82-3.37 4.11-6.4 6.38-9.47l1.5-2.02c7.85-10.57 7.85-10.57 11.32-13.73h2l.62-1.7c1.9-3.15 4.53-5.07 7.44-7.23q.88-.68 1.78-1.35A88 88 0 0 1 950 103l3.1-1.52c9.78-4.68 19.26-7.51 29.9-9.48l2.22-.52a55 55 0 0 1 9.58-.61" fill="#E6E6E8"/><path d="m226 338 1 4 1.84.3a318 318 0 0 0 5 .87c8.4 2.2 15.59 6.01 22.85 10.71l2.43 1.52c4.88 3.12 9.91 6.34 13.88 10.6v2c-1.76 1.55-1.76 1.55-4.12 3.31l-2.49 1.89L264 375c-4.27 3.23-7.07 6.5-10 11l-2.4 3.41c-8.44 12.06-12.81 24.47-16.6 38.59h-3c-6.12-19.37-10.54-37.63-11-58l-3 1-1 5h-1c-3.32-23.78-3.32-23.78 2-33 4.64-5 4.64-5 8-5" fill="#272825"/><path d="M400 303v3l2-4c7.44 11.22 11.63 23.66 15.94 36.31l.96 2.81.88 2.62.79 2.34C421 348 421 348 420 350c-.28 4.6.32 8.31 1.55 12.73.86 4.38.6 8.83.45 13.27l-2.16-2.21c-6.18-6.07-12.52-12.02-20.84-14.79v-2l-2.25-.38C394 356 394 356 392.06 355c-2.63-1.28-5.17-1.61-8.06-2v-2l-3.44-.11c-14.86-.61-14.86-.61-21.56-3.89 1.45-3.8 3.16-7.38 5-11l2.69-5.38L369 326h2l.75-2.12c3.38-7.77 10.05-17.65 18.02-21.07 3.91-.82 6.4-1.09 10.23.19" fill="#252623"/><path d="M816 577c13.37 5.93 27.6 19.41 33.18 32.85 1.07 3.03 1.98 6.05 2.82 9.15l.69 2.51c2.05 9.08 2.07 19.22 1.31 28.49-1.63 1.63-3.63 1.12-5.88 1.19-4.71.34-7.62 1.44-11.62 3.93-5.73 3.47-10.08 3.25-16.5 1.88-.2-5.47.19-10.52 1-15.94 2.36-16.97 2.11-34.41-2-51.06l-.87-3.86q-1.03-4.58-2.13-9.14" fill="#EAECEB"/><path d="M359 565c2.18.36 2.18.36 4 1a159 159 0 0 1-17.76 18.29 378 378 0 0 0-12.18 11.15l-2.2 2.07L324 604c-17.44 16.48-17.44 16.48-24.68 22.93q-3.9 3.5-7.76 7.07a298 298 0 0 1-13.96 11.86 157 157 0 0 0-6.85 6.02c-18.1 16.31-18.1 16.31-30.37 16.18l-2.43-.01L232 668c3.92-4.13 8.14-7.53 12.69-10.94l4.57-3.46 2.37-1.8a1077 1077 0 0 0 30.61-24.12q6.33-5.16 12.76-10.18c6.51-5.08 12.91-10.28 19.31-15.5q4.49-3.65 9-7.25a989 989 0 0 0 24.11-19.85 204 204 0 0 0 6.82-5.97c1.82-1.68 1.82-1.68 4.76-3.93" fill="#E9E9EC"/><path d="M740.4 698.33a3232 3232 0 0 0 35.19 1.86l9.85.48a13175 13175 0 0 1 33 1.72L830 703v1c-22.21.45-44.36-.18-66.55-1.21l-6.46-.3c-14.61-.68-29.21-1.42-43.8-2.36-29.83-1.88-59.56-2.43-89.45-2.44l-9.13-.01a1485 1485 0 0 0-118.01 4.72A482 482 0 0 1 451 704v-1c17.3-2.05 34.6-3.28 51.98-4.4q8.61-.56 17.22-1.24c73.08-5.76 147.1-3.34 220.2.97" fill="#EBEDEB"/><path d="M406 450c1.76 1.52 1.76 1.52 3 3l-2.2 1.39-2.92 1.86-3.05 1.93q-3.14 2.02-6.21 4.13A38 38 0 0 1 387 466l-3 2c-2.04.2-2.04.2-4.19.12L376 468l2 3-9.57 5.47c-3.5 1.56-5.65 1.85-9.43 1.53-.28-3.46-.36-5.42 1.5-8.41 4.19-4.51 7.86-8.05 13.5-10.59h3v-2c8.88-4.35 18.82-8.9 29-7" fill="#141615"/><path d="M766.38 220.81h2.48c4.75.04 9.4.37 14.12.94 3.47.42 6.95.63 10.44.87 2.78.41 4.99 1.34 7.58 2.38 2.5.34 2.5.34 5 .5 3.75.31 6.53 1 10 2.5q2.18.5 4.38.93A52 52 0 0 1 832 233l-1 2c-7.76-.9-15.28-2.9-22.87-4.74-14.49-3.43-28.37-4.64-43.2-4.57h-2.6c-19.94.08-37.87 2.9-57.13 8A86 86 0 0 1 693 236c3.37-5.06 9.13-5.3 14.78-6.5a90 90 0 0 0 5.6-1.5c4.05-1.12 8.12-1.84 12.26-2.54C728 225 728 225 730 224q2.34-.28 4.68-.44c4.47-.36 8.84-.94 13.25-1.63a136 136 0 0 1 18.45-1.12" fill="#DCDCE0"/><path d="M354.5 488.69c1.5 2.3 1.5 2.3 1.44 4.8-.94 2.5-.94 2.5-2.5 4.45-1.44 2.06-1.44 2.06-1.38 5.13-.06 2.93-.06 2.93-1.75 4.87C348 509 348 509 345.44 509c-3.23-1.32-3.71-3.02-5.44-6-3.19-2.31-3.19-2.31-6-4 .12-3.25.12-3.25 1-7 5.38-4.54 13.07-7.65 19.5-3.31" fill="#666"/><path d="m593 695-1 2-3.14.14q-33.25 1.43-66.48 3.36l-3.15.18c-11.5.67-22.98 1.44-34.47 2.41-8.13.67-16.16 1.2-24.32 1.03l-2.84-.02q-3.3-.03-6.6-.1v-1a728 728 0 0 1 40.03-3.62q10.49-.71 20.97-1.38l3.32-.21c54.06-3.44 54.06-3.44 77.68-2.79" fill="#E6E8E7"/><path d="M895 354h1l.08 2.56.29 9.6.13 4.12c.23 7.76.56 15.47 1.34 23.2.25 3.93-.29 7.64-.84 11.52-1.07 10.08-1.07 10.08-1 15.12V423l-1 1a61 61 0 0 0 0 4.06c.04 3.08-.07 6.01-.5 9.06-.5 3.88-.5 3.88-.5 7.44 0 3.44 0 3.44-.5 6.75a50 50 0 0 0-.38 8.69c.08 4.76-.93 7.8-3.12 12h-1c-.35-13.06.6-25.97 1.65-38.98l.84-10.61.54-6.82.25-3.17c.34-4.19.69-8.36 1.26-12.52.55-4.63.69-9.21.78-13.87l.06-2.79.18-8.74.13-5.96z" fill="#D9D9DC"/><path d="m284 475 .75 3.62c1.63 6.45 4.89 10.51 10.25 14.38-7.67.87-14.92-2.09-21.14-6.53-1.67-1.53-1.67-1.53-3.86-4.47.13-2.07.13-2.07 1-4a20.8 20.8 0 0 1 13-3" fill="#E2C067"/><path d="M217 382h1l.29 1.89a372 372 0 0 0 7.55 37.55A282 282 0 0 1 230 441l.62 3.23c.77 4.04 1.38 7.64 1.38 11.77h-3l-.4-2.08-.54-2.73-.52-2.71C227 446 227 446 226 443q-.26-2.15-.44-4.31c-.39-3.83-1.32-7.04-2.56-10.69q-.83-4.2-1.54-8.41c-.4-2.24-.9-4.39-1.46-6.59l-.94-4.75a171 171 0 0 0-2.12-9.5c-1.63-6.51-2.14-10.27.06-16.75" fill="#DDDDDF"/><path d="M372 461a27 27 0 0 1 2.62 3.81l1.36 2.15C377 469 377 469 377 472a434 434 0 0 1-5.62 3l-3.17 1.69c-3.35 1.37-5.63 1.57-9.21 1.31-.32-3.58-.37-5.44 1.64-8.48l4.32-4.57c4.13-3.95 4.13-3.95 7.04-3.95" fill="#ECC66A"/><path d="M748 223q3.21.22 6.42.32l7.77.24 4 .13 9.81.31v1l-2.51.04c-23.58.47-45.42 2.59-68.29 8.66A87 87 0 0 1 693 236c3.37-5.05 9.13-5.3 14.79-6.5 1.88-.42 3.74-.95 5.59-1.5 4.06-1.12 8.11-1.84 12.26-2.54C728 225 728 225 730 224q2.68-.3 5.38-.5c5.24-.4 5.24-.4 7.78-1.09C745 222 745 222 748 223" fill="#EEEEF1"/><path d="M995.05 90.9h2l6.26.04 4.27.01L1018 91v3l-2.6.04q-4.92.1-9.82.22l-4.2.08c-12.92.22-25.1 1.88-37.38 6.16l-3.56 1.22A197 197 0 0 0 950 106v-3a125 125 0 0 1 33-11l2.2-.52c3.33-.57 6.47-.59 9.85-.58" fill="#EBECED"/><path d="M905 597c2.69 4.04 3.13 6.76 3.16 11.51l.04 7.11.02 3.79.02 7.95.06 10.17.03 9.72.04 3.68-.01 3.43.01 3.02C908 660 908 660 905 664z" fill="#F0F2F1"/><path d="M467 349c-9.51 5.16-19.05 10.17-28.94 14.56l-2.27 1.01A54 54 0 0 1 426 368a85 85 0 0 1-5-18h3c1.47 4.3 2.9 8.59 4 13l-1 2q4.32-1.86 8.62-3.75l2.45-1.05A74 74 0 0 0 451 353q3.46-1.58 7-3l2.69-1.25c2.63-.85 3.72-.51 6.31.25" fill="#E4E5E7"/><path d="m214 682 1 2-1.39 2.66c-1.82 3.77-2.1 6.56-2.3 10.72l-.2 3.77L211 704h-2c-1.24-2.47-1.13-4.18-1.12-6.94l-.01-2.65C208 692 208 692 209 689l-2.78 1.5c-10.74 5.66-18.08 6.95-30.22 5.5v-1l2.61-.04c13.82-.56 24.12-5.13 35.39-12.96" fill="#CACDCC"/><path d="M895 354h1l.08 2.56.29 9.6.13 4.12c.23 7.76.56 15.47 1.34 23.2.25 3.93-.29 7.64-.84 11.52a141 141 0 0 0-1 18l-2 1c-1.21-7.83-1.59-15.7-.51-23.57.61-4.8.73-9.57.83-14.4l.06-2.79.18-8.74.13-5.96z" fill="#D9DADC"/><path d="m218 614 2 1c-9.11 9.46-18.71 18.18-30 25l-1.77 1.15c-3.29 1.25-6.52 1.06-9.98.97l-2.11-.02-5.14-.1v-1l2.27-.04c11.05-.52 19.51-4.61 27.73-11.96a188 188 0 0 0 5.2-6.04A41 41 0 0 1 218 614" fill="#E6E9E6"/><path d="M901 556c2.37 2.37 2.31 3.14 2.56 6.38.19 2.23.36 4.32.94 6.48.7 2.97.82 5.91 1 8.95.49 7.54.49 7.54 1.12 11.25.38 2.94.38 2.94-.06 5.07-.76 3.88-.92 7.74-1.12 11.68l-.13 2.39-.31 5.8h-1l-.04-2.01c-.33-13.47-1.02-26.73-3.03-40.07-.81-5.61-.92-10.33.07-15.92" fill="#D9DADB"/><path d="M147 675c2 3 2 3 3.62 6.31 4.16 7.1 9.94 9.81 17.69 12A91 91 0 0 0 187 696v2c-13.38.77-24.1-.38-34.69-9.56-2.75-2.61-4.97-4.86-6.31-8.44.38-2.75.38-2.75 1-5" fill="#DCDDDD"/><path d="m765.81 220.88 2.58-.01c7.14 0 14.7.19 21.61 2.13l1 2c-14.35.22-28.67-.44-43-1 4.35-4.35 12-3.16 17.81-3.12" fill="#F1F1F3"/><path d="M297.55 469.8c8.34-.25 16.76-.15 23.21 5.83L322 477h-2v5h-1v-6c-12.37-3.87-23.86-3.33-36.36-.7-3 .58-5.59.84-8.64.7 5.83-5.83 15.81-5.77 23.55-6.2" fill="#040503"/><path d="m494 581 2 1-1.5 1.05-6.75 4.76-2.36 1.66-2.28 1.61-2.1 1.48A321 321 0 0 0 475 597l2 2c-4.5 2.25-8.08 2.17-13 2a26 26 0 0 1 9.32-8.26l3.06-1.7 3.18-1.73 6.26-3.45 2.79-1.52C491 583 491 583 494 581" fill="#040504"/><path d="m213 347 2 1 .08 1.71q.17 3.9.36 7.79l.12 2.69c.19 4.05.43 8.06.97 12.09.42 3.3.57 6.4.53 9.72l-.02 2.88L217 387l-3-1 .06-2.69A43 43 0 0 0 213 375v-5l-1-1q-.14-2.32-.13-4.66l-.01-2.84.02-3-.02-3 .01-2.84v-2.63C212 348 212 348 213 347" fill="#E8EAE9"/><path d="M890 471h1a189 189 0 0 1 1 23.44q-.04 3.15-.06 6.31l-.04 2.77A25 25 0 0 0 893 510h-3c-1.58-3.16-1.14-6.56-1.13-10.04l-.01-2.4.01-5.04-.01-7.73.01-4.89-.01-2.35c.03-5.44.03-5.44 1.14-6.55" fill="#EBEDEC"/><path d="M395 298c3.38 1.19 3.38 1.19 6 3 .88 2.69.88 2.69 1 5h-2v-3c-12.76 1.63-12.76 1.63-17.12 3.69C380 308 380 308 377 307q2.5-2.28 5.06-4.5l2.85-2.53c3.72-2.37 5.76-2.43 10.09-1.97" fill="#181919"/><path d="M217 382h1l.34 2.08 1.54 9.42.52 3.27c.77 4.63 1.54 9.22 2.72 13.76.95 3.73 1.04 6.66.88 10.47h-2a129 129 0 0 1-3.56-15.25c-1.31-7.37-1.31-7.37-2.44-10.75-1.24-4.94-.63-8.2 1-13" fill="#E1E1E4"/><path d="M895 341h2c.8 3.99 1.03 7.71.96 11.77.04 2.4.31 4.72.6 7.11.82 8.03.01 16.09-.56 24.12h-2z" fill="#F2F2F4"/><path d="m284 475 .75 3.62c1.63 6.45 4.89 10.51 10.25 14.38-7.43.29-7.43.29-11-2l2-1v-4h-2v-4h-2l1-4h-3l-1 2-5-2v2h-2l-1 3-1-4c9.41-4.59 9.41-4.59 14-4" fill="#C4B16F"/><path d="m361.34 565.21 1.66.8a363 363 0 0 1-6 7l-1.97 2.27A43 43 0 0 1 349 581c-3.5 0-3.5 0-6-1q5.2-5.26 10.56-10.38l2.82-2.7c2.62-1.92 2.62-1.92 4.96-1.7" fill="#E5E6E6"/><path d="M370 461h2a27 27 0 0 1 2.62 3.81l1.36 2.15C377 469 377 469 377 472a434 434 0 0 1-5.62 3l-3.17 1.69c-3.35 1.37-5.63 1.57-9.21 1.31-.25-2.75-.25-2.75 0-6 2-2.38 2-2.38 4-4l-1 6h3l1-2h2v2l3-2h3v-4h-2z" fill="#D0B775"/><path d="M846 700h27v1l5 1v1c-10.99 1.27-21.96 1.1-33 1v-1l13-1-12-1z" fill="#CBCDCB"/><path d="M1105 133c5.49 3.72 9.54 7.32 13 13l1.81 2.62c1.89 5.36 1.42 10.76 1.19 16.38h-2l-.04-2.05c-.57-11.14-4.73-18.21-12.39-26.14C1105 135 1105 135 1105 133" fill="#E6E6E7"/><path d="M237 477c2.35 4.51 3.98 9.22 5.69 14l1.01 2.73.94 2.65.86 2.39c.55 2.46.31 3.87-.5 6.23-3.41-2.28-3.52-2.84-4.5-6.62a66 66 0 0 0-3.25-9.5c-1.67-4.24-1.12-7.46-.25-11.88" fill="#DADCDC"/><path d="M408 449v2l-2.02-.11c-7.19-.21-13.17.89-19.98 3.11l-2.69.87q-3.16 1.03-6.31 2.13v2c-3.47 2.11-3.47 2.11-6.14 1.56L369 460c12.91-9.05 23.56-11.71 39-11" fill="#040503"/><path d="m1118 164 2 1c-1.1 5.92-5.32 9.65-9.88 13.31-3.72 2.01-6.99 2.83-11.12 3.69l-1-2c-2.56-.62-2.56-.62-5-1v-1l2.34-.04c7-.32 12.45-1 17.66-5.96a54 54 0 0 0 5-8" fill="#E1E1E4"/><path d="M226 338c.88 2.06.88 2.06 1 5-2.46 3.78-5.82 6.83-9 10-1.62-3.23-1.48-5.43-1-9 2.34-2.81 5.18-6 9-6" fill="#1C1E1D"/><path d="M890 510h2a230 230 0 0 0 .88 4.75l.49 2.67c.6 2.46 1.49 4.34 2.63 6.58q.06 2.5 0 5l1 2h-2l-1 4-2-9.12-.58-2.6c-.97-4.51-1.66-8.64-1.42-13.28" fill="#E1E1E4"/><path d="m1083 115 5.43 4.08q2.84 2.11 5.7 4.18l1.63 1.19 4.7 3.4c2.38 2.01 3.46 3.28 4.54 6.15-4.52-1.96-8.15-5.14-11.96-8.19A84 84 0 0 0 1081 118l2-1z" fill="#DDDDDF"/><path d="m854.19 222.38 1.8.62c-16.88 12.47-16.88 12.47-25 12 1.32-2.6 2.4-2.74 5.08-3.81 4.76-2.03 13.37-9.62 18.12-8.81" fill="#E7E8EA"/><path d="M792 223c4.91.42 9.45 1 14 3l1 3c-7.7-.8-15.34-1.88-23-3v-1l3.44-.44C791 224 791 224 792 223" fill="#E0E0E2"/><path d="M879 287c3 1 3 1 4.38 3.69 2.37 6.04 4.47 12.19 6.62 18.31h-3l-4-9.31-1.16-2.67-1.09-2.57-1.02-2.37C879 290 879 290 879 287" fill="#EBEBEC"/><path d="M748 223q3.21.22 6.42.32l7.77.24 4 .13 9.81.31v1l-39 1v-2c7.62-2.12 7.62-2.12 11-1" fill="#B2B2B3"/><path d="M397 296c3.06 1.5 3.06 1.5 5 3l-3 2-1.56-1c-3.43-1.41-5.75-1.44-9.44-1a47 47 0 0 0-7 5v-3c5.32-4.76 8.99-5.73 16-5" fill="#E3E6E3"/><path d="M995 142q5.81-.08 11.62-.12l3.32-.06c10.04-.06 10.04-.06 15.06 2.18l-1 2c-4.17.08-7.93-.07-12-1h-2v-2h-15z" fill="#E3E5E2"/><path d="m737 224-1 3-7.25 1.5-2.07.43A46 46 0 0 1 717 230v-2c3.54-2.13 6.94-2.47 11-3l2-1c4.67-1.17 4.67-1.17 7 0" fill="#E2E2E4"/><path d="m227.75 336.38 2.42.33 1.83.29v1l-2.05.3c-7.22 1.2-7.22 1.2-10.45 3.38-1.93 2.97-2.71 5.88-3.5 9.31-2-3-2-3-1.87-5.37 1.28-3.83 3.26-6.6 6.71-8.79 2.59-1 4.18-.85 6.91-.45" fill="#D9DCDA"/><path d="m917 232 1 2c-2.73 6.83-8.14 10.91-14 15l-2-1 2.52-2.48 3.29-3.27 1.66-1.63A62 62 0 0 0 917 232" fill="#E1E2E4"/><path d="m196 633 2 2-4.88 2.94-2.74 1.65c-4.16 2.46-7.25 2.53-12 2.47l-2.15-.01L171 642v-1l2.27-.04c9.06-.42 15.26-2.98 22.73-7.96" fill="#CCCFCC"/><path d="M405 456v2a96 96 0 0 1-6.31 4.12l-1.81 1.13c-4.5 2.75-4.5 2.75-7.88 2.75v2l-7 2v-2a42 42 0 0 1 9.38-5.44c3.6-1.55 6.66-3.4 9.92-5.57 1.7-.99 1.7-.99 3.7-.99" fill="#050906"/><path d="M321 478c2 1.19 2 1.19 4 3 .25 2.69.25 2.69 0 5q-2.15 1.04-4.31 2.06l-2.43 1.16C316 490 316 490 313 489l2.31-1c3.8-2.83 4.3-5.53 5.69-10" fill="#D2BE7B"/><path d="M893 416h1l1 17-2 1-2 3 .68-15.53.11-2.52C892 417 892 417 893 416" fill="#D8D8DB"/><path d="M741 699c8.38-.15 16.65.32 25 1-2 2-2 2-5.7 2.2q-2.21-.02-4.42-.08l-2.29-.02-5.59-.1v-1l-7-1z" fill="#E6E9E7"/><path d="M890 471h1c1.12 7.62 1.12 7.62 0 11a91 91 0 0 0-.32 4.67l-.12 2.7-.12 2.82-.13 2.85L890 502h-1l-.05-12.76-.03-4.35-.02-6.23-.01-3.79C889 472 889 472 890 471" fill="#F5F7F7"/><path d="m371 462 1 6h2v2h-4v-2h-7c4.62-6 4.62-6 8-6" fill="#ECC66A"/><path d="m375 467 7 1c-1.01 3.02-1.55 4.09-4 6h-4v2h-4v2h-5c3.65-3.04 7.74-4.97 12-7z" fill="#22150A"/><path d="m630 259 3 1c-2.38 2.68-4.85 4.11-8.06 5.69l-2.66 1.32C620 268 620 268 618 268c.69-1.88.69-1.88 2-4 2.31-1.06 2.31-1.06 5-2l2.62-1.69z" fill="#F0EFF0"/><path d="m979 149-4.75 3.38-2.67 1.89A47 47 0 0 1 965 158v-4c3.63-2.94 9.31-7.34 14-5" fill="#EDEDED"/><path d="M478 701v1l-3.44.44C471 703 471 703 470 704q-2.13.13-4.25.1l-2.59-.01-2.72-.03-2.73-.01L451 704v-1l8.44-1 2.37-.29c5.43-.63 10.72-.8 16.19-.71" fill="#DFE2DE"/><path d="M195 690v3c-4.22 2.05-7.65 2.21-12.31 2.12l-3.8-.05L176 695v-1l3.44-.31c4.11-.5 7.79-1.65 11.68-3.07C193 690 193 690 195 690" fill="#060807"/><path d="M368 661c0 3 0 3-2 5.62-3.88 3.08-6.13 3.13-11 3.38 3.61-4.23 8.15-6.47 13-9" fill="#E1E1E1"/><path d="m345 579 3 2c-5.5 5-5.5 5-10 5 .12-1.81.12-1.81 1-4 3.06-1.75 3.06-1.75 6-3" fill="#EFF0F1"/><path d="m169 695 18 1v2a1035 1035 0 0 1-10.14.09c-5.63.02-5.63.02-7.86-1.09z" fill="#EAEFED"/><path d="M893 433c1.07 3.22 1.17 5.67 1.19 9.06l.04 3.23C894 448 894 448 892 450c-1.29-2.57-1.17-4.5-1.19-7.38l-.04-2.89c.23-2.76.82-4.38 2.23-6.73" fill="#F1F1F4"/><path d="M904 654h1l1 9 11 2-1 2-4.31-.44-2.43-.24C907 666 907 666 904 665z" fill="#DCDDDE"/><path d="m963 156 1 3-2.88 2.25c-2.45 2.03-3.99 3.71-5.12 6.75h-2c.59-3.33 1.7-5.17 3.94-7.69l1.59-1.82C961 157 961 157 963 156" fill="#E3E2E4"/><path d="m885.13 700.94 4.88.06v1c-5.25 2.16-9.81 2.24-15.38 2.13l-2.52-.03q-3.06-.03-6.1-.1v-1l2.54-.18 3.33-.26 3.3-.24c3.6-.41 6.2-1.43 9.95-1.38" fill="#DDDEDE"/><path d="M934 671c5.22 1.37 8.35 3.09 12 7 .38 3.81.38 3.81 0 7h-1l-1-7-2.12-.81A122 122 0 0 1 933 673z" fill="#E4E5E4"/><path d="M180 638a19 19 0 0 1 3 3q-3.43.33-6.88.62l-3.86.36-3.26.02-2-2c4.52-2.26 8.04-2.4 13-2" fill="#F0F2F0"/><path d="M221 377h1q.41 3.63.75 7.25l.25 2.07c.31 3.64.34 5.26-1.98 8.16L219 396l.44-8.38.12-2.4c.33-5.99.33-5.99 1.44-8.22" fill="#1C1C1E"/><path d="M808 226a38 38 0 0 1 10 3l1 2c-4.55.18-7.88 0-12-2z" fill="#E6E6E8"/><path d="m287.56 473.94 2.44.06 1 4-1.88.25c-2.12.75-2.12.75-3.37 2.8L285 483c-1.37-2.73-1.13-4.98-1-8 1-1 1-1 3.56-1.06" fill="#1E1712"/><path d="m218 614 2 1-10 10-1-3a64 64 0 0 1 9-8" fill="#DEDEDF"/><path d="M286 487c3.44 1.53 6.12 3.6 9 6-7.43.29-7.43.29-11-2l2-1z" fill="#CEBB84"/><path d="m374 459 4 1v4h-2l-1 3-3-4z" fill="#221C12"/><path d="m1045 151 4.81 2.31 2.71 1.3A19 19 0 0 1 1058 159c-1.7.67-1.7.67-4 1-2.36-1.11-2.36-1.11-4.75-2.75l-2.42-1.61L1045 154z" fill="#DFDFDC"/><path d="m1118 150 3 1v14h-2z" fill="#ECEDEE"/><path d="m431 616 3 4-9 6-1-3 2.94-1.81C430 619 430 619 431 616" fill="#1A1A1C"/><path d="m575 559 1 3-10 4-2-2 4.38-2.5 2.46-1.41C573 559 573 559 575 559" fill="#1C1D1E"/><path d="m213 347 2 1v21h-1l-1.06-10.44-.32-3.01-.28-2.86-.27-2.65L212 348z" fill="#F4F7F4"/><path d="m995.13 91.44 3.88.3 3 .26v1a43 43 0 0 1-10.83 1.06l-2.94-.02L986 94v-2c3.05-1.52 5.75-.84 9.13-.56" fill="#F2F2F4"/><path d="M232 470c1.94.81 1.94.81 4 2 1.28 3.85 1.07 6.95 1 11-2.72-2.01-3.01-3.06-3.62-6.5L233 473z" fill="#EEF0F0"/><path d="m1036 94.69 2.12-.05 1.88.36 2 3c-4.52 1.46-7.52.27-12-1 2.33-2.32 2.85-2.3 6-2.31" fill="#DDD"/><path d="M213 374h2c1.76 4.5 2.19 8.18 2 13l-3-1 .06-2.69A39 39 0 0 0 213 375z" fill="#F1F0F5"/><path d="M301 349c-2.84 2.84-6.13 2.91-10 3-2.26-.48-2.26-.48-4-1 5.2-2.24 8.34-3.56 14-2" fill="#EDEDEF"/><path d="m790 223 1 2h-15v-1c9.79-2.58 9.79-2.58 14-1" fill="#EBEBED"/><path d="m1087 178 13 1c-4 3-4 3-7.62 2.88C1089 181 1089 181 1087 178" fill="#EFF0F1"/><path d="M150 680h2l1.19 2.19c2.4 3.73 5.12 5.37 8.81 7.81l-3 1c-2.01-1.29-2.01-1.29-4.12-3.19l-2.14-1.85c-1.82-2.05-2.35-3.29-2.74-5.96" fill="#090A0A"/><path d="m254 517 3.44 2.88 1.93 1.61C261 523 261 523 262 525l-3 1-6-7z" fill="#ECECEF"/><path d="M217 382h1l1 13h-2c-2.21-5.04-1.85-7.86 0-13" fill="#D7D7DB"/><path d="M219 377h1c1 5.35.85 9.62 0 15-2.18-3.27-2.25-4.27-2.19-8.06l.02-2.66C218 379 218 379 219 377" fill="#0F0F12"/><path d="M892 180h2a60 60 0 0 1-2 8h-2l-1 3c-1-3-1-3-.22-5.04l1.16-2.15 1.15-2.17z" fill="#171719"/><path d="M169 641v2l-1.68.62-2.2.82-2.17.81C161 646 161 646 159 647v-3c6.62-4.12 6.62-4.12 10-3" fill="#E1E1E1"/><path d="M471 601c-1 2-1 2-2.74 2.63l-2.14.49-2.11.51C462 605 462 605 459 605l-1-2c8.43-2.29 8.43-2.29 13-2" fill="#DADADC"/><path d="M422 349a13 13 0 0 1 3.88 4.94c.17 2.86-1.13 3.89-2.88 6.06l-1.06-4.94-.6-2.77L421 350z" fill="#D6D6D8"/><path d="m467 349-10 5 1-4c3.68-2.09 4.75-2.06 9-1" fill="#DDDCE1"/><path d="M895 341h2c1.21 4.94.63 8.21-1 13h-1z" fill="#EFEFF1"/><path d="m355 333 2 3c-4.39 4-4.39 4-6 5l-3-1z" fill="#181819"/><path d="M860 221c-.44 2.38-.44 2.38-2 5a43 43 0 0 1-9 2l5-4 2.19-1.75C858 221 858 221 860 221" fill="#1A1B1A"/><path d="M674 243c-2.23 2.23-3.66 2.69-6.62 3.62l-2.48.79-1.9.59c1-3 1-3 4.38-4.75C671 242 671 242 674 243" fill="#E3E5E3"/><path d="M936 198h1c.37 7.47.37 7.47-1.38 10-1.62 1-1.62 1-3.62 1 1.21-3.72 2.51-7.38 4-11" fill="#D5D5D7"/><path d="M995 142h19l-2 3h-2v-2h-15z" fill="#F5F6F4"/><path d="m308 697 2 1-2.94 1.88C304 702 304 702 303 704h-5c2.8-3.29 6.2-5.06 10-7" fill="#B2B5B3"/><path d="m247 342 8 1 1 4-9-3z" fill="#D8D9DA"/><path d="M882 197c-1.56 3.82-4.04 6.19-7 9l-1-3 2.88-3 1.61-1.69C880 197 880 197 882 197" fill="#DEDEE1"/><path d="m987.95 142.8 6.05.2c-1.76 2.14-2.87 2.96-5.56 3.81l-2.44.2-2-2c2-2 2-2 3.95-2.2" fill="#ECEEEA"/><path d="m924 122 1 4-6 5c.48-4.31 1.75-6.17 5-9" fill="#EBEBED"/><path d="m210 688-3.88 2.5-2.17 1.41C202 693 202 693 200 693c1-3 1-3 3.88-4.75C207 687 207 687 210 688" fill="#DEE1E1"/><path d="M147 675c2.3 3.44 2.54 5.94 3 10-2.06-1.62-2.06-1.62-4-4 .25-3.25.25-3.25 1-6" fill="#DFDFE1"/><path d="m574 564-3 1c-.69 2.06-.69 2.06-1 4l-7-1c7.23-5.89 7.23-5.89 11-4" fill="#E1E1E3"/><path d="M444 484c1 2 1 2 .58 3.91l-.77 2.15-.73 2.16C442 494 442 494 439.89 494.75L438 495c1.45-4.11 3.51-7.43 6-11" fill="#040704"/><path d="M225 402h1v8l-4 1c.75-6.75.75-6.75 3-9" fill="#191A1C"/><path d="m308.94 345.81 2.06 1.2v1q-2.44.57-4.87 1.11l-2.74.64-2.4.24-2-2c6.29-3.2 6.29-3.2 9.95-2.19" fill="#E0E2E1"/><path d="m473 342 1 3c-3.51 2.41-5.73 3.37-10 3 2.7-2.7 5.67-4.15 9-6" fill="#EDEDF2"/><path d="m690.06 234.94 2.94.06 1 2-8 2c0-3.98 0-3.98 4.06-4.06" fill="#E6E6E9"/><path d="m735 223 2 1-1 3h-8l1-3 2.44.06C734 224 734 224 735 223" fill="#EBEBEE"/><path d="m150 682 8 8-3 1c-2.5-2.25-2.5-2.25-5-5z" fill="#D5D6D7"/><path d="M286 624c-1.33 4-3.5 4.84-7 7 .25-2.38.25-2.38 1-5 2.15-1.46 3.4-2 6-2" fill="#171719"/><path d="m245 584 2 1c-.69 1.94-.69 1.94-2 4-2.62.75-2.62.75-5 1z" fill="#EBEBEE"/><path d="M229 448h2l1 8h-3c-1.1-3.29-.8-4.71 0-8" fill="#D2D4D5"/><path d="M294 351v2q-2.17.58-4.38 1.12l-2.46.64-2.16.24-2-2c3.73-1.24 7.06-2 11-2" fill="#E3E3E7"/><path d="M869 699h9l-2 3c-3.62.19-3.62.19-7 0z" fill="#BCBEBC"/><path d="m240 590 3 1-6 7-2-2z" fill="#DCDFDD"/><path d="m369 462 1 3c-1.25 1.56-1.25 1.56-3 3-2.19-.31-2.19-.31-4-1z" fill="#D1BE78"/><path d="m217 395 3 1v8l-2-1q-1.1-3.47-2-7z" fill="#EAEAEE"/><path d="m338 338 7 2v1l-9 1z" fill="#DDDDE1"/><path d="M414 333h2c.81 2.91 1.22 4.46.06 7.31L415 342c-2.09-4.43-2.09-4.43-1.62-7.31z" fill="#1A1A1D"/><path d="M878 268a79 79 0 0 1-7 6v-5c3.62-2.12 3.62-2.12 7-1" fill="#E9ECEA"/><path d="m617 266 2 3-7 3c.25-1.88.25-1.88 1-4 2.06-1.25 2.06-1.25 4-2" fill="#DDDEDD"/><path d="m953 166 2 3h-2l-.81 2.44L951 174l-3 1a29 29 0 0 1 5-9" fill="#D7D7D8"/><path d="m457 352-1 3-7 1c2-3 2-3 4-3.69 2-.31 2-.31 4-.31" fill="#EBE9EE"/><path d="m386 297 2 2-7 5v-3c2.5-2.19 2.5-2.19 5-4" fill="#D7D8D8"/><path d="m909 241 1 2c-2.48 3.45-3.8 5.23-8 6l2.94-3.44 1.65-1.93q1.16-1.36 2.41-2.63" fill="#C7C8CA"/><path d="m918 129 2 3-5 5c-.37-4.55-.37-4.55 1.5-6.81z" fill="#DFDFE1"/><path d="M950 105v2l-8 4v-3c2.89-2.11 4.38-3 8-3" fill="#E1E2E2"/><path d="M820 648h2c.93 2.61 1.15 3.64.06 6.25L821 656l3 1h-4z" fill="#D9DCDB"/><path d="m611 540 4 1-4 4-3-1z" fill="#212121"/><path d="M271 533q3.51.39 7 1l1 2-2 2q-3.03-1.95-6-4z" fill="#EBEEF0"/><path d="m319 484 3 1v2c-2.81 1.56-2.81 1.56-6 3l-3-1 2.44-1.38C318 486 318 486 319 484" fill="#A9A386"/><path d="m265 348 7 3-4 2-4-4z" fill="#E6EBEC"/><path d="m366 320 2 1v3c-1.81 1.75-1.81 1.75-4 3l-3-1z" fill="#1E1E1F"/><path d="m872 273 4 4c-1 2-1 2-3 3l-2-6z" fill="#DCDEDC"/><path d="M922 228c0 3.52-.82 4.37-3 7l-2-1c.81-2.44.81-2.44 2-5z" fill="#EBEBF0"/><path d="m804 225 3 2v2l-9-1z" fill="#D0D0D2"/><path d="M933 208c1.21 3.62.54 4.64-1 8l-3-1c1.07-2.92 1.78-4.78 4-7" fill="#E2DFE3"/><path d="M1093 178h10l-1 3-3 1-1-2c-2.56-.62-2.56-.62-5-1z" fill="#C1C1C3"/><path d="M904 585h2l1 7-3 1z" fill="#F2F2F4"/><path d="m359 565 4 1-1 2q-3.47 1.1-7 2z" fill="#D6D8D4"/><path d="m277 488 8 3v1h-8l-1-3z" fill="#26190B"/><path d="M422 356a28 28 0 0 1 3 9h-3z" fill="#1F201F"/><path d="m576 293-1 2c-2.44.75-2.44.75-5 1l-2-2c3.07-1.86 4.6-2.22 8-1" fill="#1F2022"/><path d="m581 284 1 2 2 1-7 3v-3c2-1.69 2-1.69 4-3" fill="#E2E1E3"/><path d="m866 211 2 1c-1.75 3.88-1.75 3.88-4 5l-2-2z" fill="#DDDDE0"/><path d="m1186 698 3 3-3 2-2-3z" fill="#F3F3F5"/><path d="m204 700 3 3-4 1c0-3 0-3 1-4" fill="#D5D7DA"/></svg>