<svg style="background:transparent" version="1.1" xmlns="http://www.w3.org/2000/svg" viewBox="0 0 1248 704"><path d="m517 12 2.5.88c5.3 2.38 10.19 5.2 14.5 9.12v2l2.72.79a22 22 0 0 1 7.72 4.65c4.25 3.54 8.63 6.83 13.12 10.06 5.15 3.72 10 7.57 14.61 11.94A25 25 0 0 0 578 55l2.6 2.03c4.08 2.36 7.33 2.54 11.91 2.49l2.53.02q4.11.02 8.22-.01l5.73.01q5.99.01 11.99-.02 7.68-.03 15.36.02h11.83q2.83-.01 5.66.01 3.96 0 7.92-.03l2.36.02c3.55-.05 5.47-.19 8.25-2.48L674 55q2.49-1.53 5-3c2.74-2.11 5.37-4.32 8-6.56a64 64 0 0 1 8-5.44l1.5-1.5c1.95-1.95 4.14-3.08 6.5-4.5a193 193 0 0 0 10.56-8.12 44 44 0 0 1 6-3.88c3.44-2 3.44-2 5.32-4 5.21-4.91 11.81-6.41 18.76-7.12 5.05.25 8.59 2.77 12.48 5.81l2.58 1.95c4.58 4.69 5.66 9.65 5.61 15.98l-.06 2.32-.02 2.3a88 88 0 0 1-.72 10.51c-.55 4.24-.73 8.44-.83 12.7l-.06 2.37-.12 4.93-.19 7.43c-.2 7.63-.37 15.25-.23 22.88a85 85 0 0 1-.58 7.49 145 145 0 0 0-.6 15.59l.01 2.91.01 6.19.03 9.8.05 20.77.06 24.14.03 9.65.01 5.9.01 2.71c0 12.87-5.49 25.58-14.23 35.1-13.83 12.93-13.83 12.93-22.19 17.5-2.69 2.19-2.69 2.19-3.75 5.31.08 5.04 1.45 9.15 3.06 13.88l.94 3.56c2.21 7.15 5.67 13.79 9.06 20.44l3 6 1.9 3.8 5.07 10.15 2.14 4.2 1.08 2.11.98 1.89A30 30 0 0 1 750 335a357 357 0 0 1 5.25 16.54q1.07 3.46 2.25 6.9a170 170 0 0 1 8.22 40.75q.31 3.07.8 6.12c.53 4.1.63 8.06.6 12.19l.02 2.18c-.01 5.19-.29 10.3-1.7 15.32-.44 2-.44 2-.38 5.38-.06 3.72-.76 6.16-2.06 9.62q-1.04 3.5-2 7l2.09-.66c9.94-2.94 18.21-3.57 27.91.66a67 67 0 0 1 6.41 4.7C799 463 799 463 801 464l-1.02-3.23c-5.8-18.68-8.71-38.43-3.98-57.77 1.43-2.62 1.43-2.62 3-5q1.17-2.16 2.31-4.31c10.41-18.68 27.93-31.57 48.39-37.4 5.7-1.55 11.38-3.04 17.3-3.29l3.44-.16c20.55-.61 43.03 4.24 60.56 15.16l2.65 1.61a349 349 0 0 1 10.41 6.76c5.58 4.2 8.84 10.03 10.94 16.63.37 5.93-1.62 9.96-5.38 14.44-4.41 4.65-8.22 7.32-14.62 8.56-8.06.02-15.1-2.54-22.56-5.31-36.53-13.03-36.53-13.03-51.44-7.13-6.6 3.61-12.59 8.35-15.38 15.51A55.6 55.6 0 0 0 847 447l1.34 5.61a176 176 0 0 0 5.02 16.18c6.97 19.74 8.27 36.41 6.64 57.21l-.16 2.18c-.49 5.01-1.87 9.24-3.84 13.82l-.8 1.87c-3.65 8.21-8 15.68-13.39 22.88l-1.51 2.02c-2.78 3.59-5.51 6.64-9.3 9.23h-2l-.69 1.81c-1.67 2.79-3.48 3.64-6.31 5.19l-1.94 1.5c-4.56 3.32-9.88 5.32-15.06 7.5l-3.56 1.56c-14.97 6.26-14.97 6.26-20.44 4.44l-.79 1.79a21 21 0 0 1-4.52 5.59 76 76 0 0 0-6.31 6.74c-6.32 7.65-13.92 14.68-22.38 19.88l2.06 1.62L752 638l1.68 1.18c5.82 4.37 8.78 10.08 11.32 16.82.58 4.57.38 8.03-2 12-7.51 7.9-14.4 9.46-25 10l-1.95.1c-10.16.47-18.43-.48-28.05-4.1l-5.31-1.75L699 671a89 89 0 0 0 7.69 8.56c3.54 3.73 4.59 7.91 5.62 12.88l.62 2.74c.09 3.62-1.25 5.67-2.93 8.82q-13.56.18-27.12.26-6.3.04-12.6.12-6.08.07-12.15.09-2.32.01-4.64.06-3.24.05-6.5.04l-3.73.03c-4.18-.77-5.63-2.33-8.26-5.6-1.11-3.01-1.11-3.01-1.75-6.12l-.67-3.14L632 687l-1-3a69 69 0 0 1-.12-4.56l-.01-2.38C631 675 631 675 632 673l-.06-2.31C632 668 632 668 634 663h-16l2 4c.2 3.35.2 3.35.12 7.06l-.05 3.73L620 681q0 2.82.12 5.62c-.25 6.83-1.14 12.4-6.12 17.38-3.25.6-3.25.6-7.16.57h-2.15q-3.53-.01-7.05-.08l-4.89-.02q-6.44-.04-12.86-.13l-13.14-.1q-12.87-.08-25.75-.24c-2.13-3.97-2.51-6.43-2-11 1.25-2.89 2.62-5.67 4.1-8.45.9-2.55.9-2.55.23-4.8-2.02-2.66-4.14-3.05-7.33-3.75-1.94.31-1.94.31-4 1-12.95 2.4-28.15 1.52-39.94-4.5-3.33-4.04-4.64-8.3-5.06-13.5 1.69-7.84 6.15-13.68 12-19a93 93 0 0 1 7-4 90 90 0 0 0-8.31-7.69L495 626v-2l-1.77-.24c-2.94-1-4.02-2.49-5.98-4.88a57 57 0 0 0-8-8c-4.05-3.43-7.31-7.39-10.63-11.5l-1.58-1.96c-2.68-3.38-4.56-6.34-6.04-10.42-1.4-2.03-1.4-2.03-2.94-3.94-4.01-5.21-6.46-10.9-9.08-16.9a82 82 0 0 0-2.67-5.28c-1.51-3.33-1.86-6.27-2.31-9.88q-.95-3.01-2-6a61 61 0 0 1-2.75-14.18C439 529 439 529 438 528q-.01-2.85.06-5.7c-.06-2.3-.06-2.3-.55-5.1a66 66 0 0 1-.63-10.76l-.01-3.88A41 41 0 0 1 438 494l.76-3.38c2.97-12 7.28-24.13 17.99-31.31 9.71-5.57 20.7-7.09 31.73-4.79l1.52.48-.94-3.88c-1.2-4.98-1.59-10.02-2.06-15.12l-.57-5.61-.55-5.7-.31-2.92-.27-2.82-.25-2.52c-.05-2.63.39-4.87.95-7.43q.03-3.19-.06-6.38c-.05-5.06.47-8.86 2.06-13.62v-2.5c0-3.39 1.05-6.26 2-9.5l.44-3.38c.43-2.81.96-5 1.87-7.64q1.79-5.23 3.44-10.5l.9-2.85 1.83-5.81.9-2.84.8-2.54A134 134 0 0 1 503 334l.94-2.94a69 69 0 0 1 4-9.06l1.52-3 1.54-3 1.44-2.92q1.69-3.35 3.5-6.63c6.55-11.92 6.55-11.92 8.49-18.55.57-1.9.57-1.9 2.07-5.34 3.35-7.96 6.35-16 3.5-24.56q-2.5-1.03-5-2c-3.84-2.79-7.4-5.91-11-9l-2.8-2.38c-12.01-10.49-17.41-22.91-19.2-38.62-.34-6.4-.21-12.82-.16-19.23l.02-5.62.06-14.79q.07-13.1.11-26.21l.01-2.86c.03-12.82-.09-25.63-.47-38.44l-.06-2.09c-.22-7.16-.56-14.28-1.31-21.41-.27-3.21-.21-6.38-.16-9.6-.05-3.19-.33-6.32-.6-9.5-.46-6.63-.47-13.18-.25-19.81l.05-2.85c.29-6.99 2.05-10.68 6.87-15.86 6.88-6.2 11.67-9.15 20.89-5.73m172 653 3 4 2-1c-1.38-1.5-1.38-1.5-3-3zm-133 4c-2.62.94-2.62.94-5 2l1 3 6-4z" fill="#151816"/><path d="M937.16 374.7c6.43 4.55 11.71 8.96 14.84 16.3.7 6.18-.14 10.99-4 16-6.83 5.55-13.35 6.82-22 6-4.4-1.11-8.58-2.65-12.82-4.25l-6.89-2.48-3.3-1.2c-8.86-3.16-17.56-5.65-26.99-6.07q-1.2-.14-2.42-.26c-8.38-.6-15.1 2.9-21.72 7.87-5.53 5.05-9.39 11.2-10.24 18.72-.27 15.35 4.18 28.7 9.21 42.97 8 22.79 11.51 48.43 3.17 71.7l-1.25 3.58c-8.39 21.6-24.76 36.88-45.38 46.73-9.14 3.99-17.29 7.36-27.37 6.69l2-1 .8-2.04c1.32-3.27 3.04-6.01 4.93-8.98 8.6-13.53 14.08-26.76 18.7-42.1l1.08-3.56.98-3.4.88-3.01c.66-3.05.74-5.8.63-8.91l2 1c4.41-15.17 1.82-29.17-2.75-43.87l-1.35-4.55a328 328 0 0 0-7.09-21.36c-3.6-9.78-4.09-19.2-4.13-29.53v-3.36c.14-17.54 7.05-31.75 19.07-44.4 32.92-31.86 85.66-27.44 121.41-3.23" fill="#0F1110"/><path d="m517 12 2.5.88c5.3 2.38 10.19 5.2 14.5 9.12v2l2.72.79a22 22 0 0 1 7.72 4.65c4.25 3.54 8.63 6.83 13.12 10.06 5.15 3.72 10 7.57 14.61 11.94A25 25 0 0 0 578 55l2.6 2.03c4.08 2.36 7.33 2.54 11.91 2.49l2.53.02q4.11.02 8.22-.01l5.73.01q5.99.01 11.99-.02 7.68-.03 15.36.02h11.83q2.83-.01 5.66.01 3.96 0 7.92-.03l2.36.02c3.55-.05 5.47-.19 8.25-2.48L674 55q2.49-1.53 5-3c2.74-2.11 5.37-4.32 8-6.56a64 64 0 0 1 8-5.44l1.5-1.5c1.95-1.95 4.14-3.08 6.5-4.5a193 193 0 0 0 10.56-8.12 44 44 0 0 1 6-3.88c3.44-2 3.44-2 5.32-4 5.21-4.91 11.81-6.41 18.76-7.12 5.05.25 8.59 2.77 12.48 5.81l2.58 1.95c4.58 4.69 5.66 9.65 5.61 15.98l-.06 2.32-.02 2.3a88 88 0 0 1-.72 10.51c-.55 4.24-.73 8.44-.83 12.7l-.06 2.37-.12 4.93-.19 7.43c-.2 7.63-.37 15.25-.23 22.88a85 85 0 0 1-.58 7.49 145 145 0 0 0-.6 15.59l.01 2.91.01 6.19.03 9.8.05 20.77.06 24.14.03 9.65.01 5.9.01 2.71c0 12.87-5.49 25.58-14.23 35.1-13.83 12.93-13.83 12.93-22.19 17.5-2.69 2.19-2.69 2.19-3.75 5.31.08 5.04 1.45 9.15 3.06 13.88l.94 3.56c2.21 7.15 5.67 13.79 9.06 20.44l3 6 1.9 3.8 5.07 10.15 2.14 4.2 1.08 2.11.98 1.89A30 30 0 0 1 750 335a357 357 0 0 1 5.25 16.54q1.07 3.46 2.25 6.9a170 170 0 0 1 8.22 40.75q.31 3.07.8 6.12c.53 4.1.63 8.06.6 12.19l.02 2.18c-.01 5.19-.29 10.3-1.7 15.32-.44 2-.44 2-.38 5.38-.06 3.72-.76 6.16-2.06 9.62q-1.04 3.5-2 7l2.09-.66c9.94-2.94 18.21-3.57 27.91.66a67 67 0 0 1 6.41 4.7C799 463 799 463 801 464l-1.02-3.23c-5.8-18.68-8.71-38.43-3.98-57.77 1.43-2.62 1.43-2.62 3-5q1.17-2.16 2.31-4.31c10.41-18.68 27.93-31.57 48.39-37.4 5.7-1.55 11.38-3.04 17.3-3.29l3.44-.16c20.55-.61 43.03 4.24 60.56 15.16l2.65 1.61a349 349 0 0 1 10.41 6.76c5.58 4.2 8.84 10.03 10.94 16.63.37 5.93-1.62 9.96-5.38 14.44-4.41 4.65-8.22 7.32-14.62 8.56-8.06.02-15.1-2.54-22.56-5.31-36.53-13.03-36.53-13.03-51.44-7.13-6.6 3.61-12.59 8.35-15.38 15.51A55.6 55.6 0 0 0 847 447l1.34 5.61a176 176 0 0 0 5.02 16.18c6.97 19.74 8.27 36.41 6.64 57.21l-.16 2.18c-.49 5.01-1.87 9.24-3.84 13.82l-.8 1.87c-3.65 8.21-8 15.68-13.39 22.88l-1.51 2.02c-2.78 3.59-5.51 6.64-9.3 9.23h-2l-.69 1.81c-1.67 2.79-3.48 3.64-6.31 5.19l-1.94 1.5c-4.56 3.32-9.88 5.32-15.06 7.5l-3.56 1.56c-14.97 6.26-14.97 6.26-20.44 4.44l-.79 1.79a21 21 0 0 1-4.52 5.59 76 76 0 0 0-6.31 6.74c-6.32 7.65-13.92 14.68-22.38 19.88l2.06 1.62L752 638l1.68 1.18c5.82 4.37 8.78 10.08 11.32 16.82.58 4.57.38 8.03-2 12-7.51 7.9-14.4 9.46-25 10l-1.95.1c-10.16.47-18.43-.48-28.05-4.1l-5.31-1.75L699 671a89 89 0 0 0 7.69 8.56c4.62 4.87 5.88 11.88 6.31 18.44-1.37 3.69-1.37 3.69-3 6h-2l.11-2.82c.22-10.16-.57-15.28-7.11-23.18v-2l-1.67-.84L687 669v-8a50 50 0 0 1 8.94 4.31c11.58 6.57 22.69 8.87 35.75 8.88l3.47.03c15.46.03 15.46.03 21.84-4.22 3.13-3.13 3.23-5.23 3.38-9.56-.09-6.26-1.27-10.65-5.38-15.44-4.52-3.79-9.67-6.54-15-9a63 63 0 0 1 9.44-8c4.57-3.37 8.92-6.92 13.12-10.75l1.66-1.51a76 76 0 0 0 8.84-10.01c6.19-8.14 11.86-9.75 21.94-11.73 13.37-4.27 25.49-10.67 36-20l1.93-1.71c13.41-12.67 23.16-32.53 24.23-51.07.31-22.47-2.53-40.62-10.22-61.65-4.71-12.97-10-29.65-3.94-42.95 5.41-9.18 12.96-15.06 23-18.62 3.47-.62 6.51-.36 10 0l3.24.31c9.63 1.09 18.27 3.48 27.38 6.69l4.01 1.37c9.11 3.12 9.11 3.12 13.12 4.75 5.17 2.02 10.8 1.61 16.05.04 5.22-2.29 8.53-4.66 10.64-10.05 1.42-5.37 1.34-9.28-1.44-14.17-11.97-17.01-35.06-25.22-54.57-28.99-16.4-2.73-33.67-2.51-49.43 3.05l-3.14 1.03c-18.02 6.62-31.39 20.09-39.86 36.97-7.16 15.63-6.05 37.47-.8 53.54a631 631 0 0 1 2.93 9.35 4471 4471 0 0 0 7.67 24.61c4.02 12.6 4.77 24.72 1.2 37.5h-1l-.06-2.2-.32-10.05-.09-3.45c-.58-17.07-2.56-32.05-15.41-44.11-7.92-6.5-15.88-7-25.92-6.49-4.21.57-8.19 1.95-12.2 3.3l1.44-11.56.41-3.29.4-3.22.36-2.93q.42-3.22.92-6.43c.82-6.25.71-12.53.72-18.82v-2.17c-.01-10.68-.55-21.01-2.8-31.48q-.67-3.2-1.26-6.4c-4.88-25.07-14.84-48.83-26.81-71.26-15.2-28.61-15.2-28.61-14.26-41.19 1.93-4.96 6.6-7.44 10.88-10.25q2.43-1.81 4.81-3.69l2.23-1.73A65 65 0 0 0 742 240l1.71-1.8c10.29-11.19 13.92-24.97 13.8-39.98l.03-3.65q.01-4.91 0-9.82l.03-10.42q.05-9.9.05-19.8.01-19.66.1-39.34l.01-4.22c.08-20.02.5-39.93 2.06-59.9a313 313 0 0 0 .59-14.69l.07-2.29c.02-5.43-1.41-9.66-4.45-14.09-5.47-4.35-10.12-5.56-16.98-5.46-5.62.85-9.56 4.12-14.02 7.46l-3.39 2.46a696 696 0 0 0-7.54 5.54 837 837 0 0 1-8.29 6.04l-2.06 1.47q-2.25 1.62-4.53 3.18a67 67 0 0 0-11.12 9.41c-12.29 12.43-24.19 13.71-40.92 13.92a670 670 0 0 1-17.92-.22c-4.06-.07-8.13-.03-12.19.01q-5.95.03-11.9-.05-2.8-.03-5.61 0c-13.77.06-21.7-3.13-31.94-12.36a82 82 0 0 0-6.71-5.18l-2.18-1.59-2.14-1.57A949 949 0 0 1 537.88 29c-19-14.61-19-14.61-29.31-14.38-5.81.86-9.49 3.99-13.01 8.5-2.7 4.99-2.71 9.24-2.68 14.78l.01 2.7c.06 8.75.48 17.48.94 26.21.98 18.98 1.38 37.94 1.48 56.94l.02 3.7q.09 16.9.13 33.82.02 9.4.08 18.79l.02 7.04c0 23.2 0 23.2 3.44 33.9l.85 2.74c4.49 13.75 17.31 23.97 29.14 31.53 4.8 3.11 4.8 3.11 5.87 6.32-.69 17.57-9.6 34.68-17.89 49.88-10.54 19.39-17.02 40.16-22.24 61.54q-.69 2.8-1.41 5.59c-5.7 21.84-5.61 47.65-1.07 69.73.8 3.89 1.3 7.72 1.75 11.67l-1.59-.44c-10.51-2.52-23.66-4.06-33.27 1.77-11.26 8.78-16 20.73-17.91 34.62-3.85 34.75 7.98 73.38 29.57 100.68A260 260 0 0 0 479 606l2.53 2.93c8.06 9.2 17.21 16.48 27.41 23.15q2.07 1.4 4.06 2.92v2l-1.94.66c-7.55 2.77-13.38 5.97-17.5 13.09a22 22 0 0 0-.44 17.19c4.88 5.36 11.2 5.75 18.03 6.2 17.96.79 33.43-2.79 49.47-10.95C563 662 563 662 565 662v8l-2.41 1.07c-9.23 4.3-14.57 8.47-18.59 17.93a78 78 0 0 0-.69 7.88l-.1 2.08L543 704h-2c-2.38-3.73-2.48-6.64-2-11 1.25-2.89 2.62-5.67 4.1-8.45.9-2.55.9-2.55.23-4.8-2.02-2.66-4.14-3.05-7.33-3.75-1.94.31-1.94.31-4 1-12.95 2.4-28.15 1.52-39.94-4.5-3.33-4.04-4.64-8.3-5.06-13.5 1.69-7.84 6.15-13.68 12-19a93 93 0 0 1 7-4 90 90 0 0 0-8.31-7.69L495 626v-2l-1.77-.24c-2.94-1-4.02-2.49-5.98-4.88a57 57 0 0 0-8-8c-4.05-3.43-7.31-7.39-10.63-11.5l-1.58-1.96c-2.68-3.38-4.56-6.34-6.04-10.42-1.4-2.03-1.4-2.03-2.94-3.94-4.01-5.21-6.46-10.9-9.08-16.9a82 82 0 0 0-2.67-5.28c-1.51-3.33-1.86-6.27-2.31-9.88q-.95-3.01-2-6a61 61 0 0 1-2.75-14.18C439 529 439 529 438 528q-.01-2.85.06-5.7c-.06-2.3-.06-2.3-.55-5.1a66 66 0 0 1-.63-10.76l-.01-3.88A41 41 0 0 1 438 494l.76-3.38c2.97-12 7.28-24.13 17.99-31.31 9.71-5.57 20.7-7.09 31.73-4.79l1.52.48-.94-3.88c-1.2-4.98-1.59-10.02-2.06-15.12l-.57-5.61-.55-5.7-.31-2.92-.27-2.82-.25-2.52c-.05-2.63.39-4.87.95-7.43q.03-3.19-.06-6.38c-.05-5.06.47-8.86 2.06-13.62v-2.5c0-3.39 1.05-6.26 2-9.5l.44-3.38c.43-2.81.96-5 1.87-7.64q1.79-5.23 3.44-10.5l.9-2.85 1.83-5.81.9-2.84.8-2.54A134 134 0 0 1 503 334l.94-2.94a69 69 0 0 1 4-9.06l1.52-3 1.54-3 1.44-2.92q1.69-3.35 3.5-6.63c6.55-11.92 6.55-11.92 8.49-18.55.57-1.9.57-1.9 2.07-5.34 3.35-7.96 6.35-16 3.5-24.56q-2.5-1.03-5-2c-3.84-2.79-7.4-5.91-11-9l-2.8-2.38c-12.01-10.49-17.41-22.91-19.2-38.62-.34-6.4-.21-12.82-.16-19.23l.02-5.62.06-14.79q.07-13.1.11-26.21l.01-2.86c.03-12.82-.09-25.63-.47-38.44l-.06-2.09c-.22-7.16-.56-14.28-1.31-21.41-.27-3.21-.21-6.38-.16-9.6-.05-3.19-.33-6.32-.6-9.5-.46-6.63-.47-13.18-.25-19.81l.05-2.85c.29-6.99 2.05-10.68 6.87-15.86 6.88-6.2 11.67-9.15 20.89-5.73m172 653 3 4 2-1c-1.38-1.5-1.38-1.5-3-3zm-133 4c-2.62.94-2.62.94-5 2l1 3 6-4z" fill="#E6E8E8"/><path d="M673 495h1c-.41 9.14-5.72 17.58-12 24-14.71 13-14.71 13-23 13l.18 1.66c1.82 17.41 2.13 34.72 2.08 52.2q-.01 5.64.01 11.26c.03 14.19-.09 28.32-1.16 42.48l-.24 3.13A125 125 0 0 1 637 660h-22l-1.44-10.38-.44-3.14c-2.37-17.6-2.32-35.32-2.31-53.04v-3.51c0-19.04.6-37.95 2.19-56.93l-2.46-1.2-3.24-1.6-3.21-1.57c-3.98-2.1-7.85-4.47-11.09-7.63v-2l-1.71-.62c-3.14-1.89-4.94-4.53-6.98-7.5l-1.22-1.77c-2.98-4.5-4.19-7.76-4.09-13.11l1.88 1.94c12.43 12.33 26.53 23.76 44.62 25.37 14.41-.24 28.21-8.86 38.5-18.31q3.74-3.96 7.29-8.09z" fill="#000"/><path d="M870.44 352.84c20.55-.62 43.03 4.24 60.56 15.16l2.65 1.61q4.2 2.63 8.35 5.4l2.06 1.35c5.59 4.21 8.84 10.03 10.94 16.64.38 5.92-1.62 9.96-5.37 14.43-4.42 4.66-8.23 7.33-14.63 8.57-8.05.02-15.1-2.54-22.56-5.32-36.52-13.02-36.52-13.02-51.44-7.12-6.6 3.61-12.6 8.35-15.38 15.51A56 56 0 0 0 847 447q.68 2.8 1.34 5.61a173 173 0 0 0 5.03 16.18c6.96 19.73 8.26 36.41 6.63 57.21l-.16 2.18c-.48 5.01-1.87 9.23-3.84 13.82l-.8 1.87c-3.65 8.21-8 15.68-13.38 22.88l-1.52 2.02c-2.77 3.6-5.51 6.64-9.3 9.23h-2l-.68 1.81c-1.68 2.8-3.5 3.64-6.32 5.2q-.95.72-1.94 1.5c-4.56 3.31-9.88 5.31-15.06 7.5l-3.56 1.55c-14.97 6.26-14.97 6.26-20.44 4.44l-.8 1.8a21 21 0 0 1-4.51 5.57 76 76 0 0 0-6.31 6.75c-6.32 7.64-13.92 14.67-22.38 19.88l2.06 1.62L752 638l1.68 1.18c5.82 4.37 8.78 10.08 11.32 16.82.58 4.56.38 8.03-2 12-7.51 7.9-14.4 9.46-25 10l-1.95.1c-10.15.47-18.43-.48-28.05-4.1q-2.65-.89-5.31-1.75l-3.7-1.25a89 89 0 0 0 7.7 8.56c4.62 4.87 5.88 11.87 6.3 18.44-1.36 3.68-1.36 3.68-3 6h-2q.07-1.39.12-2.82c.22-10.16-.57-15.29-7.11-23.18v-2l-1.67-.84L687 669v-8a49 49 0 0 1 8.94 4.31c11.58 6.57 22.69 8.87 35.75 8.87l3.47.04c15.47.03 15.47.03 21.84-4.22 3.13-3.13 3.23-5.23 3.38-9.57-.08-6.26-1.27-10.64-5.38-15.43-4.52-3.79-9.66-6.54-15-9 2.92-3.08 6-5.54 9.44-8 4.58-3.37 8.92-6.93 13.12-10.75l1.66-1.5a76 76 0 0 0 8.84-10.03c6.2-8.13 11.87-9.75 21.94-11.72 13.38-4.27 25.5-10.67 36-20l1.93-1.7c13.4-12.68 23.16-32.55 24.23-51.08.32-22.48-2.53-40.63-10.22-61.66-4.7-12.96-10-29.64-3.94-42.94 5.4-9.18 12.96-15.06 23-18.62 3.47-.62 6.5-.37 10 0l3.24.31c9.63 1.1 18.27 3.48 27.39 6.7l4 1.35c9.12 3.12 9.12 3.12 13.12 4.76 5.17 2.01 10.8 1.61 16.05.04 5.22-2.3 8.53-4.67 10.64-10.06 1.43-5.36 1.35-9.27-1.44-14.17-11.97-17-35.06-25.22-54.57-28.98-16.4-2.73-33.67-2.5-49.43 3.05l-3.13 1.02c-18.03 6.63-31.4 20.1-39.87 36.98-7.15 15.62-6.05 37.46-.8 53.54a565 565 0 0 1 2.93 9.35l4.74 15.28 2.93 9.33c4.02 12.6 4.77 24.71 1.2 37.5h-1l-.06-2.2-.31-10.05-.1-3.46c-.5-14.68-1.86-28.77-11.53-40.29l-3-4h4l-1.02-3.23c-5.8-18.68-8.7-38.44-3.98-57.77 1.43-2.63 1.43-2.63 3-5l2.32-4.32c10.4-18.67 27.92-31.57 48.38-37.4a94 94 0 0 1 20.74-3.44M689 665l3 4 2-1c-1.37-1.5-1.37-1.5-3-3z" fill="#E1E2E3"/><path d="M739 472h1a233.5 233.5 0 0 1-18.19 100.09 334 334 0 0 0-3.69 9.22l-1.17 2.99A47 47 0 0 0 715 592h-2l-.32 2.45c-.82 4.28-2.13 8.29-3.49 12.43A307 307 0 0 0 702 633l-.88 3.73c-1.5 6.85-2.46 13.6-2.93 20.58l-.16 2.23A71 71 0 0 0 698 665l2 2c-5.44-.34-8.94-3.7-13-7 2.18-19.54 6.73-37.37 13-56l1.09-3.23q6.9-20.4 14.55-40.53a174 174 0 0 0 5.62-17.46q1.2-4.43 2.57-8.81A536 536 0 0 0 736 486l1.04-4.8z" fill="#000101"/><path d="M512 470a28 28 0 0 1 3.04 8.66l.56 2.8.59 3.04c4.33 21.4 9.71 42.27 16.91 62.89a434 434 0 0 1 2.32 6.94 684 684 0 0 0 8.97 25.67c4.98 13.55 9.91 27.04 13.61 41l.8 3.01c3.24 12.3 6.16 24.22 6.2 36.99-5.62 4-5.62 4-9 4l-.43-3.04q-.78-5.61-1.6-11.21l-.68-4.85-1-6.97-.3-2.18A40 40 0 0 0 549 626q-.57-2.62-1.06-5.25c-3.09-13.72-8.66-26.89-13.73-39.97C519.9 543.8 513.08 509.51 512 470" fill="#000101"/><path d="M870.44 352.84c20.55-.62 43.03 4.24 60.56 15.16l2.65 1.61q4.2 2.63 8.35 5.4l2.06 1.35c5.59 4.21 8.84 10.03 10.94 16.64.38 5.92-1.62 9.96-5.37 14.43-4.42 4.66-8.23 7.33-14.63 8.57-8.05.02-15.1-2.54-22.56-5.32-36.52-13.02-36.52-13.02-51.44-7.12-8.55 4.7-13.25 10.5-17 19.44h-2v13h-1c-.7-10.6.12-17.7 6.69-26.18 5.45-6.03 12.67-10.82 20.78-12.26 2.56-.07 4.98.17 7.53.44l3.24.31c9.63 1.1 18.27 3.48 27.39 6.7l4 1.35c9.12 3.12 9.12 3.12 13.12 4.76 5.17 2.01 10.8 1.61 16.05.04 5.22-2.3 8.53-4.67 10.64-10.06 1.43-5.36 1.35-9.27-1.44-14.17-11.97-17-35.06-25.22-54.57-28.98-16.4-2.73-33.67-2.5-49.43 3.05l-3.13 1.02c-18.03 6.63-31.4 20.1-39.87 36.98-7.15 15.62-6.05 37.46-.8 53.54a565 565 0 0 1 2.93 9.35l4.74 15.28 1.12 3.6 1.8 5.73c4.03 12.6 4.78 24.71 1.2 37.5h-1l-.05-2.2-.31-10.05-.1-3.46c-.5-14.68-1.86-28.77-11.53-40.29l-3-4h4l-1.02-3.23c-5.8-18.68-8.7-38.44-3.98-57.77 1.43-2.63 1.43-2.63 3-5l2.32-4.32c10.4-18.67 27.92-31.57 48.38-37.4a94 94 0 0 1 20.74-3.44" fill="#E3E4E5"/><path d="m517 12 2.5.88c5.3 2.38 10.19 5.2 14.5 9.12v2l2.72.79a22 22 0 0 1 7.72 4.65c4.25 3.54 8.63 6.83 13.12 10.06 5.15 3.72 10 7.57 14.61 11.94A25 25 0 0 0 578 55l2.61 2.04c4.05 2.34 7.24 2.5 11.78 2.41l2.49.01q4.04-.02 8.08-.07l5.63-.02q7.38-.02 14.76-.1 7.55-.05 15.08-.07 14.79-.08 29.57-.2l1 3q-16.6.42-33.2.62-7.71.09-15.42.29-7.47.19-14.92.23-2.83.03-5.66.13c-13.97.46-21.84-2.42-32.22-11.86a78 78 0 0 0-6.7-5.19l-2.18-1.59-2.14-1.57A949 949 0 0 1 537.88 29c-19-14.61-19-14.61-29.31-14.38-5.81.86-9.49 3.99-13.01 8.5-2.57 4.73-2.76 8.79-2.88 14.05l-.06 2.41-.18 7.61-.13 5.16L492 65c-4.32-4.32-2.99-13.84-3-19.76q.04-4.4.19-8.8l.05-2.85c.29-6.99 2.05-10.68 6.87-15.86 6.88-6.2 11.67-9.15 20.89-5.73" fill="#E6E7E8"/><path d="M632 190c3.18 1.29 3.91 2.15 6 5 .69 2.5.69 2.5 0 5-2.38 2.69-2.38 2.69-5 5-2.16 2.16-2.44 3.2-3.25 6.06-.77 2.15-.77 2.15-1.75 3.94-2.94 1.25-2.94 1.25-6 1-2.93-2.03-3.85-3.54-4.94-6.94-1.28-3.71-3.17-5.46-6.06-8.06-1-1-1-1-1.38-3.31.38-2.69.38-2.69 2.76-4.94 5.99-3.99 12.65-3.41 19.62-2.75" fill="#606162"/><path d="M951 386c2.43 2.43 3.16 3.64 4 7-.23 6.92-2.44 11.34-7.15 16.31-4.5 4.11-8.63 6.68-14.97 6.7-7.29-.6-13.62-2.79-20.44-5.32-36.53-13.03-36.53-13.03-51.44-7.13-8.56 4.69-13.26 10.5-17 19.44h-2v13h-1c-.69-10.61.12-17.71 6.69-26.18 5.45-6.03 12.67-10.82 20.77-12.26a56 56 0 0 1 7.54.44l3.24.31c9.63 1.09 18.27 3.48 27.38 6.69l4.01 1.37c9.11 3.12 9.11 3.12 13.12 4.75 5.17 2.02 10.8 1.61 16.05.04 5.01-2.2 8.54-4.53 10.66-9.69 1.11-5.1.82-10.29.54-15.47" fill="#E6E8EB"/><path d="M492 49h1q.45 8.86.85 17.73l.3 5.98c1.61 32.23.83 64.52.39 96.78l-.18 13.78L494 210c-2.49-3.79-2.26-7.62-2.21-11.99v-2.44l.05-8.02.02-5.65q.01-7.5.06-14.99.07-13.23.11-26.48l.01-2.9c.03-12.91-.09-25.81-.47-38.71l-.06-2.09a274 274 0 0 0-1.07-18.76 58 58 0 0 1-.1-11.29l.28-3.18.32-3.19.3-3.32q.37-4 .76-7.99" fill="#E1E3E2"/><path d="m792.06 595.88 1.94.12-1 3-3.38.43C786 600 786 600 784 601l-3-1-.8 1.78a21 21 0 0 1-4.52 5.6 79 79 0 0 0-6.3 6.75c-6.32 7.63-13.92 14.66-22.38 19.87l2.06 1.63L752 638l1.68 1.17c5.82 4.38 8.77 10.1 11.32 16.83.58 4.6.17 7.88-2 12l-2 1-.05-2.97c-.54-14.92-.54-14.92-5.95-21.03-4.53-3.77-9.66-6.53-15-9a64 64 0 0 1 9.44-8c9.54-7.03 17.95-14.82 25.31-24.12 2.95-3.7 5.34-6.58 10.12-7.7 2.4-.21 4.78-.2 7.2-.3" fill="#E7E8E8"/><path d="M616 661h20l-.11 6.03-.05 5.87-.1 6c-.08 9.55.83 17.08 6.26 25.1-4.68-1.48-4.68-1.48-6.07-3.73a60 60 0 0 1-2.49-7.83c-.75-2.85-1.51-5.64-2.44-8.44a69 69 0 0 1-.12-4.56l-.01-2.38C631 675 631 675 632 673l-.06-2.31C632 668 632 668 634 663h-16l2 4c.2 3.35.2 3.35.12 7.06l-.05 3.73L620 681q0 2.82.12 5.62c-.25 6.84-1.22 12.32-6.12 17.38l-3-1 .84-1.57 1.1-2.12 1.09-2.07c2-4.62 2.09-9.08 2.07-14.07l-.01-3.92-.03-4.06-.01-4.13z" fill="#EEEFF0"/><path d="M565 662v8l-2.41 1.07c-9.23 4.3-14.57 8.47-18.59 17.93a78 78 0 0 0-.69 7.88l-.1 2.08L543 704h-2c-2.38-3.73-2.48-6.64-2-11 1.25-2.89 2.62-5.67 4.1-8.45.9-2.55.9-2.55.17-4.82C542 678 542 678 540 677l1-4h3l1-3c2.51-1.28 2.51-1.28 5.69-2.5 6.91-2.72 6.91-2.72 9.93-4.31C563 662 563 662 565 662m-9 7c-2.62.94-2.62.94-5 2l1 3 6-4z" fill="#EEECF1"/><path d="M796 419h1l.08 3.81c.32 11.22 1.61 21.42 4.92 32.19l1 3.27a10442 10442 0 0 0 8.8 28.23c4.02 12.6 4.77 24.72 1.2 37.5h-1l-.06-2.2-.32-10.05-.09-3.45c-.5-14.68-1.86-28.77-11.53-40.3l-3-4h4l-1.06-3.3c-4.48-14.32-5.17-26.83-3.94-41.7" fill="#D4D7D8"/><path d="M488 410h1l.04 1.81c.35 12.92 1.32 25.4 3.61 38.12.56 3.34.96 6.7 1.35 10.07l-1.59-.44c-10.54-2.52-23.6-4.03-33.26 1.74-5.25 4.15-9.19 9.36-13.15 14.7.22-5.47 1.44-8.37 5.2-12.37 9.25-8.4 19.09-10.06 31.23-9.83 2.73.15 4.98.37 7.57 1.2l-.94-3.88c-2.31-9.55-2.1-18.99-1.62-28.74l.16-3.63q.18-4.37.4-8.75" fill="#E6E8E8"/><path d="m842 423 3 1-.07 3.25-.05 4.31-.06 2.14c-.04 4.81.71 8.67 2.18 13.3l1.34 5.61a175 175 0 0 0 5.02 16.18c4.05 11.46 7.15 22.04 7.64 34.21l.17 2.92c.13 3.92.05 5.75-2.17 9.08l-.33-3.34a714 714 0 0 0-1.38-12.23q-.37-3.14-.7-6.29c-1.65-11.84-5.72-22.89-9.74-34.1l-.74-2.06-2.03-5.63a44 44 0 0 1-2.18-14.09l.01-2.54.03-2.6.01-2.66z" fill="#E7E8EA"/><path d="m710 176 1 2-1.98-.4-2.64-.54-2.61-.52c-17.02-3.29-33.28-2.03-49 5.64A22 22 0 0 1 648 184v-2c16.34-12.4 43.73-16.36 62-6" fill="#030503"/><path d="M597.19 179.63q1.4 1.16 2.8 2.38v2a82 82 0 0 1-7.4-3.22c-15.25-7.72-33.96-6.94-50.6-4.78v2l-6 1c1-3 1-3 2.95-4.57 16.55-7.78 43.3-5.01 58.25 5.19" fill="#030504"/><path d="m579 56 1.98 1.48c3.82 1.92 7.12 1.92 11.3 1.86h2.48q4.05 0 8.1-.05l5.63-.01q7.4-.02 14.79-.07l15.1-.06Q653.2 59.09 668 59l1 3q-16.94.13-33.87.21-7.87.03-15.73.09-7.59.07-15.18.08l-5.79.04q-4.05.05-8.1.03l-2.44.05c-5.4-.04-5.4-.04-7.91-2.4C579 58 579 58 579 56" fill="#EFF1F3"/><path d="M759 138h1c.72 24.67 1.16 49.32 1 74l-3 1-.05-28.01q0-6.5-.03-13l-.01-12.55-.02-4.79v-6.7l-.01-3.86C758 141 758 141 759 138" fill="#F1F3F3"/><path d="M759 63h1l.85 12.27.3 4.16c.73 10.4 1.25 20.5.1 30.88-.59 6.32-.62 12.69-.77 19.03l-.1 3.25-.08 2.93C760 138 760 138 758 141l-.05-22.09q0-5.14-.03-10.27c-.04-15.25.01-30.43 1.08-45.64" fill="#DEE0DF"/><path d="M539 26a177 177 0 0 1 16.59 12.06 185 185 0 0 0 6.53 5c3.53 2.61 6.79 5.46 10.02 8.42C574 53 574 53 576.16 54.04c2.64 1.38 2.97 3.2 3.84 5.96a316 316 0 0 1-15.06-10.62l-2.54-1.87a853 853 0 0 1-17.64-13.42A156 156 0 0 0 536 28z" fill="#E2E3E3"/><path d="M758 19c3.6 3.24 5.74 6.01 6.17 10.96q.08 3.43.02 6.85v2.33a97 97 0 0 1-.94 12.59c-.56 5.06-.63 10.18-.81 15.27l-.13 3.5L762 79l-2 1 .01-1.94q.07-10 .1-20l.04-7.47q.04-5.36.05-10.73l.03-3.37v-3.15l.01-2.76c-.26-2.85-1.17-4.95-2.24-7.58z" fill="#EDEEEF"/><path d="M760 445h1l.56 4.88.32 2.74C762 455 762 455 761 457l2.09-.66c9.94-2.94 18.22-3.57 27.91.66a69 69 0 0 1 8 6l-3 1a82 82 0 0 1-5.09-2.89c-4.84-2.8-9.06-3.46-14.6-3.42h-2.13c-5.82.11-10.71 1.26-16.18 3.31z" fill="#D8DAD9"/><path d="M760 28h1c.4 18.05-.82 36-2 54h-1l-1-8h-1c-.12-12.05.14-23.98 1-36h1v8h2z" fill="#181919"/><path d="M809 382h2a61 61 0 0 1-5.44 10.81c-7.85 13.37-8.83 26.98-9.56 42.19-2.45-2.45-2.26-3.81-2.28-7.16l.03-2.09.02-2.15c.33-18.2.33-18.2 5.23-25.6l2.38-4.38A84 84 0 0 1 809 382" fill="#E6E9EB"/><path d="M876 398v2l-3.88.19c-8.97 1.03-17.25 6-23.12 12.81a77 77 0 0 0-5 10h-2v13h-1c-.69-10.61.12-17.71 6.69-26.18 7.51-8.31 17.05-13.17 28.31-11.82" fill="#E0E2E5"/><path d="M445 473h1a100 100 0 0 1-2.46 12.8c-3.02 11.97-3.36 23.9-3.54 36.2-3.29-3.29-2.97-7.18-3.13-11.69l.01-3.87-.01-3.88c.11-3.05.41-5.61 1.13-8.56l.87-3.56 1.01-3.88.99-3.87A52 52 0 0 1 445 473" fill="#EEEFEF"/><path d="M490 382h1c.09 6.1-.21 11.95-.94 18a428 428 0 0 0-2.06 27l-2-1c-.45-2.55-.45-2.55-.69-5.75l-.26-3.17c-.05-2.91.37-5.24.95-8.08q.03-3.19-.06-6.38c-.05-5.06.47-8.86 2.06-13.62v-2.81c0-2.19 0-2.19 2-4.19" fill="#EAEDEF"/><path d="M440 516h1l.23 1.84c2.65 21.18 2.65 21.18 5.22 29.23.55 1.93.55 1.93.55 4.93-1.93-.71-1.93-.71-4-2-.76-2.14-.76-2.14-1.12-4.69a67 67 0 0 0-1.94-8.81c-1.95-7.26-2.57-13.4.06-20.5" fill="#E7E9E7"/><path d="M809 481c5.16 7.74 6.37 17.8 6.38 26.94v2.07c-.11 4.94-1.06 9.27-2.38 13.99h-1l-.06-2.2-.32-10.05-.09-3.45c-.28-8.3-.94-16.54-3.16-24.57L808 482z" fill="#B4B5B4"/><path d="M698 673a25 25 0 0 1 13 12c3.16 11.81 3.16 11.81.62 16.81L710 704h-2l.11-2.82c.22-10.16-.57-15.28-7.11-23.18v-2l-3-1z" fill="#E5E7E9"/><path d="M493 21h1l-.48 3.46c-.55 4.4-.74 8.76-.84 13.2l-.06 2.38-.18 7.46-.13 5.09L492 65c-3.96-3.96-2.93-11.57-3-17q.03-5.82.25-11.62l.08-2.88c.22-4.89.44-8.55 3.67-12.5" fill="#EEEEF0"/><path d="M757 211c1.53 1.8 1.53 1.8 3 4-1.36 8.53-6.67 19.81-13.62 24.94L744 241l-2-1 1.39-1.47c7.65-8.36 10.51-16.7 13.61-27.53" fill="#DBDCDE"/><path d="M920 364c4.47.52 7.23 1.61 11 4l2.65 1.61c13.27 8.28 13.27 8.28 17.35 14.39.12 2.69.12 2.69 0 5l-1.44-2c-7.61-8.91-18.31-17.25-29.56-21z" fill="#DDDEE1"/><path d="m842 423 3 1-.07 3.25-.05 4.31-.06 2.14c-.04 4.78.68 8.71 2.18 13.3q1.02 4 2 8l-3 1c-3.23-8.15-4.15-15.13-4.06-23.88l.01-2.66z" fill="#ECECEF"/><path d="M760 84h1c1.34 10.36 1.03 20.24 0 30.62l-.29 3.05L760 125h-1l-.05-17.03-.03-5.8-.02-8.32-.01-2.64q.01-3.1.11-6.21z" fill="#F1F1F3"/><path d="M492 49h1c1.94 29.95 1.94 29.95 0 40h-1c-2.59-13.57-1.51-26.35 0-40" fill="#CECED0"/><path d="M951 386c2.43 2.43 3.16 3.64 4 7-.23 6.92-2.44 11.34-7.15 16.31A45 45 0 0 1 942 414c-2.75-.31-2.75-.31-5-1 3-2 3-2 6.44-3.62 3.51-2.05 5.27-4.18 6.92-7.88 1.3-5.08.93-10.3.64-15.5" fill="#D7D9D9"/><path d="M504 638c-1.1 3.3-1.57 3.59-4.25 5.5-5.61 4.61-8.03 11.24-9.56 18.19L490 664c-2-1-2-1-2.73-2.75-.35-2.9.35-4.57 1.48-7.25l1.05-2.56c2.48-5.03 8.11-13.44 14.2-13.44" fill="#E7E7E9"/><path d="m545 680 3 1-1.94 3.06c-3.15 6.17-2.88 13.16-3.06 19.94h-2c-2.36-3.68-2.28-6.7-2-11 1.31-3.53 1.31-3.53 3-6.94l1.69-3.46z" fill="#DEDEE0"/><path d="m760 666 1 4c-5.64 5.11-9.8 7.2-17.62 6.98l-6.26-.36-3.24-.17q-3.94-.21-7.88-.45v-1l3.84-.15 5.1-.23 2.52-.09c15.74-.73 15.74-.73 21.54-6.53z" fill="#D7DBD8"/><path d="M772 454c10.88-.53 18.71 1.84 27 9l-3 1q-2.56-1.39-5.05-2.88c-6.38-3.67-12.67-4.69-19.95-5.12z" fill="#E6E8E8"/><path d="M617 676h1l.18 2.3.26 3.01.24 2.99c.32 2.7.32 2.7 1.32 5.7-.54 5.65-1.99 9.85-6 14l-3-1 .84-1.57 1.1-2.12 1.09-2.07c2.03-4.68 2.2-9.5 2.53-14.55l.26-3.8z" fill="#E3E5E7"/><path d="M812 479c2.76 2.76 2.82 5.2 3.56 9 1.35 6.82 1.35 6.82 2.44 9l-3 4a547 547 0 0 1-3.12-8.89c-1.32-4.69-.96-8.4.12-13.11" fill="#09090A"/><path d="M760 28h1c.18 19.28.18 19.28-.38 28.56l-.21 3.57C760 63 760 63 758 66V46h2z" fill="#313233"/><path d="M495 208h1l.55 2.53A166 166 0 0 0 502 230h-3c-2.81-5.36-5.38-10.93-6-17 .94-2.81.94-2.81 2-5" fill="#DFE0E2"/><path d="m893 401-2 2c-3.23-.02-3.23-.02-7.19-.38-3.93-.33-7.73-.62-11.67-.53C869 402 869 402 867 400c8.98-1.16 17.33-2.02 26 1" fill="#E4E5E6"/><path d="M762 430h1c2.33 7.15 2.8 12.81 0 20h-2c-.18-13.63-.18-13.63 1-20" fill="#E4E7E5"/><path d="m715 674 26 2c-3.83 2.55-6.95 2.26-11.38 2.19h-2.28c-3.91-.04-7.53-.24-11.34-1.19z" fill="#ECEFEC"/><path d="M488 410h1l.08 1.95.36 8.93.12 3.07c.26 6.38.72 12.7 1.44 19.05l-1-4h-2c-1.1-3.3-1.03-5.51-.88-8.98l.15-3.53.17-3.68.16-3.71z" fill="#CCCECF"/><path d="M796 410h1l-1 25c-2.51-2.51-2.26-4.09-2.27-7.52l.02-2.17-.02-2.1c.01-4.76.78-8.7 2.27-13.21" fill="#EEF1F2"/><path d="M745 14c6.13 1.44 10.04 3.24 13.81 8.56C760 25 760 25 760 28h-2l-1-5h-2v-2l-2.19-.88L745 17z" fill="#1D1D1F"/><path d="M827 368c-1.18 3.54-2.24 4.2-5.19 6.38A242 242 0 0 0 811 383c0-3 0-3 1.54-4.9C822.89 368 822.89 368 827 368" fill="#DADCDE"/><path d="M759 63h1q.3 5.22.56 10.44l.17 3.01.15 2.86.14 2.65C761 84 761 84 760 85q-.35 3.53-.56 7.06l-.26 3.91L759 99h-1c-.14-12.04.26-23.98 1-36" fill="#A2A2A3"/><path d="M481 610q7.54 6.45 15 13l-1 3v-2l-1.74-.22c-3.07-1.06-4.32-2.8-6.38-5.28-3.71-4.41-3.71-4.41-5.88-5.5z" fill="#EAECEB"/><path d="M757 211c1.62 1.56 1.62 1.56 3 4a36 36 0 0 1-4 11l-2-2c.21-2.28.21-2.28.81-4.94l.58-2.65C756 214 756 214 757 211" fill="#E1E3E5"/><path d="M500 230c3.78 1.51 5.65 3.7 8.12 6.88l2.08 2.61A36 36 0 0 1 514 246c-5.77-3.86-10.42-7.98-14-14z" fill="#E7E8EA"/><path d="M445 473h1c-.79 6.79-2.41 13.36-4 20-2-2-2-2-2.12-3.85.66-5.97 2.4-10.81 5.12-16.15" fill="#E5E6E6"/><path d="M764 407h1q.37 6.43.69 12.88l.22 3.7.16 3.54.18 3.27L766 433l-3 2c-.18-9.37.39-18.66 1-28" fill="#F6F9F7"/><path d="m875.5 353.94 2.2.3 5.3.76v1h-26c4.58-4.58 12.58-2.94 18.5-2.06" fill="#D1D1D3"/><path d="M487 406h1v21l-2-1c-1.39-7-1.21-13.25 1-20" fill="#F0F3F4"/><path d="M490 658h1l.26 2.01c.96 6.01 1.92 9.19 6.74 12.99l-3 1c-3.28-1.95-4.75-3.18-5.88-6.88-.12-3.2.21-5.99.88-9.12" fill="#DBDEDE"/><path d="m687 661 5 2-2 3 4 3-1 3-6-3z" fill="#EAEDEB"/><path d="M809 382h2a58 58 0 0 1-5.12 10.31l-1.64 2.68L803 397l-2-2a65 65 0 0 1 8-13" fill="#E0E0E5"/><path d="M501 340c1.15 1.55 1.15 1.55 2 4a56 56 0 0 1-2.38 7.25l-.74 1.97L498 358h-1a63 63 0 0 1 4-18" fill="#E1E4E5"/><path d="M635 690c2.15 3.22 3.5 6.44 5 10q.97 2.01 2 4c-4.61-1.46-4.61-1.46-6.25-3.75A38 38 0 0 1 634 692z" fill="#DCDEDF"/><path d="M440 516h1a80 80 0 0 1 1 15h-2c-2.23-3.34-2.35-4.13-2-8q.92-3.52 2-7" fill="#D5D8D6"/><path d="M744 240c0 3 0 3-2.08 5.26l-2.73 2.43-2.71 2.45C734 252 734 252 731 252l3.69-4.31 2.07-2.43A29 29 0 0 1 744 240" fill="#EAECEC"/><path d="M940 377c4.84.42 6.82 2.46 10 6l1 1q.06 2.5 0 5l-1.56-2.12a59 59 0 0 0-8.05-7.65L940 378z" fill="#CDCFD1"/><path d="M841 360c-1 3-1 3-3.94 4.61l-3.62 1.58L827 369l-1-2 6.38-3.5 1.82-1.01c4.57-2.49 4.57-2.49 6.8-2.49" fill="#E5E6E8"/><path d="M470 454h16v3q-3.43-.17-6.88-.38l-3.86-.21C472 456 472 456 470 454" fill="#EDEEF1"/><path d="M734 305c3 1 3 1 4 2.69l1 2.31 1.69 3.12L742 316l-1 2c-3.34-2.99-5.25-5.88-7-10z" fill="#ECEFED"/><path d="m473.81 455.38 2.1.17 5.1.44v1c-.48.05-.48.05-2.86.2l-3.78.25q-1.84.11-3.72.25c-3.27.27-6.43.73-9.65 1.3v-2c4.35-2.2 8.08-2.06 12.81-1.62" fill="#CDCED1"/><path d="M702 669q3.22.89 6.44 1.81l3.62 1.02L715 673l1 3-5.31-1.44-2.99-.81q-2.87-.8-5.7-1.75z" fill="#E3E4E5"/><path d="M845 416c1 3 1 3 .06 5.19L844 423h-2v13h-1l-.12-6.69-.08-3.76c.19-3.39.62-5.57 2.2-8.55z" fill="#BCBCC0"/><path d="m871.19 397.94 2.73.03 2.08.03v2l-1.8.19c-4.11.43-8.15.9-12.2 1.8l1-3c3.02-1 5.04-1.1 8.19-1.05" fill="#C2C3C5"/><path d="m552 676 2 2c-.62 2.38-.62 2.38-2 5-3.12 1.31-3.12 1.31-6 2 1.31-3.94 2.92-6.23 6-9" fill="#24222B"/><path d="m794 596-1 3-3.38.44C786 600 786 600 784 601l-3-2c8.43-3.43 8.43-3.43 13-3" fill="#EBEEEC"/><path d="M492 452c1.76 3.09 2 4.23 2 8l-10-2c2-2 2-2 4.62-2.12l2.38.12z" fill="#C6C6C8"/><path d="M492 441h2l1 9-3 2-.56-4.94-.32-2.77L491 442z" fill="#26282A"/><path d="m842 423 3 1q.12 2.68.19 5.38l.1 3.02-.29 2.6-3 2z" fill="#F3F3F8"/><path d="m854 536 2 2c-.25 4.59-.86 7.59-4 11-1.19-3.43-.8-5.38.44-8.75l.87-2.42z" fill="#D5D5D7"/><path d="M951 386c2.36 2.36 3.09 3.78 4 7a66 66 0 0 1-1 8h-2z" fill="#EDEFEE"/><path d="M828 579c-1.27 3.8-2.58 4.09-6 6q-2.02 1.47-4 3l-1-2h2v-3c5.14-4 5.14-4 9-4" fill="#E7E7E7"/><path d="M748 334c4.24 2.83 3.98 5.12 5 10l-4-1z" fill="#EBEDEB"/><path d="M491 655a30 30 0 0 1 3.12 8.75l.51 2.42.37 1.83h-3c-1-3.01-1.1-5.04-1.06-8.19l.02-2.73z" fill="#27292A"/><path d="M759 428h1l1 17h-3z" fill="#222522"/><path d="m511 316 3 1-5 11-2-1 1.44-4.38.81-2.46C510 318 510 318 511 316" fill="#E2E4E6"/><path d="M504 14v2a481 481 0 0 1-6 4 89 89 0 0 0-4 4c.15-2.65.5-4.44 2.3-6.45C500.4 14 500.4 14 504 14" fill="#DFDFE1"/><path d="M466 459c-1.75 4.88-1.75 4.88-4 6v-2l-3 1-2-2c3.44-2.29 4.72-3 9-3" fill="#1D1D1F"/><path d="m806 390 2 3-2 3 1 2-6 3c1.45-3.79 3.15-7.39 5-11" fill="#1A1D20"/><path d="M722 273c2.12 3.53 2.53 6.94 3 11l-3-1c-.73-1.85-.73-1.85-1.19-4.06l-.48-2.23L720 275h2z" fill="#ECF0EB"/><path d="M844 435c1.88 3.76 2.22 6.22 1.06 10.31L844 448h-1a316 316 0 0 1-.62-5.38l-.36-3.02-.02-2.6z" fill="#E3E3E5"/><path d="M497 221h2l3 9h-3c-1.56-2.81-1.56-2.81-3-6z" fill="#D7D8D8"/><path d="M513 11v2q-2.17.58-4.38 1.12l-2.46.64L504 15l-2-2c7.67-3.11 7.67-3.11 11-2" fill="#EDEDEE"/><path d="m553 669-2 3h-2l-1 2h-2l-1-4c5.75-2.12 5.75-2.12 8-1" fill="#E4E2E4"/><path d="M444 552h3l.44 3.25c.4 2.67.84 5.16 1.56 7.75-3.81-2.77-4.07-6.63-5-11" fill="#ECECF0"/><path d="m759 375 4 1c-.55 3.37-1.05 5.08-3 8z" fill="#E2E5E2"/><path d="M718 271c1.9 2.85 2.46 4.42 3.12 7.69l.51 2.45.37 1.86h-2q-.8-2.43-1.56-4.88l-.88-2.74C717 273 717 273 718 271" fill="#272A27"/><path d="M841 436h1l1 13-2-1c-1.46-8.1-1.46-8.1 0-12" fill="#171818"/><path d="m579 56 2.06 1.44c3.36 1.78 6.18 2.19 9.94 2.56v1a43 43 0 0 1-9 1c-2.06-1.81-2.06-1.81-3-4z" fill="#EAECEB"/><path d="M753 19c1.81.19 1.81.19 4 1 2.14 2.91 3 4.36 3 8h-2l-1-5h-2v-2h-2z" fill="#252526"/><path d="m613 696 2 1-4 7-3-1z" fill="#1F221F"/><path d="M489 654h2l-1 10c-2-1-2-1-2.75-2.75-.32-2.89.52-4.65 1.75-7.25" fill="#EFF1F1"/><path d="M772 458h-3l1 3-5 1v-2l-3-1c6.29-2.43 6.29-2.43 10-1" fill="#282B2A"/><path d="M763 659c1.12 1.69 1.12 1.69 2 4-.75 2.69-.75 2.69-2 5l-2 1 .44-4.44.24-2.49C762 660 762 660 763 659" fill="#F2F6F2"/><path d="M444 541h1l2 11-4-2z" fill="#D4D4D5"/><path d="M513 635v2l-9 3v-3c5.62-2 5.62-2 9-2" fill="#D9D8DE"/><path d="m849 409 1 3c-1.81 2.69-1.81 2.69-4 5h-2c1.19-3.38 2.28-5.65 5-8" fill="#D2D2D6"/><path d="M914 361c5.45.45 5.45.45 8 3-3.81 1.47-6.29.43-10-1z" fill="#D6D6D7"/><path d="M506 327h2l-1 6-4 1c1.88-5.88 1.88-5.88 3-7" fill="#E9EBED"/><path d="M856 486h2c1.05 3.98.84 6.98 0 11h-1z" fill="#D6D6D9"/><path d="M817 376c-1.39 3.37-2.98 4.99-6 7 0-3 0-3 1.88-5.19C815 376 815 376 817 376" fill="#D2D3D6"/><path d="m490 376 3 1-1 9c-2-3.99-2.2-5.7-2-10" fill="#D8D8DA"/><path d="M688 50v2l-7 4v-3c2.53-2.36 3.47-3 7-3" fill="#1C1C20"/><path d="M709 692h1l1 11-3 1z" fill="#B5B7B6"/><path d="m545 680 3 1-3 6-2-1z" fill="#E5E3EB"/><path d="m687 661 5 2-1 2h-3l-1 3z" fill="#D8DBD8"/><path d="M811 589v3l-6 1 1-3c2-1 2-1 5-1" fill="#E5E7E6"/><path d="M806 471c2.57 3.85 2.55 6.43 3 11-4.13-6.2-4.13-6.2-3.62-9.25z" fill="#BEC0C3"/><path d="M791 459c3.24.35 4.62.56 6.81 3.06L799 464c-3.8-.54-5.47-2.2-8-5" fill="#E2E5E6"/><path d="M490 382h1v9c-2.38-2.38-2.67-3.7-3-7z" fill="#E3E5E6"/><path d="M751 348c1.88 3.27 2.49 6.28 3 10h-2c-1.61-3.21-1.06-6.44-1-10" fill="#2D302C"/><path d="m529 257 4 1 1 5h-2z" fill="#DDE0E1"/><path d="m520 248 1.75.94c2.09.99 4 1.58 6.25 2.06l-1 4-3.5-2.94-1.97-1.65L520 249z" fill="#1C1E1F"/><path d="M500 17h2l-1 4-5 1q1.93-2.56 4-5" fill="#1E1E20"/></svg>