<svg style="background:transparent" version="1.1" xmlns="http://www.w3.org/2000/svg" viewBox="0 0 1248 704"><path d="M1000.75 89.87H1015c2 .13 2 .13 3 1.13q2 0 4-.12c4.41-.07 7.77.87 11.87 2.4 2.13.72 2.13.72 5.75 1.22 3.85.57 6.84 1.9 10.38 3.5l2.81.94a113 113 0 0 1 21.64 9.79c2.56 1.28 4.75 1.74 7.55 2.27l3 2v2l1.68.8c13.71 7.07 30.51 18.63 36.38 33.64 1.9 7.23 2.17 11.66-1.06 18.56-4.05 5.93-8.47 10.94-15.63 12.67-8.89 1.24-15.27.12-23.37-3.67l-2.49-.9c-2.89-1.26-4.92-2.87-7.33-4.91a77 77 0 0 0-9.8-7.06L1060 162v-2l-1.69-.48c-4.03-1.23-7.52-2.5-11-4.9-7.75-5.12-17.09-7.95-26.3-8.62l-2.33-.47c-7.48-1.46-15.19-2.03-22.68-.53q-1.64.14-3.32.32c-10.8 2-20.3 7.58-27.68 15.68l-2-1-1.32 2.44C960 165 960 165 957 166l-.32 2.32c-.76 2.98-1.48 3.65-3.68 5.68-4.1 6.24-7.13 13.13-10 20l-3 7-1.44 3.5a70 70 0 0 1-3.63 7.13C933 215 933 215 932.1 217.37c-5.49 13.22-17.05 23.8-27.09 33.63l-2 2.07A75 75 0 0 1 885 266q-2.52 1.49-5 3l-5 3c2.15 5.3 4.7 10.18 7.56 15.13a88 88 0 0 1 8.44 19.3 249 249 0 0 0 3.05 9.6 57 57 0 0 1 2.01 8.97l.47 3 .47 3 .52 3.03c.6 3.78.9 7.57 1.2 11.39.28 2.58.28 2.58.8 4.48.5 2.18.6 4.07.61 6.3l.01 2.48v11.08q-.02 4.39 0 8.78v8.2c-.03 6.15-.03 6.15-1.14 7.26-.93 6.27-1.05 12.53-.97 18.85-.04 2.48-.5 4.74-1.03 7.15v6l-1 1a157 157 0 0 0 0 6.5q.05 3.26 0 6.5l-1 1q-.07 2.25 0 4.5c.04 4.2-.26 8.23-.79 12.4-.2 2.1-.2 2.1-.2 5.85 0 3.25 0 3.25-.5 5.5-.62 3.35-.64 6.52-.65 9.92v2.04l.01 4.25v14.44c.13 3.1.13 3.1 1.13 6.1v5l1 2q.27 2.6.43 5.19a59 59 0 0 0 3.63 15.75 47 47 0 0 1 1.66 9.07c.28 1.99.28 1.99 1.21 5.24 1.93 6.8 2.9 13.8 3.63 20.82C906 573 906 573 907 576q.06 2.06 0 4.13V584l1 1c.07 2.23 0 4.45-.07 6.68.07 2.32.07 2.32.56 4.07.65 2.9.62 5.59.6 8.55v3.86l-.02 2.06-.02 6.38q-.01 6.76-.05 13.53l-.06 15.7q0 3.15-.03 6.29v3.84l-.03 3.4C909 662 909 662 910 664c1.94.69 1.94.69 4.48 1.3l2.82.7 3.01.75c20.34 5.32 20.34 5.32 27 12.32 1.7 2.93 1.7 2.93 1.75 5.5-2.59 5.94-6.26 8.57-11.99 11.24-21.13 8.19-43.95 8.66-66.28 8.63h-6.14q-11.98.04-23.96 0h-11.28c-44.88-.02-89.55-1-134.34-3.98-24.05-1.58-48.1-1.7-72.2-1.71h-2.8c-37.2-.03-74.39.72-111.49 3.77-17 1.37-33.87 1.76-50.92 1.7h-8.44l-17.97-.01-25.97-.02q-21.07 0-42.16-.04l-40.9-.04h-2.55l-12.7-.01A122368 122368 0 0 1 202 704v-3q.91-.59 1.87-1.18c3.24-2.77 3.32-5.7 4.13-9.82l-2.82 1.46-3.75 1.92-1.84.96a48.4 48.4 0 0 1-34.12 3.75 68 68 0 0 1-8.47-4.1l-2.56-1.34c-6.4-3.76-10.1-8.54-12-15.76-1.12-7.08.14-12.7 3.56-18.9q.59-1.4 1.18-2.86c3.53-6.08 8.14-10.8 14.82-13.13l2.25-1.06c5.3-1.81 10.58-2.04 16.12-1.56 8.9.12 16.32-7.86 22.63-13.38l3-1 .81-1.75c1.4-2.66 3.28-4.11 5.61-5.96 1.58-1.3 1.58-1.3 4.08-3.8s2.5-2.5 5.56-5A46 46 0 0 0 229 601l4-4q1.5-1.72 3-3.5a105 105 0 0 1 7-7.5l2-2 2.43-2.24c2.57-2.75 2.57-2.75 4.13-5.93 1.44-2.82 1.44-2.82 3.3-3.68 2.86-1.52 4-3.41 5.82-6.07a234 234 0 0 1 9.2-12.25c.36-.47.36-.47 2.23-2.8l1.9-2.02h2a54 54 0 0 0 1-10c-2.2-1.56-2.2-1.56-5-3l-5-3c-.43-.22-.43-.22-2.5-1.37-2.93-1.9-5.12-4.11-7.5-6.63l-2-2-2-2-2.45-2.18c-4.24-4.66-6.77-10.22-9.56-15.82l-1-1.87c-2.27-4.83-3.54-10.02-5-15.13l-1-3c-2.2-6.6-3.7-13.2-5-20l-1.07-5.37q-.22-1.2-.47-2.4-.45-2.15-.99-4.26a46 46 0 0 1-.97-6.1C225 441 225 441 224 439a125 125 0 0 1-.38-4.75c-.38-4.4-1.54-7.34-3.62-11.25a93 93 0 0 1 0-5q-.95-3.5-2-7-1.07-4.5-2-9l-.54-2.48a122 122 0 0 1-2.03-12.58C213 383 213 383 212 382v-7l-1-3a63 63 0 0 1-.1-4.12l.01-2.4.02-2.48.02-2.48.03-4.57.02-4.95c.85-6.2 5.4-11.05 10.08-14.86 5.02-2.97 11.43-1.07 16.77.24 5.9 1.7 11.28 4.65 16.72 7.44 2.44 1.19 4.9 2.2 7.43 3.18l3.43 1.5c5.91 2.49 11.18 4.08 17.57 4.5l3-2q2.54-.79 5.12-1.43c3.55-.93 7.03-1.92 10.5-3.13a92 92 0 0 1 11.32-2.97c2.06-.47 2.06-.47 5.12-1.53 3.66-1.17 7.11-1.51 10.94-1.94l1.83-.47c3.96-.96 8.04-1.32 12.07-1.83 4.98-1.12 7.63-4.12 11.1-7.7l2.37-2.18c2.81-3.02 4.92-6.17 7.16-9.61 3.34-5.02 7.18-9 11.92-12.72 1.74-1.68 2.5-3.32 3.55-5.5 2.25-1.55 2.25-1.55 5-3q1.41-.84 2.87-1.74c4.18-1.67 5.82-1.68 10.13-.25 5.91 4.26 10 7.88 12 15a73 73 0 0 0 1.87 3.75A106 106 0 0 1 419 335a127 127 0 0 0 4 12.32 84 84 0 0 1 4 15.68c3.63 0 4.76-.12 7.82-1.57l2.16-1.02 2.27-1.1 2.33-1.11a101 101 0 0 0 12.25-6.84c3.87-2.42 7.94-4.48 11.98-6.6a91 91 0 0 0 8.2-4.76l5-2q2.94-1.43 5.88-2.93 3.97-2 7.95-3.94c2.47-1.3 4.87-2.68 7.28-4.07 3.03-1.71 6.11-3.31 9.2-4.93a289 289 0 0 0 15.6-8.88A94 94 0 0 1 533 309l3-1.5c9-4.5 9-4.5 11.87-5.87a89 89 0 0 0 7.06-4.13A67 67 0 0 1 566 292q3-1.47 6-3l2.06-1c2.38-1.23 4.64-2.61 6.94-4a198 198 0 0 1 12.75-6.86c3.6-1.82 7.11-3.8 10.63-5.77 2.5-1.31 5-2.33 7.62-3.37q2.26-1.18 4.5-2.43l2.36-1.33q2.42-1.42 4.76-2.92c3-1.66 6.08-2.38 9.38-3.32q2.52-1.46 5-3l7-3c2.91-1.37 5.52-2.63 8.06-4.62 2.34-1.67 4.11-1.81 6.94-2.38a170 170 0 0 0 4.37-1.93A70 70 0 0 1 676 239a74 74 0 0 0 9.12-3.43c4.16-1.83 8.5-2.77 12.9-3.81a88 88 0 0 0 7.6-2.32 80 80 0 0 1 12.04-2.97c2.34-.47 2.34-.47 5.9-1.53a57 57 0 0 1 10.03-1.7q2.78-.28 5.53-.7c4.78-.66 9.57-1.14 14.38-1.6l2.76-.28a102 102 0 0 1 24.7.63c3.46.47 6.81.76 10.32.72 3.98-.01 6.93.84 10.72 1.99l5.95.66c2.91.49 5.51 1.55 8.25 2.65 2.23.86 4.44 1.28 6.8 1.69q2 .52 4 1.07c6.16 1.52 9.35 1.03 15-2.07l4.25-2.18 2.01-1.05C850 224 850 224 852 224l.75-1.87c1.52-2.58 2.54-2.92 5.25-4.13 5.71-3.43 5.71-3.43 7-6 1.25-2.51 2.98-3.3 5.3-4.77 8.93-6.47 16.03-18.47 20.7-28.23l1.31-2.6 1.25-2.46 1.25-2.47c1.56-3.24 2.84-6.56 4.12-9.9a88 88 0 0 1 7.78-14.44c1.3-2.13 1.3-2.13 2.64-5.01 1.82-3.45 3.97-6.1 6.52-9.05a94 94 0 0 0 7.75-9.94c2.97-3.91 6.4-6.33 10.38-9.13l2.43-2.06a67 67 0 0 1 9.38-5.7 56 56 0 0 0 6.2-4.24 68 68 0 0 1 12-5l3.92-1.56c3.66-1.4 7.17-2 11.07-2.44l2.31-.5c3.48-.64 6.96-.92 10.48-1.22 3.24-.41 5.55-1.41 8.96-1.41" fill="#111311"/><path d="M1000.75 89.87H1015c2 .13 2 .13 3 1.13q2 0 4-.12c4.41-.07 7.77.87 11.87 2.4 2.13.72 2.13.72 5.75 1.22 3.85.57 6.84 1.9 10.38 3.5l2.81.94a113 113 0 0 1 21.64 9.79c2.56 1.28 4.75 1.74 7.55 2.27l3 2v2l1.68.8c13.71 7.07 30.51 18.63 36.38 33.64 1.9 7.23 2.17 11.66-1.06 18.56-4.05 5.93-8.47 10.94-15.63 12.67-8.89 1.24-15.27.12-23.37-3.67l-2.49-.9c-2.89-1.26-4.92-2.87-7.33-4.91a77 77 0 0 0-9.8-7.06L1060 162v-2l-1.69-.48c-4.03-1.23-7.52-2.5-11-4.9-7.75-5.12-17.09-7.95-26.3-8.62l-2.33-.47c-7.48-1.46-15.19-2.03-22.68-.53q-1.64.14-3.32.32c-10.8 2-20.3 7.58-27.68 15.68l-2-1-1.32 2.44C960 165 960 165 957 166l-.32 2.32c-.76 2.98-1.48 3.65-3.68 5.68-4.1 6.24-7.13 13.13-10 20l-3 7-1.44 3.5a70 70 0 0 1-3.63 7.13C933 215 933 215 932.1 217.37c-5.49 13.22-17.05 23.8-27.09 33.63l-2 2.07A75 75 0 0 1 885 266q-2.52 1.49-5 3l-5 3c2.15 5.3 4.7 10.18 7.56 15.13a88 88 0 0 1 8.44 19.3 249 249 0 0 0 3.05 9.6 57 57 0 0 1 2.01 8.97l.47 3 .47 3 .52 3.03c.6 3.78.9 7.57 1.2 11.39.28 2.58.28 2.58.8 4.48.5 2.18.6 4.07.61 6.3l.01 2.48v11.08q-.02 4.39 0 8.78v8.2c-.03 6.15-.03 6.15-1.14 7.26-.93 6.27-1.05 12.53-.97 18.85-.04 2.48-.5 4.74-1.03 7.15v6l-1 1a157 157 0 0 0 0 6.5q.05 3.26 0 6.5l-1 1q-.07 2.25 0 4.5c.04 4.2-.26 8.23-.79 12.4-.2 2.1-.2 2.1-.2 5.85 0 3.25 0 3.25-.5 5.5-.62 3.35-.64 6.52-.65 9.92v2.04l.01 4.25v14.44c.13 3.1.13 3.1 1.13 6.1v5l1 2q.27 2.6.43 5.19a59 59 0 0 0 3.63 15.75 47 47 0 0 1 1.66 9.07c.28 1.99.28 1.99 1.21 5.24 1.93 6.8 2.9 13.8 3.63 20.82C906 573 906 573 907 576q.06 2.06 0 4.13V584l1 1c.07 2.23 0 4.45-.07 6.68.07 2.32.07 2.32.56 4.07.65 2.9.62 5.59.6 8.55v3.86l-.02 2.06-.02 6.38q-.01 6.76-.05 13.53l-.06 15.7q0 3.15-.03 6.29v3.84l-.03 3.4C909 662 909 662 910 664c1.94.69 1.94.69 4.48 1.3l2.82.7 3.01.75c20.34 5.32 20.34 5.32 27 12.32 1.7 2.93 1.7 2.93 1.75 5.5-2.59 5.94-6.26 8.57-11.99 11.24-21.13 8.19-43.95 8.66-66.28 8.63h-6.14q-11.98.04-23.96 0h-11.28c-44.88-.02-89.55-1-134.34-3.98-24.05-1.58-48.1-1.7-72.2-1.71h-2.8c-36.99-.03-74.1.45-110.98 3.77-20.96 1.83-41.87 1.75-62.9 1.69q-7.78-.03-15.58-.02l-29.36-.04q-16.75-.04-33.49-.05-34.38-.03-68.76-.1a32 32 0 0 1 7.3-5.64l2.61-1.53 2.84-1.64 6.02-3.53 3.14-1.83c4.83-2.85 9.61-5.78 14.4-8.7q10.45-6.4 20.98-12.7a1838 1838 0 0 0 42.57-26.24c34.11-21.57 34.11-21.57 50.03-32.67q2.55-1.78 5.11-3.52l2.25-1.65c4.35-2.13 8.96-2.85 13.68-3.78 22.2-4.61 43.02-12.27 64.07-20.57l2.92-1.14c37-14.65 73.14-32.82 107.75-52.42 5.54-3.14 11.16-6.16 16.76-9.2q2.94-1.57 5.87-3.16l2.84-1.52 5.95-3.28 3-1.67 2.71-1.51c2.2-1.1 2.2-1.1 4.2-1.1l.6 1.92c8.03 25.16 17.41 50.2 35.4 70.08l2.2 2.53c6.52 7.4 13.33 14.59 20.86 20.97 8.9 7.7 17.94 17.42 19.94 29.5q.09 3.63.06 7.25l-.03 3.83L765 644l-2.13.3c-9.8 1.54-16.98 4.1-23.07 12.3-3.82 6.27-3.54 13.29-2.8 20.4 1.24 4.5 1.24 4.5 3.8 6.19l2.2.8 2.51 1.05 2.74 1.03 2.7 1.03c7.92 2.35 16.11 2.12 24.3 2.15l3.48.07c10.16.04 20.8-1.03 29.23-7.2 7.1-7.37 10.31-18.3 12.04-28.12l.4-2.28c3.88-22.5 4.87-45.82-2.4-67.72l-1.19-4.12-.8-2.88c12.13 5.42 27.7 18.79 33 31 3.07 8.47 6.11 17.19 6.12 26.27v14.68C855 651 855 651 854 652q-2.44.12-4.88.19c-7.5.65-14.03 3.3-19.08 9.04-4.85 7.06-6.95 13.19-6.04 21.77a41 41 0 0 0 3 7l1 3a20 20 0 0 0 4 2l2.36 1.04 2.51 1.03 2.5 1.03c6.9 2.37 14.04 2.15 21.25 2.22l3.37.08c10.81.08 22.32-2.6 31.01-9.4 13.56-15.75 10.41-40.78 10.37-60.12v-2.05c-.04-34.46-3.45-66.47-11.35-100.02L892 520l-.7-3.11c-1.93-9.75-1.65-19.68-1.62-29.57l.01-2.98c.05-23.24 1.81-46.27 3.96-69.4 2.97-31.98 6-65.75-3.09-97q-.84-2.95-1.65-5.92c-3.55-12.51-9.17-24.03-16.1-35.03-1.26-3.08-1.54-4.68-.8-8 2.67-2.27 5.74-3.76 8.86-5.36l5.3-2.92 2.55-1.41A66 66 0 0 0 901 250l1.7-1.57c18.24-17.1 29.46-36.54 39.05-59.55 8.2-19.58 20.66-35.51 40.4-44.28 20.35-7.68 43.5-3.5 62.95 4.93 9.5 4.29 17.66 9.95 26.02 16.1 10.82 7.87 19.25 12.65 32.88 11.37 6.3-1.06 9.95-3.27 13.9-8.28 3.17-4.98 2.72-11.06 2.1-16.72a35 35 0 0 0-5-9l-1.18-1.72c-8.64-11.31-22.72-19.21-34.82-26.28l-1.87-1.1a138.4 138.4 0 0 0-70.26-19.2q-2.36 0-4.7-.05c-26.7-.51-51.2 8.4-71.17 26.35l-2.26 1.98c-13.29 12.35-21.39 28.47-28.87 44.7-5.68 12.3-11.44 23.66-19.87 34.32l-1.67 2.12c-9.48 11.52-21.28 19.88-34.2 27.13l-2.06 1.2c-8.67 4.62-16.96 1.19-25.89-1.32-28-7.44-58.66-9.48-87.22-3.53q-2.77.55-5.57.99c-28.83 4.93-56.8 17.08-83.16 29.37l-6.57 3.03a445 445 0 0 0-23.46 11.67q-7.95 4.24-15.97 8.34l-2.09 1.07-4.28 2.19a1231 1231 0 0 0-32.34 17.08c-8.33 4.59-16.74 9.03-25.15 13.48a5347 5347 0 0 0-31.75 16.87l-3.42 1.83q-7.76 4.16-15.5 8.36a864 864 0 0 1-39.62 20.44c-4.97 2.37-9.73 4.39-15.08 5.68l-.75-2.88C409.26 308.37 409.26 308.37 396 299c-3.93-1.3-7.44-.77-11.13 1.05-9.29 6.6-16.74 16.72-23.56 25.77l-3.3 4.18-1.92 2.47c-6.82 7.85-13 9.45-22.87 10.88-4 .58-7.99 1.29-11.98 1.99l-2.4.4a174 174 0 0 0-20.84 5.08l-2.95.87c-6.44 1.99-6.44 1.99-9.09 3.37-4.73 2.26-9.35 1.46-14.15-.08q-4.8-1.91-9.5-3.97a755 755 0 0 0-7.77-3.34q-5.5-2.34-10.99-4.71l-2.44-1.05q-2.43-1.05-4.86-2.15c-4.62-1.56-9.46-1.41-14.25-.76-3.53 2.54-5.3 5.07-7 9-3.55 23.79 3.61 50.89 9.66 73.76 1.17 4.48 2.1 8.93 2.84 13.49 12.04 72.69 12.04 72.69 36.37 91.69 6.53 4.59 13.54 8.53 21.13 11.06-1.57 5.18-4.82 8.7-8.25 12.75l-3.82 4.56-1.97 2.35q-2.85 3.41-5.65 6.85a420 420 0 0 1-17.94 20.9 313 313 0 0 0-5.69 6.4 496 496 0 0 1-11.12 12.26l-1.87 2.02a147 147 0 0 1-11.92 11.37c-2.09 1.82-4 3.77-5.9 5.79a135 135 0 0 1-11.94 10.57l-1.7 1.38c-8.07 6.29-14.36 8.34-24.52 8.29-7 .13-11.98 2.29-17.4 6.7-7.1 8.65-9.34 16.7-8.3 27.8 2 6.77 5.83 10.27 11.92 13.64 6.81 3.05 12.43 3.74 19.82 3.75l2.84.07c9.58.04 16.96-3.32 25.03-8.2l3.1-1.86 2.28-1.4 1 2-.9 2.2c-1.29 3.29-1.52 6.1-1.73 9.63l-.23 3.5L210 704h-8v-3q.91-.59 1.87-1.18c3.24-2.77 3.32-5.7 4.13-9.82l-2.82 1.46-3.75 1.92-1.84.96a48.4 48.4 0 0 1-34.12 3.75 68 68 0 0 1-8.47-4.1l-2.56-1.34c-6.4-3.76-10.1-8.54-12-15.76-1.12-7.08.14-12.7 3.56-18.9q.59-1.4 1.18-2.86c3.53-6.08 8.14-10.8 14.82-13.13l2.25-1.06c5.3-1.81 10.58-2.04 16.12-1.56 8.9.12 16.32-7.86 22.63-13.38l3-1 .81-1.75c1.4-2.66 3.28-4.11 5.61-5.96 1.58-1.3 1.58-1.3 4.08-3.8s2.5-2.5 5.56-5A46 46 0 0 0 229 601l4-4q1.5-1.72 3-3.5a105 105 0 0 1 7-7.5l2-2 2.43-2.24c2.57-2.75 2.57-2.75 4.13-5.93 1.44-2.82 1.44-2.82 3.3-3.68 2.86-1.52 4-3.41 5.82-6.07a234 234 0 0 1 9.2-12.25c.36-.47.36-.47 2.23-2.8l1.9-2.02h2a54 54 0 0 0 1-10c-2.2-1.56-2.2-1.56-5-3l-5-3c-.43-.22-.43-.22-2.5-1.37-2.93-1.9-5.12-4.11-7.5-6.63l-2-2-2-2-2.45-2.18c-4.24-4.66-6.77-10.22-9.56-15.82l-1-1.87c-2.27-4.83-3.54-10.02-5-15.13l-1-3c-2.2-6.6-3.7-13.2-5-20l-1.07-5.37q-.22-1.2-.47-2.4-.45-2.15-.99-4.26a46 46 0 0 1-.97-6.1C225 441 225 441 224 439a125 125 0 0 1-.38-4.75c-.38-4.4-1.54-7.34-3.62-11.25a93 93 0 0 1 0-5q-.95-3.5-2-7-1.07-4.5-2-9l-.54-2.48a122 122 0 0 1-2.03-12.58C213 383 213 383 212 382v-7l-1-3a63 63 0 0 1-.1-4.12l.01-2.4.02-2.48.02-2.48.03-4.57.02-4.95c.85-6.2 5.4-11.05 10.08-14.86 5.02-2.97 11.43-1.07 16.77.24 5.9 1.7 11.28 4.65 16.72 7.44 2.44 1.19 4.9 2.2 7.43 3.18l3.43 1.5c5.91 2.49 11.18 4.08 17.57 4.5l3-2q2.54-.79 5.12-1.43c3.55-.93 7.03-1.92 10.5-3.13a92 92 0 0 1 11.32-2.97c2.06-.47 2.06-.47 5.12-1.53 3.66-1.17 7.11-1.51 10.94-1.94l1.83-.47c3.96-.96 8.04-1.32 12.07-1.83 4.98-1.12 7.63-4.12 11.1-7.7l2.37-2.18c2.81-3.02 4.92-6.17 7.16-9.61 3.34-5.02 7.18-9 11.92-12.72 1.74-1.68 2.5-3.32 3.55-5.5 2.25-1.55 2.25-1.55 5-3q1.41-.84 2.87-1.74c4.18-1.67 5.82-1.68 10.13-.25 5.91 4.26 10 7.88 12 15a73 73 0 0 0 1.87 3.75A106 106 0 0 1 419 335a127 127 0 0 0 4 12.32 84 84 0 0 1 4 15.68c3.63 0 4.76-.12 7.82-1.57l2.16-1.02 2.27-1.1 2.33-1.11a101 101 0 0 0 12.25-6.84c3.87-2.42 7.94-4.48 11.98-6.6a91 91 0 0 0 8.2-4.76l5-2q2.94-1.43 5.88-2.93 3.97-2 7.95-3.94c2.47-1.3 4.87-2.68 7.28-4.07 3.03-1.71 6.11-3.31 9.2-4.93a289 289 0 0 0 15.6-8.88A94 94 0 0 1 533 309l3-1.5c9-4.5 9-4.5 11.87-5.87a89 89 0 0 0 7.06-4.13A67 67 0 0 1 566 292q3-1.47 6-3l2.06-1c2.38-1.23 4.64-2.61 6.94-4a198 198 0 0 1 12.75-6.86c3.6-1.82 7.11-3.8 10.63-5.77 2.5-1.31 5-2.33 7.62-3.37q2.26-1.18 4.5-2.43l2.36-1.33q2.42-1.42 4.76-2.92c3-1.66 6.08-2.38 9.38-3.32q2.52-1.46 5-3l7-3c2.91-1.37 5.52-2.63 8.06-4.62 2.34-1.67 4.11-1.81 6.94-2.38a170 170 0 0 0 4.37-1.93A70 70 0 0 1 676 239a74 74 0 0 0 9.12-3.43c4.16-1.83 8.5-2.77 12.9-3.81a88 88 0 0 0 7.6-2.32 80 80 0 0 1 12.04-2.97c2.34-.47 2.34-.47 5.9-1.53a57 57 0 0 1 10.03-1.7q2.78-.28 5.53-.7c4.78-.66 9.57-1.14 14.38-1.6l2.76-.28a102 102 0 0 1 24.7.63c3.46.47 6.81.76 10.32.72 3.98-.01 6.93.84 10.72 1.99l5.95.66c2.91.49 5.51 1.55 8.25 2.65 2.23.86 4.44 1.28 6.8 1.69q2 .52 4 1.07c6.16 1.52 9.35 1.03 15-2.07l4.25-2.18 2.01-1.05C850 224 850 224 852 224l.75-1.87c1.52-2.58 2.54-2.92 5.25-4.13 5.71-3.43 5.71-3.43 7-6 1.25-2.51 2.98-3.3 5.3-4.77 8.93-6.47 16.03-18.47 20.7-28.23l1.31-2.6 1.25-2.46 1.25-2.47c1.56-3.24 2.84-6.56 4.12-9.9a88 88 0 0 1 7.78-14.44c1.3-2.13 1.3-2.13 2.64-5.01 1.82-3.45 3.97-6.1 6.52-9.05a94 94 0 0 0 7.75-9.94c2.97-3.91 6.4-6.33 10.38-9.13l2.43-2.06a67 67 0 0 1 9.38-5.7 56 56 0 0 0 6.2-4.24 68 68 0 0 1 12-5l3.92-1.56c3.66-1.4 7.17-2 11.07-2.44l2.31-.5c3.48-.64 6.96-.92 10.48-1.22 3.24-.41 5.55-1.41 8.96-1.41" fill="#B8BBB9"/><path d="m686 505 .61 1.92c8.02 25.16 17.41 50.19 35.39 70.08l2.21 2.53c6.52 7.4 13.32 14.59 20.85 20.97 8.9 7.71 17.94 17.41 19.94 29.5q.1 3.63.06 7.25l-.02 3.83L765 644l-2.12.3-2.88.45-2.81.42a21 21 0 0 0-6.64 2.89c-6.06 3.16-12.77 2.4-19.43 2.25l-3.91-.03c-5.98-.06-11.92-.24-17.89-.65-13.57-.89-27.15-.79-40.75-.8h-4.1l-21.53-.02q-8.75.01-17.49-.02c-45.29-.1-90.29.84-135.4 5.02l-9.81.87c-30.64 2.73-61.24 6-91.68 10.44l-2.56.38a310 310 0 0 0-27.39 5.04C356 671 356 671 354 670q12.86-8.14 25.94-15.94a661 661 0 0 0 22.58-14.14c5.17-3.38 10.39-6.68 15.6-9.98a673 673 0 0 0 31.24-20.73l4.74-3.4c5.13-3.2 10.3-4.14 16.21-5.12 22-3.89 43-12.54 63.69-20.69l2.92-1.15c37-14.64 73.14-32.81 107.75-52.42 5.55-3.14 11.16-6.15 16.77-9.18l5.87-3.17 2.83-1.53a689 689 0 0 0 11.66-6.46C684 505 684 505 686 505" fill="#ECEEEC"/><path d="M1000.75 89.87H1015c2 .13 2 .13 3 1.13q2 0 4-.12c4.41-.07 7.77.87 11.87 2.4 2.13.72 2.13.72 5.75 1.22 3.85.57 6.84 1.9 10.38 3.5l2.81.94a113 113 0 0 1 21.64 9.79c2.56 1.28 4.75 1.74 7.55 2.27l3 2v2l1.68.8c13.71 7.07 30.51 18.63 36.38 33.64 1.9 7.23 2.17 11.66-1.06 18.56-4.05 5.93-8.47 10.94-15.63 12.67-8.89 1.24-15.27.12-23.37-3.67l-2.49-.9c-2.89-1.26-4.92-2.87-7.33-4.91a77 77 0 0 0-9.8-7.06L1060 162v-2l-1.69-.48c-4.03-1.23-7.52-2.5-11-4.9-7.75-5.12-17.09-7.95-26.3-8.62l-2.33-.47c-7.48-1.46-15.19-2.03-22.68-.53q-1.64.14-3.32.32c-10.8 2-20.3 7.58-27.68 15.68l-2-1-1.32 2.44C960 165 960 165 957 166l-.32 2.32c-.76 2.98-1.48 3.65-3.68 5.68-4.1 6.24-7.13 13.13-10 20l-3 7-1.44 3.5a70 70 0 0 1-3.63 7.13C933 215 933 215 932.1 217.37c-5.49 13.22-17.05 23.8-27.09 33.63l-2 2.07A75 75 0 0 1 885 266q-2.52 1.49-5 3l-5 3c2.15 5.3 4.7 10.18 7.56 15.13a88 88 0 0 1 8.44 19.3 249 249 0 0 0 3.05 9.6 57 57 0 0 1 2.01 8.97l.47 3 .47 3 .52 3.03c.6 3.78.9 7.57 1.2 11.39.28 2.58.28 2.58.8 4.48.5 2.18.6 4.07.61 6.3l.01 2.48v11.08q-.02 4.39 0 8.78v8.2c-.03 6.15-.03 6.15-1.14 7.26-.93 6.27-1.05 12.53-.97 18.85-.04 2.48-.5 4.74-1.03 7.15v6l-1 1a157 157 0 0 0 0 6.5q.05 3.26 0 6.5l-1 1q-.07 2.25 0 4.5c.04 4.2-.26 8.23-.79 12.4-.2 2.1-.2 2.1-.2 5.85 0 3.25 0 3.25-.5 5.5-.62 3.35-.64 6.52-.65 9.92v2.04l.01 4.25v14.44c.13 3.1.13 3.1 1.13 6.1v5l1 2q.27 2.6.43 5.19a59 59 0 0 0 3.63 15.75 47 47 0 0 1 1.66 9.07c.28 1.99.28 1.99 1.21 5.24 1.93 6.8 2.9 13.8 3.63 20.82C906 573 906 573 907 576q.06 2.06 0 4.13V584l1 1c.07 2.23 0 4.45-.07 6.68.07 2.32.07 2.32.56 4.07.65 2.9.62 5.59.6 8.55v3.86l-.02 2.06-.02 6.38q-.01 6.76-.05 13.53l-.06 15.7q0 3.15-.03 6.29v3.84l-.03 3.4C909 662 909 662 910 664c1.94.69 1.94.69 4.48 1.3l2.82.7 3.01.75c20.34 5.32 20.34 5.32 27 12.32 1.7 2.93 1.7 2.93 1.75 5.5-2.59 5.94-6.26 8.57-11.99 11.24-18.07 7-37.88 8.77-57.07 8.19v-1l2.05-.18c13.37-1.22 26.51-2.86 39.63-5.75l3.38-.73A64 64 0 0 0 942 690h2a20 20 0 0 0 1-10c-4.27-3.43-8.77-5.26-13.88-7l-1.97-.71c-7.56-2.63-15.38-4.4-23.15-6.3v-2.28c-.26-46.01-1.39-89.91-11.98-134.9L892 520l-.7-3.11c-1.93-9.75-1.65-19.68-1.62-29.57l.01-2.98c.05-23.24 1.81-46.27 3.96-69.4 2.97-31.98 6-65.75-3.09-97q-.84-2.95-1.65-5.92c-3.55-12.51-9.17-24.03-16.1-35.03-1.26-3.08-1.54-4.68-.8-8 2.67-2.27 5.74-3.76 8.86-5.36l5.3-2.92 2.55-1.41A66 66 0 0 0 901 250l1.7-1.57c18.24-17.1 29.46-36.54 39.05-59.55 8.2-19.58 20.66-35.51 40.4-44.28 20.35-7.68 43.5-3.5 62.95 4.93 9.5 4.29 17.66 9.95 26.02 16.1 10.82 7.87 19.25 12.65 32.88 11.37 6.3-1.06 9.95-3.27 13.9-8.28 3.17-4.98 2.72-11.06 2.1-16.72a35 35 0 0 0-5-9l-1.18-1.72c-8.64-11.31-22.72-19.21-34.82-26.28l-1.87-1.1a138.4 138.4 0 0 0-70.26-19.2q-2.36 0-4.7-.05c-26.7-.51-51.2 8.4-71.17 26.35l-2.26 1.98c-13.29 12.35-21.39 28.47-28.87 44.7-5.68 12.3-11.44 23.66-19.87 34.32l-1.67 2.12c-9.48 11.52-21.28 19.88-34.2 27.13l-2.06 1.2c-8.67 4.62-16.96 1.19-25.89-1.32-28-7.44-58.66-9.48-87.22-3.53q-2.77.55-5.57.99c-28.83 4.93-56.8 17.08-83.16 29.37l-6.57 3.03a445 445 0 0 0-23.46 11.67q-7.95 4.24-15.97 8.34l-2.09 1.07-4.28 2.19a1231 1231 0 0 0-32.34 17.08c-8.33 4.59-16.74 9.03-25.15 13.48a5347 5347 0 0 0-31.75 16.87l-3.42 1.83q-7.76 4.16-15.5 8.36a864 864 0 0 1-39.62 20.44c-4.97 2.37-9.73 4.39-15.08 5.68l-.75-2.88C409.26 308.37 409.26 308.37 396 299c-3.93-1.3-7.44-.77-11.13 1.05-9.29 6.6-16.74 16.72-23.56 25.77l-3.3 4.18-1.92 2.47c-6.82 7.85-13 9.45-22.87 10.88-4 .58-7.99 1.29-11.98 1.99l-2.4.4a174 174 0 0 0-20.84 5.08l-2.95.87c-6.44 1.99-6.44 1.99-9.09 3.37-4.73 2.26-9.35 1.46-14.15-.08q-4.8-1.91-9.5-3.97a755 755 0 0 0-7.77-3.34q-5.5-2.34-10.99-4.71l-2.44-1.05q-2.43-1.05-4.86-2.15c-4.62-1.56-9.46-1.41-14.25-.76-3.53 2.54-5.3 5.07-7 9-3.55 23.79 3.61 50.89 9.66 73.76 1.17 4.48 2.1 8.93 2.84 13.49 12.04 72.69 12.04 72.69 36.37 91.69 6.53 4.59 13.54 8.53 21.13 11.06-1.57 5.18-4.82 8.7-8.25 12.75l-3.82 4.56-1.97 2.35q-2.85 3.41-5.65 6.85a420 420 0 0 1-17.94 20.9 313 313 0 0 0-5.69 6.4 496 496 0 0 1-11.12 12.26l-1.87 2.02a147 147 0 0 1-11.92 11.37c-2.09 1.82-4 3.77-5.9 5.79a135 135 0 0 1-11.94 10.57l-1.7 1.38c-8.07 6.29-14.36 8.34-24.52 8.29-7 .13-11.98 2.29-17.4 6.7-7.1 8.65-9.34 16.7-8.3 27.8 2 6.77 5.83 10.27 11.92 13.64 6.81 3.05 12.43 3.74 19.82 3.75l2.84.07c9.58.04 16.96-3.32 25.03-8.2l3.1-1.86 2.28-1.4 1 2-.9 2.2c-1.29 3.29-1.52 6.1-1.73 9.63l-.23 3.5L210 704h-8v-3q.91-.59 1.87-1.18c3.24-2.77 3.32-5.7 4.13-9.82l-2.82 1.46-3.75 1.92-1.84.96a48.4 48.4 0 0 1-34.12 3.75 68 68 0 0 1-8.47-4.1l-2.56-1.34c-6.4-3.76-10.1-8.54-12-15.76-1.12-7.08.14-12.7 3.56-18.9q.59-1.4 1.18-2.86c3.53-6.08 8.14-10.8 14.82-13.13l2.25-1.06c5.3-1.81 10.58-2.04 16.12-1.56 8.9.12 16.32-7.86 22.63-13.38l3-1 .81-1.75c1.4-2.66 3.28-4.11 5.61-5.96 1.58-1.3 1.58-1.3 4.08-3.8s2.5-2.5 5.56-5A46 46 0 0 0 229 601l4-4q1.5-1.72 3-3.5a105 105 0 0 1 7-7.5l2-2 2.43-2.24c2.57-2.75 2.57-2.75 4.13-5.93 1.44-2.82 1.44-2.82 3.3-3.68 2.86-1.52 4-3.41 5.82-6.07a234 234 0 0 1 9.2-12.25c.36-.47.36-.47 2.23-2.8l1.9-2.02h2a54 54 0 0 0 1-10c-2.2-1.56-2.2-1.56-5-3l-5-3c-.43-.22-.43-.22-2.5-1.37-2.93-1.9-5.12-4.11-7.5-6.63l-2-2-2-2-2.45-2.18c-4.24-4.66-6.77-10.22-9.56-15.82l-1-1.87c-2.27-4.83-3.54-10.02-5-15.13l-1-3c-2.2-6.6-3.7-13.2-5-20l-1.07-5.37q-.22-1.2-.47-2.4-.45-2.15-.99-4.26a46 46 0 0 1-.97-6.1C225 441 225 441 224 439a125 125 0 0 1-.38-4.75c-.38-4.4-1.54-7.34-3.62-11.25a93 93 0 0 1 0-5q-.95-3.5-2-7-1.07-4.5-2-9l-.54-2.48a122 122 0 0 1-2.03-12.58C213 383 213 383 212 382v-7l-1-3a63 63 0 0 1-.1-4.12l.01-2.4.02-2.48.02-2.48.03-4.57.02-4.95c.85-6.2 5.4-11.05 10.08-14.86 5.02-2.97 11.43-1.07 16.77.24 5.9 1.7 11.28 4.65 16.72 7.44 2.44 1.19 4.9 2.2 7.43 3.18l3.43 1.5c5.91 2.49 11.18 4.08 17.57 4.5l3-2q2.54-.79 5.12-1.43c3.55-.93 7.03-1.92 10.5-3.13a92 92 0 0 1 11.32-2.97c2.06-.47 2.06-.47 5.12-1.53 3.66-1.17 7.11-1.51 10.94-1.94l1.83-.47c3.96-.96 8.04-1.32 12.07-1.83 4.98-1.12 7.63-4.12 11.1-7.7l2.37-2.18c2.81-3.02 4.92-6.17 7.16-9.61 3.34-5.02 7.18-9 11.92-12.72 1.74-1.68 2.5-3.32 3.55-5.5 2.25-1.55 2.25-1.55 5-3q1.41-.84 2.87-1.74c4.18-1.67 5.82-1.68 10.13-.25 5.91 4.26 10 7.88 12 15a73 73 0 0 0 1.87 3.75A106 106 0 0 1 419 335a127 127 0 0 0 4 12.32 84 84 0 0 1 4 15.68c3.63 0 4.76-.12 7.82-1.57l2.16-1.02 2.27-1.1 2.33-1.11a101 101 0 0 0 12.25-6.84c3.87-2.42 7.94-4.48 11.98-6.6a91 91 0 0 0 8.2-4.76l5-2q2.94-1.43 5.88-2.93 3.97-2 7.95-3.94c2.47-1.3 4.87-2.68 7.28-4.07 3.03-1.71 6.11-3.31 9.2-4.93a289 289 0 0 0 15.6-8.88A94 94 0 0 1 533 309l3-1.5c9-4.5 9-4.5 11.87-5.87a89 89 0 0 0 7.06-4.13A67 67 0 0 1 566 292q3-1.47 6-3l2.06-1c2.38-1.23 4.64-2.61 6.94-4a198 198 0 0 1 12.75-6.86c3.6-1.82 7.11-3.8 10.63-5.77 2.5-1.31 5-2.33 7.62-3.37q2.26-1.18 4.5-2.43l2.36-1.33q2.42-1.42 4.76-2.92c3-1.66 6.08-2.38 9.38-3.32q2.52-1.46 5-3l7-3c2.91-1.37 5.52-2.63 8.06-4.62 2.34-1.67 4.11-1.81 6.94-2.38a170 170 0 0 0 4.37-1.93A70 70 0 0 1 676 239a74 74 0 0 0 9.12-3.43c4.16-1.83 8.5-2.77 12.9-3.81a88 88 0 0 0 7.6-2.32 80 80 0 0 1 12.04-2.97c2.34-.47 2.34-.47 5.9-1.53a57 57 0 0 1 10.03-1.7q2.78-.28 5.53-.7c4.78-.66 9.57-1.14 14.38-1.6l2.76-.28a102 102 0 0 1 24.7.63c3.46.47 6.81.76 10.32.72 3.98-.01 6.93.84 10.72 1.99l5.95.66c2.91.49 5.51 1.55 8.25 2.65 2.23.86 4.44 1.28 6.8 1.69q2 .52 4 1.07c6.16 1.52 9.35 1.03 15-2.07l4.25-2.18 2.01-1.05C850 224 850 224 852 224l.75-1.87c1.52-2.58 2.54-2.92 5.25-4.13 5.71-3.43 5.71-3.43 7-6 1.25-2.51 2.98-3.3 5.3-4.77 8.93-6.47 16.03-18.47 20.7-28.23l1.31-2.6 1.25-2.46 1.25-2.47c1.56-3.24 2.84-6.56 4.12-9.9a88 88 0 0 1 7.78-14.44c1.3-2.13 1.3-2.13 2.64-5.01 1.82-3.45 3.97-6.1 6.52-9.05a94 94 0 0 0 7.75-9.94c2.97-3.91 6.4-6.33 10.38-9.13l2.43-2.06a67 67 0 0 1 9.38-5.7 56 56 0 0 0 6.2-4.24 68 68 0 0 1 12-5l3.92-1.56c3.66-1.4 7.17-2 11.07-2.44l2.31-.5c3.48-.64 6.96-.92 10.48-1.22 3.24-.41 5.55-1.41 8.96-1.41" fill="#E8E8E9"/><path d="m219 340 2 1c2.69.6 5.38 1.06 8.09 1.51 13.83 2.5 24.55 9.51 35.91 17.49l2.34 1.61L269 363v2h2c-.48 4.25-2.83 6.02-5.94 8.75l-2.71 2.42C260 378 260 378 258 378l-.77 1.73c-1.36 2.51-2.97 4.38-4.85 6.52-9.59 11.79-15.47 26.96-18.38 41.75-2.38-.95-3.72-1.51-5.01-3.78-1.89-6.04-2.65-11.9-2.99-18.22h-2l-.55-3.51-.76-4.61-.36-2.31A36 36 0 0 0 218 383l-2 1c-1.77-8.24-2.29-16.4-2.44-24.81l-.1-2.97c-.04-6.75 1.33-10.92 5.54-16.22" fill="#262925"/><path d="m398.25 302.31 1.75 1.7v2h2l1-2c8.44 15.46 13.94 31.83 19 48.68l.63 2.08A31 31 0 0 1 424 364h-2v12h-2c-4-4.47-4-4.47-4-7l-2-.63c-3.47-1.59-6.16-3.66-9.13-6.03C403 361 403 361 400 360v-2l-1.87-.52c-4.26-1.22-8.17-2.44-12.07-4.55-5.51-2.62-11.49-2.8-17.5-3.25l-2.43-.19-2.19-.15C362 349 362 349 359 347l3-10h2l.69-3c2.11-7.3 7.04-13.1 11.76-18.92C378 313 378 313 379.04 310.9c2.11-4.17 5.89-6.48 10.09-8.15L392 302l2.13-.8c1.87-.2 1.87-.2 4.12 1.11" fill="#242723"/><path d="M816 577c12.14 5.41 27.71 18.78 33 31 3.08 8.47 6.12 17.18 6.13 26.27l.01 2.94-.02 3.04.02 3.09-.01 2.93v2.68C855 651 855 651 854 652q-2.43.12-4.88.19c-4.71.34-7.62 1.44-11.62 3.93-5.73 3.47-10.08 3.25-16.5 1.88-.18-4.94.04-9.6.72-14.5 2.72-19.88 2.64-40.34-3.72-59.5l-1.19-4.12z" fill="#EAECEC"/><path d="M235.63 335.81c6.75 1.68 12.78 4.84 18.94 8 3.56 1.74 7.23 3.11 10.94 4.5 3.64 1.76 5.8 3.68 8.5 6.7-7.43-1.99-14.2-4.74-21.13-8-20.54-9.62-20.54-9.62-30.87-8-3.53 2.53-5.31 5.06-7 9-3.56 23.78 3.6 50.88 9.66 73.75 1.17 4.47 2.09 8.93 2.84 13.5 12.03 72.67 12.03 72.67 36.37 91.67 6.52 4.6 13.54 8.54 21.13 11.07-1.57 5.17-4.82 8.71-8.26 12.75l-3.81 4.55-1.97 2.35q-2.85 3.4-5.66 6.86a425 425 0 0 1-17.94 20.9q-2.88 3.15-5.7 6.4a460 460 0 0 1-11.1 12.25q-.94 1-1.87 2.03a149 149 0 0 1-11.92 11.36c-2.1 1.83-4 3.78-5.9 5.8a133 133 0 0 1-11.94 10.56l-1.72 1.38c-8.06 6.3-14.34 8.35-24.5 8.3-7.02.13-11.98 2.28-17.4 6.7-7.12 8.64-9.34 16.7-8.31 27.81 2 6.75 5.84 10.25 11.93 13.62 6.8 3.06 12.43 3.74 19.8 3.75l2.85.08c9.59.04 16.97-3.32 25.03-8.2l3.1-1.86L212 684l1 2-.9 2.2c-1.28 3.28-1.51 6.1-1.72 9.61l-.23 3.52L210 704h-8v-3l1.88-1.19c3.24-2.76 3.31-5.7 4.13-9.8-.47.23-.47.23-2.82 1.45l-3.75 1.91-1.84.96a48.4 48.4 0 0 1-34.12 3.76A70 70 0 0 1 157 694l-2.56-1.35c-6.4-3.76-10.1-8.54-12-15.76-1.12-7.08.13-12.7 3.56-18.89l1.18-2.88c3.53-6.07 8.13-10.79 14.81-13.12l2.25-1.07c5.3-1.8 10.57-2.03 16.13-1.56 8.9.13 16.31-7.86 22.63-13.37l3-1 .8-1.75c1.4-2.66 3.28-4.12 5.62-5.97C214 616 214 616 216.5 613.5s2.5-2.5 5.56-5A47 47 0 0 0 229 601l4-4 3-3.5a97 97 0 0 1 7-7.5l2-2q1.19-1.12 2.44-2.25c2.56-2.75 2.56-2.75 4.13-5.94 1.44-2.8 1.44-2.8 3.28-3.68 2.86-1.5 4.02-3.4 5.84-6.07a244 244 0 0 1 11.43-15.04L274 549h2c.63-3.44 1-6.49 1-10-2.19-1.57-2.19-1.57-5-3l-5-3-2.5-1.38c-2.93-1.9-5.1-4.1-7.5-6.62l-2-2-2-2-2.44-2.19c-4.24-4.65-6.77-10.22-9.56-15.8l-1-1.89c-2.28-4.82-3.53-10-5-15.12l-1-3c-2.2-6.59-3.7-13.19-5-20l-1.06-5.38-.47-2.4q-.45-2.13-1-4.25a47 47 0 0 1-.97-6.1C225 441 225 441 224 439q-.24-2.38-.37-4.75c-.4-4.39-1.54-7.35-3.62-11.25a83 83 0 0 1 0-5 314 314 0 0 0-2-7q-1.07-4.49-2-9c-.1-.4-.1-.4-.54-2.48a119 119 0 0 1-2.03-12.59C213 383 213 383 212 382v-7l-1-3a57 57 0 0 1-.1-4.13l.01-2.39.03-2.48.01-2.49.04-4.57.01-4.94c.8-5.8 5.12-10.9 9.25-14.87 4.54-2.93 10.38-1.3 15.38-.32" fill="#E5E6E7"/><path d="m359 565 3 1c-3.07 6.83-9.4 11.39-14.96 16.18-2.1 1.87-4.07 3.82-6.04 5.82a123 123 0 0 1-7.81 7.31 162 162 0 0 0-9.69 9.19c-3.64 3.68-7.34 7.2-11.27 10.56a345 345 0 0 0-8.73 7.94 474 474 0 0 1-12.49 11.23q-3.7 3.28-7.32 6.65A335 335 0 0 1 267 655l-1.77 1.41q-2.79 2.24-5.61 4.47l-1.76 1.4q-2.4 1.88-4.86 3.72l-2.36 1.81c-3.83 1.73-7.31 1.51-11.45 1.38l-2.39-.04q-2.9-.06-5.8-.15c3.53-3.66 7.23-6.89 11.25-10l1.83-1.42q6.05-4.7 12.16-9.33a740 740 0 0 0 20.94-16.51q6.5-5.32 13.13-10.49 7.64-5.98 15.13-12.15 3.6-2.96 7.25-5.85c10-7.99 19.95-16.04 29.7-24.34q6.72-5.7 13.56-11.23C358 566 358 566 359 565" fill="#EAEAED"/><path d="M879 285c3 1 3 1 4.28 3.04l1.22 2.58 1.3 2.76L887 296l1.62 3.5c1.45 3.68 2.6 7.37 3.69 11.17a89 89 0 0 0 1.75 5.21c1.49 4.94 2.15 10.02 2.94 15.12l.53 3.02c.6 3.79.89 7.57 1.19 11.39.28 2.59.28 2.59.79 4.49.51 2.18.62 4.07.62 6.3l.01 2.48-.01 2.64.01 2.74-.01 5.7.01 8.77-.01 5.54.01 2.67c-.03 6.15-.03 6.15-1.14 7.26-.92 6.27-1.05 12.53-.97 18.85A34 34 0 0 1 897 420v6l-1 1a157 157 0 0 0 0 6.5q.07 3.25 0 6.5l-1 1q-.07 2.25 0 4.5c.05 4.21-.25 8.23-.78 12.4-.22 2.1-.22 2.1-.22 5.85 0 3.25 0 3.25-.49 5.51-.62 3.34-.64 6.5-.64 9.9l-.01 2.05.01 4.25q.01 3.25-.01 6.5l.01 4.14v3.79C893 503 893 503 894 506v5l1 2q.26 2.6.44 5.19a59 59 0 0 0 3.62 15.75 47 47 0 0 1 1.66 9.07c.28 1.99.28 1.99 1.22 5.24 1.92 6.8 2.89 13.79 3.62 20.81C906 573 906 573 907 576q.06 2.06 0 4.12V584l1 1c.07 2.23 0 4.44-.06 6.68.06 2.32.06 2.32.56 4.07.64 2.89.61 5.58.6 8.55l-.01 3.86-.01 2.05-.03 6.38-.05 13.53-.06 15.71-.03 6.29-.01 3.84-.01 3.4C909 662 909 662 910 664c1.94.68 1.94.68 4.49 1.3l2.81.7 3.01.75c20.35 5.32 20.35 5.32 27 12.31 1.69 2.94 1.69 2.94 1.75 5.5-2.59 5.94-6.25 8.58-11.99 11.25-18.07 7-37.88 8.77-57.07 8.19v-1l2.05-.18c13.37-1.22 26.52-2.87 39.64-5.76l3.37-.73A64 64 0 0 0 942 690h2a20 20 0 0 0 1-10c-4.27-3.43-8.76-5.26-13.88-7l-1.96-.71c-7.57-2.64-15.38-4.41-23.16-6.29l-.01-2.29c-.24-46.01-1.38-89.92-11.97-134.91L892 520l-.71-3.11c-1.92-9.75-1.64-19.68-1.6-29.58v-2.97c.05-23.24 1.81-46.27 3.96-69.4 3.05-32.85 5.74-66.87-3.65-98.94l-.57-2.03a144 144 0 0 0-9.29-24.49C879 287 879 287 879 285" fill="#E6E8E8"/><path d="m712 698 3.19.18q14.88.81 29.77 1.71c21 1.26 42.02 2.22 63.04 3.11v1c-33.26.81-66.36-1.07-99.55-2.89q-10.23-.57-20.45-1.11l-3.43-.18c-20.55-1.07-41.12-1.06-61.69-1.07h-2.81c-41.29-.04-82.37 1.41-123.55 4.61-9.52.72-18.98.85-28.52.64v-1c80.66-9.33 162.99-9.51 244-5" fill="#E7EAE8"/><path d="m406 451 2 2a143 143 0 0 1-18 12l-2.2 1.3c-3.5 1.94-5.21 2.74-9.3 2.45L376 468l1 4q-3.37 1.76-6.75 3.5l-1.92 1.01c-3.45 1.76-5.38 2.49-9.33 2.49-.56-3.82-.76-5.89 1.45-9.14A114 114 0 0 1 366 464l1.49-1.59c9.72-9.11 25.62-13.14 38.51-11.41" fill="#141715"/><path d="m872 206 3 1c-9.05 11.9-22 19.14-35 26l-1.96 1.13c-6.44 2.76-15.49-1.22-21.85-3.01-27.53-7.31-57.33-9.35-85.43-3.68-4.04.6-6.8.34-10.76-.44l1-2q3.2-.42 6.43-.72c2.44-.27 4.73-.71 7.12-1.24 5.85-1.2 11.69-1.71 17.64-2.16l3.15-.27c8.75-.7 16.93-.57 25.61.68 3.48.47 6.82.76 10.34.71 3.97 0 6.92.85 10.71 2l5.95.65c2.92.5 5.51 1.56 8.25 2.66 2.24.86 4.44 1.28 6.8 1.69l4 1.06c6.16 1.53 9.35 1.04 15-2.06q2.12-1.11 4.25-2.19l2.02-1.04C850 224 850 224 852 224l.75-1.88c1.52-2.58 2.54-2.92 5.25-4.12 5.71-3.43 5.71-3.43 7-6 1.57-3.14 3.99-4.34 7-6" fill="#E1E2E4"/><path d="M170 640v2h14v1l-3.66.08-4.84.17-2.4.04c-7.12.29-12.27 2.41-17.79 6.9-7.11 8.64-9.34 16.7-8.31 27.81 2 6.75 5.85 10.26 11.94 13.62 6.8 3.06 12.42 3.75 19.81 3.76l2.84.07c9.58.04 16.97-3.32 25.03-8.2l3.11-1.86L212 684l1 2-.9 2.2c-1.29 3.28-1.51 6.1-1.72 9.61l-.23 3.52L210 704h-8v-3l1.88-1.19c3.23-2.76 3.31-5.69 4.12-9.81l-2.82 1.46-3.74 1.92-1.85.96a48.4 48.4 0 0 1-34.11 3.75A70 70 0 0 1 157 694l-2.55-1.35c-6.41-3.76-10.11-8.54-12-15.76-1.13-7.08.13-12.71 3.55-18.89l1.19-2.88c3.56-6.13 8.13-10.67 14.81-13.12 3.23-2.15 4.28-2.2 8-2" fill="#E3E5E4"/><path d="m346.44 487.75 2.93-.08c2.63.33 2.63.33 4.45 1.7 1.18 1.63 1.18 1.63 1.62 4C355 496 355 496 353 498.44c-2.45 3.13-2.17 4.69-2 8.56-2 2-2 2-4.94 2.44L343 509c-1.5-2.25-1.5-2.25-3-5-3.12-2.25-3.12-2.25-6-4-1-1-1-1-1.44-3.25.44-2.75.44-2.75 3.32-5.5 3.97-2.86 5.73-3.42 10.56-3.5" fill="#666767"/><path d="m1030 92 2.1.38a70 70 0 0 1 14.54 4.72c2.45.93 4.79 1.41 7.36 1.9q3.54 1.43 7 3l2.13.91c4.78 2.06 9.27 4.37 13.73 7.04A24 24 0 0 0 1084 112l1 3c1.73.98 1.73.98 4 2 3.73 2.24 7.37 4.61 11 7l2.5 1.62 2.19 1.5 1.95 1.33c1.36 1.55 1.36 1.55 1.57 4.23L1108 135l-1.36-1.03-4.19-3.14a437 437 0 0 1-4.83-3.66c-18.2-13.69-37.98-22.47-59.62-29.17l-3.46-1.11c-8.87-2.24-18.01-2.17-27.1-2.45l-3.93-.13L994 94v-1l2.23-.08a1677 1677 0 0 0 13.53-.48l3.38-.12 3.11-.11c10.53-.79 10.53-.79 13.75-.21" fill="#E4E4E5"/><path d="m359 565 3 1c-3.07 6.83-9.4 11.39-14.96 16.18-2.1 1.87-4.07 3.82-6.04 5.82a123 123 0 0 1-7.81 7.31c-5.36 4.6-10.25 9.66-15.19 14.69l-2-2 1.94-.69C320 606 320 606 320.81 603.5c.19-2.5.19-2.5-.81-4.5a43 43 0 0 1 8.44-8.62q6.1-4.78 12-9.82a867 867 0 0 1 15.51-12.88C358 566 358 566 359 565" fill="#E8EAEB"/><path d="M879 285c3 1 3 1 4.28 3.04l1.22 2.58 1.3 2.76L887 296l1.62 3.5c1.45 3.68 2.6 7.37 3.69 11.17a89 89 0 0 0 1.75 5.21c1.49 4.94 2.15 10.02 2.94 15.12l.53 3.02c.6 3.79.89 7.57 1.19 11.39.28 2.59.28 2.59.79 4.49.51 2.16.63 4.07.65 6.29l.03 2.46.01 2.64.02 2.73.02 5.69q.02 4.36.07 8.74l.02 5.53.04 2.64c-.01 2.45-.01 2.45-.37 6.38l-3 2-.06-3.63-.26-13.64-.1-5.85c-.17-10.3-.5-20.53-1.51-30.79l-.23-2.41c-.83-7.77-2.65-15.2-4.84-22.68l-.57-2.03a144 144 0 0 0-9.29-24.49C879 287 879 287 879 285" fill="#E9EAEB"/><path d="M253 651a16.6 16.6 0 0 1 3 7l5 1a79 79 0 0 1-5 5l-1.52 1.45c-6.78 5.34-15.32 3.97-23.48 3.55a108 108 0 0 1 12.12-10.69l1.88-1.47c2.62-2.04 5.24-4 8-5.84" fill="#E3E4E5"/><path d="m283 475 .33 1.79c2.1 10.47 2.1 10.47 6.42 13.4q2.59 1.47 5.25 2.81v1c-8.28-.04-15.09-2.42-22-7-3.99-4.06-3.99-4.06-4.02-7.2 1.4-2.47 2.64-2.76 5.33-3.55l2.37-.73C279 475 279 475 283 475" fill="#E8C465"/><path d="M219 340c2 1 2 1 4 4l-1.44 2.38c-1.96 4.54-2.28 8.72-2.56 13.62h2v8h-1v12h-4c-1.79-6.94-2.4-13.41-2.44-20.56l-.1-3c-.05-6.84 1.25-11.08 5.54-16.44" fill="#202122"/><path d="M368 462c1.88 0 1.88 0 4 1 2.25 2.96 3.82 5.47 5 9q-3.37 1.76-6.75 3.5l-1.92 1.01c-3.45 1.76-5.38 2.49-9.33 2.49-.56-3.85-.75-5.9 1.49-9.18q2.66-3 5.51-5.82z" fill="#E2C47C"/><path d="m212 684 1 2-.9 2.2c-1.29 3.28-1.51 6.1-1.72 9.61l-.23 3.52L210 704h-8v-3l1.88-1.19c3.23-2.76 3.31-5.69 4.12-9.81l-2.82 1.5-3.74 1.94-1.85.98c-6.48 3.33-12.28 3.81-19.53 3.14l-3.46-.31-2.6-.25v-1l3.15-.08c13.9-.5 22.95-4.64 34.85-11.92" fill="#C5C7C9"/><path d="m905 580 .94 1.94C907 584 907 584 908 585c.07 2.23 0 4.44-.06 6.68.06 2.32.06 2.32.56 4.21.51 2.14.63 3.98.63 6.18l.01 2.4-.01 2.57.01 2.68-.01 5.6.01 8.51-.01 5.46.01 2.54A133 133 0 0 1 908 648h-1l-.85-19.89-.3-6.74c-.6-13.8-1-27.56-.85-41.37" fill="#EFF1F1"/><path d="M896 386h1c.82 6.46 1.15 12.75 1.12 19.25l.02 2.64c-.01 4.19-.18 8.01-1.14 12.11v6l-1 1q-.1 3.29-.06 6.56l.02 3.63.04 2.81-4 2c-.12-7.07.23-14 .88-21.04l.26-3.05.86-9.53.58-6.52z" fill="#DEDFDF"/><path d="M254.68 343.85c3.52 1.74 7.15 3.08 10.82 4.46 3.66 1.76 5.82 3.68 8.5 6.7a125 125 0 0 1-21.12-8c-17.57-8.23-17.57-8.23-24.38-8.7l-2.6-.2-1.9-.1v-1c12.35-1.99 19.79 1.2 30.68 6.84" fill="#DCDDDD"/><path d="M254 572h4c-1.62 3.92-4.31 6.72-7.19 9.75l-2.79 2.98-1.47 1.58q-2.5 2.75-4.92 5.55a418 418 0 0 1-11.57 12.64l-2.07 2.2L223 612l-1-3c1.29-1.9 1.29-1.9 3.19-3.94l1.97-2.15q2.89-2.99 5.84-5.91 1.51-1.74 3-3.5c2.23-2.63 4.52-5.11 7-7.5l2-2 2.44-2.25c2.59-2.78 4-5.31 5.56-8.75z" fill="#E5E6E7"/><path d="M496 580h2v2a120 120 0 0 1-6.62 4.38l-3.73 2.33-1.85 1.16c-8.03 5.05-8.03 5.05-9.8 9.13-2.92 1.95-4.58 2.52-7.94 3.19l-2.59.54A14 14 0 0 1 459 602c9.64-5.87 19.38-11.54 29.2-17.1l2.64-1.49 2.36-1.34C495 581 495 581 496 580" fill="#040606"/><path d="M841 700h38l-1 2 2 2h-37z" fill="#C0C2C0"/><path d="m296.81 470.56 3.08-.06c7.24 0 13.6 1.2 20.11 4.5l1 2h-2v6l-2-1v-6c-12.1-2.25-23.55-2.99-35.65-.45-2.8.53-5.5.6-8.35.45 8.06-4.37 14.73-5.5 23.81-5.44" fill="#040504"/><path d="m897 348 3 1q.12 9.34.16 18.69l.07 6.36q.04 4.56.06 9.13l.05 2.88v2.67l.02 2.36L900 393l-3 2z" fill="#F2F5F4"/><path d="M776 223v1l-2.34.04c-27.39.58-27.39.58-40.4 3.03-4.76.87-8.5.87-13.26-.07l1-2c1.79-.34 1.79-.34 4.06-.5 3.11-.27 5.59-.69 8.63-1.56 13.07-3.4 28.95-.56 42.31.06" fill="#E7E7E7"/><path d="M396 298c2.65 1.39 3.94 2.73 6 5v3c-2 0-2 0-4.12-2l-1.88-2-3.19.94C389 304 389 304 386.5 304.38a20 20 0 0 0-6.19 2.74L377 309l-2-1 4.88-4.44 2.74-2.49c4.18-3.63 7.99-3.89 13.38-3.07" fill="#141615"/><path d="m283 475 .33 1.79c2.1 10.47 2.1 10.47 6.42 13.4q2.59 1.47 5.25 2.81v1c-8.49-.04-14.67-2.88-22-7v-1h5v2l7 1-1-3h-2l-2-8h-6c2.98-2.98 4.79-3 9-3" fill="#CDB47A"/><path d="M1108 131q2.54 2.46 5 5l2.01 2.05c4.49 4.8 7.19 8.61 8.99 14.95l.88 2.81.12 2.19c-1.49 1.64-1.49 1.64-3 3l-.45-2.05c-1.99-8.29-5.08-15.91-11.43-21.83L1108 135z" fill="#EBEBEC"/><path d="m1030 92 2.42.41 2.46.47 2.3.42 1.82.7 1 3c-9-1-9-1-12.91-1.5-6.53-.73-13.09-.86-19.65-1.06l-3.93-.13L994 94v-1l2.23-.08a1677 1677 0 0 0 13.53-.48l3.38-.12 3.11-.11c10.53-.79 10.53-.79 13.75-.21" fill="#C8C9CA"/><path d="m1006.5 89.75 2.96-.06 2.82-.02 2.6-.03 2.12.36 2 3-35 1v-2l2.12-.18 2.76-.26 2.74-.24c11.67-1.55 11.67-1.55 14.88-1.57" fill="#F1F3F4"/><path d="m406 449 2 2-3.01.04c-12.64.37-23.48 3.34-34.32 10.14L369 462l-2-1c10.51-8.44 25.44-14.26 39-12" fill="#050503"/><path d="m787 222-1 2-34-1c7.26-7.26 25.68-2.31 35-1" fill="#F0F3F2"/><path d="M1043.84 95.4q3.12 1.22 6.16 2.6l2.94.94c4.14 1.43 8.08 3.24 12.06 5.06-1.51 1.17-1.51 1.17-4 2a68 68 0 0 1-7.81-2.75l-4.14-1.67-2.03-.82A94 94 0 0 0 1038 98c1.84-2.06 3.02-3.21 5.84-2.6" fill="#E4E5E6"/><path d="M412 322h2c2.3 4.31 4.25 8.13 5 13a89 89 0 0 0 4 12c-1.88-.21-1.88-.21-4-1-1.1-1.99-1.1-1.99-1.92-4.59l-.92-2.82-.91-2.97-.96-2.94C412 325.49 412 325.49 412 322" fill="#EAEAED"/><path d="M1121 156c3.03 3.55 3.03 3.55 2.75 7.62-1.76 5.88-6.23 10.4-10.75 14.38-2.79 1.29-2.79 1.29-5 2v-2l-4-1 1.76-.41c5.2-1.43 8.74-3.1 12.09-7.41 2.17-4.12 2.67-8.6 3.15-13.18" fill="#E1E1E4"/><path d="m367 657 7 1c-3.69 2.94-7.7 5.29-11.75 7.69l-2.11 1.26L355 670l-2-2 1-3q2.98-1.08 6-2c3.43-1.79 4.82-2.74 7-6" fill="#181819"/><path d="M327 343v1l-8.69 1.94-2.47.55q-5.9 1.34-11.84 2.51l-1-3q2.37-.69 4.73-1.35 2.5-.72 4.97-1.52c9.1-2.8 9.1-2.8 14.3-.13" fill="#E1E1E3"/><path d="m405 455 2 1c-23.49 16-23.49 16-29 16v-2l2.86-1.5 3.89-2.06 2.05-1.08a289 289 0 0 0 15.91-9.21z" fill="#060906"/><path d="M236 478c2.02 3.71 3.35 7.64 4.69 11.62l.72 2.07q.87 2.63 1.59 5.31l-1 2h-3c-2.55-7.13-3.15-13.5-3-21" fill="#E1E2E1"/><path d="M417 346h2c2.65 5.9 5 11.43 5 18h-2l-1-2-1 3-1.5-6.12-.84-3.45A40 40 0 0 1 417 346" fill="#1B1C1B"/><path d="M904 247c2.19.31 2.19.31 4 1l-2.75 3.38-1.55 1.89c-1.8 1.83-3.4 2.65-5.7 3.73a89 89 0 0 0-4 4l-3-1c1.2-3.59 2.38-4.29 5.38-6.5 4.46-3.32 4.46-3.32 6.16-5.28z" fill="#EAECED"/><path d="M395 295v2l-3.44.56c-6.73 1.66-11.83 6.56-16.56 11.44l-2-1c12.71-16.48 12.71-16.48 22-13" fill="#EAEBEB"/><path d="M191 636c-.25 1.88-.25 1.88-1 4-3.69 2.71-7.88 2.23-12.25 2.12l-2.26-.02-5.49-.1 1-3 2.92.11 3.83.08 3.8.1c3.97-.33 5.9-3.29 9.45-3.29" fill="#F1F4F2"/><path d="m366 466 2 1v5h2v2h-3l-1 2h-6c.51-2.17 1-4 2-6h2v-2h2z" fill="#EBC669"/><path d="M995 141c24.52-.24 24.52-.24 29 2v2c-3.4 1.13-4.58.79-8 0l-6-1v-2h-15z" fill="#DBDDDB"/><path d="m201 690 2 1v2c-9.97 5.55-18.06 5.31-29 4v-1l3.15-.08c18.61-.68 18.61-.68 23.85-5.92" fill="#C9CDCB"/><path d="m395 641 2 1Zm-1 1 2 3-5.75 3.5-3.23 1.97C384 652 384 652 380 652c.75-1.94.75-1.94 2-4 1.81-.62 1.81-.62 4-1q2.5-.97 5-2v-2z" fill="#1A1D1A"/><path d="m889 307 3 1c.66 1.82.66 1.82 1.06 4.12a56 56 0 0 0 2.25 8.69L896 324c-1.46 2.2-1.46 2.2-3 4l-2-7.69-.58-2.18c-.97-3.8-1.67-7.18-1.42-11.13" fill="#E4E5E7"/><path d="M953 168c1.26 3.79.73 4.46-1 8a238 238 0 0 1-7 11h-2a53 53 0 0 1 5.56-12.31l1.88-3.18C952 169 952 169 953 168" fill="#DBDBDE"/><path d="m359 565 3 1c-1.38 3.21-2.92 5.05-5.62 7.25l-1.92 1.58L353 576l-3-3z" fill="#D5D7D5"/><path d="m164 695 23 2v2l-8.69.12-2.47.06c-4.41.03-7.83-.1-11.84-2.18z" fill="#EBEFED"/><path d="M320 478c2 1.19 2 1.19 4 3 .25 2.69.25 2.69 0 5q-1.9 1.04-3.81 2.06l-2.15 1.16C316 490 316 490 313 489l2.38-1.56c3.18-2.96 3.73-5.26 4.62-9.44" fill="#BDB284"/><path d="M270 478h10v4h-2v-2h-4v5h-3l-2-3z" fill="#D3BA65"/><path d="m367 463 1 3h-2v2h-2v2h-2l-2 6 6-2 1 3c-3.09 1.76-4.23 2-8 2-.57-3.89-.75-5.91 1.52-9.21q2.64-3 5.48-5.79z" fill="#D6C184"/><path d="m879 700-1 2 2 2a862 862 0 0 1-9.23.09c-3.72.02-7.15-.2-10.77-1.09v-1l6.69-1 3.76-.56c2.91-.36 5.63-.53 8.55-.44" fill="#CBCDCA"/><path d="M207 693h2v11h-7v-3l1.94-1.38c2.06-1.62 2.06-1.62 2.81-4.31z" fill="#D9DCDE"/><path d="M816 577c3.82 1.56 6.19 4.04 9 7l-2 2q-1.08 2.97-2 6h-1l-.88-3.56q-1.44-5.75-3.12-11.44" fill="#E6E7E5"/><path d="m283 475 .37 1.83.51 2.42.49 2.39A28 28 0 0 0 287 488h-3v-2h-2l-2-8h-6c2.98-2.98 4.79-3 9-3" fill="#C0AB70"/><path d="M220 400h3c1.4 3.76 2.56 6.97 2 11l-3 2c-1.45-4.54-2.24-8.18-2-13" fill="#111112"/><path d="M619 540c-4.24 3.83-8.78 5.86-14 8l-2-2 1-2h4q2.03-1.97 4-4c3.03-1.19 3.8-1.07 7 0" fill="#1E1F1C"/><path d="m744 222 32 1v1l-33 1z" fill="#C1C4C2"/><path d="m520 316 2 1h-3zm-3 2 2 1c-3.62 4.04-7.33 6.83-12.88 7.19L504 326c2.38-2.67 4.87-4.15 8.06-5.75l2.66-1.36z" fill="#EFF0F0"/><path d="m698.06 231.94 2.94.06v2q-2.8 1.02-5.63 2l-3.16 1.13a28 28 0 0 1-9.2.87c3.63-3.32 6.11-4.44 11-5 1-1 1-1 4.05-1.06" fill="#EEF0F0"/><path d="M214 384c2 1 2 1 3.12 4.06 1.08 4.04 1.03 7.78.88 11.94h-2c-1.3-4.14-2.23-7.66-2-12z" fill="#EDEFF1"/><path d="M214 371h1l2 17-4-5-1-1c-.17-2-.17-2-.19-4.44l-.04-2.43C212 373 212 373 214 371" fill="#D7D7DA"/><path d="M399.25 296.69c3.98 3.35 3.98 3.35 5.75 5.3l-2 4-1.94-2.86c-3.26-4-7.13-4.5-12.06-5.13v-1c6.13-2.45 6.13-2.45 10.25-.31" fill="#DCDDDD"/><path d="m809 225 5.31 1.44 2.99.81q2.87.8 5.7 1.75l-1 2q-2.37-.17-4.75-.38l-2.67-.21A18 18 0 0 1 808 228z" fill="#DFE1E2"/><path d="M365 663c1 2 1 2 1 6l-12 2c3.78-3.78 6.43-5.54 11-8" fill="#DDD"/><path d="m305 620 2 1c-1.18 3.55-2.3 4.24-5.25 6.44l-2.45 1.84L297 631l-5 4c.84-4.62 3.65-6.78 7.06-9.75l1.72-1.54z" fill="#18171A"/><path d="M222 419h2q.8 2.59 1.56 5.19l.88 2.92c.58 3.02.37 4.95-.44 7.89-2-1-2-1-3.12-4.06-1.08-4.04-1.03-7.78-.88-11.94" fill="#D9D9DA"/><path d="M412 331h3c1.58 4.15 2.4 7.55 2 12l-2 2q-.76-2.37-1.5-4.75l-.84-2.67C412 335 412 335 412 331" fill="#1B1C1D"/><path d="m324 598 3 1c-1.41 3.22-3.1 5.32-5.62 7.75l-1.92 1.86L318 610l-2-2 1.88-.62c2.97-1.93 3.15-4.06 4.12-7.38z" fill="#DEDFDF"/><path d="M872 269c3.91 4.84 6.17 10.08 8 16l-2 1q-1.52-2.55-3-5.12l-1.69-2.89c-1.43-3.26-1.56-5.47-1.31-8.99" fill="#E1E2E2"/><path d="M1002.19 141.94h2.27l5.54.06v1c-5.44 1.38-10.34 2.23-16 2h-3v-2c3.77-1.25 7.27-1.1 11.19-1.06" fill="#F1F2F1"/><path d="M287 638c-.38 2.5-.67 3.71-2.59 5.41l-1.91 1.21c-3.41 2.2-3.41 2.2-4.5 4.38h-3l-1 2c0-3 0-3 2.34-5.48q1.5-1.36 3.04-2.71l1.53-1.4c3.82-3.41 3.82-3.41 6.09-3.41" fill="#17181B"/><path d="M326 603c-1.56 3.84-4.1 6.1-7 9-1.31 2.31-1.31 2.31-2 4l-2-1c1.23-4.51 5.78-12 11-12" fill="#090A0B"/><path d="m240 663 4 5-13 1c3.16-4.21 4.17-4.71 9-6" fill="#EBEEEB"/><path d="m167.56 639.94 2.44.06v2h14v1l-20 1c0-3.97 0-3.97 3.56-4.06" fill="#BCBFBD"/><path d="M894 521c2.87 3.24 3.67 5.7 4 10-.21 2.7-.58 5.32-1 8-3.25-5.85-3.13-11.48-3-18" fill="#E0E1E3"/><path d="m368 462 4 1 1 4-3-1 1 5-3 1a18 18 0 0 1 0-10" fill="#DCBD6E"/><path d="M212 355h1c.82 6.38 1.12 12.57 1 19l-3-2c-.06-2.97.04-5.69.31-8.62l.19-2.43q.23-2.98.5-5.95" fill="#F2F2F3"/><path d="M405 310c3.34 2.71 4.58 6.01 6 10 .19 3.44.19 3.44 0 6l-2-1v-5h-2c-1.32-3.62-2-6.1-2-10" fill="#1A1C1A"/><path d="M143 664h3l-1 13h-2c-1.02-4.63-.84-8.34 0-13" fill="#EEF1EE"/><path d="M906 653h1l.15 1.9.23 2.48.21 2.46C908 662 908 662 910 664q2.97 1.08 6 2v1l-10-1z" fill="#F3F5F4"/><path d="m820 576 2 1v3l3-1 1 3h2c1.62 2 1.62 2 3 4-3.99 0-5.15-1.48-8.19-4l-2.73-2.25L818 578z" fill="#1C1E1E"/><path d="M254 572h4a30 30 0 0 1-5.12 7.75l-1.64 1.86L250 583l-1-3c1.31-2.5 1.31-2.5 3-5z" fill="#DBDEDD"/><path d="M893 441h1c1.52 10.56 1.52 10.56-1 15h-1q-.04-3.46-.06-6.94l-.04-3.9c.1-3.16.1-3.16 1.1-4.16" fill="#F3F3F3"/><path d="M268.56 349.75c2.77 1.6 3.57 2.45 5.44 5.25l-4.88-1.44-2.74-.81C264 352 264 352 262 351v-2c3-1 3-1 6.56.75" fill="#D8DBDE"/><path d="m313 690 3 1c-1.11 3.21-2.02 4.01-5 5.81l-3 1.19-2-1v-2q2.96-2.07 6-4z" fill="#181A19"/><path d="m463 350 1 2c-.94 2.12-.94 2.12-2 4h-2v2l-4-2c1-3 1-3 4.06-4.69z" fill="#1A181C"/><path d="M994 143h-3v2c-4.12 2-7.45 2.18-12 2 2.16-2.16 3.52-2.72 6.38-3.69l2.33-.82c2.49-.53 3.91-.3 6.29.51" fill="#D2D4D0"/><path d="m838 589 2 1 1 3 2 1-1 4q-1.76-1.42-3.5-2.88l-1.97-1.61L835 592v-2z" fill="#1C201B"/><path d="m576 559 1 3-9 4-1-3c2.19-2.19 3.08-2.38 6-3z" fill="#1A1B1C"/><path d="M491 336c1.62 2 1.62 2 3 4-4.38.59-8.58 1.14-13 1 6.36-5 6.36-5 10-5" fill="#1D1D1F"/><path d="M620 265v3a472 472 0 0 1-6.05 3.12C612 272 612 272 610 272c1.79-4.73 4.92-7 10-7" fill="#E0E0E0"/><path d="M893 180c1.08 3.33.98 4.06-.19 7.62-1.76 3.28-2.36 4.31-5.81 5.38 1.69-4.5 3.82-8.73 6-13" fill="#1E1E20"/><path d="M1045.69 96.19c3.3 1.8 3.3 1.8 4.3 4.8q-2.14-.4-4.3-.86l-2.43-.5C1041 99 1041 99 1038 97c3.06-2.32 3.93-2.02 7.69-.81" fill="#D7D8DB"/><path d="m380 654 3 4-1 2h-3l-1 2v-3h-3v-2c2.5-1.62 2.5-1.62 5-3" fill="#E5E5E7"/><path d="M849 614h2q.8 2.34 1.56 4.69l.88 2.63c.61 2.93.34 4.82-.44 7.68-2.13-3.55-2.49-6.93-3-11a90 90 0 0 0-1-4" fill="#D3D3D3"/><path d="M958.25 103.88 960 105l-2 3c-3.63.69-3.63.69-7 1 .25-1.87.25-1.87 1-4 2.47-1.87 3.32-2.27 6.25-1.12" fill="#1B1C1C"/><path d="m650.19 519.75 2.8.25v3c-1.14.5-1.14.5-7 3l-2-2c1.84-3.24 2.37-3.95 6.2-4.25" fill="#232422"/><path d="m217 382 3 2c.4 4.35.45 6.32-2 10-1.26-2.52-1.1-4.31-1.06-7.12l.02-2.76z" fill="#121517"/><path d="m913 238 1 2a27 27 0 0 1-5 7l-4-1z" fill="#D5D6D7"/><path d="m148 655 3 1-4 10-1-2-2-1c2.88-6.88 2.88-6.88 4-8" fill="#DDE0DD"/><path d="m303 616 3 1-1 4-5 1-3-4h5z" fill="#F1F0F5"/><path d="M220 610h2c-1.65 4.29-4.74 6.88-8 10l-3-1z" fill="#F0F0F1"/><path d="m256 650 2 1c1.26 4.48 1.26 4.48 0 7l-3-1v-3l-2-1z" fill="#F2F2F3"/><path d="m826 584 6 4c-1.69 1.12-1.69 1.12-4 2-2.75-.88-2.75-.88-5-2 2-3 2-3 3-4" fill="#E7E8E2"/><path d="M631 532v3c-6.96 3.35-6.96 3.35-11 2l4.38-2.5 2.46-1.41C629 532 629 532 631 532" fill="#222425"/><path d="m375 472 2 3c-7.29 3.43-7.29 3.43-12 3 2.72-3.37 6.07-4.44 10-6" fill="#281B10"/><path d="m462 347 1 2 2 1-9 4c1-4 1-4 3.56-5.75z" fill="#E3E2E5"/><path d="M176 692h3v2l4 1c-1 1-1 1-3.07 1.1l-2.49-.04-2.51-.02L173 696c1.31-2 1.31-2 3-4" fill="#040909"/><path d="m245 652 4 1c-1 3-1 3-3.38 4.69C243 659 243 659 240 659l1-3h3z" fill="#161719"/><path d="M590 555c-2.57 2.11-4.63 3.66-8 4l-2-2c3.72-2.66 5.58-3.39 10-2" fill="#222423"/><path d="M281 492a75 75 0 0 1 15 3v1c-4.44.11-8.64-.08-13-1z" fill="#141005"/><path d="m269 483 4.44 2.81 2.49 1.58C278 489 278 489 279 492c-2.67-.15-4.45-.49-6.45-2.33-3.55-4.18-3.55-4.18-3.55-6.67" fill="#1E1009"/><path d="M374 460c1.86 3.13 2.2 5.37 2 9a57 57 0 0 1-7-8c3-1 3-1 5-1" fill="#2F200F"/><path d="M362 464h2c-.44 2.48-.91 3.89-2.5 5.88-1.88 2.66-2.14 4.92-2.5 8.12h-1c-.29-8.57-.29-8.57 2-12h2z" fill="#332B16"/><path d="m656 250 3 2-7 4-3-3c3.31-1.62 3.31-1.62 7-3" fill="#1C1C1E"/><path d="M935 204c1.19 1.69 1.19 1.69 2 4-1.19 2.69-1.19 2.69-3 5l-3 1a57 57 0 0 1 4-10" fill="#DEDEE0"/><path d="m934 117 2 1-1 6-5 1c.5-3.69 1.1-5.6 4-8" fill="#191919"/><path d="M189 636h2c-.12 1.88-.12 1.88-1 4-2.88 1.38-2.88 1.38-6 2l-3-2 3.44-1.44C188 637 188 637 189 636" fill="#E9EDEA"/><path d="M905 573c2 2 2 2 2.12 4.62L907 580h-2v8h-1l-.06-5.81-.04-3.27c.1-2.92.1-2.92 1.1-5.92" fill="#E2E2E4"/><path d="M897 532c2.62 3.24 3.32 4.8 3 9v3h-2c-1.26-2.52-1.1-4.31-1.06-7.12l.02-2.76z" fill="#EFF1F3"/><path d="m494 331 2 2-10 5v-2h2l.75-1.94C490 332 490 332 492 331.12z" fill="#DEE0DF"/><path d="M564 297c-1.01 2.54-1.69 3.79-4 5.31l-2 .69-2-1v-2c5.75-3 5.75-3 8-3" fill="#1D1E1D"/><path d="M1121 156c3 4 3 4 2.86 6.14L1122 168l-3-1z" fill="#D6D6D8"/><path d="M1121 150c3.03 3.03 3.79 3.88 4 8l-3 3z" fill="#EEF0EF"/><path d="M145 669h1l2 13-4-1c-1.36-2.72-.7-4.18-.06-7.12l.59-2.76z" fill="#C3C5C4"/><path d="m444 484 1 2c-.78 2.16-.78 2.16-1.94 4.62l-1.15 2.48-.91 1.9h-3c1.45-4.11 3.51-7.43 6-11" fill="#040805"/><path d="M236 478c2.1 3.92 2.99 7.69 4 12h-3a20 20 0 0 1-1.06-7.69l.02-2.45z" fill="#D0D3D4"/><path d="m254 347 6 2-4 5-2-1z" fill="#131417"/><path d="m353 334 1 2-4 6-7-1v-1l2.75-.75c3.35-1.29 4.93-2.57 7.25-5.25" fill="#1E1F1F"/><path d="m551 303 1 3h-2l-1 3-6-1a40 40 0 0 1 8-5" fill="#1A1B1B"/><path d="m1108 178-2 3c-2.16.29-2.16.29-4.62.19l-2.48-.08-1.9-.11v-2a42 42 0 0 1 11-1" fill="#EEEFF1"/><path d="m899 163 2 1c-1.75 5.75-1.75 5.75-4 8-.69-2.25-.69-2.25-1-5 1.44-2.31 1.44-2.31 3-4" fill="#E5E6E3"/><path d="M915 134h3c-1.53 3.44-3.6 6.12-6 9-.25-3.02-.2-4.64 1.31-7.31z" fill="#E0DFE2"/><path d="m269 651-2 4h-3l-1-4c2.49-1.25 3.41-.78 6 0" fill="#E3E3E8"/><path d="m901 555 3 1 1 8h-3z" fill="#EFF0EF"/><path d="M248 510c2.12 2.62 4.13 5.2 6 8-4.88-.88-4.88-.88-6-2q-.06-3 0-6" fill="#E2E2E4"/><path d="m286 488 9 5v1h-6v-2h-3z" fill="#C3B585"/><path d="m318 488 3 1-1 3c-3.29 1.1-4.71.8-8 0a36 36 0 0 1 6-4" fill="#0E0E07"/><path d="m283 479 3 1v4h2l1 6c-2.65-2.48-4.68-4.59-6-8z" fill="#37260F"/><path d="m375 475 1 3h-2v2l-2-1-1 1c-2.06-.44-2.06-.44-4-1 2.62-2.15 4.64-3.4 8-4" fill="#17141E"/><path d="m219 415 4 1v10c-3-3-3-3-3.12-5.5l.12-2.5z" fill="#E9E9EB"/><path d="m478 342 1 2 2 1-2 2c-3.62-.38-3.62-.38-7-1a36 36 0 0 1 6-4" fill="#1B1B1D"/><path d="m891 258 1 2-5 5-1-2-2-1z" fill="#E5E5E5"/><path d="m886 256 3 4-6 3c0-4 0-4 1.5-5.75z" fill="#19181B"/><path d="M333 678c2.12.38 2.12.38 4 1v2c-2.35 1.43-3.48 2.09-6.25 1.62L329 682z" fill="#17191B"/><path d="m162 642 2 2-8 5c.19-2.38.19-2.38 1-5 2.56-1.31 2.56-1.31 5-2" fill="#E3E5E4"/><path d="M816 577a19 19 0 0 1 7 5l-5 2z" fill="#C4C7C6"/><path d="M542 577v3c-3 2-3 2-5.69 1.62L534 581c2.46-2.46 4.71-3 8-4" fill="#DBDDDC"/><path d="m893 512 2 1c.27 8.04.27 8.04-2 12q-.3-2.12-.56-4.25l-.32-2.39c-.12-2.37.18-4.11.88-6.36" fill="#E8E8E8"/><path d="M231 462c2 2 2 2 2.2 4.38l-.08 2.74-.05 2.76L233 474c-1.52-1.21-1.52-1.21-3-3-.07-2.26-.07-2.26.31-4.69l.37-2.45z" fill="#EDEEEF"/><path d="m479 338 2 3-8 4v-3z" fill="#E1E3E3"/><path d="m889 307 3 1 1 7-3 1z" fill="#DDE0E0"/><path d="m900 247 2 3-5 4-1-4z" fill="#1D1F20"/><path d="m802 224 6 2v2l3 1c-6.75-.88-6.75-.88-9-2z" fill="#DBDCDB"/><path d="m971 151 3 1-5 5-3-1z" fill="#F0F0F0"/><path d="m1082 111 3 2v2l3 1v1l-7-1z" fill="#EBECEE"/><path d="m339 591-2 4h-3l-1 3-2-2c5.75-5 5.75-5 8-5" fill="#1C1D1E"/><path d="m604 549-9 4-2-2 3.81-1.56 2.15-.88C601 548 601 548 604 549" fill="#262727"/><path d="M258 345a38 38 0 0 1 5 3l-1 2a98 98 0 0 1-6-2l-1-2z" fill="#E2E4E6"/><path d="m498 334-2 4h-5v-3c3.62-2.12 3.62-2.12 7-1" fill="#171719"/><path d="M398.44 295.88 400 297l-1 3-10-2v-1c6.4-2.21 6.4-2.21 9.44-1.12" fill="#D4D6D4"/><path d="M886 263c-.75 1.94-.75 1.94-2 4-2.12.75-2.12.75-4 1l-1-3c2.65-1.46 3.89-2 7-2" fill="#EEEEF1"/><path d="M205 683h2l1 4-5 2c.88-4.88.88-4.88 2-6" fill="#090909"/><path d="m305 620 2 1c-1.13 3.4-1.97 4.22-5 6l-3-1z" fill="#1E1D21"/><path d="m210 619 3 1-5 5-2-2z" fill="#E6E7E6"/><path d="M254 517h2v2l1.88.81C260 521 260 521 262 524h-3c-5-5.47-5-5.47-5-7" fill="#212224"/><path d="M216 368h1l1 12h-2a26 26 0 0 1 0-12" fill="#131515"/><path d="m506 327 2 1-3 6h-2l-1-5c1.88-1.06 1.88-1.06 4-2" fill="#19191D"/><path d="m362 320 2 3-5 6-1-3c1.94-3.19 1.94-3.19 4-6" fill="#DADDDC"/><path d="M925 222h3c-.56 3.27-1.5 4.83-4 7l-2-2c1.31-2.5 1.31-2.5 3-5" fill="#E0E0E2"/><path d="m1026 91 5 2v2l-8-1z" fill="#F2F3F4"/><path d="M878 699h5l-1 4h-6z" fill="#BDBFBF"/><path d="m212 684 1 2c-.94 2.62-.94 2.62-2 5l-1-3-5 1c4.75-3.88 4.75-3.88 7-5" fill="#CFD0D2"/><path d="M316 610c0 3 0 3-1 6-3.06 1.19-3.06 1.19-6 2l2.94-3.44 1.65-1.93q1.16-1.36 2.41-2.63" fill="#1E1F23"/><path d="M449 604c3 0 3 0 5 1l-1 3-6 1z" fill="#1C1E1E"/><path d="M604 544h8c-2.39 1.89-4.07 3.02-7 4l-2-2z" fill="#232523"/><path d="m216 391 2 1v8h-2c-1.16-3.48-.71-5.46 0-9" fill="#E7E8ED"/><path d="m222 396 2 2c-.38 2.12-.38 2.12-1 4l-2-1-2 2c.38-2.94.38-2.94 1-6z" fill="#1E1F21"/><path d="m315 346-1 3c-2.56 1.19-2.56 1.19-5 2v-4c3-1 3-1 6-1" fill="#212321"/><path d="M304 345q3.01.43 6 1l-1 2c-2.56.62-2.56.62-5 1l-1-3z" fill="#DBDEDB"/><path d="M316 343v3c-2.88.62-2.88.62-6 1l-2-2c3.09-1.76 4.23-2 8-2" fill="#EAEDEA"/><path d="m522 315 4 2-8 4c1-2.99 1.75-3.95 4-6" fill="#E0E3E0"/><path d="M636 258v2l-7 3c.31-1.94.31-1.94 1-4 3-1 3-1 6-1" fill="#DDE1DD"/><path d="m744 222-1 3h-7v-2c2.71-1.35 5.01-1.07 8-1" fill="#EDEEEF"/><path d="M959 164v2h-2l-.38 2.44L956 171l-2 1c-.37-4.52-.37-4.52 1.38-6.81C957 164 957 164 959 164" fill="#EEEEEF"/><path d="m953 161 4 2-2 4-3-1z" fill="#1E1E1F"/><path d="m738 681 5 3-1 2-6-2 2-1z" fill="#B2B6B2"/><path d="M228 605c-1.39 3.37-2.98 4.99-6 7 .63-3.64 1.85-7 6-7" fill="#CDD1CF"/><path d="m353 570 2 1-1 5-4-3z" fill="#DEDFDF"/><path d="M631 530v2c-1.81 1.06-1.81 1.06-4 2l-3-1c2.5-3 2.74-3 7-3" fill="#171A19"/><path d="M373 467c2 1.38 2 1.38 4 3v2l-5 2v-2h2z" fill="#C4B082"/><path d="m291 350 2 2c-4.43 2.09-4.43 2.09-7.31 1.62L284 353c2.38-2.38 3.7-2.67 7-3" fill="#EFEFF2"/><path d="m381 302 1 3-5 4-2-1z" fill="#2D2D2E"/><path d="M872 269c2.11 2.57 3.66 4.63 4 8l-2 2c-2.09-3.4-2.18-6.05-2-10" fill="#CFD1CE"/><path d="M822 230c2.5.19 2.5.19 5 1l2 3-9-2z" fill="#D5D7D8"/><path d="m809 225 6 2v2l-7-1z" fill="#F1F4F3"/><path d="M878 203h3l-2 5h-3c0-3 0-3 2-5" fill="#242725"/></svg>