<svg style="background:transparent" version="1.1" xmlns="http://www.w3.org/2000/svg" viewBox="0 0 1248 704"><path d="M981.94 87.37q3.94 0 7.87-.1c12.25-.08 25.33 1.14 35.2 9.18 4.47 4.58 8.68 10.17 10 16.55-.24 7.32-3.54 12.64-8.76 17.63-7.7 6.02-15.16 7.84-24.94 6.93-6.28-.48-12.5-.67-18.8-.68l-2.55-.02c-12.67.03-25.27 3.12-35.96 10.14l-2.3 1.3c-6.7 4.22-11.08 7.59-14.7 14.7l-1.92 2.33c-6.73 8.63-11.12 20.72-11.08 31.67l-2 7v2.5c0 3.4-1.04 6.24-2 9.5q-.5 2.5-.94 5c-.83 4.3-2.25 7.99-4.06 12l-.88 3.44c-1.39 4.4-3.55 7.75-6.12 11.56l-1.34 2.12c-5.76 8.97-12 17.1-20.66 23.39-2.59 1.93-4.75 4.18-7 6.49-8.23 6.85-17.17 11.85-27 16l-2.04.9A107 107 0 0 1 829 301a33 33 0 0 0 3.94 7.88 43 43 0 0 1 4.22 8.13q.9 2.1 1.92 4.14c4.35 8.77 6.74 18.1 9.28 27.52q.82 2.97 1.75 5.9c1.08 4.16 1.54 8.23 1.95 12.49.84 8.35.84 8.35 1.46 12.06a103 103 0 0 1 1.04 9.94q.14 1.78.26 3.6.17 2.99.14 5.96c.04 2.38.04 2.38.54 4.6.6 3.3.6 6.38.56 9.73v2l-.08 8.4c-.07 7.63.04 15.07 1.02 22.65q.06 2.94 0 5.88c-.04 4.72.23 9.29.71 13.98.44 4.76.67 9.53.9 14.3.18 3.4.47 6.56 1.4 9.84v6c.45 4.88 1.63 9.1 3.24 13.68a59 59 0 0 1 1.7 6.76c.87 4.24 2.38 8.04 4.04 12.03 2.8 7.02 4.47 14.38 6.25 21.7a59 59 0 0 0 2.45 7.2c1.28 3.56 1.48 5.9 1.31 9.63l1 3a164 164 0 0 1 .5 5.44c.4 5.15.4 5.15 1 7.48.83 3.45.84 6.99 1 10.52A84 84 0 0 0 884 607c1.28 13.64 1.11 27.32 1 41l2.01.47c34.2 8.08 34.2 8.08 39 15.53.18 3.5.18 3.5-1 7-23.4 22.36-80.05 17.44-110 17-8.93-.2-17.85-.54-26.76-.87l-3.73-.14q-31.3-1.15-62.59-2.83l-21.1-1.12q-9.33-.48-18.67-1l-17-.88-6.14-.31a770 770 0 0 0-40.77-1.04h-3.06c-87.4.18-174.08 9.17-269.27 20.67l-2.04.24-9.36 1.15c-16.26 1.99-32.33 2.45-48.68 2.54q-4.54.01-9.07.1-5.52.09-11.05.1-2.08 0-4.17.06c-12.17.24-12.17.24-17.3-3.76l-1.75-1.7L241 698c-2.69.8-2.69.8-5 2-3.92-1.64-5.25-3.27-7-7-2.13-1.75-2.13-1.75-4-3 1.16-2.85 2.2-4.18 4.56-6.25 3.26-3.68 3.2-5.92 3.44-10.75l-1.72 1.02c-4.69 2.7-8.96 4.75-14.28 5.98l-2.23.55c-10.92 1.77-21.75-.1-30.77-6.55-6.13-5.66-10.34-11.08-11.09-19.5.32-9.26 6.3-15.93 12.66-22 5.67-5 11.98-7.56 19.43-8.5l1 1c6.32 1.1 9.98-1.36 15.16-4.87 3.62-2.71 6.96-5.63 10.26-8.72q3.15-2.92 6.43-5.72c4.05-3.53 7.75-7.31 11.4-11.25l1.94-2.08q6.4-6.93 12.56-14.05l1.48-1.7A62 62 0 0 0 272 567c1.56-1.81 1.56-1.81 3-3h2l.75-1.62A67 67 0 0 1 283 554h2l.75-2.22c1.36-3.02 2.92-4.88 5.2-7.28A48 48 0 0 0 298 535l2-3-3.56-1c-17.82-6.03-30.94-16.63-39.68-33.38a54 54 0 0 1-4.27-13.35 66 66 0 0 0-1.87-6.58c-1.9-6.16-3.05-12.5-4.26-18.82l-.49-2.55-.44-2.3C245 452 245 452 244 449q-.36-2.62-.6-5.24-.19-1.58-.35-3.2l-.36-3.43a357 357 0 0 0-5.29-33.02c-.58-3.02-.98-6.06-1.4-9.11l-1.06-5.87a64 64 0 0 1-.94-12.84c0-2.7-.28-5.3-.56-7.98-.39-4.03-.37-7.33.56-11.31l.27-2.3c.96-6.95 3.55-11 8.73-15.7 3.74-2.5 5.56-2.31 10-2 10.14 2.69 19.4 7.5 28.62 12.39q3.65 1.88 7.38 3.6l2.17 1.16c8.31 3.57 16.61.04 24.8-2.53 4.52-1.38 9.13-2.24 13.8-3.12C332 348 332 348 334 347q2.44-.26 4.87-.44c18.65-1.54 26.5-6.25 38.94-19.87l4.75-5.13 3.72-4.04c4.88-5.15 10.47-9.52 17.72-10.52 5.16 1.62 8.63 5.07 11.26 9.68 4.08 7.84 8.12 16.23 9.8 24.95A63 63 0 0 0 427 349a67 67 0 0 1 2 7.5c.93 4.33 2.01 8.52 4 12.5l2.53-1.27 7.06-3.5A427 427 0 0 0 469 350q7.4-4.2 15-8l2.33-1.4a212 212 0 0 1 8.04-4.54q4.54-2.44 9-5.01a197 197 0 0 1 11.44-5.92c5.4-2.67 10.6-5.47 15.72-8.64 10.2-6.15 21-11.32 31.67-16.57a113 113 0 0 0 5.05-2.8c3.84-2.2 7.78-4.17 11.75-6.12l2.8-1.41q5.13-2.54 10.32-4.96l1.98-.93q6.15-2.86 12.46-5.4c3.2-1.28 6.06-2.56 8.88-4.55 2.74-1.87 4.33-2.22 7.56-2.75 4.77-1.4 9.4-3.13 14-5a165 165 0 0 1 23.28-7.31c2.72-.7 2.72-.7 5.84-1.75a80 80 0 0 1 10.71-2.47C679 254 679 254 681 253q2.44-.26 4.87-.44c4.16-.33 8.21-.88 12.32-1.62A70 70 0 0 1 712 250l2.83-.48c14.63-2.4 30.98.18 45.21 3.76 2.9.7 5.77 1.23 8.71 1.72a84 84 0 0 1 14.25 4c8.23 2.84 13.66 1.3 21.41-1.98a60 60 0 0 1 7.28-2.27c5.52-1.56 10.33-4.27 15.31-7.06 4.82-2.7 4.82-2.7 7-2.7l.56-1.74c1.44-2.25 1.44-2.25 4.65-3.92 4.43-2.45 7-5.83 9.91-9.9l1.58-2.14a71 71 0 0 0 9.3-17.3l1.25-3.11c.84-3.25 1.22-6.4 1.5-9.73A46 46 0 0 1 864 191q.29-2.02.5-4.06c.5-3.94.5-3.94 1.5-6.94q.47-2.9.87-5.81a35 35 0 0 1 4.13-12.2l.37-2.68c.76-4 2.3-7.34 4.13-10.93l1.07-2.12c4.76-9.12 10.53-17.15 18.58-23.66 2.5-2.15 4.44-4.61 6.43-7.22 1.73-1.68 3.1-1.86 5.42-2.38l.81-1.81c1.81-3.34 4.94-4.5 8.2-6.2l2.55-1.55c2.75-1.62 5.58-3.01 8.44-4.44l2.31-1.56c3.11-1.66 5.96-2.27 9.41-2.91C941 94 941 94 943.14 93.1c12.48-4.8 25.56-5.8 38.8-5.73" fill="#111311"/><path d="M981.94 87.37q3.94 0 7.87-.1c12.25-.08 25.33 1.14 35.2 9.18 4.47 4.58 8.68 10.17 10 16.55-.24 7.32-3.54 12.64-8.76 17.63-7.7 6.02-15.16 7.84-24.94 6.93-6.28-.48-12.5-.67-18.8-.68l-2.55-.02c-12.67.03-25.27 3.12-35.96 10.14l-2.3 1.3c-6.7 4.22-11.08 7.59-14.7 14.7l-1.92 2.33c-6.73 8.63-11.12 20.72-11.08 31.67l-2 7v2.5c0 3.4-1.04 6.24-2 9.5q-.5 2.5-.94 5c-.83 4.3-2.25 7.99-4.06 12l-.88 3.44c-1.39 4.4-3.55 7.75-6.12 11.56l-1.34 2.12c-5.76 8.97-12 17.1-20.66 23.39-2.59 1.93-4.75 4.18-7 6.49-8.23 6.85-17.17 11.85-27 16l-2.04.9A107 107 0 0 1 829 301a33 33 0 0 0 3.94 7.88 43 43 0 0 1 4.22 8.13q.9 2.1 1.92 4.14c4.35 8.77 6.74 18.1 9.28 27.52q.82 2.97 1.75 5.9c1.08 4.16 1.54 8.23 1.95 12.49.84 8.35.84 8.35 1.46 12.06a103 103 0 0 1 1.04 9.94q.14 1.78.26 3.6.17 2.99.14 5.96c.04 2.38.04 2.38.54 4.6.6 3.3.6 6.38.56 9.73v2l-.08 8.4c-.07 7.63.04 15.07 1.02 22.65q.06 2.94 0 5.88c-.04 4.72.23 9.29.71 13.98.44 4.76.67 9.53.9 14.3.18 3.4.47 6.56 1.4 9.84v6c.45 4.88 1.63 9.1 3.24 13.68a59 59 0 0 1 1.7 6.76c.87 4.24 2.38 8.04 4.04 12.03 2.8 7.02 4.47 14.38 6.25 21.7a59 59 0 0 0 2.45 7.2c1.28 3.56 1.48 5.9 1.31 9.63l1 3a164 164 0 0 1 .5 5.44c.4 5.15.4 5.15 1 7.48.83 3.45.84 6.99 1 10.52A84 84 0 0 0 884 607c1.28 13.64 1.11 27.32 1 41l2.01.47c34.2 8.08 34.2 8.08 39 15.53.18 3.5.18 3.5-1 7-23.4 22.36-80.05 17.44-110 17-8.93-.2-17.85-.54-26.76-.87l-3.73-.14q-31.3-1.15-62.59-2.83l-21.1-1.12q-9.33-.48-18.67-1l-17-.88-6.14-.31a770 770 0 0 0-40.77-1.04h-3.06c-87.4.18-174.08 9.17-269.27 20.67l-2.04.24-9.36 1.15c-10.13 1.24-20.13 2.29-30.35 2.23l-2.64-.01-8.22-.03-5.63-.01L274 704v-1l2.9-.6c18.11-3.95 32.8-12.8 48.31-22.65q7.1-4.44 14.3-8.75 10.97-6.66 21.86-13.44 11.63-7.2 23.38-14.18A744 744 0 0 0 412 626.3q3.12-2.04 6.25-4.04c13.43-8.61 26.63-17.46 39.26-27.21 6.37-4.88 12.28-8.37 20.24-10.12l3.92-.91 2.1-.5c25.06-6.03 48.82-15.91 72.23-26.53l3.6-1.62c22.38-10.15 44.47-20.91 66-32.81a685 685 0 0 1 21.62-11.36l3.77-1.91q2.63-1.34 5.27-2.66l3.06-1.54C662 504 662 504 666 504l1.25 2.97c13.2 31.02 31.42 56.6 58.58 76.89 23.67 17.7 23.67 17.7 27.17 32.14.3 4.36.24 8.64 0 13l-2.13.3c-7.86 1.24-13.9 2.8-19.68 8.45-4.4 6.55-6.57 13.28-5.19 21.25q1.43 2.05 3 4v2c4.86 2.1 9.91 3.55 15 5l1.82.53c4.51.97 9.21.66 13.8.66q1.57 0 3.16.04c10.4.02 20.52-1.07 29.22-7.23 14.86-15.84 13.7-42.6 13.14-62.64A239 239 0 0 0 803 579c10.42 3.74 20.34 12.02 25.5 21.85 1.31 3.02 2.44 6.04 3.5 9.15l.97 2.72c2.33 7.35 2.6 14.6 2.03 22.28-1.7 1.7-4.1 1.4-6.44 1.69-7.38 1.22-13.55 3.49-18.29 9.5-3.66 6.37-4.2 12.6-3.27 19.8 1.71 5.24 4.55 7.85 9 11 12.27 6.15 30.41 6.03 43.42 2.05 7.55-3.04 13.81-6.65 17.58-14.04 2.74-7.04 3.44-13.57 3.4-21.08l.01-3.14q.02-5.02-.04-10.03v-3.46c-.09-17.92-.64-35.55-3.37-53.3l-.42-2.9c-2.45-15.96-7.63-31.13-12.95-46.33A155 155 0 0 1 856 490l-.29-2.62c-2.22-21.07-2.6-42.3-3.3-63.47-2.77-81.68-2.77-81.68-24.58-116.8-2.87-4.62-2.87-4.62-2.67-7.21.84-1.9.84-1.9 2.5-2.88l2.14-.7 2.38-.8 2.57-.83c29.45-10.18 51.5-30.44 65.11-58.28 5.88-12.7 8.06-26.64 10.3-40.36 3.11-19.01 10.68-36.45 26.5-48.28 13.3-9.46 26.08-14.08 42.4-14.01l6.35-.05q4.95-.02 9.9-.01 4.82 0 9.63-.06l2.95.03c8.37-.12 13.76-2.94 20.17-8.17 2.91-3.93 2.68-8.53 2.48-13.24-.99-5.98-3.8-9.9-8.33-13.81-16.47-11.48-43.16-8.86-61.97-5.86-27.59 5.06-55.16 18.29-71.93 41.54-13.85 21.13-18.94 43.33-22.3 68.12-2.6 17.22-13.66 31.45-27.24 41.82-10.86 7.58-22.35 12.5-34.77 16.93l-2.3.87c-7.36 2.66-13 2.57-20.58.38l-3.96-1.1-2.06-.58q-5.28-1.43-10.6-2.7l-3.84-.94c-12.14-2.6-24.06-3.27-36.4-3.18H722c-11.43.07-22.7.39-34 2.25l-2.33.38c-56.26 9.39-110.46 37.84-159.32 66.28a341 341 0 0 1-11.9 6.4 1139 1139 0 0 0-22.56 12.06c-5.33 2.9-10.65 5.86-15.96 8.8a892 892 0 0 1-34.62 18.58l-2.79 1.4c-6.26 3.1-6.26 3.1-8.52 3.1l-.7-2.68A764 764 0 0 0 421 341l-.73-2.38q-1.11-3.6-2.27-7.18l-.68-2.2c-2.12-6.46-5.17-12.66-10.32-17.24-3.97-1.01-7.62-.75-11.23 1.2a72 72 0 0 0-8.15 7.18L386 322h-2l-.78 1.75a29 29 0 0 1-4.74 6.22l-2.1 2.23-2.19 2.3-2.16 2.3c-6.02 6.35-10.12 10.58-19.09 11.69l-4.83.69-2.53.35c-12.73 1.73-25.2 3.6-37.43 7.64-7.66 2.52-13.2 2.3-20.59-1.17l-2.07-.94a445 445 0 0 1-17-8.3c-7.83-4.01-14.5-7.26-23.49-5.76a19 19 0 0 0-7 9c-.26 3-.26 3-.27 6.5v3.9l.02 4.16.01 2.13a221 221 0 0 0 5.28 47.64c1.77 8.2 2.93 16.4 3.96 24.73 7.52 59.73 7.52 59.73 29.42 77.95 8.4 6.16 17.7 9.9 27.58 12.99-1.6 5.32-5.04 9.22-8.44 13.5l-1.9 2.42a541 541 0 0 1-14.15 17.14 429 429 0 0 0-6.95 8.38l-2.25 2.74a638 638 0 0 0-4.62 5.7c-6.5 7.96-13.64 15.33-20.86 22.64l-3.35 3.4c-21.47 21.98-21.47 21.98-33.3 22.32-7.34.23-12.93.55-19.18 4.76l-2.63 1.56c-5.87 6.03-8.76 12.32-9 20.75.35 7.25 2.25 10.42 7.44 15.38 8.96 6.5 18.44 7.12 29.2 6.3 7.61-1.62 14.16-4.94 20.81-8.91L237 667l2 1-.66 1.65c-2.28 6.2-3.98 12.14-1.5 18.52 4.21 7.58 11 10.8 19.04 13.27A62 62 0 0 0 264 703v1c-14.73 1.04-14.73 1.04-19.63-3.12l-1.8-1.7L241 698c-2.69.8-2.69.8-5 2-3.92-1.64-5.25-3.27-7-7-2.13-1.75-2.13-1.75-4-3 1.16-2.85 2.2-4.18 4.56-6.25 3.26-3.68 3.2-5.92 3.44-10.75l-1.72 1.02c-4.69 2.7-8.96 4.75-14.28 5.98l-2.23.55c-10.92 1.77-21.75-.1-30.77-6.55-6.13-5.66-10.34-11.08-11.09-19.5.32-9.26 6.3-15.93 12.66-22 5.67-5 11.98-7.56 19.43-8.5l1 1c6.32 1.1 9.98-1.36 15.16-4.87 3.62-2.71 6.96-5.63 10.26-8.72q3.15-2.92 6.43-5.72c4.05-3.53 7.75-7.31 11.4-11.25l1.94-2.08q6.4-6.93 12.56-14.05l1.48-1.7A62 62 0 0 0 272 567c1.56-1.81 1.56-1.81 3-3h2l.75-1.62A67 67 0 0 1 283 554h2l.75-2.22c1.36-3.02 2.92-4.88 5.2-7.28A48 48 0 0 0 298 535l2-3-3.56-1c-17.82-6.03-30.94-16.63-39.68-33.38a54 54 0 0 1-4.27-13.35 66 66 0 0 0-1.87-6.58c-1.9-6.16-3.05-12.5-4.26-18.82l-.49-2.55-.44-2.3C245 452 245 452 244 449q-.36-2.62-.6-5.24-.19-1.58-.35-3.2l-.36-3.43a357 357 0 0 0-5.29-33.02c-.58-3.02-.98-6.06-1.4-9.11l-1.06-5.87a64 64 0 0 1-.94-12.84c0-2.7-.28-5.3-.56-7.98-.39-4.03-.37-7.33.56-11.31l.27-2.3c.96-6.95 3.55-11 8.73-15.7 3.74-2.5 5.56-2.31 10-2 10.14 2.69 19.4 7.5 28.62 12.39q3.65 1.88 7.38 3.6l2.17 1.16c8.31 3.57 16.61.04 24.8-2.53 4.52-1.38 9.13-2.24 13.8-3.12C332 348 332 348 334 347q2.44-.26 4.87-.44c18.65-1.54 26.5-6.25 38.94-19.87l4.75-5.13 3.72-4.04c4.88-5.15 10.47-9.52 17.72-10.52 5.16 1.62 8.63 5.07 11.26 9.68 4.08 7.84 8.12 16.23 9.8 24.95A63 63 0 0 0 427 349a67 67 0 0 1 2 7.5c.93 4.33 2.01 8.52 4 12.5l2.53-1.27 7.06-3.5A427 427 0 0 0 469 350q7.4-4.2 15-8l2.33-1.4a212 212 0 0 1 8.04-4.54q4.54-2.44 9-5.01a197 197 0 0 1 11.44-5.92c5.4-2.67 10.6-5.47 15.72-8.64 10.2-6.15 21-11.32 31.67-16.57a113 113 0 0 0 5.05-2.8c3.84-2.2 7.78-4.17 11.75-6.12l2.8-1.41q5.13-2.54 10.32-4.96l1.98-.93q6.15-2.86 12.46-5.4c3.2-1.28 6.06-2.56 8.88-4.55 2.74-1.87 4.33-2.22 7.56-2.75 4.77-1.4 9.4-3.13 14-5a165 165 0 0 1 23.28-7.31c2.72-.7 2.72-.7 5.84-1.75a80 80 0 0 1 10.71-2.47C679 254 679 254 681 253q2.44-.26 4.87-.44c4.16-.33 8.21-.88 12.32-1.62A70 70 0 0 1 712 250l2.83-.48c14.63-2.4 30.98.18 45.21 3.76 2.9.7 5.77 1.23 8.71 1.72a84 84 0 0 1 14.25 4c8.23 2.84 13.66 1.3 21.41-1.98a60 60 0 0 1 7.28-2.27c5.52-1.56 10.33-4.27 15.31-7.06 4.82-2.7 4.82-2.7 7-2.7l.56-1.74c1.44-2.25 1.44-2.25 4.65-3.92 4.43-2.45 7-5.83 9.91-9.9l1.58-2.14a71 71 0 0 0 9.3-17.3l1.25-3.11c.84-3.25 1.22-6.4 1.5-9.73A46 46 0 0 1 864 191q.29-2.02.5-4.06c.5-3.94.5-3.94 1.5-6.94q.47-2.9.87-5.81a35 35 0 0 1 4.13-12.2l.37-2.68c.76-4 2.3-7.34 4.13-10.93l1.07-2.12c4.76-9.12 10.53-17.15 18.58-23.66 2.5-2.15 4.44-4.61 6.43-7.22 1.73-1.68 3.1-1.86 5.42-2.38l.81-1.81c1.81-3.34 4.94-4.5 8.2-6.2l2.55-1.55c2.75-1.62 5.58-3.01 8.44-4.44l2.31-1.56c3.11-1.66 5.96-2.27 9.41-2.91C941 94 941 94 943.14 93.1c12.48-4.8 25.56-5.8 38.8-5.73" fill="#BABCBA"/><path d="M663 503c3 1 3 1 4.54 4.07l1.65 4.05c12.36 29.47 31.04 53.62 56.64 72.74 23.68 17.7 23.68 17.7 27.17 32.14.3 4.36.25 8.64 0 13l-2.12.3a48 48 0 0 0-18.65 6.78c-2.79 1.15-4.62.99-7.62.71a627 627 0 0 0-37.01-2.35l-2.02-.06c-18.96-.56-37.93-.62-56.89-.63h-2.84c-35.56-.02-70.98.94-106.48 3.05l-9.41.54c-21.54 1.22-42.96 3.3-64.4 5.66l-3.46.38a680 680 0 0 0-37.06 4.97c-5.2.86-10.42 1.51-15.65 2.17-4.08.58-8.1 1.35-12.12 2.21-2.39.28-4 .01-6.27-.73l6.69-4.19 2.16-1.35q6.02-3.77 12.08-7.49c22.4-13.76 44.75-27.83 65.58-43.91 6.38-4.88 12.28-8.38 20.24-10.12l3.92-.91 2.09-.49c25.07-6.05 48.83-15.92 72.24-26.54l3.59-1.62c22.39-10.15 44.5-20.88 66-32.82a653 653 0 0 1 27.49-14.1l3.47-1.72 3.12-1.53C662 504 662 504 663 503" fill="#ECEEEC"/><path d="M981.94 87.37q3.94 0 7.87-.1c12.25-.08 25.33 1.14 35.2 9.18 4.47 4.58 8.68 10.17 10 16.55-.24 7.32-3.54 12.64-8.76 17.63-7.7 6.02-15.16 7.84-24.94 6.93-6.28-.48-12.5-.67-18.8-.68l-2.55-.02c-12.67.03-25.27 3.12-35.96 10.14l-2.3 1.3c-6.7 4.22-11.08 7.59-14.7 14.7l-1.92 2.33c-6.73 8.63-11.12 20.72-11.08 31.67l-2 7v2.5c0 3.4-1.04 6.24-2 9.5q-.5 2.5-.94 5c-.83 4.3-2.25 7.99-4.06 12l-.88 3.44c-1.39 4.4-3.55 7.75-6.12 11.56l-1.34 2.12c-5.76 8.97-12 17.1-20.66 23.39-2.59 1.93-4.75 4.18-7 6.49-8.23 6.85-17.17 11.85-27 16l-2.04.9A107 107 0 0 1 829 301a33 33 0 0 0 3.94 7.88 43 43 0 0 1 4.22 8.13q.9 2.1 1.92 4.14c4.35 8.77 6.74 18.1 9.28 27.52q.82 2.97 1.75 5.9c1.08 4.16 1.54 8.23 1.95 12.49.84 8.35.84 8.35 1.46 12.06a103 103 0 0 1 1.04 9.94q.14 1.78.26 3.6.17 2.99.14 5.96c.04 2.38.04 2.38.54 4.6.6 3.3.6 6.38.56 9.73v2l-.08 8.4c-.07 7.63.04 15.07 1.02 22.65q.06 2.94 0 5.88c-.04 4.72.23 9.29.71 13.98.44 4.76.67 9.53.9 14.3.18 3.4.47 6.56 1.4 9.84v6c.45 4.88 1.63 9.1 3.24 13.68a59 59 0 0 1 1.7 6.76c.87 4.24 2.38 8.04 4.04 12.03 2.8 7.02 4.47 14.38 6.25 21.7a59 59 0 0 0 2.45 7.2c1.28 3.56 1.48 5.9 1.31 9.63l1 3a164 164 0 0 1 .5 5.44c.4 5.15.4 5.15 1 7.48.83 3.45.84 6.99 1 10.52A84 84 0 0 0 884 607c1.28 13.64 1.11 27.32 1 41l2.01.47c34.2 8.08 34.2 8.08 39 15.53.18 3.5.18 3.5-1 7-23.4 22.36-80.05 17.44-110 17-8.93-.2-17.85-.54-26.76-.87l-3.73-.14q-31.3-1.15-62.59-2.83l-21.1-1.12q-9.33-.48-18.67-1l-17-.88-6.14-.31a770 770 0 0 0-40.77-1.04h-3.06c-87.4.18-174.08 9.17-269.27 20.67l-2.04.24-9.36 1.15c-10.26 1.26-20.37 2.3-30.7 2.19l-2.6-.01L295 704v-1a545 545 0 0 1 33-3.21c5.92-.44 11.64-1.2 17.47-2.32a118 118 0 0 1 10.78-1.34c8.07-.8 16.11-1.8 24.15-2.86A950 950 0 0 1 418 689l10.62-1 2.67-.25a763 763 0 0 0 16.58-1.75 909 909 0 0 1 28.55-2.7l7.64-.65a1429 1429 0 0 1 64.64-4.11l4.73-.2q5.62-.23 11.21-.85c6.62-.7 13.24-.7 19.9-.73l2.11-.01q8.14-.05 16.3-.06l2.44-.01c25.65-.04 51.2.66 76.8 2.13l2.36.14q13.95.8 27.9 1.65c36.28 2.2 72.47 3.7 108.81 3.83q3.84.01 7.67.05c17.1.1 33.97-.2 50.95-2.26l3.92-.47c11.71-1.56 23.96-3.67 34.6-9.01 1.6-.74 1.6-.74 3.6-.74l1-8c-3.64-3.22-7.65-4.47-12.19-5.94l-2.38-.78a230 230 0 0 0-21.15-5.52C884 651 884 651 882 650l-.14-3.75c-1.55-42.14-4.2-81.42-18.23-121.5A155 155 0 0 1 856 490l-.29-2.62c-2.22-21.07-2.6-42.3-3.3-63.47-2.77-81.68-2.77-81.68-24.58-116.8-2.87-4.62-2.87-4.62-2.67-7.21.84-1.9.84-1.9 2.5-2.88l2.14-.7 2.38-.8 2.57-.83c29.45-10.18 51.5-30.44 65.11-58.28 5.88-12.7 8.06-26.64 10.3-40.36 3.11-19.01 10.68-36.45 26.5-48.28 13.3-9.46 26.08-14.08 42.4-14.01l6.35-.05q4.95-.02 9.9-.01 4.82 0 9.63-.06l2.95.03c8.37-.12 13.76-2.94 20.17-8.17 2.91-3.93 2.68-8.53 2.48-13.24-.99-5.98-3.8-9.9-8.33-13.81-16.47-11.48-43.16-8.86-61.97-5.86-27.59 5.06-55.16 18.29-71.93 41.54-13.85 21.13-18.94 43.33-22.3 68.12-2.6 17.22-13.66 31.45-27.24 41.82-10.86 7.58-22.35 12.5-34.77 16.93l-2.3.87c-7.36 2.66-13 2.57-20.58.38l-3.96-1.1-2.06-.58q-5.28-1.43-10.6-2.7l-3.84-.94c-12.14-2.6-24.06-3.27-36.4-3.18H722c-11.43.07-22.7.39-34 2.25l-2.33.38c-56.26 9.39-110.46 37.84-159.32 66.28a341 341 0 0 1-11.9 6.4 1139 1139 0 0 0-22.56 12.06c-5.33 2.9-10.65 5.86-15.96 8.8a892 892 0 0 1-34.62 18.58l-2.79 1.4c-6.26 3.1-6.26 3.1-8.52 3.1l-.7-2.68A764 764 0 0 0 421 341l-.73-2.38q-1.11-3.6-2.27-7.18l-.68-2.2c-2.12-6.46-5.17-12.66-10.32-17.24-3.97-1.01-7.62-.75-11.23 1.2a72 72 0 0 0-8.15 7.18L386 322h-2l-.78 1.75a29 29 0 0 1-4.74 6.22l-2.1 2.23-2.19 2.3-2.16 2.3c-6.02 6.35-10.12 10.58-19.09 11.69l-4.83.69-2.53.35c-12.73 1.73-25.2 3.6-37.43 7.64-7.66 2.52-13.2 2.3-20.59-1.17l-2.07-.94a445 445 0 0 1-17-8.3c-7.83-4.01-14.5-7.26-23.49-5.76a19 19 0 0 0-7 9c-.26 3-.26 3-.27 6.5v3.9l.02 4.16.01 2.13a221 221 0 0 0 5.28 47.64c1.77 8.2 2.93 16.4 3.96 24.73 7.52 59.73 7.52 59.73 29.42 77.95 8.4 6.16 17.7 9.9 27.58 12.99-1.6 5.32-5.04 9.22-8.44 13.5l-1.9 2.42a541 541 0 0 1-14.15 17.14 429 429 0 0 0-6.95 8.38l-2.25 2.74a638 638 0 0 0-4.62 5.7c-6.5 7.96-13.64 15.33-20.86 22.64l-3.35 3.4c-21.47 21.98-21.47 21.98-33.3 22.32-7.34.23-12.93.55-19.18 4.76l-2.63 1.56c-5.87 6.03-8.76 12.32-9 20.75.35 7.25 2.25 10.42 7.44 15.38 8.96 6.5 18.44 7.12 29.2 6.3 7.61-1.62 14.16-4.94 20.81-8.91L237 667l2 1-.66 1.65c-2.28 6.2-3.98 12.14-1.5 18.52 4.21 7.58 11 10.8 19.04 13.27A62 62 0 0 0 264 703v1c-14.73 1.04-14.73 1.04-19.63-3.12l-1.8-1.7L241 698c-2.69.8-2.69.8-5 2-3.92-1.64-5.25-3.27-7-7-2.13-1.75-2.13-1.75-4-3 1.16-2.85 2.2-4.18 4.56-6.25 3.26-3.68 3.2-5.92 3.44-10.75l-1.72 1.02c-4.69 2.7-8.96 4.75-14.28 5.98l-2.23.55c-10.92 1.77-21.75-.1-30.77-6.55-6.13-5.66-10.34-11.08-11.09-19.5.32-9.26 6.3-15.93 12.66-22 5.67-5 11.98-7.56 19.43-8.5l1 1c6.32 1.1 9.98-1.36 15.16-4.87 3.62-2.71 6.96-5.63 10.26-8.72q3.15-2.92 6.43-5.72c4.05-3.53 7.75-7.31 11.4-11.25l1.94-2.08q6.4-6.93 12.56-14.05l1.48-1.7A62 62 0 0 0 272 567c1.56-1.81 1.56-1.81 3-3h2l.75-1.62A67 67 0 0 1 283 554h2l.75-2.22c1.36-3.02 2.92-4.88 5.2-7.28A48 48 0 0 0 298 535l2-3-3.56-1c-17.82-6.03-30.94-16.63-39.68-33.38a54 54 0 0 1-4.27-13.35 66 66 0 0 0-1.87-6.58c-1.9-6.16-3.05-12.5-4.26-18.82l-.49-2.55-.44-2.3C245 452 245 452 244 449q-.36-2.62-.6-5.24-.19-1.58-.35-3.2l-.36-3.43a357 357 0 0 0-5.29-33.02c-.58-3.02-.98-6.06-1.4-9.11l-1.06-5.87a64 64 0 0 1-.94-12.84c0-2.7-.28-5.3-.56-7.98-.39-4.03-.37-7.33.56-11.31l.27-2.3c.96-6.95 3.55-11 8.73-15.7 3.74-2.5 5.56-2.31 10-2 10.14 2.69 19.4 7.5 28.62 12.39q3.65 1.88 7.38 3.6l2.17 1.16c8.31 3.57 16.61.04 24.8-2.53 4.52-1.38 9.13-2.24 13.8-3.12C332 348 332 348 334 347q2.44-.26 4.87-.44c18.65-1.54 26.5-6.25 38.94-19.87l4.75-5.13 3.72-4.04c4.88-5.15 10.47-9.52 17.72-10.52 5.16 1.62 8.63 5.07 11.26 9.68 4.08 7.84 8.12 16.23 9.8 24.95A63 63 0 0 0 427 349a67 67 0 0 1 2 7.5c.93 4.33 2.01 8.52 4 12.5l2.53-1.27 7.06-3.5A427 427 0 0 0 469 350q7.4-4.2 15-8l2.33-1.4a212 212 0 0 1 8.04-4.54q4.54-2.44 9-5.01a197 197 0 0 1 11.44-5.92c5.4-2.67 10.6-5.47 15.72-8.64 10.2-6.15 21-11.32 31.67-16.57a113 113 0 0 0 5.05-2.8c3.84-2.2 7.78-4.17 11.75-6.12l2.8-1.41q5.13-2.54 10.32-4.96l1.98-.93q6.15-2.86 12.46-5.4c3.2-1.28 6.06-2.56 8.88-4.55 2.74-1.87 4.33-2.22 7.56-2.75 4.77-1.4 9.4-3.13 14-5a165 165 0 0 1 23.28-7.31c2.72-.7 2.72-.7 5.84-1.75a80 80 0 0 1 10.71-2.47C679 254 679 254 681 253q2.44-.26 4.87-.44c4.16-.33 8.21-.88 12.32-1.62A70 70 0 0 1 712 250l2.83-.48c14.63-2.4 30.98.18 45.21 3.76 2.9.7 5.77 1.23 8.71 1.72a84 84 0 0 1 14.25 4c8.23 2.84 13.66 1.3 21.41-1.98a60 60 0 0 1 7.28-2.27c5.52-1.56 10.33-4.27 15.31-7.06 4.82-2.7 4.82-2.7 7-2.7l.56-1.74c1.44-2.25 1.44-2.25 4.65-3.92 4.43-2.45 7-5.83 9.91-9.9l1.58-2.14a71 71 0 0 0 9.3-17.3l1.25-3.11c.84-3.25 1.22-6.4 1.5-9.73A46 46 0 0 1 864 191q.29-2.02.5-4.06c.5-3.94.5-3.94 1.5-6.94q.47-2.9.87-5.81a35 35 0 0 1 4.13-12.2l.37-2.68c.76-4 2.3-7.34 4.13-10.93l1.07-2.12c4.76-9.12 10.53-17.15 18.58-23.66 2.5-2.15 4.44-4.61 6.43-7.22 1.73-1.68 3.1-1.86 5.42-2.38l.81-1.81c1.81-3.34 4.94-4.5 8.2-6.2l2.55-1.55c2.75-1.62 5.58-3.01 8.44-4.44l2.31-1.56c3.11-1.66 5.96-2.27 9.41-2.91C941 94 941 94 943.14 93.1c12.48-4.8 25.56-5.8 38.8-5.73" fill="#E7E8E9"/><path d="M259.24 345.8c5.71 2.64 10.88 6.17 16.07 9.7l2.07 1.4c3.9 2.71 7.54 5.43 10.62 9.1v4c-3.22 3-3.22 3-6 3v2a481 481 0 0 1-6 4l-1 2h-2v2h-2l-1 4h-2l-.69 1.56c-1.3 2.44-1.3 2.44-3.62 5.56-6.15 8.55-9.09 17.8-11.69 27.88h-3a60 60 0 0 1-4.69-14.75l-.76-3.93C243 400 243 400 243 397h-2l-2 3c-2.85-24.77-2.85-24.77-2-29l1.5-1.32c2.37-2.67 1.82-5.2 1.75-8.68l-.05-3.75C240 354 240 354 239 351c6.43-6.9 11.33-8.4 20.24-5.2" fill="#292A26"/><path d="M405 311c5.17 1.92 8.13 6.3 10.55 11.02 5.38 13.66 10.87 28.33 12.45 42.98h-2l-1-1 .44 2.34c1.06 5.99 1.79 11.58 1.56 17.66h-2a391 391 0 0 1-4-6l-2-1v-2l-1.81-.88C415 373 415 373 412 371v-2l-2.22-.85a72 72 0 0 1-7.22-3.53c-6.26-3.16-12.79-4.88-19.56-6.62l-3.56-.91q-4.21-1.07-8.44-2.09c.88-6.75.88-6.75 2-9h2l.62-2.45c1.81-4.67 4.47-8.38 7.38-12.43l1.66-2.37c3.04-4.28 3.04-4.28 4.34-5.75h2v-2c1.61-1.51 1.61-1.51 3.75-3.12l2.11-1.64C399 315 399 315 403 315z" fill="#232521"/><path d="M405.88 308.19a54 54 0 0 1 8.12 5.8q-.48 1-1 2c-2.46-1.14-4.05-2.04-6-4-3.99-.85-7.62-.73-11.24 1.22a73 73 0 0 0-8.13 7.17L386 322h-2l-.79 1.75a28 28 0 0 1-4.72 6.22q-1.05 1.1-2.1 2.23l-2.2 2.3-2.17 2.3c-6 6.36-10.1 10.58-19.08 11.69l-4.82.69-2.55.35c-12.71 1.73-25.18 3.6-37.42 7.64-7.65 2.52-13.2 2.32-20.58-1.17l-2.07-.94a438 438 0 0 1-17-8.3c-7.84-4.01-14.5-7.26-23.5-5.76a19 19 0 0 0-7 9c-.25 3-.25 3-.26 6.5l-.02 3.9q0 2.1.03 4.17l.01 2.12a221 221 0 0 0 5.28 47.64 271 271 0 0 1 3.96 24.74c7.51 59.72 7.51 59.72 29.41 77.94 8.41 6.17 17.7 9.9 27.58 12.99-1.6 5.32-5.02 9.22-8.43 13.5l-1.9 2.42a553 553 0 0 1-14.16 17.15 428 428 0 0 0-6.94 8.37l-2.25 2.74q-2.33 2.84-4.62 5.7c-6.51 7.97-13.63 15.33-20.85 22.64q-1.69 1.7-3.35 3.42C220 627.9 220 627.9 208.19 628.24c-7.35.23-12.94.56-19.2 4.76l-2.62 1.57c-5.87 6.02-8.75 12.3-9 20.74.35 7.25 2.25 10.42 7.44 15.38 8.97 6.5 18.44 7.12 29.19 6.3 7.62-1.62 14.18-4.93 20.82-8.91L237 667l2 1c-.1.28-.1.28-.66 1.65-2.28 6.2-3.99 12.14-1.5 18.52 4.22 7.59 11 10.8 19.03 13.27 2.7.7 5.38 1.2 8.13 1.56v1c-14.72 1.04-14.72 1.04-19.62-3.12q-.9-.83-1.81-1.7-.78-.57-1.57-1.18c-2.69.8-2.69.8-5 2-3.91-1.64-5.25-3.27-7-7-2.12-1.75-2.12-1.75-4-3 1.16-2.85 2.2-4.18 4.56-6.25 3.26-3.68 3.2-5.92 3.44-10.75l-1.72 1.03c-4.7 2.7-8.96 4.74-14.28 5.97l-2.24.55c-10.91 1.77-21.73-.1-30.76-6.55-6.12-5.66-10.34-11.07-11.09-19.5.33-9.26 6.3-15.92 12.66-22 5.68-5 11.99-7.56 19.43-8.5l1 1c6.32 1.1 9.99-1.36 15.16-4.87a122 122 0 0 0 10.25-8.72q3.17-2.92 6.44-5.72c4.06-3.53 7.75-7.31 11.4-11.25l1.94-2.08a557 557 0 0 0 12.56-14.05l1.49-1.7a61 61 0 0 0 6.75-9.61c1.57-1.81 1.57-1.81 3-3h2l.76-1.62A68 68 0 0 1 283 554h2l.75-2.22c1.37-3.02 2.92-4.88 5.19-7.28 2.82-3 5.01-5.91 7.06-9.5q.97-1.49 2-3l-3.56-1c-17.81-6.03-30.93-16.63-39.68-33.38a54 54 0 0 1-4.27-13.34 63 63 0 0 0-1.87-6.6c-1.91-6.15-3.05-12.48-4.27-18.81l-.48-2.55-.44-2.3C245 452 245 452 244 449q-.34-2.62-.6-5.24l-.34-3.2-.37-3.43a357 357 0 0 0-5.28-33.02c-.58-3.02-.99-6.06-1.4-9.11l-1.06-5.87a65 65 0 0 1-.94-12.84c0-2.7-.28-5.3-.56-7.98-.4-4.03-.37-7.33.56-11.31l.26-2.3c.97-6.95 3.56-11 8.74-15.7 3.75-2.5 5.56-2.3 10-2 10.13 2.69 19.4 7.5 28.62 12.39a210 210 0 0 0 7.38 3.6l2.18 1.16c8.3 3.57 16.6.04 24.79-2.53 4.52-1.38 9.13-2.23 13.78-3.12C332 348 332 348 334 347q2.44-.27 4.88-.43c18.63-1.55 26.5-6.26 38.94-19.88l4.74-5.13 3.71-4.04c4.62-4.86 12.56-12.24 19.6-9.33" fill="#E1E2E3"/><path d="M803 579c10.42 3.74 20.34 12.02 25.5 21.85 1.31 3.02 2.44 6.04 3.5 9.15l.97 2.72c2.33 7.35 2.59 14.61 2.03 22.28-1.7 1.7-4.11 1.41-6.44 1.69-6.58 1.02-11.13 3.6-16.56 7.31l-2 1v-2h-6l-.06-5.12-.04-2.89c.1-2.99.1-2.99.6-5.8.85-5.43.69-10.88.69-16.38v-3.75A229 229 0 0 0 803 579" fill="#ECEEEE"/><path d="m371 557 5 2c-4.1 4.89-8.35 9.51-12.88 14l-1.87 1.87c-3.6 3.56-7.26 6.96-11.13 10.23-3.55 3.18-6.87 6.61-10.2 10.02-3.48 3.53-7.1 6.82-10.85 10.06-3.56 3.13-6.96 6.42-10.38 9.7a258 258 0 0 1-16.95 14.91c-2.7 2.18-5.31 4.42-7.93 6.7-18.96 16.49-18.96 16.49-26.16 16.83l-2.58.12-2.69.12-2.72.13-6.66.31a87 87 0 0 1 12.31-10.5 461 461 0 0 0 18.82-14.71q6.46-5.3 13.06-10.41a416 416 0 0 0 14.91-12.25 314 314 0 0 1 12.09-9.75c4.99-3.88 9.74-7.93 14.4-12.21 3.37-3.03 6.88-5.85 10.4-8.7 4.11-3.37 8.13-6.84 12.15-10.31A296 296 0 0 1 371 557" fill="#E9E9ED"/><path d="M329.56 472.88c2.6 2.26 3.52 3.82 4.44 7.12-9.74 5.64-22.04 8.92-33.16 6.24-13.22-3.78-13.22-3.78-17.78-9.8C282 474 282 474 283 471c12.3-6.6 34.76-5 46.56 1.88" fill="#161815"/><path d="m404.19 451.88 3.17-.01C410 452 410 452 412 453v2l-5.31 3-3 1.69c-2.7 1.3-2.7 1.3-5.7 1.3v2a212 212 0 0 1-17 8q-1.31.56-2.7 1.12l-2.91 1.14-2.73 1.07c-2.95.75-4.75.5-7.65-.32.25-5.25.25-5.25 2.4-7.4l1.67-1.29L372 463v-3c2.79-.98 5.49-1.9 8.4-2.44A40 40 0 0 0 388 455c5.5-2.33 10.2-3.13 16.19-3.12" fill="#141713"/><path d="M850 228h2l1 3c-13.65 14.95-29.71 23.14-48.5 29.94l-2.54.93c-7.47 2.6-13.18 2.6-20.84.38l-3.96-1.1-2.06-.58A221 221 0 0 0 741 254l1.94-.38L745 253l1-2c4.37-.26 7.82.8 12 2q3.59.75 7.19 1.44c16.62 3.23 16.62 3.23 22.45 5.66 5.77 2.2 11.44-.82 16.77-3.08a60 60 0 0 1 7.28-2.27c5.52-1.56 10.33-4.27 15.31-7.06 4.82-2.69 4.82-2.69 7-2.69l.56-1.75c1.74-2.72 3.69-3.45 6.49-4.9 3.22-2.23 5.23-5.35 7.47-8.52z" fill="#E2E2E4"/><path d="m237 667 2 1-.66 1.65c-2.28 6.2-3.98 12.13-1.5 18.52 4.22 7.58 11 10.81 19.04 13.27 2.69.71 5.37 1.21 8.12 1.56v1c-14.73 1.04-14.73 1.04-19.62-3.12l-1.81-1.69L241 698c-2.69.81-2.69.81-5 2-3.92-1.64-5.25-3.27-7-7-2.12-1.75-2.12-1.75-4-3 1.16-2.85 2.2-4.18 4.56-6.25 3.26-3.68 3.19-5.92 3.44-10.75l-7 1a65 65 0 0 1 11-7" fill="#D6D6D7"/><path d="m359.5 485 1.5 1c-.43 4.59-.7 6.85-4 10q-.06 2.5 0 5c-2 2-2 2-5.12 2.12L349 503l-1.19-2.75c-1.89-3.39-3.67-5.04-6.81-7.25.33-3.09.56-4.59 2.88-6.75A17.6 17.6 0 0 1 359.5 485" fill="#646465"/><path d="M240 404h1a379 379 0 0 1 5.94 34.81c2.22 17.51 5.45 34.51 11.24 51.21C259 493 259 493 258 496c-3.71-3.12-4.5-5.23-5-10a88 88 0 0 0-2.31-8c-1.92-6.28-3.1-12.69-4.33-19.13l-.49-2.55-.44-2.3C245 452 245 452 244 449q-.38-2.8-.68-5.63l-.38-3.39-.75-7.01a153 153 0 0 0-2.31-15.49c-1.03-4.84-.67-8.61.12-13.48" fill="#E1E0E1"/><path d="M587.16 676.9h4.93l12.9.03 13.2.02L644 677v1h-52v2l-22.12.78-10.27.36-11.85.42-3.67.13q-10.55.38-21.09.31c6.56-4.38 16.21-3.27 23.87-3.5l6.74-.22 3-.09c2.6-.15 5.12-.4 7.71-.7 7.6-.79 15.22-.62 22.84-.59" fill="#E0E3E0"/><path d="M258 495c2.55 2.31 4.04 4.68 5.69 7.69 9.06 15.22 24.2 21.85 40.31 27.31-1.4 4.04-3.31 6.94-6 10.25l-2.12 2.64C294 545 294 545 292 546c.62-3.76 2.35-6.19 4.56-9.25l1.94-2.7L300 532l-3.56-1c-16.35-5.54-30.48-15.32-38.44-31-.74-2.26-.74-2.26-1-4z" fill="#E6E7E7"/><path d="m295 469 .81 3.69c.92 3.57 1.8 6.42 4.19 9.31a46 46 0 0 0 7 3v1c-8.33-.17-16.42-1.39-22.55-7.56-1.14-1.56-1.14-1.56-2.45-4.44l1-3c4.31-1.34 7.48-2 12-2" fill="#E4C969"/><path d="M378 461c3 4.22 3 4.22 3 7l3 1c-2.8 1.87-5.24 3-8.38 4.19l-2.83 1.1c-3.03.77-4.82.56-7.79-.29-.06-2.56-.06-2.56 1-6 7.03-7 7.03-7 12-7" fill="#D3BC7E"/><path d="M405.88 308.19a54 54 0 0 1 8.12 5.8q-.48 1-1 2c-2.46-1.14-4.05-2.04-6-4-3.99-.85-7.62-.73-11.24 1.22a73 73 0 0 0-8.13 7.17L386 322h-2l-.76 1.75a29 29 0 0 1-4.94 6.36l-2.17 2.29-2.25 2.35q-1.12 1.2-2.3 2.4A772 772 0 0 1 366 343l-2-2c5.2-6.37 5.2-6.37 8.44-8.93a41 41 0 0 0 5.75-5.7C397 304.54 397 304.54 405.88 308.2" fill="#DEDEDF"/><path d="m918 170 3 1-.84 2c-1.4 3.63-2.61 7.29-3.78 11l-.7 2.12c-1.19 3.76-1.83 6.94-1.68 10.88l-2 7v2.5c0 3.41-.99 6.25-2 9.5l-.94 3.88L908 223l-3 1 .37-1.99q1.4-7.38 2.52-14.81c1.97-12.85 3.96-25.57 10.11-37.2" fill="#E1E2E3"/><path d="m371 557 5 2a203 203 0 0 1-13.38 14.44l-1.94 1.93L356 580l-2-4 2-2.31c2-2.69 2-2.69 2-5.69 2.12-2.02 4.23-3.86 6.5-5.69l1.88-1.55q2.3-1.89 4.62-3.76" fill="#E2E4E4"/><path d="m969.87 133.88 2.47.01h2.79l3.03.01 3.09.01 9.82.03 6.63.01 16.3.05-2 4-3.75.06-2.11.04c-2.14-.1-2.14-.1-3.9-.6-2.81-.63-5.43-.63-8.32-.63l-3.57-.01-3.72.02-3.7-.02-3.58.01h-3.25A62 62 0 0 0 967 138c0-3.94 0-3.94 2.87-4.12" fill="#E3E4E5"/><path d="m363 342 2 1c-3.41 4.38-7.12 4.93-12.35 5.63l-2.47.37q-3.9.58-7.8 1.12l-7.73 1.14-4.97.73c-5.02.72-9.96 1.62-14.88 2.87-1.8.14-1.8.14-4.8-1.86 6.46-2.14 12.8-3.58 19.53-4.57C332 348 332 348 334 347q2.43-.26 4.88-.44c17.98-1.49 17.98-1.49 24.12-4.56" fill="#E6E8E7"/><path d="M745 251c4.77-.23 8.44.68 13 2q3.59.75 7.19 1.44c9.52 1.85 18.8 3.92 27.81 7.56l-2 2c-2.04-.1-2.04-.1-4.62-.62l-3-.61a506 506 0 0 1-13.18-3.23c-9.61-2.44-19.33-4.53-29.2-5.54l4-1z" fill="#DDDCE0"/><path d="M270 640v3c1.41 3.14 2.56 5.56 5 8-3.08 2.05-3.94 2.27-7.45 2.41l-2.57.12-2.67.09-2.7.12q-3.3.14-6.61.26a85 85 0 0 1 11.31-9.81l1.67-1.23z" fill="#DFE2DE"/><path d="M234 357h2l.11 2.8a393 393 0 0 0 2.87 31.02c.76 6.12 1.17 12.02 1.02 18.18l-2-1c-1.7-6.08-2.35-12.01-2.75-18.3-.25-2.7-.25-2.7-.78-4.8a21 21 0 0 1-.47-5.96c.05-3.59-.18-7.06-.56-10.63-.4-3.98-.39-7.38.56-11.31" fill="#E2E5E1"/><path d="M240 404h1a380 380 0 0 1 5.81 33l.41 3.13.36 2.93.32 2.6c.1 2.34-.21 4.11-.9 6.34v-3h-2a197 197 0 0 1-3.56-20l-.38-2.83a729 729 0 0 1-1.39-10.75l-.29-2.42-.25-2.12c-.17-2.42.19-4.55.87-6.88" fill="#DFE0DF"/><path d="m499 567 2 1-2.23 1.61-2.96 2.14-2.92 2.11c-7.76 5.74-7.76 5.74-8.77 8.76-1.12 2.38-1.12 2.38-4.24 3.69-4.13.73-7.71.84-11.88.69 4.59-3.9 9.6-7.05 14.69-10.25l2.62-1.68 2.51-1.59 2.29-1.44C492 571 492 571 494 571v-2c2.38-1.06 2.38-1.06 5-2" fill="#060806"/><path d="m240 396 3 1c.88 2.19.88 2.19 1.56 5l.75 3.01.69 2.99.6 2.55q1.29 5.71 2.4 11.45l-4-3-2 2-1.5-8-.43-2.25c-.92-5-1.21-9.67-1.07-14.75" fill="#191C18"/><path d="M871 165c1.43 3.88.61 6.97-.21 10.95l-.41 2-1.32 6.3-.88 4.28L866 199h-2c-1.01-3.15-.87-4.85 0-8q.27-2.03.5-4.06c.5-3.94.5-3.94 1.5-6.94q.7-4.59 1.3-9.19c.73-2.92 1.37-3.98 3.7-5.81" fill="#EDEDEF"/><path d="M745 251v2l-33-1 1-2c10.21-2.9 21.78-.9 32 1" fill="#F2F2F5"/><path d="m329 471-1 7h-1l-1-6c-8.2-2.74-15.58-3.38-24.19-3.19l-3.46.04q-4.17.06-8.35.15l1-2c10.98-3.22 28.4-2.32 38 4" fill="#030301"/><path d="M709.64 250.73c4.6.53 9.23.65 13.86.83l3.07.13 7.43.31v1l-2.2.08c-13.95.48-27.88 1-41.8 1.92v-2c6.84-2.57 12.48-3.24 19.64-2.27" fill="#D3D3D5"/><path d="M412 451v2l-2.61-.14c-9.41-.29-18.18.74-26.57 5.34-1.82.8-1.82.8-4.82-.2 8.46-6.08 23.87-12.06 34-7" fill="#020402"/><path d="m937 148 3 1a16 16 0 0 1-5.31 4.12c-3.4 2.38-5.08 5.15-7.26 8.63C926 164 926 164 924.38 166.1 923 168 923 168 922 171l-3 1c1.49-9.65 8.99-16.71 16-23z" fill="#ECEDEE"/><path d="M240 371h1l1 24c-4-3-4-3-4.45-4.99l.06-2.24.04-2.43.1-2.53.05-2.56q.08-3.12.2-6.25h2z" fill="#1A1C19"/><path d="m230 613 2 2-8.67 6.91-1.88 1.49-1.71 1.36c-4.26 3.03-7.25 3.47-12.49 3.36l-3.55-.05-2.7-.07v-1l2.24-.19c10.99-1.33 18.64-6.57 26.76-13.81" fill="#DFDFDF"/><path d="M1031 111h1c1.59 9.72 1.59 9.72-.56 14.38-5.05 5.43-9.77 8.52-16.44 11.62l-2-2 2.45-1.32c11.66-6.5 11.66-6.5 14.55-11.68.66-3.67.93-7.27 1-11" fill="#E1E3E1"/><path d="M412 315c4.73 4.07 6.73 8.25 9 14l1.02 2.22c.92 2.09.92 2.09 1.98 5.78-1.43 2.23-1.43 2.23-3 4l-1.21-3.73-1.6-4.89-.79-2.45A88 88 0 0 0 412 317z" fill="#E7E9E8"/><path d="M234 357h2c.61 9.34 1.18 18.63 1 28-4.59-4.59-4.12-15.99-4.19-22.31C233 359 233 359 234 357" fill="#EFF1EF"/><path d="M378.88 466.31c1.12 1.7 1.12 1.7 1.12 3.7-4.12 2-7.45 2.17-12 2 .57-2.88.87-3.87 3-6 5.32-1.49 5.32-1.49 7.88.3" fill="#E4C160"/><path d="m243 339 2 2-2.38 2.25c-3.9 4.09-4.85 6.77-5.03 12.39l-.12 3.24-.09 3.37-.12 3.41L237 374h-1q-.42-6.06-.75-12.12l-.25-3.47c-.49-9.5-.49-9.5 1.84-13.07 2.01-2.17 3.99-4.33 6.16-6.34" fill="#D2D3D4"/><path d="M384 470v4h-2l1 4-7 1v-4l-3-2 3.81-1.5 2.15-.84C381 470 381 470 384 470" fill="#1F1711"/><path d="M814 255v2l-7.56 2.94-2.14.84A50 50 0 0 1 791 264c3.86-3.74 7.57-4.97 12.63-6.34 2.37-.66 2.37-.66 5.31-1.85C811 255 811 255 814 255" fill="#E8E8EB"/><path d="M244 449h3c3.23 7.16 4.28 14.21 4 22-2-1-2-1-2.58-2.72l-.97-4.62-.51-2.54-1.04-4.92-.45-2.22C245 452 245 452 244 449" fill="#E4E4E5"/><path d="M383 458v8h3l-2 4c-5.57-5.14-5.57-5.14-6-9l-5 2-1-3c3.83-1.8 6.78-2.2 11-2" fill="#221B0F"/><path d="M251 592h2c-1.48 3.44-3.43 5.69-6.06 8.33l-2.42 2.42-2.52 2.5-2.52 2.55-2.42 2.4-2.21 2.21C233 614 233 614 231 614c1.5-3.68 3.62-5.63 6.62-8.19a105 105 0 0 0 11.79-12.16z" fill="#E6E7E6"/><path d="m494 336 2 1c-3.15 3.51-6.46 5.55-10.62 7.75l-3.48 1.86C479 348 479 348 477 348c.69-1.88.69-1.88 2-4 2.31-1.06 2.31-1.06 5-2 2.62-1.51 5.15-3.1 7.69-4.75z" fill="#EBEBEE"/><path d="M882 616h1l.18 3.84.26 5.1.12 2.52a167 167 0 0 0 1.33 14.63c.15 2.66-.62 4.6-1.89 6.91h-1z" fill="#F3F6F6"/><path d="m230 674-3 2-1.69 1.56c-3.37 2.1-6.36 2.06-10.31 2.44l-3 1-3-2h5v-2c10.37-3.44 10.37-3.44 16-3" fill="#E4E4E5"/><path d="M328 473c2.99 1.1 3.85 1.68 5.25 4.62L334 480c-2.81 1.56-2.81 1.56-6 3l-3-1 2-3q.59-2.99 1-6" fill="#BAAD71"/><path d="M313 354v2c-6.11 1.86-11.59 3.43-18 3v-2c6.11-1.86 11.59-3.43 18-3" fill="#D7DCDA"/><path d="M864 199h2q-.18 2.13-.38 4.25l-.21 2.39A19 19 0 0 1 863 212l-3-2 .94-2.75c.6-1.84 1.17-3.69 1.62-5.56C863 200 863 200 864 199" fill="#E2E1E3"/><path d="m945 92 2 2h-2v2c-5.1 1.91-9.46 3.43-15 3 2-3 2-3 4.02-3.66l2.36-.4A26 26 0 0 0 945 92" fill="#EBECEC"/><path d="M803 579c3.94 1.31 6.23 2.92 9 6h-3l-2 3-3-1z" fill="#E3E6E6"/><path d="M238 668h2l-.44 2.23-.56 2.96-.56 2.92c-.44 2.89-.44 2.89-.32 5.63L238 684l-3 2a39.6 39.6 0 0 1 3-18" fill="#282A29"/><path d="M895 246c1 2 1 2-.12 5.81-1.6 4.06-3.6 6.36-6.88 9.19l-2-2 1.46-2.08 1.92-2.73 1.89-2.71q1.9-2.72 3.73-5.48" fill="#DEDDDF"/><path d="m918 170 3 1-.81 2a541 541 0 0 0-4.19 11h-3l1.38-4.75.77-2.67A40 40 0 0 1 918 170" fill="#D6D8D6"/><path d="m908 110 2 1a19 19 0 0 1-5.44 7.31l-1.81 1.62L901 121l-3-1c4.79-6.25 4.79-6.25 9-7z" fill="#DEDEDD"/><path d="M405.88 308.19a54 54 0 0 1 8.12 5.8l-1 2c-2.46-1.14-4.05-2.04-6-4q-3.48-.6-7-1v-3c3-1 3-1 5.88.2" fill="#D4D7D5"/><path d="m311 685 2 1c-1 3-1 3-2.85 4.17l-2.21 1.02-2.23 1.04-1.71.77-1-4q1.93-1.05 3.88-2.06l2.17-1.16z" fill="#171819"/><path d="m262 580 3 1-11 12-2-2z" fill="#DBDDDC"/><path d="m378 461-1 5c-7.43 2.14-7.43 2.14-11 3 7.78-8 7.78-8 12-8" fill="#D4BB6E"/><path d="M845 348h1l1.5 6.62.84 3.73c.6 3.32.78 6.29.66 9.65h-2c-2.08-6.76-2.21-12.96-2-20" fill="#28292B"/><path d="M577 294v2l-13 6v-3c8.55-5 8.55-5 13-5" fill="#DEDFDD"/><path d="m410 455 2 1c-12 8-12 8-14.19 7.62L396 463h2v-2q2.92-1.55 5.88-3.06l3.3-1.73z" fill="#040704"/><path d="M245 434h1l2 18-1-3h-2c-.76-5.23-1.21-9.77 0-15" fill="#C1C1C3"/><path d="m847 351 3 1 .18 1.86.26 2.45.24 2.43C851 361 851 361 852 364l-3 2-1-4.69-.56-2.63A39 39 0 0 1 847 351" fill="#EFF1F3"/><path d="M831 297v2l-2 1 .44 1.75L831 308l-2 1c-4.02-6.33-4.02-6.33-3.94-9.38 1.42-2.45 3.23-2.62 5.94-2.62" fill="#D8DADB"/><path d="m178 664 2.19 2.25c2.5 2.44 5.06 4.6 7.81 6.75l2 2-3 1c-2.01-1.26-2.01-1.26-4.12-3.12l-2.14-1.83c-2-2.36-2.39-4-2.74-7.05" fill="#DBDDDC"/><path d="M879 577c3.3 6.15 2.87 9.4 1 16h-1l-.56-7.44-.17-2.14q-.19-2.7-.27-5.42z" fill="#E2E3E3"/><path d="M251 467c2.41 4.14 4.51 9.45 3.55 14.25L254 483c-2.3-3.56-4.05-6.85-5-11 .88-2.88.88-2.88 2-5" fill="#D0D0D3"/><path d="M850 365c2.54 3.81 3.19 6.34 2.66 10.89l-.6 2.92-.59 2.96L851 384h-1l-.56-8.94-.17-2.57-.15-2.45-.14-2.27C849 366 849 366 850 365" fill="#D3D4D6"/><path d="M239 352c2.49 3.74 2.21 5.74 2.12 10.19l-.05 3.85L241 369l-4 2z" fill="#131514"/><path d="M405 309v1l-1.76.52c-5.04 1.56-9 3.33-13.24 6.48 0-3 0-3 1.25-4.39 4.79-3.56 7.81-4.13 13.75-3.61" fill="#E3E3E6"/><path d="M406 691c-2.68 2.68-4 3-7.88 3.25A64 64 0 0 1 388 693v-1a135 135 0 0 1 18-1" fill="#DEE0DF"/><path d="m204 624 4 3-15 3-1-2z" fill="#ECECEE"/><path d="M422 347h2c1.28 3.85 1.07 6.95 1 11h-2c-1.63-4.12-2.26-6.71-1-11" fill="#181918"/><path d="M412 318c3.33 2.69 4.52 6.07 6 10v3h-3q-.76-2.12-1.5-4.25l-.84-2.39C412 322 412 322 412 318" fill="#1A1C19"/><path d="m924 160 3 1-2 4-1.44 3.19C922 171 922 171 919 172c.58-4.75 2.55-7.97 5-12" fill="#E2E4E3"/><path d="m1028 122 1 3-3.25 2.88-1.83 1.61c-3.66 2.88-6.26 3.77-10.92 3.51l1.71-.82a74 74 0 0 0 6.91-4.12l2.36-1.52C1026 125 1026 125 1028 122" fill="#070807"/><path d="M1028 106c1.49 1.14 1.49 1.14 3 3 .29 2.7.29 2.7.19 5.69l-.08 3.01-.11 2.3h-2v-6h-1z" fill="#0B0B0C"/><path d="m855 457 2 1c.41 2.5.41 2.5.62 5.56l.23 3.07.15 2.37-3 1z" fill="#F0F1F3"/><path d="M240 404h1q.55 2.63 1.06 5.25l.6 2.95c.32 2.67.2 4.29-.66 6.8l-2-1c-1.11-4.67-1.34-9.37 0-14" fill="#CFD2CD"/><path d="m363 342 2 1c-1.38 2-1.38 2-4 4a57 57 0 0 1-10 0l1-2c1.99-.26 3.99-.51 5.99-.66C360 344 360 344 363 342" fill="#ECEDEC"/><path d="M390 316c-1.42 3.54-2.68 4.34-6 6-1.25 2.12-1.25 2.12-2 4h-3l2.81-3.31 1.58-1.87c4.25-4.82 4.25-4.82 6.61-4.82" fill="#CCCDCF"/><path d="M998 135h14l-2 1-1 2q-2.19-.17-4.38-.38l-2.46-.21C1000 137 1000 137 998 135" fill="#F2F4F4"/><path d="M1031 111h1c1.76 10.76 1.76 10.76-.94 14.69L1029 128l-3-1 1.94-1.81c2.93-4.54 2.87-8.89 3.06-14.19" fill="#C2C4C0"/><path d="M240 371h1v11l-3 1v-9h2z" fill="#111310"/><path d="m907 213 3 1c-.39 6.05-.39 6.05-1 8l-4 2z" fill="#D7D7D7"/><path d="M880 141h2c-.61 4.13-2.04 7.33-4 11l-2-1 1.44-4.44.81-2.49C879 142 879 142 880 141" fill="#EBEBEE"/><path d="M953.75 91.25q2.13.34 4.25.75a20 20 0 0 1-8.75 2.63l-2.42.22L945 95c2.63-3.77 4.37-4.27 8.75-3.75" fill="#D8D9D8"/><path d="M478 348c-3.12 2.52-6.38 4.27-10 6 .12-1.81.12-1.81 1-4 5.19-3.27 5.19-3.27 9-2" fill="#DFDFE1"/><path d="M845 340c1.86 2.8 2.34 3.84 2.75 7l.3 2.06C848 351 848 351 846 354l-1.06-5.31-.6-2.99c-.34-2.7-.34-2.7.66-5.7" fill="#D9DBDC"/><path d="m885 134 3 1-5 8-1-2-2-1z" fill="#E0E0E3"/><path d="M967 89v2c-3.98 1.33-7.85 1.07-12 1 1-2 1-2 2.74-2.67l4.25-1.06C964 88 964 88 967 89" fill="#EAECEC"/><path d="m298 481 2.25 1.38A102 102 0 0 0 307 486a316 316 0 0 1-5.31-.38l-2.99-.21C296 485 296 485 293 483h5z" fill="#C5B57D"/><path d="M244 413h2l3 9c-2.5-2.25-2.5-2.25-5-5zm-1 4 1 4Z" fill="#1E221D"/><path d="M832 296h8c-1 2-1 2-3.29 2.85l-2.77.77-2.79.79-2.15.59v-2h2z" fill="#EAEBEC"/><path d="M871 165c1.47 3.81.43 6.29-1 10l-1-2-2-1c1.07-2.92 1.78-4.78 4-7" fill="#F1F1F4"/><path d="m240 396 3 1-1 10c-2.68-4.02-2.16-6.24-2-11" fill="#121511"/><path d="M888 260c-1.53 3.44-3.6 6.12-6 9l-2-1c4.54-8 4.54-8 8-8" fill="#EBEBED"/><path d="m862 213 2 3c-1.43 4.28-2.19 6.46-6 9 .66-4.39 2.19-7.98 4-12" fill="#1B1C1E"/><path d="M909 192h1l.12 5.25.08 2.95c-.2 2.82-.75 4.41-2.2 6.8-1.4-5.46-.43-9.69 1-15" fill="#1A1A1E"/><path d="M1031 108h2c1.91 3.51 2.04 4.81 1.12 8.81L1033 120h-1z" fill="#EFF2F0"/><path d="M312 701h9l-1 2c-2.72.41-2.72.41-6.06.62l-3.35.23-2.59.15 4-1z" fill="#E7E8E6"/><path d="M175 652h1q.55 2.37 1.06 4.75l.6 2.67A13 13 0 0 1 177 666c-1.95-2.42-3.01-4.19-2.98-7.34q.39-3.34.98-6.66" fill="#EDF0EF"/><path d="m600 281 2 2c-6.62 4-6.62 4-10 4v-2z" fill="#EFECEE"/><path d="M860 211h3c-1.48 5.66-1.48 5.66-4.12 7.38L857 219c1.88-6.88 1.88-6.88 3-8" fill="#F0EEF1"/><path d="M239 677h1a61 61 0 0 1 1 7l-2 2h-3v-5h2z" fill="#0A0C0C"/><path d="m377 648 2 1-1 1 4 2-11 1c3.75-3.88 3.75-3.88 6-5" fill="#E0E3E1"/><path d="M465 355c0 3 0 3-1.25 4.62-1.92 1.52-3.36 1.97-5.75 2.38v-3z" fill="#1D1D1D"/><path d="M641 267c-3.28 2.19-6.21 3-10 4 1-3 1-3 3.31-4.25 2.79-.78 4.02-.74 6.69.25" fill="#E3E3E7"/><path d="m323 681 1 2-2.44.81L319 685l-1 3-3 1-2-2z" fill="#B4B5B5"/><path d="m261 647 3 1-2 3h6v1h-10z" fill="#F1F5F0"/><path d="m366 569 3 1-8 7-2-1z" fill="#0B0B0C"/><path d="m263 347 9 1-2 3c-2.38-.31-2.38-.31-5-1z" fill="#0B0C0A"/><path d="m798 259 2 1v2c-4.43 2.09-4.43 2.09-7.31 1.62L791 263c4.75-2.88 4.75-2.88 7-4" fill="#F0F0F2"/><path d="m282 626 4 2-5 4-2-1z" fill="#0B0B0A"/><path d="m859 500 2 1c.62 2.56.62 2.56 1 5h-2l-1 4-.56-4.44-.32-2.49L858 501z" fill="#DCDCDF"/><path d="M286 472h2c1 3 1 3 0 6l-4-1v-3h2z" fill="#EBC863"/><path d="M304 357c-2 2-2 2-5.62 2.12L295 359v-2c3.07-1.53 5.7-.55 9 0" fill="#CCD0D2"/><path d="M419 332c3 1 3 1 4.19 3.06L424 337l-3 4z" fill="#D6D6D8"/><path d="m770.13 256.25 2.88.75q.48.99 1 2l-10-1c3-2 3-2 6.12-1.75" fill="#D4D4D7"/><path d="M270 640v3h-2l-.88 1.94C266 647 266 647 264 648l-2-2z" fill="#E0E4DF"/><path d="m230 613 2 2-8 6c1.15-4.59 2.29-5.34 6-8" fill="#D9D9D9"/><path d="M330 592v3l-1.94.88C326 597 326 597 325 599l-2-2z" fill="#E2E3E3"/><path d="M299 480h4v3h5l-3 2c-2.62-.69-2.62-.69-5-2z" fill="#261F13"/><path d="M239 369h1v5h-2v7h-1q-.08-2.43-.12-4.88l-.08-2.74c.2-2.38.2-2.38 2.2-4.38" fill="#212321"/><path d="M429 361c2.17 2.17 2.73 3 3 6-1.44 2.25-1.44 2.25-3 4-1.12-7.75-1.12-7.75 0-10" fill="#DEE1DC"/><path d="M253 337v2l-9 1v-2c2.96-1.48 5.74-1.06 9-1" fill="#EDEEF0"/><path d="M400 311h5c-.69 1.94-.69 1.94-2 4-2.62.75-2.62.75-5 1z" fill="#0C0C0C"/><path d="M745 251v2h-11c6.68-3.34 6.68-3.34 11-2" fill="#EBEAEB"/><path d="M914 183h1l-1 9h-2c-.25-5.62-.25-5.62 2-9" fill="#EAEDEA"/><path d="M805 643h5l1 3-2 2h-2z" fill="#B1B3B4"/><path d="m190 629 3 1-7 5v-3c1.81-1.75 1.81-1.75 4-3" fill="#D6D9D7"/><path d="M285 478h5v2h2l1 3c-3.38-1.19-5.65-2.28-8-5" fill="#CAB069"/><path d="M967 135h7c-1.19 1.56-1.19 1.56-3 3-2.69-.31-2.69-.31-5-1z" fill="#F3F3F5"/><path d="m257 586 2 2-6 5c0-3 0-3 2-5.19z" fill="#D3D4D4"/><path d="M466 585c3 1 3 1 4 3l-5 2-2-2z" fill="#242723"/><path d="m613 529 2 1c-1.12 2-1.12 2-3 4-3.19.25-3.19.25-6 0 2.3-1.74 4.6-3.4 7-5" fill="#E3E2E2"/><path d="M267 344c3.34.56 6.03 1.35 9 3-1.69.69-1.69.69-4 1-2.75-1.38-2.75-1.38-5-3z" fill="#E7E8EB"/><path d="m243 339 2 2-7 7c.48-4.31 1.75-6.17 5-9" fill="#DADBDB"/><path d="m773 257 8 2-1 2-7-1z" fill="#E3E3E5"/></svg>