<svg style="background:transparent" version="1.1" xmlns="http://www.w3.org/2000/svg" viewBox="0 0 1248 704"><path d="M515.38 25.27c4.78 3.06 9.73 6.57 13.62 10.73v2l1.93.31q1.04.33 2.07.7l1 3 1.74.38c3.3.88 4.95 2.88 7.38 5.23A121 121 0 0 0 559 60q3.08 2.13 6.12 4.31l2.82 2L570 68v2a22 22 0 0 0 10.67 2.15l3.26-.04 3.38-.06q3.3-.06 6.61-.09l2.95-.06c3.07.1 6.04.45 9.08.86 3.27.36 6.52.32 9.81.3l2.16-.02 9.01-.07 6.64-.05h2.18c5.54 0 11.01.37 16.52.95 5.83.25 9.03-1.53 13.73-4.88l3.18-2.07C672 65 672 65 673.41 63.53c1.81-1.75 3.6-2.7 5.84-3.85a49 49 0 0 0 10.07-7.28 40 40 0 0 1 6.86-4.4 172 172 0 0 0 12.63-7.88l3.2-2.12 2.6-1.77q1.41-.95 2.9-1.92l2.71-1.83c5.7-3.04 11.61-2.89 17.78-1.48a30 30 0 0 1 13.37 13.81c.86 4.4 1 8.73.63 13.2l-1 1a188 188 0 0 0-.5 7.11c-.28 5.02-.78 9.91-1.5 14.88v3.81c0 3.2 0 3.2-1 5.2q-.07 2.73 0 5.5c.11 5.26.11 5.26-1 7.5a66 66 0 0 0-.25 4.22l-.09 2.65-.1 2.87c-.3 7.97-.84 15.87-1.63 23.81a164 164 0 0 0-.9 21.27C744 160 744 160 743 161c-.08 2.81 0 5.61.06 8.43C743 172 743 172 742 174c-.07 2.76 0 5.51.06 8.27-.06 2.73-.06 2.73-.56 4.52-.64 2.8-.6 5.38-.57 8.25l.03 3.5.04 3.64.06 7.17.03 3.21C741 215 741 215 740 216q-.74 4.19-1.38 8.37C735.33 244.6 735.33 244.6 728 252l-2.75 3.43c-4.7 5.5-10.64 10.57-17.25 13.57.47 4.75 1.56 7.22 4.68 10.81 4.84 5.76 8.88 11.84 12.82 18.25 2.58 4.17 5.51 8.05 8.5 11.94a93 93 0 0 1 10.06 16.18c1.61 3.34 3.61 5.93 5.94 8.82a197 197 0 0 1 8.1 15.17 208 208 0 0 0 2.4 4.7A91 91 0 0 1 768 377a94 94 0 0 0 2 7.12c1.05 3.67 1.4 7.26 1.71 11.05.31 3.08.83 6.1 1.35 9.14.9 6.16 1.2 12.22 1.25 18.44l.05 2.61c0 6.31-1.27 11.7-3.36 17.64q3.97.82 7.98 1.47c9.98 1.84 17.2 6.1 23.02 14.53q2.06 3.45 4 7l1.11 1.88c2.55 4.57 3.42 8.5 3.71 13.72.18 2.4.18 2.4.66 4.78 2.92 14.72.66 27.72-3.63 41.76-1.36 4.54-2.62 9.1-3.89 13.66A82 82 0 0 1 801 550l-1 2.5a158 158 0 0 1-2.19 5.18l-.8 2.32 1 2c2.74.78 5.44 1.45 8.24 2.06l2.31.52q5.7 1.28 11.44 2.42l1.97.46c25 5.65 55.13 5.87 78.95-4.56 2.08-.9 2.08-.9 5.33-1.9 3.32-1.2 5.83-3.02 8.75-5q1.93-.9 3.87-1.75c9.37-4.65 14.37-12.77 18.13-22.25 4.15-12.6 2.67-25.83-2-38l-.87-2.26A42 42 0 0 0 930 484v-13l-.38-2.63c.68-6.13 4.82-11.15 9.2-15.37 4.1-2.58 7.34-3.4 12.18-3 12.26 3.47 19.84 16.73 26 27a51 51 0 0 1 4 11l.51 2.04c6.82 27.34 5.67 51.35-8.73 76.05C966.4 576.17 958.34 583.7 949 591l-2.39 1.93c-7.72 6.1-16.6 9.33-25.74 12.7l-3.2 1.2c-20 7.41-20 7.41-30.67 7.17q-2.52.42-5 1c-3.76.86-7.16 1-11 1l-1 1q-3.23 0-6.47-.03c-2.4.03-4.7.23-7.1.53-9.1 1.08-17.4-.09-26.43-1.5l-3.37-.5c-27.08-4.1-27.08-4.1-39.63-8.5l-3.38-1.13L778 604c-2.88-.38-2.88-.38-6 0-5.1 4.08-9.32 9.97-12.5 15.68-1.66 2.55-3.63 4.06-6 5.91-2.57 2.41-3.92 5.3-5.5 8.41l2.08 1.97 2.73 2.65 2.71 2.6c5.94 6.65 6.58 13.4 6.41 21.96-1.72 5.18-5.2 8.61-9.62 11.7-4.78 1.62-9.28 1.93-14.3 2.12l-2.1.08c-9.05.31-17.42.5-25.9-3.08l.83 1.58c3.18 6.47 5.3 13.32 3.68 20.57-1.42 3.71-3.16 5.84-6.52 7.85-2.7.42-2.7.42-5.82.5l-3.55.1-3.83.04-3.96.06q-4.14.06-8.28.07-5.29.05-10.56.2-5.07.1-10.14.11l-3.8.13c-5.16-.04-8.66-.16-12.87-3.32-5.57-5.93-7.72-10.82-8.19-18.89l-.23-3.03q-.27-4.57-.4-9.16-.06-1.57-.1-3.17L636 660h-12l-1 5-4 1-.38 1.93L618 670l-2 1c-2.13-.94-2.13-.94-4-2l.1 3.87.08 5.13.08 2.54c.1 8.71-2.02 15.21-7.92 21.76-4.78 3.46-10.48 2.66-16.15 2.48l-4-.04q-5.25-.05-10.49-.19-5.35-.12-10.72-.16-10.49-.13-20.98-.39l.6-1.84c.4-2.16.4-2.16-1.04-4.85-3.67-7.78-1.02-15.48 1.44-23.3q-1.04.32-2.1.68c-14.13 4-32.4 3.7-45.85-2.6-3.47-2.07-5.59-4.36-7.05-8.09-1.2-6.77.12-11.74 3.9-17.4 6.32-7.8 14.9-16.69 25.1-18.6l3.62-1.07C524 626 524 626 526 626c-1.7-8.9-7.4-14.92-14.26-20.49-3.28-2.84-5.98-6.18-8.74-9.5l-1.98-2.4c-10-12.3-18.4-25.53-25.9-39.49l-1.15-2.12a59 59 0 0 1-4.97-13q-.73-1.98-1.5-3.94a95 95 0 0 1-3.63-12.13l-.52-2.2a102 102 0 0 1-2.18-18.66c-.17-3.07-.17-3.07-.7-4.9-1.05-4.77-.14-9.85.21-14.67l.21-3.4c.85-11.68 3.81-24.38 12.11-33.1 7.32-5.72 12.55-9.14 22-9l-.65-3.2c-2.12-11.14-2.79-21.9-2.69-33.23q.03-4.04.01-8.12c.04-20.85 2.18-43.22 10.67-62.5 1.97-4.57 3.6-9.25 5.22-13.95l.92-2.62c1.3-3.69 2.51-7.36 3.57-11.12a78 78 0 0 1 3.51-9.45c2.48-5.73 3.61-10.1 3.75-16.38l.11-3.44c-.42-2.99-.42-2.99-2.44-4.77L515 267v-2l-2.22-.83c-6.4-2.7-11.7-6.5-15.78-12.17l-2.25-2.13A76 76 0 0 1 481 230l-1.75-3.25L478 224l1-2c0-1.9 0-1.9-.16-4.2l-.16-2.54-.37-5.26-.16-2.53-.16-2.3c.01-2.17.01-2.17.5-4.12.63-2.54.6-4.82.57-7.44l-.02-3.09-.04-3.2-.07-6.34-.03-2.82c.1-2.16.1-2.16 1.1-3.16q.1-2.77.06-5.53l-.02-3.4-.04-3.57-.07-6.97-.03-3.14c.1-2.39.1-2.39 1.1-3.39q.11-3.98.06-7.94v-2.4L481 131l-.07-10.07-.02-2.36q0-2.8.1-5.57l1-1q.1-3.04.07-6.08l-.02-3.95-.02-2.12-.03-6.57-.1-18.69q-.05-5.7-.06-11.42l-.03-4.35-.03-6.1-.03-3.5c.25-3.38 1.07-6.06 2.24-9.22l.37-2.57c.83-3.2 2.37-5.04 4.63-7.43h2l.72-1.85c2.04-3.44 4.84-4.19 8.5-5.5 5.57-1.3 10.18-.04 15.16 2.62M606 622c-1.55 1.55-1.17 3.03-1.19 5.18.03 4 .87 7.04 2.2 10.82v7q.97 1.49 2 3c2.28.32 2.28.32 5.17.25l3.22-.08q9.3-.46 18.6-1.17a57 57 0 0 0 2.62-14.44l.23-3.75.15-2.8c-6.75-2.14-6.75-2.14-9-1l-3-2c-3.5-.14-3.5-.14-7 0h-6l-3.07.05C608 623 608 623 606 622m4 31 1 9c4-4.63 4-4.63 4-8z" fill="#141714"/><path d="M953.95 453.44c7.44 2.9 11.72 10.22 16.05 16.56l2.05 2.96c5.06 7.92 7.21 15.93 8.95 25.04l.68 3.5c3.87 23.04.5 46.17-12.74 65.88A116 116 0 0 1 949 588l-2.09 1.74c-33.28 25.45-83.99 27.86-123.73 23-17.98-2.43-35.05-7.92-52.18-13.74l2-1v-2h3l.12-2.37c1.06-4.37 3.08-7.4 5.46-11.17 1.42-2.46 1.42-2.46 2.48-6.27.94-3.2.94-3.2 3.44-5.56 3.36-3.54 3.81-6.91 4.5-11.63h1v5l2.21.43 9.97 1.95 3.5.67 3.36.66 3.1.6c2.76.67 5.23 1.6 7.86 2.69 28.32 5.5 60.84 3.66 87-9l1.97-.95c14.1-7.02 22.02-15.7 28.03-30.05 4.42-14.84.28-31.62-5.14-45.52-2.64-7.54-3.24-15.94-.18-23.42 4.07-8.08 10.66-10.55 19.27-8.62" fill="#111312"/><path d="M515.38 25.27c4.78 3.06 9.73 6.57 13.62 10.73v2l1.93.31q1.04.33 2.07.7l1 3 1.74.38c3.3.88 4.95 2.88 7.38 5.23A121 121 0 0 0 559 60q3.08 2.13 6.12 4.31l2.82 2L570 68v2a22 22 0 0 0 10.67 2.15l3.26-.04 3.38-.06q3.3-.06 6.61-.09l2.95-.06c3.07.1 6.04.45 9.08.86 3.27.36 6.52.32 9.81.3l2.16-.02 9.01-.07 6.64-.05h2.18c5.54 0 11.01.37 16.52.95 5.83.25 9.03-1.53 13.73-4.88l3.18-2.07C672 65 672 65 673.41 63.53c1.81-1.75 3.6-2.7 5.84-3.85a49 49 0 0 0 10.07-7.28 40 40 0 0 1 6.86-4.4 172 172 0 0 0 12.63-7.88l3.2-2.12 2.6-1.77q1.41-.95 2.9-1.92l2.71-1.83c5.7-3.04 11.61-2.89 17.78-1.48a30 30 0 0 1 13.37 13.81c.86 4.4 1 8.73.63 13.2l-1 1a188 188 0 0 0-.5 7.11c-.28 5.02-.78 9.91-1.5 14.88v3.81c0 3.2 0 3.2-1 5.2q-.07 2.73 0 5.5c.11 5.26.11 5.26-1 7.5a66 66 0 0 0-.25 4.22l-.09 2.65-.1 2.87c-.3 7.97-.84 15.87-1.63 23.81a164 164 0 0 0-.9 21.27C744 160 744 160 743 161c-.08 2.81 0 5.61.06 8.43C743 172 743 172 742 174c-.07 2.76 0 5.51.06 8.27-.06 2.73-.06 2.73-.56 4.52-.64 2.8-.6 5.38-.57 8.25l.03 3.5.04 3.64.06 7.17.03 3.21C741 215 741 215 740 216q-.74 4.19-1.38 8.37C735.33 244.6 735.33 244.6 728 252l-2.75 3.43c-4.7 5.5-10.64 10.57-17.25 13.57.47 4.75 1.56 7.22 4.68 10.81 4.84 5.76 8.88 11.84 12.82 18.25 2.58 4.17 5.51 8.05 8.5 11.94a93 93 0 0 1 10.06 16.18c1.61 3.34 3.61 5.93 5.94 8.82a197 197 0 0 1 8.1 15.17 208 208 0 0 0 2.4 4.7A91 91 0 0 1 768 377a94 94 0 0 0 2 7.12c1.05 3.67 1.4 7.26 1.71 11.05.31 3.08.83 6.1 1.35 9.14.9 6.16 1.2 12.22 1.25 18.44l.05 2.61c0 6.31-1.27 11.7-3.36 17.64q3.97.82 7.98 1.47c9.98 1.84 17.2 6.1 23.02 14.53q2.06 3.45 4 7l1.11 1.88c2.55 4.57 3.42 8.5 3.71 13.72.18 2.4.18 2.4.66 4.78 2.92 14.72.66 27.72-3.63 41.76-1.36 4.54-2.62 9.1-3.89 13.66A82 82 0 0 1 801 550l-1 2.5a158 158 0 0 1-2.19 5.18l-.8 2.32 1 2c2.74.78 5.44 1.45 8.24 2.06l2.31.52q5.7 1.28 11.44 2.42l1.97.46c25 5.65 55.13 5.87 78.95-4.56 2.08-.9 2.08-.9 5.33-1.9 3.32-1.2 5.83-3.02 8.75-5q1.93-.9 3.87-1.75c9.37-4.65 14.37-12.77 18.13-22.25 4.15-12.6 2.67-25.83-2-38l-.87-2.26A42 42 0 0 0 930 484v-13l-.38-2.63c.68-6.13 4.82-11.15 9.2-15.37 4.1-2.58 7.34-3.4 12.18-3 12.26 3.47 19.84 16.73 26 27a51 51 0 0 1 4 11l.51 2.04c6.82 27.34 5.67 51.35-8.73 76.05C966.4 576.17 958.34 583.7 949 591l-2.39 1.93c-7.72 6.1-16.6 9.33-25.74 12.7l-3.2 1.2c-20 7.41-20 7.41-30.67 7.17q-2.52.42-5 1c-3.76.86-7.16 1-11 1l-1 1q-3.23 0-6.47-.03c-2.4.03-4.7.23-7.1.53-9.1 1.08-17.4-.09-26.43-1.5l-3.37-.5c-27.08-4.1-27.08-4.1-39.63-8.5l-3.38-1.13L778 604c-2.88-.38-2.88-.38-6 0-5.1 4.08-9.32 9.97-12.5 15.68-1.66 2.55-3.63 4.06-6 5.91-2.57 2.41-3.92 5.3-5.5 8.41l2.08 1.97 2.73 2.65 2.71 2.6c5.94 6.65 6.58 13.4 6.41 21.96-1.72 5.18-5.2 8.61-9.62 11.7-4.78 1.62-9.28 1.93-14.3 2.12l-2.1.08c-9.05.31-17.42.5-25.9-3.08l.83 1.58c3.18 6.47 5.3 13.32 3.68 20.57-1.37 3.57-3.05 6.16-6.52 7.85-2.25-.32-2.25-.32-4-1l1.87-.19c2.13-.8 2.13-.8 3.31-3.19L710 697l1-3c1.05-10.47-3.66-17.4-9-26l1.68.58 2.32.8 2.25.77c7.96 2.46 14.84 3.18 23.18 3.16l3.28.05c6.91 0 14.42-.1 19.97-4.78 3.46-4.15 2.77-9.96 2.72-15.07-.6-5.26-2.7-7.9-6.4-11.5l-1.96-2.05A181 181 0 0 0 744 635c3.18-6.49 7.15-11.85 11.8-17.37q2.8-3.36 5.38-6.88l1.43-1.89q1.44-1.94 2.84-3.9c2.47-3.26 3.64-4.78 7.73-5.59a91 91 0 0 1 18.5 5.06c41.66 15.95 95.94 12.25 136.37-5.32 22.37-10.03 40.18-26.3 49.05-49.5 6.45-17.96 6.05-35.2 2.3-53.63q-.53-2.63-.95-5.25c-2.36-11.96-11.24-27.84-21.23-35-4.37-2.16-8.49-2.26-13.22-1.73-5.16 2.28-7.33 5.35-9.3 10.45-2.57 9.37.17 17.67 3.3 26.55l1.68 4.93.7 1.97c3.6 12.3 3.46 27.77-1.9 39.44A59 59 0 0 1 931 548l-1.38 1.72c-14.7 16.81-41.6 22.4-62.62 24.28-34.37 1.92-34.37 1.92-46.32-2.95-4.1-1.6-8.36-2.25-12.68-3.05-10.67-1.98-10.67-1.98-15-4 .54-6.16 2.52-11.22 4.93-16.88A94 94 0 0 0 804 528q1.13-4.57 2.31-9.1c1.7-7.14 1.87-13.92 1.87-21.22l.04-3.3c.01-6.4-.46-12.2-2.22-18.38l-.86-3c-3.63-10.44-9.18-17.74-19-23-5.8-2.5-11.9-2.7-18.14-3q.22-1.19.43-2.44c4.14-26.17 1.84-53.69-7.43-78.56l-1.3-3.67c-5.66-15.13-14.05-28.79-23.16-42.07q-4.87-7.2-9.67-14.45l-5.89-8.83-4.13-6.24-2.13-3.2-1.9-2.9a106 106 0 0 0-5.32-7.02 19 19 0 0 1-3.44-6.69c1.77-5.54 7.36-8.22 12.03-11.32 10.11-6.99 15.86-17.1 18.46-29 2.66-15.43 2.61-31.53 3.11-47.15l.1-2.8.06-2.45c.17-2.19.65-4.09 1.18-6.2q.3-2.83.5-5.65l.25-3.4.25-3.65q.14-1.86.26-3.78.84-12.3 1.24-24.66c.26-7.82.8-15.5 1.77-23.27a237 237 0 0 0 1.33-19.93c.22-5.29.7-10.43 1.46-15.67.87-6.4 1.2-12.72 1.25-19.19l.05-2.72c0-4.85-.16-8.19-3.36-12.09-4.7-3.63-8.82-4.92-14.77-4.72-7.09 1.57-13.19 5.84-19.23 9.72l-2.64 1.68q-2.13 1.41-4.24 2.87c-2.42 1.65-4.89 3.2-7.37 4.76-9.58 6.07-18.8 12.67-28 19.32Q665.4 73.33 663 75l-2.2 1.61c-3.6 1.78-6.79 1.8-10.72 1.75l-2.37.01a1004 1004 0 0 1-10.46-.09q-7.08-.06-14.16-.2-5.81-.1-11.62-.08c-38.37.05-38.37.05-48.94-10a94 94 0 0 1-3.16-3.47c-1.88-2.1-4.03-3.67-6.33-5.3a526 526 0 0 1-21.13-16.8 407 407 0 0 0-9.73-7.87l-3.08-2.43c-5.93-4.07-11.24-5.88-18.38-5.68-4.83.97-7.66 3.84-10.72 7.55-4.3 6.51-4.15 14.23-4.18 21.82l-.02 2.24q0 2.42-.03 4.82l-.07 7.78-.09 11.16c-.24 29.36-.64 58.71-1.6 88.05l-.14 3.93-.37 10.88-.1 3.15A168 168 0 0 1 482 204c-1.33 14.71.74 26.7 10.06 38.56A329 329 0 0 0 496 247l2.32 2.96c2.75 3.32 5.94 5.62 9.5 8.04l1.85 1.32a94 94 0 0 0 8.02 5.2A16 16 0 0 1 523 269c1.82 9.9-1.5 18.64-5.13 27.68l-1.53 4-3 7.81a308 308 0 0 0-4.66 13.2l-.68 2.08-1.32 4.1q-1.12 3.49-2.27 6.98c-9.79 30.16-13.9 64.52-7.07 95.9.64 3.17.78 6.01.66 9.25h-2.3c-10.02.38-15.63 3.6-22.52 10.68-11.96 14.5-9.18 38.57-7.98 56.3 3.16 31.45 17.72 61.73 38.8 85.02l3.62 4.25c2.3 2.61 4.7 5.03 7.2 7.43a127 127 0 0 1 9.68 10.94l1.35 1.63c2.87 3.68 3.65 6.11 3.15 10.75l-2.2.88c-27.74 11.31-27.74 11.31-33.37 22.55-1.69 4.51-2.32 8.8-1.43 13.57 2.28 4.38 5.22 5.97 9.76 7.44 12.44 3.11 27.5 2.9 39.73-.7A55 55 0 0 1 551 669l-2.38 2.56c-5.7 7.01-5.5 15.74-4.62 24.44 1.3 3.4 3.43 5.43 6 8h-8l.68-1.63c.32-2.37.32-2.37-1.12-5.06-3.67-7.78-1.02-15.48 1.44-23.3q-1.04.32-2.1.68c-14.13 4-32.4 3.7-45.85-2.6-3.47-2.07-5.59-4.36-7.05-8.09-1.2-6.77.12-11.74 3.9-17.4 6.32-7.8 14.9-16.69 25.1-18.6l3.62-1.07C524 626 524 626 526 626c-1.7-8.9-7.4-14.92-14.26-20.49-3.28-2.84-5.98-6.18-8.74-9.5l-1.98-2.4c-10-12.3-18.4-25.53-25.9-39.49l-1.15-2.12a59 59 0 0 1-4.97-13q-.73-1.98-1.5-3.94a95 95 0 0 1-3.63-12.13l-.52-2.2a102 102 0 0 1-2.18-18.66c-.17-3.07-.17-3.07-.7-4.9-1.05-4.77-.14-9.85.21-14.67l.21-3.4c.85-11.68 3.81-24.38 12.11-33.1 7.32-5.72 12.55-9.14 22-9l-.65-3.2c-2.12-11.14-2.79-21.9-2.69-33.23q.03-4.04.01-8.12c.04-20.85 2.18-43.22 10.67-62.5 1.97-4.57 3.6-9.25 5.22-13.95l.92-2.62c1.3-3.69 2.51-7.36 3.57-11.12a78 78 0 0 1 3.51-9.45c2.48-5.73 3.61-10.1 3.75-16.38l.11-3.44c-.42-2.99-.42-2.99-2.44-4.77L515 267v-2l-2.22-.83c-6.4-2.7-11.7-6.5-15.78-12.17l-2.25-2.13A76 76 0 0 1 481 230l-1.75-3.25L478 224l1-2c0-1.9 0-1.9-.16-4.2l-.16-2.54-.37-5.26-.16-2.53-.16-2.3c.01-2.17.01-2.17.5-4.12.63-2.54.6-4.82.57-7.44l-.02-3.09-.04-3.2-.07-6.34-.03-2.82c.1-2.16.1-2.16 1.1-3.16q.1-2.77.06-5.53l-.02-3.4-.04-3.57-.07-6.97-.03-3.14c.1-2.39.1-2.39 1.1-3.39q.11-3.98.06-7.94v-2.4L481 131l-.07-10.07-.02-2.36q0-2.8.1-5.57l1-1q.1-3.04.07-6.08l-.02-3.95-.02-2.12-.03-6.57-.1-18.69q-.05-5.7-.06-11.42l-.03-4.35-.03-6.1-.03-3.5c.25-3.38 1.07-6.06 2.24-9.22l.37-2.57c.83-3.2 2.37-5.04 4.63-7.43h2l.72-1.85c2.04-3.44 4.84-4.19 8.5-5.5 5.57-1.3 10.18-.04 15.16 2.62" fill="#E0E1E1"/><path d="M565 481c3.02 1.12 4.65 2.61 6.62 5.06C574 489 574 489 576 490v2l1.8.81a22 22 0 0 1 5.39 4.25c4.07 3.66 8.5 6.15 13.31 8.69l2.16 1.14c10.72 5.52 20.49 8.45 32.66 5.23 6.08-2.35 11-5.53 15.94-9.76C649 501 649 501 651 501l.81-1.69L653 497l1.31-2.62c1.98-2.79 3.47-3.42 6.69-4.38-1.48 10.01-6.36 18.32-14 25l-1.79 1.62C640.3 521 640.3 521 638 521l.26 2.42.97 9.24.62 5.83c2.04 19.93 2.29 39.81 2.21 59.82l-.01 6.94L642 622l-4.75.03-2.67.01a80 80 0 0 1-10.33-.98A291 291 0 0 0 602 619l-1 4c-1.6-3.19-1.25-6.66-1.31-10.18l-.04-2.58-.09-8.55-.02-2.96c-.1-25.45 3.1-50.54 6.46-75.73l-2.23-.34c-7.92-1.89-14.31-8.68-20.02-14.16l-2.06-1.93c-5.75-5.45-10.5-10.62-14-17.82l-1.55-3.14C565 483 565 483 565 481" fill="#000100"/><path d="M741.38 32.63c5.75 5.2 10.3 9.82 10.76 17.93.04 2.5.07 4.94-.14 7.44l-1 1q-.32 3.57-.5 7.13c-.27 5.02-.78 9.9-1.5 14.88v3.8c0 3.2 0 3.2-1 5.2q-.05 2.74 0 5.5c.12 5.27.12 5.27-1 7.5a74 74 0 0 0-.25 4.22q-.03 1.3-.1 2.66c0 .47 0 .47-.08 2.86a395 395 0 0 1-1.64 23.82 164 164 0 0 0-.9 21.26C744 160 744 160 743 161c-.08 2.81 0 5.62.07 8.44-.08 2.56-.08 2.56-1.08 4.56-.07 2.76.01 5.51.08 8.28-.08 2.72-.08 2.72-.58 4.51-.62 2.8-.59 5.39-.56 8.25l.04 3.5.02 3.65.08 7.16.02 3.22C741 215 741 215 740 216q-.73 4.16-1.37 8.37C735.35 244.6 735.35 244.6 728 252l-2.75 3.43c-4.7 5.5-10.64 10.56-17.25 13.56.48 4.75 1.57 7.23 4.68 10.81 4.85 5.76 8.89 11.84 12.82 18.25 2.2 3.57 4.67 6.88 7.26 10.18C734 310 734 310 735 313l-2 2-4.58-6.86q-1.92-2.9-3.87-5.8c-5.5-8.26-5.5-8.26-8.05-12.12l-2-3.04-1.82-2.74a110 110 0 0 0-5.18-6.81 19 19 0 0 1-3.43-6.7c1.76-5.54 7.34-8.21 12.02-11.32 10.1-6.99 15.86-17.1 18.45-29 2.68-15.43 2.63-31.53 3.12-47.15l.1-2.8c0-.4 0-.4.07-2.44.16-2.2.63-4.1 1.16-6.22q.33-2.8.5-5.63l.25-3.4c.1-1.22.17-2.41.25-3.66l.27-3.78q.85-12.32 1.24-24.65c.26-7.82.8-15.51 1.76-23.27.82-6.64 1.09-13.26 1.35-19.94.22-5.29.7-10.42 1.46-15.67.86-6.41 1.17-12.72 1.25-19.19q0-1.34.04-2.72c0-4.85-.15-8.2-3.37-12.08-4.7-3.63-8.8-4.93-14.75-4.73-7.1 1.57-13.2 5.84-19.25 9.73l-2.62 1.68q-2.16 1.41-4.25 2.87-3.62 2.44-7.37 4.75c-9.58 6.08-18.8 12.67-28 19.32-1.57 1.15-3.15 2.25-4.75 3.38l-2.18 1.61c-3.72 1.81-6.98 1.7-11 1.53l-2.47-.06q-4-.1-8-.24l-5.56-.14q-7.3-.2-14.6-.43l-14.94-.43q-14.63-.39-29.25-.84v-1h49v-1c9.53-.7 18.76-1.27 28.3-.17 5.82.34 9.03-1.5 13.7-4.84l3.18-2.06C672 65 672 65 673.43 63.53c1.8-1.75 3.6-2.7 5.84-3.84a49 49 0 0 0 10.07-7.28 40 40 0 0 1 6.84-4.41 170 170 0 0 0 12.65-7.87q4.4-2.95 8.86-5.82l2.84-1.83c6.38-3.8 14.3-3.01 20.86.15" fill="#E3E5E4"/><path d="M603 619c12.77-.69 25.37 1.33 38 3l.06 9.56.03 2.72.01 2.66.01 2.43c-.11 2.63-.11 2.63-.6 6.02-.85 6.04-.74 12.08-.76 18.17l-.06 3.89c-.1 23.73-.1 23.73 7.31 31.55a59 59 0 0 0 7 4v1c-3.68.37-5.44.41-8.48-1.8l-2.27-2.51-2.3-2.43c-4.66-7.79-4.3-17.59-4.57-26.45l-.12-3.17L636 660h-12l-1 5-4 1-.38 1.94L618 670l-2 1c-2.12-.94-2.12-.94-4-2l.11 3.88.08 5.12.07 2.54c.1 7.91-1.4 14.1-6.95 19.96l-1.88 2.03L602 704l-4-1 2.81-2.19c5.51-4.65 7.27-9.81 8.19-16.81 1.03-13.43-.57-28.27-5-41-1.29-7.92-1.11-16-1-24m3 3c-1.55 1.55-1.17 3.04-1.19 5.19.03 3.99.88 7.03 2.19 10.81v7l2 3c2.29.33 2.29.33 5.19.25l3.21-.08q9.3-.45 18.6-1.17a56 56 0 0 0 2.62-14.44l.23-3.74.15-2.82c-6.75-2.12-6.75-2.12-9-1l-3-2c-3.5-.12-3.5-.12-7 0h-6l-3.06.06C608 623 608 623 606 622m4 31 1 9c4-4.62 4-4.62 4-8z" fill="#D3D4D3"/><path d="M463 478h1l.04 2.09c1 42.13 11.04 79.97 39.96 111.91l3.62 4.25a123 123 0 0 0 7.19 7.44c3.49 3.45 6.63 7.1 9.69 10.93l1.35 1.64c2.87 3.68 3.65 6.11 3.15 10.74l-2.2.88c-27.74 11.31-27.74 11.31-33.36 22.56-1.69 4.51-2.33 8.8-1.44 13.56 2.29 4.38 5.23 5.98 9.77 7.44 12.43 3.11 27.49 2.9 39.73-.71A56 56 0 0 1 551 669l-2.38 2.56c-5.71 7.01-5.49 15.75-4.62 24.44 1.3 3.41 3.43 5.43 6 8h-8l.69-1.62c.31-2.38.31-2.38-1.13-5.07-3.66-7.77-1.02-15.47 1.44-23.31l-2.11.69c-14.12 3.99-32.38 3.69-45.84-2.6-3.46-2.07-5.59-4.35-7.05-8.09-1.19-6.77.12-11.73 3.89-17.41 6.33-7.78 14.9-16.68 25.11-18.59l3.62-1.06C524 626 524 626 526 626c-1.7-8.89-7.39-14.91-14.25-20.49-3.28-2.84-5.99-6.17-8.75-9.51l-1.97-2.38c-10.01-12.31-18.4-25.54-25.91-39.5l-1.15-2.12a60 60 0 0 1-4.97-13l-1.42-3.73c-5.09-13.47-6.07-26.05-5.33-40.33l.2-4.97q.25-5.99.55-11.97" fill="#DEDEE1"/><path d="M735 312c3.99 3.99 6.63 9.13 9.06 14.19 1.62 3.33 3.61 5.92 5.94 8.81a197 197 0 0 1 8.1 15.18q1.18 2.36 2.4 4.7A90 90 0 0 1 768 377a92 92 0 0 0 2 7.12c1.05 3.67 1.4 7.26 1.71 11.05.32 3.08.84 6.09 1.35 9.14.89 6.16 1.19 12.22 1.25 18.44l.06 2.61c-.01 6.31-1.27 11.7-3.37 17.64q3.97.83 7.98 1.47c9.98 1.84 17.19 6.1 23.02 14.53q2.06 3.47 4 7l1.11 1.88c2.55 4.58 3.42 8.5 3.71 13.73.19 2.53.68 4.9 1.18 7.39 1.2 9.01 1.1 16.41-2 25h-1l-.06-2.52-.26-9.38-.15-6c-.21-6.93-.59-13.43-2.53-20.1l-.86-3c-3.63-10.43-9.17-17.73-19.01-23-5.79-2.5-11.9-2.7-18.13-3l.44-2.44c4.13-26.17 1.83-53.69-7.44-78.56l-1.3-3.67c-5.29-14.13-12.83-27.2-21.56-39.47-2.27-3.24-3.84-5.87-4.14-9.86z" fill="#E8EAEA"/><path d="M608.4 203.8c3.76 1.57 6.97 2.98 9.6 6.2-.14 5.32-3.4 8.45-7.06 12-2.1 2.16-3.46 4.4-4.94 7-1 1-1 1-3.44 1.18C600 230 600 230 598 228l-.25-3.13c-.87-4.5-2.5-6.5-5.47-9.88-1.64-2.56-1.74-4-1.28-6.99 4.43-5.62 10.94-6.36 17.4-4.2" fill="#666865"/><path d="m752 623 1 2c-1 2.16-1 2.16-2.44 4.62l-1.43 2.48L748 634a346 346 0 0 1 4.81 4.62l2.71 2.61c5.94 6.64 6.59 13.39 6.42 21.96-1.73 5.18-5.21 8.6-9.63 11.69-4.78 1.62-9.28 1.93-14.31 2.12l-2.1.08c-9.04.31-17.4.51-25.9-3.08l.84 1.58c3.19 6.48 5.29 13.33 3.68 20.57-1.37 3.57-3.05 6.17-6.52 7.85-2.25-.31-2.25-.31-4-1l1.88-.19c2.12-.81 2.12-.81 3.31-3.19L710 697l1-3c1.05-10.46-3.65-17.4-9-26l1.69.59 2.31.79 2.25.77c7.96 2.46 14.85 3.19 23.19 3.16l3.27.05c6.92.01 14.43-.11 19.97-4.78 3.46-4.15 2.77-9.96 2.73-15.06-.61-5.26-2.7-7.91-6.41-11.52l-1.96-2.04A168 168 0 0 0 744 635l2.31-4.31 1.3-2.43A23 23 0 0 1 752 623" fill="#EBECED"/><path d="M463 478h1l.04 2.09c1 42.13 11.04 79.97 39.96 111.91l3.62 4.25a123 123 0 0 0 7.19 7.44c3.49 3.45 6.63 7.1 9.69 10.93l1.35 1.64c2.87 3.68 3.65 6.11 3.15 10.74l-3 1v-3.38c-1.02-8.17-8.19-14.21-14.29-19.14-3.27-2.83-5.96-6.16-8.71-9.48l-1.97-2.38c-10.01-12.31-18.4-25.54-25.91-39.5l-1.15-2.12a60 60 0 0 1-4.97-13l-1.42-3.73c-5.09-13.47-6.07-26.05-5.33-40.33l.2-4.97q.25-5.99.55-11.97" fill="#D9DADC"/><path d="M484 92h1c.27 24.36-.08 48.69-.87 73.04l-.2 6.25-.39 11.84-.12 3.58c-.21 5.83-.58 11.52-1.42 17.29h-1l-1-8.94-.29-2.52c-.6-5.54-.89-10.96-.71-16.54l1-1q.1-2.76.06-5.53l-.02-3.4-.04-3.57q-.05-3.49-.06-6.97l-.04-3.14c.1-2.39.1-2.39 1.1-3.39q.11-3.96.06-7.94l-.01-2.41L481 131a1687 1687 0 0 1-.09-12.42q0-2.79.09-5.58l1-1q.32-4.46.5-8.94l.22-4.96.09-2.24C483 94 483 94 484 92" fill="#DDDFDD"/><path d="m711 39 3 2-1.6.93c-10.46 6.1-20.59 12.36-30.24 19.69a112 112 0 0 1-5.94 4.2 88 88 0 0 0-6.4 4.74c-10.33 8.12-18.63 8.69-31.44 7.98l-5.52-.18q-7.19-.24-14.37-.6-7.35-.33-14.72-.56-14.38-.52-28.77-1.2v-1h49v-1c9.54-.7 18.77-1.25 28.3-.16 5.82.34 9.03-1.5 13.7-4.84l3.19-2.06C672 65 672 65 673.41 63.52c1.82-1.74 3.6-2.69 5.84-3.83a50 50 0 0 0 10.07-7.28 39 39 0 0 1 6.86-4.41 115 115 0 0 0 5.94-3.56q4.41-2.78 8.88-5.44" fill="#E0E0E3"/><path d="M603 619c12.78-.69 25.36 1.35 38 3l-1 18h-3l.44-4.75.24-2.67c.28-2.27.71-4.38 1.32-6.58-6.75-1.12-6.75-1.12-9 0l-3-2c-3.5-.12-3.5-.12-7 0h-6l-3.06.06C608 624 608 624 606 623c-.22 5.54.16 9.72 2 15q.06 3.5 0 7l1 2 2.02-.02 9.1-.04 3.18-.03c5.01-.01 9.78.01 14.7 1.09v1h-30l-1 2c-4.5-10.37-4.16-20.84-4-32" fill="#F1F1EF"/><path d="m808 510 2 2 2-1a63 63 0 0 1-3 13q-1.93 6.68-3.79 13.39l-.77 2.74-.69 2.47A89 89 0 0 1 801 550l-1 2.5q-1.05 2.61-2.19 5.19L797 560l1 2c2.75.78 5.46 1.46 8.25 2.06l2.32.53q4.53 1.02 9.09 1.94c2.88.58 5.73 1.27 8.59 1.97l3.2.78C832 570 832 570 833 571q3.5.55 7 1v1a748 748 0 0 1-8.19-.38l-2.33-.09A31 31 0 0 1 818 570c-3.31-.77-6.66-1.38-10-2-10.67-1.98-10.67-1.98-15-4 .54-6.16 2.52-11.21 4.94-16.88A94 94 0 0 0 804 528q1.13-4.55 2.32-9.11c.69-2.95 1.21-5.89 1.68-8.89" fill="#DCDCDC"/><path d="M494 416h1l1.5 8.62.43 2.45A61 61 0 0 1 498 440l-2.31.01c-10.01.37-15.61 3.59-22.5 10.68C461.9 464.46 463.5 485.26 463 502c-4.15-6.22-2.85-12.3-2.31-19.5l.2-3.4c.85-11.67 3.81-24.37 12.11-33.1 7.18-5.6 12.66-9.37 22-9l-.47-1.8c-1.57-6.67-1.48-12.44-.53-19.2" fill="#EBEBED"/><path d="M688.8 191.41c1.2 1.6 1.2 1.6 1.2 4.6l-2.25-.83c-20.67-6.54-40.29-5.22-59.75 4.82v-4a168 168 0 0 1 3.75-2l2.11-1.13C636 192 636 192 640 192v-2c13.58-3.6 36.36-8.4 48.8 1.41" fill="#030503"/><path d="M500 334h3c-.69 6.8-2.24 13.13-4.1 19.7-4.14 15.61-4.25 31.88-4.52 47.92l-.12 5.68L494 421c-2.65-2.65-2.25-4.61-2.28-8.22l.01-2.6v-2.7l.01-5.7q.01-4.27-.01-8.54a202 202 0 0 1 6.59-51.48q.94-3.86 1.68-7.76" fill="#EEEEF2"/><path d="M773.25 599.31a115 115 0 0 1 24.75 7.7l-3 3-3.63-1.39A235 235 0 0 0 781 605l-3-1c-2.87-.38-2.87-.38-6 0-5.17 4.14-9.26 10.06-12.63 15.75A29 29 0 0 1 754 626l-2-1c2.27-6.58 6.76-11.59 11-17l1.9-2.56c4.12-5.23 4.12-5.23 8.35-6.13" fill="#ECEDED"/><path d="M548 181v2l1.69-.54c9.11-1.83 18.48 3.58 26.31 7.54v2a98 98 0 0 1-12.72-2.82c-12.15-3.37-24.3-6.17-36.66-2.06-2.76.93-3.94.91-6.62-.12 8.46-5.77 17.98-6.33 28-6" fill="#030503"/><path d="m488 31 2 1-.93 2.18c-2.97 7.84-3.37 16.15-3.41 24.45l-.05 2.9q-.09 6.06-.14 12.12l-.13 8.92-.01 2.78a209 209 0 0 0-.06 4.81C485 92 485 92 483 94c-1.57-1.57-1.14-3.15-1.15-5.33l-.01-2.8-.01-3.04-.01-3.11-.01-6.55q0-5-.03-9.98l-.01-6.36-.02-3.01c.01-5.04.32-9.09 2.25-13.82l.44-2.62c.64-2.73 1.76-4.26 3.56-6.38" fill="#F0F2F1"/><path d="m738 176 2 4h2l-.5 3.66c-.7 6.27-.57 12.53-.5 18.84q.04 3.51.06 7.03l.04 3.11C741 215 741 215 740 216a395 395 0 0 0-1.63 11.39c-.91 6.16-.91 6.16-3.48 8.68L733 237l.93-3.68c1.35-6.08 1.74-12.18 2.13-18.38l.25-3.68c.77-11.74 1.29-23.5 1.69-35.26" fill="#DBDCDC"/><path d="m526 626-1 3a86 86 0 0 1-6.94 2.75c-10.67 4.01-19.06 9.35-24.87 19.37-2.02 5.03-1.43 10.57-1.19 15.88-3.82-2.37-3.82-2.37-4.6-5.13-.08-8 2.49-13.47 7.95-19.31 6.12-6.18 12.85-12.8 21.65-14.56l2.5-1.06c2.5-.94 2.5-.94 6.5-.94" fill="#E5E7E7"/><path d="m743 121 2 1c.78 3.82 1.24 6.27 0 10q-.2 2.69-.28 5.37l-.11 3.18-.11 3.33-.22 6.49-.09 2.91A58 58 0 0 1 743 161q.01 2.5.12 5c.1 6.6-1.43 12.66-3.12 19h-1c-.27-11 .47-21.91 1.23-32.88l.62-9.23.4-5.92.18-2.76c.31-4.46.73-8.81 1.57-13.21" fill="#EAEBEC"/><path d="M658 75v3l-83-2v-1h49v-1c24.68-2.11 24.68-2.11 34 1" fill="#B3B4B6"/><path d="M798 607q2.73.32 5.44.81l3.32.58q4 .75 7.99 1.61c14.97 3 30.03 3.53 45.25 4v1l-3.61.18-4.7.26-2.38.12-4.41.23c-1.9.21-1.9.21-4.9 1.21-6.92-.13-13.71-.98-20.46-2.46a163 163 0 0 0-8.79-1.54c-10.47-1.72-10.47-1.72-13.75-5z" fill="#E2E3E5"/><path d="m752 623 1 2c-1 2.16-1 2.16-2.44 4.62l-1.43 2.48L748 634a346 346 0 0 1 4.81 4.62l2.71 2.61c3.82 4.26 5.77 8.25 6.23 13.96l.23 2.54C762 660 762 660 761 663h-2l-.23-2.56c-.9-7.82-2.28-12.77-7.77-18.44l-1.95-2.04A182 182 0 0 0 744 635l2.31-4.31 1.3-2.43A23 23 0 0 1 752 623" fill="#DDD"/><path d="m949 587 3 1c-9.19 8.6-9.19 8.6-15 11l-8.89 3.82-5.73 2.43-1.95.85c-3.88 1.61-6.4 2.23-10.43.9a32 32 0 0 1 7.25-3.7l2.52-.97 2.67-1.02c8.74-3.41 17.38-7.02 24.68-13.07z" fill="#E2E2E6"/><path d="M605.75 72.85q5.84.38 11.69.69l2.38.13 7.18.39 4.98.28L644 75v1c-22.68.19-45.33-.35-68-1v-2q3.5-.3 7-.56l3.94-.32c6.28-.28 12.54.29 18.81.73" fill="#F2F2F5"/><path d="M637 660h1l.23 2.14 1.08 9.74.36 3.35c2.18 18.98 2.18 18.98 9.33 24.77l2.81 2.31L654 704c-3.68.37-5.44.41-8.48-1.8-5.71-6.32-8.04-10.75-8.52-19.2l-.17-2.51q-.47-7.04-.78-14.09l-.1-2.42C636 662 636 662 637 660" fill="#DFDFE0"/><path d="M758 654h1l.68 5.86c.32 2.14.32 2.14 1.02 4.18.3 1.96.3 1.96-.7 3.78-5.27 5.89-9.94 8.58-18 9.18l-1.79-.45c-2.97-.74-5.9-.9-8.96-1.11l-3.55-.26-2.7-.18v-1l3.84-.11 5.1-.2 2.52-.07c6.28-.27 13.22-.88 18.25-5.03 2.03-2.51 2.07-5.12 2.48-8.28l.48-3.57z" fill="#DFE2DF"/><path d="M745 80h1l1.06 10.38.32 2.98.28 2.85.27 2.64C748 101 748 101 747 103q-.32 2.18-.54 4.35l-.26 2.58-.26 2.69-.28 2.72L745 122h-1l-1 5h-1l.44-9.06.12-2.57c.18-3.64.41-7.2.94-10.81.68-4.82.86-9.63 1.06-14.5l.13-2.94z" fill="#E2E5E2"/><path d="m808 510 2 2 2-1a63 63 0 0 1-3 13l-1.15 4.2-.61 2.22q-.62 2.28-1.21 4.57c-1.55 5.56-1.55 5.56-4.19 8.03L800 544l1.27-5.08 1.09-4.37q1.25-5.04 2.54-10.07l1.49-5.83c.66-2.87 1.15-5.74 1.61-8.65" fill="#D3D5D4"/><path d="M494 416h1l1.5 8.62.43 2.45.41 2.41.38 2.19c.33 2.76.28 5.55.28 8.33l-16 1c3.54-3.54 4.74-3.98 9.69-4.06l3.31.06-.47-1.8c-1.57-6.67-1.48-12.44-.53-19.2" fill="#DADBDD"/><path d="M610 668c3.9 5.85 2.7 15.76 1.57 22.62-1.75 5.39-5.7 9.4-9.57 13.38l-4-1 2.81-2.19c5.98-5.05 7.67-11.15 8.37-18.78q.5-7.01.82-14.03" fill="#DFE0E1"/><path d="M931 464h2l.11 2.71c.37 6.75 1.08 12.7 3.26 19.09.91 3.17.84 5.92.63 9.2-2.75-2.37-3.74-4.63-5-8l-2-3v-13l-.06-3.12C930 465 930 465 931 464" fill="#E9E9EC"/><path d="M463 478h1l.06 2.16c.73 25.05.73 25.05 2.64 35.01.36 3.43-.1 6.45-.7 9.83-4.08-6.12-4.28-12.55-3.98-19.66l.08-2.38.28-7.46.17-5.09q.21-6.2.45-12.41" fill="#D2D3D4"/><path d="M481 173h2a2017 2017 0 0 1 .09 14.12A108 108 0 0 1 482 204h-1l-1-8.94-.29-2.52c-1.65-15.13-1.65-15.13 1.29-19.54" fill="#D3D4D4"/><path d="M980 501c3.28 6.56 3.16 13.13 3.12 20.31l.02 2.46c-.01 5.98-.01 5.98-1.14 8.23h-2z" fill="#080B0A"/><path d="m871 614-1 3-3.94-.06c-3.25-.01-6.39.16-9.62.56-4.22.5-8.19.79-12.44.5-1.73-1.52-1.73-1.52-3-3 20.53-1.19 20.53-1.19 30-1" fill="#F0F2F3"/><path d="m511 23 1 2-1 2-2.56-.21c-7.3-.35-11.6-.04-17.15 4.9L490 33l-1-3h2l.71-1.86c3.83-6.37 12.81-6.79 19.29-5.14" fill="#E0E0E3"/><path d="M463 468h1l-1 34c-3.05-4.57-3.12-7.61-2.7-13.04l.27-3.5.31-3.65.27-3.68c.72-9 .72-9 1.85-10.13" fill="#F0F0F3"/><path d="M480 194h1a2941 2941 0 0 1 .72 17.6l.26 6.42.16 3.91C482 225 482 225 480 227l-2-3 1-2c-.01-1.83-.01-1.83-.19-4.04l-.18-2.45q-.18-2.54-.4-5.06c-.4-5.83.2-10.82 1.77-16.45" fill="#EFF0F0"/><path d="M482 145h1v28h-2a93 93 0 0 1-1.19-15.12l-.03-2.09c-.02-4.05.43-7.15 2.22-10.79" fill="#F1F2F1"/><path d="M494 581c3.41 3.32 6.52 6.73 9.5 10.44l2.34 2.89L508 597l5 6-3 1c-14.28-15.97-14.28-15.97-17-22z" fill="#CFD2D0"/><path d="M937 491c6.94 10.41 5.33 24.07 5 36h-1l-.08-2.68c-.37-8.2-1.48-15.75-3.64-23.68-1.65-6.28-1.65-6.28-.28-9.64" fill="#D8DBDD"/><path d="m769 391 3 1 .18 2.85.26 3.77.24 3.73c.32 3.65.32 3.65.91 6.9.51 3.41-.31 5.59-1.59 8.75h-1l-1-9-.29-2.54c-.56-5.19-.81-10.24-.71-15.46" fill="#EEF0F1"/><path d="M510 310h2l-.48 1.59c-2.55 8.46-5.03 16.93-7.52 25.41l-1-3-2-1 1.34-3.01c1.66-3.88 3-7.84 4.28-11.87 2.25-6.99 2.25-6.99 3.38-8.12" fill="#E7E9EA"/><path d="m493 650 2 1-.07 1.69A48 48 0 0 0 497 668c-3 0-3 0-4.69-1.44-1.95-3.81-1.77-7.35-1.31-11.56 1-3.06 1-3.06 2-5" fill="#1F2022"/><path d="M940 512h1c.96 20.53.96 20.53-5 30h-2c.5-3.11 1.33-5.88 2.44-8.81 2.36-6.81 2.82-14.06 3.56-21.19" fill="#E5E9EC"/><path d="M889 612c-4.57 3.95-9.13 4.03-15 4a70 70 0 0 1-9-2v-1q4.31-.55 8.62-1.06l2.45-.32c4.55-.53 8.41-.67 12.93.38" fill="#DDDFE0"/><path d="M802 542c.86 2.4 1.19 3.55.19 5.94L801 550l-.88 2.25c-1.5 3.69-3.31 7.2-5.12 10.75h-1c-.26-4.67.47-7.9 2.31-12.19l1.3-3.1A16.5 16.5 0 0 1 802 542" fill="#E7E6E8"/><path d="m595 205 3 1-1 1q-.14 2.15-.12 4.31l-.01 2.37c.13 2.23.51 4.17 1.13 6.32h-2c-2.74-2.88-4.76-5.84-5.56-9.75.56-2.25.56-2.25 2.37-4.13z" fill="#777A77"/><path d="m979 549 1 2a120 120 0 0 1-3.62 7.81l-1.05 2.16A34 34 0 0 1 967 572c.57-3.93 1.75-6.6 3.88-9.94 1.76-2.83 3.38-5.57 4.87-8.56C977 551 977 551 979 549" fill="#E0E3E3"/><path d="m933 541 2 2c-11.5 13.77-11.5 13.77-18 15l-1-2 1.69-1c6.2-3.86 10.71-8.36 15.31-14" fill="#DCDDE1"/><path d="M977 481h2a972 972 0 0 1 2.56 9.25l.75 2.64.69 2.56.65 2.35c.38 2.39.1 3.92-.65 6.2-2.33-3.5-3.15-6.91-4.12-10.94l-.56-2.17A39 39 0 0 1 977 481" fill="#E5E6EA"/><path d="m713 673 2.17.18q11.42.95 22.83 1.82v2q-4.28.12-8.56.19l-2.43.07c-5.46.07-9.14-.77-14.01-3.26z" fill="#EBECEB"/><path d="M931 599c-1 3-1 3-4.2 4.64q-2.03.82-4.05 1.61l-2.03.85c-3.95 1.57-6.63 2.26-10.72.9 3.34-2.23 6.79-3.65 10.5-5.12l2.05-.84c2.97-1.19 5.23-2.04 8.45-2.04" fill="#D9D9DB"/><path d="M640 624h1a1221 1221 0 0 1 .09 10.99c.02 4.78-.29 9.29-1.09 14.01l-8-1 1.94-.75C636 646 636 646 636.69 644l.31-2 1-2h2z" fill="#DEE0DD"/><path d="M608 649h13v1h-5v5l-6-2-2 4c-1.12-5.75-1.12-5.75 0-8" fill="#D7D5D8"/><path d="m831 613 29 1v1l-3.61.18-4.7.26-2.38.12-4.41.23c-1.9.21-1.9.21-4.9 1.21-2.04-.12-2.04-.12-4.19-.44L832 616z" fill="#CDCED0"/><path d="M758 646c2 1 2 1 2.63 2.82A54 54 0 0 1 762 663h-3l-1.06-7.94-.32-2.28q-.36-2.88-.62-5.78z" fill="#F2F3F4"/><path d="M526 626c-1 3-1 3-3.36 4.2l-2.95 1.05-2.93 1.08c-2.78.68-4.11.65-6.76-.33 2.23-2.56 3.71-3.32 7-4l2.5-1.06c2.5-.94 2.5-.94 6.5-.94" fill="#EDEDEF"/><path d="m725 252 2 1c-4.24 5.66-9.4 9.72-15 14l-2-1c1.25-3.74 2.57-4.3 5.81-6.44A50 50 0 0 0 725 252" fill="#EAECEB"/><path d="M485 152h1v8h2v5l-2 1c-.41 2.07-.41 2.07-.62 4.56l-.23 2.51L485 175h-1a1995 1995 0 0 1-.09-14.09l-.01-3-.01-2.78C484 153 484 153 485 152" fill="#070A09"/><path d="M512 633a212 212 0 0 1-16 12c0-3 0-3 2.08-5.23l2.73-2.39 2.71-2.42c3.25-2.57 4.48-3.29 8.48-1.96" fill="#DCDCE0"/><path d="M634 623h7l-1 17h-3l.44-4.75.24-2.67c.28-2.27.71-4.38 1.32-6.58l-5-1z" fill="#F5F6F8"/><path d="M482 564h2a23 23 0 0 1 2.38 3.43l1.35 2.16 1.39 2.29 1.42 2.26c3.46 5.59 3.46 5.59 3.46 7.86-4.17-1.39-5.46-4.32-7.69-7.88l-1.26-1.93c-3.05-4.8-3.05-4.8-3.05-8.19" fill="#E2E5E3"/><path d="M810 493c2.4 2.4 2.68 4.24 3.05 7.56-.09 4.66-1.62 9.03-3.05 13.44h-1z" fill="#F0F4F0"/><path d="m702 668 4.19 1.44A62 62 0 0 0 716 672c-3 2-3 2-6 3l-2 3z" fill="#CACCCE"/><path d="M497 351h2c-.93 6.68-1.97 13.34-3 20h-1c-1.31-7.43-.65-12.95 2-20" fill="#E1E2E3"/><path d="m768 444 1 2 2.67-.32 3.52-.37 3.48-.38c3.75.08 5.39.81 8.33 3.07l1 2-3.25-.94c-5.51-1.39-11.1-1.7-16.75-2.06z" fill="#D6D8DA"/><path d="M521 269h2v13l-3-1q-.04-2.43-.06-4.88l-.04-2.74c.1-2.38.1-2.38 1.1-4.38" fill="#DBDBDD"/><path d="M602 619h1v21h-1q-.55-3.9-1.06-7.81l-.32-2.24c-.57-4.33-.59-7 1.38-10.95" fill="#2D2F2C"/><path d="M809 483c3 3 3 3 3.16 5.27l-.3 2.62-.31 2.84-.36 2.96-.33 2.99q-.4 3.66-.86 7.32h-1z" fill="#DEE1DF"/><path d="M497 434h1v6l-16 1c3.52-3.52 5.2-3.55 10-4v2h5z" fill="#C3C3C6"/><path d="M736 216h1q.33 3.34.62 6.69l.36 3.76c.02 3.53-.27 5.49-1.98 8.55l-3 2 .94-3.75c1.28-5.7 1.69-11.43 2.06-17.25" fill="#C8C9C9"/><path d="M747 72h1l.56 7.88.17 2.26c.38 5.63.38 5.63-.73 7.86h-2c-.1-6.11-.07-11.97 1-18" fill="#F3F5F3"/><path d="M467 456h2l-.62 1.94A78 78 0 0 0 465 473h-1c-1.51-6.91-.33-10.83 3-17" fill="#DDDDDF"/><path d="M911 604a17.4 17.4 0 0 1-7 5h-4v-4c7.62-2.12 7.62-2.12 11-1" fill="#202123"/><path d="M565 65a55 55 0 0 1 5 3v2l2.44.81L575 72l1 3c-4.98-1.51-8.24-4.56-12-8z" fill="#E5E5E7"/><path d="M744 36c4.79 3.31 4.79 3.31 5.69 6.22.37 3.29.17 6.3-.13 9.59l-.31 3.52L749 58h-1l-.11-3.11-.2-4.08-.07-2.04c-.24-4.42-1.14-7.13-3.62-10.77z" fill="#C7C9C8"/><path d="m498 434 2 1v9h-2v-2l-9-1v-1h9z" fill="#070909"/><path d="m694 49 2 1c-2.87 4.08-5.43 6.03-10 8v-3c1.75-1.61 1.75-1.61 4-3.19l2.25-1.6z" fill="#E7E8EB"/><path d="m628 621 13 1v1l-1.9.4-2.48.54-2.46.52C632 625 632 625 630 626l-3-2z" fill="#D6D8D6"/><path d="M505 324h2q-.42 2.41-.88 4.81l-.49 2.71C505 334 505 334 503 337v-3l-2-1c2.88-6.75 2.88-6.75 4-9" fill="#DFDFE2"/><path d="m711 694 3 4c-3.17 3.54-5.17 5.59-10 6l1.88-.69c2.77-1.71 3.15-3.25 4.12-6.31z" fill="#D8DBD8"/><path d="m752 619 1 4-4.49 3.71A61 61 0 0 0 745 630l-1-2 1-2h2v-2h2l.94-1.94C751 620 751 620 752 619" fill="#272827"/><path d="M628 662c2.62.38 2.62.38 5 1v3l-5 1-2-3z" fill="#D5D3D7"/><path d="m772 600 8 1-2 3c-1.95.29-1.95.29-4.12.19L770 604z" fill="#F5F7F5"/><path d="M503 23h8l1 2-1 2-11-1 3-1z" fill="#D0CFD2"/><path d="m752 639 6 5-1 4c-2.5-2.25-2.5-2.25-5-5z" fill="#E2E2E5"/><path d="M779 602q2.22.17 4.44.38l2.49.21 2.07.41 1 2-2 2c-5.75-1.62-5.75-1.62-8-5" fill="#E4E7E6"/><path d="m939 455-.81 1.5c-1.63 3.42-2.89 6.94-4.19 10.5l-2-3c.93-4.04 2.15-9 7-9" fill="#D2D6D5"/><path d="M721 292a30 30 0 0 1 4.62 6.12l1.36 2.2L728 302l-3 1c-2.83-3.8-4.57-6.19-4-11" fill="#E9ECE9"/><path d="m743 121 2 1c1.3 5.41.77 8.89-1 14h-1z" fill="#F1F3F2"/><path d="m696 51 2 1c-1 3-1 3-3.81 4.75C691 58 691 58 687 57z" fill="#1D1F22"/><path d="M736.94 31.19c3.08.82 4.78 1.62 7.06 3.8v2l-2-.86A90 90 0 0 0 731 33c3-2 3-2 5.94-1.81" fill="#E0E1E0"/><path d="M758 654h1c1.38 10.49 1.38 10.49-1 13.69l-2 2.31-2-1 1.44-1.88c2.14-4.28 2.29-8.39 2.56-13.12" fill="#CBCECB"/><path d="M912 607v2a53 53 0 0 1-9 3v-2l-4-1 4.25-1 2.39-.56C908 607 908 607 912 607" fill="#E8E8EA"/><path d="m770 440 1 3 2.38.38C776 444 776 444 778 446h-9z" fill="#F2F7F9"/><path d="M734 31c-3.04 2.02-4.19 2.32-7.69 2.62l-2.45.23L722 34l1-3c4.05-1.35 6.79-.62 11 0" fill="#F1F1F3"/><path d="m504 594 3.38 2.81 1.89 1.58C511 600 511 600 513 603l-3 1-3-3.31-1.69-1.87C504 597 504 597 504 594" fill="#CDD0CE"/><path d="M829.69 569.25c2.3.75 2.3.75 3.3 1.75q3.5.55 7 1v1l-17-1c4-3 4-3 6.7-2.75" fill="#BFBEC1"/><path d="m924 551 3 1a283 283 0 0 1-3.81 3.06l-2.15 1.73L919 558l-3-1c2.62-2.12 5.2-4.13 8-6" fill="#D3D4D6"/><path d="m914 556 3 1v2c-5.18 3.22-5.18 3.22-7 4l-3-1 2.38-1.88C912 558 912 558 914 556" fill="#E1E0E3"/><path d="M743 108h1l1 14h-1l-1 5h-1z" fill="#ACADAD"/><path d="M492 654h1l1 12-3-2c-.33-2.13-.33-2.13-.25-4.56l.05-2.44c.2-2 .2-2 1.2-3" fill="#2F2F31"/><path d="M465 500h1l.44 3.25c.56 3.75.56 3.75 1.18 5.94.46 2.21.06 3.68-.62 5.81-2.35-3.53-2.21-5.03-2.12-9.19l.05-3.29z" fill="#0C0E10"/><path d="M931 464h2c.29 7.43.29 7.43-2 11-2-3-2-3-1.69-5.5q.77-2.77 1.69-5.5" fill="#F2F4F7"/><path d="M482 224c1.88 3.27 2.49 6.28 3 10l-3-1c-1.37-3.2-.83-5.7 0-9" fill="#E4E1E4"/><path d="M639 679h1q.33 2.68.62 5.38l.36 3.02.02 2.6-2 2q-.3-2.12-.56-4.25l-.32-2.39c-.12-2.37.18-4.11.88-6.36" fill="#D0D0D4"/><path d="M490 654h1l1 13-4-3z" fill="#F2F2F3"/><path d="m745 633 1 2 1.94.38c2.06.62 2.06.62 3.31 2.68L752 640c-3 0-3 0-4.39-1.31L744 634z" fill="#D3D2D5"/><path d="M511 603c3.27.56 4.83 1.5 7 4l-1 3a169 169 0 0 1-6-5z" fill="#E6E6E8"/><path d="M807 474h3l.12 4.38.08 2.46C810 483 810 483 808 485z" fill="#EAECEC"/><path d="m481 440 3 2-9 6c0-3 0-3 1.31-4.39z" fill="#DEDEE1"/><path d="M608 649h5l-2 2v3l-1-1-2 4c-1.12-5.75-1.12-5.75 0-8" fill="#DEDDDE"/><path d="m511 599 3.38 2.38 1.89 1.33C518 604 518 604 520 606l-1 3-4-3.88-2.25-2.17C511 601 511 601 511 599" fill="#0B0C0D"/><path d="M757 355c2.19 3.28 3 6.21 4 10l-2 1c-3.08-6.4-3.08-6.4-2.69-9.44z" fill="#222324"/><path d="M735 235c1 2 1 2 .25 5.06L734 243l-3 1c.62-5.54.62-5.54 2.56-7.88z" fill="#DADADC"/><path d="M536 672h6v2l-9 2v-2h3z" fill="#EDEDEB"/><path d="m770 600 2 1c-1.75 2.94-1.75 2.94-4 6l-4 1z" fill="#E4E5E3"/><path d="m957 580 1 3c-1.75 2.06-1.75 2.06-4 4l-4-1z" fill="#CBCCCE"/><path d="M786 447c3.8.54 5.47 2.2 8 5l-3 1a295 295 0 0 1-5-5z" fill="#E7E8EB"/><path d="m494 432 3 1v6h-5v-2h3z" fill="#EEEEF0"/><path d="m652 74 6 1v3h-8z" fill="#C4C4C7"/><path d="M544 700c2.47 1.15 4.05 2.05 6 4h-8z" fill="#EFEFF2"/><path d="m609 684 3 2-1 6-3 1z" fill="#CBCCCD"/><path d="M500 354c.93 2.61 1.15 3.64.06 6.25L499 362h-2q.39-3.51 1-7z" fill="#262827"/><path d="M822 613h9l-1 3c-3.37-.55-5.08-1.05-8-3" fill="#F0F1F3"/><path d="M960 575c0 3 0 3-1.31 4.39L954 583l-2-2 2.88-1.88C958 577 958 577 960 575" fill="#050707"/><path d="m551 669-5 5v-3l-2-1c2.46-1.23 4.28-1.07 7-1" fill="#BDBEC4"/><path d="M499 589c1.94.69 1.94.69 4 2 .75 2.62.75 2.62 1 5a139 139 0 0 1-5-5z" fill="#DCDCDE"/><path d="m981 543 1 3-5 5q.9-3.53 2-7z" fill="#CED1CF"/><path d="M464 504h1l1 12-1-2h-2z" fill="#B1B2B2"/><path d="M770 432c1.88 3.77 2.22 5.03 2 9l-3 1z" fill="#D1D6D5"/></svg>