<svg style="background:transparent" version="1.1" xmlns="http://www.w3.org/2000/svg" viewBox="0 0 1248 704"><path d="m963.84 87.76 2.29-.02 4.8-.04q2.43 0 4.84-.06c15.46-.28 31.79 1.07 43.55 12.23 5.78 6.2 7.25 10.9 7.04 19.35-.47 3.64-1.72 5.3-4.36 7.78l-1.43 2.7c-1.93 2.84-3.34 3.22-6.57 4.3l-2.14 1.51c-3.67 1.91-7.06 2.1-11.11 2.24l-2.16.13c-4.52.22-8.8-.08-13.27-.64-4.04-.42-8.07-.39-12.13-.37h-7.13c-2.13.13-4 .56-6.06 1.13l-4.12.87c-11.04 2.5-19.54 6.24-28.75 12.88C924 154 924 154 921.75 155c-2.57 1.47-3.31 3.4-4.75 6a612 612 0 0 1-4.6 6.72c-4.07 6.62-6.21 14.66-7.4 22.28l-.96 2.65c-1.22 3.93-1.68 7.7-2.1 11.8-1.66 15.43-1.66 15.43-3.44 19.61a31 31 0 0 0-2 7.06c-.6 3.42-1.9 5.8-3.5 8.88l-1.8 3.55c-3.43 6.67-6.87 12.86-11.75 18.62-1.45 1.83-1.45 1.83-2.36 3.8-1.45 2.7-3.34 4.27-5.65 6.28-5.35 4.66-5.35 4.66-7.5 6.72-4.82 4.58-10.07 8.27-15.62 11.9l-2.2 1.45A45 45 0 0 1 834 298q-2.33.96-4.62 2l-2.23 1a205 205 0 0 0-6.15 3l.99 1.76c4.06 7.25 7.6 14.52 10.75 22.22 1.08 2.6 2.25 5.11 3.45 7.64 2.1 4.67 2.94 9.36 3.8 14.38q.52 2.4 1.08 4.81.8 3.52 1.5 7.06C843 364 843 364 844 367v6q.48 3 1 6c.73 5.37 1 10.57 1 16l.5 2.23c.85 4.7.52 9.42.44 14.17.06 3.6.06 3.6.56 5.95.94 4.96.54 10.05.46 15.08-.04 5.31.33 10.31 1.04 15.57a97 97 0 0 1 0 5.12 37 37 0 0 0 .47 7.6c.83 5.1.93 10.22 1.14 15.38.19 4.08.5 7.9 1.39 11.9q.5 3.87.94 7.75A127 127 0 0 0 856 513l.88 3.37c1.22 3.94 2.62 7.8 4.05 11.66 1.45 4.02 2.8 8.07 4.13 12.12q.87 2.64 1.79 5.25a92 92 0 0 1 3.72 14.43C871 562 871 562 872 565q.32 2.33.54 4.67l.26 2.76.27 2.88.27 2.84c.36 3.82.66 7.55.66 11.4 0 2.45 0 2.45 1 4.45q.14 4.11.14 8.22v2.46l-.01 5.17v15.33c-.01 5.6-.01 5.6-1.13 7.82a242 242 0 0 0-.56 7.62l-.13 2.14L873 648l3.24-.17c5.86.01 11.36 1.45 17 2.86l3.38.83c20.9 5.3 20.9 5.3 27.38 14.48-1.6 5.2-4.15 7.4-8.83 10.03-11.5 5.64-24.8 6.6-37.36 7.85q-3.62.37-7.22.76c-18.67 1.95-37.32 2.6-56.1 2.61h-3.05c-33.71-.02-67.35-2.27-101-4.3l-2.22-.14q-10.77-.64-21.54-1.33c-27.06-1.72-54.12-2.7-81.24-2.67h-2.95c-83.73.17-167.16 9.72-250.16 19.8l-16.9 2.02-3.02.37c-17 2.04-33.72 3.2-50.85 3.3l-5.81.04q-4.13.03-8.27.02l-2.5.03a39 39 0 0 1-14.08-2.72 20 20 0 0 0-6.83-.98c-5.81-.43-10.66-2.92-15.07-6.69v-3l-.75-3.38c-.25-3.62-.25-3.62 1.57-6.56C232 679 232 679 234 679l1-7-2.1 1a513 513 0 0 1-8.9 4l-2.2 1.03c-9.05 3.72-20.44 2.16-29.52-.97-7.21-3.37-13.18-8.65-16.28-16.06-1.91-6.59-1.15-12.94 2-19 6.1-8.16 13.54-16.13 24-18 3.02.01 6.02.13 9.03.26 3.48-.3 5.12-1.29 7.97-3.26l2.45-1.39a74 74 0 0 0 8.43-6.36l1.68-1.43c11.8-10.18 22.8-21.44 32.03-34 1.93-2.49 4.16-4.63 6.4-6.82a189 189 0 0 0 3-4l4.15-4.82C299 536.65 299 536.65 299 531l-1.9-.37-2.47-.5-2.46-.5C290 529 290 529 288 527q-2.48-1.03-5-2c-15-7.58-26.2-19.55-31.56-35.5L250 485l-1.06-3c-4.1-13.09-6.18-27.4-7.8-40.99l-.5-4.06-.25-2.1c-3.76-30.97-3.76-30.97-6.4-38.85q-.29-3.4-.5-6.8a80 80 0 0 0-1.01-10.04c-1.98-13.03-2.26-29.04 5.52-40.16 3.14-3.3 6.07-4.89 10.68-5.2 9.55.84 19.25 7.68 27.5 12.2 17.74 9.55 17.74 9.55 27.26 7.12q3.21-1 6.39-2.13c3.2-1 6.23-1.54 9.55-1.99 3.72-.54 7.36-1.1 11-2.06a69 69 0 0 1 13.93-2.12c12.52-.67 12.52-.67 17.69-3.82q2.07-2.46 4-5h3l.3-1.83c.84-2.59 1.69-3.29 3.83-4.92a51 51 0 0 0 7.19-7.06c11.52-13.36 11.52-13.36 18.37-14.5 5.62-.08 9.2 2.45 13.35 6.1 5.16 5.8 7.2 14.5 9.28 21.85q1.02 3.43 2.25 6.8c1.46 4.28 2.22 8.58 2.97 13.04.55 2.96 1.43 5.7 2.46 8.52q.54 2 1 4l2.69-1.88a43 43 0 0 1 8.3-4.12l2.29-1.37c3.84-2.3 7.86-4.18 11.88-6.13A46 46 0 0 0 462 350c4.43-2.82 9.1-5.06 13.83-7.3A51 51 0 0 0 486 336q2.4-1.33 4.88-2.5c4.16-2.02 8.13-4.18 12.12-6.5l6.7-3.73q2.17-1.2 4.32-2.42c4.68-2.66 9.46-5.1 14.3-7.48a420 420 0 0 0 18.75-9.93 290 290 0 0 1 21.39-10.82c6.99-3.2 13.84-6.73 20.68-10.23a85 85 0 0 1 9.03-3.65C600 278 600 278 603 276q3-1.02 6-2l1.93-.97a44 44 0 0 1 6.26-2.47q1.18-.37 2.39-.78 1.2-.37 2.42-.78l4.5-1.5 11.25-3.75q2.28-.75 4.57-1.54c11.66-3.93 11.66-3.93 17.25-4.7 3.43-.5 3.43-.5 6.14-1.48 3.78-1.18 7.5-1.68 11.42-2.09 7.45-.83 7.45-.83 9.77-1.44 9.1-2.18 19-1.66 28.29-1.63h10.41c2.4.13 2.4.13 3.4 1.13l3.63-.06c4.1-.06 7.44.86 11.37 2.06q2.02.3 4.07.5A48 48 0 0 1 758 257l3.32.44c5.52.84 10.6 2.77 15.8 4.75 6.8 1.92 11.78.36 18.15-2.13a84 84 0 0 1 6.92-2.3c4.53-1.5 8.74-3.58 13-5.7l2.06-1.02a79 79 0 0 0 9.12-5.3C829 244 829 244 831 244l.79-1.77a24 24 0 0 1 4.7-5.98l1.86-1.86C840 233 840 233 842 233l.82-3.25c1.18-3.75 1.18-3.75 2.66-5.68 1.7-2.32 2.34-4.24 3.09-7 .7-2.6 1.43-5.06 2.49-7.54 1.03-2.76 1.3-5.1 1.5-8.03.25-3.59.7-6.98 1.44-10.5q.28-2.02.5-4.06c.36-2.8.8-5.24 1.5-7.94l.44-3.3c.74-4.87 1.79-9.2 4.06-13.58a27 27 0 0 0 2.44-7.62c.85-4.23 2.5-6.99 5.06-10.5l.88-2.38c2.64-6.15 6.92-10.54 12.12-14.62q1.53-2.48 3-5c2.5-2.8 2.5-2.8 5-5h3l.63-1.75c2.2-3.6 5.63-5.39 9.35-7.23a53 53 0 0 0 5.46-3.27C920.94 96.23 935.63 92.43 951 89l2.26-.54c3.53-.59 7-.66 10.58-.7M234 687l1 2Z" fill="#111311"/><path d="m963.84 87.76 2.29-.02 4.8-.04q2.43 0 4.84-.06c15.46-.28 31.79 1.07 43.55 12.23 5.78 6.2 7.25 10.9 7.04 19.35-.47 3.64-1.72 5.3-4.36 7.78l-1.43 2.7c-1.93 2.84-3.34 3.22-6.57 4.3l-2.14 1.51c-3.67 1.91-7.06 2.1-11.11 2.24l-2.16.13c-4.52.22-8.8-.08-13.27-.64-4.04-.42-8.07-.39-12.13-.37h-7.13c-2.13.13-4 .56-6.06 1.13l-4.12.87c-11.04 2.5-19.54 6.24-28.75 12.88C924 154 924 154 921.75 155c-2.57 1.47-3.31 3.4-4.75 6a612 612 0 0 1-4.6 6.72c-4.07 6.62-6.21 14.66-7.4 22.28l-.96 2.65c-1.22 3.93-1.68 7.7-2.1 11.8-1.66 15.43-1.66 15.43-3.44 19.61a31 31 0 0 0-2 7.06c-.6 3.42-1.9 5.8-3.5 8.88l-1.8 3.55c-3.43 6.67-6.87 12.86-11.75 18.62-1.45 1.83-1.45 1.83-2.36 3.8-1.45 2.7-3.34 4.27-5.65 6.28-5.35 4.66-5.35 4.66-7.5 6.72-4.82 4.58-10.07 8.27-15.62 11.9l-2.2 1.45A45 45 0 0 1 834 298q-2.33.96-4.62 2l-2.23 1a205 205 0 0 0-6.15 3l.99 1.76c4.06 7.25 7.6 14.52 10.75 22.22 1.08 2.6 2.25 5.11 3.45 7.64 2.1 4.67 2.94 9.36 3.8 14.38q.52 2.4 1.08 4.81.8 3.52 1.5 7.06C843 364 843 364 844 367v6q.48 3 1 6c.73 5.37 1 10.57 1 16l.5 2.23c.85 4.7.52 9.42.44 14.17.06 3.6.06 3.6.56 5.95.94 4.96.54 10.05.46 15.08-.04 5.31.33 10.31 1.04 15.57a97 97 0 0 1 0 5.12 37 37 0 0 0 .47 7.6c.83 5.1.93 10.22 1.14 15.38.19 4.08.5 7.9 1.39 11.9q.5 3.87.94 7.75A127 127 0 0 0 856 513l.88 3.37c1.22 3.94 2.62 7.8 4.05 11.66 1.45 4.02 2.8 8.07 4.13 12.12q.87 2.64 1.79 5.25a92 92 0 0 1 3.72 14.43C871 562 871 562 872 565q.32 2.33.54 4.67l.26 2.76.27 2.88.27 2.84c.36 3.82.66 7.55.66 11.4 0 2.45 0 2.45 1 4.45q.14 4.11.14 8.22v2.46l-.01 5.17v15.33c-.01 5.6-.01 5.6-1.13 7.82a242 242 0 0 0-.56 7.62l-.13 2.14L873 648l3.24-.17c5.86.01 11.36 1.45 17 2.86l3.38.83c20.9 5.3 20.9 5.3 27.38 14.48-1.6 5.2-4.15 7.4-8.83 10.03-11.5 5.64-24.8 6.6-37.36 7.85q-3.62.37-7.22.76c-18.67 1.95-37.32 2.6-56.1 2.61h-3.05c-33.71-.02-67.35-2.27-101-4.3l-2.22-.14q-10.77-.64-21.54-1.33c-27.06-1.72-54.12-2.7-81.24-2.67h-2.95c-83.73.17-167.16 9.72-250.16 19.8l-16.9 2.02-3.02.37c-17 2.04-33.72 3.2-50.85 3.3l-5.81.04q-4.13.03-8.27.02l-2.5.03a39 39 0 0 1-14.08-2.72 20 20 0 0 0-6.83-.98c-5.81-.43-10.66-2.92-15.07-6.69v-3l-.75-3.38c-.25-3.62-.25-3.62 1.57-6.56C232 679 232 679 234 679l1-7-2.1 1a513 513 0 0 1-8.9 4l-2.2 1.03c-9.05 3.72-20.44 2.16-29.52-.97-7.21-3.37-13.18-8.65-16.28-16.06-1.91-6.59-1.15-12.94 2-19 6.1-8.16 13.54-16.13 24-18 3.02.01 6.02.13 9.03.26 3.48-.3 5.12-1.29 7.97-3.26l2.45-1.39a74 74 0 0 0 8.43-6.36l1.68-1.43c11.8-10.18 22.8-21.44 32.03-34 1.93-2.49 4.16-4.63 6.4-6.82a189 189 0 0 0 3-4l4.15-4.82C299 536.65 299 536.65 299 531l-1.9-.37-2.47-.5-2.46-.5C290 529 290 529 288 527q-2.48-1.03-5-2c-15-7.58-26.2-19.55-31.56-35.5L250 485l-1.06-3c-4.1-13.09-6.18-27.4-7.8-40.99l-.5-4.06-.25-2.1c-3.76-30.97-3.76-30.97-6.4-38.85q-.29-3.4-.5-6.8a80 80 0 0 0-1.01-10.04c-1.98-13.03-2.26-29.04 5.52-40.16 3.14-3.3 6.07-4.89 10.68-5.2 9.55.84 19.25 7.68 27.5 12.2 17.74 9.55 17.74 9.55 27.26 7.12q3.21-1 6.39-2.13c3.2-1 6.23-1.54 9.55-1.99 3.72-.54 7.36-1.1 11-2.06a69 69 0 0 1 13.93-2.12c12.52-.67 12.52-.67 17.69-3.82q2.07-2.46 4-5h3l.3-1.83c.84-2.59 1.69-3.29 3.83-4.92a51 51 0 0 0 7.19-7.06c11.52-13.36 11.52-13.36 18.37-14.5 5.62-.08 9.2 2.45 13.35 6.1 5.16 5.8 7.2 14.5 9.28 21.85q1.02 3.43 2.25 6.8c1.46 4.28 2.22 8.58 2.97 13.04.55 2.96 1.43 5.7 2.46 8.52q.54 2 1 4l2.69-1.88a43 43 0 0 1 8.3-4.12l2.29-1.37c3.84-2.3 7.86-4.18 11.88-6.13A46 46 0 0 0 462 350c4.43-2.82 9.1-5.06 13.83-7.3A51 51 0 0 0 486 336q2.4-1.33 4.88-2.5c4.16-2.02 8.13-4.18 12.12-6.5l6.7-3.73q2.17-1.2 4.32-2.42c4.68-2.66 9.46-5.1 14.3-7.48a420 420 0 0 0 18.75-9.93 290 290 0 0 1 21.39-10.82c6.99-3.2 13.84-6.73 20.68-10.23a85 85 0 0 1 9.03-3.65C600 278 600 278 603 276q3-1.02 6-2l1.93-.97a44 44 0 0 1 6.26-2.47q1.18-.37 2.39-.78 1.2-.37 2.42-.78l4.5-1.5 11.25-3.75q2.28-.75 4.57-1.54c11.66-3.93 11.66-3.93 17.25-4.7 3.43-.5 3.43-.5 6.14-1.48 3.78-1.18 7.5-1.68 11.42-2.09 7.45-.83 7.45-.83 9.77-1.44 9.1-2.18 19-1.66 28.29-1.63h10.41c2.4.13 2.4.13 3.4 1.13l3.63-.06c4.1-.06 7.44.86 11.37 2.06q2.02.3 4.07.5A48 48 0 0 1 758 257l3.32.44c5.52.84 10.6 2.77 15.8 4.75 6.8 1.92 11.78.36 18.15-2.13a84 84 0 0 1 6.92-2.3c4.53-1.5 8.74-3.58 13-5.7l2.06-1.02a79 79 0 0 0 9.12-5.3C829 244 829 244 831 244l.79-1.77a24 24 0 0 1 4.7-5.98l1.86-1.86C840 233 840 233 842 233l.82-3.25c1.18-3.75 1.18-3.75 2.66-5.68 1.7-2.32 2.34-4.24 3.09-7 .7-2.6 1.43-5.06 2.49-7.54 1.03-2.76 1.3-5.1 1.5-8.03.25-3.59.7-6.98 1.44-10.5q.28-2.02.5-4.06c.36-2.8.8-5.24 1.5-7.94l.44-3.3c.74-4.87 1.79-9.2 4.06-13.58a27 27 0 0 0 2.44-7.62c.85-4.23 2.5-6.99 5.06-10.5l.88-2.38c2.64-6.15 6.92-10.54 12.12-14.62q1.53-2.48 3-5c2.5-2.8 2.5-2.8 5-5h3l.63-1.75c2.2-3.6 5.63-5.39 9.35-7.23a53 53 0 0 0 5.46-3.27C920.94 96.23 935.63 92.43 951 89l2.26-.54c3.53-.59 7-.66 10.58-.7M942 94l-3.91.81c-25.42 6.02-50.06 21.32-64 43.77-9.96 16.78-14.18 33.65-16.74 52.83-2.13 15.77-5.14 29.87-15.35 42.6q-.97 1.23-1.95 2.51c-11.88 14.33-29.51 20.98-46.61 26.98l-2.23.81c-7.52 2.52-13.44.74-20.83-1.62-9.98-3.05-20.1-5-30.38-6.69l-2.17-.37c-79.05-12.76-159.97 31.58-226.34 69.55a880 880 0 0 1-20.42 11.26 788 788 0 0 0-27.31 15.45A817 817 0 0 1 444 363.12l-2.4 1.33A403 403 0 0 1 427 372l-.36-3.4c-1.58-12.5-5.21-24.88-9.07-36.85l-.8-2.56c-2.34-6.98-5.5-14-11.77-18.19-4-.9-7.55-.78-11.2 1.18-7.9 5.94-15.03 13.5-21.42 21.01-5.93 6.95-11.32 12.55-20.54 13.61l-3.87.45q-1.01.14-2.06.25c-15.06 1.8-30.46 3.68-44.91 8.5-12.54 1.37-24.26-7.1-34.9-12.8-14.35-7.66-14.35-7.66-22.1-6.2-5.11 3-6.67 5.83-8.4 11.36-1.1 4.86-1.03 9.68-.97 14.64l.02 3.42c.27 15.96 2.46 31.65 5.6 47.27 1.03 5.5 1.54 11.06 2.13 16.62 7.1 65.21 7.1 65.21 29.62 84.7 9.17 7.31 21.02 14.24 33 14-3.97 6.12-8.17 12-12.68 17.74l-1.85 2.37a527 527 0 0 1-15.07 18.26l-4.5 5.25a3221 3221 0 0 1-10.9 12.71 204 204 0 0 1-11.82 12.44 105 105 0 0 0-5.55 6.16c-7.65 8.84-18.44 20.74-30.4 22.67q-3.87.2-7.74.27c-7.66.25-13.12 2.8-18.7 8.01-4.9 5.77-8.2 13.25-8.06 20.86a23.6 23.6 0 0 0 7.34 14.56c9.04 6.85 19.94 8.2 30.93 6.7 8.8-2.15 16.5-5.99 24-11l-1.47 2.52c-1.73 3.92-1.96 6.7-1.96 10.97l-.06 3.84c.7 5.16 3 8.16 6.62 11.78 12.2 7.97 26.2 9.48 40.25 6.57 15.87-3.99 30.09-13.74 43.68-22.52A649 649 0 0 1 343.5 669q10.66-6.44 21.19-13.13a706 706 0 0 1 18.94-11.62A937 937 0 0 0 434 612l1.98-1.36a359 359 0 0 0 19.82-14.4l2.4-1.92q2.3-1.83 4.57-3.69c6.4-5.14 12.49-7.3 20.42-9.19 49.49-12.75 95.86-37.78 140.8-61.44l2.86-1.5 9.86-5.2q7.09-3.74 14.23-7.36l3.28-1.66A28 28 0 0 1 661 502l.38 2.16c6.69 30.23 33.9 59.37 58.06 76.84 28.97 21.05 28.97 21.05 31.56 34a256 256 0 0 1 .82 10.3l.18 2.7-2.87-.25c-6.21 0-11.84 2.81-17 6.06-6.1 6.28-7.51 13-7.4 21.5.4 3.9 1.59 5.87 4.27 8.7 9.33 6.8 19.9 7.26 31.07 7.3l3.04.02c9.79-.1 20.29-.45 27.89-7.33a51 51 0 0 0 5-8l2.32-4 1.68-3-1.5 2.94A21.7 21.7 0 0 0 797 665c2.19 5.1 5.32 9.02 10 12l1.76 1.12c9.7 5.31 22.68 3.72 33 .98 9.12-3.1 17.76-6.85 23.24-15.1l1.55-1.67c2.15-3.44 2.5-6.93 3.08-10.89l.37-2.27c1.89-12.14 2.2-24.16 2.19-36.42v-2.55c-.07-26.58-2.9-50.55-11.95-75.66C854.44 518.48 851.1 503 849 486l-.5-3.76c-1.88-14.59-2.33-29.3-2.97-43.98l-.66-14.82-.1-2.07-.44-10.06-.17-3.78-.3-6.69c-.84-19.02-.84-19.02-2.11-28.34l-.38-2.88c-2.97-20.72-9.43-39.45-19.03-57.97l-1.26-2.45-1.14-2.17c-.92-2-1.48-3.88-1.94-6.03l2.62-.74c27.8-8.52 51.3-25.55 65.38-51.26 8-15.24 11.58-31.32 14-48.25 2.69-18.69 7.87-37.88 23.6-49.98 20.14-14.4 39.17-16.22 63.19-16.2q4.44-.01 8.89-.07l2.69.03c7.05-.09 14.17-1.44 19.58-6.27 4.36-4.77 6.7-9.46 6.49-16.08-1.21-6.1-5.53-10.85-10.37-14.49-11.37-6.62-23.85-7.32-36.66-7.16q-3.7.04-7.4.01c-9.76.01-18.52 1.01-28.01 3.46M234 687l1 2Z" fill="#BABDBA"/><path d="m661 502 1.25 3.23c7.62 19.3 18.28 35.99 31.75 51.77l2.06 2.44c6.93 8.01 14.81 14.37 23.38 20.56 30.1 21.88 30.1 21.88 32.56 35q.1 3.38.06 6.75l-.02 3.55-.04 2.7-2.05.23c-7.51 1.06-12.7 3.57-18.95 7.77l-2 1v-2l-3.26-.08-12.5-.29-5.31-.13-7.84-.18-2.81-.07q-8.27-.21-16.54-.5c-20.46-.71-40.9-.99-61.36-1h-2.5c-33.38-.02-66.57 1.09-99.88 3.25l-3.45.22c-44.14 2.83-88.26 7.12-131.91 14.42-2.64.36-2.64.36-6.64.36 1.27-3.8 2.48-4.18 5.87-6.2l3.14-1.89 3.43-2.03 7.14-4.34 1.86-1.12a715 715 0 0 0 55.94-37.61l2.05-1.53a94 94 0 0 0 8.09-6.64c5.79-5.4 11.21-6.86 18.73-8.52C531.27 569.8 578.99 542.69 624 519l2.84-1.5 7.6-4L643 509l2.08-1.09q2.92-1.53 5.86-3.03l3.27-1.7C657 502 657 502 661 502" fill="#ECEEEC"/><path d="m963.84 87.76 2.29-.02 4.8-.04q2.43 0 4.84-.06c15.46-.28 31.79 1.07 43.55 12.23 5.78 6.2 7.25 10.9 7.04 19.35-.47 3.64-1.72 5.3-4.36 7.78l-1.43 2.7c-1.93 2.84-3.34 3.22-6.57 4.3l-2.14 1.51c-3.67 1.91-7.06 2.1-11.11 2.24l-2.16.13c-4.52.22-8.8-.08-13.27-.64-4.04-.42-8.07-.39-12.13-.37h-7.13c-2.13.13-4 .56-6.06 1.13l-4.12.87c-11.04 2.5-19.54 6.24-28.75 12.88C924 154 924 154 921.75 155c-2.57 1.47-3.31 3.4-4.75 6a612 612 0 0 1-4.6 6.72c-4.07 6.62-6.21 14.66-7.4 22.28l-.96 2.65c-1.22 3.93-1.68 7.7-2.1 11.8-1.66 15.43-1.66 15.43-3.44 19.61a31 31 0 0 0-2 7.06c-.6 3.42-1.9 5.8-3.5 8.88l-1.8 3.55c-3.43 6.67-6.87 12.86-11.75 18.62-1.45 1.83-1.45 1.83-2.36 3.8-1.45 2.7-3.34 4.27-5.65 6.28-5.35 4.66-5.35 4.66-7.5 6.72-4.82 4.58-10.07 8.27-15.62 11.9l-2.2 1.45A45 45 0 0 1 834 298q-2.33.96-4.62 2l-2.23 1a205 205 0 0 0-6.15 3l.99 1.76c4.06 7.25 7.6 14.52 10.75 22.22 1.08 2.6 2.25 5.11 3.45 7.64 2.1 4.67 2.94 9.36 3.8 14.38q.52 2.4 1.08 4.81.8 3.52 1.5 7.06C843 364 843 364 844 367v6q.48 3 1 6c.73 5.37 1 10.57 1 16l.5 2.23c.85 4.7.52 9.42.44 14.17.06 3.6.06 3.6.56 5.95.94 4.96.54 10.05.46 15.08-.04 5.31.33 10.31 1.04 15.57a97 97 0 0 1 0 5.12 37 37 0 0 0 .47 7.6c.83 5.1.93 10.22 1.14 15.38.19 4.08.5 7.9 1.39 11.9q.5 3.87.94 7.75A127 127 0 0 0 856 513l.88 3.37c1.22 3.94 2.62 7.8 4.05 11.66 1.45 4.02 2.8 8.07 4.13 12.12q.87 2.64 1.79 5.25a92 92 0 0 1 3.72 14.43C871 562 871 562 872 565q.32 2.33.54 4.67l.26 2.76.27 2.88.27 2.84c.36 3.82.66 7.55.66 11.4 0 2.45 0 2.45 1 4.45q.14 4.11.14 8.22v2.46l-.01 5.17v15.33c-.01 5.6-.01 5.6-1.13 7.82a242 242 0 0 0-.56 7.62l-.13 2.14L873 648l3.24-.17c5.86.01 11.36 1.45 17 2.86l3.38.83c20.9 5.3 20.9 5.3 27.38 14.48-1.6 5.2-4.15 7.4-8.83 10.03-11.5 5.64-24.8 6.6-37.36 7.85q-3.62.37-7.22.76c-18.67 1.95-37.32 2.6-56.1 2.61h-3.05c-33.71-.02-67.35-2.27-101-4.3l-2.22-.14q-10.77-.64-21.54-1.33c-27.06-1.72-54.12-2.7-81.24-2.67h-2.95c-83.73.17-167.16 9.72-250.16 19.8l-16.9 2.02-3.02.37c-17 2.04-33.72 3.2-50.85 3.3l-5.81.04q-4.13.03-8.27.02l-2.5.03a39 39 0 0 1-14.08-2.72 20 20 0 0 0-6.83-.98c-5.81-.43-10.66-2.92-15.07-6.69v-3l-.75-3.38c-.25-3.62-.25-3.62 1.57-6.56C232 679 232 679 234 679l1-7-2.1 1a513 513 0 0 1-8.9 4l-2.2 1.03c-9.05 3.72-20.44 2.16-29.52-.97-7.21-3.37-13.18-8.65-16.28-16.06-1.91-6.59-1.15-12.94 2-19 6.1-8.16 13.54-16.13 24-18 3.02.01 6.02.13 9.03.26 3.48-.3 5.12-1.29 7.97-3.26l2.45-1.39a74 74 0 0 0 8.43-6.36l1.68-1.43c11.8-10.18 22.8-21.44 32.03-34 1.93-2.49 4.16-4.63 6.4-6.82a189 189 0 0 0 3-4l4.15-4.82C299 536.65 299 536.65 299 531l-1.9-.37-2.47-.5-2.46-.5C290 529 290 529 288 527q-2.48-1.03-5-2c-15-7.58-26.2-19.55-31.56-35.5L250 485l-1.06-3c-4.1-13.09-6.18-27.4-7.8-40.99l-.5-4.06-.25-2.1c-3.76-30.97-3.76-30.97-6.4-38.85q-.29-3.4-.5-6.8a80 80 0 0 0-1.01-10.04c-1.98-13.03-2.26-29.04 5.52-40.16 3.14-3.3 6.07-4.89 10.68-5.2 9.55.84 19.25 7.68 27.5 12.2 17.74 9.55 17.74 9.55 27.26 7.12q3.21-1 6.39-2.13c3.2-1 6.23-1.54 9.55-1.99 3.72-.54 7.36-1.1 11-2.06a69 69 0 0 1 13.93-2.12c12.52-.67 12.52-.67 17.69-3.82q2.07-2.46 4-5h3l.3-1.83c.84-2.59 1.69-3.29 3.83-4.92a51 51 0 0 0 7.19-7.06c11.52-13.36 11.52-13.36 18.37-14.5 5.62-.08 9.2 2.45 13.35 6.1 5.16 5.8 7.2 14.5 9.28 21.85q1.02 3.43 2.25 6.8c1.46 4.28 2.22 8.58 2.97 13.04.55 2.96 1.43 5.7 2.46 8.52q.54 2 1 4l2.69-1.88a43 43 0 0 1 8.3-4.12l2.29-1.37c3.84-2.3 7.86-4.18 11.88-6.13A46 46 0 0 0 462 350c4.43-2.82 9.1-5.06 13.83-7.3A51 51 0 0 0 486 336q2.4-1.33 4.88-2.5c4.16-2.02 8.13-4.18 12.12-6.5l6.7-3.73q2.17-1.2 4.32-2.42c4.68-2.66 9.46-5.1 14.3-7.48a420 420 0 0 0 18.75-9.93 290 290 0 0 1 21.39-10.82c6.99-3.2 13.84-6.73 20.68-10.23a85 85 0 0 1 9.03-3.65C600 278 600 278 603 276q3-1.02 6-2l1.93-.97a44 44 0 0 1 6.26-2.47q1.18-.37 2.39-.78 1.2-.37 2.42-.78l4.5-1.5 11.25-3.75q2.28-.75 4.57-1.54c11.66-3.93 11.66-3.93 17.25-4.7 3.43-.5 3.43-.5 6.14-1.48 3.78-1.18 7.5-1.68 11.42-2.09 7.45-.83 7.45-.83 9.77-1.44 9.1-2.18 19-1.66 28.29-1.63h10.41c2.4.13 2.4.13 3.4 1.13l3.63-.06c4.1-.06 7.44.86 11.37 2.06q2.02.3 4.07.5A48 48 0 0 1 758 257l3.32.44c5.52.84 10.6 2.77 15.8 4.75 6.8 1.92 11.78.36 18.15-2.13a84 84 0 0 1 6.92-2.3c4.53-1.5 8.74-3.58 13-5.7l2.06-1.02a79 79 0 0 0 9.12-5.3C829 244 829 244 831 244l.79-1.77a24 24 0 0 1 4.7-5.98l1.86-1.86C840 233 840 233 842 233l.82-3.25c1.18-3.75 1.18-3.75 2.66-5.68 1.7-2.32 2.34-4.24 3.09-7 .7-2.6 1.43-5.06 2.49-7.54 1.03-2.76 1.3-5.1 1.5-8.03.25-3.59.7-6.98 1.44-10.5q.28-2.02.5-4.06c.36-2.8.8-5.24 1.5-7.94l.44-3.3c.74-4.87 1.79-9.2 4.06-13.58a27 27 0 0 0 2.44-7.62c.85-4.23 2.5-6.99 5.06-10.5l.88-2.38c2.64-6.15 6.92-10.54 12.12-14.62q1.53-2.48 3-5c2.5-2.8 2.5-2.8 5-5h3l.63-1.75c2.2-3.6 5.63-5.39 9.35-7.23a53 53 0 0 0 5.46-3.27C920.94 96.23 935.63 92.43 951 89l2.26-.54c3.53-.59 7-.66 10.58-.7M942 94l-3.91.81c-25.42 6.02-50.06 21.32-64 43.77-9.96 16.78-14.18 33.65-16.74 52.83-2.13 15.77-5.14 29.87-15.35 42.6q-.97 1.23-1.95 2.51c-11.88 14.33-29.51 20.98-46.61 26.98l-2.23.81c-7.52 2.52-13.44.74-20.83-1.62-9.98-3.05-20.1-5-30.38-6.69l-2.17-.37c-79.05-12.76-159.97 31.58-226.34 69.55a880 880 0 0 1-20.42 11.26 788 788 0 0 0-27.31 15.45A817 817 0 0 1 444 363.12l-2.4 1.33A403 403 0 0 1 427 372l-.36-3.4c-1.58-12.5-5.21-24.88-9.07-36.85l-.8-2.56c-2.34-6.98-5.5-14-11.77-18.19-4-.9-7.55-.78-11.2 1.18-7.9 5.94-15.03 13.5-21.42 21.01-5.93 6.95-11.32 12.55-20.54 13.61l-3.87.45q-1.01.14-2.06.25c-15.06 1.8-30.46 3.68-44.91 8.5-12.54 1.37-24.26-7.1-34.9-12.8-14.35-7.66-14.35-7.66-22.1-6.2-5.11 3-6.67 5.83-8.4 11.36-1.1 4.86-1.03 9.68-.97 14.64l.02 3.42c.27 15.96 2.46 31.65 5.6 47.27 1.03 5.5 1.54 11.06 2.13 16.62 7.1 65.21 7.1 65.21 29.62 84.7 9.17 7.31 21.02 14.24 33 14-3.97 6.12-8.17 12-12.68 17.74l-1.85 2.37a527 527 0 0 1-15.07 18.26l-4.5 5.25a3221 3221 0 0 1-10.9 12.71 204 204 0 0 1-11.82 12.44 105 105 0 0 0-5.55 6.16c-7.65 8.84-18.44 20.74-30.4 22.67q-3.87.2-7.74.27c-7.66.25-13.12 2.8-18.7 8.01-4.9 5.77-8.2 13.25-8.06 20.86a23.6 23.6 0 0 0 7.34 14.56c9.04 6.85 19.94 8.2 30.93 6.7 8.8-2.15 16.5-5.99 24-11l-1.47 2.52c-1.73 3.92-1.96 6.7-1.96 10.97l-.06 3.84c.7 5.16 3 8.16 6.62 11.78 13.09 8.54 27.24 8.62 42.25 7 2.62-.12 2.62-.12 4.53.48 2.65.5 4.42-.3 6.94-1.1 4.65-1.07 9.53-.72 14.28-.75 13.78-.26 27.29-1.88 40.94-3.75l3.05-.42 8.67-1.2 2.64-.38 2.45-.35 2.13-.3c1.99-.35 1.99-.35 3.99-.87 2.07-.5 4.02-.72 6.14-.88l2.53-.2 2.8-.2a1142 1142 0 0 0 35.6-3.6q9.67-1.05 19.32-2.14c19.66-2.2 39.27-4.06 59.03-5.24q7.2-.46 14.38-1.02c65.28-4.9 129.8-3.87 195.08.73a1386 1386 0 0 0 53.18 2.52l2.99.1 5.39.16c4.29.13 8.33.56 12.56 1.3q3.16.12 6.33.12l3.8.01q2.07 0 4.12-.02h2.13c12.98-.03 25.96-.26 38.94-.56l2.7-.06c26.23-.58 26.23-.58 31.98-2.5q2.76-.36 5.53-.62c33.64-3.4 33.64-3.4 41.47-11.38.69-3.13.69-3.13 0-6-7.94-9.63-31.22-12.85-43-14q-3.5-.04-7 0l.22-2.82c2.63-38.29 2.15-76.24-10.98-112.64C854.44 518.48 851.1 503 849 486l-.5-3.76c-1.88-14.59-2.33-29.3-2.97-43.98l-.66-14.82-.1-2.07-.44-10.06-.17-3.78-.3-6.69c-.84-19.02-.84-19.02-2.11-28.34l-.38-2.88c-2.97-20.72-9.43-39.45-19.03-57.97l-1.26-2.45-1.14-2.17c-.92-2-1.48-3.88-1.94-6.03l2.62-.74c27.8-8.52 51.3-25.55 65.38-51.26 8-15.24 11.58-31.32 14-48.25 2.69-18.69 7.87-37.88 23.6-49.98 20.14-14.4 39.17-16.22 63.19-16.2q4.44-.01 8.89-.07l2.69.03c7.05-.09 14.17-1.44 19.58-6.27 4.36-4.77 6.7-9.46 6.49-16.08-1.21-6.1-5.53-10.85-10.37-14.49-11.37-6.62-23.85-7.32-36.66-7.16q-3.7.04-7.4.01c-9.76.01-18.52 1.01-28.01 3.46M234 687l1 2Z" fill="#E6E7E7"/><path d="m240 340 3 4 2-2c5.94-1.87 10.56.52 16 3a87 87 0 0 1 9 6l3.23 2.32c6.24 4.54 6.24 4.54 8.77 6.68v2h2c2 3 2 3 1.84 5.02-1.03 2.43-2.1 3.26-4.28 4.73l-1.87 1.3C278 374 278 374 276 374v2a73 73 0 0 1-3.81 3.25A23.6 23.6 0 0 0 265 389q-1.49 1.51-3 3a58 58 0 0 0-12 28h-3l-.62-2.37-.82-3.07-.81-3.06C244 409 244 409 243 408q-.44-2.49-.75-4.99l-.4-3.08-.41-3.24-.42-3.21A97 97 0 0 1 240 381h-2l-1 7h-1a234 234 0 0 1-1.25-24.12l-.06-3.38c-.03-6.59.36-12.51 3.31-18.5z" fill="#282926"/><path d="M408.44 313.81c6.72 7.56 12.6 21.66 12.55 31.88a184 184 0 0 1-.78 4.6c-.47 6.22 1.5 12.65 2.79 18.71.7 3.68 1.12 7.12 1.06 10.87l-.02 2.37L424 384l-1.94-2a216 216 0 0 0-3.06-3l-1.95-1.9c-5.55-5.2-11.28-8.7-18.05-12.1l-2.36-1.34c-7.46-4.12-15.4-5.8-23.64-7.66l-4-1c.42-5.5 2.55-9.76 6-14h2l.25-1.63c1.02-3.22 2.83-5.6 4.75-8.37l1.44-2.57c1.88-2.92 4.02-5.06 6.56-7.43l1.45-1.39c3.4-3.1 5.96-4.28 10.55-4.6v-2c3-1.46 3.72-1.23 6.44.8" fill="#242522"/><path d="m262.27 338.7 2.98 1.49 3.08 1.5c6.12 3 12.2 6.09 18.27 9.17A99 99 0 0 0 297 355l-1 2c-8.8-1.3-15.97-5.33-23.69-9.5l-5.84-3.1-5.27-2.82c-5.96-2.93-10.64-4.2-17.2-3.58-3.78 1.94-5.23 4.03-6.62 7.9-1.8 5.7-1.83 11.18-1.76 17.1l.03 3.42c.26 15.97 2.45 31.65 5.6 47.28 1.03 5.5 1.53 11.06 2.12 16.62 7.02 64.5 7.02 64.5 28.63 83.68a73 73 0 0 0 33 15c-1.46 4.35-3.8 7.64-6.63 11.19l-1.35 1.73A2254 2254 0 0 1 285 557l-2.04 2.54a788 788 0 0 1-18.54 21.83l-3.49 4.05a205 205 0 0 1-11.76 12.37 106 106 0 0 0-5.49 6.09c-7.78 9-19.38 21.79-31.46 23.73q-3.86.2-7.73.28c-7.08.24-12.72 2.42-17.92 7.23-4.76 5.7-7.99 13.18-7.84 20.63.72 6.06 3.21 10.8 7.95 14.63 9 5.9 18.77 6.98 29.32 5.62 8.16-2 15.06-5.33 22-10h2l-.98 2.54c-1.12 3.79-1.36 7-1.4 10.96 0 .64 0 .64-.08 3.85.61 4.88 2.54 7.82 6.07 11.19 12.82 8.2 27.17 8.16 41.76 6.59 2.63-.13 2.63-.13 4.54.47 2.1.4 2.1.4 5.28-.52 4.41-1.24 8.21-1.3 12.74-1.2l2.37.03 5.7.09c-8.14 6.88-23.53 4.22-33.7 4.24q-4.4.02-8.76.08h-5.64q-1.29.04-2.6.05c-5.25-.02-9.5-.82-14.42-2.7-2.3-.82-4.38-.96-6.82-.98-5.8-.43-10.66-2.92-15.06-6.7v-3l-.75-3.36c-.25-3.63-.25-3.63 1.56-6.56 2.2-2.07 2.2-2.07 4.2-2.07l1-7-2.1.99q-4.44 2.06-8.9 4l-2.22 1.05c-9.05 3.72-20.44 2.16-29.52-.97-7.2-3.37-13.17-8.65-16.27-16.07a25 25 0 0 1 2-19c6.1-8.15 13.54-16.12 24-18 3.01 0 6.01.13 9.02.26 3.5-.3 5.12-1.3 7.98-3.26q1.2-.67 2.44-1.4a73 73 0 0 0 8.43-6.35l1.68-1.42c11.8-10.18 22.81-21.44 32.04-34.01 1.93-2.5 4.15-4.62 6.41-6.82a245 245 0 0 0 3-4l4.13-4.82C299 536.66 299 536.66 299 531l-1.9-.36c-.4-.1-.4-.1-2.48-.51l-2.46-.5C290 529 290 529 288 527q-2.5-1.02-5-2c-15-7.57-26.19-19.54-31.57-35.5L250 485l-1.07-3c-4.08-13.08-6.18-27.4-7.8-40.98l-.49-4.06-.26-2.12c-3.75-30.95-3.75-30.95-6.38-38.84a191 191 0 0 1-.5-6.81c-.2-3.4-.4-6.68-1.02-10.03-1.98-13.03-2.27-29.03 5.52-40.16 8.05-7.46 15.33-4.65 24.27-.3M234 687l1 2Z" fill="#E2E3E3"/><path d="m374.85 556.23 2.15.77c-1.5 3.54-3.57 5.82-6.29 8.52l-2.6 2.6-2.74 2.7-2.66 2.65a251 251 0 0 1-13.83 12.86c-3.28 2.9-6.32 6.05-9.38 9.17a216 216 0 0 1-13.47 12.72c-3.54 3.1-6.93 6.4-10.34 9.66a265 265 0 0 1-17.08 15.05 268 268 0 0 0-7.13 5.89q-2.3 1.93-4.6 3.8a106 106 0 0 0-5.16 4.54c-7.94 6.82-17.76 5.96-27.72 5.84a81 81 0 0 1 9.94-8.62l1.73-1.32 8.47-6.44a722 722 0 0 0 22.92-18.36q4.55-3.78 9.2-7.44c4.3-3.42 8.46-6.97 12.64-10.54 4-3.4 8.08-6.63 12.22-9.84a228 228 0 0 0 15.24-13.04c3.5-3.17 7.12-6.13 10.8-9.08a786 786 0 0 0 7.64-6.55q2.24-1.99 4.47-4c2.73-1.77 2.73-1.77 5.58-1.54" fill="#EAEAED"/><path d="M803 584c6.92 1.42 12.41 6.3 16.39 11.99 5.29 9.87 5.84 21.6 4.11 32.51-2.1 4.9-4.87 6.17-9.5 8.5l-6 3.31-5 2.69-.06-5-.04-2.81c.1-3.19.1-3.19.6-6.71.8-6.05.64-12.14.62-18.23l.02-3.63A228 228 0 0 0 803 584" fill="#EFF1F0"/><path d="M294 466c2.17.03 4.32-.05 6.49-.12 9-.26 18.38-.3 26.51 4.12 1.88 2.81 2.97 4.77 3.05 8.18-1.63 2.84-3.88 3.62-6.8 5.01l-3.17 1.54c-9.09 3.75-18.48 3.18-27.5-.46-5.35-2.64-10.49-6.05-13.58-11.27.05-2.11.05-2.11 1-4 1.89-1.3 1.89-1.3 4.25-2.31l2.33-1.05c2.91-.77 4.48-.27 7.42.36" fill="#151612"/><path d="m240 666-.98 2.53c-1.12 3.8-1.35 7.01-1.4 10.97l-.08 3.84c.61 4.89 2.54 7.83 6.07 11.2 12.82 8.19 27.17 8.15 41.76 6.58 2.63-.12 2.63-.12 4.54.48 2.09.4 2.09.4 5.28-.53 4.41-1.24 8.21-1.3 12.75-1.19l2.36.02 5.7.1c-8.14 6.88-23.53 4.22-33.71 4.24q-4.37.02-8.75.07l-5.64.02-2.61.04a38 38 0 0 1-14.4-2.7 20 20 0 0 0-6.83-.98c-5.8-.43-10.65-2.92-15.06-6.69v-3l-.75-3.38c-.25-3.62-.25-3.62 1.56-6.56C232 679 232 679 234 679l1-7-2.23 1.02-2.96 1.36-2.92 1.33A187 187 0 0 1 219 679l-3-3 2.78-.92c6.05-2.06 15.56-9.08 21.22-9.08m-6 21 1 2Z" fill="#D0D1D2"/><path d="M354 483c1.84 1.34 1.84 1.34 3 3-.18 4.35-1.03 6.03-4 9q-.06 2.5 0 5c-2 2-2 2-4.38 2.5-2.62-.5-2.62-.5-4.68-3.38L342 496l-2.19-1c-1.81-1-1.81-1-2.93-3.81.12-3.19.12-3.19 2.37-6.07 4.32-3.15 9.64-3.08 14.75-2.12" fill="#68686A"/><path d="M222 620v3c-4.4 3.72-7.63 4.47-13.31 4.56-8.69.39-15.58 1.5-22.12 7.56-4.76 5.7-7.99 13.17-7.84 20.63.73 6.05 3.21 10.8 7.96 14.63 9.74 6.4 20 6.27 31.31 6.62v2c-12.55 2.16-23.83.06-34.19-7.25-5.13-5.01-8.57-10.09-8.92-17.41.44-9.33 4.76-15.25 11.18-21.69 7.97-7.21 14.48-8.84 24.96-8.39 3.43-.3 5.14-1.36 7.97-3.26z" fill="#EBEDEE"/><path d="m745 682 18.45.5 6.75.18 2.09.05c2.89.09 5.66.26 8.5.78 3.46.53 6.73.61 10.23.6h2.04l6.62-.01 4.61-.01 12.11-.02 12.37-.02L853 684l-1 2c-12.92 1.91-26.48 1.16-39.5 1.12h-3.22c-21.68-.05-42.9-.11-64.28-4.12z" fill="#E5E7E5"/><path d="m292 465 .19 2.63c1.13 10.59 1.13 10.59 5.31 14.06q1.73 1.19 3.5 2.31l2 2c-8.83-.9-16.2-4.1-22.44-10.5-1.56-2.5-1.56-2.5-1.43-4.52 1.2-2.73 2.52-3.12 5.25-4.23l2.39-1.02C289 465 289 465 292 465" fill="#DDC35D"/><path d="m869 562 3 1-.06 2.75c.06 3.25.06 3.25.53 5.05.69 2.86.88 5.65 1.09 8.58l.26 3.33q.18 3.29.14 6.58C874 592 874 592 875 594q.18 4.07.2 8.15l.02 2.45.02 5.14q.02 3.93.07 7.85l.02 5 .04 2.37c-.02 4.28-.26 6.95-3.37 10.04l-.06-3.49c-.71-40.11-.71-40.11-2.54-57.17A102 102 0 0 1 869 562" fill="#EFF1F2"/><path d="M371 460c3.72 1.24 4.21 2.83 5.94 6.21A21 21 0 0 0 381 471c-5.76 2.17-11.76 4.28-18 4l-2-2c.13-3.37.76-4.74 3.07-7.24l2.49-2.07 2.51-2.12z" fill="#E8CF70"/><path d="m236 697 5.86.88c2.14.12 2.14.12 4.18-.43 2.93-.67 5.06.63 7.76 1.71 10.34 3.94 20.77 3.13 31.57 1.96 2.63-.12 2.63-.12 4.54.48 2.09.4 2.09.4 5.28-.53 4.41-1.24 8.21-1.3 12.75-1.19l2.36.02 5.7.1c-8.14 6.88-23.53 4.22-33.71 4.24q-4.37.02-8.75.07l-5.64.02-2.61.04a38 38 0 0 1-14.38-2.69c-3.2-1.14-6.38-1.15-9.75-1.27-2.6-.49-3.5-1.4-5.16-3.41" fill="#DFDFE0"/><path d="M752.9 255.43a85 85 0 0 0 7.04 1.5 97 97 0 0 1 17.06 5.25c3.48.95 6.47.9 10.05.7C789 263 789 263 791 265c-7.34 3.04-13.34 1.01-20.62-1.32-12.18-3.74-24.76-5.97-37.38-7.68v-1c6.74-1.74 13.27-1.45 19.9.43" fill="#DADBDD"/><path d="M237 394h1a627 627 0 0 1 5.75 38.06l.39 3.29c1.62 14.51 1.62 14.51-1.14 18.65-.77-4.4-1.37-8.8-1.9-13.23l-.51-4.18-.79-6.49c-1.63-13.63-1.63-13.63-2.95-19.7a32 32 0 0 1-.47-11.02l.33-3.11z" fill="#DADADD"/><path d="M703.16 250.87h17.81l2.09-.01c4.82.03 4.82.03 5.94 1.14 2.67.14 5.32.05 8 0l1 3h-55c4.48-3.36 5.67-3.2 11-3 2.95-1.47 5.93-1.14 9.16-1.13" fill="#EEEEF0"/><path d="M262 508c4.21.51 6.09 1.66 9.06 4.62 9.04 8.34 19.41 12.68 30.94 16.38l-1 2c-5.28-.45-8.54-.99-13-4l-2.36-.94c-9.29-3.72-16.67-10.02-23.64-17.06z" fill="#E9EAE9"/><path d="M255 336c6.1 1.25 11.63 4.89 17.06 7.81 8.15 4.33 16.16 8.29 24.94 11.19l-1 2c-8.81-1.31-15.96-5.33-23.69-9.5l-5.84-3.11-5.27-2.82A60 60 0 0 0 252 338z" fill="#D5D6D7"/><path d="m846 415 2 1-.02 2.08-.04 9.42-.03 3.27c-.03 9.03-.03 9.03.65 13.35.56 4.93.08 9.48-.5 14.38l-.3 2.78L847 468h-1c-1.35-17.75-1.1-35.24 0-53" fill="#DADBDD"/><path d="M461 350c2.69.31 2.69.31 5 1a72 72 0 0 1-10.09 6.47l-1.75.97-3.67 2.03-5.56 3.08C429.67 372 429.67 372 427 372c.25-1.88.25-1.88 1-4 3.4-1.94 7.09-3.36 10.68-4.9 2.32-1.1 2.32-1.1 4.72-2.54 3.82-2.29 7.84-4.14 11.86-6.06 2.74-1.5 2.74-1.5 4.44-3.21z" fill="#E0DFE1"/><path d="M985 88a54.7 54.7 0 0 1 30 8c1.2 2.12 1.2 2.12 2 4a55 55 0 0 1-7.56-3.44c-9.87-4.48-19.99-5.06-30.69-5.25l-4.03-.1L965 91v-1h20z" fill="#DEDFE0"/><path d="M291 466v6l-3 1-2 2-1-1-1 2h4v3l-3 1q-1.55-1.61-3.06-3.25l-1.73-1.83C279 473 279 473 279.14 470.88c2.08-4.55 7.33-5.28 11.86-4.88" fill="#E5C86F"/><path d="m973.06 133.88 3.2.03 7.74.09-1 3-1.68-.01-7.57-.06-2.65-.02h-2.56l-2.34-.03c-2.2.13-4.09.53-6.2 1.12q-2.37.54-4.75 1.06c-.4.1-.4.1-2.42.53q-.9.22-1.83.4l1-4c7.15-1.89 13.68-2.24 21.06-2.12" fill="#E2E3E5"/><path d="M838 350h2c1.87 8.32 1.87 8.32 2.56 11.88C843 364 843 364 844 367v6l.56 2.62c.67 5.17-.02 10.22-.56 15.38h-1l-1.65-12.21-.57-4.14c-1.11-8.2-2.13-16.4-2.78-24.65" fill="#EDEDF0"/><path d="M847 456c2.94 3.25 3.32 5.23 3.12 9.56A97 97 0 0 0 852 488l1 6-3 1c-3.23-12.92-3.13-25.77-3-39" fill="#EAEAED"/><path d="m495 566 2 1-2.41 2.05-3.09 2.7-1.59 1.34c-1.5 1.33-1.5 1.33-3.91 3.91v4c-5.07 1.26-9.73 2.27-15 2l2-2h3l1-3c3.06-1.19 3.06-1.19 6-2v-2a98 98 0 0 1 6-4.12l1.73-1.13z" fill="#040504"/><path d="M239 356h1c.13 6.41.13 6.41-.5 9.34-.57 3.05-.6 5.88-.56 8.97l.02 3.24.04 2.45-3-1c-1.17-2.35-1.12-3.74-1.1-6.35l.01-2.58.03-2.69.01-2.72.05-6.66 2-1 1 2z" fill="#1C1E1D"/><path d="M951 137v2l-2.19.85c-8.96 3.67-17 8.48-24.81 14.15l-2-1c2.99-4.26 6.3-6.68 10.81-9.12l1.79-1.02C945.15 137 945.15 137 951 137" fill="#E6E7E5"/><path d="m745 682 18.45.5 6.75.18 2.09.05c3.98.12 7.79.52 11.71 1.27v1c-13.28 2.46-25.89.35-39-2z" fill="#DFE2DF"/><path d="m240 666-4 12h-2l1-6-2.23 1.02-2.96 1.36-2.92 1.33A187 187 0 0 1 219 679l-3-3 2.78-.92c6.05-2.06 15.56-9.08 21.22-9.08" fill="#D9DBD9"/><path d="M855 193h1c.39 8.07.43 16.52-3 24-2.61 1.84-2.61 1.84-5 3l.62-1.83.82-2.42.81-2.39c1.58-4.97 2.04-9.6 2.37-14.8C853 196 853 196 855 193" fill="#F0F0F2"/><path d="M984 134h25l-1 3c-16.89 1.52-16.89 1.52-24-1z" fill="#F2F4F5"/><path d="m361 469 3 1v2h2l1-3h13v3q-2.84.76-5.69 1.5l-3.2.84c-2.86.61-5.21.94-8.11.66l-2-2z" fill="#D7BB74"/><path d="M288 464q5.68-.12 11.38-.19l3.21-.07c8.67-.08 16.49.65 23.41 6.26a50 50 0 0 1-9.06-2.03c-4.75-1.38-9.47-1.19-14.38-1.09l-2.79.02-6.77.1v-2h-5z" fill="#020201"/><path d="m915 101 3 1a56 56 0 0 1-9.19 5.81A150 150 0 0 0 894 117l-1-3a76 76 0 0 1 16-10l4-2z" fill="#DCDDDD"/><path d="m962.54 87.9 3.95.01 4.14.03 4.16.01 10.2.05v2q-6.13.3-12.27.53l-4.18.2-6 .24-3.65.16c-2.9-.13-2.9-.13-4.9-2.13 2.88-1.44 5.35-1.1 8.55-1.1" fill="#EEF0F0"/><path d="M397.88 449.94h2.08l5.04.06v1l-3 .37c-10.18 1.27-18.8 2.7-27.9 7.7l-2.1.93-2-1c8.93-6.74 16.68-9.2 27.88-9.06" fill="#030403"/><path d="m857 175 2 1-.56 10.9c-.27 5.07-.75 10.06-1.44 15.1h-1l-.18-1.83-.26-2.42-.24-2.39c-.32-2.36-.32-2.36-.88-4.5-.6-2.53-.05-4.35.56-6.86l.5-2.56q.67-3.24 1.5-6.44" fill="#DADBDC"/><path d="m258 343 7 1v2l2.38-.62L270 345c2 2 2 2 2.5 4.06l.5 1.94 2 1v2a55 55 0 0 1-10.75-5.5l-2.92-1.84C259 345 259 345 258 343" fill="#090B09"/><path d="M1017 99c4.32 3.27 7.27 5.7 9 11 .38 4.03.61 7.99 0 12l-3 2 .21-2.75c.34-7.71.04-12.49-4.9-18.58C1017 101 1017 101 1017 99" fill="#E9ECEA"/><path d="M353 346c-7.31 3.43-15.1 3.15-23 3 1.34-1.49 1.34-1.49 3-3 2.5-.12 2.5-.12 5 0l3-1c8.49-1.48 8.49-1.48 12 1" fill="#ECF0EC"/><path d="M623 268h4l-1 3a91 91 0 0 1-7.88 3.19l-2.22.82c-3.08 1.12-5.6 1.99-8.9 1.99v-2a73 73 0 0 1 13.14-5.35C622 269 622 269 623 268" fill="#EAEAED"/><path d="M242 604c-1.59 4.13-4.6 6.68-7.81 9.56l-1.58 1.46A50 50 0 0 1 223 622c.83-4.72 3.79-6.7 7.38-9.56l3.52-2.88 1.58-1.27c1.52-1.29 1.52-1.29 3.09-2.95C240 604 240 604 242 604" fill="#D9DBDA"/><path d="M325 471c4.94 4.34 4.94 4.34 5.19 7.12-1.83 2.88-4.06 3.69-7.19 4.88l-3-1 3-1z" fill="#DBC990"/><path d="M177 657c2.65 1.33 2.64 2.44 3.62 5.19 2.22 5.3 5.59 7.84 10.38 10.81l-1 2c-6.43-2.86-11.31-7.44-14-14 .37-2.25.37-2.25 1-4" fill="#DFE1DF"/><path d="M237 394h1l1.5 8.75.43 2.5.41 2.42.38 2.22C241 412 241 412 241 416h-3c-2.03-7.59-1.99-14.23-1-22" fill="#CFD2CD"/><path d="M573 293c-3.58 3-7.53 4.78-11.75 6.69l-2.11.97L554 303c.96-2.4 1.55-3.73 3.81-5.08L560 297l2.47-1.32 2.59-1.37 2.6-1.38C570 292 570 292 573 293" fill="#E1E3E1"/><path d="M967 134h17l-1 3q-3.43.12-6.88.19l-3.86.1L969 137z" fill="#F3F5F6"/><path d="M935 95c-2.57 2.57-5.05 3.33-8.44 4.62l-3.49 1.36C920 102 920 102 917 102v-2c12.73-6.51 12.73-6.51 18-5" fill="#EDEEED"/><path d="M181 638c1.27 3.88.38 5.95-1.16 9.7-1.45 3.98-2.11 8.13-2.84 12.3h-1c-1.36-6.65-.69-11.73 2-18a73 73 0 0 1 3-4" fill="#ECF0EB"/><path d="m197 625 4 3-1.72.45c-7.53 2.18-12.95 5.92-17.28 12.55.15-4.87 2.66-7.18 6.01-10.35A47 47 0 0 1 197 625" fill="#E5E7E5"/><path d="M239 416h2c1.65 3.31 1.1 6.99 1.06 10.62l-.01 2.43L242 435l-2-1z" fill="#E4E5E4"/><path d="m281 349 16 6-1 2c-5.45-1.03-10.12-2.25-15-5z" fill="#DCDCDF"/><path d="M314 351v2q-3.09 1.01-6.19 2l-3.48 1.12a24 24 0 0 1-8.33.88c1-2 1-2 3.5-2.94L303 353l2.33-.83 2.42-.86 2.3-.82C312 350 312 350 314 351" fill="#EAEDEA"/><path d="M831 242h3c-1.4 4.21-4.45 5.47-8.06 7.69l-2.01 1.26L819 254l-1-3 4.81-2.94 2.71-1.65C828 245 828 245 831 244z" fill="#E0E0E0"/><path d="m356 569 2 1-2 3v2h3l-2 4h-3v-3l-3-1zm-7 6 2 1h-3z" fill="#E0E1E3"/><path d="m249 337-1 3 1 2-2.38.94C244 344 244 344 242 345v-2l-2-1c1.65-4.94 4.23-5.26 9-5" fill="#171718"/><path d="m822 300 2 2-3 2 1.5 2.81C824 310 824 310 824 313h-2l-2.5-4.31-1.41-2.43C817 304 817 304 817 301c2.38-.62 2.38-.62 5-1" fill="#E7EAEA"/><path d="M985 88c3.38-.19 3.38-.19 7 0l2 3h-29v-1h20z" fill="#C0C1C2"/><path d="m893 229 3 4-3 7-1 2.38c-1 1.62-1 1.62-4 2.62l.59-1.72q2.4-7.08 4.41-14.28" fill="#DEDEE0"/><path d="M865 549c1.95.8 1.95.8 4 2 1.15 4.6 1.01 8.39 0 13-1.81-3.2-2.52-6.13-3.12-9.75l-.51-2.98z" fill="#E0E1E4"/><path d="M286 466c2.62-.19 2.62-.19 5 0v6l-3 1-2 2-1-3 1-1-2-2z" fill="#EFD470"/><path d="m737 252 1 3-7.38.12-2.11.06A92 92 0 0 1 723 255l-2-2a83 83 0 0 1 16-1" fill="#E6E7E8"/><path d="M492 572c1.33 2.67.67 4.17 0 7l-6 1v-4c3-2.25 3-2.25 6-4" fill="#1C1C1E"/><path d="m390 315 3 1 1 3c-2.58 2.65-4.92 4.94-8 7l2-6-2-1z" fill="#17191B"/><path d="M936 145a24 24 0 0 1-8 6q-2.03 1.46-4 3l-2-1c3.86-5.29 7.18-8.58 14-8" fill="#ECECED"/><path d="m965 91 1 2c-5.87 1.15-11.09.77-17 0v-1a83 83 0 0 1 16-1" fill="#222521"/><path d="m236 366 3 2c.29 2.82.29 2.82.19 6.12l-.08 3.33L239 380l-3-1z" fill="#0D0F0D"/><path d="m419 344 1 3h2l1 9h-3a20 20 0 0 1-1.06-7.69l.02-2.45z" fill="#161916"/><path d="M832 296c-.12 1.88-.12 1.88-1 4-4.59 2.29-8.05 1.99-13 1a27 27 0 0 1 7.56-3.62l2.38-.79C830 296 830 296 832 296" fill="#DADADB"/><path d="M291 702c-3.35 2.03-5.87 2.22-9.75 2.12l-2.98-.05L276 704v-2c5.23-1.21 9.77-.76 15 0" fill="#CFD2D0"/><path d="m803 584 6 2-2 5h-2v5h-1z" fill="#D4D6D6"/><path d="M675 254c4.85-.32 9.22.04 14 1v1c-5.36 1.13-10.55 1.1-16 1z" fill="#D3D3D5"/><path d="m800 648 1 2-1.38 2.62c-1.91 3.99-2.24 7-2.62 11.38l-1-4h-2c1.32-4.62 3.21-8.1 6-12" fill="#6D706E"/><path d="M262 508c2.71.15 4.47.48 6.45 2.4q1.83 2.26 3.55 4.6c-4 0-4 0-5.7-1.53l-1.55-1.97-1.58-1.97z" fill="#EDECEE"/><path d="m294 479 4.5 2.94 2.53 1.65L303 485v1c-7.43-1-7.43-1-11-2v-2h2z" fill="#BAAB6F"/><path d="M353 584c0 2 0 2-1.46 3.51l-1.92 1.61-1.89 1.64C346 592 346 592 344 592l-1 2c0-3 0-3 1.43-4.82l1.88-1.87 1.87-1.88C350 584 350 584 353 584" fill="#18191A"/><path d="M461 350c2.62.38 2.62.38 5 1a58 58 0 0 1-9 6l-3-1 2.38-1.88C459 352 459 352 461 350" fill="#DDDDDE"/><path d="M222 620v3c-5.14 4-5.14 4-9 4 1.26-3.78 2.56-4.2 6-6z" fill="#E4E4E4"/><path d="M847 456c3.12 4.17 3.63 5.07 3 10l-3 3z" fill="#F0F1F4"/><path d="M984 134h18v1l-2.08.18-2.73.26-2.71.24C992 136 992 136 989 137c-2.69-.44-2.69-.44-5-1z" fill="#C4C6C6"/><path d="m385 692 1 2q-2.4.33-4.81.62l-2.71.36C376 695 376 695 373 693c3.98-1.33 7.85-1.07 12-1" fill="#E2E5E1"/><path d="m381 470-1 2c-2.29.41-2.29.41-5.06.62l-2.79.23-2.15.15 2-1v-2c3.33-1.11 5.62-.84 9 0" fill="#DEC17E"/><path d="M245 432h2c1.35 2.71 1.07 5.01 1 8h-3zm-1 8 1 4Z" fill="#16161B"/><path d="M801 260c-1 2-1 2-3.75 3.12-2.95.8-5.22 1.06-8.25.88 2.11-4.22 7.74-5.88 12-4" fill="#EFEFF2"/><path d="m905 181 2 1a26 26 0 0 1-3 9c-2-3-2-3-1.75-5.56C903 183 903 183 905 181" fill="#E6E8E9"/><path d="M854 511c2.9 2.4 3.5 4.31 4 8l-3 2c-1.84-3.78-2.16-5.95-1-10" fill="#E0E1E3"/><path d="M425 358h2c1.63 4.12 2.26 6.71 1 11-2.4-2.4-2.34-3.33-2.62-6.62l-.23-2.48z" fill="#E8E9EA"/><path d="M766 259v2l-11-1v-2c4.29-1.26 6.88-.63 11 1" fill="#E4E3E8"/><path d="m261 647 1 2-1 2h5v1l-12 1c4-4 4-4 7-6" fill="#CACCCB"/><path d="M291 475h2l1 7-4-1q-.06-2.5 0-5z" fill="#E9D665"/><path d="M239 375h1v6h-2l-1 7h-1q-.08-2.16-.12-4.31l-.08-2.43c.24-2.73 1.25-4.31 3.2-6.26" fill="#1F211E"/><path d="M918 102a29 29 0 0 1-9 5c.19-1.88.19-1.88 1-4 3.29-1.82 4.36-2.21 8-1" fill="#DCDEDB"/><path d="M847 678c-1.25 2-1.25 2-3 4h-4v-2l-3-1a439 439 0 0 1 6.05-1.66C845 677 845 677 847 678" fill="#B2B4B4"/><path d="M380 472v2l-12 2v-2l3.75-1 2.11-.56C376 472 376 472 380 472" fill="#251609"/><path d="M951 137v2c-4.43 2.09-4.43 2.09-7.31 1.62L942 140c2.98-2.98 4.79-3 9-3" fill="#DCDEDD"/><path d="M327 606c0 4.39-2.13 5.77-5 9l-2-2z" fill="#18181C"/><path d="m369 464 1 4-3 1-1 3h-2c.35-3.24.56-4.62 3.06-6.81z" fill="#F0CD71"/><path d="m486 336 1 2c-6.29 5.57-6.29 5.57-10 6v-2q2.94-2.08 6-4z" fill="#EEEEF2"/><path d="m531 313-1 3c-3.06 1.19-3.06 1.19-6 2v-3c2.65-1.46 3.89-2 7-2" fill="#EFEEF0"/><path d="m541 310-10 5v-3c5.5-3.12 5.5-3.12 10-2" fill="#E2E2E3"/><path d="M669 255c3.19.88 3.19.88 6 2v1l-9 1v-2z" fill="#DEDEE3"/><path d="M899 199c2.43 3.64 2.16 5.71 2 10h-3z" fill="#D7D7D8"/><path d="M909 105c-1 3-1 3-4 5-2.69.12-2.69.12-5 0 2.54-2.8 5.08-5 9-5" fill="#E7EAE7"/><path d="M242 604a19 19 0 0 1-5 7l-3-1q1.42-1.5 2.88-3l1.61-1.69C240 604 240 604 242 604" fill="#CED0CC"/><path d="M259 502c2.62 1.05 3.79 1.65 5.25 4.12L265 508c-2.87-.57-3.86-.86-6-3z" fill="#DEDEE0"/><path d="m324 477 1 2c2.06.62 2.06.62 4 1-2.81 1.56-2.81 1.56-6 3l-3-1 3-1c.69-2.06.69-2.06 1-4" fill="#B8A77A"/><path d="M1002 134c3.62-.19 3.62-.19 7 0l-1 3h-8z" fill="#EBEEEF"/><path d="m316 616 1 3-6 5c.54-3.8 2.2-5.47 5-8" fill="#1E1E21"/><path d="M302 529h3l-2 5h-3c.88-3.88.88-3.88 2-5" fill="#DBDEDB"/><path d="M852 502c2.1 2.36 2.97 3.55 3.19 6.75L855 511l-2 1c-1.61-3.21-1.06-6.44-1-10" fill="#EEEEF0"/><path d="M247 474h4l1 8c-2.25-2.69-3.88-4.65-5-8" fill="#D6D7D7"/><path d="m327 352-1 2c-3.06.62-3.06.62-6 1l-1-3c3.05-.98 4.95-.98 8 0" fill="#1C1E1E"/><path d="M273 348c3.78 1.09 6.47 1.91 9 5l-4 1-2-3-3-1z" fill="#090A0C"/><path d="M952 136h6l-1 3-6 1z" fill="#EFEFF0"/><path d="m924 97 1 3c-2.91 1.26-4.8 2-8 2v-2c4.38-3 4.38-3 7-3" fill="#E6E8E8"/><path d="M849 498h1c.12 5.75.12 5.75-1 8h-2c.88-6.88.88-6.88 2-8" fill="#08080A"/><path d="M369 462c0 3 0 3-2.38 5.69C364 470 364 470 362 470c1.49-3.8 3.76-5.61 7-8" fill="#E8D090"/><path d="M687 416h2v8h-3z" fill="#080907"/><path d="m648 260 2 1v2c-3.21 1.61-6.44 1.06-10 1l4-2 2.12-1.19z" fill="#EFEFF1"/><path d="m807 256 1 3-7 2-1-2z" fill="#E2E2E7"/><path d="M906 173h1c.25 3.31.25 3.31 0 7l-4 3z" fill="#D6D9D8"/><path d="M277 630h5v2c-1.81 1.69-1.81 1.69-4 3l-3-1z" fill="#181817"/><path d="m197 625 4 3-8 2-1-2z" fill="#DCDDDE"/><path d="M850 500h1q.33 2.19.62 4.38l.36 2.46.02 2.16-2 2c-1.29-7.43-1.29-7.43 0-11" fill="#1F1F21"/><path d="m264 505 5 1 1 4h-3c-1.69-2.5-1.69-2.5-3-5" fill="#1A191B"/><path d="M455 356v2c-5.75 3-5.75 3-8 3v-2c2.91-2.04 4.4-3 8-3" fill="#ECEBEC"/><path d="M837 343c1.8 2.76 2.01 3.89 1.62 7.25L838 353c-1.8-2.76-2.01-3.89-1.62-7.25z" fill="#D2D5D6"/><path d="M487 339v3c-1.75 1.06-1.75 1.06-4 2l-4-1z" fill="#232227"/><path d="M365 337h3c-1.37 3.16-1.99 3.99-5 6 0-3 0-3 2-6" fill="#D9DBDA"/><path d="m502 328-1 4-4 1v-3c3-2 3-2 5-2" fill="#EFEDF2"/><path d="M818 256c-3.01 3.01-5.82 2.6-10 3 3.16-3.16 5.69-4.44 10-3" fill="#1E1E21"/><path d="m869 148 3 1-1 2h-2l-1 5h-2c1.88-5.75 1.88-5.75 3-8" fill="#222224"/></svg>