<svg style="background:transparent" version="1.1" xmlns="http://www.w3.org/2000/svg" viewBox="0 0 1248 704"><path d="m980.67 93.6 2.53-.04 5.3-.04q3.96-.05 7.9-.15c12.52-.15 22.93 2.24 34.6 6.63l3.15 1.1c6.55 2.32 12.1 6.04 17.85 9.9l2.66 1.68 2.47 1.57 2.19 1.4C1061 117 1061 117 1062 120l1.8.4c3.15.85 4.3 2.63 6.39 5.1 3.03 3.5 6.1 6.84 9.44 10.06 7.69 7.65 12.89 15.54 17.37 25.44l1 2.12c3.2 7.41 4.2 17.12 2 24.88-3.61 6.9-7.5 11.5-15 14-6.71 1.38-11.85 1.64-17.7-2.2-8.92-7-15.14-15-21.15-24.52A55 55 0 0 0 1037 164a112 112 0 0 1-2.56-3.19c-2.16-2.49-3.41-3.69-6.44-4.8v-2l-2.64-.85a106 106 0 0 1-9.11-3.73 39 39 0 0 0-14.3-3.29C1000 146 1000 146 998 145c-4.27-.14-7.9-.16-12 1-3.94.43-3.94.43-5.9.62-11.28 2.03-22.58 10-30.1 18.38l-1.7 2.81c-.2.36-.2.36-1.3 2.2h-2l-.28 1.55c-1 3.34-2.61 6.3-4.22 9.37a280 280 0 0 0-9 19.63A242 242 0 0 1 919 226l-1.01 1.84c-1.77 3.17-3.53 6.05-6 8.72a49 49 0 0 0-5.11 6.75c-1.93 2.77-2.94 3.32-5.88 4.7l-.81 1.8c-1.58 2.91-3.7 4.08-6.4 5.91-1.8 1.28-1.8 1.28-4.16 3.65-6 6-12.9 11.08-20.63 14.63h-2l1.3 3.75c.14.34.14.34.75 2.11.95 2.14.95 2.14 2.38 4a34 34 0 0 1 3.73 6.62l1.16 2.6 1.18 2.67 1.19 2.63c6.1 13.71 6.1 13.71 7.37 20.18a88 88 0 0 0 1.93 7.78c4.28 15.52 4.09 32.38 4.14 48.34v10.53a31 31 0 0 1-1.13 6.8q-.3 3.22-.5 6.45l-.25 3.87-.25 4.04-1 15.63-.25 3.88-.25 3.72-.22 3.3c-.28 3.07-.77 6.06-1.28 9.1q-.06 3.3 0 6.62c.1 5.95.1 5.95-.5 8.28a28 28 0 0 0-.64 6.66l-.02 2.72-.01 2.93-.01 3.05v6.4l-.04 9.68c-.04 13 .3 25.15 4.22 37.66 1.4 5.25 2.5 10.5 3.44 15.85q.6 3.34 1.25 6.67a474 474 0 0 1 4.3 25.94c1.2 8.6 2.17 17.04 2 25.72-.04 5.33.08 10.57.5 15.88.5 6.73.66 13.44.7 20.2l.04 3c0 6.78-.8 13.11-2.23 19.74l3.5.35c4.32.54 8.3 1.62 12.44 2.96l2.1.68c17.3 5.66 17.3 5.66 21.96 12.01.4 3.67 0 5.56-2.12 8.6-17.45 17.72-61.4 16.17-84.7 16.56-40.1.26-80.2-2-120.24-4.16-93.92-5.08-186.46-4.18-280.15 4.81l-2.85.27c-4.2.41-8.36.84-12.52 1.41-11.45 1.56-22.72 1.78-34.26 1.73h-6.1l-16.38-.02q-8.6 0-17.18-.02-16.24 0-32.47-.04l-37-.04q-38-.03-76.03-.1l-1.5-4.3-.83-2.44c-.82-2.78-.8-4.97-.36-7.83l.37-2.56q.14-.93.32-1.87l-3.32 1.5-4.37 1.93-2.18 1c-11.21 4.95-23.78 5-35.35.75-9.23-4.27-14.41-10.26-18.15-19.62-.8-4.47.04-7.32 1.37-11.56l.56-3.32c3.09-7.9 8.46-14.2 16.19-17.8 5.26-2.1 9.68-3 15.3-2.57 9.29.1 17.39-5.08 23.95-11.3l2.38-2.39c1.99-1.99 3.97-3.8 6.1-5.62a311 311 0 0 0 15.33-14.63l2.85-2.8 2.74-2.74 2.46-2.45A43 43 0 0 0 247 586l5-4a70 70 0 0 0 10-13l5-5 2.06-3.13C271 558 271 558 273 556.57c2.4-1.89 3.5-4.07 4.93-6.74a33 33 0 0 1 3.63-4.96A47 47 0 0 0 287 537c-.43-.2-.43-.2-2.6-1.28-10.48-5.32-17.9-10.63-25.4-19.72l-2.81-2.82c-5.55-5.55-7.75-10.82-10.2-18.18l-.8-2.33a220 220 0 0 1-4.5-15.1 341 341 0 0 0-1.75-6.26 127 127 0 0 1-3.94-18.3l-.42-2.1c-.5-2.45-.92-4.89-1.34-7.34a472 472 0 0 0-7.1-33.48 265 265 0 0 1-4.6-23.84C221 383 221 383 220 381v-5l-1-1c-.28-3.87-.23-7.75-.25-11.63l-.06-3.28c-.04-7.56.68-13.37 5.62-19.4 3.98-3.98 7.54-4.76 13-5.07 4.3.11 7.43 1.3 11.26 3.18 2.68 1.32 5.4 2.45 8.18 3.57 4.39 1.81 8.66 3.76 12.94 5.81 7.84 3.66 15.15 5.87 23.8 3.94l2.29-.49A34 34 0 0 0 302 349a137 137 0 0 1 16.99-4.53c2-.47 2-.47 5-1.54 3.27-1 6.28-1.33 9.66-1.66a76 76 0 0 0 9.09-1.75c2.26-.52 2.26-.52 4.62-.89 5.87-.97 9.03-2.89 12.64-7.63a91 91 0 0 0 3-5q2.19-2.19 4.44-4.32A37 37 0 0 0 373 314l3-3 3.38-4c2.64-3.04 4.96-5.22 8.62-7l1.88-1.19c3.87-1.48 7.65-1.25 11.59-.09 6.77 3.41 11.09 11.33 13.53 18.28l1.56 4.12.7 1.88a107 107 0 0 0 1.7 4.3 105 105 0 0 1 3.04 9.63c.95 3.4 1.9 6.78 3.03 10.12 1 3.02 1.79 6.04 2.53 9.13.73 3 1.47 5.9 2.44 8.82 10.84-3.24 21.2-8.19 30.97-13.86 2.63-1.48 5.33-2.8 8.03-4.14a886 886 0 0 0 9.44-4.95 104 104 0 0 0 8.84-5.24c2.85-1.9 5.48-2.76 8.72-3.8l1.72-1.33c3.02-2.23 6.28-3.9 9.59-5.62q8.45-4.4 16.66-9.22a75 75 0 0 1 10.08-4.93c2.46-1.15 4.7-2.55 7-3.98A46 46 0 0 1 552 303l1.8-1.37a48 48 0 0 1 8-4.57c5.5-2.7 10.77-5.6 16-8.76 9.1-5.43 9.1-5.43 13.45-6.93a45 45 0 0 0 9.89-5.19c3.25-2.07 6.72-3.58 10.24-5.12 4.4-1.96 8.8-3.9 12.87-6.5 3.27-1.86 6.64-3.16 10.15-4.5 3.89-1.59 7.58-3.52 11.29-5.49a126 126 0 0 1 20.76-8.42c4.6-1.5 9.07-3.3 13.55-5.15 5.65-2.33 11.3-3.89 17.24-5.32 2.99-.74 5.86-1.69 8.76-2.68q4-1.06 8-2l3.72-1a92 92 0 0 1 12.97-2.07c7.75-.82 7.75-.82 11.1-1.49 3.07-.6 6.09-.44 9.2-.44l1-1c2.67-.1 5.29-.14 7.95-.13h2.25c5.56 0 5.56 0 7.8 1.13 2.7.07 5.39 0 8.09-.07 3.07.07 5.9.51 8.92 1.07l2.9.4a165 165 0 0 1 21.64 4.65c4.13 1.13 8.27 2.05 12.46 2.95l2.07.62c3.18.62 5.17-1.08 7.93-2.62l3.69-1.75c11.2-5.63 20.42-12.27 27.83-22.4C867 207 867 207 869 206q1.54-2.48 3-5l1.5-1.94c1.5-2.06 1.5-2.06 2.94-4.94 1.56-3.12 1.56-3.12 3.5-5.87 3.39-5.34 5.34-11.2 7.44-17.14 2.78-7.8 5.7-14.39 10.62-21.1q2.68-4.2 5.29-8.44c1.77-2.65 3.7-5.09 5.7-7.57.23-.4.23-.4 1.32-2.44 1.94-2.95 4.14-4.74 6.86-6.95a51 51 0 0 0 6.38-7.1c1.67-1.74 3.28-2.5 5.45-3.5l5-4q2.48-1.56 5-3l1.7-1.17c7.78-5.19 16.29-7.7 25.3-9.84l2.69-1.03c4.07-1.2 7.76-1.33 11.98-1.38" fill="#111411"/><path d="m980.67 93.6 2.53-.04 5.3-.04q3.96-.05 7.9-.15c12.52-.15 22.93 2.24 34.6 6.63l3.15 1.1c6.55 2.32 12.1 6.04 17.85 9.9l2.66 1.68 2.47 1.57 2.19 1.4C1061 117 1061 117 1062 120l1.8.4c3.15.85 4.3 2.63 6.39 5.1 3.03 3.5 6.1 6.84 9.44 10.06 7.69 7.65 12.89 15.54 17.37 25.44l1 2.12c3.2 7.41 4.2 17.12 2 24.88-3.61 6.9-7.5 11.5-15 14-6.71 1.38-11.85 1.64-17.7-2.2-8.92-7-15.14-15-21.15-24.52A55 55 0 0 0 1037 164a112 112 0 0 1-2.56-3.19c-2.16-2.49-3.41-3.69-6.44-4.8v-2l-2.64-.85a106 106 0 0 1-9.11-3.73 39 39 0 0 0-14.3-3.29C1000 146 1000 146 998 145c-4.27-.14-7.9-.16-12 1-3.94.43-3.94.43-5.9.62-11.28 2.03-22.58 10-30.1 18.38l-1.7 2.81c-.2.36-.2.36-1.3 2.2h-2l-.28 1.55c-1 3.34-2.61 6.3-4.22 9.37a280 280 0 0 0-9 19.63A242 242 0 0 1 919 226l-1.01 1.84c-1.77 3.17-3.53 6.05-6 8.72a49 49 0 0 0-5.11 6.75c-1.93 2.77-2.94 3.32-5.88 4.7l-.81 1.8c-1.58 2.91-3.7 4.08-6.4 5.91-1.8 1.28-1.8 1.28-4.16 3.65-6 6-12.9 11.08-20.63 14.63h-2l1.3 3.75c.14.34.14.34.75 2.11.95 2.14.95 2.14 2.38 4a34 34 0 0 1 3.73 6.62l1.16 2.6 1.18 2.67 1.19 2.63c6.1 13.71 6.1 13.71 7.37 20.18a88 88 0 0 0 1.93 7.78c4.28 15.52 4.09 32.38 4.14 48.34v10.53a31 31 0 0 1-1.13 6.8q-.3 3.22-.5 6.45l-.25 3.87-.25 4.04-1 15.63-.25 3.88-.25 3.72-.22 3.3c-.28 3.07-.77 6.06-1.28 9.1q-.06 3.3 0 6.62c.1 5.95.1 5.95-.5 8.28a28 28 0 0 0-.64 6.66l-.02 2.72-.01 2.93-.01 3.05v6.4l-.04 9.68c-.04 13 .3 25.15 4.22 37.66 1.4 5.25 2.5 10.5 3.44 15.85q.6 3.34 1.25 6.67a474 474 0 0 1 4.3 25.94c1.2 8.6 2.17 17.04 2 25.72-.04 5.33.08 10.57.5 15.88.5 6.73.66 13.44.7 20.2l.04 3c0 6.78-.8 13.11-2.23 19.74l3.5.35c4.32.54 8.3 1.62 12.44 2.96l2.1.68c17.3 5.66 17.3 5.66 21.96 12.01.4 3.67 0 5.56-2.12 8.6-17.45 17.72-61.4 16.17-84.7 16.56-40.1.26-80.2-2-120.24-4.16-93.92-5.08-186.46-4.18-280.15 4.81l-2.85.27-2.81.28q-1.46.15-2.96.28-3.31.37-6.63.87c-13.8 1.94-27.6 1.75-41.51 1.7l-10.8-.03q-10.17 0-20.35-.04l-23.21-.04q-23.84-.03-47.67-.1a76 76 0 0 1 9.6-6.82l2.65-1.55 2.8-1.63 5.98-3.5 3.04-1.78c12.2-7.17 24.28-14.54 36.3-22.02a683 683 0 0 1 15.82-9.52c20.69-12.07 40.85-24.95 60.8-38.18l2.36-1.56 4.02-2.67 3.59-2.37c2.9-1.92 5.72-3.9 8.47-6.05 7.92-6.02 14.89-8.47 24.64-10.25 34.5-6.58 68.47-22.1 99.93-37.1l3.18-1.5c19.9-9.44 39.79-18.96 58.99-29.8 7.09-4 14.29-7.8 21.47-11.64a512 512 0 0 0 20.92-11.8C681 503 681 503 684 503l.79 2.4c4.86 14.68 9.6 29.07 17.2 42.6l1.93 3.61a123 123 0 0 0 24.08 31.4q1.72 1.7 3.43 3.43 2.96 2.93 5.97 5.81l4.98 4.87 2.5 2.4c10.16 10 16.12 19.13 16.3 33.41-.02 5.91-.02 5.91-1.18 7.07q-2.74.36-5.5.68c-7.2 1.2-12.76 3.53-17.13 9.57-3.7 6.4-5.3 12.35-4.37 19.75 3.26 6.28 7.19 9.01 13.8 11.16 7.48 2.2 14.52 2.4 22.26 2.27l3.86.03c10.63-.08 22.87-.88 31.08-8.46 15.12-17.92 14.22-49.08 13-71-.83-9-2.28-17.58-5.5-26.04-.5-1.96-.5-1.96.5-4.96q7.05 5.45 14 11l2.69 2.12c11.55 9.62 17.94 23.8 20.04 38.54.55 6.76.6 13.56.27 20.34-1.7 1.7-4.11 1.41-6.44 1.68-7.91 1.3-14.66 4.33-19.56 10.88-4.32 7.42-5.07 13.9-4 22.44 2.1 5.23 5.49 8.03 10.5 10.43 7.9 3.2 16.3 2.82 24.69 2.88l3.83.1c11.24.06 22.6-2.32 30.98-10.4 8.2-11.7 8.3-25.65 8.34-39.46l.02-4.08q.03-6.52.02-13.04l-.01-2.24c-.03-32.26-2.31-62.39-10.2-93.76a176 176 0 0 1-5.48-44.75v-2.12c.04-13.06.77-26.05 1.69-39.06l.19-2.7q1.05-14.89 2.76-29.7.95-8.22 1.3-16.48l.1-2.7c1.44-39.53-1.3-73.87-20.38-108.97l-1.41-2.64-1.22-2.2c-1.02-3-1.03-4.18.28-7.1 2.6-2.1 5.47-3.65 8.38-5.26 7.5-4.38 14.18-8.88 20.62-14.75l2.5-2.26c17.7-16.78 27.6-38.53 36.53-60.84 7.96-19.88 20.03-34.22 39.47-43.59 15.55-5.83 32.52-4.54 47.55 2.25 15.58 7.5 24.82 19.65 34.2 33.81 5.19 7.82 9.8 13.9 18.75 17.63 5.65 1.1 10.4.74 15.44-2.13 4.58-3.3 7.48-7.3 8.56-12.87 1.86-18.92-8.54-33.9-20-48-18.62-21.2-45.68-36.93-74-39-31.83-1.54-57.56 6.28-82.12 27.25-5.44 5.02-9.71 10.66-13.88 16.75l-2 2.88c-7.07 10.88-11.92 22.9-17.16 34.74-11.82 26.53-29.55 47.22-56.28 59.63-6.92 2.01-12.81-.04-19.43-2.07-28.28-8.07-60.3-9.14-89.13-3.18l-2.48.47C685.14 240.22 652.1 255.14 620 271l-3.85 1.9c-14.01 6.9-27.96 13.86-41.62 21.44-9.77 5.4-19.73 10.46-29.68 15.52a457 457 0 0 0-22.81 12.41 161 161 0 0 1-8.54 4.48 411 411 0 0 0-16.5 8.68c-37.37 20.46-37.37 20.46-50.62 26.82l-2.17 1.05c-5.25 2.46-10.62 4.15-16.21 5.7-2.58-6.5-4.44-13.07-6.25-19.82-11.2-40.73-11.2-40.73-21.75-47.18-2.97-1.49-4.67-1.44-8-1-8.92 5-15.72 13.5-21.92 21.41a220 220 0 0 1-11.08 12.6c-.2.24-.2.24-1.18 1.53-4.6 5.52-10.17 5.98-17.01 7.02q-3.53.6-7.04 1.23l-3.5.6c-4.46.83-8.83 1.87-13.21 3.04l-2.26.61q-5.99 1.66-11.87 3.64l-2.56.85q-2.4.81-4.8 1.67c-8.51 2.9-15.41 1.31-23.44-2.27l-2.16-.92q-2.28-.97-4.56-1.97-5.09-2.19-10.18-4.35-2.5-1.04-4.98-2.12l-2.3-.97-2.02-.87A28.6 28.6 0 0 0 231 340a16 16 0 0 0-7.13 7.07c-6.77 22.73 2.89 55.1 9.09 77.25a129 129 0 0 1 3.54 17.05c2.3 16.18 6.43 31.98 11.5 47.5l.93 2.9c5.92 17.46 15.88 29.6 32.07 38.23 3.94 1.84 7.9 3.51 12 5-4.54 7.41-10 13.84-15.64 20.41q-2.94 3.47-5.8 7.02c-8 9.82-16.27 19.38-24.9 28.65a349 349 0 0 0-6 6.76c-3.7 4.25-7.6 8.25-11.6 12.22l-2.01 2.02A228 228 0 0 1 203 633l-2.04 1.58c-5.7 3.82-11 3.8-17.64 3.98-8.05.31-14.1 2.75-19.7 8.7-5.83 7.7-7.88 15.07-6.62 24.74 1.55 5.78 4.8 9.15 9.5 12.67 10 5.32 21.43 6.17 32.5 4.33 6.06-1.9 11.64-4.8 17.14-7.95q2.88-1.62 5.86-3.05l-.65 1.61c-3.15 8.43-3.3 15.9-.35 24.4h-3c-2.86-6.7-3.24-11.87-2-19l-3.32 1.48-4.37 1.94-2.18 1c-11.21 4.95-23.78 5-35.35.75-9.23-4.27-14.41-10.26-18.15-19.62-.8-4.47.04-7.32 1.37-11.56l.56-3.32c3.09-7.9 8.46-14.2 16.19-17.8 5.26-2.1 9.68-3 15.3-2.57 9.29.1 17.39-5.08 23.95-11.3l2.38-2.39c1.99-1.99 3.97-3.8 6.1-5.62a311 311 0 0 0 15.33-14.63l2.85-2.8 2.74-2.74 2.46-2.45A43 43 0 0 0 247 586l5-4a70 70 0 0 0 10-13l5-5 2.06-3.13C271 558 271 558 273 556.57c2.4-1.89 3.5-4.07 4.93-6.74a33 33 0 0 1 3.63-4.96A47 47 0 0 0 287 537c-.43-.2-.43-.2-2.6-1.28-10.48-5.32-17.9-10.63-25.4-19.72l-2.81-2.82c-5.55-5.55-7.75-10.82-10.2-18.18l-.8-2.33a220 220 0 0 1-4.5-15.1 341 341 0 0 0-1.75-6.26 127 127 0 0 1-3.94-18.3l-.42-2.1c-.5-2.45-.92-4.89-1.34-7.34a472 472 0 0 0-7.1-33.48 265 265 0 0 1-4.6-23.84C221 383 221 383 220 381v-5l-1-1c-.28-3.87-.23-7.75-.25-11.63l-.06-3.28c-.04-7.56.68-13.37 5.62-19.4 3.98-3.98 7.54-4.76 13-5.07 4.3.11 7.43 1.3 11.26 3.18 2.68 1.32 5.4 2.45 8.18 3.57 4.39 1.81 8.66 3.76 12.94 5.81 7.84 3.66 15.15 5.87 23.8 3.94l2.29-.49A34 34 0 0 0 302 349a137 137 0 0 1 16.99-4.53c2-.47 2-.47 5-1.54 3.27-1 6.28-1.33 9.66-1.66a76 76 0 0 0 9.09-1.75c2.26-.52 2.26-.52 4.62-.89 5.87-.97 9.03-2.89 12.64-7.63a91 91 0 0 0 3-5q2.19-2.19 4.44-4.32A37 37 0 0 0 373 314l3-3 3.38-4c2.64-3.04 4.96-5.22 8.62-7l1.88-1.19c3.87-1.48 7.65-1.25 11.59-.09 6.77 3.41 11.09 11.33 13.53 18.28l1.56 4.12.7 1.88a107 107 0 0 0 1.7 4.3 105 105 0 0 1 3.04 9.63c.95 3.4 1.9 6.78 3.03 10.12 1 3.02 1.79 6.04 2.53 9.13.73 3 1.47 5.9 2.44 8.82 10.84-3.24 21.2-8.19 30.97-13.86 2.63-1.48 5.33-2.8 8.03-4.14a886 886 0 0 0 9.44-4.95 104 104 0 0 0 8.84-5.24c2.85-1.9 5.48-2.76 8.72-3.8l1.72-1.33c3.02-2.23 6.28-3.9 9.59-5.62q8.45-4.4 16.66-9.22a75 75 0 0 1 10.08-4.93c2.46-1.15 4.7-2.55 7-3.98A46 46 0 0 1 552 303l1.8-1.37a48 48 0 0 1 8-4.57c5.5-2.7 10.77-5.6 16-8.76 9.1-5.43 9.1-5.43 13.45-6.93a45 45 0 0 0 9.89-5.19c3.25-2.07 6.72-3.58 10.24-5.12 4.4-1.96 8.8-3.9 12.87-6.5 3.27-1.86 6.64-3.16 10.15-4.5 3.89-1.59 7.58-3.52 11.29-5.49a126 126 0 0 1 20.76-8.42c4.6-1.5 9.07-3.3 13.55-5.15 5.65-2.33 11.3-3.89 17.24-5.32 2.99-.74 5.86-1.69 8.76-2.68q4-1.06 8-2l3.72-1a92 92 0 0 1 12.97-2.07c7.75-.82 7.75-.82 11.1-1.49 3.07-.6 6.09-.44 9.2-.44l1-1c2.67-.1 5.29-.14 7.95-.13h2.25c5.56 0 5.56 0 7.8 1.13 2.7.07 5.39 0 8.09-.07 3.07.07 5.9.51 8.92 1.07l2.9.4a165 165 0 0 1 21.64 4.65c4.13 1.13 8.27 2.05 12.46 2.95l2.07.62c3.18.62 5.17-1.08 7.93-2.62l3.69-1.75c11.2-5.63 20.42-12.27 27.83-22.4C867 207 867 207 869 206q1.54-2.48 3-5l1.5-1.94c1.5-2.06 1.5-2.06 2.94-4.94 1.56-3.12 1.56-3.12 3.5-5.87 3.39-5.34 5.34-11.2 7.44-17.14 2.78-7.8 5.7-14.39 10.62-21.1q2.68-4.2 5.29-8.44c1.77-2.65 3.7-5.09 5.7-7.57.23-.4.23-.4 1.32-2.44 1.94-2.95 4.14-4.74 6.86-6.95a51 51 0 0 0 6.38-7.1c1.67-1.74 3.28-2.5 5.45-3.5l5-4q2.48-1.56 5-3l1.7-1.17c7.78-5.19 16.29-7.7 25.3-9.84l2.69-1.03c4.07-1.2 7.76-1.33 11.98-1.38" fill="#B8BAB8"/><path d="m684 503 .79 2.41c4.85 14.68 9.61 29.06 17.21 42.59l1.92 3.61A123 123 0 0 0 728 583l3.43 3.44a546 546 0 0 0 5.97 5.82l4.98 4.86 2.5 2.4c10.15 10 16.12 19.13 16.31 33.42-.04 5.91-.04 5.91-1.19 7.06q-4.41.67-8.82 1.21c-3.18.79-3.18.79-5.77 2.88-5.33 2.99-10.31 2.06-16.29 1.72q-17.62-.91-35.28-1.35l-2.57-.06c-21.92-.54-43.84-.6-65.77-.59h-3.11c-30.84.01-61.6.19-92.39 2.19l-5.21.32A1647 1647 0 0 0 489 649l-2.59.22a1596 1596 0 0 0-61.29 6.4l-2.52.32a547 547 0 0 0-24.87 3.6c-4.59.77-9.19 1.4-13.79 2.02l-2.74.38c-6.39.87-12.78 1.53-19.2 2.06v-2c2.26-1.47 4.52-2.81 6.88-4.12l4.71-2.73 2.62-1.52C394.86 642.7 412.99 630.94 431 619l2.35-1.56 4.02-2.67 3.58-2.37c2.92-1.92 5.72-3.9 8.48-6.05 7.92-6.02 14.88-8.47 24.63-10.25 34.5-6.57 68.47-22.09 99.94-37.1l3.18-1.5c19.91-9.44 39.79-18.96 58.98-29.8 7.1-3.99 14.3-7.8 21.48-11.64a524 524 0 0 0 20.92-11.8C681 503 681 503 684 503" fill="#ECEEEC"/><path d="m980.67 93.6 2.53-.04 5.3-.04q3.96-.05 7.9-.15c12.52-.15 22.93 2.24 34.6 6.63l3.15 1.1c6.55 2.32 12.1 6.04 17.85 9.9l2.66 1.68 2.47 1.57 2.19 1.4C1061 117 1061 117 1062 120l1.8.4c3.15.85 4.3 2.63 6.39 5.1 3.03 3.5 6.1 6.84 9.44 10.06 7.69 7.65 12.89 15.54 17.37 25.44l1 2.12c3.2 7.41 4.2 17.12 2 24.88-3.61 6.9-7.5 11.5-15 14-6.71 1.38-11.85 1.64-17.7-2.2-8.92-7-15.14-15-21.15-24.52A55 55 0 0 0 1037 164a112 112 0 0 1-2.56-3.19c-2.16-2.49-3.41-3.69-6.44-4.8v-2l-2.64-.85a106 106 0 0 1-9.11-3.73 39 39 0 0 0-14.3-3.29C1000 146 1000 146 998 145c-4.27-.14-7.9-.16-12 1-3.94.43-3.94.43-5.9.62-11.28 2.03-22.58 10-30.1 18.38l-1.7 2.81c-.2.36-.2.36-1.3 2.2h-2l-.28 1.55c-1 3.34-2.61 6.3-4.22 9.37a280 280 0 0 0-9 19.63A242 242 0 0 1 919 226l-1.01 1.84c-1.77 3.17-3.53 6.05-6 8.72a49 49 0 0 0-5.11 6.75c-1.93 2.77-2.94 3.32-5.88 4.7l-.81 1.8c-1.58 2.91-3.7 4.08-6.4 5.91-1.8 1.28-1.8 1.28-4.16 3.65-6 6-12.9 11.08-20.63 14.63h-2l1.3 3.75c.14.34.14.34.75 2.11.95 2.14.95 2.14 2.38 4a34 34 0 0 1 3.73 6.62l1.16 2.6 1.18 2.67 1.19 2.63c6.1 13.71 6.1 13.71 7.37 20.18a88 88 0 0 0 1.93 7.78c4.28 15.52 4.09 32.38 4.14 48.34v10.53a31 31 0 0 1-1.13 6.8q-.3 3.22-.5 6.45l-.25 3.87-.25 4.04-1 15.63-.25 3.88-.25 3.72-.22 3.3c-.28 3.07-.77 6.06-1.28 9.1q-.06 3.3 0 6.62c.1 5.95.1 5.95-.5 8.28a28 28 0 0 0-.64 6.66l-.02 2.72-.01 2.93-.01 3.05v6.4l-.04 9.68c-.04 13 .3 25.15 4.22 37.66 1.4 5.25 2.5 10.5 3.44 15.85q.6 3.34 1.25 6.67a474 474 0 0 1 4.3 25.94c1.2 8.6 2.17 17.04 2 25.72-.04 5.33.08 10.57.5 15.88.5 6.73.66 13.44.7 20.2l.04 3c0 6.78-.8 13.11-2.23 19.74l3.5.35c4.32.54 8.3 1.62 12.44 2.96l2.1.68c17.3 5.66 17.3 5.66 21.96 12.01.4 3.67 0 5.56-2.12 8.6-17.45 17.72-61.4 16.17-84.7 16.56-40.1.26-80.2-2-120.24-4.16-99.18-5.36-198.13-5.44-301.38 7.14-5.9.73-11.68 1.12-17.62.98L406 704v-1c15.97-2.24 31.96-3.96 48-5.44 4.46-.4 8.9-.86 13.34-1.3 92.85-9.45 185.93-8.49 278.94-2.54q10.34.66 20.72 1.28l2.9.17c18.68 1.11 37.39 1.01 56.09 1.01l11.15.02c48.67.18 48.67.18 71.05-4.58l3.03-.59c21.35-4.38 21.35-4.38 25.78-11.03.56-2.38.56-2.38 0-5-5.45-4.65-11.01-6.66-17.81-8.69l-2.83-.89A168 168 0 0 0 898 661l-.01-2.38c-.44-86.93-.44-86.93-10.81-128.19a176 176 0 0 1-5.5-44.75v-2.12c.05-13.06.78-26.05 1.7-39.06l.19-2.7q1.05-14.89 2.76-29.7.95-8.22 1.3-16.48l.1-2.7c1.44-39.53-1.3-73.87-20.38-108.97l-1.41-2.64-1.22-2.2c-1.02-3-1.03-4.18.28-7.1 2.6-2.1 5.47-3.65 8.38-5.26 7.5-4.38 14.18-8.88 20.62-14.75l2.5-2.26c17.7-16.78 27.6-38.53 36.53-60.84 7.96-19.88 20.03-34.22 39.47-43.59 15.55-5.83 32.52-4.54 47.55 2.25 15.58 7.5 24.82 19.65 34.2 33.81 5.19 7.82 9.8 13.9 18.75 17.63 5.65 1.1 10.4.74 15.44-2.13 4.58-3.3 7.48-7.3 8.56-12.87 1.86-18.92-8.54-33.9-20-48-18.62-21.2-45.68-36.93-74-39-31.83-1.54-57.56 6.28-82.12 27.25-5.44 5.02-9.71 10.66-13.88 16.75l-2 2.88c-7.07 10.88-11.92 22.9-17.16 34.74-11.82 26.53-29.55 47.22-56.28 59.63-6.92 2.01-12.81-.04-19.43-2.07-28.28-8.07-60.3-9.14-89.13-3.18l-2.48.47C685.14 240.22 652.1 255.14 620 271l-3.85 1.9c-14.01 6.9-27.96 13.86-41.62 21.44-9.77 5.4-19.73 10.46-29.68 15.52a457 457 0 0 0-22.81 12.41 161 161 0 0 1-8.54 4.48 411 411 0 0 0-16.5 8.68c-37.37 20.46-37.37 20.46-50.62 26.82l-2.17 1.05c-5.25 2.46-10.62 4.15-16.21 5.7-2.58-6.5-4.44-13.07-6.25-19.82-11.2-40.73-11.2-40.73-21.75-47.18-2.97-1.49-4.67-1.44-8-1-8.92 5-15.72 13.5-21.92 21.41a220 220 0 0 1-11.08 12.6c-.2.24-.2.24-1.18 1.53-4.6 5.52-10.17 5.98-17.01 7.02q-3.53.6-7.04 1.23l-3.5.6c-4.46.83-8.83 1.87-13.21 3.04l-2.26.61q-5.99 1.66-11.87 3.64l-2.56.85q-2.4.81-4.8 1.67c-8.51 2.9-15.41 1.31-23.44-2.27l-2.16-.92q-2.28-.97-4.56-1.97-5.09-2.19-10.18-4.35-2.5-1.04-4.98-2.12l-2.3-.97-2.02-.87A28.6 28.6 0 0 0 231 340a16 16 0 0 0-7.13 7.07c-6.77 22.73 2.89 55.1 9.09 77.25a129 129 0 0 1 3.54 17.05c2.3 16.18 6.43 31.98 11.5 47.5l.93 2.9c5.92 17.46 15.88 29.6 32.07 38.23 3.94 1.84 7.9 3.51 12 5-4.54 7.41-10 13.84-15.64 20.41q-2.94 3.47-5.8 7.02c-8 9.82-16.27 19.38-24.9 28.65a349 349 0 0 0-6 6.76c-3.7 4.25-7.6 8.25-11.6 12.22l-2.01 2.02A228 228 0 0 1 203 633l-2.04 1.58c-5.7 3.82-11 3.8-17.64 3.98-8.05.31-14.1 2.75-19.7 8.7-5.83 7.7-7.88 15.07-6.62 24.74 1.55 5.78 4.8 9.15 9.5 12.67 10 5.32 21.43 6.17 32.5 4.33 6.06-1.9 11.64-4.8 17.14-7.95q2.88-1.62 5.86-3.05l-.65 1.61c-3.15 8.43-3.3 15.9-.35 24.4h-3c-2.86-6.7-3.24-11.87-2-19l-3.32 1.48-4.37 1.94-2.18 1c-11.21 4.95-23.78 5-35.35.75-9.23-4.27-14.41-10.26-18.15-19.62-.8-4.47.04-7.32 1.37-11.56l.56-3.32c3.09-7.9 8.46-14.2 16.19-17.8 5.26-2.1 9.68-3 15.3-2.57 9.29.1 17.39-5.08 23.95-11.3l2.38-2.39c1.99-1.99 3.97-3.8 6.1-5.62a311 311 0 0 0 15.33-14.63l2.85-2.8 2.74-2.74 2.46-2.45A43 43 0 0 0 247 586l5-4a70 70 0 0 0 10-13l5-5 2.06-3.13C271 558 271 558 273 556.57c2.4-1.89 3.5-4.07 4.93-6.74a33 33 0 0 1 3.63-4.96A47 47 0 0 0 287 537c-.43-.2-.43-.2-2.6-1.28-10.48-5.32-17.9-10.63-25.4-19.72l-2.81-2.82c-5.55-5.55-7.75-10.82-10.2-18.18l-.8-2.33a220 220 0 0 1-4.5-15.1 341 341 0 0 0-1.75-6.26 127 127 0 0 1-3.94-18.3l-.42-2.1c-.5-2.45-.92-4.89-1.34-7.34a472 472 0 0 0-7.1-33.48 265 265 0 0 1-4.6-23.84C221 383 221 383 220 381v-5l-1-1c-.28-3.87-.23-7.75-.25-11.63l-.06-3.28c-.04-7.56.68-13.37 5.62-19.4 3.98-3.98 7.54-4.76 13-5.07 4.3.11 7.43 1.3 11.26 3.18 2.68 1.32 5.4 2.45 8.18 3.57 4.39 1.81 8.66 3.76 12.94 5.81 7.84 3.66 15.15 5.87 23.8 3.94l2.29-.49A34 34 0 0 0 302 349a137 137 0 0 1 16.99-4.53c2-.47 2-.47 5-1.54 3.27-1 6.28-1.33 9.66-1.66a76 76 0 0 0 9.09-1.75c2.26-.52 2.26-.52 4.62-.89 5.87-.97 9.03-2.89 12.64-7.63a91 91 0 0 0 3-5q2.19-2.19 4.44-4.32A37 37 0 0 0 373 314l3-3 3.38-4c2.64-3.04 4.96-5.22 8.62-7l1.88-1.19c3.87-1.48 7.65-1.25 11.59-.09 6.77 3.41 11.09 11.33 13.53 18.28l1.56 4.12.7 1.88a107 107 0 0 0 1.7 4.3 105 105 0 0 1 3.04 9.63c.95 3.4 1.9 6.78 3.03 10.12 1 3.02 1.79 6.04 2.53 9.13.73 3 1.47 5.9 2.44 8.82 10.84-3.24 21.2-8.19 30.97-13.86 2.63-1.48 5.33-2.8 8.03-4.14a886 886 0 0 0 9.44-4.95 104 104 0 0 0 8.84-5.24c2.85-1.9 5.48-2.76 8.72-3.8l1.72-1.33c3.02-2.23 6.28-3.9 9.59-5.62q8.45-4.4 16.66-9.22a75 75 0 0 1 10.08-4.93c2.46-1.15 4.7-2.55 7-3.98A46 46 0 0 1 552 303l1.8-1.37a48 48 0 0 1 8-4.57c5.5-2.7 10.77-5.6 16-8.76 9.1-5.43 9.1-5.43 13.45-6.93a45 45 0 0 0 9.89-5.19c3.25-2.07 6.72-3.58 10.24-5.12 4.4-1.96 8.8-3.9 12.87-6.5 3.27-1.86 6.64-3.16 10.15-4.5 3.89-1.59 7.58-3.52 11.29-5.49a126 126 0 0 1 20.76-8.42c4.6-1.5 9.07-3.3 13.55-5.15 5.65-2.33 11.3-3.89 17.24-5.32 2.99-.74 5.86-1.69 8.76-2.68q4-1.06 8-2l3.72-1a92 92 0 0 1 12.97-2.07c7.75-.82 7.75-.82 11.1-1.49 3.07-.6 6.09-.44 9.2-.44l1-1c2.67-.1 5.29-.14 7.95-.13h2.25c5.56 0 5.56 0 7.8 1.13 2.7.07 5.39 0 8.09-.07 3.07.07 5.9.51 8.92 1.07l2.9.4a165 165 0 0 1 21.64 4.65c4.13 1.13 8.27 2.05 12.46 2.95l2.07.62c3.18.62 5.17-1.08 7.93-2.62l3.69-1.75c11.2-5.63 20.42-12.27 27.83-22.4C867 207 867 207 869 206q1.54-2.48 3-5l1.5-1.94c1.5-2.06 1.5-2.06 2.94-4.94 1.56-3.12 1.56-3.12 3.5-5.87 3.39-5.34 5.34-11.2 7.44-17.14 2.78-7.8 5.7-14.39 10.62-21.1q2.68-4.2 5.29-8.44c1.77-2.65 3.7-5.09 5.7-7.57.23-.4.23-.4 1.32-2.44 1.94-2.95 4.14-4.74 6.86-6.95a51 51 0 0 0 6.38-7.1c1.67-1.74 3.28-2.5 5.45-3.5l5-4q2.48-1.56 5-3l1.7-1.17c7.78-5.19 16.29-7.7 25.3-9.84l2.69-1.03c4.07-1.2 7.76-1.33 11.98-1.38" fill="#E7E8E8"/><path d="M398 300c11.95 6.45 15.65 20.66 19.94 32.69l.96 2.68.88 2.52.79 2.25C421 342 421 342 420 344l-2-1 .87 1.86c1.57 4.36 2.34 8.79 3.19 13.33l1.49 7.83C424 368 424 368 425 370q.06 3.5 0 7c-3-1-3-1-4.06-3l-.94-2-2-1v-2l-1.56-.69a43 43 0 0 1-5.75-3.75c-3.4-2.48-6.77-4.04-10.69-5.56v-2c-11.85-3.41-23.86-5.89-36-8 .55-3.93 1.26-7.41 3-11l2-1q1.1-3.47 2-7h2l.35-1.77c1.13-3.86 3.71-6.78 6.09-9.98l1.52-2.11 1.47-2 1.35-1.83L385 311h2l.81-1.88C389 307 389 307 392 305l-5 1v-3c3.63-2.88 6.42-3.65 11-3" fill="#252623"/><path d="M811 573c6.1 3.75 11.4 7.97 16.64 12.85a48 48 0 0 0 4.94 4.11c9.61 8.08 14.43 22.62 16.15 34.7.55 6.76.61 13.56.27 20.34-1.7 1.7-4.11 1.41-6.44 1.69-5.72.86-9.26 2.64-13.72 6.26-4.67 1.72-9.11.18-13.84-.95l.18-1.82c2.35-23.9 4.8-49.19-3.58-72.22-.6-1.96-.6-1.96-.6-4.96" fill="#EBECEB"/><path d="M248.57 338.8c2.66 1.31 5.37 2.41 8.12 3.51a266 266 0 0 1 20.31 9.7v2a41 41 0 0 1-10.2-3.19l-2.98-1.32-3.07-1.38c-21.74-9.74-21.74-9.74-29.75-8.12a16 16 0 0 0-7.13 7.07c-6.77 22.73 2.89 55.1 9.09 77.25a132 132 0 0 1 3.54 17.05c2.31 16.18 6.43 31.98 11.5 47.5l.93 2.9c5.91 17.46 15.88 29.6 32.07 38.23a152 152 0 0 0 12 5c-4.54 7.41-9.99 13.84-15.64 20.4a386 386 0 0 0-5.8 7.03q-11.98 14.74-24.89 28.65a318 318 0 0 0-6 6.76c-3.7 4.25-7.61 8.25-11.61 12.22l-2.01 2.02A230 230 0 0 1 203 633l-2.04 1.58c-5.71 3.82-11 3.8-17.65 3.98-8.04.31-14.09 2.75-19.69 8.7-5.83 7.7-7.89 15.07-6.62 24.74 1.55 5.78 4.8 9.15 9.51 12.67 9.99 5.32 21.42 6.17 32.49 4.33 6.06-1.9 11.64-4.8 17.13-7.95q2.9-1.62 5.87-3.05l-.66 1.61c-3.15 8.43-3.29 15.9-.34 24.4h-3c-2.86-6.7-3.24-11.87-2-19-.55.23-.55.23-3.32 1.48l-4.37 1.94-2.18 1c-11.21 4.95-23.78 4.98-35.35.75-9.23-4.27-14.41-10.26-18.16-19.62-.78-4.47.05-7.33 1.38-11.56l.56-3.32c3.08-7.9 8.46-14.2 16.19-17.8 5.26-2.12 9.67-3 15.31-2.57 9.28.1 17.38-5.08 23.94-11.3l2.37-2.39c2-1.99 3.98-3.8 6.12-5.62a311 311 0 0 0 15.32-14.63l2.85-2.8 2.73-2.74 2.47-2.45A43 43 0 0 0 247 586l5-4a70 70 0 0 0 10-13l5-5 2.06-3.13C271 558 271 558 273 556.57c2.41-1.89 3.5-4.08 4.93-6.74a33 33 0 0 1 3.63-4.96A48 48 0 0 0 287 537l-2.61-1.28C273.92 530.4 266.51 525.1 259 516l-2.81-2.82c-5.56-5.55-7.75-10.82-10.19-18.18l-.81-2.33a220 220 0 0 1-4.5-15.1 341 341 0 0 0-1.75-6.26 127 127 0 0 1-3.94-18.3l-.42-2.1q-.72-3.67-1.34-7.34a472 472 0 0 0-7.09-33.48c-1.93-7.9-3.41-15.8-4.61-23.84C221 383 221 383 220 381v-5l-1-1c-.28-3.87-.23-7.75-.25-11.63l-.06-3.28c-.04-7.56.68-13.37 5.62-19.4 6.87-6.88 16.14-5.9 24.26-1.89" fill="#E2E3E3"/><path d="m364 562 3 1c-3.17 7.4-10.58 12.71-16.57 17.86a469 469 0 0 0-23.7 22.43 142 142 0 0 1-7.41 6.67 459 459 0 0 0-8.63 7.85l-3.39 3.14-6.19 5.73a325 325 0 0 1-16.09 13.83 303 303 0 0 0-8.57 7.4A523 523 0 0 1 267 656l-2.77 2.35c-8.04 6-16.57 5.72-26.23 5.65a90 90 0 0 1 10.94-9.62l3.47-2.64 1.79-1.37q4.4-3.37 8.74-6.81l1.75-1.38 8.95-7.04c8.06-6.32 16.1-12.67 24.04-19.14l4.07-3.31 2.08-1.7q6.62-5.38 13.36-10.61a453 453 0 0 0 15.2-12.47q5.9-5 11.99-9.8c3.78-3.04 7.47-6.19 11.16-9.34q2.22-1.9 4.46-3.77l2.2-1.89z" fill="#EBEBEE"/><path d="m309.75 471.31 2.22.1c4.06.26 7.36.84 11.03 2.6l2.13.8c2.58 1.64 3.59 3.43 4.87 6.2-1 3-1 3-3.74 4.52-13.4 5.73-24.58 7.97-38.79 3.48-5.12-2.1-9.38-4.93-11.97-9.89L275 477c11.7-4.07 22.31-6.33 34.75-5.69" fill="#151615"/><path d="M884 434h1q.55 5.13 1.06 10.25l.32 2.93.55 5.44c.07 2.38.07 2.38-.42 4.24a28 28 0 0 0-.66 6.7l-.01 2.73-.01 2.92-.01 3.06-.01 6.4-.03 9.68c-.04 12.99.3 25.14 4.22 37.65 1.4 5.26 2.5 10.49 3.44 15.85q.6 3.34 1.25 6.67a472 472 0 0 1 3.93 23.36l.38 2.59c1.2 8.59 2.16 17.04 2 25.72-.05 5.57.09 11.06.5 16.62 1.29 17.6 1.29 17.6-.47 21.13-1.38 2.77-1.45 5.23-1.65 8.31l-.23 3.27L899 652h-1l-.01-2.04c-.24-40.65-.85-79.88-10.82-119.52a177 177 0 0 1-5.42-45.38l.01-2.15c.04-16.35 1.04-32.62 2.24-48.91" fill="#DDDCDF"/><path d="M411 450c-1.06 3.28-2.62 4.57-5.5 6.25C402 458 402 458 400 458v2l-2.52 1.24-3.29 1.64-3.27 1.61C388 466 388 466 385 468h-3v4l-1.76.33A49 49 0 0 0 367 477h-4c-.3-3.89-.46-6.26 1.62-9.62 2.7-2.7 5.31-5.1 8.38-7.38h3v2h2l.22-2.34c.78-2.66.78-2.66 2.71-4.14 19.63-9 19.63-9 30.07-5.52" fill="#131614"/><path d="M356 486c2.62 2 2.62 2 4 4a37 37 0 0 1-4 8l-.44 3.56L355 505c-3 2-3 2-5.5 1.94-3.31-1.25-3.77-2.92-5.5-5.94l-2.62-1.44c-2.38-1.56-2.38-1.56-3.5-4.44.12-3.12.12-3.12 2.37-5.93 4.78-3.8 9.84-3.93 15.75-3.19" fill="#656563"/><path d="M885 321c10.12 10.12 7.09 40.48 7.12 53.69l.02 3.76-.01 3.56v3.2A32 32 0 0 1 891 392q-.3 3.23-.5 6.46l-.25 3.87-.25 4.05-1 15.62-.25 3.94-.25 3.76-.21 3.36c-.35 3.54-1.1 6.6-2.29 9.94h-1c-.19-9.34-.23-18.54.94-27.81 3.19-25.72 3.24-52.2.3-77.92-.58-5.41-.89-10.84-1.24-16.27" fill="#E5E6E8"/><path d="M155 664h1l.3 1.94c1.25 7.27 2.83 13.08 8.89 17.81 10.01 6.32 22.32 7.16 33.81 5.25 6.06-1.9 11.64-4.8 17.14-7.95q2.88-1.6 5.86-3.05l-.66 1.62c-3.15 8.42-3.29 15.89-.34 24.38h-3c-2.86-6.69-3.24-11.85-2-19l-3.32 1.5-4.37 1.94-2.18.98c-11.21 4.97-23.78 5-35.35.77-6.61-3.06-12.74-7.66-16.2-14.18-1.15-3.98-.32-8 .42-12.01" fill="#DDE1DF"/><path d="m289 473 .12 3c.81 5.72 4.64 10.23 9.08 13.73L300 491c-8.18-.19-15.56-1.93-21.74-7.59-3.26-3.75-3.26-3.75-3.26-6.41 12-4 12-4 14-4" fill="#E6C162"/><path d="m980.46 93.8 2.4.01 7.51.06 5.13.03q6.24.03 12.5.1l1 2-2.5.04c-24.39.48-45.22 2.08-66.82 14.7C937 112 937 112 934 111c8.12-6.96 16.54-11.7 27.12-13.65a42 42 0 0 0 7.54-2.4c3.98-1.14 7.7-1.2 11.8-1.15" fill="#EBECED"/><path d="m782.81 226.38 3.14.27c2.74.31 5.36.78 8.05 1.34q1.27.24 2.58.44c5.34.9 10.32 2.1 15.42 3.91 2.62.87 5.28 1.22 8 1.66q2.5.98 5 2 2.49.57 5 1l-1 2c-6.14.38-11.04-1.03-16.88-2.81-19.6-5.66-39.82-6.66-60.12-7.2v-1q1.02-.04 2.08-.06l9.3-.37 3.27-.12 3.12-.12 2.9-.11c9.8-.87 9.8-.87 10.14-.84" fill="#D9D9DD"/><path d="m376 460 5 10q-3.37 1.76-6.75 3.5l-1.92 1.01c-3.45 1.76-5.38 2.49-9.33 2.49-.3-3.89-.46-6.26 1.62-9.62C372 460 372 460 376 460" fill="#F2C86A"/><path d="m1019.75 96.06 2.38.72A108 108 0 0 1 1052 111l2.65 1.67 2.48 1.58 2.19 1.4C1061 117 1061 117 1062 120c2.06.68 2.06.68 4 1l1 5-3.25-2.44-2.24-1.66a197 197 0 0 1-5.12-4.02C1040.82 105.5 1022.65 99.04 1003 97v-1c6.41-2.1 10.37-1.96 16.75.06" fill="#DCDDDD"/><path d="M228 385h1v6l2 1q.39 2.8.69 5.63c.55 4.18 1.75 8.19 2.87 12.25l1.38 5.05.62 2.23C237 419 237 419 237 421l-3 1c-3.39-2.26-3.48-2.68-4.35-6.44l-.64-2.71-.63-2.85-.66-2.75a152 152 0 0 1-2.56-13.69l-.32-2.37c.21-2.85 1.26-4.11 3.16-6.19" fill="#151716"/><path d="M911 693c-3.91 2.61-7.35 2.9-11.94 3.56l-2.34.38c-18.52 2.77-37.32 2.08-55.97 1.62l-7.24-.16q-8.76-.18-17.51-.4v-1l2.02-.02 21.12-.3 7.85-.1c39.21-.48 39.21-.48 57.77-4.31 2.37-.29 3.98 0 6.24.73" fill="#DEE0DF"/><path d="M866 271h2l1 3h-2l1.31 3.75.74 2.11c.95 2.14.95 2.14 2.37 3.99a34 34 0 0 1 3.74 6.63l1.16 2.59 1.18 2.68 1.18 2.63c3.3 7.4 6.2 14.79 8.32 22.62h-2l-1 4-.63-2.46a161 161 0 0 0-16.61-39.92c-1.7-3.02-2.8-5.03-2.57-8.54C865 272 865 272 866 271" fill="#E1E0E2"/><path d="M898 587c2 1 2 1 2.62 2.57.53 3.42.44 6.8.38 10.24-.05 5.7.08 11.32.5 17 1.29 17.6 1.29 17.6-.47 21.13-1.38 2.77-1.45 5.23-1.65 8.31l-.23 3.27L899 652h-1z" fill="#CACBCA"/><path d="m493 579 3 1c-5.19 4.73-10.24 8.75-17 11v2h2v2c-6.21 2.14-11.43 3.37-18 3v-2l3.31-1.62c22.67-11.36 22.67-11.36 26.69-15.38" fill="#050706"/><path d="m188 635 1 2-2.27.26c-9.67 1.33-18.34 3.77-24.49 11.79-3.97 6.22-5.94 12.74-7.24 19.95l-3-1q.7-3.3 1.46-6.57.63-2.89 1.1-5.81c3.12-7.86 8.48-14.16 16.19-17.74 5.84-2.35 10.96-3 17.25-2.88" fill="#E6E9E6"/><path d="M888 384h1c1.35 10.69 1.16 21.26.56 32l-.12 2.18A76 76 0 0 1 888 429l.1 6c-.14 2.87-1.04 5.34-2.1 8h-1c-.2-10.1-.07-19.95 1.21-29.98 1.19-9.63 1.45-19.33 1.79-29.02" fill="#E3E5E4"/><path d="M1032 157c6.38.83 10.3 7.22 14 12q4.04 5.72 7.8 11.63c7.63 11.85 7.63 11.85 13.51 15.25l2.12 1.24 1.57.88-3 2c-9.04-7.88-15.89-15.51-22.31-25.58A57 57 0 0 0 1037 164c-1.78-2.27-3.37-4.62-5-7" fill="#DEDEDF"/><path d="M220 678h2l-.66 1.62c-3.15 8.42-3.29 15.89-.34 24.38h-3c-2.86-6.69-3.24-11.85-2-19l-2.27 1.16-2.98 1.46-2.95 1.48c-2.8.9-2.8.9-4.97-.04L201 688l1.53-.7 6.85-3.18 2.4-1.1 2.31-1.07 2.12-.99C218 680 218 680 220 678" fill="#DCDCDF"/><path d="M303.13 468.81q1.21 0 2.48-.04c7.65-.02 14.99.68 21.4 5.23l-1 2-2-1-1 2c-.18-.5-.18-.5-1-3-3.7-1.54-7.99-1.35-11.94-1.57l-2.27-.12a284 284 0 0 0-19.8-.3c5.1-3.4 9.24-3.2 15.13-3.2" fill="#040504"/><path d="m759.63 224.81 2.12-.04c4.78 0 8.7.72 13.25 2.23v1c-24.99 1.2-24.99 1.2-35 1l1-3 2.15.03 2.78.03 2.79.04c3.56-.16 6.92-1.29 10.9-1.29" fill="#F2F2F5"/><path d="m225 403 3 1c1 2.62 1 2.62 1.86 6.08l.94 3.77.47 1.97q.72 2.97 1.48 5.92c2.59 10.59 2.59 10.59 1.25 14.26-3.32-5.71-4.65-11.81-6.19-18.19l-.82-3.31C225 406.42 225 406.42 225 403" fill="#E3E5E4"/><path d="m782.88 226.31 3.17.24c2.77.42 4.58 1.04 6.95 2.45v2l-3.12-.19a2394 2394 0 0 0-37.88-1.8v-1l2.08-.09q4.65-.16 9.3-.36l3.26-.12 3.13-.13 2.9-.1z" fill="#E8E8E9"/><path d="M889 351h1c.9 7.91 1.36 15.8 1.69 23.75l.18 3.61.14 3.5.14 3.14c-.17 3.3-.97 5.92-2.15 9h-1z" fill="#F0F2F1"/><path d="M422 342c2.65 1.96 3 2.98 3.56 6.31L426 352q.95 3.01 2 6l.94 3.69c.99 3.08 1.56 4.38 4.06 6.31l-5 1c-2-4.99-3.69-10.04-5.25-15.19l-1.08-3.54c-.66-3.23-.59-5.14.33-8.27" fill="#E1E2E0"/><path d="M899 612h1v28h2c.07 4.29.04 7.86-1 12-.09 2.67-.04 5.32 0 8h-3z" fill="#F3F4F5"/><path d="m242 593 1 3-22 22-2-2z" fill="#D5D8D6"/><path d="M222 343h2l-.46 2.69c-.82 5.72-.9 11.48-1.1 17.25l-.13 3.52L222 375h-3q-.12-5.78-.19-11.56l-.07-3.29c-.06-6.23.32-10.64 3.26-16.15z" fill="#EEEEF0"/><path d="m364 562 3 1c-1.54 3.68-3.78 5.99-6.62 8.75l-2.48 2.42L356 576l-3-1c0-3 0-3 2.12-5.38L358 567l1.56-1.47c1.56-1.41 1.56-1.41 4.44-3.53" fill="#E5E7E4"/><path d="M228 385h1v6l2 1c.41 2.07.41 2.07.62 4.56l.23 2.51.15 1.93-3 1-2 2q-.55-2.6-1.06-5.19l-.6-2.92c-.53-4.55.12-7.08 2.66-10.89" fill="#1A1A1C"/><path d="m412 449-1 2-3-1c-10.7-.85-19.72 2.98-28.94 8.14C377 459 377 459 374 458c9.99-6.36 25.86-15.07 38-9" fill="#030403"/><path d="M896 565c3.76 5.65 4.36 13.47 3.68 20.14-.47 2.33-1 4.59-1.68 6.86h-1l-1.06-12.94-.32-3.73-.28-3.54-.27-3.29-.07-2.5z" fill="#DBDCDD"/><path d="M288 473h1l.12 3c.81 5.72 4.64 10.23 9.08 13.73L300 491q-2.44-.17-4.88-.38l-2.74-.21C290 490 290 490 288 488h4v-2l-5 1 .5-1.94c.66-4.04.58-7.98.5-12.06" fill="#C5AB66"/><path d="m599 277 3 1a36 36 0 0 1-9.44 7.31l-2.81 1.62c-3.11 1.21-4.6 1.05-7.75.07 1.38-2.76 2.82-2.84 5.69-3.88 3.21-1.21 5.98-2.41 8.75-4.43z" fill="#EEECEF"/><path d="M838 694h26l1 3h-22v-1l-5-1z" fill="#A2A5A2"/><path d="m879 190 2 1c-1.52 4.43-3.93 8.03-6.62 11.81l-1.28 1.81L870 209l-1-3a44 44 0 0 1 4.5-6.94c1.85-2.54 3.12-5.24 4.5-8.06z" fill="#DFE3E1"/><path d="M684 691c10.07-.11 19.97.02 30 1v1a62 62 0 0 1-12.88 1.06l-3.49-.02L695 694v-2h-11z" fill="#E4E5E4"/><path d="M155 664h1l.3 1.94c1.36 7.89 3.56 13.58 9.7 19.06-2.91 0-4.55-.56-6.63-2.6-3.47-4.33-5.26-7.71-5.37-13.4.44-2.94.44-2.94 1-5" fill="#DEDFDD"/><path d="M238 336q2.04 1.44 4 3l-2.16.04c-6.9.35-10.6 1.42-15.84 5.96l-1-3c4.61-3.95 8.72-6.8 15-6" fill="#E4E5E5"/><path d="m544 306 1 2c-3.35 3.91-7.2 6.24-12 8-3.5.25-3.5.25-6 0 1.72-2.09 2.6-2.93 5.31-3.41 3.08-.68 4.93-1.85 7.5-3.65l2.4-1.66z" fill="#EEEFF2"/><path d="M889 170c.81 2.33 1.12 3.62.38 6.01l-1.03 2.1-1.11 2.28-1.18 2.36-1.17 2.4q-1.43 2.93-2.89 5.85h-2c2.36-7.39 4.81-14.41 9-21" fill="#EBEEEB"/><path d="M325 476h2a22 22 0 0 1 3 5c-1 3-1 3-3.88 4.75C323 487 323 487 320 486l3-1c.73-2.07.73-2.07 1.19-4.56l.48-2.51z" fill="#B8AD82"/><path d="M413 325h2c4.59 11.52 4.59 11.52 4 17-3.42-2.28-3.61-3.01-4.69-6.81l-.76-2.58c-.55-2.62-.65-4.94-.55-7.61" fill="#1C1D1F"/><path d="M244 479c2.11 3.17 3.02 5.86 4.12 9.5l1.08 3.47c.8 3.03.8 3.03.8 6.03-2.76-1.01-3.8-1.57-5.08-4.28l-.73-2.66-.77-2.65C243 486 243 486 244 483z" fill="#D9DBD9"/><path d="M1069 199h20c-3.39 3.39-4.28 3.5-8.88 3.88l-3.11.3c-3.48-.21-5.24-1.12-8.01-3.18z" fill="#EEEDEF"/><path d="m1097 184 3 4q-1.35 2.2-2.75 4.38l-1.55 2.46c-1.79 2.27-2.99 3.2-5.7 4.16-2.25-.38-2.25-.38-4-1l2.75-1.62a19.2 19.2 0 0 0 8-10.76z" fill="#DFDEE1"/><path d="m418 343 3 1c1.2 2.65 1.2 2.65 2.25 5.94l1.08 3.27C425 356 425 356 424 358l-3-1c-.95-2.65-.95-2.65-1.69-5.94l-.76-3.27C418 345 418 345 418 343" fill="#1D1E1D"/><path d="m365 468 3 6h2v-2h5c-4.13 3.25-6.64 5-12 5-.12-3.38-.12-3.38 0-7z" fill="#DFC67D"/><path d="m933 110 1 2 2 1-2.5 1.62c-3.95 2.63-7.72 5.5-11.5 8.38.12-2.25.12-2.25 1-5 2.81-2.06 2.81-2.06 6-4a89 89 0 0 0 4-4" fill="#E0E3E0"/><path d="M246 657v3l10 2v1l-18 1c5-5 5-5 8-7" fill="#DCDFDE"/><path d="M327 476h4c1.35 2.71 1.07 5.01 1 8h-2l-2 4-4-1v-2l5-2z" fill="#22180D"/><path d="M373 460h3l5 10-5 2v-2h-2v-3h2l-2-2c-.62-2.62-.62-2.62-1-5" fill="#E2BF78"/><path d="M794 228q2.6.43 5.19.88l2.92.49c2.8.61 5.26 1.49 7.89 2.63v1c-6.1.22-11.22.01-17-2z" fill="#E9E9EC"/><path d="M157 651h1a125 125 0 0 1-3 18l-3-1c3.25-15.25 3.25-15.25 5-17" fill="#EDF0EE"/><path d="M893 547c2.91 2.91 2.71 6.21 3.12 10.12l.27 2.29.61 5.59-2 1a71 71 0 0 1-2-19" fill="#EBEBED"/><path d="m921 120 1 3-11 12-2-1c2.11-4.21 4.76-6.69 8.38-9.57C919 123 919 123 921 120" fill="#ECEDED"/><path d="M217 682v2a357 357 0 0 1-5.75 3.12l-3.23 1.76c-3.02 1.12-3.02 1.12-5.41.3L201 688q3.15-1.51 6.31-3l3.55-1.69C214 682 214 682 217 682" fill="#D7D7D9"/><path d="M847 628h2v17h-2c-1.23-3.68-.91-6.91-.56-10.75l.31-3.55z" fill="#C5C6C5"/><path d="M281 475v2h-3v3h2v2h2a18 18 0 0 1 3 3v2c-5.02-1.43-7.01-3.91-10-8v-2c3.75-2 3.75-2 6-2" fill="#D3B670"/><path d="M777 227v2h6v1l-31-1v-1l11.38-.5 3.27-.14 3.12-.14 2.89-.13q2.17-.08 4.34-.09" fill="#B7B7BA"/><path d="M867 207h2c-.47 4.32-3.03 6.34-6.06 9.25l-2.79 2.7L858 221l-2-2 2.12-2.06a104 104 0 0 0 7.55-8.58z" fill="#ECEDEE"/><path d="M1034 103c6.6.35 9.95 1.68 15 6v2c-5.48-1.55-10.11-4.16-15-7z" fill="#E5E7E7"/><path d="M867.37 693.78C870 694 870 694 873 697l-26-1v-1l10.43-.65c3.3-.2 6.63-.35 9.94-.57" fill="#C1C4C2"/><path d="M231 420a19 19 0 0 1 3.19 7.44l.54 2.31c.29 2.38 0 3.98-.73 6.25a29 29 0 0 1-4-13z" fill="#CDD1CC"/><path d="m919 125 2 3-8 8-3-1z" fill="#232324"/><path d="M839 231c-.12 1.81-.12 1.81-1 4-2.81 1.88-2.81 1.88-6 3-2.38-.81-2.38-.81-4-2l2.81-1.38c7.11-3.62 7.11-3.62 8.19-3.62" fill="#E8EAEC"/><path d="m447 699-1 2a41 41 0 0 1-17 0v-1c6.07-.77 11.89-1.1 18-1" fill="#E0E2E0"/><path d="M908 135h2c-1.54 3.2-3.29 6.22-5.12 9.25l-1.64 2.7L902 149l-2-3q1.93-2.76 3.88-5.5l2.17-3.09z" fill="#E1E0E2"/><path d="M232 433c2.82 2.64 3.57 4.1 4 8q.09 4 0 8l-2-1c-.48-2.54-.84-5-1.12-7.56A424 424 0 0 1 232 433" fill="#EAECEB"/><path d="M572 556h6l1 2-10 4-2-2 2.5-1.44L572 557z" fill="#1C221D"/><path d="m242 340 2 1-1 2 2 1-3 3-1-2-10 1 1-2h9z" fill="#1B1B20"/><path d="M359 332c0 3.43-.34 3.82-2.62 6.19-2.51 2.41-3.13 2.78-6.76 3.19L347 341v-2l3.75-1.25c3.56-1.32 5.79-2.78 8.25-5.75" fill="#F1F1F4"/><path d="M478 696v1h-6v2l-12-1v-1c6.05-.9 11.89-1.11 18-1" fill="#DDE1DD"/><path d="m370 660-1 2 4 1-11 1v-2c4.39-3.2 4.39-3.2 8-2" fill="#E4E6E5"/><path d="m376 462 4 2v2h4v2h-2v4h-5l4-2-1.09-1.5-1.41-1.94-1.41-1.93C376 463 376 463 376 462" fill="#2D1D0D"/><path d="M236 444h1a80 80 0 0 1 1 15c-1.98-1.64-2.93-2.81-3.81-5.25-.25-3.58.68-6.37 1.81-9.75" fill="#DDDEDF"/><path d="M222 373h1c.98 4.05 1.08 7.84 1 12h-2c-1.12-1.5-1.12-1.5-2-4 .42-2.78 1.19-5.3 2-8" fill="#DADADC"/><path d="M898 587c2 1 2 1 2.69 2.56.47 3.67-.03 6.79-.69 10.44l-2 1z" fill="#F0F2F2"/><path d="M265 349c4.88-.35 7.77.58 12 3v2c-4.39-.66-7.98-2.19-12-4z" fill="#D8DBDA"/><path d="M203 689v2c-3.56 1.19-6.44 1.1-10.19 1.06l-3.85-.02L186 692v-1l6.25-1 3.52-.56C199 689 199 689 203 689" fill="#EBEFEC"/><path d="m372 461 3 1-1 4h-6v2l-2-1z" fill="#E0C97A"/><path d="m229 340 3 1-1 2h-2l-2 4h-3a19 19 0 0 1 5-7" fill="#18181A"/><path d="M553 304v2l-9 4c1.46-4.61 1.46-4.61 3.94-6.38C550 303 550 303 553 304" fill="#DFE0E3"/><path d="m399 298 3 3h-12v-2c3.05-1.52 5.64-1.24 9-1" fill="#EDEDF1"/><path d="M641 258c-1 3-1 3-3.88 4.69C634 264 634 264 631 264v-2c6.62-4 6.62-4 10-4" fill="#EFEFF2"/><path d="M1032 157c4.79.81 6.14 3.26 9 7h-4c-1.48-1.53-1.48-1.53-2.75-3.5l-1.3-1.97z" fill="#D5D6D3"/><path d="m222 678-3 9c-2.14-2.14-2.43-3.13-3-6 3.75-3 3.75-3 6-3" fill="#BFC1BF"/><path d="M228 609c-1.58 4.27-4.51 6.27-8 9 0-3 0-3 1.24-4.61l1.64-1.58 1.61-1.6C226 609 226 609 228 609" fill="#CFD0D1"/><path d="M353 576c-1.49 3.8-3.76 5.61-7 8v-4h2v-2c3-2 3-2 5-2" fill="#E2E8E9"/><path d="M296 488q2.02 1.47 4 3-2.44-.17-4.88-.38l-2.74-.21C290 490 290 490 288 488c3.06-.98 4.97-1.13 8 0" fill="#C8B881"/><path d="m499 330 2 1-1 3c-3.56 1.69-3.56 1.69-7 3v-3c2.44-1.62 2.44-1.62 5-3z" fill="#EDEDEF"/><path d="m561 299-1 3c-3.56 1.69-3.56 1.69-7 3v-3c2.89-2.11 4.38-3 8-3" fill="#EEEDF1"/><path d="m883 256 2 2c-1.05 2.62-1.65 3.79-4.12 5.25L879 264l-2-2a89 89 0 0 1 4-4h2z" fill="#1C1A1E"/><path d="M1097 171h1v13c-3-3-3-3-3.19-5.69l.19-2.31h2z" fill="#171819"/><path d="M956 155c0 3.67-.79 5.1-3 8-2.69.81-2.69.81-5 1l2.88-3.38 1.61-1.89A73 73 0 0 1 956 155" fill="#E0E2E1"/><path d="m450.13 651.88 2.88.12c-.33 1.33-.68 2.63-1 4h-6l-1-2c2-2 2-2 5.12-2.12" fill="#BDBEC1"/><path d="m218 617 2 1-7 7-2-1c1.44-3.81 3.35-5.27 7-7" fill="#E5E5E8"/><path d="m811 573 6 4-2 4h-2c-1.26-2.91-2-4.8-2-8" fill="#D6DAD7"/><path d="M407 310c3.09 2.53 3.91 5.22 5 9l-2 2-1.5-3.81-.84-2.15C407 313 407 313 407 310" fill="#18181A"/><path d="m852 225 1 4c-6.62 3.12-6.62 3.12-10 2z" fill="#1C1C1D"/><path d="m1099 174 2 1v10l-3 1z" fill="#F1F1F2"/><path d="M289 478h2l1 4h2v2h2l1 3h-3c-1.39-1.46-1.39-1.46-2.69-3.38l-1.32-1.89C289 480 289 480 289 478" fill="#2D220F"/><path d="m370 457 3 2c-2.75 4.88-2.75 4.88-5 6-.69-1.75-.69-1.75-1-4 1.44-2.25 1.44-2.25 3-4" fill="#222016"/><path d="M885 321c2.71 2.71 3.14 5.31 4 9l-1 2h-2c-1.18-3.67-1.07-7.17-1-11" fill="#EFF0F1"/><path d="M672 509c-1.88 3.88-1.88 3.88-3 5q-3 .06-6 0c6.13-5 6.13-5 9-5" fill="#E3E4E5"/><path d="M229 396h2l1 5-3 1-2 2c.88-6.88.88-6.88 2-8" fill="#1E1F1E"/><path d="m482 589 3 1-1 5h-3v-2h-2v-2z" fill="#1A1E1B"/><path d="m364 562 3 1c-1.75 3.88-1.75 3.88-4 5v-2l-3-1c1.81-1.56 1.81-1.56 4-3" fill="#D6D9D6"/><path d="M373 460h3c3 5.62 3 5.62 3 9-4.8-3.32-4.8-3.32-5.81-6.75z" fill="#CBAB66"/><path d="M885 433h2c1.47 3.81.43 6.29-1 10h-1z" fill="#F1F1F3"/><path d="M1049 110c2.92 1.07 4.78 1.78 7 4l-1 3-7-5z" fill="#D7D9D8"/><path d="M247 586h2c-.35 3.26-1.02 4.02-3.56 6.25L243 594c1.75-5.75 1.75-5.75 4-8" fill="#EAECEC"/><path d="M892 552c2.09 3.4 2.18 6.05 2 10h-2c-1.12-7.75-1.12-7.75 0-10" fill="#29292A"/><path d="m894 248 3 1-5 5-2-2z" fill="#181918"/><path d="M857 220c-1.45 3.83-3.43 5.12-7 7v-3c4.34-4 4.34-4 7-4" fill="#DFDFE0"/><path d="m159 678 7 6-4 1-4-5z" fill="#D8D9D8"/><path d="m457 598 2 3-5 3-2-2z" fill="#1A1D1B"/><path d="M354 570h2v2h2l-2 4-3-1c0-3 0-3 1-5" fill="#DEE0DF"/><path d="m327 478 3 3-1 3h-3q-.06-2.5 0-5z" fill="#D0BC77"/><path d="M281 475v2h-3l1 4h-3l-1-4c3.75-2 3.75-2 6-2" fill="#C3B072"/><path d="M240 476h4l1 9c-2.61-1.31-2.68-2.36-3.62-5.06l-.79-2.23z" fill="#E7E9EB"/><path d="M427 364c4.88 1.75 4.88 1.75 6 4l-5 1z" fill="#D5D7D6"/><path d="M480 343v2l-7 3v-3c2.65-1.46 3.89-2 7-2" fill="#DCDCDF"/><path d="M882 316h3l2 5h-2l-1 4z" fill="#D6D6DB"/><path d="M881 308c2.25 2.05 3 3.01 4 6l-1 2h-2z" fill="#EEECF1"/><path d="M580 287q2.51.43 5 1c-2.39 1.89-4.07 3.02-7 4 .88-3.88.88-3.88 2-5" fill="#DEDCDF"/><path d="M218 697a16.6 16.6 0 0 1 3 7h-3q-.57-2.99-1-6z" fill="#CBCBCD"/><path d="M838 694h9l1 3h-5v-1l-5-1z" fill="#BBBEBB"/><path d="m418 343 3 1c.62 2.31.62 2.31 1 5l-2 3z" fill="#111113"/><path d="M568 296v2l-7 3v-3c2.65-1.46 3.89-2 7-2" fill="#E1E0E2"/><path d="m651.69 253.38 2.3.62c-1.31 1-2.63 1.97-4 3q-1.95-.99-4-2c3-2 3-2 5.7-1.62" fill="#E2E0E3"/><path d="M941 172h1c-.25 3.38-.25 3.38-1 7-2.06 1.44-2.06 1.44-4 2a93 93 0 0 1 4-9" fill="#D5D5D7"/><path d="m1187 698 3 3-3 2-2-3z" fill="#F5F5F7"/></svg>