<svg style="background:transparent" version="1.1" xmlns="http://www.w3.org/2000/svg" viewBox="0 0 1248 704"><path d="M516.56 12.81c5.44 2.65 10.54 6 15.37 9.65 2 1.48 4.03 2.82 6.13 4.16 4.66 3.08 8.9 6.58 13.18 10.15 3.3 2.67 6.72 5.08 10.21 7.48q4.15 2.86 8.23 5.81l2.58 1.85c2.74 2.1 2.74 2.1 4.23 3.58 3.81 3.7 6.45 5.2 11.77 5.3q1.15-.05 2.33-.06l2.52.01q4.09 0 8.17-.05H607q5.99 0 11.95-.08 7.65-.07 15.3-.06 5.88 0 11.77-.03l5.64-.02q3.95 0 7.88-.07l2.34.01c5.41-.1 9.71-1.12 13.7-4.94l1.43-1.5 5-3 1.37-1.44c2-1.92 4.26-3 6.67-4.33A42 42 0 0 0 696 40.5a42 42 0 0 1 9.2-6.4c2.95-1.8 5.38-4.17 7.9-6.52 1.9-1.58 1.9-1.58 3.95-2.6C719 24 719 24 720.42 22.55c5.28-5.23 15.08-9.88 22.45-11 4.38.61 8.4 2.02 12.13 4.44l2 4 1.95.85c2.68 1.5 2.94 2.61 3.78 5.52 1.57 5.9 1.64 11.56 1.52 17.63l-.02 3.13c-.08 7.56-.08 7.56-1.23 9.87q-.24 3.75-.32 7.51l-.06 2.31q-.1 3.7-.18 7.43l-.14 5.07a824 824 0 0 0-.27 30.64q.03 3.02-.03 6.04l-1 1q-.12 4.25-.08 8.51l.01 2.7.02 5.84.04 9.26q.04 13.17.1 26.33a4315 4315 0 0 1 .1 22.21l.02 8.6.03 2.54c-.02 7.35-1.2 14.27-4.24 21.01l-.88 2.1c-2.78 6.51-5.9 12-11.12 16.9l-2.19 2.25a342 342 0 0 1-7.3 6.94l-2.23 2.04c-2.37 1.84-4.5 2.7-7.28 3.77-2.29 1.3-2.29 1.3-4 3-1.44 6.91.34 13.62 3 20l1.5 3.62L728 288l1.44 3.43a228 228 0 0 0 8.07 16.3l1.3 2.43 2.65 4.95a68 68 0 0 1 5.54 12.9l2.21 5.08c2.46 5.98 4.2 12.24 6.03 18.43q1.1 3.6 2.32 7.17 1.88 5.6 3.44 11.31l.8 2.9.82 3.16.8 2.97c.6 3.07.6 5.85.58 8.97l1 3c.31 3.58.51 7.16.72 10.75C766 405 766 405 767 408q.15 4 .12 8l.01 2.2c0 3.2-.1 5.74-1.13 8.8v2.93c0 2.7-.36 4.51-1 7.07v3.06c0 2.94 0 2.94-1 5.94q-.79 3.46-1.5 6.94C762 455 762 455 761 457l1.95-.66c10.74-3.3 19.74-4.07 29.86 1.16 2.1 1.13 4.14 2.3 6.2 3.5a314 314 0 0 0-4.7-10.62c-7.75-16.72-13.67-36.04-8.3-54.38q.35-1.45.74-2.94c2.73-6.69 6.52-12.89 10.25-19.06l1.56-2.75c9.96-14.74 30.31-25.9 47.44-29.25 22.67-4.06 44.25-.2 65 9l2.35.88c8.98 3.68 15.36 12.8 19.91 21.05 1.33 3.73 1.02 6.3-.33 10-3.15 6.45-5.48 10.72-11.93 14.07-3.13.81-3.13.81-6 1l-2.5.2c-3.07-.24-5.6-1.2-8.5-2.2l-3.32-.44c-3.7-.57-6.9-1.58-10.42-2.8a71 71 0 0 0-14.7-3.33C872 389 872 389 871 388c-8.63-.8-16.26-.04-24 4-2.94 2.44-2.94 2.44-5 5l-2.19 2.25c-4.53 6.87-4.73 15.77-3.28 23.67A81 81 0 0 0 843 441l1.08 2.21 3.92 7.8c16.4 32.42 16.4 32.42 18.6 49.08.4 2.91.4 2.91.94 5.26.64 3.72.6 7.37.58 11.15l.01 2.26c0 3.9-.2 7.44-1.13 11.24l-.36 2.03C863.5 548.31 854.44 562.3 843 574l-1.85 1.92q-2.52 2.58-5.15 5.08l-1.97 1.88A38 38 0 0 1 821 591q-2.2 1.27-4.38 2.56c-3.76 2.14-7.08 3.14-11.3 3.91a40 40 0 0 0-7.26 2.6c-4.33 1.81-8.16 2.4-12.82 2.74-5.1.42-7.96 1.61-11.3 5.44l-1.77 2.13c-7.48 9-15.05 17.54-25.17 23.62l2.25 1.75c2.42 1.98 4.57 4 6.75 6.25l2.56 2.25c4.73 5.34 6.1 11.74 6.44 18.75a19.3 19.3 0 0 1-7 11c-8.94 3.88-17.5 4.62-27.13 4.2l-3.8-.16c-10.96-.62-20.22-3.34-30.07-8.04l2.3 2.01 3.01 2.68 3 2.63c4.8 4.76 6.15 8.55 7.06 15.24l.6 3.94c.03 3.5.03 3.5-1.04 5.7-2.86 2.67-5 2.28-8.88 2.25h-2.13q-3.48 0-6.97-.06l-4.83-.02q-6.35-.01-12.7-.1l-12.98-.08q-12.72-.06-25.44-.19c-4.67-9.2-8.14-19.72-6-30l.5-3.75c.5-3.25.5-3.25 1.5-6.25h-15l.5 3.43c1.24 11.32 1.83 23.61-2.63 34.26-1.87 2.31-1.87 2.31-5.03 2.92h-6.12q-3.57 0-7.13-.05h-4.95q-5.19-.02-10.38-.08-6.65-.06-13.3-.06-5.12 0-10.23-.04l-4.9-.02q-3.44 0-6.86-.06l-3.94-.03C541 704 541 704 539 702c-1.07-8.24 2.03-15.5 6.54-22.34 4.27-5.28 9.5-8.5 15.46-11.66-4.09 0-8.02 2.82-11.64 4.6A36 36 0 0 1 540 675l-2.79 1.01c-3.38 1.04-6.08 1.25-9.6 1.25l-3.65.01-3.78-.02-3.73.02c-17.94-.04-17.94-.04-25.08-5.58-3.63-4.46-3.6-11.17-3.37-16.69 2.73-7.52 9.43-14.56 16-19h2a119 119 0 0 0-10.65-9.67L494 625v-2l-1.8-.28c-2.76-.9-3.65-2.08-5.45-4.35a51 51 0 0 0-7.44-7.44c-16.9-14.45-33.3-40.89-36.3-62.93l-.95-3.25c-4.4-15.52-7.6-34.82-4.06-50.75l.25-3.07c1.46-10.24 7.45-22.13 15.1-29.07 9.08-6.7 17.42-8.79 28.65-7.86 2.77.5 5.3 1.17 8 2-.46-3.47-.89-6.68-2-10-1.03-5.77-1.36-11.58-1.74-17.42q-.46-6.1-1.18-12.18c-.09-2.63.4-4.83.92-7.4q.03-2.63-.06-5.25c-.06-4.53.5-8.45 1.62-12.83.44-1.92.44-1.92.44-4.6 0-3.05 1.04-5.44 2-8.32l.66-5.96c.45-2.7 1.48-5.14 2.47-7.7 2.01-5.46 3.54-11.1 5.17-16.68A181 181 0 0 1 505 329l.9-2.15c5.72-13.7 5.72-13.7 9.84-19.86 3.75-5.93 6.96-12.08 8.26-18.99.86-1.85.86-1.85 1.87-3.63 3.43-6.62 6.33-14.89 5.13-22.37-3.46-4.77-8.56-7.32-13.58-10.26-2.56-1.84-3.1-2.99-4.42-5.74q-2-1.03-4-2c-11.85-12.04-17.2-28.62-17.1-45.25v-2.45l.02-5.26.03-8.42q.01-10.49.06-20.98c.14-42.06.14-42.06-.45-60.8l-.12-3.82c-.22-6.22-.59-12.39-1.24-18.58a82 82 0 0 1-.2-7.82c.04-4.05-.16-8.02-.5-12.06a146 146 0 0 1-.44-15.9c-.06-2.66-.06-2.66-.6-5.3-.84-4.27.55-7.77 2.8-11.4 5.96-8.32 14.32-16.63 25.3-13.15M693 668.01l1 2 2-1z" fill="#151816"/><path d="M918.66 358.14c5.4 4.3 10.7 9.54 11.75 16.6.2 6.63-.41 10.6-4.7 15.74-4.86 4.34-9.71 3.87-16 3.78-5.48-.38-10.46-1.67-15.71-3.26l-7.31-2.12-3.36-1.01c-10.94-2.85-24.62-4.23-35.08.7-7.2 4.23-11.71 9.4-14.25 17.43a62 62 0 0 0-.43 8.13l.03 2.26c.57 18.25 11.58 35.49 20.04 51.2 3.63 6.77 6.52 13.4 8.49 20.85l1 3.75c4.77 20.98 2.35 44.82-8.13 63.8a150 150 0 0 1-9 12l-1.64 2.19C830.92 587.12 806.78 596.52 786 600c-2.7.14-5.3.1-8 0q.44-.66.93-1.33 2.57-3.81 5.07-7.67l1.24-1.88c7.69-11.84 13.49-23.9 18.5-37.08a22 22 0 0 1 6.08-8.97c8.69-9.55 11.04-21.3 10.75-33.86-1-19.37-12.37-36.9-20.92-53.9-10.12-20.15-17.06-40.81-9.68-63.24 7.74-20.05 22.55-34.56 41.89-43.37 27.08-11.5 62.53-7.04 86.8 9.44" fill="#0F1110"/><path d="M516.56 12.81c5.44 2.65 10.54 6 15.37 9.65 2 1.48 4.03 2.82 6.13 4.16 4.66 3.08 8.9 6.58 13.18 10.15 3.3 2.67 6.72 5.08 10.21 7.48q4.15 2.86 8.23 5.81l2.58 1.85c2.74 2.1 2.74 2.1 4.23 3.58 3.81 3.7 6.45 5.2 11.77 5.3q1.15-.05 2.33-.06l2.52.01q4.09 0 8.17-.05H607q5.99 0 11.95-.08 7.65-.07 15.3-.06 5.88 0 11.77-.03l5.64-.02q3.95 0 7.88-.07l2.34.01c5.41-.1 9.71-1.12 13.7-4.94l1.43-1.5 5-3 1.37-1.44c2-1.92 4.26-3 6.67-4.33A42 42 0 0 0 696 40.5a42 42 0 0 1 9.2-6.4c2.95-1.8 5.38-4.17 7.9-6.52 1.9-1.58 1.9-1.58 3.95-2.6C719 24 719 24 720.42 22.55c5.28-5.23 15.08-9.88 22.45-11 4.38.61 8.4 2.02 12.13 4.44l2 4 1.95.85c2.68 1.5 2.94 2.61 3.78 5.52 1.57 5.9 1.64 11.56 1.52 17.63l-.02 3.13c-.08 7.56-.08 7.56-1.23 9.87q-.24 3.75-.32 7.51l-.06 2.31q-.1 3.7-.18 7.43l-.14 5.07a824 824 0 0 0-.27 30.64q.03 3.02-.03 6.04l-1 1q-.12 4.25-.08 8.51l.01 2.7.02 5.84.04 9.26q.04 13.17.1 26.33a4315 4315 0 0 1 .1 22.21l.02 8.6.03 2.54c-.02 7.35-1.2 14.27-4.24 21.01l-.88 2.1c-2.78 6.51-5.9 12-11.12 16.9l-2.19 2.25a342 342 0 0 1-7.3 6.94l-2.23 2.04c-2.37 1.84-4.5 2.7-7.28 3.77-2.29 1.3-2.29 1.3-4 3-1.44 6.91.34 13.62 3 20l1.5 3.62L728 288l1.44 3.43a228 228 0 0 0 8.07 16.3l1.3 2.43 2.65 4.95a68 68 0 0 1 5.54 12.9l2.21 5.08c2.46 5.98 4.2 12.24 6.03 18.43q1.1 3.6 2.32 7.17 1.88 5.6 3.44 11.31l.8 2.9.82 3.16.8 2.97c.6 3.07.6 5.85.58 8.97l1 3c.31 3.58.51 7.16.72 10.75C766 405 766 405 767 408q.15 4 .12 8l.01 2.2c0 3.2-.1 5.74-1.13 8.8v2.93c0 2.7-.36 4.51-1 7.07v3.06c0 2.94 0 2.94-1 5.94q-.79 3.46-1.5 6.94C762 455 762 455 761 457l1.95-.66c10.74-3.3 19.74-4.07 29.86 1.16 2.1 1.13 4.14 2.3 6.2 3.5a314 314 0 0 0-4.7-10.62c-7.75-16.72-13.67-36.04-8.3-54.38q.35-1.45.74-2.94c2.73-6.69 6.52-12.89 10.25-19.06l1.56-2.75c9.96-14.74 30.31-25.9 47.44-29.25 22.67-4.06 44.25-.2 65 9l2.35.88c8.98 3.68 15.36 12.8 19.91 21.05 1.33 3.73 1.02 6.3-.33 10-3.15 6.45-5.48 10.72-11.93 14.07-3.13.81-3.13.81-6 1l-2.5.2c-3.07-.24-5.6-1.2-8.5-2.2l-3.32-.44c-3.7-.57-6.9-1.58-10.42-2.8a71 71 0 0 0-14.7-3.33C872 389 872 389 871 388c-8.63-.8-16.26-.04-24 4-2.94 2.44-2.94 2.44-5 5l-2.19 2.25c-4.53 6.87-4.73 15.77-3.28 23.67A81 81 0 0 0 843 441l1.08 2.21 3.92 7.8c16.4 32.42 16.4 32.42 18.6 49.08.4 2.91.4 2.91.94 5.26.64 3.72.6 7.37.58 11.15l.01 2.26c0 3.9-.2 7.44-1.13 11.24l-.36 2.03C863.5 548.31 854.44 562.3 843 574l-1.85 1.92q-2.52 2.58-5.15 5.08l-1.97 1.88A38 38 0 0 1 821 591q-2.2 1.27-4.38 2.56c-3.76 2.14-7.08 3.14-11.3 3.91a40 40 0 0 0-7.26 2.6c-4.33 1.81-8.16 2.4-12.82 2.74-5.1.42-7.96 1.61-11.3 5.44l-1.77 2.13c-7.48 9-15.05 17.54-25.17 23.62l2.25 1.75c2.42 1.98 4.57 4 6.75 6.25l2.56 2.25c4.73 5.34 6.1 11.74 6.44 18.75a19.3 19.3 0 0 1-7 11c-8.94 3.88-17.5 4.62-27.13 4.2l-3.8-.16c-10.96-.62-20.22-3.34-30.07-8.04l2.3 2.01 3.01 2.68 3 2.63c4.8 4.76 6.15 8.55 7.06 15.24l.6 3.94c.03 3.5.03 3.5-1.3 5.96C710 704 710 704 708 704l.24-3.12c.47-8.42.17-14.56-5.04-21.6-3.58-3.7-7.59-6.06-12.2-8.28l-2.3-1.15-1.7-.85v-8a99 99 0 0 1 11.44 5.37c16.91 8.5 37.1 11.15 55.56 5.63 2.83-1.85 4.5-3 6-6 .68-7.33.74-14.06-4-20-4.69-4.46-10.18-7.3-16-10a62 62 0 0 1 9.37-7.94c4.86-3.6 9.42-7.4 13.88-11.5l1.82-1.67a55 55 0 0 0 8.74-10.52c3.36-4.44 6.73-5.37 12.06-6.12l4.48-.56c21.53-2.8 43.17-14.66 56.65-31.63 8.41-11.14 12.33-22.62 15.52-36.05q.48-2 1.03-4c2.33-10.45 1.01-23.76-1.55-34l-.9-3.59c-3.74-13.73-10.63-26.07-17.4-38.5-7.84-14.4-14.36-30.42-9.87-47 2.75-5.99 6.8-10.2 12.17-13.92l1.88-1.32c10.18-5.73 26.31-3.46 37.12-.68 3.9 1.2 7.72 2.51 11.55 3.88 7.67 2.5 17.78 4.02 25.58 1.4 3.33-2.08 5.12-4.86 6.87-8.28 1.1-6.08.8-11.57-2.5-16.88-9.79-12.63-25.65-17.3-40.5-21.12l-2.76-.76c-21.6-4.96-44.55-.8-63.24 10.76a120 120 0 0 0-10 8l-2.46 1.81c-3.06 2.64-5.26 5.6-7.48 8.94l-1.3 1.97c-9.74 15.23-12.9 32.22-9.58 50.03 2.91 11.61 8.1 22.27 13.58 32.85q3.77 7.35 7.5 14.71l1.53 3c7.74 15.33 12.92 32.14 8.08 49.31-2.36 7.05-5.3 13.31-10.87 18.38h-2l.87-4.88.5-2.74q.5-2.75 1.13-5.48c1.75-7.57 1.83-14.97 1.81-22.7l.05-3.88c.01-14.5-2.55-28.19-12.6-39.2-6.84-6.13-13.16-8.55-22.26-8.62l-2.09-.02c-5.79.14-10.95 1.67-16.4 3.52l1.43-11.57.4-3.29.4-3.2a392 392 0 0 1 1.3-9.4c2.05-15.72 1.6-34-1.54-49.54l-.57-2.84c-5.86-28.35-15.47-54.25-29.1-79.75-5.16-9.75-10.56-20.42-12.33-31.4l-.45-2.19c-.29-2.55-.26-4.34.45-6.82 2.93-3.24 6.4-5.55 10-8q2.39-1.83 4.75-3.69a281 281 0 0 1 7.31-5.56c9.5-8.15 14.38-19.74 16.94-31.75q.14-2.54.14-5.06l.02-3.1.01-3.38.02-3.58.04-9.75.06-10.3q.1-16.46.17-32.9l.16-27.78.01-2.09c.15-20.65.71-41.19 2.16-61.78.32-5.05.44-10.1.52-15.16l.05-2.3c0-6.1-1.8-9.96-5.68-14.57-4.36-3.66-8.8-4.83-14.5-4.6-10 1.63-18.4 9.86-26.19 15.84a308 308 0 0 1-8.8 6.38 1139 1139 0 0 0-17.07 12.38c-.39.3-.39.3-2.38 1.75-6.7 4.96-6.7 4.96-8.1 6.51-7.08 6.9-17.19 5.43-26.4 5.42l-5.85.05q-6.13.04-12.25.02-7.8 0-15.59.13-6.04.07-12.09.05-2.88 0-5.74.06C585.98 64.47 578.3 62.12 568 53a242 242 0 0 0-4.86-3.55l-4.33-3.2-2.39-1.76-9.96-7.37C517.42 15.64 517.42 15.64 505 17c-4.9 1.7-7.66 4.1-10.2 8.58-2.25 4.76-2.29 8.98-2.12 14.17l.05 2.82q.11 4.73.27 9.43l.1 3.58q.24 9 .58 18l.11 2.95q.26 4.23.71 8.45c.54 5.93.64 11.8.64 17.75l.01 3.4.02 7.21q0 5.73.04 11.47l.02 3.95.01 2q.06 13.32.08 26.65.02 10 .08 20 .03 3.78.02 7.56c0 20.7.61 41.41 16.02 57.1 5.71 5.57 12.08 10.26 18.6 14.85C533 259 533 259 534 260c2.4 17.27-9.02 36.77-17.03 51.47-6.28 11.54-10.9 23.31-15.05 35.76q-1.18 3.53-2.4 7.03c-6.73 19.96-9.72 40.62-9.77 61.61v2.06c-.02 10.87.83 21.35 2.88 32.03.6 3.33.98 6.68 1.37 10.04-5.75-.88-5.75-.88-8-2-9.98-1.06-20.85-1.57-29 5-9.02 8.01-13.45 18.2-15 30-.28 4.9-.29 9.78-.25 14.7l.01 2.01c.24 36.74 12.91 70.45 38.24 97.3l1.85 1.96c9.12 9.68 19.1 20 31.15 26.03v2l-3.63 1.25c-7.46 2.82-11.75 6.81-16.12 13.37-1.79 4.83-1.95 9.3-1.25 14.38 1.8 3.25 3.08 4.5 6.31 6.25 13.47 3.76 29.46 2.84 42.7-1.25l3.13-.92a67 67 0 0 0 16.02-7.13C562 662 562 662 565 662v8l-2.42 1.06c-6.6 3.08-11.57 5.77-15.58 11.94l-1.82 2.75C543.04 691.62 543 697.8 543 704l-4-2c-.88-9.09 2.48-17.32 8.18-24.38 3.97-4.19 8.75-6.93 13.82-9.62-4.09 0-8.02 2.82-11.64 4.6A36 36 0 0 1 540 675l-2.79 1.01c-3.38 1.04-6.08 1.25-9.6 1.25l-3.65.01-3.78-.02-3.73.02c-17.94-.04-17.94-.04-25.08-5.58-3.63-4.46-3.6-11.17-3.37-16.69 2.73-7.52 9.43-14.56 16-19h2a119 119 0 0 0-10.65-9.67L494 625v-2l-1.8-.28c-2.76-.9-3.65-2.08-5.45-4.35a51 51 0 0 0-7.44-7.44c-16.9-14.45-33.3-40.89-36.3-62.93l-.95-3.25c-4.4-15.52-7.6-34.82-4.06-50.75l.25-3.07c1.46-10.24 7.45-22.13 15.1-29.07 9.08-6.7 17.42-8.79 28.65-7.86 2.77.5 5.3 1.17 8 2-.46-3.47-.89-6.68-2-10-1.03-5.77-1.36-11.58-1.74-17.42q-.46-6.1-1.18-12.18c-.09-2.63.4-4.83.92-7.4q.03-2.63-.06-5.25c-.06-4.53.5-8.45 1.62-12.83.44-1.92.44-1.92.44-4.6 0-3.05 1.04-5.44 2-8.32l.66-5.96c.45-2.7 1.48-5.14 2.47-7.7 2.01-5.46 3.54-11.1 5.17-16.68A181 181 0 0 1 505 329l.9-2.15c5.72-13.7 5.72-13.7 9.84-19.86 3.75-5.93 6.96-12.08 8.26-18.99.86-1.85.86-1.85 1.87-3.63 3.43-6.62 6.33-14.89 5.13-22.37-3.46-4.77-8.56-7.32-13.58-10.26-2.56-1.84-3.1-2.99-4.42-5.74q-2-1.03-4-2c-11.85-12.04-17.2-28.62-17.1-45.25v-2.45l.02-5.26.03-8.42q.01-10.49.06-20.98c.14-42.06.14-42.06-.45-60.8l-.12-3.82c-.22-6.22-.59-12.39-1.24-18.58a82 82 0 0 1-.2-7.82c.04-4.05-.16-8.02-.5-12.06a146 146 0 0 1-.44-15.9c-.06-2.66-.06-2.66-.6-5.3-.84-4.27.55-7.77 2.8-11.4 5.96-8.32 14.32-16.63 25.3-13.15M693 668.01l1 2 2-1z" fill="#E4E6E7"/><path d="M673 495h1c-.41 9.14-5.72 17.58-12 24-14.71 13-14.71 13-23 13l.18 2.05a614 614 0 0 1 2.08 54.41q-.01 5.2.01 10.43c.04 13.55-.15 27.05-1.16 40.57l-.24 3.15A125 125 0 0 1 637 660h-22l-1.44-10.38-.44-3.14c-2.11-15.7-2.28-31.46-2.25-47.28l-.01-8.79c0-9.78.15-19.53.59-29.3l.11-2.68q.35-7.3 1.23-14.54c.26-2.32.31-4.61.27-6.95L613 533l-2.34-1.1c-12.85-6.2-12.85-6.2-17.66-10.9v-2l-1.71-.62c-3.14-1.89-4.94-4.53-6.98-7.5l-1.22-1.77c-2.98-4.5-4.19-7.76-4.09-13.11l1.88 1.94c11.89 11.79 26.64 24.47 44.24 25.44 15.77-.43 30.91-9.97 41.47-21.11q2.37-2.66 4.7-5.36z" fill="#000"/><path d="M739 470c2 2 2 2 2.12 5.77a425 425 0 0 1-.4 7.85c-1.9 29.48-7.09 60.25-18.92 87.51-2.51 5.86-4.64 11.87-6.8 17.87l-1.02 2.83A340 340 0 0 0 702 632.69l-.45 2c-1.89 8.52-3.67 16.92-3.74 25.69l-.04 2.52c.23 2.1.23 2.1 2.23 4.1-4.48-.28-8-2.15-11.45-4.91-2.7-3.64-1.93-6.95-1.3-11.27L688 647l.39-2.1c3.22-16.82 8.9-32.99 14.3-49.21l.78-2.35a806 806 0 0 1 10.97-30.96c3.51-9.3 6.5-18.55 8.97-28.17q.95-3.55 2.01-7.06A577 577 0 0 0 739 470" fill="#000101"/><path d="M512 474h2l.36 1.71q1.92 9.01 3.92 18.01l1.35 6.23c5.19 24.05 12.88 47.65 21.64 70.63 3.21 8.5 6.04 17.12 8.92 25.73l.78 2.34c4.73 14.11 9.03 28.14 11.78 42.79l.67 3.39C565.55 656 565.55 656 565 661c-3.12 2.7-4.83 4-9 4l-.3-3.49c-2.8-30.71-12.28-59.7-23.78-88.2A376 376 0 0 1 525 554l-.66-1.95c-3.33-9.98-5.52-20.18-7.59-30.49l-.78-3.88c-2.15-10.97-3.1-21.65-3.53-32.8l-.13-3.19z" fill="#000101"/><path d="M759 143h1a1740 1740 0 0 1 1.23 56.6c.01 8.66-.63 16.4-4.23 24.4l-.88 2.09c-2.78 6.53-5.9 12.01-11.12 16.91l-2.19 2.25q-3.6 3.52-7.31 6.94l-2.22 2.04c-2.37 1.84-4.5 2.7-7.28 3.77-2.29 1.3-2.29 1.3-4 3-1.44 6.91.35 13.63 3 20l1.5 3.62L728 288l1.44 3.44a237 237 0 0 0 8.07 16.29l1.3 2.43 2.65 4.95A69 69 0 0 1 747 328l2.21 5.09c2.47 5.98 4.2 12.24 6.04 18.43q1.1 3.6 2.31 7.17 1.9 5.6 3.44 11.31l.79 2.89.83 3.17q.4 1.46.79 2.98c.61 3.06.62 5.84.59 8.96l1 3c.31 3.58.51 7.16.72 10.75C766 405 766 405 767 408q.15 4 .12 8l.02 2.2c-.01 3.19-.12 5.75-1.14 8.8v2.94c0 2.68-.36 4.51-1 7.06v3.06c0 2.94 0 2.94-1 5.94l-1 4h-2l-.06-6.06-.04-3.41c.1-3.53.1-3.53.6-6.83 2.14-15.73 1.64-34.14-1.5-49.7l-.57-2.84c-5.86-28.35-15.47-54.24-29.1-79.74C725.17 291.66 719.77 281 718 270l-.45-2.18c-.28-2.55-.26-4.34.45-6.82 2.93-3.24 6.4-5.55 10-8q2.39-1.83 4.75-3.69 3.62-2.83 7.31-5.56c8.66-7.43 12.77-17.07 15.94-27.75l.55-1.77c.61-2.99.61-5.86.64-8.91l.02-2.01.05-4.3.08-6.79.19-16.86.16-14.27.07-6.71.05-4.09.04-3.62C758 144 758 144 759 143" fill="#E7E9E8"/><path d="M630 191c3.26 1.12 5.67 2.44 8 5 .94 2.94.94 2.94 0 6-1.68 1.62-3.46 3-5.32 4.42-2.57 2.42-2.97 5.2-3.68 8.58-2 2-2 2-4.94 2.31-3.06-.31-3.06-.31-4.87-1.43-1.19-1.88-1.19-1.88-1.5-4.76C617 208 617 208 614 205.5s-3-2.5-4.19-5.5c.19-3 .19-3 2.5-5.81 5.37-4.37 10.97-3.88 17.69-3.19" fill="#5F6162"/><path d="M440 498h1l.06 2.06c1.27 41.52 10.76 78.76 40.94 108.94-.38 2.12-.38 2.12-1 4-17.49-16.78-34.35-40.53-38-65l-.94-3.25L441 541l-.55-1.95c-2.03-8.35-1.44-16.67-1.07-25.17l.17-4.64q.21-5.62.45-11.24" fill="#E6E7E9"/><path d="M863 528h1c1.71 4.32 2.25 6.12.94 10.69L863 543l-1 2.72c-5.49 14.53-14.87 24.86-26 35.28l-2.36 2.27c-3.98 3.67-7.54 5.76-12.64 7.73q-2.2 1.27-4.38 2.56c-3.75 2.14-7.08 3.15-11.31 3.91a40 40 0 0 0-7.25 2.59c-4.32 1.82-8.15 2.41-12.8 2.74-4.25.37-7.28 1.09-10.14 4.32L774 609l-3-1a24 24 0 0 1 7-8 76 76 0 0 1 10.04-1.93c22.49-3.11 44.73-14.08 58.96-32.01 8.86-11.73 12.66-23.92 16-38.06" fill="#E3E4E4"/><path d="M762 34h1q.3 5.19.56 10.38l.17 2.98.15 2.85.14 2.64C764 55 764 55 763 57q-.23 3.75-.32 7.52l-.06 2.3-.18 7.43-.13 5.07a783 783 0 0 0-.27 30.65q.02 3.01-.04 6.03l-1 1q-.23 2.88-.32 5.79l-.12 3.54-.12 3.73-.13 3.75L760 143l-2 1c-.39-58.22-.39-58.22.88-79.75l.11-2.1c.56-9.46 1.65-18.78 3.01-28.15" fill="#DADADB"/><path d="M616 661h20l-.11 6.03-.05 5.87-.1 6c-.08 9.55.83 17.08 6.26 25.1-2.4-.37-3.65-.56-5.2-2.5-2.58-5.39-3.83-10.61-4.8-16.5l-.57-2.62c-.55-3.03-.03-5.36.57-8.38l.5-3.69c.5-3.31.5-3.31 1.5-6.31h-15l.5 3.44c1.28 11.75 2.65 26.48-4.5 36.56l-4-1 .84-1.61 1.1-2.14 1.09-2.11c2-4.4 2.09-8.27 2.07-13.09l-.01-2-.03-6.3-.01-4.28z" fill="#EEEFF1"/><path d="M493 94h1a1188 1188 0 0 1 1.31 50.24 18490 18490 0 0 1 .45 49.65c.08 8.75.3 17.4 1.24 26.11h-2c-2.5-8.32-3.15-15.92-3.13-24.59l-.01-3.51.02-11.4v-3.92c.02-27.54.49-55.06 1.12-82.58" fill="#ECEEED"/><path d="m898.13 345.81 2.27.75c14.24 4.9 24.13 12.31 32.17 25.31 1.48 3.26 2.1 4.64 1.43 8.13a95 95 0 0 1-4 8h-2v2l-2-1 1.47-2.14c2.58-4.83 2.36-9.52 1.53-14.86-4.54-10.96-15.58-16.66-26-21a147 147 0 0 0-28-7c7.38-4.24 15.6-.68 23.13 1.81" fill="#E5E6E7"/><path d="M759 143h1a1740 1740 0 0 1 1.23 56.6c.01 8.67-.61 16.39-4.23 24.4h-2c.89-7.63.89-7.63 1.51-9.72.65-3.01.65-5.88.68-8.96l.02-2.01.05-4.3.08-6.79.19-16.86.16-14.27.07-6.71.05-4.09.04-3.62C758 144 758 144 759 143" fill="#F1F3F3"/><path d="m671 58 2 1-2 4h-89l-1-2 3.28-.02q15.3-.12 30.59-.27l15.73-.13 20.97-.18 8.1-.08 2.44-.01c3.81-.06 5.64-.14 8.89-2.31" fill="#EFF1F2"/><path d="M491 35h1l.17 3.96.63 14.66.66 15.46.12 2.81q.3 6.93.95 13.83c.4 4.25.59 8.43.57 12.7l-.01 3.86-.03 3.91-.01 4.04L495 120l-3-1-.08-2.76-.29-10.31-.13-4.43c-.21-7.74-.46-15.45-1.3-23.16-.3-3.49-.21-6.97-.16-10.48a96 96 0 0 0-.66-8.98c-.72-8.09.46-15.89 1.62-23.88" fill="#E6E6E7"/><path d="M708 176a30 30 0 0 1 4 4l-4.06-.88-2.29-.49a84 84 0 0 1-6-1.69c-12.72-3.28-31.17-1.5-42.67 5.25l-1.54 1.12C653 185 653 185 650.62 184.75L649 184c14.54-14.14 40.91-15.92 59-8" fill="#030403"/><path d="M557 171.8c30.23.04 30.23.04 40.25 10L599 184l-2 1c-2.61-1.14-2.61-1.14-5.75-2.81-13.11-6.94-30-8.67-44.5-4.88A58 58 0 0 0 536 182v-4l6-2v-2l3.44-.44c11.08-1.75 11.08-1.75 11.56-1.75" fill="#040504"/><path d="m771 609 2 1-1.5 1.47c-3.45 3.4-6.75 6.78-9.81 10.53-4.19 4.91-9.39 8.39-14.69 12l2.38 1.88A74 74 0 0 1 756 642l2.56 2.25A22 22 0 0 1 764 655c-.31 3-.31 3-1 5-2.08-3.12-3.39-6.19-4.8-9.65-2.89-5.67-6.33-8.29-11.95-11.16l-3.55-1.83L740 636a62 62 0 0 1 9.31-7.88c7.8-5.75 14.71-12.41 21.69-19.12" fill="#E8E9EA"/><path d="M807 363c0 4.06-1.6 5.3-4.12 8.44-10.3 13.22-14.58 26.96-15.44 43.5l-.13 2.36-.31 5.7-2-1a78 78 0 0 1-.75-7.44l-.13-2.2A49 49 0 0 1 786 396l.75-2.94c2.73-6.68 6.52-12.9 10.25-19.06l1.81-3c2.46-3.36 4.91-5.47 8.19-8" fill="#E7E6EC"/><path d="M452 463c.67 1.75.67 1.75 1 4-1.07 1.97-1.07 1.97-2.69 4.06-10.16 14.41-9.76 32.02-10.31 48.94h-2a69 69 0 0 1-1.12-13.56l-.01-3.88c.11-3.02.46-5.63 1.13-8.56l.25-3.06c1.36-9.49 6.96-21.15 13.75-27.94" fill="#E8EAEA"/><path d="m687 661 2 1 .34 1.86c.94 3.04 2.57 3.76 5.22 5.45 15.16 10.15 15.16 10.15 17.28 19.32l.54 3.93.58 3.94c.04 3.5.04 3.5-1.3 5.96C710 704 710 704 708 704l.25-3.11c.46-8.42.16-14.57-5.04-21.61-3.59-3.7-7.6-6.06-12.21-8.28l-2.3-1.15-1.7-.85z" fill="#E1E2E4"/><path d="M491 444h1l2 16c-6-1-6-1-8-2-13.02-1.39-22.51 0-33 8 .61-3.59 1-4 4-6.56 8.47-5.57 17.6-6.77 27.54-4.98q2.75.69 5.46 1.54z" fill="#E0E0E2"/><path d="M748.4 12.75c4.54 1.87 6.4 2.83 8.6 7.25l2.01.96c2 1.04 2 1.04 3.11 3.14 1.83 6.12 2.01 9.85-.12 15.9h-1l-.1-2.2c-.5-7.2-1.47-11.9-6.2-17.55-4.36-3.65-8.72-4.76-14.4-4.66-4.76.84-9.03 3.21-13.3 5.41l-1-2 5.37-2.94 3.03-1.65c4.86-2.64 8.5-3.4 14-1.66" fill="#EDEDEF"/><path d="M440 498h1l.06 2.06c1.01 33.02 1.01 33.02 6.23 49.01.7 2.87.75 4.22-.29 6.93l-.81-1.69C445 552 445 552 443.44 549.69c-1.75-3.26-2.05-6.03-2.44-9.69l-1-5a56 56 0 0 1-.88-13.37l.07-2.06.25-6.45.16-4.39q.18-5.36.4-10.73" fill="#E3E4E4"/><path d="M862 487h2a107 107 0 0 1 3 16l.52 2.21c.65 3.78.62 7.46.6 11.29l.02 2.26A43 43 0 0 1 866 533h-2l.03-2.47.08-9.26q.02-2.96.07-5.91c.03-7.11-.34-13.8-1.75-20.78-.43-2.58-.5-4.97-.43-7.58" fill="#F3F4F6"/><path d="M863 528h1c1.71 4.32 2.25 6.12.94 10.69L863 543l-1 2.72c-3.34 8.84-8.26 17.54-15 24.28l-3-1 1.54-1.77C855.57 555.29 859.48 542.9 863 528" fill="#E0E0E3"/><path d="M804 595c-.7 1.9-.7 1.9-2 4-2.18.98-2.18.98-4.88 1.62l-2.96.74c-3.17.64-6.33 1.09-9.54 1.52-3.75.56-6.16 1.02-8.87 3.74L774 609l-3-1c2.17-3.82 4.6-7.19 8.9-8.64 4.34-.99 8.72-1.51 13.14-2.04 3.86-.63 7.01-2.32 10.96-2.32" fill="#DFE1E0"/><path d="M859 386h-3v2l-1.79.7c-8.73 3.6-14.97 9.79-19.21 18.3-.49 2.77-.6 5.51-.69 8.31l-.1 2.25q-.12 2.72-.21 5.44h-1c-.58-11.14-1.05-20.22 6.8-29.02 4.97-4.73 12.09-10.41 19.2-7.98" fill="#E3E5E8"/><path d="M787 418h1l.23 2.06c1.4 10.32 4.78 20.01 9.46 29.29C799 452 799 452 799 454c-3-1-3-1-4.46-3.27-5.26-10.65-10.04-20.7-7.54-32.73" fill="#E2E5E6"/><path d="M497 218c1.92 2.88 2.88 5.33 4.06 8.56 2.36 5.82 5.49 9.82 9.85 14.28A53 53 0 0 1 516 247l-3 1v-2l-1.75-.72c-7.41-4.22-13-14.26-15.25-22.28.38-2.82.38-2.82 1-5" fill="#D8DBDC"/><path d="M514 14v1l-1.69.26c-6.5 1.2-12.27 3.1-16.63 8.32-3.75 6.37-3.97 14.2-4.68 21.42h-1c-1.94-6.32-2.94-11.87 0-18 6.5-8.9 12.42-15.6 24-13" fill="#EAEAEC"/><path d="m761 657 2 2 2-1c.34 5.91-1.41 10.13-5.3 14.64-3.33 2.67-7.53 3.73-11.7 4.36l-3-1-1-2 2.01-.3c5.34-.9 9.09-1.67 12.99-5.7 1.15-2.3 1.31-4.08 1.56-6.62l.26-2.48z" fill="#DCDFDC"/><path d="M488 410h1l.08 1.88.36 8.56.12 2.95c.23 5.26.6 10.46 1.23 15.69.4 3.65.27 7.26.21 10.92l-3-2c-.12-2.38-.12-2.38 0-5l-1-4q-.34-2-.62-4l-.29-2c-.09-2-.09-2 .38-3.87.53-2.12.73-4.06.85-6.24l.12-2.28.25-4.76z" fill="#D8DADB"/><path d="m808 477 4 1 .33 1.65A127 127 0 0 0 817 496h-5l-2-7.25-.58-2.07A34 34 0 0 1 808 477" fill="#E8EBEB"/><path d="M493 80h1c1.01 8.74 1.12 17.39 1.06 26.19l-.01 4.04L495 120l-3-1q-.05-6.66-.06-13.31l-.03-3.77c-.02-7.37.25-14.6 1.09-21.92" fill="#C0C1C1"/><path d="M788 392h2l-.4 2.46A265 265 0 0 0 787 423l-2-1a78 78 0 0 1-.75-7.44l-.13-2.19c-.32-7.31.4-13.85 3.88-20.37" fill="#EEF0F2"/><path d="m810 529 1 2 2 .94c2 1.06 2 1.06 3 4.06-1.36 2.26-1.36 2.26-3.31 4.69l-1.93 2.45L809 545h-2l.94-5.19.52-2.92A549 549 0 0 1 810 529" fill="#D4D6D4"/><path d="M488 395h1a393 393 0 0 1-1 32c-2.53-2.53-2.4-3.8-2.69-7.31l-.26-2.87c-.05-2.79.39-5.09.95-7.82.03-2.83-.06-5.65-.16-8.48C486 398 486 398 488 395" fill="#EEF1F3"/><path d="M904 348c-1.59 1.11-1.59 1.11-4 2-3.07-.61-3.07-.61-6.56-1.75A128 128 0 0 0 875 344c8.78-5.09 20.28.85 29 4" fill="#DCDDDF"/><path d="M617 676h1c1.76 9.54 3.03 17.29-1.62 26.06L615 704l-4-1 .84-1.61 1.1-2.14 1.09-2.11c2.05-4.51 2.25-8.99 2.53-13.89l.13-2.11z" fill="#E6E7EB"/><path d="M482 610c3.66 3.06 7.18 6.13 10.5 9.56 3.23 3.3 6.71 5.81 10.5 8.44v1c-2.25.25-2.25.25-5 0-2.31-1.88-2.31-1.88-4-4v-2l-1.73-.23c-3.07-1.04-4.4-2.72-6.52-5.15l-2.14-2.39C482 613 482 613 482 610" fill="#E1E1E4"/><path d="M851 461h2l3.88 7.94 1.1 2.23c2.39 4.98 4.74 10.23 5.02 15.83l-2 3-.41-1.88c-1.66-6.81-4.15-12.83-7.25-19.08-1.42-2.89-2.34-4.78-2.34-8.04" fill="#DDDFDF"/><path d="M760 445h1l.56 4.88.32 2.74C762 455 762 455 761 457l2.57-1.02c3.76-1.07 6.43-1 10.31-.6l3.49.33 2.63.29v1l-2.27.11A74 74 0 0 0 758 461z" fill="#DBDEDD"/><path d="M515 247c4.49 1.51 8.02 3.97 11.75 6.81l1.79 1.29c2.72 2.08 4.31 3.41 5.35 6.72L534 264l-2 1-.5-2.12c-3.26-6.26-10.47-9.61-16.5-12.88z" fill="#E2E4E4"/><path d="m535 674-1 3h-25l-1-2 9.56-.5 2.72-.14c4.91-.26 9.8-.41 14.72-.36" fill="#EAECED"/><path d="M509 12c6.03-.34 9.99 1.87 15 5l2.81 1.56L529 20v2a24 24 0 0 1-7.62-3c-4.66-2.43-9.19-2.79-14.38-3z" fill="#DBDCDC"/><path d="M738 248c-1.3 3.9-3.73 5.72-7 8q-2.48 1.05-5 2-3.04 1.94-6 4c0-3 0-3 1.33-4.35l1.85-1.35 2.01-1.47 2.12-1.52 2.09-1.55c5.21-3.76 5.21-3.76 8.6-3.76" fill="#E9ECEA"/><path d="M439 496h1v24h-2c-.89-4.6-1.16-9-1.19-13.69l-.04-3.95C437 499 437 499 439 496" fill="#EEEFEF"/><path d="M762 430c2.07 3.1 2.36 4.4 2.69 8l.26 2.62C765 443 765 443 764 446l-1 4h-2c-.18-13.63-.18-13.63 1-20" fill="#E4E7E6"/><path d="M753 641c3.86.88 5.61 2.44 7.75 5.62 2.42 4.15 3 7.62 3.25 12.38l-2 1-.7-2.2c-2.02-5.99-4.02-10.16-8.3-14.8z" fill="#F1F1F2"/><path d="M440 498h1l1 33h-2c-1.5-3-1-5.64-.88-8.98l.07-2.07.25-6.57.16-4.46q.18-5.46.4-10.92" fill="#B2B5B2"/><path d="M863 528h1c1.69 4.27 2.42 6.76.75 11.12q-.86 1.95-1.75 3.88l-1 2.94-1 2.06-3 1 .84-3.32 1.1-4.37.55-2.18c.93-3.7 1.81-7.38 2.51-11.13" fill="#D3D3D6"/><path d="m746 12 2 1v2l-2.56.3c-6.97.92-12.37 2.13-18.44 5.7l-1-2 5.38-2.94 3.02-1.65c4.23-2.29 6.72-2.58 11.6-2.41" fill="#E9E9EB"/><path d="m839 395 2 3-1.31 1.69L838 402l-1.56 2.12c-1.89 3.78-2 7.03-2.13 11.19l-.1 2.25q-.12 2.72-.21 5.44h-1c-.97-18.55-.97-18.55 5-27z" fill="#CCCECE"/><path d="M491 444h1l2 16c-6-1-6-1-8-3l1.95-.65C490 455 490 455 490.61 452.4l.14-3.02.17-3.04z" fill="#CBCDCD"/><path d="m763 395 2 1c1.36 5.99.92 11.85.56 17.94l-.16 2.94q-.18 3.56-.4 7.12h-1c-.7-9.68-1.15-19.28-1-29" fill="#F6F8F7"/><path d="M467 457h19v3q-4.18.12-8.38.19l-2.4.07A72 72 0 0 1 469 460z" fill="#202223"/><path d="M507 325h1c-.47 6.4-2.15 11.27-5 17h-2c.64-6.24 3.23-11.46 6-17" fill="#EBEDEF"/><path d="m493 376 3 1c-.57 4.69-1.19 9.35-2 14h-3l.44-5.25.24-2.95c.27-2.36.67-4.52 1.32-6.8" fill="#1B1D1E"/><path d="M862 487h2a48 48 0 0 1 2 16l-2 1-1-5.69-.56-3.2A47 47 0 0 1 862 487" fill="#E9EAED"/><path d="M470 454q2.84-.05 5.69-.06l3.2-.04c2.83.09 5.35.45 8.11 1.1v2l-18-1z" fill="#ECEEF1"/><path d="M787 418h1l3 18-3-1c-2.48-5.82-1.92-10.84-1-17" fill="#D6D7D8"/><path d="M772 454a443 443 0 0 1 6.31-.19l3.55-.1c3.14.29 3.14.29 5.06 1.8L788 457c-3.79 1.26-6.26.68-10.19.06l-3.85-.59L771 456z" fill="#EDF0EF"/><path d="M762 34h1q.33 4.44.62 8.88l.2 2.55.16 2.44.16 2.25C764 52 764 52 762 54c-2.71-5.42-1.27-14.26 0-20" fill="#F1F3F3"/><path d="M635 690c2.15 3.22 3.5 6.44 5 10q.97 2.01 2 4c-2.55-.37-3.69-.6-5.3-2.67-2.76-5.66-2.76-5.66-2.45-9.33z" fill="#DCDEE1"/><path d="M768 457h17v3q-2.84.08-5.69.12l-3.2.08A20 20 0 0 1 768 458z" fill="#1E201F"/><path d="M540 692h2l1 12-4-2c-.12-7.75-.12-7.75 1-10" fill="#ECECEE"/><path d="M740 319c4 1 4 1 5.05 2.74l.7 2.14.73 2.11C747 328 747 328 747 331l-2 2z" fill="#E1E1E2"/><path d="m491 655 3 2c.51 2.6.51 2.6.69 5.62l.2 3.04.11 2.34h-3c-1.32-2.64-1.1-4.68-1.06-7.62l.02-3.04z" fill="#282B2C"/><path d="m543 689 3 2q-.17 2.19-.38 4.38l-.21 2.46C545 700 545 700 543 702c-1.36-2.73-.88-4.61-.56-7.62l.31-3.04z" fill="#2B2C2F"/><path d="M497 218c1.9 2.86 2.69 4.93 3.62 8.19l.79 2.73.59 2.08-2 1c-4.08-8.04-4.08-8.04-3.75-12.06z" fill="#D0D2D3"/><path d="M748 14c3.76.1 4.99.99 7.81 3.56L758 20l-2 2-1.62-1.88c-2.69-2.4-4.93-3.18-8.38-4.12z" fill="#DCDCDE"/><path d="M547 670v2c-6.9 4.24-6.9 4.24-11.5 3.25L533 674v-1l5.88-1.5 3.3-.84C545 670 545 670 547 670" fill="#DBDCDC"/><path d="M867 519h1c.12 5.04-.41 9.22-2 14h-2l-.12-4.31-.08-2.43c.2-2.26.2-2.26 2.2-5.26z" fill="#EDEEEE"/><path d="M760 445h1l1 10h-2v4l2 1-4 1z" fill="#CDD0CE"/><path d="m754 354 3 1c.7 2 .7 2 1.12 4.44.82 4.43.82 4.43 1.88 6.56l-3 1q-.76-2.12-1.5-4.25l-.84-2.39C754 358 754 358 754 354" fill="#EFF2EE"/><path d="m671 58 2 1-2 4h-15v-1l2.01-.11c5.18-.39 8.62-.89 12.99-3.89" fill="#E7EAED"/><path d="M688 662c4.43 1.21 6.98 2.52 10 6l-2 2q-2-1.42-4-2.88l-2.25-1.61L688 664z" fill="#EBEBED"/><path d="m482 610 3.38 2.81 1.89 1.58C489 616 489 616 491 619l-2 2q-1.76-1.9-3.5-3.81l-1.97-2.15C482 613 482 613 482 610" fill="#D3D6D2"/><path d="m778 600 4 1-8 8-3-1z" fill="#D7D8D4"/><path d="M759 428h1l1 17h-3z" fill="#202320"/><path d="M930 375c1.62 1.5 1.62 1.5 3 4-.2 2.83-.75 5.45-2 8l-3 1v2l-2-1 1.44-1.94c2.03-3.98 2.28-7.64 2.56-12.06" fill="#D8D8DA"/><path d="m757 212 2 1c.25 7.62.25 7.62-2 11h-2c1-8.57 1-8.57 2-12" fill="#EDEFF2"/><path d="m718 261 3 1a61 61 0 0 1 1 7l-2 2-2-1z" fill="#DBDEDD"/><path d="M760 49c2 3 2 3 2 5l2 1-3 8h-1z" fill="#DBDFDC"/><path d="M884 342c3.31 1.5 3.31 1.5 6 3-3.53 1.2-6.13.8-9.75.06l-2.98-.59L875 344c3.27-1.73 5.26-2.44 9-2" fill="#CDCDD0"/><path d="m498 20 3 2q-1.42 1.76-2.88 3.5l-1.61 1.97L495 29h-2a29 29 0 0 1 5-9" fill="#272928"/><path d="M491 651c1.07 3.27.89 5.43.06 8.75l-.59 2.42L490 664l-2-1c-.37-7.38-.37-7.38 1.5-10.5z" fill="#EEEFF0"/><path d="M812 482h2l2 4.31 1.12 2.43C818 491 818 491 818 494h-2l-2-4.31-1.12-2.43C812 485 812 485 812 482" fill="#D6D8DA"/><path d="m802 371 3 1c0 2 0 2-2.38 4.62C800 379 800 379 798 379v2l-2-1z" fill="#1C1C1E"/><path d="M572 53c3.94 1.67 6.79 4.23 10 7l-2 2q-1.73-1.11-3.44-2.25l-1.93-1.27c-1.93-1.75-2.24-2.94-2.63-5.48" fill="#DEE0E0"/><path d="M746 15v1l-2.81.38C740 17 740 17 737 19c-2.06.75-2.06.75-4 1l-2-2c5.36-2.68 9.01-3.32 15-3" fill="#363638"/><path d="M700 675c6 2.11 6 2.11 8 5-.31 2.19-.31 2.19-1 4a35 35 0 0 1-7-9" fill="#E3E3E7"/><path d="m489 386 2 1-1 14h-1q-.3-2.9-.56-5.81l-.32-3.27C488 389 488 389 489 386" fill="#D7DADB"/><path d="M881 387q5.52.89 11 2l-4 3-7-3z" fill="#D6DBD9"/><path d="m835 406 2 2-1 3a120 120 0 0 0-.06 5.69l.02 3.01.04 2.3-2 1a1051 1051 0 0 1-.09-10.22q0-2.9.09-5.78z" fill="#EEF0F0"/><path d="m863.19 384.94 3.8.06-1 3h-10v-2a19 19 0 0 1 7.2-1.06" fill="#F1F2F3"/><path d="M807 363c0 4.39-2.13 5.77-5 9l-3-1c2.42-3.19 4.68-5.75 8-8" fill="#EAEAEC"/><path d="M501 342h2q-.67 2.47-1.38 4.94l-.77 2.77C500 352 500 352 498 353c.47-4.06.88-7.47 3-11" fill="#E0E3E4"/><path d="M751 343c2.31 2.31 2.5 3.48 3.12 6.62l.51 2.48.37 1.9-2 1-3-11z" fill="#E3E6E3"/><path d="m853 341 2 1Zm0 1v2c-7.62 1.25-7.62 1.25-11-1 3.67-1.18 7.17-1.07 11-1" fill="#E1E1E2"/><path d="m473.63 455.44 2.13.16 5.25.4v1l-17 1v-2c3.09-1.55 6.25-.83 9.62-.56" fill="#BBBDBF"/><path d="M801 372c-1.37 4-3.26 6.8-6 10-.34-3.7-.48-5.4 1.88-8.38C799 372 799 372 801 372" fill="#DEDEE3"/><path d="M698 41c-1.18 3.53-1.96 3.86-5.06 5.69l-2.23 1.32L689 49c.6-3.53.88-3.91 3.94-6.25C696 41 696 41 698 41" fill="#D9DADC"/><path d="M739 12c6.75-.12 6.75-.12 9 1v2h-10z" fill="#F2F2F6"/><path d="M548 680c.69 1.62.69 1.62 1 4-1.44 3.25-1.44 3.25-3 6l-2-1c1.06-3.4 2.01-6.01 4-9" fill="#1D1A28"/><path d="M794 444c2.64 3.13 3.84 6.09 5 10-3-1-3-1-4.75-4.44L793 446z" fill="#D1D3D6"/><path d="m754 222 2 4c-1.38 3.25-1.38 3.25-3 6l-3-1z" fill="#DBDEDF"/><path d="M489 439c2 2 2 2 2.2 4.16l-.08 2.46-.05 2.48-.07 1.9-3-2z" fill="#EAECEE"/><path d="M908 395h9l-2 3c-2.5.38-2.5.38-5 0z" fill="#F4F3F6"/><path d="M816 357c-1.12 3.35-1.75 3.79-4.56 5.69l-1.94 1.32-1.5.99c.6-3.2.91-3.92 3.44-6.25C814 357 814 357 816 357" fill="#D6D7D9"/><path d="m915 354 5 2v4l-7-4z" fill="#DADCDB"/><path d="m721 255 3 1c-2.31 2.5-2.31 2.5-5 5h-3c1.37-3.16 1.99-3.99 5-6" fill="#232525"/><path d="M710 691h2l1 9h-3z" fill="#F0F2F1"/><path d="M842 447c6 7.71 6 7.71 6 11l-3-1-1-5h-2z" fill="#1B1C1D"/><path d="M859 386h-3v2l-5 2-1-3c3.43-1.62 5.38-2.34 9-1" fill="#D1D1D5"/><path d="M930 372c2 1.19 2 1.19 4 3 .25 2.69.25 2.69 0 5h-3z" fill="#EFF0F0"/><path d="M501 231h2a32 32 0 0 1 2.62 4l1.36 2.25L508 239c-2.75-.56-3.78-.77-5.75-2.88C501 234 501 234 501 231" fill="#E1E3E5"/><path d="m612 697 2 1c-.75 2.44-.75 2.44-2 5-2.12.81-2.12.81-4 1z" fill="#252528"/><path d="m830 582 3 1-5 5-2-1c1.75-3.88 1.75-3.88 4-5" fill="#EBEBEF"/><path d="M440 489h2l-1 9c-1.62-1.69-1.62-1.69-3-4 .81-2.75.81-2.75 2-5" fill="#E4E6E5"/><path d="m750 232 3 1-4 6-2-1c1.88-4.88 1.88-4.88 3-6" fill="#E8E8EA"/><path d="m760 619 2 3-5 4-1-3z" fill="#E5E7E5"/><path d="M490 619c2.47 1.15 4.05 2.05 6 4l-1 3-1-3c-2.06-.69-2.06-.69-4-1z" fill="#E9EAED"/><path d="m446 471 2 3-3 6-2-1c1.88-5.75 1.88-5.75 3-8" fill="#DCDEDF"/><path d="m758 366 3 2-2 6c-1.43-2.35-2.09-3.48-1.62-6.25z" fill="#DEDFE0"/><path d="M751 348c1.88 3.27 2.49 6.28 3 10l-2 1c-1.28-3.85-1.07-6.95-1-11" fill="#2C2F2B"/><path d="m829 351-1 4-5 1v-3c3.75-2 3.75-2 6-2" fill="#242628"/><path d="M709 692h1l1 11-3 1z" fill="#B1B3B2"/><path d="M812 594c-4.62 3-4.62 3-8 3l1-3c3.13-1.04 3.99-.93 7 0" fill="#E8E9E9"/><path d="M849 563c.69 1.81.69 1.81 1 4-1.44 1.75-1.44 1.75-3 3l-3-1z" fill="#CECFD1"/><path d="M462 460v3l-4 1v2l-2-1c1.13-3.38 2.21-5 6-5" fill="#212225"/><path d="M835 422c2 3 2 3 1.62 5.69L836 430c-2-2-2-2-2.19-4.56C834 423 834 423 835 422" fill="#DCDCDF"/></svg>