<svg style="background:transparent" version="1.1" xmlns="http://www.w3.org/2000/svg" viewBox="0 0 1248 704"><path d="M416.63 45.94 419 47l2.87 1.19c3.8 2.2 6.87 4.89 10.13 7.8 4.63 4 4.63 4 8 4v3a36 36 0 0 0 4 4c4.88 4.67 4.88 4.67 6 8q.82.85 1.68 1.7a48 48 0 0 1 5.13 6.13 71 71 0 0 0 8.38 9.37 90 90 0 0 1 7.03 8.3c2.34 2 3.76 1.7 6.77 1.5q2.52.98 5 2 3 .56 6 1c23.63 3.73 23.63 3.73 34.88 7.7 3.5 1.2 6.4 1.85 10.13 1.3 1.74-1.5 1.74-1.5 3-3h2q.26-.85.56-1.74c1.75-2.75 3.83-3.68 6.68-5.17 2.51-1.55 4-3.74 5.75-6.08h2q.39-.95.82-1.94C557 94 557 94 560 93l1.43-1.44c1.76-1.75 3.35-2.48 5.58-3.56 5.63-3.72 5.63-3.72 8.24-5.75 4.25-1.93 8.17-2.13 12.75-1.25 3.72 2.04 6.17 4.66 8.38 8.25a73 73 0 0 1 1.4 10.32c.18 1.94.47 3.88.79 5.8.6 3.69.5 6.42-.57 10a30 30 0 0 0-1 9.63l-1 1q-.32 3.14-.5 6.32A57 57 0 0 1 594 143l.07 3.82c.05 4.03-.96 7.3-2.07 11.18-1.58 12.29-1.58 12.29 0 17v3l-3 3c-.87 1.94-.87 1.94-1 4l1.57 1.82L591 189c-.82 3.56-.82 3.56-2 7v3c-1 2.19-1 2.19-2 4l3 3-2 4h-5c-1.48 2.96-1.07 5.74-1 9l7 3 3-3c2 3 2 3 2 5a27 27 0 0 0 7.8 3.9c4.3 1.48 8.18 3.57 12.2 5.66a68 68 0 0 0 9 3.44q2.89 1.17 5.75 2.38c9.52 4 19.09 7.98 28.93 11.12a41 41 0 0 1 9.33 4.5 79 79 0 0 0 14.12 5.5c4.46 1.26 7.9 3.12 11.88 5.5q1.97.55 4 1l2.92 1.5c3.08 1.5 3.08 1.5 5.64 2 2.94.6 4.88 1.9 7.43 3.5q2.5 1.02 5 2 3 1.48 6 3l4 2a387 387 0 0 0 7.07 3.5c8.53 4.36 8.53 4.36 12.27 7.4a66 66 0 0 0 8.6 5.6c6.44 3.7 12.53 7.5 18.06 12.5v2l1.68.25c5.37 1.74 8.7 6.2 12.24 10.35q3 3.44 6.15 6.79a191 191 0 0 1 13.93 16.6l1.88 2.5c3.19 4.38 5.62 8.32 7.32 13.44a37 37 0 0 0 12.27 16.7c2.3 2.05 3.24 4.62 4.53 7.37q2.47 2.54 5 5 1.57 2.45 3 5l2 3a130 130 0 0 1 8 14l2.07 3.5A43 43 0 0 1 858 426q1.64 5.01 3.5 9.94c2.5 6.65 3.9 13.2 5 20.2.59 3.37 1.56 6.58 2.5 9.86q.28 2.06.5 4.13c.5 3.87.5 3.87 1.63 6.5 1.14 3.12.44 5.1-.12 8.37q.16 2.03.42 4.05c.75 6.03.9 12.07 1.09 18.14.2 5.15.79 9.84 2.15 14.82.39 2.3-.02 3.77-.66 5.99-.3 5.15.55 9.08 2 14q.1 2.03.17 4.06c.88 8.63 5.83 17.56 12 23.5 13.1 10.42 29.78 11.65 45.83 10.44a106 106 0 0 0 42.44-15.38c19.3-12.23 19.3-12.23 29.3-10.01 8.15 2.52 12.9 6.55 17.32 13.77 1.26 4.93 1.06 7.98-1.07 12.62-16.87 25.28-45.75 38.95-74.93 45.13L942 627l-3.27.56a96 96 0 0 1-36-.8A178 178 0 0 0 892 625a58 58 0 0 1-13-5l-2.84-.85c-7.37-2.67-13.9-8.43-19.15-14.15l-3.33-3.18c-2.67-2.82-2.67-2.82-2.67-4.82l-1.76-.62c-2.46-1.51-3.6-3.1-5.1-5.54-1.35-2.17-2.81-4.24-4.27-6.34A36 36 0 0 1 835 574l-2-4.25c-1.9-4.13-2.83-8.1-3.51-12.58C829 555 829 555 827 552a83 83 0 0 1 0-5l-1-3a97 97 0 0 1-.07-5.38l.03-3.34.04-3.62.06-7.6q.05-5.99.12-11.96l.08-11.56.06-3.56A73 73 0 0 0 823 475c-4.75 7.13-6 14.59-6 23l-2 1-2-1 .68 1.56c.49 3.7-1.04 6.16-2.67 9.44l-2 2 1 2q-.93 1.19-1.88 2.44c-2.22 3.29-2.84 6.34-3.56 10.19-.8 3.34-2.24 6.27-3.68 9.37a19 19 0 0 0-1.88 7c.92 2.32.92 2.32 2 4l-3 2-2-1q-.26 2.4-.5 4.82l-.3 2.7c-.2 2.48-.2 2.48-.2 5.48a82 82 0 0 1-2.08 13.5c-.92 3.9-.98 7.44-.86 11.44-.1 2.9-1.09 5.35-2.07 8.06a93 93 0 0 0 0 5l-1 2a98 98 0 0 0-.43 4.19 63 63 0 0 1-2.57 11.8q-1.09 5.02-2.12 10.02c-.88 2.99-1.94 4.6-3.87 6.99a79 79 0 0 0-1 5q-.99 2.51-2 5l3.75.77c18.28 3.76 18.28 3.76 26.25 6.23l3.51 1.05c14 4.5 14 4.5 17.49 10.95-.37 3.39-1.75 5.47-4.27 7.78-6.35 4.47-14.55 5.74-22 7.35q-1.1.22-2.23.48c-12.05 2.45-24.12 3.57-36.37 4.36l-3.78.24q-7.85.5-15.69.97l-11.53.72-3.6.2-3.31.23q-1.45.07-2.92.17c-2.3.5-2.3.5-4.3 3.5l-1.83-.62c-2.17-.38-2.17-.38-5.17 1.62l-.96-1.98C708 685 708 685 704.19 684.58q-2.43.03-4.87.12l-2.7.05q-4.47.1-8.92.23l-6.3.14q-8.39.19-16.75.42l-13.23.3c-34.8.78-69.55 2.16-104.31 3.9-47.34 2.36-95.93 3.54-143.1-1.74l-3.01-.32c-43.56-4.7-43.56-4.7-54-16.68-.12-1.94-.12-1.94 1-4 9.87-9.08 23.33-11.94 36.13-14.65q3.33-.7 6.6-1.45c21.64-4.75 43.57-7.6 65.58-9.96l3.56-.4A1591 1591 0 0 1 520 635l2.67-.2a1355 1355 0 0 1 101.57-3.06l14.24.02 20.58.05c11.4.02 22.8.19 34.2.64l3.09.12 2.85.12 2.52.1c2.27.2 2.27.2 4.4.79 1.88.42 1.88.42 4.81-.45 3.69-2.55 4.93-5 6.8-8.97 1.43-2.44 2.97-3.55 5.27-5.16 3.04-7.1.17-15.08-2-22l-.52-2.4c-1.75-5.87-5.48-8.21-10.66-11.04a584 584 0 0 0-6.58-3.4c-12.62-6.53-24.12-14.34-35.24-23.16l-1.78-1.38a101 101 0 0 1-19.79-20.45 77 77 0 0 0-7.42-8.17 28 28 0 0 1-3.9-7.71c-1.2-3.56-2.64-6.96-4.1-10.41a70 70 0 0 1-5-19.88l-1.86.55c-2.14.45-2.14.45-4.58-.23L617 489l-5 4c-13.48 5.86-13.48 5.86-19.12 3.94L590 496l-3 2c-3-4.62-3-4.62-3-8-3.12 1.17-6.13 2.5-9.13 3.94l-2.01.96c-2.59 1.52-4.33 3.46-6.25 5.73-1.62 1.37-1.62 1.37-3.94 1.75-2.81.65-3.74 1.33-5.86 3.18C554 508 554 508 552 508l1 4-3 2-3-2c-5.62 2.53-12.54 5.79-15.18 11.63L531 526c-4.25 3.9-8.67 5.93-14 8l1 3c-3 2-3 2-5 2l2 3-2.25 2.19c-3.43 4.04-4.37 8.76-5.8 13.76-2.19 7.03-6.96 11.96-12.94 16.05a87 87 0 0 1-11 4l-3.13 1.25c-6.5 1.7-11.96 1.09-18.1-1.52-1.77-.73-1.77-.73-4.6-1.23-2.65-.6-3.53-1.37-5.18-3.5l-.94-2c-1.29-2.42-2.88-3.38-5.06-5l-1-3-2.5-2.44c-2.46-2.52-3.1-3.22-3.5-6.56l-.54-2.65c-1.3-9.4.02-18.2 5.67-25.85 3.42-4.06 7.07-7.84 10.9-11.51 2.9-2.93 5.36-6.16 7.89-9.4 2.19-2.71 4.47-5.27 6.82-7.84 6.34-7 6.34-7 8.26-10.75-.25-2.87-.25-2.87-1-5q1.95-1.48 4-3c.32.5.32.5 2 3 3.23 0 8.06-6.88 10.25-9.06l2.6-2.57c4.55-4.54 8.62-9 12.15-14.37l-3-5-2.37 1.06-2.62.94-2-1-2 3-4-2a28 28 0 0 0-9 11h-2a139 139 0 0 0-5.32 6.56l-1.44 1.85a379 379 0 0 0-10.87 14.92c-2.81 3.93-5.1 6.3-9.37 8.67-1.13 2-1.13 2-2 4-1.51 1.75-1.51 1.75-3 3h-2l-.7 2.69c-1.5 3.8-3.37 5.5-6.3 8.3-3.33 4.52-5.91 9.4-8.55 14.33-3.66 6.72-7.92 11.4-13.45 16.68l-1.74 1.74c-5.87 5.58-13.92 9.46-22.08 9.76-5.92-.46-9.44-1.6-13.49-5.98-5.88-7.42-10.12-14.74-11.07-24.27 1.23-10.7 5.01-17.4 13.13-24.17 3.5-3.23 5.79-7.04 8.25-11.08q.95-1.38 2-2.81c3.05-4.87 5.47-10.03 8-15.2l2.74-5.36a52 52 0 0 0 3.25-7.75 26 26 0 0 1 3.3-6.47c2.81-4.42 4.84-9 6.82-13.85l1.01-2.4c5.88-14.13 5.88-14.13 5.88-19.16q.95-1.48 2-3h2q-.09-1.1-.13-2.25c.13-2.91.77-4.22 2.13-6.75.06-.43.06-.43.43-2.62C431 400 431 400 434 398c.63-3.31.63-3.31 1-7a54 54 0 0 1 2-8c-1.19-2.68-1.19-2.68-3-6l-2.12-4.12-1.01-1.95A31 31 0 0 1 429 365l-.94-2.62a68 68 0 0 1-2-8.2 58 58 0 0 0-2.69-9.74c-1.38-3.92-1.5-7.2-1.35-11.32-.03-3.2-1.13-6.06-2.01-9.12a35 35 0 0 1 .5-10.37c.49-2.62.49-4.85.43-7.5-.06-4.46.6-7.93 2.06-12.13l-1.8-.35a15 15 0 0 1-5.51-2.96 57 57 0 0 0-7.19-4.63c-4.75-2.62-8.68-6.23-12.5-10.06l-2.62-1.94c-5.75-4.73-10.12-11.42-13.37-18.06l-1.88-2.12c-2.43-3.28-3.69-6.46-5.12-10.25-.96-2.52-2.06-4.94-3.2-7.38-2.4-5.4-3.12-9.46-1.8-15.25v-3.18c0-2.82 0-2.82 1-4.82l-.7-2.12c-.4-3.78.92-5.51 2.7-8.76 1.56-3.35 1.69-6.45 2-10.12a44 44 0 0 1 1.9-7.61c1.5-4.7 2.53-9.47 3.6-14.3.81-3.64 1.69-6.78 3.5-10.1q.66-2.88 1.36-5.78a44 44 0 0 1 2.7-6.77c1.78-3.83 2.45-7.23 2.94-11.44q.96-3 2-6 .52-3 1-6l.53-3.4q.24-1.74.52-3.54l.54-3.52c.4-3.55.44-6.97.4-10.54.37-3.1.76-6.1 1.56-9.12.44-1.88.44-1.88.44-4.44 0-2.44 0-2.44 1-5.44q.26-2.12.44-4.25c.42-4.1 1.4-7.78 2.56-11.75q.46-2.81.88-5.62c1.33-7.42 5.2-10.98 11.18-15.27C414 46 414 46 416.62 45.94M586 189l1 2Zm20 297 1 2Z" fill="#121413"/><path d="M416.63 45.94 419 47l2.87 1.19c3.8 2.2 6.87 4.89 10.13 7.8 4.63 4 4.63 4 8 4v3a36 36 0 0 0 4 4c4.88 4.67 4.88 4.67 6 8q.82.85 1.68 1.7a48 48 0 0 1 5.13 6.13 71 71 0 0 0 8.38 9.37 90 90 0 0 1 7.03 8.3c2.34 2 3.76 1.7 6.77 1.5q2.52.98 5 2 3 .56 6 1c23.63 3.73 23.63 3.73 34.88 7.7 3.5 1.2 6.4 1.85 10.13 1.3 1.74-1.5 1.74-1.5 3-3h2q.26-.85.56-1.74c1.75-2.75 3.83-3.68 6.68-5.17 2.51-1.55 4-3.74 5.75-6.08h2q.39-.95.82-1.94C557 94 557 94 560 93l1.43-1.44c1.76-1.75 3.35-2.48 5.58-3.56 5.63-3.72 5.63-3.72 8.24-5.75 4.25-1.93 8.17-2.13 12.75-1.25 3.72 2.04 6.17 4.66 8.38 8.25a73 73 0 0 1 1.4 10.32c.18 1.94.47 3.88.79 5.8.6 3.69.5 6.42-.57 10a30 30 0 0 0-1 9.63l-1 1q-.32 3.14-.5 6.32A57 57 0 0 1 594 143l.07 3.82c.05 4.03-.96 7.3-2.07 11.18-1.58 12.29-1.58 12.29 0 17v3l-3 3c-.87 1.94-.87 1.94-1 4l1.57 1.82L591 189c-.82 3.56-.82 3.56-2 7v3c-1 2.19-1 2.19-2 4l3 3-2 4h-5c-1.48 2.96-1.07 5.74-1 9l7 3 3-3c2 3 2 3 2 5a27 27 0 0 0 7.8 3.9c4.3 1.48 8.18 3.57 12.2 5.66a68 68 0 0 0 9 3.44q2.89 1.17 5.75 2.38c9.52 4 19.09 7.98 28.93 11.12a41 41 0 0 1 9.33 4.5 79 79 0 0 0 14.12 5.5c4.46 1.26 7.9 3.12 11.88 5.5q1.97.55 4 1l2.92 1.5c3.08 1.5 3.08 1.5 5.64 2 2.94.6 4.88 1.9 7.43 3.5q2.5 1.02 5 2 3 1.48 6 3l4 2a387 387 0 0 0 7.07 3.5c8.53 4.36 8.53 4.36 12.27 7.4a66 66 0 0 0 8.6 5.6c6.44 3.7 12.53 7.5 18.06 12.5v2l1.68.25c5.37 1.74 8.7 6.2 12.24 10.35q3 3.44 6.15 6.79a191 191 0 0 1 13.93 16.6l1.88 2.5c3.19 4.38 5.62 8.32 7.32 13.44a37 37 0 0 0 12.27 16.7c2.3 2.05 3.24 4.62 4.53 7.37q2.47 2.54 5 5 1.57 2.45 3 5l2 3a130 130 0 0 1 8 14l2.07 3.5A43 43 0 0 1 858 426q1.64 5.01 3.5 9.94c2.5 6.65 3.9 13.2 5 20.2.59 3.37 1.56 6.58 2.5 9.86q.28 2.06.5 4.13c.5 3.87.5 3.87 1.63 6.5 1.14 3.12.44 5.1-.12 8.37q.16 2.03.42 4.05c.75 6.03.9 12.07 1.09 18.14.2 5.15.79 9.84 2.15 14.82.39 2.3-.02 3.77-.66 5.99-.3 5.15.55 9.08 2 14q.1 2.03.17 4.06c.88 8.63 5.83 17.56 12 23.5 13.1 10.42 29.78 11.65 45.83 10.44a106 106 0 0 0 42.44-15.38c19.3-12.23 19.3-12.23 29.3-10.01 8.15 2.52 12.9 6.55 17.32 13.77 1.26 4.93 1.06 7.98-1.07 12.62-16.87 25.28-45.75 38.95-74.93 45.13L942 627l-3.27.56a96 96 0 0 1-36-.8A178 178 0 0 0 892 625a58 58 0 0 1-13-5l-2.84-.85c-7.37-2.67-13.9-8.43-19.15-14.15l-3.33-3.18c-2.67-2.82-2.67-2.82-2.67-4.82l-1.76-.62c-2.46-1.51-3.6-3.1-5.1-5.54-1.35-2.17-2.81-4.24-4.27-6.34A36 36 0 0 1 835 574l-2-4.25c-1.9-4.13-2.83-8.1-3.51-12.58C829 555 829 555 827 552a83 83 0 0 1 0-5l-1-3a97 97 0 0 1-.07-5.38l.03-3.34.04-3.62.06-7.6q.05-5.99.12-11.96l.08-11.56.06-3.56A73 73 0 0 0 823 475c-4.75 7.13-6 14.59-6 23l-2 1-2-1 .68 1.56c.49 3.7-1.04 6.16-2.67 9.44l-2 2 1 2q-.93 1.19-1.88 2.44c-2.22 3.29-2.84 6.34-3.56 10.19-.8 3.34-2.24 6.27-3.68 9.37a19 19 0 0 0-1.88 7c.92 2.32.92 2.32 2 4l-3 2-2-1q-.26 2.4-.5 4.82l-.3 2.7c-.2 2.48-.2 2.48-.2 5.48a82 82 0 0 1-2.08 13.5c-.92 3.9-.98 7.44-.86 11.44-.1 2.9-1.09 5.35-2.07 8.06a93 93 0 0 0 0 5l-1 2a98 98 0 0 0-.43 4.19 63 63 0 0 1-2.57 11.8q-1.09 5.02-2.12 10.02c-.88 2.99-1.94 4.6-3.87 6.99a79 79 0 0 0-1 5q-.99 2.51-2 5l3.75.77c18.28 3.76 18.28 3.76 26.25 6.23l3.51 1.05c14 4.5 14 4.5 17.49 10.95-.37 3.39-1.75 5.47-4.27 7.78-6.35 4.47-14.55 5.74-22 7.35q-1.1.22-2.23.48c-12.05 2.45-24.12 3.57-36.37 4.36l-3.78.24q-7.85.5-15.69.97l-11.53.72-3.6.2-3.31.23q-1.45.07-2.92.17c-2.3.5-2.3.5-4.3 3.5l-1.83-.62c-2.17-.38-2.17-.38-5.17 1.62l-.96-1.98C708 685 708 685 704.19 684.58q-2.43.03-4.87.12l-2.7.05q-4.47.1-8.92.23l-6.3.14q-8.39.19-16.75.42l-13.23.3c-34.8.78-69.55 2.16-104.31 3.9-47.34 2.36-95.93 3.54-143.1-1.74l-3.01-.32c-43.56-4.7-43.56-4.7-54-16.68-.12-1.94-.12-1.94 1-4 9.87-9.08 23.33-11.94 36.13-14.65q3.33-.7 6.6-1.45c21.64-4.75 43.57-7.6 65.58-9.96l3.56-.4A1591 1591 0 0 1 520 635l2.67-.2a1355 1355 0 0 1 101.57-3.06l14.24.02 20.58.05c11.4.02 22.8.19 34.2.64l3.09.12 2.85.12 2.52.1c2.27.2 2.27.2 4.4.79 1.88.42 1.88.42 4.81-.45 3.69-2.55 4.93-5 6.8-8.97 1.43-2.44 2.97-3.55 5.27-5.16 3.04-7.1.17-15.08-2-22l-.52-2.4c-1.75-5.87-5.48-8.21-10.66-11.04a584 584 0 0 0-6.58-3.4c-12.62-6.53-24.12-14.34-35.24-23.16l-1.78-1.38a101 101 0 0 1-19.79-20.45 77 77 0 0 0-7.42-8.17 28 28 0 0 1-3.9-7.71c-1.2-3.56-2.64-6.96-4.1-10.41a70 70 0 0 1-5-19.88l-1.86.55c-2.14.45-2.14.45-4.58-.23L617 489l-5 4c-13.48 5.86-13.48 5.86-19.12 3.94L590 496l-3 2c-3-4.62-3-4.62-3-8-3.12 1.17-6.13 2.5-9.13 3.94l-2.01.96c-2.59 1.52-4.33 3.46-6.25 5.73-1.62 1.37-1.62 1.37-3.94 1.75-2.81.65-3.74 1.33-5.86 3.18C554 508 554 508 552 508l1 4-3 2-3-2c-5.62 2.53-12.54 5.79-15.18 11.63L531 526c-4.25 3.9-8.67 5.93-14 8l1 3c-3 2-3 2-5 2l2 3-2.25 2.19c-3.43 4.04-4.37 8.76-5.8 13.76-2.19 7.03-6.96 11.96-12.94 16.05a87 87 0 0 1-11 4l-3.13 1.25c-6.5 1.7-11.96 1.09-18.1-1.52-1.77-.73-1.77-.73-4.6-1.23-2.65-.6-3.53-1.37-5.18-3.5l-.94-2c-1.29-2.42-2.88-3.38-5.06-5l-1-3-2.5-2.44c-2.46-2.52-3.1-3.22-3.5-6.56l-.54-2.65c-1.3-9.4.02-18.2 5.67-25.85 3.42-4.06 7.07-7.84 10.9-11.51 2.9-2.93 5.36-6.16 7.89-9.4 2.19-2.71 4.47-5.27 6.82-7.84 6.34-7 6.34-7 8.26-10.75-.25-2.87-.25-2.87-1-5q1.95-1.48 4-3c.32.5.32.5 2 3 3.23 0 8.06-6.88 10.25-9.06l2.6-2.57c4.55-4.54 8.62-9 12.15-14.37l-3-5-2.37 1.06-2.62.94-2-1-2 3-4-2a28 28 0 0 0-9 11h-2a139 139 0 0 0-5.32 6.56l-1.44 1.85a379 379 0 0 0-10.87 14.92c-2.81 3.93-5.1 6.3-9.37 8.67-1.13 2-1.13 2-2 4-1.51 1.75-1.51 1.75-3 3h-2l-.7 2.69c-1.5 3.8-3.37 5.5-6.3 8.3-3.33 4.52-5.91 9.4-8.55 14.33-3.66 6.72-7.92 11.4-13.45 16.68l-1.74 1.74c-5.87 5.58-13.92 9.46-22.08 9.76-5.92-.46-9.44-1.6-13.49-5.98-5.88-7.42-10.12-14.74-11.07-24.27 1.23-10.7 5.01-17.4 13.13-24.17 3.5-3.23 5.79-7.04 8.25-11.08q.95-1.38 2-2.81c3.05-4.87 5.47-10.03 8-15.2l2.74-5.36a52 52 0 0 0 3.25-7.75 26 26 0 0 1 3.3-6.47c2.81-4.42 4.84-9 6.82-13.85l1.01-2.4c5.88-14.13 5.88-14.13 5.88-19.16q.95-1.48 2-3h2q-.09-1.1-.13-2.25c.13-2.91.77-4.22 2.13-6.75.06-.43.06-.43.43-2.62C431 400 431 400 434 398c.63-3.31.63-3.31 1-7a54 54 0 0 1 2-8c-1.19-2.68-1.19-2.68-3-6l-2.12-4.12-1.01-1.95A31 31 0 0 1 429 365l-.94-2.62a68 68 0 0 1-2-8.2 58 58 0 0 0-2.69-9.74c-1.38-3.92-1.5-7.2-1.35-11.32-.03-3.2-1.13-6.06-2.01-9.12a35 35 0 0 1 .5-10.37c.49-2.62.49-4.85.43-7.5-.06-4.46.6-7.93 2.06-12.13l-1.8-.35a15 15 0 0 1-5.51-2.96 57 57 0 0 0-7.19-4.63c-4.75-2.62-8.68-6.23-12.5-10.06l-2.62-1.94c-5.75-4.73-10.12-11.42-13.37-18.06l-1.88-2.12c-2.43-3.28-3.69-6.46-5.12-10.25-.96-2.52-2.06-4.94-3.2-7.38-2.4-5.4-3.12-9.46-1.8-15.25v-3.18c0-2.82 0-2.82 1-4.82l-.7-2.12c-.4-3.78.92-5.51 2.7-8.76 1.56-3.35 1.69-6.45 2-10.12a44 44 0 0 1 1.9-7.61c1.5-4.7 2.53-9.47 3.6-14.3.81-3.64 1.69-6.78 3.5-10.1q.66-2.88 1.36-5.78a44 44 0 0 1 2.7-6.77c1.78-3.83 2.45-7.23 2.94-11.44q.96-3 2-6 .52-3 1-6l.53-3.4q.24-1.74.52-3.54l.54-3.52c.4-3.55.44-6.97.4-10.54.37-3.1.76-6.1 1.56-9.12.44-1.88.44-1.88.44-4.44 0-2.44 0-2.44 1-5.44q.26-2.12.44-4.25c.42-4.1 1.4-7.78 2.56-11.75q.46-2.81.88-5.62c1.33-7.42 5.2-10.98 11.18-15.27C414 46 414 46 416.62 45.94m-11.14 11.18c-1.99 3.84-2.64 7.53-3.37 11.76l-.5 2.79c-1.98 11.67-3.37 23.43-4.79 35.17-3.21 26.56-3.21 26.56-7.82 39.16a645 645 0 0 0-15.8 58.07c-2.73 12.47-4.69 25.46 1.8 36.93l1.8 3.53c3.86 7.56 7.94 14.77 13.2 21.47q.9 1.2 1.87 2.4c8.7 10.4 20.57 19.4 33.13 24.6-.05.3-.05.3-.22 1.82-2.89 28.05-.7 58.2 13 83.47 2.56 5.73 1.41 11.08-.62 16.75l-.8 2.09-.81 2.22a311 311 0 0 1-7.2 17.4 98 98 0 0 0-3.24 9.13c-1.75 5.5-4.22 10.53-6.86 15.65a301 301 0 0 0-7.57 16.16c-8.18 18.37-16.62 35.82-31.3 49.9-5.13 5.17-6.4 12.14-6.88 19.16.19 8.24 4.59 15.66 10.24 21.44 4.44 4.1 7.92 4.28 13.9 4.2 10.18-1.2 18.64-8.01 25.36-15.4a110 110 0 0 0 11.74-18.3c6.1-11.61 15.81-21.36 24.7-30.9 12.33-13.5 23.42-28.58 33.56-43.8 8.13.17 14.12 4 21 8a26 26 0 0 1-5.03 7.45 326 326 0 0 1-3.92 4.12l-2.12 2.25a849 849 0 0 1-16.87 17.07A193 193 0 0 0 467 503c-4.48 5.66-8.94 11-14.2 15.94-7.5 7.3-11.87 16.35-12.12 26.8.13 9.74 4.43 15.03 10.94 21.99 5.73 5.49 11.93 8.8 19.88 9.65a42.4 42.4 0 0 0 29.63-13.02c5.03-6.37 6.36-14.85 7.96-22.63 1.71-5.18 5.28-8.25 9.52-11.48 3.48-2.7 6.7-5.47 9.88-8.5 12.4-11.25 27.77-19.54 41.97-28.3a286 286 0 0 0 9.63-6.18c6.2-4.1 10.44-6.72 17.9-5.27l3.1.6q3.54.72 7.03 1.54a346 346 0 0 0 14.9 2.95l4.98.9.22 1.86c2.62 17.46 10.52 32.73 21.77 46.15l2.09 2.72c5.54 7.14 11.72 12.84 18.91 18.28l1.9 1.44a201 201 0 0 0 26.55 17c5.78 3.17 5.78 3.17 8.6 4.6 8.44 4.32 13.49 8.62 16.52 17.79 1.95 7.02 3.5 15.14.05 21.85C723 622 723 622 720.44 625c-2.42 3-2.42 3-3.25 5.63-1.4 2.8-2.13 3-4.93 4.25-6.99 3.17-10.75 8.87-13.56 15.86-1.35 4.39-1.62 7.97.15 12.36 3.45 6.23 8.49 9.68 15.16 11.9 4.58.26 9.14.27 13.73.3q2.25 0 4.5.06c19.75.39 19.75.39 27.8-5.95 5.3-5.44 7.88-12.31 10.65-19.28l1.4-3.4q1.35-3.31 2.68-6.64 1.14-2.87 2.36-5.71c2.65-6.33 4.4-12.7 5.95-19.38l.77-3.33c2.81-12.25 4.98-24.21 5.81-36.75 1.4-20.66 6.58-38.48 14.1-57.7a929 929 0 0 0 6.43-17.16c.22-.56.22-.56 1.27-3.43A965 965 0 0 0 822 467c9.23 15.9 7.25 33.92 6.87 51.62-.37 18.39.1 36.44 7.95 53.44.16.4.16.4 1.04 2.38C843.14 586 850.17 595 859 604l1.92 2.03c15.82 15.4 40.3 19.38 61.33 19.29l2.08-.01c10.16-.07 19.87-.33 29.67-3.31l2.6-.78c23.38-7.21 49.01-18.12 62.4-39.78 2.3-4.53 2.88-7.4 2-12.44-2.2-4.45-5.02-7.95-9.62-10-11.96-3.36-20.1.18-30.4 5.9-5.23 2.89-10.6 5.49-15.98 8.1l-2.8 1.37c-19.96 9.06-41.32 11.75-62.2 4.63-11.68-4.94-18.98-12.28-24.21-23.9-3.6-9.64-4.34-19.62-4.75-29.81q-.15-3.53-.35-7.06l-.59-11.98-.2-4.34c-1.47-30.12-5.96-59.85-19.9-86.91l-.96-1.91a142 142 0 0 0-15.03-24.1l-1.83-2.38a121 121 0 0 0-8.55-10.17c-6.32-7.1-10.55-16.17-14.7-24.66-11.9-23.95-37.84-43-60.36-56.05a84 84 0 0 1-8.14-5.34c-3.73-2.74-7.74-4.48-12-6.26a233 233 0 0 1-15.76-7.38c-8.97-4.57-18.31-8.14-27.66-11.81l-10.38-4.1-2.54-1a606 606 0 0 1-17.7-7.4c-5.65-2.4-11.4-4.6-17.12-6.82-38.58-14.97-38.58-14.97-55.1-24.47C580 220 580 220 578 220l2.76-14.71.94-4.97 1.37-7.27.46-2.5q1.19-6.26 2.5-12.5a391 391 0 0 0 5.64-36.36l.97-8.15.58-5.01c.4-3.43.81-6.84 1.33-10.26.65-4.78.7-9.51.76-14.33l.08-2.93c.07-7.3-1.22-10.47-6.08-15.88-3.74-1.81-7.26-1.74-11.32-1.13-3.27 1.43-6.06 3.36-8.93 5.44l-2.4 1.66c-5.1 3.6-9.83 7.48-14.36 11.8-3.4 3.09-7.1 5.66-10.87 8.28A41 41 0 0 0 535 117v2l-2.12-.94c-10.15-4.22-20.44-6.26-31.2-8.31l-5.4-1.06-5.2-1.02-2.4-.46c-3.7-.7-7.37-1.3-11.1-1.7-4.25-.6-5.21-1.46-7.83-4.76l-2.26-2.73L465 95q-3-3.28-6.06-6.5a177 177 0 0 1-10-11.56C441.2 67.12 433.49 58.9 423 52q-1.5-.98-3-2c-7.6-.85-10.05.86-14.52 7.12M586 189l1 2Zm20 297 1 2Z" fill="#BFC0C0"/><path d="M416.63 45.94 419 47l2.87 1.19c3.8 2.2 6.87 4.89 10.13 7.8 4.63 4 4.63 4 8 4v3a36 36 0 0 0 4 4c4.88 4.67 4.88 4.67 6 8q.82.85 1.68 1.7a48 48 0 0 1 5.13 6.13 71 71 0 0 0 8.38 9.37 90 90 0 0 1 7.03 8.3c2.34 2 3.76 1.7 6.77 1.5q2.52.98 5 2 3 .56 6 1c23.63 3.73 23.63 3.73 34.88 7.7 3.5 1.2 6.4 1.85 10.13 1.3 1.74-1.5 1.74-1.5 3-3h2q.26-.85.56-1.74c1.75-2.75 3.83-3.68 6.68-5.17 2.51-1.55 4-3.74 5.75-6.08h2q.39-.95.82-1.94C557 94 557 94 560 93l1.43-1.44c1.76-1.75 3.35-2.48 5.58-3.56 5.63-3.72 5.63-3.72 8.24-5.75 4.25-1.93 8.17-2.13 12.75-1.25 3.72 2.04 6.17 4.66 8.38 8.25a73 73 0 0 1 1.4 10.32c.18 1.94.47 3.88.79 5.8.6 3.69.5 6.42-.57 10a30 30 0 0 0-1 9.63l-1 1q-.32 3.14-.5 6.32A57 57 0 0 1 594 143l.07 3.82c.05 4.03-.96 7.3-2.07 11.18-1.58 12.29-1.58 12.29 0 17v3l-3 3c-.87 1.94-.87 1.94-1 4l1.57 1.82L591 189c-.82 3.56-.82 3.56-2 7v3c-1 2.19-1 2.19-2 4l3 3-2 4h-5c-1.48 2.96-1.07 5.74-1 9l7 3 3-3c2 3 2 3 2 5a27 27 0 0 0 7.8 3.9c4.3 1.48 8.18 3.57 12.2 5.66a68 68 0 0 0 9 3.44q2.89 1.17 5.75 2.38c9.52 4 19.09 7.98 28.93 11.12a41 41 0 0 1 9.33 4.5 79 79 0 0 0 14.12 5.5c4.46 1.26 7.9 3.12 11.88 5.5q1.97.55 4 1l2.92 1.5c3.08 1.5 3.08 1.5 5.64 2 2.94.6 4.88 1.9 7.43 3.5q2.5 1.02 5 2 3 1.48 6 3l4 2a387 387 0 0 0 7.07 3.5c8.53 4.36 8.53 4.36 12.27 7.4a66 66 0 0 0 8.6 5.6c6.44 3.7 12.53 7.5 18.06 12.5v2l1.68.25c5.37 1.74 8.7 6.2 12.24 10.35q3 3.44 6.15 6.79a191 191 0 0 1 13.93 16.6l1.88 2.5c3.19 4.38 5.62 8.32 7.32 13.44a37 37 0 0 0 12.27 16.7c2.3 2.05 3.24 4.62 4.53 7.37q2.47 2.54 5 5 1.57 2.45 3 5l2 3a130 130 0 0 1 8 14l2.07 3.5A43 43 0 0 1 858 426q1.64 5.01 3.5 9.94c2.5 6.65 3.9 13.2 5 20.2.59 3.37 1.56 6.58 2.5 9.86q.28 2.06.5 4.13c.5 3.87.5 3.87 1.63 6.5 1.14 3.12.44 5.1-.12 8.37q.16 2.03.42 4.05c.75 6.03.9 12.07 1.09 18.14.2 5.15.79 9.84 2.15 14.82.39 2.3-.02 3.77-.66 5.99-.3 5.15.55 9.08 2 14q.1 2.03.17 4.06c.88 8.63 5.83 17.56 12 23.5 13.1 10.42 29.78 11.65 45.83 10.44a106 106 0 0 0 42.44-15.38c19.3-12.23 19.3-12.23 29.3-10.01 8.15 2.52 12.9 6.55 17.32 13.77 1.26 4.93 1.06 7.98-1.07 12.62-16.87 25.28-45.75 38.95-74.93 45.13L942 627l-3.27.56a96 96 0 0 1-36-.8A178 178 0 0 0 892 625a58 58 0 0 1-13-5l-2.84-.85c-7.37-2.67-13.9-8.43-19.15-14.15l-3.33-3.18c-2.67-2.82-2.67-2.82-2.67-4.82l-1.76-.62c-2.46-1.51-3.6-3.1-5.1-5.54-1.35-2.17-2.81-4.24-4.27-6.34A36 36 0 0 1 835 574l-2-4.25c-1.9-4.13-2.83-8.1-3.51-12.58C829 555 829 555 827 552a83 83 0 0 1 0-5l-1-3a97 97 0 0 1-.07-5.38l.03-3.34.04-3.62.06-7.6q.05-5.99.12-11.96l.08-11.56.06-3.56A73 73 0 0 0 823 475c-4.75 7.13-6 14.59-6 23l-2 1-2-1 .68 1.56c.49 3.7-1.04 6.16-2.67 9.44l-2 2 1 2q-.93 1.19-1.88 2.44c-2.22 3.29-2.84 6.34-3.56 10.19-.8 3.34-2.24 6.27-3.68 9.37a19 19 0 0 0-1.88 7c.92 2.32.92 2.32 2 4l-3 2-2-1q-.26 2.4-.5 4.82l-.3 2.7c-.2 2.48-.2 2.48-.2 5.48a82 82 0 0 1-2.08 13.5c-.92 3.9-.98 7.44-.86 11.44-.1 2.9-1.09 5.35-2.07 8.06a93 93 0 0 0 0 5l-1 2a98 98 0 0 0-.43 4.19 63 63 0 0 1-2.57 11.8q-1.09 5.02-2.12 10.02c-.88 2.99-1.94 4.6-3.87 6.99a79 79 0 0 0-1 5q-.99 2.51-2 5l3.75.77c18.28 3.76 18.28 3.76 26.25 6.23l3.51 1.05c14 4.5 14 4.5 17.49 10.95-.37 3.39-1.75 5.47-4.27 7.78-6.35 4.47-14.55 5.74-22 7.35q-1.1.22-2.23.48c-12.05 2.45-24.12 3.57-36.37 4.36l-3.78.24q-7.85.5-15.69.97l-11.53.72-3.6.2-3.31.23q-1.45.07-2.92.17c-2.3.5-2.3.5-4.3 3.5l-1.83-.62c-2.17-.38-2.17-.38-5.17 1.62l-.96-1.98C708 685 708 685 704.19 684.58q-2.43.03-4.87.12l-2.7.05q-4.47.1-8.92.23l-6.3.14q-8.39.19-16.75.42l-13.23.3c-34.8.78-69.55 2.16-104.31 3.9-47.34 2.36-95.93 3.54-143.1-1.74l-3.01-.32c-43.56-4.7-43.56-4.7-54-16.68-.12-1.94-.12-1.94 1-4 9.87-9.08 23.33-11.94 36.13-14.65q3.33-.7 6.6-1.45c21.64-4.75 43.57-7.6 65.58-9.96l3.56-.4A1591 1591 0 0 1 520 635l2.67-.2a1355 1355 0 0 1 101.57-3.06l14.24.02 20.58.05c11.4.02 22.8.19 34.2.64l3.09.12 2.85.12 2.52.1c2.27.2 2.27.2 4.4.79 1.88.42 1.88.42 4.81-.45 3.69-2.55 4.93-5 6.8-8.97 1.43-2.44 2.97-3.55 5.27-5.16 3.04-7.1.17-15.08-2-22l-.52-2.4c-1.75-5.87-5.48-8.21-10.66-11.04a584 584 0 0 0-6.58-3.4c-12.62-6.53-24.12-14.34-35.24-23.16l-1.78-1.38a101 101 0 0 1-19.79-20.45 77 77 0 0 0-7.42-8.17 28 28 0 0 1-3.9-7.71c-1.2-3.56-2.64-6.96-4.1-10.41a70 70 0 0 1-5-19.88l-1.86.55c-2.14.45-2.14.45-4.58-.23L617 489l-5 4c-13.48 5.86-13.48 5.86-19.12 3.94L590 496l-3 2c-3-4.62-3-4.62-3-8-3.12 1.17-6.13 2.5-9.13 3.94l-2.01.96c-2.59 1.52-4.33 3.46-6.25 5.73-1.62 1.37-1.62 1.37-3.94 1.75-2.81.65-3.74 1.33-5.86 3.18C554 508 554 508 552 508l1 4-3 2-3-2c-5.62 2.53-12.54 5.79-15.18 11.63L531 526c-4.25 3.9-8.67 5.93-14 8l1 3c-3 2-3 2-5 2l2 3-2.25 2.19c-3.43 4.04-4.37 8.76-5.8 13.76-2.19 7.03-6.96 11.96-12.94 16.05a87 87 0 0 1-11 4l-3.13 1.25c-6.5 1.7-11.96 1.09-18.1-1.52-1.77-.73-1.77-.73-4.6-1.23-2.65-.6-3.53-1.37-5.18-3.5l-.94-2c-1.29-2.42-2.88-3.38-5.06-5l-1-3-2.5-2.44c-2.46-2.52-3.1-3.22-3.5-6.56l-.54-2.65c-1.3-9.4.02-18.2 5.67-25.85 3.42-4.06 7.07-7.84 10.9-11.51 2.9-2.93 5.36-6.16 7.89-9.4 2.19-2.71 4.47-5.27 6.82-7.84 6.34-7 6.34-7 8.26-10.75-.25-2.87-.25-2.87-1-5q1.95-1.48 4-3c.32.5.32.5 2 3 3.23 0 8.06-6.88 10.25-9.06l2.6-2.57c4.55-4.54 8.62-9 12.15-14.37l-3-5-2.37 1.06-2.62.94-2-1-2 3-4-2a28 28 0 0 0-9 11h-2a139 139 0 0 0-5.32 6.56l-1.44 1.85a379 379 0 0 0-10.87 14.92c-2.81 3.93-5.1 6.3-9.37 8.67-1.13 2-1.13 2-2 4-1.51 1.75-1.51 1.75-3 3h-2l-.7 2.69c-1.5 3.8-3.37 5.5-6.3 8.3-3.33 4.52-5.91 9.4-8.55 14.33-3.66 6.72-7.92 11.4-13.45 16.68l-1.74 1.74c-5.87 5.58-13.92 9.46-22.08 9.76-5.92-.46-9.44-1.6-13.49-5.98-5.88-7.42-10.12-14.74-11.07-24.27 1.23-10.7 5.01-17.4 13.13-24.17 3.5-3.23 5.79-7.04 8.25-11.08q.95-1.38 2-2.81c3.05-4.87 5.47-10.03 8-15.2l2.74-5.36a52 52 0 0 0 3.25-7.75 26 26 0 0 1 3.3-6.47c2.81-4.42 4.84-9 6.82-13.85l1.01-2.4c5.88-14.13 5.88-14.13 5.88-19.16q.95-1.48 2-3h2q-.09-1.1-.13-2.25c.13-2.91.77-4.22 2.13-6.75.06-.43.06-.43.43-2.62C431 400 431 400 434 398c.63-3.31.63-3.31 1-7a54 54 0 0 1 2-8c-1.19-2.68-1.19-2.68-3-6l-2.12-4.12-1.01-1.95A31 31 0 0 1 429 365l-.94-2.62a68 68 0 0 1-2-8.2 58 58 0 0 0-2.69-9.74c-1.38-3.92-1.5-7.2-1.35-11.32-.03-3.2-1.13-6.06-2.01-9.12a35 35 0 0 1 .5-10.37c.49-2.62.49-4.85.43-7.5-.06-4.46.6-7.93 2.06-12.13l-1.8-.35a15 15 0 0 1-5.51-2.96 57 57 0 0 0-7.19-4.63c-4.75-2.62-8.68-6.23-12.5-10.06l-2.62-1.94c-5.75-4.73-10.12-11.42-13.37-18.06l-1.88-2.12c-2.43-3.28-3.69-6.46-5.12-10.25-.96-2.52-2.06-4.94-3.2-7.38-2.4-5.4-3.12-9.46-1.8-15.25v-3.18c0-2.82 0-2.82 1-4.82l-.7-2.12c-.4-3.78.92-5.51 2.7-8.76 1.56-3.35 1.69-6.45 2-10.12a44 44 0 0 1 1.9-7.61c1.5-4.7 2.53-9.47 3.6-14.3.81-3.64 1.69-6.78 3.5-10.1q.66-2.88 1.36-5.78a44 44 0 0 1 2.7-6.77c1.78-3.83 2.45-7.23 2.94-11.44q.96-3 2-6 .52-3 1-6l.53-3.4q.24-1.74.52-3.54l.54-3.52c.4-3.55.44-6.97.4-10.54.37-3.1.76-6.1 1.56-9.12.44-1.88.44-1.88.44-4.44 0-2.44 0-2.44 1-5.44q.26-2.12.44-4.25c.42-4.1 1.4-7.78 2.56-11.75q.46-2.81.88-5.62c1.33-7.42 5.2-10.98 11.18-15.27C414 46 414 46 416.62 45.94m-11.14 11.18c-1.99 3.84-2.64 7.53-3.37 11.76l-.5 2.79c-1.98 11.67-3.37 23.43-4.79 35.17-3.21 26.56-3.21 26.56-7.82 39.16a645 645 0 0 0-15.8 58.07c-2.73 12.47-4.69 25.46 1.8 36.93l1.8 3.53c3.86 7.56 7.94 14.77 13.2 21.47l1.87 2.4c8.7 10.4 20.57 19.4 33.13 24.6-.05.3-.05.3-.22 1.82-2.89 28.05-.7 58.2 13 83.47 2.56 5.73 1.41 11.08-.62 16.75l-.8 2.09-.81 2.22a311 311 0 0 1-7.2 17.4 98 98 0 0 0-3.24 9.13c-1.75 5.5-4.22 10.53-6.86 15.65a301 301 0 0 0-7.57 16.16c-8.18 18.37-16.62 35.82-31.3 49.9-5.13 5.17-6.4 12.14-6.88 19.16.19 8.24 4.59 15.66 10.24 21.44 4.44 4.1 7.92 4.28 13.9 4.2 10.18-1.2 18.64-8.01 25.36-15.4a110 110 0 0 0 11.74-18.3c6.1-11.61 15.81-21.36 24.7-30.9 12.33-13.5 23.42-28.58 33.56-43.8 8.13.17 14.12 4 21 8a26 26 0 0 1-5.03 7.45 326 326 0 0 1-3.92 4.12l-2.12 2.25a849 849 0 0 1-16.87 17.07A193 193 0 0 0 467 503c-4.48 5.66-8.94 11-14.2 15.94-7.5 7.3-11.87 16.35-12.12 26.8.13 9.74 4.43 15.03 10.94 21.99 5.73 5.49 11.93 8.8 19.88 9.65a42.4 42.4 0 0 0 29.63-13.02c5.03-6.37 6.36-14.85 7.96-22.63 1.71-5.18 5.28-8.25 9.52-11.48 3.48-2.7 6.7-5.47 9.88-8.5 12.4-11.25 27.77-19.54 41.97-28.3a286 286 0 0 0 9.63-6.18c6.2-4.1 10.44-6.72 17.9-5.27l3.1.6q3.54.72 7.03 1.54a346 346 0 0 0 14.9 2.95l4.98.9.22 1.86c2.62 17.46 10.52 32.73 21.77 46.15l2.09 2.72c5.54 7.14 11.72 12.84 18.91 18.28l1.9 1.44a201 201 0 0 0 26.55 17c5.78 3.17 5.78 3.17 8.6 4.6 8.44 4.32 13.49 8.62 16.52 17.79 1.95 7.02 3.5 15.14.05 21.85C723 622 723 622 720.44 625c-2.42 3-2.42 3-3.3 5.69-1.43 2.9-3.1 3.6-6.04 4.77-3.85 1-7.49.3-11.38-.25-12.74-1.5-25.38-1.53-38.2-1.54l-7.6-.03q-11.06-.03-22.15-.01h-6.24c-41.28 0-82.38.37-123.51 4.37l-3.88.38a2330 2330 0 0 0-41.64 4.35l-3.01.35q-1.39.14-2.79.32l-2.4.28q-2.44.35-4.86.84c-4.01.79-8.08.88-12.17 1.09-5.06.29-5.06.29-7.25 1.39q-2.73.4-5.47.75c-10.46 1.36-20.74 3.46-31.03 5.7q-2.43.56-4.88 1.08l-6.96 1.53-2.12.46A31 31 0 0 0 363 661l-2.94.82A18 18 0 0 0 351 669c-.19 2.69-.19 2.69 1 5 15.47 11.17 39.63 11.35 58 13l2.05.19c54.38 4.75 109.7 1.98 164.16-.43l2.1-.1q10.65-.46 21.3-1.17c10.17-.68 20.37-.81 30.56-1l6.4-.11 16.78-.32q25.87-.46 51.76-1l8.38-.17 12.45-.27 4.4-.1c8.78-.17 17.34-.85 26.03-2.04 6.77-.9 13.57-1.25 20.38-1.7a93 93 0 0 0 16.16-2.3 78 78 0 0 1 6.26-1.15c17.99-2.73 17.99-2.73 24.84-7.33 1.62-3.5 1.62-3.5 1-7-4.1-4.02-8.13-6.23-13.58-8.06l-2.18-.76c-7.7-2.54-15.6-3.96-23.58-5.32a92 92 0 0 1-11.66-2.86l.9-2.65c7.8-22.86 13.55-46.03 15.1-70.22 1.26-19.2 6.75-36.08 13.74-53.91a929 929 0 0 0 6.43-17.16c.22-.56.22-.56 1.27-3.43A965 965 0 0 0 822 467c9.23 15.9 7.25 33.92 6.87 51.62-.37 18.39.1 36.44 7.95 53.44.16.4.16.4 1.04 2.38C843.14 586 850.17 595 859 604l1.92 2.03c15.82 15.4 40.3 19.38 61.33 19.29l2.08-.01c10.16-.07 19.87-.33 29.67-3.31l2.6-.78c23.38-7.21 49.01-18.12 62.4-39.78 2.3-4.53 2.88-7.4 2-12.44-2.2-4.45-5.02-7.95-9.62-10-11.96-3.36-20.1.18-30.4 5.9-5.23 2.89-10.6 5.49-15.98 8.1l-2.8 1.37c-19.96 9.06-41.32 11.75-62.2 4.63-11.68-4.94-18.98-12.28-24.21-23.9-3.6-9.64-4.34-19.62-4.75-29.81q-.15-3.53-.35-7.06l-.59-11.98-.2-4.34c-1.47-30.12-5.96-59.85-19.9-86.91l-.96-1.91a142 142 0 0 0-15.03-24.1l-1.83-2.38a121 121 0 0 0-8.55-10.17c-6.32-7.1-10.55-16.17-14.7-24.66-11.9-23.95-37.84-43-60.36-56.05a84 84 0 0 1-8.14-5.34c-3.73-2.74-7.74-4.48-12-6.26a233 233 0 0 1-15.76-7.38c-8.97-4.57-18.31-8.14-27.66-11.81l-10.38-4.1-2.54-1a606 606 0 0 1-17.7-7.4c-5.65-2.4-11.4-4.6-17.12-6.82-38.58-14.97-38.58-14.97-55.1-24.47C580 220 580 220 578 220l2.76-14.71.94-4.97 1.37-7.27.46-2.5q1.19-6.26 2.5-12.5a391 391 0 0 0 5.64-36.36l.97-8.15.58-5.01c.4-3.43.81-6.84 1.33-10.26.65-4.78.7-9.51.76-14.33l.08-2.93c.07-7.3-1.22-10.47-6.08-15.88-3.74-1.81-7.26-1.74-11.32-1.13-3.27 1.43-6.06 3.36-8.93 5.44l-2.4 1.66c-5.1 3.6-9.83 7.48-14.36 11.8-3.4 3.09-7.1 5.66-10.87 8.28A41 41 0 0 0 535 117v2l-2.12-.94c-10.15-4.22-20.44-6.26-31.2-8.31l-5.4-1.06-5.2-1.02-2.4-.46c-3.7-.7-7.37-1.3-11.1-1.7-4.25-.6-5.21-1.46-7.83-4.76l-2.26-2.73L465 95q-3-3.28-6.06-6.5a177 177 0 0 1-10-11.56C441.2 67.12 433.49 58.9 423 52q-1.5-.98-3-2c-7.6-.85-10.05.86-14.52 7.12M586 189l1 2Zm20 297 1 2Z" fill="#E8E9EA"/><path d="M441 383c2 3.75 2 3.75 2 6l3 1v2h2l1.1 2.38c3.05 6.37 6.15 11.41 10.9 16.62v2l4 2v2l4 1v2l1.62.69c3.2 1.77 5.67 3.85 8.38 6.31v2l4 1v2l1.94.69a104 104 0 0 1 7.81 3.75l2.36 1.24C496 439 496 439 497 442l-2.27.7c-3.29 1.57-4.43 3.12-6.48 6.11l-2.07 2.98L484 455l-4.56 6.69-1.15 1.67a102 102 0 0 1-8.61 10.75 98 98 0 0 0-5.12 6.39 69 69 0 0 1-7.31 8.19c-5.72 5.57-10.43 11.96-15.25 18.31l-2.27 2.96a99 99 0 0 0-8.73 13.6c-6.83 12.93-17.04 23.5-31 28.44-5.15 1.01-9.66 1.29-14.36-1.3-4.63-3.79-7.86-8.44-10.64-13.7l-1.31-2.38A33 33 0 0 1 376 512a94 94 0 0 1 6.49-7.36c13.51-14.21 22.06-31.95 29.4-49.98a128 128 0 0 1 4.55-9.54 291 291 0 0 0 13.3-31.06c2.23-6.04 4.63-12 7.06-17.95 1.2-3.11 1.2-3.11 1.74-5.47L439 389l2-1z" fill="#090B0A"/><path d="M505.52 197.68c6.84 3.26 13.76 8.86 16.52 16.02 1.9 6.55 2.32 13.8-.18 20.22A56 56 0 0 1 517 241l-1.42 1.84c-4.73 5.41-10.26 6.87-17.25 7.47-7.4.23-12.45.28-18.33-4.3l-2.4-1.63A42 42 0 0 1 471 239c-.57-3.44-.57-3.44 0-6h-2c-1.33-2.65-1.1-4.68-1.07-7.63L468 220l2-1 .73 2.7 1.02 3.55.98 3.51c1.32 3.37 2.47 5 5.27 7.24 6.01 2 12.71 2.02 18.5-.57 5.02-4.89 6.68-8.06 6.91-15.09.11-9.36.11-9.36-3.4-13.34v-2c-4-1.85-7.46-2.36-11.83-2.63l-3.52-.23L482 202c6.23-6.44 14.98-6.63 23.52-4.32" fill="#F1D15B"/><path d="M425.51 180.1c7.25 4.62 12.95 10.56 15.5 18.9.84 7.3-.09 13-4.52 19.06-4.57 5.57-10 10.38-17.5 11.14-5.36.11-9.29-.37-13.99-3.2-6.5-6.8-9.16-13.1-9.19-22.44q.07-3.29.2-6.56h1l.36 2.92.5 3.83.5 3.8c.54 2.95.96 4.98 2.63 7.45 4.04 1.83 7.62 2.77 12 2 4.78-2.78 9.81-6.32 11.63-11.78 1.04-6.3 2.11-13.47-1.4-19.03-2.8-2.77-4.64-4.06-8.59-4.39l-2.39.07-2.42.06-1.83.07c2.65-5.3 12.91-3.9 17.51-1.9" fill="#F2D558"/><path d="m598 481 3.1.59q3.53.74 7.04 1.54c4.23.95 8.47 1.77 12.74 2.56l2.14.4 4.98.91v7l-2-2v-3l-1.69.56c-2.31.44-2.31.44-4.75-.25L617 489l-5 4c-13.47 5.86-13.47 5.86-19.12 3.94L590 496l-3 2c-3-4.62-3-4.62-3-8a111 111 0 0 0-9.12 3.94l-2.01.96c-2.58 1.52-4.33 3.46-6.25 5.72-1.62 1.38-1.62 1.38-3.93 1.76-2.83.65-3.75 1.33-5.88 3.18C554 508 554 508 552 508l1 4-3 2-3-2c-5.62 2.53-12.54 5.78-15.19 11.62L531 526c-4.25 3.91-8.68 5.93-14 8l1 3-3 2-2-2c.15-2.86.84-3.85 2.93-5.82l2.51-1.87c3.54-2.7 6.84-5.48 10.06-8.56 12.41-11.25 27.77-19.54 41.96-28.3q4.88-3 9.64-6.18c6.2-4.1 10.44-6.72 17.9-5.27m8 5 1 2Z" fill="#F2F2F3"/><path d="M826 377c4.62 2.25 5.82 4.46 8 9q2.47 2.53 5 5a97 97 0 0 1 3 5l2 3c3.02 4.53 5.56 9.13 8 14l2.06 3.5A43 43 0 0 1 858 426q1.62 5.01 3.5 9.94c2.49 6.65 3.89 13.2 5 20.2.59 3.37 1.55 6.58 2.5 9.86q.28 2.06.5 4.12c.5 3.88.5 3.88 1.62 6.5 1.16 3.13.45 5.11-.12 8.38q.16 2.03.44 4.05c.73 6.03.9 12.06 1.08 18.13.2 5.16.78 9.85 2.16 14.83.37 2.31-.03 3.76-.68 5.99-.22 3.83-.09 6.7 1.06 10.38 1.16 4.49.7 8.1-.06 12.62-5.75-5.75-4.53-17.65-4.89-25.41l-.36-7.17q-.5-9.26-.95-18.53c-1.49-29.42-6.19-58.48-19.8-84.89l-.96-1.92a148 148 0 0 0-17.1-26.65L829 384l-1.75-2.12C826 380 826 380 826 377" fill="#E7E8EA"/><path d="M628 488h1l.23 1.84a89 89 0 0 0 19.66 43.64q2.12 2.52 4.09 5.17c11.52 15.11 28.63 25.79 45.08 34.91C721.5 586.59 721.5 586.59 724 595l.88 2.04c2.59 6.39 3.02 13.15 2.12 19.96a38 38 0 0 1-5.5 7.94c-2.5 3.06-2.5 3.06-3.88 6.25-1.71 2.97-3.08 4.22-6.3 5.42-5.08.85-10.25.02-15.32-.61v-1l2.41-.11c11.53-.72 11.53-.72 15.59-3.89a62 62 0 0 0 3.73-6.84c1.43-2.44 2.98-3.55 5.27-5.16 3.04-7.09.18-15.08-2-22l-.53-2.39c-1.73-5.88-5.46-8.22-10.66-11.05a509 509 0 0 0-6.57-3.4c-12.63-6.53-24.11-14.35-35.24-23.16l-1.78-1.38a100 100 0 0 1-19.78-20.46A78 78 0 0 0 639 527a28 28 0 0 1-3.89-7.7c-1.45-4.3-3.2-8.47-4.99-12.65-2.64-6.4-3.61-11.86-2.12-18.65" fill="#DEDEDE"/><path d="M416.5 46c6.18 2.47 10.59 5.6 15.5 10 4.63 4 4.63 4 8 4v3c1.69 1.87 1.69 1.87 4 4 4.89 4.66 4.89 4.66 6 8l1.69 1.69a47 47 0 0 1 5.12 6.12 71 71 0 0 0 8.4 9.38 92 92 0 0 1 7.02 8.31c2.35 1.99 3.77 1.7 6.77 1.5q2.51.96 5 2 3 .55 6 1a259 259 0 0 1 45 11v3a78 78 0 0 1-10.7-2.83c-7.5-2.34-15.09-3.91-22.79-5.41q-3.5-.67-7-1.38l-4.53-.89-2.07-.41c-3.41-.66-6.78-1.18-10.23-1.53-4.73-.71-5.97-2.24-8.99-5.86l-2.82-3.3-1.43-1.7a191 191 0 0 0-5.72-6.32A186 186 0 0 1 448 77c-7.4-9.38-14.78-17.63-25-24l-3-2c-6.87-.78-6.87-.78-10.81 1.94-2.33 3.25-3.44 6.06-4.51 9.88A35 35 0 0 1 402 69c-1-5.02-1.23-8.34 1-13 2.25-2.56 2.25-2.56 5-5l1.48-1.46C413.27 46 413.27 46 416.5 46" fill="#E6E5E7"/><path d="M425.51 180.1c7.25 4.62 12.95 10.56 15.5 18.9a83 83 0 0 1 0 10h-1v-9h-6q-.26 1.41-.5 2.87c-1.5 3.13-1.5 3.13-3.43 3.97-2 .48-4.04.83-6.08 1.16l.48-2.07c.6-3.34.76-6.54.83-9.93l.11-3.63c-.5-4.03-1.55-5.56-4.42-8.37-2.97-1.98-5.22-2.23-8.75-2.13l-2.42.06-1.83.07c2.65-5.3 12.91-3.9 17.51-1.9" fill="#E0C960"/><path d="M492 443c7.48.28 12.65 3.18 19 7l-1 4h-3l-2-4-2.38 1.06-2.62.94-2-1-2 3-4-2a27.7 27.7 0 0 0-9 11h-2a145 145 0 0 0-5.31 6.56l-1.44 1.85a369 369 0 0 0-10.87 14.92c-2.82 3.93-5.1 6.29-9.38 8.67-1.12 2-1.12 2-2 4-1.62 1.75-1.62 1.75-3 3l-2-1a50 50 0 0 1 7.25-9.81l2.41-2.64L459 486a265 265 0 0 0 15.42-18.86c3.8-4.99 7.43-10.1 11.07-15.22q3.18-4.51 6.51-8.92" fill="#E9EBED"/><path d="M504 213h1l1 17h-2v2h-2v2l-2 1-1 3h-5v2h-10v5c3.83.09 7.27-.12 11-1l1 4h9c-5.26 3.5-11.88 2.52-18 2-3.09-.9-4.35-1.93-7-4l-2.41-1.61A44 44 0 0 1 471 239c-.56-3.44-.56-3.44 0-6h-2c-1.32-2.64-1.1-4.68-1.06-7.62l.02-3.04.04-2.34 2-1 .73 2.7 1.02 3.55.98 3.52c1.32 3.36 2.47 4.99 5.27 7.23 6.01 2 12.71 2.02 18.5-.56 6.94-6.76 7.22-13.05 7.5-22.44" fill="#D3BF60"/><path d="M505.52 197.68c6.85 3.26 13.7 8.86 16.54 15.98 1.05 3.72 1.13 6.85 1.06 10.71l-.05 3.77L523 231h-1v-13h-4v-2h-4v-2h-2v2h-2v-2h-2c0-2 0-2 2-4.13l2-1.87-2-1 2-3h-7v2l-4 2-1-3c-3.85-2.07-7.5-2.37-11.82-2.63l-3.52-.23L482 202c6.23-6.44 14.98-6.63 23.52-4.32" fill="#E4CF56"/><path d="M450 230c2.88.96 3.8 1.74 6 4 .88 2.94.88 2.94 0 6a41 41 0 0 1-5.95 3.77c-2.69 1.61-4.29 3.67-6.05 6.23l-5-1a233 233 0 0 1-3-17c4.48-2.98 8.75-2.6 14-2" fill="#6B6F6D"/><path d="m577 488 2 1c-.06 1.81-.06 1.81-1 4a135 135 0 0 1-7 3c-1.75 1.5-1.75 1.5-3 3-1.8 2.13-2.51 2.92-5.31 3.38-2.83.65-3.75 1.33-5.88 3.18C554 508 554 508 552 508l1 4-3 2-3-2c-5.62 2.53-12.54 5.78-15.19 11.62L531 526c-4.25 3.91-8.68 5.93-14 8l1 3-3 2-2-2c.15-2.86.84-3.85 2.93-5.82l2.51-1.87c3.54-2.7 6.84-5.48 10.06-8.56 11.8-10.7 26.31-18.59 39.79-26.94l5.68-3.51C576 489 576 489 577 488" fill="#EBECED"/><path d="m447 499 1 2c-1.8 5.31-3.9 8.1-8 12-3.32 4.5-5.9 9.39-8.54 14.32-3.66 6.72-7.93 11.41-13.46 16.68l-1.72 1.74c-5.87 5.58-13.93 9.45-22.09 9.76-6.1-.48-9.56-1.62-13.59-6.27-6.14-7.85-6.14-7.85-7.6-12.23l2-3 .81 1.94c2.86 6.31 5.88 11.76 12.19 15.06 7.8 1.8 14.29-.28 21.12-4.12 11-7.18 16.98-16.42 23.42-27.54 4.23-7.27 9.25-13.77 14.46-20.34" fill="#DEDFE1"/><path d="m511 451 3 1a25 25 0 0 1-5.03 7.44l-1.87 1.99-2.04 2.13-2.12 2.24a824 824 0 0 1-16.88 17.08c-6.48 6.42-12.5 12.87-18.06 20.12-4.52 5.72-9.07 11.17-14.31 16.25-3.79 3.68-6.42 6.99-8.69 11.75l-2-1c1.34-3.94 3.02-6.42 5.88-9.44 4.26-4.6 8.38-9.3 12.44-14.09q3.98-4.71 8.15-9.27l1.69-1.88q1.62-1.78 3.27-3.53c2.61-2.91 3.6-4.21 3.39-8.2L477 481l4-3 2 3c2.02 0 3.7-2.57 5.01-3.88l2.49-2.48 2.62-2.64 2.56-2.54c13.76-13.79 13.76-13.79 15.32-18.46" fill="#D9DBDD"/><path d="M816 487c2.1 3.46 2.1 3.46 1.62 6.06L817 495v3l-2 1-2-1 .69 1.56c.47 3.71-1.05 6.16-2.69 9.44l-2 2 1 2-1.88 2.44c-2.2 3.28-2.83 6.34-3.55 10.19-.8 3.33-2.24 6.27-3.68 9.37a19 19 0 0 0-1.89 7c.94 2.31.94 2.31 2 4l-3 2-2-1v4h-2c-2.76-9.92 4.03-21.87 7.78-31.01 3.1-7.55 5.87-15.2 8.52-22.92l.94-2.67.81-2.36A14 14 0 0 1 816 487" fill="#E9EAEB"/><path d="M752 298c8.92.38 15.64 6.13 22 12v2l1.69.25c5.35 1.74 8.69 6.2 12.22 10.35q3.02 3.45 6.15 6.79A186 186 0 0 1 808 346l1.88 2.5c3.18 4.36 5.63 8.29 7.31 13.41 1.97 5.06 4.97 10.25 8.81 14.09l-1 3c-7.53-7.72-12.38-17.6-17.07-27.23-10.37-20.89-33.55-40.48-53.8-51.53L752 299z" fill="#E4E3E4"/><path d="M587 172h4c1 3 1 3 1 6l-3 3c-.88 1.94-.88 1.94-1 4l1.56 1.81L591 189c-.81 3.56-.81 3.56-2 7v3c-1 2.19-1 2.19-2 4l3 3-2 4h-5l-2 7h-2c-.34-7.25.94-13.91 2.38-21l.67-3.45c2.75-13.94 2.75-13.94 4.95-20.55m-1 17 1 2Z" fill="#ECEDEC"/><path d="M512 204c0 3.77-.24 4.91-2 8h-2v2h2v2h2v-2h2v2h4v2h4c.29 8.57.29 8.57-2 12-2-3-2-3-2-6h-10v4h-2l-.37-3.07-.51-4.05-.23-2.02A52 52 0 0 0 502 207l3-1v-2c2.67-1.33 4.17-.67 7 0" fill="#EBCA4E"/><path d="M875 548c1.87 2.21 2.97 3.9 3.81 6.69 3.09 8.6 8.82 15.61 16.99 19.72 10.6 4.63 19.73 5.89 31.26 5.71l3.49-.02 8.45-.1v2c-14.78 4.75-31.28 2.18-45-4.75-9.54-5.75-16.04-13.77-20-24.25.32-2.89.32-2.89 1-5" fill="#E0E1E3"/><path d="M494 238c3.15-.26 4.62-.25 7.31 1.5L503 241l-2 2c1.69.81 1.69.81 4 1 2.75-2.44 2.75-2.44 5-5l2 1v2h2v-2h2v-2h2c-1.56 3.83-3.95 6.25-7 9-3.29 1.1-5.74 1.1-9.19 1.06l-3.29-.02L496 248l-1-3-2.06.5c-3.36.57-6.54.57-9.94.5l1-6h10z" fill="#E8C753"/><path d="M396 197h1l.37 2.92.51 3.83.49 3.8c.54 2.96.96 4.98 2.63 7.45 4.04 1.84 7.62 2.77 12 2a67 67 0 0 0 11-9v4h-2v2l-3 1c-2.63 2.83-3.47 5.2-4 9h-5v2l11 2v1c-6.02.37-10.68.21-16-3-6.51-6.8-9.16-13.11-9.19-22.44q.07-3.28.19-6.56" fill="#ECD861"/><path d="m378 174 2 1c-.67 10.5-3.2 20.64-6.06 30.74-1.38 5.5-1.65 11.12-2.06 16.76l-.27 3.36L371 234l-3-1v-8l-.04-2.41-.02-2.65-.04-2.66c.1-2.28.1-2.28 1.1-4.28l-.69-2.12c-.41-3.78.92-5.52 2.7-8.76 1.56-3.35 1.69-6.45 1.99-10.12a69 69 0 0 1 3-11q1.03-3.5 2-7" fill="#EAEBEC"/><path d="m364 661-3.19 1.19A20.3 20.3 0 0 0 352 669c.1 2.53.1 2.53 1 5 1.95 1.27 1.95 1.27 4.47 2.15l2.75.97c4.07 1.29 8.13 2.46 12.28 3.44l2.65.64c8.75 1.98 17.58 2.97 26.49 3.81l3.22.31 2.86.26C410 686 410 686 412 688c-46.69-1.75-46.69-1.75-63.62-15.06-1.38-1.94-1.38-1.94-1.5-3.88 2.1-3.86 5.17-6.32 9.23-7.86 5.39-1.45 5.39-1.45 7.89-.2" fill="#E8E8EA"/><path d="m709 674 1.98.2c7.06.68 14.11 1.08 21.21 1.36l3.17.13 7.64.31v1h-21v4h22v1l-50 1v-1h12l1-5z" fill="#C6C8CA"/><path d="m512 535 .38 1.81C513 539 513 539 515 542l-2.25 2.19c-3.42 4.04-4.37 8.75-5.8 13.76-2.19 7.05-6.97 11.92-12.95 16.05-6.14 3.09-11.27 4.8-18 3 3.3-1.84 6.53-2.66 10.19-3.56 7.1-2.17 11.52-5.37 15.81-11.44 3.26-6.38 4.7-13.41 6.19-20.37.85-2.76 1.95-4.45 3.81-6.63" fill="#DBDDDF"/><path d="M1002 554v2l2 1-1.89.27c-10.54 2.04-19.33 7.37-28.68 12.43-10.89 5.83-22.15 10.45-34.43 12.3.75-1.95.75-1.95 2-4 1.75-.58 1.75-.58 4-.81 10.98-1.81 22.11-6.56 31.43-12.57 3.38-2.13 6.87-4.04 10.38-5.93l1.93-1.06c4.53-2.44 8.14-3.63 13.26-3.63" fill="#E3E3E6"/><path d="M594 115h1a717 717 0 0 1 1.66 7.71L597 125l-1 1q-.31 3.15-.5 6.31c-.23 3.71-.58 7.1-1.5 10.69l.06 3.81c.06 4.04-.94 7.31-2.06 11.19q-.43 4.22-.66 8.45A16 16 0 0 1 589 173l-2-1-1 3q.88-7.29 2-14.55a851 851 0 0 0 4.35-33q.73-6.24 1.65-12.45" fill="#DFDDDA"/><path d="m427 417 2 1a155 155 0 0 1-9.76 23.59 371 371 0 0 0-9.18 19.58c-1.92 4.33-3.9 8.61-6.06 12.83-1.05-3.17-.98-4.82.31-7.88a71 71 0 0 0 2.57-7.12 30 30 0 0 1 3.43-6.59c2.83-4.46 4.88-9.09 6.88-13.97l1.03-2.46a86 86 0 0 0 3.89-10.89c1-3.46 2.48-5.44 4.89-8.09" fill="#E5E6E7"/><path d="M822 466c2.77 3.24 3.92 6.31 5.12 10.38l1.01 3.33a59 59 0 0 1 1.97 15.78l-.01 3.63-.03 3.76-.01 3.82-.05 9.3h-1v-24h-2l-4-17c-2.14 3.21-3.46 6.39-4.9 9.94C817 487 817 487 814 489c6.19-21.19 6.19-21.19 8-23" fill="#C8CACA"/><path d="m578 214 1 3h2l1.31 1.38c2.05 1.96 4.04 2.69 6.69 3.62l3-3c2 3 2 3 2 5a28 28 0 0 0 7.8 3.91 67 67 0 0 1 9.26 4.09 108 108 0 0 0 10.94 5v3c-5.83-1.79-11.36-4.2-16.94-6.62l-3.07-1.34A265 265 0 0 1 578 220z" fill="#DEDFE0"/><path d="m423 295 2 1v44h-3l.07-1.72c.12-5.2-.61-9.26-2.07-14.28-.29-3.51-.23-6.91.5-10.38.5-2.63.5-4.88.44-7.56-.06-4.08.46-7.26 2.06-11.06" fill="#EFF0F3"/><path d="M401 67h1c.24 7.58-.69 14.71-1.88 22.19l-1.11 7.2-.54 3.46q-.58 3.94-1.08 7.92l-.45 3.73-.35 3.09c-.66 2.68-1.46 3.7-3.59 5.41l.56-10.34c.3-5.31.64-10.62 2-15.78.44-1.88.44-1.88.44-4.44 0-2.44 0-2.44 1-5.44q.22-2.09.38-4.19c.46-4.68 1.81-8.48 3.62-12.81" fill="#E9ECEB"/><path d="M479 461c.72 1.73.72 1.73 1 4-1.44 2.08-1.44 2.08-3.56 4.25-4.52 4.8-8.63 9.7-12 15.37-2.77 4.57-5.57 8.03-10.44 10.38-1.06 1.94-1.06 1.94-2 4-1.62 1.75-1.62 1.75-3 3l-2-1a50 50 0 0 1 7.25-9.81l2.41-2.64L459 486c7.16-7.96 13.61-16.41 20-25" fill="#E9EEF0"/><path d="M502 224h2c-1.46 5.58-3.84 9.92-8.77 13.16-2.92 1.1-5.37 1.03-8.48.96l-3.27-.05L481 238c5.77-5.9 5.77-5.9 10.75-6.12l2.25.12v-2h2v-4h6z" fill="#211A17"/><path d="M437 384h2c.94 8.97-2.45 15.98-6 24l-1.29 2.96q-1.33 3.03-2.71 6.04h-2l-1 2-2-3 4-2-.12-2.25c.13-2.92.78-4.22 2.12-6.75l.44-2.62C431 400 431 400 434 398c.62-3.31.62-3.31 1-7 .83-4.66.83-4.66 2-7" fill="#EAEBED"/><path d="M827 492h2q.08 10.63.11 21.25l.04 7.24q.04 5.19.05 10.38l.03 3.28v3.03l.01 2.68C829 542 829 542 827 544c-.8-2.81-1.13-5.3-1.13-8.21l-.01-2.49.01-2.67-.01-2.76.01-5.79-.01-8.82.01-5.63-.01-2.65c.02-4.44.24-8.61 1.14-12.98" fill="#F1F4F6"/><path d="M871 511a35 35 0 0 1 3.19 8.5l.54 2.28c.29 2.4-.06 3.92-.73 6.22-.22 3.83-.09 6.7 1.06 10.38 1.16 4.49.7 8.1-.06 12.62-4.57-4.57-4.13-12.13-4.2-18.22q.02-3.93.08-7.84l.02-4.07z" fill="#F3F3F5"/><path d="M721 279c4.15.35 7.36 2.07 11 4l2.94 1.44A82 82 0 0 1 750 294q2.47 1.55 5 3c-1.62.75-1.62.75-4 1a63 63 0 0 1-6.12-3.94c-8.11-5.55-16.84-9.3-25.88-13.06z" fill="#DDDDDF"/><path d="M514 208c4.75.75 4.75.75 7 3 1.92 4.57 2.22 8.44 2.12 13.38l-.05 3.77L523 231h-1v-13h-4v-2h-4v-2h-2v2h-2v-2h-2v-2c3-2 3-2 6-2z" fill="#D8BE53"/><path d="m515 110 2.19.41c3.64.77 7.11 1.95 10.62 3.15l2.1.71L535 116v3a76 76 0 0 1-10.62-2.81c-8.65-2.72-17.5-4.43-26.38-6.19 5.88-3.23 10.89-2.26 17 0" fill="#D6D7D8"/><path d="M823 659c2.43.94 3.72 1.49 5 3.81 0 2.19 0 2.19-1.38 4.69-5.85 5.58-13.24 7.04-20.93 8.81l-2.39.56-2.29.49-2.05.45c-2.21.21-3.84-.16-5.96-.81 2.87-2.87 6.14-2.81 10-3.38 6.1-.96 11.56-2.26 17.21-4.85C822 668 822 668 824 668c.12-6.75.12-6.75-1-9" fill="#E6E7E7"/><path d="M593 86c2.62 2.19 3.88 3.41 4.57 6.8l.12 3.08.16 3.21.15 2.91q.48 3 1 6c0 3.58-.34 5.47-1.5 8.75l-.84 2.42L596 121h-1l-.08-2.46-.36-11.1-.12-3.87-.12-3.76-.11-3.45c-.22-3.49-.67-6.9-1.21-10.36" fill="#F5F5F7"/><path d="M807 349c1.75.12 1.75.12 4 1 2.96 3.68 4.53 7.34 6.08 11.77 2.1 5.1 5.01 10.32 8.92 14.23l-1 3c-4.45-4.56-7.59-9.47-10.69-15l-1.15-2.05A124 124 0 0 1 807 349" fill="#DADCDC"/><path d="m720 683-1 4h-4c-2.25 1-2.25 1-4 2l-1.11-1.98C708 685 708 685 705.18 684.55l-3.38.06-3.66.04-3.83.1-3.86.05q-4.72.08-9.45.2v-1c12.95-1.47 25.99-1.09 39-1" fill="#F3F3F5"/><path d="m916.73 579.8 3.93.02 4.1.05 4.12.03q5.05.03 10.12.1v2c-10.62 3.47-22.27 2.9-33 0 3.6-2.25 6.55-2.24 10.73-2.2" fill="#D6D6D9"/><path d="M379 504c.75 1.62.75 1.62 1 4a625 625 0 0 1-4 6c-2.71 7.46-2.18 15.17-2 23l-2-1c-3.11-10.19-1.79-17.7 2.9-27.2a22 22 0 0 1 4.1-4.8" fill="#E6E9EB"/><path d="m890 621 2.2.4 2.92.54 2.89.52 2.99.54 2.81.51c3.11.48 6.1.69 9.24.81l3.36.12 3.47.12 3.53.13 8.59.31v1l-3.69.18-4.87.26-2.43.12a91 91 0 0 0-10.68 1.06c-3.71.42-6.41-.03-10.02-.93l-3.32-.8A34 34 0 0 1 890 623z" fill="#CECFD2"/><path d="M454 571c5.47 1.78 5.47 1.78 7.83 2.77 5.35 2.21 10.41 2.89 16.17 3.23l-1 3c-5.64.35-10-.05-15.21-2.28-1.79-.72-1.79-.72-4.6-1.22-2.57-.59-3.54-1.5-5.19-3.5z" fill="#E4E4E6"/><path d="M726 621v7h-2l-.62 2.38c-1.38 2.62-1.38 2.62-4.5 3.93L716 635c3.75-14 3.75-14 10-14" fill="#0A0B0B"/><path d="m983 610 1 3c-17.15 7.77-17.15 7.77-26 10v-2l-2-1 1.83-.59 8.29-2.72 2.89-.94c4.88-1.61 9.48-3.28 13.99-5.75" fill="#D4D5D5"/><path d="M512 204c0 3.77-.24 4.91-2 8h-2v-4h-2v16h-1l-.15-2.2c-.4-5.21-.86-9.9-2.85-14.8l3-1v-2c2.67-1.33 4.17-.67 7 0" fill="#E2CC59"/><path d="m425 182 1 2 2.31-.19c2.69.19 2.69.19 4.5 1.38 1.56 2.37 1.42 4.03 1.19 6.81h2l-1 3-3-1v-2h-5c-1.32-3.62-2-6.1-2-10" fill="#EDDA53"/><path d="m511 451 3 1c-1.43 3.22-3.18 5.49-5.59 8.04l-2.13 2.26-2.22 2.32-2.21 2.36c-5.45 5.75-5.45 5.75-8.85 8.02.55-3.91 2.3-5.59 5.12-8.25 11.26-10.9 11.26-10.9 12.88-15.75" fill="#DCDEE0"/><path d="M869 613c4.82.67 8.92 2.58 13.31 4.56l2.25 1L890 621l-1 3q-2.12-.67-4.25-1.38l-2.39-.77A50 50 0 0 1 876 619l-2.06-1c-1.94-1-1.94-1-4.94-3z" fill="#EEEFF1"/><path d="M504 213h1l1 17h-2v2h-2v2l-2 1-1 3h-5v2l-9-1v-1l2.01-.3c6.71-1.13 10.65-2.43 14.74-8.14 1.9-5.4 2.01-10.87 2.25-16.56" fill="#CEB85F"/><path d="M799 534c.74 2.31 1.1 3.63.44 6-.58 2.62.2 3.76 1.56 6l-3 2-2-1v4h-2c-1.77-4.99-.18-9.39 2-14 1.61-1.77 1.61-1.77 3-3" fill="#EBECF0"/><path d="M822 466c2.15 2.62 3.4 4.64 4 8l-3-1-.95 2.74-1.3 3.57-1.27 3.55c-1.49 3.16-2.52 4.39-5.48 6.14 6.19-21.19 6.19-21.19 8-23" fill="#D7D7D8"/><path d="M371 232a52 52 0 0 1 3.95 7.01l1.07 2.3 1.1 2.38 1.13 2.41L381 252l-3 1c-4.14-5.71-7.17-11.91-8-19z" fill="#E0E0DF"/><path d="M395 117c1.54 4.01.52 7.7-.31 11.75l-.43 2.16q-1.39 7.1-3.26 14.09h-1c-.93-5.65-1.17-9.58 1-15l.44-2.94c.68-3.71 1.99-6.64 3.56-10.06" fill="#D1D3D5"/><path d="M374 534q1.69 2.51 3.3 5.09c3.09 4.88 5.74 8.86 10.7 11.91 3.34.67 6.6.93 10 1v1q-2.6.37-5.19.69l-2.92.38c-3.62-.09-5.04-.83-7.89-3.07a82 82 0 0 1-4.88-6.44l-1.25-1.73c-2.93-4.24-2.93-4.24-2.63-7.24z" fill="#D4D5D6"/><path d="m547 507 3 1v2l-1.76.92c-3.73 2-7.22 3.9-10.36 6.77-3.38 2.71-5.71 3.39-9.88 4.31a84 84 0 0 1 12.12-10.38l1.88-1.4c1.61-1.16 3.3-2.2 5-3.22" fill="#E4E6E5"/><path d="m492 473 1 3a441 441 0 0 1-4.69 5l-2.63 2.81c-2.68 2.19-2.68 2.19-5.51 2.5L478 486l-1-5 4-3 2 3c1 0 1 0 2.85-1.75l2.21-2.25 2.23-2.25z" fill="#D7D9DA"/><path d="M425 337h1c1.91 7.66 3.48 15.12 4 23l-3-1-.37-1.94a127 127 0 0 0-2.75-12.06c-.88-3-.88-3-.88-5h2z" fill="#E7E7E8"/><path d="M516 238h2c-1.57 3.86-3.79 6.36-7 9-3.81.81-3.81.81-7 1 1.31-3.94 2.92-6.23 6-9l2 1v2h2v-2h2z" fill="#ECCF5C"/><path d="m497 567 2 3c-6.4 4.62-11.71 8.41-19.94 7.62L476 577c4.38-2.42 9.11-3.49 13.91-4.8 3.25-1.26 4.85-2.57 7.09-5.2" fill="#D8DADC"/><path d="m487 193 1 3 7-3 2 2c3.62-.38 3.62-.38 7-1l1 4-3.51-.14-4.61-.11-2.31-.1c-5.42-.09-8.16.95-12.57 4.35h-2v-2h2v-2l2-2h3z" fill="#111104"/><path d="M425.28 179.9c1.9 1.1 1.9 1.1 4.72 3.1-1.93.56-1.93.56-4 1l-1-1-2 3-2.43-2c-4-2.73-7.9-2.38-12.57-2 2.54-5.08 12.72-3.9 17.28-2.1" fill="#B3A968"/><path d="m396 113 2 4 2 1v10l-6 3z" fill="#191C1F"/><path d="M628 488h1l.26 1.95c1.08 6.91 3.1 12.96 5.81 19.4L636 512l-1 2c-5.24-3.49-6.5-10.1-8-16a37 37 0 0 1 1-10" fill="#D6D7D9"/><path d="M523 219h1v15h2v2h-2l-2 4h-2v2l-4-1 1.88-2.75c3.11-4.76 4.37-7.76 4.74-13.5l.23-3.27z" fill="#2A1D0E"/><path d="m481 103 7.69 1.38 2.18.38c3.93.71 7.47 1.58 11.13 3.24v1a58 58 0 0 1-22-3z" fill="#D8D8DC"/><path d="m432 59 3.44 2.88 1.93 1.61C439 65 439 65 440 67l-1 3h-2l-1 2c-2.62-3.06-3-3.73-3-8h-2z" fill="#1A1719"/><path d="m789 325 2.19 2.2a325 325 0 0 0 5.31 5.19c5.05 4.89 9.09 9.46 12.5 15.61h-3c-1.51-1.62-1.51-1.62-3.12-3.88-3.4-4.59-7.13-8.72-11.06-12.86-1.77-2.2-2.43-3.5-2.82-6.26" fill="#E4E4E7"/><path d="m364 661-3.19 1.19c-3.74 1.6-6.16 3.69-8.81 6.81l-1 3-4-1c.24-3.26 1.23-4.23 3.56-6.62 3.6-2.83 9.05-5.57 13.44-3.38" fill="#DDDEE0"/><path d="m480 246 2.94 1.46c4.31 1.84 8.35 2.09 13 2.23l2.36.1 5.7.21v2h-18v-2l-6 2z" fill="#171006"/><path d="M793 547c1.94 3.54 2.17 5.94 2 10v3l-1 3h-2l-2 4c-.41-7.08 1.1-13.2 3-20" fill="#DCDCDD"/><path d="M1002 554c13.4 3.68 13.4 3.68 18 10-.36 2.19-.36 2.19-1 4l-1.5-2.81c-2.68-3.98-5.94-5.12-10.5-6.19-3-.47-5.97-.8-9-1l4-2z" fill="#D9D8DD"/><path d="M871 534c1.95.7 1.95.7 4 2a27 27 0 0 1 0 15c-3.72-3.72-3.95-9.48-4.12-14.56z" fill="#E6E6E8"/><path d="M479 461c.72 1.73.72 1.73 1 4-1.44 2.08-1.44 2.08-3.56 4.25a96 96 0 0 0-9.21 11.32L466 482h-2a39 39 0 0 1 5.25-8.25q4.97-6.3 9.75-12.75" fill="#DCDEDD"/><path d="m369 214 2 1v19l-3-1v-8l-.04-2.45-.02-2.67-.04-2.7c.1-2.18.1-2.18 1.1-3.18" fill="#F3F4F4"/><path d="m891 572 2.16 1.02c8.78 4.09 8.78 4.09 12.96 5.17l2.88.81 1 2c-7.36 1-12.69-2.52-19-6z" fill="#E3E4E6"/><path d="m442 555 1.7 2.17c2.27 2.8 4.63 5.47 7.05 8.14l2.42 2.68L455 570l-2 2-3.44-2.81-1.93-1.58C446 566 446 566 445 563c-2.06-1.69-2.06-1.69-4-3z" fill="#DCDCDE"/><path d="M738 287c3.33.61 5.3 1.78 7.94 3.88A73 73 0 0 0 755 297c-1.58.73-1.58.73-4 1a60 60 0 0 1-6.75-3.75l-1.82-1.09c-1.73-1.08-1.73-1.08-4.43-3.16z" fill="#E6E6E6"/><path d="M469 219c3.89 6.66 4.32 12.63 3 20h-1v-6h-2c-1.31-2.62-1.13-4.64-1.12-7.56l-.01-3.01C468 220 468 220 469 219" fill="#96945C"/><path d="M383 160h2l-4 17c-3-4-3-4-2.71-6.73l.9-2.89.85-2.92C381 162 381 162 383 160" fill="#EAEAEC"/><path d="M417 46a53 53 0 0 1 15 10l-1 3-1.64-1.24-2.17-1.64-2.15-1.61c-4.14-3.06-6.93-3.93-12.04-4.51z" fill="#D4D3D6"/><path d="M433 406h3l2 10h-6l1-3h-2c.88-4.75.88-4.75 2-7" fill="#0F0F13"/><path d="M492 197v3h4l1 3-15-1c5-5 5-5 10-5" fill="#B4AD68"/><path d="M379 179h2q-.17 3.15-.38 6.31l-.21 3.55C380 192 380 192 378 195q-1.07 3.48-2 7h-1c.52-7.88 2.09-15.34 4-23" fill="#252627"/><path d="M394 198h2l.18 2.63.26 3.49.24 3.45c.3 3.18.75 6.29 1.32 9.43l-2-1v-2h-2v-4h-2l1-2q.06-2.28 0-4.56a73 73 0 0 1 0-4.44z" fill="#13100A"/><path d="M594 115h1a717 717 0 0 1 1.66 7.71L597 125l-1 1q-.58 2.52-1.06 5.06l-.54 2.79-.4 2.15h-2c.96-14.78.96-14.78 2-21" fill="#D8D8D7"/><path d="M784 606h2c1.29 8.57 1.29 8.57 0 12h-2l-2 4c-1.38-3.77-.6-6.45.44-10.25l.87-3.27z" fill="#DBDCDD"/><path d="m591 136 4 1q.06 2.5 0 5l-1 1q.08 3.05.26 6.09L594 151l-3 2z" fill="#DDDCDF"/><path d="m438 210 2 1c-1.49 4.6-3.8 7.47-7 11h-1v-8h2v-2h2v2h2z" fill="#E1CF64"/><path d="m918.13 625.9 2.44.01 2.55.03 2.58.01 6.3.05c-3.44 3.2-5.95 3.38-10.57 3.31H918c-3-.31-3-.31-6-2.31 2.3-1.16 3.58-1.13 6.13-1.1" fill="#F2F2F4"/><path d="M512.63 198.75 515 201l1.8 1.63C518 204 518 204 518 206h2q.48 1.48 1 3c-3 0-3 0-5.38-2.25q-1.3-1.35-2.62-2.75a95 95 0 0 0-8-6c3.45-1.19 4.5-1.33 7.62.75" fill="#251E08"/><path d="M492 197h11v1h-5c1.19 3.38 2.28 5.65 5 8l-2 2-1-3-3-1c-.69-2.06-.69-2.06-1-4h-4z" fill="#CDC169"/><path d="M587 172h4c1 3 1 3 1 6-1.31 1.69-1.31 1.69-3 3h-3z" fill="#F6F5F3"/><path d="m386 501 1 2c-.94 2.12-.94 2.12-2 4h-3l1 3c-1.81 2-1.81 2-4 4h-3c1.34-4.04 3.05-6.39 6.12-9.31l2.2-2.12z" fill="#181D1D"/><path d="m472 231 4.39 3.71A68 68 0 0 0 481 238c-2.91 1.26-4.8 2-8 2-1-1-1-1-1.1-2.85z" fill="#C6BF5E"/><path d="M424 176h2v4l5 1 1 3 2 1c-3.4 0-3.93-.5-6.56-2.44-4.64-3.06-8.98-3.44-14.44-3.56v-1h11z" fill="#312C10"/><path d="m432 57 2.31 1.5C437 60 437 60 440 60v3c2 2.19 2 2.19 4 4l-2 2-5-4.88-2.81-2.74C432 59 432 59 432 57" fill="#F1EFF3"/><path d="M371 520h2l1 17-2-1c-3.41-11.18-3.41-11.18-1-16" fill="#F0F0F2"/><path d="M633 513c3.86 1.46 5.27 3.29 7 7 .69 3.81.69 3.81 1 7-2.6-.99-3.76-1.52-5.01-4.06l-.68-2.38-.7-2.37L634 516z" fill="#DEDEDD"/><path d="M396 197h1l.37 2.92.51 3.83.49 3.8c.54 2.95 1 4.97 2.63 7.45l2 1h-3l-1 2c-3.86-6.75-3.29-13.39-3-21" fill="#A5A380"/><path d="M595 98h1v13l3 1-3 9h-1z" fill="#E9E9EC"/><path d="m404 80 2 1v7h-2l-2 4-1-11z" fill="#0B0E0E"/><path d="m453 80 13 13-2 2-12-13z" fill="#E1E0DF"/><path d="M726 604h1q.12 3.09.19 6.19l.1 3.48c-.32 3.63-1.11 5.44-3.29 8.33l-2 1 .4-1.52c.82-3.39 1.49-6.81 2.16-10.23l.42-2.11z" fill="#D6D7D8"/><path d="M1002 554v2l2 1-5.81 1.5-3.27.84C992 560 992 560 989 560v-2c4.23-3.02 7.86-4 13-4" fill="#EEEEF1"/><path d="M831 552h1l1.44 5.69.81 3.2q.97 4.03 1.75 8.11c-4.72-4.23-4.72-4.23-5.88-7.38-.15-3.31.31-6.36.88-9.62" fill="#DBDCDE"/><path d="m509 108 3 2v2l3 1a233 233 0 0 1-17-3c3.82-2.12 6.61-2.32 11-2" fill="#CECFD2"/><path d="m979 566 3 2c-1 1.94-1 1.94-3 4-2.7.67-5.21.82-8 1v-3z" fill="#18181B"/><path d="m425 182 1 2 2.31-.25c2.69.25 2.69.25 4.5 2.25l1.19 2h-6l-1 4c-1.32-3.62-2-6.1-2-10" fill="#E8D864"/><path d="M791 561c1.56 1.06 1.56 1.06 3 3a32 32 0 0 1-3 12h-1c-.1-5.13-.04-9.95 1-15" fill="#F5F5F8"/><path d="M533 513h6c-3.89 3.18-7.9 6.11-12 9 .38-2.94.38-2.94 1-6l2-1 3 1z" fill="#1C1F1E"/><path d="m375 238 6 2v11c-6-8-6-8-6-13" fill="#0A0A08"/><path d="m400 216 5 1 1 3h-2v2h2v3h-2c-4-5.29-4-5.29-4-9" fill="#EADF86"/><path d="M779 631c1.08 2.8.96 4.19.31 7.19L778 641c-2.08.68-2.08.68-4 1l1.38-4.94.77-2.77C777 632 777 632 779 631" fill="#E4E3E4"/><path d="M413 452c1.19 1.62 1.19 1.62 2 4-1.25 2.94-1.25 2.94-3 6q-1.04 2.49-2 5l-2-1a182 182 0 0 1 5-14" fill="#1E1F21"/><path d="M392 129h1a48 48 0 0 1-2 16h-1c-.91-5.54-1.38-9.72 1-15z" fill="#DFDFE2"/><path d="M628 487v7l-2-2v-3l-1.81.56C622 490 622 490 619 489v-2c3.07-1.53 5.7-.55 9 0" fill="#E8EBE9"/><path d="M504 213h1l1 17h-2v2l-2-1z" fill="#C0AC50"/><path d="M420 52c4.75.75 4.75.75 7 3v4c-2.87-.57-3.86-.86-6-3-.62-2.12-.62-2.12-1-4" fill="#0B090B"/><path d="M516 238h2c-1.56 3.84-3.87 6.31-7 9-2.81.81-2.81.81-5 1v-2h4l1-4h3v-2h2z" fill="#D7C76C"/><path d="M450 231c4.88 1.88 4.88 1.88 6 3q.06 3 0 6h-3l-1-7h-2z" fill="#757A77"/><path d="M404 60h4l-1.31 4.81-.74 2.71A11.6 11.6 0 0 1 402 73c.52-4.38 1.06-8.69 2-13" fill="#222424"/><path d="M996 606c-3.91 3.55-6.98 4.82-12 6 1-3 1-3 3.75-4.69 3.1-1.25 4.97-1.6 8.25-1.31" fill="#E8E8EC"/><path d="M848 593c3.45 1.15 4.38 2.32 6.69 5.06l1.88 2.23L858 602l-3 1a89 89 0 0 1-4-4v-2l-3-1z" fill="#DFDFE1"/><path d="M831 565h2c3.25 3.52 5.56 7.15 6 12-3-1-3-1-4.56-3.75A175 175 0 0 1 831 565" fill="#E3E4E5"/><path d="M480 478c1.56 1.19 1.56 1.19 3 3-.31 2.69-.31 2.69-1 5l-5-1c.75-4.75.75-4.75 3-7" fill="#F2F4F6"/><path d="m406 222 1.25 1.38c4.14 3.84 8.3 4.08 13.75 4.62v1c-6.2.38-10.45-.16-16-3z" fill="#C5B66B"/><path d="M511 202c5.88 3.75 5.88 3.75 7 6h-4v2h-2v-2l-2-1z" fill="#D7C35C"/><path d="M444 198h2v8h-3l-1 5h-1l.38-4.25.21-2.39A19 19 0 0 1 444 198" fill="#0B1007"/><path d="M541 108h3c-1.16 3.49-2.14 4.1-5.06 6.19l-2.23 1.6L535 117l-3-2c2.67-1.66 5-3 8-4z" fill="#E4E4E7"/><path d="M468 577h10l-1 3h-8z" fill="#F4F4F7"/><path d="M881 564c3.21 1.38 5.05 2.92 7.25 5.62l1.58 1.92L891 573c-3 0-3 0-4.82-1.46l-1.87-1.92-1.88-1.89C881 566 881 566 881 564" fill="#D4D4D6"/><path d="m577 488 2 1-1 4-8 1a41 41 0 0 1 7-6" fill="#E4E5E4"/><path d="M413 448h2c-.71 3.67-2.28 6.7-4 10l-3-1a77 77 0 0 1 5-9" fill="#E8E8EC"/><path d="M515 242h1v6l-6 2-2-3 2.38-1.38C513 244 513 244 515 242" fill="#241B11"/><path d="M402 552v2c-2.88.96-4.7 1.11-7.69 1.06l-2.45-.02L390 555l-1-2 4.25-.5 2.39-.28C398 552 398 552 402 552" fill="#E9ECED"/><path d="M502 465c-1.38 3.21-2.92 5.05-5.62 7.25l-1.92 1.58L493 475c.58-3.29 1.55-4.94 3.94-7.25l1.59-1.58C500 465 500 465 502 465" fill="#CBCED0"/><path d="M424 200h2c-.48 5-2.03 7.98-5 12l-1-4h2l.44-2.31C423 203 423 203 424 200" fill="#21190A"/><path d="M588 151h1q.08 2.88.12 5.75l.08 3.23c-.2 2.94-.67 4.54-2.2 7.02-1.72-5.15-.14-10.78 1-16" fill="#1D1B1A"/><path d="m405 74 2 1v4c-2 1.75-2 1.75-4 3l-2-1v-5c1.88-1.06 1.88-1.06 4-2" fill="#1C1F1E"/><path d="M950 577v2l-4.38 1.5-2.46.84C941 582 941 582 939 582c.56-1.94.56-1.94 2-4 3.06-.66 5.87-1 9-1" fill="#EBEAEF"/><path d="M807 349c1.88.25 1.88.25 4 1 1.38 2.15 2 3.44 2 6l-1 3c-2.64-3.13-3.84-6.09-5-10" fill="#BBBCBE"/><path d="M712 274c3.4 1.06 6.01 2.01 9 4v2a26 26 0 0 1-9-3z" fill="#ECECEE"/><path d="m423 208 1 4h-2v2l-3 1-2 3-4-1 1.93-1.46 2.51-1.92 2.49-1.89C422 210 422 210 423 208" fill="#C6B76D"/><path d="M569 90c0 3 0 3-2 6-3.62.69-3.62.69-7 1a35 35 0 0 1 9-7" fill="#242527"/><path d="m713.19 635.38 1.8.62c-1.3 2.62-2.35 2.68-5.05 3.63l-2.22.78-1.72.59c1.5-3.46 2.9-6.36 7.19-5.62" fill="#0B0B0B"/><path d="M958 621v2l-9 3-1-3c3.62-1.32 6.1-2 10-2" fill="#EAEDEB"/><path d="M882 619c5.75.88 5.75.88 8 2l-1 3-7-2z" fill="#F0EFF1"/><path d="M843 584c2.4 2.88 4.47 5.56 6 9l-2 2c-2.83-3.8-4.57-6.19-4-11" fill="#E6E6E8"/><path d="m462 510 2 1c-1.35 4.42-3.26 6.34-7 9 0-4.36 1.97-6.97 5-10" fill="#090C0D"/><path d="m463 482 2 1c-1.67 3.94-4.23 6.79-7 10l-2-2 2.38-2.25c2.19-2.29 3.45-3.87 4.62-6.75" fill="#F2F2F5"/><path d="m437 216 1 4h-2l-1 5h-5l1.28-1.46 1.66-1.92 1.65-1.89C436 218 436 218 437 216" fill="#21190B"/><path d="m789 570 4 2c-.31 2.88-.31 2.88-1 6l-3 2z" fill="#D1D1D4"/><path d="m385 499 3 1-7 7-1-4c2.31-2.06 2.31-2.06 5-4" fill="#DADFDE"/><path d="M430 357a26 26 0 0 1 3 9l-4-1c-.93-2.61-1.15-3.64-.06-6.25z" fill="#D5D5D7"/><path d="M781 318c3.37 1.44 5.51 3.33 8 6l-1 3-3.5-3.38-1.97-1.89C781 320 781 320 781 318" fill="#CDCDCE"/><path d="m386 155 2 3-1 3 2 1h-2l-1 3h-2z" fill="#252827"/><path d="m355 663 2 1-2.44 2.31C352 669 352 669 351 672h-2c.31-3.67.76-4.78 3.56-7.31z" fill="#CFD1D0"/><path d="m1014 588 2 1c-2.87 3.98-5.82 6.44-10 9 1.65-4.29 4.74-6.88 8-10" fill="#ECECEF"/><path d="M790 579c2.14 3.21 2.48 4.28 2 8l-3 2-.06-4.44-.04-2.49c.1-2.07.1-2.07 1.1-3.07" fill="#F3F3F7"/><path d="m409 547 1 3c-2.75 1.62-2.75 1.62-6 3l-4-2z" fill="#D3D5D4"/><path d="m461 507 3 1-6 7-1-3c1.94-2.69 1.94-2.69 4-5" fill="#C8CDCF"/><path d="M433 406h3c-.25 2.38-.25 2.38-1 5-2.06 1.31-2.06 1.31-4 2 .88-4.75.88-4.75 2-7" fill="#1E1E21"/><path d="m424 312-1 12h-1c-1.67-5.26-1.67-5.26-2-8 2.1-4 2.1-4 4-4" fill="#F6F6FA"/><path d="M592 228c3.69.5 5.6 1.1 8 4l-4-1v2h-3z" fill="#0C0D0B"/><path d="M498 198h5l-1 6-4-2z" fill="#E6D052"/><path d="M380 168h2l-1 9c-1.62-1.69-1.62-1.69-3-4 .81-2.75.81-2.75 2-5" fill="#D9D9DC"/><path d="M585 166h2a316 316 0 0 1-.38 5.31l-.21 2.99C586 177 586 177 584 180l-.06-6.44-.04-3.62c.1-2.94.1-2.94 1.1-3.94" fill="#0D0B08"/><path d="m528 114 7 2v3a60 60 0 0 1-8-2z" fill="#BBBDBE"/><path d="m948 623-1 3-6 1v-2l-3-1c3.44-.62 6.49-1 10-1" fill="#D2D3D4"/><path d="M442 555c4 4.62 4 4.62 4 8l-5-3z" fill="#D5D5D6"/><path d="M448 521c1 3 1 3 .22 4.82L445 531l-2-1a29 29 0 0 1 5-9" fill="#E1E1E1"/><path d="M461 484c0 3.59-.66 4.11-3 6.69l-1.69 1.88L455 494l-3-1z" fill="#DDDEDE"/><path d="m819 479 1 2c-1.6 3.83-2.5 5.67-6 8 1.86-7.57 1.86-7.57 5-10" fill="#DBDEDB"/><path d="M667 256c5.75 1.75 5.75 1.75 8 4-4.18 1.39-6.13-.18-10-2z" fill="#DBDADD"/><path d="M401 222c3 1 3 1 5 4l3 2a154 154 0 0 1-9-2z" fill="#271A08"/><path d="M503 198c5.75 1.75 5.75 1.75 8 4a85 85 0 0 1-7-2v4h-2q-.06-2.5 0-5z" fill="#D6C163"/><path d="M394 198h2v10h-2l-.56-4.44-.32-2.49L393 199z" fill="#080B05"/><path d="M501 194h3l1 4-13-1v-1l6.15-.68C500 195 500 195 501 194" fill="#312C08"/><path d="m711 635-2 2c-3.04-.02-3.04-.02-6.62-.38l-3.61-.33L696 636v-1q2.9-.3 5.81-.56l3.27-.32C708 634 708 634 711 635" fill="#D5D5D3"/><path d="m983 610 1 3c-5.75 3-5.75 3-8 3 1-3 1-3 4.06-4.69z" fill="#DCDDDD"/><path d="M454 571c2.06.44 2.06.44 4 1l-1 4-4-1c0-3 0-3 1-4" fill="#F0F0F4"/><path d="M1020 565c2.4 1.88 3 2.99 3.81 6 .19 3 .19 3-1.81 6-1.14-4.27-2-7.56-2-12" fill="#EFEEF1"/><path d="M450 560h3l-1 7-3-2z" fill="#0C0C0E"/><path d="m874 541 2 1-1 9c-2-2-2-2-2.19-5 .19-3 .19-3 1.19-5" fill="#F0F2F3"/><path d="m511 539 4 2-5 5q-.06-3 0-6z" fill="#EFF2F3"/><path d="m802 519 1 2h2c-.25 1.88-.25 1.88-1 4-2.06 1.25-2.06 1.25-4 2z" fill="#DEE0DF"/><path d="m431 365 3 2c.19 2.62.19 2.62 0 5l-2 1q-1.09-2.97-2-6z" fill="#EAEAED"/><path d="M473 230h3v2h2l2 4c-3 0-3 0-5.19-1.88C473 232 473 232 473 230" fill="#2D250B"/><path d="m473 105 9 1-2 4h-4v-3h-3z" fill="#2D2D32"/><path d="M823 659c1.94.75 1.94.75 4 2a13 13 0 0 1 1 4l-4 2 .06-2.88C824 661 824 661 823 659" fill="#E1E1E0"/><path d="M876 616c4.75.75 4.75.75 7 3l-1 2-6-2z" fill="#E2E4E5"/><path d="M428 412h1v5h-2l-1 2-2-3 4-2z" fill="#F1F2F6"/><path d="m650.81 249.44 2.2 2.56-10-3v-1c3.87-1.44 4.56-1.37 7.8 1.44" fill="#DEDEDF"/><path d="M425 180h5l.88 1.94C432 184 432 184 434 185c-4.01 0-5.82-1.67-9-4z" fill="#29240A"/><path d="M493 106c1.81.05 1.81.05 4 .31l2.19.24 1.81.45 1 2c-6.62.25-6.62.25-10-2z" fill="#EFF0F3"/><path d="m404 70 3 2v2l-3 2c-1.19 2.12-1.19 2.12-2 4-.25-6.62-.25-6.62 2-10" fill="#090C0B"/><path d="m764 663 3 1-4 5-3-1z" fill="#B7B8B6"/><path d="M503 563c0 3 0 3-1.38 4.69C500 569 500 569 498 569c.25-1.88.25-1.88 1-4 2.06-1.25 2.06-1.25 4-2" fill="#E8E9EE"/><path d="M505 543h3l-1 8c-1.56-1.75-1.56-1.75-3-4 .31-2.25.31-2.25 1-4" fill="#23282A"/><path d="M480 488c0 3.15-.28 4.42-2 7-2.12.75-2.12.75-4 1 3.75-5.75 3.75-5.75 6-8" fill="#303232"/><path d="M822 466c2.15 2.62 3.4 4.64 4 8-3-1-3-1-5-4 .38-2.19.38-2.19 1-4" fill="#C6C6C6"/><path d="m427 417 2 1-3 9h-1c-.69-2.75-.69-2.75-1-6 1.44-2.38 1.44-2.38 3-4" fill="#D1D1D4"/><path d="M640 244q3.55 1.4 7 3v1l-9-1v-2z" fill="#ECEDEF"/><path d="M481 240h3v5l-2 1v-2h-2z" fill="#F1DA5C"/><path d="M512 110c2.81-.19 2.81-.19 6 0l3 3-9-1z" fill="#EFF1F4"/><path d="m476 102 4 1v3h-6v-2h2z" fill="#EDEDF0"/><path d="M459 88c3.37 1.39 4.99 2.98 7 6-3 0-3 0-5.19-1.88C459 90 459 90 459 88" fill="#D9D9DA"/><path d="m587 82 6 3-1 4a139 139 0 0 1-5-5z" fill="#DADADE"/><path d="m915 581-1 2-8-1c3.35-2.11 5.22-2.05 9-1" fill="#CACBCC"/><path d="m497 567 2 3c-3.75 3-3.75 3-6 3 1.15-2.47 2.05-4.05 4-6" fill="#E1E2E3"/><path d="M654 543c3.8 1.49 5.61 3.76 8 7-3.4-1.01-4.76-1.65-6.81-4.62z" fill="#EAE8EA"/><path d="M637 520c3 2 3 2 3.69 4.62L641 527c-1.94-.75-1.94-.75-4-2-.81-2.06-.81-2.06-1-4z" fill="#F3F1F4"/><path d="m511 451 3 1c-1.37 3.16-1.99 3.99-5 6a85 85 0 0 1 2-7" fill="#C6C8C9"/><path d="M421 430h3a37 37 0 0 1-4 8c-.93-2.61-1.15-3.64-.06-6.25z" fill="#D2D2D4"/><path d="m810 358 3 1c.69 2.06.69 2.06 1 4l-1.88-.56C810 362 810 362 808 363z" fill="#191B1A"/><path d="M752 298c3.38.25 3.38.25 7 1 1.44 2.06 1.44 2.06 2 4a29 29 0 0 1-9-5" fill="#C7C7C8"/><path d="m451 243-6 5v-2l-2-1c2.56-2.56 4.62-3.69 8-2" fill="#595D5C"/><path d="M475 241h5v3h2l1 3c-3.37-1.44-5.51-3.33-8-6" fill="#CCBC66"/><path d="M484 240h4v4l-4 1z" fill="#E9D14D"/><path d="m429 222 2 2c-6.75 4-6.75 4-9 4v-2h4v-2z" fill="#D9C85F"/><path d="M523 210h3l-1 5h-2l-1 2c-.62-1.81-.62-1.81-1-4z" fill="#2B2317"/><path d="M592 144h1l1 7-3 2c-.1-6.15-.1-6.15 0-8z" fill="#F6F4F5"/><path d="m396 113 2 4 2 1-1 4h-2z" fill="#252829"/><path d="m593 86 4 4-1 3h-2z" fill="#ECECEF"/><path d="M449 79c3.74 1.25 4.19 2.63 6 6-2.87-.57-3.86-.86-6-3z" fill="#1A1919"/><path d="m714 689 3 3-3 2-2-3z" fill="#F5F4FB"/><path d="m707 625 3 3-3 2-2-3z" fill="#EFEFEF"/><path d="m624 512 3 3-3 2-2-3z" fill="#F4F3F5"/><path d="m495 459 3 3-3 2-2-3z" fill="#F4F6FA"/></svg>