<svg style="background:transparent" version="1.1" xmlns="http://www.w3.org/2000/svg" viewBox="0 0 1248 704"><path d="M521.76 1.9c10.2 4.5 17.7 12.43 25.39 20.3a58 58 0 0 0 6.04 5.05A159 159 0 0 1 568.99 41l2.5 1.94C574 45 574 45 576 48a112 112 0 0 0 5.16 2.84C583 52 583 52 584.64 54.04c3.2 2.66 6 2.55 10 2.54l2.32.04q3.79.05 7.58.05l5.29.04q5.55.04 11.1.03 7.1 0 14.17.12 5.46.07 10.93.05l5.22.06c9.73.16 16.53.14 23.93-6.98L677 48l2.88-2.8L682 43c3.62-3 3.62-3 6-3l.69-1.88c1.7-2.75 3.37-2.94 6.3-4.12 1.14-1.94 1.14-1.94 2-4a19 19 0 0 1 5.45-4.44C705 24 705 24 707.19 21.81l1.8-1.8h2l.7-1.76c1.68-2.87 3.66-4.24 6.3-6.25l3.32-3c5.32-4.54 11.18-7.78 18.26-8.29 6.52.78 12.5 4.9 16.93 9.6 3.79 5 5.85 10.01 5.03 16.3-.87 7.4-.64 14.85-.61 22.3v5.11l.04 10.97q.03 8.69.03 17.36l.1 49.35.06 27.3a9919 9919 0 0 0 .08 32.94l.02 10.63c-.25 3.48-1.06 6.17-2.25 9.43l-.25 3.2c-1.53 7.77-5.81 14.6-11.75 19.8l-3.5 3.5-1.81 1.81q-2.09 2.1-4.13 4.2c-9.82 9.58-9.82 9.58-15.56 11.5-2.76 5.51-.64 12.38 1 18l.88 3.36c2.57 8.28 6.18 15.93 10.12 23.63 8.22 16.21 8.22 16.21 11.14 23q.91 2.12 1.88 4.22A137 137 0 0 1 753 344l1.56 4.7a742 742 0 0 1 2.5 7.55c.94 2.75.94 2.75 2 5.2 1.16 3.14 1.47 6.23 1.94 9.55l1.06 2.56c1.14 2.95.94 5.3.94 8.44l1 3.5c.97 3.4 1.08 6 1 9.5l1 3q.1 2 .06 4l-.02 2.06L766 406c0 3 0 3 1 5q.14 3.15.13 6.31v3.43A45 45 0 0 1 766 429a96 96 0 0 0-.94 13.94C765 446 765 446 763 449c-.41 2.04-.41 2.04-.62 4.2L762 457l1.55-.66c7.63-2.92 15.84-3.86 23.7-1.15q1.9.84 3.75 1.81l1.99 1a38.6 38.6 0 0 1 18 22.06q.53 1.97 1 3.94c.14.47.14.47.77 2.84 3.27 13.02 3.7 25.3 1.74 38.53-.76 5.52-1.11 11.07-1.5 16.63 3.46-1.07 6.44-2.02 9.3-4.25q4.04-3 8.2-5.8c.35-.25.35-.25 2.1-1.42 2.48-1.58 5.02-3.02 7.57-4.47 2.37-1.37 4.67-2.84 6.97-4.3a532 532 0 0 1 22.74-13.64l2.88-1.65C887.83 497.94 905.59 492 923 492l2.94-.5c6.66-1.09 11.67-.52 18.06 1.5l2.58.55c11.79 2.56 24.46 7.71 33.42 15.95 2.23 2 4.17 3.6 6.75 5.12 2.8 1.72 4.39 3.7 6.25 6.38v2l1.82.72c6.92 4.05 11.76 16.9 13.75 24.42 5.26 23.7.53 45.72-11.77 66.24A30 30 0 0 1 992 620l-1.25 1.44c-7.14 6.38-16.4 8.37-25.75 8.56-5.9-.93-9.36-4.5-13-9-2.4-3.62-4.16-6.47-3.7-10.88l.7-2.12-1-2c1.52-4.96 4.15-9.38 7.06-13.63 5.23-7.64 7.83-14.98 6.54-24.26-2-9.04-5.06-19.04-12.8-24.74-10.98-6.3-24.26-5-36.05-1.87C897.5 546 883.8 553.7 871 563l-1.75 1.27c-9.43 6.85-9.43 6.85-11.64 9.23-2.01 1.87-4.28 3.06-6.67 4.38-3.37 1.94-6.51 4.2-9.7 6.43-17.5 12.14-17.5 12.14-24.24 14.7l-3.2 1.43a93 93 0 0 1-11.25 3.8c-2.41.72-4.75 1.54-7.11 2.38a45 45 0 0 1-11.7 2.17C782 609 782 609 781 610l-3.16.18c-5.03 1.07-6.93 3.3-10.28 7.01l-3.4 3.57-1.64 1.71c-2.9 2.91-6.16 5.2-9.52 7.53l-2.87 2.37C748 634 748 634 746 634v2l1.75.3c4.2 1.31 7.07 4.76 10.25 7.7l2.3 1.81c3.42 4.42 4.46 10.05 5.08 15.5-.85 6.05-4.81 9.24-9.15 13.14-6.2 4.3-12.73 3.82-19.98 3.74h-3.13c-17.68-.1-17.68-.1-24.56-3.25-2.9-1.3-4.34-1.94-7.56-1.94l1.68 1.76c7.2 7.76 7.2 7.76 8.32 13.24l.58 2.38c1.16 5 1.35 8.53.42 13.62q-14.18.18-28.34.26-6.6.03-13.17.12-6.34.07-12.7.1-2.42 0-4.85.05-3.39.04-6.78.04l-3.91.03c-3.25-.6-3.25-.6-5.62-2.99-5.04-8.1-6.57-18.3-4.63-27.6l-.06-2.7c.07-2.62.83-4.02 2.06-6.3q-3.22-.06-6.44-.07l-3.62-.04c-2.94.1-2.94.1-3.94 1.1q-.14 2.25-.12 4.5l-.01 2.47C620 675 620 675 621 676c.48 6.37.03 11.92-2 18q-.8 3.59-1.53 7.18C617 703 617 703 616 704q-3.48.15-6.96.14l-2.21.01-7.26.02-5.03.01h-10.55q-6.76 0-13.54.04l-10.38.01-5 .01h-6.97l-2.1.02c-4.77-.03-4.77-.03-7-2.26-.9-8.37 2.14-16.19 7-23q2.44-2.56 5-5l3-3-2.16.8c-13.91 5.13-26.03 6.54-40.84 6.2l-3.05-.02c-6.85-.26-11.1-2.1-15.95-6.98-3.77-4.28-4-8.45-4-14 1.8-7.24 7.73-13.86 13-19 2.16-1.17 2.16-1.17 4-2l1-1-1.97-1.46-2.53-1.92c-.42-.3-.42-.3-2.53-1.89L497 628v-2l-1.81-.25c-2.82-.97-3.44-2.38-5.2-4.75l-2.31-1.37a36 36 0 0 1-7.12-5.88l-2.18-2.2a156 156 0 0 1-15.07-19.1c-.28-.43-.28-.43-1.72-2.5a91 91 0 0 1-7.6-12.95l-1.52-3-1.53-3-1.54-3a74 74 0 0 1-3.4-9l-1.56-3.94c-1.4-3.66-1.93-7.17-2.44-11.06l-1-2.88c-1.07-3.36-1.45-6.47-1.75-9.97A46 46 0 0 0 438 525c-1.5-9.37-.74-18.6 0-28l.22-3.1c.93-11.16 5.74-21.24 12.78-29.9q1.99-1.04 4-2 1.95-1.46 3.88-2.94c5.77-3.94 12.25-5.22 19.12-6.06l1 1c.46 0 .46 0 2.75-.06 3.29.06 5.3.68 8.25 2.06l-.4-1.69a139 139 0 0 1-2.6-15.3l-.56-2.45c-.52-3.07-.45-5.99-.4-9.1a72 72 0 0 0-.6-7.59c-.46-4.17-.1-7.7.56-11.87q.05-4.18-.06-8.35c.06-2.7.46-5.02 1.06-7.65l.72-3.38 1.56-7.25c.84-3.94 1.65-7.8 2.16-11.8A54 54 0 0 1 494 360l1.59-4.83 1.79-5.42.88-2.7c2.02-6.12 4.29-12.1 6.74-18.05l1.38-3.38a286 286 0 0 1 10.8-21.43 106 106 0 0 0 8.06-19.06c.76-2.13.76-2.13 2.39-5.26 1.58-3.3 1.95-6.26 2.37-9.87l1-1c.43-3.7.47-7.29 0-11-2-2.25-2-2.25-5-4q-1.87-1.56-3.7-3.19l-2.06-1.83L518 247l-2.42-2.1A330 330 0 0 1 508 238l-2.46-2.27c-6.7-6.7-9.23-13.7-11.54-22.73l-.52-1.88c-1.74-6.77-1.74-13.35-1.7-20.3v-3.94l.04-8.4.04-13.37q.01-10.6.05-21.2.07-18.9.1-37.8.01-6.6.05-13.23c.05-13.68.02-27.3-.83-40.97-.31-5.25-.38-10.47-.35-15.72l-.01-2.73c.02-13.5.02-13.5 4.13-19.46q.9-1.5 1.8-3.06c2.44-3.27 4.72-4.88 8.2-6.94l2.3-1.75c5-2.32 9.26-2.04 14.46-.36" fill="#161817"/><path d="M925.75 494.69h3.77c21.81.29 41.11 7.74 57.14 22.9 12.64 13 21.35 27.56 21.78 46.1-.33 18.5-4.12 36.3-15.44 51.3l-1.69 2.7a32.5 32.5 0 0 1-22.68 9.56c-4.64-.05-7.76-.51-11.63-3.25-4.18-4.4-5.14-7.87-5.25-13.81l-.08-2.46c.77-6.37 4.58-12.37 7.46-18.04l1.08-2.17L963 582c2.8-5.6 1.6-13.78.02-19.6-2.1-5.61-4.5-10.57-8.02-15.4v-2l-1.76-.84c-2.81-1.45-5.35-3.23-7.95-5.04-10.48-5.12-25.13-2.8-35.78.83q-2.76 1-5.51 2.05-1.22.45-2.48.94A99 99 0 0 0 895 546l-3.24 1.57c-10.75 5.36-20.17 12.26-29.76 19.43l-7.69 5.69-1.83 1.35a402 402 0 0 1-18.84 12.9l-4.28 2.8c-15.84 10.1-36.58 16.89-55.36 16.26l2.37-3.12L780 598l1.17-1.56c6.98-9.35 12.55-18.57 16.83-29.5l1.07-2.71 2.04-5.37c2.93-7.65 6.23-10.78 13.58-14.42 5.8-3 11.34-6.24 16.81-9.81l2.18-1.43q4.93-3.23 9.78-6.6c8.17-5.65 16.68-10.63 25.35-15.47l3.47-1.95c17.09-9.44 33.89-14.58 53.47-14.5" fill="#111312"/><path d="M521.76 1.9c10.2 4.5 17.7 12.43 25.39 20.3a58 58 0 0 0 6.04 5.05A159 159 0 0 1 568.99 41l2.5 1.94C574 45 574 45 576 48a112 112 0 0 0 5.16 2.84C583 52 583 52 584.64 54.04c3.2 2.66 6 2.55 10 2.54l2.32.04q3.79.05 7.58.05l5.29.04q5.55.04 11.1.03 7.1 0 14.17.12 5.46.07 10.93.05l5.22.06c9.73.16 16.53.14 23.93-6.98L677 48l2.88-2.8L682 43c3.62-3 3.62-3 6-3l.69-1.88c1.7-2.75 3.37-2.94 6.3-4.12 1.14-1.94 1.14-1.94 2-4a19 19 0 0 1 5.45-4.44C705 24 705 24 707.19 21.81l1.8-1.8h2l.7-1.76c1.68-2.87 3.66-4.24 6.3-6.25l3.32-3c5.32-4.54 11.18-7.78 18.26-8.29 6.52.78 12.5 4.9 16.93 9.6 3.79 5 5.85 10.01 5.03 16.3-.87 7.4-.64 14.85-.61 22.3v5.11l.04 10.97q.03 8.69.03 17.36l.1 49.35.06 27.3a9919 9919 0 0 0 .08 32.94l.02 10.63c-.25 3.48-1.06 6.17-2.25 9.43l-.25 3.2c-1.53 7.77-5.81 14.6-11.75 19.8l-3.5 3.5-1.81 1.81q-2.09 2.1-4.13 4.2c-9.82 9.58-9.82 9.58-15.56 11.5-2.76 5.51-.64 12.38 1 18l.88 3.36c2.57 8.28 6.18 15.93 10.12 23.63 8.22 16.21 8.22 16.21 11.14 23q.91 2.12 1.88 4.22A137 137 0 0 1 753 344l1.56 4.7a742 742 0 0 1 2.5 7.55c.94 2.75.94 2.75 2 5.2 1.16 3.14 1.47 6.23 1.94 9.55l1.06 2.56c1.14 2.95.94 5.3.94 8.44l1 3.5c.97 3.4 1.08 6 1 9.5l1 3q.1 2 .06 4l-.02 2.06L766 406c0 3 0 3 1 5q.14 3.15.13 6.31v3.43A45 45 0 0 1 766 429a96 96 0 0 0-.94 13.94C765 446 765 446 763 449c-.41 2.04-.41 2.04-.62 4.2L762 457l1.55-.66c7.63-2.92 15.84-3.86 23.7-1.15q1.9.84 3.75 1.81l1.99 1a38.6 38.6 0 0 1 18 22.06q.53 1.97 1 3.94c.14.47.14.47.77 2.84 3.27 13.02 3.7 25.3 1.74 38.53-.76 5.52-1.11 11.07-1.5 16.63 3.46-1.07 6.44-2.02 9.3-4.25q4.04-3 8.2-5.8c.35-.25.35-.25 2.1-1.42 2.48-1.58 5.02-3.02 7.57-4.47 2.37-1.37 4.67-2.84 6.97-4.3a532 532 0 0 1 22.74-13.64l2.88-1.65C887.83 497.94 905.59 492 923 492l2.94-.5c6.66-1.09 11.67-.52 18.06 1.5l2.58.55c11.79 2.56 24.46 7.71 33.42 15.95 2.23 2 4.17 3.6 6.75 5.12 2.8 1.72 4.39 3.7 6.25 6.38v2l1.82.72c6.92 4.05 11.76 16.9 13.75 24.42 5.26 23.7.53 45.72-11.77 66.24A30 30 0 0 1 992 620l-1.25 1.44c-7.14 6.38-16.4 8.37-25.75 8.56-5.9-.93-9.36-4.5-13-9-2.4-3.62-4.16-6.47-3.7-10.88l.7-2.12-1-2c1.52-4.96 4.15-9.38 7.06-13.63 5.23-7.64 7.83-14.98 6.54-24.26-2-9.04-5.06-19.04-12.8-24.74-10.98-6.3-24.26-5-36.05-1.87C897.5 546 883.8 553.7 871 563l-1.75 1.27c-9.43 6.85-9.43 6.85-11.64 9.23-2.01 1.87-4.28 3.06-6.67 4.38-3.37 1.94-6.51 4.2-9.7 6.43-17.5 12.14-17.5 12.14-24.24 14.7l-3.2 1.43a93 93 0 0 1-11.25 3.8c-2.41.72-4.75 1.54-7.11 2.38a45 45 0 0 1-11.7 2.17C782 609 782 609 781 610l-3.16.18c-5.03 1.07-6.93 3.3-10.28 7.01l-3.4 3.57-1.64 1.71c-2.9 2.91-6.16 5.2-9.52 7.53l-2.87 2.37C748 634 748 634 746 634v2l1.75.3c4.2 1.31 7.07 4.76 10.25 7.7l2.3 1.81c3.42 4.42 4.46 10.05 5.08 15.5-.85 6.05-4.81 9.24-9.15 13.14-6.2 4.3-12.73 3.82-19.98 3.74h-3.13c-17.68-.1-17.68-.1-24.56-3.25-2.9-1.3-4.34-1.94-7.56-1.94l1.68 1.76c7.2 7.76 7.2 7.76 8.32 13.24l.58 2.38c1.12 4.85 1.72 8.7.42 13.62l-4-1 .18-2.75c.34-9.22-.5-15.08-6.75-21.99-4.27-4-9.02-6.1-14.43-8.26v-9l2.09 1.17c14.68 8.14 27.59 12.38 44.6 12.2l3.47.04c6.89-.02 13.56-.32 19.84-3.4 3.78-4.2 3.57-8.59 3.4-14-.92-6.86-5.24-11.52-10.48-15.76-3.14-2.05-6.35-3.12-9.92-4.25v-2c1.8-1.4 1.8-1.4 4.3-3.06 7.59-5.18 14.68-10.44 20.47-17.6 7.39-8.7 16.14-9.55 27-11.28 24.75-3.94 45.6-18.64 65.12-33.48 24.62-18.66 49.73-35.85 81.8-33.37 7.27 1.18 13.59 5.36 18.14 11.1A70 70 0 0 1 961 555l1.25 2.58c3.28 7.73 4.9 16.41 2 24.51-2.51 5.8-5.6 11.27-8.95 16.61-3.24 5.7-3.14 12.84-1.61 19.1 2.37 3.94 4.92 6.73 9.3 8.2 9.83 1 17.88-1.49 26-7 6.17-6.8 9.9-14.46 13-23l.9-2.24c6.44-16.97 6.38-37.18-.9-53.77-10.05-20.25-27.13-33.24-48-41.14-9.18-2.87-18.1-3.07-27.68-3.1l-3.64-.07A75 75 0 0 0 900 499l-3.83.93c-20.4 5.64-39.82 18.14-56.92 30.44C814.65 548 814.65 548 807 548c.46-3.48.98-6.89 1.76-10.3 4.6-20.99 5.84-46.95-5.63-65.83-5.3-7.04-11.46-11.79-20.13-13.87-8.05-.8-14.64-.33-22 3h-3l.88-7.19.24-1.98c.4-3.26.82-6.49 1.39-9.73 1.5-8.66 1.8-17.15 1.74-25.9l-.01-2.15c-.05-10.15-.37-20.04-2.24-30.05l-.6-3.9c-4.45-26.27-14.76-52.79-27.55-76.03l-3.01-5.45c-6.8-12.65-12.38-27.12-10.84-41.62 1.8-2.8 1.8-2.8 5-5q2.54-1.8 5.06-3.63l2.9-2.07c13.89-10.48 23.55-22.62 26.04-40.3.3-6.03.29-12.06.28-18.09v-5.5q.04-7.45.02-14.89V155.1q.03-14.67.02-29.34-.02-15.12.03-30.24l.02-26V54q.03-7.29 0-14.58l.02-5.35-.01-7.3.02-2.13c-.07-6.05-1.86-9.9-5.84-14.38-5.21-4.58-9.5-4.77-16.33-4.6-4.93.54-7.5 2.2-11.23 5.35l-1.52 1.25a534 534 0 0 0-20.83 18.4c-3.53 3.14-7.21 6.1-10.9 9.06a245 245 0 0 0-10.85 9.73L677 52l-1.6 1.74c-7.44 7.18-16.37 6.33-26.05 6.3l-5.46.04q-5.72.03-11.42 0-7.29-.03-14.57.1-5.63.06-11.27.04-2.7 0-5.37.05c-9.04.14-15.68.21-22.6-6.07A466 466 0 0 1 574 49a171 171 0 0 0-5.5-4.5c-4.76-3.84-9.26-7.9-13.75-12.04-3.53-3.17-7.22-6.12-10.92-9.09-2.58-2.16-5.02-4.4-7.46-6.72-7.02-6.63-11.97-10.72-21.87-11.28-5.41.2-8.65 1.21-12.81 4.63-4.58 5.42-6.3 9.86-6.18 16.92l-.02 2.32q-.01 3.83.03 7.67l-.02 5.51q0 7.49.03 14.96.01 7.83 0 15.66l.06 26.32q.04 15.18.04 30.38a17477 17477 0 0 0 .07 56.37v5.36c0 19.3 3.8 33.61 17.3 47.9 4.9 4.83 10.4 8.68 16.06 12.56C532 254 532 254 534 256c.3 3.12.3 3.12.3 7l.07 3.81c-.41 8.36-4.03 16.3-7.31 23.88l-1.16 2.73a258 258 0 0 1-9.84 19.7c-10.24 19.1-17.18 39.81-22.06 60.88l-.63 2.63c-6.41 27.5-4.13 55.82.63 83.37-6.5-.89-6.5-.89-9.52-1.54-11.88-2.2-19.98.17-29.73 6.73-6 6.13-9.63 13.56-11.75 21.81l-.62 2.23c-4.02 17.4-1.22 35.64 2.62 52.77l.46 2.13c5.86 27.18 21.58 50.13 40.54 69.87l1.6 1.68c4.22 4.35 8.7 8.05 13.59 11.63q1.05.78 2.1 1.6a57 57 0 0 0 9.7 6.1v2l-1.93.65c-7.52 2.76-13.35 5.96-17.5 13.03-2.36 5.27-2.84 11.87-.81 17.33 2.47 3.92 6.95 4.85 11.25 5.98 4.35.5 8.63.47 13 .37h3.37a76 76 0 0 0 27.82-5.25l2-.73a63 63 0 0 0 9.68-4.59C563 662 563 662 565 662v8l-2.23 1.17c-8.55 4.57-15.42 8.28-18.77 17.83-.68 5.01-.92 9.94-1 15l-4-2c-.63-8.49 2.04-16.06 7-23q2.44-2.56 5-5l3-3-2.16.8c-13.91 5.13-26.03 6.54-40.84 6.2l-3.05-.02c-6.85-.26-11.1-2.1-15.95-6.98-3.77-4.28-4-8.45-4-14 1.8-7.24 7.73-13.86 13-19 2.16-1.17 2.16-1.17 4-2l1-1-1.97-1.46-2.53-1.92c-.42-.3-.42-.3-2.53-1.89L497 628v-2l-1.81-.25c-2.82-.97-3.44-2.38-5.2-4.75l-2.31-1.37a36 36 0 0 1-7.12-5.88l-2.18-2.2a156 156 0 0 1-15.07-19.1c-.28-.43-.28-.43-1.72-2.5a91 91 0 0 1-7.6-12.95l-1.52-3-1.53-3-1.54-3a74 74 0 0 1-3.4-9l-1.56-3.94c-1.4-3.66-1.93-7.17-2.44-11.06l-1-2.88c-1.07-3.36-1.45-6.47-1.75-9.97A46 46 0 0 0 438 525c-1.5-9.37-.74-18.6 0-28l.22-3.1c.93-11.16 5.74-21.24 12.78-29.9q1.99-1.04 4-2 1.95-1.46 3.88-2.94c5.77-3.94 12.25-5.22 19.12-6.06l1 1c.46 0 .46 0 2.75-.06 3.29.06 5.3.68 8.25 2.06l-.4-1.69a139 139 0 0 1-2.6-15.3l-.56-2.45c-.52-3.07-.45-5.99-.4-9.1a72 72 0 0 0-.6-7.59c-.46-4.17-.1-7.7.56-11.87q.05-4.18-.06-8.35c.06-2.7.46-5.02 1.06-7.65l.72-3.38 1.56-7.25c.84-3.94 1.65-7.8 2.16-11.8A54 54 0 0 1 494 360l1.59-4.83 1.79-5.42.88-2.7c2.02-6.12 4.29-12.1 6.74-18.05l1.38-3.38a286 286 0 0 1 10.8-21.43 106 106 0 0 0 8.06-19.06c.76-2.13.76-2.13 2.39-5.26 1.58-3.3 1.95-6.26 2.37-9.87l1-1c.43-3.7.47-7.29 0-11-2-2.25-2-2.25-5-4q-1.87-1.56-3.7-3.19l-2.06-1.83L518 247l-2.42-2.1A330 330 0 0 1 508 238l-2.46-2.27c-6.7-6.7-9.23-13.7-11.54-22.73l-.52-1.88c-1.74-6.77-1.74-13.35-1.7-20.3v-3.94l.04-8.4.04-13.37q.01-10.6.05-21.2.07-18.9.1-37.8.01-6.6.05-13.23c.05-13.68.02-27.3-.83-40.97-.31-5.25-.38-10.47-.35-15.72l-.01-2.73c.02-13.5.02-13.5 4.13-19.46q.9-1.5 1.8-3.06c2.44-3.27 4.72-4.88 8.2-6.94l2.3-1.75c5-2.32 9.26-2.04 14.46-.36" fill="#E4E6E6"/><path d="M673 495c1.51 4.54-.03 7.75-2 12-4.02 6.12-9.05 13.17-16 16v2l-8.85 5.16C641.23 533 641.23 533 639 533l.18 1.92c1.68 18.66 2.17 37.18 2.14 55.91q-.01 4.6.02 9.21c.3 51.68.3 51.68-4.34 60.96h-22a404 404 0 0 1-4-49l-.03-1.98c-.42-25.73.59-51.33 2.03-77.02l-2.46-1.2-3.24-1.6-3.21-1.57c-3.98-2.1-7.85-4.47-11.09-7.63v-2l-1.71-.59c-3.22-1.98-4.94-4.81-6.98-7.91l-1.22-1.8c-3.17-4.71-4.21-7.01-4.09-12.7l1.88 1.94L584 501l2.03 2.02a88 88 0 0 0 15.59 11.86l1.85 1.11c7.12 4.16 13.54 6.57 21.84 6.45l2.25-.03A39 39 0 0 0 645 518l2.95-1.47A78 78 0 0 0 673 495" fill="#000"/><path d="m567.81 140.13 3-.13c4.16.01 7.04.1 10.37 2.72 5.24 5.87 8.47 11.88 8.17 19.88-1.29 8.78-5.5 15.22-12.23 20.78-5.8 3.02-12.83 2.4-19.12 1.63-6.6-2.3-11.75-7.86-15.04-13.92a25.3 25.3 0 0 1-.46-19.65L544 148l-2-1v-2h2v2l1.81-1.31c7.26-4.47 13.58-5.4 22-5.56" fill="#111412"/><path d="M739 470h2c1.01 36.42-5.89 72.16-19.24 106.04-1.61 4.14-3.13 8.31-4.67 12.47a187 187 0 0 1-3.65 9.09c-2.26 5.33-3.79 10.85-5.44 16.4l-1.23 3.92c-4.66 15.06-7.6 30.47-9.77 46.08-1.8.62-1.8.62-4 1-3.25-1.94-3.25-1.94-6-4 .56-23.94 9.39-48.51 18.24-70.51 2.29-5.74 4.28-11.57 6.28-17.42a195 195 0 0 1 4.46-11.88c2.35-5.79 3.96-11.73 5.58-17.75 3.29-12.11 3.29-12.11 4.9-16.84 3.79-11.14 6.49-22.43 8.73-33.98l.78-3.94A207 207 0 0 0 739 470" fill="#000100"/><path d="M512 471a28 28 0 0 1 3.08 8.98l.57 2.99.6 3.22c3.8 19.55 8.31 38.61 14.92 57.41q1.54 4.47 3 8.99 3.28 10 6.9 19.9C556.9 616 556.9 616 561.62 636.25l.72 3.04c1.54 7.02 3.14 14.51 2.66 21.71-1.96 2.6-3.86 4.09-7 5l-3-1-.33-3.59c-1.51-15.66-4.01-30.25-9.21-45.11a154 154 0 0 1-3.34-11.18c-2.94-10.58-7.34-20.76-11.73-30.82-5.12-12.04-8.17-24.64-11.39-37.3l-.82-3.1a160 160 0 0 1-3.8-19.52l-.37-2.62a515 515 0 0 1-1.32-10.21c-.74-6.57-.81-13.07-.75-19.67l.01-3.19z" fill="#000101"/><path d="M581 142c7.33 1.12 12.95 5.25 17.44 11.06 4.77 6.66 5.38 12.91 4.56 20.94-2.36 8.69-7.84 14.81-15.06 19.94-8.96 4.92-20.37 5.12-30.16 2.46-8.44-3.05-14.7-7.81-19.01-15.64A32.7 32.7 0 0 1 536 161c1.82-4.78 3.72-8.14 8-11l-1 2.44c-2.03 7.24-1.41 13.3 1.59 20.19 3 5.05 7.91 9.26 13.41 11.37 6.89.83 14.01 1.28 20.12-2.44 5.88-4.66 9.15-11.2 10.15-18.57.33-6.73-1.99-11.24-5.27-16.99z" fill="#EDC851"/><path d="M683 139c8.22-1.13 14.34 2.36 21 7a46 46 0 0 1 7 9l1.15 1.86c2.53 6.4 1.61 15.05-.59 21.45a38 38 0 0 1-18.3 17.87c-11.34 2.85-23.72 2.51-33.88-3.48L657 191l-2.61-1.86c-4.96-4.44-7.82-10.72-8.91-17.24-.24-6.75.95-13.09 4.52-18.9 2.14-1.78 2.14-1.78 4-3l-.66 1.69c-2.37 6.51-3.73 11.72-1.17 18.34 3.22 6.85 6.32 11.96 13.71 14.72 7.96 2.68 14.71.78 22.12-2.75a94 94 0 0 0 3-3h2l.88-2.25c1.12-2.75 1.12-2.75 2.16-4.47 2.44-5.81 1.89-14.07.16-20.05-2.64-5.33-6.34-8.16-11.41-11.14L683 140z" fill="#EBC657"/><path d="M753 7a25 25 0 0 1 9 16l-.47 3.61c-.87 7.4-.64 14.85-.61 22.29l.01 5.12q0 5.49.03 10.97l.14 66.71.05 27.29q0 8.63.04 17.25l.02 10.73.01 4.97q.03 3.4.01 6.79l.01 3.84c-.24 3.48-1.05 6.17-2.24 9.43l-.25 3.19c-1.53 7.78-5.81 14.6-11.75 19.81l-3.5 3.5-1.82 1.81-4.12 4.19c-9.83 9.59-9.83 9.59-15.56 11.5-2.76 5.52-.64 12.39 1 18l.88 3.38c2.56 8.27 6.17 15.93 10.12 23.62 8.21 16.21 8.21 16.21 11.14 23q.92 2.12 1.88 4.22A137 137 0 0 1 753 344l1.56 4.69 2.5 7.56c.94 2.75.94 2.75 2 5.19 1.16 3.15 1.47 6.24 1.94 9.56l1.06 2.56c1.14 2.95.94 5.29.94 8.44l1 3.5c.97 3.39 1.08 6 1 9.5l1 3q.1 2 .06 4l-.02 2.06L766 406c0 3 0 3 1 5q.14 3.16.12 6.31l.01 3.43A43 43 0 0 1 766 429l-.44 2.75L765 434l-2 1-.06-2.96-.26-11.11-.1-4.77A253 253 0 0 0 760 384l-.34-2.45c-4.06-26.69-14.87-53.97-27.81-77.48l-2.04-3.69-.97-1.76C722.05 285.97 716.46 271.5 718 257c1.81-2.81 1.81-2.81 5-5l5.06-3.62 2.89-2.08c13.9-10.48 23.56-22.62 26.05-40.3.3-6.03.28-12.06.27-18.09l.02-5.5.01-14.89.01-12.43.01-29.33q-.01-15.13.02-30.25.03-13 .02-26l.02-15.52V34.06q.02-3.65-.01-7.3l.03-2.13c-.07-5.96-1.87-9.8-5.65-14.32C746.31 5.74 740.86 4.6 734 4c1-2 1-2 2.81-2.69C742.55.49 748.27 4.11 753 7" fill="#E9ECEA"/><path d="M816 546c.51 7.74-1.18 13.46-4 20.62l-1.23 3.19a164 164 0 0 1-13.37 26.77c-1.4 2.42-1.4 2.42-2.27 5.15-1.13 2.27-1.13 2.27-3.42 3.2l-2.77.38-2.96.42c-4.03.37-7.94.4-11.98.27l2.38-3.12L780 598l1.17-1.56c6.98-9.35 12.55-18.57 16.83-29.49l1.07-2.72q1.03-2.68 2.04-5.38c2.05-5.35 3.89-8.98 8.89-12.1 2-.75 2-.75 6-.75" fill="#010101"/><path d="M753 7a25 25 0 0 1 9 16l-.47 3.6c-.87 7.42-.64 14.9-.6 22.36l.02 5.14.04 11.01.04 17.41q.06 24.75.14 49.48.06 13.68.07 27.37l.06 17.31q.03 5.37.02 10.74l.02 5q.03 3.4.01 6.79l.02 3.85L761 206l-3 2-.01-2.93q-.09-35.35-.23-70.69l-.11-34.18q-.03-14.9-.1-29.79l-.05-15.77q0-7.42-.05-14.85l-.02-5.45q0-3.72-.03-7.44l.01-2.18c-.08-6-1.85-9.86-5.66-14.41C746.31 5.74 740.86 4.6 734 4c1-2 1-2 2.81-2.69C742.55.49 748.27 4.11 753 7" fill="#E8EAEA"/><path d="M634.13 185.63c2.88 2.38 2.88 2.38 4.19 5.19-.46 4.56-2.87 7.24-6.32 10.19h-2l-.37 3.37C629 208 629 208 627 210c-3.12.33-5.16.5-7.88-1.13-1.6-2.66-1.34-4.84-1.12-7.87l-1.76-.7c-2.92-1.7-4.45-3.44-6.25-6.3 0-3.34.73-4.66 2.82-7.26 5.47-4.38 15.18-4.18 21.3-1.12" fill="#656867"/><path d="m543 150 1 2-2 4c-1.13 6.78.52 13.15 4 19 4.32 4.8 8.84 8.62 15.36 9.41 7.28.17 12.94.1 18.9-4.61 2.62-2.71 4.17-5.38 5.74-8.8l2 3h-2v4h-2v2h-2v2h-3l-2 5-21-1v2h5l-1 2h-4v4h29c-6.99 5.24-16.55 4.12-25 3-7.24-1.89-14.47-5.93-18.89-12.07-4.43-7.71-6.54-14.99-5.11-23.93a31 31 0 0 1 7-11" fill="#E5BE51"/><path d="M616 662h20l-.11 5.81-.08 7.63-.07 3.82c-.08 9.4.91 16.85 6.26 24.74-2.65-.37-3.78-.76-5.62-2.75-4.88-7.98-6.27-18.17-4.38-27.25l-.06-2.69c.07-2.62.83-4.02 2.06-6.31l-6.44-.06-3.62-.04c-2.94.1-2.94.1-3.94 1.1q-.14 2.25-.12 4.5l-.01 2.47C620 675 620 675 621 676c.47 6.37.03 11.92-2 18a436 436 0 0 0-1.54 7.18C617 703 617 703 616 704q-2.5.06-5 0l.84-2.05 1.1-2.7 1.09-2.67c1.7-4.52 2.09-8.24 2.07-13.1l-.01-3.78-.03-3.95-.01-3.99z" fill="#F2F5F2"/><path d="M952.7 542.9c3.84 3.51 6.1 7.43 8.3 12.1l1.25 2.6A41 41 0 0 1 965 580c-1.52 1.91-1.52 1.91-3 3l.1-2.2c.34-12.15-2.2-23.6-9.1-33.8-6.6-6.63-14.76-7.74-23.75-8.19-16.14.93-32.55 7.18-46.06 16.03-2.65 1.4-3.42 1.01-6.2.16l7.5-4.25 2.12-1.2c8.25-4.66 16.4-8.54 25.39-11.55l3.69-1.25c12.59-2.9 26.62-1.66 37.02 6.14" fill="#D8DADA"/><path d="M494 86h1v123l-3-2c-.36-2.12-.36-2.12-.33-4.79l.01-3.06.06-3.38.02-3.54q.03-4.81.1-9.63l.1-10.07q.08-8.44.19-16.9.13-10.85.22-21.71l.19-18.64.06-6.01.13-11.17.03-3.38.04-3.06.03-2.67C493 87 493 87 494 86" fill="#EDEFEE"/><path d="M758 92h1c1.1 9.04 1.22 18.03 1.32 27.12l.06 5.02.12 10.51.16 13.23q.17 12.62.27 25.23.08 7.56.2 15.12l.08 7.15.08 3.24.02 2.9.04 2.5L761 206l-3 2z" fill="#F1F4F3"/><path d="m754 354 3 1c.56 1.75.56 1.75 1 4l1 2.31c1.19 3.21 1.52 6.31 2 9.69l1.06 2.56c1.14 2.95.94 5.29.94 8.44l1 3.5c.97 3.39 1.08 6 1 9.5l1 3q.1 2 .06 4l-.02 2.06L766 406c0 3 0 3 1 5q.14 3.16.12 6.31l.01 3.43A43 43 0 0 1 766 429l-.44 2.75L765 434l-2 1-.06-2.96-.26-11.11-.1-4.77c-.29-14.29-1.46-28.23-4.58-42.22l-.5-2.35c-.76-3.52-1.6-6.94-2.62-10.4C754 358 754 358 754 354" fill="#E9ECE9"/><path d="M495 207h1l.69 3.81c4.18 18.62 17.23 30.72 32.37 41.12C532 254 532 254 534 256c.84 8.69.23 16.84-3 25l-2-1 .44-4.94.24-2.77C530 270 530 270 531 269c.43-3.71.47-7.29 0-11-2-2.25-2-2.25-5-4q-1.87-1.56-3.69-3.19l-2.08-1.83L518 247l-2.42-2.1A330 330 0 0 1 508 238l-2.46-2.27c-6.58-6.59-9.78-13.62-11.54-22.73.38-3.45.38-3.45 1-6" fill="#E5E7E8"/><path d="M742 4v1l-1.91.04c-15.68.88-27.47 15.52-38.45 25.6-3.52 3.15-7.2 6.1-10.88 9.07-2.9 2.41-5.68 4.92-8.45 7.48A129 129 0 0 1 669 58l-2-2 2.01-1.57C673.6 50.8 677.93 47.19 682 43c3.62-3 3.62-3 6-3l.69-1.88c1.7-2.75 3.36-2.94 6.31-4.12 1.12-1.94 1.12-1.94 2-4a19 19 0 0 1 5.44-4.44C705 24 705 24 707.19 21.81L709 20h2l.69-1.75c1.67-2.87 3.65-4.24 6.31-6.25l3.38-3q1.79-1.52 3.62-3l1.65-1.34C731.93.98 736.26 2.29 742 4" fill="#E2E4E6"/><path d="m761 657 2 2 2-1c.33 4.73-.07 7.24-3 11-6.01 6.11-10.74 9.04-19.48 9.23q-3.13 0-6.27-.04h-3.13c-17.95-.11-17.95-.11-25.24-3.75l-2.83-1.38L703 672v-2l2.77.88c9.4 2.7 18.39 3.53 28.17 3.56l3.44.03c6.87-.07 13.27-.68 19.62-3.47 3.72-3.84 3.68-8.88 4-14" fill="#DBDEDB"/><path d="m767 615 2 1a101 101 0 0 1-14.18 12.68 98 98 0 0 0-4.7 3.7C748 634 748 634 746 634v2l1.75.29c4.2 1.32 7.07 4.77 10.25 7.71l2.31 1.88c2.63 3.31 3.94 6.97 4.69 11.12-.81 3.06-.81 3.06-2 5h-1l-.52-1.98c-2.4-8.65-5.95-14.91-13.48-20.02a63 63 0 0 0-8-3v-2c1.8-1.41 1.8-1.41 4.31-3.06 3.99-2.7 7.74-5.55 11.44-8.63 3.64-3.02 7.24-5.82 11.25-8.31" fill="#E7E9E8"/><path d="M961 581a17 17 0 0 1 2 4c-.58 1.86-.58 1.86-1.74 3.75l-1.23 2.09-1.34 2.16q-1.29 2.12-2.55 4.25l-1.17 1.89c-2.92 5.59-2.75 12.67-1.28 18.67 2.36 3.94 4.92 6.73 9.31 8.19 6.07.41 11.28.23 17-2h4l-1 3c-6.75 2.21-14.12 3.61-21.19 2.5A28.3 28.3 0 0 1 948 613c.31-2.88.31-2.88 1-5l-1-2c1.8-5.86 5.14-10.86 8.61-15.85A48 48 0 0 0 961 581" fill="#E3E4E6"/><path d="M581 144c4.58 4.08 7.38 7.92 8.32 14.1.39 7.41-2.15 14.38-6.63 20.28-5.74 5.6-9.19 6.88-17.19 7.12-6.05-.14-9.74-.79-14.5-4.5v-1h7v2q3.94-.13 7.88-.31l2.26-.07c1.96-.1 3.91-.35 5.86-.62l2-3c2.62-.19 2.62-.19 5 0l-1-4h2l.94-2.88C584 168 584 168 585 166h2l-.5-1.67a32 32 0 0 1-.56-7.58l.02-2.7.04-2.05h-2v-2h-2v-4l-2-1z" fill="#1F1809"/><path d="M581 142c7.33 1.12 12.95 5.25 17.44 11.06 3.57 4.98 4.82 9.11 4.68 15.25l-.05 3.24L603 174h-1l-1-8h-1l-1-7-3-1-1-3c-2.9 4.22-3.91 8.07-5 13h-1l-.04-2.27c-.36-7.73-2.09-13.08-5.96-19.73q-1.02-2-2-4" fill="#DCBE6E"/><path d="M757 206c1.62 1.44 1.62 1.44 3 4-.15 8.29-5.09 16.71-10.44 22.75L747 235l-3.5 3.5-1.82 1.81-4.12 4.19c-9.83 9.59-9.83 9.59-15.56 11.5l-1 2h-2v12h-1c-.78-11.79-.78-11.79 1.81-15.81L723 252l5.06-3.62 2.89-2.08c14.38-10.84 22.56-22.54 26.05-40.3" fill="#E0E3E2"/><path d="m931.13 490.94 3.32.03 2.55.03 1 3-2.2.14q-5.02.31-10.05.68l-3.46.2c-7.71.56-14.86 1.85-22.28 3.98l-2.31.65q-3 .86-5.96 1.79l-2.04.64a62 62 0 0 0-10.52 4.3l-3.17 1.62-3-1c14.14-9.65 32.92-15 50-15 2.75-1.38 5.03-1.1 8.12-1.06" fill="#EAEBEF"/><path d="m543 150 1 2q-.98 2-2 4c-1.23 7.21 1.25 13.43 4 20h-6v4h2l-1 4c-4.6-7.72-6.05-13.87-5-23a30 30 0 0 1 7-11" fill="#D9BD68"/><path d="M619 663q3.13-.08 6.25-.12l3.52-.08c3.14.19 4.55.73 7.23 2.2l-.05 2.15-.14 9.79-.07 3.38c-.08 8.96 1.17 16.17 6.26 23.68-2.65-.37-3.78-.76-5.62-2.75-4.88-7.98-6.27-18.17-4.38-27.25l-.06-2.69C632 669 632 669 634 665h-15z" fill="#E8EBEB"/><path d="M1007 572h1c2.25 7.65 1.87 12.83-.88 20.25l-.96 2.75c-3.19 8.73-7.16 18.63-14.16 25l-1.38 1.56c-2.02 1.8-4.08 2.55-6.62 3.44l-2-2 3-1.31c9.2-5.31 13.55-16.16 17-25.69l.9-2.23c2.65-6.99 3.27-14.39 4.1-21.77" fill="#DDDEE0"/><path d="M653 150c0 3 0 3-1 5.69-2.46 8.16-.44 13.82 3 21.31l-2 1a98 98 0 0 0-2 6c-4.63-5.68-5.44-10.66-5.32-17.85.63-6.18 2.63-11.94 7.32-16.15" fill="#DAC169"/><path d="M488 409h1l.08 3.79c.46 15.94 2.53 31.47 4.92 47.21-4.03-.56-8.02-1.16-12-2v-1l8-1-.4-1.69A139 139 0 0 1 487 439l-.55-2.36c-.51-3-.37-5.57-.11-8.6l.28-3.37.32-3.48.3-3.55z" fill="#D9DCDD"/><path d="M995 524c8.43 7.53 14.02 20.85 15 32q.22 5.25.25 10.5l.03 2.72-.01 2.56-.01 2.32c-.26 1.9-.26 1.9-2.26 3.9l-.01-1.77c-.22-17.8-2.26-31.79-12.51-46.66L994 527z" fill="#E8EAEC"/><path d="M936 536v1l-3.21.15-4.17.23-2.11.09c-5.28.3-5.28.3-7.51 2.53q-2.95.85-5.94 1.56a107 107 0 0 0-29.87 13.28c-2.65 1.4-3.42 1.01-6.19.16l7.5-4.25 2.11-1.2A143 143 0 0 1 912 538l3.69-1.25c6.53-1.57 13.64-.9 20.31-.75" fill="#D8D8DA"/><path d="M762 432c2.62 3.92 2.95 7.33 3 12-.88 2.56-.88 2.56-2 5-.46 2.66-.73 5.31-1 8l4 1c-2.92 1.95-4.63 2.45-8 3 1.17-9.7 2.45-19.36 4-29" fill="#F3F5F4"/><path d="M495 207h1l.69 3.81c2.07 9.21 6.31 16.98 12.31 24.19l1.49 1.82q1.74 2.1 3.51 4.18c-3 0-3 0-4.65-1.32a277 277 0 0 0-3.44-3.56L504 234l-2.55-2.77c-2.67-3.24-4.07-6.75-5.33-10.73l-.67-1.93c-1.38-4.22-1.52-7.27-.45-11.57" fill="#D8DADC"/><path d="M551 192h5v2h29c-5.09 3.82-8.05 3.48-14.19 3.44l-2.75.06c-6.52-.01-11.33-1.4-17.06-4.5z" fill="#E3C660"/><path d="M762 400h1v32c-2-1-2-1-2.62-2.72a44 44 0 0 1-.48-7.7l.01-3.11.03-3.22.01-3.27.05-7.98h2z" fill="#232524"/><path d="m931.5 536.56 2.94-.14c8.33-.13 13.13 2.57 19.22 8.08A92 92 0 0 1 957 548l-1 3-1.5-2.19c-6.52-7.33-14.08-9.3-23.65-9.96A21 21 0 0 0 923 540l-3-2c2.41-2.4 8.27-1.38 11.5-1.44" fill="#E0E2DF"/><path d="M488 389h2a3314 3314 0 0 1-1.44 28.12l-.18 3.33C488 423 488 423 486 425c-.78-5.95-.94-11.04 0-17q.05-4.18-.06-8.35c.09-3.8.86-7.06 2.06-10.65" fill="#ECEFF0"/><path d="m931.13 490.94 3.32.03 2.55.03 1 3-12.62 1-3.62.29-3.49.27-3.2.26c-3.04.18-6.04.2-9.07.18 1-2 1-2 4-3.12 3.73-1 7.25-1 11.09-.85 3.4-.05 6.38-1.13 10.03-1.1" fill="#F0F0F3"/><path d="M756 369h2q1.01 4.74 2 9.5l.58 2.69A64 64 0 0 1 762 397l-2-4h-2l-1-8.06-.29-2.28A95 95 0 0 1 756 369" fill="#272927"/><path d="m545 680 3 1-1.94 3.06c-3.15 6.17-2.88 13.16-3.06 19.94l-4-2c-.62-8.38 2.25-14.64 6-22" fill="#D2D3D5"/><path d="M695 140h4v2h3v2h4v2l3 1 1 5h2v4h2c1.1 3.41.94 6.21.56 9.75l-.31 2.98L714 171h-1l-.01-2.27c-.35-9.21-2.84-15.68-9.49-22.17A77 77 0 0 0 695 142z" fill="#1F1405"/><path d="M617 676h1l.18 2.48.26 3.27.24 3.23c.32 3.02.32 3.02.94 5.13.51 2.53-.11 4.05-1 6.45l-.83 2.32L617 701l-1 3h-5l.84-2.05 1.1-2.7 1.09-2.67c1.75-4.65 2.21-8.85 2.53-13.83l.26-3.83z" fill="#DCDFDF"/><path d="m703 670 2.98.84c11.68 3.11 22.96 3.92 35.02 4.16v1q-6.4.47-12.81.81l-3.63.27c-8.42.44-14.24-.86-21.56-5.08z" fill="#D1D3D1"/><path d="M764 407c3.18 3.42 3.36 5.84 3.25 10.44l-.05 3.37A50 50 0 0 1 766 429l-.44 2.75L765 434l-2 1c-.18-9.37.39-18.66 1-28" fill="#F2F4F4"/><path d="m948.5 493.69 2.05.49c3.19.84 5.16 1.5 7.42 3.97L959 500l-1.82-.58C946.35 496.3 935.2 495.8 924 495v-1l2.96-.18 3.85-.25q1.9-.14 3.83-.25c9.22-.87 9.22-.87 13.86.37" fill="#D5D5D8"/><path d="M928 495v2l-8.69 1.5-2.47.43c-8.72 1.49-8.72 1.49-11.84 1.07-1.81-1.5-1.81-1.5-3-3 8.67-2.33 17.1-2.2 26-2" fill="#313234"/><path d="m660 182 4.38-.12 2.46-.08c2.16.2 2.16.2 4.16 2.2 1.88.01 1.88.01 4-.31l2.12-.3C679 183 679 183 681 182q3.5-.06 7 0c-4.23 3.73-8.8 4.75-14.31 5.38-4.99-.51-9.14-2.33-13.69-4.38z" fill="#28200C"/><path d="m956 624 2.81 1a32.8 32.8 0 0 0 21.19-1h4l-1 3c-6.82 2.23-14.33 3.73-21.44 2.31-2.76-1.41-3.97-2.67-5.56-5.31" fill="#EEEEF1"/><path d="M683 139c6.5-.46 10.42.67 16 4v1h-5v2h2v4h2v5a62 62 0 0 1-4.69-6.94c-2.58-3.41-5.03-5.01-8.7-7.08L683 140z" fill="#BCA969"/><path d="M811 488h2c4.6 19.76 4.6 19.76 1 29h-1z" fill="#EDF0ED"/><path d="M758 18h2c2.18 3.97 1.84 6.78 1.29 11.16-.61 5.94-.67 11.93-.85 17.9l-.13 4.07L760 61h-1z" fill="#F1F1F2"/><path d="M694 144c4.5-.45 6.47-.37 10.25 2.25A44 44 0 0 1 710 153l-2 4v-3h-2v-4h-2v-2h-2v-2l-3 1 1 1q.06 3 0 6h-2v-4h-2v-4h-2z" fill="#E7BF56"/><path d="M634 678h1l.11 2.31c.56 8.77 1.89 16.3 6.89 23.69-2.65-.37-3.78-.76-5.62-2.75A30.5 30.5 0 0 1 632 689l1-2q.33-2.31.56-4.62l.26-2.48z" fill="#D8DADB"/><path d="M708 683c3.19 2.55 3.63 4.86 4.25 8.81l.52 3.08A31 31 0 0 1 712 704l-4-1 .04-2.89.02-3.8.04-3.76A48 48 0 0 0 707 684z" fill="#D3D5D3"/><path d="M812 502h1l.18 2.96.26 3.98.13 2.08c.23 3.66.59 7.24 1.18 10.86.61 4.78-.92 8.74-2.75 13.12l-2-1 .2-1.78c.7-6.61 1.09-13.2 1.36-19.84l.13-3.05z" fill="#D9DDDB"/><path d="M488 409h1l.08 1.84c.93 22.33.93 22.33 1.92 31.16l-1-3h-2c-1.87-3.92-2.16-6.65-1.76-10.96l.3-3.37.34-3.48.31-3.55z" fill="#CBCECE"/><path d="m750 675-1 3h-25v-2c17.86-1.15 17.86-1.15 26-1" fill="#EAEDEA"/><path d="M1007 572h1c2.76 8.25 1.76 15.16-2 23-2.15 1.88-2.15 1.88-4 3l.59-1.88c2.34-7.99 3.46-15.87 4.41-24.12" fill="#CFD5D3"/><path d="m586 171 2 3h-2v4h-2v2h-2v2h-3l-2 5-16-1v-1l2.31-.01c7.68-.29 13.04-1.59 18.69-6.99a37 37 0 0 0 4-7" fill="#C3AA5F"/><path d="M594 148c4 0 4 0 6.12 1.56 4.51 5.86 5 14.25 4.88 21.44-.98 2.36-.98 2.36-2 4l-.04-2.49c-.43-9.9-2.92-16.72-8.96-24.51" fill="#1D1606"/><path d="M645 165h1l.3 2.56c.92 6.97 2.13 12.37 5.7 18.44-4.75-.75-4.75-.75-7-3l1-3h-2a80 80 0 0 1 1-15" fill="#241D0E"/><path d="M492 369h2a396 396 0 0 1-3 24c-2.51-3.79-2.08-7.02-1.75-11.44l.27-3.93A27 27 0 0 1 492 369" fill="#EAEDED"/><path d="M757 644c4.6 2.86 6.15 5.78 7.64 10.8.48 2.91-.11 4.71-1.64 7.2h-1l-.59-2.05-.79-2.7-.77-2.67c-.85-2.58-.85-2.58-1.95-4.66-.9-1.92-.9-1.92-.9-5.92" fill="#F1F2F2"/><path d="m651 155 4 1-1 13-3 1a24 24 0 0 1 0-15" fill="#221E14"/><path d="M811 506h1a1243 1243 0 0 1 .09 11.07A61 61 0 0 1 811 530c-3-3.62-3-3.62-3-7h2l-.04-3.46-.02-4.48-.03-2.28q0-2.9.09-5.78z" fill="#1E2220"/><path d="m776.5 453.75 3.34-.02c3.12.27 5.34.95 8.16 2.27v1l-23 1v-2c3.96-1.86 7.14-2.27 11.5-2.25" fill="#EDF0F0"/><path d="M541 156h2l.15 2.12.23 2.76.21 2.74C544 166 544 166 546 168q1.08 2.97 2 6h2v2l-3 1c-5.07-7.09-6.34-12.47-6-21" fill="#281C0A"/><path d="M672 142c-2.36 3.07-3.71 4.72-7.56 5.55q-3.7.37-7.44.45c1-3 1-3 3.56-4.69 4.17-1.59 7.01-1.54 11.44-1.31" fill="#070909"/><path d="M528 6a52 52 0 0 1 9.81 7.19l2.4 2.17L542 17l-3 2q-2.76-2.39-5.5-4.81l-1.59-1.37A74 74 0 0 1 528 9z" fill="#E8EAEA"/><path d="M760 445h1l.08 2.34.17 3.04.14 3.02c.61 2.6.61 2.6 2.66 3.95l1.95.65c-3 2-3 2-8 3z" fill="#CDCFCE"/><path d="m694 176 2 4-3 3-3-1v2h-2v2q-2.18.58-4.38 1.12l-2.46.64-2.16.24-2-2 2.3-.77 3.01-1.04 2.99-1.02c2.6-1.13 3.81-2.14 5.7-4.17h2z" fill="#D3B65B"/><path d="m497 673 2.85.46c4.84.7 9.7.89 14.59 1.1l2.79.13 6.77.31v1q-5.62.34-11.25.62l-3.22.2a383 383 0 0 0-5.96.32c-2.72-.15-4.26-.75-6.57-2.14z" fill="#D6D9D8"/><path d="M489 657h2l.15 1.83.23 2.42.21 2.39c.64 3.64 1.67 5.75 4.53 8.11L498 673c-4 0-4 0-6.69-2.5-2.86-3.7-3.16-6.88-3.31-11.5z" fill="#E0E2E3"/><path d="M491 655c3 2 3 2 3.44 4.02l.12 2.36c.19 3.38.76 5.66 2.44 8.62l-3 1c-4.02-4.85-3.28-10.05-3-16" fill="#272A2B"/><path d="m665 195 1.73.4c7.06 1.54 14.06 2.17 21.27 2.6v1c-7.72 2.37-14.49 2.23-22-1z" fill="#191205"/><path d="M574 194h11c-4.5 3.38-4.5 3.38-8.98 3.29l-2.84-.03-2.93-.07-2.98-.04q-3.63-.06-7.27-.15v-1h14z" fill="#D4BE78"/><path d="M652 184c3.16 1.37 3.99 1.99 6 5 2.12.69 2.12.69 4 1v2l8 2-1 2c-4.24-.58-7.15-2.04-10.75-4.31l-2.92-1.8C653 188 653 188 652.17 185.77z" fill="#DABE6D"/><path d="M693.25 39.34 695 40l-2.69 1.69a35 35 0 0 0-5.94 4.94A17 17 0 0 1 680 51c1.95-5.12 6.95-12.61 13.25-11.66" fill="#1B1D1E"/><path d="m518 1 10 4-1 4-2.38-1.44C520.08 5.6 515.9 5.28 511 5V4h6z" fill="#E4E6E4"/><path d="M521 297h1c-.29 6.65-3 11.72-7 17h-2c1.17-5.12 2.98-8.92 5.88-13.3C520 299 520 299 521 297" fill="#EAEDEE"/><path d="m703 188 2 3-3 1v2h-4l-2 4-6-1 5.23-3.47 2.39-1.59 2.42-1.6C702 189 702 189 703 188" fill="#291A0D"/><path d="m477 458-1 2c-2.14.6-2.14.6-4.81 1.06A119 119 0 0 0 462 463c.19-1.88.19-1.88 1-4 4.44-2.91 9.04-1.8 14-1" fill="#212326"/><path d="m727 294 4 1a39 39 0 0 1 3 6l1.19 2.38.81 1.62h-2l-1 2z" fill="#E2E5E4"/><path d="m516 1 1 3-1.83.4-2.42.54-2.39.52q-3.2.73-6.36 1.54c.95-2.37 1.65-3.75 3.75-5.25C510.58.81 513.04.87 516 1" fill="#F1F1F2"/><path d="m559 197 19 1c-4.22 2.11-6.14 2.22-10.75 2.12l-3.55-.05-2.7-.07v-2z" fill="#180D07"/><path d="M551 180h7l1 4h14v1c-15.93.74-15.93.74-22-4z" fill="#302108"/><path d="m543 150 1 2-.9 1.73c-1.4 2.88-1.52 5.33-1.72 8.52l-.23 3.27L541 168h-1v-8h-2l-1 3c.5-5.26 2.21-9.21 6-13" fill="#DBC98D"/><path d="M1005 541c3 4.5 4.32 8.58 4 14l-2 1q-.8-2.34-1.56-4.69l-.88-2.63c-.61-2.93-.34-4.82.44-7.68" fill="#E4E8E9"/><path d="M742 4v1l-1.98.11c-5.38.41-9.26 1.15-14.02 3.89h-2c1-2.89 2.02-4.02 4.5-5.88 4.89-1.57 8.64-.45 13.5.88" fill="#D5D6D8"/><path d="M588 165c2.14 3.2 2.23 4.02 2.12 7.69l-.05 2.45L590 177l-4 1 .44-4.25.24-2.39c.3-2.18.74-4.24 1.32-6.36" fill="#DDC25B"/><path d="m710 174 2 1c-1.36 6.04-4.86 9.63-9 14l-1-3a89 89 0 0 1 4-4h2v-6h2z" fill="#DEC571"/><path d="m678 47 2 2-10 9-3-2 2.15-1.71 2.79-2.23 2.77-2.21C677 48 677 48 678 47" fill="#DCDEE0"/><path d="m706 23 3 1q-2.43 2.26-4.88 4.5l-2.74 2.53C699 33 699 33 697 33c.38-2.65.82-3.82 2.74-5.74l2.14-1.57 2.11-1.62z" fill="#D9DBDD"/><path d="M775 607c-1.18 3.35-2.12 5.84-5 8-3.19 1.19-3.19 1.19-6 2l2.81-3.31 1.58-1.87c4.25-4.82 4.25-4.82 6.61-4.82" fill="#D9DCD9"/><path d="m536 173 6 12c-1.88.62-1.88.62-4 1-2-2-2-2-2.2-4.6l.08-3.02.05-3.04z" fill="#261D0D"/><path d="m533 164 2 1c.41 2.5.41 2.5.62 5.56l.23 3.07.15 2.37c-1.98-1.24-1.98-1.24-4-3-.59-2.8-.23-5.11 0-8z" fill="#15130A"/><path d="m709 150 1 2h2v4h2c1.1 3.41.94 6.21.56 9.75l-.31 2.98L714 171h-1l-.08-2.34c-.38-6.93-1.36-11.7-4.92-17.66z" fill="#3A2B0D"/><path d="M551 669c-.56 1.88-.56 1.88-2 4-3.5 1.31-3.5 1.31-7 2l-2-1v-2l4.38-1.5 2.46-.84C549 669 549 669 551 669" fill="#E0E2E0"/><path d="m889 548 2 1c-2.81 3.31-6.14 5.1-10 7-2.22-.39-2.22-.39-4-1a573 573 0 0 1 5.88-3.56l3.3-2.01z" fill="#D5D6D8"/><path d="m922.77 536.89 2.27.02h2.45l2.58.03h2.58l6.35.06-2 3-1.56-.5c-4.31-.88-8.26-.9-12.44.5l-3-2c1-1 1-1 2.77-1.11" fill="#F1F1F2"/><path d="M910 496v1l-15 3v-3c5.32-2.32 9.44-1.91 15-1" fill="#D0D2D4"/><path d="m484 454 3 3-16-1 1-2c4.17-1.35 7.76-.94 12 0" fill="#EFF1F3"/><path d="M757 206c1.62 1.56 1.62 1.56 3 4-.62 3.62-.62 3.62-2 7l-3 2 .44-4.81.24-2.71C756 209 756 209 757 206" fill="#E3E5E6"/><path d="M540 693h2l1 11-4-2c-.1-6.15-.1-6.15 0-8z" fill="#F2F2F5"/><path d="M951 606h1l.33 2.67.48 3.52.46 3.48c.73 3.35 1.8 5.52 3.73 8.33-3.27-1.01-4.04-2.06-5.81-5.06-1.72-4.38-1.04-8.41-.19-12.94" fill="#E0E0E4"/><path d="m833 590-11 7-1-3q1.86-1.3 3.75-2.56l2.11-1.44c2.14-1 2.14-1 6.14 0" fill="#EAEBEE"/><path d="m585 194 1 4h-21v-1l3.36-.15 4.39-.23 2.21-.09c3.78-.2 6.82-.45 10.04-2.53" fill="#453513"/><path d="m510.31 5.31 1.7.7c-3.2 2.73-6.02 4.62-10 6 .18-1.82.18-1.82 1-4 4-3.15 4-3.15 7.3-2.7" fill="#222224"/><path d="M534 259h1v9h2l-1 6h-3z" fill="#333636"/><path d="M699 157h1v15h-2l-1 3-2-1 1.44-3.44c1.69-4.47 2.24-8.81 2.56-13.56" fill="#E6C876"/><path d="M558 34c3.19.35 4.79.83 7.31 2.88C567 39 567 39 567 42a34 34 0 0 1-9-6z" fill="#DCDEDC"/><path d="M748 4v1l-14-1c1-2 1-2 2.81-2.69C740.92.73 744.25 2.44 748 4" fill="#EFF1EF"/><path d="M617 696c1.21 3.62.54 4.64-1 8h-5c3.75-6.88 3.75-6.88 6-8" fill="#E8E9EB"/><path d="m803 602-1 3-10 1v-2c3.82-1.42 6.91-2.24 11-2" fill="#E8EBE9"/><path d="m872 507 3 2-12 6v-3z" fill="#DADCDD"/><path d="m503 6 2 2-2.81 2.25A30 30 0 0 0 496 17c.12-3.25.12-3.25 1-7 3.06-2.44 3.06-2.44 6-4" fill="#E0E0E3"/><path d="m719 252 3 1-1 2h-2l-1 12h-1l-1-13z" fill="#2C2F2E"/><path d="M540 185c3.16 1.37 3.99 1.99 6 5h-2v2h-4z" fill="#16100A"/><path d="M696 168h2a25.4 25.4 0 0 1-6 11l-1-5 1.94-1.31C695 171 695 171 696 168" fill="#332912"/><path d="M700 145c3.6.56 5 1.75 7.25 4.56l1.58 1.94L710 153l-2 4v-3h-2v-4h-2v-2h-2v-2z" fill="#D6BD6D"/><path d="M581 144c5.67 5.37 5.67 5.37 7 9v3h-2v-4h-2v-2h-2v-4l-2-1z" fill="#2F1E0B"/><path d="M746 631c1 2 1 2 1 6l-1 2-6-2v-2q2.94-2.09 6-4" fill="#DBDEDC"/><path d="m953 603 3 1-1 2a104 104 0 0 0-.56 4.62l-.26 2.48-.18 1.9h-2q-.04-2.43-.06-4.88l-.04-2.74c.1-2.38.1-2.38 1.1-4.38" fill="#1A1C1D"/><path d="M499 346c2 3 2 3 1.54 5.48l-.92 2.71-.89 2.73L498 359l-2-1 .94-4.31.52-2.43C498 349 498 349 499 346" fill="#E4E6E6"/><path d="M593 148c3.35 2.23 4.82 3.26 5.81 7.25L599 158h-3a103 103 0 0 1-3-10" fill="#E0C770"/><path d="M651 146q2.51.43 5 1c-.81 1.94-.81 1.94-2 4l-3 1a94 94 0 0 1-1-5z" fill="#201F15"/><path d="M809 535c1.56 2.48 2.06 3.61 1.62 6.56L810 544v3l-3 1q.9-6.51 2-13" fill="#D6D7D7"/><path d="m824 536 2 3-3.88 2.5-2.17 1.41C818 544 818 544 816 544c1.12-3.35 1.75-3.79 4.56-5.69l1.94-1.32z" fill="#DDDDE0"/><path d="M744 326h2l4 9-3 1c-3-6.62-3-6.62-3-10" fill="#EEEEF1"/><path d="m739 317 4 1 2 8-2 1z" fill="#E3E4E4"/><path d="M596 187v5c-6.75 2.12-6.75 2.12-9 1l3.94-3 2.21-1.69C595 187 595 187 596 187" fill="#2D1E0F"/><path d="M950 604h2l-1 11-3-2 .5-2.31c.5-2.69.5-2.69.5-5.69z" fill="#F2F3F6"/><path d="m811 600-1 2c-3.44.75-3.44.75-7 1l-2-2c6.29-2.43 6.29-2.43 10-1" fill="#D8D9D8"/><path d="m944 496 7 1v3h-7z" fill="#1F1F22"/><path d="M809 479c1.56 1.56 1.56 1.56 3 4-.31 3.75-.31 3.75-1 7-1.88-3.26-2.58-6.26-3-10z" fill="#DBDEDC"/><path d="M750 346c2.13 3.19 2.5 5.27 3 9l-2 1c-3-5.75-3-5.75-3-8h2z" fill="#1F2220"/><path d="M495 207h1q.58 2.68 1.12 5.38l.64 3.02.24 2.6-2 2c-1.63-4.79-2.21-8.06-1-13" fill="#E6E8E8"/><path d="M688 182c-3.2 2.83-5.78 3.52-10 4l1-3c2.96-1.48 5.74-1.06 9-1" fill="#261C0B"/><path d="M653 150c0 3.93-1.25 6.51-3 10l-3 1a25.4 25.4 0 0 1 6-11" fill="#B7B38E"/><path d="M710 690c2.62 2.62 2.71 4.35 3 8-.94 2.38-.94 2.38-2 4-1-1-1-1-1.1-3.5l.04-3.06.02-3.07z" fill="#F1F4F3"/><path d="M634 678h1v15l-3-2z" fill="#E0E2E4"/><path d="m697 668 5 1 1 4-7-1z" fill="#EDF1ED"/><path d="M528 280h2c-.62 5.54-.62 5.54-2.56 7.88L526 289c-.69-1.69-.69-1.69-1-4 1.31-2.75 1.31-2.75 3-5" fill="#EAEBEC"/><path d="M531 272h2c-.75 6.75-.75 6.75-3 9-1.03-2.79-1.05-3.87-.06-6.75z" fill="#D5D8D6"/><path d="m1004 596 1 2c-.78 1.95-.78 1.95-1.94 4.12l-1.15 2.2-.91 1.68c-1.17-3.66-1.17-3.66.38-6.69C1003 597 1003 597 1004 596" fill="#E0E5E7"/><path d="M443 538c1.95 3.9 2.51 6.72 3 11l-4-2z" fill="#D6D7D8"/><path d="M866 516c-1.81 2-1.81 2-4 4h-3c.38-1.94.38-1.94 1-4 2.49-1.25 3.41-.78 6 0" fill="#19191C"/><path d="M490 382h2l-1 11c-2-3.99-2.29-5.69-2-10z" fill="#CFD2D3"/><path d="M689 184c-1 2-1 2-3 2.7l-2.44.55-2.43.58-2.13.17-2-2q2.15-.8 4.31-1.56l2.43-.88C686 183 686 183 689 184" fill="#D5BE68"/><path d="M775 607h6v3h-7z" fill="#F1F4F3"/><path d="M939 537c5.75.75 5.75.75 8 3-3.77 1.26-5.37.37-9-1z" fill="#D5D5D6"/><path d="m811 524 2 2c-.02 2.16-.02 2.16-.38 4.62l-.33 2.48-.29 1.9-2-1z" fill="#E0E3E3"/><path d="m592 186 4 1c-5.75 5-5.75 5-8 5v-3l3-1z" fill="#E7CB6B"/><path d="M762 432c2 3 2 3 2 7h-2v6h-1c-.08-4.52-.1-8.59 1-13" fill="#CDD0CE"/><path d="M756 369h2l1 9h-2z" fill="#272B26"/><path d="m754 217 4 2-4 7h-1z" fill="#D6D9DA"/><path d="M581 142c4.75.75 4.75.75 7 3l-4 3c-3-3.75-3-3.75-3-6" fill="#A79360"/><path d="M682 141c3.72-.2 4.77-.15 8 2l-1 4-1.38-1.5C686 144 686 144 684 144v-2z" fill="#141004"/><path d="m518 1 4 4h-11V4h6z" fill="#CACDCA"/><path d="M512 637v3c-2.38.62-2.38.62-5 1l-2-2c2.65-1.46 3.89-2 7-2" fill="#27262B"/><path d="m999 604 2 3-3 5-3-1z" fill="#D3D5D7"/><path d="M1007 572h1q.58 2.43 1.12 4.88l.64 2.74.24 2.38-2 2c-1-1-1-1-1.1-3.5l.04-3.06.02-3.07z" fill="#D6DBDB"/><path d="M448 559h2l2 7-4-1z" fill="#DDE0DE"/><path d="m678 184-1 3h-7l-1-2c6.75-1 6.75-1 9-1" fill="#392A03"/><path d="M648 160h2v8c-1.56-1.19-1.56-1.19-3-3 .31-2.69.31-2.69 1-5" fill="#E5D685"/><path d="m543 150 1 2a135 135 0 0 1-3 7l-2-1c.5-3.69 1.1-5.6 4-8" fill="#CCC29A"/><path d="m703 670 9 2-2 2c-3.12-.38-3.12-.38-6-1z" fill="#D9DDDA"/><path d="m503 640 3 1a29 29 0 0 1-9 5z" fill="#242426"/><path d="M1005 541a16.6 16.6 0 0 1 3 7l-3 1q-.57-3.5-1-7z" fill="#CED2D3"/><path d="M522 300c.69 1.69.69 1.69 1 4-1.31 2.75-1.31 2.75-3 5h-2a93 93 0 0 1 4-9" fill="#262829"/><path d="m552 182 9 3v1h-7v-2h-2z" fill="#DBBD67"/><path d="M600 180h2c-1.19 3.38-2.28 5.65-5 8 0-3.6.96-5.09 3-8" fill="#291D0C"/><path d="M582 180h2l-1 5h-5l1-3h3z" fill="#DFBB46"/></svg>