<svg style="background:transparent" version="1.1" xmlns="http://www.w3.org/2000/svg" viewBox="0 0 1248 704"><path d="m524 0 1 3 1.73.43C534.45 5.37 541.59 14.32 547 20a83 83 0 0 0 7.5 7 93 93 0 0 1 9.5 9.12c2 1.88 2 1.88 4.38 3.19a20 20 0 0 1 5.43 5c2.81 3.45 5.92 5.9 9.55 8.43C585 54 585 54 586 56q15.93.18 31.87.26 7.4.04 14.79.12 7.14.07 14.28.09l5.45.06q3.82.04 7.63.04l2.28.05c2.11-.02 2.11-.02 5.7-.62 2.35-2.41 2.35-2.41 4-5q2.41-2.07 4.94-4c2.8-2.18 5.49-4.3 7.94-6.88C687 38 687 38 689.19 36.94 691 36 691 36 691.88 34.12c1.64-3.11 4.17-4.23 7.12-6.12a54 54 0 0 0 9.62-9.19C711 16 711 16 713.34 14.6c2.89-1.74 5.13-3.73 7.6-6.04l2.66-2.39 5.28-4.79c5.94-2.62 12.43-1.3 18.43.74 6.46 4.51 10.8 9.52 13.69 16.88.36 2.82.53 5.24.49 8.04l.01 2.33q0 3.82-.03 7.66l.01 5.51q0 7.47-.04 14.93-.02 7.81-.02 15.63-.01 13.12-.06 26.23-.06 16.85-.07 33.69l-.05 28.96-.01 6.22-.04 17.71-.02 5.37-.02 7.31v2.17c-.02 3.02-.18 5.34-1.15 8.24l-.25 3.06c-1.3 9.24-7.79 18.06-13.75 24.94l-3 1-2 4c-1.74 1.49-1.74 1.49-3.81 2.88l-2.26 1.54-2.37 1.58-4.62 3.12-2.07 1.39c-2.58 2.06-4.59 4.14-5.27 7.43.11 9.19 2.55 17.75 6.4 26.06l3.04 7.86C731 296 731 296 733 298a227 227 0 0 1 2.18 5.07c1.3 3.07 2.82 6.02 4.32 8.99l1.78 3.54 3.32 6.54c1.23 2.51 2.32 5.01 3.34 7.61q1.53 3.97 3.17 7.91A54 54 0 0 1 755 351c.91 3.03 1.95 6.01 3 9 2.26 6.66 4.15 12.96 4.75 19.98C763 382 763 382 764 385c.3 2.57.51 5.14.72 7.72C765 395 765 395 766 397q.15 3.78.13 7.56l.01 2.27-.01 4.74.01 7.27-.01 4.6.01 2.2c-.03 5.13-.03 5.13-1.14 7.36-.03 3.02.07 6.03.16 9.05-.16 2.99-.73 4.39-2.16 6.95q-.59 3.49-1 7l1.77-.44c10.43-2.36 20.75-3.3 30.23 2.44 13.77 10.57 18.58 23.03 21 40a177 177 0 0 1 .25 12.62l.02 3.28A59 59 0 0 1 813 531q-.32 2.24-.5 4.5A71 71 0 0 1 810 548l-.66 2.37A158 158 0 0 1 803 568h3.39c16.1 0 16.1 0 24.12.4l2.54.13 5.34.27 8.1.4 5.21.26 2.41.12c13.55.7 13.55.7 19.83 2.42 3.81 1.03 7.54 1.39 11.47 1.66 7.38.98 14.56 3.94 21.59 6.28l3.2 1.05c7.59 2.53 14.63 5.04 21.36 9.45l2.85 1.85L937 594l1.97 1.27A36 36 0 0 1 945 600l2.19 2c11.57 11.6 15.24 23.76 15.4 39.68-.3 13.97-7.99 25.54-17.59 35.32-2.94 2.19-2.94 2.19-6 4a449 449 0 0 0-7.63 6.2A31 31 0 0 1 925 691l-2.11.96L916 695l-3.5 1.56A169 169 0 0 1 900 701l-3.31 1.12c-4.92 1.61-9.36 2.07-14.53 2.17l-2.38.05q-10.86.22-21.72.31-7.28.07-14.57.23-7.06.17-14.11.2-2.69.03-5.36.11c-13.88.42-13.88.42-19.14-3.54-4.66-5.45-6.5-9.79-7.19-16.84.68-8.32 3.97-14.45 10.11-20.06 12.67-10.12 28.77-9.87 44.35-9.72A99 99 0 0 0 883 650l2.25-.59c6.45-1.71 12.56-4.12 17.75-8.41 1.27-3 .98-5.57.56-8.75l-.31-2.42L903 628a156 156 0 0 0-45-11l-2.6-.26c-11.29-.96-22.59-.89-33.92-.87q-5.25.01-10.51-.01l-6.72.01-3.15-.01c-4.83.02-9.35.19-14.1 1.14h-5l-2 .5c-2.37.59-4.56.5-7 .5l-1 1-2.94-.5c-4.12-.08-5.98 1.84-8.94 4.56l-2.54 2.47c-3.63 3.47-7.57 6.46-11.58 9.47l2.23 1.54c9.07 6.4 14.13 10.83 16.52 21.96.29 4.02.11 5.92-1.75 9.5-7.91 8.44-15.07 9.68-26.23 10.13-11.65.2-23.2-.41-33.91-5.33-1.86-.8-1.86-.8-3.86-.8l1.36 1.18c6.86 6.35 10.34 13.64 12.67 22.62-.04 3.19-1.57 5.41-3.03 8.2q-13.53.25-27.07.36-6.29.05-12.57.17-6.07.11-12.14.13-2.31.02-4.62.08c-12.03.28-12.03.28-15.87-2.22-5.97-6.71-7.2-16.81-6.73-25.52q.44-2.5 1-5l.5-2.69c.5-2.31.5-2.31 1.5-4.31h-14v4l-.04 2.11q-.02 2.94.04 5.89l1 1c.27 5.31-.18 8.97-2 14l-.38 3.56c-.73 4.06-1.66 5.59-4.62 8.44-3.25.6-3.25.6-7.16.57h-2.15q-3.53-.01-7.05-.08l-4.89-.02q-6.44-.04-12.86-.13l-13.14-.1q-12.87-.08-25.75-.24c-2.79-4.89-1.69-9.04-.47-14.27 1.65-5.76 4.28-9.51 8.47-13.73l1.5-1.54q1.73-1.75 3.5-3.46c-3.44 0-6.52 1.69-9.69 2.93-8.94 2.89-17.51 3.41-26.87 3.38l-3.54.05c-7.56.01-14.8-.24-21.02-4.97-2.81-3.63-5.11-6.76-5.88-11.39.69-3.44.69-3.44 2-7l1.19-3.44c2.73-5.36 6.18-10.21 11.62-13L504 637l2-1v-2a228 228 0 0 0-5-3 206 206 0 0 1-6-5l-3.62-3.12-1.77-1.53a68 68 0 0 0-4.05-3.1L484 617v-2l-1.75-.69c-2.87-1.67-4.26-3.66-6.25-6.31-4.53-5.49-4.53-5.49-6.48-7.62a57 57 0 0 1-8.23-12.05 90 90 0 0 0-4.41-7.02c-4.32-6.38-7.12-13.15-9.88-20.31l-1.07-2.74a86 86 0 0 1-4.5-16c-.43-2.26-.43-2.26-1.49-5.7-2.37-8.98-2.1-18.45-2.06-27.68l-.02-3.38c.02-16.1 2.46-29.5 14.14-41.5 5.77-5.51 11.23-8.33 19-10l3.38-.88c5.46-.18 10.4 1.36 15.62 2.88l-.4-1.94A226 226 0 0 1 487 439l-.52-2.66a81 81 0 0 1-.61-11.98l-.01-2.46.01-5.11q.01-3.92-.01-7.84l.01-4.97-.01-2.38c.03-5.49.03-5.49 1.14-6.6q.24-2.37.38-4.75c.45-5.55 1.54-10.77 2.87-16.17.8-3.28 1.48-6.57 2.13-9.88.71-2.51 1.74-4.83 2.79-7.21 1.52-3.65 2.72-7.42 3.95-11.18l.81-2.4c1.94-5.89 1.94-5.89 2.57-8.48.77-2.96 2.08-5.6 3.38-8.37l.91-1.96c2.26-4.78 4.72-9.44 7.23-14.09 17.46-32.42 17.46-32.42 17.1-49.51l-.05-3.44L531 255l-2.01-.62c-4.11-1.9-7.32-4.58-10.8-7.44l-2.16-1.77c-5.2-4.34-9.9-8.79-14.03-14.17l-1.7-2.06c-7.57-9.99-7.75-23.03-7.85-35.11l-.06-4.17q-.08-5.73-.12-11.44l-.07-7.27c-.32-31.35-.24-62.7-.06-94.04q.05-7.84.07-15.7.03-9.33.12-18.67l.03-6.95q.02-4.78.08-9.57l-.01-2.83c.1-5.64.8-8.9 4.57-13.19h2l.8-1.8C505.04-1.42 514.41-.67 524 0m38 665-3 3h3zm128 1 1 2Z" fill="#171916"/><path d="m797 568 1 3 2.74-.03c110.39-1.1 110.39-1.1 146.63 33.99 9.27 10.15 13.05 21.8 12.81 35.4-.75 15.22-8.48 26.54-19.42 36.72-10.26 8.74-22.13 14.6-34.7 19.23l-2.56.95c-2.81.99-5.64 1.87-8.5 2.74l-3.31 1.1c-13.82 3.97-28.05 3.58-42.3 3.53q-5.6-.01-11.19.07-4.36.04-8.71.03-2.07 0-4.13.03c-7.52.09-13.04-.04-18.87-5.12-5.2-5.73-6.1-11.24-5.81-18.87.41-3.54 1.3-5.84 3.32-8.77l1.94-3c7.93-8.87 19.42-10.15 30.57-10.87q5.16-.26 10.33-.46c14.15-.56 27.4-2.2 40.91-6.61l2.24-.73c7.1-2.46 12.94-5.91 17.01-12.33.51-2.99.18-5.21-1-8-8.61-11.34-28.07-13.24-41.16-15.35-27.6-3.78-57.06-2.83-84.72-.09-5.05.49-10.05.54-15.12.44l4-2v-2h2l1-4h2l.72-1.61a69 69 0 0 1 5.78-8.64l1.22-1.68A86 86 0 0 1 785 591h2l.39-1.76c.6-2.2 1.38-4 2.42-6.03l1.07-2.1 1.12-2.17 2.19-4.29.98-1.9C796 571 796 571 797 568" fill="#171917"/><path d="m524 0 1 3 1.73.43C534.45 5.37 541.59 14.32 547 20a83 83 0 0 0 7.5 7 93 93 0 0 1 9.5 9.12c2 1.88 2 1.88 4.38 3.19a20 20 0 0 1 5.43 5c2.81 3.45 5.92 5.9 9.55 8.43C585 54 585 54 586 56q15.93.18 31.87.26 7.4.04 14.79.12 7.14.07 14.28.09l5.45.06q3.82.04 7.63.04l2.28.05c2.11-.02 2.11-.02 5.7-.62 2.35-2.41 2.35-2.41 4-5q2.41-2.07 4.94-4c2.8-2.18 5.49-4.3 7.94-6.88C687 38 687 38 689.19 36.94 691 36 691 36 691.88 34.12c1.64-3.11 4.17-4.23 7.12-6.12a54 54 0 0 0 9.62-9.19C711 16 711 16 713.34 14.6c2.89-1.74 5.13-3.73 7.6-6.04l2.66-2.39 5.28-4.79c5.94-2.62 12.43-1.3 18.43.74 6.46 4.51 10.8 9.52 13.69 16.88.36 2.82.53 5.24.49 8.04l.01 2.33q0 3.82-.03 7.66l.01 5.51q0 7.47-.04 14.93-.02 7.81-.02 15.63-.01 13.12-.06 26.23-.06 16.85-.07 33.69l-.05 28.96-.01 6.22-.04 17.71-.02 5.37-.02 7.31v2.17c-.02 3.02-.18 5.34-1.15 8.24l-.25 3.06c-1.3 9.24-7.79 18.06-13.75 24.94l-3 1-2 4c-1.74 1.49-1.74 1.49-3.81 2.88l-2.26 1.54-2.37 1.58-4.62 3.12-2.07 1.39c-2.58 2.06-4.59 4.14-5.27 7.43.11 9.19 2.55 17.75 6.4 26.06l3.04 7.86C731 296 731 296 733 298a227 227 0 0 1 2.18 5.07c1.3 3.07 2.82 6.02 4.32 8.99l1.78 3.54 3.32 6.54c1.23 2.51 2.32 5.01 3.34 7.61q1.53 3.97 3.17 7.91A54 54 0 0 1 755 351c.91 3.03 1.95 6.01 3 9 2.26 6.66 4.15 12.96 4.75 19.98C763 382 763 382 764 385c.3 2.57.51 5.14.72 7.72C765 395 765 395 766 397q.15 3.78.13 7.56l.01 2.27-.01 4.74.01 7.27-.01 4.6.01 2.2c-.03 5.13-.03 5.13-1.14 7.36-.03 3.02.07 6.03.16 9.05-.16 2.99-.73 4.39-2.16 6.95q-.59 3.49-1 7l1.77-.44c10.43-2.36 20.75-3.3 30.23 2.44 13.77 10.57 18.58 23.03 21 40a177 177 0 0 1 .25 12.62l.02 3.28A59 59 0 0 1 813 531q-.32 2.24-.5 4.5A71 71 0 0 1 810 548l-.66 2.37A158 158 0 0 1 803 568h3.39c16.1 0 16.1 0 24.12.4l2.54.13 5.34.27 8.1.4 5.21.26 2.41.12c13.55.7 13.55.7 19.83 2.42 3.81 1.03 7.54 1.39 11.47 1.66 7.38.98 14.56 3.94 21.59 6.28l3.2 1.05c7.59 2.53 14.63 5.04 21.36 9.45l2.85 1.85L937 594l1.97 1.27A36 36 0 0 1 945 600l2.19 2c11.57 11.6 15.24 23.76 15.4 39.68-.3 13.97-7.99 25.54-17.59 35.32-2.94 2.19-2.94 2.19-6 4a449 449 0 0 0-7.63 6.2A31 31 0 0 1 925 691l-2.11.96L916 695l-3.5 1.56A169 169 0 0 1 900 701l-3.31 1.12a37 37 0 0 1-12.94 1.94l-3.27-.02L878 704v-1l2.95-.59c25.64-5.45 53.94-15.42 70.05-37.41 7.28-12.09 10.39-24.94 7.35-39.02-5.5-16.47-16.98-27.01-31.98-34.85-23.59-11.76-50.88-16.55-76.99-18.19l-3.82-.25c-15.84-1-31.7-1.34-47.56-1.69 1.39-4.29 2.79-8.56 4.46-12.75 9.34-23.79 13.87-54.84 4.54-79.25-3.75-8.48-10.05-15.96-18.56-20-9.61-2.96-21.29-1.7-30.44 2l.88-8.12.26-2.52c.51-4.64 1.17-9.2 1.98-13.8 2.44-16.53 1.65-34.12-1.12-50.56l-.52-3.83c-4.3-29.92-17.23-57.89-30.73-84.61-9.68-19.18-9.68-19.18-10.75-27.56l-.48-3.33c-.71-9.19-.71-9.19 2.62-13.33A97 97 0 0 1 729 247c15.2-11.22 24.67-23.09 28-42 .54-6.01.42-12.06.4-18.09l.02-5.4q.02-7.27.02-14.55v-12.18q.03-14.38.01-28.75-.02-14.8.03-29.6.02-12.73.02-25.48l.01-15.18q.03-7.14 0-14.28-.01-2.61.01-5.22c.1-17.71.1-17.71-4.52-25.27-2.5-2.5-2.5-2.5-5-4l-1.77-1.06c-5.34-2.25-12.3-2.09-17.66.02-5.79 3.68-10.74 8.68-15.72 13.37q-3.42 3.22-6.97 6.29C701.19 29.69 696.6 33.85 692 38c-12.31 11.12-12.31 11.12-18 16l-2.62 2.56c-3.55 2.93-6.95 3.17-11.43 3.15l-2.38.05q-3.87.05-7.74.04l-5.42.05q-5.67.03-11.35.02-7.23 0-14.48.13-5.6.06-11.19.05-2.66 0-5.33.05c-15.59.27-15.59.27-21.99-5.45A199 199 0 0 1 576 50a125 125 0 0 0-3.88-3.38 584 584 0 0 1-11.7-10.57 447 447 0 0 0-10.3-9.18 324 324 0 0 1-6.44-5.87C524.61 3.33 524.61 3.33 512.53 3.62c-5.92.88-9.98 4.31-13.47 9-2.91 4.77-3.21 8.34-3.21 13.77l-.02 2.3-.02 7.65-.03 5.48-.05 18.04-.02 6.21-.05 25.88a11427 11427 0 0 1-.11 37.03q-.06 13.02-.06 26.06 0 7.77-.05 15.54-.05 7.34-.02 14.66l-.03 5.35c-.16 17.49 3.16 33.53 15.42 46.79 5.03 4.83 10.75 8.72 16.51 12.64l2.18 1.48 1.97 1.31C533 254 533 254 534 256c1.38 11.72-1.75 21.25-6 32l-.84 2.14a133 133 0 0 1-9.91 20.11c-24.02 40.9-33.35 93.14-24.61 139.69.58 3.34.97 6.69 1.36 10.06l-3.38-1c-10.11-2.2-22.5-3.12-31.58 2.46-11.44 8.64-14.84 19.62-17.59 33.29-4.89 35.58 7.96 72.75 28.86 101.25A204 204 0 0 0 484 612l1.78 1.98c6.07 6.46 13.31 11.47 20.44 16.69q3.45 2.59 6.78 5.33l-2.38 1.03c-8.22 3.79-15.16 8.24-18.62 16.97-.62 5.27-.86 10.24 1.5 15.06 6.61 5.12 13.52 5.43 21.56 5.32l3.08-.04c14.81-.3 31.78-3.18 43.86-12.34h3v8l-2.41 1.07c-9.23 4.3-14.57 8.47-18.59 17.93a78 78 0 0 0-.69 7.88l-.1 2.08L543 704h-2c-2.31-3.25-2.1-5.94-1.47-9.79 1.61-7.58 3.98-12.68 9.47-18.21l1.5-1.54q1.73-1.75 3.5-3.46c-3.44 0-6.52 1.69-9.69 2.93-8.94 2.89-17.51 3.41-26.87 3.38l-3.54.05c-7.56.01-14.8-.24-21.02-4.97-2.81-3.63-5.11-6.76-5.88-11.39.69-3.44.69-3.44 2-7l1.19-3.44c2.73-5.36 6.18-10.21 11.62-13L504 637l2-1v-2a228 228 0 0 0-5-3 206 206 0 0 1-6-5l-3.62-3.12-1.77-1.53a68 68 0 0 0-4.05-3.1L484 617v-2l-1.75-.69c-2.87-1.67-4.26-3.66-6.25-6.31-4.53-5.49-4.53-5.49-6.48-7.62a57 57 0 0 1-8.23-12.05 90 90 0 0 0-4.41-7.02c-4.32-6.38-7.12-13.15-9.88-20.31l-1.07-2.74a86 86 0 0 1-4.5-16c-.43-2.26-.43-2.26-1.49-5.7-2.37-8.98-2.1-18.45-2.06-27.68l-.02-3.38c.02-16.1 2.46-29.5 14.14-41.5 5.77-5.51 11.23-8.33 19-10l3.38-.88c5.46-.18 10.4 1.36 15.62 2.88l-.4-1.94A226 226 0 0 1 487 439l-.52-2.66a81 81 0 0 1-.61-11.98l-.01-2.46.01-5.11q.01-3.92-.01-7.84l.01-4.97-.01-2.38c.03-5.49.03-5.49 1.14-6.6q.24-2.37.38-4.75c.45-5.55 1.54-10.77 2.87-16.17.8-3.28 1.48-6.57 2.13-9.88.71-2.51 1.74-4.83 2.79-7.21 1.52-3.65 2.72-7.42 3.95-11.18l.81-2.4c1.94-5.89 1.94-5.89 2.57-8.48.77-2.96 2.08-5.6 3.38-8.37l.91-1.96c2.26-4.78 4.72-9.44 7.23-14.09 17.46-32.42 17.46-32.42 17.1-49.51l-.05-3.44L531 255l-2.01-.62c-4.11-1.9-7.32-4.58-10.8-7.44l-2.16-1.77c-5.2-4.34-9.9-8.79-14.03-14.17l-1.7-2.06c-7.57-9.99-7.75-23.03-7.85-35.11l-.06-4.17q-.08-5.73-.12-11.44l-.07-7.27c-.32-31.35-.24-62.7-.06-94.04q.05-7.84.07-15.7.03-9.33.12-18.67l.03-6.95q.02-4.78.08-9.57l-.01-2.83c.1-5.64.8-8.9 4.57-13.19h2l.8-1.8C505.04-1.42 514.41-.67 524 0m38 665-3 3h3z" fill="#E3E6E4"/><path d="M672 495h2c.79 5.17-.13 7.69-3.12 12a267 267 0 0 1-3.88 5l-1.73 2.2A108 108 0 0 1 661 519h-2l-.57 1.71c-2.07 3.32-5.1 4.97-8.37 6.98l-1.92 1.22A37 37 0 0 1 640 533l.09 1.96c.79 17.85 1.1 35.67 1.1 53.53l.02 8.41c.1 21.47-.1 42.95-4.21 64.1h-22c-2.65-17.72-3.78-35.1-4-53l-.03-2.56c-.3-24.23-.14-48.29 2.03-72.44l-2.41-1.15c-13.32-6.5-23.5-14.63-30.59-27.85a23 23 0 0 1-1-8q1.76 1.42 3.5 2.88l1.97 1.61L586 502v2l1.82.84c2.18 1.16 2.18 1.16 5.06 3.78 3.44 3.04 7.21 5.36 11.18 7.63l1.79 1.03c9.75 5.48 20.48 6.37 31.35 4.03 13.04-4.47 26.08-13.31 33.68-24.88z" fill="#000"/><path d="M686.56 138.69c5.58 3.86 8.73 8.1 11.44 14.3 1.22 8.58.77 15.83-4.29 22.99-4.8 5.68-9.53 8.5-17.04 9.43-8.33.22-13.49-.68-19.67-6.41-5.02-5.02-7.14-10.98-7.38-18 .31-7.96 2.97-13.46 8.44-19.23 8-7.3 19.02-8.5 28.5-3.08" fill="#151713"/><path d="M583.63 135.69q2.72 1.59 5.38 3.3.9.6 1.85 1.17c6.4 4.6 10.8 13.24 12.14 20.84 1.14 9.73-1.04 18.84-7.05 26.69-4.45 4.67-8.96 7.98-14.95 10.3l-2.82 1.26a37 37 0 0 1-24.17-2.25c-8.81-5.56-15.55-12.7-18-23-1.26-9.23-1.03-17.62 4.15-25.63 10.59-13.64 26.96-20.76 43.47-12.68m-38.15 8.55c-4.64 5.55-5.01 10.44-4.83 17.5.8 7.47 4 12.8 9.51 17.82 5.26 4.13 10.47 5.06 17 4.85a24.3 24.3 0 0 0 16.27-9.22c4.56-6.9 7.05-13.87 5.58-22.2-2.92-8.1-7.31-13.15-15-17-11.31-3.76-20.78-.17-28.53 8.25" fill="#EAC44E"/><path d="M700.31 139.56c6.94 5.7 12.04 14.56 13.02 23.48.14 11.12-2.09 19.76-9.9 27.95-9.2 7.63-18.82 9.75-30.43 9.01-8.9-1.3-16.12-6.06-21.67-13.13A51 51 0 0 1 648 181l-1.1-2.23c-2.7-8.32-2.04-19.78 1.78-27.64a42.4 42.4 0 0 1 20.7-17.5c11.06-1.9 21.44-.39 30.93 5.93m-46.94 7.41c-3.8 5.63-4.2 12.42-3.37 19.03 2.35 7.65 6.5 13.93 13.46 18.04 6.76 2.54 14.86 2 21.54-.6 6.41-3.38 10.22-8.87 13-15.44 1.03-7.8 1.07-15.43-3.37-22.14A40 40 0 0 0 685 138l-1.86-1.14c-11.69-4.73-22.5 1.08-29.77 10.11" fill="#EDC751"/><path d="M739 474h1c.79 35.43-5.4 68.97-18.23 102a979 979 0 0 0-3.89 10.25l-.77 2.02a314 314 0 0 0-5.06 14.69c-.91 2.63-1.92 5.16-2.98 7.73-2.1 5.2-3.67 10.45-5.07 15.87l-.77 2.94c-2.86 11.37-4.6 22.91-6.23 34.5-1.69.75-1.69.75-4 1-2.71-1.58-2.71-1.58-5-4-2.33-9.72 1.51-20.73 4.06-30.12l1.25-4.71a259 259 0 0 1 9.78-29.86c1.82-4.63 3.48-9.32 5.16-14q2.62-7.28 5.34-14.53c3.91-10.39 7.13-21 10.27-31.64 1.15-3.9 2.34-7.77 3.67-11.61 1.62-4.8 2.76-9.65 3.85-14.59l.63-2.82c2.44-11.02 4.73-22.07 6.99-33.12" fill="#000200"/><path d="M512 471h1l.49 2.48a698 698 0 0 0 22 84.33l1.83 5.61a201 201 0 0 0 6.64 17.45c3.36 7.68 6 15.52 8.54 23.51l.72 2.23c11.72 36.67 11.72 36.67 11.78 54.39-2.75 2.06-2.75 2.06-6 4-2.2-.38-2.2-.38-4-1l-.48-3.79a376 376 0 0 0-5.54-32.22 90 90 0 0 0-5.06-15.76 78 78 0 0 1-2.8-8.42 175 175 0 0 0-5.83-16.14 320 320 0 0 1-6.02-16.16q-1-2.83-2.17-5.61c-3.21-7.56-5.21-15.38-7.16-23.34l-.53-2.14c-2.73-11.06-5.09-22.09-6.41-33.42l-.39-3.22c-1.07-10.87-.7-21.87-.61-32.78" fill="#000100"/><path d="m524 0 1 3 1.73.43C534.45 5.37 541.59 14.32 547 20a83 83 0 0 0 7.5 7 93 93 0 0 1 9.5 9.12c2 1.88 2 1.88 4.38 3.19a20 20 0 0 1 5.43 5c2.81 3.45 5.92 5.9 9.55 8.43C585 54 585 54 586 56q15.93.18 31.87.26 7.4.04 14.79.12 7.14.07 14.28.09l5.45.06q3.82.04 7.63.04l2.28.05c2.11-.02 2.11-.02 5.7-.62 2.35-2.41 2.35-2.41 4-5q2.41-2.07 4.94-4c2.8-2.18 5.49-4.3 7.94-6.88C687 38 687 38 689.19 36.94 691 36 691 36 691.88 34.12c1.64-3.11 4.17-4.23 7.12-6.12a54 54 0 0 0 9.62-9.19C711 16 711 16 713.34 14.6c2.89-1.74 5.13-3.73 7.6-6.04l2.66-2.39 5.28-4.79c5.94-2.62 12.43-1.3 18.43.74 6.46 4.51 10.8 9.52 13.69 16.88.36 2.82.53 5.24.49 8.04l.01 2.33q0 3.82-.03 7.66l.01 5.51q0 7.47-.04 14.93-.02 7.81-.02 15.63-.01 13.12-.06 26.23-.06 16.85-.07 33.69l-.05 28.96-.01 6.22-.04 17.71-.02 5.37-.02 7.31v2.17c-.02 3.02-.18 5.34-1.15 8.24l-.44 3.62L759 216l-2 1 .01-3.03q.14-36.56.2-73.12l.09-35.36q.06-15.4.08-30.82 0-8.16.04-16.31.04-7.7.03-15.37 0-2.82.03-5.63c.14-18.98.14-18.98-4.48-26.36-2.5-2.5-2.5-2.5-5-4l-1.77-1.06c-5.34-2.25-12.3-2.09-17.66.02-5.79 3.68-10.74 8.68-15.72 13.37q-3.42 3.22-6.97 6.29C701.19 29.69 696.6 33.85 692 38c-12.31 11.12-12.31 11.12-18 16l-2.62 2.56c-3.55 2.93-6.95 3.17-11.43 3.15l-2.38.05q-3.87.05-7.74.04l-5.42.05q-5.67.03-11.35.02-7.23 0-14.48.13-5.6.06-11.19.05-2.66 0-5.33.05c-15.59.27-15.59.27-21.99-5.45A199 199 0 0 1 576 50a125 125 0 0 0-3.88-3.38 584 584 0 0 1-11.7-10.57 447 447 0 0 0-10.3-9.18 324 324 0 0 1-6.44-5.87C524.61 3.33 524.61 3.33 512.53 3.62c-5.92.88-9.98 4.31-13.47 9-2.95 4.84-3.21 8.49-3.22 13.99l-.01 2.37-.04 7.89q0 2.83-.03 5.65l-.06 15.35-.08 16.04-.14 30.37-.16 34.58L495 210c-2.63-2.63-2.28-3.8-2.33-7.47l-.07-3.56-.05-3.97-.07-4.22q-.09-5.87-.14-11.74l-.08-7.43a5438 5438 0 0 1-.12-94.72q.05-7.83.07-15.67.03-9.34.12-18.68l.03-6.95q.02-4.78.08-9.57l-.01-2.83c.1-5.64.8-8.9 4.57-13.19h2l.8-1.8C505.04-1.42 514.41-.67 524 0" fill="#EAECEC"/><path d="m867 614 2.16.29c12.23 1.71 27.52 4.72 36.53 13.86 1.83 2.59 2.72 4.62 2.79 7.8-1.23 5.22-5.31 8.56-9.58 11.49-5.11 2.8-10.6 4.55-16.15 6.25l-1.98.61c-13.09 3.77-26.74 4.18-40.26 4.73-12.52.53-23.58 1.58-33.51 9.97-4.79 5.48-5.36 10.88-5.27 17.92.46 5.27 2.04 9.17 6.09 12.64q2.54 1.8 5.18 3.44v1c-2.2.32-2.2.32-5 0-2.42-2.23-2.42-2.23-4.75-5.19l-2.36-2.92c-3.1-4.74-3.35-9.3-2.89-14.89 2.45-9.54 8.02-15.78 16.31-20.88 11.26-5.73 25.51-5.21 37.84-5.09A99 99 0 0 0 883 650l2.25-.59c6.45-1.71 12.56-4.12 17.75-8.41 1.27-3 .98-5.57.56-8.75l-.31-2.42L903 628a156 156 0 0 0-45-11l-2.6-.26c-11.29-.96-22.59-.89-33.92-.87q-5.25.01-10.51-.01l-6.72.01-3.15-.01c-4.83.02-9.35.19-14.1 1.14h-5l-2 .5c-2.37.59-4.56.5-7 .5l-1 1-2.94-.5c-4.12-.08-5.98 1.84-8.94 4.56l-2.54 2.47c-3.63 3.47-7.57 6.46-11.58 9.47l2.23 1.54c9.07 6.4 14.13 10.83 16.52 21.96.29 4.02.11 5.92-1.75 9.5-7.91 8.44-15.07 9.68-26.23 10.13-11.65.2-23.2-.41-33.91-5.33-1.86-.8-1.86-.8-3.86-.8l1.36 1.18c6.73 6.23 10.8 13.74 12.57 22.77.11 3.24-1.17 5.42-2.93 8.05h-2l.18-2.96c.34-10.04-1.05-15.82-7.3-23.73-4.27-3.43-9.02-5.83-13.88-8.31v-8q3.59 1.79 7.14 3.62c13.25 6.78 23.86 9.56 38.74 9.57l3.14.03c6.28.02 11.92-.56 17.98-2.22l2.17-.42c1.83-.58 1.83-.58 3.08-2.96 1.35-6.54 2.18-12.95-1.31-18.93-4.79-6.58-10.62-10.35-17.94-13.69a71 71 0 0 1 9.62-8.25l2.92-2.14 1.63-1.18c1.83-1.43 1.83-1.43 3.92-3.44 7.16-6.59 13.94-7.5 23.29-7.99l4.54-.31c26.68-1.71 54.58-2.56 81.08 1.31m-177 52 1 2Z" fill="#E6E9E7"/><path d="M700.31 139.56c6.94 5.7 12.04 14.56 13.02 23.48A46 46 0 0 1 709 184h-1v-8h2v-19h-2l-2-9h-2l-.25 2.37L703 153l-4 2v10h-1l-.05-2.3c-.33-7.23-1.19-13.06-5.95-18.7-6.82-5.59-11.82-7.43-20.6-7.34-6.7.67-11.3 3.9-15.84 8.71-4.7 6.05-5.48 13.2-4.56 20.63 1.7 5.82 4.3 10.08 9 14l2.43 2.31c6.36 3.01 13.48 2.63 20.27 1.06 5.9-2.24 9.03-6.09 12.3-11.37l1 4h-2l-2 6h-4v2c-8.52 4.96-16.45 4.4-26 4v-2h-2v7l7 1v1l6 1v1l16 1c-6.63 3.31-13.99 2.75-21.13 1-8.17-2.8-14.67-8.6-18.94-16.05a165 165 0 0 0-2.03-4.18c-2.7-8.32-2.04-19.78 1.78-27.64a42.4 42.4 0 0 1 20.7-17.5c11.06-1.9 21.44-.39 30.93 5.93" fill="#EAC553"/><path d="m797 568 1 3h19v1h-7l-1.06 3.62c-2.24 6.8-5.65 13.05-8.94 19.38h-2l-.74 2.14c-1.43 3.26-3.26 5.82-5.38 8.67l-2.2 2.96L788 611l2 2c-7.83 2.61-16.82 2.16-25 2l4-2v-2h2l1-4h2l.72-1.61a69 69 0 0 1 5.78-8.64l1.22-1.68A86 86 0 0 1 785 591h2l.39-1.76c.6-2.2 1.38-4 2.42-6.03l1.07-2.1 1.12-2.17 2.19-4.29.98-1.9C796 571 796 571 797 568" fill="#010201"/><path d="M733 0c9.58.49 15.31 2.06 22.29 8.79 4.4 5.67 6.31 11.04 6.2 18.25l.01 2.33q0 3.82-.03 7.66l.01 5.51q0 7.47-.04 14.93-.02 7.81-.02 15.63-.01 13.12-.06 26.23-.06 16.85-.07 33.69l-.05 28.96-.01 6.22-.04 17.71-.02 5.37-.02 7.31v2.17c-.02 3.02-.18 5.34-1.15 8.24l-.44 3.62L759 216l-2 1 .01-3.03q.14-36.56.2-73.12l.09-35.36q.06-15.4.08-30.82 0-8.16.04-16.31.04-7.7.03-15.37 0-2.82.03-5.63c.16-21.33.16-21.33-6.73-28.8C744.34 4.92 738.34 3.49 731 3z" fill="#F2F4F3"/><path d="M757 21h1q.07 35.77.1 71.56l.05 33.22.04 28.97.02 15.33a3473 3473 0 0 1 .03 19.73v7.24l.02 2.1c-.03 4.93-.94 9.14-2.26 13.85l-3-1c-.08-3.04.02-5.07 1-8q.13-3.29.12-6.59v-2.03l-.01-6.78v-4.84l-.01-13.18-.01-13.77-.02-26.07-.02-29.68L754 40h1l1 68z" fill="#3A3D3B"/><path d="M632.34 184.9A37 37 0 0 1 637 188c.32 4.14.43 6.34-1.88 9.87C633 200 633 200 631 201a559 559 0 0 0-2 7c-2 2-2 2-4.94 2.31-3.06-.3-3.06-.3-4.94-1.44-1.59-2.65-1.33-4.84-1.12-7.87l-1.82-.82c-3.52-1.9-4.85-3.2-6.18-7.06 0-3.12 0-3.12 2.25-5.94 5.4-4.29 13.66-4.74 20.1-2.29" fill="#636561"/><path d="m523 0-1 3-2.34.04C512.58 3.37 507.35 4.15 502 9c-4.94 5.63-6.15 10.3-6.16 17.61l-.01 2.37-.04 7.89q0 2.83-.03 5.65l-.06 15.35-.08 16.04-.14 30.37-.16 34.58L495 210c-2.63-2.63-2.28-3.8-2.33-7.47l-.07-3.56-.05-3.97-.07-4.22q-.09-5.87-.14-11.74l-.08-7.43a5438 5438 0 0 1-.12-94.72q.05-7.83.07-15.67.03-9.34.12-18.68l.03-6.95q.02-4.78.08-9.57l-.01-2.83c.1-5.64.8-8.9 4.57-13.19h2l.8-1.8C504.87-1.08 513.5-.72 523 0" fill="#EDF0ED"/><path d="M698.29 138.21c7.46 4.97 12.39 13.24 14.7 21.8.98 8.77-.4 15.97-4 24h-1v-8h2v-19h-2c-.65-2.98-1.31-5.95-2-9h-2l-.24 2.36L703 153l-4 2v10h-1l-.04-2.3c-.34-7.24-1.2-13.06-5.96-18.7-6.82-5.59-11.82-7.43-20.6-7.34-6.7.67-11.3 3.88-15.84 8.71-2.67 3.37-3.7 6.44-4.56 10.63l-4 1c2.52-8.8 7.66-14.72 15-20 12.12-6.4 24.39-5.1 36.29 1.21" fill="#E6BE52"/><path d="m552 137 2 1-1.86 1.54c-9.71 8.26-9.71 8.26-10.44 15.41-.33 8.22.47 14.88 6.17 21.09 3.4 3.13 6.6 5.69 11.13 6.96v1h-7v-2h-4v4h-2l1 4h3v2h2v2c8.56 3.27 16.95 3.67 26 4-5.04 3.36-10.8 2.52-16.63 1.57-8.93-2.26-16.18-8.01-21.37-15.57-4.85-8.17-5.46-17.74-4-27 2.56-7.8 7.78-13.76 14-19z" fill="#E0C26A"/><path d="M583.63 135.69q2.72 1.59 5.38 3.3.9.6 1.85 1.17c6.4 4.6 10.8 13.24 12.14 20.84q.19 5.5 0 11h-1v-9h-2v-7h-2l-2-8h-2l-1 3-3-1 1 2.44c2.13 7.6 1.13 13.4-2 20.56h-4l.65-1.83c2.9-8.7 4-15.53-.14-23.98-3.62-6.06-7.91-9-14.5-11.2q-2.95-.12-5.88-.11l-3.12-.01c-2.78.12-5.3.5-8 1.13 1-2 1-2 3.58-3.1 8.76-2.32 17.84-2.2 26.03 1.79" fill="#E4C061"/><path d="M616 662h20l-.11 5.81-.08 7.63-.07 3.82c-.08 9.4.91 16.85 6.26 24.74-3.83-1.51-5.73-3.59-8-7-2.89-8.07-3.89-16.61-2-25l.5-2.69c.5-2.31.5-2.31 1.5-4.31h-14v4l-.04 2.11q-.02 2.94.04 5.89l1 1c.27 5.31-.18 8.97-2 14l-.38 3.56c-.71 3.92-1.78 5.68-4.62 8.44h-3c.93-2.38 1.83-4.69 3.06-6.94 2.09-4.6 2.06-9.58 2.04-14.55l-.01-3.63-.03-3.76-.01-3.82z" fill="#E9ECE7"/><path d="m873 652 5 2c-10.19 5.89-25.94 4.56-37.49 5.03-12.52.53-23.58 1.58-33.51 9.97-4.79 5.48-5.36 10.88-5.27 17.92.46 5.27 2.04 9.17 6.09 12.64q2.54 1.8 5.18 3.44v1c-2.2.32-2.2.32-5 0-2.42-2.23-2.42-2.23-4.75-5.19l-2.36-2.92c-3.1-4.74-3.35-9.3-2.89-14.89 2.45-9.54 8.02-15.78 16.31-20.88 11.26-5.73 25.51-5.21 37.84-5.09 4.32-.04 8.56-.49 12.85-1.03l2.14-.25c4.72-.61 4.72-.61 5.86-1.75" fill="#E3E5E7"/><path d="M507 326c1.18 3.42.82 5.26-.48 8.61l-1.02 2.7-1.12 2.88a737 737 0 0 0-3.36 9.03c-8.8 24.08-11.78 49.3-13.02 74.78h-2l-.05-11.91-.03-4.05-.02-5.82-.01-3.54C486 396 486 396 487 395q.24-2.37.38-4.75c.45-5.55 1.54-10.77 2.87-16.17.8-3.28 1.48-6.57 2.13-9.88.71-2.51 1.74-4.83 2.79-7.21 1.52-3.65 2.72-7.42 3.95-11.18l.81-2.4c1.94-5.88 1.94-5.88 2.59-8.55.85-3.28 2.75-5.96 4.48-8.86" fill="#E5E6E7"/><path d="m845 612 1 2q-7.47.44-14.93.85l-5.05.3c-9.89.57-19.71.95-29.62.79-3.25.06-6.21.47-9.4 1.06h-5l-1.94.56c-2.88.61-5.19.01-8.06-.56l-6-1v-1c26.38-2.89 52.48-3.36 79-3" fill="#D2D5D4"/><path d="M812 502h3q.08 5 .12 10l.06 2.83c.04 5.79-.6 10.61-2.18 16.17q-.32 2.24-.5 4.5A71 71 0 0 1 810 548l-.66 2.37A158 158 0 0 1 803 568c2.57 1.28 4.77 1.33 7.62 1.56l3.04.26 2.34.18v1h-18l1.12-3.44.83-2.52q1.15-3.31 2.44-6.58c7.04-18.09 9.15-37.16 9.61-56.46" fill="#DDDFDD"/><path d="m650 155 .08 2.09c.49 8.11 1.94 14.55 7.42 20.72L660 180l4 4h-9l1 3h-4c-5.03-6.36-6.35-11.69-6.31-19.56l-.05-2.29c0-3.37.12-5.73 1.82-8.68C649 155 649 155 650 155" fill="#E5C869"/><path d="M756 210c1.76 2.59 2 3.99 1.86 7.16-1.05 4.68-2.97 7.76-5.67 11.65l-1.33 2.02c-2.36 3.47-3.97 5.44-7.86 7.17l-.87 1.87c-1.33 2.51-2.6 3.44-4.94 5.01l-2.26 1.54-2.37 1.58-4.62 3.12-2.07 1.39c-2.63 2.1-4.65 4.15-5.2 7.53l.08 2.15.07 2.36q.38 4.82 1.16 9.6L722 276l-2 2c-2.28-7.12-3.66-14.62-2-22 3.11-3.86 6.85-6.33 11-9 13.77-10.17 22.57-20.19 27-37" fill="#DFE2DF"/><path d="M772 454c11.66-.72 18.98 1.07 27.88 8.81 7.84 7.59 10.26 14.7 13.12 25.19l.73 2.5c1.96 7.8 1 15.59.27 23.5h-1l-.3-3.59c-1.5-16.84-3.22-33.34-15.82-45.79-7.43-6.19-16.44-7.99-25.88-8.62z" fill="#E5E8E4"/><path d="M772 616v3l-2.88-.56c-5.2-.02-8.01 3.67-11.54 7.09-3.63 3.47-7.57 6.46-11.58 9.47l2.23 1.54c9.09 6.41 14.39 10.91 16.46 22.21C765 662 765 662 764 664h-2l-.26-1.91c-1.46-8.91-4.76-15.07-11.83-20.77-3.14-2.17-6.44-3.74-9.91-5.32a69 69 0 0 1 9.75-8.31 96 96 0 0 0 10.5-8.75c3.91-3.57 6.59-3.58 11.75-2.94" fill="#E4E7E6"/><path d="m735.25 2.38 2.7.34 2.05.27v1q-1.94.08-3.94.13c-9.72 1.16-16.38 8.8-23.21 15.22q-3.42 3.2-6.98 6.29c-4.68 4.06-9.27 8.22-13.87 12.36q-5 4.53-10 9l-2.27 2.06-2.1 1.89-1.84 1.65a27 27 0 0 1-5.79 3.4c.31-3.09 1.01-4 3.33-6.18l2.92-2.25c3.85-3 7.31-6.1 10.75-9.57l2.19-1.05c1.81-.95 1.81-.95 2.68-2.81 1.65-3.12 4.18-4.24 7.13-6.14a54 54 0 0 0 9.63-9.17c2.37-2.83 2.37-2.83 4.7-4.21 3.89-2.34 6.96-5.45 10.27-8.55 4.06-3.48 6.31-4.38 11.65-3.68" fill="#DFE1E1"/><path d="M761 399c3.11 4.67 2.38 9.44 2.38 14.94v3.58c-.16 13.35-2.13 26.34-4.38 39.48h-3c.43-7.2 1-14.3 2-21.44 1.09-7.89 1.4-15.79 1.66-23.76l.09-2.84.08-2.53c.18-2.55.62-4.94 1.17-7.43" fill="#1F211D"/><path d="M540 174h4v2h2v2h2c1.62 2 1.62 2 3 4h-3v4h-2l1 4h3v2h2v2c8.56 3.27 16.95 3.67 26 4-5.04 3.36-10.8 2.52-16.63 1.57-6.64-1.68-11.35-4.99-16.37-9.57l-1.67-1.44c-2.23-2.2-3.27-4.06-3.63-7.16-.01-2.49.08-4.92.3-7.4" fill="#E3C059"/><path d="M495 207c2.07 3.11 2.78 5.48 3.75 9.06 4.81 15.86 15.01 24.93 28.57 33.69 5.47 3.65 5.47 3.65 6.68 7.11V259l-3-1v-3l-2.01-.62c-4.11-1.9-7.32-4.58-10.8-7.44l-2.16-1.77c-5.2-4.34-9.9-8.79-14.03-14.17l-1.73-2.13c-4.36-5.8-5.91-11.64-6.27-18.87z" fill="#DEE1DE"/><path d="M573 136c7.24 2.65 10.32 6.35 14 13l1.14 1.99c2.36 5.51 1.23 11.74-.76 17.2-2.08 4.72-4.83 8.1-8.38 11.81l-1-4h2v-2l3-2c.7-1.85.7-1.85 1.12-4.06l.47-2.41c.62-3.83 1.04-7.66 1.41-11.53h-2v-7l-4-1v-4h-2v-2l-2.94-.38L572 139l-1-2z" fill="#32230B"/><path d="M541 152h1v10h2c1.6 3.51 2.22 6.14 2 10h2l1 3 3 1v2h2v2h9v2h5v-2h9c-5.68 4.51-10.94 4.66-18 4-7.01-1.83-11.99-7.18-16-13-1.88-4.41-2.22-8.11-2.12-12.88l.05-3.49z" fill="#33230B"/><path d="M586.74 137.4C589 139 589 139 591 142l-7-2v2h2v2h2v7a47 47 0 0 1-4.56-6.94c-3.46-4.34-7.18-6.4-12.44-8.06a51 51 0 0 0-17 1c1-2 1-2 3.58-3.1 10.48-2.78 19.76-1.7 29.16 3.5" fill="#D9BE71"/><path d="m633 664 3 1-.05 2.15-.14 9.79-.07 3.38c-.08 8.96 1.17 16.17 6.26 23.68-3.83-1.51-5.73-3.59-8-7-2.92-8.15-3.77-16.53-2-25q.54-4 1-8" fill="#EEF0EF"/><path d="M953 612c3 1 3 1 4.35 3.07l1.27 2.62 1.29 2.57c2.44 6.15 2.33 12.53 2.4 19.05l.09 2.73c.06 6.51-1.3 11.24-4.4 16.96h-1l.44-4.12.24-2.33q.35-2.71.84-5.41c1.61-10.49.74-19.47-3.52-29.14q-1.02-3-2-6" fill="#EAECEA"/><path d="M552 27c4.28.48 6.16 2.95 9 6 4.49 4.71 4.49 4.71 7.44 6.38a19 19 0 0 1 5.37 4.93c3.23 3.96 7.01 6.79 11.19 9.69l-3 2-1.35-1.29c-8.1-7.72-16.17-15.42-24.89-22.43A98 98 0 0 1 552 29z" fill="#DEE1DE"/><path d="M684 133c-3.13 3.13-5.92 3.08-10.12 3.25-7.59.66-13.13 3.56-18.32 9.13-2.67 3.36-3.71 6.43-4.56 10.62l-4 1c2.51-8.8 7.66-14.72 15-20 7.21-3.81 13.95-4.56 22-4" fill="#BCB898"/><path d="M733 0c9.72.5 15.69 2.05 22.52 9.23 1.84 2.2 2.89 3.96 3.48 6.77-.38 2.81-.38 2.81-1 5l-.86-1.75C753.95 12.94 751.12 7.35 744 5c-4.31-.88-8.63-1.5-13-2z" fill="#E5E6E6"/><path d="M802 615c-2.95 1.47-5.73 1-9 1q-3 .48-6 1h-5l-1.94.56c-2.88.61-5.19.01-8.06-.56l-6-1v-1c30.42-3.19 30.42-3.19 36 0" fill="#D8DAD7"/><path d="M704 145c5.82 4.85 8.47 10.64 9.39 18.15.26 7.68-1.25 13.87-4.39 20.85h-1v-8h2v-19h-2l-2-9h-2z" fill="#DBC06E"/><path d="M488 387h2a1235 1235 0 0 1-2 37h-2l-.05-11.91-.03-4.05-.02-5.82-.01-3.54C486 396 486 396 487 395q.34-2.02.56-4.06z" fill="#ECEEEE"/><path d="M688.57 134.44c3.87.9 6.98 2.61 10.43 4.56-2.49.7-4.38 1-7 1v2h2l-1 3-1.54-1.2c-4-3.09-7.83-5.72-12.46-7.8 3.74-2.49 5.29-2.13 9.57-1.56" fill="#DBC372"/><path d="m820 567 2 1q2.06.22 4.13.32l2.44.12 2.55.12 2.58.13 6.3.31v2c-26.18.21-26.18.21-36-1l1-2 3.03.04 3.91.02 3.9.04C819 568 819 568 820 567" fill="#EDEFF1"/><path d="M704 148h2c1.26 4.27.88 6.96-1 11l-2.04.89C701 161 701 161 700.39 163.16l-.14 2.46-.17 2.48-.08 1.9h-2v2h-2l.94-2.88c1.17-3.94 1.38-7.79 1.52-11.89.71-2.95 2.07-3.58 4.54-5.23.75-2.19.75-2.19 1-4" fill="#F0C35C"/><path d="M694 150h3c1.19 3.57 1.21 6.55 1.25 10.31l.08 3.93c-.35 3.96-1.33 6.36-3.33 9.76h-1z" fill="#20190B"/><path d="M899.95 578.03a96 96 0 0 1 15.98 4.91l1.98.76c3.26 1.33 5.85 2.53 8.1 5.3l-2 1c-2.3-.83-4.52-1.72-6.76-2.69a165 165 0 0 0-22.25-7.3c3-2 3-2 4.95-1.98" fill="#DCDFDF"/><path d="M702 140h4v4h2v3h2v3h2l.88 2.88C714 156 714 156 716 158c-.31 2.19-.31 2.19-1 5l-1 7h-1l-.23-2.71c-1.04-9.58-3.54-15.92-9.46-23.44C702 142 702 142 702 140" fill="#221706"/><path d="M869 616c8.26-.48 16.68.99 24 5v2a61 61 0 0 1-14-3c-3.32-.74-6.66-1.38-10-2z" fill="#E5E8E6"/><path d="M488 409h1l.08 1.84c.93 22.33.93 22.33 1.92 31.16h-3c-2-6-2.13-11.74-2-18h2z" fill="#CCCDCC"/><path d="m658 192 9 2v1l6 1v1l16 1c-6.77 3.39-14.2 2.72-21.44.81-4.32-1.45-6.7-3.29-9.56-6.81" fill="#D2BF6E"/><path d="m552 137 2 1-1.86 1.54c-6.42 5.46-9.9 9.27-10.83 17.84q-.17 2.31-.31 4.62h-1l-1-5-2 6h-1c-.46-7.8 3.11-13.64 8.11-19.45 5.05-5.13 5.05-5.13 7.89-6.55" fill="#B1AE95"/><path d="M929 686v3c-3.51 1.78-7.08 3.4-10.68 4.98q-2.19.96-4.36 1.95c-2.84 1.27-4.8 2.07-7.96 2.07 1-3 1-3 4.39-4.75q2.14-.93 4.3-1.81l2.14-.92c4.01-1.7 8.02-3.21 12.17-4.52" fill="#E7E9E6"/><path d="M651 177a33 33 0 0 1 13 6 27 27 0 0 1-9 1l1 3h-4l-1-3 1-1q-.43-3.01-1-6" fill="#E9C864"/><path d="M893 621c5.87 1.32 10.23 4.38 14 9 1.09 2.96 1.11 4.76 1 8l-2 2c-2.02-3.04-2.32-4.19-2.62-7.69l-.23-2.45L903 628l-2.19-.81A43 43 0 0 1 893 623z" fill="#DFDFE0"/><path d="M761 657h1c1.18 3.35 1.98 6.43 2 10-2.44 4.51-6.6 7.08-11.19 9.12-3.81.88-3.81.88-6.31-.43L745 674l1.83-.4 2.42-.54 2.39-.52L754 672l2.22-.41L758 671c2.08-4.49 2.5-9.13 3-14" fill="#D5D7D6"/><path d="M616 662h20l-1 3h-18z" fill="#F5F6F3"/><path d="M757 644c5.92 5.3 7.25 10.21 8 18l-1 2h-2l-.33-1.98A46 46 0 0 0 757 648z" fill="#EBEDED"/><path d="M532 259h2a50 50 0 0 1-4 24l-2 1c.44-4.08.93-7.98 2-11.94 1.15-4.31 1.61-8.63 2-13.06" fill="#E8EBE8"/><path d="M495 207c2.1 3.15 2.94 5.75 4 9.38 1.17 3.96 2.4 7.81 4 11.62h-3c-3.79-5.69-5.44-11.16-6-18z" fill="#D9DBD8"/><path d="m597 185 2 4-5 1v4h-4l-2 4h-4v2h-2l-1-3 1.72-.85A48 48 0 0 0 597 185" fill="#2C1C0B"/><path d="M840 569q3.88.17 7.75.38l2.21.09c3.78.2 6.82.45 10.04 2.53-2.7 1.35-4.65 1.02-7.66.88l-3.4-.15-3.56-.17-3.59-.16-8.79-.4v-1h7z" fill="#DFE1E3"/><path d="M809 495h3v26h-1q-.8-6.21-1.56-12.44l-.46-3.59-.42-3.4-.4-3.16L808 496z" fill="#262722"/><path d="M772 454c8-.5 14.96-.19 22 4l2 3-3.18-.84c-7.27-1.89-14.3-3.62-21.82-4.16z" fill="#EDEFEB"/><path d="m695 172 1 4h-2l-2 6h-4v2l-4.38 2-2.46 1.12C679 188 679 188 677 188v-2h-6v-1l2.38-.3c13.42-1.91 13.42-1.91 18.15-7.52A95 95 0 0 0 695 172" fill="#CCB669"/><path d="M657 178c2.39.58 4.67 1.22 7 2v2h12v2l4 1c-8.53.66-14.58.75-21.52-4.59L657 179z" fill="#32250C"/><path d="m601 151 3 1v27l2 1-4 2 .03-1.78.09-8.16.06-2.8A69 69 0 0 0 600 152z" fill="#180F07"/><path d="M668 136c8.4-.71 14.11-.22 21.27 4.39L691 142v3l-3-1v-2h-3v-2l-5 1v-3l-5.86.2c-2.44-.23-4.03-.99-6.14-2.2" fill="#2E210F"/><path d="M551 670c-5 4.15-11.22 6.05-17.72 5.96-2.1-.23-4.2-.58-6.28-.96v-1l3.07-.59 4.05-.79 2.02-.38a64 64 0 0 0 9.16-2.4c2.7-.84 2.7-.84 5.7.16" fill="#DDDEDA"/><path d="M810 484h2c2.9 10.48 3.15 19.29 2 30h-1c-2.19-20.53-2.19-20.53-3-30" fill="#EEF0EC"/><path d="M549 192h3v2c8.56 3.27 16.95 3.67 26 4-5.07 3.38-10.92 2.56-16.77 1.5-5.44-1.44-8.68-3.12-12.23-7.5" fill="#BBA862"/><path d="M644 161h1l.26 2.93c.81 7.53 1.81 13.47 5.72 20.12C652 186 652 186 652 189c-2.62-2.37-4.26-4.94-6-8l-2 1z" fill="#1A1406"/><path d="m801 562 4 1-2 5c2.57 1.28 4.77 1.33 7.62 1.56l3.04.26 2.34.18v1h-18z" fill="#C9CBCC"/><path d="m701 141 2 2-2.94.81L697 145l-1 3h2v5c-3.15-3.42-3.56-6.44-4-11h-2v-2c3.8-1.27 5.35-.48 9 1" fill="#DDBD5E"/><path d="M557 131h16v1l-3 .52c-7.26 1.31-13.48 2.9-20 6.48l-2-1 1-2h3v-4l4 1z" fill="#100F07"/><path d="M586 154h1c1.33 7.66 1.41 13.09-2.52 19.93A22 22 0 0 1 578 180v-4h2v-2l3-2c.7-1.85.7-1.85 1.12-4.06l.47-2.41c.62-3.83 1.04-7.66 1.41-11.53" fill="#281D09"/><path d="M616 689h4c-1.63 11.02-1.63 11.02-6 15h-3c.93-2.38 1.83-4.69 3.06-6.94 1.2-2.64 1.55-5.2 1.94-8.06" fill="#E6E9E6"/><path d="m555 674 1 3-2.25 2.06c-2.99 2.97-4.78 6.23-6.75 9.94h-3c1.05-6.81 5.84-11.01 11-15" fill="#212121"/><path d="M764 420h1c.94 6.9 1.14 12.34-1 19h-1l-2 8c-.89-3.55-1.08-4.78-.48-8.15l.41-2.36.45-2.43.42-2.42q1.01-5.83 2.2-11.64" fill="#DADBD7"/><path d="m735.25 2.38 2.7.34 2.05.27v1q-1.94.08-3.94.13c-5.79.63-9.55 3.39-14.06 6.87l-3.06 2.38L717 15c.55-3.73 1.96-5.22 4.81-7.62l2.08-1.8c4.02-3.02 6.31-3.86 11.36-3.2" fill="#DADBDB"/><path d="M800 682h1l.3 1.94c1.06 6.17 2.14 12.2 7.29 16.34q2.17 1.41 4.41 2.72v1c-2.2.3-2.2.3-5 0-4.56-3.7-8.69-8.2-9.36-14.18A49 49 0 0 1 800 682" fill="#DCDFDD"/><path d="M960 635h1c2.35 8.81 1.29 16.07-3 24h-1c.84-8.02 1.92-16.01 3-24" fill="#E4E7E4"/><path d="M851 656v2h-20c6.35-4.23 12.65-3.51 20-2" fill="#F1F2F4"/><path d="M956 626c3 1 3 1 4 3q.19 3.75.19 7.5l.03 2.09c.01 1.8-.1 3.61-.22 5.41l-2 2z" fill="#282B29"/><path d="M471.23 456.9a447 447 0 0 1 7.52.05l6.25.05c-6.04 3.11-12.24 3.7-19 3l-2-2a19 19 0 0 1 7.23-1.1" fill="#202220"/><path d="M490 456v2l-15.62-1.56-2.54-.26L470 456c1-2 1-2 2.79-2.64 5.83-.94 11.78.55 17.21 2.64" fill="#ECF0ED"/><path d="m599 178 1 3c-2.16 3.84-4.29 6.61-8 9v-4h2l-2-5z" fill="#E5C863"/><path d="M584 136h8v2l4 2v6l-1.36-1.17A311 311 0 0 0 584 136" fill="#2C1E0C"/><path d="m569.38 132.88 2.23.03 5.38.09c-1.02 1.5-1.02 1.5-3 3-3.38.25-3.38.25-7.37.13-4.4-.13-8.34-.2-12.62.87 1-2 1-2 3.53-3.12 4.08-1.03 7.68-1.1 11.85-1" fill="#AEA68A"/><path d="M509 0h14l-1 3-14 1z" fill="#F4F8F4"/><path d="m633 664 3 1-1 22h-1l-.18-2.41c-.72-9.02-.72-9.02-1.44-13.03-.41-2.79-.1-4.85.62-7.56" fill="#DBDEDA"/><path d="M817 571h16v3h-17z" fill="#202224"/><path d="M536 154c.98 2.93 1.06 4.44.88 7.45l-.15 2.57-.17 2.67-.16 2.7-.4 6.61c-2.98-2.98-2.72-5.94-3.05-10.02.07-4.37 1.31-8.01 3.05-11.98" fill="#292012"/><path d="M772 616v3l-3.12-.31c-3.94.32-4.44.42-7.13 2.87L759 624l-3-1c5.24-5.47 8.31-7.96 16-7" fill="#E1E4E0"/><path d="M452 568a29 29 0 0 1 5.75 7.44l1.36 2.31c1.02 2.58.85 3.69-.11 6.25-3.09-4.17-6.02-8.16-8-13z" fill="#E7E8E9"/><path d="m693 177-3.25 2.94-1.83 1.65A11.3 11.3 0 0 1 682 184c-2.75-.44-2.75-.44-5-1a26 26 0 0 1 9-3l1-3c2.49-1.25 3.41-.78 6 0" fill="#2C240C"/><path d="M447 553a46 46 0 0 1 4.25 7.94l1.14 2.59c.61 2.47.61 2.47-.28 4.79L451 570c-4.61-9.65-4.61-9.65-5-15z" fill="#D8DBD9"/><path d="M541 171c3.77.54 5.03 1.91 7.31 4.88 3.27 3.94 5.86 5.54 10.69 7.12v1c-6.36.49-6.36.49-9.44-1.88C548 180 548 180 548 178h-2v-2h-2v-3h-3z" fill="#D2B867"/><path d="M649 155h1v10h-2l-1 6h-1q-.12-2.87-.19-5.75l-.1-3.23c.32-3.33 1-4.65 3.29-7.02" fill="#DDCB83"/><path d="M571 44c4.28.48 6.16 2.95 9 6l2.81 2.81L585 55l-3 1-5.5-4.88-1.59-1.39q-2-1.81-3.91-3.73z" fill="#DBDEDB"/><path d="M803 670c1.14 3.42.85 4.07-.38 7.31A50 50 0 0 0 800 688h-2c-.56-6.41 1.25-11.24 4-17z" fill="#E9EBED"/><path d="M892 618c6.6 1.64 10.11 3.35 14 9-3.36 0-4.26-.58-7-2.38l-2.06-1.33L892 620z" fill="#1E1F20"/><path d="M756 210c1.84 2.7 2 4.11 1.88 7.44-.94 3.82-2.21 5.72-4.88 8.56a71 71 0 0 1 3-16" fill="#DEE0DF"/><path d="M576 194h11c-3.54 3.54-4.74 3.98-9.69 4.06L574 198v-2h2z" fill="#E2C466"/><path d="M584 173c1.37 2.74.94 4.12 0 7-2.9 2.1-4.28 2-8 2v2h-6q2.42-1.64 4.94-3.15c6.81-4.05 6.81-4.05 9.06-7.85" fill="#CBB761"/><path d="M692 132v2h7l-3 4-12-4c3.23-2.15 4.28-2.2 8-2" fill="#2D240B"/><path d="M951 658h2c-.37 6.12-1.73 8.83-6 13h-3a56 56 0 0 1 4-7h2l-1-3z" fill="#22231F"/><path d="m548 175 4 1v2h2v2h9v2c-4.83.48-8.65.82-12.56-2.38C548 177 548 177 548 175" fill="#251709"/><path d="m582 135 2 2-2 3a29 29 0 0 1-8-3v-2c2.91-1.45 4.9-.71 8 0" fill="#CFBD7B"/><path d="M492 440h2l2 9-3 1-1 2-.56-4.88-.32-2.74C491 442 491 442 492 440" fill="#242724"/><path d="M491 412h1q.12 4.18.19 8.38l.07 2.4A72 72 0 0 1 492 429l-3 2q-.05-2.71-.06-5.44l-.04-3.06c.1-2.5.1-2.5 1.1-3.5q.55-3.5 1-7" fill="#202122"/><path d="m618 676 3 2c.57 7.15.57 7.15-2 11h-2z" fill="#F0F4F0"/><path d="m722.23 674.12 3.12.15 3.28.17 3.3.15 8.07.41v1q-5.12.34-10.25.62l-2.93.2-2.83.16-2.6.15c-2.62-.14-4.16-.8-6.4-2.13 2.6-1.3 4.34-1.02 7.24-.88" fill="#D3D6D3"/><path d="m473.31 455.38 3.8.33 2.9.29v1l-2.6.14c-6.08.4-11.66.86-17.4 2.86 1-3 1-3 3.1-4.21 3.6-.99 6.5-.77 10.2-.42" fill="#D2D3D3"/><path d="M534 259h1l1 5h1c.46 4.93-1.17 8.51-3 13h-2z" fill="#313431"/><path d="M759 200c2.34 3.61 2 6.04 1.25 10.19l-.55 3.23-.7 2.58-2 1v-12h1z" fill="#EDF0EF"/><path d="M703 148c.69 1.81.69 1.81 1 4-1.31 1.75-1.31 1.75-3 3h-2v10h-1v-15l1 2h2z" fill="#D4AC4E"/><path d="m507 2 1 3-2.75 1.62C501.8 8.9 500.09 11.46 498 15l-2-4 3-1 .81-1.81c1.7-3.13 4.2-4.37 7.19-6.19" fill="#E2E5E2"/><path d="M766 615h17l-2 3c-5.37.54-9.88-.56-15-2z" fill="#E1E3DE"/><path d="M647 164c4 2 4 2 5.25 5.62L653 173l-3-1v-4h-2l.12 2.88C648 174 648 174 646 176z" fill="#CCB468"/><path d="M599 152c4.12 4.12 4.12 9.4 4.12 14.94q-.04 2.53-.12 5.06h-1v-9h-2v-7h-2z" fill="#BBA665"/><path d="M710 152h2c3.51 6.72 3.51 6.72 4 10l-1 1q-.55 3.5-1 7h-1l-.4-2.92-.54-3.83-.52-3.8A63 63 0 0 0 710 152" fill="#2D1D07"/><path d="M672 130c5.53-.19 9.76.25 15 2v1h-16z" fill="#1A1007"/><path d="M540 692h2l1 12h-2c-2.83-4-1.76-7.43-1-12" fill="#EEEEF0"/><path d="m896 648 1 2 2 1c-5.62 3-5.62 3-9 3v-2l-2-1z" fill="#222425"/><path d="M860 570q2.41.14 4.81.31l2.71.18c2.79.57 3.72 1.33 5.48 3.51-10.56.18-10.56.18-15-1l2-1z" fill="#EAEAEC"/><path d="M904 639h2c-1.56 4.22-4.45 6.37-8 9-2.38.81-2.38.81-4 1l-1-2 2.15-1.24 2.79-1.64 2.77-1.61C903 641 903 641 904 639" fill="#E2E4E6"/><path d="m748 626 3 1c-2.81 2.96-5.18 5.44-9 7l-2-2a283 283 0 0 1 3.81-3.06l2.15-1.73z" fill="#1E201F"/><path d="M859 614c8.57-.29 8.57-.29 12 2-5.04 2.21-7.86 1.85-13 0z" fill="#D9DBD9"/><path d="M635 690c2.15 3.22 3.5 6.44 5 10q.97 2.01 2 4c-3.79-1.49-5.77-3.62-8-7l1-3z" fill="#D3D4D6"/><path d="M733 304c3.17 1.09 4.01 2.01 5.81 4.94C740 312 740 312 739 315c-2.97-2.55-4.42-5.45-6-9z" fill="#EBEDEC"/><path d="m543 683 2 1-2 16h-1q-.33-2.84-.62-5.69l-.36-3.2c-.02-3.25.57-5.21 1.98-8.11" fill="#CDCDCF"/><path d="m878 614 11 2-1 3-11-2z" fill="#2B2D2C"/><path d="M789 459c8.72 1.49 8.72 1.49 11.81 5.12L802 466l-3 1c-1.72-1.14-1.72-1.14-3.5-2.81A51 51 0 0 0 789 459" fill="#D6D8D5"/><path d="m774 457 1 3-7-1v2l-6-1c4.22-2.81 7.03-3.11 12-3" fill="#252622"/><path d="M499 345c1.62 2.5 2.07 3.59 1.54 6.58l-.92 2.67-.89 2.7L498 359l-2-1 .94-4.81.52-2.71C498 348 498 348 499 345" fill="#DDDFDE"/><path d="m813 661 3 1-2.19 1.69c-2.81 2.31-2.81 2.31-5.5 5C806 671 806 671 804 672c.55-3.77 2.04-5.35 4.88-7.81l2.11-1.9z" fill="#DEDEE0"/><path d="M869 616c7.75-.12 7.75-.12 10 1v3l-10-2z" fill="#ECEFEC"/><path d="M754 646c1.88.62 1.88.62 4 2 1.88 4.04 2.26 6.73 1 11-2.31-3.47-2.42-5.93-3-10z" fill="#1C1E1E"/><path d="M901.5 578.13c3.5.88 3.5.88 6.5 4.88-4.29-1-8.58-2-13-3 3-2 3-2 6.5-1.88" fill="#D0D2D0"/><path d="m762 437 1 2h2c.37 5.54.37 5.54-1.5 7.88L762 448c-1.37-3.82-.68-7.07 0-11" fill="#F4F5F1"/><path d="M549 192h3v2l2.15.59 2.79.79 2.77.77C562 197 562 197 563 199c-5.29-.52-8.61-2.16-13-5z" fill="#CDB774"/><path d="m695 163 3 1c-.52 4.62-1.07 6.1-4 10z" fill="#2E230B"/><path d="M699 155h1v15h-2v2h-2l.94-2.88c1.34-4.63 1.69-9.33 2.06-14.12" fill="#E6C877"/><path d="M538 154h3v8h-1l-1-5-2 6h-1c-.25-5.62-.25-5.62 2-9" fill="#C5B279"/><path d="m733 0 9 1v2h-11z" fill="#F5F9F6"/><path d="M514 672h4v2l2 1h-16v-1l1.93-.18 2.51-.26 2.49-.24C513 673 513 673 514 672" fill="#363531"/><path d="M761 653c3 2 3 2 3.75 5.5.25 3.5.25 3.5-.75 5.5h-2z" fill="#F4F6F5"/><path d="M491 654h1c2.48 9.41 2.48 9.41 1 14-2-2-2-2-2.2-4.82l.08-3.3.05-3.33z" fill="#2D2D2F"/><path d="M905 630h2c.98 6.05.98 6.05 1 8l-2 2c-2.57-3.85-1.83-5.59-1-10" fill="#D5D5D7"/><path d="M759 375h2c1.98 2.92 1.99 4.12 1.62 7.75L762 386h-2z" fill="#DFE2DF"/><path d="M657 193a29 29 0 0 1 9 5h-2v2h-2v-2h-2v-2h-4z" fill="#25190A"/><path d="m708 184 2 4-4 2v2l-4-1z" fill="#291C09"/><path d="m601 151 3 1v8l-2 1-1.66-6.93L600 152z" fill="#291F05"/><path d="m494 666 7 5-1 2c-4.68-1.48-4.68-1.48-6.31-4.12L493 667z" fill="#1D1D1D"/><path d="M564 37c4.04 1.79 6.64 3.21 9 7l-3 1-3-2.88-1.69-1.61C564 39 564 39 564 37" fill="#E5E8E4"/><path d="M491 452h2l1 8-6-1 2-1c.62-3.06.62-3.06 1-6" fill="#D1D4D0"/><path d="M749 343c2.46 3.69 3.01 6.7 4 11h-2l-2-7h-2v-2h2z" fill="#262926"/><path d="M716 13c0 3 0 3-1.31 4.39L710 21l-2-2c2.37-2.62 4.94-4.26 8-6" fill="#E4E7E5"/><path d="M646 176a20 20 0 0 1 4.12 5.94l1.08 2.09c.8 1.97.8 1.97.8 4.97-3.4-3.07-5.88-6.14-6.19-10.81z" fill="#2C220C"/><path d="M652 170h4v6l4 1-4 1c-4-6.88-4-6.88-4-8" fill="#30230A"/><path d="m655 139 2 1c-1.05 2.62-1.65 3.79-4.12 5.25L651 146c0-3 0-3 2-5.19z" fill="#212012"/><path d="M673 133h11c-3.01 3.01-5.82 2.6-10 3z" fill="#BAAC7F"/><path d="m743 1 7 3-2 3-8-3z" fill="#DDE0DD"/><path d="M489 657h1l1 11c-2-1-2-1-3.25-3.81-.75-3.19-.75-3.19.13-5.57z" fill="#EEEEEF"/><path d="M917 687c2 2 2 2 2 4l-6 2-2-2 6-2z" fill="#222321"/><path d="m491 666 7 6-1 2c-3.37-1.39-4.99-2.98-7-6z" fill="#D6D7D7"/><path d="M465 594h4l4 7c-3.8-1.49-5.61-3.76-8-7" fill="#E0E4E0"/><path d="M894.56 575.81c2.44 1.2 2.44 1.2 3.44 3.2h-7l-1-3c2-1 2-1 4.56-.2" fill="#E5E7E6"/><path d="m804 554 3 2-2 6h-3z" fill="#DCDEDF"/><path d="m657 183 2 2c-1.88 4.75-1.88 4.75-3 7l-3-4 2-2v-2z" fill="#D9B957"/><path d="m587 166 1 4h2l-2 4-3-1z" fill="#CCB360"/><path d="M651 164h3v4h2v2l-5-1z" fill="#1D1405"/><path d="m614 697 2 2c-.38 2.12-.38 2.12-1 4l-4 1c1.88-4.75 1.88-4.75 3-7" fill="#DBDDDC"/><path d="m886 574 4 2v2l-8-1z" fill="#D5D7D5"/><path d="M519 302c1 3 1 3-.31 5.69L517 310h-2c1.75-5.75 1.75-5.75 4-8" fill="#E8EAEB"/><path d="M752 222h1c-.25 3.38-.25 3.38-1 7-2.06 1.44-2.06 1.44-4 2a93 93 0 0 1 4-9" fill="#D4D7D2"/><path d="m546 191 7 4v1h-7z" fill="#291E0A"/><path d="M592 173c-5.75 5-5.75 5-8 5l1-5c3.01-.93 3.87-1.04 7 0" fill="#E7C759"/><path d="M654 146c1.23 3.69.64 6.21 0 10h-2c-.69-1.62-.69-1.62-1-4 1.44-3.25 1.44-3.25 3-6" fill="#241E14"/><path d="m735.13 2.44 2.75.3 2.13.26v1l-1.87.19a293 293 0 0 0-4.87.5c-2.26.3-2.26.3-5.26 1.3V3c2.62-1.3 4.23-.88 7.12-.55" fill="#C2C5C2"/><path d="m537 673-1 3-9-1v-1c6.62-1 6.62-1 10-1" fill="#D0D1CD"/><path d="M535 670c2.31 1.38 2.31 1.38 4 3l-8 1-1-2c2.25-1.19 2.25-1.19 5-2" fill="#1F201C"/><path d="M766 616h6v3h-6z" fill="#F1F4F1"/><path d="M851 614h8l-1 3-7-1z" fill="#EDF0ED"/><path d="M456 575a34 34 0 0 1 4 5c-.25 2.31-.25 2.31-1 4-2.06-2.81-2.06-2.81-4-6z" fill="#E1E4E1"/><path d="m840 569 4 1v2h-11v-1h7z" fill="#BCBEBF"/><path d="M493 364h2l-1 7h-3z" fill="#EFF0F1"/><path d="m666 185 11 1v1l-9 1v-2z" fill="#E9CE6D"/><path d="m599 178 1 3c-1.38 2.69-1.38 2.69-3 5h-1c-.19-2.88-.19-2.88 0-6z" fill="#D8BE6D"/><path d="M568 180h9c-1.69 1.56-1.69 1.56-4 3-2.75-.31-2.75-.31-5-1z" fill="#282107"/><path d="m571 136-1 2h-8l1-2c3.28-.95 4.7-1.1 8 0" fill="#271F12"/><path d="M680 47h2v4c-2 1.75-2 1.75-4 3l-2-1q1.91-3.06 4-6" fill="#1E201F"/><path d="M709 694h1l.44 2.38C711 699 711 699 712 701l-2 3h-2z" fill="#C4C8C4"/><path d="M699 676c3.74 1.25 4.19 2.63 6 6h-4z" fill="#222421"/><path d="m758 664 2 4-4 4-1-3c1.44-2.69 1.44-2.69 3-5" fill="#212324"/><path d="m752 641 4 1 1 5a107 107 0 0 1-5-4z" fill="#D7D9DB"/><path d="m954 616 3 4-2 4c-2-3-2-3-1.62-5.69z" fill="#2F322F"/><path d="M440 489h2l-1 9c-2.15-3.22-2.29-4.28-2-8z" fill="#DADDDB"/><path d="m769 454 2 1q2.31.33 4.62.56l2.48.26 1.9.18v1h-12l-1-2z" fill="#DADBD5"/><path d="m537 172 1 3h2v7c-3.01-3.01-2.6-5.82-3-10" fill="#D9C67C"/><path d="m578 134 6 2-2 4-3-1v-2z" fill="#C8B469"/><path d="m716 15 4 2-7 4c0-3 0-3 1.5-4.69z" fill="#1F221F"/></svg>