<svg style="background:transparent" version="1.1" xmlns="http://www.w3.org/2000/svg" viewBox="0 0 1248 704"><path d="M979.69 105.81h3.42c8.75.05 8.75.05 12.89 1.2l3 .24c4.66.61 8.77 2.62 13.04 4.5a53 53 0 0 0 6.17 2.3c2.66.9 4.66 2.06 6.95 3.68 3.33 2.3 6.8 4.36 10.26 6.5A41 41 0 0 1 1042 130q1.59 1.32 3.19 2.62c7.04 6.03 12.79 13.13 18.19 20.63q.6.86 1.26 1.75a73 73 0 0 1 6.36 11l1.28 2.45c2.8 5.4 5.06 10.7 6.72 16.55l.63 2.03c2.1 7.82 3.17 17.65.02 25.2-4.07 6.84-8.9 12.26-16.81 14.33-6.81 1.12-11.6-.4-17.27-4.18-3.83-2.85-6.61-4.97-8.57-9.38q-1.17-1.86-2.37-3.69c-2.7-4.26-4.7-8.67-6.63-13.3l-1.56-3.64a222 222 0 0 1-2.75-6.75c-5.53-11.89-13.87-20.47-25.95-25.75-10.68-3.4-24.46-3.48-34.74 1.13q-1.26.44-2.56.87c-9.1 4.2-18.37 10.38-23.44 19.13l-3.12 4.5A36 36 0 0 0 929 196q-1.43 3.02-3 5.97c-1 2.03-1 2.03-1.87 4.27-1.81 4.42-4.04 8.62-6.21 12.87a85 85 0 0 0-3.92 8.57c-1.25 2.9-2.97 4.97-5 7.38-2.41 2.88-4.47 5.5-6 8.94h-2l-.2 1.7c-1.51 4.32-5.25 6.86-8.73 9.67a40 40 0 0 0-6 6.13c-4.21 5.07-9.46 8.16-15.07 11.5a847 847 0 0 0-6.91 4.8c-2.1 1.2-2.1 1.2-5.1 1.2l1.89 4.75 1.05 2.67c1.7 4.11 3.82 7.9 6 11.77a62 62 0 0 1 5.43 12.83 16 16 0 0 0 1.62 3.85 25 25 0 0 1 2.02 6.21l.5 2.33.5 2.4 1 4.71.5 2.33c.5 2.15.5 2.15 1.57 5.35 2.8 11.4 2.09 23.76 2.06 35.45v15.59a110 110 0 0 1-.91 13.8C882 405 882 405 882 408.25c0 2.74-.46 5.07-1 7.75v2.87c0 2.72-.3 5.2-.71 7.87-.54 4.27-.74 8.57-1.01 12.86-.28 3.4-.28 3.4-.81 6.35-.56 3.64-.53 7.11-.47 10.8.1 7.03.1 7.03-1 9.25-.21 4.52-.18 9.06-.18 13.6q0 3.35-.04 6.71c-.03 8.45.58 16.37 2.22 24.7q.27 2.07.5 4.18a85 85 0 0 0 4.07 17.37c1.45 4.17 1.99 8.05 2.43 12.44l1 4c1.76 8.2 2.67 16.44 3.54 24.76.26 2.5.57 4.94.96 7.41 2 15.18 1.62 30.43 1.57 45.7l-.02 7.62L893 653l1.96.47 8.92 2.22 3.07.74c10.45 2.64 18.5 5.78 25.05 14.57-1.41 5.33-4.44 8.16-9 11-16.8 8.06-38.67 9.84-57 11l-2.9.18c-49.18 2.8-99.05-1.25-148.2-4-83.26-4.67-166.41-3.7-249.46 4.07l-3.23.3a552 552 0 0 0-33.44 4c-41.3 6.41-82.37 7.3-124.08 7.37l-14.26.05q-12.5.07-25.03.01a801 801 0 0 0-8.5 0q-5.86.01-11.74-.06l-3.48.04c-7.64-.16-7.64-.16-10.76-2.58A37 37 0 0 1 227 697l-3 1-3-4 3-2c.3-3.04.3-3.04.19-6.63l-.08-3.6L224 679l-2.35 1.2c-13.73 6.74-25.08 9.4-39.8 4.5-7.26-2.73-13.44-7.67-16.85-14.7-2.28-7.8-2.7-13.73 1-21q.63-1.5 1.25-3.07c4.07-6.83 9.48-10.92 16.75-13.93l2.33-1.12c3.3-1.09 5.89-.87 9.36-.63 8.67.13 13.78-2.89 19.94-8.75L218 619q1.65-1.2 3.35-2.37c5.79-4.29 10.76-9.44 15.83-14.55q2.56-2.58 5.15-5.14l3.29-3.29 1.55-1.54c2.5-2.55 4.4-4.83 5.83-8.1 1.59-1.54 1.59-1.54 3.38-2.95a37 37 0 0 0 9.06-10.56c1.84-2.95 4.08-5.08 6.56-7.5a225 225 0 0 0 7.76-10l2.62-3.54c3.29-4.35 3.29-4.35 6.62-5.46a93 93 0 0 0 2-4q1.95-2.74 3.98-5.42C296 533 296 533 296 531l-3.07-1.39-4.05-1.86-2.02-.9c-13.05-6.03-23.2-15.79-30.86-27.85-.66-2.09-.66-2.09-1-4a187 187 0 0 0-4.56-13 69 69 0 0 1-3.01-10.92 95 95 0 0 0-2.36-9.08c-1.51-5.24-2.27-10.63-3.13-16l-.53-3.2c-.66-4.04-1.31-8.08-1.87-12.15-.6-3.98-1.32-7.9-2.1-11.86l-.45-2.32-1.42-7.28-.95-4.86-.93-4.73-.45-2.3q-1.18-5.98-2.43-11.93a82 82 0 0 1-1.37-12.5c-.2-4.06-.4-8.05-1.13-12.06-.58-7.16.4-15.35 3.69-21.8 1.88-1.78 1.88-1.78 4-3.26l2.13-1.52c3.83-2.52 6.22-2.44 10.73-1.92 8.44 1.84 16.33 6.31 24.04 10.08l2.5 1.22q2.4 1.16 4.78 2.37c8.85 4.33 15.7 6 25.23 2.8l2.84-1.03 2.89-.99q3.94-1.36 7.86-2.76c3.42-1.2 6.52-2.22 10.13-2.57C333 341 333 341 335 340.5s2-.5 5.44-.94l2.09-.27q2.8-.33 5.6-.55c8-.87 12.63-2.56 17.87-8.74q2.5-3.18 4.78-6.5L372 322h2l.27-1.75c.92-2.84 2.27-4.16 4.37-6.26l2.25-2.24 2.36-2.32 2.32-2.32c4.54-4.5 8.5-8.08 14.62-10.24 5.77.2 9.62 3.3 13.8 7.13a21 21 0 0 1 2 4l1.45 2.81a95 95 0 0 1 6.8 18.42c1.09 3.98 2.42 7.87 3.76 11.77l2.24 6.73 1.58 4.66c1.32 3.85 2.53 7.58 3.18 11.61 6.24 0 10.62-1.62 16.08-4.48 4.5-2.35 9.07-4.54 13.63-6.78 3.29-1.74 3.29-1.74 6.2-3.7a97 97 0 0 1 11.22-6.17l2.13-1.05 7.95-3.89c2.17-1.13 4.22-2.4 6.29-3.68 4.8-2.92 9.76-5.4 14.8-7.87a53 53 0 0 0 6.14-3.63A32 32 0 0 1 527 319c4.48-2.1 8.68-4.73 12.93-7.25 3.92-2.24 7.95-4.2 12-6.19 4.08-2.08 8-4.38 11.95-6.69A75 75 0 0 1 574 294c3.05-1.5 6.06-3.1 9.07-4.69l2.55-1.34a318 318 0 0 0 17.03-9.7A22 22 0 0 1 609 276q2.53-1.46 5-3c2.89-1.54 5.88-2.8 8.9-4.09 4.4-1.9 8.74-3.92 13.1-5.9a704 704 0 0 1 18-8l3.3-1.45c6.83-2.9 13.55-5.58 20.7-7.56q1.95-.7 3.88-1.44L686 243l1.98-.76c6-2.15 12.12-3.34 18.37-4.5 3.65-.74 3.65-.74 7.33-1.8a41 41 0 0 1 7.82-1.5c3.86-.36 7.67-.89 11.5-1.44 12.95-1.75 24.97-2.33 38-1l5.75.5c7.5.7 14.36 1.96 21.56 4.22 5.12 1.6 10.2 2.87 15.47 3.85 2.22.43 2.22.43 4.3 1.06 3.3.63 6.03-1.2 8.92-2.63l2.94-1.38c6.02-3.19 11.39-6.66 16.42-11.29 1.78-1.45 3.59-2.32 5.64-3.33 3.7-3.34 6.26-6.86 9-11l3.8-4.5c4.2-5.14 6.94-10.54 9.76-16.5 1.44-3 1.44-3 3.44-6l.94-2.88c1.04-3.06 2.38-5.37 4.06-8.12q1.53-3.5 3-7c1.98-4.44 4.44-8.04 7.39-11.85a115 115 0 0 0 4.68-6.9A30 30 0 0 1 906 140q2.54-2.99 5-6c12.67-13.4 29.54-20.92 47.1-25.48a82 82 0 0 0 5.1-1.65c5.5-1.27 10.87-1.12 16.49-1.06" fill="#121512"/><path d="M979.69 105.81h3.42c8.75.05 8.75.05 12.89 1.2l3 .24c4.66.61 8.77 2.62 13.04 4.5a53 53 0 0 0 6.17 2.3c2.66.9 4.66 2.06 6.95 3.68 3.33 2.3 6.8 4.36 10.26 6.5A41 41 0 0 1 1042 130q1.59 1.32 3.19 2.62c7.04 6.03 12.79 13.13 18.19 20.63q.6.86 1.26 1.75a73 73 0 0 1 6.36 11l1.28 2.45c2.8 5.4 5.06 10.7 6.72 16.55l.63 2.03c2.1 7.82 3.17 17.65.02 25.2-4.07 6.84-8.9 12.26-16.81 14.33-6.81 1.12-11.6-.4-17.27-4.18-3.83-2.85-6.61-4.97-8.57-9.38q-1.17-1.86-2.37-3.69c-2.7-4.26-4.7-8.67-6.63-13.3l-1.56-3.64a222 222 0 0 1-2.75-6.75c-5.53-11.89-13.87-20.47-25.95-25.75-10.68-3.4-24.46-3.48-34.74 1.13q-1.26.44-2.56.87c-9.1 4.2-18.37 10.38-23.44 19.13l-3.12 4.5A36 36 0 0 0 929 196q-1.43 3.02-3 5.97c-1 2.03-1 2.03-1.87 4.27-1.81 4.42-4.04 8.62-6.21 12.87a85 85 0 0 0-3.92 8.57c-1.25 2.9-2.97 4.97-5 7.38-2.41 2.88-4.47 5.5-6 8.94h-2l-.2 1.7c-1.51 4.32-5.25 6.86-8.73 9.67a40 40 0 0 0-6 6.13c-4.21 5.07-9.46 8.16-15.07 11.5a847 847 0 0 0-6.91 4.8c-2.1 1.2-2.1 1.2-5.1 1.2l1.89 4.75 1.05 2.67c1.7 4.11 3.82 7.9 6 11.77a62 62 0 0 1 5.43 12.83 16 16 0 0 0 1.62 3.85 25 25 0 0 1 2.02 6.21l.5 2.33.5 2.4 1 4.71.5 2.33c.5 2.15.5 2.15 1.57 5.35 2.8 11.4 2.09 23.76 2.06 35.45v15.59a110 110 0 0 1-.91 13.8C882 405 882 405 882 408.25c0 2.74-.46 5.07-1 7.75v2.87c0 2.72-.3 5.2-.71 7.87-.54 4.27-.74 8.57-1.01 12.86-.28 3.4-.28 3.4-.81 6.35-.56 3.64-.53 7.11-.47 10.8.1 7.03.1 7.03-1 9.25-.21 4.52-.18 9.06-.18 13.6q0 3.35-.04 6.71c-.03 8.45.58 16.37 2.22 24.7q.27 2.07.5 4.18a85 85 0 0 0 4.07 17.37c1.45 4.17 1.99 8.05 2.43 12.44l1 4c1.76 8.2 2.67 16.44 3.54 24.76.26 2.5.57 4.94.96 7.41 2 15.18 1.62 30.43 1.57 45.7l-.02 7.62L893 653l1.96.47 8.92 2.22 3.07.74c10.45 2.64 18.5 5.78 25.05 14.57-1.41 5.33-4.44 8.16-9 11-16.8 8.06-38.67 9.84-57 11l-2.9.18c-49.18 2.8-99.05-1.25-148.2-4-83.25-4.67-166.42-3.74-249.46 4.07l-3.17.3a935 935 0 0 0-36.97 4.27 3102 3102 0 0 1-21.18 2.76C365.86 705.46 327.5 704.8 289 704a80 80 0 0 1 9.94-6.38 464 464 0 0 0 18.19-10.87q10.16-6.35 20.44-12.5a2975 2975 0 0 0 66.66-40.9c11.82-7.4 23.45-15.07 35.02-22.85l12.5-8.39c12.35-8.27 12.35-8.27 19.94-9.68 12.4-2.34 24.3-5.88 36.25-9.87l2.38-.79c42.2-14.14 82.84-33.99 121.75-55.52 8.9-4.9 17.9-9.63 26.88-14.38l2-1.06 3.85-2.03a239 239 0 0 0 12.47-7.07c1.73-.7 1.73-.7 4.73.3a64 64 0 0 1 2.44 6.8l.66 2.06q1.44 4.6 2.83 9.23c7.8 25.1 23.63 46.8 42.2 65 .28.25.28.25 1.62 1.58l6.6 6.43c8.92 8.61 18.19 17.64 18.85 30.75l-.07 4.01-.03 2.1q-.03 2.5-.1 5.03l-2.34.26c-6.3.85-10.97 1.94-16.13 5.71C737 642 737 642 735 642c-4.12 7.61-6.11 14.32-5 23 1.94 4.98 4.73 6.58 9.38 8.81 8.46 3.68 16.86 3.37 25.93 3.38l3.89.03c10.54.02 20.18-.6 28.8-7.22 5.83-6.2 7.88-13.95 10-22l.65-2.23c2.88-10.22 2.59-21.14 2.65-31.68q0-2.25.06-4.54c.22-11.22-1.23-20.76-4.36-31.55l-2-8c5.32 2.4 9.53 6.31 14 10l2.15 1.7c12.7 10.4 18.72 24.3 20.85 40.3.32 6 .19 12 0 18-6.84 1.96-6.84 1.96-9.37 2.64-7.78 2.3-13.57 5.86-17.63 13.05-2.75 6.2-3.1 12.04-1.4 18.6 2.03 5 5.09 7.25 9.79 9.7 8.04 3.11 15.43 3.34 23.99 3.32l3.54.05c8.8 0 17.19-.84 24.58-6.05 3.33-2.3 3.33-2.3 5.5-2.3 6.67-13.14 8.32-25.73 8.27-40.38v-3.75l-.01-7.8q-.01-5.86.02-11.72c0-19.92-.81-39.63-4.53-59.24l-.64-3.5a403 403 0 0 0-6.05-26.84c-3.68-14.4-4.4-28.44-4.31-43.22v-2.7a620 620 0 0 1 3.05-59.07c6.22-63.16 6.22-63.16-1.8-92.79l-.91-3.8a142 142 0 0 0-15.7-37.29c-1.48-2.6-2.37-4.58-2.5-7.6 1.62-3.36 4.22-4.47 7.42-6.06 30.9-16.54 47.2-43.46 60.45-74.72 8.08-18.98 20.2-33.75 39.55-41.9 11.24-4.4 24.38-4 35.45.48 17.62 8 26.89 22.27 33.65 39.61 3.96 10.04 8.9 19.7 18.43 25.37 5.16 2.16 11.34 1.51 16.54-.22 5.22-3.73 7.98-7.73 9.62-13.87 2.14-24.44-9.6-45.06-24.83-63.5-16.38-18.83-38.53-32.63-63.87-34.73-30.02-1.63-54.68 8.07-77.16 27.87-13.74 13.01-22.1 30.37-29.51 47.47-11.68 26.62-31.25 46.35-57.1 59.11-6.9 2.12-12.91-.03-19.53-2.03a191 191 0 0 0-94-2.19l-3.1.71c-43.57 10.32-83.82 30.93-123.46 51.22l-2.38 1.22a449 449 0 0 0-24.57 13.4 130 130 0 0 1-9.5 4.95 666 666 0 0 0-22.5 11.7l-1.82.97q-12.4 6.66-24.8 13.4l-2.92 1.57q-7.79 4.22-15.55 8.46c-12.62 6.87-25.3 13.51-38.4 19.4l-1.96.9c-2.87 1.28-4.86 2.1-8.04 2.1l-.36-1.64a296 296 0 0 0-9.24-33.28c-1.25-3.6-2.31-7.23-3.33-10.89-2.85-9.3-6.33-18.25-15.07-23.19-4.25-.95-6.72.18-10.31 2.37-7.3 5.22-12.65 12.33-18.25 19.25A146 146 0 0 1 363 336q-.89 1-1.78 2.04c-2.61 2.3-4.07 2.63-7.48 3.08l-3.11.45-3.32.43q-3.4.49-6.83 1.01l-3.37.5a172 172 0 0 0-25.28 6.11l-2.68.84q-2.56.82-5.11 1.7c-12.31 3.97-21.23-1.2-32.23-6.6l-6.48-3.13-4-1.94c-7.01-3.4-13.48-5.8-21.33-4.49-3.16 2.43-4.8 4.7-7 8-.45 4.44-.33 8.91-.31 13.37v3.98c.23 17.7 3.56 34.48 7.12 51.76q1.5 7.4 2.82 14.82l.36 2.06a305 305 0 0 1 1.58 10c1.44 9.94 3.74 19.61 6.3 29.32l1 3.8c5.39 19.93 12.42 37.52 31.07 48.26A95 95 0 0 0 301 529c-1.37 4-3.2 6.72-5.93 9.93q-5.32 6.34-10.38 12.88a474 474 0 0 1-16.15 19.41l-4.72 5.52c-4.6 5.43-9.15 10.78-14.27 15.72a78 78 0 0 0-4.55 5.04c-9.01 10.41-18.97 20.24-30 28.5l-2.52 2.06c-6.45 4.81-11.5 5.47-19.26 5.6-8.01.2-14 2.68-19.6 8.53-4.82 6.33-7.4 13.44-7 21.42 1.09 6.9 4.4 10.97 9.89 15.06a45.8 45.8 0 0 0 32.83 3.7c7.1-2.52 13.48-6.1 19.66-10.37l2 1q-.75 1.6-1.5 3.25c-2.05 5.51-2.23 10.94-1.5 16.75 2.2 4.48 5.38 7.58 9 11-2.71-.16-4.46-.48-6.44-2.4q-1.83-2.26-3.56-4.6l-3 1-3-4 3-2c.3-3.04.3-3.04.19-6.63l-.08-3.6L224 679l-2.35 1.2c-13.73 6.74-25.08 9.4-39.8 4.5-7.26-2.73-13.44-7.67-16.85-14.7-2.28-7.8-2.7-13.73 1-21q.63-1.5 1.25-3.07c4.07-6.83 9.48-10.92 16.75-13.93l2.33-1.12c3.3-1.09 5.89-.87 9.36-.63 8.67.13 13.78-2.89 19.94-8.75L218 619q1.65-1.2 3.35-2.37c5.79-4.29 10.76-9.44 15.83-14.55q2.56-2.58 5.15-5.14l3.29-3.29 1.55-1.54c2.5-2.55 4.4-4.83 5.83-8.1 1.59-1.54 1.59-1.54 3.38-2.95a37 37 0 0 0 9.06-10.56c1.84-2.95 4.08-5.08 6.56-7.5a225 225 0 0 0 7.76-10l2.62-3.54c3.29-4.35 3.29-4.35 6.62-5.46a93 93 0 0 0 2-4q1.95-2.74 3.98-5.42C296 533 296 533 296 531l-3.07-1.39-4.05-1.86-2.02-.9c-13.05-6.03-23.2-15.79-30.86-27.85-.66-2.09-.66-2.09-1-4a187 187 0 0 0-4.56-13 69 69 0 0 1-3.01-10.92 95 95 0 0 0-2.36-9.08c-1.51-5.24-2.27-10.63-3.13-16l-.53-3.2c-.66-4.04-1.31-8.08-1.87-12.15-.6-3.98-1.32-7.9-2.1-11.86l-.45-2.32-1.42-7.28-.95-4.86-.93-4.73-.45-2.3q-1.18-5.98-2.43-11.93a82 82 0 0 1-1.37-12.5c-.2-4.06-.4-8.05-1.13-12.06-.58-7.16.4-15.35 3.69-21.8 1.88-1.78 1.88-1.78 4-3.26l2.13-1.52c3.83-2.52 6.22-2.44 10.73-1.92 8.44 1.84 16.33 6.31 24.04 10.08l2.5 1.22q2.4 1.16 4.78 2.37c8.85 4.33 15.7 6 25.23 2.8l2.84-1.03 2.89-.99q3.94-1.36 7.86-2.76c3.42-1.2 6.52-2.22 10.13-2.57C333 341 333 341 335 340.5s2-.5 5.44-.94l2.09-.27q2.8-.33 5.6-.55c8-.87 12.63-2.56 17.87-8.74q2.5-3.18 4.78-6.5L372 322h2l.27-1.75c.92-2.84 2.27-4.16 4.37-6.26l2.25-2.24 2.36-2.32 2.32-2.32c4.54-4.5 8.5-8.08 14.62-10.24 5.77.2 9.62 3.3 13.8 7.13a21 21 0 0 1 2 4l1.45 2.81a95 95 0 0 1 6.8 18.42c1.09 3.98 2.42 7.87 3.76 11.77l2.24 6.73 1.58 4.66c1.32 3.85 2.53 7.58 3.18 11.61 6.24 0 10.62-1.62 16.08-4.48 4.5-2.35 9.07-4.54 13.63-6.78 3.29-1.74 3.29-1.74 6.2-3.7a97 97 0 0 1 11.22-6.17l2.13-1.05 7.95-3.89c2.17-1.13 4.22-2.4 6.29-3.68 4.8-2.92 9.76-5.4 14.8-7.87a53 53 0 0 0 6.14-3.63A32 32 0 0 1 527 319c4.48-2.1 8.68-4.73 12.93-7.25 3.92-2.24 7.95-4.2 12-6.19 4.08-2.08 8-4.38 11.95-6.69A75 75 0 0 1 574 294c3.05-1.5 6.06-3.1 9.07-4.69l2.55-1.34a318 318 0 0 0 17.03-9.7A22 22 0 0 1 609 276q2.53-1.46 5-3c2.89-1.54 5.88-2.8 8.9-4.09 4.4-1.9 8.74-3.92 13.1-5.9a704 704 0 0 1 18-8l3.3-1.45c6.83-2.9 13.55-5.58 20.7-7.56q1.95-.7 3.88-1.44L686 243l1.98-.76c6-2.15 12.12-3.34 18.37-4.5 3.65-.74 3.65-.74 7.33-1.8a41 41 0 0 1 7.82-1.5c3.86-.36 7.67-.89 11.5-1.44 12.95-1.75 24.97-2.33 38-1l5.75.5c7.5.7 14.36 1.96 21.56 4.22 5.12 1.6 10.2 2.87 15.47 3.85 2.22.43 2.22.43 4.3 1.06 3.3.63 6.03-1.2 8.92-2.63l2.94-1.38c6.02-3.19 11.39-6.66 16.42-11.29 1.78-1.45 3.59-2.32 5.64-3.33 3.7-3.34 6.26-6.86 9-11l3.8-4.5c4.2-5.14 6.94-10.54 9.76-16.5 1.44-3 1.44-3 3.44-6l.94-2.88c1.04-3.06 2.38-5.37 4.06-8.12q1.53-3.5 3-7c1.98-4.44 4.44-8.04 7.39-11.85a115 115 0 0 0 4.68-6.9A30 30 0 0 1 906 140q2.54-2.99 5-6c12.67-13.4 29.54-20.92 47.1-25.48a82 82 0 0 0 5.1-1.65c5.5-1.27 10.87-1.12 16.49-1.06" fill="#B9BBB9"/><path d="M682 502a67 67 0 0 1 2.44 6.81l.65 2.07q1.46 4.6 2.84 9.22c7.81 25.09 23.62 46.81 42.21 64.99l1.61 1.59q3.3 3.23 6.61 6.43c8.91 8.62 18.17 17.64 18.84 30.76q-.02 2-.08 4.01l-.02 2.08-.1 5.04-2.24.23c-8.01 1.03-13.94 3.5-20.76 7.77v-2c-64.91-2.97-129.79-2.7-194.71-.13l-8.96.34c-25.18.95-50.13 3.56-75.15 6.43l-9.77 1.1c-24.03 2.68-47.99 5.4-71.78 9.78q-4.3.78-8.63 1.48c1.23-3.68 2.19-4 5.46-5.93l2.84-1.7 3.08-1.81 6.37-3.81 3.22-1.93c6.56-3.94 13.01-8.07 19.46-12.18l8.43-5.35a1124 1124 0 0 0 35.91-23.71c14.1-9.7 14.1-9.7 21.92-11.14 12.39-2.35 24.3-5.89 36.25-9.88l2.38-.79c42.2-14.14 82.83-33.99 121.75-55.52 8.9-4.91 17.9-9.62 26.88-14.38l2-1.05 3.84-2.04q6.35-3.34 12.48-7.07C679 501 679 501 682 502" fill="#ECEEEC"/><path d="M697 416h2l2.31 7.81.7 2.35q1.9 6.43 3.61 12.9A125 125 0 0 0 710 452l2.19 5.88 1.04 2.8C714 463 714 463 714 465l3 1c1.52 3.6 2 6.05 2 10l2 1q1.29 1.92 2.43 3.95l1.46 2.49 1.55 2.68a209 209 0 0 0 14.08 21.21c2.13 2.79 4.07 5.44 5.48 8.67h2c1.3 1.29 1.3 1.29 2.88 3.19a255 255 0 0 0 34.46 33.61c3.2 2.65 6.26 5.43 9.3 8.28C797 563 797 563 798.93 564c4.3 2.26 6.49 3.98 8.13 8.65q.73 2.64 1.38 5.29l.73 2.67a80 80 0 0 1 3 21.1l.01 2.23.01 4.64q0 3.48.03 6.95c.08 18.56-1.83 37.11-11.91 53.16-8.59 8.59-19.38 9.56-30.97 9.58l-3.84-.02-3.84.02c-10.72-.02-19.76-.9-28.66-7.27-3.55-3.63-4.26-6.45-4.44-11.38.27-6.45 1.53-11.27 5.63-16.31 5.93-4.87 11.2-8.5 19.06-8.37l3.75.06c-.63-23.56-12.19-34.52-28.32-50.2-19.44-18.95-34.53-41.44-42.65-67.51a98 98 0 0 0-2.84-7.85A21 21 0 0 1 682 500l-2-1h5v-2l1.69-.73q7.75-3.42 15.31-7.27a236 236 0 0 0-1.94-18.38A334 334 0 0 1 697 416" fill="#010101"/><path d="M979.69 105.81h3.42c8.75.05 8.75.05 12.89 1.2l3 .24c4.66.61 8.77 2.62 13.04 4.5a53 53 0 0 0 6.17 2.3c2.66.9 4.66 2.06 6.95 3.68 3.33 2.3 6.8 4.36 10.26 6.5A41 41 0 0 1 1042 130q1.59 1.32 3.19 2.62c7.04 6.03 12.79 13.13 18.19 20.63q.6.86 1.26 1.75a73 73 0 0 1 6.36 11l1.28 2.45c2.8 5.4 5.06 10.7 6.72 16.55l.63 2.03c2.1 7.82 3.17 17.65.02 25.2-4.07 6.84-8.9 12.26-16.81 14.33-6.81 1.12-11.6-.4-17.27-4.18-3.83-2.85-6.61-4.97-8.57-9.38q-1.17-1.86-2.37-3.69c-2.7-4.26-4.7-8.67-6.63-13.3l-1.56-3.64a222 222 0 0 1-2.75-6.75c-5.53-11.89-13.87-20.47-25.95-25.75-10.68-3.4-24.46-3.48-34.74 1.13q-1.26.44-2.56.87c-9.1 4.2-18.37 10.38-23.44 19.13l-3.12 4.5A36 36 0 0 0 929 196q-1.43 3.02-3 5.97c-1 2.03-1 2.03-1.87 4.27-1.81 4.42-4.04 8.62-6.21 12.87a85 85 0 0 0-3.92 8.57c-1.25 2.9-2.97 4.97-5 7.38-2.41 2.88-4.47 5.5-6 8.94h-2l-.2 1.7c-1.51 4.32-5.25 6.86-8.73 9.67a40 40 0 0 0-6 6.13c-4.21 5.07-9.46 8.16-15.07 11.5a847 847 0 0 0-6.91 4.8c-2.1 1.2-2.1 1.2-5.1 1.2l1.89 4.75 1.05 2.67c1.7 4.11 3.82 7.9 6 11.77a62 62 0 0 1 5.43 12.83 16 16 0 0 0 1.62 3.85 25 25 0 0 1 2.02 6.21l.5 2.33.5 2.4 1 4.71.5 2.33c.5 2.15.5 2.15 1.57 5.35 2.8 11.4 2.09 23.76 2.06 35.45v15.59a110 110 0 0 1-.91 13.8C882 405 882 405 882 408.25c0 2.74-.46 5.07-1 7.75v2.87c0 2.72-.3 5.2-.71 7.87-.54 4.27-.74 8.57-1.01 12.86-.28 3.4-.28 3.4-.81 6.35-.56 3.64-.53 7.11-.47 10.8.1 7.03.1 7.03-1 9.25-.21 4.52-.18 9.06-.18 13.6q0 3.35-.04 6.71c-.03 8.45.58 16.37 2.22 24.7q.27 2.07.5 4.18a85 85 0 0 0 4.07 17.37c1.45 4.17 1.99 8.05 2.43 12.44l1 4c1.76 8.2 2.67 16.44 3.54 24.76.26 2.5.57 4.94.96 7.41 2 15.18 1.62 30.43 1.57 45.7l-.02 7.62L893 653l1.96.47 8.92 2.22 3.07.74c10.45 2.64 18.5 5.78 25.05 14.57-1.41 5.33-4.44 8.16-9 11-16.8 8.06-38.67 9.84-57 11l-2.9.18c-49.18 2.8-99.05-1.25-148.2-4-98.3-5.5-196.1-2.6-293.87 8.92l-2.35.27q-11.56 1.36-23.08 2.77c-14.54 1.8-28.91 3.54-43.6 2.86v-1l15.19-1.88 2.29-.28a799 799 0 0 1 26.77-2.9c6.42-.57 12.76-1.35 19.13-2.32 35.1-5.27 70.78-7.6 106.19-9.75l3.73-.23a1079 1079 0 0 1 15.47-.77c24.78-1.13 49.56-1.1 74.36-1.12h3.34c29.58-.03 59.1.24 88.66 1.68l2.1.11c21.9 1.07 21.9 1.07 31.34 1.97 5.49.52 10.97.8 16.47 1.02q1.57.08 3.19.13 37.04 1.52 74.12 1.64l6.18.04c68.89.46 68.89.46 85.75-14.34 1.72-2 1.72-2 2.29-4.5-.81-3.58-2.6-4.42-5.57-6.5-7.65-3.48-15.87-5.57-24-7.66l-2.63-.69L890 655l-.02-2.2q-.12-10.43-.27-20.86l-.13-10.72c-.24-21.83-.75-43.58-4.83-65.1l-.64-3.5a403 403 0 0 0-6.05-26.84c-3.68-14.4-4.4-28.44-4.31-43.22v-2.7a620 620 0 0 1 3.05-59.07c6.22-63.16 6.22-63.16-1.8-92.79l-.91-3.8a142 142 0 0 0-15.7-37.29c-1.48-2.6-2.37-4.58-2.5-7.6 1.62-3.36 4.22-4.47 7.42-6.06 30.9-16.54 47.2-43.46 60.45-74.72 8.08-18.98 20.2-33.75 39.55-41.9 11.24-4.4 24.38-4 35.45.48 17.62 8 26.89 22.27 33.65 39.61 3.96 10.04 8.9 19.7 18.43 25.37 5.16 2.16 11.34 1.51 16.54-.22 5.22-3.73 7.98-7.73 9.62-13.87 2.14-24.44-9.6-45.06-24.83-63.5-16.38-18.83-38.53-32.63-63.87-34.73-30.02-1.63-54.68 8.07-77.16 27.87-13.74 13.01-22.1 30.37-29.51 47.47-11.68 26.62-31.25 46.35-57.1 59.11-6.9 2.12-12.91-.03-19.53-2.03a191 191 0 0 0-94-2.19l-3.1.71c-43.57 10.32-83.82 30.93-123.46 51.22l-2.38 1.22a449 449 0 0 0-24.57 13.4 130 130 0 0 1-9.5 4.95 666 666 0 0 0-22.5 11.7l-1.82.97q-12.4 6.66-24.8 13.4l-2.92 1.57q-7.79 4.22-15.55 8.46c-12.62 6.87-25.3 13.51-38.4 19.4l-1.96.9c-2.87 1.28-4.86 2.1-8.04 2.1l-.36-1.64a296 296 0 0 0-9.24-33.28c-1.25-3.6-2.31-7.23-3.33-10.89-2.85-9.3-6.33-18.25-15.07-23.19-4.25-.95-6.72.18-10.31 2.37-7.3 5.22-12.65 12.33-18.25 19.25A146 146 0 0 1 363 336q-.89 1-1.78 2.04c-2.61 2.3-4.07 2.63-7.48 3.08l-3.11.45-3.32.43q-3.4.49-6.83 1.01l-3.37.5a172 172 0 0 0-25.28 6.11l-2.68.84q-2.56.82-5.11 1.7c-12.31 3.97-21.23-1.2-32.23-6.6l-6.48-3.13-4-1.94c-7.01-3.4-13.48-5.8-21.33-4.49-3.16 2.43-4.8 4.7-7 8-.45 4.44-.33 8.91-.31 13.37v3.98c.23 17.7 3.56 34.48 7.12 51.76q1.5 7.4 2.82 14.82l.36 2.06a305 305 0 0 1 1.58 10c1.44 9.94 3.74 19.61 6.3 29.32l1 3.8c5.39 19.93 12.42 37.52 31.07 48.26A95 95 0 0 0 301 529c-1.37 4-3.2 6.72-5.93 9.93q-5.32 6.34-10.38 12.88a474 474 0 0 1-16.15 19.41l-4.72 5.52c-4.6 5.43-9.15 10.78-14.27 15.72a78 78 0 0 0-4.55 5.04c-9.01 10.41-18.97 20.24-30 28.5l-2.52 2.06c-6.45 4.81-11.5 5.47-19.26 5.6-8.01.2-14 2.68-19.6 8.53-4.82 6.33-7.4 13.44-7 21.42 1.09 6.9 4.4 10.97 9.89 15.06a45.8 45.8 0 0 0 32.83 3.7c7.1-2.52 13.48-6.1 19.66-10.37l2 1q-.75 1.6-1.5 3.25c-2.05 5.51-2.23 10.94-1.5 16.75 2.2 4.48 5.38 7.58 9 11-2.71-.16-4.46-.48-6.44-2.4q-1.83-2.26-3.56-4.6l-3 1-3-4 3-2c.3-3.04.3-3.04.19-6.63l-.08-3.6L224 679l-2.35 1.2c-13.73 6.74-25.08 9.4-39.8 4.5-7.26-2.73-13.44-7.67-16.85-14.7-2.28-7.8-2.7-13.73 1-21q.63-1.5 1.25-3.07c4.07-6.83 9.48-10.92 16.75-13.93l2.33-1.12c3.3-1.09 5.89-.87 9.36-.63 8.67.13 13.78-2.89 19.94-8.75L218 619q1.65-1.2 3.35-2.37c5.79-4.29 10.76-9.44 15.83-14.55q2.56-2.58 5.15-5.14l3.29-3.29 1.55-1.54c2.5-2.55 4.4-4.83 5.83-8.1 1.59-1.54 1.59-1.54 3.38-2.95a37 37 0 0 0 9.06-10.56c1.84-2.95 4.08-5.08 6.56-7.5a225 225 0 0 0 7.76-10l2.62-3.54c3.29-4.35 3.29-4.35 6.62-5.46a93 93 0 0 0 2-4q1.95-2.74 3.98-5.42C296 533 296 533 296 531l-3.07-1.39-4.05-1.86-2.02-.9c-13.05-6.03-23.2-15.79-30.86-27.85-.66-2.09-.66-2.09-1-4a187 187 0 0 0-4.56-13 69 69 0 0 1-3.01-10.92 95 95 0 0 0-2.36-9.08c-1.51-5.24-2.27-10.63-3.13-16l-.53-3.2c-.66-4.04-1.31-8.08-1.87-12.15-.6-3.98-1.32-7.9-2.1-11.86l-.45-2.32-1.42-7.28-.95-4.86-.93-4.73-.45-2.3q-1.18-5.98-2.43-11.93a82 82 0 0 1-1.37-12.5c-.2-4.06-.4-8.05-1.13-12.06-.58-7.16.4-15.35 3.69-21.8 1.88-1.78 1.88-1.78 4-3.26l2.13-1.52c3.83-2.52 6.22-2.44 10.73-1.92 8.44 1.84 16.33 6.31 24.04 10.08l2.5 1.22q2.4 1.16 4.78 2.37c8.85 4.33 15.7 6 25.23 2.8l2.84-1.03 2.89-.99q3.94-1.36 7.86-2.76c3.42-1.2 6.52-2.22 10.13-2.57C333 341 333 341 335 340.5s2-.5 5.44-.94l2.09-.27q2.8-.33 5.6-.55c8-.87 12.63-2.56 17.87-8.74q2.5-3.18 4.78-6.5L372 322h2l.27-1.75c.92-2.84 2.27-4.16 4.37-6.26l2.25-2.24 2.36-2.32 2.32-2.32c4.54-4.5 8.5-8.08 14.62-10.24 5.77.2 9.62 3.3 13.8 7.13a21 21 0 0 1 2 4l1.45 2.81a95 95 0 0 1 6.8 18.42c1.09 3.98 2.42 7.87 3.76 11.77l2.24 6.73 1.58 4.66c1.32 3.85 2.53 7.58 3.18 11.61 6.24 0 10.62-1.62 16.08-4.48 4.5-2.35 9.07-4.54 13.63-6.78 3.29-1.74 3.29-1.74 6.2-3.7a97 97 0 0 1 11.22-6.17l2.13-1.05 7.95-3.89c2.17-1.13 4.22-2.4 6.29-3.68 4.8-2.92 9.76-5.4 14.8-7.87a53 53 0 0 0 6.14-3.63A32 32 0 0 1 527 319c4.48-2.1 8.68-4.73 12.93-7.25 3.92-2.24 7.95-4.2 12-6.19 4.08-2.08 8-4.38 11.95-6.69A75 75 0 0 1 574 294c3.05-1.5 6.06-3.1 9.07-4.69l2.55-1.34a318 318 0 0 0 17.03-9.7A22 22 0 0 1 609 276q2.53-1.46 5-3c2.89-1.54 5.88-2.8 8.9-4.09 4.4-1.9 8.74-3.92 13.1-5.9a704 704 0 0 1 18-8l3.3-1.45c6.83-2.9 13.55-5.58 20.7-7.56q1.95-.7 3.88-1.44L686 243l1.98-.76c6-2.15 12.12-3.34 18.37-4.5 3.65-.74 3.65-.74 7.33-1.8a41 41 0 0 1 7.82-1.5c3.86-.36 7.67-.89 11.5-1.44 12.95-1.75 24.97-2.33 38-1l5.75.5c7.5.7 14.36 1.96 21.56 4.22 5.12 1.6 10.2 2.87 15.47 3.85 2.22.43 2.22.43 4.3 1.06 3.3.63 6.03-1.2 8.92-2.63l2.94-1.38c6.02-3.19 11.39-6.66 16.42-11.29 1.78-1.45 3.59-2.32 5.64-3.33 3.7-3.34 6.26-6.86 9-11l3.8-4.5c4.2-5.14 6.94-10.54 9.76-16.5 1.44-3 1.44-3 3.44-6l.94-2.88c1.04-3.06 2.38-5.37 4.06-8.12q1.53-3.5 3-7c1.98-4.44 4.44-8.04 7.39-11.85a115 115 0 0 0 4.68-6.9A30 30 0 0 1 906 140q2.54-2.99 5-6c12.67-13.4 29.54-20.92 47.1-25.48a82 82 0 0 0 5.1-1.65c5.5-1.27 10.87-1.12 16.49-1.06" fill="#E6E7E7"/><path d="m237 337 3 1v2l2.2-.11c5.85-.16 9.71-.03 14.8 3.11l4.5 2.06c4.54 2.28 8.67 4.96 12.81 7.88l1.78 1.23A47 47 0 0 1 286 364a168 168 0 0 1-9.81 9.25c-12.07 10.8-12.07 10.8-15.19 17.75h-2l-.19 2.44a20 20 0 0 1-3.19 7.5c-3.66 6.18-4.49 13.07-5.62 20.06l-3 1c-2.84-5.67-4.04-11.39-5.25-17.6-.75-3.4-.75-3.4-1.77-6.44a56 56 0 0 1-2.1-9.34l-.51-3.21L237 383h-1l-1 6h-1c-1.82-10.32-2.3-20.59-2.44-31.06l-.1-3.82c-.04-7.41.39-11.64 5.54-17.12" fill="#272925"/><path d="M404 300c8.85 4.06 12.43 14.32 15.84 22.86 1.59 4.3 2.96 8.64 4.24 13.04q.87 2.93 1.87 5.83c1.74 5.07 2.12 8.58 1.25 13.84-.32 3.96.55 7.67 1.33 11.54.49 3.01.55 5.84.47 8.89h-2c-3-4.38-3-4.38-3-7l-1.75-.81c-3.06-1.62-5.63-3.72-8.35-5.85C412 361 412 361 409 360v-2l-1.94-.25a34 34 0 0 1-7.12-2.63c-9.12-4.16-19.09-5.64-28.94-7.12-.77-2.26-1.14-3.55-.4-5.86l1.02-1.9 1.14-2.13 1.24-2.23 1.25-2.31A141 141 0 0 1 386 317l2.94-4.12L391 310h-5c4.09-5.96 10.37-11.49 18-10" fill="#242623"/><path d="M805 570c5.32 2.4 9.53 6.31 14 10l2.15 1.7c12.71 10.39 18.72 24.29 20.85 40.3.31 6 .18 12 0 18l-3.21.91c-11.92 3.42-11.92 3.42-15.73 6.34-4.45 2.54-8.16 1.64-13.06.75l.22-2.93c.7-10.47.97-20.96 1.07-31.46q.02-2.26.07-4.53c.22-11.05-1.29-20.45-4.36-31.08q-1.02-4-2-8" fill="#ECEEED"/><path d="m369 558 4 2c-4.36 5.46-9.26 10.09-14.44 14.76a894 894 0 0 0-12.37 11.49l-2.14 2a350 350 0 0 0-9.56 9.3 169 169 0 0 1-9.46 8.68c-3.39 2.96-6.64 6.06-9.91 9.15-8.49 7.99-17.04 15.82-26.12 23.16q-4.24 3.49-8.35 7.11a459 459 0 0 1-7.15 6.08 132 132 0 0 0-3.57 3.15c-6.38 5.03-15.26 3.51-22.93 3.12 3.76-3.91 7.74-7.33 12-10.69l1.99-1.58q10.97-8.65 22.11-17.08a764 764 0 0 0 24.99-20.07q8.3-6.86 16.68-13.63a968 968 0 0 0 20.42-16.91c4.57-3.89 9.28-7.6 14.05-11.25A87 87 0 0 0 369 558" fill="#EBEAED"/><path d="M1012.04 111.75a53 53 0 0 0 6.17 2.3 25 25 0 0 1 6.95 3.68c3.33 2.3 6.82 4.37 10.26 6.49A42 42 0 0 1 1042 130q1.59 1.34 3.19 2.63c7.05 6.02 12.8 13.12 18.19 20.62l1.26 1.76A73 73 0 0 1 1071 166l1.29 2.46a88 88 0 0 1 6.7 16.54l.64 2.04c2.1 7.8 3.18 17.65.03 25.19-4.08 6.84-8.91 12.27-16.82 14.34-6.81 1.1-11.6-.4-17.26-4.2-3.84-2.83-6.62-4.95-8.58-9.37q-1.16-1.85-2.37-3.68c-2.7-4.26-4.7-8.68-6.63-13.32l-1.56-3.62a245 245 0 0 1-2.75-6.75c-5.53-11.9-13.86-20.47-25.95-25.75-10.68-3.41-24.46-3.48-34.74 1.12l-2.56.88c-9.1 4.2-18.36 10.38-23.44 19.12l-3.12 4.5A37 37 0 0 0 929 196q-1.43 3.02-3 5.98c-1 2.02-1 2.02-1.87 4.27-1.81 4.42-4.04 8.62-6.2 12.87a82 82 0 0 0-3.93 8.57c-1.25 2.89-2.97 4.97-5 7.38-2.41 2.88-4.47 5.49-6 8.93h-2l-1 4-5 1 2.38-3.06c11.09-14.95 19.18-30.42 26.45-47.54 8.07-18.93 20.18-33.63 39.49-41.77 11.23-4.4 24.37-4 35.45.49 17.6 7.99 26.89 22.27 33.64 39.6 3.97 10.04 8.9 19.7 18.43 25.38 5.16 2.16 11.35 1.5 16.54-.22 5.22-3.73 7.98-7.73 9.62-13.88 2.14-24.44-9.6-45.06-24.82-63.5-16.74-19.23-36.36-29.55-61.18-34.5 1-2 1-2 2.63-2.68 6.82-.9 12.27 1.73 18.4 4.43" fill="#E2E2E3"/><path d="m307.63 465.75 2.38-.03c6.09.03 12.47.52 18 3.28q.6 3.49 1 7 .46-2.46 1-5l5 5c-1 3-1 3-4.1 4.57q-1.99.8-3.98 1.56-.95.38-1.94.8c-4.69 1.84-8.98 2.62-13.99 3.07l-2.37.24c-9.01.34-17.12-3.11-24.1-8.71A12.4 12.4 0 0 1 281 471c8.23-4.89 17.25-5.18 26.62-5.25" fill="#131717"/><path d="m408.13 445.88 2.63-.01C413 446 413 446 415 447c-2.15 6.44-11.62 9.36-17.38 12.25-5.34 2.62-5.34 2.62-7.93 3.8-1.7.94-1.7.94-2.57 3.01L386 468q-3 .56-6 1a126 126 0 0 0-6.87 3.25c-2.49.88-3.69.63-6.13-.25-.4-4.18-.56-6.27 2-9.7 9.22-8 18.26-12.2 30-15.3l1.95-.57a33 33 0 0 1 7.17-.56" fill="#151513"/><path d="m360 481 3 2c-.44 4.64-.77 6.77-4 10v6c-3 2-3 2-5.69 1.62L351 500l-1-5-2.94-.94C344 493 344 493 343 492c-.44-3.31-.44-3.31 0-7 4.69-4.94 10.48-4.88 17-4" fill="#686867"/><path d="M890 609h1l1 14h1v30c10.87 2.69 10.87 2.69 14.24 3.5 10.34 2.63 18.28 5.81 24.76 14.5-1.38 5.21-4.63 8.11-9 11a37 37 0 0 1-7 2l-2-2 2.05-.73c9.48-3.57 9.48-3.57 11.95-7.27.56-2.5.56-2.5 0-5-9.68-9.01-26.14-10.88-38-14z" fill="#E6E8E6"/><path d="m295 467 .33 1.79c1.49 7.41 3.41 11.64 9.67 16.21-7.28.99-12.91-2.2-19-6a21 21 0 0 1-5-6l1-3c1.93-.95 1.93-.95 4.31-1.69l2.37-.76C291 467 291 467 295 467" fill="#E6C46E"/><path d="M252 333c5.48 2.03 10.72 4.5 16 7l5.08 2.36c18.4 8.59 18.4 8.59 19.92 11.64-8.09-2.44-15.58-5.94-23.19-9.56l-5.62-2.66-5.08-2.41c-6.37-2.81-12.14-4.53-19.11-3.37-3.41 2.63-6.67 5.75-7.32 10.18l-.09 2.49-.12 2.7-.09 2.82-.12 2.85L232 364h-1q-.34-4.84-.62-9.69l-.2-2.76c-.51-8.78-.51-8.78 1.82-12.55 1.88-1.77 1.88-1.77 4-3.25l2.12-1.52c4.7-3.08 8.5-2.41 13.88-1.23" fill="#D4D5D6"/><path d="M380 456c1.35 1.68 1.35 1.68 2.62 3.88l1.29 2.17Q385 464 386 466q-3.62 1.8-7.25 3.56l-2.07 1.04c-3.7 1.78-5.76 2.71-9.68 1.4-.62-2.92-.85-4.19 0-7 7.73-9 7.73-9 13-9" fill="#E0C16C"/><path d="m229 672 2 1-1.5 3.25c-2.05 5.51-2.24 10.95-1.5 16.75 2.2 4.49 5.38 7.58 9 11-2.71-.15-4.47-.48-6.45-2.4q-1.83-2.26-3.55-4.6l-3 1-3-4 3-2c.29-3.04.29-3.04.19-6.62l-.08-3.61L224 679l-2.56 1.28c-10.27 4.96-17.17 6.22-28.44 4.72v-1l2.5.03c12.67-.33 23.19-4.82 33.5-12.03" fill="#D1D3D4"/><path d="m369 558 4 2c-7.23 9.04-16.16 16.57-25 24v-2h-2v-2l2-1v-3a91 91 0 0 1 6-5.25l3.57-2.94 1.78-1.45q3.27-2.71 6.46-5.55l1.9-1.67z" fill="#E6E9E7"/><path d="m273 562 1 3c-.94 1.56-.94 1.56-2.43 3.22l-1.65 1.87-1.8 1.97-1.82 2.05L261 580l-2.38 2.68A700 700 0 0 1 226 617l-2-2 2.45-2.42 8.98-8.9 3.88-3.84 5.59-5.54 1.76-1.73c2.69-2.69 4.86-5.05 6.34-8.57 1.59-1.53 1.59-1.53 3.38-2.94a37 37 0 0 0 9.06-10.56c1.84-2.94 4.05-5.12 6.56-7.5z" fill="#E3E4E4"/><path d="M879 394h1c1.54 7.7 2.55 14.24 1 22v2.88c0 2.71-.29 5.19-.71 7.87-.54 4.26-.74 8.56-1.01 12.85A96 96 0 0 1 878 449h-3c.66-18.39 2.36-36.68 4-55" fill="#E1E1E3"/><path d="M879 339c6.74 6.74 4.17 22.96 4.19 32.25v2.68q0 4.09.03 8.18l.01 5.24.02 2.46c-.01 3.86-.04 6.92-2.25 10.19h-1z" fill="#EFEFF1"/><path d="M235 340c1.06 1.81 1.06 1.81 2 4l-1 3q-.08 3.6-.03 7.19l.04 4.3.09 6.78.06 6.54.05 3.96C236 379 236 379 234 382c-2.19-7.97-2.33-15.58-2.31-23.81l-.05-3.97v-3.8l-.01-3.45c.4-3.24 1.18-4.6 3.37-6.97" fill="#1B201D"/><path d="M229 348h2l.14 1.96c.88 12.42 1.89 24.75 3.89 37.05.86 5.4 1.09 10.52.97 15.99l-2-1c-.49-1.72-.49-1.72-.82-3.93l-.37-2.41-.37-2.54-.76-4.92-.32-2.22C231 384 231 384 230 381q-.31-3.85-.5-7.69c-.46-8.58-.46-8.58-1.12-12.75-.46-4.33-.02-8.27.62-12.56" fill="#E4E7E4"/><path d="M889 577c2.1 1.7 2.94 2.5 3.26 5.23l-.14 2.52c-.13 2.9-.09 5.44.36 8.32.71 5.36.67 10.65.64 16.05v3.45c-.05 10.49-.5 20.95-1.12 31.43h-1l-.08-2.96-.42-15.88a601 601 0 0 0-1.03-24.75c-.37-5.49-.58-10.91-.53-16.41l.01-2.09z" fill="#F3F5F3"/><path d="m331 469-2 1v7h-1v-8a82.6 82.6 0 0 0-41.31.44C284 470 284 470 281 469c4.4-3.14 8.53-3.89 13.75-4.69l2.3-.39c11.79-1.89 23.76-1.72 33.95 5.08" fill="#060504"/><path d="m498 573 2 1q-5.17 4.18-10.56 8.06A587 587 0 0 0 480 589l1 2c-5.9 2.29-10.67 3.35-17 3a69 69 0 0 1 10.45-7.23 377 377 0 0 1 6.24-3.52l3.2-1.82C491.75 577 491.75 577 494 577v-2c1.88-1.06 1.88-1.06 4-2" fill="#040504"/><path d="M890 609h1l1 14h1v30l9 2 1 2-4.25-.44-2.39-.24C894 656 894 656 890 655z" fill="#DDDFDF"/><path d="m964 158-1 3q-2.48 1.05-5 2c-8.26 4.55-16.1 9.83-21 18a89 89 0 0 1-4 4c1.31-9.4 10.96-16.36 18-22 4.46-3 7.55-5 13-5" fill="#E5E5E6"/><path d="m404 300 2 1v3l-4.25 1.44-2.39.81c-2.36.75-2.36.75-4.59 1.16L393 308l-1 3-6-1c4.24-6.18 10.17-11.12 18-10" fill="#1D1D1E"/><path d="M413 444c1.8 1.52 1.8 1.52 3 3l-2.46-.11c-10.82-.26-19.39 2.06-29.3 6.19A105 105 0 0 1 376 456c8.66-9.75 24.17-14.28 37-12" fill="#030303"/><path d="M979.94 105.88 992 106v3l-32 1v-2c6.62-2.44 12.95-2.22 19.94-2.12" fill="#E8EAEB"/><path d="m617 272 2 2-8.94 4.75-2.52 1.34c-5.42 2.87-10.9 5.5-16.54 7.91l-1-2 10-6 2.71-1.67c2.19-1.27 3.87-1.72 6.29-2.33q2.51-1.47 5-3z" fill="#EEEEF0"/><path d="M228 675v2h-4v2c-11.19 5.58-18.59 7.65-31 6v-1l2.5.03c11.77-.3 21.81-9.03 32.5-9.03" fill="#D7DAD8"/><path d="M240 335c5.74-.2 10.61-.27 16 2-3.35 3.08-5.64 3.36-10.12 3.25l-3.2-.05C240 340 240 340 238 339z" fill="#17181B"/><path d="m756 231 1 2q3.49.61 7 1v1h-31v-2l8.12-1 2.31-.29c4.22-.51 8.31-.82 12.57-.71" fill="#DBDBDE"/><path d="m245 594 2 2-21 21-2-2z" fill="#D7DAD8"/><path d="M898 249c-1.51 3.78-1.51 3.78-3.8 4.83-2.88 1.53-4.47 3.56-6.58 6.05-3.31 3.78-6.25 6.65-10.62 9.12l-2-1a49 49 0 0 1 9.44-9.5 77 77 0 0 0 8.22-7.28C895 249 895 249 898 249" fill="#E8E9E9"/><path d="m867 205 3 1a349 349 0 0 1-16 19l-3-1a62 62 0 0 1 5.88-6.81 76 76 0 0 0 6.75-8.39C865 207 865 207 867 205" fill="#E5E6E6"/><path d="M229 348h2a345 345 0 0 1 1 30c-3.12-3.12-2.77-6.8-3.19-11.06l-.28-2.49A65 65 0 0 1 229 348" fill="#EDF2EE"/><path d="m988 154 2 2-2.93.11c-7.78.4-14.7 1.13-22.07 3.89l-3-3c8.62-2.65 16.97-3.96 26-3" fill="#D5D8D6"/><path d="m802 238 1.79.4q5 1.14 10.02 2.16c2.19.44 2.19.44 4.38 1.06C820 242 820 242 822 241v4c-5.4.22-9.81-.51-14.94-2l-2.07-.58q-2.5-.7-4.99-1.42l2-1z" fill="#E4E3E8"/><path d="m369 558 4 2-2.81 3.38-1.58 1.89C367 567 367 567 364 569c-2.19-.38-2.19-.38-4-1 1.15-3.45 2.32-4.38 5.06-6.69l2.23-1.88z" fill="#E4E7E4"/><path d="M874 317c2.82 2.82 3.23 6.11 4.12 9.88l.56 2.18c1.29 5.28 2.09 9.1-.68 13.94l-3.31-16.03-.69-3.4-.65-3.16L873 318z" fill="#E2E2E5"/><path d="M292 472v2l4-1v7c-5.42.37-5.42.37-8.38-1.5L286 477c1.13-3.38 2.21-5 6-5" fill="#EAC263"/><path d="m880 528 3 1 .44 2.75q.42 2.58 1.03 5.13A430 430 0 0 1 887 549h-3l-2-7.69-.58-2.18c-.97-3.8-1.67-7.18-1.42-11.13" fill="#EEEEF1"/><path d="M242 429h1l1.5 9.25.43 2.64.41 2.56.38 2.35c.28 2.2.28 2.2.28 6.2l-3-1c-2.03-7.59-1.99-14.23-1-22" fill="#D6D6D6"/><path d="M703 686c10.7-.17 21.32.37 32 1v1c-8.03.8-15.94 1.13-24 1v-2h-8z" fill="#E1E3E0"/><path d="M169 645c1.24 3.72.2 5.1-1.23 8.59-1.39 4.35-1.53 8.87-1.77 13.41h-2c-1.33-7.71-1.2-13.24 3-20z" fill="#F0F2EE"/><path d="M379 649v3h-2v2h-2l1 3-4.38 1.5-2.46.84C367 660 367 660 365 660c1.36-4.07 4.04-5.14 7.56-7.19l1.87-1.11q2.28-1.36 4.57-2.7" fill="#E2E1E3"/><path d="M273 344c4.25.65 7.79 2.09 11.69 3.88l3.45 1.55C291 351 291 351 293 354a152 152 0 0 1-20-8z" fill="#D2D3D6"/><path d="M758 231q3.97.06 7.94.31l2.25.11c5.57.34 5.57.34 7.81 2.58a35 35 0 0 1-10.3.88l-2.96-.15-3.05-.17-3.11-.16q-3.79-.18-7.58-.4v-1l6.15-.68C757 232 757 232 758 231" fill="#F0F0F3"/><path d="M889 577c2.1 1.7 2.94 2.5 3.26 5.23l-.14 2.52c-.13 4.25.15 8.07.88 12.25h-2c-2.57-3.84-2.23-7.81-2.12-12.25l.02-2.26z" fill="#EDEDEE"/><path d="M234 361c2.42 3.62 2.3 6.32 2.25 10.5l.02 2.05c-.01 3.7-.17 5.3-2.27 8.45-1.46-2.93-1.13-5.55-1.12-8.81l-.01-3.71c.11-2.97.44-5.6 1.13-8.48" fill="#111411"/><path d="m1074 216 2 1c-3.47 4.99-7.45 8.32-13.45 9.47q-3.27.38-6.55.53v-2l3.62-.81c5.89-1.49 10.28-3.62 14.38-8.19" fill="#E8E9EB"/><path d="M1028 191c4.05 3.35 5.67 7.03 7 12 .19 3 .19 3 0 5-2.54-2.26-3.8-4.38-5.12-7.5l-1.01-2.34A96 96 0 0 1 1027 193z" fill="#E5E6E8"/><path d="m382 462 4 4q-3.62 1.8-7.25 3.56l-2.07 1.04c-3.7 1.78-5.76 2.71-9.68 1.4v-7h1v6q3.23-1.1 6.44-2.25l3.62-1.27c2.94-1.48 2.94-1.48 3.85-3.65z" fill="#DBC58D"/><path d="M876 429h1q.54 3.59 1.06 7.19l.32 2.04c.54 3.85.66 7.01-.38 10.77h-3z" fill="#D3D3D4"/><path d="M635 266a54 54 0 0 1-9.06 5.75l-2.6 1.36C621 274 621 274 618 273v-2l4.99-2.13a139 139 0 0 0 3.93-1.77c4.76-2.21 4.76-2.21 8.08-1.1" fill="#E7E7EA"/><path d="m869 687-2 4h-10l-1-3q2.12-.55 4.25-1.06l2.39-.6c2.46-.35 4.02-.11 6.36.66" fill="#BDBEBE"/><path d="M415 311h3c2.08 4.62 3.7 9.1 5 14l-3 1-2.5-5.81-1.41-3.27C415 314 415 314 415 311" fill="#EAEAEC"/><path d="m330 471 5 5c-1 3-1 3-4.38 4.75C327 482 327 482 324 481l2.44-2.19c2.58-2.84 3.24-4.08 3.56-7.81" fill="#AA9F78"/><path d="M1078 194h1l.5 6.31.28 3.55c.3 4.35.27 7.24-1.78 11.14-2.08.65-2.08.65-4 1l1.44-3.12c2.32-6.06 2.3-12.47 2.56-18.88" fill="#C4C4C6"/><path d="M962 110c-5.53 3.22-11.66 4.32-18 4 4.53-4.53 11.97-5.75 18-4" fill="#E1E2E3"/><path d="m984.69 105.88 2.13.03 5.18.09v3l-18-1c3.68-2.45 6.45-2.22 10.69-2.12" fill="#F1F2F4"/><path d="M308 350c-4.37 2.45-8.89 4.27-13.94 3.62L292 353v-3l2.19.62c2.81.38 2.81.38 5.25-.62 3.22-1.26 5.25-.77 8.56 0" fill="#E0E2E2"/><path d="M418 327c3 1 3 1 3.98 2.64 1.69 4.52 2.35 7.54 1.02 12.36a56 56 0 0 1-3.62-8.62l-.79-2.36C418 329 418 329 418 327" fill="#161619"/><path d="m187 684 16 1v2c-5.69 1.5-10.42.33-16-1z" fill="#ECEFF0"/><path d="M251 474c2 3 2.49 4.71 3.12 8.19l.51 2.73.37 2.08c-3-1-3-1-4.02-2.71-2.16-5.73-2.16-5.73-1.17-8.79z" fill="#D5D5D8"/><path d="M407 303c3.58 1.43 5 3.03 6.88 6.38l1.36 2.33c.76 2.29.76 2.29-.11 4.58L414 318l-1.02-2.27-1.36-2.98-1.33-2.95A213 213 0 0 0 407 303" fill="#151517"/><path d="M1009 165c4.28 1.37 6.43 3.21 9.31 6.62l2.12 2.48 1.57 1.9-3 1-4.44-4.88-2.49-2.74C1010 167 1010 167 1009 165" fill="#D8D9D9"/><path d="m914 134 2 3-2.25 1.75A77 77 0 0 0 907 145l-2-2z" fill="#1A191B"/><path d="m228 684 2 1c.41 2.5.41 2.5.62 5.56l.23 3.07.15 2.37-2 1c-2.61-3.91-2.22-7.46-2-12z" fill="#191B1C"/><path d="M350 574h2v2h-2l1 2h2c-1.37 3.16-1.99 3.99-5 6v-2h-2v-2l2-1v-3z" fill="#D7DCDE"/><path d="m296 476 1.69 2.25A41 41 0 0 0 305 485c-6.62.25-6.62.25-10-2h2z" fill="#C4AF72"/><path d="m285 474 1 3c3.35 2.32 7.02 2.54 11 3v3c-6.06-.3-9.51-3.28-14-7z" fill="#D5BA75"/><path d="M591 287v2l-13 6v-3l4.81-2.5 2.71-1.41C588 287 588 287 591 287" fill="#E1E0E1"/><path d="M166 656h2c.93 2.79 1.06 4.22.94 7.06C169 667 169 667 171 669l-1 2h-2c-2.59-4.86-2.19-9.65-2-15" fill="#212220"/><path d="M232 373h1q.3 3.09.56 6.19l.32 3.48c.11 3.02-.14 5.42-.88 8.33h-1c-1.79-6.73-2.22-11.35 0-18" fill="#DBDEDB"/><path d="m715 235 3 1v2c-4.54 1.45-8.18 2.24-13 2l1-2q3.48-1.07 7-2z" fill="#F0EFF1"/><path d="M228 675v2h-4v2c-5.46 3.1-5.46 3.1-8.2 2.59L214 681l5.31-3 2.99-1.69C225 675 225 675 228 675" fill="#DFE0DE"/><path d="M236 399h1l2 14-2 1c-1.96-5.54-2.02-9.21-1-15" fill="#D7D9D6"/><path d="m362 336-1 3c-4.36 1.68-7.5 2.37-12 1a18 18 0 0 1 7.06-3.12l2.1-.51C360 336 360 336 362 336" fill="#E3E4E6"/><path d="M782 233c2 2 2 2 2 4l-14-1 1-2a31 31 0 0 1 11-1" fill="#CCCCCE"/><path d="m860 214 1 3c-1.43 2.04-1.43 2.04-3.44 4.19l-1.99 2.17L854 225l-3-1a94 94 0 0 1 9-10" fill="#DBDBDC"/><path d="M1003 108v3l-12-1c1-2 1-2 2.62-2.69 3.25-.43 6.17.13 9.38.69" fill="#E5E6E6"/><path d="M879 339c2.12 1.73 2.93 2.71 3.58 5.41l.23 2.65.27 2.66C883 352 883 352 881 354c-2.03-3.35-2.22-5.87-2.12-9.75l.05-2.98z" fill="#ECECEF"/><path d="M386 309a30 30 0 0 1-5.12 7.75l-1.64 1.86L378 320l-2-3 3.88-4 2.17-2.25C384 309 384 309 386 309" fill="#D8DCDB"/><path d="m881 178 2 1c-.57 3.96-1.81 6.67-4 10l-3-1 2-3q1.02-3 2-6z" fill="#EFF0F0"/><path d="M998 157a538 538 0 0 1 7.62 3.61C1008 162 1008 162 1010 165c-3.44 0-4.75-.8-7.69-2.5l-2.45-1.41L998 160z" fill="#E1E3E2"/><path d="m877 518 3 1c1.05 3.98.84 6.98 0 11-2.39-3.83-2.56-7.6-3-12" fill="#DADADB"/><path d="m469 350 2 1v2l-11 5c2.5-5.01 4.09-5.63 9-8" fill="#E0DDE2"/><path d="M235 340c1.12 1.5 1.12 1.5 2 4-.42 2.78-1.19 5.3-2 8-2.45-3.67-2.32-5.66-2-10z" fill="#131416"/><path d="m705 239 3 2-11 2-1-3c3.02-1.51 5.67-1.18 9-1" fill="#E2E1E2"/><path d="m176 637 3 1-2.81 2.31A71 71 0 0 0 170 646l-2-2q1.89-1.8 3.81-3.56l2.15-2.01z" fill="#DDE0DD"/><path d="m874 478 3 2q-.17 2.22-.38 4.44l-.21 2.49L876 489l-2 1z" fill="#F2F2F5"/><path d="M367 463c1.48 2.96 1.06 5.74 1 9l3 1-1 3c-1.94-.5-1.94-.5-4-2a22 22 0 0 1-1-8z" fill="#110E07"/><path d="m410 301-2 2-1.56-.94c-3.11-1.35-6.09-1.67-9.44-2.06 4.83-4.83 7.91-2.23 13 1" fill="#EAEAEA"/><path d="m802 238 9 3v2l-11-2 2-1z" fill="#D9D8DC"/><path d="M1041 134c3.68 1.54 5.99 3.78 8.75 6.62l2.42 2.48 1.83 1.9-2 2-4.38-4.81-2.46-2.71C1043 137 1043 137 1041 134" fill="#0B0A0B"/><path d="M580 550c2.2.91 2.2.91 4 2l-3.88 2-2.17 1.12C576 556 576 556 574 556v-3c2.75-1.62 2.75-1.62 6-3" fill="#242626"/><path d="M1070 166c3.09 2.53 3.91 5.22 5 9h-3c-1.56-2.81-1.56-2.81-3-6z" fill="#EDEFEA"/><path d="M169 645c1.14 3.41.87 4-.44 7.19l-.87 2.17L167 656l-2-1c-.41-3.6-.15-4.78 2-7.81z" fill="#E7EAE7"/><path d="M253 584h2c-.57 3.63-1.92 5.26-4.56 7.75l-1.94 1.86L247 595c0-3.94 1.49-5.05 4-8z" fill="#EBECEC"/><path d="M874 502h1l1 13h-2v-4l-2-1z" fill="#282A28"/><path d="m264 339 4.38 1.38 2.46.77C273 342 273 342 275 344c-3.03 1.28-4.04.99-7.19-.25C265 342 265 342 264 339" fill="#DEDEDF"/><path d="m237 337 3 1-1 6h-3c-.62-2.38-.62-2.38-1-5z" fill="#201F24"/><path d="m530 571 3 2-1 2q-3.47 1.1-7 2l-1-2z" fill="#191C1B"/><path d="M244 452h2c1.48 2.96 1.06 5.74 1 9l-3-1q-.57-3.5-1-7z" fill="#EAEDEA"/><path d="m681.38 245.81 1.62 1.2c-2.93 1.94-4.55 2.63-8 3l-2-2c5.41-3.2 5.41-3.2 8.38-2.2" fill="#E7E5E8"/><path d="M1049 222q3.3.39 6.56.94l3.63.59 2.81.47v1q-2.37.37-4.75.69l-2.67.38c-3.14-.09-4.3-1-6.58-3.07z" fill="#D7D7D9"/><path d="M177 681c4.06.47 7.47.88 11 3-3.55 1.15-4.8 1.09-8.31-.44L177 682z" fill="#E5E6E6"/><path d="m279 628 3 2-6 5-2-2z" fill="#0C0D0C"/><path d="M322 607c-1.05 2.62-1.65 3.79-4.12 5.25L316 613v-5c2.08-.55 3.84-1 6-1" fill="#DFDDE6"/><path d="m244 598 2 2-2.31 1.75c-2.69 2.25-2.69 2.25-4.38 4.5L238 608h-2c1.65-4.29 4.74-6.88 8-10" fill="#070908"/><path d="m369 558 4 2-4 4-3-3z" fill="#D4D7D5"/><path d="m295 467 3 1v10c-2.4-2.4-2.34-3.33-2.62-6.62l-.23-2.48z" fill="#251908"/><path d="m257 338 8 3-2 2c-2.96-.4-5.38-1.6-8-3z" fill="#171618"/><path d="M382 700v1h-6v2l-10-1v-1a99 99 0 0 1 16-1" fill="#D9DCD9"/><path d="m869 687-2 4h-5l2-1-1-3c2.49-1.25 3.41-.78 6 0" fill="#C3C4C5"/><path d="m627 529 1 2c-6.62 3.88-6.62 3.88-10 5l-1-2z" fill="#D8DAD8"/><path d="M384 467v2c-3.72 2.84-6.37 3.32-11 3 3.27-2.67 6.65-5 11-5" fill="#312312"/><path d="M425 345a21 21 0 0 1 3 4c-.31 2.25-.31 2.25-1 4h-2q-.57-3.5-1-7z" fill="#1C1F1B"/><path d="M243 335h7v3l-5 1v-2z" fill="#0F1012"/><path d="m242 332 10 1v2l-10-1z" fill="#ECECED"/><path d="m912 224 3 1c-1.25 3.65-1.67 4.78-5 7 .88-5.75.88-5.75 2-8" fill="#EAEAED"/><path d="M347 584h2l1 3c-2.92 1.95-4.63 2.45-8 3q2.43-3.06 5-6" fill="#1F2120"/><path d="M588 546c2.31.81 2.31.81 4 2l-7 3-2-2c2.25-1.62 2.25-1.62 5-3" fill="#20221F"/><path d="m594 286 3 1-5 5-1-4z" fill="#211F20"/><path d="m626 271-1 5-3-1q-3.01.41-6 1c2.7-2.7 6.08-5 10-5" fill="#212124"/><path d="M898 249c-1 2.49-1.65 3.77-3.94 5.25-2.06.75-2.06.75-5.06.75q1.4-1.51 2.81-3l1.58-1.69C895 249 895 249 898 249" fill="#F0F1F1"/><path d="m840 231 3 2c-2.36 2.1-3.55 2.97-6.75 3.19L834 236l2.44-1.94C839 232 839 232 840 231" fill="#EBEDEC"/><path d="m288 638 2 1-8 8-2-2z" fill="#212026"/><path d="m359 567 5 1-3 4-4-2z" fill="#F4F7F5"/><path d="m330 471 4 4-1 3h-3z" fill="#CFBF77"/><path d="M874 317c2.41 2.41 2.68 3.65 3 7-.98 2.16-.98 2.16-2 4a717 717 0 0 1-1.66-7.71L873 318z" fill="#DDD"/><path d="M844 233c-1.37 3.16-1.99 3.99-5 6l-3-2c5.75-4 5.75-4 8-4" fill="#1A1A1A"/><path d="M754 616h2l1 8h-3z" fill="#D2D5D2"/><path d="M604 541c-2.39 1.89-4.07 3.02-7 4v-4c3.01-.93 3.87-1.04 7 0" fill="#202220"/><path d="M259 502c1.88.25 1.88.25 4 1a17 17 0 0 1 2 4l-2 2z" fill="#E9ECEA"/><path d="M430 355h2c1.46 2.65 2 3.89 2 7h-2l-1 2z" fill="#EEEFF1"/><path d="M532 319v3h-2v2h-6a40 40 0 0 1 8-5" fill="#201E21"/><path d="M635 266c-2.62 2.15-4.64 3.4-8 4 1-3 1-3 2.88-4.25C632 265 632 265 635 266" fill="#DEDEE3"/><path d="M790 235v2l-9-1v-1c3.38-.84 5.67-1.11 9 0" fill="#F2F2F6"/><path d="m397 638 2 1c-2.69 2.25-4.65 3.88-8 5l-1-2c5.27-3.22 5.27-3.22 7-4" fill="#E0E0E0"/><path d="m229 610 2 2-6 5c0-3 0-3 2-5.19z" fill="#CACDCB"/><path d="m359 573 1 4-4 2c0-3 0-3 1.5-4.69z" fill="#1D1D1E"/><path d="m805 570 4 2c0 3 0 3-2 6z" fill="#BFC0BF"/><path d="M884 549h2a41 41 0 0 1 1 6l-2 3z" fill="#DCDDDE"/><path d="M298 478h2v2h5v4c-4.68-1.48-4.68-1.48-6.31-4.12z" fill="#2B2110"/><path d="M367 465h1v6l4-1 1 2q-2.49.57-5 1c-1-1-1-1-1.06-4.56z" fill="#BBAC7D"/><path d="M284 469c2.12.94 2.12.94 4 2-2 2-2 2-4.62 2.12L281 473l1-3z" fill="#C5AD69"/><path d="m295 467-1 4-7-2c3.09-1.76 4.23-2 8-2" fill="#AD9C65"/><path d="M877 428a12 12 0 0 1 3 3c-.31 2.69-.31 2.69-1 5h-2z" fill="#F2F2F3"/><path d="m527 320-1 3c-3.06 1.19-3.06 1.19-6 2 .81-1.94.81-1.94 2-4 3-1 3-1 5-1" fill="#EEEDF0"/><path d="M924 197a14 14 0 0 1 2 4c-.88 2.75-.88 2.75-2 5-1.12-1.69-1.12-1.69-2-4 .88-2.75.88-2.75 2-5" fill="#D8D7DA"/><path d="m919 127 3 1-4 4-3-1z" fill="#DCDDDC"/></svg>