<svg style="background:transparent" version="1.1" xmlns="http://www.w3.org/2000/svg" viewBox="0 0 1248 704"><path d="m993.88 89.81 2.64.02c8.85.12 16.98.6 25.48 3.17q2.06.29 4.13.5c3.45.44 5.7 1.16 8.86 2.5l2.27.86a156 156 0 0 1 30.73 16.14l2.44 1.37c3.5 2.22 6.48 4.88 9.56 7.63.38.32.38.32 2.21 1.95l4.6 4.12a93 93 0 0 0 4.05 3.38c5.5 4.35 9.2 9.8 13.14 15.55l1.34 1.8c4.8 6.64 5.94 15.15 5.66 23.2-1.62 3.37-1.62 3.37-4 6l-2.23 3.06c-3.16 3.57-6.16 6.43-10.77 7.94-8.43.44-15.87-.22-22.83-5.36l-1.54-1.39-1.74-1.57-1.89-1.68-2.17-1.84-2.2-1.85-2.01-1.7c-1.62-1.6-1.62-1.6-2.62-4.6q-1.99-.52-4-1c-1.52-1.54-1.52-1.54-2.92-3.39a23 23 0 0 0-8.08-6.62l-2.23-1.38c-9.18-5.42-17.9-10.4-28.5-12.23-2.25-.39-2.25-.39-4.1-.94-3.16-.66-6.24-.58-9.48-.58h-3.85c-10.72.37-18.95 3.92-28.15 9.06l-1.77 1c-5.87 3.36-9.91 7.9-14.1 13.13l-2.04 2.54A36 36 0 0 0 944 175l-1.23 2.31a225 225 0 0 0-9.87 22.4c-6.9 17.65-15.37 32.78-28.9 46.3l-5 5.74c-7.37 8.24-16.32 13.98-26 19.25l-3 2c.6 4.28 2.13 7.38 4.25 11.12 4.41 8.02 8.36 16.05 11.08 24.81.67 2.07.67 2.07 1.65 4.45 7.09 18.3 7.21 39.48 7.15 58.87v6.23c0 6.48-.12 12.87-.88 19.31-.48 4.23-.64 8.5-.86 12.74-.16 3.04-.42 5.57-1.4 8.47a123 123 0 0 0-.92 19.7c-.08 2.3-.08 2.3-1.08 5.3-.06 3.03.01 6.05.08 9.1-.06 3.11-.26 6.1-.57 9.2-.65 7.51-.65 15.01-.63 22.54v14.07c.01 6.16.59 12.11 2.13 18.1l1 7 1 4 2 8.42.53 2.28a270 270 0 0 1 2.47 11.3q.35 1.56.68 3.2c3.6 17.22 5.65 34.67 5.25 52.3.07 2.5.07 2.5.57 4.4.5 2.11.63 3.93.63 6.1v29.2c0 4.7-.35 9.15-1.13 13.8q7.38 2.5 14.86 4.73c20 6.04 20 6.04 24.13 12.26.64 3.73.44 5.35-1.69 8.5-7.16 7.78-18.38 9.87-28.37 11.75l-3.87.76a236 236 0 0 1-32.85 4.17c-16.3 1-32.58.84-48.88.52l-3.3-.06c-27.62-.55-55.18-1.98-82.76-3.43l-23.95-1.24-18.62-.97c-41.06-2.15-41.06-2.15-60-2.17h-4.3q-6.78-.02-13.58-.02h-2.38c-26.53.01-52.96.48-79.45 2.2-.53.02-.53.02-3.23.2q-12.48.78-24.94 1.66l-3.3.23-9.75.7-3.21.24a530 530 0 0 0-20.31 1.94c-27.68 3.11-55.1 3.56-82.95 3.42l-18.57-.03q-17.48-.01-34.97-.08-13.96-.06-27.93-.07h-2l-9.96-.02q-40.95-.05-81.87-.2c-1.5-3.58-2.25-6.23-2.18-10.13l.02-2.57c.16-2.3.16-2.3 1.16-5.3l-3.17 1.5-6.23 2.92c-10.34 4.84-23.37 5.46-34.47 2.33A39 39 0 0 1 160 687l-3.18-2.3c-5.45-5.22-6.34-10.79-6.82-18.07 0-6.3 2.63-12.36 6-17.63 2.57-2.25 2.57-2.25 5-4l1.28-1.94c3.6-4.32 9.45-5.7 14.72-7.06 3.65-.14 3.65-.14 7.25 0 6.74.23 10.42-.96 15.75-5l2.58-1.95a207 207 0 0 0 27.34-25.79 64 64 0 0 1 6.08-5.76 91 91 0 0 0 15.75-17.3c2.18-3.1 4.58-5.53 7.25-8.2l2-3c2.59-3.88 5.75-6.83 9.13-10 1.87-2 1.87-2 3.2-4.24 2.58-4.27 5.74-8.09 8.8-12.02C284 540 284 540 284 537l-2.18-.8A52 52 0 0 1 274 532l-2.08-1.32c-8.8-5.72-15.58-11.5-20.93-20.68q-.56-.88-1.19-1.78c-3.23-4.89-5.18-9.6-6.8-15.22l-.77-2.55q-1.14-3.72-2.23-7.45l-1.07-3.57a201 201 0 0 1-2.46-10.32c-.69-3.09-1.47-6.09-2.4-9.1-1.23-4.27-1.87-8.6-2.57-12.97q-.9-5.31-2.01-10.59-.72-3.63-1.3-7.26a304 304 0 0 0-3.7-16.94l-.63-2.73c-.93-3.8-1.87-7.58-2.99-11.34a42 42 0 0 1-1.44-8.3A80 80 0 0 0 218 380c-1.2-7.96-1.65-15.97-2-24l-.14-2.43c.1-5.96 4.22-10 7.82-14.35 4.09-3.9 8.4-3.5 13.82-3.44 3.6.31 6.3 1.58 9.5 3.22q2.16.98 4.33 1.93l2.3 1.03c3.26 1.42 6.59 2.72 9.9 4.03q3.63 1.48 7.16 3.13A68 68 0 0 0 282 353l2.08.81c3.1.3 5.25-1.36 7.93-2.8 1.93-.58 1.93-.58 4-1a168 168 0 0 0 9.88-3c4.83-1.56 9.76-2.56 14.75-3.5 2.37-.5 2.37-.5 5.69-1.5a76 76 0 0 1 11.68-2q2.5-.46 5-1l2.13-.34c9.87-1.74 14.14-9.2 19.69-16.98C372 311.77 372 311.77 376 308h2q.35-.88.66-1.77c1.75-2.93 3.76-4.12 6.66-5.92l2.85-1.82c3.67-1.93 6.33-2.86 10.4-1.87 2.98 1.7 4.39 3.63 6.43 6.38l2.5 2.25c3.25 3.57 4.73 7.3 6.5 11.75l1.63 3.62A90 90 0 0 1 419 331q1.48 4.5 3 9l2 6 .93 2.62c1.6 5.07 2.81 10.22 4.06 15.38 6.63 0 13.22-4.04 19-7l4.12-1.78c4.9-2.17 9.54-4.7 14.2-7.35l4.68-2.63 2.04-1.16q2.97-1.6 5.97-3.08 1.86-1.02 3.68-2.06l2.06-1.17 4.25-2.4q5.91-3.37 12-6.37l2.38-1.44a89 89 0 0 1 6.38-3.44q4.43-2.19 8.75-4.62 4.25-2.4 8.63-4.57c4.56-2.25 8.97-4.76 13.3-7.43 4.39-2.57 8.99-4.73 13.55-6.95 9.12-4.49 9.12-4.49 12.4-6.8 2.62-1.75 2.62-1.75 5.5-2.69 3.4-1.16 6.01-2.76 9-4.75 2.62-1.62 5.36-2.93 8.12-4.3l5.82-3.45c4.93-2.9 9.9-5.33 15.17-7.56a147 147 0 0 0 8.47-4.38 123 123 0 0 1 16.34-7.76c2.83-1.1 5.5-2.48 8.2-3.86 4.62-2.12 9.26-4.16 14-6a407 407 0 0 0 15.38-6.5A162 162 0 0 1 685 238l6-2 1.94-.69a158 158 0 0 1 28.66-6.88C724 228 724 228 726 227c2.6-.3 5.18-.5 7.79-.72 2.2-.28 2.2-.28 3.2-1.28q3.1-.02 6.2.06a67 67 0 0 0 6.95-.55c5.18-.6 10.28-.66 15.49-.64h2.73c4.99 0 9.7.31 14.63 1.13q2.42.23 4.83.43c5.14.5 10.12 1.46 15.17 2.57l2.28.47c4.01.84 7.88 1.86 11.8 3.1 6.63 2.01 12.31 3.45 18.92.43q3.03-1.95 6-4 1.42-.66 2.88-1.3c3.59-1.95 6.25-4.32 9.2-7.08 1.9-1.6 3.7-2.55 5.92-3.62 3.68-3.29 6.59-6.94 9.48-10.9q1.5-2.06 3.06-4.04a69 69 0 0 0 8.19-13.36c1.4-2.95 2.9-5.85 4.4-8.77a82 82 0 0 0 5.24-12.98 51 51 0 0 1 3.63-7.95l1.5-3.07c1.4-2.73 2.92-5.3 4.5-7.93l1.48-2.5 1.46-2.5 1.48-2.5A76 76 0 0 1 910 132l2.18-2.76 2.25-2.8 2.25-2.82A41 41 0 0 1 924 117h2l.78-1.85c1.36-2.39 2.38-3.2 4.7-4.59l2.1-1.27q1.05-.64 2.17-1.29l4.24-2.57q1.01-.59 2.06-1.24 2.65-1.64 5.19-3.4a23 23 0 0 1 7.2-3.29l2.58-.72L960 96l3.66-1q5.66-1.55 11.34-3l2.13-.56c5.64-1.4 10.94-1.72 16.75-1.63" fill="#111311"/><path d="m993.88 89.81 2.64.02c8.85.12 16.98.6 25.48 3.17q2.06.29 4.13.5c3.45.44 5.7 1.16 8.86 2.5l2.27.86a156 156 0 0 1 30.73 16.14l2.44 1.37c3.5 2.22 6.48 4.88 9.56 7.63.38.32.38.32 2.21 1.95l4.6 4.12a93 93 0 0 0 4.05 3.38c5.5 4.35 9.2 9.8 13.14 15.55l1.34 1.8c4.8 6.64 5.94 15.15 5.66 23.2-1.62 3.37-1.62 3.37-4 6l-2.23 3.06c-3.16 3.57-6.16 6.43-10.77 7.94-8.43.44-15.87-.22-22.83-5.36l-1.54-1.39-1.74-1.57-1.89-1.68-2.17-1.84-2.2-1.85-2.01-1.7c-1.62-1.6-1.62-1.6-2.62-4.6q-1.99-.52-4-1c-1.52-1.54-1.52-1.54-2.92-3.39a23 23 0 0 0-8.08-6.62l-2.23-1.38c-9.18-5.42-17.9-10.4-28.5-12.23-2.25-.39-2.25-.39-4.1-.94-3.16-.66-6.24-.58-9.48-.58h-3.85c-10.72.37-18.95 3.92-28.15 9.06l-1.77 1c-5.87 3.36-9.91 7.9-14.1 13.13l-2.04 2.54A36 36 0 0 0 944 175l-1.23 2.31a225 225 0 0 0-9.87 22.4c-6.9 17.65-15.37 32.78-28.9 46.3l-5 5.74c-7.37 8.24-16.32 13.98-26 19.25l-3 2c.6 4.28 2.13 7.38 4.25 11.12 4.41 8.02 8.36 16.05 11.08 24.81.67 2.07.67 2.07 1.65 4.45 7.09 18.3 7.21 39.48 7.15 58.87v6.23c0 6.48-.12 12.87-.88 19.31-.48 4.23-.64 8.5-.86 12.74-.16 3.04-.42 5.57-1.4 8.47a123 123 0 0 0-.92 19.7c-.08 2.3-.08 2.3-1.08 5.3-.06 3.03.01 6.05.08 9.1-.06 3.11-.26 6.1-.57 9.2-.65 7.51-.65 15.01-.63 22.54v14.07c.01 6.16.59 12.11 2.13 18.1l1 7 1 4 2 8.42.53 2.28a270 270 0 0 1 2.47 11.3q.35 1.56.68 3.2c3.6 17.22 5.65 34.67 5.25 52.3.07 2.5.07 2.5.57 4.4.5 2.11.63 3.93.63 6.1v29.2c0 4.7-.35 9.15-1.13 13.8q7.38 2.5 14.86 4.73c20 6.04 20 6.04 24.13 12.26.64 3.73.44 5.35-1.69 8.5-7.16 7.78-18.38 9.87-28.37 11.75l-3.87.76a236 236 0 0 1-32.85 4.17c-16.3 1-32.58.84-48.88.52l-3.3-.06c-27.62-.55-55.18-1.98-82.76-3.43l-23.95-1.24-18.62-.97c-41.06-2.15-41.06-2.15-60-2.17h-4.3q-6.78-.02-13.58-.02h-2.38c-26.53.01-52.96.48-79.45 2.2-.53.02-.53.02-3.23.2q-12.48.78-24.94 1.66l-3.3.23-9.75.7-3.46.25q-9.92.75-19.78 1.96c-33.49 4-67.02 3.46-100.7 3.28q-12.6-.07-25.2-.09-25.8-.05-51.63-.2a35 35 0 0 1 7.85-6l2.98-1.79 3.24-1.9 6.84-4.08 1.79-1.06c6.1-3.63 12.14-7.37 18.18-11.1q13.37-8.28 26.94-16.26a1434 1434 0 0 0 34.18-20.8l2.55-1.6a1597 1597 0 0 0 40.96-26.73l3.62-2.4c2.48-1.66 4.94-3.33 7.34-5.1 5.85-4.27 11.53-5.8 18.6-7.25l6.72-1.5 3.26-.75c6.45-1.5 12.7-3.53 18.94-5.68l2.94-1a675 675 0 0 0 79.88-33.44c4.4-2.16 8.87-4.24 13.32-6.3A589 589 0 0 0 624 535l3.08-1.65a2396 2396 0 0 0 32.67-17.73l2.15-1.19a427 427 0 0 0 12.17-7.02q2.62-1.54 5.2-3.1C682 503 682 503 685 504a80 80 0 0 1 2.13 7.24c5.63 20.68 15.36 42.01 28.87 58.75l1.25 1.56c7.2 8.98 15.2 16.87 23.67 24.65 20.6 18.98 20.6 18.98 21.25 33.7q.06 5.55-.17 11.1-1.14.11-2.35.25c-9.74 1.31-16.3 4.13-22.47 11.93-3.63 5.55-4 12.37-3.18 18.81 2.25 5.41 5.87 7.38 10.88 9.92 8.58 2.96 17.37 3.47 26.38 3.45h3.3C785.53 685.2 796.1 684 805 677c4.01-4.47 6.28-9.4 8.13-15.07l.75-2.34c7.66-24.97 7.77-53.9-.07-78.8C813 578 813 578 813 575c14.8 6.87 27.9 20.96 34 36 4.07 11.32 3.94 24.11 3 36-1.77 1.77-4.59 1.43-7 1.7-7.4 1.1-12.86 3.35-17.59 9.3a60 60 0 0 0-3.41 6l-1.32 2.37c-1.75 6.72-1.37 12.92 2.15 18.95 4.3 6.15 11.16 7.91 18.16 9.68 4.52.5 8.97.52 13.5.43l3.44.03c11.6-.09 22.85-1.99 32.07-9.46 9.93-11.1 9.16-27.52 9.2-41.44l.01-2.25.03-11.88q0-4.82.04-9.65c.22-30.23-2.2-59.54-9.85-88.9-10.36-40.67-5.35-84.2-.75-125.45 4.78-43.65 2.45-88.44-21.21-126.5-1.53-3.04-2.12-4.6-1.48-7.93 1.45-1.45 1.45-1.45 3.58-2.69l2.47-1.53L875 266c28.4-17.76 45.12-42.1 57.45-73.07 7.8-19.63 17.6-38.23 37.54-47.93l2.88-1.48c14.72-6.45 33.52-5.7 48.43-.12q1.87.78 3.7 1.6l2 .84c12.22 5.23 21.26 12.67 30.79 21.76l3.9 3.71 1.9 1.82c8.03 7.5 15.38 12.27 26.56 12.15 5.63-.56 9.42-2.79 13.28-6.85 3.84-5.97 3.46-13.57 2.56-20.43-2.88-9.84-9.87-16.99-17-24l-1.42-1.44c-7.28-7.24-15.2-13.05-23.9-18.5q-2.14-1.36-4.25-2.77c-13.84-8.9-29.47-13.04-45.43-16.29l-2.9-.62c-28.56-3.53-57.08 2.97-80.02 20.55A111 111 0 0 0 905.99 143q-.94 1.5-1.95 3.02c-5.31 8.75-9.16 18.01-13 27.48-11.17 27.32-29.45 49.26-55.97 62.7-5.88 2.41-9.95 1.74-15.84-.04-28.05-8.46-58.27-10.77-87.24-6.16l-2.6.4c-60.38 9.37-118.1 42.3-170.94 71.5-6.27 3.47-12.6 6.8-18.96 10.1q-12.51 6.5-24.87 13.3-12.93 7.05-25.93 13.98-8.8 4.67-17.52 9.47c-10.19 5.6-20.37 11.01-31.05 15.62-.42.2-.42.2-2.62 1.14-3.88 1.62-6.2 2.5-10.5 2.5l-1.62-5.26-1.12-3.6q-1.34-4.36-2.59-8.73c-12.44-43.1-12.44-43.1-22.68-49.42-3.9-.95-7.51-.77-11.1 1.1a64 64 0 0 0-5.9 4.9l-1.65 1.46c-4 3.72-7.26 7.93-10.58 12.23l-4.33 5.5-2.8 3.57c-6.58 8.42-11.8 11.8-22.63 13.24-3.05.57-6.09 1.22-9.12 1.87-.4.1-.4.1-2.43.51-10.32 2.17-20.72 4.53-30.67 8.08l-2 .72q-2.65.97-5.28 2c-9.27 2.17-16.92-1.7-25.32-5.43l-6.64-2.89q-4.92-2.14-9.81-4.32l-3.15-1.37-2.79-1.23c-4.89-1.65-9.71-1.78-14.8-.94-3.75 2.1-5.35 4.11-7 8-3.62 25.24 3.52 55.05 10.5 79.2 1.51 5.32 2.43 10.72 3.38 16.17 9.72 55.11 9.72 55.11 24.13 71.63l2.25 3.06c6.25 7.28 15.26 11.4 23.75 15.46 3 1.48 3 1.48 6 3.48l-1.07 1.31-4.94 6.06c-.28.37-.28.37-1.8 2.23a1136 1136 0 0 0-9.26 11.52C268.8 564.56 263.4 570.77 258 577l-2 2.32q-2.48 2.86-5 5.68-.9 1.05-1.85 2.1C237.67 599.98 226 612.62 213 624l-1.58 1.4A221 221 0 0 1 201 634l-2.15 1.7c-5.53 3.71-11.08 3.68-17.53 3.86-8.45.34-14.33 3.02-20.2 9.2-5.45 6.9-8 13.36-7.62 22.24a22.8 22.8 0 0 0 6.5 13c10.34 6.93 21.78 8.33 34 7 9.28-2.33 17.73-7.3 26-12l-.93 2.31a29 29 0 0 0-2.2 12.12v3.44c.1 2.58.38 4.68 1.13 7.13h-3c-2.55-4.8-2.38-9.7-2-15l1-3-3.17 1.5-6.23 2.92c-10.34 4.84-23.37 5.46-34.47 2.33A39 39 0 0 1 160 687l-3.18-2.3c-5.45-5.22-6.34-10.79-6.82-18.07 0-6.3 2.63-12.36 6-17.63 2.57-2.25 2.57-2.25 5-4l1.28-1.94c3.6-4.32 9.45-5.7 14.72-7.06 3.65-.14 3.65-.14 7.25 0 6.74.23 10.42-.96 15.75-5l2.58-1.95a207 207 0 0 0 27.34-25.79 64 64 0 0 1 6.08-5.76 91 91 0 0 0 15.75-17.3c2.18-3.1 4.58-5.53 7.25-8.2l2-3c2.59-3.88 5.75-6.83 9.13-10 1.87-2 1.87-2 3.2-4.24 2.58-4.27 5.74-8.09 8.8-12.02C284 540 284 540 284 537l-2.18-.8A52 52 0 0 1 274 532l-2.08-1.32c-8.8-5.72-15.58-11.5-20.93-20.68q-.56-.88-1.19-1.78c-3.23-4.89-5.18-9.6-6.8-15.22l-.77-2.55q-1.14-3.72-2.23-7.45l-1.07-3.57a201 201 0 0 1-2.46-10.32c-.69-3.09-1.47-6.09-2.4-9.1-1.23-4.27-1.87-8.6-2.57-12.97q-.9-5.31-2.01-10.59-.72-3.63-1.3-7.26a304 304 0 0 0-3.7-16.94l-.63-2.73c-.93-3.8-1.87-7.58-2.99-11.34a42 42 0 0 1-1.44-8.3A80 80 0 0 0 218 380c-1.2-7.96-1.65-15.97-2-24l-.14-2.43c.1-5.96 4.22-10 7.82-14.35 4.09-3.9 8.4-3.5 13.82-3.44 3.6.31 6.3 1.58 9.5 3.22q2.16.98 4.33 1.93l2.3 1.03c3.26 1.42 6.59 2.72 9.9 4.03q3.63 1.48 7.16 3.13A68 68 0 0 0 282 353l2.08.81c3.1.3 5.25-1.36 7.93-2.8 1.93-.58 1.93-.58 4-1a168 168 0 0 0 9.88-3c4.83-1.56 9.76-2.56 14.75-3.5 2.37-.5 2.37-.5 5.69-1.5a76 76 0 0 1 11.68-2q2.5-.46 5-1l2.13-.34c9.87-1.74 14.14-9.2 19.69-16.98C372 311.77 372 311.77 376 308h2q.35-.88.66-1.77c1.75-2.93 3.76-4.12 6.66-5.92l2.85-1.82c3.67-1.93 6.33-2.86 10.4-1.87 2.98 1.7 4.39 3.63 6.43 6.38l2.5 2.25c3.25 3.57 4.73 7.3 6.5 11.75l1.63 3.62A90 90 0 0 1 419 331q1.48 4.5 3 9l2 6 .93 2.62c1.6 5.07 2.81 10.22 4.06 15.38 6.63 0 13.22-4.04 19-7l4.12-1.78c4.9-2.17 9.54-4.7 14.2-7.35l4.68-2.63 2.04-1.16q2.97-1.6 5.97-3.08 1.86-1.02 3.68-2.06l2.06-1.17 4.25-2.4q5.91-3.37 12-6.37l2.38-1.44a89 89 0 0 1 6.38-3.44q4.43-2.19 8.75-4.62 4.25-2.4 8.63-4.57c4.56-2.25 8.97-4.76 13.3-7.43 4.39-2.57 8.99-4.73 13.55-6.95 9.12-4.49 9.12-4.49 12.4-6.8 2.62-1.75 2.62-1.75 5.5-2.69 3.4-1.16 6.01-2.76 9-4.75 2.62-1.62 5.36-2.93 8.12-4.3l5.82-3.45c4.93-2.9 9.9-5.33 15.17-7.56a147 147 0 0 0 8.47-4.38 123 123 0 0 1 16.34-7.76c2.83-1.1 5.5-2.48 8.2-3.86 4.62-2.12 9.26-4.16 14-6a407 407 0 0 0 15.38-6.5A162 162 0 0 1 685 238l6-2 1.94-.69a158 158 0 0 1 28.66-6.88C724 228 724 228 726 227c2.6-.3 5.18-.5 7.79-.72 2.2-.28 2.2-.28 3.2-1.28q3.1-.02 6.2.06a67 67 0 0 0 6.95-.55c5.18-.6 10.28-.66 15.49-.64h2.73c4.99 0 9.7.31 14.63 1.13q2.42.23 4.83.43c5.14.5 10.12 1.46 15.17 2.57l2.28.47c4.01.84 7.88 1.86 11.8 3.1 6.63 2.01 12.31 3.45 18.92.43q3.03-1.95 6-4 1.42-.66 2.88-1.3c3.59-1.95 6.25-4.32 9.2-7.08 1.9-1.6 3.7-2.55 5.92-3.62 3.68-3.29 6.59-6.94 9.48-10.9q1.5-2.06 3.06-4.04a69 69 0 0 0 8.19-13.36c1.4-2.95 2.9-5.85 4.4-8.77a82 82 0 0 0 5.24-12.98 51 51 0 0 1 3.63-7.95l1.5-3.07c1.4-2.73 2.92-5.3 4.5-7.93l1.48-2.5 1.46-2.5 1.48-2.5A76 76 0 0 1 910 132l2.18-2.76 2.25-2.8 2.25-2.82A41 41 0 0 1 924 117h2l.78-1.85c1.36-2.39 2.38-3.2 4.7-4.59l2.1-1.27q1.05-.64 2.17-1.29l4.24-2.57q1.01-.59 2.06-1.24 2.65-1.64 5.19-3.4a23 23 0 0 1 7.2-3.29l2.58-.72L960 96l3.66-1q5.66-1.55 11.34-3l2.13-.56c5.64-1.4 10.94-1.72 16.75-1.63" fill="#B8BAB8"/><path d="M685 504a80 80 0 0 1 2.12 7.25c5.63 20.68 15.37 42.02 28.88 58.75l1.24 1.56c7.2 8.98 15.21 16.87 23.68 24.65 20.59 18.98 20.59 18.98 21.26 33.69q.03 5.55-.18 11.1l-2.34.26-3.16.43-3.09.38c-3.27.89-4.29 1.56-6.83 3.55-6.13 4.02-13.45 2.4-20.39 1.76a792 792 0 0 0-10.76-.85c-28.31-2.01-56.82-1.74-85.18-1.72h-2.83c-32.18.01-64.29.38-96.42 2.19l-3.2.18c-28.92 1.62-57.67 4.42-86.42 7.82l-2.17.26A2366 2366 0 0 0 361 666c1.33-3.98 2.98-4.47 6.55-6.59l5.4-3.21q3.88-2.3 7.75-4.62l3.88-2.33a850 850 0 0 0 21.89-13.64l8.69-5.52a834 834 0 0 0 31.34-20.66l1.71-1.17q1.92-1.37 3.8-2.79c6.04-4.4 11.79-6.04 19.05-7.53l6.74-1.52 3.26-.73c6.44-1.5 12.69-3.54 18.94-5.69l2.93-1a675 675 0 0 0 79.87-33.44c4.42-2.16 8.87-4.23 13.32-6.31A589 589 0 0 0 624 535l3.08-1.65a2290 2290 0 0 0 34.82-18.92q5.14-2.86 10.21-5.86l1.96-1.15 5.21-3.12C682 503 682 503 685 504" fill="#ECEEEC"/><path d="m993.88 89.81 2.64.02c8.85.12 16.98.6 25.48 3.17q2.06.29 4.13.5c3.45.44 5.7 1.16 8.86 2.5l2.27.86a156 156 0 0 1 30.73 16.14l2.44 1.37c3.5 2.22 6.48 4.88 9.56 7.63.38.32.38.32 2.21 1.95l4.6 4.12a93 93 0 0 0 4.05 3.38c5.5 4.35 9.2 9.8 13.14 15.55l1.34 1.8c4.8 6.64 5.94 15.15 5.66 23.2-1.62 3.37-1.62 3.37-4 6l-2.23 3.06c-3.16 3.57-6.16 6.43-10.77 7.94-8.43.44-15.87-.22-22.83-5.36l-1.54-1.39-1.74-1.57-1.89-1.68-2.17-1.84-2.2-1.85-2.01-1.7c-1.62-1.6-1.62-1.6-2.62-4.6q-1.99-.52-4-1c-1.52-1.54-1.52-1.54-2.92-3.39a23 23 0 0 0-8.08-6.62l-2.23-1.38c-9.18-5.42-17.9-10.4-28.5-12.23-2.25-.39-2.25-.39-4.1-.94-3.16-.66-6.24-.58-9.48-.58h-3.85c-10.72.37-18.95 3.92-28.15 9.06l-1.77 1c-5.87 3.36-9.91 7.9-14.1 13.13l-2.04 2.54A36 36 0 0 0 944 175l-1.23 2.31a225 225 0 0 0-9.87 22.4c-6.9 17.65-15.37 32.78-28.9 46.3l-5 5.74c-7.37 8.24-16.32 13.98-26 19.25l-3 2c.6 4.28 2.13 7.38 4.25 11.12 4.41 8.02 8.36 16.05 11.08 24.81.67 2.07.67 2.07 1.65 4.45 7.09 18.3 7.21 39.48 7.15 58.87v6.23c0 6.48-.12 12.87-.88 19.31-.48 4.23-.64 8.5-.86 12.74-.16 3.04-.42 5.57-1.4 8.47a123 123 0 0 0-.92 19.7c-.08 2.3-.08 2.3-1.08 5.3-.06 3.03.01 6.05.08 9.1-.06 3.11-.26 6.1-.57 9.2-.65 7.51-.65 15.01-.63 22.54v14.07c.01 6.16.59 12.11 2.13 18.1l1 7 1 4 2 8.42.53 2.28a270 270 0 0 1 2.47 11.3q.35 1.56.68 3.2c3.6 17.22 5.65 34.67 5.25 52.3.07 2.5.07 2.5.57 4.4.5 2.11.63 3.93.63 6.1v29.2c0 4.7-.35 9.15-1.13 13.8q7.38 2.5 14.86 4.73c20 6.04 20 6.04 24.13 12.26.64 3.73.44 5.35-1.69 8.5-7.16 7.78-18.38 9.87-28.37 11.75l-3.87.76a236 236 0 0 1-32.85 4.17c-16.3 1-32.58.84-48.88.52l-3.3-.06c-27.62-.55-55.18-1.98-82.76-3.43l-23.95-1.24-18.62-.97c-41.06-2.15-41.06-2.15-60-2.17h-4.3q-6.78-.02-13.58-.02h-2.38c-26.53.01-52.96.48-79.45 2.2-.53.02-.53.02-3.23.2-27.03 1.72-54.06 3.66-81 6.57A267 267 0 0 1 421 704v-1c27.43-3.2 54.9-5.73 82.44-7.75l2.2-.16q13.11-.97 26.22-1.87l7.57-.55c25.28-1.77 50.73-1.97 76.07-2.05h2.35c50.36-.16 100.85 2.43 151.1 5.92 23.38 1.6 46.88 1.67 70.31 1.7q4.76 0 9.51.04c22.98.16 45.26-.57 67.66-6.22l3.1-.72c6.64-1.63 13.44-3.4 18.47-8.28 1.22-2.5 1.23-4.32 1-7.06-9.33-5.73-18.85-9.1-29.42-11.66l-2.8-.69L900 662l-.01-2.6q-.1-12.33-.23-24.66l-.1-12.67c-.2-30.63-2.48-60.43-10.23-90.2-10.36-40.66-5.35-84.19-.75-125.44 4.78-43.65 2.45-88.44-21.21-126.5-1.53-3.04-2.12-4.6-1.48-7.93 1.45-1.45 1.45-1.45 3.58-2.69l2.47-1.53L875 266c28.4-17.76 45.12-42.1 57.45-73.07 7.8-19.63 17.6-38.23 37.54-47.93l2.88-1.48c14.72-6.45 33.52-5.7 48.43-.12q1.87.78 3.7 1.6l2 .84c12.22 5.23 21.26 12.67 30.79 21.76l3.9 3.71 1.9 1.82c8.03 7.5 15.38 12.27 26.56 12.15 5.63-.56 9.42-2.79 13.28-6.85 3.84-5.97 3.46-13.57 2.56-20.43-2.88-9.84-9.87-16.99-17-24l-1.42-1.44c-7.28-7.24-15.2-13.05-23.9-18.5q-2.14-1.36-4.25-2.77c-13.84-8.9-29.47-13.04-45.43-16.29l-2.9-.62c-28.56-3.53-57.08 2.97-80.02 20.55A111 111 0 0 0 905.99 143q-.94 1.5-1.95 3.02c-5.31 8.75-9.16 18.01-13 27.48-11.17 27.32-29.45 49.26-55.97 62.7-5.88 2.41-9.95 1.74-15.84-.04-28.05-8.46-58.27-10.77-87.24-6.16l-2.6.4c-60.38 9.37-118.1 42.3-170.94 71.5-6.27 3.47-12.6 6.8-18.96 10.1q-12.51 6.5-24.87 13.3-12.93 7.05-25.93 13.98-8.8 4.67-17.52 9.47c-10.19 5.6-20.37 11.01-31.05 15.62-.42.2-.42.2-2.62 1.14-3.88 1.62-6.2 2.5-10.5 2.5l-1.62-5.26-1.12-3.6q-1.34-4.36-2.59-8.73c-12.44-43.1-12.44-43.1-22.68-49.42-3.9-.95-7.51-.77-11.1 1.1a64 64 0 0 0-5.9 4.9l-1.65 1.46c-4 3.72-7.26 7.93-10.58 12.23l-4.33 5.5-2.8 3.57c-6.58 8.42-11.8 11.8-22.63 13.24-3.05.57-6.09 1.22-9.12 1.87-.4.1-.4.1-2.43.51-10.32 2.17-20.72 4.53-30.67 8.08l-2 .72q-2.65.97-5.28 2c-9.27 2.17-16.92-1.7-25.32-5.43l-6.64-2.89q-4.92-2.14-9.81-4.32l-3.15-1.37-2.79-1.23c-4.89-1.65-9.71-1.78-14.8-.94-3.75 2.1-5.35 4.11-7 8-3.62 25.24 3.52 55.05 10.5 79.2 1.51 5.32 2.43 10.72 3.38 16.17 9.72 55.11 9.72 55.11 24.13 71.63l2.25 3.06c6.25 7.28 15.26 11.4 23.75 15.46 3 1.48 3 1.48 6 3.48l-1.07 1.31-4.94 6.06c-.28.37-.28.37-1.8 2.23a1136 1136 0 0 0-9.26 11.52C268.8 564.56 263.4 570.77 258 577l-2 2.32q-2.48 2.86-5 5.68-.9 1.05-1.85 2.1C237.67 599.98 226 612.62 213 624l-1.58 1.4A221 221 0 0 1 201 634l-2.15 1.7c-5.53 3.71-11.08 3.68-17.53 3.86-8.45.34-14.33 3.02-20.2 9.2-5.45 6.9-8 13.36-7.62 22.24a22.8 22.8 0 0 0 6.5 13c10.34 6.93 21.78 8.33 34 7 9.28-2.33 17.73-7.3 26-12l-.93 2.31a29 29 0 0 0-2.2 12.12v3.44c.1 2.58.38 4.68 1.13 7.13h-3c-2.55-4.8-2.38-9.7-2-15l1-3-3.17 1.5-6.23 2.92c-10.34 4.84-23.37 5.46-34.47 2.33A39 39 0 0 1 160 687l-3.18-2.3c-5.45-5.22-6.34-10.79-6.82-18.07 0-6.3 2.63-12.36 6-17.63 2.57-2.25 2.57-2.25 5-4l1.28-1.94c3.6-4.32 9.45-5.7 14.72-7.06 3.65-.14 3.65-.14 7.25 0 6.74.23 10.42-.96 15.75-5l2.58-1.95a207 207 0 0 0 27.34-25.79 64 64 0 0 1 6.08-5.76 91 91 0 0 0 15.75-17.3c2.18-3.1 4.58-5.53 7.25-8.2l2-3c2.59-3.88 5.75-6.83 9.13-10 1.87-2 1.87-2 3.2-4.24 2.58-4.27 5.74-8.09 8.8-12.02C284 540 284 540 284 537l-2.18-.8A52 52 0 0 1 274 532l-2.08-1.32c-8.8-5.72-15.58-11.5-20.93-20.68q-.56-.88-1.19-1.78c-3.23-4.89-5.18-9.6-6.8-15.22l-.77-2.55q-1.14-3.72-2.23-7.45l-1.07-3.57a201 201 0 0 1-2.46-10.32c-.69-3.09-1.47-6.09-2.4-9.1-1.23-4.27-1.87-8.6-2.57-12.97q-.9-5.31-2.01-10.59-.72-3.63-1.3-7.26a304 304 0 0 0-3.7-16.94l-.63-2.73c-.93-3.8-1.87-7.58-2.99-11.34a42 42 0 0 1-1.44-8.3A80 80 0 0 0 218 380c-1.2-7.96-1.65-15.97-2-24l-.14-2.43c.1-5.96 4.22-10 7.82-14.35 4.09-3.9 8.4-3.5 13.82-3.44 3.6.31 6.3 1.58 9.5 3.22q2.16.98 4.33 1.93l2.3 1.03c3.26 1.42 6.59 2.72 9.9 4.03q3.63 1.48 7.16 3.13A68 68 0 0 0 282 353l2.08.81c3.1.3 5.25-1.36 7.93-2.8 1.93-.58 1.93-.58 4-1a168 168 0 0 0 9.88-3c4.83-1.56 9.76-2.56 14.75-3.5 2.37-.5 2.37-.5 5.69-1.5a76 76 0 0 1 11.68-2q2.5-.46 5-1l2.13-.34c9.87-1.74 14.14-9.2 19.69-16.98C372 311.77 372 311.77 376 308h2q.35-.88.66-1.77c1.75-2.93 3.76-4.12 6.66-5.92l2.85-1.82c3.67-1.93 6.33-2.86 10.4-1.87 2.98 1.7 4.39 3.63 6.43 6.38l2.5 2.25c3.25 3.57 4.73 7.3 6.5 11.75l1.63 3.62A90 90 0 0 1 419 331q1.48 4.5 3 9l2 6 .93 2.62c1.6 5.07 2.81 10.22 4.06 15.38 6.63 0 13.22-4.04 19-7l4.12-1.78c4.9-2.17 9.54-4.7 14.2-7.35l4.68-2.63 2.04-1.16q2.97-1.6 5.97-3.08 1.86-1.02 3.68-2.06l2.06-1.17 4.25-2.4q5.91-3.37 12-6.37l2.38-1.44a89 89 0 0 1 6.38-3.44q4.43-2.19 8.75-4.62 4.25-2.4 8.63-4.57c4.56-2.25 8.97-4.76 13.3-7.43 4.39-2.57 8.99-4.73 13.55-6.95 9.12-4.49 9.12-4.49 12.4-6.8 2.62-1.75 2.62-1.75 5.5-2.69 3.4-1.16 6.01-2.76 9-4.75 2.62-1.62 5.36-2.93 8.12-4.3l5.82-3.45c4.93-2.9 9.9-5.33 15.17-7.56a147 147 0 0 0 8.47-4.38 123 123 0 0 1 16.34-7.76c2.83-1.1 5.5-2.48 8.2-3.86 4.62-2.12 9.26-4.16 14-6a407 407 0 0 0 15.38-6.5A162 162 0 0 1 685 238l6-2 1.94-.69a158 158 0 0 1 28.66-6.88C724 228 724 228 726 227c2.6-.3 5.18-.5 7.79-.72 2.2-.28 2.2-.28 3.2-1.28q3.1-.02 6.2.06a67 67 0 0 0 6.95-.55c5.18-.6 10.28-.66 15.49-.64h2.73c4.99 0 9.7.31 14.63 1.13q2.42.23 4.83.43c5.14.5 10.12 1.46 15.17 2.57l2.28.47c4.01.84 7.88 1.86 11.8 3.1 6.63 2.01 12.31 3.45 18.92.43q3.03-1.95 6-4 1.42-.66 2.88-1.3c3.59-1.95 6.25-4.32 9.2-7.08 1.9-1.6 3.7-2.55 5.92-3.62 3.68-3.29 6.59-6.94 9.48-10.9q1.5-2.06 3.06-4.04a69 69 0 0 0 8.19-13.36c1.4-2.95 2.9-5.85 4.4-8.77a82 82 0 0 0 5.24-12.98 51 51 0 0 1 3.63-7.95l1.5-3.07c1.4-2.73 2.92-5.3 4.5-7.93l1.48-2.5 1.46-2.5 1.48-2.5A76 76 0 0 1 910 132l2.18-2.76 2.25-2.8 2.25-2.82A41 41 0 0 1 924 117h2l.78-1.85c1.36-2.39 2.38-3.2 4.7-4.59l2.1-1.27q1.05-.64 2.17-1.29l4.24-2.57q1.01-.59 2.06-1.24 2.65-1.64 5.19-3.4a23 23 0 0 1 7.2-3.29l2.58-.72L960 96l3.66-1q5.66-1.55 11.34-3l2.13-.56c5.64-1.4 10.94-1.72 16.75-1.63" fill="#E7E7E9"/><path d="M243 345.44c11.3 4.44 23.37 10.93 32 19.56.44 2.32.44 2.32 0 5a60 60 0 0 1-4.04 2.68C259.3 380.54 249.67 394.85 245 408l-1.05 2.93A170 170 0 0 0 239 428c-3-1-3-1-3.95-2.85l-.74-2.21-.76-2.22L233 419c-3 1-3 1-4 3l-2.88-13.12-.81-3.7c-4.95-22.81-4.95-22.81-3.31-32.18l.54-3.52.52-3.42.54-3.46.4-2.6h-2c-.63-8.14-.63-8.14 1.88-11.56C226 347 226 347 228 347v-2c4.8-2.4 10.14-1.17 15 .44" fill="#272825"/><path d="M397 300c4.7 1.11 6.81 3.64 9.46 7.43 8.06 13.5 13.18 30.29 16.54 45.57l-2 1q.69 4.34 1.51 8.64c.93 4.85 1.76 9.39 1.49 14.36h-2l-1.06-2.06c-2.87-4.35-6.72-6.94-10.94-9.94l-2.51-1.83c-13.24-9.09-28.91-11.69-44.49-14.17v-6h2l.52-1.98c1.49-5.38 3.11-9.49 6.48-14.02l2.88-4.44A94 94 0 0 1 384 311l2.5-2.75c2.68-2.41 5.22-3.79 8.5-5.25l2-1z" fill="#252623"/><path d="M813 575c14.81 6.87 27.91 20.96 34 36 4.07 11.32 3.95 24.12 3 36-1.79 1.79-4.63 1.47-7.06 1.75-4.43.62-7.48 1.24-11.06 3.94-4.2 3.07-7.78 2.43-12.76 1.7L817 654l.44-6.94.24-3.9q.3-4.26.84-8.5c2.07-18.04.74-36.56-4.72-53.87-.8-2.79-.8-2.79-.8-5.79" fill="#EAEDEA"/><path d="m247 339 4.31 1.94 2.3 1.02c3.28 1.42 6.59 2.73 9.91 4.03q3.62 1.5 7.17 3.13A67 67 0 0 0 282 353l2 .62c3 .57 5.96.44 9 .38-4 2.67-7.28 3.34-12 3-6.24-1.84-12.11-4.7-18.03-7.37l-6.72-2.99q-3.37-1.49-6.71-3.03c-7.24-3.19-13.6-4.73-21.54-3.61-3.75 2.1-5.35 4.11-7 8-3.62 25.24 3.52 55.05 10.5 79.19 1.5 5.33 2.42 10.73 3.38 16.19 9.7 55.1 9.7 55.1 24.12 71.62l2.25 3.06c6.24 7.29 15.26 11.39 23.75 15.46 3 1.48 3 1.48 6 3.48l-1.07 1.31-4.93 6.07-1.81 2.22q-4.67 5.74-9.25 11.52c-5.14 6.45-10.55 12.66-15.94 18.88l-2.01 2.32q-2.48 2.85-4.99 5.68l-1.86 2.11C237.67 599.98 225.98 612.63 213 624l-1.58 1.39A220 220 0 0 1 201 634l-2.15 1.7c-5.54 3.71-11.08 3.68-17.54 3.86-8.44.34-14.33 3.02-20.19 9.19-5.44 6.9-8 13.37-7.61 22.25a22.8 22.8 0 0 0 6.49 13c10.34 6.94 21.79 8.34 34 7 9.28-2.33 17.73-7.3 26-12l-.94 2.31c-1.7 4.3-2.2 7.5-2.18 12.13l-.01 3.43c.11 2.58.37 4.68 1.13 7.13h-3c-2.56-4.8-2.39-9.7-2-15l1-3-3.18 1.5-4.13 1.94-2.09.98c-10.33 4.84-23.37 5.47-34.48 2.33A38 38 0 0 1 160 687l-3.19-2.31c-5.45-5.21-6.33-10.77-6.81-18.05 0-6.31 2.63-12.37 6-17.64 2.56-2.25 2.56-2.25 5-4l1.29-1.94c3.58-4.32 9.43-5.7 14.71-7.06 3.65-.14 3.65-.14 7.25 0 6.73.23 10.43-.96 15.75-5l2.57-1.95a207 207 0 0 0 27.35-25.78c1.93-2.1 3.9-3.94 6.08-5.77a90 90 0 0 0 15.75-17.31c2.19-3.1 4.58-5.52 7.25-8.19l2-3c2.58-3.87 5.75-6.82 9.12-10 1.88-2 1.88-2 3.2-4.24 2.6-4.27 5.75-8.09 8.82-12.02C284 540 284 540 284 537l-2.19-.81A51 51 0 0 1 274 532l-2.07-1.32c-8.81-5.71-15.6-11.51-20.93-20.68l-1.19-1.78c-3.25-4.89-5.18-9.6-6.81-15.22l-.78-2.55q-1.13-3.72-2.22-7.45l-1.06-3.56c-.94-3.43-1.73-6.86-2.48-10.33-.67-3.09-1.45-6.09-2.4-9.11-1.23-4.25-1.86-8.59-2.56-12.95-.58-3.55-1.29-7.07-2.01-10.6q-.7-3.62-1.3-7.26a306 306 0 0 0-3.69-16.94l-.65-2.73c-.91-3.81-1.87-7.58-2.97-11.34a41 41 0 0 1-1.44-8.3A80 80 0 0 0 218 380c-1.2-7.95-1.67-15.97-2-24l-.16-2.43c.1-5.96 4.23-10.01 7.84-14.35 6.21-5.94 16.35-3.77 23.32-.22" fill="#E3E5E4"/><path d="M901 612h1c3.15 33.48 3.15 33.48 1 47q7.38 2.51 14.85 4.75c20 6.03 20 6.03 24.15 12.25.63 3.73.44 5.35-1.7 8.5-7.16 7.78-18.38 9.87-28.36 11.75l-3.88.76c-10.01 1.9-19.89 3.39-30.06 3.99l-2.8.18c-16.29 1-32.57.84-48.88.53l-3.29-.07c-27.61-.54-55.18-1.97-82.76-3.43l-23.96-1.24-18.6-.97c-41.06-2.15-41.06-2.15-60-2.17l-4.3-.01-13.6-.01h-2.36c-26.53.01-52.97.48-79.45 2.19l-3.24.21c-27.04 1.72-54.06 3.66-81 6.57A267 267 0 0 1 421 704v-1a1929 1929 0 0 1 82.44-7.75l2.2-.16q13.1-.97 26.21-1.87l7.58-.55c25.29-1.76 50.73-1.97 76.07-2.05h2.34c50.38-.16 100.87 2.44 151.11 5.92 23.39 1.59 46.88 1.67 70.31 1.7q4.77 0 9.52.04c22.96.16 45.26-.57 67.66-6.22l3.09-.72c6.64-1.63 13.43-3.4 18.47-8.28 1.21-2.5 1.23-4.31 1-7.06-12.34-7.57-24.67-10.42-39-14z" fill="#E8EAE8"/><path d="M362 563h3c-.58 3.4-1.66 5.02-4.1 7.43l-1.93 1.91-2.03 1.97-1.95 1.94a260 260 0 0 1-11.99 11c-3.42 2.99-6.7 6.12-10 9.25l-4.47 4.22-2.28 2.15a1139 1139 0 0 1-34.2 31.33q-3.46 3.05-6.86 6.18c-27.68 24.93-27.68 24.93-35.42 24.82l-2.43-.02-2.53-.06-2.56-.02-6.25-.1c3.43-3.68 7.27-6.54 11.31-9.5a498 498 0 0 0 16.13-12.44 662 662 0 0 1 16.25-12.68 443 443 0 0 0 17.64-14.13q3.63-3.05 7.36-6c5.41-4.3 10.73-8.71 16.06-13.11q5.7-4.72 11.5-9.33c4.38-3.48 8.65-7.09 12.91-10.72a463 463 0 0 1 12.91-10.53C360 565 360 565 362 563" fill="#ECEBEE"/><path d="m301.19 471.81 2.46-.04c7.05 0 15.12.67 21.35 4.23 2.38 2.87 2.38 2.87 4 6-.25 2.37-.25 2.37-1 4h-2v2a124 124 0 0 1-16.9 2.65c-2.1.35-2.1.35-4.48 1.41-6.08 2.18-13.17-.12-19-2.36-5.33-2.53-9.35-4.62-12.62-9.7l1-3c3.02-1.14 3.02-1.14 6.8-2.13l3.78-1L288 473l1.95-.55c3.7-.82 7.46-.64 11.24-.64" fill="#131515"/><path d="M889 400h1q.54 3.9 1.06 7.81l.32 2.24c.44 3.38.71 5.67-.38 8.95-.9 6.56-1.09 13.08-.94 19.69C890 441 890 441 889 444c-.07 3.03 0 6.06.06 9.09-.05 3.12-.25 6.11-.55 9.21-.67 7.52-.66 15.01-.64 22.55q.01 3.61-.01 7.24l.01 4.68-.01 2.14c.03 6.16.6 12.11 2.14 18.09l1 7q.48 2 1 4 1.01 4.21 2 8.44l.54 2.27q1.33 5.63 2.46 11.29l.68 3.21c3.61 17.22 5.65 34.67 5.26 52.3.06 2.36.48 4.22 1.06 6.49q.1 2.38.06 4.75l-.02 2.42L904 621l-2 1-1 32h-1l-.02-2.3q-.09-10.91-.22-21.83l-.11-11.21c-.22-29.43-2.78-58.22-10.21-86.78-10.89-42.69-4.84-88.57-.44-131.88" fill="#D8D9DA"/><path d="m409 450 2 2q-2.17 1.5-4.38 3l-2.46 1.69C402 458 402 458 400 458v2l-12 6-3.27 1.76L382 469l-2-1-1 3c-2.55 1.61-2.55 1.61-5.75 3.19l-3.17 1.6A15.6 15.6 0 0 1 362 477c-.46-2.76-.64-4.32 0-7 2.27-3.15 5.02-5.54 8-8l1.9-1.63c9.6-7.28 25.09-12.6 37.1-10.37" fill="#141715"/><path d="M903 244c0 4.91-3.7 7.67-6.94 11.07-6.64 6.6-14.88 11.48-23.06 15.93l-3 2c.6 4.28 2.13 7.38 4.25 11.12 4.42 8.03 8.36 16.05 11.07 24.81.68 2.07.68 2.07 1.67 4.46 7.08 18.28 7.2 39.48 7.14 58.86q-.01 3.11.01 6.23c0 7.23-.25 14.34-1.14 21.52l-.22 2.34A84 84 0 0 1 892 408l-2 1 .01-1.81q.07-9.51.1-19.03l.04-7.06c.09-12.56-.03-25.05-.99-37.58l-.22-2.98c-1.89-21.92-9.95-42.07-21.47-60.62-1.52-3.03-2.11-4.6-1.47-7.92 1.44-1.45 1.44-1.45 3.56-2.69l2.49-1.53L875 266a159 159 0 0 0 28-22" fill="#E9E8EB"/><path d="M992 140v1l-2.75.31c-3.25.69-3.25.69-5.06 2.07-2.18 1.61-3.51 2.08-6.07 2.81-4.41 1.38-8.36 3.42-12.37 5.69l-1.79.99c-5.88 3.4-9.95 7.93-14.15 13.19l-2.04 2.54A35 35 0 0 0 944 175l-1.23 2.31a228 228 0 0 0-9.88 22.4c-5.65 14.46-12.2 26.95-22.06 39.03A183 183 0 0 0 906 245l-3-1 1.03-1.36 3.15-4.21q1.77-2.37 3.61-4.67c10.92-14.1 17.95-30.7 24.24-47.26 8-20.61 21.81-35.52 41.97-44.5 5.23-1.92 9.5-2.19 15-2" fill="#E0E0E1"/><path d="m1026 94 5 1c13.35 4.03 25.44 10.29 37 18l2.44 1.38c3.49 2.21 6.47 4.87 9.56 7.62l2.2 1.96 4.61 4.11q1.97 1.75 4.04 3.39c5.5 4.35 9.2 9.8 13.15 15.54l1.36 1.83c4.84 6.64 3.53 13.45 2.64 21.17h-1l-.01-2.2c-.56-14.59-8-23.97-17.99-33.8l-1.43-1.43c-7.29-7.25-15.2-13.06-23.89-18.51q-2.14-1.36-4.26-2.77c-15.39-9.89-33.51-14.53-51.42-17.29 2.96-5.91 13.35-2.07 18 0" fill="#DDDEDE"/><path d="M358 489c-.63 6.64-.63 6.64-2.56 8.5-1.44 1.5-1.44 1.5-1.56 5.12L354 506c-1 1-1 1-4.56 1.06L346 507l-1-5-2.88-.81C339 500 339 500 337 497c-.5-2.38-.5-2.38 0-5 6.36-6.36 13.23-8.48 21-3" fill="#676664"/><path d="M153 674a41 41 0 0 1 4.44 6.88c3.58 5.47 11.31 8.4 17.47 9.76 17.71 2.04 29.92-3.03 45.09-11.64l-.94 2.31c-1.7 4.3-2.2 7.5-2.18 12.13l-.01 3.43c.11 2.58.37 4.68 1.13 7.13h-3c-2.56-4.8-2.39-9.7-2-15l1-3-3.18 1.5-4.13 1.94-2.09.98c-10.33 4.84-23.37 5.47-34.48 2.33A38 38 0 0 1 160 687l-3.25-2.31c-3.36-3.28-3.87-5.18-4.75-9.69z" fill="#E7EBE9"/><path d="m287 474 .48 1.76c2.15 7.21 5.11 11.97 11.52 16.24-7.93.9-15.25-2.46-21.74-6.86-2.41-2.28-3.3-4-4.26-7.14q2.37-1.01 4.75-2l2.67-1.12C283 474 283 474 287 474" fill="#E0BA62"/><path d="M222 375c2 1.77 2 1.77 4 4 .03 1.94.05 3.89-.05 5.82.05 2.36.54 3.98 1.36 6.18 1.6 4.35 2.53 8.71 3.38 13.25l.4 2.08c1.33 7.33 1.33 7.33.91 10.67l-3 2c-2.21-4.78-3.07-9.74-4.06-14.88l-.53-2.64c-1.37-6.99-2.55-13.77-2.47-20.92l.02-3.18z" fill="#171719"/><path d="M375 461c4 6.62 4 6.62 4 10l-5.69 3-3.2 1.69A14.5 14.5 0 0 1 362 477c-.46-2.78-.67-4.31 0-7 3.4-4.39 7.18-9 13-9" fill="#EDCA71"/><path d="m257 648 2 2-1 2h-2l-.06 3.81-.04 2.15c.1 2.04.1 2.04 1.1 5.04-3.1 2.07-3.73 2.24-7.23 2.2l-2.43-.02-2.53-.06-2.56-.02-6.25-.1c3.65-3.96 7.87-7.01 12.19-10.19l4.35-3.23 1.94-1.43C256 649 256 649 257 648" fill="#DDDFDD"/><path d="m237 336 1 2-2.01.3c-5.32.9-9.16 1.63-12.99 5.7-2.66 3.83-2.25 8.01-2.2 12.48l.01 2.48q.02 3.89.07 7.79l.02 5.29q.03 6.48.1 12.96l-3-1 .1-5.86c-.1-2.14-.1-2.14-.56-3.92-1.42-5.86-1.3-12.21-1.54-18.22l-.16-2.44c.1-5.96 4.23-10.01 7.84-14.34 4.09-3.91 7.81-3.33 13.32-3.22" fill="#EFF2EF"/><path d="M899 574c5.37 5.37 3.97 18.24 4.03 25.51l-.09 6c.06 2.36.48 4.22 1.06 6.49q.1 2.38.06 4.75l-.02 2.42L904 621l-2 1-1 32h-1z" fill="#CECFCF"/><path d="M396 299v1l-3.38.44c-10.93 2.8-18.78 15.13-25.62 23.56l-4.88 6-2.05 2.56A108 108 0 0 1 353 340l-3-1c4.42-5.56 4.42-5.56 7.47-7.88 2.68-2.25 4.04-4.24 5.78-7.24A76 76 0 0 1 376 308h2l.74-1.79c3.72-6.52 10.25-9.3 17.26-7.21" fill="#E7E8E8"/><path d="M891 347h2c.97 8.32 1.16 16.59 1.13 24.95q-.01 3.17.01 6.33c0 7.3-.24 14.47-1.14 21.72l-.22 2.33c-.18 1.9-.47 3.79-.78 5.67l-2 1c-.08-13.53.18-27.04.5-40.56l.14-6.27z" fill="#F0F1F3"/><path d="M230 339v2l3 1 2 2-7 1v2l-5 2-1 11h2c.37 10.56.37 10.56-2 15-3.09-4.64-2.37-9.36-2.38-14.81l-.07-3.28c-.02-6.29.19-10.15 4.45-14.91 3.4-3 3.4-3 6-3" fill="#1B1C1C"/><path d="m1010 91-1 2-2.03.04c-16.44.4-32.39 1.08-48.09 6.41-1.88.55-1.88.55-4.88.55l1-3c3.48-1.51 7.31-2.14 11-3l4.03-1.08c13.06-3.36 26.64-4.56 39.97-1.92" fill="#E9EAEC"/><path d="m799 227 2.69.44c2.31.56 2.31.56 4.69 1.56 3.18 1.21 6.25 1.53 9.62 2 5.37 1.58 9.6 3.54 14 7a62 62 0 0 1-14-2.81c-10.44-3.12-21.25-4.54-32-6.19v-1c5.58-1.98 9.17-2.03 15-1" fill="#ECECF0"/><path d="m232 601 3 1c-4.37 5.28-9 10.07-14 14.75l-2.24 2.1c-4.7 4.36-9.49 8.55-14.51 12.53l-1.7 1.35A32 32 0 0 1 193 638l-1-2 2.05-1.21a101 101 0 0 0 16.62-12.61c2.04-1.91 4.13-3.7 6.27-5.49 5.49-4.76 10.23-10.28 15.06-15.69" fill="#E2E3E3"/><path d="M1080 124c9.19 4.32 15.36 11.24 21.56 19.06l1.88 2.33c4.96 6.44 6.02 11.43 5.12 19.55l-.31 2.9-.25 2.16h-1l-.01-2.2c-.56-14.63-7.96-23.99-17.99-33.8a228 228 0 0 0-7.42-6.48L1080 126z" fill="#DEE0DF"/><path d="M322 473a21 21 0 0 1 3 3h-2l-1 2v-3c-6.98-1.76-13.77-2.19-20.94-2.19h-2.51c-3.72.03-6.94.24-10.55 1.19q-2.12.1-4.25.06L280 474l1-2c13.67-3.71 27.84-5.24 41 1" fill="#040404"/><path d="M219 679c0 3 0 3-.99 5.28-1.21 3.25-1.24 5.83-1.2 9.28l.02 3.38c.14 2.54.43 4.65 1.17 7.06h-3c-2.56-4.8-2.39-9.7-2-15l1-3-2.45 1.35-3.24 1.71-3.2 1.73c-3.33 1.3-4.76 1.3-8.11.21a56 56 0 0 1 6.69-3.88l2.11-1.04 4.4-2.16 2.11-1.04 1.93-.95C216 681 216 681 219 679" fill="#D2D2D3"/><path d="M754.95 223.87h10.98c5.8 0 11.36.08 17.07 1.13l2.87.44 2.13.56 1 2a692 692 0 0 1-29.88-.5l-4.14-.14L745 227c1.95-3.91 6.07-3.13 9.95-3.13" fill="#F5F5F7"/><path d="m1029 147-1 3-1.62-.8a56 56 0 0 0-15.12-4.81c-2.26-.39-2.26-.39-4.09-.93-3.21-.68-6.33-.59-9.61-.58l-3.93-.01c-3.03.11-5.69.42-8.63 1.13v-3c15.46-2.45 29.99-1.55 44 6" fill="#E8EAE7"/><path d="m493 580 2 1a112 112 0 0 1-12.85 9.57A117 117 0 0 0 476 595l1 2c-4.5 1.76-8.18 2.19-13 2 3.97-4.39 8.24-7.16 13.38-10.06l2.21-1.28 4.33-2.47q2.07-1.19 4.11-2.42A100 100 0 0 1 493 580" fill="#030504"/><path d="M885 503h2a53 53 0 0 1 2.5 11.5c.27 2.86.69 5.15 1.5 7.94 1.25 4.43 2.1 8.93 2 13.56l-2 3c-5.76-24.78-5.76-24.78-6-36" fill="#E7E7E6"/><path d="m380 469 2 1c.2 3.72.15 4.77-2 8h-2v2h-4l-2-2-2 1c-2.13-.05-2.13-.05-4.56-.31l-2.44-.24-2-.45-1-2c.94-2.12.94-2.12 2-4v5a64 64 0 0 0 16.15-7.11z" fill="#16111A"/><path d="M901 612h1c3.54 37.55 3.54 37.55 0 45h-1z" fill="#F3F3F4"/><path d="M411 449v2l-2.43-.21a54 54 0 0 0-21.19 3.02l-2.34.79c-3.15 1.13-5.69 2.13-8.38 4.16L375 460l-3-1c10.05-6.42 26.74-16.13 39-10" fill="#030503"/><path d="M889 400h1q.54 3.9 1.06 7.81l.32 2.24c.44 3.38.71 5.67-.38 8.95q-.3 2-.54 4.01l-.26 2.3-.26 2.38-.28 2.41-.66 5.9-2-1c-.4-11.75.82-23.32 2-35" fill="#D4D7D5"/><path d="M239 336c5.7 2.26 11.37 4.56 17 7l3.94 1.69L263 346v3a134 134 0 0 1-15.94-6.12c-5.76-2.53-10.78-3.85-17.06-3.88v-1l6.15-.68C238 337 238 337 239 336" fill="#DFDFE0"/><path d="M221 380h1l2 12.12a514 514 0 0 1 1.12 6.83l.51 3.07c.38 3.03.43 5.94.37 8.98h-2a619 619 0 0 1-3-12l-.71-2.96c-1.3-6.06-1.29-10.15.71-16.04" fill="#E3E2E4"/><path d="M1057 106a230 230 0 0 1 11 7l2.44 1.38c3.44 2.18 6.82 4.58 9.56 7.62v3l-1.48-1-2.14-1.44-2.45-1.64q-3.28-2.15-6.64-4.18l-1.93-1.19q-1.9-1.17-3.84-2.3c-1.77-1.1-1.77-1.1-4.52-3.25z" fill="#E5E4E6"/><path d="m237 336 1 2-2.01.3c-5.32.9-9.16 1.63-12.99 5.7-2.53 3.76-2.44 7.87-2.62 12.25l-.12 2.26L220 364h-1l-.18-2.48-.26-3.27-.24-3.23c-.32-3.02-.32-3.02-1.12-5.06-.2-1.96-.2-1.96 1.53-4.72l2.46-2.93 2.42-2.95c4.12-4.07 7.75-3.47 13.39-3.36" fill="#DADBDB"/><path d="M888 326h2c3.01 11.02 2.95 19.65 1 31h-1l-1-12.12-.29-3.47-.27-3.36-.26-3.07A128 128 0 0 1 888 326" fill="#DDDFE0"/><path d="M988.46 89.87h8.05c4.6 0 8.96.19 13.49 1.13l-1 2q-6.16.09-12.31.13-1.74.01-3.54.05l-3.4.02-3.11.03C984 93 984 93 981 91a21 21 0 0 1 7.46-1.13" fill="#F1F1F4"/><path d="m289 483 2.19 2.25A88 88 0 0 0 299 492c-6.46.56-11.15-1.37-17-4 2-2 2-2 4.06-2.5l1.94-.5z" fill="#D0B56C"/><path d="m710 230 3 3-9.96 3.22-2.15.69-1.97.63C697 238 697 238 693 238l1-3c1.82-.88 1.82-.88 4.12-1.56l2.45-.74 2.43-.7 2.15-.63q2.42-.7 4.85-1.37" fill="#EEEEF1"/><path d="M813 575a43 43 0 0 1 8.25 5.12l2.14 1.64L825 583l-3 1-1 1c-3 0-3 0-6-1-.73-2.07-.73-2.07-1.19-4.56l-.48-2.51z" fill="#E4E4E3"/><path d="M890 168c1.11 1.72 1.11 1.72 2 4-.6 2.2-.6 2.2-1.77 4.55l-1.25 2.56-1.36 2.64-1.32 2.69q-1.63 3.3-3.3 6.56h-1c-.34-4.89.56-7.77 2.88-12.06A94 94 0 0 0 890 168" fill="#E6E7E6"/><path d="M931 196c1.17 1.56 1.17 1.56 2 4a50 50 0 0 1-2.69 7l-.82 1.87c-1.49 3.33-3.02 6.41-5.49 9.13h-2c1.55-4.96 3.52-9.64 5.62-14.38l.99-2.23z" fill="#D5D4D7"/><path d="M566 692v1h-9v2c-7.4.13-14.64-.2-22-1v-1a360 360 0 0 1 31-1" fill="#DFE3DF"/><path d="M767 224c5.45-.11 10.61.07 16 1l2.88.44 2.12.56 1 2h-14v-1l-8-1z" fill="#ECECEE"/><path d="M1024.56 93.56 1027 95v1c-6.57.25-12.57-.68-19-2 2.82-5.64 12.1-2.4 16.56-.44" fill="#E1E2E4"/><path d="M179.9 635.6q2.17.05 4.35.15l2.26.06q2.74.06 5.5.19v3l-20 1c4-4 4-4 7.88-4.4" fill="#ECEFEC"/><path d="M689 693a412 412 0 0 1 32 1v1c-6.7.8-13.26 1.13-20 1v-2h-12z" fill="#E5E6E4"/><path d="m232 601 3 1a85 85 0 0 1-13 13c.53-4.14 2.78-6.27 5.56-9.25l2.51-2.7z" fill="#D9DADD"/><path d="M323 476h2c1.69 1.69 1.69 1.69 3 4-.31 2.75-.31 2.75-1 5l-7 2 .94-2.12A42 42 0 0 0 323 476" fill="#C6BA81"/><path d="M213 689h3l.18 2.27.26 2.98.24 2.95c.27 2.36.67 4.52 1.32 6.8h-3c-2.59-4.86-2.19-9.65-2-15" fill="#CACBCD"/><path d="m509 325 3 1c-3.2 2.59-6.55 4.38-10.25 6.19l-3.27 1.6L496 335c1.7-4.85 1.7-4.85 4.38-6.19L503 328q2.01-.98 4-2z" fill="#E4E4E5"/><path d="M305 349v2c-5.53 2.11-10.07 3.38-16 3 2.23-2.56 3.7-3.34 7-4l3.06-1.12C302 348 302 348 305 349" fill="#ECECEE"/><path d="m171 638 2 1c-2.63 2.92-5.73 4.84-9 7a274 274 0 0 0-5 4c0-4 0-4 2.06-6.56A28 28 0 0 1 171 638" fill="#DADDDA"/><path d="M897 558c4.31 6.46 2.87 13.64 2 21h-1l-1.06-9.38-.32-2.69-.28-2.58-.27-2.38C896 560 896 560 897 558" fill="#E5E5E6"/><path d="M222 375c2.02 1.64 2.02 1.64 4 4 .17 2.8.17 2.8-.25 5.75l-.39 2.98L225 390h-2c-1.1-3.29-1.1-5.74-1.06-9.19l.02-3.29z" fill="#0F0F10"/><path d="M153 674a89 89 0 0 1 4.88 7 28 28 0 0 0 7.12 7c-4.69-.41-8.01-2.43-11-6a32 32 0 0 1-2-7z" fill="#D8D9DA"/><path d="M1060 170c4.18 3.51 8.2 7.08 12 11-3.54 0-4.32-.7-7.06-2.81l-2.1-1.58C1061 175 1061 175 1059 172z" fill="#DAD8DA"/><path d="M375 461c4 6.62 4 6.62 4 10l-7 3v-2h2v-2h2v-4h-2l-1-2-3-2c2-1 2-1 5-1" fill="#DABF7C"/><path d="m799 227 1 4-16-2v-1c5.54-1.96 9.21-2.02 15-1" fill="#D0D0D2"/><path d="M1100 181v2c-6.08 3.24-11.18 3.33-18 3l-1-2 2.7-.15 3.55-.23 3.52-.21c3.34-.42 6-2.41 9.23-2.41" fill="#181819"/><path d="M421 352c2.77 2.35 3.52 4.15 4.19 7.69l.48 2.45.33 1.86h-4c-1.81-4.46-2.12-7.31-1-12" fill="#181917"/><path d="M162 688c5.51.59 10.65 1.57 16 3v3l-5.75-1.31-3.23-.74A18 18 0 0 1 162 688" fill="#E2E5E3"/><path d="M847 696h18v1l-9 1v1h-10z" fill="#ADB1AD"/><path d="M361 472h1v5l1.83-.62 4.81-1.63A88 88 0 0 1 375 473l-1 3h-2l-1 3q-2.47-.17-4.94-.38l-2.77-.21L361 478c-1.25-2.49-.78-3.41 0-6" fill="#352B18"/><path d="M222 360h2c.37 10.56.37 10.56-2 15h-1c-.18-10.56-.18-10.56 1-15" fill="#121412"/><path d="m875 266 1 2a22 22 0 0 1-5.56 4.5C868 274 868 274 866 277c-.28-2.29-.28-2.29 0-5 1.97-1.8 1.97-1.8 4.5-3.31l2.53-1.55z" fill="#DDDDDE"/><path d="M416 339c1.94.56 1.94.56 4 2 .88 3.44.88 3.44 1 7l-2 3-1.5-4.31-.84-2.43C416 342 416 342 416 339" fill="#18181A"/><path d="m237 336 1 2-2.05.4-2.7.54-2.67.52q-3.31.69-6.58 1.54c1.45-3.76 1.45-3.76 3.69-4.75 3.11-.34 6.18-.31 9.31-.25" fill="#EDEFEE"/><path d="M287 474h3v8h2l1 3h-3c-2.15-3.86-3.39-6.55-3-11" fill="#2B1E0A"/><path d="M890 526c2.23 2.23 2.37 2.92 2.75 5.94l.3 2.09C893 536 893 536 891 539c-2.43-8.43-2.43-8.43-1-13" fill="#D5D5D9"/><path d="m328 482 1 3-3 1v2q-2.37.55-4.75 1.06l-2.67.6A13 13 0 0 1 312 489l3.25-1.02 4.19-1.36 2.14-.67c1.83-.59 3.63-1.27 5.42-1.95z" fill="#3B382B"/><path d="M379 309c2.31.19 2.31.19 4 1l-5 6-4-2c2.25-2.56 2.25-2.56 5-5" fill="#1C1C1E"/><path d="m605 273 3 1c-2.77 3.08-5.06 4.69-9 6v-3c2.81-2.25 2.81-2.25 6-4" fill="#EFEEF2"/><path d="m900 243 2 3-7 7-2-1v-2h2l.81-1.81A18 18 0 0 1 900 243" fill="#282829"/><path d="m253 508 1.81 2.31a33 33 0 0 0 3.94 4.38C260 516 260 516 260 518c-1.75-.12-1.75-.12-4-1-2.31-2.88-2.31-2.88-4-6z" fill="#DFE0E0"/><path d="M246 500c3.55 1.87 5.67 3.13 7 7v3c-2.45-.98-3.76-1.62-5.19-3.88-.77-2.02-1.36-4-1.81-6.12" fill="#ECEDEC"/><path d="M838 232c-1 3-1 3-3.25 4.19-2.75.81-4.9.97-7.75.81l-1-2 6.05-1.46c5.59-1.54 5.59-1.54 5.95-1.54" fill="#EAEBED"/><path d="m1108 159 2 1c.41 2.72.41 2.72.62 6.06l.23 3.35.15 2.59h-3z" fill="#F1F0F5"/><path d="M208 698c2.19.31 2.19.31 4 1v3l-5 2-2-3c1.25-1.56 1.25-1.56 3-3" fill="#D6D6D8"/><path d="M583 555c-2.72 3.37-6.07 4.44-10 6 .12-1.81.12-1.81 1-4 5.19-3.27 5.19-3.27 9-2" fill="#1C201C"/><path d="M274 477h2v5l6 2-1 3c-4.28-2.51-6.65-4.12-8-9z" fill="#C5AC71"/><path d="M221 380h1l1 13h-2c-1.95-3.46-2.08-5.57-1.12-9.31z" fill="#D2D2D4"/><path d="m867 211 1 2-7 8-3-1z" fill="#212123"/><path d="M1051 164c4.25.47 6.27 2.89 9 6v2l-3-1v-2l-1.88-.25c-2.12-.75-2.12-.75-3.37-2.81z" fill="#EBEDEB"/><path d="M1000 140c-3.2 1.81-6.13 2.52-9.75 3.12l-2.98.51-2.27.37v-3a80 80 0 0 1 15-1" fill="#F3F5F2"/><path d="M220 372h1v13l-3-1a168 168 0 0 1 2-12" fill="#E1E1E4"/><path d="m357 332 2 2-6 6-3-1c4.75-5.88 4.75-5.88 7-7" fill="#D5D6D7"/><path d="m519 319 2 1c-3.02 3.48-5.57 4.79-10 6v-2c1.68-1.32 1.68-1.32 3.88-2.69l2.17-1.38z" fill="#EFEFF1"/><path d="M479 592c2.75.81 2.75.81 5 2v2c-3.38.62-3.38.62-7 1l-2-2c1.69-1.62 1.69-1.62 4-3" fill="#1A1C1A"/><path d="M693 533h2l2 4.38 1.12 2.46C699 542 699 542 699 544h-3l-1.5-3.81-.84-2.15C693 536 693 536 693 533" fill="#DBDBDB"/><path d="M887 518c1.94.62 1.94.62 4 2 .75 3.12.75 3.12 1 6l-3 1c-1.5-3.37-2-5.2-2-9" fill="#DFDFE1"/><path d="M241 480c2 1 2 1 3.19 3.25.9 3.05.67 4.73-.19 7.75-2.5-2.5-3.1-4.6-4-8z" fill="#E8EAE9"/><path d="M992 140v1l-2.75.38c-3.25.62-3.25.62-5.31 1.74-2.61 1.18-4.24.63-6.94-.12 5.02-3.35 9.1-3.1 15-3" fill="#C7C8C6"/><path d="m286 638 2 1c-2.63 3.6-4.94 6.08-9 8l-2-1z" fill="#1E1D22"/><path d="M595 548v3c-5.75 3-5.75 3-8 3v-3c5.75-3 5.75-3 8-3" fill="#1F2121"/><path d="M421 344h3l.44 2.88C425 350 425 350 426 352l-3 1c-1.5-3.37-2-5.2-2-9" fill="#EDEDF0"/><path d="M824 233.69a88 88 0 0 1 6 4.3c-8.57-.84-8.57-.84-12-3 3.42-2.2 3.42-2.2 6-1.3" fill="#CBCBCE"/><path d="M1029 94a25 25 0 0 1 5 3v2l-10-2c3-2 3-2 5-3" fill="#D5D4D7"/><path d="M460 597c2.87.57 3.86.86 6 3l-8 2z" fill="#1F211F"/><path d="M885 181h2c-1.16 3.91-2.36 6.87-5 10-.23-3.37-.34-5.41 1.38-8.38z" fill="#DDE0DC"/><path d="M289 489c5.42-.37 5.42-.37 8.38 1.5L299 492c-6.62.12-6.62.12-10-1z" fill="#B9AE78"/><path d="M235 455h2l1 9-3-1z" fill="#D7D7D7"/><path d="m239 336 5 2c-3.31 2.03-5.43 2.13-9.25 1.62l-2.7-.33L230 339v-1l6.15-.68C238 337 238 337 239 336" fill="#CECFD0"/><path d="M580 288c-1 3-1 3-3.94 4.69C573 294 573 294 571 294v-2c5.29-4 5.29-4 9-4" fill="#EEECEF"/><path d="M868 273c1.99 2.99 2.94 5.6 4 9-1.94-.62-1.94-.62-4-2-.81-3.06-.81-3.06-1-6z" fill="#ECEDEE"/><path d="m644.75 255.31 2.25.7a29 29 0 0 1-9 5c0-3 0-3 1.69-4.76 2.31-1.25 2.31-1.25 5.06-.94" fill="#E4E3E3"/><path d="M738 228h7l-2 4h-7z" fill="#2A2A2C"/><path d="M806 229v3c-3.73-.5-5.81-.87-9-3 3.38-.84 5.67-1.11 9 0" fill="#E4E4E7"/><path d="M1080 124c3.82 1.56 6.19 4.04 9 7-3.87-.57-6.15-2.39-9-5z" fill="#DDDCDF"/><path d="m569.69 560.38 2.3.62c-2.61 2.15-4.63 3.4-8 4v-3c3-2 3-2 5.7-1.62" fill="#232523"/><path d="m380 469 2 1v4l-7-1z" fill="#2E1D18"/><path d="m256 344 7 2v3l-9-3z" fill="#D4D5D5"/><path d="m556 299 3 1v2l-7 3c1.15-2.47 2.05-4.05 4-6" fill="#E3E2E6"/><path d="m651 251 1 2c-1.19 1.5-1.19 1.5-3 3-2.69.19-2.69.19-5 0 2.22-3.33 3.35-3.75 7-5" fill="#F0F0F2"/><path d="m715 229 6 2c-2.57 1.62-3.68 2.04-6.75 1.62L712 232z" fill="#DFDFE0"/><path d="M153 674c1.89 2.39 3.02 4.07 4 7l-2 2c-1.56-2.81-1.56-2.81-3-6z" fill="#E0E0E1"/><path d="m377 650 3 1v2c-2.35 1.43-3.48 2.09-6.25 1.62L372 654l2-2h3z" fill="#19171B"/><path d="m382 651 3 1-6 5-3-2c2.81-2.06 2.81-2.06 6-4" fill="#E6E5E8"/><path d="m298 628 2 1c-2.31 2.5-2.31 2.5-5 5h-3c3.75-4.88 3.75-4.88 6-6" fill="#1E1C20"/><path d="M373 460h3v2h2v4h2l-1 3c-4-4.62-4-4.62-4-8z" fill="#38260B"/><path d="m887 435 2 1c.95 2.93 1.23 4.43.06 7.31L888 445h-1z" fill="#F1F1F3"/><path d="M890 400h3c-.59 6.15-.59 6.15-1 8l-2 1z" fill="#F1F3F1"/><path d="M293 354c-3.04 2.02-4.19 2.32-7.69 2.62l-2.45.23-1.86.15c4.42-2.95 6.68-3.1 12-3" fill="#DADADD"/><path d="m525 316 2 1v2l-7 3c.81-2.44.81-2.44 2-5z" fill="#E3E3E5"/><path d="M396 299v1l-3.88.94A27 27 0 0 0 386 303c.38-1.94.38-1.94 1-4 3.07-1.53 5.7-.55 9 0" fill="#C7C7CC"/><path d="M1071 181c5.75 1.75 5.75 1.75 8 4-2.31.69-2.31.69-5 1-1.81-1.31-1.81-1.31-3-3z" fill="#E8E8E9"/><path d="m903 142 2 1a29 29 0 0 1-5 9c-.37-4.27.59-6.49 3-10" fill="#DEDCDE"/><path d="M897 666h1q-.17 2.22-.38 4.44l-.21 2.49L897 675l-2 1c.88-7.75.88-7.75 2-10" fill="#070808"/><path d="m246 658-2 5h-5c4.75-5 4.75-5 7-5" fill="#DFE1E0"/><path d="m226 608 3 1-7 6c.96-3.84 1.24-4.6 4-7" fill="#C2C7C3"/><path d="M286 475v3h-6l-1-2c2.46-1.23 4.28-1.07 7-1" fill="#E2C772"/><path d="M319 344v2l2 1-7 1-1-2c3-2 3-2 6-2" fill="#DBDBDD"/><path d="m477 341 2 1-1 3c-3.06 1.19-3.06 1.19-6 2v-2q2.44-2.07 5-4" fill="#ECEDF0"/><path d="M340 342v1l-9 1-1-2c3.69-1.23 6.21-.64 10 0" fill="#E1E1E4"/><path d="m1106 156 3 1-1 13h-1z" fill="#B3B3B6"/><path d="M728 647h12v3l-12-2z" fill="#B0B1B0"/><path d="m295 618 1 3-2 3c-2.62.19-2.62.19-5 0z" fill="#E1E2E0"/><path d="M249 586c-1.39 3.37-2.98 4.99-6 7 .63-3.64 1.85-7 6-7" fill="#DDDFDF"/><path d="m369 459 4 2-5 3-2-2z" fill="#212013"/><path d="M224 403c2 2 2 2 2.12 5.12L226 411h-2q-.57-3.5-1-7z" fill="#E8EAE9"/><path d="M486 339v2l-7 3v-3c2.65-1.46 3.89-2 7-2" fill="#DFE1DF"/><path d="m500 329 1 2 2 1-7 3c1.75-4.88 1.75-4.88 4-6" fill="#DCDCDE"/><path d="m530 313 3 2-6 3-1-3z" fill="#EFF0F2"/><path d="m673.69 243.38 2.3.62c-2.45 2.47-4.7 3-8 4v-3c3-2 3-2 5.7-1.62" fill="#E4E4E8"/><path d="M881 186h1c.37 5.54.37 5.54-1.5 7.88L879 195c0-3.38.87-5.83 2-9" fill="#EBEDEB"/><path d="M1101 152c1.94.38 1.94.38 4 1 1.35 2.71 1.07 5.01 1 8l-.38-1.94-.62-2.06-2-1c-1.12-2.06-1.12-2.06-2-4" fill="#0A0C0A"/><path d="M967 147c2.12.94 2.12.94 4 2-2.38 1.56-2.38 1.56-5 3l-2-1 1-3z" fill="#EEF0ED"/><path d="M907 140h3l-1 5-4-1z" fill="#1C191B"/></svg>