<svg style="background:transparent" version="1.1" xmlns="http://www.w3.org/2000/svg" viewBox="0 0 1248 704"><path d="M530.3 32.66c3.9 2.85 7.56 5.88 11.15 9.08 2.3 1.87 4.88 2.98 7.55 4.26 3.75 2.36 7.44 4.83 11 7.5a129 129 0 0 0 6.5 4.5 157 157 0 0 1 8.5 6c6 4.16 9.82 5.14 17.02 5l7.8-.1 8.4-.14 17.84-.26 20.68-.3 8.3-.14 5.07-.07 2.34-.04c5.32-.06 5.32-.06 7.55 1.05l3.1-2.3 4.08-3q1.01-.74 2.04-1.53A112 112 0 0 1 690 55q5.62-3.35 11.06-7l3.1-2.06q2.47-1.69 4.87-3.48a142 142 0 0 1 16.9-10.65c3.07-1.8 3.07-1.8 5-3.94 3.65-3.3 7.87-3.87 12.63-3.87 7.9.56 12.11 3.1 17.44 9a25 25 0 0 1 2 4l1 1.83a20 20 0 0 1 1.68 6.8l.27 2.35C766 50 766 50 765 52c-.07 2.44 0 4.86.06 7.3-.06 2.7-.06 2.7-.56 5.51-.6 3.87-.58 7.6-.5 11.5q.06 3.84 0 7.7l-1 1q-.23 2.75-.32 5.52l-.13 3.55-.12 3.86-.13 3.92a707 707 0 0 0-.24 32.9l.03 2.63c-.09 2.61-.09 2.61-.59 5.32a66 66 0 0 0-.6 10.5v2.11l.02 4.5.02 7.12.06 15.12.05 17.54.03 7.01.01 4.31.02 3.78a43 43 0 0 1-1.1 8.3l-.43 2.93a45 45 0 0 1-2.9 9.13l-1.23 3.04a33 33 0 0 1-8.89 10.96 208 208 0 0 0-7.83 7q-.86.78-1.74 1.61l-3.43 3.24c-2.69 2.53-5.12 4.68-8.56 6.1l-2.25 1.11-1.75.88.91 2.16a66 66 0 0 1 2.46 8.28c1.2 4.54 2.88 7.72 5.63 11.56l.44 2.4c.62 2.91 1.62 4.46 3.37 6.85 3.04 4.4 5.18 8.8 7.2 13.75l2.55 6.25 1.2 2.95A64 64 0 0 0 749 331a69 69 0 0 1 3.36 9.77c1.17 4.1 2.46 8.17 3.73 12.24q1.06 3.46 1.91 7l3-1q1.04-3 2-6c3.43-6.12 8.44-11.3 15-14 4.63-.74 8.11-.46 12.31 1.68 8.43 7.25 9.56 16.65 10.7 27.31 1.67 10.2 6.7 18.96 13 27l2.26 2.94c2.88 3.43 6.23 5.97 9.85 8.56l2 1.45c4.63 3.3 9.38 6.17 14.44 8.78a112 112 0 0 1 8.58 5.1q2.11 1.32 4.27 2.56c3.62 2.25 6.8 4.96 10.1 7.67a30 30 0 0 0 5.05 3.41c2.7 1.7 4.35 3.51 6.37 5.97 2.34 2.73 4.44 5.04 7.5 6.93C887 450 887 450 888 453a94 94 0 0 0 4.33 3.33c2.51 2.51 4.02 5.56 5.67 8.67l1.02 1.9c4.13 7.84 7.84 15.45 9.98 24.1l1 3a54 54 0 0 1 2.56 15.12c.32 7.3.32 7.3 1.03 10.81L914 522l-1 1q-.45 2.63-.85 5.27c-1.53 10.08-4.47 19.24-8.15 28.73l-1.06 2.73c-3.89 9.35-13.85 23.86-23.08 28.3-2.4 1.25-2.69 2.57-3.86 4.97-4.56 3.78-9.84 6.53-15.17 9.06-1.83.94-1.83.94-4.9 3.06-3.3 2.11-6.15 2.92-9.93 3.88l-4.38 1.5a88 88 0 0 1-21.26 4.25c-2.36.25-2.36.25-4.57.76-3.32.58-6.45.62-9.82.62h-6.2l-6.38.01h-7.83A52 52 0 0 1 769 613l-.8 1.82c-1.28 2.31-2.47 3.48-4.52 5.12a73 73 0 0 0-6.12 5.56c-3.27 3.2-6.86 5.83-10.56 8.5l2 1.56 3 2.44 2 1.58c4.7 3.83 7.05 6.7 9 12.42l1.18 2c1.53 3.75 1.41 7.27.1 11.1-2.06 4.45-4.04 7.23-8.28 9.9a68 68 0 0 1-9.82 1.75l-2.62.38c-13.79 1.9-26.8.57-39.56-5.13q-3-1.05-6-2l2.12 1.56c6.15 5.22 10.45 10.32 11.88 18.44a96 96 0 0 1 0 13c-1.89 1.9-5.15 1.18-7.66 1.21l-2.1.03-6.95.07-2.39.02-12.52.07q-5.19.03-10.38.11-6.26.1-12.5.1-2.4.01-4.78.05-3.33.05-6.68.04l-3.84.03c-3.2-.73-3.2-.73-5.57-3.57A42 42 0 0 1 633 691l-.6-2.16c-1.4-5.4-1.38-9.36-.4-14.84l.5-3.69q.64-4.17 1.5-8.3h-16l2 5c.24 2.6.24 2.6.23 5.33v3.03l-.05 3.13v3.13c-.04 7.11-.27 12.27-4.18 18.37l-2 4h-74c-1.13-11.27-1.13-11.27.81-15.94l1.08-2.7C543 683 543 683 545 680c-2.04-2.25-3.34-3.67-6-5-2.12.2-2.12.2-4.48.83-5.88 1.36-11.5 1.5-17.52 1.48l-3.08.05c-6.45 0-13.1-.29-18.92-3.36-1.15-2.05-1.15-2.05-2-4l-2.07-.94C489 668 489 668 488.25 665.81l-.25-2.8-.32-3.26c.66-7.92 4.6-14.35 10.32-19.75 2.27-1.77 4.61-3.38 7-5v-1c-2.66-2.25-5.39-4.4-8.1-6.58-2.8-2.34-5.34-4.82-7.9-7.42a145 145 0 0 0-3.57-3 50 50 0 0 1-7.43-8l-2.27-2.22a112 112 0 0 1-8.36-9.72l-1.44-1.8A57 57 0 0 1 459 584q-1.5-2.34-3.07-4.63c-3.37-4.88-5.63-9.9-7.93-15.37l-1.07-2.5A109 109 0 0 1 444 552l-1-3.44-1-3.56-.54-1.9a79 79 0 0 1-2.25-13 87 87 0 0 0-.7-5.1c-1.69-10.08-2.9-20.97-.5-31l.78-3.42c3.81-15.07 8.7-25.23 22.21-33.58 8.43-4.94 19.76-3.76 29-2l-.4-1.72A147 147 0 0 1 487 439l-.49-3.6a199 199 0 0 1-1.14-14.2l-.16-2.57-.13-2.46-.12-2.2C485 412 485 412 486 409q.06-2.81 0-5.63-.07-2.69 0-5.37l1-1q.27-2.8.43-5.63A59 59 0 0 1 490 378l.65-5.96c.5-2.9 1.56-5.47 2.66-8.18.7-1.86.7-1.86 1.12-4.74.68-3.75 2.06-6.95 3.52-10.47a99 99 0 0 0 3.24-10.13c1.05-3.27 2.43-6.38 3.81-9.52l1.64-3.9c2.7-6.3 5.28-12.37 9.11-18.06 2.9-4.75 4.98-9.97 7.25-15.04l1.45-3.1 1.36-2.9 1.21-2.56c1-2.49 1.5-4.8 1.98-7.44l2-6v-2c-1.36-1.18-1.36-1.18-3.19-2.44l-1.79-1.24a80 80 0 0 0-4.43-2.69c-13.45-8.44-23.8-21.87-27.36-37.3-1.86-9.47-1.53-19.12-1.35-28.72.11-5.92.18-11.74-.37-17.63-.99-11.1-.57-22.28-.49-33.4.06-11.04.04-21.99-.77-33-.48-6.8-.64-13.6-.86-20.42-.2-5.79-.62-11.42-1.39-17.16q-.07-2.1 0-4.19c0-3.8 0-3.8-.48-5.97-1.75-9.47-2.37-21.49 2.8-29.89 3.05-3.54 6.55-5.82 10.68-7.95l2.81-1.5c10.3-1.62 17.37 2.41 25.5 8.16M690 664v3l5 2zm-128 1 1 2Zm-12.19 6-2.73 1.12-2.08.88 4 4 3.37-2.88 1.9-1.6A82 82 0 0 0 558 669c-3.3 0-5.17.74-8.19 2" fill="#151816"/><path d="M787 342c3.99 1.81 5.55 3.23 7.75 7 2.22 6.07 2.75 12.74 3.72 19.1 3.22 17.19 13.6 30.82 27.53 40.9l2.23 1.68c4.92 3.58 10 6.6 15.33 9.51A168 168 0 0 1 882 449l2.52 2.52c11.42 12.04 19.11 27.52 23.48 43.48l.62 2.22c5.48 23.9.02 49.23-12.53 69.93-1.92 2.74-3.93 5.3-6.09 7.85l-1.28 1.51c-19.39 22.6-44.63 32.82-73.72 36.49-4.35.18-8.7.19-13.06.19l-6.12.03c-8.33.04-16.7-.17-24.82-2.22l-2-2 2.2-1.59c3.09-2.66 5.32-5.58 7.61-8.91l1.3-1.86q1.96-2.81 3.89-5.64l1.19-1.71c3.91-5.63 7.24-10.94 9.81-17.29l1.66-.1c22.33-1.51 43.58-5.61 59.34-22.9a66 66 0 0 0 6-10l1.21-2.38c5.17-10.82 5.78-25.51 2.17-37A131 131 0 0 0 863 494l-1.18-2.72c-9.38-19.28-28.85-31.49-46.93-41.58-18.55-10.44-34.94-24.53-44.89-43.7l-1.52-2.85c-6.82-14.47-9-35.06-3.54-50.27 4.59-8.76 12.3-12.79 22.06-10.88" fill="#101311"/><path d="M530.3 32.66c3.9 2.85 7.56 5.88 11.15 9.08 2.3 1.87 4.88 2.98 7.55 4.26 3.75 2.36 7.44 4.83 11 7.5a129 129 0 0 0 6.5 4.5 157 157 0 0 1 8.5 6c6 4.16 9.82 5.14 17.02 5l7.8-.1 8.4-.14 17.84-.26 20.68-.3 8.3-.14 5.07-.07 2.34-.04c5.32-.06 5.32-.06 7.55 1.05l3.1-2.3 4.08-3q1.01-.74 2.04-1.53A112 112 0 0 1 690 55q5.62-3.35 11.06-7l3.1-2.06q2.47-1.69 4.87-3.48a142 142 0 0 1 16.9-10.65c3.07-1.8 3.07-1.8 5-3.94 3.65-3.3 7.87-3.87 12.63-3.87 7.9.56 12.11 3.1 17.44 9a25 25 0 0 1 2 4l1 1.83a20 20 0 0 1 1.68 6.8l.27 2.35C766 50 766 50 765 52c-.07 2.44 0 4.86.06 7.3-.06 2.7-.06 2.7-.56 5.51-.6 3.87-.58 7.6-.5 11.5q.06 3.84 0 7.7l-1 1q-.23 2.75-.32 5.52l-.13 3.55-.12 3.86-.13 3.92a707 707 0 0 0-.24 32.9l.03 2.63c-.09 2.61-.09 2.61-.59 5.32a66 66 0 0 0-.6 10.5v2.11l.02 4.5.02 7.12.06 15.12.05 17.54.03 7.01.01 4.31.02 3.78a43 43 0 0 1-1.1 8.3l-.43 2.93a45 45 0 0 1-2.9 9.13l-1.23 3.04a33 33 0 0 1-8.89 10.96 208 208 0 0 0-7.83 7q-.86.78-1.74 1.61l-3.43 3.24c-2.69 2.53-5.12 4.68-8.56 6.1l-2.25 1.11-1.75.88.91 2.16a66 66 0 0 1 2.46 8.28c1.2 4.54 2.88 7.72 5.63 11.56l.44 2.4c.62 2.91 1.62 4.46 3.37 6.85 3.04 4.4 5.18 8.8 7.2 13.75l2.55 6.25 1.2 2.95A64 64 0 0 0 749 331a69 69 0 0 1 3.36 9.77c1.17 4.1 2.46 8.17 3.73 12.24q1.06 3.46 1.91 7l3-1q1.04-3 2-6c3.43-6.12 8.44-11.3 15-14 4.63-.74 8.11-.46 12.31 1.68 8.43 7.25 9.56 16.65 10.7 27.31 1.67 10.2 6.7 18.96 13 27l2.26 2.94c2.88 3.43 6.23 5.97 9.85 8.56l2 1.45c4.63 3.3 9.38 6.17 14.44 8.78a112 112 0 0 1 8.58 5.1q2.11 1.32 4.27 2.56c3.62 2.25 6.8 4.96 10.1 7.67a30 30 0 0 0 5.05 3.41c2.7 1.7 4.35 3.51 6.37 5.97 2.34 2.73 4.44 5.04 7.5 6.93C887 450 887 450 888 453a94 94 0 0 0 4.33 3.33c2.51 2.51 4.02 5.56 5.67 8.67l1.02 1.9c4.13 7.84 7.84 15.45 9.98 24.1l1 3a54 54 0 0 1 2.56 15.12c.32 7.3.32 7.3 1.03 10.81L914 522l-1 1q-.45 2.63-.85 5.27c-1.53 10.08-4.47 19.24-8.15 28.73l-1.06 2.73c-3.89 9.35-13.85 23.86-23.08 28.3-2.4 1.25-2.69 2.57-3.86 4.97-4.56 3.78-9.84 6.53-15.17 9.06-1.83.94-1.83.94-4.9 3.06-3.3 2.11-6.15 2.92-9.93 3.88l-4.38 1.5a88 88 0 0 1-21.26 4.25c-2.36.25-2.36.25-4.57.76-3.32.58-6.45.62-9.82.62h-6.2l-6.38.01h-7.83A52 52 0 0 1 769 613l-.8 1.82c-1.28 2.31-2.47 3.48-4.52 5.12a73 73 0 0 0-6.12 5.56c-3.27 3.2-6.86 5.83-10.56 8.5l2 1.56 3 2.44 2 1.58c4.7 3.83 7.05 6.7 9 12.42l1.18 2c1.53 3.75 1.41 7.27.1 11.1-2.06 4.45-4.04 7.23-8.28 9.9a68 68 0 0 1-9.82 1.75l-2.62.38c-13.79 1.9-26.8.57-39.56-5.13q-3-1.05-6-2l2.12 1.56c6.14 5.21 10.46 10.33 11.88 18.44.22 4.35.18 8.65 0 13l-4 1 .17-3.18c.37-9.58-.04-16.17-6.75-23.55-4.26-4.03-9.02-6.1-14.42-8.27v-9q3.57 1.8 7.13 3.62c13.2 6.75 23.78 9.6 38.7 9.67l4.07.07c8.06.17 14.31.27 21.1-4.36 3.13-4.7 2.55-9.5 2-15-1.73-6.23-5.67-10.5-11-14a93 93 0 0 0-9-4v-2q2.81-2.05 5.75-3.94c7.45-4.96 15.12-10.8 20.7-17.9 2.53-1.89 4.71-1.18 7.8-.85 19.67 1.71 40.43 2.23 59.75-2.3l3.47-.82c9.08-2.48 17.27-6.76 25.53-11.19l2.81-1.47c20.2-11.18 33.74-31.83 40.2-53.53l.95-3.22c3.8-14.72 3.62-31.3-.96-45.78l-1.04-3.59c-4.33-14.2-10.88-26.42-20.96-37.4l-2.34-2.56c-12.89-13.43-29.08-24.1-45.6-32.58-8.42-4.42-15.46-11.12-22.06-17.87l-1.78-1.78c-11.8-12.66-15.45-28.12-17.73-44.77-.72-3.59-1.73-5.79-4.49-8.2-5.09-2.12-9.99-2.19-15.25-.55-5.33 2.7-7.9 6.76-9.9 12.28-4.46 17.76-.92 38.87 8.42 54.51 3.28 4.76 6.94 9.14 10.73 13.51l1.9 2.34c8.95 10.75 20.22 17.46 32.28 24.2 11.67 6.54 22.23 14.07 31.82 23.46l2.11 2c9 9.2 16.08 23.22 16.16 36.2l-.02 2.17-.03 2.3c-.3 14.32-5.82 26.86-15.86 37.15-8.4 7.76-17.58 11.8-28.36 15.18l-1.93.61c-5.38 1.53-10.5 1.63-16.07 1.51l-2.64-.02-6.36-.1q1.55-4 3.33-7.89c10.87-24.67 15.35-57.76 6.98-83.8-3.85-9.79-9.87-15.8-19.3-20.3-10.6-4.09-19.63-1.32-30 2q.7-6.3 1.42-12.57l.41-3.58.4-3.49.37-3.19q.4-3.33.92-6.65c.72-5.44.65-10.85.65-16.33q0-3 .04-6c.01-6.53-.23-12.6-1.7-18.98a65 65 0 0 1-1.13-6.5C755.67 355.47 745.05 329.1 732 304c-14.96-29-14.96-29-13-36 2.68-2.78 5.82-4.83 9-7 15-10.97 25.82-21.9 29-41 .26-3.5.28-6.98.27-10.49l.01-3.07.02-6.58q0-5.29.04-10.57.1-15.05.11-30.09.03-11.01.1-22.04l.03-3.67c.15-20 1-39.9 2.38-59.85 2.35-34.3 2.35-34.3-2.35-40.19-4.54-4.09-9.76-6.39-15.94-6.09-9.39 2.25-17.97 8.62-25.53 14.37-4.1 2.96-8.36 5.6-12.64 8.27a237 237 0 0 0-15.44 10.25L685.67 62a94 94 0 0 0-5.08 4.1c-9.43 7.44-18.34 7.12-29.93 7.04l-5.89.04q-6.15.03-12.3-.02-7.84-.03-15.66.08-6.07.07-12.16.03-2.88 0-5.77.04c-13.97.18-22.05-2.48-32.88-11.3q-2.4-1.66-4.82-3.26-2.09-1.42-4.18-2.87l-2.35-1.6q-6.84-4.69-13.63-9.48l-3.07-2.16-5.86-4.16C515.3 26.65 515.3 26.65 506 28c-5.27 1.81-9.02 4.18-12 9-4.72 9.91-1.74 24.1-1.2 34.8l.4 8.28.26 5.36.12 2.46q.28 5.87.92 11.72c.54 5.4.7 10.74.78 16.15l.05 3.1.11 6.64.18 10.52.38 22.34q.2 12.95.44 25.9l.16 10.31.11 6.4.05 2.85c.31 16.88 2.21 32.66 14.17 45.61 4.8 4.52 10.3 8.27 15.64 12.11q.9.64 1.8 1.31C530 264 530 264 532.45 265.4c1.55 1.6 1.55 1.6 2.06 4.6-.33 5.35-2.67 10.14-4.76 15l-1.35 3.18a322 322 0 0 1-12.07 24.44c-4.88 9.2-8.77 18.61-12.33 28.38l-.82 2.18c-5.19 13.9-8.3 28.3-11.18 42.82l-.6 2.93c-1.59 8.34-1.76 16.61-1.72 25.07v2.2c.03 11.1.83 21.81 2.95 32.71.64 3.68 1 7.38 1.37 11.1l-2.72-.67c-11.47-2.64-20.64-4.24-31.28 1.66-9.48 6.51-15.06 15.48-17.3 26.73-4.38 28 .35 56.77 12.3 82.27l.94 2.05c12.23 25.92 33.65 47 57.06 62.95a65 65 0 0 1-7.25 4.12c-5.83 3.22-9.77 7.6-13.19 13.25-1.2 5.58-1.74 11.68 1.44 16.63 11.3 7.1 31.07 5.57 43.63 2.92 7.56-1.9 14.44-5.03 21.35-8.53C562 662 562 662 565 662v7l-1.98.92c-8.15 3.9-14.15 7.66-18.12 16.03-1.75 5.9-1.27 11.97-.9 18.05l-4-1c-1.72-8.72.05-15.59 5-23-2.04-2.25-3.34-3.67-6-5-2.12.2-2.12.2-4.48.83-5.88 1.36-11.5 1.5-17.52 1.48l-3.08.05c-6.45 0-13.1-.29-18.92-3.36-1.15-2.05-1.15-2.05-2-4l-2.07-.94C489 668 489 668 488.25 665.81l-.25-2.8-.32-3.26c.66-7.92 4.6-14.35 10.32-19.75 2.27-1.77 4.61-3.38 7-5v-1c-2.66-2.25-5.39-4.4-8.1-6.58-2.8-2.34-5.34-4.82-7.9-7.42a145 145 0 0 0-3.57-3 50 50 0 0 1-7.43-8l-2.27-2.22a112 112 0 0 1-8.36-9.72l-1.44-1.8A57 57 0 0 1 459 584q-1.5-2.34-3.07-4.63c-3.37-4.88-5.63-9.9-7.93-15.37l-1.07-2.5A109 109 0 0 1 444 552l-1-3.44-1-3.56-.54-1.9a79 79 0 0 1-2.25-13 87 87 0 0 0-.7-5.1c-1.69-10.08-2.9-20.97-.5-31l.78-3.42c3.81-15.07 8.7-25.23 22.21-33.58 8.43-4.94 19.76-3.76 29-2l-.4-1.72A147 147 0 0 1 487 439l-.49-3.6a199 199 0 0 1-1.14-14.2l-.16-2.57-.13-2.46-.12-2.2C485 412 485 412 486 409q.06-2.81 0-5.63-.07-2.69 0-5.37l1-1q.27-2.8.43-5.63A59 59 0 0 1 490 378l.65-5.96c.5-2.9 1.56-5.47 2.66-8.18.7-1.86.7-1.86 1.12-4.74.68-3.75 2.06-6.95 3.52-10.47a99 99 0 0 0 3.24-10.13c1.05-3.27 2.43-6.38 3.81-9.52l1.64-3.9c2.7-6.3 5.28-12.37 9.11-18.06 2.9-4.75 4.98-9.97 7.25-15.04l1.45-3.1 1.36-2.9 1.21-2.56c1-2.49 1.5-4.8 1.98-7.44l2-6v-2c-1.36-1.18-1.36-1.18-3.19-2.44l-1.79-1.24a80 80 0 0 0-4.43-2.69c-13.45-8.44-23.8-21.87-27.36-37.3-1.86-9.47-1.53-19.12-1.35-28.72.11-5.92.18-11.74-.37-17.63-.99-11.1-.57-22.28-.49-33.4.06-11.04.04-21.99-.77-33-.48-6.8-.64-13.6-.86-20.42-.2-5.79-.62-11.42-1.39-17.16q-.07-2.1 0-4.19c0-3.8 0-3.8-.48-5.97-1.75-9.47-2.37-21.49 2.8-29.89 3.05-3.54 6.55-5.82 10.68-7.95l2.81-1.5c10.3-1.62 17.37 2.41 25.5 8.16M690 664v3l5 2zm-128 1 1 2Zm-12.19 6-2.73 1.12-2.08.88 4 4 3.37-2.88 1.9-1.6A82 82 0 0 0 558 669c-3.3 0-5.17.74-8.19 2" fill="#ECEDEF"/><path d="m579 496 2.19 2.2c12.25 12.2 26.25 24.72 44.5 25.18q2.65-.14 5.31-.38l2.12-.14c14.03-2 26.48-13.01 35.88-22.86l1.73-2.36L672 496h2c.54 4.85-1.17 7.47-3.75 11.5l-2.11 3.34c-3.15 4.64-6.29 8.55-10.64 12.1l-2.28 1.9a81 81 0 0 1-9.42 5.3l-3.29 1.62L640 533l.09 1.97c.77 17.65 1.1 35.27 1.1 52.93l.02 8.2c.07 14.33-.07 28.6-1.1 42.9l-.23 3.33A98 98 0 0 1 637 659h-22a312 312 0 0 1-3.25-31.03c-1.56-26.26-1.29-52.72.25-78.97l.15-2.54q.39-6.73.85-13.46l-2.34-1.1c-12.85-6.2-12.85-6.2-17.66-10.9v-2l-1.71-.62c-3.14-1.89-4.94-4.53-6.98-7.5l-1.22-1.77c-2.98-4.5-4.19-7.76-4.09-13.11" fill="#000"/><path d="M530.3 32.66c3.9 2.85 7.56 5.88 11.15 9.08 2.3 1.87 4.88 2.98 7.55 4.26 3.75 2.36 7.44 4.83 11 7.5a129 129 0 0 0 6.5 4.5 157 157 0 0 1 8.5 6c6 4.16 9.82 5.14 17.02 5l7.8-.1 8.4-.14 17.84-.26 20.68-.3 8.3-.14 5.07-.07 2.34-.04c5.32-.06 5.32-.06 7.55 1.05l3.1-2.3 4.08-3q1.01-.74 2.04-1.53A112 112 0 0 1 690 55q5.62-3.35 11.06-7l3.1-2.06q2.47-1.69 4.87-3.48a142 142 0 0 1 16.9-10.65c3.07-1.8 3.07-1.8 5-3.94 3.65-3.3 7.87-3.87 12.63-3.87 7.9.56 12.11 3.1 17.44 9a25 25 0 0 1 2 4l1 1.83a20 20 0 0 1 1.68 6.8l.27 2.35C766 50 766 50 765 52c-.07 2.44 0 4.86.06 7.3-.06 2.7-.06 2.7-.56 5.51-.6 3.87-.58 7.6-.5 11.5q.06 3.84 0 7.7l-1 1q-.23 3.2-.32 6.43l-.13 3.96-.12 4.16-.13 4.18L762 114l-2 1-1 17h-1c-.23-16.72.38-33.26 1.5-49.94 2.81-42.73 2.81-42.73-1.89-48.6-4.54-4.1-9.76-6.4-15.94-6.1-9.39 2.25-17.97 8.62-25.53 14.37-4.1 2.96-8.36 5.6-12.64 8.27a237 237 0 0 0-15.44 10.25L685.67 62a94 94 0 0 0-5.08 4.1c-9.43 7.44-18.34 7.12-29.93 7.04l-5.89.04q-6.15.03-12.3-.02-7.84-.03-15.66.08-6.07.07-12.16.03-2.88 0-5.77.04c-13.97.18-22.05-2.48-32.88-11.3q-2.4-1.66-4.82-3.26-2.09-1.42-4.18-2.87l-2.35-1.6q-6.84-4.69-13.63-9.48l-3.07-2.16-5.86-4.16C515.3 26.65 515.3 26.65 506 28c-5.27 1.81-9.02 4.18-12 9-4.72 9.91-1.74 24.1-1.2 34.8l.4 8.28.26 5.36.12 2.46q.28 5.87.92 11.72c.54 5.4.7 10.74.78 16.15l.05 3.1.11 6.64.18 10.52.38 22.34q.2 12.95.44 25.9l.16 10.31.11 6.4.05 2.85c.31 16.88 2.21 32.66 14.17 45.61 4.8 4.52 10.3 8.27 15.64 12.11q.9.64 1.8 1.31C530 264 530 264 532.45 265.4c1.55 1.6 1.55 1.6 2.06 4.6-.33 5.35-2.67 10.14-4.76 15l-1.35 3.18a322 322 0 0 1-12.07 24.44c-4.88 9.2-8.77 18.61-12.33 28.38l-.82 2.18c-5.19 13.9-8.3 28.3-11.18 42.82l-.6 2.93c-1.59 8.34-1.76 16.61-1.72 25.07v2.2c.03 11.1.83 21.81 2.95 32.71.64 3.68 1 7.38 1.37 11.1l-2.72-.67c-11.47-2.64-20.64-4.24-31.28 1.66-9.48 6.51-15.06 15.48-17.3 26.73-4.38 28 .35 56.77 12.3 82.27l.94 2.05c12.23 25.92 33.65 47 57.06 62.95a65 65 0 0 1-7.25 4.12c-5.83 3.22-9.77 7.6-13.19 13.25-1.2 5.58-1.74 11.68 1.44 16.63 11.3 7.1 31.07 5.57 43.63 2.92 7.56-1.9 14.44-5.03 21.35-8.53C562 662 562 662 565 662v7l-1.98.92c-8.15 3.9-14.15 7.66-18.12 16.03-1.75 5.9-1.27 11.97-.9 18.05l-4-1c-1.72-8.72.05-15.59 5-23-2.04-2.25-3.34-3.67-6-5-2.12.2-2.12.2-4.48.83-5.88 1.36-11.5 1.5-17.52 1.48l-3.08.05c-6.45 0-13.1-.29-18.92-3.36-1.15-2.05-1.15-2.05-2-4l-2.07-.94C489 668 489 668 488.25 665.81l-.25-2.8-.32-3.26c.66-7.92 4.6-14.35 10.32-19.75 2.27-1.77 4.61-3.38 7-5v-1c-2.66-2.25-5.39-4.4-8.1-6.58-2.8-2.34-5.34-4.82-7.9-7.42a145 145 0 0 0-3.57-3 50 50 0 0 1-7.43-8l-2.27-2.22a112 112 0 0 1-8.36-9.72l-1.44-1.8A57 57 0 0 1 459 584q-1.5-2.34-3.07-4.63c-3.37-4.88-5.63-9.9-7.93-15.37l-1.07-2.5A109 109 0 0 1 444 552l-1-3.44-1-3.56-.54-1.9a79 79 0 0 1-2.25-13 87 87 0 0 0-.7-5.1c-1.69-10.08-2.9-20.97-.5-31l.78-3.42c3.81-15.07 8.7-25.23 22.21-33.58 8.43-4.94 19.76-3.76 29-2l-.4-1.72A147 147 0 0 1 487 439l-.49-3.6a199 199 0 0 1-1.14-14.2l-.16-2.57-.13-2.46-.12-2.2C485 412 485 412 486 409q.06-2.81 0-5.63-.07-2.69 0-5.37l1-1q.27-2.8.43-5.63A59 59 0 0 1 490 378l.65-5.96c.5-2.9 1.56-5.47 2.66-8.18.7-1.86.7-1.86 1.12-4.74.68-3.75 2.06-6.95 3.52-10.47a99 99 0 0 0 3.24-10.13c1.05-3.27 2.43-6.38 3.81-9.52l1.64-3.9c2.7-6.3 5.28-12.37 9.11-18.06 2.9-4.75 4.98-9.97 7.25-15.04l1.45-3.1 1.36-2.9 1.21-2.56c1-2.49 1.5-4.8 1.98-7.44l2-6v-2c-1.36-1.18-1.36-1.18-3.19-2.44l-1.79-1.24a80 80 0 0 0-4.43-2.69c-13.45-8.44-23.8-21.87-27.36-37.3-1.86-9.47-1.53-19.12-1.35-28.72.11-5.92.18-11.74-.37-17.63-.99-11.1-.57-22.28-.49-33.4.06-11.04.04-21.99-.77-33-.48-6.8-.64-13.6-.86-20.42-.2-5.79-.62-11.42-1.39-17.16q-.07-2.1 0-4.19c0-3.8 0-3.8-.48-5.97-1.75-9.47-2.37-21.49 2.8-29.89 3.05-3.54 6.55-5.82 10.68-7.95l2.81-1.5c10.3-1.62 17.37 2.41 25.5 8.16M562 665l1 2Zm-12.19 6-2.73 1.12-2.08.88 4 4 3.37-2.88 1.9-1.6A82 82 0 0 0 558 669c-3.3 0-5.17.74-8.19 2" fill="#E5E6E7"/><path d="M787 339c4.38 2.23 7.46 4.79 10 9a97 97 0 0 1 4 20c1.68 10.19 6.7 18.97 13 27l2.27 2.95c2.88 3.42 6.23 5.96 9.85 8.55l2 1.45c4.64 3.3 9.38 6.17 14.45 8.78 2.96 1.55 5.76 3.29 8.58 5.09q2.1 1.33 4.26 2.57c3.63 2.25 6.8 4.96 10.09 7.67 2.5 1.94 2.5 1.94 5.07 3.41 2.7 1.7 4.34 3.51 6.37 5.97 2.34 2.73 4.43 5.04 7.5 6.94C887 450 887 450 888 453a100 100 0 0 0 4.33 3.33c2.51 2.51 4.02 5.56 5.67 8.67l1.02 1.91c4.13 7.83 7.85 15.44 9.98 24.09l1 3a54 54 0 0 1 2.56 15.12c.32 7.3.32 7.3 1.03 10.81L914 522l-1 1q-.45 2.63-.85 5.27c-1.53 10.08-4.47 19.25-8.15 28.73l-1.06 2.73c-3.88 9.36-13.84 23.86-23.08 28.3-2.4 1.25-2.69 2.57-3.86 4.97-4.56 3.78-9.84 6.54-15.16 9.06-1.84.94-1.84.94-4.9 3.06-3.3 2.11-6.15 2.92-9.94 3.88l-4.38 1.5a88 88 0 0 1-21.26 4.25c-2.36.25-2.36.25-4.57.76-3.31.58-6.45.62-9.81.62l-2.02.01-4.2-.01-6.37.01-4.1-.01h-3.73A52 52 0 0 1 769 613l-.79 1.82c-1.28 2.31-2.47 3.48-4.52 5.12a73 73 0 0 0-6.13 5.56c-3.27 3.19-6.86 5.83-10.56 8.5l2 1.56 3 2.44 2.01 1.58c4.68 3.83 7.04 6.69 8.99 12.42l1.19 2c1.52 3.75 1.41 7.27.09 11.09-2.05 4.46-4.04 7.24-8.28 9.91-3.24.9-6.49 1.33-9.81 1.75l-2.62.38c-13.79 1.89-26.81.57-39.57-5.13q-2.99-1.05-6-2l2.12 1.56c6.15 5.21 10.47 10.33 11.88 18.44.22 4.35.18 8.65 0 13l-4 1 .18-3.18c.37-9.58-.04-16.17-6.75-23.55-4.27-4.02-9.03-6.11-14.43-8.27v-9q3.59 1.79 7.14 3.62c13.2 6.75 23.77 9.59 38.69 9.68l4.08.06c8.06.17 14.3.27 21.09-4.36 3.13-4.7 2.55-9.5 2-15-1.73-6.23-5.66-10.5-11-14a93 93 0 0 0-9-4v-2q2.81-2.04 5.75-3.94c7.45-4.96 15.13-10.81 20.7-17.9 2.53-1.89 4.71-1.18 7.8-.85 19.67 1.71 40.44 2.23 59.75-2.31l3.47-.81c9.09-2.48 17.27-6.76 25.53-11.19l2.82-1.46C886.01 584.35 899.55 563.7 906 542l.97-3.22c3.78-14.72 3.62-31.3-.97-45.78l-1.03-3.59c-4.34-14.2-10.89-26.42-20.97-37.41l-2.34-2.55c-12.88-13.43-29.08-24.11-45.6-32.57-8.41-4.43-15.45-11.13-22.06-17.88l-1.77-1.78c-11.8-12.66-15.46-28.12-17.74-44.77-.72-3.59-1.73-5.78-4.49-8.2-5.09-2.12-10.02-2.21-15.29-.51-4.71 2.42-6.39 5.12-8.21 10.07q-.8 2.58-1.5 5.19h-1c-.5-4.03-.82-6.64 1.31-10.17 5.88-6.98 12.22-11.54 21.69-9.83m-97 325v3l5 2z" fill="#E4E5E5"/><path d="M738 470h2c-2.36 42.47-10.82 82.36-27.19 121.75-3.33 8.25-5.66 16.63-7.81 25.25l-.75 3a363 363 0 0 0-8.25 44c-6.57-1.21-6.57-1.21-9-4-.35-5.93.41-11.33 1.62-17.12l.55-2.65c5.11-23.92 13.31-46.82 21.46-69.84l.81-2.29 1.53-4.3A465 465 0 0 0 720 542l1-3.34c6.73-22.64 13.38-45.28 17-68.66" fill="#000100"/><path d="M512 470h2l.38 2.59c6.17 38.62 19.64 75.72 32.47 112.52l.88 2.54.87 2.47c5.38 15.47 10.13 30.8 13.4 46.88l.52 2.47c2.92 13.91 2.92 13.91 2.48 20.53-2.31 2.44-2.31 2.44-5 4h-3c-.94-3.15-1.25-6.27-1.54-9.53a232 232 0 0 0-3.77-24.72l-.57-2.9c-1.52-7.18-3.82-13.92-6.37-20.8q-2.11-5.84-4.13-11.71l-1.79-5.15-2.75-7.89-2.7-7.77-.89-2.53q-2.48-7.07-5.24-14.05a131 131 0 0 1-5.25-17.07l-.75-3.1A353 353 0 0 1 512 470" fill="#000101"/><path d="M633.56 202.38A19 19 0 0 1 638 206c-.09 4.44-.58 6.5-3.44 9.94C632 218 632 218 630 218l.25 2.75c-.25 3.25-.25 3.25-1.94 5.69-2.3 1.56-2.3 1.56-4.94 1.5C621 227 621 227 619 224l-.82-2.94c-1.4-3.62-3.07-4.82-6.18-7.06-1.44-2.87-1.38-4.81-1-8 6.11-6.12 14.7-6.66 22.56-3.62" fill="#636563"/><path d="M795 572h14v1h-5l-.77 2.02A172 172 0 0 1 788 604l-1.32 2.16c-2.21 3.17-3.55 4.64-7.43 5.34-2.85.06-5.45.02-8.25-.5l-2-2 2.2-1.59c3.09-2.66 5.32-5.58 7.61-8.91l1.3-1.86q1.96-2.81 3.89-5.64l1.19-1.71c3.87-5.57 7.48-10.89 9.81-17.29" fill="#000100"/><path d="M787 339c4.38 2.23 7.46 4.79 10 9a97 97 0 0 1 4 20c1.68 10.19 6.7 18.97 13 27l2.27 2.95c2.88 3.42 6.23 5.96 9.85 8.55l2 1.45c4.64 3.3 9.38 6.17 14.45 8.78 2.96 1.55 5.76 3.29 8.58 5.09q2.1 1.33 4.26 2.57c3.63 2.25 6.8 4.96 10.09 7.67 2.5 1.94 2.5 1.94 5.31 3.44L873 437v4l-1.45-1.11a311 311 0 0 0-15.05-10.7l-2.35-1.58a196 196 0 0 0-15.53-9.23c-9.44-5.12-17.09-11.71-24.62-19.38l-1.77-1.78c-11.8-12.66-15.46-28.12-17.74-44.77-.72-3.59-1.73-5.78-4.49-8.2-5.09-2.12-10.02-2.21-15.29-.51-4.71 2.42-6.39 5.12-8.21 10.07q-.8 2.58-1.5 5.19h-1c-.5-4.03-.82-6.64 1.31-10.17 5.88-6.98 12.22-11.54 21.69-9.83" fill="#DFDFE1"/><path d="M687 660q3.59 1.79 7.14 3.62c12.62 6.46 23.05 9.38 37.24 9.94l3.09.13 7.53.31 1 3c-13.8 1.57-26.23.8-39-5q-2.99-1.05-6-2l2.12 1.56c6.15 5.21 10.47 10.33 11.88 18.44.22 4.35.18 8.65 0 13l-4 1 .18-3.18c.37-9.58-.04-16.17-6.75-23.55-4.27-4.02-9.03-6.11-14.43-8.27zm3 4v3l5 2z" fill="#E4E5E9"/><path d="M616 660h20l-.07 5.84-.05 7.66-.06 3.84c-.05 9.63.3 16.69 6.18 24.66l1 2c-2.31-.19-2.31-.19-5-1-2.88-3.62-3.89-7.56-5-12l-.6-2.17c-1.39-5.39-1.37-9.35-.4-14.83l.5-3.69c.42-2.78.95-5.55 1.5-8.31h-16l2 5c.24 2.6.24 2.6.23 5.34l-.01 3.03-.03 3.13v3.13c-.05 7.11-.28 12.27-4.19 18.37q-1.02 2-2 4l-4-1 1.88-2.44c5.26-8.04 4.37-17.91 4.24-27.12l-.02-3.93z" fill="#E9E9ED"/><path d="m759 114 2 1c1.43 8.71 2.11 18.99.5 27.72a68 68 0 0 0-.6 10.54l.01 2.12.01 4.53.03 7.16.05 15.18.06 17.64q0 3.53.03 7.06l.01 4.31.01 3.81C761 218 761 218 760 220h-2l-.05-33.49q0-7.77-.03-15.55l-.01-15.06-.02-5.7c-.03-12.1.3-24.12 1.11-36.2" fill="#EAECEB"/><path d="m874 439 1.94 2.06c3.13 3.17 6.68 5.75 10.27 8.39L888 451v2q2.1 1.7 4.3 3.29c2.52 2.53 4.04 5.58 5.7 8.71l1.02 1.91c4.13 7.83 7.85 15.44 9.98 24.09l1 3a54 54 0 0 1 2.56 15.12c.19 4.37.43 8.61 1.44 12.88l-3 2-.33-3.48c-3.29-32.9-13.95-56.6-37.67-79.52z" fill="#E8E8EB"/><path d="m762 43 3 1c1.12 5.75 1.12 5.75 0 8-.07 2.44 0 4.86.06 7.3-.06 2.7-.06 2.7-.56 5.51-.61 3.87-.57 7.59-.5 11.5q.07 3.84 0 7.69l-1 1q-.23 3.21-.32 6.44l-.12 3.96-.12 4.16-.13 4.18L762 114l-2 1-1 17h-1c-.36-18.66.62-37.17 1.85-55.78l.73-11.29z" fill="#E0E2E0"/><path d="M440 498h1l.01 2.08c.25 24.15 3.36 45.79 13.16 67.95A87 87 0 0 1 457 576l-2 2-8-16-1.12-2.09c-1.31-2.85-1.45-5.81-1.88-8.91q-.96-3.01-2-6a86 86 0 0 1-2.79-14.91q-.27-2.56-.71-5.09c-1.98-11.89-1.98-11.89-.5-17h1z" fill="#D3D5D4"/><path d="m710.04 186.69 1.96 1.3v3l-1.87-.8-3.13-1.2q-.96-.38-1.96-.8c-15.54-5.6-33.38-2.3-47.91 4.47A31 31 0 0 1 649 195v-2c4.39-3 4.39-3 7-3v-2c16.87-7.24 37.35-10.78 54.04-1.31" fill="#030503"/><path d="m490 456-1 2-3.88-.5c-10.27-1.08-18.49-1.06-27.32 5.01-10.25 8.38-13.21 18.01-15.8 30.49l-.53 2.43c-.46 2.5-.67 4.89-.79 7.43l-.37 8.27L440 518h-1q-.55-4.59-1.06-9.19l-.32-2.62c-.48-4.31-.83-7.97.38-12.19l.8-3.42c3.81-15.07 8.69-25.23 22.2-33.58 8.36-4.89 20.22-4.39 29-1" fill="#E8EAEC"/><path d="M590.17 186.93c4.4 2.58 8.03 4.71 10.83 9.07-3.53-.68-6.24-2.15-9.38-3.87-13.26-6.66-30.95-9.04-45.43-4.75q-2.1.76-4.19 1.62l-3.63 1.19-2.37.81c1.44-3.66 3-5 6.5-6.75 12.95-5.5 35.35-3.67 47.67 2.68" fill="#030503"/><path d="M493 106h1c.97 10.84 1.13 21.56 1.1 32.43l-.01 5.19-.02 13.5-.02 13.84L495 198h-1a456 456 0 0 1-2.21-49.56q.03-5.69.02-11.38l.02-7.36.01-3.38c.04-6.82.42-13.54 1.16-20.32" fill="#EDF0EE"/><path d="M669 69v2l-87 1v-2c3.08-1.54 6.33-1.19 9.71-1.22l2.41-.04 7.91-.09 5.48-.07 11.51-.14 14.76-.18 11.33-.14 5.45-.07 7.6-.09 2.29-.03C663.58 67.9 666 68 669 69" fill="#F0F2F3"/><path d="M495 150h1l.03 2.27.31 21.36.16 10.98.15 10.62.08 5.96c.27 16.27 1.58 29.7 10.27 43.81-3 0-3 0-4.68-1.52-4.21-5.49-6.32-10.81-7.82-17.48l-.52-2.17c-1.2-6.1-.87-12.02-.45-18.18.44-6.64.65-13.26.79-19.91l.06-3.18.18-9.68.13-6.7z" fill="#D5D6D6"/><path d="M490 54h2l.17 3.6.63 13.37.27 5.76.39 8.32.12 2.57q.38 7.57 1.21 15.13c.32 3.47.3 6.89.27 10.37l-.02 3.95L495 120c-2.75-2.84-3.94-4.4-4.36-8.38l.17-3.74c.14-4.5.21-8.9-.25-13.38l-.27-2.66L490 89c-1.16-11.79-.78-23.2 0-35" fill="#D3D4D4"/><path d="M753.88 26.25c3.85 3.17 7.16 6.09 9.12 10.75l1.08 1.79c1.14 2.76.93 4.52.54 7.46q-.15 1.33-.34 2.7c-.03.34-.03.34-.28 2.05h-1l-.26-2.13c-1.08-7.22-2.5-13.61-8.52-18.25-4.92-2.8-9.7-3.95-15.23-2.62-5.51 2.26-10.76 5.13-16 8l-1-2 3.26-1.75a21 21 0 0 0 5.75-4.38c5.91-5.54 15.87-4.67 22.88-1.62" fill="#E5E4E6"/><path d="M787 339a23.8 23.8 0 0 1 11 11q-.14 3.07-.44 6.12l-.31 3.33L797 362h-1a302 302 0 0 0-.88-5.75l-.49-3.23c-.8-3.85-1.66-6.17-4.63-8.77-5.09-2.12-10.02-2.21-15.29-.51-4.71 2.42-6.39 5.12-8.21 10.07q-.8 2.58-1.5 5.19h-1c-.5-4.03-.82-6.64 1.31-10.17 5.88-6.98 12.22-11.54 21.69-9.83" fill="#CDCED1"/><path d="M488 408h1l.04 1.79a278 278 0 0 0 3.61 38.96c.58 3.74.96 7.49 1.35 11.25l-5-1 .55-1.73c.51-2.56.23-4.07-.43-6.58-.94-3.89-1.61-7.72-2.12-11.69l-.32-2.07c-.53-3.67-.62-6.39.32-9.93q.2-2.27.32-4.55l.12-2.56.25-5.33z" fill="#DCDEDF"/><path d="M514 26v1l-2.12.23c-6.7.92-12.45 2.36-16.88 7.77-3.11 6.55-3.7 12.82-4.19 20l-.25 3.21L490 66l-2-1a562 562 0 0 1-.31-10.88l-.13-3.07c-.12-7.43 1.22-12.86 5.44-19.05 5.86-5.79 13.14-9.37 21-6" fill="#E8E8EA"/><path d="M797 356h2l.38 3.06c.6 3.78 1.55 7.27 2.62 10.94l.36 2.77c.75 3.77 2.2 6.91 3.95 10.29l.9 1.82a40 40 0 0 0 5.08 7.87L814 395l-1 3c-10.02-10.51-16.1-23.67-16.19-38.31z" fill="#DBDEDE"/><path d="M489 384h2l-.18 2.52q-.96 13.42-1.88 26.86l-.28 4L488 427c-2.74-2.74-2.43-4.62-2.69-8.44l-.26-3.49C485 412 485 412 486 409q.06-2.81 0-5.62-.07-2.7 0-5.38l1-1q.31-3 .5-6c.39-5.89.39-5.89 1.5-7" fill="#F0F2F4"/><path d="m491 665 2.25 2.38c6.62 6.32 14.98 5.78 23.69 6.18l2.65.13 6.41.31c-2 3-2 3-3.81 3.39l-2.19.01-2.43.02-2.57-.04-2.6-.03c-12.38-.29-12.38-.29-17.4-3.35q-1.02-1.99-2-4l-3-1z" fill="#D9DBDD"/><path d="m506 245 2.62 2.31c3.72 3.19 7.54 6.23 11.38 9.25l1.76 1.39c2.99 2.34 5.99 4.55 9.15 6.65L534 267c.44 3.81.44 3.81 0 7l-4-1 1-5-3.19-2.31-1.79-1.3c-2.02-1.39-2.02-1.39-4.4-2.75a61 61 0 0 1-8.31-6.52l-2.88-2.55A17 17 0 0 1 506 245" fill="#DEDFE0"/><path d="m552 673 3 1-2.69 1.88c-4.25 3.63-6.72 7.76-8.31 13.12-.39 5.05-.3 9.94 0 15l-4-1c-1.5-7.61-.74-13.14 3-20 2.78-3.57 5.78-6.83 9-10" fill="#E5E4EB"/><path d="M531 274h2c-2.52 10.45-7.2 20.41-12 30h-3a75 75 0 0 1 5-12q1.33-2.77 2.62-5.56l1.29-2.76c1.09-2.68 1.09-2.68 1.61-5.39C529 276 529 276 531 274" fill="#E7E9E7"/><path d="m710 671 1.78.42c6.63 1.45 13.07 1.99 19.84 2.2l3.05.12q3.66.14 7.33.26l1 3c-10.31 1.18-23.65 2.51-33-3z" fill="#D0D1CF"/><path d="m758 187 2 1c1.89 28.22 1.89 28.22 0 32h-2z" fill="#F2F4F4"/><path d="m814 397 3.25 2.44 2.2 1.64 5.51 4.18c5.19 3.95 10.25 7.71 16.04 10.74l-1 3c-6.47-3.47-12.31-7.6-18.06-12.12l-2.02-1.56-1.89-1.52-1.7-1.34c-1.6-1.75-1.94-3.15-2.33-5.46" fill="#DADBDF"/><path d="m722.99 670.99 3.58.14 3.74.18 3.7.15c5.43.23 10.65.57 15.99 1.54v1q-6.24.04-12.5.06l-4.23.02-6.12.02-3.71.02c-3.24-.11-6.26-.5-9.44-1.12 3.54-2.36 4.82-2.2 8.99-2.01" fill="#212321"/><path d="M495 360h2a150 150 0 0 1-3.06 17.5l-.57 2.49L492 386c-2-2-2-2-2.12-4.91.52-7.73 1.67-14.12 5.12-21.09" fill="#DCDEDF"/><path d="M688 661c4.86 1.86 9.43 4.2 14.06 6.56A96 96 0 0 0 710 671v2c-4.66.42-7.82-1.03-12-3l-2.19-1c-1.81-1-1.81-1-3.93-2.62C690 665 690 665 688 665z" fill="#E9EAEA"/><path d="M634 676h1l.26 3.66c1.31 15.66 1.31 15.66 6.74 22.34l1 2c-2.31-.19-2.31-.19-5-1-4.7-5.92-5.27-12.64-4.62-19.94l.17-2.07q.21-2.5.45-4.99" fill="#DFE1E2"/><path d="m487 457-1 3-3.58-.29-4.67-.33-2.36-.2c-7.11-.49-7.11-.49-10.39 1.82l-1-3c7.45-3.14 15.2-2.36 23-1" fill="#292B2D"/><path d="M759 90h1l.18 3.44.26 4.56.12 2.25c.28 4.96.78 9.83 1.44 14.75h-2l-1 17h-1c-.12-14.04.01-27.99 1-42" fill="#A5A5A6"/><path d="M490 54h2v27l-2 1c-.99-6.29-.96-12.16-.56-18.5l.16-2.78q.18-3.36.4-6.72" fill="#DEDFDF"/><path d="M553 669v2l-7 3 2 3-2 2c-2.12-.38-2.12-.38-4-1 0-3.26.55-5.1 2-8 3.2-1.07 5.66-1.07 9-1" fill="#F1EFF3"/><path d="M759 672c-2.45 2.96-4.25 3.45-8 4q-3.09.12-6.18.1l-3.5-.01-3.63-.03-3.69-.01-9-.05v-1l2.25-.17 10.06-.77 3.54-.26 3.39-.26 3.12-.24c11.53-1.3 11.53-1.3 11.64-1.3" fill="#EEF1ED"/><path d="M909 498c1.46 1.01 1.46 1.01 3 3 .35 2.69.56 5.18.62 7.88.17 4.45.34 8.76 1.38 13.12l-3 2-1-8.5-.29-2.4c-.58-5.07-.8-9.99-.71-15.1" fill="#EEEFF1"/><path d="M723 35c-1.47 4.41-4.6 5.76-8.38 8.25l-2.07 1.43-2.01 1.34-1.84 1.22C707 48 707 48 704 47c3.55-4.01 7.17-6.4 11.91-8.89C721.75 35 721.75 35 723 35" fill="#DDDEE1"/><path d="M440 490h1l-1 28h-1q-.55-4.59-1.06-9.19l-.32-2.62c-.68-6.12-.68-10.68 2.38-16.19" fill="#F0F1F1"/><path d="M512 470h2l1.56 8.88.46 2.55.42 2.44.4 2.25C517 488 517 488 516 490q-.34 2.55-.56 5.12l-.26 2.76L515 500h-1z" fill="#070908"/><path d="M797 356h2l.38 3.06c.62 3.94.62 3.94 1.68 7.44.98 3.65 1.09 6.74.94 10.5-3.87-3.37-4.33-7.07-5-12-.14-3.02-.1-5.97 0-9" fill="#EDEEF2"/><path d="M787 342c2.19-.38 2.19-.38 5 0 2.42 2.53 4.43 4.86 6 8q-.14 3.07-.44 6.12l-.31 3.33L797 362h-1l-.37-2.48-.51-3.27-.49-3.23c-1.15-5.5-3.11-7.69-7.63-11.02" fill="#CBCBCF"/><path d="M490 391c1.48 1.12 1.48 1.12 3 3 .33 2.82.33 2.82.25 6.12l-.08 3.49c-.21 4.17-.61 8.25-1.17 12.39h-1l-1-10h-1a80 80 0 0 1 1-15" fill="#2F3234"/><path d="M634 666h1c.14 7.07-.25 13.97-1 21-2.97-2.63-2.97-2.63-3.25-5.94.21-2.54.58-4.62 1.25-7.06l.5-3.69c.5-3.31.5-3.31 1.5-4.31" fill="#F1F1F4"/><path d="M493 106h1a262 262 0 0 1 1 26l-2 1c-.74-9.13-1.26-17.88 0-27" fill="#EBEBEC"/><path d="M524 261c4 1.37 7.07 2.9 10 6 .31 3.75.31 3.75 0 7l-4-1 1-5-1.53-1.02-3.94-2.69L524 263z" fill="#DBDDDD"/><path d="M508 323h1c-.54 6.18-2.55 11.33-5 17l-3-1c2.12-5.46 4.27-10.82 7-16" fill="#E9ECED"/><path d="M498 231h2q1.51 2.9 3 5.81l1.69 3.27C506 243 506 243 506 246c-4-3.67-6.64-7.09-9-12z" fill="#DADCDA"/><path d="M616 688a47 47 0 0 1 3 7c-1.31 2.44-1.31 2.44-3 5q-1.02 2-2 4l-4-1 1.88-2.44c2.62-3.88 3.35-8 4.12-12.56" fill="#DFE1E1"/><path d="M854 475c2 1 2 1 2.94 3 1.06 2 1.06 2 4.06 3a53 53 0 0 1 2 7h-3c-1.86-2.08-1.86-2.08-3.75-4.81l-1.92-2.71L853 478z" fill="#090A0A"/><path d="m745.75 24.44 2.98.3L751 25l1 3h-17l1-3c3.26-1.36 6.3-.93 9.75-.56" fill="#F0EEF2"/><path d="m687 660 2 1 .12 2.25c1.39 4.34 5.01 5.68 8.88 7.75l-2 2-9-4z" fill="#D5D6D4"/><path d="M763 619c-1.06 3.19-1.86 4.08-4.31 6.25l-1.8 1.64c-1.89 1.11-1.89 1.11-4.12.78L751 627l4.31-4 2.43-2.25C760 619 760 619 763 619" fill="#F1F3F2"/><path d="m864 490 4 2v12c-2.14-2.14-2.45-3.02-3.12-5.88l-.51-2.05C864 494 864 494 864 490" fill="#08090B"/><path d="m781 456 2 2c-2.59 1.29-4.55 1.17-7.44 1.19l-2.93.04C770 459 770 459 767 457a39 39 0 0 1 14-1" fill="#2A2C2B"/><path d="m745 243 2 3-8 8-3-1v-2c3.46-3 3.46-3 6-3l.94-1.94C744 244 744 244 745 243" fill="#212322"/><path d="M496 212h1l.18 2.38c.77 9.61.77 9.61 1.51 13.74L499 231l-2 2c-2.82-6.96-1.75-13.67-1-21" fill="#C7C9CA"/><path d="M761 657c1.84 3.11 2.2 5.05 1.75 8.62l-.27 2.36C762 670 762 670 760 672c-2.62.12-2.62.12-5 0l2.44-2.44c3.25-3.83 3.44-7.68 3.56-12.56" fill="#DBDFDB"/><path d="m771.44 610.56 2.56.44-2 2h-3l-.75 1.81c-1.41 2.47-2.9 3.62-5.25 5.2l-2-2c5.92-6.87 5.92-6.87 10.44-7.45" fill="#DCDEDD"/><path d="m461 457 3 1-1.73 1.27a116 116 0 0 0-6.52 5.42l-2.14 1.88L452 468l-1-4q2.39-1.8 4.81-3.56l2.71-2.01z" fill="#D8DADB"/><path d="M497 191h1l.08 2.34.36 10.47.12 3.68.12 3.53.11 3.25C499 217 499 217 500 220h-3z" fill="#090B0D"/><path d="m549 46 4.44 2.81 2.49 1.58C558 52 558 52 559 55a17 17 0 0 1-7.75-3.56l-1.86-1.38L548 49z" fill="#E9E9E9"/><path d="m845 604-1 3c-2.07.73-2.07.73-4.56 1.19l-2.51.48-1.93.33-1-3c3.63-2.33 6.77-2.16 11-2" fill="#1C1E1F"/><path d="M440 521c1.78 3.06 2.23 5.22 2.12 8.75l-.05 2.42L442 534l-3-1-1-11z" fill="#E9EBE9"/><path d="M738 470h2l-1 20h-1l-.44-3.25c-.56-3.75-.56-3.75-1.15-5.69-.51-2.55-.1-4.3.53-6.81l.59-2.42z" fill="#060905"/><path d="M905 487h3c1.79 5.17 2.12 8.51 1 14h-1z" fill="#DBDEDF"/><path d="M772 612h12l1 3c-4.54 1.51-8.53.49-13-1z" fill="#E8EBE9"/><path d="M760 384a16.6 16.6 0 0 1 3 7l2-3c.12 3.38.12 3.38 0 7l-2 2-2-1c-.41-2.72-.41-2.72-.62-6.06l-.23-3.35z" fill="#C2C5C2"/><path d="M746 639c3.39.59 5.21 1.77 7.75 4.06l1.86 1.66L757 646l-3 3v-3l-1.75-.69c-2.82-1.64-4.33-3.71-6.25-6.31" fill="#1C1C1D"/><path d="m899 560 3 1c-.47 4.25-2.97 6.2-6 9-.37-4.27.59-6.49 3-10" fill="#E8E7EA"/><path d="M841 417c4.03 1.22 7.54 2.56 11 5v2c-4.51-.53-7.42-2.25-11-5z" fill="#E7E7EA"/><path d="M489 384h2l-1 14c-2-2-2-2-2.23-4.57l.04-2.99.02-3.01C488 385 488 385 489 384" fill="#E7E9EA"/><path d="M535 40c5.15.48 8.82 3.19 13 6l-1 3-6-3.94-1.73-1.13Q537.11 42.49 535 41z" fill="#DBDCDB"/><path d="M514 26v1l-14 2c3.75-5.62 8.13-5.52 14-3" fill="#F0F0F2"/><path d="M557 672v3l-2 1-1 3h-2l-1 2-2-1v2l-2-1a94 94 0 0 1 10-9" fill="#2A2937"/><path d="M895 567c.68 1.77.68 1.77 1 4-1.21 1.92-1.21 1.92-2.94 3.75l-1.71 1.86L890 578l-3-1 1.24-1.43 1.64-1.88 1.61-1.87C893 570 893 570 895 567" fill="#D3D4D6"/><path d="M830 412c4.39.51 7.34 1.52 11 4l-1 3-5-2.94-2.81-1.65L830 413z" fill="#CACBCE"/><path d="m761 653 3 1c1.12 6.62 1.12 6.62 0 10-2.57-3.85-2.55-6.43-3-11" fill="#F4F6F3"/><path d="M840 608c-.69 1.94-.69 1.94-2 4-3.13 1.18-4.62 1.13-7.81.06L828 611v-1l4.31-1 2.43-.56C837 608 837 608 840 608" fill="#DADCDC"/><path d="M759 428h1l1 17h-3z" fill="#222523"/><path d="M618 675c1.94 3.88 2.3 5.46 2.31 9.62l.05 2.92L620 690l-3 2z" fill="#F1F2F7"/><path d="M562 662h3v7h-4c-.62-1.81-.62-1.81-1-4zm0 3 1 2Z" fill="#EFEFF1"/><path d="m860 543 3 1c0 2 0 2-2.25 4.56C858 551 858 551 854 552z" fill="#171818"/><path d="M442 530h1q.33 2.68.62 5.38l.36 3.02.02 2.6-2 2c-2.21-5.04-1.85-7.86 0-13" fill="#D1D4D0"/><path d="M778 339q2.13-.12 4.25-.19l2.39-.1C787 339 787 339 791 342l-13-1z" fill="#EBEBF0"/><path d="m522 295 2 1c-1.88 5.75-1.88 5.75-3 8h-3c1.06-3.4 2.01-6.01 4-9" fill="#EDEDEF"/><path d="M709 691h1v7h2v5l-4 1z" fill="#C7C9C8"/><path d="m443 541 2 1c.41 2.07.41 2.07.62 4.56l.23 2.51.15 1.93-3-1c-.84-3.38-1.11-5.67 0-9" fill="#EBEBEC"/><path d="M462 460c-.69 2.38-.69 2.38-2 5-2.62 1.31-2.62 1.31-5 2 2.39-7 2.39-7 7-7" fill="#1D1F22"/><path d="M709 687h2c1.28 3.85 1.07 6.95 1 11h-2z" fill="#EEF0EF"/><path d="M492 652h1q.37 2.4.69 4.81l.38 2.71c-.07 2.48-.07 2.48-1.55 4.3L491 665q-.05-2.4-.06-4.81l-.04-2.71c.1-2.48.1-2.48 1.1-5.48" fill="#2C2C2D"/><path d="M507 633c2.44.38 2.44.38 5 1l1 2c-2.91 1.26-4.8 2-8 2 1-3 1-3 2-5" fill="#EDEDF1"/><path d="M809 531h3l-2 11h-2z" fill="#DDE1DF"/><path d="M559 667h2v2l2 1c-5.42 3.08-5.42 3.08-8.38 2.69L553 672l2.44-1.38C558 669 558 669 559 667" fill="#E7E6EB"/><path d="M492 451h1l1 9-5-1 .94-1.75c.99-2.09 1.58-4 2.06-6.25" fill="#C6C9C9"/><path d="M808 389c4.8 3.32 4.8 3.32 5.81 6.75L814 398c-4.8-3.32-4.8-3.32-5.81-6.75z" fill="#E5E5E9"/><path d="M748 342h2l2 9-3 1z" fill="#232623"/><path d="m506 245 3.38 2.81 1.89 1.58C513 251 513 251 515 254c-2.34-.17-3.69-.7-5.38-2.33-3.62-4.24-3.62-4.24-3.62-6.67" fill="#E8E9EB"/><path d="M761 37h2c2.03 3.31 2.13 5.43 1.62 9.25l-.33 2.7L764 51h-1z" fill="#F1F1F3"/><path d="m710 671 10 2c-3 2-3 2-6 3-2.19-.94-2.19-.94-4-2z" fill="#D7D8DA"/><path d="M616 660h7c-3 2-3 2-5 2l-1 8h-1z" fill="#DDDDE0"/><path d="m481 454 9 2-1 2-9-1z" fill="#DDDFE1"/><path d="M723 35c-1.46 4.39-3.98 4.88-8 7 .19-1.81.19-1.81 1-4 4.18-3 4.18-3 7-3" fill="#D6D7D8"/><path d="m907 538 2 2c-.24 2.16-.24 2.16-.88 4.62l-.61 2.48-.51 1.9-2-1z" fill="#E5E6E4"/><path d="M763 427h1q.37 2.66.69 5.31l.38 2.99C765 438 765 438 762 441z" fill="#F7F9F8"/><path d="M726 287c3.94 3.32 3.94 3.32 4.25 6.75L730 296h-2c-1.86-3.13-2.2-5.37-2-9" fill="#ECEFEC"/><path d="m547 682 2 1-3 6h-2c.75-4.75.75-4.75 3-7" fill="#1E1D27"/><path d="M899 473h3c2 3 2 3 1.62 5.69L903 481a37 37 0 0 1-4-8" fill="#E5E4E6"/><path d="M532 267h2v7l-4-1z" fill="#D5D8D7"/><path d="m755 623 2 1v3l-6 1z" fill="#EAEAEF"/><path d="M810 613h9l-3 3h-4v-2z" fill="#F3F5F1"/><path d="M807 392h2a37 37 0 0 1 3.12 4l1.64 2.25L815 400c-3.2-.6-3.92-.91-6.25-3.44C807 394 807 394 807 392" fill="#1E1F22"/><path d="M532 276c2 3 2 3 1.62 5.69L533 284h-3z" fill="#272A26"/><path d="M720 267h1l2 7-4 1q-.06-3.5 0-7z" fill="#DEE1DF"/><path d="M542 692h1l1 12-4-1 1-1q.34-2.52.56-5.06l.26-2.79z" fill="#B0B0B2"/><path d="m543 671-1 4h-3v-2l-4-1c2.76-.6 5.16-1 8-1" fill="#D6D8D8"/><path d="m840 563-1 3-9 1c3.14-2.09 6.15-4 10-4" fill="#1F2021"/><path d="M441 482c2.79 4.18 1.8 6.15 1 11-2.79-4.18-1.8-6.15-1-11" fill="#DFE1E0"/><path d="M874 439c3.01 2.85 5.28 5.24 7 9l-3.5-2.81-1.97-1.58C874 442 874 442 874 439" fill="#EEEEF1"/><path d="m772 345 3 2c-3.62 3-3.62 3-7 3 1-3 1-3 4-5" fill="#201F25"/><path d="m692 53 1 4-5 3c.56-3.27 1.5-4.83 4-7" fill="#DCDEDF"/><path d="m538 43 5 2v3l-5-2z" fill="#1E1F1E"/><path d="M489 41h2l-1 10h-1l-.56-4.44-.32-2.49L488 42z" fill="#F0F2F4"/><path d="m498 31 2 1c-.75 1.94-.75 1.94-2 4-2.12.75-2.12.75-4 1 1.15-2.47 2.05-4.05 4-6" fill="#202122"/></svg>