<svg style="background:transparent" version="1.1" xmlns="http://www.w3.org/2000/svg" viewBox="0 0 1248 704"><path d="M965 98q2.22.36 4.45.61l2.74.34 2.93.36c18.39 2.4 39.33 5.61 51.59 20.81 3.36 4.74 4.8 8.15 4.1 14-1.88 8.06-7.18 13.22-13.81 17.88-6.16 3.81-14.95 2.66-21.75 1.06l-2.13-.56a48 48 0 0 0-6.74-1c-3.97-.39-7.56-1.37-11.38-2.5-19.98-3.46-19.98-3.46-29-1l-3.81.44c-11.86 1.42-26 6.57-34.19 15.56l-2.12 2.75L904 169h-2l-.75 1.94a218 218 0 0 1-3.19 7.37c-4.33 9.74-6.86 18.77-7.78 29.41-.36 2.92-1.3 5.51-2.28 8.28l-.38 3.25c-.68 4.11-1.99 7.48-3.6 11.3a94 94 0 0 0-2.27 6.14c-3.36 9.01-8.33 18.15-14.43 25.6-1.32 1.71-1.32 1.71-2.68 4.14-1.86 2.91-3.91 4.82-6.52 7.07a122 122 0 0 0-7.48 6.93 89 89 0 0 1-9.95 8.13l-1.9 1.42c-5.83 4.28-12.05 7.32-18.67 10.21-2.06.9-4.1 1.8-6.12 2.81 1.95 5.01 4.33 9.62 6.94 14.31 2.28 4.17 4.3 8.28 6.06 12.69l.99 2.38c1.71 4.43 2.81 9.03 4.01 13.62l.82 3.14c2.27 8.81 3.33 17.28 3.9 26.36.28 3.5.28 3.5.79 6.63.57 4.48.61 8.82.59 13.33l-.01 2.8-.01 5.98-.03 9.49-.06 23.56-.05 19.92q0 4.65-.03 9.31l-.01 5.76-.01 2.59c0 4.8.28 9.47.89 14.23.27 2.31.22 4.58.22 6.9q.48 2.5 1 5l.5 4a56 56 0 0 0 2.44 11.75 73 73 0 0 1 2 7.36L846 529l.52 2.35c3.84 17.37 3.84 17.37 4.3 24.74.18 1.91.18 1.91.69 3.66.75 3.43.68 6.87.68 10.37v2.39c-.08 8.57-1.07 17-2.19 25.49q-.74 5.71-1.38 11.44a61 61 0 0 1-2.73 9.9c-1.46 4.36-2.62 8.8-3.83 13.23A91 91 0 0 1 838 643l3.71.48c56.55 7.55 56.55 7.55 66.67 19.27L910 665c-1.53 3.9-3.47 5.74-7 8-54.19 21.98-128.57 12-185.58 8.65-15.4-.9-30.82-1.65-46.23-2.34l-2.21-.1a1392 1392 0 0 0-82.22-1.25l-7.84.1c-77.22 1.02-154.69 9.93-231.2 20.05a912 912 0 0 1-32.16 3.7l-3.77.38c-7.81.72-15.48.89-23.31.75A39 39 0 0 0 280 704c-8.51.52-16.19.09-24.43-2.28-2.57-.72-2.57-.72-6.26-1.22-7.1-1.07-12.69-2.69-17.31-8.5v-2l-7-2c0-3.89.2-5.65 2-9 2.62-1.81 2.62-1.81 5-3l2 4 2-9-2.23 1.02-2.96 1.36-2.92 1.33L225 676l-2.33 1.14c-9.19 2.96-21.3 1.64-30.12-1.8-6-3.14-10.68-7.82-14.55-13.34-2.16-7.18-1.42-13.64 1.88-20.31 4.89-9.1 11.37-14.89 21.21-18.1 4.13-.84 8.08-.63 12.27-.5 3.93-.14 5.67-1.56 8.64-4.09l2.13-1.38c14.51-9.56 27.74-23.83 37.99-37.81 2.38-3.24 5-6 7.88-8.81q1.54-1.97 3-4a96 96 0 0 1 4-5h2l.72-1.66c1.59-2.91 3.58-5.24 5.72-7.78 2.2-2.61 4.28-5.09 6.03-8.03 2.24-3.7 5.1-6.84 7.95-10.07 2.58-3.01 4.35-5.68 5.58-9.46l-3 1c-2.34-.74-2.34-.74-4.94-1.88-4.74-2.04-4.74-2.04-7.14-2.64-2.83-.71-5.22-2.06-7.8-3.41a81 81 0 0 0-5.81-2.57c-12.04-6.03-24.07-19.48-28.51-31.99L247 481l-.87-2.61A77 77 0 0 1 243 464l-1-3a356 356 0 0 1-5.79-50.44c-.55-9.23-.55-9.23-2.21-12.56q-.31-3.16-.5-6.31c-.26-4-.68-7.77-1.5-11.69-2.05-16.28-4.4-39.27 5.06-53.44 3.54-3.08 5.67-3.61 10.27-3.79 4.69.4 8.48 2.17 12.67 4.23l2.91 1.36a135 135 0 0 1 17.52 10.12c2.78 1.65 5.5 2.55 8.57 3.52l2.56 1.56c3.88 2.29 6.22 2.75 10.63 1.63L306 344c3.32-.74 6.66-1.37 10-2l2.59-.54a143 143 0 0 1 19.25-2.24c3.16-.22 3.16-.22 7.04-.78 3.12-.44 3.12-.44 7-.13 6.28.06 10.8-4.14 15.19-8.24q2-2.01 3.94-4.05c2.62-2.66 5.45-5.02 8.33-7.38 1.66-1.64 1.66-1.64 2.64-3.72 1.3-2.44 2.53-2.8 5.02-3.92q1.8-1.46 3.5-3c3.47-3.15 5.96-5 10.75-5 5.87 1.57 10.22 4.6 13.5 9.75L416 316l.99 2.25a68 68 0 0 1 4.58 15.45c.43 2.3.43 2.3 1.43 5.8a146 146 0 0 1 3.5 16.55l.5 3.01.44 2.79.56 2.15 2 1c1.66-.63 1.66-.63 3.63-1.7l2.2-1.17 2.29-1.25 2.23-1.19c5.01-2.7 9.85-5.62 14.65-8.69 9.76-6.12 19.55-11.98 29.96-16.93a63 63 0 0 0 6.42-4.01A83 83 0 0 1 502 324a418 418 0 0 0 18.56-10.56c3.87-2.28 7.92-4.19 11.95-6.16l3.61-1.78 1.84-.89A53 53 0 0 0 547 299l2.69-.88c3.68-1.24 6.78-2.97 10.14-4.89 2.68-1.52 5.41-2.88 8.17-4.23l2.94-1.5c2.64-1.3 5.31-2.48 8.02-3.62q3.7-1.62 7.35-3.32 6.63-3.01 13.42-5.66 2.97-1.19 5.89-2.46c6.22-2.65 12.47-4.8 18.95-6.69a76 76 0 0 0 6.24-2.25c4.52-1.75 9.18-2.71 13.9-3.75 2.97-.68 5.87-1.46 8.79-2.31 5.02-1.4 10.04-2.24 15.2-2.97q3.21-.46 6.42-1c16.02-2.72 32.71-3.39 48.88-1.47l1 1c2.94.29 5.88.45 8.82.62 3.32.4 6.03 1.3 9.18 2.38 3.71.9 7.45 1.65 11.19 2.41 5.17 1.1 9.9 2.64 14.81 4.59 3.99 1.33 8.08 1.91 11.99.06L783 262l3.75-1.12c19.53-6.42 36.97-18.57 47.21-36.66 1.27-2.71 1.7-5.26 2.04-8.22l1.62-2.69L839 211l-1-3 2-3c.34-2.12.34-2.12.5-4.44.23-3.38.94-5.57 2.5-8.56l-.06-2.19c.07-3.36 1.02-5.86 2.13-9.01 1.56-4.71 2.73-9.54 3.97-14.35 4.05-14.5 13.46-28.44 25.15-37.9a40 40 0 0 0 5-5.3A23 23 0 0 1 887 117l4-2.56a50 50 0 0 1 9-4.44l3.44-2.06c3.18-1.87 5.89-2.41 9.56-2.94l5.03-2.24c3.85-1.48 7.92-2.03 11.97-2.76l5.06-1.06c22.83-4.5 22.83-4.5 29.94-.94" fill="#121412"/><path d="M965 98q2.22.36 4.45.61l2.74.34 2.93.36c18.39 2.4 39.33 5.61 51.59 20.81 3.36 4.74 4.8 8.15 4.1 14-1.88 8.06-7.18 13.22-13.81 17.88-6.16 3.81-14.95 2.66-21.75 1.06l-2.13-.56a48 48 0 0 0-6.74-1c-3.97-.39-7.56-1.37-11.38-2.5-19.98-3.46-19.98-3.46-29-1l-3.81.44c-11.86 1.42-26 6.57-34.19 15.56l-2.12 2.75L904 169h-2l-.75 1.94a218 218 0 0 1-3.19 7.37c-4.33 9.74-6.86 18.77-7.78 29.41-.36 2.92-1.3 5.51-2.28 8.28l-.38 3.25c-.68 4.11-1.99 7.48-3.6 11.3a94 94 0 0 0-2.27 6.14c-3.36 9.01-8.33 18.15-14.43 25.6-1.32 1.71-1.32 1.71-2.68 4.14-1.86 2.91-3.91 4.82-6.52 7.07a122 122 0 0 0-7.48 6.93 89 89 0 0 1-9.95 8.13l-1.9 1.42c-5.83 4.28-12.05 7.32-18.67 10.21-2.06.9-4.1 1.8-6.12 2.81 1.95 5.01 4.33 9.62 6.94 14.31 2.28 4.17 4.3 8.28 6.06 12.69l.99 2.38c1.71 4.43 2.81 9.03 4.01 13.62l.82 3.14c2.27 8.81 3.33 17.28 3.9 26.36.28 3.5.28 3.5.79 6.63.57 4.48.61 8.82.59 13.33l-.01 2.8-.01 5.98-.03 9.49-.06 23.56-.05 19.92q0 4.65-.03 9.31l-.01 5.76-.01 2.59c0 4.8.28 9.47.89 14.23.27 2.31.22 4.58.22 6.9q.48 2.5 1 5l.5 4a56 56 0 0 0 2.44 11.75 73 73 0 0 1 2 7.36L846 529l.52 2.35c3.84 17.37 3.84 17.37 4.3 24.74.18 1.91.18 1.91.69 3.66.75 3.43.68 6.87.68 10.37v2.39c-.08 8.57-1.07 17-2.19 25.49q-.74 5.71-1.38 11.44a61 61 0 0 1-2.73 9.9c-1.46 4.36-2.62 8.8-3.83 13.23A91 91 0 0 1 838 643l3.71.48c56.55 7.55 56.55 7.55 66.67 19.27L910 665c-1.53 3.9-3.47 5.74-7 8-54.19 21.98-128.57 12-185.58 8.65-15.4-.9-30.82-1.65-46.23-2.34l-2.21-.1a1392 1392 0 0 0-82.22-1.25l-7.84.1c-77.22 1.02-154.69 9.93-231.2 20.05a912 912 0 0 1-32.16 3.7l-3.77.38c-7.81.72-15.48.89-23.31.75A39 39 0 0 0 280 704c-8.51.52-16.19.09-24.43-2.28-2.57-.72-2.57-.72-6.26-1.22-7.1-1.07-12.69-2.69-17.31-8.5v-2l-7-2c0-3.89.2-5.65 2-9 2.62-1.81 2.62-1.81 5-3l2 4 2-9-2.23 1.02-2.96 1.36-2.92 1.33L225 676l-2.33 1.14c-9.19 2.96-21.3 1.64-30.12-1.8-6-3.14-10.68-7.82-14.55-13.34-2.16-7.18-1.42-13.64 1.88-20.31 4.89-9.1 11.37-14.89 21.21-18.1 4.13-.84 8.08-.63 12.27-.5 3.93-.14 5.67-1.56 8.64-4.09l2.13-1.38c14.51-9.56 27.74-23.83 37.99-37.81 2.38-3.24 5-6 7.88-8.81q1.54-1.97 3-4a96 96 0 0 1 4-5h2l.72-1.66c1.59-2.91 3.58-5.24 5.72-7.78 2.2-2.61 4.28-5.09 6.03-8.03 2.24-3.7 5.1-6.84 7.95-10.07 2.58-3.01 4.35-5.68 5.58-9.46l-3 1c-2.34-.74-2.34-.74-4.94-1.88-4.74-2.04-4.74-2.04-7.14-2.64-2.83-.71-5.22-2.06-7.8-3.41a81 81 0 0 0-5.81-2.57c-12.04-6.03-24.07-19.48-28.51-31.99L247 481l-.87-2.61A77 77 0 0 1 243 464l-1-3a356 356 0 0 1-5.79-50.44c-.55-9.23-.55-9.23-2.21-12.56q-.31-3.16-.5-6.31c-.26-4-.68-7.77-1.5-11.69-2.05-16.28-4.4-39.27 5.06-53.44 3.54-3.08 5.67-3.61 10.27-3.79 4.69.4 8.48 2.17 12.67 4.23l2.91 1.36a135 135 0 0 1 17.52 10.12c2.78 1.65 5.5 2.55 8.57 3.52l2.56 1.56c3.88 2.29 6.22 2.75 10.63 1.63L306 344c3.32-.74 6.66-1.37 10-2l2.59-.54a143 143 0 0 1 19.25-2.24c3.16-.22 3.16-.22 7.04-.78 3.12-.44 3.12-.44 7-.13 6.28.06 10.8-4.14 15.19-8.24q2-2.01 3.94-4.05c2.62-2.66 5.45-5.02 8.33-7.38 1.66-1.64 1.66-1.64 2.64-3.72 1.3-2.44 2.53-2.8 5.02-3.92q1.8-1.46 3.5-3c3.47-3.15 5.96-5 10.75-5 5.87 1.57 10.22 4.6 13.5 9.75L416 316l.99 2.25a68 68 0 0 1 4.58 15.45c.43 2.3.43 2.3 1.43 5.8a146 146 0 0 1 3.5 16.55l.5 3.01.44 2.79.56 2.15 2 1c1.66-.63 1.66-.63 3.63-1.7l2.2-1.17 2.29-1.25 2.23-1.19c5.01-2.7 9.85-5.62 14.65-8.69 9.76-6.12 19.55-11.98 29.96-16.93a63 63 0 0 0 6.42-4.01A83 83 0 0 1 502 324a418 418 0 0 0 18.56-10.56c3.87-2.28 7.92-4.19 11.95-6.16l3.61-1.78 1.84-.89A53 53 0 0 0 547 299l2.69-.88c3.68-1.24 6.78-2.97 10.14-4.89 2.68-1.52 5.41-2.88 8.17-4.23l2.94-1.5c2.64-1.3 5.31-2.48 8.02-3.62q3.7-1.62 7.35-3.32 6.63-3.01 13.42-5.66 2.97-1.19 5.89-2.46c6.22-2.65 12.47-4.8 18.95-6.69a76 76 0 0 0 6.24-2.25c4.52-1.75 9.18-2.71 13.9-3.75 2.97-.68 5.87-1.46 8.79-2.31 5.02-1.4 10.04-2.24 15.2-2.97q3.21-.46 6.42-1c16.02-2.72 32.71-3.39 48.88-1.47l1 1c2.94.29 5.88.45 8.82.62 3.32.4 6.03 1.3 9.18 2.38 3.71.9 7.45 1.65 11.19 2.41 5.17 1.1 9.9 2.64 14.81 4.59 3.99 1.33 8.08 1.91 11.99.06L783 262l3.75-1.12c19.53-6.42 36.97-18.57 47.21-36.66 1.27-2.71 1.7-5.26 2.04-8.22l1.62-2.69L839 211l-1-3 2-3c.34-2.12.34-2.12.5-4.44.23-3.38.94-5.57 2.5-8.56l-.06-2.19c.07-3.36 1.02-5.86 2.13-9.01 1.56-4.71 2.73-9.54 3.97-14.35 4.05-14.5 13.46-28.44 25.15-37.9a40 40 0 0 0 5-5.3A23 23 0 0 1 887 117l4-2.56a50 50 0 0 1 9-4.44l3.44-2.06c3.18-1.87 5.89-2.41 9.56-2.94l5.03-2.24c3.85-1.48 7.92-2.03 11.97-2.76l5.06-1.06c22.83-4.5 22.83-4.5 29.94-.94m-84 27-2.48 2.09c-17.87 15.41-27.16 35.24-31.71 58.1l-.75 3.61q-1.34 6.53-2.62 13.08c-3.81 19.56-13.48 36.8-30.16 48.31a147 147 0 0 1-26.22 13.56l-2.58 1.09c-6.46 2.46-10.92 2.11-17.48.16l-2.46-.69q-3.78-1.1-7.54-2.25a194 194 0 0 0-29-6.06l-3.74-.52c-4.13-.51-8.23-.64-12.39-.65l-2.28-.01-4.75-.01-7.12-.03a177 177 0 0 0-39.84 4.47l-2.96.66C629.2 265.75 604.83 274.74 581 286l-2.94 1.39Q567 292.64 556 298l-2.88 1.4a603 603 0 0 0-36.41 19.35 748 748 0 0 1-16.65 9.19 942 942 0 0 0-29.15 16.6 1063 1063 0 0 1-35.53 20.15l-1.85.99A48 48 0 0 1 426 369l-.36-3.81a153 153 0 0 0-2.89-16.19l-.67-3.04c-6.79-30.16-6.79-30.16-14.96-38.02-3.82-2.37-5.7-2.65-10.12-1.94-8.54 5.15-15.66 12.25-22.04 19.84a129 129 0 0 1-8.27 8.1l-1.6 1.47c-4.53 4.1-6.8 4.74-12.88 5.17l-4.26.32-2.26.17c-12.62.97-24.85 2.33-37.18 5.39-8.85 2.14-15.09 1.27-23.13-3.02l-2.09-1.08c-4.6-2.39-9.11-4.94-13.6-7.55-17.15-9.87-17.15-9.87-25.46-9.43-4.09 1.14-6.18 4.04-8.23 7.62-1.93 4.04-2.26 7.29-2.27 11.75v1.96q-.01 3.15.02 6.29l.01 2.17c.05 13.69.55 27.35 3.22 40.82 1.44 7.73 1.92 15.56 2.52 23.39 5.16 66.79 5.16 66.79 28.1 86.9A90.4 90.4 0 0 0 309 524c-4.68 7.46-10.07 14.29-15.55 21.17q-2.11 2.66-4.18 5.35a529 529 0 0 1-18.74 22.71q-2.34 2.7-4.64 5.45A239 239 0 0 1 250 596a87 87 0 0 0-5.25 5.81c-7.87 9.11-19.28 22.18-31.64 23.65q-3.13.15-6.26.21c-8.75.25-14.28 3.37-20.29 9.58-5.03 6.14-7.24 12.6-6.9 20.55.96 6.16 4.23 11.07 9.11 14.88 9.01 5.33 19.57 6.74 29.78 4.85 6-1.6 11.4-4.35 16.88-7.23C238 667 238 667 241 666l-1.5 2.19c-2.79 5.61-2.59 13.11-.84 19.03 3.25 6.39 9.08 9.49 15.46 12.09 12.67 3.91 27.9 3.31 39.88-2.31l3.36-1.48c11.72-5.39 22.55-12.46 33.46-19.29q9.38-5.83 18.8-11.61 11.15-6.83 22.23-13.78 5.82-3.65 11.7-7.2c26.31-15.91 53.45-32.57 76.98-52.43l2.3-1.93q2.15-1.83 4.25-3.7c4.73-4.07 8.94-5.95 14.92-7.58l6.32-1.94 3.36-1.03c30.71-9.51 59.57-22.78 88.32-37.03l2.37-1.17 18.25-9.08 2.51-1.25a1450 1450 0 0 0 31.62-16.26C652.4 500.9 652.4 500.9 657 500l1 3.5c11.12 33.05 35.92 60.58 64.17 79.99C747.34 600.8 747.34 600.8 751 616c.34 3.72.34 7.28 0 11l-2.56.23c-7.61.88-13.12 2.04-18.44 7.77-5.04 6.57-7 12.71-6 21 2.89 6.26 7.97 9.44 14.24 11.87 6.27 1.99 11.93 2.57 18.49 2.53l3.01.01 6.27-.02q4.72-.01 9.45.02c18.58.02 38.21-1.02 52.29-14.72 4.22-5.04 6.82-10.66 9.25-16.69l.8-1.92c5.81-14.42 7.92-29.78 10.2-45.08l.35-2.21c3.36-23.27-.72-45.75-6.84-68.1l-.89-3.28-.8-2.87c-7.19-30.97-4.98-63.84-4.7-95.39.38-44.41.38-44.41-3.12-63.15l-.44-2.4c-3.05-16.23-9.25-31.52-17.77-45.66-2.79-4.66-2.79-4.66-2.79-7.94l3.48-1.47c29.25-12.53 51.73-31.38 63.83-61.41 4.36-11.22 8.06-22.73 9.69-34.68 2.55-18.5 9.23-34.29 24.15-46.15a69.5 69.5 0 0 1 41.35-12.67l3.15.03c12.22.22 23.85 2.29 35.73 5.04 8.28 1.83 17.81 3.08 25.83-.43 4.25-3 7.48-7.64 9.79-12.26.81-6.21.23-10.77-3.22-16.02-13.22-14.75-34.88-18.52-53.78-19.98-31.6-1.61-65.27 2.11-90 24" fill="#BABDBB"/><path d="m657 500 1.55 3.67c14.53 33.8 35.6 59.62 65.83 80.33 23.99 16.5 23.99 16.5 27.62 32a46 46 0 0 1 0 11c-2.27 2.27-7.43 1.78-10.51 2.11-3.34.85-4.22 1.34-6.7 3.44-3.87 2.84-7.17 2.97-11.84 2.54l-2.36-.15q-3.74-.25-7.47-.56-4.8-.35-9.61-.67l-2.62-.18c-25.12-1.64-50.31-1.7-75.46-1.66h-12.31a1552 1552 0 0 0-86.83 2.19 622 622 0 0 0-32.87 2.5c-5.36.56-10.72.85-16.1 1.1-4.93.24-4.93.24-7.18.82-2.57.62-5.06.86-7.69 1.1l-3.44.32-3.76.35c-67.67 6.56-67.67 6.56-83.25 11.75 1.16-3.47 1.61-3.64 4.65-5.37l2.48-1.45 2.81-1.62c12.05-7.14 23.72-14.85 35.37-22.62l2.69-1.79c32.74-21.77 32.74-21.77 47.04-34.54 4.75-4.08 8.96-5.97 14.96-7.61l6.32-1.94 3.36-1.03c30.71-9.51 59.57-22.78 88.32-37.03l2.37-1.17 18.25-9.08 2.51-1.25a1536 1536 0 0 0 33.76-17.39C652.26 500 652.26 500 657 500" fill="#ECEEEC"/><path d="M683 413h1l.09 2.42c.59 14.7 1.53 29 4.79 43.39l.74 3.28c2.1 8.72 5.16 16.8 9.26 24.79q2.34 4.51 4.52 9.13c3.66 7.77 8.25 14.29 13.6 20.99l2.05 2.67c8.74 11.12 18.89 21.51 30.29 29.91L751 551v2l2.25.75c3 1.36 4.48 2.91 6.75 5.25q2.46 1.57 5 3a200 200 0 0 1 15.69 10.5l1.94 1.4A66 66 0 0 1 793 583v2l3 1c5.41 6.97 5.04 16.67 4 25-.9 4.62-1.93 8.36-5 12-3.05 1.18-5.67 1.49-8.92 1.73-5.88.52-10.61 2.61-14.52 7.02L770 634h-2l-2 6h-2l-.12 6.62-.08 3.73c.2 3.59.9 6.32 2.2 9.65h2l3 3 2.12 1.06C775 665 775 665 776 667l18 1-1 2q-9.71.15-19.42.22l-6.59.08c-28.7.45-28.7.45-38.99-8.3-3.61-4.08-4.66-7.26-4.38-12.57 1.21-7.83 4.2-13.21 10.45-18.09 5.3-3.67 10.64-3.88 16.93-4.34.89-9.84-.98-18.47-6.86-26.55-7.38-7.98-16.87-13.72-25.79-19.83-27.46-18.92-50.5-46.75-61.35-78.62v-3l-2-1 3.75-1.12c5.19-1.71 9.92-4.14 14.75-6.67C676 489 676 489 678 489l-.49-2.87c-.68-4.75-.66-9.46-.63-14.25l.01-2.92c.3-40.3.3-40.3 6.11-55.96" fill="#010101"/><path d="M965 98q2.22.36 4.45.61l2.74.34 2.93.36c18.39 2.4 39.33 5.61 51.59 20.81 3.36 4.74 4.8 8.15 4.1 14-1.88 8.06-7.18 13.22-13.81 17.88-6.16 3.81-14.95 2.66-21.75 1.06l-2.13-.56a48 48 0 0 0-6.74-1c-3.97-.39-7.56-1.37-11.38-2.5-19.98-3.46-19.98-3.46-29-1l-3.81.44c-11.86 1.42-26 6.57-34.19 15.56l-2.12 2.75L904 169h-2l-.75 1.94a218 218 0 0 1-3.19 7.37c-4.33 9.74-6.86 18.77-7.78 29.41-.36 2.92-1.3 5.51-2.28 8.28l-.38 3.25c-.68 4.11-1.99 7.48-3.6 11.3a94 94 0 0 0-2.27 6.14c-3.36 9.01-8.33 18.15-14.43 25.6-1.32 1.71-1.32 1.71-2.68 4.14-1.86 2.91-3.91 4.82-6.52 7.07a122 122 0 0 0-7.48 6.93 89 89 0 0 1-9.95 8.13l-1.9 1.42c-5.83 4.28-12.05 7.32-18.67 10.21-2.06.9-4.1 1.8-6.12 2.81 1.95 5.01 4.33 9.62 6.94 14.31 2.28 4.17 4.3 8.28 6.06 12.69l.99 2.38c1.71 4.43 2.81 9.03 4.01 13.62l.82 3.14c2.27 8.81 3.33 17.28 3.9 26.36.28 3.5.28 3.5.79 6.63.57 4.48.61 8.82.59 13.33l-.01 2.8-.01 5.98-.03 9.49-.06 23.56-.05 19.92q0 4.65-.03 9.31l-.01 5.76-.01 2.59c0 4.8.28 9.47.89 14.23.27 2.31.22 4.58.22 6.9q.48 2.5 1 5l.5 4a56 56 0 0 0 2.44 11.75 73 73 0 0 1 2 7.36L846 529l.52 2.35c3.84 17.37 3.84 17.37 4.3 24.74.18 1.91.18 1.91.69 3.66.75 3.43.68 6.87.68 10.37v2.39c-.08 8.57-1.07 17-2.19 25.49q-.74 5.71-1.38 11.44a61 61 0 0 1-2.73 9.9c-1.46 4.36-2.62 8.8-3.83 13.23A91 91 0 0 1 838 643l3.71.48c56.55 7.55 56.55 7.55 66.67 19.27L910 665c-1.53 3.9-3.47 5.74-7 8-54.19 21.98-128.57 12-185.58 8.65-15.4-.9-30.82-1.65-46.23-2.34l-2.21-.1a1392 1392 0 0 0-82.22-1.25l-7.84.1c-77.22 1.02-154.69 9.91-231.19 20.05a881 881 0 0 1-32.42 3.7l-3.87.38c-7.5.68-14.91.96-22.44.81l1-2c4.26-1.21 8.7-1.35 13.1-1.65l4.87-.36 7.56-.54a353 353 0 0 0 30.08-3.31 568 568 0 0 1 25.95-3.33l2.68-.3 18.94-2.09 10.24-1.13c71.92-7.96 71.92-7.96 105.23-9.94 3.27-.2 6.52-.45 9.78-.85 64.54-7.73 134.47-4.78 199.08 1.27 54.02 4.98 119.71 9.53 172.49-4.77l2-.54c9.86-2.7 9.86-2.7 14-5.46.56-2.38.56-2.38 0-5-4.77-3.87-9.75-5.41-15.62-7l-2.81-.78c-17.26-4.67-34.93-7.38-52.57-10.22a50 50 0 0 1 2.97-11.46c4.97-13.4 6.93-27.45 9.03-41.54l.35-2.21c3.36-23.27-.72-45.75-6.84-68.1l-.89-3.28-.8-2.87c-7.19-30.97-4.98-63.84-4.7-95.39.38-44.41.38-44.41-3.12-63.15l-.44-2.4a133 133 0 0 0-17.85-45.58c-2.75-4.52-2.75-4.52-2.53-7.1.82-1.92.82-1.92 2.38-2.98l2.02-.8 2.25-.93 2.42-.96c25.84-10.92 45.87-29.24 56.9-55.38 4.9-12.08 9.08-24.48 10.85-37.43 2.64-19.21 9.82-34.88 25.22-47.22 12.05-8.57 26.61-12.8 41.28-12.6l3.15.03c12.22.22 23.85 2.29 35.73 5.04 8.35 1.84 17.82 3.05 25.9-.5 3.95-2.74 6.6-6.94 8.72-11.19.82-6.29.19-10.82-3.32-16.11-12.56-14.11-34.81-17.51-52.68-18.89-31.63-1.61-65.24 2.13-90 24l-2.45 2.02c-21.36 18.16-28.13 42.15-33.1 68.58-4.21 22.34-12.99 41.21-32.22 54.63a145 145 0 0 1-26.17 13.52l-2.58 1.09c-6.46 2.46-10.92 2.11-17.48.16l-2.46-.69q-3.78-1.1-7.54-2.25a194 194 0 0 0-29-6.06l-3.74-.52c-4.13-.51-8.23-.64-12.39-.65l-2.28-.01-4.75-.01-7.12-.03a177 177 0 0 0-39.84 4.47l-2.96.66C629.2 266.75 604.83 275.74 581 287l-2.94 1.39Q567 293.64 556 299l-2.88 1.4a603 603 0 0 0-36.41 19.35 748 748 0 0 1-16.65 9.19 942 942 0 0 0-29.15 16.6 1220 1220 0 0 1-35.53 20.21l-1.85 1.02c-2.75 1.47-4.36 2.23-7.53 2.23l-.56-2.67c-10.35-48.76-10.35-48.76-18.82-57.89-3.52-1.93-5.65-2-9.62-1.44-8.38 4.28-15.34 12-21.36 19.09A121 121 0 0 1 367 335l-1.54 1.59c-5.94 5.37-12.57 5.48-20.23 5.86q-5.69.3-11.38.76l-2.29.17c-7.84.64-15.42 2.18-23.05 4.08-8.85 2.14-15.09 1.27-23.13-3.02l-2.09-1.08c-4.6-2.39-9.11-4.94-13.6-7.55-19.13-11-19.13-11-27.69-8.81-3.77 2.67-5.59 6.7-7 11-.26 3.17-.26 3.17-.27 6.75v1.96q-.01 3.15.02 6.29l.01 2.17c.05 13.69.55 27.35 3.22 40.82 1.44 7.73 1.92 15.56 2.52 23.39 5.15 66.72 5.15 66.72 27.03 85.83 10.66 8.18 22.58 13.29 35.47 16.79l4.31 1.25 2.69.75c-4.68 7.46-10.07 14.29-15.55 21.17q-2.11 2.66-4.18 5.35a529 529 0 0 1-18.74 22.71q-2.34 2.7-4.64 5.45a239 239 0 0 1-15.9 17.33 85 85 0 0 0-5.18 5.74c-20.05 23.21-20.05 23.21-32.7 24.71q-3.12.15-6.26.21c-8.35.23-14.04 3.11-19.79 9.08-4.71 5.92-6.71 12.49-6.41 20.05a21.5 21.5 0 0 0 8.34 14.1 43.2 43.2 0 0 0 32.01 3.98c5.95-2.02 11.46-4.96 17-7.88l4-2c-1.87 5.75-1.87 5.75-3 8-.65 7.65-.95 13.88 4 20a42 42 0 0 0 13.5 6.69l2.09.65c6.76 1.98 13.36 2.54 20.41 2.66-4.51 3.01-8.71 2.45-14 2-3.14-.64-6.2-1.42-9.29-2.28-2.71-.72-2.71-.72-6.4-1.22-7.1-1.07-12.69-2.69-17.31-8.5v-2l-7-2c0-3.89.2-5.65 2-9 2.62-1.81 2.62-1.81 5-3l2 4 2-9-2.23 1.02-2.96 1.36-2.92 1.33L225 676l-2.33 1.14c-9.19 2.96-21.3 1.64-30.12-1.8-6-3.14-10.68-7.82-14.55-13.34-2.16-7.18-1.42-13.64 1.88-20.31 4.89-9.1 11.37-14.89 21.21-18.1 4.13-.84 8.08-.63 12.27-.5 3.93-.14 5.67-1.56 8.64-4.09l2.13-1.38c14.51-9.56 27.74-23.83 37.99-37.81 2.38-3.24 5-6 7.88-8.81q1.54-1.97 3-4a96 96 0 0 1 4-5h2l.72-1.66c1.59-2.91 3.58-5.24 5.72-7.78 2.2-2.61 4.28-5.09 6.03-8.03 2.24-3.7 5.1-6.84 7.95-10.07 2.58-3.01 4.35-5.68 5.58-9.46l-3 1c-2.34-.74-2.34-.74-4.94-1.88-4.74-2.04-4.74-2.04-7.14-2.64-2.83-.71-5.22-2.06-7.8-3.41a81 81 0 0 0-5.81-2.57c-12.04-6.03-24.07-19.48-28.51-31.99L247 481l-.87-2.61A77 77 0 0 1 243 464l-1-3a356 356 0 0 1-5.79-50.44c-.55-9.23-.55-9.23-2.21-12.56q-.31-3.16-.5-6.31c-.26-4-.68-7.77-1.5-11.69-2.05-16.28-4.4-39.27 5.06-53.44 3.54-3.08 5.67-3.61 10.27-3.79 4.69.4 8.48 2.17 12.67 4.23l2.91 1.36a135 135 0 0 1 17.52 10.12c2.78 1.65 5.5 2.55 8.57 3.52l2.56 1.56c3.88 2.29 6.22 2.75 10.63 1.63L306 344c3.32-.74 6.66-1.37 10-2l2.59-.54a143 143 0 0 1 19.25-2.24c3.16-.22 3.16-.22 7.04-.78 3.12-.44 3.12-.44 7-.13 6.28.06 10.8-4.14 15.19-8.24q2-2.01 3.94-4.05c2.62-2.66 5.45-5.02 8.33-7.38 1.66-1.64 1.66-1.64 2.64-3.72 1.3-2.44 2.53-2.8 5.02-3.92q1.8-1.46 3.5-3c3.47-3.15 5.96-5 10.75-5 5.87 1.57 10.22 4.6 13.5 9.75L416 316l.99 2.25a68 68 0 0 1 4.58 15.45c.43 2.3.43 2.3 1.43 5.8a146 146 0 0 1 3.5 16.55l.5 3.01.44 2.79.56 2.15 2 1c1.66-.63 1.66-.63 3.63-1.7l2.2-1.17 2.29-1.25 2.23-1.19c5.01-2.7 9.85-5.62 14.65-8.69 9.76-6.12 19.55-11.98 29.96-16.93a63 63 0 0 0 6.42-4.01A83 83 0 0 1 502 324a418 418 0 0 0 18.56-10.56c3.87-2.28 7.92-4.19 11.95-6.16l3.61-1.78 1.84-.89A53 53 0 0 0 547 299l2.69-.88c3.68-1.24 6.78-2.97 10.14-4.89 2.68-1.52 5.41-2.88 8.17-4.23l2.94-1.5c2.64-1.3 5.31-2.48 8.02-3.62q3.7-1.62 7.35-3.32 6.63-3.01 13.42-5.66 2.97-1.19 5.89-2.46c6.22-2.65 12.47-4.8 18.95-6.69a76 76 0 0 0 6.24-2.25c4.52-1.75 9.18-2.71 13.9-3.75 2.97-.68 5.87-1.46 8.79-2.31 5.02-1.4 10.04-2.24 15.2-2.97q3.21-.46 6.42-1c16.02-2.72 32.71-3.39 48.88-1.47l1 1c2.94.29 5.88.45 8.82.62 3.32.4 6.03 1.3 9.18 2.38 3.71.9 7.45 1.65 11.19 2.41 5.17 1.1 9.9 2.64 14.81 4.59 3.99 1.33 8.08 1.91 11.99.06L783 262l3.75-1.12c19.53-6.42 36.97-18.57 47.21-36.66 1.27-2.71 1.7-5.26 2.04-8.22l1.62-2.69L839 211l-1-3 2-3c.34-2.12.34-2.12.5-4.44.23-3.38.94-5.57 2.5-8.56l-.06-2.19c.07-3.36 1.02-5.86 2.13-9.01 1.56-4.71 2.73-9.54 3.97-14.35 4.05-14.5 13.46-28.44 25.15-37.9a40 40 0 0 0 5-5.3A23 23 0 0 1 887 117l4-2.56a50 50 0 0 1 9-4.44l3.44-2.06c3.18-1.87 5.89-2.41 9.56-2.94l5.03-2.24c3.85-1.48 7.92-2.03 11.97-2.76l5.06-1.06c22.83-4.5 22.83-4.5 29.94-.94" fill="#E6E8E7"/><path d="M408 311a71 71 0 0 1 4 7h2a231 231 0 0 1 7.35 25.5q.71 3.04 1.44 6.07l.92 3.9.82 3.51c.44 2.82.43 4.38-.53 7.02v-2h-2l.5 2.25c.7 5.25.58 10.46.5 15.75h-2c-1.4-1.68-1.4-1.68-2.94-3.88-1.96-2.79-3.15-4.18-6.06-6.12v-2l-1.56-.75c-3.21-1.65-6.32-3.45-9.44-5.25v-2l-2.16-.36a42 42 0 0 1-8.28-2.95c-5.76-2.48-11.55-4.17-17.63-5.7-2.84-.96-4.09-1.68-5.93-3.99 21.7-33.57 21.7-33.57 34.62-37.88 2.97-.15 4.02.05 6.38 1.88" fill="#232521"/><path d="M244 330c8.17-.51 13.17 2.92 20 7l2.42 1.41c4.75 2.96 8.92 6.49 13.08 10.21l1.6 1.42c2.67 2.46 4.55 4.24 4.9 7.96l-2.52 1.86-3.29 2.45-1.66 1.23a52 52 0 0 0-6.29 5.25C271 370 271 370 269 370v2l-2.12 1.62c-3.18 2.63-5.22 5.41-7.55 8.77L258 384h-2l-.44 2.31C255 389 255 389 254 392h-2l-.38 2.19C251 397 251 397 250 399.44a36 36 0 0 0-2 8.56h-3c-2.07-4.49-2.83-8.98-3.62-13.81l-.41-2.39-.97-5.8-.88 1.94C238 390 238 390 236 391c-.12-7.62-.12-7.62 1-11l2-1-1-31h-2c.48-6.03 3.2-10.77 6-16h2z" fill="#272825"/><path d="M280.8 338.17c15.1 8.62 15.1 8.62 21.4 7.02q1.86-.6 3.8-1.19c3.32-.75 6.66-1.37 10-2a477 477 0 0 1 8.42-1.55q3.2-.57 6.4-1.2c6.05-.75 12.22.74 18.18 1.75v1l-1.82.1c-13 .8-25.49 2.23-38.16 5.31-9.08 2.12-15.39 1.43-23.65-2.97l-2.08-1.08a353 353 0 0 1-13.6-7.55c-19.13-11-19.13-11-27.69-8.8-3.77 2.66-5.59 6.7-7 11-.26 3.16-.26 3.16-.27 6.74v1.96a440 440 0 0 0 .03 8.45c.05 13.7.55 27.36 3.22 40.83 1.44 7.72 1.92 15.56 2.52 23.38 5.15 66.73 5.15 66.73 27.03 85.84 10.66 8.18 22.58 13.3 35.47 16.8q2.16.6 4.31 1.24l2.7.75c-4.69 7.46-10.08 14.3-15.56 21.17q-2.1 2.66-4.19 5.35a535 535 0 0 1-18.73 22.71q-2.34 2.7-4.64 5.44a239 239 0 0 1-15.9 17.34 85 85 0 0 0-5.18 5.74c-20.05 23.21-20.05 23.21-32.7 24.71q-3.13.14-6.26.2c-8.35.23-14.04 3.12-19.79 9.1-4.7 5.91-6.7 12.48-6.4 20.04a21.5 21.5 0 0 0 8.33 14.1 43.2 43.2 0 0 0 32.01 3.97c5.95-2 11.46-4.95 17-7.87l4-2c-1.88 5.75-1.88 5.75-3 8-.65 7.65-.95 13.88 4 20a42 42 0 0 0 13.5 6.7l2.1.63c6.75 2 13.35 2.55 20.4 2.67-4.5 3-8.7 2.45-14 2-3.14-.64-6.2-1.43-9.29-2.28-2.7-.72-2.7-.72-6.4-1.22-7.1-1.07-12.69-2.69-17.3-8.5v-2l-7-2c0-3.89.2-5.65 2-9 2.61-1.8 2.61-1.8 5-3l2 4 2-9-2.24 1.02-2.96 1.35-2.92 1.34-2.89 1.3q-1.15.54-2.33 1.13c-9.19 2.95-21.3 1.64-30.12-1.8-6-3.15-10.68-7.82-14.55-13.34-2.16-7.18-1.42-13.64 1.87-20.3 4.9-9.1 11.38-14.9 21.22-18.1 4.13-.85 8.08-.64 12.27-.5 3.93-.15 5.67-1.57 8.64-4.1l2.13-1.38c14.51-9.56 27.74-23.84 38-37.8 2.37-3.25 5-6.02 7.87-8.82q1.54-1.98 3-4a96 96 0 0 1 4-5h2l.72-1.66c1.6-2.9 3.58-5.25 5.72-7.78a60 60 0 0 0 6.03-8.03c2.24-3.7 5.1-6.84 7.95-10.07 2.57-3 4.35-5.69 5.58-9.46l-3 1c-2.34-.74-2.34-.74-4.94-1.88-4.74-2.04-4.74-2.04-7.14-2.64-2.83-.7-5.22-2.06-7.8-3.4a81 81 0 0 0-5.8-2.58c-12.05-6.03-24.08-19.48-28.52-31.99l-.8-2.5-.87-2.62A77 77 0 0 1 243 464l-1-3a356 356 0 0 1-5.79-50.44c-.55-9.23-.55-9.23-2.2-12.56q-.32-3.15-.5-6.3c-.27-4-.69-7.79-1.5-11.7-2-15.9-4.8-40.09 5.43-53.44 11.34-11.35 32.76 5.47 43.36 11.61" fill="#E4E6E5"/><path d="m374 553 5 2c-1.54 3.64-3.72 5.96-6.51 8.74l-2.74 2.73-1.43 1.42q-2.13 2.1-4.25 4.23a269 269 0 0 1-14.2 13.23c-3.28 2.89-6.31 6.03-9.37 9.15a210 210 0 0 1-13.81 13.03 90 90 0 0 0-5.19 4.97c-2.9 2.93-5.9 5.68-9.02 8.37q-2.94 2.52-5.83 5.08a469 469 0 0 1-19.21 16.11l-1.7 1.34q-2.35 1.82-4.74 3.6l-2.79 2.26c-4.38 2.37-8.17 2.41-13.09 2.49l-2.66.09q-3.23.1-6.46.16c7.59-7.77 16.15-14.4 24.79-20.97 6.92-5.28 13.59-10.88 20.29-16.44q3.82-3.16 7.67-6.28 6.76-5.54 13.41-11.22a517 517 0 0 1 10.53-8.71c4.4-3.58 8.61-7.33 12.8-11.15 3.38-3 6.9-5.83 10.42-8.68 6.15-5.03 12.1-10.32 18.09-15.55" fill="#E9E9EE"/><path d="M396 440h6c2.38 3.71 2.49 6.66 2 11-2.45 6.9-5.86 11.98-12 16l-1.82 1.25c-5.24 2.95-10.43 3.13-16.3 3.19l-2.32.03c-5.93-.09-10.43-1.38-15.44-4.72-1.97-3.07-2.24-5.1-2.12-8.75a35 35 0 0 1 5.34-5.42C361 451 361 451 362 448l3.06-.25c3.56-.49 6-1.88 9.06-3.76 5.97-3.15 13.26-3.59 19.88-2.99l2 1z" fill="#151714"/><path d="M286 452v2l2-1c12.18-.77 23.44-.25 33 8 2.43 3.64 2.16 5.71 2 10-10.83 5.71-21.22 9.43-33.62 6.35-6.06-2.45-12.19-6.71-15.59-12.37-1.08-2.7-.92-5.1-.79-7.98l3.81-1.94 2.15-1.09c2.37-1.13 4.39-1.97 7.04-1.97" fill="#161611"/><path d="m856 272 2 1c-4.46 5.46-8.77 9.88-14.78 13.6a73 73 0 0 0-6.28 4.52A60 60 0 0 1 825 298l-2.43 1.1-4.69 2.07q-1.96.87-3.88 1.83c1.95 5.01 4.33 9.62 6.94 14.31 2.28 4.17 4.3 8.28 6.06 12.69l.99 2.38c1.71 4.43 2.81 9.03 4.01 13.62l.82 3.14c2.27 8.81 3.33 17.28 3.9 26.36.28 3.5.28 3.5.79 6.77.49 3.7.61 7.22.6 10.95v2.07l-.01 6.71-.01 4.67-.02 12.26-.02 12.53L838 456h-1l-1 15h-1l-.02-3.26q-.09-15.35-.22-30.7l-.11-15.78c-.24-45.69-.24-45.69-3.65-64.26l-.44-2.39a133 133 0 0 0-17.85-45.59c-2.75-4.52-2.75-4.52-2.53-7.1.82-1.92.82-1.92 2.38-2.98l2.02-.8 2.25-.93 2.42-.96c13.84-5.85 26.08-13.58 36.75-24.25" fill="#E5E6E8"/><path d="M950 144v1h-7l-1 4-3.88.25c-10.61 1.21-22.9 6.85-30.12 14.75l-2.12 2.75L904 169h-2l-.75 1.94a218 218 0 0 1-3.19 7.37c-4.33 9.74-6.86 18.77-7.78 29.41-.36 2.92-1.3 5.51-2.28 8.28l-.38 3.25c-.68 4.11-1.99 7.48-3.6 11.3a94 94 0 0 0-2.27 6.14 94 94 0 0 1-14.51 25.74C866 264 866 264 864.38 266.81c-1.51 2.39-3.04 3.65-5.38 5.19l-2-1 1.47-1.73c15.41-18.64 25.25-41.82 28.53-65.83 2.64-19.21 9.82-34.88 25.22-47.22 10.65-7.58 24.62-12.96 37.78-12.22" fill="#DFE0E1"/><path d="M397 441c4.75.75 4.75.75 7 3 .96 6.59-1.42 11.52-5 17a31 31 0 0 1-7 6l-1.82 1.25c-5.24 2.95-10.43 3.13-16.3 3.19l-2.32.03c-5.93-.09-10.43-1.38-15.44-4.72-1.97-3.07-2.24-5.1-2.12-8.75a26 26 0 0 1 11-9l.73 2.01c4.26 11.2 4.26 11.2 9.13 14.09 4.32 1.82 8.93 1.62 13.36.18 4.33-2 7.16-4.2 9.78-8.28a23 23 0 0 0 1.19-8l.04-2.62C399 444 399 444 397 441" fill="#E4C97C"/><path d="M241 664c0 3 0 3-.98 5.29-2.07 5.5-2.04 12.35-.33 17.97 3.1 5.97 8.64 8.78 14.82 10.82l1.99.61 2.09.65c6.76 1.98 13.36 2.54 20.41 2.66-4.51 3.01-8.71 2.45-14 2-3.14-.64-6.2-1.42-9.29-2.28-2.71-.72-2.71-.72-6.4-1.22-7.1-1.07-12.69-2.69-17.31-8.5v-2l-7-2c0-3.89.2-5.65 2-9 2.62-1.81 2.62-1.81 5-3l2 4 2-9-2.75 1.62L230 674c-2.2-.91-2.2-.91-4-2l2.52-1.24 3.29-1.64 3.27-1.61C238 666 238 666 241 664" fill="#D3D2D4"/><path d="m285 453 .08 2.41c.43 8.01 1.46 12.38 7.48 17.97 5.89 2.78 11.77 2.54 17.88.43 5.35-3.78 7.11-7.64 8.56-13.81 2 1.56 2 1.56 4 4 .25 3.75.25 3.75 0 7-10.83 5.71-21.22 9.43-33.62 6.35-6.06-2.45-12.19-6.71-15.59-12.37-1.08-2.7-.92-5.1-.79-7.98q1.87-1.01 3.75-2l2.11-1.12C281 453 281 453 285 453" fill="#E2CC6E"/><path d="M1014 110c7.39 3.27 11.96 8.25 15.95 15.18 1.94 5.21 1.02 9.74-.95 14.82-3.78 5.89-9.47 11.34-16 14-6.77.62-13.32.22-19.88-1.5a48 48 0 0 0-6.74-1c-3.97-.39-7.56-1.37-11.38-2.5-20.24-3.5-20.24-3.5-29-1h-3v-3c16.82-2.67 32.96-.14 49.38 3.69 8.35 1.84 17.82 3.05 25.9-.5 3.95-2.74 6.6-6.94 8.72-11.19.81-6.24.29-10.93-3.36-16.11a59 59 0 0 0-8.07-7.44L1014 112z" fill="#EBECED"/><path d="M834 435h1l1 20 2 1-.02 2.24-.04 10.2-.03 3.53A142 142 0 0 0 839 491v5q.48 2.5 1 5l.5 4a56 56 0 0 0 2.44 11.75 89 89 0 0 1 2.48 9.63q.64 2.88 1.41 5.74c1.81 6.99 2.51 12.75 1.17 19.88h-1l-.45-2.91a264 264 0 0 0-6.39-28.72c-2.96-10.82-4.48-21.63-5.28-32.81l-.26-3.53c-1.06-16.32-.8-32.68-.62-49.03" fill="#E1E2E4"/><path d="M348.06 475.5 350 477c-.47 4.25-.97 6.09-4 9q-1.08 2.97-2 6c-1 1-1 1-3.56 1.06L338 493l-.63-2.25c-1.37-2.75-1.37-2.75-4.5-4.69-2.87-2.06-2.87-2.06-3.43-5.12.6-3.15.98-4.13 3.56-5.94 5.14-1.71 10.15-1.9 15.06.5" fill="#676866"/><path d="m877 126 2 1-1.43 1.33c-19.65 18.84-26.97 40.63-31.78 66.74l-.58 2.98-.49 2.68c-.79 2.5-1.72 3.6-3.72 5.27-.93-3.01-1.04-3.87 0-7q.52-3 1-6c.59-3.2 1.34-6.27 2.31-9.38a394 394 0 0 0 4.73-17.2c4.33-15.35 14.46-29.63 26.96-39.42z" fill="#EAEAEC"/><path d="m374 553 5 2c-1.56 3.77-3.91 6.14-6.79 8.98l-1.4 1.4-4.43 4.37-3.01 2.98L356 580c-2-3.75-2-3.75-2-6l2-1.94c2-2.06 2-2.06 2-5.06 1.98-2.09 1.98-2.09 4.62-4.38l2.76-2.39c5.72-4.87 5.72-4.87 8.62-7.23m-20 17 2 1h-3z" fill="#E5E7E8"/><path d="M962 98c43.36 3.44 43.36 3.44 53 14l-2 1q-2.5-1.06-4.95-2.2c-19.62-9.17-41.76-9.5-63.05-9.8v-1l17-1z" fill="#D7D8D7"/><path d="M240 428h1l.19 2.81c1.45 17.28 5.53 34.41 9.81 51.19-2.44-1.12-2.44-1.12-5-3-.69-2.75-.69-2.75-1-6l-.94-3.12c-1.24-4.18-1.88-8.42-2.55-12.71q-.5-3.07-1.12-6.12c-1.56-7.87-1.26-15.1-.39-23.05" fill="#D5D6D6"/><path d="M319 460c2 1.56 2 1.56 4 4 .25 3.75.25 3.75 0 7-11 5.8-21.93 9.68-34.43 5.98L286 476c3-2 3-2 4-2l1-2 1.81 1.5c5.69 2.68 11.75 2.34 17.63.31 5.35-3.78 7.11-7.64 8.56-13.81" fill="#CBBA8A"/><path d="M836 394h1c.92 7.47 1.13 14.83 1.1 22.35l-.01 3.46q0 5.4-.03 10.81l-.01 7.38-.05 18h-1l-1 15h-1c-.11-25.69-.11-51.33 1-77" fill="#F3F3F5"/><path d="M848 548h2l.18 2.05.26 2.7.24 2.67c.32 2.58.32 2.58.84 4.4.75 3.41.67 6.83.67 10.3v2.39c-.08 7.88-.88 15.64-1.93 23.44q-.27 2.13-.48 4.24c-.38 3.66-.7 5.7-2.78 8.81a1067 1067 0 0 1-.09-10.25l-.01-2.25-.01-2.03c.11-2.47.11-2.47.61-6.21.56-4.32.63-8.56.6-12.92l-.01-2.38q0-3.73-.03-7.46l-.01-5.09z" fill="#F1F3F4"/><path d="M397 441c4.75.75 4.75.75 7 3 .96 6.59-1.42 11.52-5 17a31 31 0 0 1-7 6l-1.82 1.25c-7.62 4.3-16.73 3.08-25.18 2.75v-1h17v-2l-2-1 1.76-.3c6.18-1.18 10.77-2.89 15.05-7.76 2.04-3.33 2.35-6.12 2.38-9.94l.04-2.62C399 444 399 444 397 441" fill="#B4A16B"/><path d="M254 328c4.74.44 8.47 2.63 12.56 4.88l2 1.06A60 60 0 0 1 278 340l-2 5a58 58 0 0 1-8.25-4.88c-4.11-2.77-8.27-5-12.75-7.12l1-2-3-2z" fill="#0C0D0D"/><path d="M846 599h1c1.65 14.01 1.65 14.01-1.04 20.59-1.24 3.12-2.08 6.3-2.96 9.53a85 85 0 0 1-5 13.88l6 2c-3.33 1.11-5.62.84-9 0a54 54 0 0 1 3.02-11.81c4.05-11.16 6.14-22.49 7.98-34.19" fill="#DDDFDF"/><path d="M834 435h1l1 20 2 1-.02 2.24-.04 10.2-.03 3.53c-.02 6.43.22 12.65 1.09 19.03l-3 1c-3.63-12.18-2.13-26.89-2.06-39.5l.01-5.13z" fill="#BFC0C2"/><path d="M1014 110c7.39 3.27 11.96 8.25 15.95 15.18 1.94 5.21 1.02 9.74-.95 14.82a39 39 0 0 1-7 8l-2.62 2.56c-2.38 1.44-2.38 1.44-5.19 1.19L1012 151l1.62-.75c6.29-3.31 10.67-6.56 13.38-13.25 1.02-5.2.63-9.56-2-14.19-2.62-3.72-5.87-6.54-9.43-9.36L1014 112z" fill="#E7EAE7"/><path d="M964 99v1l-3.38.08a183 183 0 0 0-30.32 3.55l-2.67.53-2.34.49c-2.46.38-4.8.41-7.29.35l1-3 3.12-.38C926 101 926 101 928.83 100c3.35-1.06 6.29-1.37 9.79-1.56 21.08-1.21 21.08-1.21 25.38.56" fill="#EAEBEA"/><path d="M236 391a20 20 0 0 1 2.63 8.28l.26 2.53.23 2.69.26 2.78c.82 9.58.81 19.12.62 28.72l-2-1c-.39-2.57-.39-2.57-.6-5.98l-.24-3.72-.22-3.92-.48-7.61-.19-3.42c-.74-9.29-.74-9.29-2.27-12.35q.91-3.53 2-7" fill="#E3E5E3"/><path d="M365 452c2 3 2.42 4.54 3 8l.56 2.81.44 2.19c-3-1-3-1-5-3v2l-6 1v-2l-2-1 1-5 3-1v-2h4z" fill="#F0CB74"/><path d="M699 251c5.88-.1 11.58.17 17.42.78 2.58.22 2.58.22 5.35.19C724 252 724 252 725 253q3.5.55 7 1v3l-2.09-.2c-8.38-.75-16.75-1.1-25.16-1.36l-4.03-.13L691 255v-1l3.44-.38L698 253z" fill="#CCCCCD"/><path d="M330 698c-2.59 2.59-4.07 2.45-7.68 2.85l-3.51.39-3.69.38-3.57.41A172 172 0 0 1 289 703l1-2c5.23-1.38 10.7-1.6 16.06-2.06l3.11-.27c6.97-.58 13.84-.94 20.83-.67" fill="#E2E4E3"/><path d="M248 598c-4.76 11.09-19.04 20.74-29 27l-3 1c.19-1.81.19-1.81 1-4q2.46-1.56 5-3c7.46-4.86 13.64-10.35 19.76-16.78 4.05-4.22 4.05-4.22 6.24-4.22" fill="#E0E1E0"/><path d="m242 692 2.24 1.21c11.62 6.07 21.68 8.24 34.76 8.79-5.19 3.46-11.25 2.55-17.21 1.36q-3.04-.76-6.06-1.61c-2.73-.75-2.73-.75-5.41-1.27A16 16 0 0 1 243 697c-.64-2.61-.64-2.61-1-5" fill="#E1E2E2"/><path d="M274 458c4.3-.2 6.01 0 10 2v9l-4 1v-2h-2v-2l-4-1z" fill="#F2D367"/><path d="M501 557c0 3 0 3-1.39 4.68l-1.86 1.76-1.93 1.84L494 567l-2.31 2.44C490 571 490 571 488 571v3h-2l-1 3-9 1a76 76 0 0 1 10.74-9.32c10.08-7.5 10.08-7.5 14.26-11.68" fill="#030503"/><path d="M415 327c2.72 2.33 3.57 4.17 4.39 7.64l.65 2.75.65 2.86.68 2.82c1.19 5.1 1.9 9.69 1.63 14.93-3-2-3-2-3.69-3.92l-.44-2.33-.51-2.53-.48-2.66-1.01-5.18-.44-2.33C416 337 416 337 415 334q-.06-3.5 0-7" fill="#181918"/><path d="m263.81 328.75 2.15 1.09c4.85 2.48 9.5 5.13 14.04 8.16l-1 2a62 62 0 0 1-9.26-4.31c-16.69-9.24-16.69-9.24-25.74-9.69v-1c8.1-1.43 12.72.12 19.81 3.75" fill="#D4D5D5"/><path d="M402 305v1l-3.75.81c-9.23 3.04-16.29 11.83-22.25 19.19l-1-3 2.31-2.19c2.69-2.81 2.69-2.81 4.25-5.5 1.66-2.66 2.69-2.96 5.44-4.31a76 76 0 0 0 3.62-3.06c4.18-3.73 5.78-4.04 11.38-2.94" fill="#DDDFE0"/><path d="m734 254 1.63.37q6.07 1.36 12.15 2.63l4.72 1 2.45.5q3.04.67 6.05 1.5l1 2c-3.69 1.31-6.32.69-10.08-.21l-3.51-.83-3.66-.9-3.7-.88q-4.53-1.08-9.05-2.18z" fill="#EBEBED"/><path d="M287 451c23.36-.57 23.36-.57 29.69 4.62L319 458l-3 1q-2.02-1.47-4-3c-8.35-2.69-17.34-2.21-26-2z" fill="#030302"/><path d="m395 439 1 3-2.02-.11c-9.02-.26-17.38.96-24.98 6.11h-2l-1 3v-3l-2-1 4-1v-2c9.2-3.25 17.23-5.17 27-5" fill="#030402"/><path d="m958.25 143.75 2.14-.06c5.15-.04 5.15-.04 7.59 1.83L969 147c-3.79.97-6.21.77-10 0-4.54-.22-8.6-.13-13 1h-3v-3a99 99 0 0 1 15.25-1.25" fill="#F2F3F3"/><path d="M837 491h1c1.78 4.56 2 8.14 2 13a83 83 0 0 0 1.06 4.12c.88 3.62 1.03 5.41-.06 8.88-2.69-2.69-2.94-5.52-3.62-9.12l-.4-2.05c-.88-4.72-1.36-9.05-.98-13.83z" fill="#E5E6E7"/><path d="M285 453v13h-1v-6h-4v-2h-6v5h-1v-6q1.87-1.01 3.75-2l2.11-1.12C281 453 281 453 285 453" fill="#D9C879"/><path d="M850 576c2.92 4.04 1.82 8.12 1.19 12.75l-.29 2.34-.61 4.64q-.29 2.26-.52 4.53c-.38 3.63-.7 5.64-2.77 8.74a1067 1067 0 0 1-.09-10.25c-.02-5.01.37-9.79 1.09-14.75h2z" fill="#EAEDEE"/><path d="M698 252q3.62.33 7.25.56l3.83.26 2.92.18v1c-11.34.6-22.64 1.19-34 1l1-2c2.5-.56 2.5-.56 6-1l2.26-.32c3.97-.51 6.85-.68 10.74.32" fill="#F1F1F4"/><path d="m215 623 1 3-2.96.08c-7.04.3-13.03.65-19.31 4.18C192 631 192 631 189 630c8.63-5.87 15.61-7.34 26-7" fill="#EBEDEE"/><path d="M557 296c-1 3-1 3-2.92 4.26l-2.48 1.22-2.7 1.34-5.66 2.77C536.29 309 536.29 309 534 309v-2c2.08-1.44 2.08-1.44 4.81-3 2.79-1.61 5.51-3.21 8.19-5q2.99-1.04 6-2c2-1 2-1 4-1" fill="#E8EAEA"/><path d="m883 222 2 2c-.47 6.44-3.14 13.27-6 19h-3z" fill="#DBDBDC"/><path d="M365 449v6l-5-1v2l-3 2c-.69 2.12-.69 2.12-1 4l3 1c.56 1.94.56 1.94 1 4l2 2c-2.22-.38-3.8-.87-5.69-2.12-2.16-3.09-2.44-5.12-2.31-8.88 2.11-2.94 7.11-9 11-9" fill="#E6CC86"/><path d="M279 339c4.48.52 7.21 1.62 11 4q3.48 1.57 7.01 3.04C299 347 299 347 301 349c-8.28-.17-14.87-4.17-22-8z" fill="#E1E2E5"/><path d="m237 384 2 2 2-1c1.61 10.98 1.61 10.98-.94 15.25L238 402c-1.07-6.03-1.1-11.89-1-18" fill="#0D0F0B"/><path d="M889 202c1.78 5.33.77 8.78-1 14a166 166 0 0 0-1 7l-3 1c-.51-7.48.81-15.71 5-22" fill="#E6E8E8"/><path d="M319 460c2 1.62 2 1.62 4 4 .25 3.25.25 3.25 0 6l-6 2c1-8.57 1-8.57 2-12" fill="#DFC87E"/><path d="M258 497c3.84 1.57 6.16 4.02 9 7l2.81 2.81L272 509l-3 1c-1.94-1.33-1.94-1.33-4-3.25l-2.06-1.89L261 503l-1.75-1.55C258 500 258 500 258 497" fill="#E3E2E4"/><path d="m364 462 3 1-1 5 3 1v1c-5.37.44-5.37.44-8 0-2-2.5-2-2.5-3-5l6-1z" fill="#E8C46C"/><path d="M369 447c1.42 4.26 1 8.52 1 13l2 1h-3l-.84-1.9-1.1-2.48-1.09-2.46q-.94-2.1-1.97-4.16l-2 1v-3z" fill="#281E0B"/><path d="M236 391c3.47 5.79 3.11 12.47 3 19h-2l-.4-2.12-.54-2.76-.52-2.74C235 400 235 400 234 398q.91-3.53 2-7" fill="#D7DAD7"/><path d="m994 150 20 1v3l-6.62.12-3.73.08A29 29 0 0 1 994 152z" fill="#EFF1F0"/><path d="m341.94 339.94 2.07.3 4.99.76v1l-25 1v-2c6.14-2.04 11.6-2.06 17.94-1.06" fill="#DBDEDC"/><path d="m358 337 2 1-1 3h-19c3-3 3-3 6.07-3.26l3.49.14c6.27.2 6.27.2 8.44-.88" fill="#E7E7E8"/><path d="m295 521 14 2c0 3 0 3-1.5 4.69L306 529l-1-4-3 1c-3.12-.75-3.12-.75-6-2z" fill="#E4E5E7"/><path d="M846 599h1q.33 3.32.62 6.62l.36 3.73c.02 3.7-.61 6.24-1.98 9.65h-3c.77-6.71 1.86-13.35 3-20" fill="#D6D7DA"/><path d="M425 358h2l2 7 6-2v3c-5.62 3-5.62 3-9 3z" fill="#EAEBEB"/><path d="M832 355h2c1.91 7.29 2.05 13.55 1 21h-1l-1-6.56-.56-3.69A76 76 0 0 1 832 355" fill="#EEEEF0"/><path d="M760 262a94 94 0 0 1 17 3v3a160 160 0 0 1-17-4z" fill="#DADBDD"/><path d="M964 99v1h-21c5.22-5.22 14.78-3.55 21-1" fill="#F1F4F2"/><path d="M397 441c4.75.75 4.75.75 7 3 .2 3.69.17 6.48-1 10h-2a235 235 0 0 0-.88-4.81l-.49-2.71C399 444 399 444 397 441" fill="#DAC77B"/><path d="m354 580 2 1a29.6 29.6 0 0 1-13 13c.47-4.32 3.03-6.34 6.06-9.25l2.79-2.7z" fill="#1A1C1D"/><path d="M323 465h1v9h-4l-1 3c-2.81.62-2.81.62-6 1l-3-2 2.59-.88 3.35-1.24 3.34-1.2c2.72-1.68 2.72-1.68 3.6-4.86z" fill="#2C2417"/><path d="M241 397c2.01 6.03 1.29 12.85 0 19h-2q-.08-3.9-.12-7.81l-.06-2.24c-.03-3.86-.01-5.66 2.18-8.95" fill="#1B1D1B"/><path d="M179 658h2l.77 1.61c1.81 3.72 3.56 7.19 6.23 10.39-3 0-3 0-4.86-1.61l-1.89-2.14-1.92-2.11C178 662 178 662 178.3 659.73z" fill="#D7D9D7"/><path d="M248 598c-1.54 3.68-3.78 5.99-6.62 8.75l-2.48 2.42L237 611l-2-2 5.38-5.5 1.53-1.59c3.86-3.91 3.86-3.91 6.09-3.91" fill="#D3D6D2"/><path d="m290 472 2.5 1.44c4.03 1.8 7.13 2.18 11.5 2.56v1c-12.67 1.52-12.67 1.52-18-1 3-2 3-2 4-2z" fill="#C7B773"/><path d="m363 470 17 1v1l-6 1v1c-3.66.75-6.42 1.24-10 0z" fill="#2E1C0C"/><path d="M380 467h8c-3.75 3.92-3.75 3.92-6.88 4.11l-2.25-.01-2.44-.01-2.55-.03-2.58-.01-6.3-.05v-1h17v-2z" fill="#C3AD7E"/><path d="m448 355 2 3-14 7v-3l2.37-1.28 3.07-1.66 3.06-1.65C447 356 447 356 448 355" fill="#DFDDE0"/><path d="m378 646 1 2 13-1c-3.84 1.92-6.38 2.5-10.56 3.06-3.31.46-6.27.88-9.44 1.94 1.25-3.74 2.63-4.19 6-6" fill="#DADDDC"/><path d="m720 252 2.06.44c3.3.63 6.61 1.1 9.94 1.56v3l-12-1z" fill="#D9DDDA"/><path d="M790 261v2l-4.81 2-2.71 1.12C780 267 780 267 777 267v-2c4.31-2.31 8.06-4 13-4" fill="#E7E7E9"/><path d="m239 371 1 11-1-2h-2l-1 3v-11c2-1 2-1 3-1" fill="#0D110D"/><path d="m1025 141 1 3c-6 6.62-6 6.62-9.81 8.06C1014 152 1014 152 1012 150l3.69-1.12c4.56-1.68 6.52-3.96 9.31-7.88" fill="#D9DCDA"/><path d="m372 466 10 2v2h-12v-2h2z" fill="#DEC36E"/><path d="M946 101h17v1l-5.69 1-3.2.56c-2.76.39-5.33.52-8.11.44z" fill="#020402"/><path d="m280 559 1 3c-1.43 2.04-1.43 2.04-3.44 4.19l-1.99 2.17L274 570l-2-1c1.95-3.7 3.26-5.25 7-7z" fill="#E8EAEC"/><path d="M286 467c3.25 2.83 4.52 4.69 5 9q-1.97-.42-3.94-.88l-2.21-.49C283 474 283 474 282 472l4-1z" fill="#E5D47B"/><path d="M371 462h5v2c3.3.89 6.62 1.46 10 2v1c-6.36.51-10.05.19-15-4z" fill="#322A0C"/><path d="m258.31 326.56 1.7 1.44c-3.77 1.25-4.42.43-8-1-2.68-.46-5.32-.73-8-1v-1c5.48-.97 9.54-1.66 14.3 1.56" fill="#CCCCCD"/><path d="M876 243h2c-1.41 4.83-3.43 8.72-6 13-1.02-2.65-1.13-3.69 0-6.36l1.44-2.39 1.43-2.42z" fill="#E6E5E6"/><path d="M261 700v2q-2.97-.17-5.94-.38l-3.34-.21L249 701l-1-2c3.9-1.95 8.92-.14 13 1" fill="#E0E0E0"/><path d="M843 602h2c.22 5.44.1 9.87-2 15h-1v-11h2z" fill="#0A0A0C"/><path d="M384 472c-2 2-2 2-5.75 2.19-3.49-.09-6.82-.5-10.25-1.19v-1q2.88-.3 5.75-.56l3.23-.32c2.66-.11 4.52.06 7.02.88" fill="#180A0A"/><path d="M240 428h1l1 15-3-1z" fill="#C9CCC9"/><path d="m290 344 4.38 1.38 2.46.77C299 347 299 347 301 349c-4.71-.48-8.67-.97-13-3z" fill="#D2D5D1"/><path d="M829 237c0 3 0 3-1.97 5.04l-2.53 2.15-2.53 2.17L820 248c0-3 0-3 1.97-5.04l2.53-2.15 2.53-2.17z" fill="#0B0B0E"/><path d="M842 196h2c.37 6.52.37 6.52-1.5 8.94L841 206c-1.47-3.81-.43-6.29 1-10" fill="#F4F3F5"/><path d="M950 144v1h-7l-1 4-7-2v-1c5.24-1.75 9.47-2.19 15-2" fill="#CCCDCF"/><path d="M228 673v2a39 39 0 0 1-8 3c-2.5-1.31-2.5-1.31-4-3l3.75-1 2.11-.56C224 673 224 673 228 673" fill="#DFE0E1"/><path d="M237 380h2c1.22 5.37 1.22 5.37.19 8.31C238 390 238 390 236 391c-.12-7.62-.12-7.62 1-11" fill="#1F221E"/><path d="M232 360h2v12l-2 1c-1.3-4.61-.71-8.34 0-13" fill="#EDF1ED"/><path d="m374 553 5 2-2 4-5-1c.88-3.88.88-3.88 2-5" fill="#DCDEDE"/><path d="M240 443h2c.96 2.88 1.11 4.7 1.06 7.69l-.02 2.45L243 455l-2-1c-.41-2.5-.41-2.5-.62-5.56l-.23-3.07z" fill="#E9EBE9"/><path d="m250 323 1 2-11 2v-3c3.38-1.04 6.48-1.08 10-1" fill="#EDEEEE"/><path d="M852 165c1.12 1.67 1.12 1.67 2 4-.68 2.58-.68 2.58-1.88 5.25l-1.17 2.7L850 179c-1.25-3.55-.72-5.72.44-9.25l.87-2.7z" fill="#323134"/><path d="M492 570v5l-7 2 1-3h2v-3c2-1 2-1 4-1" fill="#222224"/><path d="M247 470c2.06 4.12 2.96 7.55 4 12l-5-3z" fill="#CFCECF"/><path d="m883 222 2 2c-.12 2.94-.12 2.94-1 6l-4 3z" fill="#CCCFD0"/><path d="M846 189c2.34 3.51 2.41 4.87 2 9-1.5 2.88-1.5 2.88-3 5-1.14-3.4-.84-5.77-.06-9.25l.59-2.7z" fill="#1E1E1F"/><path d="m968 145 12 1c-4 2-4 2-7 3-2.69-1.38-2.69-1.38-5-3z" fill="#E1E4E1"/><path d="m274 465 9 9c-2.25.38-2.25.38-5 0-2.58-3.13-4-4.89-4-9" fill="#1E1408"/><path d="M315 342h9l1 2-11 1z" fill="#EBEDEC"/><path d="M870 253c1 4 1 4-.94 7.25L867 263l-3-1z" fill="#D9D7D8"/><path d="M910 160v3l-3 1c-1.69 2.56-1.69 2.56-3 5-.75-1.75-.75-1.75-1-4 2.22-2.77 3.61-3.87 7-5" fill="#EBEDEB"/><path d="m925 106-5.18 2.15C918 109 918 109 915 111v-2l-2-1q1.87-.8 3.75-1.56l2.11-.88c2.44-.64 3.78-.36 6.14.44" fill="#090909"/><path d="m369 447 1 3-4 3-2-3-2 1v-3z" fill="#2E2410"/><path d="m236 366 2 1v5h-2v9h-1l-.06-5.25-.04-2.95c.09-2.46.39-4.46 1.1-6.8" fill="#1D201D"/><path d="M420 349h2c1.48 2.96 1.06 5.74 1 9l-3-2c-.19-3.62-.19-3.62 0-7" fill="#101210"/><path d="m589 279 1 3c-4.43 3.08-4.43 3.08-7.31 2.69L581 284c2.41-2.41 4.94-3.54 8-5" fill="#EEECEF"/><path d="m856 272 2 1-8 9-2-1c1.1-3.3 1.95-4.05 4.56-6.19l1.94-1.6z" fill="#E9EAED"/><path d="m672 254 12 1v1l-13 1z" fill="#DADADC"/><path d="M902 166c1 3 1 3-.19 5.56-1.83 2.47-2.98 3.37-5.81 4.44 1.37-4 3.26-6.8 6-10" fill="#D4D4D4"/><path d="m894 112 2 1c-1 3-1 3-4.06 4.69L889 119v-3c2.5-2.19 2.5-2.19 5-4" fill="#EBEEEC"/><path d="m188 631 3 1q-1.42 1.76-2.88 3.5l-1.61 1.97L185 639h-2c1.19-3.38 2.28-5.65 5-8" fill="#D8DBD8"/><path d="M836 482h2l1 9-3 1z" fill="#F2F2F6"/><path d="m239 326 2 2a79 79 0 0 1-6 7l-1-3c1.4-2.26 3.2-4.02 5-6" fill="#D3D4D3"/><path d="m797 257 3 2-10 4c2-4 2-4 4.44-5.38z" fill="#DBDBDF"/><path d="M808 252c-1 3-1 3-3.88 4.75C801 258 801 258 798 257l3.88-2.5 2.17-1.41C806 252 806 252 808 252" fill="#E9EAED"/><path d="M878 231h1c-.71 8.57-.71 8.57-4 12-1-2-1-2-.22-4.38l1.16-2.74z" fill="#080809"/><path d="M360 694c-2.46 2.27-3.74 2.97-7.12 3.31C350 697 350 697 348 695c4.05-.98 7.84-1.08 12-1" fill="#E1E4E1"/><path d="M756 671h16l-3 3-1-1a155 155 0 0 0-6.06-.56l-3.35-.26L756 672z" fill="#C5C8C5"/><path d="m378 643 3 1c-2.05 2.25-3.01 3-6 4l-2-2c2.31-1.56 2.31-1.56 5-3" fill="#1D201D"/><path d="m182 638 2 2-3 9-2-2a22.5 22.5 0 0 1 3-9" fill="#E0E3E0"/><path d="M844 616h1l-1 11h-2c-.2-4.22.2-7.17 2-11" fill="#EEEEF2"/><path d="m415 619 2 1c-1 3-1 3-3.06 4.19L412 625l-2-2z" fill="#1A1E1B"/><path d="M300 616v3c-2.31 2.25-2.31 2.25-5 4l-3-1z" fill="#E0DFE3"/><path d="m604 520 4 2v2l-7 3v-2h2z" fill="#202022"/><path d="M258 497c3.16 1.37 3.99 1.99 6 5l-2 2c-2-1.81-2-1.81-4-4z" fill="#D9D8DB"/><path d="M245 465h2v11c-3-4-3-4-2.69-7.75z" fill="#E0E2E0"/><path d="M360 454h4l2 4-6 1z" fill="#F8D371"/><path d="m345.69 337.81 2.3.2q.5 1.46 1 3h-9c3-3 3-3 5.7-3.2" fill="#F2F3F2"/><path d="M916 103c2.69.88 2.69.88 5 2-3.19 2.13-5.27 2.5-9 3 1-3 1-3 4-5" fill="#D1D1D3"/><path d="M934 104c-2 2-2 2-5.5 2.25C925 106 925 106 923 104c3.82-1.37 7.07-.68 11 0" fill="#242523"/><path d="m371.75 647.75 2.25.25c-3.32 3.94-3.32 3.94-6.75 4.25L365 652c3.32-3.94 3.32-3.94 6.75-4.25" fill="#181A1B"/><path d="m316 616 2 1-6 7-1-3z" fill="#1D1D22"/><path d="M287 519c5.54-.37 5.54-.37 7.88 1.5L296 522c-2 1-2 1-5.06.19C288 521 288 521 287 519" fill="#E9EAEA"/><path d="m392 466 2 2h-2v2l-9 1c2.65-2.65 5.56-3.6 9-5" fill="#25170C"/><path d="m448 358 2 2-2 4v-2h-6a36 36 0 0 1 6-4" fill="#201D1F"/><path d="m454 351 1 4-6 2v-3c2.5-1.69 2.5-1.69 5-3" fill="#EAEAEC"/><path d="M306 344v4h-7v-2c4.75-2 4.75-2 7-2" fill="#E5E9E6"/><path d="m870 250 1 3c-1 1.82-1 1.82-2.44 3.69l-1.43 1.88L866 260l-1-2c1-1.95 1-1.95 2.44-4.12l1.43-2.2z" fill="#0C0C0C"/><path d="m901 109 1 2 2 1-8 3v-3c2.5-1.69 2.5-1.69 5-3" fill="#DFE1DF"/><path d="M264 646q1.53 1.47 3 3v1h-7l1-3z" fill="#F1F5F2"/><path d="m184 642 3 1-5 5-1-3z" fill="#090B09"/><path d="m841 514 3 6-3 4c-1.12-6.62-1.12-6.62 0-10" fill="#D6D8D9"/><path d="M278 466h6l-1 4h-3v-2h-2z" fill="#F1CF5B"/><path d="m830 349 3 1 1 3c-1.44 2.19-1.44 2.19-3 4z" fill="#D9DADC"/><path d="M495 331a40 40 0 0 1-8 5v-3c4.28-3.24 4.28-3.24 8-2" fill="#DFDEE3"/><path d="M378 319h2c-.4 2.89-.79 3.82-3.06 5.75L375 326c.75-4.75.75-4.75 3-7" fill="#D2D4D5"/><path d="m566 294-9 4v-3c3.81-1.8 4.71-2.07 9-1" fill="#D7D9D7"/><path d="m657 256 2 4-7 1v-3z" fill="#D7D8D7"/><path d="m855 153 3 1-3 6-2-1c.88-4.88.88-4.88 2-6" fill="#E2E2E3"/><path d="M916 154v3c-3 2.19-3 2.19-6 4l-2-1z" fill="#DFE1E1"/><path d="M198 675h6v2l3 1-9-1z" fill="#E5E7E8"/><path d="m305 523 5 1-3 5c-2-3.75-2-3.75-2-6" fill="#BEC1BF"/><path d="m423 352 3 1-1 7c-1.76-3.09-2-4.23-2-8" fill="#DEE1DF"/><path d="m420 339 3 1 1 3c-1.44 2.19-1.44 2.19-3 4z" fill="#D6D6D8"/><path d="M240 328c0 3.61-.96 6.56-2 10l-2-3c.9-3.07 1.73-4.73 4-7" fill="#0D0E0D"/><path d="m578 284 5 1c-3.62 3-3.62 3-7 3z" fill="#E0E1E1"/></svg>