<svg style="background:transparent" version="1.1" xmlns="http://www.w3.org/2000/svg" viewBox="0 0 1248 704"><path d="m925 142 3.5.38c4.36.77 8.33 2.13 12.5 3.62l3.48 1.2c5.7 1.99 11.16 4 16.52 6.8l2.27 1.18a92 92 0 0 1 12.83 8.35q2.69 2.05 5.46 3.97c9.98 7.11 9.98 7.11 11.44 11.5q1.99 1.04 4 2c5.03 4.68 8.67 10.39 12.23 16.2 1.73 2.74 3.6 5.32 5.52 7.92 3.15 4.45 4.82 8.66 6.25 13.88l1.12 3c2.06 7.04 2.77 14.09-.12 21-4.55 6.76-10.86 12.34-19 14-3.56-.75-3.56-.75-7-2l-2.44-.8c-7.72-3.62-12.57-12.32-16.27-19.66A117 117 0 0 0 973 227l-1.36-2.39c-8.7-15.13-21.02-24.99-37.64-30.61a87 87 0 0 0-11-2l-2.11-.33c-13.26-1.99-13.26-1.99-17.89.33l-1.88-.5c-2.49-.59-3.67-.17-6.12.5l-6.88 1.4c-2.12.6-2.12.6-5.12 2.6q-2.5 1.02-5 2c-3.5 1.52-6.38 3.69-9.41 5.98C867 205 867 205 865 205l-.69 1.69c-1.69 2.97-3.78 5.03-6.31 7.31h-2l-.48 1.62a93 93 0 0 1-6.33 15.04c-2.33 4.57-4.18 9.33-6.07 14.09-9.69 24.32-9.69 24.32-17.12 33.25q-2.28 3.15-4.54 6.33C820 286 820 286 817 287l-.88 2.27c-1.4 3.42-3.26 4.97-6.06 7.35-5.65 4.89-5.65 4.89-8.06 7.38a129 129 0 0 0 10.31 17.38A17 17 0 0 1 815 328l1.5 2.94A27 27 0 0 1 819 339l.94 3.19c1.02 3.67 1.82 7.3 2.53 11.04q.48 2.55 1.04 5.07c1.85 8.75 1.94 17.48 2.11 26.39l.12 4.7c.48 19.41.48 19.41-.74 27.61v3.12c0 2.82-.45 5.13-1 7.88-.59 4.96-1 9.88-1 14.88 0 2.92-.39 5.27-1 8.12a87 87 0 0 0-1 13.5v3.5l-1 1a182 182 0 0 0 0 7q.07 3.5 0 7l-1 1q-.14 2.82-.13 5.64l-.01 3.49.02 3.68-.02 3.65.01 3.5v3.22c.11 2.46.49 4.45 1.13 6.82q.06 3.35 0 6.69-.07 3.16 0 6.31l1 1q.14 3.16.13 6.34l.01 3.91-.01 2.05.01 6.18-.01 3.92v3.61C821 557 821 557 820 560v2.5c0 2.5 0 2.5-1 5.5q-.3 2.37-.5 4.75c-1.03 10.85-1.03 10.85-2.56 15.37-.94 2.88-.94 2.88-.94 5.32 0 3.42-1.03 6.29-2 9.56l-.5 3c-.5 3-.5 3-1.44 6.19a112 112 0 0 0-2.5 12.16A43 43 0 0 1 806 632q-.57 2.99-1 6l2.13.13c19.78 1.38 51.24 4.37 65.82 19.58 1.05 1.29 1.05 1.29.93 3.48-1.21 3.87-3.56 5.71-6.88 7.81-11.04 4.77-23.12 6.64-35 8l-2.74.32c-32.88 3.54-66.31 2.24-99.27.78l-2.98-.13-15.41-.69c-69.38-3.09-139.31-5.13-208.6.72l-4 .33c-53.31 4.42-106.43 10.54-159.54 16.94-37.55 4.52-37.55 4.52-52.1 4.7q-3.84.06-7.68.18c-9.42.21-17.62-.32-26.68-3.15l-2.63-.48c-3.35-.74-5.59-2.55-8.37-4.52l-2.44-1.31c-3.67-2.42-6.54-5.52-9.56-8.69 1.39-3.17 2.21-4.17 5.06-6.44 2.94-2.56 2.94-2.56 3.82-5.37L239 668l-3 1.81c-11.07 6.28-22.06 7.3-34.49 4.66-7.66-2.23-13.54-6.14-17.51-13.16-3.27-7.39-2.86-14.28-.62-21.93 3.46-8.5 10.36-13.63 18.5-17.44 4.3-1.65 7.6-2.08 12.18-1.82 7.2.31 11.52-2.63 16.94-7.12q4.13-3.9 8-8.06c2-1.94 2-1.94 4-1.94l.82-1.81a19 19 0 0 1 4.08-5.21l1.7-1.66 3.52-3.37c2.7-2.62 5.12-5.13 7.17-8.3C262 580 262 580 264 579l1.27-2.14c2.14-3.53 4.7-6.46 7.42-9.55a314 314 0 0 0 12.79-15.61L287 550h2l.35-1.8a14 14 0 0 1 3.01-5.44l1.44-1.8 1.51-1.84c3.46-4.25 6.71-8.5 9.69-13.12 2.25-3.41 4.51-6.76 7-10l-2.12.12c-3.31-.14-5.76-1.02-8.88-2.12q-1.96-.52-3.94-1c-15.36-3.77-29.92-10.55-41.06-22l-2.4-1.41c-9.84-6.02-15.54-17.6-18.7-28.32A68 68 0 0 1 233 443l-1-3a69 69 0 0 1-.13-4.3l-.01-2.62.01-2.82-.01-2.91.01-6.1-.01-9.32.01-5.92-.01-2.81c.02-4.21.13-8.09 1.14-12.2.24-4.85.2-9.63-.5-14.44-.59-4.23-.53-8.32-.44-12.6-.06-2.96-.06-2.96-.57-5.65a62 62 0 0 1-.44-11.17l.37-14.02c.61-23.28.61-23.28 6.02-28.74l1.81-1.92c2.83-2.36 5.93-2.94 9.57-2.86 10.64 1.94 20.87 10.66 29.62 16.65a1273 1273 0 0 0 9.73 6.63A46 46 0 0 0 298 328l2.35 1.65c3.49 1.78 6.3 1.42 10.06 1.01 6.87-.59 13.6-.66 20.49-.44l5.7.13q4.35.1 8.71.27c18.31.75 18.31.75 25.2-4.82q2.31-2.33 4.49-4.8 1.56-1.47 3.16-2.93l2.34-2.38 2.41-2.43C385 311 385 311 386.64 308.8c1.79-2.36 3.78-3.36 6.36-4.8l2.94-2.12c3.31-2.04 5.18-2.88 9.06-2.88 7.52 3.37 11 8.18 14.19 15.66 1.19 3.45 1.45 6.71 1.81 10.34l1 2.81c1.2 3.84 1.42 7.46 1.71 11.45a42 42 0 0 0 1.35 6.99c.94 3.75.94 6.91.94 10.75 1 2.2 1 2.2 2 4a58 58 0 0 0 20.98-10.56c2.25-1.6 4.46-2.43 7.02-3.44q2.47-1.51 4.88-3.12c4.47-2.91 9.02-5.48 13.74-7.94 5.05-2.63 9.82-5.39 14.45-8.71 2.22-1.41 4.49-2.26 6.93-3.23q2.51-1.47 5-3a545 545 0 0 1 8.71-4.66l4.14-2.2 6.56-3.49A789 789 0 0 1 543 299q4.49-2.24 8.96-4.5A231 231 0 0 1 568 287l3.5-1.5 3.5-1.5 3.31-1.44a311 311 0 0 1 8.44-3.44c4.54-1.79 8.93-3.82 13.32-5.97a58 58 0 0 1 9.5-2.6c4.16-.94 8.19-2.29 12.24-3.61l4.96-1.6 2.17-.71A99 99 0 0 1 635 263l3.62-.9a218 218 0 0 1 24.43-4.71c2.95-.39 2.95-.39 5.31-.91 3.68-.67 7.36-.85 11.08-1.04l2.38-.13c7.04-.35 14.14-.68 21.18-.31l1 1c2.23.07 4.44 0 6.68-.06 2.3.06 4.11.46 6.32 1.06q2.93.49 5.88.94c4.22.69 8.1 1.55 12.12 3.06 2.85.78 5.71 1.3 8.62 1.81 4.63.9 8.75 2.4 13.06 4.29 2.45.95 4.7 1.57 7.32 1.9 2.06-1.31 2.06-1.31 4-3l1.91-.87c2.43-1.31 3.75-2.77 5.53-4.88l1.82-2.14 3.23-3.97q1.72-2.1 3.51-4.14h2l.62-2c1.59-3.45 3.66-6.09 6.04-9.04 1.4-2.05 1.79-3.56 2.34-5.96a79 79 0 0 1 2.25-4c2.64-4.61 4.66-9.37 6.64-14.3A87 87 0 0 1 810 203l2.44-4.38 1.32-2.37q1.54-2.81 2.99-5.69c4.3-7.47 10.95-13.5 17.5-18.98C836 170 836 170 838.31 167c3.57-4.52 8.83-7.08 13.69-10l4.06-2.69c4.41-2.74 9.08-4.55 13.94-6.31l2.25-.84a85 85 0 0 1 15.46-3.73C890 143 890 143 892 142q4.09-.36 8.19-.56l2.25-.13c7.63-.42 14.98-.27 22.56.69" fill="#121412"/><path d="m925 142 3.5.38c4.36.77 8.33 2.13 12.5 3.62l3.48 1.2c5.7 1.99 11.16 4 16.52 6.8l2.27 1.18a92 92 0 0 1 12.83 8.35q2.69 2.05 5.46 3.97c9.98 7.11 9.98 7.11 11.44 11.5q1.99 1.04 4 2c5.03 4.68 8.67 10.39 12.23 16.2 1.73 2.74 3.6 5.32 5.52 7.92 3.15 4.45 4.82 8.66 6.25 13.88l1.12 3c2.06 7.04 2.77 14.09-.12 21-4.55 6.76-10.86 12.34-19 14-3.56-.75-3.56-.75-7-2l-2.44-.8c-7.72-3.62-12.57-12.32-16.27-19.66A117 117 0 0 0 973 227l-1.36-2.39c-8.7-15.13-21.02-24.99-37.64-30.61a87 87 0 0 0-11-2l-2.11-.33c-13.26-1.99-13.26-1.99-17.89.33l-1.88-.5c-2.49-.59-3.67-.17-6.12.5l-6.88 1.4c-2.12.6-2.12.6-5.12 2.6q-2.5 1.02-5 2c-3.5 1.52-6.38 3.69-9.41 5.98C867 205 867 205 865 205l-.69 1.69c-1.69 2.97-3.78 5.03-6.31 7.31h-2l-.48 1.62a93 93 0 0 1-6.33 15.04c-2.33 4.57-4.18 9.33-6.07 14.09-9.69 24.32-9.69 24.32-17.12 33.25q-2.28 3.15-4.54 6.33C820 286 820 286 817 287l-.88 2.27c-1.4 3.42-3.26 4.97-6.06 7.35-5.65 4.89-5.65 4.89-8.06 7.38a129 129 0 0 0 10.31 17.38A17 17 0 0 1 815 328l1.5 2.94A27 27 0 0 1 819 339l.94 3.19c1.02 3.67 1.82 7.3 2.53 11.04q.48 2.55 1.04 5.07c1.85 8.75 1.94 17.48 2.11 26.39l.12 4.7c.48 19.41.48 19.41-.74 27.61v3.12c0 2.82-.45 5.13-1 7.88-.59 4.96-1 9.88-1 14.88 0 2.92-.39 5.27-1 8.12a87 87 0 0 0-1 13.5v3.5l-1 1a182 182 0 0 0 0 7q.07 3.5 0 7l-1 1q-.14 2.82-.13 5.64l-.01 3.49.02 3.68-.02 3.65.01 3.5v3.22c.11 2.46.49 4.45 1.13 6.82q.06 3.35 0 6.69-.07 3.16 0 6.31l1 1q.14 3.16.13 6.34l.01 3.91-.01 2.05.01 6.18-.01 3.92v3.61C821 557 821 557 820 560v2.5c0 2.5 0 2.5-1 5.5q-.3 2.37-.5 4.75c-1.03 10.85-1.03 10.85-2.56 15.37-.94 2.88-.94 2.88-.94 5.32 0 3.42-1.03 6.29-2 9.56l-.5 3c-.5 3-.5 3-1.44 6.19a112 112 0 0 0-2.5 12.16A43 43 0 0 1 806 632q-.57 2.99-1 6l2.13.13c19.78 1.38 51.24 4.37 65.82 19.58 1.05 1.29 1.05 1.29.93 3.48-1.21 3.87-3.56 5.71-6.88 7.81-11.04 4.77-23.12 6.64-35 8l-2.74.32c-32.88 3.54-66.31 2.24-99.27.78l-2.98-.13-15.41-.69c-69.38-3.09-139.31-5.13-208.6.72l-4 .33c-53.31 4.42-106.43 10.54-159.54 16.94-37.55 4.52-37.55 4.52-52.1 4.7q-3.84.06-7.68.18c-9.42.21-17.62-.32-26.68-3.15l-2.63-.48c-3.35-.74-5.59-2.55-8.37-4.52l-2.44-1.31c-3.67-2.42-6.54-5.52-9.56-8.69 1.39-3.17 2.21-4.17 5.06-6.44 2.94-2.56 2.94-2.56 3.82-5.37L239 668l-3 1.81c-11.07 6.28-22.06 7.3-34.49 4.66-7.66-2.23-13.54-6.14-17.51-13.16-3.27-7.39-2.86-14.28-.62-21.93 3.46-8.5 10.36-13.63 18.5-17.44 4.3-1.65 7.6-2.08 12.18-1.82 7.2.31 11.52-2.63 16.94-7.12q4.13-3.9 8-8.06c2-1.94 2-1.94 4-1.94l.82-1.81a19 19 0 0 1 4.08-5.21l1.7-1.66 3.52-3.37c2.7-2.62 5.12-5.13 7.17-8.3C262 580 262 580 264 579l1.27-2.14c2.14-3.53 4.7-6.46 7.42-9.55a314 314 0 0 0 12.79-15.61L287 550h2l.35-1.8a14 14 0 0 1 3.01-5.44l1.44-1.8 1.51-1.84c3.46-4.25 6.71-8.5 9.69-13.12 2.25-3.41 4.51-6.76 7-10l-2.12.12c-3.31-.14-5.76-1.02-8.88-2.12q-1.96-.52-3.94-1c-15.36-3.77-29.92-10.55-41.06-22l-2.4-1.41c-9.84-6.02-15.54-17.6-18.7-28.32A68 68 0 0 1 233 443l-1-3a69 69 0 0 1-.13-4.3l-.01-2.62.01-2.82-.01-2.91.01-6.1-.01-9.32.01-5.92-.01-2.81c.02-4.21.13-8.09 1.14-12.2.24-4.85.2-9.63-.5-14.44-.59-4.23-.53-8.32-.44-12.6-.06-2.96-.06-2.96-.57-5.65a62 62 0 0 1-.44-11.17l.37-14.02c.61-23.28.61-23.28 6.02-28.74l1.81-1.92c2.83-2.36 5.93-2.94 9.57-2.86 10.64 1.94 20.87 10.66 29.62 16.65a1273 1273 0 0 0 9.73 6.63A46 46 0 0 0 298 328l2.35 1.65c3.49 1.78 6.3 1.42 10.06 1.01 6.87-.59 13.6-.66 20.49-.44l5.7.13q4.35.1 8.71.27c18.31.75 18.31.75 25.2-4.82q2.31-2.33 4.49-4.8 1.56-1.47 3.16-2.93l2.34-2.38 2.41-2.43C385 311 385 311 386.64 308.8c1.79-2.36 3.78-3.36 6.36-4.8l2.94-2.12c3.31-2.04 5.18-2.88 9.06-2.88 7.52 3.37 11 8.18 14.19 15.66 1.19 3.45 1.45 6.71 1.81 10.34l1 2.81c1.2 3.84 1.42 7.46 1.71 11.45a42 42 0 0 0 1.35 6.99c.94 3.75.94 6.91.94 10.75 1 2.2 1 2.2 2 4a58 58 0 0 0 20.98-10.56c2.25-1.6 4.46-2.43 7.02-3.44q2.47-1.51 4.88-3.12c4.47-2.91 9.02-5.48 13.74-7.94 5.05-2.63 9.82-5.39 14.45-8.71 2.22-1.41 4.49-2.26 6.93-3.23q2.51-1.47 5-3a545 545 0 0 1 8.71-4.66l4.14-2.2 6.56-3.49A789 789 0 0 1 543 299q4.49-2.24 8.96-4.5A231 231 0 0 1 568 287l3.5-1.5 3.5-1.5 3.31-1.44a311 311 0 0 1 8.44-3.44c4.54-1.79 8.93-3.82 13.32-5.97a58 58 0 0 1 9.5-2.6c4.16-.94 8.19-2.29 12.24-3.61l4.96-1.6 2.17-.71A99 99 0 0 1 635 263l3.62-.9a218 218 0 0 1 24.43-4.71c2.95-.39 2.95-.39 5.31-.91 3.68-.67 7.36-.85 11.08-1.04l2.38-.13c7.04-.35 14.14-.68 21.18-.31l1 1c2.23.07 4.44 0 6.68-.06 2.3.06 4.11.46 6.32 1.06q2.93.49 5.88.94c4.22.69 8.1 1.55 12.12 3.06 2.85.78 5.71 1.3 8.62 1.81 4.63.9 8.75 2.4 13.06 4.29 2.45.95 4.7 1.57 7.32 1.9 2.06-1.31 2.06-1.31 4-3l1.91-.87c2.43-1.31 3.75-2.77 5.53-4.88l1.82-2.14 3.23-3.97q1.72-2.1 3.51-4.14h2l.62-2c1.59-3.45 3.66-6.09 6.04-9.04 1.4-2.05 1.79-3.56 2.34-5.96a79 79 0 0 1 2.25-4c2.64-4.61 4.66-9.37 6.64-14.3A87 87 0 0 1 810 203l2.44-4.38 1.32-2.37q1.54-2.81 2.99-5.69c4.3-7.47 10.95-13.5 17.5-18.98C836 170 836 170 838.31 167c3.57-4.52 8.83-7.08 13.69-10l4.06-2.69c4.41-2.74 9.08-4.55 13.94-6.31l2.25-.84a85 85 0 0 1 15.46-3.73C890 143 890 143 892 142q4.09-.36 8.19-.56l2.25-.13c7.63-.42 14.98-.27 22.56.69m-53 8-3.35 1.16c-32.53 12.36-50.15 39.31-64.22 69.32-8.49 18.07-17.3 34.14-33.43 46.52l-3 2.44c-3.79 1.97-6.06 1.73-10 .56l-5.06-1.75c-21.2-7.32-43.55-10.25-65.88-10.44l-2.63-.04c-13.8-.01-27.27 2.8-40.68 5.79l-2.37.53c-33.99 7.64-65.24 21.55-96.38 36.91l-3.45 1.7a974 974 0 0 0-44.09 22.93q-3.51 1.95-7.05 3.88c-13.82 7.58-27.4 15.6-40.87 23.81-8.34 5.08-16.47 9.99-25.54 13.68l.08-1.67c.2-7.84-.99-15.31-2.33-23.02l-.34-2.01c-5.34-31.16-5.34-31.16-12.79-37.24A14.3 14.3 0 0 0 400 302c-7.85 4.1-14.3 11.22-20.44 17.5L375 324l-2.35 2.37c-7.44 6.86-13.07 7.96-23.01 7.79l-4.09.02q-4.27 0-8.53-.06-5.4-.07-10.8 0c-27.84.27-27.84.27-39.22-9.12l-5.94-4.04q-2.82-2-5.62-4.02C253.38 301.38 253.38 301.38 244 302c-4.44 1.65-6.14 4.33-8.16 8.54-1.64 4.8-1.38 9.7-1.33 14.72l-.01 3.67.03 9.9q.02 5.22.01 10.44 0 8.78.05 17.55.04 10.08.04 20.15l.03 21.6.01 6.15c.06 51.91.06 51.91 15.33 68.28l1.77 2.04c12.31 13.44 29.96 21.28 47.23 25.96l2.5.69a43 43 0 0 0 11.27 1.36l2.41-.02L317 513a511 511 0 0 1-25.37 34.94 496 496 0 0 0-4.5 5.77c-9.63 12.46-20.02 24.24-30.73 35.78q-2.23 2.4-4.44 4.83-4.44 4.86-8.96 9.68l-2.37 2.54c-7.35 7.62-16.16 16.53-27.21 16.74l-2.11.03c-8.69.37-14.55 2.49-20.62 8.94-4.8 6.19-7.44 12.42-7.07 20.33.87 5.5 3.2 9.19 7 13.17 9.49 6.89 20.03 7.43 31.38 6.25 5.24-1.16 9.72-3.17 14.44-5.62l1.93-.99L243 663l-.98 2.62a32.5 32.5 0 0 0-.02 18.76c5.51 7.23 14.02 11.76 22.99 13.05 3.22.21 6.4.28 9.63.26l3.48-.02c10.09-.29 17.28-2.66 25.9-7.67l3.86-2.05c8.98-4.81 17.56-10.29 26.15-15.78a1178 1178 0 0 1 15.49-9.67q11.38-7.03 22.69-14.19 6.43-4.08 12.91-8.09c62.35-38.67 62.35-38.67 84.63-60.96 5.4-5.19 10.63-7.14 17.77-9.14l6.76-2.05 3.44-1.04c47.32-14.73 91.97-39.76 136.09-61.92l2.11-1.05 4.35-2.22c5.54-2.84 5.54-2.84 7.75-2.84l.91 2.03c8.55 18.82 17.86 34.91 32.09 49.97l3.44 4.06c10.4 11.86 23.39 20.51 36.81 28.56 22.35 13.48 22.35 13.48 26.13 26.32.93 4.64.79 9.34.62 14.06l-2.53.19c-8.26.9-13.77 2.61-19.47 8.81-4.05 5.12-4.82 10.67-4.57 17.1 1.19 6.07 5.17 9.15 9.98 12.65 12.4 7.97 28.21 8.1 42.44 5.56A49 49 0 0 0 782 665l2.5-1.29c13.29-7.84 16.67-23.8 20.3-37.81l1.09-4.36q.8-3.14 1.63-6.26c1.3-5.07 2.41-10.16 3.48-15.28l.79-3.69c4.88-23.34 5.81-45.76 5.32-69.55-.2-9.84-.27-19.68-.3-29.53l-.01-2.98c-.04-22.33 1.67-44.38 4.07-66.56 4.49-42.09 3.98-84.09-20.67-120.34C799 305 799 305 798.94 303c1.65-3.11 4.33-4.94 7.06-7.06 18.95-15.44 29.62-38.65 38.25-61.06 6.75-17.32 16.98-32.52 34.25-40.69a81 81 0 0 1 61.88-.5c6.49 2.99 12.06 6.84 17.62 11.31l2.57 1.97c6.75 5.64 11.2 13.1 15.43 20.7 11.46 20.56 11.46 20.56 21 25.33 6.52.77 11.89.58 17.27-3.41 4.08-3.76 6.39-7.05 7.14-12.64.6-21.41-13.02-39.82-26.99-54.84-14.12-14.79-30.93-25.56-50.17-32.55l-1.93-.71c-11.27-3.84-23.14-4.29-34.94-4.29h-2.12c-11.69.02-22.26 1.34-33.26 5.44" fill="#BBBDBB"/><path d="M649 499a33 33 0 0 1 2.5 4.97l1.42 3.14 1.52 3.39c6.67 14.38 14.66 26.84 25.57 38.39 1.82 1.93 3.49 3.93 5.18 5.99 9.88 11.2 22 19.08 34.64 26.79 25.2 15.44 25.2 15.44 28.79 29.8.4 2.63.51 5.12.5 7.78l.01 2.64C749 624 749 624 748 625q-3 .33-6 .62c-6.32.88-9.39 2.9-14.1 7.02L726 634c-2.88-.5-2.88-.5-6-2-7.58-1.15-15.36-1.27-23.01-1.55l-3.41-.13c-12.46-.43-24.92-.48-37.39-.49l-7.54-.01-15.71-.01-15.75-.02c-26.89-.06-53.75.02-80.63 1.1l-3.03.11a590 590 0 0 0-34.13 2.31q-7.84.77-15.71 1.07c-12.27.55-24.45 2.32-36.62 3.86q-9.12 1.14-18.26 2.2-11.36 1.35-22.7 2.89l-5.24.71-10.37 1.42-4.77.65-2.23.32c-3.27.43-5.33.63-8.5-.43a1053 1053 0 0 1 17.31-11.38c59.58-38.51 59.58-38.51 77.42-56.36 5.4-5.19 10.63-7.14 17.77-9.14l6.76-2.05 3.44-1.04c47.32-14.73 91.97-39.76 136.09-61.92l2.12-1.05q2.17-1.1 4.3-2.26l2.15-1.14 1.9-1.04C646 498 646 498 649 499" fill="#EDEEEC"/><path d="m925 142 3.5.38c4.36.77 8.33 2.13 12.5 3.62l3.48 1.2c5.7 1.99 11.16 4 16.52 6.8l2.27 1.18a92 92 0 0 1 12.83 8.35q2.69 2.05 5.46 3.97c9.98 7.11 9.98 7.11 11.44 11.5q1.99 1.04 4 2c5.03 4.68 8.67 10.39 12.23 16.2 1.73 2.74 3.6 5.32 5.52 7.92 3.15 4.45 4.82 8.66 6.25 13.88l1.12 3c2.06 7.04 2.77 14.09-.12 21-4.55 6.76-10.86 12.34-19 14-3.56-.75-3.56-.75-7-2l-2.44-.8c-7.72-3.62-12.57-12.32-16.27-19.66A117 117 0 0 0 973 227l-1.36-2.39c-8.7-15.13-21.02-24.99-37.64-30.61a87 87 0 0 0-11-2l-2.11-.33c-13.26-1.99-13.26-1.99-17.89.33l-1.88-.5c-2.49-.59-3.67-.17-6.12.5l-6.88 1.4c-2.12.6-2.12.6-5.12 2.6q-2.5 1.02-5 2c-3.5 1.52-6.38 3.69-9.41 5.98C867 205 867 205 865 205l-.69 1.69c-1.69 2.97-3.78 5.03-6.31 7.31h-2l-.48 1.62a93 93 0 0 1-6.33 15.04c-2.33 4.57-4.18 9.33-6.07 14.09-9.69 24.32-9.69 24.32-17.12 33.25q-2.28 3.15-4.54 6.33C820 286 820 286 817 287l-.88 2.27c-1.4 3.42-3.26 4.97-6.06 7.35-5.65 4.89-5.65 4.89-8.06 7.38a129 129 0 0 0 10.31 17.38A17 17 0 0 1 815 328l1.5 2.94A27 27 0 0 1 819 339l.94 3.19c1.02 3.67 1.82 7.3 2.53 11.04q.48 2.55 1.04 5.07c1.85 8.75 1.94 17.48 2.11 26.39l.12 4.7c.48 19.41.48 19.41-.74 27.61v3.12c0 2.82-.45 5.13-1 7.88-.59 4.96-1 9.88-1 14.88 0 2.92-.39 5.27-1 8.12a87 87 0 0 0-1 13.5v3.5l-1 1a182 182 0 0 0 0 7q.07 3.5 0 7l-1 1q-.14 2.82-.13 5.64l-.01 3.49.02 3.68-.02 3.65.01 3.5v3.22c.11 2.46.49 4.45 1.13 6.82q.06 3.35 0 6.69-.07 3.16 0 6.31l1 1q.14 3.16.13 6.34l.01 3.91-.01 2.05.01 6.18-.01 3.92v3.61C821 557 821 557 820 560v2.5c0 2.5 0 2.5-1 5.5q-.3 2.37-.5 4.75c-1.03 10.85-1.03 10.85-2.56 15.37-.94 2.88-.94 2.88-.94 5.32 0 3.42-1.03 6.29-2 9.56l-.5 3c-.5 3-.5 3-1.44 6.19a112 112 0 0 0-2.5 12.16A43 43 0 0 1 806 632q-.57 2.99-1 6l2.13.13c19.78 1.38 51.24 4.37 65.82 19.58 1.05 1.29 1.05 1.29.93 3.48-1.21 3.87-3.56 5.71-6.88 7.81-11.04 4.77-23.12 6.64-35 8l-2.74.32c-32.88 3.54-66.31 2.24-99.27.78l-2.98-.13-15.41-.69c-69.38-3.09-139.31-5.13-208.6.72l-4 .33c-53.31 4.42-106.43 10.54-159.54 16.94-37.55 4.52-37.55 4.52-52.1 4.7q-3.84.06-7.68.18c-9.42.21-17.62-.32-26.68-3.15l-2.63-.48c-3.35-.74-5.59-2.55-8.37-4.52l-2.44-1.31c-3.67-2.42-6.54-5.52-9.56-8.69 1.39-3.17 2.21-4.17 5.06-6.44 2.94-2.56 2.94-2.56 3.82-5.37L239 668l-3 1.81c-11.07 6.28-22.06 7.3-34.49 4.66-7.66-2.23-13.54-6.14-17.51-13.16-3.27-7.39-2.86-14.28-.62-21.93 3.46-8.5 10.36-13.63 18.5-17.44 4.3-1.65 7.6-2.08 12.18-1.82 7.2.31 11.52-2.63 16.94-7.12q4.13-3.9 8-8.06c2-1.94 2-1.94 4-1.94l.82-1.81a19 19 0 0 1 4.08-5.21l1.7-1.66 3.52-3.37c2.7-2.62 5.12-5.13 7.17-8.3C262 580 262 580 264 579l1.27-2.14c2.14-3.53 4.7-6.46 7.42-9.55a314 314 0 0 0 12.79-15.61L287 550h2l.35-1.8a14 14 0 0 1 3.01-5.44l1.44-1.8 1.51-1.84c3.46-4.25 6.71-8.5 9.69-13.12 2.25-3.41 4.51-6.76 7-10l-2.12.12c-3.31-.14-5.76-1.02-8.88-2.12q-1.96-.52-3.94-1c-15.36-3.77-29.92-10.55-41.06-22l-2.4-1.41c-9.84-6.02-15.54-17.6-18.7-28.32A68 68 0 0 1 233 443l-1-3a69 69 0 0 1-.13-4.3l-.01-2.62.01-2.82-.01-2.91.01-6.1-.01-9.32.01-5.92-.01-2.81c.02-4.21.13-8.09 1.14-12.2.24-4.85.2-9.63-.5-14.44-.59-4.23-.53-8.32-.44-12.6-.06-2.96-.06-2.96-.57-5.65a62 62 0 0 1-.44-11.17l.37-14.02c.61-23.28.61-23.28 6.02-28.74l1.81-1.92c2.83-2.36 5.93-2.94 9.57-2.86 10.64 1.94 20.87 10.66 29.62 16.65a1273 1273 0 0 0 9.73 6.63A46 46 0 0 0 298 328l2.35 1.65c3.49 1.78 6.3 1.42 10.06 1.01 6.87-.59 13.6-.66 20.49-.44l5.7.13q4.35.1 8.71.27c18.31.75 18.31.75 25.2-4.82q2.31-2.33 4.49-4.8 1.56-1.47 3.16-2.93l2.34-2.38 2.41-2.43C385 311 385 311 386.64 308.8c1.79-2.36 3.78-3.36 6.36-4.8l2.94-2.12c3.31-2.04 5.18-2.88 9.06-2.88 7.52 3.37 11 8.18 14.19 15.66 1.19 3.45 1.45 6.71 1.81 10.34l1 2.81c1.2 3.84 1.42 7.46 1.71 11.45a42 42 0 0 0 1.35 6.99c.94 3.75.94 6.91.94 10.75 1 2.2 1 2.2 2 4a58 58 0 0 0 20.98-10.56c2.25-1.6 4.46-2.43 7.02-3.44q2.47-1.51 4.88-3.12c4.47-2.91 9.02-5.48 13.74-7.94 5.05-2.63 9.82-5.39 14.45-8.71 2.22-1.41 4.49-2.26 6.93-3.23q2.51-1.47 5-3a545 545 0 0 1 8.71-4.66l4.14-2.2 6.56-3.49A789 789 0 0 1 543 299q4.49-2.24 8.96-4.5A231 231 0 0 1 568 287l3.5-1.5 3.5-1.5 3.31-1.44a311 311 0 0 1 8.44-3.44c4.54-1.79 8.93-3.82 13.32-5.97a58 58 0 0 1 9.5-2.6c4.16-.94 8.19-2.29 12.24-3.61l4.96-1.6 2.17-.71A99 99 0 0 1 635 263l3.62-.9a218 218 0 0 1 24.43-4.71c2.95-.39 2.95-.39 5.31-.91 3.68-.67 7.36-.85 11.08-1.04l2.38-.13c7.04-.35 14.14-.68 21.18-.31l1 1c2.23.07 4.44 0 6.68-.06 2.3.06 4.11.46 6.32 1.06q2.93.49 5.88.94c4.22.69 8.1 1.55 12.12 3.06 2.85.78 5.71 1.3 8.62 1.81 4.63.9 8.75 2.4 13.06 4.29 2.45.95 4.7 1.57 7.32 1.9 2.06-1.31 2.06-1.31 4-3l1.91-.87c2.43-1.31 3.75-2.77 5.53-4.88l1.82-2.14 3.23-3.97q1.72-2.1 3.51-4.14h2l.62-2c1.59-3.45 3.66-6.09 6.04-9.04 1.4-2.05 1.79-3.56 2.34-5.96a79 79 0 0 1 2.25-4c2.64-4.61 4.66-9.37 6.64-14.3A87 87 0 0 1 810 203l2.44-4.38 1.32-2.37q1.54-2.81 2.99-5.69c4.3-7.47 10.95-13.5 17.5-18.98C836 170 836 170 838.31 167c3.57-4.52 8.83-7.08 13.69-10l4.06-2.69c4.41-2.74 9.08-4.55 13.94-6.31l2.25-.84a85 85 0 0 1 15.46-3.73C890 143 890 143 892 142q4.09-.36 8.19-.56l2.25-.13c7.63-.42 14.98-.27 22.56.69m-53 8-3.35 1.16c-32.53 12.36-50.15 39.31-64.22 69.32-8.49 18.07-17.3 34.14-33.43 46.52l-3 2.44c-3.79 1.97-6.06 1.73-10 .56l-5.06-1.75c-21.2-7.32-43.55-10.25-65.88-10.44l-2.63-.04c-13.8-.01-27.27 2.8-40.68 5.79l-2.37.53c-33.99 7.64-65.24 21.55-96.38 36.91l-3.45 1.7a974 974 0 0 0-44.09 22.93q-3.51 1.95-7.05 3.88c-13.82 7.58-27.4 15.6-40.87 23.81-8.34 5.08-16.47 9.99-25.54 13.68l.08-1.67c.2-7.84-.99-15.31-2.33-23.02l-.34-2.01c-5.34-31.16-5.34-31.16-12.79-37.24A14.3 14.3 0 0 0 400 302c-7.85 4.1-14.3 11.22-20.44 17.5L375 324l-2.35 2.37c-7.44 6.86-13.07 7.96-23.01 7.79l-4.09.02q-4.27 0-8.53-.06-5.4-.07-10.8 0c-27.84.27-27.84.27-39.22-9.12l-5.94-4.04q-2.82-2-5.62-4.02C253.38 301.38 253.38 301.38 244 302c-4.44 1.65-6.14 4.33-8.16 8.54-1.64 4.8-1.38 9.7-1.33 14.72l-.01 3.67.03 9.9q.02 5.22.01 10.44 0 8.78.05 17.55.04 10.08.04 20.15l.03 21.6.01 6.15c.06 51.91.06 51.91 15.33 68.28l1.77 2.04c12.31 13.44 29.96 21.28 47.23 25.96l2.5.69a43 43 0 0 0 11.27 1.36l2.41-.02L317 513a511 511 0 0 1-25.37 34.94 496 496 0 0 0-4.5 5.77c-9.63 12.46-20.02 24.24-30.73 35.78q-2.23 2.4-4.44 4.83-4.44 4.86-8.96 9.68l-2.37 2.54c-7.35 7.62-16.16 16.53-27.21 16.74l-2.11.03c-8.69.37-14.55 2.49-20.62 8.94-4.8 6.19-7.44 12.42-7.07 20.33.87 5.5 3.2 9.19 7 13.17 9.49 6.89 20.03 7.43 31.38 6.25 5.24-1.16 9.72-3.17 14.44-5.62l1.93-.99L243 663l-.98 2.62a32.5 32.5 0 0 0-.02 18.76c6.05 7.94 15.34 11.95 25 13.62 27.53 1.61 55.72-2.1 82.9-6.14l2.91-.42 2.25-.34q8.9-1.27 17.84-2.05a991 991 0 0 0 28.26-3.05c31.86-3.82 63.78-7.29 95.78-9.69l2.21-.16q6.94-.52 13.92-.96 3.15-.2 6.31-.43c25.06-1.82 50.07-2.16 75.2-2.14h10.03a2156 2156 0 0 1 106.06 2.8l13.94.68 2.7.13c116.5 5.56 116.5 5.56 144.69-13.23-.27-3.24-.66-4.67-3.02-6.96-3.68-2.52-7.29-3.96-11.48-5.42l-2.58-.89c-12.33-4.1-25.17-6.34-37.92-8.73l-3.14-.61-2.92-.56-2.54-.49c-2.5-.35-4.88-.4-7.4-.34l.82-3.01q1.58-5.83 3.12-11.68l1.33-4.93c8.48-30.98 11.5-60.6 10.84-92.62-.2-9.84-.27-19.68-.3-29.53l-.01-2.98c-.04-22.33 1.67-44.38 4.07-66.56 4.49-42.09 3.98-84.09-20.67-120.34C799 305 799 305 798.94 303c1.65-3.11 4.33-4.94 7.06-7.06 18.95-15.44 29.62-38.65 38.25-61.06 6.75-17.32 16.98-32.52 34.25-40.69a81 81 0 0 1 61.88-.5c6.49 2.99 12.06 6.84 17.62 11.31l2.57 1.97c6.75 5.64 11.2 13.1 15.43 20.7 11.46 20.56 11.46 20.56 21 25.33 6.52.77 11.89.58 17.27-3.41 4.08-3.76 6.39-7.05 7.14-12.64.6-21.41-13.02-39.82-26.99-54.84-14.12-14.79-30.93-25.56-50.17-32.55l-1.93-.71c-11.27-3.84-23.14-4.29-34.94-4.29h-2.12c-11.69.02-22.26 1.34-33.26 5.44" fill="#E8E9E9"/><path d="M676 401h1l.08 2.9.29 10.86.13 4.66c.2 7.84.45 15.68.91 23.51l.2 3.34C679 449 679 449 681 452q.73 2.54 1.31 5.12c2.86 11.83 5.82 23.17 11.69 33.88l2.56 5.44c7.47 14.92 17.2 28.61 27.66 41.55l1.68 2.08 3.29 4.03c3.81 4.68 3.81 4.68 3.81 6.9h2a30 30 0 0 1 3.12 3.38l1.64 1.89C741 558 741 558 741 560h2c9.2 9.87 18.06 24.2 18.56 37.94-.28 4.85-1 9.65-1.81 14.44l-.33 2.01c-.89 4.64-2.37 7.99-5.42 11.61-2.29.88-2.29.88-4.62 1l-2.36.19C745 627 745 627 743 625l5-1c.56-9.67-.74-18.36-7.05-26.02-7.85-7.97-17.82-13.4-27.29-19.17A126 126 0 0 1 695 565l-2.52-2.16C677.34 549.66 665.22 533.79 656 516l-1.03-1.99a286 286 0 0 1-3.03-6.07l-.95-1.88a19.5 19.5 0 0 1-2.13-7.79c1.78-3.54 4.91-4.25 8.45-5.46l4.05-1.48L665 490q2.01-.98 4-2l-.05-2.26c-.5-28.12-.31-57.42 7.05-84.74" fill="#010101"/><path d="M251 302c2.44 1.5 2.44 1.5 4 3l-4 1c2.08 3.12 3.03 3.74 6.25 5.38a46 46 0 0 1 9.09 6.17c2.17 1.89 4.45 3.62 6.72 5.39A57 57 0 0 1 283 333l2 1v2l3 1v4l-3.11 1.64-6.12 3.25c-9.98 5.31-18.38 10.62-24.77 20.11h-2l-.28 2.11c-.88 3.51-2.41 6.11-4.28 9.2l-1.94 3.24L244 383l-3-1-2-16h-2l-1 6h-1q-.13-11.33-.21-22.66l-.09-10.53q-.07-6.06-.09-12.12l-.06-3.79c-.01-7.12.54-11.87 4.45-17.9 3.81-3.3 7.05-3.54 12-3" fill="#262724"/><path d="M408 306h4c10.34 17.35 11.45 42.33 13 62h-2v-8h-2l-.15 2.16c-.43 5.55-1.09 10.56-2.85 15.84a89 89 0 0 1-4-4v-2h-2l-1.12-2.06c-3.07-4.8-7.43-9.12-12.88-10.94v-2l-1.52-.76-6.05-3.04A378 378 0 0 0 369 343a46 46 0 0 1 5-9.81l1.56-2.4L377 329h2l.69-1.64c1.72-3.1 3.92-5.49 6.31-8.11l1.37-1.54A85 85 0 0 1 391 314h2l1-3c1.89-1.39 1.89-1.39 4.25-2.69l2.33-1.32c2.7-1.11 4.52-1.16 7.42-.99" fill="#222421"/><path d="M378.94 423.5c4.58 3.33 7.23 7.13 9.06 12.5.91 7.07.35 13.22-4 19-6.07 6.67-12.27 9.97-21.25 10.56-7.49-.22-14.18-3.41-19.77-8.34-4.39-4.87-6.52-9.4-6.28-16.11 1.04-7.28 5.52-11.88 11.03-16.41 9.18-6.86 21.37-6.91 31.21-1.2" fill="#161714"/><path d="M292.12 420.9c6.54 3.85 11.25 8.56 13.43 15.97 1.05 4.97 1.22 10.2-.68 14.94-4.6 5.4-9.79 9.43-17 10.51-7.93.41-14.08-2.64-20.18-7.5-5.6-5.28-7.86-10.86-8.19-18.5.25-6.2 2.42-9.4 6.94-13.57 7.46-5.1 17.41-5.52 25.68-1.86" fill="#161714"/><path d="m377 548 6 2a23 23 0 0 1-5.22 7.46l-1.99 2-2.14 2.12-2.22 2.22-4.67 4.64-7.07 7.05-4.54 4.53-2.11 2.11a249 249 0 0 1-12.3 11.35 102 102 0 0 0-5.74 5.46l-2 2.02-2 2.04a231 231 0 0 1-14.2 13.45 285 285 0 0 0-6.61 5.93c-7.64 6.88-15.69 13.25-23.75 19.62l-1.85 1.46c-5.23 4.11-8.41 4.75-14.97 5.04l-4.58.22-2.06.09c-2.07.2-3.97.64-5.98 1.19a100 100 0 0 1 11.31-10 985 985 0 0 0 35.1-28.65l8.21-6.97 1.65-1.4q5.04-4.25 10.17-8.42a858 858 0 0 0 25.39-21.67q2.66-2.31 5.34-4.59A698 698 0 0 0 377 548" fill="#EBEBEE"/><path d="M378.94 423.5c4.58 3.33 7.23 7.13 9.06 12.5.91 7.07.35 13.22-4 19-6.07 6.67-12.27 9.97-21.25 10.56-7.49-.22-14.18-3.41-19.77-8.34-4.39-4.87-6.52-9.4-6.28-16.11 1.04-7.28 5.52-11.88 11.03-16.41 9.18-6.86 21.37-6.91 31.21-1.2M347 429c-3.92 5.43-3.77 10.53-3 17 1.63 4.92 4.76 8.1 9 11 4.05 2.03 9 1.65 13.23.28 4.32-2.01 7.15-4.2 9.77-8.28 1.84-5.53 1.94-11.01-.56-16.31-4-4.4-8.39-8.14-14.46-8.96-5.96-.27-9.8.89-13.98 5.27" fill="#EAD16C"/><path d="m941 146 3.48 1.2c5.7 1.99 11.16 4 16.52 6.8l2.27 1.18a92 92 0 0 1 12.83 8.35q2.69 2.05 5.46 3.97c9.98 7.11 9.98 7.11 11.44 11.5q1.99 1.04 4 2c5.03 4.68 8.67 10.39 12.23 16.2 1.73 2.74 3.6 5.32 5.52 7.92 3.15 4.45 4.82 8.66 6.25 13.88l1.12 3c2.06 7.04 2.77 14.09-.12 21-4.55 6.76-10.86 12.34-19 14-3.56-.75-3.56-.75-7-2l-2.44-.8c-7.72-3.62-12.57-12.32-16.27-19.66A117 117 0 0 0 973 227l-1.36-2.39c-8.7-15.13-21.02-24.99-37.64-30.61a85 85 0 0 0-11-2l-2.35-.3-2.15-.26C915 191 915 191 912 190l1-1-11-1v-1c21.21-.91 39.17 3.51 56 17l3.19 2.38c6.65 6.21 11.41 13.38 15.81 21.29 11.06 19.86 11.06 19.86 20 24.33 6.58.78 11.91.55 17.34-3.47 3.89-3.58 5.41-6.37 6-11.52.63-21.37-12.76-39.62-26.7-54.67-25.57-26.9-56.5-36.14-92.64-37.34v-1l1.88-.08 8.43-.36 2.96-.12 2.84-.12 2.62-.11c8.1-.74 13.49.01 21.27 2.79" fill="#E1E2E1"/><path d="M292.12 420.9c6.54 3.85 11.25 8.56 13.43 15.97 1.05 4.97 1.22 10.2-.68 14.94-4.6 5.4-9.79 9.43-17 10.51-7.93.41-14.08-2.64-20.18-7.5-5.6-5.28-7.86-10.86-8.19-18.5.25-6.2 2.42-9.4 6.94-13.57 7.46-5.1 17.41-5.52 25.68-1.86m-25.43 7.54c-2.49 5.24-2.66 9.87-1.69 15.56 1.98 4.5 4.66 7.81 8.31 11.06 5.4 1.88 10.11 1.43 15.5-.25 4.4-2.5 6.6-5.03 8.2-9.8.61-5.08.8-9.54-2.14-13.89-3.62-4.36-8.18-7.76-13.96-8.32-6.48-.14-9.66.82-14.22 5.64" fill="#EACB6D"/><path d="m251 593 2 1c-8.84 10.58-18.34 20.52-30 28l-1.83 1.19c-3.22 1.2-6.46 1.06-9.86 1.12-7.82.34-13.51 1.68-19.08 7.55-5.04 6.3-7.85 12.5-7.58 20.64.73 5.18 2.92 8.98 6.47 12.75 7.36 4.48 13.48 6.11 22.07 6.13h2.3c7.9-.16 14.42-2.61 21.45-6l2.07-.99L244 662a85 85 0 0 1-2 7c-.97 12.95-.97 12.95 3 18a89 89 0 0 0 9 6l-1 2c-10.07-1.78-16.07-5.71-23-13 1.39-3.17 2.21-4.17 5.06-6.44 2.94-2.56 2.94-2.56 3.82-5.37L239 668l-3 1.81c-11.07 6.28-22.06 7.3-34.49 4.66-7.66-2.23-13.54-6.14-17.51-13.16-3.27-7.39-2.86-14.28-.62-21.93 3.46-8.5 10.36-13.63 18.5-17.44 4.3-1.65 7.6-2.08 12.18-1.82 7.2.31 11.52-2.63 16.94-7.12q4.13-3.9 8-8.06c2-1.94 2-1.94 4-1.94l.62-1.62c1.96-3.38 4.56-5.68 7.38-8.38" fill="#E2E3E3"/><path d="m905.13 187.81 2.9.04q3.47.05 6.98.15c-2.3 2.28-2.91 2.3-6 2.56-2.38.21-3.86.36-6 1.44l-1.88-.5c-2.5-.59-3.67-.17-6.12.5l-6.88 1.4c-2.12.6-2.12.6-5.12 2.6q-2.5 1.02-5 2c-3.51 1.52-6.4 3.68-9.42 5.97C867 205 867 205 865 205q-.35.82-.68 1.7c-1.7 2.96-3.79 5.02-6.32 7.3h-2l-.49 1.61a92 92 0 0 1-6.31 15.05c-2.34 4.57-4.2 9.32-6.08 14.1a464 464 0 0 1-4.69 11.3l-1.18 2.8C836 261 836 261 833 262q-1.05 2.48-2 5l-2 1c1.59-5.26 3.86-10.02 6.25-14.94a231 231 0 0 0 7.88-17.94c4.58-11.65 9.92-21.28 18.88-30.12l1.85-1.93c10.99-10.59 26.27-15.67 41.26-15.26" fill="#E8E9E8"/><path d="M326 458c3.25 2 3.25 2 5 4-1.31 3.92-2.83 6.33-6 9h-2v6c-2.88.12-2.88.12-6 0-2-2-2-2-2.88-4.31-1.12-2.69-1.12-2.69-3.31-5.25C309 465 309 465 309 462.88c3.48-6.53 10.57-5.71 17-4.88" fill="#656766"/><path d="M302 433c3 2 3 2 3.67 3.82.77 5.08 1.13 10.17-.79 14.99-2.83 3.3-5.96 6.23-9.88 8.19q-3.46.21-6.94.25l-3.77.08c-3.29-.33-3.29-.33-5.23-1.85L278 457l3.06-.81a53 53 0 0 0 7.63-2.81C292 452 292 452 296 452l2-15 4-1z" fill="#F6D466"/><path d="M376 426h4v2h2c4.89 6.47 5.69 14.02 5 22-1.78 3.44-1.78 3.44-4 6-3.9.49-7.26.2-11-1q1.93-2.56 4-5h2l-.44-5.88-.24-3.3C377 438 377 438 376 436q-.06-3 0-6l-2-1h2z" fill="#F7D45A"/><path d="M311 518c.7 1.71.7 1.71 1 4-1.2 2.2-1.2 2.2-3.12 4.69l-2.24 2.93-1.27 1.62q-2.23 2.87-4.41 5.77Q296 543.53 291 550l-1.45 1.89a499 499 0 0 1-24.13 28.9l-4.48 5.02-2.6 2.9c-2.09 2.04-3.65 3.22-6.34 4.29l1.17-1.32a76 76 0 0 0 7.08-9.06C262 580 262 580 264 579l1.27-2.14c2.14-3.53 4.7-6.46 7.42-9.55a314 314 0 0 0 12.79-15.61L287 550h2l.35-1.8a14 14 0 0 1 3.01-5.44l1.44-1.8 1.51-1.84c3.46-4.25 6.71-8.5 9.69-13.12 3.78-5.78 3.78-5.78 6-8" fill="#E7E7EA"/><path d="M741 626c-1.52 3.79-1.52 3.79-3.88 4.81-3.27 1.83-4.49 4.95-6.12 8.19l-1.09 1.96c-1.9 4.27-1.68 9-.05 13.33A85 85 0 0 0 733 660l1 2c-5.17-.67-7.36-2.53-10.6-6.49-2.64-4.73-2.36-9.3-1.4-14.51 2.76-8.22 9.6-16.41 19-15" fill="#080908"/><path d="M256.29 302.4c7.8 4 14.97 8.87 22.2 13.8l4.09 2.72a909 909 0 0 1 12.83 8.73L297 329v2c-5-1.66-9.05-4.56-13.37-7.5l-2.4-1.6-9.4-6.38q-2.03-1.36-4.05-2.74l-3.65-2.48c-6.37-4.29-12.18-8.22-20.13-7.3-4.14 1.62-5.4 3.65-7.21 7.6-1.47 4.5-1.4 9-1.4 13.68l-.04 3.2-.1 10.02-.08 6.83q-.12 8.33-.17 16.67h-1v-38h-2c.42-7.98 1.02-13.64 6.5-19.8 5.76-5.05 11.45-3.96 17.79-.8" fill="#DCDDDE"/><path d="M822 405h1l1 6.19.56 3.48c.63 4.77.43 8.64-.56 13.33-.59 4.96-1 9.88-1 14.88 0 2.92-.39 5.27-1 8.12a71 71 0 0 0-.88 13.12c-.13 4.34-1.34 6.96-3.12 10.88a97 97 0 0 0-1 7h-1c.61-16.83 2.02-33.55 3.56-50.31l.71-7.81z" fill="#D6D6D7"/><path d="m818 474 2 1c.1 6.15.1 6.15 0 8l-1 1q-.14 2.82-.13 5.64l-.01 3.49.02 3.68-.02 3.65.01 3.5v3.22c.11 2.46.49 4.45 1.13 6.82q.06 3.35 0 6.69-.07 3.16 0 6.31l1 1c.1 2.66.14 5.28.12 7.94l.02 2.25c-.01 5.56-.01 5.56-1.14 7.81a104 104 0 0 0-.56 4.62l-.26 2.48-.18 1.9h-1l-.08-2.29-.36-10.46-.12-3.6a267 267 0 0 0-.97-16.46c-.63-7.08-.62-14.14-.6-21.24q.01-3.42-.01-6.83l.01-4.42v-3.97c.35-9.95.35-9.95 2.13-11.73" fill="#F3F3F5"/><path d="M377 438h1v12h-2l-2 4h2v2h6c-3.36 5.5-7.95 7.46-14 9-3.7.29-7.3.25-11 0v-3h-3v-2c3-2 4.36-2.36 7.81-2.88 4.55-.86 7.64-2.01 11.19-5.12 3.01-4.56 3.54-8.68 4-14" fill="#E6CB69"/><path d="m241 672 .3 2.45c1.53 10.94 1.53 10.94 5.7 14.55a83 83 0 0 0 7 4l-1 2c-10.07-1.78-16.07-5.71-23-13 1.76-3.97 6.12-10 11-10" fill="#D2D4D5"/><path d="M340 436h3l-.18 2.23c-.37 8.04-.37 8.04 2.37 11.71L348 452l2.31 2.12c3.43 2.4 6.74 3.54 10.69 4.88v1h-7v2h3v2c-7.88-2.04-13.27-5.04-17.94-11.81-1.38-4.15-1.32-7.86-1.06-12.19h2z" fill="#F1DE84"/><path d="M817 528h1l1 18h2l.06 5.31.04 2.99c-.1 2.7-.1 2.7-1.1 5.7v2.5c0 2.5 0 2.5-1 5.5q-.3 2.37-.5 4.75c-1.03 10.85-1.03 10.85-2.56 15.37-.94 2.88-.94 2.88-.88 5.57-.06 2.31-.06 2.31-1.56 4.12L812 599c-1.04-3.96-.87-6.8-.04-10.79l.68-3.49.74-3.78c3.21-17.59 3.54-35.1 3.62-52.94" fill="#DDDEE1"/><path d="m263 426 1 4h-2l1 14 1-8h1l.3 1.98c1.13 6.59 2.53 11.47 7.95 15.83 3.63 1.57 6.82 1.86 10.75 2.19v3l9 1c-4.1 2.73-7.19 2.6-12 2a32.7 32.7 0 0 1-18.39-13.07c-2.94-5.77-3.49-11.54-2.61-17.93 1.5-3.19 1.5-3.19 3-5" fill="#DDCD76"/><path d="m726 259 5.86.66c3.13.5 6.01 1.53 9 2.59q2.7.93 5.45 1.69c4.36 1.25 8.63 2.7 12.92 4.16 2.25.73 4.47 1.37 6.77 1.9l-1 2a47 47 0 0 1-12.06-2.75c-17.6-6.08-36.4-9.21-54.94-10.25v-1c9.91-2.32 18.35-2.43 28 1" fill="#E1E1E4"/><path d="M922 143v1l-2.54.1c-49.76 2.2-49.76 2.2-60.46 12.9q-2.5.06-5 0c2.2-4.4 9.06-6.28 13.49-7.92q2.2-.72 4.4-1.4c2.11-.68 2.11-.68 4.52-1.7a40 40 0 0 1 8.28-2.04c5.11-.84 5.11-.84 7.31-1.94q4.09-.36 8.19-.56l2.25-.13c13.33-.74 13.33-.74 19.56 1.69" fill="#EAEAEA"/><path d="m941 146 3.48 1.2c8.14 2.85 15.42 5.9 22.52 10.8l-2 2-3.3-1.61c-20.27-9.79-38.31-12.65-60.7-13.39v-1l1.88-.08 8.43-.36 2.96-.12 2.84-.12 2.62-.11c8.1-.74 13.49.01 21.27 2.79" fill="#DCDEDD"/><path d="M902 187c21.16-.91 39.25 3.47 56 17l2.01 1.62q2.02 1.67 3.99 3.38l-3 1c-1.99-1.41-1.99-1.41-4.31-3.5-12.33-10.23-26.06-13.99-41.69-15.5l-3-1 1-1-11-1z" fill="#D6D8D7"/><path d="M239 323v33h-2v4h-2q-.11-7.18-.16-14.36l-.07-4.89-.06-7.02-.05-2.21c0-5.05 0-5.05 1.8-7.5C238 323 238 323 239 323" fill="#0D0F0E"/><path d="m296 327 3.01 2.02c3.99 2.26 7.31 2.25 11.78 1.71l4.52-.38 2.34-.2c6.11-.39 12.25-.1 18.37.09l7.02.18 4.51.13 2.1.05c3.67.13 6.15.65 9.35 2.4q-11.21.38-22.43.65-5.2.13-10.41.3-6 .19-11.98.32l-3.77.14c-9.6.17-9.6.17-12.73-2.8C296 329 296 329 296 327" fill="#EAECEB"/><path d="M290 421c5.18.88 8.47 4.31 12 8 1.5 2.94 1.5 2.94 2 5l-2.44.81c-2.56 2.19-2.56 2.19-3.04 4.7q-.2 2.9-.28 5.8A14 14 0 0 1 296 452h-3l.94-1.81c2.43-5.01 2.69-9.71 2.06-15.19a31 31 0 0 0-7-9l2-1z" fill="#E8C864"/><path d="m554 294 3 1c-3.67 3.05-7.76 5-12.02 7.09l-2.35 1.17-7.44 3.68-7.41 3.67-4.6 2.27c-3.43 1.7-6.78 3.45-10.08 5.38C510 320 510 320 508 320c1.27-3.81 2.33-3.98 5.85-5.74l3.02-1.55 3.19-1.59c12.52-6.31 12.52-6.31 18.19-10.08 3.07-1.83 6.38-2.86 9.75-4.04a83 83 0 0 0 4-2z" fill="#E2E1E4"/><path d="m692.5 254.75 2.99-.06 2.85-.02 2.57-.03 2.09.36 2 3-2.42.06c-27.21.71-27.21.71-38.73 2.53-3.67.53-7.15.56-10.85.41l1-2c2.55-.6 2.55-.6 5.75-1.06 6.16-.92 6.16-.92 8.52-1.44 8.01-1.47 16.1-1.71 24.23-1.75" fill="#F1F2F2"/><path d="M232 323h2c1.19 41.24 1.19 41.24 1 58l-2-1c-1.19-5.34-1.05-10.59-.94-16.04-.06-2.96-.06-2.96-.57-5.67-.55-3.71-.5-7.13-.37-10.88l.07-2.12.25-6.67.16-4.54q.18-5.54.4-11.08" fill="#EEF0EE"/><path d="m363 421-1 2c-2.11.68-2.11.68-4.75 1.31-6.02 1.7-8.81 4.53-12.25 9.69-.2 3.36-.2 3.36-.12 7.19l.05 3.85.07 2.96h-3l1-12h-3v4h-2v7h-1c-.45-6.36.21-10.76 4-16 6.69-7.19 12.01-10.4 22-10" fill="#E1DD7D"/><path d="m251 300 3 2c-3 1-3 1-6.44.94-3.48.06-4.71.26-7.56 2.06-4.57 5.69-4.6 12.3-4.61 19.28l-.05 3.2q-.07 5.01-.09 10.02l-.09 6.83q-.11 8.34-.16 16.67h-1v-38h-2c.41-7.98 1.02-13.64 6.5-19.81 4.01-3.51 7.32-3.47 12.5-3.19" fill="#C8C9C7"/><path d="M845 230h1c2.49 7.87-2.49 15.12-6 22q-1.5 3.57-2.94 7.14C836 261 836 261 833 262q-1.05 2.48-2 5l-2 1c1.59-5.3 3.89-10.11 6.31-15.06A233 233 0 0 0 845 230" fill="#DEDEDF"/><path d="M198 625c-1 3-1 3-3.69 4.94-5.35 4.3-8.56 11.12-9.83 17.78-.32 7.61 2.72 13.52 7.52 19.28l-2 2c-5.72-6.54-8.78-12.33-8.37-21.14 1.24-9.61 4.76-15.04 12.13-21.28C196 625 196 625 198 625" fill="#E9EBEA"/><path d="M387 311c-2.47 5.82-7.48 9.74-12 14l-2.75 2.65c-4.52 4.07-7.67 6.9-13.94 6.91A57 57 0 0 1 354 334v-3c2-1 2-1 5.44-.5 6.64.07 11.02-5.21 15.56-9.5q4.07-3.99 8-8.13c2-1.87 2-1.87 4-1.87" fill="#D2D2D4"/><path d="m818 474 2 1c.1 6.15.1 6.15 0 8l-1 1q-.08 2.03-.03 4.05l.04 2.54.05 2.72c.09 7.81-.32 15.05-2.06 22.69h-1l-.05-14.14-.03-4.81-.02-6.93-.01-2.14c0-4.42.32-8.64 1.11-12.98z" fill="#E9EAEB"/><path d="M239 330h1l.08 2.96.42 15.88q.39 16.1 1.5 32.16h2v2l-3-1-2-16h-2l-1 6h-1v-12h2v-4h2z" fill="#1D1F1E"/><path d="m502 550 2 1-1.36 1.32c-2.94 2.9-5.79 5.78-8.39 8.99C492 564 492 564 489 566l-.31 2-.69 2c-3.01 1.41-5.06 2.15-8.38 1.62L478 571l3-1 .42-1.88c.81-2.96 2.24-3.51 4.83-5.06A48 48 0 0 0 496 555q2.96-2.55 6-5" fill="#030404"/><path d="M823 372c2.71 2.71 2.31 4.25 2.41 8.04l.12 3.7.09 3.88.12 3.82q.11 3.66.19 7.32.06 2.91.2 5.82c.08 2.13.08 2.13-.13 5.42l-3 3z" fill="#F2F3F5"/><path d="M235 372h1c.16 17.36-.27 34.66-1 52h-1c-1.88-17.82-2.09-34.32 1-52" fill="#DDDFDE"/><path d="M236 361c3.39 3.69 4.56 6.12 4.88 11.12l.24 3.14C241 378 241 378 239 381c-.41 2.48-.41 2.48-.62 5.19l-.23 2.73L238 391h-1c-1.33-9.98-1.1-19.96-1-30" fill="#0C0F0C"/><path d="M354 424c6.59-.55 11.54.1 17 4 2.98 2.9 5.84 5.93 6.17 10.21.06 8.6.06 8.6-2.17 12.79h-1l.25-1.94c.63-5.29.77-9.83-.25-15.06h-4v-4h-2v-2c-4.71-1.77-9.03-2.49-14-3z" fill="#281B0E"/><path d="M415 317c6.14 6.14 6.04 19.7 6.06 28.06L421 349h-2l-2-12.06-.58-3.44c-.91-5.56-1.68-10.86-1.42-16.5" fill="#1A1B1B"/><path d="M292 452c1.25 2.49.78 3.41 0 6h4v-2l4 1c-4.12 2.96-7.09 3.41-12.12 3.38l-3.7.02c-3.18-.4-3.18-.4-5.11-1.92L278 457l3.06-.81A80 80 0 0 0 292 452" fill="#E7D173"/><path d="m241 305 2 1-2 2c-.67 2.06-.67 2.06-1.19 4.44l-.54 2.37C239 317 239 317 240 320c-.94 2.19-.94 2.19-2 4h-2l-1 2c-.57-14.11-.57-14.11 3-19z" fill="#1F211D"/><path d="M817 528h1l1 18h2c.35 7.13-.04 12.47-3 19h-1z" fill="#B5B6B7"/><path d="M340 436h3v11l2 1-1 4-4-2v-2h-2v-8h2z" fill="#F7E060"/><path d="m423 348 3 1-.12 3.75c-.02 3.27.26 5.46 2.12 8.25l4-1v4c-5.75 3-5.75 3-8 3-.75-6.37-1.1-12.58-1-19" fill="#F1F2F3"/><path d="M739 263a47 47 0 0 1 17.66 4.01A68 68 0 0 0 766 270l-1 2c-5.68-.52-10.67-2.15-16.04-4.01A118 118 0 0 0 738 265z" fill="#E5E5E6"/><path d="M368 457v3l-2.44.88C363 462 363 462 362 464h6v1h-11v-3h-3v-2c4.45-2.97 8.73-3 14-3" fill="#DDC65C"/><path d="M306 440h1l1 10h-2l.06 2.88C306 456 306 456 305 458h-5v2c-3.4 2.09-6.05 2.18-10 2 2.97-1.98 6-3.84 9.06-5.68 3.24-2.21 4.69-3.32 5.67-7.24l.46-3.27.48-3.29z" fill="#342312"/><path d="M191 667c3.07.48 5.46 1.21 8.31 2.5 6.49 2.57 13.81 2.26 20.69 2.5v1c-18.25 3.11-18.25 3.11-27.56-2.56L191 669z" fill="#E5E4E8"/><path d="M266 423h2l-.88 3.69c-1.35 6.05-2.23 12.17-3.12 18.31l-2-1v-14h2l-.12-2.38C264 425 264 425 266 423" fill="#EFDB70"/><path d="m574 284 2 1v2l-12.99 6.25-2.11 1.02c-1.9.73-1.9.73-4.9.73v-2c4.58-2.73 9.19-5.05 14.08-7.17A82 82 0 0 0 574 284" fill="#EBEDEC"/><path d="M274 456h10v3l9 1c-4.07 2.71-7.22 2.53-12 2a63 63 0 0 1-8-3z" fill="#D7BF6A"/><path d="M237 459c1.89 2.84 2.8 5.1 3.88 8.31A40 40 0 0 0 247 479l-2 2c-9.25-13.21-9.25-13.21-8.69-19.44z" fill="#DBDCDB"/><path d="m801 299 2 1-2 3c3.63 6.52 3.63 6.52 5.75 9.31C808 314 808 314 808 316l-3 1q-1.8-2.87-3.56-5.75l-2.01-3.23C798 305 798 305 798.16 302.73 799 301 799 301 801 299" fill="#E8E8EA"/><path d="M922 143v1h-26l1-2c8.29-1.39 17.1-2.08 25 1" fill="#F1F1F4"/><path d="M658 261v1l-22 4-1-3q3.78-1.09 7.56-2.12l2.14-.63c5.16-1.38 8.29-1.13 13.3.75" fill="#D7D8D9"/><path d="M276.25 419.13c2 1 3.21 2.26 4.75 3.88q-.92.18-1.86.4l-2.45.52q-1.2.28-2.43.53c-2.26.55-2.26.55-5.26 1.55l-1 3c-1-3-1-3-1-7 6.32-3.05 6.32-3.05 9.25-2.88" fill="#DDCE72"/><path d="m853 156 4 2-1.87 1.1A326 326 0 0 0 838 170c1.38-4.95 3.79-6.58 8.06-9.25l3.29-2.08L852 157z" fill="#DFE0E1"/><path d="m380 549 3 1c-1.41 3.22-3.1 5.32-5.62 7.75l-1.92 1.86L374 561l-2-4z" fill="#E6E8E9"/><path d="m367 456 5 2-.56 1.88C371 462 371 462 372 464h-10l2-4h4z" fill="#EBCC54"/><path d="M298 694c-2 3-2 3-3.76 3.68-2.73.39-5.34.43-8.1.42l-3.38-.01-3.51-.03-3.56-.01L267 698v-1l1.85-.06 8.34-.32 2.91-.09 2.82-.12 2.58-.09c4.53-.58 7.79-2.59 12.5-2.32" fill="#99999D"/><path d="M420 351h3l2 17h-2v-8h-2v5h-1z" fill="#363838"/><path d="m349 456 1 2 3.25-.12c3.41.11 4.96.33 7.75 2.12h-7v2h3v2l-4.44-1.38-2.49-.77C348 461 348 461 347 459z" fill="#E9D872"/><path d="m266 447 3.31 2.81 1.87 1.58A91 91 0 0 1 276 456h-2v2c-6.05-2.13-6.05-2.13-8-5-.19-3.19-.19-3.19 0-6" fill="#E1D17A"/><path d="M235 440h1c.8 7.36 1.13 14.6 1 22-2-1-2-1-2.7-2.9-1.51-6.83-.97-12.33.7-19.1" fill="#E5E6E6"/><path d="m1019 242 2 1c-1.42 3.3-3.12 5.32-5.81 7.69l-2.02 1.82c-3.54 2.43-6.29 2.61-10.48 2.05L1000 254v-1l1.98-.3c5.52-.94 9.64-1.96 14.02-5.7 1.88-2.75 1.88-2.75 3-5" fill="#D8DAD8"/><path d="m340 433 4 1 1 14h-3l1-12h-3v4h-2v7h-1c-.29-5.67-.01-8.99 3-14" fill="#D0C06D"/><path d="M723 258c5.47 1.02 10.76 2.07 16 4v2c-5.91-.45-11.35-1.16-17-3z" fill="#EDECF0"/><path d="M819 560h1c.08 3.04-.02 5.07-1 8l-.5 2a67 67 0 0 1-1.5 5h-2l-1 3q.17-2.37.38-4.75l.21-2.67A18 18 0 0 1 817 564l1.12-2.25z" fill="#DBDBDF"/><path d="M210 620v2l9 1v1l-3.32.15-4.37.23-2.18.09c-4.1.22-7.37.71-11.13 2.53v-3l4.88-2 2.74-1.12C208 620 208 620 210 620" fill="#C5C7C6"/><path d="M236 361h1l.18 2.55.26 3.33.24 3.3C238 373 238 373 239 375q-.13 4.07-.44 8.12l-.16 2.29-.4 5.59h-1c-1.33-9.98-1.1-19.96-1-30" fill="#040605"/><path d="M387 311c-1.59 3.9-4.13 6.34-7.12 9.25l-2.76 2.7L375 325l-2-2q2.92-3 5.88-6l1.68-1.73c4.21-4.27 4.21-4.27 6.44-4.27" fill="#C8CACB"/><path d="m928 143-1 3-26-1v-1l1.88-.08 8.43-.36 2.96-.12 2.84-.12 2.62-.11c6.99-.64 6.99-.64 8.27-.21" fill="#ACACAC"/><path d="m607 271 1 3-4.81 2-2.71 1.12C598 278 598 278 595 278v-2l3.75-1.94 2.11-1.09c2.04-.93 3.95-1.5 6.14-1.97" fill="#EEEFF0"/><path d="M990 251c5.42.69 10.68 1.76 16 3l-1 3c-5.37-.46-9.31-1.14-14-4z" fill="#EEEFED"/><path d="m1021 224 2 1c1.71 6.19.73 11.94-1 18h-2z" fill="#EBECEE"/><path d="m903.38 187.9 4.18.04 2.16.01 5.28.05c-2.3 2.28-2.91 2.3-6 2.56-2.38.21-3.85.36-6 1.44l-4-3c1-1 1-1 4.38-1.1" fill="#F5F5F5"/><path d="m226 672-1 3c-5.94.89-11.07.97-17 0 2.43-2.43 3.4-2.35 6.75-2.62l2.7-.23A98 98 0 0 1 226 672" fill="#EEEFEF"/><path d="M869 656c2.43.94 3.72 1.49 5 3.81 0 3.38-1.74 4.81-4 7.19-3.44 2.29-4.99 2.18-9 2l3-2 3.06-2.12C870 663 870 663 872 663c-1.88-4.75-1.88-4.75-3-7" fill="#E1E2E2"/><path d="m937.69 144.94 3.57 1.15 2.74.9c-2.73 1.89-3.88 2.03-7.23 1.55l-3.52-.91-3.54-.9L927 146c2.38-4.75 6.66-2.38 10.69-1.06" fill="#E6E9E9"/><path d="m354 464 16 1-2 1v2h-8v-2h-6z" fill="#191005"/><path d="m822 277 4 1c-5.09 7.68-5.09 7.68-8.88 9H815l1.28-1.68 1.66-2.2 1.65-2.17C821 279 821 279 822 277" fill="#E1E2E4"/><path d="M836 249c1 3 1 3-.65 6.57q-1.13 2.07-2.29 4.12l-1.17 2.12q-1.43 2.6-2.89 5.19c-1-2-1-2-.26-4.28l1.14-2.66c1.12-2.68 2.2-5.3 3.12-8.06 1.56-1.69 1.56-1.69 3-3" fill="#0A0A0A"/><path d="M243 665c.85 2.54 1.02 3.91.44 6.56C243 674 243 674 245 677c-.88 3.69-.88 3.69-2 7-2.3-3.45-2.27-4.87-2.25-8.94l-.02-3.15c.26-2.84.8-4.5 2.27-6.91" fill="#262828"/><path d="M280 505q2.16.42 4.31.88l2.43.49C289 507 289 507 292 509l-1 3-2.62-1.38A67 67 0 0 0 279 507z" fill="#EAECE9"/><path d="M338 448c2 0 2 0 4.12 2l1.88 2 1-3q2.03 1.97 4 4v1h-6l-1 2c-4-6.88-4-6.88-4-8" fill="#E7D879"/><path d="M244 693c6.14.58 12.01 1.54 18 3l-1 2c-6.32-.33-11.55-.62-17-4z" fill="#DEDEE0"/><path d="M354 691v1h-6v2q-2.66.33-5.31.62l-2.99.36c-2.7.02-2.7.02-5.7-1.98 6.74-1.26 13.13-2.26 20-2" fill="#E4E5E2"/><path d="m346 424 2 1-1.68 1.79-2.2 2.4-2.17 2.35A23 23 0 0 0 338 439l-2-3 2-4h2v-4h2v-2c1.88-1.06 1.88-1.06 4-2" fill="#22180A"/><path d="M824 675v1h-5v2l-19-1v-1l7.5-.5 2.11-.14c4.81-.32 9.57-.4 14.39-.36" fill="#DEE0DE"/><path d="M820 452h2c-1.44 12.16-1.44 12.16-4 16l-.12-5.19-.08-2.92c.21-3.02.93-5.16 2.2-7.89" fill="#F2F2F5"/><path d="M369 419v1l-2.34.11c-6.48.41-11.72 1.26-17.66 3.89v-2c6.53-5.01 12.1-4.09 20-3" fill="#23180F"/><path d="m900 188-2 4-4.38.12-2.46.08C889 192 889 192 887 190c4.54-1.45 8.18-2.24 13-2" fill="#D7D7DA"/><path d="m375 435 2 1c.37 10.56.37 10.56-2 15h-1l.25-2.01c.53-4.59.92-8.46-.25-12.99z" fill="#221305"/><path d="M557 295a41 41 0 0 1-10 6l-3-1c7.84-6.72 7.84-6.72 13-5" fill="#DCDDDE"/><path d="M987 174c1.88.25 1.88.25 4 1q1.02 1.99 2 4a20 20 0 0 0 4 2l-3 2-3.5-3.38-1.97-1.89C987 176 987 176 987 174" fill="#DBDDDC"/><path d="M819 439h1c2.43 10.82 2.43 10.82.62 15.75L819 457h-1z" fill="#C5C5C8"/><path d="M344 434c2.13 3.74 1.96 5.79 1 10l3 1-1 5-2-1c-1.1-3.29-1.1-5.74-1.06-9.19l.02-3.29z" fill="#282514"/><path d="m420 336 1 2h2c1.85 5.14 2.21 7.96 0 13h-1l-1-5.25-.56-2.95C420 340 420 340 420 336" fill="#DBD9DC"/><path d="m533 305 2 2-13 6v-3z" fill="#DADBDB"/><path d="m251 300 3 2c-3 1-3 1-6.31.94A25 25 0 0 0 238 305c3.55-5.25 6.83-5.33 13-5" fill="#EDEFF1"/><path d="m815 575 3 1-1 9-3 1c-.12-7.62-.12-7.62 1-11" fill="#EFEFF3"/><path d="M843 241c1 3 1 3-.44 6.19L841 250h-3c.48-4.31 1.75-6.17 5-9" fill="#E7E8E8"/><path d="M920 189q2.13-.08 4.25-.12l2.39-.08c2.57.22 4.15.91 6.36 2.2h-4l-1 2-7-1z" fill="#E2E3E1"/><path d="m818 474 2 1c.4 8.04.4 8.04-3 12l-.06-5.94-.04-3.34c.1-2.72.1-2.72 1.1-3.72" fill="#F2F2F5"/><path d="M267 641c1 3 1 3 .06 5.06-3.05 2.87-5.98 3.14-10.06 3.94a94 94 0 0 1 10-9" fill="#DEE1DE"/><path d="M804 624c2 2 2 2 2.2 3.95L806 634l-4 1z" fill="#DEDEDE"/><path d="m279 461 13 1-1 2h-12z" fill="#120B03"/><path d="M419 337c2.14 3.2 2.23 4.02 2.12 7.69l-.05 2.45L421 349h-2l-.56-5.44-.32-3.06-.12-2.5z" fill="#0F0F0F"/><path d="M185 658q3.6 4.43 7 9l-2 2c-3.29-3.61-4.55-6.13-5-11" fill="#E3E4E3"/><path d="m311 518 1 4c-2.44 2.75-2.44 2.75-5 5l-2-2z" fill="#ECEDEE"/><path d="M340 436h3v10l-1-4h-4v-2h2z" fill="#F4E273"/><path d="M884 191h9l-1 2c-3.45 1.15-6.35 2-10 2z" fill="#ECEFF0"/><path d="M203 672h17v1l-16 2z" fill="#C0C1C3"/><path d="M210 620h8l1 3h-11l2-1z" fill="#F2F1F4"/><path d="m419 476 1 3c-4.75 4.88-4.75 4.88-7 6 1.53-3.44 3.6-6.12 6-9m-12 13 2 1-2 1z" fill="#020403"/><path d="m363 421-1 2c-2.5.63-2.5.63-5.56 1.12l-3.07.51-2.37.37 1-3c3.49-1.48 7.27-1.07 11-1" fill="#E8DA89"/><path d="m372 324 2 1-9 8-1-3z" fill="#DFDFE3"/><path d="M264 436h1q.55 2.6 1.06 5.19l.6 2.92c.34 2.93.08 5.05-.66 7.89l-2-1z" fill="#C2B267"/><path d="M756 268q2.3.14 4.56.44l2.51.31 1.93.25v3c-6.62-.75-6.62-.75-10-3z" fill="#D6D7D9"/><path d="m306 526 2 2-6 8-2-3z" fill="#E0E0E2"/><path d="M312 513h5c-1.19 3.38-2.28 5.65-5 8z" fill="#C7C7C8"/><path d="M297 438h1q.08 2.38.12 4.75l.08 2.67A13.3 13.3 0 0 1 296 452h-3l.93-1.67a30 30 0 0 0 2.19-7.58l.51-2.7z" fill="#CAB56F"/><path d="M269 426c.91 2.55 1.18 3.6.06 6.12L268 434v2h-3c.48-4.22 1.17-6.8 4-10" fill="#2D2710"/><path d="m801 299 2 1-2 3c.38 2.69.38 2.69 1 5l-2 1c-1.36-2.24-2.06-3.48-1.75-6.12C799 301 799 301 801 299" fill="#DFDFE0"/><path d="m646 498 3 1c.69 2.06.69 2.06 1 4l-6 1c.88-4.88.88-4.88 2-6" fill="#D8DADC"/><path d="M368 457v3c-7.43.29-7.43.29-11-2 3.73-.57 7.21-1 11-1" fill="#D5C266"/><path d="m265 440 1 2h2a133 133 0 0 0 .88 3.94l.49 2.21C270 450 270 450 272 451h-3c-4-6.5-4-6.5-4-11" fill="#231D0B"/><path d="m350 423 2 1c-1.23 3.69-2.94 4.72-6 7l-1-4z" fill="#C9C480"/><path d="M374 424v2l-5 2-3-3c4.62-2.12 4.62-2.12 8-1" fill="#ECC85E"/><path d="m286 419-2 4a29 29 0 0 1-8-3c3.21-1.61 6.44-1.06 10-1" fill="#EAD284"/><path d="M384 315c0 3.94-1.46 5.09-4 8l-2 2-3-1z" fill="#060708"/><path d="m795 235 2 1a29 29 0 0 1-5 9c-.37-5.42-.37-5.42 1.5-8.38z" fill="#E1E1E3"/><path d="m453 680-3 1v2l-11-1v-1c9.41-1.15 9.41-1.15 14-1" fill="#E2E2E3"/><path d="M228 618c-5.14 4.43-5.14 4.43-9 5 1-3 1-3 3.38-4.75C225 617 225 617 228 618" fill="#DBDADC"/><path d="m588 524 4 1c-3.41 2.86-6.91 4.35-11 6v-2c4.38-3 4.38-3 7-3z" fill="#262727"/><path d="M364 460h4v4h-6z" fill="#F1D64D"/><path d="m821 427 3 1q-.39 3.51-1 7l-2 1z" fill="#F2F3F1"/><path d="M373 419c2.94.75 2.94.75 6 2l1 4-9-4z" fill="#27200D"/><path d="m241 305 2 1-2 2c-.62 2.62-.62 2.62-1 5l-3-1c.31-2.38.31-2.38 1-5z" fill="#131512"/><path d="m814 196 2 1c-1.75 5.75-1.75 5.75-4 8l-2-3z" fill="#DFDFDF"/><path d="m881 192 2 1c-1.62 2-1.62 2-4 4-3.25.25-3.25.25-6 0 2.55-2 4.98-3.79 8-5" fill="#D8DADB"/><path d="M357 420h7l1 5-8-1v-1l5-1-5-1z" fill="#D3BF64"/><path d="m450 349 3 3c-4.75 3-4.75 3-7 3 1.15-2.47 2.05-4.05 4-6" fill="#EBEBED"/><path d="m791 241 1 4-6 5a29 29 0 0 1 5-9m-6 9 1 2-2-1z" fill="#F0F0F3"/><path d="M306 691c-3.01 3.01-5.82 2.6-10 3 5.62-4.31 5.62-4.31 10-3" fill="#AFB0B4"/><path d="m407 623 3 1-7 4-2-2z" fill="#1C1C1E"/><path d="m819 555 2 2-3 8h-1v-9z" fill="#F4F5F8"/><path d="M257 488c3 0 3 0 5.69 2.31C265 493 265 493 265 496q-2-1.42-4-2.88l-2.25-1.61L257 490z" fill="#1D1C1C"/><path d="M383 455c0 3.11-.54 4.35-2 7h-5z" fill="#32220C"/><path d="M342 457c3.38 1.19 5.65 2.28 8 5-2.49 1.25-3.41.78-6 0v-3h-2z" fill="#23160A"/><path d="M290 457v3h-9c4.5-3 4.5-3 9-3" fill="#F2D562"/><path d="M237 305h2l-.94 2.31q-1.1 2.82-2.06 5.69h-2c.75-5.75.75-5.75 3-8" fill="#E3E3E2"/><path d="M877 196v3c-3 1-3 1-7 1v-2z" fill="#EDEFF0"/><path d="m232 669-1 3c-2.91.81-4.46 1.22-7.31.06L222 671c6.62-2 6.62-2 10-2" fill="#D2D2D4"/><path d="M373 561c0 3 0 3-1 6l-5 1z" fill="#191919"/><path d="M261 697c2.88-.19 2.88-.19 6 0l2 3-8-1z" fill="#E5E5E8"/><path d="m401 629 2 1-6 5-2-2z" fill="#E2E1E5"/><path d="m380 549 3 1c-1.75 3.88-1.75 3.88-4 5l-2-2z" fill="#D1D3D4"/><path d="m643 501-10 2c2-3 2-3 3.88-3.81C639 499 639 499 643 501" fill="#222324"/><path d="M293 423c2.89.4 3.82.79 5.75 3.06L300 428h-4v-2h-2z" fill="#EAD17C"/><path d="M274 419c3.27.56 4.83 1.5 7 4l-7-1z" fill="#CEBD73"/><path d="m891 142 10 2v1h-10z" fill="#E0E0E1"/></svg>