<svg style="background:transparent" version="1.1" xmlns="http://www.w3.org/2000/svg" viewBox="0 0 1248 704"><path d="M1038 120a81 81 0 0 1 5.44 4.68c1.56 1.32 1.56 1.32 3.98 2.7 2.82 1.77 4.7 3.68 6.89 6.18l2.12 2.38C1058 138 1058 138 1058 140l1.75.56c2.73 1.75 3.75 3.81 5.25 6.64 1.39 2.49 3.2 4.59 5 6.8q1.57 2.46 3 5l1.16 1.93c4.95 8.49 7.78 17.32 10.09 26.82l.53 2.15c2.34 10.06.25 16.75-4.09 25.85-4.64 6.19-9.78 9.47-17.44 10.69-4.87-.66-9.17-2.71-13.25-5.44l-1-3-1.81-.31c-3.46-1.09-4.41-3.66-6.19-6.69q-1.02-2-2-4l-1.32-1.98c-2.82-5.08-4.55-10.62-6.46-16.1-1.97-5.42-4.22-9.76-7.87-14.24-1.35-1.68-1.35-1.68-3.23-4.8-4.1-5.57-9.86-9.08-16.12-11.88l-3.31-1.62c-11.03-4.12-23.41-3.02-34.31.93A81 81 0 0 0 950 168l-1.68 1.3a35 35 0 0 0-9.08 10.58c-1.24 2.12-1.24 2.12-3.06 4.6-3.27 4.86-5.18 10.44-7.37 15.83-6.68 16.07-13.69 30.25-24.81 43.69-1.94 2.41-3.85 4.78-5.62 7.31L897 253h-2l-.88 1.88C893 257 893 257 891 259h-3l-.75 1.82c-1.46 2.55-2.77 3.45-5.25 4.99a283 283 0 0 0-12.74 8.67A45 45 0 0 1 863 278c2.72 9.04 2.72 9.04 6 13 6.07 11.38 14.34 26.91 14 40l.96 3.18a50 50 0 0 1 1.6 11.38c.35 6.94.35 6.94.95 10.25.51 3.32.62 6.44.62 9.8l.01 3.72-.02 3.86.02 3.89-.01 3.71v3.39C887 387 887 387 886 390q-.06 2.57 0 5.12c.04 4.27-.18 8.36-.71 12.58-1.23 9.87-1.82 19.82-2.54 29.73-.33 4.53-.67 9.01-1.31 13.51-.67 4.81-.47 9.65-.38 14.5a77 77 0 0 1-.83 9.48 91 91 0 0 0-.35 10.83v2.37c.09 10.32.55 20.85 3.53 30.78 5.04 17.87 9.02 36.89 10.37 55.4.18 2.22.47 4.43.78 6.64.4 2.75.44 5.29.44 8.06l.49 2.27c.56 3 .63 5.76.62 8.81v3.63l-.01 3.9-.01 4.02-.02 10.53-.02 10.76L896 654l4.23 1.43 2.38.8q3.31 1.06 6.67 1.95c10.28 2.74 19.45 5.55 25.72 14.82-1.41 5.35-4.5 8.1-9 11-9.17 3.98-18.4 6.16-28.25 7.69l-3.95.63a338 338 0 0 1-52.43 3.8h-2.07c-15.99-.02-31.96-.6-47.94-1.27l-7.24-.3a4662 4662 0 0 1-56.74-2.6l-2.57-.14-10.2-.54c-49.37-2.59-98.66-4.2-148.09-2.36l-7.46.26c-38.39 1.32-76.97 3.85-115.06 8.83-44.15 5.72-87.67 7.21-132.16 6.92q-10.92-.06-21.82-.02-12 .03-24-.02h-10.06q-5.85.01-11.69-.06h-4.26c-10.69.07-10.69.07-13.94-2.11-3.43-3.99-5.16-8.29-4.96-13.53q.36-4.1.89-8.18l-3.38 1.75c-10.07 4.98-19.26 8.72-30.62 6.25l-3.81-.25c-5.07-.6-8.91-3.12-13.19-5.75l-2.81-1.44c-6.12-4.37-7.96-11.48-9.19-18.56-.38-8.19 3.64-14.62 8.69-20.69 6.51-6.97 13.83-10.4 23.31-11.31q2.47.13 4.94.31c11.2.16 20.07-10.73 27.63-17.96q2.74-2.56 5.62-4.97a178 178 0 0 0 22.93-24.07c2.14-2.62 4.49-4.92 6.88-7.31 3.82-4.14 7.12-8.15 10-13l5-5q2.01-2.99 4-6 2.04-2.71 4.12-5.38l2.08-2.64L286 543h2a93 93 0 0 0 4-9l-2.62-.75c-3.58-1.32-6.26-3.08-9.38-5.25l-2.06-1c-4.27-2.2-7.62-5.58-10.94-9l-2.38-2.25c-9.91-10.39-14.01-21.93-17.87-35.49-.75-2.26-.75-2.26-1.8-4.3a15 15 0 0 1-1.51-5.96 56 56 0 0 0-2.38-11c-1.88-6.51-2.7-13.3-3.62-20-.44-3-.44-3-.91-4.85-.62-2.49-1.04-4.99-1.47-7.53a56 56 0 0 0-2.06-8.56c-1.25-3.84-1.81-7.66-2.43-11.65-.61-3.68-1.37-7.32-2.13-10.97a118 118 0 0 1-2.23-16.07c-.21-2.37-.21-2.37-.73-4.93-.56-2.83-.5-5.54-.44-8.41-.04-2.03-.04-2.03-.73-5.34a26.7 26.7 0 0 1 5.81-19.25c3.71-3.84 7.57-5.29 12.88-5.44 9.96 2.2 20 6.2 28.99 10.97A50 50 0 0 0 280 350l1.94 1c8.76 4.25 14.47 1.96 23.06-1l2.27-.79c4.5-1.55 8.95-2.77 13.61-3.74 1.93-.43 3.84-.97 5.74-1.53A76 76 0 0 1 337 342l3-1q2.09-.26 4.19-.44l2.42-.28q3.13-.35 6.27-.66c6.89-1.78 13.21-9.53 16.8-15.32L371 322a262 262 0 0 1 5-5q3.3-3.9 6.51-7.87l1.55-1.88 1.41-1.73c1.71-1.7 3.35-2.51 5.53-3.52l2.25-1.75c3.33-1.51 5.33-1.12 8.77-.03 7.64 3.01 11.85 8.9 15.06 16.25.91 2.49 1.69 4.98 2.42 7.53a99 99 0 0 0 3.5 10c1.25 3.58 2.36 7.18 3.44 10.81q2.14 7.14 4.56 14.19l2 6c15.51 0 38.07-16.1 51-24l5.06-3.06 2.54-1.54a91 91 0 0 1 6.4-3.4l2.88-1.44q3.01-1.51 6.06-3c2.84-1.45 5.58-2.99 8.34-4.59 2.52-1.42 5.13-2.68 7.72-3.97l3.5-2c3.11-1.8 6.27-3.42 9.5-5 2.9-1.42 5.73-2.84 8.5-4.5 2.5-1.5 2.5-1.5 5.56-3 2.94-1.5 2.94-1.5 5.06-3.12 2.03-1.49 3.47-1.79 5.88-2.38q2.52-1.46 5-3l6-3 4.5-2.5c3.46-1.93 6.96-3.73 10.5-5.5q3.97-2.14 7.93-4.32c30.04-16.43 30.04-16.43 43.07-20.68a235 235 0 0 0 7.91-4.01A67 67 0 0 1 659 252q2.1-.9 4.19-1.88c5.45-2.5 11.1-4.28 16.81-6.12l4.62-1.56c4.77-1.59 9.57-3.02 14.38-4.44l3.5-1.06c3.63-.98 7.26-1.73 10.96-2.44q4.54-.92 9.04-2.04c3-.55 6-.88 9.03-1.2l4.89-.54c10.67-1.25 21.14-1.93 31.89-1.47l2.84.12c5.11.28 9.91.93 14.88 2.18 2.58.59 5.18.81 7.81 1.11 3.55.56 6.97 1.6 10.42 2.58 3.21.89 6.43 1.6 9.69 2.28 2.05.48 2.05.48 5.67 1.79 6.46 1.32 11.97-3.11 17.38-6.31l2.56-1.5q4.29-2.64 8.44-5.5l1.84-1.24A62.5 62.5 0 0 0 868 205l3-4a106 106 0 0 0 8.8-16.24c1.68-3.85 3.47-7.65 5.26-11.45l1.04-2.2c5.45-11.56 11.23-21.82 20.17-31.05 1.93-2.01 3.58-3.76 4.8-6.28 1.23-2.36 2.55-2.69 4.93-3.78q2.14-1.78 4.19-3.69c12.43-11.22 12.43-11.22 19.81-13.31l3-1.88c4.53-2.71 9.54-3.84 14.6-5.19q3.26-.89 6.46-1.98c25.51-8.2 52.94 1.41 73.94 16.05" fill="#111311"/><path d="M1038 120a81 81 0 0 1 5.44 4.68c1.56 1.32 1.56 1.32 3.98 2.7 2.82 1.77 4.7 3.68 6.89 6.18l2.12 2.38C1058 138 1058 138 1058 140l1.75.56c2.73 1.75 3.75 3.81 5.25 6.64 1.39 2.49 3.2 4.59 5 6.8q1.57 2.46 3 5l1.16 1.93c4.95 8.49 7.78 17.32 10.09 26.82l.53 2.15c2.34 10.06.25 16.75-4.09 25.85-4.64 6.19-9.78 9.47-17.44 10.69-4.87-.66-9.17-2.71-13.25-5.44l-1-3-1.81-.31c-3.46-1.09-4.41-3.66-6.19-6.69q-1.02-2-2-4l-1.32-1.98c-2.82-5.08-4.55-10.62-6.46-16.1-1.97-5.42-4.22-9.76-7.87-14.24-1.35-1.68-1.35-1.68-3.23-4.8-4.1-5.57-9.86-9.08-16.12-11.88l-3.31-1.62c-11.03-4.12-23.41-3.02-34.31.93A81 81 0 0 0 950 168l-1.68 1.3a35 35 0 0 0-9.08 10.58c-1.24 2.12-1.24 2.12-3.06 4.6-3.27 4.86-5.18 10.44-7.37 15.83-6.68 16.07-13.69 30.25-24.81 43.69-1.94 2.41-3.85 4.78-5.62 7.31L897 253h-2l-.88 1.88C893 257 893 257 891 259h-3l-.75 1.82c-1.46 2.55-2.77 3.45-5.25 4.99a283 283 0 0 0-12.74 8.67A45 45 0 0 1 863 278c2.72 9.04 2.72 9.04 6 13 6.07 11.38 14.34 26.91 14 40l.96 3.18a50 50 0 0 1 1.6 11.38c.35 6.94.35 6.94.95 10.25.51 3.32.62 6.44.62 9.8l.01 3.72-.02 3.86.02 3.89-.01 3.71v3.39C887 387 887 387 886 390q-.06 2.57 0 5.12c.04 4.27-.18 8.36-.71 12.58-1.23 9.87-1.82 19.82-2.54 29.73-.33 4.53-.67 9.01-1.31 13.51-.67 4.81-.47 9.65-.38 14.5a77 77 0 0 1-.83 9.48 91 91 0 0 0-.35 10.83v2.37c.09 10.32.55 20.85 3.53 30.78 5.04 17.87 9.02 36.89 10.37 55.4.18 2.22.47 4.43.78 6.64.4 2.75.44 5.29.44 8.06l.49 2.27c.56 3 .63 5.76.62 8.81v3.63l-.01 3.9-.01 4.02-.02 10.53-.02 10.76L896 654l4.23 1.43 2.38.8q3.31 1.06 6.67 1.95c10.28 2.74 19.45 5.55 25.72 14.82-1.41 5.35-4.5 8.1-9 11-9.17 3.98-18.4 6.16-28.25 7.69l-3.95.63a338 338 0 0 1-52.43 3.8h-2.07c-15.99-.02-31.96-.6-47.94-1.27l-7.24-.3a4662 4662 0 0 1-56.74-2.6l-2.57-.14-10.2-.54c-49.37-2.59-98.66-4.2-148.09-2.36l-7.46.26a1523 1523 0 0 0-70.15 4.26 819 819 0 0 0-43.39 4.4 3191 3191 0 0 1-21.51 2.76c-44.11 5.5-88.64 4.16-133.01 3.41a80 80 0 0 1 8.29-5.57l2.56-1.5 2.77-1.62q12.6-7.38 25-15.06a4226 4226 0 0 1 27.26-16.69l3.5-2.13 16.03-9.7c19.42-11.72 38.69-23.66 57.51-36.33l13.08-8.78 2.68-1.8q3.64-2.43 7.32-4.82l1.83-1.22c4.82-3.02 9.68-4.01 15.17-5.09 61.82-13.24 120.21-44.88 175.2-75.15q7.88-4.32 15.8-8.6l3.06-1.67c4.61-2.5 9.23-4.97 13.94-7.27a86 86 0 0 1 4.69 12.75c8.41 27.84 22.96 51.25 43.67 71.56l1.68 1.65q3.43 3.38 6.89 6.73c9.66 9.34 19.35 19.37 20.28 33.51.04 2.95.04 5.85-.21 8.8-1.72 1.72-4.21 1.46-6.56 1.75-8.01 1.31-12.89 3.96-17.88 10.37-4.04 5.67-4.22 11.09-3.56 17.88a14 14 0 0 0 5.77 8.24c14.58 7.87 35.53 7.8 51.23 3.76 8.17-2.7 13.41-7.13 17.8-14.53 7.36-15.21 7.61-33.27 7.58-49.85v-2.3c-.02-11.56-.88-22.24-4.38-33.32l-1.13-3.95L807 571c10.73 6.47 22.48 15.1 29 26l1.09 1.7c7.82 13.62 7.45 29.15 6.91 44.3l-2 .14c-8.02.67-15.29 2.43-20.88 8.67L819 655l-1.18 1.77c-3.28 5.56-3.72 10.9-2.82 17.23 1.29 4.35 3.15 7.2 6.44 10.31 9.35 4.43 18.49 4.98 28.68 5.07l3.04.04c11.29-.07 22.73-2.64 31.15-10.61 7.52-12.52 7.84-25.51 7.86-39.73l.01-3.68.01-7.69.03-11.52c.05-19.83-.74-39.55-4.1-59.13l-.51-3.13a350 350 0 0 0-6.72-30.14l-.54-2.12-1.52-5.69c-2.35-10.18-2.11-20.84-2.14-31.23l-.01-2.38a629 629 0 0 1 4.87-78.83c.63-5.56.65-11.12.69-16.71l.02-3.51.04-7.34q.01-3.7.06-7.39c.36-30.31-5.15-57.1-20.59-83.46-2-3.54-2.81-5.16-1.77-9.13 3.06-2.25 3.06-2.25 5.27-3.48A134 134 0 0 0 895 250l2.32-2.25c14.3-14.76 22.72-34.14 30.39-52.9 7.31-17.79 20.38-33.24 38.23-41.15 13.08-4.75 27.87-4.43 40.46 1.41 5.29 2.83 9.58 6.48 13.85 10.64l1.46 1.41c7.93 8.06 11.89 18.25 15.86 28.63 4.22 10.75 8.74 19.86 19.43 25.21 6.21.53 11.76.74 17-3 6.97-7.13 7.46-14.03 7.43-23.48-.6-24.61-18.14-47.19-34.76-63.86-19.16-18.1-42.66-25.24-68.46-24.94-12.46.38-24 3.86-35.21 9.28l-3.13 1.49c-13.35 6.74-24.44 15.95-33.87 27.51l-1.78 2.18c-8.58 11.39-14.51 25.08-20.51 37.95-4.22 9.03-8.3 17.17-14.71 24.87l-1.99 2.62C856.7 225.09 841.09 237.17 825 243c-5.58.53-10.12-.69-15.38-2.31A201 201 0 0 0 783 235l-3.23-.52c-3.96-.5-7.86-.66-11.84-.68l-2.3-.02-7.32-.03h-2.52c-12.55.01-24.48.73-36.79 3.25l-2.12.43a275 275 0 0 0-33.13 9.01l-2.33.78c-42.51 14.34-82.97 35.69-122.18 57.29A919 919 0 0 1 537.5 316q-13.64 7.02-27.08 14.39A3190 3190 0 0 1 474 350l-3.2 1.71c-9.9 5.27-19.81 10.45-30.05 15.04l-2.26 1.02c-2.99 1.3-5.19 2.23-8.49 2.23l-1-3.86c-13.82-52.65-13.82-52.65-25-62.14a17.4 17.4 0 0 0-9-1c-3.12 1.53-5.48 3.62-8 6l-1.74 1.57c-4.35 4.13-8.03 8.78-11.78 13.44A319 319 0 0 1 360 339l-1.36 1.6c-2.09 1.78-3.52 1.97-6.23 2.32l-2.84.41-3.07.42a265 265 0 0 0-27.75 5.75l-3.31.86a212 212 0 0 0-15.8 4.86c-7.79 2.62-12.98 2.1-20.45-1.22l-2.2-.94q-3.5-1.5-6.99-3.06l-2.44-1.08c-6.53-2.91-6.53-2.91-9.49-4.25-8.14-3.68-15.08-6.07-24.01-3.98-2.7 1.72-3.16 3.29-4.06 6.31l-1 2c-2.14 22.86 2.63 46.01 7.79 68.14a293 293 0 0 1 4.15 21.8c9.94 63.47 9.94 63.47 32.7 81.35A75 75 0 0 0 297 532c-1.56 5.04-4.61 8.48-7.94 12.44l-3.54 4.29-1.8 2.17c-2.53 3.09-4.97 6.25-7.41 9.41a199 199 0 0 1-12.63 14.7c-2.31 2.5-4.39 5.15-6.5 7.82-5.81 7.13-12.26 13.58-18.76 20.07q-3.14 3.14-6.25 6.3c-6.35 6.37-12.75 12.54-19.81 18.11l-1.68 1.33c-6.27 4.79-11.1 6.7-18.93 6.74-7.94.26-14.18 1.59-20.32 7-1.31 1.43-1.31 1.43-3.43 4.62l-1.18 1.67c-3.88 6.29-3.61 13.17-2.82 20.33 1.51 6.3 5.17 9.36 10.49 12.77 9.53 4.66 22.87 5.45 33.08 2.48 6.59-2.52 12.92-5.81 18.43-10.25l2 1-1.5 3.25c-2.15 5.77-3.09 12.93-.67 18.75 1.04 1.56 1.04 1.56 3.17 4l2 3c-3-.32-3.98-.98-6.12-3.19-4.47-6.69-3.89-12.12-2.88-19.81l-3.38 1.75c-10.07 4.98-19.26 8.72-30.62 6.25l-3.81-.25c-5.07-.6-8.91-3.12-13.19-5.75l-2.81-1.44c-6.12-4.37-7.96-11.48-9.19-18.56-.38-8.19 3.64-14.62 8.69-20.69 6.51-6.97 13.83-10.4 23.31-11.31q2.47.13 4.94.31c11.2.16 20.07-10.73 27.63-17.96q2.74-2.56 5.62-4.97a178 178 0 0 0 22.93-24.07c2.14-2.62 4.49-4.92 6.88-7.31 3.82-4.14 7.12-8.15 10-13l5-5q2.01-2.99 4-6 2.04-2.71 4.12-5.38l2.08-2.64L286 543h2a93 93 0 0 0 4-9l-2.62-.75c-3.58-1.32-6.26-3.08-9.38-5.25l-2.06-1c-4.27-2.2-7.62-5.58-10.94-9l-2.38-2.25c-9.91-10.39-14.01-21.93-17.87-35.49-.75-2.26-.75-2.26-1.8-4.3a15 15 0 0 1-1.51-5.96 56 56 0 0 0-2.38-11c-1.88-6.51-2.7-13.3-3.62-20-.44-3-.44-3-.91-4.85-.62-2.49-1.04-4.99-1.47-7.53a56 56 0 0 0-2.06-8.56c-1.25-3.84-1.81-7.66-2.43-11.65-.61-3.68-1.37-7.32-2.13-10.97a118 118 0 0 1-2.23-16.07c-.21-2.37-.21-2.37-.73-4.93-.56-2.83-.5-5.54-.44-8.41-.04-2.03-.04-2.03-.73-5.34a26.7 26.7 0 0 1 5.81-19.25c3.71-3.84 7.57-5.29 12.88-5.44 9.96 2.2 20 6.2 28.99 10.97A50 50 0 0 0 280 350l1.94 1c8.76 4.25 14.47 1.96 23.06-1l2.27-.79c4.5-1.55 8.95-2.77 13.61-3.74 1.93-.43 3.84-.97 5.74-1.53A76 76 0 0 1 337 342l3-1q2.09-.26 4.19-.44l2.42-.28q3.13-.35 6.27-.66c6.89-1.78 13.21-9.53 16.8-15.32L371 322a262 262 0 0 1 5-5q3.3-3.9 6.51-7.87l1.55-1.88 1.41-1.73c1.71-1.7 3.35-2.51 5.53-3.52l2.25-1.75c3.33-1.51 5.33-1.12 8.77-.03 7.64 3.01 11.85 8.9 15.06 16.25.91 2.49 1.69 4.98 2.42 7.53a99 99 0 0 0 3.5 10c1.25 3.58 2.36 7.18 3.44 10.81q2.14 7.14 4.56 14.19l2 6c15.51 0 38.07-16.1 51-24l5.06-3.06 2.54-1.54a91 91 0 0 1 6.4-3.4l2.88-1.44q3.01-1.51 6.06-3c2.84-1.45 5.58-2.99 8.34-4.59 2.52-1.42 5.13-2.68 7.72-3.97l3.5-2c3.11-1.8 6.27-3.42 9.5-5 2.9-1.42 5.73-2.84 8.5-4.5 2.5-1.5 2.5-1.5 5.56-3 2.94-1.5 2.94-1.5 5.06-3.12 2.03-1.49 3.47-1.79 5.88-2.38q2.52-1.46 5-3l6-3 4.5-2.5c3.46-1.93 6.96-3.73 10.5-5.5q3.97-2.14 7.93-4.32c30.04-16.43 30.04-16.43 43.07-20.68a235 235 0 0 0 7.91-4.01A67 67 0 0 1 659 252q2.1-.9 4.19-1.88c5.45-2.5 11.1-4.28 16.81-6.12l4.62-1.56c4.77-1.59 9.57-3.02 14.38-4.44l3.5-1.06c3.63-.98 7.26-1.73 10.96-2.44q4.54-.92 9.04-2.04c3-.55 6-.88 9.03-1.2l4.89-.54c10.67-1.25 21.14-1.93 31.89-1.47l2.84.12c5.11.28 9.91.93 14.88 2.18 2.58.59 5.18.81 7.81 1.11 3.55.56 6.97 1.6 10.42 2.58 3.21.89 6.43 1.6 9.69 2.28 2.05.48 2.05.48 5.67 1.79 6.46 1.32 11.97-3.11 17.38-6.31l2.56-1.5q4.29-2.64 8.44-5.5l1.84-1.24A62.5 62.5 0 0 0 868 205l3-4a106 106 0 0 0 8.8-16.24c1.68-3.85 3.47-7.65 5.26-11.45l1.04-2.2c5.45-11.56 11.23-21.82 20.17-31.05 1.93-2.01 3.58-3.76 4.8-6.28 1.23-2.36 2.55-2.69 4.93-3.78q2.14-1.78 4.19-3.69c12.43-11.22 12.43-11.22 19.81-13.31l3-1.88c4.53-2.71 9.54-3.84 14.6-5.19q3.26-.89 6.46-1.98c25.51-8.2 52.94 1.41 73.94 16.05" fill="#B9BBB9"/><path d="M681 501c2 1 2 1 3.01 3.89l1.11 3.92c8.92 29.79 23 54.7 45.24 76.5l1.68 1.65q3.43 3.38 6.89 6.73c9.66 9.34 19.35 19.37 20.28 33.51.04 2.95.04 5.85-.21 8.8-2.16 2.16-6.7 1.77-9.63 2.11-3.23.85-4.37 1.56-6.92 3.51-5.68 3.73-11.55 2.46-18.01 1.76l-7.13-.67-3.74-.34c-18.03-1.53-36.16-1.54-54.25-1.57l-3.76-.01-17.79-.03q-8.98 0-17.96-.04c-48.27-.21-96.47 1.03-144.5 6.16l-7.64.78c-28.05 2.9-56 6.4-83.85 10.89l-8.62 1.36L362 662c3.62-4.16 8.04-6.57 12.75-9.31 22.57-13.33 44.56-27.55 66.37-42.07l1.79-1.18 3.44-2.29 4.86-3.24a91 91 0 0 0 6.3-4.76c4.73-3.4 10.58-4.05 16.18-5.21 53.69-12.13 105.25-37.01 153.2-63.49a854 854 0 0 1 22.39-11.85 540 540 0 0 0 24.54-13.68l2.76-1.6 2.45-1.43z" fill="#ECEEEC"/><path d="M1038 120a81 81 0 0 1 5.44 4.68c1.56 1.32 1.56 1.32 3.98 2.7 2.82 1.77 4.7 3.68 6.89 6.18l2.12 2.38C1058 138 1058 138 1058 140l1.75.56c2.73 1.75 3.75 3.81 5.25 6.64 1.39 2.49 3.2 4.59 5 6.8q1.57 2.46 3 5l1.16 1.93c4.95 8.49 7.78 17.32 10.09 26.82l.53 2.15c2.34 10.06.25 16.75-4.09 25.85-4.64 6.19-9.78 9.47-17.44 10.69-4.87-.66-9.17-2.71-13.25-5.44l-1-3-1.81-.31c-3.46-1.09-4.41-3.66-6.19-6.69q-1.02-2-2-4l-1.32-1.98c-2.82-5.08-4.55-10.62-6.46-16.1-1.97-5.42-4.22-9.76-7.87-14.24-1.35-1.68-1.35-1.68-3.23-4.8-4.1-5.57-9.86-9.08-16.12-11.88l-3.31-1.62c-11.03-4.12-23.41-3.02-34.31.93A81 81 0 0 0 950 168l-1.68 1.3a35 35 0 0 0-9.08 10.58c-1.24 2.12-1.24 2.12-3.06 4.6-3.27 4.86-5.18 10.44-7.37 15.83-6.68 16.07-13.69 30.25-24.81 43.69-1.94 2.41-3.85 4.78-5.62 7.31L897 253h-2l-.88 1.88C893 257 893 257 891 259h-3l-.75 1.82c-1.46 2.55-2.77 3.45-5.25 4.99a283 283 0 0 0-12.74 8.67A45 45 0 0 1 863 278c2.72 9.04 2.72 9.04 6 13 6.07 11.38 14.34 26.91 14 40l.96 3.18a50 50 0 0 1 1.6 11.38c.35 6.94.35 6.94.95 10.25.51 3.32.62 6.44.62 9.8l.01 3.72-.02 3.86.02 3.89-.01 3.71v3.39C887 387 887 387 886 390q-.06 2.57 0 5.12c.04 4.27-.18 8.36-.71 12.58-1.23 9.87-1.82 19.82-2.54 29.73-.33 4.53-.67 9.01-1.31 13.51-.67 4.81-.47 9.65-.38 14.5a77 77 0 0 1-.83 9.48 91 91 0 0 0-.35 10.83v2.37c.09 10.32.55 20.85 3.53 30.78 5.04 17.87 9.02 36.89 10.37 55.4.18 2.22.47 4.43.78 6.64.4 2.75.44 5.29.44 8.06l.49 2.27c.56 3 .63 5.76.62 8.81v3.63l-.01 3.9-.01 4.02-.02 10.53-.02 10.76L896 654l4.23 1.43 2.38.8q3.31 1.06 6.67 1.95c10.28 2.74 19.45 5.55 25.72 14.82-1.41 5.35-4.5 8.1-9 11-9.17 3.98-18.4 6.16-28.25 7.69l-3.95.63a338 338 0 0 1-52.43 3.8h-2.07c-15.99-.02-31.96-.6-47.94-1.27l-7.24-.3a4662 4662 0 0 1-56.74-2.6l-2.57-.14-10.2-.54c-49.37-2.59-98.66-4.2-148.09-2.36l-7.46.26c-39.6 1.36-79.15 4.54-118.52 8.94l-2.47.27a3923 3923 0 0 0-32.93 3.8l-6.05.73A191 191 0 0 1 373 704c3.52-2.34 5.52-2.46 9.71-2.86l2.09-.21 7.01-.68 10.45-1.05 2.83-.28q10.81-1.11 21.62-2.37c22.67-2.63 45.34-5.04 68.1-6.8l2.96-.23q11.12-.86 22.23-1.52l2.07-.13c28.37-1.77 56.68-2.19 85.1-2.13q8.58.01 17.16-.01c36.49-.06 72.95.6 109.33 3.58 13.48 1.08 27.01 1.37 40.53 1.75l12.05.36 7.4.21c9.17.28 9.17.28 13.52.89 4.77.6 9.45.66 14.25.68l3.01.02q4.82.03 9.64.03h3.33c76.4-.04 76.4-.04 93.61-16.25.81-2.75.81-2.75 1-5-8.27-6.99-18.17-9.42-28.44-12.16l-3.08-.84-7.48-2-.02-2.23q-.12-10.58-.27-21.17l-.13-10.87c-.24-21.98-.73-43.94-4.46-65.67l-.51-3.13a350 350 0 0 0-6.72-30.14l-.54-2.12-1.52-5.69c-2.35-10.18-2.11-20.84-2.14-31.23l-.01-2.38a629 629 0 0 1 4.87-78.83c.63-5.56.65-11.12.69-16.71l.02-3.51.04-7.34q.01-3.7.06-7.39c.36-30.31-5.15-57.1-20.59-83.46-2-3.54-2.81-5.16-1.77-9.13 3.06-2.25 3.06-2.25 5.27-3.48A134 134 0 0 0 895 250l2.32-2.25c14.3-14.76 22.72-34.14 30.39-52.9 7.31-17.79 20.38-33.24 38.23-41.15 13.08-4.75 27.87-4.43 40.46 1.41 5.29 2.83 9.58 6.48 13.85 10.64l1.46 1.41c7.93 8.06 11.89 18.25 15.86 28.63 4.22 10.75 8.74 19.86 19.43 25.21 6.21.53 11.76.74 17-3 6.97-7.13 7.46-14.03 7.43-23.48-.6-24.61-18.14-47.19-34.76-63.86-19.16-18.1-42.66-25.24-68.46-24.94-12.46.38-24 3.86-35.21 9.28l-3.13 1.49c-13.35 6.74-24.44 15.95-33.87 27.51l-1.78 2.18c-8.58 11.39-14.51 25.08-20.51 37.95-4.22 9.03-8.3 17.17-14.71 24.87l-1.99 2.62C856.7 225.09 841.09 237.17 825 243c-5.58.53-10.12-.69-15.38-2.31A201 201 0 0 0 783 235l-3.23-.52c-3.96-.5-7.86-.66-11.84-.68l-2.3-.02-7.32-.03h-2.52c-12.55.01-24.48.73-36.79 3.25l-2.12.43a275 275 0 0 0-33.13 9.01l-2.33.78c-42.51 14.34-82.97 35.69-122.18 57.29A919 919 0 0 1 537.5 316q-13.64 7.02-27.08 14.39A3190 3190 0 0 1 474 350l-3.2 1.71c-9.9 5.27-19.81 10.45-30.05 15.04l-2.26 1.02c-2.99 1.3-5.19 2.23-8.49 2.23l-1-3.86c-13.82-52.65-13.82-52.65-25-62.14a17.4 17.4 0 0 0-9-1c-3.12 1.53-5.48 3.62-8 6l-1.74 1.57c-4.35 4.13-8.03 8.78-11.78 13.44A319 319 0 0 1 360 339l-1.36 1.6c-2.09 1.78-3.52 1.97-6.23 2.32l-2.84.41-3.07.42a265 265 0 0 0-27.75 5.75l-3.31.86a212 212 0 0 0-15.8 4.86c-7.79 2.62-12.98 2.1-20.45-1.22l-2.2-.94q-3.5-1.5-6.99-3.06l-2.44-1.08c-6.53-2.91-6.53-2.91-9.49-4.25-8.14-3.68-15.08-6.07-24.01-3.98-2.7 1.72-3.16 3.29-4.06 6.31l-1 2c-2.14 22.86 2.63 46.01 7.79 68.14a293 293 0 0 1 4.15 21.8c9.94 63.47 9.94 63.47 32.7 81.35A75 75 0 0 0 297 532c-1.56 5.04-4.61 8.48-7.94 12.44l-3.54 4.29-1.8 2.17c-2.53 3.09-4.97 6.25-7.41 9.41a199 199 0 0 1-12.63 14.7c-2.31 2.5-4.39 5.15-6.5 7.82-5.81 7.13-12.26 13.58-18.76 20.07q-3.14 3.14-6.25 6.3c-6.35 6.37-12.75 12.54-19.81 18.11l-1.68 1.33c-6.27 4.79-11.1 6.7-18.93 6.74-7.94.26-14.18 1.59-20.32 7-1.31 1.43-1.31 1.43-3.43 4.62l-1.18 1.67c-3.88 6.29-3.61 13.17-2.82 20.33 1.51 6.3 5.17 9.36 10.49 12.77 9.53 4.66 22.87 5.45 33.08 2.48 6.59-2.52 12.92-5.81 18.43-10.25l2 1-1.5 3.25c-2.15 5.77-3.09 12.93-.67 18.75 1.04 1.56 1.04 1.56 3.17 4l2 3c-3-.32-3.98-.98-6.12-3.19-4.47-6.69-3.89-12.12-2.88-19.81l-3.38 1.75c-10.07 4.98-19.26 8.72-30.62 6.25l-3.81-.25c-5.07-.6-8.91-3.12-13.19-5.75l-2.81-1.44c-6.12-4.37-7.96-11.48-9.19-18.56-.38-8.19 3.64-14.62 8.69-20.69 6.51-6.97 13.83-10.4 23.31-11.31q2.47.13 4.94.31c11.2.16 20.07-10.73 27.63-17.96q2.74-2.56 5.62-4.97a178 178 0 0 0 22.93-24.07c2.14-2.62 4.49-4.92 6.88-7.31 3.82-4.14 7.12-8.15 10-13l5-5q2.01-2.99 4-6 2.04-2.71 4.12-5.38l2.08-2.64L286 543h2a93 93 0 0 0 4-9l-2.62-.75c-3.58-1.32-6.26-3.08-9.38-5.25l-2.06-1c-4.27-2.2-7.62-5.58-10.94-9l-2.38-2.25c-9.91-10.39-14.01-21.93-17.87-35.49-.75-2.26-.75-2.26-1.8-4.3a15 15 0 0 1-1.51-5.96 56 56 0 0 0-2.38-11c-1.88-6.51-2.7-13.3-3.62-20-.44-3-.44-3-.91-4.85-.62-2.49-1.04-4.99-1.47-7.53a56 56 0 0 0-2.06-8.56c-1.25-3.84-1.81-7.66-2.43-11.65-.61-3.68-1.37-7.32-2.13-10.97a118 118 0 0 1-2.23-16.07c-.21-2.37-.21-2.37-.73-4.93-.56-2.83-.5-5.54-.44-8.41-.04-2.03-.04-2.03-.73-5.34a26.7 26.7 0 0 1 5.81-19.25c3.71-3.84 7.57-5.29 12.88-5.44 9.96 2.2 20 6.2 28.99 10.97A50 50 0 0 0 280 350l1.94 1c8.76 4.25 14.47 1.96 23.06-1l2.27-.79c4.5-1.55 8.95-2.77 13.61-3.74 1.93-.43 3.84-.97 5.74-1.53A76 76 0 0 1 337 342l3-1q2.09-.26 4.19-.44l2.42-.28q3.13-.35 6.27-.66c6.89-1.78 13.21-9.53 16.8-15.32L371 322a262 262 0 0 1 5-5q3.3-3.9 6.51-7.87l1.55-1.88 1.41-1.73c1.71-1.7 3.35-2.51 5.53-3.52l2.25-1.75c3.33-1.51 5.33-1.12 8.77-.03 7.64 3.01 11.85 8.9 15.06 16.25.91 2.49 1.69 4.98 2.42 7.53a99 99 0 0 0 3.5 10c1.25 3.58 2.36 7.18 3.44 10.81q2.14 7.14 4.56 14.19l2 6c15.51 0 38.07-16.1 51-24l5.06-3.06 2.54-1.54a91 91 0 0 1 6.4-3.4l2.88-1.44q3.01-1.51 6.06-3c2.84-1.45 5.58-2.99 8.34-4.59 2.52-1.42 5.13-2.68 7.72-3.97l3.5-2c3.11-1.8 6.27-3.42 9.5-5 2.9-1.42 5.73-2.84 8.5-4.5 2.5-1.5 2.5-1.5 5.56-3 2.94-1.5 2.94-1.5 5.06-3.12 2.03-1.49 3.47-1.79 5.88-2.38q2.52-1.46 5-3l6-3 4.5-2.5c3.46-1.93 6.96-3.73 10.5-5.5q3.97-2.14 7.93-4.32c30.04-16.43 30.04-16.43 43.07-20.68a235 235 0 0 0 7.91-4.01A67 67 0 0 1 659 252q2.1-.9 4.19-1.88c5.45-2.5 11.1-4.28 16.81-6.12l4.62-1.56c4.77-1.59 9.57-3.02 14.38-4.44l3.5-1.06c3.63-.98 7.26-1.73 10.96-2.44q4.54-.92 9.04-2.04c3-.55 6-.88 9.03-1.2l4.89-.54c10.67-1.25 21.14-1.93 31.89-1.47l2.84.12c5.11.28 9.91.93 14.88 2.18 2.58.59 5.18.81 7.81 1.11 3.55.56 6.97 1.6 10.42 2.58 3.21.89 6.43 1.6 9.69 2.28 2.05.48 2.05.48 5.67 1.79 6.46 1.32 11.97-3.11 17.38-6.31l2.56-1.5q4.29-2.64 8.44-5.5l1.84-1.24A62.5 62.5 0 0 0 868 205l3-4a106 106 0 0 0 8.8-16.24c1.68-3.85 3.47-7.65 5.26-11.45l1.04-2.2c5.45-11.56 11.23-21.82 20.17-31.05 1.93-2.01 3.58-3.76 4.8-6.28 1.23-2.36 2.55-2.69 4.93-3.78q2.14-1.78 4.19-3.69c12.43-11.22 12.43-11.22 19.81-13.31l3-1.88c4.53-2.71 9.54-3.84 14.6-5.19q3.26-.89 6.46-1.98c25.51-8.2 52.94 1.41 73.94 16.05" fill="#E7E8E8"/><path d="M257.14 348.52q7 3.61 13.86 7.48v2l2.13.68c3.57 1.63 5.94 3.72 8.87 6.32-.28 4.31-1.84 6.2-5.05 9l-1.63 1.37-3.3 2.91-1.6 1.41c-4.56 4.17-8.18 9.05-11.42 14.31l-1.33 2.08c-5.54 9.3-8.46 19.65-11.67 29.92h-2c-5.17-11.7-8.1-23.72-9.6-36.37C234 387 234 387 233 386a88 88 0 0 1-.56-4.57l-.25-2.5-.2-1.93h-2q-.48 1.49-1 3c-1.01-6.7-1.1-13.23-1.05-20v-3.22L228 349l2 4 3-1q.54-2 1-4c6.08-7.46 15.97-2.95 23.14.52" fill="#272825"/><path d="M406 305c11.27 10.97 15.45 30.64 19.94 45.31l.68 2.16c1.8 6.09 1.8 6.09.38 9.53l-1-2 1 17h-2v-3l-3-1-1.25-1.81c-1.99-2.49-4.16-3.71-6.95-5.2-1.8-.99-1.8-.99-4.42-2.87-12.92-8.13-26.46-11.08-41.38-13.12-.33-4.81.46-7.54 2.88-11.69l1.61-2.82q1.7-2.78 3.51-5.49h2l.31-1.67c2.41-8.15 8.71-15.63 15.69-20.33h2v-4c6.62-1.51 6.62-1.51 10 1" fill="#252623"/><path d="M807 571c10.73 6.47 22.48 15.1 29 26l1.09 1.7c7.82 13.62 7.45 29.15 6.91 44.3l-2 .13c-4.95.4-8.97.84-13.38 3.31l-2.39 1.31q-2.15 1.2-4.25 2.46c-3.53 1.41-6.45-.15-9.98-1.21-.07-4.35-.07-8.43.48-12.76.86-7.36.81-14.78.83-22.18l.01-2.36c.02-11.71-.78-22.47-4.32-33.7l-1.13-3.95z" fill="#EBEDEC"/><path d="M251.88 338.31a156 156 0 0 0 10.38 4.25 84 84 0 0 1 9.86 4.53c2.55 1.23 5.19 2.05 7.88 2.91q2.02.97 4 2l2.63.93C289 354 289 354 291 357c-6.12-.5-10.8-2.5-16.31-5.13a472 472 0 0 0-20.37-8.94q-1.06-.43-2.14-.9a29 29 0 0 0-18.12-1.34c-2.7 1.71-3.16 3.3-4.06 6.31l-1 2c-2.13 22.85 2.63 46 7.78 68.14a288 288 0 0 1 4.16 21.8c9.94 63.46 9.94 63.46 32.7 81.35A74 74 0 0 0 297 532c-1.56 5.03-4.6 8.47-7.94 12.43l-3.55 4.3-1.78 2.16c-2.54 3.1-4.98 6.26-7.42 9.42a199 199 0 0 1-12.63 14.7c-2.31 2.5-4.4 5.15-6.5 7.82-5.8 7.13-12.25 13.58-18.77 20.06l-6.25 6.3c-6.34 6.38-12.75 12.54-19.8 18.12l-1.69 1.33c-6.26 4.8-11.08 6.7-18.91 6.73-7.95.27-14.19 1.6-20.33 7.01-1.3 1.43-1.3 1.43-3.44 4.62l-1.18 1.67c-3.87 6.3-3.6 13.17-2.81 20.33 1.5 6.3 5.18 9.35 10.49 12.77 9.53 4.66 22.88 5.45 33.07 2.48 6.6-2.53 12.94-5.8 18.44-10.25l2 1q-.75 1.6-1.5 3.25c-2.15 5.77-3.1 12.93-.66 18.74 1.03 1.57 1.03 1.57 3.16 4.01.32.5.32.5 2 3-3-.32-3.99-.98-6.12-3.19-4.47-6.69-3.9-12.12-2.88-19.8q-1.66.84-3.37 1.74c-10.07 4.98-19.26 8.72-30.63 6.25l-3.81-.25c-5.07-.6-8.91-3.12-13.2-5.75l-2.8-1.44c-6.12-4.37-7.95-11.48-9.2-18.56-.37-8.19 3.65-14.62 8.7-20.69 6.5-6.98 13.82-10.4 23.3-11.3q2.49.12 4.94.3c11.2.16 20.07-10.73 27.63-17.96 1.82-1.72 3.72-3.35 5.63-4.98a178 178 0 0 0 22.94-24.06c2.13-2.63 4.48-4.92 6.87-7.3 3.82-4.15 7.12-8.16 10-13q2.5-2.52 5-5 2.02-3 4-6 2.04-2.72 4.13-5.39l2.06-2.65L286 543h2a88 88 0 0 0 4-9l-2.62-.75c-3.56-1.33-6.25-3.08-9.37-5.25l-2.06-1c-4.27-2.2-7.62-5.58-10.94-9l-2.37-2.25c-9.92-10.39-14.01-21.93-17.88-35.49-.75-2.26-.75-2.26-1.8-4.3-1-2.08-1.3-3.68-1.51-5.96a55 55 0 0 0-2.37-11c-1.88-6.5-2.7-13.3-3.63-20-.44-3-.44-3-.9-4.85-.62-2.5-1.04-5-1.47-7.53a56 56 0 0 0-2.07-8.56c-1.25-3.84-1.8-7.66-2.43-11.65-.62-3.68-1.37-7.32-2.13-10.98a117 117 0 0 1-2.22-16.07c-.22-2.36-.22-2.36-.75-4.93-.54-2.82-.48-5.53-.42-8.4-.06-2.03-.06-2.03-.74-5.34a25.8 25.8 0 0 1 6-19.26c6.32-6.49 13.53-6.73 21.57-3.12" fill="#E2E3E3"/><path d="m367 560 3 1c-1.62 4.08-4.54 6.8-7.62 9.81l-1.51 1.5a220 220 0 0 1-10.82 9.89c-3.41 2.99-6.69 6.12-9.99 9.24l-4.47 4.22-2.3 2.17A5520 5520 0 0 1 314 616l-1.73 1.62a325 325 0 0 1-18.51 16.08c-2.92 2.44-5.68 5-8.45 7.61-4.72 4.43-9.7 8.43-14.87 12.31l-2.1 1.58c-5.6 4.15-9.52 4.94-16.53 4.86l-2.27-.01L244 660a101 101 0 0 1 11.19-9.94l1.81-1.41 3.92-3.04a2864 2864 0 0 0 13.4-10.41c15.1-11.75 30-23.72 44.8-35.84q4.23-3.47 8.48-6.9 9.6-7.8 19.15-15.65l2.14-1.76q4.93-4.03 9.74-8.19l1.68-1.44 4.37-3.82z" fill="#EBEAED"/><path d="m227 611 2 1a145 145 0 0 1-16.19 14.88l-1.76 1.4c-6.28 4.89-11.22 7.05-19.3 7.1-7.94.26-14.18 1.59-20.32 7-1.31 1.43-1.31 1.43-3.43 4.62l-1.18 1.67c-3.88 6.29-3.61 13.17-2.82 20.33 1.51 6.3 5.17 9.36 10.49 12.77 9.53 4.66 22.87 5.45 33.08 2.48 6.59-2.52 12.92-5.81 18.43-10.25l2 1-1.5 3.25c-2.15 5.77-3.09 12.93-.67 18.75 1.04 1.56 1.04 1.56 3.17 4l2 3c-3-.32-3.98-.98-6.12-3.19-4.47-6.69-3.89-12.12-2.88-19.81l-3.38 1.75c-10.07 4.98-19.26 8.72-30.62 6.25l-3.81-.25c-5.07-.6-8.91-3.12-13.19-5.75l-2.81-1.44c-6.12-4.37-7.96-11.48-9.19-18.56-.38-8.19 3.64-14.62 8.69-20.69 6.51-6.97 13.83-10.4 23.31-11.31q2.47.13 4.94.31c10.77.15 19.15-9.86 26.41-16.83C225 612 225 612 227 611" fill="#E2E3E4"/><path d="m412 449 1 3a4532 4532 0 0 1-18.36 10.84l-2.98 1.76A22 22 0 0 1 385 467v4l-3.5.25c-4.12.48-7.1 1.89-10.64 4.01-2.33.93-3.53.55-5.86-.26-.29-3.05-.24-4.61 1.4-7.25A55 55 0 0 1 383 455l2.32-1.18c8.84-4.21 16.96-5.15 26.68-4.82" fill="#161514"/><path d="M358 484c2.56 1.5 2.56 1.5 4 3-.5 3.73-.87 5.81-3 9h-2l.62 3.38.38 3.62c-2 2-2 2-5.06 2.19C350 505 350 505 349 504q-.06-2.5 0-5l-2.88-.88C343 497 343 497 341 495c.06-2.88.06-2.88 1-6 5.12-4.86 9.12-5.73 16-5" fill="#646461"/><path d="M883 358h1l.08 2.76.29 10.31.13 4.43c.21 7.77.47 15.51 1.34 23.24.27 3.82-.31 7.48-.84 11.26-.92 9.13-1.58 18.28-2.25 27.43-.33 4.53-.67 9.01-1.31 13.51-.7 4.94-.42 9.91-.28 14.89-.16 3.17-.16 3.17-1.14 4.96-1.37 2.97-1.35 5.47-1.43 8.73l-.12 3.78-.09 3.95-.12 3.99L878 501h-1c-.55-22.54.24-44.83 1.94-67.31l.27-3.67c1.53-19.98 1.53-19.98 2.33-26.63.54-4.74.68-9.47.78-14.24l.06-2.72.18-8.49.13-5.81z" fill="#DADADC"/><path d="M893 609c3 3 3 3 3.36 4.96l-.02 2.24v2.54l-.05 2.74-.01 2.81q-.03 4.45-.09 8.9l-.04 6.03L896 654l4.23 1.43 2.38.8q3.31 1.06 6.67 1.95c10.28 2.74 19.45 5.55 25.72 14.82-1.38 5.22-4.55 8.19-9 11a71 71 0 0 1-10 3l-2-2 2.45-.73c11.27-3.54 11.27-3.54 14.55-7.27.81-2.75.81-2.75 1-5-11.02-9.31-25.28-11.26-39-15z" fill="#E7E9E7"/><path d="m293 471 .26 1.76c1.05 5.82 2.38 9.17 6.74 13.24 3.31 1.38 3.31 1.38 6 2v1c-8.56.65-16.38-1.55-23.12-7-2.47-2.17-3.31-3.76-3.88-7q2.37-1.01 4.75-2l2.67-1.12C289 471 289 471 293 471" fill="#CAB26E"/><path d="M875 310h2c6.19 13.85 6.19 13.85 6 21l.96 3.18a50 50 0 0 1 1.6 11.38c.35 6.94.35 6.94.95 10.25.51 3.32.62 6.44.62 9.8l.01 3.72-.02 3.86.02 3.89-.01 3.71v3.39C887 387 887 387 886 390h-2l-.06-2.62c-.53-22.21-1.22-43.78-6.48-65.46-.94-3.95-1.69-7.94-2.46-11.92" fill="#E9E9EB"/><path d="M376 459c3.7 1.23 3.94 2.2 5.69 5.56l1.32 2.51.99 1.93q-3.62 1.8-7.25 3.56l-2.07 1.04c-3.7 1.78-5.76 2.71-9.68 1.4-.35-3.25-.24-4.65 1.64-7.39l2.17-2.3 2.15-2.32C373 461 373 461 376 459" fill="#DFC580"/><path d="m367 560 3 1c-1.62 4.08-4.54 6.81-7.62 9.81l-1.64 1.61A225 225 0 0 1 348 584l-4 3.44-3 2.56v-3h2l1-5-2-1q6.04-5.22 12.12-10.39l5.15-4.45 2.92-2.47 2.6-2.24z" fill="#E6E8E6"/><path d="m1000 153-1 3-1.87-.44c-13.79-3.02-26.03-1.56-38.25 5.88A84 84 0 0 0 950 168l-1.72 1.44A123 123 0 0 0 939 178c.44-4.39 3.38-6.88 6.38-9.81l1.63-1.61c13.75-13.16 34.37-20.96 52.99-13.58" fill="#E4E4E5"/><path d="M1005 107c12.62-1.8 26.23 7.82 36 15l1.98 2.02a16 16 0 0 0 4.5 3.44c2.82 1.72 4.66 3.62 6.83 6.1l2.12 2.38C1058 138 1058 138 1058 140l1.94.75c2.06 1.25 2.06 1.25 2.81 3.37l.25 1.88-2 1-1.43-1.87c-14.25-18.25-31.84-31.51-54.57-37.13z" fill="#E1E2E2"/><path d="M798 234q2.74.53 5.5 1c4.67.81 8.93 2.08 13.39 3.68 3.8 1.18 6.2 1.63 9.92.01L830 237l3-1 1 3q-2.02 1.02-4.06 2l-2.29 1.12c-6.34 2.1-11.9.46-18.03-1.43-11.06-3.25-22.22-5.09-33.62-6.69v-1c8.28-2.51 13.77-1.74 22 1" fill="#DADADC"/><path d="m226 674 2 1-1.5 3.25c-2.15 5.77-3.09 12.93-.67 18.75 1.05 1.56 1.05 1.56 3.17 4l2 3c-3-.32-3.98-.98-6.12-3.19-4.47-6.69-3.89-12.12-2.88-19.81l-3.38 1.75c-4.72 2.36-9.56 4.72-14.62 6.25l-2-1q-3.06-.34-6.12-.56l-3.33-.26L190 687v-1l2.68.06c12.25-.2 23.74-4.19 33.32-12.06" fill="#CFD1D2"/><path d="M1062 146c3.26 1.09 3.66 1.54 5.5 4.25l1.31 1.93q2.2 3.34 4.19 6.82l1.15 1.92c4.96 8.49 7.79 17.32 10.1 26.83l.53 2.15c1.03 4.42 1.66 8.54 1.22 13.1l-3 2-.26-3.41c-1.61-18.5-7.46-35.38-18.52-50.47C1062 148 1062 148 1062 146" fill="#E6E8E5"/><path d="m496 576 2 1-1.45 1.07-8.77 6.49-2.18 1.62-2.02 1.49C482 589 482 589 481 591l3 1a49 49 0 0 1-22 4c7.72-6.02 16.59-10.36 25.35-14.64A66 66 0 0 0 496 576" fill="#050605"/><path d="m227 611 2 1a145 145 0 0 1-16.19 14.88l-1.76 1.4c-6.78 5.28-11.84 7.17-20.43 6.91l-2.51-.04q-3.06-.06-6.11-.15v-2c4.77-1.29 8.92-2.09 13.88-1.69 10.82.15 19.17-9.82 26.47-16.83C225 612 225 612 227 611" fill="#D8DAD9"/><path d="m942 112 3 2-2.79 1.36c-13.33 6.7-24.36 14.91-34.12 26.23A109 109 0 0 1 902 148c0-3.72.83-4.23 3.31-6.88a39 39 0 0 0 5.38-7C912 132 912 132 913.82 131.1c2.54-1.28 4.28-2.86 6.37-4.79 12.86-11.62 12.86-11.62 19.81-13.31z" fill="#DCDCDE"/><path d="M627 267c-1.37 4.11-3.19 4.42-7.01 6.36l-1.84.92-3.86 1.93q-2.94 1.46-5.86 2.96l-3.75 1.87-3.44 1.72c-3.34 1.28-5.7 1.49-9.24 1.24 3.48-2.82 7.3-4.87 11.25-6.94l2.03-1.07q6.8-3.6 13.72-6.99l1.96-1.1c2.04-.9 2.04-.9 6.04-.9" fill="#EFEFF1"/><path d="M227 346h2v41c-2.95-3.93-3.4-4.7-3.69-9.25l-.2-2.94q-.14-3.53-.11-7.06c0-3.75 0-3.75-.69-7.06-.44-5.26 1.1-9.71 2.69-14.69" fill="#E3E4E3"/><path d="m180 633 3 3-2.01.88c-9 4.18-13.05 9.06-16.99 18.12-1.11 3.32-1.32 6.2-1.56 9.69l-.26 3.57L162 671c-2.4-3.59-2.94-6.76-3-11 .75-3.06.75-3.06 2-6l1.12-3.31C165.65 642.71 172.44 637 180 633" fill="#DEE2DE"/><path d="m772.06 229.31 3.8.18c3.22.52 4.24.91 6.14 3.51-13.35.22-26.67-.44-40-1 8.12-5.42 20.68-3.15 30.06-2.69" fill="#EFEFF3"/><path d="M246 339c-3 2-3 2-6 2l2 3-2.81 1.19c-3.5 1.99-4.3 3.37-6.19 6.81-2.19 1.81-2.19 1.81-4 3-.45-8.84-.45-8.84 3-13 4.33-3.69 8.6-3.32 14-3" fill="#191A18"/><path d="m292 472 1 12-6-1-1-3c-2.06-1.19-2.06-1.19-4-2v-3c3.73-2.03 5.67-3 10-3" fill="#E9C35F"/><path d="M893 609c3.75 3.75 3.38 4.98 3.4 10.15l.01 2.11-.02 4.42q-.01 3.37.02 6.74l-.01 4.29-.01 3.95C896 644 896 644 893 648z" fill="#D5D9D7"/><path d="M757 691c15.34-.22 30.67.44 46 1v1a242 242 0 0 1-47 0z" fill="#E5E6E5"/><path d="M374 462h4v8h-4v2l-3.38-.19-3.62.19-2 3c-.2-3.72-.15-4.77 2-8 2.62-.69 2.62-.69 5-1v-2h2z" fill="#E2BE64"/><path d="M412 447c1.8 1.52 1.8 1.52 3 3l-2.68-.11c-11.51-.26-20.19 1.55-30.23 7.22C380 458 380 458 377 457c10.24-7.48 22.08-11.9 35-10" fill="#020303"/><path d="M229 380h1l.24 1.69 1.14 7.75.38 2.66a157 157 0 0 0 2.86 14.91C235 409 235 409 235 413l-3-1c-.82-2.3-.82-2.3-1.42-5.31l-.67-3.26-.66-3.43-.71-3.43c-1.22-6.12-1.22-6.12-1.54-8.57l1-1q.55-3.5 1-7" fill="#DADBDB"/><path d="m884 355 3 2c.36 2.93.36 2.93.33 6.65l-.01 1.99q0 2.09-.04 4.16-.04 3.2-.05 6.37c-.07 10.34-.07 10.34-1.23 13.83h-2z" fill="#F0F2F3"/><path d="m893 589 3 1c.11 12.71.02 25.32-1 38h-1a540 540 0 0 1-1-39" fill="#F1F3F3"/><path d="M883 358h1l.08 2.76.29 10.31.13 4.43c.23 8.53.57 17.01 1.5 25.5h-2l-1 6h-1z" fill="#B4B5B6"/><path d="M884 401c2.13 6.4.95 13.47 0 20l-.44 3.44L883 427l-2 1q-.12-4.78-.19-9.56l-.07-2.72c-.07-5.72.6-9.63 3.26-14.72" fill="#DFDFE0"/><path d="m738.6 231.12 2.55.07 8.04.25 5.45.15L768 232v1l-41 1v-2c3.9-1.3 7.55-1 11.6-.88" fill="#C5C5C7"/><path d="M223 680h1l.08 3.07.17 4.05.04 2.02c.25 5.06 1.65 7.89 4.71 11.86l2 3c-3-.32-3.98-.98-6.12-3.19-4.38-6.56-4.16-12.23-2.88-19.81z" fill="#DCDBE1"/><path d="m401 700-4 1v2c-8.02 1.13-15.92 1.1-24 1 3.66-2.44 6.92-2.68 11.19-3.12l2.21-.27c4.89-.54 9.68-.69 14.6-.61" fill="#DFE2DF"/><path d="m376 652 2 1-1 3-2 1 6 1v1l-19 3a43 43 0 0 1 9.12-7.31l2.64-1.62z" fill="#E5E5E7"/><path d="M229 356h2q.3 3.88.56 7.75l.17 2.21c.25 3.59.27 6.59-.73 10.04h-2c-1.18-3.71-1.13-7.25-1.12-11.12l-.01-3.76C228 358 228 358 229 356" fill="#181A18"/><path d="m178 685 2.2.18 3.05.26 10.22.85 3.28.27 5.25.44v2c-5.06.79-8.94 1.05-14 0l-4.25-.38L180 688z" fill="#EFF2F0"/><path d="M894 642h1l1 12 4.12 1.38L911 659v1c-6.41.43-11.89-1.14-18-3-.1-5.13-.04-9.95 1-15" fill="#EDEFED"/><path d="M1082 193h1c2.05 16.9 2.05 16.9-3 24-2.25 2.06-2.25 2.06-4 3l-2-2 3.71-4.1c3.08-4.53 3.59-9.43 3.91-14.78l.23-3.49z" fill="#CCCDCC"/><path d="M1005 107c9.63-1.38 16.82 3.51 25 8v2c-4.08-1.31-8-2.8-11.94-4.5A89 89 0 0 0 1005 108z" fill="#D9DBDB"/><path d="M881 516c2.69 3.11 3.52 5.52 4.12 9.56.46 2.97.93 5.58 1.88 8.44-1.44 2.19-1.44 2.19-3 4q-1.05-4.1-2.06-8.19l-.61-2.33c-1.01-4.15-1.67-7.28-.33-11.48" fill="#E5E4E7"/><path d="m534 314 4 2-19 10-1-3a86 86 0 0 1 12-7l2.12-1.31z" fill="#E1E1E3"/><path d="m401 302 1 2h-6v4c-1.75 1.7-1.75 1.7-4 3.25l-2.25 1.58L388 314l1-2.81c1-3.19 1-3.19 1-6.19 3.66-2.91 6.39-3.32 11-3" fill="#171818"/><path d="M350 574c0 3 0 3-1 6l-.34 1.98c-.85 2.61-2.1 3.57-4.22 5.27l-1.94 1.58L341 590v-3h2l1-5-2-1z" fill="#DFE0E2"/><path d="M1033 187c2.7 2.7 3.7 5.88 5.06 9.38l.82 2.03A59 59 0 0 1 1042 208c-3.87-1.29-4.17-2.41-6-6-2.38-5.18-3.36-9.3-3-15" fill="#D4D5D5"/><path d="m686 687 30 1v1c-8.69.89-17.27 1.12-26 1v-2z" fill="#E3E5E1"/><path d="m986.81 150.75 3.64-.02c3.51.27 6.28 1.01 9.55 2.27l-1 3-1.77-.4A138 138 0 0 0 977 153c3.64-2.43 5.48-2.27 9.81-2.25" fill="#ECEFEC"/><path d="M980 152v2l-2.05.37-2.7.51-2.67.49c-2.58.63-2.58.63-4.74 1.72-2.55 1.26-4.17.65-6.84-.09 2.58-2.58 4.89-3.1 8.38-4.19l3.46-1.1c2.97-.67 4.37-.79 7.16.29" fill="#DBDEDC"/><path d="m408 454 2 1c-4.21 3.65-8.73 6.22-13.62 8.81l-2.32 1.27-2.22 1.19-2.02 1.08C388 468 388 468 385 467l1.79-.98 8.02-4.4 2.82-1.53 2.7-1.49 2.49-1.36A86 86 0 0 0 408 454" fill="#050605"/><path d="M938 176c1.15 3.72 1.15 3.72-.19 6.25L936 185q-1.5 3.15-2.94 6.33C932 193 932 193 929 194c1.86-6.9 4.8-12.24 9-18" fill="#DADBDC"/><path d="M163 649h1l-.44 3.69c-.68 6.09-1.12 12.2-1.56 18.31-2.39-3.59-2.94-6.76-3-11 .81-3.19.81-3.19 2-6l1.12-2.88z" fill="#EEF2EE"/><path d="M328 474c2.5 2.31 2.5 2.31 5 5v3l-9 3 1.44-2.12c1.65-3.04 2.16-5.47 2.56-8.88" fill="#B5A76E"/><path d="M227 346h2l-2 21c-2.26-3.39-3.09-5.98-3-10 .78-3.74 1.84-7.36 3-11" fill="#EFF0ED"/><path d="m305.56 349.94 2.44.06v2q-3.38 1.3-6.75 2.56l-1.92.75c-3.44 1.27-5.85 2.16-9.33.69 2.34-2.34 3.9-2.7 7.06-3.56 3.04-.84 5.52-2.43 8.5-2.5" fill="#EBEEED"/><path d="M368 329c-1.53 3.58-3.67 6.03-6.38 8.81l-2.33 2.46C357 342 357 342 354.71 341.76L353 341l2-1.5c3.32-2.76 6.25-5.77 9.23-8.89C366 329 366 329 368 329" fill="#E0E2E4"/><path d="m792 232 2 3c-6.11.1-11.97.07-18-1v-1c5.85-1.78 10-2.35 16-1" fill="#D5D5D8"/><path d="M376 459c3 1 3 1 4.69 4.06L382 466h-4l-2-3-2-1v2h-2v2h-2l-1 2c0-3 0-3 1.43-4.64l1.88-1.61 1.87-1.64z" fill="#D0BA75"/><path d="m227 611 2 1-4.19 4.31-2.35 2.43A36 36 0 0 1 215 624c0-3 0-3 1.61-4.72l2.14-1.78 2.11-1.78q3.03-2.42 6.14-4.72" fill="#DFE0E0"/><path d="M420 343c3 1 3 1 4.15 2.77a24 24 0 0 1 1.47 6.98l.23 2.42.15 1.83-3-1c-.95-2.18-.95-2.18-1.69-4.88l-.76-2.67C420 346 420 346 420 343" fill="#131714"/><path d="M413 321h3l3 11-2 2v-3h-2z" fill="#1E1F1F"/><path d="M732 234v1l-17 2 1-3c5.82-2.55 10.02-1.76 16 0" fill="#DADADE"/><path d="m875 688-2 1-1 3 2 1h-10l3-2v-3c3.05-.98 4.95-.98 8 0" fill="#BFBFC1"/><path d="M280 527c4.85.59 8.61 1.98 13 4l-1 3a36 36 0 0 1-12-6z" fill="#E9E9EB"/><path d="M292 472v6h-4v-2h-6c3.16-3.47 5.21-4 10-4" fill="#E2C66B"/><path d="M1076 219c-1 3-1 3-4.06 4.81-4.44 1.79-7.51.67-11.94-.81v-1l2.34-.4 3.04-.54 3.02-.52c7.46-1.54 7.46-1.54 7.6-1.54" fill="#DCDDDE"/><path d="m368 564 1 4-1.39 1.17A126 126 0 0 0 358 578c1.28-6.39 5.38-9.77 10-14" fill="#181818"/><path d="M615 535c-1.02 2.66-1.67 3.81-4.16 5.27l-2.46.98-2.48 1.02-1.9.73-2-2 5.38-3 3.02-1.69C613 535 613 535 615 535" fill="#1E1F1D"/><path d="m976.29 101.64 3.78.05h3.78c3.15.3 3.15.3 5.15 2.3-3.13.18-3.13.18-19 1 3-3 3-3 6.29-3.35" fill="#F1F1F3"/><path d="M232 387h3c.19 4.82-.24 8.5-2 13h-1q-.3-2.12-.56-4.25l-.32-2.39c-.12-2.37.18-4.11.88-6.36" fill="#181B19"/><path d="m239.88 337.19 3.12.8v1l-5.96 1.48c-1.7.44-3.37.98-5.04 1.53-1.19 2.57-1.19 2.57-2 5l-2-1c2.06-5.57 5.88-9.1 11.88-8.81" fill="#DBDEDA"/><path d="m293 474 1 2h2l2 6h2l2 5c-3.82-1.5-5.75-3.59-8-7-.75-3.31-.75-3.31-1-6" fill="#2E200D"/><path d="M352.75 340.46 354 342c-9.41 2.48-9.41 2.48-14 1a21 21 0 0 1 7-3.31l2.06-.61c1.94-.08 1.94-.08 3.69 1.38" fill="#E7E7EA"/><path d="M1083 189c2.43 2.43 2.41 3.51 2.75 6.88l.3 2.61c-.05 2.73-.65 4.2-2.05 6.51h-1z" fill="#EFEFF1"/><path d="M1016 164c3.36 1.44 5.4 3.21 7.81 5.94l1.9 2.09L1027 174l-1 3a40 40 0 0 1-8-10z" fill="#E7E8E6"/><path d="M419 329h2l2 5 1.25 2.56c.75 2.44.75 2.44-.2 4.59L423 343l-2-5.31-1.12-2.99C419 332 419 332 419 329" fill="#EDEEED"/><path d="m892 160 3 1-5 10-2-1c1.75-7.75 1.75-7.75 4-10" fill="#E4E3E5"/><path d="m640 520 4 1c-2.36 2.73-4.57 3.91-8 5h-4v-2c2.91-1.26 4.8-2 8-2z" fill="#202020"/><path d="M369 460h6l-9 9v-5h2z" fill="#261A0B"/><path d="m811.69 236.75 2.39.55c1.92.7 1.92.7 2.92 2.7-9.41.37-9.41.37-14-2 3.24-1.99 5.02-2.15 8.69-1.25" fill="#EBEAED"/><path d="m1056 222 10 1v3c-4.22.2-7.17-.2-11-2z" fill="#EEEFF0"/><path d="m864 211 1 3c-2.48 3.72-5.44 6.33-9 9l-2-1z" fill="#EBEBED"/><path d="m178 685 12 1v3q-2.44-.14-4.88-.31l-2.74-.18C180 688 180 688 178 685" fill="#E6E8E7"/><path d="M888 547c2.31 2.31 2.5 3.48 3.12 6.62l.51 2.48.37 1.9-3 2a28 28 0 0 1-1.06-8.75l.02-2.42z" fill="#EFEFF3"/><path d="m264 344 10 4v3a57 57 0 0 1-10-4z" fill="#D9DADA"/><path d="M384 648c-7.29 4.43-7.29 4.43-12 5v-2c3.74-3.46 7.12-4.63 12-3" fill="#19181A"/><path d="m401 302 1 2a90 90 0 0 1-13 3c4.19-4.33 5.95-5.13 12-5" fill="#1D1D1E"/><path d="m580 289 1 2c-2.77 3.08-5.06 4.69-9 6v-3c1.75-1.39 1.75-1.39 4-2.69l2.25-1.32z" fill="#EEEDF1"/><path d="M397 638c-1 3-1 3-4.06 4.69L390 644c.25-2.38.25-2.38 1-5 3.31-2.35 3.31-2.35 6-1" fill="#1D1D1E"/><path d="M225 682h1c1.43 8.43 1.43 8.43-1 13h-1l-.06-5.94-.04-3.34c.1-2.72.1-2.72 1.1-3.72" fill="#1A1B1B"/><path d="m811 647 1 2c2.56.62 2.56.62 5 1-4.75 4.88-4.75 4.88-7 6z" fill="#C5C6C7"/><path d="m308 609 1 3-6 5-3-2z" fill="#E2E2E3"/><path d="m397.26 299.24 2.43.63 2.45.62 1.86.51v1l-12 1v-2c3-2 3-2 5.26-1.76" fill="#EDEDEE"/><path d="M1036 198c3.48 3.02 4.79 5.57 6 10-3-1-3-1-4.69-3.31C1036 202 1036 202 1036 198" fill="#DCDCDF"/><path d="M430 364c3 1 3 1 4.19 3.06L435 369l-5 1a94 94 0 0 1-1-5z" fill="#D8D8DA"/><path d="m275 348 8 4-4 2c-2.75-1.38-2.75-1.38-5-3z" fill="#E3E5E6"/><path d="M424 340a93 93 0 0 1 4 9l-3 2c-2.04-4.07-2.03-6.59-1-11" fill="#E2E6E3"/><path d="M885 255h2l1 3-6 4-2-2c1.38-1.5 1.38-1.5 3-3h2z" fill="#19191A"/><path d="M948 166c0 3.96-1.35 4.83-4 7.69l-2.25 2.45L940 178l-1-3z" fill="#EDEEED"/><path d="M907 139h2c-1.56 3.82-4.04 6.19-7 9 0-4.32 2.13-5.93 5-9" fill="#D9D7DA"/><path d="m918 131-8 8-2-1c5.6-9.2 5.6-9.2 10-7" fill="#EAEAEB"/><path d="M224 695q3.6 4.43 7 9c-3.14-.34-4.05-1.05-6.31-3.38L223 698z" fill="#C9CBCC"/><path d="M162 658h1l.18 2.23.26 2.96.24 2.92c.3 2.68.75 5.26 1.32 7.89l-3-1z" fill="#B7BAB7"/><path d="m180 633 3 3c-6.62 3.12-6.62 3.12-10 2z" fill="#E4E6E5"/><path d="M579 555c-2.46 2.46-4.71 3-8 4l-2-2c3.72-2.66 5.58-3.39 10-2" fill="#20221F"/><path d="m543 309 2 1c-3.08 3.67-5.25 4.57-10 5 1.5-3.01 4.04-3.58 7-5z" fill="#EEEDF0"/><path d="M1005 107a207 207 0 0 1 4.31-.19l2.43-.1c2.74.35 3.55 1.18 5.26 3.29-2.82 1.41-4.17.51-7.12-.44l-2.76-.87-2.12-.69z" fill="#C4C4C5"/><path d="m251.19 659.81 3.29.08 2.52.11v1l-1.76.18c-4.44.48-8.84 1.03-13.24 1.82 2.65-3.54 4.95-3.33 9.19-3.19" fill="#030504"/><path d="m368 653 3 1c-3.08 3.67-5.25 4.57-10 5l2-3h3v-2z" fill="#191B1A"/><path d="m351 574 2 2c-.19 2-.19 2-1 4l-3 2c-.69-1.75-.69-1.75-1-4 1.44-2.25 1.44-2.25 3-4" fill="#ECF0F3"/><path d="M306 488v1c-8.57.29-8.57.29-12-2 4.15-3.28 7.72-.93 12 1" fill="#ADA375"/><path d="M232 404h2l1 9-3-1z" fill="#D0D2D3"/><path d="M401 302c3.38.25 3.38.25 7 1 1.44 2.06 1.44 2.06 2 4-3 0-3 0-4.5-1.38L404 304z" fill="#DDDDDF"/><path d="M894 253c0 3 0 3-1.25 4.75-1.75 1.25-1.75 1.25-3.94.94L887 258c2.36-2.53 3.66-3.89 7-5" fill="#EBEBEB"/><path d="m226 674 2 1-3 8-1-3-2-1c1-3 1-3 4-5" fill="#C4C5C3"/><path d="M275 558h2c-1.56 3.82-4.04 6.19-7 9 .57-3.87 2.39-6.15 5-9" fill="#DCDFDC"/><path d="M239 434h1l1 10-3-1z" fill="#E0E0E0"/><path d="m839 232 1 3c-4.75 3-4.75 3-7 3 1.05-2.62 1.65-3.79 4.12-5.25z" fill="#EDECF0"/><path d="m921 214 1 2c-.78 1.95-.78 1.95-1.94 4.12l-1.15 2.2L918 224h-1c.62-6.52.62-6.52 2.56-8.94z" fill="#E9E7EC"/><path d="M923 206c2 4 2 4 1.31 6.19C923 214 923 214 920 215z" fill="#DAD8DD"/><path d="m559 561 2 1v2l-7 3c.25-1.88.25-1.88 1-4 1.94-1.31 1.94-1.31 4-2" fill="#1C1F1B"/><path d="m881 419 1 2h2c-.38 2.94-.38 2.94-1 6l-2 1z" fill="#F1F1F3"/><path d="M425 351c2.57 3.85 2.55 6.43 3 11l-4-3z" fill="#353835"/><path d="m1186 698 3 2-2 4-3-2z" fill="#F4F7F4"/><path d="m369 656 2 1c-1.12 1.94-1.12 1.94-3 4-3.19.75-3.19.75-6 1a41 41 0 0 1 7-6" fill="#D6D8D7"/><path d="m883 530 3 1 1 3c-1.44 2.19-1.44 2.19-3 4z" fill="#D6D6D9"/><path d="M275 523c3.36.6 5.38 1.85 8 4l-5 1z" fill="#DEDEE0"/><path d="m501 331 2 1-1 3-6 1z" fill="#EEEEF2"/><path d="m507.56 328.94 2.44.06c-2.37 2.53-3.67 3.89-7 5 1.12-4.98 1.12-4.98 4.56-5.06" fill="#E2E2E4"/><path d="m869 295 3 1 1 6-3-1z" fill="#EBEEEB"/><path d="m917 131 1 3-4 4-3-1z" fill="#1A191B"/><path d="m346 666 1 3-4 4-2-3 5-2z" fill="#1A1C1A"/><path d="m269 564 1 4c-1.94 2.25-1.94 2.25-4 4l-2-1z" fill="#ECEDEF"/><path d="m446 483 1 2c-1.25 3.06-1.25 3.06-3 6l-3 1a104 104 0 0 1 5-9" fill="#030503"/><path d="m437 364 4 2c-1.81 1.06-1.81 1.06-4 2l-3-1z" fill="#EEEDEF"/><path d="M240 336c2.88-.19 2.88-.19 6 0l2 3-9-1z" fill="#EFF1EF"/><path d="M368 329c-1.39 3.37-2.98 4.99-6 7 .63-3.64 1.85-7 6-7" fill="#D9D9DD"/><path d="M965 157c-2 2-2 2-5 4h-3l1-3c2.46-1.23 4.28-1.07 7-1" fill="#ECECEE"/><path d="M946 109h4l-1 3-6 1c1.25-2 1.25-2 3-4" fill="#EAEAEC"/><path d="m220 697 3 3-3 2-2-3z" fill="#D6D7DB"/></svg>