<svg style="background:transparent" version="1.1" xmlns="http://www.w3.org/2000/svg" viewBox="0 0 1248 704"><path d="M920.94 126.81h3.25c7.68.05 7.68.05 8.8 1.2q2.51.22 5 .36c4.68.38 8.67 1.27 13.04 2.91 1.97.72 3.93 1.23 5.97 1.72a108 108 0 0 1 24 11l2.03 1.05c5 2.62 9.05 5.52 13.15 9.4A23 23 0 0 0 1002 158v2l1.94.31q1.01.33 2.06.7l1 3q2 .52 4 1c5.56 4.25 9.38 10.08 13 16l1.42 2.14c4.03 6.52 6.26 13.72 5.24 21.44-1.21 4.34-2.95 7.63-6.72 10.34-4.66 2.56-10.01 5.36-15.43 4.82-12.57-3.76-21-11.98-29.82-21.19a34 34 0 0 0-7.83-5.57 98 98 0 0 1-5.92-3.49l-2.05-1.28a80 80 0 0 1-4.7-3.35c-4.5-2.64-9.16-3.64-14.2-4.87l-3.61-1.07q-1.67-.44-3.38-.93l-3.81-1.13c-4.76-1.04-9.46-1.06-14.31-1.06h-2.32c-5.98.06-11.77.6-17.56 2.2l-2.26.53c-7.8 2.07-13.46 5.81-19.68 10.83C875 191 875 191 873 191l-.68 1.7c-1.68 2.93-3.93 4.91-6.32 7.3-2.48 3.38-4.01 5.98-5 10-.96 2.3-2.01 4.53-3.06 6.78A36 36 0 0 0 856 223c-.9 2.83-1.83 5.6-2.97 8.35a68 68 0 0 0-2.47 8.15A32 32 0 0 1 846 250l-2.06 4.92a92 92 0 0 1-11.58 19.32C831 276 831 276 829.19 279c-2.62 3.58-5.66 6.17-9.02 9.05a36 36 0 0 0-4.73 5.07A43 43 0 0 1 805 302h-2l.92 1.65 2.65 4.77 2.77 4.97c7.73 13.82 12.27 27.07 15.2 42.54C825 358 825 358 826 360q.31 3.71.5 7.43c.37 7.16.37 7.16 1.5 10.57q.14 3.45.14 6.9v2.03l-.01 4.26v14.44A47 47 0 0 1 827 414v4c0 3.3-.33 5.83-1 9v3c0 3 0 3-.47 5.3a71 71 0 0 0-1.03 8.9q-.4 6.02-1.06 12.05a87 87 0 0 0-.38 11.74c-.06 2.01-.06 2.01-.56 3.98-.56 2.26-.56 4.2-.5 6.53.06 2.26.09 4.16-.5 6.35a28 28 0 0 0-.63 6.66v12.69c.13 1.8.13 1.8 1.13 2.8q.07 5.09-.04 10.18c-.06 5.62-.06 5.62 1.04 7.82q.15 3.63.14 7.27v2.18l-.01 4.58v13.53A33 33 0 0 1 822 562v2.5c0 2.5 0 2.5-.47 4.34-.8 3.24-.97 6.5-1.25 9.82C820 581 820 581 819 584l-.68 5.94c-.43 2.8-1.42 5.37-2.32 8.06q-.06 2.5 0 5c-.62 3.58-1.52 7.06-2.5 10.56-1.44 5.2-1.44 5.2-2 7.5-.75 2.9-1.78 5.7-2.78 8.52-.83 2.78-1.26 5.55-1.72 8.42l2.42.38c57.92 9.16 57.92 9.16 69.58 19.62 1.24 2.2 1.24 2.2 2 4-2.76 5.64-5.51 7.6-11.44 9.7a180 180 0 0 1-19.06 4.5l-2.41.45c-20.53 3.61-41.4 3.75-62.17 3.72l-7.01.01c-26.48.01-52.85-1.03-79.28-2.38-30.44-1.55-60.8-2.4-91.28-2.38h-8.53c-24.9 0-49.7.77-74.55 2.24l-6.56.38c-19.96 1.1-39.85 2.73-59.74 4.66l-7 .68c-32.51 3.13-64.94 6.97-97.36 10.97-50.56 6.23-50.56 6.23-66.14 6.42q-4.16.06-8.31.18l-5.91.1-2.67.06c-5.48.03-10.07-.8-15.26-2.57a62 62 0 0 0-9.63-2.1c-4.11-.72-6.2-1.16-9.25-4.14C236 690 236 690 236 688l-5-1v-3c-1-2.19-1-2.19-2-4 4.75-4.88 4.75-4.88 7-6l2 1v-6l-1.94 1.02c-13.76 7.1-25.31 8.15-40.03 3.73-6.23-2.3-10.31-7.05-13.53-12.69-2.88-6.9-3.2-12.06-.5-19.13 3.97-8.63 9.72-15.47 18.75-19 4.59-1.3 9.06-1.33 13.8-1.49 11.6-1.49 20.75-12.46 28.45-20.44 5-5 5-5 6.9-6.83A80 80 0 0 0 261 581l2-3h2l.75-1.8c1.25-2.2 1.25-2.2 3.13-3.5 2.49-2 3.57-4.22 5.05-7 1.56-2.48 3.77-3.93 6.07-5.7q1.58-2.45 3-5c2.06-2.8 2.06-2.8 4-5h2l.19-1.69c1.14-3.26 3.36-4.92 5.8-7.3q1.53-2.51 3-5 1.47-1.72 2.95-3.39A45 45 0 0 0 308 522l-1-3-2.94-.3c-4.56-.67-8.73-2.18-13.06-3.7l-4.68-1.5A66 66 0 0 1 276 509l-1.8-.76c-6.48-2.87-11.14-7.36-16.2-12.24l-1.71-1.64a446 446 0 0 1-5.41-5.24l-1.76-1.69A96 96 0 0 1 245 483v-3l-1.94-.69c-2.06-1.3-2.06-1.3-2.6-3.57L240 473q-.69-2.56-1.44-5.13a142 142 0 0 1-4.34-23.7 124 124 0 0 0-.5-4.3c-.7-5.39-.77-10.65-.66-16.08-.06-2.79-.06-2.79-.58-5.26-.58-3.07-.34-5.68-.04-8.78.83-10.55 1.08-20.99-.18-31.5-1.3-10.95-1.45-21.7-1.15-32.69q.11-4.28.18-8.55l.13-5.53.04-2.53c.19-5.84.84-12.04 4.99-16.52 4.17-3.54 6.87-4.76 12.35-4.69 3.75.44 6.73 2.04 10.02 3.82l2.09 1.1c6.55 3.46 12.76 7.4 18.89 11.56A83 83 0 0 0 290 330q1.19.75 2.44 1.5c8.1 4.75 14.38 5.3 23.64 2.98 4.19-.69 8.33-.6 12.57-.59l5.74-.04q4.49-.05 8.99-.03 4.35 0 8.7-.05l2.7.03c6.64-.12 9.68-2.12 14.22-6.8a201 201 0 0 1 3.25-2.69c3.25-2.76 6.2-5.77 9.19-8.8 13.48-13.73 13.48-13.73 20.8-13.95 5.1.12 8.25 1.8 11.76 5.44a24 24 0 0 1 3 6l.8 1.91a48 48 0 0 1 3.2 13.1l1 3a129 129 0 0 1 2.72 16.7c.42 3.38 1.14 6.7 1.88 10.03.4 2.26.4 2.26.4 6.26l1.58-.89q6.22-3.46 12.48-6.86c20.85-11.38 20.85-11.38 28.83-16.87 3.2-2.1 6.56-3.87 9.94-5.67a767 767 0 0 0 11.55-6.4l2.05-1.15q4.1-2.3 8.13-4.7c3-1.8 6.09-3.45 9.19-5.09l1.95-1.03q5.44-2.9 10.89-5.76 1.12-.6 2.29-1.2l4.4-2.32q5.45-2.88 10.72-6.06c4.16-2.23 8.42-4.2 12.75-6.07 2.46-1.06 4.35-2 6.5-3.62 1.75-1.3 1.75-1.3 4-1.75 3.3-.68 5.87-2.04 8.84-3.59a69 69 0 0 1 6.9-2.97q5.18-2.2 10.33-4.44c6.8-2.9 13.53-5.6 20.68-7.56 3.92-1.24 7.8-2.54 11.64-4a77 77 0 0 1 16.76-4.5c2.6-.5 2.6-.5 5.23-1.46 4.78-1.48 9.6-1.99 14.56-2.6l5.92-.76q1.3-.14 2.63-.33C670 256 670 256 673 255c3.78-.36 7.58-.47 11.38-.63l3.29-.13c7.56-.27 14.82-.13 22.33.76l5.56.5c2.92.27 5.6.77 8.44 1.5l7 1a134 134 0 0 1 31.32 9.5c4.89.66 6.62-.9 10.47-3.76l2.2-1.74c6.79-5 6.79-5 9-5l.76-1.75c1.44-2.59 3.16-4.16 5.25-6.25 5.98-6.85 9.9-14.96 14-23l1.64-3.15a46 46 0 0 0 2.92-7.92A90 90 0 0 1 812 205l1-2.5 4.07-10.17q.93-2.31 1.8-4.64c5.35-12.76 14.09-22 23.82-31.69l2.8-2.85 2.7-2.72 2.44-2.44c2.4-2.03 4.43-2.95 7.37-3.99l3-3c1.9-.85 1.9-.85 3.94-1.5 2.35-.76 3.95-1.4 5.88-2.97 2.89-2.03 5.7-2.7 9.12-3.6 6.69-1.78 6.69-1.78 9.58-2.98 9.64-3.69 21.27-3.13 31.42-3.14" fill="#111411"/><path d="M920.94 126.81h3.25c7.68.05 7.68.05 8.8 1.2q2.51.22 5 .36c4.68.38 8.67 1.27 13.04 2.91 1.97.72 3.93 1.23 5.97 1.72a108 108 0 0 1 24 11l2.03 1.05c5 2.62 9.05 5.52 13.15 9.4A23 23 0 0 0 1002 158v2l1.94.31q1.01.33 2.06.7l1 3q2 .52 4 1c5.56 4.25 9.38 10.08 13 16l1.42 2.14c4.03 6.52 6.26 13.72 5.24 21.44-1.21 4.34-2.95 7.63-6.72 10.34-4.66 2.56-10.01 5.36-15.43 4.82-12.57-3.76-21-11.98-29.82-21.19a34 34 0 0 0-7.83-5.57 98 98 0 0 1-5.92-3.49l-2.05-1.28a80 80 0 0 1-4.7-3.35c-4.5-2.64-9.16-3.64-14.2-4.87l-3.61-1.07q-1.67-.44-3.38-.93l-3.81-1.13c-4.76-1.04-9.46-1.06-14.31-1.06h-2.32c-5.98.06-11.77.6-17.56 2.2l-2.26.53c-7.8 2.07-13.46 5.81-19.68 10.83C875 191 875 191 873 191l-.68 1.7c-1.68 2.93-3.93 4.91-6.32 7.3-2.48 3.38-4.01 5.98-5 10-.96 2.3-2.01 4.53-3.06 6.78A36 36 0 0 0 856 223c-.9 2.83-1.83 5.6-2.97 8.35a68 68 0 0 0-2.47 8.15A32 32 0 0 1 846 250l-2.06 4.92a92 92 0 0 1-11.58 19.32C831 276 831 276 829.19 279c-2.62 3.58-5.66 6.17-9.02 9.05a36 36 0 0 0-4.73 5.07A43 43 0 0 1 805 302h-2l.92 1.65 2.65 4.77 2.77 4.97c7.73 13.82 12.27 27.07 15.2 42.54C825 358 825 358 826 360q.31 3.71.5 7.43c.37 7.16.37 7.16 1.5 10.57q.14 3.45.14 6.9v2.03l-.01 4.26v14.44A47 47 0 0 1 827 414v4c0 3.3-.33 5.83-1 9v3c0 3 0 3-.47 5.3a71 71 0 0 0-1.03 8.9q-.4 6.02-1.06 12.05a87 87 0 0 0-.38 11.74c-.06 2.01-.06 2.01-.56 3.98-.56 2.26-.56 4.2-.5 6.53.06 2.26.09 4.16-.5 6.35a28 28 0 0 0-.63 6.66v12.69c.13 1.8.13 1.8 1.13 2.8q.07 5.09-.04 10.18c-.06 5.62-.06 5.62 1.04 7.82q.15 3.63.14 7.27v2.18l-.01 4.58v13.53A33 33 0 0 1 822 562v2.5c0 2.5 0 2.5-.47 4.34-.8 3.24-.97 6.5-1.25 9.82C820 581 820 581 819 584l-.68 5.94c-.43 2.8-1.42 5.37-2.32 8.06q-.06 2.5 0 5c-.62 3.58-1.52 7.06-2.5 10.56-1.44 5.2-1.44 5.2-2 7.5-.75 2.9-1.78 5.7-2.78 8.52-.83 2.78-1.26 5.55-1.72 8.42l2.42.38c57.92 9.16 57.92 9.16 69.58 19.62 1.24 2.2 1.24 2.2 2 4-2.76 5.64-5.51 7.6-11.44 9.7a180 180 0 0 1-19.06 4.5l-2.41.45c-20.53 3.61-41.4 3.75-62.17 3.72l-7.01.01c-26.48.01-52.85-1.03-79.28-2.38-30.44-1.55-60.8-2.4-91.28-2.38h-8.53c-24.9 0-49.7.77-74.55 2.24l-6.56.38c-19.96 1.1-39.85 2.73-59.74 4.66l-7 .68c-32.51 3.13-64.94 6.97-97.36 10.97-50.56 6.23-50.56 6.23-66.14 6.42q-4.16.06-8.31.18l-5.91.1-2.67.06c-5.48.03-10.07-.8-15.26-2.57a62 62 0 0 0-9.63-2.1c-4.11-.72-6.2-1.16-9.25-4.14C236 690 236 690 236 688l-5-1v-3c-1-2.19-1-2.19-2-4 4.75-4.88 4.75-4.88 7-6l2 1v-6l-1.94 1.02c-13.76 7.1-25.31 8.15-40.03 3.73-6.23-2.3-10.31-7.05-13.53-12.69-2.88-6.9-3.2-12.06-.5-19.13 3.97-8.63 9.72-15.47 18.75-19 4.59-1.3 9.06-1.33 13.8-1.49 11.6-1.49 20.75-12.46 28.45-20.44 5-5 5-5 6.9-6.83A80 80 0 0 0 261 581l2-3h2l.75-1.8c1.25-2.2 1.25-2.2 3.13-3.5 2.49-2 3.57-4.22 5.05-7 1.56-2.48 3.77-3.93 6.07-5.7q1.58-2.45 3-5c2.06-2.8 2.06-2.8 4-5h2l.19-1.69c1.14-3.26 3.36-4.92 5.8-7.3q1.53-2.51 3-5 1.47-1.72 2.95-3.39A45 45 0 0 0 308 522l-1-3-2.94-.3c-4.56-.67-8.73-2.18-13.06-3.7l-4.68-1.5A66 66 0 0 1 276 509l-1.8-.76c-6.48-2.87-11.14-7.36-16.2-12.24l-1.71-1.64a446 446 0 0 1-5.41-5.24l-1.76-1.69A96 96 0 0 1 245 483v-3l-1.94-.69c-2.06-1.3-2.06-1.3-2.6-3.57L240 473q-.69-2.56-1.44-5.13a142 142 0 0 1-4.34-23.7 124 124 0 0 0-.5-4.3c-.7-5.39-.77-10.65-.66-16.08-.06-2.79-.06-2.79-.58-5.26-.58-3.07-.34-5.68-.04-8.78.83-10.55 1.08-20.99-.18-31.5-1.3-10.95-1.45-21.7-1.15-32.69q.11-4.28.18-8.55l.13-5.53.04-2.53c.19-5.84.84-12.04 4.99-16.52 4.17-3.54 6.87-4.76 12.35-4.69 3.75.44 6.73 2.04 10.02 3.82l2.09 1.1c6.55 3.46 12.76 7.4 18.89 11.56A83 83 0 0 0 290 330q1.19.75 2.44 1.5c8.1 4.75 14.38 5.3 23.64 2.98 4.19-.69 8.33-.6 12.57-.59l5.74-.04q4.49-.05 8.99-.03 4.35 0 8.7-.05l2.7.03c6.64-.12 9.68-2.12 14.22-6.8a201 201 0 0 1 3.25-2.69c3.25-2.76 6.2-5.77 9.19-8.8 13.48-13.73 13.48-13.73 20.8-13.95 5.1.12 8.25 1.8 11.76 5.44a24 24 0 0 1 3 6l.8 1.91a48 48 0 0 1 3.2 13.1l1 3a129 129 0 0 1 2.72 16.7c.42 3.38 1.14 6.7 1.88 10.03.4 2.26.4 2.26.4 6.26l1.58-.89q6.22-3.46 12.48-6.86c20.85-11.38 20.85-11.38 28.83-16.87 3.2-2.1 6.56-3.87 9.94-5.67a767 767 0 0 0 11.55-6.4l2.05-1.15q4.1-2.3 8.13-4.7c3-1.8 6.09-3.45 9.19-5.09l1.95-1.03q5.44-2.9 10.89-5.76 1.12-.6 2.29-1.2l4.4-2.32q5.45-2.88 10.72-6.06c4.16-2.23 8.42-4.2 12.75-6.07 2.46-1.06 4.35-2 6.5-3.62 1.75-1.3 1.75-1.3 4-1.75 3.3-.68 5.87-2.04 8.84-3.59a69 69 0 0 1 6.9-2.97q5.18-2.2 10.33-4.44c6.8-2.9 13.53-5.6 20.68-7.56 3.92-1.24 7.8-2.54 11.64-4a77 77 0 0 1 16.76-4.5c2.6-.5 2.6-.5 5.23-1.46 4.78-1.48 9.6-1.99 14.56-2.6l5.92-.76q1.3-.14 2.63-.33C670 256 670 256 673 255c3.78-.36 7.58-.47 11.38-.63l3.29-.13c7.56-.27 14.82-.13 22.33.76l5.56.5c2.92.27 5.6.77 8.44 1.5l7 1a134 134 0 0 1 31.32 9.5c4.89.66 6.62-.9 10.47-3.76l2.2-1.74c6.79-5 6.79-5 9-5l.76-1.75c1.44-2.59 3.16-4.16 5.25-6.25 5.98-6.85 9.9-14.96 14-23l1.64-3.15a46 46 0 0 0 2.92-7.92A90 90 0 0 1 812 205l1-2.5 4.07-10.17q.93-2.31 1.8-4.64c5.35-12.76 14.09-22 23.82-31.69l2.8-2.85 2.7-2.72 2.44-2.44c2.4-2.03 4.43-2.95 7.37-3.99l3-3c1.9-.85 1.9-.85 3.94-1.5 2.35-.76 3.95-1.4 5.88-2.97 2.89-2.03 5.7-2.7 9.12-3.6 6.69-1.78 6.69-1.78 9.58-2.98 9.64-3.69 21.27-3.13 31.42-3.14m-82.75 36c-12.48 13.96-19.27 30.32-25.13 47.91-5.1 15.25-11.45 28.08-22.06 40.28l-2.3 2.95c-2.81 3.38-6.1 5.76-9.7 8.24l-1.83 1.28q-1.76 1.24-3.55 2.44-2.09 1.42-4.12 2.95c-5.38 2.45-11.03-.27-16.31-2.1-16.32-5.42-34.4-8.86-51.61-8.97l-2.37-.02-7.52-.02h-2.6c-11.5.01-22.68.2-33.94 2.76-2.32.53-4.66.97-7 1.41-45.74 9.06-89.5 30.91-130.15 53.08l-3.22 1.75a1749 1749 0 0 0-53.44 30.41l-9.7 5.72-5.5 3.26A300 300 0 0 1 424 368l-.04-2.76c-.24-9.88-1.92-19.44-3.77-29.12l-.38-2.03c-2.01-10.76-3.97-21.05-11.81-29.09a12 12 0 0 0-9-1c-7.64 4.1-13.7 10.41-19.61 16.63a123 123 0 0 1-3.42 3.44 114 114 0 0 0-4.18 4.34c-7.2 7.04-13.23 7.68-22.84 7.64l-5.13-.12-10.11-.03-2.5-.02c-5.36 0-10.56.4-15.88 1.12-10.1 1.4-16.1 1.98-24.95-3.38l-2.36-1.36a273 273 0 0 1-16.45-10.63 136 136 0 0 0-14.13-8.26l-1.98-1.04c-3.98-1.97-7.03-2.83-11.46-2.33-4.83 2.32-6.95 4.96-9.18 9.63-1.51 4.36-1.33 8.7-1.24 13.26v3.12l.1 9.8.04 6.55.04 6.34.03 2.94c.07 5.58.44 11.06.98 16.62.39 4.6.43 9.21.48 13.83l.1 6.32.13 9.75c.17 13.33.72 26.48 2.28 39.73q.37 3.2.68 6.41c1.24 12.04 4.56 22.5 12.56 31.7l1.67 2.13c13.48 16.5 34.8 25.02 55.33 28.87q3 .09 6 0c-3.04 5.67-6.62 10.6-10.62 15.62l-3.77 4.8q-.92 1.15-1.86 2.36-3.56 4.56-7.06 9.15a562 562 0 0 1-13.7 17.07l-1.27 1.54a517 517 0 0 1-19.21 21.83q-2.44 2.63-4.86 5.3c-7.51 8.2-15.21 16.07-23.65 23.33l-2.06 1.81c-5.28 4-10.95 3.71-17.38 3.97-7.87.48-12.8 3.47-18.5 8.85-4.85 5.6-8.02 12.6-7.55 20.1a32 32 0 0 0 7.62 14.64c10.98 6.21 22.79 7.57 35.12 4.93 6.4-2.16 12.1-5.63 17.75-9.3l-.65 1.65c-2.65 7.16-3.92 13.5-.66 20.66 4.05 7.07 10.96 9.84 18.3 12.7 17.64 4.73 34.7-1.62 50-10 7.09-4.18 13.99-8.63 20.92-13.05 4.96-3.15 10-6.18 15.03-9.2 7.39-4.49 14.7-9.06 21.93-13.8q7.38-4.78 14.95-9.34A918 918 0 0 0 431 611l1.9-1.33a539 539 0 0 0 36.66-27.86l1.68-1.39A76 76 0 0 0 475 577v-2l1.67-.27c7.99-1.42 15.56-3.95 23.2-6.6l2.13-.74c41.13-14.27 80.84-34.32 119.19-54.88 9.38-4.96 19.1-9.22 28.8-13.5.14.41.14.41.79 2.52C657 519.18 667.6 535.16 680 549l3.69 4.31c11.72 13.21 25.22 22.53 40.2 31.71 9.42 5.87 19.25 12.12 23.1 22.98q.64 1.65 1.26 3.37c.95 4.6.92 8.96.75 13.63l-2.56.22c-7.57.88-13.16 2.04-18.44 7.78a46 46 0 0 0-4 7l-1 2q-.22 2.62-.25 5.25l-.08 2.83c.54 4.75 2.22 7.86 5.68 11.15q1.34.96 2.7 1.96l2.68 1.98c8.36 4.67 16.64 5.38 26.09 5.33l3.47-.02c11.3-.24 20.68-2.3 29-10.5 6.49-7.55 9.39-16.07 12.02-25.52q1.13-3.93 2.3-7.83c4.08-13.84 6.85-27.75 9.27-41.94l.46-2.67c2.39-14.03 3.84-27.77 3.79-42.02v-2.96c0-5.13-.2-10.19-.63-15.3-.62-7.54-.65-15.06-.62-22.62v-2.2c.06-15.8.4-31.47 2.08-47.2 2.07-19.69 3.47-39.17 3.54-58.97l.03-2.96c.24-28.44-5.21-56.39-21.8-80.03C801 305 801 305 801 301c2.06-1.83 2.06-1.83 4.88-3.69 20.78-14.47 32.38-34.22 41.37-57.42q1.13-2.81 2.37-5.58a52 52 0 0 0 2.7-8.3c3.2-12.07 7.59-22.4 15.68-32l1.6-1.96c9.37-10.3 23.6-17.16 37.43-18.3 12.64-.6 24.77-.26 36.97 3.25l2.65.48c14.34 2.86 26.74 13 36.35 23.52 8.63 8.4 17.62 15.4 29.88 15.28 5.39-.49 9.3-2.4 13.06-6.28 2.64-4.97 2.74-10.52 2.06-16-5.5-16.39-19.4-28.35-33-38l-1.7-1.23C979.6 144.93 964.46 137 948 133l-3.4-.9c-38.04-8.7-79.57 2.08-106.41 30.71" fill="#BBBDBB"/><path d="m650 499 1.58 3.52C659.41 519.66 668.34 535 681 549l3.75 4.38L688 557l1.52 1.69c9.05 9.52 20.06 16.38 31.1 23.31 23.56 14.86 23.56 14.86 27.38 26l1.25 3.38c.94 4.55 1.13 8.98.75 13.62-2.27 2.27-7.43 1.78-10.51 2.11-3.36.86-4.17 1.32-6.64 3.44-4.31 3.16-7.82 2.96-12.99 2.54l-2.67-.15q-4.22-.26-8.44-.56l-5.43-.34q-4.2-.24-8.38-.51c-22.15-1.38-44.28-1.7-66.46-1.66l-6.61.01c-35.35.04-70.6.76-105.87 3.12l-2.94.2c-39.11 2.61-78.06 6.07-116.76 12.42-4.95.81-9.71 1.51-14.74 1.44l-2.62-.02L377 647v-2c2.06-1.36 4.11-2.6 6.25-3.81 16.42-9.6 32.15-20.33 47.75-31.19l1.91-1.33c35.71-24.95 35.71-24.95 42.41-33.32 2.18-1.75 4.4-2.11 7.09-2.71 48.36-11.95 95.24-37.91 138.99-61.19a462 462 0 0 1 17.1-8.57l2.45-1.19 2.27-1.07 2-.95C647 499 647 499 650 499" fill="#ECEEEC"/><path d="M920.94 126.81h3.25c7.68.05 7.68.05 8.8 1.2q2.51.22 5 .36c4.68.38 8.67 1.27 13.04 2.91 1.97.72 3.93 1.23 5.97 1.72a108 108 0 0 1 24 11l2.03 1.05c5 2.62 9.05 5.52 13.15 9.4A23 23 0 0 0 1002 158v2l1.94.31q1.01.33 2.06.7l1 3q2 .52 4 1c5.56 4.25 9.38 10.08 13 16l1.42 2.14c4.03 6.52 6.26 13.72 5.24 21.44-1.21 4.34-2.95 7.63-6.72 10.34-4.66 2.56-10.01 5.36-15.43 4.82-12.57-3.76-21-11.98-29.82-21.19a34 34 0 0 0-7.83-5.57 98 98 0 0 1-5.92-3.49l-2.05-1.28a80 80 0 0 1-4.7-3.35c-4.5-2.64-9.16-3.64-14.2-4.87l-3.61-1.07q-1.67-.44-3.38-.93l-3.81-1.13c-4.76-1.04-9.46-1.06-14.31-1.06h-2.32c-5.98.06-11.77.6-17.56 2.2l-2.26.53c-7.8 2.07-13.46 5.81-19.68 10.83C875 191 875 191 873 191l-.68 1.7c-1.68 2.93-3.93 4.91-6.32 7.3-2.48 3.38-4.01 5.98-5 10-.96 2.3-2.01 4.53-3.06 6.78A36 36 0 0 0 856 223c-.9 2.83-1.83 5.6-2.97 8.35a68 68 0 0 0-2.47 8.15A32 32 0 0 1 846 250l-2.06 4.92a92 92 0 0 1-11.58 19.32C831 276 831 276 829.19 279c-2.62 3.58-5.66 6.17-9.02 9.05a36 36 0 0 0-4.73 5.07A43 43 0 0 1 805 302h-2l.92 1.65 2.65 4.77 2.77 4.97c7.73 13.82 12.27 27.07 15.2 42.54C825 358 825 358 826 360q.31 3.71.5 7.43c.37 7.16.37 7.16 1.5 10.57q.14 3.45.14 6.9v2.03l-.01 4.26v14.44A47 47 0 0 1 827 414v4c0 3.3-.33 5.83-1 9v3c0 3 0 3-.47 5.3a71 71 0 0 0-1.03 8.9q-.4 6.02-1.06 12.05a87 87 0 0 0-.38 11.74c-.06 2.01-.06 2.01-.56 3.98-.56 2.26-.56 4.2-.5 6.53.06 2.26.09 4.16-.5 6.35a28 28 0 0 0-.63 6.66v12.69c.13 1.8.13 1.8 1.13 2.8q.07 5.09-.04 10.18c-.06 5.62-.06 5.62 1.04 7.82q.15 3.63.14 7.27v2.18l-.01 4.58v13.53A33 33 0 0 1 822 562v2.5c0 2.5 0 2.5-.47 4.34-.8 3.24-.97 6.5-1.25 9.82C820 581 820 581 819 584l-.68 5.94c-.43 2.8-1.42 5.37-2.32 8.06q-.06 2.5 0 5c-.62 3.58-1.52 7.06-2.5 10.56-1.44 5.2-1.44 5.2-2 7.5-.75 2.9-1.78 5.7-2.78 8.52-.83 2.78-1.26 5.55-1.72 8.42l2.42.38c57.92 9.16 57.92 9.16 69.58 19.62 1.24 2.2 1.24 2.2 2 4-2.76 5.64-5.51 7.6-11.44 9.7a180 180 0 0 1-19.06 4.5l-2.41.45c-20.53 3.61-41.4 3.75-62.17 3.72l-7.01.01c-26.48.01-52.85-1.03-79.28-2.38-30.44-1.55-60.8-2.4-91.28-2.38h-8.53c-24.9 0-49.7.77-74.55 2.24l-6.56.38c-19.96 1.1-39.85 2.73-59.74 4.66l-7 .68c-32.51 3.13-64.94 6.97-97.36 10.97-50.56 6.23-50.56 6.23-66.14 6.42q-4.16.06-8.31.18l-5.91.1-2.67.06c-5.48.03-10.07-.8-15.26-2.57a62 62 0 0 0-9.63-2.1c-4.11-.72-6.2-1.16-9.25-4.14C236 690 236 690 236 688l-5-1v-3c-1-2.19-1-2.19-2-4 4.75-4.88 4.75-4.88 7-6l2 1v-6l-1.94 1.02c-13.76 7.1-25.31 8.15-40.03 3.73-6.23-2.3-10.31-7.05-13.53-12.69-2.88-6.9-3.2-12.06-.5-19.13 3.97-8.63 9.72-15.47 18.75-19 4.59-1.3 9.06-1.33 13.8-1.49 11.6-1.49 20.75-12.46 28.45-20.44 5-5 5-5 6.9-6.83A80 80 0 0 0 261 581l2-3h2l.75-1.8c1.25-2.2 1.25-2.2 3.13-3.5 2.49-2 3.57-4.22 5.05-7 1.56-2.48 3.77-3.93 6.07-5.7q1.58-2.45 3-5c2.06-2.8 2.06-2.8 4-5h2l.19-1.69c1.14-3.26 3.36-4.92 5.8-7.3q1.53-2.51 3-5 1.47-1.72 2.95-3.39A45 45 0 0 0 308 522l-1-3-2.94-.3c-4.56-.67-8.73-2.18-13.06-3.7l-4.68-1.5A66 66 0 0 1 276 509l-1.8-.76c-6.48-2.87-11.14-7.36-16.2-12.24l-1.71-1.64a446 446 0 0 1-5.41-5.24l-1.76-1.69A96 96 0 0 1 245 483v-3l-1.94-.69c-2.06-1.3-2.06-1.3-2.6-3.57L240 473q-.69-2.56-1.44-5.13a142 142 0 0 1-4.34-23.7 124 124 0 0 0-.5-4.3c-.7-5.39-.77-10.65-.66-16.08-.06-2.79-.06-2.79-.58-5.26-.58-3.07-.34-5.68-.04-8.78.83-10.55 1.08-20.99-.18-31.5-1.3-10.95-1.45-21.7-1.15-32.69q.11-4.28.18-8.55l.13-5.53.04-2.53c.19-5.84.84-12.04 4.99-16.52 4.17-3.54 6.87-4.76 12.35-4.69 3.75.44 6.73 2.04 10.02 3.82l2.09 1.1c6.55 3.46 12.76 7.4 18.89 11.56A83 83 0 0 0 290 330q1.19.75 2.44 1.5c8.1 4.75 14.38 5.3 23.64 2.98 4.19-.69 8.33-.6 12.57-.59l5.74-.04q4.49-.05 8.99-.03 4.35 0 8.7-.05l2.7.03c6.64-.12 9.68-2.12 14.22-6.8a201 201 0 0 1 3.25-2.69c3.25-2.76 6.2-5.77 9.19-8.8 13.48-13.73 13.48-13.73 20.8-13.95 5.1.12 8.25 1.8 11.76 5.44a24 24 0 0 1 3 6l.8 1.91a48 48 0 0 1 3.2 13.1l1 3a129 129 0 0 1 2.72 16.7c.42 3.38 1.14 6.7 1.88 10.03.4 2.26.4 2.26.4 6.26l1.58-.89q6.22-3.46 12.48-6.86c20.85-11.38 20.85-11.38 28.83-16.87 3.2-2.1 6.56-3.87 9.94-5.67a767 767 0 0 0 11.55-6.4l2.05-1.15q4.1-2.3 8.13-4.7c3-1.8 6.09-3.45 9.19-5.09l1.95-1.03q5.44-2.9 10.89-5.76 1.12-.6 2.29-1.2l4.4-2.32q5.45-2.88 10.72-6.06c4.16-2.23 8.42-4.2 12.75-6.07 2.46-1.06 4.35-2 6.5-3.62 1.75-1.3 1.75-1.3 4-1.75 3.3-.68 5.87-2.04 8.84-3.59a69 69 0 0 1 6.9-2.97q5.18-2.2 10.33-4.44c6.8-2.9 13.53-5.6 20.68-7.56 3.92-1.24 7.8-2.54 11.64-4a77 77 0 0 1 16.76-4.5c2.6-.5 2.6-.5 5.23-1.46 4.78-1.48 9.6-1.99 14.56-2.6l5.92-.76q1.3-.14 2.63-.33C670 256 670 256 673 255c3.78-.36 7.58-.47 11.38-.63l3.29-.13c7.56-.27 14.82-.13 22.33.76l5.56.5c2.92.27 5.6.77 8.44 1.5l7 1a134 134 0 0 1 31.32 9.5c4.89.66 6.62-.9 10.47-3.76l2.2-1.74c6.79-5 6.79-5 9-5l.76-1.75c1.44-2.59 3.16-4.16 5.25-6.25 5.98-6.85 9.9-14.96 14-23l1.64-3.15a46 46 0 0 0 2.92-7.92A90 90 0 0 1 812 205l1-2.5 4.07-10.17q.93-2.31 1.8-4.64c5.35-12.76 14.09-22 23.82-31.69l2.8-2.85 2.7-2.72 2.44-2.44c2.4-2.03 4.43-2.95 7.37-3.99l3-3c1.9-.85 1.9-.85 3.94-1.5 2.35-.76 3.95-1.4 5.88-2.97 2.89-2.03 5.7-2.7 9.12-3.6 6.69-1.78 6.69-1.78 9.58-2.98 9.64-3.69 21.27-3.13 31.42-3.14m-82.75 36c-12.48 13.96-19.27 30.32-25.13 47.91-5.1 15.25-11.45 28.08-22.06 40.28l-2.3 2.95c-2.81 3.38-6.1 5.76-9.7 8.24l-1.83 1.28q-1.76 1.24-3.55 2.44-2.09 1.42-4.12 2.95c-5.38 2.45-11.03-.27-16.31-2.1-16.32-5.42-34.4-8.86-51.61-8.97l-2.37-.02-7.52-.02h-2.6c-11.5.01-22.68.2-33.94 2.76-2.32.53-4.66.97-7 1.41-45.74 9.06-89.5 30.91-130.15 53.08l-3.22 1.75a1749 1749 0 0 0-53.44 30.41l-9.7 5.72-5.5 3.26A300 300 0 0 1 424 368l-.04-2.76c-.24-9.88-1.92-19.44-3.77-29.12l-.38-2.03c-2.01-10.76-3.97-21.05-11.81-29.09a12 12 0 0 0-9-1c-7.64 4.1-13.7 10.41-19.61 16.63a123 123 0 0 1-3.42 3.44 114 114 0 0 0-4.18 4.34c-7.2 7.04-13.23 7.68-22.84 7.64l-5.13-.12-10.11-.03-2.5-.02c-5.36 0-10.56.4-15.88 1.12-10.1 1.4-16.1 1.98-24.95-3.38l-2.36-1.36a273 273 0 0 1-16.45-10.63 136 136 0 0 0-14.13-8.26l-1.98-1.04c-3.98-1.97-7.03-2.83-11.46-2.33-4.83 2.32-6.95 4.96-9.18 9.63-1.51 4.36-1.33 8.7-1.24 13.26v3.12l.1 9.8.04 6.55.04 6.34.03 2.94c.07 5.58.44 11.06.98 16.62.39 4.6.43 9.21.48 13.83l.1 6.32.13 9.75c.17 13.33.72 26.48 2.28 39.73q.37 3.2.68 6.41c1.24 12.04 4.56 22.5 12.56 31.7l1.67 2.13c13.48 16.5 34.8 25.02 55.33 28.87q3 .09 6 0c-3.04 5.67-6.62 10.6-10.62 15.62l-3.77 4.8q-.92 1.15-1.86 2.36-3.56 4.56-7.06 9.15a562 562 0 0 1-13.7 17.07l-1.27 1.54a517 517 0 0 1-19.21 21.83q-2.44 2.63-4.86 5.3c-7.51 8.2-15.21 16.07-23.65 23.33l-2.06 1.81c-5.28 4-10.95 3.71-17.38 3.97-7.87.48-12.8 3.47-18.5 8.85-4.85 5.6-8.02 12.6-7.55 20.1a32 32 0 0 0 7.62 14.64c10.98 6.21 22.79 7.57 35.12 4.93 6.4-2.16 12.1-5.63 17.75-9.3l-.65 1.65c-2.65 7.16-3.92 13.5-.66 20.66 4.05 7.07 10.96 9.84 18.3 12.7 22.45 5.95 52.09-.18 74.7-2.95l6.78-.8c8.62-1.03 17.23-2.08 25.84-3.24q11.35-1.51 22.74-2.83l2.08-.24c48.9-5.76 97.66-10.58 146.87-12.95l2.98-.15c20.8-1.03 41.58-1.05 62.4-1.04h5.47c31.77.01 63.48.6 95.2 2.56a1029 1029 0 0 0 66.66 1.9q6.52-.03 13.03 0c69.3.15 69.3.15 91.26-12.27 1.38-2.69 1.38-2.69 2-5-7.46-8.4-17.41-10.44-27.94-13l-2.11-.53c-31.25-7.7-31.25-7.7-44.95-7.47l.72-2.47A488 488 0 0 0 816 584.2l.45-2.63c2.34-13.87 3.73-27.47 3.68-41.56v-2.96c0-5.13-.2-10.19-.63-15.3-.62-7.54-.65-15.06-.62-22.62v-2.2c.06-15.8.4-31.47 2.08-47.2 2.07-19.69 3.47-39.17 3.54-58.97l.03-2.96c.24-28.44-5.21-56.39-21.8-80.03C801 305 801 305 801 301c2.06-1.83 2.06-1.83 4.88-3.69 20.78-14.47 32.38-34.22 41.37-57.42q1.13-2.81 2.37-5.58a52 52 0 0 0 2.7-8.3c3.2-12.07 7.59-22.4 15.68-32l1.6-1.96c9.37-10.3 23.6-17.16 37.43-18.3 12.64-.6 24.77-.26 36.97 3.25l2.65.48c14.34 2.86 26.74 13 36.35 23.52 8.63 8.4 17.62 15.4 29.88 15.28 5.39-.49 9.3-2.4 13.06-6.28 2.64-4.97 2.74-10.52 2.06-16-5.5-16.39-19.4-28.35-33-38l-1.7-1.23C979.6 144.93 964.46 137 948 133l-3.4-.9c-38.04-8.7-79.57 2.08-106.41 30.71" fill="#E6E7E7"/><path d="m250 310 1 2-2 2c3 2 3 2 5.52 3.12 5.13 2.77 9.57 6.37 14.17 9.94l5.63 4.35 2.51 1.94A98 98 0 0 0 282 337v2l3 1v2h2v6l-2.63 1.17-3.49 1.58-3.45 1.55a60 60 0 0 0-26.09 24.65L250 379h-2l-.38 2.75A21 21 0 0 1 245 389h-3l-2-13v11l-2 1-1 17h-1l-.08-2.03-.36-9.28-.12-3.19-.12-3.18-.11-2.87q-.28-4.32-.71-8.64c-.54-5.71-.69-11.37-.74-17.1l-.02-3.13-.04-6.48q-.01-3.3-.06-6.59-.06-4.81-.07-9.62l-.05-2.95c.02-6.12.89-10.87 4.48-15.94 4.02-3.5 6.69-4.51 12-4" fill="#252624"/><path d="M406 304c7.17 4.36 9.47 11.37 11.41 19.27q.63 2.76 1.21 5.54l.65 2.93c4.35 20.14 4.35 20.14 3.73 27.26l-2 2c-.28 2.86-.47 5.64-.56 8.5-.32 8.26-.32 8.26-1.44 10.5h-2a133 133 0 0 1-3-8h-2l-3.46-4.29c-2.78-3.09-6.15-5.33-9.54-7.71l-1.95-1.5c-7.01-5.13-14.94-7.64-23.05-10.5l-5-2c.49-5.19 3.19-8.77 6-13l1.81-3.06c2.4-3.23 5.04-5.51 8.11-8.07a52 52 0 0 0 5.64-6.12c3.15-3.74 5.82-5.24 10.44-6.75v-2l-7 1c3.96-3.84 6.5-4.87 12-4" fill="#222420"/><path d="M376 550c2.9.47 3.87.87 6 3-16.12 17.83-16.12 17.83-24.61 25.11-5.4 4.68-10.37 9.8-15.39 14.89-5.57 5.65-11.12 11.24-17.15 16.4-3.15 2.72-6.14 5.61-9.16 8.48a262 262 0 0 1-16 13.96q-3.7 3-7.31 6.09Q288.71 641 285 644l-1.94 1.71c-5.67 4.39-12.35 4-19.23 4.15-2.94.11-5.07.37-7.83 1.14 5.76-6.15 12.54-11.11 19.2-16.24a618 618 0 0 0 25.25-20.42q4.07-3.5 8.17-6.96l1.65-1.4q5.04-4.25 10.17-8.42a676 676 0 0 0 14.22-11.97q5.17-4.46 10.39-8.84c4.61-3.87 9.14-7.8 13.57-11.87 4.62-4.25 9.38-8.23 14.26-12.17C375 551 375 551 376 550" fill="#EAEAEC"/><path d="M378 431c4.47-.67 6.77.23 10.31 2.81 2.74 2.11 3.57 2.83 4.69 6.19.82 6.72-.3 12.31-4 18-5.24 5.98-10.92 9.44-18.82 10.31-8.89.37-16.12-1.62-23.12-7.19-2.9-2.73-4.78-5.28-6.06-9.12 0-3.91.55-5.48 3.12-8.44L347 441l1.68-1.9A34 34 0 0 1 354 434c3.44.06 3.44.06 6 1v-2c15.19-2.21 15.19-2.21 20 1v3h2c-.31-1.94-.31-1.94-1-4l-3-1z" fill="#151815"/><path d="M236 430h1l.37 3.85q.65 6.76 1.36 13.53l.48 4.83c1.23 12.8 4.27 23.94 12.79 33.79l1.45 1.91C268.09 506.42 291.99 512.4 314 517c-.83 3.84-2.33 6.06-4.75 9.19l-1.19 1.55-2.63 3.41q-2.25 2.92-4.46 5.85A854 854 0 0 1 278 566l-1.46 1.77a499 499 0 0 1-19.01 21.58l-5.09 5.49-3.69 3.97-1.72 1.85c-5.44 5.84-10.88 11.63-17.15 16.59l-2.45 1.95c-5.15 3.81-8.22 5.14-14.74 5.3-9.08.42-15.12 2.06-21.86 8.35-4.7 5.51-7.81 12.56-7.31 19.89 1.33 6.29 3.91 11.66 9.36 15.26 9.41 5.36 21.93 5.53 32.35 3.31 6.62-2.29 12.73-5.8 18.77-9.31l-.66 1.87c-2.42 7.38-3.95 13.99-.84 21.38 2.13 3.84 4.89 5.69 8.7 7.74C253 694 253 694 255 696c-4.73 1.58-7.96 1.35-12.69-.25-3.16-1.67-4.61-2.66-6.31-5.75v-2l-5-1v-3c-1-2.19-1-2.19-2-4 4.75-4.88 4.75-4.88 7-6l2 1v-6l-1.94 1.02c-13.76 7.1-25.31 8.15-40.03 3.73-6.23-2.31-10.31-7.04-13.53-12.69-2.88-6.9-3.19-12.06-.5-19.12 3.97-8.64 9.71-15.48 18.75-19.01 4.59-1.31 9.06-1.33 13.81-1.49 11.59-1.49 20.74-12.46 28.44-20.44 5-5 5-5 6.9-6.83A79 79 0 0 0 261 581l2-3h2l.75-1.81c1.25-2.19 1.25-2.19 3.13-3.5 2.49-1.98 3.57-4.21 5.05-6.99 1.56-2.48 3.77-3.93 6.07-5.7a97 97 0 0 0 3-5c2.06-2.81 2.06-2.81 4-5h2l.19-1.69c1.14-3.25 3.36-4.92 5.81-7.31l3-5q1.44-1.7 2.94-3.38A45 45 0 0 0 308 522l-1-3-2.94-.31c-4.56-.65-8.73-2.17-13.06-3.69l-4.69-1.5A66 66 0 0 1 276 509l-1.79-.76c-6.49-2.86-11.16-7.35-16.21-12.24l-1.71-1.64a446 446 0 0 1-5.41-5.24l-1.77-1.69A91 91 0 0 1 245 483v-3l-1.94-.69c-2.06-1.31-2.06-1.31-2.6-3.57L240 473q-.7-2.57-1.44-5.12A154 154 0 0 1 235 451l-.41-2.27c-1-6.46.11-12.37 1.41-18.73" fill="#E6E6E7"/><path d="M378 431c4.47-.67 6.77.23 10.31 2.81 2.74 2.11 3.57 2.83 4.69 6.19.82 6.72-.3 12.31-4 18-5.24 5.98-10.92 9.44-18.82 10.31-8.89.37-16.12-1.62-23.12-7.19-2.9-2.73-4.78-5.28-6.06-9.12 0-3.96.57-5.51 3.19-8.5L347 441l3.19-3.31C353 435 353 435 355 435l-1 1.88c-1.65 5.14-2.09 10.28-.12 15.41 2.83 4.98 5.82 7.56 11.12 9.71 5.88.84 9.38-.04 14.23-3.46 3.53-3.08 5.37-6.15 6.15-10.78.29-5.45-.96-8.38-4.38-12.76v-2l-3-1z" fill="#EAD172"/><path d="m274 434 3 1-2 2.31c-3.01 4.57-2.85 9.43-2 14.69 1.93 5.13 5.08 8.97 10.05 11.37 3.77 1.22 7.07 1.52 10.95.63 4.53-2.4 8.1-5.14 10-10 .41-2.36.41-2.36.62-4.75l.23-2.42.15-1.83c3.16 1.37 3.99 1.99 6 5a20 20 0 0 1 0 9 24.4 24.4 0 0 1-14 9c-10.31 1.13-17.91-.14-26.06-6.64-4.99-4.6-7.82-9.62-8.69-16.42.05-2.01.05-2.01.75-3.94 3.27-3.04 7.03-5.02 11-7" fill="#DAC173"/><path d="m243 662 1 2-1.44 3.56c-2.36 6.06-2.62 11.64-.06 17.69 2.13 3.84 4.89 5.69 8.7 7.74C253 694 253 694 255 696c-4.73 1.58-7.96 1.35-12.69-.25-3.16-1.67-4.61-2.66-6.31-5.75v-2l-5-1v-3c-1-2.19-1-2.19-2-4 4.75-4.88 4.75-4.88 7-6l2 1v-6l-1.94 1.02c-7.83 4.04-14.22 6.29-23.06 5.98v-1l-5-1v-1l2.68-.08c12.68-.6 21.74-4.04 32.32-10.92" fill="#D5D7D7"/><path d="m820 460 3 1 .06 4.25.04 2.39c-.1 2.28-.55 4.16-1.1 6.36q-.06 2.25 0 4.5c.06 2.26.09 4.16-.5 6.36-.53 2.29-.63 4.3-.63 6.65l-.01 2.55.02 2.63-.02 2.66.01 2.54v2.32C821 506 821 506 822 507q.07 5.1-.04 10.19c-.06 5.61-.06 5.61 1.04 7.81q.13 3.7.1 7.41l-.01 2.22-.03 6.99-.01 4.75L823 558l-3 1-.08-2.64-.29-9.89-.13-4.24c-.2-6.93-.43-13.84-1.02-20.75-.62-7.47-.68-14.93-.67-22.42v-2.16c0-12.39.72-24.59 2.19-36.9" fill="#EAEAEE"/><path d="M332 464c2.75 1.69 2.75 1.69 4 4 0 2.5 0 2.5-1 5l-4 4c-1.25 3.25-1.25 3.25-2 6q-3 .06-6 0c-1-1-1-1-1.06-3.56L322 477l-1.88-.81C318 475 318 475 316 472c.15-3.06.47-4.5 2.71-6.63 4.13-2.47 8.64-2 13.29-1.37" fill="#656663"/><path d="M625 267c-1.52 3.04-3.75 3.12-6.93 4.18l-3.81 1.3-2.04.68c-22.83 7.74-44.5 17.83-66.11 28.47l-3.52 1.73-3.13 1.55C537 306 537 306 535 306c1.03-2.98 1.8-3.89 4.61-5.42q6.48-3.02 13-5.97A46 46 0 0 0 562 289l2.25-.44c3.3-.67 5.86-2.04 8.84-3.58A72 72 0 0 1 580 282q5.16-2.2 10.31-4.44c6.81-2.9 13.54-5.61 20.69-7.56l4.62-1.62c3.25-1.11 5.92-1.71 9.38-1.38" fill="#EBEBEC"/><path d="m744.81 625.88 2.96.04q1.1.05 2.23.08a105 105 0 0 1-6.44 3.04c-6.09 2.73-8.9 4.8-11.56 10.96h-2c-1.16 8.1-1 14.35 2 22-3.92-1.26-5.86-2.47-8-6-1.96-5.88-2.02-12.6.56-18.32 4.48-7.73 11.3-12.02 20.25-11.8" fill="#070807"/><path d="m274 434 3 1-2 2.31c-2.99 4.46-2.65 9.52-2 14.69l1.09 2.65C275 457 275 457 274 460c-3.44-.29-4.74-.73-7.19-3.25-2.9-4.4-4.54-8.35-4.47-13.75 1.39-4.23 5.92-6.05 9.66-8z" fill="#F5D863"/><path d="M378 431c4.47-.67 6.77.23 10.31 2.81 2.74 2.11 3.57 2.83 4.69 6.19.85 6.9-.79 11.93-4 18h-3l-.08-3.51-.17-4.61-.04-2.31c-.23-5.32-1.41-8.22-4.71-12.57v-2l-3-1z" fill="#F6DA5D"/><path d="M676.7 255.7c5.05.65 10.16.69 15.24.87l3.52.13 8.54.3v1l-2.64.05c-22.64.42-43.56 2.64-65.63 7.87q-5.32 1.26-10.73 2.08l-1-2c5.04-2.46 9.71-3.62 15.25-4.47 2.75-.53 2.75-.53 5.39-1.5 4.79-1.47 9.64-1.98 14.61-2.6l5.95-.74 2.65-.33c6.35-1.05 6.35-1.05 8.85-.65" fill="#EFF0F2"/><path d="M257 313c4.17-.32 6.37.46 9.88 2.69l2.62 1.65c3.23 2.15 6.37 4.39 9.5 6.66a91 91 0 0 0 8 4.5c3 1.5 3 1.5 5.44 3 6.13 3.59 9.57 4.59 16.56 3.5a77 77 0 0 1 9 2v1l-4.44.5-2.49.28-3.07.22-2.05.19c-6.3.33-10.25-1.35-15.57-4.57l-2.35-1.35a331 331 0 0 1-18.73-12.06A124 124 0 0 0 257 314z" fill="#E0E2E2"/><path d="m348 448 .75 2.44c1.25 2.56 1.25 2.56 3.37 3.37l1.88.19v4h2v2h2l2 4c-3.98.49-7.51.85-11.09-1.2-3.13-2.62-5.33-4.99-6.91-8.8-.12-2.75-.12-2.75 0-5 2-1 2-1 6-1" fill="#F5DC73"/><path d="M819 552h1l1 4.69.56 2.63c.69 4.2.52 7.6-.56 11.68-.29 2.55-.5 5.1-.72 7.66C820 581 820 581 819 584l-.38 3.62c-.73 6.22-2.01 11.98-6.62 16.38.89-9.29 2.57-18.44 4.18-27.63A217 217 0 0 0 819 552" fill="#DADCDF"/><path d="m355 435-1 1.88c-1.64 5.12-2.19 10.35-.02 15.41A42 42 0 0 0 362 462h-4v-2h-2v-2h-2v-4l-5-1-1-5h-4l-2 4c-.75-1.62-.75-1.62-1-4 2.41-4.71 8.29-13 14-13" fill="#E4D681"/><path d="M372 325c0 3 0 3-1.55 5.01-6.3 6.06-10.88 7.15-19.49 6.99l-3.39.03q-5.31.03-10.63-.03l-7.25.04q-8.84.03-17.69-.04c2.94-2.53 4.69-3.37 8.57-3.34h2.72l2.92.04 6.15-.03q4.84.01 9.68.05 4.68.02 9.35-.02l2.91.06c6.92-.08 9.94-1.9 14.7-6.76z" fill="#F0F2F0"/><path d="M407 302c5.24 2.34 7.87 5.68 10 11l1 2-3 3-.7-1.83c-3.51-8.61-3.51-8.61-8.3-11.17-3.77-.9-6-.55-9.4 1.3-8.49 5.82-15.5 13.32-22.6 20.7l-1-3c15.1-15.48 15.1-15.48 22-20 4.06-2.7 7.24-2.77 12-2" fill="#E6E7E7"/><path d="M824 414h1q.3 4.59.56 9.19l.17 2.62c.25 4.28.29 7.99-.73 12.19q-.29 3.24-.5 6.5A82 82 0 0 1 822 460h-2v7h-1a965 965 0 0 1 2.3-32.7l.59-6.87.39-4.39.35-3.96C823 416 823 416 824 414" fill="#DFDFE0"/><path d="M825 374c1.48 1.06 1.48 1.06 3 3 .36 3.2.36 3.2.33 7.12l-.01 2.1q0 2.2-.04 4.4-.04 3.36-.05 6.71c-.07 11.55-.07 11.55-1.23 16.67a69 69 0 0 0-.06 4.31L827 422l-2 1c-.98-11.05-.98-21.86-.56-32.94l.16-4.71q.18-5.67.4-11.35" fill="#F0F0F3"/><path d="m863.69 140.81 2.3.2a37 37 0 0 1-9 7.05c-11.7 7.34-19.97 16.85-28 27.94l-3 4v-2l-2-1a205 205 0 0 1 18.7-21l2.8-2.85 2.7-2.72 2.44-2.44c2.4-2.02 4.44-2.94 7.37-3.99l1.5-1.63c1.5-1.37 1.5-1.37 4.19-1.56" fill="#E3E3E5"/><path d="m944 176 2.83.76c2.48.74 2.48.74 6.17 2.24l1 3a180 180 0 0 1-17-4c-6.57-1.81-12.58-2.2-19.38-2q-2.63.08-5.27.12l-2.32.08C908 176 908 176 905 174a89.5 89.5 0 0 1 39 2" fill="#EAEAEB"/><path d="M236 430h1l.37 3.85c2.84 29.39 2.84 29.39 5.63 39.15h-3a180 180 0 0 1-5-22l-.41-2.27c-1-6.46.11-12.37 1.41-18.73" fill="#D1D1D2"/><path d="M821 346c2.41 2.41 2.49 3.7 3.06 7 .85 4.82.85 4.82 1.94 7q.38 2.43.62 4.88l.29 2.61c.09 2.51.09 2.51-.38 4.18-.76 3.36-.77 6.73-.85 10.16l-.06 2.27-.18 7.15-.13 4.86L825 408h-1l-.04-3.34c-.55-38.41-.55-38.41-3.44-54.37L820 347z" fill="#BABABD"/><path d="M183 655c2 3 2 3 3.04 4.9 3.98 7.08 8.69 9.54 16.27 11.79A85 85 0 0 0 218 674v1h-5l-1 2c-20.26-3.32-20.26-3.32-27-12-3.05-4.52-3.05-4.52-2.69-7.81z" fill="#E1E2E3"/><path d="m502 552 2 1-1.5 1.25a113 113 0 0 0-15.81 16.69C485 573 485 573 483 574q-3 .06-6 0l1-2h2v-2h2v-2c2.17-1.85 4.35-3.59 6.62-5.31l3.73-2.87 1.84-1.41c2.66-2.07 5.23-4.24 7.81-6.41" fill="#050707"/><path d="M913.7 126.87h16.06C932 127 932 127 933 128l3.5.44 3.5.56 1 2-39-1 1-2c3.57-1 7-1.13 10.7-1.13" fill="#F1F2F3"/><path d="M246 600c-4.23 9.77-16.64 19.31-26 24-2.46.07-2.46.07-4.81-.31l-2.4-.37L211 623a16.5 16.5 0 0 1 6.89-2.38c9.42-1.87 17.51-11.75 23.93-18.53C244 600 244 600 246 600" fill="#DFE0DF"/><path d="M905 130q6.38-.12 12.75-.19l3.6-.07c7.99-.07 15 .92 22.65 3.26l-2 2c-3.19-.31-3.19-.31-7-1-6.3-1.07-12.56-1.32-18.94-1.56l-3.23-.13L905 132z" fill="#212222"/><path d="m274 434 3 1-4 6-1-3-2 1-1 3h-3l1 3a149 149 0 0 1-1 7h2l-1 4c-3.22-4.06-4.62-7.63-4.62-12.93 1.11-3.71 4.25-5.08 7.46-6.94q2.07-1.08 4.16-2.13" fill="#E0CF76"/><path d="m703.13 254.31 2.84.1 2.66.14 2.4.11c1.98.34 1.98.34 3.98 2.34-1 1-1 1-4.34 1.02l-4.42-.14-2.36-.08-7.46-.24-5.03-.16-12.4-.4 1-2c7.46-1.69 15.54-1 23.13-.69" fill="#F1F2F4"/><path d="M233 402h2a531 531 0 0 1 1 37c-2.38-2.5-2.98-3.78-3.26-7.28l.14-3.66c.21-6.64.21-6.64-.4-9.54-.64-3.37-.33-6.42-.04-9.83z" fill="#EEF0F0"/><path d="M378 431c4.51-.68 6.81.26 10.38 2.88 2.08 1.61 2.08 1.61 3.62 3.12v2l-4 1v6c-1.97-1.97-2.85-3.47-4.06-5.94l-1.04-2.09C382 436 382 436 381 433l-3-1z" fill="#F0D666"/><path d="M820 525h1l1 10.88.29 3.07c.57 6.37.84 12.65.71 19.05l-3 1z" fill="#F3F5F6"/><path d="M819 552h1l1 4.69.56 2.63c.69 4.21.51 7.59-.56 11.68q-.36 3.92-.62 7.86L820 581l-2 1c-1.68-10.13-.27-19.91 1-30" fill="#E2E2E5"/><path d="m417 330 2 1a78 78 0 0 1 3 26l-2 1-1.5-9.5-.43-2.69A85 85 0 0 1 417 330" fill="#171818"/><path d="M236 322c1.3 3.91 1.15 7.61 1.12 11.69v2.62c-.07 10.9-.59 21.8-1.12 32.69h-1c-.68-12.35-1.23-24.64-.62-37l.13-2.71c.35-6.15.35-6.15 1.49-7.29" fill="#0A0C0A"/><path d="m1028 197 3 2c-.89 6.76-1.86 11.33-7 16-5.51 2.96-11.91 2.18-18 2v-1l2.63-.3c12.13-1.57 12.13-1.57 16.37-5.7 1.95-4.17 2.45-8.45 3-13" fill="#DEE0DF"/><path d="M912 173c-7.45 6.3-18.61 6.96-28 8 3.5-3.07 7.38-4.34 11.75-5.69l2.05-.68c4.89-1.53 9.08-1.84 14.2-1.63" fill="#D8D9DB"/><path d="m362 461 3 2-3 2 6.75.06 3.8.04c2.74-.08 4.87-.27 7.45-1.1-2.95 3.39-5.33 3.88-9.73 4.2-6.53.1-11.33-.46-17.27-3.2v-1l2.81-.38C359 463 359 463 362 461" fill="#DBC56F"/><path d="M232 333h1a430 430 0 0 1 1.19 28.94l.04 2.92v2.73l.01 2.43C234 372 234 372 232 374c-1.3-8.54-.9-16.97-.56-25.56l.16-4.5q.18-5.48.4-10.94" fill="#EEF1EE"/><path d="M888 181a39 39 0 0 1-6.38 5l-2.33 1.56c-2.29 1.44-2.29 1.44-4.52 2.5C873 191 873 191 872 193c-1.25 2.49-2.47 2.99-5 4 1.39-4.41 3.41-6.66 6.88-9.69l2.61-2.32c3.96-3.14 6.44-4.27 11.51-3.99" fill="#E8E8EA"/><path d="M306 445c5 5 5 5 5.49 7.46l-.18 2.35-.13 2.4L311 459l-5 1z" fill="#E8D272"/><path d="M736 260c7.77.71 15.6 2.25 22 7v2l-24-6z" fill="#D7D7D7"/><path d="M353 446h3v2h2v2h2v9c-5.04-2.52-5.67-4-8-9 .25-2.44.25-2.44 1-4" fill="#272217"/><path d="M814 601h2l-1.38 6.69-.77 3.76A49 49 0 0 1 811 620l-2-1c.45-6.87 1.92-11.85 5-18" fill="#EDEDEC"/><path d="M276 435c1.29 2.59.9 4.08.56 6.94A68 68 0 0 0 276 450h-2l-1 4c-1.97-3.94-1.46-8.71-1-13 1.07-2.47 2.22-3.94 4-6" fill="#302C1A"/><path d="m839 260 1 2c-2.77 6.84-7.17 13.79-14 17 1.83-3.94 4.16-7.54 6.5-11.19l1.22-1.94c3.04-4.75 3.04-4.75 5.28-5.87" fill="#E1E2E3"/><path d="M282 698h30c-4.07 2.04-7.2 2.5-11.62 2.75l-2.15.13c-5.64.26-10.79-.3-16.23-1.88z" fill="#DEDFE3"/><path d="M869 652c5.17 2.25 8.78 4.17 12 9-2.2 4.84-2.2 4.84-4 7-3.75.94-3.75.94-7 1 1-2 1-2 3.5-2.88 2.5-1.12 2.5-1.12 3.56-3-.06-2.12-.06-2.12-1.62-4.18A39 39 0 0 0 867 654z" fill="#E4E6E3"/><path d="M385 450h1v8l2 1c-2.12 2.12-2.12 2.12-5 4-3.31-.75-3.31-.75-6-2l1.24-1.39 1.64-1.86 1.61-1.83A28 28 0 0 0 385 450" fill="#E2C769"/><path d="M953 179c4.27 1.53 7.99 3.72 11.81 6.12l1.81 1.13L971 189l-3 2c-5.29-2.86-10.53-5.94-15-10z" fill="#DFDEE0"/><path d="M676.73 255.7c5.03.66 10.14.69 15.2.86l3.52.13 8.55.3v1l-36 1-1-2c3.62-1.85 5.8-1.92 9.73-1.28" fill="#CCCCCF"/><path d="M277 458c4.88 1.88 4.88 1.88 6 3q3.53.35 7.06.56l3.91.26 3.03.18c-1.59 1.89-2.54 2.89-4.98 3.47-6.05.08-10.46-1.37-15.02-5.47z" fill="#31240E"/><path d="M376 456h6c-6.5 6.86-6.5 6.86-11.03 7.11q-2.99 0-5.97-.11v-2l2.88-.38C371 460 371 460 373 458h3z" fill="#261F0D"/><path d="M644 263a46 46 0 0 1-9.44 3.69l-2.81.82c-2.93.52-4.9.26-7.75-.51 5.63-4.72 12.92-5.86 20-4" fill="#E1E1E3"/><path d="M808 617c1.62 1.44 1.62 1.44 3 4a24 24 0 0 1-2 9c-2.09 1.27-2.09 1.27-4 2a75 75 0 0 1 3-15" fill="#DFDFE0"/><path d="M348 458h8v2h2l2 4c-6.62.25-6.62.25-10-2v-2h-2z" fill="#F3D764"/><path d="m375 429 2 3-19 2c1.32-2.64 2.37-2.7 5.12-3.62 4.07-1.28 7.59-1.9 11.88-1.38" fill="#040304"/><path d="m853 223 2 2a150 150 0 0 1-5 15h-2c1.43-13.43 1.43-13.43 5-17" fill="#E5E5E5"/><path d="M386 313c-1.59 3.9-4.13 6.34-7.12 9.25l-2.76 2.7L374 327l-1-3 5.38-5.5 1.53-1.59c3.86-3.91 3.86-3.91 6.09-3.91" fill="#D3D5D6"/><path d="M372 325c0 3 0 3-1.86 5.04l-2.45 2.15-2.43 2.17C363 336 363 336 360 336c0-2 0-2 1.61-3.66l2.14-1.84 2.11-1.84A29 29 0 0 1 372 325" fill="#E6E6E8"/><path d="M953 132v3l-17-3v-1c6.44-2.66 10.6-1.39 17 1" fill="#D5D5D6"/><path d="M183 640h2q-.42 3.97-.88 7.94l-.23 2.28q-.36 2.9-.89 5.78l-2 1c-1.28-6.66-.81-10.82 2-17" fill="#EDEFEE"/><path d="M392 440h1c.45 7.11-.67 11.72-4 18l-2-4h3l-.07-1.79c-.1-4.55-.07-8.07 2.07-12.21" fill="#E8CF71"/><path d="m192 628 4 1-1.43 1.1c-4.04 3.27-6.57 5.97-8.57 10.9l-2-1c1.51-4.98 4.56-8.24 8-12" fill="#E5E5E5"/><path d="M237 387h4c-.88 5.54-.88 5.54-1.5 7.94-.72 2.99-1.09 6.01-1.5 9.06h-1z" fill="#050606"/><path d="m867 194 1 2c-1.18 2.24-1.18 2.24-2.88 4.88-1.95 3.04-3.47 5.54-4.12 9.12l-2-1c.55-4.28 2.02-6.85 4.56-10.31l1.94-2.68z" fill="#E1E3E2"/><path d="M208 673h19c-4.08 3.06-4.56 3.37-9.25 3.19l-2.7-.08L213 676v-1l-5-1z" fill="#D2D4D5"/><path d="M821 448h1c1.29 8.57 1.29 8.57 0 12h-2v7h-1l.44-8.38.12-2.4c.33-5.99.33-5.99 1.44-8.22" fill="#C7C7CB"/><path d="M239 457h1l.4 2.23.54 2.96.52 2.92A549 549 0 0 0 243 473h-3c-2.48-5.55-1.85-10.17-1-16" fill="#D0D1D0"/><path d="m746 603 2 7h-6v-6c2-1 2-1 4-1" fill="#E6E4E7"/><path d="M257 313c5.37-.84 8.8 2.08 13 5l-1 3-6-3.44-3.38-1.93L257 314z" fill="#D9D9D9"/><path d="m500 322 1 3-4.88 3-2.74 1.69C491 331 491 331 489 331c1.23-3.69 2.15-3.89 5.5-5.62 4.45-2.33 4.45-2.33 5.5-3.38" fill="#E7E7E9"/><path d="m255 312-1 5-6-2v-3c3.13-1.04 3.99-.93 7 0" fill="#121315"/><path d="m276 563 2 1c-1.43 5.01-3.98 6.94-8 10a25.4 25.4 0 0 1 6-11" fill="#EBEAF0"/><path d="M293 436c5.36.39 9.14 2.34 13 6v2c-4.72-1.62-8.94-4.11-13-7z" fill="#060607"/><path d="m721 257 2 1v2l-13-1c6.75-3.37 6.75-3.37 11-2" fill="#D9D9DC"/><path d="m819 504 3 3c-.24 4.38-1.02 7.04-3 11z" fill="#F4F4F6"/><path d="m246 691 9 4-1 2-9-3z" fill="#CCCCCE"/><path d="m877 659 4 3c-1.56 2.94-1.56 2.94-4 6-3.75.88-3.75.88-7 1l1-2 2.5-.75L876 665c.81-3.12.81-3.12 1-6" fill="#D9DADB"/><path d="m351 583 3 1q-1.61 1.73-3.25 3.44l-1.83 1.93c-2.02 1.72-3.33 2.22-5.92 2.63l2.88-3.38 1.61-1.89A73 73 0 0 1 351 583" fill="#191B1A"/><path d="m254 696 11 2-1 3-10-3z" fill="#E3E5E3"/><path d="M235 451h3c.96 2.88 1.11 4.7 1.06 7.69l-.02 2.45L239 463l-2-1c-.63-2.5-.63-2.5-1.12-5.56l-.51-3.07z" fill="#EFEFEE"/><path d="m273 454 2 3-1 3c-2.38-.31-2.38-.31-5-1l-2-3h6z" fill="#E7D266"/><path d="m345 442 2 1-1 5h-2l-2 4c-.75-1.62-.75-1.62-1-4 1.94-3.25 1.94-3.25 4-6" fill="#C6BE7B"/><path d="m393 305 3 1c-3.02 3.26-6.26 5.62-10 8 0-3 0-3 1.43-4.64l1.88-1.61 1.87-1.64z" fill="#DCDCDE"/><path d="m461 680-3 1v2l-14-1v-1l5.69-.5 3.2-.28c2.72-.19 5.39-.26 8.11-.22" fill="#DFE0E0"/><path d="m344 456 4 1v3h2v2l4 1-3 1c-1.82-1.14-1.82-1.14-3.69-2.81l-1.88-1.65C344 458 344 458 344 456" fill="#E5D37C"/><path d="M736 260c4.08.55 4.91.91 8 4l-10-1z" fill="#DDDDDF"/><path d="m1017 216 1 2q-2.16.55-4.31 1.06l-2.43.6c-2.26.34-2.26.34-5.26-.66v-2z" fill="#F1F4F1"/><path d="m1021 213 2 1c-1.05 1.49-1.05 1.49-3 3-3.36.29-3.36.29-7.19.19l-3.85-.08-2.96-.11v-1l2.77-.4 3.61-.54 3.58-.52C1019 214 1019 214 1021 213" fill="#B8BBB9"/><path d="M996 212a57 57 0 0 1 10 4v2a21 21 0 0 1-10-4z" fill="#E6E6E7"/><path d="m240 658 5 2c-1.31 2-1.31 2-3 4h-3l-1-3z" fill="#0C0E0B"/><path d="m271 638 3 1c-3.13 3.39-5.57 5.61-10 7 1.49-3.79 3.62-5.77 7-8" fill="#E5E6E6"/><path d="m420 480 2 1c-3.5 6.75-3.5 6.75-8 9z" fill="#080909"/><path d="M393 442h1v14h-2c-1.14-3.4-.84-5.77-.06-9.25l.59-2.7z" fill="#372712"/><path d="M824 365h2c1.37 4.52.47 7.59-1 12h-1z" fill="#EDEDF1"/><path d="m239 313 3 1-4 7h-2c.75-5.75.75-5.75 3-8" fill="#131713"/><path d="M264 499c3.38 1.19 5.65 2.28 8 5-1.69.81-1.69.81-4 1-2.75-2.44-2.75-2.44-5-5z" fill="#E0E1E3"/><path d="m241 309 3 1-2.31 1.81A58 58 0 0 0 236 317l-1-3c4.39-4 4.39-4 6-5" fill="#DADCDB"/><path d="m1020 213-1 2c-2.88.96-4.7 1.11-7.69 1.06l-2.45-.02-1.86-.04 1-2c3.98-1.17 7.87-1.08 12-1" fill="#060807"/><path d="m410 621 2 1c-1 3-1 3-4.06 4.69L405 628l-2-2 2.38-.81C408 624 408 624 410 621" fill="#202121"/><path d="m274 434 3 1-4 6-1-3-3-1c2.31-1.56 2.31-1.56 5-3" fill="#C1BC77"/><path d="M378 431h6l1 2c-.94 2.12-.94 2.12-2 4l-.81-1.94C381 433 381 433 378 432z" fill="#AF9B62"/><path d="M810 321c1.88.25 1.88.25 4 1a11 11 0 0 1 2 4l-1 2h-2z" fill="#E4E4E5"/><path d="m720 632 8 1-2 4h-3l1-4z" fill="#C1C4C1"/><path d="M472 580c-1.44 3.81-3.35 5.27-7 7l-2-1 3.38-3 1.89-1.69C470 580 470 580 472 580" fill="#E0E3E0"/><path d="m591 524 1 3-8 4c0-2 0-2 1.81-4.06C588 525 588 525 591 524" fill="#1E201F"/><path d="M387 459h3l-1 5-5-1c1.31-2 1.31-2 3-4" fill="#2E221A"/><path d="M384 433c2.78.38 4.59.67 6.81 2.44C392 437 392 437 392 439h-4v-3h-2v-2z" fill="#E0CE71"/><path d="m757 265 2.31.94q2.82 1.1 5.69 2.06l-1 2-6-1v-2l-2-1z" fill="#E8E8EA"/><path d="m838 164 2 1-7 8-1-2z" fill="#0A0A0C"/><path d="m526 555 1 3-6 2-2-2c4.75-3 4.75-3 7-3" fill="#1B1D1C"/><path d="M823 436a14 14 0 0 1 2 4c-.88 2.75-.88 2.75-2 5h-1c-.1-6.15-.1-6.15 0-8z" fill="#F2F2F2"/><path d="m389 311 2 1v2l2 1-3 2-2-5z" fill="#1A1A1E"/><path d="M650 260v2l-8 1 1-3c2.94-1.18 3.9-1.03 7 0" fill="#F0F0F2"/><path d="m730 258 7 3v1h-7z" fill="#ECEBEF"/><path d="m891 129 3 1v2c-2.71 1.35-5.01 1.07-8 1 1.63-1.71 2.87-2.93 5-4" fill="#EEEFED"/><path d="M358 573h2c-1.44 3.37-3.33 5.51-6 8l-2-1q1.42-1.76 2.88-3.5l1.61-1.97z" fill="#F4F7F7"/><path d="m489 567 3 2-1 2c-2.56.62-2.56.62-5 1 1.88-3.88 1.88-3.88 3-5" fill="#1A1C1D"/><path d="M572 533q2.51.43 5 1c-2.39 1.89-4.07 3.02-7 4 .88-3.88.88-3.88 2-5" fill="#1E201F"/><path d="m274 457 3 3-1 3c-1.94-.38-1.94-.38-4-1l-1-2h3z" fill="#E3D57C"/><path d="M277 458a37 37 0 0 1 8 4v2a37 37 0 0 1-8-4z" fill="#261B0F"/><path d="M424 356c2 1 2 1 2.69 2.81.34 2.38.04 3.92-.69 6.19h-2z" fill="#F0F2F2"/><path d="m656 258 2 3-8 1 1-3z" fill="#E1E2E0"/><path d="M838 163c-1.44 3.37-3.33 5.51-6 8 .38-2.78.67-4.59 2.44-6.81C836 163 836 163 838 163" fill="#D3D4D6"/><path d="m192 628 4 1-7 5c0-3 0-3 1.25-4.75z" fill="#DCDFDD"/><path d="M379 556c0 3.93-1.39 5.16-4 8h-2c1.44-3.37 3.33-5.51 6-8" fill="#0A0A0C"/><path d="m269 504 6 1v3l-6-2z" fill="#EFEFF1"/><path d="M419 332h2l2 4-3 4z" fill="#DFDFE1"/><path d="M367 331v2c-2.56 2.3-3.48 3-7 3v-2c2.56-2.3 3.48-3 7-3" fill="#DDDDE0"/><path d="M379 320c-1.39 3.37-2.98 4.99-6 7 .63-3.64 1.85-7 6-7" fill="#C9CBCA"/><path d="M888 181c-2.41 2.41-4.94 3.54-8 5 .38-1.94.38-1.94 1-4 2.46-1.23 4.28-1.07 7-1" fill="#F0F2F4"/></svg>