<svg style="background:transparent" version="1.1" xmlns="http://www.w3.org/2000/svg" viewBox="0 0 1248 704"><path d="m924.75 112.09 3.54.13 3.71.16 3.62.13c18.43.73 18.43.73 27.38 3.49l4.19.82c4.9 1.05 9.33 2.95 13.92 4.97 2.89 1.2 2.89 1.2 5.91 2.22 6.9 2.3 13.54 5.63 19.98 8.99l2.15 1.12c9.49 5.08 18.57 12.15 21.85 22.88.65 6.7-1.3 11.7-5.28 17.02-4.18 4.8-7.61 7.12-14.03 7.92-12.28.52-21.33-4.42-31.89-10.12-2.8-1.27-5.77-1.4-8.8-1.82q-2.5-.96-5-2h-6l-1-3c-2.88-1.12-5.96-1.5-9-2l-3.56-.62c-15.91-1.8-37.88-1.48-51.13 8.69L893 173l-2.5.94c-4.29 1.83-6.82 4.94-9.19 8.88L880 185h-2l.31 2c-.33 3.16-.91 4.18-2.62 6.75-4.22 6.35-5.72 12.76-6.69 20.25q-.95 3.52-2 7l-1.44 5.5A88 88 0 0 1 861 239q-.7 2.47-1.37 4.94c-1.45 4.99-3.75 8.79-6.63 13.06l-2.13 3.69c-.3.55-.3.55-1.87 3.3l-1.44 2.64c-1.87 2.85-4.12 5-6.56 7.37l-1.69 2.32L838 278h-2l-.56 2.13c-1.68 3.36-3.55 4.94-6.44 7.26-2.12 1.7-4.11 3.53-6.13 5.36A24 24 0 0 1 814 298c-3.31 1.88-3.31 1.88-6 4 0 4.8 1.21 6.3 3.81 10.25A64 64 0 0 1 819 327l1.63 3.13c1.45 3.03 1.89 5.56 2.37 8.87q.96 3 2 6a62 62 0 0 1 2.75 13.79c.25 2.2.25 2.2.75 4.68.89 4.47 1.14 9 1.5 13.53l.32 3.74c.55 6.96.72 13.36-.32 20.26q0 3.22.04 6.44l.02 4 .04 4A29 29 0 0 1 829 423q-.3 3.3-.5 6.63a444 444 0 0 1-1.79 19.96c-.4 3.76-.71 7.39-.71 11.16 0 3.25 0 3.25-.5 6a61 61 0 0 0-.5 10.57q.07 3.35 0 6.68l-1 1q-.14 2.36-.13 4.7l-.01 2.92.01 3.07-.01 3.02c.01 4.89.21 9.47 1.14 14.29q.06 2.16 0 4.32V521l1 1q.07 2.13 0 4.25c-.05 4.18.15 8.28.5 12.44 1.01 12.29 1.01 12.29-.5 15.3q-.07 2.8 0 5.58.07 2.7 0 5.43l-1 1q-.31 2.91-.5 5.82A51 51 0 0 1 823 582l-.5 3.5a72 72 0 0 1-1.5 7.5l-.44 3.38A57 57 0 0 1 818 606l-.44 3.38a42 42 0 0 1-2.73 9.45A76 76 0 0 0 810 638h3l1 1q2.71.53 5.46.95c13.05 2.09 25.9 4.4 38.73 7.62l3.44.85c9.55 2.44 18.76 5.1 26.37 11.58.79 1.97.79 1.97 1 4-3.78 6.49-8.97 8.12-16 10-11.46 2.94-23.05 4.49-34.81 5.69l-3.52.36c-20.23 1.92-40.43 2.1-60.73 1.7l-3.64-.06c-23.79-.44-47.52-1.52-71.27-2.78a1653 1653 0 0 0-86.81-2.1l-12.14-.01c-26.76-.1-53.37.44-80.08 2.2l-3.61.24q-10.37.7-20.7 1.58l-3.12.25c-43.13 3.55-86.09 8.43-129.06 13.56A5925 5925 0 0 1 317 700q-1.35.14-2.74.32c-5.57.62-11.03.78-16.63.68-8.1-.13-8.1-.13-10.58.5-11.62 2.88-25.76.83-37.05-2.5l-5-1c-5.53-1.25-10.69-3.22-15-7v-3l-4-2c1.35-7.34 1.35-7.34 4.44-10.43C233 674 233 674 236 673l1-3-1.98 1.03c-13.71 7-24.07 8.08-38.77 3.6-5.83-2.04-11.34-5.21-14.42-10.72-3.17-7.5-4.68-14.16-1.64-21.95 4.31-8.17 10.46-14.9 18.87-18.95 3.98-1.2 7.69-.94 11.81-.76 10.83.13 18.04-7.5 25.44-14.57 2.61-2.6 5.01-5.26 7.32-8.12a50 50 0 0 1 6.85-6.1c1.74-1.67 2.46-3.32 3.52-5.46l6-5 .97-1.97c1.18-2.33 2.41-3.33 4.47-4.9 3.31-2.72 4.73-5.22 6.56-9.13a53 53 0 0 1 6-7h2c1.33-1.72 1.33-1.72 2.81-4.06l1.62-2.5L286 551c3.36-4.95 7.05-9.5 11-14a68 68 0 0 0 10-15l-2.19.13c-3.09-.14-4.98-.91-7.81-2.13l-3.19-.87C281.19 515.4 268.47 509.3 259 500l-2.87-2.62c-2.15-2.4-2.41-3.4-3.13-6.38l-1.94-.93c-2.85-1.47-3.02-3.1-4.06-6.07l-1.5-2.5c-4.62-7.7-5.8-16.61-7-25.37l-.39-2.8L237 445l-.31-2.27c-1.52-11.11-1.97-22.16-2.3-33.37-.69-22-.69-22-2.91-30.3-.51-2.2-.65-4.18-.7-6.44l-.07-2.6-.06-2.8-.07-2.88-.14-6.05-.22-9.23-.13-5.9-.08-2.76c-.15-7.76-.17-14.15 4.99-20.4 4.08-3.67 7.41-5.58 13-6 7.2 1.82 13.66 5.09 19.68 9.39 3.7 2.57 7.62 4.75 11.52 7q2.74 1.57 5.44 3.22c4.17 2.46 8.59 4.44 13.36 5.39l2.44.63c2.86.42 4.74-.01 7.56-.63l8.28-1.5q2.67-.49 5.32-1.06c2.77-.5 5.43-.47 8.24-.37 2.16-.07 2.16-.07 4.95-.57 4.79-.74 9.52-.51 14.36-.43 11.79-.2 11.79-.2 16.62-5.1l1.56-1.68 1.68-1.73q2.64-2.73 5.24-5.5l5.28-5.48 3.26-3.41c2.57-2.7 4.78-4.71 8.21-6.17l2.75-2.12c5.27-3.04 9.35-2.32 15-1 4.72 3.08 5.63 6.89 7.25 12.12l1.06 2.94a171 171 0 0 1 4.47 16.73c.47 2.33.47 2.33 1.47 5.15.82 2.6 1.26 4.76 1.56 7.43C425 351 425 351 426 353q.34 2.8.56 5.63l.26 3.04.18 2.33 2.06-1.31a67 67 0 0 1 7.85-3.74 151 151 0 0 0 22.46-12.88c3.8-2.55 7.64-4.85 11.63-7.07l3.19-1.87c4.24-2.44 8.64-4.53 13.04-6.66A46 46 0 0 0 494 326q2.19-1.3 4.44-2.5c2.32-1.26 4.61-2.53 6.87-3.92 3.35-1.96 6.82-3.63 10.32-5.33a128 128 0 0 0 17.14-10C535 303 535 303 539 303l-1-3 3-2 1.75.63c3.68.6 6.24-1.74 9.25-3.63a129 129 0 0 1 16-8l3.63-1.56q4.16-1.76 8.37-3.44 5.14-2.19 10.25-4.43c3-1.3 6.05-2.41 9.12-3.5a131 131 0 0 0 10.44-4.2 82 82 0 0 1 16.97-5.37c3.88-.87 7.67-2 11.45-3.22 6.53-2.07 13.01-3.26 19.77-4.28 2.8-.45 5.59-.91 8.37-1.5 15.43-3.07 32.02-3.25 47.63-1.5l2.59.26c7.92.82 15.69 1.9 23.34 4.15q3.65 1.05 7.32 2.03l2.82.77q3.02.82 6.05 1.62l3.01.8 2.75.73C764 265 764 265 765 266c5.68.38 8.26-.76 12.81-4 3.19-2 3.19-2 6.94-3 3.25-1 3.25-1 4.56-2.87L790 254l2-4h3c3.54-1.14 4.83-3.04 6.71-6.15 2.23-3.2 5.05-5.91 7.78-8.7 1.51-2.15 1.51-2.15 1.24-4.42L810 229l2.44-1.68c2.92-2.64 3.01-3.56 3.56-7.32l1.44-2.18c2.83-5.1 3.31-10.91 4.06-16.63a31 31 0 0 1 2.5-8.2q1.48-4.35 2.87-8.74c2.22-6.41 4.58-12.45 8.13-18.25q1.41-2.64 2.81-5.31c3.79-6.95 7.15-12.78 14.19-16.7l.87-1.86c1.47-2.77 3.59-4.06 6.15-5.78a104 104 0 0 0 5.73-4.28c8.88-6.7 18.77-10.67 29.25-14.07l3.12-1.04c6.02-1.96 11.62-3.42 17.95-3.78 3.49-.32 5.95-1.23 9.68-1.1" fill="#121513"/><path d="m924.75 112.09 3.54.13 3.71.16 3.62.13c18.43.73 18.43.73 27.38 3.49l4.19.82c4.9 1.05 9.33 2.95 13.92 4.97 2.89 1.2 2.89 1.2 5.91 2.22 6.9 2.3 13.54 5.63 19.98 8.99l2.15 1.12c9.49 5.08 18.57 12.15 21.85 22.88.65 6.7-1.3 11.7-5.28 17.02-4.18 4.8-7.61 7.12-14.03 7.92-12.28.52-21.33-4.42-31.89-10.12-2.8-1.27-5.77-1.4-8.8-1.82q-2.5-.96-5-2h-6l-1-3c-2.88-1.12-5.96-1.5-9-2l-3.56-.62c-15.91-1.8-37.88-1.48-51.13 8.69L893 173l-2.5.94c-4.29 1.83-6.82 4.94-9.19 8.88L880 185h-2l.31 2c-.33 3.16-.91 4.18-2.62 6.75-4.22 6.35-5.72 12.76-6.69 20.25q-.95 3.52-2 7l-1.44 5.5A88 88 0 0 1 861 239q-.7 2.47-1.37 4.94c-1.45 4.99-3.75 8.79-6.63 13.06l-2.13 3.69c-.3.55-.3.55-1.87 3.3l-1.44 2.64c-1.87 2.85-4.12 5-6.56 7.37l-1.69 2.32L838 278h-2l-.56 2.13c-1.68 3.36-3.55 4.94-6.44 7.26-2.12 1.7-4.11 3.53-6.13 5.36A24 24 0 0 1 814 298c-3.31 1.88-3.31 1.88-6 4 0 4.8 1.21 6.3 3.81 10.25A64 64 0 0 1 819 327l1.63 3.13c1.45 3.03 1.89 5.56 2.37 8.87q.96 3 2 6a62 62 0 0 1 2.75 13.79c.25 2.2.25 2.2.75 4.68.89 4.47 1.14 9 1.5 13.53l.32 3.74c.55 6.96.72 13.36-.32 20.26q0 3.22.04 6.44l.02 4 .04 4A29 29 0 0 1 829 423q-.3 3.3-.5 6.63a444 444 0 0 1-1.79 19.96c-.4 3.76-.71 7.39-.71 11.16 0 3.25 0 3.25-.5 6a61 61 0 0 0-.5 10.57q.07 3.35 0 6.68l-1 1q-.14 2.36-.13 4.7l-.01 2.92.01 3.07-.01 3.02c.01 4.89.21 9.47 1.14 14.29q.06 2.16 0 4.32V521l1 1q.07 2.13 0 4.25c-.05 4.18.15 8.28.5 12.44 1.01 12.29 1.01 12.29-.5 15.3q-.07 2.8 0 5.58.07 2.7 0 5.43l-1 1q-.31 2.91-.5 5.82A51 51 0 0 1 823 582l-.5 3.5a72 72 0 0 1-1.5 7.5l-.44 3.38A57 57 0 0 1 818 606l-.44 3.38a42 42 0 0 1-2.73 9.45A76 76 0 0 0 810 638h3l1 1q2.71.53 5.46.95c13.05 2.09 25.9 4.4 38.73 7.62l3.44.85c9.55 2.44 18.76 5.1 26.37 11.58.79 1.97.79 1.97 1 4-3.78 6.49-8.97 8.12-16 10-11.46 2.94-23.05 4.49-34.81 5.69l-3.52.36c-20.23 1.92-40.43 2.1-60.73 1.7l-3.64-.06c-23.79-.44-47.52-1.52-71.27-2.78a1653 1653 0 0 0-86.81-2.1l-12.14-.01c-26.76-.1-53.37.44-80.08 2.2l-3.61.24q-10.37.7-20.7 1.58l-3.12.25c-43.13 3.55-86.09 8.43-129.06 13.56A5925 5925 0 0 1 317 700q-1.35.14-2.74.32c-5.57.62-11.03.78-16.63.68-8.1-.13-8.1-.13-10.58.5-11.62 2.88-25.76.83-37.05-2.5l-5-1c-5.53-1.25-10.69-3.22-15-7v-3l-4-2c1.35-7.34 1.35-7.34 4.44-10.43C233 674 233 674 236 673l1-3-1.98 1.03c-13.71 7-24.07 8.08-38.77 3.6-5.83-2.04-11.34-5.21-14.42-10.72-3.17-7.5-4.68-14.16-1.64-21.95 4.31-8.17 10.46-14.9 18.87-18.95 3.98-1.2 7.69-.94 11.81-.76 10.83.13 18.04-7.5 25.44-14.57 2.61-2.6 5.01-5.26 7.32-8.12a50 50 0 0 1 6.85-6.1c1.74-1.67 2.46-3.32 3.52-5.46l6-5 .97-1.97c1.18-2.33 2.41-3.33 4.47-4.9 3.31-2.72 4.73-5.22 6.56-9.13a53 53 0 0 1 6-7h2c1.33-1.72 1.33-1.72 2.81-4.06l1.62-2.5L286 551c3.36-4.95 7.05-9.5 11-14a68 68 0 0 0 10-15l-2.19.13c-3.09-.14-4.98-.91-7.81-2.13l-3.19-.87C281.19 515.4 268.47 509.3 259 500l-2.87-2.62c-2.15-2.4-2.41-3.4-3.13-6.38l-1.94-.93c-2.85-1.47-3.02-3.1-4.06-6.07l-1.5-2.5c-4.62-7.7-5.8-16.61-7-25.37l-.39-2.8L237 445l-.31-2.27c-1.52-11.11-1.97-22.16-2.3-33.37-.69-22-.69-22-2.91-30.3-.51-2.2-.65-4.18-.7-6.44l-.07-2.6-.06-2.8-.07-2.88-.14-6.05-.22-9.23-.13-5.9-.08-2.76c-.15-7.76-.17-14.15 4.99-20.4 4.08-3.67 7.41-5.58 13-6 7.2 1.82 13.66 5.09 19.68 9.39 3.7 2.57 7.62 4.75 11.52 7q2.74 1.57 5.44 3.22c4.17 2.46 8.59 4.44 13.36 5.39l2.44.63c2.86.42 4.74-.01 7.56-.63l8.28-1.5q2.67-.49 5.32-1.06c2.77-.5 5.43-.47 8.24-.37 2.16-.07 2.16-.07 4.95-.57 4.79-.74 9.52-.51 14.36-.43 11.79-.2 11.79-.2 16.62-5.1l1.56-1.68 1.68-1.73q2.64-2.73 5.24-5.5l5.28-5.48 3.26-3.41c2.57-2.7 4.78-4.71 8.21-6.17l2.75-2.12c5.27-3.04 9.35-2.32 15-1 4.72 3.08 5.63 6.89 7.25 12.12l1.06 2.94a171 171 0 0 1 4.47 16.73c.47 2.33.47 2.33 1.47 5.15.82 2.6 1.26 4.76 1.56 7.43C425 351 425 351 426 353q.34 2.8.56 5.63l.26 3.04.18 2.33 2.06-1.31a67 67 0 0 1 7.85-3.74 151 151 0 0 0 22.46-12.88c3.8-2.55 7.64-4.85 11.63-7.07l3.19-1.87c4.24-2.44 8.64-4.53 13.04-6.66A46 46 0 0 0 494 326q2.19-1.3 4.44-2.5c2.32-1.26 4.61-2.53 6.87-3.92 3.35-1.96 6.82-3.63 10.32-5.33a128 128 0 0 0 17.14-10C535 303 535 303 539 303l-1-3 3-2 1.75.63c3.68.6 6.24-1.74 9.25-3.63a129 129 0 0 1 16-8l3.63-1.56q4.16-1.76 8.37-3.44 5.14-2.19 10.25-4.43c3-1.3 6.05-2.41 9.12-3.5a131 131 0 0 0 10.44-4.2 82 82 0 0 1 16.97-5.37c3.88-.87 7.67-2 11.45-3.22 6.53-2.07 13.01-3.26 19.77-4.28 2.8-.45 5.59-.91 8.37-1.5 15.43-3.07 32.02-3.25 47.63-1.5l2.59.26c7.92.82 15.69 1.9 23.34 4.15q3.65 1.05 7.32 2.03l2.82.77q3.02.82 6.05 1.62l3.01.8 2.75.73C764 265 764 265 765 266c5.68.38 8.26-.76 12.81-4 3.19-2 3.19-2 6.94-3 3.25-1 3.25-1 4.56-2.87L790 254l2-4h3c3.54-1.14 4.83-3.04 6.71-6.15 2.23-3.2 5.05-5.91 7.78-8.7 1.51-2.15 1.51-2.15 1.24-4.42L810 229l2.44-1.68c2.92-2.64 3.01-3.56 3.56-7.32l1.44-2.18c2.83-5.1 3.31-10.91 4.06-16.63a31 31 0 0 1 2.5-8.2q1.48-4.35 2.87-8.74c2.22-6.41 4.58-12.45 8.13-18.25q1.41-2.64 2.81-5.31c3.79-6.95 7.15-12.78 14.19-16.7l.87-1.86c1.47-2.77 3.59-4.06 6.15-5.78a104 104 0 0 0 5.73-4.28c8.88-6.7 18.77-10.67 29.25-14.07l3.12-1.04c6.02-1.96 11.62-3.42 17.95-3.78 3.49-.32 5.95-1.23 9.68-1.1M860 138.99l-2.58 2.1c-18.38 15.64-26.87 37.14-32.42 59.98-5.68 23.35-15.75 45.03-36.99 58.16-4.6 2.72-9.28 5.28-14.01 7.77l-1.93 1.16c-2.61 1.06-3.95.78-6.68.15l-2.67-.61a330 330 0 0 1-10.25-2.8c-4.8-1.4-9.63-2.65-14.47-3.9l-2.56-.66c-28.66-7.12-62.01-5.66-90.44 1.66l-3.11.77c-47.08 11.66-92.4 34.39-134.2 58.67q-5.6 3.24-11.21 6.44l-5.22 2.99q-6.27 3.6-12.64 7.06a581 581 0 0 0-17.31 9.89c-27.88 16.3-27.88 16.3-37.31 20.18l.11-3.35c-.01-5.1-.85-9.96-1.8-14.96l-.54-2.9c-6.35-33-6.35-33-14.71-40.91-3.52-2.16-5-2.26-9.06-1.88-9.07 4.23-16.27 13.06-23.1 20.12A320 320 0 0 1 368 331l-1.76 1.88c-5.93 5.54-13.42 5.1-21.09 5.26-4.04.09-8.07.26-12.11.43l-2.39.1c-9.97.42-20.03 1.63-29.71 4.12-3.98.29-6.66-1.13-10.07-2.97l-2.06-1.07a346 346 0 0 1-19.63-11.44c-18.27-11.24-18.27-11.24-28.18-9.31-5.16 3.33-6.68 8.24-8 14-.4 4.32-.38 8.6-.31 12.94l.03 3.67c.17 13.36.49 27.17 2.8 40.36.48 3 .65 5.89.73 8.94l.09 3.4.1 3.63c2.27 70.32 2.27 70.32 24.56 93.06l1.8 1.9c12.37 12.06 32.57 18.25 49.2 20.1-12.77 18.03-26.01 35.58-40.5 52.26l-4.4 5.17A578 578 0 0 1 243 604l-2.38 2.5A130 130 0 0 1 225 620l-3.13 2.44c-4.25 2.35-9.22 1.97-13.95 2.14-5.58.25-9.4 1.19-13.92 4.42l-3.13 2c-5.15 4.63-8.25 11.44-9.42 18.17-.31 6.89.99 11.64 5.55 16.83 6.16 6.3 13.56 8.34 22.19 8.57h2.5l2.62-.01c10.72-.3 18.97-4.57 27.69-10.56l-1.5 3.38c-2.34 6.29-2.26 12.04-.37 18.44 4.32 7.34 11.58 10.9 19.52 13.27 12.66 3 25.82 1.82 37.35-4.1l1.89-.91c11.15-5.47 21.58-12.01 32.01-18.73q4.12-2.62 8.29-5.16 9.38-5.76 18.68-11.62a881 881 0 0 1 19.88-12.2c9.27-5.5 18.25-11.44 27.25-17.37l2.95-1.93a836 836 0 0 0 36.96-25.52q3.18-2.35 6.37-4.67l4.16-3.06 1.82-1.33a61 61 0 0 0 7.98-6.83c7.58-7.77 15.24-10.57 25.45-13.7 4.62-1.43 9.2-2.95 13.79-4.47l2.77-.9c26.32-8.64 51.01-21.26 75.75-33.6q2.5-1.22 5-2.47 11.47-5.71 22.93-11.47l2.03-1.01 8.16-4.1c7.75-3.9 15.51-7.78 23.38-11.44l2.24-1.04L652 499l.5 1.65a95 95 0 0 0 7 16.42l1.32 2.48c7.46 13.74 16.65 25.93 27.18 37.45l2.27 2.49c9.45 9.87 20.37 17.4 31.92 24.58 22.48 14.03 22.48 14.03 26.36 26.74.61 2.97.8 5.92 1.01 8.94l.26 3.55.18 2.7-2.94-.18c-6.42.02-12.95 2.12-17.71 6.55-4.74 5.73-7.24 11.94-6.75 19.39 1.26 7.06 6.92 10.43 12.35 14.4 8.22 4.95 15.22 5.39 24.68 5.34l3.78-.01c11.69-.23 22.25-1.84 30.92-10.42 16.03-19.83 20.48-51.61 25.05-75.82q.8-4.13 1.66-8.27c3.82-19.87 2.77-41.32 1.2-61.41-.47-6.97-.53-13.95-.55-20.94l-.01-2.47c-.04-23.68 2.43-47.21 4.66-70.76 2.1-24.2 2.41-49.71-3.34-73.4l-.55-2.37c-3.44-14.41-9.85-27.22-18.1-39.5C803 304 803 304 802 301l2.59-.75c20.92-7.62 38.85-28.73 48.46-48.2 5.86-12.67 9.53-26 12.95-39.48 4.85-19.14 12.03-34.25 29.38-45.05 11.89-6.37 23.98-8.25 37.31-8.08h2.11c11.68.1 22.2 1.55 33.2 5.56l4.35 1.5c6.7 2.36 13.18 5.04 19.44 8.43 7.83 3.8 15.71 4.03 24.21 3.07 5.24-1.95 8.13-4.6 11.06-9.31 1.37-5.37 2.25-9.82-.13-15.01-5.29-8.48-12.82-14.12-21.62-18.61l-2.46-1.28c-9.32-4.7-19-8.35-28.85-11.8l-3.62-1.26C933.37 108.5 890.55 114.1 860 139" fill="#BBBDBB"/><path d="m652 499 .76 1.67c16.28 35.66 37.91 62.29 71.06 83.49 11.86 7.6 22.19 14.79 26.18 28.84.2 3.43.2 3.43.12 6.88l-.05 3.49L750 626l-2.78.48c-6.7 1.27-12.21 2.42-17.67 6.63L728 634l-3-1a99 99 0 0 0-4.54-.3l-6-.24-3.36-.13c-57.76-2.16-115.67-2.58-173.41.05l-2.12.09q-21.86 1-43.68 2.57l-3.41.24-3.16.24-2.76.21c-2.57.27-5.03.76-7.56 1.27-3.74.27-7.47.44-11.21.62-5.08.34-10.1 1.07-15.14 1.76a963 963 0 0 1-16.91 2.09l-3.3.39-13.6 1.61-10.04 1.19-3.11.36-2.88.35-2.53.3c-2.15.31-4.18.8-6.28 1.33q-4.12.57-8.25 1.06l-2.26.28-5.49.66c3.18-3.52 6.74-5.79 10.81-8.12a388 388 0 0 0 21.04-13.44q3.56-2.38 7.13-4.73a742 742 0 0 0 31.88-22.14l4.29-3.14q3.15-2.3 6.29-4.62l1.82-1.33a60 60 0 0 0 7.98-6.83c7.58-7.76 15.24-10.57 25.45-13.7 4.62-1.42 9.2-2.95 13.79-4.46l2.77-.91c26.32-8.64 51.01-21.25 75.75-33.58l5-2.48q12.48-6.22 24.96-12.49l16.51-8.26q8.4-4.2 16.74-8.52C649 499 649 499 652 499" fill="#ECEEEC"/><path d="M413 496c0 3 0 3-1.18 4.58-8.75 8.63-18.74 14.27-29.82 19.42l-3.38 1.57a78 78 0 0 1-12.43 3.55c-7.97 1.77-7.97 1.77-10.19 2.88q-2.31.33-4.62.56l-2.48.26-1.9.18c3.83 5.29 8.39 8.6 13.77 12.27L363 543v2l1.7.37a46 46 0 0 1 7.05 2.69l2.42 1.1 1.83.84a104 104 0 0 1-14 14l-4.85 4.16-5.43 4.65-7.35 6.31a839 839 0 0 1-18.6 15.61 823 823 0 0 0-10.79 9.04l-6.66 5.66A731 731 0 0 1 287 627l-1.56 1.23-6.96 5.47a681 681 0 0 0-9.38 7.45l-1.92 1.54-3.65 2.96C259.34 649 259.34 649 256 649l1 4h-4c-4.24 1.32-5.77 4.33-8 8l-2-1-1.25 2.62c-3.33 5.08-9.38 7.04-14.75 9.38l-2.28 1.15c-9.27 2.9-22.7 2.14-31.52-1.74A29 29 0 0 1 182 658c-1.23-7.85.15-14.3 3.95-21.22A33 33 0 0 1 202 625q2.7-.06 5.39-.08c16.28-.32 25.57-11.13 36.61-21.92l2.49-2.4a184 184 0 0 0 10.67-11.48q3.06-3.5 6.22-6.93c3.89-4.32 7.59-8.77 11.25-13.29q3.11-3.78 6.31-7.49c7.9-9.19 15.04-18.91 22.19-28.69l1.53-2.08 2.86-3.94A54 54 0 0 1 313 520c2.7-.09 2.7-.09 6.12.13l3.81.2 2.01.12c12.41.68 23.94.54 36.06-2.45l2.78-.65c11.05-2.62 22.01-5.26 32.22-10.35l2.43-1.21A94 94 0 0 0 413 496" fill="#020303"/><path d="m924.75 112.09 3.54.13 3.71.16 3.62.13c18.43.73 18.43.73 27.38 3.49l4.19.82c4.9 1.05 9.33 2.95 13.92 4.97 2.89 1.2 2.89 1.2 5.91 2.22 6.9 2.3 13.54 5.63 19.98 8.99l2.15 1.12c9.49 5.08 18.57 12.15 21.85 22.88.65 6.7-1.3 11.7-5.28 17.02-4.18 4.8-7.61 7.12-14.03 7.92-12.28.52-21.33-4.42-31.89-10.12-2.8-1.27-5.77-1.4-8.8-1.82q-2.5-.96-5-2h-6l-1-3c-2.88-1.12-5.96-1.5-9-2l-3.56-.62c-15.91-1.8-37.88-1.48-51.13 8.69L893 173l-2.5.94c-4.29 1.83-6.82 4.94-9.19 8.88L880 185h-2l.31 2c-.33 3.16-.91 4.18-2.62 6.75-4.22 6.35-5.72 12.76-6.69 20.25q-.95 3.52-2 7l-1.44 5.5A88 88 0 0 1 861 239q-.7 2.47-1.37 4.94c-1.45 4.99-3.75 8.79-6.63 13.06l-2.13 3.69c-.3.55-.3.55-1.87 3.3l-1.44 2.64c-1.87 2.85-4.12 5-6.56 7.37l-1.69 2.32L838 278h-2l-.56 2.13c-1.68 3.36-3.55 4.94-6.44 7.26-2.12 1.7-4.11 3.53-6.13 5.36A24 24 0 0 1 814 298c-3.31 1.88-3.31 1.88-6 4 0 4.8 1.21 6.3 3.81 10.25A64 64 0 0 1 819 327l1.63 3.13c1.45 3.03 1.89 5.56 2.37 8.87q.96 3 2 6a62 62 0 0 1 2.75 13.79c.25 2.2.25 2.2.75 4.68.89 4.47 1.14 9 1.5 13.53l.32 3.74c.55 6.96.72 13.36-.32 20.26q0 3.22.04 6.44l.02 4 .04 4A29 29 0 0 1 829 423q-.3 3.3-.5 6.63a444 444 0 0 1-1.79 19.96c-.4 3.76-.71 7.39-.71 11.16 0 3.25 0 3.25-.5 6a61 61 0 0 0-.5 10.57q.07 3.35 0 6.68l-1 1q-.14 2.36-.13 4.7l-.01 2.92.01 3.07-.01 3.02c.01 4.89.21 9.47 1.14 14.29q.06 2.16 0 4.32V521l1 1q.07 2.13 0 4.25c-.05 4.18.15 8.28.5 12.44 1.01 12.29 1.01 12.29-.5 15.3q-.07 2.8 0 5.58.07 2.7 0 5.43l-1 1q-.31 2.91-.5 5.82A51 51 0 0 1 823 582l-.5 3.5a72 72 0 0 1-1.5 7.5l-.44 3.38A57 57 0 0 1 818 606l-.44 3.38a42 42 0 0 1-2.73 9.45A76 76 0 0 0 810 638h3l1 1q2.71.53 5.46.95c13.05 2.09 25.9 4.4 38.73 7.62l3.44.85c9.55 2.44 18.76 5.1 26.37 11.58.79 1.97.79 1.97 1 4-3.78 6.49-8.97 8.12-16 10-11.46 2.94-23.05 4.49-34.81 5.69l-3.52.36c-20.23 1.92-40.43 2.1-60.73 1.7l-3.64-.06c-23.79-.44-47.52-1.52-71.27-2.78a1653 1653 0 0 0-86.81-2.1l-12.14-.01c-26.76-.1-53.37.44-80.08 2.2l-3.61.24q-10.37.7-20.7 1.58l-3.12.25c-43.13 3.55-86.09 8.43-129.06 13.56A5925 5925 0 0 1 317 700q-1.36.14-2.76.32c-5.31.58-10.53.8-15.87.75l-2.17-.02-5.2-.05c2.84-2.83 5.78-2.52 9.61-2.8q2.5-.18 5-.4l2.74-.2c19.2-1.5 38.29-3.71 57.39-6.21 40.3-5.26 80.64-9.67 121.13-13.14l3.56-.3Q502.71 676.9 515 676q1.84-.16 3.72-.28c25.73-1.94 51.41-2.04 77.2-1.97h10.3c34.3.05 68.53.4 102.78 2.5a1101 1101 0 0 0 69.89 2q6.54 0 13.06.02c34.99.08 34.99.08 52.05-2.27l3.73-.5q4.68-.65 9.33-1.43l3.02-.48c19.94-3.24 19.94-3.24 23.92-7.6h2c-1.77-6.13-1.77-6.13-4.75-8.2-11.71-5.35-24.57-7.88-37.12-10.4q-3.84-.76-7.67-1.56a349 349 0 0 0-25.89-4.43C808 641 808 641 806 640c.55-7.68 2.5-14.53 4.75-21.87 4.11-13.9 6.97-27.83 9.25-42.13l.57-3.26c1.44-8.85 1.71-17.47 1.64-26.4l-.02-7c-.02-7.96-.32-15.83-.95-23.78-.47-6.97-.53-13.95-.55-20.93l-.01-2.47c-.04-23.68 2.43-47.21 4.66-70.76 2.1-24.2 2.41-49.71-3.34-73.4l-.55-2.37c-3.44-14.42-9.83-27.28-18.2-39.5C802 304 802 304 802 301l2.78-1.53c6.74-3.77 13.28-7.5 19.22-12.47l2.32-1.87c21.74-18.48 31.36-43.64 38.18-70.6 5.19-20.5 12.31-36.46 30.87-48 11.9-6.38 23.99-8.26 37.32-8.1l2.11.02c11.68.1 22.2 1.54 33.2 5.55l4.35 1.5c6.7 2.36 13.18 5.04 19.44 8.43 8.01 3.9 18.33 4.97 26.92 2.2 3.54-2 5.14-3.9 7.29-7.38 1.44-5.4 2.34-9.88-.1-15.11-5.13-8.15-12.08-13.15-20.53-17.51l-2.47-1.3c-9.33-4.72-19.03-8.4-28.9-11.83l-3.62-1.27a121.6 121.6 0 0 0-91.63 6.09A104 104 0 0 0 860 140l-2.36 1.86c-18.06 15.05-26.26 37.06-31.64 59.2-6.31 25.94-18.5 47.6-41.71 61.93q-2.47 1.43-4.98 2.83l-2.33 1.36c-6.25 3.3-10.35 2.85-16.98.82l-2.48-.68q-2.53-.7-5.05-1.42c-4.8-1.4-9.63-2.65-14.47-3.9l-2.56-.66c-28.66-7.12-62.01-5.66-90.44 1.66l-3.11.77c-47.08 11.66-92.4 34.39-134.2 58.67q-5.6 3.24-11.21 6.44l-5.22 2.99q-6.27 3.6-12.64 7.06a581 581 0 0 0-17.31 9.89A1419 1419 0 0 1 438 362.25C427.73 368 427.73 368 424 368l-.45-3.71c-6.05-47.56-6.05-47.56-16.49-57.54-3.51-2-5.09-2.11-9.06-1.75-9.07 4.23-16.27 13.06-23.1 20.12A320 320 0 0 1 368 332l-1.76 1.88c-5.93 5.54-13.42 5.1-21.09 5.26-4.04.09-8.07.26-12.11.43l-2.39.1c-9.97.42-20.03 1.63-29.71 4.12-3.98.29-6.66-1.13-10.07-2.97l-2.06-1.07a346 346 0 0 1-19.63-11.44c-18.29-11.25-18.29-11.25-28.18-9.31-4.29 2.8-5.47 5.64-6.61 10.53-.81 5.09-.68 10.2-.64 15.35l.01 3.69c.13 13.37.45 27.19 2.76 40.4.48 3 .65 5.89.73 8.94l.09 3.4.1 3.63c2.32 72.08 2.32 72.08 26.58 94.97 13.49 11.35 31.09 16.5 47.98 20.09a52 52 0 0 1-4.43 7.62l-1.45 2.07-1.56 2.19-1.61 2.28A442 442 0 0 1 287 555l-2.23 2.79a655 655 0 0 1-28.36 32.59q-2.99 3.26-5.85 6.62c-7.71 8.86-16.09 17.05-25.56 24l-3.13 2.44c-4.24 2.34-9.22 1.97-13.95 2.14-8 .36-12.95 3.15-18.92 8.42-4.59 6.62-6.97 13.17-6.52 21.24 1.05 5.57 3.9 9.09 7.77 13.08 6.69 4.1 13.69 5.27 21.44 5.25l2.63-.01c8.25-.22 14.44-2.53 21.68-6.56q1.19-.63 2.41-1.3A92 92 0 0 0 243 663l-.66 1.62c-2.62 7.02-3.85 14.05-1.15 21.26 3.96 6.83 11 9.9 18.29 12.23 5.62 1.35 11.28 1.1 17.02 1.02l3.36-.03q4.07-.03 8.14-.1l1 2c-12.18 3.49-27.07 1.52-39-2l-5-1c-5.53-1.25-10.69-3.22-15-7v-3l-4-2c1.35-7.34 1.35-7.34 4.44-10.43C233 674 233 674 236 673l1-3-1.98 1.03c-13.71 7-24.07 8.08-38.77 3.6-5.83-2.04-11.34-5.21-14.42-10.72-3.17-7.5-4.68-14.16-1.64-21.95 4.31-8.17 10.46-14.9 18.87-18.95 3.98-1.2 7.69-.94 11.81-.76 10.83.13 18.04-7.5 25.44-14.57 2.61-2.6 5.01-5.26 7.32-8.12a50 50 0 0 1 6.85-6.1c1.74-1.67 2.46-3.32 3.52-5.46l6-5 .97-1.97c1.18-2.33 2.41-3.33 4.47-4.9 3.31-2.72 4.73-5.22 6.56-9.13a53 53 0 0 1 6-7h2c1.33-1.72 1.33-1.72 2.81-4.06l1.62-2.5L286 551c3.36-4.95 7.05-9.5 11-14a68 68 0 0 0 10-15l-2.19.13c-3.09-.14-4.98-.91-7.81-2.13l-3.19-.87C281.19 515.4 268.47 509.3 259 500l-2.87-2.62c-2.15-2.4-2.41-3.4-3.13-6.38l-1.94-.93c-2.85-1.47-3.02-3.1-4.06-6.07l-1.5-2.5c-4.62-7.7-5.8-16.61-7-25.37l-.39-2.8L237 445l-.31-2.27c-1.52-11.11-1.97-22.16-2.3-33.37-.69-22-.69-22-2.91-30.3-.51-2.2-.65-4.18-.7-6.44l-.07-2.6-.06-2.8-.07-2.88-.14-6.05-.22-9.23-.13-5.9-.08-2.76c-.15-7.76-.17-14.15 4.99-20.4 4.08-3.67 7.41-5.58 13-6 7.2 1.82 13.66 5.09 19.68 9.39 3.7 2.57 7.62 4.75 11.52 7q2.74 1.57 5.44 3.22c4.17 2.46 8.59 4.44 13.36 5.39l2.44.63c2.86.42 4.74-.01 7.56-.63l8.28-1.5q2.67-.49 5.32-1.06c2.77-.5 5.43-.47 8.24-.37 2.16-.07 2.16-.07 4.95-.57 4.79-.74 9.52-.51 14.36-.43 11.79-.2 11.79-.2 16.62-5.1l1.56-1.68 1.68-1.73q2.64-2.73 5.24-5.5l5.28-5.48 3.26-3.41c2.57-2.7 4.78-4.71 8.21-6.17l2.75-2.12c5.27-3.04 9.35-2.32 15-1 4.72 3.08 5.63 6.89 7.25 12.12l1.06 2.94a171 171 0 0 1 4.47 16.73c.47 2.33.47 2.33 1.47 5.15.82 2.6 1.26 4.76 1.56 7.43C425 351 425 351 426 353q.34 2.8.56 5.63l.26 3.04.18 2.33 2.06-1.31a67 67 0 0 1 7.85-3.74 151 151 0 0 0 22.46-12.88c3.8-2.55 7.64-4.85 11.63-7.07l3.19-1.87c4.24-2.44 8.64-4.53 13.04-6.66A46 46 0 0 0 494 326q2.19-1.3 4.44-2.5c2.32-1.26 4.61-2.53 6.87-3.92 3.35-1.96 6.82-3.63 10.32-5.33a128 128 0 0 0 17.14-10C535 303 535 303 539 303l-1-3 3-2 1.75.63c3.68.6 6.24-1.74 9.25-3.63a129 129 0 0 1 16-8l3.63-1.56q4.16-1.76 8.37-3.44 5.14-2.19 10.25-4.43c3-1.3 6.05-2.41 9.12-3.5a131 131 0 0 0 10.44-4.2 82 82 0 0 1 16.97-5.37c3.88-.87 7.67-2 11.45-3.22 6.53-2.07 13.01-3.26 19.77-4.28 2.8-.45 5.59-.91 8.37-1.5 15.43-3.07 32.02-3.25 47.63-1.5l2.59.26c7.92.82 15.69 1.9 23.34 4.15q3.65 1.05 7.32 2.03l2.82.77q3.02.82 6.05 1.62l3.01.8 2.75.73C764 265 764 265 765 266c5.68.38 8.26-.76 12.81-4 3.19-2 3.19-2 6.94-3 3.25-1 3.25-1 4.56-2.87L790 254l2-4h3c3.54-1.14 4.83-3.04 6.71-6.15 2.23-3.2 5.05-5.91 7.78-8.7 1.51-2.15 1.51-2.15 1.24-4.42L810 229l2.44-1.68c2.92-2.64 3.01-3.56 3.56-7.32l1.44-2.18c2.83-5.1 3.31-10.91 4.06-16.63a31 31 0 0 1 2.5-8.2q1.48-4.35 2.87-8.74c2.22-6.41 4.58-12.45 8.13-18.25q1.41-2.64 2.81-5.31c3.79-6.95 7.15-12.78 14.19-16.7l.87-1.86c1.47-2.77 3.59-4.06 6.15-5.78a104 104 0 0 0 5.73-4.28c8.88-6.7 18.77-10.67 29.25-14.07l3.12-1.04c6.02-1.96 11.62-3.42 17.95-3.78 3.49-.32 5.95-1.23 9.68-1.1" fill="#E6E7E7"/><path d="M404 304c5.83 2.67 8.56 8.17 10.73 13.89 1.83 5.63 3.23 11.37 4.65 17.11l.83 3.37.75 3.19.68 2.88c.36 2.56.19 4.14-.64 6.56l-2-4 .47 3.41c1.31 10.1 1.64 19.45.53 29.59-3.77-3.52-3.77-3.52-4.94-5.98C409.9 364.2 394.15 355.9 384 352l-2.8-1.09c-4.7-1.78-9.16-3.37-14.2-3.91 1.51-7.26 5.62-13.07 11-18l1-2h2v-2h2l.81-2.25A27 27 0 0 1 388 316h-2c.31-3.07.99-3.99 3.29-6.14l2.9-2.11 2.85-2.14c3.37-1.83 5.19-2.1 8.96-1.61" fill="#222420"/><path d="m248.13 322.94 3.31.03 2.56.03v2l6 2v2l2.06.67c3.79 1.7 6.73 4.06 9.94 6.65l1.82 1.43c9 7.14 9 7.14 11.3 11.25-.12 2-.12 2-2.19 4.63A21 21 0 0 1 274 358v2c-6.62 3.88-6.62 3.88-10 5v3c-1.37 1.3-1.37 1.3-3.2 2.66-4.13 3.37-6.23 7.04-8.56 11.78l-1.12 2.2A187 187 0 0 0 245 398h-3l-.4-3.21-.53-4.16-.28-2.12c-.67-5.28-.67-5.28-1.78-7.51a214 214 0 0 1-.54-8.01l-.13-2.42-.27-5.1-.4-7.71q-.15-2.47-.26-4.95l-.13-2.31c-.25-4.84-.31-9.65-.28-14.5l-2-1v27c-2.72-2.72-2.25-4.23-2.26-8.04l-.02-3.7q.03-1.91.03-3.88l-.03-3.82c.03-6.53.3-12.32 2.28-18.56l4 4 .38-1.94.63-2.06c2.75-1.38 5.03-1.1 8.12-1.06" fill="#262825"/><path d="M378.5 551.56 381 553c-1.58 3.88-4.23 6.5-7.16 9.4l-1.55 1.54-3.26 3.23-4.89 4.88a278 278 0 0 1-15.26 14.3c-3.63 3.2-6.99 6.7-10.38 10.15-4.72 4.8-9.49 9.45-14.59 13.84-2.99 2.6-5.85 5.32-8.72 8.03a261 261 0 0 1-15.4 13.37 248 248 0 0 0-7.79 6.55q-1.62 1.4-3.23 2.82c-7.35 6.32-12.89 9.63-22.77 9.7l-2.64.08q-3.18.07-6.36.11c3.51-3.6 7.15-6.95 11-10.19l1.71-1.44c4.37-3.67 8.86-7.15 13.41-10.6 5.07-3.87 9.92-7.98 14.76-12.12q4.26-3.63 8.62-7.15c6.24-5.08 12.37-10.29 18.5-15.5l6.62-5.63 1.64-1.38q5.16-4.37 10.43-8.62c4.45-3.62 8.73-7.39 12.97-11.25q4.15-3.76 8.4-7.4a84 84 0 0 0 4-3.78c5.21-5.06 5.21-5.06 9.44-4.38" fill="#EAEBEE"/><path d="M386 435c4.51.39 7.43 2.32 11 5 1.9 3.8 1.58 7.87 1 12-3.02 8.15-8.28 12.4-16 16-7.72 2.57-18.45 2.33-25.81-1.19-3.51-2.13-6.19-4.15-8.19-7.81-.88-3.62-.88-3.62-1-7l2-3q.54-2.5 1-5l1-2h3v-2h3v2l3 1 1.26-1.4c5.54-5.1 14.01-5.04 21.12-5.39C385 436 385 436 386 435" fill="#161914"/><path d="m280 443 1 2 2-2c9.58-.32 19.78 1.42 27 8l2.19 1c2.45 1.35 2.95 2.34 3.81 5 .5 3.44.5 3.44 0 7a23 23 0 0 1-6 5l-1.95 1.2c-6.45 3.4-12.89 3.89-20.05 2.8-9.17-3.02-15.88-8.16-20.44-16.69-.65-2.7-1.05-4.55-.56-7.31 3.53-3.63 7.84-6 13-6" fill="#141510"/><path d="M389 436c4.42 1.18 6.62 2.06 9 6 1.25 5.52.26 10.31-2.38 15.25-4.02 6.1-9.78 9.47-16.62 11.75-9.82.73-18.76 1.18-27-5-3.04-2.81-3.86-4.54-5.06-8.5.06-3.5.06-3.5 2.12-6.19 2.91-2.29 5.81-4.34 8.94-6.31l.04 1.69c.45 7.15 2.88 12.23 7.96 17.31a27 27 0 0 0 17.38-.19c3.94-2.72 7.01-6.25 8.62-10.81.49-5.31-.42-8.39-3-13z" fill="#DFC66B"/><path d="m242 663 1 2-1.44 3a23.3 23.3 0 0 0-.37 17.88c3.96 6.83 11 9.91 18.29 12.23 5.62 1.34 11.28 1.1 17.02 1.01l3.36-.02 8.14-.1 1 2c-12.18 3.48-27.07 1.52-39-2a276 276 0 0 0-5-1c-5.53-1.25-10.69-3.23-15-7v-3l-4-2c1.35-7.35 1.35-7.35 4.44-10.44C233 674 233 674 236 673l1-3-1.98 1.02c-7.47 3.82-15.38 7.83-24.02 6.98-2.81-1.99-2.81-1.99-5-4l3.01-.01c12.71-.27 22.45-3.7 32.99-10.99" fill="#D5D6D6"/><path d="m280 443-.5 1.94c-1.09 6.66-1.25 12.32 2.18 18.33 2.8 3.67 5.99 5.29 10.49 6.14 6.07.41 10.25-1.51 14.83-5.41 3.36-4.01 3.57-7.94 4-13 3.28 3.18 4.83 4.7 5.44 9.31-.44 3.69-.44 3.69-2.88 6.38A64 64 0 0 1 310 469l-1.95 1.2c-6.45 3.4-12.89 3.89-20.05 2.8-9.17-3.02-15.88-8.16-20.44-16.69-.65-2.7-1.05-4.55-.56-7.31 3.53-3.63 7.84-6 13-6" fill="#DAC482"/><path d="M806 308c2.83.34 3.79.73 5.6 3 3 5.25 5.4 10.3 7.4 16l1.62 3.12c1.46 3.04 1.9 5.57 2.38 8.88q.96 3.01 2 6a61 61 0 0 1 2.75 13.79c.25 2.21.25 2.21.75 4.68.89 4.47 1.14 8.99 1.5 13.53l.32 3.73c.55 6.97.72 13.36-.32 20.27q0 3.22.04 6.43l.02 4.01.04 3.99A29 29 0 0 1 829 423q-.3 3.31-.5 6.62c-1.45 21.81-1.45 21.81-4.5 26.38-.24-8.43.01-16.71.72-25.11 2.28-27.39 3.81-56-2.72-82.89l-.55-2.37c-2.86-11.99-7.73-22.96-14.19-33.46C806 310 806 310 806 308" fill="#E9E9EB"/><path d="m332.5 468.5 3.41-.03c3.66.63 4.87 1.6 7.09 4.53-.08 2.64-.77 3.72-2.44 5.75C339 480 339 480 337 480l.12 2.88C337 486 337 486 335 488c-2.5.25-2.5.25-5 0-2-2-2-2-2.88-4.44C326 481 326 481 323.88 479.5c-1.88-1.5-1.88-1.5-2.38-3.94 1.19-6.12 5.34-7.11 11-7.06" fill="#626361"/><path d="M745.19 626.94a273 273 0 0 1 5.8.06v1l-1.85.4-2.45.54-2.43.53C742 630 742 630 739 631l-1 3-2.31 2c-3.9 3.78-5.58 8.78-6.7 14 .18 3.09.89 5.04 2 8l1.14 3 .87 2c-4.42-1.35-6.36-3.23-9-7-2.25-4.5-1.62-10-.16-14.67 2.76-6.12 6.32-10.01 12.16-13.33 3.29-1.1 5.74-1.1 9.19-1.06" fill="#0B0D0C"/><path d="M375 551c3.44.62 3.44.62 6 2-1.6 3.99-4.4 6.67-7.41 9.64l-1.6 1.6-3.34 3.32q-2.57 2.54-5.13 5.1l-3.24 3.23-1.56 1.55c-3.6 3.56-3.6 3.56-4.72 3.56v-6h3c.99-3.09.88-4.9 0-8q4.03-3.7 8.11-7.37 2.54-2.29 4.97-4.7c1.73-1.68 1.73-1.68 4.92-3.93" fill="#E8EAEA"/><path d="m358 443 .04 1.69c.35 5.61 1.69 8.87 4.88 13.45 1.54 2.65 1.45 4.88 1.08 7.86h-6l-.75-1.94C356 462 356 462 354.12 461.38L352 461c-2.19-.62-2.19-.62-4-2-1.06-3.31-1.06-3.31-1-7 2.12-2.69 2.12-2.69 5-5l2.75-2.31C357 443 357 443 358 443" fill="#EECD6B"/><path d="M924 159c15.53-.62 29.25-.08 44 5l2.23.75c7.78 2.62 15.03 5.47 21.77 10.25l-1 3-4.69-2.31-2.78-1.38C981 173 981 173 978.31 171.19 976 170 976 170 972.5 170c-3.86 0-5.43-.77-8.5-3l-3 2-.74-1.93C959 165 959 165 957.12 164.21l-2.24-.4-2.47-.44L950 163l-3.69-.62c-5-.59-10.02-.41-15.04-.32A37 37 0 0 1 923 161z" fill="#F2F3F1"/><path d="M689 254v1l17 1v1l-2.69.01c-24.32.2-47.21 2.42-70.69 9.29-2.62.7-2.62.7-5.62.7v-2a68 68 0 0 1 11.06-3.56l3.1-.76L644 260l2-.5c14.49-3.62 28.07-5.87 43-5.5" fill="#E8E9E9"/><path d="m280 443-.5 1.94c-1.19 7.28-.69 12.42 2.5 19.06v3l2 1h-4v-2h-2v-2h-3c-1.69-1.19-1.69-1.19-3-3-.19-2.69-.19-2.69 0-5h-2v-6h2v-2l-2-1c6.43-4 6.43-4 10-4" fill="#F4D45F"/><path d="M267.57 323.32c3.74 2.59 7.69 4.8 11.63 7.07q2.74 1.57 5.44 3.22a44 44 0 0 0 11.61 4.96C298 339 298 339 301 341v3c-4.47-.63-8.2-2.35-12.19-4.37l-2.09-1.05a234 234 0 0 1-16.1-9.26C253.2 318.5 253.2 318.5 244 318v-1c9.06-2.16 16.21 1.07 23.57 6.32" fill="#DEDFE0"/><path d="M950 114c4.76-.23 8.45.61 13 2q2.09.42 4.19.81c4.9 1.05 9.33 2.96 13.92 4.97 2.92 1.23 5.88 2.22 8.89 3.22q2.83 1.14 5.62 2.38 1.39.58 2.79 1.21A24 24 0 0 1 1005 134l-2 1c-1.71-.6-1.71-.6-3.8-1.62l-2.37-1.14-2.58-1.24c-14.26-6.63-29.51-12.37-45.25-14z" fill="#DCDDDD"/><path d="M823 532h1l.08 2.06.36 9.38.12 3.24c.19 4.88.44 9.7 1.04 14.54l.4 3.78-1 1q-.31 2.9-.5 5.81A51 51 0 0 1 823 582l-.5 3.5c-.37 2.6-.83 4.98-1.5 7.5l-1 5h-2l-1 3c-.99-3.14-.96-5.28-.29-8.49l.53-2.64.57-2.75a226 226 0 0 0 4.81-41l.12-4.14z" fill="#DCDFE0"/><path d="m250 315 1 2-2.01.26c-4.33.69-7.37 1.3-10.99 3.86-4.07 5.85-4.31 12.62-4.41 19.54l-.21 9.84-.12 5.09q-.14 6.2-.26 12.41h-2q-.25-7.28-.48-14.57l-.17-4.95-.23-7.14-.08-2.21c-.21-7.34.11-13.26 4.96-19.13 5.11-4.23 8.27-6.58 15-5" fill="#EAECEA"/><path d="M822 500h1c1.37 6.45 2.21 12.5 1.97 19.1.03 1.9.03 1.9 1.03 2.9q.07 2.13 0 4.25c-.05 4.18.15 8.27.5 12.44 1.04 12.98 1.04 12.98-2.5 17.31l-.08-2.11-.36-9.51-.12-3.32-.12-3.22-.11-2.96c-.21-2.88-.21-2.88-.72-5.85-.51-3.16-.6-6.11-.59-9.3l.01-3.5.03-3.61.01-3.67z" fill="#E8E9EA"/><path d="m394 304 2 2-1.55 1.12c-7.36 5.57-13.7 12-20.12 18.62l-2.26 2.31-2.01 2.08A37 37 0 0 1 363 335c0-3.64 1.09-4.45 3.56-6.95l1.55-1.52 1.58-1.59 3.34-3.31q2.56-2.52 5.09-5.07l3.24-3.22 1.53-1.53c2.55-2.5 4.83-4.39 8.11-5.81z" fill="#DEDFE0"/><path d="m867 205 .46 1.86q.57 2.24 1.23 4.45c.33 2.87-.14 4.88-1.02 7.6-.8 2.51-1.45 5.04-2.11 7.59-3.29 12.04-3.29 12.04-7.56 15.5-1.29-2.59-.78-3.33.07-6.04l.77-2.49.85-2.66 1.67-5.43.85-2.74A469 469 0 0 0 867 205" fill="#DADBDB"/><path d="m349 458 1 2q2.97 1.1 6 2v2a60 60 0 0 0 8 2v-5l2.25 1c5.26 1.4 10.34 1.16 15.75 1v3h-10v2c-7.08 1.52-11.51.89-17.87-2.58A21 21 0 0 1 349 461z" fill="#D7C174"/><path d="M311 451c4.88 4.72 4.88 4.72 5.31 9.38-.31 3.62-.31 3.62-1.81 5.93-3.41 2.31-6.47 2.88-10.5 3.69l-1-3 2.38-1.75c4.86-4.17 5.01-8.11 5.62-14.25" fill="#D2BD6F"/><path d="M259 698c3.65.85 7 1.12 10.74 1.1l3.23-.01 3.34-.03 3.4-.01L288 699l1 2c-12.18 3.48-27.07 1.52-39-2q-2.5-.53-5-1v-1c4.99-1.61 9.09-.23 14 1" fill="#E8EAE9"/><path d="M385 432q3.53.9 7 2l1 2-7-1-1 2c-2.55.31-2.55.31-5.88.44-6.14.39-12.48.9-18.12 3.56-1.3 2.11-1.3 2.11-2 4v-3l-2-1 3-1v-2l7.5-1.94 2.11-.55a82 82 0 0 1 10.86-2.08C384 433 384 433 385 432" fill="#050503"/><path d="M233 360h1l3 39h-3l-.4-3.8-.54-4.95-.26-2.5-.26-2.42-.24-2.22c-.3-2.11-.3-2.11-.85-4.12-.5-2.21-.4-3.86-.11-6.1l.28-2.28.32-2.36.3-2.4z" fill="#DADBDB"/><path d="m291.25 441.25 2.28.08c7.66.42 12.24 2.98 17.47 8.67l-2 3-1-3c-6.97-4.55-16.75-6.6-25-6l-3 2c.37-1.94.37-1.94 1-4 3.24-1.62 6.71-.95 10.25-.75" fill="#040405"/><path d="m264 644 1 2 3-2c2.19.38 2.19.38 4 1v2h2v-3h2l-1 4 3 1c-2.29 1.15-3.8 1.2-6.35 1.32l-2.58.12-2.69.12-2.72.13-6.66.31z" fill="#EBEFEB"/><path d="m498 557 2 1c-1.38 1.5-1.38 1.5-3 3h-2v2h-2l-2 4h-2l-.75 2.88c-1.25 3.12-1.25 3.12-3 4.5-2.81.78-5.34.75-8.25.62l2-1 .73-1.75c1.84-3.26 4.67-5.13 7.65-7.31l1.74-1.32L494 560z" fill="#050606"/><path d="m355.75 448.25 2.25.75c.63 2.81.63 2.81 1 6-2.01 3.01-2.84 3.63-6 5l-1-4h-2c-.75-1.75-.75-1.75-1-4 2.12-3.02 2.98-4.09 6.75-3.75" fill="#F4D56D"/><path d="M267.88 323.5c2.92 2.07 6 3.76 9.12 5.5v3c-5.37-1.93-9.87-4.98-14.65-8.03-4.68-2.76-9.29-5.18-14.79-5.66l-3.56-.3v-1c9.2-2.2 16.42 1.17 23.88 6.5" fill="#D2D4D6"/><path d="m925.09 111.86 3.57.14 3.72.19 3.69.14c5.72.25 10.53.67 15.93 2.67v1l-37-1c4.33-3.24 5-3.35 10.09-3.14" fill="#EFF1F0"/><path d="M354 440h3v2h2l2 6h1c.98 6.05.98 6.05 1 8l-2 2c-2.76-4.79-3.53-8.59-4-14l-7 5-1-4 2-3h3z" fill="#342815"/><path d="m705.06 253.25 3.34.08 3.2.12 2.92.1c2.81.51 3.73 1.24 5.48 3.45a412 412 0 0 1-32-1c1-2 1-2 2.71-2.63 4.74-.77 9.57-.31 14.35-.12" fill="#F3F4F6"/><path d="M251 319c4.79.58 8.02 2.37 12 5 1.5 2.12 1.5 2.12 2 4l-1 2-4-1v-2l-6-2v-2h-3z" fill="#0A0B0D"/><path d="M823 532h1l.08 2.06.36 9.38.12 3.24c.19 4.88.44 9.7 1.04 14.54l.4 3.78-1 1q-.55 3.5-1 7h-2z" fill="#CECFCF"/><path d="m388 639 2 1-2 6 2 1-16 2a43 43 0 0 1 9.12-7.31l2.64-1.62z" fill="#E5E7E5"/><path d="m252 592 2 1c-5.92 7.08-12.43 13.53-19 20l-1-3z" fill="#D9DBD9"/><path d="m331 478 1 2h2l1 4 2-3c.12 2.38.12 2.38 0 5-2 2-2 2-4.5 2.25C330 488 330 488 328 486c-.62-2.62-.62-2.62-1-5l4-1z" fill="#585955"/><path d="M712 677c10.39-.12 20.64.17 31 1v1c-10.86 1.04-21.16 1.29-32 0z" fill="#E3E5E4"/><path d="m818 598 2 2-.94 2.56A61 61 0 0 0 817 613a90 90 0 0 1-1 4h-3c.27-7.35 1.27-12.62 5-19" fill="#EAEBEB"/><path d="M418 343c3.96 7.69 5.49 14.33 5 23l-2 1c-1.53-3.07-1.66-6.38-2.06-9.75l-.28-2.13c-.5-4.07-.76-8.01-.66-12.12" fill="#0C0E0D"/><path d="m382 463 5 1c-2.39 2.77-4.53 3.88-8 5-3.33.2-3.33.2-6.81.12l-3.52-.05L366 469v-1h6l-1-3c7.43-.14 7.43-.14 11 1z" fill="#E7CD86"/><path d="m280 443-.5 2.14c-.52 2.96-.6 5.67-.56 8.67l.02 2.96.04 2.23-4 1 .14-2.3.11-3.01.14-2.99c-.39-2.7-.39-2.7-2.41-4.56L271 446c6.75-3 6.75-3 9-3" fill="#D6C56D"/><path d="M828 396h1l2 7-1 1q-.1 3.78-.06 7.56l.01 2.16.05 5.28h-3a1259 1259 0 0 1-.09-11.16c-.01-4.08.06-7.86 1.09-11.84" fill="#F2F2F3"/><path d="M402 305c-.26 1.86-.26 1.86-1 4-1.71 1.23-1.71 1.23-3.81 2.19l-2.08.98c-2.03.8-3.99 1.36-6.11 1.83 2.09-6.83 5.86-9.66 13-9" fill="#0E1111"/><path d="M305 469c2.75-.44 2.75-.44 5-1-5.12 4.17-9.23 5.26-15.81 5.12l-3.52-.05L288 473c2.78-2.3 4.98-3.5 8.5-4.25l2.28-.52c2.37-.25 3.94.14 6.22.77" fill="#C9B57C"/><path d="m627 265-1 3a73 73 0 0 1-7.25 2.69l-2.03.68c-3.67 1.18-6.86 1.91-10.72 1.63 5.5-4.85 13.54-8 21-8" fill="#EDEDEF"/><path d="m812 613 1 4h2c-1.03 5.45-2.25 10.12-5 15l-2-1a292 292 0 0 1 4-18" fill="#DCDDDF"/><path d="M684.69 253.94a152 152 0 0 1 4.3.06v1l17 1v1h-29v-2c2.89-.96 4.7-1.1 7.7-1.06" fill="#B5B6B6"/><path d="M364 566h2l1 3-5.94 6-1.71 1.73A250 250 0 0 1 355 581h-1v-6h3c1.75-1.97 1.75-1.97 3.56-4.5A88 88 0 0 1 364 566" fill="#DFE1E0"/><path d="M242 462a43 43 0 0 1 3.62 9.44q.4 1.38.79 2.81c.57 2.67.7 5.02.59 7.75-4.52-3.9-6.25-10.2-7-16 .88-2.5.88-2.5 2-4" fill="#E5E6E3"/><path d="m298 613 2 3-11 9-1-4c1.93-2.9 2.66-3.58 5.56-5.12C297 614 297 614 298 613" fill="#0D0E0E"/><path d="m742 259 5.19 1.38 2.92.77c2.71.8 5.28 1.75 7.89 2.85v2a64 64 0 0 1-17-4z" fill="#E2E2E2"/><path d="M824 534c2.76 4.14 3.18 7.06 3.25 11.94l.08 3.15C827 552 827 552 824 556z" fill="#F1F3F4"/><path d="m284 471 1.55.46c3.22.71 6.4.89 9.7 1.1l3.83.26 2.92.18v2c-2.52 1.26-4.31 1.1-7.12 1.06l-2.76-.02L290 476v-2h-6z" fill="#1D1206"/><path d="m269 447 3 1v2h-2v6h2v5l3 1-3 1c-3.66-4.72-4.8-8-5-14z" fill="#D6C77B"/><path d="M822 470h3q.12 3.4.19 6.81l.1 3.83C825 484 825 484 822 487z" fill="#F2F3F4"/><path d="M833 281v3a77 77 0 0 1-6 5l-2.18 1.66q-2.9 2.18-5.82 4.34l-1-2h2l.79-1.8c1.29-2.34 2.55-3.62 4.59-5.32l1.77-1.51A32 32 0 0 1 833 281" fill="#EBEBED"/><path d="M924 159h17l-2 1v2l-5.19.06-2.92.04c-2.75-.1-5.21-.48-7.89-1.1z" fill="#F6F7F5"/><path d="M274 636a64 64 0 0 1-9 8c-1-3-1-3 0-6l-1-2c3.7-.95 6.3-.95 10 0" fill="#121412"/><path d="M876 655c5.24.41 8.29 1.18 12 5 1.06 1.94 1.06 1.94 1 4-1.94 2.75-1.94 2.75-4 5l-3-1 4-2c-2.05-6.39-2.05-6.39-4.76-8.13A64 64 0 0 0 876 656z" fill="#E3E6E3"/><path d="M216 623v2l-2.92.18-3.83.26-3.8.24A37 37 0 0 0 198 627l-1-3c6.48-2.5 12.18-1.83 19-1" fill="#EBEEEC"/><path d="M312 453h2c2.33 3.63 2.16 6.77 2 11l-4 2z" fill="#E4CE6A"/><path d="M822 346h3a53 53 0 0 1 3 12l-1 1q-.55 3.5-1 7h-1z" fill="#DADADC"/><path d="m247 319-1.81.69c-3.64 2.18-4.88 5.39-6.19 9.31-1.56-1.19-1.56-1.19-3-3 .08-3.13.59-4.54 2.69-6.88 3.1-1.5 5.03-.94 8.31-.12" fill="#1A1C1C"/><path d="m992 175 3.25.94c5.51 1.39 11.1 1.7 16.75 2.06v1l-3.44.38-3.56.62-1 2c-4.44-1.13-8.26-2.28-12-5z" fill="#D3D4D1"/><path d="M977 168c5.79 1.33 10.1 3.67 15 7l-1 3-4.75-2.31-2.67-1.3A34 34 0 0 1 977 170z" fill="#EBEDEA"/><path d="m1018 176 2 1c-1.14 1.95-1.14 1.95-3 4-2.7.61-2.7.61-5.69.75l-3.01.17-2.3.08-2-3 2.55-.4 3.33-.54 3.3-.52C1016 177 1016 177 1018 176" fill="#F0F1EF"/><path d="M389 436c5.75 1.75 5.75 1.75 8 4 .12 3.12.12 3.12 0 6-2-3.75-2-3.75-2-6h-2l1 2q.1 2.31.06 4.62l-.02 2.48-.04 1.9h-1l-.37-2.01c-.86-4.52-1.67-8.79-3.63-12.99" fill="#E9D88C"/><path d="m842 268 2 3-1.31 1.25C841 274 841 274 839.44 276.19L838 278h-2l-1 3c-2.56 1.19-2.56 1.19-5 2 3.8-5.19 7.76-10.16 12-15" fill="#DFDFE1"/><path d="M298 696v2h9v1l-19 1-1-2c3.82-1.42 6.91-2.24 11-2" fill="#C3C4C8"/><path d="M358 443v6l-2.31-.06C353 449 353 449 350 450l-1 7h-2c-.31-2.19-.31-2.19 0-5 7.68-9 7.68-9 11-9" fill="#DAC985"/><path d="M990 127c4.77.58 8.73 1.78 13 4 1.44 2.19 1.44 2.19 2 4-5.2-1.6-10.07-3.74-15-6z" fill="#D8DAD8"/><path d="m259 698 5 1-1 2a189 189 0 0 1-18-3v-1c4.99-1.61 9.1-.24 14 1" fill="#DFDFE2"/><path d="m244 662 4 2-4 8-3-1c.5-3.73.87-5.81 3-9" fill="#0B0D0B"/><path d="M393 440h2l2 2h1v10l-2 1v-3h-2z" fill="#E6CF68"/><path d="m375 551 6 2-2 4-1-2-2.88 1.5C372 558 372 558 370 558a19 19 0 0 1 5-7" fill="#DFE1E2"/><path d="M354 440h3v2l2 1-9 6-1-4 2-3h3z" fill="#211A0F"/><path d="M793 249q3.01.43 6 1c-5.14 6.57-5.14 6.57-9 8l-2-2 3-2c.62-2.06.62-2.06 1-4z" fill="#EAEBEC"/><path d="M281 511q2.16.67 4.31 1.38l2.43.77C290 514 290 514 293 516l-1 2-4.88-1.44-2.74-.81C282 515 282 515 280 514z" fill="#E4E5E4"/><path d="M305 466c-3.8 2.91-5.81 4.13-10.62 4.06l-2.48-.02-1.9-.04v-2c5.24-1.75 9.47-2.19 15-2" fill="#291F0E"/><path d="M421 341h3l-.12 2.06c.15 3.54 1.06 6.57 2.12 9.94l-3 2c-1.34-4.84-2.25-8.93-2-14" fill="#EEEEEF"/><path d="M830 179c1.47 3.81.43 6.29-1 10l-3-1c.53-3.82 1.5-6.06 4-9m-5 10h1v5l-2-1z" fill="#EEF0F0"/><path d="m864 133 3 1-2.25 1.75C862 138 862 138 859.94 140.31L858 142c-2.12-.39-2.12-.39-4-1l3.31-2.88 1.87-1.61C861 135 861 135 864 133" fill="#DDDDDF"/><path d="m285 624 3 1c-3.11 3.29-6.02 5.84-10 8 .12-2.25.12-2.25 1-5 2.88-2.38 2.88-2.38 6-4" fill="#161617"/><path d="m287 550 2 3-9 11-1-3c1.75-2.38 1.75-2.38 4-5q1.53-2.49 3-5z" fill="#E0E1E2"/><path d="m481 336 2 1 1 3c-6.62 2.88-6.62 2.88-10 4l-1-3q1.93-1.3 3.88-2.56l2.17-1.44z" fill="#1D1C20"/><path d="M390 455a19 19 0 0 1-5 7c-4.88-1.75-4.88-1.75-6-4 3.01-.93 3.87-1.04 7 0v-2c2-1 2-1 4-1" fill="#291A10"/><path d="m444 358 1 4-2.44.88C440 364 440 364 439 366l-6-1c3.46-2.77 7.14-4.85 11-7" fill="#1D1B1F"/><path d="m508 318 1 3q-1.86 1.3-3.75 2.56l-2.11 1.44c-2.14 1-2.14 1-4.41.65L497 325l1.64-1.02 2.17-1.36 2.15-1.33A272 272 0 0 0 508 318" fill="#E8E9EA"/><path d="M610 273c-4.62 2.5-9.7 5-15 5v-2c9.82-4.26 9.82-4.26 15-3" fill="#E2E3E4"/><path d="m242 690 10 5-2 2c-3.3-.33-4.62-.62-7-3l-2-3z" fill="#CCCCCE"/><path d="M822 500h1l1 5.19.56 2.92c.41 2.68.52 5.18.44 7.89l-3 1z" fill="#F3F4F4"/><path d="M422 352c3 2 3 2 4 5 .25 4.66.13 6.74-2 11z" fill="#D0D2D1"/><path d="M274 644h2l-1 4 3 1c-3.07 1.53-6.27 1.1-9.62 1.06l-2.15-.01L261 650v-1h11v-2h2z" fill="#D2D4D3"/><path d="M543 544h3v2h5l-5 5-4-2z" fill="#1C1D1D"/><path d="M615 515v2l-13 6-1-3 2.19-.25c2.81-.75 2.81-.75 5.37-2.81C611 515 611 515 615 515" fill="#1C1D1F"/><path d="M824 440c2.4 4.8 3.74 8.69 2.06 13.94L825 456h-1z" fill="#EEF0EE"/><path d="M677 255v2c-4.41 1.1-8.48 1.08-13 1v-2q2.4-.55 4.81-1.06l2.71-.6C674 254 674 254 677 255" fill="#EFF0F2"/><path d="M886 171h2c-1.5 3.82-3.77 5.56-7 8a85 85 0 0 0-3 3v-5l3-1 2.56-2.56z" fill="#1D1F1D"/><path d="M446 683v1c-6.23 2.35-11.46 1.88-18 1v-1c6.05-.9 11.89-1.11 18-1" fill="#E2E4E2"/><path d="m795 656 1 3-8 7-1-3 3-2 1-3c2.06-1.19 2.06-1.19 4-2" fill="#191A19"/><path d="M469 581c-1.45 3.83-3.43 5.12-7 7l-3-2h2l1-2c3.46-3 3.46-3 7-3" fill="#1B1D1B"/><path d="M494 564c.31 2.31.31 2.31 0 5-2.86 2.24-4.34 3-8 3 4.32-8 4.32-8 8-8" fill="#1A1C1D"/><path d="M278 560h1c.37 3.33.27 4.63-1.75 7.38L275 569c-2.14-.4-2.14-.4-4-1l3.44-4 1.93-2.25z" fill="#EDEEF1"/><path d="M310 451h1c.43 6.26-.07 9.09-4 14l-1-3h2l-.12-3.25c.11-3.41.33-4.96 2.12-7.75" fill="#211604"/><path d="M324 604h5l-2.81 3.5-1.58 1.97C323 611 323 611 320 611c.31-1.94.31-1.94 1-4l3-1z" fill="#F1F0F6"/><path d="m360 468 17 2v1l-13 1v-2h-4z" fill="#170D04"/><path d="m274 446 1 7-3 2-2-1v-4h2v-2l-2-1c3-1 3-1 4-1" fill="#F7DB70"/><path d="m308.69 338.88 2.45.05 1.86.06v2c-3.96.68-7.92 1.32-12 2v-2c3.2-2.12 4.02-2.23 7.69-2.12" fill="#EEF0EE"/><path d="M324 339c-3.63 2.33-6.77 2.16-11 2l1-3c3.94-1.31 6.12-.24 10 1" fill="#D8DAD9"/><path d="M237 420h1l1 18-3-2c-.06-2.8.04-5.35.31-8.12l.19-2.29q.23-2.8.5-5.59" fill="#BEC0BD"/><path d="M758 264c5.54.62 5.54.62 7.88 2.56L767 268c-4 1.6-7.05.29-11-1l2-1z" fill="#D8D8DA"/><path d="m201 674 16 1v1l-6.88.56-3.86.32C203 677 203 677 201 676z" fill="#EFF1F3"/><path d="m264 644 1 3 3 1-11 3z" fill="#E0E4E0"/><path d="m272 569 3 1-8 9-2-3z" fill="#DFE0E3"/><path d="m531 555-1 3c-3.06 1.19-3.06 1.19-6 2l-2-2c2.61-3.48 4.83-3.28 9-3" fill="#1C1E1D"/><path d="M278 459c2.95 2.43 3.32 4.32 4 8l2 1h-4v-2h-2z" fill="#E8D172"/><path d="M390 455c1.39 4.18-.18 6.13-2 10l-5-2 2.38-2.31C388 458 388 458 390 455" fill="#D8BD74"/><path d="M386 435c2.06.44 2.06.44 4 1v3h-2l-1 3-3-3c1-3 1-3 2-4" fill="#2D2722"/><path d="m250 315 1 2-11 1 1-3c3.51-1.17 5.44-.85 9 0" fill="#EEEFF2"/><path d="m351 662 1 2h-2l1 3h-2l-1 2-1-1q-2.5-.06-5 0a81 81 0 0 1 9-6" fill="#B3B4B3"/><path d="m805 638 1 2a41 41 0 0 0 4 2l-2 2h-3l-1 3z" fill="#C0C3C1"/><path d="M346 452h1l.59 1.86.79 2.45.77 2.43C350 461 350 461 352 464h-4v-2l-2-1z" fill="#1A0F03"/><path d="M397 452c1.23 3.69.64 6.21 0 10l-3 1v-2l-2-1z" fill="#2B2013"/><path d="M396 305h6l-1 4-5 1z" fill="#141619"/><path d="M388 639c-2.42 2.93-4.3 3.44-8 4l-3 1c1-3 1-3 4.38-4.75C385 638 385 638 388 639" fill="#1F2120"/><path d="m425 610 4 2-4 4-4-2z" fill="#1D1D1F"/><path d="M359 573h2c-1.49 3.8-3.76 5.61-7 8v-6h3z" fill="#D3D3D6"/><path d="M235 386h1l1 13h-3c-.08-4.52-.1-8.59 1-13" fill="#C6C7C7"/><path d="M568 287h2v3c-2.57 1.62-3.68 2.04-6.75 1.62L561 291l1-2q2.5-.56 5-1z" fill="#EDEEEE"/><path d="M714 254c2.5.31 2.5.31 5 1l1 2h-14v-1l3.44-.44C713 255 713 255 714 254" fill="#ECEDED"/><path d="m306 625 4 2v2c-2.38.62-2.38.62-5 1l-2-2z" fill="#1A181D"/><path d="M260 498c3.37 1.44 5.51 3.33 8 6-4.31-.48-6.17-1.75-9-5z" fill="#E4E3E4"/><path d="M802 301h2v2h2l2 5-3 1c-3-4.62-3-4.62-3-8" fill="#D9D9DB"/><path d="M184 662c2.5 2.31 2.5 2.31 5 5v3c-3.88-1.88-3.88-1.88-5-3q-.06-2.5 0-5" fill="#D5D5D8"/><path d="M188 663c1.94.31 1.94.31 4 1l1 3-3 2-3-4z" fill="#0B0B0F"/><path d="m818 598 2 2-3 9h-1c-.25-7.62-.25-7.62 2-11" fill="#F1F1F2"/><path d="m272 464 6 3v3l-3 1-2-2 1-3h-2z" fill="#1A110A"/><path d="m268 455 4 1v5l3 1-3 1c-4-5.75-4-5.75-4-8" fill="#E5CF7B"/><path d="M812 298c-1.26 2.51-2.66 3.48-5 5h-3v-3c3.09-1.76 4.23-2 8-2" fill="#EEEEEF"/><path d="M867 205a154 154 0 0 1 2 9l-4 2c.88-7.62.88-7.62 2-11" fill="#CECECE"/><path d="M894 119v2c-2.57 1.62-3.68 2.04-6.75 1.62L885 122c2.68-2.68 5.27-3 9-3" fill="#EDEDEF"/><path d="m196 625 2 2-7 5-2-2z" fill="#DDE0DF"/><path d="m470 581 3 1c-2.25 2.56-2.25 2.56-5 5-2.31-.19-2.31-.19-4-1 4.39-4 4.39-4 6-5" fill="#E6E9E6"/><path d="M235 368h3c.34 4.94.16 5.78-3 10z" fill="#070908"/><path d="m363 334-2 3c-1.95.29-1.95.29-4.12.19L353 337c1-2 1-2 2.75-2.62 2.45-.41 4.77-.45 7.25-.38" fill="#F0F0F1"/><path d="m488 330 3 2c-6.75 4-6.75 4-9 4 1.05-2.62 1.65-3.79 4.12-5.25z" fill="#DCDBE0"/><path d="M811 318a21 21 0 0 1 3 4c-.12 2.19-.12 2.19-1 4l-3 1 1-3a276 276 0 0 0-1-5z" fill="#1D1E1D"/><path d="M735 258c2.69.31 2.69.31 5 1l1 3-9-1z" fill="#DADADB"/><path d="m874 129 2 1a20 20 0 0 1-6 6v-2l-2-1z" fill="#202020"/><path d="m301 630 2 1Zm-2 1 2 1-4 5-4-1z" fill="#1E1C22"/><path d="M817 592h2l1 6h-2l-1 3c-1.11-3.33-.84-5.62 0-9" fill="#CFD1D1"/><path d="m352 464 7 3-3 3v-2h-4z" fill="#201509"/><path d="m391 455 2 3c-.88 2.69-.88 2.69-2 5l-3-1z" fill="#DFC87E"/><path d="m523 314 1 3c-3.38.84-5.67 1.11-9 0 5.75-3 5.75-3 8-3" fill="#1E1E1F"/><path d="M742 259q3.03.9 6 2l1 2c-5.75.12-5.75.12-8-1z" fill="#EEEDF2"/><path d="M663.13 256.94 666 258v1l-9 1q.48-1.48 1-3c2-1 2-1 5.12-.06" fill="#E2E4E5"/><path d="M826 189h2l-1 9-4-3 2-1c.62-2.56.62-2.56 1-5" fill="#E3E3E4"/><path d="m255 698 9 1-1 2-8-1z" fill="#E5E7E6"/><path d="m381.25 645.25 2.75.75c-3.01 3.01-5.82 2.6-10 3 3.2-4.06 3.2-4.06 7.25-3.75" fill="#DADDDA"/><path d="m410 621 4 2c-2.38 1.56-2.38 1.56-5 3l-2-1v-2z" fill="#1D1E1C"/><path d="M233 611c0 3 0 3-1.75 5.25L229 618l-4-1z" fill="#E7E8E7"/><path d="m238 606 3 1-7 6c.96-3.84 1.24-4.6 4-7" fill="#D1D3D0"/><path d="M522 561v2c-2.75 1.62-2.75 1.62-6 3-2.38-.81-2.38-.81-4-2l3.88-1.5 2.17-.84C520 561 520 561 522 561" fill="#D6D8D8"/><path d="M366 457v3h2v3c-3.16-1.37-3.99-1.99-6-5 2-1 2-1 4-1" fill="#342C13"/><path d="M278 443c-2.6 1.74-3.99 2.61-7 3l-2-2c3.35-2.11 5.22-2.05 9-1" fill="#1B1707"/><path d="m463 347 2 2-2 3-4-1v-2z" fill="#1B1A1D"/><path d="m323 336 7 1v2h-9z" fill="#F2F5F2"/><path d="m540 298 5 2-2 1v2l-5-2z" fill="#F0F0F1"/><path d="M854 247c.99 2.67 1.03 3.9.25 6.69C853 256 853 256 850 257z" fill="#E1DFE1"/><path d="m810 243 2 2c-6.62 3-6.62 3-10 3 2.69-2.25 4.65-3.88 8-5" fill="#09090B"/><path d="M870 201c1.53 3.07.55 5.7 0 9l-3 1c.75-7.75.75-7.75 3-10" fill="#F0F2F0"/><path d="m838 165 2 3c-1.38 2.5-1.38 2.5-3 5h-2c1.88-5.75 1.88-5.75 3-8" fill="#19191D"/><path d="m843 157 3 4-2 2c-2.12-.38-2.12-.38-4-1z" fill="#202022"/><path d="M949 159c-2.76 2.76-5.21 2.58-9 3l-1-2c3.21-1.61 6.44-1.06 10-1" fill="#ECECEB"/><path d="M950 114h6l1 3h-8z" fill="#E0E1E1"/><path d="M242 687c1.88.25 1.88.25 4 1a17 17 0 0 1 2 4c-3 0-3 0-4.69-1.38C242 689 242 689 242 687" fill="#1B1C1D"/><path d="m885 660 2 1c.12 2.88.12 2.88 0 6l-2 2-3-1 4-2z" fill="#D7D7DA"/><path d="m199 626 2 1-4 2v3l-4-2z" fill="#1D1E1E"/><path d="m298 613 2 3-4 3-2-2z" fill="#161717"/><path d="m382 553 2 1c-3.62 4.88-3.62 4.88-7 6a19 19 0 0 1 5-7" fill="#090B0D"/><path d="M267 456h1l1 7-3 1-1-3h2v-2l-2-1z" fill="#100E0A"/><path d="m353.06 443.94 2.94.06-5 5-2-4c1-1 1-1 4.06-1.06" fill="#2F2515"/><path d="M385 432q3.53.9 7 2l1 2-9-2z" fill="#0F0A04"/><path d="m368 332-1 4h-2l-1 3-2-1v-3c3.33-3 3.33-3 6-3" fill="#1C1C1E"/><path d="M577 286c-2.39 1.89-4.07 3.02-7 4v-4c2.67-1.33 4.17-.67 7 0" fill="#E1E3E2"/><path d="m779 262 2 2c-2.31 1.56-2.31 1.56-5 3l-3-1a36 36 0 0 1 6-4" fill="#E9EAEB"/><path d="m863 227 2 1-2 5h-2v-5z" fill="#E9E9E9"/><path d="m876 187 2 3-3 5-2-3 1-3h2z" fill="#F0F0F2"/><path d="m1024 172 2 1-5 5-2-1z" fill="#E8EBEB"/><path d="m977 168 7 2-3 3c-2-1.38-2-1.38-4-3z" fill="#E1E2E0"/><path d="M851 147c.69 1.81.69 1.81 1 4-1.44 1.75-1.44 1.75-3 3l-3-1z" fill="#1E1E20"/></svg>