<svg style="background:transparent" version="1.1" xmlns="http://www.w3.org/2000/svg" viewBox="0 0 1248 704"><path d="m522 33 1.69.77c3.28 1.74 6.35 3.79 9.43 5.85l2.02 1.35a174 174 0 0 1 13.79 10.42c2.52 1.96 5.2 3.24 8.07 4.61q1.93 1.41 3.81 2.88a75 75 0 0 0 10.89 6.82 79 79 0 0 1 9.06 6.26c3.06 1.42 4.91.6 8.24.04q4.12-.08 8.23.01l5 .08 2.66.05q7 .11 14.01.16 8.9.08 17.79.25 7.2.13 14.41.17 2.74.03 5.47.1c16.01.39 16.01.39 22.31-4.68L683 64q2.45-1.57 5-3 1.67-1.17 3.31-2.38a170 170 0 0 1 14.38-9.18C708 48 708 48 710.5 46a64 64 0 0 1 9.68-6.19l2.38-1.31 2.26-1.22C727 36 727 36 728.95 34.48c5.09-3.68 11.56-5.95 17.86-5.48 4.13.73 6.9 2.37 10.19 5l1.63 1.16c3.84 2.88 5.31 5.2 6.37 9.84l.62 2.44c1.17 7.98 1.17 7.98-.62 11.56q-.07 4.25 0 8.5c.14 8.23.14 8.23-1 10.5-.07 3.06 0 6.1.06 9.15C764 90 764 90 763 93c-.35 3.74-.43 7.5-.56 11.25l-.13 3.6c-.46 14.68-.36 29.37-.27 44.06l.01 3.02.04 5.6c.01 4.02-.09 7.92-.59 11.9-.65 5.28-.61 10.5-.56 15.81l.01 3.16.05 9.91a2863 2863 0 0 1 .09 16.15 268 268 0 0 0 .02 5.3c-.11 2.22-.5 4.11-1.11 6.24l-.65 2.4c-3.43 11.97-11.08 20.42-20.35 28.6h-2l-.81 1.81c-2.47 4.54-5.64 5.92-10.19 8.19-1.88 1.69-1.88 1.69-3 3 3 11.25 7.5 21.15 13.08 31.31 3.66 6.71 6.89 13.66 10.17 20.57l1.07 2.23 1.01 2.13.9 1.9c.8 1.94 1.3 3.82 1.77 5.86q.7 2.5 1.44 5l.74 2.56c.82 2.44.82 2.44 1.86 4.47 1.38 2.82 1.81 5.69 2.4 8.75.56 2.22.56 2.22 1.56 4.16 1.22 2.5 1.61 4.81 2.06 7.56.88 5.25.88 5.25 1.44 7.41.5 2.07.79 4.08 1.04 6.2l.26 2.28.26 2.36.28 2.4.66 5.85c2 0 2 0 4.19-1 5.17-1.84 9.24-1.39 14.24.67l2.66 1.1q4.62 1.96 9.22 3.96l3.32 1.43 6.74 2.95c5.78 2.49 11.22 4.51 17.45 5.5 3.86.69 7.49 2.08 11.18 3.39a453 453 0 0 0 6.96 2.35c3.14 1 5.72 1.65 9.04 1.65l5 3c2.74 1.23 5.52 2.33 8.31 3.44 15.1 6 15.1 6 20.88 10.62a59 59 0 0 0 6.69 4.63C893 441 893 441 895 444l2.35 1.36c3.1 1.92 4.84 4.02 7.09 6.89a177 177 0 0 0 7.87 9.44c2.98 3.45 4.84 7.16 6.69 11.31l1.03 2.19c7.94 17.23 11.62 36.93 8.97 55.81q-.94 2.52-2 5l.06 2.38c-.07 2.95-.97 5.01-2.21 7.66a60 60 0 0 0-2.29 6.52c-1.29 3.98-3.13 7.02-5.56 10.44l-1.56 3.31C914 569 914 569 911 570l-.44 1.75c-.97 3.88-3.79 6.48-6.56 9.25q-2.25 2.71-4.46 5.44C898 588 898 588 895 589l-1.84 2.33c-2.33 2.88-4.52 4.44-7.66 6.36l-2.84 1.76A115 115 0 0 1 876 603l-3.24 1.93a74 74 0 0 1-11.95 5.26l-2.11.78A83 83 0 0 1 849 614l-2.8.72-3.08.78-3.05.78c-7.51 1.76-14.92 2.04-22.59 2.28q-3.22.1-6.43.22c-7.76.26-15.33.15-23.05-.78l-5-.5c-2.59-.27-4.5-.67-7-1.5-3.12-1-3.12-1-7-1-5.8 3.27-9.8 7.93-14 13a130 130 0 0 1-8 6l1.54 1.07c7.35 5.27 12.28 10.41 15.46 18.93l1 2c.86 6-.95 9.19-4.2 13.98-6.45 7.22-17.68 7.46-26.8 8.02-9.27-.07-18.39-1.52-27-5l-5.06-1.69L698 670l1.39 1.1c6.54 5.36 9.95 10.92 12.61 18.9q.18 3.03.19 6.06l.04 3.23C712 702 712 702 710 704c-3.01.24-3.01.24-6.93.23h-2.16q-3.53 0-7.07-.03l-4.91-.01-12.91-.05-13.17-.04q-12.92-.03-25.85-.1l-1.46-4.31-.82-2.42a55 55 0 0 1-1.84-8.02l-.45-2.67L632 684l-.58-2.68c-.5-2.77-.07-4.59.58-7.32l.5-3.56c.5-3.44.5-3.44 1.5-7.44h-15l.5 3.94c.53 4.71.59 9.33.5 14.06q0 3.07.19 6.12c-.3 6.06-1.82 12.46-6.19 16.88-3.12.5-3.12.5-7.01.5l-2.15.02q-3.52 0-7.03-.02h-4.88l-10.24-.03q-6.56-.04-13.13-.02-5.04.01-10.08-.01h-4.84q-3.38 0-6.76-.04l-3.89-.01L541 704c-2.39-3.58-2.58-5.88-2-10 2.04-8.96 6.55-14.64 13-21l1.78-1.78L555 670l-2.67 1.09-3.52 1.41-3.48 1.41A21 21 0 0 1 537 675l-3 1c-12.98 1.37-28.32 2.77-40-4-4-3.56-5.33-6.06-6.06-11.38-.37-8.03 3.25-13.28 8.48-19.08A26.6 26.6 0 0 1 507 635l-2.06-1.62a357 357 0 0 1-8.17-6.86 410 410 0 0 0-5.08-4.27C489 620 489 620 487 618l-1.38-1.31C484 615 484 615 482.19 612.62a34 34 0 0 0-5.38-5.24C474 605 474 605 473 602l-3.42-3.38c-8.23-8.45-14.92-18.39-18.58-29.62q-1.17-2.37-2.44-4.69c-3.76-7.37-5.39-15.24-7.09-23.28-.47-2.03-.47-2.03-1.53-5.22-1.19-4.83-1.43-9.55-1.69-14.51-.25-3.3-.25-3.3-.77-5.79-.61-3.2-.61-6.25-.6-9.51l-.01-3.62c.11-2.94.49-5.52 1.13-8.38l.25-3.06c1.59-11.28 8.09-23.53 17.13-30.38 11.1-7.36 21.49-8.06 34.62-5.56l-.4-1.91-.54-2.59-.52-2.53c-1.39-7.68-1.99-15.45-2.66-23.22l-.31-3.26-.27-3.13-.25-2.83c-.05-2.43.28-4.22.95-6.53q.06-2.47 0-4.94c-.04-3.54.2-6.6 1-10.06q.24-2.19.44-4.38A62 62 0 0 1 490 378q.5-2.37.94-4.75c1.88-9.67 4.88-18.94 8.06-28.25l1.02-3.08c2.43-7.21 5.48-14.19 8.48-21.17l.86-2.04A71 71 0 0 1 516 307c1.42-2.63 2.71-5.31 4-8l1.03-2.13q1.56-3.25 3.09-6.49l1.06-2.2c5.77-12.2 5.77-12.2 4.82-17.18-2.2-2.11-2.2-2.11-5.25-4.19a387 387 0 0 1-5-3.55 170 170 0 0 1-8.5-6.64l-3.05-2.46L506 252v-3l-1.88-.69c-2.78-1.72-3-3.28-4.12-6.31l-1-2.08c-3.67-7.96-4.35-16.27-5-24.92l-.27-3.59c-.82-11.64-.82-23.25-.73-34.91q.05-5.51.06-11.03l.03-2.48c.02-4.71-.29-9.25-.87-13.92-.3-2.84-.31-5.65-.28-8.5l.02-3.47.08-7.06c.04-5.94-.13-11.71-.82-17.61a76 76 0 0 1-.22-7.82c.06-5.83-.43-11.56-1-17.36-.59-6.12-1-12.1-1-18.25l-1-5c-1.01-18.38-1.01-18.38 3-24 9.49-10.4 17.97-13.13 31-7m40 632-2 2h3zm129 1 1 2 2-1z" fill="#151815"/><path d="M778.31 396.42c6.15.96 11.28 3.73 16.73 6.58a133 133 0 0 0 29.65 11.17c3.18.8 6.21 1.78 9.31 2.83q2.37.73 4.76 1.44c24.03 7.31 45.41 16.5 63.24 34.56l2.08 2.08c15.46 16.55 22.52 38.93 22.42 61.17v2.07c-.06 10.77-1.15 19.78-5.5 29.68l-1.2 3.22c-4.47 11.73-11.6 21.37-19.8 30.78l-1.64 1.9C887.86 595.2 874 602.05 860 608l-1.9.82c-27.45 11.16-59.76 8.85-88.1 3.18 0-4.18 2.31-6.08 4.93-9.06 4.97-5.75 4.97-5.75 6.07-7.94h2l.72-2.02c1.61-3.77 3.65-7.17 5.78-10.67l1.22-2.05c1.6-2.66 3.07-5.06 5.28-7.26 2.48-.2 2.48-.2 5.61-.13l3.45.06 3.7.07c21.36.17 42.38-2.99 58.93-18.06 12.12-13.2 16.73-27.35 16.6-45.09-1.1-15.04-9.72-26.76-20.35-36.79-11.15-9.4-25.98-13.73-39.59-18.28q-2.36-.78-4.7-1.59a159 159 0 0 0-13.84-4c-15.65-4.07-29.93-10.97-39.8-24.19l-1.89-2.13c-1.44-2.4-1.35-4.12-1.12-6.87h2c.25-4.57.25-4.57-1.13-6.94-.87-2.06-.87-2.06-.25-5.06 3.31-7.2 7.22-7.8 14.7-7.58" fill="#121413"/><path d="M763 421a73 73 0 0 1 7.56 8.31c10.75 12.55 27.68 17.38 43.21 20.87 6.03 1.38 11.53 3.44 17.23 5.82q2.46.96 4.93 1.89c19.86 7.66 36.21 16.53 45.28 36.82A51.6 51.6 0 0 1 883 530l-.48 2.09c-3.47 12.98-13.79 24.41-25.14 31.03-18.68 10.4-39.32 13.38-60.38 9.88.54-3.72 1.75-6.81 3.32-10.21 11.06-24.29 15.95-59.07 6.61-84.72-4.1-8.92-9.73-15.45-18.93-19.07l-2.75-1.25c-9.76-2.25-18.09-.39-27.25 3.25l.24-1.84c1.68-12.71 3.31-25.42 4.76-38.16" fill="#ECECEE"/><path d="m522 33 1.69.77c3.28 1.74 6.35 3.79 9.43 5.85l2.02 1.35a174 174 0 0 1 13.79 10.42c2.52 1.96 5.2 3.24 8.07 4.61q1.93 1.41 3.81 2.88a75 75 0 0 0 10.89 6.82 79 79 0 0 1 9.06 6.26c3.06 1.42 4.91.6 8.24.04q4.12-.08 8.23.01l5 .08 2.66.05q7 .11 14.01.16 8.9.08 17.79.25 7.2.13 14.41.17 2.74.03 5.47.1c16.01.39 16.01.39 22.31-4.68L683 64q2.45-1.57 5-3 1.67-1.17 3.31-2.38a170 170 0 0 1 14.38-9.18C708 48 708 48 710.5 46a64 64 0 0 1 9.68-6.19l2.38-1.31 2.26-1.22C727 36 727 36 728.95 34.48c5.09-3.68 11.56-5.95 17.86-5.48 4.13.73 6.9 2.37 10.19 5l1.63 1.16c3.84 2.88 5.31 5.2 6.37 9.84l.62 2.44c1.17 7.98 1.17 7.98-.62 11.56q-.07 4.25 0 8.5c.14 8.23.14 8.23-1 10.5-.07 3.06 0 6.1.06 9.15C764 90 764 90 763 93c-.35 3.74-.43 7.5-.56 11.25l-.13 3.6c-.46 14.68-.36 29.37-.27 44.06l.01 3.02.04 5.6c.01 4.02-.09 7.92-.59 11.9-.65 5.28-.61 10.5-.56 15.81l.01 3.16.05 9.91a2863 2863 0 0 1 .09 16.15 268 268 0 0 0 .02 5.3c-.11 2.22-.5 4.11-1.11 6.24l-.65 2.4c-3.43 11.97-11.08 20.42-20.35 28.6h-2l-.81 1.81c-2.47 4.54-5.64 5.92-10.19 8.19-1.88 1.69-1.88 1.69-3 3 3 11.25 7.5 21.15 13.08 31.31 3.66 6.71 6.89 13.66 10.17 20.57l1.07 2.23 1.01 2.13.9 1.9c.8 1.94 1.3 3.82 1.77 5.86q.7 2.5 1.44 5l.74 2.56c.82 2.44.82 2.44 1.86 4.47 1.38 2.82 1.81 5.69 2.4 8.75.56 2.22.56 2.22 1.56 4.16 1.22 2.5 1.61 4.81 2.06 7.56.88 5.25.88 5.25 1.44 7.41.5 2.07.79 4.08 1.04 6.2l.26 2.28.26 2.36.28 2.4.66 5.85c2 0 2 0 4.19-1 5.17-1.84 9.24-1.39 14.24.67l2.66 1.1q4.62 1.96 9.22 3.96l3.32 1.43 6.74 2.95c5.78 2.49 11.22 4.51 17.45 5.5 3.86.69 7.49 2.08 11.18 3.39a453 453 0 0 0 6.96 2.35c3.14 1 5.72 1.65 9.04 1.65l5 3c2.74 1.23 5.52 2.33 8.31 3.44 15.1 6 15.1 6 20.88 10.62a59 59 0 0 0 6.69 4.63C893 441 893 441 895 444l2.35 1.36c3.1 1.92 4.84 4.02 7.09 6.89a177 177 0 0 0 7.87 9.44c2.98 3.45 4.84 7.16 6.69 11.31l1.03 2.19c7.94 17.23 11.62 36.93 8.97 55.81q-.94 2.52-2 5l.06 2.38c-.07 2.95-.97 5.01-2.21 7.66a60 60 0 0 0-2.29 6.52c-1.29 3.98-3.13 7.02-5.56 10.44l-1.56 3.31C914 569 914 569 911 570l-.44 1.75c-.97 3.88-3.79 6.48-6.56 9.25q-2.25 2.71-4.46 5.44C898 588 898 588 895 589l-1.84 2.33c-2.33 2.88-4.52 4.44-7.66 6.36l-2.84 1.76A115 115 0 0 1 876 603l-3.24 1.93a74 74 0 0 1-11.95 5.26l-2.11.78A83 83 0 0 1 849 614l-2.8.72-3.08.78-3.05.78c-7.51 1.76-14.92 2.04-22.59 2.28q-3.22.1-6.43.22c-7.76.26-15.33.15-23.05-.78l-5-.5c-2.59-.27-4.5-.67-7-1.5-3.12-1-3.12-1-7-1-5.8 3.27-9.8 7.93-14 13a130 130 0 0 1-8 6l1.54 1.07c7.35 5.27 12.28 10.41 15.46 18.93l1 2c.86 6-.95 9.19-4.2 13.98-6.45 7.22-17.68 7.46-26.8 8.02-9.27-.07-18.39-1.52-27-5l-5.06-1.69L698 670l1.39 1.1c6.54 5.36 9.95 10.92 12.61 18.9q.1 3.1.06 6.19l-.02 3.29L712 702l-4 2 .14-3.22c.32-10.2-.23-16.65-7.26-24.47-4.06-3.85-8.8-6.09-13.88-8.31v-8a33 33 0 0 1 8.38 4.31c11.4 7.34 24.72 8.87 37.93 8.88l3.31.03c7.56.02 14.8-.1 21.44-4.03 3.15-5.18 2.82-10.31 1.94-16.19-2.42-6.42-7.28-11.14-13.38-14.19q-3.28-1.48-6.62-2.81v-2q2.78-2.01 5.69-3.88c7.85-5.21 14.65-11.46 21.31-18.12 5.13-.43 10.04.06 15.07 1.07 29.76 5.89 63.37 2.59 90.31-11.69l2.46-1.31c13.39-7.28 24.57-16.79 33.28-29.32l1.59-2.27c7.15-10.46 10.71-21.46 14.29-33.48l1-3c.91-15.17 1.77-31.73-4-46l-.72-1.92c-10.02-26.82-30.56-44.22-56.13-55.93-11.27-4.96-23.04-8.35-34.95-11.37-15.76-4.11-30.95-10.31-45.36-17.92-2.73-1.28-5.21-1.24-8.22-1.3l-3.33-.12c-3.34.57-4.08.97-6.5 3.09L763 403l-.42-2.8c-3.08-19.94-6.74-39.14-13.58-58.2l-.96-2.69c-4.65-12.74-10.61-24.74-16.78-36.81C719 278.26 719 278.26 719 271c1.42-1.32 1.42-1.32 3.4-2.64l2.19-1.48 2.35-1.57c14.88-10.23 25.67-20.64 29.63-38.82.68-3.94.72-7.81.72-11.79l.02-2.69.03-5.74q0-4.6.05-9.23.07-9.9.11-19.79c.12-25.48.32-50.93 1.47-76.39l.13-2.88.38-8.06.11-2.35q.37-6.8 1.19-13.57c.59-5.35.49-10.75.53-16.12l.09-3.75c.05-6.91-.04-11.62-4.4-17.13-4.3-3.74-9.72-4.74-15.3-4.42-8.14 1.28-15.65 7.13-22.39 11.61l-2.62 1.72L709 51l-2.18 1.45a1961 1961 0 0 0-11.15 7.43q-5.28 3.53-10.6 7.04C682 69 682 69 680.19 70.67c-8.26 7.02-17.19 6.73-27.53 7.03l-2.83.11c-7.07.26-14.13.37-21.21.44l-3.12.04c-34.68.41-58.6-3.04-84.62-27.76-8.37-7.86-19.88-16.41-31.44-18.03-5.64.82-9.83 2.85-13.82 6.94-6.69 10.56-3.52 25.58-2.82 37.61l.4 7.22.26 4.66.12 2.15c.18 3.07.44 6.07.92 9.11.55 4.22.71 8.33.78 12.57l.06 2.58.16 8.41.12 5.95.32 15.68q.46 24 1 48.01l.11 5.09q.17 7.47.38 14.93l.07 3.56c.47 15.45 5.74 27.97 16.87 38.78 4.23 3.62 8.73 6.89 13.26 10.13l2.05 1.48 1.86 1.32C533 270 533 270 534 273c-2.95 12.43-8.95 23.81-15.16 34.88-6.97 12.52-12.01 25.64-16.84 39.12l-.94 2.62c-12.02 33.95-13.78 68.58-7.43 103.89.37 2.49.37 2.49.37 6.49l-2.24-.66c-12-3.29-21.79-3.65-32.88 2.35-10.56 8.49-14.56 18.21-16.88 31.31a138 138 0 0 0-.44 13.81l.03 3.81C442.31 550.23 458 582.07 484 611l1.82 2.05c8.08 8.54 18.26 15.73 28.18 21.95a346 346 0 0 1-6.11 3.01 35.4 35.4 0 0 0-15.33 14.43c-1.1 5-1.35 9.66.63 14.44 3.68 4.32 7.31 5.43 12.81 6.12 19.31.94 38.55-.67 55.36-11.08C563 661 563 661 565 661v8l-2.01.95c-8.37 4.06-13.57 7.76-17.99 16.05-1.21 3.62-1.11 6.93-1.06 10.69l.01 2.12.05 5.19h-3c-2.39-3.58-2.58-5.88-2-10 2.04-8.96 6.55-14.64 13-21l1.78-1.78L555 670l-2.67 1.09-3.52 1.41-3.48 1.41A21 21 0 0 1 537 675l-3 1c-12.98 1.37-28.32 2.77-40-4-4-3.56-5.33-6.06-6.06-11.38-.37-8.03 3.25-13.28 8.48-19.08A26.6 26.6 0 0 1 507 635l-2.06-1.62a357 357 0 0 1-8.17-6.86 410 410 0 0 0-5.08-4.27C489 620 489 620 487 618l-1.38-1.31C484 615 484 615 482.19 612.62a34 34 0 0 0-5.38-5.24C474 605 474 605 473 602l-3.42-3.38c-8.23-8.45-14.92-18.39-18.58-29.62q-1.17-2.37-2.44-4.69c-3.76-7.37-5.39-15.24-7.09-23.28-.47-2.03-.47-2.03-1.53-5.22-1.19-4.83-1.43-9.55-1.69-14.51-.25-3.3-.25-3.3-.77-5.79-.61-3.2-.61-6.25-.6-9.51l-.01-3.62c.11-2.94.49-5.52 1.13-8.38l.25-3.06c1.59-11.28 8.09-23.53 17.13-30.38 11.1-7.36 21.49-8.06 34.62-5.56l-.4-1.91-.54-2.59-.52-2.53c-1.39-7.68-1.99-15.45-2.66-23.22l-.31-3.26-.27-3.13-.25-2.83c-.05-2.43.28-4.22.95-6.53q.06-2.47 0-4.94c-.04-3.54.2-6.6 1-10.06q.24-2.19.44-4.38A62 62 0 0 1 490 378q.5-2.37.94-4.75c1.88-9.67 4.88-18.94 8.06-28.25l1.02-3.08c2.43-7.21 5.48-14.19 8.48-21.17l.86-2.04A71 71 0 0 1 516 307c1.42-2.63 2.71-5.31 4-8l1.03-2.13q1.56-3.25 3.09-6.49l1.06-2.2c5.77-12.2 5.77-12.2 4.82-17.18-2.2-2.11-2.2-2.11-5.25-4.19a387 387 0 0 1-5-3.55 170 170 0 0 1-8.5-6.64l-3.05-2.46L506 252v-3l-1.88-.69c-2.78-1.72-3-3.28-4.12-6.31l-1-2.08c-3.67-7.96-4.35-16.27-5-24.92l-.27-3.59c-.82-11.64-.82-23.25-.73-34.91q.05-5.51.06-11.03l.03-2.48c.02-4.71-.29-9.25-.87-13.92-.3-2.84-.31-5.65-.28-8.5l.02-3.47.08-7.06c.04-5.94-.13-11.71-.82-17.61a76 76 0 0 1-.22-7.82c.06-5.83-.43-11.56-1-17.36-.59-6.12-1-12.1-1-18.25l-1-5c-1.01-18.38-1.01-18.38 3-24 9.49-10.4 17.97-13.13 31-7m40 632-2 2h3zm129 1 1 2 2-1z" fill="#E3E4E6"/><path d="M578 496h2a38 38 0 0 1 3.06 3.5c10.06 11.7 23.8 22.16 39.61 23.77 14.85.55 27.9-6.22 38.83-15.83 2.85-2.7 5.48-5.5 8-8.5L672 496h2a28.5 28.5 0 0 1-3.94 11.69l-1.59 2.82q-1.66 2.79-3.47 5.49h-2l-.72 1.75c-4.18 7.33-13.67 12.21-21.28 15.25h-2l.18 2.01a599 599 0 0 1 2.07 54.74l-.01 3.96c-.1 48.75-.1 48.75-4.24 65.29h-21a120 120 0 0 1-4.19-24.62l-.24-3.7c-1.86-32.39-1.15-65.36 1.43-97.68l-2.85-1.36-3.77-1.83-1.88-.88A45 45 0 0 1 593 521v-2l-1.81-.77c-5.65-3.18-9.36-10.57-12.19-16.23-.75-3.44-.75-3.44-1-6" fill="#000"/><path d="M739 469c11.24 33.71-13.53 88.62-25.64 120.4-5.88 15.57-9.89 31.32-13.36 47.6l-.6 2.76a110 110 0 0 0-2.06 17.45C697 660 697 660 695 663c-2.6-.35-4.52-.66-6.67-2.2-2.97-4.03-.99-10.15-.33-14.8 2.53-16.45 7.88-32.21 13-48l.93-2.9a821 821 0 0 1 8.62-25.19l1.35-3.75q1.3-3.62 2.64-7.22c2.3-6.34 4.22-12.62 5.77-19.18.82-3.27 1.85-6.42 2.95-9.6 4.1-12.02 7.13-24.42 9.99-36.78l.75-3.23a319 319 0 0 0 3.56-18.08C738 470 738 470 739 469" fill="#000201"/><path d="M513 472c2.1 3.15 2.6 5.12 3.33 8.79l1.48 7.27A368 368 0 0 0 526 521l.77 2.52c4.45 14.45 9.34 28.74 14.23 43.04l1.85 5.41q3.76 11.06 7.62 22.08c4.9 14.11 8.49 28.33 11.53 42.95l.54 2.58c2.89 13.91 2.89 13.91 2.46 20.42-2.31 2.44-2.31 2.44-5 4h-3c-.71-3.03-1.12-6-1.36-9.09-1.45-18.31-5.16-36.45-11.78-53.63-1.99-5.3-3.77-10.67-5.61-16.03l-2.69-7.83-.67-1.95a722 722 0 0 0-3.89-11.04c-10.58-29.31-18.46-61.08-18-92.43" fill="#000201"/><path d="m522 33 1.69.77c3.28 1.74 6.35 3.79 9.43 5.85l2.02 1.35a174 174 0 0 1 13.79 10.42c2.52 1.96 5.2 3.24 8.07 4.61q1.93 1.41 3.81 2.88a75 75 0 0 0 10.89 6.82 79 79 0 0 1 9.06 6.26c3.07 1.42 4.91.61 8.24.04q4.11-.14 8.22-.13l2.42-.01 7.86.02h2.71c19.27.02 38.53.5 57.79 1.12l-1 2c-89.17 7-89.17 7-119.72-18.71q-3.2-2.82-6.32-5.74a92 92 0 0 0-12.25-9.34l-1.83-1.2c-12.8-8.18-12.8-8.18-20.88-7.01-6.21 2.19-10.19 5.23-13.09 11.28-3.21 9.61-.7 22.69-.11 32.77l.4 7.22.26 4.66.12 2.15c.19 3.2.48 6.33.93 9.51.89 6.22.89 12.51 1.05 18.79l.07 2.38c.81 31.4.45 62.84.37 94.24l-2-1c-.95-12.85-1.1-25.62-1-38.5q.05-5.51.06-11.03l.03-2.48c.02-4.71-.29-9.25-.87-13.92-.3-2.84-.31-5.65-.28-8.5l.02-3.47.08-7.06c.04-5.94-.13-11.71-.82-17.61a76 76 0 0 1-.22-7.82c.06-5.83-.43-11.56-1-17.36-.59-6.12-1-12.1-1-18.25l-1-5c-1.01-18.38-1.01-18.38 3-24 9.49-10.4 17.97-13.13 31-7" fill="#E2E4E3"/><path d="M754.19 31.75q1.4 1.1 2.8 2.25l1.64 1.16c3.85 2.88 5.3 5.2 6.37 9.84l.63 2.44c1.16 7.98 1.16 7.98-.63 11.56q-.06 4.25 0 8.5c.14 8.23.14 8.23-1 10.5-.07 3.06 0 6.1.07 9.15C764 90 764 90 763 93c-.35 3.74-.43 7.5-.56 11.25l-.13 3.59c-.46 14.75-.36 29.5-.27 44.25a687 687 0 0 0 .05 8.67c.02 4.84-.01 9.5-1.1 14.24l-3 2c-.2-25.39-.23-50.75.95-76.13l.13-2.87.4-8.07.1-2.35c.22-3.76.5-7.48.95-11.22.72-6.15.75-12.29.79-18.49l.09-3.74c.05-6.91-.03-11.62-4.4-17.13-4.3-3.74-9.72-4.74-15.3-4.42-8.14 1.28-15.64 7.13-22.4 11.61l-2.6 1.72L709 51l-2.18 1.45q-5.58 3.7-11.14 7.43-5.43 3.62-10.9 7.22a157 157 0 0 0-5.57 3.99l-2.64 1.97-2.31 1.79c-2.85 1.45-4.27 1.07-7.26.15l1-2 2.5-.69c4.17-1.56 6.97-3.86 10.4-6.64A56 56 0 0 1 688 61q1.67-1.18 3.3-2.37c4.63-3.35 9.46-6.33 14.39-9.19 2.3-1.44 2.3-1.44 4.8-3.44a65 65 0 0 1 9.69-6.19l2.39-1.31 2.25-1.22C727 36 727 36 728.96 34.48c7.68-5.57 16.8-7.35 25.23-2.73" fill="#E9EAEE"/><path d="M759 136h1a2221 2221 0 0 1 1.12 67.31l.01 3.21v9.03l.01 2.73-.01 2.51v2.18A28 28 0 0 1 760 229l-.65 2.4c-3.43 11.97-11.08 20.42-20.35 28.6h-2l-.81 1.81c-2.47 4.54-5.64 5.92-10.19 8.19-1.88 1.69-1.88 1.69-3 3 3 11.25 7.5 21.15 13.08 31.31 3.66 6.71 6.89 13.66 10.17 20.57l1.07 2.23 1.01 2.13.9 1.9c.8 1.94 1.3 3.82 1.77 5.86q.7 2.5 1.44 5l.74 2.56c.82 2.44.82 2.44 1.86 4.47 1.38 2.82 1.81 5.69 2.4 8.75A29 29 0 0 0 760 364q.58 2.99 1 6h-3l-.97-3.02c-6.89-21.26-13.91-41.67-24.59-61.36a238 238 0 0 1-8.44-17.74l-1.17-2.66c-2.04-4.79-3.38-9.03-3.83-14.22l1.42-.97c17.03-11.75 31.51-22.32 36.14-43.55.69-3.86.79-7.67.85-11.58l.06-2.6.16-8.43.13-5.88.3-15.4.33-15.75z" fill="#EAECEB"/><path d="M634.5 208.19c2.44 1.73 3.39 2.57 4.69 5.3-.25 3.32-1.14 4.9-3.19 7.5l-2.56 1.39c-3.43 2.28-3.57 4.72-4.44 8.62-1 1-1 1-3.88 1.25-3.12-.25-3.12-.25-4.87-1.37-1.25-1.88-1.25-1.88-2.13-4.75-1.34-3.73-3.2-5.51-6.12-8.13-1-1-1-1-1.38-3.31.38-2.7.38-2.7 2.57-4.88 6.9-4.45 13.91-5.85 21.31-1.62" fill="#616463"/><path d="m799.13 572.88 2.88.12c1 2 1 2 .27 4.37A134 134 0 0 1 782.02 611q.48.99 1 2c-4.3-.34-8.6-.65-13-1 0-4.17 2.3-6.08 4.92-9.07 4.98-5.73 4.98-5.73 6.08-7.93h2l.7-2.01a85 85 0 0 1 5.8-10.67l1.22-2.06c4.36-7.23 4.36-7.23 8.4-7.38" fill="#000101"/><path d="M761 657h1c.78 9.87.78 9.87-2.06 14-12.86 8.76-29.29 7.76-43.94 5a66 66 0 0 1-9-3l-5.06-1.69L698 670l1.39 1.1c6.54 5.36 9.95 10.92 12.61 18.9q.1 3.1.06 6.19l-.02 3.29L712 702l-4 2 .14-3.22c.32-10.2-.23-16.65-7.26-24.47-4.06-3.85-8.8-6.09-13.88-8.31v-8a33 33 0 0 1 8.38 4.31c11.4 7.34 24.72 8.87 37.93 8.88l3.31.03c15.1.03 15.1.03 21.38-4.28 2.66-3.91 2.89-7.3 3-11.94m-70 9 1 2 2-1z" fill="#E0E2E1"/><path d="M488 408h1l.08 3.64c.43 14.12 2.27 27.84 4.57 41.76.35 2.6.35 2.6.35 6.6l-2.24-.66c-12-3.29-21.79-3.65-32.88 2.35C448.67 469.9 443.6 480.07 442 493c-.6 7.65-.82 15.33-1 23h-1l-.08-1.68a958 958 0 0 0-.48-10.21l-.12-2.56-.11-2.35c-.21-2.2-.21-2.2-.77-4.29-.73-3.17.54-5.93 1.56-8.91l.82-2.55c4.43-13.13 10.15-20.52 22.14-27.61 7.9-3.71 18.76-2.42 27.04-.84l-.4-1.91c-3.15-15.25-2.55-29.64-1.6-45.09" fill="#DBDDDD"/><path d="M762 46h1l.91 12.71.31 4.32.44 6.21.27 3.78C765 76 765 76 764 78c-.07 3.06 0 6.1.06 9.15C764 90 764 90 763 93c-.35 3.74-.43 7.5-.56 11.25l-.13 3.59c-.46 14.75-.36 29.5-.27 44.25l.01 3.02.04 5.65c.02 4.84-.01 9.5-1.09 14.24l-3 2c-.2-25.39-.25-50.75.94-76.12l.13-2.88.39-8.07.12-2.35q.39-6.76 1.2-13.48c.3-2.89.43-5.77.54-8.67l.12-3.46.12-3.53.13-3.64z" fill="#D0D3D0"/><path d="M616 660h20l-.07 5.84-.05 7.66-.06 3.84c-.08 15.96-.08 15.96 4.8 23.16l1.36 2.03L643 704h-6c-2.44-6.58-3.85-13.09-5-20l-.58-2.68c-.5-2.77-.07-4.59.58-7.32l.5-3.56c.5-3.44.5-3.44 1.5-7.44h-15l.5 3.94c.53 4.71.59 9.33.5 14.06q0 3.07.19 6.12c-.3 6.19-1.93 12.21-6.19 16.88l-4-1 2.93-4c2.78-5.2 3.32-10.45 3.27-16.25l-.01-1.98q-.02-3.1-.07-6.21l-.02-4.24q-.03-5.16-.1-10.32" fill="#EEEFF3"/><path d="M496 196h1l.01 2.52c.18 20.77.36 39.14 15.37 55.29 4.66 4.53 9.96 8.29 15.25 12.07l2.05 1.48 1.86 1.32C533 270 533 270 534 273c-2.45 10.33-7.09 19.74-12 29.08q-2.55 4.94-5 9.92l-2-1a41 41 0 0 1 5-12q2.1-4.19 4.06-8.44l1.07-2.23c5.81-12.37 5.81-12.37 4.87-17.33-2.2-2.11-2.2-2.11-5.25-4.19a387 387 0 0 1-5-3.55 170 170 0 0 1-8.5-6.64l-3.05-2.46L506 252v-3l-1.88-.69c-2.79-1.72-3.01-3.26-4.12-6.31l-1.04-2.5-1.02-2.5-1.04-2.5c-1.81-5.02-1.98-9.44-1.78-14.77l.07-2.06.25-6.48.16-4.41q.18-5.4.4-10.78" fill="#E4E6E6"/><path d="M686.25 186.81q1.33 0 2.7-.04c16.26-.03 16.26-.03 21.18 4.85q.91 1.18 1.87 2.38c-3.6 1.2-4.71.42-7.99-1.2-14.83-5.83-33.82-.94-47.68 5.01-2.33 1.2-2.33 1.2-4.33 3.2l-3-1c3.87-4.38 7.58-6.54 12.94-8.76l2.09-.92c7.4-3.16 14.26-3.5 22.22-3.52" fill="#030503"/><path d="M598 196a21 21 0 0 1 2 4l-2.01-.81q-5.4-2.16-10.8-4.25l-2.04-.82c-12.08-4.63-28.84-5.18-41.15-1.12-3 1.62-3 1.62-5 3h-2v-3q2.27-1.24 4.56-2.44l2.57-1.37c15.48-6.42 40.52-2.86 53.87 6.81" fill="#030403"/><path d="M613.13 71.88h3.86c17 .06 34.01.6 51.01 1.12l-1 2h-79c7.84-3.92 16.53-3.16 25.13-3.12" fill="#F1F1F4"/><path d="M770 613c5.65-.24 10.98.1 16.56 1 9.77 1.42 19.53 1.22 29.38 1.12l5.57-.02q6.74-.03 13.49-.1l-1 3-14.35.48-4.87.17c-9.02.32-17.8.48-26.78-.65l-5-.5c-2.59-.27-4.5-.67-7-1.5l-2.62-.44L771 615z" fill="#EFF1F1"/><path d="m885 594 1 3c-8.62 5.92-17.33 10.06-27 14l-2.06.88c-7.16 2.93-16.67 6.52-24.32 4.31L830 615v-1l1.84-.3c19.58-3.27 36.48-8.58 53.16-19.7" fill="#DEDEE0"/><path d="M759 108h1l.18 3.78.26 5.16.13 2.76q.3 6.32.72 12.6c.57 8.28.81 16.53.83 24.82l.02 2.95c-.02 10.09-.02 10.09-1.14 14.93l-3 2q-.04-10.4-.05-20.8l-.03-7.05c-.05-13.76.09-27.43 1.08-41.15" fill="#C5C7C4"/><path d="M754.19 31.75q1.4 1.1 2.8 2.25l1.64 1.16c3.85 2.88 5.3 5.2 6.37 9.84l.63 2.44c.83 5.68.46 10.2-1.63 15.56h-1l-.08-3.44C762.4 44.08 762.4 44.08 758 38c-5.26-4.19-9.57-5.39-16.15-5.37-5.06.65-9.38 2.99-13.85 5.37v-3c7.68-5.94 17.54-8 26.19-3.25" fill="#E7E7EA"/><path d="M744 324h2l1.94 4.25 1.09 2.39A39 39 0 0 1 751 337q.7 2.5 1.44 5l.74 2.56c.82 2.44.82 2.44 1.86 4.47 1.38 2.82 1.81 5.69 2.4 8.75A29 29 0 0 0 760 364q.58 2.99 1 6h-3l-1.07-3.23-3.95-11.88-1.7-5.13-2.46-7.4-.76-2.3a141 141 0 0 0-3.23-8.91c-.96-2.5-.98-4.49-.83-7.15" fill="#EAECEC"/><path d="m514 30 1 2-2.34.23c-7.05.89-12.92 2.14-17.66 7.77-3.47 6.14-3.54 11.99-3.69 18.94l-.1 3.23L491 70c-1.89-1.59-2.9-2.5-3.39-4.96l-.01-2.21-.01-2.46.03-2.56-.03-2.5c.03-6.75 1.03-12.45 5.43-17.74 11.79-9.96 11.79-9.96 20.98-7.57" fill="#ECEAEE"/><path d="M753 238h1c.57 3.71.8 5.84-1.37 8.98a113 113 0 0 1-6.01 5.96l-2.11 2.07C739.32 260 739.32 260 737 260l-.81 1.81c-2.47 4.54-5.64 5.92-10.19 8.19-2.84 2.23-3.81 4.62-5 8-1.46-2.65-2-3.89-2-7 1.42-1.32 1.42-1.32 3.4-2.64l2.19-1.48 2.35-1.57c11.19-7.69 20.04-14.87 26.06-27.31" fill="#ECECEE"/><path d="M489 401h1l1 6h1c1.19 21.53 1.19 21.53 1 32-3-2-3-2-3.68-5.22-.58-6.4-.42-12.86-.38-19.28l.01-3.94z" fill="#1E2022"/><path d="M557 57c4.04 1.39 6.69 3.34 10 6q2.73 1.82 5.5 3.56l2.78 1.76L578 70l2.65 1.74c3.13 1.68 4.94.93 8.35.26l3 2c-4.86 1.65-8.03 2.35-13 1a78 78 0 0 1-8.06-5.25l-2.11-1.45c-9.52-6.67-9.52-6.67-11.83-11.3" fill="#EAEBEA"/><path d="M554 673c-1 3-1 3-3.31 5.19-6.19 6.47-7.09 12.08-6.89 20.88q.08 2.47.2 4.93h-3c-2.39-3.58-2.58-5.88-2-10 1.49-6.52 6.96-21 15-21" fill="#ECEBEF"/><path d="M496 196h1l.01 2.52c.26 30 .26 30 5.99 42.48l1 3h-3l-2.44-5.69-1.37-3.2c-2.02-5.29-2.28-9.72-2.07-15.38l.07-2.06.25-6.48.16-4.41q.18-5.4.4-10.78" fill="#D5D8D7"/><path d="M728 37v2a138 138 0 0 1-7.19 4.56A376 376 0 0 0 699 58l-1-4c5-3 5-3 7.5-4.44C708 48 708 48 710.5 46a56 56 0 0 1 7.5-5l1.77-1.07C724.65 37 724.65 37 728 37" fill="#DFE0E2"/><path d="M479 607q5.82 4.88 11.38 10.05c5 4.65 10.06 8.99 15.62 12.95l-1 3c-6.72-4.07-12.46-9.46-18-15l-1.31-1.25C479 609.81 479 609.81 479 607" fill="#E5E5E8"/><path d="M926 499h2l1 7.06.29 1.99c1.06 7.71 1.1 13.03-2.29 19.95h-1z" fill="#DCDDDE"/><path d="M761 82h1v6h2l-.48 2.1c-.56 3.13-.71 6.1-.8 9.27l-.11 3.68-.11 3.83c-.42 15.08-.42 15.08-1.5 21.12h-1l-.05-12.42-.03-4.2c-.06-9.85.29-19.57 1.08-29.38" fill="#F0F3F0"/><path d="M495 181h1v35l-2-1c-1.61-25.03-1.61-25.03 1-34" fill="#EEF0F1"/><path d="M439 497h1c.61 10.34 1.19 20.64 1 31l-2-1c-.38-1.89-.38-1.89-.56-4.25-.2-2.42-.43-4.72-.96-7.1-.6-3.31-.65-6.48-.67-9.84l-.04-3.73C437 499 437 499 439 497" fill="#ECEDED"/><path d="M502 244c3.68 1.5 5.59 3.61 8.12 6.62a86 86 0 0 0 12.81 11.79A28 28 0 0 1 527 266c-4.89 0-5.75-1.08-9.38-4.19l-2.91-2.49L512 257l-3.69-2.88L506 252v-3l-4-2z" fill="#DCDDDE"/><path d="M634 677h1l.23 3.37c.76 9.18 1.92 16.14 7.77 23.63h-6l-1.44-4.25-.81-2.39L634 695l-.62-1.84c-.56-3.19-.21-6.19.06-9.41l.31-3.83z" fill="#E4E6E8"/><path d="M688 661c4.86 1.86 9.43 4.2 14.06 6.56A96 96 0 0 0 710 671l-1 3a354 354 0 0 1-21-9z" fill="#ECECEC"/><path d="M495 647h3c-1.88 5.75-1.88 5.75-3 8q-.14 2.19-.12 4.38l-.01 2.33c.13 2.22.52 4.16 1.13 6.29-1.94-.31-1.94-.31-4-1-1.6-4.79-1.91-9.58-.11-14.37q1.47-2.86 3.11-5.63" fill="#212324"/><path d="M776 612v1l-2.94.56c-7.61 2.18-13.41 8.29-18.06 14.44l-4-1a405 405 0 0 1 7.44-7.5l2.08-2.17c5.23-5.1 8.19-6.19 15.48-5.33" fill="#E8EBEC"/><path d="M488 396h1c.18 10.03-.38 19.99-1 30-2.54-2.54-2.4-3.85-2.69-7.38l-.26-2.89c-.05-2.54.31-4.31.95-6.73.03-2.56-.06-5.1-.16-7.66C486 399 486 399 488 396" fill="#F0F2F4"/><path d="M442 479h2c-.91 7.55-.91 7.55-1.5 10.53-.73 5.1-.87 10.2-1.06 15.35l-.13 3.24L441 516h-1l-.08-1.68a958 958 0 0 0-.48-10.21l-.12-2.56-.11-2.35c-.21-2.2-.21-2.2-.78-4.28-.72-3.2.58-5.85 1.57-8.92q.57-1.96 1.12-3.94z" fill="#C9CCCB"/><path d="m476.56 453.75 3.88-.02c3.33.25 5.58.83 8.56 2.27v2l-2.82-.5c-7.74-1.1-15.48-.66-23.18.5v-2c4.66-1.81 8.57-2.27 13.56-2.25" fill="#EDEFF0"/><path d="M488 408h1c.63 11.68 1.18 23.3 1 35l-3-2c-.33-2.84-.33-2.84-.25-6.5l.03-1.97c.18-8.18.7-16.36 1.22-24.53" fill="#DADCDD"/><path d="M492 88h1c1.03 7.55 1.12 14.95 1.06 22.56l-.01 3.64-.05 8.8c-4.6-6.9-3.02-16.66-2.56-24.62l.16-3.05q.18-3.66.4-7.33" fill="#ECEDEF"/><path d="m476.56 455.81 2.82-.04c2.73.24 4.33.75 6.62 2.23l1 2-8.82.2-2.52.06-2.43.03-2.24.05c-2.5-.43-3.39-1.42-4.99-3.34a49 49 0 0 1 10.56-1.19" fill="#252828"/><path d="m495 643 2 1a47 47 0 0 1-3.56 7.62c-2.01 4.71-2.18 9.31-2.44 14.38h-2c-1.55-9.15-.49-14.01 4.75-21.5z" fill="#E8EAEA"/><path d="m791.75 398.88 3.48 1.55c2.77 1.56 2.77 1.56 3.77 4.56-4.53-1.37-8.8-2.8-12.94-5.12-4.51-2.38-9.03-2.67-14.06-2.87v-1c7.81-1.2 12.44-.44 19.75 2.88" fill="#D7DBD8"/><path d="M761 657h1c.78 9.87.78 9.87-2.06 14-7.76 5.28-7.76 5.28-12.38 4.69L746 675v-2l1.79-.26c4.03-.72 6.8-1.46 10.21-3.8 2.66-3.91 2.89-7.3 3-11.94" fill="#D1D5D1"/><path d="M758 370h2c3.9 6.18 3.62 12.13 2.5 19.12L762 391h-1l-1.5-8.25-.43-2.36-.41-2.28q-.2-1.03-.38-2.1C758 374 758 374 758 370" fill="#DCDCDD"/><path d="M490 47h1v23c-3-3-3-3-3.11-6.91q.15-2.3.36-4.59l.16-2.34c.24-3.23.56-6.08 1.59-9.16" fill="#F1F0F3"/><path d="M927 527c1.12 1.69 1.12 1.69 2 4a80 80 0 0 1-2 5l.06 2.44c-.08 3.4-1.42 5.62-3.06 8.56h-2c1.56-16.56 1.56-16.56 5-20" fill="#EBEDED"/><path d="M760 648c4.26 5.09 5.47 8.3 5 15-1.52 2.22-1.52 2.22-3 4l-1-6.69-.56-3.76A54 54 0 0 1 760 648" fill="#F2F5F1"/><path d="M762 43h2c2.66 4.57 2.42 8.84 2 14-1 3.62-1 3.62-2 6h-1z" fill="#F1F4F0"/><path d="m493 376 3 1-.44 2.5A297 297 0 0 0 494 391h-3l.44-5.25.24-2.95c.27-2.36.67-4.52 1.32-6.8" fill="#1A1C1D"/><path d="m729 264 1 2c-4 4-4 4-5.62 5.44-1.76 2-2.5 4.06-3.38 6.56-1.46-2.65-2-3.89-2-7 2.19-1.82 2.19-1.82 5-3.69l2.81-1.88z" fill="#DBDCDD"/><path d="m759 55 1 2h2v15l-2-4-2 4z" fill="#292C29"/><path d="M753 358h2q1.05 3.9 2.06 7.81l.61 2.24c1.44 5.61 1.44 5.61.33 8.95-1.8-3.26-2.74-6.45-3.62-10.06l-.79-3.16C753 361 753 361 753 358" fill="#222324"/><path d="M759 430c3.26 4.35 3.34 4.75 2.69 9.75l-.37 2.98L761 445l-4 1z" fill="#1B1E1C"/><path d="m846 612-1 3c-5.87 2.12-9.2 2.18-15 0v-1l5.75-1 3.23-.56C842 612 842 612 846 612" fill="#D0D0D1"/><path d="m680 67 2 2a231 231 0 0 1-4.69 3.56l-2.63 2.01C672 76 672 76 669.17 75.71L667 75l1-2 2.69-.88c3.58-1.21 6.24-2.93 9.31-5.12" fill="#DEE0E1"/><path d="m758 228 2 1-1.31 4.81-.74 2.71A11.6 11.6 0 0 1 754 242c.34-5.38.69-9.53 4-14" fill="#ECECEF"/><path d="M758 87c2 2 2 2 2.23 3.97l-.03 2.38-.02 2.58-.06 2.69-.02 2.72-.1 6.66h-1l-1-11h-1c-.12-7.75-.12-7.75 1-10" fill="#2D302D"/><path d="m710 689 2 1v12l-4 2z" fill="#EFF1F0"/><path d="M479 607c4.18 3.51 8.2 7.08 12 11l-1 3-3-3-1.38-1.31C479 609.81 479 609.81 479 607" fill="#EFF2EF"/><path d="M492 370c2.56 3.84 1.92 5.23 1.12 9.69l-.61 3.57L492 386c-2-2-2-2-2.01-4.24l.32-2.64.3-2.61c.35-2.22.8-4.34 1.39-6.51" fill="#DBDDDE"/><path d="m513 32 1 2c-8.43 2.43-8.43 2.43-13 1 3.6-3.6 7.16-3.09 12-3" fill="#282929"/><path d="M441 522h1q.33 3.13.62 6.25l.36 3.52c.02 3.17-.28 4.61-1.98 7.23-2.43-6.2-1.67-10.63 0-17" fill="#D2D4D3"/><path d="M753 238h1c.31 3.19.31 3.19 0 7-2.5 2.94-2.5 2.94-5 5l-3-1 1.81-2.12A46 46 0 0 0 753 238" fill="#D9D9DC"/><path d="M626 661h10v8l-2-2v-4h-9z" fill="#EAEBEB"/><path d="m750 627 3 2-6 5 1 2h-4c.31-3.67.76-4.78 3.56-7.31z" fill="#E9ECEA"/><path d="M776 612v1l-3.31.81C769 615 769 615 767.31 616.69L766 618c-2.19-.31-2.19-.31-4-1 4.26-5.49 7.51-5.64 14-5" fill="#CED1D0"/><path d="M459 579c4.75 5.7 4.75 5.7 6 9l-1 2h-2q-1.04-1.9-2.06-3.81l-1.16-2.15C458 582 458 582 459 579" fill="#DEE1DD"/><path d="M756 360c1.94.5 1.94.5 4 2 .69 2.7.82 5.2 1 8h-3c-1.32-3.62-2-6.1-2-10" fill="#F1F3F5"/><path d="M730 297c3 1 3 1 4.17 2.85l1.02 2.21 1.04 2.23.77 1.71-3 1c-4-6.62-4-6.62-4-10" fill="#F0F3F0"/><path d="m514 30 1 2-13 1 1-3c3.61-1.67 7.23-.78 11 0" fill="#EEF1EF"/><path d="M464 458c-3.61 2.75-7.3 5.37-11 8 .39-2.47.73-3.73 2.52-5.52l1.86-1.29 1.83-1.33C461 457 461 457 464 458" fill="#D5D8D9"/><path d="M759 41h2c1.21 4.94.63 8.21-1 13h-1l-.56-5.38-.32-3.02C758 43 758 43 759 41" fill="#1D201C"/><path d="m871 431 7 3-1 2h-7c0-3 0-3 1-5" fill="#19191D"/><path d="M515 31c6.75 1.62 6.75 1.62 9 5l-2 1c-2.16-.78-2.16-.78-4.62-1.94l-2.48-1.15L513 33z" fill="#DDE1DF"/><path d="M757 672c-1.42 2.03-2.55 2.9-4.98 3.42q-3 .35-6.02.58v-3a51 51 0 0 1 11-1" fill="#D9DCD9"/><path d="m743 632 2 1-1 3h5v3l-9-3v-2z" fill="#D5D7D6"/><path d="M492 450h1l1 10-5-1v-3l2-1c.62-2.56.62-2.56 1-5" fill="#C5C8C6"/><path d="m707 684 4 2-1 14h-1l-.18-2.48-.26-3.27-.24-3.23A40 40 0 0 0 707 684" fill="#BEC1C2"/><path d="M824 615h11l-1 3-10-2z" fill="#ECECEE"/><path d="M914 468h2l5 9-4-1c-3-5.04-3-5.04-3-8" fill="#EAE7EB"/><path d="m462 459 1 3-5 4-2-1c1.05-2.62 1.65-3.79 4.12-5.25z" fill="#1D1F22"/><path d="M552 673h2c-1.25 3.75-3.06 5.41-6 8h-3l2.94-3.44 1.65-1.93q1.16-1.36 2.41-2.63" fill="#D9D4E1"/><path d="m491 664 1.81 2.31A58 58 0 0 0 498 672l-3 1c-2.56-2.25-2.56-2.25-5-5 .19-2.31.19-2.31 1-4" fill="#D4D7D8"/><path d="m892 590 2 1-8 6v-4a96 96 0 0 1 6-3" fill="#ECEEEE"/><path d="M915 560c1.03 2.79 1.05 3.87.06 6.75L914 569h-3c2.88-6.75 2.88-6.75 4-9" fill="#EBE7ED"/><path d="M875 482c2.5 1.19 2.5 1.19 5 3 .31 2.69.31 2.69 0 5h-2c-2.04-2.91-3-4.4-3-8" fill="#09090A"/><path d="M798 403c3.96.57 6.67 1.81 10 4-1.62.75-1.62.75-4 1-3.25-1.88-3.25-1.88-6-4z" fill="#E5E5E6"/><path d="M748 342h2l2 9-3 1z" fill="#1F221F"/><path d="M757 35a24 24 0 0 1 5 3c.81 2.69.81 2.69 1 5l-2 1c-4-6.75-4-6.75-4-9" fill="#E9ECE9"/><path d="M506 631c3.38 1.19 5.65 2.28 8 5-3.72.2-4.77.15-8-2z" fill="#DBDBDD"/><path d="m694 60 2 1v2c-3.46 3-3.46 3-6 3l-1-3c2.38-1.56 2.38-1.56 5-3" fill="#1E1F22"/><path d="M899 447c2.5 2.31 2.5 2.31 5 5v3l-6-5z" fill="#DAD9DC"/><path d="m746 250 2 1-7 7-3-1z" fill="#E5E7E5"/><path d="M711 49c0 3 0 3-1.5 4.69L708 55l-4-2z" fill="#1C1E1F"/><path d="m543 689 3 1-1 10h-1z" fill="#201F24"/><path d="m499 639 3 1-5 5c0-4 0-4 2-6" fill="#DBDAE0"/><path d="M796 445c6.62-.25 6.62-.25 10 2-4.05 1.16-6.22.84-10-1z" fill="#212224"/><path d="M502 244c3.88 1.88 3.88 1.88 5 3q.06 2.5 0 5l-1-3c-2.06-1.19-2.06-1.19-4-2z" fill="#E5E4E7"/><path d="M542 692h1l1 12h-3z" fill="#BEBEC0"/><path d="M554 665v2c-1.81.69-1.81.69-4 1-1.75-1.44-1.75-1.44-3-3 3.13-1.04 3.99-.93 7 0" fill="#212126"/><path d="M495 647h3l-2 6-3-1z" fill="#1B1D1E"/><path d="M854 611c-1.19 1.5-1.19 1.5-3 3-2.69.19-2.69.19-5 0v-2c2.71-1.35 5.01-1.07 8-1" fill="#EDEFEE"/><path d="m921 545 3 4c-1.38 2-1.38 2-3 4h-2z" fill="#D3D4D6"/><path d="M917 476c1.99 2.99 2.94 5.6 4 9h-2v-2h-2z" fill="#1D1C1E"/><path d="m483 454 6 2v2l-7-1z" fill="#DEE1E0"/><path d="m469 454 2 1Zm2 2v1l-8 1v-2c2.86-1.43 4.93-.6 8 0" fill="#E1E3E6"/><path d="M847 421c6.05-.2 6.05-.2 8 0l2 2c-3.81 1.47-6.29.43-10-1z" fill="#D0D0D1"/><path d="m764 396 4 2-5 5z" fill="#DADDDC"/><path d="m500 32 3 1c-4.62 4-4.62 4-8 4z" fill="#E3E4E4"/><path d="M753.56 31.75C756 33 756 33 757 36a37 37 0 0 1-8-4c2-1 2-1 4.56-.25" fill="#DADBDC"/><path d="m545 674 3 3-3 2-2-3z" fill="#F5F0F8"/></svg>