<svg style="background:transparent" version="1.1" xmlns="http://www.w3.org/2000/svg" viewBox="0 0 1248 704"><path d="M915.36 133.81q3 0 6-.04h3.85l3.51-.02c3.41.26 6.08 1.07 9.28 2.25q1.97.45 3.96.78c11.13 2.08 20.21 5.68 30.04 11.22q1.94 1.05 3.86 2.12A151 151 0 0 1 993 161l2.94 1.68L998 164v2l1.72.72c2.74 1.53 4.55 3.4 6.72 5.65a58 58 0 0 0 7.12 6.55c2.8 2.37 4.18 4.63 5.94 7.83 1.97 3.54 3.95 6.97 6.25 10.31 4.15 6.62 6.08 14.2 4.74 21.94-1.75 7.04-5.64 10.18-11.49 14-4.04 2.01-8.63 1.58-13 1-8.53-3.36-16.38-10.45-22.03-17.56-2.45-3.04-5.26-5.33-8.27-7.8C974 207 974 207 973 204l-1.88-.94C969 202 969 202 967.75 200.12c-2.09-2.53-4.36-3.6-7.3-4.98-3.93-1.84-7.76-3.88-11.62-5.88A30 30 0 0 0 941 187l-5.56-1.5L930 184l-1.87-.59c-3.22-.63-6.36-.55-9.63-.54h-3.97c-2.78.1-4.9.36-7.53 1.13l-2.38-.07c-4.83.12-9.2 2.23-13.62 4.07l-3.3 1.31c-4.19 1.8-7.9 4.21-11.7 6.7l-3.06 1.8c-8.86 6.6-14 16.04-17.94 26.2l-1 2.41a100 100 0 0 0-4 11.2 39 39 0 0 1-2.8 7.08l-1.09 2.12-1.1 2.18-2.05 4.07-5.04 10.07-2.48 5.1A42 42 0 0 1 831 275l-1.29 1.85c-3.4 4.81-7.2 8.52-11.68 12.33-2.03 1.82-2.03 1.82-4.22 4.57-2.24 2.78-4.8 4.33-7.8 6.25-1.89 1.75-1.89 1.75-3 3a54 54 0 0 0 5 10 128 128 0 0 1 6 11q.72 1.41 1.5 2.87a76 76 0 0 1 6.02 17.97c.41 1.91.96 3.8 1.53 5.66a58 58 0 0 1 1.7 10.38c.24 2.12.24 2.12.72 3.93 2.28 9.6 1.67 20.01 1.65 29.82v11.74l.01 2.14a35 35 0 0 1-1.14 9.5v3.42c0 3.14-.37 5.53-1 8.57-.4 3.32-.69 6.66-1 10l-.29 2.84c-.39 4.06-.7 8.01-.7 12.1 0 2.67-.36 4.51-1 7.06v3.12c0 2.88 0 2.88-1 4.88a246 246 0 0 0 .03 9.41 36 36 0 0 1-1.04 9.6q-.15 3.83-.13 7.67v2.1c0 5.1 0 5.1 1.13 6.22q.07 5.73-.04 11.47l-.02 2.43-.04 2.23c.1 1.87.1 1.87 1.1 3.87a160 160 0 0 1 .13 7.27v18.19l.01 2.1A33 33 0 0 1 821 562v2.56c0 2.44 0 2.44-1 5.44q-.3 2.43-.5 4.87A85 85 0 0 1 818 585l-.44 3.43C817 592 817 592 816 594.87a33 33 0 0 0-1.5 7.56A59 59 0 0 1 812 614q-.74 3.18-1.44 6.37a116 116 0 0 1-4 13.92C806 636 806 636 806 638l2.51.22c17.5 1.87 35.14 5.4 51.86 10.9l2.12.7c5.14 1.8 11.35 4.53 14.51 9.18.15 2.78-.47 4.32-2.18 6.51-12.8 12.62-39.83 12.17-56.82 13.5-.36.01-.36.01-2.17.16-32.35 2.6-65.13.6-97.47-.97l-29.04-1.36a1847 1847 0 0 0-84.2-2.09h-3.68c-40.12 0-80.42 1.77-120.35 5.75q-7.58.74-15.18 1.43A3750 3750 0 0 0 355.01 694l-24.6 2.98q-4.73.56-9.44 1.15A430 430 0 0 1 283 701l-2.37.07c-9.12.3-16.9-.43-25.63-3.07l-6-1.5a20.6 20.6 0 0 1-9-4.5l-2.07-1.47-2.06-1.47-2.07-1.47c-1.96-1.74-2.78-3.2-3.8-5.59l-1-2c4.58-4.72 4.58-4.72 7.25-6.57 2.11-1.73 2.21-2.82 2.75-5.43l-1.98 1.27-2.65 1.66c-.86.55-1.7 1.1-2.6 1.66-3.04 1.54-5.39 2.02-8.77 2.41l-3.63.45c-11.02 1-21.95.35-30.95-6.99-5.2-5.35-8.38-11.93-8.42-19.46a46.5 46.5 0 0 1 11-21h3q.33-.93.7-1.88c1.72-2.82 3.18-3.1 6.3-4.12 2.68-.42 2.68-.42 5.44-.63l2.92-.25c2.64-.12 2.64-.12 5.7.2 12.95-1.39 24.7-16.9 33.31-25.5l2.66-2.63c4.2-4.19 7.84-8.16 10.97-13.19l2-1 1.27-2.15c2.13-3.52 4.7-6.46 7.42-9.54a308 308 0 0 0 12.78-15.62L287 550h2l.2-1.69c1.13-3.25 3.37-4.89 5.8-7.3q1.53-2.62 2.98-5.28c1.28-2.19 2.91-4 4.58-5.9 3.17-4.03 5.75-8.49 8.44-12.83l-1.83.55c-3.14.65-5.17-.48-8.17-1.55q-2.22-.5-4.44-.94A56 56 0 0 1 285 511l-4.69-1.75a81 81 0 0 1-36.3-29.25v-2l-1.95-.69c-2.06-1.3-2.06-1.3-2.6-3.6L239 471q-.69-2.34-1.44-4.64c-2.9-9.7-3.84-19.1-4.22-29.2a97 97 0 0 0-.86-10.63c-.64-4.7-.63-9.3-.6-14.04l-.02-2.77c.01-3.8.1-7.43.65-11.2 1.04-7.47.55-14.89-.22-22.36a333 333 0 0 1-1.54-33.42l-.02-2.12c-.14-24.6-.14-24.6 7.84-33.36 3.3-3.24 3.3-3.24 5.43-4.27 12.47.6 23.67 9.55 33.5 16.54q4.12 2.92 8.5 5.46l2.31 1.43a123 123 0 0 0 8.8 4.64q2.16 1.07 4.26 2.24c4.97 1.3 10.23.18 15.2-.85 4.32-.59 8.47-.44 12.81-.28l5.54.12q4.31.08 8.63.24c19.41.73 19.41.73 27.23-6.27L373 324l2.2-2.07a181 181 0 0 0 6-6.06c13.38-14.03 13.38-14.03 22-15.37 5.45.71 8.2 3.47 11.8 7.5 2.57 4.12 3.8 8.31 5 13l.53 1.97c1.13 4.32 1.86 8.6 2.47 13.03l1 3q.3 2.46.5 4.93c.26 3.14.73 6.01 1.5 9.07q.32 2.62.56 5.25l.25 2.7.2 2.05c4.68-1.93 9.03-4.07 13.43-6.63l3.68-2.14 1.92-1.1q3.93-2.26 7.9-4.45a710 710 0 0 0 21.51-12.55q4.96-3 10-5.88 5.9-3.42 11.63-7.1A106 106 0 0 1 505 319l7.06-3.5 1.81-.9c3.48-1.73 6.82-3.58 10.13-5.6a260 260 0 0 1 15-8l3-1.5 9-4.5 2.32-1.2c3.92-2 7.8-3.92 11.93-5.43A87 87 0 0 0 575 284a173 173 0 0 1 14.88-6.2q2.68-1.04 5.31-2.2c4.13-1.79 8.35-3.2 12.62-4.6l2.4-.8c4.9-1.6 9.8-3.16 14.74-4.56 2.05-.64 2.05-.64 4.47-1.66 3.55-1.36 7.11-1.83 10.86-2.42 2.72-.56 2.72-.56 5.1-1.56 3.36-1.29 6.54-1.6 10.12-2 7.73-.87 7.73-.87 11.36-1.5 8.07-1.4 15.93-1.79 24.1-1.7l6.21.01c10.76.04 10.76.04 15.83 1.2q2.5.23 5 .42a32 32 0 0 1 10 2.57q2.18.3 4.37.5A54 54 0 0 1 744 262l7.37 2.2a206 206 0 0 1 5.32 1.72c6.6 2.22 6.6 2.22 10.06 1.51L769 266l2.81-1.63a71 71 0 0 0 9.45-8.77C783 254 783 254 785 254l.75-1.69c1.98-3.67 4.72-6.68 7.37-9.88A32 32 0 0 0 797 236a290 290 0 0 1 2.37-4.25c4.1-7.38 7.42-14.69 10.41-22.58A124 124 0 0 1 821 187l1.81-2.94c3.5-4.89 7.34-9.46 11.2-14.06l2-2.42 1.8-2.15 1.58-1.88c1.75-1.7 3.42-2.5 5.61-3.55l2.37-2.38c9.1-9.1 22.4-15.19 34.63-18.62l2.75-1a89 89 0 0 1 11.66-2.54c2.6-.46 2.6-.46 4.34-.98 4.77-1.03 9.75-.67 14.61-.67" fill="#111311"/><path d="M915.36 133.81q3 0 6-.04h3.85l3.51-.02c3.41.26 6.08 1.07 9.28 2.25q1.97.45 3.96.78c11.13 2.08 20.21 5.68 30.04 11.22q1.94 1.05 3.86 2.12A151 151 0 0 1 993 161l2.94 1.68L998 164v2l1.72.72c2.74 1.53 4.55 3.4 6.72 5.65a58 58 0 0 0 7.12 6.55c2.8 2.37 4.18 4.63 5.94 7.83 1.97 3.54 3.95 6.97 6.25 10.31 4.15 6.62 6.08 14.2 4.74 21.94-1.75 7.04-5.64 10.18-11.49 14-4.04 2.01-8.63 1.58-13 1-8.53-3.36-16.38-10.45-22.03-17.56-2.45-3.04-5.26-5.33-8.27-7.8C974 207 974 207 973 204l-1.88-.94C969 202 969 202 967.75 200.12c-2.09-2.53-4.36-3.6-7.3-4.98-3.93-1.84-7.76-3.88-11.62-5.88A30 30 0 0 0 941 187l-5.56-1.5L930 184l-1.87-.59c-3.22-.63-6.36-.55-9.63-.54h-3.97c-2.78.1-4.9.36-7.53 1.13l-2.38-.07c-4.83.12-9.2 2.23-13.62 4.07l-3.3 1.31c-4.19 1.8-7.9 4.21-11.7 6.7l-3.06 1.8c-8.86 6.6-14 16.04-17.94 26.2l-1 2.41a100 100 0 0 0-4 11.2 39 39 0 0 1-2.8 7.08l-1.09 2.12-1.1 2.18-2.05 4.07-5.04 10.07-2.48 5.1A42 42 0 0 1 831 275l-1.29 1.85c-3.4 4.81-7.2 8.52-11.68 12.33-2.03 1.82-2.03 1.82-4.22 4.57-2.24 2.78-4.8 4.33-7.8 6.25-1.89 1.75-1.89 1.75-3 3a54 54 0 0 0 5 10 128 128 0 0 1 6 11q.72 1.41 1.5 2.87a76 76 0 0 1 6.02 17.97c.41 1.91.96 3.8 1.53 5.66a58 58 0 0 1 1.7 10.38c.24 2.12.24 2.12.72 3.93 2.28 9.6 1.67 20.01 1.65 29.82v11.74l.01 2.14a35 35 0 0 1-1.14 9.5v3.42c0 3.14-.37 5.53-1 8.57-.4 3.32-.69 6.66-1 10l-.29 2.84c-.39 4.06-.7 8.01-.7 12.1 0 2.67-.36 4.51-1 7.06v3.12c0 2.88 0 2.88-1 4.88a246 246 0 0 0 .03 9.41 36 36 0 0 1-1.04 9.6q-.15 3.83-.13 7.67v2.1c0 5.1 0 5.1 1.13 6.22q.07 5.73-.04 11.47l-.02 2.43-.04 2.23c.1 1.87.1 1.87 1.1 3.87a160 160 0 0 1 .13 7.27v18.19l.01 2.1A33 33 0 0 1 821 562v2.56c0 2.44 0 2.44-1 5.44q-.3 2.43-.5 4.87A85 85 0 0 1 818 585l-.44 3.43C817 592 817 592 816 594.87a33 33 0 0 0-1.5 7.56A59 59 0 0 1 812 614q-.74 3.18-1.44 6.37a116 116 0 0 1-4 13.92C806 636 806 636 806 638l2.51.22c17.5 1.87 35.14 5.4 51.86 10.9l2.12.7c5.14 1.8 11.35 4.53 14.51 9.18.15 2.78-.47 4.32-2.18 6.51-12.8 12.62-39.83 12.17-56.82 13.5-.36.01-.36.01-2.17.16-32.35 2.6-65.13.6-97.47-.97l-29.04-1.36a1847 1847 0 0 0-84.2-2.09h-3.68c-40.12 0-80.42 1.77-120.35 5.75q-7.58.74-15.18 1.43A3750 3750 0 0 0 355.01 694l-24.6 2.98q-4.73.56-9.44 1.15A430 430 0 0 1 283 701l-2.37.07c-9.12.3-16.9-.43-25.63-3.07l-6-1.5a20.6 20.6 0 0 1-9-4.5l-2.07-1.47-2.06-1.47-2.07-1.47c-1.96-1.74-2.78-3.2-3.8-5.59l-1-2c4.58-4.72 4.58-4.72 7.25-6.57 2.11-1.73 2.21-2.82 2.75-5.43l-1.98 1.27-2.65 1.66c-.86.55-1.7 1.1-2.6 1.66-3.04 1.54-5.39 2.02-8.77 2.41l-3.63.45c-11.02 1-21.95.35-30.95-6.99-5.2-5.35-8.38-11.93-8.42-19.46a46.5 46.5 0 0 1 11-21h3q.33-.93.7-1.88c1.72-2.82 3.18-3.1 6.3-4.12 2.68-.42 2.68-.42 5.44-.63l2.92-.25c2.64-.12 2.64-.12 5.7.2 12.95-1.39 24.7-16.9 33.31-25.5l2.66-2.63c4.2-4.19 7.84-8.16 10.97-13.19l2-1 1.27-2.15c2.13-3.52 4.7-6.46 7.42-9.54a308 308 0 0 0 12.78-15.62L287 550h2l.2-1.69c1.13-3.25 3.37-4.89 5.8-7.3q1.53-2.62 2.98-5.28c1.28-2.19 2.91-4 4.58-5.9 3.17-4.03 5.75-8.49 8.44-12.83l-1.83.55c-3.14.65-5.17-.48-8.17-1.55q-2.22-.5-4.44-.94A56 56 0 0 1 285 511l-4.69-1.75a81 81 0 0 1-36.3-29.25v-2l-1.95-.69c-2.06-1.3-2.06-1.3-2.6-3.6L239 471q-.69-2.34-1.44-4.64c-2.9-9.7-3.84-19.1-4.22-29.2a97 97 0 0 0-.86-10.63c-.64-4.7-.63-9.3-.6-14.04l-.02-2.77c.01-3.8.1-7.43.65-11.2 1.04-7.47.55-14.89-.22-22.36a333 333 0 0 1-1.54-33.42l-.02-2.12c-.14-24.6-.14-24.6 7.84-33.36 3.3-3.24 3.3-3.24 5.43-4.27 12.47.6 23.67 9.55 33.5 16.54q4.12 2.92 8.5 5.46l2.31 1.43a123 123 0 0 0 8.8 4.64q2.16 1.07 4.26 2.24c4.97 1.3 10.23.18 15.2-.85 4.32-.59 8.47-.44 12.81-.28l5.54.12q4.31.08 8.63.24c19.41.73 19.41.73 27.23-6.27L373 324l2.2-2.07a181 181 0 0 0 6-6.06c13.38-14.03 13.38-14.03 22-15.37 5.45.71 8.2 3.47 11.8 7.5 2.57 4.12 3.8 8.31 5 13l.53 1.97c1.13 4.32 1.86 8.6 2.47 13.03l1 3q.3 2.46.5 4.93c.26 3.14.73 6.01 1.5 9.07q.32 2.62.56 5.25l.25 2.7.2 2.05c4.68-1.93 9.03-4.07 13.43-6.63l3.68-2.14 1.92-1.1q3.93-2.26 7.9-4.45a710 710 0 0 0 21.51-12.55q4.96-3 10-5.88 5.9-3.42 11.63-7.1A106 106 0 0 1 505 319l7.06-3.5 1.81-.9c3.48-1.73 6.82-3.58 10.13-5.6a260 260 0 0 1 15-8l3-1.5 9-4.5 2.32-1.2c3.92-2 7.8-3.92 11.93-5.43A87 87 0 0 0 575 284a173 173 0 0 1 14.88-6.2q2.68-1.04 5.31-2.2c4.13-1.79 8.35-3.2 12.62-4.6l2.4-.8c4.9-1.6 9.8-3.16 14.74-4.56 2.05-.64 2.05-.64 4.47-1.66 3.55-1.36 7.11-1.83 10.86-2.42 2.72-.56 2.72-.56 5.1-1.56 3.36-1.29 6.54-1.6 10.12-2 7.73-.87 7.73-.87 11.36-1.5 8.07-1.4 15.93-1.79 24.1-1.7l6.21.01c10.76.04 10.76.04 15.83 1.2q2.5.23 5 .42a32 32 0 0 1 10 2.57q2.18.3 4.37.5A54 54 0 0 1 744 262l7.37 2.2a206 206 0 0 1 5.32 1.72c6.6 2.22 6.6 2.22 10.06 1.51L769 266l2.81-1.63a71 71 0 0 0 9.45-8.77C783 254 783 254 785 254l.75-1.69c1.98-3.67 4.72-6.68 7.37-9.88A32 32 0 0 0 797 236a290 290 0 0 1 2.37-4.25c4.1-7.38 7.42-14.69 10.41-22.58A124 124 0 0 1 821 187l1.81-2.94c3.5-4.89 7.34-9.46 11.2-14.06l2-2.42 1.8-2.15 1.58-1.88c1.75-1.7 3.42-2.5 5.61-3.55l2.37-2.38c9.1-9.1 22.4-15.19 34.63-18.62l2.75-1a89 89 0 0 1 11.66-2.54c2.6-.46 2.6-.46 4.34-.98 4.77-1.03 9.75-.67 14.61-.67M843 164.01l-2.07 1.81c-4.36 4.07-7.95 8.65-11.49 13.43l-1.32 1.76c-7.07 9.77-12.19 20.01-16.5 31.24-7.29 18.38-16.29 37.62-32.62 49.75q-1.45 1.07-2.92 2.2c-9.13 6.5-9.13 6.5-16.08 5.8-3.09-.92-3.09-.92-6.38-2.19-10.88-3.92-22.27-5.8-33.62-7.8l-2.24-.43C655.96 248.55 594.93 276.62 541 303l-2.66 1.28a572 572 0 0 0-34.56 18.43 709 709 0 0 1-16.66 9.16 633 633 0 0 0-27.19 15.75A470 470 0 0 1 425 367l-.4-2.75c-7.53-51.9-7.53-51.9-15.48-59.25-3.58-2.3-4.96-2.43-9.12-2-8.8 4.42-16.07 12.56-23.1 19.31-12.37 11.8-12.37 11.8-22.84 11.97l-2.74.05-8.76.17-11.37.21-2.84.05c-4.58.1-9.13.27-13.7.63-15.79 1.24-15.79 1.24-22.34-3.33l-2.13-1.32A247 247 0 0 1 283 326l-6.22-4.13q-4.8-3.17-9.55-6.43c-8-5.48-15.12-10.3-25.23-8.44a19.6 19.6 0 0 0-7 9c-.25 2.51-.25 2.51-.25 5.4v3.3l.02 3.61v3.81l.03 10.3.02 6.43q.07 29.82.5 59.62l.1 7.45c.72 55.16.72 55.16 20.63 74.72 11.85 11.18 26.27 17.45 41.7 22.23l2.04.65c5.44 1.6 10.56 1.7 16.21 1.48a645 645 0 0 1-24.36 32.91q-2.27 2.88-4.52 5.8c-9.63 12.46-20 24.23-30.72 35.77l-4.47 4.87c-25.6 27.95-25.6 27.95-36.45 28.98l-3.73.04c-9.15.48-15.39 2.76-21.69 9.5-5.27 6.7-6.68 12.5-6.48 20.96.78 5.93 3.61 9.41 7.8 13.48 9.72 6.25 20.85 7.22 32.07 5a67 67 0 0 0 19.55-9.3l-1 2.74a35.5 35.5 0 0 0 0 19.62c5.2 6.83 12.61 11.02 21 12.63 12.71 1.22 24.53 1.07 36-5l3.78-1.85c10.38-5.16 20.07-11.39 29.8-17.67q7.24-4.66 14.61-9.1 10.31-6.29 20.5-12.76 7.56-4.8 15.2-9.49A801 801 0 0 0 414 622l2.1-1.43c19.04-12.96 37.82-26.27 55.26-41.33L474 577l1.81-1.65c3.38-2.1 7.06-2.93 10.88-3.98 27.25-7.95 52.61-19.44 78.31-31.37l3.66-1.7A587 587 0 0 0 599 523.13c6.6-3.53 13.3-6.84 20.01-10.13l3.28-1.62a3870 3870 0 0 1 18.08-8.82l3.07-1.5C646 500 646 500 649 500l.8 1.75c9.25 20 20.02 37.23 35.2 53.25l2.7 2.9c9.96 10.46 21.26 18.37 33.61 25.78 11.98 7.2 22.73 14.17 26.7 28.32q.4 3.42.61 6.87l.23 3.5.15 2.63-3.88-.32c-5.87.03-10.35 1.95-15.12 5.32-4.8 4.91-7.7 9.95-8.38 16.81a19.6 19.6 0 0 0 4.38 12.2c12.55 10.9 25.42 11.71 41.4 11.17 5.3-.37 9.85-1.84 14.6-4.18l2.24-1.07c10.92-5.94 15.43-17.43 18.94-28.74 1.2-4.17 2.3-8.37 3.38-12.57l.6-2.26a352 352 0 0 0 7.45-34.9q.6-3.8 1.25-7.57a237 237 0 0 0 3.26-38.89l.02-2.99c0-5.06-.2-10.06-.63-15.1-.7-8.49-.75-16.97-.76-25.48v-2.62a484 484 0 0 1 4.11-61.72c3.31-25.76 4.8-53.56-.86-79.09l-.49-2.29a123 123 0 0 0-19.2-43.59 16 16 0 0 1-2.3-6.12l2.07-.66c3.76-1.73 6.56-4.08 9.67-6.78l1.87-1.62c18.7-16.55 29.3-40.34 37.75-63.38 6.33-16.35 15.65-31.92 31.8-40.32L885 187l1.77-.82C904.4 178.4 924 178.58 942 185q2.25.4 4.5.75c12.21 2.65 21.92 11.72 30.5 20.25l2.05 1.97c2.98 2.9 5.74 5.93 8.45 9.1 6.51 7.47 14.01 13.92 24.12 15.5 5.64-.95 9.82-2.97 13.82-7.07 3.31-5.3 3.54-11.43 2.56-17.5-10.17-28.75-34.95-47.46-61.38-60.25-40.6-19.02-89.9-14.02-123.62 16.25" fill="#BBBDBB"/><path d="M648.21 499.08c2.5 1.29 3 2.67 4.12 5.23l1.22 2.69 1.26 2.88c7.81 17.06 18.31 31.5 31.2 45.12l2.47 2.68c9.72 10.15 20.81 17.8 32.83 25 11.22 6.74 22.77 13.95 27.23 26.96.98 5.06.67 10.24.46 15.36l-2.3.23c-7.72.98-12.58 3.07-18.7 7.77l-2 1-2-1q-2.62-.31-5.26-.5l-3.34-.25a531 531 0 0 1-6.79-.5q-5.8-.41-11.6-.75l-2.3-.13c-21.97-1.27-43.98-1.07-65.96-1.05h-3.12c-73.29.02-145.65 4.1-218.38 13.37l-3.69.47c-5.86.77-11.62 1.68-17.39 2.96-3.42.6-6.7.5-10.17.38 3.66-4.16 8.13-6.75 12.81-9.62l5.16-3.22 2.6-1.62a626 626 0 0 0 19.4-12.88c19.08-13 37.9-26.31 55.4-41.41L474 576l1.81-1.64c3.38-2.1 7.06-2.93 10.87-3.98 27.26-7.95 52.62-19.45 78.32-31.38l3.66-1.7A587 587 0 0 0 599 522.15c5.76-3.08 11.6-6 17.45-8.88l7.6-3.77 7.36-3.64 3.67-1.82q2.6-1.3 5.2-2.56l3.05-1.51c2.68-.96 2.68-.96 4.9-.88" fill="#ECEEEC"/><path d="M915.36 133.81q3 0 6-.04h3.85l3.51-.02c3.41.26 6.08 1.07 9.28 2.25q1.97.45 3.96.78c11.13 2.08 20.21 5.68 30.04 11.22q1.94 1.05 3.86 2.12A151 151 0 0 1 993 161l2.94 1.68L998 164v2l1.72.72c2.74 1.53 4.55 3.4 6.72 5.65a58 58 0 0 0 7.12 6.55c2.8 2.37 4.18 4.63 5.94 7.83 1.97 3.54 3.95 6.97 6.25 10.31 4.15 6.62 6.08 14.2 4.74 21.94-1.75 7.04-5.64 10.18-11.49 14-4.04 2.01-8.63 1.58-13 1-8.53-3.36-16.38-10.45-22.03-17.56-2.45-3.04-5.26-5.33-8.27-7.8C974 207 974 207 973 204l-1.88-.94C969 202 969 202 967.75 200.12c-2.09-2.53-4.36-3.6-7.3-4.98-3.93-1.84-7.76-3.88-11.62-5.88A30 30 0 0 0 941 187l-5.56-1.5L930 184l-1.87-.59c-3.22-.63-6.36-.55-9.63-.54h-3.97c-2.78.1-4.9.36-7.53 1.13l-2.38-.07c-4.83.12-9.2 2.23-13.62 4.07l-3.3 1.31c-4.19 1.8-7.9 4.21-11.7 6.7l-3.06 1.8c-8.86 6.6-14 16.04-17.94 26.2l-1 2.41a100 100 0 0 0-4 11.2 39 39 0 0 1-2.8 7.08l-1.09 2.12-1.1 2.18-2.05 4.07-5.04 10.07-2.48 5.1A42 42 0 0 1 831 275l-1.29 1.85c-3.4 4.81-7.2 8.52-11.68 12.33-2.03 1.82-2.03 1.82-4.22 4.57-2.24 2.78-4.8 4.33-7.8 6.25-1.89 1.75-1.89 1.75-3 3a54 54 0 0 0 5 10 128 128 0 0 1 6 11q.72 1.41 1.5 2.87a76 76 0 0 1 6.02 17.97c.41 1.91.96 3.8 1.53 5.66a58 58 0 0 1 1.7 10.38c.24 2.12.24 2.12.72 3.93 2.28 9.6 1.67 20.01 1.65 29.82v11.74l.01 2.14a35 35 0 0 1-1.14 9.5v3.42c0 3.14-.37 5.53-1 8.57-.4 3.32-.69 6.66-1 10l-.29 2.84c-.39 4.06-.7 8.01-.7 12.1 0 2.67-.36 4.51-1 7.06v3.12c0 2.88 0 2.88-1 4.88a246 246 0 0 0 .03 9.41 36 36 0 0 1-1.04 9.6q-.15 3.83-.13 7.67v2.1c0 5.1 0 5.1 1.13 6.22q.07 5.73-.04 11.47l-.02 2.43-.04 2.23c.1 1.87.1 1.87 1.1 3.87a160 160 0 0 1 .13 7.27v18.19l.01 2.1A33 33 0 0 1 821 562v2.56c0 2.44 0 2.44-1 5.44q-.3 2.43-.5 4.87A85 85 0 0 1 818 585l-.44 3.43C817 592 817 592 816 594.87a33 33 0 0 0-1.5 7.56A59 59 0 0 1 812 614q-.74 3.18-1.44 6.37a116 116 0 0 1-4 13.92C806 636 806 636 806 638l2.51.22c17.5 1.87 35.14 5.4 51.86 10.9l2.12.7c4.64 1.62 10.21 3.57 12.51 8.18-3.35-.72-6.3-1.94-9.44-3.32-17.24-7.23-35.48-10.5-53.85-13.38q-1.48-.22-3-.47l-2.68-.42c-2.03-.4-2.03-.4-3.03-1.4-.64-6.75 1.4-12.66 3.25-19.08A325 325 0 0 0 814 584l.87-5.14c2.18-13 3.2-25.68 3.25-38.86l.02-2.99c0-5.06-.2-10.06-.63-15.1-.7-8.49-.75-16.97-.76-25.48v-2.62a484 484 0 0 1 4.11-61.72c3.31-25.76 4.8-53.56-.86-79.09l-.49-2.29a121 121 0 0 0-19.3-43.59c-1.2-2.12-1.2-2.12-1.2-6.12 2.04-1.83 2.04-1.83 4.86-3.69 17.2-12.03 27.48-27.47 36.13-46.3l1.35-2.83c2.26-4.78 4.22-9.65 6.08-14.6 7.01-18.54 16.21-36.82 34.77-46.38l2.8-1.2 1.77-.8c17.63-7.8 37.22-7.63 55.23-1.2q2.25.4 4.5.75c12.21 2.65 21.92 11.72 30.5 20.25l2.28 2.2c3.23 3.15 6.25 6.4 9.16 9.86 6.13 7.1 13.47 13.16 23 14.37 5.35-.65 9.72-2.53 13.5-6.43 2.8-5.26 3-11.23 2.06-17-3.3-9.37-8.88-18.26-15-26l-1.72-2.22C991.35 156.95 959.01 141.81 930 138c-31-2.02-60.64 4.23-84.62 24.87L843 165l-1.85 1.6c-4.08 3.76-7.35 8.14-10.65 12.58l-1.33 1.78c-7.1 9.78-12.23 20.03-16.55 31.3-8.98 22.61-22.02 48.26-45.62 58.74-5.06.47-8.68-.38-13.38-2.19-10.88-3.92-22.27-5.8-33.62-7.8l-2.24-.43C655.96 249.55 594.93 277.62 541 304l-2.66 1.28a572 572 0 0 0-34.56 18.43 709 709 0 0 1-16.66 9.16 633 633 0 0 0-27.19 15.75C427.88 368 427.88 368 424 368l-.29-2.3c-1.68-13.25-3.43-26.45-6.2-39.52l-.59-2.77c-1.49-6.73-3.49-12.85-8.3-17.9-3.22-1.86-4.94-1.85-8.62-1.5-8.8 4.41-16.07 12.55-23.1 19.3-12.37 11.8-12.37 11.8-22.84 11.97l-2.74.05-8.76.17-11.37.21-2.84.05c-4.58.1-9.13.27-13.7.63-15.79 1.24-15.79 1.24-22.34-3.33l-2.13-1.32A247 247 0 0 1 283 327l-6.22-4.13q-4.8-3.17-9.55-6.43c-13.06-8.93-13.06-8.93-20.48-8.69l-2.52.04C242 308 242 308 239 309c-1.13 2.43-1.13 2.43-2 5l-1 2q-.14 2.58-.13 5.16v21.12l.01 6.46c.02 19.91.14 39.82.44 59.73l.1 7.45c.72 55.18.72 55.18 20 74.08 15.4 14.47 38.38 24 59.58 25-1.68 3.7-3.95 6.9-6.3 10.18q-.67.9-1.33 1.84a843 843 0 0 1-15.79 20.94l-3.02 3.91c-10.08 13.11-20.92 25.5-32.16 37.61l-4.44 4.83c-26.5 28.97-26.5 28.97-37.48 30.02l-3.73.04c-8.7.44-15.19 2.51-21.19 9-5.64 7.48-6.76 14.33-5.56 23.63 1.97 5.7 5.7 9.16 10.92 12.03 10.75 4.98 22.97 4 33.94.25A104 104 0 0 0 244 662c-1 4-1 4-1.55 5.88a37 37 0 0 0 .5 17.5c5.54 7.06 14.01 10.66 22.74 12.04q4.18.45 8.37.76l2.91.25q3.5.3 7.03.57l-1 2c-9.9.33-18.45-.1-28-3l-6-1.5a20.6 20.6 0 0 1-9-4.5l-2.07-1.47-2.06-1.47-2.07-1.47c-1.96-1.74-2.78-3.2-3.8-5.59l-1-2c4.58-4.72 4.58-4.72 7.25-6.57 2.11-1.73 2.21-2.82 2.75-5.43l-1.98 1.27-2.65 1.66c-.86.55-1.7 1.1-2.6 1.66-3.04 1.54-5.39 2.02-8.77 2.41l-3.63.45c-11.02 1-21.95.35-30.95-6.99-5.2-5.35-8.38-11.93-8.42-19.46a46.5 46.5 0 0 1 11-21h3q.33-.93.7-1.88c1.72-2.82 3.18-3.1 6.3-4.12 2.68-.42 2.68-.42 5.44-.63l2.92-.25c2.64-.12 2.64-.12 5.7.2 12.95-1.39 24.7-16.9 33.31-25.5l2.66-2.63c4.2-4.19 7.84-8.16 10.97-13.19l2-1 1.27-2.15c2.13-3.52 4.7-6.46 7.42-9.54a308 308 0 0 0 12.78-15.62L287 550h2l.2-1.69c1.13-3.25 3.37-4.89 5.8-7.3q1.53-2.62 2.98-5.28c1.28-2.19 2.91-4 4.58-5.9 3.17-4.03 5.75-8.49 8.44-12.83l-1.83.55c-3.14.65-5.17-.48-8.17-1.55q-2.22-.5-4.44-.94A56 56 0 0 1 285 511l-4.69-1.75a81 81 0 0 1-36.3-29.25v-2l-1.95-.69c-2.06-1.3-2.06-1.3-2.6-3.6L239 471q-.69-2.34-1.44-4.64c-2.9-9.7-3.84-19.1-4.22-29.2a97 97 0 0 0-.86-10.63c-.64-4.7-.63-9.3-.6-14.04l-.02-2.77c.01-3.8.1-7.43.65-11.2 1.04-7.47.55-14.89-.22-22.36a333 333 0 0 1-1.54-33.42l-.02-2.12c-.14-24.6-.14-24.6 7.84-33.36 3.3-3.24 3.3-3.24 5.43-4.27 12.47.6 23.67 9.55 33.5 16.54q4.12 2.92 8.5 5.46l2.31 1.43a123 123 0 0 0 8.8 4.64q2.16 1.07 4.26 2.24c4.97 1.3 10.23.18 15.2-.85 4.32-.59 8.47-.44 12.81-.28l5.54.12q4.31.08 8.63.24c19.41.73 19.41.73 27.23-6.27L373 324l2.2-2.07a181 181 0 0 0 6-6.06c13.38-14.03 13.38-14.03 22-15.37 5.45.71 8.2 3.47 11.8 7.5 2.57 4.12 3.8 8.31 5 13l.53 1.97c1.13 4.32 1.86 8.6 2.47 13.03l1 3q.3 2.46.5 4.93c.26 3.14.73 6.01 1.5 9.07q.32 2.62.56 5.25l.25 2.7.2 2.05c4.68-1.93 9.03-4.07 13.43-6.63l3.68-2.14 1.92-1.1q3.93-2.26 7.9-4.45a710 710 0 0 0 21.51-12.55q4.96-3 10-5.88 5.9-3.42 11.63-7.1A106 106 0 0 1 505 319l7.06-3.5 1.81-.9c3.48-1.73 6.82-3.58 10.13-5.6a260 260 0 0 1 15-8l3-1.5 9-4.5 2.32-1.2c3.92-2 7.8-3.92 11.93-5.43A87 87 0 0 0 575 284a173 173 0 0 1 14.88-6.2q2.68-1.04 5.31-2.2c4.13-1.79 8.35-3.2 12.62-4.6l2.4-.8c4.9-1.6 9.8-3.16 14.74-4.56 2.05-.64 2.05-.64 4.47-1.66 3.55-1.36 7.11-1.83 10.86-2.42 2.72-.56 2.72-.56 5.1-1.56 3.36-1.29 6.54-1.6 10.12-2 7.73-.87 7.73-.87 11.36-1.5 8.07-1.4 15.93-1.79 24.1-1.7l6.21.01c10.76.04 10.76.04 15.83 1.2q2.5.23 5 .42a32 32 0 0 1 10 2.57q2.18.3 4.37.5A54 54 0 0 1 744 262l7.37 2.2a206 206 0 0 1 5.32 1.72c6.6 2.22 6.6 2.22 10.06 1.51L769 266l2.81-1.63a71 71 0 0 0 9.45-8.77C783 254 783 254 785 254l.75-1.69c1.98-3.67 4.72-6.68 7.37-9.88A32 32 0 0 0 797 236a290 290 0 0 1 2.37-4.25c4.1-7.38 7.42-14.69 10.41-22.58A124 124 0 0 1 821 187l1.81-2.94c3.5-4.89 7.34-9.46 11.2-14.06l2-2.42 1.8-2.15 1.58-1.88c1.75-1.7 3.42-2.5 5.61-3.55l2.37-2.38c9.1-9.1 22.4-15.19 34.63-18.62l2.75-1a89 89 0 0 1 11.66-2.54c2.6-.46 2.6-.46 4.34-.98 4.77-1.03 9.75-.67 14.61-.67" fill="#E6E6E7"/><path d="M406 303c6.53 3.7 8.77 9.12 11 16 1.05 4.22 1.86 8.47 2.62 12.75l.65 3.47c4.09 22.43 4.09 22.43 3.73 32.78h-1l-1-7h-2l.04 2.63.02 3.49.04 3.45A58 58 0 0 1 419 380h-3l-2-8h-2l-.25-1.88c-1-2.83-2.1-2.81-4.75-4.12a173 173 0 0 1-4.69-3.81A77 77 0 0 0 388 353l-2.47-1.31A92 92 0 0 0 369 345c.66-5.45 3.11-9.75 6.62-13.94C377 330 377 330 379 330l.88-1.81C381 326 381 326 383 323h2v-4l-2.25 2.56L380 324c-2.17-.35-2.17-.35-4-1 22.71-21.9 22.71-21.9 30-20" fill="#222421"/><path d="m244 307 .5 1.88c2 2.83 3.94 2.77 7.21 3.43 5.2 1.56 9.53 5.28 13.71 8.64 3.54 2.81 7.25 5.37 10.96 7.95A38 38 0 0 1 283 336l1.69 1.44c1.92 2.28 1.89 4.66 2.31 7.56l-3.4 1.47c-8.68 3.85-15.97 7.55-22.6 14.53l-2.94 2.81C256 366 256 366 254 369h-2l-.19 2c-.96 3.56-2.62 6.09-4.65 9.13C246 382 246 382 245 385h-3a25 25 0 0 1-2.41-10.49l-.12-3.28-.09-3.54-.12-3.68c-.27-9.85-.36-19.71-.38-29.57l-.01-2.13v-9.48C239 320 239 320 240 317l-2-1h2c.12-4.75.12-4.75-1-7 3-2 3-2 5-2" fill="#252724"/><path d="M383.19 427.56c4.47 3.62 7.22 7.03 8.22 12.75.42 6.78-1.48 12.2-5.41 17.7-5.51 5.57-12.46 9-20.31 9.43a32.5 32.5 0 0 1-21.32-8.88c-3.9-4.44-4.95-8.63-4.71-14.4 1.06-6.73 7.22-11.25 12.34-15.16 8.68-5.1 22.33-6.98 31.19-1.44" fill="#171815"/><path d="M376 549c4.75.75 4.75.75 7 3l-18.75 18.8-8.71 8.74-8.42 8.44-3.2 3.21a276 276 0 0 1-16.29 15.41 130 130 0 0 0-5.74 5.27 346 346 0 0 0-4.2 4.01 259 259 0 0 1-17.08 15.04 290 290 0 0 0-7.18 5.95 426 426 0 0 1-4.62 3.83 109 109 0 0 0-4.9 4.23c-7.3 6.04-16.89 5.05-25.91 5.07 2.4-3.15 4.69-5.76 7.88-8.12l2.38-1.81L271 638a601 601 0 0 0 23.92-19.39q4.21-3.57 8.52-7.05c4.86-3.96 9.62-8.03 14.37-12.12a482 482 0 0 1 10.69-8.94 812 812 0 0 0 17.69-14.95l5.39-4.6a434 434 0 0 0 18.69-16.65c3.52-3.3 3.52-3.3 5.73-3.3z" fill="#EBEAED"/><path d="M234 320h1l.03 1.8q.3 21.85.65 43.71.17 10.57.31 21.14l.32 20.44.11 7.76c.75 56.28.75 56.28 19.99 75.15 15.41 14.48 38.39 23.99 59.59 25-1.67 3.7-3.95 6.91-6.31 10.19l-1.32 1.83a785 785 0 0 1-15.79 20.94l-3.02 3.92c-10.08 13.1-20.92 25.49-32.16 37.61q-2.23 2.4-4.44 4.83c-26.51 28.97-26.51 28.97-37.48 30.02l-3.73.04c-8.7.44-15.19 2.5-21.19 9-5.64 7.47-6.76 14.32-5.56 23.62 1.97 5.71 5.71 9.16 10.92 12.04 10.75 4.98 22.97 4 33.95.25 4.94-2.03 9.55-4.54 14.13-7.29-1 4-1 4-1.55 5.88a37 37 0 0 0 .49 17.5c5.56 7.07 14.02 10.67 22.75 12.04q4.19.46 8.37.77l2.91.25 7.03.56-1 2c-9.89.34-18.44-.11-28-3l-6-1.5a20.6 20.6 0 0 1-9-4.5l-2.07-1.46-2.05-1.48-2.08-1.46c-1.96-1.74-2.78-3.2-3.8-5.6l-1-2c4.58-4.71 4.58-4.71 7.25-6.56 2.11-1.74 2.22-2.83 2.75-5.44l-1.98 1.28-2.64 1.66-2.61 1.65c-3.04 1.55-5.39 2.02-8.77 2.41l-3.63.46c-11.01.99-21.95.35-30.94-7-5.21-5.34-8.39-11.93-8.43-19.46a46.5 46.5 0 0 1 11-21h3l.69-1.88c1.74-2.81 3.2-3.1 6.31-4.12 2.68-.41 2.68-.41 5.44-.62l2.93-.25c2.63-.13 2.63-.13 5.69.18 12.95-1.38 24.7-16.89 33.32-25.5l2.65-2.61c4.2-4.19 7.84-8.17 10.97-13.2l2-1 1.27-2.14c2.14-3.53 4.7-6.46 7.42-9.55a314 314 0 0 0 12.79-15.61L287 550h2l.19-1.69c1.14-3.24 3.39-4.89 5.81-7.31q1.53-2.6 2.98-5.26c1.28-2.19 2.92-4.01 4.58-5.92 3.17-4.01 5.76-8.47 8.44-12.82l-1.83.55c-3.14.65-5.17-.47-8.17-1.55q-2.22-.5-4.44-.94A55 55 0 0 1 285 511l-4.69-1.75A81 81 0 0 1 244 480v-2l-1.94-.69c-2.06-1.31-2.06-1.31-2.6-3.6L239 471q-.69-2.33-1.44-4.62c-2.91-9.72-3.84-19.12-4.22-29.21-.14-3.6-.32-7.06-.86-10.62-.64-4.7-.63-9.32-.6-14.05l-.02-2.76c.01-5.02.35-9.77 1.14-14.74.4-7.69-.25-15.35-.88-23.01L232 369l1-1q.17-2.25.21-4.52l.06-2.91.05-3.17.06-3.22.18-10.24.13-6.93z" fill="#E8E8E9"/><path d="M297.36 429.38c5 3.07 8.13 7.06 11.07 12.06 1.08 4.93 1.37 9.6-.56 14.31-4.38 5.25-8.95 8.7-15.78 9.65-8.6.27-15-1.37-22.09-6.4a35 35 0 0 1-6-8l-1.38-2.37c-1.39-5.86-1.75-10.78 1.44-16 9.97-8.92 21.25-8.92 33.3-3.25" fill="#181914"/><path d="m875 658 2 1c-.11 3.64-1.21 5.6-3.75 8.06C859.51 677.91 834.83 677.7 818 679l-2.17.18c-32.35 2.59-65.13.59-97.47-.98l-26.18-1.23-2.86-.13a1861 1861 0 0 0-84.2-2.09h-3.68c-40.12.01-80.41 1.78-120.34 5.75q-7.6.75-15.19 1.43a3829 3829 0 0 0-114.56 12.52l-21.34 2.59-9.65 1.18c-10.18 1.24-20.09 2.19-30.36 1.78v-1l3.65-.4 4.73-.54 2.4-.26c5.99-.69 5.99-.69 8.22-1.8q2.95-.38 5.91-.65l3.71-.35 1.98-.19a971 971 0 0 0 34.05-3.75q10.01-1.28 20.06-2.28a565 565 0 0 0 17.91-2.18 1304 1304 0 0 1 38.92-4.49c13.17-1.39 26.34-2.69 39.55-3.71 6.55-.51 13.09-1.22 19.62-1.94l2.12-.22 4.5-.51c5.44-.59 10.85-.9 16.31-1.06 9.81-.3 19.59-.73 29.38-1.42 19.74-1.36 39.44-1.57 59.22-1.51l8.04.02c23.71.03 47.34.37 71.02 1.81 12.81.76 25.64 1.15 38.47 1.61l9.41.36 2.78.09q6.99.26 13.95.89c6.14.53 12.25.64 18.41.65l3.47.01 7.24.01 10.81.03c19.91.05 39.8-.79 59.47-4.1l2.97-.44c7.19-1.17 13.87-3.23 20.72-5.68l3-1 1-3h2z" fill="#E8EAE8"/><path d="M383.19 427.56c4.47 3.62 7.22 7.03 8.22 12.75.42 6.78-1.48 12.2-5.41 17.7-5.51 5.57-12.46 9-20.31 9.43a32.5 32.5 0 0 1-21.32-8.88c-3.9-4.44-4.95-8.63-4.71-14.4 1.06-6.73 7.22-11.25 12.34-15.16 8.68-5.1 22.33-6.98 31.19-1.44m-31.2 4.44c-3 3.9-4.33 7.56-4.05 12.5 1.09 6.3 4.15 10.76 8.8 15 4.3 1.98 7.62 2.4 12.26 1.5 5.47-2.13 9.3-5.65 12.15-10.76A21 21 0 0 0 382 438c-2.21-4.8-5.25-7.67-10-10-7.44-1.05-14.16-.97-20 4" fill="#EDD462"/><path d="M297.36 429.38c5 3.07 8.13 7.06 11.07 12.06 1.08 4.93 1.37 9.6-.56 14.31-4.38 5.25-8.95 8.7-15.78 9.65-8.6.27-15-1.37-22.09-6.4a35 35 0 0 1-6-8l-1.38-2.37c-1.39-5.86-1.75-10.78 1.44-16 9.97-8.92 21.25-8.92 33.3-3.25M271 433c-3.14 4.7-2.69 9.5-2 15a23.8 23.8 0 0 0 12 13c4.04.67 7.57.74 11.26-1.17 4.74-3.41 8.16-6.75 9.28-12.7.22-7.84.22-7.84-1.87-11.37-4.75-5-10.24-7.8-17.17-8.26-4.89.15-8.07 2.13-11.5 5.5" fill="#E6D36B"/><path d="M234 320h1l.03 1.8q.3 21.85.65 43.71.17 10.57.31 21.14l.32 20.44.11 7.76c.75 55.85.75 55.85 17.96 72.84q2.78 2.69 5.62 5.31l-3 1a1077 1077 0 0 1-7.52-7.42c-5.48-5.7-5.48-5.7-5.48-8.58l-1.94-.69c-2.06-1.31-2.06-1.31-2.6-3.6L239 471q-.69-2.33-1.44-4.62c-2.91-9.72-3.84-19.12-4.22-29.21-.14-3.6-.32-7.06-.86-10.62-.64-4.7-.63-9.32-.6-14.05l-.02-2.76c.01-5.02.35-9.77 1.14-14.74.4-7.69-.25-15.35-.88-23.01L232 369l1-1q.17-2.25.21-4.52l.06-2.91.05-3.17.06-3.22.18-10.24.13-6.93z" fill="#E2E1E2"/><path d="M243 662c1.24 3.73.43 4.47-1 8-.65 6.31-1.06 12.83 3 18 8.68 7.27 18.01 9.35 29.06 10.19l2.91.25 7.03.56-1 2c-9.89.34-18.44-.11-28-3l-6-1.5a20.6 20.6 0 0 1-9-4.5l-2.07-1.46-2.05-1.48-2.08-1.46c-1.96-1.74-2.78-3.2-3.8-5.6l-1-2c4.58-4.71 4.58-4.71 7.25-6.56C238 672 238 672 238.81 670c.19-2 .19-2-.81-5z" fill="#D1D3D3"/><path d="m351 432-.44 1.94L350 437l-.46 1.98c-1.1 5.88.02 9.68 2.95 14.85 2.66 3.82 5.29 5.75 9.89 6.62q3.3.4 6.62.55v1h-11v2l2 1c-6.95-.25-11.02-2.12-16-7-3.56-4.18-4.65-8.46-4.39-13.86.99-5.42 5.63-12.14 11.39-12.14" fill="#EEDD7B"/><path d="m302 440 6 1c1.64 4.91 1.85 9.92-.12 14.75-4.4 5.27-8.99 8.77-15.86 9.62-7.93.17-13.3-1.13-20.02-5.37l1-2c5.75.88 5.75.88 8 2 4.06.67 7.59.8 11.23-1.27a94 94 0 0 0 3.95-3.22C298 454 298 454 302 452z" fill="#EED16A"/><path d="M823 412c3 3 2.97 5.23 3.12 9.44-.1 3.06-.5 5.58-1.12 8.56-.39 3.33-.69 6.66-1 10l-.29 2.85c-.39 4.05-.71 8.01-.71 12.09 0 2.67-.34 4.52-1 7.06v3.12c0 2.88 0 2.88-1 4.88a246 246 0 0 0 .04 9.41c.06 5.2.06 5.2-.51 7.44-.67 2.74-.86 5.41-1.07 8.23l-.26 3.51-.26 3.66-.28 3.7L818 515h-1c-.39-25.52.33-50.61 3-76l.22-2.1q1.3-12.46 2.78-24.9" fill="#E0E0E0"/><path d="M329 461c3.06 2.5 3.06 2.5 5 5a15.4 15.4 0 0 1-4 5.88c-2 2.12-2 2.12-3 5.31-1 2.81-1 2.81-2.94 3.81-2.06 0-2.06 0-5.06-2-.19-2.62-.19-2.62 0-5l-1.88-.81C315 472 315 472 313 469c.32-3.32.61-4.61 3-7a27 27 0 0 1 13-1" fill="#676867"/><path d="m743.13 625.94 3.32.03 2.55.03c-3 2-3 2-6.37 3.32-3.77 1.75-5.8 3.7-8.62 6.68h-2l-1 4h-2c-.47 8.2-.4 13.95 4 21q.48.99 1 2c-4.99-1.24-7.22-2.7-10-7-2.26-4.18-2.78-8.34-2-13 2.47-7.45 6.3-12 13-16 2.75-1.38 5.03-1.1 8.12-1.06" fill="#0A0B0A"/><path d="M813 326c5.85 4.84 7.07 11.72 8.53 18.85.42 1.9.97 3.78 1.53 5.65.94 3.5 1.38 6.79 1.69 10.39.25 2.11.25 2.11.73 3.92 2.48 10.43 1.64 21.79 1.58 32.44l-.01 4.89L827 414h-3l-.04-3.34c-.81-56.2-.81-56.2-10.11-78.41C813 330 813 330 813 326" fill="#EEEEF1"/><path d="M520 314a56 56 0 0 1-8.8 5.64l-2.86 1.53-3.09 1.64a959 959 0 0 0-33.91 19.22 2565 2565 0 0 1-13.33 7.82l-4.02 2.36L439 361v-3c1.84-1.65 1.84-1.65 4.38-3.38l2.46-1.71c2.6-1.57 5.17-2.93 7.89-4.27a188 188 0 0 0 15.15-8.52l5.25-3.18 2.54-1.53q5.9-3.54 11.85-6.95 4.34-2.57 8.57-5.32c2.56-1.53 5.23-2.82 7.91-4.14l3.11-1.64 3.08-1.61 3.1-1.64C517 313 517 313 520 314" fill="#E2E1E4"/><path d="M183 647h1l.04 1.91c.36 6.48 1.56 11.2 5.96 16.09 7.79 6.54 16.47 7.46 26.32 7.33 7.64-.68 14.63-3.46 21.68-6.33l1 2q-2.3 1.49-4.62 2.94l-2.61 1.65c-3.04 1.55-5.39 2.02-8.77 2.41l-3.63.46c-10.98.99-22 .39-30.93-7-3.84-3.89-6.38-7-6.52-12.64.24-2.97.59-5.88 1.08-8.82" fill="#E5E4E7"/><path d="m247.94 303.13 3.06.88v2l-1.86.4-2.45.52q-1.2.28-2.43.53c-2.26.55-2.26.55-5.26 1.55-1.06 2.18-1.06 2.18-2 5l-1.03 2.48c-1.34 4.88-1.32 9.56-1.38 14.6l-.06 3.2-.15 10.08-.12 6.87q-.15 8.37-.26 16.76l-2 1c-.98-9.37-1.14-18.72-1.18-28.12l-.04-3.57c-.02-11.13 0-21.5 7.79-30.04 3.32-3.25 4.54-4.3 9.37-4.14" fill="#F0F2F0"/><path d="m819 504 2 1-.04 3.87-.05 7.56-.01 2.44-.01 2.25C821 523 821 523 822 525q.13 3.7.1 7.41l-.01 2.22-.03 6.99-.01 4.75L822 558l-3 1c-1.1-29.63-1.1-29.63-1.12-44.38l-.02-2.92.01-2.66v-2.31C818 505 818 505 819 504" fill="#F3F3F5"/><path d="m351 432-.43 2.15q-.85 4.23-1.63 8.47l-.54 2.86c-.52 3.3-.46 5.33.6 8.52h-3v2h-2c-1.76-3.09-2-4.23-2-8h-2c-.51-5.33.73-7.83 4-12 3.47-4 3.47-4 7-4" fill="#F7E471"/><path d="M234 320h1l.5 27.19.04 2.04q.66 37.88.46 75.77h-1l-.06-2.56a2379 2379 0 0 0-.38-14.12 459 459 0 0 0-1.99-32.32l-.27-2.78-.25-2.41L232 369l1-1q.17-2.25.21-4.52l.06-2.91.05-3.17.06-3.22.18-10.24.13-6.93z" fill="#A2A4A2"/><path d="M818 552h1l1 4.69.56 2.63c.65 3.95.71 6.87-.56 10.68q-.3 2.43-.5 4.88A84 84 0 0 1 818 585l-.44 3.44c-.93 5.91-3.16 11.11-5.56 16.56-1.52-4-.57-7.74.18-11.81l.4-2.31q.63-3.66 1.3-7.32c1.87-10.52 3.59-20.87 4.12-31.56" fill="#DEDEE0"/><path d="M406 303c4.06 2.62 7.15 5.48 9 10 .12 2.75.12 2.75 0 5h-2l-.88-3.31C411 311 411 311 409 308q-2.6.42-5.19.88l-2.92.49A35 35 0 0 0 393 312c-1.31 2.12-1.31 2.12-2 4-3 0-3 0-6-1l4.69-4.31 2.63-2.43c4.4-3.71 7.78-6.32 13.68-5.26" fill="#1A1A1B"/><path d="M397 304v2c-1.44 1.23-1.44 1.23-3.56 2.75a153 153 0 0 0-13 11.25c-16.08 15.16-16.08 15.16-25.95 15.1l-2.55-.01q-4.04 0-8.06-.03l-5.47-.01L325 335v-1l2.73-.06 14.5-.36 6.31-.17 3.82-.09c14.94-1.31 24.41-12.89 34.32-23.06C393.11 304 393.11 304 397 304" fill="#DBDCDD"/><path d="M903 180c26.14-.8 26.14-.8 39 4q3.49 1.04 7 2v3a578 578 0 0 1-16.48-4.32L930 184l-1.86-.58c-3.22-.63-6.37-.55-9.64-.54l-3.97-.01c-2.78.1-4.9.36-7.53 1.13q-2.5.06-5 0h-3l1-2h3z" fill="#E4E4E4"/><path d="m875 658 2 1c-.11 3.64-1.21 5.6-3.75 8.06-14.04 11.09-41.35 11.89-58.25 9.94v-1l2.84-.08c9.08-.34 17.99-1.34 26.97-2.73l3.11-.47c7.32-1.18 14.11-3.21 21.08-5.72l3-1 1-3h2z" fill="#E7E8E7"/><path d="m295 457 .38 1.94.62 2.06 2 1v-2l3 1c-1 2-1 2-3.18 3.1a28.2 28.2 0 0 1-21.63-1.6A110 110 0 0 1 272 460l1-2c5.75.88 5.75.88 8 2 5.44.56 9.52.46 14-3" fill="#EAD074"/><path d="M818 463h1c3.08 17.79 3.08 17.79 1.52 23.87-.67 2.73-.85 5.4-1.06 8.21l-.26 3.51-.26 3.66-.28 3.7L818 515h-1l-.05-16.43-.03-5.57c-.04-10.05-.06-20 1.08-30" fill="#CBCCCE"/><path d="m250 594 2 2c-27.06 27.67-27.06 27.67-36.03 28.17q-4.5.03-8.97-.17v-1l2.05-.23c17.67-2.49 29.03-16.67 40.95-28.77" fill="#DFE0DF"/><path d="M407 301c7.79 4.95 10.74 11.27 13 20l.64 2.05c1 3.38 1.49 5.52.48 8.95l-1.12 2h-1l-.73-3.66-1.02-4.84-.48-2.4c-1.41-6.64-3.4-12.61-8.15-17.6-3.16-1.81-5.03-1.89-8.62-1.5l-3 1v-3c3.76-1.25 6.03-1.52 10-1" fill="#E5E4E8"/><path d="M278.09 319.98a42 42 0 0 0 5.79 3.6L286 325v3a210 210 0 0 1-20.43-12.72c-5.61-3.8-11.07-7.36-18.01-7.97l-3.56-.3v-1c13.64-2.42 23.47 6.44 34.09 13.97" fill="#DBDDDD"/><path d="M302 433a85 85 0 0 1 5 6l-1 2-4-1v12h-2l.28-2.82c.58-9.89.58-9.89-1.89-13.6-5.66-4.99-10.95-6.7-18.39-7.58v-1c7.85-2.27 15.87 1.01 22 6" fill="#CCB458"/><path d="M915.36 133.76q3.1-.02 6.2-.07l3.94-.02 3.63-.03 2.87.36 2 3-40 1 1-2q3.5-.56 7-1c2.62-2.62 9.8-1.23 13.36-1.24" fill="#E2E4E4"/><path d="M234 393h1v37h-2c-1-5.82-1.18-11.48-1.19-17.38l-.03-2.71A64 64 0 0 1 234 393" fill="#F0F2F1"/><path d="m502 551 2 1-1.93 1.9-2.51 2.48-2.49 2.46C495 561 495 561 494 563h-2v2h-2l-1 3h-2l-1 4-9 1c3.39-3.47 6.88-6.67 10.62-9.75l2.86-2.36C493 559 493 559 496 558l1-3a91 91 0 0 1 5-4" fill="#040405"/><path d="m370.56 424.75 3.94-.08c3.6.34 4.94.86 7.5 3.33-5.63.71-11.08 1.02-16.75.87-4.86-.04-8.16.25-12.25 3.13l-2 2v-2l-2-1 4.18-2.44 2.36-1.37c4.88-2.36 9.65-2.38 15.02-2.44" fill="#DDCB7E"/><path d="M244 694c5.51-.22 10.17.59 15.5 1.94 8.2 1.96 16.08 2.81 24.5 3.06l-1 2c-9.89.34-18.45-.09-28-3l-6.25-1.69L244 695z" fill="#E4E4E7"/><path d="m754 265 5.31 1.62 2.37.73c2.42.68 4.85 1.19 7.32 1.65-2 2-2 2-5.17 2.27-4.11-.29-7.28-1.23-11.14-2.65A98 98 0 0 0 735 264v-1c7.3-1.3 12.08-.43 19 2" fill="#E0E0E1"/><path d="m247.94 303.13 3.06.88v2l-1.86.4-2.45.52q-1.2.28-2.43.53c-2.26.55-2.26.55-5.26 1.55-1 2.06-1 2.06-2 5l-1.56 3.62c-1.9 4.99-2.16 10.07-2.44 15.38-.66-.68-1.32-1.32-2-2 .08-2.66.28-5.13.63-7.76l.2-2.13c.93-7.37 4.66-12.37 10.29-17.06 1.88-1.06 1.88-1.06 5.82-.94" fill="#EBEBEA"/><path d="M235 425h1l1 12.88.29 3.64c.52 6.85.85 13.62.71 20.48-2-1-2-1-2.63-2.8-1.29-6.54-1.55-12.93-1.56-19.58v-2.63c.04-4.11.16-7.97 1.19-11.99" fill="#E0E1E1"/><path d="M416 323c4.99 4.99 5.19 15.4 5.31 22.19-.01 3.7-.17 4.6-2.31 7.81q-.76-4.68-1.5-9.38l-.43-2.63A97 97 0 0 1 416 323" fill="#161616"/><path d="M267 432h3l-2 20h-2v-6h-2v-10h2z" fill="#F3DA61"/><path d="m302 440 6 1 .06 4.38.04 2.46C308 450 308 450 307 452h-5z" fill="#F3D65A"/><path d="M383 428c2.44 2 2.44 2 4 4h-3v-2h-2v6h2l-1 10h-1l-.26-2.01c-.94-5.92-1.94-9.05-6.74-12.99l-1-2c3.09-1.55 5.59-1.29 9-1" fill="#EBD168"/><path d="M683.63 254.88h2.45c5.38.03 10.6.34 15.92 1.12-2 2-2 2-4.8 2.23l-3.53-.04-3.8-.01q-1.96-.04-4-.06l-4.01-.02-9.86-.1v-2c3.88-1.3 7.58-1.15 11.63-1.12" fill="#EAEBED"/><path d="m903 182-3 1-2 3q-3 .54-6 1l-2.94 1.56c-3.58 1.68-6.15 1.67-10.06 1.44 3.61-3.12 7.59-4.6 12-6.25l2.16-.85c3.73-1.41 6.03-2.13 9.84-.9" fill="#E0E2E3"/><path d="m351 434 1 4h-2l1 8h3v8h2v3c-3.46-1.39-4.77-2.68-6.31-6.06-1.98-4.81-2.11-8.94-.69-13.94z" fill="#322F19"/><path d="m280.25 425.88 3.27.05 2.48.06v1l-3.69.76c-3.92.95-6.27 2.56-9.31 5.25h-2l-1 2v-3l-5 1c5.09-5.37 7.79-7.29 15.25-7.12" fill="#CCC16F"/><path d="M845 240h1c.37 5.04-.75 8.58-3 13l-1.43 2.86c-4.17 8.01-4.17 8.01-7.57 9.14a219 219 0 0 1 5.38-12.55l1.24-2.76 1.28-2.82z" fill="#DFDFE0"/><path d="m850.99 646.26 2.25.72 2.49.78 2.58.86 2.56.8c4.95 1.6 9.01 3.37 13.13 6.58l1 2c-3.35-.72-6.3-1.94-9.44-3.31A171 171 0 0 0 846 648c3-2 3-2 4.99-1.74" fill="#E8EBE8"/><path d="m820 450 1 2h2c.08 3.57-.14 6.56-1 10l.12 3.06c-.12 2.94-.12 2.94-1.63 4.62L819 471q-.04-4.4-.06-8.81l-.03-2.53-.01-2.43-.01-2.24C819 453 819 453 820 450" fill="#E9E9ED"/><path d="M823 412c2.92 2.92 2.93 5.12 3.25 9.19-.3 4.63-1.61 8.49-3.25 12.81h-1c-.09-7.42-.17-14.66 1-22" fill="#E6E6E7"/><path d="m295 457 .38 1.94.62 2.06 2 1v-2l3 1c-1 2-1 2-3.14 3.12-3.36 1.03-6.16 1.08-9.67 1l-3.52-.05L282 465v-1h10v-2h-2c1-3 1-3 3.06-4.19z" fill="#D8C272"/><path d="M724 676c9.4-.11 18.64.01 28 1-3.68 2.45-6.44 2.23-10.69 2.12l-2.12-.02-5.19-.1v-2h-10z" fill="#E4E8E4"/><path d="M351 432a60 60 0 0 1-2 8h-3v-2c-2.9 2.4-3.5 4.31-4 8h-2c.14-5.62 2.66-8.43 6.21-12.46C348 432 348 432 351 432" fill="#E5DA8B"/><path d="M988 219a36 36 0 0 1 8.31 5.44A39 39 0 0 0 1008 231c-1.66 1.19-1.66 1.19-4 2a45 45 0 0 1-16-12z" fill="#D8D8D6"/><path d="M818 552h1l1 4.69.56 2.63c.65 3.95.71 6.87-.56 10.68l-1 4h-2z" fill="#E2E2E4"/><path d="M298 513c5.75-.12 5.75-.12 8 1q2.55.34 5.12.56l2.76.26 2.12.18-2 4q-2.6-.42-5.19-.88l-2.92-.49A42 42 0 0 1 298 515z" fill="#DDDEDE"/><path d="m237 666 2 2q-2.34 1.49-4.69 2.94l-2.63 1.65c-2.71 1.43-4.62 2.26-7.68 2.41-2.31-1.44-2.31-1.44-4-3l2.7-.8 3.55-1.08 3.52-1.05A42 42 0 0 0 237 666" fill="#DBDCDB"/><path d="M884 190q-2.75 2.11-5.58 4.1A139 139 0 0 0 866 204l-2-1 5.31-5.38 1.52-1.53c4.46-4.49 6.76-6.37 13.17-6.09" fill="#EFF0F1"/><path d="m261.25 308.94 2.64 1.59C266 312 266 312 267 314a27 27 0 0 1-9.81-3.5c-4.53-2.35-8.11-3.22-13.19-3.5v-1c7.07-1.25 11.12-.81 17.25 2.94" fill="#DFE0E1"/><path d="m300 432-2 4-2.69-2.38c-4.78-3.95-9.17-4.9-15.31-5.62v-1c7.2-2.08 14.34.36 20 5" fill="#6F6940"/><path d="M421 345h1c1.23 7.73 2.27 15.17 2 23h-1l-1-7h-2l-.06-5.19-.04-2.92c.1-2.75.48-5.21 1.1-7.89" fill="#2B2C2C"/><path d="m394 307 3 1-2 4h-2l-2 4c-3 0-3 0-6-1z" fill="#0F0F14"/><path d="M376 549c4.75.75 4.75.75 7 3-3.6 2.4-6.96 4.32-11.38 3.62L370 555a89 89 0 0 1 4-4h2z" fill="#E4E6E7"/><path d="M374 427v2l-3.07-.11-4.05-.08-2.02-.07c-4.74-.07-7.83.79-11.86 3.26l-2 2v-2l-2-1c7.94-6.37 15.51-5.18 25-4" fill="#B3A964"/><path d="M185 636h2c-.76 4.19-1.88 8.22-3.06 12.31l-1.1 3.8L182 655c-2-3-2-3-1.86-5.02A74 74 0 0 1 185 636" fill="#EDEFEE"/><path d="m924.13 133.69 2.2-.05c2.12 0 2.12 0 5.67.36l2 3c-7.4.15-14.64-.3-22-1 3.8-2.5 7.73-2.33 12.13-2.31" fill="#F1F2F3"/><path d="M202 673h20l1 2q-3.84.33-7.69.62l-2.18.2c-4.26.31-7.32.15-11.13-1.82z" fill="#EAECED"/><path d="M183 647h1l.04 1.87c.39 6.81 2.24 11.45 5.96 17.13-3.12-.6-3.95-.95-6.31-3.31-2.98-4.72-1.47-10.46-.69-15.69" fill="#D6D8D7"/><path d="m372.63 421.81 2.35-.04C377 422 377 422 379 424c-1 1-1 1-4.6 1.1q-2.22 0-4.46-.04h-2.3L362 425c3.12-3.13 6.31-3.15 10.62-3.19" fill="#140D01"/><path d="m387 315 2 1c-1.75 3.88-1.75 3.88-4 5v-2l-2.25 2.56L380 324c-2.17-.35-2.17-.35-4-1l3.81-3.44 2.15-1.93C384 316 384 316 387 315" fill="#1B1C1D"/><path d="M397 304v2c-1.79 1.59-1.79 1.59-4.19 3.38l-2.47 1.87L388 313l-5 4c0-3 0-3 2.3-5.48l3.01-2.71 1.52-1.4c3.79-3.41 3.79-3.41 7.17-3.41" fill="#D4D5D7"/><path d="M384 450h2v6h-2v2l-8 2 2-4h2v-2h4z" fill="#F7D659"/><path d="m265 433 1 3h-2v10h2l-1 5c-3.06-3.06-3.18-5.85-3.25-10l-.08-2.62c.39-2.81 1.16-3.64 3.33-5.38" fill="#E0D17E"/><path d="m363.6 463.9 4.46.04 2.3.01 5.64.05c-3.67 2.45-6.24 3.15-10.56 3.2l-2.38.03C361 467 361 467 359 465c1-1 1-1 4.6-1.1" fill="#D0B961"/><path d="M384 456h2c-1.5 4.21-4.23 5.8-8 8h-2v-4c3.23-2.15 4.28-2.2 8-2z" fill="#EACD65"/><path d="M298 453a12 12 0 0 1-4.06 5.75c-4.03 1.71-7.63 1.5-11.94 1.25v-2l12-1v-3c2-1 2-1 4-1" fill="#1B1008"/><path d="M382 430h2l2 2 3 2-1 4h-4v-2h-2z" fill="#F5DB60"/><path d="m793 245 2 1-8 10-2-1c.56-3.23 1.37-4.98 4-7h3z" fill="#E1E1E4"/><path d="m272.19 426.38 1.8.62-3.24 1.69c-3.44 2-5.7 3.82-7.75 7.3a54 54 0 0 0-1 8h-1c-.5-3.99-.87-7.51 1.23-11.07 6.15-7.2 6.15-7.2 9.96-6.55" fill="#2E2618"/><path d="m794 246 4 1-9 9-2-1zm-9 10 2 1-4 2z" fill="#1B1B1D"/><path d="m916 180 5.88-.06 3.3-.04c2.82.1 2.82.1 4.82 1.1v3l-14-2z" fill="#EEEEF0"/><path d="M976.13 150.63A96 96 0 0 1 987 157q-1 .96-2 2l-4.83-2.88-2.7-1.62q-2.79-1.69-5.48-3.5c2-1 2-1 4.13-.38" fill="#DCDDDD"/><path d="m894 137 3 2-5.81 1.5-3.27.84C885 142 885 142 882 142c1-3 1-3 2.62-4.19 3.25-1.11 5.98-1.06 9.38-.81" fill="#DEDFDD"/><path d="m364.69 427.94 3 .03 2.3.03v2l-14 1v-2c3.16-1.05 5.4-1.1 8.7-1.06" fill="#0E0C06"/><path d="M818 476h3l.12 4.25.08 2.39c-.22 2.57-.91 4.15-2.2 6.36a28 28 0 0 1-1.06-8.75l.02-2.42z" fill="#F2F2F5"/><path d="M407 301c2.44 2 2.44 2 4 4l-2.3-.25-3.01-.31-2.99-.32c-2.7-.12-2.7-.12-5.7.88v-3c3.59-1.2 6.23-1.33 10-1" fill="#E9EAEC"/><path d="M362 573q-1.42 1.5-2.88 3l-1.61 1.69C356 579 356 579 354 579v-2l-2-1c2.69-3.26 5.98-5.01 10-3" fill="#F1F2F4"/><path d="M236 447h1c1.32 4.96 1.09 9.91 1 15l-2-1c-.7-2.4-.7-2.4-1.25-5.38l-.58-2.96C234 450 234 450 236 447" fill="#EEEEEF"/><path d="M288 420c1 3 1 3 0 6l-13-1 4-1 1-2v2l1.75-1c2.25-1 2.25-1 6.25-1z" fill="#0A0702"/><path d="M424 353c2.44 4.88 3 8.58 3 14l-3 1z" fill="#F0F1F2"/><path d="M382.69 643.13c2.3.88 2.3.88 3.3 2.88-3.2 1.6-6.42 1.04-10 1 3.3-4.04 3.3-4.04 6.7-3.88" fill="#E3E6E4"/><path d="M493 564c2 2 2 2 2 5l-8 2v-3c3-2.19 3-2.19 6-4" fill="#1A1A1C"/><path d="M409 305c2.7.36 3.74.68 5.48 2.85l1.27 2.21 1.3 2.23.95 1.71-3 2-.8-1.64-1.08-2.17-1.05-2.15C411 308 411 308 409 305" fill="#E0DEE1"/><path d="M845 240h1c.19 4.17.05 7.3-2 11-2.12 1.31-2.12 1.31-4 2 1.42-4.47 3.11-8.71 5-13" fill="#D7D8D7"/><path d="M299 693c0 2 0 2-1.44 3.62-3.78 2.03-7.35 1.62-11.56 1.38a31 31 0 0 1 7.06-3.62l2.1-.79C297 693 297 693 299 693" fill="#B0B0B4"/><path d="M261 581c.81 1.67.81 1.67 1 4-2.09 2.58-2.09 2.58-4.94 5.25l-2.84 2.7L252 595c0-3.74.89-4.32 3.38-7a55 55 0 0 0 5.62-7" fill="#ECEBEE"/><path d="M309 446h1l.12 5.31.08 2.99c-.2 2.7-.2 2.7-2.2 5.7l-4-1 1.43-1.18c1.98-2.3 2.26-4.03 2.76-7.01l.48-2.73z" fill="#2C1C0B"/><path d="M308 444h1q.08 2.13.12 4.25l.08 2.39c-.22 2.57-.91 4.15-2.2 6.36l-3-1v-4h3z" fill="#E0C773"/><path d="M377 432c4.98 4.82 4.98 4.82 5.06 9.62L382 445l-2 1v-8h-2z" fill="#261A0C"/><path d="m346 588 2 1c-1.47 3.88-3.45 5.01-7 7-1.81 1.69-1.81 1.69-3 3l-2-1z" fill="#09090B"/><path d="m453 589 3 1c-1 3-1 3-3.44 4.75L450 596l-2-1v-3l1.94-.38L452 591z" fill="#1B1D1B"/><path d="M757 268q2.43-.08 4.88-.12l2.74-.08c2.38.2 2.38.2 4.38 2.2-2.99 1.49-5.7 1.12-9 1l-3-1z" fill="#D8D9DA"/><path d="m904.69 135.44 3.57.3 2.74.26v1c-5.72.83-11.22 1.12-17 1 2.13-4.26 6.62-2.92 10.69-2.56" fill="#F1F4F1"/><path d="m422 474 1 2c-1.11 2.38-1.11 2.38-2.75 5.12l-1.61 2.76L417 486h-3z" fill="#030504"/><path d="M268 438h1l.15 1.98c.42 4.95 1.01 9.35 2.85 14.02l-4-2z" fill="#CFBE69"/><path d="M303 441h1v9h2v2h-4q-.05-2.47-.06-4.94l-.04-2.77c.1-2.29.1-2.29 1.1-3.29" fill="#F6DC62"/><path d="m291 432 1 2q2.97 1.1 6 2v2h-6v-2h-2z" fill="#161420"/><path d="M778 262v2c-1.64 1.32-1.64 1.32-3.81 2.69l-2.15 1.38C770 269 770 269 767 268c7.2-6 7.2-6 11-6" fill="#E6E6E9"/><path d="M378 432h2v2h2v2h2l-1 10h-1l-.37-2.05-.51-2.7-.49-2.67A25 25 0 0 0 378 432" fill="#E2CE70"/><path d="M676 258v1l-11 1-1-3c4.52-1.46 7.52-.27 12 1" fill="#D0D3D5"/><path d="M852 157c0 3 0 3-1.69 5.12-2.52 2.05-4.12 2.53-7.31 2.88a64 64 0 0 1 9-8" fill="#171819"/><path d="m457 680-3 1v2l-13-1v-1l5.19-.5 2.92-.28A87 87 0 0 1 457 680" fill="#E0E0E1"/><path d="M819 516c2 2 2 2 2.12 5.62L821 525h-2l-1 3q-.04-2.71-.06-5.44l-.04-3.06c.1-2.5.1-2.5 1.1-3.5" fill="#E4E4E7"/><path d="M348 432h3c-.75 4.75-.75 4.75-3 7l-2-2c.54-3.54.54-3.54 2-5" fill="#EEEB87"/><path d="M234 360h1v15h-2q-.57-2.99-1-6l1-1q.34-2.02.56-4.06z" fill="#CFD1D0"/><path d="M251 304v2c-6.05.98-6.05.98-8 1l-2-2c3.85-2.57 5.59-1.83 10-1" fill="#EDEFF0"/><path d="m797 240-1 5-3 1-1 2h-2c2.81-8 2.81-8 7-8" fill="#EDEDEF"/><path d="M344 438h2v2h2l-1 4h-3v-2l-2-1z" fill="#F8EA79"/><path d="M810 319a19 19 0 0 1 5 7h-2l-1 2c-1.56-2.81-1.56-2.81-3-6z" fill="#E0E0E2"/><path d="m647 259 1 3 2 1-9 1v-2z" fill="#DFDFE1"/><path d="m849 234 2 2-4 8h-1c-.37-6.52-.37-6.52 1.5-8.94z" fill="#E6E6E7"/><path d="M964 146c3.72.51 6.73 1.12 10 3v2a21.6 21.6 0 0 1-10-4z" fill="#E7EAE6"/><path d="M804 628h2v9l-3-1z" fill="#DADADB"/><path d="M404 628v3c-3 2.19-3 2.19-6 4l-2-2z" fill="#E6E5E9"/><path d="M360 467h10l-2 3c-3.12.19-3.12.19-6 0v-2z" fill="#170C09"/><path d="m820 450 1 2h2v6l-3 1z" fill="#F2F3F4"/><path d="M812 205h3l-2 7-3-1c.88-4.88.88-4.88 2-6" fill="#E6E5E8"/><path d="M243 662c1.21 3.62.54 4.64-1 8l-1-3h-3v-2c2.5-1.62 2.5-1.62 5-3" fill="#C5C8C4"/><path d="M867 652c5.75 2.62 5.75 2.62 8 6-3.67-.71-6.7-2.28-10-4z" fill="#E3E6E1"/><path d="m803 636 10 3v1h-9z" fill="#F3F4F3"/><path d="M305 527h2c-1.31 3.94-2.92 6.23-6 9l-1-3c2.31-3.19 2.31-3.19 5-6" fill="#E4E6E4"/><path d="M348 446a37 37 0 0 1 4 8c-1.88-.19-1.88-.19-4-1-1.25-2.56-1.25-2.56-2-5h2z" fill="#D9CB75"/><path d="m294 430 6 1-1 5a107 107 0 0 1-5-4z" fill="#907E36"/><path d="m863 204 2 1-4 7h-2c.5-3.69 1.1-5.6 4-8" fill="#E8EAE7"/><path d="M818 197h1c.69 2.81.69 2.81 1 6-1.31 1.88-1.31 1.88-3 3h-2z" fill="#222"/><path d="m903 182-3 1-2 3-5-2c3.8-2.53 5.68-3.34 10-2" fill="#D3D5D7"/><path d="m908 181-1 3h-8c1.86-3.71 5.31-3.1 9-3" fill="#F4F4F7"/><path d="m875 658 2 1c-.5 3.69-1.1 5.6-4 8l-3-1h2l1-3h2z" fill="#E0E0E1"/><path d="m813 600 2 1c-.81 3.44-.81 3.44-2 7l-3 1c.7-3.15 1.76-6.03 3-9" fill="#EEEEED"/><path d="m367 567 1 2c-2.48 3.45-3.8 5.23-8 6l2.94-3.44 1.65-1.93q1.16-1.36 2.41-2.63" fill="#2D2D2F"/><path d="M771.38 269.31q.8.33 1.62.7l-7 4-3-2c5.41-3.09 5.41-3.09 8.38-2.7" fill="#080A09"/><path d="m999 228 9 3-4 2c-2.75-1.25-2.75-1.25-5-3z" fill="#E1E1E1"/><path d="M937 140h6l1 4h-4c-1.75-2-1.75-2-3-4" fill="#060606"/><path d="M242 679h2c.62 2.88.62 2.88 1 6l-2 2-2-7z" fill="#17181A"/><path d="M245 662c1.11 3.33.84 5.62 0 9h-2c-.25-5.62-.25-5.62 2-9" fill="#060806"/><path d="m467 582 1 2-5 5-3-1z" fill="#E2E5E2"/><path d="M817 565c1.95 2.92 2.45 4.63 3 8l-3 1z" fill="#EAEAED"/><path d="m253 487 7 6-3 1c-2-1.81-2-1.81-4-4z" fill="#CECFCE"/><path d="m265 450 1 2h2l1 4h3l-1 3c-5.57-5.14-5.57-5.14-6-9" fill="#D0BF6C"/><path d="M290 430c3.91 1.27 5.79 2.51 8 6l-6-2v-2h-2z" fill="#22170B"/><path d="M380 428v4c-2.44-.38-2.44-.38-5-1l-1-2c2-1 2-1 6-1" fill="#EAC955"/><path d="m240 306 3 1-1.88.69c-2.73 1.69-3.17 3.3-4.12 6.31-.75-1.75-.75-1.75-1-4 1.94-2.25 1.94-2.25 4-4" fill="#D5D6D6"/><path d="m256 306-1 2-11-1v-1c4.32-.76 7.74-1.16 12 0" fill="#BEBFC3"/><path d="m735 260 7 2v1h-10z" fill="#EBEAEE"/><path d="M870 196c-1.39 3.37-2.98 4.99-6 7v-4c3.21-3 3.21-3 6-3" fill="#292A2B"/><path d="m267 313 6 4-2 2-6-4z" fill="#D8D8D8"/><path d="m655 259 1 2-8 1v-2c2.46-1.23 4.28-1.07 7-1" fill="#F1F2F0"/><path d="M681 257v1h-9v-2c3.77-1.26 5.37-.37 9 1" fill="#F4F5F8"/><path d="M1023 228c-.75 1.94-.75 1.94-2 4-2 .88-2 .88-4 1l-2-2c5.75-3 5.75-3 8-3" fill="#D6D9D6"/><path d="m1028 222 1 2a107 107 0 0 1-4 5h-2a19 19 0 0 1 5-7" fill="#E2E5E2"/><path d="M809 211h3l-1 4h-2v2h-2z" fill="#F2F2F5"/></svg>