<svg style="background:transparent" version="1.1" xmlns="http://www.w3.org/2000/svg" viewBox="0 0 1248 704"><path d="M418.94 46.56 421 48l3.22 1.72c3.97 2.25 7.12 5.07 10.4 8.22l1.66 1.55q2.38 2.25 4.72 4.51l2.65 2.53A65 65 0 0 1 450 74.5a66 66 0 0 0 9 10.5l3.5 3.5 1.8 1.8L471 97l2.32 2.12C475 101 475 101 475 104l1.63-.63c3.2-.5 5.3.6 8.37 1.63q3.06.53 6.13.94c5.5.8 10.78 1.98 16.16 3.41 2.35.56 4.56.92 6.96 1.15 3.04.4 5.04.9 7.8 2 4.99 1.96 9 3.3 14.14 1.18q1.4-.82 2.8-1.68 1.13-.45 2.26-.94C543 110 543 110 544 108c1.28-2.56 2.46-2.77 5-4q2.54-2.48 5-5a55 55 0 0 1 9.97-6.73c3.49-2.19 6.56-4.9 9.7-7.57 3.8-2.78 7.54-3.12 12.24-3.04 3.76.61 6.6 2.48 9.09 5.34 3.23 5.81 3.38 10.7 3.19 17.25l-.04 2.72-.1 4.96q-.05 2.54-.05 5.07a265 265 0 0 1-1 5.5 67 67 0 0 0-.87 15.12c-.14 2.64-.9 4.08-2.13 6.38v2.75c0 3.23-.64 5.86-1.5 8.96-.78 3.56-1 7.14-1.25 10.77A39 39 0 0 1 590 173l-.44 3.37C589 180 589 180 587.94 183c-1.1 3.47-1 6.38-.94 10a79 79 0 0 1-1 5l-.44 2.56C585 203 585 203 584 204.8c-1.23 2.7-1.42 5-1.63 7.96l-.23 2.98L582 218c6.2 4.22 12.6 7.21 19.4 10.34q3.6 1.66 7.2 3.35l3.46 1.62 3.17 1.5c2.3.98 4.35 1.61 6.77 2.2q2.52.98 5 2.05 8.63 3.64 17.32 7.12l2.56 1.05c4.67 1.87 9.28 3.43 14.12 4.77l2.06 1.12c1.94.88 1.94.88 4.88.7 4.2.25 5.16 2.21 8.06 5.18a62 62 0 0 0 8 3l5 2 2.25.87q2.46 1 4.86 2.11c5.35 2.48 9.9 4.02 15.89 4.02l2 3a39 39 0 0 0 4.75 2.5l2.73 1.31 2.52 1.2 6 3 1.9.92c11.9 5.87 11.9 5.87 16.1 10.07l5 2 3.13 2.12C759 299 759 299 762 299l.69 1.81c1.67 2.8 3.52 3.56 6.3 5.2q2.52 2.48 5 5l4.83 3.8a119 119 0 0 1 18.18 18.2l2.44 2.43c4.5 4.5 8.36 9.03 11.56 14.56l1.94 2.18c2.39 3.27 3.57 6.48 4.98 10.24a51 51 0 0 0 5.13 8.98c.95 1.6.95 1.6.95 3.6l1.78.75c2.53 1.42 3.93 2.96 5.78 5.2 3.3 3.92 3.3 3.92 5 5.52 1.74 1.84 2.77 3.73 3.94 5.97a47 47 0 0 0 4.04 6.6c1.84 2.47 3.02 5.07 4.3 7.86 1.16 2.1 1.16 2.1 3.13 4.41 2.36 3.12 3.38 5.98 4.59 9.7a55 55 0 0 0 5.44 12q.54 2.97 1 6l2 3q.41 2.85.73 5.73c.55 4.48 1.19 9.23 3.33 13.24 1.1 2.38 1.12 3.97 1 6.58-.11 2.97-.02 4.56.94 7.44.9 6.62 1.09 13.2.94 19.88C872 497 872 497 873 498q.11 2.18.06 4.37l-.02 2.4L873 507v3l-.07 2.34-.05 2.6-.07 2.58c.2 2.67.99 4.13 2.19 6.48 0 4 0 4-.5 5.75-1.31 5.88-.6 10.7 1.5 16.25l.44 2.44c.95 4.3 1.94 8.5 5.75 11l1.8.56q-.48 1.49-1 3c1.3 2.01 1.3 2.01 3.2 4.12q.9 1.06 1.86 2.14c2.94 2.62 5.08 2.74 8.95 2.74l1.69 1.81c7.73 7.32 20.44 6.44 30.39 6.35 19.86-1.09 39.97-11.09 56.86-21.04a32 32 0 0 1 20.43-3.93c5.28 1.62 9.72 4.98 13.63 8.81 2.77 5.3 2.84 10.98 1.25 16.68a40 40 0 0 1-10.51 12.87c-1.74 1.45-1.74 1.45-4.42 4.13A52 52 0 0 1 1000 603l-1.83 1.36c-14.93 10.48-33.98 17.66-51.77 21.15q-3.07.64-6.08 1.5c-4.77 1.05-9.52 1.4-14.38 1.67l-2.3.15A68 68 0 0 1 909 628l-2.1-.34a458 458 0 0 1-8.63-1.47c-22.36-3.93-40.54-16.38-53.97-34.49A95 95 0 0 1 834 572l-1.5-3.25c-1.5-3.45-2.28-6.89-3.03-10.56a84 84 0 0 0-1.53-5.82c-2.17-7.82-2.04-15.35-1.96-23.43l.03-7.74.09-12.13q.04-5.87.06-11.75l.04-3.64c.02-6.56-.48-12.34-2.2-18.68-3.1 3.66-4.35 7.4-5.5 12-1.57 6.27-3.68 13.02-7.06 18.56-1.8 3.03-2.53 6.05-3.44 9.44l-2 5-3 8.47c-1 2.53-1 2.53-3 5.53-.12 2.44-.12 2.44 0 5v7l-2 1-2-1-.17 2-.77 9.06-.26 3.15c-1.15 13.41-1.15 13.41-2.36 17.85-.44 1.94-.44 1.94-.38 4.75-.07 3.67-1.03 6.67-2.06 10.2q-.06 2.48 0 5l-1 2q-.22 2.86-.37 5.74A26 26 0 0 1 785 618q-.55 3.5-1 7c-.87 2.5-.87 2.5-2 5l-1.5 3.5-1.5 3.5-2 5 4.88 1.22 4.3 1.08q5.45 1.38 10.92 2.64C822 652.72 822 652.72 829 661c.17 3.43-.85 4.8-2.87 7.56-7.6 5.92-17.67 7.42-26.94 9.06l-3.6.65c-13.7 2.38-27.36 3.44-41.23 4.22l-2.3.13-11.38.6c-11.66.6-11.66.6-16.44 1.9-3.24.88-3.24.88-5.27.31L717 685c-2.75 1.94-2.75 1.94-5 4l-2-4c-79 .74-79 .74-116.11 2.66-8.53.43-17.07.7-25.62.94q-10.25.32-20.51.9c-21.7 1.2-43.34 1.7-65.07 1.68l-3.81.01c-49.12 0-49.12 0-70.94-2.57l-3.6-.4q-5.17-.59-10.34-1.22l-3.06-.37C358.7 682.68 358.7 682.68 349 674c-2-3-2-3-2-4.88 2.88-6.12 9.45-8.55 15.4-10.88A226 226 0 0 1 385 652l2.88-.69c66.08-15.58 137.28-18.39 205-19.87l2.83-.07c36.98-.8 74.33-1.4 111.23 1.64 3.1 0 4.56-.24 7.06-2q2.07-2.97 4-6l2.69-2.83c3.69-5.08 3.52-9.76 3-15.87-1.74-8.36-1.74-8.36-4.31-10.94L718 594v-4c-3-3.5-6.06-5.7-10-8l-2.9-1.72-3.04-1.78-3.02-1.78q-2.97-1.7-6.04-3.19c-9.03-4.62-17.45-11.29-25-18.03-3-2.5-3-2.5-5-2.85-2.98-.97-3.5-2.96-5-5.65q-2.16-2.55-4.44-5c-4.44-4.8-8.32-9.42-11.48-15.17a70 70 0 0 0-4.93-7.06c-1.4-2.17-2.23-4.36-3.15-6.77l-3.88-9.16c-1.94-4.92-2.51-9.62-3.12-14.84l-3 1-2.12-.5c-3.45-.6-6.27-.14-9.7.44-2.6.07-3.97-.63-6.18-1.94l-2 2c-3.33.06-6.61-.14-9.93-.32-3.07.32-3.07.32-4.98 2.33l-1.1 2q-1.95-1-4-2l1-3-1.6.8c-6.4 3.2-6.4 3.2-8.25 4.04-3.02 1.62-5.78 3.61-8.58 5.6-3.77 2.65-7.58 5.2-11.56 7.55-1.81 1.5-1.81 1.5-3 3v3h-7a77 77 0 0 0-6.68 4.25l-1.8 1.2c-4.34 3.02-4.34 3.02-5.25 5.8L531 526l-2.56.81c-4.74 1.64-8.03 4.55-11.44 8.2l-1.04 2.15C515 539 515 539 512 540c-1.88 3.16-2.04 5.68-1.87 9.25.1 6.16-1.7 11.21-6 15.7q-2.05 1.8-4.18 3.48C498 570 498 570 495.38 572.81c-6.23 5.73-15.55 5.37-23.56 5.37l-2.45.04-2.35.01-2.12.01C463 578 463 578 460 576l-3.56-.44L453 575l-2-3 1-2-1.81-.73c-2.63-1.53-3.64-3.03-5.25-5.59l-1.55-2.43-1.4-2.25-1.8-2.88c-3.75-6.7-1.8-15.84-.2-23.12 2.15-5.16 5-9.15 9-13l2.07-2.19c1.94-1.8 1.94-1.8 3.94-1.8l.75-1.7c4.42-8.19 11.84-15.15 18.19-21.9a27 27 0 0 0 4.06-6.4l2-1-5-5 3-2c2.5.86 2.5.86 5 2h3a41 41 0 0 0 8-12h-3v-3l5-2 2 4v-4c1.38-2.76 1.38-2.76 3-5h2c1.63-1.5 1.63-1.5 3-3-4.62-4-4.62-4-8-4h-3l-.81 3.86c-.76 3.62-.9 3.93-4.2 6.13l-4-2-1.3 2.44c-1.7 2.56-1.7 2.56-4.7 3.56q-.55 1.98-1 4l-2 1-2-1-.61 3.18c-1.21 4.36-3.96 5.97-7.38 8.82-1.25 3.75-1.25 3.75-2 7l-2 1-1.31 2.56-1.7 2.44h-5c-1.67 2.43-1.67 2.43-3 5l-2 1q-.2.95-.43 1.94C449 504 449 504 446 506l-2 3h-2l-.76 2.1a68 68 0 0 1-5.11 9.34l-2.06 3.3A475 475 0 0 1 428 533l-1.62 2.75C425 538 425 538 423 540l-2.31 2.37c-7.02 6.86-15.57 12.21-25.64 12.74-7.25-.4-11.25-4.87-16.13-9.76-1.95-2.39-2.83-4.49-3.92-7.35-2.12-1.32-2.12-1.32-4-2l1-3q-.46-4-1-8c-1.08-8.19 3.46-14.45 8.06-20.88 2.86-3.13 5.82-6.13 9-8.94 2.23-2.5 3.46-5.03 4.82-8.08 1.12-2.1 1.12-2.1 2.99-4.33 2.7-3.5 4.42-7.2 6.26-11.2l1.05-2.25a91 91 0 0 0 3.93-9.65c1-3 2.6-5.35 4.32-7.99a145 145 0 0 0 5.82-11.37l1.07-2.23c1.74-3.7 3-7.02 3.68-11.08l1.5-2.75c1.4-3.05 1.67-4.46 1.82-7.69.34-4.69 2.17-6.87 5.5-10.05l1.18-1.5c-1-3-1-3-3-6l3-2 2 1-.1-2.35-.08-3.04-.11-3.02.29-2.6 3-2c-.52-4.19-2.11-7.35-4.02-11.03A52 52 0 0 1 430 366q-.7-2.13-1.44-4.25a336 336 0 0 1-3.86-12.42q-.9-2.94-1.88-5.83c-.9-3.82-.93-7.17-.8-11.07-.02-2.43-.02-2.43-.52-4.64-.88-4.95-.5-10-.37-15.02l.03-2.5.05-2.27c-.21-2-.21-2-2.21-5l1.5-2.32C422 298 422 298 422 295l-1.64-.26c-3.17-1-5.42-2.72-8.11-4.68l-2.98-2.15-2.27-1.9v-2l-1.7-.27c-3-.97-4.71-2.57-7.05-4.68l-2.42-2.15c-1.83-1.9-1.83-1.9-1.83-3.9l-1.8-.77c-2.52-1.42-3.64-2.8-5.33-5.13l-1.7-2.34-1.73-2.46-1.75-2.4a60 60 0 0 1-7.7-13.9q-.72-1.42-1.5-2.89c-4.22-8.82-6.7-18.48-3.5-28.12q-.26-1.7-.55-3.44c-.46-3.78-.36-4.49 1.56-7.56 2.5-5.02 3.34-9.07 3.76-14.66.3-2.98 1.23-5.53 2.24-8.34q.52-2.25 1-4.5a87 87 0 0 1 3-10.5q1.36-4.69 2.65-9.39c1.18-4.15 2.42-7.94 4.48-11.74 2.12-3.96 2.48-7.43 2.87-11.87l1-1q.43-2.17.72-4.38l.78-5.62.4-2.8q.94-6.64 1.63-13.33C395 102 395 102 396 101v-3.5c0-3.5 0-3.5 1-4.5q.53-3.21.94-6.44c.8-5.92 1.75-11.74 3.06-17.56l.55-2.74c1.9-8.36 5.5-14.55 12.64-19.45 2.8-.8 2.8-.8 4.75-.25" fill="#121513"/><path d="M418.94 46.56 421 48l3.22 1.72c3.97 2.25 7.12 5.07 10.4 8.22l1.66 1.55q2.38 2.25 4.72 4.51l2.65 2.53A65 65 0 0 1 450 74.5a66 66 0 0 0 9 10.5l3.5 3.5 1.8 1.8L471 97l2.32 2.12C475 101 475 101 475 104l1.63-.63c3.2-.5 5.3.6 8.37 1.63q3.06.53 6.13.94c5.5.8 10.78 1.98 16.16 3.41 2.35.56 4.56.92 6.96 1.15 3.04.4 5.04.9 7.8 2 4.99 1.96 9 3.3 14.14 1.18q1.4-.82 2.8-1.68 1.13-.45 2.26-.94C543 110 543 110 544 108c1.28-2.56 2.46-2.77 5-4q2.54-2.48 5-5a55 55 0 0 1 9.97-6.73c3.49-2.19 6.56-4.9 9.7-7.57 3.8-2.78 7.54-3.12 12.24-3.04 3.76.61 6.6 2.48 9.09 5.34 3.23 5.81 3.38 10.7 3.19 17.25l-.04 2.72-.1 4.96q-.05 2.54-.05 5.07a265 265 0 0 1-1 5.5 67 67 0 0 0-.87 15.12c-.14 2.64-.9 4.08-2.13 6.38v2.75c0 3.23-.64 5.86-1.5 8.96-.78 3.56-1 7.14-1.25 10.77A39 39 0 0 1 590 173l-.44 3.37C589 180 589 180 587.94 183c-1.1 3.47-1 6.38-.94 10a79 79 0 0 1-1 5l-.44 2.56C585 203 585 203 584 204.8c-1.23 2.7-1.42 5-1.63 7.96l-.23 2.98L582 218c6.2 4.22 12.6 7.21 19.4 10.34q3.6 1.66 7.2 3.35l3.46 1.62 3.17 1.5c2.3.98 4.35 1.61 6.77 2.2q2.52.98 5 2.05 8.63 3.64 17.32 7.12l2.56 1.05c4.67 1.87 9.28 3.43 14.12 4.77l2.06 1.12c1.94.88 1.94.88 4.88.7 4.2.25 5.16 2.21 8.06 5.18a62 62 0 0 0 8 3l5 2 2.25.87q2.46 1 4.86 2.11c5.35 2.48 9.9 4.02 15.89 4.02l2 3a39 39 0 0 0 4.75 2.5l2.73 1.31 2.52 1.2 6 3 1.9.92c11.9 5.87 11.9 5.87 16.1 10.07l5 2 3.13 2.12C759 299 759 299 762 299l.69 1.81c1.67 2.8 3.52 3.56 6.3 5.2q2.52 2.48 5 5l4.83 3.8a119 119 0 0 1 18.18 18.2l2.44 2.43c4.5 4.5 8.36 9.03 11.56 14.56l1.94 2.18c2.39 3.27 3.57 6.48 4.98 10.24a51 51 0 0 0 5.13 8.98c.95 1.6.95 1.6.95 3.6l1.78.75c2.53 1.42 3.93 2.96 5.78 5.2 3.3 3.92 3.3 3.92 5 5.52 1.74 1.84 2.77 3.73 3.94 5.97a47 47 0 0 0 4.04 6.6c1.84 2.47 3.02 5.07 4.3 7.86 1.16 2.1 1.16 2.1 3.13 4.41 2.36 3.12 3.38 5.98 4.59 9.7a55 55 0 0 0 5.44 12q.54 2.97 1 6l2 3q.41 2.85.73 5.73c.55 4.48 1.19 9.23 3.33 13.24 1.1 2.38 1.12 3.97 1 6.58-.11 2.97-.02 4.56.94 7.44.9 6.62 1.09 13.2.94 19.88C872 497 872 497 873 498q.11 2.18.06 4.37l-.02 2.4L873 507v3l-.07 2.34-.05 2.6-.07 2.58c.2 2.67.99 4.13 2.19 6.48 0 4 0 4-.5 5.75-1.31 5.88-.6 10.7 1.5 16.25l.44 2.44c.95 4.3 1.94 8.5 5.75 11l1.8.56q-.48 1.49-1 3c1.3 2.01 1.3 2.01 3.2 4.12q.9 1.06 1.86 2.14c2.94 2.62 5.08 2.74 8.95 2.74l1.69 1.81c7.73 7.32 20.44 6.44 30.39 6.35 19.86-1.09 39.97-11.09 56.86-21.04a32 32 0 0 1 20.43-3.93c5.28 1.62 9.72 4.98 13.63 8.81 2.77 5.3 2.84 10.98 1.25 16.68a40 40 0 0 1-10.51 12.87c-1.74 1.45-1.74 1.45-4.42 4.13A52 52 0 0 1 1000 603l-1.83 1.36c-14.93 10.48-33.98 17.66-51.77 21.15q-3.07.64-6.08 1.5c-4.77 1.05-9.52 1.4-14.38 1.67l-2.3.15A68 68 0 0 1 909 628l-2.1-.34a458 458 0 0 1-8.63-1.47c-22.36-3.93-40.54-16.38-53.97-34.49A95 95 0 0 1 834 572l-1.5-3.25c-1.5-3.45-2.28-6.89-3.03-10.56a84 84 0 0 0-1.53-5.82c-2.17-7.82-2.04-15.35-1.96-23.43l.03-7.74.09-12.13q.04-5.87.06-11.75l.04-3.64c.02-6.56-.48-12.34-2.2-18.68-3.1 3.66-4.35 7.4-5.5 12-1.57 6.27-3.68 13.02-7.06 18.56-1.8 3.03-2.53 6.05-3.44 9.44l-2 5-3 8.47c-1 2.53-1 2.53-3 5.53-.12 2.44-.12 2.44 0 5v7l-2 1-2-1-.17 2-.77 9.06-.26 3.15c-1.15 13.41-1.15 13.41-2.36 17.85-.44 1.94-.44 1.94-.38 4.75-.07 3.67-1.03 6.67-2.06 10.2q-.06 2.48 0 5l-1 2q-.22 2.86-.37 5.74A26 26 0 0 1 785 618q-.55 3.5-1 7c-.87 2.5-.87 2.5-2 5l-1.5 3.5-1.5 3.5-2 5 4.88 1.22 4.3 1.08q5.45 1.38 10.92 2.64C822 652.72 822 652.72 829 661c.17 3.43-.85 4.8-2.87 7.56-7.6 5.92-17.67 7.42-26.94 9.06l-3.6.65c-13.7 2.38-27.36 3.44-41.23 4.22l-2.3.13-11.38.6c-11.66.6-11.66.6-16.44 1.9-3.24.88-3.24.88-5.27.31L717 685c-2.75 1.94-2.75 1.94-5 4l-2-4c-79 .74-79 .74-116.11 2.66-8.53.43-17.07.7-25.62.94q-10.25.32-20.51.9c-21.7 1.2-43.34 1.7-65.07 1.68l-3.81.01c-49.12 0-49.12 0-70.94-2.57l-3.6-.4q-5.17-.59-10.34-1.22l-3.06-.37C358.7 682.68 358.7 682.68 349 674c-2-3-2-3-2-4.88 2.88-6.12 9.45-8.55 15.4-10.88A226 226 0 0 1 385 652l2.88-.69c66.08-15.58 137.28-18.39 205-19.87l2.83-.07c36.98-.8 74.33-1.4 111.23 1.64 3.1 0 4.56-.24 7.06-2q2.07-2.97 4-6l2.69-2.83c3.69-5.08 3.52-9.76 3-15.87-1.74-8.36-1.74-8.36-4.31-10.94L718 594v-4c-3-3.5-6.06-5.7-10-8l-2.9-1.72-3.04-1.78-3.02-1.78q-2.97-1.7-6.04-3.19c-9.03-4.62-17.45-11.29-25-18.03-3-2.5-3-2.5-5-2.85-2.98-.97-3.5-2.96-5-5.65q-2.16-2.55-4.44-5c-4.44-4.8-8.32-9.42-11.48-15.17a70 70 0 0 0-4.93-7.06c-1.4-2.17-2.23-4.36-3.15-6.77l-3.88-9.16c-1.94-4.92-2.51-9.62-3.12-14.84l-3 1-2.12-.5c-3.45-.6-6.27-.14-9.7.44-2.6.07-3.97-.63-6.18-1.94l-2 2c-3.33.06-6.61-.14-9.93-.32-3.07.32-3.07.32-4.98 2.33l-1.1 2q-1.95-1-4-2l1-3-1.6.8c-6.4 3.2-6.4 3.2-8.25 4.04-3.02 1.62-5.78 3.61-8.58 5.6-3.77 2.65-7.58 5.2-11.56 7.55-1.81 1.5-1.81 1.5-3 3v3h-7a77 77 0 0 0-6.68 4.25l-1.8 1.2c-4.34 3.02-4.34 3.02-5.25 5.8L531 526l-2.56.81c-4.74 1.64-8.03 4.55-11.44 8.2l-1.04 2.15C515 539 515 539 512 540c-1.88 3.16-2.04 5.68-1.87 9.25.1 6.16-1.7 11.21-6 15.7q-2.05 1.8-4.18 3.48C498 570 498 570 495.38 572.81c-6.23 5.73-15.55 5.37-23.56 5.37l-2.45.04-2.35.01-2.12.01C463 578 463 578 460 576l-3.56-.44L453 575l-2-3 1-2-1.81-.73c-2.63-1.53-3.64-3.03-5.25-5.59l-1.55-2.43-1.4-2.25-1.8-2.88c-3.75-6.7-1.8-15.84-.2-23.12 2.15-5.16 5-9.15 9-13l2.07-2.19c1.94-1.8 1.94-1.8 3.94-1.8l.75-1.7c4.42-8.19 11.84-15.15 18.19-21.9a27 27 0 0 0 4.06-6.4l2-1-5-5 3-2c2.5.86 2.5.86 5 2h3a41 41 0 0 0 8-12h-3v-3l5-2 2 4v-4c1.38-2.76 1.38-2.76 3-5h2c1.63-1.5 1.63-1.5 3-3-4.62-4-4.62-4-8-4h-3l-.81 3.86c-.76 3.62-.9 3.93-4.2 6.13l-4-2-1.3 2.44c-1.7 2.56-1.7 2.56-4.7 3.56q-.55 1.98-1 4l-2 1-2-1-.61 3.18c-1.21 4.36-3.96 5.97-7.38 8.82-1.25 3.75-1.25 3.75-2 7l-2 1-1.31 2.56-1.7 2.44h-5c-1.67 2.43-1.67 2.43-3 5l-2 1q-.2.95-.43 1.94C449 504 449 504 446 506l-2 3h-2l-.76 2.1a68 68 0 0 1-5.11 9.34l-2.06 3.3A475 475 0 0 1 428 533l-1.62 2.75C425 538 425 538 423 540l-2.31 2.37c-7.02 6.86-15.57 12.21-25.64 12.74-7.25-.4-11.25-4.87-16.13-9.76-1.95-2.39-2.83-4.49-3.92-7.35-2.12-1.32-2.12-1.32-4-2l1-3q-.46-4-1-8c-1.08-8.19 3.46-14.45 8.06-20.88 2.86-3.13 5.82-6.13 9-8.94 2.23-2.5 3.46-5.03 4.82-8.08 1.12-2.1 1.12-2.1 2.99-4.33 2.7-3.5 4.42-7.2 6.26-11.2l1.05-2.25a91 91 0 0 0 3.93-9.65c1-3 2.6-5.35 4.32-7.99a145 145 0 0 0 5.82-11.37l1.07-2.23c1.74-3.7 3-7.02 3.68-11.08l1.5-2.75c1.4-3.05 1.67-4.46 1.82-7.69.34-4.69 2.17-6.87 5.5-10.05l1.18-1.5c-1-3-1-3-3-6l3-2 2 1-.1-2.35-.08-3.04-.11-3.02.29-2.6 3-2c-.52-4.19-2.11-7.35-4.02-11.03A52 52 0 0 1 430 366q-.7-2.13-1.44-4.25a336 336 0 0 1-3.86-12.42q-.9-2.94-1.88-5.83c-.9-3.82-.93-7.17-.8-11.07-.02-2.43-.02-2.43-.52-4.64-.88-4.95-.5-10-.37-15.02l.03-2.5.05-2.27c-.21-2-.21-2-2.21-5l1.5-2.32C422 298 422 298 422 295l-1.64-.26c-3.17-1-5.42-2.72-8.11-4.68l-2.98-2.15-2.27-1.9v-2l-1.7-.27c-3-.97-4.71-2.57-7.05-4.68l-2.42-2.15c-1.83-1.9-1.83-1.9-1.83-3.9l-1.8-.77c-2.52-1.42-3.64-2.8-5.33-5.13l-1.7-2.34-1.73-2.46-1.75-2.4a60 60 0 0 1-7.7-13.9q-.72-1.42-1.5-2.89c-4.22-8.82-6.7-18.48-3.5-28.12q-.26-1.7-.55-3.44c-.46-3.78-.36-4.49 1.56-7.56 2.5-5.02 3.34-9.07 3.76-14.66.3-2.98 1.23-5.53 2.24-8.34q.52-2.25 1-4.5a87 87 0 0 1 3-10.5q1.36-4.69 2.65-9.39c1.18-4.15 2.42-7.94 4.48-11.74 2.12-3.96 2.48-7.43 2.87-11.87l1-1q.43-2.17.72-4.38l.78-5.62.4-2.8q.94-6.64 1.63-13.33C395 102 395 102 396 101v-3.5c0-3.5 0-3.5 1-4.5q.53-3.21.94-6.44c.8-5.92 1.75-11.74 3.06-17.56l.55-2.74c1.9-8.36 5.5-14.55 12.64-19.45 2.8-.8 2.8-.8 4.75-.25m-10.6 8.01c-6.57 11.87-7.83 27.54-9.31 40.9a410 410 0 0 1-4.52 30.81l-1.1 5.91a89 89 0 0 1-6.2 19.95c-1.95 4.6-3.33 9.32-4.71 14.11l-.9 3.07c-2.94 10.42-5.12 21-7.14 31.63C374 203 374 203 373 205c-2.68 16.21-2.6 30.77 6 45l1.7 2.97c10.36 17.21 25.55 33.1 44.3 41.03h2l-.94 3.12c-4.51 18.15-2.81 38.45 2.57 56.13l1.07 3.6c2.39 7.8 5.2 15 9.15 22.13 3.97 10.4-4.92 28.4-9.22 38.14l-1.7 3.66a686 686 0 0 0-4.66 10.38 1293 1293 0 0 1-14.84 32.46c-5.9 12.73-11.97 25.21-21.55 35.63-8.5 9.58-13.37 16.24-13.21 29.36.95 9.72 7.2 16.23 14.33 22.4 4.3 2.14 9.85 1.6 14.38.3 5.48-2.29 10.12-5.47 14.62-9.3l2.19-1.84c5.57-5.07 8.98-10.6 12.5-17.15A119 119 0 0 1 443 506l1.97-2.55c5.49-6.98 11.43-13.52 17.44-20.06C474 470.67 474 470.67 474 467l1.82-.77c2.47-1.4 3.5-2.67 5.09-5l1.56-2.26 1.59-2.35 3.17-4.58 1.39-2.06q2.14-3.03 4.38-5.98c4.69.55 8.2 1.88 12.38 4.06l3.2 1.66L511 451c-.41 4.9-2.83 7.45-6.12 10.81l-3.03 3.2-1.5 1.55a155 155 0 0 0-4.97 5.62 147 147 0 0 1-7.88 8.32 167 167 0 0 0-9.5 10.21 301 301 0 0 1-6.36 6.97 238 238 0 0 0-13.84 16.06 124 124 0 0 1-5.42 6.26c-7.44 8.43-12.13 17.61-11.88 29.03 1.48 8.78 7.52 15.63 14 21.35 6.15 3.98 12.07 5.16 19.32 5.06l2.38-.04c11.37-.35 17.93-3.7 25.8-11.96 3.6-4.39 4.23-7.48 4.75-13.13 1.62-11.86 8.27-17.97 17.25-25.3l1.73-1.43c11.52-9.39 23.9-17.18 36.57-24.92a555 555 0 0 0 10.58-6.72l3.22-2.07q2.85-1.83 5.65-3.75c6.98-4.59 11.37-5.07 19.47-3.5q3.57.76 7.13 1.58a192 192 0 0 0 13.9 2.37c2.3.36 4.5.82 6.75 1.43l.49 2.98c3.28 17.5 11.98 33.52 23.5 47.02l2.59 3.03c14.69 16.83 33.28 27.94 52.84 38.31 7.24 3.87 11.65 6.44 14.33 14.6l1.24 3.65c2 6.71 3.25 13.43 2 20.41a45 45 0 0 1-6.04 7.74C718 628 718 628 716.98 630.66c-.98 2.34-.98 2.34-2.75 3.5l-2.04.78c-6.11 2.77-9.65 7.81-12.46 13.78-1.78 5.56-1.81 11.82.7 17.15 3.3 4.93 9.12 7.31 14.57 9.13 4.43.25 8.86.27 13.3.3q2.17 0 4.37.05c9.7.2 19.4.4 27.38-5.99 5-5.17 7.5-11.43 10.08-18.05l1.3-3.24 2.49-6.3q1.3-3.32 2.66-6.6c8.16-20.1 11.8-41.54 13.1-63.14 1.4-23.56 9.33-43.78 17.96-65.49a441 441 0 0 0 8.32-22.65c1.1-3.26 2.25-6.44 3.66-9.59A33 33 0 0 0 822 466q1.22 2.1 2.38 4.25l1.33 2.4c3.36 8.74 3.56 18.03 3.38 27.3l-.06 6.76-.14 10.45c-.2 13.66-.01 26.5 3.1 39.84l.86 3.74c4.87 20.4 18.24 40.13 35.94 51.4 15.97 9.62 32.9 13.26 51.46 13.17h3.59c9.09-.13 17.36-1.05 26.16-3.3l3.77-.89A137 137 0 0 0 994 604l2.7-1.68c9.3-6.13 19.43-14.58 23.3-25.32.65-4.26.36-6.25-1.5-10.13-3.52-4.05-8.95-8.38-14.46-9.15-7.65-.32-13.26 2-20.04 5.28l-2.55 1.23-2.83 1.37c-21.33 10.32-21.33 10.32-31.62 13.4l-3.03.95c-15.81 4.38-34.94 3.72-49.78-3.5-11.6-6.95-18.58-18.65-22.2-31.45-1.23-7.88-1.18-15.82-1.32-23.78-.88-48.38-6.96-95-37.67-134.22l-2.3-3.03c-5.25-6.82-5.25-6.82-8.7-7.97-.97-1.67-.97-1.67-2-4l-5.24-9.62c-1.76-3.38-1.76-3.38-3.2-6.9-4.85-10.8-14.44-20-22.56-28.48l-2.56-2.69c-9.77-10.02-20.71-17.8-32.44-25.3l-2.08-1.35c-20.03-12.85-41.3-22.34-63.42-30.98l-12.97-5.1-3.1-1.23a583 583 0 0 1-19.34-8.04c-5.41-2.3-10.91-4.39-16.4-6.5-42.05-16.39-42.05-16.39-57.7-26.8.63-6 1.45-11.9 2.54-17.83l.44-2.46 1.4-7.72.93-5.08.46-2.53.45-2.52.46-2.52L587 171l.4-2.25c8.02-44.3 8.02-44.3 8.16-65.13l.05-3.03c-.1-7.08-1.57-10.55-6.61-15.59-5.84-1.3-10.36-.2-15.37 2.94Q570.79 89.92 568 92l-2.97 2.15q-7.48 5.53-14.65 11.41l-2.72 2.21a192 192 0 0 0-5.3 4.61c-6.31 5.55-6.31 5.55-11.04 5.87A71 71 0 0 1 527 117a355 355 0 0 0-31.4-7.29l-7.36-1.42-4.7-.9-2.21-.43c-5.1-.96-5.1-.96-7.33-.96l-.66-1.63c-1.8-3.19-4.21-5.67-6.71-8.3l-3.26-3.5L460 89l-6.18-6.63-1.53-1.63a179 179 0 0 1-8.73-10.3c-3.47-4.32-7.2-8.17-11.24-11.94l-1.63-1.53c-4.28-3.9-8.37-6.56-14.2-7.6-4.23.76-5.6 1.82-8.14 5.2" fill="#BFC0C0"/><path d="M418.94 46.56 421 48l3.22 1.72c3.97 2.25 7.12 5.07 10.4 8.22l1.66 1.55q2.38 2.25 4.72 4.51l2.65 2.53A65 65 0 0 1 450 74.5a66 66 0 0 0 9 10.5l3.5 3.5 1.8 1.8L471 97l2.32 2.12C475 101 475 101 475 104l1.63-.63c3.2-.5 5.3.6 8.37 1.63q3.06.53 6.13.94c5.5.8 10.78 1.98 16.16 3.41 2.35.56 4.56.92 6.96 1.15 3.04.4 5.04.9 7.8 2 4.99 1.96 9 3.3 14.14 1.18q1.4-.82 2.8-1.68 1.13-.45 2.26-.94C543 110 543 110 544 108c1.28-2.56 2.46-2.77 5-4q2.54-2.48 5-5a55 55 0 0 1 9.97-6.73c3.49-2.19 6.56-4.9 9.7-7.57 3.8-2.78 7.54-3.12 12.24-3.04 3.76.61 6.6 2.48 9.09 5.34 3.23 5.81 3.38 10.7 3.19 17.25l-.04 2.72-.1 4.96q-.05 2.54-.05 5.07a265 265 0 0 1-1 5.5 67 67 0 0 0-.87 15.12c-.14 2.64-.9 4.08-2.13 6.38v2.75c0 3.23-.64 5.86-1.5 8.96-.78 3.56-1 7.14-1.25 10.77A39 39 0 0 1 590 173l-.44 3.37C589 180 589 180 587.94 183c-1.1 3.47-1 6.38-.94 10a79 79 0 0 1-1 5l-.44 2.56C585 203 585 203 584 204.8c-1.23 2.7-1.42 5-1.63 7.96l-.23 2.98L582 218c6.2 4.22 12.6 7.21 19.4 10.34q3.6 1.66 7.2 3.35l3.46 1.62 3.17 1.5c2.3.98 4.35 1.61 6.77 2.2q2.52.98 5 2.05 8.63 3.64 17.32 7.12l2.56 1.05c4.67 1.87 9.28 3.43 14.12 4.77l2.06 1.12c1.94.88 1.94.88 4.88.7 4.2.25 5.16 2.21 8.06 5.18a62 62 0 0 0 8 3l5 2 2.25.87q2.46 1 4.86 2.11c5.35 2.48 9.9 4.02 15.89 4.02l2 3a39 39 0 0 0 4.75 2.5l2.73 1.31 2.52 1.2 6 3 1.9.92c11.9 5.87 11.9 5.87 16.1 10.07l5 2 3.13 2.12C759 299 759 299 762 299l.69 1.81c1.67 2.8 3.52 3.56 6.3 5.2q2.52 2.48 5 5l4.83 3.8a119 119 0 0 1 18.18 18.2l2.44 2.43c4.5 4.5 8.36 9.03 11.56 14.56l1.94 2.18c2.39 3.27 3.57 6.48 4.98 10.24a51 51 0 0 0 5.13 8.98c.95 1.6.95 1.6.95 3.6l1.78.75c2.53 1.42 3.93 2.96 5.78 5.2 3.3 3.92 3.3 3.92 5 5.52 1.74 1.84 2.77 3.73 3.94 5.97a47 47 0 0 0 4.04 6.6c1.84 2.47 3.02 5.07 4.3 7.86 1.16 2.1 1.16 2.1 3.13 4.41 2.36 3.12 3.38 5.98 4.59 9.7a55 55 0 0 0 5.44 12q.54 2.97 1 6l2 3q.41 2.85.73 5.73c.55 4.48 1.19 9.23 3.33 13.24 1.1 2.38 1.12 3.97 1 6.58-.11 2.97-.02 4.56.94 7.44.9 6.62 1.09 13.2.94 19.88C872 497 872 497 873 498q.11 2.18.06 4.37l-.02 2.4L873 507v3l-.07 2.34-.05 2.6-.07 2.58c.2 2.67.99 4.13 2.19 6.48 0 4 0 4-.5 5.75-1.31 5.88-.6 10.7 1.5 16.25l.44 2.44c.95 4.3 1.94 8.5 5.75 11l1.8.56q-.48 1.49-1 3c1.3 2.01 1.3 2.01 3.2 4.12q.9 1.06 1.86 2.14c2.94 2.62 5.08 2.74 8.95 2.74l1.69 1.81c7.73 7.32 20.44 6.44 30.39 6.35 19.86-1.09 39.97-11.09 56.86-21.04a32 32 0 0 1 20.43-3.93c5.28 1.62 9.72 4.98 13.63 8.81 2.77 5.3 2.84 10.98 1.25 16.68a40 40 0 0 1-10.51 12.87c-1.74 1.45-1.74 1.45-4.42 4.13A52 52 0 0 1 1000 603l-1.83 1.36c-14.93 10.48-33.98 17.66-51.77 21.15q-3.07.64-6.08 1.5c-4.77 1.05-9.52 1.4-14.38 1.67l-2.3.15A68 68 0 0 1 909 628l-2.1-.34a458 458 0 0 1-8.63-1.47c-22.36-3.93-40.54-16.38-53.97-34.49A95 95 0 0 1 834 572l-1.5-3.25c-1.5-3.45-2.28-6.89-3.03-10.56a84 84 0 0 0-1.53-5.82c-2.17-7.82-2.04-15.35-1.96-23.43l.03-7.74.09-12.13q.04-5.87.06-11.75l.04-3.64c.02-6.56-.48-12.34-2.2-18.68-3.1 3.66-4.35 7.4-5.5 12-1.57 6.27-3.68 13.02-7.06 18.56-1.8 3.03-2.53 6.05-3.44 9.44l-2 5-3 8.47c-1 2.53-1 2.53-3 5.53-.12 2.44-.12 2.44 0 5v7l-2 1-2-1-.17 2-.77 9.06-.26 3.15c-1.15 13.41-1.15 13.41-2.36 17.85-.44 1.94-.44 1.94-.38 4.75-.07 3.67-1.03 6.67-2.06 10.2q-.06 2.48 0 5l-1 2q-.22 2.86-.37 5.74A26 26 0 0 1 785 618q-.55 3.5-1 7c-.87 2.5-.87 2.5-2 5l-1.5 3.5-1.5 3.5-2 5 4.88 1.22 4.3 1.08q5.45 1.38 10.92 2.64C822 652.72 822 652.72 829 661c.17 3.43-.85 4.8-2.87 7.56-7.6 5.92-17.67 7.42-26.94 9.06l-3.6.65c-13.7 2.38-27.36 3.44-41.23 4.22l-2.3.13-11.38.6c-11.66.6-11.66.6-16.44 1.9-3.24.88-3.24.88-5.27.31L717 685c-2.75 1.94-2.75 1.94-5 4l-2-4c-79 .74-79 .74-116.11 2.66-8.53.43-17.07.7-25.62.94q-10.25.32-20.51.9c-21.7 1.2-43.34 1.7-65.07 1.68l-3.81.01c-49.12 0-49.12 0-70.94-2.57l-3.6-.4q-5.17-.59-10.34-1.22l-3.06-.37C358.7 682.68 358.7 682.68 349 674c-2-3-2-3-2-4.88 2.88-6.12 9.45-8.55 15.4-10.88A226 226 0 0 1 385 652l2.88-.69c66.08-15.58 137.28-18.39 205-19.87l2.83-.07c36.98-.8 74.33-1.4 111.23 1.64 3.1 0 4.56-.24 7.06-2q2.07-2.97 4-6l2.69-2.83c3.69-5.08 3.52-9.76 3-15.87-1.74-8.36-1.74-8.36-4.31-10.94L718 594v-4c-3-3.5-6.06-5.7-10-8l-2.9-1.72-3.04-1.78-3.02-1.78q-2.97-1.7-6.04-3.19c-9.03-4.62-17.45-11.29-25-18.03-3-2.5-3-2.5-5-2.85-2.98-.97-3.5-2.96-5-5.65q-2.16-2.55-4.44-5c-4.44-4.8-8.32-9.42-11.48-15.17a70 70 0 0 0-4.93-7.06c-1.4-2.17-2.23-4.36-3.15-6.77l-3.88-9.16c-1.94-4.92-2.51-9.62-3.12-14.84l-3 1-2.12-.5c-3.45-.6-6.27-.14-9.7.44-2.6.07-3.97-.63-6.18-1.94l-2 2c-3.33.06-6.61-.14-9.93-.32-3.07.32-3.07.32-4.98 2.33l-1.1 2q-1.95-1-4-2l1-3-1.6.8c-6.4 3.2-6.4 3.2-8.25 4.04-3.02 1.62-5.78 3.61-8.58 5.6-3.77 2.65-7.58 5.2-11.56 7.55-1.81 1.5-1.81 1.5-3 3v3h-7a77 77 0 0 0-6.68 4.25l-1.8 1.2c-4.34 3.02-4.34 3.02-5.25 5.8L531 526l-2.56.81c-4.74 1.64-8.03 4.55-11.44 8.2l-1.04 2.15C515 539 515 539 512 540c-1.88 3.16-2.04 5.68-1.87 9.25.1 6.16-1.7 11.21-6 15.7q-2.05 1.8-4.18 3.48C498 570 498 570 495.38 572.81c-6.23 5.73-15.55 5.37-23.56 5.37l-2.45.04-2.35.01-2.12.01C463 578 463 578 460 576l-3.56-.44L453 575l-2-3 1-2-1.81-.73c-2.63-1.53-3.64-3.03-5.25-5.59l-1.55-2.43-1.4-2.25-1.8-2.88c-3.75-6.7-1.8-15.84-.2-23.12 2.15-5.16 5-9.15 9-13l2.07-2.19c1.94-1.8 1.94-1.8 3.94-1.8l.75-1.7c4.42-8.19 11.84-15.15 18.19-21.9a27 27 0 0 0 4.06-6.4l2-1-5-5 3-2c2.5.86 2.5.86 5 2h3a41 41 0 0 0 8-12h-3v-3l5-2 2 4v-4c1.38-2.76 1.38-2.76 3-5h2c1.63-1.5 1.63-1.5 3-3-4.62-4-4.62-4-8-4h-3l-.81 3.86c-.76 3.62-.9 3.93-4.2 6.13l-4-2-1.3 2.44c-1.7 2.56-1.7 2.56-4.7 3.56q-.55 1.98-1 4l-2 1-2-1-.61 3.18c-1.21 4.36-3.96 5.97-7.38 8.82-1.25 3.75-1.25 3.75-2 7l-2 1-1.31 2.56-1.7 2.44h-5c-1.67 2.43-1.67 2.43-3 5l-2 1q-.2.95-.43 1.94C449 504 449 504 446 506l-2 3h-2l-.76 2.1a68 68 0 0 1-5.11 9.34l-2.06 3.3A475 475 0 0 1 428 533l-1.62 2.75C425 538 425 538 423 540l-2.31 2.37c-7.02 6.86-15.57 12.21-25.64 12.74-7.25-.4-11.25-4.87-16.13-9.76-1.95-2.39-2.83-4.49-3.92-7.35-2.12-1.32-2.12-1.32-4-2l1-3q-.46-4-1-8c-1.08-8.19 3.46-14.45 8.06-20.88 2.86-3.13 5.82-6.13 9-8.94 2.23-2.5 3.46-5.03 4.82-8.08 1.12-2.1 1.12-2.1 2.99-4.33 2.7-3.5 4.42-7.2 6.26-11.2l1.05-2.25a91 91 0 0 0 3.93-9.65c1-3 2.6-5.35 4.32-7.99a145 145 0 0 0 5.82-11.37l1.07-2.23c1.74-3.7 3-7.02 3.68-11.08l1.5-2.75c1.4-3.05 1.67-4.46 1.82-7.69.34-4.69 2.17-6.87 5.5-10.05l1.18-1.5c-1-3-1-3-3-6l3-2 2 1-.1-2.35-.08-3.04-.11-3.02.29-2.6 3-2c-.52-4.19-2.11-7.35-4.02-11.03A52 52 0 0 1 430 366q-.7-2.13-1.44-4.25a336 336 0 0 1-3.86-12.42q-.9-2.94-1.88-5.83c-.9-3.82-.93-7.17-.8-11.07-.02-2.43-.02-2.43-.52-4.64-.88-4.95-.5-10-.37-15.02l.03-2.5.05-2.27c-.21-2-.21-2-2.21-5l1.5-2.32C422 298 422 298 422 295l-1.64-.26c-3.17-1-5.42-2.72-8.11-4.68l-2.98-2.15-2.27-1.9v-2l-1.7-.27c-3-.97-4.71-2.57-7.05-4.68l-2.42-2.15c-1.83-1.9-1.83-1.9-1.83-3.9l-1.8-.77c-2.52-1.42-3.64-2.8-5.33-5.13l-1.7-2.34-1.73-2.46-1.75-2.4a60 60 0 0 1-7.7-13.9q-.72-1.42-1.5-2.89c-4.22-8.82-6.7-18.48-3.5-28.12q-.26-1.7-.55-3.44c-.46-3.78-.36-4.49 1.56-7.56 2.5-5.02 3.34-9.07 3.76-14.66.3-2.98 1.23-5.53 2.24-8.34q.52-2.25 1-4.5a87 87 0 0 1 3-10.5q1.36-4.69 2.65-9.39c1.18-4.15 2.42-7.94 4.48-11.74 2.12-3.96 2.48-7.43 2.87-11.87l1-1q.43-2.17.72-4.38l.78-5.62.4-2.8q.94-6.64 1.63-13.33C395 102 395 102 396 101v-3.5c0-3.5 0-3.5 1-4.5q.53-3.21.94-6.44c.8-5.92 1.75-11.74 3.06-17.56l.55-2.74c1.9-8.36 5.5-14.55 12.64-19.45 2.8-.8 2.8-.8 4.75-.25m-10.6 8.01c-6.57 11.87-7.83 27.54-9.31 40.9a410 410 0 0 1-4.52 30.81l-1.1 5.91a89 89 0 0 1-6.2 19.95c-1.95 4.6-3.33 9.32-4.71 14.11l-.9 3.07c-2.94 10.42-5.12 21-7.14 31.63C374 203 374 203 373 205c-2.68 16.21-2.6 30.77 6 45l1.7 2.97c10.36 17.21 25.55 33.1 44.3 41.03h2l-.94 3.12c-4.51 18.15-2.81 38.45 2.57 56.13l1.07 3.6c2.39 7.8 5.2 15 9.15 22.13 3.97 10.4-4.92 28.4-9.22 38.14l-1.7 3.66a686 686 0 0 0-4.66 10.38 1293 1293 0 0 1-14.84 32.46c-5.9 12.73-11.97 25.21-21.55 35.63-8.5 9.58-13.37 16.24-13.21 29.36.95 9.72 7.2 16.23 14.33 22.4 4.3 2.14 9.85 1.6 14.38.3 5.48-2.29 10.12-5.47 14.62-9.3l2.19-1.84c5.57-5.07 8.98-10.6 12.5-17.15A119 119 0 0 1 443 506l1.97-2.55c5.49-6.98 11.43-13.52 17.44-20.06C474 470.67 474 470.67 474 467l1.82-.77c2.47-1.4 3.5-2.67 5.09-5l1.56-2.26 1.59-2.35 3.17-4.58 1.39-2.06q2.14-3.03 4.38-5.98c4.69.55 8.2 1.88 12.38 4.06l3.2 1.66L511 451c-.41 4.9-2.83 7.45-6.12 10.81l-3.03 3.2-1.5 1.55a155 155 0 0 0-4.97 5.62 147 147 0 0 1-7.88 8.32 167 167 0 0 0-9.5 10.21 301 301 0 0 1-6.36 6.97 238 238 0 0 0-13.84 16.06 124 124 0 0 1-5.42 6.26c-7.44 8.43-12.13 17.61-11.88 29.03 1.48 8.78 7.52 15.63 14 21.35 6.15 3.98 12.07 5.16 19.32 5.06l2.38-.04c11.37-.35 17.93-3.7 25.8-11.96 3.6-4.39 4.23-7.48 4.75-13.13 1.62-11.86 8.27-17.97 17.25-25.3l1.73-1.43c11.52-9.39 23.9-17.18 36.57-24.92a555 555 0 0 0 10.58-6.72l3.22-2.07q2.85-1.83 5.65-3.75c6.98-4.59 11.37-5.07 19.47-3.5q3.57.76 7.13 1.58a192 192 0 0 0 13.9 2.37c2.3.36 4.5.82 6.75 1.43l.49 2.98c3.28 17.5 11.98 33.52 23.5 47.02l2.59 3.03c14.69 16.83 33.28 27.94 52.84 38.31 7.24 3.87 11.65 6.44 14.33 14.6l1.24 3.65c2 6.71 3.25 13.43 2 20.41a45 45 0 0 1-6.04 7.74c-1.95 2.26-1.95 2.26-2.92 4.9-1.03 2.36-1.03 2.36-3.2 3.72l-2.45.95-2.48 1c-.31.1-.31.1-1.9.7v-2c-24.72-1.74-49.35-2.4-74.13-2.39h-8.57c-36.22.02-72.2 1.54-108.3 4.38l-3.4.26a1112 1112 0 0 0-64.62 6.81q-8.5 1.14-17.04 2.02A386 386 0 0 0 369 658q-1.78.48-3.61 1c-5.96 1.8-12.37 3.98-16.4 9-.7 2.38-.7 2.38 0 5 4.86 4.42 10.88 6.18 17.14 7.56l2.67.61c20.78 4.54 42.34 6.7 63.57 7.37l3.83.13a1428 1428 0 0 0 42.89.65c39.19.1 78.33-1.9 117.47-3.84l2.4-.12q5.8-.28 11.58-.64c10.1-.6 20.16-.9 30.28-.98l8.03-.08 17.09-.16c31.03-.29 61.94-.63 92.88-3.24q4.79-.39 9.58-.73c11.4-.85 22.43-2.08 33.6-4.53l2.62-.53c14.69-3.06 14.69-3.06 20.38-6.47 1.25-2.63 1.25-2.63 2-5-3.81-5.35-7.15-7.45-13.31-9.56l-2.46-.88c-9.7-3.3-19.71-5.23-29.76-7.1q-3.74-.7-7.47-1.46a349 349 0 0 1 5.44-17.06c5.96-17.63 9.08-35.94 10.17-54.49 1.45-23.73 9.34-44.04 18.03-65.9a441 441 0 0 0 8.32-22.66c1.1-3.26 2.25-6.44 3.66-9.59A33 33 0 0 0 822 466q1.22 2.1 2.38 4.25l1.33 2.4c3.36 8.74 3.56 18.03 3.38 27.3l-.06 6.76-.14 10.45c-.2 13.66-.01 26.5 3.1 39.84l.86 3.74c4.87 20.4 18.24 40.13 35.94 51.4 15.97 9.62 32.9 13.26 51.46 13.17h3.59c9.09-.13 17.36-1.05 26.16-3.3l3.77-.89A137 137 0 0 0 994 604l2.7-1.68c9.3-6.13 19.43-14.58 23.3-25.32.65-4.26.36-6.25-1.5-10.13-3.52-4.05-8.95-8.38-14.46-9.15-7.65-.32-13.26 2-20.04 5.28l-2.55 1.23-2.83 1.37c-21.33 10.32-21.33 10.32-31.62 13.4l-3.03.95c-15.81 4.38-34.94 3.72-49.78-3.5-11.6-6.95-18.58-18.65-22.2-31.45-1.23-7.88-1.18-15.82-1.32-23.78-.88-48.38-6.96-95-37.67-134.22l-2.3-3.03c-5.25-6.82-5.25-6.82-8.7-7.97-.97-1.67-.97-1.67-2-4l-5.24-9.62c-1.76-3.38-1.76-3.38-3.2-6.9-4.85-10.8-14.44-20-22.56-28.48l-2.56-2.69c-9.77-10.02-20.71-17.8-32.44-25.3l-2.08-1.35c-20.03-12.85-41.3-22.34-63.42-30.98l-12.97-5.1-3.1-1.23a583 583 0 0 1-19.34-8.04c-5.41-2.3-10.91-4.39-16.4-6.5-42.05-16.39-42.05-16.39-57.7-26.8.63-6 1.45-11.9 2.54-17.83l.44-2.46 1.4-7.72.93-5.08.46-2.53.45-2.52.46-2.52L587 171l.4-2.25c8.02-44.3 8.02-44.3 8.16-65.13l.05-3.03c-.1-7.08-1.57-10.55-6.61-15.59-5.84-1.3-10.36-.2-15.37 2.94Q570.79 89.92 568 92l-2.97 2.15q-7.48 5.53-14.65 11.41l-2.72 2.21a192 192 0 0 0-5.3 4.61c-6.31 5.55-6.31 5.55-11.04 5.87A71 71 0 0 1 527 117a355 355 0 0 0-31.4-7.29l-7.36-1.42-4.7-.9-2.21-.43c-5.1-.96-5.1-.96-7.33-.96l-.66-1.63c-1.8-3.19-4.21-5.67-6.71-8.3l-3.26-3.5L460 89l-6.18-6.63-1.53-1.63a179 179 0 0 1-8.73-10.3c-3.47-4.32-7.2-8.17-11.24-11.94l-1.63-1.53c-4.28-3.9-8.37-6.56-14.2-7.6-4.23.76-5.6 1.82-8.14 5.2" fill="#E8E8EA"/><path d="M440 388c2.51.26 3.91.93 5.94 2.44a33 33 0 0 1 4.31 7.18A49 49 0 0 0 468 418v2l1.73.81a50 50 0 0 1 6.52 4.19l2.14 1.56L480 428v2h2v2h2v2l2.62.75A35 35 0 0 1 496 440v2l-2.29 1.8c-2.81 2.28-4.2 4.23-6.02 7.32-3.45 5.62-7.15 11.07-11.69 15.88h-2l-.75 1.62c-3.26 6.2-7.47 10.88-12.31 15.88-12.28 12.9-23.9 27.13-31.82 43.19A51 51 0 0 1 405 550l-2.44 1.31c-4.28 1.15-8.18 1.55-12.56.69-7.13-4.14-13.47-12.17-16-20-.3-3.05-.3-3.05-.31-6.31l-.05-3.24c.84-8.04 4.2-13.01 9.61-18.83l3.54-3.97 1.69-1.92c13.51-15.45 21.24-36.21 29.52-54.73l1.13-2.53q2.5-5.58 4.96-11.18a462 462 0 0 1 4-8.77 156 156 0 0 0 10-28.12c.91-3.4.91-3.4 1.91-4.4" fill="#0B0D0D"/><path d="M418.94 46.56 421 48l3.22 1.72c3.97 2.25 7.12 5.07 10.4 8.22l1.66 1.55q2.38 2.25 4.72 4.51l2.65 2.53A65 65 0 0 1 450 74.5a66 66 0 0 0 9 10.5l3.5 3.5 1.8 1.8L471 97l2.32 2.12C475 101 475 101 475 104l1.63-.63c3.2-.5 5.3.6 8.37 1.63q3.06.53 6.13.94c5.5.8 10.78 1.98 16.16 3.41 2.35.56 4.56.92 6.96 1.15 3.04.4 5.04.9 7.8 2 4.99 1.96 9 3.3 14.14 1.18q1.4-.82 2.8-1.68 1.13-.45 2.26-.94C543 110 543 110 544 108c1.28-2.56 2.46-2.77 5-4q2.54-2.48 5-5a55 55 0 0 1 9.97-6.73c3.49-2.19 6.56-4.9 9.7-7.57 3.8-2.78 7.54-3.12 12.24-3.04 3.76.61 6.6 2.48 9.09 5.34 3.23 5.81 3.38 10.7 3.19 17.25l-.04 2.72-.1 4.96q-.05 2.54-.05 5.07a265 265 0 0 1-1 5.5 67 67 0 0 0-.87 15.12c-.14 2.64-.9 4.08-2.13 6.38v2.75c0 3.23-.64 5.86-1.5 8.96-.78 3.56-1 7.14-1.25 10.77A39 39 0 0 1 590 173l-.44 3.37C589 180 589 180 587.94 183c-1.1 3.47-1 6.38-.94 10a79 79 0 0 1-1 5l-.44 2.56C585 203 585 203 584 204.8c-1.23 2.7-1.42 5-1.63 7.96l-.23 2.98L582 218c6.2 4.22 12.6 7.21 19.4 10.34q3.6 1.66 7.2 3.35l3.46 1.62 3.17 1.5c2.3.98 4.35 1.61 6.77 2.2q2.52.98 5 2.05 8.63 3.64 17.32 7.12l2.56 1.05c4.67 1.87 9.28 3.43 14.12 4.77l2.06 1.12c1.94.88 1.94.88 4.88.7 4.2.25 5.16 2.21 8.06 5.18a62 62 0 0 0 8 3l5 2 2.25.87q2.46 1 4.86 2.11c5.35 2.48 9.9 4.02 15.89 4.02l2 3a39 39 0 0 0 4.75 2.5l2.73 1.31 2.52 1.2 6 3 1.9.92c11.9 5.87 11.9 5.87 16.1 10.07l5 2 3.13 2.12C759 299 759 299 762 299l.69 1.81c1.67 2.8 3.52 3.56 6.3 5.2q2.52 2.48 5 5l4.83 3.8a119 119 0 0 1 18.18 18.2l2.44 2.43c4.5 4.5 8.36 9.03 11.56 14.56l1.94 2.18c2.39 3.27 3.57 6.48 4.98 10.24a51 51 0 0 0 5.13 8.98c.95 1.6.95 1.6.95 3.6l1.78.75c2.53 1.42 3.93 2.96 5.78 5.2 3.3 3.92 3.3 3.92 5 5.52 1.74 1.84 2.77 3.73 3.94 5.97a47 47 0 0 0 4.04 6.6c1.84 2.47 3.02 5.07 4.3 7.86 1.16 2.1 1.16 2.1 3.13 4.41 2.36 3.12 3.38 5.98 4.59 9.7a55 55 0 0 0 5.44 12q.54 2.97 1 6l2 3q.41 2.85.73 5.73c.55 4.48 1.19 9.23 3.33 13.24 1.1 2.38 1.12 3.97 1 6.58-.11 2.97-.02 4.56.94 7.44.9 6.62 1.09 13.2.94 19.88C872 497 872 497 873 498q.11 2.18.06 4.37l-.02 2.4L873 507q-.01 2.61.04 5.22a216 216 0 0 0 .06 4.82C873 519 873 519 872 520c-.23 2.7-.42 5.36-.56 8.06l-.13 2.3L871 536h-1l-.04-2.92c-.85-52.24-4.48-103.4-37.96-146.08l-2.22-2.89a85 85 0 0 0-8.28-9.49c-2.7-2.83-4.32-5.54-6.12-9l-1.73-3.27C812 359 812 359 810.57 355.47 805.69 344.68 796.12 335.5 788 327l-2.34-2.47C776.19 314.8 765.38 307.3 754 300l-2.08-1.34c-20.03-12.85-41.3-22.34-63.42-30.98l-12.97-5.1-3.1-1.23a583 583 0 0 1-19.34-8.04c-5.41-2.3-10.91-4.39-16.4-6.5-18.6-7.25-37.48-14.6-54.7-24.8l-2.44-1.17C578 219 578 219 578.02 217.16l.29-2.23.32-2.45q.85-5.66 1.9-11.3l.44-2.46 1.4-7.72.93-5.08.46-2.53.45-2.52.46-2.52L586 171l.4-2.25c8.02-44.3 8.02-44.3 8.16-65.13l.05-3.03c-.1-6.3-1.05-10.04-5.61-14.59-5.92-1.07-10.3-.26-15.37 2.94Q570.79 90.92 568 93l-2.97 2.15q-7.48 5.53-14.65 11.41l-2.72 2.21a192 192 0 0 0-5.3 4.61c-6.31 5.55-6.31 5.55-11.04 5.87A71 71 0 0 1 527 118c-8-2.3-15.96-4.28-24.16-5.75l-2.35-.42q-4.77-.87-9.55-1.68l-7.1-1.27-2.17-.35c-5-.95-7.4-2.69-10.67-6.53l-2.7-2.88-2.86-3.12-3.18-3.46-1.63-1.78-4.76-5.1a240 240 0 0 1-13.37-15.29c-6.67-8.29-15.11-18.2-26.06-19.93-3.44.56-3.44.56-6.12 2.68-9.13 12.81-9.45 34.31-11.2 49.55A345 345 0 0 1 395 129h-1c-.84-7.68-1.58-15.2.48-22.75.62-2.68.92-5.36 1.25-8.09.45-3.53 1.08-7.03 1.7-10.54q.22-1.11.4-2.25L399 79l.54-2.94q.69-3.53 1.46-7.06l.55-2.73c1.9-8.36 5.49-14.56 12.64-19.46 2.8-.8 2.8-.8 4.75-.25" fill="#E2E3E4"/><path d="M498.39 197.62c8.2.87 15.12 4.17 20.6 10.38 4.63 5.75 4.68 12.16 4.45 19.3-1.05 8.84-5.33 14.54-12.12 20.07-7.21 5.07-14.8 5.76-23.41 4.27-7.41-2.23-13.54-8.27-18.91-13.64-1.28-3.52-1.1-7.03-1.06-10.75l.03-3.54.03-2.71 2-1 .08 2.78.17 3.6.14 3.58.6 3.04c1.87 1.23 1.87 1.23 4 2l1.37 1.6c2.53 2.15 4.7 1.73 7.96 1.65l3.36-.04c3.17-.2 6.2-.62 9.32-1.21v-2h2l.82-1.68c1.18-2.32 1.18-2.32 2.73-4.6 2.5-4.7 1.95-9.53 1.45-14.72-1.45-4.7-3.86-7.34-7.88-10.03-3.86-1.76-7.92-1.87-12.12-1.97 4.19-5.2 8.09-4.58 14.39-4.38" fill="#ECCE57"/><path d="m416.81 178.63 2.52-.03c7.7 1.16 13.63 6.83 18.67 12.4 3.78 6.26 3.73 13.9 3 21a29.2 29.2 0 0 1-12.63 15.44c-6.2 2.76-13.94 2.75-20.3.44-6.26-3.82-9.27-8.91-11.07-15.87-.19-3-.19-3 0-5 2 3 2 3 3.43 5.56C402 215 402 215 405 217c4.18.6 7.91.44 11.81-1.2 6.02-4.99 8.5-10.78 9.55-18.4.23-4.37.13-7.42-2.67-10.9-3.6-3.35-5.5-4.77-10.38-4.63l-2.45.05-1.86.07c2.43-2.99 4-3.41 7.81-3.37" fill="#F0D45E"/><path d="m675.56 631.44 2.21.06q14.64.42 29.23 1.5v1l-1.73-.01c-132.4-.84-132.4-.84-185.98 3.73l-9.79.8a1084 1084 0 0 0-61.52 6.55 539 539 0 0 1-17.05 2.02c-65.67 7-65.67 7-80.93 20.9-.94 2.83-.94 2.83-1 5l-2-2c0-3.1 1.17-4.16 3.31-6.43 9.72-7.46 23-9.83 34.7-12.56l2.86-.7c66.1-15.57 137.3-18.37 205-19.86l2.83-.06c26.63-.58 53.24-.67 79.86.06" fill="#EFF1F0"/><path d="M612 484c-.57 2.87-.86 3.86-3 6l-3-2-2 2c-3.33.06-6.61-.13-9.93-.32-3.07.32-3.07.32-4.98 2.33L588 494l-4-2 1-3-1.61.8c-6.39 3.2-6.39 3.2-8.25 4.06-3.03 1.62-5.78 3.6-8.58 5.58-3.78 2.66-7.58 5.2-11.56 7.56-1.81 1.5-1.81 1.5-3 3v3h-7a81 81 0 0 0-6.69 4.25l-1.8 1.2c-4.34 3.02-4.34 3.02-5.24 5.8L531 526l-2.56.81a23 23 0 0 0-12.67 10.42L515 539l-2-1c1.32-5.88 4.1-8.44 8.56-12.12l2.02-1.7c11.63-9.66 24.18-17.81 37.12-25.58q5.96-3.6 11.8-7.41l3.39-2.17q2.96-1.92 5.88-3.91c10.29-6.77 18.71-3.86 30.23-1.11" fill="#EDEFEE"/><path d="M481 459c1 3 1 3 .25 5.5A16 16 0 0 1 477 470l-2-1-.62 3.19c-1.21 4.35-3.96 5.96-7.38 8.81-1.25 3.75-1.25 3.75-2 7l-2 1-1.31 2.56L460 494h-5c-1.69 2.44-1.69 2.44-3 5l-2 1-.44 1.94C449 504 449 504 446 506l-2 3h-2l-.76 2.1a67 67 0 0 1-5.12 9.34l-2.05 3.31A507 507 0 0 1 428 533l-1.62 2.75C425 538 425 538 423 540l-2.31 2.38c-7.02 6.85-15.58 12.2-25.64 12.74-7.29-.42-11.26-4.91-16.13-9.87A23 23 0 0 1 375 539l2-2 1.07 1.54c8.38 11.69 8.38 11.69 14.28 12.97 9.83.45 17.4-4.36 24.65-10.51l1.96-1.6c5.27-4.73 8.36-10.18 11.68-16.33A121 121 0 0 1 442 506l1.96-2.54a315 315 0 0 1 17.4-20c4.25-4.61 7.94-9.19 11.3-14.49 1.8-2.65 4.01-4.77 6.34-6.97z" fill="#DDDFE0"/><path d="M493 443c4.98.41 8.55 2.13 12.88 4.56l3.49 1.94L512 451c-.41 4.89-2.83 7.45-6.12 10.81l-4.53 4.76c-1.7 1.8-3.31 3.67-4.91 5.55-4.22 4.88-8.84 9.36-13.44 13.88-3.33-1.55-5.49-3.31-8-6l3-2c2.5.88 2.5.88 5 2h3a41 41 0 0 0 8-12h-3v-3l5-2 2 4v-4c1.38-2.75 1.38-2.75 3-5h2c1.62-1.5 1.62-1.5 3-3-4.62-4-4.62-4-8-4h-3l-.81 3.88c-.76 3.62-.89 3.92-4.19 6.12l-4-2-3 5-2-2a52 52 0 0 1 12-19" fill="#EEF0F2"/><path d="M469 220h1l.08 2.77.17 3.61.14 3.58.61 3.04c1.86 1.23 1.86 1.23 4 2l1.36 1.61c2.52 2.14 4.71 1.71 7.95 1.64l3.37-.05A73 73 0 0 0 497 237v-2h2l.81-1.75A42 42 0 0 1 504 227c.31 2.75.31 2.75 0 6-2.5 2.25-2.5 2.25-5 4v2h-2l-2 4h-2l-1 3 5-1 1 3 7-1c-.31 1.94-.31 1.94-1 4a29 29 0 0 1-19.88-.74c-5.01-2.98-13.69-8.29-15.74-13.97-.5-3.01-.51-5.92-.5-8.98l-.01-3.51c.13-2.8.13-2.8 1.13-3.8" fill="#D5D15C"/><path d="M759 302c6.78.97 10.29 4.29 15 9q2.39 1.92 4.81 3.81c6.86 5.42 12.65 11.46 18.19 18.19l2.44 2.44c4.5 4.5 8.36 9.04 11.56 14.56l1.94 2.19c2.39 3.26 3.57 6.47 4.98 10.24a51 51 0 0 0 5.13 8.98C824 373 824 373 824 375l1.78.75c2.53 1.42 3.93 2.96 5.78 5.19 3.3 3.93 3.3 3.93 4.99 5.53 1.77 1.87 2.86 3.83 4.07 6.09l1.29 2.38q1.07 2.02 2.09 4.06l-3 1-1.69-2.49c-11.53-16.92-11.53-16.92-17.82-22.89-2.69-2.83-4.32-5.54-6.11-9l-1.73-3.27C812 359 812 359 810.57 355.47 805.69 344.68 796.12 335.5 788 327l-2.34-2.47c-7.54-7.74-15.88-14.14-24.82-20.18L759 303z" fill="#E3E4E6"/><path d="M452 231c3.31 2.19 3.31 2.19 5 5 .31 2.5.31 2.5-1 5a64 64 0 0 1-5.99 3.73c-2.63 1.66-4.26 3.72-6.01 6.27l-5-1-.15-1.86-.23-2.45-.21-2.43C438 241 438 241 436 238c-.12-2.69-.12-2.69 0-5 4.98-2.98 10.38-2.75 16-2" fill="#67706C"/><path d="M482 640v1l-2.81.3C365.81 653.6 365.81 653.6 350 668c-.94 2.81-.94 2.81-1 5l-2-2c0-3.12 1.17-4.18 3.31-6.44 9.72-7.46 23-9.83 34.69-12.56l2.87-.69c18.76-4.42 37.77-6.86 56.88-9.25l3.85-.49 11.01-1.35 3.33-.42a70 70 0 0 1 19.06.2" fill="#E9E9EB"/><path d="M371 217h1l-.03 3.41c.14 11.48 2.32 19.67 8.03 29.59l1.7 2.99c4.14 6.84 9.06 12.99 14.3 19.01l1.64 1.89c7.98 8.6 18.68 15.43 29.36 20.11l-1 8-.81-1.81c-1.56-2.86-3.07-4.63-6-6.09a72 72 0 0 1-6.88-4.04l-2.38-1.52C408 287 408 287 407 284l-1.77-.44c-3.06-.77-4.65-2.39-6.98-4.5l-2.42-2.15C394 275 394 275 394 273l-1.8-.76c-2.52-1.42-3.65-2.79-5.33-5.13l-1.7-2.34-1.73-2.46-1.75-2.39A60 60 0 0 1 374 246c-2.79-5.79-2.79-5.79-4-7q-.01-2.46.12-4.91l.15-3 .17-3.15.16-3.17z" fill="#E8EAEA"/><path d="m436 514 2 3-4.25 7.12-1.2 2.02c-6.41 10.72-6.41 10.72-9.55 13.86l-2.31 2.38c-7.02 6.85-15.58 12.2-25.64 12.74-7.29-.42-11.26-4.91-16.13-9.87A23 23 0 0 1 375 539l2-2 1.07 1.54c8.38 11.69 8.38 11.69 14.28 12.97 9.83.45 17.4-4.36 24.65-10.51l1.96-1.6c5.97-5.35 9.43-11.91 13.16-18.89C434 517 434 517 436 514" fill="#DDDEE2"/><path d="M735 682v1l-5.81 1-3.27.56C723 685 723 685 720 685c-3.37.54-5.38 1.85-8 4l-2-4h-77v-1c14.23-.96 28.45-1.28 42.71-1.5l11.27-.19q24.01-.4 48.02-.31" fill="#ECEFEC"/><path d="M842 399h3l.95 2.01 1.3 2.68 1.27 2.63a21 21 0 0 0 3.49 5.07c2.35 3.08 3.35 5.93 4.55 9.61a55 55 0 0 0 5.44 12q.54 3 1 6l2 3q.4 2.86.72 5.74c.64 5.17 1.37 9.89 4.28 14.26h-4a52 52 0 0 1-3.29-10.67c-3.32-15.49-9.24-28.87-16.75-42.79l-1.55-2.88-1.4-2.58C842 401 842 401 842 399" fill="#E7E8EC"/><path d="M498.39 197.62c8.1.86 15.25 4.12 20.6 10.38 4 6.36 4 6.36 4 10h-3v-6h-2c-.15-.66-.15-.66-1-4h-3v-2h-2v-2h-4v-2h-2v4h-2v5l-1.41-1.24-1.9-1.63-1.85-1.62c-3.43-2.83-5.64-3.8-10.01-4.13l-2.73-.23-2.1-.15c4.2-5.2 8.1-4.58 14.4-4.38" fill="#E0C969"/><path d="m849 594 1.88 1.94L854 599l2.07 2.05C870.4 614.71 887.76 620.96 907 624c-4.94 3.29-10.3 1.81-16 1-13.93-3.26-27.14-11.9-37-22l-2.81-2.56C849 598 849 598 849 594" fill="#E9EAEB"/><path d="M422 298h3l-.02 2.67-.03 9.97-.03 4.29c-.06 11.3.19 22.09 3.08 33.07v4h-2c-2.82-6.64-4.24-12.37-3.97-19.57-.03-2.43-.03-2.43-.53-4.63-.89-4.96-.5-10.01-.37-15.03l.03-2.5.05-2.26C421 306 421 306 419 303c1.31-2.5 1.31-2.5 3-5" fill="#EDEDEF"/><path d="M829 540h1l.52 3.23c3.1 18.89 8.59 34.93 19.48 50.77l-2 2c-4.31-4.56-6.88-9.44-9.57-15.1-1.43-2.9-1.43-2.9-3.01-5.54C828.8 564.33 829 552.45 829 540" fill="#E4E5E7"/><path d="M871 520h2c1.76 3.09 2 4.23 2 8l-.5 1.75c-1.31 5.89-.6 10.7 1.5 16.25l.44 2.44c.94 4.31 1.94 8.5 5.75 11l1.81.56-1 2c-2.33-.21-2.33-.21-5-1-1.51-2.07-1.51-2.07-2.69-4.69l-1.2-2.57c-2.06-5.07-3.36-9.28-3.31-14.79l.02-3.36.06-3.47.02-3.53z" fill="#EAEBEE"/><path d="M827 488h1l.78 23.26.37 10.8.35 10.43.2 5.91.12 3.64.1 3.2q.1 3.38.08 6.76l-3-1a179 179 0 0 1-1.13-22.32l-.01-3.44.01-7.16q.01-5.5-.01-11l.01-6.96-.01-3.33.01-3.06v-2.7C826 489 826 489 827 488" fill="#EAECEF"/><path d="M503 227h1c.31 2.75.31 2.75 0 6-2.5 2.25-2.5 2.25-5 4v2h-2l-2 4h-2l-1 3h4v2h-13l-1-2h2l1-5 2.81-.88C491 239 491 239 494 237h3v-2h2l.88-1.75z" fill="#E2C353"/><path d="M588 173h2c-.42 3.5-.88 6.67-2.06 10-1.09 3.47-1.01 6.38-.94 10a76 76 0 0 1-1 5l-.44 2.56C585 203 585 203 584 204.94c-1 2.06-1 2.06-1.5 5.25L582 213l-2 1c-.34-8.05.96-15.54 2.44-23.44l.69-3.87c1.72-9.39 1.72-9.39 2.87-11.69h2z" fill="#EAEAE8"/><path d="M822 465a30 30 0 0 1 5.12 9.25l1.01 2.7c2.05 7.21 2.05 14.49 2.06 21.93l.03 2.87.01 2.74.01 2.48C830 509 830 509 828 511l-.03-1.86c-.24-12.9-1.12-24.79-4.97-37.14l-3 1c.88-6.88.88-6.88 2-8" fill="#D6D7D9"/><path d="M651 683v1h-18v2a2779 2779 0 0 1-17.27.65c-9.68.38-19.08.27-28.73-.65v-1c21.36-1.32 42.59-2.36 64-2" fill="#E3E5E3"/><path d="M510 204h2v2h2v2h3l1 4h-2v-2c-3.16 2.11-3.45 2.51-4.56 5.88A53 53 0 0 1 508 224h-2v-16h4z" fill="#E4C849"/><path d="M371 217h1l-.03 3.41c.14 11.5 2.43 19.62 8.03 29.59l1.57 2.93q1.67 3.06 3.43 6.07l-2 2-3.38-4.69-1.89-2.63A37 37 0 0 1 374 246c-2.78-5.78-2.78-5.78-4-7q-.01-2.46.12-4.91l.15-3 .17-3.15.16-3.17z" fill="#E5E7E4"/><path d="M879 562c4.75.67 6.4 3.6 9.22 7.19 1.98 2.02 3.01 2.46 5.78 2.81h3l1.62 1.75c3.33 3.15 7.17 4.56 11.38 6.25v2c-11.24-1.41-20.78-6.15-28-15-1.94-2.94-1.94-2.94-3-5" fill="#ECEDF0"/><path d="M404 219q2.43-.05 4.88-.06l2.74-.04c2.38.1 2.38.1 4.38 1.1v2h-2v3l7 1v2q-3.16.08-6.31.12l-3.55.08C408 228 408 228 405 226c-.69-3.62-.69-3.62-1-7" fill="#F5DF56"/><path d="m783 612 1 2h2q-.43 2.6-.88 5.19l-.49 2.92A42 42 0 0 1 782 630l-1.44 3.5A50 50 0 0 1 776 642h-2c.4-3.8 1.34-7.01 2.81-10.5 2.65-6.33 4.4-12.89 6.19-19.5" fill="#E0DFE0"/><path d="M592 132h1l-.04 2.92-.02 3.83-.04 3.8c.1 3.45.1 3.45.66 5.68.66 2.66-.3 4.85-1.02 7.42a50 50 0 0 0-.98 7.97c-.34 4.54-1.17 7.53-3.56 11.38h-2l.43-2.97 1.76-12.59.33-2.39 1.04-7.49.71-5.1z" fill="#C9C8C6"/><path d="M428 350c2.33 3.49 3.18 6.95 4.25 10.94a78 78 0 0 0 7.71 18.64c1.16 2.7 1.1 3.74.04 6.42v-3h-2a64 64 0 0 1-8-17l-1.56-4.62L427 357l-.71-2.09C426 353 426 353 428 350" fill="#E1E1E3"/><path d="M477 244h5l1 3 13 1 1-3 1 3 7-1c-.31 1.94-.31 1.94-1 4a29 29 0 0 1-20.27-1c-2.77-1.6-4.64-3.59-6.73-6" fill="#D1BA5A"/><path d="m858 430 3 1c.88 2.07.88 2.07 1.56 4.69l.75 2.77.69 2.54 1.06 2.88c1.23 4.08 1.78 8.2 2.38 12.41C868 459 868 459 870 462h-4c-1.94-4.37-2.97-8.79-4-13.44-.9-4.02-1.79-7.94-3.12-11.85C858 434 858 434 858 430" fill="#EAEBEE"/><path d="M989 557c2.75.81 2.75.81 5 2l-1.66.83q-3.88 1.96-7.73 3.96l-6.42 3.27-3.24 1.68c-5.36 2.73-9.9 4.98-15.95 5.26 2.41-2.74 4.88-4.07 8.18-5.59l3.06-1.44 3.2-1.47 6.24-2.91 2.8-1.29c2.52-1.3 2.52-1.3 4.68-3.01z" fill="#E5E6E8"/><path d="m452 569 2.15.87c8.99 3.57 17.14 5.79 26.85 6.13v2q-4.4.08-8.81.12l-2.53.06-2.43.02-2.24.03C463 578 463 578 460 576l-3.56-.44L453 575l-2-3z" fill="#F2F3F5"/><path d="M478 486h5q-5.02 5.99-10.36 11.69A191 191 0 0 0 458 515l-1-3c1.52-2.31 1.52-2.31 3.81-5l2.49-2.94a434 434 0 0 1 10.63-11.65A23 23 0 0 0 478 486" fill="#D7DADB"/><path d="M554 102c-1.46 4.39-4.68 5.93-8.35 8.57a67 67 0 0 0-7.9 6.55c-3.03 2.07-3.65 2.1-7.13 1.69L527 118v-3l2.62.19c3.88-.22 6.03-1.3 9.38-3.19l2.25-.94C543 110 543 110 544 108c1.27-2.53 2.44-2.91 5-4 3-2 3-2 5-2" fill="#DEDDDF"/><path d="m509 450 3 1c-.39 5.01-3.02 7.68-6.38 11.12l-1.5 1.59q-3.5 3.7-7.12 7.29l.5-1.75c.5-2.25.5-2.25.5-6.25 1.38-2.75 1.38-2.75 3-5h2l1.44-1.44C506 455 506 455 509 454z" fill="#ECEEF0"/><path d="m596 113 3 3-.96 2.56c-1.09 3.6-1.41 6.75-1.6 10.5-.33 6.15-1.01 11.27-3.44 16.94h-1c.84-23.53.84-23.53 4-33" fill="#E0DFDE"/><path d="M650 249c3.27.9 6.48 1.79 9.62 3.06 2.47.98 4.77 1.48 7.38 1.94l5 1 1 5c-5.41-.61-9.92-2.44-14.88-4.56l-2.37-1L650 252z" fill="#EAEAEC"/><path d="M759 302c6.78.97 10.29 4.29 15 9q3.81 3.11 7.7 6.13c1.9 1.54 3.62 3.1 5.3 4.87l-1 3-1.18-1.25c-7.24-7.47-15.38-13.59-23.98-19.4L759 303z" fill="#E4E5E5"/><path d="M397 99h2c-.51 10.19-2.09 19.99-4 30h-1c-1.18-10.73-1.18-19.96 3-30" fill="#E0E2E2"/><path d="m714.88 681.9 3.54.01 3.7.03 3.73.01 9.15.05v1l-5.82 1-3.26.56C723 685 723 685 720 685c-3.37.54-5.38 1.84-8 4l-.82-1.88C710 685 710 685 707 683c2.71-1.36 4.85-1.1 7.88-1.1" fill="#F3F1F6"/><path d="M631 498q3.63 7.25 7.12 14.56l1.42 2.91 1.34 2.78 1.23 2.55c.89 2.2.89 2.2.89 5.2-4.2-4.09-6.89-7.54-9-13l-1.11-2.5-1.08-2.5-1.1-2.5c-.82-2.89-.51-4.64.29-7.5" fill="#E0DFE0"/><path d="M575 85c-.38 2.54-.72 3.74-2.63 5.52l-2.08 1.43-2.27 1.57-2.4 1.6-2.36 1.63A833 833 0 0 1 554 103v-4c3.04-2.95 6.46-4.83 10.16-6.85 2.72-1.7 5.01-3.81 7.36-5.98C573 85 573 85 575 85" fill="#E3E3E5"/><path d="M481 459c1 3 1 3 .25 5.5A16 16 0 0 1 477 470l-2-1-.5 3.12c-1.37 5.03-5.29 7.21-9.5 9.88l-2-1 1.39-1.54a86 86 0 0 0 7.73-9.65c2.01-3 4.3-5.3 6.88-7.81z" fill="#DFE2E1"/><path d="M393 122h1c.34 11.32-1.04 19.82-6 30l-3-3 .84-1.47c2.68-4.96 3.67-8.92 4.16-14.53l1-1q.58-2.52 1.06-5.06z" fill="#E1E2E5"/><path d="M443 74c4 0 4 0 5.7 1.53l3.13 3.94L453 81l-1 2-2-1-2 2-1-1-2 2c-2.99-4.58-2.99-4.58-4-7 .75-2.44.75-2.44 2-4" fill="#0E0E0C"/><path d="M419.5 178.7c4.8.57 8.37 2.66 11.5 6.3h-3c-2 1-2 1-3 3l-1.22-1.31c-3.48-3.41-5.73-5.11-10.72-5.06q-2.03.13-4.06.37c3.1-3.81 5.84-3.43 10.5-3.3" fill="#D9C967"/><path d="M397 207c2 3 2 3 3.44 5.56C402 215 402 215 405 217c2.12.23 2.12.23 4.44.19l2.31-.02A31 31 0 0 0 418 216v2h-2v2l-12-1v4l2 1h-3c-4.11-5.23-6.39-10.3-6-17" fill="#CFC16B"/><path d="m719 624 2 1c-3.39 8.13-3.39 8.13-7.34 10.27-2.21.71-4.38 1.3-6.66 1.73v-2h-19v-1l1.96-.06 8.79-.32 3.08-.09 2.97-.12 2.73-.09c2.63-.34 4.25-.89 6.47-2.32a104 104 0 0 0 4-6z" fill="#DADAD8"/><path d="M726 621c.89 2.46 1.16 3.6.18 6.07-4.33 6.82-4.33 6.82-9.18 7.93l-1-2c2.02-5.55 5.47-8.5 10-12" fill="#060808"/><path d="M497 570c-.56 1.81-.56 1.81-2 4-3.88 1.98-7.66 3.5-12 4l-2-1q-3.06-.34-6.12-.56l-3.33-.26L469 576v-1l2.68-.08c7.29-.34 13.37-1.24 20.11-4.08C494 570 494 570 497 570" fill="#EBECEE"/><path d="M519 200h3l-1 7 3 1v12c-1-2-2-4-2.93-6.04-1.88-4.04-3.31-6.41-7.07-8.96v-3h3l1 4h2v-4l-2-1z" fill="#1F180A"/><path d="M831 487h1l1 14h-2v4h2v2h-2l.29 2.96.33 3.85.36 3.83C832 521 832 521 830 524l-.05-15.33-.03-5.21-.02-7.49-.01-2.37q.01-2.8.11-5.6z" fill="#030508"/><path d="m465 481 2 2c-1.75 4.88-1.75 4.88-4 6a110 110 0 0 0-3 5l-5-1 1.81-2.12c2.19-2.88 2.19-2.88 3.75-6.13C462 482 462 482 465 481" fill="#F2F2F4"/><path d="m370 206 2 1Zm-1 1h1c2.36 8.29 2.36 16.52 1 25l-2 1c-1-6-1.96-12.12 0-18a561 561 0 0 0-1-7z" fill="#F3F5F3"/><path d="M401 74h1c.46 8.61-1.27 16.61-3 25h-2a94 94 0 0 1-1-5l1-1q.55-3.4 1-6.81c1.41-10.6 1.41-10.6 3-12.19" fill="#EBEEEB"/><path d="M827 522h1l2 30-3-1c-1.22-9.66-1.81-19.39 0-29" fill="#F4F5F8"/><path d="M810 353h4l.95 2.38c3.92 9.62 3.92 9.62 6.43 13.62 1.62 3 1.62 3 1.22 5.19L822 376l-6-10-1.22-2.01A47 47 0 0 1 810 353" fill="#D5DAD8"/><path d="M595 93c3 3 3 3 3.34 4.9l-.05 2.11-.03 2.3-.07 2.38-.04 2.41q-.06 2.95-.15 5.9h-2l-1 3z" fill="#D9DCD9"/><path d="M374 191c1.99 2.81 2.08 4.82 1.69 8.12C375 203 375 203 374 205c-.27 2.33-.45 4.66-.62 7l-.38 2-2 1c-3.04-6.08.24-13.94 2-20z" fill="#EAEAED"/><path d="m470 239 1.47 1.14c7.92 6.05 14.77 10.4 24.53 12.86v1c-7.09.52-13.23-.76-18.76-5.51C476 247 476 247 476 245l-4-1v-2h-2z" fill="#1B1406"/><path d="M444 231c7.24-.36 7.24-.36 10.5 1.19 1.5 1.81 1.5 1.81 1.75 4.5L456 239l-4 1v-2h-3l-1-6z" fill="#7A837F"/><path d="M591 130h1c.31 8.85-.19 18.56-3 27h-2q.42-5.07.88-10.12l.23-2.89c.45-4.94 1.03-9.34 2.89-13.99" fill="#0A0909"/><path d="m400 221 1.68 1.28 2.2 1.66 2.17 1.65A19 19 0 0 0 410 228v2h12v1q-2.9.37-5.81.69l-3.27.38c-2.92-.07-2.92-.07-4.58-1.57L407 229c-3.69.31-3.69.31-7 1v-4h2v-2h-2z" fill="#140B0B"/><path d="M426 184c6.88 1.88 6.88 1.88 8 3q.06 2.5 0 5l-6 1a135 135 0 0 1-3-7z" fill="#F2E160"/><path d="M795 537c2 3 2 3 2 5l4 2-3 3-2-1v4l-3 2-2 3c.69-6.19 2.28-12.02 4-18" fill="#E0E1E4"/><path d="M471 214c1.04 3.13 1.1 5.47 1.19 8.75.43 6.12 2.23 9.27 6.81 13.25l-2 2c-3.87-2.27-5.59-3.65-6.91-8.02-1.04-6.02-1.39-10.21.91-15.98" fill="#36331C"/><path d="m911 579 3.94.5c4.1.47 8.09.55 12.21.44C929 580 929 580 931 581v2l-8.25.06-2.36.03-2.28.01-2.1.01A27 27 0 0 1 910 582z" fill="#F2F2F4"/><path d="M808 503c2 3 2 3 1.75 5.88-.7 2.9-1.38 5.46-2.75 8.12l-3 1-1 5h-2a172 172 0 0 1 7-20" fill="#DCDDDE"/><path d="M829 540h1l.59 3.4A376 376 0 0 0 835 566c-3-1-3-1-4.06-2.56-2.08-5.4-3.37-9.73-1.94-15.44.1-2.67.05-5.32 0-8" fill="#D9DADD"/><path d="m1010 557 1 3-2.01-.5c-3.62-.61-7.15-.61-10.8-.56l-2.1.01-5.09.05c3.33-6.66 13.48-4.56 19-2" fill="#F0F1F1"/><path d="M420 51c5.99 1.31 9.03 4.61 13 9l-2 1-2-1-1 2-1-3-2.44-.81C422 57 422 57 420.69 53.88z" fill="#070505"/><path d="M434 59c3.84 1.51 5.49 3.8 8 7l5 4a42 42 0 0 1 3 4l-1 2c-5.46-4.54-10.77-9.25-15-15z" fill="#E5E4E5"/><path d="m783 612 1 2h2q-.3 2.65-.69 5.31l-.38 2.99C784 625 784 625 779 628z" fill="#DDD"/><path d="M786 600h3l-.44 5.88-.24 3.3C788 612 788 612 787 614h-3l.44-5.88.24-3.3C785 602 785 602 786 600" fill="#ECEEEF"/><path d="M904 625h26v1l-2.34.15-3.04.23-3.02.21c-2.6.41-2.6.41-4.6 2.41-4.76-.31-8.65-.96-13-3z" fill="#D8D9DB"/><path d="M938 625v2c-3.19 1.06-5.97 1.39-9.31 1.69l-3.37.32c-3.52-.01-6.06-.72-9.32-2.01v-1c7.34-.58 14.63-1.15 22-1" fill="#F1F1F4"/><path d="M442 554c2.91 3.53 5.48 7.18 8 11q1.48 2.01 3 4h-4c-1.55-1.67-1.55-1.67-3-4l-1.61-2.58-1.58-2.67-1.6-2.7L440 555z" fill="#E6E6E8"/><path d="m403 185 1 2c-.96 1.78-.96 1.78-2.38 3.94-2.74 4.64-3.24 8.53-3.38 13.87L398 207l-2 1c-.42-7.25.56-13.17 3-20h2z" fill="#3F423B"/><path d="M726 675h19l-1 5c-5.75.12-5.75.12-8-1v-2l-10-1z" fill="#96979A"/><path d="M998 604c-3.87 3.39-8.1 6.33-13 8l-3-1h2l1-3c1.93-1.42 1.93-1.42 4.31-2.75l2.37-1.36c2.62-1.01 3.73-.86 6.32.11" fill="#E8E8EC"/><path d="M469 220h1l.15 2.81.23 3.63.21 3.62.41 2.94 2 1h-2v5c-2-1-2-1-2.62-2.64a55 55 0 0 1-.5-9.05l-.01-3.51c.13-2.8.13-2.8 1.13-3.8" fill="#9B9D53"/><path d="M441 67a55 55 0 0 1 3 5l-4 4c-3-3.75-3-3.75-3-6h-2v-2c2.08-.55 3.84-1 6-1" fill="#0A0909"/><path d="M422 298h3v11h-2l-4-6c1.31-2.5 1.31-2.5 3-5" fill="#F4F4F6"/><path d="M434 188c4 3.49 5.63 5.65 6 11l-2 1-1-4-3 1v-3h-2v-2h2z" fill="#E4D267"/><path d="M871 520h2c2.11 3.7 2.42 6.37 1.34 10.58l-.84 2.67-.84 2.7L872 538h-1z" fill="#F4F5F6"/><path d="M477 240h9v3h-2v3l-7-2z" fill="#EDDF66"/><path d="M420 49c4.07.53 6.22 1.63 9.25 4.38l2.08 1.83C433 57 433 57 434 60c-3.91-1.65-6.76-4.3-10-7-2.38-1.31-2.38-1.31-4-2z" fill="#CCC9CC"/><path d="m989 557 5 2a222 222 0 0 1-9.75 4.62l-2.98 1.36L979 566v-3l1.93-1.06 2.51-1.38 2.49-1.37C988 558 988 558 989 557" fill="#DCDDE0"/><path d="M511 202c5.88 3.77 9.7 7.29 12 14v2h-3v-6h-2l-1-4h-3v-2h-2z" fill="#CBB961"/><path d="M724 610h3c.6 6.99.6 6.99-1.11 9.87A72 72 0 0 1 722 624l-2-1 1.44-2.06A22 22 0 0 0 724 610" fill="#EBECEE"/><path d="M518 236h2c-1.37 4.28-3.21 6.43-6.62 9.31l-2.48 2.12L509 249l-1-3h2v-2h2v-2h2v-2h2v-2h2z" fill="#D1C366"/><path d="M395 112h2l-2 17h-1q-.33-2.84-.62-5.69l-.36-3.2c-.02-3.25.57-5.21 1.98-8.11" fill="#D0D2D3"/><path d="m485 105 2 1v2l3 1c-4.69-.57-9.35-1.19-14-2v-3c3.21-1.61 5.71-.06 9 1" fill="#DADADA"/><path d="m376 537 1.56 2.06A130 130 0 0 0 387 549l-2 2q-1.95-1.87-3.88-3.75l-2.17-2.11c-1.83-2.01-3.02-3.6-3.95-6.14z" fill="#CFD1D2"/><path d="m436 514 2 3a337 337 0 0 1-2.75 4.88l-1.55 2.74c-1.76 2.46-2.91 3.32-5.7 4.38a58 58 0 0 1 5.12-10.31l1.64-2.68z" fill="#D4D6D7"/><path d="M503 227h1c.37 5.48.37 5.48-1.31 7.88C501 236 501 236 498 236v2l-6 2-1-2 6-1v-2h2l.88-1.75z" fill="#C4AF5B"/><path d="M579 210a49 49 0 0 1 2.88 6.56c1.28 2.79 2.65 3.71 5.12 5.44v2c-6.89-2.49-6.89-2.49-9-5-.03-3.07.42-5.99 1-9" fill="#D4D4D2"/><path d="m866 462 4 1c.24 4.82-.55 8.46-2 13h-1z" fill="#D9D9DA"/><path d="M428 224c-.31 1.94-.31 1.94-1 4-3.29 1.1-5.74 1.1-9.19 1.06l-3.29-.02L412 229v-1h9v-2c3-2 3-2 7-2" fill="#E6D672"/><path d="M831 565c1.81.06 1.81.06 4 1 2.19 4.07 3.42 7.36 3 12-3.89-3.24-4.83-6.15-6-11z" fill="#E8EAEA"/><path d="M654 541a24 24 0 0 1 7.75 5.5l1.86 1.84C665 550 665 550 665 552l-3 1z" fill="#ECEBEC"/><path d="m438 391-1 8c-1.56-1.25-1.56-1.25-3-3 .19-2.12.19-2.12 1-4 2-1 2-1 3-1m-7 6 3 3-3 2-2-3z" fill="#F2F2F4"/><path d="M879 562c3.77.55 5.31 2.02 7.75 4.88l1.86 2.11C890 571 890 571 890 574c-4.56-3.61-8.02-6.99-11-12" fill="#D6D6D8"/><path d="M371 217h1q.34 4.9.62 9.81l.2 2.82.16 2.7.16 2.49C373 237 373 237 371 240c-1-1-1-1-1.02-3.13l.14-2.78.15-3 .17-3.15.16-3.17z" fill="#C8C8C7"/><path d="m429 226 1 4h-20v-2l2.89.07 3.8.05 3.76.08c3.36-.19 5.55-.74 8.55-2.2" fill="#382E0F"/><path d="M495 198v2c-3.09 2.06-3.71 2.24-7.19 2.12L484 202c3.34-4.28 5.71-4.41 11-4" fill="#D1CA6E"/><path d="m417.19 178.88 2.73.05q1.03.04 2.08.06v4l-4.81-.43q-1.35-.11-2.71-.25C412 182 412 182 409 181c3.32-2.2 4.35-2.22 8.19-2.12" fill="#A29B6C"/><path d="m534 114 3 1-2 4-8-1v-3l2.94.06C533 115 533 115 534 114" fill="#D4D4D6"/><path d="m576 87 3 2c-3.62 3-3.62 3-7 3v2l-4 1c.06-1.75.06-1.75 1-4 2.24-1.6 4.54-2.75 7-4" fill="#232426"/><path d="M791 560h1c2.43 8.01 2.43 8.01.69 12.06L791 574h-1q-.04-2.37-.06-4.75l-.04-2.67c.09-2.36.43-4.32 1.1-6.58" fill="#F6F6FB"/><path d="M631 498a311 311 0 0 1 4.19 8.62l1.1 2.36.71 2.02-1 2c-3.27-2.18-3.59-2.81-4.75-6.38l-.8-2.33c-.49-2.48-.25-3.92.55-6.29" fill="#D8D7DA"/><path d="M455 643v1l-18 2 2-1v-2c5.58-1.07 10.39-.83 16 0" fill="#E4E4E7"/><path d="m443 505 3 1-2 3h-2l-.81 2.38C440 514 440 514 437 516c.44-5.04 2.71-7.38 6-11" fill="#E4E4E7"/><path d="M495 463c1.56 1.19 1.56 1.19 3 3-.31 2.69-.31 2.69-1 5l-1.31-1.5C494 468 494 468 491 468v-3z" fill="#F3F6F5"/><path d="M435 372a40 40 0 0 1 6 10c-.31 2.38-.31 2.38-1 4v-3h-2c-1.99-2.87-3.52-5.52-4-9z" fill="#D7D7DA"/><path d="M587 222c4.19.67 7.4 2.86 11 5l-1 2a57 57 0 0 1-10-4z" fill="#EAEBEC"/><path d="M398 480c.75 1.62.75 1.62 1 4-1.75 3.25-1.75 3.25-4 6h-3c1.37-4 3.26-6.8 6-10" fill="#EDF0F1"/><path d="m421 432 2 1a70 70 0 0 1-5 12l-2-1a70 70 0 0 1 5-12" fill="#DBDBDD"/><path d="M397 207c6.13 9.2 6.13 9.2 5.56 12.62L402 222a19.8 19.8 0 0 1-5-15" fill="#C7C385"/><path d="M493 200h12l-3 1v3h-4v-2h-6z" fill="#EFD960"/><path d="M868 480h1l.38 2.75c.62 3.25.62 3.25 1.71 5.16 1.17 2.69.78 4.04.03 6.84l-.61 2.42L870 499h-1z" fill="#D1D3D5"/><path d="M484.19 238.94h2.27l5.54.06v1h-15l-1 4-3-2v-2c3.77-1.25 7.27-1.1 11.19-1.06" fill="#D9CF7C"/><path d="m381 172 3 1c.31 2.75.31 2.75 0 6-2.5 2.38-2.5 2.38-5 4 1-7.43 1-7.43 2-11" fill="#2E2C30"/><path d="m593 132 2 1c1.07 4.21 1.26 6.39-.44 10.44L593 146h-1z" fill="#F3F6F1"/><path d="m557 100 2 2-1.5 1.31C556 105 556 105 556 108l-6-1z" fill="#18181B"/><path d="m786 558 4 2v8c-2-1.62-2-1.62-4-4-.25-3.25-.25-3.25 0-6" fill="#1C1C1C"/><path d="m505.56 448.94 2.44.06 1 5c-3 0-3 0-5.19-2l-1.8-2c1-1 1-1 3.55-1.06" fill="#F2F4F8"/><path d="m487 575-4 3-2-1q-3.06-.34-6.12-.56l-3.33-.26L469 576v-1q3.38-.3 6.75-.56l3.8-.32c2.84-.1 4.79-.03 7.45.88" fill="#BABBBD"/><path d="m513 534 1 2c-.78 2.16-.78 2.16-1.94 4.62l-1.15 2.48-.91 1.9h-3a25.4 25.4 0 0 1 6-11" fill="#D7D8DA"/><path d="m519 530 2 2-7 7c-1-3-1-3 .25-5.62C516 531 516 531 519 530" fill="#F0F0F2"/><path d="M853 420c3 1 3 1 4.17 3.07l1.02 2.49 1.04 2.51.77 1.93h-2l-1 2a711 711 0 0 1-3.12-7.62C853 422 853 422 853 420" fill="#DFDFE2"/><path d="M435 406h2v5l-3 1v2l-3 1c1.06-3.4 2.01-6.01 4-9" fill="#141416"/><path d="M486 240h6v2l-6 1zm-2 3h2l-1 5-3-1 2-1z" fill="#E1CD59"/><path d="m406 221 3 2v3h3v2c-2.88-.19-2.88-.19-6-1-1.38-2.56-1.38-2.56-2-5z" fill="#E5D264"/><path d="M423 205h2c-1.28 5.96-4.34 8.48-9 12v-3h2v-2h2v-2h2z" fill="#2D220C"/><path d="M393 122h1v12h-4z" fill="#EAEBEC"/><path d="M408 60h1v8h-1zm-3 7 3 1v4h-3l-1 3z" fill="#070907"/><path d="m961 620-1 2c-1.78.48-1.78.48-3.94.75l-2.15.3C952 623 952 623 950 621c7.43-2.43 7.43-2.43 11-1" fill="#D3D4D4"/><path d="M787 588h1q.62 2.4 1.19 4.81l.67 2.71c.14 2.48.14 2.48-1.31 4.3L787 601c-1.3-4.61-.71-8.34 0-13" fill="#D9DBDD"/><path d="m574 490 1 3c-2.25 2.06-2.25 2.06-5 4-2.31-.25-2.31-.25-4-1 2.62-2.12 5.2-4.13 8-6" fill="#E2E5E3"/><path d="M777 316c4.83.41 6.83 2.46 10 6l-1 3z" fill="#CECECF"/><path d="m421 292 6 2-1 8-.81-1.75C424 298 424 298 422.38 295.88 421 294 421 294 421 292" fill="#DFE0E1"/><path d="M404 219h10l-2 1v2h-8z" fill="#F5E774"/><path d="m460 573 9 2-3 3c-2.06-.06-2.06-.06-4-1z" fill="#E8E9EA"/><path d="M829 540h1c.99 5.71 1.1 11.21 1 17l-3-2 .5-3c.58-4.03.57-7.93.5-12" fill="#C7C7CB"/><path d="M507 545h2l1 9-3 1z" fill="#EEF1F3"/><path d="m430 527 1 2-6 9-2-1c4.14-7.57 4.14-7.57 7-10" fill="#E6E7EB"/><path d="m439 243 5 2-2 1c-.62 2.06-.62 2.06-1 4l3 1-5-1z" fill="#5C6161"/><path d="M782 625c.81 1.69.81 1.69 1 4-2.44 2.75-2.44 2.75-5 5l-1-2a27 27 0 0 1 5-7" fill="#ECECED"/><path d="m719 624 2 1-4 8h-3c1.09-3.78 1.91-6.47 5-9" fill="#E0E1E2"/><path d="M844 586c2.12 2.62 4.13 5.2 6 8l-2 2c-3.94-4.31-3.94-4.31-4.25-7.81z" fill="#DBDBDF"/><path d="M1020 569h2l.06 4.38.04 2.46c-.1 2.16-.1 2.16-1.1 4.16h-2z" fill="#EBEBEF"/><path d="M435 398c1.6 4 .29 7.05-1 11l-2-1 .94-4.44.52-2.49C434 399 434 399 435 398" fill="#E2E2E3"/><path d="M422 320h2v11c-3-3-3-3-3.07-5.04z" fill="#F4F4F6"/><path d="M583 189a28 28 0 0 1 3 9l-4 2z" fill="#E4E4E6"/><path d="m586 183 2 2c-.31 2.38-.31 2.38-1 5l-.56 2.31L586 194l-2-1c-.18-3.95-.09-6.6 2-10" fill="#F5F5F4"/><path d="m591 148 3 2-3 10h-1l-.06-4.31-.04-2.43c.1-2.26.1-2.26 1.1-5.26" fill="#F1F1EF"/><path d="m983 609 1 2h-2v2c-3.64 2.43-5.71 2.16-10 2a60 60 0 0 1 7.19-4.12l2.17-1.08z" fill="#D9DBDA"/><path d="m996 597 4 2c-4.75 3.88-4.75 3.88-7 5l-2-2z" fill="#1A1C1F"/><path d="m1011 589 3 2c-3.15 2.72-4.87 3.97-9 5z" fill="#DADADE"/><path d="M789 568h1l1 5 2-1c-.31 2.38-.31 2.38-1 5l-3 2z" fill="#D8D8DA"/><path d="m515 528 2 3-6 5c-.25-2.31-.25-2.31 0-5 2-1.81 2-1.81 4-3" fill="#1C1D1F"/><path d="M551 506c.69 2.49 1 4.38 1 7h-3c-.69-1.81-.69-1.81-1-4 1.44-1.75 1.44-1.75 3-3" fill="#F2F4F4"/><path d="M710 270a12 12 0 0 1 3 3c-3 2-3 2-5.12 1.81L706 274l-1-3c2.31-.69 2.31-.69 5-1" fill="#F0F1F5"/><path d="m682 261 1.81.94A29 29 0 0 0 689 264v2l-7-1z" fill="#EAE9ED"/><path d="M372 237c3.09 2.53 3.91 5.22 5 9l-4-1c-.83-2.89-1-4.89-1-8" fill="#E0DEDD"/><path d="M435 221c-4.75 4.88-4.75 4.88-7 6v-3h2l-1-3c2.49-1.25 3.41-.78 6 0" fill="#DAC558"/><path d="M494 202v1l-2.05.11-2.7.2-2.67.18c-2.9.57-4.37 1.59-6.58 3.51l-2-1c4.47-6.32 8.82-5.27 16-4" fill="#686451"/><path d="M983 604h7l-1 3c-3 1-3 1-6 0z" fill="#19181F"/><path d="m906.19 578.38 2.8.62 1 3-10-2c3-2 3-2 6.2-1.62" fill="#DDDDDE"/><path d="M442 554c2.25 2.69 3.88 4.65 5 8h-3l-4-7z" fill="#D2D2D3"/><path d="M494 474c1 2 1 2 .44 4-2.01 2.8-4.18 3.15-7.44 4l2.94-3.44 1.65-1.93q1.16-1.36 2.41-2.63" fill="#2E302F"/><path d="M822 465c1.56 1.81 1.56 1.81 3 4l-1 3c-2.06.69-2.06.69-4 1 .88-6.88.88-6.88 2-8" fill="#D7D7D8"/><path d="M650 249c6.75 1.75 6.75 1.75 9 4-2.79 1.03-3.87 1.05-6.75.06L650 252z" fill="#E3E4E6"/><path d="M436 238c1.5 1 1.5 1 3 3 .27 2.72.13 5.26 0 8-2-3.75-2-3.75-2-6h-2z" fill="#202324"/><path d="M374 191c2.83 4 1.76 7.43 1 12-2.45-3.67-2.24-5.67-2-10z" fill="#DFDFE0"/><path d="m797 535 3 2c-.81 2.44-.81 2.44-2 5l-3 1c.88-6.88.88-6.88 2-8" fill="#F4F6F9"/><path d="m628 492 2 1c.41 2.07.41 2.07.62 4.56l.23 2.51.15 1.93c-1.49-1.27-1.49-1.27-3-3-.19-3.69-.19-3.69 0-7" fill="#EDEFEF"/><path d="M865 454c2.72 2.35 3.81 4.62 5 8h-4c-1.35-2.71-1.07-5.01-1-8" fill="#F2F3F4"/><path d="M759 302c4.31.48 6.17 1.75 9 5-4.01 0-5.82-1.67-9-4z" fill="#D9D8D8"/><path d="M477 244h5l1 3a23 23 0 0 0 4 2l-3 1c-1.82-.96-1.82-.96-3.69-2.38l-1.88-1.39L477 245z" fill="#C6B866"/><path d="M494 231h2l-1 2zm0 2 2 3v-2l3 1h-2v2l-5 1v-4z" fill="#332614"/><path d="M594 98h1v12l-3-3c.14-2.26.14-2.26.81-4.69l.65-2.45z" fill="#040603"/><path d="m354 665-.94 1.75c-.99 2.09-1.58 4-2.06 6.25h-2c-.37-4.52-.37-4.52 1.38-6.81C352 665 352 665 354 665" fill="#CFD2D1"/><path d="M788 565h1v9l-3 1c-.18-3.95-.09-6.6 2-10" fill="#0C0C0C"/><path d="m627 487 3 1 1 8c-2.25-2.69-3.88-4.65-5-8z" fill="#C8CCC8"/><path d="m374 206 2 1-.44 2.12q-.85 4.43-1.56 8.88h-1l-.06-4.31-.04-2.43c.1-2.26.1-2.26 1.1-5.26" fill="#09070B"/><path d="M426 184q3.53.9 7 2l1 2h-6v-2l-3-1z" fill="#EDDD6D"/><path d="M593 86c2.8 2.53 4.46 4.2 5 8l-4-1z" fill="#EEEEED"/><path d="M420 49c3.69.5 5.6 1.1 8 4l-2 1a96 96 0 0 1-6-3z" fill="#D5D4D6"/><path d="m898 623 9 1c-3.44 2.29-4.99 2.18-9 2z" fill="#E2E3E7"/><path d="m378 510 2 4-5 3c1.88-5.88 1.88-5.88 3-7" fill="#232525"/><path d="m812 499 2 1c-1.37 3.16-1.99 3.99-5 6 .75-4.75.75-4.75 3-7" fill="#F2F5F4"/><path d="M705 442c.69 1.69.69 1.69 1 4-1.31 2.75-1.31 2.75-3 5h-2v-3h2z" fill="#080B09"/><path d="M518 236h2c-1.48 4.68-1.48 4.68-4.12 6.31L514 243v-3h2v-2h2z" fill="#DCCD6A"/><path d="M597 228c3.69.5 5.6 1.1 8 4l-2 1a96 96 0 0 1-6-3z" fill="#E0E0DF"/><path d="M436 221v7l-3-2-3-1c4.88-4 4.88-4 6-4" fill="#1E1309"/><path d="M497 205c2.62 1.05 3.79 1.65 5.25 4.12L503 211l-3-1v-2h-4z" fill="#281C0E"/><path d="M580 197h2l-1 8-1-3h-2c.88-3.88.88-3.88 2-5" fill="#202220"/><path d="M495 198c6.62-.25 6.62-.25 10 2-7.75 1.12-7.75 1.12-10 0z" fill="#E3D779"/><path d="M596 113a14 14 0 0 1 3 3c-.12 2.12-.12 2.12-1 4l-3 1z" fill="#F3F3F7"/><path d="M573 85h2l-1 4-5 1q1.92-2.56 4-5" fill="#EDEDF0"/><path d="M457 85c3.37 1.39 4.99 2.98 7 6-3 0-3 0-5.19-1.88C457 87 457 87 457 85" fill="#DCDBDB"/><path d="m643 525 5 5-2 3-4-7z" fill="#E8E9E7"/><path d="M532 519c0 2.65-.17 4.52-1 7l-2 1c-.75-1.75-.75-1.75-1-4 1.94-2.25 1.94-2.25 4-4" fill="#F2F3F4"/><path d="m509 450 3 1-1 5h-3z" fill="#D8DADB"/><path d="M818 368c3 1 3 1 5 4-.38 2.19-.38 2.19-1 4-4-5.75-4-5.75-4-8" fill="#CED0D1"/><path d="m807 351 3 1a31 31 0 0 1 2 5l-5-2z" fill="#303536"/><path d="m699 270 6 1 1 3-7-2z" fill="#D9DCDC"/><path d="M478 242h8l-2 1v3l-6-2z" fill="#EDD858"/><path d="m500 194 1 3h-11v-1l3.88-1 2.17-.56C498 194 498 194 500 194" fill="#0E0A01"/><path d="m708 623 3 3-3 2-2-3z" fill="#EDF0EB"/></svg>