<svg style="background:transparent" version="1.1" xmlns="http://www.w3.org/2000/svg" viewBox="0 0 1248 704"><path d="m517.75-.06 2.98.03L523 0v2l2.54.1c4.79 1.25 7.3 3.93 10.77 7.34l1.92 1.8c4.6 4.42 4.6 4.42 5.77 6.76l2.16 1.26c3.5 2.15 6.26 4.74 9.21 7.56l3.46 3.23 1.66 1.56a138 138 0 0 0 5.64 4.89c2.87 2.5 2.87 2.5 4.5 4.69 1.37 1.8 1.37 1.8 3.81 3.25 2.96 1.8 4.44 3.84 6.56 6.56 4.05 4.03 7.39 4.6 12.9 4.63l2.37.06q3.87.07 7.73.09l5.41.06q5.67.06 11.34.07c4.82 0 9.63.1 14.45.2q5.59.1 11.18.09 2.65 0 5.32.09c15.26.38 15.26.38 21.62-5.08A117 117 0 0 0 680 44q2.53-2.38 5.13-4.68l2.13-1.95C689 36 689 36 691 36l.68-1.73c1.69-2.91 3.74-4.45 6.38-6.52 13.13-10.47 13.13-10.47 17.13-15.5 2.26-2.81 4.76-4.31 7.81-6.25l1.78-1.58c4.77-4.17 8.26-5.18 14.6-4.82 4.91.75 8.48 2.64 12.62 5.4v2q.9.3 1.81.63c4.8 3 5.91 9.15 7.19 14.37.18 2.64.27 5.16.25 7.79l.01 2.28v7.52l.01 5.4v30.04q.01 12.89-.01 25.78v29.8l.01 25.6v15.3q.01 7.18-.01 14.36l.01 5.27-.02 7.2.02 2.1A32 32 0 0 1 759 212l-.45 3.03c-.62 3.32-1.75 5.6-3.42 8.53l-1.56 2.76L752 229l-1.39 2.5c-1.9 2.95-4.08 5.27-6.55 7.75l-2.59 2.64c-2.38 2.04-3.5 2.57-6.47 3.1l-.94 1.89c-1.66 3.3-4.7 4.44-7.94 6.07A18 18 0 0 0 721 257c-2.34 9.16 2.27 19.8 6 28l2 5.06c1.49 3.76 3.13 7.36 5 10.94l1.84 3.67q2.1 4.23 4.23 8.44l2.06 4.08 1.05 2.08c2.48 4.95 4.59 9.88 6.26 15.17A71 71 0 0 0 754 345q.52 2 1 4 .7 2.1 1.44 4.19a117 117 0 0 1 3.56 13.8l1.06 4.83.48 2.14q.46 2.05.99 4.09c.71 2.95 1.05 5.95 1.47 8.95l1 5c.9 4.4 1.06 8.49.94 12.95C766 407 766 407 767 410q.15 3.74.13 7.5l.01 2.05c-.01 3.09-.16 5.5-1.14 8.45v5l-1 1c-.07 2.3 0 4.58.06 6.87C765 443 765 443 764 445c-.91 3.97-1.45 7.98-2 12l1.55-.65c8.19-3.14 16.37-3.78 24.7-.72 9.8 4.47 18.55 12.27 22.75 22.37.88 3.3 1.44 6.63 2 10l1.06 4.88c2.38 12.04 1.69 23.07-.06 35.12l-.44 5c-.4 4.2-1.27 7.98-2.56 12l-1 3.5-2.06 7.19q-1.05 3.64-1.94 7.3l2.19-.55c2.94-.46 4.93-.08 7.81.56l1-1 3.56.06c3.59.06 6.58-.58 10.05-1.55 4.19-.9 8.45-1.02 12.73-1.26 2.63-.18 5.18-.42 7.79-.75 4.85-.55 9.64-.68 14.52-.7l2.73-.02 5.68-.02q4.26-.02 8.51-.07c14.77-.1 29.44.98 43.49 5.94l2.2.75c17.16 6.18 33.38 15.49 42.74 31.62l2.56 3.88A34 34 0 0 1 978 611l.51 1.92c2.56 10.84 1.31 20.77-2.51 31.08l-.86 2.95c-4.12 11-18.36 24.95-28.87 30.04l-2.27 1q-1.27.66-2.58 1.3c-10.97 5.35-22.26 7.7-34.42 7.7l-1 1q-2.25.15-4.5.14h-2.47C897 688 897 688 896 687c-3.3-.07-6.6 0-9.9.06C883 687 883 687 880 686l-1.74-.42C865.98 682.44 853 678.46 845 668c-2.78-4.93-4.07-10.37-3-16 2.85-8.25 7.84-15.38 15.73-19.38 8.88-3.35 18.42-4.43 27.27-.62l7 1 2.8 1c8.91 2.77 19.68 1.66 28.2-2 3.09-2.35 4.54-3.88 6-7.44 0-3.66-1-5.47-3-8.56-2.54-1.8-5.27-3.01-8.13-4.25l-2.18-1.02c-7.88-3.56-15.1-4.87-23.69-4.73l-1.88-.5c-2.62-.62-5.03-.63-7.73-.63h-16.14C864 605 864 605 863 606q-2.3.07-4.63 0c-4.99-.05-9.69.42-14.58 1.48-4.21.79-8.47 1.22-12.73 1.68A79 79 0 0 0 818 612q-3.5.07-7 0-2.5.45-5 1-2 .27-4 .5c-3.04.37-6 .89-9 1.5l-7 1-2.37.5c-3.62.69-7.24.88-10.91 1.12-6.16.86-9.77 3.83-14.28 7.82C748.59 634 748.59 634 746 634v2l1.73.33c5.65 1.68 10 5.74 13.19 10.59 3.47 6.64 4.59 11.06 3.64 18.52-2.56 5.84-7.42 9.1-13.12 11.75-5.07 1.2-10 1.06-15.19 1h-3.13c-17.66-.1-17.66-.1-24.37-3.13l-2.48-1.07-2.27-1q-2.99-1.01-6-2l1.83 1.48c5.22 4.38 8.8 8.1 11.17 14.53l1.31 3.38c.64 3.34.61 5.52.23 8.85L712 704q-14.18.17-28.35.26-6.57.04-13.16.12-6.35.07-12.7.1-2.43 0-4.85.05-3.39.05-6.78.04l-3.91.03c-3.25-.6-3.25-.6-5.63-3-4.55-7.3-6.13-16.07-5.62-24.6l1-4v-3.18c0-2.82 0-2.82 1-3.82h-14l1 1c.07 2.33 0 4.64-.06 6.97C620 676 620 676 621 677c.5 6.02-.02 11.28-2 17l-.77 2.4c-2.06 6.44-2.06 6.44-3.23 7.6q-3.45.14-6.91.12h-2.18l-7.2-.02h-4.97l-13.11-.03-13.37-.02L541 704c-2.83-5.3-2.3-9.36-.75-15.06 2.09-6.52 5.98-10.17 10.75-14.94l1-2c-6.51 1.79-6.51 1.79-9.44 3.06-3.5 1.29-6.85 1.53-10.56 1.94l-1.78.52c-10.38 2.26-25.42 1.43-34.78-3.33-5.2-4.66-7.05-7.72-7.48-14.7.09-6.15 2.07-9.96 6.04-14.5q2.8-2.4 5.69-4.67c5.21-4.11 5.21-4.11 6.31-6.32l-1.69-.75A38 38 0 0 1 497 628v-2l-1.75-.25c-2.96-.98-4.09-2.47-6.25-4.75l-3.56-3a129 129 0 0 1-10.31-10.18l-1.45-1.55A32 32 0 0 1 468 598q-1.96-2.54-4-5c-2.42-2.91-4.42-5.56-6-9l-2.44-4.37c-6.55-11.8-11.64-24.05-14.09-37.34-.47-2.3-.47-2.3-1.6-5.6-.89-2.76-.95-4.81-.87-7.7l-1-4c-3.16-19.46-.52-42.57 11-59 1.91-1.62 1.91-1.62 4-3 .38-.27.38-.27 2.3-1.71 7.79-5.4 16.1-8.8 25.74-8.04 3.2.6 6.05 1.3 8.96 2.76l-.94-3.31c-1.1-4.37-1.5-8.68-1.81-13.17-.25-2.52-.25-2.52-.74-4.34-1.05-4.52-.94-9.24-1.14-13.86l-.15-3.25-.13-3.08-.13-2.83C485 410 485 410 486 409q.02-2.47-.06-4.94c-.06-5.6.79-10.63 2.06-16.06 1.04-4.88 1.71-9.8 2.4-14.74A58 58 0 0 1 493 364c2.17-6.38 4.2-12.8 6.2-19.24 4.35-14 10.68-26.65 17.29-39.7A301 301 0 0 0 524 289l1.56-3.5c3.68-8.96 6.71-17.7 5.44-27.5-2.06-2.87-2.06-2.87-5-5l-1.64-1.2-3.53-2.48C509.88 241.42 498 230.52 495 217l-.46-1.83c-2.57-10.36-2.83-20.4-2.81-31l-.02-5.34-.01-14.43-.01-12.07-.01-28.48q.01-14.67-.02-29.34-.03-12.61-.02-25.24 0-7.53-.02-15.05-.02-7.07 0-14.15v-5.18q-.02-3.54.01-7.1l-.03-2.04c.07-6.03 1.56-11.36 5.27-16.17 6.73-6.33 11.46-9.75 20.88-9.64" fill="#161917"/><path d="M956.56 582.56q2.25 2.19 4.44 4.44l1.66 1.56c9.26 9.5 13.6 23.05 13.58 35.9-.2 15.38-4.92 27.9-15.58 39.12-17.59 15.94-39.45 20.6-62.54 20.6l-3.3.04c-15.56.03-30.83-3.25-43.82-12.22-4.8-4.8-6.1-9.74-6.44-16.38.13-6.5 2.42-10.52 6.9-15.12 7.02-6.24 14.42-7.84 23.55-7.8 3.58.36 6.78 1.3 10.24 2.3 13.07 3.62 28.1 4.35 40.6-1.42a13.3 13.3 0 0 0 5.58-8.64c.01-3.39-.2-5.52-1.8-8.57-10.78-9.74-24.58-13.49-38.84-13.58l-2.38-.02c-18.37-.12-36.2.47-54.4 3.23l-4.69.68a2646 2646 0 0 0-40.57 6.16l-2.59.42q-2.45.38-4.89.8c-4.05.64-8.04 1.13-12.15 1.31-3.29.26-4.88.87-7.25 3.2L760 621l-2-1 3.5-3.06 2.22-1.97q2.09-1.8 4.24-3.54c9.3-7.58 15.75-17.69 21.98-27.8l1.4-2.28a62 62 0 0 0 5.2-10.3c1.46-3.05 1.46-3.05 3.52-4.1l2.5-.27q1.44-.16 2.95-.36 1.71-.14 3.5-.32l4.3-.48q3.38-.38 6.8-.74c4.28-.44 8.5-1.04 12.75-1.77 39.43-6.72 91.58-8.56 123.7 19.55" fill="#141715"/><path d="m517.75-.06 2.98.03L523 0v2l2.54.1c4.79 1.25 7.3 3.93 10.77 7.34l1.92 1.8c4.6 4.42 4.6 4.42 5.77 6.76l2.16 1.26c3.5 2.15 6.26 4.74 9.21 7.56l3.46 3.23 1.66 1.56a138 138 0 0 0 5.64 4.89c2.87 2.5 2.87 2.5 4.5 4.69 1.37 1.8 1.37 1.8 3.81 3.25 2.96 1.8 4.44 3.84 6.56 6.56 4.05 4.03 7.39 4.6 12.9 4.63l2.37.06q3.87.07 7.73.09l5.41.06q5.67.06 11.34.07c4.82 0 9.63.1 14.45.2q5.59.1 11.18.09 2.65 0 5.32.09c15.26.38 15.26.38 21.62-5.08A117 117 0 0 0 680 44q2.53-2.38 5.13-4.68l2.13-1.95C689 36 689 36 691 36l.68-1.73c1.69-2.91 3.74-4.45 6.38-6.52 13.13-10.47 13.13-10.47 17.13-15.5 2.26-2.81 4.76-4.31 7.81-6.25l1.78-1.58c4.77-4.17 8.26-5.18 14.6-4.82 4.91.75 8.48 2.64 12.62 5.4v2q.9.3 1.81.63c4.8 3 5.91 9.15 7.19 14.37.18 2.64.27 5.16.25 7.79l.01 2.28v7.52l.01 5.4v30.04q.01 12.89-.01 25.78v29.8l.01 25.6v15.3q.01 7.18-.01 14.36l.01 5.27-.02 7.2.02 2.1A32 32 0 0 1 759 212l-.45 3.03c-.62 3.32-1.75 5.6-3.42 8.53l-1.56 2.76L752 229l-1.39 2.5c-1.9 2.95-4.08 5.27-6.55 7.75l-2.59 2.64c-2.38 2.04-3.5 2.57-6.47 3.1l-.94 1.89c-1.66 3.3-4.7 4.44-7.94 6.07A18 18 0 0 0 721 257c-2.34 9.16 2.27 19.8 6 28l2 5.06c1.49 3.76 3.13 7.36 5 10.94l1.84 3.67q2.1 4.23 4.23 8.44l2.06 4.08 1.05 2.08c2.48 4.95 4.59 9.88 6.26 15.17A71 71 0 0 0 754 345q.52 2 1 4 .7 2.1 1.44 4.19a117 117 0 0 1 3.56 13.8l1.06 4.83.48 2.14q.46 2.05.99 4.09c.71 2.95 1.05 5.95 1.47 8.95l1 5c.9 4.4 1.06 8.49.94 12.95C766 407 766 407 767 410q.15 3.74.13 7.5l.01 2.05c-.01 3.09-.16 5.5-1.14 8.45v5l-1 1c-.07 2.3 0 4.58.06 6.87C765 443 765 443 764 445c-.91 3.97-1.45 7.98-2 12l1.55-.65c8.19-3.14 16.37-3.78 24.7-.72 9.8 4.47 18.55 12.27 22.75 22.37.88 3.3 1.44 6.63 2 10l1.06 4.88c2.38 12.04 1.69 23.07-.06 35.12l-.44 5c-.4 4.2-1.27 7.98-2.56 12l-1 3.5-2.06 7.19q-1.05 3.64-1.94 7.3l2.19-.55c2.94-.46 4.93-.08 7.81.56l1-1 3.56.06c3.59.06 6.58-.58 10.05-1.55 4.19-.9 8.45-1.02 12.73-1.26 2.63-.18 5.18-.42 7.79-.75 4.85-.55 9.64-.68 14.52-.7l2.73-.02 5.68-.02q4.26-.02 8.51-.07c14.77-.1 29.44.98 43.49 5.94l2.2.75c17.16 6.18 33.38 15.49 42.74 31.62l2.56 3.88A34 34 0 0 1 978 611l.51 1.92c2.56 10.84 1.31 20.77-2.51 31.08l-.86 2.95c-4.12 11-18.36 24.95-28.87 30.04l-2.27 1q-1.27.66-2.58 1.3c-10.97 5.35-22.26 7.7-34.42 7.7l-1 1q-2.25.15-4.5.14h-2.47C897 688 897 688 896 687c-3.3-.07-6.6 0-9.9.06C883 687 883 687 880 686l-1.74-.42C865.98 682.44 853 678.46 845 668c-2.78-4.93-4.07-10.37-3-16 2.85-8.25 7.84-15.38 15.73-19.38 8.88-3.35 18.42-4.43 27.27-.62l7 1 2.8 1c8.91 2.77 19.68 1.66 28.2-2 3.09-2.35 4.54-3.88 6-7.44 0-3.66-1-5.47-3-8.56-2.54-1.8-5.27-3.01-8.13-4.25l-2.18-1.02c-7.88-3.56-15.1-4.87-23.69-4.73l-1.88-.5c-2.62-.62-5.03-.63-7.73-.63h-16.14C864 605 864 605 863 606q-2.3.07-4.63 0c-4.99-.05-9.69.42-14.58 1.48-4.21.79-8.47 1.22-12.73 1.68A79 79 0 0 0 818 612q-3.5.07-7 0-2.5.45-5 1-2 .27-4 .5c-3.04.37-6 .89-9 1.5l-7 1-2.37.5c-3.62.69-7.24.88-10.91 1.12-6.16.86-9.77 3.83-14.28 7.82C748.59 634 748.59 634 746 634v2l1.73.33c5.65 1.68 10 5.74 13.19 10.59 3.47 6.64 4.59 11.06 3.64 18.52-2.56 5.84-7.42 9.1-13.12 11.75-5.07 1.2-10 1.06-15.19 1h-3.13c-17.66-.1-17.66-.1-24.37-3.13l-2.48-1.07-2.27-1q-2.99-1.01-6-2l1.83 1.48c5.22 4.38 8.8 8.1 11.17 14.53l1.31 3.38c.9 4.7.39 8.9-.31 13.62l-4-1 .18-2.74c.29-8.07.06-13.9-5.18-20.26-4.7-5.03-9.74-8.2-16-11v-8l1.98 1.14c14.88 8.34 27.46 12.22 44.52 12.18l3.51.04c6.95 0 13.66-.22 19.99-3.36 3.78-4.2 3.56-8.57 3.41-14-.94-6.85-5.26-11.51-10.5-15.74-3.13-2.06-6.34-3.13-9.91-4.26v-2q2.81-2.04 5.75-3.94c3.68-2.4 7.07-4.68 9.98-8 8.44-9.37 16.61-9.74 28.81-10.72 5.74-.56 11.42-1.51 17.11-2.44q5.1-.84 10.22-1.63l2.05-.32q10.65-1.66 21.33-3.2l3.37-.5c12.77-1.82 25.35-2.46 38.23-2.5q3.87 0 7.73-.06c16.6-.11 32.98 2.2 45.42 14.3 2.49 3.75 2.61 6.69 2 11-1.82 4.66-4.56 6.67-8.87 8.89-13.3 5.02-28.4 2.85-41.71-.98-7.94-2.08-16.18-1.53-23.55 2.17-5.49 3.22-9.37 7-11.87 12.93-.78 6.63-.35 12.22 3 18 8.64 9.7 23.32 13.98 36 15 26.55 1.03 51.88-.9 73.31-18.31 10.48-9.75 16.25-23.1 17.06-37.3.26-9.83-.38-17.66-5.37-26.4l-1.57-2.84C957.82 580.22 941.02 572.44 922 566l-2.94-1.06c-29.38-9.03-66.62-4.71-96.4.62-7.86 1.3-15.71 1.6-23.66 1.44l1.36-3c10.28-23.76 17-57.18 7.9-82.26-4.53-9.85-9.84-17.45-19.89-22.18-10.12-3.6-20.43-1.83-30.37 1.44l.26-1.84 1.18-8.47.41-2.9c3.14-22.78 3.99-46.2-.85-68.8l-.74-3.86c-5.27-26.06-15.72-50.91-28.24-74.21-6.92-13.1-14.91-29.75-12.02-44.92 2.78-3.56 6.19-5.63 10-8q2.43-1.84 4.81-3.75c2.25-1.75 4.49-3.47 6.82-5.12 10.1-9.05 16.85-22.71 17.74-36.26.18-4.77.15-9.54.12-14.31l.01-5.47q0-7.36-.03-14.73-.02-7.74-.01-15.47 0-12.98-.05-25.95-.04-14.99-.04-29.98l-.03-31.98-.01-9.2-.03-14.43-.01-5.3-.02-7.23.01-2.11c-.07-6.44-1.19-11.68-5.28-16.71V8l-2.19-.87C747 6 747 6 744.81 4.88c-5.13-1.6-10.21-2.05-15.21.2a88 88 0 0 0-16.23 12.86l-4.22 4.09-2.08 2c-3.26 3.1-6.67 6.03-10.07 8.97q-2.44 2.17-4.87 4.38l-2.56 2.3L687 42l-5.06 4.56-2.23 2L677 51l-1.6 1.95c-4.65 5.1-8.81 6.8-15.64 7.15q-4.93.14-9.87.1l-5.3.06q-5.56.05-11.11 0-7.06-.01-14.11.14-5.48.08-10.97.05-2.6 0-5.19.07c-10.91.22-17.6-1.16-25.64-8.82a227 227 0 0 1-3.06-3.14c-2.46-2.54-5.08-4.87-7.7-7.24l-1.47-1.37a182 182 0 0 0-10.03-8.57 138 138 0 0 1-12.19-11.25c-16.11-16.2-16.11-16.2-27.43-16.44-5.46.05-8.6.43-12.69 4.3-5.64 5.8-7.3 10.72-7.27 18.7l-.01 2.33-.01 7.69-.02 5.53q-.03 7.5-.02 15l-.02 9.39-.02 32.79q0 15.24-.05 30.49-.04 13.1-.04 26.23l-.02 15.64q-.03 7.36-.01 14.73l-.01 5.39c-.11 17.49 3.3 32.1 15.48 45.27 5.88 5.76 12.7 10.57 19.28 15.48 3.68 2.86 3.68 2.86 4.15 6.49.23 10.07-1.47 17.69-5.53 26.88a235 235 0 0 0-2.49 5.88 190 190 0 0 1-8.94 18.67c-17.04 31.15-27.65 67.49-27.7 103.06l-.01 2.2c0 11.87.85 23.36 2.9 35.06.52 3.03.94 6.07 1.36 9.1-6.53-.88-6.53-.88-9.32-1.5-11.98-2.18-20.09.08-29.93 6.7-11.45 11.7-13.98 27.82-13.93 43.56.47 40.8 17.19 76.1 45.18 105.25q.8.82 1.6 1.69c4.22 4.35 8.71 8.04 13.59 11.63l2.11 1.58c3.15 2.34 6.14 4.42 9.7 6.1v2l-1.94.67c-7.52 2.75-13.35 5.96-17.5 13.02-2.2 4.97-2.36 9.98-1.56 15.3 2.19 4.4 5.01 5.76 9.55 7.39 4.8 1.22 9.65 1.06 14.58 1l3.37-.03c14.55-.28 28.7-3.46 41.31-11.03C563 662 563 662 565 662v8l-1.98.92c-7.86 3.77-13.85 7.33-18.05 15.26-1.96 5.72-1.88 11.83-1.97 17.82l-4-2c-.42-7.53.62-14.43 4.87-20.81q3.54-3.61 7.13-7.2l1-2c-6.51 1.8-6.51 1.8-9.44 3.07-3.5 1.29-6.85 1.53-10.56 1.94l-1.78.52c-10.38 2.26-25.42 1.43-34.78-3.33-5.2-4.66-7.05-7.72-7.48-14.7.09-6.15 2.07-9.96 6.04-14.5q2.8-2.4 5.69-4.67c5.21-4.11 5.21-4.11 6.31-6.32l-1.69-.75A38 38 0 0 1 497 628v-2l-1.75-.25c-2.96-.98-4.09-2.47-6.25-4.75l-3.56-3a129 129 0 0 1-10.31-10.18l-1.45-1.55A32 32 0 0 1 468 598q-1.96-2.54-4-5c-2.42-2.91-4.42-5.56-6-9l-2.44-4.37c-6.55-11.8-11.64-24.05-14.09-37.34-.47-2.3-.47-2.3-1.6-5.6-.89-2.76-.95-4.81-.87-7.7l-1-4c-3.16-19.46-.52-42.57 11-59 1.91-1.62 1.91-1.62 4-3 .38-.27.38-.27 2.3-1.71 7.79-5.4 16.1-8.8 25.74-8.04 3.2.6 6.05 1.3 8.96 2.76l-.94-3.31c-1.1-4.37-1.5-8.68-1.81-13.17-.25-2.52-.25-2.52-.74-4.34-1.05-4.52-.94-9.24-1.14-13.86l-.15-3.25-.13-3.08-.13-2.83C485 410 485 410 486 409q.02-2.47-.06-4.94c-.06-5.6.79-10.63 2.06-16.06 1.04-4.88 1.71-9.8 2.4-14.74A58 58 0 0 1 493 364c2.17-6.38 4.2-12.8 6.2-19.24 4.35-14 10.68-26.65 17.29-39.7A301 301 0 0 0 524 289l1.56-3.5c3.68-8.96 6.71-17.7 5.44-27.5-2.06-2.87-2.06-2.87-5-5l-1.64-1.2-3.53-2.48C509.88 241.42 498 230.52 495 217l-.46-1.83c-2.57-10.36-2.83-20.4-2.81-31l-.02-5.34-.01-14.43-.01-12.07-.01-28.48q.01-14.67-.02-29.34-.03-12.61-.02-25.24 0-7.53-.02-15.05-.02-7.07 0-14.15v-5.18q-.02-3.54.01-7.1l-.03-2.04c.07-6.03 1.56-11.36 5.27-16.17 6.73-6.33 11.46-9.75 20.88-9.64" fill="#E4E6E6"/><path d="M673 495h1c1.16 7.47-2.75 12.12-7 18-2.89 3.91-6 7.19-10 10h-2v2l-8.85 5.16C641.23 533 641.23 533 639 533l.18 2.31a756 756 0 0 1 2.14 58.12 811 811 0 0 0 .02 8.54c.31 49.73.31 49.73-4.34 59.03h-22a404 404 0 0 1-4-49l-.03-1.98c-.42-25.73.59-51.33 2.03-77.02l-2.47-1.21-6.48-3.2c-10.93-5.71-19.77-15.45-25.05-26.59-.19-3.34-.19-3.34 0-6l1.88 1.94L584 501l2.03 2.02a88 88 0 0 0 15.59 11.86l1.85 1.11c7.12 4.16 13.54 6.57 21.84 6.45l2.25-.03c15.33-.45 29.52-10.02 39.81-20.92q2.1-2.38 4.13-4.8z" fill="#000"/><path d="M695.38 136.46c8.38 4.92 12.45 10.84 16.62 19.54l1 2c1.25 11.68-.3 20.18-7 30-5.62 6.77-13.47 10.26-22 12-11 .98-18.8-1.04-27.32-8.13-6.79-6.45-10.72-14.28-11.03-23.68-.1-8.22.47-14.26 5.35-21.19l2.25-3.25c11.67-11.67 27.18-14.56 42.13-7.29m-40.26 8.47c-4.66 5.71-5.66 10.91-5.49 18.2 1.02 7.94 5.31 13.46 11.3 18.5 5.76 3.82 11.34 4.11 18.07 3.37 5.81-1.66 10.14-4.29 14-9l1.41-1.54c4.35-5.52 4.51-11.78 4.13-18.54-.92-6.64-3.39-11.37-8.62-15.6-12.36-8.09-25.1-5.72-34.8 4.61" fill="#EEC951"/><path d="M740 470h1c.94 33.7-4.76 66.09-16.21 97.81q-1.1 3.07-2.17 6.16a254 254 0 0 1-6.24 16.28 106 106 0 0 0-4.59 13.18 75 75 0 0 1-2.69 7.22 129 129 0 0 0-5.1 15.79l-.77 2.92c-3.02 12.05-4.65 24.33-6.23 36.64-3.88-1.15-7.09-2.13-10-5-.84-7.87 1.78-16.41 3.69-24l.81-3.28c3.49-13.95 7.48-27.57 12.82-40.93 3.22-8.04 6.02-16.21 8.84-24.39q1.2-3.42 2.44-6.81a267 267 0 0 0 7.66-24.44 73 73 0 0 1 3.97-11.16c1.71-4.45 2.61-9.16 3.65-13.8l.77-3.41a754 754 0 0 0 5.79-28.68l.58-3.13.5-2.77c.48-2.2.48-2.2 1.48-4.2" fill="#000100"/><path d="M561 133c17.58-.78 17.58-.78 25 4l2.11 1.29c7.92 5.33 12.98 13.37 14.89 22.71 1.22 9.25-1.45 17.71-6.75 25.31-5.1 6.28-12.16 11.7-20.31 13.02-11.72.93-21-.54-30.27-8.28-6.46-6.49-10.78-15.5-11.17-24.74A39.6 39.6 0 0 1 548 139l2 1-3.61 4.1c-3.57 4.89-4.8 8.86-4.77 14.9l-.02 3.56c.61 5.23 2.85 9.15 6.21 13.13l1.4 1.7c4.76 4.28 9.58 5.11 15.79 5.05l2.08.06c6.03-.01 9.37-2.17 13.71-6.14 5.43-6.26 7.93-12.4 7.62-20.77a24.5 24.5 0 0 0-9.35-16.09c-5.76-3.82-11.3-4.8-18.06-5.5z" fill="#EDC74E"/><path d="M512 471c1.89 3.33 2.62 6.47 3.33 10.21l.73 3.78.75 3.95c3.75 19.7 8.42 38.74 15.07 57.68l1.77 5.16q4.32 12.49 8.92 24.89c25.21 67.96 25.21 67.96 22.43 84.33-2.2 2.45-2.2 2.45-5 4-2.81-.25-2.81-.25-5-1l-.48-3.79a376 376 0 0 0-5.54-32.22 90 90 0 0 0-5.06-15.75c-1.54-3.74-2.58-7.6-3.7-11.48-2.49-7.67-5.54-15.14-8.61-22.59-9.29-22.76-15.75-46.73-18.61-71.17l-.39-3.22c-1.07-10.87-.7-21.87-.61-32.78" fill="#000100"/><path d="M753 7c5.2 4.22 6.79 8.47 8 15 .42 5.98.4 11.94.37 17.93l.01 5.41q.01 7.32-.01 14.63l-.01 15.34-.02 25.73q-.04 14.86-.02 29.74l-.01 28.64-.01 12.18q.01 7.16-.02 14.33v5.25l-.02 7.18.01 2.1c-.04 4.22-.8 7.59-2.27 11.54l-.45 3.03c-.62 3.32-1.75 5.61-3.43 8.53l-1.55 2.76L752 229l-1.39 2.51c-1.9 2.94-4.08 5.26-6.55 7.74l-2.59 2.64c-2.38 2.03-3.5 2.56-6.47 3.11l-.94 1.88c-1.66 3.31-4.7 4.44-7.94 6.07A18 18 0 0 0 721 257c-2.34 9.16 2.27 19.8 6 28l2 5.06c1.49 3.76 3.13 7.36 5 10.94l1.84 3.67a1662 1662 0 0 0 6.28 12.52l1.06 2.07c2.48 4.96 4.59 9.89 6.26 15.18A72 72 0 0 0 754 345q.52 2 1 4 .7 2.1 1.44 4.19c1.53 4.55 2.59 9.11 3.56 13.81l1.06 4.81.48 2.15q.46 2.05.99 4.09c.71 2.95 1.05 5.95 1.47 8.95l1 5c.9 4.4 1.06 8.48.94 12.95C766 407 766 407 767 410q.18 3.66.19 7.31l.04 3.93A30 30 0 0 1 765 431c-2.34-3.52-2.26-5.02-2.31-9.19l-.07-3.78-.03-1.99c-.19-12.56-1.05-24.72-3.59-37.04l-.73-3.88c-5.3-26.05-15.73-50.89-28.25-74.2-6.92-13.1-14.91-29.75-12.02-44.92 2.78-3.56 6.19-5.64 10-8q2.43-1.84 4.81-3.75c2.25-1.75 4.49-3.47 6.81-5.13 10.11-9.04 16.86-22.7 17.75-36.25.18-4.77.15-9.54.12-14.31l.01-5.47q0-7.36-.03-14.74-.02-7.73-.01-15.47 0-12.96-.05-25.94-.04-15-.04-29.98l-.03-31.98-.01-9.19q0-7.23-.03-14.45l-.01-5.29-.02-7.23.01-2.11c-.06-5.87-1-10.79-4.28-15.71z" fill="#E7E9E8"/><path d="m517.75-.06 2.98.03L523 0v2l2.54.1c4.79 1.25 7.3 3.93 10.77 7.34l1.92 1.8c4.6 4.42 4.6 4.42 5.77 6.76l2.16 1.26c3.5 2.15 6.26 4.74 9.21 7.56l3.46 3.23 1.66 1.56a138 138 0 0 0 5.64 4.89c2.87 2.5 2.87 2.5 4.5 4.69 1.37 1.8 1.37 1.8 3.81 3.25 2.96 1.8 4.44 3.84 6.56 6.56 4.05 4.03 7.39 4.6 12.9 4.63l2.37.06q3.87.07 7.73.09l5.41.06q5.67.06 11.34.07c4.82 0 9.63.1 14.45.2q5.59.1 11.18.09 2.65 0 5.32.09c15.26.38 15.26.38 21.62-5.08A117 117 0 0 0 680 44q2.53-2.38 5.13-4.68l2.13-1.95C689 36 689 36 691 36l.68-1.73c1.69-2.91 3.74-4.45 6.38-6.52 13.13-10.47 13.13-10.47 17.13-15.5 2.26-2.81 4.76-4.31 7.81-6.25l1.78-1.58c4.77-4.17 8.27-5.2 14.6-4.81C745.12.47 749.15 2.54 753 7l-1 3V8q-1.07-.44-2.19-.87C747 6 747 6 744.81 4.88c-5.13-1.6-10.21-2.05-15.21.2a88 88 0 0 0-16.23 12.86l-4.22 4.09-2.08 2c-3.26 3.1-6.67 6.03-10.07 8.97q-2.44 2.17-4.87 4.38l-2.56 2.3L687 42l-5.06 4.56-2.23 2L677 51l-1.6 1.95c-4.65 5.1-8.81 6.8-15.64 7.15q-4.93.14-9.87.1l-5.3.06q-5.56.05-11.11 0-7.06-.01-14.11.14-5.48.08-10.97.05-2.6 0-5.19.07c-10.91.22-17.6-1.16-25.64-8.82a227 227 0 0 1-3.06-3.14c-2.46-2.54-5.08-4.87-7.7-7.24l-1.47-1.37a182 182 0 0 0-10.03-8.57 138 138 0 0 1-12.19-11.25c-16.11-16.2-16.11-16.2-27.43-16.44-5.7.03-8.47.54-12.69 4.3l-3 2V7c1.61-1.56 1.61-1.56 3.75-3.11l2.11-1.57c3.93-2.4 7.35-2.42 11.89-2.37" fill="#D4D7D6"/><path d="M809.77 567H813c-14.56 34.05-14.56 34.05-24 43h-3v2c-4.87 2.32-9.81 2.6-15.11 2.95-4.01.38-5.8.97-8.9 3.63l-2 2.42-2-1q1.77-1.53 3.5-3.06l2.24-1.96q2.08-1.82 4.24-3.54c9.3-7.58 15.75-17.7 21.97-27.81l1.4-2.27a64 64 0 0 0 5.25-10.34l1.4-3.02c4.16-1.03 7.52-1 11.78-1" fill="#010101"/><path d="M695.38 136.46c8.38 4.92 12.45 10.84 16.62 19.54l1 2q.11 4.05.06 8.12v2.3q-.04 2.78-.06 5.58h-1l-1-12h-1l-.44-3.32C709 155 709 155 708 152h-2v-4h-2v-2h-2v-2h-4v6h2l-1 15h-1v-2.5c-.29-8.13-1.4-14.35-7-20.5-6.2-5.04-12.9-5.8-20.73-5.49-7.15 1.05-11.7 5.2-16.09 10.75-3.83 5.61-4.04 12.15-3.18 18.74 2.2 6.82 5.9 12.17 12 16 5.86 2.8 12.23 3.02 18.5 1.32A95 95 0 0 0 687 181l-1 3h-2v2h-20v2h-2v2h-2l-1 4c-7.09-6.18-12.56-14.06-13.28-23.66-.29-8.92-.03-15.8 5.28-23.34l2.25-3.25c11.67-11.67 27.18-14.56 42.13-7.29" fill="#EDC858"/><path d="M753 7c5.2 4.22 6.79 8.47 8 15 .42 5.98.4 11.94.37 17.93l.01 5.41q.01 7.32-.01 14.63l-.01 15.34-.02 25.73q-.04 14.86-.02 29.74l-.01 28.64-.01 12.18q.01 7.16-.02 14.33v5.25l-.02 7.18.01 2.1A32 32 0 0 1 759 212q-.56 2.99-1 6l-3 1 .44-4.88.24-2.74C756 209 756 209 757 207q.15-3.63.13-7.25l.01-2.3.01-7.64.01-5.46.01-14.88.01-12.41.01-29.29q0-15.12.02-30.22l.02-25.93.01-15.49V41.55l.01-5.35v-7.31l.01-2.13c-.04-5.9-.97-10.82-4.26-15.76z" fill="#F2F4F3"/><path d="M622.94 183.56h3.59c3.93.5 7.59 1.56 10.47 4.44.38 3.25.38 3.25 0 7-2.37 2.81-2.37 2.81-5 5-2.68 2.68-3.06 5.37-4 9-2.81.62-2.81.62-6 1-3-2-3-2-3.87-5.38-1.3-4.18-2.62-5.17-6.13-7.62-2-3-2-3-1.94-5.94 2-6.5 6.58-7.6 12.88-7.5" fill="#676967"/><path d="M881.18 601.76q3.03-.02 6.06-.07c15.66-.06 31.17 3.03 42.76 14.31 2.49 3.74 2.6 6.68 2 11-1.82 4.65-4.56 6.66-8.87 8.88-13.3 5.02-28.4 2.85-41.71-.98-7.62-2-13.97-.96-21.42 1.1h-4l1-3c8.89-3.61 19.1-4.75 28-1l7 1 2.8 1.01c8.9 2.76 19.68 1.65 28.2-2.01 3.09-2.35 4.54-3.88 6-7.44 0-3.67-1-5.47-3-8.56-2.54-1.8-5.27-3.01-8.12-4.25l-2.2-1.02c-7.87-3.56-15.1-4.88-23.68-4.73l-1.96-.49c-2.2-.55-4.04-.59-6.3-.54l-2.4.04-4.96.12q-3.19.02-6.38-.13l-2-2c2.6-2.6 9.65-1.23 13.18-1.24" fill="#E4E5E6"/><path d="M756 21h1v178l-2 1 .01-3.7a5041 5041 0 0 0-.3-73.78q-.16-14.23-.36-28.46c-.77-58.05-.77-58.05 1.65-73.06" fill="#0B0E0D"/><path d="M616 662h20l-.07 5.62-.05 7.38-.06 3.7c-.04 7.94-.04 15.35 4.3 22.3l1.88 3c-2.65-.37-3.78-.76-5.62-2.75-4.39-7.17-5.88-15.93-5.38-24.25l1-4v-3.19c0-2.81 0-2.81 1-3.81h-14l1 1c.07 2.33 0 4.64-.06 6.97C620 676 620 676 621 677c.5 6.02-.02 11.28-2 17l-1.62 4.94L616 703l-5 1 .84-2.05 1.1-2.7 1.09-2.67c1.7-4.52 2.09-8.24 2.07-13.1l-.01-3.78-.03-3.95-.01-3.99z" fill="#F0F2F0"/><path d="M500 9c-2 5-2 5-3.05 7.2-1.19 3.51-1.24 6.77-1.23 10.42l-.02 2.31-.02 7.62-.03 5.47q-.04 7.43-.05 14.84l-.07 15.52q-.08 14.68-.12 29.38l-.14 33.44q-.15 34.4-.27 68.8h-1q-.5-35.77-.94-71.56-.2-16.61-.43-33.22-.2-14.48-.37-28.97l-.21-15.33q-.1-7.21-.18-14.44l-.07-5.29q-.06-3.62-.08-7.24l-.05-2.1c-.01-5.64 1.07-11.21 4.81-15.58C498 9 498 9 500 9" fill="#EFF1F0"/><path d="m804 558 3 1-1 4 2.19-.56c2.94-.46 4.93-.08 7.81.56l1-1 3.56.06c3.59.05 6.58-.58 10.05-1.55 4.19-.89 8.45-1.02 12.73-1.26 2.62-.18 5.16-.43 7.76-.76 4.98-.56 9.9-.63 14.9-.62l2.8-.01 5.81.01 8.84-.01 5.68.01 2.64-.01c5.16.02 10.14.23 15.23 1.14l1 2-3.53-.05c-27.49-.33-54.63-.21-81.79 4.61A129 129 0 0 1 799 567l3.03-6.15C803 559 803 559 804 558" fill="#ECECEE"/><path d="M561 133c17.58-.78 17.58-.78 25 4l2.11 1.29c7.92 5.33 12.98 13.37 14.89 22.71 1.02 7.74-.98 13.91-4 21-.56-1.94-.56-1.94-1-4l1-1q.23-2.35.32-4.69l.12-2.86.12-3.01.13-3.02.31-7.42h-2l-1-4-2.38 1.5C592 155 592 155 590 155c-2.24-2.59-3.67-5.3-5.12-8.38-2.9-5.22-6.41-8.22-11.88-10.62a83 83 0 0 0-12-2z" fill="#EAC150"/><path d="M695.38 136.46c8.38 4.92 12.45 10.84 16.62 19.54l1 2q.11 4.05.06 8.12v2.3q-.04 2.78-.06 5.58h-1l-1-12h-1l-.44-3.32C709 155 709 155 708 152h-2v-4h-2v-2h-2v-2h-4v6h2l-1 15h-1v-2.5c-.29-8.13-1.4-14.35-7-20.5-6.22-5.04-12.9-5.78-20.72-5.5-4.7.71-7.7 2.47-11.28 5.5l-2.5 1.81-1.5 1.2v-3c2.01-1.77 2.01-1.77 4.68-3.58q1.3-.9 2.64-1.8c10.06-6.1 22.72-5.2 33.06-.17" fill="#E8C151"/><path d="m517.75-.06 2.98.03L523 0v2l2.54.1c4.79 1.25 7.3 3.93 10.77 7.34l1.92 1.8c4.6 4.42 4.6 4.42 5.77 6.76l2.16 1.26c3.5 2.15 6.26 4.74 9.21 7.56l3.46 3.23 1.66 1.56a138 138 0 0 0 5.64 4.89c2.87 2.5 2.87 2.5 4.5 4.69 1.37 1.8 1.37 1.8 3.81 3.25 2.97 1.8 4.46 3.8 6.56 6.56a262 262 0 0 0 5 5c-4.47 0-6.47-2.98-9.5-5.94a188 188 0 0 0-12.87-11.43c-6.96-5.57-13.33-11.78-19.79-17.9C525.7 3.63 525.7 3.63 512.18 3.7c-4.31.4-6 1.45-9.18 4.29l-3 2V7c1.61-1.57 1.61-1.57 3.75-3.12l2.11-1.57c3.93-2.4 7.35-2.42 11.89-2.37" fill="#E4E7E4"/><path d="m548 139 2 1-3.61 4.1c-3.57 4.89-4.8 8.86-4.77 14.9l-.02 3.56c.79 6.8 4.62 11.78 9.4 16.44 5.39 3.85 11.58 3.7 18 4v1h-15v-2h-4v-2h-2v-2h-2v-2h-2v-2h-6v2h2v4h2c2 2 2 2 2 6h2l.75 1.81c2.14 3.75 5.42 5.41 9.25 7.19l-3 1c-8.96-4.57-14.26-13-17.31-22.27-2.14-8.43-.52-16.67 3.7-24.22 2.52-3.89 5.12-7.43 8.61-10.51" fill="#CDB367"/><path d="M754 354c3 1 3 1 3.91 2.79 1.2 3.82 2.22 7.47 2.65 11.46.4 3.38 1.18 5.65 2.44 8.75v5l1 3.44c.96 3.42 1.08 6.04 1 9.56l1 3c.07 2.29 0 4.56-.06 6.84C766 407 766 407 767 410q.18 3.66.19 7.31l.04 3.93A30 30 0 0 1 765 431c-2.34-3.52-2.26-5.02-2.31-9.19l-.07-3.78-.03-1.99a205 205 0 0 0-6.23-48.26A99 99 0 0 1 754 354" fill="#EDEFED"/><path d="M744.12.55A21 21 0 0 1 753 7l-1 3V8l-2.18-.88C747 6 747 6 744.82 4.87c-5.14-1.59-10.22-2.04-15.22.21a86 86 0 0 0-16.22 12.86l-4.23 4.1-2.07 2c-3.27 3.1-6.67 6.02-10.08 8.96l-4.87 4.37-2.53 2.28-5.4 4.9-2.7 2.45-2.47 2.25C677 51 677 51 675 52c.58-3.25 1.45-4.8 3.87-7.02l1.74-1.6 1.83-1.63 1.8-1.68C688.74 36 688.74 36 691 36l.69-1.74c1.69-2.9 3.73-4.44 6.38-6.5 13.12-10.48 13.12-10.48 17.12-15.5 2.27-2.83 4.76-4.33 7.8-6.26l1.79-1.58c5.98-5.23 11.68-5.86 19.34-3.87" fill="#DDDFE0"/><path d="M480 454v2l-2.27.26c-9.95 1.37-18.58 4.42-25.73 11.74-9.41 12.61-11.01 27.19-11.56 42.44l-.13 3.37L440 522l-3-2c-.31-2.16-.31-2.16-.21-4.85l.1-3 .17-3.21.17-3.29c.88-14.33 3.36-27.66 11.77-39.65 1.91-1.63 1.91-1.63 4-3l2.34-1.72c6.82-4.67 16.22-10.09 24.66-7.28" fill="#E5E7E7"/><path d="m491 666 1.32 1.24a246 246 0 0 1 3.56 3.25c6.1 4.35 12.93 3.86 20.12 3.82l3.38-.01A85 85 0 0 0 551 668h3c-.56 1.88-.56 1.88-2 4-3.31 1.12-3.31 1.12-7 2l-2.44 1.06c-3.5 1.29-6.85 1.53-10.56 1.94l-1.78.52c-9.84 2.14-26.27 1.94-34.84-3.4A28 28 0 0 1 490 668z" fill="#E4E4E4"/><path d="M754 217a16 16 0 0 1 2 4c-.57 1.96-.57 1.96-1.69 3.94l-1.07 1.96L752 229l-1.34 2.43a47 47 0 0 1-6.6 7.82l-2.59 2.64c-2.38 2.03-3.5 2.56-6.47 3.11l-.94 1.88c-1.64 3.27-4.63 4.51-7.94 5.92-2.32 1.21-3.59 2.06-5.12 4.2a58 58 0 0 0-.05 10.82C721 271 721 271 719 274a38 38 0 0 1-1-18c2.78-3.56 6.19-5.64 10-8q2.43-1.84 4.81-3.75c2.25-1.75 4.49-3.47 6.81-5.13A51 51 0 0 0 754 217" fill="#E7EAE6"/><path d="M696 152h2c.75 9.45 1.03 16.82-4.86 24.79-4.39 4.53-10.32 8.01-16.73 8.34l-2.91-.01-2.91.01C668 185 668 185 665 184v-2l6.81-.56 3.83-.32C679 181 679 181 682 182v-2l1.88-.75c2.47-1.46 3.07-2.63 4.12-5.25h2l.88-1.88C692 170 692 170 694 168c.47-2.72.84-5.38 1.12-8.12l.27-2.29z" fill="#211809"/><path d="M653 144h2l-.88 2.12L653 149l-1.12 2.62c-1.66 6.4-1.33 12.96.12 19.38l-2-1v-2h-2v8h2v4h2v4h2v2h2c2.04 2.91 3 4.4 3 8-7.09-6.17-12.56-14.05-13.27-23.66-.29-8.95.04-15.71 5.27-23.34z" fill="#DCC578"/><path d="M881.18 601.76q3.03-.02 6.06-.07c8.3-.04 16.98.06 24.76 3.31 1.35 2.11 1.35 2.11 2 4a39 39 0 0 1-8.75-2.06c-3.77-1.09-7-1.05-10.88-.91-2.37-.03-2.37-.03-4.25-.53-2.22-.52-4.1-.58-6.38-.53l-2.4.04-4.96.12q-3.19.02-6.38-.13l-2-2c2.6-2.6 9.65-1.23 13.18-1.24" fill="#E5E7E9"/><path d="m925.5 563.5 2.31.78c5.8 2.04 11.26 4.55 16.69 7.41l2.19 1.15c3.29 1.8 5.2 2.99 7.31 6.16-4.19 0-7.01-2.11-10.56-4.12-13.14-7.17-26.52-11.49-41.44-12.88v-1c8.12-1.87 15.75-.13 23.5 2.5" fill="#D9DADC"/><path d="m855 634 1 2 2 1-2.75 1.69c-4.29 3.05-7.22 6.45-9.25 11.31-.78 6.62-.35 12.22 3 18a51 51 0 0 0 9 8l-3 1c-5.56-3.57-10.29-8.71-12.75-14.88-.95-8.11.19-13.25 4.75-20.12a92 92 0 0 1 8-8" fill="#DBDBDC"/><path d="M760 390h1l.44 3.44C762 397 762 397 763 398q.14 3.13.13 6.27l.01 3.94-.01 2.08.01 6.13c-.01 7.58-.27 15.04-1.14 22.58-1.5-.98-1.5-.98-3-3a70 70 0 0 1-.07-8.32l.08-2.49q.13-3.94.3-7.88l.28-7.82.18-4.87q.28-7.31.23-14.62" fill="#212422"/><path d="M561 133c17.61-.78 17.61-.78 25 4l2.28 1.46c5.48 3.8 5.48 3.8 6.44 6.73L595 147l-3-1v-2h-2v-2h-4v5l-1.44-2.12c-6.72-7.55-13.64-9.91-23.56-10.88z" fill="#DBC06D"/><path d="M492 384h1a1183 1183 0 0 1 .09 10.87q0 3.06-.09 6.13l-1 1q-.07 2.84.01 5.68l.05 3.5q.06 3.69.15 7.36l.05 3.51.06 3.24c-.32 2.71-.32 2.71-1.84 4.58L489 431q-.08-6.69-.11-13.39l-.04-4.53c-.11-9.49.03-18.76 2.15-28.08z" fill="#212325"/><path d="m885 632 3.38.44c4.04.62 6.94 1.83 10.62 3.56v1c-5.37.27-9.75-.07-14.94-1.5-8.62-2.31-15.54-1.85-24.06.5h-4c1-3 1-3 2.83-3.95 8.68-2.65 17.68-3.73 26.17-.05" fill="#EDEEF0"/><path d="m488 430 2 1c.49 2.02.49 2.02.82 4.66l.37 2.91.37 3.05.76 5.92.35 2.84q.61 4.81 1.33 9.62l-3-.43q-5.97-.85-11.94-1.63l-2.07-.28L472 457v-1c12.67-2.67 12.67-2.67 18 0l-.94-3.5c-1.93-7.87-2.13-14.5-1.06-22.5" fill="#E1E4E3"/><path d="m548 139 2 1-3.61 4.1c-3.72 5.09-4.76 9.26-4.95 15.52-.26 7.94-.26 7.94-2.44 11.38l-3-1c-.82-11.64 1.2-18.79 8.81-27.62q1.57-1.71 3.19-3.38" fill="#E6C973"/><path d="M674 132h18v2h6v2h6c1.26 2.91 2 4.8 2 8h4v2h2l-1 4h-3c-1.25-1.54-1.25-1.54-2.56-3.62C700.9 140 693.63 135.68 686 134q-5.99-.64-12-1z" fill="#191306"/><path d="M496 210h1l.62 3.25c4.18 16.29 15.12 26.46 28.38 35.75-1.81.61-1.81.61-4 1a41 41 0 0 1-10-8l-2.33-2.29a135 135 0 0 1-7.36-8.15l-2.32-2.74c-3.23-4.57-4.26-8.65-4.11-14.2l.05-2.64z" fill="#E2E3E5"/><path d="M857 676c3.93.65 7.3 1.91 11 3.38 11.95 4.38 25.4 4.6 38 5.62v1q-5.65.3-11.31.56l-3.25.17-3.12.15-2.87.14C883 687 883 687 880 686l-1.72-.41c-3.31-.86-6.54-1.95-9.78-3.03l-2.01-.66A56 56 0 0 1 857 678z" fill="#EDF0EE"/><path d="M541 152h2c.94 3.16 1.11 5.97 1.06 9.25l-.02 2.7L544 166h2c1.76 3.09 2 4.23 2 8h4l1.31 2.44c1.69 2.56 1.69 2.56 5.38 3.37l3.31.19v1c-4.07.98-6.24 1.37-10.06-.5-4.87-4.14-9.03-8.27-10.94-14.5-.2-3.55-.2-3.55-.12-7.31l.05-3.8z" fill="#25190A"/><path d="M803 611v2a144 144 0 0 1-17 3l-2.38.49c-2.75.54-5.46.87-8.24 1.13l-2.86.29C770 618 770 618 767 617c2.5-2.5 3.89-2.52 7.35-3.07l3.27-.53 3.44-.52 3.36-.56A98 98 0 0 1 803 611" fill="#EAEBEC"/><path d="M762 428h4q.06 2.5 0 5l-1 1c-.07 2.3 0 4.58.06 6.87C765 443 765 443 764 445c-1.23 4.91-1.54 9.97-2 15l-4 1 .26-1.84 1.18-8.47.41-2.9q1.35-9.87 2.15-19.79" fill="#DFE1E0"/><path d="M976 618h1l.18 2.7.26 3.55.24 3.52c.32 3.23.32 3.23.94 5.38.51 2.45-.07 3.89-.93 6.23l-.8 2.21L976 644l-.85 2.95c-1.29 3.41-2.94 5.64-5.27 8.43l-2.2 2.64L966 660l-3-1 1.17-1.4c9.45-11.83 11.03-24.89 11.83-39.6" fill="#E2E3E2"/><path d="M698 672c7.66 5.01 12.83 10.7 14.8 19.84.38 4.09-.19 8.11-.8 12.16l-4-1 .18-2.75c.29-8.03.06-13.91-5.18-20.25a62 62 0 0 0-7-6z" fill="#E1E4E0"/><path d="m678.13 132.75 2.16-.02c3.78.01 5.5.13 8.72 2.27l-1 4-2.63-1c-6.53-1.82-14.55-2.53-20.92.02A45 45 0 0 0 659 142l-2.5 1.81L655 145v-3c2.01-1.75 2.01-1.75 4.68-3.56l2.65-1.82c5.32-3.23 9.6-3.94 15.8-3.87" fill="#CCB87B"/><path d="M744.14.53A22 22 0 0 1 753 7l-1 3V8l-2.19-.88c-2.8-1.12-2.8-1.12-5-2.25-5.38-1.67-10.38-1.99-15.58.4A111 111 0 0 0 722 10l-3 2V9c2.12-2 2.12-2 4.87-4.13l2.75-2.13C731.77-1.03 738-.99 744.14.54" fill="#E4E3E7"/><path d="M688 135c6.8.35 12.21 4.01 16.77 8.89A73 73 0 0 1 709 150l1.25 1.73c4.22 6.66 3.08 14.7 2.75 22.27h-1l-1-12h-1l-.44-3.31C709 155 709 155 708 152h-2v-4h-2v-2h-2l-1-3-3-1v-2l-2.75-.81A22 22 0 0 1 688 135" fill="#D3BB73"/><path d="m491 666 1.32 1.24a246 246 0 0 1 3.56 3.25c5.61 4 11.87 3.91 18.5 4.13l2.8.12 6.82.26v1l-5 1v1c-20.62-.73-20.62-.73-25.58-5.53-1.42-1.66-1.42-1.66-3.42-4.47z" fill="#E0E3E2"/><path d="M596 147c5.04 5.04 7.19 11.9 7.5 19-.22 5.72-2.28 10.78-4.5 16-.56-1.94-.56-1.94-1-4l1-1q.23-2.35.32-4.69l.12-2.86.12-3.01.13-3.02.31-7.42h-2z" fill="#D5BC70"/><path d="M698 144h4v2h2v2h2v4h2c-1.75 3.88-1.75 3.88-4 5-2.12-.94-2.12-.94-4-2v-5h-2z" fill="#F0C44D"/><path d="M557 135c17.25-.58 17.25-.58 23.88 4.81A27 27 0 0 1 587 148v2h-3v-4l-4-1-1-4c-14.6-4.41-14.6-4.41-22-5z" fill="#1F1407"/><path d="M617 676h1l.18 2.48.26 3.27.24 3.23c.32 3.02.32 3.02.94 5.13.51 2.51-.07 4.05-.93 6.45l-.8 2.32C617 701 617 701 615 704l-4-1 1.38-2c4.21-7.77 4.16-16.34 4.62-25" fill="#DDE0DF"/><path d="M760 188h1l.12 8.62.06 2.45c.03 4.76-.42 8.45-2.18 12.93q-.56 2.99-1 6l-3 1q.17-2.4.38-4.81l.21-2.71C756 209 756 209 758 206q.4-3.46.56-6.94c.39-7.61.39-7.61 1.44-11.06" fill="#EEF0EF"/><path d="M765 407c2.52 2.52 2.26 4.12 2.27 7.57l-.02 2.18.02 2.13A31 31 0 0 1 765 431c-2.17-3.25-2.22-3.92-2.01-7.63l.14-2.69.18-2.8.15-2.83c.4-6.91.4-6.91 1.54-8.05" fill="#F1F4F1"/><path d="M927 564a25 25 0 0 1 3 4l-2.31-.59c-17.14-4.32-17.14-4.32-25.69-5.41v-1c8.15-1.88 17.42-.54 25 3" fill="#DBDCDE"/><path d="M859 558v1l5 1v1l-27 2v-3l6-1 3.31-.56c4.26-.51 8.41-.53 12.69-.44" fill="#E8E8EA"/><path d="M790 457v1l-1.82-.02-8.24-.04-2.86-.03c-5.14-.02-10.01.2-15.08 1.09v-2c9.02-4.25 19.12-4.95 28 0" fill="#EBEDED"/><path d="M754 160h1l1 39h1v10l-3-2c-.36-2.02-.36-2.02-.34-4.54v-2.85l.05-3.09.01-3.15.09-9.99.04-6.77q.06-8.3.15-16.61" fill="#1C1E1C"/><path d="M754 217a16 16 0 0 1 2 4c-.57 1.96-.57 1.96-1.69 3.94l-1.17 2.1c-.18.33-.18.33-1.14 1.96l-1.5 2.75A34 34 0 0 1 745 238l-3-1 1.39-1.69c4.64-5.77 8.25-11.23 10.61-18.31m-14 21 2 1Z" fill="#E2E5E1"/><path d="m537 172 1 4h2v4h2c2 2 2 2 2 6h2l.75 1.81c2.14 3.75 5.42 5.41 9.25 7.19l-3 1c-6.94-3.54-11.89-9.88-15.38-16.69-.68-2.53-.77-4.7-.62-7.31" fill="#D8C070"/><path d="M600 152h4c2.14 3.48 2.21 6.21 2.12 10.25l-.05 3.27L606 168h-2v5h-1l-.4-3.32-.54-4.37-.26-2.18A119 119 0 0 0 600 152" fill="#1B1307"/><path d="M634 677h1l.26 3.62c1.38 16.39 1.38 16.39 6.74 23.38-3.8-.78-3.8-.78-5.62-2.75A31 31 0 0 1 632 689l1-1q.34-2.77.56-5.56l.26-3.07z" fill="#D9DBDD"/><path d="M709 181h1v7l-4 2v2l-3 1-1 3h-4v2h-7q2.48-1.67 5.05-3.19c5.43-3.29 8.61-6.59 11.86-12.05z" fill="#2C1B0A"/><path d="M487 407h1q.3 5.53.56 11.06l.17 3.15c.26 5.43.29 10.44-.73 15.79-2.86-4.91-2.54-10.01-2.75-15.56l-.17-3.2-.13-3.06-.12-2.79C485 410 485 410 487 407" fill="#EEF0F1"/><path d="M645 162h1l.11 2.31c.43 6.68 1.39 12.47 3.89 18.69l-2 1-2-4-3 3c-1-1-1-1-1.19-3.19.19-2.81.19-2.81 1.13-5.56 1.32-4.06 1.7-8.01 2.06-12.25" fill="#312B1A"/><path d="m548 139 2 1-2.31 2.62c-5.55 6.79-6.29 12.8-6.69 21.38h-1v-9h-2v5h-1c-1.02-6.46 2.41-10.95 6-16a50 50 0 0 1 5-5" fill="#C5B999"/><path d="M580 132c3-.25 4.61-.23 7.25 1.31C589 135 589 135 590 138h2v2h2v2h2v2h2v2c-4.08-1.85-7.24-4.52-10.68-7.34A27 27 0 0 0 580 135z" fill="#271805"/><path d="m813 501 2 1c1.64 8.06.7 16.01-1 24l-2-1z" fill="#EDEFEC"/><path d="M492 453h1l1 7-3-.43q-5.97-.85-11.94-1.63l-2.07-.28L472 457v-1c12.49-2.85 12.49-2.85 19 1z" fill="#D6D9D8"/><path d="M661 194h4v2h8v1l14 1c-4.7 3.14-9.49 2.56-15 2a43 43 0 0 1-10-4z" fill="#C7B666"/><path d="M674 132h18v2h6v2h2l-1 4-2.08-1.06-2.73-1.38-2.71-1.37c-3.96-1.9-7.32-2.43-11.67-2.75l-3.29-.26L674 133z" fill="#31250D"/><path d="M561 133c16.89-.55 16.89-.55 24 3-1.88 1.06-1.88 1.06-4 2l-2-1-1 2-2.11-1.43c-3.15-1.71-5.66-2.25-9.2-2.76l-3.24-.48L561 134z" fill="#C7B67E"/><path d="M776.25 456.94a370 370 0 0 1 6.75.06v3l-15 1v-2l-3-1c3.75-1.2 7.33-1.1 11.25-1.06" fill="#222424"/><path d="M439 497h1v25l-3-2c-.08-2.85 0-5.43.25-8.25l.16-2.28c.32-4.2.82-8.32 1.59-12.47" fill="#EDEFF1"/><path d="M685 182c-4.04 2.69-6.75 3.14-11.5 3.12l-2.91.01C668 185 668 185 665 184v-2c13.63-1.33 13.63-1.33 20 0" fill="#30270C"/><path d="M785 614v3l-3.12-.06c-3.88.06-3.88.06-7 .62-2.97.45-5.01.2-7.88-.56 4.43-4.43 12.1-3.1 18-3" fill="#ECEEED"/><path d="M871.22 601.87c5.7.02 11.15.28 16.78 1.13v2q-4.44.09-8.88.13l-2.55.05-2.44.02-2.25.03C870 605 870 605 868 603c1-1 1-1 3.22-1.13" fill="#F4F4F7"/><path d="m594 184 3 1c-4.74 6.33-9.57 10.17-17 13h-2v-2h4v-2h4v-2h2v-2h2v-2h2v-2h2z" fill="#DFC66F"/><path d="m963 660 2 1-5.69 5.81-1.6 1.66c-3 3.03-5.8 5.69-9.71 7.53l-2-1c3.93-4.19 8.27-7.69 12.79-11.23C961 662 961 662 963 660" fill="#E3E6E4"/><path d="M976 612h3q.3 3.09.56 6.19l.32 3.48c.11 3.04.01 5.43-.88 8.33l-2 1z" fill="#F0F1F1"/><path d="M555 196h15v2h8v1q-4.34.08-8.69.12l-2.47.06c-4.41.03-7.83-.1-11.84-2.18z" fill="#D5BD6A"/><path d="M541 689c2 2 2 2 2.2 5.04l-.08 3.58-.05 3.61L543 704l-4-2c-.17-4.92-.25-8.5 2-13" fill="#D8D8DA"/><path d="M880 684c8.73-.1 17.33-.17 26 1v1q-5.65.37-11.31.69l-3.25.22-3.12.16-2.87.18c-2.45-.25-2.45-.25-4.28-1.75z" fill="#F3F6F4"/><path d="M635 668h1l.15 2q.35 4.47.73 8.94l.23 3.15.26 3 .22 2.78.41 2.13 2 1-1 3-3 1c-1.2-5.64-1.11-11.15-1.06-16.88l.01-2.95z" fill="#252729"/><path d="m588 163 2 3c-.88 3.19-.88 3.19-2 6h-2l-.44 1.88C585 176 585 176 584 178h-2v2c-1.81 1.06-1.81 1.06-4 2l-3-1 1.61-1.25c5.99-4.9 8.96-9.47 11.39-16.75" fill="#D1B971"/><path d="M754 673v3c-4.32 1.71-6.55 1.94-11 1-2.77-.26-5.54-.41-8.31-.56l-2.25-.13L727 676v-1l1.76-.08 7.93-.36 2.76-.12 2.69-.12 2.46-.11c3.17-.28 6.22-1.21 9.4-1.21" fill="#CED1CE"/><path d="M544 173c3 1 3 1 4.81 3.38 3.27 3.92 6.16 5.35 11.24 6.02q4.48.39 8.95.6v1h-15v-2h-4v-2h-2v-2h-2v-2h-2z" fill="#C1A76A"/><path d="m510.8 634.3 2.2.7v2l-1.98.73c-5.14 1.97-9.59 4-14.02 7.27 1.46-3.53 3.34-5.44 6.31-7.8l2.3-1.9c2.4-1.3 2.4-1.3 5.18-1" fill="#E1E0E3"/><path d="M653 144h2l-.87 2.04a115 115 0 0 0-3.25 10.27l-1.08 3.8-.8 2.89c-2.43-3.65-2.63-4.68-2-9a59 59 0 0 1 6-10" fill="#D0C79A"/><path d="M845 661c2 3 2 3 3.69 6.44 2.29 4.12 5.12 5.55 9.31 7.56l-1 2c-5.17-1.41-8.75-4.86-12-9-1.14-3.03-1.06-3.81 0-7" fill="#DFE4E0"/><path d="M686 181v3h-2v2h-20v-2h-2l1-2 2.16.98a25 25 0 0 0 18.03-.48z" fill="#D4BF73"/><path d="M651 151c1.5 1.12 1.5 1.12 3 3 .19 3.19.19 3.19 0 6h-2v7l-2-1-.06-5.25-.04-2.95c.09-2.46.39-4.46 1.1-6.8" fill="#2B2013"/><path d="M699 154h1v6l4-2v2h2v2h-2v2h-4v4h-2z" fill="#F4CD6D"/><path d="M586 142h4v2h2v2h-2v6l-2 1c-1.8-3.83-2.2-6.78-2-11" fill="#E2BF58"/><path d="m673.69 134.44 3 .3 2.3.26v1l-2.33.05c-7.28.33-11.93 1.45-17.66 5.95l-2.5 1.82L655 145v-3c2.08-1.8 2.08-1.8 4.8-3.62l2.72-1.85c4.02-2.47 6.58-2.58 11.17-2.1" fill="#969275"/><path d="M741 0q2.44.89 4.88 1.81l2.74 1.02C751 4 751 4 753 7l-1 3V8l-2.19-.88q-2.64-1.05-5.25-2.18A40 40 0 0 0 736 3V2h5z" fill="#D4D7D4"/><path d="M692 142h2v2h2v2h2v4h2l-1 15h-1l-.04-2.49c-.34-7.97-1.79-13.7-5.96-20.51" fill="#CAA858"/><path d="M946 673c0 3 0 3-1.44 4.56A27 27 0 0 1 933 681l-2-2 2.77-1.06 3.61-1.38 3.58-1.37C944 674 944 674 946 673" fill="#DFE2E0"/><path d="M843 649h2v15h-2a24 24 0 0 1 0-15" fill="#E1E2E3"/><path d="M689 38c-1.54 3.83-3.92 5.98-7 8.69l-2.69 2.38C677 51 677 51 675 52c.42-4.37 3.32-6.53 6.44-9.25l1.52-1.39C686.73 38 686.73 38 689 38" fill="#D6D8D9"/><path d="M719 255h1q.33 3.9.62 7.81l.2 2.24c.41 5.61.41 5.61-1.82 8.95-1.18-3.73-1.13-7.29-1.12-11.19l-.01-3.79C718 256 718 256 719 255" fill="#DDDFDE"/><path d="m554 196 2.54.96c3.69 1.11 6.99 1.45 10.84 1.66l3.77.23 2.85.15v1l-6 1v1q-2.5.06-5 0l-1-1q-2.02-.34-4.06-.56L554 200z" fill="#35250B"/><path d="M519 2v1l-1.98.08c-5.81.38-9.36 1.17-14.02 4.92l-3 2c0-3 0-3 1.36-4.64C507.28.47 511.62.51 519 2" fill="#DCDFDC"/><path d="M916 637v1h-22v-1c7.82-2.25 14.11-1.76 22 0" fill="#DCDDE1"/><path d="m822.94 606.9 3.62.04 3.63.02 2.81.04-1 2q-3.5.59-7 1-2.01.46-4 1v-2l-2-1c1-1 1-1 3.94-1.1" fill="#EBEBED"/><path d="M589 152c3 2 3 2 3.81 5.31.19 3.65-.16 5.49-1.81 8.69l-2-1z" fill="#E9C96A"/><path d="m923 632 2 2c-5.01 3.01-8.33 3.29-14 3 2.31-2.69 4.11-3.57 7.56-4.31l2.38-.55z" fill="#EFEFF3"/><path d="M811 522c2.4 3.59 3.4 6.66 3 11-2.44 2.5-2.44 2.5-5 4a210 210 0 0 1 2-15" fill="#D4D7D6"/><path d="m541 186 1.32 1.17c2.94 2.57 5.81 5 9.12 7.08L554 196v2h-2v-2h-4v-2h-4v-4h-2z" fill="#201106"/><path d="M710 152h2v2h2v24c-2.44-4.88-2.12-8.72-1.92-13.98.1-4.44-.43-7.9-2.08-12.02" fill="#291A04"/><path d="M759 658h1c1.45 6.99 1.45 6.99.18 9.87-1.12 1.63-1.12 1.63-3.18 4.13l-2-3 2-3q.55-3.5 1-7z" fill="#202420"/><path d="m472.63 457.31 2.4.24 1.98.45q.48.99 1 2l-13 1v-3c3.03-1 4.5-1.03 7.62-.69m-9.62 3.7 2 1Z" fill="#212327"/><path d="m505 671 14 1-1 2c-4.68 1.14-9.21 1.08-14 1z" fill="#282B29"/><path d="M753 7c3.32 2.81 4.85 4.41 5.94 8.69L759 19l-2 2-.88-3.31C755 14 755 14 753 11z" fill="#E7E7E8"/><path d="M976 618h1l.18 2.7.26 3.55.24 3.52c.25 2.54.6 4.79 1.32 7.23l-4 2z" fill="#C4C5C4"/><path d="M901 604c4.48-.18 8.03-.22 12 2l1 3a52 52 0 0 1-12-3z" fill="#EFF2F2"/><path d="M720 271c3.45 2.67 4.04 5.87 5 10v3l-3-1c-1.81-4.09-2.21-7.56-2-12" fill="#EDF1ED"/><path d="M534 258h1l1 6h1c.37 7.51.37 7.51-1.5 10l-1.5 1c-1.22-3.67-.88-6.34-.56-10.19z" fill="#2F3132"/><path d="M512 0h11v2h2v2l-14-2z" fill="#F1F5F1"/><path d="M710 690c2.07 2.28 2.98 3.44 3.07 6.58l-.38 2.67-.37 2.7L712 704l-4-1 1-2q.34-2.81.56-5.62l.26-3.04z" fill="#EFF2EF"/><path d="M531 675v3q-2.9.08-5.81.12l-3.27.08C519 678 519 678 516 676a92 92 0 0 1 15-1" fill="#E9ECEC"/><path d="M532 265c2 2 2 2 2.05 4.09l-.3 2.41-.27 2.41C533 276 533 276 531 278c-.85-3.41-1.08-5.65 0-9l.56-2.25z" fill="#DBDDDD"/><path d="M575 46c4.93 2.01 8.09 5.64 11 10-3.72 0-4.45-.9-7.19-3.31l-2.17-1.87C575 49 575 49 575 46" fill="#DDE0DE"/><path d="m693 199-1 3h-12c5.01-3.75 7-4.5 13-3" fill="#292011"/><path d="M857 676c4.61.72 8.67 2.31 13 4-1.7 1.12-1.7 1.12-4 2-2.36-.68-2.36-.68-4.75-1.88l-2.42-1.17L857 678z" fill="#E4E7E4"/><path d="M761 373c2.33 3.63 2.16 6.77 2 11h-3a220 220 0 0 1-.62-4.38l-.36-2.46L759 375z" fill="#E5E8E5"/><path d="M519 301c1.02 2.65 1.13 3.69 0 6.36l-1.44 2.39-1.43 2.42L515 314h-2c1.41-4.83 3.43-8.72 6-13" fill="#EBEEEF"/><path d="M754 217a15 15 0 0 1 2 4c-.68 2.14-.68 2.14-1.88 4.25l-1.17 2.14L752 229l-3-1 .84-1.64 1.1-2.17 1.09-2.15C753 220 753 220 754 217" fill="#D8DAD9"/><path d="M756 209h4q-.38 2.22-.81 4.44l-.46 2.49L758 218l-3 1z" fill="#E3E6E6"/><path d="M491 655a30 30 0 0 1 3.12 8.75l.51 2.42.37 1.83h-3c-1.32-2.64-1.1-4.68-1.06-7.62l.02-3.04z" fill="#2A2D2E"/><path d="M480 454v2l-13 1v-2q2.4-.55 4.81-1.06l2.71-.6C477 453 477 453 480 454" fill="#EFF1F3"/><path d="M504 338h2c.2 4.22-.2 7.17-2 11h-3a40 40 0 0 1 3-11" fill="#26292B"/><path d="M496 210h1l.88 3.56q1.44 5.75 3.12 11.44c-3-1-3-1-4.18-2.73-.96-2.65-1.02-4.71-.94-7.52l.05-2.7z" fill="#D5D7D7"/><path d="M586 164h2l-3 9h-3a85 85 0 0 1 2-7h2z" fill="#241B08"/><path d="m617 696 1 3c-1.44 2.69-1.44 2.69-3 5l-4-1c3.75-5.88 3.75-5.88 6-7" fill="#EBEBED"/><path d="M554 668c-.56 1.94-.56 1.94-2 4-3.5.88-3.5.88-7 1l-2-2 3.81-1.5 2.15-.84C551 668 551 668 554 668" fill="#DDDEDC"/><path d="M753 355c2.21 3.8 3.01 7.76 4 12-1.94-.56-1.94-.56-4-2-.91-3.86-1.26-6.22 0-10" fill="#30332F"/><path d="M500 343h1q-.17 2.68-.38 5.38l-.21 3.02C500 354 500 354 498 356c-1.71-4.98-.01-8.43 2-13" fill="#DBDDDD"/><path d="m696 192 3 1c-2.32 2.68-4.32 3.66-7.69 4.69l-2.45.76-1.86.55-1-3 3.31-.44C693 195 693 195 696 194z" fill="#E0C771"/><path d="M710 174h2l-1.31 4.31-.74 2.43A12.6 12.6 0 0 1 706 186v-4h2v-6h2z" fill="#E4C770"/><path d="m652 171 1.62 2.19c2.59 3.06 5.25 5.32 8.38 7.81l-4 1v-2h-2v-2h-2v-2h-2z" fill="#D2B972"/><path d="M635 695h2l5 9c-4-1-4-1-5.75-2.81C635 699 635 699 635 695" fill="#E3E5E6"/><path d="m707 684 4 2-1 15h-1l-.18-2.45-.26-3.24-.24-3.2c-.28-2.76-.72-5.4-1.32-8.11" fill="#C7CBC7"/><path d="M765 615c2.31.19 2.31.19 4 1-2 3-2 3-5 5-2.19-.38-2.19-.38-4-1 2.25-2.56 2.25-2.56 5-5" fill="#D5D8D3"/><path d="M791 608q1.53 1.47 3 3v1l-11 1 1-2 2 1v-2z" fill="#1C1E1F"/><path d="M440 516h1v15l-3-3c.14-2.92.14-2.92.81-6.19l.65-3.29z" fill="#E1E2E3"/><path d="M707 25v3c-2 1.69-2 1.69-4 3l-2-1c.75-1.94.75-1.94 2-4 2.12-.75 2.12-.75 4-1" fill="#1C1E1F"/><path d="M661 194h4v2h8l-2 3-4.44-1.38-2.49-.77C662 196 662 196 661 194" fill="#D2BB69"/><path d="M646 161c2.66 3.98 2.66 3.98 3 7-.94 3.25-.94 3.25-2 6h-1z" fill="#E7D176"/><path d="M688 136c2.96.61 4.38 1.25 7 3-2 2-2 2-4 3l-3-2z" fill="#E2C35F"/><path d="m751 624 3 1c-2.31 2.5-2.31 2.5-5 5h-3c1.13-3.4 1.97-4.22 5-6" fill="#232624"/><path d="M454 574c3 1 3 1 4.19 2.88.81 2.12.81 2.12.81 5.12-3-1-3-1-4.69-4.06L453 575z" fill="#EAECEA"/><path d="M490 378c2.24 3.35 2.17 3.91 1.62 7.69l-.33 2.45L491 390c-2-1-2-1-2.75-3.19-.3-3.39.51-5.67 1.75-8.81" fill="#E1E2E3"/><path d="M648 168h2c2 3 2 3 2 6h-2v2h-2z" fill="#EBCC67"/><path d="M580 132c3.15-.26 4.62-.25 7.31 1.5L589 135l-1 1c-2.69-.18-5.33-.62-8-1z" fill="#1B1307"/><path d="m672 130 10 1v1l-15 2 1-2h4z" fill="#0F0D04"/><path d="M732 0h9v2l-10 1z" fill="#F2F3F3"/><path d="M618 662h13l-3 3c-2.48-.14-2.48-.14-5.19-.81l-2.73-.65L618 663z" fill="#F9FBF7"/><path d="m792 613-2 3-9-2v-1c7.43-1.29 7.43-1.29 11 0" fill="#DBDEDE"/><path d="m973 604 3 1c1.19 3.56 1.19 3.56 2 7l-3 1z" fill="#E9EAEA"/><path d="M759 451c3 3 3 3 3.19 6.19L762 460l-4 1z" fill="#D0D3D1"/><path d="M763 445c.69 1.62.69 1.62 1 4-1.44 3.25-1.44 3.25-3 6h-1q.17-2.22.38-4.44l.21-2.49.41-2.07z" fill="#F0F2F1"/><path d="m552 176 1.06 1.44c2.78 2.24 5.45 2.23 8.94 2.56v1c-6.28 1.35-6.28 1.35-9.94-.44L550 179l2-1z" fill="#2A1D0C"/><path d="M657 176h5v4l2 1-2 1a107 107 0 0 1-5-4z" fill="#231709"/><path d="m750 630-2 4h-2l1 3-4-1c3.38-6 3.38-6 7-6" fill="#EEF1EE"/><path d="M876 630c3.37.55 5.08 1.05 8 3v2c-2.88-.25-2.88-.25-6-1-1.38-2.06-1.38-2.06-2-4" fill="#E5E8E9"/><path d="M492 453h1l1 7-7-1 3-2c1.19-2.12 1.19-2.12 2-4" fill="#CDD0CC"/><path d="M750 346c2.13 3.19 2.5 5.27 3 9l-2 1v-3h-2z" fill="#222522"/><path d="m695 163 3 3c-1.39 3.37-2.98 4.99-6 7 .79-3.41 1.87-6.69 3-10" fill="#2D2617"/><path d="m552 137-8 7-1-2c1-3 1-3 3.38-4.75C549 136 549 136 552 137" fill="#100E0A"/><path d="M954 670c-1 3-1 3-3.44 4.75L948 676l-2-1c4.62-5 4.62-5 8-5" fill="#EAEDE9"/><path d="M845 661a77 77 0 0 1 5 9c-1.88-.19-1.88-.19-4-1-1.31-2.38-1.31-2.38-2-5z" fill="#C9CBCA"/><path d="m491 666 7 6-1 2c-3.37-1.39-4.99-2.98-7-6z" fill="#D4D6D7"/><path d="M809 518h1l1 10-1-2h-2q-.06-3.5 0-7z" fill="#1E2120"/><path d="m582 175 2 1v2h-2v2c-1.81 1.06-1.81 1.06-4 2l-3-1z" fill="#C5B365"/><path d="M581 143h3c3 4.22 3 4.22 3 7h-3v-4l-4-1z" fill="#2A1E09"/><path d="M690 40v3c-5.14 4-5.14 4-9 4 2.22-3.51 4.1-4.66 8-6z" fill="#1D1F1E"/><path d="m914.63 683.88 3.38.12-1 3-8-1c2-2 2-2 5.62-2.12" fill="#F3F5F4"/><path d="m928 565 9 3-1 2c-5.75-1.62-5.75-1.62-8-5" fill="#E5E5E7"/><path d="M859 559q2.5.52 5 1v1h-11v-2c3-1 3-1 6 0" fill="#D3D3D6"/><path d="M743 320c1.56 1.62 1.56 1.62 3 4-.31 3.25-.31 3.25-1 6a15.6 15.6 0 0 1-3-8z" fill="#E0E0E3"/><path d="m512 314 3 1-4 8h-1c.88-6.75.88-6.75 2-9" fill="#DDDFE0"/><path d="M588 140c3.27.56 4.83 1.5 7 4l-1 3-2-1v-2h-2v-3z" fill="#D3B764"/><path d="m756 642 5 5-1 3h-2z" fill="#EEEEF0"/><path d="M913 560v3l-11-1v-1a51 51 0 0 1 11-1" fill="#C0C1C3"/><path d="M446 472h2c-1.75 5.75-1.75 5.75-4 8-1-3-1-3 .31-5.69z" fill="#DEE0E2"/><path d="m587 194 1 4c-2.88.62-2.88.62-6 1l-2-2z" fill="#2D1D0A"/><path d="M542 145c-1.19 3.38-2.28 5.65-5 8-.75-1.75-.75-1.75-1-4 3.22-4 3.22-4 6-4" fill="#16120C"/><path d="m749 3 4 4-1 3V8l-5-2V4z" fill="#DCDEDB"/><path d="m508 1 11 1v1l-13 1z" fill="#CED1CE"/><path d="M939 677v3c-2.88.62-2.88.62-6 1l-2-2c5.75-2 5.75-2 8-2" fill="#D2D5D3"/><path d="M712 673c2.73.03 5.3.56 8 1-2.65 1.46-3.89 2-7 2l-3-1z" fill="#E0E4E0"/><path d="M764 658c.69 1.81.69 1.81 1 4-1.44 1.75-1.44 1.75-3 3v-6z" fill="#F4F7F4"/><path d="m805 551 2 2c-.38 2.62-.38 2.62-1 5l-3 1z" fill="#CFD2D3"/><path d="M651 151c3 3 3 3 3.19 6.19L654 160h-2z" fill="#1F1D0D"/><path d="m568 41 8 4-2 3z" fill="#E9ECE9"/><path d="m732.19 4.38 1.8.62c-.81.5-.81.5-5 3q-.97-1-2-2c3-2 3-2 5.2-1.62" fill="#0F0E12"/></svg>