<svg style="background:transparent" version="1.1" xmlns="http://www.w3.org/2000/svg" viewBox="0 0 1248 704"><path d="M509 0q3.06-.12 6.12-.19l3.45-.1c8.84.75 16.54 8.05 22.33 14.36l1.54 1.87C545 19 545 19 546.95 19.95c2.5 1.28 3.73 2.81 5.49 4.99A29 29 0 0 0 561 32l4 5 2.44 1.44c3.26 1.99 5.13 4.63 7.56 7.56q2 1.02 4 2 2.03 2.48 4 5c3.5 3.46 6.96 3.46 11.64 3.48l2.32.05q3.78.06 7.58.08l5.29.05 11.1.06q7.08.04 14.16.17 5.48.09 10.94.08 2.61.01 5.22.07c15.26.33 15.26.33 21.71-5.43q2.07-2.26 4.04-4.61 1.47-1.37 2.99-2.67c6.56-5.87 6.56-5.87 9.51-8.89a79 79 0 0 1 6.81-5.82c4.81-3.77 9.21-7.89 13.63-12.12C728.99-.64 728.99-.64 740.34-.38c6.07.86 10.85 4.22 15.04 8.57 6.94 9.3 6.04 20.7 5.99 31.74l.01 5.41q.01 7.32-.01 14.63l-.01 15.34-.02 25.73q-.04 14.86-.02 29.74l-.01 28.64-.01 12.18q.01 7.16-.02 14.33v5.25l-.02 7.18.01 2.1c-.04 4.22-.8 7.59-2.27 11.54l-.31 2.75c-1.8 8.48-7.15 17.58-13.69 23.25h-2l-.77 1.79c-3.93 7.08-13.17 12.68-20.23 16.21-2.96 5.93-.63 13.45 1.14 19.44 1.1 3.28 2.46 6.4 3.86 9.56l1.44 4.56c1.28 3.97 3.11 7.04 5.56 10.44a74 74 0 0 1 3.31 7.12c1.25 2.94 2.62 5.78 4.07 8.63 5.11 10.14 9.59 20.28 12.62 31.25 1.32 4.67 2.64 9.19 4.62 13.62a24 24 0 0 1 1.94 7.5c.39 3.46 1.16 5.72 2.44 8.88a93 93 0 0 1 0 5l1 2q.3 2.71.5 5.44c.23 3.12.5 5.57 1.5 8.56.07 2.29 0 4.56-.06 6.84C766 407 766 407 767 410q.15 3.88.12 7.75l.02 2.09c-.03 12.05-.03 12.05-2.14 14.16-.07 2.26 0 4.51.06 6.77C765 443 765 443 764 446q-.57 2.84-1.06 5.69l-.54 3.01-.4 2.3 3.69-1.5c6.97-2.31 15.38-3.05 22.31-.19 10.52 5.92 20.17 13.09 23.74 25.2.51 2.49.89 4.97 1.26 7.49l1.06 4.88A89 89 0 0 1 815 521l-.44 5.81A42 42 0 0 1 812 538l-.5 3.5a49 49 0 0 1-2.5 9.5q-1.18 4.25-2.32 8.51A96 96 0 0 1 805 565l2.25-.56c2.79-.45 4.08-.11 6.75.56l5-1q2.82-.2 5.65-.28l3.27-.11 3.46-.11c7.42-.25 14.83-.53 22.24-1.06 6.01-.43 11.78-.83 17.76.06 2.87.4 5.24.5 8.1.42 5.93-.03 11.57.86 17.4 1.89l3.21.56c20.13 3.56 44.26 10.2 57.57 26.97 1.34 1.66 1.34 1.66 3.96 4.22 9.99 10.25 12.75 23.64 13.38 37.44l-1 3-.44 3.38A31 31 0 0 1 971 649l-.8 2.29c-2.42 5.47-6.53 10.02-10.2 14.71l-1.59 2.21c-7.12 9.25-19.08 14.81-29.41 19.79l-2.54 1.23A41 41 0 0 1 914 693l-2.81 1c-4.05 1.27-7.98 1.61-12.19 2-7.83.83-7.83.83-9 2q-3.46.14-6.92.13l-2.11.01-4.44-.01-6.76.01-4.32-.01h-3.96A43 43 0 0 1 853 697l-2.69-.31c-8.6-1.79-16.01-5.5-22.31-11.69-1.14-2-1.14-2-2-4l-1.81-3.56c-2.43-6.52.74-12.6 3.06-18.75 5.19-7.98 12.97-11.42 22.04-13.41A49 49 0 0 1 866 645c3.71.15 7.41.14 11.12.12l2.96.02 2.87-.01h2.57c2.58-.14 4.96-.6 7.48-1.13l3.69-.31c8.15-.99 16.46-4.72 22.19-10.63 1.41-2.59 1.41-4.14 1.12-7.06l-.25-2.69c-.75-2.31-.75-2.31-2.31-3.43L915 619l-1.8-.71c-4.33-1.7-8.7-3.06-13.2-4.29l-3.31-1.06a65 65 0 0 0-11.26-1.69c-2.43-.25-2.43-.25-4.62-.76-3.46-.6-6.76-.62-10.28-.62l-2.17-.01-4.55.01-6.83-.01c-11.09 0-21.99.54-32.98 2.14l-6.06.5c-4.03.32-7.96.78-11.94 1.5-4.52.61-9.01 1.08-13.56 1.44-3.26.28-5.9.69-9.06 1.62-3.03.84-4.72.97-7.76.82-9.17-.18-15.26 5.12-21.62 11.12-5.64 5-5.64 5-8 5v2l1.66.26c6.08 1.93 11.7 7.05 14.98 12.43 2.45 6.06 3.31 11.98 1.36 18.31-2.06 2.81-2.06 2.81-5 5l-1.72 1.37c-5.54 4.02-10.57 4.51-17.28 4.63l-3.29.12c-11.9.24-23.55-.81-34.71-5.12l-1 1 2.81 2.12c3.13 2.63 4.64 5.05 6.19 8.88l.88 2.14c2.33 6.16 2.23 10.54.12 16.86q-13.79.1-27.56.16-6.4.01-12.8.07-6.18.05-12.36.05l-4.71.04-6.6.02-3.79.02c-3.44-.39-4.77-.94-7.18-3.36a46.6 46.6 0 0 1-5-26l1-2q.06-3 0-6v-2l-13 1 1 4q.06 2.1 0 4.19V678l1 1c.29 5.54-.35 9.67-2 15l-.44 3.75c-.56 3.25-.56 3.25-1.65 4.93-2.95 2.04-5.5 1.68-9.04 1.66h-2.19q-3.58 0-7.16-.05l-4.96-.01q-6.53-.02-13.07-.07-6.66-.04-13.33-.06L541 704l-1.04-4.8-.58-2.7c-.83-5.46 1.89-9.92 4.62-14.5 2.79-3.56 5.78-6.83 9-10-3.23 0-4.96.68-7.94 1.88-12.52 4.65-24.76 4.67-37.87 3.37l-2.18-.19c-6.07-.68-9.91-3.02-14.32-7.31-3.44-5.6-3.05-11.52-1.69-17.75 1.96-2.98 1.96-2.98 4.38-5.75l2.39-2.8c3.36-3.69 5.46-5.77 10.23-7.45a61 61 0 0 0-6.75-6.12L497 628v-2l-1.65-.2c-3.29-1.12-5.44-3.27-7.91-5.61l-1.6-1.5a166 166 0 0 1-22.72-26.31l-1.62-2.35A135 135 0 0 1 452 573l-2.19-4.25a54 54 0 0 1-4.27-11.66 83 83 0 0 0-1.98-6.34 83 83 0 0 1-4.31-19.67c-.25-2.1-.73-4.03-1.25-6.08-2.9-18.16-.91-41.73 10-57 6.7-7.95 16.98-13.99 27.38-15.05 5.04.09 9.82 1.61 14.62 3.05l-.4-1.94c-1.02-5.01-1.9-9.99-2.6-15.06l-.49-2.11c-.72-4.09-.92-8.18-1.13-12.33l-.16-2.52A51 51 0 0 1 486 409q.06-2.72 0-5.44c-.04-4.3.26-8.31 1-12.56l.44-3.56c.56-3.44.56-3.44 1.56-6.38.98-3.01 1.32-5.82 1.66-8.95.35-2.18.93-4.09 1.65-6.17a423 423 0 0 0 3.44-10.42l.9-2.84.91-2.87 2.68-8.42 1.78-5.64c1.18-3.31 2.61-6.44 4.1-9.63l.92-1.94a626 626 0 0 1 8.21-16.64c2.09-4.12 3.96-8.28 5.75-12.54 1.81-4.15 3.63-8.27 5.69-12.31A27 27 0 0 0 529 276l1.06-3.06c1.38-4.81 1.67-10 .94-14.94-1.28-1.61-1.28-1.61-3-3l-1.87-1.72c-3.56-3.16-6.98-5.91-11.13-8.28-1.5-1.38-1.5-1.38-3-3l-2.62-2.5C507 237 507 237 506 234l-1.9-.93c-5.05-2.57-7.67-10.5-9.43-15.71-3.12-10.95-2.97-22.23-2.96-33.51l-.02-5.37q-.03-7.25-.02-14.49l-.02-9.06-.02-31.66q0-14.73-.05-29.46-.04-12.68-.04-25.35l-.02-15.12q-.03-7.1-.01-14.2l-.01-5.2c-.12-17.74-.12-17.74 6.72-25.44l2.28-1.94 2.28-1.99A13 13 0 0 1 509 2zm187 670 1 2 2-1z" fill="#161917"/><path d="M855.66 565.76q5.45-.02 10.9-.07c17.18-.08 33.58 1.11 50.13 6l2.62.76c11.5 3.52 22.51 8.68 31.7 16.55l2.18 1.66c8.91 7.11 16.46 19.06 18.12 30.5.16 2.29.21 4.54.2 6.84l-.03 2.49c-.48 16.84-7.68 29.55-19.69 41.13-12.5 10.68-27.89 16.55-43.78 19.94q-2.85.64-5.7 1.35c-9.64 2.09-19.18 2.41-29 2.47l-3.92.04c-12.45-.06-27.3-1.17-37.04-9.9-4.67-5.26-5.84-10.11-5.66-16.97.85-7.12 4.75-11.44 10.02-16.01 6.55-4.41 11.96-4.96 19.7-4.91l6.13-.05 9.56-.02c35.16-.04 35.16-.04 47.9-11.18 2.31-3.91 2.94-6.43 2.64-10.92-.99-3.79-2.68-5.54-5.78-7.86-17.52-9.78-36.5-9.98-56.05-9.91h-3.4c-14.9.04-29.36.5-44.1 2.83-6.6.96-13.24 1.66-19.87 2.4q-3.57.39-7.13.81c-7.12.81-14.13 1.51-21.3 1.27q1.42-1.76 2.86-3.5l1.62-1.97L771 608h2l.7-1.58c1.77-3.3 4.02-6.2 6.3-9.17l1.37-1.82c1.16-1.52 2.4-2.98 3.63-4.43h2l.3-1.63c.91-3.07 2.42-5.5 4.07-8.24 1.9-3.15 3.57-5.98 4.84-9.43 1.8-2.7 1.8-2.7 5.46-3.69q2.25-.2 4.52-.32l2.15-.18q2.4-.2 4.81-.34 3.03-.18 6.07-.42c12.14-.9 24.27-.97 36.44-.99" fill="#151716"/><path d="M509 0q3.06-.12 6.12-.19l3.45-.1c8.84.75 16.54 8.05 22.33 14.36l1.54 1.87C545 19 545 19 546.95 19.95c2.5 1.28 3.73 2.81 5.49 4.99A29 29 0 0 0 561 32l4 5 2.44 1.44c3.26 1.99 5.13 4.63 7.56 7.56q2 1.02 4 2 2.03 2.48 4 5c3.5 3.46 6.96 3.46 11.64 3.48l2.32.05q3.78.06 7.58.08l5.29.05 11.1.06q7.08.04 14.16.17 5.48.09 10.94.08 2.61.01 5.22.07c15.26.33 15.26.33 21.71-5.43q2.07-2.26 4.04-4.61 1.47-1.37 2.99-2.67c6.56-5.87 6.56-5.87 9.51-8.89a79 79 0 0 1 6.81-5.82c4.81-3.77 9.21-7.89 13.63-12.12C728.99-.64 728.99-.64 740.34-.38c6.07.86 10.85 4.22 15.04 8.57 6.94 9.3 6.04 20.7 5.99 31.74l.01 5.41q.01 7.32-.01 14.63l-.01 15.34-.02 25.73q-.04 14.86-.02 29.74l-.01 28.64-.01 12.18q.01 7.16-.02 14.33v5.25l-.02 7.18.01 2.1c-.04 4.22-.8 7.59-2.27 11.54l-.31 2.75c-1.8 8.48-7.15 17.58-13.69 23.25h-2l-.77 1.79c-3.93 7.08-13.17 12.68-20.23 16.21-2.96 5.93-.63 13.45 1.14 19.44 1.1 3.28 2.46 6.4 3.86 9.56l1.44 4.56c1.28 3.97 3.11 7.04 5.56 10.44a74 74 0 0 1 3.31 7.12c1.25 2.94 2.62 5.78 4.07 8.63 5.11 10.14 9.59 20.28 12.62 31.25 1.32 4.67 2.64 9.19 4.62 13.62a24 24 0 0 1 1.94 7.5c.39 3.46 1.16 5.72 2.44 8.88a93 93 0 0 1 0 5l1 2q.3 2.71.5 5.44c.23 3.12.5 5.57 1.5 8.56.07 2.29 0 4.56-.06 6.84C766 407 766 407 767 410q.15 3.88.12 7.75l.02 2.09c-.03 12.05-.03 12.05-2.14 14.16-.07 2.26 0 4.51.06 6.77C765 443 765 443 764 446q-.57 2.84-1.06 5.69l-.54 3.01-.4 2.3 3.69-1.5c6.97-2.31 15.38-3.05 22.31-.19 10.52 5.92 20.17 13.09 23.74 25.2.51 2.49.89 4.97 1.26 7.49l1.06 4.88A89 89 0 0 1 815 521l-.44 5.81A42 42 0 0 1 812 538l-.5 3.5a49 49 0 0 1-2.5 9.5q-1.18 4.25-2.32 8.51A96 96 0 0 1 805 565l2.25-.56c2.79-.45 4.08-.11 6.75.56l5-1q2.82-.2 5.65-.28l3.27-.11 3.46-.11c7.42-.25 14.83-.53 22.24-1.06 6.01-.43 11.78-.83 17.76.06 2.87.4 5.24.5 8.1.42 5.93-.03 11.57.86 17.4 1.89l3.21.56c20.13 3.56 44.26 10.2 57.57 26.97 1.34 1.66 1.34 1.66 3.96 4.22 9.99 10.25 12.75 23.64 13.38 37.44l-1 3-.44 3.38A31 31 0 0 1 971 649l-.8 2.29c-2.42 5.47-6.53 10.02-10.2 14.71l-1.59 2.21c-7.12 9.25-19.08 14.81-29.41 19.79l-2.54 1.23A41 41 0 0 1 914 693l-2.81 1c-4.05 1.27-7.98 1.61-12.19 2-7.83.83-7.83.83-9 2q-3.46.14-6.92.13l-2.11.01-4.44-.01-6.76.01-4.32-.01h-3.96A43 43 0 0 1 853 697l-2.69-.31c-8.6-1.79-16.01-5.5-22.31-11.69-1.14-2-1.14-2-2-4l-1.81-3.56c-2.43-6.52.74-12.6 3.06-18.75 5.19-7.98 12.97-11.42 22.04-13.41A49 49 0 0 1 866 645c3.71.15 7.41.14 11.12.12l2.96.02 2.87-.01h2.57c2.58-.14 4.96-.6 7.48-1.13l3.69-.31c8.15-.99 16.46-4.72 22.19-10.63 1.41-2.59 1.41-4.14 1.12-7.06l-.25-2.69c-.75-2.31-.75-2.31-2.31-3.43L915 619l-1.8-.71c-4.33-1.7-8.7-3.06-13.2-4.29l-3.31-1.06a65 65 0 0 0-11.26-1.69c-2.43-.25-2.43-.25-4.62-.76-3.46-.6-6.76-.62-10.28-.62l-2.17-.01-4.55.01-6.83-.01c-11.09 0-21.99.54-32.98 2.14l-6.06.5c-4.03.32-7.96.78-11.94 1.5-4.52.61-9.01 1.08-13.56 1.44-3.26.28-5.9.69-9.06 1.62-3.03.84-4.72.97-7.76.82-9.17-.18-15.26 5.12-21.62 11.12-5.64 5-5.64 5-8 5v2l1.66.26c6.08 1.93 11.7 7.05 14.98 12.43 2.45 6.06 3.31 11.98 1.36 18.31-2.06 2.81-2.06 2.81-5 5l-1.72 1.37c-5.54 4.02-10.57 4.51-17.28 4.63l-3.29.12c-11.9.24-23.55-.81-34.71-5.12l-1 1 2.81 2.12c3.13 2.63 4.64 5.05 6.19 8.88l.88 2.14c2.33 6.16 2.23 10.54.12 16.86l-3-1 .14-2.78c.26-8.93.07-14.73-6.13-21.34A50 50 0 0 0 687 669v-8l1.84 1.1a120 120 0 0 0 17.41 8.21l2 .77c8.77 3.23 17.4 3.13 26.63 3.17l3.72.06c13.7.06 13.7.06 19.4-3.31 3.22-4.87 2.7-11.38 2-17-2.85-7.64-9.36-12.8-16.44-16.38L740 636q4.15-3.35 8.38-6.62l1.79-1.4 3.66-2.83a46 46 0 0 0 7.46-6.87c4.02-3.38 7.98-3.66 13.09-4.34l3.2-.47c14.71-2.08 29.53-3.45 44.32-4.85 3.16-.3 6.29-.65 9.43-1.16 4.93-.62 9.8-.64 14.76-.66l3.23-.02 6.75-.02q5.09-.02 10.18-.07c11.63-.06 22.48.23 33.75 3.31l2.31.59c7.97 2.17 15.88 5.39 20.69 12.41 1.33 4.39 1.07 7.99-1.09 12.05-6.77 8.76-18.44 11.37-28.91 12.95-8.98.71-18.04.48-27.04.42q-4.64-.02-9.26.01l-2.81-.05c-7.59.06-14.18 2.19-19.84 7.42-4.98 5.45-6.53 10.29-6.37 17.63.65 5.23 2.87 9.04 6.44 12.82 21.19 12.89 51.94 9.53 75.11 4.23 17.88-4.45 33.62-11.11 46.77-24.48l1.77-1.77c10.42-11.24 13.12-25.81 12.64-40.63-.41-6.23-2.33-11.21-5.41-16.6l-1.54-2.86c-10.08-17.31-28.51-26.32-47.23-31.48q-2.58-.69-5.17-1.35l-2.38-.61A202 202 0 0 0 901 569l-2.82-.58c-12.39-2.15-24.96-1.72-37.49-1.67l-3.68.01c-19.4.03-38.68.59-58.01 2.24 1.36-4.14 2.73-8.27 4.25-12.35 8.33-22.9 13.76-55.22 3.46-78.16-4.75-9.83-10.05-15.69-20.4-19.61-9.73-2.58-18.93-.97-28.31 2.12l.26-1.86 1.18-8.52.41-2.92c7.08-51.53-4.46-99.04-28.76-144.73-6.36-12.1-13.05-25.51-13.47-39.41l-.14-3.37c1.03-6.31 7.03-9.49 11.9-13.13 15.09-11.5 24.2-22.8 27.62-42.06.54-6.06.41-12.16.39-18.23l.01-5.44q.02-7.34 0-14.67l.01-15.4-.02-25.82q-.02-14.92.01-29.83V69.94l.01-15.31q.01-7.18-.02-14.37l.01-5.27q.01-3.6-.02-7.21l.02-2.09c-.09-7.68-3.04-13.21-8.4-18.69-5.23-3.73-10.8-3.89-17-3-3.15 1.11-5.42 2.89-8 5l-1.58 1.29a225 225 0 0 0-18.64 16.92 132 132 0 0 1-7.65 6.94q-3.6 3.14-7.13 6.35c-7.41 6.69-7.41 6.69-10.99 9.69C676 52 676 52 674.51 53.82c-3.66 4.14-6.92 5.59-12.46 6.06-4.1.19-8.2.23-12.31.23l-5.39.05q-5.64.05-11.27.03-7.18 0-14.35.16-5.56.08-11.13.06-2.64.01-5.28.07c-8.58.19-15.34.14-22.05-5.7-2.56-2.48-4.91-5.1-7.27-7.78a128 128 0 0 0-4.12-3.62c-4.15-3.59-8.18-7.29-12.23-10.98q-4.18-3.75-8.43-7.42a270 270 0 0 1-5.29-4.87C525.37 3.54 525.37 3.54 512.86 3.65c-5.72.7-9.37 3.78-13.24 7.85-3.26 5.02-3.91 9.28-3.89 15.19l-.01 2.32-.01 7.7-.02 5.53q-.03 7.5-.02 15l-.02 9.39-.02 32.78q0 15.25-.05 30.5-.04 13.11-.04 26.22l-.02 15.65q-.03 7.36-.01 14.73l-.01 5.38c-.11 17.5 3.3 32.12 15.48 45.28 5.88 5.75 12.7 10.56 19.28 15.48 3.68 2.86 3.68 2.86 4.15 6.48.23 10.08-1.47 17.7-5.54 26.89a209 209 0 0 0-2.44 5.8 199 199 0 0 1-9.34 19.41c-10.7 19.66-18.13 40.96-23.09 62.77l-.63 2.75c-5.27 23.83-5.15 49.18-.73 73.15.58 3.35.97 6.72 1.36 10.1-3.47-.46-6.67-.89-10-2-9.76-.78-17.67-.75-26 5l-3.25 2.19c-11.55 11.81-14.01 28.1-13.93 43.98.32 22.89 5.68 45.46 16.18 65.83l.98 1.91c11.63 22.4 32.08 46.62 55.02 58.09v2l-1.94.66c-7.52 2.76-13.35 5.96-17.5 13.03-2.2 4.96-2.36 9.98-1.56 15.31 2.21 4.43 5.05 5.73 9.63 7.38 4.4 1.15 8.78 1.06 13.31 1l3.06-.04c15.63-.33 27.97-3.63 42-10.34q2.49-1.03 5-2v8l-1.94.88c-7.7 3.65-14.67 7.52-18.35 15.55-1.57 5.68-1.56 11.71-1.71 17.57h-2c-2.51-7.22-2-12.11 1.22-19.02 2.94-4.93 6.7-8.97 10.78-12.98-3.23 0-4.96.68-7.94 1.88-12.52 4.65-24.76 4.67-37.87 3.37l-2.18-.19c-6.07-.68-9.91-3.02-14.32-7.31-3.44-5.6-3.05-11.52-1.69-17.75 1.96-2.98 1.96-2.98 4.38-5.75l2.39-2.8c3.36-3.69 5.46-5.77 10.23-7.45a61 61 0 0 0-6.75-6.12L497 628v-2l-1.65-.2c-3.29-1.12-5.44-3.27-7.91-5.61l-1.6-1.5a166 166 0 0 1-22.72-26.31l-1.62-2.35A135 135 0 0 1 452 573l-2.19-4.25a54 54 0 0 1-4.27-11.66 83 83 0 0 0-1.98-6.34 83 83 0 0 1-4.31-19.67c-.25-2.1-.73-4.03-1.25-6.08-2.9-18.16-.91-41.73 10-57 6.7-7.95 16.98-13.99 27.38-15.05 5.04.09 9.82 1.61 14.62 3.05l-.4-1.94c-1.02-5.01-1.9-9.99-2.6-15.06l-.49-2.11c-.72-4.09-.92-8.18-1.13-12.33l-.16-2.52A51 51 0 0 1 486 409q.06-2.72 0-5.44c-.04-4.3.26-8.31 1-12.56l.44-3.56c.56-3.44.56-3.44 1.56-6.38.98-3.01 1.32-5.82 1.66-8.95.35-2.18.93-4.09 1.65-6.17a423 423 0 0 0 3.44-10.42l.9-2.84.91-2.87 2.68-8.42 1.78-5.64c1.18-3.31 2.61-6.44 4.1-9.63l.92-1.94a626 626 0 0 1 8.21-16.64c2.09-4.12 3.96-8.28 5.75-12.54 1.81-4.15 3.63-8.27 5.69-12.31A27 27 0 0 0 529 276l1.06-3.06c1.38-4.81 1.67-10 .94-14.94-1.28-1.61-1.28-1.61-3-3l-1.87-1.72c-3.56-3.16-6.98-5.91-11.13-8.28-1.5-1.38-1.5-1.38-3-3l-2.62-2.5C507 237 507 237 506 234l-1.9-.93c-5.05-2.57-7.67-10.5-9.43-15.71-3.12-10.95-2.97-22.23-2.96-33.51l-.02-5.37q-.03-7.25-.02-14.49l-.02-9.06-.02-31.66q0-14.73-.05-29.46-.04-12.68-.04-25.35l-.02-15.12q-.03-7.1-.01-14.2l-.01-5.2c-.12-17.74-.12-17.74 6.72-25.44l2.28-1.94 2.28-1.99A13 13 0 0 1 509 2zm187 670 1 2 2-1z" fill="#E7E9E9"/><path d="M673 495h1c1.16 7.47-2.75 12.12-7 18-2.89 3.91-6 7.19-10 10h-2v2l-8.85 5.16C641.23 533 641.23 533 639 533l.18 1.91c1.69 18.71 2.17 37.27 2.14 56.03q-.01 4.63.02 9.25c.24 42.47.24 42.47-4.34 60.81h-22a404 404 0 0 1-4-49l-.03-1.98c-.42-25.73.59-51.33 2.03-77.02l-2.47-1.21-6.48-3.2c-10.93-5.71-19.77-15.45-25.05-26.59-.19-3.34-.19-3.34 0-6q1.76 1.42 3.5 2.88l1.97 1.61L586 502v2l1.82.84c2.18 1.16 2.18 1.16 5.06 3.78 3.44 3.04 7.21 5.36 11.18 7.63l1.79 1.03c9.75 5.48 20.48 6.37 31.35 4.03 13.57-4.65 25.17-13.75 34.3-24.62z" fill="#000"/><path d="M695.38 136.45c8.54 5.04 14.5 12.08 17.62 21.55 1.14 11.5-.13 21.58-7.5 30.81-5.55 5.82-14.17 10.8-22.32 11.4-11.93.16-19.96-2.22-28.8-10.46-7.42-7.63-8.7-15.89-8.77-26.18.1-6.5 1.66-11.19 5.39-16.57l1.69-2.69c11.94-11.95 27.29-15.3 42.69-7.86m-40.68 8.45c-4.54 5.6-5.32 11.01-5.11 18.03 1.08 8.12 5.26 13.6 11.45 18.7C667.3 186 673.5 185.8 681 185c6.36-2.18 11.3-7.54 15-13 3.43-7.06 4.04-13.53 1.5-21-2.82-6.58-7.55-9.93-13.25-13.94-11.5-3.76-21.57-.8-29.55 7.84" fill="#EFCA50"/><path d="M583.69 135.69q2.7 1.59 5.3 3.3l3.32 2.14c7.35 7.85 11.15 16.38 10.96 27.06-.98 10.3-5.33 18.22-13.27 24.8-9.43 5.76-17.61 8.37-28.63 6.59-9-2.3-15.94-7.9-21.15-15.51-4.95-8.42-5.22-17.54-4.22-27.07a33 33 0 0 1 5-10l1.47-2.17c9.79-12.76 26.99-15.95 41.22-9.14m-37.62 7.25c-5.23 7.76-6 13.8-5.07 23.06 1.7 6.7 6.44 11.16 12 15 5.02 2.74 10.3 3.98 16 3 7.72-2.52 13.52-6.2 17.3-13.56 2.8-5.98 4.08-10.91 2.7-17.44-2.8-7.57-6.91-13.04-14-17-10.22-3.4-21.67-1.23-28.93 6.94" fill="#EEC74D"/><path d="M740 470h1c-.42 23.2-.95 46.43-7.4 68.89q-1.01 3.59-1.98 7.19a289 289 0 0 1-9.86 29.96c-1.61 4.14-3.13 8.31-4.67 12.47a187 187 0 0 1-3.65 9.09c-2.26 5.33-3.79 10.85-5.44 16.4l-1.26 4.13a221 221 0 0 0-8.21 37.71A51 51 0 0 1 696 665c-3.81-.53-6.24-1.27-9-4-.84-7.87 1.78-16.41 3.69-24l.81-3.28c3.49-13.95 7.48-27.57 12.82-40.93 3.22-8.04 6.03-16.22 8.85-24.4q1.17-3.36 2.39-6.69c3.17-8.71 5.9-17.46 8.35-26.4l.7-2.52.59-2.21a94 94 0 0 1 2.27-6.34 83 83 0 0 0 3.47-12.65l.5-2.36 1.56-7.41 1.55-7.33 1.01-4.76q2.1-9.88 4.44-19.72" fill="#000100"/><path d="M512 471c1.87 3.3 2.6 6.39 3.3 10.11l1.07 5.64c4.79 25.23 11.7 49.15 20.25 73.33q1.75 4.98 3.47 9.97c4.29 12.49 4.29 12.49 6.61 18.16 8.48 20.84 15.26 43.47 18.3 65.79l.56 3.94c-.64 3.49-1.17 3.96-3.87 6.06-1.87 1.25-1.87 1.25-3.69 2l-3-1-.33-3.41c-2.31-22.72-8.01-44.16-15.92-65.53l-.91-2.47q-3.15-8.48-6.46-16.9l-2.6-6.69q-1.02-2.63-2.08-5.25c-7.04-18.36-11.38-38.25-13.7-57.75l-.39-3.24c-1.06-10.86-.7-21.86-.61-32.76" fill="#000201"/><path d="M745.44.88c6.7 3.43 11.75 8 14.2 15.24 2.2 7.77 1.77 15.81 1.73 23.82l.01 5.4v14.63q-.02 7.66-.02 15.34 0 12.88-.03 25.72-.03 14.88 0 29.75 0 14.32-.02 28.63v12.19q0 7.16-.03 14.33v5.25l-.02 7.19.01 2.09c-.04 4.22-.8 7.6-2.27 11.53l-.3 2.76A45 45 0 0 1 745 238h-2l-.77 1.78c-3.94 7.09-13.17 12.69-20.23 16.22-2.96 5.93-.63 13.45 1.14 19.44A111 111 0 0 0 727 285q.74 2.27 1.44 4.56c1.28 3.98 3.11 7.05 5.56 10.44a77 77 0 0 1 3.31 7.13 138 138 0 0 0 4.06 8.63c5.12 10.13 9.6 20.26 12.63 31.24 1.32 4.68 2.63 9.19 4.62 13.63a24 24 0 0 1 1.94 7.5c.4 3.44 1.16 5.7 2.44 8.87q.06 2.5 0 5l1 2q.3 2.71.5 5.44c.23 3.13.5 5.57 1.5 8.56.06 2.29 0 4.56-.06 6.85.06 2.14.06 2.14 1.06 5.14q.15 3.88.12 7.76l.02 2.1c-.03 12.03-.03 12.03-2.14 14.14a70 70 0 0 0-.06 4.57l.02 2.5.04 1.94h-3l.08-3.88c.9-48.56.9-48.56-5.08-70.12l-.99-3.6a310 310 0 0 0-24.92-62.43c-6.36-12.1-13.05-25.5-13.47-39.4l-.14-3.37c1.03-6.32 7.03-9.5 11.9-13.13 15.1-11.5 24.2-22.8 27.62-42.07.54-6.06.41-12.15.4-18.24v-5.44q.02-7.33 0-14.66l.01-15.4-.02-25.82q-.02-14.9.01-29.83V69.94l.01-15.3q.01-7.2-.02-14.38l.01-5.27-.02-7.2.02-2.1c-.09-7.69-3.04-13.2-8.4-18.7-4.65-2.87-8.52-3.37-13.88-3.17l-2.08.04q-2.52.04-5.04.14c3-6 12.07-5.04 17.44-3.12" fill="#E9EBE9"/><path d="M583.69 135.69q2.7 1.59 5.3 3.3l3.32 2.14c7.59 8.1 10.94 16.43 10.86 27.36a35 35 0 0 1-2.17 9.5h-1v-22h-2l-1-5-3 1-.15 1.88-.22 2.44-.21 2.43C593 161 593 161 591 164a77 77 0 0 0-1.12 5.19l-.88 4.8h-3v4h-4v2h-2v2h-4v2c-7.6 2.6-14.43 3.12-22 0v-2h-6l-1 7 3 1v2h2v2c8.52 3.57 16.9 3.7 26 4-5.04 3.37-10.8 2.54-16.63 1.58-9-2.28-15.94-7.9-21.15-15.5-4.95-8.42-5.22-17.54-4.22-27.07a33 33 0 0 1 5-10l1.47-2.17c9.79-12.76 26.99-15.95 41.22-9.14m-37.62 7.25c-5.23 7.76-6 13.8-5.07 23.06 1.7 6.7 6.44 11.16 12 15 5.02 2.74 10.3 3.98 16 3 7.72-2.52 13.52-6.2 17.3-13.56 2.8-5.98 4.08-10.91 2.7-17.44-2.8-7.57-6.91-13.04-14-17-10.22-3.4-21.67-1.23-28.93 6.94" fill="#E2C361"/><path d="M798 569h14l-2 1-.62 3.62C807 585.3 798.78 596.48 792 606l-1.41 2.23c-2.92 4.14-5.41 5.28-10.4 6.21-5.09.59-10.08.73-15.19.56q1.43-1.76 2.88-3.5l1.61-1.97L771 608h2l.69-1.58c1.79-3.3 4.03-6.2 6.31-9.17l1.37-1.82q1.75-2.27 3.63-4.43h2l.29-1.63c.92-3.07 2.43-5.5 4.09-8.25 2.4-4 4.52-7.93 6.62-12.12" fill="#000101"/><path d="M509 0q3.06-.12 6.12-.19l3.45-.1c8.84.75 16.54 8.05 22.33 14.36l1.54 1.87C545 19 545 19 546.95 19.95c2.5 1.28 3.73 2.81 5.49 4.99A29 29 0 0 0 561 32l4 5 2.44 1.44c3.26 1.99 5.13 4.63 7.56 7.56q2 1.02 4 2 2.03 2.48 4 5c3.5 3.46 6.96 3.46 11.64 3.48l2.32.05q3.78.06 7.58.08l5.29.05 11.1.06q7.08.04 14.16.17 5.48.09 10.94.08 2.61.01 5.22.07c15.26.33 15.26.33 21.71-5.43q2.07-2.26 4.04-4.61 1.47-1.37 2.99-2.67c6.56-5.87 6.56-5.87 9.51-8.89a79 79 0 0 1 6.81-5.82c4.84-3.8 9.29-7.94 13.75-12.18C715.48 12.29 720.91 7.35 727 3l3 2-2.57 1.64a106 106 0 0 0-10.31 8.11l-1.86 1.61a187 187 0 0 0-11.48 10.85 132 132 0 0 1-7.65 6.94q-3.6 3.14-7.13 6.35c-7.41 6.69-7.41 6.69-10.99 9.69C676 52 676 52 674.51 53.82c-3.66 4.14-6.92 5.59-12.46 6.06-4.1.19-8.2.23-12.31.23l-5.39.05q-5.64.05-11.27.03-7.18 0-14.35.16-5.56.08-11.13.06-2.64.01-5.28.07c-8.58.19-15.34.14-22.05-5.7-2.56-2.48-4.91-5.1-7.27-7.78a128 128 0 0 0-4.12-3.62c-4.15-3.59-8.18-7.29-12.23-10.98q-4.18-3.75-8.43-7.42a270 270 0 0 1-5.29-4.87C525.44 3.6 525.44 3.6 512.86 3.63c-3.82.49-6.18 1.97-9.2 4.28C502 9 502 9 499 9c3.13-3.39 5.57-5.61 10-7z" fill="#E2E4E3"/><path d="M878.82 562.82c6.17.06 12.06.91 18.12 2l3.2.55c20.12 3.57 44.22 10.21 57.53 26.97 1.33 1.66 1.33 1.66 3.96 4.22C971.6 606.8 974.37 620.2 975 634l-1 3-.43 3.37A31 31 0 0 1 971 649l-.8 2.28c-2.41 5.48-6.53 10.02-10.2 14.72l-1.58 2.2c-7.13 9.26-19.1 14.82-29.42 19.8l-2.54 1.23A42 42 0 0 1 914 693l-2.81 1.06c-5.65 1.66-11.5 1.41-17.2-.06v-1l1.67-.28c22.87-3.83 43.6-9.7 60.34-26.72l1.77-1.78c10.43-11.24 13.12-25.8 12.64-40.63-.4-6.22-2.33-11.2-5.41-16.59q-.75-1.42-1.54-2.86c-10.08-17.32-28.51-26.32-47.23-31.49l-5.16-1.34-2.4-.62c-13.97-3.4-27.72-4.07-42.04-4.32l-5.45-.12q-6.59-.14-13.18-.25v-1l2.28-.08 10.16-.36 3.59-.12 3.4-.13 3.17-.1c3.09-.27 4.8-1.37 8.22-1.39" fill="#E1E2E2"/><path d="M745.44.88c6.7 3.43 11.75 8 14.2 15.24 2.2 7.79 1.78 15.86 1.75 23.87l.01 5.43q.02 7.36 0 14.68l.01 15.37q0 12.9-.02 25.78-.02 14.93.01 29.85.01 12.8 0 25.62l.01 15.3q.01 7.17-.02 14.35l.01 5.28-.02 7.2.02 2.13c-.02 1.93-.02 1.93-.4 5.02l-3 2v-2.91q-.1-35.14-.24-70.27-.06-16.97-.1-33.96l-.1-29.62q-.04-7.83-.06-15.68 0-7.39-.06-14.76v-5.41q0-3.71-.04-7.41l.01-2.16c-.1-7.75-2.99-13.27-8.4-18.82-4.66-2.88-8.53-3.38-13.89-3.18l-2.08.04q-2.52.04-5.04.14c3-6 12.07-5.04 17.44-3.12" fill="#F1F4F3"/><path d="M633.75 185.44C636 187 636 187 637 188c.4 4.17.44 6.33-1.87 9.88C633 200 633 200 631 201l-2 7c-2 2-2 2-4.94 2.32-3.06-.32-3.06-.32-4.87-1.44-1.19-1.88-1.19-1.88-1.56-4.82-.81-3.96-2.4-4.77-5.63-7.06-2-3-2-3-2-5.94 1.03-3.16 1.96-4.68 4.86-6.37 5.77-1.86 13.37-1.96 18.89.75" fill="#656766"/><path d="M498 9h2c-2 5-2 5-3.06 7.17-1.22 3.67-1.21 7.12-1.18 10.95l-.01 2.46.02 8.16v5.86l.03 15.89.01 16.61.05 31.45.04 35.8q.03 36.82.1 73.65c-5.99-5.99-4.27-19.97-4.29-28.14v-5.01l-.02-5.37q-.03-7.25-.02-14.49l-.02-9.06-.02-31.66q0-14.73-.05-29.46-.04-12.68-.04-25.35l-.02-15.12q-.03-7.1-.01-14.2l-.01-5.2c-.11-16.27-.11-16.27 4.5-22.94z" fill="#EDF0EE"/><path d="M677.81 132.69h2.15c5.34.1 9.3.94 14.04 3.3l-2 2-2-1v3h2v2h2v2h2l-1 4-1.03-1.38c-4.43-5.6-8.62-9.1-15.87-9.95-8.39-.25-14.68.8-20.9 6.59-5.46 5.98-6.84 11.73-6.6 19.69 1 7.59 4.73 13.2 10.65 17.9 6.25 4.14 12.4 3.87 19.75 3.16a33 33 0 0 0 8-4c-.19 1.88-.19 1.88-1 4-4.46 2.85-9.72 2.23-14.8 2.13l-2.69-.03q-3.26-.03-6.5-.1v-2c-4.37 1.16-6.66 2.08-9 6-7.95-8-9.53-15.7-9.5-26.68.21-6.35 1.85-11.06 5.5-16.32l1.68-2.7c7.27-7.26 14.76-11.7 25.12-11.61" fill="#DEC367"/><path d="M690 137c4.15-.62 6.57.04 9.94 2.38 5.88 4.75 10.78 11.37 13.06 18.62.94 9.42 0 17.42-4 26h-3v-2h2l-.07-2.01c-.1-4.9.01-8.48 2.07-12.99.12-2.81.12-2.81 0-5l-5-1-1 3-3 2c-.69 2.12-.69 2.12-1 4h-2v4h-2v2h-2l-1 4-4-1 1.21-1.21c5.19-5.57 7.46-10.89 8.1-18.48-.32-3.39-1.22-6.1-2.31-9.31-.12-3.38-.12-3.38 0-6h-2v-2h-2v-2h-2z" fill="#EEC75E"/><path d="M616 662h20l-.11 5.55-.08 7.33-.07 3.64c-.08 9.3.8 17.68 6.26 25.48-2.7-.6-4.48-1.3-6.15-3.56-4.15-7.77-5.66-16.69-4.85-25.44l1-2q.06-3 0-6v-2l-13 1 1 4q.06 2.1 0 4.19V678l1 1c.29 5.54-.35 9.67-2 15l-.44 3.75C618 701 618 701 616.69 703c-1.69 1-1.69 1-3.8.56L611 703l.84-1.86 1.1-2.45 1.09-2.43c1.8-4.19 2.09-7.35 2.07-11.9l-.01-3.93-.03-4.12-.01-4.15z" fill="#F2F5F0"/><path d="M809 540h1c-.35 7.82-1.1 14.71-4 22l-1 3 2.25-.56c2.79-.45 4.08-.11 6.75.56l5-1q2.82-.2 5.65-.28l3.27-.11 3.46-.11c7.42-.25 14.83-.53 22.24-1.06 6.96-.5 13.49-.82 20.38.56l-1 2-3.24.15c-23.6 1.11-47.18 2.34-70.76 3.85q3.25-9.82 6.69-19.56l.97-2.77z" fill="#E8E9EB"/><path d="M756 357c3.77 3.77 4.19 8 4.71 13.08.37 2.48 1.35 4.6 2.29 6.92a93 93 0 0 1 0 5l1 2q.3 2.71.5 5.44c.23 3.12.5 5.57 1.5 8.56.07 2.29 0 4.56-.06 6.84C766 407 766 407 767 410q.15 3.88.12 7.75l.02 2.09c-.03 12.05-.03 12.05-2.14 14.16a77 77 0 0 0-.06 4.56l.02 2.51.04 1.93h-3l.08-3.89c.93-50.1.93-50.1-6.27-74.11-.85-3.15-.75-4.91.19-8" fill="#E9ECE9"/><path d="M489 431h1l1.44 10 .41 2.83q1.16 8.08 2.15 16.17c-3.47-.46-6.67-.89-10-2-9.76-.78-17.67-.75-26 5l-3.25 2.19c-6.04 6.18-9.48 13.55-11.75 21.81-1.11-1.69-1.11-1.69-2-4 2.86-11.98 10.21-19.07 20.28-25.45 7.86-4.48 14.52-5.3 23.28-3.11q2.73.75 5.44 1.56l-.4-1.94c-2.08-10.18-2.08-10.18-2.6-15.06l1-1q.55-3.5 1-7" fill="#E2E4E5"/><path d="M586.58 137.4A103 103 0 0 1 593 142l-1 3v-2l-6-1v2h2v7c-2.84-3.73-2.84-3.73-4.03-5.69-3.12-4.9-6.29-7.76-11.97-9.3-8.7-1.2-15.75-.1-23 5-2.44 2.42-2.44 2.42-4 5l-1.69 2.67c-1.74 4.4-2.04 8.62-2.3 13.32-1.95.56-1.95.56-4 1l-1-1c.13-8.08 3.46-14.1 8.85-20.06 11.86-11.07 27.7-12.57 41.72-4.55" fill="#D7BD69"/><path d="M540 174h4v2h2v2h2v2h2v2h-2l-1 7 3 1v2h2v2c8.51 3.56 16.9 3.7 26 4-5.04 3.36-10.8 2.52-16.63 1.57-8.99-2.28-16.07-8-21.42-15.5-1.66-3.61-.89-6.29.05-10.07" fill="#EDC553"/><path d="M837 690c4.48.58 8.73 1.42 13.1 2.55 9.71 2.12 19.39 1.77 29.28 1.64l5.73-.04L899 694v2l-6.15.68C891 697 891 697 890 698q-3.46.14-6.92.13l-2.11.01-4.44-.01-6.76.01-4.32-.01h-3.96A43 43 0 0 1 853 697l-2.69-.31c-4.68-.97-8.92-2.83-13.31-4.69z" fill="#EEF1EF"/><path d="M878.82 562.82c6.17.06 12.06.91 18.12 2l3.18.54c19.93 3.53 19.93 3.53 24.88 7.64-3.14 1.01-5.1.95-8.27.07l-2.5-.67c-.43-.1-.43-.1-2.6-.72-15-4.14-29.54-5.04-45-5.3l-5.45-.13q-6.59-.14-13.18-.25v-1l2.28-.08 10.16-.36 3.59-.12 3.4-.13 3.17-.1c3.09-.27 4.8-1.37 8.22-1.39" fill="#DADBDB"/><path d="m704 186 3 1c-7.94 8.08-16.13 13.18-27.69 13.5-8.21-.35-14.77-2.4-21.31-7.5l-2-3 4 1v2l8 1v2h24v-2h4v-2h4v-2h2v-2h2z" fill="#DCC465"/><path d="m727 3 3 2-2.57 1.64a106 106 0 0 0-10.31 8.11l-1.86 1.61a187 187 0 0 0-11.48 10.85 132 132 0 0 1-7.65 6.94q-3.6 3.14-7.13 6.35l-2.54 2.28-4.77 4.35-2.13 1.93-1.87 1.73C676 52 676 52 673 52c4.25-5.39 8.92-9.55 14.32-13.79A101 101 0 0 0 695 31q2.89-2.7 5.81-5.38l1.61-1.46C710.42 16.87 718.67 9.9 727 3" fill="#DEDFE1"/><path d="M490 658h1l.26 2.05c1.15 7.3 1.15 7.3 3.99 10.45 6.57 3.58 12.36 3.82 19.69 3.75l3.07-.01c8.13-.09 15.98-.82 23.99-2.24-.73 1.96-.73 1.96-2 4-2.02.57-2.02.57-4.38.69-4.41.26-4.41.26-6.62.82-6.96 1.71-14.75.45-21.81-.26l-2.18-.19c-6.1-.68-9.87-3.14-14.45-7.25-2.26-4.07-1.45-7.37-.56-11.81" fill="#E7E7E6"/><path d="M677.81 132.69h2.15c5.34.1 9.3.94 14.04 3.3l-2 2-2-1v3h2v2h2v2h2l-1 4-1.03-1.38c-4.43-5.6-8.62-9.1-15.87-9.95-9.7-.3-16.02 1.79-23.1 8.34v-3c2.01-1.75 2.01-1.75 4.7-3.56l2.62-1.82c5.21-3.15 9.44-3.98 15.5-3.93" fill="#D5BB6D"/><path d="M688.13 139.75c6.67 5.37 10.32 11.13 11.25 19.69-.6 5.69-1.8 10.71-5.56 15.12L692 176v-8l2-1c1.13-3.14 1.13-6.18 1.13-9.5v-2.84a27 27 0 0 0-1.12-6.66h-2q-1-1.97-2-4h-2q-1-1.48-2-3c-3.04-.95-3.04-.95-6.63-1.69l-3.6-.76L673 138v-1c6.02-1.6 10.08-.88 15.12 2.75" fill="#271B0A"/><path d="M699 140c6.21 2.58 9.51 8.6 12.94 14.12 3.34 8.99 1.52 19.44-2.06 28L709 184h-3v-2h2l-.07-2.01-.05-2.68-.08-2.63c.2-2.68.2-2.68 1.2-5.15 1.17-2.95 1.2-5.18 1.12-8.34l-.05-2.96L710 156h-2v-4h-2v-4h-2v-2h-2v-2h-2z" fill="#E0C66A"/><path d="m632 664 4 1-.05 2.04q-.08 4.66-.14 9.34l-.07 3.21c-.09 8.88 1.06 16.98 6.26 24.41-2.7-.6-4.48-1.3-6.15-3.56-4.15-7.77-5.66-16.69-4.85-25.44l1-2q.06-3 0-6z" fill="#E5E7E7"/><path d="m908 640 1 2 2 1-6.19 1.94-3.48 1.09c-6.08 1.77-11.49 2.1-17.79 2.07l-2.73-.01q-4.32 0-8.62-.03l-5.86-.01L852 648v-1l3.23-.17 11.88-.63 5.13-.27 7.4-.39 2.3-.12c3.78-.21 7.37-.61 11.06-1.42l3.88-.38c4.13-.48 7.37-1.82 11.12-3.62" fill="#DEDFE1"/><path d="M812 502h3c1.11 6.57.73 12.41 0 19l-.44 5.81A42 42 0 0 1 812 538a166 166 0 0 0-1 7l-3-2c.41-5.03.95-9.94 2-14.88 1.66-8.58 1.68-17.41 2-26.12" fill="#D9DCD9"/><path d="M496 210h1l.62 3.25c4.18 16.29 15.12 26.46 28.38 35.75l-2 3-1.69-1.81c-2.3-2.18-4.59-3.58-7.31-5.19-1.5-1.38-1.5-1.38-3-3l-2.62-2.5C507 237 507 237 506 234l-1.9-.92c-3.89-2-5.22-6.29-7.1-10.08l-1.38-2.56c-.94-3.67-.25-6.72.38-10.44" fill="#E2E3E5"/><path d="M842 608c-6.54 3.58-13.66 4.13-21 4a173 173 0 0 0-15 2c-7.64 1.18-7.64 1.18-10 0v-2c15.33-2.32 30.47-4.45 46-4" fill="#ECEEEE"/><path d="M700 136h2v2h2v2h2v4h4l.88 2.75C712 150 712 150 713.06 152c1.23 2.61 1.55 5.16 1.94 8h1q.12 3.18.19 6.38l.1 3.58L716 173l-3 2-.04-3.37c-.33-12.53-2.51-20.73-11.6-29.84C700 140 700 140 700 136" fill="#211607"/><path d="M654 144c0 3 0 3-1.5 5.94-3.22 7.19-2.13 15.84.5 23.06l-3-1v-4h-2v10c-3.51-7.03-3.34-16.72-.98-24.23 1.88-3.83 3.85-6.85 6.98-9.77" fill="#DCC678"/><path d="m874 563-1 2c-15.68.74-31.3 1.14-47 1 2.7-2.7 4.37-2.39 8.15-2.63l3.8-.26 3.99-.23 3.88-.27c20.35-1.3 20.35-1.3 28.18.39" fill="#EFEFF1"/><path d="M569 134v1l-2.53.23c-8.73 1.02-15.46 2.72-21.09 9.81-3.39 5.43-4.23 10.63-4.38 16.96-1.94.56-1.94.56-4 1l-1-1c.15-8.08 3.47-14.11 8.86-20.05 7.31-6.82 14.19-10.11 24.14-7.95" fill="#B0A27E"/><path d="M745.44.88c5.17 2.66 9.58 6.06 12.56 11.11a27 27 0 0 1 1 7q-.99.52-2 1l-1.19-3.11c-2.73-6.31-6.4-10.3-12.8-12.88a69 69 0 0 0-7.89-.19l-2.08.04q-2.52.06-5.04.15c3-6 12.07-5.04 17.44-3.12" fill="#EAEAEB"/><path d="M805 470c3.56 3.09 4.63 5.55 6 10l1.11 3.2c3.26 10.54 2.97 19.89 1.89 30.8h-1l-.21-2.21q-.5-5.06-1.04-10.1l-.33-3.48A75 75 0 0 0 806 477q-1.02-3-2-6z" fill="#E4E7E3"/><path d="M539 157h1l4 17h-4v7c-3.73-4.54-4.13-7.95-4.06-13.75l.02-2.98.04-2.27 3 1z" fill="#E4CA73"/><path d="m763 656 2 1c-.19 8.9-.19 8.9-3.06 12.81L759 672l-1.65 1.3c-5.74 4.1-10.44 4.32-17.35 4.01l-2.93-.07q-3.54-.08-7.07-.24v-1l3.84-.33 5.1-.48 2.52-.22c5.69-.55 11.36-1.41 16.54-3.97 1.5-2.62 1.5-2.62 2-5l1-1q.31-2 .5-4c.39-3.89.39-3.89 1.5-5" fill="#EBEEEB"/><path d="M648 168h2l.25 1.88c.75 2.12.75 2.12 2.69 3.18l2.06.94 2 3-1 3-4-1v5h2l2 6c-4.12-2.89-6.37-5.2-8-10-.24-4.01-.18-7.98 0-12" fill="#E8CB6A"/><path d="M796 612v2c-3.55 2.36-4.84 2-9 2l-3.44 1a26 26 0 0 1-10.56 1c-2.21-1.52-2.21-1.52-4-3l9.56-1.5 2.72-.43A77 77 0 0 1 796 612" fill="#E5E6E4"/><path d="M441 485h1l-2 37-2-1c-1.09-5.17-1.04-10.03-.69-15.25l.15-2.24c1.13-16.1 1.13-16.1 3.54-18.51" fill="#ECEEEE"/><path d="m541 186 2.94 2.69c9.39 8.03 18.8 10.91 31.06 10.31q4.51-.4 9-1v2c-9.63 1.54-20.44 2.21-30 0-1.5-2.06-1.5-2.06-2-4h-4c-2.25-1.88-2.25-1.88-4-4v-2h-2z" fill="#1F1205"/><path d="M489 431h1l1.44 10 .41 2.83q1.16 8.08 2.15 16.17h-4l-.15-1.98c-.43-5-1.19-9.26-2.85-14.02-.19-2.81-.19-2.81 0-5l1-1q.55-3.5 1-7" fill="#D7DAD9"/><path d="M541 184h3v2h2l1 3 3 1v2h2v2c8.51 3.56 16.9 3.7 26 4-5.04 3.36-10.8 2.52-16.63 1.57-8.46-2.14-15.47-7.33-20.37-14.57z" fill="#C4AE6B"/><path d="M565 132h17v2h8v2h2v4h2v2h2l-1 4-2-2.19c-6.19-6.19-13.59-9.86-22.31-10.43l-3.24-.23L565 133z" fill="#1E160A"/><path d="M594 145c5.77 5.3 8.7 10.46 9.12 18.29.13 5.33-.37 9.68-2.12 14.71h-1v-22h-2l-.88-2.69q-1.43-4.2-3.12-8.31" fill="#D5BC72"/><path d="M617 679h1l.5 4.25.28 2.39c.34 3.67.22 7.26-.09 10.92l-.18 2.32c-.62 2.59-1.3 3.62-3.51 5.12-2.19-.31-2.19-.31-4-1l.84-1.86 1.1-2.45 1.09-2.43c1.67-3.89 2.22-7.24 2.53-11.45l.26-3.29z" fill="#E3E5E6"/><path d="M760 405h1l1 34h-3v6h-1z" fill="#212421"/><path d="m588 190 4 1c-7.1 6.06-12.26 7.44-21.38 7.19l-2.8-.04q-3.42-.06-6.82-.15l-1-2h22v-2l2.44-.88C587 192 587 192 588 190" fill="#E5C652"/><path d="M709 182c1.47 3.81.43 6.29-1 10l-2.31.19c-3.55 1.07-3.89 2.69-5.69 5.81-1.94.94-1.94.94-4 1a83 83 0 0 1-4-2l1.98-1.07c6.32-3.57 11.7-7.29 15.02-13.93" fill="#271806"/><path d="M868 646v1l-3.08.15c-8.43.44-16.62 1.23-24.92 2.85v-2a1054 1054 0 0 1 9.7-2.58c6.43-1.66 12.13-2.41 18.3.58" fill="#F0F1F2"/><path d="m685 180 3 1c-5.76 4.39-10.67 4.44-17.79 4.43-3.45-.46-4.59-1.29-7.21-3.43l1.91-.08q4.27-.16 8.53-.36l3.01-.12 5.51-.23C684 181 684 181 685 180" fill="#30250B"/><path d="m544 682 2 1-.96 2.51c-1.13 3.81-1.48 7.42-1.66 11.37l-.12 2.08L543 704h-2c-2.68-7.71-1.61-12.42 1.84-19.73z" fill="#CCCCCF"/><path d="M487 407h1l1 31c-3.38-4.51-3.38-4.51-3.58-8.27l-.14-2.44-.09-2.54-.16-2.49A43 43 0 0 1 487 407" fill="#F0F1F2"/><path d="M761 439c3.25 6.51 3.17 10.12 1 17v4l-4 1z" fill="#DEE1E0"/><path d="M489 389h1l-1 38h-1l-.08-1.69-.36-7.75-.12-2.66c-.24-5.02-.62-9.97-1.28-14.95-.22-2.76.22-5.27.84-7.95h2z" fill="#DBDCDE"/><path d="m651 151 .94 1.94C653 155 653 155 654 156q.1 3.29.06 6.56l-.02 3.63L654 169h-3c-1.07-3.22-1.13-5.62-1.12-9l-.01-3.19C650 154 650 154 651 151" fill="#272112"/><path d="m498 641 2 2-1.21 1.25c-5.47 5.97-7.79 11.71-8.79 19.75l-2-1c-.69-8.57 1.78-12.39 7.25-18.88z" fill="#EBECEE"/><path d="M757 205c3 3.39 3 3.39 3 6.08a63 63 0 0 1-6 14.92h-3l1.31-3.75c1.9-5.67 3.3-11.44 4.69-17.25" fill="#E5E7E8"/><path d="M826 669h1l.3 1.98c1.04 6.1 2.16 11.25 7.29 15.27q2.17 1.44 4.41 2.75l-3 2-3.88-2.75-2.17-1.55c-3.36-2.94-4.44-6.34-4.95-10.7q.4-3.51 1-7" fill="#E4E7E6"/><path d="m550 178 1.95.4c3.94.78 7.9 1.47 11.86 2.16l2.39.42L572 182c-3.77 2.51-6.64 2.61-11 2a55 55 0 0 1-10-4z" fill="#312511"/><path d="m490 391 3 2c.29 3.26.29 3.26.19 7.12l-.08 3.89L493 407h-2l-1 8h-1a1083 1083 0 0 1-.09-10.34A78 78 0 0 1 490 391" fill="#2C2E30"/><path d="m876.5 562.9 3.06.04 3.06.02 2.38.04 1 2c-3.7 1.23-7.1 1.12-10.95 1.1h-2.34l-7.4-.04h-5.02L848 566v-1c.37 0 .37 0 2.28-.08q5.08-.17 10.15-.36l3.6-.12 3.4-.13 3.16-.1c2.84-.25 3.02-1.2 5.91-1.3" fill="#C6C6C9"/><path d="M586 160c1.46 2.33 2.05 3.57 1.75 6.34-.84 2.97-2.05 4.96-3.81 7.47l-1.66 2.4L581 178l-2-2 1.88-3.06c2.02-3.52 3.12-7 4.12-10.94z" fill="#241F0B"/><path d="m914 690-1 4c-6.58.95-12.42.89-19 0v-1l8.31-1.5 2.38-.43 2.3-.41 2.11-.38c1.9-.28 1.9-.28 4.9-.28" fill="#D1D5D1"/><path d="M776.25 456.94a370 370 0 0 1 6.75.06l1 2c-2.96 1.48-5.84 1.36-9.13 1.56l-3.88.26-2.99.18v-2l-3-1c3.75-1.2 7.33-1.1 11.25-1.06" fill="#212323"/><path d="M784 454v3l-3.04.18-4.02.26-3.98.24c-3.7.3-7.29.75-10.96 1.32v-2c7.31-3.51 13.99-3.3 22-3" fill="#EBEEEE"/><path d="m763 395 3 1-1 28h-1c-.76-9.7-1.14-19.26-1-29" fill="#F4F6F5"/><path d="M756 357c4.65 4.65 4.54 10.77 5 17l-2 1q-1.05-3.09-2.06-6.19l-1.16-3.48c-.77-3.3-.74-5.12.22-8.33" fill="#F0F3EF"/><path d="M709 687c2 1 2 1 3.19 3.62 1.16 4.85.37 8.71-1.19 13.38l-3-1-.06-7.44-.03-2.14q0-2.71.09-5.42z" fill="#DADCDB"/><path d="M443 538a42 42 0 0 1 3.62 9.56l.79 2.88C448 553 448 553 448 556l-3-1c-.91-1.93-.91-1.93-1.62-4.31l-.73-2.37L442 546l-.64-2.15c-.49-2.51.35-3.72 1.64-5.85" fill="#DBDBDD"/><path d="M563 133c12.17-1.22 12.17-1.22 16.52 1.68 1.84 2.05 3.32 3.81 4.48 6.32l-1 3-1.94-2.25c-4.8-4.8-11.4-7.07-18.06-7.75z" fill="#D2C088"/><path d="M698 144h4v2h2v2h2v2l-3 1c-1.19 2.06-1.19 2.06-2 4h-1v-5h-2z" fill="#EEC24D"/><path d="M699 140c3.56 1.46 5.36 3.34 7.69 6.38l1.82 2.33A15 15 0 0 1 711 155l-3 1v-4h-2v-4h-2v-2h-2v-2h-2z" fill="#D0B66E"/><path d="m721 253 1 3-1 2c-.03 3.61.07 7.21.16 10.81C721 272 721 272 719 274c-1.07-3.52-1.2-6.84-1.25-10.5l-.08-3.41c.36-3.34 1.07-4.66 3.33-7.09" fill="#E0E3E1"/><path d="m656 192 14 7a27 27 0 0 1-8.25 1.06L658 200v-2h2v-2h-4z" fill="#1B150B"/><path d="M678 136v1l-2.3.26c-8.25 1.17-8.25 1.17-10.76 4.36L664 144h-2v-2l-5 2c5.07-7.82 12.29-8.54 21-8" fill="#151609"/><path d="M910 614c5.4 1.52 8.98 5.27 13 9l-1 4c-1.5-1.31-1.5-1.31-3-3v-3a57 57 0 0 0-10-4z" fill="#E3E6E5"/><path d="M654 144c0 3.21-.9 5.07-2.2 7.95-1.39 3.57-2.08 7.3-2.8 11.05-2-2-2-2-2.5-5.06.7-5.49 3.58-10.02 7.5-13.94" fill="#D2C99A"/><path d="m509 0 1.56.44c3.13.72 6.27 1.13 9.44 1.56v1l-1.91.04c-5.89.33-9.63 1.39-14.4 4.9C502 9 502 9 499 9c3.13-3.39 5.57-5.61 10-7z" fill="#DBDFDB"/><path d="M704 23h2c-1.57 4.04-4.44 6.47-7.62 9.25l-1.57 1.39q-1.9 1.69-3.81 3.36l-2-1c1.47-3.62 3.38-5.33 6.5-7.62A57 57 0 0 0 704 23" fill="#D7D8D8"/><path d="m731.19 674.88 2.27.02q2.78.04 5.54.1l1 3-6.62.07-3.73.02A57 57 0 0 1 720 677c3.79-2.51 6.8-2.22 11.19-2.12" fill="#D7DAD8"/><path d="m768 615.5 3 .5-1 3-3.31.94c-3.81 1.09-5.21 2.08-7.69 5.06l-3-1c7.37-8.58 7.37-8.58 12-8.5" fill="#ECEEEA"/><path d="m673.69 134.44 3 .3 2.3.26v1l-2.84.3c-12.28 1.47-12.28 1.47-17.15 5.7l-2.37 1.75L655 145v-3c2.08-1.8 2.08-1.8 4.8-3.62l2.72-1.85c4.02-2.47 6.58-2.58 11.17-2.1" fill="#A4A48F"/><path d="M525 250c3.91 1.3 6.54 2.63 9 6 .25 3.75.25 3.75 0 7l-2 1-.69-3.81c-.81-3.36-.97-3.95-3.93-6L525 253z" fill="#E9EBEA"/><path d="M645 162h1l.4 3.36.54 4.39.26 2.21c.7 5.73.7 5.73 1.46 8.16L649 182l-2 2c-3.49-5.38-2.96-8.89-2.5-15.19l.28-3.85z" fill="#3D361C"/><path d="M670 133h16l-2 1v3l-14-2z" fill="#C4AF81"/><path d="M635 689c1.86 3.58 3.41 7.29 5 11q.97 2.01 2 4c-2.83-.63-4.55-1.39-6.29-3.74-2.94-5.33-2.94-5.33-1.96-9.26z" fill="#D9DCDD"/><path d="M698 163c1.17 3.92.7 6.98 0 11h-2v2h-2l-1 4-4-1 1.21-1.21c4.24-4.56 6.24-8.78 7.79-14.79" fill="#C6AE64"/><path d="m586 142 8 1v3l-3 1c-1.19 3.06-1.19 3.06-2 6h-1v-9h-2z" fill="#E2BE55"/><path d="M812 490c3.53 5.29 3.04 10.15 2.56 16.31l-.16 2.25q-.18 2.72-.4 5.44h-1c-.8-8.03-1.13-15.94-1-24" fill="#F2F4F0"/><path d="M751 343c2.71 4.06 4.46 8.37 6 13l-3 3q-1.05-3.16-2.06-6.31l-1.16-3.55C750 346 750 346 751 343" fill="#E1E4E1"/><path d="m738.25-.12 2.7.05L743 0l1 3-16 1c2.1-4.2 5.94-4.24 10.25-4.12" fill="#F0F2F2"/><path d="M827 660h2l-.4 1.72A147 147 0 0 0 826 676l-3-3 2.25-8.4c.75-2.6.75-2.6 1.75-4.6" fill="#EDEDEF"/><path d="M446 472h2l-5 15c-1.11-1.68-1.11-1.68-2-4 .64-2.54.64-2.54 1.81-5.19l1.15-2.67C445 473 445 473 446 472" fill="#DBDEDE"/><path d="M542 672c-.62 1.94-.62 1.94-2 4-4.81 1.57-8.3.6-13-1v-1l5.81-1 3.27-.56C539 672 539 672 542 672" fill="#D5D5D5"/><path d="M490 658h1l.26 2.01c.96 6.01 1.92 9.19 6.74 12.99-4 0-4 0-6.81-2.44-2.28-2.89-2.41-4.81-2-8.44q.35-2.07.81-4.12" fill="#DADCDC"/><path d="m963 657 2 3-3.25 3.81-1.83 2.15A37 37 0 0 1 954 671l-2-1 1.64-1.57c7.11-6.93 7.11-6.93 9.36-11.43" fill="#DADDDA"/><path d="M796 612v2c-3 2-3 2-5.81 1.69L787 615l-6-1v-1a92 92 0 0 1 15-1" fill="#CECFCE"/><path d="M526 284h2c-.94 6.91-.94 6.91-3 10l-3 1c.61-4.13 2.04-7.33 4-11" fill="#ECECEE"/><path d="M540 174h4c.25 2.75.25 2.75 0 6-2 2.38-2 2.38-4 4-1.23-3.69-.64-6.21 0-10" fill="#E8C45E"/><path d="m541 159 1 3h2v2h2v2h-2l1.06 1.75c1.11 2.65.74 3.58-.06 6.25-3.04-5.23-4.51-8.93-4-15" fill="#32230B"/><path d="M596 146h2v2l3 1c2.41 2.41 2.97 3.69 3.31 7.12C604 159 604 159 602 161l-.55-1.76A77 77 0 0 0 596 146" fill="#281E0A"/><path d="M534 259h1l1 5h1c.37 7.38.37 7.38-1.5 10.5L534 276c-1.23-3.68-.91-6.91-.56-10.75l.31-3.55z" fill="#2D2F30"/><path d="m491 655 3 2c.51 2.6.51 2.6.69 5.62l.2 3.04.11 2.34h-3c-1.32-2.64-1.1-4.68-1.06-7.62l.02-3.04z" fill="#282A2B"/><path d="m755 624 3 2q-1.87 1.48-3.75 2.94l-2.11 1.65A14.6 14.6 0 0 1 746 633c1.16-3.49 2.14-4.1 5.06-6.19l2.23-1.6z" fill="#E1E3E2"/><path d="M671 200h16l-3 1v3q-2.41-.43-4.81-.88l-2.71-.49C674 202 674 202 671 200" fill="#130F04"/><path d="M589 152h1v16h-2l-1 5h-2l.62-1.55c2.39-6.44 3.04-12.61 3.38-19.45" fill="#D9C47A"/><path d="M700 136h2v2h2v2h2v4h2v2a19.4 19.4 0 0 1-8-6z" fill="#171103"/><path d="m552 135 2 1-4.38 3.44-2.46 1.93C545 143 545 143 543 144l1-8h2v2l2.88-1.56z" fill="#0F0E08"/><path d="M513 635v2l-4.75 1.94-2.67 1.09c-2.19.82-4.3 1.46-6.58 1.97.99-2.6 1.54-3.76 4.06-5.05l2.38-.7 2.37-.73C510 635 510 635 513 635" fill="#E0E0E3"/><path d="M496 210h1l.88 3.56q1.44 5.75 3.12 11.44c-4.69-2.41-4.69-2.41-5.88-4.69-.19-3.52.36-6.82.88-10.31" fill="#D6D8D8"/><path d="M695 163h1c.63 8.19.63 8.19-2 11.56l-2 1.44v-8l2-1c.62-2.06.62-2.06 1-4" fill="#211C0E"/><path d="M573 136c4.43 1.39 6.87 3.61 10 7l-3 1v-2h-4l-1-3-3-2z" fill="#2C1F0E"/><path d="M565 132h17v2l4 1c-2.58.96-3.66 1.14-6.25.06-3.1-1.2-5.75-1.47-9.06-1.68l-3.24-.23L565 133z" fill="#342813"/><path d="M744 2c7.57 1.86 7.57 1.86 10 5l-1 3-10-6z" fill="#DFE2DF"/><path d="M704 677c3.54 3.17 5.59 5.17 6 10l-2 1q-1.3-1.9-2.56-3.81l-1.44-2.15c-1-2.04-1-2.04 0-5.04" fill="#ECEFEC"/><path d="m553 672 4 2-1.68 1.21-2.2 1.6-2.17 1.58C549 680 549 680 547 683h-2a30 30 0 0 1 5.12-7.75l1.64-1.86z" fill="#E6E8E8"/><path d="m892.19 564.44 3.29.3 2.52.26v2q-2.62.09-5.25.13l-2.95.07c-2.82-.2-4.41-.75-6.8-2.2 3.43-1.14 5.6-.91 9.19-.56" fill="#ECEDF1"/><path d="M741 316c2.68 3.08 3.42 5.2 3.69 9.25l.2 2.7.11 2.05a39 39 0 0 1-4.12-8.19l-1.08-2.73-.8-2.08z" fill="#E1E4E1"/><path d="m588 190 4 1c-4.19 3.58-8.3 7-14 7v-2h4v-2l2.44-.88C587 192 587 192 588 190" fill="#DCC370"/><path d="m598 178 2 1c-1.49 4.59-3.85 7.44-7 11l-1-4 1.94-.75C596 184 596 184 596.69 182l.31-2z" fill="#DFC56F"/><path d="M956 592c4.48 2.96 7.6 5.06 10 10l-3 1-3.5-4.38-1.97-2.46C956 594 956 594 956 592" fill="#E8EAEB"/><path d="M809 540h1l-1 13h-3c.48-4.71.97-8.67 3-13" fill="#ECEFEC"/><path d="m545 142 2 1-6 12-2-3c1.07-4.07 3.29-6.84 6-10" fill="#C5BDA1"/><path d="m651 145 1 2c-1.21 2.82-1.21 2.82-2.94 6.12l-1.71 3.33L646 159c-1.16-3.48-.78-4.67.25-8.12l.77-2.7.98-2.18z" fill="#181407"/><path d="M552 676h2c-1.31 3.94-2.92 6.23-6 9l-2-2q1.42-1.76 2.88-3.5l1.61-1.97z" fill="#222424"/><path d="m763 656 2 1q-.17 2.44-.38 4.88l-.21 2.74C764 667 764 667 762 669c-1.54-4.1-.69-7.79 0-12z" fill="#F2F4F3"/><path d="M755 362a19 19 0 0 1 3.19 6.94l.54 2.02c.3 2.29-.04 3.86-.73 6.04v-3h-2a20 20 0 0 1-1.06-7.69l.02-2.45z" fill="#383C37"/><path d="M491 621c4.38.51 6.82 3.18 10 6l-4 1v-2l-1.88-.25c-2.12-.75-2.12-.75-3.37-2.81z" fill="#E1E1E4"/><path d="m908 567-2 2c-3.04-.02-3.04-.02-6.62-.38l-3.61-.33L893 568v-1c5.04-1.51 9.88-.65 15 0" fill="#D1D3D3"/><path d="M441 485h1l-1 14c-2-2-2-2-2.25-5.31.23-3.42.77-5.64 2.25-8.69" fill="#E6E9E8"/><path d="M499 346c2 3 2 3 1.54 5.48l-.92 2.71-.89 2.73L498 359l-2-1 .94-4.88.52-2.74C498 348 498 348 499 346" fill="#E2E4E3"/><path d="M697 156h2c.21 5.19-.41 9.13-2 14h-1c-.18-9.41-.18-9.41 1-14" fill="#3C2E0D"/><path d="M831 658c.62 1.81.62 1.81 1 4l-2 3q-1.05 2.99-2 6h-1c.44-5.2.88-8.66 4-13" fill="#212121"/><path d="m810 534 3 3-1 3a276 276 0 0 0-1 5l-3-2c.49-3.12 1-6 2-9" fill="#E0E3E0"/><path d="M479 457c6.05.39 6.05.39 8 1a16 16 0 0 1 2 4q-2.22-.38-4.44-.81l-2.49-.46L480 460z" fill="#1E2120"/><path d="M541 693h1l1 11h-2q-.58-2.18-1.12-4.38l-.64-2.46L539 695z" fill="#EEEEF0"/><path d="M633 675h1l1 17-3-1z" fill="#F3F5F6"/><path d="M759 663h2c-.48 4.31-1.75 6.17-5 9l-1-3c1.81-3.19 1.81-3.19 4-6" fill="#1D2020"/><path d="M466 591c2.12 2.62 4.13 5.2 6 8-4 0-4 0-5.81-1.75-1.19-2.25-1.19-2.25-.88-4.5z" fill="#DFE2DE"/><path d="m704 186 3 1-9 8-2-1v-2h4v-2h2v-2h2z" fill="#D6BD6A"/><path d="M541 184h3v2h2l1 3 3 1-1 3-3.44-2.81-1.93-1.58C542 187 542 187 541 184" fill="#D6BC6A"/><path d="m713 17 2 1 1 3c-2.31 1.56-2.31 1.56-5 3l-3-1z" fill="#1E2021"/><path d="M513 0q2.19-.12 4.38-.19l2.46-.1L522 0l2 3-12-1z" fill="#F7FAF7"/><path d="M751 640c3.27.56 4.83 1.5 7 4l-1 3a169 169 0 0 1-6-5z" fill="#E0E0E2"/><path d="M835 607h13c-4.17 3.12-5.07 3.63-10 3z" fill="#C9CCCD"/><path d="M761 373c1.46 2.65 2 3.89 2 7h-2l-1 4a220 220 0 0 1-.62-4.38l-.36-2.46L759 375z" fill="#E3E6E2"/><path d="M497 359c1.8 2.76 2.01 3.89 1.62 7.25L498 369l-3 1c.88-7.62.88-7.62 2-11" fill="#2A2C2C"/><path d="M720 272h2l3 9-4-1z" fill="#EEF2EE"/><path d="M690 172h2c.37 4.55.37 4.55-1.5 6.81L689 180l-2-1 1-5h2z" fill="#191507"/><path d="M956 668v3c-5.35 5-5.35 5-8 5 1.5-4.21 4.29-5.74 8-8" fill="#ECEFEC"/><path d="m654 139 3 1v2c-4.47 4-4.47 4-7 4v-2h2l.44-1.94C653 140 653 140 654 139" fill="#262515"/><path d="m673.75 135.94 2.42.03 1.83.03v1l-2.3.4-3.01.54-2.99.53c-2.7.53-2.7.53-5.7 1.53l1-3c2.89-1.12 5.68-1.11 8.75-1.06" fill="#100C03"/><path d="m947 674 2 3-8 4-2-2z" fill="#DBDDDB"/><path d="m760 666 2 1c-.39 2.8-.8 3.82-2.94 5.75C757 674 757 674 755 674l1-3h2z" fill="#DDDFDF"/><path d="M969 619h2v7h-2l-1 2c-.12-6.75-.12-6.75 1-9" fill="#1D211D"/><path d="M753 355c1.98 2.92 1.99 4.12 1.62 7.75L754 366c-1.95-2.92-2.45-4.63-3-8h2z" fill="#262A25"/><path d="m738 240 2 3-5 4-3-2z" fill="#E0E3E1"/><path d="M754 217c2 4 2 4 1.12 6.75L754 226h-3z" fill="#D2D4D5"/><path d="m691.19 198.94 1.8 1.06c-2 2-2 2-5.61 2.13L684 202c2.19-3.28 3.33-4.72 7.19-3.06" fill="#261E0F"/><path d="M706 148h2a22 22 0 0 1 3 5l-1 3h-2v-4h-2z" fill="#D7BD71"/><path d="M542 145a93 93 0 0 1-4 9h-2c-.25-2.25-.25-2.25 0-5 3.24-4 3.24-4 6-4" fill="#14100A"/><path d="M588 138h4v2h2v2h2l-1 4c-2.65-2.58-4.94-4.92-7-8" fill="#36250A"/><path d="M967 651h3c-1.44 3.37-3.33 5.51-6 8 .55-3.37 1.05-5.08 3-8" fill="#EDEFEE"/><path d="m903 612 6 1v3l-6-1z" fill="#F1F1F4"/><path d="M809 518h1l1 10-1-2h-2q-.06-3.5 0-7z" fill="#1E2120"/><path d="M526 247h2v2h2q2.08 2.44 4 5c-3.95 0-5.19-1.34-8-4z" fill="#232522"/><path d="m649 181 3 1v2h2l2 6c-3.74-2.66-5.65-4.58-7-9" fill="#DDC87C"/><path d="m578 179 2 1v2h-4v2h-7a60 60 0 0 1 9-5" fill="#CEB66B"/><path d="M659 143v3h-3l-2 5h-2c1.01-3.4 1.65-4.76 4.62-6.81z" fill="#221F13"/><path d="m612 696 2 4-3 4-3-1z" fill="#252527"/><path d="M889 694h10v2c-3.81 1.47-6.29.43-10-1z" fill="#E9EBE7"/><path d="M467 458v2h-3v3h-5v-2c5.75-3 5.75-3 8-3" fill="#1E1F21"/><path d="m727 3 3 2c-5.62 4-5.62 4-9 4z" fill="#D9D8DC"/><path d="M937 680c-2.17 2.5-3.73 3.44-7 4v-3c3.62-2.12 3.62-2.12 7-1" fill="#1A1D1B"/><path d="m698 672 6 5-2 2-6-5z" fill="#D5D8D3"/><path d="m527.63 674.88 3.38.12v2c-3.34 1.1-5.63.85-9 0 2-2 2-2 5.62-2.12" fill="#EDEFEF"/><path d="M759 451h1l2 9-4 1z" fill="#C8CBC9"/><path d="M763 436c2 3 2 3 1.62 5.69L764 444l-2-1q-.06-3 0-6z" fill="#F3F6F4"/><path d="m732 301 4 3-1 4c-2.25-2.05-3-3.01-4-6z" fill="#DEE3E1"/><path d="m673.69 134.44 3 .3 2.3.26v1q-2.91.33-5.86.63l-3.31.35-2.82.02-2-2c3.3-1.1 5.25-.92 8.69-.56" fill="#9E926E"/><path d="M572 45c5.75 1.62 5.75 1.62 8 5l-3 1z" fill="#E8EBE7"/><path d="m938 680 3 1-6 4-2-1c1.63-1.71 2.87-2.93 5-4" fill="#E6E9E7"/><path d="M826 669h1l1 10h-3z" fill="#D5D5D7"/><path d="m805 551 3 4-4 4c-1-2-1-2-.06-5.12z" fill="#D4D6D8"/><path d="M492 384c2 2 2 2 2.12 4.62L494 391l-3-1q-.06-2.5 0-5z" fill="#1C1F20"/><path d="M719 274c2.13 3.19 2.5 5.27 3 9h-2c-2.12-6.75-2.12-6.75-1-9" fill="#292C28"/><path d="m697.63 195.88 3.38.12c-1.13 1.56-1.13 1.56-3 3-3.2-.31-3.2-.31-6-1 2-2 2-2 5.62-2.12" fill="#261B11"/><path d="M650 184c2.5 2.31 2.5 2.31 5 5v3c-2.5-1.75-2.5-1.75-5-4z" fill="#291F0E"/><path d="M710 176c1 3 1 3-.44 6.19L708 185l-2-1v-2h2z" fill="#DAC071"/><path d="M691 37h4v2c-2 1.62-2 1.62-4 3l-2-1z" fill="#212424"/></svg>