<svg style="background:transparent" version="1.1" xmlns="http://www.w3.org/2000/svg" viewBox="0 0 1248 704"><path d="M1003.56 104.81c4.55 1.57 9 3.34 13.44 5.2q1.81.72 3.68 1.5a85 85 0 0 1 8.55 4.45q1.82 1.07 3.66 2.04c3.63 1.94 5.75 3.68 8.11 7l2.37 1.37c3.3 2.04 5.18 4.64 7.63 7.63l2.75 2.12c2.51 2.1 2.54 2.85 3.25 5.88l1.8.81c2.84 1.53 3.97 3.33 5.76 6l1.75 2.58c5.8 8.95 11.06 18.55 14.14 28.8.55 1.81.55 1.81 1.67 4.43 1.15 3.11 1.5 6.08 1.88 9.38l.38 2.1c1.11 6.75.54 12.75-3.5 18.48a101 101 0 0 1-4.13 4.92l-1.38 1.56c-4.48 4.72-8.99 5.63-15.25 6.44-5.34-.14-9.07-3.3-13.12-6.5l-3.03-2.22c-3.52-2.97-5.15-6.42-6.97-10.59l-1.02-2.25a219 219 0 0 1-6.9-17.5 53 53 0 0 0-4.25-9.28C1023 176 1023 176 1023 174l-1.94-.75c-2.6-1.58-2.35-2.42-3.06-5.25q-1.99-1.04-4-2-1.85-1.41-3.63-2.88c-6.07-4.62-12.62-7.72-20.37-7.12l-1-1c-13.77-.48-25.29 3-36.05 11.53C951 168 951 168 948.51 169.4c-7.63 4.86-11.85 13.62-15.5 21.6l-2.39 4.62c-3.8 7.61-7.1 15.46-10.43 23.28-4.4 10.34-10.25 18.02-17.66 26.36q-3.1 3.55-6.14 7.15c-3.46 3.93-7.39 7.24-11.39 10.6q-1.12.93-2.26 1.91a100 100 0 0 1-17.47 11.53L863 278c0 5.21 2.67 9.43 5 14l.95 1.92a114 114 0 0 0 2.16 4.1c3.52 6.54 5.68 13.25 7.77 20.34a53 53 0 0 0 2.23 6.4c1.04 2.61 1.31 5.15 1.61 7.94.42 3.43 1.11 6.81 1.78 10.2 1.54 9.55 1.65 19 1.63 28.64v11.86l.01 2.18c-.02 3.08-.16 5.47-1.14 8.42a79 79 0 0 0 0 4.62c.06 5.71-.3 11.3-1.56 16.88a34 34 0 0 0-.44 6.7 91 91 0 0 1-1.54 17.68c-.49 3.31-.53 6.4-.46 9.74.11 5.95.11 5.95-.5 8.3a27 27 0 0 0-.65 6.41l-.02 2.57v5.63l-.02 6.02q0 4.56-.04 9.12v5.87l-.02 2.72c.01 5.35.6 10.28 1.77 15.5.46 2.17.75 4.3.98 6.5.47 3.52 1.33 6.4 2.5 9.74.74 2.98 1.36 6 2 9l.76 3.41a183 183 0 0 1 3.24 18.6l1 3q.3 1.97.5 3.98l.25 2.37.25 2.51.26 2.6c1 9.84 1.9 19.58 1.68 29.48.06 3.05.06 3.05.55 6.87.76 6.5.7 13.03.7 19.57q0 3.35.03 6.7l.01 4.32.01 3.91A42 42 0 0 1 894 655l3.47.36c11.41 1.43 26.7 5.05 34.71 13.7C934 672 934 672 934.12 674c-5.07 9.02-12.23 11.3-21.9 14.1-18.96 4.93-38.99 7.02-58.53 7.1l-3.58.02q-5.84.03-11.67.02l-2.04.01c-30.8.02-61.53-1.27-92.29-2.87q-12.64-.65-25.28-1.27l-8.28-.4-13.45-.68c-21.56-1.1-43.13-2.15-64.72-2.24l-4-.02q-6.34-.02-12.7-.02h-2.22c-32.56-.02-64.96 1.22-97.46 3.25l-3.26.2q-10.56.64-21.12 1.42l-3.08.23a521 521 0 0 0-37.17 4.1c-48.02 7.03-95.75 8-144.19 8.04q-6.72 0-13.43.04-14.15.06-28.28 0a1024 1024 0 0 0-9.6-.02q-5.59.02-11.18-.06l-6 .02c-8.6-.16-8.6-.16-11.86-2.59A31 31 0 0 1 223 697l1 3-3 2c-2-3-2-3-2-6l2-3q.66-3.33 1.12-6.69l.88-6.3-2.42 1.23-3.2 1.63-3.17 1.62c-6.08 2.86-11.59 4.02-18.2 4.51l-2.13.23c-8.85.6-17.72-3.03-24.44-8.67-5.79-5.72-8.5-10.85-9.58-18.98.31-8.18 5.13-15.84 10.64-21.7 7.28-6.44 14.85-9.1 24.5-8.69 5.32.12 8.26-.9 12.47-4.1C209 626 209 626 211 626l.75-1.88c1.25-2.12 1.25-2.12 2.97-2.94 3.07-1.6 5.4-3.83 7.9-6.18l1.67-1.56a721 721 0 0 0 15.08-14.69l2.27-2.26c6.06-6.08 12.01-12.05 16.36-19.49 2.06-2.3 2.06-2.3 4-4h2l.83-1.8a27 27 0 0 1 3.92-5.5c.26-.32.26-.32 1.6-1.84l3.3-3.73 1.6-1.82 1.45-1.64c1.4-1.8 2.3-3.63 3.3-5.67q2.13-2.76 4.37-5.44 4.38-5.24 8.63-10.56a43 43 0 0 0-8.82-5.38c-7.26-3.59-12.24-7.42-17.42-13.65-1.7-1.9-3.44-3.4-5.45-4.97-3.76-3.1-5.5-6.53-7.3-11q-.42-.97-.8-1.98c-4.06-10.44-7.05-21.12-9.53-32.03-.78-3.42-1.6-6.76-2.66-10.1-1.56-5.44-2.08-11.04-2.79-16.63-.8-6.02-2.02-11.86-3.43-17.77-1.46-6.36-2.65-12.77-3.86-19.18l-1.16-6.05-1.1-5.76q-1.12-5.71-2.34-11.4a45 45 0 0 1-.33-8.84c0-2.4-.34-4.64-.7-7-.79-7.3.42-15.98 5.06-21.89 5.04-4.55 7.8-5.7 14.63-5.37 10.81 2.45 20.9 7.55 30.87 12.25l3.01 1.42 2.7 1.28c2.15.93 4.13 1.55 6.42 2.05l2.7.74c4.55.36 8-.99 12.24-2.55l4.65-1.65 2.26-.8c3.02-1.04 6.07-1.9 9.15-2.74l2.84-.82c5.06-1.42 9.94-2.53 15.16-3.18l3-1q2.06-.27 4.12-.44L349 340l2.31-.23c9.81-1.46 14.73-9.7 20.5-17.06 18.33-22.64 18.33-22.64 28.2-23.7 7.68 2.24 11.87 7.18 15.87 13.82a51 51 0 0 1 3.37 8.82 84 84 0 0 0 2.75 7.22c1.8 4.42 3.1 8.86 4.28 13.48.66 2.42 1.4 4.77 2.22 7.15 1.75 5.1 3.12 10.3 4.5 15.5 5-.5 8.61-1.57 13-4l4-2 2.96-1.48 3.41-1.7 1.84-.93q4.8-2.4 9.61-4.77l1.87-.92 5.15-2.53A95 95 0 0 0 484 341c4.22-2.57 8.58-4.79 13-7l4.5-2.5c3.45-1.94 6.95-3.73 10.5-5.5 4.1-2.2 8.12-4.39 11.94-7.07a40 40 0 0 1 7.81-3.8c4.68-1.79 8.76-4.12 13.01-6.75A85 85 0 0 1 553 304c5.72-2.8 11.26-5.79 16.74-9.04 3.98-2.33 8-4.17 12.26-5.96 4.51-2.14 8.84-4.49 13.15-7a78 78 0 0 1 6.35-3c4.01-1.75 7.73-3.78 11.5-6 4.57-2.62 9.04-5.17 14-7q10.79-4.6 21.44-9.5c11.56-5.26 23.5-9.55 35.56-13.5l3.18-1.07q1.39-.44 2.82-.93 1.35-.45 2.75-.94c12.5-4.09 12.5-4.09 17.43-4.63 3.82-.43 3.82-.43 6.86-1.36 19.01-5.58 43.54-6.64 62.96-3.07l2.86.46c8.9 1.46 17.52 2.9 26.04 5.88 3 .94 6 1.3 9.1 1.66q1.29.33 2.62.7c3.08.4 4.6-.35 7.38-1.7l2.94-1.38A96 96 0 0 0 840 231l2.5-1.44C845 228 845 228 848 225.5s3-2.5 5.56-3.94c3.94-2.52 6.44-6.16 9.12-9.94L864 210h2l.8-2.23a31 31 0 0 1 4.45-7.15c3.48-4.83 5.54-9.69 7.61-15.2a55 55 0 0 1 6.11-11.79c1.5-2.38 2.2-4.96 3.03-7.63q1.46-2.53 3-5l1.31-2.8c3.52-6.66 8.53-12.3 13.31-18.08l1.42-1.73c2.44-2.9 4.46-4.9 7.96-6.39l.81-1.88c1.5-2.69 3.42-3.53 6.1-4.93a68 68 0 0 0 6.65-4.5c12.5-8.85 26.38-14.52 41.57-16.3 11.12-1.53 22.13-2.16 33.43.42" fill="#121512"/><path d="M1003.56 104.81c4.55 1.57 9 3.34 13.44 5.2q1.81.72 3.68 1.5a85 85 0 0 1 8.55 4.45q1.82 1.07 3.66 2.04c3.63 1.94 5.75 3.68 8.11 7l2.37 1.37c3.3 2.04 5.18 4.64 7.63 7.63l2.75 2.12c2.51 2.1 2.54 2.85 3.25 5.88l1.8.81c2.84 1.53 3.97 3.33 5.76 6l1.75 2.58c5.8 8.95 11.06 18.55 14.14 28.8.55 1.81.55 1.81 1.67 4.43 1.15 3.11 1.5 6.08 1.88 9.38l.38 2.1c1.11 6.75.54 12.75-3.5 18.48a101 101 0 0 1-4.13 4.92l-1.38 1.56c-4.48 4.72-8.99 5.63-15.25 6.44-5.34-.14-9.07-3.3-13.12-6.5l-3.03-2.22c-3.52-2.97-5.15-6.42-6.97-10.59l-1.02-2.25a219 219 0 0 1-6.9-17.5 53 53 0 0 0-4.25-9.28C1023 176 1023 176 1023 174l-1.94-.75c-2.6-1.58-2.35-2.42-3.06-5.25q-1.99-1.04-4-2-1.85-1.41-3.63-2.88c-6.07-4.62-12.62-7.72-20.37-7.12l-1-1c-13.77-.48-25.29 3-36.05 11.53C951 168 951 168 948.51 169.4c-7.63 4.86-11.85 13.62-15.5 21.6l-2.39 4.62c-3.8 7.61-7.1 15.46-10.43 23.28-4.4 10.34-10.25 18.02-17.66 26.36q-3.1 3.55-6.14 7.15c-3.46 3.93-7.39 7.24-11.39 10.6q-1.12.93-2.26 1.91a100 100 0 0 1-17.47 11.53L863 278c0 5.21 2.67 9.43 5 14l.95 1.92a114 114 0 0 0 2.16 4.1c3.52 6.54 5.68 13.25 7.77 20.34a53 53 0 0 0 2.23 6.4c1.04 2.61 1.31 5.15 1.61 7.94.42 3.43 1.11 6.81 1.78 10.2 1.54 9.55 1.65 19 1.63 28.64v11.86l.01 2.18c-.02 3.08-.16 5.47-1.14 8.42a79 79 0 0 0 0 4.62c.06 5.71-.3 11.3-1.56 16.88a34 34 0 0 0-.44 6.7 91 91 0 0 1-1.54 17.68c-.49 3.31-.53 6.4-.46 9.74.11 5.95.11 5.95-.5 8.3a27 27 0 0 0-.65 6.41l-.02 2.57v5.63l-.02 6.02q0 4.56-.04 9.12v5.87l-.02 2.72c.01 5.35.6 10.28 1.77 15.5.46 2.17.75 4.3.98 6.5.47 3.52 1.33 6.4 2.5 9.74.74 2.98 1.36 6 2 9l.76 3.41a183 183 0 0 1 3.24 18.6l1 3q.3 1.97.5 3.98l.25 2.37.25 2.51.26 2.6c1 9.84 1.9 19.58 1.68 29.48.06 3.05.06 3.05.55 6.87.76 6.5.7 13.03.7 19.57q0 3.35.03 6.7l.01 4.32.01 3.91A42 42 0 0 1 894 655l3.47.36c11.41 1.43 26.7 5.05 34.71 13.7C934 672 934 672 934.12 674c-5.07 9.02-12.23 11.3-21.9 14.1-18.96 4.93-38.99 7.02-58.53 7.1l-3.58.02q-5.84.03-11.67.02l-2.04.01c-30.8.02-61.53-1.27-92.29-2.87q-12.64-.65-25.28-1.27l-8.28-.4-13.45-.68c-21.56-1.1-43.13-2.15-64.72-2.24l-4-.02q-6.34-.02-12.7-.02h-2.22c-32.56-.02-64.96 1.22-97.46 3.25l-3.26.2a936 936 0 0 0-63.26 5.75q-11.17 1.43-22.36 2.8l-2.54.31C380.14 705.5 335.7 704.9 291 704a76 76 0 0 1 11.46-7.74l3.75-2.1 1.92-1.09c5.2-2.98 10.31-6.14 15.43-9.26l3.68-2.24q12.12-7.39 24.16-14.9a909 909 0 0 1 18.72-11.24 698 698 0 0 0 22.8-13.94q5.78-3.7 11.63-7.25a842 842 0 0 0 36.01-23.37l2.52-1.7 7.17-4.87 2.2-1.48c2.64-1.8 5.26-3.6 7.78-5.59 2-1.39 3.44-1.8 5.83-2.19l2.38-.42 2.56-.43c43.52-8.13 85.61-28.1 124.81-48.09q3.85-1.93 7.72-3.84a846 846 0 0 0 34.58-18.04q6.6-3.6 13.21-7.14l1.9-1 7.47-3.98c10.95-5.8 10.95-5.8 15.94-9.1l3.37-2 3 1a29 29 0 0 1 1.91 5.26l1.04 3.36 1.11 3.63c5.2 16.17 11.57 31.07 20.88 45.31l1.33 2.05c6.24 9.12 14.2 16.96 22.06 24.68l1.61 1.58q3.25 3.18 6.53 6.35c9.11 8.81 18.22 17.92 18.64 31.32q.01 5.24-.1 10.46l-2.57.48c-8.82 1.81-15.85 3.72-21.38 11.14-2.65 4.34-3.24 7.25-3.3 12.25-.03.52-.03.52-.09 3.12.48 4.45 2.34 7.02 5.45 10.13 9.47 6.18 20.58 6.1 31.5 6.2l3.66.08c10.03.07 21-1.42 28.72-8.4 15.1-19.13 15.03-50.55 12.74-73.57a99 99 0 0 0-4.49-19.8C807 574 807 574 808 571c18.63 14 31.8 26.63 35.7 50.57.83 6.78.6 13.62.3 20.43l-2.75.44c-8.7 1.61-16.2 3.4-21.87 10.62-4.63 7.12-5.07 13.53-4.38 21.94 1 3.84 2.83 6.18 6.13 8.5 8.05 4.68 15.14 4.71 24.3 4.74q3.25.02 6.51.07c12.44.1 22.88-1.73 32.31-10.38 4.6-7.73 6.84-16.9 6.92-25.85l.04-3.56.03-3.86.01-1.99q.05-7.52.06-15.05v-2.23c.04-32.52-1.67-63.83-9.6-95.5a444 444 0 0 1-3.03-13.58q-.22-1.1-.48-2.23c-6.09-28.74-1.6-60.46.82-89.49 4.08-48.85 7.81-96.8-19.03-140.3-1.25-2.88-1.17-5.19-.99-8.29l2.5-1.33c31.65-17.38 49.7-41.87 63.68-74.6 8.77-20.44 19.94-36.56 41.2-45.45 12.74-4.9 27.07-3.64 39.37 1.75 17.28 9.03 24.94 25.62 31.4 43.13 3.53 9.54 6.81 17.21 15.85 22.5a25.5 25.5 0 0 0 16.25-.07c5.62-3.96 9-8.23 10.75-14.93 2.4-25.64-11.2-47.92-27-67l-1.92-2.52c-3.77-4.49-8.47-7.9-13.08-11.48l-2.42-1.89c-20.8-15.45-45.02-18.49-70.29-15.83-4.62.75-8.9 2.07-13.29 3.72l-1.99.73c-14.38 5.41-25.9 13.65-37 24.27-.32.27-.32.27-1.87 1.66-11.66 10.83-18.19 25.65-24.67 39.87-12.83 27.96-30.5 50.38-58.8 63.73-7.64 2.12-14.4-.04-21.8-2.07-26.15-6.8-53.12-8.6-79.87-4.19l-2.5.4c-38.93 6.31-75.57 23.33-110.62 40.67l-5.73 2.82a930 930 0 0 0-39.82 20.55 887 887 0 0 1-22.83 12.06q-14.06 7.2-27.9 14.8-13.3 7.27-26.69 14.3-11.53 6.07-22.91 12.4a281 281 0 0 1-27.38 13.5l-2.5 1.05-2.19.93C433 370 433 370 430 369c-.85-2.07-.85-2.07-1.5-4.78l-.75-3-.75-3.16-1.5-6.09-.75-3.02A179 179 0 0 0 418 328l-1.32-3.55c-6.13-16.32-6.13-16.32-12.42-20.65-3.28-1.16-5.8-1.15-9.26-.8-7.23 4.12-12.62 10.62-17.68 17.1-2.54 3.16-5.2 6.16-7.95 9.15l-2.6 2.83-1.35 1.4a72 72 0 0 0-2.94 3.36c-4.83 5.54-9.1 6.4-16.23 7.16a226 226 0 0 0-27.5 5.5l-3.3.86a176 176 0 0 0-15.69 4.92c-10.25 3.42-17.14.04-26.5-4.53l-6.4-3-3.08-1.45c-17.22-8.06-17.22-8.06-26.78-6.3-3.68 2.1-5.44 4.11-7 8-.26 2.77-.26 2.77-.27 5.95v3.57a347 347 0 0 1 0 7.31c.03 14.56 2.3 28.3 5.61 42.4 2.58 11.01 5.02 22.01 6.72 33.2 9.58 61.66 9.58 61.66 29.94 77.57 8.22 5.9 16.45 10.52 26 14-1.68 3.86-4.2 6.98-6.82 10.25l-1.46 1.84-6.32 7.9a692 692 0 0 1-33.94 39.43q-2.89 3.14-5.76 6.3a260 260 0 0 1-32.78 30.55c-5.84 4.6-9.17 5.93-16.55 6.1-8.55.4-15.6 1.83-22.19 7.7-4.86 5.37-8.36 12.23-8.74 19.55.4 6.22 2.97 11.33 6.74 16.2 9.58 7.44 21.05 8.2 32.82 7.18 7.7-1.99 14.44-5.55 21.07-9.87C226 674 226 674 228 674l-1 3.2c-1.52 6.15-2.59 13.85-.17 19.86 1.04 1.56 1.04 1.56 3.17 3.94l2 3c-3.8-.54-5.47-2.2-8-5l-3 3c-2-3-2-3-2-6l2-3q.66-3.33 1.12-6.69l.88-6.3-2.42 1.23-3.2 1.63-3.17 1.62c-6.08 2.86-11.59 4.02-18.2 4.51l-2.13.23c-8.85.6-17.72-3.03-24.44-8.67-5.79-5.72-8.5-10.85-9.58-18.98.31-8.18 5.13-15.84 10.64-21.7 7.28-6.44 14.85-9.1 24.5-8.69 5.32.12 8.26-.9 12.47-4.1C209 626 209 626 211 626l.75-1.88c1.25-2.12 1.25-2.12 2.97-2.94 3.07-1.6 5.4-3.83 7.9-6.18l1.67-1.56a721 721 0 0 0 15.08-14.69l2.27-2.26c6.06-6.08 12.01-12.05 16.36-19.49 2.06-2.3 2.06-2.3 4-4h2l.83-1.8a27 27 0 0 1 3.92-5.5c.26-.32.26-.32 1.6-1.84l3.3-3.73 1.6-1.82 1.45-1.64c1.4-1.8 2.3-3.63 3.3-5.67q2.13-2.76 4.37-5.44 4.38-5.24 8.63-10.56a43 43 0 0 0-8.82-5.38c-7.26-3.59-12.24-7.42-17.42-13.65-1.7-1.9-3.44-3.4-5.45-4.97-3.76-3.1-5.5-6.53-7.3-11q-.42-.97-.8-1.98c-4.06-10.44-7.05-21.12-9.53-32.03-.78-3.42-1.6-6.76-2.66-10.1-1.56-5.44-2.08-11.04-2.79-16.63-.8-6.02-2.02-11.86-3.43-17.77-1.46-6.36-2.65-12.77-3.86-19.18l-1.16-6.05-1.1-5.76q-1.12-5.71-2.34-11.4a45 45 0 0 1-.33-8.84c0-2.4-.34-4.64-.7-7-.79-7.3.42-15.98 5.06-21.89 5.04-4.55 7.8-5.7 14.63-5.37 10.81 2.45 20.9 7.55 30.87 12.25l3.01 1.42 2.7 1.28c2.15.93 4.13 1.55 6.42 2.05l2.7.74c4.55.36 8-.99 12.24-2.55l4.65-1.65 2.26-.8c3.02-1.04 6.07-1.9 9.15-2.74l2.84-.82c5.06-1.42 9.94-2.53 15.16-3.18l3-1q2.06-.27 4.12-.44L349 340l2.31-.23c9.81-1.46 14.73-9.7 20.5-17.06 18.33-22.64 18.33-22.64 28.2-23.7 7.68 2.24 11.87 7.18 15.87 13.82a51 51 0 0 1 3.37 8.82 84 84 0 0 0 2.75 7.22c1.8 4.42 3.1 8.86 4.28 13.48.66 2.42 1.4 4.77 2.22 7.15 1.75 5.1 3.12 10.3 4.5 15.5 5-.5 8.61-1.57 13-4l4-2 2.96-1.48 3.41-1.7 1.84-.93q4.8-2.4 9.61-4.77l1.87-.92 5.15-2.53A95 95 0 0 0 484 341c4.22-2.57 8.58-4.79 13-7l4.5-2.5c3.45-1.94 6.95-3.73 10.5-5.5 4.1-2.2 8.12-4.39 11.94-7.07a40 40 0 0 1 7.81-3.8c4.68-1.79 8.76-4.12 13.01-6.75A85 85 0 0 1 553 304c5.72-2.8 11.26-5.79 16.74-9.04 3.98-2.33 8-4.17 12.26-5.96 4.51-2.14 8.84-4.49 13.15-7a78 78 0 0 1 6.35-3c4.01-1.75 7.73-3.78 11.5-6 4.57-2.62 9.04-5.17 14-7q10.79-4.6 21.44-9.5c11.56-5.26 23.5-9.55 35.56-13.5l3.18-1.07q1.39-.44 2.82-.93 1.35-.45 2.75-.94c12.5-4.09 12.5-4.09 17.43-4.63 3.82-.43 3.82-.43 6.86-1.36 19.01-5.58 43.54-6.64 62.96-3.07l2.86.46c8.9 1.46 17.52 2.9 26.04 5.88 3 .94 6 1.3 9.1 1.66q1.29.33 2.62.7c3.08.4 4.6-.35 7.38-1.7l2.94-1.38A96 96 0 0 0 840 231l2.5-1.44C845 228 845 228 848 225.5s3-2.5 5.56-3.94c3.94-2.52 6.44-6.16 9.12-9.94L864 210h2l.8-2.23a31 31 0 0 1 4.45-7.15c3.48-4.83 5.54-9.69 7.61-15.2a55 55 0 0 1 6.11-11.79c1.5-2.38 2.2-4.96 3.03-7.63q1.46-2.53 3-5l1.31-2.8c3.52-6.66 8.53-12.3 13.31-18.08l1.42-1.73c2.44-2.9 4.46-4.9 7.96-6.39l.81-1.88c1.5-2.69 3.42-3.53 6.1-4.93a68 68 0 0 0 6.65-4.5c12.5-8.85 26.38-14.52 41.57-16.3 11.12-1.53 22.13-2.16 33.43.42" fill="#B9BBB9"/><path d="m680 501 3 1a29 29 0 0 1 1.91 5.27l1.04 3.35 1.11 3.63c5.19 16.17 11.57 31.07 20.88 45.31l1.33 2.06c6.24 9.12 14.2 16.96 22.06 24.67l1.61 1.58q3.25 3.19 6.53 6.35c9.11 8.81 18.23 17.92 18.64 31.32q.02 5.23-.11 10.46a597 597 0 0 0-9.47 1.95C745 639 745 639 741.86 641.07c-4.39 2.54-8.15 2.28-13.09 1.92l-2.69-.15q-2.85-.15-5.72-.34-4.56-.28-9.13-.52l-12.42-.67a846 846 0 0 0-23.62-.93l-2.18-.06c-99.58-2.56-198.17 4.1-296.62 19.02q-5.69.85-11.39 1.66c1.51-4.26 4.05-5.43 7.94-7.5 5.84-3.2 11.51-6.6 17.12-10.19 4.82-3.07 9.63-6.14 14.52-9.09a841 841 0 0 0 35.98-23.34l2.52-1.71q3.6-2.43 7.17-4.87l2.19-1.48a130 130 0 0 0 7.79-5.59c2-1.39 3.44-1.79 5.83-2.19l2.38-.42 2.56-.43c43.52-8.12 85.61-28.09 124.81-48.08q3.85-1.94 7.72-3.84a866 866 0 0 0 34.59-18.04q6.57-3.62 13.2-7.14l1.9-1.02 7.47-3.97c10.95-5.8 10.95-5.8 15.94-9.1z" fill="#ECEEEC"/><path d="M720 479h3c1.22 1.48 1.22 1.48 2.42 3.55l1.35 2.29 1.42 2.47a180 180 0 0 0 12.45 18.72C742 508 742 508 742 510h2c1.7 2.03 3.29 4.07 4.88 6.19 7.22 9.42 14.98 18.49 24.12 26.13 2.42 2.03 4.73 4.17 7.06 6.3a86 86 0 0 0 9.06 7.32L792 558v2l1.68.8a81 81 0 0 1 7.38 4.39l2.6 1.67c4.8 4.39 5.99 10.95 7.46 17.08l.52 2.01c6.17 25.04 5.11 59.77-8.52 82.36-5.25 6.96-12.78 9.93-21.12 11.69-4.63.41-9.23.42-13.88.38l-3.6.03c-11.07-.04-22.77-1.3-31.33-8.91-3.86-4.41-3.53-8.8-3.46-14.43.55-6.21 3.08-10.24 7.65-14.38 6.66-5.17 12.32-6.26 20.62-6.69-.7-17.06-4.83-27.53-17.23-39.39l-4.18-4.09-6.49-6.29c-11.37-11-21.18-22.14-28.79-36.11l-1.1-2.01c-6.63-12.27-11.33-24.93-15.55-38.21l-.96-3.02-.85-2.7C682 502 682 502 680 500l2.46-.88c16.48-6.11 16.48-6.11 21.54-10.12.8-2.69.8-2.69 1-5l1 3 2.3-1.31 3.01-1.69 2.99-1.69C717 481 717 481 720 481z" fill="#000100"/><path d="M1003.56 104.81c4.55 1.57 9 3.34 13.44 5.2q1.81.72 3.68 1.5a85 85 0 0 1 8.55 4.45q1.82 1.07 3.66 2.04c3.63 1.94 5.75 3.68 8.11 7l2.37 1.37c3.3 2.04 5.18 4.64 7.63 7.63l2.75 2.12c2.51 2.1 2.54 2.85 3.25 5.88l1.8.81c2.84 1.53 3.97 3.33 5.76 6l1.75 2.58c5.8 8.95 11.06 18.55 14.14 28.8.55 1.81.55 1.81 1.67 4.43 1.15 3.11 1.5 6.08 1.88 9.38l.38 2.1c1.11 6.75.54 12.75-3.5 18.48a101 101 0 0 1-4.13 4.92l-1.38 1.56c-4.48 4.72-8.99 5.63-15.25 6.44-5.34-.14-9.07-3.3-13.12-6.5l-3.03-2.22c-3.52-2.97-5.15-6.42-6.97-10.59l-1.02-2.25a219 219 0 0 1-6.9-17.5 53 53 0 0 0-4.25-9.28C1023 176 1023 176 1023 174l-1.94-.75c-2.6-1.58-2.35-2.42-3.06-5.25q-1.99-1.04-4-2-1.85-1.41-3.63-2.88c-6.07-4.62-12.62-7.72-20.37-7.12l-1-1c-13.77-.48-25.29 3-36.05 11.53C951 168 951 168 948.51 169.4c-7.63 4.86-11.85 13.62-15.5 21.6l-2.39 4.62c-3.8 7.61-7.1 15.46-10.43 23.28-4.4 10.34-10.25 18.02-17.66 26.36q-3.1 3.55-6.14 7.15c-3.46 3.93-7.39 7.24-11.39 10.6q-1.12.93-2.26 1.91a100 100 0 0 1-17.47 11.53L863 278c0 5.21 2.67 9.43 5 14l.95 1.92a114 114 0 0 0 2.16 4.1c3.52 6.54 5.68 13.25 7.77 20.34a53 53 0 0 0 2.23 6.4c1.04 2.61 1.31 5.15 1.61 7.94.42 3.43 1.11 6.81 1.78 10.2 1.54 9.55 1.65 19 1.63 28.64v11.86l.01 2.18c-.02 3.08-.16 5.47-1.14 8.42a79 79 0 0 0 0 4.62c.06 5.71-.3 11.3-1.56 16.88a34 34 0 0 0-.44 6.7 91 91 0 0 1-1.54 17.68c-.49 3.31-.53 6.4-.46 9.74.11 5.95.11 5.95-.5 8.3a27 27 0 0 0-.65 6.41l-.02 2.57v5.63l-.02 6.02q0 4.56-.04 9.12v5.87l-.02 2.72c.01 5.35.6 10.28 1.77 15.5.46 2.17.75 4.3.98 6.5.47 3.52 1.33 6.4 2.5 9.74.74 2.98 1.36 6 2 9l.76 3.41a183 183 0 0 1 3.24 18.6l1 3q.3 1.97.5 3.98l.25 2.37.25 2.51.26 2.6c1 9.84 1.9 19.58 1.68 29.48.06 3.05.06 3.05.55 6.85.77 6.58.7 13.2.7 19.81q0 3.42.03 6.83l.01 4.36.01 3.97C896 648 896 648 894 651c-1.2-3.64-1.18-7-1.2-10.78q-.06-2.44-.09-4.88l-.04-2.6A721 721 0 0 0 889 572q-.14-1.63-.32-3.3c-1.18-11.88-3.4-23.35-6.18-34.95l-.47-1.97-.47-1.95c-8.34-34.93-5.5-69.74-2.54-105.24 4.08-48.85 7.81-96.8-19.03-140.3-1.25-2.88-1.17-5.19-.99-8.29l2.5-1.33c31.65-17.38 49.7-41.87 63.68-74.6 8.77-20.44 19.94-36.56 41.2-45.45 12.74-4.9 27.07-3.64 39.37 1.75 17.28 9.03 24.94 25.62 31.4 43.13 3.53 9.54 6.81 17.21 15.85 22.5a25.5 25.5 0 0 0 16.25-.07c5.62-3.96 9-8.23 10.75-14.93 2.4-25.64-11.2-47.92-27-67l-1.92-2.52c-3.77-4.49-8.47-7.9-13.08-11.48l-2.42-1.89c-20.8-15.45-45.02-18.49-70.29-15.83-4.62.75-8.9 2.07-13.29 3.72l-1.99.73c-14.38 5.41-25.9 13.65-37 24.27-.32.27-.32.27-1.87 1.66-11.66 10.83-18.19 25.65-24.67 39.87-12.83 27.96-30.5 50.38-58.8 63.73-7.64 2.12-14.4-.04-21.8-2.07-26.15-6.8-53.12-8.6-79.87-4.19l-2.5.4c-38.93 6.31-75.57 23.33-110.62 40.67l-5.73 2.82a930 930 0 0 0-39.82 20.55 887 887 0 0 1-22.83 12.06q-14.06 7.2-27.9 14.8-13.3 7.27-26.69 14.3-11.53 6.07-22.91 12.4a281 281 0 0 1-27.38 13.5l-2.5 1.05-2.19.93C433 370 433 370 430 369c-.85-2.07-.85-2.07-1.5-4.78l-.75-3-.75-3.16-1.5-6.09-.75-3.02A179 179 0 0 0 418 328l-1.32-3.55c-6.13-16.32-6.13-16.32-12.42-20.65-3.28-1.16-5.8-1.15-9.26-.8-7.23 4.12-12.62 10.62-17.68 17.1-2.54 3.16-5.2 6.16-7.95 9.15l-2.6 2.83-1.35 1.4a72 72 0 0 0-2.94 3.36c-4.83 5.54-9.1 6.4-16.23 7.16a226 226 0 0 0-27.5 5.5l-3.3.86a176 176 0 0 0-15.69 4.92c-10.25 3.42-17.14.04-26.5-4.53l-6.4-3-3.08-1.45c-17.22-8.06-17.22-8.06-26.78-6.3-3.68 2.1-5.44 4.11-7 8-.26 2.77-.26 2.77-.27 5.95v3.57a347 347 0 0 1 0 7.31c.03 14.56 2.3 28.3 5.61 42.4 2.58 11.01 5.02 22.01 6.72 33.2 9.58 61.66 9.58 61.66 29.94 77.57 8.22 5.9 16.45 10.52 26 14-1.68 3.86-4.2 6.98-6.82 10.25l-1.46 1.84-6.32 7.9a692 692 0 0 1-33.94 39.43q-2.89 3.14-5.76 6.3a260 260 0 0 1-32.78 30.55c-5.84 4.6-9.17 5.93-16.55 6.1-8.55.4-15.6 1.83-22.19 7.7-4.86 5.37-8.36 12.23-8.74 19.55.4 6.22 2.97 11.33 6.74 16.2 9.58 7.44 21.05 8.2 32.82 7.18 7.7-1.99 14.44-5.55 21.07-9.87C226 674 226 674 228 674l-1 3.2c-1.52 6.15-2.59 13.85-.17 19.86 1.04 1.56 1.04 1.56 3.17 3.94l2 3c-3.8-.54-5.47-2.2-8-5l-3 3c-2-3-2-3-2-6l2-3q.66-3.33 1.12-6.69l.88-6.3-2.42 1.23-3.2 1.63-3.17 1.62c-6.08 2.86-11.59 4.02-18.2 4.51l-2.13.23c-8.85.6-17.72-3.03-24.44-8.67-5.79-5.72-8.5-10.85-9.58-18.98.31-8.18 5.13-15.84 10.64-21.7 7.28-6.44 14.85-9.1 24.5-8.69 5.32.12 8.26-.9 12.47-4.1C209 626 209 626 211 626l.75-1.88c1.25-2.12 1.25-2.12 2.97-2.94 3.07-1.6 5.4-3.83 7.9-6.18l1.67-1.56a721 721 0 0 0 15.08-14.69l2.27-2.26c6.06-6.08 12.01-12.05 16.36-19.49 2.06-2.3 2.06-2.3 4-4h2l.83-1.8a27 27 0 0 1 3.92-5.5c.26-.32.26-.32 1.6-1.84l3.3-3.73 1.6-1.82 1.45-1.64c1.4-1.8 2.3-3.63 3.3-5.67q2.13-2.76 4.37-5.44 4.38-5.24 8.63-10.56a43 43 0 0 0-8.82-5.38c-7.26-3.59-12.24-7.42-17.42-13.65-1.7-1.9-3.44-3.4-5.45-4.97-3.76-3.1-5.5-6.53-7.3-11q-.42-.97-.8-1.98c-4.06-10.44-7.05-21.12-9.53-32.03-.78-3.42-1.6-6.76-2.66-10.1-1.56-5.44-2.08-11.04-2.79-16.63-.8-6.02-2.02-11.86-3.43-17.77-1.46-6.36-2.65-12.77-3.86-19.18l-1.16-6.05-1.1-5.76q-1.12-5.71-2.34-11.4a45 45 0 0 1-.33-8.84c0-2.4-.34-4.64-.7-7-.79-7.3.42-15.98 5.06-21.89 5.04-4.55 7.8-5.7 14.63-5.37 10.81 2.45 20.9 7.55 30.87 12.25l3.01 1.42 2.7 1.28c2.15.93 4.13 1.55 6.42 2.05l2.7.74c4.55.36 8-.99 12.24-2.55l4.65-1.65 2.26-.8c3.02-1.04 6.07-1.9 9.15-2.74l2.84-.82c5.06-1.42 9.94-2.53 15.16-3.18l3-1q2.06-.27 4.12-.44L349 340l2.31-.23c9.81-1.46 14.73-9.7 20.5-17.06 18.33-22.64 18.33-22.64 28.2-23.7 7.68 2.24 11.87 7.18 15.87 13.82a51 51 0 0 1 3.37 8.82 84 84 0 0 0 2.75 7.22c1.8 4.42 3.1 8.86 4.28 13.48.66 2.42 1.4 4.77 2.22 7.15 1.75 5.1 3.12 10.3 4.5 15.5 5-.5 8.61-1.57 13-4l4-2 2.96-1.48 3.41-1.7 1.84-.93q4.8-2.4 9.61-4.77l1.87-.92 5.15-2.53A95 95 0 0 0 484 341c4.22-2.57 8.58-4.79 13-7l4.5-2.5c3.45-1.94 6.95-3.73 10.5-5.5 4.1-2.2 8.12-4.39 11.94-7.07a40 40 0 0 1 7.81-3.8c4.68-1.79 8.76-4.12 13.01-6.75A85 85 0 0 1 553 304c5.72-2.8 11.26-5.79 16.74-9.04 3.98-2.33 8-4.17 12.26-5.96 4.51-2.14 8.84-4.49 13.15-7a78 78 0 0 1 6.35-3c4.01-1.75 7.73-3.78 11.5-6 4.57-2.62 9.04-5.17 14-7q10.79-4.6 21.44-9.5c11.56-5.26 23.5-9.55 35.56-13.5l3.18-1.07q1.39-.44 2.82-.93 1.35-.45 2.75-.94c12.5-4.09 12.5-4.09 17.43-4.63 3.82-.43 3.82-.43 6.86-1.36 19.01-5.58 43.54-6.64 62.96-3.07l2.86.46c8.9 1.46 17.52 2.9 26.04 5.88 3 .94 6 1.3 9.1 1.66q1.29.33 2.62.7c3.08.4 4.6-.35 7.38-1.7l2.94-1.38A96 96 0 0 0 840 231l2.5-1.44C845 228 845 228 848 225.5s3-2.5 5.56-3.94c3.94-2.52 6.44-6.16 9.12-9.94L864 210h2l.8-2.23a31 31 0 0 1 4.45-7.15c3.48-4.83 5.54-9.69 7.61-15.2a55 55 0 0 1 6.11-11.79c1.5-2.38 2.2-4.96 3.03-7.63q1.46-2.53 3-5l1.31-2.8c3.52-6.66 8.53-12.3 13.31-18.08l1.42-1.73c2.44-2.9 4.46-4.9 7.96-6.39l.81-1.88c1.5-2.69 3.42-3.53 6.1-4.93a68 68 0 0 0 6.65-4.5c12.5-8.85 26.38-14.52 41.57-16.3 11.12-1.53 22.13-2.16 33.43.42" fill="#E6E6E8"/><path d="m243 342 1.83.95a51 51 0 0 0 6.98 2.61c11.61 4.18 21.91 11.43 31.19 19.44-.57 3.31-1.48 4.81-3.98 7.02l-1.84 1.66-1.93 1.7c-12.22 10.84-24.63 27.64-26.72 44.41L248 423l-3 2c-4.47-10.32-7.38-21.08-10-32h-2l-1 2-.4-2.63-.54-3.49-.52-3.45q-.49-3.12-1.07-6.22a66 66 0 0 1-.57-9.92l.01-3.77.03-3.9.01-3.96.05-9.66 1 4h2l.31-3.31c.89-4.75.89-4.75 3.69-6.69 3.21-1.07 3.93-1.02 7 0" fill="#272825"/><path d="M395 302c3.92-.31 6.47-.25 10.06 1.44 8.35 7.28 11.5 17.36 14.94 27.56l1.06 3.11q1.7 5.06 3.38 10.14l1.11 3.32 1.01 3.13.91 2.8c.55 2.6.41 4.02-.47 6.5v-3h-2l.5 1.58c.64 3.1.59 6.01.56 9.17l-.02 3.55-.04 2.7-4-1v-3l-2.12-.69C417 368 417 368 414.5 365.75c-10.16-8.88-24.91-11.82-37.83-14.1q-4.35-.76-8.67-1.65c-.87-5.66 1.39-8.57 4.59-12.95C374 335 374 335 375 332h2l.29-1.64c.92-3.06 2.43-5.42 4.15-8.11l1.87-2.98L385 317h2l.81-1.81A16 16 0 0 1 392 310h2v-2l1.94-.88C398 306 398 306 399 304z" fill="#252723"/><path d="M807 571c15.83 9.47 30.05 23.02 34.77 41.21 2.38 9.99 2.66 19.57 2.23 29.79l-2.75.45c-8.09 1.49-13.77 3.5-20.25 8.55l-2 1v-3h-8l.18-1.91c2.32-24.75 4.43-49.32-4.18-73.09z" fill="#EDEEEE"/><path d="M892 608h1l1 47 8 1q2.2.49 4.36 1.12l2.19.65 2.2.67 2.25.66c3.5 1.04 6.8 2.09 10 3.9v2c1.99 1.29 4.06 2.38 6.15 3.49 2.41 1.97 2.53 3.48 2.85 6.51-10.88 12.42-30.6 13.66-46 16l-2.32.36c-18.36 2.75-37.17 1.83-55.68 1.64l2-5 2.96.05q5.51.08 11.02.11l4.74.07c13.55.21 25.07-.7 35.53-10.29a52 52 0 0 0 6.96-25.1l.06-3.03.05-3.24.06-3.34.18-10.54.13-7.16z" fill="#B5B8B5"/><path d="M257.52 340c6.22 2.52 12.3 5.4 18.35 8.25l3.02 1.42 2.7 1.28c2.14.93 4.14 1.5 6.41 2.05q3.02 1.45 6 3v1c-7.89-.36-13.7-2.82-20.75-6.25l-6.4-3-3.07-1.45c-17.22-8.06-17.22-8.06-26.78-6.3-3.68 2.1-5.44 4.11-7 8-.26 2.77-.26 2.77-.27 5.95v3.57l.02 3.73-.02 3.58c.03 14.56 2.3 28.3 5.61 42.4 2.58 11.01 5.02 22.01 6.72 33.2 9.58 61.66 9.58 61.66 29.94 77.57 8.22 5.9 16.45 10.52 26 14-1.68 3.86-4.2 6.98-6.8 10.25l-1.48 1.84L285 550l-1.6 2a695 695 0 0 1-33.94 39.42q-2.89 3.13-5.76 6.3a260 260 0 0 1-30.95 29.1l-1.83 1.45c-5.84 4.6-9.17 5.93-16.55 6.1-8.55.4-15.6 1.83-22.18 7.7-4.87 5.37-8.37 12.23-8.75 19.55.4 6.22 2.97 11.33 6.75 16.2 9.58 7.44 21.04 8.2 32.81 7.18 7.7-1.99 14.44-5.55 21.07-9.87C226 674 226 674 228 674l-1 3.18c-1.52 6.16-2.59 13.87-.17 19.88 1.04 1.56 1.04 1.56 3.17 3.94l2 3c-3.8-.54-5.47-2.2-8-5l-3 3c-2-3-2-3-2-6l2-3q.66-3.33 1.12-6.69l.51-3.57.37-2.74-2.42 1.24-3.2 1.63-3.17 1.62c-6.08 2.86-11.58 4.02-18.2 4.51l-2.13.23c-8.85.6-17.72-3.03-24.44-8.67-5.79-5.72-8.5-10.85-9.57-18.98.3-8.18 5.12-15.84 10.63-21.7 7.28-6.44 14.85-9.1 24.5-8.7 5.32.13 8.26-.89 12.48-4.09C209 626 209 626 211 626l.75-1.88c1.25-2.12 1.25-2.12 2.98-2.94 3.06-1.6 5.4-3.83 7.9-6.18l1.66-1.56a721 721 0 0 0 15.08-14.69l2.27-2.26c6.06-6.08 12.02-12.05 16.36-19.49 2.06-2.32 2.06-2.32 4-4h2l.83-1.8a27 27 0 0 1 3.92-5.52l1.6-1.82 3.3-3.73 1.6-1.82 1.45-1.64c1.4-1.8 2.3-3.63 3.3-5.67q2.13-2.76 4.37-5.44 4.38-5.24 8.63-10.56a43 43 0 0 0-8.8-5.38c-7.28-3.59-12.26-7.42-17.44-13.65-1.7-1.9-3.44-3.4-5.45-4.97-3.76-3.1-5.5-6.53-7.3-11q-.42-.97-.8-1.98c-4.06-10.44-7.05-21.12-9.53-32.03-.78-3.42-1.6-6.76-2.65-10.1-1.56-5.44-2.09-11.04-2.8-16.63-.8-6.02-2.02-11.86-3.43-17.77-1.46-6.36-2.65-12.77-3.86-19.18l-1.16-6.05-1.1-5.76q-1.12-5.72-2.34-11.4a45 45 0 0 1-.33-8.84c0-2.4-.34-4.64-.7-7-.79-7.3.42-15.98 5.06-21.89 8.82-7.98 16.87-5.28 27.15-1.38" fill="#E3E5E4"/><path d="m369.31 560.25 1.7.75a183 183 0 0 1-22.15 22.36c-2.48 2.19-4.77 4.54-7.09 6.9a109 109 0 0 1-5.65 5.11 147 147 0 0 0-8.62 8.13 170 170 0 0 1-10.14 9.42c-3.18 2.8-6.27 5.69-9.36 8.58a491 491 0 0 1-15 13.5l-3.14 2.73c-24.65 21.42-24.65 21.42-31.3 21.68l-5.25.22-2.7.11-6.6.26c3.66-3.83 7.54-7.14 11.74-10.37l1.9-1.48 3.7-2.88q3-2.31 5.96-4.64 4.26-3.31 8.56-6.56c7.4-5.6 14.7-11.27 21.73-17.32 3.65-3.13 7.37-6.11 11.18-9.03 3.41-2.65 6.73-5.39 10.07-8.13q5.55-4.57 11.15-9.09l6.14-4.99 4.87-3.96q8.32-6.78 16.5-13.75 2.22-1.9 4.5-3.8l2.62-2.39c2.37-1.61 2.37-1.61 4.68-1.36" fill="#ECECEE"/><path d="M923 663c4.66 2.42 8.22 4.37 11 9 .11 3.36-2 6.02-4.19 8.49-17.56 14.68-54.46 14.63-76.12 14.71l-3.58.02-11.66.03h-2.05c-30.81.02-61.52-1.27-92.29-2.87a10691 10691 0 0 0-31.51-1.57l-2.05-.1-13.45-.68c-21.56-1.1-43.13-2.15-64.71-2.23l-4-.02-12.7-.03h-2.23c-32.56-.02-64.96 1.22-97.46 3.25l-3.26.2c-22.85 1.4-45.6 3.51-68.35 6.06l-2.75.3q-13.7 1.53-27.4 3.13l-10.31 1.2-4.79.57A219 219 0 0 1 368 704v-1c16.3-2.4 32.53-4.73 48.99-5.71 3.98-.26 7.93-.71 11.89-1.2l4.52-.54 2.31-.28c20.64-2.47 41.26-4.71 62.01-6.05q4.97-.33 9.92-.71 10.56-.77 21.11-1.38l4.58-.27c57.25-3.4 114.78-2.95 172 .49a1570 1570 0 0 0 33.96 1.58l22.71.88 11.72.46 6.37.24c5.34.2 10.65.42 15.96 1.02 6.39.69 12.78.65 19.2.67l2.04.01q5.38.03 10.75.03 4.35 0 8.7.04c75.09.58 75.09.58 92.45-14.72C931 675 931 675 930.9 672.52c-1.17-3.26-2.4-3.82-5.46-5.33l-2.51-1.27L921 665z" fill="#E8EAE9"/><path d="m412 449 1 3q-5.83 3.52-11.69 7a418 418 0 0 1-6.57 3.94l-2.97 1.77c-2.88 1.34-4.64 1.57-7.77 1.29v3l-6.19 3-3.48 1.69c-3.12 1.23-5.03 1.61-8.33 1.31-.53-3.03-.46-5.19 1.07-7.9 7.21-9.14 19.61-15.07 30.74-17.79 4.73-.46 9.44-.39 14.19-.31" fill="#131415"/><path d="m899 246 2 1-2.81 3.31-1.58 1.87c-3.54 4.01-7.52 7.39-11.61 10.82l-2.26 1.92a100 100 0 0 1-17.47 11.54L863 278c0 5.21 2.67 9.43 5 14l.95 1.92q1.05 2.06 2.16 4.1c3.52 6.54 5.68 13.25 7.78 20.34a52 52 0 0 0 2.22 6.39c1.04 2.63 1.31 5.16 1.61 7.95.42 3.43 1.11 6.81 1.78 10.2 1.54 9.55 1.66 18.99 1.63 28.64q-.01 3.63.01 7.24l-.01 4.62.01 2.18c-.02 3.08-.16 5.47-1.14 8.42h-2l-.04-3.2c-.57-38.11-2.41-73.2-22.96-106.51-1.25-2.87-1.17-5.19-1-8.29l2.5-1.33c14.02-7.7 26.64-16.87 37.5-28.67" fill="#E7E7E8"/><path d="M359 484a23 23 0 0 1 4 3c-.53 3.79-1.38 6.17-4 9h-2l.56 3.44.44 3.56c-1 1-1 1-4.56 1.06L350 504l-.62-2.25c-1.38-2.75-1.38-2.75-4.5-4.69-2.88-2.06-2.88-2.06-3.63-5 .82-3.34 1.91-5.08 4.7-7.15 4.12-1.83 8.67-1.7 13.05-.91" fill="#656663"/><path d="M257 504c3.91.92 5.57 2.52 7.81 5.69 7.85 10.97 20.46 18.24 33.19 22.31-1.68 3.86-4.2 6.99-6.81 10.25l-1.47 1.84-6.31 7.9a714 714 0 0 1-29.97 35.26l-1.52 1.66A37 37 0 0 1 245 595c1.48-3.38 3.43-5.74 5.94-8.44A52 52 0 0 0 258 577c2.06-2.31 2.06-2.31 4-4h2l.83-1.79a27 27 0 0 1 3.92-5.52l1.59-1.82 3.32-3.74 1.59-1.82 1.45-1.63c1.4-1.81 2.3-3.64 3.3-5.68a174 174 0 0 1 4.38-5.44q4.36-5.23 8.62-10.56a43 43 0 0 0-8.81-5.38c-7.26-3.58-12.24-7.41-17.42-13.63a51 51 0 0 0-7.39-6.57c-1.68-1.73-1.99-3.07-2.38-5.42" fill="#E4E5E5"/><path d="M262.97 342.3q6.48 2.92 12.9 5.95l3.02 1.42 2.7 1.29c2.14.93 4.14 1.49 6.41 2.04q3.02 1.45 6 3v1c-7.89-.36-13.7-2.82-20.75-6.25l-6.4-3-3.07-1.45c-17.22-8.06-17.22-8.06-26.78-6.3-3.7 2.12-5.37 4.13-7 8-.32 2.2-.32 2.2-.4 4.55l-.23 5.2-.1 2.69q-.15 3.28-.27 6.56h-1q-.5-4.74-.88-9.5l-.29-2.69c-.46-6.22.57-9.47 4.61-14.23 8.97-9.09 21.54-2.65 31.53 1.72" fill="#D8D9DB"/><path d="M1008 106c5.8 2.39 11.39 5.19 17 8l2.81 1.38c9.96 5.07 9.96 5.07 13.19 9.62l2.38 1.38a18 18 0 0 1 5.24 4.68C1051 134 1051 134 1054 136l-1 3-2.94-2.5-1.95-1.66q-2.1-1.83-4.12-3.74c-9.05-8.46-19.57-14.4-30.99-19.1l-2.21-.93c-8.21-3.3-16.5-3.32-25.23-3.63l-3.37-.13L974 107v-1l1.99-.08a1348 1348 0 0 0 12.01-.48l2.99-.12 2.76-.11c8.75-.8 8.75-.8 14.25.79" fill="#DFE1E0"/><path d="m293 471 .52 1.79c3.2 10.47 3.2 10.47 8.29 13.17 1.7.75 3.45 1.4 5.19 2.04v1c-8.69-.03-15.75-2.13-23-7-4-4.29-4-4.29-4-8q2.4-.76 4.81-1.5l2.71-.84C290 471 290 471 293 471" fill="#DABF67"/><path d="M1054 137c1.5 1.38 1.5 1.38 3 3v2l1.78.7c2.79 1.63 3.99 3.44 5.78 6.11l1.76 2.58c5.78 8.96 11.05 18.55 14.13 28.79.55 1.82.55 1.82 1.67 4.44 1.15 3.12 1.5 6.09 1.88 9.38l.32 2.38.59 4.7c.09 1.92.09 1.92-.91 3.92h-2l-.48-3.66c-3.06-22.06-11.36-40.68-25.68-57.74-1.84-2.6-1.84-2.6-1.84-6.6" fill="#E7E8E6"/><path d="M882 386h1q.55 4.21 1.06 8.44l.32 2.37c.76 6.42.48 12.38-.94 18.69a34 34 0 0 0-.44 6.69c.09 9.38-1.51 18.57-3 27.81h-2v10h-1c-.22-8.3.38-16.46 1.17-24.71l1.03-11.18.21-2.29c1.06-11.92 1.82-23.87 2.59-35.82" fill="#EBEBED"/><path d="M379 459a20 20 0 0 1 2.69 3.88l1.32 2.17C384 467 384 467 384 469l-6.19 3-3.48 1.69c-3.12 1.23-5.03 1.61-8.33 1.31-.58-3.3-.47-5.32 1.45-8.11C374.31 459 374.31 459 379 459" fill="#DCC381"/><path d="M579 685q18.46-.09 36.94-.12l2.73-.01c26.83-.05 53.56.17 80.33 2.13v1c-14.33 1.81-28.63.8-43 0v-1l-77-1z" fill="#E1E4E0"/><path d="M892 583c3.54 3.54 2.99 9.14 3.02 13.95q-.02 2.93-.08 5.86c.06 3.19.06 3.19.55 7.01.78 6.57.7 13.18.7 19.79l.03 6.84.01 4.35.01 3.97C896 648 896 648 894 651c-1.24-3.73-1.23-7.27-1.32-11.16l-.06-2.48-.18-7.98-.13-5.46c-.31-13.64-.44-27.28-.31-40.92" fill="#F0F3F2"/><path d="m244 594 1 3-8 8.06-2.25 2.28a256 256 0 0 1-21.87 19.47l-1.77 1.45c-4.54 3.61-8.47 6.03-14.49 5.36L194 633c2-2 2-2 5.25-2.38 4.18-.69 6.35-2.17 9.75-4.62h2l.75-1.88C213 622 213 622 214.71 621.2c3.17-1.66 5.58-4.02 8.17-6.45l1.68-1.57A703 703 0 0 0 244 594" fill="#E2E3E2"/><path d="m495 576 3 1-2.92 2.05-3.83 2.7-1.92 1.34A58 58 0 0 0 480 591h2v2q-3.59.76-7.19 1.5l-2.04.43A43 43 0 0 1 462 596c2.15-2.15 4.07-3.21 6.75-4.62a687 687 0 0 0 13.56-7.5l3.43-1.95C489 580 489 580 492.23 577.7z" fill="#080A08"/><path d="m228 674-1 3.19c-1.52 6.16-2.59 13.86-.17 19.87 1.05 1.56 1.05 1.56 3.17 3.94l2 3c-3.8-.54-5.47-2.2-8-5l-3 3c-2-3-2-3-2-6l2-3c.48-3.07.48-3.07.75-6.56l.3-3.51C222 680 222 680 220 678c5.75-4 5.75-4 8-4" fill="#CFCFD3"/><path d="M892 608h1l1 47 8 1q2.2.49 4.36 1.12l2.19.65 2.2.67 2.25.66c3.5 1.04 6.8 2.09 10 3.9-3.37 1.14-5.4.85-8.77-.18l-2.75-.82-2.86-.88-5.58-1.67-2.49-.77c-2.81-.75-5.69-1.2-8.55-1.68z" fill="#C3C5C3"/><path d="m792 233 2.67.48A102 102 0 0 1 816 240v2a72 72 0 0 1-14.62-2.88c-9.93-2.83-20.16-3.9-30.38-5.12v-1c7.64-2.29 13.27-1.65 21 0" fill="#E2E1E5"/><path d="m305.88 466.75 2.56-.02c7.38.02 15.06.4 21.06 5.14l1.96 1.5c1.75 1.85 2.16 3.14 2.54 5.63l-1.36-1.24-1.82-1.63-1.8-1.62c-10.65-7.96-29.62-4.72-42.02-3.51 4.9-4.9 12.4-4.31 18.88-4.25" fill="#050503"/><path d="M883 346h1c2.34 8.47 2.27 16.84 2.21 25.54l-.02 7.24-.02 4.62-.01 2.18c-.02 3.08-.18 5.48-1.16 8.42h-2z" fill="#F1F0F4"/><path d="m399 304-1 3c-2.06.69-2.06.69-4 1v2a361 361 0 0 1-6 5l-1 2h-2l-1 3-2-3h2l1-4-2-1a819 819 0 0 1 6.84-6.15c3.48-2.98 4.79-2.89 9.16-1.85" fill="#151717"/><path d="m993.38 104 2.62 1v1l-1.82.08c-11.07.47-22.13.94-33.18 1.92v-2l2.55-.4 3.33-.54 3.3-.52c7.73-1.47 15.25-2.85 23.2-.54" fill="#F2F2F3"/><path d="M757.03 229.76q3.15-.02 6.29-.07l4-.02 3.67-.03C774 230 774 230 777 233h-40c4.83-4.83 13.59-3.22 20.03-3.24" fill="#F0F0F2"/><path d="m415 449-1 2-2-1c-11.32-.83-19.45 1.36-29.3 6.86-2.7 1.14-2.7 1.14-5.06.82L376 457c10.1-6.28 27.29-15.81 39-8" fill="#030404"/><path d="M925 123h2c-1.16 3.48-1.97 3.93-4.88 6-5.94 4.46-10.94 9.68-16.12 15l-4 4c0-3.93 1.34-5 3.81-8l2.15-2.62c3.37-3.92 3.37-3.92 5.04-5.38h2l.56-1.75c2.14-3.35 4.94-4.4 8.44-6.25z" fill="#DADADA"/><path d="m830 688 32 1v1l-17 1v2h-17z" fill="#9FA1A1"/><path d="M373 462h5c1.12 5.75 1.12 5.75 0 8h-4v2l-6 1v-5h2v-2h2z" fill="#EDC664"/><path d="m284.19 471.38 1.8.62-6 2c1.9 5.68 5.1 7.87 10.09 10.68 4.8 2.18 9.77 3.31 14.92 4.31v1h-11v-2h-4v-2h-6l-1-3q-1.48-.48-3-1v-4h-2c.3-2.37.3-2.37 1-5 3-2 3-2 5.19-1.62" fill="#1B1007"/><path d="M888 560c3.46 2.3 3.73 3.63 4.59 7.57 2.05 12.15 2.05 12.15.41 15.43q-.34 2.55-.56 5.12l-.26 2.76L892 593h-1l-1.28-12.17-.44-4.14-.62-5.96-.38-3.61C888 564 888 564 888 560" fill="#CDCDCE"/><path d="M242.63 338.94a233 233 0 0 1 5.38.06l-2 1v2l3 1v2l-7-1v-2c-2.82.19-2.82.19-6 1a19 19 0 0 0-4 9h-2c-.35-2.92-.54-5.13 1.03-7.7 3.84-4.64 5.72-5.43 11.59-5.36" fill="#141515"/><path d="M394 302v2a92 92 0 0 1-4.44 3.44c-5.8 4.51-10.08 9.77-14.56 15.56l-3.06 3.69L370 329l-2-2c21.27-25 21.27-25 26-25" fill="#DEDFDF"/><path d="m865 690 1 3h-21v-2h-6v-1q5.65-.3 11.31-.56l3.25-.17 3.12-.15 2.87-.14C862 689 862 689 865 690" fill="#BEBEC0"/><path d="m967 157-18.24 12.15A128 128 0 0 0 942 174c3.65-8.86 15.26-17.95 25-17" fill="#E9E9EA"/><path d="M879 424h1c2.77 17.15 2.77 17.15 0 26h-2v10h-1c-.15-8.12.3-16.1 1-24.19l.29-3.46z" fill="#CECFD0"/><path d="M226 352h2c.72 9.36 1.14 18.61 1 28-2.92-2.44-2.92-2.44-3.26-4.91l.14-2.15c.12-3.46-.02-6.7-.44-10.13-.43-3.81-.33-7.04.56-10.81" fill="#EFEFF0"/><path d="m878 189 2 1c-1.48 5.86-4.62 10.08-8.12 14.88l-1.71 2.37L866 213l-1-3c1.68-2.77 1.68-2.77 4-6q2.11-3.36 4.19-6.75l1.07-1.75A82 82 0 0 0 878 189" fill="#E0E3E1"/><path d="m424 342 3 1c.66 1.89.66 1.89 1.06 4.25A49 49 0 0 0 431 357c.73 2.65 1.36 5.32 2 8l-3 1-3-9.75-.87-2.79-.82-2.69-.76-2.48C424 346 424 346 424 342" fill="#ECEEED"/><path d="M251 483c2.04 3.06 3.2 5.88 4.5 9.31l1.28 3.37q1.7 4.63 3.22 9.32c-1.81-.06-1.81-.06-4-1a65 65 0 0 1-3-7l-1.75-3.75C250 490 250 490 251 487z" fill="#DADCDA"/><path d="m244 465 2 1v2h2q1.04 4.68 2.06 9.38l.61 2.69.55 2.58.53 2.38C252 487 252 487 251 489c-3.05-4.82-4.46-8.23-5-14l-1-4q-.52-3-1-6" fill="#E2E2E3"/><path d="m288.06 475.94 2.94.06v2l2 1c.62 2.56.62 2.56 1 5h-4v-2l-4 1-2-6c1-1 1-1 4.06-1.06" fill="#EBC462"/><path d="M923 663c4.66 2.42 8.22 4.37 11 9 .11 3.52-2.22 6.14-4.46 8.74-2.58 2.11-5.31 2.13-8.54 2.26l3-2q1.86-1.55 3.69-3.12l1.88-1.64L931 675c-.21-2.32-.21-2.32-1-5-2.07-1.58-2.07-1.58-4.56-2.81l-2.51-1.27L921 665z" fill="#E4E6E4"/><path d="m244 594 1 3-17 17-1-3z" fill="#D5D7D5"/><path d="m1003.06 104.81 2.72.52 2.22.67 1 2c-3.15 1.13-5.5.77-8.75.27-4.87-.59-9.79-.66-14.69-.84l-3.37-.13-8.19-.3v-1l2-.08q4.43-.16 8.87-.36l3.13-.12 3-.13 2.75-.1c7.74-.7 7.74-.7 9.31-.4" fill="#BDBDBF"/><path d="M425 357h2v3h2l2 10h-3l-1 7h-2z" fill="#1A1C1B"/><path d="M412 318c2.86 1.03 3.84 1.68 5.27 4.43l.98 2.88 1.02 2.87c.71 2.74.87 5 .73 7.82l-2 1-2.44-7.25-.69-2.07A96 96 0 0 1 412 318" fill="#1D1D1D"/><path d="M411 452v3c-3.06 2.4-6.6 4.12-10 6l-3.42 2.02-3.46 1.98-3.24 1.88c-2.88 1.12-2.88 1.12-5.06.19L384 466l1.63-.46c6.27-1.9 11.43-4.72 16.93-8.23l2.48-1.55q2.99-1.87 5.96-3.76" fill="#060706"/><path d="M1081 196h1l.18 1.86.26 2.45.24 2.43c.32 2.26.32 2.26 1.32 5.26-1.9 4.76-4.66 8.2-8 12l-3-1 2.38-2.62c4.97-6.06 5.11-12.82 5.62-20.38" fill="#D5D7D6"/><path d="M992 152v1h-15v2c-9.38 3.12-9.38 3.12-14 2 6.96-6.96 19.91-5.31 29-5" fill="#D4D7D4"/><path d="m929 191 2 3c-.42 1.9-.42 1.9-1.34 4.01l-.97 2.3-1.07 2.38-1.03 2.41L924 211h-3a152 152 0 0 1 8-20" fill="#DEDDE1"/><path d="M977 153q5.16-.08 10.31-.12l2.96-.06 2.84-.02 2.62-.03C998 153 998 153 1001 155l-1 3-1.62-1c-2.91-1.22-5.25-1.07-8.38-1l-1-1c-8.19-.27-8.19-.27-12 1z" fill="#EBEDEB"/><path d="M619 273c-3.58 3-7.53 4.78-11.75 6.69l-2.11.97L600 283c2.38-5.99 8.37-7.74 13.88-10.38C616 272 616 272 619 273" fill="#E5E5E7"/><path d="M772 691c19.97-.18 19.97-.18 29 1v1c-5.71.99-11.21 1.1-17 1v-2h-12z" fill="#E2E3E4"/><path d="m255 650 2 1-2 3 3 3-5.88 1.56-3.3.88C246 660 246 660 244 659z" fill="#E3E5E3"/><path d="m842 623 2 1v18h-7l2-2 2 1z" fill="#DBD9DA"/><path d="M328 474c2.99 1.1 3.85 1.68 5.25 4.62L334 481c-2.81 1.56-2.81 1.56-6 3l-3-1 2-3q.59-2.99 1-6" fill="#AFA069"/><path d="m222 680-5.19 2.88-2.92 1.61A71 71 0 0 1 206 688l-3-3 2.77-1.06 3.61-1.38 3.58-1.37c5.64-2.21 5.64-2.21 9.04-1.19" fill="#E2E3E4"/><path d="M163 666c2 3 2 3 3.31 5.88 1.83 3.37 3.88 5.53 6.69 8.12l2 2-3 1c-5.53-4.93-8.95-8.82-11-16z" fill="#DBDCDC"/><path d="M892 583c3.12 3.12 2.97 6.78 3 11-.49 4.7-1.2 9.34-2 14h-1z" fill="#EDEDED"/><path d="M231 377h2c2.1 5.13 2.22 9.56 2 15l-3-1c-1.05-3.15-1.1-5.39-1.06-8.69l.02-3.01z" fill="#101210"/><path d="m581 289 2 3-14 7c2.78-5.56 6.17-8 12-10" fill="#EBE9EE"/><path d="m958 106 5 2v1l-6.75 1.94-3.8 1.09q-3.71 1.06-7.45 1.97l-1-2 2.81-1.06 3.63-1.38 3.62-1.37C957 107 957 107 958 106" fill="#DFDFE0"/><path d="M288 482h2v2l1.94.11c5.66.43 9.98 1.35 15.06 3.89v1c-7.49-.28-13.36-1.48-20-5z" fill="#D1BA7C"/><path d="m619 531 2 3-14 7v-3c2.85-1.98 5.9-3.45 9-5z" fill="#1D1E1C"/><path d="M231 341c1 3 1 3 .09 4.9L230 348c-.32 2.2-.32 2.2-.41 4.55l-.12 2.56-.09 2.64-.12 2.69L229 367h-1q-.42-4.81-.75-9.62l-.25-2.74c-.39-5.98.06-9.05 4-13.64" fill="#D0D2CF"/><path d="M1081 188c3.45 3.45 3.45 4.38 3.75 9.06l.23 3.23c.02 2.71.02 2.71-.98 4.71h-2z" fill="#EAEBE9"/><path d="M280 525c4.97 1.49 9.42 3.6 14 6l-2 3-12-6z" fill="#EBEBED"/><path d="m374 656-1 2h5v1l-13 2c2.36-4.71 3.76-6.75 9-5" fill="#E4E4E4"/><path d="M236 392v16c-3.25-4.88-3.11-9.22-3-15 2-1 2-1 3-1" fill="#0E100E"/><path d="M419 329c1.89.68 1.89.68 4 2a22 22 0 0 1 1.75 5.12l.73 2.76.52 2.12-3 2-2-5.88-1.12-3.3C419 331 419 331 419 329" fill="#E3E4E2"/><path d="M163 651h2l-2 16h-2c-1.2-6.37-1.06-10.24 2-16" fill="#EFF2F0"/><path d="m240 414 3 2v4h-2l-1 3-2 1c-.69-3.31-.69-3.31-1-7 1.44-1.94 1.44-1.94 3-3" fill="#1E1E1D"/><path d="M231 395h2q.55 2.37 1.06 4.75l.6 2.67A13 13 0 0 1 234 409h-2c-1.21-4.67-1.09-9.21-1-14" fill="#D0D2D2"/><path d="M882 335h1l2 11h-2v9h-1q-.3-3.87-.56-7.75l-.17-2.21c-.25-3.59-.27-6.59.73-10.04" fill="#DEDCE1"/><path d="m396.81 303.25 2.2.75-1 3q-2 .56-4 1l-1 2-2-2-2-1c4.3-4.06 4.3-4.06 7.8-3.75" fill="#141316"/><path d="M1001 155c5.68 1.42 9.53 4.39 14 8l-3 1c-2.7-1.36-2.7-1.36-5.69-3.31l-3.01-1.93-2.3-1.76z" fill="#DADCD9"/><path d="M374 327c-1.43 3.45-3.1 5.1-6.12 7.25l-2.2 1.58L364 337l-2-1a615 615 0 0 1 6.74-7.03C371 327 371 327 374 327" fill="#1C1C1F"/><path d="m899 246 2 1-2.81 3.31-1.58 1.87A35 35 0 0 1 887 260c1.59-3.9 4.13-6.34 7.12-9.25l2.76-2.7z" fill="#EDEEED"/><path d="m245 336 1 2-1.79.33c-4.62.93-8.3 1.89-12.21 4.67.3-2.94.81-3.84 3.12-5.75 3.47-1.51 6.14-1.47 9.88-1.25" fill="#E6E9E5"/><path d="M222 688h1v13h-3v-3l-1-3 2-2c.62-2.62.62-2.62 1-5" fill="#D6D8DC"/><path d="m171 640 3 1-1.21 1.39c-2.7 3.13-5.37 6.25-7.79 9.61l-1-3c1.18-2.01 1.18-2.01 2.88-4.12l1.67-2.14C170 641 170 641 171 640" fill="#D5D9D5"/><path d="m310 607 1 3c-7.11 6.52-7.11 6.52-12 8 1.48-3.67 3.48-5.41 6.62-7.75l2.48-1.86z" fill="#E2E2E3"/><path d="m1045 128 2.25 2.31A53 53 0 0 0 1054 136l-1 3-3.38-2.75-1.89-1.55a16 16 0 0 1-3.73-5.7z" fill="#DADBDB"/><path d="m228 674-2 8c-2.47-1.15-4.05-2.05-6-4 5.75-4 5.75-4 8-4" fill="#CACACB"/><path d="m370 460 3 1-1.24 1.61-1.64 2.14-1.61 2.11A39 39 0 0 0 365 473c-.62-2.31-.62-2.31-1-5l2-3h2v-3h2z" fill="#251A0B"/><path d="M882 386h1l1 15h-1l-1 5h-1z" fill="#BBBBBD"/><path d="M251 483c3 4.5 4.32 8.58 4 14-2.33-2.12-3.89-4.03-5-7l1-3z" fill="#D5D7D3"/><path d="m379 459 4 8-3 1v-4h-2v-2h-5c2.62-3 2.62-3 6-3" fill="#C8B679"/><path d="m816 239 6.05.88C824 240 824 240 826 239l-1 4h-8z" fill="#EEEEF2"/><path d="m907 235 2 1a69 69 0 0 1-7 10l-3-1z" fill="#DADBDA"/><path d="M785 233v2l-14-1v-1c9.41-2.67 9.41-2.67 14 0" fill="#D9D9DC"/><path d="M864 210c.78 1.7.78 1.7 1 4-1.87 2.36-1.87 2.36-4.44 4.75l-2.56 2.42-2 1.83-2-1 1.46-1.39 1.92-1.86 1.89-1.83A21 21 0 0 0 863 211z" fill="#EFEFF1"/><path d="m837 237-4.38 2.5-2.46 1.41C828 242 828 242 826 242c1.03-2.82 1.7-3.83 4.38-5.31 2.79-.73 3.93-.49 6.62.31" fill="#E3E3E6"/><path d="M915 228c-1.39 4.43-3.61 6.87-7 10 .32-3.57.64-5.56 2.94-8.38C913 228 913 228 915 228" fill="#EBEBEC"/><path d="M272 519c3.44 1.53 6.12 3.6 9 6l-2 2q-1.76-1.14-3.5-2.31l-1.97-1.3L272 522z" fill="#DEDEDE"/><path d="m255 339-2 2c-3.26-.24-3.26-.24-7.12-.88l-3.89-.61L239 339v-1c5.84-1.24 10.27-.57 16 1" fill="#D1D2D1"/><path d="M887 259c-1.49 3.8-3.76 5.61-7 8l-3-2 3.88-3 2.17-1.69C885 259 885 259 887 259" fill="#E3E1E3"/><path d="m737.69 232.44 3.57.3 2.74.26v1l-16 1v-2c3.55-1.18 5.98-.9 9.69-.56" fill="#DEDFE0"/><path d="M412 698c-1.11 1.52-1.11 1.52-3 3-2.92.07-2.92.07-6.19-.31l-3.29-.37L397 700v-1a99 99 0 0 1 15-1" fill="#DCDFDC"/><path d="m290 636 2 1v3a20 20 0 0 1-10 4z" fill="#1D1D22"/><path d="M366 566c.81 1.69.81 1.69 1 4-2.25 2.75-2.25 2.75-5 5h-3c1.56-3.82 4.04-6.19 7-9" fill="#1E1E1E"/><path d="M639 523c-4.93 4.93-4.93 4.93-8.75 5.19L628 528c6.17-6.61 6.17-6.61 11-5" fill="#242426"/><path d="M231 353c1.49 2.99 1.12 5.71 1 9l-1 2h-2v-10z" fill="#101211"/><path d="M974 106v1l-13 1v-2c4.61-1.3 8.34-.71 13 0" fill="#E8E9EA"/><path d="M333 588c0 3 0 3-1.39 4.57l-1.86 1.55-1.83 1.58A14 14 0 0 1 322 598c3.49-3.6 7.11-6.83 11-10" fill="#DFE0E0"/><path d="m498 577-10 7-2-1c7.11-7.63 7.11-7.63 12-6" fill="#030301"/><path d="M231 365h1l1 11-3 1q-.05-2.71-.06-5.44l-.04-3.06c.1-2.5.1-2.5 1.1-3.5" fill="#0F1011"/><path d="M305 352c-3.09 3.09-6.55 3.94-10.88 4.12L292 356c4.39-3.48 7.42-4.12 13-4" fill="#EBEEEC"/><path d="m494 335 1 2c-2.53 2.8-4.2 4.46-8 5v-3l2.94-1.44C493 336 493 336 494 335" fill="#EEEEF0"/><path d="M235 605c-1.58 4.27-4.51 6.27-8 9 .46-4.15 3.52-9 8-9" fill="#CBCECC"/><path d="m347 584 3 1-9 8c0-3 0-3 1.31-4.61l1.69-1.58 1.69-1.6z" fill="#0A0B0C"/><path d="M294 531c2.06.44 2.06.44 4 1-1.44 3.37-3.33 5.51-6 8 .88-7.88.88-7.88 2-9" fill="#DEDFE0"/><path d="M284 473v3h-2v2l4 2-2 2c-4-4.62-4-4.62-4-8 2-1 2-1 4-1" fill="#C9B270"/><path d="M244 457c2.57 3.85 2.55 6.43 3 11-3.88-4.75-3.88-4.75-5-7 .94-2.12.94-2.12 2-4" fill="#D5D6D5"/><path d="M336 343v2l-9 1 1-3c3.29-.8 4.71-1.1 8 0" fill="#EFF1F0"/><path d="M420 337c1.5 1.19 1.5 1.19 3 3 .19 2.69.19 2.69 0 5l-3-1q-.57-2.99-1-6z" fill="#161917"/><path d="m469 692-4 1v2l-10-1v-1c4.72-.77 9.22-1.1 14-1" fill="#DFE2DC"/><path d="m188 631 12 2v1h-14z" fill="#F0F2F0"/><path d="M379 460h5v2h2v2l-4 2z" fill="#221910"/><path d="M398 302c5.35.37 7.51 2 11 6-4.19-.67-7.4-2.86-11-5z" fill="#16161A"/><path d="m867 293 3 1c.73 1.85.73 1.85 1.19 4.06l.48 2.23.33 1.71c-3-1-3-1-4.19-2.81C867 297 867 297 867 293" fill="#EBECEA"/><path d="m261 641 4 2c-2.36 2.1-3.55 2.97-6.75 3.19L256 646l1-2h3z" fill="#0D0C09"/><path d="M537 574v2q-1.87.8-3.75 1.56l-2.11.88c-2.44.64-3.78.36-6.14-.44l4.88-2 2.74-1.12C535 574 535 574 537 574" fill="#D7D8D9"/><path d="m655 512 2 1v2l-7 3-2-2c5.27-3.22 5.27-3.22 7-4" fill="#181C19"/><path d="M230 386h1q.33 2.12.62 4.25l.36 2.39c.02 2.68-.61 4.09-1.98 6.36l-.56-5.38-.32-3.02c-.12-2.6-.12-2.6.88-4.6" fill="#E9ECEA"/><path d="M573 293c2.62.38 2.62.38 5 1a29 29 0 0 1-9 5c1.15-2.47 2.05-4.05 4-6" fill="#DFE0E0"/><path d="m633 267-2 5-6-1c5.22-4 5.22-4 8-4" fill="#212125"/><path d="m943.38 113.25 1.62.75c-5.17 3.22-5.17 3.22-7 4l-3-1c5.41-4.06 5.41-4.06 8.38-3.75" fill="#EBEBED"/><path d="m880 422 3 3c-.2 2.85-1.14 5.25-2 8h-1z" fill="#F1F1F3"/><path d="M268 346c3.82.53 6.06 1.5 9 4-3 1-3 1-6.19-.44L268 348z" fill="#DFE0E4"/><path d="M924 202c2 4 2 4 1.12 6.75L924 211h-3z" fill="#D3D1D5"/><path d="M884 176h2c-.5 3.69-1.1 5.6-4 8-.69-1.75-.69-1.75-1-4 1.31-2.25 1.31-2.25 3-4" fill="#EEF0F2"/><path d="M871 687h3v3l2 2h-6c0-3 0-3 1-5" fill="#C0C0C2"/><path d="m446 483 1 2c-1.25 3.06-1.25 3.06-3 6l-3 1a29 29 0 0 1 5-9" fill="#040604"/><path d="m241 451 3 1v7h-2l-2-7z" fill="#E9E9EB"/><path d="M473 350v3c-2 2-2 2-5.12 2.12L465 355a40 40 0 0 1 8-5" fill="#222226"/><path d="M373 321h2c-1.44 3.37-3.33 5.51-6 8 0-3.93 1.39-5.16 4-8" fill="#E1E1E2"/><path d="M864 274c-.54 3.8-2.2 5.47-5 8-.19-2.88-.19-2.88 0-6 3-2 3-2 5-2" fill="#DEDFDE"/><path d="m1054 224 10 1v2l-3.88.19-2.17.1-1.95-.29z" fill="#EFEFF2"/><path d="M906 140h2c-1.44 3.37-3.33 5.51-6 8 0-3.93 1.39-5.16 4-8" fill="#DFDDE0"/><path d="m1186 698 3 2-2 4-3-2z" fill="#F4F7F4"/><path d="M225 684h3l1 3c-1.94 2.69-1.94 2.69-4 5z" fill="#090A0C"/><path d="M211 683v3l-5 2-3-3c5.75-2 5.75-2 8-2" fill="#D8DBDD"/><path d="m347 669 2 1c-4.3 4-4.3 4-6 5-2.2-.35-2.2-.35-4-1q1.93-1.3 3.88-2.56l2.17-1.44z" fill="#B1B3B0"/><path d="m395 636 3 1c-1 3-1 3-3.06 4.19L393 642l-2-2 4-2z" fill="#1F2020"/><path d="M562 565c-3.51 2.41-5.73 3.37-10 3 5.62-4.31 5.62-4.31 10-3" fill="#DFDFDE"/><path d="m247 480 4 1 1 8c-3.04-1.52-3.64-3.98-5-7z" fill="#EFF2EF"/><path d="M239 409a15 15 0 0 1 2 4c-.88 2.25-.88 2.25-2 4h-2v-5h2z" fill="#111213"/><path d="m498 333 3 1v2l-7 3c1.15-2.47 2.05-4.05 4-6" fill="#E2E3E5"/><path d="m228 671 1 2-7 4c.19-1.88.19-1.88 1-4 2.56-1.25 2.56-1.25 5-2" fill="#070808"/><path d="M757 630h1v6h-8v-1h5v-2h2z" fill="#F5F7F4"/><path d="m317 601 1 3c-1.25 1.56-1.25 1.56-3 3-2.19-.31-2.19-.31-4-1z" fill="#DEDDDF"/><path d="m338 592 2 1-4 6-3-2z" fill="#25262A"/><path d="M303.75 486.88 307 488v1l-11-1c4-2 4-2 7.75-1.12" fill="#918962"/><path d="m327.19 482.81 2.8.2q.5 1.46 1 3h-10c3-3 3-3 6.2-3.2" fill="#28251D"/><path d="M464 354v2l-7 3v-3c2.65-1.46 3.89-2 7-2" fill="#DADADE"/><path d="M387 308c2.25.25 2.25.25 4 1l-6 4-2-1c1.75-2.06 1.75-2.06 4-4" fill="#27272A"/><path d="M394 302v2a120 120 0 0 1-6 4c0-3 0-3 1.31-4.69C391 302 391 302 394 302" fill="#D4D4D7"/><path d="m674 246 5 1c-2.57 2.57-4.48 2.54-8 3z" fill="#EEEEF3"/><path d="M1082 197h2c1.12 5.75 1.12 5.75 0 8h-2z" fill="#EFEFF2"/><path d="M1079 182h2a18 18 0 0 1 2 5c-1.38 2.31-1.38 2.31-3 4z" fill="#E0E4DE"/></svg>