<svg style="background:transparent" version="1.1" xmlns="http://www.w3.org/2000/svg" viewBox="0 0 1248 704"><path d="m1018 101 2.62.71A52 52 0 0 1 1035 108l2.44 1.44L1040 111l2.09 1.23 2.22 1.33 2.12 1.26L1048 116v2l2.19.69c3.42 1.59 5.19 3.58 7.81 6.31l1.57 1.6c8.09 8.3 15.15 16.63 21.43 26.4l2 2.9a52 52 0 0 1 8 18.1l.88 3.05c1.58 5.69 2.64 10.1 1.12 15.95l-.5 2.36c-1.72 7.1-4.97 12.81-11.3 16.76-6.02 2.78-11.15 3.4-17.39 1.19-10.39-4.27-17.37-12.91-21.9-23.07L1041 188c-6.12-14.46-14.52-28.53-29.5-35.1-11.31-4.08-22.91-6.17-34.5-1.9l-3 .44c-7.76 1.45-13.86 6.91-20 11.56l-1.95 1.36c-8.91 6.71-14.48 18.34-18.05 28.64-4.67 12.45-10.1 24.76-17.55 35.8-1.45 2.2-1.45 2.2-2.49 4.34-1.44 2.79-3.75 4.65-5.96 6.86l-3 5a89 89 0 0 1-4 4l-1.56 1.56L895 255l-2.22 2.31a89 89 0 0 1-8.84 7.38l-3.1 2.32A41 41 0 0 1 874 271l-2.14 1.07L866 275c.42 5.4 1.48 7.95 5 12q1.06 2.48 2 5l1.81 3.5c12.48 24.68 15.22 51.51 15.31 78.75l.02 3-.01 2.83v2.51A50 50 0 0 1 889 390q-.2 2.58-.28 5.16l-.11 2.9-.22 6.01-.11 2.9-.09 2.64A35 35 0 0 1 887 416a69 69 0 0 0 0 4.06c0 3.94 0 3.94-1 6.94a71 71 0 0 0 0 4.12c.03 3.05-.07 5.98-.44 9a208 208 0 0 0-1.5 29.49C884 472 884 472 883 475a63 63 0 0 0-.13 4.13l-.01 2.45.02 2.54-.02 2.48c.01 4.86.3 9.58.89 14.4.31 2.49.5 4.99.69 7.5a93 93 0 0 0 3.5 17.75 298 298 0 0 1 11.02 84.13c.03 2.58.12 5.06.33 7.61 1.04 13.14.01 25.91-1.29 39.01l3.48.7c27.94 5.78 27.94 5.78 35.52 15.3.89 1.96.89 1.96 1 4-4.89 8.49-12.61 11.46-21.56 14-13.14 3.3-26.99 4.58-40.44 6l-2.31.26c-11 1.11-22.06 1.01-33.11 1.02l-3.52.01c-20.18 0-40.28-.74-60.42-1.82l-2.18-.12-19.99-1.09c-83.28-4.63-166.55-7.41-314.34 5.15l-3.89.4a541 541 0 0 0-16.98 1.96c-10.11 1.31-20.08 1.5-30.26 1.46h-5.51q-7.38 0-14.77-.03l-15.51-.01-29.28-.05-33.36-.04q-34.28-.03-68.57-.1-1-1.88-1.98-3.77l-1.11-2.13c-1.33-3.08-1.3-5.78-1.16-9.1l.11-3.44.14-2.56-3.19 1.88c-2.87 1.63-5.69 3-8.81 4.12l-2.56 1.06c-11.65 3.18-23.92 2.14-34.6-3.77-6.87-4.82-11.7-10.49-13.65-18.73-.21-4.02.5-6.77 1.81-10.56l.8-2.89c1.35-3.5 2.97-5.51 5.51-8.23l2.3-2.51c6.55-6.5 14-10.21 23.4-10.44l2.8.13c5.6.25 8.95-1.51 13.19-5.06l1.6-1.61c1.4-1.39 1.4-1.39 3.28-2.27 2.92-1.54 4.81-3.76 7.12-6.12l3-2.44a48 48 0 0 0 6.59-6.96c2.23-2.53 4.8-4.62 7.35-6.8a147 147 0 0 0 7.61-7.12C243 593 243 593 244 590.96c1.13-2.21 2.23-3.15 4.19-4.65 3.65-2.99 6.3-6.37 9.11-10.14a51 51 0 0 1 4.95-5.42c2.52-2.52 3.96-4.72 5.75-7.75a107 107 0 0 1 6.56-6.38c1.87-2.1 3.12-4.48 4.48-6.93A41 41 0 0 1 283 544l1.45-1.8 1.61-1.95 1.54-1.86C289 537 289 537 291 537v-2l-3 1a104 104 0 0 1-6-4q-1.99-1.02-4-2c-14-6.86-24.32-19.69-30-34-.98-3.18-1.84-6.38-2.68-9.61a107 107 0 0 0-3.94-12.58c-1.55-3.93-1.96-7.61-2.38-11.81l-1-4q-.77-3.87-1.5-7.76C236 448 236 448 235 446q-.26-2.25-.44-4.5-1.12-12.13-4.94-23.69c-1.71-5.61-2.67-11.31-3.62-17.1-.91-5.52-.91-5.52-2-7.71a122 122 0 0 1-.44-5.06c-.39-5.24-.97-10.42-1.62-15.63-.71-5.82-1.22-11.45-.94-17.31l.12-3.56c1.44-5.65 4.76-9.67 9.19-13.38 6.51-2.57 11.1-2.6 17.63.13q3.03 1.39 6.06 2.81 2.66 1.08 5.31 2.12 7.31 2.92 14.51 6.14c13.63 5.96 13.63 5.96 20.09 3.74q3.16-1.31 6.27-2.73c5.5-2.48 11.19-3.57 17.07-4.7a191 191 0 0 0 8.87-2.13A95 95 0 0 1 340 341l5-1 2.5-.32c4.54-.66 6.89-1.09 10.25-4.37q1.14-1.65 2.25-3.31 1.49-1.77 3-3.5c3.74-4.36 7.43-8.69 10.75-13.38 3.51-4.72 7.73-8.39 12.25-12.12l1.82-1.65c3.23-2.71 5.47-3.71 9.74-3.47 6.69 1.24 9.96 5.23 13.69 10.56A38 38 0 0 1 416 319q.95 2.38 1.94 4.75c1.72 4.25 3.11 8.51 4.35 12.93.71 2.32.71 2.32 1.7 4.76 3.07 7.8 4.47 16.35 6.01 24.56l6.12-2.31 3.45-1.3A110 110 0 0 0 449 358q4.52-2.27 9.06-4.5c2.94-1.5 2.94-1.5 5.28-2.93 2.65-1.56 5.33-2.92 8.1-4.26 4.66-2.3 9.19-4.76 13.68-7.37 4.79-2.78 9.63-5.37 14.6-7.81 5.63-2.8 11.05-6 16.49-9.13a255 255 0 0 1 16.79-9c4.2-2.01 8.22-4.09 12.12-6.62 3.21-2.06 6.26-3.17 9.88-4.38 2.09-1.22 4.1-2.53 6.13-3.84 2.2-1.37 4.46-2.22 6.87-3.16a269 269 0 0 0 14-8 77 77 0 0 1 12-6q3.01-1.47 6-3l2.78-1.36c3.36-1.71 6.59-3.59 9.84-5.52 6.25-3.63 12.64-6.5 19.38-9.12a134 134 0 0 0 9.69-4.38c10.08-4.94 20.72-8.95 31.26-12.84q3.45-1.34 6.86-2.78c4.5-1.82 9.04-3.13 13.73-4.35 2.46-.65 2.46-.65 5.52-1.71 3.46-1.11 6.93-1.76 10.49-2.44 2.45-.5 2.45-.5 6.07-1.56 3.83-1.06 7.44-1.49 11.38-1.94l1.73-.46c11.47-2.72 23.68-2.73 35.39-2.73h3.51c8.24.06 8.24.06 9.37 1.19l3.06-.06c3.69.06 6.52.59 10.03 1.55 3.69.98 7.44 1.46 11.22 1.89 2.89.48 5.11 1.07 7.81 2.06 15.13 5.2 15.13 5.2 21.82 2.37L834 234l2.88-1.25c3.64-2.04 6.74-4.49 9.97-7.13A30 30 0 0 1 856 221l.88-1.75c1.52-3.04 3.61-4.99 6.12-7.25h2l.76-2.17c1.35-3.08 3.01-5.41 5.05-8.08A86 86 0 0 0 883 179l2-3 2-6c4.83-10.93 10.84-20.77 17.86-30.43q1.43-2 2.84-4.02L909 134h2l.69-1.69c1.68-2.97 3.84-4.96 6.31-7.31l2.25-2.44c3.63-3.38 7.56-5.92 11.75-8.56l3.19-2.02q4.88-3.04 9.81-5.98l2.01-1.26c20.68-11.8 49.1-10.28 70.99-3.74" fill="#111311"/><path d="m1018 101 2.62.71A52 52 0 0 1 1035 108l2.44 1.44L1040 111l2.09 1.23 2.22 1.33 2.12 1.26L1048 116v2l2.19.69c3.42 1.59 5.19 3.58 7.81 6.31l1.57 1.6c8.09 8.3 15.15 16.63 21.43 26.4l2 2.9a52 52 0 0 1 8 18.1l.88 3.05c1.58 5.69 2.64 10.1 1.12 15.95l-.5 2.36c-1.72 7.1-4.97 12.81-11.3 16.76-6.02 2.78-11.15 3.4-17.39 1.19-10.39-4.27-17.37-12.91-21.9-23.07L1041 188c-6.12-14.46-14.52-28.53-29.5-35.1-11.31-4.08-22.91-6.17-34.5-1.9l-3 .44c-7.76 1.45-13.86 6.91-20 11.56l-1.95 1.36c-8.91 6.71-14.48 18.34-18.05 28.64-4.67 12.45-10.1 24.76-17.55 35.8-1.45 2.2-1.45 2.2-2.49 4.34-1.44 2.79-3.75 4.65-5.96 6.86l-3 5a89 89 0 0 1-4 4l-1.56 1.56L895 255l-2.22 2.31a89 89 0 0 1-8.84 7.38l-3.1 2.32A41 41 0 0 1 874 271l-2.14 1.07L866 275c.42 5.4 1.48 7.95 5 12q1.06 2.48 2 5l1.81 3.5c12.48 24.68 15.22 51.51 15.31 78.75l.02 3-.01 2.83v2.51A50 50 0 0 1 889 390q-.2 2.58-.28 5.16l-.11 2.9-.22 6.01-.11 2.9-.09 2.64A35 35 0 0 1 887 416a69 69 0 0 0 0 4.06c0 3.94 0 3.94-1 6.94a71 71 0 0 0 0 4.12c.03 3.05-.07 5.98-.44 9a208 208 0 0 0-1.5 29.49C884 472 884 472 883 475a63 63 0 0 0-.13 4.13l-.01 2.45.02 2.54-.02 2.48c.01 4.86.3 9.58.89 14.4.31 2.49.5 4.99.69 7.5a93 93 0 0 0 3.5 17.75 298 298 0 0 1 11.02 84.13c.03 2.58.12 5.06.33 7.61 1.04 13.14.01 25.91-1.29 39.01l3.48.7c27.94 5.78 27.94 5.78 35.52 15.3.89 1.96.89 1.96 1 4-4.89 8.49-12.61 11.46-21.56 14-13.14 3.3-26.99 4.58-40.44 6l-2.31.26c-11 1.11-22.06 1.01-33.11 1.02l-3.52.01c-20.18 0-40.28-.74-60.42-1.82l-2.18-.12-19.99-1.09c-83.28-4.63-166.55-7.41-314.34 5.15l-3.89.4-3.74.38-3.74.39q-3.78.42-7.54.96c-13.32 1.88-26.6 1.71-40.04 1.66l-7.66-.01-17.96-.05-20.49-.04q-21.04-.03-42.07-.1c2.94-3.12 6.32-4.97 10.06-7 10.85-5.99 21.35-12.52 31.87-19.06l5.13-3.19 2.64-1.64q10.2-6.29 20.49-12.42c21.86-13.08 43.71-26.28 64.93-40.38l1.77-1.16c4.03-2.68 7.94-5.49 11.82-8.38 12.76-9.3 23.39-15.16 39.07-17.43 13.96-2.15 27.88-7.78 41.03-12.72l2.06-.77c21.53-8.09 42.72-17.23 63.13-27.85l7.75-3.88 4.01-2q4.45-2.23 8.92-4.42a873 873 0 0 0 34.4-18.1q4.6-2.52 9.22-5.01l3.18-1.71 6.22-3.34a321 321 0 0 0 18.23-10.56C681 502 681 502 684 503a36 36 0 0 1 2.06 5.85l1.15 3.74.6 1.99c10.15 33.2 28.23 56.91 52.77 80.83 18.93 18.47 18.93 18.47 19.6 32.27q.02 5.17-.18 10.32l-2.56.48c-8.4 1.73-14.71 3.69-20.75 9.9-3.93 6.11-5.73 11.42-4.69 18.62 1.02 4.31 2.57 7.02 6.26 9.54 15.37 7.66 38.05 8 54.29 2.61 7.27-2.94 11.4-7.49 15.45-14.15a73 73 0 0 0 2.62-8l.62-2.02c3.52-12.14 4.11-24.47 4.08-37.02q0-3.59.04-7.17c.05-10.69-.41-21.53-4.48-31.56-1.01-2.56-.82-3.69.12-6.23 18.25 12.44 30.35 24.83 35 47l.46 2.17c.77 4.7.63 9.52.66 14.27l.02 2.19c-.02 5.25-.02 5.25-1.14 6.37q-3 .37-6 .69c-7.4 1.11-12.81 3.37-17.59 9.27-4.35 6.58-6.45 13.15-5.41 21.04 1.63 5.77 4.53 8.94 9.61 11.99 8.07 3.4 15.93 3.38 24.58 3.39l3.75.07c10.72.03 21.91-1.52 30.41-8.62 10.24-11.35 9.81-28.24 9.78-42.54l.01-3.3-.01-6.88.01-10.32c.01-34.76.01-34.76-2.26-51.67l-.37-2.77c-2.39-16.66-6.57-33.21-10.88-49.46-1.45-6.64-1.8-13.16-1.83-19.93l-.02-2.6q-.03-4.21-.03-8.42v-2.95c0-19.3 1.28-38.37 3.03-57.58 4.2-46.21 7.88-92.31-14.82-134.6a434 434 0 0 1-3.15-6.06l-.99-1.95c-1.37-3.02-1.73-4.57-.82-7.8 2.73-2.44 5.84-4.18 9-6 28.98-17.31 44.69-42.76 57.47-73.25 8.31-19.78 19.48-36.84 39.84-45.63 13.09-5.27 29.62-5.22 42.62.27 15.24 7.96 24.72 20.26 31.96 35.58 4.89 10.3 9.95 20.48 21.11 25.03 5.54.8 10.43.76 15.5-1.69 5.39-4.99 8.1-9.3 8.84-16.72.25-23.94-13.12-43.89-29.34-60.59-19.92-19.98-44.27-30.16-72.44-30.31-27.85 0-51.22 10.04-71.13 29.84-11.74 12.1-19.28 25.68-25.99 40.97-11.81 26.74-25.66 48.28-51.44 63.5l-2.6 1.55-2.52 1.39-2.2 1.21c-7.77 2.46-15.16.17-22.74-1.96-67.62-17.78-135.7 5.75-195.34 37.78a668 668 0 0 1-19.59 10 747 747 0 0 0-29.71 15.49A889 889 0 0 1 542.5 312q-13.56 6.98-26.94 14.32a1955 1955 0 0 1-25.5 13.71 1304 1304 0 0 0-22.08 11.96A311 311 0 0 1 437 367l-2.75 1.27c-2.54.82-3.78.65-6.25-.27l-.78-2.99c-4.61-17.36-9.49-35.21-17.41-51.39l-.9-1.86c-2.29-4.41-4.94-6.92-8.91-9.76-3.54-.72-5.7-.71-8.91 1.04-7.92 5.62-14.46 12.91-20.27 20.63A178 178 0 0 1 360 336l-2.45 3.14c-4.51 4.46-10.72 4.58-16.74 5.42q-3.8.6-7.58 1.23l-3.74.6c-11.68 2.04-23 5.57-34.1 9.69-7.96 2.16-13.37.58-20.7-2.58l-2.6-1.08q-4.05-1.7-8.09-3.42l-5.42-2.28-11.81-5A26 26 0 0 0 233 340c-4.64 2.52-6.45 6.1-8 11a64 64 0 0 0-.44 8.25l.02 2.45c.51 20.28 5.04 40.6 10.17 60.16 1.84 7.08 3.13 14.1 4.19 21.33a279 279 0 0 0 10.37 43.62l1.08 3.4c5.86 17.63 15.63 30.28 32.37 38.67q5.57 2.67 11.24 5.12c-9.61 21.29-31.46 40.84-47 58l-2.6 2.88c-8.95 9.89-18.15 19.56-28.4 28.12l-2.62 2.25A272 272 0 0 1 205 632l-2.11 1.65c-5.65 3.79-10.99 3.73-17.58 3.91-7.27.29-12.92 1.98-18.14 7.3A51 51 0 0 0 163 651l-1.88 3.19c-2.13 7.25-2.54 14.9.88 21.81 4.74 7.21 11.61 9.7 19.79 11.49 14.68 2.32 24.93-1.93 37.46-9.1C222 677 222 677 225 677l-1.5 2.69c-2.57 6.01-2.59 13.46-.82 19.7.82 1.92.82 1.92 2.32 4.61h-3c-4.41-7.02-4.45-12.83-4-21l-3.19 1.88c-2.87 1.63-5.69 3-8.81 4.12l-2.56 1.06c-11.65 3.18-23.92 2.14-34.6-3.77-6.87-4.82-11.7-10.49-13.65-18.73-.21-4.02.5-6.77 1.81-10.56l.8-2.89c1.35-3.5 2.97-5.51 5.51-8.23l2.3-2.51c6.55-6.5 14-10.21 23.4-10.44l2.8.13c5.6.25 8.95-1.51 13.19-5.06l1.6-1.61c1.4-1.39 1.4-1.39 3.28-2.27 2.92-1.54 4.81-3.76 7.12-6.12l3-2.44a48 48 0 0 0 6.59-6.96c2.23-2.53 4.8-4.62 7.35-6.8a147 147 0 0 0 7.61-7.12C243 593 243 593 244 590.96c1.13-2.21 2.23-3.15 4.19-4.65 3.65-2.99 6.3-6.37 9.11-10.14a51 51 0 0 1 4.95-5.42c2.52-2.52 3.96-4.72 5.75-7.75a107 107 0 0 1 6.56-6.38c1.87-2.1 3.12-4.48 4.48-6.93A41 41 0 0 1 283 544l1.45-1.8 1.61-1.95 1.54-1.86C289 537 289 537 291 537v-2l-3 1a104 104 0 0 1-6-4q-1.99-1.02-4-2c-14-6.86-24.32-19.69-30-34-.98-3.18-1.84-6.38-2.68-9.61a107 107 0 0 0-3.94-12.58c-1.55-3.93-1.96-7.61-2.38-11.81l-1-4q-.77-3.87-1.5-7.76C236 448 236 448 235 446q-.26-2.25-.44-4.5-1.12-12.13-4.94-23.69c-1.71-5.61-2.67-11.31-3.62-17.1-.91-5.52-.91-5.52-2-7.71a122 122 0 0 1-.44-5.06c-.39-5.24-.97-10.42-1.62-15.63-.71-5.82-1.22-11.45-.94-17.31l.12-3.56c1.44-5.65 4.76-9.67 9.19-13.38 6.51-2.57 11.1-2.6 17.63.13q3.03 1.39 6.06 2.81 2.66 1.08 5.31 2.12 7.31 2.92 14.51 6.14c13.63 5.96 13.63 5.96 20.09 3.74q3.16-1.31 6.27-2.73c5.5-2.48 11.19-3.57 17.07-4.7a191 191 0 0 0 8.87-2.13A95 95 0 0 1 340 341l5-1 2.5-.32c4.54-.66 6.89-1.09 10.25-4.37q1.14-1.65 2.25-3.31 1.49-1.77 3-3.5c3.74-4.36 7.43-8.69 10.75-13.38 3.51-4.72 7.73-8.39 12.25-12.12l1.82-1.65c3.23-2.71 5.47-3.71 9.74-3.47 6.69 1.24 9.96 5.23 13.69 10.56A38 38 0 0 1 416 319q.95 2.38 1.94 4.75c1.72 4.25 3.11 8.51 4.35 12.93.71 2.32.71 2.32 1.7 4.76 3.07 7.8 4.47 16.35 6.01 24.56l6.12-2.31 3.45-1.3A110 110 0 0 0 449 358q4.52-2.27 9.06-4.5c2.94-1.5 2.94-1.5 5.28-2.93 2.65-1.56 5.33-2.92 8.1-4.26 4.66-2.3 9.19-4.76 13.68-7.37 4.79-2.78 9.63-5.37 14.6-7.81 5.63-2.8 11.05-6 16.49-9.13a255 255 0 0 1 16.79-9c4.2-2.01 8.22-4.09 12.12-6.62 3.21-2.06 6.26-3.17 9.88-4.38 2.09-1.22 4.1-2.53 6.13-3.84 2.2-1.37 4.46-2.22 6.87-3.16a269 269 0 0 0 14-8 77 77 0 0 1 12-6q3.01-1.47 6-3l2.78-1.36c3.36-1.71 6.59-3.59 9.84-5.52 6.25-3.63 12.64-6.5 19.38-9.12a134 134 0 0 0 9.69-4.38c10.08-4.94 20.72-8.95 31.26-12.84q3.45-1.34 6.86-2.78c4.5-1.82 9.04-3.13 13.73-4.35 2.46-.65 2.46-.65 5.52-1.71 3.46-1.11 6.93-1.76 10.49-2.44 2.45-.5 2.45-.5 6.07-1.56 3.83-1.06 7.44-1.49 11.38-1.94l1.73-.46c11.47-2.72 23.68-2.73 35.39-2.73h3.51c8.24.06 8.24.06 9.37 1.19l3.06-.06c3.69.06 6.52.59 10.03 1.55 3.69.98 7.44 1.46 11.22 1.89 2.89.48 5.11 1.07 7.81 2.06 15.13 5.2 15.13 5.2 21.82 2.37L834 234l2.88-1.25c3.64-2.04 6.74-4.49 9.97-7.13A30 30 0 0 1 856 221l.88-1.75c1.52-3.04 3.61-4.99 6.12-7.25h2l.76-2.17c1.35-3.08 3.01-5.41 5.05-8.08A86 86 0 0 0 883 179l2-3 2-6c4.83-10.93 10.84-20.77 17.86-30.43q1.43-2 2.84-4.02L909 134h2l.69-1.69c1.68-2.97 3.84-4.96 6.31-7.31l2.25-2.44c3.63-3.38 7.56-5.92 11.75-8.56l3.19-2.02q4.88-3.04 9.81-5.98l2.01-1.26c20.68-11.8 49.1-10.28 70.99-3.74" fill="#B8BBB9"/><path d="M684 503a36 36 0 0 1 2.06 5.85l1.15 3.74.6 1.99c10.15 33.2 28.23 56.91 52.77 80.83 18.93 18.47 18.93 18.47 19.6 32.27q.02 5.17-.18 10.32a597 597 0 0 0-9.47 1.95C747 641 747 641 743.91 643.12c-5.3 3.21-11.47 2.07-17.41 1.69l-3.63-.17c-4.41-.23-8.76-.47-13.13-1.14-3.59-.48-7.05-.7-10.66-.81l-1.98-.06q-3.2-.1-6.41-.18l-2.26-.06c-16.83-.47-33.66-.59-50.49-.58h-2.3c-87.09.02-175.51 3.65-261.23 20.07-4.21.81-8.09 1.3-12.41 1.12a41 41 0 0 1 9.67-7.58l3.42-2.05 1.81-1.08q4.75-2.84 9.48-5.7l1.95-1.17a996 996 0 0 0 38.61-24.3l2.13-1.41a311 311 0 0 0 12.82-9.06c12.7-9.25 23.28-15.05 38.89-17.31 13.96-2.15 27.88-7.78 41.03-12.72l2.06-.77c21.53-8.09 42.72-17.23 63.13-27.85l7.75-3.88 4.01-2q4.45-2.23 8.92-4.42a873 873 0 0 0 34.4-18.1q4.6-2.52 9.22-5.01l3.18-1.71 6.22-3.34a321 321 0 0 0 18.23-10.56C681 502 681 502 684 503" fill="#ECEEEC"/><path d="m1018 101 2.62.71A52 52 0 0 1 1035 108l2.44 1.44L1040 111l2.09 1.23 2.22 1.33 2.12 1.26L1048 116v2l2.19.69c3.42 1.59 5.19 3.58 7.81 6.31l1.57 1.6c8.09 8.3 15.15 16.63 21.43 26.4l2 2.9a52 52 0 0 1 8 18.1l.88 3.05c1.58 5.69 2.64 10.1 1.12 15.95l-.5 2.36c-1.72 7.1-4.97 12.81-11.3 16.76-6.02 2.78-11.15 3.4-17.39 1.19-10.39-4.27-17.37-12.91-21.9-23.07L1041 188c-6.12-14.46-14.52-28.53-29.5-35.1-11.31-4.08-22.91-6.17-34.5-1.9l-3 .44c-7.76 1.45-13.86 6.91-20 11.56l-1.95 1.36c-8.91 6.71-14.48 18.34-18.05 28.64-4.67 12.45-10.1 24.76-17.55 35.8-1.45 2.2-1.45 2.2-2.49 4.34-1.44 2.79-3.75 4.65-5.96 6.86l-3 5a89 89 0 0 1-4 4l-1.56 1.56L895 255l-2.22 2.31a89 89 0 0 1-8.84 7.38l-3.1 2.32A41 41 0 0 1 874 271l-2.14 1.07L866 275c.42 5.4 1.48 7.95 5 12q1.06 2.48 2 5l1.81 3.5c12.48 24.68 15.22 51.51 15.31 78.75l.02 3-.01 2.83v2.51A50 50 0 0 1 889 390q-.2 2.58-.28 5.16l-.11 2.9-.22 6.01-.11 2.9-.09 2.64A35 35 0 0 1 887 416a69 69 0 0 0 0 4.06c0 3.94 0 3.94-1 6.94a71 71 0 0 0 0 4.12c.03 3.05-.07 5.98-.44 9a208 208 0 0 0-1.5 29.49C884 472 884 472 883 475a63 63 0 0 0-.13 4.13l-.01 2.45.02 2.54-.02 2.48c.01 4.86.3 9.58.89 14.4.31 2.49.5 4.99.69 7.5a93 93 0 0 0 3.5 17.75 298 298 0 0 1 11.02 84.13c.03 2.58.12 5.06.33 7.61 1.04 13.14.01 25.91-1.29 39.01l3.48.7c27.94 5.78 27.94 5.78 35.52 15.3.89 1.96.89 1.96 1 4-4.89 8.49-12.61 11.46-21.56 14-13.14 3.3-26.99 4.58-40.44 6l-2.31.26c-11 1.11-22.06 1.01-33.11 1.02l-3.52.01c-20.18 0-40.28-.74-60.42-1.82l-2.18-.12-19.99-1.09c-83.28-4.63-166.55-7.41-339.41 7.94-5.74.7-11.34 1.06-17.12.92l-2.37-.02-5.57-.1v-1c21.06-2.78 42.12-5.08 63.28-6.94l8.43-.76c16.43-1.48 32.87-2.87 49.33-4.08q4.24-.32 8.47-.66c32.92-2.56 65.81-2.86 98.81-2.87l10.15-.01c25.03-.03 49.91.36 74.88 2.09 8.88.56 17.79.79 26.68 1.06q3.73.22 7.45.64c6.41.66 12.82.97 19.25 1.28l1.99.1 17.27.81c80.91 3.67 80.91 3.67 117.01-1.66l5.38-.69c26.65-3.57 26.65-3.57 35.62-12.31.69-3.06.69-3.06 0-6-4.25-4.35-9.41-5.77-15.06-7.56l-2.66-.88a207 207 0 0 0-14.63-4.17l-3.22-.79-2.43-.6-.03-2.1-.31-19.89-.16-10.22c-.65-44.01-.65-44.01-2.62-58.67l-.37-2.77c-2.39-16.66-6.57-33.21-10.88-49.46-1.45-6.64-1.8-13.16-1.83-19.93l-.02-2.6q-.03-4.21-.03-8.42v-2.95c0-19.3 1.28-38.37 3.03-57.58 4.2-46.21 7.88-92.31-14.82-134.6a434 434 0 0 1-3.15-6.06l-.99-1.95c-1.37-3.02-1.73-4.57-.82-7.8 2.73-2.44 5.84-4.18 9-6 28.98-17.31 44.69-42.76 57.47-73.25 8.31-19.78 19.48-36.84 39.84-45.63 13.09-5.27 29.62-5.22 42.62.27 15.24 7.96 24.72 20.26 31.96 35.58 4.89 10.3 9.95 20.48 21.11 25.03 5.54.8 10.43.76 15.5-1.69 5.39-4.99 8.1-9.3 8.84-16.72.25-23.94-13.12-43.89-29.34-60.59-19.92-19.98-44.27-30.16-72.44-30.31-27.85 0-51.22 10.04-71.13 29.84-11.74 12.1-19.28 25.68-25.99 40.97-11.81 26.74-25.66 48.28-51.44 63.5l-2.6 1.55-2.52 1.39-2.2 1.21c-7.77 2.46-15.16.17-22.74-1.96-67.62-17.78-135.7 5.75-195.34 37.78a668 668 0 0 1-19.59 10 747 747 0 0 0-29.71 15.49A889 889 0 0 1 542.5 312q-13.56 6.98-26.94 14.32a1955 1955 0 0 1-25.5 13.71 1304 1304 0 0 0-22.08 11.96A311 311 0 0 1 437 367l-2.75 1.27c-2.54.82-3.78.65-6.25-.27l-.78-2.99c-4.61-17.36-9.49-35.21-17.41-51.39l-.9-1.86c-2.29-4.41-4.94-6.92-8.91-9.76-3.54-.72-5.7-.71-8.91 1.04-7.92 5.62-14.46 12.91-20.27 20.63A178 178 0 0 1 360 336l-2.45 3.14c-4.51 4.46-10.72 4.58-16.74 5.42q-3.8.6-7.58 1.23l-3.74.6c-11.68 2.04-23 5.57-34.1 9.69-7.96 2.16-13.37.58-20.7-2.58l-2.6-1.08q-4.05-1.7-8.09-3.42l-5.42-2.28-11.81-5A26 26 0 0 0 233 340c-4.64 2.52-6.45 6.1-8 11a64 64 0 0 0-.44 8.25l.02 2.45c.51 20.28 5.04 40.6 10.17 60.16 1.84 7.08 3.13 14.1 4.19 21.33a279 279 0 0 0 10.37 43.62l1.08 3.4c5.86 17.63 15.63 30.28 32.37 38.67q5.57 2.67 11.24 5.12c-9.61 21.29-31.46 40.84-47 58l-2.6 2.88c-8.95 9.89-18.15 19.56-28.4 28.12l-2.62 2.25A272 272 0 0 1 205 632l-2.11 1.65c-5.65 3.79-10.99 3.73-17.58 3.91-7.27.29-12.92 1.98-18.14 7.3A51 51 0 0 0 163 651l-1.88 3.19c-2.13 7.25-2.54 14.9.88 21.81 4.74 7.21 11.61 9.7 19.79 11.49 14.68 2.32 24.93-1.93 37.46-9.1C222 677 222 677 225 677l-1.5 2.69c-2.57 6.01-2.59 13.46-.82 19.7.82 1.92.82 1.92 2.32 4.61h-3c-4.41-7.02-4.45-12.83-4-21l-3.19 1.88c-2.87 1.63-5.69 3-8.81 4.12l-2.56 1.06c-11.65 3.18-23.92 2.14-34.6-3.77-6.87-4.82-11.7-10.49-13.65-18.73-.21-4.02.5-6.77 1.81-10.56l.8-2.89c1.35-3.5 2.97-5.51 5.51-8.23l2.3-2.51c6.55-6.5 14-10.21 23.4-10.44l2.8.13c5.6.25 8.95-1.51 13.19-5.06l1.6-1.61c1.4-1.39 1.4-1.39 3.28-2.27 2.92-1.54 4.81-3.76 7.12-6.12l3-2.44a48 48 0 0 0 6.59-6.96c2.23-2.53 4.8-4.62 7.35-6.8a147 147 0 0 0 7.61-7.12C243 593 243 593 244 590.96c1.13-2.21 2.23-3.15 4.19-4.65 3.65-2.99 6.3-6.37 9.11-10.14a51 51 0 0 1 4.95-5.42c2.52-2.52 3.96-4.72 5.75-7.75a107 107 0 0 1 6.56-6.38c1.87-2.1 3.12-4.48 4.48-6.93A41 41 0 0 1 283 544l1.45-1.8 1.61-1.95 1.54-1.86C289 537 289 537 291 537v-2l-3 1a104 104 0 0 1-6-4q-1.99-1.02-4-2c-14-6.86-24.32-19.69-30-34-.98-3.18-1.84-6.38-2.68-9.61a107 107 0 0 0-3.94-12.58c-1.55-3.93-1.96-7.61-2.38-11.81l-1-4q-.77-3.87-1.5-7.76C236 448 236 448 235 446q-.26-2.25-.44-4.5-1.12-12.13-4.94-23.69c-1.71-5.61-2.67-11.31-3.62-17.1-.91-5.52-.91-5.52-2-7.71a122 122 0 0 1-.44-5.06c-.39-5.24-.97-10.42-1.62-15.63-.71-5.82-1.22-11.45-.94-17.31l.12-3.56c1.44-5.65 4.76-9.67 9.19-13.38 6.51-2.57 11.1-2.6 17.63.13q3.03 1.39 6.06 2.81 2.66 1.08 5.31 2.12 7.31 2.92 14.51 6.14c13.63 5.96 13.63 5.96 20.09 3.74q3.16-1.31 6.27-2.73c5.5-2.48 11.19-3.57 17.07-4.7a191 191 0 0 0 8.87-2.13A95 95 0 0 1 340 341l5-1 2.5-.32c4.54-.66 6.89-1.09 10.25-4.37q1.14-1.65 2.25-3.31 1.49-1.77 3-3.5c3.74-4.36 7.43-8.69 10.75-13.38 3.51-4.72 7.73-8.39 12.25-12.12l1.82-1.65c3.23-2.71 5.47-3.71 9.74-3.47 6.69 1.24 9.96 5.23 13.69 10.56A38 38 0 0 1 416 319q.95 2.38 1.94 4.75c1.72 4.25 3.11 8.51 4.35 12.93.71 2.32.71 2.32 1.7 4.76 3.07 7.8 4.47 16.35 6.01 24.56l6.12-2.31 3.45-1.3A110 110 0 0 0 449 358q4.52-2.27 9.06-4.5c2.94-1.5 2.94-1.5 5.28-2.93 2.65-1.56 5.33-2.92 8.1-4.26 4.66-2.3 9.19-4.76 13.68-7.37 4.79-2.78 9.63-5.37 14.6-7.81 5.63-2.8 11.05-6 16.49-9.13a255 255 0 0 1 16.79-9c4.2-2.01 8.22-4.09 12.12-6.62 3.21-2.06 6.26-3.17 9.88-4.38 2.09-1.22 4.1-2.53 6.13-3.84 2.2-1.37 4.46-2.22 6.87-3.16a269 269 0 0 0 14-8 77 77 0 0 1 12-6q3.01-1.47 6-3l2.78-1.36c3.36-1.71 6.59-3.59 9.84-5.52 6.25-3.63 12.64-6.5 19.38-9.12a134 134 0 0 0 9.69-4.38c10.08-4.94 20.72-8.95 31.26-12.84q3.45-1.34 6.86-2.78c4.5-1.82 9.04-3.13 13.73-4.35 2.46-.65 2.46-.65 5.52-1.71 3.46-1.11 6.93-1.76 10.49-2.44 2.45-.5 2.45-.5 6.07-1.56 3.83-1.06 7.44-1.49 11.38-1.94l1.73-.46c11.47-2.72 23.68-2.73 35.39-2.73h3.51c8.24.06 8.24.06 9.37 1.19l3.06-.06c3.69.06 6.52.59 10.03 1.55 3.69.98 7.44 1.46 11.22 1.89 2.89.48 5.11 1.07 7.81 2.06 15.13 5.2 15.13 5.2 21.82 2.37L834 234l2.88-1.25c3.64-2.04 6.74-4.49 9.97-7.13A30 30 0 0 1 856 221l.88-1.75c1.52-3.04 3.61-4.99 6.12-7.25h2l.76-2.17c1.35-3.08 3.01-5.41 5.05-8.08A86 86 0 0 0 883 179l2-3 2-6c4.83-10.93 10.84-20.77 17.86-30.43q1.43-2 2.84-4.02L909 134h2l.69-1.69c1.68-2.97 3.84-4.96 6.31-7.31l2.25-2.44c3.63-3.38 7.56-5.92 11.75-8.56l3.19-2.02q4.88-3.04 9.81-5.98l2.01-1.26c20.68-11.8 49.1-10.28 70.99-3.74" fill="#E6E6E8"/><path d="M244.64 344.84c11.09 4.4 22.26 10.39 31.36 18.16l1.77 1.42c1.23 1.58 1.23 1.58 1.2 3.5-1.32 2.84-3.14 4.27-5.53 6.27a118 118 0 0 0-13.44 13.8l-1.68 2.04c-5.41 6.83-8.21 14.17-10.6 22.48a245 245 0 0 1-2.97 9.58c-.75 1.9-.75 1.9-2.75 4.9-3.17-4.64-4.81-9.31-6.25-14.74l-.53-2A32 32 0 0 1 234 402l-3 1-2-1c-.58-2.2-.58-2.2-1.03-5.06l-.52-3.16-.51-3.34c-.1-.54-.1-.54-.52-3.25a925 925 0 0 1-1.42-9.2l-.33-2.2c-.73-5.21-.85-10.35-.85-15.6l-.04-2.56-.01-2.46-.01-2.21C224 351 224 351 226 348v2c2.9-1.3 4.8-2.7 7-5 3.97-1.98 7.55-1.46 11.64-.16" fill="#272826"/><path d="M400 301c11.33 5.67 15.53 22.04 19.25 33.19l2.1 6.71a203 203 0 0 0 1.94 5.89c2.67 8.21 2.79 14.71 1.71 23.21-.08 2.35-.05 4.65 0 7h-2l-3-5c-14.45-14.74-35.24-19.69-55-22-.1-3.64.12-5.83 2-9h2l.31-1.69c.82-2.76 2.19-4.85 3.69-7.31l.9-2.33a56 56 0 0 1 4.22-7.98l1.64-2.68L381 317l-6 1c15.56-18.6 15.56-18.6 25-17" fill="#252623"/><path d="M810 573a74 74 0 0 1 14.06 9.81l1.78 1.5c12.61 10.88 19.3 24.63 21.04 41.27.18 3.62.22 7.24.24 10.86l.02 2.19c-.02 5.25-.02 5.25-1.14 6.37q-3.03.4-6.06.75c-4.43.62-7.48 1.24-11.06 3.94-4.2 3.07-7.78 2.43-12.76 1.7L814 651l-.06-4-.04-2.25c.1-2.75.1-2.75.59-6.4.54-4.24.69-8.42.71-12.7l.02-2.34.02-4.9q.02-3.66.07-7.33c.07-10.73-.25-21.68-4.41-31.74-.9-2.34-.9-2.34-.9-6.34" fill="#EBECEB"/><path d="M896 587c3.92 3.92 2.98 10.91 3.02 16.21l-.06 6.96c.03 2.66.12 5.21.33 7.85 1.04 13.13.01 25.89-1.29 38.98l3.48.7c27.94 5.78 27.94 5.78 35.52 15.3.89 1.96.89 1.96 1 4-4.89 8.49-12.61 11.46-21.56 14-13.14 3.3-26.99 4.58-40.44 6l-2.31.26c-11 1.11-22.06 1.01-33.11 1.02l-3.52.01c-20.18 0-40.28-.74-60.42-1.82l-2.18-.12-19.99-1.09c-83.28-4.63-166.55-7.41-339.41 7.94-5.74.7-11.34 1.06-17.12.92l-2.37-.02-5.57-.1v-1c21.06-2.78 42.12-5.08 63.28-6.94l8.43-.76c16.43-1.48 32.87-2.87 49.33-4.08q4.24-.32 8.47-.66c32.92-2.56 65.81-2.86 98.81-2.87l10.15-.01c25.03-.03 49.91.36 74.88 2.09 8.88.56 17.79.79 26.68 1.06q3.73.22 7.45.64c6.41.66 12.82.97 19.25 1.28l1.99.1q7.52.37 15.03.71l2.24.1c80.91 3.67 80.91 3.67 117.01-1.66l5.38-.69c26.65-3.57 26.65-3.57 35.62-12.31.69-3.06.69-3.06 0-6-4.25-4.35-9.41-5.77-15.06-7.56l-2.66-.88c-6.72-2.19-13.39-3.84-20.28-5.56z" fill="#E9EAE9"/><path d="m365 561 3 1c-1.62 4.08-4.54 6.81-7.62 9.81l-1.64 1.62a208 208 0 0 1-10.88 9.93c-2.75 2.43-5.29 5.06-7.86 7.68-1.92 1.88-3.9 3.65-5.94 5.4a142 142 0 0 0-8.56 8.06 164 164 0 0 1-10.15 9.43 312 312 0 0 0-7.34 6.74 291 291 0 0 1-17.38 15.16 177 177 0 0 0-7.94 7.05 226 226 0 0 1-13.07 11.06l-1.76 1.39q-2.4 1.87-4.86 3.67l-2.36 1.8c-3.83 1.74-7.31 1.52-11.45 1.39l-2.39-.04q-2.9-.06-5.8-.15c3.61-3.75 7.38-7.01 11.5-10.19l1.85-1.44q6.86-5.32 13.76-10.61A1377 1377 0 0 0 299.32 615q4.41-3.6 8.87-7.12a490 490 0 0 0 11.37-9.44q6.48-5.53 13.23-10.73c3.89-3.01 7.68-6.15 11.48-9.29l6.14-5.04 4.65-3.82 2.28-1.86 2.13-1.76 1.92-1.57C363 563 363 563 365 561" fill="#EAEBED"/><path d="M226 386h1l.49 2.52 2.26 11.54.41 2.11 1.25 6.25.77 3.83c1.1 5.02 2.48 9.93 3.89 14.87 1.29 5.37 2.1 10.8 2.93 16.26a277 277 0 0 0 10.31 43.43l1.08 3.4c5.86 17.63 15.63 30.28 32.37 38.67q5.57 2.67 11.24 5.12c-9.61 21.29-31.46 40.84-47 58l-2.6 2.88c-8.95 9.89-18.15 19.56-28.4 28.12l-2.62 2.25A272 272 0 0 1 205 632l-2.11 1.65c-5.65 3.79-10.99 3.73-17.58 3.91-7.27.29-12.92 1.98-18.14 7.3A51 51 0 0 0 163 651l-1.88 3.19c-2.13 7.25-2.54 14.9.88 21.81 4.74 7.21 11.61 9.7 19.79 11.49 14.68 2.32 24.93-1.93 37.46-9.1C222 677 222 677 225 677l-1.5 2.69c-2.57 6.01-2.59 13.46-.82 19.7.82 1.92.82 1.92 2.32 4.61h-3c-4.41-7.02-4.45-12.83-4-21l-3.19 1.88c-2.87 1.63-5.69 3-8.81 4.12l-2.56 1.06c-11.65 3.18-23.92 2.14-34.6-3.77-6.87-4.82-11.7-10.49-13.65-18.73-.21-4.02.5-6.77 1.81-10.56l.8-2.89c1.35-3.5 2.97-5.51 5.51-8.23l2.3-2.51c6.55-6.5 14-10.21 23.4-10.44l2.8.13c5.6.25 8.95-1.51 13.19-5.06l1.6-1.61c1.4-1.39 1.4-1.39 3.28-2.27 2.92-1.54 4.81-3.76 7.12-6.12l3-2.44a48 48 0 0 0 6.59-6.96c2.23-2.53 4.8-4.62 7.35-6.8q3.04-2.66 5.94-5.49l1.67-1.63C243 593 243 593 244 590.96c1.13-2.21 2.23-3.15 4.19-4.65 3.65-2.99 6.3-6.37 9.11-10.14a51 51 0 0 1 4.95-5.42c2.52-2.52 3.96-4.72 5.75-7.75a107 107 0 0 1 6.56-6.38c1.87-2.1 3.12-4.48 4.48-6.93A41 41 0 0 1 283 544l1.45-1.8 1.61-1.95 1.54-1.86C289 537 289 537 291 537v-2l-3 1a104 104 0 0 1-6-4q-1.99-1.02-4-2c-14-6.86-24.32-19.69-30-34-.98-3.18-1.84-6.38-2.68-9.61a107 107 0 0 0-3.94-12.58c-1.55-3.93-1.96-7.61-2.38-11.81l-1-4q-.77-3.87-1.5-7.76C236 448 236 448 235 446q-.26-2.25-.44-4.5-1.12-12.13-4.94-23.69c-1.71-5.61-2.67-11.31-3.62-17.1-.91-5.52-.91-5.52-2-7.71q.91-3.53 2-7" fill="#E6E8E8"/><path d="m330 474 1 9c-6.57 3.22-12.74 5.9-20 7l-2.58.44c-10.38 1.41-19.14-.94-27.68-6.94C279 482 279 482 277 479v-3l5.12-1.94 2.89-1.09c14.1-4.58 30.88-2.61 44.99 1.03" fill="#161715"/><path d="M412 450c-1.5 4.05-3.73 5.32-7.44 7.38l-3.24 1.8L398 461l-3.13 1.79C387.39 467 387.39 467 384 467v3l-2.2.77c-4.23 1.51-8.3 2.97-12.3 5.04C367 477 367 477 364 476c-.55-3.12-.47-5.24 1.21-7.97 9.64-11.74 31.45-22.94 46.79-18.03" fill="#131614"/><path d="m899 247 2 1c-1.42 3.54-2.68 4.34-6 6l-.9 1.88c-3.12 6.01-11.44 9.71-17.1 13.12l-2.62 1.62A133 133 0 0 1 866 275c.42 5.4 1.48 7.95 5 12q1.06 2.48 2 5l1.81 3.5c12.48 24.68 15.17 51.47 15.38 78.69l.04 2.97c0 5.02-.23 9.14-2.23 13.84h-1l-.03-2.83c-.43-34.59-2.32-67.27-19.01-98.36a434 434 0 0 1-3.15-6.06l-.99-1.95c-1.37-3.02-1.73-4.57-.82-7.8 2.73-2.44 5.84-4.18 9-6 9.83-5.87 19.04-12.71 27-21" fill="#E7E7E8"/><path d="M356 485c2.5 1.5 2.5 1.5 4 3-.44 4.64-.77 6.77-4 10q-.06 3 0 6c-2 2-2 2-4.44 2.44L349 506a170 170 0 0 1-3-5c-2.24-1.86-4.57-3.39-7-5 .26-3.88.53-5.55 3.38-8.31 4.36-2.81 8.52-3.31 13.62-2.69" fill="#646462"/><path d="M988 96c16.72.75 32.48 3.33 47 12l2.56 1.5 2.44 1.5 2.08 1.22 2.23 1.34 2.12 1.26L1048 116v2l2.44.75c2.56 1.25 2.56 1.25 3.37 3.37l.19 1.88c-3.62-1.63-6.62-3.85-9.81-6.19-16.41-11.61-34.26-16.53-54.19-17.37l-2.93-.13L980 100v-1l3.44-.38L987 98z" fill="#DDDFE0"/><path d="m290 473 .7 2.01c2 5.43 3.77 9.18 8.3 12.99l2 2c-7.61.66-14.48-1.82-20.56-6.44-2.53-2.66-3.23-3.95-3.44-7.56 4.64-1.89 7.95-3.21 13-3" fill="#D7BC67"/><path d="M374 460c3.3 1.1 3.79 1.69 5.69 4.44l1.32 1.87C382 468 382 468 382 470q-3.65 1.8-7.31 3.56l-2.09 1.04c-5.26 2.51-5.26 2.51-8.6 1.4-.58-3.3-.47-5.32 1.45-8.11 2.69-3.09 5.13-5.61 8.55-7.89" fill="#DCBF74"/><path d="M226 386h1l.49 2.52 2.26 11.54.41 2.1c1.47 7.43 2.98 14.81 5.09 22.09 2.33 8.11 3.02 16.37 3.75 24.75-1.96-.69-1.96-.69-4-2-.54-2.25-.54-2.25-.62-5a93 93 0 0 0-4.76-24.19c-1.71-5.61-2.67-11.31-3.62-17.1-.91-5.52-.91-5.52-2-7.71q.91-3.53 2-7" fill="#DADCDB"/><path d="m990.75 145.56 2.65-.03c6.01.08 11.02 1.25 16.6 3.47l-1 3-1.88-.66c-9.93-3.12-20.24-3.98-30.12-.34l-3 .44c-6.12 1.14-10.5 4.56-15.27 8.35C957 161 957 161 955 161c1.71-5.4 4.24-6.93 9.06-9.58 8.85-4.29 16.92-5.78 26.69-5.86" fill="#EBEDEB"/><path d="M243 595c-1.42 3.23-3.14 5.38-5.63 7.86l-2.2 2.19-2.29 2.26-2.23 2.23A267 267 0 0 1 216 623l-2.87 2.48c-10.7 8.95-16.87 12.43-31.13 11.52v-1h13v-2l1.83-.95c4.33-2.32 7.8-4.43 11.17-8.05l1.94-.94c2.91-1.5 4.78-3.73 7.06-6.06l3-2.44a48 48 0 0 0 6.59-6.95c2.26-2.57 4.87-4.72 7.48-6.93a72 72 0 0 0 4.81-4.62C241 595 241 595 243 595" fill="#DDDEDE"/><path d="M237 448c2.63 2.27 3.46 3.87 4.11 7.26l.53 2.61.55 2.82a218 218 0 0 0 8.31 28.72l1.02 2.92.94 2.59C253 497 253 497 252 499c-3-1-3-1-3.84-2.68l-.66-2.2-.75-2.45a691 691 0 0 1-2.99-11.04 73 73 0 0 0-2.38-6.82c-1.55-3.93-1.96-7.61-2.38-11.81q-.72-3.05-1.57-6.07c-1.54-5.71-1.54-5.71-.43-7.93" fill="#E7E7E9"/><path d="M243 337v2l-2.01.08c-4.15.26-7.25.51-10.93 2.54-5.04 5.81-5.5 11.44-5.31 18.82l.02 2.44c.04 3.82.24 7.56.74 11.34.43 3.32.59 6.44.55 9.78l-.02 2.88L226 389c-2.56-1.89-2.98-2.87-3.48-6.07l-.14-3.62c-.41-8-.41-8-.94-11.62A80 80 0 0 1 221 355l.12-3.56c1.45-5.68 4.77-9.76 9.32-13.38 4.33-1.79 8.07-2.56 12.56-1.06" fill="#EDEFED"/><path d="M499 575v3c-2.16 1.65-2.16 1.65-5.06 3.38a125 125 0 0 0-10 6.56C481 590 481 590 479 590v3l2 1c-6.21 2.14-11.43 3.37-18 3 4.46-3.92 9.42-6.53 14.62-9.31A257 257 0 0 0 499 575" fill="#050706"/><path d="M896 587c3.92 3.92 2.98 10.91 3.02 16.21l-.06 6.93c.04 3.51.24 6.95.5 10.45.69 9.4.07 18.12-1.46 27.41h-1c-.69-20.34-1.17-40.64-1-61" fill="#F1F2F2"/><path d="m245.56 340 2.44 1-2 5-1.56-.5c-4.3-.88-9.32-1.24-13.44.5l-1 3c-2.06.69-2.06.69-4 1 .2-4.08.78-5.75 3.5-8.88 4.94-3.69 10.44-2.7 16.06-1.12" fill="#18181A"/><path d="m934 116-2.53 1.87c-10.99 8.23-19.62 16.86-27.4 28.19C902 149 902 149 900 151c.48-5 1.94-7.88 4.94-11.88l2.15-2.92L909 134h2l.69-1.69c1.68-2.97 3.84-4.96 6.31-7.31l2.31-2.5c8.76-8.14 8.76-8.14 13.69-6.5" fill="#E1E3E2"/><path d="M876 695c-9.26.97-18.44 1.12-27.75 1.06l-4.17-.01L834 696v-1l8-1v-1c26.79-1.72 26.79-1.72 34 2" fill="#C0C3C1"/><path d="M243 338c4.8.61 9 2.02 13.44 3.88l1.91.77a345 345 0 0 1 17.03 7.35l2.02.94C279 352 279 352 280 355a195 195 0 0 1-20.69-8.06c-12.06-5.36-12.06-5.36-17.31-6.94z" fill="#DCDDDD"/><path d="m795 230 2.96.44 2.73.44 2.38.36c2.57 1.01 2.83 2.32 3.93 4.76l-1.97-.38a321 321 0 0 0-24.68-3.48l-3.1-.36-2.77-.31A20 20 0 0 1 768 229a86 86 0 0 1 27 1" fill="#E8E9EA"/><path d="m304.13 468.69 3.13-.01c5.9.04 11.13.45 16.75 2.32l1 2-1.82-.21c-6.27-.7-12.45-.97-18.75-.98l-2.68-.03c-5.18-.01-9.83.48-14.86 1.78-2.33.54-4.51.6-6.9.44 6-6 16.23-5.43 24.13-5.31" fill="#030302"/><path d="m837 232 3 2c-6.63 4.16-12.06 7.53-20 6a179 179 0 0 1-13-4l1-3 1.62.62c6.8 2.46 14.31 4.97 21.32 2.07C834 234 834 234 837 232" fill="#EEEEF1"/><path d="M896 614h1l1 43 14 3 1 2-4.56-.38-2.57-.21C903 661 903 661 896 659z" fill="#DCDEDD"/><path d="m223 676 2 1-1.5 2.69c-2.57 6.01-2.59 13.46-.82 19.7.82 1.92.82 1.92 2.32 4.61h-3c-3.96-6.31-4.32-10.83-3.85-18.24L218 683l-3-2q1.93-1.3 3.88-2.56l2.17-1.44z" fill="#DFDFE2"/><path d="m887 351 2 1c1.53 7.02 1.18 14.6 1.19 21.75l.03 3.04c.01 5.13-.15 9.4-2.22 14.21h-1z" fill="#F1F3F2"/><path d="m619 268 1 2 2 1-26 13v-3c3.77-2.87 7.76-4.92 12-7q5.51-2.98 11-6" fill="#E3E2E6"/><path d="M988 96c16.18.87 16.18.87 23 3 1.74 2.07 1.74 2.07 3 4l-2.11-.4c-10.58-1.84-21.17-2.23-31.89-2.6v-1l3.44-.38L987 98z" fill="#D8D9DA"/><path d="m403.63 447.88 2.06-.01c5.06 0 5.06 0 7.31 1.13q-.48.99-1 2l-1.56-.5c-6.1-1.25-11.44-.23-17.25 1.69-.36.1-.36.1-2.12.67a79 79 0 0 0-14.25 6.31q-.9.43-1.81.82-1-.48-2-1c9.55-6.92 18.74-11.19 30.62-11.12" fill="#030403"/><path d="M979 148v2l-2.53.63c-7.08 1.94-12.24 4.1-17.76 8.98C957 161 957 161 955 161c1.7-5.51 4.48-6.93 9.33-9.64 9.7-4.95 9.7-4.95 14.67-3.36" fill="#E8E9E8"/><path d="M752.86 226.9h2l6.33.04 4.3.01 10.5.05c.18.33.18.33 1 2-7.53 1.02-14.94 1.11-22.55 1.06h-3.63L742 230c2.07-4.14 6.8-3.12 10.86-3.1" fill="#F2F2F4"/><path d="M1090 183h1c1.82 15.81 1.82 15.81-3.4 22.9-2.62 3.25-4.74 5.39-8.6 7.1l-2-3 2.75-1.69c5.12-3.64 7.8-7.18 9.25-13.31q.64-5.99 1-12" fill="#E3E3E4"/><path d="m391 302 3 1c-.56 3.5-1.62 4.88-4.38 7.06A70 70 0 0 0 383 316l-3-4 3.81-3.88 2.15-2.17C388 304 388 304 391 302" fill="#151616"/><path d="m860 215 3 1a118 118 0 0 1-22 18l-2-2 4.75-3.88 2.67-2.17A31 31 0 0 1 856 221c1.06-1.94 1.06-1.94 2-4z" fill="#DEDEDF"/><path d="M886 384h1c1.01 5.88 1.18 11.61 1.19 17.56l.03 2.79c.02 4.96-.26 9-2.22 13.65h-1c-.11-11.39.05-22.65 1-34" fill="#E3E5E5"/><path d="M415 319c5.04 5.04 6.46 14.28 8.39 21 .61 2 .61 2 1.61 4l-3 1q-2.05-5.37-4.06-10.75l-1.18-3.08-1.11-2.97-1.03-2.73c-.66-2.62-.53-3.96.38-6.47" fill="#ECECED"/><path d="M372 464h2v2h2v6h-6v2h-5l1-4h2l1-4h3z" fill="#EEC761"/><path d="M884 409h1c1.92 9.98 2.59 18.22-1 28l-2 2c.56-10.01 1.18-20.01 2-30" fill="#DBDBDD"/><path d="M913 661c7.76.28 15.58 4.39 21.62 9 1.72 2.49 1.71 4.04 1.38 7l-.69-1.75c-3.49-5.99-9.39-7.57-15.62-9.5l-2.54-.81q-3.07-.98-6.15-1.94z" fill="#E4E5E5"/><path d="M246 480c2.73 2.73 3.51 5.91 4.69 9.5l.72 2.09c1.71 5.16 1.71 5.16.59 7.41-3-1-3-1-3.91-2.82-3.89-12.59-3.89-12.59-2.09-16.18" fill="#E0E1E0"/><path d="M1010 150c4.4.54 7.02 2.13 10.56 4.75l2.82 2.05a40 40 0 0 1 6.62 7.2h-4l-1.69-2.19c-2.72-3.31-5.43-4.75-9.19-6.7C1013 154 1013 154 1010 152z" fill="#DFDFDC"/><path d="m894 568 2 1c.67 3.02.67 3.02 1.19 6.81l.54 3.77A17 17 0 0 1 897 587q-.32 3.38-.56 6.75l-.26 3.55-.18 2.7h-1z" fill="#DCDDDF"/><path d="M235 427a20 20 0 0 1 2.63 8.33l.26 2.42.23 2.5A694 694 0 0 1 239 449c-1.96-.66-1.96-.66-4-2-.57-2.5-.57-2.5-.69-5.44-.15-3.17-.3-5.53-1.31-8.56.94-3.19.94-3.19 2-6" fill="#DDD"/><path d="m215.25 682.38 1.75.62c-5.34 5-11.89 6.86-19 8v-3l2.27-.8 2.98-1.08q1.45-.53 2.95-1.04c2.8-1.09 2.8-1.09 5.02-2.24 1.78-.85 1.78-.85 4.03-.47" fill="#E1E1E4"/><path d="M158 663h1l.3 1.94c1.24 7.22 2.8 12.49 8.45 17.5L170 684c-4 0-4 0-5.82-1.32-3.53-3.66-6.2-6.91-8.18-11.68l1-1q.55-3.5 1-7" fill="#D3D4D3"/><path d="M656 688c9.73-.11 19.3.07 29 1v1c-4.16 1.01-8.04 1.1-12.31 1.06l-3.8-.02L666 691v-2h-10z" fill="#E3E6E3"/><path d="M393 301c3.48-.43 6.02-.65 9.02 1.34A84 84 0 0 1 407 307l-1 3-5-5-1 1q-3 .06-6 0z" fill="#1E1E1F"/><path d="M992 98v1l-9.19 1-2.62.29c-4.08.44-8.08.85-12.19.71l1-3q3-.53 6-1l2.12-.36c5.52-.8 9.55-.29 14.88 1.36" fill="#F1F1F3"/><path d="M810 573c6.88 3.75 6.88 3.75 8 6-.94 2.62-.94 2.62-2 5h-2v-2h-2c-1.5-3.37-2-5.2-2-9" fill="#DEE1DE"/><path d="M326 475c2.5 2.31 2.5 2.31 5 5v3l-9 3 1.44-2.69A27 27 0 0 0 326 475" fill="#B5AB75"/><path d="M805 232a15 15 0 0 1 2 4l-2.12-.4A235 235 0 0 0 788 233v-1c5.82-2.28 11.13-2.47 17 0" fill="#D7D7DA"/><path d="M195 634v2l-2.6.18c-5.84.43-11.62.88-17.4 1.82v-2c7.05-2.65 12.57-3.31 20-2" fill="#EDF0EE"/><path d="M221 687a424 424 0 0 0 .88 6.25l.49 3.52A21 21 0 0 0 225 704h-3c-3.33-5.58-4.46-9.5-4-16 2-1 2-1 3-1" fill="#C4C3C6"/><path d="M836 692h26v1l-19 1v1h-8z" fill="#959895"/><path d="M882 494h1l.18 1.69.26 2.31.26 2.49q.28 2.34.66 4.68c.74 4.54.44 7.59-1.36 11.83-1.78-3.04-2.21-5.05-1.98-8.55l.16-2.56.2-2.64.17-2.69q.21-3.28.45-6.56" fill="#DCDBDE"/><path d="M391 301c-1.13 3.4-2.19 4.29-4.88 6.56l-2.11 1.82C382 311 382 311 379 313l-2-2 4.31-3.88 2.43-2.17c4.59-3.95 4.59-3.95 7.26-3.95" fill="#E3E3E6"/><path d="M226 386h1c1.49 6.69 2.28 12.24 1 19h-1l-.4-2.12-.54-2.76-.52-2.74C225 395 225 395 224 393q.91-3.53 2-7" fill="#E0E2E0"/><path d="m884 335 1 3h2c2.43 6.2 1.67 10.63 0 17h-1z" fill="#D5D7D7"/><path d="M911 231c1 3 1 3-.07 5.38l-1.62 2.62-1.57 2.62A19 19 0 0 1 902 247h-2c1.55-3.49 3.65-6.19 6.06-9.12 3.84-4.69 3.84-4.69 4.94-6.88" fill="#D9DADC"/><path d="m920 219 2 2-1.81 2.12A48 48 0 0 0 915 232l-2 3-2-1c5.38-13.19 5.38-13.19 9-15" fill="#E6E6E8"/><path d="m967 99 2 3-16 4v-3a29 29 0 0 1 9.25-3.12l2.7-.51z" fill="#DFE0E0"/><path d="M224 370h1c.96 6.37 1.11 12.56 1 19-1.48-1.09-1.48-1.09-3-3-.33-3.03-.33-3.03-.25-6.5l.05-3.47c.2-3.03.2-3.03 1.2-6.03" fill="#E7E8E8"/><path d="M420 344c2 1 2 1 3.12 3.17 1 3.2 1.08 5.8 1 9.14l-.05 3.24L424 362c-3.57-5.35-4.33-11.63-4-18" fill="#131513"/><path d="M524 691v1l-6.15.68C516 693 516 693 515 694q-2.13.01-4.25-.12l-2.59-.15-2.72-.17-2.73-.16-6.71-.4v-1c18.82-1.15 18.82-1.15 28-1" fill="#E0E2E0"/><path d="M892 552c2.73 4.09 3.53 8.13 4 13-.88 3.62-.88 3.62-2 6h-1l-1.06-8.94-.32-2.57-.28-2.45-.27-2.27L891 553z" fill="#E8E8EA"/><path d="M423 344c3.92 3.92 4.59 9.63 5 15l-2 3-1.44-5.69-.81-3.2c-1.36-5.64-1.36-5.64-1.75-8.11z" fill="#DFE1DF"/><path d="M1041 183c2.6 2.3 3.85 4.5 5.19 7.69l1.04 2.45.77 1.86-2 2c-5.74-8.08-5.74-8.08-5-14" fill="#E8E8EB"/><path d="M979 148v2q-2.37.84-4.75 1.62l-2.67.92c-2.99.53-4.08.08-6.58-1.54q2.37-1.05 4.75-2.06l2.67-1.16c2.73-.83 3.95-.76 6.58.22" fill="#E0E2E1"/><path d="M1054 123c4.3 2.27 7.11 5.06 10.31 8.69l1.38 1.55L1069 137l-1 2-7-6.88-2.02-1.97-1.92-1.89-1.77-1.75C1054 125 1054 125 1054 123" fill="#E7E8E7"/><path d="M292 483c3.37 1.12 4.6 2.45 7 5l2 2c-7.43.29-7.43.29-11-2v-2h2z" fill="#CAB572"/><path d="M228 388c2 1 2 1 4 3 .37 2.75.18 5.2 0 8h-3c-1.2-2.41-1.1-3.95-1.06-6.62l.02-2.48z" fill="#141615"/><path d="M1090 177c3.22 3.22 3.42 3.74 3.75 8l.23 2.62c.02 2.38.02 2.38-.98 5.38h-2z" fill="#F1F0F3"/><path d="m954 158 2 1c-2.32 4.51-5.06 6.94-9 10l-1-3z" fill="#E0E2E1"/><path d="m366.88 656.25 2.12.75c-2.55 2.97-5.43 4.48-9 6l-2-1v-2c5.01-4.09 5.01-4.09 8.88-3.75" fill="#181A18"/><path d="M380 458v6h2v3h2v3h-2a87 87 0 0 1-3.62-5.5l-1.92-3.09L375 459c3-1 3-1 5-1" fill="#2B2011"/><path d="m345.44 339.75 2.3-.02C350 340 350 340 354 342l-16 2v-2c3.1-2.07 3.89-2.27 7.44-2.25" fill="#E0E0E2"/><path d="M808 233q2.16.67 4.31 1.38l2.43.77C817 236 817 236 820 238c-4.98 1.71-8.43.01-13-2z" fill="#E6E6E9"/><path d="M850 226v2c-1.97 1.51-1.97 1.51-4.5 3.12l-2.53 1.64L841 234l-2-2q1.9-1.51 3.81-3l2.15-1.69C847 226 847 226 850 226" fill="#E6E4E8"/><path d="M877 192h3c-1.45 4.11-3.51 7.43-6 11l-2-1c1.33-3.59 2.77-6.88 5-10" fill="#E5E5E7"/><path d="m1046 115 2 1v2l2.44.75c2.56 1.25 2.56 1.25 3.37 3.37l.19 1.88c-4.04-1.78-7.46-4.4-11-7z" fill="#DBDCDB"/><path d="M202 632v2c-4.67 2.74-7.99 3.34-13.38 3.19l-3.77-.08L182 637v-1h13v-2c2.65-1.46 3.89-2 7-2" fill="#B9BCB9"/><path d="m664 253-1 3c-1.78.8-1.78.8-3.94 1.31l-2.15.55-1.91.14-2-2q1.9-1.04 3.81-2.06l2.15-1.16C661 252 661 252 664 253" fill="#1E1D20"/><path d="m742.81 228.88 2.96.62 2.23.5v1l-16 1v-2c4.03-1.99 6.44-2.07 10.81-1.12" fill="#E0E2E1"/><path d="m632 530-12 6c1-4 1-4 2.49-5.34l1.82-1.04 1.8-1.08C628 528 628 528 632 530" fill="#202221"/><path d="m365 469 1 3-1 2h5v-2h5c-3.13 2.64-6.09 3.84-10 5-1-1-1-1-1.12-4 .12-3 .12-3 1.12-4" fill="#DEC784"/><path d="M408 311c2.68 2.32 3.66 4.32 4.69 7.69l.76 2.45.55 1.86h-3l-1.5-4.31-.84-2.43C408 314 408 314 408 311" fill="#181819"/><path d="m173 637 3 1q-3.84 3.08-7.69 6.12C166 646 166 646 164 648c0-3 0-3 1.46-4.79l1.92-1.83 1.89-1.86C171 638 171 638 173 637" fill="#DEE1DD"/><path d="m364 567 3 1-2.38 2.31C362 573 362 573 360 576l-3-1 2.94-3.44 1.65-1.93q1.16-1.36 2.41-2.63" fill="#181818"/><path d="M883 422h1q.33 2.84.62 5.69l.36 3.2c.02 3.25-.57 5.21-1.98 8.11h-1z" fill="#CACACC"/><path d="m393 298 9 1 1 3h-12z" fill="#EFEFF1"/><path d="m899 247 2 1c-1.42 3.54-2.68 4.34-6 6-1.25 2.12-1.25 2.12-2 4l-2-2 3.44-3.94 1.93-2.21q1.28-1.47 2.63-2.85" fill="#EEEEF0"/><path d="m813 648 1 3h9v3l-3 2 1-3c-5.75.88-5.75.88-8 2z" fill="#C3C3C5"/><path d="m323 473 7 1-1 4-2-2-2 7h-1z" fill="#1B1509"/><path d="M495 336c-2.53 3.09-5.22 3.91-9 5v-3c5.62-3.12 5.62-3.12 9-2" fill="#EEF0ED"/><path d="M732 230v2l-10 1 1-3c3.38-.84 5.67-1.11 9 0" fill="#F0F0F3"/><path d="m335 594 1 2a180 180 0 0 1-2.75 3.44l-1.55 1.93c-1.9 1.82-3.14 2.23-5.7 2.63l2.81-3.31 1.58-1.87A91 91 0 0 1 335 594" fill="#1B1C1F"/><path d="m544 569 2 1v2l-9 3v-3a135 135 0 0 1 7-3" fill="#1F1E20"/><path d="M864 281c3.83 1.45 5.12 3.43 7 7h-2l-1 2c-4-6.75-4-6.75-4-9" fill="#DCDBDE"/><path d="m1078 211-1 3c-3.31.69-3.31.69-7 1-1.94-1.44-1.94-1.44-3-3 7.62-1 7.62-1 11-1" fill="#F0F0F1"/><path d="M221 684h1l.44 3.44C223 691 223 691 224 692q.06 2.5 0 5h-3z" fill="#19191C"/><path d="m268 640 1 3q-1.93 1.3-3.88 2.56l-2.17 1.44-1.95 1-2-1z" fill="#E2E2E1"/><path d="M250 587c-1.56 3.82-4.04 6.19-7 9 0-3.16.38-4.36 2-7 3-2 3-2 5-2" fill="#E9E9ED"/><path d="M380 471v3h-6v2h-5c6.36-5 6.36-5 11-5" fill="#2D1D0D"/><path d="M869 288c3.48 3.02 4.79 5.57 6 10-3-1-3-1-4.69-3.88C869 291 869 291 869 288" fill="#E9E8E9"/><path d="M1090 183h1q.33 3.43.62 6.88l.36 3.86.02 3.26-2 2c-1.16-3.55-.92-6.56-.56-10.25z" fill="#C1C0C3"/><path d="M905 140h2c-1.81 3.78-3.91 7.37-6 11-.64-1.77-.64-1.77-1-4 .93-1.92.93-1.92 2.31-3.75l1.37-1.86z" fill="#DEDCDE"/><path d="m319 609 2 2-7 7-1-3z" fill="#17171C"/><path d="M246 480c2.76 2.76 2.58 5.21 3 9l-3-1c-1.12-5.75-1.12-5.75 0-8" fill="#D3D3D5"/><path d="M232 339c0 2 0 2-2.38 4.5L227 346l-2 2c0-4 0-4 2.38-6.75C230 339 230 339 232 339" fill="#E5E5E6"/><path d="M884 327c2.83 3.2 3.52 5.78 4 10l-3 1c-1.28-3.85-1.07-6.95-1-11" fill="#F0F0F2"/><path d="M377 312h2a40 40 0 0 1-5 8l-3-1q1.93-2.56 4-5h2z" fill="#EDEEEC"/><path d="m895 246 4 2-6 5c0-4 0-4 2-7" fill="#202023"/><path d="m1011 99 3 4-13-2v-1c3.39-.77 6.53-1.46 10-1" fill="#CECED0"/><path d="M209 626c-.12 1.81-.12 1.81-1 4-3.06 1.75-3.06 1.75-6 3l-1-2c5.75-5 5.75-5 8-5" fill="#DCDFDD"/><path d="m365 330 2 2-7 6-2-1z" fill="#1F211F"/><path d="m1002 147 8 2-1 3-8-3z" fill="#E6E7E5"/><path d="m223 676 2 1-2 3h-3l-1 3-4-2q1.93-1.3 3.88-2.56l2.17-1.44z" fill="#CCCFCC"/><path d="M243 595c-1.49 3.8-3.76 5.61-7 8 .56-3.89 2.66-8 7-8" fill="#D1D4D3"/><path d="M235 410c2 2 2 2 2 6l-3 1-1-6z" fill="#191819"/><path d="m437 363 2 1v2l-7 2v-3c2.38-1.06 2.38-1.06 5-2" fill="#EFEEF1"/><path d="m465 349 2 1-1 3c-3.06 1.19-3.06 1.19-6 2 1.37-3.16 1.99-3.99 5-6" fill="#ECEBF0"/><path d="M338 342v2c-2.71 1.35-5.01 1.07-8 1l1-3c4.75-1.12 4.75-1.12 7 0" fill="#ECECEF"/><path d="m403 300 5 4-1 3-6-4 2-1z" fill="#DDDDE0"/><path d="m619 268 1 2 2 1-7 3c.31-1.88.31-1.88 1-4z" fill="#DDDDE0"/><path d="m341 581 2 1-5 6-4-1z" fill="#E3E4E3"/><path d="M327 476c2 1.81 2 1.81 4 4v3h-4z" fill="#C4B374"/><path d="M235 427c1.62 2.57 2.04 3.68 1.62 6.75L236 436h-2c-1.26-3.77-.37-5.37 1-9" fill="#C7CAC7"/><path d="m228 377 2 1c.19 2.81.19 2.81 0 6l-3 3z" fill="#101010"/><path d="m458 353 3 3-7 3c.31-1.88.31-1.88 1-4z" fill="#DADADD"/><path d="M904 144h3c0 3 0 3-1 5-2.56.62-2.56.62-5 1z" fill="#1D1C1C"/><path d="m1186 698 3 2-2 4-3-2z" fill="#F4F7F4"/><path d="m349 575 3 3-2 3-4-2z" fill="#F3F5F8"/><path d="M581 555c-2.39 1.89-4.07 3.02-7 4l-1-3c3.07-1.86 4.6-2.22 8-1" fill="#232624"/><path d="M240 459h2l1 8-4-2z" fill="#DBDCDE"/><path d="m526 317 3 1c-2.35 2.72-4.62 3.81-8 5 1.13-3.4 1.97-4.22 5-6" fill="#DCDCDF"/><path d="M391 301c-1.33 4-3.5 4.84-7 7 .39-2.8.8-3.82 2.94-5.75C389 301 389 301 391 301" fill="#DDDEDF"/><path d="M1038 177h2l2 6-2 2c-1.26-2.91-2-4.8-2-8" fill="#D8D9DA"/><path d="m915 131 3 1-6 5c0-3 0-3 1.5-4.69z" fill="#19191C"/><path d="M1038 112c5.75.88 5.75.88 8 2v2c-2.88-.31-2.88-.31-6-1z" fill="#E4E7E6"/><path d="M220 697h2l3 7h-3c-2-3-2-3-2-7" fill="#D1D1D3"/><path d="M206 688c-2.92 1.95-4.63 2.45-8 3v-3c3.29-1.1 4.71-.8 8 0" fill="#DADDDD"/><path d="M261 656h5c-2.69 2.25-4.65 3.88-8 5l1-3h2z" fill="#DAD9DF"/><path d="m379 648-1 5-3 1-1-3c2.75-3 2.75-3 5-3" fill="#1C1B1F"/><path d="M287 474c0 3 0 3-1.38 4.69C284 480 284 480 282 480v-4z" fill="#E5C255"/><path d="m378 317 2 1-7 5v-3c2.38-1.75 2.38-1.75 5-3" fill="#171817"/><path d="m623 266 3 1-2 3h-4l1-3z" fill="#ECECEF"/><path d="M718 231h4v2l2 1-8 1z" fill="#E2E2E5"/></svg>