<svg style="background:transparent" version="1.1" xmlns="http://www.w3.org/2000/svg" viewBox="0 0 1248 704"><path d="M435 38a64 64 0 0 1 6.07 4c1.93 1 1.93 1 4.17.65L447 42c2 3 2 3 2.88 4.92 1.36 2.52 3 4.33 5 6.39l2.05 2.18C459 57 459 57 461.26 56.73L463 56l2 3-1 3c1.82 2.83 3.04 4.65 6.25 5.81L472 68v3c1.74 4.18 3.3 6.45 7 9v2l1.88.75C483 84 483 84 483.91 85.84c1.25 2.47 2.73 4 4.71 5.91l1.92 1.86L492 95l3-1 1.44 1.88c4.45 3.69 9.94 3.97 15.56 4.56 2.82.32 5.27.92 7.94 1.87a124 124 0 0 0 13.81 3.81l2.22.52c6 1.38 11.93 2.52 18.03 3.36l2-4 1.75.63c2.88.47 3.78-.17 6.19-1.75l2.11-1.4C568 102 568 102 570.69 99.12L573 97c2.81.19 2.81.19 5 1l2-4h5l-2-4 3-2 3 2 2.75-1.38L599 85l2.62-1.62a22 22 0 0 1 16.19-.38c4.5 4.11 6.95 7.45 7.54 13.68.14 7.03-.55 13.5-2.41 20.26a26 26 0 0 0-.94 7.25c0 2.81 0 2.81-.94 5.12-1.24 3.15-1.47 5.96-1.78 9.3a83 83 0 0 1-1.74 9.08q-.83 3.61-1.54 7.25l-.5 2.52q-.51 2.55-.96 5.11a70 70 0 0 1-3.88 13.61c-1.56 4.29-2.3 8.8-.91 13.2.25 2.62.25 2.62-1.63 5.06L606 197c-.62 2.94-.62 2.94-1 6q-.96 3.01-2 6-.52 2-1 4l-.54 2.11A48 48 0 0 0 600 229l1.55.66c5.63 2.46 11.1 5.15 16.56 7.97 3.96 1.88 7.48 3.37 11.89 3.37l3-2c2 3 2 3 2 5 3.58 2.66 7.41 3.86 11.61 5.18 2.41.83 4.65 1.84 6.95 2.94 4.22 1.95 7.84 2.42 12.44 2.88l2.62 1.19c3.31 1.13 5.24.13 8.38-1.19l2 3-3 3c2.91 1.26 4.8 2 8 2 1.69 1.5 1.69 1.5 3 3l3-2 3 3 3-3c2 3 2 3 2 6l2.31-.12C703 270 703 270 706 272h3v3a40 40 0 0 0 5.56 3.44l3.33 1.86L721 282l3.81 2.19L728 286l5.27 3.02q2.47 1.39 4.98 2.73c4.34 2.45 8.24 5.52 12.2 8.54 3.39 2.27 5.51 2.71 9.55 2.71v3q2.47 2.53 5 5v2l2.22.74c3.12 1.41 4.86 3 7.25 5.44l2.48 2.51 2.55 2.62 2.55 2.59 4.84 4.95a240 240 0 0 0 5.08 5.01A19 19 0 0 1 796 343q1.13 1.89 2.31 3.75l1.33 2.1 2.69 4.24c4.24 6.68 7.54 13.65 10.67 20.91l1.04 2.38a88 88 0 0 1 4.52 13.74c1.99 8.24 3.8 13.43 9.6 19.69 7.49 8.93 11.05 20.84 14.91 31.65q.93 2.53 1.96 5.04a65 65 0 0 1 2.35 7.75c.96 3.68 2.1 7.01 3.74 10.44a27 27 0 0 1 2.54 9.88c1.15 8.3 3.95 16.63 6.69 24.51 1 2.94 1.8 5.93 2.65 8.92q.98 3 2 6a693 693 0 0 1 3 9.11l1 3.08 1 3.1c1 2.71 1 2.71 3 5.71l.81 2.62a49 49 0 0 0 8.44 15.13C884 555 884 555 884.5 557.69l.5 2.31a13 13 0 0 0 4 2v2l1.88.88C893 566 893 566 895 568a88 88 0 0 0 20 10l3.44 1.25A46 46 0 0 0 933 580l3-2 1.56 1c4.5 1.84 8.86 1.21 13.44 0l4.38-.88c3.92-.86 7.07-2.2 10.62-4.12l4.5-1.94A56 56 0 0 0 981 566l2-1.45a68 68 0 0 0 8.31-6.86C993 556 993 556 996 555l1.36-1.87c3.13-4.05 8.16-5.83 12.64-8.13l3.19-1.88c3.89-1.55 6.61-1.46 10.81-1.12 2.31 1 2.31 1 4 2h3c3.31 3.47 5.51 6.4 7 11l1 3c.63 7.68-1.16 14.98-6 21l-2.06 3.12C1029 585 1029 585 1027 587l-4.56 5.54L1021 594h-2l-.79 1.78c-2.9 5.33-7.89 9.42-13.21 12.22a49 49 0 0 0-7.38 5c-3.02 2.3-6.11 3.64-9.62 5l-5.06 2-2.59 1.02c-2.35.98-2.35.98-5.54 2.67-3.3 1.54-6.2 1.87-9.81 2.31l-3.14.95a79 79 0 0 1-13.11 2.24l-2.62.26c-13.75 1.21-27.87.44-41.13-3.45l-4.62-.94c-3.65-.78-6.23-2.02-9.38-4.06l-2.88-.94c-3.7-1.26-6.79-3.04-10.12-5.06l-2.56-1.5c-13.27-8.17-13.27-8.17-15.44-12.5l-2.5-1.38c-2.5-1.62-2.5-1.62-2.94-3.5-.91-3.45-3.86-4.92-6.56-7.12q-1.02-2-2-4c-2.12-1.25-2.12-1.25-4-2l1-3c-1.36-2.09-1.36-2.09-3.31-4.38A29 29 0 0 1 834 566c-4.66-11.63-4.66-11.63-7.19-15.88-2.37-4.09-3.54-8.15-4.81-12.68-1-3.44-1-3.44-2.06-6-1.08-2.8-1.5-5.48-1.94-8.44q-.48-2-1-4l-.63-2.46-2.31-8.73-.8-3.1-.79-2.94-.71-2.7C811 497 811 497 809 496l1 3-1.38 1.75c-2.16 3-2.17 5.61-2.62 9.25q-.97 2.5-2 5v3l-3 1-.15 1.83-.23 2.42-.21 2.39c-.43 2.47-1.23 4.17-2.41 6.36l-1 3.12c-1 2.88-1 2.88-3 4.88-.34 2.07-.34 2.07-.5 4.56a63 63 0 0 1-1.56 10.13c-.93 3.83-1.02 7.36-.94 11.31l-1 2q-.03 5.26.13 10.53c.07 4.61-.46 8.1-2.13 12.47v2.44c0 2.56 0 2.56-.94 5.81a37 37 0 0 0-1.44 8.06c-.41 4.47-1.88 8.05-3.64 12.15-1.28 3.31-1.86 6.6-2.48 10.08a53 53 0 0 1-4.59 13.59C774 645 774 645 774 647l2.96.35c4.33.62 8.43 1.78 12.6 3.03l2.21.63c7.65 2.26 14.66 5.14 19.23 11.99-.32 3.35-1.62 5.14-4 7.44-11.52 9.5-29.79 9.95-44 11.56l-4.5.55c-7.55.9-15.1 1.51-22.7 1.91l-2.18.12q-5.48.3-10.94.55l-4.06.21-3.64.17c-3.13.52-4.12.99-5.98 3.49l-2-2c-3.04-.18-5.98-.23-9.02-.18l-3.01.02c-16.64.16-33.28.62-49.92 1.03l-11.22.27-10.99.26-5.16.12q-15.75.37-31.46 1.25c-54.29 3.05-111.04 4.38-164.97-3.15l-2.16-.29c-13-1.86-26.61-4.03-38.53-9.77l-1.92-.83c-2.92-1.36-4.42-2.23-5.73-5.23.11-3.14.78-3.97 3.03-6.12l1.71-1.73c29.41-20.65 84.06-20.48 118.96-24.8 6.02-.75 6.02-.75 8.45-1.38C507 636 507 636 510 636l2.25-.5c3.29-.6 6.41-.56 9.75-.5h3l2.28.04c6.96.07 13.79-.38 20.72-1.04 7.7-.73 15.27-1.14 23-1l.15-2.3c.28-4.55.73-8.51 2.35-12.79 1.69-4.99 1.96-9.57 1.98-14.81l.04-2.77q.07-4.35.1-8.71l.17-11.46.04-2.76c.09-5.4.37-10.73.95-16.11.38-3.93.37-7.85.34-11.79l.02-2.38c-.01-3.29-.09-5.97-1.14-9.12l2-2c.34-4.05.3-5.55-2-9 .5-1.8.5-1.8 1.44-3.75 1.73-4.14 1.37-6.81.56-11.25q.42-3.51 1-7v-4l-2-2-3-3 3-2-1-3c.12-2.26.12-2.26.44-4.69l.31-2.45.25-1.86c-3.01-.93-3.87-1.04-7 0l-2.38-1.56L565 479c-2.62.94-2.62.94-5 2l-3-2h-3v-3c-3.51-1.97-7.14-2.92-11-4l-5-2c-2.55-.75-4.3-1-7-1l-.81-1.94C529 465 529 465 526 464l-.31 2.69c-.71 3.4-1.85 5.4-3.69 8.31l-.44 2.06c-.79 2.73-2.55 3.99-4.56 5.94-1.13 2-1.13 2-2 4l-1.19 1.81c-1.2 3.23-.45 5.87.19 9.19-3 2-3 2-6 2-4.84 11-4.84 11-5.31 16.94-.42 4.08-2.06 6.32-4.56 9.48-1.51 2.11-1.75 4.03-2.13 6.58l-1.5 3.38c-1.51 3.64-2 6.72-2.5 10.62l-1.19 3.12c-.99 3.52-.38 4.66 1.19 7.88l.5 2.56c.52 2.52 1.33 4.16 2.5 6.44a770 770 0 0 1 4.66 9.91c2.94 6.79 3.66 14.26 1.22 21.34-3.62 5.31-7.56 10.06-12.88 13.75h-2l-2 4-2.12-.04-2.76-.02-2.74-.04c-2.38.1-2.38.1-4.38 1.1-6.91.61-13.02-3.17-18.75-6.69-7.77-7.98-12.94-17.41-13.38-28.72q.07-3.52.18-7.03a47 47 0 0 0-1.49-10.44c-3.06-13.87-2.61-28.41-2.68-42.56l-.02-2.29c.02-5.15.02-5.15 1.14-6.27q.07-2.03 0-4.06c-.04-3.68.2-7.2.72-10.85.31-2.32.51-4.64.72-6.97.32-3.39.84-6.66 1.56-10a97 97 0 0 0 1.75-14.36c.24-2.65.71-5.15 1.25-7.76q.4-3.56.72-7.11C444 450 444 450 445 449q.31-3 .5-6c.39-5.89.39-5.89 1.5-7q.27-2.81.44-5.62A62 62 0 0 1 450 417c.59-4.66 1-9.3 1-14l2-3c-.11-6.05-2.18-8.51-6-13-.69-3.12-.69-3.12-1-6a88 88 0 0 0-2-4 103 103 0 0 1-3-10 95 95 0 0 0-3.62-11.06c-1.34-3.45-1.55-6.23-1.38-9.94q-.46-2-1-4a82 82 0 0 1-1-14l-.62-3.94c-.65-5.15.1-10.12.86-15.21.63-4.33.77-8.48.76-12.85 1-3.44 1-3.44 2-6-5.39-3.69-5.39-3.69-8.1-5.07-7.77-4.12-13.35-10.1-19.38-16.37a69 69 0 0 0-6.71-6.18 40 40 0 0 1-7.06-7.88l-2.02-2.78A39 39 0 0 1 390 244q-.95-1.89-1.94-3.75c-5.76-11.43-8.93-26.93-5.08-39.44L384 198c.31-2.24.31-2.24.44-4.31.38-4.17 1.46-7.77 2.86-11.7 1.21-3.46 1.68-6.87 2.14-10.49A34 34 0 0 1 392 163q2.06-6.35 3.72-12.81A69 69 0 0 1 402 134c2.21-5.01 3.02-9.98 3.81-15.38q1-6.6 2.17-13.16c3.41-19 3.41-19 3.84-27.25.18-2.18.64-4.1 1.18-6.21q.22-2.22.38-4.44c.88-9.12 2.03-19.64 8.62-26.56 4.34-2.53 8-3.82 13-3m24 21 2 2v-2z" fill="#111413"/><path d="M435 38a64 64 0 0 1 6.07 4c1.93 1 1.93 1 4.17.65L447 42c2 3 2 3 2.88 4.92 1.36 2.52 3 4.33 5 6.39l2.05 2.18C459 57 459 57 461.26 56.73L463 56l2 3-1 3c1.82 2.83 3.04 4.65 6.25 5.81L472 68v3c1.74 4.18 3.3 6.45 7 9v2l1.88.75C483 84 483 84 483.91 85.84c1.25 2.47 2.73 4 4.71 5.91l1.92 1.86L492 95l3-1 1.44 1.88c4.45 3.69 9.94 3.97 15.56 4.56 2.82.32 5.27.92 7.94 1.87a124 124 0 0 0 13.81 3.81l2.22.52c6 1.38 11.93 2.52 18.03 3.36l2-4 1.75.63c2.88.47 3.78-.17 6.19-1.75l2.11-1.4C568 102 568 102 570.69 99.12L573 97c2.81.19 2.81.19 5 1l2-4h5l-2-4 3-2 3 2 2.75-1.38L599 85l2.62-1.62a22 22 0 0 1 16.19-.38c4.5 4.11 6.95 7.45 7.54 13.68.14 7.03-.55 13.5-2.41 20.26a26 26 0 0 0-.94 7.25c0 2.81 0 2.81-.94 5.12-1.24 3.15-1.47 5.96-1.78 9.3a83 83 0 0 1-1.74 9.08q-.83 3.61-1.54 7.25l-.5 2.52q-.51 2.55-.96 5.11a70 70 0 0 1-3.88 13.61c-1.56 4.29-2.3 8.8-.91 13.2.25 2.62.25 2.62-1.63 5.06L606 197c-.62 2.94-.62 2.94-1 6q-.96 3.01-2 6-.52 2-1 4l-.54 2.11A48 48 0 0 0 600 229l1.55.66c5.63 2.46 11.1 5.15 16.56 7.97 3.96 1.88 7.48 3.37 11.89 3.37l3-2c2 3 2 3 2 5 3.58 2.66 7.41 3.86 11.61 5.18 2.41.83 4.65 1.84 6.95 2.94 4.22 1.95 7.84 2.42 12.44 2.88l2.62 1.19c3.31 1.13 5.24.13 8.38-1.19l2 3-3 3c2.91 1.26 4.8 2 8 2 1.69 1.5 1.69 1.5 3 3l3-2 3 3 3-3c2 3 2 3 2 6l2.31-.12C703 270 703 270 706 272h3v3a40 40 0 0 0 5.56 3.44l3.33 1.86L721 282l3.81 2.19L728 286l5.27 3.02q2.47 1.39 4.98 2.73c4.34 2.45 8.24 5.52 12.2 8.54 3.39 2.27 5.51 2.71 9.55 2.71v3q2.47 2.53 5 5v2l2.22.74c3.12 1.41 4.86 3 7.25 5.44l2.48 2.51 2.55 2.62 2.55 2.59 4.84 4.95a240 240 0 0 0 5.08 5.01A19 19 0 0 1 796 343q1.13 1.89 2.31 3.75l1.33 2.1 2.69 4.24c4.24 6.68 7.54 13.65 10.67 20.91l1.04 2.38a88 88 0 0 1 4.52 13.74c1.99 8.24 3.8 13.43 9.6 19.69 7.49 8.93 11.05 20.84 14.91 31.65q.93 2.53 1.96 5.04a65 65 0 0 1 2.35 7.75c.96 3.68 2.1 7.01 3.74 10.44a27 27 0 0 1 2.54 9.88c1.15 8.3 3.95 16.63 6.69 24.51 1 2.94 1.8 5.93 2.65 8.92q.98 3 2 6a693 693 0 0 1 3 9.11l1 3.08 1 3.1c1 2.71 1 2.71 3 5.71l.81 2.62a49 49 0 0 0 8.44 15.13C884 555 884 555 884.5 557.69l.5 2.31a13 13 0 0 0 4 2v2l1.88.88C893 566 893 566 895 568a88 88 0 0 0 20 10l3.44 1.25A46 46 0 0 0 933 580l3-2 1.56 1c4.5 1.84 8.86 1.21 13.44 0l4.38-.88c3.92-.86 7.07-2.2 10.62-4.12l4.5-1.94A56 56 0 0 0 981 566l2-1.45a68 68 0 0 0 8.31-6.86C993 556 993 556 996 555l1.36-1.87c3.13-4.05 8.16-5.83 12.64-8.13l3.19-1.88c3.89-1.55 6.61-1.46 10.81-1.12 2.31 1 2.31 1 4 2h3c3.31 3.47 5.51 6.4 7 11l1 3c.63 7.68-1.16 14.98-6 21l-2.06 3.12C1029 585 1029 585 1027 587l-4.56 5.54L1021 594h-2l-.79 1.78c-2.9 5.33-7.89 9.42-13.21 12.22a49 49 0 0 0-7.38 5c-3.02 2.3-6.11 3.64-9.62 5l-5.06 2-2.59 1.02c-2.35.98-2.35.98-5.54 2.67-3.3 1.54-6.2 1.87-9.81 2.31l-3.14.95a79 79 0 0 1-13.11 2.24l-2.62.26c-13.75 1.21-27.87.44-41.13-3.45l-4.62-.94c-3.65-.78-6.23-2.02-9.38-4.06l-2.88-.94c-3.7-1.26-6.79-3.04-10.12-5.06l-2.56-1.5c-13.27-8.17-13.27-8.17-15.44-12.5l-2.5-1.38c-2.5-1.62-2.5-1.62-2.94-3.5-.91-3.45-3.86-4.92-6.56-7.12q-1.02-2-2-4c-2.12-1.25-2.12-1.25-4-2l1-3c-1.36-2.09-1.36-2.09-3.31-4.38A29 29 0 0 1 834 566c-4.66-11.63-4.66-11.63-7.19-15.88-2.37-4.09-3.54-8.15-4.81-12.68-1-3.44-1-3.44-2.06-6-1.08-2.8-1.5-5.48-1.94-8.44q-.48-2-1-4l-.63-2.46-2.31-8.73-.8-3.1-.79-2.94-.71-2.7C811 497 811 497 809 496l1 3-1.38 1.75c-2.16 3-2.17 5.61-2.62 9.25q-.97 2.5-2 5v3l-3 1-.15 1.83-.23 2.42-.21 2.39c-.43 2.47-1.23 4.17-2.41 6.36l-1 3.12c-1 2.88-1 2.88-3 4.88-.34 2.07-.34 2.07-.5 4.56a63 63 0 0 1-1.56 10.13c-.93 3.83-1.02 7.36-.94 11.31l-1 2q-.03 5.26.13 10.53c.07 4.61-.46 8.1-2.13 12.47v2.44c0 2.56 0 2.56-.94 5.81a37 37 0 0 0-1.44 8.06c-.41 4.47-1.88 8.05-3.64 12.15-1.28 3.31-1.86 6.6-2.48 10.08a53 53 0 0 1-4.59 13.59C774 645 774 645 774 647l2.96.35c4.33.62 8.43 1.78 12.6 3.03l2.21.63c7.65 2.26 14.66 5.14 19.23 11.99-.32 3.35-1.62 5.14-4 7.44-11.52 9.5-29.79 9.95-44 11.56l-4.5.55c-7.55.9-15.1 1.51-22.7 1.91l-2.18.12q-5.48.3-10.94.55l-4.06.21-3.64.17c-3.13.52-4.12.99-5.98 3.49l-2-2c-3.04-.18-5.98-.23-9.02-.18l-3.01.02c-16.64.16-33.28.62-49.92 1.03l-11.22.27-10.99.26-5.16.12q-15.75.37-31.46 1.25c-54.29 3.05-111.04 4.38-164.97-3.15l-2.16-.29c-13-1.86-26.61-4.03-38.53-9.77l-1.92-.83c-2.92-1.36-4.42-2.23-5.73-5.23.11-3.14.78-3.97 3.03-6.12l1.71-1.73c29.41-20.65 84.06-20.48 118.96-24.8 6.02-.75 6.02-.75 8.45-1.38C507 636 507 636 510 636l2.25-.5c3.29-.6 6.41-.56 9.75-.5h3l2.28.04c6.96.07 13.79-.38 20.72-1.04 7.7-.73 15.27-1.14 23-1l.15-2.3c.28-4.55.73-8.51 2.35-12.79 1.69-4.99 1.96-9.57 1.98-14.81l.04-2.77q.07-4.35.1-8.71l.17-11.46.04-2.76c.09-5.4.37-10.73.95-16.11.38-3.93.37-7.85.34-11.79l.02-2.38c-.01-3.29-.09-5.97-1.14-9.12l2-2c.34-4.05.3-5.55-2-9 .5-1.8.5-1.8 1.44-3.75 1.73-4.14 1.37-6.81.56-11.25q.42-3.51 1-7v-4l-2-2-3-3 3-2-1-3c.12-2.26.12-2.26.44-4.69l.31-2.45.25-1.86c-3.01-.93-3.87-1.04-7 0l-2.38-1.56L565 479c-2.62.94-2.62.94-5 2l-3-2h-3v-3c-3.51-1.97-7.14-2.92-11-4l-5-2c-2.55-.75-4.3-1-7-1l-.81-1.94C529 465 529 465 526 464l-.31 2.69c-.71 3.4-1.85 5.4-3.69 8.31l-.44 2.06c-.79 2.73-2.55 3.99-4.56 5.94-1.13 2-1.13 2-2 4l-1.19 1.81c-1.2 3.23-.45 5.87.19 9.19-3 2-3 2-6 2-4.84 11-4.84 11-5.31 16.94-.42 4.08-2.06 6.32-4.56 9.48-1.51 2.11-1.75 4.03-2.13 6.58l-1.5 3.38c-1.51 3.64-2 6.72-2.5 10.62l-1.19 3.12c-.99 3.52-.38 4.66 1.19 7.88l.5 2.56c.52 2.52 1.33 4.16 2.5 6.44a770 770 0 0 1 4.66 9.91c2.94 6.79 3.66 14.26 1.22 21.34-3.62 5.31-7.56 10.06-12.88 13.75h-2l-2 4-2.12-.04-2.76-.02-2.74-.04c-2.38.1-2.38.1-4.38 1.1-6.91.61-13.02-3.17-18.75-6.69-7.77-7.98-12.94-17.41-13.38-28.72q.07-3.52.18-7.03a47 47 0 0 0-1.49-10.44c-3.06-13.87-2.61-28.41-2.68-42.56l-.02-2.29c.02-5.15.02-5.15 1.14-6.27q.07-2.03 0-4.06c-.04-3.68.2-7.2.72-10.85.31-2.32.51-4.64.72-6.97.32-3.39.84-6.66 1.56-10a97 97 0 0 0 1.75-14.36c.24-2.65.71-5.15 1.25-7.76q.4-3.56.72-7.11C444 450 444 450 445 449q.31-3 .5-6c.39-5.89.39-5.89 1.5-7q.27-2.81.44-5.62A62 62 0 0 1 450 417c.59-4.66 1-9.3 1-14l2-3c-.11-6.05-2.18-8.51-6-13-.69-3.12-.69-3.12-1-6a88 88 0 0 0-2-4 103 103 0 0 1-3-10 95 95 0 0 0-3.62-11.06c-1.34-3.45-1.55-6.23-1.38-9.94q-.46-2-1-4a82 82 0 0 1-1-14l-.62-3.94c-.65-5.15.1-10.12.86-15.21.63-4.33.77-8.48.76-12.85 1-3.44 1-3.44 2-6-5.39-3.69-5.39-3.69-8.1-5.07-7.77-4.12-13.35-10.1-19.38-16.37a69 69 0 0 0-6.71-6.18 40 40 0 0 1-7.06-7.88l-2.02-2.78A39 39 0 0 1 390 244q-.95-1.89-1.94-3.75c-5.76-11.43-8.93-26.93-5.08-39.44L384 198c.31-2.24.31-2.24.44-4.31.38-4.17 1.46-7.77 2.86-11.7 1.21-3.46 1.68-6.87 2.14-10.49A34 34 0 0 1 392 163q2.06-6.35 3.72-12.81A69 69 0 0 1 402 134c2.21-5.01 3.02-9.98 3.81-15.38q1-6.6 2.17-13.16c3.41-19 3.41-19 3.84-27.25.18-2.18.64-4.1 1.18-6.21q.22-2.22.38-4.44c.88-9.12 2.03-19.64 8.62-26.56 4.34-2.53 8-3.82 13-3m24 21 2 2v-2zm136 171a63 63 0 0 0-4 18h-2l-.55 1.94c-1.19 4.1-2.38 8.1-4.14 12C583 265 583 265 583 268h-2l-1 4h-2a31 31 0 0 0-4 8h-2v2l-4 1v2h-2l-1 2-3 1v2h-4v2l-2.5.81q-4.82 1.66-9.57 3.51A56 56 0 0 1 540 298v2a229 229 0 0 1-34.31 2.38h-2.45c-15.75-.02-29.49-2.15-44.36-7.5C456 294 456 294 452 294v-2l-7-1v-2l-4-1q-.74 1.93-1.44 3.88l-.81 2.17c-8.26 32.29.94 68.86 15.25 97.95l2 3c-.17 2.25-.17 2.25-.75 4.88q-1.27 6.13-2.26 12.31l-.51 3.28-.54 3.45-.57 3.68-1.2 7.69-1.8 11.52a1194 1194 0 0 0-6.07 43.75 769 769 0 0 1-1.25 9.64 329 329 0 0 0-2.43 39.55l-.02 2.26c-.07 8.72.54 16.89 2.32 25.44a81 81 0 0 1 1.52 15.86c.41 11.86 2.7 19.89 11.22 28.58 6.3 5.67 11.61 6.79 20.09 6.49 7.94-.93 15.01-4.26 20.25-10.38 4.15-6.66 6.13-13.15 5-21-1.68-4.18-3.86-8.05-6-12a227 227 0 0 1-2.88-6.12l-1.24-2.7c-2.98-10.75 1.05-20.43 4.56-30.56l.83-2.43c4.24-12.42 8.86-24.45 14.73-36.19l1.85-3.73Q517.37 475.11 524 462c3.65.53 6.85 1.17 10.21 2.67l2.31 1.01 2.42 1.07c13.04 5.62 26.31 9.76 40.06 13.25l.4 3.04.54 4.02.26 1.99.26 1.99.27 2.03q.37 2.58.86 5.14c.6 5.5.32 10.9.1 16.41l-.15 3.84a1066 1066 0 0 1-1.15 23.38l-.53 9.08q-.84 14.29-1.11 28.61l-.05 2.93q-.12 7.08-.18 14.16c-.1 8.11-.32 15.46-2.85 23.25-2.48 7.88-1.12 18.06 2.45 25.44A35.6 35.6 0 0 0 598 661c10.16.89 20.64.76 28.94-5.81 3.89-3.42 5.83-7.44 6.49-12.56.02-11.54.02-11.54-3.55-16.69-7.11-15.77 4.87-43.93 10.34-58.63.78-2.31.78-2.31.78-4.31 11.13 5.59 24.19 13.61 30 25 .46 3.48.38 6.88.25 10.38l-.05 2.8q-.08 3.42-.2 6.82l-1.86.38-2.44.52-2.42.5c-6.87 1.8-10.54 6.97-14.28 12.6-2.23 4.46-1.48 10.16-1 15 1.4 4.17 3.56 6.24 7.42 8.27A78 78 0 0 0 664 648l1.88.58c12.21 2.41 23.61-.74 35.12-4.58l-1.44 2.19c-2.7 4.87-3.43 10.29-2.56 15.81 2.3 6.08 6.07 9.15 11.72 12.09 12.42 4.96 32.17 3.67 44.63-.7 11.61-6.09 14.9-20.53 18.77-32.08l2-5.89 1.8-5.32q1-2.9 2.15-5.74c7.17-18.11 9.17-39.69 9.46-59.01.39-14.34 4.59-27.78 9.22-41.23l1.61-4.76A506 506 0 0 1 810 488c3.13 7.24 5.31 14.49 7.25 22.12 7.47 28.42 16.53 57.05 35.75 79.88l2.05 2.46c15.99 18.49 38.78 30.97 63.26 33.37 5.53.35 11.05.43 16.59.47l4.29.06A96 96 0 0 0 970 622l2.5-.75A112 112 0 0 0 1012 599l2-1.56c9.89-7.96 20.54-20.52 22.43-33.35.2-4.4-.13-7.42-1.93-11.47-4.32-4.53-8.15-7.28-14.44-8.18-9.62.69-17.12 7.14-24.1 13.18-10.23 8.85-20.49 14.97-32.96 20.38l-2.22.97c-17.21 7.02-37.12 5.47-54.09-1.29-21.4-9.99-32.3-29.23-40.37-50.54-5.12-14.17-9.17-28.54-12.8-43.15a276 276 0 0 0-5.35-18.32 214 214 0 0 1-2.31-7.74c-4.64-16.86-11.18-33.84-21.16-48.31-4.92-7.17-7.77-13.23-9.76-21.84-8.26-33.26-32.68-61.22-59.94-80.78l-1.9-1.36c-30.25-21.54-62.77-35.62-96.98-49.6a1904 1904 0 0 1-31.96-13.34l-5.51-2.36a176 176 0 0 1-18.42-9.23C598 230 598 230 595 230" fill="#111313"/><path d="M435 38a64 64 0 0 1 6.07 4c1.93 1 1.93 1 4.17.65L447 42c2 3 2 3 2.88 4.92 1.36 2.52 3 4.33 5 6.39l2.05 2.18C459 57 459 57 461.26 56.73L463 56l2 3-1 3c1.82 2.83 3.04 4.65 6.25 5.81L472 68v3c1.74 4.18 3.3 6.45 7 9v2l1.88.75C483 84 483 84 483.91 85.84c1.25 2.47 2.73 4 4.71 5.91l1.92 1.86L492 95l3-1 1.44 1.88c4.45 3.69 9.94 3.97 15.56 4.56 2.82.32 5.27.92 7.94 1.87a124 124 0 0 0 13.81 3.81l2.22.52c6 1.38 11.93 2.52 18.03 3.36l2-4 1.75.63c2.88.47 3.78-.17 6.19-1.75l2.11-1.4C568 102 568 102 570.69 99.12L573 97c2.81.19 2.81.19 5 1l2-4h5l-2-4 3-2 3 2 2.75-1.38L599 85l2.62-1.62a22 22 0 0 1 16.19-.38c4.5 4.11 6.95 7.45 7.54 13.68.14 7.03-.55 13.5-2.41 20.26a26 26 0 0 0-.94 7.25c0 2.81 0 2.81-.94 5.12-1.24 3.15-1.47 5.96-1.78 9.3a83 83 0 0 1-1.74 9.08q-.83 3.61-1.54 7.25l-.5 2.52q-.51 2.55-.96 5.11a70 70 0 0 1-3.88 13.61c-1.56 4.29-2.3 8.8-.91 13.2.25 2.62.25 2.62-1.63 5.06L606 197c-.62 2.94-.62 2.94-1 6q-.96 3.01-2 6-.52 2-1 4l-.54 2.11A48 48 0 0 0 600 229l1.55.66c5.63 2.46 11.1 5.15 16.56 7.97 3.96 1.88 7.48 3.37 11.89 3.37l3-2c2 3 2 3 2 5 3.58 2.66 7.41 3.86 11.61 5.18 2.41.83 4.65 1.84 6.95 2.94 4.22 1.95 7.84 2.42 12.44 2.88l2.62 1.19c3.31 1.13 5.24.13 8.38-1.19l2 3-3 3c2.91 1.26 4.8 2 8 2 1.69 1.5 1.69 1.5 3 3l3-2 3 3 3-3c2 3 2 3 2 6l2.31-.12C703 270 703 270 706 272h3v3a40 40 0 0 0 5.56 3.44l3.33 1.86L721 282l3.81 2.19L728 286l5.27 3.02q2.47 1.39 4.98 2.73c4.34 2.45 8.24 5.52 12.2 8.54 3.39 2.27 5.51 2.71 9.55 2.71v3q2.47 2.53 5 5v2l2.22.74c3.12 1.41 4.86 3 7.25 5.44l2.48 2.51 2.55 2.62 2.55 2.59 4.84 4.95a240 240 0 0 0 5.08 5.01A19 19 0 0 1 796 343q1.13 1.89 2.31 3.75l1.33 2.1 2.69 4.24c4.24 6.68 7.54 13.65 10.67 20.91l1.04 2.38a88 88 0 0 1 4.52 13.74c1.99 8.24 3.8 13.43 9.6 19.69 7.49 8.93 11.05 20.84 14.91 31.65q.93 2.53 1.96 5.04a65 65 0 0 1 2.35 7.75c.96 3.68 2.1 7.01 3.74 10.44a27 27 0 0 1 2.54 9.88c1.15 8.3 3.95 16.63 6.69 24.51 1 2.94 1.8 5.93 2.65 8.92q.98 3 2 6a693 693 0 0 1 3 9.11l1 3.08 1 3.1c1 2.71 1 2.71 3 5.71l.81 2.62a49 49 0 0 0 8.44 15.13C884 555 884 555 884.5 557.69l.5 2.31a13 13 0 0 0 4 2v2l1.88.88C893 566 893 566 895 568a88 88 0 0 0 20 10l3.44 1.25A46 46 0 0 0 933 580l3-2 1.56 1c4.5 1.84 8.86 1.21 13.44 0l4.38-.88c3.92-.86 7.07-2.2 10.62-4.12l4.5-1.94A56 56 0 0 0 981 566l2-1.45a68 68 0 0 0 8.31-6.86C993 556 993 556 996 555l1.36-1.87c3.13-4.05 8.16-5.83 12.64-8.13l3.19-1.88c3.89-1.55 6.61-1.46 10.81-1.12 2.31 1 2.31 1 4 2h3c3.31 3.47 5.51 6.4 7 11l1 3c.63 7.68-1.16 14.98-6 21l-2.06 3.12C1029 585 1029 585 1027 587l-4.56 5.54L1021 594h-2l-.79 1.78c-2.9 5.33-7.89 9.42-13.21 12.22a49 49 0 0 0-7.38 5c-3.02 2.3-6.11 3.64-9.62 5l-5.06 2-2.59 1.02c-2.35.98-2.35.98-5.54 2.67-3.3 1.54-6.2 1.87-9.81 2.31l-3.14.95a79 79 0 0 1-13.11 2.24l-2.62.26c-13.75 1.21-27.87.44-41.13-3.45l-4.62-.94c-3.65-.78-6.23-2.02-9.38-4.06l-2.88-.94c-3.7-1.26-6.79-3.04-10.12-5.06l-2.56-1.5c-13.27-8.17-13.27-8.17-15.44-12.5l-2.5-1.38c-2.5-1.62-2.5-1.62-2.94-3.5-.91-3.45-3.86-4.92-6.56-7.12q-1.02-2-2-4c-2.12-1.25-2.12-1.25-4-2l1-3c-1.36-2.09-1.36-2.09-3.31-4.38A29 29 0 0 1 834 566c-4.66-11.63-4.66-11.63-7.19-15.88-2.37-4.09-3.54-8.15-4.81-12.68-1-3.44-1-3.44-2.06-6-1.08-2.8-1.5-5.48-1.94-8.44q-.48-2-1-4l-.63-2.46-2.31-8.73-.8-3.1-.79-2.94-.71-2.7C811 497 811 497 809 496l1 3-1.38 1.75c-2.16 3-2.17 5.61-2.62 9.25q-.97 2.5-2 5v3l-3 1-.15 1.83-.23 2.42-.21 2.39c-.43 2.47-1.23 4.17-2.41 6.36l-1 3.12c-1 2.88-1 2.88-3 4.88-.34 2.07-.34 2.07-.5 4.56a63 63 0 0 1-1.56 10.13c-.93 3.83-1.02 7.36-.94 11.31l-1 2q-.03 5.26.13 10.53c.07 4.61-.46 8.1-2.13 12.47v2.44c0 2.56 0 2.56-.94 5.81a37 37 0 0 0-1.44 8.06c-.41 4.47-1.88 8.05-3.64 12.15-1.28 3.31-1.86 6.6-2.48 10.08a53 53 0 0 1-4.59 13.59C774 645 774 645 774 647l2.96.35c4.33.62 8.43 1.78 12.6 3.03l2.21.63c7.65 2.26 14.66 5.14 19.23 11.99-.32 3.35-1.62 5.14-4 7.44-11.52 9.5-29.79 9.95-44 11.56l-4.5.55c-7.55.9-15.1 1.51-22.7 1.91l-2.18.12q-5.48.3-10.94.55l-4.06.21-3.64.17c-3.13.52-4.12.99-5.98 3.49l-2-2c-3.04-.18-5.98-.23-9.02-.18l-3.01.02c-16.64.16-33.28.62-49.92 1.03l-11.22.27-10.99.26-5.16.12q-15.75.37-31.46 1.25c-54.29 3.05-111.04 4.38-164.97-3.15l-2.16-.29c-13-1.86-26.61-4.03-38.53-9.77l-1.92-.83c-2.92-1.36-4.42-2.23-5.73-5.23.11-3.14.78-3.97 3.03-6.12l1.71-1.73c29.41-20.65 84.06-20.48 118.96-24.8 6.02-.75 6.02-.75 8.45-1.38C507 636 507 636 510 636l2.25-.5c3.29-.6 6.41-.56 9.75-.5h3l2.28.04c6.96.07 13.79-.38 20.72-1.04 7.7-.73 15.27-1.14 23-1l.15-2.3c.28-4.55.73-8.51 2.35-12.79 1.69-4.99 1.96-9.57 1.98-14.81l.04-2.77q.07-4.35.1-8.71l.17-11.46.04-2.76c.09-5.4.37-10.73.95-16.11.38-3.93.37-7.85.34-11.79l.02-2.38c-.01-3.29-.09-5.97-1.14-9.12l2-2c.34-4.05.3-5.55-2-9 .5-1.8.5-1.8 1.44-3.75 1.73-4.14 1.37-6.81.56-11.25q.42-3.51 1-7v-4l-2-2-3-3 3-2-1-3c.12-2.26.12-2.26.44-4.69l.31-2.45.25-1.86c-3.01-.93-3.87-1.04-7 0l-2.38-1.56L565 479c-2.62.94-2.62.94-5 2l-3-2h-3v-3c-3.51-1.97-7.14-2.92-11-4l-5-2c-2.55-.75-4.3-1-7-1l-.81-1.94C529 465 529 465 526 464l-.31 2.69c-.71 3.4-1.85 5.4-3.69 8.31l-.44 2.06c-.79 2.73-2.55 3.99-4.56 5.94-1.13 2-1.13 2-2 4l-1.19 1.81c-1.2 3.23-.45 5.87.19 9.19-3 2-3 2-6 2-4.84 11-4.84 11-5.31 16.94-.42 4.08-2.06 6.32-4.56 9.48-1.51 2.11-1.75 4.03-2.13 6.58l-1.5 3.38c-1.51 3.64-2 6.72-2.5 10.62l-1.19 3.12c-.99 3.52-.38 4.66 1.19 7.88l.5 2.56c.52 2.52 1.33 4.16 2.5 6.44a770 770 0 0 1 4.66 9.91c2.94 6.79 3.66 14.26 1.22 21.34-3.62 5.31-7.56 10.06-12.88 13.75h-2l-2 4-2.12-.04-2.76-.02-2.74-.04c-2.38.1-2.38.1-4.38 1.1-6.91.61-13.02-3.17-18.75-6.69-7.77-7.98-12.94-17.41-13.38-28.72q.07-3.52.18-7.03a47 47 0 0 0-1.49-10.44c-3.06-13.87-2.61-28.41-2.68-42.56l-.02-2.29c.02-5.15.02-5.15 1.14-6.27q.07-2.03 0-4.06c-.04-3.68.2-7.2.72-10.85.31-2.32.51-4.64.72-6.97.32-3.39.84-6.66 1.56-10a97 97 0 0 0 1.75-14.36c.24-2.65.71-5.15 1.25-7.76q.4-3.56.72-7.11C444 450 444 450 445 449q.31-3 .5-6c.39-5.89.39-5.89 1.5-7q.27-2.81.44-5.62A62 62 0 0 1 450 417c.59-4.66 1-9.3 1-14l2-3c-.11-6.05-2.18-8.51-6-13-.69-3.12-.69-3.12-1-6a88 88 0 0 0-2-4 103 103 0 0 1-3-10 95 95 0 0 0-3.62-11.06c-1.34-3.45-1.55-6.23-1.38-9.94q-.46-2-1-4a82 82 0 0 1-1-14l-.62-3.94c-.65-5.15.1-10.12.86-15.21.63-4.33.77-8.48.76-12.85 1-3.44 1-3.44 2-6-5.39-3.69-5.39-3.69-8.1-5.07-7.77-4.12-13.35-10.1-19.38-16.37a69 69 0 0 0-6.71-6.18 40 40 0 0 1-7.06-7.88l-2.02-2.78A39 39 0 0 1 390 244q-.95-1.89-1.94-3.75c-5.76-11.43-8.93-26.93-5.08-39.44L384 198c.31-2.24.31-2.24.44-4.31.38-4.17 1.46-7.77 2.86-11.7 1.21-3.46 1.68-6.87 2.14-10.49A34 34 0 0 1 392 163q2.06-6.35 3.72-12.81A69 69 0 0 1 402 134c2.21-5.01 3.02-9.98 3.81-15.38q1-6.6 2.17-13.16c3.41-19 3.41-19 3.84-27.25.18-2.18.64-4.1 1.18-6.21q.22-2.22.38-4.44c.88-9.12 2.03-19.64 8.62-26.56 4.34-2.53 8-3.82 13-3m-13 7a51 51 0 0 0-4.56 14.88l-.34 1.92a223 223 0 0 0-1.75 12.89 491 491 0 0 1-4.16 28.8l-.86 5.15c-1.68 10.41-3.95 20-7.9 29.78a173 173 0 0 0-5.05 15.02l-.9 2.97a322 322 0 0 0-5.96 23.3c-.58 2.58-1.23 5.14-1.87 7.71-4.23 17.29-7.45 35.22 1.35 51.58l.94 1.79c8.94 16.67 21.23 30.08 36.87 40.71l1.93 1.32c3.38 2.22 6.21 3.75 10.26 4.18l-.4 1.84-.54 2.54-.52 2.46C433 326.57 437.14 366.71 456 395c-.17 2.25-.17 2.25-.75 4.88q-1.27 6.13-2.26 12.31l-.51 3.28-.54 3.45-.57 3.68-1.2 7.69-1.8 11.52a1194 1194 0 0 0-6.07 43.75 769 769 0 0 1-1.25 9.64 329 329 0 0 0-2.43 39.55l-.02 2.26c-.07 8.72.54 16.89 2.32 25.44a81 81 0 0 1 1.52 15.86c.41 11.86 2.7 19.89 11.22 28.58 6.3 5.67 11.61 6.79 20.09 6.49 7.94-.93 15.01-4.26 20.25-10.38 4.15-6.66 6.13-13.15 5-21-1.68-4.18-3.86-8.05-6-12a227 227 0 0 1-2.88-6.12l-1.24-2.7c-2.98-10.75 1.05-20.43 4.56-30.56l.83-2.43c4.24-12.42 8.86-24.45 14.73-36.19l1.85-3.73Q517.37 475.11 524 462c3.65.53 6.85 1.17 10.21 2.67l2.31 1.01 2.42 1.07c13.04 5.62 26.31 9.76 40.06 13.25l.4 3.04.54 4.02.26 1.99.26 1.99.27 2.03q.37 2.58.86 5.14c.6 5.5.32 10.9.1 16.41l-.15 3.84a1066 1066 0 0 1-1.15 23.38l-.53 9.08q-.84 14.29-1.11 28.61l-.05 2.93q-.12 7.08-.18 14.16c-.1 8.11-.32 15.46-2.85 23.25-2.48 7.88-1.12 18.06 2.45 25.44A35.6 35.6 0 0 0 598 661c10.16.89 20.64.76 28.94-5.81 3.89-3.42 5.83-7.44 6.49-12.56.02-11.54.02-11.54-3.55-16.69-7.11-15.77 4.87-43.93 10.34-58.63.78-2.31.78-2.31.78-4.31 11.13 5.59 24.19 13.61 30 25 .46 3.48.38 6.88.25 10.38l-.05 2.8q-.08 3.42-.2 6.82l-1.86.38-2.44.52-2.42.5c-6.87 1.8-10.54 6.97-14.28 12.6-2.23 4.46-1.48 10.16-1 15 1.4 4.17 3.56 6.24 7.42 8.27A78 78 0 0 0 664 648l1.88.58c12.21 2.41 23.61-.74 35.12-4.58l-1.44 2.19c-2.7 4.87-3.43 10.29-2.56 15.81 2.3 6.08 6.07 9.15 11.72 12.09 12.42 4.96 32.17 3.67 44.63-.7 11.61-6.09 14.9-20.53 18.77-32.08l2-5.89 1.8-5.32q1-2.9 2.15-5.74c7.17-18.11 9.17-39.69 9.46-59.01.39-14.34 4.59-27.78 9.22-41.23l1.61-4.76A506 506 0 0 1 810 488c3.13 7.24 5.31 14.49 7.25 22.12 7.47 28.42 16.53 57.05 35.75 79.88l2.05 2.46c15.99 18.49 38.78 30.97 63.26 33.37 5.53.35 11.05.43 16.59.47l4.29.06A96 96 0 0 0 970 622l2.5-.75A112 112 0 0 0 1012 599l2-1.56c9.89-7.96 20.54-20.52 22.43-33.35.2-4.4-.13-7.42-1.93-11.47-4.32-4.53-8.15-7.28-14.44-8.18-9.62.69-17.12 7.14-24.1 13.18-10.23 8.85-20.49 14.97-32.96 20.38l-2.22.97c-17.21 7.02-37.12 5.47-54.09-1.29-21.4-9.99-32.3-29.23-40.37-50.54-5.12-14.17-9.17-28.54-12.8-43.15a276 276 0 0 0-5.35-18.32 214 214 0 0 1-2.31-7.74c-4.64-16.86-11.18-33.84-21.16-48.31-4.92-7.17-7.77-13.23-9.76-21.84-8.26-33.26-32.68-61.22-59.94-80.78l-1.9-1.36c-30.25-21.54-62.77-35.62-96.98-49.6a1904 1904 0 0 1-31.96-13.34l-5.51-2.36a186 186 0 0 1-18.51-9.23C598 230 598 230 596 230c2.07-12.61 4.93-24.95 8.1-37.32 22.06-86.28 22.06-86.28 16.71-100.93-2.45-3.72-4.35-6.05-8.76-7.31-9.27-1.02-17.39 5.07-25.05 9.56l-6.15 3.57q-4.75 2.77-9.48 5.56c-16.43 9.71-16.43 9.71-25.37 7.87l-3.03-.54a484 484 0 0 1-27.89-6.28c-9.05-2.23-9.05-2.23-13.26-2.88-8.91-1.47-12.37-5.33-17.82-12.3a165 165 0 0 0-4-3.94c-3.96-3.89-7.37-8.14-10.84-12.46a100 100 0 0 0-7.47-7.92 104 104 0 0 1-10.57-12.24c-4.31-4.95-10.59-10.74-17.3-11.78-5.21-.09-8.21.2-11.82 4.34m37 14 2 2v-2z" fill="#C0C1C1"/><path d="M435 38a64 64 0 0 1 6.07 4c1.93 1 1.93 1 4.17.65L447 42c2 3 2 3 2.88 4.92 1.36 2.52 3 4.33 5 6.39l2.05 2.18C459 57 459 57 461.26 56.73L463 56l2 3-1 3c1.82 2.83 3.04 4.65 6.25 5.81L472 68v3c1.74 4.18 3.3 6.45 7 9v2l1.88.75C483 84 483 84 483.91 85.84c1.25 2.47 2.73 4 4.71 5.91l1.92 1.86L492 95l3-1 1.44 1.88c4.45 3.69 9.94 3.97 15.56 4.56 2.82.32 5.27.92 7.94 1.87a124 124 0 0 0 13.81 3.81l2.22.52c6 1.38 11.93 2.52 18.03 3.36l2-4 1.75.63c2.88.47 3.78-.17 6.19-1.75l2.11-1.4C568 102 568 102 570.69 99.12L573 97c2.81.19 2.81.19 5 1l2-4h5l-2-4 3-2 3 2 2.75-1.38L599 85l2.62-1.62a22 22 0 0 1 16.19-.38c4.5 4.11 6.95 7.45 7.54 13.68.14 7.03-.55 13.5-2.41 20.26a26 26 0 0 0-.94 7.25c0 2.81 0 2.81-.94 5.12-1.24 3.15-1.47 5.96-1.78 9.3a83 83 0 0 1-1.74 9.08q-.83 3.61-1.54 7.25l-.5 2.52q-.51 2.55-.96 5.11a70 70 0 0 1-3.88 13.61c-1.56 4.29-2.3 8.8-.91 13.2.25 2.62.25 2.62-1.63 5.06L606 197c-.62 2.94-.62 2.94-1 6q-.96 3.01-2 6-.52 2-1 4l-.54 2.11A48 48 0 0 0 600 229l1.55.66c5.63 2.46 11.1 5.15 16.56 7.97 3.96 1.88 7.48 3.37 11.89 3.37l3-2c2 3 2 3 2 5 3.58 2.66 7.41 3.86 11.61 5.18 2.41.83 4.65 1.84 6.95 2.94 4.22 1.95 7.84 2.42 12.44 2.88l2.62 1.19c3.31 1.13 5.24.13 8.38-1.19l2 3-3 3c2.91 1.26 4.8 2 8 2 1.69 1.5 1.69 1.5 3 3l3-2 3 3 3-3c2 3 2 3 2 6l2.31-.12C703 270 703 270 706 272h3v3a40 40 0 0 0 5.56 3.44l3.33 1.86L721 282l3.81 2.19L728 286l5.27 3.02q2.47 1.39 4.98 2.73c4.34 2.45 8.24 5.52 12.2 8.54 3.39 2.27 5.51 2.71 9.55 2.71v3q2.47 2.53 5 5v2l2.22.74c3.12 1.41 4.86 3 7.25 5.44l2.48 2.51 2.55 2.62 2.55 2.59 4.84 4.95a240 240 0 0 0 5.08 5.01A19 19 0 0 1 796 343q1.13 1.89 2.31 3.75l1.33 2.1 2.69 4.24c4.24 6.68 7.54 13.65 10.67 20.91l1.04 2.38a88 88 0 0 1 4.52 13.74c1.99 8.24 3.8 13.43 9.6 19.69 7.49 8.93 11.05 20.84 14.91 31.65q.93 2.53 1.96 5.04a65 65 0 0 1 2.35 7.75c.96 3.68 2.1 7.01 3.74 10.44a27 27 0 0 1 2.54 9.88c1.15 8.3 3.95 16.63 6.69 24.51 1 2.94 1.8 5.93 2.65 8.92q.98 3 2 6a693 693 0 0 1 3 9.11l1 3.08 1 3.1c1 2.71 1 2.71 3 5.71l.81 2.62a49 49 0 0 0 8.44 15.13C884 555 884 555 884.5 557.69l.5 2.31a13 13 0 0 0 4 2v2l1.88.88C893 566 893 566 895 568a88 88 0 0 0 20 10l3.44 1.25A46 46 0 0 0 933 580l3-2 1.56 1c4.5 1.84 8.86 1.21 13.44 0l4.38-.88c3.92-.86 7.07-2.2 10.62-4.12l4.5-1.94A56 56 0 0 0 981 566l2-1.45a68 68 0 0 0 8.31-6.86C993 556 993 556 996 555l1.36-1.87c3.13-4.05 8.16-5.83 12.64-8.13l3.19-1.88c3.89-1.55 6.61-1.46 10.81-1.12 2.31 1 2.31 1 4 2h3c3.31 3.47 5.51 6.4 7 11l1 3c.63 7.68-1.16 14.98-6 21l-2.06 3.12C1029 585 1029 585 1027 587l-4.56 5.54L1021 594h-2l-.79 1.78c-2.9 5.33-7.89 9.42-13.21 12.22a49 49 0 0 0-7.38 5c-3.02 2.3-6.11 3.64-9.62 5l-5.06 2-2.59 1.02c-2.35.98-2.35.98-5.54 2.67-3.3 1.54-6.2 1.87-9.81 2.31l-3.14.95a79 79 0 0 1-13.11 2.24l-2.62.26c-13.75 1.21-27.87.44-41.13-3.45l-4.62-.94c-3.65-.78-6.23-2.02-9.38-4.06l-2.88-.94c-3.7-1.26-6.79-3.04-10.12-5.06l-2.56-1.5c-13.27-8.17-13.27-8.17-15.44-12.5l-2.5-1.38c-2.5-1.62-2.5-1.62-2.94-3.5-.91-3.45-3.86-4.92-6.56-7.12q-1.02-2-2-4c-2.12-1.25-2.12-1.25-4-2l1-3c-1.36-2.09-1.36-2.09-3.31-4.38A29 29 0 0 1 834 566c-4.66-11.63-4.66-11.63-7.19-15.88-2.37-4.09-3.54-8.15-4.81-12.68-1-3.44-1-3.44-2.06-6-1.08-2.8-1.5-5.48-1.94-8.44q-.48-2-1-4l-.63-2.46-2.31-8.73-.8-3.1-.79-2.94-.71-2.7C811 497 811 497 809 496l1 3-1.38 1.75c-2.16 3-2.17 5.61-2.62 9.25q-.97 2.5-2 5v3l-3 1-.15 1.83-.23 2.42-.21 2.39c-.43 2.47-1.23 4.17-2.41 6.36l-1 3.12c-1 2.88-1 2.88-3 4.88-.34 2.07-.34 2.07-.5 4.56a63 63 0 0 1-1.56 10.13c-.93 3.83-1.02 7.36-.94 11.31l-1 2q-.03 5.26.13 10.53c.07 4.61-.46 8.1-2.13 12.47v2.44c0 2.56 0 2.56-.94 5.81a37 37 0 0 0-1.44 8.06c-.41 4.47-1.88 8.05-3.64 12.15-1.28 3.31-1.86 6.6-2.48 10.08a53 53 0 0 1-4.59 13.59C774 645 774 645 774 647l2.96.35c4.33.62 8.43 1.78 12.6 3.03l2.21.63c7.65 2.26 14.66 5.14 19.23 11.99-.32 3.35-1.62 5.14-4 7.44-11.52 9.5-29.79 9.95-44 11.56l-4.5.55c-7.55.9-15.1 1.51-22.7 1.91l-2.18.12q-5.48.3-10.94.55l-4.06.21-3.64.17c-3.13.52-4.12.99-5.98 3.49l-2-2c-3.04-.18-5.98-.23-9.02-.18l-3.01.02c-16.64.16-33.28.62-49.92 1.03l-11.22.27-10.99.26-5.16.12q-15.75.37-31.46 1.25c-54.29 3.05-111.04 4.38-164.97-3.15l-2.16-.29c-13-1.86-26.61-4.03-38.53-9.77l-1.92-.83c-1.82-.85-1.82-.85-4.64-2.73-.91-2.72-.91-2.72-1-5l2-1 .25 2.37c.75 2.63.75 2.63 2.5 3.87l2.32.86 2.62.98 2.87.98 2.99 1.05c10.96 3.65 22.03 5.41 33.45 6.89l3.06.43a335 335 0 0 0 39.93 3.2c16.82.48 33.65.56 50.48.56l10.15.02c18.98.07 37.88-.2 56.84-1.26 15.2-.85 30.39-1.35 45.6-1.73l3.56-.09 29.06-.72c106.36-2.56 106.36-2.56 134.38-10.72l2.18-.57c3.4-.98 5.67-2.04 8.32-4.41C807 666 807 666 807.1 662.88c-1.1-2.88-1.1-2.88-3.51-4.64A157 157 0 0 0 778 650l-4.94-1.25L770 648a98 98 0 0 1 4.81-16.75c7.64-21.06 11.38-43.52 11.72-65.9.39-14.34 4.59-27.78 9.22-41.23l1.62-4.76a709 709 0 0 1 9.57-26.7c1.81-4.53 1.81-4.53 4.06-5.66a206 206 0 0 1 7.25 23.19c7.49 28.38 16.54 57 35.75 79.81l2.09 2.49c10.6 12.24 23.09 20.41 38.1 26.32l2.23.88c12.59 4.77 25.11 5.53 38.48 5.61l4.29.06A96 96 0 0 0 970 621l2.5-.75A112 112 0 0 0 1012 598l1.77-1.34c9.66-7.46 19.98-20.35 21.62-32.61.15-3.95-.09-7.18-1.39-10.93-4.07-4.32-8.01-6.84-13.94-7.68-9.62.69-17.12 7.14-24.1 13.18-10.23 8.85-20.49 14.97-32.96 20.38l-2.22.97c-17.21 7.02-37.12 5.47-54.09-1.29-16.07-7.5-25.66-19.35-33.69-34.68l-1.78-3.39c-8.3-16.81-13.22-34.97-17.78-53.08a337 337 0 0 0-6.27-21.86 214 214 0 0 1-2.31-7.74c-4.64-16.86-11.18-33.84-21.16-48.31-4.92-7.17-7.77-13.23-9.76-21.84-11.19-45.1-49.12-75.36-86.92-98.39-22.36-13.39-46.85-22.52-70.9-32.35a1891 1891 0 0 1-31.85-13.29l-5.44-2.33A253 253 0 0 1 596 230c.34-9.42 2.27-18.15 4.58-27.23l1.84-7.36 2.46-9.88c6.03-24.24 11.38-48.73 15-73.47l.36-2.47c1.94-14.17 1.94-14.17-2.24-20.59-3.62-3.17-6.13-3.83-10.88-3.65-7.3 1.52-13.75 5.92-20.12 9.65l-6.15 3.57q-4.75 2.77-9.48 5.56c-16.43 9.71-16.43 9.71-25.37 7.87l-3.03-.54a486 486 0 0 1-27.9-6.28c-9.05-2.24-9.05-2.24-13.18-2.81-9.75-1.47-14-7.11-19.89-14.37q-1.78-1.82-3.62-3.56c-3.74-3.66-6.91-7.74-10.18-11.8a102 102 0 0 0-7.5-7.95c-2.52-2.51-4.81-5.2-7.12-7.89C452 55 452 55 450.3 53.39 449 52 449 52 449 50l-1.69-.75c-2.71-1.47-4.91-3.33-7.31-5.25-4.26-2.49-8.16-2.81-13-2-5.11 3.44-6.55 8.25-8 14-.81 4.69-1.43 9.4-2.02 14.12q-.77 6-1.6 11.99l-.34 2.48a749 749 0 0 1-3.61 23.51l-.7 4.22a122 122 0 0 1-7.27 25.96 191 191 0 0 0-5.08 15.16l-.9 2.97a322 322 0 0 0-5.96 23.3c-.58 2.58-1.23 5.14-1.87 7.71-4.23 17.29-7.45 35.22 1.35 51.58l.94 1.79C401.99 259.54 419.1 280.03 440 287c.21 4.47-.21 8.51-.99 12.92a127 127 0 0 0-1.32 20.7l.01 3.71c.32 23.82 5.88 50.54 19.3 70.67-.17 2.25-.17 2.25-.75 4.88q-1.27 6.13-2.26 12.31l-.51 3.28-.54 3.45-.57 3.68-1.2 7.69-1.8 11.52a1194 1194 0 0 0-6.07 43.75 769 769 0 0 1-1.25 9.64 329 329 0 0 0-2.43 39.55l-.02 2.26c-.07 8.72.54 16.89 2.32 25.44a81 81 0 0 1 1.52 15.86c.41 11.91 2.73 19.92 11.28 28.65 5.81 5.2 11.47 5.58 18.99 5.39 7.59-.81 14.03-3.84 19.29-9.35 4.1-6.72 6.14-13.11 5-21-1.68-4.18-3.86-8.05-6-12a227 227 0 0 1-2.88-6.12l-1.24-2.7c-2.98-10.75 1.05-20.43 4.56-30.56l.83-2.43c3.89-11.4 7.99-22.59 13.35-33.39q2.1-4.26 4.13-8.55 2.01-4.18 4.05-8.35l2-4.15q1.41-2.91 2.84-5.79l1.67-3.41c1.69-2.55 1.69-2.55 3.58-3.54 2.81-.01 4.71.77 7.3 1.87l3.09 1.28 3.28 1.4a311 311 0 0 0 30.32 10.79c3.73 1.14 7.42 2.4 11.12 3.65l.4 3.04.54 4.02.26 1.99.26 1.99.27 2.03q.37 2.58.86 5.14c.6 5.5.32 10.9.1 16.41l-.15 3.84a1066 1066 0 0 1-1.15 23.38l-.53 9.08q-.84 14.29-1.11 28.61l-.05 2.93q-.12 7.08-.18 14.16c-.1 8.07-.3 15.4-2.83 23.14-1.03 3.34-1.21 6.44-1.38 9.93L575 636l-3-.05c-11.53-.12-22.94.5-34.44 1.36l-2.78.21a791 791 0 0 0-42.06 4.16q-5.19.6-10.39 1.04c-11.26 1.01-22.34 2.82-33.47 4.78q-4.33.75-8.68 1.45a539 539 0 0 0-20.62 3.93l-3.69.73a199 199 0 0 0-20.94 5.45C382.61 663 382.61 663 378 663c4.06-2.92 7.41-4.68 12.3-5.96l3.67-.98 3.91-1 4.09-1.06q6-1.53 12.03-3l3.07-.76c26.02-6.24 53.01-9.1 79.54-12.39 6.02-.75 6.02-.75 8.45-1.38C507 636 507 636 510 636l2.25-.5c3.29-.6 6.41-.56 9.75-.5h3l2.28.04c6.96.07 13.79-.38 20.72-1.04 7.7-.73 15.27-1.14 23-1l.15-2.3c.28-4.55.73-8.51 2.35-12.79 1.69-4.99 1.96-9.57 1.98-14.81l.04-2.77q.07-4.35.1-8.71l.17-11.46.04-2.76c.09-5.4.37-10.73.95-16.11.38-3.93.37-7.85.34-11.79l.02-2.38c-.01-3.29-.09-5.97-1.14-9.12l2-2c.34-4.05.3-5.55-2-9 .5-1.8.5-1.8 1.44-3.75 1.73-4.14 1.37-6.81.56-11.25q.42-3.51 1-7v-4l-2-2-3-3 3-2-1-3c.12-2.26.12-2.26.44-4.69l.31-2.45.25-1.86c-3.01-.93-3.87-1.04-7 0l-2.38-1.56L565 479c-2.62.94-2.62.94-5 2l-3-2h-3v-3c-3.51-1.97-7.14-2.92-11-4l-5-2c-2.55-.75-4.3-1-7-1l-.81-1.94C529 465 529 465 526 464l-.31 2.69c-.71 3.4-1.85 5.4-3.69 8.31l-.44 2.06c-.79 2.73-2.55 3.99-4.56 5.94-1.13 2-1.13 2-2 4l-1.19 1.81c-1.2 3.23-.45 5.87.19 9.19-3 2-3 2-6 2-4.84 11-4.84 11-5.31 16.94-.42 4.08-2.06 6.32-4.56 9.48-1.51 2.11-1.75 4.03-2.13 6.58l-1.5 3.38c-1.51 3.64-2 6.72-2.5 10.62l-1.19 3.12c-.99 3.52-.38 4.66 1.19 7.88l.5 2.56c.52 2.52 1.33 4.16 2.5 6.44a770 770 0 0 1 4.66 9.91c2.94 6.79 3.66 14.26 1.22 21.34-3.62 5.31-7.56 10.06-12.88 13.75h-2l-2 4-2.12-.04-2.76-.02-2.74-.04c-2.38.1-2.38.1-4.38 1.1-6.91.61-13.02-3.17-18.75-6.69-7.77-7.98-12.94-17.41-13.38-28.72q.07-3.52.18-7.03a47 47 0 0 0-1.49-10.44c-3.06-13.87-2.61-28.41-2.68-42.56l-.02-2.29c.02-5.15.02-5.15 1.14-6.27q.07-2.03 0-4.06c-.04-3.68.2-7.2.72-10.85.31-2.32.51-4.64.72-6.97.32-3.39.84-6.66 1.56-10a97 97 0 0 0 1.75-14.36c.24-2.65.71-5.15 1.25-7.76q.4-3.56.72-7.11C444 450 444 450 445 449q.31-3 .5-6c.39-5.89.39-5.89 1.5-7q.27-2.81.44-5.62A62 62 0 0 1 450 417c.59-4.66 1-9.3 1-14l2-3c-.11-6.05-2.18-8.51-6-13-.69-3.12-.69-3.12-1-6a88 88 0 0 0-2-4 103 103 0 0 1-3-10 95 95 0 0 0-3.62-11.06c-1.34-3.45-1.55-6.23-1.38-9.94q-.46-2-1-4a82 82 0 0 1-1-14l-.62-3.94c-.65-5.15.1-10.12.86-15.21.63-4.33.77-8.48.76-12.85 1-3.44 1-3.44 2-6-5.39-3.69-5.39-3.69-8.1-5.07-7.77-4.12-13.35-10.1-19.38-16.37a69 69 0 0 0-6.71-6.18 40 40 0 0 1-7.06-7.88l-2.02-2.78A39 39 0 0 1 390 244q-.95-1.89-1.94-3.75c-5.76-11.43-8.93-26.93-5.08-39.44L384 198c.31-2.24.31-2.24.44-4.31.38-4.17 1.46-7.77 2.86-11.7 1.21-3.46 1.68-6.87 2.14-10.49A34 34 0 0 1 392 163q2.06-6.35 3.72-12.81A69 69 0 0 1 402 134c2.21-5.01 3.02-9.98 3.81-15.38q1-6.6 2.17-13.16c3.41-19 3.41-19 3.84-27.25.18-2.18.64-4.1 1.18-6.21q.22-2.22.38-4.44c.88-9.12 2.03-19.64 8.62-26.56 4.34-2.53 8-3.82 13-3m24 21 2 2v-2z" fill="#E7E8E9"/><path d="m425 42 2 1q3 .06 6 0l1 3 1.75.38c3.36.93 4.99 3.05 7.25 5.62v2l2.31.75c2.95 1.37 4.05 2.49 5.69 5.25v2h2l1.44 2.75c3.84 6.74 8.75 13.03 13.84 18.87C470 86 470 86 470 90h2l2 6-1.7.3c-11.09 2.07-21.44 4.7-31.19 10.53C439 108 439 108 437 108v2l-1.69.85c-5.89 3.09-13.22 6.97-16.31 13.15h-3c-1.16-5.82-.67-10.62.31-16.44a351 351 0 0 0 2.94-24.62l.28-3.12.24-2.92.21-2.58c.02-2.3-.41-4.1-.98-6.32.81-1.89.81-1.89 2-3.81 2.26-4.14 1.76-6.54 1-11.19a40 40 0 0 1 3-7l-1.38 2-1.62 2h-2c1.19-3.38 2.28-5.65 5-8" fill="#202321"/><path d="M641 563c10.6 2.39 22.45 12.09 29.19 20.44 3.57 6.36 2.64 15.56 1.81 22.56-2.41 2.97-4.67 3.68-8.31 4.75-6.99 2.42-9.79 6.1-13.5 12.25-1.19 3-1.19 3-2.19 10h-15c-3.62-5.89-5.38-8.98-5-16l.13-2.43c1.19-18.43 6.31-34.48 12.87-51.57" fill="#F1F2F1"/><path d="M433 177v2l5 1v-2c3.81.6 6.04 2.35 9 4.75l2.56 2.05c3.54 3.19 7.21 6.59 7.64 11.52.13 7.61-.97 12.9-4.82 19.43-5.28 5-10.81 6.51-18 6.75-6.63-.24-10.22-1.4-15.02-6.11-5.98-6.56-8.7-13.19-8.58-22 .36-3.95 1.47-6.82 3.22-10.39 2.19-1.5 2.19-1.5 4-2v-2c5.36-2.26 9.2-3.36 15-3" fill="#131414"/><path d="m595 230 4 1v2h-2l.69 2.81c.77 5.35-1.06 10.14-2.69 15.19l-.87 2.71q-1.04 3.15-2.13 6.29h-2l-.38 2.75A21 21 0 0 1 587 270h-2l-.81 2.19A41 41 0 0 1 580 280l-3 1-1 3c-6.54 6.89-14.63 13.01-24 15v2h-4v2q-4.53 1.42-9.06 2.81l-2.51.79c-14.53 4.44-28.03 5.94-43.12 5.84l-2.66-.01c-13.01-.03-25.05-1.07-37.65-4.43l-3.79-.54c-3.77-.54-7.44-1.69-10.21-4.46-.49-5.37-.06-9.98 2-15l4 1v2l7 1v2l2.44.38q4.07.7 8.12 1.56l2.19.46c2.25.6 2.25.6 4.47 1.54 10.89 4.17 22.34 4.52 33.84 4.4q3.56-.03 7.11-.02A203 203 0 0 0 540 300v-2l1.98-.55A72 72 0 0 0 556 292h2v-2h4v-2l3-1 1-2h2v-2l4-1v-2h2l.88-1.75L578 272h2l1-4h2l.43-1.76q.8-3.09 1.76-6.13l.68-2.15.69-2.21.71-2.26L589 248h2l.31-3.94c.54-4.96 1.94-9.4 3.69-14.06" fill="#010201"/><path d="M516 199c8.78.42 15.4 2.83 21.44 9.44 4 5.14 5.21 10.07 4.56 16.56-2.17 8.4-6.53 14.34-13.73 19.16-7.39 3.51-17.81 3.22-25.5.84-6.89-3.35-11.23-8.25-14.77-15-1.06-3.11-1.11-5.97-1.06-9.25l.02-2.7.04-2.05h1l.75 3.62a23 23 0 0 0 7.31 12.26c5.7 2.18 11.66 1.91 17.38-.07 4.8-3.4 7.24-7.09 8.56-12.81 1-8.16-1.56-13.34-6-20" fill="#F1D15D"/><path d="M438 178c3.81.6 6.04 2.35 9 4.75l2.56 2.05c3.54 3.19 7.21 6.59 7.64 11.52.13 7.61-.97 12.9-4.82 19.43-5.28 5-10.81 6.51-18 6.75-6.63-.24-10.22-1.4-15.02-6.11-6.03-6.61-7.86-12.58-8.36-21.39h1l.52 1.79c1.47 4.83 2.89 8.51 6.48 12.21 3.26 1.63 6.48 1.54 10 1 6.19-2.49 9.25-6.05 12-12 1.72-5.16 1.69-9.91-.44-14.88L439 180z" fill="#EBD05D"/><path d="M464 222c4.55 1.52 8.12 3.08 11 7 .25 2.75.25 2.75 0 5-3.73 2.03-5.67 3-10 3l-.38 2.88C464 243 464 243 462 245c-3.3-.33-4.62-.62-7-3-.68-2.47-1.1-4.94-1.54-7.46a80 80 0 0 0-1.34-5.92c-.12-2.62-.12-2.62 1.32-5 3.52-2.23 6.56-2.24 10.56-1.62" fill="#636362"/><path d="M523 211h1q.08 3.13.12 6.25l.08 3.52c-.19 3.06-.59 4.67-2.2 7.23h-2v2h-2v4c-3.62 1.32-6.1 2-10 2l2 6h-2v2l7.19-.44 2.04-.12c3.67-.23 7.19-.61 10.77-1.44v-2l4 1c-6.88 5.83-15.41 5.92-24.04 5.27-6.3-.87-11.02-4.07-15.15-8.75-4.17-5.7-5.97-9.71-5.87-16.77l.02-2.7.04-2.05h1l.75 3.62a23 23 0 0 0 7.31 12.26c5.7 2.18 11.66 1.91 17.38-.07 4.85-3.43 7.1-7.09 8.56-12.81.42-2.67.72-5.31 1-8" fill="#EECF64"/><path d="M720 596h2c4.31 8.98 4.43 18.47 1.3 27.88-2.73 7.55-2.73 7.55-5.3 10.12-1.8.56-1.8.56-3.88 1a29 29 0 0 0-8.12 3l1.36-2.5c6.6-12.62 10.84-25.3 12.64-39.5" fill="#E7E8E8"/><path d="M435 38a64 64 0 0 1 6.07 4c1.93 1 1.93 1 4.17.65L447 42c2 3 2 3 2.81 4.81 1.68 3.1 3.89 5.53 6.19 8.19l-2 2a139 139 0 0 1-5-5v-2l-1.69-.75c-2.71-1.47-4.91-3.33-7.31-5.25-4.26-2.49-8.16-2.81-13-2-5.11 3.44-6.55 8.24-8 14-.86 5-1.55 10.01-2.19 15.04q-.78 6.03-1.6 12.07l-.32 2.36A549 549 0 0 1 411 110c-2.34-3.51-2.14-4.37-1.69-8.44l.33-3.22L410 95l.5-6.31c.86-10.28.86-10.28 2.01-14.6.52-2.2.71-4.28.87-6.53.88-9.12 2.03-19.64 8.62-26.56 4.34-2.53 8-3.82 13-3" fill="#E0E1E2"/><path d="M856 595c3.44 1.48 5.65 3.45 8.31 6.06 13.28 12.08 30.2 19.43 47.69 22.94l2.7.6c10.63 2.03 21.51 2.06 32.3 2.4v2a91 91 0 0 1-18.62.62l-2.45-.13A92 92 0 0 1 905 626l-4.62-.94c-3.65-.78-6.23-2.02-9.38-4.06l-2.88-.94c-3.7-1.26-6.79-3.04-10.12-5.06l-2.56-1.5c-13.27-8.17-13.27-8.17-15.44-12.5a110 110 0 0 0-5-3z" fill="#EBECEC"/><path d="m663.17 254.63 2.58.93c4.43 1.43 6.95 1.59 11.25-.56l2 3-3 3c2.9 1.26 4.8 2 8 2 1.7 1.5 1.7 1.5 3 3l3-2 3 3 3-3c2 3 2 3 2 6l2.31-.12c2.7.12 2.7.12 5.7 2.12h3v3c2 2.19 2 2.19 4 4-4.45 1.48-7.38-.76-11.39-2.7a377 377 0 0 0-19.33-8.43l-1.98-.8q-3.94-1.6-7.9-3.15-2.8-1.1-5.58-2.22l-3.26-1.3c-2.79-1.52-3.55-2.44-4.57-5.4 2-1 2-1 4.17-.37" fill="#ECEDEF"/><path d="M524 461c5.48.6 9.95 2.54 14.94 4.75 9.43 4.08 18.92 7.75 28.92 10.2L571 477l1 3-2 2-2.19-1.62L565 479c-2.62.94-2.62.94-5 2l-3-2h-3v-3c-3.51-1.97-7.14-2.92-11-4l-5-2c-2.55-.75-4.3-1-7-1l-.81-1.94C529 465 529 465 526 464l-.31 2.69c-.71 3.4-1.85 5.4-3.69 8.31l-.38 2.06c-.96 2.98-3.15 4.16-5.62 5.94-1.04-2.6-1.24-4.37-.24-7.01q1.76-3.45 3.68-6.8l1.31-2.39q1.6-2.9 3.25-5.8" fill="#EDEDEF"/><path d="m514 480 3 4-2.06 2.5c-1.91 2.8-2.14 4.53-1.69 7.88L514 498c-3 2-3 2-6 2-4.84 11-4.84 11-5.31 16.94-.42 4.08-2.06 6.32-4.56 9.48-1.51 2.11-1.75 4.03-2.13 6.58l-1.5 3.38c-1.5 3.62-1.5 3.62-2 7.24A16 16 0 0 1 489 552h-2a72 72 0 0 1 3.19-14.2l.66-2.03 2.15-6.46.74-2.23A276 276 0 0 1 508 492l.97-1.98q2.45-5.04 5.03-10.02" fill="#E8E9E9"/><path d="M427 41c7.21-.75 11.28.65 17 5l2.56 1.81c5.32 4.78 9.55 9.15 11.44 16.19l2 1v3l4 1-.56 1.81C463 73 463 73 464 76h-3c-2.04-2.3-2.04-2.3-4.19-5.31l-2.17-2.99C453 65 453 65 453 62h-2l-1.31-2.31C448 57 448 57 445.5 55.5s-2.5-1.5-3.94-4c-2-3.2-4.18-3.96-7.56-5.5l-1-2h-7z" fill="#080809"/><path d="M444 186c4.9.98 6.58 1.58 10 5v4h2l.06 4.44.04 2.49C456 204 456 204 455 205q-.55 3.5-1 7h-4l-1-3-3-1 2-6h-2v-3l-2-1z" fill="#F1D260"/><path d="M736 683v1l-2.16.14q-4.82.32-9.65.67l-3.4.22-3.25.24-3 .21c-2.82.58-3.78 1.3-5.54 3.52l-2-2c-2.78-.24-2.78-.24-6.38-.23h-1.98l-6.49.03-4.5.01-11.85.05-12.08.04q-11.86.03-23.72.1v-1c31.99-1.7 63.95-3.3 96-3" fill="#EBEDEC"/><path d="M453 400h2c-.55 8.5-1.45 16.87-2.78 25.29l-.52 3.34-1.08 6.92q-.84 5.3-1.65 10.6l-1.06 6.76-.49 3.19-.47 2.97-.41 2.6A23 23 0 0 1 444 468c-1.43-2.27-2.07-3.49-1.69-6.19L443 459q.4-3.56.72-7.11C444 450 444 450 445 449q.31-3 .5-6c.39-5.89.39-5.89 1.5-7q.27-2.81.44-5.62A62 62 0 0 1 450 417c.59-4.66 1-9.3 1-14z" fill="#EAEAED"/><path d="M1002 607c-1.96 4.98-5.45 7.27-10.19 9.5q-1.9.76-3.81 1.5l-5.06 2-2.59 1.02c-2.35.98-2.35.98-5.54 2.67-3.3 1.54-6.2 1.87-9.81 2.31l-3.22 1.03c-4.08 1.05-7.73 1.14-11.9.95l-2.26-.08q-3.52-.12-7.06-.28l-4.82-.17q-5.87-.21-11.74-.45v-1l2.5-.03c30.45-.43 30.45-.43 43.5-4.97l1.97-.65a119 119 0 0 0 25.33-11.81c2.7-1.54 2.7-1.54 4.7-1.54" fill="#DEDFE1"/><path d="M810 487c2.1 2.1 2.48 3.03 3.3 5.8l.71 2.37.74 2.58.78 2.65q3 10.3 5.85 20.66l.79 2.87.73 2.67.64 2.36C824 531 824 531 824 534c-3-1-3-1-4.12-2.69-1.05-2.75-1.46-5.4-1.88-8.31q-.48-2-1-4l-.63-2.46-2.31-8.73-.8-3.1-.79-2.94-.71-2.7C811 497 811 497 809 496l1 3c-1.25 2.19-1.25 2.19-3 4h-3a154 154 0 0 1 6-16" fill="#DFE2E0"/><path d="M438 178c3.81.6 6.04 2.35 9 4.75l2.56 2.05c3.55 3.2 7.25 6.6 7.61 11.56.04 5.63-.28 10.32-2.17 15.64h-1q-.06-3.5 0-7l1-1q.34-2.27.56-4.56l.26-2.51.18-1.93h-2v-4l-1.75-.88L444 186v12l3 1-2 3h-3l-2 4h-2v4h-7l2.25-1.69c4.6-3.87 7.36-7.41 8.75-13.31.48-6.04-.3-9.61-3-15z" fill="#DCC974"/><path d="M384 207h1l.04 3.7c.48 20.22 8.52 35.67 20.96 51.3h-4a60 60 0 0 1-5.12-6.19l-1.34-1.75A36 36 0 0 1 390 244q-.95-1.89-1.94-3.75c-4.07-8.16-5.5-14.69-4.75-23.81l.19-2.77q.23-3.34.5-6.67" fill="#E3E5E3"/><path d="M614 150h3l-1.43 7.14q-.54 2.73-1.04 5.47a69 69 0 0 1-3.87 13.57c-1.97 5.4-1.85 10.3-.66 15.82l-5 4a75 75 0 0 1 2.81-24.12l.79-3.06A475 475 0 0 1 614 150" fill="#E8E8EA"/><path d="M487 552c3 1 3 1 4.12 3.25.88 2.75.88 2.75 1.38 5.31.52 2.52 1.33 4.16 2.5 6.44a770 770 0 0 1 4.66 9.91c2.28 5.26 2.7 9.38 2.34 15.09-1.52 1.75-1.52 1.75-3 3l-.01-2.42c-.27-7.62-1.71-12.93-5.36-19.59a115 115 0 0 1-4.51-9.37l-1.24-2.83c-.97-3.07-1.04-5.59-.88-8.79" fill="#EBEBED"/><path d="M604 188h1q.33 3.09.62 6.19l.36 3.48c.02 3.41-.53 5.29-1.98 8.33a220 220 0 0 0-2.69 9.75l-.75 2.94-.68 2.76c-.92 2.67-2.15 4.34-3.88 6.55.5-8.77 2.51-17.12 4.56-25.62l1-4.2z" fill="#D4D2D5"/><path d="m438 335 .52 3.59A269 269 0 0 0 445 370l-3-1c-.84-1.79-.84-1.79-1.5-4.06a98 98 0 0 0-3.19-9.13c-1.3-3.38-1.48-6.16-1.31-9.81a69 69 0 0 0-1-4q-.52-3-1-6c3-1 3-1 4-1" fill="#E1E1E3"/><path d="M443 466c2 2 2 2 2.03 3.85l-.31 2.33-.33 2.71L444 478l-.75 7.32-.81 7.8-.42 4.06L441 507h-1v-5l-2-1c-.09-4.5.25-8.57 1-13q.61-5.04 1.16-10.08c.49-4.2 1.36-7.96 2.84-11.92" fill="#E5E5E5"/><path d="M496 520h4c-.76 4.46-2.27 8.29-4.04 12.43A55 55 0 0 0 492 547c-1.44 2.94-1.44 2.94-3 5h-2c.64-6.95 2.89-13.33 5.06-19.94l1.15-3.52q1.38-4.27 2.79-8.54" fill="#DFE0E2"/><path d="M607 82c9-.46 9-.46 13 3 4.66 4.79 5.4 9.46 5.31 16q-.1 3.5-.31 7h-3l-.11-2.63C621.2 93.3 621.2 93.3 618 89c-3.55-2.86-6.46-4.47-11-5z" fill="#EDEDEF"/><path d="M579 559h1l-1 52h-1l-.08-1.71a984 984 0 0 0-.48-10.36l-.23-4.96C577 592 577 592 576 590c-.24-4.16-.19-8.33-.19-12.5l-.03-3.54-.01-3.37-.01-3.1C576 565 576 565 578 563c.62-2.12.62-2.12 1-4" fill="#D7D7D9"/><path d="M487 216h1l.75 3.62c1.63 6.45 4.89 10.51 10.25 14.38h-5v2h2v2l2.94.75L502 240a17 17 0 0 1 1 4c-7.46-2.88-11.14-7.02-15-14-1.08-3.11-1.11-5.97-1.06-9.25l.02-2.7z" fill="#E0D186"/><path d="m789 558 2 1c.12 6.75.12 6.75-1 9q.01 5.23.21 10.44c.11 5.3-.81 8.82-3.21 13.56h-1c-.23-8.01.05-15.79.94-23.75l.26-2.38c.66-5.6.66-5.6 1.8-7.87" fill="#F2F2F4"/><path d="m792 535 1 2h2l-.88 6.12-.49 3.45c-.73 3.99-1.68 7.75-3.69 11.31-1.45 3.28-1.58 6.56-1.94 10.12h-1c-.4-6.24.21-12.08 1.38-18.19l.38-2.01c.86-4.35 1.97-8.56 3.24-12.8" fill="#ECECEB"/><path d="m413 75 3 1a609 609 0 0 1-5 34c-2.34-3.51-2.14-4.37-1.69-8.44l.33-3.22L410 95l.5-6.31c1.03-12.22 1.03-12.22 2.5-13.69" fill="#E2E5E4"/><path d="m673 261 3.81 1c2.58.68 4.49 1 7.19 1 1.69 1.5 1.69 1.5 3 3l3-2c5 5.75 5 5.75 5 8-4.93-.7-9.26-2.64-13.81-4.56L673 264z" fill="#EAEBED"/><path d="M656 685v1l-3.36.18-4.39.26-2.21.12c-5.59.33-5.59.33-8.07.95-3.16.78-6.36.64-9.59.61h-2.23c-8.4-.06-16.77-.57-25.15-1.12v-1c18.34-.68 36.64-1.17 55-1" fill="#E1E3E3"/><path d="m523 634 2 1q2.81.34 5.62.56l3.04.26 2.34.18c-3.66 2.29-7.3 2.44-11.5 2.62l-2.13.12c-6.12.31-12.24.36-18.37.26l1-3 1.81.62C509 637 509 637 512 635c2.45-.16 2.45-.16 5.12-.06q2.44.08 4.88.06z" fill="#F2F3F6"/><path d="M795 654c4.46-.67 6.74.22 10.25 2.81 2.54 2 3.93 3.45 5.75 6.19-.19 2.76-.85 3.84-2.74 5.89l-2.14 1.8-2.11 1.82c-3.87 2.87-7.36 2.58-12.01 2.49a50 50 0 0 1 8.06-3.38c2.53-.94 3.95-1.63 6-3.43.94-2.19.94-2.19 1.32-5.13-2.05-4.56-5.52-5.36-10.01-7.18L795 655z" fill="#E4E5E5"/><path d="M516 199c7.24.34 11.92 2.1 18 6l-4 1v-2h-2l-1.5 2-1.5 2h-2l-1 2-.8-1.64-1.08-2.17-1.05-2.15C518 202 518 202 516 199" fill="#D9C367"/><path d="M1024 542c2.31 1 2.31 1 4 2h3l1 4-3 1-2.19-1.44c-3.65-2.03-6.77-2.15-10.81-1.56q-2.18.71-4.31 1.56C1008 549 1008 549 1005 548c11.43-7.06 11.43-7.06 19-6" fill="#E9E9EC"/><path d="m916 626 31 1v2a94 94 0 0 1-18.88.62l-2.54-.13c-3.45-.2-6.28-.39-9.58-1.49z" fill="#F0F1F0"/><path d="M523 211h1q.08 3.13.12 6.25l.08 3.52c-.19 3.06-.59 4.67-2.2 7.23h-2v2h-2v4c-5.76 2.65-10.91 1.8-17 1v-1l2.45-.3c11.15-1.56 11.15-1.56 14.55-5.7 3.18-5.53 4.54-10.68 5-17" fill="#CAB462"/><path d="m1020 591 1 3h-2l-.79 1.78c-2.82 5.19-7.89 9.71-13.21 12.22h-3c1.17-3.51 2.14-4.11 5.06-6.25 4.51-3.39 8.75-6.99 12.94-10.75" fill="#E9EAEC"/><path d="M438 502h2c.29 10.22-.53 19.91-2 30h-1l-.56-8.94-.17-2.57-.15-2.45-.14-2.27C436 514 436 514 437 513c.07-2.3 0-4.58-.06-6.87C437 504 437 504 438 502" fill="#EEEFF2"/><path d="m935 579 1.76.22c4.44.53 8.76.89 13.24.78l1 2c-5.62 1.92-10.52 2.25-16.44 2.12l-2.5-.02-6.06-.1v-1l8-1z" fill="#DCDCDE"/><path d="M443 588a34 34 0 0 1 3.69 7.19c1.93 4.49 4.55 7.67 7.92 11.18C456 608 456 608 456 610c-3.09-.3-3.97-.96-6.07-3.33l-2.05-2.92-2.08-2.89c-4-6.35-4-6.35-3.42-10.67z" fill="#DDDEDF"/><path d="M821 534h4l2 5.62 1.12 3.17A28 28 0 0 1 829 552c-3.93-2.62-3.82-4.5-5-9a128 128 0 0 0-1.62-3.81C821 536 821 536 821 534" fill="#E4E3E9"/><path d="M411 195h1l.52 1.79c2.74 8.97 2.74 8.97 6.48 12.21 2.96.97 5.91 1.56 9 2v1h-8l-1 4c-5.77-6.77-7.5-12.28-8-21" fill="#E2DA93"/><path d="M420 216h4v2h4v2l6.62-.44 3.73-.24c3.27-.29 6.43-.73 9.65-1.32-1 2-1 2-3.66 3.1-6.59 1.77-14.44 2.43-20.59-.98C421 218 421 218 420 216" fill="#DAC87A"/><path d="m440 565 1 3h2v22h-2a43 43 0 0 1-1.1-9.86l.01-2.69.03-2.76.01-2.82z" fill="#E5E6E8"/><path d="M535 207c5.93 5.78 5.93 5.78 6.13 9.24l-.01 2.64.01 2.61A27 27 0 0 1 540 228h-2l-.18-2.92-.26-3.83-.24-3.8c-.48-5.15-.48-5.15-1.32-7.45l-2-1z" fill="#F1DC6B"/><path d="M829 548c3.09 3.65 4.81 7.71 6.69 12.06l.97 2.18c1.33 3.07 2.34 5.38 2.34 8.76-5.51-4.41-7.98-10.33-10-17-.14-3.38-.14-3.38 0-6" fill="#DDDDE0"/><path d="M453 400h2c-.96 13.63-.96 13.63-2 20h-3c-.1-4.79.27-9.27 1-14v-3z" fill="#E9E9EA"/><path d="m528 240 4 1c-5.56 4.7-11.26 5.33-18.25 5.25l-2.18.02c-5.32-.02-5.32-.02-7.57-2.27l3.98-.18 5.21-.26 2.62-.12c4.15-.2 8.14-.44 12.19-1.44z" fill="#DFCA76"/><path d="M797 524h3c.2 3.72.15 4.77-2 8q-1.05 2.99-2 6l-3-1c1.2-10.2 1.2-10.2 4-13" fill="#EEEFF2"/><path d="M960 625v2c-4.18 1.04-7.98 1.04-12.27.88l-2.06-.07-6.48-.25-4.41-.16q-5.4-.18-10.78-.4v-1l12.49-.43 4.24-.14 6.12-.21 3.71-.13q4.72-.12 9.44-.09" fill="#C4C7C5"/><path d="M434 315c4.36 4.36 3.05 13.32 3.06 19.19q-.01 2.4-.06 4.81l-1-3-2-1 .06-2.94c.02-3.7-.41-7.28-.94-10.95A16 16 0 0 1 434 315" fill="#F2F2F4"/><path d="M408 120h1c.34 5.98-.58 10.76-2.34 16.48C406 139 406 139 406 143l-5 1c1.39-4.81 2.79-9.59 4.62-14.25A42 42 0 0 0 408 120" fill="#1F2122"/><path d="M560 474q2.73.63 5.44 1.31l3.06.74 2.5.95 1 3-2 2-2.19-1.62c-2.81-1.38-2.81-1.38-5.62-.57L560 481l-2-3z" fill="#E6E6E9"/><path d="m456 609 2.38.84c5.55 1.91 10.76 3.63 16.62 4.16-1.19 1.5-1.19 1.5-3 3-4.23.47-7.03-.68-10.81-2.5l-2.96-1.41L456 612z" fill="#F1F2F5"/><path d="M497 576h2c2.91 5.43 3.39 9.89 3 16-1.52 1.75-1.52 1.75-3 3l-.18-2.63-.26-3.49-.24-3.45c-.3-3.18-.75-6.29-1.32-9.43" fill="#F2F2F4"/><path d="M520 205c2.79 2.79 3.18 5.32 3.31 9.12-.02 5.26-1.88 9.3-4.31 13.88-1-3-1-3-.06-5.88 1.78-5.52 1.22-11.38 1.06-17.12" fill="#251907"/><path d="M384 207h1l.11 3.84.27 7.62c.26 5.95 1.45 11 3.62 16.54-3-1-3-1-4.71-3.91-1.88-4.82-1.39-9.46-.98-14.53l.19-2.79q.23-3.38.5-6.77" fill="#D2D3D3"/><path d="m538.13 106.81 3.75.58c3.13.61 3.13.61 5.13 1.61v2c-7.1.41-13.2-1.1-20-3 3.8-2.57 6.73-1.9 11.12-1.19" fill="#DDDEDF"/><path d="m445 449 2 1c.23 6.28-.6 11.88-2 18-1.52-1.86-1.52-1.86-3-4 .25-2.19.25-2.19 1-5q.4-3.56.72-7.11C444 450 444 450 445 449" fill="#EEEEF0"/><path d="M431 212h-2l-1 6h-4v-2h-4v-4c7.62-1.12 7.62-1.12 11 0" fill="#F1E170"/><path d="M429 176c-6 4-6 4-11 4v2a169 169 0 0 1-6 5c.53-3.81 1.31-6.21 4-9 4.28-2.45 8.2-2.16 13-2" fill="#040709"/><path d="M621 103h1c1.77 6.64 2.49 11.49 0 18l-3 1z" fill="#E7E6EB"/><path d="M632 239c1.5 1.38 1.5 1.38 3 3v2l1 3c-4.78-.47-8.04-1.24-12-4l1.75-.31c2.57-.79 4.19-2 6.25-3.69" fill="#EBEBED"/><path d="M428 206h8c-2.68 2.95-4.94 4.88-9.04 5.12q-2.97 0-5.96-.12l-1-3h8z" fill="#241D09"/><path d="M440 182c2 1 2 1 2.62 2.56.93 6.01.64 10.8-1.62 16.44l-2-1z" fill="#2E210A"/><path d="m389 661-1.68.8-2.2 1.08-2.17 1.05C381 665 381 665 379 667c-.12 3.12-.12 3.12 0 6l-4-1c-.38-2.75-.38-2.75 0-6 3.52-3.02 9.36-7.32 14-5" fill="#D1D3D4"/><path d="m494 234 14 1v1l-5 1v3c-4.75-.88-4.75-.88-7-2v-2h-2z" fill="#EED771"/><path d="M1031 545c6.01 5.53 6.01 5.53 7 10a99 99 0 0 1-1 10h-1l-.11-1.79c-.4-4.78-.85-8.31-3.89-12.21l-2-1z" fill="#E3E3E5"/><path d="m611 235 5.19 1.88 2.92 1.05q3.97 1.47 7.89 3.07l-3 2c-5.23-1.24-10.12-3.77-15-6z" fill="#DCDEDE"/><path d="m392 166 2 1-.88 5.81-.49 3.27C392 179 392 179 390 182c-1.5-3.49-2.15-5.38-1.25-9.12A90 90 0 0 1 392 166" fill="#E0E1E1"/><path d="m622 91 3 1v16h-3z" fill="#F3F3F6"/><path d="m902 622 19 3v1c-6 1.77-9.96 2.3-16 0l-3-1z" fill="#DFE1E3"/><path d="M1007 550a620 620 0 0 1-15 11l1-5 3-1 1.44-1.94c2.89-3.82 5.1-4.35 9.56-3.06" fill="#E1E1E4"/><path d="m440 488 2 1c.1 6.11-.23 11.93-1 18h-1v-5l-2-1c-.19-4.82.24-8.5 2-13" fill="#D8D9DA"/><path d="m514 480 3 4c-5.15 7.81-5.15 7.81-7 10h-2c1.49-4.97 3.6-9.42 6-14" fill="#E1E2E5"/><path d="M541 225h1v9h-2l1 5c-1.81.62-1.81.62-4 1l-3-2 1.81-2c2.61-3.58 3.77-6.81 5.19-11" fill="#241F15"/><path d="M512 101c4.75.48 8.62 1.04 13 3q3 1.02 6 2v1a36.4 36.4 0 0 1-19-4z" fill="#ECEEED"/><path d="M415 61h2c.23 6.28-.6 11.88-2 18h-1q-.3-2.62-.56-5.25l-.32-2.95c-.16-3.7.72-6.31 1.88-9.8" fill="#ECEDEE"/><path d="m438 551 2 1c.48 2.71.84 5.34 1.12 8.06l.27 2.3.61 5.64-3-1q-.55-2.6-1.06-5.19l-.6-2.92c-.34-2.93-.08-5.05.66-7.89" fill="#D7D8D8"/><path d="m780 613 4 1-.88 2.06A108 108 0 0 0 780 626h-2l-1 3-1-2 2-5a212 212 0 0 0 2-9" fill="#E3E3E5"/><path d="M720 596h2c2.6 3.9 2.15 7.47 2 12l-4-1z" fill="#D5D5D6"/><path d="m991 558 1 4-4.88 4-2.74 2.25C982 570 982 570 980 570c.38-2.67.76-3.78 2.78-5.63l2.16-1.49A43 43 0 0 0 991 558" fill="#E4E3E6"/><path d="M599 209c2.63 4.48 2.08 8.06 1 13-1.56 3.56-1.56 3.56-3 6-1.56-4.02-.46-7.7.44-11.75l.44-2.11z" fill="#CED1CD"/><path d="M436 304h1v24h-1l-.18-2.16-.26-2.9-.26-3.05c-.3-2.89-.3-2.89-.99-6.7-.35-3.61.31-5.87 1.69-9.19" fill="#D7D8D8"/><path d="m413 75 3 1-2 16c-2.94-5.87-3.25-9.52-2-16z" fill="#C9CACA"/><path d="M447 45a94 94 0 0 1 9 10l-2 2a139 139 0 0 1-5-5v-2l-4-2v-2z" fill="#DBDCDF"/><path d="m800 512 1.38 1.94C803 516 803 516 805 517l-1.88.69c-2.74 1.69-2.99 3.36-4.12 6.31l-3 1 2.25-8.4c.75-2.6.75-2.6 1.75-4.6" fill="#D9DADA"/><path d="M457 196h1v9h2v3h-2l-2 7h-3l.62-1.87A75 75 0 0 0 457 196" fill="#2B250A"/><path d="M451 186h3v2h2v2h2v4h2c.2 6.05.2 6.05 0 8l-2 2-.3-1.98c-.97-5.69-2.16-9.46-5.7-14.02z" fill="#1A1304"/><path d="m457 60 12 12-3 2-.75-2.44L464 69c-2.06-.62-2.06-.62-4-1l-1-3-2 1c-1.12-3.75-1.12-3.75 0-6" fill="#141416"/><path d="m513 492 1 6-3 2-4-2v-4c3.75-2 3.75-2 6-2" fill="#EFF1F2"/><path d="M384 202h1l-1 19c-2.49-2.49-2.26-4-2.27-7.41l.02-2.09-.02-2.09c.02-5.16.02-5.16 2.27-7.41" fill="#F0F2F1"/><path d="M858 507h2q1.05 3.18 2.06 6.38l1.16 3.58C864 520 864 520 863 522l-2-1q-.61-3.49-1-7h-2c-1.12-4.75-1.12-4.75 0-7" fill="#1F2224"/><path d="m843 449 3 1c.91 2.21.91 2.21 1.62 4.94 1.34 4.97 1.34 4.97 2.38 7.06h-2l-1 2a1189 1189 0 0 1-3.12-9.96C843 451 843 451 843 449" fill="#DFE0E2"/><path d="m636 636 2 2-.91 1.71c-1.44 3.03-2.34 6.15-3.31 9.36C633 651 633 651 631 652l.4-1.76c.81-3.58 1.58-7.1 2.1-10.74l.5-2.5z" fill="#CECFCF"/><path d="M512 101v2l2 1a189 189 0 0 1-18-3v-1c5.69-1.5 10.42-.33 16 1" fill="#D9D9DB"/><path d="M856 595c4.27 1.58 6.27 4.51 9 8l-2 2-1.19-1.81c-2.02-2.45-4.04-3.69-6.81-5.19z" fill="#EFEFF1"/><path d="M820 520a29 29 0 0 1 3.12 9.25l.51 2.7.37 2.05c-3-1-3-1-4.21-2.77-.92-2.61-.82-4.25-.41-6.98l.33-2.42z" fill="#D6D8D9"/><path d="M533 239c.93 3.01 1.04 3.87 0 7h-11c3-2 3-2 6.06-3.5C531 241 531 241 533 239" fill="#302711"/><path d="M704 684h16v1l-3.81.31c-2.79.34-3.93.49-6.19 2.25l-1 1.44c-2.5-1.38-2.5-1.38-5-3z" fill="#F3F2F7"/><path d="m516 199 9 1-3 1v5h2l-2 4-.8-1.64-1.08-2.17-1.05-2.15C518 202 518 202 516 199" fill="#CBC076"/><path d="M496 241c3.91 1.16 6.87 2.36 10 5l-1 2a85 85 0 0 1-7-2v-3h-2z" fill="#1E160D"/><path d="M788 550h2c.98 4.31 1.03 6.16-1 10-.47 2.66-.73 5.31-1 8h-1c-.11-6.11.1-11.95 1-18" fill="#C9CAC9"/><path d="M491 541c1.29 3.88.65 5.63-1.06 9.25L489 552h-2c.44-4.56.85-7.58 4-11" fill="#E1E2E1"/><path d="M580 508h2v10l-3-1c-.81-2.91-1.22-4.46-.06-7.31z" fill="#F6F6F9"/><path d="M513 196c9.41.96 9.41.96 14 2v2h2l-1 2-3-1.44c-3.99-1.73-7.68-2.18-12-2.56z" fill="#141305"/><path d="M393 170c1.8 2.66 2.03 3.78 1.54 7.02l-.92 3.23-.89 3.27L392 186l-2-1 .94-5.81.52-3.27C392 173 392 173 393 170" fill="#161919"/><path d="M772 639c1.97 2.95 2.39 4.6 3 8l1 2-6-1z" fill="#E3E2E8"/><path d="M573 622h2l-1 12-4-1 .94-4.38.52-2.46C572 624 572 624 573 622" fill="#F4F3F3"/><path d="M787 580h3c-.86 8.57-.86 8.57-3 12h-1z" fill="#F2F3F8"/><path d="m577 486 3 2c.69 3.62.69 3.62 1 7l-2 1c-3.08-4.31-3.08-4.31-2.69-7.81z" fill="#EBECEB"/><path d="M453 390c2.06 2.12 2.06 2.12 4 5-.25 3.31-.25 3.31-1 6-2-1-2-1-3.19-3.81-.77-3.05-.91-4.33.19-7.19" fill="#DDDDDF"/><path d="m447 384 5 2 1 7c-4.69-3.52-4.69-3.52-6-5z" fill="#EDEDF0"/><path d="M441 357a30 30 0 0 1 3.12 8.75l.51 2.42.37 1.83c-3-1-3-1-4.02-2.71-2.16-5.73-2.16-5.73-1.17-8.79z" fill="#D2D2D2"/><path d="m514 228 4 1c-3.29 2.91-5.6 4.5-10 5v-4l6-1z" fill="#231709"/><path d="M603 201c1.35 4.05.62 6.79 0 11l-3 1c-.3-5.02.01-7.9 3-12" fill="#EDEDEF"/><path d="M463 65c3.15.7 6.03 1.76 9 3v3c-2.25.25-2.25.25-5 0-2.31-1.88-2.31-1.88-4-4z" fill="#EFEEF1"/><path d="M889 569c3.69.5 5.6 1.1 8 4l-4 2-1-3-3 1z" fill="#191B1C"/><path d="m449 420 3 1-1 12c-1.99-3.98-3.4-6.88-2.56-11.31z" fill="#DADBDE"/><path d="M535 207c4 3.49 5.63 5.65 6 11l-1-2h-2l-2-2v-4l-2-1z" fill="#D6C56D"/><path d="m607 187 3 4-5 5v-8z" fill="#F3F1F6"/><path d="M438 178c4.25.47 6.2 2.97 9 6h-4l-1 3-1.44-3.38q-1.2-2.85-2.56-5.62" fill="#C6BB7D"/><path d="M795 654c3.25-.49 5.35-.4 8.18 1.34q2.98 2.24 5.82 4.66l-1 2-1.57-1.02c-3.72-2.38-7.23-4.54-11.43-5.98z" fill="#E6E6E7"/><path d="m443 466 2 2c-.02 2.38-.02 2.38-.38 5.12l-.33 2.76L444 478c-2-3-2-3-3-6 .94-3.19.94-3.19 2-6" fill="#DADADC"/><path d="m455 236 2 3a29 29 0 0 0 4 2l-1 2 2 2c-4.75-.75-4.75-.75-7-3-.12-3.12-.12-3.12 0-6" fill="#525155"/><path d="M523 211h1q.08 3.13.12 6.25l.08 3.52c-.19 3.06-.59 4.67-2.2 7.23l-2-1z" fill="#D6BE7A"/><path d="m440 201 1 2-1 3h-2v4h-7l2.25-1.69A41 41 0 0 0 440 201" fill="#CFC278"/><path d="M513 198h8l1 2h-5l1.06 1.88.94 2.12-1 2h-2v-3l-2-2 1-2z" fill="#343321"/><path d="m633 633 7 1c-1.31 1.5-1.31 1.5-3 3h-3v6h-1z" fill="#B1B3B2"/><path d="M494 236h2v2l2.94.75L502 240c.69 2.08.69 2.08 1 4q-1.98-.85-3.94-1.75l-2.21-.98c-1.85-1.27-1.85-1.27-2.6-3.41z" fill="#D5BF75"/><path d="M826 543h2l1 9c-3-2-3-2-3.75-5.06L825 544z" fill="#ECECF2"/><path d="M867 531a66 66 0 0 1 4.12 7.06l1.08 2.1c.8 1.84.8 1.84.8 3.84-3-1-3-1-5-4-.41-2.26-.41-2.26-.62-4.69l-.23-2.45z" fill="#202022"/><path d="M848 462c2.33 2.12 3.89 4.03 5 7l-1 3h-2c-1.6-3.51-2.22-6.14-2-10" fill="#EDEFEF"/><path d="M673 261c3.78 1.09 6.47 1.91 9 5l-2 1a135 135 0 0 1-7-3z" fill="#DFE1E1"/><path d="m676 255 3 3-3 3c-3-1-3-1-5-4z" fill="#F2F3F4"/><path d="M615 141c1.62 1.69 1.62 1.69 3 4-.81 2.75-.81 2.75-2 5h-2l-1 3a168 168 0 0 1 2-12" fill="#DBDCDB"/><path d="m807 661 4 2c-.57 2.87-.86 3.86-3 6l-3-1 1-1.81c1-2.19 1-2.19 1-5.19" fill="#DBDCDA"/><path d="M978 621c-2.6 2.13-4.63 3.55-8 4l-2-1v-2c3.21-1.61 6.44-1.06 10-1" fill="#E9EAE9"/><path d="M854 590c5.75 1.88 5.75 1.88 8 3l-2 4c-4.88-3.62-4.88-3.62-6-7" fill="#1B1B1E"/><path d="m792 535 1 2h2a93 93 0 0 1-4 9c-1.6-4-.29-7.05 1-11" fill="#D9DBDA"/><path d="m866 527 4 1a31 31 0 0 1 2 6h-2l-1 2z" fill="#E2E4E5"/><path d="M453 400h2v6h-2v3h-2l.5-2.31c.5-2.69.5-2.69.5-5.69z" fill="#F0F0F2"/><path d="M488 233h3c1.69 2.5 1.69 2.5 3 5q-2.49.57-5 1c-1-1-1-1-1.06-3.56z" fill="#261D13"/><path d="M616 86c2.38.25 2.38.25 5 1 1.44 1.81 1.44 1.81 2 4-.88 2.25-.88 2.25-2 4l-1.38-2.81C618 89 618 89 616 86" fill="#D9D9DA"/><path d="m762 664 .38 1.94.62 2.06 2 1c-2.35 1.43-3.48 2.09-6.25 1.62L757 670z" fill="#B5B5B7"/><path d="m480 612 1 4-13-2v-1l4.31-.5 2.43-.28C477 612 477 612 480 612" fill="#D9DADC"/><path d="M692.69 268.31q1.14.83 2.3 1.7v2a62 62 0 0 1-8-2v-2c3-1 3-1 5.7.3" fill="#DEDEE3"/><path d="M487 216h1l1.46 5.96q.69 2.54 1.54 5.04h-2l-1 3c-.94-3.16-1.11-5.97-1.06-9.25l.02-2.7z" fill="#BCBE90"/><path d="M411 195h1l4 12-2 2c-2.04-4.93-3.41-8.58-3-14" fill="#B2AF8E"/><path d="M389 185c1.45 2.34 2.04 3.58 1.76 6.36l-.64 2.39-.61 2.42L389 198h-2q.9-6.51 2-13" fill="#2A2A2D"/><path d="m709 636 2 2c-1.31 1.5-1.31 1.5-3 3h-3l-2 4c0-3 0-3 1-5h2v-2z" fill="#080908"/><path d="m481 611 5 1-2 4-4-2z" fill="#EFEFF2"/><path d="m787 573 1 4h2l-3 9h-1c-.08-4.52-.1-8.59 1-13" fill="#E2E3E6"/><path d="M446 376h2l3 9-2 1c-3-6.62-3-6.62-3-10" fill="#DADBDD"/><path d="m537 208 5 1v9z" fill="#251C07"/><path d="M428 206h8c-2.05 2.25-3.01 3-6 4l-2-1z" fill="#1C1307"/><path d="m609 169 3 4c-.62 2.69-.62 2.69-2 5l-3 1z" fill="#E1E2E0"/><path d="M417 68c2 1.75 2 1.75 4 4v4l-4-1z" fill="#0B0B0C"/><path d="M658 574c3.37 1.44 5.51 3.33 8 6h-2l-1 2v-3l-1.94-.81C659 577 659 577 658 574" fill="#DEDFDE"/><path d="m491 535 4 1c-3.75 5.88-3.75 5.88-6 7z" fill="#CED0D1"/><path d="M506 496c2 4 2 4 1.31 6.19C506 504 506 504 503 505z" fill="#DBDED9"/><path d="M848 470h2l2 10c-2-1.62-2-1.62-4-4-.25-3.25-.25-3.25 0-6" fill="#1A1B1C"/><path d="M447 442h2l-1 10c-2-2-2-2-2.19-5.56C446 443 446 443 447 442" fill="#DCDCDD"/><path d="M636 246c3.01.39 4.4 1.26 7 3v2l-9-3z" fill="#DCDDDF"/><path d="M541 225h1v9l-4 1z" fill="#32240F"/><path d="m780 613 4 1c-.81 2.44-.81 2.44-2 5l-3 1z" fill="#D6D7D5"/><path d="m456 609 8 3c-1.69 1.19-1.69 1.19-4 2-2.75-1.38-2.75-1.38-5-3z" fill="#E9E9EB"/><path d="M443 588c1.95 2.92 2.45 4.63 3 8h-3c-1.12-5.75-1.12-5.75 0-8" fill="#D6D6D9"/><path d="M1016 545c7.38-.37 7.38-.37 10.5 1.5l1.5 1.5h-4l-1 2-1-3-6-1z" fill="#424245"/><path d="m1027 544-1 2-10-1v-1c4.47-1.87 6.66-2.3 11 0" fill="#F2F2F7"/><path d="m425.56 213.94 2.44.06v4h-4v-2l-2-1c1-1 1-1 3.56-1.06" fill="#EFD668"/><path d="M620 110h1l1 11-3 1z" fill="#CDCBCD"/><path d="M430.75 39.38q1.2.15 2.42.34l1.83.27v1q-2.69.6-5.37 1.13l-3.03.64-2.6.23-2-2c3.17-1.9 5.11-2.16 8.75-1.62" fill="#CFCFD3"/><path d="m630 648 1 2a107 107 0 0 1-4 5h-2c.4-2.89.79-3.82 3.06-5.75z" fill="#0A0B0C"/><path d="M918 580c5.45.45 5.45.45 8 3l-10-1z" fill="#DADADC"/><path d="M495 569c2.22 2.22 2.93 4.08 4 7l-3 1c-1.43-2.35-2.09-3.48-1.62-6.25z" fill="#E4E4E6"/><path d="m999 556-7 5 1-5c3-1 3-1 6 0" fill="#D7D8D9"/><path d="m580 475 3 2-2 4-3-2v-3z" fill="#080A0B"/><path d="m409 195 2 1v7l-3-2c-.25-2.56-.25-2.56 0-5z" fill="#080C04"/><path d="M614 150h3l-2 7h-2z" fill="#F2F1F5"/><path d="m578 96 4 2-8 4 2-4h2z" fill="#DEDEE0"/><path d="m572 97 3 3-2 3-3-1c.88-3.88.88-3.88 2-5" fill="#EEEEF0"/><path d="M474 78c1.94.31 1.94.31 4 1l1 3 2 1-3 1c-4-4.88-4-4.88-4-6" fill="#DDDDE1"/><path d="m874 609 6 3-3 3-4-5z" fill="#DDE0DD"/><path d="m1036 553 2 2c-.02 2.38-.02 2.38-.38 5.12l-.33 2.76-.29 2.12h-1l-.56-5.44-.32-3.06-.12-2.5z" fill="#D4D5D6"/><path d="m804 509 2 1-3 7c-2-3-2-3-2-6z" fill="#F1F1F3"/><path d="M566 477h5l1 3-2 2z" fill="#F1F1F4"/><path d="m818 396 3 1 1 5-3 1z" fill="#E9EBEC"/><path d="m817 390 2 2c-.38 3.62-.38 3.62-1 7-1.62-2.57-2.04-3.68-1.62-6.75z" fill="#D1D3D2"/><path d="M529 202h5v2h2l1 4-4-2.44-2.25-1.37L529 203z" fill="#2D2309"/><path d="m618 134 2 2-2 7h-2c.88-6.75.88-6.75 2-9" fill="#F1F3F7"/><path d="M406 122h2l-1 8-3-4z" fill="#E0E0E2"/><path d="m537 107-2 2c-2.73-.03-5.3-.56-8-1 3.58-2.34 5.92-1.93 10-1" fill="#CDD0CE"/></svg>