<svg style="background:transparent" version="1.1" xmlns="http://www.w3.org/2000/svg" viewBox="0 0 1248 704"><path d="m530.44 19.75 4.96 3.98c3.2 2.54 6.55 4.9 9.87 7.29q5.4 3.95 10.73 7.98l4 3 9.97 7.48a316 316 0 0 0 6.53 4.77l2.03 1.45L580 57v2c3.6.85 6.76 1.06 10.44.88l3.39-.15 3.73-.17q15.9-.63 31.8-.52l3.53.01q8.79.06 17.58.16l6.56.05 3.04.05c7.14.03 12.84-.92 18.25-6C681 51 681 51 683 51l.69-1.81c1.7-2.83 3.43-3.56 6.3-5.19 3.67-2.61 7.23-5.33 10.64-8.25C703 34 703 34 706.19 33l2.8-1c.14-.29.14-.29.76-1.74 1.89-3.41 4.93-5.22 8.07-7.39l1.86-1.33A42 42 0 0 1 730 16q1.95-1 3.88-2.06c3.74-1.87 6.88-2.86 11.12-2.94a35 35 0 0 1 7 3l2.69 1.37c5.64 3.97 7.79 9.11 9.3 15.63.37 3.99.34 7.93.26 11.94l-.01 3.15c-.08 7.6-.08 7.6-1.24 9.91q-.23 3.94-.31 7.87l-.07 2.39-.12 5.04q-.09 3.8-.2 7.59c-.2 7.88-.35 15.74-.26 23.62a99 99 0 0 1-.82 10.33c-.5 4.99-.21 10.06-.2 15.07l.03 27.54.03 16.66.02 16.12v6.14l.02 8.59v2.56c0 6.03-.74 10.9-3.12 16.48l-.87 2.31C753.4 233.21 749.48 240 741 245q-1.8 2.17-3.54 4.38a37 37 0 0 1-11.52 8.6c-2.16 1.14-3.48 2.05-4.94 4.02-.47 7.5 2.25 14.35 5.22 21.08a77 77 0 0 1 2.22 6.48c1.28 3.97 3.1 7.04 5.56 10.44q1.04 1.99 2 4l1 2.09 3.44 7.22 1.2 2.52q3.34 7.01 6.36 14.17l1 2.37a263 263 0 0 1 6.25 19.17q1.07 3.46 2.25 6.9a170 170 0 0 1 8.22 40.75q.32 3.1.8 6.17c.5 3.83.62 7.52.6 11.39l.02 3.92C767 424 767 424 766 427v2.94c0 2.68-.36 4.51-1 7.06v3.06c0 2.94 0 2.94-1 5.94q-.77 3.46-1.5 6.94C762 455 762 455 761 457l2.09-.66c13.63-4.04 23.48-2.02 35.9 4.66l-.87-1.84a254 254 0 0 1-7.37-17.53l-.78-2.06A56 56 0 0 1 787 429l-.54-2.64c-.64-4.71-.72-9.36-.77-14.11l-.1-2.84a35 35 0 0 1 3.45-16.23c.9-2.06 1.43-4 1.96-6.18a80 80 0 0 1 2.88-4.44c1.66-2.41 3.26-4.79 4.75-7.31 5.43-8.89 14.12-15.13 22.37-21.25l1.79-1.37c6.6-4.65 14.53-6.48 22.2-8.63l2.49-.72c21.26-5.53 45.26-1.29 64.52 8.72l2.4 1.23c8.9 4.9 17.68 12.21 21.6 21.77 1.05 4.6 1.38 8.53.19 13.13-3.71 4.87-7.8 9.99-14.11 11.25-7.3.69-14.1-.19-21.08-2.38l-5.37-1.44c-3.45-.93-6.82-1.94-10.2-3.12-10.24-3.47-20.01-4.98-30.43-1.44l-3.12.94c-5.33 1.97-7.85 3.56-10.56 8.62-4.41 9.57-5.31 18.53-2.38 28.69L840 432l2 6c2.59 7.6 5.8 14.7 9.39 21.88 5.4 10.89 9.77 21.28 12.22 33.21q.52 2.47 1.12 4.93c1.82 8.16 1.68 16.65 1.27 24.98l-1 1q-.23 2.28-.37 4.56c-.47 4.97-1.67 8.89-3.63 13.44l-1.06 2.74C857 552.16 853.67 559.49 849 566l-3 1-.87 2.31c-1.41 3.36-3.26 4.52-6.13 6.69l-1.37 2c-1.91 2.34-4.02 3.39-6.66 4.79-3.01 1.85-5.45 4.27-7.98 6.72-2.34 1.75-4.13 2.04-7 2.49l-2.67 1.37c-3.54 1.74-6.98 2.8-10.75 3.88q-3.53 1.05-7.01 2.31c-4.26 1.48-8.5 2.11-12.98 2.62-3.53 1.12-5.11 3.1-7.58 5.82l-2.43 2.39c-3.83 3.8-7.6 7.56-11.01 11.74-4.13 4.86-9.31 8.3-14.56 11.87 2.38 2.51 4.49 4.71 7.5 6.44 5.23 3.27 8.05 7.65 9.5 13.56 1.48 6.76.6 11.19-2.81 17.19-5.61 5.95-14.12 6.82-21.87 7.12-8.75.15-16.88.19-25.32-2.31l-3.62-1.07-3.38-1.06-3.44-1.07-2.56-.8-1 1 1.9 1.54 2.48 2.09 2.46 2.03c3.89 4.21 4.53 9.45 5.48 14.97l.6 3.35c.08 3.02.08 3.02-.98 5.18-2.86 2.72-5 2.32-8.9 2.29l-2.12.01q-3.48-.02-6.96-.07l-4.83-.02q-6.36-.02-12.71-.1-6.48-.05-12.97-.07-12.73-.08-25.45-.2c-4.42-8.71-7.74-19.15-7-29l1-2 1-6 1-3h-15l.5 4.56c.42 4.17.59 8.25.5 12.44q0 2.81.13 5.63c-.26 6.82-1.15 12.39-6.13 17.37-3.25.6-3.25.6-7.15.57h-2.16q-3.53-.01-7.05-.08l-4.9-.02q-6.42-.04-12.85-.13l-13.13-.1q-12.89-.08-25.76-.24c-1.93-3.59-2.38-5.88-2-10q1.27-3.3 2.75-6.5c2.4-5.88 2.4-5.88 1.69-8.68-1.12-1.63-1.12-1.63-3.44-3.82l-3.17.98c-6 1.49-12 1.35-18.14 1.33l-3.51.05c-17.3.01-17.3.01-23.43-5.32-2.03-2.37-2.5-3.92-3-6.98l-.45-2.52c-.76-6.46.45-10.16 4.08-15.6A66 66 0 0 1 504 636h2a118 118 0 0 0-10.64-9.67L494 625v-2l-2.12-.56c-3.4-1.7-4.9-3.64-7.23-6.55a39 39 0 0 0-5.27-4.89c-12.52-10.72-22.03-25.96-28.38-41l-3.06-5.81a45 45 0 0 1-4.58-13.96C443 548 443 548 442 544.5a130 130 0 0 1-4-21.5l-.28-1.97c-1.17-8.72-1.78-18.44.28-27.03l.8-3.45c1.87-7.47 3.92-14.08 8.2-20.55l1.12-1.89c4.4-6.98 11.59-11.33 19.43-13.65 7.67-1.45 15.04-.74 22.45 1.54-.46-3.47-.9-6.67-2-10-1.1-6.5-1.58-13.06-2.12-19.63l-.3-3.39-.27-3.27q-.14-1.46-.25-2.96c-.06-2.76.34-5.07.94-7.75q.03-2.62-.06-5.25c-.05-4.53.5-8.45 1.62-12.82.44-1.93.44-1.93.44-4.62 0-3.05.99-5.45 2-8.31q.78-3.69 1.43-7.39c.85-4.59 1.9-8.8 3.65-13.14 1.56-4.19 2.82-8.47 4.12-12.75 1.12-3.65 2.36-7.19 3.8-10.72l.96-2.97c1.03-3 2.28-5.7 3.73-8.53l1.6-3.14 1.7-3.36 2.68-5.38a226 226 0 0 1 8.39-15.66c1.1-2.29 1.45-4.47 1.94-6.96.94-1.88.94-1.88 2-3.56 1.65-2.84 2.34-4.39 3-7.44l1.06-3.75c1.04-4.37 1.59-7.76.94-12.25-3.22-4.01-7.63-6.4-12-9l-4-4-2.5-1.44c-2.9-1.81-4.56-3.76-6.5-6.56v-2l-1.8-.64c-3.01-1.86-3.81-3.93-5.32-7.11l-1.51-3.11c-5.68-13.05-5.63-25.95-5.53-39.91l.02-5.78q.01-7.59.06-15.18.07-12.09.1-24.17l.04-8.32q.1-15.04-.7-30.07-.44-8.08-.33-16.17c-.04-3.39-.42-6.7-.81-10.06-.3-3.36-.25-6.69-.16-10.06C490 65 490 65 489.5 62.28c-.82-5.4-.45-10.77-.26-16.22l.18-6.16.13-3.96.12-3.6c.9-9 5.56-13.74 12.33-19.34 10.2-5.43 20.33.38 28.44 6.75M689 665l3 4 2-1c-1.37-1.5-1.37-1.5-3-3zm-133 4c-2.62.94-2.62.94-5 2l1 3 6-4z" fill="#151816"/><path d="M923 361c5.73 5.47 10.52 10.78 11.44 18.88-.22 4.66-1.69 8.36-4.44 12.12-5.32 4.83-11.5 4.83-18.47 4.53-7.43-.64-14.39-3.37-21.39-5.8-11.39-3.88-26.62-6.84-38.26-2.17-8.14 4.56-13.7 10.36-16.46 19.32-3.73 18.81 6.06 36.68 13.96 53.07 8.25 17.12 8.25 17.12 10.62 26.05l1.08 3.85c1.35 6.21 1.26 12.51 1.24 18.84q0 3.16.04 6.32c.04 8.36-.82 15.97-3.36 23.99l-1.14 3.63A86 86 0 0 1 847 564l-1.92 2.74c-12.77 16.94-35.16 28.67-56.03 31.94q-3.6.48-7.22.86C779 600 779 600 776 602a15.4 15.4 0 0 1 4.28-6.15c3.18-3.34 5.32-6.8 7.6-10.79l1.31-2.28q1.92-3.37 3.81-6.78l1.04-1.87c4.26-7.74 7.09-15.39 9.68-23.79a35 35 0 0 1 7.74-13.39c2.59-3.28 3.46-6.98 4.54-10.95l1.05-2.73c1.18-4.05 1.29-7.7 1.26-11.89l-.01-2.42c-.32-16.31-7.98-30.47-14.8-44.96-15.1-32.1-15.1-32.1-14.94-49.38l.02-3.32c.31-15.47 5.74-27.38 15.42-39.3l1.81-2.25C833 337.41 890.48 334.73 923 361" fill="#0E100F"/><path d="m530.44 19.75 4.96 3.98c3.2 2.54 6.55 4.9 9.87 7.29q5.4 3.95 10.73 7.98l4 3 9.97 7.48a316 316 0 0 0 6.53 4.77l2.03 1.45L580 57v2c3.6.85 6.76 1.06 10.44.88l3.39-.15 3.73-.17q15.9-.63 31.8-.52l3.53.01q8.79.06 17.58.16l6.56.05 3.04.05c7.14.03 12.84-.92 18.25-6C681 51 681 51 683 51l.69-1.81c1.7-2.83 3.43-3.56 6.3-5.19 3.67-2.61 7.23-5.33 10.64-8.25C703 34 703 34 706.19 33l2.8-1c.14-.29.14-.29.76-1.74 1.89-3.41 4.93-5.22 8.07-7.39l1.86-1.33A42 42 0 0 1 730 16q1.95-1 3.88-2.06c3.74-1.87 6.88-2.86 11.12-2.94a35 35 0 0 1 7 3l2.69 1.37c5.64 3.97 7.79 9.11 9.3 15.63.37 3.99.34 7.93.26 11.94l-.01 3.15c-.08 7.6-.08 7.6-1.24 9.91q-.23 3.94-.31 7.87l-.07 2.39-.12 5.04q-.09 3.8-.2 7.59c-.2 7.88-.35 15.74-.26 23.62a99 99 0 0 1-.82 10.33c-.5 4.99-.21 10.06-.2 15.07l.03 27.54.03 16.66.02 16.12v6.14l.02 8.59v2.56c0 6.03-.74 10.9-3.12 16.48l-.87 2.31C753.4 233.21 749.48 240 741 245q-1.8 2.17-3.54 4.38a37 37 0 0 1-11.52 8.6c-2.16 1.14-3.48 2.05-4.94 4.02-.47 7.5 2.25 14.35 5.22 21.08a77 77 0 0 1 2.22 6.48c1.28 3.97 3.1 7.04 5.56 10.44q1.04 1.99 2 4l1 2.09 3.44 7.22 1.2 2.52q3.34 7.01 6.36 14.17l1 2.37a263 263 0 0 1 6.25 19.17q1.07 3.46 2.25 6.9a170 170 0 0 1 8.22 40.75q.32 3.1.8 6.17c.5 3.83.62 7.52.6 11.39l.02 3.92C767 424 767 424 766 427v2.94c0 2.68-.36 4.51-1 7.06v3.06c0 2.94 0 2.94-1 5.94q-.77 3.46-1.5 6.94C762 455 762 455 761 457l2.09-.66c13.63-4.04 23.48-2.02 35.9 4.66l-.87-1.84a254 254 0 0 1-7.37-17.53l-.78-2.06A56 56 0 0 1 787 429l-.54-2.64c-.64-4.71-.72-9.36-.77-14.11l-.1-2.84a35 35 0 0 1 3.45-16.23c.9-2.06 1.43-4 1.96-6.18a80 80 0 0 1 2.88-4.44c1.66-2.41 3.26-4.79 4.75-7.31 5.43-8.89 14.12-15.13 22.37-21.25l1.79-1.37c6.6-4.65 14.53-6.48 22.2-8.63l2.49-.72c21.26-5.53 45.26-1.29 64.52 8.72l2.4 1.23c8.9 4.9 17.68 12.21 21.6 21.77 1.05 4.6 1.38 8.53.19 13.13-3.71 4.87-7.8 9.99-14.11 11.25-7.3.69-14.1-.19-21.08-2.38l-5.37-1.44c-3.45-.93-6.82-1.94-10.2-3.12-10.24-3.47-20.01-4.98-30.43-1.44l-3.12.94c-5.33 1.97-7.85 3.56-10.56 8.62-4.41 9.57-5.31 18.53-2.38 28.69L840 432l2 6c2.59 7.6 5.8 14.7 9.39 21.88 5.4 10.89 9.77 21.28 12.22 33.21q.52 2.47 1.12 4.93c1.82 8.16 1.68 16.65 1.27 24.98l-1 1q-.23 2.28-.37 4.56c-.47 4.97-1.67 8.89-3.63 13.44l-1.06 2.74C857 552.16 853.67 559.49 849 566l-3 1-.87 2.31c-1.41 3.36-3.26 4.52-6.13 6.69l-1.37 2c-1.91 2.34-4.02 3.39-6.66 4.79-3.01 1.85-5.45 4.27-7.98 6.72-2.34 1.75-4.13 2.04-7 2.49l-2.67 1.37c-3.54 1.74-6.98 2.8-10.75 3.88q-3.53 1.05-7.01 2.31c-4.26 1.48-8.5 2.11-12.98 2.62-3.53 1.12-5.11 3.1-7.58 5.82l-2.43 2.39c-3.83 3.8-7.6 7.56-11.01 11.74-4.13 4.86-9.31 8.3-14.56 11.87 2.38 2.51 4.49 4.71 7.5 6.44 5.23 3.27 8.05 7.65 9.5 13.56 1.48 6.76.6 11.19-2.81 17.19-5.61 5.95-14.12 6.82-21.87 7.12-8.75.15-16.88.19-25.32-2.31l-3.62-1.07-3.38-1.06-3.44-1.07-2.56-.8-1 1 1.9 1.54 2.48 2.09 2.46 2.03c3.89 4.21 4.53 9.45 5.48 14.97l.6 3.35c.08 3.02.08 3.02-1.25 5.42C710 704 710 704 708 704l.2-3.18c.38-8.06.53-13.72-4.88-20.22C702 679 702 679 702 677l-1.64-.8a287 287 0 0 1-8.11-4.33c-.5-.26-.5-.26-2.98-1.63L687 669v-8a50 50 0 0 1 8.94 4.31c12.05 6.81 23.84 8.87 37.44 8.88l3.33.03c8.4.02 15.92-.04 22.29-6.22 2.08-4.16 1.33-9.45 1-14-3.2-9.23-11.66-13.93-20-18a63 63 0 0 1 9.38-7.94c4.83-3.59 9.38-7.36 13.8-11.43l1.82-1.67a71 71 0 0 0 9.5-11.15c2.42-3.07 3.69-4.57 7.46-5.69q3.48-.38 6.96-.62c18.77-1.69 40.5-13.54 52.88-27.54 18.14-21.9 20.48-46.69 19.2-73.96-1.34-13.22-7.76-25.36-13.5-37.15-17.31-35.65-17.31-35.65-12.56-53.54a33.2 33.2 0 0 1 15.44-16.87c14.45-5.73 31.25-2.3 45.46 2.94 9.72 3.58 19.37 5.73 29.62 2.96 3.25-1.58 4.65-3.52 6.48-6.59 1.4-4.96 2.29-9.07.1-13.82A72 72 0 0 0 928 368l-2-3c-11.03-12.45-32.91-19.02-49-20-12.07-.6-23.26-.12-35 3l-3.1.77c-18.7 5.38-32.88 19.23-42.51 35.64-8.1 15.12-9.07 34.17-4.83 50.72 3.14 9.9 8.26 19.3 12.92 28.57A227 227 0 0 1 815 488l1.75 4.44c4 11.43 4.15 27.4-.75 38.56-1.76 3.2-3.57 6.26-6 9h-2l.66-2.45c4.8-20.96 6.03-46.67-5.47-65.68-5.05-6.67-11.56-12.93-20.18-14.15q-3.16-.17-6.32-.09l-2.11-.04c-5.88.03-11.04 1.52-16.58 3.41l.26-1.88 1.18-8.56.4-2.95 1.47-10.8c.96-7.36.94-14.77.94-22.18v-2.16c0-10.65-.56-20.94-2.8-31.37q-.67-3.2-1.26-6.4c-4.88-25.07-14.84-48.83-26.81-71.26-15.3-28.78-15.3-28.78-14.38-41.13 2.36-5.44 8.19-8.24 13-11.31 11.3-8.29 19.44-16.56 24-30l.75-1.85c2.48-6.5 2.68-12.48 2.65-19.38l.02-3.62.02-9.79q.01-5.19.04-10.37l.08-21.96q.03-18.47.12-36.92l.02-4.21c.1-20 .56-39.88 2.1-59.83.32-4.89.44-9.79.52-14.7q.01-1.12.05-2.28c-.01-5.57-.94-11.4-4.78-15.66-5.2-4.48-9.8-4.91-16.41-4.82-5.37.66-8.88 3.25-13.18 6.39l-3.06 2.13c-9.28 6.48-18.32 13.28-27.42 20.01l-15.38 11.33-2.26 1.67-1.98 1.46c-1.9 1.4-1.9 1.4-3.5 2.96-3.43 2.06-6.73 1.91-10.62 1.94l-2.5.05q-4.1.07-8.21.09l-2.84.03q-7.47.08-14.93.11-7.67.04-15.32.2-5.94.08-11.87.09-2.82.01-5.64.08c-13.64.3-21.25-2.07-31.47-11.15a191 191 0 0 0-4.3-3.18l-3.57-2.69-2-1.51-8.12-6.13a978 978 0 0 0-23.32-17.18l-2.2-1.57-2.04-1.44q-.9-.62-1.8-1.28C516.69 14.94 510.6 15.47 505 16c-5.14 2.48-8.42 6.04-11.1 11.06-1.28 4.2-1.15 8.16-1.08 12.53l.02 2.82c.1 8.54.49 17.06.96 25.6a1365 1365 0 0 1 1.83 47.37q.39 17.91.45 35.84l.12 18.22q.06 7.79.06 15.58 0 4.94.06 9.87v4.6c-.08 16.69 4 30.6 15.89 42.9a102 102 0 0 0 12.1 9.92l4.24 3.12 1.87 1.35c3.49 2.68 3.49 2.68 3.95 5.29.44 17.08-9.41 34.75-17.4 49.41-9 16.53-15.38 34.27-19.97 52.52l-.61 2.36c-7.52 29.3-8.41 57.46-2.75 87.26.36 2.38.36 2.38.36 6.38-5.75-.87-5.75-.87-8-2-9.98-1.06-20.85-1.57-29 5-10.9 9.67-15.01 22.86-16.17 37.07-2.02 36.6 10.59 74.82 34.94 102.25q1.4 1.56 2.8 3.09 2.33 2.6 4.57 5.28c5.28 6.18 11.7 11.03 18.05 16.06l1.8 1.43a68 68 0 0 0 7.94 5.52L513 635v2l-3.62 1.25c-8.71 3.34-13.26 8.51-17.38 16.75-.5 5.09-.81 9.52 1.69 14.06 8.63 7.23 23.66 5.69 34.3 4.94 10.93-1.44 22.29-4.8 31.65-10.65C562 662 562 662 565 662v8l-2.41 1.07c-9.23 4.3-14.57 8.47-18.6 17.93a81 81 0 0 0-.67 7.87l-.11 2.09L543 704h-2c-2.12-3.45-2.3-5.98-2-10q1.27-3.3 2.75-6.5c2.4-5.88 2.4-5.88 1.69-8.68-1.12-1.63-1.12-1.63-3.44-3.82l-3.17.98c-6 1.49-12 1.35-18.14 1.33l-3.51.05c-17.3.01-17.3.01-23.43-5.32-2.03-2.37-2.5-3.92-3-6.98l-.45-2.52c-.76-6.46.45-10.16 4.08-15.6A66 66 0 0 1 504 636h2a118 118 0 0 0-10.64-9.67L494 625v-2l-2.12-.56c-3.4-1.7-4.9-3.64-7.23-6.55a39 39 0 0 0-5.27-4.89c-12.52-10.72-22.03-25.96-28.38-41l-3.06-5.81a45 45 0 0 1-4.58-13.96C443 548 443 548 442 544.5a130 130 0 0 1-4-21.5l-.28-1.97c-1.17-8.72-1.78-18.44.28-27.03l.8-3.45c1.87-7.47 3.92-14.08 8.2-20.55l1.12-1.89c4.4-6.98 11.59-11.33 19.43-13.65 7.67-1.45 15.04-.74 22.45 1.54-.46-3.47-.9-6.67-2-10-1.1-6.5-1.58-13.06-2.12-19.63l-.3-3.39-.27-3.27q-.14-1.46-.25-2.96c-.06-2.76.34-5.07.94-7.75q.03-2.62-.06-5.25c-.05-4.53.5-8.45 1.62-12.82.44-1.93.44-1.93.44-4.62 0-3.05.99-5.45 2-8.31q.78-3.69 1.43-7.39c.85-4.59 1.9-8.8 3.65-13.14 1.56-4.19 2.82-8.47 4.12-12.75 1.12-3.65 2.36-7.19 3.8-10.72l.96-2.97c1.03-3 2.28-5.7 3.73-8.53l1.6-3.14 1.7-3.36 2.68-5.38a226 226 0 0 1 8.39-15.66c1.1-2.29 1.45-4.47 1.94-6.96.94-1.88.94-1.88 2-3.56 1.65-2.84 2.34-4.39 3-7.44l1.06-3.75c1.04-4.37 1.59-7.76.94-12.25-3.22-4.01-7.63-6.4-12-9l-4-4-2.5-1.44c-2.9-1.81-4.56-3.76-6.5-6.56v-2l-1.8-.64c-3.01-1.86-3.81-3.93-5.32-7.11l-1.51-3.11c-5.68-13.05-5.63-25.95-5.53-39.91l.02-5.78q.01-7.59.06-15.18.07-12.09.1-24.17l.04-8.32q.1-15.04-.7-30.07-.44-8.08-.33-16.17c-.04-3.39-.42-6.7-.81-10.06-.3-3.36-.25-6.69-.16-10.06C490 65 490 65 489.5 62.28c-.82-5.4-.45-10.77-.26-16.22l.18-6.16.13-3.96.12-3.6c.9-9 5.56-13.74 12.33-19.34 10.2-5.43 20.33.38 28.44 6.75M689 665l3 4 2-1c-1.37-1.5-1.37-1.5-3-3zm-133 4c-2.62.94-2.62.94-5 2l1 3 6-4z" fill="#E5E6E7"/><path d="M673 495h1c-.41 9.14-5.72 17.58-12 24-14.71 13-14.71 13-23 13l.18 2.05a614 614 0 0 1 2.08 54.41q-.01 5.2.01 10.43c.04 13.55-.15 27.05-1.16 40.57l-.24 3.15A125 125 0 0 1 637 660h-22l-1.44-10.38-.44-3.14c-2.24-16.65-2.31-33.39-2.31-50.16q0-5.12-.03-10.25c-.03-12.11.34-24.06 1.52-36.11.55-5.69.79-11.24.7-16.96l-2.34-1.1c-12.85-6.2-12.85-6.2-17.66-10.9v-2l-1.71-.62c-3.14-1.89-4.94-4.53-6.98-7.5l-1.22-1.77c-2.98-4.5-4.19-7.76-4.09-13.11l1.88 1.94c12.43 12.33 26.53 23.76 44.62 25.37 14.41-.24 28.21-8.86 38.5-18.31q3.74-3.96 7.29-8.09z" fill="#000"/><path d="M751.63 13.25C758.04 17.98 762 23.29 764 31c.25 3.92.23 7.82.17 11.75v3.19c-.03 7.78-.03 7.78-1.17 10.06q-.23 3.94-.33 7.87l-.05 2.39q-.08 2.52-.13 5.04l-.2 7.59c-.2 7.88-.35 15.74-.26 23.62a97 97 0 0 1-.82 10.33c-.5 4.99-.22 10.06-.2 15.07l.03 27.54.03 16.66.01 16.12.01 6.14.01 8.59.01 2.56c0 6.03-.75 10.9-3.12 16.48l-.87 2.31c-3.74 8.9-7.65 15.69-16.12 20.69q-1.81 2.17-3.55 4.38a37 37 0 0 1-11.51 8.6c-2.18 1.14-3.5 2.05-4.95 4.02-.48 7.5 2.25 14.35 5.22 21.08a77 77 0 0 1 2.21 6.48c1.3 3.97 3.12 7.04 5.58 10.44q1.03 1.99 2 4l1 2.09 3.42 7.22 1.2 2.52q3.36 7.01 6.38 14.17.48 1.17 1 2.37a263 263 0 0 1 6.24 19.17q1.07 3.46 2.25 6.9a170 170 0 0 1 8.22 40.75q.32 3.1.8 6.17c.5 3.83.62 7.52.6 11.39l.01 3.92C767 424 767 424 766 427v2.94c0 2.68-.37 4.51-1 7.06v3.06c0 2.94 0 2.94-1 5.94a245 245 0 0 0-1.08 4.69l-.52 2.45-.4 1.86h-2c-.25-5.75.1-11.2.98-16.89 1.13-7.95 1.37-15.83 1.33-23.86l-.02-2.11c-.03-10.52-.63-20.73-2.85-31.04q-.69-3.2-1.25-6.4c-4.9-25.07-14.86-48.83-26.83-71.26-15.28-28.78-15.28-28.78-14.37-41.13 2.36-5.44 8.18-8.24 13-11.31 11.3-8.29 19.43-16.56 24-30l.75-1.85c2.48-6.5 2.67-12.48 2.65-19.38l.02-3.62.03-9.79q0-5.19.03-10.37l.07-21.96q.04-18.47.13-36.92 0-2.11.03-4.21c.08-20 .54-39.88 2.08-59.83.34-4.89.45-9.79.53-14.7l.04-2.28c0-5.57-.94-11.4-4.77-15.66-5.2-4.48-9.79-4.91-16.42-4.82-5.37.66-8.87 3.25-13.16 6.39l-3.08 2.13c-9.26 6.48-18.31 13.28-27.4 20l-13.02 9.62-2.45 1.81-2.27 1.67-2 1.48c-4.54 3.28-7.56 3.57-13.02 3.52h-2.54q-4.18 0-8.34-.03l-5.76-.01-15.2-.05-15.5-.04q-15.21-.03-30.42-.1v-2q6.11-.28 12.24-.5l1.98-.07a706 706 0 0 1 33.67-.37q8.78.05 17.57.15l6.56.05 3.05.05c7.13.03 12.82-.92 18.24-6C681 51 681 51 683 51l.68-1.81c1.7-2.83 3.45-3.56 6.33-5.19a159 159 0 0 0 10.62-8.25C703 34 703 34 706.18 33l2.83-1 .74-1.74c1.88-3.41 4.92-5.22 8.07-7.39l1.86-1.33A42 42 0 0 1 730.02 16q3.02-1.51 6.02-3.1c5.38-2.46 10.22-2.21 15.6.35" fill="#EAECEB"/><path d="M739 472h1c.49 37.61-7.87 72.91-20.91 108.02A359 359 0 0 0 715 592h-2l-.31 2.44a52 52 0 0 1-1.94 7.37c-6.46 18.92-11.34 38.39-13.39 58.3C697 663 697 663 696 665c-6.77-1.96-6.77-1.96-9-5-1.41-16.39 5.91-34.69 11-50l1.95-5.94c4.38-13.26 8.8-26.53 13.76-39.59a351 351 0 0 0 10.55-32.77l2.27-8.18A779 779 0 0 0 739 472" fill="#000100"/><path d="M512 474h2l.47 2.24c2.65 12.54 5.31 25.09 8.22 37.57l.57 2.53A78 78 0 0 0 528 530q1.08 3.54 2.06 7.12a460 460 0 0 0 8.48 26.17q3.89 11.26 8.08 22.4c8.85 23.62 18.3 49.83 18.38 75.31-5.62 4-5.62 4-9 4a60 60 0 0 1-1.31-11.12c-1.99-27.87-12.53-56.06-23.34-81.63a230 230 0 0 1-12.79-40.65q-.81-3.72-1.68-7.44C513.27 507.9 512 490.66 512 474" fill="#000101"/><path d="m530.44 19.75 4.96 3.98c3.2 2.54 6.55 4.9 9.87 7.29q5.4 3.95 10.73 7.98l4 3 9.97 7.48a316 316 0 0 0 6.53 4.77l2.03 1.45L580 57v2c4.42 2.19 8.55 2.31 13.37 2.32l2.52.03 8.19.06 5.7.06 14.97.13 15.28.14L670 62v1q-16.65.35-33.3.52-7.73.07-15.47.23-7.49.16-14.96.2-2.84.03-5.68.11c-13.71.38-21.32-1.92-31.6-11.06a191 191 0 0 0-4.3-3.18l-3.56-2.69-2-1.51-8.12-6.13a978 978 0 0 0-23.32-17.18l-2.2-1.57-2.04-1.44q-.9-.62-1.8-1.28C516.69 14.94 510.6 15.47 505 16c-5.14 2.48-8.42 6.04-11.1 11.06-1.28 4.2-1.15 8.16-1.08 12.53l.02 2.82c.1 8.54.49 17.06.96 25.59 2.69 49.31 2.33 98.64 2.2 148l-3-1c-.8-5.63-1.13-11.05-1.1-16.73v-2.53l.03-5.4.02-8.61q.02-10.72.06-21.43l.05-18.08q0-4.19.03-8.36a532 532 0 0 0-.73-30.16q-.44-8.07-.33-16.16c-.04-3.39-.42-6.7-.81-10.06-.3-3.36-.25-6.69-.16-10.06C490 65 490 65 489.5 62.28c-.82-5.4-.45-10.77-.26-16.22l.18-6.16.13-3.96.12-3.6c.9-9 5.56-13.74 12.33-19.34 10.2-5.43 20.33.38 28.44 6.75" fill="#D4D6D5"/><path d="M751.63 13.25C758.04 17.98 762 23.29 764 31c.25 3.92.23 7.82.17 11.75v3.19c-.03 7.78-.03 7.78-1.17 10.06q-.23 4.04-.33 8.07l-.05 2.41-.2 7.65q-.04 2.59-.12 5.17L762 92l-2 1c-.35 11.22-.66 22.44-1 34h-1c-.2-20.5-.38-40.97 1-61.44 1.22-18.49 1.22-18.49 1.3-27.19.02-.37.02-.37.06-2.29 0-5.57-.95-11.4-4.78-15.65-5.2-4.48-9.79-4.91-16.42-4.82-5.37.66-8.87 3.25-13.16 6.39l-3.08 2.13c-9.26 6.48-18.31 13.28-27.4 20l-13.02 9.62-2.45 1.81-2.27 1.67-2 1.48c-4.54 3.28-7.56 3.57-13.02 3.52h-2.54q-4.18 0-8.34-.03l-5.76-.01-15.2-.05-15.5-.04q-15.21-.03-30.42-.1v-2q6.11-.28 12.24-.5l1.98-.07a706 706 0 0 1 33.67-.37q8.78.05 17.57.15l6.56.05 3.05.05c7.13.03 12.82-.92 18.24-6C681 51 681 51 683 51l.68-1.81c1.7-2.83 3.45-3.56 6.33-5.19a159 159 0 0 0 10.62-8.25C703 34 703 34 706.18 33l2.83-1 .74-1.74c1.88-3.41 4.92-5.22 8.07-7.39l1.86-1.33A42 42 0 0 1 730.02 16q3.02-1.51 6.02-3.1c5.38-2.46 10.22-2.21 15.6.35" fill="#E2E2E6"/><path d="M788 409h1l.04 3.34c.49 19.28 6.91 34.39 15.44 51.36A229 229 0 0 1 815 488l1.75 4.44c4.01 11.43 4.14 27.4-.75 38.56-1.76 3.2-3.57 6.26-6 9h-2l.66-2.45c4.8-20.96 6.03-46.67-5.47-65.67-5.05-6.68-11.57-12.94-20.18-14.16q-3.16-.17-6.32-.1l-2.25.02c-5.9.14-10.9 1.25-16.44 3.36l1-10c2 4 2 4 2 6l2.09-.66c13.63-4.04 23.48-2.02 35.91 4.66l-.88-1.84a243 243 0 0 1-8.15-19.59c-1.97-5.27-3.18-9.8-2.85-15.43l.15-2.69.17-2.76.16-2.82q.18-3.43.4-6.87" fill="#E0E2E3"/><path d="M631.46 190.86c4.77 2.37 4.77 2.37 6.54 4.14.44 2.68.44 2.68 0 6a28 28 0 0 1-6 6h-2l.2 2.81c-.2 3.2-.2 3.2-1.33 5.06-2.75 1.66-4.72 1.52-7.87 1.13-1.88-1.13-1.88-1.13-3-3-.19-3.19-.19-3.19 0-6l-1.75-.69c-2.93-1.7-4.45-3.45-6.25-6.3.07-2.94.52-4.39 2.31-6.7 5.56-4.32 12.55-4.76 19.15-2.45" fill="#5F6162"/><path d="M862 504h1q.33 6.19.59 12.38l.21 4.2c.41 7.77.69 14.3-2.8 21.42l-1.14 2.98c-2.94 7.33-6.24 14.58-10.86 21.02l-3 1-.88 2.31c-1.4 3.36-3.25 4.52-6.12 6.69l-1.38 2c-1.9 2.34-4.02 3.39-6.66 4.79-3 1.85-5.44 4.27-7.97 6.72-2.34 1.75-4.13 2.04-6.99 2.49l-2.69 1.38c-3.53 1.73-6.97 2.79-10.74 3.87q-3.53 1.05-7.01 2.31a54 54 0 0 1-10.31 2.32c-4.91.8-6.99 2.27-10.25 6.12-2.13.65-2.13.65-4 1l2.88-3.88 1.61-2.17c3-3.87 3-3.87 6.06-4.34l3.33-.3c21.97-2.89 45.67-13.84 59.5-31.56 9.6-12.91 16.33-28.4 16.94-44.59l.24-6.54.13-3.38z" fill="#E1E3E3"/><path d="M759 88h1v5h2c.1 6.68.01 13.21-.78 19.84-.51 4.98-.2 10.05-.17 15.06q.07 13.75.11 27.49.01 8.33.07 16.64.05 8.06.05 16.1l.04 6.13.02 8.59.03 2.55c-.02 4.96-.72 8.25-3.37 12.6h-1l.34-33.57.16-15.61c.26-26.95.71-53.88 1.5-80.82" fill="#EFF1F0"/><path d="M616 661h20l-.11 5.77-.08 7.61-.07 3.79c-.08 9.43.72 17.91 6.26 25.83-2.4-.37-3.65-.56-5.2-2.5-2.58-5.39-3.83-10.61-4.8-16.5l-.54-2.63c-.65-3.38-1.02-6.25.54-9.37l1-6 1-3h-15l.5 4.56c.42 4.17.59 8.25.5 12.44q0 2.82.12 5.62c-.25 6.84-1.22 12.32-6.12 17.38l-3-1 .84-1.57 1.1-2.12 1.09-2.07c2-4.62 2.09-9.08 2.07-14.07l-.01-3.92-.03-4.06-.01-4.13z" fill="#EFF0F1"/><path d="M488 410h1l.08 3.46c.43 13.54 2.28 26.67 4.57 40.02.35 2.52.35 2.52.35 6.52-5.75-.88-5.75-.88-8-2-9.98-1.06-20.85-1.57-29 5-9.08 8.06-13.28 18.16-15 30l-2-2c0-8.1 3.03-14.06 7-21l1.19-2.11c4.35-6.86 11.67-11.16 19.36-13.43 7.67-1.45 15.04-.74 22.45 1.54-.46-3.47-.89-6.67-2-10-2.26-11.8-.79-24.1 0-36" fill="#E2E4E4"/><path d="M532 22c3.59 2.09 6.96 4.35 10.31 6.81l2.68 1.96q5.52 4.1 11.01 8.23l4 3 9.97 7.48q2.15 1.6 4.31 3.16l2.22 1.61 2.03 1.45L580 57v2c4.41 2.19 8.54 2.31 13.37 2.32l2.51.03 8.2.06 5.7.06 14.97.13 15.28.14L670 62v1q-16.65.35-33.3.52-7.74.07-15.47.23-7.48.16-14.96.2-2.84.03-5.68.11c-13.71.38-21.33-1.92-31.59-11.06a191 191 0 0 0-4.3-3.18l-3.58-2.7-4.01-3.02-2.03-1.54-6.44-4.81-2.16-1.62-4.08-3.03A243 243 0 0 1 531 24z" fill="#CCCDCE"/><path d="m759 29 2 1c.22 9.97.06 19.84-.69 29.79-2.02 27.83-1.76 55.78-1.9 83.67l-.14 22.48q-.15 23.03-.27 46.06h-1l-.44-43.4-.21-20.17c-.3-27.51-.56-54.98.42-82.48.29-8.65.28-17.3.23-25.95h1z" fill="#353736"/><path d="M879 342c21.65 3.28 40.33 10.18 54.48 27.84 3.03 4.63 3.7 9.74 3.52 15.16-1.46 5.6-5.7 9.1-10.15 12.56-4.27 2.16-7.31 1.4-11.8.16L913 397v-1l1.94-.08c6.09-.4 10.19-1.14 15.06-4.92 2.82-4.73 4.12-9.54 3-15a43 43 0 0 0-5-8l-2-3c-11.29-12.74-32.63-18.54-49-20l2-1z" fill="#DFDFE0"/><path d="M528.63 18.25 532 21l-1 3-2.31-1.5-3.02-1.94-2.98-1.93c-5.6-3.38-11.32-3.24-17.7-2.63-5.13 2.48-8.5 6.05-11.08 11.12-1.22 3.82-1.28 7.5-1.34 11.46l-.06 2.47-.14 7.76-.12 5.28Q492.1 60.55 492 67c-3.24-3.22-3-6.92-3.06-11.34.2-6.86.2-6.86.3-9.6l.17-6.16.13-3.96.12-3.6c.9-9 5.56-13.74 12.33-19.34 9.19-4.89 18.99-.47 26.63 5.25" fill="#E6E7E8"/><path d="m639.25 58.93 11.13.02L672 59l-1 3h-86v-2c18.09-1.02 36.14-1.13 54.25-1.07" fill="#F0F3F4"/><path d="m694 170 1 2a92 92 0 0 0 6.38 1.5c3.88.79 6.3 1.29 9.62 3.5v2l-3.01-.88c-17.38-4.84-35.58-4.62-51.99 3.88l-2.02 1.62C652 185 652 185 648 185v-2c10.53-8.89 25.26-12.3 38.81-12 4.97.11 4.97.11 7.19-1" fill="#030503"/><path d="M596.25 179.63 599 182v2c-3.25-.67-5.83-1.88-8.75-3.44-14.08-7.16-31.1-6.9-46.25-3.56a36 36 0 0 0-6 3h-2l2-4h2v-2c18.53-3.95 39.67-5.7 56.25 5.62" fill="#030404"/><path d="m771 609 2 1-1.5 1.47c-3.45 3.4-6.75 6.78-9.81 10.53-4.19 4.91-9.39 8.39-14.69 12 2.38 2.51 4.49 4.71 7.5 6.44 5.25 3.28 7.99 7.65 9.5 13.56q.55 2.5 1 5l-3 1-.73-2.23c-3.9-11.33-9.05-15.59-19.58-20.95L740 636a62 62 0 0 1 9.31-7.88c7.8-5.75 14.71-12.41 21.69-19.12" fill="#E5E7E6"/><path d="M862 504h1q.33 6.19.59 12.38l.21 4.2c.41 7.77.69 14.3-2.8 21.42l-1.14 2.98c-2.94 7.33-6.24 14.58-10.86 21.02l-3 1-.75 2.25c-1.77 3.9-4.7 5.52-8.25 7.75l-2-1 2.06-2 2.94-3 1.61-1.62a74.4 74.4 0 0 0 19.71-47.22l.37-9.92z" fill="#DCDDE0"/><path d="M818 502h1c.8 26.94.8 26.94-9 38h-2l.62-2.8c2.33-11.05 3.04-21.92 3.38-33.2h1v15c1-1 1-1 1.06-4.06L814 512h3z" fill="#D8DAD8"/><path d="M858 387c12.8-.45 23.86-.42 36 4a133 133 0 0 0 26 6v2c-6.73.2-12.57.22-19-2l-5.38-1.44c-3.44-.93-6.82-1.94-10.18-3.12-8.83-2.99-18.28-5.01-27.44-2.44z" fill="#E3E5E5"/><path d="M496 214c1.76 3.29 2.96 6.67 4.19 10.19 5.71 14.87 18.08 23.93 30.81 32.81l-2 2-2.19-1.81C524 255 524 255 521.44 253.5c-2.56-1.57-4.32-3.38-6.44-5.5l-2.5-1.44c-2.9-1.81-4.56-3.76-6.5-6.56v-2l-1.8-.64c-3.01-1.86-3.82-3.93-5.32-7.11l-1.51-3.11c-3.65-8.38-3.65-8.38-2.49-11.52z" fill="#E0E2E3"/><path d="M760 50h1c.77 5.46 1.14 10.71 1.1 16.22l-.01 2.25q0 3.52-.03 7.03l-.01 4.8L762 92l-2 1-1 34h-1c-.24-25.76.07-51.31 2-77" fill="#CDCECF"/><path d="m687 661 2 1 .34 1.86c.93 3.02 2.52 3.71 5.16 5.39 3.66 2.45 7.14 4.96 10.5 7.81l2.19 1.85c3.57 4.12 4.22 9.46 5.12 14.71l.62 3.36c.07 3.02.07 3.02-1.26 5.42C710 704 710 704 708 704l.21-3.18c.37-8.06.52-13.72-4.9-20.22C702 679 702 679 702 677l-1.64-.8a299 299 0 0 1-8.11-4.32l-2.98-1.64L687 669z" fill="#E6E8E7"/><path d="M488 410h1l.08 3.46c.43 13.54 2.28 26.67 4.57 40.02.35 2.52.35 2.52.35 6.52-5.75-.75-5.75-.75-8-3l4-2-.4-1.72c-3.33-14.56-2.58-28.5-1.6-43.28" fill="#CFD2D2"/><path d="M763 409h1l1 10 2-1c.07 3.34.07 5.8-1 9v2.94c0 2.68-.36 4.51-1 7.06v3.06c0 2.94 0 2.94-1 5.94q-.55 2.34-1.06 4.69l-.54 2.45-.4 1.86h-2c-.24-5.72.1-11.15.94-16.81 1.4-9.69 1.71-19.42 2.06-29.19" fill="#DFE2DF"/><path d="m861.23 385.9 4.96.04 2.56.01 6.25.05v1l-3.61.11-4.7.2-2.38.07-2.3.11-2.11.08c-2.41.54-3.24 1.65-4.9 3.43q-2.98 1.05-6 2c-5.96 2.32-7.53 7.51-10 13-1.85 3.84-1.85 3.84-3 5q-.34 3.02-.56 6.06l-.26 3.35-.18 2.6h-1c-.46-11.12-.14-18.66 7.19-27.32 5.49-5.77 11.84-9.85 20.04-9.79" fill="#D8D9DB"/><path d="M859 482h2q1.54 6.5 3 13l.64 2.71c1.24 5.77 1.59 11.41 1.67 17.29l.06 2.25c-.01 5.34-.01 5.34-1.89 7.48L863 526l-.04-1.75c-.33-11.48-1.04-22.55-3.34-33.82A36 36 0 0 1 859 482" fill="#EDEDF0"/><path d="m761 657 4 4c-1.15 5.23-2.54 9.69-7 13-10.29 5.3-20.06 3.82-31 2v-1l3.88-.15 5.12-.23 2.54-.09c7.69-.36 14.68-.92 20.46-6.53 1.15-2.3 1.31-4.08 1.56-6.62l.26-2.48z" fill="#E3E6E3"/><path d="M762 398h1l.05 13.18.03 4.47c.04 7.84.03 15.56-1.08 23.35-1.48-1.25-1.48-1.25-3-3-.22-3.5-.41-6.51.52-9.88.62-2.74.5-5.25.42-8.06-.07-6.84.83-13.34 2.06-20.06" fill="#282B28"/><path d="M792 386h1c.31 3.89-.21 6.89-1.44 10.53-1.7 5.51-2.31 10.87-2.75 16.59l-.25 2.9L788 423h-2q-.17-5.19-.25-10.38l-.1-2.92c-.08-6.21.79-10.88 3.39-16.53.91-2.05 1.43-4 1.96-6.17z" fill="#EBECEF"/><path d="M490 29h2v38c-3.25-3.25-2.99-6.98-3.02-11.44l.14-3.71.07-1.99.25-6.24.16-4.25q.18-5.19.4-10.37" fill="#EEEEF1"/><path d="m836 410 2 1-.62 3.81c-.8 7.08.38 13.87 3.62 20.19q.86 2.61 1.62 5.25l.79 2.7.59 2.05h-3l-2.44-6.25-1.37-3.52c-1.43-3.89-2.32-7.16-2.32-11.3l-.01-2.28.02-2.34-.02-2.37c.01-5.81.01-5.81 1.14-6.94" fill="#EAEAED"/><path d="M788 409h1l.04 3.34c.3 11.29 2.41 20.98 5.96 31.66q.54 2 1 4l-3-1c-1.35-2.77-1.35-2.77-2.62-6.25l-1.29-3.45c-1.49-4.53-2.25-8.4-1.97-13.16l.15-2.69.17-2.76.16-2.82q.18-3.43.4-6.87" fill="#D0D1D2"/><path d="M862 504h1q.33 6.19.59 12.38l.21 4.2c.54 10.16.21 17.8-5.8 26.42l-2 1 .59-1.84.79-2.54.77-2.46c2.32-8.61 3.21-16.87 3.47-25.78l.12-3.34z" fill="#CBCBCD"/><path d="M813 498h3c2.71 3.98 2.22 8.14 2.12 12.75l-.02 2.4-.1 5.85h-1v-7h-3l1 7h-2zm3 4 1 2Z" fill="#F4F7F4"/><path d="m546 680 2 1-1.94 3.06c-3.15 6.17-2.88 13.16-3.06 19.94h-2c-2.12-3.45-2.26-5.99-2-10 1.02-3.14 1.02-3.14 2.38-6.25l1.33-3.14C544 682 544 682 546 680" fill="#CFCFD3"/><path d="M439 491h2l-1 31c-3.29-3.29-2.97-7.18-3.13-11.69l.01-3.87-.01-3.88c.15-4.17.82-7.62 2.13-11.56" fill="#EEEFEF"/><path d="M488 395h1a393 393 0 0 1-1 32l-2-1c-.45-2.55-.45-2.55-.69-5.75l-.26-3.17c-.05-2.91.36-5.25.95-8.08.03-2.83-.06-5.65-.16-8.48C486 398 486 398 488 395" fill="#EEF1F2"/><path d="M617 676h1c2.96 16.01 2.96 16.01 0 23-2.12 3.06-2.12 3.06-4 5l-3-1 .84-1.57 1.1-2.12 1.09-2.07c2.03-4.68 2.2-9.5 2.53-14.55l.26-3.8z" fill="#E5E7EB"/><path d="M758 160h1q.29 11.19.54 22.37l.18 7.61.26 10.94.09 3.43a379 379 0 0 0 .13 6.04c-.22 2.87-1 5-2.2 7.61h-1z" fill="#F7F9F9"/><path d="m761 28 3 1q.13 6.13.19 12.25l.07 3.51.03 3.38.05 3.11C764 54 764 54 761 58z" fill="#F0F1F1"/><path d="M754 15c3.36 2.97 6.15 5.88 8 10-.31 2.81-.31 2.81-1 5l-.75-1.62C757.21 22.59 754.32 18.34 748 16c-3-.57-5.95-.86-9-1v-1c5.92-1.83 9.63-2.79 15 1" fill="#E4E4E6"/><path d="M763 396h1l.4 2.08.54 2.73.52 2.71C766 406 766 406 767 409c.44 5.39.07 9.94-2 15h-1a304 304 0 0 1-1-28" fill="#F3F6F4"/><path d="M496 214c2.35 4.42 3.95 9.12 5.68 13.81A51 51 0 0 0 506 236l-2 2c-8.31-12.95-8.31-12.95-10-20 .88-2.38.88-2.38 2-4" fill="#DFDFE3"/><path d="M488 410h1c.64 11.35 1.17 22.63 1 34l-3-2c-.33-2.88-.33-2.88-.25-6.56l.03-1.98c.17-7.83.68-15.65 1.22-23.46" fill="#D5D8D9"/><path d="M516 12c6.26 1.48 10.92 5.24 16 9l-1 3-1.98-1.46c-6.91-4.78-12.67-6.83-21.02-7.54v-1l3.44-.44C515 13 515 13 516 12" fill="#E8E8EA"/><path d="m776.88 456.88 2.38.02 5.74.1v3l-1.84-.04c-5.43-.06-10.64.24-16.03 1.02-2.13.01-2.13.01-5.13-1.99 5.12-2.06 9.47-2.24 14.88-2.12" fill="#1C1F1E"/><path d="M489 401h1l.18 2.12.26 2.76.24 2.74C491 411 491 411 492 413c.15 2.52.23 4.98.25 7.5l.06 2.09c.02 2 .02 2-.31 5.41l-3 2z" fill="#202223"/><path d="M492 51h1v37c-4.85-7.27-2.87-17.34-2.06-25.62l.3-3.34z" fill="#DEE0DF"/><path d="M448 469h2a102 102 0 0 1-2.95 6.98c-2.65 5.58-4.08 10.93-5.05 17.02l-2-2c0-7.49 2.54-16.54 8-22" fill="#E5E8E7"/><path d="M933 384a15 15 0 0 1 2 4c-1.91 5.19-6.12 8.65-11 11-3.9.01-7.31-.79-11-2v-1l1.94-.08c6.09-.4 10.19-1.14 15.06-4.92a32 32 0 0 0 3-7" fill="#D5D6D7"/><path d="M719 261h1l.37 2.2A91 91 0 0 0 724 278q.56 2.99 1 6c-3-1-3-1-3.95-2.61-2.35-6.82-2.35-13.23-2.05-20.39" fill="#EEF1ED"/><path d="M759 451c2 4 2 4 2 6l2.57-1.02c3.76-1.07 6.43-1 10.31-.6l3.49.33 2.63.29v1l-2.27.11A74 74 0 0 0 758 461z" fill="#D3D5D4"/><path d="M497 105h1v15h-1l-1 17h-1q-.08-6.87-.12-13.75l-.06-3.95-.02-3.78-.03-3.5c.22-2.92.7-4.56 2.23-7.02" fill="#282A2A"/><path d="m812 491 5 2 1 9-4-3-1 5h-1z" fill="#DEDFDF"/><path d="M838 400h2c-.63 7.66-.63 7.66-2.5 9.38-2.23 2.41-2.01 4.58-2.19 7.81l-.2 3.29L835 423h-1c-.33-7.83-.38-14.79 3-22z" fill="#CECED1"/><path d="m729.3 253.33 1.7.67c-2.15 2.37-4.14 3.6-7 5-2.18 1.06-2.18 1.06-4 3a53 53 0 0 0-1 9h-1c-.55-3.8-.75-7.21 0-11 2.82-3.51 6.52-7.35 11.3-6.67" fill="#DBDEDB"/><path d="M545 672c-3.51 3.36-8.18 4.92-13 5-2.28-1.46-2.28-1.46-4-3q3.12-.8 6.25-1.56l3.52-.88c2.95-.51 4.47-.59 7.23.44" fill="#E0E2E2"/><path d="m827 350 2 3-2.74 1.68-3.57 2.2-1.81 1.1A262 262 0 0 0 813 363c.09-1.7.09-1.7 1-4a79 79 0 0 1 6.56-4.75l1.87-1.25q2.28-1.51 4.57-3" fill="#DEDFE1"/><path d="M474 602c4.14 3.38 7.81 6.67 11 11l-1 2-4.94-4.31-2.77-2.43C474 606 474 606 473 603z" fill="#E6E8E7"/><path d="m782.27 598.72 2.73.28v2l-1.65.74c-7.1 3.32-7.1 3.32-9.35 7.26l-3-1q1.78-2.27 3.62-4.5l2.04-2.53c2.34-1.97 2.34-1.97 5.61-2.25" fill="#DFE0DB"/><path d="M634 689h2l.55 2.01c1.35 4.72 2.6 8.92 5.45 12.99-2.52-.37-3.68-.58-5.27-2.64-2.06-4.3-3.22-7.47-2.73-12.36" fill="#DFE1E2"/><path d="M772 454c6.96-.34 12.43.7 19 3v1a787 787 0 0 1-20-2z" fill="#EDF0EF"/><path d="M901 395c6.37.49 12.69 1 19 2v2c-7.1.31-12.68.45-19-3z" fill="#EFF1F4"/><path d="m493 376 3 1c-.57 4.69-1.19 9.35-2 14h-3l.44-5.25.24-2.95c.27-2.36.67-4.52 1.32-6.8" fill="#1B1D1E"/><path d="m761 657 4 4c-1.48 6.52-1.48 6.52-4.12 8.94L759 671l-2-1 1.44-1.44c2.24-3.68 2.3-7.32 2.56-11.56" fill="#DADDDA"/><path d="M758 647c1.88.12 1.88.12 4 1 1.54 3.56 2.33 7.19 3 11l-3 1-2-5.38-1.12-3.02C758 649 758 649 758 647" fill="#F3F4F4"/><path d="M466 459c-1.36 4.07-3.31 4.97-7 7-2.38-.25-2.38-.25-4-1 5.85-6 5.85-6 11-6" fill="#1C1C1F"/><path d="M470 454q2.84-.05 5.69-.06l3.2-.04c2.83.09 5.35.45 8.11 1.1v2l-18-1z" fill="#EBEEF0"/><path d="m723 284 4 1 1.56 5.31.88 2.99c.56 2.7.56 2.7-.44 5.7l-2.44-5.25-1.37-2.95A35 35 0 0 1 723 284" fill="#E1E4E1"/><path d="M505 236c3.81 3.21 7.55 6.41 11 10l-1 2a22.6 22.6 0 0 1-9-8 69 69 0 0 1-1-4" fill="#E9EAEC"/><path d="M440 516h1a80 80 0 0 1 1 15h-2c-2.23-3.34-2.35-4.13-2-8q.92-3.52 2-7" fill="#D5D8D6"/><path d="m810 529 2 3 3-3c0 3.08-.34 4.04-1.81 6.62l-1.02 1.86C811 539 811 539 808 540z" fill="#C0C1C0"/><path d="M498 17h2c-1.65 3.58-3.78 6.74-6 10l-2 3c-.88-2.06-.88-2.06-1-5 1.99-2.99 4.47-5.47 7-8" fill="#DEDFE0"/><path d="M541 691h1l1 13h-2c-2.09-3.4-2.34-6.04-2-10z" fill="#ECECEF"/><path d="M740 319c4 1 4 1 5.05 2.74l.7 2.14.73 2.11C747 328 747 328 747 331l-2 2z" fill="#E1E1E2"/><path d="M755 202c2 2 2 2 2.27 4.21-.06 8.64-.06 8.64-2.27 12.79h-1z" fill="#0E1010"/><path d="m797 597-1 3-10 2-1-3 3.75-1 2.11-.56C793 597 793 597 797 597" fill="#EAEDEC"/><path d="m858 546 1 2a99 99 0 0 1-3.44 6.62l-1.02 1.86L852 561c-.98-2.59-1.13-3.67-.07-6.29l1.38-2.33 1.37-2.36C856 548 856 548 858 546" fill="#E5E5E7"/><path d="m829 352 3 2c-2.26 2.26-4.04 2.87-7 4q-2.01.97-4 2l-1-3z" fill="#18181D"/><path d="m720 675 20 1v1c-15.95 2.03-15.95 2.03-20 0z" fill="#ECEEED"/><path d="M813 485c1.95 2.93 2.65 4.56 3 8l-2 2-1-3-2 2-1-7z" fill="#CFD0D1"/><path d="M496 214c2.21 3.8 3.01 7.76 4 12l-4-1c-2.22-6.4-2.22-6.4-1.12-9.44z" fill="#D5D7D7"/><path d="M858 387h18c-2 2-2 2-4.68 2.16l-3.2-.1c-3.59-.1-6.67-.13-10.12.94z" fill="#F2F4F3"/><path d="M491 655a30 30 0 0 1 3.12 8.75l.51 2.42.37 1.83h-3c-1.32-2.64-1.1-4.68-1.06-7.62l.02-3.04z" fill="#2A2C2E"/><path d="m879 342 12 2c-3.55 2.37-4.58 2.11-8.69 1.62l-3.01-.33-2.3-.29 2-1z" fill="#D6D8DA"/><path d="M516 12a40 40 0 0 1 8 5l-1 2-2.44-1.44c-4.23-1.85-7.99-2.27-12.56-2.56v-1l3.44-.44C515 13 515 13 516 12" fill="#D1D2D3"/><path d="m444 549 1 3h2c1.48 2.96 1.06 5.74 1 9-3.82-2.78-4.15-6.6-5-11z" fill="#EDEDF1"/><path d="m491 666 7 6-1 2c-2.36-.41-3.86-.9-5.81-2.31L490 670z" fill="#E1E4E4"/><path d="M448 469h2a111 111 0 0 1-5 11l-2-1c1.14-3.87 2.23-7 5-10" fill="#DFE0E1"/><path d="M762 619c0 3 0 3-2.25 5.75-2.75 2.25-2.75 2.25-5.06 2.06L753 626a35 35 0 0 1 9-7" fill="#F0F1F2"/><path d="M764 425c2 2 2 2 2.31 4.94-.35 3.42-.85 3.89-3.31 6.06l-.06-4.94-.04-2.77c.1-2.29.1-2.29 1.1-3.29" fill="#F2F5F3"/><path d="m756 214 4 3c-.75 2.44-.75 2.44-2 5l-4 1z" fill="#D4D6D9"/><path d="M746 12v2l-11 1v-2c7.43-2.43 7.43-2.43 11-1" fill="#EEEEF2"/><path d="M928 395c-1.88 2.12-1.88 2.12-5 4a48 48 0 0 1-10-2v-1l4.69-.5 2.63-.28c2.58-.21 5.1-.26 7.68-.22" fill="#E0E2E2"/><path d="M751 343c2.31 2.31 2.5 3.48 3.12 6.62l.51 2.48.37 1.9-2 1-3-11z" fill="#E3E6E3"/><path d="M751.06 13.38 753 15l-2 2c-2.82-.25-2.82-.25-6.13-.87l-3.32-.62L739 15v-1c8.03-2.44 8.03-2.44 12.06-.62" fill="#CBCBCD"/><path d="M718 271c1.9 2.85 2.46 4.42 3.12 7.69l.51 2.45.37 1.86h-2q-.8-2.43-1.56-4.88l-.88-2.74C717 273 717 273 718 271" fill="#272A28"/><path d="M815 498c2.09 3.4 2.18 6.05 2 10h-3l-.06-4.44-.04-2.49c.1-2.07.1-2.07 1.1-3.07" fill="#EAEDEA"/><path d="m473.63 455.44 2.13.16 5.25.4v1l-16 1-1-2c3.09-1.55 6.25-.83 9.62-.56" fill="#B8BABD"/><path d="M761 446h3l-2 9h-2z" fill="#F0F3F2"/><path d="M523 294c.69 1.69.69 1.69 1 4-1.44 2.75-1.44 2.75-3 5l-2-2c2.88-5.88 2.88-5.88 4-7" fill="#EEEEEF"/><path d="M696 671c3.8 1.49 5.61 3.76 8 7l-2 1v-2l-1.81-.81A18 18 0 0 1 695 672z" fill="#D4D7D8"/><path d="M754 640c4.88 3.62 4.88 3.62 6 7l-3 1c-3-4.62-3-4.62-3-8" fill="#E9E9EB"/><path d="M835 428c2.21 3.8 3.01 7.76 4 12l-2 1c-2.25-4.5-2.17-8.08-2-13" fill="#272728"/><path d="M809 366c0 2.62-.31 4.51-1 7l-5 1z" fill="#212124"/><path d="m544 671 3 1-1.44 2.31C544 677 544 677 543 680c-1.19-2.25-1.19-2.25-2-5 1.38-2.31 1.38-2.31 3-4" fill="#F6F5F7"/><path d="m810 588 3 3-7 2-1-3z" fill="#19191C"/><path d="m490 430 3 2c.19 3.62.19 3.62 0 7h-3z" fill="#1B1E1F"/><path d="m934 376 2 1c.59 2.65.74 5.29 1 8l-3 1z" fill="#EBECED"/><path d="M857 344v1q-2.16.33-4.31.62l-2.43.36C848 346 848 346 845 344c4.08-1.53 7.79-.63 12 0" fill="#DCDCDD"/><path d="M505 332c1.39 4.18-.18 6.13-2 10l-2-4z" fill="#EFF1F2"/><path d="M509 325c1.12 3.3.9 5.05-.44 8.25l-.87 2.14L507 337h-2z" fill="#2F3132"/><path d="M634 689h2l1 8-2 1z" fill="#D8DADC"/><path d="m759 370 3 2-2 7h-1c-.88-6.15-.88-6.15-1-8z" fill="#E0E4E0"/><path d="m744 235 2 3-5 4c0-4 0-4 1.5-5.75z" fill="#1D1E1F"/><path d="m711 28 1 4-6 4 1-4h2z" fill="#DCDCDF"/><path d="M736 15a40 40 0 0 1-8 5v-3c4.28-3.24 4.28-3.24 8-2" fill="#DCDCDD"/><path d="M509 11c2.62-.19 2.62-.19 5 0l1 3h-8z" fill="#F2F3F3"/><path d="m762 614 3 1-3 4-4-1z" fill="#232624"/><path d="m474 602 5 5-2 2-4-5z" fill="#EEF0F0"/><path d="m782.06 598.94 2.94.06v2l-6 2-1-3c1-1 1-1 4.06-1.06" fill="#D8DAD5"/><path d="M843 445c1.89 2.39 3.02 4.07 4 7l-2 2c-1.56-2.81-1.56-2.81-3-6z" fill="#D4D6D8"/><path d="m761 375 2 1c-.55 3.37-1.05 5.08-3 8-.1-6.15-.1-6.15 0-8z" fill="#E8EBE8"/><path d="m493 366 2 2c-.03 2.73-.56 5.3-1 8l-2-2c.03-2.73.56-5.3 1-8" fill="#D8DADA"/><path d="M751 348c1.88 3.27 2.49 6.28 3 10l-2 1c-1.28-3.85-1.07-6.95-1-11" fill="#2C2F2B"/><path d="M888 345c6.52-.37 6.52-.37 8.94 1.5L898 348c-7.75-.75-7.75-.75-10-3" fill="#E8EAEB"/><path d="M750 18c3.24.35 4.62.56 6.81 3.06L758 23h-4c-2.25-2.5-2.25-2.5-4-5" fill="#1D1E1F"/><path d="m614 697 2 2c-.38 2.12-.38 2.12-1 4l-4 1z" fill="#E0E4E0"/><path d="M709 692h1l1 11-3 1z" fill="#B2B4B3"/><path d="m696 667 6 2-2 3-4-2z" fill="#EEF2EE"/><path d="m508 634 5 1v2l-6 1-1-2h2z" fill="#DCDCE1"/><path d="m811 524 3 2-1 7-2-1z" fill="#E5E8E4"/><path d="m836 410 2 1-2 9h-1l-.06-4.44-.04-2.49c.1-2.07.1-2.07 1.1-3.07" fill="#F2F2F6"/><path d="M729 294c2.53 2.36 3.89 3.66 5 7h-4z" fill="#EDF1ED"/></svg>