<svg style="background:transparent" version="1.1" xmlns="http://www.w3.org/2000/svg" viewBox="0 0 1248 704"><path d="M753.49 27.35c6.59 5.64 10.03 11.38 10.76 19.96l.23 2.3c.63 6.71.8 13.14.02 19.85-.62 6.1-.62 12.16-.6 18.3v3.74l.03 8.02.02 12.75q0 14.7.06 29.4l.07 37.44c.08 25.17.08 25.17-.4 37.2l-.06 2.32c-.27 5.5-1.7 10.23-3.62 15.37l-1 2.85c-2.54 6.73-5.8 11.18-11 16.15l-1.37 1.56c-1.63 1.44-1.63 1.44-4.2 2.38C740 258 740 258 739.2 259.81c-1.64 3.01-3.82 4.32-6.63 6.25-8.13 5.64-8.13 5.64-9.56 9.94a54 54 0 0 0 6 20q.52 2 1 4 1.08 2.56 2.18 5.07 1.24 2.96 2.32 6a98 98 0 0 0 5.5 11.83c2.24 4.3 3.74 8.4 5 13.1l.97 1.9a38 38 0 0 1 2.47 6.97 40 40 0 0 0 3.12 8.07c1.77 3.77 2.3 7.37 2.97 11.46.47 2.6.47 2.6 1.53 5.72 1.07 3.28 1.4 6.37 1.73 9.8.2 2.08.2 2.08.7 4.58a81 81 0 0 1 1.45 18.55C760 405 760 405 761 408q.14 3.06.13 6.12v3.26C761 420 761 420 760 421q-.06 2.5 0 5a93 93 0 0 1 0 5l-1 1q-.26 2.58-.44 5.2c-.34 4.21-.95 7.84-2.56 11.8l3.63-.5c13.06-1.36 22.52-.89 33.56 6.7q.9.87 1.8 1.8v2l1.82.75c4.12 2.35 5.63 5.9 7.36 10.2q.91 2.24 1.9 4.44c2.45 5.6 3.23 9.53 2.93 15.61l.5 2.91c.89 5.73.38 11.52.13 17.28l-.14 3.56c-.37 9.1-.37 9.1-1.5 13.25q-.2 1.91-.43 3.87A46 46 0 0 1 805 541q-.77 3.42-1.44 6.85A29 29 0 0 1 801 554l-1 5-1 2.37c-1.65 4.34-2.48 8.18-1 12.63l3-1q1.56.44 3.19.87c14.12 3.81 33.7 4.1 47.8.13l4.95-.88c6.46-1.27 12.57-3.46 18.06-7.12l2.36-.9c9.46-3.92 18.62-12.14 22.73-21.6l.9-2.5 1.05-2.4A49 49 0 0 0 906 523l1-1c.99-10.44-.92-19.1-7.5-27.3-6.9-7.78-13.43-11.33-23.5-13.7a197 197 0 0 1-6.62-2.2 112 112 0 0 0-5.32-1.63c-7-2.06-12.26-4.56-17.06-10.17a88 88 0 0 1-2-4l-1.62-2.25c-1.81-3.62-2.11-6.82-1.38-10.75 1.47-2.55 3.36-4.39 5.5-6.38l1.53-1.57c6.12-5.92 13.22-6.45 21.49-6.3 6.92.51 13.68 1.9 20.48 3.25l2.6.4c10.46 1.75 20.32 8 28.4 14.6l2.27 1.65c5.34 3.91 9 7.93 12.73 13.35l2.08 2.74q1.05 1.42 2.17 2.88l2.02 2.67c1.83 2.86 2.73 5.47 3.73 8.71q1.25 2.7 2.56 5.37A35 35 0 0 1 953 505c.46 2.62.82 4.63 2 7q.14 2.65.13 5.31v2.86A45 45 0 0 1 954 528l-.44 3.87A60 60 0 0 1 951 543l-.88 2.8c-2.64 8.2-5.62 15.83-10.12 23.2l-.78 2.3c-1.51 3.35-3.52 5.52-6.03 8.2l-2.58 2.78q-3.76 3.9-7.61 7.72l-2.12 2.31c-1.88 1.7-1.88 1.7-4.88 1.7l-.7 1.8c-1.7 2.85-3.37 3.57-6.3 5.2a499 499 0 0 0-6.72 4.6A41 41 0 0 1 895 609l-2.75 1.43c-7.23 3.47-15.12 5.47-22.81 7.68l-2.71.8A87 87 0 0 1 851 622l-5 1c-6.6 1.21-13.12 1.15-19.81 1.12l-3.47.02h-6.31C814 624 814 624 812 623l-3.31.06c-4.97.07-9.74-.75-14.63-1.56q-3.5-.56-7-1c-3.06-.5-3.06-.5-5.75-1.44A61 61 0 0 0 763 616a118 118 0 0 0-5 5 280 280 0 0 1-4.7 4.35l-1.61 1.46-1.67 1.52L746 632l2.2 1.76c12.44 10 12.44 10 14.8 16.24l1.19 2.5c1.75 5.4.89 10.31-1.2 15.5-6.38 7.15-14.5 8.23-23.61 8.91-15.8.6-34.5-2.32-47.38-11.9l-1 1 1.94 1.05c9.19 5.25 15.06 9.85 18.34 20.16 1.66 6.4 2.3 10.61-.28 16.78q-13.95.28-27.9.41-6.48.06-12.96.2-6.25.12-12.51.15-2.4.02-4.77.08c-12.46.33-12.46.33-15.93-2.58A26 26 0 0 1 634 696l-1.3-2.84c-1.02-4.6-1-9.08-.95-13.79v-2.95c.1-7.04.76-13.53 2.25-20.42h-16c.94 15.8.94 15.8 1.56 21.62 1.1 10.47-.74 17.66-6.56 26.38-2.97.36-2.97.36-6.83.34h-2.13q-3.5-.01-6.98-.05h-4.84q-6.37-.03-12.73-.09l-13-.06q-12.75-.05-25.5-.14c-2.97-5.6-1.93-10.6-.27-16.6 2.24-6.26 5.62-10.7 10.28-15.4-3.44 0-6.7 1.3-9.98 2.24-14.34 3.6-34.4 4.5-47.74-2.7-2.93-1.98-3.4-3.14-4.28-6.54l-.55-1.9c-1.3-6.16.38-10.65 3.33-16.09 4.39-5.95 11.15-11.66 18.22-14l-1.5-1.39C507 630 507 630 507 628l-2.25-.75c-3.03-1.38-4.48-2.84-6.75-5.25l-2.81-2.25c-3.24-2.65-5.83-5.73-8.53-8.9C485 609 485 609 482.44 607c-2.8-2.3-4.6-4.79-6.7-7.72-2.68-3.5-5.74-6.68-8.8-9.89-1.96-2.42-2.88-4.48-3.94-7.39l-1.87-2.3c-2.64-3.35-4.31-6.87-6.13-10.7l-1.5-2.94A312 312 0 0 1 448 554l-1.12-2.5c-1.07-3.06-1.71-6.14-2.38-9.3-.5-2.2-.5-2.2-1.5-5.2-2.34-7.03-3.28-13.92-3.75-21.3-.25-2.7-.25-2.7-.76-4.58-2.91-12.64.55-27.47 5.5-39.12l.88-2.38c3.47-8.47 12.14-15.07 20.28-18.82A38 38 0 0 1 489 452l-.94-2.38c-1.12-3.83-1.51-7.38-1.81-11.35C486 436 486 436 485 433q-.06-2.69 0-5.38c.05-4.4-.16-8.67-.62-13.06-.6-6.77.39-12.92 1.62-19.56l.49-3.44c2.2-15.3 5.42-30.72 12.54-44.56 1.19-2.46 2.06-4.98 2.97-7.56 3.23-8.52 7.58-16.4 11.9-24.39q1.4-2.64 2.72-5.3C518 307 518 307 519.5 304.5a85 85 0 0 0 4.37-8.7c1.85-4.1 3.79-8.1 5.93-12.06 2.37-4.63 2.94-8.58 3.19-13.75q-1.1-.65-2.25-1.3A85 85 0 0 1 524 264l-1.82-1.26c-5.92-4.15-10.55-9.2-15.18-14.74l-1.6-1.87c-7.17-10.92-8.65-26.35-8.4-39.02 0-3.29-.23-6.5-.5-9.8-.52-6.97-.54-13.89-.5-20.87.05-7.6-.1-15.06-.78-22.64-.37-6.45-.26-12.9-.18-19.37.04-5.27-.23-10.2-1.04-15.43-.06-3.6 0-7.19.06-10.79 0-3.3-.23-6.56-.53-9.85-.7-7.79-.9-15.57-1.13-23.38-.21-6.23-.55-12.4-1.2-18.6-.53-6.37-.04-10.75 3.8-16 8.99-10.4 8.99-10.4 15.63-12.02 7.73-.49 13.06 2.52 19.37 6.64l1.8 1.15a238 238 0 0 1 20.42 14.46 55 55 0 0 0 6.78 4.4q3 1.97 6 4 1.42.86 2.87 1.8C571 63 571 63 573.45 65.6c3.94 3.98 7.57 7.1 13.32 7.67a160 160 0 0 0 9.79-.5q3.78-.22 7.54-.4l3.94-.22c6.47-.27 12.92-.2 19.39-.12l3.86.03q7.79.07 15.59.18 5.8.07 11.6.1l3.56.08c6.34.02 10.15-.17 14.96-4.43l2.44-1.94L682 64q2.54-1.84 5.1-3.65 3.02-2.17 5.96-4.4c3.24-2.45 6.57-4.7 9.94-6.95q5.45-4.01 10.79-8.14c26.9-20.46 26.9-20.46 39.7-13.5M554.99 668q-1.46 1.48-3 3l6-2z" fill="#141715"/><path d="M909 448c20.44 11.49 33.64 28.62 40.24 51.09 4.07 15.57 2.74 32.71-2.24 47.91l-.63 1.95c-4.85 14.38-12.83 26.18-23.37 37.05l-1.85 2.07c-20.77 22.49-56.13 31.77-85.67 33.04a253 253 0 0 1-53.29-4.55l-3.35-.62c-5.64-1.11-10.67-2.41-15.84-4.94l2.31-2.62c7.88-9.23 15.2-18.35 20.62-29.26.95-1.68.95-1.68 3.07-4.12 4.88-.37 9.11.35 13.84 1.48 7.84 1.71 15.47 1.98 23.48 1.91q3.36-.02 6.74.02c20.16.03 38.76-5.27 54.94-17.41l3.25-2.31c11.4-11.15 17.94-25.44 18.13-41.31.02-7.94-.51-13.84-5.38-20.38l-1.83-2.64c-6.53-8.82-13.54-12.59-23.98-15.42l-5.32-1.54-2.55-.73c-9.95-2.86-16.49-6.08-23.32-13.98a21 21 0 0 1 .38-16c15.14-15.51 44.52-6.98 61.62 1.31" fill="#121413"/><path d="M753.49 27.35c6.59 5.64 10.03 11.38 10.76 19.96l.23 2.3c.63 6.71.8 13.14.02 19.85-.62 6.1-.62 12.16-.6 18.3v3.74l.03 8.02.02 12.75q0 14.7.06 29.4l.07 37.44c.08 25.17.08 25.17-.4 37.2l-.06 2.32c-.27 5.5-1.7 10.23-3.62 15.37l-1 2.85c-2.54 6.73-5.8 11.18-11 16.15l-1.37 1.56c-1.63 1.44-1.63 1.44-4.2 2.38C740 258 740 258 739.2 259.81c-1.64 3.01-3.82 4.32-6.63 6.25-8.13 5.64-8.13 5.64-9.56 9.94a54 54 0 0 0 6 20q.52 2 1 4 1.08 2.56 2.18 5.07 1.24 2.96 2.32 6a98 98 0 0 0 5.5 11.83c2.24 4.3 3.74 8.4 5 13.1l.97 1.9a38 38 0 0 1 2.47 6.97 40 40 0 0 0 3.12 8.07c1.77 3.77 2.3 7.37 2.97 11.46.47 2.6.47 2.6 1.53 5.72 1.07 3.28 1.4 6.37 1.73 9.8.2 2.08.2 2.08.7 4.58a81 81 0 0 1 1.45 18.55C760 405 760 405 761 408q.14 3.06.13 6.12v3.26C761 420 761 420 760 421q-.06 2.5 0 5a93 93 0 0 1 0 5l-1 1q-.26 2.58-.44 5.2c-.34 4.21-.95 7.84-2.56 11.8l3.63-.5c13.06-1.36 22.52-.89 33.56 6.7q.9.87 1.8 1.8v2l1.82.75c4.12 2.35 5.63 5.9 7.36 10.2q.91 2.24 1.9 4.44c2.45 5.6 3.23 9.53 2.93 15.61l.5 2.91c.89 5.73.38 11.52.13 17.28l-.14 3.56c-.37 9.1-.37 9.1-1.5 13.25q-.2 1.91-.43 3.87A46 46 0 0 1 805 541q-.77 3.42-1.44 6.85A29 29 0 0 1 801 554l-1 5-1 2.37c-1.65 4.34-2.48 8.18-1 12.63l3-1q1.56.44 3.19.87c14.12 3.81 33.7 4.1 47.8.13l4.95-.88c6.46-1.27 12.57-3.46 18.06-7.12l2.36-.9c9.46-3.92 18.62-12.14 22.73-21.6l.9-2.5 1.05-2.4A49 49 0 0 0 906 523l1-1c.99-10.44-.92-19.1-7.5-27.3-6.9-7.78-13.43-11.33-23.5-13.7a197 197 0 0 1-6.62-2.2 112 112 0 0 0-5.32-1.63c-7-2.06-12.26-4.56-17.06-10.17a88 88 0 0 1-2-4l-1.62-2.25c-1.81-3.62-2.11-6.82-1.38-10.75 1.47-2.55 3.36-4.39 5.5-6.38l1.53-1.57c6.12-5.92 13.22-6.45 21.49-6.3 6.92.51 13.68 1.9 20.48 3.25l2.6.4c10.46 1.75 20.32 8 28.4 14.6l2.27 1.65c5.34 3.91 9 7.93 12.73 13.35l2.08 2.74q1.05 1.42 2.17 2.88l2.02 2.67c1.83 2.86 2.73 5.47 3.73 8.71q1.25 2.7 2.56 5.37A35 35 0 0 1 953 505c.46 2.62.82 4.63 2 7q.14 2.65.13 5.31v2.86A45 45 0 0 1 954 528l-.44 3.87A60 60 0 0 1 951 543l-.88 2.8c-2.64 8.2-5.62 15.83-10.12 23.2l-.78 2.3c-1.51 3.35-3.52 5.52-6.03 8.2l-2.58 2.78q-3.76 3.9-7.61 7.72l-2.12 2.31c-1.88 1.7-1.88 1.7-4.88 1.7l-.7 1.8c-1.7 2.85-3.37 3.57-6.3 5.2a499 499 0 0 0-6.72 4.6A41 41 0 0 1 895 609l-2.75 1.43c-7.23 3.47-15.12 5.47-22.81 7.68l-2.71.8A87 87 0 0 1 851 622l-5 1c-6.6 1.21-13.12 1.15-19.81 1.12l-3.47.02h-6.31C814 624 814 624 812 623l-3.31.06c-4.97.07-9.74-.75-14.63-1.56q-3.5-.56-7-1c-3.06-.5-3.06-.5-5.75-1.44A61 61 0 0 0 763 616a118 118 0 0 0-5 5 280 280 0 0 1-4.7 4.35l-1.61 1.46-1.67 1.52L746 632l2.2 1.76c12.44 10 12.44 10 14.8 16.24l1.19 2.5c1.75 5.4.89 10.31-1.2 15.5-6.38 7.15-14.5 8.23-23.61 8.91-15.8.6-34.5-2.32-47.38-11.9l-1 1 1.94 1.05c9.19 5.25 15.06 9.85 18.34 20.16 1.54 5.94 2.8 11.14-.28 16.78l-4-1 1-2c.88-8.28.69-14.93-4.15-21.88-4.43-5.09-9.72-8.36-15.85-11.12v-9l2.64 1.61c14.77 8.82 27.74 11.56 44.86 11.64l3.59.06c14.32.06 14.32.06 19.89-5.17 2.49-5.2 1.65-11.98.02-17.39-3.44-7.86-11.68-12.08-19-15.75a87 87 0 0 1 11.93-12.15 78 78 0 0 0 7.82-8.45c3.46-2.16 6.46-1.19 10.25-.4.46.1.46.1 2.76.53q3.1.6 6.17 1.23c30.96 6.28 62.4 8.3 93.07-.76l3.79-1.1c26.44-8.43 48.36-23.55 62.2-47.9l1.72-2.92c10.1-18.54 13.85-42.8 8.6-63.33A107 107 0 0 0 941 481l-1.3-2.5c-8.76-15.74-24.4-28.7-41.68-34.12-13.26-3.75-30.82-8.39-43.96-2.19-3.46 2.14-5.81 3.81-7.06 7.81-.9 5.46-.71 9.7 2.5 14.31 5.87 7.52 14.66 9.93 23.5 12.25 13.05 3.48 23 7.3 30.75 18.94l1.17 1.68c6.3 9.3 6.3 18.9 5.08 29.82-1.95 9.16-6.23 17.66-12 25l-1.25 1.78C885.39 568.73 864 576.48 846 579c-5.54.27-11.08.3-16.62.31l-2.37.01c-12.4.03-24.01-.98-36.01-4.32-1.32-3.97.05-6.16 1.63-9.8l1.68-4.13 3.07-7.36c4.24-10.89 5.93-22.2 7.62-33.7l.32-2.12c2.82-20.16.75-39.12-10.01-56.64-6.63-6.45-14.73-10.27-23.93-10.56-6.42.08-12.26 1.5-18.38 3.31-.16-5.15.44-9.85 1.47-14.86 1.67-8.8 2.09-17.38 2.03-26.33l-.01-2.33c-.2-32.66-9.07-62.28-22.34-91.9-17.08-38.26-17.08-38.26-14.15-47.58 3-3.25 6.46-5.5 10.2-7.84 12.75-8.2 23.45-18.15 27.8-33.16a64 64 0 0 0 1.16-11.7l.03-3.37.02-3.66.03-3.89.07-10.58.07-11.2.12-18.97.13-19.18.02-2.35q0-2.35.03-4.69.11-14.97.19-29.92v-2.24l.05-8.8q.06-12.7.2-25.39.09-6.39.13-12.78l.08-5.72q.05-3.82.08-7.66l.06-2.2c-.01-5.03-1.35-7.8-4.47-11.7-3.56-3.28-7.46-5.32-12.31-5.69-11.74.84-22.41 11.38-31.52 18.1q-4.52 3.3-9.11 6.53a1043 1043 0 0 0-19.58 14.33L681.15 69l-2.06 1.54-2.1 1.47-2.15 1.65c-4.12 1.96-7.91 1.83-12.42 1.86l-2.88.06a1457 1457 0 0 1-15.84.2l-9.94.1q-9.23.07-18.43.51-5.33.25-10.64.4-2.46.1-4.9.26c-13.86.92-21.48-3.8-32.27-12.14-4.33-3.27-8.86-6.23-13.4-9.23L548.66 52l-2.75-1.84-5.62-3.76-8.27-5.54-2.53-1.7c-7.2-4.79-12.7-7.23-21.48-6.16-5.2 1.58-8.22 4.92-10.97 9.5-2.06 5.01-1.58 10.28-1.4 15.62l.04 3.44q.13 8.24.8 16.45c.68 9.2.89 18.4 1.13 27.6l.27 9.87.75 28.06c1.22 45.91 1.22 45.91 2.12 65.14q.11 2.3.19 4.6c.67 17.2 4.7 29.94 17.02 42.07a68 68 0 0 0 7.04 5.48l2.07 1.45q2.04 1.38 4.12 2.7l1.89 1.28 1.7 1.1c2.08 2.8 1.54 5.27 1.23 8.64-1.05 3.46-1.05 3.46-2.54 7.03l-.81 1.96a239 239 0 0 1-9.05 18.62l-3 5.68q-3.43 6.6-6.91 13.18c-10.26 19.47-18.14 39.97-22.7 61.53l-.58 2.78c-1.57 8.28-1.72 16.44-1.66 24.84v2.13a231 231 0 0 0 2.25 32.25q.52 4.5 1 9c-7.53-.88-7.53-.88-9.95-1.5-8.27-2-14.97-.39-22.31 3.66C449.57 464 445.53 474.46 443 486c-.56 3-.84 5.95-1 9l-.2 3.01c-1.45 43.17 18.69 81.17 47.26 111.93 5.9 6.21 12.4 11.46 19.29 16.53l1.69 1.25 4.72 3.43L517 633v2l-2.1.66c-8.62 2.92-16.37 5.85-20.96 14.15-2.57 5.91-3 10.94-1 17.06 4.7 4.85 11.43 5.33 17.9 5.6q3.83.04 7.66.03h2c14.77-.07 26.2-3.3 39.5-9.5h3v6l-1.97.85c-8.72 4-13.67 8.84-17.34 17.74-1.55 5.45-1.21 11 .3 16.41h-3c-2.8-4.75-2.01-8.75-1-14 2.07-7.42 5.62-12.58 11-18-3.43 0-6.68 1.3-9.97 2.24-14.34 3.6-34.4 4.5-47.74-2.7-2.93-1.98-3.4-3.14-4.28-6.54l-.55-1.9c-1.3-6.16.38-10.65 3.33-16.09 4.39-5.95 11.15-11.66 18.22-14l-1.5-1.39C507 630 507 630 507 628l-2.25-.75c-3.03-1.38-4.48-2.84-6.75-5.25l-2.81-2.25c-3.24-2.65-5.83-5.73-8.53-8.9C485 609 485 609 482.44 607c-2.8-2.3-4.6-4.79-6.7-7.72-2.68-3.5-5.74-6.68-8.8-9.89-1.96-2.42-2.88-4.48-3.94-7.39l-1.87-2.3c-2.64-3.35-4.31-6.87-6.13-10.7l-1.5-2.94A312 312 0 0 1 448 554l-1.12-2.5c-1.07-3.06-1.71-6.14-2.38-9.3-.5-2.2-.5-2.2-1.5-5.2-2.34-7.03-3.28-13.92-3.75-21.3-.25-2.7-.25-2.7-.76-4.58-2.91-12.64.55-27.47 5.5-39.12l.88-2.38c3.47-8.47 12.14-15.07 20.28-18.82A38 38 0 0 1 489 452l-.94-2.38c-1.12-3.83-1.51-7.38-1.81-11.35C486 436 486 436 485 433q-.06-2.69 0-5.38c.05-4.4-.16-8.67-.62-13.06-.6-6.77.39-12.92 1.62-19.56l.49-3.44c2.2-15.3 5.42-30.72 12.54-44.56 1.19-2.46 2.06-4.98 2.97-7.56 3.23-8.52 7.58-16.4 11.9-24.39q1.4-2.64 2.72-5.3C518 307 518 307 519.5 304.5a85 85 0 0 0 4.37-8.7c1.85-4.1 3.79-8.1 5.93-12.06 2.37-4.63 2.94-8.58 3.19-13.75q-1.1-.65-2.25-1.3A85 85 0 0 1 524 264l-1.82-1.26c-5.92-4.15-10.55-9.2-15.18-14.74l-1.6-1.87c-7.17-10.92-8.65-26.35-8.4-39.02 0-3.29-.23-6.5-.5-9.8-.52-6.97-.54-13.89-.5-20.87.05-7.6-.1-15.06-.78-22.64-.37-6.45-.26-12.9-.18-19.37.04-5.27-.23-10.2-1.04-15.43-.06-3.6 0-7.19.06-10.79 0-3.3-.23-6.56-.53-9.85-.7-7.79-.9-15.57-1.13-23.38-.21-6.23-.55-12.4-1.2-18.6-.53-6.37-.04-10.75 3.8-16 8.99-10.4 8.99-10.4 15.63-12.02 7.73-.49 13.06 2.52 19.37 6.64l1.8 1.15a238 238 0 0 1 20.42 14.46 55 55 0 0 0 6.78 4.4q3 1.97 6 4 1.42.86 2.87 1.8C571 63 571 63 573.45 65.6c3.94 3.98 7.57 7.1 13.32 7.67a160 160 0 0 0 9.79-.5q3.78-.22 7.54-.4l3.94-.22c6.47-.27 12.92-.2 19.39-.12l3.86.03q7.79.07 15.59.18 5.8.07 11.6.1l3.56.08c6.34.02 10.15-.17 14.96-4.43l2.44-1.94L682 64q2.54-1.84 5.1-3.65 3.02-2.17 5.96-4.4c3.24-2.45 6.57-4.7 9.94-6.95q5.45-4.01 10.79-8.14c26.9-20.46 26.9-20.46 39.7-13.5M554.99 668q-1.46 1.48-3 3l6-2z" fill="#E3E3E5"/><path d="M578 495c3.93 1.58 6.24 4.14 9.12 7.19 10.65 10.9 23.67 19.63 39.35 20.02 17.61-1.07 32.08-11.5 43.53-24.21q1.49-1.51 3-3c-.44 9.94-6.24 18.12-13.29 24.79-5.8 4.73-12.57 9.83-19.71 12.21l.09 2.09c.79 18.99 1.04 37.97 1.09 56.97q0 3.82.03 7.64c.23 46.42.23 46.42-3.21 53.3q-5.4.04-10.81.06l-3.11.03-2.97.01-2.75.01C616 652 616 652 613 651c-6.23-39.18-3.36-79.66 0-119l-2.24-1.21c-13.6-7.62-24.7-16.68-31.76-30.79-.75-2.94-.75-2.94-1-5" fill="#000"/><path d="M753.49 27.35c6.6 5.64 10.02 11.37 10.76 19.96l.24 2.15c.97 9.61.33 19-.5 28.6q-.12 1.71-.28 3.5L763 90h-1l-1 130h-1v-2.8q.15-33.64.2-67.3l.1-32.54q.06-14.2.08-28.37 0-7.5.04-15.02.04-7.06.03-14.14 0-2.6.03-5.19v-7.09l.04-2.07c-.06-4.9-1.5-7.67-4.52-11.48-3.56-3.28-7.46-5.32-12.31-5.69-11.74.84-22.41 11.38-31.52 18.1q-4.52 3.3-9.11 6.53a1043 1043 0 0 0-19.58 14.33L681.15 69l-2.06 1.54-2.1 1.47-2.15 1.65c-4.12 1.96-7.91 1.83-12.42 1.86l-2.88.06a1457 1457 0 0 1-15.84.2l-9.94.1q-9.23.07-18.43.51-5.33.25-10.64.4-2.46.1-4.9.26c-13.86.92-21.48-3.8-32.27-12.14-4.33-3.27-8.86-6.23-13.4-9.23L548.66 52l-2.75-1.84-5.62-3.76-8.27-5.54-2.53-1.7c-7.2-4.79-12.7-7.23-21.48-6.16-5.2 1.58-8.22 4.92-10.97 9.5-2.06 5.01-1.58 10.28-1.4 15.62l.04 3.44q.13 8.24.8 16.45c.68 9.2.89 18.4 1.13 27.6l.27 9.87.75 28.06c1.22 45.91 1.22 45.91 2.12 65.14q.11 2.3.19 4.6c.67 17.2 4.7 29.94 17.02 42.07a68 68 0 0 0 7.04 5.48l2.07 1.45q2.04 1.38 4.12 2.7l1.89 1.28 1.7 1.1c2.08 2.8 1.54 5.27 1.23 8.64-1.05 3.46-1.05 3.46-2.54 7.03l-.81 1.96a239 239 0 0 1-9.05 18.62l-3 5.68q-3.43 6.6-6.91 13.18c-10.26 19.47-18.14 39.97-22.7 61.53l-.58 2.78c-1.57 8.28-1.72 16.44-1.66 24.84v2.13a231 231 0 0 0 2.25 32.25q.52 4.5 1 9c-7.53-.88-7.53-.88-9.95-1.5-8.27-2-14.97-.39-22.31 3.66C449.57 464 445.53 474.46 443 486c-.56 3-.84 5.95-1 9l-.2 3.01c-1.45 43.17 18.69 81.17 47.26 111.93 5.9 6.21 12.4 11.46 19.29 16.53l1.69 1.25 4.72 3.43L517 633v2l-2.1.66c-8.62 2.92-16.37 5.85-20.96 14.15-2.57 5.91-3 10.94-1 17.06 4.7 4.85 11.43 5.33 17.9 5.6q3.83.04 7.66.03h2c14.77-.07 26.2-3.3 39.5-9.5h3v6l-1.97.85c-8.72 4-13.67 8.84-17.34 17.74-1.55 5.45-1.21 11 .3 16.41h-3c-2.8-4.75-2.01-8.75-1-14 2.07-7.42 5.62-12.58 11-18-3.43 0-6.68 1.3-9.97 2.24-14.34 3.6-34.4 4.5-47.74-2.7-2.93-1.98-3.4-3.14-4.28-6.54l-.55-1.9c-1.3-6.16.38-10.65 3.33-16.09 4.39-5.95 11.15-11.66 18.22-14l-1.5-1.39C507 630 507 630 507 628l-2.25-.75c-3.03-1.38-4.48-2.84-6.75-5.25l-2.81-2.25c-3.24-2.65-5.83-5.73-8.53-8.9C485 609 485 609 482.44 607c-2.8-2.3-4.6-4.79-6.7-7.72-2.68-3.5-5.74-6.68-8.8-9.89-1.96-2.42-2.88-4.48-3.94-7.39l-1.87-2.3c-2.64-3.35-4.31-6.87-6.13-10.7l-1.5-2.94A312 312 0 0 1 448 554l-1.12-2.5c-1.07-3.06-1.71-6.14-2.38-9.3-.5-2.2-.5-2.2-1.5-5.2-2.34-7.03-3.28-13.92-3.75-21.3-.25-2.7-.25-2.7-.76-4.58-2.91-12.64.55-27.47 5.5-39.12l.88-2.38c3.47-8.47 12.14-15.07 20.28-18.82A38 38 0 0 1 489 452l-.94-2.38c-1.12-3.83-1.51-7.38-1.81-11.35C486 436 486 436 485 433q-.06-2.69 0-5.38c.05-4.4-.16-8.67-.62-13.06-.6-6.77.39-12.92 1.62-19.56l.49-3.44c2.2-15.3 5.42-30.72 12.54-44.56 1.19-2.46 2.06-4.98 2.97-7.56 3.23-8.52 7.58-16.4 11.9-24.39q1.4-2.64 2.72-5.3C518 307 518 307 519.5 304.5a85 85 0 0 0 4.37-8.7c1.85-4.1 3.79-8.1 5.93-12.06 2.37-4.63 2.94-8.58 3.19-13.75q-1.1-.65-2.25-1.3A85 85 0 0 1 524 264l-1.82-1.26c-5.92-4.15-10.55-9.2-15.18-14.74l-1.6-1.87c-7.17-10.92-8.65-26.35-8.4-39.02 0-3.29-.23-6.5-.5-9.8-.52-6.97-.54-13.89-.5-20.87.05-7.6-.1-15.06-.78-22.64-.37-6.45-.26-12.9-.18-19.37.04-5.27-.23-10.2-1.04-15.43-.06-3.6 0-7.19.06-10.79 0-3.3-.23-6.56-.53-9.85-.7-7.79-.9-15.57-1.13-23.38-.21-6.23-.55-12.4-1.2-18.6-.53-6.37-.04-10.75 3.8-16 8.99-10.4 8.99-10.4 15.63-12.02 7.73-.49 13.06 2.52 19.37 6.64l1.8 1.15a238 238 0 0 1 20.42 14.46 55 55 0 0 0 6.78 4.4q3 1.97 6 4 1.42.86 2.87 1.8C571 63 571 63 573.45 65.6c3.94 3.98 7.57 7.1 13.32 7.67a160 160 0 0 0 9.79-.5q3.78-.22 7.54-.4l3.94-.22c6.47-.27 12.92-.2 19.39-.12l3.86.03q7.79.07 15.59.18 5.8.07 11.6.1l3.56.08c6.34.02 10.15-.17 14.96-4.43l2.44-1.94L682 64q2.54-1.84 5.1-3.65 3.02-2.17 5.96-4.4c3.24-2.45 6.57-4.7 9.94-6.95q5.45-4.01 10.79-8.14c26.9-20.46 26.9-20.46 39.7-13.5M554.99 668q-1.46 1.48-3 3l6-2z" fill="#E4E6E6"/><path d="M761 88c2.55 2.95 3.37 4.74 3.37 8.64l.01 2.81-.02 3.06v3.24q0 5.33-.03 10.66l-.01 7.44q0 8.82-.05 17.64-.03 8.94-.03 17.87l-.04 19.11v3.61a941 941 0 0 1-.59 36.37c-.26 5.58-1.65 10.34-3.61 15.55l-.99 2.86c-2.55 6.72-5.8 11.17-11.01 16.14l-1.38 1.56C745 256 745 256 742.44 256.94 740 258 740 258 739.19 259.81c-1.64 3.02-3.82 4.32-6.63 6.25-8.13 5.64-8.13 5.64-9.56 9.94a53 53 0 0 0 6 20l1 4q1.08 2.55 2.18 5.07 1.24 2.97 2.32 5.99a98 98 0 0 0 5.51 11.84c2.23 4.3 3.73 8.4 4.99 13.1l.96 1.9a38 38 0 0 1 2.48 6.98 39 39 0 0 0 3.12 8.06c1.77 3.77 2.31 7.37 2.97 11.46.47 2.6.47 2.6 1.53 5.72 1.07 3.29 1.4 6.37 1.73 9.79.21 2.09.21 2.09.71 4.59a82 82 0 0 1 1.44 18.55C760 405 760 405 761 408q.13 3.06.12 6.12l.01 3.26C761 420 761 420 760 421a93 93 0 0 0 0 5 93 93 0 0 1 0 5l-1 1q-.27 2.6-.44 5.19c-.34 4.22-.96 7.85-2.56 11.81l3.62-.5c13.07-1.36 22.53-.89 33.57 6.69L795 457v2l1.81.75c4.12 2.35 5.63 5.89 7.36 10.2q.92 2.23 1.91 4.44c2.44 5.6 3.22 9.53 2.92 15.61l.52 2.9c.89 5.81.32 11.7.04 17.54l-.16 3.66q-.18 4.45-.4 8.9l-3 1 .06-2.87q.11-5.38.16-10.78l.08-4.62c.36-16.29-2.34-30.38-10.99-44.48-6.63-6.45-14.73-10.26-23.93-10.56-6.42.09-12.26 1.49-18.38 3.31-.16-5.15.44-9.84 1.47-14.86 1.66-8.81 2.09-17.38 2.03-26.33l-.01-2.33c-.19-32.66-9.07-62.28-22.34-91.91-17.08-38.25-17.08-38.25-14.15-47.57 3.01-3.24 6.46-5.49 10.19-7.84 14.35-9.24 25.02-20.42 28.84-37.51 1.24-6.3 1.28-12.5 1.29-18.9l.03-3.91q.04-5.26.05-10.51l.07-11.02.12-20.82.14-23.73q.15-24.38.27-48.76" fill="#E8E9E9"/><path d="M753.49 27.35c6.6 5.64 10.02 11.37 10.76 19.96l.24 2.15c.97 9.61.33 19-.5 28.6q-.12 1.71-.28 3.5L763 90h-1l-1 130h-1v-2.8q.15-33.64.2-67.3l.1-32.54q.06-14.2.08-28.37 0-7.5.04-15.02.04-7.06.03-14.14 0-2.6.03-5.19v-7.09l.04-2.07c-.06-4.9-1.5-7.67-4.52-11.48-3.56-3.28-7.46-5.32-12.31-5.69-11.74.84-22.41 11.38-31.52 18.1q-4.52 3.3-9.11 6.53a1043 1043 0 0 0-19.58 14.33L681.15 69l-2.06 1.54-2.1 1.47-2.15 1.65c-4.12 1.96-7.91 1.83-12.42 1.86l-2.88.06a1457 1457 0 0 1-15.84.2l-9.94.1q-9.23.07-18.43.51-5.33.25-10.64.4-2.46.1-4.9.26c-13.86.92-21.48-3.8-32.27-12.14-4.33-3.27-8.86-6.23-13.4-9.23L548.66 52l-2.75-1.84-5.62-3.76-8.27-5.54-2.53-1.7c-7.2-4.79-12.7-7.23-21.48-6.16-5.2 1.58-8.22 4.92-10.97 9.5-2.06 5.01-1.58 10.28-1.4 15.62l.06 3.66c.14 7.02.46 14 1.09 21 .44 6.4.3 12.81.22 19.22h-1l-.18-2.89q-.14-1.86-.26-3.8l-.24-3.76A63 63 0 0 0 494 83h-1l-.18-3.55-.26-4.76-.13-2.5q-.34-6.65-1.05-13.25c-.64-7.22-.8-12.52 3.62-18.57 8.99-10.4 8.99-10.4 15.63-12 7.73-.5 13.06 2.51 19.37 6.63l1.8 1.15a238 238 0 0 1 20.42 14.46 55 55 0 0 0 6.78 4.4q3 1.97 6 4 1.42.86 2.87 1.8C571 63 571 63 573.45 65.6c3.94 3.98 7.57 7.1 13.32 7.67a160 160 0 0 0 9.79-.5q3.78-.22 7.54-.4l3.94-.22c6.47-.27 12.92-.2 19.39-.12l3.86.03q7.79.07 15.59.18 5.8.07 11.6.1l3.56.08c6.34.02 10.15-.17 14.96-4.43l2.44-1.94L682 64q2.54-1.84 5.1-3.65 3.02-2.17 5.96-4.4c3.24-2.45 6.57-4.7 9.94-6.95q5.45-4.01 10.79-8.14c26.9-20.46 26.9-20.46 39.7-13.5" fill="#E2E3E3"/><path d="M758 618c0 3 0 3-2.62 5.7l-3.38 2.99-1.73 1.55L746 632l2.21 1.76c12.43 9.99 12.43 9.99 14.79 16.24l1.19 2.5c1.75 5.39.89 10.31-1.19 15.5-6.4 7.15-14.52 8.24-23.62 8.91-15.79.6-34.5-2.32-47.38-11.91l-1 1 1.94 1.07c9.19 5.24 15.06 9.84 18.34 20.15 1.54 5.94 2.81 11.15-.28 16.78l-4-1 1-2c.88-8.28.68-14.93-4.16-21.88-4.42-5.09-9.71-8.36-15.84-11.12v-9l2.64 1.61c14.76 8.82 27.73 11.57 44.86 11.64l3.59.06c14.32.07 14.32.07 19.89-5.17 2.49-5.21 1.65-11.98.02-17.39-3.44-7.86-11.68-12.08-19-15.75 5.1-6.25 10.53-12.6 18-16" fill="#E6E6E7"/><path d="m639.35 208.13 1.65.88c.62 5.1.62 5.1 0 8a35 35 0 0 1-5.31 4.48c-2.63 2.35-2.98 5.16-3.7 8.51l-2 2c-2.72-.2-4.51-.69-6.8-2.19-1.71-2.6-1.4-4.76-1.2-7.8l-1.74-.7c-2.93-1.7-4.45-3.44-6.25-6.3-.06-2.57-.06-2.57 1-5 7.49-7.1 15.63-6.17 24.35-1.88" fill="#626462"/><path d="M753.49 27.35c6.6 5.64 10.02 11.37 10.76 19.96l.24 2.15c.97 9.61.33 19-.5 28.6q-.12 1.71-.28 3.5L763 90h-1l-1 130h-1v-2.8q.15-33.64.2-67.3l.1-32.54q.06-14.2.08-28.37 0-7.5.04-15.02.04-7.06.03-14.14 0-2.6.03-5.19v-7.09l.04-2.07c-.06-4.9-1.5-7.67-4.52-11.48-3.56-3.28-7.46-5.32-12.31-5.69-12.44.9-24.06 12.53-33.7 19.7q-1.46-1-3-2c33.59-25.67 33.59-25.67 46.5-18.66" fill="#E5E6E7"/><path d="M614 653h23l-.5 5.69q-.64 9.52-.75 19.06l-.06 2.61c-.05 8.85 1.91 16.56 7.31 23.64-2.33-.21-2.33-.21-5-1-1.55-2-1.55-2-2.75-4.56l-1.23-2.51c-2.15-6.18-2.21-12.69-2.21-19.18v-2.22c.06-6.33.93-12.31 2.19-18.53h-16c.94 15.8.94 15.8 1.56 21.62 1.11 10.47-.75 17.66-6.56 26.38l-4-1 1.88-2.62c4.45-7.08 4.4-13.31 4.31-21.44l-.02-3.38c-.07-7.57-.41-15.02-1.17-22.56" fill="#F0F1F1"/><path d="m792.25 574.63 2.75.38v2h-2l-.19 2.92c-.72 5-3.23 8.83-5.81 13.08l-1.42 2.44A390 390 0 0 1 781 603l-1.69 2.86A44 44 0 0 1 774 613c-4.15.91-5.85.72-9.44-1.5L763 610l2.2-2.15c8.65-8.78 15.14-18.05 20.91-28.94 1.82-3.16 2.39-3.86 6.14-4.28" fill="#010101"/><path d="M761 88c3.38 4.5 3.38 4.5 3.37 8.64l.01 2.81-.02 3.06v3.24q0 5.33-.03 10.66l-.01 7.44q0 8.82-.05 17.64-.03 8.94-.03 17.87l-.04 19.11v3.61a986 986 0 0 1-.53 34.39l-.06 2.51c-.21 4.5-.29 5.7-3.61 9.02z" fill="#ECEFED"/><path d="M494 73h1c2.9 44.1 4.16 87.8 4 132l-2-1c-1.67-10.09-1.04-20.7-.98-30.88.02-6.49-.22-12.85-.8-19.32-.37-6.45-.26-12.9-.18-19.36A94 94 0 0 0 494 119q-.06-3.6 0-7.19c.04-4.58-.06-9.01-.56-13.56-.83-8.41-.01-16.85.56-25.25" fill="#EAECEB"/><path d="m706 47 3 1a299 299 0 0 1-21.85 16.46 87 87 0 0 0-4.81 3.75c-8.63 6.76-15.61 8.03-26.48 7.67l-4.52-.04q-5.88-.06-11.75-.22-6.03-.13-12.05-.18-11.77-.15-23.54-.44v-1l6.15-.68C612 73 612 73 613 72q2.67-.1 5.34-.05l3.46.04a996 996 0 0 0 11.61.12q6.21.05 12.41.14 5.97.07 11.94.11l3.74.07c6.49.02 10.6 0 15.5-4.43l2.44-1.94L682 64q2.54-1.84 5.11-3.64 3-2.18 5.95-4.42A175 175 0 0 1 703 49z" fill="#E8E9EB"/><path d="M563 663v6l-1.98.85c-8.71 3.99-13.66 8.84-17.34 17.74-1.54 5.45-1.2 11 .32 16.41h-3c-2.8-4.75-2.03-8.75-1-14 2.05-7.41 5.61-12.58 11-18-3.45 0-6.69 1.29-9.98 2.25-6.75 1.68-13.36 1.96-20.27 2l-2.72.06-2.61.02-2.35.03c-2.57-.45-3.44-1.39-5.07-3.36l2.12-.01c18.25-.19 36.35-9.99 52.88-9.99m-8 5-3 3 6-2z" fill="#E0E0E7"/><path d="m688 659 2.64 1.61c13.84 8.27 26.33 11.28 42.36 11.95l2.93.13 7.07.31v1c-18.38 1.49-35.51 2.54-51-9l-1 1 1.94 1.07c9.19 5.24 15.06 9.84 18.34 20.15 1.54 5.94 2.81 11.15-.28 16.78l-4-1 1-2c.88-8.28.68-14.93-4.16-21.88-4.42-5.09-9.71-8.36-15.84-11.12z" fill="#E0E1E3"/><path d="M690.25 184.85c8.19-.24 14.85.55 21.75 5.15v2a89 89 0 0 1-8.63-2.06c-14.63-3.65-30.09 1.13-43.5 6.84A317 317 0 0 1 652 200v-3c5.14-4 5.14-4 9-4v-2c9.95-3.64 18.63-5.65 29.25-6.15" fill="#030503"/><path d="m602 197 1 2c-2.85-.46-4.46-1.29-6.94-2.88-9.47-5.38-19.7-5.39-30.31-5.43l-3.37-.02c-6.43.06-12.16.68-18.38 2.33v2l-5 1c1.02-2.72 1.78-3.86 4.25-5.45 18.11-8.15 43.16-6.51 58.75 6.45" fill="#030404"/><path d="M761 45h1l.43 11.99.21 6.03q.47 13.48.36 26.98h-1l-1 130h-1l-.05-50.73q0-11.8-.03-23.57c-.09-67.61-.09-67.61 1.08-100.7" fill="#A9ABAA"/><path d="M499 190h1l.12 3.19q.23 5.96.51 11.9l.21 5.12c.71 18.67 3.95 32.21 17.71 45.58 2.7 2.43 5.32 4.4 8.45 6.21l-2 2c-7.21-3.05-12.13-9.12-17-15l-2.05-2.31c-3.78-5.2-5.23-11.56-6.95-17.69l-.83-2.96c-2.5-11.77-.34-24.19.83-36.04" fill="#DFE2E0"/><path d="m759 224 1 4h2c-3.18 10.06-6.29 17.64-14 25l-1.38 1.56C745 256 745 256 742.44 256.94 740 258 740 258 739.19 259.81c-1.64 3.02-3.82 4.32-6.63 6.25-3.1 2.15-5.99 4.17-8.56 6.94l-2 2c-.41 1.95-.41 1.95-.62 4.12L721 283h-1c-.77-4.21-.96-7.81 0-12 2.97-3.29 6.45-5.49 10.19-7.84 12.85-8.27 23.27-18.14 27.81-33.16.75-3.62.75-3.62 1-6" fill="#E5E6E6"/><path d="M513 29c1.81 1.5 1.81 1.5 3 3l-2.01.33c-6.7 1.2-11.47 2.25-15.6 7.97-3.46 5.66-2.98 11.37-2.77 17.82l.07 3.66c.14 7.02.46 14 1.09 20.99.44 6.4.29 12.82.22 19.23h-1l-.18-2.89-.26-3.8-.24-3.76A63 63 0 0 0 494 83h-1l-.18-3.55-.26-4.76-.13-2.5q-.35-6.64-1.05-13.25c-.64-7.22-.79-12.52 3.62-18.56 10.68-12.51 10.68-12.51 18-11.38" fill="#C9C8CB"/><path d="M882 563v3c-4.98 3.92-10.4 6.06-16.31 8.19l-2.08.75c-10.39 3.59-20.36 4.34-31.3 4.18l-3.6-.02-8.71-.1c2.84-2.43 4.48-3.37 8.23-3.22l2.44.05 2.52.11c6.65.25 12.36-.3 18.81-1.94l4.94-.88c6.46-1.27 12.57-3.46 18.06-7.12q2.49-1.04 5-2z" fill="#EBEBED"/><path d="M908 504c4.15 6.22 2.8 15.78 2 23a61 61 0 0 1-12 25l-1.39 1.88c-3.8 4.84-8.39 7.95-13.61 11.12v-3c1.94-1.69 1.94-1.69 4.56-3.56 6.95-5.36 12.24-11.82 14.44-20.44l1.5-4.44L905 529l1.05-3.2c1.11-4.45 1.4-8.66 1.57-13.24l.12-2.5z" fill="#D7D7D9"/><path d="M761 88c3 4 3 4 3.08 6.42l-.38 2.67c-.67 5.53-.87 10.95-.91 16.52l-.03 3.02-.08 9.76-.06 6.81-.15 17.84-.16 18.24L762 205h-1z" fill="#F4F7F5"/><path d="m617.95 71.85 3.2-.02h7.02l7.44-.02q5.7 0 11.43-.04h7.2l3.48-.03 3.2.01h2.84C666 72 666 72 668 74c-13.67 1.12-27.3 1.11-41 1.06l-6.72-.02q-8.13 0-16.28-.04v-1l6.16-.69c2.97-.5 4.39-1.45 7.79-1.46" fill="#EFF1F2"/><path d="m806 478 2 1c.44 2.68.75 5.3 1 8l.28 2.15c.87 7.21.63 14.24.28 21.47l-.16 3.63q-.18 4.37-.4 8.75l-3 1 .02-2.95.03-10.97.03-4.72c.04-8.22.04-16.31-.96-24.48L805 479z" fill="#EFF1F0"/><path d="M487 404h1l.06 1.92c.42 12.75 1.07 25.38 2.69 38.04q.66 5.51 1.25 11.04l-4-1 2-1-1.44-2.88c-1.7-3.92-2.07-7.65-2.35-11.89C486 436 486 436 485 433q.32-2.42.71-4.83c.61-4.51.67-9.07.85-13.61l.13-3.08z" fill="#D8DADC"/><path d="M691 663c3.93.64 7.29 1.85 10.94 3.44 10.45 4.51 19.81 5.65 31.06 6.12l2.93.13 7.07.31v1c-18.13 1.47-35.8 2.71-51-9z" fill="#E5E6E7"/><path d="M617 672h2c1.39 12.59 1.16 21.26-6 32l-4-1 1.81-2.38c5.66-8.64 5.8-18.62 6.19-28.62" fill="#E9EBEC"/><path d="m948 493 3 1c1.98 9.56 1.98 9.56 2.56 14.06C954 511 954 511 955 512q.21 2.65.25 5.31l.08 2.93c-.37 3.13-1.25 4.45-3.33 6.76l-.15-1.69-.73-7.75-.23-2.66a103 103 0 0 0-2.48-15c-.5-2.33-.56-4.53-.41-6.9" fill="#F1F1F3"/><path d="M612 73v1l12 1v1h-40l-1-2c4.63-.85 9.24-1.32 13.94-1.62l2.05-.16c4.54-.3 8.56 0 13.01.78" fill="#D0D1D3"/><path d="m868 436.38 2.88.33 2.12.29v1h-1.98c-8.23.36-16.74 2.45-22.59 8.68-2.5 4.03-3.46 8.72-4.43 13.31-2-2-2-2-2.47-5.72.11-4.2 1.43-6.21 4.35-9.14l1.62-1.5 1.53-1.57c5.52-5.35 11.41-6.62 18.97-5.69" fill="#E7E8E9"/><path d="M758 399h1a62 62 0 0 1 2 21l-1 1c.01 2.52.13 5.03.26 7.55-.26 2.45-.26 2.45-1.77 4.27L757 434c-.18-11.7.37-23.32 1-35" fill="#F0F2F1"/><path d="M483.4 452.68q4.31 1.08 8.6 2.32l1-2-1 5c-1.88.63-1.88.63-4 1l-2-2c-3.36-1.05-6.52-1-10-.93-3.8.05-6.58-.24-10-2.07 5.25-3.5 11.37-2.52 17.4-1.32M466 455l2 1Z" fill="#252828"/><path d="M487 388h2l-.18 2.73c-.77 11.75-1.31 23.51-1.82 35.27h-1c-2.39-14.22-2.39-14.22-2-20l1-1q.32-3.71.5-7.44c.37-7.29.37-7.29 1.5-9.56" fill="#EFF1F4"/><path d="M756 430c2.48 4.35 2.44 8.1 2 13-1 3.56-1 3.56-2 6h4l1 3-8 2c-.18-5.5.47-10.54 1.5-15.94l.43-2.36z" fill="#D8DADB"/><path d="M439 491h2c.61 10.34 1.19 20.64 1 31h-2l-.18-1.83-.26-2.42-.24-2.39c-.32-2.36-.32-2.36-.85-4.24-.5-2.27-.5-4.12-.35-6.45l.15-2.42.17-2.5.16-2.55q.18-3.1.4-6.2" fill="#EFF1F1"/><path d="M810 621h31v1h-8v2q-4.62.13-9.25.19l-2.64.07-2.56.03-2.35.05C814 624 814 624 810 621" fill="#F3F4F6"/><path d="m762 43 2 1c.35 2.41.57 4.7.69 7.12l.12 2.15c.34 7.3-.13 14.47-.81 21.73h-2z" fill="#F2F4F2"/><path d="M497 108h1l1 8 3 1-.47 1.58c-.67 3.05-.86 6.03-1.07 9.15l-.26 3.93-.26 4.09-.28 4.14L499 150h-1l-.64-17.55q-.45-12.22-.36-24.45" fill="#414242"/><path d="m494 648 3 1c-.88 3.88-.88 3.88-2 5a70 70 0 0 0-.12 4.81l-.01 2.65A22 22 0 0 0 496 668l2 1-3 1c-3.51-4.28-4.57-7.2-4.34-12.74.52-3.46 1.75-6.15 3.34-9.26" fill="#252628"/><path d="M614 654h4c.11 11.06-.09 21.98-1 33h-1l-.08-1.74c-.93-21.06-.93-21.06-1.92-31.26" fill="#D4D5D6"/><path d="M751 673v2c-8.79 1.66-18.16 2.99-27 1l-2-2 12.83-.64q8.09-.42 16.17-.36" fill="#ECEEEC"/><path d="m808.44 574.25 2.28.45q3.14.63 6.28 1.3l5 1c-2 2-2 2-5.68 2.31-6.9-.12-13.62-1.83-20.32-3.31 3.79-4.06 7.52-2.82 12.44-1.75" fill="#DFE0DF"/><path d="m756 383 3 2c.12 3.38.12 3.38 0 7l.56 2.25C760 396 760 396 759 399q-.22 2.44-.32 4.89l-.37 8.79L758 420h-1z" fill="#E2E3E1"/><path d="M761 655h1l.44 2.75c.56 3.25.56 3.25 1.31 5.31.39 3.05-.96 4.53-2.75 6.94a33 33 0 0 1-8 5l-4-3 1.64-.52 2.17-.73 2.15-.7c2.57-1.32 3.59-2.55 5.04-5.05.51-2.58.51-2.58.69-5.25l.2-2.7z" fill="#DCDFDC"/><path d="m498 641 2 1-1.24 1.57-1.64 2.12-1.61 2.07c-2.85 4.23-3.77 8.01-4.13 13.05l-.23 2.96L491 666l-2-1c-1.95-7.44-.24-11.68 3.26-18.4A17.5 17.5 0 0 1 498 641" fill="#EBECEE"/><path d="M499 190h1v34h-2c-1.29-7.29-.71-14.16-.06-21.5l.3-3.65z" fill="#E1E1E2"/><path d="M863 436c9.04-.31 17.56-.58 25 5l-26-2z" fill="#D4D8D5"/><path d="M494 73h1c.99 11.68 1.11 23.28 1 35-5.36-10.22-2.76-23.85-2-35" fill="#F1F1F3"/><path d="m938 568 2 1c-1.43 4.49-3.93 7.46-7.12 10.81l-1.42 1.52L928 585l-2-1c3.27-5.81 7.17-11.38 12-16" fill="#ECECF0"/><path d="M908 504c2.1 3.15 2.26 3.93 2.27 7.53v2.65l-.02 2.76.02 2.75v2.65l-.01 2.42c-.29 2.46-1.03 4.1-2.26 6.24a453 453 0 0 1-1.66-6.15L906 523l1-1q.23-2.01.32-4.04l.12-2.45.12-2.57.13-2.59z" fill="#D8DADB"/><path d="M488 396h1l.15 3.22.23 4.28.12 2.23c.23 3.76.57 7.17 1.75 10.77 1.03 4.8-.21 7.11-2.25 11.5h-1z" fill="#2B2D2D"/><path d="M454 563c2.57 2.37 4.36 4.9 6.19 7.88l1.6 2.55c1.31 2.77 1.45 4.55 1.21 7.57-5.49-4.71-8.29-10.86-9-18" fill="#E4E7E5"/><path d="m796 565 2 2-.5 1.88c-.64 2.72.08 3.78 1.5 6.12h-8c-1-3-1-3-.31-5.12 1.31-1.88 1.31-1.88 3.43-2.63L796 567z" fill="#F4F4F7"/><path d="M845 452h1l.23 1.94c1.01 6.66 2.92 10.42 7.77 15.06l2 2-4 1q-2.55-2.96-5-6l-1.88-2.31c-1.67-4-.88-7.51-.12-11.69" fill="#E8E9EC"/><path d="M635 688a98 98 0 0 1 3.44 7.44A62 62 0 0 0 643 704c-2.32-.2-2.32-.2-5-1-1.65-2.11-1.65-2.11-2.94-4.75l-1.34-2.61c-.89-3.27-.26-4.69 1.28-7.64" fill="#E1E3E4"/><path d="M542 684h2l-.5 2.38c-.81 5.88-1.17 11.87.5 17.62h-3c-2.81-4.69-1.89-8.8-1-14 1.06-3.62 1.06-3.62 2-6" fill="#EBEBEE"/><path d="m906 527 2 2c-.24 5.95-2.42 10.7-5 16l-3-1 2-6 .77-2.33.79-2.42.76-2.3C905 529 905 529 906 527" fill="#EAEAEF"/><path d="m826 575.67 3.44.08 3.44.04c2.54.17 4.69.47 7.12 1.21v2h-20c3-3 3-3 6-3.33" fill="#F3F4F5"/><path d="M680 68v2c-4.77 4.42-9.46 5.56-15.81 5.44l-2.69-.13-2.78-.07q-3.36-.08-6.72-.24v-1l3.29-.11 6.5-.27C668.63 73.27 673.8 68 680 68" fill="#DEE0E2"/><path d="M494 42h2l-2 22c-3.33-4.44-3.31-6.4-2.81-11.56l.13-2.04c.29-3.56.66-5.37 2.68-8.4" fill="#F2EFF2"/><path d="m794 619 22 1v1c-7.89 1.76-14.18 2.25-22 0z" fill="#E7EAEB"/><path d="M508 673h21l1 2c-3.69 1.23-7.15 1.22-11 1.25l-2.2.06c-2.11.02-2.11.02-5.8-.31z" fill="#C7C8C8"/><path d="m715 672 28 1v1q-6.43.3-12.88.56l-3.7.17-3.54.15-3.27.14C717 675 717 675 715 674z" fill="#B2B4B3"/><path d="m544 671-1 3-3.75.44A51 51 0 0 0 531 676l-2-3c5.23-1.47 9.58-2.23 15-2" fill="#E9E9E9"/><path d="M886 481c5.59 1.36 8.91 4.15 13 8-1.74.67-1.74.67-4 1-2.11-1.11-2.11-1.11-4.19-2.75l-2.1-1.61C887 484 887 484 886 481" fill="#DFDFE1"/><path d="m514 315 2 1a210 210 0 0 1-4.62 10.81l-1.36 2.96L509 332l-2-1c1.65-5.69 4.29-10.77 7-16" fill="#DCDDDF"/><path d="M728 265c0 3.94-1.46 5.09-4 8l-2 2c-.41 1.95-.41 1.95-.62 4.12L721 283h-1c-.48-4.1-.71-7.92 0-12 2.29-2.74 4.83-4.39 8-6" fill="#D4D6D6"/><path d="M857 576v1c-11.52 2.3-11.52 2.3-17 2v-2c11.52-3.81 11.52-3.81 17-1" fill="#E0E1E2"/><path d="M761 448h17v2l-18 1z" fill="#EDEEEF"/><path d="M489 438h1l1 5.69.56 3.2c.39 2.76.52 5.33.44 8.11l-4-1 2-1-1.62-3c-1.99-4.51-.9-7.44.62-12" fill="#DBDEDC"/><path d="M944 557c.64 1.77.64 1.77 1 4-.93 1.92-.93 1.92-2.31 3.75l-1.37 1.86L940 568h-2l-1 3-2-1 3.38-5.38 1.89-3.02C942 559 942 559 944 557" fill="#E2E5E8"/><path d="M442 492h1l1 18h-3a891 891 0 0 1-.09-9.4c-.01-3.15.09-5.59 1.09-8.6" fill="#292C29"/><path d="M490 431h1v6h2v8l-3 1-.56-6.94-.32-3.9L489 432z" fill="#1A1D1C"/><path d="m744.63 25.94 3.6.03L751 26l1 3h-15l-1-2c2.88-1.44 5.41-1.1 8.63-1.06" fill="#EFEDEF"/><path d="M710 691c1.56 1.56 1.56 1.56 3 4-.23 3.32-.51 6.01-2 9l-4-1 2-3c.41-2.26.41-2.26.62-4.69l.23-2.45z" fill="#EBEFEB"/><path d="M617 672h2c.85 5.83 1.48 10.45-1 16h-1z" fill="#F2F1F7"/><path d="M694 671c5.01 1.43 6.94 3.98 10 8-4 0-4 0-6.25-1.88C696 675 696 675 696 673l-3-1z" fill="#1A1A1F"/><path d="M761 650c4 4 4 4 4.25 7.75L765 661l-3 1z" fill="#F5F6F5"/><path d="m456 457 2 1-4.38 5-2.46 2.81L449 468h-2l-1 2c.48-4.28 2.95-6.17 6-9l2.31-2.31z" fill="#EAECEC"/><path d="M800 468h3c3.57 7.29 3.57 7.29 2 12-2.35-2.35-2.73-3.96-3.62-7.12l-.79-2.76z" fill="#E3E7E3"/><path d="M490 374c2.56 3.84 1.92 5.23 1.12 9.69l-.61 3.57L490 390c-2-2-2-2-2.01-4.24l.32-2.64.3-2.61c.35-2.22.8-4.34 1.39-6.51" fill="#E1E2E4"/><path d="M809 575v3c-4.38-.52-8.69-1.06-13-2 3.91-4.42 7.99-2.49 13-1" fill="#D8D9D9"/><path d="M442 516h1l1 14-4-2z" fill="#D0D3CF"/><path d="M805 520c1.77 3.36 2.76 6.16 3 10-1.44 1.88-1.44 1.88-3 3l-1-1q.14-3.04.44-6.06l.31-3.35z" fill="#DFE1E0"/><path d="M500 212h1l1 19h-2c-1.32-6.45-.7-12.49 0-19" fill="#C6C5C6"/><path d="M708 684h2l2 9h-1l-1 7h-1z" fill="#C3C6C4"/><path d="m764.94 611.56 2.06.44c-3.02 3.25-6.25 5.62-10 8l-2-1c6.08-6.86 6.08-6.86 9.94-7.44" fill="#D4D7D5"/><path d="m946 547 2 2c-.06 3.44-.06 3.44-1 7-2.56 1.94-2.56 1.94-5 3z" fill="#D6D9DA"/><path d="m855 471 4.38 1.44 2.46.81C864 474 864 474 866 475v2c-4.39-.66-7.98-2.19-12-4z" fill="#EEEDF1"/><path d="M844 448h2q-.17 2.44-.38 4.88l-.21 2.74C845 458 845 458 843 460c-1.11-2.23-1.16-3.53-1.19-6l-.04-2.12C842 450 842 450 844 448" fill="#F2F3F5"/><path d="m879 613 1 2q-2.12.8-4.25 1.56l-2.39.88c-2.55.61-3.91.41-6.36-.44 3.96-2.76 7.22-3.53 12-4" fill="#E8ECEB"/><path d="m723 265 2 1c-1.46 4.39-3.98 4.88-8 7 .35-3.26 1.02-4.02 3.56-6.25z" fill="#1A1C1D"/><path d="M755 237c1.36 3.09.89 4.36-.12 7.69L753 248c-2.62.71-2.62.71-5 1l1.28-1.86 1.66-2.45 1.65-2.43C754 240 754 240 755 237" fill="#DCDCDF"/><path d="m727 31 2 1c-1.45 3.83-3.38 5.19-7 7h-2c1.49-3.8 3.76-5.61 7-8" fill="#EAEAED"/><path d="M882 563v3c-3.37 2.6-5.77 3.36-10 3 2.36-2.74 4.62-3.79 8-5z" fill="#EBEBEE"/><path d="M889 481c4.03.27 5.57.53 8.38 3.56L899 487l-1 2-4.5-3.44-2.53-1.93L889 482z" fill="#09080A"/><path d="M441 510h1v12h-2c-1.37-4.52-.47-7.59 1-12" fill="#E6E9E6"/><path d="M441 481c2.37 3.55 2.11 4.58 1.62 8.69l-.33 3.01-.29 2.3c-3.38-6.68-3.38-6.68-2.06-11.25z" fill="#DCDEDF"/><path d="m482 450 9 3v1c-7.43.29-7.43.29-11-2h2z" fill="#DCDEDC"/><path d="M551 669c-2 3-2 3-3.94 3.88-2.06.12-2.06.12-3.81-1.32L542 670c5.62-2.12 5.62-2.12 9-1" fill="#D9D9DA"/><path d="M886 610v3c-2.38 1.06-2.38 1.06-5 2l-2-1q-2-.53-4-1l4.38-1.5 2.46-.84C884 610 884 610 886 610" fill="#D1CFD2"/><path d="M928 580c0 3.99-1.29 5.14-4 8-2.75 1.31-2.75 1.31-5 2l2.81-3.31 1.58-1.87A91 91 0 0 1 928 580" fill="#CACBCD"/><path d="m877 479 8 1 1 3-10-2z" fill="#EBEBED"/><path d="m465 451 2 1c-2.54 2.97-5.49 4.36-9 6v-3c5.27-3.22 5.27-3.22 7-4" fill="#E1E2E5"/><path d="M563 63c4.4.5 6.71 2.09 10 5l-3 1v-2l-2.38-.44C565 66 565 66 563 65z" fill="#1B1B1C"/><path d="m752 27 7 6-2 2a79 79 0 0 1-7-6h2z" fill="#DCDCDE"/><path d="M845 452h1l.4 2.12.54 2.76.52 2.74C848 462 848 462 849 464l-4-1c-1.05-3.98-.84-6.98 0-11" fill="#BDBDBF"/><path d="M744 345h2l3 11c-3.37-2.25-3.84-3.24-5-7z" fill="#242624"/><path d="m578 72 2.69 1.44A27 27 0 0 0 589 76v1l-7 1-1-3h-3z" fill="#262827"/><path d="m756 376 2 1c.26 3.15.25 4.62-1.5 7.31L755 386c-.12-7.75-.12-7.75 1-10" fill="#ECEDEC"/><path d="M506 331h2c-.5 3.69-1.1 5.6-4 8-1-3-1-3 .31-5.69z" fill="#EDEDF0"/><path d="m611 695 2 1c-.56 3.27-1.5 4.83-4 7 0-3.77.24-4.91 2-8" fill="#232623"/><path d="m765 613 8 1-1 3-7-2z" fill="#EFF3F0"/><path d="m888 558 3 1-7 6-1-3c2.31-2.06 2.31-2.06 5-4" fill="#DEDFE1"/><path d="M448 545c1.95 2.92 2.45 4.63 3 8l-2 1c-1.62-2.57-2.04-3.68-1.62-6.75z" fill="#D6D8D7"/><path d="m750 248 2 1-7 7v-4c2.5-2.25 2.5-2.25 5-4" fill="#F0F1F3"/><path d="m501 36 3 2-4 4-3-1z" fill="#212023"/><path d="M556 665v3c-2.5 1.69-2.5 1.69-5 3l-1-3z" fill="#DEDFE2"/><path d="M511 630c2.44.81 2.44.81 5 2l1 3-5-1z" fill="#D5D7D8"/><path d="m750 620 2 1c-1.31 2.5-1.31 2.5-3 5h-3c1.15-2.47 2.05-4.05 4-6" fill="#242523"/><path d="M946 486c2.39 2.39 2.68 3.68 3 7l-2 3-1.66-6.93L945 487z" fill="#DDDFE0"/><path d="M509 248c3.37 1.39 4.99 2.98 7 6-3 0-3 0-5.19-1.88C509 250 509 250 509 248" fill="#CDD1CD"/><path d="M508 29c2.31-.19 2.31-.19 5 0l3 3h-9z" fill="#D9DDDF"/><path d="M556 665a16.6 16.6 0 0 1-7 3v-3c2.67-1.33 4.17-.67 7 0" fill="#191B1E"/><path d="M845 620h7c-1.19 1.56-1.19 1.56-3 3-2.69-.31-2.69-.31-5-1z" fill="#F2F5F7"/><path d="M792 568a47 47 0 0 1 3 7l-5-1z" fill="#CECECF"/><path d="M876 569c-2.69 2.69-5.38 3.06-9 4l1-3c2.93-.98 4.96-1.08 8-1" fill="#DDDFDE"/><path d="M911 500c1.24 3.58.75 6.34 0 10-2-3-2-3-1.69-5.56C910 502 910 502 911 500" fill="#040504"/><path d="M893 485c4.88 2.75 4.88 2.75 6 5h-5z" fill="#D6D4D6"/><path d="M490 446c1.86 3.13 2.2 5.37 2 9l-4-1 2-1-1-3c.44-2.19.44-2.19 1-4" fill="#BDC0BD"/><path d="m695 54 1 4-5 3c.56-3.27 1.5-4.83 4-7" fill="#DFDFE3"/></svg>