<svg style="background:transparent" version="1.1" xmlns="http://www.w3.org/2000/svg" viewBox="0 0 1248 704"><path d="m975.38 105.88 2.2-.02A68 68 0 0 1 998 109c.6.17.6.17 3.55 1.08 12.37 3.98 23.88 9.28 34.45 16.92v2l1.83.31c2.53.8 3.44 1.72 5.17 3.69l1.38 1.38L1046 136q1.11 1.12 2.27 2.25c15.67 15.78 29.57 34.4 31.77 57.35-.09 5.75-1.96 10.78-5.1 15.53-1.95 1.87-1.95 1.87-3.95 1.87l-.62 1.88c-1.92 2.98-4.02 3.22-7.37 4.12l-2 1c-6.33.8-10.08-.5-15.4-3.95-9.15-7.22-15.57-16.49-20.48-26.93-4.74-9-11.32-17.88-20.12-23.12l-2.37-1.5c-8.3-4.75-14.37-6.69-23.95-6.69l-2.5-.03c-6.6-.03-12.34.97-18.18 4.22l-2.18 1.15a62 62 0 0 0-9.7 6.16C944 171 944 171 941 171l-.76 1.72c-1.41 2.6-3.12 4.6-5.06 6.84-4.16 5.13-6.72 10.35-9.18 16.44l-1.62 3.75-2.72 6.45a210 210 0 0 1-5.6 11.74l-1.01 2.01-2.03 4.03Q912 226 911 228.08a75 75 0 0 1-7.12 11.91l-2.07 2.88L900 245h-2q-.39 1.14-.82 2.31A14 14 0 0 1 893 253l-1.32 1.38c-1.95 1.88-4.04 3.58-6.14 5.3a70 70 0 0 0-3.97 3.75A73 73 0 0 1 860.99 278l-2.37 1.2-1.62.8c.73 5.35 2.22 8.64 4.88 13.26A106 106 0 0 1 871 313.5l.77 2.36c3.35 10.4 6.45 20.85 7.06 31.8.16 2.34.16 2.34.67 4.69.49 2.55.63 4.87.63 7.46v39.95c-.12 2.22-.59 4.1-1.13 6.24v6.99l-1 1q-.05 2.35 0 4.7c.04 3.9-.3 7.45-1 11.3v2.94c0 3.06 0 3.06-.5 6.38a66 66 0 0 0-.43 10.87c-.08 1.81-.08 1.81-1.08 2.81-.07 3.7.01 7.38.08 11.08a82 82 0 0 1-1.08 10.93c-.27 7.64-.16 15.25.8 22.86.2 2.13.2 2.13.18 4.72.02 2.43.02 2.43 1.02 5.42q.31 2.18.5 4.38c.47 4.28 1.04 8.27 2.44 12.38 1.33 4.03 2.19 8.1 3.07 12.24l1.07 4.63a96 96 0 0 1 1.42 7.94c.38 2.57.86 4.92 1.5 7.42a84 84 0 0 1 2 11l.3 1.97c.6 4.4.7 8.6.7 13.03q.26 1.24.5 2.5c.64 3.2.5 6.25.5 9.5q.26 1.57.5 3.15c.59 4.44.59 8.72.5 13.18-.12 8.41-.12 8.41 1 10.67q.14 2.1.14 4.23v12.62a31 31 0 0 1-1.13 6.15q-.05 3.51 0 7c.28.08.28.08 1.74.38 30.94 6.86 30.94 6.86 36.25 14.63.86 3.96.26 5.55-1.74 9.07-15.46 16.33-55.97 15.38-76.64 16q-9.54.19-19.08.17h-3.13c-27.62 0-55.17-1.44-82.74-2.86q-13.68-.7-27.37-1.37-1.01-.03-2.09-.1l-4.1-.2-13.49-.69q-18.97-.96-37.98-1.6l-3.75-.12c-13.87-.43-27.75-.5-41.62-.48h-2.08c-57.56.02-114.87 3.58-172.11 9.55l-3.94.41-11.65 1.25-2.02.2c-7.82.84-15.61 1.77-23.4 2.9-32.72 4.74-65 5.85-98.03 5.7q-8.25-.03-16.5.04-9.09.05-18.16.02l-7.62.03q-5.25.03-10.51-.03l-3.12.04c-6.51-.11-9.87-1.52-14.52-6.14a87 87 0 0 1-5.6-6.8q-1.96 1-4 2l-2-3 2.38-1.37c3.72-3.72 3.97-7.53 4.62-12.62q-1.31.6-2.66 1.25l-3.52 1.63q-1.73.79-3.48 1.62c-11.01 4.98-20.48 5.6-32.1 1.78-8.84-3.5-14.94-8.67-19.25-17.28-.74-2.87-.59-5.1 0-8l.5-2.37c2.13-8.36 5.7-16.08 12.94-21.06 6.67-3.96 13.61-7.6 21.57-5.95 5.16.65 8.43-1.48 12.46-4.42q3.8-3.06 7.53-6.2l1.77-1.38a55 55 0 0 0 8.95-9.26l1.28-1.37h2l.7-1.67c2.8-4.94 7.6-8.49 11.8-12.2A60 60 0 0 0 258 580l2-1 1.33-2.25a30 30 0 0 1 5.1-6.2 146 146 0 0 0 16.75-20 69 69 0 0 1 7.9-9.55c2.1-2.18 3.44-4.36 4.93-7l3-5c-3.12-3.12-7.25-4.49-11.24-6.25-14.49-6.58-26.7-18.06-32.58-33q-1.19-3.73-2.25-7.5c-.94-3.25-.94-3.25-2-5.19-1.18-2.6-1.35-5.17-1.66-8-.41-3.1-1.4-6.05-2.28-9.06q-.8-4.16-1.52-8.36-.7-3.84-1.47-7.64a189 189 0 0 1-2.75-20.82C241 421 241 421 240 418.99q-.35-2.7-.66-5.4c-.9-6.84-2.23-13.64-3.44-20.44-2.3-13.22-4.28-26.07-4.33-39.52l-.1-3.65c-.06-8.42 1.3-13.34 6.93-19.52 3.65-3.45 6.64-4.55 11.6-4.46a91 91 0 0 1 11 4l3.16 1.26c6.1 2.63 11.81 6.13 17.57 9.45 6.63 3.7 12.84 7.06 20.57 5.72l3.02-1.12c4.34-1.52 8.64-2.87 13.11-3.94 3-.72 5.8-1.46 8.7-2.5 3.47-1.06 6.8-1.35 10.4-1.62 2.47-.25 2.47-.25 4.82-.74 2.64-.51 2.64-.51 6.17-.83 12.43-1.18 12.43-1.18 17.28-6.05 1.2-1.63 1.2-1.63 2.15-3.56 1.22-2.42 2.75-4.19 4.55-6.2l1.85-2.06a121 121 0 0 1 6.08-6.12c2.56-2.7 2.56-2.7 3.89-5.12 2.5-3.8 6-5.98 9.68-8.57l2.08-1.62c2.7-1.94 4.6-2.25 7.92-2.38 6.68 2.03 10.96 5.7 14.63 11.63 3.05 7.51 5.37 15.28 7.65 23.08.68 2.13 1.42 4.2 2.22 6.29 3.12 8.15 5.1 16.44 6.86 25 .63 3 .63 3 1.63 6 4.27-1.77 8.41-3.69 12.53-5.78q3.82-1.86 7.69-3.6c20.55-9.37 20.55-9.37 25.79-14.62l5-2q2.7-1.41 5.38-2.87l2.92-1.62q3.2-1.8 6.38-3.63c2.34-1.34 4.67-2.56 7.07-3.75 6.68-3.3 13.29-6.64 19.25-11.13q2-.52 4-1l5-3q2.89-1.47 5.82-2.87c4.34-2.15 8.44-4.48 12.52-7.12 2.12-1.3 4.34-2.1 6.65-3.01a286 286 0 0 0 6.63-3.69c2.75-1.52 5.55-2.92 8.38-4.31l7.07-3.5 1.8-.9A137 137 0 0 0 597 282q1.9-.99 3.82-1.94l2.06-1.03 4.24-2.06c2.88-1.44 5.7-2.86 8.45-4.54 3.02-1.79 6.18-3.07 9.42-4.44q1-.48 2-1c2.32-1.14 4.66-2.13 7.03-3.14q3.17-1.37 6.3-2.79c4.83-2.16 9.75-4.12 14.67-6.06 9.58-3.8 9.58-3.8 13.76-5.62 5.75-2.44 11.63-4.04 17.64-5.66q2.93-.82 5.8-1.78c6.22-2.07 12.55-3.3 19-4.44q5.22-.95 10.42-2.03c11.24-2.2 22.35-2.56 33.76-2.6h3.13c6.12 0 11.84.33 17.82 1.63 2.36.44 4.6.65 7 .81 9.04.85 18.24 3.34 26.75 6.5 6 2.06 10.38.57 15.92-2.12q2.52-1.32 5-2.7l2-1.03a51 51 0 0 0 9.4-6.6c2.5-2.1 5.14-4 7.77-5.94 2.82-2.17 4.58-3.85 6.1-7.1 1.92-3.68 4.27-6.32 7.03-9.38 3.98-4.5 6.45-9.32 8.78-14.78a91 91 0 0 1 2.42-5.1 101 101 0 0 0 3.5-8.06 95 95 0 0 1 8.63-16.78 117 117 0 0 0 3.19-5.54c2.22-3.9 4.93-7.2 7.88-10.56l1.62-1.84q2.33-2.66 4.69-5.28l2.3-2.56c15.3-16.13 34.4-24.43 55.7-29.44q1.13-.3 2.34-.58c3.67-.59 7.31-.56 11.03-.55" fill="#121412"/><path d="m975.38 105.88 2.2-.02A68 68 0 0 1 998 109c.6.17.6.17 3.55 1.08 12.37 3.98 23.88 9.28 34.45 16.92v2l1.83.31c2.53.8 3.44 1.72 5.17 3.69l1.38 1.38L1046 136q1.11 1.12 2.27 2.25c15.67 15.78 29.57 34.4 31.77 57.35-.09 5.75-1.96 10.78-5.1 15.53-1.95 1.87-1.95 1.87-3.95 1.87l-.62 1.88c-1.92 2.98-4.02 3.22-7.37 4.12l-2 1c-6.33.8-10.08-.5-15.4-3.95-9.15-7.22-15.57-16.49-20.48-26.93-4.74-9-11.32-17.88-20.12-23.12l-2.37-1.5c-8.3-4.75-14.37-6.69-23.95-6.69l-2.5-.03c-6.6-.03-12.34.97-18.18 4.22l-2.18 1.15a62 62 0 0 0-9.7 6.16C944 171 944 171 941 171l-.76 1.72c-1.41 2.6-3.12 4.6-5.06 6.84-4.16 5.13-6.72 10.35-9.18 16.44l-1.62 3.75-2.72 6.45a210 210 0 0 1-5.6 11.74l-1.01 2.01-2.03 4.03Q912 226 911 228.08a75 75 0 0 1-7.12 11.91l-2.07 2.88L900 245h-2q-.39 1.14-.82 2.31A14 14 0 0 1 893 253l-1.32 1.38c-1.95 1.88-4.04 3.58-6.14 5.3a70 70 0 0 0-3.97 3.75A73 73 0 0 1 860.99 278l-2.37 1.2-1.62.8c.73 5.35 2.22 8.64 4.88 13.26A106 106 0 0 1 871 313.5l.77 2.36c3.35 10.4 6.45 20.85 7.06 31.8.16 2.34.16 2.34.67 4.69.49 2.55.63 4.87.63 7.46v39.95c-.12 2.22-.59 4.1-1.13 6.24v6.99l-1 1q-.05 2.35 0 4.7c.04 3.9-.3 7.45-1 11.3v2.94c0 3.06 0 3.06-.5 6.38a66 66 0 0 0-.43 10.87c-.08 1.81-.08 1.81-1.08 2.81-.07 3.7.01 7.38.08 11.08a82 82 0 0 1-1.08 10.93c-.27 7.64-.16 15.25.8 22.86.2 2.13.2 2.13.18 4.72.02 2.43.02 2.43 1.02 5.42q.31 2.18.5 4.38c.47 4.28 1.04 8.27 2.44 12.38 1.33 4.03 2.19 8.1 3.07 12.24l1.07 4.63a96 96 0 0 1 1.42 7.94c.38 2.57.86 4.92 1.5 7.42a84 84 0 0 1 2 11l.3 1.97c.6 4.4.7 8.6.7 13.03q.26 1.24.5 2.5c.64 3.2.5 6.25.5 9.5q.26 1.57.5 3.15c.59 4.44.59 8.72.5 13.18-.12 8.41-.12 8.41 1 10.67q.14 2.1.14 4.23v12.62a31 31 0 0 1-1.13 6.15q-.05 3.51 0 7c.28.08.28.08 1.74.38 30.94 6.86 30.94 6.86 36.25 14.63.86 3.96.26 5.55-1.74 9.07-15.46 16.33-55.97 15.38-76.64 16q-9.54.19-19.08.17h-3.13c-27.62 0-55.17-1.44-82.74-2.86q-13.68-.7-27.37-1.37-1.01-.03-2.09-.1l-4.1-.2-13.49-.69q-18.97-.96-37.98-1.6l-3.75-.12c-13.87-.43-27.75-.5-41.62-.48h-2.08c-57.56.02-114.87 3.58-172.11 9.55l-2.18.23a1045 1045 0 0 0-43.53 5.18c-35.8 5.18-71.28 4.84-107.36 4.22 2.5-2.62 4.7-3.92 8-5.43a147 147 0 0 0 15.25-8.75 813 813 0 0 1 26.93-16.45c17.75-10.49 17.75-10.49 26.16-15.8q6.85-4.33 13.78-8.48a1071 1071 0 0 0 35.28-22.38q4.56-3 9.13-5.9c9.3-5.97 18.45-12.18 27.58-18.42l2.57-1.76c2.32-1.63 2.32-1.63 4.03-3.06 5.6-4.65 12.38-5.59 19.36-7.08A208 208 0 0 0 505 582l4.7-1.57c53.65-17.67 104.95-44.84 153.95-72.62l2.81-1.59 7.64-4.33 2.07-1.18c1.83-.7 1.83-.7 4.83.3a36 36 0 0 1 2.2 5.88l1.21 3.7.64 1.98C688.8 524.2 692.9 535.35 699 546l1.92 3.38c9.39 15.87 21.27 28.13 34.5 40.75 20.2 19.33 20.2 19.33 20.72 32.2l-.01 3.8v3.82c-.13 3.04-.13 3.04-1.13 4.04q-2.75.38-5.5.7c-7.25 1.18-12.38 3.61-17.16 9.28-3.84 5.9-4.5 12.14-3.35 19.02 2.47 5.26 5.86 8.15 11.23 10.27 16.84 4.46 37.8 5.86 53.55-2.73 8.9-6.12 11.63-16.85 13.52-26.92a171 171 0 0 0 2.84-30.99v-2.92c0-9.43-.5-18.44-3.13-27.52a102 102 0 0 1-3-13.18q4.02 2.98 8 6l2.44 1.83c13.64 10.5 21.81 22.14 25.1 39.25.9 7.6.88 15.27.46 22.91-1.5 1.51-2.97 1.2-5.07 1.33-6.94.7-12.91 3.8-17.93 8.67-5.07 7.31-5.85 14.27-5 23 2.75 5.73 6.82 9.35 12.73 11.6 6.06 1.94 12.15 1.93 18.48 1.91q3.03 0 6.06.09c10.15.01 19.8-1.75 28.23-7.77 11.85-13.34 9.84-32.65 9.75-49.33v-3.12c-.09-23.62-.78-47.12-5.25-70.37l-.47-2.49a275 275 0 0 0-5.6-25.01c-10.44-38.9-4.53-81.81-.65-121.31.59-6.04.88-11.99.88-18.04l.01-2.71.01-5.65q.01-4.24.05-8.46c.04-14.82-.56-29.71-4.3-44.14l-.62-2.46c-3.74-13.79-9.9-26.94-17.1-39.24C853 283 853 283 853 279c1.42-1.25 1.42-1.25 3.41-2.33l2.19-1.22 2.34-1.25a439 439 0 0 0 7.01-3.98A75 75 0 0 0 879 262l2.45-2.04c6.3-5.42 11.52-11.36 16.55-17.96l1.82-2.32c7.15-9.7 12.49-20.5 17.12-31.59l.77-1.84q1.89-4.54 3.7-9.1c7.3-17.82 20.53-32.53 38.33-40.34A58 58 0 0 1 966 155l2.38-.55c13.64-2.34 25.92.62 37.38 8.13 10.65 7.7 17.88 17.4 24.13 28.86 5.14 9.38 10.81 19.69 21.15 24 6.2 1.75 11.33.6 16.96-2.44 4.86-3.76 6.73-8.8 7.47-14.72.09-9.47-1.24-16.65-5.47-25.28l-1.3-2.8c-12.9-25.46-36.62-46.3-63.59-55.53-9.51-3.02-18.12-4.11-28.1-3.98l-3.58-.02C947 110.84 925.4 121.43 907 140l-2.36 2.28c-11.93 12.31-19.06 28.15-25.97 43.63-5.94 13.3-12.9 24.35-22.67 35.09l-2.22 2.47c-9.09 9.61-23.34 21.44-36.92 22.85-5.37-.44-10.37-1.8-15.54-3.2-65.17-17.34-128.24 5.03-186.47 33.95l-6.09 3.02c-16.38 8.09-32.7 16.26-48.68 25.13a639 639 0 0 1-16.59 8.77 1219 1219 0 0 0-24.7 13.22q-8.18 4.48-16.41 8.86-1 .51-2.01 1.06l-9.76 5.18a505 505 0 0 0-19.96 11.15q-5.15 2.99-10.52 5.6l-2.01 1C439.86 369 439.86 369 434 369l-.46-1.92c-3.1-12.93-6.5-25.58-10.89-38.13-.98-2.92-1.8-5.87-2.65-8.82-2.57-8.41-5.45-17.07-13-22.13-4.15-.76-6.41-.86-10.12 1.15-9.51 6.96-17.22 16.76-24.41 25.99l-2.48 2.86-1.76 2.24c-6.34 7.27-12.13 8.45-21.48 9.51q-3 .41-6.02.85l-4.01.55c-5.92.83-11.68 2.05-17.47 3.48l-2.42.59a107 107 0 0 0-11.84 3.5q-1.12.38-2.25.8c-7.3 1.26-13.33-.8-19.66-4.26l-2.15-1.13-6.68-3.56-6.73-3.56-4.15-2.22c-6.9-3.68-12.48-6.07-20.37-4.8a19.6 19.6 0 0 0-7 9c-.25 2.82-.25 2.82-.24 6.06l.01 3.61q.01 1.87.05 3.77v3.67c.05 10.9.58 21.71 2.5 32.46l.39 2.3c.81 4.7 1.75 9.38 2.72 14.06a344 344 0 0 1 4.44 27.26c3.53 26.88 8.3 61.36 30.13 79.82a91 91 0 0 0 28 14c-.6 3.24-1.67 5.2-3.7 7.76l-1.7 2.17q-.93 1.14-1.85 2.33l-1.9 2.4q-2.92 3.68-5.86 7.34l-1.72 2.16a753 753 0 0 1-31.2 36.54q-2.02 2.25-4.03 4.53C238.9 606.18 224.05 622.99 206 632q-2.9.16-5.82.25c-8.98.28-14.85 1.02-21.93 7.13-5.9 6.88-8.77 12.96-8.57 22.03a24.5 24.5 0 0 0 6.39 13.92c10.84 6.22 22.58 7.67 34.93 5.67 6.08-1.8 11.59-4.75 17-8l2.97-1.75L233 670l-.65 1.85c-2.52 7.57-4.07 14.87-.85 22.48 2.45 4.35 6.13 6.47 10.5 8.67-1.75.7-1.75.7-4 1-2-1.25-2-1.25-4-3.12q-1.03-.94-2.1-1.95A59 59 0 0 1 226 692l-4 2q-.98-1.5-2-3l2.38-1.37c3.72-3.73 3.97-7.54 4.62-12.63q-1.31.6-2.66 1.25l-3.52 1.63q-1.73.79-3.48 1.62c-11.01 4.98-20.48 5.6-32.1 1.78-8.84-3.5-14.94-8.67-19.25-17.28-.74-2.87-.59-5.1 0-8l.5-2.37c2.13-8.36 5.7-16.08 12.94-21.06 6.67-3.96 13.61-7.6 21.57-5.95 5.16.65 8.43-1.48 12.46-4.42q3.8-3.06 7.53-6.2l1.77-1.38a55 55 0 0 0 8.95-9.26l1.28-1.37h2l.7-1.67c2.8-4.94 7.6-8.49 11.8-12.2A60 60 0 0 0 258 580l2-1 1.33-2.25a30 30 0 0 1 5.1-6.2 146 146 0 0 0 16.75-20 69 69 0 0 1 7.9-9.55c2.1-2.18 3.44-4.36 4.93-7l3-5c-3.12-3.12-7.25-4.49-11.24-6.25-14.49-6.58-26.7-18.06-32.58-33q-1.19-3.73-2.25-7.5c-.94-3.25-.94-3.25-2-5.19-1.18-2.6-1.35-5.17-1.66-8-.41-3.1-1.4-6.05-2.28-9.06q-.8-4.16-1.52-8.36-.7-3.84-1.47-7.64a189 189 0 0 1-2.75-20.82C241 421 241 421 240 418.99q-.35-2.7-.66-5.4c-.9-6.84-2.23-13.64-3.44-20.44-2.3-13.22-4.28-26.07-4.33-39.52l-.1-3.65c-.06-8.42 1.3-13.34 6.93-19.52 3.65-3.45 6.64-4.55 11.6-4.46a91 91 0 0 1 11 4l3.16 1.26c6.1 2.63 11.81 6.13 17.57 9.45 6.63 3.7 12.84 7.06 20.57 5.72l3.02-1.12c4.34-1.52 8.64-2.87 13.11-3.94 3-.72 5.8-1.46 8.7-2.5 3.47-1.06 6.8-1.35 10.4-1.62 2.47-.25 2.47-.25 4.82-.74 2.64-.51 2.64-.51 6.17-.83 12.43-1.18 12.43-1.18 17.28-6.05 1.2-1.63 1.2-1.63 2.15-3.56 1.22-2.42 2.75-4.19 4.55-6.2l1.85-2.06a121 121 0 0 1 6.08-6.12c2.56-2.7 2.56-2.7 3.89-5.12 2.5-3.8 6-5.98 9.68-8.57l2.08-1.62c2.7-1.94 4.6-2.25 7.92-2.38 6.68 2.03 10.96 5.7 14.63 11.63 3.05 7.51 5.37 15.28 7.65 23.08.68 2.13 1.42 4.2 2.22 6.29 3.12 8.15 5.1 16.44 6.86 25 .63 3 .63 3 1.63 6 4.27-1.77 8.41-3.69 12.53-5.78q3.82-1.86 7.69-3.6c20.55-9.37 20.55-9.37 25.79-14.62l5-2q2.7-1.41 5.38-2.87l2.92-1.62q3.2-1.8 6.38-3.63c2.34-1.34 4.67-2.56 7.07-3.75 6.68-3.3 13.29-6.64 19.25-11.13q2-.52 4-1l5-3q2.89-1.47 5.82-2.87c4.34-2.15 8.44-4.48 12.52-7.12 2.12-1.3 4.34-2.1 6.65-3.01a286 286 0 0 0 6.63-3.69c2.75-1.52 5.55-2.92 8.38-4.31l7.07-3.5 1.8-.9A137 137 0 0 0 597 282q1.9-.99 3.82-1.94l2.06-1.03 4.24-2.06c2.88-1.44 5.7-2.86 8.45-4.54 3.02-1.79 6.18-3.07 9.42-4.44q1-.48 2-1c2.32-1.14 4.66-2.13 7.03-3.14q3.17-1.37 6.3-2.79c4.83-2.16 9.75-4.12 14.67-6.06 9.58-3.8 9.58-3.8 13.76-5.62 5.75-2.44 11.63-4.04 17.64-5.66q2.93-.82 5.8-1.78c6.22-2.07 12.55-3.3 19-4.44q5.22-.95 10.42-2.03c11.24-2.2 22.35-2.56 33.76-2.6h3.13c6.12 0 11.84.33 17.82 1.63 2.36.44 4.6.65 7 .81 9.04.85 18.24 3.34 26.75 6.5 6 2.06 10.38.57 15.92-2.12q2.52-1.32 5-2.7l2-1.03a51 51 0 0 0 9.4-6.6c2.5-2.1 5.14-4 7.77-5.94 2.82-2.17 4.58-3.85 6.1-7.1 1.92-3.68 4.27-6.32 7.03-9.38 3.98-4.5 6.45-9.32 8.78-14.78a91 91 0 0 1 2.42-5.1 101 101 0 0 0 3.5-8.06 95 95 0 0 1 8.63-16.78 117 117 0 0 0 3.19-5.54c2.22-3.9 4.93-7.2 7.88-10.56l1.62-1.84q2.33-2.66 4.69-5.28l2.3-2.56c15.3-16.13 34.4-24.43 55.7-29.44q1.13-.3 2.34-.58c3.67-.59 7.31-.56 11.03-.55" fill="#B9BBB9"/><path d="M681 501a37 37 0 0 1 2.2 5.88l1.21 3.71.63 1.97c3.75 11.65 7.86 22.79 13.96 33.44l1.92 3.39c9.38 15.85 21.27 28.12 34.5 40.75 20.2 19.32 20.2 19.32 20.71 32.18l-.01 3.8.01 3.83C756 633 756 633 755 634q-4.3.61-8.63 1.11c-3.22.85-4.42 1.58-6.99 3.51-5.48 3.6-10.69 2.42-16.94 1.76a422 422 0 0 0-32.78-2.07c-20.86-.59-41.73-.55-62.6-.56h-3.38c-52.54-.04-104.92 1.36-157.18 7.19l-4.78.52a1633 1633 0 0 0-63.47 8.1A623 623 0 0 1 369 657l2-1 .89-1.91c1.32-2.49 2.44-3.2 4.87-4.58l2.36-1.37 2.57-1.45a508 508 0 0 0 25.95-16.19l5.72-3.77q4.57-3 9.18-5.93c9.3-5.97 18.44-12.17 27.56-18.42l2.59-1.75c2.31-1.63 2.31-1.63 4.02-3.06 5.6-4.65 12.38-5.58 19.35-7.07A210 210 0 0 0 505 582q2.35-.8 4.71-1.57c53.64-17.69 104.93-44.86 153.95-72.63l2.81-1.58 5.28-3.01 2.36-1.32 2.06-1.18C678 500 678 500 681 501" fill="#ECEEEC"/><path d="m445 481 1 2c-1.95 4.44-4.44 8.63-6.82 12.85a96 96 0 0 0-2.21 4.29c-1.47 2.81-3.67 4.73-5.97 6.86l-2.16 2.07A101 101 0 0 1 410 523l-2.29 1.37c-8 4.42-16.9 6.42-25.71 8.63l-3.77.95A114 114 0 0 1 349 537c6.12 7.91 13.73 13.49 22 19v2a90 90 0 0 1-4.62 3.88 407 407 0 0 0-13 10.81A1242 1242 0 0 1 329 593l-2.93 2.39-5.14 4.21-6.89 5.67a1075 1075 0 0 1-25.33 20.4l-7 5.5a1114 1114 0 0 1-25.91 19.95l-2.16 1.61-4.17 3.07A83 83 0 0 0 239 665c-12.06 11.43-24.76 18.12-41.59 17.68-9.36-.54-17.92-2.56-24.41-9.68-3.8-6-5.1-11.98-4-19a49 49 0 0 1 4-9l1.69-3.19A31 31 0 0 1 189 632q2.9-.1 5.8-.14c12.69-.28 19.39-4.78 28.58-13.42q3.14-2.91 6.39-5.7c4.45-3.88 8.63-7.99 12.79-12.18l2.17-2.16c4.63-4.63 9.01-9.42 13.27-14.4l3.14-3.61q4.12-4.74 8.23-9.51l3.09-3.56a435 435 0 0 0 17.82-22.13C302.64 528.9 302.64 528.9 307 526l1 1c9.82 2.17 19.74 2.44 29.75 2.44h2.31A153 153 0 0 0 381 524l2.2-.58c8.05-2.2 15.55-5.54 23.11-9.04l2.52-1.17 2.35-1.12 2.09-1C415 510 415 510 417 507l3.5-1.62c10.72-5.17 17.68-15 24.5-24.38" fill="#020302"/><path d="m975.38 105.88 2.2-.02A68 68 0 0 1 998 109c.6.17.6.17 3.55 1.08 12.37 3.98 23.88 9.28 34.45 16.92v2l1.83.31c2.53.8 3.44 1.72 5.17 3.69l1.38 1.38L1046 136q1.11 1.12 2.27 2.25c15.67 15.78 29.57 34.4 31.77 57.35-.09 5.75-1.96 10.78-5.1 15.53-1.95 1.87-1.95 1.87-3.95 1.87l-.62 1.88c-1.92 2.98-4.02 3.22-7.37 4.12l-2 1c-6.33.8-10.08-.5-15.4-3.95-9.15-7.22-15.57-16.49-20.48-26.93-4.74-9-11.32-17.88-20.12-23.12l-2.37-1.5c-8.3-4.75-14.37-6.69-23.95-6.69l-2.5-.03c-6.6-.03-12.34.97-18.18 4.22l-2.18 1.15a62 62 0 0 0-9.7 6.16C944 171 944 171 941 171l-.76 1.72c-1.41 2.6-3.12 4.6-5.06 6.84-4.16 5.13-6.72 10.35-9.18 16.44l-1.62 3.75-2.72 6.45a210 210 0 0 1-5.6 11.74l-1.01 2.01-2.03 4.03Q912 226 911 228.08a75 75 0 0 1-7.12 11.91l-2.07 2.88L900 245h-2q-.39 1.14-.82 2.31A14 14 0 0 1 893 253l-1.32 1.38c-1.95 1.88-4.04 3.58-6.14 5.3a70 70 0 0 0-3.97 3.75A73 73 0 0 1 860.99 278l-2.37 1.2-1.62.8c.73 5.35 2.22 8.64 4.88 13.26A106 106 0 0 1 871 313.5l.77 2.36c3.35 10.4 6.45 20.85 7.06 31.8.16 2.34.16 2.34.67 4.69.49 2.55.63 4.87.63 7.46v39.95c-.12 2.22-.59 4.1-1.13 6.24v6.99l-1 1q-.05 2.35 0 4.7c.04 3.9-.3 7.45-1 11.3v2.94c0 3.06 0 3.06-.5 6.38a66 66 0 0 0-.43 10.87c-.08 1.81-.08 1.81-1.08 2.81-.07 3.7.01 7.38.08 11.08a82 82 0 0 1-1.08 10.93c-.27 7.64-.16 15.25.8 22.86.2 2.13.2 2.13.18 4.72.02 2.43.02 2.43 1.02 5.42q.31 2.18.5 4.38c.47 4.28 1.04 8.27 2.44 12.38 1.33 4.03 2.19 8.1 3.07 12.24l1.07 4.63a96 96 0 0 1 1.42 7.94c.38 2.57.86 4.92 1.5 7.42a84 84 0 0 1 2 11l.3 1.97c.6 4.4.7 8.6.7 13.03q.26 1.24.5 2.5c.64 3.2.5 6.25.5 9.5q.26 1.57.5 3.15c.59 4.44.59 8.72.5 13.18-.12 8.41-.12 8.41 1 10.67q.14 2.1.14 4.23v12.62a31 31 0 0 1-1.13 6.15q-.05 3.51 0 7c.28.08.28.08 1.74.38 30.94 6.86 30.94 6.86 36.25 14.63.86 3.96.26 5.55-1.74 9.07-15.46 16.33-55.97 15.38-76.64 16q-9.54.19-19.08.17h-3.13c-27.62 0-55.17-1.44-82.74-2.86q-13.68-.7-27.37-1.37-1.01-.03-2.09-.1l-4.1-.2-13.49-.69q-18.97-.96-37.98-1.6l-3.75-.12c-13.87-.43-27.75-.5-41.62-.48h-2.08c-73.51.02-146.77 5.81-219.68 14.96l-3.41.44q-7.76.95-15.5 2A209 209 0 0 1 341 704v-1a1096 1096 0 0 1 41.54-4.9q8.81-.87 17.58-2.06c10.24-1.4 20.51-2.31 30.8-3.27l7.8-.76 2.32-.22c4.13-.4 8.17-.99 12.25-1.77 6.2-1.17 12.4-1.63 18.7-2.04l3.64-.25 11.44-.79 11.45-.77 7.1-.49q8.55-.56 17.08-1.44c54.45-5.3 111.4-3.99 165.94-.65 9.32.55 18.66.91 27.99 1.3q23.25.95 46.51 2.05 2.64.14 5.28.25l7.3.36 2.1.1c3.63.18 7.2.47 10.8.88 6.62.68 13.22.66 19.86.69h2.07l10.93.03q4.42 0 8.85.04c30.26.24 63.58.22 91.67-12.28l3-1c.35-2.98.66-5.95 1-9-9.86-6.98-21.06-9.49-32.78-11.42-3.2-.59-3.2-.59-5.22-1.59l-.01-1.69c-1.06-71.64-1.06-71.64-5.99-97.3q-.21-1.23-.46-2.49a275 275 0 0 0-5.6-25.01c-10.44-38.9-4.53-81.81-.65-121.31.59-6.04.88-11.99.88-18.04l.01-2.71.01-5.65q.01-4.24.05-8.46c.04-14.82-.56-29.71-4.3-44.14l-.62-2.46c-3.74-13.79-9.9-26.94-17.1-39.24C853 283 853 283 853 279c1.42-1.25 1.42-1.25 3.41-2.33l2.19-1.22 2.34-1.25a439 439 0 0 0 7.01-3.98A75 75 0 0 0 879 262l2.45-2.04c6.3-5.42 11.52-11.36 16.55-17.96l1.82-2.32c7.15-9.7 12.49-20.5 17.12-31.59l.77-1.84q1.89-4.54 3.7-9.1c7.3-17.82 20.53-32.53 38.33-40.34A58 58 0 0 1 966 155l2.38-.55c13.64-2.34 25.92.62 37.38 8.13 10.65 7.7 17.88 17.4 24.13 28.86 5.14 9.38 10.81 19.69 21.15 24 6.2 1.75 11.33.6 16.96-2.44 4.86-3.76 6.73-8.8 7.47-14.72.09-9.47-1.24-16.65-5.47-25.28l-1.3-2.8c-12.9-25.46-36.62-46.3-63.59-55.53-9.51-3.02-18.12-4.11-28.1-3.98l-3.58-.02C947 110.84 925.4 121.43 907 140l-2.36 2.28c-11.93 12.31-19.06 28.15-25.97 43.63-5.94 13.3-12.9 24.35-22.67 35.09l-2.22 2.47c-9.09 9.61-23.34 21.44-36.92 22.85-5.37-.44-10.37-1.8-15.54-3.2-65.17-17.34-128.24 5.03-186.47 33.95l-6.09 3.02c-16.38 8.09-32.7 16.26-48.68 25.13a639 639 0 0 1-16.59 8.77 1219 1219 0 0 0-24.7 13.22q-8.18 4.48-16.41 8.86-1 .51-2.01 1.06l-9.76 5.18a505 505 0 0 0-19.96 11.15q-5.15 2.99-10.52 5.6l-2.01 1C439.86 369 439.86 369 434 369l-.46-1.92c-3.1-12.93-6.5-25.58-10.89-38.13-.98-2.92-1.8-5.87-2.65-8.82-2.57-8.41-5.45-17.07-13-22.13-4.15-.76-6.41-.86-10.12 1.15-9.51 6.96-17.22 16.76-24.41 25.99l-2.48 2.86-1.76 2.24c-6.34 7.27-12.13 8.45-21.48 9.51q-3 .41-6.02.85l-4.01.55c-5.92.83-11.68 2.05-17.47 3.48l-2.42.59a107 107 0 0 0-11.84 3.5q-1.12.38-2.25.8c-7.3 1.26-13.33-.8-19.66-4.26l-2.15-1.13-6.68-3.56-6.73-3.56-4.15-2.22c-6.9-3.68-12.48-6.07-20.37-4.8a19.6 19.6 0 0 0-7 9c-.25 2.82-.25 2.82-.24 6.06l.01 3.61q.01 1.87.05 3.77v3.67c.05 10.9.58 21.71 2.5 32.46l.39 2.3c.81 4.7 1.75 9.38 2.72 14.06a344 344 0 0 1 4.44 27.26c3.53 26.88 8.3 61.36 30.13 79.82a91 91 0 0 0 28 14c-.6 3.24-1.67 5.2-3.7 7.76l-1.7 2.17q-.93 1.14-1.85 2.33l-1.9 2.4q-2.92 3.68-5.86 7.34l-1.72 2.16a753 753 0 0 1-31.2 36.54q-2.02 2.25-4.03 4.53C238.9 606.18 224.05 622.99 206 632q-2.9.16-5.82.25c-8.98.28-14.85 1.02-21.93 7.13-5.9 6.88-8.77 12.96-8.57 22.03a24.5 24.5 0 0 0 6.39 13.92c10.84 6.22 22.58 7.67 34.93 5.67 6.08-1.8 11.59-4.75 17-8l2.97-1.75L233 670l-.65 1.85c-2.52 7.57-4.07 14.87-.85 22.48 2.45 4.35 6.13 6.47 10.5 8.67-1.75.7-1.75.7-4 1-2-1.25-2-1.25-4-3.12q-1.03-.94-2.1-1.95A59 59 0 0 1 226 692l-4 2q-.98-1.5-2-3l2.38-1.37c3.72-3.73 3.97-7.54 4.62-12.63q-1.31.6-2.66 1.25l-3.52 1.63q-1.73.79-3.48 1.62c-11.01 4.98-20.48 5.6-32.1 1.78-8.84-3.5-14.94-8.67-19.25-17.28-.74-2.87-.59-5.1 0-8l.5-2.37c2.13-8.36 5.7-16.08 12.94-21.06 6.67-3.96 13.61-7.6 21.57-5.95 5.16.65 8.43-1.48 12.46-4.42q3.8-3.06 7.53-6.2l1.77-1.38a55 55 0 0 0 8.95-9.26l1.28-1.37h2l.7-1.67c2.8-4.94 7.6-8.49 11.8-12.2A60 60 0 0 0 258 580l2-1 1.33-2.25a30 30 0 0 1 5.1-6.2 146 146 0 0 0 16.75-20 69 69 0 0 1 7.9-9.55c2.1-2.18 3.44-4.36 4.93-7l3-5c-3.12-3.12-7.25-4.49-11.24-6.25-14.49-6.58-26.7-18.06-32.58-33q-1.19-3.73-2.25-7.5c-.94-3.25-.94-3.25-2-5.19-1.18-2.6-1.35-5.17-1.66-8-.41-3.1-1.4-6.05-2.28-9.06q-.8-4.16-1.52-8.36-.7-3.84-1.47-7.64a189 189 0 0 1-2.75-20.82C241 421 241 421 240 418.99q-.35-2.7-.66-5.4c-.9-6.84-2.23-13.64-3.44-20.44-2.3-13.22-4.28-26.07-4.33-39.52l-.1-3.65c-.06-8.42 1.3-13.34 6.93-19.52 3.65-3.45 6.64-4.55 11.6-4.46a91 91 0 0 1 11 4l3.16 1.26c6.1 2.63 11.81 6.13 17.57 9.45 6.63 3.7 12.84 7.06 20.57 5.72l3.02-1.12c4.34-1.52 8.64-2.87 13.11-3.94 3-.72 5.8-1.46 8.7-2.5 3.47-1.06 6.8-1.35 10.4-1.62 2.47-.25 2.47-.25 4.82-.74 2.64-.51 2.64-.51 6.17-.83 12.43-1.18 12.43-1.18 17.28-6.05 1.2-1.63 1.2-1.63 2.15-3.56 1.22-2.42 2.75-4.19 4.55-6.2l1.85-2.06a121 121 0 0 1 6.08-6.12c2.56-2.7 2.56-2.7 3.89-5.12 2.5-3.8 6-5.98 9.68-8.57l2.08-1.62c2.7-1.94 4.6-2.25 7.92-2.38 6.68 2.03 10.96 5.7 14.63 11.63 3.05 7.51 5.37 15.28 7.65 23.08.68 2.13 1.42 4.2 2.22 6.29 3.12 8.15 5.1 16.44 6.86 25 .63 3 .63 3 1.63 6 4.27-1.77 8.41-3.69 12.53-5.78q3.82-1.86 7.69-3.6c20.55-9.37 20.55-9.37 25.79-14.62l5-2q2.7-1.41 5.38-2.87l2.92-1.62q3.2-1.8 6.38-3.63c2.34-1.34 4.67-2.56 7.07-3.75 6.68-3.3 13.29-6.64 19.25-11.13q2-.52 4-1l5-3q2.89-1.47 5.82-2.87c4.34-2.15 8.44-4.48 12.52-7.12 2.12-1.3 4.34-2.1 6.65-3.01a286 286 0 0 0 6.63-3.69c2.75-1.52 5.55-2.92 8.38-4.31l7.07-3.5 1.8-.9A137 137 0 0 0 597 282q1.9-.99 3.82-1.94l2.06-1.03 4.24-2.06c2.88-1.44 5.7-2.86 8.45-4.54 3.02-1.79 6.18-3.07 9.42-4.44q1-.48 2-1c2.32-1.14 4.66-2.13 7.03-3.14q3.17-1.37 6.3-2.79c4.83-2.16 9.75-4.12 14.67-6.06 9.58-3.8 9.58-3.8 13.76-5.62 5.75-2.44 11.63-4.04 17.64-5.66q2.93-.82 5.8-1.78c6.22-2.07 12.55-3.3 19-4.44q5.22-.95 10.42-2.03c11.24-2.2 22.35-2.56 33.76-2.6h3.13c6.12 0 11.84.33 17.82 1.63 2.36.44 4.6.65 7 .81 9.04.85 18.24 3.34 26.75 6.5 6 2.06 10.38.57 15.92-2.12q2.52-1.32 5-2.7l2-1.03a51 51 0 0 0 9.4-6.6c2.5-2.1 5.14-4 7.77-5.94 2.82-2.17 4.58-3.85 6.1-7.1 1.92-3.68 4.27-6.32 7.03-9.38 3.98-4.5 6.45-9.32 8.78-14.78a91 91 0 0 1 2.42-5.1 101 101 0 0 0 3.5-8.06 95 95 0 0 1 8.63-16.78 117 117 0 0 0 3.19-5.54c2.22-3.9 4.93-7.2 7.88-10.56l1.62-1.84q2.33-2.66 4.69-5.28l2.3-2.56c15.3-16.13 34.4-24.43 55.7-29.44q1.13-.3 2.34-.58c3.67-.59 7.31-.56 11.03-.55" fill="#E7E8E8"/><path d="M240 331c17.59 4.16 37.56 12.34 48 28l-1.31 1.17C268.98 376.1 255.71 392.06 251 416h-2c-4.29-9.95-6.05-20.4-8-31l-2 9h-1l-.94-6.19-.52-3.48c-1.4-10.49-1.79-21.07-1.92-31.64l-.11-3.67c-.07-7.39.62-12.3 5.49-18.02" fill="#272925"/><path d="M399 297c4.48-.47 7.8-.68 11.56 2 9.08 8.89 11.89 24.34 15.1 36.14 1.04 3.86 2.22 7.64 3.53 11.42 5.09 14.86 5.09 14.86 4.81 22.44l3 1c-2.92 1.95-4.63 2.45-8 3l-1.36-1.57A576 576 0 0 0 422 365l-2.38-2.69c-3.55-3.13-7.43-5.15-11.62-7.31l-1.9-1.06c-9.46-5.12-19.71-7.28-30.3-8.55C373 345 373 345 371 344a26 26 0 0 1 3.56-9.81l1.38-2.4L377 330h2l.21-2.07c1.03-3.84 3.09-6.65 5.41-9.81l1.37-1.88A83 83 0 0 1 397 304l2.94-2.94L402 299z" fill="#242522"/><path d="M804 569q4.01 2.98 8 6l2.44 1.83c13.64 10.5 21.81 22.14 25.1 39.25.89 7.61.87 15.28.46 22.92-1.51 1.51-2.96 1.19-5.06 1.31a25.6 25.6 0 0 0-14.84 6.34c-2.73 1.76-4.18 1.5-7.35 1.04l-2.7-.37L808 647l.44-6.44.24-3.62c.23-2.76.5-5.46.85-8.2.61-5.37.62-10.71.59-16.12l.02-2.92c-.02-9.42-.51-18.43-3.14-27.51a100 100 0 0 1-3-13.19" fill="#ECEEED"/><path d="M256.77 327.9c6.29 2.5 12.11 5.65 17.93 9.07 19.17 11.17 19.17 11.17 27.31 9.36l3.12-1.08a191 191 0 0 1 16.28-4.58c2.59-.67 2.59-.67 5.97-1.98 3.43-.9 5.41-.07 8.62 1.31v1l-2.23.5-10.14 2.31-3.51.8c-5.97 1.36-11.78 2.8-17.53 4.94-7.22 1.25-13.25-.88-19.51-4.3l-2.15-1.12-6.68-3.57-6.73-3.56-4.15-2.2c-6.9-3.69-12.47-6.09-20.37-4.8a19.5 19.5 0 0 0-7 9c-.24 2.82-.24 2.82-.23 6.06a439 439 0 0 0 .04 7.38v3.66c.06 10.9.6 21.71 2.5 32.46l.39 2.3q1.25 7.05 2.74 14.05c1.89 9.06 3.26 18.1 4.44 27.28 3.52 26.87 8.28 61.34 30.12 79.81a91 91 0 0 0 28 14c-.61 3.23-1.67 5.2-3.7 7.76l-1.7 2.18-1.85 2.31-1.91 2.41L289 548l-1.72 2.16a759 759 0 0 1-31.2 36.54q-2.04 2.25-4.03 4.53c-13.14 14.95-28 31.74-46.05 40.77q-2.91.15-5.81.24c-9 .28-14.87 1.03-21.94 7.13-5.89 6.88-8.77 12.95-8.57 22.03a24.6 24.6 0 0 0 6.38 13.91c10.86 6.24 22.59 7.68 34.94 5.7 6.07-1.82 11.58-4.77 17-8l2.97-1.77L233 670l-.66 1.83c-2.52 7.6-4.05 14.87-.84 22.48 2.44 4.36 6.13 6.48 10.5 8.7-1.75.68-1.75.68-4 1-2-1.27-2-1.27-4-3.14l-2.09-1.95A60 60 0 0 1 226 692l-4 2-2-3 2.38-1.38c3.72-3.72 3.97-7.54 4.62-12.62l-2.67 1.24-3.52 1.63-3.48 1.62c-11.01 4.98-20.47 5.6-32.1 1.8-8.83-3.52-14.93-8.69-19.23-17.29-.74-2.88-.59-5.1 0-8l.48-2.37c2.14-8.35 5.72-16.08 12.96-21.07 6.66-3.95 13.61-7.59 21.56-5.94 5.16.65 8.44-1.47 12.46-4.43q3.81-3.04 7.54-6.19l1.76-1.39a53 53 0 0 0 8.94-9.26L233 606h2l.69-1.69c2.8-4.93 7.59-8.48 11.81-12.19 4.2-3.78 7.4-7.43 10.5-12.12l2-1 1.31-2.25a30 30 0 0 1 5.12-6.19 149 149 0 0 0 16.75-20.02c2.43-3.39 4.88-6.64 7.88-9.54 2.12-2.18 3.46-4.36 4.94-7l3-5c-3.12-3.12-7.25-4.49-11.24-6.26-14.49-6.57-26.7-18.06-32.57-32.99q-1.18-3.74-2.25-7.5c-.94-3.25-.94-3.25-2-5.19-1.19-2.6-1.37-5.17-1.66-8-.42-3.1-1.41-6.05-2.28-9.06q-.82-4.17-1.53-8.35-.69-3.83-1.47-7.65a190 190 0 0 1-2.75-20.82C241 421 241 421 240 419l-.66-5.4c-.9-6.86-2.23-13.65-3.44-20.45-2.31-13.23-4.27-26.08-4.34-39.53l-.1-3.65c-.04-7.29.58-12.42 5.54-17.97 6.4-6.26 11.32-6.85 19.77-4.1" fill="#E1E2E2"/><path d="m371 557 3 1c-1.67 4.33-4.87 7.14-8.12 10.31l-1.79 1.77c-3.6 3.53-7.28 6.92-11.13 10.18-3.33 2.95-6.39 6.17-9.52 9.33a156 156 0 0 1-8.44 7.63 138 138 0 0 0-6.5 6.28 168 168 0 0 1-10.08 9.36 329 329 0 0 0-7.77 7.16 283 283 0 0 1-17.84 15.7q-4.08 3.34-8.05 6.82-3.56 3.08-7.17 6.1a129 129 0 0 0-4.07 3.68c-7.6 6.46-16.09 5.33-25.52 4.68 3.82-4.03 7.9-7.29 12.38-10.56a620 620 0 0 0 19.98-15.51q5.25-4.22 10.58-8.37c12.22-9.57 24.18-19.47 36.16-29.35l9.65-7.9q6.75-5.54 13.4-11.21A902 902 0 0 1 366 561l2.62-2.32z" fill="#E9E8EC"/><path d="m975.38 105.88 2.2-.02A68 68 0 0 1 998 109l3.55 1.08c12.37 3.98 23.88 9.28 34.45 16.92v2l1.83.31c2.53.8 3.44 1.72 5.17 3.69l1.38 1.38L1046 136q1.11 1.12 2.27 2.25c15.67 15.78 29.57 34.4 31.77 57.35-.09 5.75-1.96 10.78-5.1 15.53-1.95 1.87-1.95 1.87-3.95 1.87l-.62 1.88c-1.92 2.98-4.02 3.22-7.37 4.12l-2 1c-6.33.8-10.08-.5-15.4-3.95-9.15-7.22-15.57-16.49-20.48-26.93-4.74-9-11.32-17.88-20.12-23.12l-2.37-1.5-2.63-1.5q-.78-.5-1.6-1c-6.37-3.68-13.18-4.22-20.4-5v-1l-7-1v-1c16.26-.7 28.93 2.84 41.25 13.8 7.46 7 12.72 14.66 17.63 23.64 5.14 9.38 10.81 19.69 21.15 24 6.2 1.75 11.33.6 16.96-2.44 4.86-3.76 6.73-8.8 7.47-14.72.09-9.47-1.24-16.65-5.47-25.28-.2-.47-.2-.47-1.3-2.8-12.9-25.46-36.62-46.3-63.59-55.53-9.51-3.02-18.12-4.11-28.1-3.98l-3.58-.02c-24.84.16-45.92 9.44-63.74 26.6-6.41 6.53-12 12.83-16.68 20.72h-1c-.62-3.83 0-5 2.3-8.23l3.13-3.5 1.68-1.88q2.43-2.71 4.88-5.38l2.32-2.56C921.57 120.29 940.74 112 962 107q1.13-.3 2.34-.58c3.67-.59 7.31-.56 11.03-.55" fill="#DFE0E0"/><path d="M336 466c-.43 7.48-.43 7.48-2.97 9.8-12.19 5.16-24.81 7.68-37.74 3.25-5.09-2.34-9.18-5.39-12.29-10.05v-4l4.75-1.44 2.67-.81c15.2-4.44 30.97-2.17 45.58 3.25" fill="#151615"/><path d="M228 611h3c-2.49 6.89-10.47 11.6-16 16l-2.33 1.86c-5.5 3.68-11.08 3.58-17.49 3.77-7.4.26-11.32 1.9-16.93 6.75-5.89 6.87-8.77 12.94-8.57 22.02a24.6 24.6 0 0 0 6.38 13.91c10.86 6.24 22.59 7.68 34.94 5.69 6.07-1.81 11.58-4.76 17-8l2.97-1.76L233 670l-.66 1.84c-2.52 7.58-4.05 14.86-.84 22.47 2.44 4.36 6.13 6.49 10.5 8.69-1.75.7-1.75.7-4 1-2-1.26-2-1.26-4-3.12l-2.09-1.95A61 61 0 0 1 226 692l-4 2-2-3 2.38-1.38c3.72-3.72 3.97-7.53 4.62-12.62l-2.67 1.24-3.52 1.64-3.48 1.61c-11.01 4.99-20.47 5.6-32.1 1.8-8.83-3.52-14.93-8.69-19.23-17.29-.74-2.88-.59-5.1 0-8l.48-2.37c2.14-8.35 5.72-16.07 12.96-21.07 6.66-3.95 13.6-7.59 21.56-5.94 5.16.65 8.44-1.47 12.46-4.43q3.82-3.03 7.54-6.19l1.94-1.56c3.93-3.18 3.93-3.18 5.06-5.44" fill="#DBDDDC"/><path d="M360 476c2.62 1.69 2.62 1.69 4 4-.06 2.56-.06 2.56-1 5l-1.5 1.38c-2.32 2.51-2.13 5.31-2.5 8.62-1 1-1 1-3.88 1.38L352 496c-1.5-2.19-1.5-2.19-3-5q-1.55-1.3-3.19-2.5c-2.81-2.5-2.81-2.5-3.5-5.06.97-3.45 2.74-4.52 5.69-6.44a26 26 0 0 1 12-1" fill="#656567"/><path d="m296 462 .3 1.76c.99 5.19 2.06 9.22 5.7 13.24a47 47 0 0 0 8 3v1c-9.01.59-16.33-1.93-23.41-7.5C285 472 285 472 283 469v-4q2.4-.76 4.81-1.5l2.71-.84C293 462 293 462 296 462" fill="#EDC769"/><path d="M1040 133c2.31.19 2.31.19 5 1l3 5a47 47 0 0 0 4.06 3.5c14.96 13.02 26.34 33.65 27.99 53.55-.07 2.9-.9 5.32-2.05 7.95h-1l-.08-2.61c-1.22-25.41-14.73-43.97-31.57-61.83A68 68 0 0 1 1040 133" fill="#E8E9E8"/><path d="M380 452q2.07 2.95 4 6 1.49 2.01 3 4-2.81 1.49-5.62 2.94l-3.17 1.65A26 26 0 0 1 369 469c-2-2-2-2-2.06-4.69 1.58-4.94 7.38-12.31 13.06-12.31" fill="#EFCA66"/><path d="M714 685c8.35-.1 16.64.21 24.98.66l3.92.2 10.21.53 10.45.54L784 688c-3.97 2.19-7.35 2.3-11.81 2.25l-2.49-.01c-16.24-.21-32.49-1.33-48.7-2.24v-1l-7-1z" fill="#E8EAE8"/><path d="m499 571 2 1c-9.72 7.91-9.72 7.91-13.56 10.38C485 584 485 584 484 586l-2 .94c-2 1.06-2 1.06-3 4.06-5.38 1.19-10.45 2.29-16 2a67 67 0 0 1 8.6-5.67l2.66-1.51 2.8-1.57a270 270 0 0 0 20.08-12.24z" fill="#040505"/><path d="M930 181c1.02 2.67 1.07 3.81.11 6.55l-1.36 2.76-1.41 2.94L926 196q-.83 1.87-1.62 3.75L923 203l-1.34 3.19a246 246 0 0 1-5.6 12l-1.01 2.11c-1.91 3.87-3.73 6.83-7.05 9.7 0-3.04.35-4.08 1.65-6.71l1.09-2.24 1.2-2.43a439 439 0 0 0 10.96-24.59A62 62 0 0 1 930 181" fill="#DFDEE1"/><path d="M232 670c0 3 0 3-1 6.06-1.77 6.09-2.02 12.35.5 18.25 2.44 4.36 6.13 6.49 10.5 8.69-1.75.7-1.75.7-4 1-2-1.26-2-1.26-4-3.12l-2.09-1.95A61 61 0 0 1 226 692l-4 2-2-3 2.38-1.38c3.72-3.72 3.97-7.53 4.62-12.62l-3-2z" fill="#D7D8D9"/><path d="M888 593c2.83 3.18 3.36 5.13 3.26 9.35l-.05 3.08-.09 3.19-.11 6.29-.08 2.82C891 620 891 620 892 622c.24 3.08.19 6.16.19 9.25l.03 2.57c.02 4.8-.35 8.67-2.22 13.18h-1c-.77-18.01-1.15-35.97-1-54" fill="#F1F3F4"/><path d="M375 317c.82 1.62.82 1.62 1 4a57 57 0 0 1-5.19 6l-1.5 1.58q-1.47 1.53-2.97 3.04C365 333 365 333 363.21 335.27c-3.44 2.7-7.14 2.92-11.4 3.48l-2.46.38c-5.5.79-10.8.98-16.35.87 2.72-2.97 4.19-3.41 8.25-3.62l2.97-.2L347 336c8.15-.95 14.08-2.21 20-8l2-4q1.5-1.92 3.12-3.75l1.64-1.86z" fill="#E9EAEB"/><path d="M872 448h1a79 79 0 0 1 1.23 24.65c-.51 5.24-.88 10.48-1.29 15.73l-.54 6.64-.23 2.91L872 500h-1q-.04-7.49-.05-14.98l-.03-5.08c-.05-10.7.19-21.28 1.08-31.94" fill="#DEDEE0"/><path d="M191 630v2l-2.01.92c-8.58 4.07-14.18 8.87-18.18 17.7-1.22 5.07-1.49 10.19-1.81 15.38-2.91-3.41-2.91-3.41-3.29-5.94.97-8.92 5.25-17.46 11.29-24.06 2.69-1.8 2.69-1.8 5.56-3.31l2.88-1.55C188 630 188 630 191 630" fill="#DBDEDB"/><path d="M425 338c3.61 3.83 4.48 8.48 5.75 13.44l.71 2.56c2 7.66 2 7.66.54 12-5.11-4.38-5.73-11.45-6.41-17.84q-.37-5.07-.59-10.16" fill="#151616"/><path d="M405.81 440.81h2.31c5.6.05 5.6.05 7.88 1.2v2l-3.48-.59c-4.52-.56-8.5-.09-12.96.77l-2.24.41c-6.3 1.24-12.66 2.74-17.32 7.4l-2-2 5.56-3.38 3.13-1.9c6.4-3.33 12.07-4.03 19.12-3.9" fill="#020302"/><path d="M971 154c12.71-.55 23.18 1.08 34 8l-3 2-2.5-1.31c-7.24-3.49-13.43-5.21-21.5-5.69v-1l-7-1z" fill="#E0E1E0"/><path d="m278 339 3.07 1.5 4.05 1.94 2.02.98c5.05 2.4 9.38 4.02 15.05 3.02C305 346 305 346 308 348c-8.87 2.74-14.73 2.36-22.98-1.94A364 364 0 0 1 276 341z" fill="#D8DADC"/><path d="M874 427h2c.83 5.63.91 10.35 0 16q.06 3.49.26 6.98c-.33 2.59-1.39 3.29-3.26 5.02a1332 1332 0 0 1-.09-11.46c-.02-5.59.38-10.99 1.09-16.54" fill="#EEEEF0"/><path d="M826 685q5.93.1 11.85.26 3.01.08 6.02.12l3.81.11 3.52.08 2.8.43 2 3h-31l3-1v-2z" fill="#AAACAC"/><path d="M1076 190h1q.41 3.81.75 7.62l.25 2.17c.33 4.08.16 5.91-1.8 9.67-2.2 2.54-2.2 2.54-5.2 3.54l-.81 2c-1.19 2-1.19 2-4.19 2.88l-3 .12-2-2 3.25-1.25c5.17-2.25 8.01-5.22 10.16-10.54 1.24-4.62 1.36-9.44 1.59-14.21" fill="#E2E3E6"/><path d="M380 452q2.07 2.95 4 6 1.48 2.01 3 4l-8 4-1-4h6v-2h-2v-2h-2v-2h-4v2h-2v2l-4-1 3.88-3.5 2.17-1.97C378 452 378 452 380 452" fill="#CCBA7B"/><path d="m235 347 2 1c.41 1.95.41 1.95.63 4.48l.26 2.78.23 2.93.27 2.87c.41 4.66.72 9.26.61 13.94-2.95-2.44-3.43-4.27-4-8a88 88 0 0 1-.1-4.86l.01-2.69.03-2.76.01-2.82z" fill="#181C18"/><path d="m872 489 2 1c.41 2.11.41 2.11.62 4.75l.23 2.61q.15 2.64.11 5.28C875 505 875 505 876 508q.54 3.5 1 7l-3 1c-2.46-8.96-2.19-17.8-2-27" fill="#ECECED"/><path d="M721 235q2.8.39 5.56.94l3.07.59 2.37.47v1l-10.06 1.44-2.86.41L704 242c.56-1.93.56-1.93 2-4 3.22-.79 3.22-.79 7.06-1.19 6.87-.74 6.87-.74 7.94-1.81" fill="#E3E3E3"/><path d="m954 109 1 3-8.69 2.94-2.47.84c-3.92 1.32-7.74 2.56-11.84 3.22l1-3c2.25-1.06 2.25-1.06 5-2l2.46-1.04c4.51-1.87 8.64-3.44 13.54-3.96" fill="#ECECED"/><path d="M248 456c4.7 7.04 5.48 14.71 5 23-2.36-2.36-2.45-3.46-3-6.69a69 69 0 0 0-2.19-9.19c-.77-2.98-.93-4.31.19-7.12" fill="#E4E4E8"/><path d="M227 676c-7.37 5.98-15.89 9.64-25.38 8.88q-2.82-.38-5.62-.88v-1l2.13-.01c7.8-.3 13.8-2.36 20.74-5.71A15 15 0 0 1 227 676" fill="#E0E2DF"/><path d="M479 347v2l-21 11-2-2 9.81-5.5 2.82-1.59 2.7-1.5 2.49-1.4C476 347 476 347 479 347" fill="#E1E0E4"/><path d="m298 473 2.62 2.38c2.93 2.45 5.66 3.64 9.38 4.62v1c-7.01.46-14.11-.59-19.62-5.19L289 474h4v2h5z" fill="#D9C080"/><path d="M876 406h1c1.33 14.78 1.33 14.78 0 21h-3l.44-8.81.12-2.53.23-4.67C875 409 875 409 876 406" fill="#DCDCDE"/><path d="M237 371c2.16 4.33 3.14 6.89 3.12 11.81l.01 3.15c-.12 2.79-.5 5.32-1.13 8.04h-1c-2.4-15.24-2.4-15.24-2-22z" fill="#1F221F"/><path d="M967 106c2.9-.3 5.54-.42 8.44-.38l2.35-.03c4.6.02 5.83.03 9.21 3.41h-22z" fill="#F1F3F4"/><path d="M779 235q2.4.55 4.81 1.06l4.19.94-1 2-1.77-.18A974 974 0 0 0 765 237v-1c9.23-2.43 9.23-2.43 14-1" fill="#E2E1E4"/><path d="m245.31 328.73 2.7.02 2.68-.02C253 329 253 329 255 331c-1.07 1.5-1.07 1.5-3 3-3.69.18-3.69.18-7 0v-2l-4-1c2-2 2-2 4.31-2.27" fill="#18181A"/><path d="M862 208h3c-1.46 4.66-4.17 7.81-7.44 11.31l-1.48 1.67A77 77 0 0 1 852 225h-3l2.19-2c3.27-3.25 5.45-7.07 7.81-11 1.62-2.5 1.62-2.5 3-4" fill="#EDEBEF"/><path d="M233 345h1c1.61 20.98 1.61 20.98 1 27l-2 2c-1.81-9.61-1.22-19.34 0-29" fill="#EDF0ED"/><path d="M862 686v1l9 1v1c-11.37.15-22.65-.32-34-1v-1l8-.5 2.25-.14q7.38-.43 14.75-.36" fill="#C2C2C4"/><path d="M413 304c4.5 4.07 6.83 9.56 7.25 15.56L420 322c-3.91-3.26-4.82-6.12-6-11l-2-6z" fill="#1A1A1C"/><path d="m828 238 2 1c-4.33 4.7-7.15 6.8-13.56 7.25-3.15-.23-4.83-.58-7.44-2.25 3-2 3-2 6.31-1.44 5.45.65 8.28-1.62 12.69-4.56" fill="#EBECEF"/><path d="M965 108q2.49.21 4.98.32l2.84.12 5.91.25 7.27.31v1l-31 1v-2c3.93-1.52 6-2.1 10-1" fill="#BCBEBE"/><path d="M171 644c.82 2.74 1.1 3.71.12 6.5-1.63 5.08-1.79 10.2-2.12 15.5-2.94-3.39-2.94-3.39-3.21-6.04.75-5.86 2.54-10.7 5.21-15.96" fill="#E8EAE8"/><path d="m263 646 1 2a89 89 0 0 1-4 4h-2v4h-8c8.15-8.38 8.15-8.38 13-10" fill="#F0EFF0"/><path d="M714 685c9.7-.19 19.33.4 29 1v1c-7.36 1-14.57 1.1-22 1v-1l-7-1z" fill="#E0E3DF"/><path d="M998 109q1.96.58 3.94 1.12l3.06.88v2c-6.39-.72-12.68-1.8-19-3 1-2 1-2 2.62-2.75 3.45-.36 6.1.69 9.38 1.75" fill="#E9E9EA"/><path d="M188 682h20l-1 3c-6.9.94-12.34 1.14-19-1z" fill="#D3D4D6"/><path d="M887 579c3.29 5.93 3 10.82 2.06 17.31l-.3 2.25L888 604h-1q-.3-5.97-.56-11.94l-.17-3.44-.15-3.27-.14-3.03C886 580 886 580 887 579" fill="#DFDFE0"/><path d="m485 583 5 1 1 4-11 2v-3l1.94-.31L484 586z" fill="#1A1B1B"/><path d="m1044 213 1.62.62c5.79 2.1 11.24 3.01 17.38 3.38l-1 3c-7.52.6-11.74-.86-18-5z" fill="#EDEFF0"/><path d="m296 462 2 11-2-1v-2h-2v-6l-2.75 1c-3.25 1-3.25 1-7.25 1l-1 3v-4q2.4-.76 4.81-1.5l2.71-.84C293 462 293 462 296 462" fill="#CBB275"/><path d="M379 316h2c-.25 1.88-.25 1.88-1 4l-4 2-.44 1.81c-.85 3.31-3.11 4.93-5.56 7.19l-3-1 2.12-2.3 2.76-3.01 1.39-1.52A57 57 0 0 0 379 316" fill="#1C1D1E"/><path d="M279 628h2l1 3-10 8-3-2c3.13-3.39 5.57-5.61 10-7z" fill="#141214"/><path d="M875 515c2 1.39 2.9 2.51 3.39 4.91q.33 3.04.61 6.09l1 2c-.94 2.62-.94 2.62-2 5h-1q-.8-3.09-1.56-6.19l-.88-3.48c-.54-3.21-.44-5.23.44-8.33" fill="#E1E2E1"/><path d="m771 234-1 2-7.12.06-2.02.03c-4.07.02-7.87-.3-11.86-1.09v-1c7.53-.76 14.5-1.14 22 0" fill="#F0F1F4"/><path d="M902 141h2c-1.75 3.87-4.15 7.28-6.56 10.75l-1.25 1.82q-1.56 2.25-3.19 4.43h-1c-.54-3.72-.04-4.94 2.12-8.11q1.35-1.62 2.76-3.2l1.39-1.67A83 83 0 0 1 902 141" fill="#E0E0E2"/><path d="M331 467c2 1.25 2 1.25 4 3v4c-2.81 1.56-2.81 1.56-6 3l-3-1 1.94-2.25c1.84-2.46 2.62-3.78 3.06-6.75" fill="#C9BC85"/><path d="M235 367h1l.18 2.56c.46 6.18.98 12.31 1.82 18.44-3-2-3-2-3.68-3.82-.83-5.64-.79-11.65.68-17.18" fill="#D3D6D3"/><path d="M647 512h6l1 2q-2.37 1.3-4.75 2.56l-2.67 1.44c-2.79 1.08-3.85 1.07-6.58 0 4.75-3 4.75-3 7-3z" fill="#1B1E1F"/><path d="M429 353c4.22 6.33 4.22 6.33 3.62 10.81L432 366c-3.07-2.93-3.97-4.15-4.12-8.56C428 354 428 354 429 353" fill="#121410"/><path d="M532 318c-1 3-1 3-3.5 4.39l-3.06 1.3-3.07 1.32-2.37.99a14 14 0 0 1 5.44-6.81l1.81-1.33C529 317 529 317 532 318" fill="#E3E2E5"/><path d="M418 307c2.28 2.28 2.72 3.75 3.62 6.81l.79 2.58c.59 2.63.7 4.93.59 7.61-2.35-2.35-3.04-4.27-4.19-7.38l-1.1-2.89c-.72-2.78-.7-4.08.29-6.73" fill="#ECECED"/><path d="m615 274.19 2 .8c-3.83 3.34-8.38 5.07-13 7v-3c3.27-2.94 6.56-5.08 11-4.8" fill="#E0E0E2"/><path d="m291 619 3 1-8 8-3-1q1.92-2.56 4-5h2v-2z" fill="#131412"/><path d="m360 568-.94 1.75c-1.06 2.25-1.06 2.25-1.5 4.44L357 576l-3 1-3-2c5.34-7 5.34-7 9-7" fill="#EEF0EE"/><path d="M253 472a58 58 0 0 1 3.62 8.56l.79 2.32C258 485 258 485 258 488h-2c-3.59-5.79-4.43-9.3-3-16" fill="#D5D5D7"/><path d="M369 460h1v6h7c-2.59 2.59-4.4 2.7-8 3l-2-2c.57-5.57.57-5.57 2-7" fill="#CEB675"/><path d="m249 591 3 1-10 10-1-3z" fill="#D9DCDB"/><path d="m429 363 2 2 3-1v5l3 1c-3 2-3 2-6 2-1.86-3.13-2.2-5.37-2-9" fill="#1E1F1C"/><path d="m510 331 3 2-9 6-1-4z" fill="#1C1B1F"/><path d="m890 252 3 1c-1.9 2-3.85 3.69-6 5.44a30 30 0 0 0-6 6.56l-2-1c1.14-3.42 2.22-4.29 4.94-6.56A98 98 0 0 0 890 252" fill="#EDECEF"/><path d="M558 560c-1 3-1 3-3.29 4.17l-2.77 1.02-2.79 1.04-2.15.77-1-3 4.31-2 2.43-1.12C555 560 555 560 558 560" fill="#1A1B1A"/><path d="m241 417 3 1 .12 5.88.08 3.3C244 430 244 430 242 432l-.18-2.34-.26-3.04-.24-3.02C241 421 241 421 240 419z" fill="#E7E8E8"/><path d="M930 181c1.07 2.73 1.08 3.79 0 6.58l-1.44 2.67-1.43 2.7L926 195c-1.18-1.67-1.18-1.67-2-4 1.12-2.58 1.12-2.58 2.88-5.25l1.74-2.7z" fill="#D8D8D9"/><path d="M1040 133c2.31.19 2.31.19 5 1a87 87 0 0 1 3 5q2.49 2.02 5 4v2c-3.66-1.53-5.99-3.75-8.75-6.56l-2.42-2.44c-1.83-2-1.83-2-1.83-3" fill="#F1F1F2"/><path d="M290 523c4.71.48 8.67.97 13 3l-1 3a394 394 0 0 1-12-5z" fill="#ECECEE"/><path d="M244 427h1q.33 3.13.62 6.25l.36 3.52c.02 3.17-.28 4.61-1.98 7.23-1.14-5.69-1.86-11.42 0-17" fill="#D7D9D7"/><path d="M420 323c3 1.5 3.37 3.8 4.47 6.86.72 2.93.32 5.26-.47 8.14-1.74-2.61-2.42-4.01-3.12-6.94l-.51-2.02C420 327 420 327 420 323" fill="#151518"/><path d="M853 279c3 1 3 1 4.69 4.38C859 287 859 287 859 290l-2 1q-1.01-1.87-2-3.75l-1.12-2.11C853 283 853 283 853 279" fill="#DCDEDE"/><path d="m726.81 235.88 2.96.62 2.23.5v1l-17 1c1-2 1-2 3.2-3.18 3.3-.97 5.27-.66 8.61.06" fill="#DCDCDE"/><path d="M1076 190h1q.37 3.9.69 7.81l.22 2.24c.42 5.5.42 5.5-1.39 7.96l-1.52.99c-.93-3.01-1.04-3.87 0-7q.33-3.09.56-6.19l.26-3.29z" fill="#BFC1C1"/><path d="M999 158c4.15 1.44 7.3 3.5 10.81 6.12l2.96 2.2L1015 168l-2 2-1.54-1.39c-3.21-2.86-6.34-5.65-9.96-7.99L999 159z" fill="#1A1B1A"/><path d="M232 670c0 3.61-.96 6.56-2 10l-1-2a80 80 0 0 0-5-2c2.62-2.12 5.2-4.13 8-6" fill="#CCCDCB"/><path d="M329 598h3c-1.38 3.21-2.92 5.05-5.62 7.25l-1.92 1.58L323 608v-3h2v-2h2l.44-1.94C328 599 328 599 329 598" fill="#E0E0E6"/><path d="M284 466h5v2h-2l2 5h-3c-2-2-2-2-2.12-4.62z" fill="#E0C068"/><path d="m343.31 337.44 1.7 1.56c-2.89.96-4.7 1.1-7.7 1.06l-2.45-.02L333 340c3.17-3.4 5.97-5.26 10.31-2.56" fill="#EEEFF0"/><path d="M1077 189h2c.91 5.56 1.32 9.68-1 15h-1z" fill="#F0F2F1"/><path d="M971 154q3.18-.07 6.38-.12l3.58-.08c3.04.2 3.04.2 5.04 2.2-1 1-1 1-4.56 1.06L978 157v-1l-7-1z" fill="#D0D1D0"/><path d="m872 489 2 1c.41 2.29.41 2.29.62 5.06l.23 2.79.15 2.15h-3z" fill="#F1F2F4"/><path d="M248 456c2.95 4.42 3.1 6.68 3 12-3-2-3-2-3.75-4.88-.22-2.77-.15-4.53.75-7.12" fill="#EEEEF1"/><path d="M858 290h2c3.88 6.62 3.88 6.62 5 10h-3l-2-3.88-1.12-2.17C858 292 858 292 858 290" fill="#EBEBEE"/><path d="M214 681v2c-4.18 2.06-7.21 2.09-11.81 1.62l-3.52-.33L196 684v-1l2.52-.18 3.29-.26 3.27-.24c3.16-.35 5.73-1.32 8.92-1.32" fill="#F2F5F4"/><path d="M236 361c3.06 4.59 3.13 8.57 3 14-1.49-1.14-1.49-1.14-3-3-.29-2.7-.29-2.7-.19-5.69l.08-3.01z" fill="#0D100D"/><path d="M405 296v1l-3.31.88C398 299 398 299 395 301l-3-1c4.53-4.53 6.44-5.71 13-4" fill="#DDDFDD"/><path d="M633 265v3c-2.35 1.43-3.48 2.09-6.25 1.62L625 269c2.43-2.66 4.24-4 8-4" fill="#EEEEF2"/><path d="m883 168 2 1c-.55 3.37-1.05 5.08-3 8l-3-1z" fill="#EEEFF1"/><path d="M1005 112c3.59.39 6.7 1.59 10 3-1.5 1.19-1.5 1.19-4 2a51 51 0 0 1-8-3z" fill="#D3D7D5"/><path d="m788 236 11 3c-3 2-3 2-5.26 1.76l-2.43-.64-2.45-.61L787 239z" fill="#E8E7EC"/><path d="M379 454v2h-3v2h-2v2l-4-1c4.5-5 4.5-5 9-5" fill="#E0C87C"/><path d="m246 419 3 3c-.81 1.94-.81 1.94-2 4l-3 1v-7z" fill="#1F2022"/><path d="m786 236 2 2-1 1a86 86 0 0 1-5.06-.44l-2.79-.31L777 238c3.45-2.3 4.95-2.34 9-2" fill="#D7D6DA"/><path d="m954 109 1 3-9 2 2-4c3.12-.75 3.12-.75 6-1" fill="#E0E2E1"/><path d="M704 240v2l-8 2c.81-1.94.81-1.94 2-4 3-1 3-1 6 0" fill="#EDECEE"/><path d="m487 583 3 1c.69 2.06.69 2.06 1 4h-6c0-3 0-3 2-5" fill="#232325"/><path d="M259 496c1.88.31 1.88.31 4 1 2 3 2 3 2 6-2.99-1.1-3.85-1.68-5.25-4.62z" fill="#EDEDEC"/><path d="m387 462-8 4-1-4c6.75-1.12 6.75-1.12 9 0" fill="#DDC883"/><path d="M236 385c2.68 4.02 2.16 6.24 2 11l-2-1c-.45-2.03-.45-2.03-.69-4.5l-.26-2.47L235 386z" fill="#ECEFEC"/><path d="M877 350h2c.95 3.7.95 6.3 0 10l-2-1z" fill="#F2F1F4"/><path d="m571 295 5 1a29 29 0 0 1-9 5v-2h2z" fill="#E0E0E1"/><path d="m972.07 154.9 2.5.04 2.5.02 1.93.04-1 2c-3.43.75-3.43.75-7 1l-2-2c1-1 1-1 3.07-1.1" fill="#F2F3F3"/><path d="M191 630v2l-9 3v-2c5.62-3 5.62-3 9-3" fill="#E8EBEA"/><path d="m362 568 1 3-5 4-2-2z" fill="#DFE0DF"/><path d="m280 555 3 1-6 7-2-2z" fill="#DADBDC"/><path d="M882 546h2l1 5h-2l-1 4c-.88-6.15-.88-6.15-1-8z" fill="#E2E2E5"/><path d="m875 515 3 3-2 6c-1.62-2.57-2.04-3.68-1.62-6.75z" fill="#D8DAD7"/><path d="m566 298 3 1h-2l-1 3c-3.06 1.19-3.06 1.19-6 2v-2c2.81-2.19 2.81-2.19 6-4" fill="#EFEFF2"/><path d="M873 269c-1.25 3.74-2.63 4.19-6 6l-1-2c3.62-4 3.62-4 7-4" fill="#ECECED"/><path d="M897 246c-.31 1.88-.31 1.88-1 4l-3 2-3-1c4.75-5 4.75-5 7-5" fill="#DAD9DD"/><path d="m915 212 2 4c-1.38 3.25-1.38 3.25-3 6l-2-1z" fill="#D7D7D9"/><path d="m245 440 2 1v9l-3-3c.31-3.69.31-3.69 1-7" fill="#E6E8E6"/><path d="M428 345c2.12 3.53 2.53 6.94 3 11-3-2-3-2-3.75-4.94C427 348 427 348 428 345" fill="#313232"/><path d="m870 266 1 3-5 3-2-2z" fill="#19191B"/><path d="m1044 213 9 3-1 2c-3.37-.55-5.08-1.05-8-3z" fill="#E9E7EA"/><path d="M875 187h1l-1 7-3 1c.75-5.75.75-5.75 3-8" fill="#EDEEED"/><path d="m986 155 7 1 1 3-9-2z" fill="#EAEAEA"/><path d="m908 135 3 1-7 6c0-3 0-3 2-5.19z" fill="#CCCDCF"/><path d="m567 555-1 4c-1.88.62-1.88.62-4 1l-2-2c4.75-3 4.75-3 7-3" fill="#212323"/><path d="M624 529c-2.39 1.89-4.07 3.02-7 4v-3c3.62-2.12 3.62-2.12 7-1" fill="#1B1D1C"/><path d="M330 466h6l-1 4-3-2-2 3z" fill="#483B24"/><path d="m380 452 5 1 1 5-4-4-1 2z" fill="#201A13"/><path d="M237 335h2c-.51 3.72-1.12 6.73-3 10-.12-7.75-.12-7.75 1-10" fill="#131513"/><path d="M402 294c6.75 1.75 6.75 1.75 9 4-2 1-2 1-3.95.44l-2.17-.88-2.2-.87L401 296z" fill="#E9EAEA"/><path d="M918 207h2c-.88 4.75-.88 4.75-2 7h-2c.88-5.88.88-5.88 2-7" fill="#E6E5E9"/><path d="M1014 172c3.37 1.39 4.99 2.98 7 6-3 0-3 0-5.19-1.88C1014 174 1014 174 1014 172" fill="#DEDDDE"/><path d="m369 651 4 2c-2.35 1.43-3.48 2.09-6.25 1.62L365 654z" fill="#1E1F1F"/><path d="M886 571c2 1 2 1 2.75 2.81.31 2.69-.37 3.92-1.75 6.19h-1z" fill="#F1F4F5"/><path d="m354 578 3 1-6 5-2-1z" fill="#161A1D"/><path d="M310 480v1c-4.16.08-7.95-.02-12-1 4.1-3.08 7.47-1.36 12 0" fill="#AA9F80"/><path d="M874 427h2c.69 2.25.69 2.25 1 5-1.44 2.31-1.44 2.31-3 4z" fill="#F1F1F3"/><path d="M512 328v3l-7 3c0-2 0-2 1.81-4.12C509 328 509 328 512 328" fill="#E1E1E4"/><path d="m878 182 2 1-3 7-2-4z" fill="#DEE1DE"/><path d="m1068 167 3 1a31 31 0 0 1 2 5l-2 2c-3-5.75-3-5.75-3-8" fill="#DFE1DD"/><path d="m998 110 7 1v2l-8-1z" fill="#E1E3E2"/></svg>