<svg style="background:transparent" version="1.1" xmlns="http://www.w3.org/2000/svg" viewBox="0 0 1248 704"><path d="m524.25 9.81 2.75 2.2c.44.27.44.27 2.67 1.72 4.01 2.65 7.68 5.71 11.39 8.77l4.16 3.4 1.96 1.62q2.38 1.92 4.82 3.76l2 1.72v2l1.69.81c8.43 4.33 15.61 10.37 22.92 16.36 5.25 4.02 8.9 5.27 15.53 5.22l2.44.01h25.09q7.44-.04 14.88 0h11.43l5.48.01q3.84 0 7.66-.02l2.29.01c5.15-.06 5.15-.06 7.43-1.84L672 54l2.41-1.44a40 40 0 0 0 6.96-5.5c2.65-2.4 5.1-4.5 8.26-6.19a45 45 0 0 0 8.89-6.7C700 33 700 33 702 33l.69-1.8c1.66-2.79 3.52-3.64 6.31-5.2l1.37-1.44c2.03-1.95 4.37-3.06 6.82-4.4 1.87-1.2 3.1-2.44 4.56-4.1 5.84-6.04 13.18-8.37 21.44-8.8 5.92.2 9.07 1.47 13.16 5.72L758 15l2.13 2.33c2.21 3.15 2.68 5.43 3.18 9.23l.49 3.38c.2 3.06.2 3.06-.28 4.88-.66 2.77-.61 5.3-.58 8.15l.02 3.47.04 3.62.06 7.1.04 3.17C763 63 763 63 762 66a77 77 0 0 0-.06 4.57l.02 2.72.08 5.6.02 2.74.04 2.47a72 72 0 0 1-.6 6.87c-.62 5.47-.61 10.9-.57 16.4l.02 3.32.04 7.13.04 11.28q.06 16.06.14 32.08l.08 19.66q0 3.74.04 7.47.03 5.24.03 10.46l.04 3.1c-.01 6.11-.88 10.54-3.36 16.13l-.96 2.7c-2.19 5.9-5.03 10.45-9.04 15.3l-2.19 2.81c-3.22 3.9-6.91 7-10.81 10.2l-2.37 2a91 91 0 0 1-8.96 5.84C722 258 722 258 721 260c-.26 6.98 1.11 12.73 3.31 19.31l.68 2.02A85 85 0 0 0 731 295l4.37 8.75 3.31 6.58a336 336 0 0 1 8.48 17.77q1.19 2.65 2.53 5.21a29 29 0 0 1 2.31 6.7c1.77 6.57 3.52 13.08 6.19 19.36 1.8 4.28 2.33 8.03 2.81 12.63l1.06 2.12c1.32 2.63.94 4.95.94 7.88l1 3.5c.97 3.41 1.08 5.98 1 9.5l.5 2.5c.58 2.88.56 5.56.5 8.5 0 3 0 3 .49 4.8 1.89 8.18 1.16 19.25-1.49 27.2-.3 2.6-.51 5.21-.72 7.82C764 448 764 448 763 449q-.55 3.5-1 7l1.91-.44c11.69-2.54 21.55-1.89 32.09 4.44 10.06 7.62 15.59 17.38 17.63 29.81l.37 3.2 1 4v2l.55-1.77A83 83 0 0 1 821 484l2-4.5a202 202 0 0 1 5-10.5l1.16-2.42c2.24-4.64 4.46-8.64 7.84-12.58l1.16-2.17c2.57-3.95 5.8-7.04 9.15-10.33l1.98-1.98c5.91-5.85 11.58-10.83 19.08-14.52l2.09-1.04c23.59-11.33 49.79-12.25 74.54-3.96l3.06 1.01a111 111 0 0 1 34.84 21.12 153 153 0 0 0 4.35 3.73l2.19 1.83 1.99 1.63c1.57 1.68 1.57 1.68 2.04 3.76L994 455l1.84.87c2.6 1.36 3.6 2.75 5.25 5.16l1.69 2.46 1.72 2.57 1.72 2.5c5.05 7.43 10.72 16.05 9.53 25.44-1.56 7.42-5.4 12.46-11.55 16.8-3.71 2.02-7.02 2.34-11.2 2.2l-2.11-.02c-10.09-1.1-18.58-11.1-24.64-18.55l-2.12-2.72a180 180 0 0 0-6.88-8.2l-2.11-2.42c-2.23-2.18-4.44-3.56-7.14-5.09l-2.94-2.5A38 38 0 0 0 936 468l-3.44-1.57c-10.31-4.16-21.14-5.44-31.75-1.2L899 466l-2.56.81c-3.19 1.55-5.8 3.64-8.57 5.85C886 474 886 474 883 475a186 186 0 0 0-3 6 255 255 0 0 1-4.5 6.75 86 86 0 0 0-7.06 12.75l-1.26 2.78a212 212 0 0 0-5.12 13.1A174 174 0 0 1 853 537l-1.79 3.52c-4.95 9.63-10.28 17.97-18.21 25.48l-2.25 2.31c-8.67 8.48-17.79 16.36-28.75 21.7l-4.5 2.61c-2.77 1.57-4.36 2.36-7.56 2.75-7.61 1.62-12.56 9.44-17.21 15.21a70 70 0 0 1-10.06 9.96c-1.67 1.46-1.67 1.46-3.8 4.27-2.35 2.75-4.49 3.1-7.87 4.2-1.25 2-1.25 2-2 4l-2 2 2.23 1.42c8.25 5.6 12.63 10.6 15.14 20.26.66 3.76.98 6.65-.37 10.31-4 5.38-8.49 8.3-15 10-3.35.46-6.68.6-10.06.7q-1.28.03-2.61.1c-9.94.36-18.77.21-28.24-3.1A44 44 0 0 0 701 673l1.39 1.21c5.87 5.44 9.43 10.36 9.76 18.56l-.05 4.04-.02 2.1-.08 5.1q-14.18.16-28.35.25-6.57.03-13.16.11-6.35.1-12.7.1-2.43.01-4.85.06-3.39.04-6.78.04l-3.91.03c-3.25-.6-3.25-.6-5.62-2.99-3.01-4.83-3.9-8.99-4.63-14.6l-1-3c-.14-4.29-.16-7.9 1-12q.55-4 1-8l-1.76.02c-4.54.06-8.77-.1-13.24-1.03l1 1.7c1.12 2.57 1.18 4.21 1.06 7a88 88 0 0 0-.06 4.3l1 1c.14 4.25.19 7.91-1 12l-.31 3.25a25 25 0 0 1-2.73 7.98l-1.11 2.15L615 704q-14.42.07-28.84.1l-13.39.05-17.85.06q-3.45.02-6.9.01l-3.97.02C541 704 541 704 539 702c-.75-8.52 1.48-16.38 7-23 3.57-3.13 7.25-6.09 11-9a72 72 0 0 0-10.87 2.93Q543.07 674 540 675l-3.02 1.11c-5.76 1.61-11.86 1.22-17.79 1.2l-3.7.05c-16.37.01-16.37.01-22.43-4.94-3.04-3.13-5.35-6.8-6.21-11.1.34-5.27 3.52-9.88 6.15-14.32l1.42-2.67c1.79-2.65 3.48-3.87 6.21-5.52 4.28-2.63 4.28-2.63 5.37-4.8q-.87-.42-1.77-.82a32 32 0 0 1-5.98-4.19l-1.86-1.57C495 626 495 626 495 624l-1.78-.26c-2.86-.96-3.85-2.33-5.72-4.68A19 19 0 0 0 480 613c-4.6-4.36-8.37-9.69-12.25-14.69l-1.29-1.66A92 92 0 0 1 460 587l-1.9-2.98c-3.68-5.79-6.94-11.4-9.3-17.88-.8-2.14-.8-2.14-2.49-5.33-1.53-3.29-1.85-6.23-2.31-9.8q-.96-2.53-2-5c-2.23-7.54-3.07-15.24-4-23l-.29-2.13c-2.45-19.2.1-38.09 11.76-53.87 5.4-6.7 11.95-11.48 20.53-13 2.77-.23 5.53-.3 8.31-.32l2.11-.02c3.67.05 6.45.31 9.58 2.33l-.94-5.75-.52-3.24c-.54-3-.54-3-1.04-4.85-1.1-4.75-1.23-9.69-1.63-14.54l-.3-3.4-.27-3.3-.25-3c-.05-3.1.38-5.88.95-8.92q.03-2.63-.06-5.25a55 55 0 0 1 1.49-13.08c.65-3.07 1.12-6.14 1.57-9.24 1.11-7.35 2.41-14.2 5.15-21.15 1.05-2.8 1.92-5.66 2.79-8.53l1.04-3.4 1.92-6.33c2.64-8.38 6.26-16.14 10.1-24.02l1.13-2.35c1.84-3.75 3.83-7.38 5.87-11.03a102 102 0 0 0 6-13.02c1.13-2.94 2.38-5.83 3.63-8.73 3.72-9 4.66-16.09 4.37-25.87l-1.75-.29c-2.74-.87-4.11-2.13-6.19-4.09-2.19-2-4.03-3.6-6.62-5.06-3.16-2.02-5.23-4.54-7.62-7.4a80 80 0 0 0-3.61-4c-14.25-14.85-13.5-33.98-13.37-53.17l.02-6.14q.01-8.07.06-16.15.07-14.33.11-28.64l.01-3.13c.02-13.68-.08-27.35-.47-41.02l-.06-2.15a681 681 0 0 0-1.31-26.35c-.23-3.99-.27-7.92-.2-11.9.05-3.98.07-7.79-.69-11.7-.57-6.93.73-14.19 4.94-19.8q1.35-1 2.75-2l1.63-1.34c7.66-5.99 16.91-7.7 25.62-2.86M696 670.01l1 2 3-1z" fill="#151817"/><path d="m939 421 3.49 1.1c28.55 9.37 53.54 29.76 67.2 56.71 2.99 6.41 4.92 12.45 2.56 19.42-2.25 4.71-4.69 8.57-9.55 10.84a24.4 24.4 0 0 1-16.1.09c-9.22-4.8-15.83-12.28-22.22-20.29-10.03-12.1-24.99-26.28-41.52-28.11-13.92-.79-25.98.41-37.1 9.67L884 472l-1.76 1.45c-11.38 10.15-16.92 27.15-22.44 40.92-6.98 17.33-14.25 33.56-26.8 47.63l-1.4 1.83c-9.53 12.36-27.77 24.46-42.6 29.17-3.06.25-3.06.25-5 0 1.37-3.91 3.28-7.26 5.43-10.77 11.68-19.13 19.36-40.51 21.42-62.93.74-7.04 3.28-12.87 6.15-19.3q1.3-3.12 2.58-6.26c13.89-33.55 13.89-33.55 24.42-45.74l1.88-2.46C867.7 419.37 907.41 409.82 939 421" fill="#101211"/><path d="m524.25 9.81 2.75 2.2c.44.27.44.27 2.67 1.72 4.01 2.65 7.68 5.71 11.39 8.77l4.16 3.4 1.96 1.62q2.38 1.92 4.82 3.76l2 1.72v2l1.69.81c8.43 4.33 15.61 10.37 22.92 16.36 5.25 4.02 8.9 5.27 15.53 5.22l2.44.01h25.09q7.44-.04 14.88 0h11.43l5.48.01q3.84 0 7.66-.02l2.29.01c5.15-.06 5.15-.06 7.43-1.84L672 54l2.41-1.44a40 40 0 0 0 6.96-5.5c2.65-2.4 5.1-4.5 8.26-6.19a45 45 0 0 0 8.89-6.7C700 33 700 33 702 33l.69-1.8c1.66-2.79 3.52-3.64 6.31-5.2l1.37-1.44c2.03-1.95 4.37-3.06 6.82-4.4 1.87-1.2 3.1-2.44 4.56-4.1 5.84-6.04 13.18-8.37 21.44-8.8 5.92.2 9.07 1.47 13.16 5.72L758 15l2.13 2.33c2.21 3.15 2.68 5.43 3.18 9.23l.49 3.38c.2 3.06.2 3.06-.28 4.88-.66 2.77-.61 5.3-.58 8.15l.02 3.47.04 3.62.06 7.1.04 3.17C763 63 763 63 762 66a77 77 0 0 0-.06 4.57l.02 2.72.08 5.6.02 2.74.04 2.47a72 72 0 0 1-.6 6.87c-.62 5.47-.61 10.9-.57 16.4l.02 3.32.04 7.13.04 11.28q.06 16.06.14 32.08l.08 19.66q0 3.74.04 7.47.03 5.24.03 10.46l.04 3.1c-.01 6.11-.88 10.54-3.36 16.13l-.96 2.7c-2.19 5.9-5.03 10.45-9.04 15.3l-2.19 2.81c-3.22 3.9-6.91 7-10.81 10.2l-2.37 2a91 91 0 0 1-8.96 5.84C722 258 722 258 721 260c-.26 6.98 1.11 12.73 3.31 19.31l.68 2.02A85 85 0 0 0 731 295l4.37 8.75 3.31 6.58a336 336 0 0 1 8.48 17.77q1.19 2.65 2.53 5.21a29 29 0 0 1 2.31 6.7c1.77 6.57 3.52 13.08 6.19 19.36 1.8 4.28 2.33 8.03 2.81 12.63l1.06 2.12c1.32 2.63.94 4.95.94 7.88l1 3.5c.97 3.41 1.08 5.98 1 9.5l.5 2.5c.58 2.88.56 5.56.5 8.5 0 3 0 3 .49 4.8 1.89 8.18 1.16 19.25-1.49 27.2-.3 2.6-.51 5.21-.72 7.82C764 448 764 448 763 449q-.55 3.5-1 7l1.91-.44c11.69-2.54 21.55-1.89 32.09 4.44 10.06 7.62 15.59 17.38 17.63 29.81l.37 3.2 1 4v2l.55-1.77A83 83 0 0 1 821 484l2-4.5a202 202 0 0 1 5-10.5l1.16-2.42c2.24-4.64 4.46-8.64 7.84-12.58l1.16-2.17c2.57-3.95 5.8-7.04 9.15-10.33l1.98-1.98c5.91-5.85 11.58-10.83 19.08-14.52l2.09-1.04c23.59-11.33 49.79-12.25 74.54-3.96l3.06 1.01a111 111 0 0 1 34.84 21.12 153 153 0 0 0 4.35 3.73l2.19 1.83 1.99 1.63c1.57 1.68 1.57 1.68 2.04 3.76L994 455l1.84.87c2.6 1.36 3.6 2.75 5.25 5.16l1.69 2.46 1.72 2.57 1.72 2.5c5.05 7.43 10.72 16.05 9.53 25.44-1.56 7.42-5.4 12.46-11.55 16.8-3.71 2.02-7.02 2.34-11.2 2.2l-2.11-.02c-10.09-1.1-18.58-11.1-24.64-18.55l-2.12-2.72a180 180 0 0 0-6.88-8.2l-2.11-2.42c-2.23-2.18-4.44-3.56-7.14-5.09l-2.94-2.5A38 38 0 0 0 936 468l-3.44-1.57c-10.31-4.16-21.14-5.44-31.75-1.2L899 466l-2.56.81c-3.19 1.55-5.8 3.64-8.57 5.85C886 474 886 474 883 475a186 186 0 0 0-3 6 255 255 0 0 1-4.5 6.75 86 86 0 0 0-7.06 12.75l-1.26 2.78a212 212 0 0 0-5.12 13.1A174 174 0 0 1 853 537l-1.79 3.52c-4.95 9.63-10.28 17.97-18.21 25.48l-2.25 2.31c-8.67 8.48-17.79 16.36-28.75 21.7l-4.5 2.61c-2.77 1.57-4.36 2.36-7.56 2.75-7.61 1.62-12.56 9.44-17.21 15.21a70 70 0 0 1-10.06 9.96c-1.67 1.46-1.67 1.46-3.8 4.27-2.35 2.75-4.49 3.1-7.87 4.2-1.25 2-1.25 2-2 4l-2 2 2.23 1.42c8.25 5.6 12.63 10.6 15.14 20.26.66 3.76.98 6.65-.37 10.31-4 5.38-8.49 8.3-15 10-3.35.46-6.68.6-10.06.7q-1.28.03-2.61.1c-9.94.36-18.77.21-28.24-3.1A44 44 0 0 0 701 673l1.39 1.21c5.97 5.53 9.34 10.42 9.85 18.7.05 3.7-.06 7.4-.24 11.1l-4-1 .11-2.6c.21-9.03-.52-14.22-6.11-21.4v-2l-1.56-.76a131 131 0 0 1-7.66-4.35C691 671 691 671 687 670v-9a84 84 0 0 1 10.46 4.87c17.11 8.98 38.7 11.92 57.54 6.13 2.48-1.94 3.62-3.24 5-6 .75-6.9.61-12.99-3.17-18.96-4.53-5.05-10.8-8.1-16.83-11.04a73 73 0 0 1 9.94-8.5c9.28-7.06 17.82-14.37 24.83-23.74 5.82-7.75 10.18-11.45 19.39-14.42 10.75-3.48 20.36-11.13 28.84-18.34l3.06-2.3c7.73-7.08 13.66-15.72 18.94-24.7l1.79-2.98c4.91-8.63 8.54-17.67 12.15-26.9C870.99 483.4 870.99 483.4 883 472l1.55-1.54c10.08-9.26 22.38-11.12 35.45-10.84 6.41.33 11.44 2.22 17 5.38l2.52 1.28c7.49 4.06 13.41 9.85 19.48 15.72l2 1.88a103 103 0 0 1 9.44 10.68A49 49 0 0 0 983 506l2.81 1.87a26 26 0 0 0 17.63-.06c4.33-3.07 7.16-6.67 8.56-11.8 1.74-11.29-4.47-20.96-10.85-29.7A183 183 0 0 0 985 448l-1.98-2.03C969.59 433.32 950.68 424.56 933 420l-1.98-.54c-22.11-5.53-45.6-.75-65.02 10.54-4.23 2.71-8.13 5.8-12 9l-1.79 1.33c-17.81 13.5-25.91 39.6-34.17 59.35l-.84 2-2.08 5.04C814 509 814 509 812 510l-.12-1.74c-1.15-15.89-2.37-31.5-14.63-43-8.46-6.86-16.3-8.24-27.07-7.57-4.19.6-8.18 1.96-12.18 3.31l.26-1.88 1.18-8.56.41-2.95 1.15-8.6.31-2.23A176 176 0 0 0 760 384l-.31-1.96c-4.52-28.46-16.16-55.96-29.67-81.19-5.04-9.55-10.31-20.1-12.02-30.85l-.55-2.76c-.38-3.44-.37-5.89.55-9.24 3.37-3.6 7.15-6.2 11.28-8.87 14.41-9.49 23.39-21.55 27.25-38.44.47-2.7.61-5.2.62-7.95l.03-3.15.01-3.43.02-3.64.05-7.84.08-12.49.15-24.38.19-30.76.06-10.33c.09-16.63.4-33.22 1.02-49.84a1158 1158 0 0 0 .62-24.6c.11-7.25-1.09-12.77-6.13-18.16-5.62-3.49-10.73-4.38-17.25-3.12-7.96 3.23-14.68 9.47-21.4 14.75q-3.6 2.79-7.29 5.5a1014 1014 0 0 0-17.38 13.35 353 353 0 0 1-4.32 3.32C683 50 683 50 680.38 52.5c-9.52 8.53-17.67 9.03-30.12 8.93l-5.68.05q-5.93.04-11.85 0-7.53-.05-15.06.1-5.86.08-11.72.04-2.78 0-5.54.06c-13.14.24-20.52-2.46-30.15-11.53l-1.7-1.66a65 65 0 0 0-6.35-5.22l-1.95-1.48-1.89-1.42a963 963 0 0 1-15.68-12.12L536 23l-1.65-1.3c-14.68-11.48-14.68-11.48-24.86-11.1-4.98.8-8.63 3.04-11.75 7-3.76 5.44-4.44 9.57-4.26 16.1l.01 2.78q.04 4.39.14 8.77l.04 5.74c.06 7.07.16 14.13.56 21.2.76 13.27.93 26.51.97 39.81l.05 11.72q.1 16.64.15 33.28.03 10.24.1 20.47l.03 7.75q.01 5.42.05 10.83l-.01 3.2c.08 7 1.28 13.1 3.43 19.75l.85 2.66c4.91 14.76 18.74 25.27 31.51 33.18C533 256 533 256 534 258q.21 3 .25 6l.08 3.25c-.73 8.3-4.05 15.97-7.33 23.56l-1.17 2.73a262 262 0 0 1-9.39 19.02c-16.31 30.45-26.62 65.71-26.75 100.31l-.01 2.27a185 185 0 0 0 3.95 38.65C494 456 494 456 494 460l-3.37-1c-9.97-2.17-22.56-3.18-31.52 2.33-11.21 8.88-15.97 20.68-17.88 34.62-3.84 34.68 7.81 73.34 29.5 100.55q3.38 4.07 6.93 8 1.96 2.2 3.87 4.43c8.64 9.85 19.65 20.16 31.47 26.07v2l-1.98.7c-8.28 3.1-13.96 6.75-18.1 14.76-2.02 5.6-2.02 11.14.45 16.54 6.64 5.05 15.12 5.53 23.19 5.43l2.89-.02c14.76-.33 28.04-4.55 41.18-11.22C563 662 563 662 565 662v8l-1.98.92c-8.21 3.93-14.07 7.66-18.05 16.1-1.8 5.52-1.88 11.21-1.97 16.98l-4-2c-.47-8.64 1.36-16.23 7-23 3.57-3.13 7.25-6.09 11-9a72 72 0 0 0-10.87 2.93Q543.07 674 540 675l-3.02 1.11c-5.76 1.61-11.86 1.22-17.79 1.2l-3.7.05c-16.37.01-16.37.01-22.43-4.94-3.04-3.13-5.35-6.8-6.21-11.1.34-5.27 3.52-9.88 6.15-14.32l1.42-2.67c1.79-2.65 3.48-3.87 6.21-5.52 4.28-2.63 4.28-2.63 5.37-4.8q-.87-.42-1.77-.82a32 32 0 0 1-5.98-4.19l-1.86-1.57C495 626 495 626 495 624l-1.78-.26c-2.86-.96-3.85-2.33-5.72-4.68A19 19 0 0 0 480 613c-4.6-4.36-8.37-9.69-12.25-14.69l-1.29-1.66A92 92 0 0 1 460 587l-1.9-2.98c-3.68-5.79-6.94-11.4-9.3-17.88-.8-2.14-.8-2.14-2.49-5.33-1.53-3.29-1.85-6.23-2.31-9.8q-.96-2.53-2-5c-2.23-7.54-3.07-15.24-4-23l-.29-2.13c-2.45-19.2.1-38.09 11.76-53.87 5.4-6.7 11.95-11.48 20.53-13 2.77-.23 5.53-.3 8.31-.32l2.11-.02c3.67.05 6.45.31 9.58 2.33l-.94-5.75-.52-3.24c-.54-3-.54-3-1.04-4.85-1.1-4.75-1.23-9.69-1.63-14.54l-.3-3.4-.27-3.3-.25-3c-.05-3.1.38-5.88.95-8.92q.03-2.63-.06-5.25a55 55 0 0 1 1.49-13.08c.65-3.07 1.12-6.14 1.57-9.24 1.11-7.35 2.41-14.2 5.15-21.15 1.05-2.8 1.92-5.66 2.79-8.53l1.04-3.4 1.92-6.33c2.64-8.38 6.26-16.14 10.1-24.02l1.13-2.35c1.84-3.75 3.83-7.38 5.87-11.03a102 102 0 0 0 6-13.02c1.13-2.94 2.38-5.83 3.63-8.73 3.72-9 4.66-16.09 4.37-25.87l-1.75-.29c-2.74-.87-4.11-2.13-6.19-4.09-2.19-2-4.03-3.6-6.62-5.06-3.16-2.02-5.23-4.54-7.62-7.4a80 80 0 0 0-3.61-4c-14.25-14.85-13.5-33.98-13.37-53.17l.02-6.14q.01-8.07.06-16.15.07-14.33.11-28.64l.01-3.13c.02-13.68-.08-27.35-.47-41.02l-.06-2.15a681 681 0 0 0-1.31-26.35c-.23-3.99-.27-7.92-.2-11.9.05-3.98.07-7.79-.69-11.7-.57-6.93.73-14.19 4.94-19.8q1.35-1 2.75-2l1.63-1.34c7.66-5.99 16.91-7.7 25.62-2.86M696 670.01l1 2 3-1z" fill="#E6E7E7"/><path d="M673 495c1.28 2.91.96 4.12-.06 7.19-3.3 6.99-8.1 14.67-13.94 19.81-2.18.69-2.18.69-4 1v2c-2.48 1.73-2.48 1.73-5.75 3.62l-3.23 1.92C643 532 643 532 639 532l.43 3.94c1.74 17.46 1.91 34.84 1.89 52.38q-.01 4.92.02 9.84c.22 41.49.22 41.49-3.34 60.84-1 1-1 1-3.13 1.11l-2.78-.01-3-.01-3.15-.03-3.17-.01L615 660a362 362 0 0 1-4-50l-.07-3.94c-.37-24.4.71-48.7 2.07-73.06l-2.43-1.17c-13.08-6.4-25.04-15.04-30.88-28.94-.68-2.85-.72-4.2.31-6.89l1.73 2.09c10.03 11.62 23.65 22.87 39.48 24.45 16.5.9 29.99-6.4 42.17-17.1A85 85 0 0 0 673 495" fill="#000"/><path d="M739 470h1c.43 28.49-2.21 55.71-11 83l-1.08 3.43a420 420 0 0 1-7.8 21.76c-9.08 23.66-16.72 46.99-20.68 72.08-.74 4.59-1.59 9.16-2.44 13.73-1.79.61-1.79.61-4 1-4.25-2.24-4.25-2.24-6-5-.54-3.77.29-7.29 1-11l.8-4.6c3.53-19.42 10.33-37.52 16.99-56.04A1960 1960 0 0 0 714 565l.8-2.3a361 361 0 0 0 8.38-27.34c.98-3.74 2.16-7.2 3.71-10.74 2.84-6.93 4.2-14.22 5.72-21.52q.77-3.69 1.57-7.38c1.82-8.54 3.5-17.08 4.82-25.72" fill="#000100"/><path d="M512 471c2.01 3.02 2.49 4.67 3.15 8.16l.6 3.13.63 3.33 1.33 6.87.67 3.39c2.71 13.63 6.46 26.87 10.62 40.12l1.09 3.46 3.53 11.16 1.13 3.56a236 236 0 0 0 6.26 17.35c1.83 4.58 3.39 9.25 4.99 13.91l2 5.81 1 2.88q1.49 4.26 3.07 8.49c4.72 12.95 8.07 26.26 10.81 39.76l.65 3.18c2.01 10.32 2.01 10.32 1.47 15.44-3.12 2.7-4.83 4-9 4l-.41-2.89-1.56-10.71-.67-4.62c-2.16-15.19-2.16-15.19-4.63-21.8a67 67 0 0 1-1.95-6.47c-4.04-15.33-9.85-29.83-15.78-44.51-7.69-19.08-12.65-38.72-16-59l-.46-2.7c-2.29-13.84-2.94-27.29-2.54-41.3" fill="#000101"/><path d="M633.63 188.38C636 190 636 190 638 192c-.1 4.44-.59 6.5-3.44 9.94C632 204 632 204 630 204l-.37 3.38C629 211 629 211 627 213c-2.94.38-2.94.38-6 0-2.48-2.22-2.98-3.44-3.2-6.75l.2-2.25-1.76-.69c-2.96-1.72-4.46-3.4-6.25-6.31-.18-3.06-.18-3.06 1-6 6.46-5.46 14.88-5.56 22.63-2.62" fill="#606362"/><path d="M488 409h1l.08 3.93c.39 13.8 2.1 27.09 4.57 40.67.35 2.4.35 2.4.35 6.4l-3.38-1c-9.96-2.16-22.55-3.18-31.51 2.33-11.21 8.88-15.97 20.69-17.88 34.62-2.3 20.75 2.06 41.31 8.17 61.02q1.02 3.47 1.6 7.03c-1.88-.62-1.88-.62-4-2-1.06-2.5-1.06-2.5-2-6l-1.5-4.88c-2.76-9.36-4.34-18.42-5.5-28.12l-.29-2.12c-2.45-19.19.1-38.09 11.76-53.87 5.4-6.71 11.95-11.48 20.53-13.01 2.77-.22 5.53-.29 8.31-.31l2.11-.02c3.67.05 6.45.31 9.58 2.33l-.94-5.75-.52-3.23c-.54-3.02-.54-3.02-1.1-5.06-2.31-10.27-.1-22.49.56-32.96" fill="#E1E3E4"/><path d="M616 661h20l-.11 6.03-.05 5.87-.1 6c-.08 9.55.83 17.08 6.26 25.1-2.65-.37-3.78-.76-5.62-2.75-2.85-4.65-3.68-8.87-4.38-14.25l-1-3c-.14-4.28-.16-7.88 1-12q.55-4 1-8l-1.76.04c-4.54.05-8.77-.12-13.24-1.04l1 1.71c1.12 2.56 1.18 4.2 1.06 6.98A88 88 0 0 0 620 676l1 1c.14 4.25.19 7.91-1 12l-.31 3.25c-.82 4.44-2.51 7.84-4.69 11.75l-4-1 .84-1.61 1.1-2.14 1.09-2.11c2-4.4 2.09-8.27 2.07-13.09l-.01-2-.03-6.3-.01-4.28z" fill="#F1F3F3"/><path d="M865 499h1c.55 6.82-.48 10.74-3.77 16.72A45 45 0 0 0 859 524c-5.4 13.15-11.88 26.05-21 37l-2 3c-3.12.69-3.12.69-6 1l2.56-3.44 1.68-2.26a89 89 0 0 1 3.37-4.17c13.4-15.85 20.04-37.01 27.39-56.13" fill="#E1E1E3"/><path d="M585 57q16.38-.07 32.75-.1l15.21-.05 14.67-.04 5.6-.02q3.91-.02 7.83-.02l2.36-.02c5.35.02 5.35.02 7.58 2.25-1.78 1.78-4.15 1.12-6.52 1.12l-2.4-.01h-2.51l-8.26-.01-5.71-.01-15.07-.02-15.36-.02L585 60z" fill="#EFF2F3"/><path d="M494 126h1v84l-2-1c-1.31-4.33-1.14-8.78-1.13-13.26l-.01-2.46.02-7.97v-2.74a1446 1446 0 0 1 .62-41.15l.18-6.13.11-3.48C493 129 493 129 494 126" fill="#EDF0EE"/><path d="M495 208c1.97 2.96 2.57 5.3 3.39 8.7 4.6 17.43 18.11 28.93 32.97 38.14C533 256 533 256 534 258c.62 8.19-.09 15.32-3 23l-2-1 .44-1.98A89 89 0 0 0 531 257l-1.75-.29c-2.74-.86-4.11-2.13-6.19-4.09-2.19-2-4.03-3.6-6.62-5.06-3.16-2.02-5.23-4.54-7.62-7.4a76 76 0 0 0-3.61-4c-6.19-6.45-11.1-15.18-12.21-24.16.94-2.31.94-2.31 2-4" fill="#E5E7E8"/><path d="m709.63 172 2.38 2v2h-5v-2c-13.37-2.64-27.25-3.74-40.43.25A64 64 0 0 1 658 176v2h-4v2l-5 1c1.38-2 1.38-2 3-4h2v-2c13.72-8.28 41.27-11.86 55.63-3" fill="#020404"/><path d="M598.37 176.41 600 178v4h-2l-1.67-1.83c-2.9-2.7-5.88-3.71-9.58-4.86l-1.9-.64c-13.66-4.41-29.3-4.06-42.85.33l-3.75 1.19-2.25.81v-3c3.92-3.11 8.24-3.9 13.06-4.69l2.3-.38c15.97-2.51 32.86-.94 47.01 7.48" fill="#030406"/><path d="M758 152h2q.53 16.9.95 33.8l.15 5.94q.1 4.5.15 9.01l.06 2.55c.04 5.57-1.11 9.58-3.31 14.7l-1 3h-2c.89-7.51.89-7.51 1.51-10.28.52-2.86.65-5.53.7-8.43l.06-3.39.05-3.64.06-3.74.15-9.82.16-10.04z" fill="#F0F3F2"/><path d="m725 13 4 2-5.08 3.81-4.39 3.3-9.63 7.2A890 890 0 0 0 672 59l-2-1c1.49-3.92 3.48-4.9 7-7q2.24-1.92 4.38-3.94c2.64-2.4 5.09-4.5 8.24-6.18 3.44-1.91 6.03-4.06 8.9-6.71C700 33 700 33 702 33l.69-1.81c1.66-2.78 3.52-3.62 6.31-5.19l1.38-1.44c2.01-1.94 4.33-3.04 6.77-4.38 3.08-1.96 5.37-4.51 7.85-7.18" fill="#DEDEE1"/><path d="M750 8c3.36 1.82 5.6 4.06 8 7l2.12 2.34c3.61 5.12 4.32 12.14 3.55 18.28-.55 2.19-.55 2.19-1.67 5.38h-1l-.11-2.53c-.93-15.89-.93-15.89-6.27-22.35L752 14l-2.12-1.81c-4.55-1.88-9.03-1.75-13.88-1.19-3.5 1.56-3.5 1.56-6 3l-3-1c7.56-5.21 13.86-6.25 23-5" fill="#ECECED"/><path d="M493 68h1c.9 12.48 1.13 24.95 1.18 37.46l.03 5.21.02 7.43.02 2.28c-.01 3.76-.11 5.41-2.25 8.62a611 611 0 0 1-1.12-37.81l-.01-2.11c-.02-7.1 0-14.05 1.13-21.08" fill="#DFE1E1"/><path d="M760 28h1l1 11.31.29 3.19c1.55 17.98 1.55 17.98-.29 23.5a77 77 0 0 0-.06 4.57l.02 2.72.08 5.6c.05 5.8-.29 11.36-1.04 17.11h-1c-1.83-22.62-1.31-45.37 0-68" fill="#E1E1E1"/><path d="m940 419-1 2-2.44-.66c-15.56-3.68-32.44-4.16-47.95 0-2.61.66-2.61.66-6.61.66v-2c18.26-6.27 39.81-6.82 58 0" fill="#EAECEB"/><path d="M762 430h1a34 34 0 0 1 1 18l-1 1q-.55 3.5-1 7l3.94-.56c4.87-.56 9.22-.13 14.06.56v1l-2.27.11-3.11.2-3.02.18c-4.7.67-9.09 2.05-13.6 3.51l.26-1.88 1.18-8.56.41-2.95q1.2-8.79 2.15-17.61" fill="#E0E3E2"/><path d="M488 409h1l.08 3.93c.39 13.8 2.1 27.09 4.57 40.67.35 2.4.35 2.4.35 6.4l-6-1 3-1-.88-3.38L489 450l-.58-2.3c-2.9-12.65-1.23-25.87-.42-38.7" fill="#D0D0D1"/><path d="M883 421a58 58 0 0 1-6.66 3.88c-8.53 4.33-16.11 8.77-23.34 15.12l-2.62 2.09A66 66 0 0 0 844 448c.51-4.17 2.75-6.09 5.69-8.94l2.57-2.52c5.44-5.04 10.31-8.61 16.99-11.79l2.18-1.06L877 421c2.49-1.25 3.41-.78 6 0" fill="#E2E3E5"/><path d="M442 479h2c-.5 4.39-1.12 8.67-2 13-1.14 6.22-1.44 12.37-1.62 18.69L440 522l-2-1c-1.24-5.69-1.08-11.27-.81-17.06l.12-2.79A76 76 0 0 1 442 479" fill="#EDF0EE"/><path d="M555 673c-1 3-1 3-3.25 4.56-6.18 5.48-7.98 11.99-8.56 20.06q-.14 3.19-.19 6.38l-4-2c-.48-8.75 1.44-16.05 7-23 6.15-6 6.15-6 9-6" fill="#E5E4EC"/><path d="m632 675 3 1 .11 2.75c.51 9.4 1.52 17.33 6.89 25.25-2.65-.37-3.78-.76-5.62-2.75-2.85-4.65-3.68-8.87-4.38-14.25l-1-3c-.18-2.69-.09-5.29 0-8z" fill="#E5E6E8"/><path d="M488 388h2q-.89 19.5-2 39l-2-1a44 44 0 0 1 0-17q0-2.62-.06-5.25c-.07-5.46.77-10.46 2.06-15.75" fill="#EDF0F1"/><path d="M704 678c4.32 1.79 5.48 3.86 7.25 8.07 1.5 5.86 1.03 11.94.75 17.93l-4-1 .11-2.6c.15-6.73 0-11.43-3.11-17.4-.69-2.94-.69-2.94-1-5" fill="#E9ECE9"/><path d="M810 481c1.97 1.64 2.91 2.58 3.48 5.12l.14 2.32c.22 2.98.63 5.67 1.38 8.56v2h2c-.61 4.13-2.04 7.33-4 11h-1l-1-12.81-.29-3.68-.27-3.53-.26-3.25A91 91 0 0 1 810 481" fill="#E7EAE6"/><path d="M764 407c3.41 3.57 3.35 6.37 3.25 11.19l-.03 2.01c-.11 4.98-.53 9.86-1.22 14.8l-3 1c-.19-9.7.4-19.33 1-29" fill="#F1F4F2"/><path d="M495 208c1.97 2.96 2.57 5.28 3.38 8.68 1.54 5.76 3.42 11.27 7.43 15.76L508 235l-1 3c-7.04-6.89-12.77-16.04-14-26 .94-2.31.94-2.31 2-4" fill="#DDDFE0"/><path d="M865 499h1c.55 6.81-.46 10.74-3.77 16.7-1.23 2.3-1.23 2.3-2.29 5.8-.94 2.5-.94 2.5-3 3.66L855 526c2.41-9.36 6.24-18.13 10-27" fill="#DCDDDD"/><path d="M754 642c2.63.36 3.72.65 5.41 2.75 3.58 6.65 5.59 12.66 5.59 20.25h-3l-.23-2.05c-.94-6.66-2.79-11.36-6.53-16.95-1.24-2-1.24-2-1.24-4" fill="#EBEBED"/><path d="M971 498a34 34 0 0 1 7.62 4.88A40 40 0 0 0 1000 511c-2 2-2 2-4.21 2.05l-2.6-.3-2.58-.27c-5.75-1.06-9.53-3.75-13.92-7.48l-1.67-1.37A92 92 0 0 1 971 500z" fill="#E5E6E9"/><path d="M750 8c2.59 1.43 3.36 2.48 5 5l-3 1-2-1.44c-4.55-2.37-8.96-2.14-14-1.56-3.5 1.56-3.5 1.56-6 3l-3-1c7.6-5.24 13.82-6.01 23-5" fill="#E7E7E9"/><path d="M754 169h1l.08 2.63.29 9.65.13 4.18.18 6 .11 3.65C756 198 756 198 757 200q.1 3.32.06 6.62l-.02 3.61L757 213h-1l-1-5h-1z" fill="#1B1F1C"/><path d="M565 662v8l-10 4-1-2 1.94-1.75C558 668 558 668 558.5 665.88c.5-1.88.5-1.88 2.44-3.13C563 662 563 662 565 662" fill="#EDEDF0"/><path d="M761 657h1v8h2c-2.44 5.52-6.65 8.97-12.12 11.38-2.74.59-5.09.78-7.88.62l1-3 2.05-.3c8.93-1.49 8.93-1.49 11.95-5.7 1.15-2.3 1.31-4.08 1.56-6.62l.26-2.48z" fill="#DBDEDB"/><path d="m492 19 2 2a86 86 0 0 1-.67 4.82c-.66 4.34-.71 8.74-.89 13.12l-.13 2.94L492 49h-1c-1.8-10.83-2.43-19.38 1-30" fill="#F1F0F3"/><path d="M559 665c-.08 1.82-.08 1.82-1 4-2.95 1.52-2.95 1.52-6.69 2.81l-3.7 1.33c-3.69.88-5.97.77-9.61-.14a91 91 0 0 1 10.62-4.56C557.7 665 557.7 665 559 665" fill="#DDDDDE"/><path d="M449 564h3l3 6.19 1.69 3.48c1.23 3.12 1.61 5.03 1.31 8.33-2.62-2.34-4.07-4.73-5.62-7.88l-1.29-2.55A32 32 0 0 1 449 564" fill="#E6E9E7"/><path d="m1012 496 2 4c-2.96 5.19-6.5 9.4-12 12-3.15.19-5.95-.22-9-1v-1l1.79-.33c6.27-1.26 10.48-2.36 14.46-7.67 1.75-3 1.75-3 2.75-6" fill="#DAD9DB"/><path d="m912.75 459.88 2.11.02 5.14.1v2c-6.46 1.01-6.46 1.01-9.5.94-3.37.08-6.3 1.06-9.5 2.06v-3c3.74-2.44 7.44-2.24 11.75-2.12" fill="#EBEBEE"/><path d="M759 451c2 4 2 4 2 6l2.57-1.02c3.76-1.07 6.43-1 10.31-.6l3.49.33 2.63.29v1l-2.27.11A74 74 0 0 0 758 461z" fill="#D8DBDA"/><path d="M488 409h1l.08 1.84c.93 22.33.93 22.33 1.92 31.16l-1-3h-2c-1.12-3.36-1.03-5.67-.88-9.2l.15-3.66.17-3.83.16-3.86z" fill="#C7CACA"/><path d="M440 516h1l2 21h-2c-2.75-5.68-3.81-11.94-2.06-18.06z" fill="#E1E4E1"/><path d="M759 379h1c1.39 6.07 2.54 11.76 2 18-1.52 2.23-1.52 2.23-3 4a766 766 0 0 1-1.12-8.19l-.34-2.33c-.57-4.41-.74-7.42 1.46-11.48" fill="#2B2D2B"/><path d="M618 689h2c-.48 5.77-2.18 9.96-5 15l-4-1z" fill="#E7EAEB"/><path d="M470 454q3.84-.12 7.69-.19l2.18-.07c4.58-.07 7.49.41 11.13 3.26v1q-10.5-.94-21-2z" fill="#E9EAED"/><path d="m860.19 432.38 1.8.62-1.78 1.4-10.02 7.79a79 79 0 0 0-6.2 5.8c.5-4.24 2.9-6.23 5.89-9.12l2.68-2.62c4.75-4.37 4.75-4.37 7.63-3.87" fill="#D4D6D8"/><path d="M755 358h2c3.18 5.25 3.66 10.01 4 16l-2 1-2-6.25-1.12-3.52C755 362 755 362 755 358" fill="#EFF3EF"/><path d="M506 327h2a44 44 0 0 1-3.56 12.38l-1.38 3.21L502 345h-1c-.34-5.51.58-9.06 3-14l1.19-2.44z" fill="#EBEEEF"/><path d="M442 479h2c-.72 6.39-1.8 12.68-3 19-2-1-2-1-2.75-2.61-.37-3.51.66-6.28 1.69-9.64l1.15-3.83z" fill="#EAEDEC"/><path d="m754 219 2 2c-.32 4-1.79 6.57-4.06 9.81l-1.66 2.4L749 235l-3-1 2.31-3c2.74-3.81 4.21-7.56 5.69-12" fill="#DADDDE"/><path d="m441 537 3 1a37 37 0 0 1 2 14c-2.7-2.31-3.51-4.04-4.19-7.5l-.48-2.34C441 540 441 540 441 537" fill="#E6E7E7"/><path d="M635 690c2.15 3.22 3.5 6.44 5 10q.97 2.01 2 4c-2.65-.37-3.78-.76-5.62-2.75A27 27 0 0 1 633 694c.88-2.31.88-2.31 2-4" fill="#DDDFE3"/><path d="M768 457h16l-1 3q-3.18.12-6.38.19l-3.58.1L770 460z" fill="#1D201E"/><path d="m843 446 1 3c-1.36 2.41-1.36 2.41-3.31 5.06l-1.93 2.66C837 459 837 459 835 461l-2-2 1.81-2.19c2.19-2.81 2.19-2.81 3.75-5.43A22 22 0 0 1 843 446" fill="#E3E5E9"/><path d="M751 343c2.41 2.41 3.01 4.42 4.12 7.62l1.08 3.04.8 2.34-3 3q-1.05-2.87-2.06-5.75l-1.16-3.23c-.76-2.94-.85-4.24.22-7.02" fill="#DBDFDB"/><path d="M923 416c6.17-.4 11.18 1.03 17 3l-1 2-7.44-1.38-2.14-.38A101 101 0 0 1 924 418z" fill="#E8E8EA"/><path d="M683 48c-1.26 3.78-2.94 4.77-6.06 7.19l-2.79 2.17L672 59l-2-1c1.47-3.88 3.43-5.04 7-7l2.19-1.69C681 48 681 48 683 48" fill="#D4D4D6"/><path d="M540 693h2l1 11-4-2c-.1-6.15-.1-6.15 0-8z" fill="#F0F0F2"/><path d="M746 636c3.28.11 4.3 1.28 6.75 3.56L755 642l-2 2-9-6z" fill="#E3E3E5"/><path d="M490 416h2q.12 2.9.19 5.81l.1 3.27c-.29 2.92-.29 2.92-1.8 4.81L489 431l-.06-5.81-.04-3.27c.1-2.92.1-2.92 1.1-5.92" fill="#1F2123"/><path d="M491 374c2.56 3.84 1.92 5.23 1.12 9.69l-.61 3.57L491 390c-2-2-2-2-2.01-4.24l.32-2.64.3-2.61c.35-2.22.8-4.34 1.39-6.51" fill="#DCDDDF"/><path d="M520 245c4.75 1.88 4.75 1.88 7 3l1 3a36 36 0 0 0 4 3l-1 2-4.94-3.81-2.77-2.15C521 248 521 248 520 245" fill="#1B1D1D"/><path d="M961 485c4.7 3.31 7.72 7.36 11 12-3 0-3 0-5.04-1.86l-2.15-2.45-2.17-2.43C961 488 961 488 961 485" fill="#DDDEDD"/><path d="M512 471c2.3 3.44 2.54 5.94 3 10h-2v12h-1z" fill="#060807"/><path d="M534 260h1l1 5h1c.37 6.4.37 6.4-1.5 9.44L534 276a29 29 0 0 1-.56-10.81l.31-2.96z" fill="#2B2D2E"/><path d="M710 691h2v13l-4-1z" fill="#EBEDEC"/><path d="m761 652 3 2c.51 2.6.51 2.6.69 5.62l.2 3.04.11 2.34h-3z" fill="#F5F7F5"/><path d="M848 543c0 3.41-.67 4.39-2.5 7.19l-1.41 2.17L843 554l-2-1c2.88-6.75 2.88-6.75 4-9z" fill="#EBEBEF"/><path d="M739 317c1.93.35 1.93.35 4 1a24 24 0 0 1 2 5l1 2a76 76 0 0 1-1 5 39 39 0 0 1-4.12-8.19l-1.08-2.73z" fill="#E2E3E3"/><path d="m741.75 9.88 2.98.04c.38.03.38.03 2.27.07v1l-2.52.63-3.29.82-3.27.8q-2.99.78-5.92 1.76v-3c3.35-2.03 5.87-2.21 9.75-2.12" fill="#272727"/><path d="M762 430h1c1.34 4.84 2.25 8.93 2 14h-3z" fill="#E8EBE8"/><path d="m940 419 10 3v3l-11-3z" fill="#D4D5D8"/><path d="M820 487h1c-.48 4.71-.97 8.67-3 13l-2-1q.43-2.16.88-4.31l.49-2.43C818 490 818 490 820 487" fill="#E9EBEE"/><path d="M488 439h2c2.43 7.43 2.43 7.43 1 11h-2l-1.06-4.94-.6-2.77L487 440z" fill="#E0E2E4"/><path d="m511 316 3 1-5 11-2-1 1.44-4.38.81-2.46C510 318 510 318 511 316" fill="#DEE1E2"/><path d="m986 509 14 2c-2 2-2 2-4.31 2.01l-2.69-.32-2.69-.3C988 512 988 512 986 511z" fill="#EEEEF0"/><path d="M550 678h1c.25 2.25.25 2.25 0 5-1.94 2.19-1.94 2.19-4 4l-1 2h-2a24.6 24.6 0 0 1 6-11" fill="#25242D"/><path d="m794 590 1 2 2 1c-4.12 1.63-6.71 2.26-11 1a37 37 0 0 1 8-4" fill="#E1E2DE"/><path d="m1012 496 2 4c-3.47 5.83-3.47 5.83-6.14 6.69l-1.86.31 1.06-1.64 1.38-2.17 1.37-2.15C1011 499 1011 499 1012 496" fill="#D2D1D4"/><path d="m746 235 2 1c-6.12 7.81-6.12 7.81-11 10 1.41-3.22 3.1-5.32 5.62-7.75l1.92-1.86z" fill="#EEF0F0"/><path d="m743 234 3 2-7 6-2-2z" fill="#232526"/><path d="m491 666 1.43 1.24 1.88 1.64 1.87 1.61A39 39 0 0 0 501 674c-1.62.81-1.62.81-4 1-3.25-2.19-3.25-2.19-6-5z" fill="#DCDEE0"/><path d="M761 657h1v8h2c-1.05 2.62-1.65 3.79-4.12 5.25L758 671l.94-1.94c1.38-3.98 1.71-7.88 2.06-12.06" fill="#D5D8D5"/><path d="M759 451c2 4 2 4 2 6l4 2-7 2z" fill="#CACDCB"/><path d="M500 343c1.54 2.41 2.1 3.5 1.54 6.36l-.92 2.39-.89 2.42L499 356l-2-1 .94-5.44.52-3.06c.54-2.5.54-2.5 1.54-3.5" fill="#E2E4E5"/><path d="M761 27c2 1 2 1 2.75 3.06.34 4.02-.63 7.07-1.75 10.94h-1z" fill="#F3F3F3"/><path d="M708 686h3l1 3-1 2a104 104 0 0 0-.56 4.62l-.26 2.48-.18 1.9h-1z" fill="#C1C4C2"/><path d="M441 523h1l1 14h-2l-2-5 2-1z" fill="#CDD0CF"/><path d="M812 501c3 0 3 0 5 1l-4 8h-1z" fill="#CDD2CC"/><path d="M785 456c3.96.57 6.67 1.81 10 4l-2 2-9-4z" fill="#DADCDC"/><path d="M720 256c1.14 3.4.84 5.77.06 9.25l-.59 2.7L719 270h-1l-.12-5.88-.08-3.3c.2-2.82.2-2.82 2.2-4.82" fill="#DADCDB"/><path d="M507 10h10c-2.19 2.06-2.19 2.06-5 4-2.81-.25-2.81-.25-5-1z" fill="#1D1E1E"/><path d="m543 686 2 1-1 3q-.33 2.84-.56 5.69l-.26 3.01-.18 2.3h-1a382 382 0 0 1-.62-5.81l-.36-3.27C541 689 541 689 543 686" fill="#C5C5C8"/><path d="M472 602c2.89.4 3.82.79 5.75 3.06L479 607l-2 2a139 139 0 0 1-5-5z" fill="#ECECEF"/><path d="M454 572c2.8 2.07 3.03 3.14 3.69 6.69L458 582c-2.8-2.07-3.03-3.14-3.69-6.69z" fill="#EDEFED"/><path d="M865 499h1v9l-4 1z" fill="#D3D4D5"/><path d="m456 463 2 3-2.38 1.88C453 470 453 470 451 472l-1-3z" fill="#222423"/><path d="m473.13 455.44 3.88.3 3 .26v1l-15 1-1-2c3.05-1.52 5.75-.84 9.12-.56" fill="#BDBFC2"/><path d="M911 460h9v2l-7 1z" fill="#F4F4F9"/><path d="m466 459-1 3c-3.06 1.19-3.06 1.19-6 2l-2-2c3.44-2.29 4.72-3 9-3" fill="#212325"/><path d="M508 235c3.8 1.49 5.61 3.76 8 7-3 0-3 0-5.69-2.38C508 237 508 237 508 235" fill="#242626"/><path d="M689 42v3c-3 2.19-3 2.19-6 4 0-3 0-3 1.31-4.62C686 43 686 43 689 42" fill="#E4E4E9"/><path d="M552 35c4.83.41 6.83 2.46 10 6-3.37 0-4.07-.5-6.69-2.44l-1.88-1.37L552 36z" fill="#DADDD9"/><path d="m488 658 2 1c.41 2.29.41 2.29.62 5.06l.23 2.79.15 2.15c-2.17-2.17-2.49-3.16-3.19-6.06l-.54-2.16L487 659z" fill="#EDEFEF"/><path d="M482 458q2.19.17 4.38.38l2.46.21C491 459 491 459 493 461q-2.19.12-4.38.19l-2.46.1L484 461z" fill="#101012"/><path d="m848 443 3 2-5 5-3-1z" fill="#1C1F20"/><path d="M759 428c1.5 1 1.5 1 3 3 .27 2.72.13 5.26 0 8l-1-3h-2z" fill="#242822"/><path d="M761 381c2.9 2.4 3.5 4.31 4 8h-4z" fill="#EFF0EF"/><path d="m531 272 2 1c-.55 3.37-1.05 5.08-3 8-1.03-2.79-1.05-3.87-.06-6.75z" fill="#DBDEDD"/><path d="M612 696h3l-2 6h-3z" fill="#242824"/><path d="M491 655c2.76 5.52 2.76 5.52 3 8l-3 3z" fill="#2C2E2F"/><path d="m755 620 3 1-3 4-4-1z" fill="#1E2320"/><path d="M783 594h4v2c-3.46 3-3.46 3-6 3 .88-3.88.88-3.88 2-5" fill="#ECECEC"/><path d="M440 490h2l-1 8c-2-1-2-1-2.75-2.88C438 493 438 493 440 490" fill="#E3E5E4"/><path d="M876 479h1v6l-5 1z" fill="#E1E1E4"/><path d="M446 472h2c-1.75 5.75-1.75 5.75-4 8-1-3-1-3 .31-5.69z" fill="#DEDEE0"/><path d="m753 209 1 4h2l-1 6c-2-2-2-2-2.2-3.95z" fill="#1F2223"/><path d="m492 19 2 2c-.38 3.62-.38 3.62-1 7h-2c-.12-6.75-.12-6.75 1-9" fill="#EBEBED"/><path d="m780 597 2 3-5 6-1-3c1.94-3.19 1.94-3.19 4-6" fill="#E1E3E1"/><path d="M824 483h1c-.75 7.75-.75 7.75-3 10-1.39-4.18.18-6.13 2-10" fill="#1B1C1D"/><path d="m823 482 2 1-3 7-2-4z" fill="#DEE0E1"/><path d="M923 416h7l1 3q-3.51-.39-7-1z" fill="#E2E4E0"/><path d="m736 244 2 3a29 29 0 0 1-8 3z" fill="#DFE2E3"/><path d="m503 230 5 5-1 3-5-6z" fill="#D6D9DA"/><path d="m756 213 3 3-2 5h-2z" fill="#E5E7E9"/><path d="M675 53v3c-2 1.69-2 1.69-4 3v-4z" fill="#DFDFE2"/><path d="M697 37c-1.33 4-3.5 4.84-7 7 .39-2.8.8-3.82 2.94-5.75C695 37 695 37 697 37" fill="#D7D8DD"/></svg>