<svg style="background:transparent" version="1.1" xmlns="http://www.w3.org/2000/svg" viewBox="0 0 1248 704"><path d="m383 96 3.19 1.38c3.07 1.77 3.34 2.58 4.81 5.62l5 2q2.53 2.47 5 5a79 79 0 0 0 5 3l-1 3 1.5 1.47c3.48 3.43 6.87 6.89 10.06 10.59L420 132l1.82 2.09A35 35 0 0 0 427 139c2.94-.06 2.94-.06 5-1 2 3 2 3 2 5h3l6 4h3c6.29.8 6.29.8 9 1.56 3.95.87 7.84.73 11.75-.25L469 148c1.5 1.31 1.5 1.31 3 3 5.69 2.85 12.79 4.95 19 3l2.31-.56L495 153v-3c1.31-1.69 1.31-1.69 3-3h3c2.34-1.83 2.34-1.83 4.94-4.25l2.59-2.39q2.38-2.28 4.66-4.66C515 134 515 134 517 134l.65-1.77c1.8-2.98 3.94-4.13 6.91-5.92 5.41-3.28 5.41-3.28 6.44-4.31 3.52-.37 5.42-.37 8.45 1.54 5.17 4.82 9.42 9.21 10.55 16.46v6l.49 2.92c.82 5.49.65 11.04.63 16.58l.02 3.34c-.01 5.5-.27 10.72-1.14 16.16q-.06 2.94 0 5.88.07 2.55 0 5.12l-1 1c-.07 2.75 0 5.49.06 8.24A25 25 0 0 1 548 212q-.29 2.25-.5 4.5a42 42 0 0 1-1 6.47 45 45 0 0 0-1 7.03 54 54 0 0 1-1.5 9l7 6 2-4c1.71 1.63 2.93 2.87 4 5 4 0 4 0 6.25-2l1.75-2 1.21 1.39c4.41 3.96 11.05 4.8 16.79 4.67l2.19-.15C587 248 587 248 589 250c2.26.1 4.45-.07 6.71-.22 2.29.22 2.29.22 4.19 1.68 2.81 2.06 4.89 2.01 8.35 2.16 3.8.21 7.55.42 11.31.94 6.63.85 6.63.85 9.44-.56 2.82.8 5.36 1.62 7.88 3.12 3.33 1.38 6.53.94 10.12.88l3 1 3-1c4.37 0 6.19 1.05 10 3h3l3 1c3.55.81 5.95 1.01 9.56.38 3.44-.38 3.44-.38 5.62.96 3.68 2.17 7.3 2.94 11.44 3.85l2.32.53c3.07.7 5.9 1.28 9.06 1.28q2.24.66 4.44 1.44A88 88 0 0 0 720 273a129 129 0 0 1 18.73 6.1c2.27.9 2.27.9 5.83 1.9 4.36 1.27 8.32 3.1 12.44 5l2.74 1.2a94 94 0 0 1 14.16 7.48c2.51 1.58 5.1 2.94 7.72 4.32 4.3 2.3 7.73 4.8 11.38 8a88 88 0 0 0 4 2q2.05 1.43 4 3l3.06 2.44c3.99 3.42 7.47 7.31 10.94 11.25a55 55 0 0 0 6.8 6.54c2.5 2.01 2.51 2.79 3.2 5.77q1.99 1.02 4 2 1.02 1.99 2 4c3.6 4.5 7.26 6.1 12.51 8.04 10.65 4.12 19.53 11.45 26.83 20.06 1.66 1.9 1.66 1.9 4.22 4.34 6.2 6.51 10.29 14.65 14.44 22.56l1.42 2.61a48 48 0 0 1 5.18 14.31c.4 2.08.4 2.08 1.46 5.58 2.26 8.44 2.24 17.32 2.56 26a370 370 0 0 1 .29 7.03l.13 3.11C900 460 900 460 899 461q-.49 3.74-.88 7.5c-.62 5.5-1.49 10.5-3.47 15.7-.65 1.8-.65 1.8-1.09 4.74a36 36 0 0 1-2.56 8c-1.69 4.06-2.42 7.69-3 12.06q-1.06 2.49-2.17 4.96c-4.18 10.28-6.01 23.09-3.03 33.95.93 2.15 1.96 4.1 3.2 6.09l1.5 2.94c1.71 2.34 2.91 2.85 5.5 4.06l1.86 1.04A30.4 30.4 0 0 0 909 566l3.02.19c9.83.35 18.59-1.59 27.98-4.19l3.81-1.05c2.8-.83 5.39-1.85 8.05-3.04 3.91-1.67 7.89-3.13 11.86-4.64q4.33-1.7 8.59-3.52A35 35 0 0 1 985 547l3.04-.14c8.17.04 12.25 2.09 18.03 7.82 3.58 4.31 4.4 7.5 4.23 13.03-.49 3.75-2.01 6.39-4.3 9.29l-1.64 2.08c-6.52 7.32-14.85 11.43-23.43 15.89a89 89 0 0 0-4.64 2.69 41 41 0 0 1-7.67 3.34c-3.13 1.1-6.14 2.23-9.18 3.56a100 100 0 0 1-10.91 3.69c-2.32.69-4.57 1.48-6.84 2.31-17.37 5.76-41.54 7.27-58.69.44l-2.43-.91c-10.4-4-18.45-8.41-26.57-16.09l-4.31-3.69c-7.34-6.44-7.34-6.44-8.13-10.62-.59-2.83-1.48-4.3-3.06-6.69-2-3.06-3.02-5.34-3.5-9l-1-2.62c-4.3-14.52-3.05-32.25 2-46.38l.5-3c.87-5.2 2.83-9.88 4.94-14.69 2.39-5.67 4.1-11.34 5.56-17.31l.59-2.29C850 468.32 850 468.32 850 464l2-3-1-2c.71-6.71.71-6.71 2-8 .13-2.94.08-5.61-.5-8.5s-.5-5.57-.5-8.5a85 85 0 0 0-1-5l-3 1h-3l.69 2.81.31 3.19q-1.47 1.53-3 3a34 34 0 0 0-.81 9.56c-.27 3.53-2.22 5.54-4.19 8.44-1.19 3.51-2 6.3-2 10q-.98 2-2 4-1.02 3-2 6l-1 2.44c-1 2.56-1 2.56-1.94 6.06-1.06 3.5-1.06 3.5-2.56 5.94-1.6 2.73-2.27 5.31-2.97 8.38A55 55 0 0 1 817 516a276 276 0 0 0-1 5l-3 7-.45 2.41c-.59 2.78-1.59 5.02-2.8 7.59-1.92 4.58-1.92 4.58-.5 8.12L811 548l-3 2-2-1 .06 2.38C806 554 806 554 805 556c-.07 2.28 0 4.53.06 6.81C805 565 805 565 804 568c.94 2.19.94 2.19 2 4l-2 2.56c-2.3 3.96-2.16 5.95-2 10.44l-.94 2.75c-1 3.08-1.29 5.48-1.5 8.69-.36 4.76-1.57 8.19-3.56 12.56q-.55 2.43-1 4.88c-1.42 7.68-4.18 14.74-7.13 21.96A93 93 0 0 0 786 641l3.06-.12c3.3.1 5.64.58 8.74 1.51 2.66.74 5.34 1.32 8.04 1.91 34.79 7.55 34.79 7.55 41.16 16.7-.31 3.41-1.69 5.18-4.12 7.5-9.31 7.57-23.9 8.32-35.38 9.62l-3.78.48c-24.83 3-49.81 3.7-74.8 3.74l-11.22.05q-14.23.07-28.45.11c-61.67.2-123.11 1.81-184.7 5.23-22.71 1.26-45.41 2.42-68.15 2.92l-2.66.06q-14.77.32-29.53.33h-2.75c-7.32 0-14.59-.26-21.9-.79l-3.67-.26C335.25 686.8 335.25 686.8 323 677c.14-4.74 2.54-7.08 5.62-10.35 2.88-2 5.66-2.88 8.98-3.9 2.23-.7 4.39-1.47 6.57-2.29 23.33-8.51 48.22-12.68 72.64-16.77l2.11-.36c20.81-3.47 41.77-5.7 62.77-7.64l10.41-.97c10.18-.95 20.35-1.9 30.55-2.49C525 632 525 632 527 631q3.12-.07 6.23 0c8 .07 15.98-.16 23.97-.44l3.92-.13 14.16-.5c16.25-.59 32.46-1.14 48.72-.93l3.08.04q10.51.14 21.04.33l10.84.19a1498 1498 0 0 1 37.07 1.03c5.33.23 10.59.65 15.89 1.32 3.03.13 4.66-.82 7.02-2.66l2.15-1.61c1.91-1.64 1.91-1.64 3.48-3.28C726 623 726 623 729 622c1.06-2.75 1.06-2.75 2-6l1.12-2.25c2.03-6.37 1.44-12.95-1.21-19.05A15 15 0 0 0 726 589q-2.5-.06-5 0c-2-3-2-3-3-5q-2.24-1.44-4.56-2.75c-6.81-3.99-12.8-8.63-18.73-13.82-1.67-1.4-3.4-2.6-5.21-3.81-3.47-2.41-5.97-5.33-8.66-8.57a69 69 0 0 0-8.14-7.41c-1.83-1.76-2.64-3.36-3.7-5.64l-1.81-1.69c-2.61-2.75-4.14-5.64-5.91-8.97a84 84 0 0 0-3.66-6.03c-6.3-9.96-12.53-21.65-14.62-33.31l-2.4.04c-9.49.07-18.94-.25-28.41-.68q-9.23-.43-18.47-.33a103 103 0 0 1-10.53-.81C581 490 581 490 577.56 490c-2.56 0-2.56 0-5.56-1h-2.38c-3.72 0-7.09-.86-10.68-1.81-2.94-.19-2.94-.19-5.13 1.43-1.81 2.38-1.81 2.38-3.31 5-1.5 2.38-1.5 2.38-3.41 3.31-3 1.54-4.51 3.87-6.53 6.51-1.56 1.56-1.56 1.56-3.47 2.03-2.92.74-4.4 2.36-6.59 4.41a74 74 0 0 1-6.73 5.74c-2.13 1.66-2.41 2.76-2.77 5.38h-3c-1.9 1.21-1.9 1.21-3.94 2.81l-2.02 1.58L510 527l-2.12 1.56C506 530 506 530 503.94 532.19c-2.52 2.6-5.35 4.55-8.32 6.62a54 54 0 0 0-10.87 10.17c-3.83 4.42-8.28 8.57-13.33 11.54a19 19 0 0 0-5.48 4.92l-1.53 1.85L463 569c-3.43 3.73-3.43 3.73-6 4.94-2.76 1.47-4.13 3.58-6 6.06l-3 3-2 2.5a54 54 0 0 1-5 5.5l-1.38 1.38q-1.95 1.95-3.93 3.87a118 118 0 0 0-5.75 6.31A74 74 0 0 1 423 610h-2l-.77 1.79c-1.38 2.47-2.79 3.75-4.98 5.52a55 55 0 0 0-7.44 7.44c-3.88 4.66-8.29 6.56-13.9 8.56q-2.27.84-4.47 1.81c-10.38 3.73-20.64 2.38-30.44-2.12-2.82-1.51-2.82-1.51-5-3v-2l-1.75-.19c-3.24-1.17-4.3-3-6.25-5.81l-2.19-3c-3.11-5.67-3.86-13.19-2.15-19.41A35 35 0 0 1 345 594l1.24-1.75c2.29-2.96 4.35-4.77 7.76-6.25q1.53-1.47 3-3l-1.84 1.02c-8.37 4.46-16.1 7.25-25.57 4.94-8.14-3.01-15.38-8.04-19.55-15.73a28 28 0 0 1-1.28-19.72A64 64 0 0 1 312 547l1.75-3.19c5.71-7.14 12.69-10.11 21.25-12.81 3.5-1.17 3.8-1.84 5.69-4.88a191 191 0 0 1 7.37-10.68c3.76-5.13 7.13-10.4 10.38-15.86a241 241 0 0 1 4.75-7.46c3.65-5.7 6.82-11.61 9.96-17.6q2.23-4.26 4.6-8.46c2.22-3.96 4.25-7.99 6.25-12.06l3-6 .94-1.94c2.05-3.99 4.32-7.87 6.68-11.68A51 51 0 0 0 398 427q1.47-3.01 3-6 3.13-6.19 6-12.5c1.5-3.27 3-6.5 4.66-9.7 1.73-3.61 1.82-5.82 1.34-9.8a65 65 0 0 0-2.92-5.83c-1.93-3.87-2.94-8.02-4.08-12.17l-1.06-3.56A106 106 0 0 1 401 337l-1.69-.48c-4.92-1.51-9-3.36-13.28-6.21a82 82 0 0 0-6.47-3.69c-12-6.63-21.44-16.45-29.56-27.37l-1.42-1.9A34 34 0 0 1 343 286a91 91 0 0 0-3.5-6.62c-4.91-11.06-4.18-22.97-2.01-34.61q.66-3.64 1.07-7.33C339 234 339 234 340 231q.52-3.5 1-7c.64-3.46 1.47-6.81 2.44-10.19 1-3.61 1.85-7.18 2.5-10.87.84-4.51 2.4-8.48 4.18-12.69A31 31 0 0 0 352 182q.95-6.66 2-13.31 1.11-7.16 1.79-14.37.31-3.37.71-6.76.55-4.9.94-9.81c.46-5.32 1.3-10.55 2.17-15.82.39-2.93.39-2.93.27-6.62.26-7.09 3.59-13.86 8.41-19.03 4.54-3.41 9.86-2.83 14.71-.28m463 324c-.93 3.01-1.04 3.87 0 7l2-1c.62-2.56.62-2.56 1-5zm-387 44c-1.86 1.93-1.86 1.93-3.75 4.31l-1.92 2.37C452 473 452 473 452.3 475.29l.7 1.71-2.25 1.21c-2.86 1.86-4.64 3.73-6.81 6.35-3.51 4.23-3.51 4.23-6.06 5.47-2.44 1.26-2.77 2.51-3.88 4.97a80 80 0 0 1-3.38 4l-1.87 2.1A139 139 0 0 1 423 507l-2 2-1.75 1.62a74 74 0 0 0-6.69 8.48A27 27 0 0 1 407 524c-1.81 1.94-1.81 1.94-3 4a12 12 0 0 0 1 4h-3c-4.89 2.82-8.28 5.52-10 11l-3 1a90 90 0 0 0-2 5l-2 2-.81 1.75a28.5 28.5 0 0 1-8.31 9.81c-1.88 1.44-1.88 1.44-3.17 3.7-1.97 3.15-4.24 5.46-6.9 8.05l-2.73 2.68L361 579l2 2 2.94-.88c2.9-.84 5.79-1.47 8.75-2.06 3.42-.75 5.82-1.47 8.31-4.06a88 88 0 0 0 2-4l3-3q1.56-1.94 3.06-3.94l1.54-2.02A47 47 0 0 0 396 555q1.47-1.53 3-3l1.88-2.38c2.12-2.62 2.12-2.62 4.37-4.74 4.08-4.27 7.33-9.08 10.75-13.88l3-4 1.46-1.96c3.34-4.47 6.67-8.92 10.35-13.1 1.19-1.94 1.19-1.94.88-4.19L431 506h3c2.72-2.32 4.66-4.15 6-7.5 1.33-3.31 3.43-5.05 6-7.5 2.57-2.93 4.42-5.09 5-9h2c1.47-2.08 1.47-2.08 3.06-4.81l1.6-2.71C459 472 459 472 460 469h2l1-6c-1 0-1 0-4 1" fill="#121513"/><path d="m383 96 3.19 1.38c3.07 1.77 3.34 2.58 4.81 5.62l5 2q2.53 2.47 5 5a79 79 0 0 0 5 3l-1 3 1.5 1.47c3.48 3.43 6.87 6.89 10.06 10.59L420 132l1.82 2.09A35 35 0 0 0 427 139c2.94-.06 2.94-.06 5-1 2 3 2 3 2 5h3l6 4h3c6.29.8 6.29.8 9 1.56 3.95.87 7.84.73 11.75-.25L469 148c1.5 1.31 1.5 1.31 3 3 5.69 2.85 12.79 4.95 19 3l2.31-.56L495 153v-3c1.31-1.69 1.31-1.69 3-3h3c2.34-1.83 2.34-1.83 4.94-4.25l2.59-2.39q2.38-2.28 4.66-4.66C515 134 515 134 517 134l.65-1.77c1.8-2.98 3.94-4.13 6.91-5.92 5.41-3.28 5.41-3.28 6.44-4.31 3.52-.37 5.42-.37 8.45 1.54 5.17 4.82 9.42 9.21 10.55 16.46v6l.49 2.92c.82 5.49.65 11.04.63 16.58l.02 3.34c-.01 5.5-.27 10.72-1.14 16.16q-.06 2.94 0 5.88.07 2.55 0 5.12l-1 1c-.07 2.75 0 5.49.06 8.24A25 25 0 0 1 548 212q-.29 2.25-.5 4.5a42 42 0 0 1-1 6.47 45 45 0 0 0-1 7.03 54 54 0 0 1-1.5 9l7 6 2-4c1.71 1.63 2.93 2.87 4 5 4 0 4 0 6.25-2l1.75-2 1.21 1.39c4.41 3.96 11.05 4.8 16.79 4.67l2.19-.15C587 248 587 248 589 250c2.26.1 4.45-.07 6.71-.22 2.29.22 2.29.22 4.19 1.68 2.81 2.06 4.89 2.01 8.35 2.16 3.8.21 7.55.42 11.31.94 6.63.85 6.63.85 9.44-.56 2.82.8 5.36 1.62 7.88 3.12 3.33 1.38 6.53.94 10.12.88l3 1 3-1c4.37 0 6.19 1.05 10 3h3l3 1c3.55.81 5.95 1.01 9.56.38 3.44-.38 3.44-.38 5.62.96 3.68 2.17 7.3 2.94 11.44 3.85l2.32.53c3.07.7 5.9 1.28 9.06 1.28q2.24.66 4.44 1.44A88 88 0 0 0 720 273a129 129 0 0 1 18.73 6.1c2.27.9 2.27.9 5.83 1.9 4.36 1.27 8.32 3.1 12.44 5l2.74 1.2a94 94 0 0 1 14.16 7.48c2.51 1.58 5.1 2.94 7.72 4.32 4.3 2.3 7.73 4.8 11.38 8a88 88 0 0 0 4 2q2.05 1.43 4 3l3.06 2.44c3.99 3.42 7.47 7.31 10.94 11.25a55 55 0 0 0 6.8 6.54c2.5 2.01 2.51 2.79 3.2 5.77q1.99 1.02 4 2 1.02 1.99 2 4c3.6 4.5 7.26 6.1 12.51 8.04 10.65 4.12 19.53 11.45 26.83 20.06 1.66 1.9 1.66 1.9 4.22 4.34 6.2 6.51 10.29 14.65 14.44 22.56l1.42 2.61a48 48 0 0 1 5.18 14.31c.4 2.08.4 2.08 1.46 5.58 2.26 8.44 2.24 17.32 2.56 26a370 370 0 0 1 .29 7.03l.13 3.11C900 460 900 460 899 461q-.49 3.74-.88 7.5c-.62 5.5-1.49 10.5-3.47 15.7-.65 1.8-.65 1.8-1.09 4.74a36 36 0 0 1-2.56 8c-1.69 4.06-2.42 7.69-3 12.06q-1.06 2.49-2.17 4.96c-4.18 10.28-6.01 23.09-3.03 33.95.93 2.15 1.96 4.1 3.2 6.09l1.5 2.94c1.71 2.34 2.91 2.85 5.5 4.06l1.86 1.04A30.4 30.4 0 0 0 909 566l3.02.19c9.83.35 18.59-1.59 27.98-4.19l3.81-1.05c2.8-.83 5.39-1.85 8.05-3.04 3.91-1.67 7.89-3.13 11.86-4.64q4.33-1.7 8.59-3.52A35 35 0 0 1 985 547l3.04-.14c8.17.04 12.25 2.09 18.03 7.82 3.58 4.31 4.4 7.5 4.23 13.03-.49 3.75-2.01 6.39-4.3 9.29l-1.64 2.08c-6.52 7.32-14.85 11.43-23.43 15.89a89 89 0 0 0-4.64 2.69 41 41 0 0 1-7.67 3.34c-3.13 1.1-6.14 2.23-9.18 3.56a100 100 0 0 1-10.91 3.69c-2.32.69-4.57 1.48-6.84 2.31-17.37 5.76-41.54 7.27-58.69.44l-2.43-.91c-10.4-4-18.45-8.41-26.57-16.09l-4.31-3.69c-7.34-6.44-7.34-6.44-8.13-10.62-.59-2.83-1.48-4.3-3.06-6.69-2-3.06-3.02-5.34-3.5-9l-1-2.62c-4.3-14.52-3.05-32.25 2-46.38l.5-3c.87-5.2 2.83-9.88 4.94-14.69 2.39-5.67 4.1-11.34 5.56-17.31l.59-2.29C850 468.32 850 468.32 850 464l2-3-1-2c.71-6.71.71-6.71 2-8 .13-2.94.08-5.61-.5-8.5s-.5-5.57-.5-8.5a85 85 0 0 0-1-5l-3 1h-3l.69 2.81.31 3.19q-1.47 1.53-3 3a34 34 0 0 0-.81 9.56c-.27 3.53-2.22 5.54-4.19 8.44-1.19 3.51-2 6.3-2 10q-.98 2-2 4-1.02 3-2 6l-1 2.44c-1 2.56-1 2.56-1.94 6.06-1.06 3.5-1.06 3.5-2.56 5.94-1.6 2.73-2.27 5.31-2.97 8.38A55 55 0 0 1 817 516a276 276 0 0 0-1 5l-3 7-.45 2.41c-.59 2.78-1.59 5.02-2.8 7.59-1.92 4.58-1.92 4.58-.5 8.12L811 548l-3 2-2-1 .06 2.38C806 554 806 554 805 556c-.07 2.28 0 4.53.06 6.81C805 565 805 565 804 568c.94 2.19.94 2.19 2 4l-2 2.56c-2.3 3.96-2.16 5.95-2 10.44l-.94 2.75c-1 3.08-1.29 5.48-1.5 8.69-.36 4.76-1.57 8.19-3.56 12.56q-.55 2.43-1 4.88c-1.42 7.68-4.18 14.74-7.13 21.96A93 93 0 0 0 786 641l3.06-.12c3.3.1 5.64.58 8.74 1.51 2.66.74 5.34 1.32 8.04 1.91 34.79 7.55 34.79 7.55 41.16 16.7-.31 3.41-1.69 5.18-4.12 7.5-9.31 7.57-23.9 8.32-35.38 9.62l-3.78.48c-24.83 3-49.81 3.7-74.8 3.74l-11.22.05q-14.23.07-28.45.11c-61.67.2-123.11 1.81-184.7 5.23-22.71 1.26-45.41 2.42-68.15 2.92l-2.66.06q-14.77.32-29.53.33h-2.75c-7.32 0-14.59-.26-21.9-.79l-3.67-.26C335.25 686.8 335.25 686.8 323 677c.14-4.74 2.54-7.08 5.62-10.35 2.88-2 5.66-2.88 8.98-3.9 2.23-.7 4.39-1.47 6.57-2.29 23.33-8.51 48.22-12.68 72.64-16.77l2.11-.36c20.81-3.47 41.77-5.7 62.77-7.64l10.41-.97c10.18-.95 20.35-1.9 30.55-2.49C525 632 525 632 527 631q3.12-.07 6.23 0c8 .07 15.98-.16 23.97-.44l3.92-.13 14.16-.5c16.25-.59 32.46-1.14 48.72-.93l3.08.04q10.51.14 21.04.33l10.84.19a1498 1498 0 0 1 37.07 1.03c5.33.23 10.59.65 15.89 1.32 3.03.13 4.66-.82 7.02-2.66l2.15-1.61c1.91-1.64 1.91-1.64 3.48-3.28C726 623 726 623 729 622c1.06-2.75 1.06-2.75 2-6l1.12-2.25c2.03-6.37 1.44-12.95-1.21-19.05A15 15 0 0 0 726 589q-2.5-.06-5 0c-2-3-2-3-3-5q-2.24-1.44-4.56-2.75c-6.81-3.99-12.8-8.63-18.73-13.82-1.67-1.4-3.4-2.6-5.21-3.81-3.47-2.41-5.97-5.33-8.66-8.57a69 69 0 0 0-8.14-7.41c-1.83-1.76-2.64-3.36-3.7-5.64l-1.81-1.69c-2.61-2.75-4.14-5.64-5.91-8.97a84 84 0 0 0-3.66-6.03c-6.3-9.96-12.53-21.65-14.62-33.31l-2.4.04c-9.49.07-18.94-.25-28.41-.68q-9.23-.43-18.47-.33a103 103 0 0 1-10.53-.81C581 490 581 490 577.56 490c-2.56 0-2.56 0-5.56-1h-2.38c-3.72 0-7.09-.86-10.68-1.81-2.94-.19-2.94-.19-5.13 1.43-1.81 2.38-1.81 2.38-3.31 5-1.5 2.38-1.5 2.38-3.41 3.31-3 1.54-4.51 3.87-6.53 6.51-1.56 1.56-1.56 1.56-3.47 2.03-2.92.74-4.4 2.36-6.59 4.41a74 74 0 0 1-6.73 5.74c-2.13 1.66-2.41 2.76-2.77 5.38h-3c-1.9 1.21-1.9 1.21-3.94 2.81l-2.02 1.58L510 527l-2.12 1.56C506 530 506 530 503.94 532.19c-2.52 2.6-5.35 4.55-8.32 6.62a54 54 0 0 0-10.87 10.17c-3.83 4.42-8.28 8.57-13.33 11.54a19 19 0 0 0-5.48 4.92l-1.53 1.85L463 569c-3.43 3.73-3.43 3.73-6 4.94-2.76 1.47-4.13 3.58-6 6.06l-3 3-2 2.5a54 54 0 0 1-5 5.5l-1.38 1.38q-1.95 1.95-3.93 3.87a118 118 0 0 0-5.75 6.31A74 74 0 0 1 423 610h-2l-.77 1.79c-1.38 2.47-2.79 3.75-4.98 5.52a55 55 0 0 0-7.44 7.44c-3.88 4.66-8.29 6.56-13.9 8.56q-2.27.84-4.47 1.81c-10.38 3.73-20.64 2.38-30.44-2.12-2.82-1.51-2.82-1.51-5-3v-2l-1.75-.19c-3.24-1.17-4.3-3-6.25-5.81l-2.19-3c-3.11-5.67-3.86-13.19-2.15-19.41A35 35 0 0 1 345 594l1.24-1.75c2.29-2.96 4.35-4.77 7.76-6.25q1.53-1.47 3-3l-1.84 1.02c-8.37 4.46-16.1 7.25-25.57 4.94-8.14-3.01-15.38-8.04-19.55-15.73a28 28 0 0 1-1.28-19.72A64 64 0 0 1 312 547l1.75-3.19c5.71-7.14 12.69-10.11 21.25-12.81 3.5-1.17 3.8-1.84 5.69-4.88a191 191 0 0 1 7.37-10.68c3.76-5.13 7.13-10.4 10.38-15.86a241 241 0 0 1 4.75-7.46c3.65-5.7 6.82-11.61 9.96-17.6q2.23-4.26 4.6-8.46c2.22-3.96 4.25-7.99 6.25-12.06l3-6 .94-1.94c2.05-3.99 4.32-7.87 6.68-11.68A51 51 0 0 0 398 427q1.47-3.01 3-6 3.13-6.19 6-12.5c1.5-3.27 3-6.5 4.66-9.7 1.73-3.61 1.82-5.82 1.34-9.8a65 65 0 0 0-2.92-5.83c-1.93-3.87-2.94-8.02-4.08-12.17l-1.06-3.56A106 106 0 0 1 401 337l-1.69-.48c-4.92-1.51-9-3.36-13.28-6.21a82 82 0 0 0-6.47-3.69c-12-6.63-21.44-16.45-29.56-27.37l-1.42-1.9A34 34 0 0 1 343 286a91 91 0 0 0-3.5-6.62c-4.91-11.06-4.18-22.97-2.01-34.61q.66-3.64 1.07-7.33C339 234 339 234 340 231q.52-3.5 1-7c.64-3.46 1.47-6.81 2.44-10.19 1-3.61 1.85-7.18 2.5-10.87.84-4.51 2.4-8.48 4.18-12.69A31 31 0 0 0 352 182q.95-6.66 2-13.31 1.11-7.16 1.79-14.37.31-3.37.71-6.76.55-4.9.94-9.81c.46-5.32 1.3-10.55 2.17-15.82.39-2.93.39-2.93.27-6.62.26-7.09 3.59-13.86 8.41-19.03 4.54-3.41 9.86-2.83 14.71-.28m156 141-.09 1.79c-.9 16.57-3.66 32.18-7.91 48.21l-.62 2.34c-1.51 5.57-2.82 10.09-6.38 14.66l-1.5 3.5a31 31 0 0 1-4.5 7.5v2h-2l-.31 1.94L515 321l-3 1a295 295 0 0 0-5 5l-3 2v2l-1.69.31c-2.31.69-2.31.69-4.55 2.1-3.05 1.75-5.88 2.69-9.26 3.65l-3.34.98c-11.07 2.74-22.07 3.33-33.41 3.27h-2.2c-10.8-.04-21.04-.64-31.55-3.31l-3.6-.87q-3.1-.75-6.18-1.58C406 335 406 335 404 335c.27 17.13 2.52 31.51 8.98 47.46 2.11 5.31 3.78 10.07 2.05 15.68l-1.54 3.19-.84 1.78q-1.37 2.86-2.77 5.7l-1.93 4.01q-2.47 5.13-4.98 10.22l-2.75 5.61a660 660 0 0 1-19.74 37.76q-2.13 3.74-4.24 7.51c-7.88 14.07-15.97 27.87-25.24 41.08l-1.42 2.04a1032 1032 0 0 1-5.28 7.55c-3.89 5.42-6.6 8.53-13.11 10.35-8.24 2.62-12.29 5.03-16.57 12.68-3.54 6.93-4.46 12.62-3.62 20.38 2.43 7.2 7.29 12.2 13.73 16.03a32 32 0 0 0 22.18 1.35c8.65-3.53 16.09-8.45 21.84-15.88l2.04-2.62L373 564l2.49-3.19c3.81-4.89 7.54-9.79 11.01-14.93 3.97-5.78 8.74-10.76 13.5-15.88l3.56-4.06c5.75-6.61 11.66-13.09 17.56-19.56q5.13-5.63 10.11-11.36 3.04-3.45 6.15-6.83c3.86-4.29 7.53-8.7 11.16-13.19 3.34-4.07 6.77-8.06 10.21-12.05A743 743 0 0 0 468 452l5 2c-1.82 4.05-4.36 7.61-6.88 11.25l-1.46 2.12a466 466 0 0 1-12.39 16.9 207 207 0 0 0-8.33 11.85c-3.2 4.89-6.68 9.48-10.31 14.03a875 875 0 0 0-12.69 16.41L416.8 532l-1.98 2.61Q408.93 542.32 403 550l-3.74 4.86-2.51 3.25a262 262 0 0 0-6.32 8.46c-5.11 7.06-9.16 12.29-18.09 13.91l-5.67.91c-4.22.97-7.27 3-10.67 5.61l-1.91 1.41c-5.26 4.18-8.72 8.88-10.09 15.59-.75 6.54.09 11.63 4 17 6.63 7.54 14.65 12.17 24.64 13.48 14.13.55 26.73-5.01 37.35-14.2 3.65-3.56 6.94-7.45 10.26-11.31 2.2-2.48 4.54-4.78 6.9-7.09 1.8-1.82 3.46-3.71 5.13-5.65 3.46-3.97 7.08-7.75 10.8-11.48l1.97-1.98 4.12-4.12 6.19-6.23c6.54-6.57 13.07-12.9 20.4-18.61A69 69 0 0 0 482 548c3.79-3.9 7.91-7.25 12.14-10.65 2.88-2.36 5.62-4.83 8.36-7.35a226 226 0 0 1 11-9.5c4.82-3.89 9.4-7.98 13.95-12.17q3.2-2.92 6.49-5.77 5.2-4.56 10.31-9.25l1.54-1.4a47 47 0 0 0 6.01-6.3c3.47-2.54 7.15-1.19 11.2-.61 18.46 2.61 36.42 3.38 55.06 3.19l7.9-.04q9.52-.06 19.04-.15l.59 2.46.8 3.25.78 3.21a74 74 0 0 0 4.52 11.96l1.06 2.31A152 152 0 0 0 675 546l2.54 3.01A124 124 0 0 0 696 566l1.72 1.31a295 295 0 0 0 20.78 14.5c8.83 5.62 14.86 9.57 17.5 20.19.88 6.51.39 13.27-3 19a52 52 0 0 1-18.77 13.73c-5.83 3.32-9.27 10.08-11.23 16.27-.72 5.7-.31 10.14 3 15 10.63 10.15 22.52 9.45 36.35 9.29 6.49-.22 11.8-1.36 17.65-4.29l3.31-1.62c7.67-6.78 12.02-16.46 16.46-25.51q1.48-3 2.98-5.99c7.78-15.66 7.78-15.66 9.25-23.07q1.1-5.3 2.38-10.56c2.94-12.85 5.53-25.59 6.5-38.75 2.17-26.78 14.45-53.01 24-77.94 3.73-9.77 7.29-19.48 10.12-29.56l.75-2.61 2.44-8.7.76-2.72a128 128 0 0 0 4.67-29.66l.12-2.74.26-6.57 3.81 8.31 1.08 2.32a69.4 69.4 0 0 1 6.55 30.93l-.03 3.46c-.3 14.98-4.09 27.65-9.33 41.57A290 290 0 0 0 837 521l-.81 3.05c-4.45 19.84-.53 39.65 9.81 56.95 8.17 12.37 20.25 20.77 34 26l2.22.89c29.4 10.88 63.11.74 90.4-11.45 29.53-13.58 29.53-13.58 35.38-27.44.94-3.29.75-4.44 0-8-2.76-4.73-6.16-8.05-11.31-10-14.48-3.69-28.27 2.5-41.5 8-17.13 7.01-38.61 13.97-57.07 7.93-7.63-3.49-13.48-8.96-17-16.62-5.54-16.33.21-32.85 5.32-48.56A297 297 0 0 0 895 469l.53-2.08c6.73-27-1.72-55.89-15.46-79.22-2.9-4.63-6.39-8.68-10.07-12.7l-2.52-2.8c-8.12-8.59-20.55-19.71-32.92-20.39L832 352l-.18-2.11c-1.09-3.84-3.34-6.29-5.94-9.2l-1.53-1.75-3.01-3.41q-1.63-1.86-3.2-3.77c-20.79-24.91-52-40.34-82.14-50.76l-2.18-.79c-37.06-13.34-77.52-17.44-116.36-22.45a1575 1575 0 0 1-43.62-6.24c-26.69-4.08-26.69-4.08-32.84-8.52-.82-3.16-.82-3.16-1-6zm307 183c-.93 3.01-1.04 3.87 0 7l2-1c.62-2.56.62-2.56 1-5zm-387 44c-1.86 1.93-1.86 1.93-3.75 4.31l-1.92 2.37C452 473 452 473 452.3 475.29l.7 1.71-2.25 1.21c-2.86 1.86-4.64 3.73-6.81 6.35-3.51 4.23-3.51 4.23-6.06 5.47-2.44 1.26-2.77 2.51-3.88 4.97a80 80 0 0 1-3.38 4l-1.87 2.1A139 139 0 0 1 423 507l-2 2-1.75 1.62a74 74 0 0 0-6.69 8.48A27 27 0 0 1 407 524c-1.81 1.94-1.81 1.94-3 4a12 12 0 0 0 1 4h-3c-4.89 2.82-8.28 5.52-10 11l-3 1a90 90 0 0 0-2 5l-2 2-.81 1.75a28.5 28.5 0 0 1-8.31 9.81c-1.88 1.44-1.88 1.44-3.17 3.7-1.97 3.15-4.24 5.46-6.9 8.05l-2.73 2.68L361 579l2 2 2.94-.88c2.9-.84 5.79-1.47 8.75-2.06 3.42-.75 5.82-1.47 8.31-4.06a88 88 0 0 0 2-4l3-3q1.56-1.94 3.06-3.94l1.54-2.02A47 47 0 0 0 396 555q1.47-1.53 3-3l1.88-2.38c2.12-2.62 2.12-2.62 4.37-4.74 4.08-4.27 7.33-9.08 10.75-13.88l3-4 1.46-1.96c3.34-4.47 6.67-8.92 10.35-13.1 1.19-1.94 1.19-1.94.88-4.19L431 506h3c2.72-2.32 4.66-4.15 6-7.5 1.33-3.31 3.43-5.05 6-7.5 2.57-2.93 4.42-5.09 5-9h2c1.47-2.08 1.47-2.08 3.06-4.81l1.6-2.71C459 472 459 472 460 469h2l1-6c-1 0-1 0-4 1" fill="#121412"/><path d="m383 96 3.19 1.38c3.07 1.77 3.34 2.58 4.81 5.62l5 2q2.53 2.47 5 5a79 79 0 0 0 5 3l-1 3 1.5 1.47c3.48 3.43 6.87 6.89 10.06 10.59L420 132l1.82 2.09A35 35 0 0 0 427 139c2.94-.06 2.94-.06 5-1 2 3 2 3 2 5h3l6 4h3c6.29.8 6.29.8 9 1.56 3.95.87 7.84.73 11.75-.25L469 148c1.5 1.31 1.5 1.31 3 3 5.69 2.85 12.79 4.95 19 3l2.31-.56L495 153v-3c1.31-1.69 1.31-1.69 3-3h3c2.34-1.83 2.34-1.83 4.94-4.25l2.59-2.39q2.38-2.28 4.66-4.66C515 134 515 134 517 134l.65-1.77c1.8-2.98 3.94-4.13 6.91-5.92 5.41-3.28 5.41-3.28 6.44-4.31 3.52-.37 5.42-.37 8.45 1.54 5.17 4.82 9.42 9.21 10.55 16.46v6l.49 2.92c.82 5.49.65 11.04.63 16.58l.02 3.34c-.01 5.5-.27 10.72-1.14 16.16q-.06 2.94 0 5.88.07 2.55 0 5.12l-1 1c-.07 2.75 0 5.49.06 8.24A25 25 0 0 1 548 212q-.29 2.25-.5 4.5a42 42 0 0 1-1 6.47 45 45 0 0 0-1 7.03 54 54 0 0 1-1.5 9l7 6 2-4c1.71 1.63 2.93 2.87 4 5 4 0 4 0 6.25-2l1.75-2 1.21 1.39c4.41 3.96 11.05 4.8 16.79 4.67l2.19-.15C587 248 587 248 589 250c2.26.1 4.45-.07 6.71-.22 2.29.22 2.29.22 4.19 1.68 2.81 2.06 4.89 2.01 8.35 2.16 3.8.21 7.55.42 11.31.94 6.63.85 6.63.85 9.44-.56 2.82.8 5.36 1.62 7.88 3.12 3.33 1.38 6.53.94 10.12.88l3 1 3-1c4.37 0 6.19 1.05 10 3h3l3 1c3.55.81 5.95 1.01 9.56.38 3.44-.38 3.44-.38 5.62.96 3.68 2.17 7.3 2.94 11.44 3.85l2.32.53c3.07.7 5.9 1.28 9.06 1.28q2.24.66 4.44 1.44A88 88 0 0 0 720 273a129 129 0 0 1 18.73 6.1c2.27.9 2.27.9 5.83 1.9 4.36 1.27 8.32 3.1 12.44 5l2.74 1.2a94 94 0 0 1 14.16 7.48c2.51 1.58 5.1 2.94 7.72 4.32 4.3 2.3 7.73 4.8 11.38 8a88 88 0 0 0 4 2q2.05 1.43 4 3l3.06 2.44c3.99 3.42 7.47 7.31 10.94 11.25a55 55 0 0 0 6.8 6.54c2.5 2.01 2.51 2.79 3.2 5.77q1.99 1.02 4 2 1.02 1.99 2 4c3.6 4.5 7.26 6.1 12.51 8.04 10.65 4.12 19.53 11.45 26.83 20.06 1.66 1.9 1.66 1.9 4.22 4.34 6.2 6.51 10.29 14.65 14.44 22.56l1.42 2.61a48 48 0 0 1 5.18 14.31c.4 2.08.4 2.08 1.46 5.58 2.26 8.44 2.24 17.32 2.56 26a370 370 0 0 1 .29 7.03l.13 3.11C900 460 900 460 899 461q-.49 3.74-.88 7.5c-.62 5.5-1.49 10.5-3.47 15.7-.65 1.8-.65 1.8-1.09 4.74a36 36 0 0 1-2.56 8c-1.69 4.06-2.42 7.69-3 12.06q-1.06 2.49-2.17 4.96c-4.18 10.28-6.01 23.09-3.03 33.95.93 2.15 1.96 4.1 3.2 6.09l1.5 2.94c1.71 2.34 2.91 2.85 5.5 4.06l1.86 1.04A30.4 30.4 0 0 0 909 566l3.02.19c9.83.35 18.59-1.59 27.98-4.19l3.81-1.05c2.8-.83 5.39-1.85 8.05-3.04 3.91-1.67 7.89-3.13 11.86-4.64q4.33-1.7 8.59-3.52A35 35 0 0 1 985 547l3.04-.14c8.17.04 12.25 2.09 18.03 7.82 3.58 4.31 4.4 7.5 4.23 13.03-.49 3.75-2.01 6.39-4.3 9.29l-1.64 2.08c-6.52 7.32-14.85 11.43-23.43 15.89a89 89 0 0 0-4.64 2.69 41 41 0 0 1-7.67 3.34c-3.13 1.1-6.14 2.23-9.18 3.56a100 100 0 0 1-10.91 3.69c-2.32.69-4.57 1.48-6.84 2.31-17.37 5.76-41.54 7.27-58.69.44l-2.43-.91c-10.4-4-18.45-8.41-26.57-16.09l-4.31-3.69c-7.34-6.44-7.34-6.44-8.13-10.62-.59-2.83-1.48-4.3-3.06-6.69-2-3.06-3.02-5.34-3.5-9l-1-2.62c-4.3-14.52-3.05-32.25 2-46.38l.5-3c.87-5.2 2.83-9.88 4.94-14.69 2.39-5.67 4.1-11.34 5.56-17.31l.59-2.29C850 468.32 850 468.32 850 464l2-3-1-2c.71-6.71.71-6.71 2-8 .13-2.94.08-5.61-.5-8.5s-.5-5.57-.5-8.5a85 85 0 0 0-1-5l-3 1h-3l.69 2.81.31 3.19q-1.47 1.53-3 3a34 34 0 0 0-.81 9.56c-.27 3.53-2.22 5.54-4.19 8.44-1.19 3.51-2 6.3-2 10q-.98 2-2 4-1.02 3-2 6l-1 2.44c-1 2.56-1 2.56-1.94 6.06-1.06 3.5-1.06 3.5-2.56 5.94-1.6 2.73-2.27 5.31-2.97 8.38A55 55 0 0 1 817 516a276 276 0 0 0-1 5l-3 7-.45 2.41c-.59 2.78-1.59 5.02-2.8 7.59-1.92 4.58-1.92 4.58-.5 8.12L811 548l-3 2-2-1 .06 2.38C806 554 806 554 805 556c-.07 2.28 0 4.53.06 6.81C805 565 805 565 804 568c.94 2.19.94 2.19 2 4l-2 2.56c-2.3 3.96-2.16 5.95-2 10.44l-.94 2.75c-1 3.08-1.29 5.48-1.5 8.69-.36 4.76-1.57 8.19-3.56 12.56q-.55 2.43-1 4.88c-1.42 7.68-4.18 14.74-7.13 21.96A93 93 0 0 0 786 641l3.06-.12c3.3.1 5.64.58 8.74 1.51 2.66.74 5.34 1.32 8.04 1.91 34.79 7.55 34.79 7.55 41.16 16.7-.31 3.41-1.69 5.18-4.12 7.5-9.31 7.57-23.9 8.32-35.38 9.62l-3.78.48c-24.83 3-49.81 3.7-74.8 3.74l-11.22.05q-14.23.07-28.45.11c-61.67.2-123.11 1.81-184.7 5.23-22.71 1.26-45.41 2.42-68.15 2.92l-2.66.06q-14.77.32-29.53.33h-2.75c-7.32 0-14.59-.26-21.9-.79l-3.67-.26C335.25 686.8 335.25 686.8 323 677c.14-4.74 2.54-7.08 5.62-10.35 2.88-2 5.66-2.88 8.98-3.9 2.23-.7 4.39-1.47 6.57-2.29 23.33-8.51 48.22-12.68 72.64-16.77l2.11-.36c20.81-3.47 41.77-5.7 62.77-7.64l10.41-.97c10.18-.95 20.35-1.9 30.55-2.49C525 632 525 632 527 631q3.12-.07 6.23 0c8 .07 15.98-.16 23.97-.44l3.92-.13 14.16-.5c16.25-.59 32.46-1.14 48.72-.93l3.08.04q10.51.14 21.04.33l10.84.19a1498 1498 0 0 1 37.07 1.03c5.33.23 10.59.65 15.89 1.32 3.03.13 4.66-.82 7.02-2.66l2.15-1.61c1.91-1.64 1.91-1.64 3.48-3.28C726 623 726 623 729 622c1.06-2.75 1.06-2.75 2-6l1.12-2.25c2.03-6.37 1.44-12.95-1.21-19.05A15 15 0 0 0 726 589q-2.5-.06-5 0c-2-3-2-3-3-5q-2.24-1.44-4.56-2.75c-6.81-3.99-12.8-8.63-18.73-13.82-1.67-1.4-3.4-2.6-5.21-3.81-3.47-2.41-5.97-5.33-8.66-8.57a69 69 0 0 0-8.14-7.41c-1.83-1.76-2.64-3.36-3.7-5.64l-1.81-1.69c-2.61-2.75-4.14-5.64-5.91-8.97a84 84 0 0 0-3.66-6.03c-6.3-9.96-12.53-21.65-14.62-33.31l-2.4.04c-9.49.07-18.94-.25-28.41-.68q-9.23-.43-18.47-.33a103 103 0 0 1-10.53-.81C581 490 581 490 577.56 490c-2.56 0-2.56 0-5.56-1h-2.38c-3.72 0-7.09-.86-10.68-1.81-2.94-.19-2.94-.19-5.13 1.43-1.81 2.38-1.81 2.38-3.31 5-1.5 2.38-1.5 2.38-3.41 3.31-3 1.54-4.51 3.87-6.53 6.51-1.56 1.56-1.56 1.56-3.47 2.03-2.92.74-4.4 2.36-6.59 4.41a74 74 0 0 1-6.73 5.74c-2.13 1.66-2.41 2.76-2.77 5.38h-3c-1.9 1.21-1.9 1.21-3.94 2.81l-2.02 1.58L510 527l-2.12 1.56C506 530 506 530 503.94 532.19c-2.52 2.6-5.35 4.55-8.32 6.62a54 54 0 0 0-10.87 10.17c-3.83 4.42-8.28 8.57-13.33 11.54a19 19 0 0 0-5.48 4.92l-1.53 1.85L463 569c-3.43 3.73-3.43 3.73-6 4.94-2.76 1.47-4.13 3.58-6 6.06l-3 3-2 2.5a54 54 0 0 1-5 5.5l-1.38 1.38q-1.95 1.95-3.93 3.87a118 118 0 0 0-5.75 6.31A74 74 0 0 1 423 610h-2l-.77 1.79c-1.38 2.47-2.79 3.75-4.98 5.52a55 55 0 0 0-7.44 7.44c-3.88 4.66-8.29 6.56-13.9 8.56q-2.27.84-4.47 1.81c-10.38 3.73-20.64 2.38-30.44-2.12-2.82-1.51-2.82-1.51-5-3v-2l-1.75-.19c-3.24-1.17-4.3-3-6.25-5.81l-2.19-3c-3.11-5.67-3.86-13.19-2.15-19.41A35 35 0 0 1 345 594l1.24-1.75c2.29-2.96 4.35-4.77 7.76-6.25q1.53-1.47 3-3l-1.84 1.02c-8.37 4.46-16.1 7.25-25.57 4.94-8.14-3.01-15.38-8.04-19.55-15.73a28 28 0 0 1-1.28-19.72A64 64 0 0 1 312 547l1.75-3.19c5.71-7.14 12.69-10.11 21.25-12.81 3.5-1.17 3.8-1.84 5.69-4.88a191 191 0 0 1 7.37-10.68c3.76-5.13 7.13-10.4 10.38-15.86a241 241 0 0 1 4.75-7.46c3.65-5.7 6.82-11.61 9.96-17.6q2.23-4.26 4.6-8.46c2.22-3.96 4.25-7.99 6.25-12.06l3-6 .94-1.94c2.05-3.99 4.32-7.87 6.68-11.68A51 51 0 0 0 398 427q1.47-3.01 3-6 3.13-6.19 6-12.5c1.5-3.27 3-6.5 4.66-9.7 1.73-3.61 1.82-5.82 1.34-9.8a65 65 0 0 0-2.92-5.83c-1.93-3.87-2.94-8.02-4.08-12.17l-1.06-3.56A106 106 0 0 1 401 337l-1.69-.48c-4.92-1.51-9-3.36-13.28-6.21a82 82 0 0 0-6.47-3.69c-12-6.63-21.44-16.45-29.56-27.37l-1.42-1.9A34 34 0 0 1 343 286a91 91 0 0 0-3.5-6.62c-4.91-11.06-4.18-22.97-2.01-34.61q.66-3.64 1.07-7.33C339 234 339 234 340 231q.52-3.5 1-7c.64-3.46 1.47-6.81 2.44-10.19 1-3.61 1.85-7.18 2.5-10.87.84-4.51 2.4-8.48 4.18-12.69A31 31 0 0 0 352 182q.95-6.66 2-13.31 1.11-7.16 1.79-14.37.31-3.37.71-6.76.55-4.9.94-9.81c.46-5.32 1.3-10.55 2.17-15.82.39-2.93.39-2.93.27-6.62.26-7.09 3.59-13.86 8.41-19.03 4.54-3.41 9.86-2.83 14.71-.28m-16 5c-3.45 5.4-3.86 10.86-4.5 17.08l-.37 3.29q-.58 5.22-1.13 10.44l-.75 6.8-.37 3.39-.76 6.8q-.95 8.54-1.83 17.09l-.73 6.62-.29 3.02a65 65 0 0 1-4.3 16.99c-5.49 14.06-7.84 29.36-10.35 44.17l-.4 2.33c-3.93 22.9-1.54 40.48 12.03 59.77 3.97 5.01 8.3 9.63 12.75 14.21l2.11 2.19C376.13 322.9 392.41 335 404 335l.03 1.78c.33 16.5 2.74 30.33 8.95 45.68 2.11 5.31 3.78 10.07 2.05 15.68l-1.54 3.19-.84 1.78q-1.37 2.86-2.77 5.7l-1.93 4.01q-2.47 5.13-4.98 10.22l-2.75 5.61a660 660 0 0 1-19.74 37.76q-2.13 3.74-4.24 7.51c-7.88 14.07-15.97 27.87-25.24 41.08l-1.42 2.04a1032 1032 0 0 1-5.28 7.55c-3.89 5.42-6.6 8.53-13.11 10.35-8.24 2.62-12.29 5.03-16.57 12.68-3.54 6.93-4.46 12.62-3.62 20.38 2.43 7.2 7.29 12.2 13.73 16.03a32 32 0 0 0 22.18 1.35c8.65-3.53 16.09-8.45 21.84-15.88l2.04-2.62L373 564l2.49-3.19c3.81-4.89 7.54-9.79 11.01-14.93 3.97-5.78 8.74-10.76 13.5-15.88l3.56-4.06c5.75-6.61 11.66-13.09 17.56-19.56q5.13-5.63 10.11-11.36 3.04-3.45 6.15-6.83c3.86-4.29 7.53-8.7 11.16-13.19 3.34-4.07 6.77-8.06 10.21-12.05A743 743 0 0 0 468 452l5 2c-1.82 4.05-4.36 7.61-6.88 11.25l-1.46 2.12a466 466 0 0 1-12.39 16.9 207 207 0 0 0-8.33 11.85c-3.2 4.89-6.68 9.48-10.31 14.03a875 875 0 0 0-12.69 16.41L416.8 532l-1.98 2.61Q408.93 542.32 403 550l-3.74 4.86-2.51 3.25a262 262 0 0 0-6.32 8.46c-5.11 7.06-9.16 12.29-18.09 13.91l-5.67.91c-4.22.97-7.27 3-10.67 5.61l-1.91 1.41c-5.26 4.18-8.72 8.88-10.09 15.59-.75 6.54.09 11.63 4 17 6.63 7.54 14.65 12.17 24.64 13.48 14.13.55 26.73-5.01 37.35-14.2 3.65-3.56 6.94-7.45 10.26-11.31 2.2-2.48 4.54-4.78 6.9-7.09 1.8-1.82 3.46-3.71 5.13-5.65 3.46-3.97 7.08-7.75 10.8-11.48l1.97-1.98 4.12-4.12 6.19-6.23c6.54-6.57 13.07-12.9 20.4-18.61A69 69 0 0 0 482 548c3.79-3.9 7.91-7.25 12.14-10.65 2.88-2.36 5.62-4.83 8.36-7.35a226 226 0 0 1 11-9.5c4.82-3.89 9.4-7.98 13.95-12.17q3.2-2.92 6.49-5.77 5.2-4.56 10.31-9.25l1.54-1.4a47 47 0 0 0 6.01-6.3c3.47-2.54 7.15-1.19 11.2-.61 18.46 2.61 36.42 3.38 55.06 3.19l7.9-.04q9.52-.06 19.04-.15l.59 2.46.8 3.25.78 3.21a74 74 0 0 0 4.52 11.96l1.06 2.31A152 152 0 0 0 675 546l2.54 3.01A124 124 0 0 0 696 566l1.72 1.31a295 295 0 0 0 20.78 14.5c8.83 5.62 14.86 9.57 17.5 20.19.88 6.51.39 13.27-3 19a52 52 0 0 1-18.77 13.73c-5.83 3.32-9.27 10.08-11.23 16.27-.72 5.7-.31 10.14 3 15 10.63 10.15 22.52 9.45 36.35 9.29 6.49-.22 11.8-1.36 17.65-4.29l3.31-1.62c7.67-6.78 12.02-16.46 16.46-25.51q1.48-3 2.98-5.99c7.78-15.66 7.78-15.66 9.25-23.07q1.1-5.3 2.38-10.56c2.94-12.85 5.53-25.59 6.5-38.75 2.17-26.78 14.45-53.01 24-77.94 3.73-9.77 7.29-19.48 10.12-29.56l.75-2.61 2.44-8.7.76-2.72a128 128 0 0 0 4.67-29.66l.12-2.74.26-6.57 3.81 8.31 1.08 2.32a69.4 69.4 0 0 1 6.55 30.93l-.03 3.46c-.3 14.98-4.09 27.65-9.33 41.57A290 290 0 0 0 837 521l-.81 3.05c-4.45 19.84-.53 39.65 9.81 56.95 8.17 12.37 20.25 20.77 34 26l2.22.89c29.4 10.88 63.11.74 90.4-11.45 29.53-13.58 29.53-13.58 35.38-27.44.94-3.29.75-4.44 0-8-2.76-4.73-6.16-8.05-11.31-10-14.48-3.69-28.27 2.5-41.5 8-17.13 7.01-38.61 13.97-57.07 7.93-7.63-3.49-13.48-8.96-17-16.62-5.54-16.33.21-32.85 5.32-48.56A297 297 0 0 0 895 469l.53-2.08c6.73-27-1.72-55.89-15.46-79.22-2.9-4.63-6.39-8.68-10.07-12.7l-2.52-2.8c-8.12-8.59-20.55-19.71-32.92-20.39L832 352l-.18-2.11c-1.09-3.84-3.34-6.29-5.94-9.2l-1.53-1.75-3.01-3.41q-1.63-1.86-3.2-3.77c-20.79-24.91-52-40.34-82.14-50.76l-2.18-.79c-37.06-13.34-77.52-17.44-116.36-22.45-13.51-1.75-27-3.64-40.46-5.76l-3.19-.5c-20.73-3.25-20.73-3.25-29.02-6.77C543 244 543 244 541 244l.55-3.73c3.67-25.32 6.05-50.29 5.95-75.89l-.01-3.55a1109 1109 0 0 0-.08-9.99l-.03-2.98c-.28-13.45-.28-13.45-4.94-18.8L540 127l-1-1c-5.1-.9-9.07-.38-13.44 2.44a146 146 0 0 0-12.16 10.34 265 265 0 0 1-8.35 7.31c-2.05 1.91-2.05 1.91-4.42 4.6l-2.51 2.81-2.24 2.66c-6.77 4.33-17.18.02-24.57-1.6a166 166 0 0 0-28.96-3.66c-6.68-.36-6.68-.36-10.12-3.1L430 145q-1.41-1.44-2.87-2.83a244 244 0 0 1-14.09-14.84 403 403 0 0 0-9.04-9.89l-1.76-1.9C385.28 97.4 385.28 97.4 375.11 96.8c-3.6.34-5.5 1.78-8.11 4.2m479 319c-.93 3.01-1.04 3.87 0 7l2-1c.62-2.56.62-2.56 1-5zm-387 44c-1.86 1.93-1.86 1.93-3.75 4.31l-1.92 2.37C452 473 452 473 452.3 475.29l.7 1.71-2.25 1.21c-2.86 1.86-4.64 3.73-6.81 6.35-3.51 4.23-3.51 4.23-6.06 5.47-2.44 1.26-2.77 2.51-3.88 4.97a80 80 0 0 1-3.38 4l-1.87 2.1A139 139 0 0 1 423 507l-2 2-1.75 1.62a74 74 0 0 0-6.69 8.48A27 27 0 0 1 407 524c-1.81 1.94-1.81 1.94-3 4a12 12 0 0 0 1 4h-3c-4.89 2.82-8.28 5.52-10 11l-3 1a90 90 0 0 0-2 5l-2 2-.81 1.75a28.5 28.5 0 0 1-8.31 9.81c-1.88 1.44-1.88 1.44-3.17 3.7-1.97 3.15-4.24 5.46-6.9 8.05l-2.73 2.68L361 579l2 2 2.94-.88c2.9-.84 5.79-1.47 8.75-2.06 3.42-.75 5.82-1.47 8.31-4.06a88 88 0 0 0 2-4l3-3q1.56-1.94 3.06-3.94l1.54-2.02A47 47 0 0 0 396 555q1.47-1.53 3-3l1.88-2.38c2.12-2.62 2.12-2.62 4.37-4.74 4.08-4.27 7.33-9.08 10.75-13.88l3-4 1.46-1.96c3.34-4.47 6.67-8.92 10.35-13.1 1.19-1.94 1.19-1.94.88-4.19L431 506h3c2.72-2.32 4.66-4.15 6-7.5 1.33-3.31 3.43-5.05 6-7.5 2.57-2.93 4.42-5.09 5-9h2c1.47-2.08 1.47-2.08 3.06-4.81l1.6-2.71C459 472 459 472 460 469h2l1-6c-1 0-1 0-4 1" fill="#BEBFBE"/><path d="m383 96 3.19 1.38c3.07 1.77 3.34 2.58 4.81 5.62l5 2q2.53 2.47 5 5a79 79 0 0 0 5 3l-1 3 1.5 1.47c3.48 3.43 6.87 6.89 10.06 10.59L420 132l1.82 2.09A35 35 0 0 0 427 139c2.94-.06 2.94-.06 5-1 2 3 2 3 2 5h3l6 4h3c6.29.8 6.29.8 9 1.56 3.95.87 7.84.73 11.75-.25L469 148c1.5 1.31 1.5 1.31 3 3 5.69 2.85 12.79 4.95 19 3l2.31-.56L495 153v-3c1.31-1.69 1.31-1.69 3-3h3c2.34-1.83 2.34-1.83 4.94-4.25l2.59-2.39q2.38-2.28 4.66-4.66C515 134 515 134 517 134l.65-1.77c1.8-2.98 3.94-4.13 6.91-5.92 5.41-3.28 5.41-3.28 6.44-4.31 3.52-.37 5.42-.37 8.45 1.54 5.17 4.82 9.42 9.21 10.55 16.46v6l.49 2.92c.82 5.49.65 11.04.63 16.58l.02 3.34c-.01 5.5-.27 10.72-1.14 16.16q-.06 2.94 0 5.88.07 2.55 0 5.12l-1 1c-.07 2.75 0 5.49.06 8.24A25 25 0 0 1 548 212q-.29 2.25-.5 4.5a42 42 0 0 1-1 6.47 45 45 0 0 0-1 7.03 54 54 0 0 1-1.5 9l7 6 2-4c1.71 1.63 2.93 2.87 4 5 4 0 4 0 6.25-2l1.75-2 1.21 1.39c4.41 3.96 11.05 4.8 16.79 4.67l2.19-.15C587 248 587 248 589 250c2.26.1 4.45-.07 6.71-.22 2.29.22 2.29.22 4.19 1.68 2.81 2.06 4.89 2.01 8.35 2.16 3.8.21 7.55.42 11.31.94 6.63.85 6.63.85 9.44-.56 2.82.8 5.36 1.62 7.88 3.12 3.33 1.38 6.53.94 10.12.88l3 1 3-1c4.37 0 6.19 1.05 10 3h3l3 1c3.55.81 5.95 1.01 9.56.38 3.44-.38 3.44-.38 5.62.96 3.68 2.17 7.3 2.94 11.44 3.85l2.32.53c3.07.7 5.9 1.28 9.06 1.28q2.24.66 4.44 1.44A88 88 0 0 0 720 273a129 129 0 0 1 18.73 6.1c2.27.9 2.27.9 5.83 1.9 4.36 1.27 8.32 3.1 12.44 5l2.74 1.2a94 94 0 0 1 14.16 7.48c2.51 1.58 5.1 2.94 7.72 4.32 4.3 2.3 7.73 4.8 11.38 8a88 88 0 0 0 4 2q2.05 1.43 4 3l3.06 2.44c3.99 3.42 7.47 7.31 10.94 11.25a55 55 0 0 0 6.8 6.54c2.5 2.01 2.51 2.79 3.2 5.77q1.99 1.02 4 2 1.02 1.99 2 4c3.6 4.5 7.26 6.1 12.51 8.04 10.65 4.12 19.53 11.45 26.83 20.06 1.66 1.9 1.66 1.9 4.22 4.34 6.2 6.51 10.29 14.65 14.44 22.56l1.42 2.61a48 48 0 0 1 5.18 14.31c.4 2.08.4 2.08 1.46 5.58 2.26 8.44 2.24 17.32 2.56 26a370 370 0 0 1 .29 7.03l.13 3.11C900 460 900 460 899 461q-.49 3.74-.88 7.5c-.62 5.5-1.49 10.5-3.47 15.7-.65 1.8-.65 1.8-1.09 4.74a36 36 0 0 1-2.56 8c-1.69 4.06-2.42 7.69-3 12.06q-1.06 2.49-2.17 4.96c-4.18 10.28-6.01 23.09-3.03 33.95.93 2.15 1.96 4.1 3.2 6.09l1.5 2.94c1.71 2.34 2.91 2.85 5.5 4.06l1.86 1.04A30.4 30.4 0 0 0 909 566l3.02.19c9.83.35 18.59-1.59 27.98-4.19l3.81-1.05c2.8-.83 5.39-1.85 8.05-3.04 3.91-1.67 7.89-3.13 11.86-4.64q4.33-1.7 8.59-3.52A35 35 0 0 1 985 547l3.04-.14c8.17.04 12.25 2.09 18.03 7.82 3.58 4.31 4.4 7.5 4.23 13.03-.49 3.75-2.01 6.39-4.3 9.29l-1.64 2.08c-6.52 7.32-14.85 11.43-23.43 15.89a89 89 0 0 0-4.64 2.69 41 41 0 0 1-7.67 3.34c-3.13 1.1-6.14 2.23-9.18 3.56a100 100 0 0 1-10.91 3.69c-2.32.69-4.57 1.48-6.84 2.31-17.37 5.76-41.54 7.27-58.69.44l-2.43-.91c-10.4-4-18.45-8.41-26.57-16.09l-4.31-3.69c-7.34-6.44-7.34-6.44-8.13-10.62-.59-2.83-1.48-4.3-3.06-6.69-2-3.06-3.02-5.34-3.5-9l-1-2.62c-4.3-14.52-3.05-32.25 2-46.38l.5-3c.87-5.2 2.83-9.88 4.94-14.69 2.39-5.67 4.1-11.34 5.56-17.31l.59-2.29C850 468.32 850 468.32 850 464l2-3-1-2c.71-6.71.71-6.71 2-8 .13-2.94.08-5.61-.5-8.5s-.5-5.57-.5-8.5a85 85 0 0 0-1-5l-3 1h-3l.69 2.81.31 3.19q-1.47 1.53-3 3a34 34 0 0 0-.81 9.56c-.27 3.53-2.22 5.54-4.19 8.44-1.19 3.51-2 6.3-2 10q-.98 2-2 4-1.02 3-2 6l-1 2.44c-1 2.56-1 2.56-1.94 6.06-1.06 3.5-1.06 3.5-2.56 5.94-1.6 2.73-2.27 5.31-2.97 8.38A55 55 0 0 1 817 516a276 276 0 0 0-1 5l-3 7-.45 2.41c-.59 2.78-1.59 5.02-2.8 7.59-1.92 4.58-1.92 4.58-.5 8.12L811 548l-3 2-2-1 .06 2.38C806 554 806 554 805 556c-.07 2.28 0 4.53.06 6.81C805 565 805 565 804 568c.94 2.19.94 2.19 2 4l-2 2.56c-2.3 3.96-2.16 5.95-2 10.44l-.94 2.75c-1 3.08-1.29 5.48-1.5 8.69-.36 4.76-1.57 8.19-3.56 12.56q-.55 2.43-1 4.88c-1.42 7.68-4.18 14.74-7.13 21.96A93 93 0 0 0 786 641l3.06-.12c3.3.1 5.64.58 8.74 1.51 2.66.74 5.34 1.32 8.04 1.91 34.79 7.55 34.79 7.55 41.16 16.7-.31 3.41-1.69 5.18-4.12 7.5-9.31 7.57-23.9 8.32-35.38 9.62l-3.78.48c-24.83 3-49.81 3.7-74.8 3.74l-11.22.05q-14.23.07-28.45.11c-61.67.2-123.11 1.81-184.7 5.23-22.71 1.26-45.41 2.42-68.15 2.92l-2.66.06q-14.77.32-29.53.33h-2.75c-7.32 0-14.59-.26-21.9-.79l-3.67-.26C335.25 686.8 335.25 686.8 323 677c.14-4.74 2.54-7.08 5.62-10.35 2.88-2 5.66-2.88 8.98-3.9 2.23-.7 4.39-1.47 6.57-2.29 23.33-8.51 48.22-12.68 72.64-16.77l2.11-.36c20.81-3.47 41.77-5.7 62.77-7.64l10.41-.97c10.18-.95 20.35-1.9 30.55-2.49C525 632 525 632 527 631q3.12-.07 6.23 0c8 .07 15.98-.16 23.97-.44l3.92-.13 14.16-.5c16.25-.59 32.46-1.14 48.72-.93l3.08.04q10.51.14 21.04.33l10.84.19a1498 1498 0 0 1 37.07 1.03c5.33.23 10.59.65 15.89 1.32 3.03.13 4.66-.82 7.02-2.66l2.15-1.61c1.91-1.64 1.91-1.64 3.48-3.28C726 623 726 623 729 622c1.06-2.75 1.06-2.75 2-6l1.12-2.25c2.03-6.37 1.44-12.95-1.21-19.05A15 15 0 0 0 726 589q-2.5-.06-5 0c-2-3-2-3-3-5q-2.24-1.44-4.56-2.75c-6.81-3.99-12.8-8.63-18.73-13.82-1.67-1.4-3.4-2.6-5.21-3.81-3.47-2.41-5.97-5.33-8.66-8.57a69 69 0 0 0-8.14-7.41c-1.83-1.76-2.64-3.36-3.7-5.64l-1.81-1.69c-2.61-2.75-4.14-5.64-5.91-8.97a84 84 0 0 0-3.66-6.03c-6.3-9.96-12.53-21.65-14.62-33.31l-2.4.04c-9.49.07-18.94-.25-28.41-.68q-9.23-.43-18.47-.33a103 103 0 0 1-10.53-.81C581 490 581 490 577.56 490c-2.56 0-2.56 0-5.56-1h-2.38c-3.72 0-7.09-.86-10.68-1.81-2.94-.19-2.94-.19-5.13 1.43-1.81 2.38-1.81 2.38-3.31 5-1.5 2.38-1.5 2.38-3.41 3.31-3 1.54-4.51 3.87-6.53 6.51-1.56 1.56-1.56 1.56-3.47 2.03-2.92.74-4.4 2.36-6.59 4.41a74 74 0 0 1-6.73 5.74c-2.13 1.66-2.41 2.76-2.77 5.38h-3c-1.9 1.21-1.9 1.21-3.94 2.81l-2.02 1.58L510 527l-2.12 1.56C506 530 506 530 503.94 532.19c-2.52 2.6-5.35 4.55-8.32 6.62a54 54 0 0 0-10.87 10.17c-3.83 4.42-8.28 8.57-13.33 11.54a19 19 0 0 0-5.48 4.92l-1.53 1.85L463 569c-3.43 3.73-3.43 3.73-6 4.94-2.76 1.47-4.13 3.58-6 6.06l-3 3-2 2.5a54 54 0 0 1-5 5.5l-1.38 1.38q-1.95 1.95-3.93 3.87a118 118 0 0 0-5.75 6.31A74 74 0 0 1 423 610h-2l-.77 1.79c-1.38 2.47-2.79 3.75-4.98 5.52a55 55 0 0 0-7.44 7.44c-3.88 4.66-8.29 6.56-13.9 8.56q-2.27.84-4.47 1.81c-10.38 3.73-20.64 2.38-30.44-2.12-2.82-1.51-2.82-1.51-5-3v-2l-1.75-.19c-3.24-1.17-4.3-3-6.25-5.81l-2.19-3c-3.11-5.67-3.86-13.19-2.15-19.41A35 35 0 0 1 345 594l1.24-1.75c2.29-2.96 4.35-4.77 7.76-6.25q1.53-1.47 3-3l-1.84 1.02c-8.37 4.46-16.1 7.25-25.57 4.94-8.14-3.01-15.38-8.04-19.55-15.73a28 28 0 0 1-1.28-19.72A64 64 0 0 1 312 547l1.75-3.19c5.71-7.14 12.69-10.11 21.25-12.81 3.5-1.17 3.8-1.84 5.69-4.88a191 191 0 0 1 7.37-10.68c3.76-5.13 7.13-10.4 10.38-15.86a241 241 0 0 1 4.75-7.46c3.65-5.7 6.82-11.61 9.96-17.6q2.23-4.26 4.6-8.46c2.22-3.96 4.25-7.99 6.25-12.06l3-6 .94-1.94c2.05-3.99 4.32-7.87 6.68-11.68A51 51 0 0 0 398 427q1.47-3.01 3-6 3.13-6.19 6-12.5c1.5-3.27 3-6.5 4.66-9.7 1.73-3.61 1.82-5.82 1.34-9.8a65 65 0 0 0-2.92-5.83c-1.93-3.87-2.94-8.02-4.08-12.17l-1.06-3.56A106 106 0 0 1 401 337l-1.69-.48c-4.92-1.51-9-3.36-13.28-6.21a82 82 0 0 0-6.47-3.69c-12-6.63-21.44-16.45-29.56-27.37l-1.42-1.9A34 34 0 0 1 343 286a91 91 0 0 0-3.5-6.62c-4.91-11.06-4.18-22.97-2.01-34.61q.66-3.64 1.07-7.33C339 234 339 234 340 231q.52-3.5 1-7c.64-3.46 1.47-6.81 2.44-10.19 1-3.61 1.85-7.18 2.5-10.87.84-4.51 2.4-8.48 4.18-12.69A31 31 0 0 0 352 182q.95-6.66 2-13.31 1.11-7.16 1.79-14.37.31-3.37.71-6.76.55-4.9.94-9.81c.46-5.32 1.3-10.55 2.17-15.82.39-2.93.39-2.93.27-6.62.26-7.09 3.59-13.86 8.41-19.03 4.54-3.41 9.86-2.83 14.71-.28m-16 5c-3.45 5.4-3.86 10.86-4.5 17.08l-.37 3.29q-.58 5.22-1.13 10.44l-.75 6.8-.37 3.39-.76 6.8q-.95 8.54-1.83 17.09l-.73 6.62-.29 3.02a65 65 0 0 1-4.3 16.99c-5.49 14.06-7.84 29.36-10.35 44.17l-.4 2.33c-3.93 22.9-1.54 40.48 12.03 59.77 3.97 5.01 8.3 9.63 12.75 14.21l2.11 2.19C376.13 322.9 392.41 335 404 335l.03 1.78c.33 16.5 2.74 30.33 8.95 45.68 2.11 5.31 3.78 10.07 2.05 15.68l-1.54 3.19-.84 1.78q-1.37 2.86-2.77 5.7l-1.93 4.01q-2.47 5.13-4.98 10.22l-2.75 5.61a660 660 0 0 1-19.74 37.76q-2.13 3.74-4.24 7.51c-7.88 14.07-15.97 27.87-25.24 41.08l-1.42 2.04a1032 1032 0 0 1-5.28 7.55c-3.89 5.42-6.6 8.53-13.11 10.35-8.24 2.62-12.29 5.03-16.57 12.68-3.54 6.93-4.46 12.62-3.62 20.38 2.43 7.2 7.29 12.2 13.73 16.03a32 32 0 0 0 22.18 1.35c8.65-3.53 16.09-8.45 21.84-15.88l2.04-2.62L373 564l2.49-3.19c3.81-4.89 7.54-9.79 11.01-14.93 3.97-5.78 8.74-10.76 13.5-15.88l3.56-4.06c5.75-6.61 11.66-13.09 17.56-19.56q5.13-5.63 10.11-11.36 3.04-3.45 6.15-6.83c3.86-4.29 7.53-8.7 11.16-13.19 3.34-4.07 6.77-8.06 10.21-12.05A743 743 0 0 0 468 452l5 2c-1.82 4.05-4.36 7.61-6.88 11.25l-1.46 2.12a466 466 0 0 1-12.39 16.9 207 207 0 0 0-8.33 11.85c-3.2 4.89-6.68 9.48-10.31 14.03a875 875 0 0 0-12.69 16.41L416.8 532l-1.98 2.61Q408.93 542.32 403 550l-3.74 4.86-2.51 3.25a262 262 0 0 0-6.32 8.46c-5.11 7.06-9.16 12.29-18.09 13.91l-5.67.91c-4.22.97-7.27 3-10.67 5.61l-1.91 1.41c-5.26 4.18-8.72 8.88-10.09 15.59-.75 6.54.09 11.63 4 17 6.63 7.54 14.65 12.17 24.64 13.48 14.13.55 26.73-5.01 37.35-14.2 3.65-3.56 6.94-7.45 10.26-11.31 2.2-2.48 4.54-4.78 6.9-7.09 1.8-1.82 3.46-3.71 5.13-5.65 3.46-3.97 7.08-7.75 10.8-11.48l1.97-1.98 4.12-4.12 6.19-6.23c6.54-6.57 13.07-12.9 20.4-18.61A69 69 0 0 0 482 548c3.79-3.9 7.91-7.25 12.14-10.65 2.88-2.36 5.62-4.83 8.36-7.35a226 226 0 0 1 11-9.5c4.82-3.89 9.4-7.98 13.95-12.17q3.2-2.92 6.49-5.77 5.2-4.56 10.31-9.25l1.54-1.4a47 47 0 0 0 6.01-6.3c3.47-2.54 7.15-1.19 11.2-.61 18.46 2.61 36.42 3.38 55.06 3.19l7.9-.04q9.52-.06 19.04-.15l.59 2.46.8 3.25.78 3.21a74 74 0 0 0 4.52 11.96l1.06 2.31A152 152 0 0 0 675 546l2.54 3.01A124 124 0 0 0 696 566l1.72 1.31a295 295 0 0 0 20.78 14.5c8.83 5.62 14.86 9.57 17.5 20.19.88 6.49.41 13.29-3 19-10.59 11.62-10.59 11.62-17.92 12.13q-3.55 0-7.1-.15l-2.73-.07-5.86-.18q-8-.23-15.99-.42l-3.36-.09c-17.83-.43-35.68-.41-53.52-.41l-12.56-.02c-28.72-.09-57.29.55-85.96 2.21l-3.95.22q-9.18.54-18.36 1.16l-8.53.56-5.54.38-2.52.16c-3.22.23-6.03.5-9.1 1.52q-3.3.22-6.62.36c-10.44.55-20.76 2-31.11 3.43q-4.95.68-9.9 1.33a394 394 0 0 0-34.58 6.15 180 180 0 0 1-14.92 2.84c-6.4.9-12.53 2.48-18.75 4.2l-3.41.94c-29.01 8.04-29.01 8.04-34.09 14.44l-1.52 1.88L324 675c10.24 11.82 37.25 12.03 51.74 13.23 9.5.66 19.01.82 28.53.81h2.88q15.46-.05 30.91-.35l3.08-.06c21.83-.45 43.6-1.68 65.39-3.01q18.59-1.1 37.18-2.05l10.73-.57c27.27-1.43 54.49-2.14 81.8-2.23l15.04-.06a30293 30293 0 0 1 66.43-.29q6.23-.04 12.46-.05c19.38-.05 38.52-.6 57.83-2.37l5.44-.48q5.55-.5 11.1-1.11l4.36-.43c8.19-.79 16.03-1.98 23.93-4.37l2.01-.59c3.97-1.29 6.55-2.75 9.16-6.02.56-2.5.56-2.5 0-5-11.4-10.65-32.3-12.62-47.19-15.25l-3.01-.53-2.84-.49-2.53-.43a51 51 0 0 0-7.43-.3 417 417 0 0 1 7.12-17.06A71 71 0 0 0 793 610l1.38-5.75c2.94-12.85 5.53-25.59 6.5-38.75 2.17-26.78 14.45-53.01 24-77.94 3.73-9.77 7.29-19.48 10.12-29.56l.75-2.61 2.44-8.7.76-2.72a128 128 0 0 0 4.67-29.66l.12-2.74.26-6.57 3.81 8.31 1.08 2.32a69.4 69.4 0 0 1 6.55 30.93l-.03 3.46c-.3 14.98-4.09 27.65-9.33 41.57A290 290 0 0 0 837 521l-.81 3.05c-4.45 19.84-.53 39.65 9.81 56.95 8.17 12.37 20.25 20.77 34 26l2.22.89c29.4 10.88 63.11.74 90.4-11.45 29.53-13.58 29.53-13.58 35.38-27.44.94-3.29.75-4.44 0-8-2.76-4.73-6.16-8.05-11.31-10-14.48-3.69-28.27 2.5-41.5 8-17.13 7.01-38.61 13.97-57.07 7.93-7.63-3.49-13.48-8.96-17-16.62-5.54-16.33.21-32.85 5.32-48.56A297 297 0 0 0 895 469l.53-2.08c6.73-27-1.72-55.89-15.46-79.22-2.9-4.63-6.39-8.68-10.07-12.7l-2.52-2.8c-8.12-8.59-20.55-19.71-32.92-20.39L832 352l-.18-2.11c-1.09-3.84-3.34-6.29-5.94-9.2l-1.53-1.75-3.01-3.41q-1.63-1.86-3.2-3.77c-20.79-24.91-52-40.34-82.14-50.76l-2.18-.79c-37.06-13.34-77.52-17.44-116.36-22.45-13.51-1.75-27-3.64-40.46-5.76l-3.19-.5c-20.73-3.25-20.73-3.25-29.02-6.77C543 244 543 244 541 244l.55-3.73c3.67-25.32 6.05-50.29 5.95-75.89l-.01-3.55a1109 1109 0 0 0-.08-9.99l-.03-2.98c-.28-13.45-.28-13.45-4.94-18.8L540 127l-1-1c-5.1-.9-9.07-.38-13.44 2.44a146 146 0 0 0-12.16 10.34 265 265 0 0 1-8.35 7.31c-2.05 1.91-2.05 1.91-4.42 4.6l-2.51 2.81-2.24 2.66c-6.77 4.33-17.18.02-24.57-1.6a166 166 0 0 0-28.96-3.66c-6.68-.36-6.68-.36-10.12-3.1L430 145q-1.41-1.44-2.87-2.83a244 244 0 0 1-14.09-14.84 403 403 0 0 0-9.04-9.89l-1.76-1.9C385.28 97.4 385.28 97.4 375.11 96.8c-3.6.34-5.5 1.78-8.11 4.2m479 319c-.93 3.01-1.04 3.87 0 7l2-1c.62-2.56.62-2.56 1-5zm-387 44c-1.86 1.93-1.86 1.93-3.75 4.31l-1.92 2.37C452 473 452 473 452.3 475.29l.7 1.71-2.25 1.21c-2.86 1.86-4.64 3.73-6.81 6.35-3.51 4.23-3.51 4.23-6.06 5.47-2.44 1.26-2.77 2.51-3.88 4.97a80 80 0 0 1-3.38 4l-1.87 2.1A139 139 0 0 1 423 507l-2 2-1.75 1.62a74 74 0 0 0-6.69 8.48A27 27 0 0 1 407 524c-1.81 1.94-1.81 1.94-3 4a12 12 0 0 0 1 4h-3c-4.89 2.82-8.28 5.52-10 11l-3 1a90 90 0 0 0-2 5l-2 2-.81 1.75a28.5 28.5 0 0 1-8.31 9.81c-1.88 1.44-1.88 1.44-3.17 3.7-1.97 3.15-4.24 5.46-6.9 8.05l-2.73 2.68L361 579l2 2 2.94-.88c2.9-.84 5.79-1.47 8.75-2.06 3.42-.75 5.82-1.47 8.31-4.06a88 88 0 0 0 2-4l3-3q1.56-1.94 3.06-3.94l1.54-2.02A47 47 0 0 0 396 555q1.47-1.53 3-3l1.88-2.38c2.12-2.62 2.12-2.62 4.37-4.74 4.08-4.27 7.33-9.08 10.75-13.88l3-4 1.46-1.96c3.34-4.47 6.67-8.92 10.35-13.1 1.19-1.94 1.19-1.94.88-4.19L431 506h3c2.72-2.32 4.66-4.15 6-7.5 1.33-3.31 3.43-5.05 6-7.5 2.57-2.93 4.42-5.09 5-9h2c1.47-2.08 1.47-2.08 3.06-4.81l1.6-2.71C459 472 459 472 460 469h2l1-6c-1 0-1 0-4 1" fill="#E5E7E8"/><path d="m419 392 .84 1.7L421 396l1.16 2.3c10.22 19.55 25.31 36.63 43.84 48.7q2.01 1.49 4 3h-2l-.68 1.62c-1.75 3.15-4.03 5.74-6.38 8.44l-3.01 3.5-1.5 1.76a340 340 0 0 0-5.93 7.24c-4.12 5.07-8.5 9.87-12.94 14.66a383 383 0 0 0-7.82 8.79q-4.24 4.81-8.56 9.56a557 557 0 0 0-5.56 6.31 375 375 0 0 1-7.57 8.4 303 303 0 0 0-14.07 16.28 153 153 0 0 1-4.98 5.82c-3.11 3.57-5.67 7.5-8.32 11.42-3.72 5.42-7.9 10.37-12.2 15.32a108 108 0 0 0-4.5 5.56c-3.3 3.87-7.56 5.91-11.98 8.32l-3.25 1.88c-8.38 2.51-17.58 2.22-25.56-1.48-5.5-3.51-10.17-9.21-12.19-15.4-.91-7.91-.04-14.13 4-21l1.13-1.97c3.94-6.15 8.88-8.59 15.81-10.22 9.79-2.79 15.39-13.81 20.68-21.87l2.09-3.16c11.62-17.76 21.86-36.33 31.84-55.06l3.92-7.29a837 837 0 0 0 17.11-34.04l3.08-6.35.93-1.93a115 115 0 0 0 3.52-7.94c.95-2.32 2.01-3.54 3.89-5.17" fill="#0A0B0C"/><path d="M539 237h1l.19 2.81c.81 3.19.81 3.19 3.37 5.07L546 246l-2 2c-.29 2.53-.29 2.53-.34 5.71l-.09 3.46-.07 3.64-.16 7.08-.05 3.19c-.3 3-1.07 5.18-2.29 7.92a80 80 0 0 0-.81 4.38c-1.32 7.09-3.82 13.82-6.19 20.62h-2l-.81 2.81c-1.14 3.05-1.89 4.09-4.19 6.19l-1 3-5 4-1 3q-1.99 1.02-4 2l-2 3h-2v2c-2.12 1.73-2.12 1.73-4.88 3.62l-2.74 1.92C502 337 502 337 500 337v2a321 321 0 0 1-16.43 6.99 136 136 0 0 0-5.02 2.08c-7.41 3.06-14.7 3.83-22.61 4.54-3.94.39-3.94.39-5.69.9-3.4.74-6.8.65-10.27.66l-2.35.01-4.93.01-7.48.03-4.8.01-2.24.02A40 40 0 0 1 405 352a102 102 0 0 1-1-17 403 403 0 0 1 19.73 4.32c8.35 1.74 16.58 1.9 25.09 1.92q3.22.02 6.43.07c15.13.12 33.24-1.24 45.75-10.31h3l1-3q2.99-2.03 6-4l2-3h2l1-4h2l.81-2.25c1.14-2.64 2.48-4.47 4.19-6.75q1.03-2.5 2-5l1.87-3.39c2.73-5.43 3.93-11.15 5.25-17.05l.77-3.27 1.45-6.38q.6-2.64 1.24-5.26c1.55-6.35 2.07-12.7 2.54-19.21l.27-3.35z" fill="#010101"/><path d="M473 237c6.5 4.46 11.5 10.06 13 18 .63 9.88.42 16.7-5.62 24.69-5.25 5.84-13.25 8.33-20.94 8.75-7.19-.09-13.07-3.44-18.36-8.15-6.76-7.4-7.51-14.59-7.08-24.29h1l.04 1.69c.46 7.31 2.78 12.4 8.21 17.37 4.73 1.62 9.16.95 13.78-.85 5.17-2.69 7.18-5.84 8.97-11.21.64-5.89.39-11.09-2.61-16.3-3.03-3.7-6.9-5.31-11.55-6.04-3.31-.15-5.49.13-8.34 1.84L442 244l-2-1c9.51-9.18 20.73-12.16 33-6" fill="#F7D653"/><path d="M391 220c7.09 2.75 11.17 7.85 14.25 14.62 3.15 8.42 2.65 16.08-1.06 24.22-3.41 6.19-8.62 9.11-15.19 11.16-6.36 1.06-11.57-.68-16.85-4.25-5.47-4.28-7.99-9.26-10.15-15.75-.13-2.67-.04-5.32 0-8h1l.45 2.45c2.06 9.83 2.06 9.83 5.17 12.86 4.51 2.26 7.6 2.01 12.38.69a16.5 16.5 0 0 0 8-7c1.85-5.54 2.14-11.98.06-17.5-1.79-3.05-3.39-5.07-6.37-7-3.63-.68-7-.63-10.69-.5 6.17-6.34 10.2-6.98 19-6" fill="#F5E058"/><path d="m624 629 3.13.04q10.68.13 21.37.33l11.08.19c12.49.21 24.95.53 37.42 1.44v1l-1.85.01q-22.6.12-45.21.28l-21.86.13c-32.7.18-65.34.51-98 2.46l-5.96.34q-9.22.52-18.43 1.16l-8.53.56-5.54.38-2.52.16c-3.22.23-6.03.5-9.1 1.52q-3.3.22-6.62.36c-10.44.55-20.76 2-31.11 3.43q-4.95.68-9.9 1.33a394 394 0 0 0-34.58 6.15 180 180 0 0 1-14.92 2.84c-6.4.9-12.53 2.48-18.75 4.2l-3.41.93a278 278 0 0 0-22.05 7.01C336 666 336 666 333 665c44.96-20.65 100.07-24.82 148.69-29.31l10.41-.97c10.18-.95 20.35-1.9 30.55-2.49C525 632 525 632 527 631q3.12-.07 6.23 0c8 .07 15.98-.16 23.97-.44l3.92-.13 14.16-.5c16.25-.59 32.46-1.14 48.72-.93" fill="#EDEDEE"/><path d="M473 237c5.92 4.06 10.29 8.86 12.59 15.76.58 3.14.58 6.18.6 9.36l.04 3.76C486 269 486 269 484 271v-15h-2l-1-5-3-1v-2h-4v-8h-2v-2h-4v2h2l1 3-3 1v3h4v5h-2a84 84 0 0 0-1.81 9.31A30 30 0 0 1 463 274h-3l-.88 2.62L456 286l16-2v-2h4v-2h2v-2h2v-2h2c-1.86 4.73-4.88 7-9.42 9.14-7.31 2.93-13.89 4.67-21.44 1.75-7.4-3.73-11.86-8.01-16.02-15.08-1.56-5.3-1.36-10.32-1.12-15.81h1l.04 1.69c.46 7.31 2.78 12.4 8.21 17.37 4.73 1.62 9.16.95 13.78-.85 5.17-2.69 7.18-5.84 8.97-11.21.64-5.89.39-11.09-2.61-16.3-3.03-3.7-6.9-5.31-11.55-6.04-3.31-.15-5.49.13-8.34 1.84L442 244l-2-1c9.51-9.18 20.73-12.16 33-6" fill="#F4D65C"/><path d="M854 447h1c.84 18.79-4.37 34.61-10.38 52.18-8.67 25.42-13.59 49.93-1.37 75.13 8.27 15.48 20.39 25.46 36.75 31.69l2.22.89c11.39 4.22 23.77 4.52 35.78 5.11-3.6 3.6-9.11 2.86-14 3-7.5-.14-14.04-1.23-21-4l-2.43-.91c-10.4-4-18.45-8.41-26.57-16.09l-4.31-3.69c-7.34-6.44-7.34-6.44-8.13-10.62-.59-2.83-1.48-4.3-3.06-6.69-2-3.06-3.02-5.34-3.5-9l-1-2.62c-4.3-14.52-3.05-32.25 2-46.38l.5-3c.87-5.2 2.83-9.88 4.94-14.69 2.39-5.67 4.1-11.34 5.56-17.31l.59-2.29C850 468.32 850 468.32 850 464l2-3-1-2c.41-4.34 1.2-8.03 3-12" fill="#E7E8EA"/><path d="M843 404c3.52 1.76 4.41 5.89 5.94 9.38l1.05 2.3c4.77 10.77 6.46 20.23 6.2 32.01l-.04 3.6q-.06 4.36-.15 8.71h-1l-.15-2.67-.23-3.52-.21-3.48c-.39-3.15-1.2-5.42-2.41-8.33-.16-2.06-.16-2.06-.06-4a32 32 0 0 0-.94-9l-3 1h-3l.69 2.81.31 3.19q-1.47 1.53-3 3a34 34 0 0 0-.81 9.56c-.27 3.53-2.22 5.54-4.19 8.44-1.19 3.51-2 6.3-2 10q-.98 2-2 4-1.02 3-2 6l-1 2.44c-1 2.56-1 2.56-1.94 6.06-1.06 3.5-1.06 3.5-2.56 5.94-1.6 2.73-2.27 5.31-2.98 8.38-1.61 6.78-3.08 11.62-8.52 16.18-1-2-1-2 .18-5.65q.9-2.37 1.83-4.73l.98-2.57q1.55-4.1 3.13-8.17c6.12-15.9 11.6-31.75 16.07-48.19l.75-2.68a129 129 0 0 0 4.68-30.2l.12-2.88q.14-3.46.26-6.93m3 16c-.93 3.01-1.04 3.87 0 7l2-1c.62-2.56.62-2.56 1-5z" fill="#E2E3E4"/><path d="M548 144c3.25 3.48 3.36 6.03 3.33 10.71l-.02 3.96-.03 2.06q-.04 3.1-.05 6.19c-.04 6.14-.31 12-1.23 18.08q-.06 2.94 0 5.88.07 2.55 0 5.12l-1 1c-.07 2.75 0 5.49.06 8.24A25 25 0 0 1 548 212q-.29 2.25-.5 4.5a42 42 0 0 1-1 6.47 45 45 0 0 0-1 7.03 54 54 0 0 1-1.5 9l7 6 2-4c1.71 1.63 2.93 2.87 4 5 4 0 4 0 6.25-2l1.75-2 1.21 1.39c4.42 3.97 11.04 4.81 16.79 4.61h4l2 3h-2v2c-7.29.24-14.14-.41-21.31-1.69l-3.04-.53A87 87 0 0 1 541 244c-.25-7.49.6-14.67 1.6-22.09a1869 1869 0 0 0 1.65-12.94c2.73-21.63 3.32-43.19 3.75-64.97" fill="#E9E9EA"/><path d="M996.4 548.14c3.12 1.04 4.86 2.46 7.28 4.68l2.33 2.08c3.1 3.27 4.28 5.92 4.36 10.42-.15 4.7-1.47 8-4.37 11.68l-1.64 2.09c-6.52 7.3-14.86 11.42-23.43 15.88a86 86 0 0 0-4.65 2.7 41 41 0 0 1-7.66 3.33c-3.13 1.1-6.15 2.23-9.19 3.57a97 97 0 0 1-10.9 3.68 120 120 0 0 0-6.85 2.32c-8.25 2.78-17 3.77-25.68 3.43v-3l1.96-.25c26.42-3.56 68.28-12.3 85.7-34.91 3.11-5.07 4.38-8.94 3.34-14.84-3.46-6.58-9.2-8.84-16-11 3-2 3-2 5.4-1.86" fill="#E1E1E2"/><path d="M415 268c3.96 1.58 6.6 3.4 9 7 .12 2.38.12 2.38-1 5a48 48 0 0 1-6.09 3.69c-2.22 1.52-2.91 2.84-3.91 5.31h-6c-1-4-1-4-1.38-6-.62-2-.62-2-2.24-3.88-1.38-2.12-1.38-2.12-1.32-5.18.94-2.94.94-2.94 2.5-4.82 3.51-1.61 6.69-1.76 10.44-1.12" fill="#606464"/><path d="M533.77 121.71c5.54.5 8.6 4.34 12.23 8.3 1.96 3.18 3.5 6.26 4 10l-.47 1.87c-.87 3.48-.77 7.03-.85 10.6l-.06 2.47-.18 7.8-.13 5.3L548 181h-1l-.06-3.64-.26-13.44-.1-5.8-.17-8.37-.03-2.59c-.16-6.56-.63-12.62-4.44-18.16-3.46-2.35-5.44-2.8-9.55-2.54-7.58 1.71-13.46 8.21-18.99 13.32a276 276 0 0 1-8.34 7.31C503 149 503 149 500.63 151.7c-6.24 7-6.24 7-9.93 7.83A45 45 0 0 1 483 158q-3.2-.6-6.4-1.17-4.8-.87-9.6-1.83c3.03-2.6 3.6-3.02 7.81-2.8 2.75.44 5.2 1.11 7.88 1.92 3.41.9 4.99.86 8.31-.12l2.31-.56L495 153v-3c1.31-1.69 1.31-1.69 3-3h3c2.34-1.83 2.34-1.83 4.94-4.25l2.59-2.39q2.39-2.28 4.66-4.66C515 134 515 134 517 134l.65-1.77c1.8-2.98 3.94-4.13 6.91-5.92 7.24-4.39 7.24-4.39 9.21-4.6" fill="#E3E4E5"/><path d="M373 97c12.48.2 19.72 8.34 28.01 16.79L406 119l2.45 2.51 1.93 2.05 1.58 1.69c1.42 2.38 1.37 4.03 1.04 6.75l-2 2c-2.46-.22-3.65-.64-5.38-2.41l-1.24-1.79-1.4-1.98-1.42-2.07c-4.04-5.82-8.14-10.95-13.75-15.37C385 108 385 108 383 105l-3-1v-2a47 47 0 0 0-7-3z" fill="#09090A"/><path d="M467 254h1c.52 6.86.23 13.27-4 19q-1.99.56-4 1c-1.12 2.69-1.12 2.69-2 6l-2 6 16-2v-2h4v-2h2v-2h2v-2h2c-1.86 4.73-4.88 7-9.42 9.14-7.31 2.93-13.89 4.67-21.44 1.75-7.4-3.73-11.86-8.01-16.02-15.08-1.56-5.3-1.36-10.32-1.12-15.81h1l.04 1.69c.46 7.31 2.78 12.4 8.21 17.37 4.73 1.62 9.16.95 13.78-.85 4.03-2.1 5.97-4.22 7.97-8.21.73-3.11.73-3.11 1.19-6.31l.48-3.24z" fill="#E0CB69"/><path d="M391 220c7.09 2.75 11.17 7.85 14.25 14.62 2.81 7.41 2.92 15.06-.25 22.38h-1v-7h2c-.88-6.88-.88-6.88-2-8q-.06-3 0-6l-4-1v-7l-6 2v4h-2v12h-1l-.04-1.91c-.36-6.45-1.62-11.17-5.96-16.09-4.07-2.64-8.3-2.16-13-2 6.17-6.34 10.2-6.98 19-6" fill="#DBCE65"/><path d="M362 242h1l.45 2.45c2.06 9.83 2.06 9.83 5.17 12.86 4.51 2.25 7.6 2.01 12.38.69 3.7-1.73 6.23-4.02 9-7v5h-2v3h-3v2l3 1v2h10v-2h3v2c-6.68 3.93-11.96 6.97-20 6-6.28-1.98-11.75-5.41-15.29-11.06-3-5.88-3.82-10.38-3.71-16.94" fill="#F7DE64"/><path d="m555 484 2 2-2.31 2.19c-2.69 2.81-2.69 2.81-4.25 5.5C549 496 549 496 547.1 496.92c-3.01 1.55-4.51 3.88-6.54 6.52-1.56 1.56-1.56 1.56-3.47 2.03-2.92.74-4.4 2.36-6.59 4.41a74 74 0 0 1-6.73 5.74c-2.13 1.66-2.41 2.76-2.77 5.38h-3c-1.9 1.21-1.9 1.21-3.94 2.81l-2.02 1.58L510 527l-2.1 1.55c-1.9 1.45-1.9 1.45-4.34 3.89A77 77 0 0 1 496 539l-2-1c4.51-5.65 9.46-10.16 15.11-14.65a178 178 0 0 0 8.39-7.35c3.45-3.18 6.95-6.21 10.62-9.12 6-4.82 11.52-10.12 17.04-15.47l2.12-2.03 1.88-1.83A23 23 0 0 1 555 484" fill="#EDEEEF"/><path d="M843 404c3.52 1.76 4.41 5.89 5.94 9.38l1.05 2.3c4.77 10.77 6.46 20.23 6.2 32.01l-.04 3.6q-.06 4.36-.15 8.71h-1l-.15-2.67-.23-3.52-.21-3.48c-.39-3.15-1.2-5.42-2.41-8.33-.16-2.06-.16-2.06-.06-4a32 32 0 0 0-.94-9l-3 1h-3c-2.19 1.5-2.19 1.5-4 3l.46-3.31c.66-5.22.88-10.44 1.1-15.69l.13-2.93zm3 16c-.93 3.01-1.04 3.87 0 7l2-1c.62-2.56.62-2.56 1-5z" fill="#D9DAD8"/><path d="M895 464c2.8 4.97 2.84 9.9 1.36 15.38q-.8 2.3-1.64 4.57c-.72 2.05-.72 2.05-1.16 4.99a36 36 0 0 1-2.56 8c-1.69 4.06-2.42 7.69-3 12.06q-1.05 2.46-2.17 4.91c-2.44 6.13-3.89 12.5-3.83 19.09l-1 1q-.34 2.02-.56 4.06L880 542h-2c-.7-14.17 3.1-26.89 7.44-40.25A288 288 0 0 0 894 469z" fill="#DDDEE0"/><path d="M554 483c3.05.22 5.98.55 9 1 18.41 2.56 36.48 3.52 55.06 3.69l7.9.1q9.52.12 19.04.21v1h-33v2q-4.93.05-9.88.06l-2.78.03c-5.46.02-10.78-.24-16.21-.87-2.13-.22-2.13-.22-5.57-.22-2.56 0-2.56 0-5.56-1h-2.38c-3.73 0-6.78-.66-10.24-2.06C557 486 557 486 554 486l-2-1z" fill="#D0D1D1"/><path d="m435 142 1.64 1.09 2.17 1.41 2.15 1.41C443 147 443 147 446 147c6.29.8 6.29.8 9 1.56 4.7 1.03 9.37.56 14-.56l3 4c-2 2-2 2-5.38 2.25-4.5-.11-8.82-.94-13.24-1.75-5.06-.75-10.12-.9-15.23-1.06-3.15-.44-3.15-.44-5.08-1.73C432 148 432 148 432 144z" fill="#E5E5E6"/><path d="M798 582c2.03 3.05 2.67 4.42 3 8q-.95 3.51-2 7l.06 2.5c-.07 2.9-1.06 4.89-2.27 7.49a35 35 0 0 0-1.79 6.89c-1.86 10.11-4.6 18.78-13 25.12 1.4-4.42 3.1-8.59 5-12.81a71 71 0 0 0 5-16.19l1.44-6.12A653 653 0 0 0 798 582" fill="#E1E1E2"/><path d="M364 107h3c1.95 8.91.96 17.54-.25 26.5l-.33 2.68-.37 2.54-.32 2.28c-.96 2.63-2.41 3.52-4.73 5-.24-8.66.51-17.09 1.5-25.69l.43-3.89z" fill="#0E0F0E"/><path d="m611.05 630.4 15.25.2q14.85.18 29.7.4v1l-31.8.4-14.77.17c-22.14.27-44.28.52-66.43.43l1-2c22.36-1.35 44.67-.93 67.05-.6" fill="#E2E4E3"/><path d="M697 569c4.41.5 7.09 1.4 10.62 4.06a230 230 0 0 0 11.5 7.94c8.65 5.8 15.43 10.37 17.88 21 .28 3.37.26 6.63 0 10h-1l-.31-3.75c-.44-3.63-1.34-5.41-3.69-8.25l-.38-2.38c-.94-3.96-2.7-5.76-5.62-8.62-2.69-.19-2.69-.19-5 0-2-3-2-3-3-5q-2.24-1.44-4.56-2.75c-5.97-3.5-11.62-7.25-16.44-12.25" fill="#EAEAEB"/><path d="m652 258 1.81.5c2.19.5 2.19.5 5.19.5l4 2h3l3 1c3.55.81 5.95 1.01 9.56.38 4.13-.45 5.09.36 8.44 2.62l3.75 1.06 3.25.94 1 2c-6.89.25-13.34-.7-20.12-1.88l-3.21-.52c-5.05-.86-9.87-1.76-14.67-3.6v-2l-6 1z" fill="#E1E1E4"/><path d="M890 407h3l.59 2.16.79 2.9.82 3.06q.92 3.27 1.92 6.5c2.19 8.41 2.18 17.24 2.5 25.88a370 370 0 0 1 .29 7.03l.13 3.11C900 460 900 460 899 461q-.55 3.5-1 7h-2l.06-2.62c.34-16.11.59-31.56-3.52-47.28-.94-3.68-1.73-7.39-2.54-11.1" fill="#EDEEF1"/><path d="M548 144c3.25 3.48 3.36 6.03 3.33 10.71l-.02 3.96-.03 2.06q-.04 3.1-.05 6.19c-.04 6.14-.32 12-1.23 18.08q.03 4.27.26 8.55c-.31 2.95-1.13 3.52-3.26 5.45-.07-12.55.13-25.08.5-37.62l.14-5.11z" fill="#F3F5F3"/><path d="m564 242 1.71 1.39c5.09 3.57 11.15 4.82 17.29 4.61h4l2 3h-2v2c-9.13.79-17.3-1.58-26-4 0-3.52.82-4.37 3-7" fill="#F1F0F4"/><path d="M533.9 121.52c5.4.83 8.5 4.57 12.1 8.48 1.96 3.18 3.5 6.26 4 10l-.48 1.87c-.86 3.48-.77 7.04-.84 10.61l-.06 2.47-.19 7.8-.13 5.3L548 181h-1l-.06-3.64-.26-13.44-.1-5.8a1168 1168 0 0 0-.2-10.97c-.16-6.49-.66-12.54-4.32-18.09-4.46-3-8.8-2.96-14.06-3.06 1.7-3.03 2.4-3.9 5.9-4.48" fill="#BCBEBB"/><path d="M628 254c6.63 1.78 6.63 1.78 8.94 3.12 2.71 1.15 5.19.97 8.09.88 2.42 0 4.63.41 6.97 1v2h5v2l3 1a3449 3449 0 0 1-43-5v-1l3.81-.31c2.79-.34 3.93-.49 6.19-2.25z" fill="#E2E2E5"/><path d="m376 559 1 2c-5.57 11.14-16.26 21.43-27.8 26.14-3.62.97-6.35.86-10.08.48l-3.49-.33L333 587v-1l2.13.03c11.02-.33 20.6-4.69 28.87-12.03q2.1-2.41 4.06-4.94l1.98-2.52L372 564z" fill="#DDDFE1"/><path d="M585 450c.59 1.86.59 1.86 1 4-2.07 3.32-4.74 5.68-7.69 8.19-5.16 4.4-11.24 9.68-14.31 15.81h-2l-1 5-6-1 2-2h3v-4h2v-2c1.36-1.3 1.36-1.3 3.19-2.75a42 42 0 0 0 6.62-6.63L574 462h2l.77-1.73a33 33 0 0 1 4.85-6.52z" fill="#040605"/><path d="M843 404c3.18 1.59 3.88 4.46 5.24 7.64 1.01 3.12.84 5.28-.24 8.36l-2 1 .31 3.75c.02 2.2.02 2.2-.31 4.25-2.5 2.5-2.5 2.5-5 4l.46-3.31c.66-5.22.88-10.44 1.1-15.69l.13-2.93z" fill="#CACBC8"/><path d="M404 344h1l.08 2.32c.47 9 2.45 17.06 4.92 25.68a92 92 0 0 1 2 9l-2 2-2.21-6.64q-.9-2.66-1.85-5.3a99 99 0 0 1-2.48-10.79C403 358 403 358 402 355q-.06-3 0-6h1z" fill="#DFDFDF"/><path d="m457 474 3 1-1.84 2.57-1.21 1.7-2.68 3.74-7.06 9.93-1.34 1.91-2.56 3.62c-1.93 2.72-3.83 5.28-6.31 7.53l-1-2 1.44-1.75c1.56-2.25 1.56-2.25 1.94-4.19.96-3.17 3.25-4.8 5.62-7.06 3.87-4.41 3.87-4.41 4.44-7 .88-3.15 3.23-4.79 5.56-7z" fill="#DFE2E5"/><path d="M612 489h33l-1 4-1.67-.5a31 31 0 0 0-7.58-.5c-7.61.08-15.16-.46-22.75-1z" fill="#F3F6F4"/><path d="M405 546c-.55 4.23-3.12 7.08-5.69 10.31l-1.36 1.74A270 270 0 0 1 388 570l-3-1h2l.75-2.19c1.37-3.08 3.11-5.22 5.25-7.81l1.62-2.81L396 554h2l.81-2.31c1.38-3.12 2.53-5.69 6.19-5.69" fill="#EAEBED"/><path d="M385 328c4.41.67 8.27 2.27 12.31 4.06L404 335v16c-3-3-3-3-3.29-5.7l.1-2.99.08-3.01.11-2.3-1.72-.48A39 39 0 0 1 385 329z" fill="#E6E7E8"/><path d="M434 256h1l.04 1.69c.39 6.15 1.93 10.58 5.96 15.31 2.81 1.88 2.81 1.88 5 3v2h-2v2l3 1-1 3c-5.94-4.42-9.79-8.82-12-16a71 71 0 0 1 0-12" fill="#D9C667"/><path d="M357 147h1c1.08 8.68.76 16.61-.44 25.25l-.44 3.45L356 184h-1c-1.95-6.79-1.97-12.12-.58-19.04.55-2.8.89-5.55 1.14-8.4.3-3.24.7-6.38 1.44-9.56" fill="#DDDFE1"/><path d="M996.4 548.14c3.12 1.04 4.86 2.46 7.28 4.68.4.34.4.34 2.33 2.08 3.23 3.42 4.26 5.97 4.17 10.67l-.02 2.3C1010 570 1010 570 1009 573h-2l.21-2.38c.5-9.66.5-9.66-2.59-13.62-3.82-3.75-8.6-5.4-13.62-7 3-2 3-2 5.4-1.86" fill="#DADADF"/><path d="M364 107h3c1.73 7.61 1.36 15.36 0 23h-1l-.38-2.81C365 124 365 124 363 121c.02-3.36.02-3.36.38-7.19l.33-3.85z" fill="#121312"/><path d="M834 529h1l1 31c-3-2-3-2-3.51-4.11-1.47-22.09-1.47-22.09 1.51-26.89" fill="#F2F3F6"/><path d="M739 279a264 264 0 0 1 18 7l3.94 1.69L764 289l-1 2c-4.86-.62-9.17-2.04-13.69-3.88l-2.01-.77c-6.22-2.5-6.22-2.5-8.3-5.35z" fill="#E7E8E9"/><path d="m462 565 2 1c-1.14 3.41-2.34 4.64-5 7l-2 .94c-2.76 1.47-4.13 3.58-6 6.06l-3 3-2 2.69-2 2.31h-3a40 40 0 0 1 7.23-9.43l2.43-2.41 2.53-2.47 2.56-2.54z" fill="#EEF0EF"/><path d="m451 473 3 4-2.5 1.44c-4.61 3.03-7.97 7.37-11.5 11.56l-2-2c3-5.89 6.9-11.95 13-15" fill="#EBEEEF"/><path d="M840 505h2l-.8 3.11A268 268 0 0 0 836 532c-2.49-3.73-2.42-6.68-2-11q.91-3.03 2-6l.44-3.12c.6-3.1 1.39-4.62 3.56-6.88" fill="#E3E5E8"/><path d="M836 556h1l.7 2.71c2.05 7.59 4.44 14.43 8.3 21.29l-2 2v-4l-1.87-.76c-2.49-1.45-3.08-2.46-4.25-5.05l-1-2.16L836 568l-1.25-2.81C834 563 834 563 834 560h2z" fill="#E8EAED"/><path d="M854 447h1l.12 8.06.06 2.28c.04 4.95-.6 8.96-2.18 13.66h-2c-1.19-2.75-1.19-2.75-2-6 1.38-2.38 1.38-2.38 3-4l-1-2c.41-4.34 1.2-8.03 3-12" fill="#F0F2F4"/><path d="m734 603 2 1q.07 2.84.12 5.69l.08 3.2c-.26 4.03-1.12 6.9-3.82 9.92L731 624l-3-1c1-2.7 1.99-4.99 3.62-7.38 1.76-3.35 1.52-5.88 1.38-9.62z" fill="#EFEFF1"/><path d="m482 276 2 4h-2l-2 6h-6v2l-10 2v-3l2.2-.7c12.81-4.32 12.81-4.32 15.8-10.3" fill="#1F1309"/><path d="m555.83 482.99 2.2.32 2.44.33 2.53.36q2.4.28 4.82.54l7.22.8 5.96.66v1c-7.7 1.88-14.05 3-21.62-.06C557 486 557 486 554 486l-2-1c2-2 2-2 3.83-2.01" fill="#E0E0E2"/><path d="M354 179h1c.39 6.07-.97 10.75-3 16.44l-.87 2.5q-1.05 3.04-2.13 6.06h-2c-.55-5.25 1.03-8.88 3.05-13.6 1.1-2.77 1.52-5.46 1.95-8.4z" fill="#EBEBEE"/><path d="M469 235v1h-17l1 4-1.83.37-2.42.51-2.39.49A28 28 0 0 0 440 244c6.75-9.9 17.81-11.89 29-9" fill="#CCBB75"/><path d="m435 142 8 6-1 2c-6.05.2-6.05.2-8 0l-2-2v-4z" fill="#EEF0F0"/><path d="M734 623c-1.39 4.43-3.48 6.99-7 10h-3l-2-2 4.31-4 2.43-2.25C731 623 731 623 734 623" fill="#070808"/><path d="M727 587c5.79 3.95 8.3 8.19 10 15 .28 3.37.26 6.63 0 10h-1l-.31-3.75c-.44-3.63-1.34-5.41-3.69-8.25l-.44-2.44c-.72-3.28-2.46-4.98-4.56-7.56z" fill="#DBDADC"/><path d="M480 245c4.52 3.92 5.83 7.65 6.27 13.58l-.02 3.67.02 3.7C486 269 486 269 484 271v-15h-2v-8h-2z" fill="#E6D06E"/><path d="M606 254c6.35-.21 12.03-.34 18 2l1 2-6.69.12-3.76.08A20 20 0 0 1 606 256z" fill="#EDEEEF"/><path d="M386 222c5.75-.12 5.75-.12 8 1v3h-2v2h-2v2c-1.88-.31-1.88-.31-4-1l-2-3z" fill="#EEE260"/><path d="m564 242 1.88 1.44A19 19 0 0 0 570 246v2l2 1c-1 1-1 1-4.88 1.25-3.82-.03-3.82-.03-6.12-1.75l-1-1.5z" fill="#F6F4F8"/><path d="m361 658-3.4.99-4.54 1.32-2.35.69c-4.09 1.2-8.13 2.45-12.15 3.88C335 666 335 666 333 665c23.2-10.2 23.2-10.2 28-7" fill="#E7E7EB"/><path d="M398 262h3v2c-6.64 3.91-12 7.04-20 6a49 49 0 0 1-7-3l4-1v2l5.94-.44 3.34-.24C390 267 390 267 391 266q2.5-.06 5 0v-2h2z" fill="#DACB7A"/><path d="M362 242h1l.45 2.45c2.05 9.8 2.05 9.8 5.67 12.36 2.88 2.19 2.88 2.19 3.76 6L373 266c-6.02-4.38-8.67-9-11-16-.13-2.67-.04-5.32 0-8" fill="#C3C080"/><path d="m438 486 1 2a35 35 0 0 1-8 12c-2.81.38-2.81.38-5 0z" fill="#E2E7E9"/><path d="M798 582c2.01 3.02 2.67 4.46 3 8-1.03 4.12-2.7 7.44-5 11-1.56-4.02-.46-7.7.44-11.75l.44-2.11z" fill="#DDDFE1"/><path d="m365 633 21 1-2 3c-3.08.36-3.08.36-6.81.31l-3.71-.01c-3.27-.28-5.54-.9-8.48-2.3z" fill="#ECEEED"/><path d="m312 547 2 1-.94 3.25c-1.39 5.51-1.7 11.1-2.06 16.75-2.08-3.89-3.22-7.56-3-12a56 56 0 0 1 4-9" fill="#F0F2F0"/><path d="M339 266h1l.3 1.87a53 53 0 0 0 4.99 15.32L346 285l-1 2c-3.57-3.07-5.98-6.38-7-11a66 66 0 0 1 1-10" fill="#D7D8D7"/><path d="m652 258 1.81.5c2.19.5 2.19.5 5.19.5l4 2h3l2 3-3.81.06-2.15.04C660 264 660 264 657 263v-2l-6 1z" fill="#F4F3F6"/><path d="m417 529 2 2-5.88 7.38-1.68 2.11-1.62 2.03-1.49 1.88C407 546 407 546 405 548c.45-4.94 2.99-8.02 6-11.75l1.41-1.79c3.29-4.16 3.29-4.16 4.59-5.46" fill="#DCDFE1"/><path d="M696 267q3.01.7 5.99 1.53c2.01.47 2.01.47 5.01.47l2 2-1 2-5.69-.94-3.2-.52A252 252 0 0 1 691 270l1.94-.94C695 268 695 268 696 267" fill="#E0E0E4"/><path d="m893 562 2.38.81c4.51 1.48 9.06 2.84 13.62 4.19v2c-6.93.77-11.9-1.91-18-5z" fill="#DDDEE0"/><path d="M476.96 152.47c2.92.76 5.43 2.03 8.04 3.53v1c-6.28.23-11.88-.6-18-2 3.47-2.98 5.37-3.3 9.96-2.53" fill="#EAEAEE"/><path d="m384 570 4 1c-3.6 4.94-7.14 8.02-13 10h-4v-2l2.08-.7c7.45-2.7 7.45-2.7 10.04-6.05z" fill="#E3E5E5"/><path d="M452 236h8l1 7c-4.31-1.08-7.64-2.04-11-5h2z" fill="#E8D376"/><path d="M726 675h22v1l-11 1-1 3h-5v-3l-5-1z" fill="#C1BEC3"/><path d="M910 566h18v2c-3.76 1.25-7.27 1.11-11.19 1.06l-2.27-.01L909 569z" fill="#EBEAEF"/><path d="M881 523h1l.06 4.94.04 2.77C882 533 882 533 881 534q-.34 2.02-.56 4.06L880 542h-2c-.31-7.1-.45-12.68 3-19" fill="#DFE0E2"/><path d="M371 260h12l-3 1v3h-4v2h-3z" fill="#F5EA6D"/><path d="M897 612h21c-3.59 3.59-9.12 2.97-14 3a33 33 0 0 1-7-2z" fill="#F1F2F5"/><path d="m366 136 2 1c-.54 4.56-1.79 7.97-4 12h-4v-8l2 4c2.69-2.69 3.06-5.38 4-9" fill="#1C1D1F"/><path d="M441 586c1 2 1 2 .38 4.44-1.69 3.14-3.26 3.93-6.38 5.56q-2.02 1.47-4 3l-2-1z" fill="#E2E3E2"/><path d="m385 221-1 4-12 1c4.22-5.28 6.61-5.54 13-5" fill="#E3D587"/><path d="M804 556c.97 3.12.99 5.52.56 8.75l-.31 2.42L804 569h-2l-1 2q-.12-2.9-.19-5.81l-.1-3.27c.29-2.92.29-2.92 1.8-4.81z" fill="#F2F1F4"/><path d="M645 490c1.91 2.86 3 5.35 4.19 8.56l1.1 2.94c.71 2.5.71 2.5-.29 4.5a25 25 0 0 1-7-11c.75-3 .75-3 2-5" fill="#D8D9D8"/><path d="M408 520c2.12.38 2.12.38 4 1l-2.38 1.69c-2.74 2.42-3.64 3.84-4.62 7.31v3h-3c0-3.14.48-4.33 1.88-7.06l1.05-2.1C406 522 406 522 408 520" fill="#F0F4F5"/><path d="M467 254h1c.52 6.86.23 13.27-4 19-2.14.75-2.14.75-4 1v2h-5l1.69-1.25L459 273l2.62-1.81c4.9-4.51 4.85-10.91 5.38-17.19" fill="#D4BF72"/><path d="m335 665 2 2-1.75.88A37 37 0 0 0 329 672c-.5 3.31-.5 3.31 0 6-1.94-.31-1.94-.31-4-1l-1-3 5.08-5.27c1.89-1.7 3.6-2.71 5.92-3.73" fill="#CED0D1"/><path d="M895 436h1v23l-2 1a94 94 0 0 1-1-5l1-1q.07-4.25 0-8.5t0-8.5z" fill="#030504"/><path d="m403 423 2 2c-.14 2.13-.14 2.13-.69 4.56l-.51 2.44-.8 2-3 1c-.88-2.47-1.13-3.64-.22-6.14l1.16-2.11 1.15-2.14z" fill="#18181A"/><path d="M434 256h1l.19 3.94c.57 5.47 2.88 9.49 5.81 14.06l-4 1c-3.45-6.32-3.31-11.9-3-19" fill="#BDB47C"/><path d="M677 263v3l2 1-16-2v-1c5.2-2.21 8.58-1.93 14-1" fill="#D4D4D6"/><path d="M547 185h3q.12 2.66.19 5.31l.1 2.99C550 196 550 196 547 199z" fill="#F7F6F5"/><path d="m426 500 4 1-8 9-2-1c.47-4.25 2.77-6.37 6-9" fill="#E8ECEC"/><path d="M404 230h2c2.45 4.74 2.23 9.12 2.12 14.31l-.02 2.54-.1 6.15h-1l-.15-2.63-.23-3.49-.21-3.45c-.41-3.39-1.31-6.21-2.41-9.43z" fill="#150A04"/><path d="M352 583v3c-4.59 1.83-7.97 2.13-12.88 1.62l-3.49-.33L333 587v-1l2.45-.15 3.24-.23 3.2-.21c3.53-.47 6.62-2.41 10.11-2.41" fill="#D3D4D4"/><path d="M994 548c-3.64 2.42-5.86 2.39-10.19 2.62l-3.85.23-2.96.15 1-3c5.5-1.3 10.47-.71 16 0" fill="#EDECEE"/><path d="M444 278h9l1 4c-2.52.9-3.61 1.16-6.12.12L446 281l-2-1z" fill="#F5DB57"/><path d="M464 246h2v2h2v3h2v-4h2v5h-2l-1 4c-3.44-2.66-4-5.9-5-10" fill="#E9CA60"/><path d="M465 148c2.38.31 2.38.31 5 1l2 3-2 2h-4v-2l-3-1z" fill="#F5F3F9"/><path d="M484 265c.97 5.37.97 5.37 1 8-1.44 2-1.44 2-3 3v-5h-2v-5c2-1 2-1 4-1" fill="#ECD15B"/><path d="M652 259v2h5v2l3 1-18-2c4.22-3.16 5.06-3.34 10-3" fill="#CAC9CC"/><path d="M587 251c2.88-.12 2.88-.12 6 0 2 2 2 2 2 4l-13-1v-1h5z" fill="#D8D7DB"/><path d="M364 107h1c2.67 10.37 2.67 10.37 0 16l-2-2c.02-3.26.02-3.26.38-7.12l.33-3.89z" fill="#1D1E20"/><path d="M1007 557c3.39 4.52 3.39 4.52 3.25 8.56l-.05 2.32c-.2 2.12-.2 2.12-1.2 5.12h-2z" fill="#ECECEC"/><path d="M475 283c0 3 0 3-1 5-2.29.63-2.29.63-5.06 1.12l-2.79.51-2.15.37v-3z" fill="#2B1C09"/><path d="M712.88 270.88 716 272q2 .54 4 1l-1 2-10-1-1-3c2-1 2-1 4.88-.12" fill="#EBEAEE"/><path d="M340 253h1v11l2 1-3 4c-1.08-3.25-1.13-5.71-1.12-9.12l-.01-3.26C339 254 339 254 340 253" fill="#181919"/><path d="m364 172 6 1v2h-2l-1 3c-2.06 1.19-2.06 1.19-4 2z" fill="#191D1E"/><path d="M836 556h1l3 13h-2c-4-5.29-4-5.29-4-9h2z" fill="#DEE0E2"/><path d="m852 430 2 1c1 3.01 1.1 5.04 1.06 8.19l-.02 2.73L855 444c-2.92-3.55-3.29-5.38-3-10z" fill="#F5F7F6"/><path d="M844 407c2.83 2.83 3.38 3.38 4 7h-2v5l-2 1z" fill="#EDEFED"/><path d="M570 246c2.94.75 2.94.75 6 2l1 4-10-1 4-2z" fill="#ECEBED"/><path d="M358 139h2l.06 5.19.04 2.92c-.1 2.75-.48 5.21-1.1 7.89h-1l-.56-7.44-.17-2.14q-.19-2.7-.27-5.42z" fill="#EFEDF1"/><path d="M416 129c4.14 3.38 7.81 6.67 11 11-3 0-3 0-4.79-1.39l-1.83-1.86-1.86-1.83A11 11 0 0 1 416 129" fill="#E0E2DF"/><path d="m828 484 1 2a99 99 0 0 1-3 6l-1 2h-2c.88-6.75.88-6.75 2-9z" fill="#E7E7E7"/><path d="m677 262 7 1v4l-7-1z" fill="#F5F6F9"/><path d="M460 236h4v4h-2v2h2l-1 4c-2.35-2.55-2.98-3.71-3.19-7.25z" fill="#F3DB6D"/><path d="M474 234v2h2v3l-2.06-.88A108 108 0 0 0 464 235c3.58-2.34 5.92-1.93 10-1" fill="#251C09"/><path d="M542 129c2.29 1.79 2.97 2.9 3.75 5.75.28 3.58-.12 6.72-.75 10.25l-2-1 1-10h-2z" fill="#21211F"/><path d="m328 586 14 1v2c-5.13 1.82-9.18-.14-14-2z" fill="#F0F0F0"/><path d="M453 571h2c-1.41 3.22-3.1 5.32-5.62 7.75l-1.92 1.86L446 582l-1-3a89 89 0 0 1 4-4h2z" fill="#272A27"/><path d="m884 553 6 6 3 2v2c-4.26-.47-6.33-2.81-9-6z" fill="#EDEDF0"/><path d="M486 258h1c1.7 12.67 1.7 12.67-2 18h-2l.94-2.81c1.44-4.97 1.71-10.05 2.06-15.19" fill="#2E2310"/><path d="M389 251h1v5h-2v2c-3.4 2.09-6.05 2.18-10 2 3-2 3-2 5.5-3.38 2.53-1.64 3.81-3.16 5.5-5.62" fill="#D5C470"/><path d="M553 245c3.67.71 6.7 2.28 10 4-4.52 1.46-7.52.27-12-1z" fill="#D3D3D6"/><path d="M973 596c-1 3-1 3-3.81 4.75-3.15 1.24-4.16 1.53-7.19.25 3.27-2.67 6.65-5 11-5" fill="#D8D9D8"/><path d="M393 439h2a70 70 0 0 1-5 12c-.98-3.06-1.13-4.97 0-8 1.44-2.25 1.44-2.25 3-4" fill="#DCDCE0"/><path d="m402 339 2 1v11c-3-3-3-3-3.25-6.56C401 341 401 341 402 339" fill="#F2F4F3"/><path d="M360 308c3.8 1.49 5.61 3.76 8 7-4 0-4 0-6.25-1.81C360 311 360 311 360 308" fill="#DBDCDC"/><path d="M800 574h1l1 11h-3l-.06-4.38-.04-2.46c.1-2.16.1-2.16 1.1-4.16" fill="#EFF0F3"/><path d="M842 496h2c-.35 5.46-.35 5.46-1 8-2.06 1.5-2.06 1.5-4 2 0-3.87 1.42-6.51 3-10" fill="#EBEDF1"/><path d="m444 481 2 2-6 7-2-2c1.8-3.26 2.83-4.89 6-7" fill="#F0F5F7"/><path d="M457 464h2a32 32 0 0 1-6 9c-2.13.64-2.13.64-4 1l2.88-3.88 1.61-2.17C455 466 455 466 457 464" fill="#DBDDDF"/><path d="m843 430 3 4-2 4h-3c.88-6.88.88-6.88 2-8" fill="#F4F6F4"/><path d="m844 423 2 1c.31 2.25.31 2.25 0 5-2.5 2.31-2.5 2.31-5 4 .75-7.75.75-7.75 3-10" fill="#DDDEDA"/><path d="m399 264 2 3c-4.1 2.99-6.98 3.3-12 3a81 81 0 0 1 9-5z" fill="#251A0A"/><path d="M482 240h4l1 7-3 1c-1.76-3.09-2-4.23-2-8" fill="#120C1C"/><path d="M795 677v1h-5v2c-4.34.17-7.21.13-11-2a107 107 0 0 1 16-1" fill="#E2E2E3"/><path d="M342 602h2v12l-2-1c-.45-2.25-.45-2.25-.69-5l-.26-2.75L341 603z" fill="#EDEFEE"/><path d="m366 567 2 3-6 7-2-2 4-2-1-4z" fill="#161819"/><path d="M447 282h5v2h4v2c-1.69.69-1.69.69-4 1-2.75-1.31-2.75-1.31-5-3z" fill="#E7D372"/><path d="M546 137h3c1.16 3.48.77 5.14.06 8.69l-.59 3.01-.47 2.3h-1z" fill="#DCDEDB"/><path d="m363 137 2 1c.25 2.31.25 2.31 0 5-2 1.81-2 1.81-4 3-.12-3.38-.12-3.38 0-7z" fill="#070709"/><path d="m534.19 121.75 2.8.25v3l-9 1c1.84-3.24 2.37-3.95 6.2-4.25" fill="#F2F2F6"/><path d="m726 623 4 2-7 5-2-2z" fill="#DADBDB"/><path d="m945 608-8 4-3-2c3.48-3.48 6.37-3.16 11-2" fill="#E7E8E9"/><path d="M982 550q2.43-.08 4.88-.12l2.74-.08c2.38.2 2.38.2 4.38 2.2-3.2 1.07-4.89.95-8.19.56L981 552z" fill="#232325"/><path d="M816 514c.93 2.61 1.15 3.64.06 6.25L815 522h-2l-1 2c.62-6.52.62-6.52 2.56-8.94z" fill="#ECEDED"/><path d="M574 487h9v2c-2.71 1.35-5.01 1.07-8 1z" fill="#F4F5F6"/><path d="M819 332c1.81.19 1.81.19 4 1a17 17 0 0 1 3 5l-1 3-3-3.38-1.69-1.89C819 334 819 334 819 332" fill="#DCDEDF"/><path d="M388 230h2v2h2v14h-1l-.15-1.98c-.42-4.95-1.01-9.35-2.85-14.02" fill="#B6AB6B"/><path d="m544 228 2 1-2 8h-2c-.12-3.38-.12-3.38 0-7z" fill="#F5F3F5"/><path d="M543 218a28 28 0 0 1 3 10l-4 2z" fill="#D7D7D8"/><path d="M362 147c2 2 2 2 2.12 4.62L364 154l-4 1v-6h2z" fill="#0A080A"/><path d="m444 147 3 1v3h-12v-1l3.38-.38C442 149 442 149 444 147" fill="#CECFCF"/><path d="M403 111c1.5 1.31 1.5 1.31 3 3v3l1 2c-2.87-1.29-4.98-2.57-7-5v-2z" fill="#EDEBEF"/><path d="m403 627-1 3-7 1v-2c3.09-1.76 4.23-2 8-2" fill="#E7E7EA"/><path d="m469 559 2 1-6 7-2-1c1.39-3.37 2.98-4.99 6-7" fill="#E1E2E4"/><path d="M817 506c2 3 2 3 3 6l-6 4z" fill="#DBDCDC"/><path d="M855 460h1q.04 2.68.06 5.38l.04 3.02c-.1 2.6-.1 2.6-1.1 4.6h-2z" fill="#222425"/><path d="M732 278c2.94.12 2.94.12 6 1l3 4-11-3z" fill="#D2D2D4"/><path d="m454 240-2 4h-4v-2l-4-1c3.21-1.61 6.44-1.06 10-1" fill="#241E17"/><path d="M388 216h4v2h2v2l-11-1v-1h5z" fill="#0D0A04"/><path d="M780 641h1c.37 3.94.3 5.57-2 8.88l-2 2.12c-1-3-1-3-.22-5.04l1.16-2.15 1.15-2.17z" fill="#ADACB2"/><path d="m734 603 2 1v8l-3-1z" fill="#F4F4F4"/><path d="M734 598h2c.94 3.16 1.11 5.97 1.06 9.25l-.02 2.7L737 612h-1l-.68-6.15C735 604 735 604 734 603q-.06-2.5 0-5" fill="#B2B1B3"/><path d="m359 582 3 1-2.38 1.88C357 587 357 587 355 589l-3-1q1.64-1.54 3.31-3.06l1.87-1.73z" fill="#DCDCDE"/><path d="M314 574c2.5 2.31 2.5 2.31 5 5v3c-3.16-1.37-3.99-1.99-6-5z" fill="#D7D7D9"/><path d="M802 550h2c.2 6.05.2 6.05 0 8l-2 2a18 18 0 0 1 0-10" fill="#D0D0D0"/><path d="M847 409h2l4 9h-3c-3-5.62-3-5.62-3-9" fill="#0C0E0D"/><path d="M734 612h2l-1 8-4-4c1.38-2 1.38-2 3-4" fill="#DEDFE2"/><path d="M935 610c-1 1.62-1 1.62-3 3-2.82-.35-5.27-1.15-8-2v-1c7.43-1.29 7.43-1.29 11 0" fill="#DADADC"/><path d="M804 544c2.43 3.64 2.16 5.71 2 10l-2 1c-1.12-7.62-1.12-7.62 0-11" fill="#E4E4E8"/><path d="M502 531c0 3 0 3-1.31 4.39L496 539l-2-1c2.39-3.24 4.2-5.51 8-7" fill="#F2F1F3"/><path d="M420 528h3a56 56 0 0 1-4 7l-3-1c1.81-3 1.81-3 4-6" fill="#191B1D"/><path d="m438 486 1 2-7 8-2-1z" fill="#D2D4D7"/><path d="M368 484c1 4 1 4-.44 6.75L366 493l-3-1z" fill="#E8E7EC"/><path d="M388 447h1q-.39 3.51-1 7l-2 1-2-2q1.96-3.03 4-6" fill="#EDEDF0"/><path d="M447 148c2.88-.19 2.88-.19 6 0l2 3h-8z" fill="#F6F7F9"/><path d="M691 563c4.25.47 6.2 2.97 9 6-3.67-.31-4.78-.76-7.31-3.56z" fill="#DFE1E0"/><path d="M1000 551a19 19 0 0 1 7 5l-1 3q-1.5-1.42-3-2.88l-1.69-1.61C1000 553 1000 553 1000 551" fill="#E1E1E4"/><path d="M409 372c2.14 3.22 2.68 5.19 3 9l-2 2c-1.28-3.85-1.07-6.95-1-11" fill="#D4D4D6"/><path d="m835 349 7 2-1 2-9-1z" fill="#D5D6D8"/><path d="m379 323 8 4-3 2c-2.5-1.31-2.5-1.31-5-3z" fill="#DCDEDD"/><path d="M456 276v4h-3v-2h-7v-1c3.44-.62 6.49-1 10-1" fill="#F0D973"/><path d="m473.75 152.31 2.25.7v3l-9-1c2.45-2.29 3.34-3.09 6.75-2.7" fill="#CECDD2"/><path d="M797 597h2c.2 3.72.15 4.77-2 8h-2a60 60 0 0 1 2-8" fill="#F0F3F6"/><path d="M437 592c-1.39 3.37-2.98 4.99-6 7l-2-1q1.42-1.5 2.88-3l1.61-1.69C435 592 435 592 437 592" fill="#D5D8D5"/><path d="m384 570 4 1-5 6-2-2z" fill="#D7D8DB"/><path d="M397 558c.75 1.75.75 1.75 1 4-1.94 2.25-1.94 2.25-4 4l-2-2z" fill="#202121"/><path d="m405 352 7 1c-4.75 4-4.75 4-7 4z" fill="#1F2121"/><path d="m773 294 2.38 1.44q2.26 1.36 4.62 2.56v2c-4.75-.88-4.75-.88-7-2z" fill="#E9E8E9"/><path d="M477 240h3v2h2l2 3-1 4z" fill="#2D1706"/><path d="M386 222h2v8l-4-4z" fill="#E7DD6F"/><path d="M345 218h1l.56 4.38.32 2.46C347 227 347 227 346 229h-2z" fill="#262628"/><path d="M544 197h1v8l-3-1v-5h2z" fill="#080705"/><path d="m359 158 3 1 1 5-4 1z" fill="#060707"/><path d="M796 592h2c.69 1.69.69 1.69 1 4-1.44 2.75-1.44 2.75-3 5-1.11-3.33-.84-5.62 0-9" fill="#CED0D2"/><path d="M981 594a29 29 0 0 1-9 5c2.18-4.84 3.79-5.14 9-5" fill="#E7E8E7"/><path d="m880 548 4 1v7c-2.15-2.62-3.4-4.64-4-8" fill="#E1E1E4"/><path d="m482 549 2 1-6 5v-4c1.88-1.06 1.88-1.06 4-2" fill="#EFF2F0"/><path d="M647 505c1.88.19 1.88.19 4 1a23 23 0 0 1 2 5l-2 2z" fill="#E8E9E6"/><path d="m864 368 5 2v4a107 107 0 0 1-5-4z" fill="#D6D7D9"/><path d="m696 267 4 2v2l-9-1 4-2z" fill="#CED0D1"/><path d="M368 256c3.79 1 6.72 1.81 10 4-2.75.25-2.75.25-6 0-2.38-2-2.38-2-4-4" fill="#312D16"/><path d="M454 241c3.69.5 5.6 1.1 8 4l-2 1v-2h-6z" fill="#271A10"/><path d="m553 241 3 3c-3.75 3-3.75 3-6 3 1.88-4.88 1.88-4.88 3-6" fill="#F6F4F9"/><path d="M446 234h9c-2.99 1.49-5.9 2.79-9 4z" fill="#231B0A"/><path d="M537 123a55 55 0 0 1 5 3v2l-10-2v-1h5z" fill="#CECED1"/><path d="m368 103 2 1c.19 2.38.19 2.38 0 5l-3 2c-.12-5.75-.12-5.75 1-8" fill="#191C1A"/><path d="M381 95v2h-9c3.04-3.04 4.94-3.35 9-2" fill="#EEEFF1"/><path d="m350 588 3 2a89 89 0 0 1-4 4h-2c1.88-4.88 1.88-4.88 3-6" fill="#EDEFEE"/><path d="m910 566 10 2v1h-11z" fill="#F4F4F7"/><path d="M944 561v3l-7 1v-2c2.65-1.46 3.89-2 7-2" fill="#EDEDF1"/><path d="m485 544 2 3c-2.38 1.56-2.38 1.56-5 3l-2-1z" fill="#DFE2DF"/><path d="M843 500h2c.25 2.25.25 2.25 0 5-2 2.31-2 2.31-4 4z" fill="#222428"/><path d="M540 496c2.31.19 2.31.19 4 1h-2v2c-2.38 1.69-2.38 1.69-5 3l-2-1c2.25-2.56 2.25-2.56 5-5" fill="#E2E4E5"/><path d="M462 472h2c-.31 1.94-.31 1.94-1 4l-3 1-1 2-2-1q2.43-3.06 5-6" fill="#181A1C"/><path d="M377 468c.93 2.61 1.15 3.64.06 6.25L376 476h-2c.55-3.37 1.05-5.08 3-8" fill="#EBEBEE"/><path d="M895 464c1.88 3.77 2.22 5.03 2 9h-3z" fill="#C2C4C5"/><path d="M836 457c1 3 1 3 .06 5.19L835 464h-2c.38-2.94.38-2.94 1-6z" fill="#DADBDC"/><path d="M625 257v1h-8v-2c3.4-1.22 4.93-.86 8 1" fill="#F4F4F9"/><path d="m553 249 10 1v1c-3.31.69-3.31.69-7 1z" fill="#08090A"/><path d="m479 243 2 2-1 3h2l-1 3-3-1z" fill="#EACE4C"/><path d="M350 198h2c.19 2.88.19 2.88 0 6l-3 2z" fill="#262427"/><path d="m504 147 3 1v2l-1.94.38-2.06.62-1 2-2-2z" fill="#161719"/><path d="m527 125 3 2-8 4-1-2z" fill="#E4E5E6"/></svg>