<svg style="background:transparent" version="1.1" xmlns="http://www.w3.org/2000/svg" viewBox="0 0 1248 704"><path d="M305.15 219.33q2.04 1.56 4.01 3.17c1.84 1.5 1.84 1.5 4.9 3.37a31 31 0 0 1 6.13 5.76c5.63 6.53 11.75 12.56 17.94 18.55q2.34 2.28 4.64 4.6c5.72 5.24 10.51 6.17 18.22 6.38C364 261 364 261 367 260q2.52 1.13 5.03 2.3c3.33 1.18 6.46.81 9.97.7q2 .47 4 1 2.2.29 4.44.5c4.3.45 8.41 1.24 12.62 2.2 3.3.34 4.27.2 6.94-1.7q2.56-2.44 5-5a1179 1179 0 0 1 7.72-7.72C431 244 431 244 433.74 241.3c2.26-2.3 2.26-2.3 3.96-4.43A20.5 20.5 0 0 1 450 232c4.82 2.1 8.04 5.74 11 10 1.36 3.82 1.53 7.98 2 12l.28 2.13c.67 5.23.77 10.32.66 15.58.06 2.3.06 2.3 1.06 4.3q.1 3.08.06 6.17l-.02 3.75-.08 7.86-.02 3.76-.04 3.46c.08 2.55.4 4.56 1.1 7v2l2.31.36c2.7.63 2.7.63 5.7 2.63l.11-1.8c.88-2.2.88-2.2 3.94-3.95L481 306l2 2c2.67-.28 4.25-1.16 6.56-2.56C492 304 492 304 495 304c2.44-.13 2.44-.13 5-1 2.31-3.06 2.31-3.06 4-6l2.12 1.12c6.35 1.93 13.3-3.27 18.87-6.2A66 66 0 0 1 538 287c2.08-1.19 2.08-1.19 3.81-2.44 3.77-2.5 7.42-3.7 11.8-4.79 2.76-.89 4.91-2.26 7.4-3.77q2.9-1.27 5.86-2.44a70 70 0 0 0 10.07-4.8c2.94-1.69 4.8-2.14 8.06-2.76 3.04-1.24 6.02-2.62 9-4a96 96 0 0 1 14-5q2.5-.96 5-2a245 245 0 0 1 21-7q3-.98 6-2c5.75-1.96 11.4-3.29 17.36-4.47q6.18-1.2 12.33-2.59c3.75-.85 7.5-1.43 11.31-1.94l2.31-.5c4.2-.78 8.43-1.13 12.7-1.5l3.01-.29c15.8-1.33 32.4-1.96 47.98 1.3 3.6.73 7.18 1.32 10.81 1.86 4.3.71 8.06 1.68 12.06 3.35 2.7.98 5.4 1.58 8.2 2.22 5.03 1.21 8.53 2.87 12.93 5.56 2.53 1.08 5.1 2.07 7.65 3.07 5.16 2.04 9.77 4.75 14.42 7.74a82 82 0 0 0 7.96 4.15l2.03.98 2.04.96c1.9 1.1 1.9 1.1 3.26 2.65 2.06 1.82 2.97 1.78 5.67 1.67l2.38-.06 2.53-.1c10.03-.19 19.21.66 28.71 4.1 2.78 1 5.6 1.88 8.41 2.78 7.52 2.5 14.11 6.1 20.94 10.06.54.3.54.3 3.31 1.75a65 65 0 0 1 18.7 16.25q1.42 1.13 2.86 2.31c7.1 5.81 11.27 13.46 15.5 21.44q.67 1.23 1.34 2.51l1.25 2.41 1.12 2.16A32 32 0 0 1 943 343l.94 2.81a80 80 0 0 1 3.84 18.1c.18 1.73.47 3.44.78 5.15.55 3.7.5 7.2.44 10.94q0 2.58.03 5.16c.1 7.84-.47 15.21-2.49 22.8q-.87 3.34-1.6 6.73l-.5 2.27q-.51 2.42-.94 4.85c-.53 2.33-1.4 4.07-2.5 6.2l-.92 2.76a110 110 0 0 1-3.52 8.92c-2.07 4.9-3.64 9.76-4.94 14.91-.62 2.4-.62 2.4-1.75 5.6A47 47 0 0 0 928 471l-.2 2.6c-.37 9.02 2.4 15.85 7.2 23.4l1 3 6 5v2l1.72.33c2.6.76 4.5 1.9 6.78 3.36 3.72 2.3 7.46 4.27 11.44 6.12 6.71 3.3 14.81 7.77 18.31 14.65 1.48 5.01 2.56 10.2.81 15.23-5.14 5.76-10.14 10.92-18.2 11.45-2.63.05-5.23-.03-7.86-.14l-3.19-.09c-8.2-.4-14.59-2.27-21.89-5.96-1.92-.95-1.92-.95-5.1-2.2-9.72-4.14-17.46-11.39-24.82-18.75l-2.38-2.19c-14.19-15.2-19.63-35.92-19.75-56.19v-2.13c0-3.1.14-5.53 1.13-8.49l.44-2.75c1.68-9.75 5.51-18.75 9.57-27.7l1.05-2.32 2.15-4.74c1.73-3.84 3.12-7.3 3.8-11.49q.69-1.96 1.5-3.88c1.42-3.68 1.98-7.19 2.5-11.12l1-2.63c1.26-4.3 1.28-8.22 1.24-12.68l.02-2.44c-.02-7.49-1.24-14.38-4.27-21.25l-1.08-2.87c-2.5-6.42-5.04-11.28-9.92-16.13l-1.52-1.7c-6.06-6.56-13.99-12.4-22.48-15.3h-2c.42 4.03.88 7.61 2.06 11.5 1.1 4.08 1 7.28.94 11.5l.5 2.75c.58 3.74.62 7.4.6 11.17v2.24l-.04 7.03v4.75l-.05 8.7V389l-1 3.37c-1 3.63-1 3.63-1 6.2 0 2.43 0 2.43-.95 5.18a32 32 0 0 0-1.56 7.75c-.35 3.76-1.3 6.91-2.5 10.5q-.48 3.5-.76 7.04C857 431 857 431 856 433l.12 3.37c-.12 3.63-.12 3.63-1.56 5.5-2.12 2.88-2.04 5.34-2.32 8.84-.24 2.3-.24 2.3-1.24 5.73a43 43 0 0 0-1.5 8.62A44 44 0 0 1 847 476c-.76 3.98-1.38 8-2 12l-.56 3.14c-.45 2.93-.4 5.7-.34 8.65-.15 3.34-.95 6.5-1.66 9.75a33 33 0 0 0-.5 6.77c.05 3.2-.3 5.61-.94 8.7V532l-1 1q-.07 4.64.04 9.28c.04 3.73-.26 7.07-1.04 10.72l.62 2.31c.5 3.5-.59 5.57-1.93 8.77-.86 2.38-.76 4.41-.69 6.92l-.97 2.3c-1.09 2.86-1.36 5.15-1.53 8.2-.22 3.96-1 6.84-2.5 10.5-.35 2.28-.35 2.28-.5 4.5a30 30 0 0 1-2.5 9.5 157 157 0 0 0-.94 4.31c-.93 4.45-2.4 8.46-4.06 12.7l-.46 1.9c-.88 3.41-2.35 6.6-3.7 9.85C819 637 819 637 819 639l3.05.64q5.73 1.2 11.45 2.45l4.91 1.04c8.62 1.8 17.1 3.8 25.4 6.77l1.94.66c4.98 1.9 7.82 4.48 11.25 8.44.31 2.5.31 2.5-1 5-7.36 9.3-21.43 10.6-32.44 12.12l-3.56.5a406 406 0 0 1-33.7 2.75c-24.25 1.26-48.4.35-72.64-.6q-13.9-.54-27.8-1.04c-.47 0-.47 0-2.77-.1a2729 2729 0 0 0-71-1.68c-8.04-.09-16.06-.04-24.09.05l-4.89.04c-36.13.3-72.09 2.43-108.1 4.96l-3.55.24c-49.95 3.47-99.99 7.38-149.68 13.68a830 830 0 0 1-19.29 2.2l-2.42.24c-12.9 1.3-25.15 1.54-37.82-1.55l-2.46-.59c-6.65-1.8-14.89-5.28-18.79-11.22-.19-4.39.56-7.35 3-11-.1-2.09-.1-2.09-.5-4.38-.53-3.88-.4-6.1 1.5-9.62l1.25-2.88c4.41-7.87 9.51-12.03 17.87-15.37 4.62-.9 8.82-.63 13.5-.24 7.57-1.15 13.08-7.89 18.07-13.32l1.8-1.95c6.15-6.75 11.6-14 17.05-21.32 2.75-3.62 5.65-7.12 8.56-10.63 5.54-6.69 5.54-6.69 7.46-9.92A27 27 0 0 1 355 578l1.31-2.19a72 72 0 0 1 4.7-6.8 89 89 0 0 0 6-9q1.41-2.17 2.86-4.32 4.2-6.26 8.13-12.69l-1.46 1.31-1.92 1.7-1.9 1.68C371 549 371 549 369 549l-.69 2.2c-1.97 4.21-4.53 7.12-8.94 8.8-3.15 1.32-3.78 3.04-5.37 6-1.67 2.03-2.4 2.9-5 3.37-2.96.93-3.48 3.02-5 5.63a99 99 0 0 1-4 2 131 131 0 0 0-5 5q-1.19 1.17-2.44 2.37c-2.56 2.62-4.9 5.35-7.23 8.17C324 594 324 594 322 595a67 67 0 0 0-2.3 3.44c-2.24 3.21-3.86 4.48-7.7 5.56a15 15 0 0 0-6.8 5.25 143 143 0 0 1-11.76 11.94l-1.94 1.8a193 193 0 0 1-8.73 7.67 51 51 0 0 0-6.52 6.6c-3.05 3.63-3.05 3.63-5.25 4.74l-3 3a68 68 0 0 1-16 10l-2.56 1.2c-8.24 2.73-19.15 3.52-27.25.24-5.85-3.07-11.52-7-14.13-13.25A89 89 0 0 1 207 639l-.67-2.17c-1.7-7.72 1.95-13.84 5.5-20.49 2.12-3.26 2.8-3.92 6.17-5.34l1-2.03c1-1.97 1-1.97 2.81-2.95l2.2-.65 2.41-.72q5.12-1.28 10.32-2.22L239 602l2-.3c2.87-1 4.58-2.76 6.81-4.83l2.66-2.47c5-4.75 9.76-9.52 14.17-14.82A75 75 0 0 1 269 575c3.3-3.84 6.37-7.79 9.4-11.85q5.17-6.96 10.66-13.65c1.71-2.2 3.23-4.43 4.75-6.75 3.13-4.75 6.34-9.55 10.2-13.75h2l.77-2.69a28 28 0 0 1 4.72-8.25 258 258 0 0 0 9.37-13.37 453 453 0 0 1 11.82-17.04c2.27-3.13 4.35-6.3 6.31-9.65q1.46-2.24 2.94-4.44l1.57-2.35 3.68-5.46L349 463l1.81-2.63c1.2-2.37 1.2-2.37.88-4.68L351 454l-3.44-.3c-3.98-.5-7.5-1.6-11.27-2.95a59 59 0 0 0-6.98-1.75c-3.8-.79-6.88-2.16-10.3-4l-1.93-.46c-4.04-1.05-7.5-3.43-11.08-5.54l-2.68-1.57c-8.9-5.42-16.8-11.5-22.32-20.43l-2-1.44c-2.43-1.9-3.56-4.1-5-6.8-1.4-2.47-3.2-4.56-5-6.76-2.48-3.72-3.87-7.28-5.13-11.56l-1-3.38L262 384l-.6-2.03c-.54-2.66-.53-5.2-.53-7.9v-3.1c.12-2.77.54-5.27 1.13-7.97v-2.5c0-2.66.47-4.9 1-7.5l.44-4.44c.38-3.76 1.36-6.97 2.56-10.56q.06-3 0-6l1-3 .44-2.69c.52-3.09 1.25-6.09 2.03-9.13.76-3.12 1.35-6.27 1.96-9.43.62-3.02 1.38-6 2.13-9 1.61-6.9 2.07-13.69 2.44-20.75l.56-7c.26-3.1.44-6.13.43-9.25.01-2.5.4-4.35 1.01-6.75v-2.44c0-2.56 0-2.56.47-4.82.8-4.13.92-8.29 1.15-12.49.76-6.55 2.94-12 7.82-16.5 5.73-3.92 11.91-3 17.71.58M385 533l-5 5 1 3 5-5z" fill="#111412"/><path d="M305.15 219.33q2.04 1.56 4.01 3.17c1.84 1.5 1.84 1.5 4.9 3.37a31 31 0 0 1 6.13 5.76c5.63 6.53 11.75 12.56 17.94 18.55q2.34 2.28 4.64 4.6c5.72 5.24 10.51 6.17 18.22 6.38C364 261 364 261 367 260q2.52 1.13 5.03 2.3c3.33 1.18 6.46.81 9.97.7q2 .47 4 1 2.2.29 4.44.5c4.3.45 8.41 1.24 12.62 2.2 3.3.34 4.27.2 6.94-1.7q2.56-2.44 5-5a1179 1179 0 0 1 7.72-7.72C431 244 431 244 433.74 241.3c2.26-2.3 2.26-2.3 3.96-4.43A20.5 20.5 0 0 1 450 232c4.82 2.1 8.04 5.74 11 10 1.36 3.82 1.53 7.98 2 12l.28 2.13c.67 5.23.77 10.32.66 15.58.06 2.3.06 2.3 1.06 4.3q.1 3.08.06 6.17l-.02 3.75-.08 7.86-.02 3.76-.04 3.46c.08 2.55.4 4.56 1.1 7v2l2.31.36c2.7.63 2.7.63 5.7 2.63l.11-1.8c.88-2.2.88-2.2 3.94-3.95L481 306l2 2c2.67-.28 4.25-1.16 6.56-2.56C492 304 492 304 495 304c2.44-.13 2.44-.13 5-1 2.31-3.06 2.31-3.06 4-6l2.12 1.12c6.35 1.93 13.3-3.27 18.87-6.2A66 66 0 0 1 538 287c2.08-1.19 2.08-1.19 3.81-2.44 3.77-2.5 7.42-3.7 11.8-4.79 2.76-.89 4.91-2.26 7.4-3.77q2.9-1.27 5.86-2.44a70 70 0 0 0 10.07-4.8c2.94-1.69 4.8-2.14 8.06-2.76 3.04-1.24 6.02-2.62 9-4a96 96 0 0 1 14-5q2.5-.96 5-2a245 245 0 0 1 21-7q3-.98 6-2c5.75-1.96 11.4-3.29 17.36-4.47q6.18-1.2 12.33-2.59c3.75-.85 7.5-1.43 11.31-1.94l2.31-.5c4.2-.78 8.43-1.13 12.7-1.5l3.01-.29c15.8-1.33 32.4-1.96 47.98 1.3 3.6.73 7.18 1.32 10.81 1.86 4.3.71 8.06 1.68 12.06 3.35 2.7.98 5.4 1.58 8.2 2.22 5.03 1.21 8.53 2.87 12.93 5.56 2.53 1.08 5.1 2.07 7.65 3.07 5.16 2.04 9.77 4.75 14.42 7.74a82 82 0 0 0 7.96 4.15l2.03.98 2.04.96c1.9 1.1 1.9 1.1 3.26 2.65 2.06 1.82 2.97 1.78 5.67 1.67l2.38-.06 2.53-.1c10.03-.19 19.21.66 28.71 4.1 2.78 1 5.6 1.88 8.41 2.78 7.52 2.5 14.11 6.1 20.94 10.06.54.3.54.3 3.31 1.75a65 65 0 0 1 18.7 16.25q1.42 1.13 2.86 2.31c7.1 5.81 11.27 13.46 15.5 21.44q.67 1.23 1.34 2.51l1.25 2.41 1.12 2.16A32 32 0 0 1 943 343l.94 2.81a80 80 0 0 1 3.84 18.1c.18 1.73.47 3.44.78 5.15.55 3.7.5 7.2.44 10.94q0 2.58.03 5.16c.1 7.84-.47 15.21-2.49 22.8q-.87 3.34-1.6 6.73l-.5 2.27q-.51 2.42-.94 4.85c-.53 2.33-1.4 4.07-2.5 6.2l-.92 2.76a110 110 0 0 1-3.52 8.92c-2.07 4.9-3.64 9.76-4.94 14.91-.62 2.4-.62 2.4-1.75 5.6A47 47 0 0 0 928 471l-.2 2.6c-.37 9.02 2.4 15.85 7.2 23.4l1 3 6 5v2l1.72.33c2.6.76 4.5 1.9 6.78 3.36 3.72 2.3 7.46 4.27 11.44 6.12 6.71 3.3 14.81 7.77 18.31 14.65 1.48 5.01 2.56 10.2.81 15.23-5.14 5.76-10.14 10.92-18.2 11.45-2.63.05-5.23-.03-7.86-.14l-3.19-.09c-8.2-.4-14.59-2.27-21.89-5.96-1.92-.95-1.92-.95-5.1-2.2-9.72-4.14-17.46-11.39-24.82-18.75l-2.38-2.19c-14.19-15.2-19.63-35.92-19.75-56.19v-2.13c0-3.1.14-5.53 1.13-8.49l.44-2.75c1.68-9.75 5.51-18.75 9.57-27.7l1.05-2.32 2.15-4.74c1.73-3.84 3.12-7.3 3.8-11.49q.69-1.96 1.5-3.88c1.42-3.68 1.98-7.19 2.5-11.12l1-2.63c1.26-4.3 1.28-8.22 1.24-12.68l.02-2.44c-.02-7.49-1.24-14.38-4.27-21.25l-1.08-2.87c-2.5-6.42-5.04-11.28-9.92-16.13l-1.52-1.7c-6.06-6.56-13.99-12.4-22.48-15.3h-2c.42 4.03.88 7.61 2.06 11.5 1.1 4.08 1 7.28.94 11.5l.5 2.75c.58 3.74.62 7.4.6 11.17v2.24l-.04 7.03v4.75l-.05 8.7V389l-1 3.37c-1 3.63-1 3.63-1 6.2 0 2.43 0 2.43-.95 5.18a32 32 0 0 0-1.56 7.75c-.35 3.76-1.3 6.91-2.5 10.5q-.48 3.5-.76 7.04C857 431 857 431 856 433l.12 3.37c-.12 3.63-.12 3.63-1.56 5.5-2.12 2.88-2.04 5.34-2.32 8.84-.24 2.3-.24 2.3-1.24 5.73a43 43 0 0 0-1.5 8.62A44 44 0 0 1 847 476c-.76 3.98-1.38 8-2 12l-.56 3.14c-.45 2.93-.4 5.7-.34 8.65-.15 3.34-.95 6.5-1.66 9.75a33 33 0 0 0-.5 6.77c.05 3.2-.3 5.61-.94 8.7V532l-1 1q-.07 4.64.04 9.28c.04 3.73-.26 7.07-1.04 10.72l.62 2.31c.5 3.5-.59 5.57-1.93 8.77-.86 2.38-.76 4.41-.69 6.92l-.97 2.3c-1.09 2.86-1.36 5.15-1.53 8.2-.22 3.96-1 6.84-2.5 10.5-.35 2.28-.35 2.28-.5 4.5a30 30 0 0 1-2.5 9.5 157 157 0 0 0-.94 4.31c-.93 4.45-2.4 8.46-4.06 12.7l-.46 1.9c-.88 3.41-2.35 6.6-3.7 9.85C819 637 819 637 819 639l3.05.64q5.73 1.2 11.45 2.45l4.91 1.04c8.62 1.8 17.1 3.8 25.4 6.77l1.94.66c4.98 1.9 7.82 4.48 11.25 8.44.31 2.5.31 2.5-1 5-7.36 9.3-21.43 10.6-32.44 12.12l-3.56.5a406 406 0 0 1-33.7 2.75c-24.25 1.26-48.4.35-72.64-.6q-13.9-.54-27.8-1.04c-.47 0-.47 0-2.77-.1a2729 2729 0 0 0-71-1.68c-8.04-.09-16.06-.04-24.09.05l-4.89.04c-36.13.3-72.09 2.43-108.1 4.96l-3.55.24c-49.95 3.47-99.99 7.38-149.68 13.68a830 830 0 0 1-19.29 2.2l-2.42.24c-12.9 1.3-25.15 1.54-37.82-1.55l-2.46-.59c-6.65-1.8-14.89-5.28-18.79-11.22-.19-4.39.56-7.35 3-11-.1-2.09-.1-2.09-.5-4.38-.53-3.88-.4-6.1 1.5-9.62l1.25-2.88c4.41-7.87 9.51-12.03 17.87-15.37 4.62-.9 8.82-.63 13.5-.24 7.57-1.15 13.08-7.89 18.07-13.32l1.8-1.95c6.15-6.75 11.6-14 17.05-21.32 2.75-3.62 5.65-7.12 8.56-10.63 5.54-6.69 5.54-6.69 7.46-9.92A27 27 0 0 1 355 578l1.31-2.19a72 72 0 0 1 4.7-6.8 89 89 0 0 0 6-9q1.41-2.17 2.86-4.32 4.2-6.26 8.13-12.69l-1.46 1.31-1.92 1.7-1.9 1.68C371 549 371 549 369 549l-.69 2.2c-1.97 4.21-4.53 7.12-8.94 8.8-3.15 1.32-3.78 3.04-5.37 6-1.67 2.03-2.4 2.9-5 3.37-2.96.93-3.48 3.02-5 5.63a99 99 0 0 1-4 2 131 131 0 0 0-5 5q-1.19 1.17-2.44 2.37c-2.56 2.62-4.9 5.35-7.23 8.17C324 594 324 594 322 595a67 67 0 0 0-2.3 3.44c-2.24 3.21-3.86 4.48-7.7 5.56a15 15 0 0 0-6.8 5.25 143 143 0 0 1-11.76 11.94l-1.94 1.8a193 193 0 0 1-8.73 7.67 51 51 0 0 0-6.52 6.6c-3.05 3.63-3.05 3.63-5.25 4.74l-3 3a68 68 0 0 1-16 10l-2.56 1.2c-8.24 2.73-19.15 3.52-27.25.24-5.85-3.07-11.52-7-14.13-13.25A89 89 0 0 1 207 639l-.67-2.17c-1.7-7.72 1.95-13.84 5.5-20.49 2.12-3.26 2.8-3.92 6.17-5.34l1-2.03c1-1.97 1-1.97 2.81-2.95l2.2-.65 2.41-.72q5.12-1.28 10.32-2.22L239 602l2-.3c2.87-1 4.58-2.76 6.81-4.83l2.66-2.47c5-4.75 9.76-9.52 14.17-14.82A75 75 0 0 1 269 575c3.3-3.84 6.37-7.79 9.4-11.85q5.17-6.96 10.66-13.65c1.71-2.2 3.23-4.43 4.75-6.75 3.13-4.75 6.34-9.55 10.2-13.75h2l.77-2.69a28 28 0 0 1 4.72-8.25 258 258 0 0 0 9.37-13.37 453 453 0 0 1 11.82-17.04c2.27-3.13 4.35-6.3 6.31-9.65q1.46-2.24 2.94-4.44l1.57-2.35 3.68-5.46L349 463l1.81-2.63c1.2-2.37 1.2-2.37.88-4.68L351 454l-3.44-.3c-3.98-.5-7.5-1.6-11.27-2.95a59 59 0 0 0-6.98-1.75c-3.8-.79-6.88-2.16-10.3-4l-1.93-.46c-4.04-1.05-7.5-3.43-11.08-5.54l-2.68-1.57c-8.9-5.42-16.8-11.5-22.32-20.43l-2-1.44c-2.43-1.9-3.56-4.1-5-6.8-1.4-2.47-3.2-4.56-5-6.76-2.48-3.72-3.87-7.28-5.13-11.56l-1-3.38L262 384l-.6-2.03c-.54-2.66-.53-5.2-.53-7.9v-3.1c.12-2.77.54-5.27 1.13-7.97v-2.5c0-2.66.47-4.9 1-7.5l.44-4.44c.38-3.76 1.36-6.97 2.56-10.56q.06-3 0-6l1-3 .44-2.69c.52-3.09 1.25-6.09 2.03-9.13.76-3.12 1.35-6.27 1.96-9.43.62-3.02 1.38-6 2.13-9 1.61-6.9 2.07-13.69 2.44-20.75l.56-7c.26-3.1.44-6.13.43-9.25.01-2.5.4-4.35 1.01-6.75v-2.44c0-2.56 0-2.56.47-4.82.8-4.13.92-8.29 1.15-12.49.76-6.55 2.94-12 7.82-16.5 5.73-3.92 11.91-3 17.71.58m-16.96 1.61c-5.07 7.1-5.79 15.23-6.5 23.71q-.14 1.66-.32 3.34-.48 5.26-.93 10.51c-3.82 42.33-3.82 42.33-7.25 55.12-4.93 19.66-8.6 39.44-8.69 59.75l-.02 3.46c.3 19.3 12.58 34.92 26 47.95 18.96 16.65 44.3 26.6 69.52 26.22l-12.37 18.55-1.1 1.66q-2.91 4.35-5.8 8.71c-6.66 9.96-6.66 9.96-9.63 14.46A1187 1187 0 0 1 310 525l-1.67 2.36a788 788 0 0 1-23.69 31.54l-4.65 6A313 313 0 0 1 263 585a368 368 0 0 0-3.69 4.2l-1.7 1.92a126 126 0 0 0-3.13 3.8c-6.2 7.7-11.7 9.25-21.26 10.53-8.16 1.38-14.14 5.03-19.22 11.55-4 6.38-5.63 12.43-5 20 1.94 6.7 5.15 11.22 11 15 8.13 4.43 18.53 4.47 27.38 2.08 15.72-6.23 27.02-18.39 38.68-30.17 3.5-3.52 7.06-6.89 10.84-10.1 2.78-2.4 5.47-4.88 8.16-7.37l1.66-1.54 9.17-8.54c11.75-11 11.75-11 17.22-15.73a284 284 0 0 0 17.08-15.85 100 100 0 0 1 5.5-4.96 226 226 0 0 0 12.81-12.32c4.7-4.79 9.45-9.4 14.54-13.77 3.3-2.92 6.37-6.04 9.46-9.17l1.91-1.93 4.6-4.63a553 553 0 0 1-13.57 20.7q-.82 1.17-1.65 2.4-4.5 6.58-9.3 12.93c-2.58 3.41-5.06 6.88-7.55 10.34l-1.7 2.35-8.52 11.85a911 911 0 0 1-24.33 32.5 240 240 0 0 1-18.89 21.74l-1.75 1.76c-5.56 5.47-9.47 7.76-17.44 7.8-8.57.3-14.45 2.52-21.19 7.94-5.29 6.7-6.8 12-6.5 20.63.81 6.55 4.27 10.58 9.31 14.64 11.51 7.88 22.51 8.37 36.07 7.42a37 37 0 0 0 11-4l2.86-1.44c7.72-4.17 14.08-9.5 20.63-15.26 2.17-1.88 4.43-3.65 6.7-5.43a232 232 0 0 0 12.24-10.59c2.63-2.34 5.33-4.57 8.07-6.78 4.46-3.6 8.73-7.39 12.97-11.26 2.58-2.29 5.22-4.46 7.9-6.62 5.15-4.16 10-8.57 14.85-13.06q4.34-3.98 8.8-7.82 3.45-3.05 6.85-6.18c4.13-3.74 8.4-7.23 12.8-10.64A96 96 0 0 0 445 587c13.65-13.83 13.65-13.83 18.12-17.56 5.23-4.44 9.72-9.65 14.32-14.72q3.08-3.4 6.17-6.77l4.11-4.49L490 541l1.3-1.57c2.3-1.94 4.25-2.2 7.2-2.76l3.4-.66 3.66-.7a323 323 0 0 0 55.15-16.4q3.98-1.57 7.97-3.1c14.53-5.6 28.9-11.53 43.26-17.56a4129 4129 0 0 1 40.61-16.88l4.87-1.99q3.35-1.38 6.7-2.73l2-.82c2.8-1.13 4.82-1.83 7.88-1.83l.55 2.67.76 3.64.74 3.55c8.54 38.5 26.67 69.24 54.58 96.73 12.93 12.9 18.12 25.54 18.37 43.41l-1.87.08c-8.1.54-14.98 2.14-20.57 8.36-4.25 5.21-5.02 10.26-4.87 16.84.5 4.3 1.6 6.31 4.31 9.72 4.08 2.97 7.95 4.33 12.75 5.81 5.63 1.77 10.12 4.37 14.97 7.7 5.33 3.48 11.2 2.71 17.34 2.74l3.32.06c11.8.06 20.53-2.36 29.03-10.7 4.56-4.86 6.7-10 8.9-16.24l1.14-3.13c6.3-17.63 12.16-35.56 16.04-53.89q.82-3.75 1.7-7.5c3.1-13.68 4.8-27.07 5.67-41.06q.54-8.52 1.18-17.03l.24-3.37c2.14-29.2 7.33-57.59 14.12-86.05a480 480 0 0 0 5.41-26.28l.6-3.3q.82-4.88 1.6-9.76c.08-.59.08-.59.56-3.55a172 172 0 0 0 1.7-26.4q-.02-3.27 0-6.56c.01-11.52-1.23-22.5-4.33-33.62l-1.04-3.75A155 155 0 0 0 855 317a90 90 0 0 1 29 16l2.6 2.08c10.52 9.42 17.6 25.9 18.4 39.92q.14 1.62.26 3.28c.91 20.2-7.59 38.72-15.15 57.02-10.12 24.65-12.5 47-2.8 72.01 9.72 21.84 27.14 36.43 49.05 45 10.64 3.53 23.92 5.3 34.51.7 4.5-2.77 6.76-5.94 8.13-11 .91-3.89.83-6.6-1.23-10.08-5.23-6.5-12.09-10.04-19.4-13.8C943 510.2 932.24 501.63 926 485c-4.15-17.02 3.48-33.92 9.3-49.63A280 280 0 0 0 943 411l.6-2.18c7.16-27.89 2.56-59.56-11.56-84.45A90 90 0 0 0 923 312l-1.76-2.19c-16.78-20.19-45.4-33.77-71.24-36.8q-2.32-.05-4.65 0c-12.18.06-19.53-1.75-29.4-8.7-21.38-14.38-48.44-23.5-73.95-26.3l-3.06-.35c-35.77-3.18-71.93 2.1-105.94 13.34l-3.02.98A656 656 0 0 0 587 267.75l-2 .81A561 561 0 0 0 559 280l-8.23 3.77-2.15 1-18.32 8.35-12.33 5.64C480.5 315.9 480.5 315.9 461 319l.01-1.97q.07-10.27.1-20.54l.04-7.64c.16-24.44.16-24.44-1-35.33l-.23-2.14c-.7-5.59-2.28-9.12-5.92-13.38-3.5-2.34-4.87-2.43-9-2-9.99 5.06-17.76 14.62-25.25 22.76-8.85 9.56-8.85 9.56-13.04 11.05a27 27 0 0 1-6.7-.8q-3.27-.43-6.53-.82-3.65-.52-7.29-1.07c-14.66-2.18-14.66-2.18-21.04-2.45-12.59-.53-19.25-3.82-28.15-12.67l-3.13-2.96a120 120 0 0 1-10.56-11.29c-6.82-8.1-17.4-18.08-28.19-19.13-3.29.07-4.08.35-6.93 2.32M385 533l-5 5 1 3 5-5z" fill="#EEEFEE"/><path d="M299 219c7.61 2.66 12.81 8.17 18.52 13.64a103 103 0 0 0 4.63 3.97 48 48 0 0 1 6.29 6.27c3.36 3.91 6.76 7.62 10.56 11.12l2.37 2.23c8.68 7.39 16.42 8.46 27.57 9.21l4.71.4 6.9.59c5.52.44 10.92 1.19 16.36 2.19 10.74 1.33 10.74 1.33 15.34-1.9a98 98 0 0 0 2.96-3.16l1.64-1.7q2.57-2.69 5.09-5.42c18.88-20.08 18.88-20.08 26.18-20.71 3.82.36 5.22 1.53 7.88 4.27 2.72 4.57 3.68 8.83 4.18 14.05l.24 2.36c.89 9.56.8 19.12.7 28.71l-.02 5.54q-.03 6.67-.1 13.34h-2l1 3c.23 3.81.17 7.62.16 11.43v3.5c-.08 11.9-.7 23.73-1.54 35.6q-.37 5.35-.67 10.69c-.78 11.85-2.02 22.51-6.62 33.52A35 35 0 0 0 449 410h-2l-.44 1.75L445 418h-2l-.81 1.75A33 33 0 0 1 438 426h-2v2c-5.48 5-5.48 5-8 5v2c-2.91 2.04-4.4 3-8 3v2c-16.36 8.78-37.49 12.32-56 11l-3-1-1 2c-12.82-1.5-24.86-3.56-37-8l-3.16-1.12c-19.37-7.4-35.36-21.72-46.59-38.94l-1.14-1.75c-13.71-21.63-7.12-51.55-2.11-75.19q.83-3.37 1.71-6.73c5.93-22.54 7.62-45.15 9.51-68.32 2.07-24.81 2.07-24.81 6.78-30.95 3.76-2.51 6.65-2.59 11-2" fill="#101212"/><path d="M305.15 219.33q2.04 1.56 4.01 3.17c1.84 1.5 1.84 1.5 4.9 3.37a31 31 0 0 1 6.13 5.76c5.63 6.53 11.75 12.56 17.94 18.55q2.34 2.28 4.64 4.6c5.72 5.24 10.51 6.17 18.22 6.38C364 261 364 261 367 260q2.52 1.13 5.03 2.3c3.33 1.18 6.46.81 9.97.7q2 .47 4 1 2.2.29 4.44.5c4.3.45 8.41 1.24 12.62 2.2 3.3.34 4.27.2 6.94-1.7q2.56-2.44 5-5a1179 1179 0 0 1 7.72-7.72C431 244 431 244 433.74 241.3c2.26-2.3 2.26-2.3 3.96-4.43A20.5 20.5 0 0 1 450 232c4.82 2.1 8.04 5.74 11 10 1.36 3.82 1.53 7.98 2 12l.28 2.13c.67 5.23.77 10.32.66 15.58.06 2.3.06 2.3 1.06 4.3q.1 3.08.06 6.17l-.02 3.75-.08 7.86-.02 3.76-.04 3.46c.08 2.55.4 4.56 1.1 7v2l2.31.36c2.7.63 2.7.63 5.7 2.63l.11-1.8c.88-2.2.88-2.2 3.94-3.95L481 306l2 2c2.67-.28 4.25-1.16 6.56-2.56C492 304 492 304 495 304c2.44-.13 2.44-.13 5-1 2.31-3.06 2.31-3.06 4-6l2.12 1.12c6.35 1.93 13.3-3.27 18.87-6.2A66 66 0 0 1 538 287c2.08-1.19 2.08-1.19 3.81-2.44 3.77-2.5 7.42-3.7 11.8-4.79 2.76-.89 4.91-2.26 7.4-3.77q2.9-1.27 5.86-2.44a70 70 0 0 0 10.07-4.8c2.94-1.69 4.8-2.14 8.06-2.76 3.04-1.24 6.02-2.62 9-4a96 96 0 0 1 14-5q2.5-.96 5-2a245 245 0 0 1 21-7q3-.98 6-2c5.75-1.96 11.4-3.29 17.36-4.47q6.18-1.2 12.33-2.59c3.75-.85 7.5-1.43 11.31-1.94l2.31-.5c4.2-.78 8.43-1.13 12.7-1.5l3.01-.29c15.8-1.33 32.4-1.96 47.98 1.3 3.6.73 7.18 1.32 10.81 1.86 4.3.71 8.06 1.68 12.06 3.35 2.7.98 5.4 1.58 8.2 2.22 5.03 1.21 8.53 2.87 12.93 5.56 2.53 1.08 5.1 2.07 7.65 3.07 5.16 2.04 9.77 4.75 14.42 7.74a82 82 0 0 0 7.96 4.15l2.03.98 2.04.96c1.9 1.1 1.9 1.1 3.26 2.65 2.06 1.82 2.97 1.78 5.67 1.67l2.38-.06 2.53-.1c10.03-.19 19.21.66 28.71 4.1 2.78 1 5.6 1.88 8.41 2.78 7.52 2.5 14.11 6.1 20.94 10.06.54.3.54.3 3.31 1.75a65 65 0 0 1 18.7 16.25q1.42 1.13 2.86 2.31c7.1 5.81 11.27 13.46 15.5 21.44q.67 1.23 1.34 2.51l1.25 2.41 1.12 2.16A32 32 0 0 1 943 343l.94 2.81a80 80 0 0 1 3.84 18.1c.18 1.73.47 3.44.78 5.15.55 3.7.5 7.2.44 10.94q0 2.58.03 5.16c.1 7.84-.47 15.21-2.49 22.8q-.87 3.34-1.6 6.73l-.5 2.27q-.51 2.42-.94 4.85c-.53 2.33-1.4 4.07-2.5 6.2l-.92 2.76a110 110 0 0 1-3.52 8.92c-2.07 4.9-3.64 9.76-4.94 14.91-.62 2.4-.62 2.4-1.75 5.6A47 47 0 0 0 928 471l-.2 2.6c-.37 9.02 2.4 15.85 7.2 23.4l1 3 6 5v2l1.72.33c2.6.76 4.5 1.9 6.78 3.36 3.72 2.3 7.46 4.27 11.44 6.12 6.71 3.3 14.81 7.77 18.31 14.65 1.48 5.01 2.56 10.2.81 15.23-5.14 5.76-10.14 10.92-18.2 11.45-2.63.05-5.23-.03-7.86-.14l-3.19-.09c-8.2-.4-14.59-2.27-21.89-5.96-1.92-.95-1.92-.95-5.1-2.2-9.72-4.14-17.46-11.39-24.82-18.75l-2.38-2.19c-14.19-15.2-19.63-35.92-19.75-56.19v-2.13c0-3.1.14-5.53 1.13-8.49l.44-2.75c1.68-9.75 5.51-18.75 9.57-27.7l1.05-2.32 2.15-4.74c1.73-3.84 3.12-7.3 3.8-11.49q.69-1.96 1.5-3.88c1.42-3.68 1.98-7.19 2.5-11.12l1-2.63c1.26-4.3 1.28-8.22 1.24-12.68l.02-2.44c-.02-7.49-1.24-14.38-4.27-21.25l-1.08-2.87c-2.5-6.42-5.04-11.28-9.92-16.13l-1.52-1.7c-6.06-6.56-13.99-12.4-22.48-15.3h-2c.42 4.03.88 7.61 2.06 11.5 1.1 4.08 1 7.28.94 11.5l.5 2.75c.58 3.74.62 7.4.6 11.17v2.24l-.04 7.03v4.75l-.05 8.7V389l-1 3.37c-1 3.63-1 3.63-1 6.2 0 2.43 0 2.43-.95 5.18a32 32 0 0 0-1.56 7.75c-.35 3.76-1.3 6.91-2.5 10.5q-.48 3.5-.76 7.04C857 431 857 431 856 433l.12 3.37c-.12 3.63-.12 3.63-1.56 5.5-2.12 2.88-2.04 5.34-2.32 8.84-.24 2.3-.24 2.3-1.24 5.73a43 43 0 0 0-1.5 8.62A44 44 0 0 1 847 476c-.76 3.98-1.38 8-2 12l-.56 3.14c-.45 2.93-.4 5.7-.34 8.65-.15 3.34-.95 6.5-1.66 9.75a33 33 0 0 0-.5 6.77c.05 3.2-.3 5.61-.94 8.7V532l-1 1q-.07 4.64.04 9.28c.04 3.73-.26 7.07-1.04 10.72l.62 2.31c.5 3.5-.59 5.57-1.93 8.77-.86 2.38-.76 4.41-.69 6.92l-.97 2.3c-1.09 2.86-1.36 5.15-1.53 8.2-.22 3.96-1 6.84-2.5 10.5-.35 2.28-.35 2.28-.5 4.5a30 30 0 0 1-2.5 9.5 157 157 0 0 0-.94 4.31c-.93 4.45-2.4 8.46-4.06 12.7l-.46 1.9c-.88 3.41-2.35 6.6-3.7 9.85C819 637 819 637 819 639l3.05.64q5.73 1.2 11.45 2.45l4.91 1.04c8.62 1.8 17.1 3.8 25.4 6.77l1.94.66c4.98 1.9 7.82 4.48 11.25 8.44.31 2.5.31 2.5-1 5-7.36 9.3-21.43 10.6-32.44 12.12l-3.56.5a406 406 0 0 1-33.7 2.75c-24.25 1.26-48.4.35-72.64-.6q-13.9-.54-27.8-1.04c-.47 0-.47 0-2.77-.1a2729 2729 0 0 0-71-1.68c-8.04-.09-16.06-.04-24.09.05l-4.89.04c-36.13.3-72.09 2.43-108.1 4.96l-3.55.24c-49.95 3.47-99.99 7.38-149.68 13.68a830 830 0 0 1-19.29 2.2l-2.42.24c-12.9 1.3-25.15 1.54-37.82-1.55l-2.46-.59c-6.65-1.8-14.89-5.28-18.79-11.22-.19-4.39.56-7.35 3-11-.1-2.09-.1-2.09-.5-4.38-.53-3.88-.4-6.1 1.5-9.62l1.25-2.88c4.41-7.87 9.51-12.03 17.87-15.37 4.62-.9 8.82-.63 13.5-.24 7.57-1.15 13.08-7.89 18.07-13.32l1.8-1.95c6.15-6.75 11.6-14 17.05-21.32 2.75-3.62 5.65-7.12 8.56-10.63 5.54-6.69 5.54-6.69 7.46-9.92A27 27 0 0 1 355 578l1.31-2.19a72 72 0 0 1 4.7-6.8 89 89 0 0 0 6-9q1.41-2.17 2.86-4.32 4.2-6.26 8.13-12.69l-1.46 1.31-1.92 1.7-1.9 1.68C371 549 371 549 369 549l-.69 2.2c-1.97 4.21-4.53 7.12-8.94 8.8-3.15 1.32-3.78 3.04-5.37 6-1.67 2.03-2.4 2.9-5 3.37-2.96.93-3.48 3.02-5 5.63a99 99 0 0 1-4 2 131 131 0 0 0-5 5q-1.19 1.17-2.44 2.37c-2.56 2.62-4.9 5.35-7.23 8.17C324 594 324 594 322 595a67 67 0 0 0-2.3 3.44c-2.24 3.21-3.86 4.48-7.7 5.56a15 15 0 0 0-6.8 5.25 143 143 0 0 1-11.76 11.94l-1.94 1.8a193 193 0 0 1-8.73 7.67 51 51 0 0 0-6.52 6.6c-3.05 3.63-3.05 3.63-5.25 4.74l-3 3a68 68 0 0 1-16 10l-2.56 1.2c-8.24 2.73-19.15 3.52-27.25.24-5.85-3.07-11.52-7-14.13-13.25A89 89 0 0 1 207 639l-.67-2.17c-1.7-7.72 1.95-13.84 5.5-20.49 2.12-3.26 2.8-3.92 6.17-5.34l1-2.03c1-1.97 1-1.97 2.81-2.95l2.2-.65 2.41-.72q5.12-1.28 10.32-2.22L239 602l2-.3c2.87-1 4.58-2.76 6.81-4.83l2.66-2.47c5-4.75 9.76-9.52 14.17-14.82A75 75 0 0 1 269 575c3.3-3.84 6.37-7.79 9.4-11.85q5.17-6.96 10.66-13.65c1.71-2.2 3.23-4.43 4.75-6.75 3.13-4.75 6.34-9.55 10.2-13.75h2l.77-2.69a28 28 0 0 1 4.72-8.25 258 258 0 0 0 9.37-13.37 453 453 0 0 1 11.82-17.04c2.27-3.13 4.35-6.3 6.31-9.65q1.46-2.24 2.94-4.44l1.57-2.35 3.68-5.46L349 463l1.81-2.63c1.2-2.37 1.2-2.37.88-4.68L351 454l-3.44-.3c-3.98-.5-7.5-1.6-11.27-2.95a59 59 0 0 0-6.98-1.75c-3.8-.79-6.88-2.16-10.3-4l-1.93-.46c-4.04-1.05-7.5-3.43-11.08-5.54l-2.68-1.57c-8.9-5.42-16.8-11.5-22.32-20.43l-2-1.44c-2.43-1.9-3.56-4.1-5-6.8-1.4-2.47-3.2-4.56-5-6.76-2.48-3.72-3.87-7.28-5.13-11.56l-1-3.38L262 384l-.6-2.03c-.54-2.66-.53-5.2-.53-7.9v-3.1c.12-2.77.54-5.27 1.13-7.97v-2.5c0-2.66.47-4.9 1-7.5l.44-4.44c.38-3.76 1.36-6.97 2.56-10.56q.06-3 0-6l1-3 .44-2.69c.52-3.09 1.25-6.09 2.03-9.13.76-3.12 1.35-6.27 1.96-9.43.62-3.02 1.38-6 2.13-9 1.61-6.9 2.07-13.69 2.44-20.75l.56-7c.26-3.1.44-6.13.43-9.25.01-2.5.4-4.35 1.01-6.75v-2.44c0-2.56 0-2.56.47-4.82.8-4.13.92-8.29 1.15-12.49.76-6.55 2.94-12 7.82-16.5 5.73-3.92 11.91-3 17.71.58m-16.96 1.61c-5.07 7.1-5.79 15.23-6.5 23.71q-.14 1.66-.32 3.34-.48 5.26-.93 10.51c-3.82 42.33-3.82 42.33-7.25 55.12-4.93 19.66-8.6 39.44-8.69 59.75l-.02 3.46c.3 19.3 12.58 34.92 26 47.95 18.96 16.65 44.3 26.6 69.52 26.22l-12.37 18.55-1.1 1.66q-2.91 4.35-5.8 8.71c-6.66 9.96-6.66 9.96-9.63 14.46A1187 1187 0 0 1 310 525l-1.67 2.36a788 788 0 0 1-23.69 31.54l-4.65 6A313 313 0 0 1 263 585a368 368 0 0 0-3.69 4.2l-1.7 1.92a126 126 0 0 0-3.13 3.8c-6.2 7.7-11.7 9.25-21.26 10.53-8.16 1.38-14.14 5.03-19.22 11.55-4 6.38-5.63 12.43-5 20 1.94 6.7 5.15 11.22 11 15 8.13 4.43 18.53 4.47 27.38 2.08 15.72-6.23 27.02-18.39 38.68-30.17 3.5-3.52 7.06-6.89 10.84-10.1 2.78-2.4 5.47-4.88 8.16-7.37l1.66-1.54 9.17-8.54c11.75-11 11.75-11 17.22-15.73a284 284 0 0 0 17.08-15.85 100 100 0 0 1 5.5-4.96 226 226 0 0 0 12.81-12.32c4.7-4.79 9.45-9.4 14.54-13.77 3.3-2.92 6.37-6.04 9.46-9.17l1.91-1.93 4.6-4.63a553 553 0 0 1-13.57 20.7q-.82 1.17-1.65 2.4-4.5 6.58-9.3 12.93c-2.58 3.41-5.06 6.88-7.55 10.34l-1.7 2.35-8.52 11.85a911 911 0 0 1-24.33 32.5 240 240 0 0 1-18.89 21.74l-1.75 1.76c-5.56 5.47-9.47 7.76-17.44 7.8-8.57.3-14.45 2.52-21.19 7.94-5.29 6.7-6.8 12-6.5 20.63.81 6.55 4.27 10.58 9.31 14.64 11.51 7.88 22.51 8.37 36.07 7.42a37 37 0 0 0 11-4l2.86-1.44c7.72-4.17 14.08-9.5 20.63-15.26 2.17-1.88 4.43-3.65 6.7-5.43 3.43-2.7 6.7-5.54 9.93-8.5 6.14-5.54 6.14-5.54 9.07-7.93l1.73-1.45c3.02-1.44 5.74-1.03 9.08-.99 4.01-.59 7.97-1.48 11.94-2.32 17.66-3.57 35.73-5.3 53.62-7.36l9.92-1.16a1053 1053 0 0 1 74.16-5.89c30.21-1.4 60.42-1.58 90.66-1.58h10.74c30.7-.05 61.3.63 91.96 2.31l-.86 1.86-1.1 2.45-1.12 2.42c-2.02 4.95-1.84 10.32-.26 15.38 2.28 4.62 5.71 7.01 10.34 8.9q2.87.91 5.75 1.8c5.63 1.77 10.12 4.37 14.97 7.7 5.33 3.48 11.2 2.71 17.34 2.74l3.32.06c11.8.06 20.53-2.36 29.03-10.7 4.56-4.86 6.7-10 8.9-16.24l1.14-3.13c6.3-17.63 12.16-35.56 16.04-53.89q.82-3.75 1.7-7.5c3.1-13.68 4.8-27.07 5.67-41.06q.54-8.52 1.18-17.03l.24-3.37c2.14-29.2 7.33-57.59 14.12-86.05a480 480 0 0 0 5.41-26.28l.6-3.3q.82-4.88 1.6-9.76c.08-.59.08-.59.56-3.55a172 172 0 0 0 1.7-26.4q-.02-3.27 0-6.56c.01-11.52-1.23-22.5-4.33-33.62l-1.04-3.75A155 155 0 0 0 855 317a90 90 0 0 1 29 16l2.6 2.08c10.52 9.42 17.6 25.9 18.4 39.92q.14 1.62.26 3.28c.91 20.2-7.59 38.72-15.15 57.02-10.12 24.65-12.5 47-2.8 72.01 9.72 21.84 27.14 36.43 49.05 45 10.64 3.53 23.92 5.3 34.51.7 4.5-2.77 6.76-5.94 8.13-11 .91-3.89.83-6.6-1.23-10.08-5.23-6.5-12.09-10.04-19.4-13.8C943 510.2 932.24 501.63 926 485c-4.15-17.02 3.48-33.92 9.3-49.63A280 280 0 0 0 943 411l.6-2.18c7.16-27.89 2.56-59.56-11.56-84.45A90 90 0 0 0 923 312l-1.76-2.19c-16.78-20.19-45.4-33.77-71.24-36.8q-2.32-.05-4.65 0c-12.18.06-19.53-1.75-29.4-8.7-21.38-14.38-48.44-23.5-73.95-26.3l-3.06-.35c-35.77-3.18-71.93 2.1-105.94 13.34l-3.02.98A656 656 0 0 0 587 267.75l-2 .81A561 561 0 0 0 559 280l-8.23 3.77-2.15 1-18.32 8.35-12.33 5.64C480.5 315.9 480.5 315.9 461 319l.01-1.97q.07-10.27.1-20.54l.04-7.64c.16-24.44.16-24.44-1-35.33l-.23-2.14c-.7-5.59-2.28-9.12-5.92-13.38-3.5-2.34-4.87-2.43-9-2-9.99 5.06-17.76 14.62-25.25 22.76-8.85 9.56-8.85 9.56-13.04 11.05a27 27 0 0 1-6.7-.8q-3.27-.43-6.53-.82-3.65-.52-7.29-1.07c-14.66-2.18-14.66-2.18-21.04-2.45-12.59-.53-19.25-3.82-28.15-12.67l-3.13-2.96a120 120 0 0 1-10.56-11.29c-6.82-8.1-17.4-18.08-28.19-19.13-3.29.07-4.08.35-6.93 2.32M385 533l-5 5 1 3 5-5z" fill="#BDBEBD"/><path d="m460 320 4 1q.12 11.2.16 22.4l.07 7.59c.34 33.72-3.47 58.61-27.23 84.01l-2.62 2.81C427.66 444 427.66 444 424 444v2c-16.88 8.71-34.94 16.83-54 19 3.44 6.74 8.1 12.26 13 18l2.23 2.65a89 89 0 0 0 14.51 13.46A30 30 0 0 1 406 506c-.36 11.09-19.6 24.99-27 32l-4.03 3.52a211 211 0 0 0-12.47 11.98c-4.77 4.86-9.6 9.55-14.77 13.99A90 90 0 0 0 342 573a168 168 0 0 1-9.88 9.16c-3.23 2.8-6.4 5.68-9.58 8.55l-4.8 4.3a810 810 0 0 0-18.5 17.14 294 294 0 0 1-10.28 9.35 161 161 0 0 0-9.79 9.4c-10.94 11.26-23.93 23.94-40.62 24.39-8.52.08-15.93-.23-22.64-6.13-4.47-4.77-6.6-8.9-7.22-15.47.87-10.31 5.54-17.37 13.11-24.17 4.49-3.1 9.2-3.72 14.51-4.27 9.4-1.39 14.97-5.87 20.89-13.06 1.98-2.41 4.07-4.7 6.18-7 19.1-21.23 35.84-44.74 52.17-68.12l3.07-4.37c4.55-6.46 8.95-13 13.32-19.58l4.02-6.05 6.12-9.2a1133 1133 0 0 1 14.6-21.5l1.21-1.75q1.57-2.3 3.11-4.62l-3-1 2.25.5c18.03 2.4 36.8-1.57 53.75-7.5l6-2v-2c5.75-3 5.75-3 8-3v-2c5.48-5 5.48-5 8-5v-2h2l.75-1.62c1.25-2.38 1.25-2.38 3.19-5.26A73 73 0 0 0 447 410h2l.35-3.1a48 48 0 0 1 3.09-10.34c3.37-9.44 3.77-19.1 4.35-29.04q.35-5.75.73-11.5l1.02-15.81q.64-10.11 1.46-20.21" fill="#020303"/><path d="M305.15 219.33q2.04 1.56 4.01 3.17c1.84 1.5 1.84 1.5 4.9 3.37a31 31 0 0 1 6.13 5.76c5.63 6.53 11.75 12.56 17.94 18.55q2.34 2.28 4.64 4.6c5.72 5.24 10.51 6.17 18.22 6.38C364 261 364 261 367 260q2.52 1.13 5.03 2.3c3.33 1.18 6.46.81 9.97.7q2 .47 4 1 2.2.29 4.44.5c4.3.45 8.41 1.24 12.62 2.2 3.3.34 4.27.2 6.94-1.7q2.56-2.44 5-5a1179 1179 0 0 1 7.72-7.72C431 244 431 244 433.74 241.3c2.26-2.3 2.26-2.3 3.96-4.43A20.5 20.5 0 0 1 450 232c4.82 2.1 8.04 5.74 11 10 1.36 3.82 1.53 7.98 2 12l.28 2.13c.67 5.23.77 10.32.66 15.58.06 2.3.06 2.3 1.06 4.3q.1 3.08.06 6.17l-.02 3.75-.08 7.86-.02 3.76-.04 3.46c.08 2.55.4 4.56 1.1 7v2l2.31.36c2.7.63 2.7.63 5.7 2.63l.11-1.8c.88-2.2.88-2.2 3.94-3.95L481 306l2 2c2.67-.28 4.25-1.16 6.56-2.56C492 304 492 304 495 304c2.44-.13 2.44-.13 5-1 2.31-3.06 2.31-3.06 4-6l2.12 1.12c6.35 1.93 13.3-3.27 18.87-6.2A66 66 0 0 1 538 287c2.08-1.19 2.08-1.19 3.81-2.44 3.77-2.5 7.42-3.7 11.8-4.79 2.76-.89 4.91-2.26 7.4-3.77q2.9-1.27 5.86-2.44a70 70 0 0 0 10.07-4.8c2.94-1.69 4.8-2.14 8.06-2.76 3.04-1.24 6.02-2.62 9-4a96 96 0 0 1 14-5q2.5-.96 5-2a245 245 0 0 1 21-7q3-.98 6-2c5.75-1.96 11.4-3.29 17.36-4.47q6.18-1.2 12.33-2.59c3.75-.85 7.5-1.43 11.31-1.94l2.31-.5c4.2-.78 8.43-1.13 12.7-1.5l3.01-.29c15.8-1.33 32.4-1.96 47.98 1.3 3.6.73 7.18 1.32 10.81 1.86 4.3.71 8.06 1.68 12.06 3.35 2.7.98 5.4 1.58 8.2 2.22 5.03 1.21 8.53 2.87 12.93 5.56 2.53 1.08 5.1 2.07 7.65 3.07 5.16 2.04 9.77 4.75 14.42 7.74a82 82 0 0 0 7.96 4.15l2.03.98 2.04.96c1.9 1.1 1.9 1.1 3.26 2.65 2.06 1.82 2.97 1.78 5.67 1.67l2.38-.06 2.53-.1c10.03-.19 19.21.66 28.71 4.1 2.78 1 5.6 1.88 8.41 2.78 7.52 2.5 14.11 6.1 20.94 10.06.54.3.54.3 3.31 1.75a65 65 0 0 1 18.7 16.25q1.42 1.13 2.86 2.31c7.1 5.81 11.27 13.46 15.5 21.44q.67 1.23 1.34 2.51l1.25 2.41 1.12 2.16A32 32 0 0 1 943 343l.94 2.81a80 80 0 0 1 3.84 18.1c.18 1.73.47 3.44.78 5.15.55 3.7.5 7.2.44 10.94q0 2.58.03 5.16c.1 7.84-.47 15.21-2.49 22.8q-.87 3.34-1.6 6.73l-.5 2.27q-.51 2.42-.94 4.85c-.53 2.33-1.4 4.07-2.5 6.2l-.92 2.76a110 110 0 0 1-3.52 8.92c-2.07 4.9-3.64 9.76-4.94 14.91-.62 2.4-.62 2.4-1.75 5.6A47 47 0 0 0 928 471l-.2 2.6c-.37 9.02 2.4 15.85 7.2 23.4l1 3 6 5v2l1.72.33c2.6.76 4.5 1.9 6.78 3.36 3.72 2.3 7.46 4.27 11.44 6.12 6.71 3.3 14.81 7.77 18.31 14.65 1.48 5.01 2.56 10.2.81 15.23-5.14 5.76-10.14 10.92-18.2 11.45-2.63.05-5.23-.03-7.86-.14l-3.19-.09c-8.2-.4-14.59-2.27-21.89-5.96-1.92-.95-1.92-.95-5.1-2.2-9.72-4.14-17.46-11.39-24.82-18.75l-2.38-2.19c-14.19-15.2-19.63-35.92-19.75-56.19v-2.13c0-3.1.14-5.53 1.13-8.49l.44-2.75c1.68-9.75 5.51-18.75 9.57-27.7l1.05-2.32 2.15-4.74c1.73-3.84 3.12-7.3 3.8-11.49q.69-1.96 1.5-3.88c1.42-3.68 1.98-7.19 2.5-11.12l1-2.63c1.26-4.3 1.28-8.22 1.24-12.68l.02-2.44c-.02-7.49-1.24-14.38-4.27-21.25l-1.08-2.87c-2.5-6.42-5.04-11.28-9.92-16.13l-1.52-1.7c-6.06-6.56-13.99-12.4-22.48-15.3h-2c.42 4.03.88 7.61 2.06 11.5 1.1 4.08 1 7.28.94 11.5l.5 2.75c.58 3.74.62 7.4.6 11.17v2.24l-.04 7.03v4.75l-.05 8.7V389l-1 3.37c-1 3.63-1 3.63-1 6.2 0 2.43 0 2.43-.95 5.18a32 32 0 0 0-1.56 7.75c-.35 3.76-1.3 6.91-2.5 10.5q-.48 3.5-.76 7.04C857 431 857 431 856 433l.12 3.37c-.12 3.63-.12 3.63-1.56 5.5-2.12 2.88-2.04 5.34-2.32 8.84-.24 2.3-.24 2.3-1.24 5.73a43 43 0 0 0-1.5 8.62A44 44 0 0 1 847 476c-.76 3.98-1.38 8-2 12l-.56 3.14c-.45 2.93-.4 5.7-.34 8.65-.15 3.34-.95 6.5-1.66 9.75a33 33 0 0 0-.5 6.77c.05 3.2-.3 5.61-.94 8.7V532l-1 1q-.07 4.64.04 9.28c.04 3.73-.26 7.07-1.04 10.72l.62 2.31c.5 3.5-.59 5.57-1.93 8.77-.86 2.38-.76 4.41-.69 6.92l-.97 2.3c-1.09 2.86-1.36 5.15-1.53 8.2-.22 3.96-1 6.84-2.5 10.5-.35 2.28-.35 2.28-.5 4.5a30 30 0 0 1-2.5 9.5 157 157 0 0 0-.94 4.31c-.93 4.45-2.4 8.46-4.06 12.7l-.46 1.9c-.88 3.41-2.35 6.6-3.7 9.85C819 637 819 637 819 639l3.05.64q5.73 1.2 11.45 2.45l4.91 1.04c8.62 1.8 17.1 3.8 25.4 6.77l1.94.66c4.98 1.9 7.82 4.48 11.25 8.44.31 2.5.31 2.5-1 5-7.36 9.3-21.43 10.6-32.44 12.12l-3.56.5a406 406 0 0 1-33.7 2.75c-24.25 1.26-48.4.35-72.64-.6q-13.9-.54-27.8-1.04c-.47 0-.47 0-2.77-.1a2729 2729 0 0 0-71-1.68c-8.04-.09-16.06-.04-24.09.05l-4.89.04c-36.13.3-72.09 2.43-108.1 4.96l-3.55.24c-49.2 3.41-98.52 7.2-147.46 13.4-29.45 3.73-29.45 3.73-42 3.61l-2.52.02c-4.14 0-6.8-.2-10.48-2.27h1.78c15.9-.2 31.51-1.53 47.28-3.38q1.44-.15 2.92-.34 12.98-1.52 25.94-3.14c16.33-1.99 32.71-3.33 49.1-4.66q16.73-1.33 33.42-2.98c14.91-1.46 29.86-2.5 44.81-3.56l3.5-.25q10.72-.75 21.46-1.44 5.7-.38 11.37-.8c28.47-2 57-1.76 85.52-1.7h14.84c28.9-.06 57.77.06 86.65 1.2l3.33.13 11.91.51c5.11.24 10.1.75 15.17 1.41q2.25.12 4.51.14l2.41.02 2.54.01 2.72.01 8.76.01h3.03c84.38-.1 84.38-.1 101.03-13.19.94-2.75.94-2.75 1-5-5.59-4.5-10.82-6.59-17.69-8.5l-3.1-.89c-12.55-3.46-25.37-5.57-38.2-7.6a70 70 0 0 1 2.91-13.44q.59-1.8 1.16-3.63l.61-1.89c3.37-10.48 6.51-20.92 8.8-31.69q.82-3.75 1.7-7.52c3.1-13.67 4.8-27.06 5.67-41.05q.54-8.52 1.18-17.03l.24-3.37c2.14-29.2 7.33-57.59 14.12-86.05a480 480 0 0 0 5.41-26.28l.6-3.3q.82-4.88 1.6-9.76c.08-.59.08-.59.56-3.55a172 172 0 0 0 1.7-26.4q-.02-3.27 0-6.56c.01-11.53-1.2-22.5-4.4-33.62C855 320.3 855 320.3 855 317c11.36 1.98 20.3 7.66 29 15l2.7 2.24c10.92 9.92 18.45 25.97 19.3 40.76q.14 1.62.26 3.28c.91 20.2-7.59 38.72-15.15 57.02-10.12 24.65-12.5 47-2.8 72.01 9.5 21.32 26.42 35.61 47.91 43.94 10.46 3.46 23.53 5.17 34.15 1.25 3.64-2.03 5.5-4.52 7.03-8.36 1.02-3.65 1.54-6.42.6-10.14-4.45-7.15-10.86-10.44-18.25-13.94-16.24-8.09-28.3-17.5-34.75-35.06-4.14-17.04 3.48-33.9 9.3-49.63A280 280 0 0 0 942 411l.6-2.18c7.16-27.89 2.55-59.55-11.56-84.44A91 91 0 0 0 922 312l-1.54-1.97c-16.1-19.95-45.4-33.09-70.46-36.03q-2.32-.03-4.65 0c-12.18.07-19.53-1.74-29.4-8.7-21.38-14.37-48.44-23.5-73.95-26.3l-3.06-.34c-35.77-3.18-71.93 2.1-105.94 13.34l-3.02.98A656 656 0 0 0 587 268.75l-2 .81A561 561 0 0 0 559 281l-8.23 3.77-2.15 1-18.32 8.35-12.33 5.64c-14.15 6.47-28.42 12.75-43.35 17.24l-2.07.63A38 38 0 0 1 461 319l-.03-1.97q-.12-10.27-.29-20.54l-.1-7.64c-.3-24.43-.3-24.43-1.47-35.32l-.2-2.14c-.69-5.59-2.29-9.13-5.9-13.39-2.84-1.42-4.87-1.26-8-1-10 5.06-17.77 14.62-25.26 22.76-8.85 9.56-8.85 9.56-13.04 11.05a27 27 0 0 1-6.7-.8q-3.27-.43-6.53-.82-3.65-.52-7.29-1.07c-14.66-2.18-14.66-2.18-21.04-2.45-12.6-.53-19.24-3.8-28.15-12.67l-3.39-3.22a123 123 0 0 1-10.73-11.43C317.14 231.2 307.71 222.9 299 220c-7.1-.57-7.1-.57-10.3 1.44-4.62 7-5.33 15.06-6.02 23.21l-.3 3.34q-.5 5.26-.94 10.51c-3.82 42.33-3.82 42.33-7.25 55.12-4.93 19.66-8.6 39.44-8.69 59.75l-.02 3.46c.28 18.24 11.1 32.32 23.21 45.23 19.35 18.72 45.2 26.31 71.31 28.94a36 36 0 0 1-5 9.38 464 464 0 0 0-10.05 14.64l-3.89 5.85-2.59 3.9-9.68 14.56a663 663 0 0 1-11.48 16.8l-1.53 2.15L311 525l-1.59 2.23a804 804 0 0 1-23.77 31.67l-4.65 6A313 313 0 0 1 264 585l-3.63 4.12-1.69 1.93q-1.74 2.03-3.42 4.08c-6.68 8.04-11.87 9.95-22.04 11.33-7.85 1.31-12.82 4.32-17.78 10.52-4.5 6.32-6.09 12.3-5.44 20.02 1.87 6.23 4.45 10.37 10 14 8.18 4.4 18.5 4.48 27.38 2.08 15.72-6.23 27.02-18.39 38.68-30.17 3.5-3.52 7.06-6.89 10.84-10.1 2.78-2.4 5.47-4.88 8.16-7.37l1.66-1.54 9.17-8.54c11.75-11 11.75-11 17.22-15.73a284 284 0 0 0 17.08-15.85 100 100 0 0 1 5.5-4.96 226 226 0 0 0 12.81-12.32c4.7-4.79 9.45-9.4 14.54-13.77 3.3-2.92 6.37-6.04 9.46-9.17l1.91-1.93 4.6-4.63c0 4.08-2.03 6.38-4.26 9.62l-1.36 2L389 535l-1.48 2.12A1053 1053 0 0 1 370 561.54a916 916 0 0 0-9 12.46 899 899 0 0 1-24.65 33.27q-1.42 1.8-2.8 3.61A247 247 0 0 1 314 633.31l-1.89 1.9c-5.72 5.63-9.59 8.12-17.8 8.16-7.19.22-12.12 1.9-18.3 5.63l-3 1c-1.07 1.74-1.07 1.74-2 4l-1.05 2.48A58 58 0 0 0 266 674l-2-1c-1.28-4.99-1.49-9.4 1-14l1.25-2.88c4.41-7.87 9.51-12.03 17.87-15.37 4.62-.9 8.82-.63 13.5-.24 7.57-1.15 13.08-7.89 18.07-13.32l1.8-1.95c6.15-6.75 11.6-14 17.05-21.32 2.75-3.62 5.65-7.12 8.56-10.63 5.54-6.69 5.54-6.69 7.46-9.92A27 27 0 0 1 355 578l1.31-2.19a72 72 0 0 1 4.7-6.8 89 89 0 0 0 6-9q1.41-2.17 2.86-4.32 4.2-6.26 8.13-12.69l-1.46 1.31-1.92 1.7-1.9 1.68C371 549 371 549 369 549l-.69 2.2c-1.97 4.21-4.53 7.12-8.94 8.8-3.15 1.32-3.78 3.04-5.37 6-1.67 2.03-2.4 2.9-5 3.37-2.96.93-3.48 3.02-5 5.63a99 99 0 0 1-4 2 131 131 0 0 0-5 5q-1.19 1.17-2.44 2.37c-2.56 2.62-4.9 5.35-7.23 8.17C324 594 324 594 322 595a67 67 0 0 0-2.3 3.44c-2.24 3.21-3.86 4.48-7.7 5.56a15 15 0 0 0-6.8 5.25 143 143 0 0 1-11.76 11.94l-1.94 1.8a193 193 0 0 1-8.73 7.67 51 51 0 0 0-6.52 6.6c-3.05 3.63-3.05 3.63-5.25 4.74l-3 3a68 68 0 0 1-16 10l-2.56 1.2c-8.24 2.73-19.15 3.52-27.25.24-5.85-3.07-11.52-7-14.13-13.25A89 89 0 0 1 207 639l-.67-2.17c-1.7-7.72 1.95-13.84 5.5-20.49 2.12-3.26 2.8-3.92 6.17-5.34l1-2.03c1-1.97 1-1.97 2.81-2.95l2.2-.65 2.41-.72q5.12-1.28 10.32-2.22L239 602l2-.3c2.87-1 4.58-2.76 6.81-4.83l2.66-2.47c5-4.75 9.76-9.52 14.17-14.82A75 75 0 0 1 269 575c3.3-3.84 6.37-7.79 9.4-11.85q5.17-6.96 10.66-13.65c1.71-2.2 3.23-4.43 4.75-6.75 3.13-4.75 6.34-9.55 10.2-13.75h2l.77-2.69a28 28 0 0 1 4.72-8.25 258 258 0 0 0 9.37-13.37 453 453 0 0 1 11.82-17.04c2.27-3.13 4.35-6.3 6.31-9.65q1.46-2.24 2.94-4.44l1.57-2.35 3.68-5.46L349 463l1.81-2.63c1.2-2.37 1.2-2.37.88-4.68L351 454l-3.44-.3c-3.98-.5-7.5-1.6-11.27-2.95a59 59 0 0 0-6.98-1.75c-3.8-.79-6.88-2.16-10.3-4l-1.93-.46c-4.04-1.05-7.5-3.43-11.08-5.54l-2.68-1.57c-8.9-5.42-16.8-11.5-22.32-20.43l-2-1.44c-2.43-1.9-3.56-4.1-5-6.8-1.4-2.47-3.2-4.56-5-6.76-2.48-3.72-3.87-7.28-5.13-11.56l-1-3.38L262 384l-.6-2.03c-.54-2.66-.53-5.2-.53-7.9v-3.1c.12-2.77.54-5.27 1.13-7.97v-2.5c0-2.66.47-4.9 1-7.5l.44-4.44c.38-3.76 1.36-6.97 2.56-10.56q.06-3 0-6l1-3 .44-2.69c.52-3.09 1.25-6.09 2.03-9.13.76-3.12 1.35-6.27 1.96-9.43.62-3.02 1.38-6 2.13-9 1.61-6.9 2.07-13.69 2.44-20.75l.56-7c.26-3.1.44-6.13.43-9.25.01-2.5.4-4.35 1.01-6.75v-2.44c0-2.56 0-2.56.47-4.82.8-4.13.92-8.29 1.15-12.49.76-6.55 2.94-12 7.82-16.5 5.73-3.92 11.91-3 17.71.58M385 533l-5 5 1 3 5-5z" fill="#E7E8E9"/><path d="M814 641q6.12 1.07 12.23 2.16 4.37.78 8.76 1.5a214 214 0 0 1 22.51 5.15l2.5.68c5.95 1.77 10.28 4.51 15 8.51-.28 3.36-.68 4.7-3.17 7.04-2.99 2.07-5.48 3.07-8.95 4.08l-3.14.95c-9.96 2.48-20.03 3.64-30.24 4.55l-2.19.2a387 387 0 0 1-35.37 1.43h-2.24c-7.62-.03-15.14-.2-22.7-1.25v-1l3.37-.11c13.86-.57 24.17-2.07 34.12-12.5 3.12-3.83 4.66-8.16 6.32-12.77l.95-2.51z" fill="#B7B9B8"/><path d="M396.56 349.69c6.26 3.29 9.81 7.77 12.44 14.3.36 2.87.57 5.4.56 8.26v2.27c-.27 8.08-3.37 13.2-8.94 18.92-7.7 4.59-14.7 5.67-23.62 4.56-7.96-2.28-12.75-7.05-17-14-2.46-5.02-2.62-10.5-2-16 1.01-2.3 1.01-2.3 2-4l.04 2.85c.44 11.45.44 11.45 3.27 14.9 3.6 3 5.27 4.09 9.94 4.63 5.83-.6 10.03-2.61 14.12-6.81 3.14-4.95 4.23-8.66 3.63-14.57-2.1-6.06-5.17-10.08-11-13q-2.81-.1-5.63-.06l-3.04.03-2.33.03c6.86-7.94 19-6.4 27.56-2.31" fill="#F8DD60"/><path d="m717.31 233.88 3.51-.01c8.83 0 17.52.3 26.18 2.13q1.38.29 2.81.56 1.07.23 2.2.44v2c-5.42.12-10.74-.03-16.14-.5-34.85-2.56-69.73 2.53-102.87 13.5l-3.02.99A656 656 0 0 0 585 269.56 561 561 0 0 0 559 281a1222 1222 0 0 1-10.38 4.75l-18.32 8.38-12.33 5.63c-14.15 6.47-28.42 12.75-43.35 17.24l-2.07.63A37 37 0 0 1 461 319c-.07-9.8.13-19.57.5-29.37l.14-4L462 276h1l.06 1.87.31 8.5.1 2.94c.23 5.71.85 11.13 2.11 16.71.42 1.98.42 1.98.42 3.98l2.31.38c2.7.62 2.7.62 5.7 2.62l.11-1.81c.88-2.2.88-2.2 3.94-3.94L481 306l2 2c2.67-.27 4.25-1.15 6.56-2.56C492 304 492 304 495 304c2.43-.12 2.43-.12 5-1 2.31-3.06 2.31-3.06 4-6l2.12 1.13c6.35 1.93 13.3-3.28 18.87-6.2a66 66 0 0 1 13.01-4.94c2.08-1.18 2.08-1.18 3.81-2.43 3.77-2.5 7.42-3.7 11.8-4.79 2.76-.9 4.91-2.25 7.4-3.77q2.9-1.26 5.86-2.44a70 70 0 0 0 10.06-4.8c2.95-1.7 4.8-2.13 8.07-2.76 3.04-1.24 6.02-2.62 9-4a98 98 0 0 1 14-5q2.5-.96 5-2a248 248 0 0 1 21-7q3-.98 6-2a131 131 0 0 1 17.36-4.47q6.18-1.2 12.33-2.6A134 134 0 0 1 681 237l2.31-.5c3.3-.6 6.57-.9 9.9-1.2q3.16-.34 6.28-.81c5.92-.75 11.86-.62 17.82-.6" fill="#E9E9EB"/><path d="M314 335c5.99 2.58 11.22 5.63 14.33 11.52 3.19 8.04 3.94 14.55.98 22.73-2.88 6.53-6.75 9.96-13.31 12.75-4.94 1.75-9.69 1.43-14.62-.19-3.56-1.9-5.73-3.8-8.38-6.81l-2.12-2.38c-4.94-6.9-5.29-12.31-4.88-20.62h1l.3 2.41c.87 6.2 1.55 10.81 5.7 15.59 3.69 2.46 6.71 2.58 11 2 2.88-1.5 2.88-1.5 5-3h2l.94-2.38C313 364 313 364 314 362c1.04-13.34 1.04-13.34-1.62-17.69-3.48-3.38-6.5-4.94-11.26-5.87-4.63.83-7.59 3.55-11.12 6.56 4.55-10.26 13.66-11.55 24-10" fill="#F2D355"/><path d="M462 276h1l.06 1.86.32 8.52.09 2.92c.23 5.73.86 11.13 2.11 16.73.42 1.97.42 1.97.42 3.97l2.31.38C471 311 471 311 474 313l.12-1.81c.88-2.19.88-2.19 3.94-3.94L481 306l2 2c2.67-.28 4.26-1.16 6.56-2.56C492 304 492 304 495 304c2.44-.12 2.44-.12 5-1 2.31-3.06 2.31-3.06 4-6l2.12 1.12c5.9 1.8 11.86-2.5 17.07-5.18 7.45-3.82 7.45-3.82 10.81-4.94v4a812 812 0 0 1-33 15.14l-4.1 1.77c-23.58 10.26-23.58 10.26-35.9 10.09-.07-9.81.13-19.57.5-29.38l.14-4z" fill="#F0F0F2"/><path d="M401 353c4.92 4.52 7.65 8.23 8.5 14.95q.08 2.15.06 4.3v2.27c-.26 8.07-3.36 13.2-8.94 18.92-7.71 4.59-14.71 5.66-23.62 4.56-7.95-2.29-12.75-7.05-17-14-2.46-5.02-2.62-10.49-2-16 1.02-2.3 1.02-2.3 2-4l.04 2.85c.44 11.44.44 11.44 3.27 14.9 3.59 3 5.27 4.09 9.94 4.63 7.17-.72 12.05-4.09 16.75-9.38-.88 4.75-.88 4.75-2 7h-2v2l-6 2v2h-2v2h4l-1 4 9-1v-1h6l-.25-2.31c.25-2.69.25-2.69 2.13-4.5C400 386 400 386 402 386v-2l4-2v-2h2q-.05-3.37-.19-6.75l-.1-3.8c-.87-4.22-2.24-5.08-5.71-7.45v-2h2l-1.5-2.38C401 355 401 355 401 353" fill="#F1DB71"/><path d="M450.19 232.63q.9.66 1.8 1.38l2.5 1.3c3.32 2.23 5.77 4.72 7.2 8.5q.73 5.08 1.3 10.2l.3 2.13c.66 5.22.77 10.3.65 15.58C464 274 464 274 465 276q.12 2.72.1 5.44l-.01 3.26-.02 3.43-.02 3.44L465 300l-2-2-1 7h-1l-.06-3.49q-.11-6.52-.25-13.04l-.11-5.6c-.17-9.68-.46-19.3-1.46-28.91l-.22-2.22c-.66-5.78-2.16-9.35-5.9-13.75-2.82-1.41-4.86-1.25-8-1-9.4 4.8-16.9 13.53-24.2 21l-3.45 3.5q-4.19 4.24-8.35 8.5l-1-3c1.08-1.75 1.08-1.75 2.69-3.56l1.57-1.81c1.74-1.62 1.74-1.62 3.68-2.55 2.78-1.45 4.34-3.44 6.37-5.83a81 81 0 0 1 10.08-9.81 36 36 0 0 0 4.55-5.12c3.26-3.94 7.92-7.22 13.25-5.7" fill="#E2E3E4"/><path d="M837 527h1l1 6.56.56 3.69c.53 4.55.84 8.88-.12 13.37-.44 2.38-.44 2.38.18 4.69.49 3.5-.59 5.57-1.92 8.77-.87 2.38-.77 4.41-.7 6.92l-.96 2.3c-1.1 2.86-1.37 5.16-1.54 8.2-.22 3.96-1 6.85-2.5 10.5-.34 2.28-.34 2.28-.5 4.5a30 30 0 0 1-2.5 9.5 206 206 0 0 0-.94 4.31c-.93 4.45-2.41 8.46-4.06 12.69q-.53 2-1 4l-1 4-4 1a218 218 0 0 1 4.77-18.43C831.28 585 834.89 556.64 837 527" fill="#E3E3E6"/><path d="M295 220c3.89-.69 6-.56 9.49 1.39a139 139 0 0 1 25.97 23.82 78 78 0 0 0 4.98 5.17C338 253 338 253 338 255c-2.86 1.43-4.83 1.36-8 1-2.16-2.01-2.16-2.01-4.06-4.69-5.03-6.94-11.2-12.43-17.56-18.11q-2.24-2.06-4.38-4.2v-2l-1.81-.88C300 225 300 225 297 223l-3 1z" fill="#07090A"/><path d="M339 380c4.57 1.52 7.52 2.78 10 7a13 13 0 0 1-6 7h-3l-.44 3.44C339 401 339 401 338 402c-2.44.19-2.44.19-5 0-2-2-2-2-2.44-5.38-.58-3.74-1.35-4.74-3.56-7.62-.5-2.5-.5-2.5 0-5 3.69-4.14 6.6-4.65 12-4" fill="#5D5D5E"/><path d="M266 665h1l.23 2.38c1.05 8.42 2.92 12.76 9.52 18.01 9.05 6.26 19.44 8.23 30.25 8.61v2q-5.4.13-10.81.19l-3.05.07c-10.54.11-19.61-1.9-28.14-8.26l-2.56-1.81c-1.95-2.97-1.6-4.95-1.19-8.39.75-1.8.75-1.8 4.75-3.8z" fill="#CFD0D3"/><path d="m368 549 1 2c-6.45 8-6.45 8-12 10-1.62 2.44-1.62 2.44-3 5-1.67 2.03-2.4 2.89-5 3.38-2.96.92-3.48 3.01-5 5.62a88 88 0 0 1-4 2 139 139 0 0 0-5 5l-2.44 2.38c-2.56 2.62-4.9 5.34-7.23 8.17C324 594 324 594 322 595a74 74 0 0 0-2.31 3.44c-2.23 3.21-3.85 4.48-7.69 5.56-3.3 1.37-5.07 2.99-7.31 5.75A78 78 0 0 1 294 620l-2-1c5.46-6.75 11.75-12.5 18.16-18.32q4.86-4.47 9.65-8.99c4.37-4.09 8.77-8.14 13.3-12.05a291 291 0 0 0 17.17-15.95c2.52-2.47 5.19-4.75 7.86-7.05a77 77 0 0 0 4.67-4.52C365 550 365 550 368 549" fill="#EDEEEF"/><path d="M314 335c5.99 2.58 11.22 5.63 14.33 11.52 3.23 8.14 4.04 15.26.67 23.48h-1v-20h-2v-4h-2v-2h-8v16h-1l-.08-2.41c-.59-11.02-.59-11.02-4.92-15.59-4.04-2.63-7.21-3.86-12-3a68 68 0 0 0-8 6c4.55-10.26 13.66-11.55 24-10" fill="#D7CD79"/><path d="M855 317a60 60 0 0 1 8 2v2h2l-1 2h-3c.42 4.03.88 7.61 2.06 11.5 1.1 4.08 1.01 7.28.94 11.5l.49 2.75c.59 3.76.62 7.41.57 11.2l-.01 2.25-.05 7.05a1451 1451 0 0 0-.09 11.49c-.02 5.03-.02 5.03 1.09 7.26l-4-1-.06-3.37-.26-12.58-.1-5.41c-.24-13.26-1.03-25.94-4.7-38.76-1.88-6.59-1.88-6.59-1.88-9.88" fill="#EDEFF0"/><path d="m291 618 2 1c-1.56 3.77-3.91 6.11-6.81 8.94l-2.58 2.52L281 633l-2.7 2.72A56 56 0 0 1 272 641l-1.75 1.81A61 61 0 0 1 252 655l-2.28 1.07c-3.38 1.16-6.47 1.36-10.03 1.55l-3.8.23-2.89.15-1-2 2.2-.26c24.81-3.47 40.07-20.79 56.8-37.74" fill="#E3E5E6"/><path d="M270 317h1c.52 10.7-1.6 21.02-3.36 31.53A271 271 0 0 0 264 384h-2c-1.02-3.36-1.13-6.44-1.12-9.94l-.01-3.09c.12-2.77.55-5.26 1.13-7.97v-2.5c0-2.66.47-4.9 1-7.5l.44-4.44c.38-3.76 1.36-6.97 2.56-10.56q.06-3 0-6l1-3 .44-2.81A56 56 0 0 1 270 317" fill="#EFF0F1"/><path d="M399.05 350.9 401 352l-1 3-3-1v-2h-3v-2h-2c-1 2-1.49 3.84-2 6l4 1-2 8-2-3q-1.42-2.04-2.88-4.06l-1.49-2.1c-2.58-2.91-4.55-3.76-8.43-4.03l-2.95.07-2.99.05-2.26.07c7.66-8.87 20.95-5.76 30.05-1.1" fill="#EAD86B"/><path d="M286 352h1l.3 2.41c.87 6.2 1.55 10.81 5.7 15.59 3.69 2.46 6.71 2.59 11 2 2.88-1.56 2.88-1.56 5-3l2 1-1 6h-2v-2l-12 1 6 2v3c5.5.19 9.91.33 15-2 2.81-.12 2.81-.12 5 0-2.68 3.47-5.82 4.09-10 5-5.49.49-9.14-.39-14-3-2.69-2.38-2.69-2.38-5-5l-2.12-2.38c-4.94-6.9-5.29-12.31-4.88-20.62" fill="#DFD182"/><path d="M296 216c5.9 1.52 10 3.42 14.45 7.6 1.55 1.4 1.55 1.4 4.05 2.78 2.44 1.58 3.79 3 5.65 5.21 3.81 4.41 7.84 8.55 11.97 12.66l2.09 2.1c3.45 3.44 6.89 6.71 10.79 9.65l-1 3c-6.36-5.72-12.62-11.42-18.31-17.81A102 102 0 0 0 313 229l-2.62-2.13c-5.76-4.46-10.14-6.92-17.38-7.87l3-1z" fill="#DADDDF"/><path d="m933 438 2 2c-.17 1.85-.17 1.85-.75 4.06l-.61 2.43L933 449l-1 4.75c-.53 2.43-1.1 4.5-2.06 6.81-2.37 6.16-2.08 12.94-1.94 19.44l-3 1c-1.62-1.62-1.25-3.32-1.31-5.56.13-12.81 5.12-25.48 9.31-37.44" fill="#DADBDD"/><path d="M887.07 281q2.5 1.45 4.93 3l3.69 2a30 30 0 0 1 7.31 6c-4.83 0-7.57-1.8-11.63-4.12-7.63-4.24-15.31-7.13-23.64-9.7A39 39 0 0 1 860 275c7.98-2.66 19.82 2.48 27.07 6" fill="#DFDFE1"/><path d="M399 517c0 3.34-.59 4.4-2.31 7.19l-1.3 2.17L394 528h-3l-.62 1.75C389 532 389 532 386.19 533.81c-2.82 1.94-3.84 2.87-5.63 5.57-3.17 4.73-6.93 8.84-12.5 10.5L366 550c4.26-5.15 8.76-9.74 13.69-14.25A569 569 0 0 0 399 517" fill="#EBEAEE"/><path d="m272 691 7.56-.12 2.14-.06c4.8-.04 8.67.77 13.3 2.18q3.21.4 6.44.62l3.18.23 2.38.15v2q-5.4.13-10.81.19l-3.05.07c-7.01.07-13.59-.59-20.14-3.26z" fill="#D4D5D8"/><path d="M266 665h1l.23 2.38c.9 7.19 2.06 11.95 7.77 16.62a97 97 0 0 0 8 5l3 2c-8.07 1.58-8.07 1.58-12-1-1.31-3.12-1.31-3.12-2-6h-3v-3l-4-2-1 5h-1v-9l3-1z" fill="#C3C5C7"/><path d="m756 674 3.78.4A605 605 0 0 0 793 677v1q-9.39.04-18.79.05l-6.38.03-9.21.02-2.85.01c-5.35 0-10.47-.33-15.77-1.11v-1l6.88-.56 3.86-.32C754 675 754 675 756 676z" fill="#D0CED5"/><path d="M209 637c2 3 2 3 3.25 5.88 3.11 5.55 7.48 8.53 13.38 10.56 4.72 1.11 9.54 1.33 14.37 1.56v1l-3.31.44C233 657 233 657 230 658c-7.23-.34-13.66-4.19-18.5-9.44-2.42-3.07-3.41-5.58-3.5-9.56z" fill="#DBDBDC"/><path d="m848 454 3 1c-.59 5.01-1.19 9.94-2.48 14.82-.52 2.18-.52 2.18-.91 4.65l-.42 2.59-.4 2.6c-.98 2.89-2.24 3.76-4.79 5.34.75-6.53 1.82-12.97 3-19.44l.54-3.04.52-2.89.48-2.62C847 455 847 455 848 454" fill="#DFDFE3"/><path d="m276 288 2 1c.46 7.64-1.26 14.59-3 22l-.87 3.79L272 324h-1c-.88-6.61-1.17-11.6 1-18q1.2-5.39 2.32-10.79.76-3.63 1.68-7.21" fill="#DDDDDF"/><path d="M316 344h8v2h2v4h2l-1 4-4-2v-1l-5-1v10h-2z" fill="#F4E45A"/><path d="M946 366h2c.95 4.77 1.08 9.16 1 14q0 2.58.04 5.16c.16 14.45.16 14.45-2.04 18.84h-2z" fill="#EDEDEF"/><path d="M264 366h1l.04 1.69.27 7.75.07 2.66c.37 9.18 2.78 16.14 7.81 23.78 3.81 5.81 3.81 5.81 3.81 9.12-7.29-7.09-13.59-15.25-14.15-25.79q.13-4.4.46-8.77l.19-3.06q.23-3.69.5-7.38" fill="#DDDEDD"/><path d="M270 317h1c.32 7.91-.66 15.34-2 23.12l-.58 3.48L267 352c-1.52-1.85-1.52-1.85-3-4 .28-2.4.28-2.4 1-5q.4-4.23.72-8.48C266 332 266 332 267 329l.44-2.81A56 56 0 0 1 270 317" fill="#E5E7E8"/><path d="M461 272h2c1.99 3.32 2.24 5.8 2.2 9.64l-.02 3.24-.06 3.37-.02 3.41-.1 8.34-2-2-1 7h-1z" fill="#C4C5C6"/><path d="M893 342a55.6 55.6 0 0 1 12 25c-.38 2.44-.38 2.44-1 4v-2h-2l-2.91-7.3q-1.14-2.83-2.38-5.64l-1.33-3.06-1.36-3.06c-1-2.88-1.23-4.92-1.02-7.94" fill="#E2E2E5"/><path d="M831 584h3a95 95 0 0 1-2 11l-.94 4.44c-.74 3.34-1.52 6.48-3.06 9.56l-2 1c-.73-8.95 2.19-17.58 5-26" fill="#E3E3E7"/><path d="m321 621 4 1q-4.34 4.42-8.69 8.81l-2.47 2.53-2.41 2.43-2.21 2.24C303.66 643 303.66 643 300 643c1.12-3.36 1.5-3.55 4.31-5.38 6.44-4.59 11.46-10.74 16.69-16.62" fill="#E0E3E4"/><path d="M318 350h6v2l4 2v6h-8l1-4h-3z" fill="#F6D952"/><path d="m687 237 1 2-10.12 2-2.89.58c-4.73.92-9.15 1.68-13.99 1.42l1-3 3.56-.38A67 67 0 0 0 677 237c3.69-.97 6.31-1.13 10 0" fill="#F0F0F3"/><path d="M880 458h2l-1 31c-3.72-3.72-3.13-9.03-3.14-14.07l.02-2.12-.02-2.15c.01-3.16.14-5.65 1.14-8.66z" fill="#F0F2F4"/><path d="M359 364h1l.04 2.85c.44 11.44.44 11.44 3.4 14.96C366 384 366 384 368 385v3h-2l-1 3c-5.75-7.57-7.68-13.45-7-23q.44-2.01 1-4" fill="#C2B67D"/><path d="m429 251 1 2-2.81 3.94-1.58 2.21C424 261 424 261 421 262l-1 2.5-1 2.5-3 1v2h-3l.94-1.81C415 266 415 266 416 263c1.67-1.65 1.67-1.65 3.75-3.38 3.25-2.75 6.29-5.57 9.25-8.62" fill="#080809"/><path d="M837 527h1l1 6.56.56 3.69c.67 5.76 1.01 10.46-1.56 15.75-2-2-2-2-2.23-4.4.1-7.24.51-14.4 1.23-21.6" fill="#D9DBDD"/><path d="M863 355h1c1.04 8.1 1.07 16.12.96 24.27l-.02 2.55-.04 2.29c.1 1.89.1 1.89 1.1 3.89l-4-1a393 393 0 0 1 1-32" fill="#F3F5F6"/><path d="M391 365h1c.5 5.94-.63 10.04-4 15-2.75 2.5-2.75 2.5-5 4l1-5 3-1-1-7 1.94-1.31C390 368 390 368 391 365" fill="#241C17"/><path d="M926 480c2.59 2.25 3.21 3.72 4 7q.92 2.3 1.94 4.56l1.02 2.32C934 496 934 496 936 499l-3 1c-8.26-12.57-8.26-12.57-7.69-17.94z" fill="#E6E7E9"/><path d="M865.16 274.1c15.04 3.2 15.04 3.2 18.84 8.9l-1.7-.52c-7.4-2.24-14.85-4.37-22.3-6.48 3-2 3-2 5.16-1.9" fill="#D7D6D9"/><path d="M901 369h3c1.17 2.35 1.12 3.74 1.1 6.35l-.01 2.58-.03 2.69-.01 2.72L905 390h-2a74 74 0 0 1-.94-14.67A23 23 0 0 0 901 369" fill="#F0F1F4"/><path d="m291 618 2 1c-1.59 3.9-4.13 6.34-7.12 9.25l-2.76 2.7L281 633l-3-2z" fill="#EBEFEF"/><path d="M316 692v2h9v1c-6.07.77-11.89 1.1-18 1v-2h-12v-1l8.25-.5 2.36-.14 2.28-.14 2.1-.13c2-.09 4-.09 6.01-.09" fill="#B4B4B6"/><path d="M886 440h2c-.7 4.72-1.8 9.28-3.06 13.88l-.57 2.08L883 461c-3.02-3.37-3.02-3.37-2.93-6.18l.62-2.26.63-2.38A37 37 0 0 1 886 440" fill="#EBEBEF"/><path d="M300 377h2v3c5.5.19 9.91.33 15-2 2.81-.12 2.81-.12 5 0-2.68 3.47-5.82 4.09-10 5-4.85.34-8.47-.23-13-2z" fill="#D9C26D"/><path d="M328 241a690 690 0 0 1 17 15l-1 3-6.25-5.69-1.78-1.6A71 71 0 0 1 327 242z" fill="#D3D5D4"/><path d="M280 248h1l.12 6.75.08 3.8c-.18 3.18-.51 4.82-2.2 7.45l-2-1a35 35 0 0 1 1-10l-.06-2.62C278 250 278 250 280 248" fill="#EBE9EC"/><path d="m518 525-6 6-1 3-5-1c0-3 0-3 1.36-4.39 6.06-4.3 6.06-4.3 10.64-3.61" fill="#0A0A0B"/><path d="m235.13 603.94 2.2.59 1.67.47v1l-3.94.25c-4.53.48-8.06 1.87-12.12 3.9-1.94.85-1.94.85-4.94.85 1-2.62 1.51-3.76 4.1-5.01l2.4-.67c7.6-2.21 7.6-2.21 10.63-1.38" fill="#DEDFDE"/><path d="m335 578 1 2-1.17 1.36-1.58 1.83-1.67 1.92C330 587 330 587 327.94 589.94 326 592 326 592 323.25 592.31L321 592c4.27-5.23 8.82-9.67 14-14" fill="#E4E4E6"/><path d="m355 578 2 2-4.25 5.75-1.2 1.63A65 65 0 0 1 344 596c.51-4.46 2.13-6.62 5-10l1.56-2.62A22 22 0 0 1 355 578" fill="#DFE2E4"/><path d="m622 253-1 3c-2.62 1.17-2.62 1.17-5.88 2.19l-3.24 1.04C609 260 609 260 606 260v-2l4-2 1.88-1c7.27-3.42 7.27-3.42 10.12-2" fill="#EDEDEF"/><path d="M373 346h21v2l5 1v2l-3.69-1.5a35.8 35.8 0 0 0-24.31.5v-2h2z" fill="#261907"/><path d="m881 466 3 1-1 19-2-1z" fill="#292A2B"/><path d="M329 382c2.86 4.28 3.12 7.14 3.06 12.19l-.02 3.29L332 400h-1l-.31-3.25c-.69-3.77-1.46-4.85-3.69-7.75-.31-2.62-.31-2.62 0-5z" fill="#525651"/><path d="m307 339 5 1v2l4-2v20h-1l-.08-2.41c-.44-8.35-1.6-12.9-7.92-18.59" fill="#C4B86A"/><path d="m790 674-1 3c-7.43.1-14.64 0-22-1v-1l8.12-.5 2.31-.14A170 170 0 0 1 790 674" fill="#A8A9AA"/><path d="M834 567h1c1.31 6.56.53 10.83-2 17h-2l-1 3c.79-6.79 2.41-13.36 4-20" fill="#DEDFE2"/><path d="M860 276c4.71.48 8.67.97 13 3v1h-5l-1 2-1.81-.5C863 281 863 281 860 281z" fill="#0A0A0C"/><path d="M944 400c1.41 2.63 2.62 5.02 3 8-.71 2.32-.71 2.32-1.81 4.69l-1.08 2.38C943 417 943 417 941 418a343 343 0 0 1 3-18" fill="#DEDFE1"/><path d="m383.81 346.88 3.52.05q1.31.04 2.67.06v1h-10v2l2 1c-2.15.18-2.15.18-13 1 4.7-4.7 8.26-5.25 14.81-5.12" fill="#BBA976"/><path d="m907 382 2 1q-.43 3.32-.88 6.62l-.49 3.73A54 54 0 0 1 905 403h-1c-.43-7.35 1.18-13.9 3-21" fill="#050608"/><path d="M883 333a21.3 21.3 0 0 1 10 8l-1 4-10-10z" fill="#ECEBEF"/><path d="M861 382h1l.38 2.38C863 387 863 387 865 389l-4 12h-1c-.12-6.43.18-12.62 1-19" fill="#E7E7EA"/><path d="M264 366h1l.08 1.74q.17 3.95.36 7.88l.12 2.74c.22 4.62.54 9.09 1.44 13.64h-3a76 76 0 0 1-.56-17.5l.16-2.49q.19-3.01.4-6.01" fill="#B1B2B2"/><path d="m410 368 2 1v15l-4 1z" fill="#140A04"/><path d="M401 353c3.66 3.36 6.21 6.33 8 11-.31 2.38-.31 2.38-1 4l-1.88-2.44C404 363 404 363 402 362v-2h2l-1.5-2.38C401 355 401 355 401 353" fill="#E0CF6F"/><path d="M461 256c3 3 3 3 3.33 5.12l-.08 2.32-.05 2.31A33 33 0 0 1 463 272h-2z" fill="#F4F3F5"/><path d="M548 285a32 32 0 0 1-9.25 5.19l-2.7 1.04-2.05.77v-3c9.02-5.18 9.02-5.18 14-4" fill="#E1E3E3"/><path d="m782.29 671.9 2.78.04 2.78.02 2.15.04c-2.55 2.55-4.46 2.91-8.01 3.11h-2.1q-1.12-.02-2.28-.02l-2.36-.03h-2.4L767 675l1-2 2.38.03 3.06.03 3.06.04c2.87-.12 2.99-1.08 5.79-1.2" fill="#080A09"/><path d="M839 514h1l1 18-3 1c-.11-6.44.04-12.63 1-19" fill="#F4F4F8"/><path d="m504 297 2.31 1.06C509 299 509 299 512 298v4c-1.62.69-1.62.69-4 1-3.25-1.44-3.25-1.44-6-3z" fill="#F3F4F3"/><path d="M759 238a49 49 0 0 1 7 4c-3.97 1.52-7.2.5-11.25-.44l-3.83-.87L748 240c3.89-2.12 6.53-2.45 11-2" fill="#D7D9DA"/><path d="M870 655a13 13 0 0 1 5.81 2.25c1.19 1.75 1.19 1.75 1.31 4.06-1.67 4-4.72 6.11-8.12 8.69l-3-2 3.44-1.69c2.61-1.5 3.42-2.01 4.75-4.81-.19-2.5-.19-2.5-2.13-4.81z" fill="#E3E3E3"/><path d="M905 375h1c.37 16.89.37 16.89-2 24l-2-2c.38-3.62.38-3.62 1-7h2z" fill="#B9BABE"/><path d="M291 368h9v4l4 1c-7.26.62-7.26.62-11-2.5z" fill="#0E0D04"/><path d="M320 246c5.75 3.75 5.75 3.75 8 6v4h-4v-4h-2v-3h-2z" fill="#23252A"/><path d="M285 226h4l-1.38 5.44-.77 3.06C286 237 286 237 284 238q-.05-2.43-.06-4.88l-.04-2.74c.1-2.38.1-2.38 1.1-4.38" fill="#0F1212"/><path d="M249 655c-2.86 2.86-5.15 2.41-9.12 2.62l-3.89.23-2.99.15-1-2q2.84-.55 5.69-1.06l3.2-.6c3.02-.33 5.19-.11 8.11.66" fill="#E9EBEA"/><path d="M399 517c0 3.34-.59 4.4-2.31 7.19l-1.3 2.17L394 528h-3c-2.19 1-2.19 1-4 2a172 172 0 0 1 12-13" fill="#CECFCF"/><path d="M900 357c3.45 2.67 4.12 5.84 5 10-.38 2.44-.38 2.44-1 4v-2h-2c-2-4.12-2.18-7.45-2-12" fill="#D1D3D6"/><path d="M862 347h2c.8 3.29 1.1 4.71 0 8a77 77 0 0 0-.32 4.01l-.37 7.09-.31 5.9h-1z" fill="#E5E7EA"/><path d="M380 348h11v2h-3v4h-2v-2h-2v-2h-4z" fill="#F1DD64"/><path d="m474 680-4 1v2a83 83 0 0 1-16-1v-1c6.69-.62 13.28-1.13 20-1" fill="#E3E3E5"/><path d="M389 377c.62 1.81.62 1.81 1 4l-2 3h-2v2l-8 2-1-2 1.61-.7c4.59-2.12 7.51-3.98 10.39-8.3" fill="#E1D478"/><path d="M283 239h2v2l2 1-2 12c-2-2-2-2-2.2-5.04l.08-3.58.05-3.61z" fill="#080708"/><path d="M822 616c1.1 3.41.94 6.21.56 9.75l-.31 2.98L822 631l-4 1c1.15-5.4 2.42-10.71 4-16" fill="#D2D2D3"/><path d="m289 553 2 3-3 2-1.88 3.5c-1.49 2.78-1.94 3.41-4.87 4.94L279 567l1.17-1.54c3.08-4.07 6.05-8.18 8.83-12.46" fill="#1A1B1C"/><path d="M323 377c0 3 0 3-1 5.19-2.37 2.14-3.09 2.07-6.19 2.06L312 384v-2l1.64-.59 2.17-.79 2.15-.77C320 379 320 379 323 377" fill="#261A0B"/><path d="M286 352h1l.3 2.38c.92 6.45 2.02 11.22 5.7 16.62l-3 1c-3.75-6.78-4.52-12.31-4-20" fill="#B1B499"/><path d="M329 355h2c.22 5.44.1 9.87-2 15h-1l-.06-5.25-.04-2.95c.09-2.46.39-4.46 1.1-6.8" fill="#D3C26E"/><path d="M977 528c2 1 2 1 3.12 3.06 1.16 3.88 1.15 6.89.88 10.94l-2 2-.15-2.01c-.74-8.77-.74-8.77-2.85-12.99z" fill="#EBECEE"/><path d="M885 449c2 3 2 3 1.69 5.36L886 457l-.54 2.68L884 467l-2-1a94 94 0 0 1 3-17" fill="#19191A"/><path d="m388.56 363.94 2.44.06v6h-7v-2h2l-1-3c1-1 1-1 3.56-1.06" fill="#120B12"/><path d="M821 615c1.12 3.3.9 5.05-.44 8.25l-.87 2.14L819 627h-2v-7l2-1c1.12-2.06 1.12-2.06 2-4" fill="#0A0A0B"/><path d="m309 369 2 1-1 6h-2v-2h-10v-1a208 208 0 0 0 4.38-.88l2.46-.49C307 371 307 371 309 369" fill="#D9C16C"/><path d="M820 631c0 3.44-.71 5.81-2 9l-3 2c.46-3.47.89-6.67 2-10z" fill="#E0E0E5"/><path d="m968 555-1 3h-12v-2a60 60 0 0 1 13-1" fill="#F0F2F3"/><path d="m751 236 1 3q-2.37.08-4.75.12l-2.67.08A13.3 13.3 0 0 1 738 237c4.41-1.1 8.48-1.08 13-1" fill="#EFF0F2"/><path d="M934 499c5.75 3.75 5.75 3.75 8 6v3a20 20 0 0 1-8-6z" fill="#DADBDB"/><path d="m345 257 1.64.84 4.32 2.19C353 261 353 261 356 262v2c-6.36-.49-6.36-.49-9.44-2.94C345 259 345 259 345 257" fill="#E6E7E7"/><path d="M901 397h2l-1 10-3 1 .44-4.94.24-2.77C900 398 900 398 901 397" fill="#EAECF0"/><path d="M314 362c1.42 4.25.19 6.72-1 11h-3c.51-4.39 1.52-7.34 4-11" fill="#E7D061"/><path d="M316 344h8l-1 4-1-2h-2v2h-4z" fill="#EEDB60"/><path d="m632 250 1 2-11 3c1.8-5.39 4.9-5.23 10-5" fill="#DFDFE1"/><path d="M370 654v2c-2.98 2.98-5.02 4.53-9 6 4.54-8 4.54-8 9-8" fill="#CACCCB"/><path d="m272 571 3 1-2.81 4-1.58 2.25L269 580h-3z" fill="#E0E0E3"/><path d="m890 431 2 2-3 9-1-2-2-1c2.88-6.88 2.88-6.88 4-8" fill="#DEDEE3"/><path d="m398 394 2 1c.62 2.06.62 2.06 1 4l-2 1v-2h-9a32 32 0 0 1 8-4" fill="#2B2012"/><path d="m368 386 10 1v1h-8v4l-4-1v-3h2z" fill="#F5E279"/><path d="m296 378 1.81 1.38c4.53 2.31 9.19 2.88 14.19 3.62v1c-5.74.2-10.61.27-16-2z" fill="#1C1107"/><path d="m458 301 1 3h2v15h-1l-1-10h-1z" fill="#2A2A2C"/><path d="m856.5 271.69 2.41-.05 2.09.36 2 3-13-1c2.43-2.42 3.17-2.3 6.5-2.31" fill="#E4E2E5"/><path d="M207 628h2v11h-2l-.56-4.94-.32-2.77L206 629z" fill="#EFF3F0"/><path d="m373 542 2 3c-2.83 3.25-4.69 4.52-9 5l2.94-3.44 1.65-1.93q1.16-1.36 2.41-2.63" fill="#D6D9DA"/><path d="m942 417 2 2c-.23 2.96-.61 4.55-2.56 6.81L940 427c-1.01-2.73-1.05-3.86-.12-6.69C941 418 941 418 942 417" fill="#EEEEF0"/><path d="M312 350h3v9h-3z" fill="#0A0705"/><path d="M455 235.63c2.57 1.77 3.08 3.44 4 6.38q-.99.96-2 2l-1.88-2.88C453 238 453 238 451 236c2-1 2-1 4-.38" fill="#E0E0E3"/><path d="m321 621 4 1-7 6c0-4 0-4 1.25-5.81z" fill="#DCDCE0"/><path d="m954 515 9 2-1 3c-5.75-1.88-5.75-1.88-8-3z" fill="#D7D8D9"/><path d="m848 454 3 1c-.57 3.87-2.49 6.08-5 9l.44-4.44.24-2.49C847 455 847 455 848 454" fill="#D7D7DA"/><path d="M883 450h2l-2 11-3-4c1.23-5.23 1.23-5.23 3-7" fill="#E0E0E1"/><path d="M327 375c1.03 3.1 1.18 4.06 0 7l-3 1-2-1c1.25-3.65 1.67-4.78 5-7" fill="#080402"/><path d="M612 259c0 2 0 2-1.62 3.69-3.16 1.74-4.96 1.16-8.38.31 2.98-2.98 5.8-4 10-4" fill="#1D1D20"/><path d="m823 616 3 1-.88 4.44-.49 2.49L824 626l-2 1c-.14-7.43-.14-7.43 1-11" fill="#F2F2F4"/><path d="M300 613c-1.39 3.37-2.98 4.99-6 7l-2-1c4.62-6 4.62-6 8-6" fill="#EEF0F3"/><path d="m292 546 3 1-7 9-1-3c1-1.82 1-1.82 2.44-3.69l1.43-1.88z" fill="#DDDDDF"/><path d="M407 383c1 3 1 3-.06 6.06-2.33 3.53-3.9 4.04-7.94 4.94l1.24-1.39 1.64-1.86 1.61-1.83A28 28 0 0 0 407 383" fill="#2C1E0C"/><path d="M364 382h4v2q4.47 1.13 9 2v1c-5.69.46-8.54-.41-13-4z" fill="#433616"/><path d="m339 380-2 1a98 98 0 0 0-2 6l-1.38-1.88C332 383 332 383 330 381c2.96-1.48 5.74-1.06 9-1" fill="#565758"/><path d="M270 317h1q.08 2.38.12 4.75l.08 2.67A13.3 13.3 0 0 1 269 331c-.93-5.42-1.21-8.8 1-14" fill="#EDEDEF"/><path d="M590 269c-3.09 3.09-6.55 3.94-10.88 4.12L577 273c3.47-3.47 8.2-6.11 13-4" fill="#191919"/><path d="M363 265h8l1 2c-3.06.54-5.89 1-9 1z" fill="#181919"/><path d="M734 235h8l1 2c-4.96 1.32-9.91 1.09-15 1v-1h6z" fill="#D5D5D8"/><path d="M264 664h2v10l-2-1c-.45-1.81-.45-1.81-.69-4l-.26-2.19L263 665z" fill="#EDF1F0"/><path d="m291 618 2 1c-1.44 3.81-3.35 5.27-7 7l-2-1z" fill="#D1D4D4"/><path d="M824 597h3q-.17 2.19-.38 4.38l-.21 2.46C826 606 826 606 824 608c-1.26-2.52-.92-3.85-.56-6.62z" fill="#090A0A"/><path d="M831 584h3l-1 7-3 1z" fill="#F2F4F5"/><path d="M834 550h1q.07 2.68.12 5.38l.08 3.02c-.2 2.6-.2 2.6-2.2 4.6-1-1-1-1-1.06-3.56L832 557h2z" fill="#060606"/><path d="M978 542h4l-2 6-5 1z" fill="#DCDCDF"/><path d="M675 474v7l-2-1v-3h-2v-2l-3-1c3.13-1.04 3.99-.93 7 0" fill="#CACCCD"/><path d="M936 432h3c-1.88 5.75-1.88 5.75-3 8h-2c.88-6.88.88-6.88 2-8" fill="#E7E9EA"/><path d="M944 358h2c1.76 3.33 2.11 4.59 1.12 8.31L946 369h-1z" fill="#E0E2E2"/><path d="m394 357-2 8a37 37 0 0 1-4-8c3-1 3-1 6 0" fill="#E1CC74"/><path d="M516 296q3.01.43 6 1c-2.99 1.99-5.6 2.94-9 4 1.88-3.88 1.88-3.88 3-5" fill="#E5E6E5"/><path d="M882 280c3.37.55 5.08 1.05 8 3v2c-2.88-.25-2.88-.25-6-1-1.38-2.06-1.38-2.06-2-4" fill="#E3E3E5"/><path d="M279 257h1v9l-3-1c-.12-2.88-.12-2.88 0-6z" fill="#EFF2F4"/><path d="m282 258 2 1c.37 5.54.37 5.54-1.5 7.88L281 268c-.12-7.75-.12-7.75 1-10" fill="#020202"/><path d="M321 237c4.21 1.5 5.74 4.29 8 8l-4-1v-2l-3-1c-.69-2.06-.69-2.06-1-4" fill="#111214"/><path d="M258 590c-1.37 3.16-1.99 3.99-5 6l-1-3c2.62-3 2.62-3 6-3" fill="#EEEEF2"/><path d="m277 569 2 1v2l-4 1zm-4 5v3c-2 1.69-2 1.69-4 3 1.15-2.47 2.05-4.05 4-6" fill="#18171B"/><path d="M297 538h1c.37 4.55.37 4.55-1.5 6.81L295 546l-3-1 2.44-3.5 1.37-1.97z" fill="#EAEBEE"/><path d="M580 513c-1.12 1.56-1.12 1.56-3 3-3.19-.31-3.19-.31-6-1 3.05-3.05 5.05-3.23 9-2" fill="#E2E4E3"/><path d="m883 500 3 1v7c-3-2-3-2-3.75-4-.25-2-.25-2 .75-4" fill="#E7E7EA"/><path d="M844 482c1.23 3.69.64 6.21 0 10h-2c-.25-6.62-.25-6.62 2-10" fill="#F2F2F6"/><path d="m926 453 2 1-3 11-1-3-2-1h2z" fill="#08090A"/><path d="m310 366 2 1c-2.25 2.56-2.25 2.56-5 5-2.31-.19-2.31-.19-4-1 2-3 2-3 4.06-3.62L309 367z" fill="#1C1205"/><path d="M841 674v1c-5.57 1.66-9.31 2.19-15 1v-1a80 80 0 0 1 15-1" fill="#E0DEE2"/><path d="m814 641 2 1-1 7h-3a60 60 0 0 1 2-8" fill="#ABAAB0"/><path d="m366 391 6 1v2l4 1v2a48 48 0 0 1-10-5z" fill="#D8C672"/><path d="M271 312h2l-1 12h-1l-.56-5.44-.32-3.06-.12-2.5z" fill="#DFE0E1"/><path d="M403 267q2.51.43 5 1v2l-3.81.12-2.15.08C400 270 400 270 397 268l2.44.06C402 268 402 268 403 267" fill="#F0F1F0"/><path d="M252 594c.69 1.81.69 1.81 1 4-1.31 1.75-1.31 1.75-3 3h-2c.56-3.27 1.5-4.83 4-7" fill="#DEDEE2"/><path d="m265 579 2 1c-1.37 3.16-1.99 3.99-5 6 .75-4.75.75-4.75 3-7" fill="#EFEEF3"/><path d="M899 528c3.8 1.49 5.61 3.76 8 7-2.88-.69-2.88-.69-6-2-1.38-2.62-1.38-2.62-2-5" fill="#EDEDEF"/><path d="M347 467h2l-2 5h-3c1.88-3.88 1.88-3.88 3-5m-4 5v3l-2-1z" fill="#ECECEE"/><path d="M899 413c1.5 1.38 1.5 1.38 3 3v2h-2v2h-3z" fill="#1A1B1E"/><path d="m859 408 2 2c-.38 3.12-.38 3.12-1 6l-3 1z" fill="#F2F3F5"/><path d="M296 374h8l-2 3-7-1z" fill="#F4DF66"/><path d="M937 333h2a25 25 0 0 1 3 5l-1 2-3-1z" fill="#E9E9ED"/><path d="m854 316 2 1c.41 2.07.41 2.07.62 4.56l.23 2.51.15 1.93h-2v-4h-2z" fill="#262829"/><path d="M461 272h2c1.62 2.57 2.04 3.68 1.62 6.75L464 281h-1v-5h-2z" fill="#EBECEE"/><path d="m790 249 6 2-1 3-7-3z" fill="#DDDDDF"/><path d="m323 623 2 1-5 7-2-1a19 19 0 0 1 5-7" fill="#080809"/><path d="m387 536 1 4c-1.44 2.25-1.44 2.25-3 4l-3-1z" fill="#222324"/><path d="M942 507c3.27.56 4.83 1.5 7 4l-3 1c-2.19-1.31-2.19-1.31-4-3z" fill="#E7E8E9"/><path d="m842 500 2 2c-.38 2.12-.38 2.12-1 4h-2l-1 2v-7z" fill="#F4F4F9"/><path d="M856 414a21 21 0 0 1 3 4c-.12 2.19-.12 2.19-1 4l-3 1z" fill="#D7D9DB"/><path d="m902 403 2 2c-.38 3.62-.38 3.62-1 7h-3z" fill="#191A1E"/><path d="M326 370h2c-1.19 3.38-2.28 5.65-5 8l-1-2h2l.44-2.44C325 371 325 371 326 370" fill="#DFC971"/><path d="M384 350v2h2v2h2l-1 3a79 79 0 0 1-7-6c2-1 2-1 4-1" fill="#DAC973"/><path d="M892 284.19c2 .8 2 .8 3.25 2.88L896 289c-5.75-1.75-5.75-1.75-8-4 2-1 2-1 4-.81" fill="#D7D7D9"/><path d="M377.81 647.19q1.07.4 2.2.8l-1.76.82A41 41 0 0 0 372 653l-2-1c4.31-5.04 4.31-5.04 7.81-4.81" fill="#C8C9CA"/><path d="M241 603v2h-8c1.86-3.72 4.55-3.07 8-2" fill="#F1F1F3"/><path d="m358 577 3 1-2 1c-.62 2.56-.62 2.56-1 5l-4-2z" fill="#191B1B"/><path d="m376 539 3 1-1 3c-2.06.69-2.06.69-4 1 .88-3.88.88-3.88 2-5" fill="#E4E4E3"/><path d="m848 460 2 1a98 98 0 0 1-2 6l-2 1c.88-6.88.88-6.88 2-8" fill="#F4F5F8"/><path d="M380 394v2h2v2h-5l-1-3c2-1 2-1 4-1" fill="#E9D671"/><path d="M322 378c-2.4 2.9-4.31 3.5-8 4l1-3c2.46-1.23 4.28-1.07 7-1" fill="#E1C569"/><path d="M300 370v2l4 1c-6.05.2-6.05.2-8 0l-2-2c3-1 3-1 6-1" fill="#1A1205"/><path d="M382 353c3.16 1.37 3.99 1.99 6 5l-4 1z" fill="#271D11"/><path d="m549 281 2 1-1 3-6-1c2-2 2-2 5-3" fill="#ECEFED"/><path d="m436 244 2 1c-.69 1.94-.69 1.94-2 4-2.62.75-2.62.75-5 1z" fill="#050707"/><path d="m459 241 2 1q.61 3.49 1 7l-2-1v-2h-2z" fill="#F3F1F5"/><path d="m441 243 2 1-5 6-3-1z" fill="#171918"/></svg>