<svg style="background:transparent" version="1.1" xmlns="http://www.w3.org/2000/svg" viewBox="0 0 1248 704"><path d="m948 101 3.43.09c17.32.73 35.18 4.18 51.18 10.95 2.39.96 2.39.96 5.33 1.88 7.61 2.69 14.18 6.96 18.06 14.08l1.62 1.44c2.92 3.31 3.28 7.69 3.76 11.94-.73 6.99-3.11 11.96-8.5 16.56-6.75 4.73-12.88 5.56-20.94 4.37A98 98 0 0 1 987 158a75 75 0 0 0-16-4l-2.88-1c-7.35-2.35-15.46-2.47-23.12-2l-1 1c-2.49.07-4.97 0-7.46-.06-2.4.06-4.24.4-6.54 1.06l-2.48.58A57 57 0 0 0 910 161l-3.31 2.06A45 45 0 0 0 900 169l-1.93 1.86c-6.95 7.2-12.91 19.75-13.13 29.86L885 203q-.96 3.01-2 6c-1.34 4.03-2.49 8.1-3.62 12.19l-.67 2.34A117 117 0 0 0 876 236a99 99 0 0 1-3 6c-2.87 5.62-2.87 5.62-3.88 8.5-1.49 3.33-3.78 5.71-6.12 8.5l-1.56 3.25c-1.61 3.07-2.42 3.38-5.44 4.75l-.88 1.81c-1.31 2.56-2.86 4.09-4.93 6.07a73 73 0 0 0-6.88 7.43c-2.36 2.75-4.16 3.97-7.31 5.69q-2.23 1.45-4.44 2.94l-2.36 1.58a405 405 0 0 0-5.26 3.6C814.73 302 814.73 302 811 302c.62 3.25 1.74 5.28 3.69 7.94 6.15 8.96 10.02 19.05 12.81 29.5q1.18 4.5 2.56 8.94c1.61 6.22 2.95 12.82 2.93 19.27A24 24 0 0 0 834 374q.06 2.22 0 4.44c-.05 4.05.16 8.02.5 12.06 1.19 14.42 1.19 14.42-.5 19.5a72 72 0 0 0-.06 4.41l.02 2.56.04 2.65.06 5.23.04 2.34C834 429 834 429 833 430c-.07 3.01 0 6.01.06 9.02-.06 2.98-.06 2.98-.56 4.8-.63 2.75-.61 5.29-.6 8.12l.01 3.46.03 3.6a983 983 0 0 0 .04 10.22c.04 6.73.04 6.73-.98 8.78q-.14 2.2-.13 4.39l-.01 2.65.02 2.77-.02 2.74c.01 4.29.13 8.25 1.14 12.45v6c.36 2.99.72 5.92 1.47 8.84.65 2.66 1.09 5.33 1.53 8.04l.5 3.05.5 3.07.52 2.65c.58 4.05.64 7.99.65 12.07l.01 2.5.01 5.19q0 3.97.03 7.94l.01 5.06.02 2.38c-.02 4.21-.43 7.41-2.25 11.21-.34 2.21-.34 2.21-.5 4.38-.38 4.06-1.33 7.69-2.5 11.62q-.5 2.43-.94 4.88c-.8 4.17-2 8.03-3.41 12.03-.65 2.09-.65 2.09-1.15 5.71-.58 3.89-1.84 6.82-3.5 10.38l-2.19 4.94L819 639c1.96 1.96 5.48 1.82 8.16 2.23l4.56.74 2.43.38c58 9.29 58 9.29 66.85 19.65.81 2.56.81 2.56 0 5-7.82 8.67-20.72 10-31.69 11.62l-2.11.32c-54.57 8.16-111.04 4.33-165.9 1.16q-10.15-.57-20.3-1.1l-3.05-.16c-21.63-1.09-43.27-1.03-64.92-1.03q-6.32 0-12.63-.02c-26.87-.08-53.59.38-80.4 2.21l-2.04.14q-14.14.96-28.27 2.11l-4.03.32c-44.99 3.63-89.79 8.82-134.58 14.36-43.97 5.44-43.97 5.44-54.46 5.13-4.68-.1-9.03-.09-13.62.94-10.95 1.38-19.33 1.22-29.65-2.8-3.85-1.38-7.28-1.73-11.33-1.96-3.93-.46-6.32-2.54-9.02-5.24l-1.88-.31c-3.1-1.01-4.26-3.1-6.12-5.69l2-5 .75-2.62c1.72-3.27 3.99-3.82 7.25-5.38 1.19-2.09 1.19-2.09 2-4l-1.87.99c-13.16 6.79-23.58 8.73-38.13 5.01l-2.41-.55c-7-1.9-10.29-5.46-13.84-11.63-3.79-7.64-3.47-13.29-.87-21.26 3.25-7.95 8.9-13.72 16.62-17.56 4.49-1.28 8.85-1.68 13.5-2 18.96-1.61 35.72-23.69 47.45-37.14 1.64-1.96 3.16-3.99 4.67-6.05a73 73 0 0 1 9.5-10.31c1.38-1.5 1.38-1.5 2.88-4.12C276 563 276 563 279 562q1.03-1.99 2-4 2.67-3.44 5.44-6.81a451 451 0 0 0 12.75-16.44l1.42-1.91c1.9-2.6 3.36-4.76 4.39-7.84l-3.75-1.19c-4.9-1.62-9.62-3.59-14.36-5.63C284 517 284 517 280.9 516c-8.41-2.9-14.36-9.21-20.39-15.47a44 44 0 0 0-5.89-5.09c-18.17-16.88-18.39-61.51-19.28-84.42-.37-9.03-1.63-17.89-2.87-26.83a233 233 0 0 1-1.9-29.84q-.02-3.66-.11-7.32c-.15-14.87-.15-14.87 5.54-21.03l2.25-2.94c3.89-2.92 6.92-3.55 11.75-3.06 10.37 3.1 19.8 9.11 29.06 14.56L285 338l2.7 1.55c9.5 5.16 17.06 3.59 27.24.95 4.63-1.12 9.36-1.76 14.06-2.5l2.18-.35c3.75-.55 7.41-.68 11.2-.65 15.43.09 15.43.09 21.62-5l1.57-1.25c13.77-11.27 13.77-11.27 16.47-16.93 1.25-2.38 2.55-2.74 4.96-3.82a89 89 0 0 0 3.44-3c3.95-3.43 6.58-5 11.94-5 5.72 1.58 9.21 4.78 12.37 9.75 1.35 3.52 2.47 7.06 3.5 10.69a117 117 0 0 0 1.74 5.4 90 90 0 0 1 2.57 10.78A200 200 0 0 0 425 350q.8 3.63 1.56 7.25l.82 3.83.62 2.92a91 91 0 0 0 19.82-10.63c2.32-1.46 4.64-2.36 7.18-3.37a82 82 0 0 0 3.69-2.5c9.28-6.34 19.44-11.41 29.31-16.75q5.16-2.8 10.19-5.87c3.53-2.15 7.09-4.08 10.8-5.88 4.68-2.33 9.23-4.92 13.7-7.62 3.27-1.95 6.68-3.57 10.09-5.26a675 675 0 0 0 24.35-12.58q4.4-2.35 8.87-4.54l2.63-1.32L576 284l1.97-1.03a73 73 0 0 1 7.41-2.91A97 97 0 0 0 597 275a393 393 0 0 1 10-4l2.11-.82A262 262 0 0 1 631 263l2.65-.93a126 126 0 0 1 12.29-3.07 162 162 0 0 0 12.6-3.06 73 73 0 0 1 11.96-2l4.34-.48 1.92-.19q2.8-.35 5.58-.79c5.96-.78 11.91-.66 17.91-.67l3.82-.03c6.72-.02 13.03.34 19.61 1.75 2.26.46 4.46.72 6.76.91 4.58.46 8.92 1.57 13.38 2.74q4.9 1.24 9.87 2.32c4.52 1.03 8.86 2.24 13.21 3.85 6.62 2.05 10.08 1.3 16.16-1.6l2.11-.95A91 91 0 0 0 796 255l2.72-1.68 2.78-1.76 2.78-1.74c11.34-7.58 18.97-18.58 24.72-30.82l1-1.88c2.96-5.91 3.85-11.64 4.61-18.18C835 196 835 196 836 194q.34-2.96.62-5.93c.43-2.33 1.31-3.96 2.38-6.07q1.05-3.2 2-6.44a108 108 0 0 1 6.94-17.62l1.52-3.1A47 47 0 0 1 854 148l1.81-2.81c2.47-3.6 5.04-7.15 8.19-10.19h2l.75-1.81c1.47-2.58 2.82-3.49 5.25-5.19l3.06-2.75A68 68 0 0 1 895 113l2.44-1.56c2.9-1.63 5.29-1.91 8.56-2.44l2.62-1.44c4.13-1.91 8.01-2.43 12.49-3.09 3.39-.55 6.59-1.52 9.89-2.47a88 88 0 0 1 17-1" fill="#121412"/><path d="m948 101 3.43.09c17.32.73 35.18 4.18 51.18 10.95 2.39.96 2.39.96 5.33 1.88 7.61 2.69 14.18 6.96 18.06 14.08l1.62 1.44c2.92 3.31 3.28 7.69 3.76 11.94-.73 6.99-3.11 11.96-8.5 16.56-6.75 4.73-12.88 5.56-20.94 4.37A98 98 0 0 1 987 158a75 75 0 0 0-16-4l-2.88-1c-7.35-2.35-15.46-2.47-23.12-2l-1 1c-2.49.07-4.97 0-7.46-.06-2.4.06-4.24.4-6.54 1.06l-2.48.58A57 57 0 0 0 910 161l-3.31 2.06A45 45 0 0 0 900 169l-1.93 1.86c-6.95 7.2-12.91 19.75-13.13 29.86L885 203q-.96 3.01-2 6c-1.34 4.03-2.49 8.1-3.62 12.19l-.67 2.34A117 117 0 0 0 876 236a99 99 0 0 1-3 6c-2.87 5.62-2.87 5.62-3.88 8.5-1.49 3.33-3.78 5.71-6.12 8.5l-1.56 3.25c-1.61 3.07-2.42 3.38-5.44 4.75l-.88 1.81c-1.31 2.56-2.86 4.09-4.93 6.07a73 73 0 0 0-6.88 7.43c-2.36 2.75-4.16 3.97-7.31 5.69q-2.23 1.45-4.44 2.94l-2.36 1.58a405 405 0 0 0-5.26 3.6C814.73 302 814.73 302 811 302c.62 3.25 1.74 5.28 3.69 7.94 6.15 8.96 10.02 19.05 12.81 29.5q1.18 4.5 2.56 8.94c1.61 6.22 2.95 12.82 2.93 19.27A24 24 0 0 0 834 374q.06 2.22 0 4.44c-.05 4.05.16 8.02.5 12.06 1.19 14.42 1.19 14.42-.5 19.5a72 72 0 0 0-.06 4.41l.02 2.56.04 2.65.06 5.23.04 2.34C834 429 834 429 833 430c-.07 3.01 0 6.01.06 9.02-.06 2.98-.06 2.98-.56 4.8-.63 2.75-.61 5.29-.6 8.12l.01 3.46.03 3.6a983 983 0 0 0 .04 10.22c.04 6.73.04 6.73-.98 8.78q-.14 2.2-.13 4.39l-.01 2.65.02 2.77-.02 2.74c.01 4.29.13 8.25 1.14 12.45v6c.36 2.99.72 5.92 1.47 8.84.65 2.66 1.09 5.33 1.53 8.04l.5 3.05.5 3.07.52 2.65c.58 4.05.64 7.99.65 12.07l.01 2.5.01 5.19q0 3.97.03 7.94l.01 5.06.02 2.38c-.02 4.21-.43 7.41-2.25 11.21-.34 2.21-.34 2.21-.5 4.38-.38 4.06-1.33 7.69-2.5 11.62q-.5 2.43-.94 4.88c-.8 4.17-2 8.03-3.41 12.03-.65 2.09-.65 2.09-1.15 5.71-.58 3.89-1.84 6.82-3.5 10.38l-2.19 4.94L819 639c1.96 1.96 5.48 1.82 8.16 2.23l4.56.74 2.43.38c58 9.29 58 9.29 66.85 19.65.81 2.56.81 2.56 0 5-7.82 8.67-20.72 10-31.69 11.62l-2.11.32c-54.57 8.16-111.04 4.33-165.9 1.16q-10.15-.57-20.3-1.1l-3.05-.16c-21.63-1.09-43.27-1.03-64.92-1.03q-6.32 0-12.63-.02c-26.87-.08-53.59.38-80.4 2.21l-2.04.14q-14.14.96-28.27 2.11l-4.03.32c-44.99 3.63-89.79 8.82-134.58 14.36-43.97 5.44-43.97 5.44-54.46 5.13-4.68-.1-9.03-.09-13.62.94-10.95 1.38-19.33 1.22-29.65-2.8-3.85-1.38-7.28-1.73-11.33-1.96-3.93-.46-6.32-2.54-9.02-5.24l-1.88-.31c-3.1-1.01-4.26-3.1-6.12-5.69l2-5 .75-2.62c1.72-3.27 3.99-3.82 7.25-5.38 1.19-2.09 1.19-2.09 2-4l-1.87.99c-13.16 6.79-23.58 8.73-38.13 5.01l-2.41-.55c-7-1.9-10.29-5.46-13.84-11.63-3.79-7.64-3.47-13.29-.87-21.26 3.25-7.95 8.9-13.72 16.62-17.56 4.49-1.28 8.85-1.68 13.5-2 18.96-1.61 35.72-23.69 47.45-37.14 1.64-1.96 3.16-3.99 4.67-6.05a73 73 0 0 1 9.5-10.31c1.38-1.5 1.38-1.5 2.88-4.12C276 563 276 563 279 562q1.03-1.99 2-4 2.67-3.44 5.44-6.81a451 451 0 0 0 12.75-16.44l1.42-1.91c1.9-2.6 3.36-4.76 4.39-7.84l-3.75-1.19c-4.9-1.62-9.62-3.59-14.36-5.63C284 517 284 517 280.9 516c-8.41-2.9-14.36-9.21-20.39-15.47a44 44 0 0 0-5.89-5.09c-18.17-16.88-18.39-61.51-19.28-84.42-.37-9.03-1.63-17.89-2.87-26.83a233 233 0 0 1-1.9-29.84q-.02-3.66-.11-7.32c-.15-14.87-.15-14.87 5.54-21.03l2.25-2.94c3.89-2.92 6.92-3.55 11.75-3.06 10.37 3.1 19.8 9.11 29.06 14.56L285 338l2.7 1.55c9.5 5.16 17.06 3.59 27.24.95 4.63-1.12 9.36-1.76 14.06-2.5l2.18-.35c3.75-.55 7.41-.68 11.2-.65 15.43.09 15.43.09 21.62-5l1.57-1.25c13.77-11.27 13.77-11.27 16.47-16.93 1.25-2.38 2.55-2.74 4.96-3.82a89 89 0 0 0 3.44-3c3.95-3.43 6.58-5 11.94-5 5.72 1.58 9.21 4.78 12.37 9.75 1.35 3.52 2.47 7.06 3.5 10.69a117 117 0 0 0 1.74 5.4 90 90 0 0 1 2.57 10.78A200 200 0 0 0 425 350q.8 3.63 1.56 7.25l.82 3.83.62 2.92a91 91 0 0 0 19.82-10.63c2.32-1.46 4.64-2.36 7.18-3.37a82 82 0 0 0 3.69-2.5c9.28-6.34 19.44-11.41 29.31-16.75q5.16-2.8 10.19-5.87c3.53-2.15 7.09-4.08 10.8-5.88 4.68-2.33 9.23-4.92 13.7-7.62 3.27-1.95 6.68-3.57 10.09-5.26a675 675 0 0 0 24.35-12.58q4.4-2.35 8.87-4.54l2.63-1.32L576 284l1.97-1.03a73 73 0 0 1 7.41-2.91A97 97 0 0 0 597 275a393 393 0 0 1 10-4l2.11-.82A262 262 0 0 1 631 263l2.65-.93a126 126 0 0 1 12.29-3.07 162 162 0 0 0 12.6-3.06 73 73 0 0 1 11.96-2l4.34-.48 1.92-.19q2.8-.35 5.58-.79c5.96-.78 11.91-.66 17.91-.67l3.82-.03c6.72-.02 13.03.34 19.61 1.75 2.26.46 4.46.72 6.76.91 4.58.46 8.92 1.57 13.38 2.74q4.9 1.24 9.87 2.32c4.52 1.03 8.86 2.24 13.21 3.85 6.62 2.05 10.08 1.3 16.16-1.6l2.11-.95A91 91 0 0 0 796 255l2.72-1.68 2.78-1.76 2.78-1.74c11.34-7.58 18.97-18.58 24.72-30.82l1-1.88c2.96-5.91 3.85-11.64 4.61-18.18C835 196 835 196 836 194q.34-2.96.62-5.93c.43-2.33 1.31-3.96 2.38-6.07q1.05-3.2 2-6.44a108 108 0 0 1 6.94-17.62l1.52-3.1A47 47 0 0 1 854 148l1.81-2.81c2.47-3.6 5.04-7.15 8.19-10.19h2l.75-1.81c1.47-2.58 2.82-3.49 5.25-5.19l3.06-2.75A68 68 0 0 1 895 113l2.44-1.56c2.9-1.63 5.29-1.91 8.56-2.44l2.62-1.44c4.13-1.91 8.01-2.43 12.49-3.09 3.39-.55 6.59-1.52 9.89-2.47a88 88 0 0 1 17-1m-42.06 10.19-2.56.91c-12.28 4.54-22.63 11.12-32.38 19.9l-2.36 2.11c-19.28 18.21-27.49 43.81-31.87 69.28A61 61 0 0 1 831 221l-1.42 2.93c-10.92 20.59-28.09 31.4-48.58 41.07l-2.54 1.23c-7.43 2.32-14.37-.41-21.52-2.54l-6.75-1.94-3.26-.93A174 174 0 0 0 730 257l-3.34-.62c-50.32-7.84-99.59 7.83-144.84 28.35a440 440 0 0 1-7.72 3.39 387 387 0 0 0-29.63 14.56q-3.75 2-7.53 3.94a951 951 0 0 0-33.48 18.27 782 782 0 0 1-12 6.71c-8.75 4.81-17.36 9.84-25.96 14.9a1092 1092 0 0 1-26.87 15.46A351 351 0 0 1 425 369l-.1-2.32c-.53-8.81-2.09-17.1-4.15-25.68l-.87-3.83C414.49 314.3 414.49 314.3 406 306c-3.11-1.55-5.56-1.29-9-1-8.61 5.12-15.77 12.37-22.18 19.98-3.61 4.01-7.71 7.53-11.82 11.02l-1.87 1.6c-2.45 1.61-3.7 1.77-6.6 1.77l-2.69.05-2.9.02c-14.56.35-28.93 2.43-43.21 5.19l-3.18.6-2.83.57c-9.98.73-20.72-8.19-29.02-13.06-20.14-11.77-20.14-11.77-28.7-9.74-4.42 2.45-6.11 5.39-8 10a58 58 0 0 0-.4 8.71l-.01 2.54q0 4.06.03 8.13l.01 2.8c.05 12.71.73 25.06 2.65 37.64.77 5.09 1.01 10.11 1.16 15.24 1.07 31.29 3.45 71.82 27.18 94.63C276.85 513.13 293.75 521.6 310 522c-3.03 5.64-6.59 10.55-10.56 15.56l-1.88 2.39-3.78 4.79-4.76 6.09a554 554 0 0 1-17.54 21.45l-4.75 5.55a265 265 0 0 1-16.77 18.21 86 86 0 0 0-5.21 5.77c-7.88 9.12-19.18 21.96-31.49 23.73q-3.9.2-7.81.31c-7.46.32-12.27 3.15-17.69 8.18-5.9 6.6-7.25 14.31-7.17 22.93.84 6.29 4.99 10.11 9.79 13.92 7.69 5.64 19.56 5 28.62 4.12 7.96-1.73 15.01-5.94 22-10l-1.5 3.31c-2.16 5.88-2.77 11.96-.73 17.96 3.67 6.79 9.98 10.15 17.02 12.77 19.23 5.57 35 .23 51.78-8.95a358 358 0 0 0 19.48-11.92c5.42-3.5 10.93-6.83 16.45-10.17q11.75-7.1 23.31-14.47a733 733 0 0 1 15.33-9.44c14.27-8.57 28.08-17.75 41.86-27.09l2.51-1.69c30.86-20.88 30.86-20.88 40.71-30.47l2.22-2.15 1.87-1.93c3.35-2.19 6.51-2.91 10.37-3.88 34-9 65.95-24.32 97.32-39.88l2.49-1.24q9.2-4.55 18.39-9.14l2.48-1.23a1405 1405 0 0 0 31.37-16.14C651.21 500 651.21 500 655 500l.85 1.95c8.39 19.07 17.26 35.51 31.15 51.05l3.69 4.31c9.87 11.13 21.1 19.65 33.5 27.75 11.05 7.26 22.57 14.96 25.47 28.71.67 4.39 1.03 8.8 1.34 13.23l-3.88-.31c-5.87.03-10.35 1.94-15.12 5.31-5.15 5.27-8.27 10.98-8.38 18.44.13 5.02.82 7.82 4.38 11.56 12.22 10.25 31.85 10.12 47 9 15.11-2.69 27.43-11.59 36.56-23.69 11.87-17.58 15.28-39.25 19.65-59.61l.51-2.34a108 108 0 0 0 2.52-21.15l.03-2.21.04-7.06.01-2.44c.02-11.56-.74-22.47-3.35-33.78-2.65-11.96-2.13-24.36-2.09-36.53v-2.75c.05-31.04.05-31.04 1.63-46.45.56-6.17.65-12.3.66-18.5l.01-3.53.01-7.35.03-11.1c.05-17.08-.38-33.31-5.47-49.76l-.94-3.11c-3.45-11.14-8.25-21.1-14.27-31.06-1.65-2.77-2.54-4.29-2.54-7.58l3.23-1.4c10.15-4.51 19.08-9.67 27.77-16.6l2.7-2.14c11.33-9.6 19.51-21.79 26.3-34.86l1.43-2.69c5.53-11.22 8-23.77 10.8-35.89 4.53-19.46 10.67-37.39 28.52-48.61 21.41-12.05 45.61-12.77 69.07-6.43a443 443 0 0 1 14.66 4.51A79 79 0 0 0 1006 160l2.29.32c5.71.45 9.22-1.2 13.76-4.64 3.78-3.26 5.64-5.59 6.39-10.63.37-6.71-.22-11.66-4.44-17-8.62-8.85-18.45-12.57-30-16.05l-2.31-.71a552 552 0 0 0-9.01-2.64c-11.04-3.04-22.09-4-33.51-3.97q-3.06 0-6.11-.04c-12.86-.06-25 2.19-37.12 6.55" fill="#BBBDBB"/><path d="M656 500a21 21 0 0 1 2.45 4.79l1.3 3.02 1.37 3.25c7.01 15.9 15.33 29.02 26.88 41.94l3.75 4.38L695 561l1.52 1.69c8.07 8.5 17.91 15 27.67 21.37 10.84 7.1 23.1 15.35 26.5 28.63.45 4.77.39 9.52.31 14.31l-2.31.23c-7.71.98-12.57 3.06-18.69 7.77-2.54 1.27-3.3.82-6.02.13-7.8-1.65-15.72-1.87-23.66-2.24l-2.61-.13c-21.27-1.02-42.53-1.03-63.81-.96q-6.03.02-12.04.01-31.87-.02-63.72.64l-2.86.06a809 809 0 0 0-65.29 3.81c-6.48.66-12.94 1.06-19.45 1.34-5.44.33-10.83 1.1-16.23 1.79q-6.25.8-12.5 1.51l-2.06.24-4.18.49a2814 2814 0 0 0-33.07 4l-2.87.36-2.6.34-2.23.28c-1.8.33-1.8.33-3.8 1.33q-2.31.26-4.62.44A73 73 0 0 0 373 651c1.2-3.61 1.98-3.87 5.18-5.72l2.71-1.61 2.99-1.73a590 590 0 0 0 28.8-18.3L424 616l2.51-1.69c30.86-20.88 30.86-20.88 40.71-30.47l2.22-2.15 1.87-1.93c3.35-2.19 6.51-2.91 10.37-3.88 34-9 65.95-24.32 97.32-39.88l2.49-1.24q9.2-4.55 18.39-9.14l2.48-1.23a1492 1492 0 0 0 33.52-17.27l13.33-7.04c3.05-1.18 3.87-1.36 6.79-.08" fill="#ECEEEC"/><path d="m948 101 3.43.09c17.32.73 35.18 4.18 51.18 10.95 2.39.96 2.39.96 5.33 1.88 7.61 2.69 14.18 6.96 18.06 14.08l1.62 1.44c2.92 3.31 3.28 7.69 3.76 11.94-.73 6.99-3.11 11.96-8.5 16.56-6.75 4.73-12.88 5.56-20.94 4.37A98 98 0 0 1 987 158a75 75 0 0 0-16-4l-2.88-1c-7.35-2.35-15.46-2.47-23.12-2l-1 1c-2.49.07-4.97 0-7.46-.06-2.4.06-4.24.4-6.54 1.06l-2.48.58A57 57 0 0 0 910 161l-3.31 2.06A45 45 0 0 0 900 169l-1.93 1.86c-6.95 7.2-12.91 19.75-13.13 29.86L885 203q-.96 3.01-2 6c-1.34 4.03-2.49 8.1-3.62 12.19l-.67 2.34A117 117 0 0 0 876 236a99 99 0 0 1-3 6c-2.87 5.62-2.87 5.62-3.88 8.5-1.49 3.33-3.78 5.71-6.12 8.5l-1.56 3.25c-1.61 3.07-2.42 3.38-5.44 4.75l-.88 1.81c-1.31 2.56-2.86 4.09-4.93 6.07a73 73 0 0 0-6.88 7.43c-2.36 2.75-4.16 3.97-7.31 5.69q-2.23 1.45-4.44 2.94l-2.36 1.58a405 405 0 0 0-5.26 3.6C814.73 302 814.73 302 811 302c.62 3.25 1.74 5.28 3.69 7.94 6.15 8.96 10.02 19.05 12.81 29.5q1.18 4.5 2.56 8.94c1.61 6.22 2.95 12.82 2.93 19.27A24 24 0 0 0 834 374q.06 2.22 0 4.44c-.05 4.05.16 8.02.5 12.06 1.19 14.42 1.19 14.42-.5 19.5a72 72 0 0 0-.06 4.41l.02 2.56.04 2.65.06 5.23.04 2.34C834 429 834 429 833 430c-.07 3.01 0 6.01.06 9.02-.06 2.98-.06 2.98-.56 4.8-.63 2.75-.61 5.29-.6 8.12l.01 3.46.03 3.6a983 983 0 0 0 .04 10.22c.04 6.73.04 6.73-.98 8.78q-.14 2.2-.13 4.39l-.01 2.65.02 2.77-.02 2.74c.01 4.29.13 8.25 1.14 12.45v6c.36 2.99.72 5.92 1.47 8.84.65 2.66 1.09 5.33 1.53 8.04l.5 3.05.5 3.07.52 2.65c.58 4.05.64 7.99.65 12.07l.01 2.5.01 5.19q0 3.97.03 7.94l.01 5.06.02 2.38c-.02 4.21-.43 7.41-2.25 11.21-.34 2.21-.34 2.21-.5 4.38-.38 4.06-1.33 7.69-2.5 11.62q-.5 2.43-.94 4.88c-.8 4.17-2 8.03-3.41 12.03-.65 2.09-.65 2.09-1.15 5.71-.58 3.89-1.84 6.82-3.5 10.38l-2.19 4.94L819 639c1.96 1.96 5.48 1.82 8.16 2.23l4.56.74 2.43.38c58 9.29 58 9.29 66.85 19.65.81 2.56.81 2.56 0 5-7.82 8.67-20.72 10-31.69 11.62l-2.11.32c-54.57 8.16-111.04 4.33-165.9 1.16q-10.15-.57-20.3-1.1l-3.05-.16c-21.63-1.09-43.27-1.03-64.92-1.03q-6.32 0-12.63-.02c-26.87-.08-53.59.38-80.4 2.21l-2.04.14q-14.14.96-28.27 2.11l-4.03.32c-44.99 3.63-89.79 8.82-134.58 14.36-44.01 5.45-44.01 5.45-53.77 5.19l-2.19-.02q-2.57-.03-5.12-.1l1-2c5.2-1.07 10.48-1.26 15.77-1.58 16.7-1.04 33.24-2.98 49.83-5.08q12.16-1.53 24.34-3.02l2.45-.3q23.7-2.91 47.42-5.46l3.33-.36c13.94-1.51 27.89-2.94 41.86-4.2l3.32-.3c83.44-7.54 167.63-6.79 251.17-1.06 19.62 1.33 39.2 1.6 58.86 1.66l6.66.04c75.4.48 75.4.48 100.99-12.34 1-1 1-1 1.31-3.38-.31-2.62-.31-2.62-1.89-4.13-3.03-1.87-6.03-2.89-9.42-3.99l-3.69-1.22c-9.71-2.97-19.56-4.99-29.56-6.72l-3.63-.64Q832.57 644.87 815 642a178 178 0 0 1 4.38-13.79c3.87-10.48 6.62-20.92 8.93-31.83l1.05-4.8 1-4.62.46-2.11c1.46-6.9 2.34-13.59 2.42-20.64l.03-2.21.04-7.06.01-2.44c.02-11.56-.74-22.47-3.35-33.78-2.65-11.96-2.13-24.36-2.09-36.53v-2.75c.05-31.04.05-31.04 1.63-46.45.56-6.17.65-12.3.66-18.5l.01-3.53.01-7.35.03-11.1c.05-17.08-.38-33.31-5.47-49.76l-.94-3.11a118 118 0 0 0-11-25.39l-1.13-1.92q-1.1-1.85-2.23-3.66c-2.5-4.14-2.5-4.14-2.25-6.75 1.2-2.89 3.47-3.43 6.22-4.61l2.27-.93c8.64-3.82 15.91-8.55 23.31-14.38l2.48-1.92c11.07-9.17 18.96-21.45 25.52-34.08l1.43-2.69c5.53-11.22 8-23.77 10.8-35.89 4.67-20.03 11.21-38.13 29.58-49.67 21.43-11.96 45.56-12.71 69.01-6.37a443 443 0 0 1 14.66 4.51A79 79 0 0 0 1006 159l2.29.32c5.72.45 9.11-1.29 13.76-4.52 3.18-2.94 4.74-5.53 5.45-9.82.13-6.76-.29-11.59-4.57-16.99-8.14-8.37-18.04-11.66-28.93-14.99l-2.32-.71q-3.45-1.05-6.93-2.04l-2.07-.6c-11.04-3.04-22.09-4-33.51-3.97q-3.06 0-6.11-.04c-12.86-.06-25 2.19-37.12 6.55l-2.56.91c-12.28 4.55-22.61 11.13-32.38 19.9l-2.14 1.89c-18.92 17.73-26.82 43.69-31.09 68.5A61 61 0 0 1 832 221l-1.42 2.93c-11.1 20.93-28.75 32.24-49.58 42.07l-2.54 1.23c-7.43 2.32-14.37-.41-21.52-2.54l-6.75-1.94-3.26-.93A174 174 0 0 0 730 258l-3.34-.62c-50.32-7.84-99.59 7.83-144.84 28.35a440 440 0 0 1-7.72 3.39 387 387 0 0 0-29.63 14.56q-3.75 2-7.53 3.94a951 951 0 0 0-33.48 18.27 782 782 0 0 1-12 6.71 1068 1068 0 0 0-27.86 16.02 986 986 0 0 1-27.19 15.5q-3.16 1.72-6.19 3.64C428 369 428 369 425 369l-.45-2.8c-8.06-48.99-8.06-48.99-18.55-59.2-3.11-1.55-5.56-1.29-9-1-8.38 4.28-15.34 12-21.36 19.09-11.96 13.9-11.96 13.9-19.01 15.42-2.66.16-5.28.17-7.94.11-9.11.11-17.88.92-26.88 2.32l-3.32.51c-4.27.68-8.52 1.36-12.76 2.18l-3.18.6-2.83.57c-9.98.73-20.72-8.19-29.02-13.06-18.7-10.93-18.7-10.93-26.64-10.3-4.09 1.11-5.91 3.85-8.17 7.2-1.34 3.56-1.19 7.12-1.19 10.88l-.02 2.54q-.01 4.1.01 8.19v2.82c.02 12.75.67 25.13 2.59 37.75.77 5.09 1.01 10.11 1.16 15.24 1.05 30.73 3.25 71.74 26.68 94.13 12.44 10.39 28.85 17.57 44.88 19.81a16 16 0 0 1-3.34 7.4l-1.46 1.93-1.58 2.05-1.62 2.13-5 6.49-1.5 1.94c-12.67 16.34-25.85 32.26-39.95 47.39l-5.19 5.62c-26.82 29.05-26.82 29.05-41.05 29.8l-3.85.1c-6.83.3-11.9 2.81-16.92 7.4-5.74 6.52-7.02 14.28-6.95 22.7.83 6.2 4.65 9.59 9.29 13.43 9.23 4.8 21.18 5.15 31.24 2.93A70 70 0 0 0 230 670l3.34-1.6q4.35-2.15 8.66-4.4l-.66 1.58c-2.57 6.81-3.84 13.58-1.64 20.69 3.7 7.23 11.17 9.87 18.45 12.51 7.94 2.15 16.67 1.88 24.85 2.22v2c-10.96 1.27-19.32 1.23-29.65-2.8-3.85-1.38-7.28-1.73-11.33-1.96-3.93-.46-6.32-2.54-9.02-5.24l-1.88-.31c-3.1-1.01-4.26-3.1-6.12-5.69l2-5 .75-2.62c1.72-3.27 3.99-3.82 7.25-5.38 1.19-2.09 1.19-2.09 2-4l-1.87.99c-13.16 6.79-23.58 8.73-38.13 5.01l-2.41-.55c-7-1.9-10.29-5.46-13.84-11.63-3.79-7.64-3.47-13.29-.87-21.26 3.25-7.95 8.9-13.72 16.62-17.56 4.49-1.28 8.85-1.68 13.5-2 18.96-1.61 35.72-23.69 47.45-37.14 1.64-1.96 3.16-3.99 4.67-6.05a73 73 0 0 1 9.5-10.31c1.38-1.5 1.38-1.5 2.88-4.12C276 563 276 563 279 562q1.03-1.99 2-4 2.67-3.44 5.44-6.81a451 451 0 0 0 12.75-16.44l1.42-1.91c1.9-2.6 3.36-4.76 4.39-7.84l-3.75-1.19c-4.9-1.62-9.62-3.59-14.36-5.63C284 517 284 517 280.9 516c-8.41-2.9-14.36-9.21-20.39-15.47a44 44 0 0 0-5.89-5.09c-18.17-16.88-18.39-61.51-19.28-84.42-.37-9.03-1.63-17.89-2.87-26.83a233 233 0 0 1-1.9-29.84q-.02-3.66-.11-7.32c-.15-14.87-.15-14.87 5.54-21.03l2.25-2.94c3.89-2.92 6.92-3.55 11.75-3.06 10.37 3.1 19.8 9.11 29.06 14.56L285 338l2.7 1.55c9.5 5.16 17.06 3.59 27.24.95 4.63-1.12 9.36-1.76 14.06-2.5l2.18-.35c3.75-.55 7.41-.68 11.2-.65 15.43.09 15.43.09 21.62-5l1.57-1.25c13.77-11.27 13.77-11.27 16.47-16.93 1.25-2.38 2.55-2.74 4.96-3.82a89 89 0 0 0 3.44-3c3.95-3.43 6.58-5 11.94-5 5.72 1.58 9.21 4.78 12.37 9.75 1.35 3.52 2.47 7.06 3.5 10.69a117 117 0 0 0 1.74 5.4 90 90 0 0 1 2.57 10.78A200 200 0 0 0 425 350q.8 3.63 1.56 7.25l.82 3.83.62 2.92a91 91 0 0 0 19.82-10.63c2.32-1.46 4.64-2.36 7.18-3.37a82 82 0 0 0 3.69-2.5c9.28-6.34 19.44-11.41 29.31-16.75q5.16-2.8 10.19-5.87c3.53-2.15 7.09-4.08 10.8-5.88 4.68-2.33 9.23-4.92 13.7-7.62 3.27-1.95 6.68-3.57 10.09-5.26a675 675 0 0 0 24.35-12.58q4.4-2.35 8.87-4.54l2.63-1.32L576 284l1.97-1.03a73 73 0 0 1 7.41-2.91A97 97 0 0 0 597 275a393 393 0 0 1 10-4l2.11-.82A262 262 0 0 1 631 263l2.65-.93a126 126 0 0 1 12.29-3.07 162 162 0 0 0 12.6-3.06 73 73 0 0 1 11.96-2l4.34-.48 1.92-.19q2.8-.35 5.58-.79c5.96-.78 11.91-.66 17.91-.67l3.82-.03c6.72-.02 13.03.34 19.61 1.75 2.26.46 4.46.72 6.76.91 4.58.46 8.92 1.57 13.38 2.74q4.9 1.24 9.87 2.32c4.52 1.03 8.86 2.24 13.21 3.85 6.62 2.05 10.08 1.3 16.16-1.6l2.11-.95A91 91 0 0 0 796 255l2.72-1.68 2.78-1.76 2.78-1.74c11.34-7.58 18.97-18.58 24.72-30.82l1-1.88c2.96-5.91 3.85-11.64 4.61-18.18C835 196 835 196 836 194q.34-2.96.62-5.93c.43-2.33 1.31-3.96 2.38-6.07q1.05-3.2 2-6.44a108 108 0 0 1 6.94-17.62l1.52-3.1A47 47 0 0 1 854 148l1.81-2.81c2.47-3.6 5.04-7.15 8.19-10.19h2l.75-1.81c1.47-2.58 2.82-3.49 5.25-5.19l3.06-2.75A68 68 0 0 1 895 113l2.44-1.56c2.9-1.63 5.29-1.91 8.56-2.44l2.62-1.44c4.13-1.91 8.01-2.43 12.49-3.09 3.39-.55 6.59-1.52 9.89-2.47a88 88 0 0 1 17-1" fill="#E7E8E8"/><path d="m680 412 2 1 .01 1.81c.15 12.11.95 23.8 3.37 35.69l.63 3.12A107 107 0 0 0 691 470q.46 2.3.75 4.62c1.07 5.8 3.67 10.71 6.41 15.88 1.63 3.11 3.11 6.25 4.59 9.44 4.32 8.68 10.41 16.43 16.59 23.88C721 526 721 526 721 528l3 1a78 78 0 0 1 3.5 4.38c4.65 5.84 9.78 11.1 15.06 16.37l2.44 2.44c4.29 4.25 8.67 8.33 13.25 12.28 2.28 1.99 4.39 4.11 6.5 6.28A67 67 0 0 0 773 578c1.5 2.06 1.5 2.06 3 5l1.07 2.02c4 8.45 4.74 18.69 1.68 27.6-3.99 7.7-3.99 7.7-7.71 9.14-2.36.59-4.71 1.06-7.1 1.49l-4.85.95-2.16.4c-1.93.4-1.93.4-4.93 1.4l-.48-3.18c-2.26-14-6.59-23.21-18.3-31.88a548 548 0 0 0-9.41-6.25c-9.11-6.06-17.8-12.21-25.81-19.69l-2.61-2.4c-14.79-14.17-25.67-31.3-34.46-49.68q-2.01-4.1-4.12-8.17c-1.17-2.53-1.56-4.04-.81-6.75 4.06-3.52 8.73-5.21 13.73-7.07C672 490 672 490 675 488c.32-2.43.32-2.43.26-5.51l-.05-3.45-.09-3.73-.07-7.7-.04-3.9c-.06-17.17.62-35.01 4.99-51.71" fill="#010101"/><path d="M404 305c9.65 5.79 12.08 17.53 14.73 27.77a617 617 0 0 1 4.15 18.11l.68 3.15.62 2.96.55 2.64c.28 2.43.03 4.06-.73 6.37l-1-2-1 16h-2l-2-6h-2c-2.12-1.88-2.12-1.88-4-4v-2l-1.8-.33c-2.48-.76-3.57-1.68-5.43-3.47-3.73-3.33-7.61-5.39-12.15-7.45l-2.13-1.02a55 55 0 0 0-13.43-4.27c-3.23-.72-6.06-2.06-9.06-3.46.55-4.55 2.47-7.86 4.94-11.62l1.19-1.85c3.46-5.2 7.38-9.71 11.71-14.23 2.16-2.3 2.16-2.3 3.82-4.6L391 314h2l-1-6c4.09-2.98 6.97-3.71 12-3" fill="#232521"/><path d="m249 324-1 2 2.31 1.1c6.6 3.21 12.72 6.64 18.69 10.9l3 2.09c5.88 4.15 5.88 4.15 8 5.91v2l1.88.81C284 350 284 350 286 353v3a81 81 0 0 1-6.75 4.56l-1.92 1.21A88 88 0 0 1 268 367v2h-2l-.75 1.72c-1.92 3.5-4.67 6.15-7.37 9.06A24 24 0 0 0 254 386h-2l-.38 3.38C251 393 251 393 249 395c-.63 2.38-.63 2.38-1.12 5.12l-.51 2.76L247 405h-3c-3.63-10.77-4.95-21.08-5.75-32.38l-.38-4.86q-.46-5.88-.87-11.76l-2 18h-1q-.18-8.53-.27-17.08-.04-2.9-.11-5.8-.08-4.18-.11-8.37l-.08-2.59c0-6.18 1.53-10.43 5.57-15.16 3.85-2.57 5.59-1.83 10-1" fill="#262825"/><path d="m261.19 324.5 2.2 1.06a141 141 0 0 1 17.56 10.56A36 36 0 0 0 290 340l2.19 1.5c4.33 2.31 8.99 2.78 13.8 3.5v1c-13.37 2.9-24.2-5.76-35.3-12.26-18.68-10.93-18.68-10.93-26.63-10.3-4.1 1.11-5.9 3.85-8.16 7.2-1.35 3.56-1.2 7.12-1.2 10.88l-.01 2.54q-.02 4.1 0 8.19v2.82c.02 12.75.67 25.13 2.59 37.75.77 5.09 1 10.11 1.16 15.24 1.06 30.73 3.25 71.74 26.69 94.13 12.43 10.39 28.84 17.57 44.87 19.81a16 16 0 0 1-3.33 7.4q-.74.95-1.46 1.93l-1.58 2.05-1.63 2.13-5 6.49-1.5 1.94c-12.67 16.34-25.85 32.26-39.95 47.39l-5.18 5.62C223.54 626 223.54 626 209.3 626.75l-3.85.1c-6.83.3-11.9 2.81-16.92 7.4-5.74 6.52-7.02 14.28-6.95 22.7.84 6.2 4.65 9.59 9.29 13.43 9.23 4.8 21.19 5.15 31.25 2.93A70 70 0 0 0 230 670l3.34-1.6A391 391 0 0 0 242 664l-.65 1.58c-2.58 6.81-3.85 13.58-1.64 20.69 3.69 7.23 11.16 9.87 18.44 12.51 7.94 2.15 16.67 1.88 24.85 2.22v2c-10.96 1.27-19.32 1.23-29.65-2.8-3.85-1.38-7.27-1.73-11.32-1.96-3.93-.46-6.32-2.54-9.03-5.24l-1.87-.31c-3.1-1.01-4.27-3.1-6.13-5.69l2-5 .75-2.62c1.72-3.27 3.99-3.82 7.25-5.38 1.19-2.09 1.19-2.09 2-4l-1.87.99c-13.16 6.79-23.58 8.73-38.13 5.01l-2.41-.55c-7-1.9-10.3-5.46-13.84-11.63-3.8-7.64-3.47-13.29-.87-21.26 3.25-7.95 8.9-13.72 16.62-17.56 4.49-1.28 8.86-1.68 13.5-2 18.96-1.61 35.73-23.69 47.46-37.14 1.63-1.96 3.16-3.99 4.67-6.05 2.82-3.83 6-7.08 9.5-10.31 1.37-1.5 1.37-1.5 2.87-4.12C276 563 276 563 279 562q1.03-1.99 2-4 2.68-3.44 5.44-6.81a451 451 0 0 0 14.17-18.35c1.9-2.6 3.37-4.76 4.39-7.84l-3.75-1.19c-4.9-1.62-9.61-3.59-14.35-5.63-2.9-1.18-2.9-1.18-6-2.18-8.4-2.9-14.35-9.21-20.4-15.47a44 44 0 0 0-5.87-5.09c-18.18-16.88-18.4-61.51-19.3-84.42-.36-9.03-1.62-17.89-2.85-26.83a231 231 0 0 1-1.9-29.84q-.03-3.66-.11-7.32C230.3 332 230.3 332 236 326l2.63-2.94c6.68-5.8 15.53-2.05 22.56 1.44" fill="#E3E5E4"/><path d="m377.31 553.25 2.7.75c-1.57 3.74-3.88 6.11-6.74 8.96l-1.4 1.41-2.98 2.95q-2.24 2.21-4.47 4.44a266 266 0 0 1-14.54 13.57c-3.46 3.06-6.65 6.38-9.88 9.67a219 219 0 0 1-14.19 13.41 98 98 0 0 0-5.3 5.09A187 187 0 0 1 309 624l-3.14 2.72A496 496 0 0 1 287.5 642l-1.7 1.35q-2.4 1.84-4.8 3.65l-2.76 2.27c-4.53 2.42-8.56 2.4-13.62 2.48l-2.8.09q-3.42.1-6.82.16a88 88 0 0 1 10.12-8.87l1.83-1.43q5.23-4.08 10.48-8.11a475 475 0 0 0 22.51-18.26c4-3.47 8.11-6.77 12.31-10.02 4.98-3.85 9.7-7.88 14.34-12.15 2.47-2.22 5.01-4.32 7.6-6.41 6.42-5.2 12.64-10.64 18.87-16.07q4.77-4.13 9.56-8.24l1.72-1.48L369 557l2.7-2.36c2.3-1.64 2.3-1.64 5.61-1.39" fill="#E9E9ED"/><path d="M393 439c3.76.41 6.48 1.11 9 4 1.1 7-1.15 12.18-5 18-5.24 6.22-12.41 9.48-20.4 10.38-8.75.29-16.55-.63-23.16-6.76-1.69-3.07-2.33-5.1-2.44-8.62 2.09-2.55 2.09-2.55 4.94-4.88l2.84-2.36L361 447l3 1 1.31-2.31c4.74-4.74 10.72-5.57 17.26-5.83q3.45.01 6.88.13l2.55.01z" fill="#161716"/><path d="m285 450 1-1c11.37-.57 23.02.32 32 8 1.9 2.76 2.94 4.73 3.69 8-.8 3.47-1.27 3.8-4.13 5.69-9.34 5.06-18.8 7.22-29.37 4.62-6.72-2.45-11.69-6.17-16.13-11.75-1.42-3.42-1.53-5.9-1.06-9.56 3.57-3.98 8.92-5.69 14-4" fill="#161611"/><path d="M744.63 627.94a233 233 0 0 1 5.38.06l-2 1c-2.1 3.4-2.98 7.17-4 11h-2l.54 9.96c.22 3.47.54 6.7 1.46 10.04h4q.48 1.48 1 3l3 2v3l25 1c-2.78 2.78-4.7 2.29-8.49 2.33l-2.64-.01-2.73-.02c-11.77-.2-24.2-1.41-34.14-8.3-4.7-4.91-5.43-8.34-5.35-14.98a23.2 23.2 0 0 1 7.38-14.94c4.7-3.6 7.62-5.21 13.59-5.14" fill="#050606"/><path d="M393 439c3.77.52 6.45 1.08 9 4 1.1 7-1.15 12.18-5 18-5.24 6.22-12.41 9.48-20.4 10.38-8.75.29-16.55-.63-23.16-6.76A16.7 16.7 0 0 1 351 456c2.02-2.55 2.02-2.55 4.81-4.88l2.77-2.36C361 447 361 447 363 447l.75 3.62c1.39 5.46 3.72 9.06 8 12.76 3.9 1.94 7.02 2.44 11.25 1.62a53 53 0 0 0 6.34-3.12C391 461 391 461 393 461l.94-2.38C395 456 395 456 396 454q.21-2.68.25-5.38l.08-2.89c-.38-3.11-1.26-4.44-3.33-6.73" fill="#EACA6C"/><path d="m241 664 1 2-1.44 2.94c-2.49 5.56-2.65 11.52-.86 17.33 3.71 7.23 11.17 9.87 18.45 12.51 7.94 2.15 16.67 1.88 24.85 2.22v2c-10.96 1.27-19.32 1.23-29.65-2.8-3.85-1.38-7.28-1.73-11.33-1.96-3.93-.46-6.32-2.54-9.02-5.24l-1.88-.31c-3.1-1.01-4.26-3.1-6.12-5.69l2-5 .75-2.62c1.72-3.27 3.99-3.82 7.25-5.38 1.19-2.09 1.19-2.09 2-4l-1.87.99c-9.78 5.04-16.21 8.18-27.13 5.01v-1l2.02-.08c11.72-.72 20.92-5.09 30.98-10.92" fill="#D4D5D6"/><path d="m832 383 2 1c1.27 7.93 2.58 18.26 0 26a72 72 0 0 0-.06 4.41l.02 2.56.04 2.65.06 5.23.04 2.34C834 429 834 429 833 430c-.07 3.01 0 6.01.06 9.02-.06 2.98-.06 2.98-.56 4.8-.63 2.75-.61 5.29-.6 8.12l.01 3.46.03 3.6.01 3.6.03 6.62c.04 6.73.04 6.73-.98 8.78q-.14 2.2-.13 4.39l-.01 2.65.02 2.77-.02 2.74c.01 4.29.13 8.25 1.14 12.45v6c.36 2.99.72 5.92 1.47 8.84.65 2.66 1.09 5.33 1.53 8.04l.5 3.05.5 3.07.75 3.2.25 2.8c-1.48 1.68-1.48 1.68-3 3l-2.44-12.75-.69-3.6c-2.68-14.21-3.04-28.05-2.99-42.46v-2.77c.04-19.64.91-39.09 2.38-58.68A849 849 0 0 0 832 383" fill="#F2F2F3"/><path d="m284 450-1 1c-.86 6.44.13 11.74 4 17 3.34 3.56 6.53 5.3 11.44 5.56 4.78-.31 8.75-1.62 12.56-4.56a22.5 22.5 0 0 0 5-12h2a19 19 0 0 1 3.69 8c-.8 3.47-1.27 3.8-4.13 5.69-9.34 5.06-18.8 7.22-29.37 4.62-6.72-2.45-11.69-6.17-16.13-11.75-1.42-3.42-1.53-5.9-1.06-9.56 3.32-3.71 8.28-5.57 13-4" fill="#DFCB7D"/><path d="m949.13 147.88 3.48.03 8.4.09v1l-3.48.15-4.46.22c-.39.03-.39.03-2.3.1q-2.89.17-5.76.53l-1 2-2.05-.03-2.72-.03-2.66-.03c-2.4.09-4.29.43-6.58 1.09q-1.22.3-2.49.57a58 58 0 0 0-17.5 7.43l-3.33 2.06a45 45 0 0 0-6.67 5.94l-1.94 1.85c-6.94 7.2-12.93 19.75-13.13 29.85l.06 2.3c-.51 1.93-.51 1.93-1.25 3.88-1.77 4.92-3 9.95-4.12 15.06-1.16 4.75-1.16 4.75-3.75 6.5L874 229q.35-1.36.68-2.76l1-3.93.53-2.13a482 482 0 0 0 2.99-12.5c4.33-19.27 10.49-36.33 27.16-48.4 13.68-8.6 26.77-11.65 42.76-11.4" fill="#DEDFDF"/><path d="M343 472c3.69 1.48 3.69 1.48 5.06 3.75-.08 3.12-1.74 4.44-3.78 6.66-1.85 2.29-2.5 4.79-3.28 7.59-1 1-1 1-3.5 1.12C335 491 335 491 334 490q-.06-2.5 0-5l-2.38-.88C329 483 329 483 327 481c-.44-2.38-.44-2.38 0-5 4.09-5.21 9.91-4.78 16-4" fill="#676866"/><path d="M1029 136c2 2 2 2 2.38 5.06-.69 7.15-2.99 12.18-8.5 16.88-6.75 4.73-12.88 5.56-20.94 4.37A98 98 0 0 1 987 158a75 75 0 0 0-16-4l-2.88-1c-7.08-2.27-14.8-2.21-22.18-2.56l-2.63-.13L937 150v-1c31.15-.79 31.15-.79 45 4q5.05 1.4 10.12 2.69l2.45.65c16.69 4.42 16.69 4.42 22.91 1.5 5.41-3.44 8.74-6.52 10.25-12.95l.46-3.2.48-3.24z" fill="#E5E7E5"/><path d="m261.19 324.5 2.2 1.06a141 141 0 0 1 17.56 10.56A36 36 0 0 0 290 340l2.19 1.5c4.33 2.31 8.99 2.78 13.8 3.5v1c-13.37 2.9-24.2-5.76-35.3-12.26-18.68-10.93-18.68-10.93-26.63-10.3-4.1 1.12-6 3.87-8.16 7.32-1.2 2.98-1.22 5.55-1.31 8.76l-.12 3.78-.1 3.95-.11 3.99q-.15 4.88-.26 9.76h-1l-.07-1.94-.36-8.75-.25-6.01-.11-2.71c-.21-2.59-.21-2.59-.78-5.29-.68-3.65 1.1-5.43 3.1-8.37 7.8-10.27 16.07-8.69 26.66-3.43" fill="#D4D5D6"/><path d="m972.25 104.31 2.95.34 2.8.35 2.14.15c4.89.4 8.88 1.91 13.34 3.8a153 153 0 0 0 14.43 4.93c7.61 2.75 14.19 6.97 18.09 14.12l1.69 1.56c1.91 2.1 2.06 3.61 2.31 6.44-.22 2.7-.59 5.32-1 8h-1l-.13-3.94c-.79-6.77-4-11.35-8.89-15.97-7.41-5.76-16.13-8.39-24.98-11.09l-2.32-.7c-9.49-2.88-18.82-5.14-28.68-6.3 3.31-2.02 5.43-2.14 9.25-1.69" fill="#E4E6E6"/><path d="M704 252c6.68-.23 12.83.17 19.39 1.5 2.36.45 4.65.73 7.05.94 4.58.46 8.92 1.57 13.38 2.74q4.9 1.24 9.87 2.32c6.73 1.54 13.17 3.31 19.31 6.5v2c-6.05-.68-11.71-2.21-17.56-3.88-21.1-5.85-41.59-8.38-63.44-9.12v-1h12z" fill="#D9D9DB"/><path d="M393 439c3.77.52 6.45 1.08 9 4 1.1 7-1.15 12.18-5 18-4.43 5.26-10.35 8.45-17 10-4.69.3-9.31.24-14 0v-1l2.12-.11 2.76-.2 2.74-.18C376 469 376 469 378 466c2.21-.88 2.21-.88 4.81-1.56l2.71-.76L388 463c3-.88 3-.88 5-2 1.25-2.5 1.25-2.5 2-5l1-2q.21-2.68.25-5.38l.08-2.89c-.38-3.11-1.26-4.44-3.33-6.73" fill="#C4AF6D"/><path d="M835 540h1c1.44 6.05 1.19 12.17 1.19 18.35l.03 6.44.01 4.12.01 3.76c-.23 3.24-.9 5.4-2.24 8.33-.34 2.25-.34 2.25-.5 4.44A38 38 0 0 1 832 596h-2l.19 3.38L830 603l-3 2c.46-4.48 1.13-8.78 2.16-13.16 3.73-16.21 4.64-31.72 4.71-48.28C834 541 834 541 835 540" fill="#E2E4E6"/><path d="m822 330 3 1c1 2.94 1 2.94 1.47 4.85.58 2.36 1.3 4.65 2.03 6.96 2.29 7.61 3.65 15.3 4.5 23.19l.32 2.47.3 2.59.29 2.35a37 37 0 0 1-.64 7.33c-.64 5.37-.66 10.8-.83 16.2l-.13 3.8L832 410h-1l-.06-3.22-.26-12.08-.1-5.18c-.29-15.6-.91-30.87-5.7-45.83l-1.64-5.3-.72-2.28C822 334 822 334 822 330" fill="#E2E2E5"/><path d="M828 461h1l.08 2.21q.17 5.06.36 10.1l.12 3.48c.63 17.22.63 17.22 1.97 23.84.56 2.83.47 5.49.47 8.37.36 2.99.72 5.92 1.47 8.84.65 2.66 1.09 5.33 1.53 8.04l.5 3.05.5 3.07.75 3.2.25 2.8c-1.48 1.68-1.48 1.68-3 3l-2.44-12.75-.69-3.6c-2.78-14.7-3-28.99-2.93-43.9l.01-5.76z" fill="#DCDCDE"/><path d="M848 157h2c-.68 6.01-2.82 11.45-4.81 17.12a159 159 0 0 0-6.91 26.55c-.75 4.39-1.62 7.62-4.28 11.33-1.54-3.08-.63-5.64-.12-9l.55-3.81C835 196 835 196 836 194q.34-2.96.62-5.93c.43-2.33 1.31-3.96 2.38-6.07q1.05-3.2 2-6.44c1.9-6.41 4.36-12.43 7-18.56" fill="#EBECED"/><path d="M316 457h2a19 19 0 0 1 3.69 8c-.8 3.47-1.27 3.8-4.13 5.69-8.94 4.84-16.4 5.73-26.56 5.31v-1l3.07-.52 4.05-.73 2.02-.33A24.7 24.7 0 0 0 312 468a27 27 0 0 0 4-11" fill="#E2CA76"/><path d="m275 638 1 2h-2l1 3c-1.44 3.19-1.44 3.19-3 6h3v2l-20 1a67 67 0 0 1 20-14" fill="#DCDFDD"/><path d="M361 447h2l.56 4.88.32 2.74C364 457 364 457 363 459l1 3h-2l-.38 1.94L361 466l-2 1q-1.55-1.61-3.06-3.25l-1.73-1.83C353 460 353 460 353.13 457.83L354 456l3-1q1.6-3.46 3-7z" fill="#F6CD72"/><path d="m276.56 453.94 3.44.06v8h2v4h2v4c-2.17-.5-4-1-6-2v-2l-3-1 1-2h-2v-3h-2a93 93 0 0 1 0-5c1-1 1-1 4.56-1.06" fill="#F8D563"/><path d="m246 598 2 2c-8.13 8.49-16.37 16.22-26 23l-2.48 1.76c-3.13 1.54-5.37 1.54-8.83 1.43l-3.24-.08L205 626v-1l1.91-.3c16.66-2.91 27.75-14.9 39.09-26.7" fill="#DEDFDE"/><path d="M412 317c2.82 2.82 3.4 3.47 4.35 7.02l.64 2.35.63 2.44.66 2.41A72 72 0 0 1 421 352l-2 1-5-23h-2z" fill="#1B1C1B"/><path d="M883 192c2.37 4.34 2.82 8.05 1.46 12.93q-.74 2.17-1.54 4.32a123 123 0 0 0-3.3 12.7c-1.15 4.73-1.15 4.73-3.75 6.49L874 229l.7-2.76c2.87-11.39 5.6-22.81 8.3-34.24" fill="#D8DCDC"/><path d="m345 338-1 2c-2.79.58-2.79.58-6.48 1.04l-1.98.25q-3.15.4-6.29.77l-6.25.79-5.69.7q-3.03.4-6.01 1c-3.11.61-6.14.51-9.3.45l1-2c2.14-.6 2.14-.6 4.81-1.06 5.05-.9 5.05-.9 7.15-1.44 3.65-.9 7.37-1.42 11.08-2.02q3.33-.55 6.65-1.17c4.22-.4 8.13.07 12.31.69" fill="#EFF1F0"/><path d="m236 695 5.12.44 2.89.24a80 80 0 0 1 14.24 2.82c8.13 2.11 16.39 2.23 24.75 2.5v2c-10.96 1.27-19.32 1.23-29.64-2.79a35 35 0 0 0-11.31-1.97c-2.37-.28-3.99-1.07-6.05-2.24z" fill="#DBDCDC"/><path d="m972.25 104.31 2.95.34 2.8.35 2.14.15c4.94.41 9.01 1.95 13.52 3.86a97 97 0 0 0 8.34 3l-2 2c-1.79-.16-1.79-.16-3.96-.73l-2.44-.6-2.6-.68-5.23-1.26q-4.06-.97-8.13-1.97A126 126 0 0 0 963 106c3.31-2.02 5.43-2.14 9.25-1.69" fill="#D9DBDA"/><path d="m249 324-1 2 3 2-10 2-.88 2.81C239 336 239 336 237 339h-2c-.42-6.09-.07-9.12 4-14 3.85-2.57 5.59-1.83 10-1" fill="#1E1E20"/><path d="M231 339h2a654 654 0 0 1 1 42c-3.53-3.53-2.97-9.06-3.11-13.85l.01-3.93.01-2.12.03-6.6.01-4.52z" fill="#EFF2EE"/><path d="M500 557c0 3 0 3-1.24 4.61l-1.64 1.58-1.61 1.6C494 566 494 566 492 566v2c-1.88 2.12-1.88 2.12-4 4h-2l-.38 1.94L485 576c-2.96 1.48-5.74 1.06-9 1l1.94-.81C480 575 480 575 481 572c2.21-1.9 4.43-3.68 6.75-5.44A932 932 0 0 0 500 557" fill="#070707"/><path d="m420 340 3 1a107 107 0 0 1 2 9l1.44 7.38.68 3.58c.86 2.98 1.47 4.17 3.88 6.04-3 2-3 2-6 2l-.59-3.44-.79-4.56-.38-2.25c-.65-3.74-1.38-7.4-2.34-11.06-.9-3.69-.9-3.69-.9-7.69" fill="#E5E6E7"/><path d="M404 305c4.2 2.78 6.6 5.12 8 10h-3l-2-5c-5.08 0-10.04.95-15 2 .25-2.38.25-2.38 1-5 3.3-2.67 6.93-2.49 11-2" fill="#1D1E20"/><path d="m275 333 4.38 2.19 2.77 1.37q2.7 1.36 5.35 2.82c6.06 3.26 11.69 4.75 18.5 5.62v1c-11.23 2.43-19.72-3.03-29.23-8.57L275 336z" fill="#DDDDE1"/><path d="M829 453h3c0 23 0 23-1 25a104 104 0 0 0-.56 4.62l-.26 2.48-.18 1.9h-1z" fill="#F2F2F6"/><path d="M243 454h1l.34 1.69 1.54 7.75A603 603 0 0 0 250 483l-3-1c-3.64-8.2-6.68-19.14-4-28" fill="#CDCFCD"/><path d="m956.38 101.44 2.13.12c3.02.19 5.59.48 8.49 1.44v2c-10.7.2-21.33-.41-32-1v-2c6.91-1.92 14.28-.97 21.38-.56" fill="#F0F1F1"/><path d="M391 437c1.77 1.53 1.77 1.53 3 3l-1 2-1-1c-8.21-.54-15.99.2-24 2v-2c15.79-5.54 15.79-5.54 23-4" fill="#050404"/><path d="m862 137 2 1a28 28 0 0 1-5.38 9.31A57 57 0 0 0 851 160l-2-3c1.01-3.58 2.72-6.11 5-9l1.94-2.94c1.89-2.81 3.9-5.44 6.06-8.06" fill="#E7E7EA"/><path d="m363 332 3 2c-3.49 4.09-5.34 5.83-10.8 6.4-3.75.04-7.47-.14-11.2-.4l1-2c2.11-.6 2.11-.6 4.75-1.06l2.61-.48 5.35-.92c2.63-.62 3.6-1.49 5.29-3.54" fill="#EDEDEF"/><path d="m831 515 3 2q.07 3 0 6a559 559 0 0 0 2 7c.6 2.75.86 5.16 1 8-1.49 1.73-1.49 1.73-3 3-3.44-17.86-3.44-17.86-3-26" fill="#EEF0F0"/><path d="m367 456 1 2h2v2h2v2h2v2l4.75-.44 2.67-.24c2.27-.28 4.38-.71 6.58-1.32v-2h5c-5.15 4.41-9.07 6.49-16.01 6.32-4.54-.74-8-3.99-10.99-7.32z" fill="#352614"/><path d="M830 427c4.72 8.35 2.89 18.05 1 27l-2-1c-.11-8.75-.01-17.3 1-26" fill="#E1E1E2"/><path d="M569 675v1l-2.88.44C563 677 563 677 561 678c-9.02.43-18.02-.16-27-1v-1c11.69-.9 23.28-1.11 35-1" fill="#DFE1DE"/><path d="m948.94 147.88 3.52.03q4.27.03 8.54.09v1l-3.46.15-4.48.22c-.37.03-.37.03-2.28.1q-2.9.17-5.78.53l-1 2-2.04-.03-2.71-.03-2.67-.03c-2.36.09-4.32.43-6.58 1.09l-1-3c6.62-2.44 12.95-2.22 19.94-2.12" fill="#DADADC"/><path d="M1029 136c2 2 2 2 2.38 5.06-.64 6.67-2.86 11.91-7.82 16.5-2.42 1.9-3.37 2.42-6.5 2.82L1015 160c5-4 5-4 7.62-5.75 5.11-4.84 5.78-11.51 6.38-18.25" fill="#EDEEEC"/><path d="M285 448c22.59-.71 22.59-.71 31.19 5.19L318 455l-1 2-1.51-1.02c-9.01-5.6-19.06-6.49-29.49-5.98l-2 1z" fill="#030302"/><path d="M393 439c3.77.52 6.45 1.08 9 4 .47 2.85.28 5.07 0 8l-2 2h-2l-.33-2.05-.94-5.37c-.78-2.77-1.88-4.41-3.73-6.58" fill="#E1D067"/><path d="M180 649h1l.01 2.12c.37 9.14 3.64 13.65 9.99 19.88l-4 1c-4.11-4.45-7.51-9.03-9-15 .25-2.98.97-5.15 2-8" fill="#D8D9DA"/><path d="M822 621c1.63 1.63 1.63 1.63 3 4-.7 2.84-.7 2.84-2.12 5.94l-1.39 3.09A68 68 0 0 1 817 642h-2c2.04-7.12 4.4-14.07 7-21" fill="#DCDEDE"/><path d="M247 483h4a23 23 0 0 1 3.12 4.81l1.51 2.71L257 493l2 3c-4 0-4 0-5.63-1.57-5.02-7.11-5.02-7.11-6.37-11.43" fill="#E1E2E3"/><path d="M386 636c2.12.38 2.12.38 4 1-1.4 4.2-4.37 5.19-8.06 7.19l-2.01 1.11q-2.46 1.36-4.93 2.7l-2-2q2.17-1.5 4.38-3l2.46-1.69C382 640 382 640 384 640v-2z" fill="#1B1C1C"/><path d="M263 578h2c-.56 3.95-2.45 5.94-5.12 8.81l-2.45 2.64A354 354 0 0 1 248 599c0-3.52.42-3.8 2.77-6.21l1.75-1.83 1.86-1.9 3.58-3.71 1.62-1.66A23 23 0 0 0 263 578" fill="#E7E8E8"/><path d="m314 470 1 2c-8.17 3.67-15.09 4.51-24 4v-1l3.18-.59 4.13-.79 2.09-.38c5.06-.98 8.43-3.52 13.6-3.24" fill="#D3BE81"/><path d="m688.67 251.7 2.7.04c.47 0 .47 0 2.82.08q1.4 0 2.85.04 3.48.05 6.96.14v2c-7.7.75-15.27 1.14-23 1 2.42-2.96 3.89-3.36 7.67-3.3" fill="#F0F0F2"/><path d="m1024 133 4 2v11l-3 1c-1-1-1-1-1.1-3.94l.04-3.62.02-3.63z" fill="#0C0D0A"/><path d="M935 103q2.38.21 4.77.32l2.69.12 5.63.25 6.91.31v1l-32 1c4.11-4.11 6.61-4.35 12-3" fill="#C4C5C3"/><path d="M359 450c-.81 2.94-.81 2.94-2 6l-3 1c.79 3.41 1.87 6.69 3 10-2.86-2.49-4.76-4.4-6.19-7.94.25-4.03 1.77-5.29 4.65-7.96C357 450 357 450 359 450" fill="#EBCA80"/><path d="M490 568h6l1 4-11 3v-3h2z" fill="#18191A"/><path d="M835 540h1a44 44 0 0 1 1.06 10.81l-.02 2.96L837 556h-1l-1 6h-1a1817 1817 0 0 1-.09-13.45l-.01-2.86-.01-2.65C834 541 834 541 835 540" fill="#C8C9CB"/><path d="M234 341c4 5 4 5 3.88 8.44A91 91 0 0 1 235 359h-1z" fill="#0B0E0C"/><path d="M984 107v1c-7.17.28-13.95-.8-21-2 6.21-3.79 14.61-1.59 21 1" fill="#D8D9D6"/><path d="M263 701h20v2l-8.88.56-2.55.17-2.44.15-2.25.14C265 704 265 704 263 703z" fill="#EDF1EE"/><path d="m364 455 1.69 2.25c3.58 4.26 7.03 6.94 12.31 8.75-3.3 1.12-5.05.9-8.25-.44l-2.14-.87L366 464v-4l-3 1-1-5z" fill="#E6CD7C"/><path d="m276.56 453.94 3.44.06v10h-2v-7l-4-1v4h-2a93 93 0 0 1 0-5c1-1 1-1 4.56-1.06" fill="#F7D86C"/><path d="m236 380 4 2v9h-2l-1 3c-.94-3.16-1.11-5.97-1.06-9.25l.02-2.7z" fill="#0A0D09"/><path d="m999 159 19 1c-3.11 3.11-6.73 2.85-11 3a86 86 0 0 1-8-1z" fill="#F1F2F0"/><path d="m246 598 2 2-13 13-1-3z" fill="#D2D4D1"/><path d="M308 699c-2.55 2.46-3.86 2.99-7.45 3.29l-3.8-.1-3.83-.08L290 702l1-2c5.65-1.2 11.25-1.1 17-1" fill="#DCDDDF"/><path d="m377 320 2 2-12 12-2-2z" fill="#CFD0D1"/><path d="M883 192c2.33 3.65 2.38 6.74 2 11-1.38 2.44-1.38 2.44-3 4h-2a75 75 0 0 1 3-15" fill="#D1D1D3"/><path d="M837 195c1.17 3.5.83 5.44.25 9.06l-.48 3.23C836 210 836 210 833 212q.14-2.85.31-5.69l.18-3.2c.55-3.34 1.6-5.35 3.51-8.11" fill="#F6F5F7"/><path d="M1003 112c4.3 1.05 8.09 2.95 12 5l-1 2c-5.35-.53-9.36-2.47-14-5z" fill="#E6E8E7"/><path d="M378 466h4v2l3 1c-4.22 2.05-7.65 2.21-12.31 2.12l-3.8-.05L366 471v-1l2.12-.11 2.76-.2 2.74-.18C376 469 376 469 378 466" fill="#C2AD71"/><path d="M361 447h2l1 10-4 2q-.33-2.43-.62-4.88l-.36-2.74L359 449z" fill="#EFD278"/><path d="M910 159c-1.27 3.81-2.61 4.03-6 6l-2.06 2.12c-2.09 2.03-3.17 2.32-5.94 2.88 8.99-11 8.99-11 14-11" fill="#E7E9EB"/><path d="M937 149h26v3l-2.88-.46c-4.67-.67-9.35-.88-14.06-1.1l-2.65-.13L937 150z" fill="#F5F6F5"/><path d="M307 476c-1.05 1.52-1.05 1.52-3 3-3.36.07-3.36.07-7.19-.31l-3.85-.37L290 478v-2l6.81-.56 3.83-.32C304 475 304 475 307 476" fill="#1F150C"/><path d="m287 469 10 5v1q-2.37.12-4.75.19l-2.67.1c-3.03-.34-4.34-1.29-6.58-3.29l3-1z" fill="#DBCB80"/><path d="M237 328h2c1.35 6.36 1.35 6.36-.31 9.44C237 339 237 339 235 339c-.25-7.62-.25-7.62 2-11" fill="#141416"/><path d="M560 295c-3.06 2.49-6.15 4.1-9.75 5.69l-2.98 1.32-2.27.99v-3q2.9-1.55 5.81-3.06l3.27-1.73C557 294 557 294 560 295" fill="#E2E3E3"/><path d="m817 238 2 1c-1.44 3.36-3.21 5.4-5.94 7.81l-2.09 1.9L809 250l-3-1 2.81-2.31c3.24-2.71 5.83-5.15 8.19-8.69" fill="#E8E8EB"/><path d="m833 572 .38 1.94.62 2.06 2 1-2 10h-3q.92-7.51 2-15" fill="#D4D6D8"/><path d="M358 444h2v2l4 1-3.19 1.75A58 58 0 0 0 352 455v-3h2v-2h2l.44-1.88C357 446 357 446 358 444" fill="#261A0E"/><path d="M423 363c2 3 2 3 2 6l5-1-3 4-4-1-1 2-.06-4.44-.04-2.49c.1-2.07.1-2.07 1.1-3.07" fill="#0B0C0D"/><path d="M397 306.31c2 .7 2 .7 4 2.7-3.44 2.28-4.72 3-9 3 .38-2.45.38-2.45 1-5 2-1 2-1 4-.7" fill="#151719"/><path d="M926 106v1q-3.4.87-6.81 1.69l-3.83.95c-3.36.36-3.36.36-5.31-1.06L909 107q2.84-.84 5.69-1.62l3.2-.92c3.45-.51 5.05-.04 8.11 1.54" fill="#E0E1E0"/><path d="M233 361h1v20c-2.91-2.91-2.97-6.05-3-10a101 101 0 0 1 2-10" fill="#E9ECE9"/><path d="m182 656 3 3-1 3h2l3 5a89 89 0 0 0 4 4c-4.65-1.33-7.59-3.85-10-8-.81-3.88-.81-3.88-1-7" fill="#08080A"/><path d="m413 620 2 1c-1.46 4.39-3.98 4.88-8 7l-2-2z" fill="#1D1E1E"/><path d="M729 254c7.62 1.75 7.62 1.75 11 4l-1 1c-2-.09-2-.09-4.44-.38l-2.43-.27C730 258 730 258 728 257z" fill="#E1E3E3"/><path d="m377 468 1 2h-15l1-2c2.18-.45 2.18-.45 4.88-.69l2.67-.26C374 467 374 467 377 468" fill="#E0C573"/><path d="M291 343q2.63.17 5.25.38l2.95.21c2.7.39 4.47 1.05 6.8 2.41-5.56.91-9.68 1.32-15-1z" fill="#D8D9D9"/><path d="m508 319 3 1c-3.02 3.48-5.57 4.79-10 6v-3l2.94-1.44C507 320 507 320 508 319" fill="#EAEAEB"/><path d="m863 140 2 1-4.38 6.5-1.24 1.88q-1.63 2.35-3.38 4.62h-2a31 31 0 0 1 5.62-9.81l1.92-2.4z" fill="#1A1A1C"/><path d="M202 675c3.04.02 3.04.02 6.62.38l3.61.33 2.77.29v2a80 80 0 0 1-15-1z" fill="#E8EBEB"/><path d="m352 336 2 2c2.62.62 2.62.62 5 1v1h-15l1-2q3.47-1.1 7-2" fill="#D0D1D1"/><path d="M264 328c4.84.45 7.5 1.6 11 5v2a111 111 0 0 1-11-5z" fill="#D2D3D3"/><path d="M855 148c1 3 1 3 0 5.26l-1.44 2.43-1.43 2.45L851 160l-2-3c1.03-4.01 2.96-6.26 6-9" fill="#E2E2E3"/><path d="M1024 128c3.02 1.01 3.87 1.73 5.31 4.62.85 4.19.41 7.19-.31 11.38h-1l-.11-1.79c-.41-4.88-1.03-8.11-3.89-12.21z" fill="#D4D5D3"/><path d="M224 674v2c-5.73 2.71-10.13 1.51-16 0v-1l5.19-.5 2.92-.28A87 87 0 0 1 224 674" fill="#DBDEDD"/><path d="m393 464 1 3-4 1v2h-4v2h-2l-1-3z" fill="#291C0F"/><path d="m825 342 4 1 1 8-3 1z" fill="#DDDDDF"/><path d="M391 647v1l-1.91.15A87 87 0 0 0 373 651l1-3c5.99-2.14 10.79-2.06 17-1" fill="#DADDDA"/><path d="M238 419h1l1 16-3-2c-.33-1.99-.33-1.99-.25-4.31l.08-2.42c.19-2.49.55-4.86 1.17-7.27" fill="#D0D1D0"/><path d="m367 456 1 2h2v2h2v2h2l1 3c-3.94-1.31-6.23-2.92-9-6z" fill="#2C240B"/><path d="M235 398h3v9l-2 1-1.06-4.44-.6-2.49L234 399z" fill="#DDDEDD"/><path d="M728 255v2l-14-1v-1c10.14-1.93 10.14-1.93 14 0" fill="#D3D6D4"/><path d="m806.19 250.38 1.8.62a309 309 0 0 1-4.3 3.06l-2.43 1.72L799 257l-3-1c7.5-6.09 7.5-6.09 10.19-5.62" fill="#DADBDD"/><path d="m985 106 8 3-2 2c-2.6-.24-2.6-.24-5.62-.88l-3.04-.61L980 109l1.94-.94C984 107 984 107 985 106" fill="#D1D1D2"/><path d="M234 671c-3.29 2.16-6.03 3.68-10 4l-2-2q1.87-.8 3.75-1.56l2.11-.88c2.44-.64 3.78-.36 6.14.44" fill="#D6D6D6"/><path d="m862 647 2 3a684 684 0 0 1-15-2v-1a27.5 27.5 0 0 1 13 0" fill="#E3E4E3"/><path d="M243 454h1q.33 2.68.62 5.38l.36 3.02.02 2.6-2 2q-.3-2.12-.56-4.25l-.32-2.39c-.12-2.37.18-4.11.88-6.36" fill="#CDCECB"/><path d="m284 450-3 8-1-4-2-1v-3c3-1 3-1 6 0" fill="#E1D178"/><path d="M458 351c0 3 0 3-1.69 5.25-2.31 1.75-2.31 1.75-5.06 1.5L449 357a81 81 0 0 1 9-6" fill="#222021"/><path d="M974 108q2.44.17 4.88.38l2.74.21C984 109 984 109 986 111c-2.72 1.36-4.18.7-7.12.06l-2.76-.59L974 110z" fill="#060806"/><path d="m895 170 3 1c-5 7.67-5 7.67-9 9 1.65-3.58 3.78-6.75 6-10" fill="#D6D6D8"/><path d="M978 153c6.75.88 6.75.88 9 2v3l-9-3z" fill="#EEEFEE"/><path d="M415 622v3c-1.97 1.61-1.97 1.61-4.5 3.19l-2.53 1.6L406 631l-2-2z" fill="#E0E0E2"/><path d="m383 312 4 1-3.38 4-1.89 2.25L380 321h-2a104 104 0 0 1 5-9" fill="#E7E9E9"/><path d="M345 663v3c-2.5 2.19-2.5 2.19-5 4l-3-2z" fill="#191919"/><path d="m282 514 10 3-1 2a43 43 0 0 1-10-3z" fill="#E5E7E7"/><path d="m316 457 2 1v6h-2v4l-3-1z" fill="#CCB76B"/><path d="M351 456h2c1.49 3.62 2.79 7.28 4 11-4-3.49-5.63-5.65-6-11" fill="#D8C07D"/><path d="M317 458c2 1.62 2 1.62 4 4 .25 3.25.25 3.25 0 6h-2z" fill="#D5C27A"/><path d="M883 188c1.19 3.43.8 5.38-.44 8.75l-.87 2.42L881 201h-1c-.27-5.39-.36-8.52 3-13" fill="#070707"/><path d="m1024 153 1 3c-4.31 3.94-4.31 3.94-7.81 4.25L1015 160q4.43-3.6 9-7" fill="#DDE0DE"/><path d="M374 648c-4.75 3.88-4.75 3.88-7 5l-2-2c1.86-3.71 5.31-3.1 9-3" fill="#1B1C1C"/><path d="M829 497c3 3 3 3 3.19 6.19L832 506h-3z" fill="#F3F3F5"/><path d="M244 465h2v11c-2.14-3.21-2.6-5.21-3-9z" fill="#E0E3E0"/><path d="M281 455h1l3 11h-3v-4h-2z" fill="#D6C36A"/><path d="M336 340h12v3h-4v-2h-8z" fill="#343636"/><path d="m856 264 1 2a27 27 0 0 1-5 7l-3-1z" fill="#D3D3D4"/><path d="M824 617h3l-1 6h-3z" fill="#F1F1F2"/><path d="m354 580 2 2c-2.77 3.08-5.06 4.69-9 6l2.94-3.44 1.65-1.93q1.16-1.36 2.41-2.63" fill="#252728"/><path d="M398 454h2c-1.16 4.36-2.08 6.65-6 9 .65-3.48 1.98-6.09 4-9" fill="#DEC673"/><path d="M366 447v10c-3.38-4.5-3.38-4.5-3-9 2-1 2-1 3-1" fill="#3B2C11"/><path d="m255 699 10 1-2 2c-2.73-.03-5.3-.56-8-1z" fill="#E2E2E2"/><path d="M290 699v2c-6.62 1.25-6.62 1.25-10-1 3.44-.62 6.49-1 10-1" fill="#D2D3D5"/><path d="m183 638 2 1-3 9-2-2c.35-3.44 1.05-5.07 3-8" fill="#DEDFDE"/><path d="M476 578c-1.39 3.37-2.98 4.99-6 7l-2-1q1.42-1.5 2.88-3l1.61-1.69C474 578 474 578 476 578" fill="#DCDFDD"/><path d="m374 553 6 1c-1.75 3.88-1.75 3.88-4 5z" fill="#D3D5D5"/><path d="m618 513 2 1-1 3c-2.56 1.19-2.56 1.19-5 2l-1-3c2.38-1.56 2.38-1.56 5-3" fill="#1F2124"/><path d="m281 464 1 2h2v4c-2.17-.51-4-1-6-2l1-2 2 1z" fill="#F1D35B"/><path d="m434 361 4 2c-4.62 3-4.62 3-8 3v-2c2-1.62 2-1.62 4-3" fill="#EAEAED"/><path d="M277 338c2.44.38 2.44.38 5 1l1 2-2 2c-2.12-.38-2.12-.38-4-1z" fill="#101214"/><path d="m861 260 1 2-4 5-2-1c.81-2.44.81-2.44 2-5z" fill="#EBEBEE"/><path d="M268 637h2c-.25 1.88-.25 1.88-1 4-2.06 1.25-2.06 1.25-4 2l-1-4h3z" fill="#0B0C0B"/><path d="M831 536h2v10c-1.76-2.64-2.53-3.97-3-7z" fill="#050707"/><path d="m628.69 264.38 2.3.62c-2.12 2.13-3.05 2.63-6 3q-.97-.99-2-2c3-2 3-2 5.7-1.62" fill="#EDEEF1"/><path d="m835 202 2 2c-.19 3-.19 3-1 6l-3 2z" fill="#EFEEF0"/><path d="m837 203 3 1-2 7h-2z" fill="#252728"/><path d="M984 107v1h-8l-1-2c3.2-1.6 5.72-.03 9 1" fill="#E4E4E4"/><path d="M828 597h2c.19 2.88.19 2.88 0 6l-3 2z" fill="#D0D2D4"/><path d="M835 568h1l1 8h-3q-.06-3.5 0-7z" fill="#F0F2F3"/><path d="M399 456h1v6l-6 2 2.44-4 1.37-2.25z" fill="#35220E"/><path d="m368 444-2 2a88 88 0 0 0-2 4l-1-3-2-2c3.62-2.12 3.62-2.12 7-1" fill="#0B0701"/><path d="M393 439c4.75.75 4.75.75 7 3h-2l-1 3z" fill="#C7BE85"/><path d="m452.19 352.38 1.8.62h-2q-.48 1.5-1 3-1.46.5-3 1-.48-1.5-1-3c3-2 3-2 5.2-1.62" fill="#EFECEF"/><path d="m420 340 3 1-1 7c-1.76-3.09-2-4.23-2-8" fill="#D7D7DA"/><path d="M327 341v1l-9 1v-2c3.07-1.53 5.7-.55 9 0" fill="#E6E9E7"/><path d="M712 252c5.75.75 5.75.75 8 3h-8z" fill="#F0F3F2"/><path d="m682 252 2 1Zm0 2 2 2h-7l-1-2c3-1 3-1 6 0" fill="#D9D9DB"/><path d="m930 107-6 3v-2l-4-1c3.66-.75 6.42-1.24 10 0" fill="#1D1E1B"/></svg>