<svg style="background:transparent" version="1.1" xmlns="http://www.w3.org/2000/svg" viewBox="0 0 1248 704"><path d="M515 8c7.5 2.78 14.13 6.56 20 12v2l1.62.75c11.82 6.23 22.85 15.45 33.07 23.94 4.05 3.36 8.2 6.38 12.63 9.22A11 11 0 0 1 585 58q3.84.2 7.7.22l2.44.04q12.69.15 25.38.2 6.03.03 12.04.12 7.27.1 14.54.12 2.76.02 5.53.07c16.26.29 16.26.29 21.38-4.31l1.62-1.95L677 51h3l.69-1.81c1.66-2.78 3.52-3.62 6.31-5.19l1.38-1.44C690 41 690 41 693.15 39.25c4-2.25 7.52-4.94 11.1-7.81l1.85-1.46c4.49-3.56 4.49-3.56 6.46-5.56 1.92-1.9 4.12-3.03 6.44-4.42l4-3c6.85-5.19 13.07-9.23 22-8 7.17 1.85 11.95 4.76 16 11 3.29 5.96 3.19 12.93 2.55 19.54-.55 6.25-.88 12.5-1.11 18.77l-.13 3.37q-.45 12.97-.27 25.93c.04 4.61-.18 8.84-1.04 13.39a194 194 0 0 0 0 9v3l.02 6.45q.06 15.69.08 31.38l.05 17.36.06 23.2q.02 4.47.02 8.96l.02 2.66A42 42 0 0 1 759 217l-.75 2.51c-1.29 4.06-2.5 7.17-5.25 10.49l-1.38 3c-1.8 3.34-3.62 4.73-6.62 7l-2 2.56c-2.14 2.61-4.1 3.77-7 5.44l-1.75 1.81c-2.81 2.73-5.92 4.65-9.23 6.73C723 258 723 258 721 261c-.05 2.52-.05 2.52.25 5.38l.27 2.83A33 33 0 0 0 724 277l.88 3.25c2.53 8.46 6.76 16.28 11 24 3.88 7.1 7.65 14.02 10.12 21.75q.95 2.19 1.94 4.38a132 132 0 0 1 7.31 20.89c.68 2.49 1.46 4.91 2.31 7.35a81 81 0 0 1 2.91 11.34c.53 2.04.53 2.04 1.59 4.13 1.31 2.66.94 4.96.94 7.91.45 2.06 1 4.08 1.56 6.11.54 2.33.51 4.51.44 6.89l.5 1.88c.71 3.03.5 6.01.5 9.12l1 3q.15 4.1.12 8.19l.02 2.21c-.01 5.63-.26 11.26-1.7 16.72-.44 1.88-.44 1.88-.38 4.82-.06 3.25-.83 5.09-2.06 8.06a166 166 0 0 0-1 7l1.91-.44c11.69-2.53 21.55-1.88 32.09 4.44 5.95 4.33 11.64 9.91 14 17 2.49-7.1 4.61-14.31 5.75-21.75 3.82-19.98 18.75-38.04 34.25-50.25a80 80 0 0 1 5-2q3.16-1.68 6.31-3.38c19.84-10.26 45.57-11.65 66.95-5.47 16.29 5.2 30.87 14.02 44.74 23.85l1.67 1.17c10.29 7.29 21.08 15 24.33 27.83.43 6.55-2.12 10.59-6.31 15.44-4.93 5.21-8.82 8-16.13 8.25-8.78-.14-14.46-4.03-21.56-8.69l-2.01-1c-2.28-1.15-4.34-2.54-6.46-3.97-11.58-7.77-23.87-13.96-37.53-17.03l-3-1c-10.48-.91-19.39 1.12-27.97 7.28-11.27 9.54-14.6 24.43-16.54 38.42-.49 3.3-.49 3.3-1.55 6.92-.94 3.38-.94 3.38-.94 6 0 2.38 0 2.38-.94 4.63a24 24 0 0 0-1.56 7.13A55 55 0 0 1 854 521l-.88 3.31a130 130 0 0 1-4.17 11.33 96 96 0 0 0-2.07 5.74c-4.84 14.49-19.07 32.67-32.88 39.62h-2l-.77 1.88c-1.44 2.48-2.39 2.99-4.98 4.12a41 41 0 0 0-7 3.94 48 48 0 0 1-9.19 4.37c-5.74 2.34-9.16 4.93-13.06 9.69l-2.25 2.72q-2.28 2.8-4.54 5.63c-6.76 8.1-15.06 15-23.21 21.65l2.23 1.47c8.57 5.88 13.69 11.12 15.77 21.53.61 3.72.71 5.92-1.39 9.11-6.56 7.8-12.54 9.77-22.56 10.73-13.98 1.07-26.13-.18-39.05-5.84 0 3.04 1.81 4.09 3.88 6.25 6.19 6.9 6.95 13.64 7.12 22.75l-1 3q-13.95.18-27.9.26-6.48.04-12.96.12-6.25.07-12.51.09l-4.77.06q-3.34.05-6.68.04l-3.85.03c-4.22-.76-5.66-2.32-8.33-5.6-2.03-3.86-2.44-7.7-3-12l-1-3a69 69 0 0 1-.12-4.56l-.01-2.38C631 675 631 675 632 673l-.06-2.31C632 668 632 668 634 663h-16l2 4c.43 4.07.32 8.16.31 12.25l.05 3.36c.01 7.58-.94 12.85-4.53 19.57-2.77 2.75-5 2.32-8.84 2.32l-2.15.02q-3.52 0-7.03-.02h-4.88l-10.24-.03q-6.56-.04-13.13-.02-5.04.01-10.08-.01h-4.84q-3.38 0-6.76-.04l-3.89-.01L541 704c-2.39-3.59-2.7-5.87-2-10 3.47-10.99 8.5-17.73 18-24-3 0-3 0-5 1s-2 1-5 1l1 4-5 4-2-4c-3 0-3 0-6.41.48-5.65.73-11.28.74-16.97.77l-3.24.06c-7.29.04-15.42-.08-21.32-4.89-3.04-3.14-5.35-6.8-6.21-11.11.34-5.26 3.52-9.86 6.15-14.31l1.52-2.73c2.68-4.12 7.1-6.25 11.48-8.27a90 90 0 0 0-8.31-7.69L495 626v-2l-1.81-.29c-2.68-.87-3.49-1.93-5.19-4.15-2.11-2.74-3.81-4.19-7-5.56v-2l-1.79-.75c-2.57-1.46-3.77-2.94-5.52-5.31l-1.82-2.43L470 601l-5.42-6.86A81 81 0 0 1 460 587l-3.5-5.38A70 70 0 0 1 450 569l-2.06-4.38a52 52 0 0 1-3.51-11.63c-.53-2.46-1.48-4.66-2.43-6.99-7.06-24.28-7.47-50.77 3.12-73.94C447 469 447 469 450 468l.41-1.84c1.26-4.59 6.71-6.86 10.59-9.16 7.62-4.05 16.59-3.71 25-3 2.48 1.02 2.48 1.02 4 2l-.94-5.81-.52-3.27C488 444 488 444 487 441c-.51-4.43-.8-8.87-1.12-13.31l-.31-3.71-.27-3.59-.25-3.28c-.05-3.17.36-6 .95-9.11q.03-2.37-.06-4.75c-.05-4.38.54-8.28 1.49-12.55a152 152 0 0 0 1.57-9.26c1.11-7.4 2.59-14.36 5-21.44 4.91-14.6 4.91-14.6 6.56-20.38A97 97 0 0 1 506 326l1.31-2.96a174 174 0 0 1 8.81-17.23 90 90 0 0 0 6.95-14.31c1.09-2.92 2.32-5.76 3.55-8.62 1.93-4.64 3.49-8.93 4.38-13.88l.43-2.21c.42-3.77.28-5.89-2.13-8.93a85 85 0 0 0-11.92-8.86c-4.7-3.04-7.96-6.61-11.38-11l-2.07-2.54c-6.16-7.89-8.99-15.73-10.93-25.46l-1-3q-.13-4.2-.1-8.41l.01-2.61.01-5.64.03-9.02.06-22.52c.14-45.08.14-45.08-.45-65.55l-.06-2.12c-.22-7.75-.62-15.46-1.3-23.19-.28-4.1-.23-8.18-.14-12.28A42 42 0 0 0 489 48c-.69-12.11-.2-24.94 8.14-34.42 3.2-2.72 6.87-3.54 10.86-4.58 2.61-1.31 4.08-1.26 7-1m174 656 1 4 1-2z" fill="#151816"/><path d="M515 8c7.5 2.78 14.13 6.56 20 12v2l1.62.75c11.82 6.23 22.85 15.45 33.07 23.94 4.05 3.36 8.2 6.38 12.63 9.22A11 11 0 0 1 585 58q3.84.2 7.7.22l2.44.04q12.69.15 25.38.2 6.03.03 12.04.12 7.27.1 14.54.12 2.76.02 5.53.07c16.26.29 16.26.29 21.38-4.31l1.62-1.95L677 51h3l.69-1.81c1.66-2.78 3.52-3.62 6.31-5.19l1.38-1.44C690 41 690 41 693.15 39.25c4-2.25 7.52-4.94 11.1-7.81l1.85-1.46c4.49-3.56 4.49-3.56 6.46-5.56 1.92-1.9 4.12-3.03 6.44-4.42l4-3c6.85-5.19 13.07-9.23 22-8 7.17 1.85 11.95 4.76 16 11 3.29 5.96 3.19 12.93 2.55 19.54-.55 6.25-.88 12.5-1.11 18.77l-.13 3.37q-.45 12.97-.27 25.93c.04 4.61-.18 8.84-1.04 13.39a194 194 0 0 0 0 9v3l.02 6.45q.06 15.69.08 31.38l.05 17.36.06 23.2q.02 4.47.02 8.96l.02 2.66A42 42 0 0 1 759 217l-.75 2.51c-1.29 4.06-2.5 7.17-5.25 10.49l-1.38 3c-1.8 3.34-3.62 4.73-6.62 7l-2 2.56c-2.14 2.61-4.1 3.77-7 5.44l-1.75 1.81c-2.81 2.73-5.92 4.65-9.23 6.73C723 258 723 258 721 261c-.05 2.52-.05 2.52.25 5.38l.27 2.83A33 33 0 0 0 724 277l.88 3.25c2.53 8.46 6.76 16.28 11 24 3.88 7.1 7.65 14.02 10.12 21.75q.95 2.19 1.94 4.38a132 132 0 0 1 7.31 20.89c.68 2.49 1.46 4.91 2.31 7.35a81 81 0 0 1 2.91 11.34c.53 2.04.53 2.04 1.59 4.13 1.31 2.66.94 4.96.94 7.91.45 2.06 1 4.08 1.56 6.11.54 2.33.51 4.51.44 6.89l.5 1.88c.71 3.03.5 6.01.5 9.12l1 3q.15 4.1.12 8.19l.02 2.21c-.01 5.63-.26 11.26-1.7 16.72-.44 1.88-.44 1.88-.38 4.82-.06 3.25-.83 5.09-2.06 8.06a166 166 0 0 0-1 7l1.91-.44c11.69-2.53 21.55-1.88 32.09 4.44 5.95 4.33 11.64 9.91 14 17 2.49-7.1 4.61-14.31 5.75-21.75 3.82-19.98 18.75-38.04 34.25-50.25a80 80 0 0 1 5-2q3.16-1.68 6.31-3.38c19.84-10.26 45.57-11.65 66.95-5.47 16.29 5.2 30.87 14.02 44.74 23.85l1.67 1.17c10.29 7.29 21.08 15 24.33 27.83.43 6.55-2.12 10.59-6.31 15.44-4.93 5.21-8.82 8-16.13 8.25-8.78-.14-14.46-4.03-21.56-8.69l-2.01-1c-2.28-1.15-4.34-2.54-6.46-3.97-11.58-7.77-23.87-13.96-37.53-17.03l-3-1c-10.48-.91-19.39 1.12-27.97 7.28-11.27 9.54-14.6 24.43-16.54 38.42-.49 3.3-.49 3.3-1.55 6.92-.94 3.38-.94 3.38-.94 6 0 2.38 0 2.38-.94 4.63a24 24 0 0 0-1.56 7.13A55 55 0 0 1 854 521l-.88 3.31a130 130 0 0 1-4.17 11.33 96 96 0 0 0-2.07 5.74c-4.84 14.49-19.07 32.67-32.88 39.62h-2l-.77 1.88c-1.44 2.48-2.39 2.99-4.98 4.12a41 41 0 0 0-7 3.94 48 48 0 0 1-9.19 4.37c-5.74 2.34-9.16 4.93-13.06 9.69l-2.25 2.72q-2.28 2.8-4.54 5.63c-6.76 8.1-15.06 15-23.21 21.65l2.23 1.47c8.57 5.88 13.69 11.12 15.77 21.53.61 3.72.71 5.92-1.39 9.11-6.56 7.8-12.54 9.77-22.56 10.73-13.98 1.07-26.13-.18-39.05-5.84 0 3.04 1.81 4.09 3.88 6.25 6.19 6.9 6.95 13.64 7.12 22.75l-1 3-4-1 .11-2.6c.23-10.07-1.35-16.12-8.21-23.6-3.85-3.64-7.73-5.51-12.9-6.8v-9a77 77 0 0 1 8.6 3.84l1.99 1.03 4 2.12c10.3 5.31 20.04 6.5 31.53 6.39l3.67.03c15.4-.05 15.4-.05 20.89-4.89 3.2-3.67 2.7-7.73 2.69-12.4-.48-4.01-1.86-6.42-4.28-9.6C755 646 755 646 755 644l-1.64-.8a299 299 0 0 1-8.11-4.32l-2.98-1.64L740 636a63 63 0 0 1 9.38-7.94c10.98-8.18 20.49-17.18 28.53-28.28 3.6-4.79 6.18-7.09 11.9-8.97 13.48-4.97 24.05-12.78 34.19-22.81l2.05-1.87c19.82-18.37 25.47-48.82 29.95-74.25 6.53-36.64 6.53-36.64 20-47.88 11.35-7.56 21.29-9.54 34.71-7.61 2.54.7 4.86 1.59 7.29 2.61l1.97.81A190 190 0 0 1 948 454c22.82 14.17 22.82 14.17 33 13 3.38-1.5 3.38-1.5 6-3h2l.75-1.62c1.25-2.38 1.25-2.38 3.37-5.07 2.46-4.33 2.79-7.44 1.88-12.31-7.18-19.44-33.71-32.62-51.38-41.25-11.36-5.02-23.15-8.54-35.62-8.75l-2.35-.07c-10.96-.33-21.07-.19-31.65 3.07l-2.25.58c-6.41 1.73-11.63 4.32-17.19 7.92l-2.49 1.6c-19.88 13.11-28.73 31.12-34.07 53.9l-.84 3.5a170 170 0 0 0-3.43 21.26c-.37 3.49-.74 5.25-2.73 8.24l-.7-3.18c-2.86-12.53-6.44-22.96-17.63-30.36-9.45-5.06-20.08-4.94-30.17-1.93L758 461l2.25-17.97.39-3.17q.43-3.4.94-6.79c2.2-17.78.92-36.54-2.58-54.07l-.5-2.54a247 247 0 0 0-23.89-66.73C720.04 282.35 720.04 282.35 718 270l-.59-2.76c-.41-3.48-.41-5.86.59-9.24 3.7-3.59 7.81-6.13 12.18-8.82 4.39-2.85 8.1-6.53 11.82-10.18l1.99-1.95c10.66-11.26 13.47-26.57 13.43-41.57l.02-3.6.03-9.68.05-10.26q.06-9.73.08-19.45.07-17.32.16-34.63l.05-14.01q.09-22.58 1.08-45.14c.27-6.63.37-13.26.42-19.9l.05-2.04c.29-14 .29-14-4.36-19.77-4.59-4.16-10.78-4.83-16.77-4.55-3.55.6-5.51 1.63-8.49 3.62L726.85 18A331 331 0 0 0 714 27.56a998 998 0 0 1-25.21 18.87l-2.15 1.53C684 50 684 50 681.17 52.7c-9.73 9.05-17.99 9.98-30.94 9.87l-5.66.05q-5.9.04-11.81-.02-6-.06-12 .06c-38.37.74-38.37.74-48.96-8.35a81 81 0 0 1-5.13-5.49c-3.01-3.28-6.65-5.77-10.23-8.38l-4.2-3.2-2.1-1.6q-3.3-2.53-6.6-5.1C518.92 11.46 518.92 11.46 506 13c-5.43 2-8.32 4.92-11.14 9.99-1.47 3.43-1.37 6.7-1.29 10.38l.01 2.42q.03 3.82.11 7.65l.03 4.93q.09 11.83.64 23.66c.64 13.48.81 26.94.87 40.43l.25 44.83.12 20.43.03 7.73.07 10.78v3.18c.14 14.52 3.57 26.61 13.3 37.59l1.93 2.18c5.71 6.06 12.24 10.82 19.01 15.63 4 2.86 4 2.86 4.47 5.51 1.27 19.43-10.22 37.67-19.02 54.32C503.02 338.06 495.2 363.86 491 390l-.58 3.57c-.78 6.67-.66 13.41-.67 20.12l-.01 2.21c0 11.53.8 22.64 2.9 34 .58 3.35.97 6.72 1.36 10.1l-1.59-.44c-10.51-2.52-23.66-4.06-33.27 1.77-11.69 9.11-15.69 20.94-17.64 35.12-4.23 35.42 8.47 72.33 29.68 100.44q3.33 4.13 6.82 8.11l1.29 1.49c9.41 10.85 20.77 22.04 33.71 28.51v2l-1.94.66c-7.52 2.76-13.35 5.96-17.5 13.03-2.2 4.95-2.39 9.99-1.56 15.31 1.78 3.22 3.07 4.49 6.25 6.25 21.1 5.75 43.37.6 62.37-9.06C563 662 563 662 565 662v8l-1.94.88c-8.74 4.15-14.99 7.83-18.35 17.24-1.29 5.23-1.54 10.52-1.71 15.88h-2c-2.39-3.59-2.7-5.87-2-10 3.47-10.99 8.5-17.73 18-24-3 0-3 0-5 1s-2 1-5 1l1 4-5 4-2-4c-3 0-3 0-6.41.48-5.65.73-11.28.74-16.97.77l-3.24.06c-7.29.04-15.42-.08-21.32-4.89-3.04-3.14-5.35-6.8-6.21-11.11.34-5.26 3.52-9.86 6.15-14.31l1.52-2.73c2.68-4.12 7.1-6.25 11.48-8.27a90 90 0 0 0-8.31-7.69L495 626v-2l-1.81-.29c-2.68-.87-3.49-1.93-5.19-4.15-2.11-2.74-3.81-4.19-7-5.56v-2l-1.79-.75c-2.57-1.46-3.77-2.94-5.52-5.31l-1.82-2.43L470 601l-5.42-6.86A81 81 0 0 1 460 587l-3.5-5.38A70 70 0 0 1 450 569l-2.06-4.38a52 52 0 0 1-3.51-11.63c-.53-2.46-1.48-4.66-2.43-6.99-7.06-24.28-7.47-50.77 3.12-73.94C447 469 447 469 450 468l.41-1.84c1.26-4.59 6.71-6.86 10.59-9.16 7.62-4.05 16.59-3.71 25-3 2.48 1.02 2.48 1.02 4 2l-.94-5.81-.52-3.27C488 444 488 444 487 441c-.51-4.43-.8-8.87-1.12-13.31l-.31-3.71-.27-3.59-.25-3.28c-.05-3.17.36-6 .95-9.11q.03-2.37-.06-4.75c-.05-4.38.54-8.28 1.49-12.55a152 152 0 0 0 1.57-9.26c1.11-7.4 2.59-14.36 5-21.44 4.91-14.6 4.91-14.6 6.56-20.38A97 97 0 0 1 506 326l1.31-2.96a174 174 0 0 1 8.81-17.23 90 90 0 0 0 6.95-14.31c1.09-2.92 2.32-5.76 3.55-8.62 1.93-4.64 3.49-8.93 4.38-13.88l.43-2.21c.42-3.77.28-5.89-2.13-8.93a85 85 0 0 0-11.92-8.86c-4.7-3.04-7.96-6.61-11.38-11l-2.07-2.54c-6.16-7.89-8.99-15.73-10.93-25.46l-1-3q-.13-4.2-.1-8.41l.01-2.61.01-5.64.03-9.02.06-22.52c.14-45.08.14-45.08-.45-65.55l-.06-2.12c-.22-7.75-.62-15.46-1.3-23.19-.28-4.1-.23-8.18-.14-12.28A42 42 0 0 0 489 48c-.69-12.11-.2-24.94 8.14-34.42 3.2-2.72 6.87-3.54 10.86-4.58 2.61-1.31 4.08-1.26 7-1m174 656 1 4 1-2z" fill="#E4E6E7"/><path d="M673 495h1c.48 5.35-.87 8.1-3.75 12.56l-2.11 3.32c-3.27 4.77-6.4 8.75-11.14 12.12h-2v2c-2.48 1.73-2.48 1.73-5.75 3.62l-3.23 1.92C643 532 643 532 639 532l.18 1.66c1.82 17.41 2.13 34.72 2.08 52.2q-.01 5.64.01 11.26c.03 14.19-.09 28.32-1.16 42.48l-.24 3.13A125 125 0 0 1 637 660h-22l-1.44-10.25-.44-3.09c-2.21-16.31-2.32-32.85-2.31-49.28v-2.66c0-20.61 1.01-41.15 2.19-61.72l-2.46-1.2-3.24-1.6-3.21-1.57c-3.98-2.1-7.85-4.47-11.09-7.63v-2l-1.71-.62c-3.14-1.89-4.94-4.53-6.98-7.5l-1.22-1.77c-2.98-4.5-4.19-7.76-4.09-13.11l1.88 1.94c7.43 7.37 14.93 13.94 24.12 19.06l2.77 1.54c9.49 4.63 19.64 5.09 29.82 2.57 14.21-5.08 26.07-14.36 35.41-26.11" fill="#000"/><path d="M739 470h1c1.64 37.81-6.06 73.88-20 109l-1.99 5.12-.94 2.42c-8.59 22.32-16.5 44.83-18.44 68.83-.3 3.63-.67 6.51-2.63 9.63-3.92-.58-6.26-2.16-9-5-.13-2.75 0-4.67.5-7.31l.35-2.16q.36-2.22.77-4.42.5-2.8.92-5.62c2.98-17.46 9.53-34.35 15.74-50.88a750 750 0 0 0 29.91-99.67l.79-3.54A169 169 0 0 0 739 470" fill="#000100"/><path d="M512 471c2.27 3.41 2.77 5.91 3.59 9.91l.42 2.07.9 4.37 1.43 6.87q2.03 9.69 4 19.39c2.21 10.51 6.04 20.63 9.6 30.74l1.4 3.98.7 1.98q2.12 6.07 3.96 12.24c2.18 7.22 4.8 14.27 7.44 21.33 5.42 14.52 10.53 29.05 14.3 44.1q.77 3.03 1.57 6.06A122 122 0 0 1 565 661c-5.62 4-5.62 4-9 4l-.41-2.89-1.56-10.71-.67-4.62c-2.16-15.2-2.16-15.2-4.63-21.79a72 72 0 0 1-1.98-6.55 271 271 0 0 0-9.5-29l-1.29-3.3-2.63-6.74c-6.21-15.89-11.73-31.59-15.33-48.28l-.43-1.99c-2.58-12.14-4.68-24.34-5.19-36.75l-.12-2.42A307 307 0 0 1 512 471" fill="#000101"/><path d="M844 538h4c-5.12 16.1-17.76 32.39-31.79 41.89C814 581 814 581 812 581l-.77 1.88c-1.44 2.48-2.39 2.99-4.98 4.12a41 41 0 0 0-7 3.94 48 48 0 0 1-9.19 4.37c-5.74 2.34-9.16 4.93-13.06 9.69l-2.25 2.72q-2.28 2.8-4.54 5.63c-6.76 8.1-15.06 15-23.21 21.65l2.23 1.47c8.57 5.88 13.69 11.12 15.77 21.53.61 3.72.71 5.92-1.39 9.11-6.56 7.8-12.54 9.77-22.56 10.73-13.98 1.07-26.13-.18-39.05-5.84 0 3.04 1.81 4.09 3.88 6.25 6.19 6.9 6.95 13.64 7.12 22.75l-1 3-4-1 .11-2.6c.23-10.07-1.35-16.12-8.21-23.6-3.85-3.64-7.73-5.51-12.9-6.8v-9a77 77 0 0 1 8.6 3.84l1.99 1.03 4 2.12c10.3 5.31 20.04 6.5 31.53 6.39l3.67.03c15.4-.05 15.4-.05 20.89-4.89 3.2-3.67 2.7-7.73 2.69-12.4-.48-4.01-1.86-6.42-4.28-9.6C755 646 755 646 755 644l-1.64-.8a299 299 0 0 1-8.11-4.32l-2.98-1.64L740 636a63 63 0 0 1 9.38-7.94c10.98-8.18 20.49-17.18 28.53-28.28 3.6-4.79 6.18-7.09 11.9-8.97 13.48-4.97 24.05-12.78 34.19-22.81l2.05-1.87c8.3-7.68 13.15-18.06 17.95-28.13M689 664l1 4 1-2z" fill="#E5E6E6"/><path d="M515 8c7.5 2.78 14.13 6.56 20 12v2l1.62.75c11.82 6.23 22.85 15.45 33.07 23.94A140 140 0 0 0 584 57l3 2c2.69.21 5.27.31 7.96.32l2.45.03 8.04.06 5.57.06 14.66.13 14.96.14L670 60v1q-16.54.5-33.1.73-7.69.1-15.37.33c-39.49 1.2-39.49 1.2-49.78-7.7a78 78 0 0 1-5.09-5.53c-2.99-3.3-6.64-5.78-10.22-8.39l-4.2-3.2-2.1-1.6q-3.3-2.53-6.6-5.1C518.92 11.46 518.92 11.46 506 13c-5.43 2-8.32 4.92-11.14 9.99-1.47 3.43-1.37 6.7-1.29 10.38l.01 2.4a657 657 0 0 0 .11 7.67l.04 5.35q.15 14.95.91 29.87c1.35 28.73.31 57.62-.64 86.34h-1l-.07-3.22-.66-30.14-.34-15.49-.33-14.98-.12-5.68c-.2-9.27-.42-18.49-1.28-27.73-.29-4.04-.23-8.06-.14-12.1A42 42 0 0 0 489 48c-.69-12.11-.2-24.94 8.14-34.42 3.2-2.72 6.87-3.54 10.86-4.58 2.61-1.31 4.08-1.26 7-1" fill="#DDDFDF"/><path d="M494 128h1l.02 2.97q.12 13.9.27 27.8l.13 14.3.14 13.81.04 5.25c.12 17.18 1.6 31.57 13.4 44.87l1.93 2.18c5.71 6.06 12.24 10.82 19.01 15.63 4 2.86 4 2.86 4.47 5.51 1.27 19.43-10.22 37.67-19.02 54.32-16 30.3-23.81 63.4-26.35 97.38l-.17 2.13-.43 5.8C488 423 488 423 486 426c-.65-6.22-1.21-11.83 0-18q0-2.37-.06-4.75c-.05-4.38.54-8.28 1.49-12.55a152 152 0 0 0 1.57-9.26c1.11-7.4 2.59-14.36 5-21.44 4.91-14.6 4.91-14.6 6.56-20.38A97 97 0 0 1 506 326l1.31-2.96a174 174 0 0 1 8.81-17.23 90 90 0 0 0 6.95-14.31c1.09-2.92 2.32-5.76 3.55-8.62 1.93-4.64 3.49-8.93 4.38-13.88l.43-2.21c.42-3.77.28-5.89-2.13-8.93a85 85 0 0 0-11.92-8.86c-4.7-3.04-7.96-6.61-11.38-11l-2.07-2.54c-6.16-7.89-8.99-15.73-10.93-25.46l-1-3q-.14-3.6-.13-7.2l-.01-2.14.01-4.49-.01-6.79.01-4.39V178c.06-3.61.46-7.14.89-10.72.39-3.75.47-7.49.56-11.25l.06-2.45.18-7.64.13-5.23z" fill="#E6E8E9"/><path d="M633.4 189.13c1.91 1.37 1.91 1.37 4.6 3.87-.26 4.37-.6 6.52-3.44 9.94C632 205 632 205 630 205l.25 2.8c-.25 3.2-.25 3.2-1.94 5.08-2.76 1.34-4.29 1.66-7.3 1.12-2.42-2.24-2.98-3.46-3.2-6.75q.08-1.1.2-2.25-.88-.33-1.76-.7c-2.96-1.71-4.46-3.38-6.25-6.3-.19-3.06-.19-3.06 1-6 5.95-5.14 15.2-6.26 22.4-2.87" fill="#606262"/><path d="M488 410h1l.14 2.61q.26 4.9.55 9.81l.23 4.2c.47 8.98 1.5 17.51 3.47 26.29.61 3.09.61 3.09.61 7.09l-1.59-.44c-10.51-2.52-23.66-4.06-33.27 1.77-11.69 9.11-15.69 20.94-17.64 35.12-2.48 20.8 1.56 41.89 8.51 61.47.99 3.08.99 3.08.99 6.08-1.88-.62-1.88-.62-4-2-1.06-2.5-1.06-2.5-2-6l-1.5-4.88c-7.72-26.16-9.94-53.79 1.62-79.06C447 469 447 469 450 468l.41-1.84c1.26-4.59 6.71-6.86 10.59-9.16 7.62-4.05 16.59-3.71 25-3 2.48 1.02 2.48 1.02 4 2l-.94-5.81-.52-3.27C488 444 488 444 487 441q-.15-4.18-.12-8.38v-2.41c.05-6.78.45-13.47 1.12-20.21" fill="#E1E3E3"/><path d="M616 661h20l-.11 6.03-.05 5.87-.1 6c-.08 9.55.83 17.08 6.26 25.1-4.67-1.47-4.67-1.47-6.19-3.88L635 698l-1.06-1.81c-1.29-3-1.53-5.97-1.94-9.19l-1-3a69 69 0 0 1-.12-4.56l-.01-2.38C631 675 631 675 632 673l-.06-2.31C632 668 632 668 634 663h-16l2 4c.43 4.07.32 8.16.31 12.25l.05 3.36c.01 8.14-.78 15.01-6.36 21.39l-3-1 .84-1.57 1.1-2.12 1.09-2.07c2-4.62 2.09-9.08 2.07-14.07l-.01-3.92-.03-4.06-.01-4.13z" fill="#EFF0F2"/><path d="M492 28h1c1.73 45.74 2.52 91.24 1 137h-1l-.07-3.22-.66-30.14-.34-15.49-.33-14.98-.12-5.68c-.2-9.29-.41-18.52-1.38-27.77-.11-3.04.34-5.74.9-8.72q.21-3.68.32-7.37l.06-2.06.18-6.45.13-4.39z" fill="#DDDEDE"/><path d="M760 28h1a549 549 0 0 1 1.13 39.96q-.01 5 .01 9.97l-.01 6.4.01 2.98A70 70 0 0 1 761 101a82 82 0 0 0-.06 4.69l.02 2.26.04 2.05c0 3.67-.18 7.33-.38 11l-.09 2.2c-.21 3.72-.42 5.63-2.53 8.8-.3-34.72.46-69.31 2-104" fill="#D6D7D7"/><path d="M896 436c19.07-.88 36.12 8.08 52 18 21.21 13.17 21.21 13.17 31.25 13.06l3.27-.02L985 467v2c-4.69 2.35-10.93 1.99-16 1-5.06-1.95-9.49-5.04-14-8l-2.01-1c-2.28-1.15-4.34-2.54-6.46-3.97C935 449.3 922.64 442.94 909 440l-3.56-.84q-4.71-1.1-9.44-2.16z" fill="#E6E7E9"/><path d="M759 129h1l.39 27.25.18 12.66.18 12.24.06 4.64L761 200l.04 3.11.03 2.68.02 2.23c-.23 4.93-2.18 9.49-4.09 13.98h-1l.21-2.43c.71-9.02.97-17.99 1.05-27.03l.08-7.46.19-18.46.16-15.71.07-7.34.05-4.48.04-3.94C758 132 758 132 759 129" fill="#F0F2F2"/><path d="m754 354 3 1 .38 2.12A79 79 0 0 0 760 366a63 63 0 0 1 2.71 13.73c.29 2.25.76 4.33 1.35 6.52A29 29 0 0 1 765 395l.5 1.88c.71 3.03.5 6.01.5 9.12l1 3q.15 4.1.12 8.19l.02 2.21A84 84 0 0 1 766 434l-2 1 .04-1.84c.11-8.47-.49-16.86-1.23-25.28l-.19-2.25c-1.32-15.03-3.41-30.07-7.77-44.56C754 358 754 358 754 354" fill="#E9EBEA"/><path d="M709.13 173.63 712 176c-3 1-3 1-4.81.13L705 175c-13.15-2.86-26.1-2.78-39.07 1.12-2.92.88-2.92.88-6.92.88v2q-1.9 1.04-3.83 2.06l-2.13 1.16C651 183 651 183 648 182c12.47-13.53 45.22-19.54 61.12-8.38" fill="#030504"/><path d="M494 128h1l.03 2.96.31 27.76.16 14.27.15 13.79.06 5.24c.09 9.04.23 17.99 1.29 26.98h-2c-2.35-6.59-3.13-12.5-3.13-19.49l-.01-2.13.01-4.44-.01-6.71.01-4.34v-3.93a123 123 0 0 1 .89-10.68c.39-3.74.47-7.49.56-11.25l.06-2.45.18-7.64.13-5.23z" fill="#EDF0EE"/><path d="M564.31 169.63q1.72-.05 3.47-.07c11.17-.05 22.83 2.5 31.22 10.44v3h-2v-2l-2.62-.84c-4.26-1.47-8.35-3.25-12.48-5.03-14-5.41-32.2-1.98-45.9 2.88 1-3 1-3 3-4.57 8.03-3.85 16.55-3.8 25.31-3.81" fill="#020404"/><path d="M763 409h1c1.06 22.1 1.06 22.1 1.19 30.12l.04 2.58c-.27 2.71-1.17 4.8-2.23 7.3a166 166 0 0 0-1 7l3.94-.56c4.87-.56 9.22-.13 14.06.56v1l-2.27.11-3.11.2-3.02.18c-4.7.67-9.09 2.05-13.6 3.51l2.25-17.97.39-3.16.66-5.07c.74-5.42 1.02-10.84 1.26-16.3l.13-2.78z" fill="#DBDEDC"/><path d="M488 410h1l.14 2.61q.26 4.9.55 9.81l.23 4.2c.47 8.98 1.5 17.51 3.47 26.29.61 3.09.61 3.09.61 7.09l-6-1 3-1-.62-2.45-1.63-6.44L488 446l-.59-2.36c-.58-3.71-.56-7.4-.53-11.14v-2.39c.05-6.74.46-13.4 1.12-20.11" fill="#D4D7D7"/><path d="M492 28h1c1.1 35.67 1.1 35.67 1.12 47.69l.02 2.23c-.02 5.08-.5 10.05-1.14 15.08h-1q-.55-6.81-1.06-13.62l-.32-3.9-.28-3.77-.27-3.46A45 45 0 0 1 491 59q.21-3.68.32-7.37l.06-2.06.18-6.45.13-4.39z" fill="#CCCDCD"/><path d="M756 213c1.19 3.72 1.34 7.11 1 11-1.81 3.06-1.81 3.06-4 6l-1.44 3.12c-1.77 3.26-3.63 4.66-6.56 6.88l-1.88 2.5c-2.75 3.25-5.29 4.65-9.12 6.5l-2-1 1.94-1.69c11.11-9.8 18.48-18.66 22.06-33.31" fill="#E5E6E7"/><path d="M763 396h1l.4 2.08.54 2.73.52 2.71C766 406 766 406 767 409q.15 4.1.12 8.19l.02 2.21A84 84 0 0 1 766 434l-2 1 .04-1.88c.05-5.53-.13-10.98-.54-16.5-.5-6.88-.6-13.72-.5-20.62" fill="#F1F3F2"/><path d="M916 392c8.71 1.05 17.16 2.9 25 7l1 3-4.81-1.31-3.06-.83a246 246 0 0 1-5.89-1.69c-6.74-2-13.23-2.82-20.24-3.17v-1h8z" fill="#DBDCDD"/><path d="M491 24h2l-1 35h-1a77 77 0 0 1 0-35" fill="#F0F0F2"/><path d="M758 17c4.51 3.89 5.36 8.69 5.91 14.38.16 4.9-.37 9.75-.91 14.62h-2l-.11-3.59C760.56 33.91 760.2 26 757 18z" fill="#F1F3F2"/><path d="M489 398h1c1.44 7.4 2.23 14.6 2.31 22.12l.06 2.23c-.01 4.44-.08 5.36-3.37 8.65z" fill="#202324"/><path d="M497 218c2.09 2.09 2.68 3.42 3.75 6.12 3.32 7.67 8.8 13.65 14.25 19.88-5.91-1.03-9.26-5.68-12.71-10.29-6.62-9.67-6.62-9.67-5.91-14.02z" fill="#DDE0E0"/><path d="M760 445h1l1 11 3.94-.56c4.87-.56 9.22-.13 14.06.56v1l-2.27.11A74 74 0 0 0 758 461z" fill="#DADDDB"/><path d="m509.25 9.88 3.27.04c.41.03.41.03 2.48.07v1l-1.69.28c-6.48 1.19-12.64 3.1-16.7 8.61-1.11 1.93-1.11 1.93-2.61 5.11q-.99-.47-2-1c.32-5.21 3.3-8.55 7-12 3.39-2.25 6.24-2.2 10.25-2.12" fill="#E7E7E9"/><path d="M474 602a88 88 0 0 1 12.42 12.27C488 616 488 616 491 618v3c-3.38-1.13-4.56-2.48-7-5l-3-2v-2l-1.75-.62c-3.06-1.88-4.41-4.35-6.25-7.38z" fill="#EBEEED"/><path d="M851 516c2 3 2 3 3 6-1.39 5.7-4.32 10.82-7 16h-2l.55-1.77c2.05-6.69 3.8-13.43 5.45-20.23" fill="#D6D7D9"/><path d="M738 9c6.33-.55 11.38 1.06 17 4 1.8 1.64 1.8 1.64 3 3l-1 3-2.75-2.38c-4.89-3.55-10.37-3.97-16.25-4.62z" fill="#E0E1E4"/><path d="M634 676h1l.11 2.75c.51 9.4 1.52 17.33 6.89 25.25-4.67-1.47-4.67-1.47-6.19-3.88L635 698l-1.05-1.86c-1.07-2.42-1.11-3.85-.93-6.47l.16-2.42.2-2.5.17-2.55q.21-3.1.45-6.2" fill="#E0E1E3"/><path d="M441 500h1l.18 3.29.26 4.33.12 2.17c.24 4.13.67 8.13 1.44 12.21h-1l-1 5h-1a161 161 0 0 1-1-26z" fill="#2D312E"/><path d="M438 497h2v25l-2-1c-1.17-5.4-.97-10.46-.56-15.94l.16-2.36q.18-2.85.4-5.7" fill="#EDF0EF"/><path d="m754 354 3 1 .38 2.12a30 30 0 0 0 1.62 5.69c1.18 3.77 1.59 7.27 2 11.19l-2 1-2.5-8.25-.72-2.36-.69-2.28-.63-2.1C754 358 754 358 754 354" fill="#EFF2EE"/><path d="M542 688h2l-1 16h-2c-2.49-3.74-2.38-5.56-2-10 1.5-3.44 1.5-3.44 3-6" fill="#DADADC"/><path d="m464.31 459.31 1.7.7a41 41 0 0 1-9.14 7.3l-2.63 1.61L452 470l-2-1c9.8-10.3 9.8-10.3 14.31-9.69" fill="#1F2021"/><path d="m558.18 671.4 1.82.6-1.83 1.14c-5.63 3.6-9.41 6.82-12.79 12.68L544 688h-2c1.64-6.72 5.62-11.44 11.13-15.5 2.87-1.5 2.87-1.5 5.05-1.1" fill="#E4E2EA"/><path d="m464 588 1.62 2.06a138 138 0 0 0 7.21 8.29C474 600 474 600 474 603c-3.56-1.47-5.44-3.37-7.81-6.38l-1.9-2.33C463 592 463 592 463.3 589.71z" fill="#E0E3E4"/><path d="m808 478 5 1 .12 6.31.08 3.55C813 492 813 492 811 495l-1.5-6.81-.84-3.83C808 481 808 481 808 478" fill="#ECEFF1"/><path d="M470 454q3.84-.12 7.69-.19l2.18-.07c4.58-.07 7.49.41 11.13 3.26v1c-6.62.12-6.62.12-10-1q-2.84-.33-5.69-.56l-3.01-.26-2.3-.18z" fill="#E9EAED"/><path d="M761 657h1c1.43 7.92 1.43 7.92-.12 11.81-3.06 3.56-5.48 5.81-10.07 7.07L749 676l-2-2 1.86-.55 2.45-.76 2.43-.74c3.15-1.32 4.74-2.91 6.26-5.95q.33-2.31.56-4.62l.26-2.48z" fill="#D7DBD8"/><path d="M861 471h2l-.44 5.31-.24 2.99C862 482 862 482 861 485l-1 4-2-1a48 48 0 0 1 2-16z" fill="#E2E1E4"/><path d="M759 82h1l.43 11.8.21 5.98.14 3.8.13 3.51c.11 3.6 0 7.02-.41 10.6l-.28 2.45L760 122h-1z" fill="#F4F5F6"/><path d="M760 651h3c1.57 4.82 2.49 8.86 2 14-1.52 1.7-1.52 1.7-3 3l-.18-2.2c-.43-4.97-.89-9.89-1.82-14.8" fill="#F3F5F3"/><path d="M515 8c6.47 2.19 6.47 2.19 8.44 5.19L524 15l-2.94-.94c-4.3-1.24-8.61-1.68-13.06-2.06V9c2.61-1.31 4.08-1.26 7-1" fill="#DADADA"/><path d="M756 213c1.43 4.47 2.04 8.92-.12 13.23A97 97 0 0 1 752 232l-3-1 1.02-2.16c2.44-5.23 4.61-10.24 5.98-15.84" fill="#D2D5D6"/><path d="M935 447c5.59 2.69 10.94 5.4 16 9l-1 2a66 66 0 0 1-10.31-4.94l-2.68-1.52L935 450z" fill="#D8DADA"/><path d="m491 666 1.14 1.24c5.1 4.99 9.88 6.03 16.86 6.76v1c-5.91 1.09-9.77 1.49-15-2-1.88-1.44-1.88-1.44-3-3z" fill="#D8DADC"/><path d="M559 665c-1.04 3.35-2.02 4.01-5.19 5.69-3.53 1.36-7.04 1.92-10.81 2.31l-1-2 2.77-1.06 3.61-1.38 3.58-1.37c5.59-2.19 5.59-2.19 7.04-2.19" fill="#DADCD8"/><path d="M541 672h6l1 4-5 4c-1.76-3.09-2-4.23-2-8" fill="#F4F4F7"/><path d="M976 423c4.04.53 6.22 1.61 9.25 4.31l2.08 1.8c1.77 2.01 2.28 3.27 2.67 5.89l-1.29-1.14c-3.12-2.72-6.25-5.3-9.65-7.67L976 424z" fill="#CBCCD1"/><path d="M487 406h1l.12 8.31.06 2.38.02 2.3.03 2.11C488 423 488 423 486 426c-.89-7.19-1.27-13.07 1-20" fill="#F0F2F4"/><path d="m916 392 11 2v2l-19-1v-1h8z" fill="#CECFCE"/><path d="M616 690h1c1.61 8.04 1.61 8.04-.94 12.06L614 704l-3-1 .84-1.57c1.97-3.79 3.62-7.14 4.16-11.43" fill="#E5E7E9"/><path d="M814 464h2a289 289 0 0 1-.25 5.88l-.14 3.3c-.61 2.82-.61 2.82-2.66 4.2L811 478c.41-4.97.8-9.45 3-14" fill="#EEF1F2"/><path d="m793 590 2 3q-2.18 1.05-4.38 2.06l-2.46 1.16-2.16.78-2-1v-3z" fill="#DEE0DE"/><path d="m845 409 3 2-3.75 3.31-2.11 1.87A110 110 0 0 1 836 421c0-3 0-3 1.97-5.26l2.53-2.43 2.53-2.45z" fill="#D3D4D7"/><path d="M491 449c2.57 3.85 2.55 6.43 3 11l-6-1 3-1-1-2c-.12-3.06-.12-3.06 0-6z" fill="#CCCCCD"/><path d="M772 457v2l4 1-11 2v-2l-3-1c3.62-1.32 6.1-2 10-2" fill="#202221"/><path d="m994 444 2 1c.51 6.4.12 9.98-4 15-1-3-1-3-.1-4.89L993 453c.41-2.36.41-2.36.62-4.75l.23-2.42z" fill="#1F221F"/><path d="M805 586v2l-2.19.81A54 54 0 0 0 795 593v-4c3.73-2.03 5.67-3 10-3" fill="#EEF0EC"/><path d="m473.81 455.38 2.1.17 5.1.44v1c-.48.05-.48.05-2.86.2l-3.78.25q-1.84.11-3.72.25c-3.27.27-6.43.73-9.65 1.3v-2c4.35-2.2 8.08-2.06 12.81-1.62" fill="#C9CBCE"/><path d="M817 453h3l-3 14c-2.13-3.19-2.24-3.49-1.69-7l.3-2.06C816 456 816 456 817 453" fill="#D8DADE"/><path d="m728.16 674.9 3.9.04 3.91.02 3.03.04c-3.79 3.15-6.04 3.44-11 3-2.44-1-2.44-1-4-2 1-1 1-1 4.16-1.1" fill="#DCDFDC"/><path d="m993 457 2 1c-1.65 4.29-4.74 6.88-8 10l-3-1c1.38-1.5 1.38-1.5 3-3h2l.88-1.81C991 460 991 460 993 457" fill="#CFD2D0"/><path d="m534 262 3 2c.57 7.15.57 7.15-2 11h-2z" fill="#222525"/><path d="M857 485c2.66 3.98 2.66 3.98 3 7-.94 3.25-.94 3.25-2 6l-2-1z" fill="#D2D2D3"/><path d="M990 433c3.83 3.42 5.72 6.01 7 11l-2 1-2.5-4.31-1.41-2.43C990 436 990 436 990 433" fill="#DADBDF"/><path d="M489 383c2.43 3.64 2.08 4.93 1.62 9.19l-.33 3.29L490 398c-2.86-4.29-2.35-7.96-1.5-12.94z" fill="#E3E5E6"/><path d="M761 373c2 3 2 3 1.75 5.5C762 381 762 381 760 384a220 220 0 0 1-.62-4.38l-.36-2.46L759 375z" fill="#E2E6E2"/><path d="M751 343c2.31 2.31 2.5 3.48 3.12 6.62l.51 2.48.37 1.9-2 1q-.8-2.15-1.56-4.31l-.88-2.43C750 346 750 346 751 343" fill="#DCDFDB"/><path d="M517 305h2c-1.06 3.4-2.01 6.01-4 9l-3-1q1.17-2 2.38-4l1.33-2.25z" fill="#EDF0F1"/><path d="M758 17c2.72 2.35 3.81 4.62 5 8l-3 3-3-10z" fill="#EAEAEB"/><path d="M738 9c7.43-.29 7.43-.29 11 2-2.41 1.2-3.95 1.1-6.62 1.06l-2.48-.02L738 12z" fill="#DBDBDD"/><path d="M760 445h1l1 11-3 2z" fill="#D0D3D2"/><path d="M966 416c5.63.4 8 2.29 12 6l-3 1c-2.26-1.18-2.26-1.18-4.69-2.88l-2.45-1.67L966 417z" fill="#DADBE0"/><path d="M500 343c1.54 2.41 2.1 3.5 1.54 6.36l-.92 2.39-.89 2.42L499 356l-2-1 .94-5.44.52-3.06c.54-2.5.54-2.5 1.54-3.5" fill="#E2E4E5"/><path d="m713 674 12 1-3 3c-2.01-.07-2.01-.07-4.12-.69l-2.14-.57C714 676 714 676 713 674" fill="#EDF0EC"/><path d="m758 662 3 1c-.5 3.69-1.1 5.6-4 8l-2-2z" fill="#212420"/><path d="M811 516h4v2h-2l.69 2.31.31 2.69-3 3z" fill="#050908"/><path d="M764 438h1c.19 4.19-.07 7.24-2 11l-2 1c-.43-4.75 1.02-7.78 3-12" fill="#F0F3F3"/><path d="m735 9 4 2-9 4-2-2c5.08-3.32 5.08-3.32 7-4" fill="#ECECED"/><path d="m511.13 11.94 2.75.03 2.13.03v1h-8v2l-7 1c3.38-3.54 5.23-4.12 10.12-4.06" fill="#0F0F11"/><path d="M440 489h2l-1 12c-2.67-5.33-2.67-5.33-3-8 .94-2.25.94-2.25 2-4" fill="#DADDDB"/><path d="m448 468 2 3-4 7-2-1c1.75-6.75 1.75-6.75 4-9" fill="#DDDFE0"/><path d="M786 456c3.78 1.09 6.47 1.91 9 5l-2 1c-2.16-.78-2.16-.78-4.62-1.94l-2.48-1.15-1.9-.91z" fill="#D9DBDB"/><path d="M742 323c3 1 3 1 4.69 4.06L748 330l-3 3z" fill="#DBDBDC"/><path d="M506 236c4.27 1.58 6.27 4.51 9 8-4.25-.47-6.27-2.89-9-6z" fill="#CDCED0"/><path d="M556 41c3.94 1.31 6.23 2.92 9 6l-3 1-1-2a80 80 0 0 0-5-2z" fill="#1D1F1D"/><path d="M710 691h2l1 10h-3z" fill="#F0F2F1"/><path d="M491 655c1.95 3.9 2.51 6.72 3 11h-3z" fill="#2A2D2E"/><path d="m745 634 4 2.44 2.25 1.37L753 639v1l-7-1z" fill="#EEE"/><path d="m859 480 3 2-1 3-1 4-2-1q-.06-3.5 0-7z" fill="#EDECEC"/><path d="M764 612c.69 1.81.69 1.81 1 4-1.19 1.81-1.19 1.81-3 3-2.19-.31-2.19-.31-4-1a89 89 0 0 1 4-4h2z" fill="#212222"/><path d="M827 563c0 3 0 3-2.5 5.69L822 571l-3-1 1-3q2-.53 4-1c1.75-1.56 1.75-1.56 3-3" fill="#0A0B0C"/><path d="M821 450h2l-2 10-2-3c.88-3.69.88-3.69 2-7" fill="#0B0C11"/><path d="m488 658 2 1c.41 2.29.41 2.29.62 5.06l.23 2.79.15 2.15c-2.17-2.17-2.49-3.16-3.19-6.06l-.54-2.16L487 659z" fill="#EDEFEF"/><path d="M749 640c2.31-.25 2.31-.25 5 0 1.88 1.81 1.88 1.81 3 4l-1 3-1-3c-1.94-1.06-1.94-1.06-4-2z" fill="#D9DADB"/><path d="M803 469c4.88 2.62 4.88 2.62 6 6l-2 2c-4-5.75-4-5.75-4-8" fill="#EAECEE"/><path d="m843 414 3 1-7 6c0-3 0-3 2-5.19z" fill="#0C0E10"/><path d="m721 253 3 1c-1.81 2-1.81 2-4 4h-3l-1 2c.38-2.76.84-3.84 2.88-5.81z" fill="#1D201F"/><path d="M693 41c-1.05 2.62-1.65 3.79-4.12 5.25L687 47c0-3 0-3 1.31-4.69C690 41 690 41 693 41" fill="#E8E9EC"/><path d="M611 698h3c-.75 2.44-.75 2.44-2 5-2.12.81-2.12.81-4 1z" fill="#202320"/><path d="m935 447 7 3-1 3-6-3z" fill="#E0DEE3"/><path d="M740 241c0 3 0 3-1.75 5.12-2.21 1.85-3.45 2.48-6.25 2.88z" fill="#DADCDE"/><path d="M501 229h2l4 7h-3c-2.36-2.53-3-3.47-3-7" fill="#D7D9DB"/><path d="m614 697 2 2c-.38 2.12-.38 2.12-1 4l-4 1z" fill="#DEE1DE"/><path d="m702 681 5 3-1 5-2-2v-3h-2z" fill="#1C1D1F"/><path d="M559 665c-.69 1.94-.69 1.94-2 4-2.62.75-2.62.75-5 1 1-3 1-3 2.94-4.19C557 665 557 665 559 665" fill="#E0E3E0"/><path d="m855 497 4 2-2 6c-1.76-3.09-2-4.23-2-8" fill="#DCDEE0"/><path d="M878 444c-1.15 2.47-2.05 4.05-4 6l-3-1c4.75-5 4.75-5 7-5" fill="#D7D9D9"/><path d="m546 29 6 4-3 2-4-3z" fill="#E7E8EA"/><path d="M724 19v3c-2.5 2.19-2.5 2.19-5 4l-2-2z" fill="#1F1F24"/><path d="m738 12 4.38-.12 2.46-.08C747 12 747 12 749 14l-6 1v-1l-5-1z" fill="#0A0A0B"/></svg>