<svg style="background:transparent" version="1.1" xmlns="http://www.w3.org/2000/svg" viewBox="0 0 1248 704"><path d="m538.81 13.18 2 1.88 2.06 1.9 1.96 1.82 1.77 1.66C548 22 548 22 549 25q1.99.55 4 1a27 27 0 0 1 3.5 2.81l1.84 1.64c1.93 1.8 3.8 3.68 5.66 5.55q2.99 2.53 6 5l2 2q2.41 2.15 4.91 4.2c2.1 1.8 2.1 1.8 3.81 3.62 7.3 7 15.78 6.18 25.23 6.07l5.23.02q5.46 0 10.92-.05 6.98-.07 13.97 0 5.4.01 10.8-.02l5.14.01q3.6 0 7.2-.06l2.13.03c4.08-.1 6.2-.95 8.98-3.77l1.38-1.6c1.8-2 3.98-3.1 6.3-4.45q1.07-1.08 2.2-2.19.88-.9 1.8-1.8h2l.75-1.82c1.47-2.58 2.82-3.49 5.25-5.19a470 470 0 0 0 5.32-4.7C697 30 697 30 700 29l.81-1.75c1.4-2.66 3.27-4.1 5.61-5.95 1.58-1.3 1.58-1.3 4.2-3.99 2.2-2.13 3.72-2.98 6.38-4.3a83 83 0 0 0 6.37-6.64c5.8-4.9 12.06-4.89 19.38-4.72C746.86 2.1 749 3.16 752 6c.9.78 1.77 1.57 2.7 2.37 5.5 6.25 6.3 12.6 6.3 20.63l.01 7.04.1 62.13q0 15.96.04 31.92l.04 27.85.02 14.74.02 13.86.01 5.1v6.94l.01 3.92A32 32 0 0 1 759 212l-.45 2.47c-.7 3.23-1.93 6.01-3.3 9.03l-1.48 3.34c-1.89 3.37-3.94 5.56-6.77 8.16l-1.84 1.84q-1.73 1.74-3.47 3.46-2.14 2.15-4.25 4.32c-3.8 3.71-7.6 7-12.25 9.57C722 256 722 256 721 258c-.3 5.76.4 10.5 2 16l.87 3.37c2.57 8.28 6.17 15.94 10.13 23.63l1.94 3.87 3.5 6.98c4.14 8.21 8.04 16.27 10.84 25.04a71 71 0 0 0 2.22 5.55 100 100 0 0 1 3.81 11.27c.7 2.3.7 2.3 1.81 4.98.88 2.31.88 2.31 1.32 5.62.45 3 1 5.02 2.12 7.75 1.4 3.48 1.52 6.17 1.44 9.94l1 3.5c.97 3.4 1.08 6 1 9.5l1 3q.1 2 .06 4l-.03 2.06L766 406c0 3 0 3 1 5q.14 3.4.12 6.81l.01 3.71A44 44 0 0 1 766 430a80 80 0 0 0-.94 12.81c-.06 3.24-.62 4.41-2.06 7.2-.13 3.24-.13 3.24 0 6 .34-.09.34-.09 2.04-.46 8.71-1.62 18-3.09 25.96 1.45l1.97 1c7.96 4.41 14.27 11.76 18.03 20 .87 3.3 1.44 6.63 2 10l1.06 4.87A86 86 0 0 1 815 521l-.26 2.22q-.35 2.89-.74 5.78l-.5 3.81c-.5 3.2-.5 3.2-1.5 6.2l-.44 2.74A91 91 0 0 1 808 555q13.47-4.95 26.81-10.25l2.62-1.03 2.46-.99 2.2-.87C844 541 844 541 847 539a82 82 0 0 1 4.61-1.44 254 254 0 0 0 9.97-3.06c11.6-3.77 22.96-5.92 35.07-7.23q3.06-.37 6.1-.86c6.12-.76 12.3-.4 18.44-.22l3.75.05c11.65.35 21.98 3.21 32.31 8.57l2.05 1.05c5.4 2.85 10.2 6 14.7 10.14l2.77 2.53c5.9 5.55 10.51 11.23 14.23 18.47l1.66 3.08c7.24 13.85 7.03 29.2 2.68 44.05-2.8 8.6-7.25 16.42-12.34 23.87l-2 3h-2l-.34 1.82c-1.08 3.55-3.86 5.64-6.54 8.05l-1.77 1.62c-8.14 7.2-17.13 11.08-27.35 14.51q-1.1.44-2.23.87c-8.9 3.38-19.77 4.8-28.77 1.13a80 80 0 0 1-9-6l-2.94-2.13c-3.05-2.77-3.93-4.87-4.47-8.97-.25-9.59 1.42-15.62 8.05-22.64A63 63 0 0 1 909 625l1.81-1.49c5.73-4.34 12.01-6.35 18.81-8.42A43 43 0 0 0 941 610l3.06-1.06c3.88-2.56 4.8-5.24 6.47-9.47.57-2.98.03-3.94-1.53-6.47l-.8-2.8c-1.76-4.72-3.65-8.97-8.35-11.24q-2.25-.75-4.57-1.36c-2.28-.6-2.28-.6-4.54-1.63-3.1-1.1-5.52-1.22-8.8-1.2h-3.48l-3.59.04h-3.6c-8.85.05-8.85.05-12.27 1.2q-2.12.18-4.25.3c-9.63.9-18.96 3.75-27.75 7.7q-5.84 2.53-11.75 4.86a201 201 0 0 0-10.56 4.57 238 238 0 0 1-15.55 6.36 277 277 0 0 0-8.39 3.4 63 63 0 0 1-11.79 3.36c-1.96.44-1.96.44-4.7 1.56-2.6 1.01-4.5.95-7.26.88a83 83 0 0 0-10.06 2.5c-5.2 1.47-10.12 1.9-15.5 2l-2.44.5c-1.15 1.86-1.15 1.86-2 4-1.87 1.93-3.83 3.37-6 5h-2l-.65 1.73c-1.8 3.04-4.08 4.5-6.98 6.52l-3.03 2.14L746 635l2.94 1.44c6.78 3.91 13.45 9.81 15.7 17.52.95 5.3 1.16 9.36-1.2 14.3-4.92 5.53-10.4 9.4-18 9.91q-4.6.08-9.19.02h-3.13c-17.69-.1-17.69-.1-24.56-3.25-2.89-1.3-4.34-1.94-7.56-1.94l1.68 1.76c7.2 7.76 7.2 7.76 8.32 13.24l.58 2.38c1.16 5 1.35 8.53.42 13.62q-14.17.17-28.35.26-6.58.03-13.16.12-6.35.07-12.7.1-2.43 0-4.85.05-3.39.04-6.79.04l-3.9.03c-3.25-.6-3.25-.6-5.62-2.99-5.3-8.53-6.37-18.86-4.63-28.6 0-.48 0-.48-.06-2.82C632 668 632 668 634 665l-14 1-.06 4.94-.04 2.77c.1 2.3.1 2.3 1.1 3.3a40 40 0 0 1-2 17l-.77 2.38c-2.07 6.44-2.07 6.44-3.23 7.61q-3.43.15-6.88.16l-2.17.01-7.17.03-4.95.02-10.4.02q-6.7 0-13.37.06-5.12.03-10.25.02l-4.93.03H548l-3.96.02L541 704c-2.55-3.83-2.44-5.43-2-10 2.53-8 5.9-14.2 12-20l3-3-2.09.8a102 102 0 0 1-17.9 5.2l-2.8.54c-11.1 1.6-25.64 1.8-35.77-3.35-4.63-4.16-6.95-7.05-7.4-13.29-.16-8.62 5.85-15.02 11.21-21.24 1.82-1.72 3.52-2.58 5.75-3.66l1-2q-.82-.38-1.69-.75a38 38 0 0 1-7.3-5.25v-2l-1.82-.25c-2.82-.97-3.44-2.38-5.19-4.75l-2.3-1.36c-15.2-9.25-28.55-30.56-35.7-46.64l-1.02-2.27-2.04-4.63q-1.22-2.69-2.63-5.29c-1.4-3-1.83-5.55-2.3-8.8l-2-6a81 81 0 0 1-2.76-14.93A47 47 0 0 0 438 525c-1.57-9.66-.75-19.3 0-29l.22-2.95A52 52 0 0 1 452 463a68 68 0 0 1 4-2l3.37-2.44A35.4 35.4 0 0 1 485 454a44 44 0 0 1 5 2q-.45-1.7-.94-3.44a73 73 0 0 1-1.8-11.29 77 77 0 0 0-.75-4.99c-.63-4.07-.9-8.1-1.14-12.22l-.15-2.34c-.27-4.74.03-9.02.78-13.72q.06-2.81 0-5.63c-.08-3.65.2-6.8 1-10.37l.72-3.38 1.56-7.25c.84-3.94 1.65-7.8 2.16-11.8A54 54 0 0 1 494 360l1.6-4.83 1.77-5.42.9-2.7a298 298 0 0 1 11.17-28.18l1.12-2.55a99 99 0 0 1 7.36-13.58 35 35 0 0 0 3.14-6.68 143 143 0 0 1 4-9.56c2.13-4.7 3.53-9.54 4.94-14.5l1-3q.1-3.34.06-6.69l-.03-3.57L531 256l-1.6-.7a62 62 0 0 1-8.65-5.99l-1.74-1.35c-13.13-10.28-13.13-10.28-17-16.96l-1.25-2.06c-8.2-13.99-9.06-28.5-9.02-44.37v-5.22q-.03-7.04 0-14.08v-14.79q-.02-12.4 0-24.8V97.02q-.02-12.33 0-24.65v-14.7q-.02-6.9 0-13.8v-5.06c-.06-23.57-.06-23.57 8.2-31.98 2.58-2.3 4.77-3.7 8.06-4.84l2.02-.75c11.28-3.48 20.9 4.62 28.8 11.93" fill="#161817"/><path d="m915.04 528.7 4.5-.04c13.69-.16 24.93 1.9 37.09 8.46l2.76 1.48c6.8 3.73 12.33 7.66 17.6 13.4l2.1 2.06c10.46 10.87 16.74 24.07 17.35 39.2-.6 19.97-10.16 38.8-23.56 53.3-14.63 13.65-32.93 22.01-53.16 21.84-7.44-.8-14.01-4.37-19.47-9.47-3.72-4.96-3.07-11.07-2.25-16.93 1.96-7.34 7.3-12.27 13.73-16 7.88-4.32 16-7.74 24.43-10.86 6.2-2.49 11.09-5.5 14.84-11.14l1.25-1.82c1.27-3.67 1.7-6.43.75-10.18-3.85-7.5-8.3-13.7-16.25-17.17a68 68 0 0 0-21.37-3.08l-2.65.02c-24.8.42-46 8.88-68.43 18.8A559 559 0 0 1 821 600l-3.61 1.42c-8.28 3.03-16.67 4.76-25.32 6.4l-3.53.65c-5.93 1.07-11.5 1.8-17.54 1.53l2.63-3.5 1.67-2.25q1.55-2.04 3.12-4.07a148 148 0 0 0 21.34-37.64c1.86-3.8 4.07-4.48 7.99-5.86L813 555a352 352 0 0 0 33.02-12.32c7.85-3.42 15.83-5.85 24.06-8.14q2.44-.7 4.86-1.45c13.1-3.97 26.5-4.29 40.1-4.39" fill="#131615"/><path d="m538.81 13.18 2 1.88 2.06 1.9 1.96 1.82 1.77 1.66C548 22 548 22 549 25q1.99.55 4 1a27 27 0 0 1 3.5 2.81l1.84 1.64c1.93 1.8 3.8 3.68 5.66 5.55q2.99 2.53 6 5l2 2q2.41 2.15 4.91 4.2c2.1 1.8 2.1 1.8 3.81 3.62 7.3 7 15.78 6.18 25.23 6.07l5.23.02q5.46 0 10.92-.05 6.98-.07 13.97 0 5.4.01 10.8-.02l5.14.01q3.6 0 7.2-.06l2.13.03c4.08-.1 6.2-.95 8.98-3.77l1.38-1.6c1.8-2 3.98-3.1 6.3-4.45q1.07-1.08 2.2-2.19.88-.9 1.8-1.8h2l.75-1.82c1.47-2.58 2.82-3.49 5.25-5.19a470 470 0 0 0 5.32-4.7C697 30 697 30 700 29l.81-1.75c1.4-2.66 3.27-4.1 5.61-5.95 1.58-1.3 1.58-1.3 4.2-3.99 2.2-2.13 3.72-2.98 6.38-4.3a83 83 0 0 0 6.37-6.64c5.8-4.9 12.06-4.89 19.38-4.72C746.86 2.1 749 3.16 752 6c.9.78 1.77 1.57 2.7 2.37 5.5 6.25 6.3 12.6 6.3 20.63l.01 7.04.1 62.13q0 15.96.04 31.92l.04 27.85.02 14.74.02 13.86.01 5.1v6.94l.01 3.92A32 32 0 0 1 759 212l-.45 2.47c-.7 3.23-1.93 6.01-3.3 9.03l-1.48 3.34c-1.89 3.37-3.94 5.56-6.77 8.16l-1.84 1.84q-1.73 1.74-3.47 3.46-2.14 2.15-4.25 4.32c-3.8 3.71-7.6 7-12.25 9.57C722 256 722 256 721 258c-.3 5.76.4 10.5 2 16l.87 3.37c2.57 8.28 6.17 15.94 10.13 23.63l1.94 3.87 3.5 6.98c4.14 8.21 8.04 16.27 10.84 25.04a71 71 0 0 0 2.22 5.55 100 100 0 0 1 3.81 11.27c.7 2.3.7 2.3 1.81 4.98.88 2.31.88 2.31 1.32 5.62.45 3 1 5.02 2.12 7.75 1.4 3.48 1.52 6.17 1.44 9.94l1 3.5c.97 3.4 1.08 6 1 9.5l1 3q.1 2 .06 4l-.03 2.06L766 406c0 3 0 3 1 5q.14 3.4.12 6.81l.01 3.71A44 44 0 0 1 766 430a80 80 0 0 0-.94 12.81c-.06 3.24-.62 4.41-2.06 7.2-.13 3.24-.13 3.24 0 6 .34-.09.34-.09 2.04-.46 8.71-1.62 18-3.09 25.96 1.45l1.97 1c7.96 4.41 14.27 11.76 18.03 20 .87 3.3 1.44 6.63 2 10l1.06 4.87A86 86 0 0 1 815 521l-.26 2.22q-.35 2.89-.74 5.78l-.5 3.81c-.5 3.2-.5 3.2-1.5 6.2l-.44 2.74A91 91 0 0 1 808 555q13.47-4.95 26.81-10.25l2.62-1.03 2.46-.99 2.2-.87C844 541 844 541 847 539a82 82 0 0 1 4.61-1.44 254 254 0 0 0 9.97-3.06c11.6-3.77 22.96-5.92 35.07-7.23q3.06-.37 6.1-.86c6.12-.76 12.3-.4 18.44-.22l3.75.05c11.65.35 21.98 3.21 32.31 8.57l2.05 1.05c5.4 2.85 10.2 6 14.7 10.14l2.77 2.53c5.9 5.55 10.51 11.23 14.23 18.47l1.66 3.08c7.24 13.85 7.03 29.2 2.68 44.05-2.8 8.6-7.25 16.42-12.34 23.87l-2 3h-2l-.34 1.82c-1.08 3.55-3.86 5.64-6.54 8.05l-1.77 1.62c-8.14 7.2-17.13 11.08-27.35 14.51q-1.1.44-2.23.87c-8.9 3.38-19.77 4.8-28.77 1.13a80 80 0 0 1-9-6l-2.94-2.13c-3.05-2.77-3.93-4.87-4.47-8.97-.25-9.59 1.42-15.62 8.05-22.64A63 63 0 0 1 909 625l1.81-1.49c5.73-4.34 12.01-6.35 18.81-8.42A43 43 0 0 0 941 610l3.06-1.06c3.88-2.56 4.8-5.24 6.47-9.47.57-2.98.03-3.94-1.53-6.47l-.8-2.8c-1.76-4.72-3.65-8.97-8.35-11.24q-2.25-.75-4.57-1.36c-2.28-.6-2.28-.6-4.54-1.63-3.1-1.1-5.52-1.22-8.8-1.2h-3.48l-3.59.04h-3.6c-8.85.05-8.85.05-12.27 1.2q-2.12.18-4.25.3c-9.63.9-18.96 3.75-27.75 7.7q-5.84 2.53-11.75 4.86a201 201 0 0 0-10.56 4.57 238 238 0 0 1-15.55 6.36 277 277 0 0 0-8.39 3.4 63 63 0 0 1-11.79 3.36c-1.96.44-1.96.44-4.7 1.56-2.6 1.01-4.5.95-7.26.88a83 83 0 0 0-10.06 2.5c-5.2 1.47-10.12 1.9-15.5 2l-2.44.5c-1.15 1.86-1.15 1.86-2 4-1.87 1.93-3.83 3.37-6 5h-2l-.65 1.73c-1.8 3.04-4.08 4.5-6.98 6.52l-3.03 2.14L746 635l2.94 1.44c6.78 3.91 13.45 9.81 15.7 17.52.95 5.3 1.16 9.36-1.2 14.3-4.92 5.53-10.4 9.4-18 9.91q-4.6.08-9.19.02h-3.13c-17.69-.1-17.69-.1-24.56-3.25-2.89-1.3-4.34-1.94-7.56-1.94l1.68 1.76c7.2 7.76 7.2 7.76 8.32 13.24l.58 2.38c1.12 4.85 1.71 8.7.42 13.62l-4-1 .18-2.75c.35-9.45-.57-15.23-7-22.25-4.37-4.13-8.46-6.27-14.18-8v-9l2.1 1.17c14.67 8.14 27.58 12.38 44.6 12.2l3.46.04c6.88-.03 13.56-.32 19.84-3.4 3.78-4.2 3.56-8.59 3.41-14-.94-6.86-5.26-11.52-10.5-15.76-3.13-2.05-6.35-3.13-9.9-4.25v-2a132 132 0 0 1 6.3-4.5c7.28-5.04 14.27-10.53 20.17-17.17 4.13-4.34 9.58-4.23 15.16-4.83 24.98-2.73 48.04-12.17 70.8-22.36 23.91-10.68 55.14-22.1 81.32-13.02l2.24.88 2.08.6c5.28 1.9 8.17 5.78 11.42 10.15l1.35 1.77c3.25 4.65 3.76 7.83 3.15 13.48-2.85 7.61-8.96 12.17-16.06 15.5-4.08 1.78-8.2 3.34-12.38 4.87-10.23 3.9-20.69 8.65-25.68 18.94-1.68 5.14-1.49 10.35-.88 15.7 3.35 6.57 10.18 9.66 17 12 10.85 1.8 20.87-1.45 31-5q1.27-.45 2.6-.88c18.66-7.26 31.2-23.22 39.77-40.63 6.3-14.4 8.22-30.58 2.63-45.5-4.33-9.14-9.68-16.95-17-24l-1.66-1.62c-5.38-5-11.2-8.36-17.72-11.69l-2.96-1.59c-11.64-6.05-22.36-6.45-35.22-6.35l-2.3.01c-27.93.16-54.1 6.05-79.46 18.02A176 176 0 0 1 810 557l-4.13 1.2-2.87.8a50 50 0 0 1 2.41-9.05c7.33-21.9 10.76-51.58.6-72.95-4.53-8.73-10.84-14.93-20.14-18.3-9.56-2.32-18.7-.72-27.87 2.3l.26-1.85 1.18-8.46.41-2.9c2.9-21.04 3.86-42.8.15-63.79l-.52-3.38c-4.84-27.92-15.89-55.43-29.6-80.12-6.12-11.06-11.87-24.18-12.26-36.94l-.14-3.37c1-6.1 6.4-8.96 11.14-12.38 14.2-10.56 24.15-21.19 27.96-38.84.98-6.94.71-14.03.71-21.03l.02-5.49.02-14.86.01-9.29q.03-16.2.03-32.44 0-15.1.05-30.2.04-12.97.04-25.97l.02-15.49q.03-7.27.01-14.56l.01-5.34q.02-3.65 0-7.3l.03-2.12a22.3 22.3 0 0 0-6.9-16.26A24.6 24.6 0 0 0 733 5c-7.25 2.47-12.53 8.02-17.97 13.18a131 131 0 0 1-8.4 7.2A219 219 0 0 0 694 36.5a239 239 0 0 1-15.3 13.3c-2.7 2.2-2.7 2.2-4.07 3.91-3.7 4.16-6.97 5.7-12.57 6.17-4.1.2-8.19.23-12.29.22l-5.38.06q-5.62.05-11.26.03c-4.78-.02-9.55.06-14.32.16q-5.55.08-11.1.06-2.65 0-5.29.07c-11.04.25-17.8-1.09-25.96-8.87l-3.04-3.13c-2.09-2.18-4.35-4.17-6.6-6.17l-2.4-2.19a208 208 0 0 0-7.6-6.3 220 220 0 0 1-13.32-11.88c-18.55-17.6-18.55-17.6-31.45-17.39-6.1.9-9.5 4.74-13.49 9.14-2.8 4.15-2.7 7.92-2.69 12.75v2.31l-.02 7.7v5.52l-.02 15V69.5l-.02 29.56-.02 30.48-.02 26.17v15.62q-.03 7.36-.02 14.71v5.4c-.06 17.61 2.64 33.2 15.31 46.38 5.57 5.16 11.65 9.61 17.85 13.97 3.1 2.22 3.1 2.22 5.1 4.22.3 3.12.3 3.12.3 7l.05 3.81c-.4 8.41-4.06 16.37-7.36 24l-1.18 2.75a241 241 0 0 1-9.26 18.63c-10.45 19.41-17.4 40.4-22.56 61.8-.1.46-.1.46-.68 2.78-6.05 25.72-6.1 57.6.68 83.22-6.53-.9-6.53-.9-9.32-1.5-9.88-1.8-18.29-1.13-26.68 4.5l-1.92 1.17c-9.1 6.51-12.88 19.33-14.65 29.84-1.52 12.41-.47 24.71 1.57 37l.44 2.84q.68 4.09 1.56 8.15l.7 3.31c5.06 21.27 15.87 41.33 30.3 57.7l2.32 2.64c6.95 7.83 14 14.86 22.37 21.16l2.26 1.73c3.26 2.48 6.33 4.71 10.05 6.46v2l-1.94.66c-7.52 2.76-13.35 5.96-17.5 13.03-2.37 5.27-2.84 11.86-.8 17.33 2.45 3.9 6.97 4.82 11.24 5.98 3.92.5 7.74.52 11.7.44l3.18-.05c14.72-.35 29.16-3.4 41.92-11.08 2.2-1.3 2.2-1.3 4.2-1.3v8c-.37.18-.37.18-2.23 1.16-8.55 4.56-15.42 8.28-18.77 17.83-.68 5.01-.93 9.94-1 15l-3-1c-1.92-3.83-1.46-7.54-.2-11.5 2.74-7.04 5.68-12.26 11.2-17.5l3-3-2.09.8a102 102 0 0 1-17.9 5.2l-2.8.54c-11.1 1.6-25.64 1.8-35.77-3.35-4.63-4.16-6.95-7.05-7.4-13.29-.16-8.62 5.85-15.02 11.21-21.24 1.82-1.72 3.52-2.58 5.75-3.66l1-2q-.82-.38-1.69-.75a38 38 0 0 1-7.3-5.25v-2l-1.82-.25c-2.82-.97-3.44-2.38-5.19-4.75l-2.3-1.36c-15.2-9.25-28.55-30.56-35.7-46.64l-1.02-2.27-2.04-4.63q-1.22-2.69-2.63-5.29c-1.4-3-1.83-5.55-2.3-8.8l-2-6a81 81 0 0 1-2.76-14.93A47 47 0 0 0 438 525c-1.57-9.66-.75-19.3 0-29l.22-2.95A52 52 0 0 1 452 463a68 68 0 0 1 4-2l3.37-2.44A35.4 35.4 0 0 1 485 454a44 44 0 0 1 5 2q-.45-1.7-.94-3.44a73 73 0 0 1-1.8-11.29 77 77 0 0 0-.75-4.99c-.63-4.07-.9-8.1-1.14-12.22l-.15-2.34c-.27-4.74.03-9.02.78-13.72q.06-2.81 0-5.63c-.08-3.65.2-6.8 1-10.37l.72-3.38 1.56-7.25c.84-3.94 1.65-7.8 2.16-11.8A54 54 0 0 1 494 360l1.6-4.83 1.77-5.42.9-2.7a298 298 0 0 1 11.17-28.18l1.12-2.55a99 99 0 0 1 7.36-13.58 35 35 0 0 0 3.14-6.68 143 143 0 0 1 4-9.56c2.13-4.7 3.53-9.54 4.94-14.5l1-3q.1-3.34.06-6.69l-.03-3.57L531 256l-1.6-.7a62 62 0 0 1-8.65-5.99l-1.74-1.35c-13.13-10.28-13.13-10.28-17-16.96l-1.25-2.06c-8.2-13.99-9.06-28.5-9.02-44.37v-5.22q-.03-7.04 0-14.08v-14.79q-.02-12.4 0-24.8V97.02q-.02-12.33 0-24.65v-14.7q-.02-6.9 0-13.8v-5.06c-.06-23.57-.06-23.57 8.2-31.98 2.58-2.3 4.77-3.7 8.06-4.84l2.02-.75c11.28-3.48 20.9 4.62 28.8 11.93" fill="#E5E7E8"/><path d="M672 495h2c-.7 9.17-3.78 14.36-10 21l-1.5 1.66A20 20 0 0 1 655 523v2l-8.85 5.16C641.23 533 641.23 533 639 533l.18 2.31a756 756 0 0 1 2.14 58.12 811 811 0 0 0 .02 8.54c.31 49.73.31 49.73-4.34 59.03h-22a404 404 0 0 1-4-49l-.03-1.98c-.42-25.73.59-51.33 2.03-77.02l-2.46-1.2-3.24-1.6-3.21-1.57c-3.98-2.1-7.85-4.47-11.09-7.63v-2l-1.71-.59c-3.22-1.98-4.94-4.81-6.98-7.91l-1.22-1.8c-3.17-4.71-4.21-7.01-4.09-12.7l1.88 1.94L584 501l2.03 2.02a88 88 0 0 0 15.59 11.86l1.85 1.11c7.12 4.16 13.54 6.57 21.84 6.45l2.25-.03A39 39 0 0 0 645 518l2.95-1.47c8.59-4.65 16.8-10.61 22.24-18.84z" fill="#000"/><path d="m569.56 137.06 2.25.04c4.13.22 5.78.56 9.08 3.28 5.74 7.13 8.77 13.66 8.55 22.93-1.14 6.98-4.97 12.93-10.5 17.25-6.24 4.07-11.48 5.47-18.94 4.44-9.14-2.89-13.33-8.27-17.88-16.32-1.68-5.5-2.4-11.34-.29-16.84 1.04-1.84 1.04-1.84 3.17-4.84l2-3-2-1c3.84-3.58 3.84-3.58 6-5 2 .31 2 .31 4 1l2.6-.96c4.17-1.28 7.64-1.23 11.96-.98" fill="#121513"/><path d="M739 470h2c1.01 36.42-5.89 72.16-19.24 106.04-1.61 4.14-3.13 8.31-4.67 12.47a187 187 0 0 1-3.65 9.09c-2.26 5.33-3.79 10.85-5.44 16.4l-1.23 3.92c-4.66 15.06-7.6 30.47-9.77 46.08-1.8.62-1.8.62-4 1-3.25-1.94-3.25-1.94-6-4 .56-23.96 9.41-48.52 18.25-70.54 2.89-7.26 5.37-14.67 7.91-22.06q1.2-3.42 2.44-6.81a327 327 0 0 0 8.31-26.64q1.17-4.34 2.65-8.57c6.17-17.91 10.03-37.62 12.44-56.38" fill="#000100"/><path d="M512 471c1.98 3.42 2.61 6.66 3.26 10.55l.69 3.96.36 2.09A313 313 0 0 0 527 531l.62 1.9c12.71 39.08 12.71 39.08 19.59 56.84 20.33 52.67 20.33 52.67 17.79 71.26-1.87 2.74-3.77 4.19-7 5l-3-1-.33-3.34-.48-4.6-.22-2.17a190 190 0 0 0-9.66-42.7l-1.62-4.78c-3.06-9-6.34-17.88-9.96-26.67A283 283 0 0 1 513 504l-.29-2.38c-.75-6.59-.83-13.11-.77-19.74l.01-3.19z" fill="#000101"/><path d="M576 137a30.3 30.3 0 0 1 19.88 9.75c6.26 7.94 8.24 15.15 7.12 25.25-2.16 10.18-7.97 16.68-16 23-8.28 4.93-18.45 5.36-27.79 3.42-9.11-3.18-16.11-9.79-20.83-18.11-3.35-7.44-3.81-15.11-1.64-22.99 1.96-4.8 4.76-8.53 8.26-12.32 0 3 0 3-1.5 5.5-2.46 5.74-2.59 11.33-.55 17.26 3.36 7.11 7.59 12.18 14.81 15.51a22 22 0 0 0 16.55-.96c6.57-3.8 10.95-9.27 13.69-16.31 1.59-8.5-1.29-16.94-6-24a40 40 0 0 0-6-5" fill="#ECC54A"/><path d="M678 136c9.26-1.34 16.41 2.13 24 7a40 40 0 0 1 7 8l2.44 3.06c3.29 6.15 2.43 14.87 1.02 21.48-3.18 9.08-9.65 15.79-17.67 20.86-8.26 3.97-19.07 4.26-27.83 1.72A42 42 0 0 1 660 194l-2.2-1.54c-6.25-4.88-9.33-11.05-11.8-18.46-.83-9.15-.29-16.33 5-24 2.31-2.62 2.31-2.62 4-4l-.88 2.06c-2.75 7.19-4.78 13.55-1.99 20.94 3.51 7.49 7.03 12.76 14.87 16 7.51.97 14.19.47 20.84-3.3 4.28-3.37 6.75-7.89 9.16-12.7 1.23-16.52 1.23-16.52-4-23-4.36-4.81-8.86-7.06-15-9z" fill="#EDC74F"/><path d="M738.75 1.63c5.63.09 9.02.37 13.25 4.38l2.69 2.37C760.19 14.62 761 20.97 761 29l.01 7.02q.06 31.07.09 62.14l.05 31.92.04 27.85.02 14.74a3206 3206 0 0 1 .03 18.94q.01 3.48 0 6.95l.01 3.94A32 32 0 0 1 759 212l-.45 2.46c-.7 3.24-1.93 6.02-3.3 9.03l-1.48 3.34c-1.89 3.38-3.94 5.56-6.77 8.16l-1.84 1.84-3.47 3.47a433 433 0 0 0-4.25 4.31c-3.81 3.72-7.6 7-12.25 9.56C722 256 722 256 721 258c-.3 5.75.39 10.5 2 16l.87 3.38c2.57 8.26 6.17 15.94 10.13 23.63l1.94 3.87 3.5 6.97c4.14 8.2 8.04 16.26 10.85 25.03a65 65 0 0 0 2.21 5.56 100 100 0 0 1 3.81 11.27c.69 2.3.69 2.3 1.82 4.98.87 2.31.87 2.31 1.31 5.63a31 31 0 0 0 2.12 7.75c1.39 3.48 1.52 6.17 1.44 9.94l1 3.5c.97 3.38 1.08 6 1 9.5l1 3q.1 1.99.06 4l-.02 2.06L766 406c0 3 0 3 1 5q.14 3.4.13 6.8v3.7A44 44 0 0 1 766 430a80 80 0 0 0-.94 12.8c-.06 3.1-.41 4.62-2.06 7.2a28 28 0 0 1-1.08-8.44l.02-2.62.03-2.84.04-6.04.09-9.43c.12-12.4-.1-24.37-2.1-36.63l-.58-3.65c-4.68-27.8-15.91-55.31-29.55-79.86-6.11-11.06-11.86-24.18-12.24-36.93l-.15-3.37c1-6.1 6.39-8.97 11.15-12.38 14.19-10.56 24.14-21.2 27.95-38.84.98-6.95.72-14.04.71-21.04l.02-5.5.02-14.84.02-9.3.02-32.44q0-15.09.05-30.2.04-12.98.04-25.97l.02-15.48q.03-7.3.01-14.58l.01-5.33q.02-3.64-.01-7.3l.04-2.11a22.3 22.3 0 0 0-6.9-16.26C744.15 4.6 737.44 4.45 730 4c2.83-2.83 4.8-2.33 8.75-2.37" fill="#EAEDEB"/><path d="m818 555-1.89 2.14c-2.2 2.99-2.96 5.1-3.86 8.67-3.55 12.28-10.18 23.32-16.59 34.3-1.66 2.89-1.66 2.89-2.72 5.21-.94 1.68-.94 1.68-3.63 2.87-6.18 1.51-11.98 1.92-18.31 1.81l2.62-3.5 1.68-2.24q1.55-2.06 3.12-4.08c9-11.65 16.04-23.92 21.33-37.64 1.52-3.09 3.19-4.11 6.34-5.39 7.59-2.57 7.59-2.57 11.91-2.15" fill="#010201"/><path d="m538.81 13.18 2 1.88 2.06 1.9 1.96 1.82 1.77 1.66C548 22 548 22 549 25q1.99.55 4 1a27 27 0 0 1 3.5 2.81l1.84 1.64c1.93 1.8 3.8 3.68 5.66 5.55q2.99 2.53 6 5l2 2q2.41 2.15 4.91 4.2c2.1 1.8 2.1 1.8 3.81 3.62 7.3 7 15.78 6.18 25.23 6.07l5.23.02q5.46 0 10.92-.05 6.98-.07 13.97 0 5.4.01 10.8-.02l5.14.01q3.6 0 7.2-.06l2.13.03c4.08-.1 6.2-.95 8.98-3.77l1.38-1.6c1.8-2 3.98-3.1 6.3-4.45q1.07-1.08 2.2-2.19.88-.9 1.8-1.8h2l.75-1.82c1.47-2.58 2.82-3.49 5.25-5.19a470 470 0 0 0 5.32-4.7C697 30 697 30 700 29l.81-1.75c1.4-2.66 3.27-4.1 5.61-5.95 1.58-1.3 1.58-1.3 4.2-3.99 2.2-2.13 3.72-2.98 6.38-4.3a56 56 0 0 0 6.31-6.76c2.88-2.14 6.17-1.96 9.7-2.25a95 95 0 0 1-6.83 4.81 71 71 0 0 0-8.37 6.88 207 207 0 0 1-11.12 9.62A221 221 0 0 0 694 36.51a239 239 0 0 1-15.3 13.3c-2.7 2.2-2.7 2.2-4.07 3.9-3.7 4.16-6.97 5.7-12.57 6.17-4.1.2-8.19.23-12.29.22l-5.38.06q-5.62.05-11.26.03c-4.78-.02-9.55.06-14.32.16q-5.55.08-11.1.06-2.65 0-5.29.07c-11.04.25-17.8-1.09-25.96-8.87l-3.04-3.13c-2.09-2.18-4.35-4.17-6.6-6.17q-1.2-1.07-2.4-2.19a208 208 0 0 0-7.6-6.3 220 220 0 0 1-13.32-11.88c-18.55-17.6-18.55-17.6-31.45-17.39-6.1.9-9.5 4.74-13.49 9.14-2.27 3.36-2.69 6.01-2.77 9.96l-.06 2.85q-.01 1.52-.05 3.07l-.06 3.15q-.1 4.98-.18 9.97l-.13 6.75-.3 16.56h-1q-.3-9.87-.55-19.75l-.18-6.72-.26-9.66-.09-3.03c-.19-8.58 1.35-13.74 7.22-20.08A20 20 0 0 1 508 2l2.02-.76c11.3-3.46 20.9 4.62 28.8 11.94" fill="#E2E4E4"/><path d="M738.75 1.63c5.63.09 9.02.37 13.25 4.38l2.69 2.37C760.19 14.62 761 20.97 761 29l.01 7.02q.06 31.07.09 62.14l.05 31.92.04 27.85.02 14.74a3206 3206 0 0 1 .03 18.94q.01 3.48 0 6.95l.01 3.94A31 31 0 0 1 759 212c-2.43-3.66-2.26-6.31-2.21-10.53v-2.34l.05-7.8.02-5.58.05-12.01q.06-9.53.07-19.03.08-27.06.21-54.1.08-14.95.11-29.87.02-9.45.08-18.9l.04-11.79q0-2.72.03-5.44l.02-7.46.04-2.16a22.3 22.3 0 0 0-6.88-16.37C744.15 4.6 737.44 4.45 730 4c2.83-2.83 4.8-2.33 8.75-2.37" fill="#F1F4F3"/><path d="M634.13 185.63c2.88 2.38 2.88 2.38 4.19 5.19-.47 4.63-2.97 7.1-6.32 10.19q-.99.47-2 1-1.05 3.47-2 7c-1 1-1 1-3.87 1.24-3.12-.25-3.12-.25-5-1.37-1.6-2.66-1.34-4.84-1.12-7.87l-1.76-.7c-2.92-1.7-4.45-3.44-6.25-6.3 0-3.34.73-4.66 2.82-7.26 5.47-4.38 15.18-4.18 21.3-1.12" fill="#666967"/><path d="M492 24h2c1.22 36.09 1.12 72.17 1.07 108.27l-.02 24.84L495 208h-2a111 111 0 0 1-1.12-15.64v-2.2l.01-7.22v-5.21l.01-14.08.01-14.73.02-27.88.02-31.75z" fill="#EDF0EE"/><path d="M576 137a30.3 30.3 0 0 1 19.88 9.75c6.25 7.93 8.26 15.16 7.12 25.25-.97 4.26-1.87 7.87-5 11v-5h2v-18l-2-1v-3l-5 1 .06 3.25c-.05 2.9-.19 5.04-1.06 7.75h-2v2h-2v4h-2v4h-2v2h-2v2h-4v2l-8 1c3-2 3-2 5.05-3.12 6.71-3.91 10.3-8.57 12.95-15.88 1.67-8.47-1.31-16.97-6-24a40 40 0 0 0-6-5" fill="#ECC556"/><path d="M756 209h2c1.29 5.68.6 9.12-2.12 14.12l-.9 1.81c-2.12 4.06-4.63 6.98-7.98 10.07l-1.84 1.84-3.47 3.46-4.25 4.32c-3.81 3.71-7.6 7-12.25 9.57C722 256 722 256 721 258c-.3 5.76.39 10.49 2 16l.88 3.38c2.56 8.27 6.16 15.93 10.12 23.62l2.89 5.79q1.3 2.6 2.66 5.2l1.64 3.2 1.54 2.98A28 28 0 0 1 745 326l-2 1-.7-1.51-3.3-7.05-1.23-2.63a257 257 0 0 0-7.89-15.31c-6.12-11.06-11.87-24.18-12.26-36.94l-.14-3.37c1-6.1 6.39-8.96 11.14-12.38 13.11-9.74 23.8-19.69 27.07-36.31z" fill="#E6E9E7"/><path d="M616 662h20l-.07 5.62-.05 7.38-.06 3.7c-.04 7.94-.04 15.35 4.3 22.3l1.88 3c-2.65-.37-3.78-.76-5.62-2.75-5.14-8.4-6.08-18.72-4.38-28.25l-.06-2.81C632 668 632 668 634 665l-14 1-.06 4.94-.04 2.77c.1 2.29.1 2.29 1.1 3.29.5 6.02-.02 11.28-2 17l-1.62 4.94L616 703l-5 1 .84-2.05 1.1-2.7 1.09-2.67c1.7-4.52 2.09-8.24 2.07-13.1l-.01-3.78-.03-3.95-.01-3.99z" fill="#F0F4F0"/><path d="m687 661 2.09 1.17c16.55 9.17 31.08 12.25 49.91 12.83v1q-5.93.42-11.88.75l-3.35.25c-6.74.35-11.64-.17-17.75-3.12C704 673 704 673 701 673l1.68 1.76c7.2 7.76 7.2 7.76 8.32 13.24l.58 2.38c1.12 4.85 1.71 8.7.42 13.62l-4-1 .18-2.75c.35-9.45-.57-15.23-7.01-22.25-4.36-4.13-8.45-6.26-14.17-8z" fill="#DFE2DF"/><path d="M738.75 1.63c5.63.09 9.02.37 13.25 4.38l2.69 2.37c9.87 11.2 6.22 29.53 6.02 43.35l-.13 10.36-.17 11.94-.03 3.75-.06 3.48-.04 3.07c-.28 2.7-.9 4.36-2.28 6.67l-.01-2.67q-.06-12.54-.17-25.07-.07-6.45-.09-12.9-.03-6.22-.1-12.44l-.02-4.75c-.02-17.58-.02-17.58-6.98-24.54C744.15 4.6 737.44 4.45 730 4c2.83-2.83 4.8-2.33 8.75-2.37" fill="#EAECEC"/><path d="M545 145c0 3 0 3-1.5 5.5a22.3 22.3 0 0 0-.45 17.33A91 91 0 0 0 549 178l-1 2h-2v-2h-2v-2h-4v4h2v4h2v2h2v2h2a89 89 0 0 1 4 4l2 2c-4.31 0-5.9-2.12-9-4.93-7.25-7.51-9.48-15.28-9.32-25.55.69-7.68 4.2-12.97 9.32-18.52" fill="#DDC16A"/><path d="m654 146 1 2-3 5c-.69 2.31-.69 2.31-1 5l-.44 3.56c.06 7.43 4.96 14.78 9.44 20.44h-4v-2l-3 2 1 3 2 1v2h2l-1 3c-6.16-3.87-8.77-10.31-11-17-1.05-11.5 1.02-18.95 8-28" fill="#D8C068"/><path d="M489 657h2l.15 1.83.23 2.42.21 2.39A16 16 0 0 0 494 670c6.67 4.22 13.89 4.61 21.56 4.44l3.15-.03c8.97-.19 17.55-1.42 26.29-3.41l-1 2h-2l-1 3-1.83.18-2.42.26-2.39.24c-2.36.32-2.36.32-4.19.84-10.36 2.28-25.4 1.41-34.73-3.33-3.94-3.53-6.48-6.05-7.25-11.38C488 659 488 659 489 657" fill="#E1E3E4"/><path d="M756 209h2c1.29 5.68.6 9.12-2.12 14.12l-.9 1.81c-2.12 4.06-4.63 6.98-7.98 10.07l-1.84 1.84-3.47 3.46-4.25 4.32c-3.79 3.69-7.55 6.97-12.19 9.5C722 256 722 256 720 259c-.41 2.7-.41 2.7-.62 5.69l-.23 3.01-.15 2.3h-1q-.2-3.09-.31-6.19l-.18-3.48c.78-5.33 4.12-7.28 8.22-10.44l2.89-2.08c13.11-9.74 23.8-19.69 27.07-36.31z" fill="#E1E4E3"/><path d="M489 431h1l.26 2.23 1.18 10.02.41 3.51.4 3.38.36 3.11c.33 2.32.77 4.5 1.39 6.75-6.53-.9-6.53-.9-9.32-1.51-8.96-1.63-16.83-1.34-24.69 3.42C458 463 458 463 455 463c6.37-7.14 13.74-9.02 23-10 4.42.29 7.98 1.17 12 3l-1.06-3.44c-1.01-4.01-.83-7.24-.23-11.31.44-3.43.35-6.79.29-10.25" fill="#D8DBDC"/><path d="m452 463 4 1-1.36 1.36C440.51 480.4 440.48 500.51 440 520l-2 1c-.96-5.42-1-10.39-.62-15.88l.15-2.4c1.02-15.55 4.49-27.45 14.47-39.72" fill="#E8EAEA"/><path d="m909.27 525.98 2.18.04 4.6.11q3.42.08 6.86.11c9.37.2 17.25 1.4 26.1 4.76l-1 2-2.46-.65c-9.07-2.19-17.46-2.76-26.75-2.63q-3.39.04-6.79.05c-6.43.04-12.64.25-19 1.23q-2.98.1-5.95.06l-2.9-.03L882 531l1-2c2.64-.45 5.21-.8 7.87-1.06 6.28-.67 12.08-2.09 18.4-1.96" fill="#EDEFF0"/><path d="M948 532c11.83 1.29 21.83 9.94 30 18l1.96 1.77A45.5 45.5 0 0 1 991 567l-1 3a109 109 0 0 1-4.47-6.23c-9.88-14.89-21.9-21.98-37.53-29.77z" fill="#CED1D3"/><path d="M588 188h6c-6.07 6.64-12.15 10.64-21.27 11.2-7 .1-12.39-.16-18.73-3.2l1-2h5v2h22v-2h2v-2h4z" fill="#D7BC67"/><path d="M678 136c7.35-.55 12.51.49 19 4l-1 2h-2v2h2l.25 1.88C697 148 697 148 701 150l-2 15h-1l-.08-2.12c-.49-8.31-1.96-14.4-8.17-20.19-3.64-2.9-7.34-4.3-11.75-5.69z" fill="#D3B660"/><path d="M584 145c4.27 5.69 5.6 11.26 5.44 18.31a26 26 0 0 1-10.32 16.88L576 182l-2-2h2v-4h4l.81-1.81C582 172 582 172 583.5 170.78c2.21-2.62 2.25-5.11 2.69-8.47l.48-3.57.33-2.74h-3z" fill="#291B0A"/><path d="m502 5 4 1-2.25 2.19c-4.86 4.96-7.82 8.4-7.96 15.47l-.06 2.85-.05 3.06-.06 3.15-.18 9.97-.13 6.75L495 66h-1q-.29-9.87-.54-19.75l-.18-6.72-.26-9.66-.09-3.02c-.16-7.38.49-12.64 5.69-18.23l1.92-2.08z" fill="#DCDCDE"/><path d="m698 190 4 1-4.12 2.88-2.33 1.61c-5.72 3.38-10.77 3.8-17.24 3.7h-2.3c-3.25-.03-5.91-.16-9.01-1.19v-2l2.23-.08 10.02-.36 3.51-.12 3.38-.12 3.11-.11c2.39-.18 4.46-.54 6.75-1.21v-2h2z" fill="#E5CB61"/><path d="M440 516h1l.37 2.89c.9 6.95 1.88 13.84 3.19 20.72.58 3.12 1.02 6.25 1.44 9.39-1.94-.56-1.94-.56-4-2-.62-3.25-.62-3.25-1-7l-1.06-3.12c-.94-2.87-1.02-4.9-.94-7.88l-.55-1.85c-.54-2.61-.15-4.33.49-6.9l.59-2.42z" fill="#DCDEDD"/><path d="m651 153 3 2-1 11h1v6h2v4h4l1 3 3 1c.69 2.06.69 2.06 1 4-6.04-1.6-9.24-5.99-12.27-11.18-3.3-6.75-3.57-12.48-1.73-19.82" fill="#261A08"/><path d="m632 676 3 1 .26 3.62c1.38 16.39 1.38 16.39 6.74 23.38-3.8-.78-3.8-.78-5.62-2.75-2.69-4.39-3.78-8.69-4.57-13.75l-.54-3.34A22 22 0 0 1 632 676" fill="#DEE0E1"/><path d="M618 662h18c-1 16-1 16-2 23h-1q-.33-4.15-.62-8.31l-.2-2.38-.16-2.3-.16-2.11c.14-1.9.14-1.9 2.14-4.9l-2.94.12c-4.51.02-8.71-1.01-13.06-2.12z" fill="#F0F3F3"/><path d="M546 191a50 50 0 0 1 8.56 4.06c5.19 2.93 9.81 3.19 15.69 3.5l2.26.13 5.49.31-2 3c-5.48 1.04-10.82-.24-16-2l-1 2-6-2v-3l-7-4z" fill="#1E1205"/><path d="M806 547c2 3 2 3 3 6l-1 2 2.41-1.13 3.21-1.43 3.17-1.44c3.55-1.11 5.64-.9 9.21 0-3.12 2.08-5.67 2.93-9.25 4l-3.5 1.05q-5.11 1.5-10.25 2.95c.74-4.08 1.83-8.02 3-12" fill="#D8D9DA"/><path d="M925 571v1l-1.9.15-2.48.23-2.46.21C916 573 916 573 914 575c-2.71.16-2.71.16-5.94.06-3.44-.09-5.77-.16-9.06.94-2.26-.34-2.26-.34-4.69-.94l-2.45-.59L890 574v-1c11.73-1.99 23.12-2.22 35-2" fill="#D4D3D6"/><path d="M756 369h2q1.01 4.74 2 9.5l.58 2.69A64 64 0 0 1 762 397l-2-4h-2l-1-8.06-.29-2.28A95 95 0 0 1 756 369" fill="#282A28"/><path d="m546 679 2 3-1.94 2.56c-3.38 5.76-2.89 12.93-3.06 19.44l-3-1c-1.92-3.83-1.46-7.54-.21-11.51 1.72-4.39 3.58-8.55 6.21-12.49" fill="#D4D5D7"/><path d="M489 431h1l.26 2.23 1.18 10.02.41 3.51.4 3.38.36 3.11c.33 2.32.77 4.5 1.39 6.75a168 168 0 0 1-12-2c3.09-1.76 4.23-2 8-2l-1.06-3.44c-1.01-4.01-.83-7.24-.23-11.31.44-3.43.35-6.79.29-10.25" fill="#EDEFEF"/><path d="m589 141 5 1v2h4c1.76 3.09 2 4.23 2 8l4 1v22h-1l-.01-2.86c-.3-9.94-1.74-18.66-8.94-26.18A92 92 0 0 0 589 142z" fill="#201605"/><path d="M990 569c3 1 3 1 4.13 3.11l.99 2.64 1.01 2.61c1.67 5.09 1.98 9.59 1.93 14.95l-.02 3.8L998 599l-2 1-.3-3.55c-.76-8.26-1.63-15.77-4.9-23.48-.8-1.97-.8-1.97-.8-3.97" fill="#ECEFF0"/><path d="m909 625 1 3-1.39 1.03c-5.98 4.72-9.1 8.93-10.07 16.59A225 225 0 0 0 898 656l-2-1c-.75-9.62-.37-16.45 6-24a68 68 0 0 1 7-6" fill="#E9EBEE"/><path d="M809 479c3.03 3.41 3.83 6.58 4.75 11l.8 3.69c.42 3.12.33 4.41-.55 7.31a250 250 0 0 0-.56 7.25l-.26 3.83L813 515h-1l-.04-1.81c-.57-20.86-.57-20.86-3.44-31.02L808 480z" fill="#DEE0DE"/><path d="M698 142c5.34 1.41 7.81 4.77 11 9l2.38 3c3.06 5.49 1.9 12.9 1.62 19h-1v-14l-4-1-.19-2.19c-1.05-3.65-3.09-5.23-5.81-7.81v-2h-2v-2h-2z" fill="#D7BC66"/><path d="M617 676h1l.18 2.48.26 3.27.24 3.23c.32 3.02.32 3.02.94 5.13.51 2.51-.07 4.05-.93 6.45l-.8 2.32C617 701 617 701 615 704l-4-1 1.38-2c4.21-7.77 4.16-16.34 4.62-25" fill="#DEE0E0"/><path d="M760 404h1l-.02 2.78-.03 10.24-.03 4.43-.02 6.38-.01 3.87c.09 2.69.42 4.74 1.11 7.3-.31 3.19-.31 3.19-1 6l-2 1c-.62 2.56-.62 2.56-1 5h-1l.44-6.94.24-3.9q.3-4.22.82-8.41c.64-5.59.85-11.19 1.06-16.81l.13-3.2z" fill="#242624"/><path d="M928.7 526.8c7.23-.33 13.53 1.82 20.3 4.2l-1 2-2.3-.62c-11.17-2.74-22.24-3.1-33.7-3.38v-1c5.56-.45 11.14-.78 16.7-1.2" fill="#E3E6E8"/><path d="M651 176c3.69.2 4.79.76 7.31 3.56L660 182h-4v-2l-3 2 1 3 2 1v2h2l-1 3c-3.6-2.62-6.19-4.88-8-9 .4-4.4.4-4.4 2-6" fill="#E5C564"/><path d="M754 164h1l1 51h-4l.48-3.36c.62-4.94.74-9.85.84-14.83l.06-2.86.18-8.95.13-6.11z" fill="#1D201E"/><path d="M600 155c3.23 3.23 3.18 6.26 3.25 10.62-.05 6.27-.65 12.78-5.25 17.38v-5h2z" fill="#D1BB70"/><path d="M645 160h1l.11 2.75c.4 7.3 1.19 13.45 3.89 20.25l-2 1v-2h-2l-.88-2.44C644 177 644 177 642 176l.94-7.44.26-2.14c.69-5.31.69-5.31 1.8-6.42" fill="#1F1909"/><path d="M817 603c-2.71 2.71-5.32 3.02-9 4l-3.12 1.12a21 21 0 0 1-7.88.88h-3c2.86-4.29 5.94-4.31 10.8-5.44A53 53 0 0 1 817 603" fill="#EAECEA"/><path d="M488 409h1l1 35-3-1 .06-3.31C487 436 487 436 486 433q.08-2.78.34-5.54l.28-3.25.32-3.4.3-3.43z" fill="#D3D5D5"/><path d="M761 439c2.11 4.22 2.22 6.14 2.12 10.75l-.05 3.55-.07 2.7h2v2l2 1-9 2z" fill="#EBEDEC"/><path d="m750 675-1 3h-25v-2c8.69-.66 17.28-1.16 26-1" fill="#EBEEEC"/><path d="M688 136h6v2h5v2h3v2h4v2h2l1 6-2.62-2.56c-5.4-4.68-11.97-7.43-18.38-10.44z" fill="#1B1005"/><path d="M757 644c5.63 4.15 5.63 4.15 7 8-.02 3.23-.02 3.23-.38 6.75l-.33 3.55-.29 2.7h-1l-.33-2.2c-.9-5.49-2.02-9.85-4.67-14.8z" fill="#EFEFF1"/><path d="M813 501c2.73 2.73 2.85 5.3 3 9a99 99 0 0 1-2 16l-2-1c-.17-8.04.35-15.99 1-24" fill="#EDF0ED"/><path d="M549 178a371 371 0 0 1 7.52 1.27c2.72.8 3.57 1.73 5.48 3.73 3.19.19 3.19.19 6 0v-1h7c-2.9 2.9-5.61 3.21-9.56 3.38-5.91-.04-10.57-2.13-15.44-5.38z" fill="#352509"/><path d="M541 154h2l1 12h2v6h2l-1 3c-3.26-2.64-4.97-6-6-10a96 96 0 0 1 0-11" fill="#291D0A"/><path d="m660 182 2.69 1.5c6.81 2.95 15.23 2.13 22.31.5l1 2h-4v2h-16v-2l-6-2z" fill="#D7BB61"/><path d="M788 456v1l-23 1v-3q3.78-.33 7.56-.62l2.14-.2c4.92-.36 8.63.21 13.3 1.82" fill="#EDEFEF"/><path d="M492 369h2a396 396 0 0 1-3 24h-1c-1.12-8.27-1.73-16.29 2-24" fill="#EAEDED"/><path d="m586 170 2 4h-2v4h-2v2h-2v2h-4v2l-8 1q2.51-1.7 5.12-3.26c5.38-3.31 8.23-5.99 10.88-11.74" fill="#CAB259"/><path d="m882 530 1 2q-3.87 1.05-7.75 2.06l-2.21.61c-3.75.97-6.34 1.48-10.04.33 2.93-1.95 5.02-2.72 8.38-3.62l2.83-.79c2.69-.57 5.05-.7 7.79-.59" fill="#DEE0E1"/><path d="M762 428h2c1.79 17.65 1.79 17.65-1 22a28 28 0 0 1-1.1-8.33l.01-2.42.03-2.5.01-2.55z" fill="#E8ECE8"/><path d="m586 165 2 2c-2.93 6.96-5.43 11.14-12 15l-2-2h2v-4h4l.81-1.81C582 172 582 172 583.56 170.5c1.7-1.77 2.03-3.11 2.44-5.5" fill="#221A09"/><path d="M758 19c2.69 2.69 3.06 5.38 4 9l-1 1a168 168 0 0 0-.32 7.1l-.06 2.15-.18 6.81-.13 4.61L760 61h-1z" fill="#F2F3F4"/><path d="M588 188h6c-4.33 4.73-9.39 9.62-16 10.31l-2-.31v-2h6v-2h2v-2h4z" fill="#E0C86C"/><path d="M545 145c0 3 0 3-1.44 5.44-2.22 5.07-2.3 10.08-2.56 15.56h-1v-8h-2v8h-1c-.55-9.19 1.99-14.18 8-21" fill="#CEC191"/><path d="M710 180c1 2 1 2 .44 3.95l-.88 2.17-.87 2.2L708 190h-2v2l-2.44.88C701 194 701 194 700 196h-5l2.06-1.56c5.1-4.23 9.87-8.49 12.94-14.44" fill="#291A0A"/><path d="M681 138v1l-2.82.37c-12.27 1.66-12.27 1.66-18.18 3.63.92-2.29 1.65-3.73 3.62-5.25 5.63-1.78 11.67-.7 17.38.25" fill="#060707"/><path d="M949 663c-2.54 3.05-5.22 4.05-8.94 5.31l-3.15 1.12c-2.91.57-2.91.57-5.29-.32L930 668v-1q4.18-1.3 8.38-2.56a236 236 0 0 1 4.71-1.44l2.12-.65C947 662 947 662 949 663" fill="#D0D1D1"/><path d="M744 634c5.13 2.28 9.48 4.46 13 9-.38 2.16-.38 2.16-1 4q-2.26-1.92-4.5-3.88l-2.53-2.17L747 639v-2l-4-1z" fill="#ECEFED"/><path d="M902 634c1.14 3.41.53 4.59-.52 7.88-.9 3.99-.63 8.06-.48 12.12l-3 1c-.45-8.17-.41-13.98 4-21" fill="#1E2122"/><path d="m695 164 1 3h2c-1.42 5.68-4.39 9.53-8 14l-2-1v-2h2a182 182 0 0 0 5-14" fill="#29200E"/><path d="M439 497h1v23l-2 1c-1.06-5.57-.83-10.34-.06-15.94l.3-2.36z" fill="#EDEFEF"/><path d="M491 655c3 2 3 2 3.44 4.02l.12 2.36c.19 3.38.76 5.66 2.44 8.62l-3 1c-4.02-4.85-3.28-10.05-3-16" fill="#27292A"/><path d="m558 184 14 1-2 3c-2.82.29-2.82.29-6.12.19l-3.33-.08L558 188z" fill="#E3C15F"/><path d="M803 467c3.68 3.28 5.81 6.63 8 11l-1 2c-3.63-1.21-3.95-2.11-5.75-5.38l-1.36-2.39C802 470 802 470 803 467" fill="#E8EAE9"/><path d="M828 598v2c-9.78 4.24-9.78 4.24-16 3a28 28 0 0 1 7.44-3.62l2.31-.79C824 598 824 598 828 598" fill="#DFDFE2"/><path d="m545 672-3 1-1 3c-5.04 1.01-8.24.97-13-1v-1l7.38-1.56 2.11-.46c5.28-1.09 5.28-1.09 7.51.02" fill="#D5D8D6"/><path d="m550 678 2 3-2.44 2.56c-2.78 3.29-3.3 6.13-3.56 10.44l-3-1c.32-6.17 3.49-10.17 7-15" fill="#242627"/><path d="m499 641 2 1-1.17 1.25A51 51 0 0 0 491 657l-3-1c3-5.97 6.04-10.51 11-15" fill="#EAECED"/><path d="M796 607c-2.33 3.21-5.22 3.95-8.93 4.79-3.03.31-5.33-.56-8.07-1.79v-1c5.76-1.3 11.09-2.26 17-2" fill="#DADEDA"/><path d="m718.22 673.98 2.9.14 3.14.15 3.3.17 3.31.16 8.13.4v1q-5.44.34-10.88.63l-3.13.19-2.99.16-2.76.16C717 677 717 677 715 675c1-1 1-1 3.22-1.02" fill="#C9CCCA"/><path d="M924 620c-2.21 2.21-4.21 3.24-7 4.62l-2.69 1.36C912 627 912 627 910 627c2.93-7.08 6.98-7.35 14-7" fill="#CCCDD1"/><path d="M948 532c5.71.43 9.41 2.84 14 6-2.73 1.07-3.79 1.08-6.58 0l-2.67-1.44-2.7-1.43L948 534z" fill="#D5D8D9"/><path d="M693 198c-2.07 2.8-3.14 3.03-6.69 3.69L683 202v-2h-8v-1l5.62-.5 3.17-.28c3.08-.21 6.12-.26 9.21-.22" fill="#261C09"/><path d="M576 137c6.03.48 10.77 3.2 16 6l-4 1v-2h-4l-1 2z" fill="#A9955D"/><path d="M584 142h4q.58 2.93 1.12 5.88l.64 3.3.24 2.82-2 2-2-5.31-1.12-2.99C584 145 584 145 584 142" fill="#CCAA5A"/><path d="m512 314 3 1-6 13-2-1q.67-2.12 1.38-4.25l.77-2.39c.8-2.23 1.75-4.27 2.85-6.36" fill="#DEE1E2"/><path d="m710 174 2 1a39 39 0 0 1-5 11h-1c-.33-4.24-.44-6.36 2-9.94z" fill="#E0C469"/><path d="M710 19c0 3 0 3-1.68 4.82l-2.2 1.87-2.17 1.88C702 29 702 29 700 29c1.73-4.68 5.59-7.8 10-10" fill="#E5E8E9"/><path d="M440 486c2.83 4 1.76 7.43 1 12h-1l-1 5h-1a83 83 0 0 1 1-16z" fill="#D8DBDA"/><path d="M489 657h2l.18 1.86.26 2.45.24 2.43C492 666 492 666 493 669h-3c-1.81-4.46-2.12-7.31-1-12" fill="#E2E4E4"/><path d="M618 662h18l-1 3-1.75-.56c-2.25-.44-2.25-.44-4.09.09-2.62.57-4.32.18-6.91-.47l-2.42-.59L618 663z" fill="#F8FBF8"/><path d="m508 634 5 1v2l-2.12.84-2.76 1.1-2.74 1.09C503 641 503 641 501 642l-2-2a26 26 0 0 1 9-3z" fill="#DFDEE1"/><path d="m485 454 1 3-15-1c1-2 1-2 3.06-2.69 3.83-.4 7.14.11 10.94.69" fill="#EFF1F3"/><path d="m724 251 1 3-2.44 1.81c-3.91 3.81-3.46 9.04-3.56 14.19h-1c-.77-11.62-.77-11.62 1.08-14.94 1.36-1.31 1.36-1.31 3.92-3.06z" fill="#D8DCDB"/><path d="M667 196h7v2h13v1l-8.31.06-2.38.03-2.3.01-2.11.01C670 199 670 199 667 198z" fill="#C8B371"/><path d="M989 621h1c.5 5.27-.67 7.91-4 12l-3 1c1.69-4.5 3.82-8.73 6-13" fill="#D3D4D7"/><path d="M895 574v2l-14 2c2-3 2-3 3.62-3.69 3.48-.45 6.88-.37 10.38-.31" fill="#E9E9EB"/><path d="M525 293c.95 3.44 1.1 5.54 0 9-1.94 2.81-1.94 2.81-4 5h-2c1.83-4.74 3.92-9.36 6-14" fill="#1F2122"/><path d="M534 258h1v10h2l-1 6h-3z" fill="#333636"/><path d="m718 11 4 1-10 9-1-3c1.78-3.03 2.6-3.87 6-5z" fill="#D6D8DB"/><path d="m551 668 3 1c-2.2 2.48-4.06 3.61-7.19 4.69l-2.17.76-1.64.55-1-2c6.75-3.88 6.75-3.88 9-5" fill="#E5E7E5"/><path d="m699.75 668.31 2.25.7 1 4-1.75-.58c-2.25-.43-2.25-.43-4.38.13L695 673l-2-2c2.45-2.28 3.34-3.08 6.75-2.69" fill="#EDF0ED"/><path d="M868 581c-.69 1.94-.69 1.94-2 4-2.44.62-2.44.62-5 1l-3 2v-3c3.46-3 5.34-4 10-4" fill="#ECEBED"/><path d="M753 355c2.3 3.44 2.54 5.94 3 10l-3 1c-2.22-6.4-2.22-6.4-1.12-9.44z" fill="#2A2D29"/><path d="m651 153 3 2-2 12-2-1c-.08-4.52-.1-8.59 1-13" fill="#2B2217"/><path d="m517 1 1 2-13 3c2.97-5.95 5.81-5.12 12-5" fill="#F1F2F2"/><path d="m542 693 1 11-3-1c-1.48-2.96-1.06-5.74-1-9 2-1 2-1 3-1" fill="#F2F2F5"/><path d="M448 559h2c3 6.62 3 6.62 3 10-1.94-.75-1.94-.75-4-2-1.13-2.82-1-4.88-1-8" fill="#DCE0DD"/><path d="M489 431h1l1 6.56.56 3.69c.43 3.63.52 7.11.44 10.75-2.64-2.58-3.22-4.54-3.29-8.11q.03-2.32.1-4.64l.04-2.4z" fill="#B4B7B7"/><path d="m734 305 3 1a33 33 0 0 1 2 5l1.12 2.81.88 2.19c-3.17-1.09-3.99-1.98-5.75-4.94C734 308 734 308 734 305" fill="#EBEFEE"/><path d="M713 162h1l.5 4.31.28 2.43c.39 4.05-.18 6.55-1.78 10.26h-2z" fill="#3B2D0F"/><path d="M708 154c3.88 1.75 3.88 1.75 5 4q.1 3.81.06 7.62l-.01 2.15L713 173h-1v-14l-4-1z" fill="#D6C178"/><path d="m654 146 1 2-3 5-.5 2.69C651 158 651 158 648 160c-1-3-1-3 .18-5.45l1.7-2.67 1.67-2.7C653 147 653 147 654 146" fill="#B2AC86"/><path d="M592 145c4.66 1.5 5.87 4.88 8 9l-2 1-2-1v-4h-2v-2h-2z" fill="#D4BA68"/><path d="m551 138 3 1-1 2h-3l-.31 2.38C549 146 549 146 546 148l1-4-2-1c4.39-4 4.39-4 6-5" fill="#090C08"/><path d="m759 668 1 3c-3.61 3.61-3.61 3.61-6 5-3.88-.19-3.88-.19-7-1v-1l2.12-.55 2.76-.76 2.74-.74C757 671 757 671 759 668" fill="#DADDDA"/><path d="M811 522c2.25 3.38 2.21 4.18 1.81 8.06l-.23 2.66C812 535 812 535 809 537a210 210 0 0 1 2-15" fill="#CBCECD"/><path d="M649 181c1.94.31 1.94.31 4 1l1 3 2 1v2h2l-1 3c-4.08-2.87-6.03-5.43-8-10" fill="#D6BD68"/><path d="M695 173c.62 1.81.62 1.81 1 4l-2 3h-2v2c-3 2-3 2-5.19 1.62L685 183l3.31-2.19A18.7 18.7 0 0 0 695 173" fill="#CEB569"/><path d="m589 157 2 2c-.02 2.6-.02 2.6-.38 5.62l-.33 3.04L590 170h-2l-1 2q-.06-2.5 0-5l1-1q.34-2.27.56-4.56l.26-2.51z" fill="#D8BE75"/><path d="M687 141c4.29 1.59 6.32 4.43 9 8v2c-3-1-3-1-4.44-3.44-1.66-2.72-2.64-3.45-5.56-4.56z" fill="#221507"/><path d="M678 136q2.4-.07 4.81-.12l2.71-.08c2.48.2 2.48.2 5.48 2.2h-3v2l-10-3z" fill="#B0A265"/><path d="m909 625 1 3-1.46 1.24-1.92 1.64-1.89 1.61A73 73 0 0 0 901 636c.09-2.91.58-4.57 2.62-6.67A132 132 0 0 1 909 625" fill="#DFE0E3"/><path d="M932 617c-5.25 2.62-8.09 3.1-14 3 4.71-3.14 8.44-4.63 14-3" fill="#DEDFE1"/><path d="m849 591-10 5-1-2c1.92-2.45 2.97-2.99 6.06-3.75C847 590 847 590 849 591" fill="#ECECEF"/><path d="M495 207h1l1 4.25.56 2.39C498 216 498 216 498 220h-2c-1.28-4.09-2.38-7.69-2-12z" fill="#E6E9E9"/><path d="M540 174c2.81-.25 2.81-.25 6 0 1.88 2 1.88 2 3 4l-1 2h-2v-2h-2v-2h-4z" fill="#D8B759"/><path d="M699 156h1l.12 6.81.08 3.83C700 170 700 170 698 173h-2l.94-3.44A85 85 0 0 0 699 156" fill="#E5C775"/><path d="m677 50 3 2-8 7-3-2z" fill="#1B1C1F"/><path d="M502 5c2.31.19 2.31.19 4 1-4.75 4.88-4.75 4.88-7 6l-2-2c2.25-2.56 2.25-2.56 5-5" fill="#DCDCDF"/><path d="M912 572h14l-2 3-12-2z" fill="#F4F6F8"/><path d="M506 327h2c-.51 3.72-1.12 6.73-3 10l-3-1z" fill="#ECEEEF"/><path d="m519 303 1 2c-1 2.16-1 2.16-2.44 4.62l-1.43 2.48L515 314h-2a25.4 25.4 0 0 1 6-11" fill="#ECEEEF"/><path d="m698 149 3 1-2 15h-1z" fill="#D0AA4B"/><path d="m956 658 2 1c-2.77 3.08-5.06 4.69-9 6l-1-2c1.65-3.3 4.68-3.78 8-5" fill="#E1E3E2"/><path d="M809 514h1l1 14-1-2h-2c-.08-4.16.02-7.95 1-12" fill="#1C201E"/><path d="m540 183 4 5-1 2h-5v-4h2z" fill="#20190E"/><path d="M547 174h5v2l4 2v2c-6.65-1.48-6.65-1.48-8.44-4.12z" fill="#140C07"/><path d="M588 144h5c.19 2.38.19 2.38 0 5l-3 2c-2-2-2-2-2.12-4.62z" fill="#E1B54C"/><path d="m616 697 2 2-3 5-4-1c2.75-4.88 2.75-4.88 5-6" fill="#E8E9EB"/><path d="m990 569 3 1c.95 2.07.95 2.07 1.69 4.56l.76 2.51.55 1.93-3-1c-.95-2.07-.95-2.07-1.69-4.56l-.76-2.51z" fill="#E5E8EB"/><path d="M750 346c2.13 3.19 2.5 5.27 3 9l-2 1c-3-5.75-3-5.75-3-8h2z" fill="#1F2220"/><path d="M498 218c2.18 3.27 3.5 6.38 5 10h-3c-3.08-5.42-3.08-5.42-2.69-8.38z" fill="#D2D4D5"/><path d="m686 185-4 1v2h-9c4.17-2.78 8.1-4.63 13-3" fill="#DEC464"/><path d="M710 690c2.62 2.62 2.71 4.35 3 8-.94 2.38-.94 2.38-2 4-1-1-1-1-1.1-3.5l.04-3.06.02-3.07z" fill="#F1F4F3"/><path d="M750 640c4.75.75 4.75.75 7 3l-1 4z" fill="#E0E1E3"/><path d="M509 637c2.12.94 2.12.94 4 2-3.64 2.43-5.71 2.16-10 2a36 36 0 0 1 6-4" fill="#262529"/><path d="M952 602c.75 1.62.75 1.62 1 4-1.94 3.25-1.94 3.25-4 6l-3-2 3.81-4.49C951 604 951 604 952 602" fill="#2B2D2C"/><path d="M808 539h2v10l-3 1z" fill="#E3E6E4"/><path d="M531 272h2c-.75 6.75-.75 6.75-3 9-1.03-2.79-1.05-3.87-.06-6.75z" fill="#D5D8D6"/><path d="m742 233 2 3-6 5-1-3z" fill="#202221"/><path d="M649 157h1v11c-3.56-4.75-3.56-4.75-3-9z" fill="#E8D787"/><path d="M688 136h6v2h5l-1 4-10-5z" fill="#2F220B"/><path d="M752 11h2c2.17 2.82 3.09 4.22 2.69 7.81L756 21h-2l.12-2.19c-.13-3.02-.87-5.08-2.12-7.81" fill="#1D1E1F"/><path d="M723 12c0 3 0 3-1.31 4.39L717 20l-2-1 1.44-1.88C718 15 718 15 719 13c2.06-.62 2.06-.62 4-1" fill="#1E2023"/><path d="M536 12c3.54 1.68 4.79 2.49 6.31 6.19L543 21l-3.5-2.81-1.97-1.58C536 15 536 15 536 12" fill="#EBEDEE"/><path d="M940 666v2l-8 2-2-3c3.41-.78 6.51-1.1 10-1" fill="#D7D8DA"/><path d="m898 655 8 8c-3.95 0-5.15-1.37-8-4l-1-3z" fill="#DCE0E4"/><path d="m961 655 3 1c-2.49 2.67-4.63 4.56-8 6 1.25-3.65 1.67-4.78 5-7" fill="#EDEFEE"/><path d="M953 592h1c.25 7.62.25 7.62-2 11h-2z" fill="#D5D5D6"/><path d="M490 457q2.03.96 4 2c-4.52 1.46-7.52.27-12-1 3.09-1.88 4.6-2.28 8-1" fill="#CCCED0"/><path d="m698 190 4 1-9 6v-3h3v-2h2z" fill="#D0B769"/><path d="M984 633c0 3.58-1.09 5.05-3 8l-3-2c3.75-4.88 3.75-4.88 6-6" fill="#E3E3E5"/><path d="M490 382h2l-1 11h-1l-.56-4.94-.32-2.77L489 383z" fill="#CDCFD1"/><path d="M540 16c4.01 2 5.41 3.49 8 7l-3 1z" fill="#DFE2E1"/><path d="M739 675h11l-1 3-10-2z" fill="#E4E8E2"/><path d="M761 654h3l-1 11h-1z" fill="#F7F9F7"/><path d="m792 604 9 1v1l-9 1z" fill="#323433"/><path d="M465 590c2.67 2.49 4.56 4.63 6 8-4.88-1.88-4.88-1.88-6-3q-.06-2.5 0-5" fill="#DEDEE0"/><path d="M944 579c2.67 2.49 4.56 4.63 6 8h-3c-2.8-2.91-3-3.79-3-8" fill="#D4D7D7"/><path d="m764 456 1 2 2 1-9 2v-3z" fill="#D9DCDA"/><path d="M488 433h1l1 11-3-1z" fill="#F2F5F6"/><path d="M756 369h2l1 9h-2z" fill="#272B26"/><path d="m755 358 3 1c1.21 3.62.54 4.64-1 8h-1z" fill="#E3E6E1"/><path d="m586 165 2 2q-.93 1.98-1.88 3.94l-1.05 2.21C584 175 584 175 582 176c0-4 0-4 1.44-5.5L585 169c.69-2.19.69-2.19 1-4" fill="#1C1203"/><path d="m698 29 3 1-7 6c0-3 0-3 2-5.19z" fill="#D8DADB"/><path d="M974 549c3.84.96 4.6 1.24 7 4l-1 3z" fill="#C3C5C6"/><path d="M442 480h2l-2 10h-1c-1.23-5.42-1.23-5.42-.06-8.38z" fill="#ECEEED"/><path d="M761 439c2.27 4.53 1.93 6.18 1 11l-2-1z" fill="#D1D4D2"/><path d="m499 346 2 3c-.88 3.69-.88 3.69-2 7l-2-1c.49-3.12 1-6 2-9" fill="#E1E3E2"/><path d="m765 615 3 2c-1.25 1.56-1.25 1.56-3 3-2.19-.31-2.19-.31-4-1z" fill="#DADED8"/><path d="M997 599c1.1 3.29.8 4.71 0 8h-2v-7z" fill="#E4E6E6"/><path d="M821 601c-1.12 1.56-1.12 1.56-3 3-3.19-.31-3.19-.31-6-1 5-3.33 5-3.33 9-2" fill="#D6D7D7"/><path d="M969 543c3.37 1.39 4.99 2.98 7 6-3.24-.56-4.93-1.41-7-4z" fill="#D9D9DB"/><path d="M756 209h2l1 7h-3z" fill="#E1E3E4"/><path d="M646 177h2l2 6-2 1v-2h-2c-.56-1.94-.56-1.94-1-4z" fill="#282011"/><path d="M685 43c2.06.44 2.06.44 4 1l-6 5c.88-4.88.88-4.88 2-6" fill="#1C1E1D"/><path d="m745 2 5 3-2 2-6-2z" fill="#DEE1DE"/></svg>