<svg style="background:transparent" version="1.1" xmlns="http://www.w3.org/2000/svg" viewBox="0 0 1248 704"><path d="m1023 107 2.6 1.26c18.92 9.29 37.15 24.18 47.33 42.89 1.27 2.2 2.69 4.26 4.13 6.35 4.04 6.01 6.26 12.24 8.25 19.16a92 92 0 0 0 1.81 5.4c1.18 3.96 1.57 7.84 1.88 11.94l.25 3.12c-.32 3.71-1.55 6.63-3.25 9.88l-1.07 2.05c-3.31 5.82-6.95 9.43-13.25 11.84-5.56 1.5-9.89 1.28-15.11-1.2-11.28-7.41-16.56-18.6-21.57-30.69-6.53-15.36-15.57-28.76-31.7-35.29-11.56-3.57-25.45-2.89-36.3 2.29l-2.03.92c-5.82 2.91-10.26 6.84-14.9 11.33-2.36 2.28-3.91 3.7-7.07 4.75-.94 1.57-.94 1.57-2 4l-1.84 3.64-2.1 4.17-1.05 2.08A210 210 0 0 0 930 200l-1.97 4.45-1.04 2.32-2.12 4.73a227 227 0 0 0-3.99 9.37c-1.23 2.99-3.05 5.47-4.88 8.13l-1.62 2.88L913 234h-2l-.83 1.72c-3.42 6.66-7.3 11.61-13.17 16.28a192 192 0 0 0-3.5 4.06A38 38 0 0 1 884 264a274 274 0 0 0-4.25 3.38 81 81 0 0 1-12.88 8.16L865 277c0 4.01.01 4.45 2.12 7.44 3.65 5.52 6.2 11.52 8.88 17.56l.94 2.04c2.19 4.83 3.61 9.87 5.06 14.96l1.06 3.56a106 106 0 0 1 3.69 21.64c.25 2.8.25 2.8.76 4.91.68 4 .63 7.91.62 11.96l.01 2.66-.01 5.56.01 8.41c0 8.83-.12 17.52-1.14 26.3l-.5 7.06q-.5 7.39-1.32 14.76c-.18 2.18-.18 2.18-.14 4.64-.04 2.65-.52 4.95-1.04 7.54a293 293 0 0 0-.69 9.85 137 137 0 0 0-.27 10.54C883 462 883 462 882 464q-.15 4.05-.13 8.11l-.01 2.45.01 5.12-.01 7.83.01 4.98-.01 2.35c.02 3.86.28 7.4 1.14 11.16l-.06 2.44c.06 2.56.06 2.56 1 5.37a37 37 0 0 1 1.72 9.07c.45 2.82 1.43 5.4 2.34 8.12q.82 3.45 1.56 6.94l.76 3.52c.67 3.51 1.18 7.01 1.68 10.54l.47 2.28c1.02 5.24 1.62 10.55 2.31 15.85l.85 6.3c.91 6.92 1.48 13.6 1.37 20.57l.49 2.43c.51 2.56.64 4.86.64 7.46l.01 2.87-.01 3.05.01 3.17-.01 6.63.01 10.13-.01 6.45.01 3.05-.01 2.87v2.5A44 44 0 0 1 897 655l2.23.64 10.15 2.98 3.5 1.01c8.33 2.49 17.29 5.53 23.12 12.37.46 2.98.32 4.46-1.22 7.06-17.08 17.98-55.99 17.48-79.13 18.18-22.6.53-45.2-.54-67.77-1.49l-2.29-.1c-17.25-.73-34.5-1.56-51.73-2.6-73.38-4.43-147.56-6.02-220.9-.28q-4.55.35-9.09.67c-28.78 2.04-57.44 5-86.1 8.29l-2.99.34-2.81.33-2.41.28q-2.88.36-5.75.83c-3.8.49-7.44.64-11.26.66l-2.17.02-7.16.05-5.15.04q-23.42.16-46.84.22-17.3.05-34.61.18-12.18.1-24.35.11-7.27 0-14.55.09-6.83.07-13.66.04-2.51 0-5.02.05c-12.59.2-12.59.2-16.15-2.68-2.92-4.42-3.46-8.49-3.2-13.79l.13-3.72.18-2.78-2.38 1.24-3.18 1.64-3.13 1.61c-9.89 4.51-21.31 5.23-31.87 2.63-8.58-3.32-16.19-8.79-20.44-17.12-1.98-6.2-2.43-10.81 0-17l.88-2.56c4.39-9.52 12.54-16.24 22.36-19.86 3.33-.7 6.3-.56 9.7-.39 7.73.25 12.2-2.35 18.06-7.19q2.57-2.44 5-5 2-1.55 4.03-3.05c5.38-4.15 10.13-8.82 14.91-13.64l2.57-2.55 2.45-2.46 2.21-2.21A24 24 0 0 0 245 590c1.95-1.89 1.95-1.89 4.25-3.81 4.79-4.15 9.06-8.35 12.31-13.81 2.25-3.72 5.42-6.42 8.56-9.38 1.88-2 1.88-2 3.22-4.28a70 70 0 0 1 6.1-8.22c8.68-10.46 8.68-10.46 11.56-15.5l-2.12-.81C274.85 528.4 262.73 519.16 255 506l-1.69-2.69-2.87-5.06c-1.5-3.38-2.19-6.49-2.9-10.09-.54-2.16-.54-2.16-2.1-5.22-1.48-3.03-1.82-5.54-2.13-8.87a25 25 0 0 0-1.81-6.07c-1.63-4.03-2.08-7.68-2.5-12-.51-2.76-1.11-5.49-1.72-8.23l-.78-3.52-.78-3.48a82 82 0 0 1-1.13-7.87c-.65-6.28-2.13-12.38-3.53-18.52l-.8-3.61c-2.14-9.53-2.14-9.53-3.42-13.8a39 39 0 0 1-1.4-7.85l-.23-2.58L225 384l-.5-4.56a193 193 0 0 0-.79-6.44c-2.93-21.79-2.93-21.79 1.9-29.45a23.7 23.7 0 0 1 13.64-7.67c3.93-.18 6.66.71 10.25 2.27l3.2 1.38q9.62 4.26 19.21 8.63c11.25 5.03 18.62 7.05 30.3 2.62l6.77-2.68A39 39 0 0 1 319 346l4.79-1.39c10.25-2.81 20.57-4.83 31.21-4.61l.73-1.72c1.53-2.75 3.39-4.59 5.65-6.78l2.33-2.28 4.48-4.34c2.04-2.11 3.32-4.36 4.81-6.88q1.47-1.53 3-3l1.76-2.3a53 53 0 0 1 7.68-7.39l2.81-2.32c3.89-2.82 7.09-4.45 11.94-3.87 3.81.88 3.81.88 5.06 2.82L406 304l1.81.81c4.53 2.46 6.78 6.93 8.31 11.69l.88 3.5q1.47 3.51 3 7c3.43 8.59 5.7 17.51 8.14 26.42 1.17 4.24 2.42 8.42 3.86 12.58l2.88-1.25a115 115 0 0 1 6.21-2.52c8.05-3.01 15.47-7.14 23.01-11.22q2.47-1.3 4.98-2.54c3.38-1.7 6.65-3.57 9.92-5.47 14.58-8.42 14.58-8.42 22-12 4.25-2.08 8.39-4.3 12.52-6.62q3.94-2.18 7.92-4.32 5.49-2.98 10.81-6.25a60 60 0 0 1 8.44-4.43c2.99-1.25 5.7-2.7 8.49-4.34 3.2-1.83 6.51-3.42 9.82-5.04l3.12-1.56 5.82-2.88c2.76-1.41 5.44-2.92 8.14-4.47q4.7-2.63 9.48-5.15l1.92-1.03q5.71-3.04 11.52-5.91l3-1.5q2.9-1.46 5.81-2.88c2.59-1.31 5.1-2.69 7.63-4.12 3.76-2.11 7.57-3.85 11.56-5.5l5.38-2.44q7.29-3.32 14.62-6.56l2.31-1.03 4.58-2.03 5.55-2.5c3.67-1.49 7.35-2.59 11.15-3.69 2.41-.75 2.41-.75 5.91-2.25a91 91 0 0 1 10.89-3.68 82 82 0 0 0 7.73-2.94c4.38-1.81 8.17-2.47 12.88-2.88q2-.46 4-1a191 191 0 0 1 20-4l3.81-.62c3.42-.41 6.75-.38 10.19-.38l3-1q2.63-.13 5.25-.13l3.09-.01 3.22.02 3.23-.02 3.09.01h2.83C772 228 772 228 774 229h3.19c4.99 0 9.45.61 14.25 2 2.68.75 4.9 1.21 7.62 1.5A45 45 0 0 1 809 235c14.43 4.47 14.43 4.47 20.88 1.81L833 235l2.06-1.1c7.73-4.15 14.86-8.51 20.94-14.9l3.44-2.75c3.51-2.95 5.81-6.31 8.2-10.2 1.36-2.05 1.36-2.05 2.84-3.44 2.16-2.29 3.19-4.77 4.52-7.61l2.19-4.6 2.37-5.02 2.38-5.04 1.05-2.24q1.94-4.02 3.97-7.99c1.65-3.25 3.22-6.49 4.6-9.86A30 30 0 0 1 896 153l1.62-2.56c5.28-7.91 11.65-14.89 18.32-21.63l1.72-1.75c4.09-4.06 4.09-4.06 6.34-4.06l.77-1.84c1.39-2.43 2.47-3.25 4.85-4.66l2.17-1.28q4.04-2.24 8.22-4.25 1.98-.96 3.92-2c5.18-2.75 10.43-4.41 16.07-5.97l3.38-1.06c19.88-5.15 41.07-4.15 59.62 5.06" fill="#111311"/><path d="m1023 107 2.6 1.26c18.92 9.29 37.15 24.18 47.33 42.89 1.27 2.2 2.69 4.26 4.13 6.35 4.04 6.01 6.26 12.24 8.25 19.16a92 92 0 0 0 1.81 5.4c1.18 3.96 1.57 7.84 1.88 11.94l.25 3.12c-.32 3.71-1.55 6.63-3.25 9.88l-1.07 2.05c-3.31 5.82-6.95 9.43-13.25 11.84-5.56 1.5-9.89 1.28-15.11-1.2-11.28-7.41-16.56-18.6-21.57-30.69-6.53-15.36-15.57-28.76-31.7-35.29-11.56-3.57-25.45-2.89-36.3 2.29l-2.03.92c-5.82 2.91-10.26 6.84-14.9 11.33-2.36 2.28-3.91 3.7-7.07 4.75-.94 1.57-.94 1.57-2 4l-1.84 3.64-2.1 4.17-1.05 2.08A210 210 0 0 0 930 200l-1.97 4.45-1.04 2.32-2.12 4.73a227 227 0 0 0-3.99 9.37c-1.23 2.99-3.05 5.47-4.88 8.13l-1.62 2.88L913 234h-2l-.83 1.72c-3.42 6.66-7.3 11.61-13.17 16.28a192 192 0 0 0-3.5 4.06A38 38 0 0 1 884 264a274 274 0 0 0-4.25 3.38 81 81 0 0 1-12.88 8.16L865 277c0 4.01.01 4.45 2.12 7.44 3.65 5.52 6.2 11.52 8.88 17.56l.94 2.04c2.19 4.83 3.61 9.87 5.06 14.96l1.06 3.56a106 106 0 0 1 3.69 21.64c.25 2.8.25 2.8.76 4.91.68 4 .63 7.91.62 11.96l.01 2.66-.01 5.56.01 8.41c0 8.83-.12 17.52-1.14 26.3l-.5 7.06q-.5 7.39-1.32 14.76c-.18 2.18-.18 2.18-.14 4.64-.04 2.65-.52 4.95-1.04 7.54a293 293 0 0 0-.69 9.85 137 137 0 0 0-.27 10.54C883 462 883 462 882 464q-.15 4.05-.13 8.11l-.01 2.45.01 5.12-.01 7.83.01 4.98-.01 2.35c.02 3.86.28 7.4 1.14 11.16l-.06 2.44c.06 2.56.06 2.56 1 5.37a37 37 0 0 1 1.72 9.07c.45 2.82 1.43 5.4 2.34 8.12q.82 3.45 1.56 6.94l.76 3.52c.67 3.51 1.18 7.01 1.68 10.54l.47 2.28c1.02 5.24 1.62 10.55 2.31 15.85l.85 6.3c.91 6.92 1.48 13.6 1.37 20.57l.49 2.43c.51 2.56.64 4.86.64 7.46l.01 2.87-.01 3.05.01 3.17-.01 6.63.01 10.13-.01 6.45.01 3.05-.01 2.87v2.5A44 44 0 0 1 897 655l2.23.64 10.15 2.98 3.5 1.01c8.33 2.49 17.29 5.53 23.12 12.37.46 2.98.32 4.46-1.22 7.06-17.08 17.98-55.99 17.48-79.13 18.18-22.6.53-45.2-.54-67.77-1.49l-2.29-.1c-17.25-.73-34.5-1.56-51.73-2.6-73.38-4.43-147.56-6.02-220.9-.28q-4.55.35-9.09.67c-28.78 2.04-57.44 5-86.1 8.29l-2.99.34-2.81.33-2.41.28q-2.87.36-5.7.85c-4.88.59-9.66.6-14.57.58h-3.19l-10.41-.01-7.23-.01-19.01-.02-19.4-.02L292 704c3.68-3 7.31-5.43 11.46-7.74q1.89-1.05 3.75-2.11l1.92-1.08c5.21-2.98 10.31-6.13 15.43-9.26l3.7-2.25q11.83-7.2 23.58-14.53c7.71-4.79 15.5-9.44 23.28-14.09A1240 1240 0 0 0 407 633.27q2.79-1.77 5.62-3.48c13.1-8 25.71-16.74 38.38-25.39l5-3.4 3.13-2.21a20 20 0 0 1 7.57-3.06l2.63-.55 2.79-.56c54.45-11.64 107.1-37.33 155.65-64.12a848 848 0 0 1 19.98-10.62 868 868 0 0 0 21.5-11.5l2.26-1.26c2.9-1.62 5.72-3.28 8.49-5.12h3l.7 2.1c12.04 35.98 27.18 62.49 54.52 88.93 20.31 19.69 20.31 19.69 20.98 32.84q-.02 2-.08 4.01l-.02 2.08-.1 5.04-2.05.23c-8.02 1.13-15.03 3.52-20.65 9.61-4.94 6.69-4.98 13.11-4.3 21.16 2.09 4.96 4.93 6.9 9.61 9.14 8.06 2.9 15.61 3.2 24.12 3.18q3.2 0 6.41.04c10.7.05 21.49-.95 29.86-8.36 12.03-13.94 12.19-35.6 12.19-52.94l.03-6.88c.05-11.65-.24-23.38-4.73-34.31-.6-2.28-.22-3.66.51-5.87 24.72 18.66 24.72 18.66 30 31l1.11 2.58c4.8 12.17 5.53 24.49 4.89 37.42-1.57 1.57-3.26 1.15-5.44 1.25-7 .65-13.66 3.22-18.44 8.56-4.74 7.12-7.29 12.43-6.12 21.19 1.92 6.17 4.47 10.14 10.27 13.2 14.21 5.55 34.29 5.13 48.49-.24 8.47-4.1 13.1-9.02 16.24-17.96 5.03-18.46 3.37-38.87 3.04-57.81l-.09-5.9c-.37-25.88-4.24-51.03-10.27-76.13l-.84-3.6q-.83-3.51-1.71-7.01c-2.63-11.34-2.55-22.46-2.44-34.05l.03-6.32c.13-18.6 1.14-37.04 2.87-55.56 4.53-48.45 7.15-97.89-19.78-140.76A10.7 10.7 0 0 1 861 275c1.77-1.52 1.77-1.52 4.25-2.81 31.14-17.24 49-42.45 62.27-74.89 8.54-20.61 20.78-37.47 41.94-46.34 11.72-4.44 24.35-4.46 35.92.49 7.02 3.24 13.35 6.79 18.62 12.55l2.13 2.3c6.15 7.4 9.52 15.44 13.21 24.25 4.17 9.89 8.58 19.86 18.23 25.52 5.67 2.16 11.14 1.69 16.81-.19 6.22-4.45 9.04-9.5 10.62-16.88 2.84-17.33-8.02-36.77-17.34-50.56-14.44-19.66-33.78-35.95-57.66-42.44l-1.87-.54c-7.07-1.81-14.05-1.79-21.32-1.77l-3.71-.05c-22.81-.01-43.83 8.66-61.1 23.36l-2.27 1.86c-15.89 13.49-24.8 32.32-33.4 50.89-9.2 19.77-9.2 19.77-16.33 28.25l-2.45 3.15c-9.47 12-21.04 20.72-34.55 27.85l-1.95 1.12c-8.13 4.25-17.59.36-25.75-2.13-14.46-4.3-28.16-5.48-43.17-5.38q-4.49.01-8.98-.02c-12.02-.01-23.38.97-35.15 3.41l-3.15.63c-27.43 5.81-53.54 16.52-78.85 28.37l-2.97 1.38a1238 1238 0 0 0-41.97 20.74l-2.46 1.26a779 779 0 0 0-28.52 15.24 274 274 0 0 1-13.46 7.07c-11.15 5.49-22.05 11.46-33 17.36l-10.43 5.61-6.57 3.53-3.24 1.74q-7.57 4.07-15.09 8.23a549 549 0 0 1-31.7 16.36C435 369 435 369 429 369l-.62-2.25C413.23 312.24 413.23 312.24 403 304c-3.11-1.55-5.56-1.29-9-1-8.3 4.87-15.05 12.35-20.94 19.88L369 328l-1.3 1.65c-6.38 7.98-11.03 12.78-21.57 14.05-4.6.64-9.14 1.67-13.69 2.61l-3.12.64c-11.35 2.37-22.75 5.27-33.44 9.79-6.65 2.51-12.43-.11-18.63-2.8l-2.19-.93-4.63-1.97q-5.07-2.17-10.16-4.29l-7.22-3.05-2.15-.9q-2.35-.99-4.7-2.01A20 20 0 0 0 236 340c-5 2.45-6.95 4.89-9 10a67 67 0 0 0-.31 8.25l.03 2.4c.51 21.75 4.38 43.94 10.4 64.8 1.01 4.09 1.54 8.13 2.07 12.3 3.16 23.69 8.78 56.81 24.81 75.25l1.69 2.05c7.78 8.64 19.14 15.01 30.31 17.95a41 41 0 0 1-4.62 7.62l-1.57 2.06-1.69 2.2-1.75 2.28a418 418 0 0 1-15.94 19.19q-2.1 2.42-4.13 4.88a409 409 0 0 1-27.7 30.13 85 85 0 0 0-4.72 5.33c-8.35 9.63-24.06 27.49-37.17 28.58l-3.77.11c-9.5.44-18.29 2.49-24.94 9.62-5.46 8.3-6.73 15.09-6 25 2.46 7.12 7.39 10.98 13.94 14.2 10.08 3.9 24.77 3.36 34.56-.91 4.55-2.34 9.06-4.74 13.5-7.29l2-1-.66 1.84c-2.3 6.93-4.2 13.8-1.22 20.79A83 83 0 0 0 228 704c-3.37-.6-3.91-.89-6.25-3.69-3-5.58-2.06-12.18-1.75-18.31l-2.38 1.24-3.18 1.64-3.13 1.61c-9.89 4.51-21.31 5.23-31.87 2.63-8.58-3.32-16.19-8.79-20.44-17.12-1.98-6.2-2.43-10.81 0-17l.88-2.56c4.39-9.52 12.54-16.24 22.36-19.86 3.33-.7 6.3-.56 9.7-.39 7.73.25 12.2-2.35 18.06-7.19q2.57-2.44 5-5 2-1.55 4.03-3.05c5.38-4.15 10.13-8.82 14.91-13.64l2.57-2.55 2.45-2.46 2.21-2.21A24 24 0 0 0 245 590c1.95-1.89 1.95-1.89 4.25-3.81 4.79-4.15 9.06-8.35 12.31-13.81 2.25-3.72 5.42-6.42 8.56-9.38 1.88-2 1.88-2 3.22-4.28a70 70 0 0 1 6.1-8.22c8.68-10.46 8.68-10.46 11.56-15.5l-2.12-.81C274.85 528.4 262.73 519.16 255 506l-1.69-2.69-2.87-5.06c-1.5-3.38-2.19-6.49-2.9-10.09-.54-2.16-.54-2.16-2.1-5.22-1.48-3.03-1.82-5.54-2.13-8.87a25 25 0 0 0-1.81-6.07c-1.63-4.03-2.08-7.68-2.5-12-.51-2.76-1.11-5.49-1.72-8.23l-.78-3.52-.78-3.48a82 82 0 0 1-1.13-7.87c-.65-6.28-2.13-12.38-3.53-18.52l-.8-3.61c-2.14-9.53-2.14-9.53-3.42-13.8a39 39 0 0 1-1.4-7.85l-.23-2.58L225 384l-.5-4.56a193 193 0 0 0-.79-6.44c-2.93-21.79-2.93-21.79 1.9-29.45a23.7 23.7 0 0 1 13.64-7.67c3.93-.18 6.66.71 10.25 2.27l3.2 1.38q9.62 4.26 19.21 8.63c11.25 5.03 18.62 7.05 30.3 2.62l6.77-2.68A39 39 0 0 1 319 346l4.79-1.39c10.25-2.81 20.57-4.83 31.21-4.61l.73-1.72c1.53-2.75 3.39-4.59 5.65-6.78l2.33-2.28 4.48-4.34c2.04-2.11 3.32-4.36 4.81-6.88q1.47-1.53 3-3l1.76-2.3a53 53 0 0 1 7.68-7.39l2.81-2.32c3.89-2.82 7.09-4.45 11.94-3.87 3.81.88 3.81.88 5.06 2.82L406 304l1.81.81c4.53 2.46 6.78 6.93 8.31 11.69l.88 3.5q1.47 3.51 3 7c3.43 8.59 5.7 17.51 8.14 26.42 1.17 4.24 2.42 8.42 3.86 12.58l2.88-1.25a115 115 0 0 1 6.21-2.52c8.05-3.01 15.47-7.14 23.01-11.22q2.47-1.3 4.98-2.54c3.38-1.7 6.65-3.57 9.92-5.47 14.58-8.42 14.58-8.42 22-12 4.25-2.08 8.39-4.3 12.52-6.62q3.94-2.18 7.92-4.32 5.49-2.98 10.81-6.25a60 60 0 0 1 8.44-4.43c2.99-1.25 5.7-2.7 8.49-4.34 3.2-1.83 6.51-3.42 9.82-5.04l3.12-1.56 5.82-2.88c2.76-1.41 5.44-2.92 8.14-4.47q4.7-2.63 9.48-5.15l1.92-1.03q5.71-3.04 11.52-5.91l3-1.5q2.9-1.46 5.81-2.88c2.59-1.31 5.1-2.69 7.63-4.12 3.76-2.11 7.57-3.85 11.56-5.5l5.38-2.44q7.29-3.32 14.62-6.56l2.31-1.03 4.58-2.03 5.55-2.5c3.67-1.49 7.35-2.59 11.15-3.69 2.41-.75 2.41-.75 5.91-2.25a91 91 0 0 1 10.89-3.68 82 82 0 0 0 7.73-2.94c4.38-1.81 8.17-2.47 12.88-2.88q2-.46 4-1a191 191 0 0 1 20-4l3.81-.62c3.42-.41 6.75-.38 10.19-.38l3-1q2.63-.13 5.25-.13l3.09-.01 3.22.02 3.23-.02 3.09.01h2.83C772 228 772 228 774 229h3.19c4.99 0 9.45.61 14.25 2 2.68.75 4.9 1.21 7.62 1.5A45 45 0 0 1 809 235c14.43 4.47 14.43 4.47 20.88 1.81L833 235l2.06-1.1c7.73-4.15 14.86-8.51 20.94-14.9l3.44-2.75c3.51-2.95 5.81-6.31 8.2-10.2 1.36-2.05 1.36-2.05 2.84-3.44 2.16-2.29 3.19-4.77 4.52-7.61l2.19-4.6 2.37-5.02 2.38-5.04 1.05-2.24q1.94-4.02 3.97-7.99c1.65-3.25 3.22-6.49 4.6-9.86A30 30 0 0 1 896 153l1.62-2.56c5.28-7.91 11.65-14.89 18.32-21.63l1.72-1.75c4.09-4.06 4.09-4.06 6.34-4.06l.77-1.84c1.39-2.43 2.47-3.25 4.85-4.66l2.17-1.28q4.04-2.24 8.22-4.25 1.98-.96 3.92-2c5.18-2.75 10.43-4.41 16.07-5.97l3.38-1.06c19.88-5.15 41.07-4.15 59.62 5.06" fill="#B9BBB9"/><path d="m683 502 .7 2.1c12.04 35.98 27.18 62.49 54.52 88.93 20.31 19.69 20.31 19.69 20.98 32.84q-.02 2-.08 4.01l-.02 2.08-.1 5.04-2.09.26-2.85.43-2.77.38c-3.07.87-4.66 1.79-7.27 3.5-5.65 3.17-10.35 2.81-16.66 2.26l-7.18-.46-3.87-.28c-7.01-.5-14.03-.87-21.05-1.24l-2.28-.12c-19.5-1-39.01-1.06-58.53-1.04l-8.12-.01c-23.86-.04-47.62.69-71.44 1.98-7.59.4-15.17.6-22.77.78-52.75 1.57-105.96 8.59-157.93 17.51Q367.61 662.1 361 663a38 38 0 0 1 9.19-7.25l3.09-1.83 3.28-1.92 6.82-4.04 3.4-2.03c6.79-4.08 13.46-8.35 20.14-12.61q2.84-1.8 5.72-3.55c13.09-7.99 25.7-16.73 38.36-25.37l5-3.4 3.13-2.21a20 20 0 0 1 7.57-3.06l2.63-.55 2.79-.56c54.45-11.64 107.1-37.33 155.65-64.12a848 848 0 0 1 19.98-10.62 868 868 0 0 0 21.5-11.5l2.26-1.26C680.65 502 680.65 502 683 502" fill="#ECEEEC"/><path d="m1023 107 2.6 1.26c18.92 9.29 37.15 24.18 47.33 42.89 1.27 2.2 2.69 4.26 4.13 6.35 4.04 6.01 6.26 12.24 8.25 19.16a92 92 0 0 0 1.81 5.4c1.18 3.96 1.57 7.84 1.88 11.94l.25 3.12c-.32 3.71-1.55 6.63-3.25 9.88l-1.07 2.05c-3.31 5.82-6.95 9.43-13.25 11.84-5.56 1.5-9.89 1.28-15.11-1.2-11.28-7.41-16.56-18.6-21.57-30.69-6.53-15.36-15.57-28.76-31.7-35.29-11.56-3.57-25.45-2.89-36.3 2.29l-2.03.92c-5.82 2.91-10.26 6.84-14.9 11.33-2.36 2.28-3.91 3.7-7.07 4.75-.94 1.57-.94 1.57-2 4l-1.84 3.64-2.1 4.17-1.05 2.08A210 210 0 0 0 930 200l-1.97 4.45-1.04 2.32-2.12 4.73a227 227 0 0 0-3.99 9.37c-1.23 2.99-3.05 5.47-4.88 8.13l-1.62 2.88L913 234h-2l-.83 1.72c-3.42 6.66-7.3 11.61-13.17 16.28a192 192 0 0 0-3.5 4.06A38 38 0 0 1 884 264a274 274 0 0 0-4.25 3.38 81 81 0 0 1-12.88 8.16L865 277c0 4.01.01 4.45 2.12 7.44 3.65 5.52 6.2 11.52 8.88 17.56l.94 2.04c2.19 4.83 3.61 9.87 5.06 14.96l1.06 3.56a106 106 0 0 1 3.69 21.64c.25 2.8.25 2.8.76 4.91.68 4 .63 7.91.62 11.96l.01 2.66-.01 5.56.01 8.41c0 8.83-.12 17.52-1.14 26.3l-.5 7.06q-.5 7.39-1.32 14.76c-.18 2.18-.18 2.18-.14 4.64-.04 2.65-.52 4.95-1.04 7.54a293 293 0 0 0-.69 9.85 137 137 0 0 0-.27 10.54C883 462 883 462 882 464q-.15 4.05-.13 8.11l-.01 2.45.01 5.12-.01 7.83.01 4.98-.01 2.35c.02 3.86.28 7.4 1.14 11.16l-.06 2.44c.06 2.56.06 2.56 1 5.37a37 37 0 0 1 1.72 9.07c.45 2.82 1.43 5.4 2.34 8.12q.82 3.45 1.56 6.94l.76 3.52c.67 3.51 1.18 7.01 1.68 10.54l.47 2.28c1.02 5.24 1.62 10.55 2.31 15.85l.85 6.3c.91 6.92 1.48 13.6 1.37 20.57l.49 2.43c.51 2.56.64 4.86.64 7.46l.01 2.87-.01 3.05.01 3.17-.01 6.63.01 10.13-.01 6.45.01 3.05-.01 2.87v2.5A44 44 0 0 1 897 655l2.23.64 10.15 2.98 3.5 1.01c8.33 2.49 17.29 5.53 23.12 12.37.46 2.98.32 4.46-1.22 7.06-17.08 17.98-55.99 17.48-79.13 18.18-22.6.53-45.2-.54-67.77-1.49l-2.29-.1c-17.25-.73-34.5-1.56-51.73-2.6-73.38-4.43-147.56-6.02-220.9-.28q-4.55.35-9.09.67c-28.78 2.04-57.44 5-86.1 8.29l-2.99.34c-3.89.46-7.77.93-11.64 1.5-2.78.38-5.39.55-8.2.53l-2.66-.01-2.72-.03-2.79-.01L380 704v-1c19.74-2.56 39.52-4.8 59.31-6.94l2.46-.26c23.2-2.5 46.39-4.7 69.67-6.24l3.52-.23q11.5-.75 23.04-1.33l3.02-.16c25.68-1.27 51.41-1.13 77.1-1.15l3.68-.01c31.47-.03 62.85.23 94.26 2.13l2.23.14q10.74.65 21.47 1.38c127.32 8.52 127.32 8.52 172.24-3.33l2.28-.59c13.9-3.66 13.9-3.66 18.72-9.41.81-2.81.81-2.81 1-5l-4-2-2.71-1.37c-8.31-4.03-16.32-6.49-25.29-8.63l-8-2 .01-1.69c.16-43.24-.18-84.9-10.33-127.15l-.84-3.6q-.83-3.51-1.71-7.01c-2.63-11.34-2.55-22.46-2.44-34.05l.03-6.32c.13-18.6 1.14-37.04 2.87-55.56 4.53-48.45 7.15-97.89-19.78-140.76A10.7 10.7 0 0 1 861 275c1.77-1.52 1.77-1.52 4.25-2.81 31.14-17.24 49-42.45 62.27-74.89 8.54-20.61 20.78-37.47 41.94-46.34 11.72-4.44 24.35-4.46 35.92.49 7.02 3.24 13.35 6.79 18.62 12.55l2.13 2.3c6.15 7.4 9.52 15.44 13.21 24.25 4.17 9.89 8.58 19.86 18.23 25.52 5.67 2.16 11.14 1.69 16.81-.19 6.22-4.45 9.04-9.5 10.62-16.88 2.84-17.33-8.02-36.77-17.34-50.56-14.44-19.66-33.78-35.95-57.66-42.44l-1.87-.54c-7.07-1.81-14.05-1.79-21.32-1.77l-3.71-.05c-22.81-.01-43.83 8.66-61.1 23.36l-2.27 1.86c-15.89 13.49-24.8 32.32-33.4 50.89-9.2 19.77-9.2 19.77-16.33 28.25l-2.45 3.15c-9.47 12-21.04 20.72-34.55 27.85l-1.95 1.12c-8.13 4.25-17.59.36-25.75-2.13-14.46-4.3-28.16-5.48-43.17-5.38q-4.49.01-8.98-.02c-12.02-.01-23.38.97-35.15 3.41l-3.15.63c-27.43 5.81-53.54 16.52-78.85 28.37l-2.97 1.38a1238 1238 0 0 0-41.97 20.74l-2.46 1.26a779 779 0 0 0-28.52 15.24 274 274 0 0 1-13.46 7.07c-11.15 5.49-22.05 11.46-33 17.36l-10.43 5.61-6.57 3.53-3.24 1.74q-7.57 4.07-15.09 8.23a549 549 0 0 1-31.7 16.36C435 369 435 369 429 369l-.62-2.25C413.23 312.24 413.23 312.24 403 304c-3.11-1.55-5.56-1.29-9-1-8.3 4.87-15.05 12.35-20.94 19.88L369 328l-1.3 1.65c-6.38 7.98-11.03 12.78-21.57 14.05-4.6.64-9.14 1.67-13.69 2.61l-3.12.64c-11.35 2.37-22.75 5.27-33.44 9.79-6.65 2.51-12.43-.11-18.63-2.8l-2.19-.93-4.63-1.97q-5.07-2.17-10.16-4.29l-7.22-3.05-2.15-.9q-2.35-.99-4.7-2.01A20 20 0 0 0 236 340c-5 2.45-6.95 4.89-9 10a67 67 0 0 0-.31 8.25l.03 2.4c.51 21.75 4.38 43.94 10.4 64.8 1.01 4.09 1.54 8.13 2.07 12.3 3.16 23.69 8.78 56.81 24.81 75.25l1.69 2.05c7.78 8.64 19.14 15.01 30.31 17.95a41 41 0 0 1-4.62 7.62l-1.57 2.06-1.69 2.2-1.75 2.28a418 418 0 0 1-15.94 19.19q-2.1 2.42-4.13 4.88a409 409 0 0 1-27.7 30.13 85 85 0 0 0-4.72 5.33c-8.35 9.63-24.06 27.49-37.17 28.58l-3.77.11c-9.5.44-18.29 2.49-24.94 9.62-5.46 8.3-6.73 15.09-6 25 2.46 7.12 7.39 10.98 13.94 14.2 10.08 3.9 24.77 3.36 34.56-.91 4.55-2.34 9.06-4.74 13.5-7.29l2-1-.66 1.84c-2.3 6.93-4.2 13.8-1.22 20.79A83 83 0 0 0 228 704c-3.37-.6-3.91-.89-6.25-3.69-3-5.58-2.06-12.18-1.75-18.31l-2.38 1.24-3.18 1.64-3.13 1.61c-9.89 4.51-21.31 5.23-31.87 2.63-8.58-3.32-16.19-8.79-20.44-17.12-1.98-6.2-2.43-10.81 0-17l.88-2.56c4.39-9.52 12.54-16.24 22.36-19.86 3.33-.7 6.3-.56 9.7-.39 7.73.25 12.2-2.35 18.06-7.19q2.57-2.44 5-5 2-1.55 4.03-3.05c5.38-4.15 10.13-8.82 14.91-13.64l2.57-2.55 2.45-2.46 2.21-2.21A24 24 0 0 0 245 590c1.95-1.89 1.95-1.89 4.25-3.81 4.79-4.15 9.06-8.35 12.31-13.81 2.25-3.72 5.42-6.42 8.56-9.38 1.88-2 1.88-2 3.22-4.28a70 70 0 0 1 6.1-8.22c8.68-10.46 8.68-10.46 11.56-15.5l-2.12-.81C274.85 528.4 262.73 519.16 255 506l-1.69-2.69-2.87-5.06c-1.5-3.38-2.19-6.49-2.9-10.09-.54-2.16-.54-2.16-2.1-5.22-1.48-3.03-1.82-5.54-2.13-8.87a25 25 0 0 0-1.81-6.07c-1.63-4.03-2.08-7.68-2.5-12-.51-2.76-1.11-5.49-1.72-8.23l-.78-3.52-.78-3.48a82 82 0 0 1-1.13-7.87c-.65-6.28-2.13-12.38-3.53-18.52l-.8-3.61c-2.14-9.53-2.14-9.53-3.42-13.8a39 39 0 0 1-1.4-7.85l-.23-2.58L225 384l-.5-4.56a193 193 0 0 0-.79-6.44c-2.93-21.79-2.93-21.79 1.9-29.45a23.7 23.7 0 0 1 13.64-7.67c3.93-.18 6.66.71 10.25 2.27l3.2 1.38q9.62 4.26 19.21 8.63c11.25 5.03 18.62 7.05 30.3 2.62l6.77-2.68A39 39 0 0 1 319 346l4.79-1.39c10.25-2.81 20.57-4.83 31.21-4.61l.73-1.72c1.53-2.75 3.39-4.59 5.65-6.78l2.33-2.28 4.48-4.34c2.04-2.11 3.32-4.36 4.81-6.88q1.47-1.53 3-3l1.76-2.3a53 53 0 0 1 7.68-7.39l2.81-2.32c3.89-2.82 7.09-4.45 11.94-3.87 3.81.88 3.81.88 5.06 2.82L406 304l1.81.81c4.53 2.46 6.78 6.93 8.31 11.69l.88 3.5q1.47 3.51 3 7c3.43 8.59 5.7 17.51 8.14 26.42 1.17 4.24 2.42 8.42 3.86 12.58l2.88-1.25a115 115 0 0 1 6.21-2.52c8.05-3.01 15.47-7.14 23.01-11.22q2.47-1.3 4.98-2.54c3.38-1.7 6.65-3.57 9.92-5.47 14.58-8.42 14.58-8.42 22-12 4.25-2.08 8.39-4.3 12.52-6.62q3.94-2.18 7.92-4.32 5.49-2.98 10.81-6.25a60 60 0 0 1 8.44-4.43c2.99-1.25 5.7-2.7 8.49-4.34 3.2-1.83 6.51-3.42 9.82-5.04l3.12-1.56 5.82-2.88c2.76-1.41 5.44-2.92 8.14-4.47q4.7-2.63 9.48-5.15l1.92-1.03q5.71-3.04 11.52-5.91l3-1.5q2.9-1.46 5.81-2.88c2.59-1.31 5.1-2.69 7.63-4.12 3.76-2.11 7.57-3.85 11.56-5.5l5.38-2.44q7.29-3.32 14.62-6.56l2.31-1.03 4.58-2.03 5.55-2.5c3.67-1.49 7.35-2.59 11.15-3.69 2.41-.75 2.41-.75 5.91-2.25a91 91 0 0 1 10.89-3.68 82 82 0 0 0 7.73-2.94c4.38-1.81 8.17-2.47 12.88-2.88q2-.46 4-1a191 191 0 0 1 20-4l3.81-.62c3.42-.41 6.75-.38 10.19-.38l3-1q2.63-.13 5.25-.13l3.09-.01 3.22.02 3.23-.02 3.09.01h2.83C772 228 772 228 774 229h3.19c4.99 0 9.45.61 14.25 2 2.68.75 4.9 1.21 7.62 1.5A45 45 0 0 1 809 235c14.43 4.47 14.43 4.47 20.88 1.81L833 235l2.06-1.1c7.73-4.15 14.86-8.51 20.94-14.9l3.44-2.75c3.51-2.95 5.81-6.31 8.2-10.2 1.36-2.05 1.36-2.05 2.84-3.44 2.16-2.29 3.19-4.77 4.52-7.61l2.19-4.6 2.37-5.02 2.38-5.04 1.05-2.24q1.94-4.02 3.97-7.99c1.65-3.25 3.22-6.49 4.6-9.86A30 30 0 0 1 896 153l1.62-2.56c5.28-7.91 11.65-14.89 18.32-21.63l1.72-1.75c4.09-4.06 4.09-4.06 6.34-4.06l.77-1.84c1.39-2.43 2.47-3.25 4.85-4.66l2.17-1.28q4.04-2.24 8.22-4.25 1.98-.96 3.92-2c5.18-2.75 10.43-4.41 16.07-5.97l3.38-1.06c19.88-5.15 41.07-4.15 59.62 5.06" fill="#E6E6E7"/><path d="M252.65 347.32A136 136 0 0 1 281 366c-.5 4.14-2.58 5.7-5.69 8.31a71 71 0 0 0-8.8 8.75q-1.25 1.45-2.5 2.94h-2l-.76 2.19C260 391 260 391 258.1 393.35c-7.52 9.47-10.22 21.16-13.1 32.65l-4-1-.52-2-2.36-9.06-.8-3.15q-.41-1.51-.8-3.08l-.8-3.01a154 154 0 0 0-1.86-6.36c-1.3-5.01-1.64-10.05-2.07-15.2-.2-2.05-.49-4.1-.79-6.14l-2-1-1 5h-1a249 249 0 0 1-1.19-22.69l-.04-2.39q.02-2.97.23-5.92l2-2h3l1-2c6.54-4.71 14.11-1.61 20.65 1.32" fill="#272826"/><path d="M399 302c5.6 1.76 8.79 5.03 11.83 9.99 4.03 8.14 7.22 16.3 9.92 24.98q.95 3.09 1.95 6.17c1.77 5.59 3.46 11.04 4.3 16.86h-2l1 17c-5.47-4.49-5.47-4.49-7-6v-2h-3l-2.27-2.27c-9.47-9.45-24.37-12.63-37.08-14.98-3.63-.75-7.1-1.69-10.65-2.75.57-4.02 1.9-6.56 4-10l3.12-6.06c4.92-9.15 10.85-17.52 18.57-24.54C393 307 393 307 394 304h5z" fill="#252623"/><path d="M809 572c16.28 9.74 29.99 23.4 35 42 2.28 9.56 2.48 19.22 2 29-1.57 1.57-3.26 1.15-5.44 1.25-6.7.59-11.9 3.55-17.58 6.96-3.53 1.41-6.45-.15-9.98-1.21l.21-2.88c.67-9.51.98-18.98.98-28.51l.03-6.72c.05-11.56-.35-23.13-4.63-34.02C809 576 809 576 809 572" fill="#EBECEC"/><path d="M880 452h2c1.13 6.39 1.13 6.39.54 9.21-.72 3.73-.68 7.41-.67 11.2l-.01 2.43.01 5.07-.01 7.74.01 4.94-.01 2.33c.02 3.83.28 7.35 1.14 11.08l-.06 2.44c.06 2.56.06 2.56 1 5.37a37 37 0 0 1 1.72 9.07c.45 2.82 1.43 5.4 2.34 8.12q.82 3.45 1.56 6.94l.76 3.52c.67 3.51 1.18 7.01 1.68 10.54l.47 2.28c1.02 5.24 1.62 10.55 2.31 15.85l.85 6.3c.91 6.92 1.48 13.6 1.37 20.57l.49 2.43c.51 2.56.64 4.86.64 7.46l.01 2.87-.01 3.05.01 3.17-.01 6.63.01 10.13-.01 6.45.01 3.05-.01 2.87v2.5A44 44 0 0 1 897 655l2.23.64 10.15 2.98 3.5 1.01c8.33 2.49 17.29 5.53 23.12 12.37.46 2.98.32 4.46-1.22 7.06-17.08 17.98-55.99 17.48-79.13 18.18-22.6.53-45.2-.54-67.77-1.49l-2.29-.1c-17.25-.73-34.5-1.56-51.73-2.6-73.38-4.43-147.56-6.02-220.9-.28q-4.55.35-9.09.67c-28.78 2.04-57.44 5-86.1 8.29l-2.99.34c-3.89.46-7.77.93-11.64 1.5-2.78.38-5.39.55-8.2.53l-2.66-.01-2.72-.03-2.79-.01L380 704v-1c19.74-2.56 39.52-4.8 59.31-6.94l2.46-.26c23.2-2.5 46.39-4.7 69.67-6.24l3.52-.23a1468 1468 0 0 1 26.06-1.49c25.68-1.27 51.41-1.13 77.1-1.15l3.68-.01c31.47-.03 62.85.23 94.26 2.13l2.23.14q10.74.65 21.47 1.38c127.32 8.52 127.32 8.52 172.24-3.33l2.28-.59c13.9-3.66 13.9-3.66 18.72-9.41.81-2.81.81-2.81 1-5l-4-2-2.71-1.37c-8.31-4.03-16.32-6.49-25.29-8.63l-8-2 .01-1.69c.16-43.24-.18-84.9-10.33-127.15l-.84-3.61q-.83-3.48-1.71-6.95c-2.54-10.78-2.52-21.34-2.41-32.37q.04-4.78.05-9.55 0-3.08.03-6.14l.01-2.85c.06-5.31.42-10.43 1.19-15.69" fill="#E9EAEA"/><path d="M259.75 342.88c25.52 11.54 25.52 11.54 33.25 11.12h3l2 2c-6.16 2.56-10.52 1.9-16.73-.35q-2.02-.84-4.02-1.71l-2.19-.93-4.63-1.96q-5.07-2.17-10.16-4.3-3.62-1.52-7.22-3.06c-.36-.13-.36-.13-2.15-.88q-2.35-1.02-4.7-2.01a20 20 0 0 0-10.2-.8c-5 2.45-6.95 4.9-9 10a67 67 0 0 0-.31 8.25l.03 2.4c.51 21.75 4.38 43.95 10.4 64.8a106 106 0 0 1 2.07 12.3c3.16 23.7 8.78 56.8 24.81 75.25l1.69 2.06c7.78 8.63 19.14 15 30.31 17.94a41 41 0 0 1-4.62 7.62l-1.57 2.06-1.68 2.2-1.76 2.27a423 423 0 0 1-15.94 19.2q-2.1 2.43-4.13 4.88a411 411 0 0 1-27.7 30.13 92 92 0 0 0-4.73 5.32c-8.34 9.64-24.05 27.5-37.16 28.6l-3.77.1c-9.5.45-18.29 2.5-24.94 9.62-5.46 8.3-6.73 15.1-6 25 2.46 7.12 7.39 10.99 13.94 14.2 10.08 3.9 24.77 3.36 34.56-.91 4.55-2.35 9.06-4.74 13.5-7.3l2-1-.66 1.85c-2.3 6.92-4.2 13.8-1.21 20.78 1.2 2.2 2.47 4.3 3.87 6.38-3.37-.6-3.91-.88-6.25-3.68-3-5.59-2.06-12.2-1.75-18.33l-2.38 1.25-3.18 1.63-3.13 1.63c-9.89 4.5-21.31 5.23-31.87 2.63-8.58-3.32-16.19-8.8-20.44-17.13-1.98-6.2-2.43-10.8 0-17l.87-2.57c4.4-9.5 12.55-16.23 22.37-19.84 3.33-.72 6.3-.57 9.7-.4 7.73.25 12.2-2.35 18.06-7.2q2.57-2.43 5-5 2-1.54 4.03-3.05c5.38-4.13 10.13-8.8 14.91-13.62l2.57-2.56 2.45-2.45 2.21-2.22a24 24 0 0 0 3.83-6.1c1.95-1.88 1.95-1.88 4.25-3.8 4.79-4.15 9.06-8.35 12.31-13.82 2.25-3.7 5.42-6.41 8.57-9.37 1.87-2 1.87-2 3.21-4.28a70 70 0 0 1 6.1-8.23c8.68-10.46 8.68-10.46 11.56-15.5l-2.13-.8c-14.02-5.8-26.14-15.03-33.87-28.2l-1.69-2.68L252 501l-1.56-2.75c-1.5-3.37-2.19-6.49-2.9-10.09-.54-2.17-.54-2.17-2.1-5.23-1.48-3.03-1.82-5.53-2.13-8.86a26 26 0 0 0-1.81-6.07c-1.63-4.02-2.08-7.69-2.5-12-.51-2.76-1.11-5.5-1.72-8.24l-.78-3.5-.78-3.5a81 81 0 0 1-1.13-7.87c-.65-6.26-2.13-12.37-3.53-18.51l-.8-3.6c-2.14-9.54-2.14-9.54-3.42-13.81a39 39 0 0 1-1.4-7.85l-.23-2.57-.21-2.56-.75-6.8q-.24-2.1-.54-4.2c-2.92-21.75-2.92-21.75 1.9-29.44 3.61-4 7.7-6.06 12.83-7.56 7.53 0 14.57 3.78 21.31 6.88" fill="#E4E4E5"/><path d="M369 561c-.55 3.71-1.88 5.1-4.75 7.44A123 123 0 0 0 355 577a207 207 0 0 1-13.03 12.25c-1.9 1.69-3.69 3.44-5.47 5.25a122 122 0 0 1-7.44 6.94A134 134 0 0 0 321 609a158 158 0 0 1-9.61 8.89 317 317 0 0 0-7.38 6.78 279 279 0 0 1-17.1 14.94q-4.33 3.59-8.51 7.34-4.64 4.1-9.4 8.05l-2.58 2.16c-7.44 5.35-15.67 4.39-24.42 3.84a79 79 0 0 1 9.94-8.62l3.5-2.67 1.79-1.37a1505 1505 0 0 0 41.1-32.36q4.28-3.48 8.61-6.92c5.32-4.24 10.57-8.59 15.82-12.93q6.72-5.53 13.52-10.94 5.64-4.56 11.22-9.19l4.41-3.63q3.67-3.01 7.3-6.05l2.67-2.2 2.24-1.86C366 561 366 561 369 561" fill="#ECEBEF"/><path d="m411 449 2 3q-5.8 3.48-11.62 6.94l-3.32 2-3.22 1.9-2.96 1.76A25 25 0 0 1 383 467v2q-3.37 1.76-6.75 3.5l-1.92 1.01c-3.45 1.76-5.38 2.49-9.33 2.49-.47-4.58-.17-7.25 2.5-10.94L370 462l-2-1 2-3 3.25.25c4.52.21 7.8-1.55 11.69-3.63 8.13-4.31 16.7-7.27 26.06-5.62" fill="#141414"/><path d="m754.1 227.9 2.99.01 3.1.03 3.14.01 7.67.05 1 3-2.02.04c-59.52 1.44-111.06 21.36-163.51 48.27l-1.98 1.01-4.91 2.57C597 284 597 284 593 284l1-3q2.39-1.14 4.85-2.13c5.83-2.36 11.38-5.4 16.84-8.5 3.68-2.07 7.4-3.76 11.3-5.37q2.7-1.2 5.39-2.44 7.3-3.32 14.62-6.56l2.32-1.03 4.57-2.03 5.55-2.5c3.68-1.49 7.36-2.59 11.16-3.69 2.4-.75 2.4-.75 5.9-2.25a91 91 0 0 1 10.89-3.68 86 86 0 0 0 7.74-2.95c4.37-1.8 8.17-2.47 12.87-2.87q2.02-.46 4-1a189 189 0 0 1 20-4l3.82-.63c3.42-.4 6.74-.37 10.18-.37 3-1 4.98-1.12 8.1-1.1" fill="#EDEDF0"/><path d="m581 687-1 2-2.33.12c-53.47 2.88-106.68 6.51-159.9 12.61l-2.99.34c-3.89.46-7.77.93-11.64 1.5-2.78.38-5.39.55-8.2.53l-2.66-.01-2.72-.03-2.79-.01L380 704v-1c19.74-2.56 39.52-4.8 59.31-6.94l2.46-.26c23.2-2.5 46.39-4.7 69.67-6.24l3.52-.23c21.96-1.44 44.02-2.67 66.04-2.33" fill="#E5E7E6"/><path d="M357 485a27 27 0 0 1 4 3c-.63 5.66-.63 5.66-2.56 7.44-2.33 2.53-1.56 5.27-1.44 8.56-1 1-1 1-4.56 1.06L349 505l-1-5-2.88-.88C342 498 342 498 340 496c0-3.38 0-3.38 1-7 4.52-4.52 9.88-5.12 16-4" fill="#656462"/><path d="M160 660h1l.3 2.63c1.03 7.95 1.95 13.25 8.32 18.56 10.84 5.81 23.67 6.64 35.67 4.12 6.6-2.27 12.67-5.85 18.71-9.31l2-1-.66 1.84c-2.3 6.93-4.2 13.8-1.22 20.79A83 83 0 0 0 228 704c-3.37-.6-3.91-.89-6.25-3.69-3-5.58-2.06-12.18-1.75-18.31l-2.38 1.24-6.31 3.25c-9.89 4.51-21.31 5.23-31.87 2.63A43 43 0 0 1 163 678l-2.56-2.69c-2.22-5.11-1.25-9.9-.44-15.31" fill="#DCDDDE"/><path d="M885 359h1l1 5h1q.04 5.9.05 11.79l.04 5.93c.02 7.5-.29 14.83-1.09 22.28l-.5 7.06q-.5 7.39-1.32 14.76C885 428 885 428 885 430.63c0 2.6-.47 4.83-1 7.37l-.75 6q-.53 4.01-1.25 8h-2c-.36-10.82.65-21.43 1.65-32.19A753 753 0 0 0 885 359" fill="#E5E6E6"/><path d="M1012 102a39 39 0 0 1 6 3l3.38 1.44c15.05 6.49 27.21 15.86 38.62 27.56l-1 3a120 120 0 0 1-10.31-9.44c-10.2-10.24-24.76-17.79-38.69-21.56l-1.91-.53c-6.69-1.66-13.28-1.9-20.15-2.09L976 103v-1l1.99-.08a1348 1348 0 0 0 12.01-.48l2.99-.12 2.76-.11c5.89-.54 10.1-.59 16.25.79" fill="#E3E5E5"/><path d="m291 472 .7 2.27c3.31 10 3.31 10 8.3 12.73a48 48 0 0 0 6 2v1c-9.57.52-17.35-2.21-25-8-2.06-2.12-2.06-2.12-3-4l1-3c2.21-.95 2.21-.95 4.94-1.69l2.71-.76C289 472 289 472 291 472" fill="#CCB76D"/><path d="M771 228q3.25.35 6.49.72l4.64.5c4.48.49 8.55 1.55 12.87 2.78q2.03.29 4.06.5A45 45 0 0 1 809 235q4.25 1.19 8.51 2.32 2.77.76 5.49 1.68v2l3 1c-7.27-.35-13.78-1.89-20.7-4.01-14.09-4.19-27.7-5.47-42.3-5.68l-4.98-.1q-6.01-.12-12.02-.21v-1l24-1z" fill="#DBDBDE"/><path d="M886 531c2.69 3.11 3.52 5.52 4.12 9.56.46 2.97.93 5.58 1.88 8.44q.63 4.06 1.12 8.14.78 6.24 1.75 12.45c2.03 13.57 2.1 25.83.13 39.41h-1l-.03-1.8c-.44-22.77-2.18-46.07-8.33-68.08-.65-3.15-.53-5.07.36-8.12" fill="#E2E3E4"/><path d="M877 193h2c-7.68 20.33-27.14 36.36-46 46-3.57 1.58-6.08 2.22-10 2v-2l3.44-1.19c4.81-1.8 9.13-4.24 13.56-6.81l1.84-1c14.96-8.16 24.36-21.21 33.64-35.09z" fill="#E9EBEB"/><path d="M375 460c3.53 1.18 3.86 1.96 5.69 5.06L383 469q-3.37 1.76-6.75 3.5l-1.92 1.01c-3.45 1.76-5.38 2.49-9.33 2.49-.31-3.91-.43-6.28 1.62-9.69A38 38 0 0 1 375 460" fill="#E2C373"/><path d="M355 340v2l-2.46.44c-15.32 2.76-30.35 5.71-45.23 10.37l-2.76.87-2.38.77C300 355 300 355 296 355v-2c5.58-2.4 10.97-4.38 16.93-5.57 1.8-.37 3.56-.86 5.32-1.37 4.48-1.27 9-2.31 13.55-3.33q2.84-.64 5.65-1.37c5.89-1.49 11.5-1.56 17.55-1.36" fill="#EAEBED"/><path d="M892 256c-1.25 3.5-3.07 4.89-6.18 6.81a76 76 0 0 0-6.07 4.57 81 81 0 0 1-12.88 8.16L865 277c0 4.12.27 4.9 2.44 8.12 2.55 3.86 2.55 3.86 3.56 5.88-.94 2.12-.94 2.12-2 4a726 726 0 0 1-4-7.19l-1.16-2.04c-3.76-6.88-3.76-6.88-2.84-10.77 1.77-1.52 1.77-1.52 4.25-2.81 7.46-4.11 14.88-8.56 21.31-14.19 2.44-2 2.44-2 5.44-2" fill="#E5E5E6"/><path d="M245 338c5.41.58 9.7 2.48 14.56 4.75 25.61 11.67 25.61 11.67 33.44 11.25h3l2 2c-6.16 2.55-10.52 1.89-16.73-.35q-2.02-.84-4.02-1.71l-2.19-.93-4.63-1.97q-5.07-2.17-10.16-4.29l-7.22-3.05A390 390 0 0 0 244 340z" fill="#DADBDB"/><path d="M196 632v2l2 1-2.46.08c-10.3.53-20.24 2.1-27.54 9.92-5.07 7.64-7.23 14.94-8 24l-2-1c-1.4-4.9-.64-8.24 1-13l.88-2.56c4.26-9.24 12.26-15.98 21.67-19.83 4.76-1.19 9.59-.91 14.45-.61" fill="#E1E5E2"/><path d="M369 561c-.55 3.71-1.88 5.1-4.75 7.44A123 123 0 0 0 355 577l-3.81 3.81-1.83 1.83L348 584l-2-1v-3l-2-1c12.21-10.43 12.21-10.43 18.12-15.19l2.08-1.67C366 561 366 561 369 561" fill="#EAEDEC"/><path d="M895 595c2.12 1.7 2.93 2.57 3.37 5.3l-.01 2.73.01 3.11-.04 3.35-.01 3.45q0 3.62-.04 7.23-.04 5.52-.05 11.05l-.03 7.02-.01 3.34-.03 3.13-.02 2.73A45 45 0 0 1 897 655c-2-2-2-2-2.24-4.44l.01-3.11v-3.52l.03-3.81.01-3.9.05-10.24.04-10.46q.03-10.26.1-20.52" fill="#F0F1F2"/><path d="M242 458c2 3.01 2.67 5.06 3.55 8.52l.86 3.33.9 3.53c2.19 8.38 4.46 16.5 7.84 24.5.85 2.12.85 2.12.85 4.12-3.89-1.48-5.25-3.26-7-7a133 133 0 0 1-1.46-6.8c-.54-2.2-.54-2.2-2.1-5.26-1.48-3.03-1.83-5.53-2.12-8.86a24 24 0 0 0-2.01-6.2c-1.31-3.19-1.33-3.78-.5-7.38z" fill="#DEDEE0"/><path d="M715 236v1l-3.75.81c-14.08 3.15-27.63 7.42-41.25 12.19v-3c4.82-2.2 9.62-3.83 14.71-5.31 3.34-1 6.48-2.33 9.67-3.75 3.17-1.14 6.28-1.46 9.62-1.94l2.56-1.19c3.35-1.11 5.26-.14 8.44 1.19" fill="#EEEDF0"/><path d="M883 404h1l1.06 7.88.32 2.26c.73 5.63.73 5.63-.38 7.86-.07 2.73 0 5.45.06 8.18A39 39 0 0 1 884 438l-.75 6q-.53 4.01-1.25 8h-2c-.25-10.53.54-20.84 1.5-31.31l.43-4.88z" fill="#DDDDE0"/><path d="M501 574v2c-2.05 1.48-2.05 1.48-4.88 3.19a267 267 0 0 0-14.03 9.33A218 218 0 0 1 477 592v3l-11 1c1.31-3.93 2.73-4.24 6.32-6.18l3.31-1.82 3.49-1.88c12.81-6.94 12.81-6.94 17.06-10.07C499 574 499 574 501 574" fill="#050605"/><path d="M245 337v2l-1.76.08c-5.44.39-9.01 1.19-13.24 4.92-3.91 5.75-3.77 12.15-4.19 18.88l-.25 3.53q-.3 4.29-.56 8.59h-1c-3.36-23.52-3.36-23.52 1.61-31.45 3.73-4.14 7.82-6.19 13.2-7.43C242 336 242 336 245 337" fill="#ECEDEC"/><path d="M998 101v1l-1.78.04c-10.92.31-21.38.76-32.03 3.34-3.46.67-6.67.72-10.19.62 3.78-3.61 8.04-4.1 13-5l2.83-.57c9.5-1.78 18.94-2.79 28.17.57" fill="#F2F2F4"/><path d="m234 603 2 2a247 247 0 0 1-17 16l-2.92 2.52c-10.92 9.33-10.92 9.33-16.08 11.48-2.19-.92-2.19-.92-4-2l1.91-.88A71 71 0 0 0 219 617q1.93-1.7 3.88-3.38c3.89-3.36 7.53-6.93 11.12-10.62" fill="#E0E2E1"/><path d="M325 471a38 38 0 0 1 3 3 60 60 0 0 1-8-2q-3.75-.12-7.51-.1l-2.21.01-6.97.03-4.73.01L287 472c1-2 1-2 2.65-2.63 11.24-2.42 24.77-3.38 35.35 1.63" fill="#030404"/><path d="m240 338.81 2.12-.04C244 339 244 339 246 341l-1 2 3 1v2l-1.5-.5c-4.47-.9-10.24-1.38-14.5.5l-1 3h-3c.3-3.58.74-4.76 3.44-7.25 3.15-2.16 4.8-2.9 8.56-2.94" fill="#151616"/><path d="M958 106a38 38 0 0 1-8.25 4.06c-7.76 3.17-14.66 7.52-21.75 11.94l-5 3-1-2h2l.77-1.84c1.39-2.43 2.47-3.25 4.85-4.66l2.17-1.28q4.07-2.24 8.28-4.24c1.89-.96 3.6-2.07 5.37-3.23 4.41-2.17 7.75-2.14 12.56-1.75" fill="#E5E6E8"/><path d="M291 476c2 2 2 2 3.25 4.88 2.68 4.78 6.88 6.87 11.75 9.12-8.68.47-15.37-1.89-23-6 3-2 3-2 5.12-2.88 1.88-1.12 1.88-1.12 2.63-3.24z" fill="#DBBC67"/><path d="M971 153c-2 2-2 2-4.79 3.39-8.11 4.06-15.11 9.95-21.21 16.61l-2-1c5.02-9.19 16.7-20.45 28-19" fill="#ECECED"/><path d="M880 452h2c.78 4.43.89 7.64 0 12q-.32 3.85-.54 7.71l-.13 2.2-.39 6.9-.28 4.7L880 497h-1l-.05-15.37-.03-5.22-.02-7.53-.01-2.33c0-4.94.41-9.66 1.11-14.55" fill="#F0F1F3"/><path d="M809 572a123 123 0 0 1 16 12l-2 2-1-3-1.9.51-2.48.61-2.46.64-2.16.24c-2.72-2.72-3.11-5.3-4-9z" fill="#E5E7E5"/><path d="m414 449-1 3-2-2c-11.05-1.66-21.03 2.67-30.47 7.89C378 459 378 459 375 458c10.55-8.59 25.8-14.28 39-9m-3 3 2 1h-3z" fill="#030504"/><path d="M235 430h2q1.27 5.5 2.5 11l.72 3.12c1.29 5.77 2.06 10.97 1.78 16.88-3.16-2.53-3.54-4.68-4.06-8.62-.55-3.8-1.14-7.52-2-11.26-.77-3.36-1.51-6.69-1.94-10.12z" fill="#E8E8E9"/><path d="m371.75 463.69 2.25.3v2h2v4c-3.63 2.98-5.25 4-10 4-.75-2.18-.75-2.18-1-5 1.93-3.33 2.82-4.85 6.75-5.3" fill="#E2C16A"/><path d="M846 228v3c-6.25 4.97-14.7 10.75-23 10v-2l3.44-1.19a78 78 0 0 0 11.44-5.6c2.65-1.51 5.37-2.87 8.12-4.21" fill="#E2E1E5"/><path d="M247 477a26 26 0 0 1 3.47 7.09l.79 2.38.8 2.47.82 2.46c1.15 3.51 2.26 7 3.12 10.6a12 12 0 0 1-5.62-3.94c-2.97-6.6-3.7-13.88-3.38-21.06" fill="#D0D2D1"/><path d="m876 689 1 3h6v1q-4.68.37-9.38.69l-2.69.22-2.58.16-2.38.18L864 694l-2-3c4.84-1.34 8.93-2.25 14-2" fill="#BBBBBD"/><path d="M757.33 227.7a147 147 0 0 1 4.92.12l2.55.04 6.2.14 1 3h-23c4.5-3.37 4.5-3.37 8.33-3.3" fill="#F3F6F4"/><path d="M771 228q2.13.18 4.25.38l2.39.21A19 19 0 0 1 784 231v1h-38v-1l24-1z" fill="#BABBBC"/><path d="m811.7 235.33 2.86.92 2.88.89 2.56.86 3 1v2l3 1c-7.3-.46-14-1.88-21-4 2.4-2.28 3.32-3.08 6.7-2.67" fill="#DADADF"/><path d="m272 561 1 3-4.69 5.19-2.63 2.92q-3.75 4.03-7.68 7.89c.97-6.33 5.54-10.76 10-15l2.31-2.31z" fill="#E0E2E1"/><path d="M245 337v2l-1.76.08c-5.47.4-8.9 1.3-13.24 4.92-1.88 2.25-1.88 2.25-3 4-.5-2.69-.5-2.69 0-6 4.86-4.67 11.46-7.18 18-5" fill="#DFE1DE"/><path d="M886 531c2.68 3.1 3.55 5.53 4.19 9.56l.48 2.88C891 546 891 546 891 549h-3q-.8-3.09-1.56-6.19l-.88-3.48c-.54-3.21-.44-5.23.44-8.33" fill="#E4E3E6"/><path d="m1004.63 100.94 2.48.59 1.9.47v2l-33-1v-1l1.98-.07 8.88-.37 3.13-.11q1.48-.08 3-.13l2.75-.11c7.25-.66 7.25-.66 8.88-.27" fill="#C4C5C6"/><path d="M993 148v1h-12v2c-4.65 2.4-8.91 2.2-14 2 6.32-6.32 17.75-5.35 26-5" fill="#C8CBC8"/><path d="M976 102c-6.6 3.68-14.56 4.33-22 4 3.76-3.6 8.08-4.06 13-5l2.81-.75c2.68-.31 3.94.34 6.19 1.75" fill="#ECECEE"/><path d="M282 476h6v2h2l1-2c-.25 2.38-.25 2.38-1 5-1.88 1.38-1.88 1.38-4 2l-3-1 1-2h-2z" fill="#E7C35E"/><path d="M520 324c-3.72 3.11-7.92 5.07-12.25 7.19l-2.26 1.11L500 335c1.89-4.44 4.84-5.89 9-8l3.12-1.75A14 14 0 0 1 520 324" fill="#E0E1E2"/><path d="m372 655 3 1-1 4q-2.68.8-5.38 1.56l-3.02.88c-2.6.56-2.6.56-4.6-.44l4.38-2.94 2.46-1.65C370 656 370 656 372 655" fill="#E2E3E3"/><path d="M160 660h1l.3 2.63c1.09 8.41 2.28 13.6 8.7 19.37-3 0-3 0-4.79-1.57l-1.83-2.12-1.86-2.07c-2.67-3.93-2.7-7.46-2.08-12.05l.31-2.4z" fill="#DCDCDD"/><path d="m415 329 1 3h3c3.44 9.41 3.44 9.41 3 14l-2 1-1.94-6.19-1.09-3.48A79 79 0 0 1 415 329" fill="#1A1A1B"/><path d="m861 215 2 2-5.19 4.81-2.92 2.71A45 45 0 0 1 847 230c.38-2.38.63-3.67 2.45-5.31l1.8-1.13A50 50 0 0 0 860 216z" fill="#E1E0E2"/><path d="M715 236v1q-3.93.83-7.88 1.62l-2.26.49q-2.92.55-5.86.89l-2-2c11.47-4.87 11.47-4.87 18-2" fill="#E7E6E7"/><path d="M917 220h4a192 192 0 0 1-4.62 8.75l-1.36 2.42L914 233h-3c1.86-4.42 3.81-8.73 6-13" fill="#E5E4E7"/><path d="m327 475 5 5-1 3c-2.07.95-2.07.95-4.56 1.69l-2.51.76-1.93.55 1-2h2z" fill="#ADA278"/><path d="M396 299c5.43.35 5.43.35 8 1a13 13 0 0 1 2 4q2 1.02 4 2l1 3-2 2-.88-2.19c-3.15-4.17-7.41-5.73-12.12-7.81z" fill="#E4E4E6"/><path d="M399 301v1l-1.72.41c-6.39 1.78-10 4.57-14.28 9.59l-2-2c10.4-10.94 10.4-10.94 18-9" fill="#D9D9DC"/><path d="m845 691 8.31-.12 2.38-.06 2.3-.02 2.11-.03c1.9.23 1.9.23 4.9 2.23-1 1-1 1-2.77 1.11l-2.27-.01-2.45-.01-2.57-.03-2.59-.01L846 694z" fill="#AAADAD"/><path d="M925 203c1.17 1.61 1.17 1.61 2 4-1.01 2.98-1.01 2.98-2.69 6.19l-1.63 3.23C921 219 921 219 918 220a653 653 0 0 1 5.98-14.55z" fill="#D8D6DA"/><path d="M246 657h3v2h10v2h-17z" fill="#C9CCCB"/><path d="M883 404h1l1.06 7.88.32 2.26c.73 5.63.73 5.63-.38 7.86h-2l-1 3z" fill="#D4D4D6"/><path d="m885 346 3 2c.28 2.73.37 5.21.31 7.94l.01 2.21c-.04 3.8-.17 5.62-2.32 8.85-1.1-7.02-1.1-13.91-1-21" fill="#F1F1F4"/><path d="m1082 174 3 1c1.02 2.14 1.02 2.14 1.81 4.81l.83 2.65c.41 2.93-.07 4.09-1.64 6.54-1.81-3.2-2.52-6.13-3.12-9.75l-.51-2.98z" fill="#DEE1DC"/><path d="M369 561c-.18 2.38-.7 3.7-2.4 5.38A178 178 0 0 1 362 570v-3l-2-1c5.62-5 5.62-5 9-5" fill="#D7D9D7"/><path d="m951 162 3 1-2.81 3.31-1.58 1.87A91 91 0 0 1 945 173l-2-1c2.16-3.98 4.71-6.89 8-10" fill="#E5E8E5"/><path d="M378 468h5a52 52 0 0 1-9 5.69l-2.56 1.32C369 476 369 476 365 476v-5l1 3 3.19-1.44A35 35 0 0 1 378 470z" fill="#E3CB8E"/><path d="M332 472v6h2v5l-2 1-1.44-3.44C329 477 329 477 328 476l-2 4v-6c4.88-2 4.88-2 6-2" fill="#1C1709"/><path d="m1051 126 3.38 2.75 1.89 1.55a16 16 0 0 1 3.73 5.7c-3 0-3 0-4.82-1.53l-1.87-1.97-1.88-1.97L1050 129z" fill="#D9D9D9"/><path d="m234 603 2 2-4.19 4.38-2.35 2.46A19 19 0 0 1 222 616a172 172 0 0 1 12-13" fill="#CED0CE"/><path d="M422 348h2c1.42 3.82 2.24 6.91 2 11h-3l-1.06-4.38-.6-2.46C421 350 421 350 422 348" fill="#1B1F1C"/><path d="M892 256c-1.78 4.97-5.9 6.9-10.38 9.25L880 266c2.51-4.87 6.12-10 12-10" fill="#EBEAEB"/><path d="M894 648h1l1 8 7 1 1 3-10-2z" fill="#DCDEDC"/><path d="M384 312v3q-2.44 2.07-5 4a262 262 0 0 0-5 5l-2-1 3.75-4.38 2.11-2.46c2-2.02 3.54-3.09 6.14-4.16" fill="#191A1C"/><path d="m867 271 4 2-1.68 1.02a307 307 0 0 1-4.37 2.69C863 278 863 278 861 280c-.38-2.25-.38-2.25 0-5 3-2.31 3-2.31 6-4" fill="#DEDFDE"/><path d="M881 501c2 2 2 2 2.16 3.88l-.1 2.12c-.16 3.8-.16 3.8.94 6l-1 2h-2c-.99-2.98-1.13-5.02-1.12-8.12l-.01-2.7C880 502 880 502 881 501" fill="#F0EFF2"/><path d="m467 349 3 3-13 6c1.99-3.98 2.53-4.66 6.12-6.75l2.2-1.3z" fill="#E0DEE3"/><path d="M379 647v3h-2v3c-5.62 3-5.62 3-9 3v-3l2.25-.25c3.29-.9 4.5-2.26 6.75-4.75z" fill="#18171A"/><path d="m191.13 631.94 2.75.03 2.13.03v2l2 1h-14v-2c2.52-1.26 4.3-1.1 7.12-1.06" fill="#F0F3F1"/><path d="M1087 187c1.78 3.06 2.23 5.22 2.12 8.75l-.05 2.42-.07 1.83h-3l-.06-5.94-.04-3.34c.1-2.72.1-2.72 1.1-3.72" fill="#F1F0F2"/><path d="m159 655 2 1-1 13-2-1c-1.39-4.88-.61-8.26 1-13" fill="#EFF2EF"/><path d="m378 473-2 1v6h-2l-1-4-4-1c5.62-3.12 5.62-3.12 9-2" fill="#241811"/><path d="M421 699c-2.88 2.88-6.09 2.85-10 3a66 66 0 0 1-7-1v-1c5.72-.83 11.22-1.12 17-1" fill="#DEE1DE"/><path d="m370 458 8 1c-1.4 2.8-3.13 2.95-6 4l-2 1v-2l-2-1z" fill="#282318"/><path d="M488 692v1h-5v2l-12-1v-1c5.72-.83 11.22-1.12 17-1" fill="#DEE1DD"/><path d="m169 682 1.79.62c4.05 1.38 7.98 2.7 12.21 3.38-1.56 1.12-1.56 1.12-4 2-3.94-.83-6.65-1.76-10-4z" fill="#E1E3E1"/><path d="m295 484 3.25 1.88c2.55 1.45 5.1 2.85 7.75 4.12-4.52.08-8.59.1-13-1l3-1z" fill="#A5986C"/><path d="M234 421h2c2.28 8.04 2.28 8.04 1 12v-3h-2c-1.48-2.96-1.06-5.74-1-9" fill="#CFD0CF"/><path d="M228 393c2.57 3.86 3.14 5.12 2.56 9.62l-.31 2.48-.25 1.9h-1c-1.51-5.16-2.34-8.66-1-14" fill="#E4E7E4"/><path d="M808 235v2q-2.44-.17-4.88-.38l-2.74-.21C798 236 798 236 796 234c4.52-1.37 7.59-.47 12 1" fill="#EBEBEF"/><path d="M911 230c1 3 1 3-.69 6.56-1.71 2.83-3.07 4.4-6.31 5.44a81 81 0 0 1 4.62-8.25l1.36-2.14z" fill="#D6D8D8"/><path d="m346 577 5 2-2 4h-3v-3l-2-1z" fill="#DADDDF"/><path d="M883 422h1l1 11-3 2q-.04-2.4-.06-4.81l-.04-2.71c.1-2.48.1-2.48 1.1-5.48" fill="#F1F1F3"/><path d="m227 348 5 1v6l-4 1z" fill="#202022"/><path d="M877 193h2a53 53 0 0 1-5 10l-2-2c3.88-6.88 3.88-6.88 5-8" fill="#DDE0DE"/><path d="M981 149h15v1h-10v2h-5z" fill="#F4F6F4"/><path d="m383.63 461.88 2.38.12v2h-2q-.5 1.95-1 4l-4-4c2-2 2-2 4.62-2.12" fill="#251911"/><path d="m549.19 306.38 1.8.62c-2.34 2.73-4.61 3.81-8 5 .32-1.87.32-1.87 1-4 3-2 3-2 5.2-1.62" fill="#E4E3E7"/><path d="M235 430h2c1.28 3.85 1.07 6.95 1 11-1.5-1.19-1.5-1.19-3-3-.19-2.5-.19-2.5 0-5z" fill="#EFEFEF"/><path d="m296.31 354.38 1.7 1.62c-3.63 1.31-6.1 2-10 2 1-3 1-3 3.3-4.37 2.7-.63 2.7-.63 5 .75" fill="#D0D1D1"/><path d="M915 219c.69 1.62.69 1.62 1 4-1.44 3.25-1.44 3.25-3 6l-3-4h2l.94-2.44C914 220 914 220 915 219" fill="#171819"/><path d="M1073 218c-1 2-1 2-3.31 3.19-2.81.85-3.99.81-6.69-.19v-2c3.41-.78 6.51-1.1 10-1" fill="#EFF0EF"/><path d="m928 196 4 1-4 8h-2c.49-3.12 1-6 2-9" fill="#E3E2E6"/><path d="M1031 176h2c1.62 2.75 1.62 2.75 3 6-.81 2.38-.81 2.38-2 4-3-6.62-3-6.62-3-10" fill="#DDDEDF"/><path d="M222 695a81 81 0 0 1 6 9c-1.81-.19-1.81-.19-4-1-1.81-2.38-1.81-2.38-3-5z" fill="#D2D3D6"/><path d="M372 464h2v2h2v4h-5z" fill="#F0C560"/><path d="M236 339c6.05-.2 6.05-.2 8 0l2 2c-3.7.95-6.3.95-10 0z" fill="#202022"/><path d="M245 337v2h-10v-2c6.62-1.12 6.62-1.12 10 0" fill="#EEF0EE"/><path d="m577 290 1 4-7 3v-3c3-2.19 3-2.19 6-4" fill="#ECEBEF"/><path d="M823 239v2l3 1-10-1v-2c3.01-.93 3.87-1.04 7 0" fill="#CECED0"/><path d="m831 236 1 3c-3.13 1.86-5.37 2.2-9 2v-2z" fill="#EDEDEF"/><path d="M1016 159c3.26.35 4.02 1.02 6.25 3.56L1024 165c-2.31-.19-2.31-.19-5-1-1.81-2.56-1.81-2.56-3-5" fill="#DBDCD9"/><path d="M250 495c1.88.12 1.88.12 4 1a31 31 0 0 1 2 6c-2.47-1.15-4.05-2.05-6-4z" fill="#D9DBD7"/><path d="M292 476h2v4h2a55 55 0 0 1 3 5h-3c-2.67-2.78-3.48-5.22-4-9" fill="#2B1E0B"/><path d="M425 360h2a61 61 0 0 1 1 7l-2 2c-1-1-1-1-1.1-2.85z" fill="#0B0D0C"/><path d="m418 330 4 2 1 3c-1.44 2.19-1.44 2.19-3 4z" fill="#E0E1E0"/><path d="M898 150c.69 1.62.69 1.62 1 4-1.44 3.25-1.44 3.25-3 6l-2-4z" fill="#E1E3E3"/><path d="m889 547 2 1q1.1 3.47 2 7l-3 1z" fill="#EEEEF1"/><path d="m291 472-1 6h-2v-2l-2-1v-2c3-1 3-1 5-1" fill="#DAC56F"/><path d="m316 349-2 2c-3.12-.38-3.12-.38-6-1v-2c3.4-1.22 4.93-.86 8 1" fill="#E2E3E5"/><path d="M679 246c-2.69 2.69-5.38 3.06-9 4v-3c3.35-2.11 5.22-2.05 9-1" fill="#E5E5EA"/><path d="m861 215 2 2-6 5v-4c2-1.75 2-1.75 4-3" fill="#CECECF"/><path d="m869 208 2 3c-2.78 3.08-3.81 3.95-8 5z" fill="#242626"/><path d="M1085 199c2 1 2 1 2.75 2.88.25 2.12.25 2.12-1.75 5.12h-3z" fill="#D9D9DB"/><path d="M262 644v2a120 120 0 0 1-6 4l-2-2 2-1v-2c2.08-.55 3.84-1 6-1" fill="#171817"/><path d="M268 519a19 19 0 0 1 7 5c-4 0-4 0-7-2z" fill="#E9E9EC"/><path d="M425 353h3c1.25 6.62 1.25 6.62-1 10z" fill="#DDDFDD"/><path d="m1186 698 3 2-2 4-3-2z" fill="#F4F7F4"/><path d="m330 599 1 2-5 6-2-2z" fill="#272829"/><path d="M884 523c2.15 2.62 3.4 4.64 4 8l-3 1c-1.48-2.96-1.06-5.74-1-9" fill="#EFEFF2"/><path d="M238 438h1l1 9-3-1z" fill="#DBDCDB"/><path d="M261 344c5.75 1.75 5.75 1.75 8 4-3 1-3 1-5.69-.31L261 346z" fill="#E4E4E3"/><path d="m500 331 1 2-4 4-4-2z" fill="#EEEEF1"/><path d="m535 314-1 3c-2.56 1.19-2.56 1.19-5 2v-3c3-2 3-2 6-2" fill="#F0F1F2"/><path d="M727.13 231.94 730 233v1l-9 1q.48-1.48 1-3c2-1 2-1 5.12-.06" fill="#E7E7E9"/><path d="M160 660h1l1 12h-3z" fill="#C6CAC5"/><path d="m257 578 1 3a139 139 0 0 1-5 5h-2c0-2 0-2 2.44-4.56L256 579z" fill="#EBECEF"/><path d="m283 546 2 3-5 5c.75-5.75.75-5.75 3-8" fill="#E0E1E3"/><path d="m886 531 3 4-2 1c-.62 2.06-.62 2.06-1 4-.88-6.15-.88-6.15-1-8z" fill="#D2D1D5"/><path d="m288 531 8 2-1 2-2-1-1 2c-2-1.38-2-1.38-4-3z" fill="#D9D9DC"/><path d="m446 483 1 2c-1.25 3.06-1.25 3.06-3 6l-3 1a104 104 0 0 1 5-9" fill="#030503"/><path d="M328 476a89 89 0 0 1 4 4v2h-4z" fill="#CAB46F"/><path d="M230 404h2l1 8-3-1z" fill="#D2D3D4"/><path d="m709 234 6 2v1l-8 1z" fill="#D8D8DA"/><path d="M1045 203c3.83 1.45 5.12 3.43 7 7h-3z" fill="#1D1D1F"/><path d="m1080 167 3 1 1 6h-3z" fill="#E9EBE9"/><path d="m218 697 3 3-3 2-2-3z" fill="#D6D6DB"/></svg>