<svg style="background:transparent" version="1.1" xmlns="http://www.w3.org/2000/svg" viewBox="0 0 1248 704"><path d="m1019 103 3.72.97c2.9.91 4.93 1.83 7.4 3.53a29 29 0 0 0 6.32 3.43c4.82 2.02 8.59 5.73 12.56 9.07l2.29 1.91A64 64 0 0 1 1061 132l2.19 2.19c6.14 6.14 11.8 12.07 15.81 19.81l3.06 4.88c2.75 4.56 4.5 9 5.94 14.12l1.06 3.38.94 3.62.67 2.42c2 8.45 1.11 16.3-2.97 24.04-4.06 5.88-8.94 8.84-15.76 10.92-7.76 1.23-12.4-2.81-18.44-7.19-8.88-7.77-12.96-17.71-17.91-28.17a66 66 0 0 0-8.45-13.43C1026 167 1026 167 1026 165l-1.8-.82a23 23 0 0 1-5.32-3.99c-9.65-8.37-21.17-10.65-33.7-10.39-2.93.27-5.45 1.12-8.18 2.2l-2.56.5c-6.53 1.34-11.86 5.04-17.44 8.5l-3.19 1.88c-10.28 7.77-16.18 19.73-20.77 31.5-1.73 4.35-3.67 8.61-5.6 12.87l-1.17 2.6a293 293 0 0 1-7.7 15.97c-2.72 5.16-5.24 9.19-9.57 13.18l-1.81 2.82c-2.26 3.29-4.63 5.62-7.63 8.24a141 141 0 0 0-8.28 7.75C889 260 889 260 887 260l-.54 1.68c-2.19 3.49-5.34 5.2-8.77 7.38l-2.02 1.32A292 292 0 0 1 865 277c2.01 4.93 4.32 9.4 7 14 3.83 7.34 7.07 14.65 9.29 22.64.71 2.36.71 2.36 1.7 4.75 3.51 9.06 4.48 18.98 5.01 28.61l.28 4.13c.59 9.21.82 18.39.84 27.62l.02 3.07A99 99 0 0 1 888 397q-.06 3.18 0 6.38a117 117 0 0 1 0 5.62l-1 1q-.01 3 .06 5.99C887 418 887 418 886 421q-.06 2.1 0 4.19c.04 3.57-.21 6.97-.71 10.52-.49 3.93-.73 7.89-1.01 11.85q-.31 3.78-.79 7.53c-.55 4.97-.63 9.88-.62 14.88l-.01 2.79.01 5.8-.01 8.8.01 5.67-.01 2.63c.03 8.13.77 15.54 3.14 23.34 1.65 6.73 2.91 13.55 4.22 20.35.78 3.65.78 3.65 1.81 7.15a74 74 0 0 1 2.03 10.94l.48 3.74.46 3.82q.71 5.85 1.51 11.68c1.75 13.3 1.97 26.62 2.18 40.02q.1 5.93.23 11.86l.13 7.6.08 3.55c.07 6.16-.29 11.4-2.13 17.29l3.84.3c5.49.62 10.5 2.14 15.72 3.89l2.71.84A43 43 0 0 1 937 673c.56 2.19.56 2.19 0 5-5.87 9.03-16.86 11.41-26.73 13.62-59.91 12.42-123.19 4.91-183.73 1.72-60.9-3.2-121.5-4.55-182.45-1.49l-9.09.44c-30.29 1.51-60.45 4.18-90.62 7.21l-3.23.32-3.28.34-3.64.36q-4.73.52-9.45 1.23c-19.86 2.75-39.62 2.73-59.63 2.72l-11.86.02q-13.96.02-27.94.01-14.38 0-28.77.05-12.42.05-24.84.04l-14.78.03q-6.91.03-13.83 0l-5.08.02q-3.45.01-6.91-.02h-3.91c-3.23-.62-3.23-.62-5.61-2.97-2.37-3.87-2.76-6.7-2.74-11.15l-.01-2.91C219 685 219 685 220 682l-1.77 1.21c-12.27 7.93-24.21 9.07-38.3 6.47-9.3-2.17-14.92-6.57-20.74-13.99-2.31-5.22-3.53-10.39-2.69-16.07L158 656l1.16-2.85c3.86-8.66 8.78-14.01 17.4-18.03 3.39-1.14 6.64-1.26 10.2-1.37 8.23-.25 13.68-1.56 20.24-6.75l2.88-2.22c4.64-3.7 8.95-7.55 13.12-11.78l3.3-3.27c5.62-5.56 11.15-11.1 16.26-17.14 2.24-2.47 4.88-4.46 7.44-6.59 3.42-3.58 6.61-7.24 9.25-11.44C261 572 261 572 264 571c.94-1.69.94-1.69 2-4 2.62-4.24 5.49-7.49 9-11q2.4-3.16 4.67-6.43L281 548h2l.69-2.62c1.55-4 3.45-6.22 6.31-9.38l-1.62-.81L286 534l-2.69-1.25c-9.32-4.93-18.01-11.21-24.31-19.75l-1.72-2.1c-3.4-4.18-5.95-7.59-7.28-12.9q-1.42-3.67-2.97-7.29a68 68 0 0 1-2.53-8.59c-.8-3.29-1.62-6.55-2.56-9.81-1.83-6.47-3.1-13.07-4.4-19.67-.81-4.08-1.65-8.15-2.6-12.2a84 84 0 0 1-1.69-11.4c-.26-2.09-.73-4-1.25-6.04q-1.26-5.43-2.5-10.88l-.68-2.97c-1.08-4.7-2.1-9.38-2.82-14.15l-1-6.12-.5-3.08c-.5-2.8-.5-2.8-1.03-4.81-1.16-4.88-1.19-10-1.47-14.99l-.14-2.02c-.51-7.96-.89-14.77 4.44-21.28 4.27-4.28 8.16-6.53 14.2-6.91 4.54.38 8.33 2.31 12.41 4.24 3.57 1.66 7.19 3.23 10.8 4.8l6.1 2.69c5.02 2.21 9.86 4.18 15.19 5.48l2.62.7c6.65.85 13.78-2.82 19.82-5.26a65 65 0 0 1 15.6-3.98 84 84 0 0 0 8.84-1.96 96 96 0 0 1 13.5-2.44c10.37-1.42 15.18-7.21 21.26-15.22l3.02-4.1A54 54 0 0 1 375 315l2.12-2.75c4.75-5.79 11.29-10.74 17.88-14.25 2.5.19 2.5.19 5 1l2.75.88L405 301l1 3 1.81.75c8.67 4.95 12.3 23.38 15.19 32.25l1 3 1 3 .93 2.66c1.24 3.87 2.23 7.77 3.19 11.72l.56 2.23L431 365c5.21-.56 9.06-2.29 13.62-4.69l4.26-2.18 2.1-1.09q4.31-2.21 8.64-4.35l2.73-1.37 5.42-2.68c8.35-4.25 16.41-9.04 24.48-13.8 3.84-2.24 7.54-4.33 11.75-5.84 5.69-2.72 11.12-5.91 16.57-9.07l3.55-2.05 1.81-1.06A76 76 0 0 1 536 312q2.4-1.35 4.75-2.81c6.93-4.22 13.77-8.04 21.25-11.19a178 178 0 0 0 15-8q3.39-1.86 6.81-3.69l1.96-1.04a686 686 0 0 1 16.67-8.48c3.43-1.7 6.8-3.45 10.12-5.35 8.65-4.9 17.85-8.9 27.11-12.48a96 96 0 0 0 7.39-3.52 74 74 0 0 1 11.85-4.76c4.27-1.39 8.32-3.33 12.4-5.18 3.66-1.49 7.29-2.59 11.07-3.68a91 91 0 0 0 7.81-2.94A40 40 0 0 1 702 236c3.14-.72 6.22-1.62 9.31-2.5A87 87 0 0 1 724 231l3-1c8.61-1.69 17.25-2.28 26-2.69l3-.14c4.85-.2 9.22-.11 14 .83q2.54.06 5.06 0c3.5-.09 6.52.25 9.94 1l5.75.94c7.63 1.27 14.9 2.81 22.21 5.38 2 .67 3.99 1.19 6.04 1.68l3.25.81c4.96.25 7.55-1.4 11.75-3.81l4.12-1.94c3.76-1.87 6.68-4.34 9.88-7.06l3.44-1.81c3.87-2.08 6.27-5.07 8.98-8.48C862 213 862 213 865 212q1.05-2.48 2-5 1.82-2.58 3.75-5.06c4.22-5.67 7.26-11.57 10.25-17.94l2.25-4.38A68 68 0 0 0 887 170q1.45-3.03 3-6l.94-1.95A95 95 0 0 1 898 150l2.69-4.75c4.58-7.71 10.91-14.04 17.31-20.25l1.38-1.56c1.99-1.77 4.21-2.93 6.54-4.21a95 95 0 0 0 6.96-4.67 80 80 0 0 1 31.43-13.68l4.74-1.01 2.08-.44C973 99 973 99 976 98h6c9.79-4.89 26.96 2.33 37 5" fill="#111411"/><path d="m1019 103 3.72.97c2.9.91 4.93 1.83 7.4 3.53a29 29 0 0 0 6.32 3.43c4.82 2.02 8.59 5.73 12.56 9.07l2.29 1.91A64 64 0 0 1 1061 132l2.19 2.19c6.14 6.14 11.8 12.07 15.81 19.81l3.06 4.88c2.75 4.56 4.5 9 5.94 14.12l1.06 3.38.94 3.62.67 2.42c2 8.45 1.11 16.3-2.97 24.04-4.06 5.88-8.94 8.84-15.76 10.92-7.76 1.23-12.4-2.81-18.44-7.19-8.88-7.77-12.96-17.71-17.91-28.17a66 66 0 0 0-8.45-13.43C1026 167 1026 167 1026 165l-1.8-.82a23 23 0 0 1-5.32-3.99c-9.65-8.37-21.17-10.65-33.7-10.39-2.93.27-5.45 1.12-8.18 2.2l-2.56.5c-6.53 1.34-11.86 5.04-17.44 8.5l-3.19 1.88c-10.28 7.77-16.18 19.73-20.77 31.5-1.73 4.35-3.67 8.61-5.6 12.87l-1.17 2.6a293 293 0 0 1-7.7 15.97c-2.72 5.16-5.24 9.19-9.57 13.18l-1.81 2.82c-2.26 3.29-4.63 5.62-7.63 8.24a141 141 0 0 0-8.28 7.75C889 260 889 260 887 260l-.54 1.68c-2.19 3.49-5.34 5.2-8.77 7.38l-2.02 1.32A292 292 0 0 1 865 277c2.01 4.93 4.32 9.4 7 14 3.83 7.34 7.07 14.65 9.29 22.64.71 2.36.71 2.36 1.7 4.75 3.51 9.06 4.48 18.98 5.01 28.61l.28 4.13c.59 9.21.82 18.39.84 27.62l.02 3.07A99 99 0 0 1 888 397q-.06 3.18 0 6.38a117 117 0 0 1 0 5.62l-1 1q-.01 3 .06 5.99C887 418 887 418 886 421q-.06 2.1 0 4.19c.04 3.57-.21 6.97-.71 10.52-.49 3.93-.73 7.89-1.01 11.85q-.31 3.78-.79 7.53c-.55 4.97-.63 9.88-.62 14.88l-.01 2.79.01 5.8-.01 8.8.01 5.67-.01 2.63c.03 8.13.77 15.54 3.14 23.34 1.65 6.73 2.91 13.55 4.22 20.35.78 3.65.78 3.65 1.81 7.15a74 74 0 0 1 2.03 10.94l.48 3.74.46 3.82q.71 5.85 1.51 11.68c1.75 13.3 1.97 26.62 2.18 40.02q.1 5.93.23 11.86l.13 7.6.08 3.55c.07 6.16-.29 11.4-2.13 17.29l3.84.3c5.49.62 10.5 2.14 15.72 3.89l2.71.84A43 43 0 0 1 937 673c.56 2.19.56 2.19 0 5-5.87 9.03-16.86 11.41-26.73 13.62-59.91 12.42-123.19 4.91-183.73 1.72-60.9-3.2-121.5-4.55-182.45-1.49l-9.09.44c-30.29 1.51-60.45 4.18-90.62 7.21l-3.23.32a598 598 0 0 0-16.89 1.93c-15.77 2.04-31.2 2.65-47.08 2.54l-7.35-.01q-9.54-.02-19.07-.07-9.79-.05-19.57-.06L293 704c2.68-2.8 5.42-4.55 8.79-6.48l3.56-2.06 1.89-1.09a811 811 0 0 0 29.57-17.75c9.34-5.9 18.8-11.57 28.31-17.18a1023 1023 0 0 0 35.46-21.88q3.5-2.25 7.04-4.45 13.34-8.35 26.4-17.1l5.36-3.56c9.54-6.32 9.54-6.32 13.47-9.39 9.49-7.1 19.9-8.48 31.35-10.69 8.62-1.68 16.59-4.29 24.8-7.37l3.6-1.32a846 846 0 0 0 108.56-49.16q5.36-2.86 10.73-5.67l8.86-4.66 2.23-1.18a698 698 0 0 0 31.31-17.39l2.58-1.51 2.22-1.32C681 502 681 502 684 503a29 29 0 0 1 1.91 5.27l1.04 3.35 1.11 3.63c5.19 16.17 11.57 31.07 20.88 45.31l1.33 2.06c8.53 12.45 20.08 22.85 30.85 33.33 9.24 9.01 18.24 17.87 19.09 31.48.04 3.21.04 6.37-.21 9.57-1.62 1.62-3.7 1.4-5.94 1.69-6.97 1.24-13.13 3.8-17.76 9.34-3.97 6.1-4.99 11.75-4.3 18.97 1.69 4.72 3.73 7.37 8 10 9.47 3.55 18.6 4.2 28.62 4.25l3.38.06c10.46.05 21.86-1.08 30-8.31 15.47-16.58 13.62-46.3 13.11-67.11-.44-11.64-3.08-22.7-6.11-33.89 7.01 4.32 13.02 9.35 19 15l2.75 2.56c11.75 12.73 15.67 27.02 15.37 44.06l-.02 3.05-.1 7.33-2.25.31c-8.73 1.26-16.65 3.5-22.25 10.69-4.67 6.73-5.3 12.96-4.5 21 1.01 4.15 2.57 6.88 5.95 9.53 8.53 5.14 17.52 5.84 27.3 5.78l3.07-.01c12.03-.19 23.99-1.79 32.99-10.55 9.68-15.77 8.9-33.69 8.88-51.56v-2.48c-.04-23.65-.84-47.41-5.19-70.71l-.65-3.59a557 557 0 0 0-3.84-18.06l-.81-3.63-1.63-7.18-.77-3.38-.68-3.01c-1.43-7.28-1.79-14.32-1.82-21.72l-.02-3.07-.03-9.92-.01-3.44c0-20.45 1.16-40.62 3.07-60.97 4.21-45.06 6.05-89.45-16.67-130.12-4.21-7.61-4.21-7.61-4.01-11.54 1.08-2.94 2.09-3.65 4.75-5.25l2.47-1.54L872 268c29.29-17.56 44.42-42.94 57.32-73.67 8.62-20.29 20.67-36.76 41.68-45.33 12.21-4.28 27.12-3.54 38.98 1.45 17.88 9.19 26.25 23.99 34.48 41.69 3.82 8.03 8.28 16.06 16.52 20.24 5.5 1.69 11.08 1.29 16.46-.57 4.72-3.34 7.33-7.53 9.56-12.81.47-2.84.52-5.62.5-8.5l-.02-2.4c-.71-23.34-18.4-45.56-34.48-61.1-21.35-19.71-46.83-25.88-75.25-25.14-5.79.3-11.19 1.49-16.75 3.14l-2.98.81c-13.54 4.03-25.09 11.42-36.02 20.19l-3.19 2.38c-13.78 12.86-22.51 29.88-30.03 46.88-5.92 13.36-12.15 25.59-21.78 36.74l-1.82 2.26c-9.31 11.19-24.13 22.4-38.18 26.74-5.72.47-10.46-.74-15.88-2.31A235 235 0 0 0 784 233l-3.22-.52c-3.99-.51-7.92-.68-11.93-.72l-2.33-.03c-17.55-.18-34.36.18-51.52 4.27l-3.09.72c-55.73 13.19-107.17 42.39-157.37 69.14q-11.8 6.3-23.66 12.45a1547 1547 0 0 0-30.04 16.13c-38.96 21.34-38.96 21.34-54.96 29.06l-2.01.99c-4.83 2.28-9.62 3.53-14.87 4.51l-3.19-9.94-.97-3.03a486 486 0 0 1-4.77-15.8 180 180 0 0 0-6.63-19.42l-.85-2.1a49 49 0 0 0-4.8-9.07C406 307 406 307 406 305c-4.56-2.35-8.98-2.82-14-2-5.94 2.64-9.96 8.11-14 13l-6.79 8.06A446 446 0 0 1 358 339l-1.26 1.55c-2.4 2-4.42 2.18-7.49 2.66l-3.51.58-3.74.59c-15.69 2.63-30.69 6.16-45.61 11.7-6.99 1.89-12.34 1.04-18.95-1.64l-2.08-.81c-4.79-1.9-9.46-4.03-14.11-6.25-19.36-9.22-19.36-9.22-28.25-6.38-4.08 2.43-5.63 4.51-7 9a78 78 0 0 0-.31 8.94l.01 2.65c.27 15.97 3.35 31.69 6.64 47.27q1.18 5.64 2.33 11.28l4.12 19.99q1.17 5.64 2.27 11.3c9.83 50.32 9.83 50.32 25.94 65.57l1.65 1.75c6.32 6.21 14.44 9.52 22.35 13.25l4 2a35 35 0 0 1-4.5 7.29l-1.48 1.84q-.79.94-1.58 1.93l-1.64 2.03L281 553l-2.37 2.94a635 635 0 0 1-26.18 30.36 180 180 0 0 0-3.9 4.4 290 290 0 0 1-15.3 16.24l-4.45 4.48A212 212 0 0 1 209 629l-2.71 2.14c-6.3 4.85-11.43 5.39-19.08 5.53-7.42.19-12.7 2.14-18.26 7.19-7.27 7.75-8.29 14.25-8.45 24.52.8 5.79 4.02 9.93 8.65 13.45 9.61 6.07 20.8 6.56 31.85 5.17a51 51 0 0 0 12-5l2.66-1.45a176 176 0 0 0 4.6-2.63C222 677 222 677 224 677l-.48 2.04c-1.46 8.35-1.89 17.49 2.48 24.96-2.86-.98-3.97-1.96-5.75-4.44A27 27 0 0 1 220 682l-1.77 1.21c-12.27 7.93-24.21 9.07-38.3 6.47-9.3-2.17-14.92-6.57-20.74-13.99-2.31-5.22-3.53-10.39-2.69-16.07L158 656l1.16-2.85c3.86-8.66 8.78-14.01 17.4-18.03 3.39-1.14 6.64-1.26 10.2-1.37 8.23-.25 13.68-1.56 20.24-6.75l2.88-2.22c4.64-3.7 8.95-7.55 13.12-11.78l3.3-3.27c5.62-5.56 11.15-11.1 16.26-17.14 2.24-2.47 4.88-4.46 7.44-6.59 3.42-3.58 6.61-7.24 9.25-11.44C261 572 261 572 264 571c.94-1.69.94-1.69 2-4 2.62-4.24 5.49-7.49 9-11q2.4-3.16 4.67-6.43L281 548h2l.69-2.62c1.55-4 3.45-6.22 6.31-9.38l-1.62-.81L286 534l-2.69-1.25c-9.32-4.93-18.01-11.21-24.31-19.75l-1.72-2.1c-3.4-4.18-5.95-7.59-7.28-12.9q-1.42-3.67-2.97-7.29a68 68 0 0 1-2.53-8.59c-.8-3.29-1.62-6.55-2.56-9.81-1.83-6.47-3.1-13.07-4.4-19.67-.81-4.08-1.65-8.15-2.6-12.2a84 84 0 0 1-1.69-11.4c-.26-2.09-.73-4-1.25-6.04q-1.26-5.43-2.5-10.88l-.68-2.97c-1.08-4.7-2.1-9.38-2.82-14.15l-1-6.12-.5-3.08c-.5-2.8-.5-2.8-1.03-4.81-1.16-4.88-1.19-10-1.47-14.99l-.14-2.02c-.51-7.96-.89-14.77 4.44-21.28 4.27-4.28 8.16-6.53 14.2-6.91 4.54.38 8.33 2.31 12.41 4.24 3.57 1.66 7.19 3.23 10.8 4.8l6.1 2.69c5.02 2.21 9.86 4.18 15.19 5.48l2.62.7c6.65.85 13.78-2.82 19.82-5.26a65 65 0 0 1 15.6-3.98 84 84 0 0 0 8.84-1.96 96 96 0 0 1 13.5-2.44c10.37-1.42 15.18-7.21 21.26-15.22l3.02-4.1A54 54 0 0 1 375 315l2.12-2.75c4.75-5.79 11.29-10.74 17.88-14.25 2.5.19 2.5.19 5 1l2.75.88L405 301l1 3 1.81.75c8.67 4.95 12.3 23.38 15.19 32.25l1 3 1 3 .93 2.66c1.24 3.87 2.23 7.77 3.19 11.72l.56 2.23L431 365c5.21-.56 9.06-2.29 13.62-4.69l4.26-2.18 2.1-1.09q4.31-2.21 8.64-4.35l2.73-1.37 5.42-2.68c8.35-4.25 16.41-9.04 24.48-13.8 3.84-2.24 7.54-4.33 11.75-5.84 5.69-2.72 11.12-5.91 16.57-9.07l3.55-2.05 1.81-1.06A76 76 0 0 1 536 312q2.4-1.35 4.75-2.81c6.93-4.22 13.77-8.04 21.25-11.19a178 178 0 0 0 15-8q3.39-1.86 6.81-3.69l1.96-1.04a686 686 0 0 1 16.67-8.48c3.43-1.7 6.8-3.45 10.12-5.35 8.65-4.9 17.85-8.9 27.11-12.48a96 96 0 0 0 7.39-3.52 74 74 0 0 1 11.85-4.76c4.27-1.39 8.32-3.33 12.4-5.18 3.66-1.49 7.29-2.59 11.07-3.68a91 91 0 0 0 7.81-2.94A40 40 0 0 1 702 236c3.14-.72 6.22-1.62 9.31-2.5A87 87 0 0 1 724 231l3-1c8.61-1.69 17.25-2.28 26-2.69l3-.14c4.85-.2 9.22-.11 14 .83q2.54.06 5.06 0c3.5-.09 6.52.25 9.94 1l5.75.94c7.63 1.27 14.9 2.81 22.21 5.38 2 .67 3.99 1.19 6.04 1.68l3.25.81c4.96.25 7.55-1.4 11.75-3.81l4.12-1.94c3.76-1.87 6.68-4.34 9.88-7.06l3.44-1.81c3.87-2.08 6.27-5.07 8.98-8.48C862 213 862 213 865 212q1.05-2.48 2-5 1.82-2.58 3.75-5.06c4.22-5.67 7.26-11.57 10.25-17.94l2.25-4.38A68 68 0 0 0 887 170q1.45-3.03 3-6l.94-1.95A95 95 0 0 1 898 150l2.69-4.75c4.58-7.71 10.91-14.04 17.31-20.25l1.38-1.56c1.99-1.77 4.21-2.93 6.54-4.21a95 95 0 0 0 6.96-4.67 80 80 0 0 1 31.43-13.68l4.74-1.01 2.08-.44C973 99 973 99 976 98h6c9.79-4.89 26.96 2.33 37 5" fill="#B9BBB9"/><path d="M684 503a29 29 0 0 1 1.91 5.27l1.04 3.35 1.11 3.63c5.19 16.17 11.57 31.07 20.88 45.31l1.33 2.06c8.53 12.45 20.08 22.85 30.85 33.33 9.24 9.01 18.24 17.87 19.09 31.48.04 3.21.04 6.37-.21 9.57-1.66 1.66-3.85 1.48-6.12 1.81-4.43.75-7.12 1.97-10.92 4.37-4.64 1.95-10.04 1.08-14.96.82l-3.84-.2-6.55-.37c-28.49-1.54-57.02-1.62-85.54-1.62l-12.58-.02c-37.45-.12-74.97.45-112.29 3.92q-5.6.5-11.2.94c-44.59 3.62-88.8 9.53-133 16.35 1.26-3.78 2.4-4.12 5.79-6.08l3.07-1.81 3.33-1.92 6.88-4.07 1.77-1.04c9.2-5.45 18.17-11.28 27.16-17.08l4.41-2.83a1318 1318 0 0 0 20.54-13.46l5.48-3.64c3.76-2.49 7.49-4.95 11.03-7.75 9.67-7.23 20.07-8.7 31.74-10.95 8.62-1.68 16.59-4.29 24.8-7.37l3.6-1.32a846 846 0 0 0 108.56-49.16q5.36-2.86 10.73-5.67l8.86-4.66 2.23-1.18a698 698 0 0 0 31.31-17.39l2.58-1.51 2.22-1.32C681 502 681 502 684 503" fill="#ECEEEC"/><path d="m1019 103 3.72.97c2.9.91 4.93 1.83 7.4 3.53a29 29 0 0 0 6.32 3.43c4.82 2.02 8.59 5.73 12.56 9.07l2.29 1.91A64 64 0 0 1 1061 132l2.19 2.19c6.14 6.14 11.8 12.07 15.81 19.81l3.06 4.88c2.75 4.56 4.5 9 5.94 14.12l1.06 3.38.94 3.62.67 2.42c2 8.45 1.11 16.3-2.97 24.04-4.06 5.88-8.94 8.84-15.76 10.92-7.76 1.23-12.4-2.81-18.44-7.19-8.88-7.77-12.96-17.71-17.91-28.17a66 66 0 0 0-8.45-13.43C1026 167 1026 167 1026 165l-1.8-.82a23 23 0 0 1-5.32-3.99c-9.65-8.37-21.17-10.65-33.7-10.39-2.93.27-5.45 1.12-8.18 2.2l-2.56.5c-6.53 1.34-11.86 5.04-17.44 8.5l-3.19 1.88c-10.28 7.77-16.18 19.73-20.77 31.5-1.73 4.35-3.67 8.61-5.6 12.87l-1.17 2.6a293 293 0 0 1-7.7 15.97c-2.72 5.16-5.24 9.19-9.57 13.18l-1.81 2.82c-2.26 3.29-4.63 5.62-7.63 8.24a141 141 0 0 0-8.28 7.75C889 260 889 260 887 260l-.54 1.68c-2.19 3.49-5.34 5.2-8.77 7.38l-2.02 1.32A292 292 0 0 1 865 277c2.01 4.93 4.32 9.4 7 14 3.83 7.34 7.07 14.65 9.29 22.64.71 2.36.71 2.36 1.7 4.75 3.51 9.06 4.48 18.98 5.01 28.61l.28 4.13c.59 9.21.82 18.39.84 27.62l.02 3.07A99 99 0 0 1 888 397q-.06 3.18 0 6.38a117 117 0 0 1 0 5.62l-1 1q-.01 3 .06 5.99C887 418 887 418 886 421q-.06 2.1 0 4.19c.04 3.57-.21 6.97-.71 10.52-.49 3.93-.73 7.89-1.01 11.85q-.31 3.78-.79 7.53c-.55 4.97-.63 9.88-.62 14.88l-.01 2.79.01 5.8-.01 8.8.01 5.67-.01 2.63c.03 8.13.77 15.54 3.14 23.34 1.65 6.73 2.91 13.55 4.22 20.35.78 3.65.78 3.65 1.81 7.15a74 74 0 0 1 2.03 10.94l.48 3.74.46 3.82q.71 5.85 1.51 11.68c1.75 13.3 1.97 26.62 2.18 40.02q.1 5.93.23 11.86l.13 7.6.08 3.55c.07 6.16-.29 11.4-2.13 17.29l3.84.3c5.49.62 10.5 2.14 15.72 3.89l2.71.84A43 43 0 0 1 937 673c.56 2.19.56 2.19 0 5-5.87 9.03-16.86 11.41-26.73 13.62-59.91 12.42-123.19 4.91-183.73 1.72-60.9-3.2-121.5-4.55-182.45-1.49l-9.09.44a1649 1649 0 0 0-122.37 10.78A163 163 0 0 1 387 704v-1c15.14-2.05 30.25-4.07 45.49-5.29q8.72-.7 17.43-1.71c22.49-2.57 45.07-4.18 67.64-5.76l9.94-.71c76.4-5.46 152.85-2.59 229.18 2.65 24.34 1.67 48.65 2.03 73.04 2.07l7.11.02c27.3.08 54.4-.63 80.92-7.71l2.24-.58c5.52-1.56 9.9-3.87 14.01-7.98.44-2.38.44-2.38 0-5-4.05-3.98-8.64-5.68-13.88-7.56l-2.29-.88c-7.43-2.73-15.07-4.14-22.83-5.56l.01-1.68c.55-71.55.55-71.55-5.01-101.32l-.65-3.59a557 557 0 0 0-3.84-18.06l-.81-3.63-1.63-7.18-.77-3.38-.68-3.01c-1.43-7.28-1.79-14.32-1.82-21.72l-.02-3.07-.03-9.92-.01-3.44c0-20.45 1.16-40.62 3.07-60.97 4.21-45.06 6.05-89.45-16.67-130.12-4.21-7.61-4.21-7.61-4.01-11.54 1.08-2.94 2.09-3.65 4.75-5.25l2.47-1.54L872 268c29.29-17.56 44.42-42.94 57.32-73.67 8.62-20.29 20.67-36.76 41.68-45.33 12.21-4.28 27.12-3.54 38.98 1.45 17.88 9.19 26.25 23.99 34.48 41.69 3.82 8.03 8.28 16.06 16.52 20.24 5.5 1.69 11.08 1.29 16.46-.57 4.72-3.34 7.33-7.53 9.56-12.81.47-2.84.52-5.62.5-8.5l-.02-2.4c-.71-23.34-18.4-45.56-34.48-61.1-21.35-19.71-46.83-25.88-75.25-25.14-5.79.3-11.19 1.49-16.75 3.14l-2.98.81c-13.54 4.03-25.09 11.42-36.02 20.19l-3.19 2.38c-13.78 12.86-22.51 29.88-30.03 46.88-5.92 13.36-12.15 25.59-21.78 36.74l-1.82 2.26c-9.31 11.19-24.13 22.4-38.18 26.74-5.72.47-10.46-.74-15.88-2.31A235 235 0 0 0 784 233l-3.22-.52c-3.99-.51-7.92-.68-11.93-.72l-2.33-.03c-17.55-.18-34.36.18-51.52 4.27l-3.09.72c-55.73 13.19-107.17 42.39-157.37 69.14q-11.8 6.3-23.66 12.45a1547 1547 0 0 0-30.04 16.13c-38.96 21.34-38.96 21.34-54.96 29.06l-2.01.99c-4.83 2.28-9.62 3.53-14.87 4.51l-3.19-9.94-.97-3.03a486 486 0 0 1-4.77-15.8 180 180 0 0 0-6.63-19.42l-.85-2.1a49 49 0 0 0-4.8-9.07C406 307 406 307 406 305c-4.56-2.35-8.98-2.82-14-2-5.94 2.64-9.96 8.11-14 13l-6.79 8.06A446 446 0 0 1 358 339l-1.26 1.55c-2.4 2-4.42 2.18-7.49 2.66l-3.51.58-3.74.59c-15.69 2.63-30.69 6.16-45.61 11.7-6.99 1.89-12.34 1.04-18.95-1.64l-2.08-.81c-4.79-1.9-9.46-4.03-14.11-6.25-19.36-9.22-19.36-9.22-28.25-6.38-4.08 2.43-5.63 4.51-7 9a78 78 0 0 0-.31 8.94l.01 2.65c.27 15.97 3.35 31.69 6.64 47.27q1.18 5.64 2.33 11.28l4.12 19.99q1.17 5.64 2.27 11.3c9.83 50.32 9.83 50.32 25.94 65.57l1.65 1.75c6.32 6.21 14.44 9.52 22.35 13.25l4 2a35 35 0 0 1-4.5 7.29l-1.48 1.84q-.79.94-1.58 1.93l-1.64 2.03L281 553l-2.37 2.94a635 635 0 0 1-26.18 30.36 180 180 0 0 0-3.9 4.4 290 290 0 0 1-15.3 16.24l-4.45 4.48A212 212 0 0 1 209 629l-2.71 2.14c-6.3 4.85-11.43 5.39-19.08 5.53-7.42.19-12.7 2.14-18.26 7.19-7.27 7.75-8.29 14.25-8.45 24.52.8 5.79 4.02 9.93 8.65 13.45 9.61 6.07 20.8 6.56 31.85 5.17a51 51 0 0 0 12-5l2.66-1.45a176 176 0 0 0 4.6-2.63C222 677 222 677 224 677l-.48 2.04c-1.46 8.35-1.89 17.49 2.48 24.96-2.86-.98-3.97-1.96-5.75-4.44A27 27 0 0 1 220 682l-1.77 1.21c-12.27 7.93-24.21 9.07-38.3 6.47-9.3-2.17-14.92-6.57-20.74-13.99-2.31-5.22-3.53-10.39-2.69-16.07L158 656l1.16-2.85c3.86-8.66 8.78-14.01 17.4-18.03 3.39-1.14 6.64-1.26 10.2-1.37 8.23-.25 13.68-1.56 20.24-6.75l2.88-2.22c4.64-3.7 8.95-7.55 13.12-11.78l3.3-3.27c5.62-5.56 11.15-11.1 16.26-17.14 2.24-2.47 4.88-4.46 7.44-6.59 3.42-3.58 6.61-7.24 9.25-11.44C261 572 261 572 264 571c.94-1.69.94-1.69 2-4 2.62-4.24 5.49-7.49 9-11q2.4-3.16 4.67-6.43L281 548h2l.69-2.62c1.55-4 3.45-6.22 6.31-9.38l-1.62-.81L286 534l-2.69-1.25c-9.32-4.93-18.01-11.21-24.31-19.75l-1.72-2.1c-3.4-4.18-5.95-7.59-7.28-12.9q-1.42-3.67-2.97-7.29a68 68 0 0 1-2.53-8.59c-.8-3.29-1.62-6.55-2.56-9.81-1.83-6.47-3.1-13.07-4.4-19.67-.81-4.08-1.65-8.15-2.6-12.2a84 84 0 0 1-1.69-11.4c-.26-2.09-.73-4-1.25-6.04q-1.26-5.43-2.5-10.88l-.68-2.97c-1.08-4.7-2.1-9.38-2.82-14.15l-1-6.12-.5-3.08c-.5-2.8-.5-2.8-1.03-4.81-1.16-4.88-1.19-10-1.47-14.99l-.14-2.02c-.51-7.96-.89-14.77 4.44-21.28 4.27-4.28 8.16-6.53 14.2-6.91 4.54.38 8.33 2.31 12.41 4.24 3.57 1.66 7.19 3.23 10.8 4.8l6.1 2.69c5.02 2.21 9.86 4.18 15.19 5.48l2.62.7c6.65.85 13.78-2.82 19.82-5.26a65 65 0 0 1 15.6-3.98 84 84 0 0 0 8.84-1.96 96 96 0 0 1 13.5-2.44c10.37-1.42 15.18-7.21 21.26-15.22l3.02-4.1A54 54 0 0 1 375 315l2.12-2.75c4.75-5.79 11.29-10.74 17.88-14.25 2.5.19 2.5.19 5 1l2.75.88L405 301l1 3 1.81.75c8.67 4.95 12.3 23.38 15.19 32.25l1 3 1 3 .93 2.66c1.24 3.87 2.23 7.77 3.19 11.72l.56 2.23L431 365c5.21-.56 9.06-2.29 13.62-4.69l4.26-2.18 2.1-1.09q4.31-2.21 8.64-4.35l2.73-1.37 5.42-2.68c8.35-4.25 16.41-9.04 24.48-13.8 3.84-2.24 7.54-4.33 11.75-5.84 5.69-2.72 11.12-5.91 16.57-9.07l3.55-2.05 1.81-1.06A76 76 0 0 1 536 312q2.4-1.35 4.75-2.81c6.93-4.22 13.77-8.04 21.25-11.19a178 178 0 0 0 15-8q3.39-1.86 6.81-3.69l1.96-1.04a686 686 0 0 1 16.67-8.48c3.43-1.7 6.8-3.45 10.12-5.35 8.65-4.9 17.85-8.9 27.11-12.48a96 96 0 0 0 7.39-3.52 74 74 0 0 1 11.85-4.76c4.27-1.39 8.32-3.33 12.4-5.18 3.66-1.49 7.29-2.59 11.07-3.68a91 91 0 0 0 7.81-2.94A40 40 0 0 1 702 236c3.14-.72 6.22-1.62 9.31-2.5A87 87 0 0 1 724 231l3-1c8.61-1.69 17.25-2.28 26-2.69l3-.14c4.85-.2 9.22-.11 14 .83q2.54.06 5.06 0c3.5-.09 6.52.25 9.94 1l5.75.94c7.63 1.27 14.9 2.81 22.21 5.38 2 .67 3.99 1.19 6.04 1.68l3.25.81c4.96.25 7.55-1.4 11.75-3.81l4.12-1.94c3.76-1.87 6.68-4.34 9.88-7.06l3.44-1.81c3.87-2.08 6.27-5.07 8.98-8.48C862 213 862 213 865 212q1.05-2.48 2-5 1.82-2.58 3.75-5.06c4.22-5.67 7.26-11.57 10.25-17.94l2.25-4.38A68 68 0 0 0 887 170q1.45-3.03 3-6l.94-1.95A95 95 0 0 1 898 150l2.69-4.75c4.58-7.71 10.91-14.04 17.31-20.25l1.38-1.56c1.99-1.77 4.21-2.93 6.54-4.21a95 95 0 0 0 6.96-4.67 80 80 0 0 1 31.43-13.68l4.74-1.01 2.08-.44C973 99 973 99 976 98h6c9.79-4.89 26.96 2.33 37 5" fill="#E6E7E8"/><path d="M401 302c10.01 4.89 13.58 18.08 17 28q2.53 7.64 4.94 15.31l.63 2q.9 2.83 1.77 5.68l1.04 3.36C427 359 427 359 426 361l-2-1 1 17h-2l-3-5c-14.18-14.47-34.62-19.52-54-22v-7h2l.35-1.7c2.86-10.1 10.49-18.97 16.65-27.3l-4 1 1.44-1.75c1.56-2.25 1.56-2.25 1.97-4.22.92-3.16 2.83-4.27 5.49-6.05 3.62-1.69 7.21-1.8 11.1-.98" fill="#252623"/><path d="M809 572c7.01 4.32 13.02 9.35 19 15l2.75 2.56c11.75 12.73 15.67 27.02 15.37 44.06l-.02 3.05-.1 7.33-2.25.31A46 46 0 0 0 821 654l-1-2q-3.49-.61-7-1l.44-3.9c2.72-25.79 2.35-50.02-4.44-75.1" fill="#ECEEED"/><path d="m251.5 339.5 2.62 1.1A692 692 0 0 1 262 344l4.68 2.02q4.03 1.75 8.03 3.53c3.29 1.45 3.29 1.45 6.17 2.46l2.12.99 1 3c-4.86-.66-8.91-2.65-13.31-4.69-29.25-13.23-29.25-13.23-38.07-10.12-3.67 2.53-5.22 4.6-6.62 8.81-1.04 20.02 2.22 39.35 6.34 58.86q1.18 5.64 2.33 11.28l4.12 19.99q1.17 5.64 2.27 11.3c9.83 50.32 9.83 50.32 25.94 65.57l1.65 1.75c6.32 6.21 14.44 9.52 22.35 13.25l4 2a35 35 0 0 1-4.5 7.29l-1.48 1.84q-.79.94-1.58 1.93l-1.64 2.03L281 553l-2.37 2.94a635 635 0 0 1-26.18 30.36 180 180 0 0 0-3.9 4.4 290 290 0 0 1-15.3 16.24l-4.45 4.48A212 212 0 0 1 209 629l-2.71 2.14c-6.3 4.85-11.43 5.39-19.08 5.53-7.42.19-12.7 2.14-18.26 7.19-7.27 7.75-8.29 14.25-8.45 24.52.8 5.79 4.02 9.93 8.65 13.45 9.61 6.07 20.8 6.56 31.85 5.17a51 51 0 0 0 12-5l2.66-1.45a176 176 0 0 0 4.6-2.63C222 677 222 677 224 677l-.48 2.04c-1.46 8.35-1.89 17.49 2.48 24.96-2.86-.98-3.97-1.96-5.75-4.44A27 27 0 0 1 220 682l-1.77 1.21c-12.27 7.93-24.21 9.07-38.3 6.47-9.3-2.17-14.92-6.57-20.74-13.99-2.31-5.22-3.53-10.39-2.69-16.07L158 656l1.16-2.85c3.86-8.66 8.78-14.01 17.4-18.03 3.39-1.14 6.64-1.26 10.2-1.37 8.23-.25 13.68-1.56 20.24-6.75l2.88-2.22c4.64-3.7 8.95-7.55 13.12-11.78l3.3-3.27c5.62-5.56 11.15-11.1 16.26-17.14 2.24-2.47 4.88-4.46 7.44-6.59 3.42-3.58 6.61-7.24 9.25-11.44C261 572 261 572 264 571c.94-1.69.94-1.69 2-4 2.62-4.24 5.49-7.49 9-11q2.4-3.16 4.67-6.43L281 548h2l.69-2.62c1.55-4 3.45-6.22 6.31-9.38l-1.62-.81L286 534l-2.69-1.25c-9.32-4.93-18.01-11.21-24.31-19.75l-1.72-2.1c-3.4-4.18-5.95-7.59-7.28-12.9q-1.42-3.67-2.97-7.29a68 68 0 0 1-2.53-8.59c-.8-3.29-1.62-6.55-2.56-9.81-1.83-6.47-3.1-13.07-4.4-19.67q-1.2-6.12-2.6-12.2a84 84 0 0 1-1.69-11.4c-.26-2.09-.73-4-1.25-6.04q-1.26-5.43-2.5-10.88l-.68-2.97c-1.08-4.7-2.1-9.38-2.82-14.15l-1-6.12-.5-3.08c-.5-2.8-.5-2.8-1.03-4.81-1.16-4.88-1.19-10-1.47-14.99l-.14-2.02c-.51-7.96-.88-14.76 4.44-21.28 4.13-4.13 7.57-6.11 13.44-6.74 4.27.08 7.9 1.84 11.76 3.54" fill="#E1E2E3"/><path d="m366 561 3 1c-1.4 3.25-2.97 5.07-5.69 7.31-2.72 2.3-5.32 4.64-7.81 7.19a120 120 0 0 1-7.38 6.88c-3 2.59-5.83 5.29-8.62 8.12-3.4 3.45-6.92 6.67-10.6 9.82a106 106 0 0 0-5.4 5.18 149 149 0 0 1-9.07 8.35c-3.2 2.83-6.31 5.74-9.43 8.65a491 491 0 0 1-15 13.5l-3.14 2.73c-24.57 21.36-24.57 21.36-32.19 21.68l-2.42.12-2.5.09-2.55.12-6.2.26c3.61-3.75 7.38-7.01 11.5-10.19l1.86-1.45L260 646l1.63-1.25A2328 2328 0 0 1 273 636l2.05-1.57a1094 1094 0 0 0 31.12-24.91 1916 1916 0 0 1 34.02-27.64c3.88-3.09 7.66-6.29 11.43-9.5 7.45-6.32 7.45-6.32 11-9.13l1.79-1.42z" fill="#ECEBEF"/><path d="M304.31 470.81q1.5 0 3.05-.04c5.91 0 10.98.52 16.64 2.23l1 4 1-2h2l4 7-5.63 2.87-3.16 1.62c-10.18 4.78-20.58 5.71-31.4 2.6-5.54-2.15-10.97-5.5-14.8-10.09v-3a625 625 0 0 1 8.1-3.03c6.41-2.16 12.5-2.16 19.2-2.16" fill="#151614"/><path d="M412 450c-1.25 4.13-3.96 5.4-7.52 7.36l-2.17 1.14-4.2 2.28-2.08 1.11a172 172 0 0 0-5.87 3.41c-3.16 1.7-3.16 1.7-6.1 1.45L382 466l-1-3a85 85 0 0 0 2 7l-2.05.8-2.7 1.08-2.67 1.05C373 474 373 474 370.84 475.12c-2.36 1.13-4.26 1.02-6.84.88-.56-3.2-.47-5.28 1.31-8.04A37 37 0 0 1 378 458l2.46-1.46c8.21-4.82 22.04-11.29 31.54-6.54" fill="#131515"/><path d="M356 485c3.06 1.5 3.06 1.5 5 3-.39 2.82-.7 4.62-2.5 6.88-2.05 2.9-2.05 5.64-2.5 9.12-2 2-2 2-4.5 2.25C349 506 349 506 347 504v-4l-2.38-.94C342 498 342 498 340 497c-.44-3.19-.44-3.19 0-7 4.08-5.18 9.78-6.12 16-5" fill="#646461"/><path d="M230 375a86 86 0 0 1 1.81 9c3.84 23.29 3.84 23.29 7 32.88 1.2 3.7 1.48 6.33.19 10.12a61 61 0 0 1-3 3 492 492 0 0 1-8.4-39.22l-.43-2.43c-.35-4.73 1.29-8.94 2.83-13.35" fill="#181918"/><path d="m291 472 .75 3.62A24 24 0 0 0 297 486a33 33 0 0 0 6 3v1c-9.26-.19-17.18-2.19-24.12-8.62C277 479 277 479 277 476l5.31-2 2.99-1.12c2.7-.88 2.7-.88 5.7-.88" fill="#C9B475"/><path d="M884 428h2l-.18 1.73a563 563 0 0 0-1.54 17.9 171 171 0 0 1-.8 7.52c-.51 4.61-.56 9.12-.47 13.75l.05 4.95.11 7.69q.06 3.74.09 7.49l.05 2.33c.01 2.16.01 2.16-.31 5.64l-3 2q-.04-8.96-.05-17.92l-.03-6.07c-.14-34.35-.14-34.35 4.08-47.01" fill="#E3E3E6"/><path d="M985 147c15.85-1.08 27.79 3.41 39.92 13.62 6.05 5.59 11.91 13.07 13.08 21.38h-2c-1.37-2.01-1.37-2.01-2.88-4.69A78 78 0 0 0 1026 167v-2l-1.8-.82a23 23 0 0 1-5.32-3.99c-9.36-8.13-20.68-10.74-32.88-10.19z" fill="#E6E6E4"/><path d="M377 460a61 61 0 0 1 6 10l-2.05.8-2.7 1.08-2.67 1.05C373 474 373 474 370.84 475.12c-2.36 1.13-4.26 1.02-6.84.88-.58-3.3-.47-5.32 1.45-8.11C372.31 460 372.31 460 377 460" fill="#EBC66A"/><path d="M886 360h1l.08 2 .36 9.06.12 3.15c.36 8.69.36 8.69 1 12.84.53 3.54-.04 6.4-.56 9.95q-.04 4.77.06 9.52C888 409 888 409 887 410l.12 3.25c.09 6.05-1.34 11.99-3.12 17.75l-2 2c.42-7.8.88-15.59 1.48-23.38 1.25-16.54 2.05-33.04 2.52-49.62" fill="#E3E4E5"/><path d="m224 677-.48 2.04c-1.46 8.35-1.89 17.49 2.48 24.96-2.86-.98-3.97-1.96-5.75-4.44A27 27 0 0 1 220 682l-1.91 1.24c-10.66 6.71-17.54 7.06-30.09 5.76v-1l2.42-.04c11.39-.5 20.14-4.27 29.84-10.04C222 677 222 677 224 677" fill="#E0E0E2"/><path d="m768.25 227.19 2.39.15c7.93.57 15.59 2 23.36 3.66 2.94.62 5.76 1.09 8.75 1.44l3.25.56 1 2c-5.21 1.24-9.29.66-14.44-.37l-4.37-.84-1.93-.38a110 110 0 0 0-16.29-1.72q-1.91-.08-3.89-.13l-4.02-.12-4.09-.13L748 231v-1l3.75-.37c2.37-.24 3.95-.45 6-1.68 3.45-1.45 6.84-1.01 10.5-.76" fill="#DDDDDF"/><path d="m233 340 4 2v1l6 1-1.94.38-2.06.62-1 2-3-1-1.31 1.44C232 349 232 349 229 350q-.05 3.18-.06 6.38l-.04 3.58c.1 3.04.1 3.04 1.1 5.04-2.75 3.88-2.75 3.88-5 5q-.12-4.82-.19-9.62l-.07-2.74c-.06-5.32.23-9.06 3.26-13.64 2.69-2.38 2.69-2.38 5-4" fill="#1D1D1E"/><path d="M1074 149c3 1 3 1 4.03 2.64l.91 2.05a45 45 0 0 0 4.12 7.25c2.44 3.85 3.66 7.71 4.94 12.06l1.06 3.38c3.5 13.5 3.5 13.5 1.94 19.62h-2l-.26-2.79c-1.48-13.31-5.53-24.68-12.15-36.33-2.59-4.59-2.59-4.59-2.59-7.88" fill="#E5E5E5"/><path d="M896 600c2.44 2.44 2.27 3.11 2.33 6.46l.07 2.8.05 3.04.07 3.12.11 6.54.2 9.99.12 6.35.06 3.02.04 2.83.05 2.48A41 41 0 0 1 898 654h-2z" fill="#F2F2F4"/><path d="m497 576 2 1-3.14 2.27-4.11 2.98-2.07 1.49c-2.86 2.09-5.47 4.04-7.91 6.62C480 592 480 592 476 592v3c-4.84 1.34-8.93 2.25-14 2 2.09-2.09 3.83-3.07 6.44-4.44a561 561 0 0 0 16.56-9.31l2.54-1.47A176 176 0 0 0 497 576" fill="#030504"/><path d="m366 561 3 1c-1.4 3.25-2.97 5.07-5.69 7.31A161 161 0 0 0 352 580l-3-1c1.31-5.83 4.01-8.26 8.5-11.81l1.8-1.48c4.29-3.5 4.29-3.5 6.7-4.71" fill="#ECEFEC"/><path d="M895 647h1l1 10 3.84.3c5.51.61 10.54 2.17 15.78 3.95l2.74.87A45 45 0 0 1 934 670l-1 2-3.03-1.81a78 78 0 0 0-11.47-5.25l-2.06-.78c-7.01-2.53-14.1-3.96-21.44-5.16z" fill="#E8E9E9"/><path d="M324 471q1.54 1.46 3 3l-1.87-.43c-8.15-1.7-16.02-1.8-24.32-1.69l-4.04.02-9.77.1c1-2 1-2 2.76-2.63 11.14-2.32 23.6-3.02 34.24 1.63" fill="#040504"/><path d="M289 474c3.15 3.42 3.56 6.44 4 11l-5 1v-2l-1.75-.31c-2.57-.79-4.19-2-6.25-3.69l2-4h6z" fill="#E4C163"/><path d="M320 347c-3.68 3.68-9.25 4.56-14.12 6.12l-3.39 1.13c-6.05 1.95-11.13 3.23-17.49 2.75l-1-4 2.31.69c8.61.73 16.9-3.45 24.65-6.8 3.44-1.01 5.59-.74 9.04.11" fill="#ECEDEE"/><path d="M869 271c-1.15 2.47-2.05 4.05-4 6 2.01 4.93 4.32 9.4 7 14q1.53 2.99 3 6l1 2h-2l-1 2-4.38-8.19-1.24-2.33c-5.44-10.21-5.44-10.21-5.26-14.1 1.24-3.35 3.19-5.38 6.88-5.38" fill="#E6E8E7"/><path d="M1088 186h1c2.1 15.58 2.1 15.58-1.44 21.19-3.22 3.86-6.72 7.23-11.56 8.81-3.44.09-6.64-.3-10-1v-1l2.2-.26c6.48-.94 10.39-1.79 14.8-6.74 4.67-6.35 4.77-13.34 5-21" fill="#D3D3D4"/><path d="M885 336c2.3 2.3 2.31 2.92 2.59 6.04l.22 2.45q.46 5.91.75 11.82l.13 2.5c.83 17.44.83 17.44-.69 24.19h-1l-.85-14.29-.3-4.85c-.56-9.3-1.02-18.54-.85-27.86" fill="#EFF0F0"/><path d="M881 468c3.09 5.15 2.33 10.8 2.31 16.62l.05 3.51v3.35l.01 3.06L883 497l-3 2-.05-12.76-.03-4.35-.02-6.23-.01-3.79C880 469 880 469 881 468" fill="#F2F2F3"/><path d="M397.5 298.19c7.18 2.33 7.18 2.33 9.5 5.8l-1 3v-2c-4.54-2.33-9-2.83-14-2-4.76 2.3-8.42 6.2-12 10 0-4 0-4 2.01-6.02l2.68-2.03 2.63-2.04c6.97-4.95 6.97-4.95 10.18-4.71" fill="#DAD9DE"/><path d="M413 449c-3 1-3 1-6.94.88-9.75-.05-18.1 3.27-26.52 7.87q-2.23 1.19-4.54 2.25l-2-1c10.61-7.69 26.91-16.55 40-10" fill="#030403"/><path d="M165 681c2.94.64 5.42 1.62 8.12 2.94 7.92 3.57 16.3 4.37 24.88 5.06v2c-10.32.34-20.99-.51-30-6-2.06-2.25-2.06-2.25-3-4" fill="#E9EBEA"/><path d="M887 532c2.25 2.25 2.41 3.15 3 6.19a79 79 0 0 0 2.12 8.37c1.04 4.08 1.16 7.24.88 11.44l-2 2-1.94-9-.55-2.54A128 128 0 0 1 886 533z" fill="#E9E9ED"/><path d="m226 343 2 2-.97 2.13c-1.11 3.09-1.34 5.55-1.44 8.83l-.12 3.37-.09 3.48-.12 3.55L225 375l-2-1c-1.67-8.19-3.34-20.99 1-28.5z" fill="#EEEFEE"/><path d="M206 628v3c-6.46 5.77-12.91 5.67-21.17 5.86-3.83.14-3.83.14-5.94.77L177 638l-2-2c4.67-1.82 8.86-2.23 13.81-2.31 6.77-.24 11.74-1.58 17.19-5.69" fill="#E8EBE8"/><path d="M884 403h1c1.92 9.98 2.59 18.22-1 28l-2 2c.56-10.01 1.18-20.01 2-30" fill="#DDDDDF"/><path d="M952 161c0 3.84-1.01 4.36-3.62 7.06a60 60 0 0 0-9.06 12.97C938 183 938 183 935 184c1.35-4.99 3.64-8.63 6.81-12.62l1.29-1.7A44 44 0 0 1 952 161" fill="#DBDDDD"/><path d="M374 654c2.62 2.62 2 3.34 2 7l-13 2c1.27-3.82 2.63-4.23 6.06-6.19l2.79-1.6z" fill="#E5E5E5"/><path d="M220 684h2l.11 2.6c.37 6.45.83 11.67 3.89 17.4-2.86-.98-3.97-1.96-5.75-4.44-1.7-4.85-1.7-9.45-1.25-14.56z" fill="#CACACE"/><path d="M1049 204a38 38 0 0 1 7.94 5c4.88 3.71 8.98 5.15 15.06 6v2c-3.86 1.48-6.27.57-10-1-10.91-6.68-10.91-6.68-13-12" fill="#E4E3E4"/><path d="M228 398h2q1.04 4.37 2.06 8.75l.61 2.5.55 2.42.53 2.22c.27 2.31-.05 3.91-.75 6.11l-2-1c-2.21-6.91-3.43-13.76-3-21" fill="#D6D8D7"/><path d="m985 147 6.69-.12 3.76-.08c3.36.19 5.55.74 8.55 2.2v3l-2.16-.44c-5.38-1.04-10.36-1.8-15.84-1.56z" fill="#EAECEA"/><path d="M568 688v1h-8v2c-7.75.1-15.31.06-23-1v-1c10.35-.65 20.63-1.16 31-1" fill="#E0E0E2"/><path d="m374 460 1 2-1 2h-2v2c-1.88 2.12-1.88 2.12-4 4h-2v4h5c-2 2-2 2-4.62 2.12L364 476c-.58-3.3-.47-5.32 1.45-8.11 2.69-3.09 5.13-5.61 8.55-7.89" fill="#CEB773"/><path d="M232 417c5.38 5.62 5.23 13.81 5.07 21.13L237 440c-2.1-1.72-2.93-2.64-3.48-5.34l-.14-2.6c-.21-3.16-.6-5.99-1.38-9.06q-.07-3 0-6" fill="#E8E9E9"/><path d="M743.37 227.67q2.03.02 4.07.08l2.14.03c6.16.13 12.3.57 18.42 1.22v1l-31 1c3-3 3-3 6.37-3.33" fill="#F3F4F4"/><path d="M881 694v2c-8.44.99-16.61 1.72-25 0v-1c8.35-.95 16.6-1.11 25-1" fill="#E6E6E7"/><path d="M326 475h2l4 7q-1.93 1.04-3.88 2.06l-2.17 1.16-1.95.78-2-1 1.44-1.62c1.84-2.81 2.18-5.08 2.56-8.38" fill="#B5A86F"/><path d="M225 350h2l.15 2.52.23 3.29.21 3.27C228 362 228 362 230 365c-2.75 3.88-2.75 3.88-5 5z" fill="#313133"/><path d="M1087 175c2.79 3.2 3.6 5.77 4.25 9.94l.52 3.09c.23 2.92-.04 5.15-.77 7.97h-2l-1-7.12-.29-2.02A72 72 0 0 1 1087 175" fill="#EFF0F1"/><path d="M968 153c-2.36 3.53-4.23 4.19-8 6l-2.19 1.69C956 162 956 162 953 162c2.44-5.86 8.52-10.01 15-9" fill="#E9E8EA"/><path d="M1008 100c3.71.86 7.36 1.89 11 3l-2 2c-2.57-.21-2.57-.21-5.69-.81l-3.24-.61-3.07-.58a406 406 0 0 0-7-1c3.56-2.37 5.89-2.51 10-2" fill="#D3D4D5"/><path d="M246 476a47 47 0 0 1 3.62 9.06l.79 2.6C251 490 251 490 251 493c-3-1-3-1-4.06-2.62-3.27-8.28-3.27-8.28-2.06-12.32z" fill="#D4D4D5"/><path d="M867 285c3.87 3.47 5.59 6.02 7 11l2 3h-2l-1 2-7-15z" fill="#DFDFDF"/><path d="M899 245c-1.39 4.43-3.52 6.96-7 10h-2l-1-3 1-2h2l1-2c2.54-3 2.54-3 6-3" fill="#1D1D20"/><path d="M1029 167a38 38 0 0 1 9 12v3h-2c-1.44-2.05-1.44-2.05-3-4.75l-1.56-2.67A129 129 0 0 1 1028 168z" fill="#E9EAEB"/><path d="M244 337v2l-2.27.33-2.98.48-2.95.46c-2.94.77-4.47 1.85-6.8 3.73h-2c1.47-3.87 3.26-5.29 7-7 6.97-1.51 6.97-1.51 10 0" fill="#EDEEED"/><path d="M291 472c-.57 2.87-.86 3.86-3 6v-2l-3.88.88-2.17.49C280 478 280 478 278 480l-1-4 5.31-2 2.99-1.12c2.7-.88 2.7-.88 5.7-.88" fill="#C2B06A"/><path d="m1084 208 2 1c-8.28 6.88-8.28 6.88-14 7-3.38-.44-3.38-.44-6-1v-1l2.16-.3c6.22-.97 10.51-2.41 15.84-5.7" fill="#D6D6D7"/><path d="M885 388h1l2 21-3 2z" fill="#DDDEDF"/><path d="m546 306 1 2-2.44.81L542 310l-1 3c-2.07 1.17-2.07 1.17-4.56 2.19l-2.51 1.04-1.93.77c.25-1.88.25-1.88 1-4 1.77-1.09 1.77-1.09 4-2a722 722 0 0 0 7.17-3.98z" fill="#EEEEF1"/><path d="M1019 157c3.22 1.41 5.32 3.1 7.75 5.62l1.86 1.92L1030 166l-1 2-3-1v-2l-1.81-.81A15 15 0 0 1 1019 160z" fill="#DCDDD9"/><path d="M159 662h1l.08 1.98c.38 5.81 1.17 9.36 4.92 14.02l2 3c-3.21-.56-4.78-1.31-6.81-3.88-3.29-4.8-2.19-9.66-1.19-15.12" fill="#D1D2D2"/><path d="M580 552h3v3l-12 5-2-2c2.1-2.1 3.32-2.61 6.06-3.56 3.84-1.34 3.84-1.34 4.94-2.44" fill="#1B1E1C"/><path d="M884 428h2a121 121 0 0 1-3 19h-1l-.12-6.69-.08-3.76c.19-3.36.74-5.55 2.2-8.55" fill="#EFEFF2"/><path d="M712 235v2c-4.84 1.34-8.93 2.25-14 2l1-3 5.38-1.06 3.02-.6c2.6-.34 2.6-.34 4.6.66" fill="#E0E0E1"/><path d="M159 655h2l-2 15-2-1c-1.39-4.87-.67-8.28 1-13z" fill="#ECEEEC"/><path d="M684 503v2l-2.19.25c-2.81.75-2.81.75-5.25 2.81-3.1 2.35-4.77 2.29-8.56 1.94a75 75 0 0 1 8.56-5.75l2.32-1.36C681 502 681 502 684 503" fill="#E9E8EA"/><path d="M422 345c2.74 1 3.81 1.66 5.25 4.25.83 3.03.9 5.62.75 8.75l-2 1-2-5.88-1.12-3.3C422 347 422 347 422 345" fill="#E4E5E4"/><path d="M881 324c1.91 3.27 2.36 5.99 2.62 9.75l.23 2.98.15 2.27h-2v-3h-2q-.04-2.43-.06-4.88l-.04-2.74c.1-2.38.1-2.38 1.1-4.38" fill="#232226"/><path d="m254 581 3 1-12 12c.42-4.87 2.45-6.79 6-10l1.81-1.81z" fill="#DCDDDF"/><path d="M555 304v2l-13 6v-2l2.44-.81L547 308l1-3c2.46-1.23 4.28-1.07 7-1" fill="#E3E1E5"/><path d="m544 568 6 1c-2.23 2.23-3.66 2.69-6.62 3.62l-2.48.79-1.9.59-2-2c3-2 3-2 7-2z" fill="#202021"/><path d="M884 519c3.17 3.44 3.49 6.44 4 11l1 2-3 1c-1.97-4.93-2.18-8.78-2-14" fill="#EEEDF0"/><path d="M914 227h3c-.95 4.19-1.63 5.72-5.12 8.38L909 237c.62-4 2.55-6.83 5-10" fill="#EAEAEC"/><path d="m639 522 4 2q-2.12 1.05-4.25 2.06l-2.39 1.16c-2.62.87-3.81.71-6.36-.22 2-3 2-3 5.06-3.62L638 523z" fill="#222225"/><path d="m837 234-1 3c-3.49 1.75-6.07 3-10 3v-2c6.5-4 6.5-4 11-4" fill="#EAEAED"/><path d="m206.19 686.94 1.8 1.06c-4.73 1.92-8.3 2.1-13.36 1.63l-3.78-.34-2.85-.3v-1l2.74-.17 3.57-.26 3.56-.24c7.45-.75 7.45-.75 8.32-.38" fill="#D6D9D9"/><path d="m349 575 1 2-1 2 2 1-7 6v-5h2l.94-2.44C348 576 348 576 349 575" fill="#F2F4F6"/><path d="m665 253-1 3c-1.78.8-1.78.8-3.94 1.31l-2.15.55-1.91.14-2-2q1.9-1.04 3.81-2.06l2.15-1.16C662 252 662 252 665 253" fill="#1E1D1F"/><path d="M877 689c-4.75 3.88-4.75 3.88-7 5-1.95-.34-1.95-.34-4.12-.94l-2.2-.59L862 692v-1l4.69-1 2.63-.56c2.62-.43 5.04-.52 7.68-.44" fill="#ADADAF"/><path d="m262 640 4 2q-1.64 1.54-3.31 3.06l-1.87 1.73L259 648l-3-1z" fill="#0C0D0C"/><path d="M237 437a19.6 19.6 0 0 1 2.62 8.75l.23 2.42.15 1.83h-3c-1.3-4.61-.71-8.34 0-13" fill="#D1D2D2"/><path d="m240.5 339.31 2.41.24C245 340 245 340 247 342c-8.19 1.45-8.19 1.45-11.56-.44L234 340c2.47-1.24 3.77-.99 6.5-.69" fill="#0E0E11"/><path d="M632 262c2 1 2 1 3 3q-1.9.84-3.81 1.62l-2.15.92-2.04.46-3-2q1.93-1.04 3.88-2.06l2.17-1.16z" fill="#E6E6E9"/><path d="M892 558h2l2 12-3 1a28 28 0 0 1-1.06-8.75l.02-2.42z" fill="#EEEEEF"/><path d="M883 416h1q.33 2.84.62 5.69l.36 3.2c.02 3.25-.57 5.21-1.98 8.11h-1z" fill="#CBCBCD"/><path d="m415 330 1 3h3c.96 4.21 1.13 6.26-1 10q-.76-2.12-1.5-4.25l-.84-2.39C415 334 415 334 415 330" fill="#1D1D1E"/><path d="M404 300c1.88 1.81 1.88 1.81 3 4l-1 3v-2c-3.97-1.8-7.68-2.49-12-3v-1c3.39-.77 6.53-1.46 10-1" fill="#CECED1"/><path d="m579 292 2 3c-1.62 1.56-1.62 1.56-4 3-3.25-.31-3.25-.31-6-1a40 40 0 0 1 8-5" fill="#1E1E21"/><path d="m792 231-1 2-14-1v-1c5.96-1.88 9.14-2.2 15 0" fill="#D4D4D7"/><path d="m366 561 3 1c-1.1 2.99-1.68 3.85-4.62 5.25L362 568q.9-3.03 2-6z" fill="#D4D7D5"/><path d="M254 651c1 3 1 3-.25 5.69L252 659h-3v-2l-2-1z" fill="#E4E6E3"/><path d="m177 638-3.81 3-2.15 1.69C169 644 169 644 166 644c6.05-7.48 6.05-7.48 11-6" fill="#D8DCD8"/><path d="m287 531 8 3-2 4-6-4z" fill="#DDDDE0"/><path d="M409 312c3.44 2.66 4 5.9 5 10h-3c-1.32-3.62-2-6.1-2-10" fill="#1C1C1D"/><path d="m697.38 237.81 1.62 1.2c-2.93 1.94-4.55 2.63-8 3l-2-2c5.41-3.2 5.41-3.2 8.38-2.2" fill="#E8E7EA"/><path d="M895 647h1l1 10 4 1-1 1h-5z" fill="#D8D9D8"/><path d="M558 568c-2.48 2.48-4.67 2.98-8 4l-3 1-2-2q2.12-1.05 4.25-2.06l2.39-1.16c2.62-.87 3.81-.71 6.36.22" fill="#E2E4E3"/><path d="M473 348v2l-9 4c1.46-4.61 1.46-4.61 3.94-6.38C470 347 470 347 473 348" fill="#E0DEE4"/><path d="M965 102v2l-9 2-1-3a439 439 0 0 1 6.05-1.66C963 101 963 101 965 102" fill="#D6D7D6"/><path d="M224 677c-.88 4.75-.88 4.75-2 7h-2v-2l-2-1c3.75-4 3.75-4 6-4" fill="#D9DBD9"/><path d="m826 584 8 4v5l-3.44-2.81-1.93-1.58C827 587 827 587 826 584" fill="#1F1F1D"/><path d="M884 327h1c1.71 5.51 2.46 8.53 0 14h-1q-.3-2.66-.56-5.31l-.32-2.99c-.12-2.7-.12-2.7.88-5.7" fill="#E3E2E5"/><path d="m843 232 2 3-7 5c-.31-2.31-.31-2.31 0-5 2.5-1.81 2.5-1.81 5-3" fill="#18161B"/><path d="m860 219 2 1q-1.6 1.8-3.25 3.56l-1.83 2.01L855 227l-4-1z" fill="#1A1B1A"/><path d="m1062 214 10 1v2c-3.81 1.47-6.29.43-10-1z" fill="#F0F0F1"/><path d="m826 239 1 2c-7.43.29-7.43.29-11-2 3.36-1.68 6.36-.64 10 0" fill="#D7D7D8"/><path d="m352 572 2 1-2 7-3-1c1.88-5.88 1.88-5.88 3-7" fill="#E5E7E8"/><path d="M365 469h1v5h5c-2 2-2 2-4.62 2.12L364 476q-.06-3 0-6z" fill="#D7C184"/><path d="M874 690h2v3h6v1h-11z" fill="#C0BEC1"/><path d="M399 635c0 3 0 3-1.25 4.69C396 641 396 641 392 641c1-3 1-3 4.06-4.69z" fill="#1B1C1C"/><path d="M378 464q2.56 1.93 5 4v2h-5z" fill="#CEB276"/><path d="m232 338 4 2a65 65 0 0 1-9 4c1.37-3.16 1.99-3.99 5-6" fill="#D6D8D5"/><path d="M395 298c2.75.25 2.75.25 5 1l-1 2c-2.65.59-5.29.74-8 1 1.69-2.06 1.69-2.06 4-4" fill="#F0F0F1"/><path d="m867 207 1 4-6 5v-3l3-1c1.19-2.56 1.19-2.56 2-5" fill="#EDEEF0"/><path d="m879 189 2 1a29 29 0 0 1-5 9l-1-2c.78-1.95.78-1.95 1.94-4.12l1.15-2.2z" fill="#DFE0E1"/><path d="M996 148c5.75-.12 5.75-.12 8 1v3l-8-2z" fill="#F0F0F1"/><path d="m1055 126 2.31 2.38A27 27 0 0 0 1063 133v2c-4.27-1.58-6.27-4.51-9-8z" fill="#EAEBEA"/><path d="M330 599c0 3.91-1.51 5.12-4 8l-3-1z" fill="#18191A"/><path d="M262 514c3.16 1.37 3.99 1.99 6 5h-4l-2-2z" fill="#DEDEE2"/><path d="M305 352c-2.93 1.95-4.56 2.65-8 3l-2-2c6.29-2.43 6.29-2.43 10-1" fill="#E3E5E4"/><path d="m860 215 3 1-5 5-2-2z" fill="#D3D3D4"/><path d="m1186 698 3 2-2 4-3-2z" fill="#F4F7F4"/><path d="M214 623c-1.45 3.83-3.43 5.12-7 7 .39-2.8.8-3.82 2.94-5.75C212 623 212 623 214 623" fill="#D9DADA"/><path d="M881 468c2.83 4 1.76 7.43 1 12h-1l-.56-5.44-.32-3.06-.12-2.5z" fill="#F3F3F5"/><path d="M380 458v7c-1.5-1.38-1.5-1.38-3-3v-2l-2-1c3-1 3-1 5-1" fill="#2F2315"/><path d="m1084 208 2 1-6 5-2-1c2.62-3.88 2.62-3.88 6-5" fill="#E6E6E8"/><path d="M952 161c0 3 0 3-2 5.19l-2 1.81-3-1z" fill="#D2D4D2"/><path d="M1074 149c3 1 3 1 4.19 3.06l.81 1.94-2 2c-3-3.62-3-3.62-3-7" fill="#E9E7EA"/><path d="M1017 104c3.38-.12 3.38-.12 7 0l2 2c-2.91.81-4.46 1.22-7.31.06L1017 105z" fill="#E8EBEA"/><path d="m809 572 5 3-2 5c-1.95-2.92-2.45-4.63-3-8" fill="#CFD1CF"/><path d="m890 552 3 1-1 7c-1.76-3.09-2-4.23-2-8" fill="#DADADB"/><path d="M602 544c-2.05 2.25-3.01 3-6 4l-2-2c3.23-2.15 4.28-2.2 8-2" fill="#20211F"/><path d="m887 532 2 2c-.38 3.62-.38 3.62-1 7-1.62-2.57-2.04-3.68-1.62-6.75z" fill="#D6D4D6"/><path d="m883 515 3 2v2h-2v5h-1c-.88-6.15-.88-6.15-1-8z" fill="#DBD9DD"/><path d="M684 503v2l-2.38.44C679 506 679 506 677 507l-2-2c5.62-3.12 5.62-3.12 9-2" fill="#D1D0D0"/><path d="m286 487 11 2v1q-2.19.12-4.38.19l-2.46.1L288 490z" fill="#281C0D"/><path d="M282 476h6v2l-6 2z" fill="#E9C056"/><path d="M505 328c2.12.38 2.12.38 4 1-2.05 2.25-3.01 3-6 4 0-3 0-3 2-5" fill="#E1E1E3"/><path d="m556 300 3 1-1 3-3 1-3-2c1.81-1.56 1.81-1.56 4-3" fill="#F1F0F3"/><path d="M1084 170c3 1 3 1 4.19 3.06l.81 1.94h-2l-1 4z" fill="#D9DCD8"/><path d="m217 697 3 3-3 2-2-3z" fill="#D7D7DB"/></svg>