<svg style="background:transparent" version="1.1" xmlns="http://www.w3.org/2000/svg" viewBox="0 0 1248 704"><path d="M966.8 109.65a266 266 0 0 0 5.75.82 51 51 0 0 1 16.45 5.1c4.7 2.24 9.56 4.04 14.42 5.9 11.61 4.96 21.62 12.16 27.58 23.53.93 4.52.64 8.32-1 12.63-10.96 13-10.96 13-16.77 13.7-14.63-.38-14.63-.38-21.23-3.33a126 126 0 0 0-8-3c-2.72-.9-5.34-1.94-8-3a92 92 0 0 0-12.46-3.44 78 78 0 0 1-6-1.61c-5.86-1.47-11.79-1.2-17.79-1.14h-3.55c-9.26.05-9.26.05-13.2 1.19l-3.75.8c-4.45 1.13-8.25 3-12.25 5.2l-3.44 1.8c-21.89 12.98-26.17 37.19-32.08 60.23a110 110 0 0 0-1.04 4.78c-2.68 13.2-11.4 28.36-20.06 38.55C849 270 849 270 847.5 272.69c-1.82 2.8-3.98 4.54-6.59 6.59-1.9 1.72-1.9 1.72-4.15 4.6-2.96 3.63-6.5 5.73-10.5 8.06A134 134 0 0 0 809 304l1.64 2.82 2.17 3.74 1.08 1.85c2.36 4.09 4.31 8.22 6.11 12.59l1.35 3.1 1.27 2.96 1.3 2.98c1.1 3 1.62 5.8 2.08 8.96l2 7c1.88 7.67 3.16 15.06 2.94 22.99.06 2 .06 2 1.06 5q.15 4.19.13 8.36v7.63l.01 7.93v7.4c-.03 5.58-.03 5.58-1.14 6.69-.07 2.75 0 5.49.06 8.24A28 28 0 0 1 830 431q-.06 2.68 0 5.38c.04 4-.26 7.66-1 11.62v3.25c0 2.75 0 2.75-1 4.75q-.07 3.79 0 7.56.07 3.72 0 7.44l-1 1q-.15 4.3-.13 8.59v24.38c.01 5.92.01 5.92 1.13 7.03.07 2.49 0 4.97-.06 7.46.06 2.38.42 4.26 1.06 6.54a103 103 0 0 1 0 30q-.04 4.77.06 9.52C829 568 829 568 828 569q-.28 2.46-.44 4.94a97 97 0 0 1-3.5 19.3c-.96 3.4-1.74 6.77-2.46 10.22-1.63 7.78-3.57 15.17-6.6 22.54a103 103 0 0 0-4 12l3-1 2 2c2.56.6 5.07 1.09 7.66 1.52l4.81.84 2.55.44c12.32 2.13 24.6 4.35 36.73 7.39l2.76.68c8.78 2.28 16.82 4.8 23.5 11.13-.43 4.89-2.34 6.86-6 10a55 55 0 0 1-7.26 2.63l-2.15.62c-27.3 7.7-56.87 8.29-85.05 8.08l-6.3-.03c-25.79-.1-51.5-.98-77.25-2.3-43.37-2.21-86.56-3.73-130-3l-3.37.06c-55.95.98-111.79 6.29-167.38 12.5l-2.5.28a3236 3236 0 0 0-61.34 7.45c-18.59 2.43-37.22 4.84-56 4.67-4.23.05-8.24.6-12.4 1.29-7.65 1.05-13.2.2-20.59-2.17a63 63 0 0 0-9.55-2.14A22 22 0 0 1 237 695l-2-.37c-4-1.25-6.34-4.58-8.5-8-.77-4.03.44-6.16 2.5-9.63 3.06-1.7 3.06-1.7 6-3 1.18-2.08 1.18-2.08 2-4l-3.33 1.5-4.36 1.94-2.18.98c-7.44 3.3-12.95 3.68-21 2.89l-2.65-.2c-8.79-.84-15.44-4.64-21.48-11.11-3.48-5.8-4.53-12.27-4-19 3.01-9.05 9.66-16.84 17.82-21.67 5.28-2.46 9.48-3.55 15.3-3.27 9.24.4 15.44-5.33 22-11.25q3.47-3.37 6.88-6.81l2.87-2.83c7.48-7.4 14.48-14.86 20.73-23.36 1.92-2.5 4.15-4.62 6.4-6.81 2.42-2.77 4.64-5.4 6.5-8.56 1.8-2.93 4.04-5.04 6.5-7.44l1.7-2.31 1.3-1.7h2l.36-1.8c1.02-3.5 3.36-6.11 5.58-8.94l1.38-1.82A97 97 0 0 1 299 534h2l.81-2.75a21 21 0 0 1 4.2-7.25l-1.66-.3c-5.89-1.16-10.94-3.14-16.35-5.7l-5-2c-17.89-7.35-30.3-20.34-38.1-37.83-2.56-6.2-3.79-12.6-4.9-19.17l-.52-3.03c-2.6-15.88-3.96-31.64-4.76-47.7a360 360 0 0 0-3.4-33.1c-1.24-8.64-1.4-17.2-1.45-25.92v-2.98c.03-15.8.03-15.8 4-20.58l1.56-1.93c3.62-4.06 5.51-5.58 11.2-6.07 8.67.14 16.67 6.06 23.93 10.3a257 257 0 0 0 16.78 9.18c1.92.96 3.75 2.06 5.6 3.14 4.57 2.28 8.18 1.7 13.06.69l2.48-.5q2.51-.5 5.02-1.03c3.2-.6 6.36-.94 9.6-1.22C325 338 325 338 328 337a137 137 0 0 1 18.31-1c8.16.03 12.47-.32 18.7-6l2.55-1.44a19 19 0 0 0 5.13-4.75L375 321h2l.31-1.82c.81-2.55 1.63-3.33 3.7-5l1.88-1.53L385 311l2.32-1.87c8.63-6.86 8.63-6.86 13.55-7.5 5.6.67 8.86 3.78 12.32 8 3.2 4.48 4.51 9.08 5.81 14.37l1.06 3.5c.97 3.63 1.72 7.25 2.44 10.93 1.93 9.87 1.93 9.87 3.5 14.57.26 2.3.44 4.62.62 6.94C427 362 427 362 429 364l2.12-1.31c2.88-1.7 2.88-1.7 5.7-3.06a85 85 0 0 0 7.18-4.13 101 101 0 0 1 10-5.5l5-3 5.75-3.31c4.48-2.6 8.8-5.33 13.02-8.33 2.27-1.4 4.6-2.35 7.05-3.36 5-2.28 9.72-5.11 14.5-7.81l3.26-1.83a573 573 0 0 0 17.3-10.1A86 86 0 0 1 526 309l7.12-3.81c7-3.75 14.07-7.32 21.2-10.81C557 293 557 293 559.43 291.5a60 60 0 0 1 7.53-3.61c3.27-1.43 6.43-3.08 9.6-4.71 3.67-1.8 7.47-3.21 11.3-4.62 2.57-.95 5.05-1.96 7.57-3.06 3.41-1.44 6.82-2.63 10.35-3.75 2.44-.83 4.82-1.78 7.21-2.75l5.44-2 2.74-1a129 129 0 0 1 15.26-4.5c4.57-1.03 9.06-2.18 13.56-3.5 7.46-2 14.9-2.92 22.56-3.74q3.8-.41 7.57-.86c9.2-1.06 17.66-1.53 26.87-.4l5.3.45 2.93.24 5.77.47a111 111 0 0 1 17 2.84l2.5.5 2.5.5 2.05.4A70 70 0 0 1 759 263q3.41.88 6.9 1.57c2.1.43 2.1.43 4.06 1.13 2.9.43 4.37-.57 6.91-1.95l2.67-1.42L782 261l3.25-1.56c2.75-1.44 2.75-1.44 5.87-3.56C794 254 794 254 796.25 253.5l1.75-.5q1.02-1.99 2-4c2.3-1.41 4.43-2.14 7-3q1.05-2.48 2-5a79 79 0 0 1 3.37-4.37c4.41-5.51 7.53-11.3 10.63-17.63l1.62-2.94c1.54-3.42 1.88-6.34 2.38-10.06.93-4.68 1.98-9.34 3-14q.3-1.36.57-2.76A39 39 0 0 1 834 179q1.12-3.28 2.12-6.58A73 73 0 0 1 840 164l1.4-2.96c2.92-6.13 5.78-11.22 10.6-16.04h2l.21-1.71c3.32-9.62 18.5-17.07 26.8-22.3l2.44-1.58c3.37-1.86 6.87-3.16 10.5-4.47l2.08-.78c7.27-2.68 14.33-4.8 21.97-6.16l3.16-.6c15.42-2.64 30.36-.26 45.63 2.25" fill="#121412"/><path d="M966.8 109.65a266 266 0 0 0 5.75.82 51 51 0 0 1 16.45 5.1c4.7 2.24 9.56 4.04 14.42 5.9 11.61 4.96 21.62 12.16 27.58 23.53.93 4.52.64 8.32-1 12.63-10.96 13-10.96 13-16.77 13.7-14.63-.38-14.63-.38-21.23-3.33a126 126 0 0 0-8-3c-2.72-.9-5.34-1.94-8-3a92 92 0 0 0-12.46-3.44 78 78 0 0 1-6-1.61c-5.86-1.47-11.79-1.2-17.79-1.14h-3.55c-9.26.05-9.26.05-13.2 1.19l-3.75.8c-4.45 1.13-8.25 3-12.25 5.2l-3.44 1.8c-21.89 12.98-26.17 37.19-32.08 60.23a110 110 0 0 0-1.04 4.78c-2.68 13.2-11.4 28.36-20.06 38.55C849 270 849 270 847.5 272.69c-1.82 2.8-3.98 4.54-6.59 6.59-1.9 1.72-1.9 1.72-4.15 4.6-2.96 3.63-6.5 5.73-10.5 8.06A134 134 0 0 0 809 304l1.64 2.82 2.17 3.74 1.08 1.85c2.36 4.09 4.31 8.22 6.11 12.59l1.35 3.1 1.27 2.96 1.3 2.98c1.1 3 1.62 5.8 2.08 8.96l2 7c1.88 7.67 3.16 15.06 2.94 22.99.06 2 .06 2 1.06 5q.15 4.19.13 8.36v7.63l.01 7.93v7.4c-.03 5.58-.03 5.58-1.14 6.69-.07 2.75 0 5.49.06 8.24A28 28 0 0 1 830 431q-.06 2.68 0 5.38c.04 4-.26 7.66-1 11.62v3.25c0 2.75 0 2.75-1 4.75q-.07 3.79 0 7.56.07 3.72 0 7.44l-1 1q-.15 4.3-.13 8.59v24.38c.01 5.92.01 5.92 1.13 7.03.07 2.49 0 4.97-.06 7.46.06 2.38.42 4.26 1.06 6.54a103 103 0 0 1 0 30q-.04 4.77.06 9.52C829 568 829 568 828 569q-.28 2.46-.44 4.94a97 97 0 0 1-3.5 19.3c-.96 3.4-1.74 6.77-2.46 10.22-1.63 7.78-3.57 15.17-6.6 22.54a103 103 0 0 0-4 12l3-1 2 2c2.56.6 5.07 1.09 7.66 1.52l4.81.84 2.55.44c12.32 2.13 24.6 4.35 36.73 7.39l2.76.68c8.78 2.28 16.82 4.8 23.5 11.13-.43 4.89-2.34 6.86-6 10a55 55 0 0 1-7.26 2.63l-2.15.62c-27.3 7.7-56.87 8.29-85.05 8.08l-6.3-.03c-25.79-.1-51.5-.98-77.25-2.3-43.37-2.21-86.56-3.73-130-3l-3.37.06c-55.95.98-111.79 6.29-167.38 12.5l-2.5.28a3236 3236 0 0 0-61.34 7.45c-18.59 2.43-37.22 4.84-56 4.67-4.23.05-8.24.6-12.4 1.29-7.65 1.05-13.2.2-20.59-2.17a63 63 0 0 0-9.55-2.14A22 22 0 0 1 237 695l-2-.37c-4-1.25-6.34-4.58-8.5-8-.77-4.03.44-6.16 2.5-9.63 3.06-1.7 3.06-1.7 6-3 1.18-2.08 1.18-2.08 2-4l-3.33 1.5-4.36 1.94-2.18.98c-7.44 3.3-12.95 3.68-21 2.89l-2.65-.2c-8.79-.84-15.44-4.64-21.48-11.11-3.48-5.8-4.53-12.27-4-19 3.01-9.05 9.66-16.84 17.82-21.67 5.28-2.46 9.48-3.55 15.3-3.27 9.24.4 15.44-5.33 22-11.25q3.47-3.37 6.88-6.81l2.87-2.83c7.48-7.4 14.48-14.86 20.73-23.36 1.92-2.5 4.15-4.62 6.4-6.81 2.42-2.77 4.64-5.4 6.5-8.56 1.8-2.93 4.04-5.04 6.5-7.44l1.7-2.31 1.3-1.7h2l.36-1.8c1.02-3.5 3.36-6.11 5.58-8.94l1.38-1.82A97 97 0 0 1 299 534h2l.81-2.75a21 21 0 0 1 4.2-7.25l-1.66-.3c-5.89-1.16-10.94-3.14-16.35-5.7l-5-2c-17.89-7.35-30.3-20.34-38.1-37.83-2.56-6.2-3.79-12.6-4.9-19.17l-.52-3.03c-2.6-15.88-3.96-31.64-4.76-47.7a360 360 0 0 0-3.4-33.1c-1.24-8.64-1.4-17.2-1.45-25.92v-2.98c.03-15.8.03-15.8 4-20.58l1.56-1.93c3.62-4.06 5.51-5.58 11.2-6.07 8.67.14 16.67 6.06 23.93 10.3a257 257 0 0 0 16.78 9.18c1.92.96 3.75 2.06 5.6 3.14 4.57 2.28 8.18 1.7 13.06.69l2.48-.5q2.51-.5 5.02-1.03c3.2-.6 6.36-.94 9.6-1.22C325 338 325 338 328 337a137 137 0 0 1 18.31-1c8.16.03 12.47-.32 18.7-6l2.55-1.44a19 19 0 0 0 5.13-4.75L375 321h2l.31-1.82c.81-2.55 1.63-3.33 3.7-5l1.88-1.53L385 311l2.32-1.87c8.63-6.86 8.63-6.86 13.55-7.5 5.6.67 8.86 3.78 12.32 8 3.2 4.48 4.51 9.08 5.81 14.37l1.06 3.5c.97 3.63 1.72 7.25 2.44 10.93 1.93 9.87 1.93 9.87 3.5 14.57.26 2.3.44 4.62.62 6.94C427 362 427 362 429 364l2.12-1.31c2.88-1.7 2.88-1.7 5.7-3.06a85 85 0 0 0 7.18-4.13 101 101 0 0 1 10-5.5l5-3 5.75-3.31c4.48-2.6 8.8-5.33 13.02-8.33 2.27-1.4 4.6-2.35 7.05-3.36 5-2.28 9.72-5.11 14.5-7.81l3.26-1.83a573 573 0 0 0 17.3-10.1A86 86 0 0 1 526 309l7.12-3.81c7-3.75 14.07-7.32 21.2-10.81C557 293 557 293 559.43 291.5a60 60 0 0 1 7.53-3.61c3.27-1.43 6.43-3.08 9.6-4.71 3.67-1.8 7.47-3.21 11.3-4.62 2.57-.95 5.05-1.96 7.57-3.06 3.41-1.44 6.82-2.63 10.35-3.75 2.44-.83 4.82-1.78 7.21-2.75l5.44-2 2.74-1a129 129 0 0 1 15.26-4.5c4.57-1.03 9.06-2.18 13.56-3.5 7.46-2 14.9-2.92 22.56-3.74q3.8-.41 7.57-.86c9.2-1.06 17.66-1.53 26.87-.4l5.3.45 2.93.24 5.77.47a111 111 0 0 1 17 2.84l2.5.5 2.5.5 2.05.4A70 70 0 0 1 759 263q3.41.88 6.9 1.57c2.1.43 2.1.43 4.06 1.13 2.9.43 4.37-.57 6.91-1.95l2.67-1.42L782 261l3.25-1.56c2.75-1.44 2.75-1.44 5.87-3.56C794 254 794 254 796.25 253.5l1.75-.5q1.02-1.99 2-4c2.3-1.41 4.43-2.14 7-3q1.05-2.48 2-5a79 79 0 0 1 3.37-4.37c4.41-5.51 7.53-11.3 10.63-17.63l1.62-2.94c1.54-3.42 1.88-6.34 2.38-10.06.93-4.68 1.98-9.34 3-14q.3-1.36.57-2.76A39 39 0 0 1 834 179q1.12-3.28 2.12-6.58A73 73 0 0 1 840 164l1.4-2.96c2.92-6.13 5.78-11.22 10.6-16.04h2l.21-1.71c3.32-9.62 18.5-17.07 26.8-22.3l2.44-1.58c3.37-1.86 6.87-3.16 10.5-4.47l2.08-.78c7.27-2.68 14.33-4.8 21.97-6.16l3.16-.6c15.42-2.64 30.36-.26 45.63 2.25m-110.1 33.39C842.8 158.08 836.37 177.42 832 197c-5.34 23.79-14.3 43.66-35 58a273 273 0 0 1-14 8l-2.8 1.65c-5.87 3.3-9.69 4.12-16.2 2.35q-4.7-1.45-9.36-2.98c-8.72-2.8-17.64-4.44-26.64-6.02l-3.7-.7c-19.43-3.05-41.95-2.95-61.3.7l-2.6.49c-28.86 5.59-56.73 15.2-83.4 27.5q-1.64.75-3.35 1.5c-12.05 5.47-23.73 11.7-35.44 17.83l-8.37 4.35c-17.64 9.16-34.83 19.12-51.98 29.16a2672 2672 0 0 1-27.46 15.8l-7.02 4-4.26 2.43-1.89 1.09c-3.98 2.26-8 4.1-12.23 5.85l-.4-3.9c-4.95-44.34-4.95-44.34-16.6-57.1-3-2.1-4.5-2.97-8.19-3.2-9.9 3.1-17.55 12.7-24.62 19.95l-5.46 5.55-2.39 2.45c-7 6.75-7 6.75-11.84 6.72l-2.65.03H350c-9.68.19-19.1 1.14-28.69 2.5l-3.8.54c-9.34 1.36-9.34 1.36-13.5 2.46-13.85 2.2-27.66-9.85-38.94-16.8-13.2-8.07-13.2-8.07-21.07-7.2-4.12 1.82-6.6 4.2-9 8-2.23 6.8-2.39 13.73-2.38 20.8v3.5c.14 11.56 1.48 22.9 2.9 34.35a273 273 0 0 1 1.98 27.54c.26 11.83 1.83 23.15 3.97 34.77q.78 4.57 1.4 9.15c2.8 19.47 9 33.97 24.7 46.52 12.48 9.02 27.95 15.69 43.43 16.37a482 482 0 0 1-46.83 59.65q-2.99 3.25-5.86 6.6a152 152 0 0 1-8.58 8.99 93 93 0 0 0-4.86 5.45c-8.18 9.4-19.8 22.7-32.86 23.78q-3.14.14-6.28.2c-7.79.2-12.73 2.97-18.04 8.52-4.65 5.97-7.49 13.03-7.07 20.65 1.13 6.45 4.45 10.92 9.52 14.9 8.97 6.03 20.18 6.55 30.61 4.8 5.75-1.57 10.76-4.26 15.9-7.23C239 666 239 666 242 665l-1.5 2.75c-2.65 6.2-2.39 13.24-.5 19.63 5.21 6.83 12.62 11 21 12.62 13.05 1.26 25.15.97 37-5l1.97-1c10.21-5.21 19.86-11.34 29.5-17.54q10.02-6.43 20.22-12.58 11.71-7.09 23.26-14.42 5.95-3.79 11.95-7.46a826 826 0 0 0 61.1-41l4.2-3.08 4.11-3.04 1.78-1.31a96 96 0 0 0 8.66-7.17c7.84-7.35 15.21-10.83 25.5-13.73 4.12-1.16 8.2-2.44 12.3-3.71l2.46-.75c29.76-9.18 57.88-24.08 85.68-37.96l2.64-1.32a1577 1577 0 0 0 32.46-16.71 839 839 0 0 1 15.21-7.84l2.55-1.31 2.45-1.23 2.12-1.08C650 500 650 500 653 500l.85 1.86C661.9 519.32 670.23 535.5 683 550q1.12 1.3 2.28 2.6A392 392 0 0 0 692 560l1.9 2.05c8.21 8.6 17.91 15.3 27.92 21.62 12.61 8 23.4 15.15 27.47 30.12a81 81 0 0 1 1.71 12.2q-1.09.07-2.2.12c-5.59.38-9.98.79-14.8 3.89l-2.56 1.63c-5.49 5.34-7.76 10.43-7.94 18.12.04 4.66.68 7.5 3.5 11.25 1.83 1.48 1.83 1.48 3.81 2.63l2.15 1.24L735 666q1.49.82 3 1.69c13.16 5.75 31.84 5.7 45.31 1.06 11.85-4.91 17.85-15.57 22.8-26.91 4.03-9.9 6.88-20.26 9.9-30.5q1.23-4.14 2.53-8.26c6.98-22.63 8.01-45.48 7.7-68.96l-.03-2.03a121 121 0 0 0-.7-10.94c-.56-5.22-.7-10.4-.75-15.64l-.03-3.02-.04-9.8-.02-3.43c-.02-17.72.84-35.24 2.33-52.88 3.8-45.35 4.42-87.95-19.27-128.38-1.33-2.31-2.58-4.6-3.73-7l2.58-.78c13-4.65 23.82-13.54 33.42-23.22l1.67-1.5c20.26-18.43 28.12-48.8 33.64-74.62 3.9-15.75 13.3-30.27 27.14-38.83Q904.22 161 906 160l3.23-1.9c9.5-4.5 19.01-4.65 29.33-4.66l2.12-.01c15.38 0 29.15 3.08 43.51 8.7l7.04 2.69 3.07 1.2c7.22 2.63 15.9 3.68 23.25 1.07 5.3-3.11 8.5-7.24 10.45-13.1.72-6.98-.88-11.31-5-17-11.54-14.08-38.76-21.6-56-25l-2.65-.53c-7.92-1.48-15.62-1.77-23.66-1.71l-3.89.02c-31.47.36-58.15 10.22-80.1 33.27" fill="#BBBDBB"/><path d="M654 500c1.31 1.97 1.31 1.97 2.45 4.57l1.3 2.88 1.37 3.11C665.8 525.09 673.4 537.97 684 550l2.32 2.65q3.3 3.71 6.68 7.35l1.66 1.83c7.4 7.79 16.35 14.02 25.4 19.73 26.1 16.48 26.1 16.48 30.33 32.26.81 4.2.9 7.92.61 12.18l-2.75.45c-7.23 1.33-12.64 2.75-18.38 7.44-1.87 1.11-1.87 1.11-3.56.71L724 634q-3.4-.31-6.83-.5l-2.08-.12-6.9-.38-2.45-.13c-21.9-1.15-43.81-1.61-65.74-1.87l-3.02-.04c-52.76-.6-105.53 1.24-158.1 5.54l-2.24.18c-9.48.78-18.9 1.8-28.34 3.03q-5.27.67-10.55 1.3c-44.43 5.39-44.43 5.39-63.75 8.99 1.2-3.61 1.98-3.87 5.18-5.72l2.71-1.61 2.99-1.73c19.64-11.7 38.59-24.54 57.12-37.94l2.33-1.67 7.36-5.33 2.19-1.58a102 102 0 0 0 10.2-8.32c8.14-7.65 15.51-11.52 26.24-14.5 4.11-1.15 8.18-2.42 12.26-3.67l2.46-.75c29.76-9.09 57.88-24.06 85.65-37.93l2.64-1.32a1641 1641 0 0 0 34.65-17.86q6.46-3.42 12.96-6.76l2.53-1.33 2.43-1.24 2.11-1.09c2.5-.82 3.61-.77 5.99.35" fill="#ECEEEC"/><path d="M966.8 109.65a266 266 0 0 0 5.75.82 51 51 0 0 1 16.45 5.1c4.7 2.24 9.56 4.04 14.42 5.9 11.61 4.96 21.62 12.16 27.58 23.53.93 4.52.64 8.32-1 12.63-10.96 13-10.96 13-16.77 13.7-14.63-.38-14.63-.38-21.23-3.33a126 126 0 0 0-8-3c-2.72-.9-5.34-1.94-8-3a92 92 0 0 0-12.46-3.44 78 78 0 0 1-6-1.61c-5.86-1.47-11.79-1.2-17.79-1.14h-3.55c-9.26.05-9.26.05-13.2 1.19l-3.75.8c-4.45 1.13-8.25 3-12.25 5.2l-3.44 1.8c-21.89 12.98-26.17 37.19-32.08 60.23a110 110 0 0 0-1.04 4.78c-2.68 13.2-11.4 28.36-20.06 38.55C849 270 849 270 847.5 272.69c-1.82 2.8-3.98 4.54-6.59 6.59-1.9 1.72-1.9 1.72-4.15 4.6-2.96 3.63-6.5 5.73-10.5 8.06A134 134 0 0 0 809 304l1.64 2.82 2.17 3.74 1.08 1.85c2.36 4.09 4.31 8.22 6.11 12.59l1.35 3.1 1.27 2.96 1.3 2.98c1.1 3 1.62 5.8 2.08 8.96l2 7c1.88 7.67 3.16 15.06 2.94 22.99.06 2 .06 2 1.06 5q.15 4.19.13 8.36v7.63l.01 7.93v7.4c-.03 5.58-.03 5.58-1.14 6.69-.07 2.75 0 5.49.06 8.24A28 28 0 0 1 830 431q-.06 2.68 0 5.38c.04 4-.26 7.66-1 11.62v3.25c0 2.75 0 2.75-1 4.75q-.07 3.79 0 7.56.07 3.72 0 7.44l-1 1q-.15 4.3-.13 8.59v24.38c.01 5.92.01 5.92 1.13 7.03.07 2.49 0 4.97-.06 7.46.06 2.38.42 4.26 1.06 6.54a103 103 0 0 1 0 30q-.04 4.77.06 9.52C829 568 829 568 828 569q-.28 2.46-.44 4.94a97 97 0 0 1-3.5 19.3c-.96 3.4-1.74 6.77-2.46 10.22-1.63 7.78-3.57 15.17-6.6 22.54a103 103 0 0 0-4 12l3-1 2 2c2.56.6 5.07 1.09 7.66 1.52l4.81.84 2.55.44c12.32 2.13 24.6 4.35 36.73 7.39l2.76.68c8.78 2.28 16.82 4.8 23.5 11.13-.43 4.89-2.34 6.86-6 10a55 55 0 0 1-7.26 2.63l-2.15.62c-27.3 7.7-56.87 8.29-85.05 8.08l-6.3-.03c-25.79-.1-51.5-.98-77.25-2.3-43.37-2.21-86.56-3.73-130-3l-3.37.06c-55.95.98-111.79 6.29-167.38 12.5l-2.5.28a3153 3153 0 0 0-61.3 7.45c-38.74 5.07-38.74 5.07-55.45 4.7l1-2 3.33-.14c13.41-.65 13.41-.65 18.86-1.8 4.12-.83 8.18-1.3 12.37-1.64 10.18-.83 20.3-2 30.42-3.38 20.56-2.78 41.15-5.23 61.77-7.53l2.61-.3c35.16-3.91 70.32-7.06 105.64-9.2l3.3-.2c61.9-3.74 123.77-2.21 185.61 1.36a1355 1355 0 0 0 78.17 2.16c18.06.03 36.06-.07 54.04-2.07l2.2-.24a200 200 0 0 0 24.92-4.5c5.42-1.3 11.44-2.82 15.76-6.51q.59-2.48 1-5c-7.07-4.56-14.17-6.66-22.3-8.56l-3.78-.91c-19.18-4.56-38.39-7.78-57.92-10.53.65-6.72 2.71-12.9 4.75-19.31l2.2-7.06q1.4-4.58 2.85-9.16c7.37-23.47 8.76-46.93 8.44-71.35l-.03-2.03a121 121 0 0 0-.7-10.94c-.56-5.22-.7-10.4-.75-15.64l-.03-3.02-.04-9.8-.02-3.43c-.02-17.72.84-35.24 2.33-52.88 3.7-44.1 5.14-87.43-18.37-126.71A28 28 0 0 1 804 301l1.66-.87c9.76-5.13 19.1-10.04 27.34-17.45 2-1.68 2-1.68 5-2.68q1.04-1.99 2-4 1.95-2.17 4-4.25c17.22-18.94 24-43.48 29.74-67.9 1.42-6.03 3.07-11.47 5.95-16.97l1.06-2.06c5.64-10.61 12.88-18.6 23.25-24.82l1.77-1.07c10.45-5.94 21.15-6.57 32.92-6.55l2.1-.01c15.33.06 29.1 3.17 43.4 8.76l7.04 2.69 3.07 1.2c7.17 2.6 15.63 3.47 23.03 1.3 5.11-2.7 7.88-6.97 9.67-12.32.72-6.95-.75-11.43-5-17-15.25-16.17-48.57-25.14-70.1-26.14-35.5-.25-65.24 4.04-91.7 29.58-15.3 15.82-22.5 35.46-27.2 56.56-5.38 24-14.84 44.7-35.9 58.96A252 252 0 0 1 787 262l-1.8 1.05c-12.4 7.1-12.4 7.1-18.7 5.74l-2.5-.8-3.4-1.06q-2.99-.94-5.96-1.91c-8.72-2.8-17.64-4.44-26.64-6.02l-3.7-.7c-19.43-3.05-41.95-2.95-61.3.7l-2.6.49c-28.86 5.59-56.73 15.2-83.4 27.5q-1.64.75-3.35 1.5c-12.05 5.47-23.73 11.7-35.44 17.83l-8.37 4.35c-17.64 9.16-34.83 19.12-51.98 29.16a2939 2939 0 0 1-38.92 22.3l-1.97 1.1q-2.47 1.4-4.97 2.77l-2.25 1.24C428 368 428 368 425 368a160 160 0 0 1-3.88-17.44c-5.3-33.34-5.3-33.34-13.56-42.75-3.1-2.2-4.75-2.9-8.56-2.81-11.09 4.69-19.74 15.64-28.02 24.06q-2.98 3-5.98 5.94l-2.39 2.48c-4.06 2.37-7.99 2.03-12.6 2.02-9.69.19-19.12 1.14-28.7 2.5l-3.8.54c-9.34 1.36-9.34 1.36-13.5 2.46-13.85 2.2-27.66-9.85-38.94-16.8-13.2-8.07-13.2-8.07-21.07-7.2-4.56 1.9-6.68 4.69-9 9-3.5 17.67-.95 36.62 1.22 54.32a293 293 0 0 1 2.28 29.87c.26 11.83 1.83 23.15 3.97 34.77q.78 4.57 1.4 9.15c2.7 18.8 8.46 33.33 23.63 45.45 12.78 9.27 28 14.83 43.5 17.44a34 34 0 0 1-5.45 9.77l-2.07 2.7-4.28 5.52-6.2 8q-.9 1.2-1.86 2.4c-8.3 10.72-16.72 21.28-25.93 31.22a266 266 0 0 0-5.9 6.64c-2.72 3.14-5.6 6.06-8.56 8.97-1.83 1.86-3.54 3.8-5.25 5.78a126 126 0 0 1-20.5 19l-2.08 1.58c-4.85 3.22-9.19 3.75-14.92 3.92-7.86.24-13.2 1.58-18.77 7.33-5.04 6.22-7.9 12.86-7.58 20.94.85 5.46 3.3 9.18 7.16 13.04 9.61 6.59 20.6 7.63 31.94 5.73 6.61-1.8 12.34-5.15 18.25-8.54q2-1.02 4-2l-.66 1.55c-2.88 7.52-3.57 15-1.4 22.83 6.25 7.96 16.37 11.69 26.21 12.88 4.61.42 9.22.62 13.85.74v2c-8.88 1.38-15.82.64-24.4-1.95a75 75 0 0 0-9.73-2.11A22 22 0 0 1 237 695l-2-.37c-4-1.25-6.34-4.58-8.5-8-.77-4.03.44-6.16 2.5-9.63 3.06-1.7 3.06-1.7 6-3 1.18-2.08 1.18-2.08 2-4l-3.33 1.5-4.36 1.94-2.18.98c-7.44 3.3-12.95 3.68-21 2.89l-2.65-.2c-8.79-.84-15.44-4.64-21.48-11.11-3.48-5.8-4.53-12.27-4-19 3.01-9.05 9.66-16.84 17.82-21.67 5.28-2.46 9.48-3.55 15.3-3.27 9.24.4 15.44-5.33 22-11.25q3.47-3.37 6.88-6.81l2.87-2.83c7.48-7.4 14.48-14.86 20.73-23.36 1.92-2.5 4.15-4.62 6.4-6.81 2.42-2.77 4.64-5.4 6.5-8.56 1.8-2.93 4.04-5.04 6.5-7.44l1.7-2.31 1.3-1.7h2l.36-1.8c1.02-3.5 3.36-6.11 5.58-8.94l1.38-1.82A97 97 0 0 1 299 534h2l.81-2.75a21 21 0 0 1 4.2-7.25l-1.66-.3c-5.89-1.16-10.94-3.14-16.35-5.7l-5-2c-17.89-7.35-30.3-20.34-38.1-37.83-2.56-6.2-3.79-12.6-4.9-19.17l-.52-3.03c-2.6-15.88-3.96-31.64-4.76-47.7a360 360 0 0 0-3.4-33.1c-1.24-8.64-1.4-17.2-1.45-25.92v-2.98c.03-15.8.03-15.8 4-20.58l1.56-1.93c3.62-4.06 5.51-5.58 11.2-6.07 8.67.14 16.67 6.06 23.93 10.3a257 257 0 0 0 16.78 9.18c1.92.96 3.75 2.06 5.6 3.14 4.57 2.28 8.18 1.7 13.06.69l2.48-.5q2.51-.5 5.02-1.03c3.2-.6 6.36-.94 9.6-1.22C325 338 325 338 328 337a137 137 0 0 1 18.31-1c8.16.03 12.47-.32 18.7-6l2.55-1.44a19 19 0 0 0 5.13-4.75L375 321h2l.31-1.82c.81-2.55 1.63-3.33 3.7-5l1.88-1.53L385 311l2.32-1.87c8.63-6.86 8.63-6.86 13.55-7.5 5.6.67 8.86 3.78 12.32 8 3.2 4.48 4.51 9.08 5.81 14.37l1.06 3.5c.97 3.63 1.72 7.25 2.44 10.93 1.93 9.87 1.93 9.87 3.5 14.57.26 2.3.44 4.62.62 6.94C427 362 427 362 429 364l2.12-1.31c2.88-1.7 2.88-1.7 5.7-3.06a85 85 0 0 0 7.18-4.13 101 101 0 0 1 10-5.5l5-3 5.75-3.31c4.48-2.6 8.8-5.33 13.02-8.33 2.27-1.4 4.6-2.35 7.05-3.36 5-2.28 9.72-5.11 14.5-7.81l3.26-1.83a573 573 0 0 0 17.3-10.1A86 86 0 0 1 526 309l7.12-3.81c7-3.75 14.07-7.32 21.2-10.81C557 293 557 293 559.43 291.5a60 60 0 0 1 7.53-3.61c3.27-1.43 6.43-3.08 9.6-4.71 3.67-1.8 7.47-3.21 11.3-4.62 2.57-.95 5.05-1.96 7.57-3.06 3.41-1.44 6.82-2.63 10.35-3.75 2.44-.83 4.82-1.78 7.21-2.75l5.44-2 2.74-1a129 129 0 0 1 15.26-4.5c4.57-1.03 9.06-2.18 13.56-3.5 7.46-2 14.9-2.92 22.56-3.74q3.8-.41 7.57-.86c9.2-1.06 17.66-1.53 26.87-.4l5.3.45 2.93.24 5.77.47a111 111 0 0 1 17 2.84l2.5.5 2.5.5 2.05.4A70 70 0 0 1 759 263q3.41.88 6.9 1.57c2.1.43 2.1.43 4.06 1.13 2.9.43 4.37-.57 6.91-1.95l2.67-1.42L782 261l3.25-1.56c2.75-1.44 2.75-1.44 5.87-3.56C794 254 794 254 796.25 253.5l1.75-.5q1.02-1.99 2-4c2.3-1.41 4.43-2.14 7-3q1.05-2.48 2-5a79 79 0 0 1 3.37-4.37c4.41-5.51 7.53-11.3 10.63-17.63l1.62-2.94c1.54-3.42 1.88-6.34 2.38-10.06.93-4.68 1.98-9.34 3-14q.3-1.36.57-2.76A39 39 0 0 1 834 179q1.12-3.28 2.12-6.58A73 73 0 0 1 840 164l1.4-2.96c2.92-6.13 5.78-11.22 10.6-16.04h2l.21-1.71c3.32-9.62 18.5-17.07 26.8-22.3l2.44-1.58c3.37-1.86 6.87-3.16 10.5-4.47l2.08-.78c7.27-2.68 14.33-4.8 21.97-6.16l3.16-.6c15.42-2.64 30.36-.26 45.63 2.25" fill="#E6E8E7"/><path d="M679 408h1l.01 2.27c.13 13.65.56 26.94 3.3 40.35l.61 2.99c1.29 5.88 3.07 11.4 5.29 16.99.77 2.33.97 3.98.85 6.4l-.06 3q1.49 1.51 3 3c.92 2.02.92 2.02 1.75 4.38 7.68 19.85 21.9 39.49 37.07 54.39C734 544 734 544 735 547h2a56 56 0 0 1 4.06 4.81l2.16 2.71C745 557 745 557 746 560l1.79.84c7.87 4.13 14.18 16.87 17.28 24.95 3.6 12.45 2.2 25.04-3.23 36.7-1.09 1.95-1.09 1.95-2.84 4.51-5.75.12-5.75.12-8-1q-.54-3.24-.88-6.5c-1.56-11.76-5.75-19.53-15.16-26.87a315 315 0 0 0-14.75-10.1c-27.84-18.14-47.34-41.9-62.4-71.34l-1.17-2.27c-1.87-3.77-3.16-6.6-2.64-10.92l-2-1 2.31-.7 3.13-.99 3.06-.95c4.41-1.72 8.41-3.98 12.5-6.36l-.02-2.25c-.33-54.56-.33-54.56 6.02-77.75" fill="#010101"/><path d="m251 320 2 2-1 2h-3l1.91.88a73 73 0 0 1 13.95 8.44c2.56 2.01 5.19 3.9 7.83 5.8 11.04 7.96 11.04 7.96 13.31 12.88-1.38 4.13-3.46 4.71-7.19 6.88-3.68 2.17-7.27 4.29-10.5 7.12-2.31 2-2.31 2-4.31 2l-.82 1.8a23 23 0 0 1-3.99 5.32c-3.68 4.16-5.91 8.86-8.19 13.88h-2l-.38 2.56A94 94 0 0 1 246 402h-3c-2.99-11.03-5.75-22.51-5-34h-2l-2 4c-1.11-7.15-1.18-14.21-1.19-21.44l-.03-3.56c-.03-17.5-.03-17.5 5.16-23l1.52-1.69c3.42-2.92 7.27-2.54 11.54-2.31" fill="#262824"/><path d="M405 305c14.08 10.64 16.56 37.71 19 54q.56 4.5 1 9l-2-2c-1.35 2.7-1.34 5.12-1.56 8.12l-.26 3.33L421 380a89 89 0 0 1-4-4v-2h-2l-.69-2.38c-1.69-3.37-2.84-3.31-6.31-4.62a80 80 0 0 1-3.44-2.94A36 36 0 0 0 395 358l-4.06-2.44c-7.38-4.14-15.61-6.31-23.94-7.56.8-4.19 2.37-8.39 5.44-11.42 2.31-2.34 3.74-5.11 5.38-7.94L379 327h2l.79-1.74a34 34 0 0 1 4.65-6.45l1.81-2.1C390 315 390 315 393 314v-2h2l-2-5c4.42-2.63 7.03-3.69 12-2" fill="#222421"/><path d="m375 552 5 2c-1.56 3.74-3.87 6.11-6.73 8.96l-1.41 1.41-2.97 2.95-4.46 4.44a264 264 0 0 1-14.49 13.51c-3.82 3.4-7.36 7.09-10.94 10.73-4.88 4.97-9.8 9.79-15.08 14.33-3.17 2.75-6.19 5.66-9.23 8.55A295 295 0 0 1 296 635l-3.84 3.11-4.04 3.27-1.91 1.55c-6.35 5.11-10.55 7.5-18.77 7.69-8.54.3-8.54.3-12.44 1.38a90 90 0 0 1 10.94-9.62l3.46-2.64 1.8-1.37a595 595 0 0 0 25.71-20.75c5.49-4.68 11.12-9.21 16.73-13.76q8.68-7.08 17.16-14.41 5.4-4.64 10.95-9.14A357 357 0 0 0 357 567a373 373 0 0 1 18-15" fill="#EAEAED"/><path d="M234 372h1c1.68 13.9 3.13 27.68 3.44 41.69.3 11.99 1.86 23.49 4.03 35.27q.78 4.57 1.4 9.15c2.7 18.81 8.46 33.32 23.63 45.45 12.78 9.27 27.99 14.83 43.5 17.44a34 34 0 0 1-5.45 9.77l-2.07 2.69-2.17 2.79-2.1 2.74L293 547l-1.86 2.4c-8.3 10.71-16.72 21.27-25.93 31.21a266 266 0 0 0-5.9 6.64c-2.72 3.14-5.6 6.06-8.56 8.97-1.83 1.86-3.54 3.8-5.25 5.78a126 126 0 0 1-20.5 19l-2.08 1.58c-4.85 3.22-9.19 3.75-14.92 3.92-7.86.24-13.21 1.58-18.77 7.33-5.04 6.22-7.9 12.85-7.58 20.94.85 5.46 3.3 9.18 7.16 13.04 9.61 6.59 20.59 7.63 31.94 5.73 6.61-1.8 12.34-5.15 18.25-8.54q2-1.02 4-2l-.66 1.55c-2.88 7.52-3.57 15.01-1.4 22.83 6.25 7.96 16.37 11.68 26.21 12.88 4.61.42 9.22.62 13.85.74v2c-8.88 1.38-15.82.64-24.41-1.95a75 75 0 0 0-9.71-2.11A22 22 0 0 1 237 695l-2-.38c-4-1.24-6.33-4.57-8.5-8-.77-4.02.44-6.15 2.5-9.62 3.06-1.69 3.06-1.69 6-3 1.18-2.08 1.18-2.08 2-4l-3.32 1.5-4.37 1.94-2.18.98c-7.44 3.3-12.95 3.68-21.01 2.89l-2.64-.2c-8.79-.84-15.43-4.64-21.48-11.11-3.48-5.79-4.53-12.28-4-19 3.01-9.05 9.66-16.85 17.82-21.67 5.28-2.46 9.48-3.55 15.3-3.27 9.24.41 15.45-5.33 21.99-11.25q3.48-3.37 6.89-6.81l2.87-2.83c7.48-7.4 14.48-14.86 20.73-23.36 1.93-2.49 4.15-4.62 6.4-6.81 2.42-2.77 4.64-5.39 6.5-8.56 1.8-2.94 4.04-5.04 6.5-7.44l1.69-2.31L286 551h2l.36-1.8c1.02-3.51 3.36-6.12 5.58-8.95l1.38-1.82A97 97 0 0 1 299 534h2l.81-2.75A22 22 0 0 1 306 524l-1.65-.3c-5.89-1.16-10.94-3.14-16.35-5.7l-5-2c-17.89-7.35-30.3-20.34-38.11-37.83-2.54-6.19-3.78-12.6-4.89-19.17l-.51-3.03c-2.66-16.21-4.1-32.35-4.89-48.74l-.11-2.11-.26-5.66c-.23-3.46-.23-3.46-.76-7.13a35 35 0 0 1-.35-7.73l.15-2.26.17-2.28.16-2.36q.18-2.85.4-5.7" fill="#E4E5E5"/><path d="M389 436c9.04 3.65 9.04 3.65 11 6 1.31 6.51-.44 12.52-4 18-5.61 6.41-11.29 9.56-19.71 10.35-9.2.46-16.9-.63-24.05-6.89C351 462 351 462 351 460h-3v-8h2v-2l3-2q1.6-2.96 3-6c3.04-.08 5.07.02 8 1 1.83-.49 1.83-.49 3.81-1.31l2.16-.85 4.84-2.03c4.72-1.2 9.35-.97 14.19-.81z" fill="#171814"/><path d="m281 446 2 2 2-2c3.07-.18 6.13.29 9.19.62l2.54.22c6.59.69 11.46 2.35 16.27 7.16l3 1a15.6 15.6 0 0 1 3.5 8.06c-.5 2.94-.5 2.94-2.31 5-9.02 5.49-16.47 8.38-27.19 6.94-8.15-2.13-15.46-7.93-20-15-.64-2.68-.77-5.24-1-8 3.9-2.79 7.38-4.68 12-6" fill="#161511"/><path d="M810 309h2c12.6 24.63 12.6 24.63 14 34l2 7c1.88 7.67 3.16 15.06 2.94 22.98C831 375 831 375 832 378q.15 4.18.13 8.35l.01 2.47-.01 5.16.01 7.93-.01 5 .01 2.41c-.03 5.57-.03 5.57-1.14 6.68-.07 2.75 0 5.49.06 8.24A28 28 0 0 1 830 431q-.06 2.68 0 5.38c.04 4.01-.26 7.66-1 11.62v3.25c0 2.75 0 2.75-1 4.75q-.07 3.78 0 7.56.07 3.72 0 7.44l-1 1q-.15 4.3-.13 8.59l-.01 2.62.01 5.47-.01 8.42.01 5.31-.01 2.56c.03 5.92.03 5.92 1.14 7.03.07 2.49 0 4.97-.06 7.46.06 2.4.47 4.23 1.06 6.54 1.13 6.51.88 12.53.06 19.06l-.3 2.63q-.37 3.16-.76 6.31h-1l-.15-3.74-.23-5.14-.09-2.43c-.22-4.93-.65-9.78-1.27-14.68-1.48-11.94-1.65-23.8-1.64-35.82v-3.37c0-17.56.91-34.95 2.38-52.44 3.44-41.14 5.6-83-14.68-120.48C810 313 810 313 810 309" fill="#E6E6E8"/><path d="M390 437c4.4.5 7.06 1.63 10 5 1.3 5.58-.11 10.83-2.61 15.86-3.47 5.34-8.74 9.77-14.87 11.7-9.15 1.6-18.43 1.75-26.59-3.14-3.64-2.69-5.47-4.96-6.82-9.28-.11-3.14-.11-3.14 1.91-5.69l2.79-2.33 2.77-2.36C359 445 359 445 361 445l.3 1.98c1.13 6.62 2.63 11.31 7.82 15.9 5.45 2.12 10.82 1.88 16.26-.13 4.39-2.93 7.23-5.55 8.62-10.75.57-4.7.7-8.53-2-12.56z" fill="#DDC77A"/><path d="M242 663c0 3 0 3-1 5.44a35 35 0 0 0-.06 18.94c6.25 7.96 16.37 11.68 26.21 12.88 4.61.42 9.22.62 13.85.74v2c-8.88 1.38-15.82.64-24.41-1.95a75 75 0 0 0-9.71-2.11A22 22 0 0 1 237 695l-2-.38c-4-1.24-6.33-4.57-8.5-8-.77-4.02.44-6.15 2.5-9.62 3.06-1.69 3.06-1.69 6-3l2-4-16 7-3-3 1.8-.45c8.15-2.2 15.19-5.88 22.2-10.55" fill="#D1D2D3"/><path d="M854 142h3a46 46 0 0 1-5.19 8.38c-9.98 14.16-15.07 29.89-18.81 46.62-5.39 24.04-14.9 45.03-36.18 59.1C782.7 265 782.7 265 778 265v-2l1.98-.95c8.01-3.93 8.01-3.93 11.4-6.3C794 254 794 254 796.25 253.5l1.75-.5q1.02-1.99 2-4c2.3-1.41 4.43-2.14 7-3q1.05-2.48 2-5 1.6-2.25 3.38-4.38c4.4-5.5 7.52-11.29 10.62-17.62l1.62-2.94c1.54-3.42 1.88-6.34 2.38-10.06.93-4.68 1.98-9.34 3-14l.57-2.77A39 39 0 0 1 834 179a187 187 0 0 0 2.12-6.59c1.07-2.93 2.46-5.63 3.88-8.41l1.39-2.96c2.93-6.13 5.79-11.22 10.61-16.04h2z" fill="#E9EAEC"/><path d="m281 446 1 2-1 3c-.37 5.59-.3 9.26 3 14 3.7 3.79 7.14 6.37 12.56 6.56 5.45-.41 9.74-1.95 13.75-5.75 2.15-3.58 2.86-6.72 3.69-10.81h2c2.06 2.7 2.95 4.7 3.5 8.06-.5 2.94-.5 2.94-2.31 5-9.02 5.49-16.47 8.38-27.19 6.94-8.15-2.13-15.46-7.93-20-15-.64-2.68-.77-5.24-1-8 3.9-2.79 7.38-4.68 12-6" fill="#D7C175"/><path d="M234 372h1c1.68 13.9 3.13 27.68 3.44 41.69.3 11.99 1.86 23.49 4.03 35.27q.78 4.57 1.4 9.15c1.98 13.77 5.31 25.82 14.13 36.89l-2 2c-9.29-10.87-13.66-24.14-16-38l-.51-3.03c-2.66-16.21-4.1-32.35-4.89-48.74l-.11-2.11-.26-5.66c-.23-3.46-.23-3.46-.76-7.13a35 35 0 0 1-.35-7.73l.15-2.26.17-2.28.16-2.36q.18-2.85.4-5.7" fill="#E3E5E3"/><path d="M826 534h1l1 9h1c1.03 4.7.69 8.27 0 13q-.04 4.77.06 9.52C829 568 829 568 828 569q-.27 2.46-.44 4.94a97 97 0 0 1-3.51 19.31c-.95 3.39-1.72 6.76-2.45 10.21a140 140 0 0 1-7.65 25.1C813 631 813 631 812 634.75l-1 3.25-2 1 2 2h-4c.65-6.72 2.71-12.9 4.75-19.31l2.19-7.06 2.86-9.16c7.32-23.29 8.89-47.21 9.2-71.47" fill="#EEEFF0"/><path d="m257 495 3.44 2.56 2.24 1.67q2.21 1.68 4.33 3.48C279.16 512.92 295.53 518.4 311 521a34 34 0 0 1-5.45 9.77l-2.07 2.69-2.17 2.79-2.1 2.74L293 547l-1.92 2.48a1010 1010 0 0 1-9.52 12.08l-2.06 2.57L278 566l-2-1c.48-4.28 2.99-6.13 6-9l2.19-2.81L286 551h2l.36-1.8c1.02-3.51 3.36-6.12 5.58-8.95l1.38-1.82A97 97 0 0 1 299 534h2l.81-2.75A22 22 0 0 1 306 524l-1.65-.3c-5.89-1.16-10.94-3.14-16.35-5.7l-5-2a67 67 0 0 1-17.06-9.88l-2.54-1.99A41 41 0 0 1 257 497z" fill="#E6E7E7"/><path d="M343.56 471.5 345 473c-.6 5.49-.6 5.49-2.44 7.88C341 482 341 482 339 482l.12 2.88C339 488 339 488 337 490c-4.56-.56-4.56-.56-6-2a93 93 0 0 1 0-5l-2.44-.94C326 481 326 481 325 480c-.47-5.33-.47-5.33 1.25-7.81 4.75-3.22 12.43-3.55 17.31-.69" fill="#646562"/><path d="M994.3 165.02a30 30 0 0 0 11.25 2.08l2.56-.01 2.64-.02 2.7-.02 6.55-.05c-2.18 2.65-3.31 3.9-6.76 4.43l-3.05-.11-3.21-.12c-5.4-.36-10.02-.98-14.98-3.2a133 133 0 0 0-8-3c-2.71-.9-5.34-1.93-8-3a89 89 0 0 0-12.46-3.43 84 84 0 0 1-6-1.62c-5.85-1.47-11.8-1.2-17.8-1.13h-3.53c-9.4.05-9.4.05-13.21 1.18v-3c23.02-7.67 50.16 2.8 71.3 11.02" fill="#EDEEED"/><path d="M634 264c-2.44 2.44-4.34 2.93-7.62 4l-3.55 1.17-1.89.63a457 457 0 0 0-55.99 22.86A77 77 0 0 1 556 296c.93-2.32 1.54-3.71 3.69-5.06L562 290c4.97-2.09 9.77-4.36 14.57-6.82 3.68-1.79 7.47-3.21 11.31-4.62 2.56-.95 5.05-1.96 7.56-3.06 3.41-1.44 6.82-2.63 10.35-3.75 2.44-.83 4.82-1.79 7.21-2.75l8.28-3q2.73-1 5.39-2.15c2.83-1.03 4.47-.67 7.33.15" fill="#EAEAEB"/><path d="m281 446 1 2-1 3c-.2 5.76.26 11.29 1 17-1.77.7-1.77.7-4 1-5.33-3.62-8.28-8.33-9.5-14.56.5-2.44.5-2.44 3.12-4.63 3.11-1.66 6-2.84 9.38-3.81" fill="#F7DA64"/><path d="M356 450c2.29.1 2.29.1 5 1 2.02 3.21 3.48 6.54 5.06 10 1.94 3 1.94 3 5.16 4.41l2.78.59v2h-8v-2l-3.75.19c-2.9 0-4.13-.12-6.75-1.5C354 463 354 463 354 460h-2l-1-5 3-1c1.19-2.06 1.19-2.06 2-4" fill="#EECE67"/><path d="m738 257 5 1 2.05.4A70 70 0 0 1 759 263q3.42.88 6.89 1.57c2.11.43 2.11.43 4.18 1.04 2.96.6 5.18-.55 7.93-1.61l1 2c-4.2 2.69-7.27 3.39-12.22 2.64-4.13-.95-8.12-2.31-12.14-3.62-13.81-4.42-28.26-6.49-42.64-8.02v-2c8.12-2.61 17.94-.05 26 2" fill="#DFDEE0"/><path d="M259 321v1c-5.75.12-5.75.12-8-1-4.99-.38-8.06-.19-12 3-5.72 6.99-5.15 14.72-5.1 23.31l.01 2.93.03 9.2.01 6.26.05 15.3h-2l-.18-2.85-.26-3.77-.24-3.73c-.32-3.65-.32-3.65-.85-6.4-.71-4.87-.61-9.71-.59-14.63l-.02-3.03c.02-16.11.02-16.11 4.02-20.9l1.55-1.93c7.03-7.88 14.49-6.65 23.57-2.76" fill="#ECEEED"/><path d="M255 322c7.17.25 12.15 3.72 18.12 7.44l5.83 3.56 2.57 1.6A54 54 0 0 0 289 338l3.75 2.19c4.57 2.34 8.35 1.94 13.25.81l3-1c2.69.94 2.69.94 5 2v1c-18.47 4.32-28.73-2.42-44.26-11.94q-3.74-2.27-7.49-4.5A176 176 0 0 1 255 322" fill="#DEDFDF"/><path d="m240 322 2 2h-2l.06 3.38C240 331 240 331 239 333a149 149 0 0 0-.44 5.56c-.57 8.18-1.56 16.3-2.56 24.44h-2q-.15-6.88-.22-13.77l-.08-4.68q-.07-3.37-.09-6.75l-.06-2.09c-.01-5.04 1.34-7.8 4.45-11.71z" fill="#191A1A"/><path d="M828 411h1c3 11.69 1.5 23.13.18 34.96-.18 2.04-.18 2.04-.06 5.29-.15 3.48-1.41 5.75-3.12 8.75h-1c-.08-6.54.12-12.99.66-19.51l.2-2.58.64-8.03.43-5.5z" fill="#ECECED"/><path d="M837 281c0 3 0 3-1.21 4.43a69 69 0 0 1-12.3 8.15A79 79 0 0 0 810 303c0 3 0 3 1 6l-2 3-2.5-3.81-1.41-2.15C804 304 804 304 804 301l1.69-.9 7.75-4.16 2.66-1.41a91 91 0 0 0 14.91-10.01A30 30 0 0 1 837 281" fill="#E4E4E6"/><path d="m745.69 626.94 5.3.06a53 53 0 0 1-6.92 3.94A47 47 0 0 0 736 636h-2v4c-3 2.25-3 2.25-6 4-1.31-2.06-1.31-2.06-2-5 2.25-5.11 6.2-8.3 11-11 3.15-1.05 5.39-1.1 8.69-1.06" fill="#0B0D0B"/><path d="M1014 127c7.3 4.65 12.96 10.28 17 18 .94 4.56.65 8.37-1.06 12.69-6.24 7.44-6.24 7.44-8.94 9.31-2.22-.3-2.22-.3-4-1l2.25-1.12c4.09-2.79 6.2-6.22 7.75-10.88.71-6.9-.68-11.52-5-17-3.17-2.91-6.5-5.5-10-8z" fill="#E7E9E8"/><path d="M829 374c3.37 3.37 3.36 4.52 3.42 9.08l-.02 2.46.01 2.52-.02 5.29q-.01 4.06.02 8.11l-.01 5.14.02 2.46c-.03 2.27-.03 2.27-.42 5.94l-3 2z" fill="#F2F2F4"/><path d="M826 534h1l1 9h1c1.03 4.7.69 8.27 0 13q-.04 4.77.06 9.52C829 568 829 568 828 569c-.28 2.81-.45 5.62-.62 8.43C827 580 827 580 825 582h-2l.4-3.14c1.8-14.91 2.22-29.85 2.6-44.86" fill="#CCCDCE"/><path d="M823 342c1.95.83 1.95.83 4 2 .79 2.64.79 2.64 1.19 5.81L829 356c.46 2.47.97 4.88 1.62 7.31.7 5 .22 9.43-2.62 13.69l-.24-2.03-1.14-9.28-.38-3.19A301 301 0 0 0 823 342" fill="#E5E5E7"/><path d="m235 366 1 2h2c1.21 8.69 2.38 17.2 2 26l-3 1c-2.38-9.66-2.2-19.13-2-29" fill="#0B0C0C"/><path d="M832 190h1c.28 6.36-.68 11.7-2.38 17.81l-.67 2.56c-1 3.72-1.79 6.39-3.95 9.63l-3-1 1.44-2.56c1.65-3.63 2.04-6.5 2.56-10.44q.75-3.72 1.56-7.44l.82-3.74.62-2.82h2z" fill="#F0F0F2"/><path d="M287.92 443.95c9.4.44 19.57 1.27 27 7.72A26 26 0 0 1 318 456l-5-2-1 4-.63-2.81c-1.37-3.2-1.37-3.2-3.85-4.8-4.4-1.73-8.52-2.26-13.2-2.7l-2.6-.3c-6.34-.64-6.34-.64-9.72 1.6 2.41-4.97 2.41-4.97 5.92-5.04" fill="#030402"/><path d="M724 647h2l.38 1.88C727 651 727 651 729 653l-1 3h2l.5 2.75c2.1 4.56 4.99 5.46 9.5 7.25l3 1.25 2 .75c-2.85 1.17-3.93 1.03-6.88-.07l-3.12-1.62-3.12-1.57c-3.96-2.39-6.4-4.31-7.88-8.74a73 73 0 0 1-.06-4.69l.02-2.45z" fill="#0B0D0B"/><path d="m356 450 5 1c-1 3-1 3-2 5h2l1 3c-1 1-1 1-3.07 1.1l-2.49-.04-2.51-.02L352 460l-1-5 3-1c1.19-2.06 1.19-2.06 2-4" fill="#F6D271"/><path d="m813 618 4 2-.8 2.16c-3.24 8.77-3.24 8.77-4.32 12.96L811 638l-2 1 2 2h-4a77 77 0 0 1 3.56-15.44l.71-2.21z" fill="#E3E6E6"/><path d="M233 337h1v26h2l-.07-2.08-.05-2.73-.08-2.71c.2-2.48.2-2.48 2.2-5.48v18h-2l-2 4c-1.17-7.34-1.11-14.58-1.06-22l.01-3.79z" fill="#3A3D3B"/><path d="m881 121 2 2-2.27 1.43a119 119 0 0 0-17.57 13.59A67 67 0 0 1 857 143l-2-2c8.01-7.83 16.56-14.01 26-20" fill="#E1E1E2"/><path d="m422 352 3 1c.95 2.5.95 2.5 1.69 5.56l.76 3.07.55 2.37 2.69-1.44A27 27 0 0 1 439 360l1 2-5.81 3-3.27 1.69C428 368 428 368 425 368l-1.5-5.75-.84-3.23C422 356 422 356 422 352" fill="#E2E2E4"/><path d="m282 464 1.47 1.21A43 43 0 0 0 298 473v1c-7.58.5-12.46-.05-19-4v-2h3z" fill="#DBC97B"/><path d="M497 560v2c-1.61 1.52-1.61 1.52-3.75 3.25-2.81 2.35-4.35 3.91-6.25 7.13-2 2.62-2 2.62-4.02 3.21-2.23.29-2.23.29-5.98.41 3.98-5.2 12.93-16 20-16" fill="#030304"/><path d="M281 446c1 2 1 2 .44 3.95l-.88 2.17-.87 2.2L279 456h-1v-6h-4v2h-2v8h2l-1 4c-3.54-3.69-3.59-7.09-4-12 3.9-2.79 7.38-4.68 12-6" fill="#DECF7B"/><path d="M356 442c3.72-.2 4.77-.15 8 2-.55 3.37-1.05 5.08-3 8v-7q-2.49 1.82-4.94 3.69l-2.77 2.07c-2.56 2.5-3.02 3.74-3.29 7.24v2h-2v-8h2v-2l3-2q1.6-2.96 3-6" fill="#201709"/><path d="M233 611c0 3 0 3-1.5 4.68-9.6 8.18-14.74 9.96-27.5 9.32a15 15 0 0 1 8.12-2.25c8.25-.76 14.9-6.4 20.88-11.75" fill="#E1E2E2"/><path d="m396 440 4 2c.38 6.2-.16 10.45-3 16h-3l.5-1.58c.64-3.08.56-5.96.5-9.11q-.07-3.15 0-6.31z" fill="#E9D369"/><path d="M389 436v2l-1.98.08a61 61 0 0 0-18.2 3.98A48 48 0 0 1 360 444c3.13-4.7 7.7-5.52 13-7 12.95-2.52 12.95-2.52 16-1" fill="#050403"/><path d="M191 672c7.51.89 7.51.89 10.25 1.5 3.68.67 7.33.86 11.06 1.06l2.25.13 5.44.31v2c-4.73 1.41-9.09.78-13.94.31l-2.71-.2c-5.27-.5-8.49-1.15-12.35-5.11" fill="#EDEFEF"/><path d="m708.5 253 2.2.29 5.3.71c-3.52 2.2-6.2 2.17-10.3 1.98l-3.65-.16-3.8-.2-3.85-.17q-4.7-.21-9.4-.45l1-2c7.45-1.82 15-1.03 22.5 0" fill="#F1F2F2"/><path d="m291.89 698.12 2.84.15 2.96.17 2.99.15 7.32.41v1l-3.36.18-4.51.26a213 213 0 0 0-14.2 1.18c-6.94.8-13.98-.06-20.93-.62v-1l1.7-.08q3.81-.16 7.62-.36l2.67-.12 2.56-.12 2.37-.12c3.57-.35 6.3-1.28 9.97-1.08" fill="#C2C3C4"/><path d="M933 108q3.66.33 7.31.56l3.8.26 2.89.18v1l-32 1v-2l6-1 3.56-.62c3.33-.37 5.22-.04 8.44.62" fill="#CACBC9"/><path d="M234 336h1c2.69 9.24 2.11 17.52 1 27h-2z" fill="#090C09"/><path d="M367 331c-1.51 3.84-3.57 5.74-7 8-3.33.39-3.33.39-6.81.25l-3.52-.11L347 339l1-2c2.33-.49 2.33-.49 5.25-.88 5.31-.85 8.9-5.12 13.75-5.12" fill="#E0E1E1"/><path d="M234 372h1l1 9 .29 2.54c.56 5.19.81 10.24.71 15.46h-2c-2.69-9.04-1.79-17.75-1-27" fill="#CDCECF"/><path d="M991 118c7.97.65 15.31 4.86 22 9l-2 2-8.88-3.81-2.55-1.08-2.44-1.07-2.25-.97C993 121 993 121 991 118" fill="#DBDCDA"/><path d="M404 302c5.58 3.16 5.58 3.16 7 6l-2 2-1.62-1.94c-2.97-2.57-4.46-3.06-8.38-3.06a45 45 0 0 0-7 4l-2 1c.06-1.75.06-1.75 1-4 4.35-3.07 7.55-4.93 13-4" fill="#E1E3E3"/><path d="m930.89 152.9 2.84.01 2.96.03 2.99.01 7.32.05c-3.37 1.8-5.9 2.33-9.75 2.56-4.78.33-9.5.8-14.25 1.44v-3c2.94-.98 4.83-1.12 7.89-1.1" fill="#F2F3F2"/><path d="m932 106 8 .44 2.25.12c4.96.28 9.83.78 14.75 1.44v2c-8.04.17-15.99-.35-24-1z" fill="#F2F3F1"/><path d="M239 433h1l1.5 9.25.43 2.64.41 2.56.38 2.35c.28 2.2.28 2.2.28 6.2h-3c-2.15-7.89-1.94-14.92-1-23" fill="#D1D2D0"/><path d="m682.41 254.12 2.21.07 7 .25 4.74.15L708 255v1l-35 1v-2c3.02-1.5 6.1-1 9.41-.88" fill="#D0D0D1"/><path d="M824 483h1l.44 3.19c.3 2.07.63 4.14 1.09 6.19.51 2.86.57 5.52.53 8.43l-.02 2.96L827 506h-3z" fill="#F3F3F3"/><path d="m257 699 24 2v2c-9.03 1.21-16.31.77-25-2z" fill="#EDEFEE"/><path d="M826 437h1c3.14 15.76 3.14 15.76-1 23h-1c-.16-7.72.33-15.32 1-23" fill="#DBDCDC"/><path d="m196 671 4.44-.06 2.49-.04c2.07.1 2.07.1 3.07 1.1q3.27.34 6.56.56l3.63.26 2.81.18-1 2c-7.66.19-14.66.35-22-2z" fill="#232425"/><path d="M247 477c2.43 3.64 4.41 7.45 6.46 11.31A53 53 0 0 0 258 495l-2 2a55 55 0 0 1-7.31-11.12l-1.62-3.14C246 480 246 480 247 477" fill="#E0E1E2"/><path d="m876 195 2 2c-.4 6.83-2.03 15.03-7 20 .73-4.88 1.84-9.6 3.06-14.38l.57-2.23z" fill="#E1E3E2"/><path d="m813 637 3 2q3.57.9 7.19 1.62l3.85.79 2.96.59v1a58 58 0 0 1-22-3c2-2 2-2 5-3" fill="#EAEDEB"/><path d="M361 445v6l-2.25-.25c-2.75.25-2.75.25-4.94 2A25 25 0 0 0 350 459c-.8-2.2-.8-2.2-1-5 2.02-2.46 2.02-2.46 4.81-4.81l2.77-2.4C359 445 359 445 361 445" fill="#D8C583"/><path d="M823 342c1.92.65 1.92.65 4 2 .83 2.6.83 2.6 1.25 5.62l.45 3.04.3 2.34h-2v6h-1l-1.5-7.81-.43-2.24A47 47 0 0 1 823 342" fill="#DDDDDF"/><path d="m246 598 2 2-13 13-1-3c3.08-4.83 7.66-8.34 12-12" fill="#D5D6D4"/><path d="m366 461 2.25 1.44c4.14 2.12 8.47 2.06 13.04 2.25C384 465 384 465 387 467c-7.06 1.53-13.2.27-20-2-.69-2.06-.69-2.06-1-4" fill="#DDCC83"/><path d="M926 154h-3v2l-2.12.84-2.76 1.1-2.74 1.09C913 160 913 160 911 161a76 76 0 0 1-5-1c2.67-2.67 5.34-3.4 8.88-4.69l3.74-1.38c3.14-.86 4.44-1.15 7.38.07" fill="#D7D6D6"/><path d="M415 331h3c1.75 5.24 2.19 9.47 2 15l-1-3h-2c-1.29-4.12-2.26-7.67-2-12" fill="#1A1C1B"/><path d="M237 669c-3.19 2.64-6.42 4.15-10.25 5.69l-3.27 1.32-2.48.99-3-3 2.05-.59 2.7-.79 2.67-.77c2.58-.85 2.58-.85 4.74-1.94 2.36-1.17 4.24-1.05 6.84-.91" fill="#DADAD9"/><path d="M205.94 622.75 208 624c2.66.48 5.3.73 8 1v1l-3.25.18-4.31.26-2.13.12c-4.5.27-8.87.75-13.31 1.44 3.38-2.84 8.45-6.99 12.94-5.25" fill="#C8CACA"/><path d="M960.06 108.75c4.41.28 8.75.79 12.94 2.25l1 2-9.57-.68c-3.19-.3-6.29-.75-9.43-1.32 2-2 2-2 5.06-2.25" fill="#E2E3E2"/><path d="M827 529c2 1 2 1 2.68 2.95.46 4.37-.1 8.51-.62 12.86l-.3 2.68L828 554h-1z" fill="#F3F4F5"/><path d="M383 468c-3.79 2.53-6.81 2.22-11.19 2.12l-2.27-.02-5.54-.1c4.68-4.68 12.97-2.91 19-2" fill="#DBC372"/><path d="M314 455h2c1.98 2.92 1.99 4.12 1.62 7.75L317 466l-3 1c-.76-4.32-1.16-7.74 0-12" fill="#E4CD65"/><path d="m720.63 254.38 2.35.27c2.02.34 2.02.34 4.02 1.34v2c-4.96-.31-9.9-.66-15-1v-2a19 19 0 0 1 8.63-.62" fill="#D3D5D5"/><path d="M827 424h1l1.06 8.88.32 2.55.28 2.44.27 2.25C830 442 830 442 829 444h-2z" fill="#E4E4E4"/><path d="M314 342v1c-5.38 1.19-10.45 2.29-16 2v-3c10.37-2.67 10.37-2.67 16 0" fill="#E2E4E3"/><path d="m808 299 1 3h-2l4 7-2 3-2.5-3.81-1.41-2.15C804 304 804 304 804 301z" fill="#DFDFE2"/><path d="M727 255c5.41.47 9.21 1.24 14 4v1l-13-1z" fill="#EAEAEA"/><path d="M865 239c1 3 1 3-.43 6.36q-.99 1.92-2.01 3.83l-1.02 1.98L859 256c-1.13-2.83-.99-4.02-.07-6.98l1.38-3.21 1.37-3.23C863 240 863 240 865 239" fill="#E4E3E3"/><path d="m980.94 160.31 2.65.8c2.4.9 2.4.9 5.4 2.9l-2 2c-2.95-.98-5.86-1.96-8.74-3.14C976 162 976 162 974 162v-2c2.77-1.39 4.02-.59 6.94.31" fill="#EAEDEA"/><path d="M824 579h1c1.33 5.92.66 8.78-2 14h-2l-1 3c.79-5.81 2.41-11.37 4-17" fill="#DFE1E2"/><path d="M826 459c2.62 3.94 2.36 7.43 2 12-1.52 1.75-1.52 1.75-3 3q-.04-3.46-.06-6.94l-.04-3.9c.1-3.16.1-3.16 1.1-4.16" fill="#F2F2F6"/><path d="m893 168 2 3-2.25 2.19C890 176 890 176 887.88 178.75 886 181 886 181 883 182c1.37-4.06 3.22-6.67 6.12-9.81l2.2-2.4z" fill="#D8D9DA"/><path d="M375 552c2.62.94 2.62.94 5 2-1.75 3.88-1.75 3.88-4 5v-3l-7 2c3.75-4.88 3.75-4.88 6-6" fill="#E1E3E4"/><path d="m390 437 5 1c1.04 3.42 1.13 6.56 1.12 10.12l.01 3.2C396 454 396 454 395 456h-2l.48-1.73c.99-4.33 1.54-9.07-.37-13.19-1.11-1.64-1.11-1.64-3.11-4.08" fill="#CCBD7D"/><path d="M835 184c2 3 2 3 1.79 5.56l-.6 2.88-.58 2.87q-.76 3.36-1.61 6.69h-2c.58-6.14 1.54-12.01 3-18" fill="#262727"/><path d="m421 614 4 2-9 6-3-2z" fill="#1B1C1D"/><path d="m238 695 6.69.94 3.76.52q4.3.65 8.55 1.54v2c-6.29.42-12.09-.77-18-3z" fill="#DFE0E0"/><path d="m449 352 2 1c-1.22 3.66-2.13 3.92-5.44 5.69l-2.43 1.32C441 361 441 361 439 361c1.11-3.22 1.92-3.96 5-5.62l3-1.38z" fill="#E9E7E9"/><path d="M421 341h2l.4 1.86.54 2.45.52 2.43C425 350 425 350 426 353h-2l-1 2c-1.34-4.84-2.25-8.93-2-14" fill="#EEEEF0"/><path d="M255 322c5.69.46 9.26 1.77 14 5l1 3c-5.48-1.55-10.11-4.16-15-7z" fill="#D4D6D4"/><path d="m522 312 2 2-14 7v-3z" fill="#DEDEDF"/><path d="M805 246h2c-1.46 3.69-3.3 5.16-6.62 7.25l-2.48 1.58L796 256v-3h2l.75-1.88c1.47-2.49 2.63-3.02 5.25-4.12z" fill="#DFE0E2"/><path d="M868 225h1c.63 10.15.63 10.15-2 13.69l-2 1.31c-1.57-3.14-.12-5.37.94-8.62l1.15-3.61z" fill="#D4D4D5"/><path d="m813 618 4 2c-1.31 3.44-1.31 3.44-3 7l-3 1c.46-3.47.89-6.67 2-10" fill="#DCDDDE"/><path d="M280 459c2.29 3.44 2.18 4.99 2 9l-4 1-2-3h2l-1-3 2-1z" fill="#EAD268"/><path d="m396 440 4 2v6l-4 1c-.88-6.15-.88-6.15-1-8z" fill="#EEDD72"/><path d="m263 645 3 1-1 2 2 2-12 2c2.58-2.65 4.92-4.94 8-7" fill="#D7DBD8"/><path d="m291 517 4.88.94 2.74.52C301 519 301 519 303 520l-1 3a154 154 0 0 1-11-4z" fill="#EEEFF0"/><path d="M305 473c-2 2-2 2-5.04 2.2l-3.58-.08-3.61-.05L290 475c4.58-3.73 9.72-5.59 15-2" fill="#B09F6A"/><path d="m343.25 336.44 2.7.3 2.05.26-1 2h-13v-2c3.27-1.03 5.86-.96 9.25-.56" fill="#F2F4F4"/><path d="m215.19 621.94 3.8.06-1 3h-14c4.06-2.02 6.76-3.13 11.2-3.06" fill="#EFF1F2"/><path d="M182 651a68 68 0 0 1 4 10 83 83 0 0 0 2 4c-1.88-.25-1.88-.25-4-1-1.91-2.97-2.23-5.26-2.12-8.75l.05-2.42z" fill="#090B0A"/><path d="m362 453 5 1-1 4h2v2l2 1-3 1c-4.43-5.14-4.43-5.14-5-9" fill="#28210E"/><path d="m776 264 3 1c-3.2 2.83-5.78 3.52-10 4l-2-4 2.25.62c3.15.43 4.04-.17 6.75-1.62" fill="#E3E3E6"/><path d="M191 672c4.38.52 8.69 1.06 13 2l-1 2c-4.24.33-6.36.44-9.94-2z" fill="#E6E7EA"/><path d="M242 663c0 3.38-.87 5.83-2 9l-2-2-4-2z" fill="#C6C7C4"/><path d="m349 585 1 2-7 8-3-1z" fill="#1D1D1F"/><path d="M287 340c4.32.51 8.03 1.2 12 3l-1 2c-4.13-.61-7.33-2.04-11-4z" fill="#DCDBDD"/><path d="M488 333c0 3.54-.58 4.5-3 7h-4v-3z" fill="#1A191D"/><path d="M389 310h2l-.94 1.69A27 27 0 0 0 388 319l-1-2-5 1 2.94-3.44 1.65-1.93q1.16-1.36 2.41-2.63" fill="#191B1B"/><path d="m403 304-1 5-7-1 1-3c3-1 3-1 7-1" fill="#242627"/><path d="m554.75 295.31 2.25.7c-3.41 2.85-6.91 4.33-11 6v-2h2v-2c2.39-2.4 3.33-3.09 6.75-2.7" fill="#DBDDDC"/><path d="M1026 157h2a12 12 0 0 1-3.81 7.31l-1.52 1.62c-1.67 1.07-1.67 1.07-3.87.74l-1.8-.67 2.25-1.12c3.22-2.2 4.66-4.64 6.75-7.88" fill="#D6D8D6"/><path d="m845 155 2 3-4 8-2-3c2.27-6.27 2.27-6.27 4-8" fill="#E1E1E2"/><path d="m862 135 3 1-7 7-3-2q1.64-1.55 3.31-3.06l1.87-1.73z" fill="#D0D0D2"/><path d="M380 645v2h7v1l-13 2c1.13-3.38 2.21-5 6-5" fill="#D5D8D5"/><path d="m240 319 4 2-2.25 1.25A33 33 0 0 0 235 328c0-4 0-4 2.5-6.75z" fill="#DBDCDC"/><path d="m380 640 3 1c-5.3 5.75-5.3 5.75-9 6l-2-1 5-2v-2h3z" fill="#1A1D1B"/><path d="m422 352 3 1q.33 2.19.62 4.38l.36 2.46.02 2.16-2 2c-1.14-4.27-2-7.56-2-12" fill="#CED0CF"/><path d="m991 163 2.56.44q5.21.84 10.44 1.56c-3.88 2.59-5.53 1.88-10 1l-3-1z" fill="#1F2120"/><path d="m327 606 1 3-7 6-2-1z" fill="#1D1D21"/><path d="M361 452a77 77 0 0 1 5 9l-4-1-1-4h-2l-1-3z" fill="#E4C76C"/><path d="m812 237 2 2h-2l-.25 2.31c-.9 3.21-1.97 3.98-4.75 5.69.61-3.99 2.71-6.74 5-10" fill="#EFEFF2"/><path d="M991 118c3.95.55 7.35 1.39 11 3-1.62 1.19-1.62 1.19-4 2-5.6-2.2-5.6-2.2-7-5" fill="#E0E1E1"/><path d="M361 654v3l-6 3-2-2c5.75-4 5.75-4 8-4" fill="#181A17"/><path d="m562 290 3 2c-6.75 4-6.75 4-9 4 1.05-2.62 1.65-3.79 4.12-5.25z" fill="#EEF0EF"/><path d="m952.63 107.44 2.48.3 1.9.26v2h-10l-1-2c2.51-1.26 3.85-.92 6.62-.56" fill="#EBECEB"/><path d="m390 635 3 1c-4.75 3.88-4.75 3.88-7 5l-2-2c2.81-2.06 2.81-2.06 6-4" fill="#19191B"/><path d="m749 616 2 1v9l-3-1z" fill="#C9C9CA"/><path d="M373 557h2l1 3-6 5c.55-3.37 1.05-5.08 3-8" fill="#E4E7E8"/><path d="M420 349c2.5 2.5 2.36 3.67 2.62 7.12l.23 2.76.15 2.12c-3.58-4.17-3.27-6.67-3-12" fill="#070A08"/><path d="M281 336c3.38.31 3.38.31 7 1l2 3c-3.38-.31-3.38-.31-7-1z" fill="#E6E8EC"/><path d="m418 324 2 1c.81 2.81.81 2.81 1 6-1.44 2.38-1.44 2.38-3 4-1.29-7.43-1.29-7.43 0-11" fill="#DEDEE0"/><path d="M968 157q3.51.39 7 1l1 2c-2.79 1.03-3.87 1.05-6.75.06L967 159z" fill="#F2F2F2"/><path d="M244 470h2l1 10-2-1c-.41-2.07-.41-2.07-.62-4.56l-.23-2.51z" fill="#E7EAE6"/><path d="M269 452a29 29 0 0 1 3 8h2l-1 4c-3.54-3.69-3.59-7.09-4-12" fill="#D2BF7D"/><path d="M399 451h1c.69 3.31.69 3.31 1 7-1.44 1.94-1.44 1.94-3 3v-2l-2-1z" fill="#2E2616"/><path d="m312 450 6 5c-3 0-3 0-5-1l-1 4c-1.12-5.75-1.12-5.75 0-8" fill="#0D0905"/><path d="m372 327 3 2-2.38 1.88C370 333 370 333 368 335c0-4 0-4 2-6.25z" fill="#1E1E20"/><path d="M854 142h3c-1.44 3.37-3.33 5.51-6 8l1-5h2z" fill="#E4E4E7"/><path d="M336 671v3c-2.5 2.19-2.5 2.19-5 4l-3-2z" fill="#B0B1B0"/><path d="m728 662 7 3c-2.35 1.43-3.48 2.09-6.25 1.62L727 666z" fill="#B4B7B7"/><path d="m339 471 5 1c.62 2.38.62 2.38 1 5l-2 2v-5h-2v-2z" fill="#696A6B"/><path d="M233 327h2l-1 10c-1.75-2.62-2.62-3.97-3-7z" fill="#E3E3E5"/><path d="M650 258v3c-2.71 1.35-5.01 1.07-8 1 2.43-2.66 4.24-4 8-4" fill="#EFEFF0"/><path d="m907.25 159.75 2.75.25c-2.07 2.8-3.14 3.03-6.69 3.69L900 164c2.41-2.97 3.35-3.95 7.25-4.25" fill="#E2E3E4"/><path d="M1024 143h3c1.28 3.85 1.07 6.95 1 11h-1l-1-8h-2z" fill="#2A2C28"/><path d="M311 685v3l-5 2-2-2c4.75-3 4.75-3 7-3" fill="#18181B"/><path d="M237 670h2l-1 13h-1q-.3-2.4-.56-4.81l-.32-2.71C236 673 236 673 237 670" fill="#E1E3E3"/><path d="m267 645 1 4h6v1c-6.62.25-6.62.25-10-2z" fill="#EFF3F1"/><path d="m813 637 3 2v2l-8-1c2-2 2-2 5-3" fill="#F3F6F5"/><path d="M425 362h2l2 5-4 1z" fill="#F1F1F2"/><path d="m379 320 3 1-7 6-2-1z" fill="#1D1E1D"/><path d="m393 307 8 1c-1.81 1.56-1.81 1.56-4 3l-3-1z" fill="#151719"/><path d="m824 290 3 1-7 5-2-1c3.75-3.88 3.75-3.88 6-5" fill="#EBEBEC"/><path d="m841 275 1 3-6 5-2-1 1.88-.75c2.49-1.47 3.02-2.63 4.12-5.25z" fill="#C8C8CB"/><path d="M785 260v3c-2.65 1.46-3.89 2-7 2v-2z" fill="#EDEEF2"/><path d="m227 674-6 3-3-3c3.38-.84 5.67-1.11 9 0" fill="#E5E7E6"/><path d="M816 608c2 4 2 4 1.81 6.19L817 616l-3 1z" fill="#D6D6D8"/><path d="M532 557c-2.14 2.14-3.07 2.63-6 3l-2-2c3.07-1.86 4.6-2.22 8-1" fill="#202221"/><path d="M286 551c.69 1.81.69 1.81 1 4-1.31 1.75-1.31 1.75-3 3h-2c1.07-2.92 1.78-4.78 4-7" fill="#EEE"/><path d="M585 528c3.12.38 3.12.38 6 1-2.39 1.89-4.07 3.02-7 4l-1-3z" fill="#191D1E"/><path d="M247 477c1.99 2.99 2.94 5.6 4 9-3-1-3-1-4.25-3.38C246 480 246 480 247 477" fill="#D3D3D4"/><path d="M415 331h3v6l-2 1z" fill="#131413"/><path d="m876 195 2 2c-.34 3.37-1.89 5.43-4 8 .46-3.47.89-6.67 2-10" fill="#C3C5C3"/><path d="m982 161 7 2-2 3-6-3z" fill="#E3E4E2"/><path d="m921.63 108.94 2.48.59 1.9.47v1h-11v-2c2.63-1.31 3.8-.75 6.62-.06" fill="#D6D7D5"/></svg>