<svg style="background:transparent" version="1.1" xmlns="http://www.w3.org/2000/svg" viewBox="0 0 1248 704"><path d="M528.5 8.18c10.37 7.55 10.37 7.55 12.5 11.82l5 3q2.2 1.85 4.32 3.82a132 132 0 0 0 10.5 8.55C566.85 39.89 572.75 44.6 578 50c8.16 7.97 18.88 6.15 29.6 6.14h4.55l9.5-.01h25.97c7.2.02 14.27.02 21.38-1.13l2.38-.31c1.62-.7 1.62-.7 2.39-2.47 1.67-3 3.82-4.37 6.6-6.34l2.9-2.07C686 42 686 42 688.24 41c2.29-1.3 2.65-2.67 3.77-5.01 1.77-1.56 1.77-1.56 3.82-3a122 122 0 0 0 7.06-5.37C705 26 705 26 707 26l.75-1.8c1.44-2.53 2.9-3.74 5.25-5.45l2.13-1.57C717 16 717 16 719 16l.63-1.75c1.9-3.12 4.25-4.36 7.37-6.25l3.19-2.25c4.73-2.62 9.57-2.6 14.8-1.75 7.15 2.53 12.5 7.34 16.07 13.97 1.39 4.47 1.2 8.77 1.17 13.42v3.09l-.02 6.48q-.02 4.86-.02 9.73a476 476 0 0 1-.97 32.07c-.27 4.03-.22 8.03-.2 12.06a27163 27163 0 0 1 .13 61.09q.04 10.03.04 20.05 0 3.8.03 7.63v10.69q.03 1.56.03 3.16c-.05 18.45-7.23 31.9-20 44.8-5.38 5.37-10.65 9.89-17.3 13.6C722 257 722 257 721 259c-.28 5.54.26 9.69 2 15l1.38 4.82c2.33 7.7 5 14.55 9.62 21.18l.8 2.09c2.1 5.13 4.9 9.93 7.57 14.79A60 60 0 0 1 748 331l3 5q.56 2.5 1 5l.88 2.19c1.37 3.43 2.36 6.92 3.4 10.46.72 2.35.72 2.35 1.85 5.04.87 2.3.87 2.3 1.3 5.63a31 31 0 0 0 2.14 7.75c1.39 3.48 1.5 6.17 1.43 9.93l1 3.44c1.04 3.7 1.08 6.74 1 10.56l1 4q.07 3 0 6c0 3 0 3 .5 4.8 1.6 6.97.93 15.2-.5 22.2l-1 1c-.03 3.05.07 6.08.16 9.12C765 446 765 446 763 449c-.41 2.05-.41 2.05-.62 4.19l-.38 3.8q.75-.45 1.49-.93c6.72-2.82 17.4-3.1 24.45-1.12 8.68 3.7 16.22 11.05 21.06 19.06 1.74 4.56 2.93 9.28 4.13 14l.55 2.08A43 43 0 0 1 815 502l.53 2.95c.53 3.43.35 6.4.04 9.87A162 162 0 0 0 815 531c6.65-4.21 12.35-9.32 18.04-14.74 6.3-6 12.77-11.33 19.96-16.26l3-2.16c26.84-19.16 26.84-19.16 40-20.84q3.52-.95 7-2c6.12-1.82 11.63-3 18-3l2.35-.52c2.74-.5 4.79-.4 7.53-.02a440 440 0 0 1 8.66 1.22c18.3 2.69 18.3 2.69 24.46 7.32q3.51 1.65 7.07 3.19c12.23 5.54 25.05 14.07 31.93 25.8q2.22 2.67 4.5 5.26A34 34 0 0 1 1015 529l2.07 5.82c3.16 9.67 4.1 18.8 4.18 28.93l.03 2.69c-.06 11.96-3.72 18.88-11.84 27.44-2.65 2.57-4.85 4.06-8.44 5.12l-1.87 1.13c-4.17 1.7-7.93 1.27-12.13-.13-4.11-2.74-6.96-6.12-10-10l-1.87-2.31c-1.52-3.64-1.62-7.12-1.87-11.03-.3-3.08-1.26-5.73-2.26-8.66l1-4q.13-2.55.13-5.12v-2.63C972 554 972 554 971 552l.17-2.11c-.24-4.2-1.94-7.36-3.8-11.07q-.48-1.09-1-2.2c-2.6-5.3-2.6-5.3-6.44-6.94L957 529c-1.75-1.25-1.75-1.25-3.12-2.56-2.75-2.33-3.55-2.83-6.88-3.44l-3.31-1.5c-11.96-4.86-24.92-2.92-36.7 1.5-7.54 3.28-14.6 6.77-21 12l-2.17.5-1.82.5-.85 1.84c-1.4 2.62-2.86 3.65-5.27 5.35-4.22 3.16-7.5 6.63-10.92 10.63a78 78 0 0 1-7.9 7.38 113 113 0 0 0-6.37 6.18c-4.9 4.96-10.23 9.29-15.7 13.62l-2.73 2.24c-3.97 3.23-7.82 6.2-12.26 8.76l-2.37 1.5c-7.88 4.5-16.7 7.29-25.38 9.8-2.25.7-2.25.7-4.93 1.89-2.32.8-2.32.8-5.82.56-3.5.25-3.5.25-6.12 2.94l-2.38 3.3a73 73 0 0 1-10 9h-2l-.64 1.73c-1.82 3.07-4.16 4.73-6.98 6.9A125 125 0 0 0 748 634v2c1.54 1.27 1.54 1.27 3.63 2.69 7.18 5.26 11.45 10.5 13.37 19.3l.5 2.05c.48 3.67-.07 5.39-2.3 8.39-6.72 7.08-12.94 9.3-22.7 9.67q-4.24.05-8.5.03h-2.9c-7.17 0-13.7-.27-20.35-3.2-2.92-1.27-4.52-1.93-7.75-1.93l1.68 1.76c7.08 7.63 7.08 7.63 8.32 13.24l1.19 2.75c.8 3.24.74 5.19.36 8.46l-.3 2.72L712 704q-14.17.18-28.34.26-6.6.04-13.17.12-6.34.09-12.7.1-2.42.01-4.84.05-3.4.05-6.8.04l-3.9.04c-3.25-.61-3.25-.61-5.62-3-2.91-4.67-4-8.92-4.81-14.36l-.55-3.48L631 681l1-1c.08-2.75 0-5.48-.06-8.23.06-2.46.35-4.43 1.06-6.77l-2.77.04-3.6.03-3.6.03C620 665 620 665 618 664l2 3c.16 2.23.16 2.23.07 4.63A80 80 0 0 0 620 676l1 1c.14 4.3.1 7.86-1 12l-1.3 7.47A18.5 18.5 0 0 1 615 704c-3.15.62-3.15.62-7.1.6l-2.18.02q-3.56 0-7.13-.06h-4.95q-5.18-.01-10.37-.07-6.66-.06-13.31-.06l-10.22-.04-4.91-.02q-3.44-.01-6.85-.06l-3.95-.03C541 704 541 704 539 702c-1-9.27 3.05-17.34 8-25a69 69 0 0 1 5-5l-4.68 1.38-2.64.77c-2.68.85-2.68.85-5.17 1.92-8.63 3.22-19.43 2.14-28.51 1.93l-3.05-.01c-6.84-.27-11.1-2.1-15.95-7-3.51-4.23-5.25-8.6-4.84-14.12 2.3-9.47 11.52-16.15 18.84-21.87l-2.23-1.53c-8.95-6.32-8.95-6.32-11.58-9.72-2.2-2.75-2.2-2.75-5.12-4.68-3.15-2.12-5.13-4.26-7.48-7.2-1.6-1.87-1.6-1.87-3.95-4.2a93 93 0 0 1-7.7-9.04l-1.27-1.63a97 97 0 0 1-7.67-12q-2.22-3.32-4.53-6.6c-1.84-3.01-3.12-6.13-4.47-9.4l-1.57-3.6-1.55-3.58-1.57-3.61a39 39 0 0 1-2.74-10.58C442 544 442 544 441 541.13a44 44 0 0 1-1.75-9.88c-.25-2.25-.25-2.25-.75-4.51a48 48 0 0 1-.63-8.81v-10.78c0-16.06 2.2-32.23 14.13-44.15l4-2 3.38-2.43c5.93-3.74 13.87-6.05 20.9-5.34 1.79.52 1.79.52 4.72 1.77q2.5.55 5 1l-.4-1.87-.53-2.56-.53-2.5c-.7-4.01-1.12-8.02-1.54-12.07l-.28-2.55c-2.62-24.04-2.62-24.04-.23-35.82q.7-3.68 1.2-7.4l.37-2.7.75-5.51c1.1-7.95 2.47-15.5 5.4-22.97 1.44-3.73 2.56-7.55 3.73-11.36 3.45-10.97 7.19-21.3 12.48-31.52 1.58-3.17 1.58-3.17 2.6-5.78a47 47 0 0 1 3.92-7.26c3.7-6.08 6.13-12.25 8.3-19 .76-2.13.76-2.13 2.33-5.2A39 39 0 0 0 531 269l.55-2.64c.37-3.17.39-5.3-.55-8.36-2.74-2.77-5.62-4.8-8.88-6.93a48 48 0 0 1-8.61-7.53C512 242 512 242 509.07 239.69c-6.43-5.28-11.58-11.72-13.42-19.91a78 78 0 0 0-1.41-5.26c-3.27-11.51-2.6-23.25-2.5-35.11l.03-7.2q.02-9.42.09-18.87.08-15.05.12-30.11l.06-10.41c.06-11.78-.14-23.5-.81-35.26-.4-7.2-.3-14.41-.23-21.62.09-8.5.1-16.9-.88-25.36-.31-6.61 1.99-11.9 6.2-16.9a142 142 0 0 1 5.26-5.21c8.72-7.87 17.72-6.23 26.92-.3M558 668l2 2v-2zm-3 1-1 2h2z" fill="#161817"/><path d="m927 474.75 3.5-.06c13.01-.06 23.92 2.97 35.62 8.5l3.18 1.49c7.23 3.45 13.72 6.92 19.7 12.32l1.45 1.28c14.83 13.31 26.49 31.89 27.77 52.21q.15 5 .15 9.99.02 3.12.08 6.24c.07 8.72-.74 14.34-6.06 21.42-5.59 5.48-11.4 9.98-19.45 10.61-4.89-.31-7.85-1.94-11.25-5.42-6.56-9.03-6.05-19.91-6.34-30.58-.35-11.89-2.07-23.34-10.78-32.2-4.57-4.19-9.52-6.8-15.13-9.36l-2.5-1.2c-4.31-2.01-8.15-3.54-12.94-3.99l-2.46-.24c-20.66-.62-41.29 10.93-56.13 24.63a153 153 0 0 0-4.15 4.31 96 96 0 0 1-5.94 5.49 184 184 0 0 0-11.12 10.67C846.26 569 838.42 576.58 829 583l-1.86 1.27A122 122 0 0 1 798 599l-2.81 1.03c-5.81 1.96-11.08 2.32-17.19 1.97.55-3.87 2.25-5.33 5-8 9.52-13.25 16.56-27.31 21-43 1.68-5.76 3.15-9.73 8.13-13.3 4.71-3.52 8.9-7.37 13.12-11.45 7.04-6.69 14.12-13.23 21.75-19.25l1.94-1.53C867.05 491.33 886.5 481.01 909 476l2.4-.55c5.15-.89 10.39-.68 15.6-.7" fill="#101311"/><path d="M528.5 8.18c10.37 7.55 10.37 7.55 12.5 11.82l5 3q2.2 1.85 4.32 3.82a132 132 0 0 0 10.5 8.55C566.85 39.89 572.75 44.6 578 50c8.16 7.97 18.88 6.15 29.6 6.14h4.55l9.5-.01h25.97c7.2.02 14.27.02 21.38-1.13l2.38-.31c1.62-.7 1.62-.7 2.39-2.47 1.67-3 3.82-4.37 6.6-6.34l2.9-2.07C686 42 686 42 688.24 41c2.29-1.3 2.65-2.67 3.77-5.01 1.77-1.56 1.77-1.56 3.82-3a122 122 0 0 0 7.06-5.37C705 26 705 26 707 26l.75-1.8c1.44-2.53 2.9-3.74 5.25-5.45l2.13-1.57C717 16 717 16 719 16l.63-1.75c1.9-3.12 4.25-4.36 7.37-6.25l3.19-2.25c4.73-2.62 9.57-2.6 14.8-1.75 7.15 2.53 12.5 7.34 16.07 13.97 1.39 4.47 1.2 8.77 1.17 13.42v3.09l-.02 6.48q-.02 4.86-.02 9.73a476 476 0 0 1-.97 32.07c-.27 4.03-.22 8.03-.2 12.06a27163 27163 0 0 1 .13 61.09q.04 10.03.04 20.05 0 3.8.03 7.63v10.69q.03 1.56.03 3.16c-.05 18.45-7.23 31.9-20 44.8-5.38 5.37-10.65 9.89-17.3 13.6C722 257 722 257 721 259c-.28 5.54.26 9.69 2 15l1.38 4.82c2.33 7.7 5 14.55 9.62 21.18l.8 2.09c2.1 5.13 4.9 9.93 7.57 14.79A60 60 0 0 1 748 331l3 5q.56 2.5 1 5l.88 2.19c1.37 3.43 2.36 6.92 3.4 10.46.72 2.35.72 2.35 1.85 5.04.87 2.3.87 2.3 1.3 5.63a31 31 0 0 0 2.14 7.75c1.39 3.48 1.5 6.17 1.43 9.93l1 3.44c1.04 3.7 1.08 6.74 1 10.56l1 4q.07 3 0 6c0 3 0 3 .5 4.8 1.6 6.97.93 15.2-.5 22.2l-1 1c-.03 3.05.07 6.08.16 9.12C765 446 765 446 763 449c-.41 2.05-.41 2.05-.62 4.19l-.38 3.8q.75-.45 1.49-.93c6.72-2.82 17.4-3.1 24.45-1.12 8.68 3.7 16.22 11.05 21.06 19.06 1.74 4.56 2.93 9.28 4.13 14l.55 2.08A43 43 0 0 1 815 502l.53 2.95c.53 3.43.35 6.4.04 9.87A162 162 0 0 0 815 531c6.65-4.21 12.35-9.32 18.04-14.74 6.3-6 12.77-11.33 19.96-16.26l3-2.16c26.84-19.16 26.84-19.16 40-20.84q3.52-.95 7-2c6.12-1.82 11.63-3 18-3l2.35-.52c2.74-.5 4.79-.4 7.53-.02a440 440 0 0 1 8.66 1.22c18.3 2.69 18.3 2.69 24.46 7.32q3.51 1.65 7.07 3.19c12.23 5.54 25.05 14.07 31.93 25.8q2.22 2.67 4.5 5.26A34 34 0 0 1 1015 529l2.07 5.82c3.16 9.67 4.1 18.8 4.18 28.93l.03 2.69c-.06 11.96-3.72 18.88-11.84 27.44-2.65 2.57-4.85 4.06-8.44 5.12l-1.87 1.13c-4.17 1.7-7.93 1.27-12.13-.13-4.11-2.74-6.96-6.12-10-10l-1.87-2.31c-1.52-3.64-1.62-7.12-1.87-11.03-.3-3.08-1.26-5.73-2.26-8.66l1-4q.13-2.55.13-5.12v-2.63C972 554 972 554 971 552l.17-2.11c-.24-4.2-1.94-7.36-3.8-11.07q-.48-1.09-1-2.2c-2.6-5.3-2.6-5.3-6.44-6.94L957 529c-1.75-1.25-1.75-1.25-3.12-2.56-2.75-2.33-3.55-2.83-6.88-3.44l-3.31-1.5c-11.96-4.86-24.92-2.92-36.7 1.5-7.54 3.28-14.6 6.77-21 12l-2.17.5-1.82.5-.85 1.84c-1.4 2.62-2.86 3.65-5.27 5.35-4.22 3.16-7.5 6.63-10.92 10.63a78 78 0 0 1-7.9 7.38 113 113 0 0 0-6.37 6.18c-4.9 4.96-10.23 9.29-15.7 13.62l-2.73 2.24c-3.97 3.23-7.82 6.2-12.26 8.76l-2.37 1.5c-7.88 4.5-16.7 7.29-25.38 9.8-2.25.7-2.25.7-4.93 1.89-2.32.8-2.32.8-5.82.56-3.5.25-3.5.25-6.12 2.94l-2.38 3.3a73 73 0 0 1-10 9h-2l-.64 1.73c-1.82 3.07-4.16 4.73-6.98 6.9A125 125 0 0 0 748 634v2c1.54 1.27 1.54 1.27 3.63 2.69 7.18 5.26 11.45 10.5 13.37 19.3l.5 2.05c.48 3.67-.07 5.39-2.3 8.39-6.72 7.08-12.94 9.3-22.7 9.67q-4.24.05-8.5.03h-2.9c-7.17 0-13.7-.27-20.35-3.2-2.92-1.27-4.52-1.93-7.75-1.93l1.68 1.76c7.08 7.63 7.08 7.63 8.32 13.24l1.19 2.75c1.14 4.56.49 8.65-.2 13.25l-4-1 .19-2.74c.34-9.23-.5-15.1-6.75-22-4.27-4.01-9.02-6.1-14.43-8.26v-9l2.09 1.18c14.69 8.13 27.59 12.37 44.6 12.2l3.47.03c6.89-.02 13.56-.31 19.84-3.41 3.78-4.2 3.57-8.57 3.4-14-.92-6.85-5.24-11.51-10.48-15.74-3.14-2.06-6.35-3.13-9.92-4.26v-2a78 78 0 0 1 4.69-3.43c10.2-7.26 22.06-15.7 29.08-26.2 3-3.2 5.18-3.25 9.48-3.8 8.78-1.35 16.6-4.08 24.75-7.57l3.08-1.3c19.65-9.08 34.88-24.43 49.84-39.65 3.95-4 8-7.82 12.28-11.48 1.82-1.58 3.56-3.22 5.3-4.88 14.5-12.6 33.26-21.83 52.63-21.95 7.43.69 13.76 3.3 20.44 6.45l2.46 1.1c7.9 3.7 13.46 8.64 17.29 16.59l1.42 2.87c3.09 7.96 3.5 15.53 3.64 24 .67 21.77.67 21.77 7.75 29.07 3.6 2.52 6.9 3.05 11.26 2.76 8.28-1.83 14.94-7.68 19.6-14.58 3.05-6.3 2.4-13.03 2.39-19.87V561c-.1-20.9-6.01-39.38-20.38-55l-2.27-2.54c-9.1-9.71-19.96-15.27-31.85-20.83l-2.75-1.3c-10.6-4.8-20.77-5.72-32.31-5.7h-3.6A81 81 0 0 0 898 480l-2.71.85a124 124 0 0 0-20.41 8.53l-3 1.56c-9.1 4.92-17.08 10.86-25 17.5q-2.53 2.1-5.11 4.13a155 155 0 0 0-14.64 13.3c-3.22 3.23-6.64 6.2-10.13 9.13l-2.81 2.38c-2.2 1.62-2.2 1.62-5.2 2.62a489 489 0 0 0 .7-6.25q.36-3.08.83-6.13c.8-6.45.7-12.94.73-19.43l.07-3.95c.05-13.18-2.56-26.3-11.36-36.63-7.16-6.83-14.2-9.78-24.08-10.04A35 35 0 0 0 761 461h-3l1.44-11.56.4-3.3.4-3.2.37-2.94q.43-3.23.93-6.43c.8-6.24.7-12.53.7-18.82l.02-2.16c-.01-11.44-.72-22.41-3.26-33.6q-.22-.97-.43-2a259 259 0 0 0-3.57-14l-.66-2.37c-6-21.1-13.8-40.91-24.46-60.12-6.78-12.26-14.8-29.22-11.88-43.5 2.82-3.5 6.22-5.64 10-8q2.1-1.53 4.19-3.12l1.94-1.45c12.27-9.32 19.77-20.88 22.45-36.25.76-5.7.73-11.4.74-17.13l.03-4.11.06-11.08q.01-5.87.07-11.75l.1-19.8.1-20.1.02-2.47q0-2.48.03-4.93.1-15.6.16-31.2V83.3l.04-8.98q.03-12.11.2-24.22l.12-10.86.12-6.8c.07-7.32-.27-12.27-4.37-18.44-4.28-4.07-8.18-6.3-14.12-6.5-10.96.29-18.44 8.5-26.24 15.36A220 220 0 0 1 703 31.5a386 386 0 0 0-15.93 13.14q-6.93 5.98-14.05 11.72C671 58 671 58 670 59q-3.9.24-7.8.29l-2.48.06q-11.37.22-22.76.3-7.65.07-15.3.24-7.38.15-14.77.2-2.81.01-5.62.1c-9.72.29-17.15.26-24.68-6.47-1.91-1.86-3.74-3.78-5.6-5.72a239 239 0 0 0-5.5-4.5 669 669 0 0 1-12-10Q544.86 26.16 536 19l-2.68-2.23c-7.37-6.03-12.47-9.51-22.26-9.24-4.94.77-8.58 2.9-12.05 6.47-3.54 5.24-4.56 9.08-4.4 15.44l.02 2.53q.04 4.24.12 8.48l.06 6.18q.05 6.89.13 13.77.12 12.14.1 24.32 0 20.53.1 41.07.06 11.9.07 23.77 0 10.6.06 21.19.05 5.53.03 11.07c-.04 21.06.44 40.25 15.53 56.56 5.03 4.84 10.75 8.73 16.5 12.64l2.18 1.48 1.97 1.32C533 255 533 255 534 257q.23 3.26.25 6.5l.08 3.54c-.7 8.39-4.01 16.1-7.33 23.78l-1.17 2.74a239 239 0 0 1-9.26 18.63c-10.46 19.42-17.42 40.4-22.57 61.8l-.68 2.79c-5.54 23.58-5.1 49.4-.68 73.14.58 3.35.97 6.7 1.36 10.08-6-1-6-1-8.8-1.51-12.3-1.87-20.28-.14-30.45 6.7-12.1 12.37-14.01 30.33-14.07 46.9.15 10.18 2.14 20 4.32 29.9l.46 2.15c7.97 36.9 34.3 69.66 65.54 89.86l2 1v2l-1.94.67c-7.52 2.76-13.35 5.96-17.5 13.02-2.36 5.28-2.84 11.87-.81 17.33 2.47 3.9 6.97 4.84 11.25 5.98 4.23.54 8.37.58 12.63.5l3.46-.03c14.3-.33 28.28-3.58 40.62-11.12C563 662 563 662 565 662v8l-1.97.92c-8.37 4-13.86 7.6-18.03 16.08-1.12 3.53-1.3 7.07-1.56 10.75l-.25 3.55-.2 2.7-4-2c-.68-9.41 2.97-17.2 8-25a69 69 0 0 1 5-5l-4.67 1.38-2.64.77c-2.68.85-2.68.85-5.17 1.92-8.63 3.22-19.43 2.14-28.51 1.93l-3.05-.01c-6.84-.27-11.1-2.1-15.95-7-3.51-4.23-5.25-8.6-4.84-14.12 2.3-9.47 11.52-16.15 18.84-21.87l-2.23-1.53c-8.95-6.32-8.95-6.32-11.58-9.72-2.2-2.75-2.2-2.75-5.12-4.68-3.15-2.12-5.13-4.26-7.48-7.2-1.6-1.87-1.6-1.87-3.95-4.2a93 93 0 0 1-7.7-9.04l-1.27-1.63a97 97 0 0 1-7.67-12q-2.22-3.32-4.53-6.6c-1.84-3.01-3.12-6.13-4.47-9.4l-1.57-3.6-1.55-3.58-1.57-3.61a39 39 0 0 1-2.74-10.58C442 544 442 544 441 541.13a44 44 0 0 1-1.75-9.88c-.25-2.25-.25-2.25-.75-4.51a48 48 0 0 1-.63-8.81v-10.78c0-16.06 2.2-32.23 14.13-44.15l4-2 3.38-2.43c5.93-3.74 13.87-6.05 20.9-5.34 1.79.52 1.79.52 4.72 1.77q2.5.55 5 1l-.4-1.87-.53-2.56-.53-2.5c-.7-4.01-1.12-8.02-1.54-12.07l-.28-2.55c-2.62-24.04-2.62-24.04-.23-35.82q.7-3.68 1.2-7.4l.37-2.7.75-5.51c1.1-7.95 2.47-15.5 5.4-22.97 1.44-3.73 2.56-7.55 3.73-11.36 3.45-10.97 7.19-21.3 12.48-31.52 1.58-3.17 1.58-3.17 2.6-5.78a47 47 0 0 1 3.92-7.26c3.7-6.08 6.13-12.25 8.3-19 .76-2.13.76-2.13 2.33-5.2A39 39 0 0 0 531 269l.55-2.64c.37-3.17.39-5.3-.55-8.36-2.74-2.77-5.62-4.8-8.88-6.93a48 48 0 0 1-8.61-7.53C512 242 512 242 509.07 239.69c-6.43-5.28-11.58-11.72-13.42-19.91a78 78 0 0 0-1.41-5.26c-3.27-11.51-2.6-23.25-2.5-35.11l.03-7.2q.02-9.42.09-18.87.08-15.05.12-30.11l.06-10.41c.06-11.78-.14-23.5-.81-35.26-.4-7.2-.3-14.41-.23-21.62.09-8.5.1-16.9-.88-25.36-.31-6.61 1.99-11.9 6.2-16.9a142 142 0 0 1 5.26-5.21c8.72-7.87 17.72-6.23 26.92-.3M558 668l2 2v-2zm-3 1-1 2h2z" fill="#E6E8E8"/><path d="M673 495c1.2 3.76.64 6.11-.85 9.79-2.16 4.16-5.16 7.63-8.15 11.21l-1.43 1.87c-1.8 2.34-3.08 3.94-5.88 5.01L655 523v2c-2.48 1.73-2.48 1.73-5.75 3.62l-3.23 1.92C643 532 643 532 639 532l.43 3.94c1.74 17.46 1.91 34.84 1.89 52.38q-.01 4.92.02 9.84c.29 53.58.29 53.58-4.34 62.84h-22a404 404 0 0 1-4-49l-.03-1.98c-.42-25.73.59-51.33 2.03-77.02l-2.43-1.17c-13.08-6.4-25.04-15.04-30.88-28.94-.68-2.85-.72-4.2.31-6.89l1.66 2.05c8.92 10.47 20.02 18.92 33.34 22.95l1.84.57c13.28 2.66 24.47-.98 35.85-7.82A85 85 0 0 0 673 495" fill="#000"/><path d="M739 469h2c.94 33.97-4.62 68.25-17 100l-1.9 4.95-1.01 2.61a409 409 0 0 0-8.2 22.77q-1.09 3.22-2.31 6.38c-7.29 19.3-11.23 39.86-13.58 60.29-4.35-1.19-7.37-2.23-10-6-.09-3.04-.09-3.04.5-6.62l.32-2q.56-3.19 1.18-6.38l.39-2.09a275 275 0 0 1 15.12-50.61q2.8-6.97 5.11-14.11c1.45-4.47 3-8.84 4.76-13.19 5.16-13.17 8.85-26.98 12.66-40.59q.93-3.29 1.9-6.56a284 284 0 0 0 6.25-26.23l.78-3.94A207 207 0 0 0 739 469" fill="#000101"/><path d="M512 472c1.98 2.96 2.45 4.47 3.08 7.88l.57 3 .6 3.24a490 490 0 0 0 24.7 85.15c1.25 3.26 2.36 6.53 3.43 9.85q2.4 7.38 5.16 14.63a301 301 0 0 1 13.34 46.63l.65 3.18c2.04 10.48 2.04 10.48 1.47 15.44-1.43 1.81-1.43 1.81-3.31 3l-1.87 1.25C558 666 558 666 555 665l-.16-1.99c-2.45-28.69-10.42-54.47-21.06-81.05-14.34-35.91-22.5-71.25-21.78-109.96" fill="#000101"/><path d="M672.48 152.87h7.9c14.2.02 14.2.02 17.62 2.7l1 1.43h-4v2h2c.8 15.92.8 15.92-4 22-3.88 4.03-7.74 6.8-13.36 7.3-9.85.03-18.13-.25-25.64-7.3-1.59-3.01-1.59-3.01-2.82-6.25l-1.27-3.26-.9-2.5c-1.22 2.42-1.12 3.96-1.08 6.64l.03 2.47.04 1.9c-2-2-2-2-2.2-4.38l.07-2.74.06-2.76.07-2.12h2l.25-2.31c.75-2.7.75-2.7 2.62-4.5 2.13-1.2 2.13-1.2 5.13-1.2v-2l3.75-1.92 2.11-1.1c3.55-1.61 6.73-2.1 10.62-2.1" fill="#131513"/><path d="m567.63 153.75 3.62.05q4.38.08 8.75.2v2l3.63-.13c3.8-.01 6.82.71 10.38 2.13v2h-7v2h2c.64 7.83-1.01 14.18-5 21-5.46 5.02-9.78 5.2-16.83 5.25l-2.4.06c-5.01.04-8.43-.53-12.77-3.31-1.81-2.63-2-3.76-2-7h-5c-1.34-2.64-1.1-4.68-1.08-7.63l.04-3.03.03-2.34h2c-1-3-1-3-3-5 1.63-3.28 4.63-3.89 7.96-5.16 5.5-1.52 10.99-1.25 16.66-1.09" fill="#131613"/><path d="M747.5 4.88a30.5 30.5 0 0 1 13.56 13.08c1.39 4.47 1.2 8.77 1.17 13.43v3.08l-.02 6.48-.02 9.73a477 477 0 0 1-.97 32.08c-.27 4.04-.22 8.06-.2 12.11q.06 20.36.09 40.73 0 10.46.04 20.91.04 10.1.04 20.2 0 3.85.03 7.72v10.76q.03 1.6.03 3.24l-.01 2.95v2.57C761 206 761 206 759 208c-1.47-2.96-1.12-5.94-1.1-9.17l.02-2.27q0-3.78.03-7.55l.02-5.4.05-11.66q.04-9.2.06-18.43l.02-6.3v-3.2q.05-21.44.15-42.92.07-14.46.09-28.93 0-7.65.06-15.3.04-7.22.04-14.43 0-2.64.03-5.28c.15-16.57.15-16.57-4.47-23.16-4.28-4.08-8.18-6.29-14.12-6.5-10.96.3-18.44 8.5-26.24 15.35A221 221 0 0 1 703 31.5a377 377 0 0 0-15.93 13.13q-6.93 5.98-14.05 11.72C671 58 671 58 670 59q-3.95.14-7.91.11h-2.52l-8.26-.02h-5.71l-15.07-.02-15.36-.02Q600.08 59.04 585 59l3-1 1-2h2.68l25.07.05 12.89.02 12.45.02 4.73.01 6.67.01 3.82.01c3.97-.13 7.76-.57 11.69-1.12l2.38-.32C673 54 673 54 673.77 52.21c1.67-3 3.82-4.37 6.6-6.34l2.9-2.07C686 42 686 42 688.24 41c2.29-1.29 2.65-2.66 3.77-5 1.77-1.57 1.77-1.57 3.82-3 2.43-1.74 4.75-3.47 7.06-5.38C705 26 705 26 707 26l.75-1.8c1.44-2.54 2.9-3.74 5.25-5.45l2.13-1.58C717 16 717 16 719 16l.63-1.75c1.9-3.13 4.25-4.37 7.37-6.25l3.19-2.25c5.4-2.99 11.57-2.9 17.3-.87" fill="#E8E9EA"/><path d="m814.25 538.31 1.75.7c.99 17.61-4.61 30.97-13.21 45.8-1.43 2.54-2.34 4.36-2.79 7.2h-2l-.75 2.8c-1.34 3.42-2.11 4.43-5.25 6.2-3.14.98-5.97 1.1-9.25 1.05l-2.7-.03L778 602c.55-3.87 2.25-5.33 5-8 8.79-12.23 16.02-25.5 20.14-40.02a114 114 0 0 1 2.86-8.6l.87-2.36c1.78-3.19 3.59-5.24 7.38-4.7" fill="#010101"/><path d="M630 185c3 1.3 5.48 2.92 8 5-.12 6.12-.12 6.12-2.55 8.55l-3.8 2.9c-2.67 2.51-2.96 5.02-3.65 8.55-1 1-1 1-3.88 1.31-3.12-.31-3.12-.31-5-2-1.28-2.64-1.36-4.4-1.12-7.31l-1.75-.69c-2.93-1.71-4.45-3.44-6.25-6.31-.06-2.56-.06-2.56 1-5 5.95-5.49 11.07-5.93 19-5" fill="#646667"/><path d="M696 158c5.85.88 10.05 2.1 14.38 6.31 1.99 3.31 2.24 4.88 1.62 8.69-2.89 6.17-8.09 9.8-14 13a48 48 0 0 1-18 3 80 80 0 0 1 4.9-3.08c5.65-3.25 8.98-6.57 11.1-12.92q.1-3.84.06-7.69l-.01-2.12z" fill="#F7CE5E"/><path d="M531 10c8.41 6.81 8.41 6.81 10 10l5 3q2.2 1.86 4.31 3.81c3.38 3.07 6.83 5.86 10.51 8.55 6.03 4.53 11.89 9.26 17.18 14.64 6.13 5.36 6.13 5.36 10 7l-4 2-2.46-2.09A981 981 0 0 0 565.5 43.5a765 765 0 0 1-12-10Q544.83 26.16 536 19l-2.7-2.23c-7.36-6.04-12.46-9.51-22.26-9.25-6.38 1-10.37 4.33-14.24 9.32-3 5.55-2.48 11.96-2.55 18.1l-.09 3.8q-.1 4.63-.16 9.26h-1q-.41-6.81-.75-13.62l-.25-3.9c-.44-9.55-.44-9.55 1.71-14.08L496 14l2.11-2.48C508.84.46 518.99 1.25 531 10" fill="#E2E5E3"/><path d="M588 161c5.88.29 9.06 2.91 13 7 1.74 3.48 1.58 7.21 1 11-3.4 4.04-8.12 5.37-13 7l-2.23.85A34 34 0 0 1 572 189a54 54 0 0 1 6.94-3c5.22-3.41 7.13-9.22 9.06-15q.1-2.6.06-5.19l-.02-2.73z" fill="#F0CD5F"/><path d="M616 661h21l-.5 4.94c-2.16 26.76-2.16 26.76 5.5 38.06-2.65-.37-3.78-.76-5.62-2.75-2.74-4.48-3.79-8.83-4.57-14l-.54-3.48L631 681l1-1c.07-2.75 0-5.49-.06-8.24.05-2.45.35-4.42 1.06-6.76l-2.77.04-3.61.02-3.58.04C620 665 620 665 618 664l2 3c.16 2.23.16 2.23.06 4.62A91 91 0 0 0 620 676l1 1c.14 4.3.11 7.85-1 12l-.88 4.94c-.75 3.89-1.74 6.82-4.12 10.06l-4-1 1.38-2c4.47-8.26 3.86-16.84 3.74-26l-.02-4.08z" fill="#ECEFEC"/><path d="M488 409h1l.04 1.69a304 304 0 0 0 3.61 39.04c.52 3.41.94 6.84 1.35 10.27-6-1-6-1-8.79-1.51-12.3-1.87-20.29-.15-30.46 6.7-9.37 9.58-12.68 22.72-13.75 35.81-3.01-5.29-2.48-10.47-1.38-16.31 3.4-9.11 7.23-19.24 16.38-23.69l3.38-2.44c5.93-3.74 13.86-6.04 20.9-5.33 1.78.52 1.78.52 4.72 1.77q2.5.54 5 1l-.4-1.87-.54-2.57-.52-2.49c-1.58-9.02-1.51-17.51-1.1-26.63l.16-3.93q.18-4.75.4-9.51" fill="#E1E3E4"/><path d="M800 600c-6.14 4.09-13.35 5.56-20.62 6.25-3.34 1.05-4.35 2.95-6.38 5.75a74 74 0 0 1-10 9h-2l-.65 1.71c-1.81 3.08-4.16 4.74-6.97 6.91A133 133 0 0 0 748 634v2a36 36 0 0 0 3.62 2.69c7.12 5.21 11.57 10.52 13.38 19.31.35 2.87.31 5.08 0 8l-3 2-.04-2.05c-.48-9.25-2.92-16.45-9.77-22.89-3.82-3.08-7.52-4.64-12.19-6.06v-2a80 80 0 0 1 4.69-3.44c22.1-15.69 22.1-15.69 29.04-26.17 2.99-3.15 5.89-3.6 10.02-4.2l2.05-.37c4.78-.79 9.37-.92 14.2-.82" fill="#E4E6E5"/><path d="M757 22h2c.12 35.11-.19 70.21-.45 105.32l-.18 25.47L758 205h-1l-.01-2.03-.33-48.85-.16-23.62-.14-20.6-.07-10.9-.08-12.18-.02-3.64c-.05-5.5-.28-10.75-1.19-16.18a67 67 0 0 1-.11-4.01v-2.12l.01-2.21.01-2.32q0-3.64.03-7.28l.01-4.96L755 32h1z" fill="#3E403F"/><path d="M496 211c1.76 3.29 2.96 6.67 4.19 10.19 5.36 13.94 16.42 22.85 28.61 30.89 4.1 2.73 4.1 2.73 5.2 4.92q.21 3.24.25 6.5l.08 3.53c-.73 8.79-4.32 16.72-7.83 24.72l-1.18 2.75A224 224 0 0 1 519 308h-1c.44-5.15 1.76-9.01 3.96-13.67a65 65 0 0 0 2.6-7.02 47 47 0 0 1 3-7.37A39 39 0 0 0 531 269l.54-2.64c.38-3.17.4-5.29-.54-8.36-2.75-2.77-5.63-4.79-8.89-6.94a48 48 0 0 1-8.61-7.52c-1.5-1.54-1.5-1.54-4.44-3.85-7.2-5.93-12.74-13.32-14.06-22.69.31-3.62.31-3.62 1-6" fill="#E2E3E5"/><path d="m754 354 3 1c.56 1.75.56 1.75 1 4l1 2.25a26 26 0 0 1 1.5 6.81c.5 3.94.5 3.94 1.56 6.06 1.32 2.64.94 4.95.94 7.88l1 3.44c1.04 3.71 1.07 6.73 1 10.56l1 4q.06 3 0 6c0 3 0 3 .49 4.79 1.57 6.83 1.18 15.4-.49 22.21l-3 2-.04-3.09c-.34-21.75-1.03-42.41-6.61-63.52-1.27-4.82-2-9.43-2.35-14.39" fill="#EBEEEB"/><path d="M759 108h1c1.1 59.67 1.1 59.67 1.18 80.85l.03 4.67q.02 3.16.02 6.34l.01 3.48C761 206 761 206 759 208c-1.7-3.4-1.14-7.27-1.13-11.01v-12.11l-.01-6.44.01-13.5v-30.62l-.01-6.39.01-8.92-.01-2.69c.03-6.09.03-6.09 1.14-8.32" fill="#F0F3F2"/><path d="M762 430h1q.55 2.81 1.06 5.62l.6 3.17c.35 3.33.1 5.96-.66 9.21l-1 1q-.34 2.02-.56 4.06L762 457l1.49-.95c6.72-2.81 17.4-3.09 24.45-1.11A42 42 0 0 1 802 465v4l-1.47-1.17c-10.23-7.95-18.45-10.7-31.53-9.83a47 47 0 0 0-8 3h-3l1.44-11.56.41-3.29q.99-8.09 2.15-16.15" fill="#E1E4E3"/><path d="m757 205 2 1c1.74 5.49.19 9-2 14l-1.25 3.44c-6.42 13.07-19.14 25.19-31.74 32.33C722 257 722 257 721 259c-.03 3.06.07 6.1.16 9.15C721 271 721 271 719 274c-1.6-5.64-2.18-11.23-1-17 2.82-3.5 6.21-5.64 10-8q2.11-1.55 4.19-3.12l1.94-1.46c12.54-9.53 20.34-21.62 22.64-37.47z" fill="#DEE1E2"/><path d="M588 56h76v2l4 1h-83l3-1z" fill="#F0F3F4"/><path d="m677.88 152.75 2.67-.06c5.28-.03 8.86.43 13.45 3.31v2l-1.93-.14q-4.45-.29-8.89-.55l-3.03-.22c-10.26-.56-20.05 1.22-28.15 7.91-3.97 4.36-4.4 7.59-4.14 13.24l.13 1.76c-2-2-2-2-2.19-4.38l.08-2.75.04-2.75q.05-1.05.08-2.12h2l.25-2.31c.75-2.69.75-2.69 2.63-4.5C653 160 653 160 656 160v-2l3.75-1.94 2.1-1.09c5.24-2.37 10.38-2.19 16.02-2.22" fill="#070804"/><path d="m721 12 3 2a480 480 0 0 1-21 17.5 350 350 0 0 0-14.19 11.62q-6.44 5.6-13 11.07l-2.6 2.17C671 58 671 58 668 59c-2.19-.44-2.19-.44-4-1v-2l1.9-.3 2.48-.45 2.46-.42c2.82-1.08 2.88-2.16 4.16-4.83 2.46-2.07 2.46-2.07 5.38-4.12l2.89-2.08C686 42 686 42 688.23 41.01c2.28-1.3 2.65-2.67 3.77-5.01 1.77-1.56 1.77-1.56 3.81-3 2.43-1.74 4.76-3.47 7.07-5.38C705 26 705 26 707 26l.75-1.8c1.44-2.53 2.9-3.74 5.25-5.45l2.12-1.58C717 16 717 16 719 16z" fill="#E0E2E5"/><path d="m567.63 153.75 3.62.05q4.38.08 8.75.2v2l3.63-.13c3.8-.01 6.82.71 10.38 2.13v2l-2.02-.21a202 202 0 0 0-20.12-.98h-2.99c-8.73.06-17.25.89-25.87 2.19 1-3 1-3 2.8-4.16 7.36-3.1 13.9-3.32 21.82-3.09" fill="#070905"/><path d="m883 481 1 2 2 1-1.83.88c-13.6 6.63-25.69 13.83-37.29 23.55a226 226 0 0 1-5.12 4.14c-6 4.76-11.46 9.9-16.76 15.43l-2-1c1.52-3.86 3.83-5.72 7.06-8.25 3.48-2.76 6.87-5.55 10.13-8.56a169 169 0 0 1 33.29-23.25c3.32-1.78 6.41-3.8 9.52-5.94" fill="#E1E2E4"/><path d="M1018 556h1q.5 5.71.88 11.44l.29 3.24c.49 7.94-.97 12.32-6.17 18.32l-2.16 2.56-1.9 1.88-1.91 1.93c-2.25 1.8-4.33 2.67-7.03 3.63l-1.88 1.12c-4.21 1.74-7.98 1.3-12.18-.24-8.29-5.3-8.29-5.3-9.54-10.27a61 61 0 0 1-.4-6.61c2 3 2 3 3.25 5.88 2.03 3.62 4.02 6.26 7.75 8.12 5.68 1.3 10.15.3 15.19-2.5 6.35-4.23 11.28-9.22 13.81-16.5.32-2.59.32-2.59.41-5.3l.12-2.96.09-3.05.12-3.11z" fill="#DBDBDD"/><path d="m491 666 2 2.31c6.53 6.41 14.91 6.2 23.5 6.13l3.48-.01c9.25-.16 17.22-1.65 26.02-4.43q2.5-.55 5-1c-.67 1.89-.67 1.89-2 4-2.43 1.01-2.43 1.01-5.31 1.69l-2.87.7c-10.07 2.18-19.5 2.84-29.82 2.61l-3.07-.02c-6.82-.26-11.09-2.1-15.93-6.98l-2-3z" fill="#E8EBEB"/><path d="M761 657h1c1.19 10.05 1.19 10.05-1.39 14.29-9.19 8.8-22.7 6.98-34.5 6.88-11.96-.27-11.96-.27-17.11-4.17v-2l1.93.43c7.59 1.54 14.9 1.9 22.63 1.88l3.5.05c7 .01 13.47-.48 19.94-3.36 3.72-3.84 3.68-8.88 4-14" fill="#D5D7D5"/><path d="M616 661h21l-.5 4.94c-2.16 26.76-2.16 26.76 5.5 38.06-2.65-.37-3.78-.76-5.62-2.75-2.74-4.48-3.79-8.83-4.57-14l-.54-3.48L631 681l1-1c.07-2.75 0-5.49-.06-8.24.05-2.45.35-4.42 1.06-6.76-3.64-2.42-5.86-2.39-10.19-2.62l-3.85-.23L616 662z" fill="#DDE0E1"/><path d="M491 25h2a849 849 0 0 1 1.06 49.44l-.01 6.91L494 98c-2.3-4.15-2.45-8.02-2.62-12.69l-.12-2.7a649 649 0 0 1-.22-30.88c.05-7.18-.12-14.23-.92-21.37C490 28 490 28 491 25" fill="#EDEEEE"/><path d="M488 409h1l.04 1.69a304 304 0 0 0 3.61 39.04c.52 3.41.94 6.84 1.35 10.27l-9.38-1.56L482 458v-2h8l-.4-1.87-.54-2.57-.52-2.49c-1.58-9.02-1.51-17.51-1.1-26.63l.16-3.93q.18-4.75.4-9.51" fill="#D7D9DA"/><path d="M922 471q2.69.07 5.38.31l2.96.24C933 472 933 472 936 474l-3.09.08c-14.69.53-28.44 3.46-42.31 8.28a9.4 9.4 0 0 1-6.6-.36c2.26-2.63 3.86-3.45 7.25-4.06a165 165 0 0 0 15.31-4A53 53 0 0 1 921 472z" fill="#EBEBEE"/><path d="M800 600c-6.14 4.09-13.35 5.56-20.62 6.25-3.34 1.05-4.35 2.95-6.38 5.75a87 87 0 0 1-10 9l-1-3 2.05-2.01 2.7-2.68 2.67-2.63c2.58-2.68 2.58-2.68 4.42-5.4 2.92-3.08 5.87-3.5 9.91-4.09l2.05-.37c4.78-.79 9.37-.92 14.2-.82" fill="#DEE1DE"/><path d="m949.63 474.38 3.28.76c5.13 1.43 9.67 3.6 14.4 5.99l3.25 1.63L973 484l-1 3-1.67-.8a512 512 0 0 0-13.25-6.06l-2.56-1.13A43 43 0 0 0 941 476l-2.75-.18q-9.63-.5-19.25-.82v-1l8.06-.5 2.27-.14c6.99-.43 13.42-.63 20.28 1.01" fill="#DEDEE0"/><path d="M762 430h1q.55 2.81 1.06 5.62l.6 3.17c.35 3.33.1 5.96-.66 9.21l-1 1q-.34 2.02-.56 4.06L762 457l3-1 1 3c-2.91 1.26-4.8 2-8 2l1.44-11.56.41-3.29q.99-8.09 2.15-16.15" fill="#E0E3E1"/><path d="M512 3c2.62.38 2.62.38 5 1v1h-7zm2.69 2.46L517 6v1l-3.94.12c-5.64.65-9.98 2.96-14.06 6.88-5.02 6.44-4.66 13-4.75 20.94l-.09 3.8q-.1 4.63-.16 9.26h-1q-.41-6.81-.75-13.62l-.25-3.9c-.44-9.56-.44-9.56 1.73-14.07L496 14l1.94-2.59c5.38-6.13 8.69-7.3 16.75-5.95" fill="#D9DADB"/><path d="m934 515 1 2-2.7.15-3.55.23-3.52.21c-3.03.38-4.61.97-7.23 2.41q-2.61.74-5.25 1.38a41 41 0 0 0-10.19 3.93L899 527c-2.22-.89-2.22-.89-4-2 12.89-5.97 24.5-10.77 39-10" fill="#D7D6D7"/><path d="M543 162c1.18 2.36.98 3.51.81 6.12-.08 6.68 2.98 11.83 7.19 16.88-4.91-1.49-8.4-4.44-12-8-1.61-3.21-1.62-6.53-1-10 2.5-3 2.5-3 5-5" fill="#C4AF6A"/><path d="M1016 534c7.2 10.8 5.35 27.61 5 40-2.55-2.55-2.34-3.7-2.56-7.24l-.23-3.24-.21-3.4c-.5-7.73-1.24-15.24-2.7-22.86l-.3-2.26z" fill="#E9EBEA"/><path d="M488 388h2q-.89 19.5-2 39l-2-1c-2.15-9.63-1.01-20.44 1-30q.3-2.16.56-4.31z" fill="#EDEFF0"/><path d="M974 555h1l.08 1.9a1228 1228 0 0 0 .48 11.46l.23 5.49C976 576 976 576 977 578q.34 3.06.56 6.12l.26 3.33.18 2.55c-4.37-4.09-4.48-7.69-4.78-13.34-.26-3.1-1.22-5.73-2.22-8.66.31-1.88.31-1.88 1-4q.27-2.09.5-4.19c.5-3.81.5-3.81 1.5-4.81" fill="#F5F5F9"/><path d="m587 174 1 2h2v8l3 1c-13.45 4.59-13.45 4.59-21 4a54 54 0 0 1 6.94-3c4.52-2.95 6-7.13 8.06-12" fill="#DBB950"/><path d="m735 244 1 3c-7.59 5.78-7.59 5.78-11.44 8.25C722 257 722 257 721 259c-.03 3.06.07 6.1.16 9.15C721 271 721 271 719 274c-1.6-5.64-2.19-11.24-1-17 2.83-3.5 6.19-5.66 10-8q2.07-1.49 4.12-3z" fill="#DDDFDE"/><path d="m694 178 1.44 2 1.56 2h5v-2l3 1c-7.29 6.13-15.51 8.27-25 8q2.42-1.64 4.94-3.15c6.81-4.05 6.81-4.05 9.06-7.85" fill="#E1C264"/><path d="M820 527c2.17.38 2.17.38 4 1l-4.69 4.88-2.63 2.74A18.5 18.5 0 0 1 809 540a301 301 0 0 1 .49-6.74c.6-2.65 1.37-3.63 3.51-5.26h2v3l2.25-2.06z" fill="#ECEDED"/><path d="M969 536c7.22 8.25 7.15 19.02 7.06 29.38l-.01 3.09L976 576h-1l-.04-1.77-.27-7.98-.07-2.79-.11-2.69-.08-2.48c-.52-2.75-1.7-4.13-3.43-6.29v-5q-1.1-3.54-2.44-7.01C968 538 968 538 969 536" fill="#D2D3D5"/><path d="m545 680 3 1-.84 1.73C544 689.8 543.24 696.3 543 704l-4-2c-.62-8.38 2.25-14.64 6-22" fill="#DEDEE0"/><path d="M438 497h2l1 34c-3-3-3-3-3.34-6.19l.05-3.88.01-2.08.09-6.54.04-4.44q.06-5.43.15-10.87" fill="#ECEFED"/><path d="M764 407c2.44 2.53 2.99 3.87 3.33 7.43l-.08 3.88-.05 3.87c-.19 3.69-.43 7.2-1.2 10.82l-3 2c-.18-9.37.39-18.66 1-28" fill="#F1F4F3"/><path d="M489 397h1l1 10h1q.13 5.16.19 10.31l.07 2.96.03 2.84.05 2.62C492 428 492 428 489 431z" fill="#27292B"/><path d="M592 162a16 16 0 0 1 9.04 6.15c1.83 3.52 1.87 7.04.96 10.85-2.66 2.96-5.06 4.42-9 5v-2h3v-2h3a51 51 0 0 0 1-11l-2.88.12C594 169 594 169 592 167c-.12-2.62-.12-2.62 0-5" fill="#E7CB69"/><path d="M757 644c5.36 4.49 7.42 9.37 8.29 16.29.09 2.15.09 2.15-.29 5.71l-3 2-.08-2.09c-.36-5.99-1.28-10.61-4.08-15.94C757 648 757 648 757 644" fill="#F2F3F2"/><path d="m531.38 10.63 1.64 1.26L537 15c-2 1-2 1-4.18.38a37 37 0 0 1-6.25-3.87c-5.16-3.8-10.29-4.75-16.58-5.5V5q2.07-.34 4.13-.63l2.33-.35c6.08-.07 10.31 2.95 14.92 6.6" fill="#E5E6E6"/><path d="m491 666 2 2.31c6.07 5.99 13.95 6.18 22 6.38l2.93.1q3.53.12 7.07.21v1q-5.37.3-10.75.56l-3.08.17-2.97.15-2.73.14c-5.22-.04-8.29-1.91-12.47-5.02-1.88-2.25-1.88-2.25-3-4z" fill="#D7DADA"/><path d="M703 162c2.38.19 2.38.19 5 1 2.16 3.6 2.28 6.87 2 11l-1 2h-3v-4h2v-2h-4v-2l-2-1z" fill="#F6CF5B"/><path d="M696 158a33 33 0 0 1 12 4l-2 2v-2l-3 1-1 5h-2v-6h-2l1 2c.24 4.24.33 7.36-2 11-1.53-3.07-1.1-6.27-1.06-9.62l.01-2.15z" fill="#D8BB68"/><path d="m776.19 456.75 3.67-.02C783 457 783 457 786 459c-2.16 2.17-6.8 1.51-9.81 1.69l-2.5.18-2.4.14-2.2.14c-2.43-.18-4-.94-6.1-2.15 4.55-1.75 8.35-2.27 13.2-2.25" fill="#1F2121"/><path d="M708 683c3.08 2.24 3.9 5.03 4.73 8.66.48 4.16-.1 8.21-.73 12.34l-4-1 .04-2.89.02-3.8.04-3.76A48 48 0 0 0 707 684z" fill="#D3D5D4"/><path d="m649 168 .84 1.68q1.21 2.42 2.45 4.83l1.33 2.61 1.36 2.64C656 182 656 182 656 184c-4.41-1.35-6.58-3.06-9-7-.5-4.14-.34-5.49 2-9" fill="#C1B368"/><path d="M488 409h1l.08 1.84c.93 22.33.93 22.33 1.92 31.16l-1-3h-2c-1.42-2.85-1.01-5.15-.88-8.32l.15-3.81.17-3.99.16-4.02z" fill="#C7CACA"/><path d="M788 456c-2 2-2 2-4.15 2.23l-2.64-.03-2.85-.02-2.98-.06-3.01-.02-7.37-.1 1-3q3.53-.33 7.06-.62l3.98-.36c4.22-.02 7.01.63 10.96 1.98" fill="#E7E9E9"/><path d="M812 502h1l.18 3.36.26 4.39.12 2.21c.2 3.48.6 6.67 1.44 10.04a93 93 0 0 1 0 5l-4 2z" fill="#D2D6D5"/><path d="M922 471q2.69.07 5.38.31l2.96.24C933 472 933 472 936 474l-24 1 1-3 3.94.06q2.03.04 4.06-.06z" fill="#F3F4F4"/><path d="M759 379h1c1.39 6.07 2.54 11.76 2 18-1.52 2.23-1.52 2.23-3 4a766 766 0 0 1-1.12-8.19l-.34-2.33c-.57-4.41-.74-7.42 1.46-11.48" fill="#2B2D2B"/><path d="M616 661h21l-1 12h-1l-1.27-6.05C633 665 633 665 630 663q-3.59-.43-7.19-.62l-3.85-.23L616 662z" fill="#CACDCB"/><path d="M616 662h15l-2 3c-2.09.33-2.09.33-4.5.25l-2.41-.05C620 665 620 665 618 664v9h-1z" fill="#F3F6F1"/><path d="m828.42 584.25 1.58.75a72 72 0 0 1-10 7l-2.8 1.68L815 595l-2-3q3.11-2.05 6.25-4.07l1.78-1.18c4.43-2.8 4.43-2.8 7.4-2.5" fill="#E5E5E6"/><path d="M760 445h1l1 11h3l1 3c-2.91 1.26-4.8 2-8 2z" fill="#D0D2D1"/><path d="M761 657h1c1.21 10.22 1.21 10.22-1.57 14.32-3.82 3.47-7.13 5.55-12.43 5.68l-1-3 2.08-.48c7.31-1.89 7.31-1.89 9.98-4.64 1.28-3.93 1.68-7.78 1.94-11.88" fill="#DADDDA"/><path d="M800 600c-5.38 3.59-11.61 5.18-18 6v-2l-2-1c6.8-1.9 12.92-3.41 20-3" fill="#EAEDEA"/><path d="M763 395c2 1 2 1 2.62 2.69.46 2.8.44 5.47.38 8.31v3h-1l-1 15h-1z" fill="#E4E7E6"/><path d="M443 480h1a292 292 0 0 1-3 21c-2.45-4.36-2.69-8.09-2-13a53 53 0 0 1 4-8" fill="#DBDEDD"/><path d="M491 25h2v25h-1l-1.06-10.81-.32-3.11-.28-2.97-.27-2.75C490 28 490 28 491 25" fill="#EFF0F2"/><path d="M945 519c-4.29 1.17-7.64.68-12 0l-3.69.06c-3.27-.06-4.54-.52-7.31-2.06 17.44-1.7 17.44-1.7 23 2" fill="#E6E6E6"/><path d="m588 187-4 1v2c-5.25 2.21-10.37 2.63-16 2-2.3-1.02-2.3-1.02-4-2l3.39-.4 4.42-.54 2.24-.26c4.8-.59 9.11-1.93 13.95-1.8" fill="#150E05"/><path d="M634 667h1c.11 6.77-.12 13.29-1 20l-2-1c-.69-2.5-.69-2.5-1-5l1-1c.03-2.82-.07-5.62-.16-8.43C632 669 632 669 634 667" fill="#EFF2F3"/><path d="M441 527h1q.8 3.62 1.56 7.25l.46 2.07c.73 3.5 1.3 6.28-.02 9.68-3.18-3.46-3.69-6.36-4-11 .2-2.71.58-5.32 1-8" fill="#E2E4E3"/><path d="M505 632a29 29 0 0 1 8 3v2l-2.12.84-2.76 1.1-2.74 1.09C503 641 503 641 501 642v-3c2.5-2.19 2.5-2.19 5-4z" fill="#E3E2E3"/><path d="M1018 556h1q.37 5.9.69 11.81l.22 3.4.16 3.25.18 3c-.25 2.54-.25 2.54-1.75 4.39L1017 583l-1-3 1-2q.22-2.5.32-5.01l.12-2.99.12-3.12.13-3.16z" fill="#B3B6B7"/><path d="m616 690 1 4h2l-3 9-5 1 .84-2.05 1.1-2.7 1.09-2.67c.82-2.19 1.46-4.3 1.97-6.58" fill="#E0E1E3"/><path d="M551 669c-.56 1.88-.56 1.88-2 4-5.02 2.07-8.73 2.08-14 1v-1l6.88-2 1.97-.58c4.92-1.42 4.92-1.42 7.15-1.42" fill="#DCDEDC"/><path d="m491 655 1 4h2l2 11h-3c-2.03-3.35-2.22-5.87-2.12-9.75l.05-2.98z" fill="#282A2B"/><path d="M835 515c0 3 0 3-2.19 5.48l-2.81 2.71-2.81 2.73L825 528l-2-1c1.52-3.88 3.86-5.74 7.12-8.25l2.76-2.14z" fill="#E1E3E5"/><path d="M473 457v2h-5v2l-9 3v-3c9.41-4.59 9.41-4.59 14-4" fill="#212225"/><path d="M534 259h1l1 5h1c.18 5.22-.03 9.07-2 14-2.56-3.79-2.03-7.41-1.62-11.75l.17-2.11q.21-2.58.45-5.14" fill="#2A2D2D"/><path d="m735 244 1 3c-4.48 3.52-8.77 6.65-14 9 1.53-4.09 4.11-5.8 7.62-8.25l3.04-2.14z" fill="#E8ECEC"/><path d="m692 181 1 2-1 3 3 1c-5.07 1.26-9.73 2.27-15 2 3.05-2.03 6.14-3.96 9.26-5.88C691 182 691 182 692 181" fill="#C9AC6A"/><path d="M759 428h1l1 17-2 1c-.62 2.56-.62 2.56-1 5h-1c.96-15.74.96-15.74 2-23" fill="#1E2120"/><path d="M708 163c2.71 2.2 3.89 3.38 4.5 6.88-.62 3.88-2.08 6.06-4.5 9.12l-2 1-2-2 2-2h3c.08-4.52.1-8.59-1-13" fill="#DDC67B"/><path d="m494 371 3 1c-.86 8.57-.86 8.57-3 12h-2l.44-4.81.24-2.71C493 374 493 374 494 371" fill="#212323"/><path d="M694 174h2c-1.25 5.84-4.14 8.82-9 12-2.94.88-2.94.88-5 1l2-1v-2h4v-2h2v-2h2v-4h2z" fill="#1E1405"/><path d="m600 169 2 1c.29 3.05.43 5.96 0 9-2.66 2.96-5.06 4.42-9 5v-2h3v-2h3a51 51 0 0 0 1-11" fill="#E7D381"/><path d="M890 528c-2.81 2.96-5.18 5.44-9 7 0-4 0-4 1.12-5.75 2.65-1.76 4.78-1.46 7.88-1.25" fill="#202123"/><path d="m720 271 3 1 .44 3.19q.65 4.43 1.56 8.81l-3-1c-1.81-4.09-2.21-7.56-2-12" fill="#EEF1ED"/><path d="M586 169c1.1 1.68 1.1 1.68 2 4-.54 2.47-.54 2.47-1.62 5.06l-1.04 2.6c-1.46 2.56-2.89 3.76-5.34 5.34l-2-2h2v-2h2a30 30 0 0 0 3.12-8.75l.51-2.42z" fill="#1E1304"/><path d="M493 441c2.29 3.44 2.18 4.99 2 9h-2l-1 2-1-10z" fill="#222426"/><path d="M758 655c2.39 3.58 2.16 4.87 1.81 9.06l-.23 3.23C759 670 759 670 756 672l-2-2 1.46-1.64c1.85-2.84 2.03-4.75 2.23-8.11l.2-2.98z" fill="#202420"/><path d="M488 439h2c1.28 3.85 1.07 6.95 1 11h-2l-1.06-4.94-.6-2.77L487 440z" fill="#ECEEEF"/><path d="M496 211a30 30 0 0 1 3.12 8.75l.51 2.42.37 1.83-2 1c-2.24-5.2-3.56-8.34-2-14" fill="#D4D7D6"/><path d="M673 52h2c-1.28 2.85-2.38 5.22-5 7-3.19-.31-3.19-.31-6-1v-2l9-2z" fill="#E3E5E7"/><path d="m749 675-1 2c-4.56 1.14-8.72.96-13.38.56l-3.77-.31L728 677v-1l6.56-.5 3.69-.28c3.6-.21 7.15-.26 10.75-.22" fill="#EDF0EC"/><path d="M1017 582c0 3.59-.66 4.11-3 6.69l-1.69 1.88L1011 592l-3-1 3.38-3.94 1.89-2.21C1015 583 1015 583 1017 582" fill="#D7DADB"/><path d="m859 555 1 3-7 7-3-1z" fill="#CDCED1"/><path d="m867 547 1 3c-4.11 5.7-4.11 5.7-8 7 .58-3.35 1.59-4.94 4.06-7.25l1.66-1.58z" fill="#DEDEE1"/><path d="m883 481 1 2 2 1-11 5v-3c1.75-1.39 1.75-1.39 4-2.69l2.25-1.32z" fill="#DCDEDE"/><path d="m532 266 2 1q-.17 2.19-.38 4.38l-.21 2.46C533 276 533 276 531 278c-1.37-4.52-.47-7.59 1-12" fill="#DCDEDE"/><path d="M754 218a14 14 0 0 1 2 4c-.76 3.19-1.31 4.57-4.12 6.31L750 229c1.21-3.72 2.51-7.38 4-11" fill="#D4D6D7"/><path d="m597 184-1 2h-2v2l-9-1c9-4.5 9-4.5 12-3" fill="#342511"/><path d="M542 164v6h-1l-1 5h-2c-.37-7.49-.37-7.49 1.44-10 1.56-1 1.56-1 2.56-1" fill="#DAC888"/><path d="M691 154c4.55-.37 4.55-.37 6.81 1.5L699 157h-4l1 3c-2.94-.38-2.94-.38-6-1l-1-2 5 1z" fill="#140E06"/><path d="M466 593c3.71 1.24 4.77 2.85 7 6v2c-2.75-.38-3.82-.81-5.75-2.88C466 596 466 596 466 593" fill="#DDE0DD"/><path d="m849 565 3 1-10 9c0-3 0-3 1.53-4.82l1.97-1.87 1.97-1.88z" fill="#E4E6E9"/><path d="m823 528 3 1-7 7-3-1z" fill="#1F1F22"/><path d="M761 373c2 3 2 3 1.75 5.5C762 381 762 381 760 384a220 220 0 0 1-.62-4.38l-.36-2.46L759 375z" fill="#E3E6E3"/><path d="m583 183 2 4c-4.5 2.25-8.08 2.17-13 2q3.59-1.8 7.19-3.56C582 184 582 184 583 183" fill="#86734A"/><path d="M650 177h3c3 4.22 3 4.22 3 7-4.68-1.48-4.68-1.48-6.31-4.12L649 178z" fill="#C1AC5B"/><path d="m709 672 11 2c-2.19 2.19-2.96 2.74-6 3-2.75-1.31-2.75-1.31-5-3z" fill="#DDE0DC"/><path d="M974 555h1l-1 12-2-1c-.29-7.43-.29-7.43 2-11m-2 12v3Z" fill="#F3F4F7"/><path d="M765 455h15v1l-5.25 1-2.95.56c-2.8.44-2.8.44-6.8.44z" fill="#EFF1F0"/><path d="M736 306c2.64 3.13 3.84 6.09 5 10-2.45-.98-3.78-1.69-5.31-3.88-.8-2.47-.55-3.7.31-6.12" fill="#ECEFEE"/><path d="M529 277h2c-.51 3.72-1.12 6.73-3 10l-3-2z" fill="#E8EAEA"/><path d="M698 162h2c.57 12.02.57 12.02-3 16h-2l.94-1.81a19.6 19.6 0 0 0 2.12-9.88l-.02-2.45z" fill="#ECCA6F"/><path d="M498 14c1.57 3.14.04 5.93-.94 9.12l-.59 2L495 30h-1c-.54-6.66.23-10.46 4-16" fill="#202222"/><path d="M1010 593c-5.53 4.76-5.53 4.76-9 5l-2-2q1.9-1.05 3.81-2.06l2.15-1.16c2.04-.78 2.04-.78 5.04.22" fill="#E2E4E7"/><path d="m876 539 3 1a54 54 0 0 1-7.19 6.19A248 248 0 0 1 868 549c1.92-4.29 4.62-6.77 8-10" fill="#ECECEE"/><path d="M485 455c-3.55 2.37-4.58 2.11-8.69 1.62l-3.01-.33-2.3-.29c1-2 1-2 3.06-2.75 4.02-.34 7.07.63 10.94 1.75" fill="#EFF1F3"/><path d="M747 6c5.66 1.48 5.66 1.48 7.38 4.12L755 12c-3.62 0-5.11-.89-8-3z" fill="#E0E2E3"/><path d="m830 522 2 3-6 5c0-4 0-4 2-6.25z" fill="#16181A"/><path d="m903 521 2 1c-4.29 4.75-4.29 4.75-8 5l-2-2q1.93-1.05 3.88-2.06l2.17-1.16z" fill="#CDCECA"/><path d="m858 496 3 1a264 264 0 0 1-9 7v-3c2.81-2.75 2.81-2.75 6-5" fill="#D8D9DA"/><path d="M585 179h1v5h7c-3.4 2.09-6.05 2.18-10 2z" fill="#C2A457"/><path d="m708 23 3 1c-2.81 2.96-5.18 5.44-9 7 .81-1.94.81-1.94 2-4l3-1z" fill="#DBDDDF"/><path d="M757 364c3.94 4.31 3.94 4.31 4.25 7.81L761 374l-2 1c-1.42-3.82-2.24-6.91-2-11" fill="#F0F4F0"/><path d="m511 316 3 1-4 9-2-1z" fill="#DFE1E2"/><path d="M526 248c2.94.75 2.94.75 6 2 .88 2.12.88 2.12 1 4-3.53 0-4.47-.64-7-3z" fill="#1D1E1F"/><path d="M705 180h1v5l-8 1 2.38-1.88C703 182 703 182 705 180" fill="#2F1E0F"/><path d="m592 170 1 5-3 2-2-1v-5c2-1 2-1 4-1" fill="#E5C858"/><path d="M710 691c3 3 3 3 3.07 5.04L712 702l-2-1z" fill="#F0F3F1"/><path d="m555 676 1 2h-2v2l-5 1v2l-2-1c3.45-4.8 3.45-4.8 6.25-5.81z" fill="#222425"/><path d="m843 510 2 1c-1.38 2.5-1.38 2.5-3 5h-2l-1 3c-.81-1.69-.81-1.69-1-4 2.44-2.75 2.44-2.75 5-5" fill="#17191B"/><path d="M538 162h2c-.74 4.08-1.83 8.02-3 12h-1l.44-5.44.24-3.06c.32-2.5.32-2.5 1.32-3.5" fill="#140E09"/><path d="M761 657h1v12l-4 2 .94-1.94c1.38-3.98 1.71-7.88 2.06-12.06" fill="#C9CCC9"/><path d="m983 596 12 2v1c-5.86 1.17-5.86 1.17-8 1z" fill="#D9DBDA"/><path d="M976 578h1l1 12c-2.12-2.06-2.12-2.06-4-5 .75-3.81.75-3.81 2-7" fill="#E0E0E5"/><path d="M969 536c2.15 2.62 3.4 4.64 4 8h-3q-1.09-2.97-2-6z" fill="#CDCFCF"/><path d="m883 533 1 3h-2l-2 4-3-1z" fill="#DADBDC"/><path d="M440 490h2l-1 11c-2-3.99-2.29-5.69-2-10z" fill="#D5D8D7"/><path d="M490 382h2l-1 11h-1l-.56-4.94-.32-2.77L489 383z" fill="#CBCECF"/><path d="M497 354h2l-2 10-2-2c.58-6.58.58-6.58 2-8" fill="#DCDFDE"/><path d="M544 176q3.6 4.42 7 9c-2.92-1.07-4.78-1.78-7-4-.12-2.62-.12-2.62 0-5" fill="#B5A765"/><path d="M908 473c3.19.88 3.19.88 6 2v1l-8 1-1-2z" fill="#E2E4E7"/><path d="M485 458c3.28.26 4.61.55 6.81 3.06L493 463c-5.54-.62-5.54-.62-7.88-2.56L484 459z" fill="#212324"/><path d="M752 346c2.57 2.57 2.54 4.48 3 8l-2 1c-2.09-4.43-2.09-4.43-1.62-7.31z" fill="#DCDEDD"/><path d="M546 178h4l2 7a169 169 0 0 1-6-5z" fill="#201B0A"/><path d="M522 5v2l-12-1V5q2.15-.3 4.31-.56l2.43-.32C519 4 519 4 522 5" fill="#F2F5F3"/><path d="m550 674 1 4-4 3c0-4 0-4 1.5-5.75z" fill="#F1F4F5"/><path d="M557 672v2c-1.81 1.69-1.81 1.69-4 3l-3-1c3.62-4 3.62-4 7-4" fill="#E5E8E6"/><path d="m653 163 2 2-1.38 1.25A19 19 0 0 0 650 172c-.75-2.25-.75-2.25-1-5 1.94-2.31 1.94-2.31 4-4" fill="#2E2B20"/><path d="m454 576 4 1 1 5-3-1c-1.19-2.56-1.19-2.56-2-5" fill="#ECEFED"/><path d="M443 538c1.43 2.35 2.09 3.48 1.62 6.25L444 546l-3-4z" fill="#D9DBDC"/><path d="m973 485 6 2v3l-6-3z" fill="#E8E8E9"/><path d="M455 462v3c-2.5 2.19-2.5 2.19-5 4 .25-2.38.25-2.38 1-5 2.06-1.31 2.06-1.31 4-2" fill="#EDEFED"/><path d="m528 286 3 1-1 5h-2c-1.12-3.75-1.12-3.75 0-6" fill="#1F2120"/><path d="M719 274c2.13 3.19 2.5 5.27 3 9h-2c-2.12-6.75-2.12-6.75-1-9" fill="#282B28"/><path d="M692 187v1l-12 1c4.69-3.13 6.42-2.93 12-2" fill="#887653"/><path d="m702 180 3 1c-2.25 2.06-2.25 2.06-5 4-2.31-.25-2.31-.25-4-1h2v-2h4z" fill="#E6CA7F"/></svg>