<svg style="background:transparent" version="1.1" xmlns="http://www.w3.org/2000/svg" viewBox="0 0 1248 704"><path d="M473 35c7.97 2.84 14.13 9.13 20 15l2.25 2.19a97 97 0 0 1 5.36 5.91c3.91 4.6 8.17 8.83 12.45 13.09l2.4 2.4c3.7 3.71 7.41 7.18 11.54 10.41l2.07 2.49c3.88 3.33 7.06 3.71 12.02 4.39l2.68.42q4.3.65 8.61 1.26l5.89.9 11.54 1.75a640 640 0 0 1 21.31 3.64c11.92 2.14 19.74 2.63 30.38-3.85 2.4-1.92 3.48-3.13 4.5-6l1.66.67c3.33.47 4.95-.75 7.84-2.42l2.84-1.61C641 84 641 84 643.03 82.48c4.01-3 8.54-5.18 12.97-7.48l2.85-1.5c5.75-2.85 10.7-4.79 17.15-3.5a27 27 0 0 1 7 4l2.21 1.52c3.89 3.13 5.61 5.17 6.29 10.23.08 3.77-.18 7.5-.5 11.25v3l-2 3a164 164 0 0 0-1 7q-.35 2.07-.72 4.12l-.39 2.15-.78 4.33c-.64 3.55-1.22 7.1-1.64 10.69A59 59 0 0 1 683 139q-.36 3.48-.62 6.98C682 148 682 148 680 150c-.34 2.21-.34 2.21-.5 4.81-.17 2.83-.41 4.96-1.49 7.59-1.24 3.18-1.43 6.01-1.63 9.41l-.23 3.52L676 178l4 2 .12 5.88.08 3.3C680 192 680 192 678 194h-4c-.97 2.79-1.9 5.5-2.47 8.4a69 69 0 0 1-2.09 7.54A32 32 0 0 0 668 221q-.98 2.01-2 4-.06 2.5 0 5l-.69 2.5c-.31 2.5-.31 2.5 1.25 5L668 240c-.81 2.69-.81 2.69-2 5v2l10.83 5.02 3.68 1.7 5.31 2.46 3.23 1.49q5.02 2.26 10.2 4.14a69 69 0 0 1 7.06 3.63 51 51 0 0 0 8.57 4c8.25 2.91 15.81 7.81 23.12 12.56l3 1.94c3.75 2.58 7.37 5.31 11 8.06l4.19 3.12L760 298l3 2.25 2 1.75v2l1.69.69c4.9 2.78 7.93 7.09 11.07 11.63 1.24 1.68 1.24 1.68 3.62 4.06 3.59 3.59 6.56 7.57 9.62 11.62l1.68 2.15A59 59 0 0 1 800 346a86 86 0 0 0 5 8.81 40 40 0 0 1 5 12.19l2 4c.97 2.9 1.72 5.86 2.5 8.81l.67 2.55a141 141 0 0 1 3.47 19.54c.36 3.1.36 3.1.91 5.42.82 4.87.49 9.81.41 14.73-.04 4.15.04 7.9 1.04 11.95l.43 2.72c.81 5.09 1.58 8.98 4.57 13.28q.53 2 1 4 1.08 2.55 2.18 5.08c1.86 4.35 3.49 8.73 4.76 13.3 1.13 3.87 2.58 7.53 4.12 11.26a87 87 0 0 1 2 5.67c1 2.86 2.37 5.11 3.94 7.69q1.55 3.48 3 7l1.5 3.38c1.1 2.66 2.02 5.2 2.88 7.93 1.43 4.46 3.44 8.49 5.63 12.62.99 2.07.99 2.07.99 4.07l1.94.75L862 534l.44 1.81c.85 3.3 3.14 4.88 5.56 7.19 2 3 2 3 2 6l2.44.81L875 551l1 3 2.19.84c4.26 1.75 7.11 4.99 10.35 8.17 3.02 2.9 5.52 4.63 9.46 5.99l5 3c14.79 6.66 31.29 7.78 47 4q2-.98 4-2 2.2-.53 4.44-.94c4.38-.92 7.84-2.18 10.94-5.56 1.62-1.5 1.62-1.5 5-2.94 7.72-3.33 13.03-9.53 17.87-16.25 16.41-22.12 16.41-22.12 26.73-24.83 5.63-.75 10.13-.58 15.02 2.52 4.8 4.46 7.65 8.06 8.44 14.69-.04 7.48-3.64 14.5-6.44 21.31l-1.05 2.66a133 133 0 0 1-3.33 7.53l-1.21 2.6c-1.59 2.49-2.75 3.07-5.41 4.21-1.06 1.81-1.06 1.81-2 4-1.92 3.75-4.03 5.96-7.33 8.55a47 47 0 0 0-5.11 5.39c-4.58 5.35-8.88 9.6-15.56 12.06l-2.5 2c-2.5 2-4.5 2.95-7.5 4q-4.11 1.6-8.12 3.44c-3.98 1.71-8.07 2.78-12.26 3.87q-3.07.82-6.12 1.81c-9.13 2.29-18.71 2.06-28.06 2.07l-3.5.03c-9.14.02-17.34-1.09-25.94-4.22l-2.78-.89c-5.6-1.93-10.87-4.58-16.22-7.11l-2.64-1.19c-6.13-2.85-11.3-6.58-16.6-10.72-2.76-2.09-2.76-2.09-5.62-3.74L855 597v-2l-1.8-.82c-3.64-1.95-6.3-4.89-9.2-7.8l-2.01-2.02c-6.76-6.92-12.41-14.48-17.99-22.36l-2.96-4.12q-3.55-4.93-7.04-9.88l-3 1-1.81-3-2.19-3h-3l1 3-2 2a79 79 0 0 0-1.66 4.68l-.91 2.81-.93 2.95-1.84 5.74-.82 2.58C796 569 796 569 794 572c-.12 2.69-.12 2.69 0 5l-1.88.62c-3.02 1.96-3.15 3.96-4.12 7.38l-1.62 3.56C785 592 785 592 785 594.56c0 3.34-1.52 5.48-3 8.44-.19 2.69-.19 2.69 0 5v3l-2 2c-.53 1.92-.53 1.92-.94 4.19A54 54 0 0 1 775 629c-3.08 6.95-5.63 13.51-7 21l3.44.92c15.39 4.23 15.39 4.23 21.56 9.08l2.94 2.06c2.06 1.94 2.06 1.94 3.18 3.88-.2 3.44-2.64 4.83-5.12 7.06-16.68 10.13-35.9 10.77-54.82 11.82q-6.21.36-12.43.8L721 686l-1.06 3a29 29 0 0 1-11.78 13.71c-5.84 2.3-12.3 1.76-18.47 1.73l-3.84.06c-9.4-.01-18.09-1.11-25.1-7.94l-1.95-1.8a216 216 0 0 1-3.38-3.39c-1.48-1.43-1.48-1.43-4.42-3.37q-2.42.68-4.82 1.45c-4.57 1.16-9.33 1.04-14.02 1.18l-3.54.13a2231 2231 0 0 1-15.58.49c-166.84 5.16-166.84 5.16-191.66-15.61-2.14-2.55-2.6-5.46-3.38-8.64 4.05-4.46 7.5-7.15 13.27-9.11l2.09-.75c7.98-2.75 16.15-4.58 24.39-6.33l4.77-1.03c14.42-3.1 28.8-5.37 43.48-6.78 2-9.71 2-9.71 2-13.69 0-2.31 0-2.31 1-5.31l-1.38-2.75c-1.75-3.51-2.18-6.37-2.62-10.25l-1-3a23 23 0 0 1-1-7q-.46-1.95-1-3.88a31 31 0 0 1-1-9.12l-.48-1.88a30 30 0 0 1-.8-6.22l-.11-2.4-.11-2.56-.24-5.38-.13-2.78q-.2-4.1-.45-8.18l-.15-2.6-.31-4.91c-.33-5.65-.33-5.65.34-8.27L499 541l-1-1q-.32-3.87-.5-7.75c-.37-7.69-.37-7.69-1.02-10.53-.6-3.42-.56-6.74-.51-10.2a556 556 0 0 0-.22-20.01l-.08-2.68-.32-10.94-.23-8.13-.08-2.49c-.1-3.64.08-6.76.96-10.27a38 38 0 0 0-2.12-8.12C493 446 493 446 494 443q-.93-3.03-2-6a92 92 0 0 1-1.38-7.75 50 50 0 0 0-2.12-7.63 38 38 0 0 1-2.06-8.87c-.44-3.75-.44-3.75-1.43-6.14-1.09-2.8-1.38-5.12-1.57-8.11a61 61 0 0 0-1.94-12.31c-.6-2.65-.86-5.3-1.12-7.99-.38-2.2-.38-2.2-1.41-5.03-1.07-3.51-1.14-6.32-1.03-9.98q.08-3.1.06-6.19l-1-1q-.14-3.09-.13-6.19l-.01-3.8.01-1.99-.01-6.03.01-3.8v-3.52C477 328 477 328 478 327q.07-3.06 0-6.12c-.04-4.77.05-9.21 1-13.88l1-1-.06-3.12c.06-4.01.93-7.06 2.06-10.88a93 93 0 0 0 0-5l-2.16-1.14c-4.97-2.65-9.68-5.34-14.18-8.73a33 33 0 0 0-5.47-2.88c-6.75-3.22-12.89-8.55-16.19-15.25a107 107 0 0 0-4.19-4.06c-11.01-10.75-15.81-22.91-16.04-38.09l-.02-2.54-.03-2.45c.03-5.01.75-9.09 2.28-13.86a93 93 0 0 0 0-5l.47-1.87c.54-2.19.77-4.26.97-6.51.4-3.79 1.21-7.03 2.56-10.62a75 75 0 0 0 4-16l1-2.94c1.21-3.72 1.56-7.17 2-11.06l1-4 .44-3.13c.57-3.94 1.3-7.84 2.06-11.75A193 193 0 0 0 443 108l1-3a282 282 0 0 0 1.34-10.45c.58-5.22.74-10.29.66-15.55q.46-3.5 1-7l.5-6 .27-3.15.48-6.47c1.86-8.37 6.16-14.95 12.75-20.38 3.76-1.88 7.9-1.51 12-1m200 146 1 5 1-4z" fill="#121412"/><path d="M473 35c7.97 2.84 14.13 9.13 20 15l2.25 2.19a97 97 0 0 1 5.36 5.91c3.91 4.6 8.17 8.83 12.45 13.09l2.4 2.4c3.7 3.71 7.41 7.18 11.54 10.41l2.07 2.49c3.88 3.33 7.06 3.71 12.02 4.39l2.68.42q4.3.65 8.61 1.26l5.89.9 11.54 1.75a640 640 0 0 1 21.31 3.64c11.92 2.14 19.74 2.63 30.38-3.85 2.4-1.92 3.48-3.13 4.5-6l1.66.67c3.33.47 4.95-.75 7.84-2.42l2.84-1.61C641 84 641 84 643.03 82.48c4.01-3 8.54-5.18 12.97-7.48l2.85-1.5c5.75-2.85 10.7-4.79 17.15-3.5a27 27 0 0 1 7 4l2.21 1.52c3.89 3.13 5.61 5.17 6.29 10.23.08 3.77-.18 7.5-.5 11.25v3l-2 3a164 164 0 0 0-1 7q-.35 2.07-.72 4.12l-.39 2.15-.78 4.33c-.64 3.55-1.22 7.1-1.64 10.69A59 59 0 0 1 683 139q-.36 3.48-.62 6.98C682 148 682 148 680 150c-.34 2.21-.34 2.21-.5 4.81-.17 2.83-.41 4.96-1.49 7.59-1.24 3.18-1.43 6.01-1.63 9.41l-.23 3.52L676 178l4 2 .12 5.88.08 3.3C680 192 680 192 678 194h-4c-.97 2.79-1.9 5.5-2.47 8.4a69 69 0 0 1-2.09 7.54A32 32 0 0 0 668 221q-.98 2.01-2 4-.06 2.5 0 5l-.69 2.5c-.31 2.5-.31 2.5 1.25 5L668 240c-.81 2.69-.81 2.69-2 5v2l10.83 5.02 3.68 1.7 5.31 2.46 3.23 1.49q5.02 2.26 10.2 4.14a69 69 0 0 1 7.06 3.63 51 51 0 0 0 8.57 4c8.25 2.91 15.81 7.81 23.12 12.56l3 1.94c3.75 2.58 7.37 5.31 11 8.06l4.19 3.12L760 298l3 2.25 2 1.75v2l1.69.69c4.9 2.78 7.93 7.09 11.07 11.63 1.24 1.68 1.24 1.68 3.62 4.06 3.59 3.59 6.56 7.57 9.62 11.62l1.68 2.15A59 59 0 0 1 800 346a86 86 0 0 0 5 8.81 40 40 0 0 1 5 12.19l2 4c.97 2.9 1.72 5.86 2.5 8.81l.67 2.55a141 141 0 0 1 3.47 19.54c.36 3.1.36 3.1.91 5.42.82 4.87.49 9.81.41 14.73-.04 4.15.04 7.9 1.04 11.95l.43 2.72c.81 5.09 1.58 8.98 4.57 13.28q.53 2 1 4 1.08 2.55 2.18 5.08c1.86 4.35 3.49 8.73 4.76 13.3 1.13 3.87 2.58 7.53 4.12 11.26a87 87 0 0 1 2 5.67c1 2.86 2.37 5.11 3.94 7.69q1.55 3.48 3 7l1.5 3.38c1.1 2.66 2.02 5.2 2.88 7.93 1.43 4.46 3.44 8.49 5.63 12.62.99 2.07.99 2.07.99 4.07l1.94.75L862 534l.44 1.81c.85 3.3 3.14 4.88 5.56 7.19 2 3 2 3 2 6l2.44.81L875 551l1 3 2.19.84c4.26 1.75 7.11 4.99 10.35 8.17 3.02 2.9 5.52 4.63 9.46 5.99l5 3c14.79 6.66 31.29 7.78 47 4q2-.98 4-2 2.2-.53 4.44-.94c4.38-.92 7.84-2.18 10.94-5.56 1.62-1.5 1.62-1.5 5-2.94 7.72-3.33 13.03-9.53 17.87-16.25 16.41-22.12 16.41-22.12 26.73-24.83 5.63-.75 10.13-.58 15.02 2.52 4.8 4.46 7.65 8.06 8.44 14.69-.04 7.48-3.64 14.5-6.44 21.31l-1.05 2.66a133 133 0 0 1-3.33 7.53l-1.21 2.6c-1.59 2.49-2.75 3.07-5.41 4.21-1.06 1.81-1.06 1.81-2 4-1.92 3.75-4.03 5.96-7.33 8.55a47 47 0 0 0-5.11 5.39c-4.58 5.35-8.88 9.6-15.56 12.06l-2.5 2c-2.5 2-4.5 2.95-7.5 4q-4.11 1.6-8.12 3.44c-3.98 1.71-8.07 2.78-12.26 3.87q-3.07.82-6.12 1.81c-9.13 2.29-18.71 2.06-28.06 2.07l-3.5.03c-9.14.02-17.34-1.09-25.94-4.22l-2.78-.89c-5.6-1.93-10.87-4.58-16.22-7.11l-2.64-1.19c-6.13-2.85-11.3-6.58-16.6-10.72-2.76-2.09-2.76-2.09-5.62-3.74L855 597v-2l-1.8-.82c-3.64-1.95-6.3-4.89-9.2-7.8l-2.01-2.02c-6.76-6.92-12.41-14.48-17.99-22.36l-2.96-4.12q-3.55-4.93-7.04-9.88l-3 1-1.81-3-2.19-3h-3l1 3-2 2a79 79 0 0 0-1.66 4.68l-.91 2.81-.93 2.95-1.84 5.74-.82 2.58C796 569 796 569 794 572c-.12 2.69-.12 2.69 0 5l-1.88.62c-3.02 1.96-3.15 3.96-4.12 7.38l-1.62 3.56C785 592 785 592 785 594.56c0 3.34-1.52 5.48-3 8.44-.19 2.69-.19 2.69 0 5v3l-2 2c-.53 1.92-.53 1.92-.94 4.19A54 54 0 0 1 775 629c-3.08 6.95-5.63 13.51-7 21l3.44.92c15.39 4.23 15.39 4.23 21.56 9.08l2.94 2.06c2.06 1.94 2.06 1.94 3.18 3.88-.2 3.44-2.64 4.83-5.12 7.06-16.68 10.13-35.9 10.77-54.82 11.82q-6.21.36-12.43.8L721 686l-1.06 3a29 29 0 0 1-11.78 13.71c-5.84 2.3-12.3 1.76-18.47 1.73l-3.84.06c-9.4-.01-18.09-1.11-25.1-7.94l-1.95-1.8a216 216 0 0 1-3.38-3.39c-1.48-1.43-1.48-1.43-4.42-3.37q-2.42.68-4.82 1.45c-4.57 1.16-9.33 1.04-14.02 1.18l-3.54.13a2231 2231 0 0 1-15.58.49c-166.84 5.16-166.84 5.16-191.66-15.61-2.14-2.55-2.6-5.46-3.38-8.64 4.05-4.46 7.5-7.15 13.27-9.11l2.09-.75c7.98-2.75 16.15-4.58 24.39-6.33l4.77-1.03c14.42-3.1 28.8-5.37 43.48-6.78 2-9.71 2-9.71 2-13.69 0-2.31 0-2.31 1-5.31l-1.38-2.75c-1.75-3.51-2.18-6.37-2.62-10.25l-1-3a23 23 0 0 1-1-7q-.46-1.95-1-3.88a31 31 0 0 1-1-9.12l-.48-1.88a30 30 0 0 1-.8-6.22l-.11-2.4-.11-2.56-.24-5.38-.13-2.78q-.2-4.1-.45-8.18l-.15-2.6-.31-4.91c-.33-5.65-.33-5.65.34-8.27L499 541l-1-1q-.32-3.87-.5-7.75c-.37-7.69-.37-7.69-1.02-10.53-.6-3.42-.56-6.74-.51-10.2a556 556 0 0 0-.22-20.01l-.08-2.68-.32-10.94-.23-8.13-.08-2.49c-.1-3.64.08-6.76.96-10.27a38 38 0 0 0-2.12-8.12C493 446 493 446 494 443q-.93-3.03-2-6a92 92 0 0 1-1.38-7.75 50 50 0 0 0-2.12-7.63 38 38 0 0 1-2.06-8.87c-.44-3.75-.44-3.75-1.43-6.14-1.09-2.8-1.38-5.12-1.57-8.11a61 61 0 0 0-1.94-12.31c-.6-2.65-.86-5.3-1.12-7.99-.38-2.2-.38-2.2-1.41-5.03-1.07-3.51-1.14-6.32-1.03-9.98q.08-3.1.06-6.19l-1-1q-.14-3.09-.13-6.19l-.01-3.8.01-1.99-.01-6.03.01-3.8v-3.52C477 328 477 328 478 327q.07-3.06 0-6.12c-.04-4.77.05-9.21 1-13.88l1-1-.06-3.12c.06-4.01.93-7.06 2.06-10.88a93 93 0 0 0 0-5l-2.16-1.14c-4.97-2.65-9.68-5.34-14.18-8.73a33 33 0 0 0-5.47-2.88c-6.75-3.22-12.89-8.55-16.19-15.25a107 107 0 0 0-4.19-4.06c-11.01-10.75-15.81-22.91-16.04-38.09l-.02-2.54-.03-2.45c.03-5.01.75-9.09 2.28-13.86a93 93 0 0 0 0-5l.47-1.87c.54-2.19.77-4.26.97-6.51.4-3.79 1.21-7.03 2.56-10.62a75 75 0 0 0 4-16l1-2.94c1.21-3.72 1.56-7.17 2-11.06l1-4 .44-3.13c.57-3.94 1.3-7.84 2.06-11.75A193 193 0 0 0 443 108l1-3a282 282 0 0 0 1.34-10.45c.58-5.22.74-10.29.66-15.55q.46-3.5 1-7l.5-6 .27-3.15.48-6.47c1.86-8.37 6.16-14.95 12.75-20.38 3.76-1.88 7.9-1.51 12-1m-16 7c-6.34 9.16-6.36 19.65-7.03 30.4-2.28 35.32-7.62 71.7-17.97 105.6-1.79 6.13-2.68 12.3-3.54 18.63q-.42 3.13-1 6.24c-2.59 17.59.24 32.66 10.77 47.07 9.51 12.52 20.82 20.68 34.08 28.87l2.36 1.46 2.26 1.37q.98.62 2.01 1.23A56 56 0 0 0 486 286l-.46 1.84c-7.97 33.49-6.57 69.44-.54 103.16l.62 3.49c2.32 12.92 4.78 26 9.44 38.31 4.11 11.84 3.31 23.76 3.06 36.14-.62 36.85-.62 36.85 2.4 51.59.43 2.23.64 4.27.71 6.53l.09 2.35.07 2.52.21 5.48.1 2.92a818 818 0 0 0 3.18 49.48l.22 2.45c.91 9.69 2.44 18.85 5.07 28.22 1.33 5.65 1.78 11.79.33 17.47-2.61 10.6.32 20.1 5.78 29.18 4.56 6.14 11.68 8.52 18.72 10.87 9.67 1.1 16.95-.46 25-6 6.35-5.47 9.98-12.31 11.75-20.44L572 648l.33-2.02c1-9.96-5.01-19.33-9.33-27.98q-.18-3.12-.19-6.25l-.04-3.39c.23-3.36.23-3.36 1.16-6.06 1.23-3.78 1.84-7.54 2.4-11.46l.73-4.82.37-2.52c5-33.49 5-33.49 10.57-49.5 6.12 1.98 10.11 5.61 13.78 10.73 3.03 4.1 6.34 7.82 9.84 11.52l1.84 1.95 3.74 3.91 3.45 3.65c6.22 6.59 12.27 11.95 20.35 16.24 2.32 2.32 1.19 7.95 1.19 11.06l.03 2.82A53 53 0 0 1 630 612l-3.07.41c-12.2 1.87-12.2 1.87-15.81 6.15-3.79 5.56-3.98 10.81-3.12 17.44a29 29 0 0 0 11 13c8.98 2.99 17.41.02 26-3q1.09 6.46 2.05 12.94l.94 6 .63 4.12q.44 3 .93 6l.55 3.6c1.01 3.76 2.59 6.23 4.9 9.34l1.42 1.94c5.2 6.34 11.4 10.61 19.58 12.06 4.48.36 8.94.42 13.44.44l3.6.1c8.29.05 13.5-1.18 19.47-7.02 4.28-4.78 5.77-9 5.61-15.33l-.05-2.96L718 675l2.26.05 10.24.14 3.55.07c8.39.07 14.08-.73 21.2-5.38 6.15-6.44 8.12-15.8 10.69-24.13 4.13-13.22 4.13-13.22 6.75-19.63 3.52-8.77 5.62-18.06 7.82-27.25 2.03-8.4 4.82-16.5 9.49-23.81 3.77-5.97 5.8-12.39 8-19.06l1.35-3.84c2.33-6.67 4.26-13.18 5.29-20.18C805 530 805 530 806 529l.79 1.59c8.97 17.85 8.97 17.85 15.03 24.84 2.26 2.67 4.33 5.43 6.4 8.24 9.15 12.44 18.29 24.08 30.78 33.33l3.24 2.49c20.03 15.11 43.31 24.12 68.52 23.9q3.26-.01 6.52.02c13.33.02 25.81-2.15 38.28-7.03l2.7-1.05c11.25-4.54 20.64-10.8 29.46-19.19 2.28-2.14 2.28-2.14 5.26-4.55 12.97-11.13 24.1-30.83 26.46-47.75.3-5.2.18-8.84-3.19-12.96-2.73-2.78-5.46-4.63-9.36-5.18l-2.2-.01-2.18-.05c-6.46.93-11.04 4.16-15.7 8.55l-1.68 1.56c-4.94 4.74-8.89 10.05-12.89 15.59-3.88 5.32-7.92 9.73-13.24 13.66l-2.44 1.82c-17.89 12.32-39.49 15.73-60.68 12.18-12.99-2.52-24.05-9.37-33.88-18l-3.29-2.67c-6.06-4.92-11.5-9.68-15.71-16.33l-2.36-3.56A142 142 0 0 1 847 512l-2.62-6.38-1.11-2.71c-.99-2.28-2.06-4.45-3.2-6.66-2.27-4.49-3.9-9.12-5.51-13.87l-1.83-5.33-.89-2.61c-2.6-7.58-5.22-15.11-8.46-22.44-5.32-12.54-6.34-25.91-6.57-39.38-.59-27.64-9.22-51.91-24.81-74.62l-1.27-1.88A165 165 0 0 0 773 314l-1.53-1.62A152 152 0 0 0 745 290l-4.75-3.5a197 197 0 0 0-39.84-21.32c-7.02-2.77-13.82-6.01-20.66-9.2a164 164 0 0 0-13.37-5.69C663 249 663 249 661 247c-1.03-7.85.73-15.3 2.62-22.88a405 405 0 0 0 6.13-32.18c2.68-17.42 6.09-34.67 9.65-51.93a923 923 0 0 0 5.87-30.96l.5-2.95c3.29-19.92 3.29-19.92.02-26.56-2.92-3.63-6.29-6.11-10.95-6.91-14.13-.4-25.89 8.83-37.45 15.92a425 425 0 0 1-13.43 7.76C621 98 621 98 618.64 99.6c-6.51 4.27-13.03 4.25-20.64 3.4q-3-.98-6-2-3.67-.55-7.38-.94a194 194 0 0 1-17.76-2.83c-4.57-.91-9.11-1.49-13.74-1.96l-3.74-.42q-3.67-.4-7.36-.7C532.38 93.03 528.19 89.2 522 82a125 125 0 0 0-4.06-3.56C512.53 73.8 506.97 68.95 503 63h-2l-.79-1.78c-2.13-3.9-5.54-6.6-8.77-9.6l-2.06-1.96c-6.98-6.52-14.14-13.14-24.06-13-3.9.57-5.72 2.5-8.32 5.34m216 139 1 5 1-4z" fill="#C1C3C3"/><path d="M473 35c7.97 2.84 14.13 9.13 20 15l2.25 2.19a97 97 0 0 1 5.36 5.91c3.91 4.6 8.17 8.83 12.45 13.09l2.4 2.4c3.7 3.71 7.41 7.18 11.54 10.41l2.07 2.49c3.88 3.33 7.06 3.71 12.02 4.39l2.68.42q4.3.65 8.61 1.26l5.89.9 11.54 1.75a640 640 0 0 1 21.31 3.64c11.92 2.14 19.74 2.63 30.38-3.85 2.4-1.92 3.48-3.13 4.5-6l1.66.67c3.33.47 4.95-.75 7.84-2.42l2.84-1.61C641 84 641 84 643.03 82.48c4.01-3 8.54-5.18 12.97-7.48l2.85-1.5c5.75-2.85 10.7-4.79 17.15-3.5a27 27 0 0 1 7 4l2.21 1.52c3.89 3.13 5.61 5.17 6.29 10.23.08 3.77-.18 7.5-.5 11.25v3l-2 3a164 164 0 0 0-1 7q-.35 2.07-.72 4.12l-.39 2.15-.78 4.33c-.64 3.55-1.22 7.1-1.64 10.69A59 59 0 0 1 683 139q-.36 3.48-.62 6.98C682 148 682 148 680 150c-.34 2.21-.34 2.21-.5 4.81-.17 2.83-.41 4.96-1.49 7.59-1.24 3.18-1.43 6.01-1.63 9.41l-.23 3.52L676 178l4 2 .12 5.88.08 3.3C680 192 680 192 678 194h-4c-.97 2.79-1.9 5.5-2.47 8.4a69 69 0 0 1-2.09 7.54A32 32 0 0 0 668 221q-.98 2.01-2 4-.06 2.5 0 5l-.69 2.5c-.31 2.5-.31 2.5 1.25 5L668 240c-.81 2.69-.81 2.69-2 5v2l10.83 5.02 3.68 1.7 5.31 2.46 3.23 1.49q5.02 2.26 10.2 4.14a69 69 0 0 1 7.06 3.63 51 51 0 0 0 8.57 4c8.25 2.91 15.81 7.81 23.12 12.56l3 1.94c3.75 2.58 7.37 5.31 11 8.06l4.19 3.12L760 298l3 2.25 2 1.75v2l1.69.69c4.9 2.78 7.93 7.09 11.07 11.63 1.24 1.68 1.24 1.68 3.62 4.06 3.59 3.59 6.56 7.57 9.62 11.62l1.68 2.15A59 59 0 0 1 800 346a86 86 0 0 0 5 8.81 40 40 0 0 1 5 12.19l2 4c.97 2.9 1.72 5.86 2.5 8.81l.67 2.55a141 141 0 0 1 3.47 19.54c.36 3.1.36 3.1.91 5.42.82 4.87.49 9.81.41 14.73-.04 4.15.04 7.9 1.04 11.95l.43 2.72c.81 5.09 1.58 8.98 4.57 13.28q.53 2 1 4 1.08 2.55 2.18 5.08c1.86 4.35 3.49 8.73 4.76 13.3 1.13 3.87 2.58 7.53 4.12 11.26a87 87 0 0 1 2 5.67c1 2.86 2.37 5.11 3.94 7.69q1.55 3.48 3 7l1.5 3.38c1.1 2.66 2.02 5.2 2.88 7.93 1.43 4.46 3.44 8.49 5.63 12.62.99 2.07.99 2.07.99 4.07l1.94.75L862 534l.44 1.81c.85 3.3 3.14 4.88 5.56 7.19 2 3 2 3 2 6l2.44.81L875 551l1 3 2.19.84c4.26 1.75 7.11 4.99 10.35 8.17 3.02 2.9 5.52 4.63 9.46 5.99l5 3c14.79 6.66 31.29 7.78 47 4q2-.98 4-2 2.2-.53 4.44-.94c4.38-.92 7.84-2.18 10.94-5.56 1.62-1.5 1.62-1.5 5-2.94 7.72-3.33 13.03-9.53 17.87-16.25 16.41-22.12 16.41-22.12 26.73-24.83 5.63-.75 10.13-.58 15.02 2.52 4.8 4.46 7.65 8.06 8.44 14.69-.04 7.48-3.64 14.5-6.44 21.31l-1.05 2.66a133 133 0 0 1-3.33 7.53l-1.21 2.6c-1.59 2.49-2.75 3.07-5.41 4.21-1.06 1.81-1.06 1.81-2 4-1.92 3.75-4.03 5.96-7.33 8.55a47 47 0 0 0-5.11 5.39c-4.58 5.35-8.88 9.6-15.56 12.06l-2.5 2c-2.5 2-4.5 2.95-7.5 4q-4.11 1.6-8.12 3.44c-3.98 1.71-8.07 2.78-12.26 3.87q-3.07.82-6.12 1.81c-9.13 2.29-18.71 2.06-28.06 2.07l-3.5.03c-9.14.02-17.34-1.09-25.94-4.22l-2.78-.89c-5.6-1.93-10.87-4.58-16.22-7.11l-2.64-1.19c-6.13-2.85-11.3-6.58-16.6-10.72-2.76-2.09-2.76-2.09-5.62-3.74L855 597v-2l-1.8-.82c-3.64-1.95-6.3-4.89-9.2-7.8l-2.01-2.02c-6.76-6.92-12.41-14.48-17.99-22.36l-2.96-4.12q-3.55-4.93-7.04-9.88l-3 1-1.81-3-2.19-3h-3l1 3-2 2a79 79 0 0 0-1.66 4.68l-.91 2.81-.93 2.95-1.84 5.74-.82 2.58C796 569 796 569 794 572c-.12 2.69-.12 2.69 0 5l-1.88.62c-3.02 1.96-3.15 3.96-4.12 7.38l-1.62 3.56C785 592 785 592 785 594.56c0 3.34-1.52 5.48-3 8.44-.19 2.69-.19 2.69 0 5v3l-2 2c-.53 1.92-.53 1.92-.94 4.19A54 54 0 0 1 775 629c-3.08 6.95-5.63 13.51-7 21l3.44.92c15.21 4.18 15.21 4.18 21.56 9.08l1 2c-3.19-.65-5.66-1.81-8.5-3.38-4.85-2.5-9.61-3.81-14.93-4.94C768 653 768 653 765 651c.39-7.59 2.6-13.9 5.25-20.98 3.37-9.1 6.55-18.14 8.25-27.71a76 76 0 0 1 10.56-27.37c3.75-5.92 5.76-12.32 7.94-18.94l1.35-3.84c2.32-6.64 4.24-13.1 5.19-20.09C804 530 804 530 806 528l.94 1.72c6.33 11.48 12.8 22.11 21.06 32.28q2.24 2.99 4.44 6c7.97 10.61 15.84 20.03 26.56 28l1.59 1.22c20.48 15.74 44.13 25.4 70.17 25.17q3.26-.01 6.52.02c13.33.02 25.81-2.15 38.28-7.03l2.7-1.05c11.3-4.56 20.7-10.86 29.56-19.29 2.18-2.04 2.18-2.04 4.66-3.95 12.74-10.58 23.85-30.95 25.93-47.28.23-4.74.36-8.59-2.66-12.43-3.62-3.13-6.24-4.67-11.06-4.69l-2.18-.05c-10.48 1.51-18.48 10.23-24.6 18.32l-3.03 4.16c-12.05 16.65-29.55 28.29-50.08 31.63-21.25 1.87-40.84-1.1-57.99-14.56L882 562l-3.25-2.63c-6.47-5.25-12.11-10.38-16.75-17.37l-1.16-1.72A145 145 0 0 1 846 512l-2.62-6.38-1.11-2.71c-.99-2.28-2.06-4.45-3.2-6.66-2.27-4.49-3.9-9.12-5.51-13.87l-1.83-5.33-.89-2.61c-2.6-7.58-5.22-15.11-8.46-22.44-5.32-12.54-6.34-25.91-6.57-39.38-.59-27.64-9.22-51.91-24.81-74.62l-1.27-1.88A167 167 0 0 0 772 314l-1.43-1.53A147 147 0 0 0 745 291l-4.75-3.5a197 197 0 0 0-39.84-21.32c-7.02-2.77-13.82-6.01-20.66-9.2a149 149 0 0 0-13.3-5.63c-4.48-1.75-4.48-1.75-6.45-4.35-1.3-7.72.76-15.42 2.62-22.88a405 405 0 0 0 6.13-32.18c2.68-17.42 6.09-34.67 9.65-51.93a902 902 0 0 0 5.87-30.95l.51-2.96c3.38-20.49 3.38-20.49.21-25.79-2.93-3.72-5.5-5.88-10.15-6.68-14.13-.4-25.89 8.83-37.45 15.92a425 425 0 0 1-13.43 7.76C621 99 621 99 618.64 100.6c-6.51 4.27-13.03 4.25-20.64 3.4q-3-.98-6-2-3.67-.55-7.38-.94a194 194 0 0 1-17.76-2.83c-4.57-.91-9.11-1.49-13.74-1.96l-3.74-.42q-3.67-.4-7.36-.7C532.38 94.03 528.19 90.2 522 83a121 121 0 0 0-4-3.5 150 150 0 0 1-17.31-17.38c-19.48-22.7-19.48-22.7-30.87-24.46-3.84-.06-6.22.01-9.63 1.9-8.45 9.42-8.47 20.85-9.22 32.84-2.28 35.32-7.62 71.7-17.97 105.6-1.79 6.13-2.68 12.3-3.54 18.63q-.42 3.13-1 6.24c-2.6 17.65.27 32.69 10.84 47.14 12.44 16.38 29.35 25.6 46.7 35.99-.35 5.58-.97 11.01-2.11 16.49-2.26 11.2-2.4 22.25-2.33 33.63l.01 3.05c.07 17.58 1.33 34.51 4.43 51.83l.62 3.49c2.32 12.92 4.78 26 9.44 38.31 4.11 11.84 3.31 23.76 3.06 36.14-.62 36.85-.62 36.85 2.4 51.59.43 2.23.64 4.27.71 6.53l.09 2.35.07 2.52.21 5.48.1 2.92a818 818 0 0 0 3.18 49.48l.22 2.45a158 158 0 0 0 5.06 28.24c1.89 7.9 1.26 14.82-1.16 22.5-.45 3.33-.74 6.66-1 10h-1v-7l-4.02.4-10.63 1.06-2.68.28q-2.64.26-5.27.47a73 73 0 0 0-15.78 3.1 236 236 0 0 1-20.5 5l-2.57.52c-3.65.71-6.8 1.17-10.55 1.17v2c-9.41 3.26-9.41 3.26-14 4 2.46-3.7 5.01-4.48 9.02-5.93l2.15-.78c8.04-2.85 16.25-4.71 24.58-6.48l4.77-1.03c14.42-3.1 28.8-5.37 43.48-6.78 2-9.71 2-9.71 2-13.69 0-2.31 0-2.31 1-5.31l-1.38-2.75c-1.75-3.51-2.18-6.37-2.62-10.25l-1-3a23 23 0 0 1-1-7q-.46-1.95-1-3.88a31 31 0 0 1-1-9.12l-.48-1.88a30 30 0 0 1-.8-6.22l-.11-2.4-.11-2.56-.24-5.38-.13-2.78q-.2-4.1-.45-8.18l-.15-2.6-.31-4.91c-.33-5.65-.33-5.65.34-8.27L499 541l-1-1q-.32-3.87-.5-7.75c-.37-7.69-.37-7.69-1.02-10.53-.6-3.42-.56-6.74-.51-10.2a556 556 0 0 0-.22-20.01l-.08-2.68-.32-10.94-.23-8.13-.08-2.49c-.1-3.64.08-6.76.96-10.27a38 38 0 0 0-2.12-8.12C493 446 493 446 494 443q-.93-3.03-2-6a92 92 0 0 1-1.38-7.75 50 50 0 0 0-2.12-7.63 38 38 0 0 1-2.06-8.87c-.44-3.75-.44-3.75-1.43-6.14-1.09-2.8-1.38-5.12-1.57-8.11a61 61 0 0 0-1.94-12.31c-.6-2.65-.86-5.3-1.12-7.99-.38-2.2-.38-2.2-1.41-5.03-1.07-3.51-1.14-6.32-1.03-9.98q.08-3.1.06-6.19l-1-1q-.14-3.09-.13-6.19l-.01-3.8.01-1.99-.01-6.03.01-3.8v-3.52C477 328 477 328 478 327q.07-3.06 0-6.12c-.04-4.77.05-9.21 1-13.88l1-1-.06-3.12c.06-4.01.93-7.06 2.06-10.88a93 93 0 0 0 0-5l-2.16-1.14c-4.97-2.65-9.68-5.34-14.18-8.73a33 33 0 0 0-5.47-2.88c-6.75-3.22-12.89-8.55-16.19-15.25a107 107 0 0 0-4.19-4.06c-11.01-10.75-15.81-22.91-16.04-38.09l-.02-2.54-.03-2.45c.03-5.01.75-9.09 2.28-13.86a93 93 0 0 0 0-5l.47-1.87c.54-2.19.77-4.26.97-6.51.4-3.79 1.21-7.03 2.56-10.62a75 75 0 0 0 4-16l1-2.94c1.21-3.72 1.56-7.17 2-11.06l1-4 .44-3.13c.57-3.94 1.3-7.84 2.06-11.75A193 193 0 0 0 443 108l1-3a282 282 0 0 0 1.34-10.45c.58-5.22.74-10.29.66-15.55q.46-3.5 1-7l.5-6 .27-3.15.48-6.47c1.86-8.37 6.16-14.95 12.75-20.38 3.76-1.88 7.9-1.51 12-1m200 146 1 5 1-4z" fill="#E5E5E7"/><path d="M578 533c6.43 1.95 10.97 6.39 14.8 11.75 3.04 4.12 6.37 7.85 9.89 11.56l1.84 1.96 3.72 3.89q2.38 2.51 4.75 5.04c4.96 5.16 9.69 9.28 16 12.68 2 1.12 2 1.12 4 3.12.26 2.03.26 2.03.27 4.51v2.74l-.02 2.87.02 2.81c-.01 5.66-.26 10.74-2.27 16.07-3.28 2.09-6.68 2.3-10.5 2.75-3.7.64-6.06 1.13-8.56 4a31.5 31.5 0 0 0-4.49 13.45L607 636l-2.67.15-14.14.84-6.14.38-3.73.22A26 26 0 0 0 572 640l-.81-1.8-3.63-8.08-1.27-2.83-1.22-2.72-1.13-2.51A126 126 0 0 0 562 618q-.18-3.12-.19-6.25l-.04-3.39c.23-3.36.23-3.36 1.16-6.06 1.23-3.78 1.84-7.54 2.4-11.46l.73-4.82.37-2.52c3.51-23.54 3.51-23.54 6.26-34.94l.57-2.41A76 76 0 0 1 578 533" fill="#F4F5F5"/><path d="M703 569q2.41.39 4.81.81l2.71.46c2.83.83 3.73 1.38 5.48 3.73 3.6 7.04 6.74 14.03 7 22l.11 2.87c.15 6.08-.23 11.35-2.11 17.13l-.88 2.95c-2.86 9.14-5.67 14.54-13.9 19.66-2.22 1.39-2.22 1.39-4.31 3.13L700 643l-3-1a345 345 0 0 1 .94-32.94l.26-3.75c.67-8.92.67-8.92 1.8-12.31q.3-2.13.5-4.27l.25-2.5.25-2.61c1-10.26 1-10.26 2-14.62" fill="#F0F2F1"/><path d="m764 648 1 3c2.15.81 2.15.81 4.94 1.44 8.55 2.12 16.26 5.52 24.06 9.56v2h2c.69 1.81.69 1.81 1 4-2.24 3.5-6.26 4.6-10 6h-3v2c-21.23 5.82-42.13 6.51-64 7-1.76-3.09-2-4.23-2-8l2.26-.04 10.24-.27 3.55-.07c8.64-.27 16.68-1 22.95-7.62 3.37-5.91 5.2-12.48 7-19" fill="#BEBFBC"/><path d="M504 65c3.35.58 4.94 1.58 7.28 4.02l1.8 1.85 1.86 1.94c3.86 4.01 7.67 7.74 12.06 11.19l2.08 2.5c3.88 3.32 7.05 3.7 12.01 4.38l2.68.42q4.3.65 8.61 1.26l5.89.9 11.54 1.75a640 640 0 0 1 21.31 3.64c11.92 2.14 19.74 2.63 30.38-3.85 2.4-1.92 3.48-3.13 4.5-6l1.66.67c3.33.47 4.95-.75 7.84-2.42l2.84-1.61C641 84 641 84 643.03 82.48c4.01-3 8.54-5.18 12.97-7.48l2.85-1.5c5.75-2.85 10.7-4.79 17.15-3.5a27 27 0 0 1 7 4l2.21 1.52c3.89 3.13 5.61 5.17 6.29 10.23.08 3.77-.18 7.5-.5 11.25v3l-2 3a164 164 0 0 0-1 7q-.35 2.07-.72 4.12l-.39 2.15-.78 4.33c-.64 3.55-1.22 7.1-1.64 10.69A59 59 0 0 1 683 139q-.36 3.48-.62 6.98C682 148 682 148 680 150c-.34 2.21-.34 2.21-.5 4.81A29 29 0 0 1 677 165q-.5 2.06-.94 4.12c-.72 3.09-1.4 4.95-4.06 6.88.68-6.07 1.72-12.01 2.93-18l1.16-5.84.6-3.05c12.35-62.05 12.35-62.05 8.3-68.8-2.93-3.72-5.5-5.88-10.15-6.68-14.13-.4-25.89 8.83-37.45 15.92a425 425 0 0 1-13.43 7.76C621 99 621 99 618.64 100.6c-6.51 4.27-13.03 4.25-20.64 3.4q-3-.98-6-2-3.67-.55-7.38-.94a194 194 0 0 1-17.76-2.83c-4.57-.91-9.11-1.49-13.74-1.96l-3.74-.42q-3.67-.4-7.36-.7C532.38 94.03 528.19 90.2 522 83a121 121 0 0 0-4-3.5A175 175 0 0 1 504 66z" fill="#DBDBDD"/><path d="M584 207c5.3.52 8.61 2.13 13 5 2.86 4.29 2.71 7.96 2 13-2.1 5.63-5.71 9.14-10.89 12.04-5.46 2.49-11.12 3.68-17.11 2.96-5.95-2.26-10.96-5.04-15-10l-1-3c4 2 4 2 5.81 3.12 5.47 2.19 10.97.78 16.31-1.14 1.88-.98 1.88-.98 3.32-3.42L581 223l1-1.77c1.28-2.86 1.42-5.36 1.62-8.48l.23-3.27z" fill="#E6D64E"/><path d="M493 193c5.37.79 9.52 3.01 14 6 .84 4.28.96 8.95-.91 12.95-3.07 3.92-7.16 6.59-12.1 7.37q-3.37.22-6.74.18l-2.41-.02c-6.46-.2-11.76-1.21-16.84-5.48-4.18-4.67-5.98-9.89-7-16 .46-2.23.46-2.23 1-4l.99 2.27 1.32 2.98 1.3 2.95c2.36 4.76 2.36 4.76 4.39 6.8a24.5 24.5 0 0 0 18-3c3.58-4.15 4.57-7.58 5-13" fill="#DBC44E"/><path d="M473 35c7.97 2.84 14.13 9.13 20 15l2.25 2.19c3.93 4.02 7.63 8.12 10.75 12.81-4.9-1.19-7.03-4.16-10.12-7.86-2.99-3.41-6.39-6.26-9.88-9.14l-2.59-2.14c-10.29-8.39-10.29-8.39-18.23-8.17-3.41.48-4.91 1.78-7.18 4.31-6.31 9.2-6.36 19.63-7.03 30.4-2.21 34.26-7.08 70-17.17 102.89A73 73 0 0 0 432 183l-2-2-2 1c1.01-4.27 2.11-8.42 3.56-12.56 1.31-3.8 1.91-7.45 2.44-11.44l1-2.94c1.21-3.72 1.56-7.17 2-11.06l1-4 .44-3.13c.57-3.94 1.3-7.84 2.06-11.75A193 193 0 0 0 443 108l1-3a282 282 0 0 0 1.34-10.45c.58-5.22.74-10.29.66-15.55q.46-3.5 1-7l.5-6 .27-3.15.48-6.47c1.86-8.37 6.16-14.95 12.75-20.38 3.76-1.88 7.9-1.51 12-1" fill="#E6E7E7"/><path d="M523 219.63c6.63.02 12.2 1.56 17 6.38.38 3.24.38 3.24 0 7-2.25 2.68-2.25 2.68-5 5l-2.12 2.12L531 242l-1.38 1.74c-2.5 1.93-4.57 1.57-7.62 1.25-2.6-2.6-2.51-4.32-3-7.94-.52-3.85-.81-5.78-3-9.06-.19-3.62-.19-3.62 0-7 1.83-1.82 4.53-1.3 7-1.37" fill="#65625F"/><path d="M421 674h3v2l3.75.38c2.33.23 4.02.51 6.13 1.57 8.69 4.31 20.13 4.7 29.67 5.77q4.13.48 8.26 1a621 621 0 0 0 78.98 4.48l9.02-.03c30.07-.06 60.13-.54 90.19-1.17v1c-5.88 1.21-11.76 1.33-17.74 1.54l-3.55.13-11.59.39-2.01.07C464.47 696.08 464.47 696.08 423 677z" fill="#E7E8EA"/><path d="M480 329h1l.03 2.35c.51 34.07 3.43 69.53 15.11 101.79 3.77 11.17 3.25 22.19 2.86 33.86h-1l-.08-2.05a43 43 0 0 0-4.18-16.86C493 446 493 446 494 443q-.93-3.03-2-6a92 92 0 0 1-1.38-7.75 50 50 0 0 0-2.12-7.63 38 38 0 0 1-2.06-8.87c-.44-3.75-.44-3.75-1.43-6.14-1.09-2.8-1.38-5.12-1.57-8.11a61 61 0 0 0-1.94-12.31c-.5-2.19-.5-2.19-.94-6.07-.3-2.61-.71-4.54-1.62-7.06-1.35-4.4-2.06-9.82.06-14.06q.22-3.37.32-6.76l.06-2.01.18-6.35.13-4.31z" fill="#CDCED0"/><path d="M504 65c3.35.58 4.94 1.58 7.28 4.02l1.8 1.85 1.86 1.94c3.86 4.01 7.67 7.74 12.06 11.19l2.08 2.5c3.88 3.32 7.05 3.7 12.01 4.38l2.68.42q4.3.65 8.61 1.26l5.89.9 11.54 1.75a640 640 0 0 1 21.31 3.64c16.63 2.98 16.63 2.98 22.19.4l2.5-1.13c2.19-1.12 2.19-1.12 5-2.87 2.58-1.48 4.26-1.5 7.19-1.25-8.2 7.36-15.7 10.71-26.74 10.41-3.33-.42-6.09-1.34-9.26-2.41q-3.67-.55-7.38-.94a194 194 0 0 1-17.76-2.83c-4.57-.91-9.11-1.49-13.74-1.96l-3.74-.42q-3.67-.4-7.36-.7C532.38 94.03 528.19 90.2 522 83a121 121 0 0 0-4-3.5A175 175 0 0 1 504 66z" fill="#E2E1E4"/><path d="m818 405 2 1-.02 2.03-.04 9.16-.03 3.19-.01 3.1-.01 2.84c.11 2.67.53 5.08 1.11 7.68l.43 2.72c.81 5.09 1.58 8.98 4.57 13.28q.53 2 1 4 1.08 2.55 2.18 5.08c1.86 4.35 3.49 8.73 4.76 13.3 1.13 3.87 2.58 7.53 4.12 11.26a87 87 0 0 1 2 5.67c1 2.86 2.37 5.11 3.94 7.69q1.55 3.48 3 7l1.62 3.56A36 36 0 0 1 851 517l-2 1a184 184 0 0 1-9.73-21.6 310 310 0 0 0-3.14-8.02c-2.77-6.9-5.21-13.92-7.69-20.93a307 307 0 0 0-7.33-18.67c-5.36-13.41-5.12-28.55-4.11-42.78z" fill="#E4E5E5"/><path d="M794 662c2.43.94 3.72 1.53 5.06 3.81-.06 2.19-.06 2.19-2.2 4.64-15.03 13.43-38.8 13.32-57.68 14.37q-6.21.36-12.43.8L721 686l-1.06 3c-2.84 6.56-7.26 11.78-13.98 14.45-3.46.97-6.83.86-10.4.74l-2.21-.04L688 704v-1l3-.26c9.2-.93 15.84-2.36 22.38-9.24 3.06-4.72 3.96-8.93 4.62-14.5l2 4 2.14-.48c2.94-.53 5.7-.69 8.69-.77l3.4-.09 3.58-.1c13.59-.44 26.59-1.26 39.74-4.97C780 676 780 676 784 676v-2l4.88-2 2.74-1.12C794 670 794 670 796 670v-6h-2z" fill="#E2E3E2"/><path d="M598 215h1c.58 6.31.38 10.99-3.39 16.25-5.75 6.26-12.78 8.12-20.99 9.19A28.4 28.4 0 0 1 556 230l-1-3c4 2 4 2 5.81 3.12 5.47 2.19 10.96.77 16.3-1.12 1.89-1 1.89-1 3.45-3.69L581 223c.62 1.81.62 1.81 1 4l-2 3h-2l1 3-1 3h6v-4h8v-2h2v-2h2v-4h2z" fill="#D1C566"/><path d="M1033.19 525.69c4.39 3.6 8.3 7.3 9.05 13.22A31 31 0 0 1 1038 556l-3 2 .66-1.98c2.16-7.08 4.79-16 1.36-23.04-2.7-3.42-5.81-5.66-10.13-6.28l-2.2-.01-2.18-.05c-10.55 1.53-18.52 10.32-24.7 18.43a249 249 0 0 0-4.53 6.27A54 54 0 0 1 982 563c.83-4.3 2.86-5.96 6-9a196 196 0 0 0 4.25-5.7c15.99-21.54 15.99-21.54 26.94-25 5.3-.57 9.34-.08 14 2.39" fill="#DDDFDF"/><path d="M679.63 71.5A74 74 0 0 1 683 74l2.24 1.59c3.65 3 5.6 4.93 6.1 9.75-.57 8.88-.57 8.88-3.35 11.66l-.08-2.63c-.57-11.79-.57-11.79-4.91-16.37-3.41-3.08-6.12-4.29-10.63-4.56-12.22.63-22.76 8.6-32.85 14.82-10.15 6.21-10.15 6.21-15.52 5.74q.48-1.97 1-4h3c5.01-1.2 8.65-3.67 12.84-6.55A64 64 0 0 1 649 79l4.38-2.44 2.34-1.29q2.15-1.2 4.28-2.48c6.52-3.72 12.65-4.18 19.63-1.29" fill="#E3E3E7"/><path d="M496 453c2.49 3.73 2.31 6.69 2.34 11.02l.05 2.42.07 5.14c.17 12.03.36 24.01 1.6 35.98 1.12 10.82 1.15 21.57.94 32.44h-1l-1-7h-1l-.18-1.79-.26-2.4-.24-2.35c-.32-2.46-.32-2.46-.84-4.65-.59-3.45-.56-6.8-.51-10.29a556 556 0 0 0-.22-20.01l-.08-2.68-.32-10.94-.23-8.13-.08-2.49c-.15-5.82-.15-5.82.46-8.27.5-2 .5-2 .5-6" fill="#E2E2E3"/><path d="M461 194a25 25 0 0 1 4.38 7.44c1.82 4.01 3.01 6.01 6.62 8.56 3.67.7 7.27.93 11 1l1 3h4l1 4h5v-2h6c-3.19 3.21-5.94 3.42-10.25 3.52l-2.37-.02-2.45-.02c-6.49-.2-11.82-1.18-16.93-5.48-5.07-5.68-7-12.47-7-20" fill="#D8C054"/><path d="M486 406h2c2.36 3.91 2.98 8.15 3.88 12.56a105 105 0 0 0 5.29 18.18c1.56 4.26 1.95 8.26 1.93 12.78l-.01 3.1-.03 3.19-.01 3.26L499 467h-1l-.08-2.05a43 43 0 0 0-4.18-16.86C493 446 493 446 494 443q-.93-3.03-2-6a92 92 0 0 1-1.38-7.75 50 50 0 0 0-2.12-7.63A46 46 0 0 1 486 406" fill="#E5E5E9"/><path d="m674 173 2 1v4l4 2 .12 5.88.08 3.3C680 192 680 192 678 194h-4l-.81 2.94L672 200l-3 1c-.32-5.99.29-11.5 1.38-17.38l.38-2.12c.66-3.4 1.29-5.58 3.24-8.5m-1 8 1 5 1-4z" fill="#F2F2F6"/><path d="M668 196h1c1.65 6.45 2.6 11.09-.27 17.22-1.06 2.58-.79 5.02-.73 7.78q-.98 2.01-2 4-.06 2.5 0 5l-.69 2.5c-.31 2.5-.31 2.5 1.25 5L668 240c-.81 2.62-.81 2.62-2 5v3l-6-1c-.45-8.54.86-16.1 2.88-24.38 2.1-8.84 3.87-17.61 5.12-26.62" fill="#E5E4E6"/><path d="M473 35c7.97 2.88 14.11 9.11 20 15l2.25 2.19c3.93 4.02 7.63 8.12 10.75 12.81-4.9-1.19-7.03-4.16-10.12-7.86-2.99-3.41-6.39-6.26-9.88-9.14l-2.59-2.14c-10.29-8.39-10.29-8.39-18.23-8.17-3.41.48-4.91 1.78-7.18 4.31-2.62 3.75-4.44 7.41-5 12-2-2-2-2-2.06-4.62C454.15 39.16 462.59 33.4 473 35" fill="#DDDFDF"/><path d="M504 65c3.35.58 4.94 1.58 7.28 4.02l1.8 1.85 1.86 1.94c3.86 4.01 7.67 7.74 12.06 11.19l2.02 2.61c4.67 3.75 9.84 3.9 15.67 4.64l6.82.95 3.05.4C557 93 557 93 559 94v2c-21.91.42-21.91.42-30.25-5.18-2.43-2.5-4.59-5.09-6.75-7.82a95 95 0 0 0-4-3.5A175 175 0 0 1 504 66z" fill="#E7E9EB"/><path d="M775 616c1.54 1.85 1.54 1.85 3 4-.69 2.38-.69 2.38-2 5l-2 6a828 828 0 0 1-3.88 9.78A45 45 0 0 0 768 650l3.44.92c15.21 4.18 15.21 4.18 21.56 9.08l1 2c-3.19-.65-5.66-1.81-8.5-3.38-4.85-2.5-9.61-3.81-14.93-4.94C768 653 768 653 765 651c.36-7.02 2.2-12.83 4.66-19.4A404 404 0 0 0 775 616" fill="#E4E4E6"/><path d="M874 609c5.48.59 9.85 2.57 14.81 4.81 16.78 7.25 33.03 9.06 51.19 10.19l-1 2q-5.19.08-10.38.12l-2.92.06A69 69 0 0 1 901 622l-2.77-.88c-8.38-2.9-16.34-7.1-24.23-11.12z" fill="#E7E8E8"/><path d="M850 517c2.68 2.38 4.11 4.85 5.69 8.06l1.32 2.66C858 530 858 530 858 532l1.94.75L862 534l.44 1.81c.85 3.3 3.14 4.88 5.56 7.19 2 3 2 3 2 6l2.44.81L875 551l1 3c2.06.69 2.06.69 4 1l-2 4c-12.23-10.44-22.69-24.04-29-39z" fill="#E1E1E3"/><path d="M805 528c2.75 2.46 4.4 5.16 6.19 8.38l1.6 2.83c1.27 2.92 1.71 4.66 1.21 7.79l-3 2-1.81-3-2.19-3h-3l1 3-4 2 1.44-8.88.41-2.55.4-2.44.36-2.25C804 530 804 530 805 528" fill="#E8EBE9"/><path d="m818 405 2 1-.02 2.03-.04 9.16-.03 3.19-.01 3.1-.01 2.84c.11 2.67.53 5.08 1.11 7.68l.43 2.72c.81 5.07 1.54 9.01 4.57 13.28v2c-1.86-.15-1.86-.15-4-1-1.23-2.48-1.23-2.48-2.19-5.62l-.98-3.11c-2-7.88-1.98-15.56-1.95-23.65l-.02-3.63.01-3.45v-3.15C817 406 817 406 818 405" fill="#EEEFEE"/><path d="M480 311h1c.2 16.02-.4 32-1 48-1.48-1.1-1.48-1.1-3-3-.36-2.9-.36-2.9-.33-6.38l.02-3.79.06-3.95.02-3.99c.08-9.74.08-9.74 1.23-10.89.03-3.3-.07-6.6-.16-9.9.16-3.1.16-3.1 2.16-6.1" fill="#F2F3F4"/><path d="M661 247c7.65 1.11 13.93 3.53 20.81 7l5.46 2.69 2.39 1.2a80 80 0 0 0 10.09 3.99c2.25 1.12 2.25 1.12 3.06 3.24L703 267a96 96 0 0 1-11.99-4.71l-3.39-1.58-3.5-1.65c-12.82-6.02-12.82-6.02-17.82-7.75C663 250 663 250 661 247" fill="#DBDDDC"/><path d="M976 616c-.64 1.9-.64 1.9-2 4-2.57.98-2.57.98-5.69 1.62A442 442 0 0 1 962 623l-3.56 1.12c-6.36 1.62-12.9 1.95-19.44 1.88v-1l-15-1v-1l2.15-.04c16.7-.39 34.13-6.96 49.85-6.96" fill="#D6D9D6"/><path d="M430 180h1l-.38 7.38-.09 2.05c-.22 3.9-.7 7.59-1.53 11.41-1.15 5.43-1.44 10.76-1.62 16.28L427 227c-2.37-4.27-2.51-8.01-2.75-12.81l-.17-2.37c-.28-5.11.32-8.97 1.92-13.82a93 93 0 0 0 0-5q.47-2 1-4l.44-3.62C428 182 428 182 430 180" fill="#EEEFEE"/><path d="M584 207c5.3.52 8.67 2.03 13 5 1.72 2.93.9 4.39.06 7.75L596 223h-2v3h-2v-2h-6v-2h6v-8h-2v-4h-3v-2h-2v9h-1z" fill="#E4D34B"/><path d="M496 453c2.18 3.26 2.25 4.16 2.23 7.93v3.03l-.03 3.27-.01 3.35q-.02 5.3-.07 10.61l-.02 7.18q-.03 8.82-.1 17.63a15.5 15.5 0 0 1-2.33-8.15l-.07-2.45-.05-2.62-.07-2.71-.11-5.67-.2-8.67-.12-5.51-.1-5.07-.05-2.14c.1-2.01.1-2.01.6-4.02.5-1.99.5-1.99.5-5.99" fill="#F3F3F5"/><path d="M425 223c3.83 2.56 3.62 3.84 4.56 8.25 2.27 8.65 6.93 14.83 12.44 21.75l-3 1c-7.89-8.54-13.41-17.26-15-29z" fill="#E7E7E8"/><path d="M555 227c4 2 4 2 5.78 3.06 2.79 1.18 4.96 1.14 7.97 1.06l2.98-.05L574 231l-2 1v2h-4v2h4v2h11v1c-7.66 1.86-12.81 1.13-19.69-2.57-4.03-2.5-6.77-4.82-8.31-9.43" fill="#A9A245"/><path d="M464 652a29 29 0 0 1-8.62 3.07l-2.65.53-2.73.52-2.73.56A56 56 0 0 1 436 658v2c-9.41 3.26-9.41 3.26-14 4 2.5-3.75 5.18-4.54 9.25-6l2.16-.79c10-3.54 19.93-5.87 30.59-5.21" fill="#DEDFE1"/><path d="M687 84h1l.15 2.34.23 3.04.21 3.02C689 95 689 95 691 97c0 3 0 3-2 6q-.55 3.5-1 7-.4 2.44-.88 4.88l-.42 2.3-.7 1.82-3 1q.66-5.59 1.48-11.16A269 269 0 0 0 687 84" fill="#CACACB"/><path d="m908.07 574.36 2.61.83c10.2 2.83 20.83 3.63 31.32 4.8v1c-13.23.43-26.65.43-39-5 3-2 3-2 5.07-1.63" fill="#E2E3E4"/><path d="M494 437c1.94.69 1.94.69 4 2 .98 3.53 1.12 6.87 1.1 10.52l-.01 3.1-.03 3.19-.01 3.26L499 467h-1l-.08-2.05a43 43 0 0 0-4.18-16.86C493 446 493 446 494 443q.06-3 0-6" fill="#D7D7DA"/><path d="M440 254c3.49 1.48 5.56 3.43 8.12 6.19 3.9 4 7.95 7.16 12.62 10.2A43 43 0 0 1 467 276c-6.12-.31-9.48-3.25-14-7l-2-1.59c-3.23-2.64-5.21-4.6-7-8.41a175 175 0 0 0-4-5" fill="#EDF0ED"/><path d="M461 194c2.83 3.37 4.27 6.97 6 11l1.69 2.12c1.68 2.41 1.55 4.01 1.31 6.88h7l-1 4c-6.67-2.71-10.04-5.38-13-12-1.4-4.03-2-7.7-2-12" fill="#B8AD66"/><path d="m813 384 3 1q.8 4.68 1.56 9.38l.46 2.69.42 2.58.4 2.38C819 404 819 404 818 406q-.35 3.81-.56 7.62l-.13 2.15L817 421h-1l-.06-2.06-.32-9.38-.09-3.24c-.21-5.65-.66-10.93-2.11-16.4C813 388 813 388 813 384" fill="#D9D9DB"/><path d="m1037 556 1 2a83 83 0 0 1-3 7l-1.4 3.06-1.54 3.25-1.46 3.12c-1.67 2.69-2.66 3.52-5.6 4.57 1.47-4.94 3.56-9.25 6-13.75l1.08-2.04c1.45-2.7 2.73-5.02 4.92-7.21" fill="#E8E9EB"/><path d="M506 599h1l.37 2.6c1.53 10.48 1.53 10.48 2.82 14.4.85 3.15.75 4.91-.19 8-2.54-2.54-2.98-4.56-4-8l-.64-1.86c-1.72-5.5-1.01-9.67.64-15.14" fill="#D8D8DB"/><path d="M806 359c6.11 6.11 7.48 16.83 9 25h-2l-3.5-9.12-1.01-2.6c-1.73-4.58-2.95-8.3-2.49-13.28" fill="#E5E7E7"/><path d="M568 224h10c-.88 4.88-.88 4.88-2 6-2.67.14-5.32.04-8 0z" fill="#0D0D08"/><path d="M765 650q4.5.96 9 2l2.77.62c6.06 1.5 11.32 3.41 16.23 7.38l1 2c-3.19-.65-5.66-1.81-8.5-3.38-4.86-2.51-9.59-3.77-14.93-4.85-2.7-.81-3.81-1.61-5.57-3.77" fill="#EAECED"/><path d="M625.56 93.94 628 94c-8.46 7.59-15.96 10.73-27.33 10.2-.44-.02-.44-.02-2.67-.2v-1h13l1-3c2.25-1.35 2.25-1.35 5-2.62 7.26-3.41 7.26-3.41 8.56-3.44" fill="#CBCBCC"/><path d="m510 623 2 1q.08 2.84.12 5.69l.08 3.2A20 20 0 0 1 510 641h-2c-.86-3.46-.96-5.6 0-9l-.06-2.5c.07-2.72.69-4.19 2.06-6.5" fill="#F1F1F6"/><path d="m561 593 3 2c.74 6.74-1.02 12.59-3 19h-1a1642 1642 0 0 1-.09-12.8l-.01-2.73-.01-2.52C560 594 560 594 561 593" fill="#0A0B0A"/><path d="m818 405 2 1q.12 4.16.19 8.31l.07 2.38.03 2.3.05 2.11c-.44 2.44-1.47 3.33-3.34 4.9a1642 1642 0 0 1-.09-12.8l-.01-2.73-.01-2.52C817 406 817 406 818 405" fill="#F2F4F4"/><path d="M801 543c2.06 7.12-.28 13.34-2.87 20-1.13 2-1.13 2-4.13 3q3.45-11.51 7-23" fill="#D0D3D1"/><path d="m666.19 237.94 1.8 1.06-1 2.82c-1 3.18-1 3.18-1 6.18l-5-1v-9c3-1 3-1 5.2-.06" fill="#F4F6F6"/><path d="M581 223c.62 1.81.62 1.81 1 4-2 3-2 3-5 4-1.19 3.56-1.19 3.56-2 7h-3v-2h-4v-2h4v-2h2v-2l2.38-.69c2.62-1.31 2.62-1.31 3.93-3.93z" fill="#C4B748"/><path d="M598 100q2.68.3 5.38.56l2.46.26c2.16.18 2.16.18 5.16.18v2c-10.54.27-20.58-.47-31-2v-1c6.32-.9 11.71-.87 18 0" fill="#DADADB"/><path d="m915 623 25 1-1 2q-5.43.04-10.88.06l-3.12.03-2.99.01-2.76.01C917 626 917 626 915 625z" fill="#EFF2EF"/><path d="M702 264c6.97 2.56 13.7 5.04 20 9v2c-4.48-.63-8.24-2.36-12.25-4.38l-1.93-.92A69 69 0 0 1 703 267z" fill="#E6E5E8"/><path d="M492 200c.96 3 1.36 5.09 0 8-2.5 1.12-2.5 1.12-5 2l-1 2-14-1v-1a302 302 0 0 0 5.75-.88l3.23-.49c4.69-.98 6.44-1.82 9.27-5.75z" fill="#B3A44D"/><path d="M520 235h1v5h10l-1 4c-2.76 1.38-4.95 1.19-8 1-2-2-2-2-2.2-3.95z" fill="#56575F"/><path d="M850 517c2.68 2.38 4.11 4.85 5.69 8.06l1.32 2.66C858 530 858 530 858 532h2l-2 4c-7.37-12.07-7.37-12.07-9-16z" fill="#DFE0E3"/><path d="M442 132c2.59 3.81 1.8 6.61 1 11l-.43 3.64-.45 3.61-.42 3.64c-.7 3.13-1.19 4.22-3.7 6.11a489 489 0 0 1 4-28" fill="#212325"/><path d="M504 65c3.3.58 4.91 1.55 7.23 3.94l1.74 1.77 1.78 1.85 1.82 1.87Q518.8 76.71 521 79l-1 3-10.31-10.22-2.19-2.18-2.03-2.02C504 66 504 66 504 65" fill="#CFCFD0"/><path d="M502 589c2.25 2.05 3 3.01 4 6q.1 2.84.06 5.69l-.02 3.01-.04 2.3-4-4 1-2-1-3.38c-.91-3.3-1.23-4.54 0-7.62" fill="#F2F2F4"/><path d="M609 302c2 1 2 1 3 3l-5.75 1.5-3.23.84C600 308 600 308 596 308v-4l2.59-.18 3.35-.26 3.34-.24C608 303 608 303 609 302" fill="#040705"/><path d="M499 519c2.07 3.1 2.24 3.73 2.2 7.23l-.02 2.43-.06 2.53-.02 2.56-.1 6.25h-1l-1-7h-1l-1-11h2z" fill="#F7F6F9"/><path d="M501 523h1v21h-3c-1.18-3.67-1.07-7.17-1-11l2-1c.41-2.07.41-2.07.62-4.56l.23-2.51z" fill="#D7D6D9"/><path d="m752 292 8 6 2.27 1.51L764 301v3c-3.28-1.49-5.93-3.39-8.75-5.62l-2.42-1.92L751 295z" fill="#EAEAEA"/><path d="M661 247c11.06 1.83 11.06 1.83 15 5l1 3c-6.02-1.57-11.08-3.12-16-7z" fill="#C2C1C4"/><path d="M559 94v2c-6.5.3-12.62-.83-19-2v-1c5.77-1.4 13.56-1.72 19 1" fill="#CBCACE"/><path d="m676.4 700.98 3.17.14 6.99.32 3.6.16 8.84.4v1c-7.92.89-16.03 1.69-24 1l-2-2c1-1 1-1 3.4-1.02" fill="#ACADA9"/><path d="M655 690c4.2 1.94 7.74 4.63 11.46 7.34A34 34 0 0 0 674 701l-2 2c-7.19-2.53-12.09-6.15-17-12z" fill="#E0DFDF"/><path d="M1039 538h1v6h2q-.6 2.67-1.25 5.31l-.7 2.99c-1.18 3.04-2.3 4.03-5.05 5.7l.62-2.09c1.72-6 2.87-11.68 3.38-17.91" fill="#D0D2D1"/><path d="M686 78c2.43 1.66 3.6 2.48 5 5 .25 4.09-.11 8-1 12l-2 2-.18-2.63-.26-3.49-.24-3.45c-.3-3.18-.75-6.29-1.32-9.43" fill="#F4F4F5"/><path d="M503 196h5v2h2v10h-3v-9l-4-2z" fill="#160F08"/><path d="M684 119h1a83 83 0 0 1-1 16l-3 1a46 46 0 0 1 2-16z" fill="#E9E9E9"/><path d="m880 556 1.43 1.24 1.88 1.64 1.87 1.61A39 39 0 0 0 890 564v3c-5.01-1.47-7.52-4.28-11-8z" fill="#EDEDEE"/><path d="M557 672v2c-6.28 3.33-10.89 4.45-18 4v-1l9-1v-2c5.62-2 5.62-2 9-2" fill="#05050C"/><path d="M769 633c.98 3.18 1.02 5.76.69 9.06l-.24 2.6C769 647 769 647 767 650h-2a64 64 0 0 1 4-17" fill="#D1D0D6"/><path d="M486 406h2c2.39 3.83 2.56 7.6 3 12l-3 1-1-4.81-.56-2.71C486 409 486 409 486 406" fill="#E5E5E9"/><path d="m473 218 20 1v1h-13l-1 3-5-1z" fill="#3A3418"/><path d="m460 37 2 2-2.31 2.19c-3.83 4-5.9 7.3-6.69 12.81-2-2-2-2-2.06-4.62 1.63-5.2 5.27-8.59 9.06-12.38" fill="#DEDFDF"/><path d="m764 648 1 3 3 1 1 3-5 1-1 4h-2z" fill="#B4B4B7"/><path d="M846 504c3.57 3.73 4.11 8.09 5 13l-2 1c-4.08-8.04-4.08-8.04-3.75-12.06z" fill="#ECEEF0"/><path d="M470 210h2v2h8v5l-4-1v-1l-6-1-1-3z" fill="#CDBE4F"/><path d="M461 194c3.4 4.05 6 8.64 6 14l-2 2a52 52 0 0 1-4-16" fill="#636854"/><path d="M491 191c1.96.05 1.96.05 4.38.31l2.39.24C500 192 500 192 503 194v2a43 43 0 0 1-10-3v7c-1.5-1.19-1.5-1.19-3-3-.25-2.62-.25-2.62 0-5z" fill="#282207"/><path d="M681.57 73.18A159 159 0 0 1 686 77l-1 3-2.38-2.38c-4.02-3.4-8.52-3.95-13.62-4.62v-1c8.94-1.55 8.94-1.55 12.57 1.18" fill="#CECED0"/><path d="M584 207c5.28.52 8.57 2.25 13 5l-2 2-5-2v-2h-3v-2h-2v9h-1z" fill="#B3AD51"/><path d="M493 51c3.93 1.49 4.94 3.44 7 7q2.91 3.57 6 7c-5.52-1.34-8.85-5.51-12-10-.7-2.26-.7-2.26-1-4" fill="#EAEBEC"/><path d="m780 606 3 4-1.38 1.12c-2.09 2.42-2.74 4.83-3.62 7.88h-2q.17-2.22.38-4.44l.21-2.49.41-2.07 2-1z" fill="#EAECEA"/><path d="M1036 529c4.88 4.62 4.88 4.62 6 8q.06 3.5 0 7h-2l-.37-1.86-.51-2.45-.49-2.43C1038 535 1038 535 1036 532z" fill="#E8EAE8"/><path d="M485 396h2q.55 2.12 1.06 4.25l.6 2.39c.35 2.46.11 4.02-.66 6.36v-3l-4-2c-.12-5.75-.12-5.75 1-8" fill="#DBDBDF"/><path d="m560 234 11 5v1h-11z" fill="#1F170B"/><path d="m1025 576 1 2c-.82 2.13-.82 2.13-2.12 4.56l-1.26 2.44c-1.62 2-1.62 2-4.3 2.78l-2.32.22z" fill="#DDE0E2"/><path d="M818 425c1.65 2.98 2.67 5.6 3 9-.94 2.81-.94 2.81-2 5h-1l-.56-6.44-.32-3.62L817 426z" fill="#E6E7E5"/><path d="M553 212h1l.18 2.52.26 3.29.24 3.27C555 224 555 224 556 227h-3c-1.3-2.61-1.13-4.59-1.12-7.5l-.01-2.97C552 214 552 214 553 212" fill="#47493D"/><path d="M594 210h4v2h2c2.22 6.28 2.22 6.28 1.12 9.94L600 224h-1l-.18-1.86-.26-2.45-.24-2.43C598 215 598 215 597 212l-3-1z" fill="#1E1606"/><path d="m626 89 1.81.5c2.45.56 3.83.26 6.19-.5-1 3-1 3-2.75 4.19-2.55.92-4.56.96-7.25.81.88-3.88.88-3.88 2-5" fill="#EEEEF1"/><path d="m912.19 575.44 3.29.87 2.52.69c-3 2-3 2-5.41 1.83l-2.65-.58-2.66-.54C905 577 905 577 903 575c3.72-1.24 5.44-.57 9.19.44" fill="#DCDEDE"/><path d="m990 552 1 3-8 8-1-3a28 28 0 0 1 8-8" fill="#D3D2D6"/><path d="M506 599h1l1 15-3-1c-1.6-4.95-.28-9.13 1-14" fill="#DFE0E2"/><path d="M775 616c1.54 1.84 1.54 1.84 3 4-.86 3.51-2.29 5.66-5 8-1.41-2.82-.51-4.17.44-7.12l.87-2.76z" fill="#D4D4D6"/><path d="m865 601 6 3.44 3.38 1.93L877 608v1c-4.63.7-7.02-1.04-10.64-3.61C865 604 865 604 865 601" fill="#D8DAD8"/><path d="M810 371h2q.76 2.4 1.5 4.81l.84 2.71C815 381 815 381 815 384h-2q-.76-2.12-1.5-4.25l-.84-2.39C810 375 810 375 810 371" fill="#EAEDED"/><path d="M494 216h6c-1.84 1.93-3.35 2.92-6.02 3.25q-3.6.06-7.23-.06l-2.55-.04-6.2-.15v-1h16z" fill="#C5B874"/><path d="M447 77c2.68 4.02 2.16 6.24 2 11h-3l-.06-4.38-.04-2.46C446 79 446 79 447 77" fill="#EEF1EF"/><path d="M651 685c3.23 1.21 4.01 2.01 6 5-2.17-.51-4-1-6-2q-2.81-.1-5.62-.06l-3.04.02-2.34.04v-1l1.9-.18 2.48-.26 2.46-.24C649 686 649 686 651 685" fill="#CFCED3"/><path d="M504 580h1l1 15c-4-6-4-6-4-10h2z" fill="#C4C4C7"/><path d="M784 655q1.95.89 3.88 1.81l2.17 1.02C792 659 792 659 794 662a32 32 0 0 1-8.25-3.06l-2.14-1.1L782 657z" fill="#E2E0E1"/><path d="M508 641h2l-1 12h-1v-7h-6l2.44-1.94C507 642 507 642 508 641" fill="#E2E2E6"/><path d="m577 637 3 1c-4.75 4.88-4.75 4.88-7 6l-1-4c2.31-1.56 2.31-1.56 5-3" fill="#D5D7D6"/><path d="m1020 526-1.73.8a46 46 0 0 0-6.52 4.32l-2.14 1.64L1008 534c.59-3.03.94-3.94 3.19-6.25 3.24-2.02 5.06-2.1 8.81-1.75" fill="#D2D2D2"/><path d="m469 206 2 1q2.55.34 5.12.56l2.76.26 2.12.18v2h-11z" fill="#281E0B"/><path d="M716 675h1v11h-3v-6h2v-2h-2c1-2 1-2 2-3" fill="#020107"/><path d="M893 617q2.19.42 4.38.88l2.46.49C902 619 902 619 904 621c-3.55 1.15-4.8 1.09-8.31-.44L893 619z" fill="#EFEEF0"/><path d="M502 577c2 2 2 2 2.12 5.12L504 585h-2l-1 3c-1.6-4-.29-7.05 1-11" fill="#F6F8F7"/><path d="M491 196h1c-.75 6.62-.75 6.62-3 10h-4v-2h3l.94-3.44C490 197 490 197 491 196" fill="#171201"/><path d="M520 235h1v5h2l1 4 4 1c-2.88.12-2.88.12-6 0-2-2-2-2-2.2-3.95z" fill="#515253"/><path d="M678 152c.98 2.93 1.08 4.96 1 8l-4 2q.17-2.22.38-4.44l.21-2.49.41-2.07z" fill="#E3E3E3"/><path d="M827 564c3.34 1.38 5.22 2.82 7 6-.43 2.13-.43 2.13-1 4l-3-3.88-1.69-2.17C827 566 827 566 827 564" fill="#E1E1E5"/><path d="M801 543c1.53 4.08.63 7.79 0 12h-2l.44-4.31.24-2.43C800 546 800 546 801 543" fill="#D6D7DA"/><path d="M850 517c1.71 1.63 2.93 2.87 4 5q.06 3 0 6c-2.45-2.45-3.64-4.82-5-8z" fill="#CDCFD0"/><path d="M481 303h2l-1 11c-2.63-3.94-2.63-3.94-3-7 .94-2.25.94-2.25 2-4" fill="#DEE0E2"/><path d="M439 243h3c.19 2.38.19 2.38 0 5l-3 2-2-5h2z" fill="#0D0D0A"/><path d="m661 233 4 2-2 3h-2v9h-1l-.06-5.31-.04-2.99c.1-2.7.1-2.7 1.1-5.7" fill="#CBCCCC"/><path d="M430 180h1q-.17 2.47-.38 4.94l-.21 2.77L430 190l-2 1c-1.47-3.82-.48-6.3 1-10z" fill="#F1F2F2"/><path d="m687 99 4 2-2 2c-.12 2.62-.12 2.62 0 5l-3 1c-.12-6.62-.12-6.62 1-10" fill="#F2F2F5"/><path d="M716 688c-.31 2.38-.31 2.38-1 5l-3 2-2-2c2.26-5 2.26-5 6-5" fill="#1A181B"/><path d="M454 652h10c-3.62 1.81-5.37 2.32-9.25 2.62l-2.7.23-2.05.15 4-1z" fill="#DBDBDD"/><path d="m873 551 3 1v2l4 1-2 4c-2.8-2.53-4.46-4.2-5-8" fill="#E4E4E7"/><path d="M497 516h3l1 6h-4a94 94 0 0 1-1-5z" fill="#EBEBEE"/><path d="M480 361h1l1 14c-3-3-3-3-3.07-5.7l.38-2.99.37-3.01z" fill="#F7F7F9"/><path d="m744 287 7 5-1 3-8-6z" fill="#D5D6D4"/><path d="m577 230 2 3-1 3 3 1c-1 1-1 1-3.56 1.06L575 238c.88-6.88.88-6.88 2-8" fill="#D7C746"/><path d="M666 70h10v2l-10 1z" fill="#EFF0F3"/><path d="M768 653c8.04.8 8.04.8 12 3q-2.43.12-4.88.19l-2.74.1L770 656z" fill="#CCCFCE"/><path d="m717 624 1 2c-1 1.95-1 1.95-2.44 4.12l-1.43 2.2L713 634l-2-3h2v-2h2v-4z" fill="#CECED2"/><path d="M738 282q3.06 1.91 6 4v2a16.6 16.6 0 0 1-7-3z" fill="#EAEAEC"/><path d="m665.38 72.31 1.62.7c-2.99 1.98-5.6 2.93-9 4l-1-2c5.41-3.09 5.41-3.09 8.38-2.7" fill="#E1E1E4"/><path d="M504 65c3.8.54 5.47 2.2 8 5l-1 3-3.5-3.44-1.97-1.93C504 66 504 66 504 65" fill="#C5C5C7"/><path d="M762 651c.95 2.17 1.14 3.56.4 5.82q-1.15 2.62-2.4 5.18c-1.56-3.12-.66-5.66 0-9z" fill="#0B0D0E"/><path d="m885 613 9 3-1 2c-3.37-.55-5.08-1.05-8-3z" fill="#DFE0E2"/><path d="M842 498h2l2 7-2 2c-1.5-3.37-2-5.2-2-9" fill="#E2E4E5"/><path d="M484 388c2 3 2 3 1.75 6.62L485 398l-2 1c-.14-7.43-.14-7.43 1-11" fill="#ECECF1"/><path d="M703 269q3.51.39 7 1l1 2-3 1v-2l-6 1z" fill="#0C0C0E"/><path d="m698.56 261.94 2.44.06 2 5c-5.75-1.75-5.75-1.75-8-4 1-1 1-1 3.56-1.06" fill="#D5D4D7"/><path d="M669 250c2.88.25 2.88.25 6 1 1.38 2.06 1.38 2.06 2 4-5.75-1.88-5.75-1.88-8-3z" fill="#CDCED0"/><path d="M555 227a40 40 0 0 1 8 5l-5 1c-3-3.75-3-3.75-3-6" fill="#909866"/><path d="M503 196h5v12h-1v-9l-4-2z" fill="#4C400A"/><path d="m476 37 6 3v3l-8-4z" fill="#DFE1E0"/><path d="M716 572c2 1.81 2 1.81 4 4v3h-3z" fill="#1E211F"/><path d="m981 563 3 1-2 4-5-1z" fill="#191A1E"/><path d="M823 452c1.94.75 1.94.75 4 2a13 13 0 0 1 1 4l-4-1z" fill="#E0E0E0"/><path d="M437 247c3.88 4.75 3.88 4.75 5 7-2.89-.4-3.82-.79-5.75-3.06L435 249h2z" fill="#DCDBDA"/><path d="M428 233h2l1 7-5-5z" fill="#D9D7DA"/><path d="M493 193c4.75.75 4.75.75 7 3h-6l-1 3z" fill="#8E884E"/><path d="M965 620c-2.12 2.12-2.12 2.12-5 4-3.31-.75-3.31-.75-6-2v-1a51 51 0 0 1 11-1" fill="#CDCECF"/><path d="M1039 538h1v6h2l-1 5h-2z" fill="#C2C4C4"/><path d="M835 482h2c1.76 3.09 2 4.23 2 8h-2c-1.26-2.91-2-4.8-2-8" fill="#EDEFEF"/><path d="m813 384 3 1-1 8h-1z" fill="#D1D2D6"/><path d="M664 218h3l1 3-1.94.81C664 223 664 223 663 226z" fill="#D6D6D8"/><path d="M530 90c3.86-.22 6.49.4 10 2v1l-3.88.19-2.17.1L532 93z" fill="#B8BBBD"/><path d="M450 52h2l-1 11h-1l-.56-4.94-.32-2.77L449 53z" fill="#F0F1F0"/><path d="M712 676h2v2h2l-1 4h-3z" fill="#090910"/><path d="M642 636h1v10l-4 2 .94-1.5c1.48-3.48 1.68-6.74 2.06-10.5" fill="#07090A"/><path d="m709 635 2 1v3c-3.13 1.04-3.99.93-7 0z" fill="#2C2C2E"/><path d="M784 584c2 4 2 4 1.81 6.19L785 592l-3 1z" fill="#D7D8DB"/><path d="M823 557c4.88 4.75 4.88 4.75 6 7-2.87-.57-3.86-.86-6-3z" fill="#CECED1"/><path d="M486 406h2l1 7-3-1a94 94 0 0 1-1-5z" fill="#F3F3F8"/><path d="M694 264c3.34.56 6.03 1.35 9 3l-1 2-8-3z" fill="#09080A"/><path d="m690 259 6 1v3l-5-1z" fill="#E7E5EB"/><path d="m502 218-1 2h-8c4.86-3.24 4.86-3.24 9-2" fill="#1C1504"/><path d="m686 78 5 5-4 1z" fill="#EEE"/><path d="m679 164 3 3-3 2-2-3z" fill="#F3F6F8"/><path d="m544 77 3 3-3 2-2-3z" fill="#EEF0F2"/></svg>