<svg style="background:transparent" version="1.1" xmlns="http://www.w3.org/2000/svg" viewBox="0 0 1248 704"><path d="m525 20 1.86 1.18a209 209 0 0 1 15.45 11.22c3.46 2.71 7.01 5.2 10.69 7.6l3 2v2l1.63.23c3.28 1.06 5.52 2.93 8.25 5.02l1.62 1.23a145 145 0 0 1 7.81 6.4c5.8 4.58 10.95 5.57 18.12 5.51l2.46.01q4 .02 7.99 0l5.59.01q5.84 0 11.67-.02 7.48-.03 14.96.01h11.51l5.52.01 7.7-.02 2.29.02c4.5-.06 7.26-.73 10.88-3.41l2.17-1.54 2.02-1.52 2.04-1.54C682 53 682 53 684 51h3l.62-1.81c1.89-3 4.21-3.7 7.38-5.19q1.53-1.47 3-3l2.12-1.25a90 90 0 0 0 9.7-7.13c2-1.49 3.94-2.54 6.18-3.62l1.44-1.44c1.98-1.98 4.14-3.15 6.56-4.56l2.94-2c6.93-4.53 12.72-6.34 21.06-6 5.3 1.33 9.39 4.56 12.74 8.82 3.73 6.45 4.81 13.62 3.58 20.89-.49 3.51-.34 6.98-.26 10.52-.06 2.77-.06 2.77-.52 5.99-.65 4.55-.9 9.06-1.1 13.66l-.13 2.92a666 666 0 0 0-.27 32.54l.01 2.12.05 5.76C762 121 762 121 761 122q-.12 4.11-.08 8.22l.01 2.61.03 5.64.03 8.94q.04 12.72.11 25.44l.05 15.54.03 5.92.03 8.31.03 2.44c-.02 9.42-2.08 17.52-6.24 25.94l-.97 2.13c-5.06 10.78-13.92 17.45-23.34 24.31l-1.85 1.36c-4.48 3.2-4.48 3.2-7.84 3.2 1.21 9.31 2.91 17.5 7 26l1.5 3.56c2.2 5.05 4.44 9.9 7.56 14.44a40 40 0 0 1 4.23 9.06c1.01 2.76 2.37 5.32 3.71 7.94a302 302 0 0 1 2.12 4.9q1.01 2.41 2.08 4.79a103 103 0 0 1 6.11 18.69c.69 2.62.69 2.62 2.31 5.87 1.54 3.06 1.82 5.45 2.14 8.82.35 2.78 1.32 5.28 2.24 7.93 1.36 5.1 2.13 9.7 2 15l1 2c.71 4.74 1 9.2 1 14l1 3q.15 4 .12 8l.02 2.2c-.01 3.19-.12 5.75-1.14 8.8v2.94c0 3.06 0 3.06-.5 5-.5 2.06-.5 2.06-.38 5.06.13 5.49-1.67 10.76-3.12 16l1.73-.44c9.44-2.16 19.61-3.58 28.27 1.44 8.81 5.57 16.14 12.79 19 23l1.56 4.5A47 47 0 0 1 815 500l1 1q.14 3 .12 6l.01 3.31C816 513 816 513 815 514c-.07 2.52 0 5.03.06 7.55C815 524 815 524 814 527q-.54 3.21-1 6.44c-.71 4.89-1.67 9.44-3.06 14.18C809 551 809 551 809 553l1.75-1.44C813 550 813 550 814.89 549.6c5.2-1.48 9.29-6.28 12.05-10.72C828 536 828 536 828.5 533.44c.5-2.44.5-2.44 2.06-4.88 1.73-3.07 1.6-5.09 1.44-8.56l1-1c.47-6.32.17-12.01-2-18l-1.11-3.11c-2.12-5.79-4.24-10.87-7.89-15.89a303 303 0 0 1-2.31-4.38c-2.23-4.09-4.92-7.29-8.06-10.71a31 31 0 0 1-3.82-5.66c-1.81-3.25-1.81-3.25-4-5.44C802 454 802 454 801.5 451.88L801 450l-1.86-.82c-2.79-1.53-3.46-3.05-4.89-5.87l-1.53-2.96L791 437l-3.18-5.79-2.1-3.82c-3.56-6.58-4.97-13.02-5.78-20.39-.46-3.94-.92-7.87-1.52-11.79-.48-3.66-.05-6.57.58-10.21l.12-2.02c.86-14.16 10-30.91 20.5-40.42 6.99-5.86 14.32-11.28 22.38-15.56l1.72-.97c14.07-6.35 35.54-8.93 50.28-4.03 8.55 3.44 15.4 7.78 20 16a53 53 0 0 1 2 7l.81 2.69c.19 2.31.19 2.31-.93 4.43-2.11 2.11-4.3 3.4-6.88 4.88l-1.44 1.5c-4.63 4.45-9.76 4.92-15.88 5.29-2.64.21-5.09.67-7.68 1.21q-4.97.72-9.94 1.4A22 22 0 0 0 847 369l-3.12.88C841 371 841 371 839.62 373.12L839 375h-3c-1.75 1.25-1.75 1.25-3 3l.5 2 .5 2q-1.47 1.53-3 3c-1.25 3.06-1.25 3.06-2 6l1 2-1 2c-.65 10.54 3.78 20.95 9.47 29.66a88 88 0 0 1 3.38 5.7c2.15 3.78 4.72 7.08 7.46 10.45 3.93 4.91 7.65 9.89 11.2 15.08a67 67 0 0 0 4.24 5.36A36 36 0 0 1 870 470l1.15 2.3c3.73 7.66 5.83 15.46 7.85 23.7l1.19 4.38c1.59 7.11 1.92 14.05 2 21.31l.04 2.19c0 4.46-.68 7.96-2.23 12.12l-.38 3.88c-.51 4.65-2.36 8.07-4.62 12.12l-1.28 2.53c-5.54 10.72-12.31 19.9-21.72 27.47l-4.12 3.69c-5.36 4.81-11.06 8.07-17.69 10.75l-2.22.9c-13.56 5.41-27.27 8.45-41.67 10.55L779 609l-2.89.41c-6.04 1.69-10.54 8.03-14.49 12.59-4.32 4.93-9.09 8.51-14.62 12l2.06 1.62L752 638l1.75 1.36c7.16 5.75 10.47 12.42 11.63 21.64-.6 4.74-2.85 8.07-5.82 11.81-9.54 7.26-25.28 5.95-36.56 5.19a65 65 0 0 1-12-3l-3.17-1.09q-3.93-1.4-7.83-2.91l-1 1 1.69 1.19c6.21 4.86 9.8 9.98 11.31 17.81q.1 3.38.06 6.75l-.02 3.55-.04 2.7q-14.2.13-28.4.21-6.59.03-13.18.09-6.37.07-12.73.08l-4.85.04q-3.4.04-6.8.03l-3.91.03c-3.13-.48-3.13-.48-5.02-2.38-4.77-8.98-6.8-19.12-5.11-29.1l-.06-2.75C632 668 632 668 634 664h-16l2 4c.42 3.72.32 7.45.31 11.19l.05 3.04c.01 7.17-.45 14.03-4.99 19.86-3.23 2.6-5.28 2.41-9.4 2.41l-2.12.02-6.92-.02h-4.81q-5.04 0-10.07-.03-6.46-.04-12.93-.02-4.96.01-9.93-.01h-4.77q-3.32 0-6.65-.04l-3.82-.01L541 704c-2.39-3.58-2.72-5.87-2-10a82 82 0 0 1 8-17c-3.52-2.25-5.66-2-9.69-1.19l-3.24.6-3.07.59c-8.36 1.5-16.61.78-25 0l-3.01-.23c-4.77-.62-7.62-1.83-11.05-5.27-4.36-5.66-4.3-11.14-3.56-18 3.3-7.11 9.32-12.91 15.62-17.5h2a141 141 0 0 0-10.45-9.67A66 66 0 0 1 492 623l-2.94-2.44c-10.98-9.43-20.72-20.02-28.06-32.56l-3.44-5.31A86 86 0 0 1 448 563l-1.56-2.44c-1.79-3.19-2-5.95-2.44-9.56q-.96-3.01-2-6a86 86 0 0 1-2.79-14.98c-.21-2.02-.21-2.02-.71-4.46-1.96-10.07-2.88-21.54-.5-31.56l.8-3.42c3.39-13.41 7.63-24.61 19.82-32.26a37.5 37.5 0 0 1 28.69-3.32l2.69 1c-.46-3.47-.89-6.67-2-10-1.1-6.5-1.58-13.06-2.12-19.62l-.31-3.4-.27-3.27-.25-2.96A31 31 0 0 1 486 409q.03-2.62-.06-5.25c-.06-4.53.5-8.45 1.62-12.82.44-1.93.44-1.93.44-4.62 0-3.04 1.04-5.43 2-8.31l.66-5.96c.45-2.71 1.49-5.15 2.48-7.7 1.64-4.46 2.89-9.04 4.24-13.59 2.44-8.14 5.03-16.03 8.62-23.75l1.76-3.84a555 555 0 0 1 9.74-20.09c4.54-8.92 4.54-8.92 6.12-13.32a59 59 0 0 1 3.44-7.69c3.25-6.36 5-13.05 2.94-20.06-2.54-2.61-5.12-4.07-8.31-5.81A49 49 0 0 1 510 247v-2l-1.69-.62c-4.9-2.92-7.34-7.21-9.31-12.38l-.96-1.94c-9.44-20.01-6.37-45.77-6.19-67.29q.09-10.97.13-21.93l.06-7.56c.05-7.91-.08-15.71-.81-23.61-.34-3.94-.3-7.85-.23-11.79.05-5.86-.14-11.55-.78-17.37-.32-3.61-.23-7.2-.19-10.83a99 99 0 0 0-.81-10.15c-.31-3.6-.23-7.18-.18-10.8a63 63 0 0 0-.73-7.98c-.52-4.68.43-7.55 2.69-11.75l1.38-3.19c1.84-3.18 3.61-4.73 6.62-6.81l2.19-1.69c8.53-3.98 16.17-2.28 23.81 2.69m168 648 1 2 2-1zm-138 2 2 1 3-3c-2 0-2 0-5 2m-3 0c-2.12.94-2.12.94-4 2l3 3 3-4z" fill="#151816"/><path d="M884.56 329.88c3.97 3.38 7.04 6.35 7.81 11.74.2 4.44-.08 7.69-1.8 11.81-6.43 6.44-14.7 7.26-23.39 8.06-13.67 1.51-25.35 3.88-35.56 13.82-5.53 9.16-6.5 20.44-4.13 30.83 4.48 15.3 13.61 27.66 23.51 39.86 18.36 22.87 30.37 50.22 28 80-2.03 17.1-7.48 31.96-19 45l-2.17 2.66C841.38 593.13 813.86 602.7 789 605c-4.67.25-9.33.2-14 0 6.55-10.37 6.55-10.37 9.87-15.18a196 196 0 0 0 7.81-12.95q.59-1 1.16-2.02c3.18-5.69 6.17-11.34 7.16-17.86l1 3a784 784 0 0 0 8.56-4.56l2.42-1.26c10.83-5.87 15.46-12.84 20.02-24.17l1.04-2.46c4.62-12 1.31-24.04-3.7-35.42-6.36-13.66-15.2-25.49-24.53-37.25-12.23-15.48-22.85-33.8-23.8-53.87l-.13-2.31c-.9-19.75 3.78-36.2 16.18-51.87 20.1-21.15 60.33-35.02 86.5-16.94" fill="#0E1110"/><path d="m525 20 1.86 1.18a209 209 0 0 1 15.45 11.22c3.46 2.71 7.01 5.2 10.69 7.6l3 2v2l1.63.23c3.28 1.06 5.52 2.93 8.25 5.02l1.62 1.23a145 145 0 0 1 7.81 6.4c5.8 4.58 10.95 5.57 18.12 5.51l2.46.01q4 .02 7.99 0l5.59.01q5.84 0 11.67-.02 7.48-.03 14.96.01h11.51l5.52.01 7.7-.02 2.29.02c4.5-.06 7.26-.73 10.88-3.41l2.17-1.54 2.02-1.52 2.04-1.54C682 53 682 53 684 51h3l.62-1.81c1.89-3 4.21-3.7 7.38-5.19q1.53-1.47 3-3l2.12-1.25a90 90 0 0 0 9.7-7.13c2-1.49 3.94-2.54 6.18-3.62l1.44-1.44c1.98-1.98 4.14-3.15 6.56-4.56l2.94-2c6.93-4.53 12.72-6.34 21.06-6 5.3 1.33 9.39 4.56 12.74 8.82 3.73 6.45 4.81 13.62 3.58 20.89-.49 3.51-.34 6.98-.26 10.52-.06 2.77-.06 2.77-.52 5.99-.65 4.55-.9 9.06-1.1 13.66l-.13 2.92a666 666 0 0 0-.27 32.54l.01 2.12.05 5.76C762 121 762 121 761 122q-.12 4.11-.08 8.22l.01 2.61.03 5.64.03 8.94q.04 12.72.11 25.44l.05 15.54.03 5.92.03 8.31.03 2.44c-.02 9.42-2.08 17.52-6.24 25.94l-.97 2.13c-5.06 10.78-13.92 17.45-23.34 24.31l-1.85 1.36c-4.48 3.2-4.48 3.2-7.84 3.2 1.21 9.31 2.91 17.5 7 26l1.5 3.56c2.2 5.05 4.44 9.9 7.56 14.44a40 40 0 0 1 4.23 9.06c1.01 2.76 2.37 5.32 3.71 7.94a302 302 0 0 1 2.12 4.9q1.01 2.41 2.08 4.79a103 103 0 0 1 6.11 18.69c.69 2.62.69 2.62 2.31 5.87 1.54 3.06 1.82 5.45 2.14 8.82.35 2.78 1.32 5.28 2.24 7.93 1.36 5.1 2.13 9.7 2 15l1 2c.71 4.74 1 9.2 1 14l1 3q.15 4 .12 8l.02 2.2c-.01 3.19-.12 5.75-1.14 8.8v2.94c0 3.06 0 3.06-.5 5-.5 2.06-.5 2.06-.38 5.06.13 5.49-1.67 10.76-3.12 16l1.73-.44c9.44-2.16 19.61-3.58 28.27 1.44 8.81 5.57 16.14 12.79 19 23l1.56 4.5A47 47 0 0 1 815 500l1 1q.14 3 .12 6l.01 3.31C816 513 816 513 815 514c-.07 2.52 0 5.03.06 7.55C815 524 815 524 814 527q-.54 3.21-1 6.44c-.71 4.89-1.67 9.44-3.06 14.18C809 551 809 551 809 553l1.75-1.44C813 550 813 550 814.89 549.6c5.2-1.48 9.29-6.28 12.05-10.72C828 536 828 536 828.5 533.44c.5-2.44.5-2.44 2.06-4.88 1.73-3.07 1.6-5.09 1.44-8.56l1-1c.47-6.32.17-12.01-2-18l-1.11-3.11c-2.12-5.79-4.24-10.87-7.89-15.89a303 303 0 0 1-2.31-4.38c-2.23-4.09-4.92-7.29-8.06-10.71a31 31 0 0 1-3.82-5.66c-1.81-3.25-1.81-3.25-4-5.44C802 454 802 454 801.5 451.88L801 450l-1.86-.82c-2.79-1.53-3.46-3.05-4.89-5.87l-1.53-2.96L791 437l-3.18-5.79-2.1-3.82c-3.56-6.58-4.97-13.02-5.78-20.39-.46-3.94-.92-7.87-1.52-11.79-.48-3.66-.05-6.57.58-10.21l.12-2.02c.86-14.16 10-30.91 20.5-40.42 6.99-5.86 14.32-11.28 22.38-15.56l1.72-.97c14.07-6.35 35.54-8.93 50.28-4.03 8.55 3.44 15.4 7.78 20 16a53 53 0 0 1 2 7l.81 2.69c.19 2.31.19 2.31-.93 4.43-2.11 2.11-4.3 3.4-6.88 4.88l-1.44 1.5c-4.63 4.45-9.76 4.92-15.88 5.29-2.64.21-5.09.67-7.68 1.21q-4.97.72-9.94 1.4A22 22 0 0 0 847 369l-3.12.88C841 371 841 371 839.62 373.12L839 375h-3c-1.75 1.25-1.75 1.25-3 3l.5 2 .5 2q-1.47 1.53-3 3c-1.25 3.06-1.25 3.06-2 6l1 2-1 2c-.65 10.54 3.78 20.95 9.47 29.66a88 88 0 0 1 3.38 5.7c2.15 3.78 4.72 7.08 7.46 10.45 3.93 4.91 7.65 9.89 11.2 15.08a67 67 0 0 0 4.24 5.36A36 36 0 0 1 870 470l1.15 2.3c3.73 7.66 5.83 15.46 7.85 23.7l1.19 4.38c1.59 7.11 1.92 14.05 2 21.31l.04 2.19c0 4.46-.68 7.96-2.23 12.12l-.38 3.88c-.51 4.65-2.36 8.07-4.62 12.12l-1.28 2.53c-5.54 10.72-12.31 19.9-21.72 27.47l-4.12 3.69c-5.36 4.81-11.06 8.07-17.69 10.75l-2.22.9c-13.56 5.41-27.27 8.45-41.67 10.55L779 609l-2.89.41c-6.04 1.69-10.54 8.03-14.49 12.59-4.32 4.93-9.09 8.51-14.62 12l2.06 1.62L752 638l1.75 1.36c7.16 5.75 10.47 12.42 11.63 21.64-.6 4.74-2.85 8.07-5.82 11.81-9.54 7.26-25.28 5.95-36.56 5.19a65 65 0 0 1-12-3l-3.17-1.09q-3.93-1.4-7.83-2.91l-1 1 1.69 1.19c6.21 4.86 9.8 9.98 11.31 17.81q.1 3.38.06 6.75l-.02 3.55-.04 2.7h-4l.21-3.15c.37-7.86.44-14.13-4.3-20.8-4.7-5.05-10.71-8.19-16.91-11.05v-8c4.05 1.52 7.8 3.43 11.62 5.44A70 70 0 0 0 717 673l2.71.56c11.3 1.51 27.54 2.76 37.41-3.56 3.67-3.91 3.28-7.65 3.21-12.82-.62-5.92-2.89-10.14-7.45-13.96A86 86 0 0 0 740 636a73 73 0 0 1 9.94-8.5c7.69-5.8 15.61-12.18 21.81-19.59 2.99-2.54 5.17-2.67 9.05-3.11l4.12-.52 2.17-.26c27.59-3.35 53.96-11.63 72.74-33.25 8.1-10.36 13.96-21.54 16.42-34.46l.51-2.65A84 84 0 0 0 878 512l-.29-3.89c-2.23-24.49-14.81-46.55-30.27-65.17C833.65 426.3 824.61 408.95 826 387c1.06-7.07 4.54-12.44 10-17 10.87-6.65 21.46-8.47 33.93-9.59 6.99-.76 13.3-2.2 19.07-6.41 2.92-4.69 2.82-9.65 2-15-2.65-6.19-7.33-9.2-13.24-11.99-17.37-6.35-37.76-4.3-54.38 3.18A91 91 0 0 0 805 342l-2.99 2.26c-3.53 2.96-5.78 6.51-8.13 10.43l-1.32 2.14c-3.11 5.19-5.76 10.38-7.56 16.17l-1.08 3.14c-1.14 4.79-1.18 9.21-1.11 14.11l.04 2.84q.03 2.76.1 5.51.06 2.83.07 5.65c.9 21.77 16.41 41.05 29.15 57.39 12.7 16.42 27.57 37.48 24.83 59.36-3.42 12.93-9.01 24.03-20 32-10.39 6-10.39 6-14 6a54 54 0 0 1 2.88-12.69c6.73-21.56 9.61-50.01-.32-70.93-4.42-7.9-9.94-13.09-18.4-16.54-3.56-.95-6.66-1.14-10.35-1.15l-3.67-.05c-5.22.22-10.16 1.85-15.14 3.36l.26-2.06 1.18-9.38.41-3.24.79-6.38a314 314 0 0 1 .68-5.25c.88-6.84.83-13.67.8-20.57l.02-3.64a158 158 0 0 0-3.26-32.79l-.66-3.14a256 256 0 0 0-8.35-29.01q-1.2-3.51-2.31-7.05c-3.74-11.28-9.1-21.61-14.63-32.09-17.65-33.44-17.65-33.44-14.93-44.4 2.44-2.86 5.39-4.7 8.56-6.69l4.82-3.2 2.37-1.56c12.47-8.59 20.26-21.7 23.25-36.55.29-3.64.29-7.28.29-10.93l.02-3.28.19-42.35q.06-15.69.16-31.38l.02-3.85a970 970 0 0 1 1.87-55.51c2.12-33.32 2.12-33.32-2.55-41.7-4.42-4.31-8.59-6.08-14.69-6.5-6.35.19-10.23 2.89-15.31 6.5l-3.81 2.65q-5.5 3.85-10.96 7.76a683 683 0 0 1-6.44 4.54 1190 1190 0 0 0-25.64 18.51l-2.3 1.7-2.04 1.52c-4.5 3.28-7.61 3.66-13.05 3.74l-2.55.06a1168 1168 0 0 1-11.28.18q-7.62.09-15.25.15-6.27.05-12.54.21-7.6.18-15.2.2-2.88.02-5.75.11c-14.19.41-22.47-2.58-33.32-11.77-3.07-2.55-6.32-4.85-9.56-7.18l-3.69-2.73a907 907 0 0 0-12.41-8.94 504 504 0 0 1-8.92-6.45l-1.86-1.37-3.46-2.58c-6.52-4.76-12.92-7.2-20.97-6.31-5.6 2.12-8.87 5.77-12.09 10.66-1.31 3.38-1.16 6.67-1.09 10.24l.02 2.39c.11 8.82.53 17.62.96 26.43.72 15.07 1.37 30.14 1.76 45.22l.06 2.24c.3 11.36.41 22.71.46 34.07q.04 9.33.12 18.64.06 8.02.05 16.05l.06 10.2.01 4.76c-.08 17.13 3.64 31.69 15.62 44.48 5.18 5.03 11.02 9.16 16.9 13.33 5.05 3.66 5.05 3.66 5.53 6.43.21 8.23-2.07 14.41-5.37 21.86l-1.76 4.16A274 274 0 0 1 516 313.31c-4.94 9.14-8.7 18.56-12.17 28.34q-1.09 3.06-2.22 6.1c-2.86 7.99-4.87 16.11-6.8 24.37l-.76 3.26c-2.84 12.56-4.39 24.54-4.3 37.43l.01 1.99c.04 9.92.65 19.41 2.24 29.2q.59 4.5 1.12 9l.51 4.06.37 2.94-1.71-.43c-11.45-2.84-21.56-4.61-32.29 1.43-10.74 7.37-15.27 17.52-17.87 29.91-4.28 23.24.67 48.23 8.87 70.09l1.37 3.71c5.3 13.32 13.25 25.49 22.63 36.29l2.07 2.41q3.41 3.85 6.93 7.59l2.71 2.91c6.52 6.84 13.51 12.48 21.24 17.91C511 634 511 634 513 636l-2.41 1.07c-6.61 3.07-11.57 5.77-15.59 11.93l-1.88 2.81c-1.9 5.41-2.06 10.75 0 16.13 4.61 5.06 10.37 5.75 16.92 6.2 17.75.8 33.25-1.87 48.84-10.53C562 662 562 662 565 662v8l-2.41 1.07c-9.23 4.3-14.57 8.47-18.59 17.93a78 78 0 0 0-.69 7.88l-.1 2.08L543 704h-2c-2.39-3.58-2.72-5.87-2-10a82 82 0 0 1 8-17c-3.52-2.25-5.66-2-9.69-1.19l-3.24.6-3.07.59c-8.36 1.5-16.61.78-25 0l-3.01-.23c-4.77-.62-7.62-1.83-11.05-5.27-4.36-5.66-4.3-11.14-3.56-18 3.3-7.11 9.32-12.91 15.62-17.5h2a141 141 0 0 0-10.45-9.67A66 66 0 0 1 492 623l-2.94-2.44c-10.98-9.43-20.72-20.02-28.06-32.56l-3.44-5.31A86 86 0 0 1 448 563l-1.56-2.44c-1.79-3.19-2-5.95-2.44-9.56q-.96-3.01-2-6a86 86 0 0 1-2.79-14.98c-.21-2.02-.21-2.02-.71-4.46-1.96-10.07-2.88-21.54-.5-31.56l.8-3.42c3.39-13.41 7.63-24.61 19.82-32.26a37.5 37.5 0 0 1 28.69-3.32l2.69 1c-.46-3.47-.89-6.67-2-10-1.1-6.5-1.58-13.06-2.12-19.62l-.31-3.4-.27-3.27-.25-2.96A31 31 0 0 1 486 409q.03-2.62-.06-5.25c-.06-4.53.5-8.45 1.62-12.82.44-1.93.44-1.93.44-4.62 0-3.04 1.04-5.43 2-8.31l.66-5.96c.45-2.71 1.49-5.15 2.48-7.7 1.64-4.46 2.89-9.04 4.24-13.59 2.44-8.14 5.03-16.03 8.62-23.75l1.76-3.84a555 555 0 0 1 9.74-20.09c4.54-8.92 4.54-8.92 6.12-13.32a59 59 0 0 1 3.44-7.69c3.25-6.36 5-13.05 2.94-20.06-2.54-2.61-5.12-4.07-8.31-5.81A49 49 0 0 1 510 247v-2l-1.69-.62c-4.9-2.92-7.34-7.21-9.31-12.38l-.96-1.94c-9.44-20.01-6.37-45.77-6.19-67.29q.09-10.97.13-21.93l.06-7.56c.05-7.91-.08-15.71-.81-23.61-.34-3.94-.3-7.85-.23-11.79.05-5.86-.14-11.55-.78-17.37-.32-3.61-.23-7.2-.19-10.83a99 99 0 0 0-.81-10.15c-.31-3.6-.23-7.18-.18-10.8a63 63 0 0 0-.73-7.98c-.52-4.68.43-7.55 2.69-11.75l1.38-3.19c1.84-3.18 3.61-4.73 6.62-6.81l2.19-1.69c8.53-3.98 16.17-2.28 23.81 2.69m168 648 1 2 2-1zm-138 2 2 1 3-3c-2 0-2 0-5 2m-3 0c-2.12.94-2.12.94-4 2l3 3 3-4z" fill="#E3E4E5"/><path d="M673 495c.7 1.57.7 1.57 1 4a65 65 0 0 1-3.12 6.88l-.9 1.81c-5.53 10.79-15.72 19.76-26.98 24.31h-4l.18 2.05a614 614 0 0 1 2.08 54.41q-.01 5.2.01 10.43c.04 13.55-.15 27.05-1.16 40.57l-.24 3.15A125 125 0 0 1 637 660h-22l-1.44-10.38-.44-3.14c-2.11-15.7-2.28-31.46-2.25-47.28l-.01-8.79c0-9.78.15-19.53.59-29.3l.11-2.68q.35-7.3 1.23-14.54c.26-2.32.31-4.61.27-6.95L613 533l-2.34-1.1c-12.85-6.2-12.85-6.2-17.66-10.9v-2l-1.71-.62c-3.14-1.89-4.94-4.53-6.98-7.5l-1.22-1.77c-2.98-4.5-4.19-7.76-4.09-13.11l1.88 1.94c11.89 11.79 26.64 24.47 44.24 25.44 15.83-.44 30.85-10.02 41.5-21.11A313 313 0 0 0 673 495" fill="#000"/><path d="M492 50h1c2.03 43.32 2.03 43.32 2.56 63.94l.06 2.24c.3 11.36.41 22.71.46 34.07q.04 9.33.12 18.64.06 8.02.05 16.05l.06 10.2.01 4.76c-.08 17.13 3.64 31.69 15.62 44.48 5.18 5.03 11.02 9.16 16.9 13.33 5.05 3.66 5.05 3.66 5.53 6.43.21 8.23-2.07 14.41-5.37 21.86l-1.76 4.16A274 274 0 0 1 516 313.31c-4.94 9.14-8.7 18.56-12.17 28.34q-1.09 3.06-2.22 6.1c-2.86 7.99-4.87 16.11-6.8 24.37l-.76 3.26c-2.84 12.56-4.39 24.54-4.3 37.43l.01 1.99c.04 9.92.65 19.41 2.24 29.2q.59 4.5 1.12 9l.51 4.06.37 2.94-1.71-.43c-11.45-2.84-21.56-4.61-32.29 1.43-10.74 7.37-15.27 17.52-17.87 29.91-4.28 23.24.67 48.23 8.87 70.09l1.37 3.71c5.3 13.32 13.25 25.49 22.63 36.29l2.07 2.41q3.41 3.85 6.93 7.59l2.71 2.91c6.52 6.84 13.51 12.48 21.24 17.91C511 634 511 634 513 636l-2.41 1.07c-6.61 3.07-11.57 5.77-15.59 11.93l-1.88 2.81c-1.9 5.41-2.06 10.75 0 16.13 4.61 5.06 10.37 5.75 16.92 6.2 17.75.8 33.25-1.87 48.84-10.53C562 662 562 662 565 662v8l-2.41 1.07c-9.23 4.3-14.57 8.47-18.59 17.93a78 78 0 0 0-.69 7.88l-.1 2.08L543 704h-2c-2.39-3.58-2.72-5.87-2-10a82 82 0 0 1 8-17c-3.52-2.25-5.66-2-9.69-1.19l-3.24.6-3.07.59c-8.36 1.5-16.61.78-25 0l-3.01-.23c-4.77-.62-7.62-1.83-11.05-5.27-4.36-5.66-4.3-11.14-3.56-18 3.3-7.11 9.32-12.91 15.62-17.5h2a141 141 0 0 0-10.45-9.67A66 66 0 0 1 492 623l-2.94-2.44c-10.98-9.43-20.72-20.02-28.06-32.56l-3.44-5.31A86 86 0 0 1 448 563l-1.56-2.44c-1.79-3.19-2-5.95-2.44-9.56q-.96-3.01-2-6a86 86 0 0 1-2.79-14.98c-.21-2.02-.21-2.02-.71-4.46-1.96-10.07-2.88-21.54-.5-31.56l.8-3.42c3.39-13.41 7.63-24.61 19.82-32.26a37.5 37.5 0 0 1 28.69-3.32l2.69 1c-.46-3.47-.89-6.67-2-10-1.1-6.5-1.58-13.06-2.12-19.62l-.31-3.4-.27-3.27-.25-2.96A31 31 0 0 1 486 409q.03-2.62-.06-5.25c-.06-4.53.5-8.45 1.62-12.82.44-1.93.44-1.93.44-4.62 0-3.04 1.04-5.43 2-8.31l.66-5.96c.45-2.71 1.49-5.15 2.48-7.7 1.64-4.46 2.89-9.04 4.24-13.59 2.44-8.14 5.03-16.03 8.62-23.75l1.76-3.84a555 555 0 0 1 9.74-20.09c4.54-8.92 4.54-8.92 6.12-13.32a59 59 0 0 1 3.44-7.69c3.25-6.36 5-13.05 2.94-20.06-2.54-2.61-5.12-4.07-8.31-5.81A49 49 0 0 1 510 247v-2l-1.69-.62c-4.9-2.92-7.34-7.21-9.31-12.38l-.96-1.94c-9.44-20.01-6.37-45.77-6.19-67.29q.09-10.97.13-21.93l.06-7.56c.05-7.91-.08-15.71-.81-23.61-.34-3.94-.3-7.85-.23-11.79.06-5.85-.09-11.52-.88-17.33-.13-2.82.22-5.48.61-8.28.51-4.24.64-8.51.83-12.77l.13-2.78zm63 620 2 1 3-3c-2 0-2 0-5 2m-3 0c-2.12.94-2.12.94-4 2l3 3 3-4z" fill="#E0E2E2"/><path d="M739 470c2 2 2 2 2.11 4.6l-.21 3.31-.23 3.71-.29 4-.15 2.05c-2.07 28.43-8.74 55.5-18.23 82.33l-1.27 3.65a717 717 0 0 1-5.96 16.25q-1.54 4.08-3.05 8.16l-2 5.34c-7.07 19.8-10.49 40.76-12.72 61.6-4.38-.5-6.94-1.81-10-5-2.36-14.78 5.34-34.14 10-48l.87-2.63q3.99-12 8.13-23.93l1.29-3.75c6.39-18.52 6.39-18.52 9.75-26.63 2.24-5.57 3.83-11.27 5.4-17.06l1.83-6.7.9-3.27a487 487 0 0 1 2.18-7.71c4.8-16.54 8.34-33.43 11.65-50.32" fill="#000100"/><path d="M512 470h2l.26 1.76c4.09 27.5 11.49 53.5 20.51 79.72a1511 1511 0 0 1 6.14 18.3q2.05 6.2 4.38 12.31c1.79 4.81 3.37 9.69 4.99 14.56l1.96 5.85c3.8 11.33 7.33 22.77 9.95 34.44l.5 2.25c1.55 7.25 2.09 14.41 2.31 21.81-5.62 4-5.62 4-9 4l-.3-3.96c-2.49-30.81-11.87-61.61-24.2-89.92A206 206 0 0 1 519 530l-.73-3.53A339 339 0 0 1 512 470" fill="#000101"/><path d="M440 516h1l.27 2.09c1.98 14.82 4.47 28.89 9.73 42.91l1.37 3.71c5.3 13.32 13.25 25.49 22.63 36.29l2.07 2.41q3.41 3.85 6.93 7.59l2.71 2.91c6.52 6.84 13.51 12.48 21.24 17.91C511 634 511 634 513 636l-2.41 1.07c-6.61 3.07-11.57 5.77-15.59 11.93l-1.88 2.81c-1.9 5.41-2.06 10.75 0 16.13 4.61 5.06 10.37 5.75 16.92 6.2 17.75.8 33.25-1.87 48.84-10.53C562 662 562 662 565 662v8l-2.41 1.07c-9.23 4.3-14.57 8.47-18.59 17.93a78 78 0 0 0-.69 7.88l-.1 2.08L543 704h-2c-2.39-3.58-2.72-5.87-2-10a82 82 0 0 1 8-17c-3.52-2.25-5.66-2-9.69-1.19l-3.24.6-3.07.59c-8.36 1.5-16.61.78-25 0l-3.01-.23c-4.77-.62-7.62-1.83-11.05-5.27-4.36-5.66-4.3-11.14-3.56-18 3.3-7.11 9.32-12.91 15.62-17.5h2a141 141 0 0 0-10.45-9.67A66 66 0 0 1 492 623l-2.94-2.44c-10.98-9.43-20.72-20.02-28.06-32.56l-3.44-5.31A86 86 0 0 1 448 563l-1.56-2.44c-1.79-3.19-2-5.95-2.44-9.56q-.96-3.01-2-6a83 83 0 0 1-2.77-14.97c-.23-2.03-.23-2.03-.92-4.65-.45-3.43.61-6.14 1.69-9.38m115 154 2 1 3-3c-2 0-2 0-5 2m-3 0c-2.12.94-2.12.94-4 2l3 3 3-4z" fill="#E7E8EA"/><path d="M492 50h1c2.03 43.32 2.03 43.32 2.56 63.94l.06 2.24c.3 11.36.41 22.71.46 34.07q.04 9.33.12 18.64.06 8.02.05 16.05l.06 10.2.01 4.76c-.08 17.13 3.64 31.69 15.62 44.48 5.18 5.03 11.02 9.16 16.9 13.33C532 260 532 260 534 262c.2 2.6.2 2.6.12 5.62l-.05 3.04L534 273h-2l-.04-1.79c-.25-4.08-.48-6.56-2.96-9.9a145 145 0 0 0-9.71-6.76c-3.3-2.23-6.56-4.63-9.29-7.55v-2l-1.69-.62c-4.9-2.92-7.34-7.21-9.31-12.38l-.96-1.94c-9.44-20.01-6.37-45.77-6.19-67.29q.09-10.97.13-21.93l.06-7.56c.05-7.91-.08-15.71-.81-23.61-.34-3.94-.3-7.85-.23-11.79.06-5.85-.09-11.52-.88-17.33-.13-2.82.22-5.48.61-8.28.51-4.24.64-8.51.83-12.77l.13-2.78z" fill="#D4D6D6"/><path d="m816 555-2.25 2.31c-2.91 3.51-4.14 7.13-5.59 11.41-1.4 3.96-3 7.8-4.66 11.66l-.86 2.05A41 41 0 0 1 796 593c-1.25 2.81-1.25 2.81-2 5h-2l-2 4 2 2c-3.56 1.19-6.44 1.1-10.19 1.06l-3.85-.02L775 605c6.55-10.37 6.55-10.37 9.88-15.19 2.81-4.19 5.32-8.54 7.81-12.93l1.15-2.03c3.18-5.69 6.17-11.33 7.16-17.85l1 3 2.3-1.35 3.01-1.71 2.99-1.73C813 554 813 554 816 555" fill="#020302"/><path d="M633.63 194.38C636 196 636 196 638 198c0 3.31 0 3.31-1 7a397 397 0 0 1-6 5 96 96 0 0 0-2 7c-3.24 2.15-4.26 2.56-8 2-2.41-2.24-2.98-3.47-3.2-6.75l.2-2.25-1.83-.75A11.5 11.5 0 0 1 611 204c-.44-3-.44-3 0-6 5.32-6.8 15.07-6.49 22.62-3.62" fill="#616363"/><path d="M781 384h1l.09 2.32c.63 14.85 1.24 28.25 7.91 41.68l1.61 3.55c5.26 11.11 13.05 20.45 20.56 30.09 11.84 15.31 25.14 34.02 24.89 54.17l-.02 2.96L837 521l-1-2h-2l-.15-2.16c-.96-12.33-4.5-24.73-11.85-34.84a303 303 0 0 1-2.31-4.38c-2.23-4.09-4.92-7.29-8.06-10.71a31 31 0 0 1-3.82-5.66c-1.81-3.25-1.81-3.25-4-5.44C802 454 802 454 801.5 451.88L801 450l-1.86-.82c-2.79-1.53-3.46-3.05-4.89-5.87l-1.53-2.96L791 437l-3.18-5.79-2.1-3.82c-7.39-13.64-5.73-28.48-4.72-43.39" fill="#DADBDD"/><path d="M877 532h3c1.72 5.17-.92 10.15-3 15l-.7 1.82c-4.31 10.6-11.3 22.14-20.05 29.56l-2.1 1.79L852 582l-5.95 5.32c-4.92 4.02-10.01 6.75-15.86 9.12l-2.22.9a151 151 0 0 1-36.78 9.72l-2.1.28-5.09.66-2-3 1.93-.24c29.69-3.84 58.89-12.22 78.07-36.76 8.03-11.72 12.39-22.08 15-36" fill="#DEE0E1"/><path d="M615 660h21l-.11 5.74-.08 7.57-.07 3.77c-.08 9.48.51 18.98 6.26 26.92-1.81-.19-1.81-.19-4-1-2.63-3.67-3.69-7.11-4.62-11.5l-.73-3.34L632 685l-.61-2.69c-.54-3.23.09-6.09.61-9.31l-.06-2.69C632 668 632 668 634 664h-16l2 4c.42 3.72.32 7.45.31 11.19l.05 3.04c.01 7.43-.63 14.38-5.42 20.33C613 704 613 704 611 704l.81-1.94L613 699l.76-1.88c2.31-6.16 2.63-11.65 2.49-18.18l-.02-2.86c-.06-5.5-.54-10.55-1.23-16.08" fill="#F1F1F4"/><path d="M812 502h1l.18 2.78c.77 11.24.77 11.24 1.44 15.91C815 524 815 524 814 527q-.54 3.21-1 6.44c-.71 4.89-1.67 9.44-3.06 14.18C809 551 809 551 809 553l1.75-1.44C813 550 813 550 814.89 549.6c5.2-1.48 9.29-6.28 12.05-10.72C828 536 828 536 828.5 533.44c.5-2.44.5-2.44 2.06-4.88 1.72-3.06 1.68-5.1 1.44-8.56l4-1c.41 5.37-.9 9.08-3.06 13.88l-.96 2.14c-5.67 12.15-15.01 18.52-26.98 23.98h-2a54 54 0 0 1 2.88-12.69c4.51-14.29 5.56-29.41 6.12-44.31" fill="#E3E5E5"/><path d="M892 341h1l1 9h2c-1.47 3.88-3.45 5.01-7 7l-1.44 1.5c-4.63 4.45-9.76 4.92-15.88 5.29-2.64.21-5.09.67-7.68 1.21q-4.97.72-9.94 1.4A22 22 0 0 0 847 369l-3.12.88C841 371 841 371 839.62 373.12L839 375h-3a214 214 0 0 0-4 5h-2l-1 5h-2c.79-6.7 4.74-11.42 9.84-15.55 9.43-6.32 19.92-7.72 30.96-8.83 7.68-.85 14.9-1.82 21.2-6.62 1.87-2.85 2.33-5.39 2.62-8.75l.23-2.42z" fill="#D7D8DA"/><path d="m779.75 605.75 2.98.11 2.27.14-1 2-3.94.06c-7.48.67-12.2 6.61-16.86 12.03l-1.64 1.97c-4.11 4.92-9.29 8.36-14.56 11.94 4.8 3.84 4.8 3.84 6.88 5.46 5.36 4.32 8.86 8.64 9.93 15.67.16 3.27.07 5.74-.81 8.87h-1l-.26-1.87c-1.21-7.29-3.03-14-8.86-18.92A88 88 0 0 0 740 636a73 73 0 0 1 9.94-8.5c7.83-5.9 15.66-12.39 22.07-19.84 2.67-2.23 4.31-2.07 7.74-1.91" fill="#E8E9EA"/><path d="M762 34h2c.85 4.74.81 8.29 0 13q-.04 4.06.06 8.12C764 58 764 58 763.54 61.23c-.65 4.55-.9 9.06-1.1 13.65l-.14 2.92c-.25 6.31-.31 12.6-.26 18.91l.02 2.25q.04 5.56.15 11.12l.05 4.12.06 3.68c-.35 3.36-1.04 4.7-3.32 7.12-.22-24.59-.21-49.04 1.73-73.57Q761.4 42.72 762 34" fill="#ECEDED"/><path d="M577 60a60 60 0 0 1 8 2 176 176 0 0 0 7.62.08l2.35-.01 5.04-.03 7.98-.03q11.35-.04 22.69-.11l13.88-.05 5.29-.03q3.7-.03 7.4-.03l2.21-.03c3.68.01 6.41.2 9.54 2.24-2.02 2.02-6.16 1.18-8.93 1.19l-2.52.03-8.28.05-2.86.02q-7.48.05-14.95.06-7.74.03-15.46.11-5.94.06-11.88.05l-5.7.05q-3.98.04-7.97.02l-2.38.05c-4.16-.04-5.86-.45-9.1-3.17zm93 1 1 2-2-1z" fill="#EDEEEF"/><path d="M709 178c1.41 2.14 1.41 2.14 2 4l-1.79-.62-2.4-.82-2.35-.81c-14.62-4.48-34.42-2.41-48.01 4.55q-2.34 1.32-4.64 2.71C650 188 650 188 648 188c0-2 0-2 1.36-3.37 15.94-12.32 41.16-14.65 59.64-6.63" fill="#020303"/><path d="m597 183 1 3h3v2c-3.93-.71-7.07-2.56-10.56-4.44-13.18-6.73-29.87-7.73-44.32-4.27A60 60 0 0 0 536 184c.36-1.9.36-1.9 1-4 16.83-11.37 43.92-7.49 60 3" fill="#030403"/><path d="M531 270c2 3 2 3 1.86 5-3.95 14.43-11.13 27.87-18.25 40.95a136 136 0 0 0-8.37 19.53A85 85 0 0 1 504 341l-3 1a37 37 0 0 1 3.75-12.19l1.63-3.42L508 323l2.69-5.94c2.13-4.74 4.44-9.37 6.81-13.99 4.54-8.92 4.54-8.92 6.12-13.32a62 62 0 0 1 3.44-7.75c2.03-3.91 3.02-7.7 3.94-12" fill="#E7E9EA"/><path d="M492 50h1c1.35 27.02 2.35 53.95 2 81l-2 1c-1.13-12.36-2.22-24.65-2.03-37.07.07-4.86-.19-9.56-.85-14.38-.13-2.82.22-5.48.61-8.28.51-4.24.64-8.51.83-12.77l.13-2.78z" fill="#D2D3D2"/><path d="m495 214 2 1c.82 2.5 1.55 4.97 2.25 7.5 4.85 16.34 16.07 25.61 29.59 35.21C532 260 532 260 534 262c.2 2.6.2 2.6.12 5.62l-.05 3.04L534 273h-2l-.04-1.79c-.25-4.08-.48-6.56-2.96-9.9a145 145 0 0 0-9.71-6.76c-3.3-2.23-6.56-4.63-9.29-7.55v-2l-1.69-.62c-4.89-2.92-7.35-7.2-9.31-12.38l-1.07-2.39c-2.4-5.52-3.37-9.6-2.93-15.61" fill="#E1E3E3"/><path d="M799 462c5.61 5.29 9.89 10.46 12 18l1.56 4.5A47 47 0 0 1 815 500l1 1q.21 2.93.25 5.88l.08 3.24c-.37 3.27-.97 3.78-3.33 5.88l-.33-3.85c-3.05-33.77-3.05-33.77-12.55-44.59L798 465z" fill="#E7EAEA"/><path d="M760 445h1l1 11 4.19-1c8.74-1.73 17.92-2.67 25.81 2a84 84 0 0 1 6 5l-1 3-2-1.81c-8.13-5.93-16.2-5.98-26-5.19-3.81.76-7.3 1.78-11 3z" fill="#E0E3E1"/><path d="m830 380 4 1-1.13 1.61-1.43 2.14-1.44 2.11c-1.21 2.58-.84 3.5 0 6.14l-1 2c-.66 10.78 3.92 21.25 9.86 30.05C840 427 840 427 840 430c-3.76-1.25-4.25-2.9-5.96-6.32L833 421.5l-1.07-2.23q-1.48-3.13-2.93-6.27l-1.19-2.46c-2.05-4.99-2.1-10.03-2.19-15.35l-.04-2.25c.04-4.34.48-6.74 3.42-9.94z" fill="#DFDFE3"/><path d="M488 411h1l.14 2.3c.81 13.32 1.61 26.48 4.27 39.58.59 3.12.59 3.12.59 7.12-2.87-.57-3.86-.86-6-3h3l-.62-2.16c-4.16-14.77-3.46-28.71-2.38-43.84" fill="#C9CBCC"/><path d="M781 384h1l.09 2.32c.7 16.41 1.73 30.31 9.66 44.91C793 434 793 434 792 437c-10.61-11.79-12.45-26.39-11.71-41.62q.32-5.7.71-11.38" fill="#D9DBDD"/><path d="M759 172h1a280 280 0 0 1 1.25 26.56l.06 3.81.02 3.63.03 3.28c-.41 3.12-1.1 3.69-3.36 5.72l-.05-17.89-.03-6.09-.02-8.73-.01-2.77q.01-3.27.11-6.52z" fill="#F1F4F3"/><path d="M892 341h1l1 9h2c-1.47 3.88-3.45 5.01-7 7l-1.44 1.5c-4.63 4.45-9.76 4.92-15.88 5.29-2.68.21-2.68.21-5.22.79-2.76.47-4.58.17-7.27-.52l-2.4-.59L855 363v-1l2.04-.2q4.68-.47 9.34-.99l3.21-.3c7.08-.81 13.56-2.22 19.41-6.51 1.8-2.92 2.33-5.35 2.62-8.75l.23-2.42z" fill="#D3D2D4"/><path d="M792 436h2c1.27 1.81 1.27 1.81 2.81 4.44 3.78 6.13 8.07 11.77 12.48 17.46L814 464l1.55 1.97A79 79 0 0 1 819 471l-1 3c-7.9-8.46-7.9-8.46-10.25-12.81-1.75-3.19-1.75-3.19-3.94-5.38C802 454 802 454 801.5 451.88L801 450l-1.86-.84c-2.7-1.46-3.46-2.91-4.89-5.6l-1.3-2.37C792 439 792 439 792 436" fill="#E3E5E8"/><path d="M440 516h1l.32 2.23 1.49 10.15.5 3.5c.94 6.23 2.09 12.08 4.21 18.02.55 2.39.26 3.8-.52 6.1l-.81-1.69C445 552 445 552 443.44 549.69c-1.75-3.26-2-6.03-2.44-9.69l-1-3.31c-1.99-7.33-2.65-13.51 0-20.69" fill="#DCDEDD"/><path d="m758 385 3 1c2.97 8.9 2.18 19.17 2.19 28.44l.03 3.79.01 3.64.01 3.28C763 428 763 428 761 432l-1-32h-1a80 80 0 0 1-1-15" fill="#1F211F"/><path d="M442 479h1c.17 4.42 0 8.31-.94 12.62-1.86 9.3-1.75 18.93-2.06 28.38h-2c-2.22-11.64-1-22.51 2.06-33.81l.57-2.1z" fill="#EEEFEF"/><path d="M618 669h2q.13 5.22.19 10.44l.07 2.95c.08 7.41-.55 14.24-5.32 20.17C613 704 613 704 611 704l.81-1.94L613 699l.77-1.77c2.49-6.39 2.75-12.79 3.02-19.56.17-3.01.52-5.74 1.21-8.67" fill="#EBEDF1"/><path d="M760 43h1a521 521 0 0 1-1 36l-.29 5.27L759 97h-1c-1.2-14.4-.77-28.58 0-43h1z" fill="#212321"/><path d="m550 675 3 1-1.21 1.32-1.6 1.8-1.58 1.76c-3.87 5.11-5.08 9.68-5.3 16l-.1 2.08L543 704h-2c-2.39-3.59-2.7-5.87-2-10 2.38-7.53 5.49-13.36 11-19" fill="#D2D0D9"/><path d="M838 506h2l1.46 5.96q.69 2.54 1.54 5.04l-2 4 1 3-4 1-1 4h-2l.94-10.38.26-2.98.26-2.85.24-2.64c.3-2.15.3-2.15 1.3-4.15" fill="#040605"/><path d="M758 368h2c2.5 6.96 4.18 13.58 4 21l1 2c-.34 2.16-.34 2.16-.94 4.62l-.59 2.48-.47 1.9h-1l-.11-1.88a145 145 0 0 0-3.27-20.64A43 43 0 0 1 758 368" fill="#E6E8E6"/><path d="M488 389h2c-.55 12.68-1.15 25.34-2 38-2.53-2.53-2.4-3.8-2.69-7.31l-.26-2.87c-.05-2.79.38-5.09.95-7.82q.03-2.62-.06-5.25c-.07-5.23.74-9.7 2.06-14.75" fill="#E9ECED"/><path d="m830 324 2 2-2.31 1.14c-9.46 4.69-18.39 9.28-26.69 15.86v-3c5.49-5.48 12.11-9.54 19-13l2.12-1.09A18 18 0 0 1 830 324" fill="#E9EAEC"/><path d="M750 16c5.45 2.78 10.58 5.75 12.64 11.92.38 2.22.38 4.15.24 6.41l-.15 2.42-.17 2.5-.16 2.55q-.18 3.1-.4 6.2h-1l-.11-3.25-.2-4.31-.07-2.14c-.31-6.11-1.45-11.19-6-15.61A33 33 0 0 0 747 19z" fill="#D9D9DA"/><path d="M489 35h2c1.23 11.66 1.1 23.29 1 35-4.04-6.06-3.06-14.16-2.96-21.24a96 96 0 0 0-.92-10.86L488 36z" fill="#F0F0F3"/><path d="m761 657 2 2 2-1c.62 6.32-1.57 9.93-5.44 14.81-4.8 3.65-8.81 3.2-14.55 2.48L743 675v-1l2.23-.3c9.84-1.5 9.84-1.5 13.77-5.7 1.15-2.3 1.31-4.08 1.56-6.62l.26-2.48z" fill="#DDE0DD"/><path d="M615 660h21v2c-3.41 1.1-6.21.94-9.75.56l-2.98-.31L621 662v2h-3l2 5h-2v5h-1z" fill="#D1D3D1"/><path d="M879 506c3.8 3.8 3.41 5.38 3.46 10.48l-.02 2.9.06 2.86v5.31C882 530 882 530 878 535z" fill="#F1F2F4"/><path d="M763 427h1q.33 4.07.62 8.12l.2 2.31c.32 4.68.03 8.15-1.82 12.57h-2c-.1-7.41-.1-14.66 1-22z" fill="#E4E7E6"/><path d="m812 491 3 2c.12 3.56.12 3.56 0 7l1 1q.21 2.93.25 5.88l.08 3.24c-.33 2.88-.33 2.88-1.85 4.76L813 516a251 251 0 0 1-1-25" fill="#F0F3F2"/><path d="m873 484 3 1a77 77 0 0 1 2.12 7.88l1.01 4.36.87 3.76 1 3c-.46 2.74-1.25 5.32-2 8h-1l-.33-3.08c-.97-8.51-2.32-16.66-4.67-24.92" fill="#E0E2E4"/><path d="m499 19 3 1-2.25 2.06c-7.64 7.9-7.5 15.46-7.75 25.94h-1l-.5-6.25-.28-3.52c-.43-6.35.42-9.93 3.78-15.23 2.56-2.56 2.56-2.56 5-4" fill="#DCDCDE"/><path d="M490 456c-3.67 2.4-5.8 1.78-10 1-6.63-.42-12.6.27-19 2v-2c9.45-3.85 19.32-4.6 29-1" fill="#EFF1F3"/><path d="m543 664 5.88-.12 3.3-.08c2.82.2 2.82.2 4.82 2.2l-5.31 2.5-2.99 1.41C546 671 546 671 543 671z" fill="#1D1D22"/><path d="M634 677h1l.33 3.25.7 6.45c.74 6.44 2.98 11.55 5.97 17.3-1.81-.19-1.81-.19-4-1-6.21-8.12-4.99-16.36-4-26" fill="#DBDDDF"/><path d="m857 574 3 1-5.71 4.99-4.39 3.89A87 87 0 0 1 838 593l-2-1v-2a77 77 0 0 1 4.88-3.06c6-3.7 11.04-8.08 16.12-12.94" fill="#E4E6E8"/><path d="m871 553 2 3-4.31 6.75-1.23 1.92c-2.05 3.2-4.12 6.33-6.46 9.33l-4-1 1.54-1.58c5.3-5.67 9.03-11.47 12.46-18.42" fill="#D9DADE"/><path d="M833 519h3c.29 4.79-.56 8.01-2.5 12.38l-1.41 3.21L831 537l-3-1c.42-2.97.93-4.89 2.56-7.44 1.73-3.07 1.6-5.09 1.44-8.56z" fill="#E7E9E7"/><path d="m830 380 4 1-1.13 1.61-1.43 2.14-1.44 2.11c-1.23 2.63-.79 3.43 0 6.14-.34 2.36-.34 2.36-.94 4.75l-.59 2.42L828 402c-1.92-3.25-2.3-5.74-2.31-9.5l-.05-2.84c.42-3.08 1.39-4.31 3.36-6.66z" fill="#F2F5F5"/><path d="m733 251 2 3q-2.62 1.98-5.25 3.94l-2.95 2.21c-2.43 1.6-3.98 2.43-6.8 2.85l-1 8h-1a25 25 0 0 1 0-9c2.1-2.64 4.66-4.28 7.5-6.06l2.17-1.47q2.64-1.77 5.33-3.47" fill="#E7EAE7"/><path d="M709 685c2.94 2.94 2.97 5.11 3.1 9.23l-.04 3.52-.02 3.55-.04 2.7h-4a1332 1332 0 0 1-.09-11.51l-.01-2.45-.01-2.27C708 686 708 686 709 685" fill="#EEF0F0"/><path d="M749 16v2l-2.38.08c-6.77.36-10.98 1.2-16.62 4.92h-3c1.05-2.87 1.64-3.82 4.44-5.19L734 17l3-1q2.24-.36 4.5-.62l2.34-.29C746 15 746 15 749 16" fill="#EEEEF0"/><path d="M722 675h25v2c-4.37 1.23-8.55 1.22-13.06 1.25l-2.47.06-2.38.02-2.16.03C725 678 725 678 722 675" fill="#EDEFEE"/><path d="M495 214c2 1 2 1 3.25 4.49q.67 2.19 1.31 4.39l1.32 4.36L502 231l1 3h-3c-3.19-6.84-5.73-12.38-5-20" fill="#DDDEE1"/><path d="m783.05 605.54 1.95.46-1 2-3.94.06c-6.67.53-10.7 5.23-15.06 9.94l-1 2-3-1c12.68-14.68 12.68-14.68 22.05-13.46" fill="#EFF1EE"/><path d="M812 502h1l.18 2.78.26 3.72.26 3.86a93 93 0 0 0 1.05 8.33c.25 3.31.25 3.31-1.06 5.12L812 527l-2 3z" fill="#CCCECD"/><path d="m763 395 3 1-1 28h-1c-.76-9.7-1.14-19.26-1-29" fill="#F5F8F6"/><path d="M892 341h1l1 9h2c-1.47 3.88-3.45 5.01-7 7l-1.38 1.69c-2.64 2.13-5.36 1.49-8.62 1.31a83 83 0 0 1 8.38-4.8c2.72-2.01 3.46-4.3 4.03-7.56l.21-2.39.23-2.42z" fill="#CECFCF"/><path d="M781 379h1l-1 24c-3.67-7.34-3.33-13.71-.94-21.44z" fill="#F0F1F5"/><path d="M867 467c2.84 2.47 4.16 5.08 5.69 8.5l1.32 2.91C875 481 875 481 875 484c-3-1-3-1-4.39-3.33l-1.3-2.92-1.32-2.89A18 18 0 0 1 867 467" fill="#EAE9ED"/><path d="M544 671v2h-4l-1 3c-7.44 1.36-7.44 1.36-10.27-.48L527 674l7.38-1.5 2.11-.43c5.28-1.07 5.28-1.07 7.51-1.07" fill="#DBDEDE"/><path d="M491 655h1v6h2l.75 3.88c.95 3.91.95 3.91 3.37 5.62l1.88.5c-1.75.75-1.75.75-4 1-2.77-2.22-3.87-3.61-5-7a100 100 0 0 1-.06-5.19l.02-2.73z" fill="#252729"/><path d="M836 370c1 2 1 2 .25 4.44-1.19 2.44-2.13 3.89-4.25 5.56h-2l-1 5h-2c.75-6.38 4.41-10.73 9-15" fill="#D7DADA"/><path d="m744 242 3 1-5 5-2.62 2.81C737 253 737 253 734 253c1.44-3.36 3.21-5.4 5.94-7.81l2.09-1.9z" fill="#EAEDEC"/><path d="M891 336h2c3.26 9.41 3.26 9.41 4 14l-5 2 1-3a108 108 0 0 0-.94-6.69l-.59-3.57z" fill="#F2F3F4"/><path d="M616 690c1.62 1.62 1.62 1.62 3 4-.84 4.48-2.48 7.14-6 10h-2l.81-1.94c1.54-3.97 2.87-8.01 4.19-12.06" fill="#E3E6E5"/><path d="M487 406h1v21c-3.44-3.44-2.97-8.31-3-13a52 52 0 0 1 2-8" fill="#F1F3F4"/><path d="m826 398 1 4h2l2 5.88 1.12 3.3C833 414 833 414 833 416c-3-1-3-1-4.17-3.29-3.38-9.61-3.38-9.61-2.83-14.71" fill="#E6E8E8"/><path d="M759 68h1c.17 9.71-.36 19.32-1 29h-1l-.56-8.88-.17-2.55-.15-2.44-.14-2.25C757 79 757 79 758 77q.33-2.31.56-4.62l.26-2.48z" fill="#363636"/><path d="M754 354c3 1 3 1 4.12 3.19 2.41 7.74 2.41 7.74.88 10.81h-2a434 434 0 0 1-2.34-7.42C754 358 754 358 754 354" fill="#EFF2EF"/><path d="M784 456c3.48-.43 6.02-.65 9.02 1.34A84 84 0 0 1 798 462l-1 3-2-1.81c-3.58-2.61-6.81-3.77-11-5.19z" fill="#DFE0E2"/><path d="M701 675c2.66.37 3.75.7 5.52 2.78l1.29 2.16 1.33 2.15.86 1.91-1 2h-2c-1.51-1.9-1.51-1.9-3.12-4.38l-1.64-2.46C701 677 701 677 701 675" fill="#E9E8ED"/><path d="M621 662h15v7c-2-3-2-3-2-5h-13z" fill="#EBEDEA"/><path d="M758 368h2c2.82 5.96 1.76 11.67 1 18h-1l-1-5.62-.56-3.17A56 56 0 0 1 758 368" fill="#DCDFDC"/><path d="M835 505h1a44 44 0 0 1 1.06 10.81l-.02 2.96L837 521l-1-2h-2c-.18-9.41-.18-9.41 1-14" fill="#CED0CC"/><path d="M781 384h1l1 24-3-1z" fill="#BEC0C3"/><path d="M749 19c6.92 3.08 6.92 3.08 9 7 .19 2.75.19 2.75 0 5l-2-1-.62-2.31c-2.05-3.99-5.36-5.02-9.38-6.69z" fill="#1C1D1E"/><path d="M516 16v2l-15 2 2-4c2.53-.64 2.53-.64 5.5-.81l2.97-.21C514 15 514 15 516 16" fill="#EFF0F1"/><path d="M491 411h1v17h-3c-.22-6.1-.01-11.22 2-17" fill="#1C1F1F"/><path d="m749 341 4 1 2 12-2 1-2-5.88-1.12-3.3C749 343 749 343 749 341" fill="#E5E8E6"/><path d="m540 692 2 1c.41 2.5.41 2.5.62 5.56l.23 3.07.15 2.37h-2c-2.45-3.67-2.24-5.67-2-10z" fill="#EDEDF0"/><path d="M879 326c4.92.43 7.49 2.64 11 6 1.38 2.31 1.38 2.31 2 4h-3l-4-5a184 184 0 0 0-6-4z" fill="#E0E2E4"/><path d="m750 16 3.38 1.81 1.89 1.02C757 20 757 20 759 23l-3 1c-3-1.81-3-1.81-6-4l-3-2z" fill="#E1E2E3"/><path d="m549 670 1 5-3 2-1.81-.94C543 675 543 675 540 674l4-1v-2c2-1 2-1 5-1" fill="#F2EFF5"/><path d="M490 650h2a972 972 0 0 1-2 17c-2.5-3.74-2.45-7.66-2-12 1-3 1-3 2-5" fill="#EEEFEF"/><path d="M467 592c3.26 3.02 5.62 6.26 8 10l-2 2c-5.88-6.07-5.88-6.07-6.38-9.94z" fill="#E0E2E2"/><path d="M781 407c2 1 2 1 3.12 3.62.94 3.6 1.03 6.68.88 10.38-2.37-1.85-2.98-2.9-3.69-5.88A63 63 0 0 1 781 407" fill="#E7E8EA"/><path d="M496 364h3c-.86 8.57-.86 8.57-3 12-1.12-1.5-1.12-1.5-2-4 .42-2.78 1.19-5.3 2-8" fill="#1E2021"/><path d="M747 233c.68 1.73.68 1.73 1 4-1.21 2.14-1.21 2.14-2.94 4.25l-1.71 2.14L742 245l-3-2 1.24-1.43 1.64-1.88 1.61-1.87C745 236 745 236 747 233" fill="#1E2020"/><path d="M692.38 663.69c2.8 1.4 4.52 2.99 6.62 5.3-3 1-3 1-4.78.3l-1.85-1.1-1.85-1.08C689 666 689 666 688 664c2-1 2-1 4.38-.31" fill="#EEEEEF"/><path d="m845 367 1 2-2.38.75c-2.94 1.4-3.52 2.26-4.62 5.25l-3-3c1.12-1.94 1.12-1.94 3-4 3.19-.75 3.19-.75 6-1" fill="#F0F0F3"/><path d="m723 284 4 1c1.29 4.12 2.26 7.67 2 12-3.43-3.76-4.56-8.23-6-13" fill="#E2E5E2"/><path d="M812 601v2l-11 3-1-3c4.12-1.29 7.67-2.26 12-2" fill="#EAEBEB"/><path d="M857 569c.71 1.74.71 1.74 1 4-1.36 2.11-1.36 2.11-3.31 4.19l-1.93 2.1C851 581 851 581 849 582v-3h2l.25-1.81c.96-2.8 2.39-3.49 4.75-5.19z" fill="#1C1C1E"/><path d="M877 532h3c1.28 3.83.62 5.37-1 9l-4 2z" fill="#D8D8DB"/><path d="M878.63 359.94a155 155 0 0 1 4.38.06c-3.28 3.85-6.14 3.6-11 4v-3c2.4-1.2 3.94-1.1 6.62-1.06" fill="#EBEBEE"/><path d="M568 52c3.94 1.67 6.79 4.23 10 7l-2 2-10-7z" fill="#E0E0E2"/><path d="M790 459c-3.64 2.39-6.07 1.94-10.25 1.12l-3.27-.61L774 459v-1c6.07-1.08 10.1-.79 16 1" fill="#1C1F1E"/><path d="m475.19 455.94 2.73.03 2.08.03-1 3-10 1v-2l-2-1c3.02-1 5.04-1.1 8.19-1.06" fill="#444749"/><path d="M878 498a18 18 0 0 1 3 4c-.14 2.58-.14 2.58-.81 5.25l-.65 2.7L879 512h-1l-.56-6.44-.32-3.62L877 499z" fill="#CFD2D5"/><path d="M774 454c2.6-.29 2.6-.29 5.62-.19l3.04.08 2.34.11 1 2c-2.76 1.38-5.05 1.1-8.12 1.06l-3.33-.02L772 457z" fill="#D1D4D2"/><path d="m490 378 2 1-1 12c-2.44-2.44-2.69-3.59-3-7 .94-3.31.94-3.31 2-6" fill="#E2E4E5"/><path d="M810 482c2.14 2.6 3.7 4.6 4 8-.94 3.25-.94 3.25-2 6h-1a1236 1236 0 0 1-1.66-10.06L809 483z" fill="#E3E5E5"/><path d="M446 471h2c-.78 4.85-2.4 9.38-4 14h-1c-.29-5.67-.01-8.99 3-14" fill="#D8D9DB"/><path d="m546 36 4 2.81 2.25 1.58L554 42v3l-10-7z" fill="#DCDDDC"/><path d="m812 550 3 2v2l-7 3c0-3 0-3 2-5.19z" fill="#E8E9E9"/><path d="M488 429h1a80 80 0 0 1 1 15l-3-2z" fill="#F1F3F5"/><path d="M504 332h2q-.38 2.22-.81 4.44l-.46 2.49L504 341l-3 1c.51-3.72 1.12-6.73 3-10" fill="#EDEFF0"/><path d="m809 335 4 1-9 7-2-2q1.61-1.55 3.25-3.06l1.83-1.73z" fill="#D6D5D7"/><path d="M442 479h1c.08 4.83-.05 9.24-1 14-2-2-2-2-2.01-4.06l.32-2.38.3-2.37C441 482 441 482 442 479" fill="#E5E7E6"/><path d="M807 473c2.65 2.65 3.6 5.56 5 9l-3 1-3-9z" fill="#F0F2F1"/><path d="M752 352c2.64 3.97 3.28 7.15 2.56 11.88L754 366c-1.99-2.98-2.34-4.14-2.69-7.56l-.26-2.38C751 354 751 354 752 352" fill="#242823"/><path d="M440 516h1v12h-2c-1.37-4.52-.47-7.59 1-12" fill="#E3E6E3"/><path d="m819 329 3 2q-1.86 1.05-3.75 2.06l-2.11 1.16C814 335 814 335 810 334z" fill="#E0E0E3"/><path d="m724 258 1 3-5 2-1 8h-1c-.35-3.07-.54-5.94 0-9 3-2.56 3-2.56 6-4" fill="#C8CAC9"/><path d="M493 30h2v8h-3c-.12-5.75-.12-5.75 1-8" fill="#1E1E20"/><path d="m483 611 7 6-4 1c-1.75-1.19-1.75-1.19-3-3z" fill="#D5D8D4"/><path d="M798 444a35 35 0 0 1 7 9l-4-1v-2l-3-1z" fill="#D8DBDD"/><path d="M490 659h1l.37 1.86.51 2.45.49 2.43C493 668 493 668 495 671h-3c-2.14-3.2-2.23-4.02-2.12-7.69l.05-2.45z" fill="#DBDEDE"/><path d="M831 529h1c.12 5.75.12 5.75-1 8l-3-1c.75-4.75.75-4.75 3-7" fill="#EDEDF2"/><path d="m451 464 2 1a19 19 0 0 1-5 7l-2-2z" fill="#E6E8E8"/><path d="M862 461c3.88 1.88 3.88 1.88 5 3q.06 3 0 6c-4.43-5.14-4.43-5.14-5-9" fill="#E1E2E5"/><path d="M760 445h1l1 11-3-1z" fill="#CDD0CF"/><path d="M837 431c3.83 1.45 5.12 3.43 7 7l-2 1c-1.5-1.38-1.5-1.38-3-3v-2h-2z" fill="#1E1F1E"/><path d="M789 361c1.09 2.83.96 4.17.25 7.19L788 371l-3 1 1.44-4.38.81-2.46C788 363 788 363 789 361" fill="#262829"/><path d="M862 363c-1 1.5-1 1.5-3 3-2.72.27-5.26.13-8 0 2.11-4.21 6.88-3.08 11-3" fill="#F5F4F9"/><path d="M854 323v1c-5.31 1.43-9.54 2.4-15 1v-1c4.96-1.32 9.91-1.09 15-1" fill="#3F4041"/><path d="m495 214 2 1c.63 2.07.63 2.07 1.12 4.56l.51 2.51.37 1.93-4-2z" fill="#CACBCC"/><path d="M577 60c3.34.56 6.03 1.35 9 3l-4 2z" fill="#E8EAE9"/><path d="m494 671 11 3v1h-9z" fill="#EDEDED"/><path d="M507 633c2.87.57 3.86.86 6 3-3.23 2.15-4.28 2.2-8 2l1-1.94c1-2.06 1-2.06 1-3.06" fill="#E0DFE4"/><path d="M458 578c2.25 2.69 3.88 4.65 5 8h-3c-2-2-2-2-2.12-5.12z" fill="#E1E4E0"/><path d="M832 500c1.5 1.06 1.5 1.06 3 3 .19 3.69.19 3.69 0 7-2.89-2.39-3.62-4.29-4-8z" fill="#F0F2F0"/><path d="M850 443c2.96 2.81 5.44 5.18 7 9a13 13 0 0 1-7-6z" fill="#E2E2E6"/><path d="m490 430 3 2c.19 3.62.19 3.62 0 7h-3z" fill="#1D1F20"/><path d="M755 361c1.95 3.9 2.51 6.72 3 11l-4-2z" fill="#363937"/><path d="m757 214 3 3-2 6h-2z" fill="#EBEEF0"/><path d="m726 21 2 3c-4.75 4-4.75 4-7 4a19 19 0 0 1 5-7" fill="#DCDEE1"/><path d="M709 692h1l.18 1.86.26 2.45.24 2.43C711 701 711 701 712 704h-4z" fill="#BCBEBD"/><path d="m761 653 3 1-1 10h-1z" fill="#F6F8F6"/><path d="m466 458-1 4-5 1v-3c3.75-2 3.75-2 6-2" fill="#222427"/><path d="m481 454 9 2c-4.36 2.18-5.47 2.03-10 1z" fill="#E0E3E5"/><path d="m493 441 1 3 2 1-1 5-3 1z" fill="#1B1D20"/><path d="m761 375 2 1c.81 2.81.81 2.81 1 6l-3 4z" fill="#F0F2F0"/><path d="M720 262c1.38 2.27 2.06 3.5 1.75 6.19C721 270 721 270 719 271c-.1-6.15-.1-6.15 0-8z" fill="#F3F5F4"/><path d="M735 248v3c-2.5 1.69-2.5 1.69-5 3l-2-2c4.75-4 4.75-4 7-4" fill="#1C1F1D"/><path d="M540 178c2 1 2 1 3 3l-7 3c.31-1.88.31-1.88 1-4z" fill="#070A07"/><path d="M549 42c3.38 1.19 5.65 2.28 8 5l-3 1a295 295 0 0 1-5-5z" fill="#1C1E1F"/><path d="M737 18h10c-4.22 3.16-5.06 3.34-10 3z" fill="#2C2C2E"/><path d="M735 19c-4.62 4-4.62 4-8 4 .81-1.94.81-1.94 2-4 3-1 3-1 6 0" fill="#E6E8E9"/><path d="m613 696 2 1-4 7-2-1c1.07-2.92 1.78-4.78 4-7" fill="#1F221F"/><path d="m459 579 4 1a31 31 0 0 1 2 6l-2 1z" fill="#262924"/><path d="M470 456c-3.19 2.13-5.27 2.5-9 3v-2c3.43-1.62 5.38-2.34 9-1" fill="#E6E8EC"/><path d="M810 544v5h-3l-1 2c.38-2.94.38-2.94 1-6 2-1 2-1 3-1" fill="#F2F4F3"/><path d="M789 430h2l2 6-2 1-3-6z" fill="#D2D5D7"/><path d="M847 321v2l-9 1c2.98-2.98 4.79-3 9-3" fill="#EDEDF0"/><path d="M722 277c2.15 2.62 3.4 4.64 4 8-1.94-.75-1.94-.75-4-2-.81-2-.81-2-1-4z" fill="#EBEFEA"/></svg>