<svg style="background:transparent" version="1.1" xmlns="http://www.w3.org/2000/svg" viewBox="0 0 1248 704"><path d="M525 .77a71 71 0 0 1 18.37 16.5c1.98 2.1 4.15 3.26 6.63 4.73q2.86 2.41 5.62 4.94l2.85 2.59A52 52 0 0 1 564 36l2.37 1.38c3.28 2.03 5.18 4.67 7.63 7.62q1.99 1.04 4 2l1.94 2.44c3.14 3.9 5.65 5.4 10.67 5.99l4.23.06 2.35.04q3.83.07 7.66.08l5.36.06 11.22.06q7.17.02 14.32.17 5.54.08 11.07.08 2.63 0 5.27.07c15.43.32 15.43.32 21.88-5.44q2.06-2.26 4.03-4.61 1.46-1.36 3-2.67a239 239 0 0 0 9.75-9.08c2.1-2.1 4.3-4 6.6-5.9 4.8-3.95 9.42-8.12 13.98-12.36q3.08-2.84 6.2-5.64 2.03-1.87 4-3.8C727.1 1.52 731.47-.1 739-.24c5.31.45 8.58 2.3 13 5.25v2l1.81.63c4.8 3.02 5.9 9.16 7.2 14.37.17 2.64.26 5.16.24 7.79l.01 2.28v7.52l.01 5.42v55.81q-.03 14.9 0 29.8v60.53q0 3.6-.02 7.19l.02 2.1c-.04 4.24-.8 7.6-2.27 11.56l-.45 3.03c-.62 3.32-1.75 5.6-3.43 8.54l-1.55 2.75L752 229l-1.57 2.7A27 27 0 0 1 745 238h-2l-.76 1.78c-3.07 5.5-8.94 9.1-14.24 12.22-6.5 4.17-6.5 4.17-7.55 8-.3 8.7 3.08 17.19 6.55 25q.74 2.28 1.44 4.57c1.28 3.97 3.11 7.03 5.56 10.43 3.27 6.17 6.07 12.6 9.02 18.92l2.51 5.33A132 132 0 0 1 752 341l1 3 1.72 5.2c2.11 6.42 2.11 6.42 3.4 9.43 1.14 3.08 1.43 6.12 1.88 9.37l1 3.5c1 3.5 1.48 6.9 2 10.5l1.06 3.57c.92 3.36 1.01 5.98.94 9.43l.5 2.44c.62 3.22.5 6.29.5 9.56l.5 2.38c.53 2.77.63 5.3.62 8.12l.01 2.79a48 48 0 0 1-1.13 7.7V433l-1 1c-.07 2.27 0 4.5.06 6.78C765 443 765 443 764 446q-.57 2.84-1.06 5.69l-.54 3-.4 2.3 3.7-1.5c7.43-2.43 15.7-2.91 23.05.08A50 50 0 0 1 808 473l1.75 2.38c1.92 4.04 2.48 8.24 3.25 12.62l1.06 4.82c1.7 8.53 2.37 17.06 1.25 25.7-.35 2.75-.55 5.48-.75 8.23A42 42 0 0 1 812 538l-1 7q-.98 3.51-2 7-.75 3.44-1.44 6.89a27 27 0 0 1-2.56 6.1c6.02.13 11.23-.06 17-2q3.18.01 6.37.08c3.63-.07 3.63-.07 6.13-.57 3.2-.63 6.25-.5 9.5-.5l1.91-.5c2.41-.57 4.48-.55 6.96-.5 7.03.08 14.02-.3 21.03-.73 6.15-.33 12-.05 18.1.73l2.07.26 5.62.74 3.7.5 3.61.5 3.74.49c4.01.63 7.52 2 11.26 3.5q1.7.67 3.45 1.33c10.13 3.9 19.98 7.92 28.05 15.38 1.5 1.3 1.5 1.3 4.31 2.93 2.52 1.58 2.95 2.74 4.2 5.37l1.86 1.32c2.48 1.96 3.71 4.16 5.2 6.93.93 1.75.93 1.75 2.55 4.25 1.7 3.09 2.5 6.1 3.38 9.5l1.04 3.25c1.01 3.97 1.2 7.36 1.15 11.44l-.02 3.89A29 29 0 0 1 976 640l-.75 3.69c-2.04 8.07-6.73 14.28-12.25 20.3q-.97 1.16-1.99 2.34l-2.07 2.42q-.96 1.1-1.9 2.24c-2.2 2.17-4.37 3.5-7.04 5l-1.95 1.5c-7.7 5.65-17.73 9.9-27.02 12.05q-2 .45-3.97 1a73 73 0 0 1-13.67 2.22c-2.39.24-2.39.24-4.63.76-3.93.69-7.78.63-11.76.6l-2.4.02A50 50 0 0 1 873 693q-2.47-.25-4.94-.43A43 43 0 0 1 857 690l-4.5-.81c-7.92-1.74-12.23-7.71-16.5-14.2-2.74-4.7-3.3-9.58-3-15 1.18-3.37 2.9-6.1 5-9l2.2-3.24a36 36 0 0 1 24.11-9.93c3.7.18 3.7.18 5.7 1.18q2.27.07 4.55 0 2.22-.05 4.44 0l1 1c3.7.26 7.41.19 11.12.19l3.14.04c5.67 0 10.4-.34 15.74-2.23l2.94-.81c4.05-1.57 7.75-3.33 11.06-6.2 1.4-3.5 1.36-5.05 0-8.55-7.16-8.72-18.93-11.83-29.75-13.12A87 87 0 0 0 886 609h-3l-1-1a64 64 0 0 0-4.16-.13h-7.99c-5.69 0-11.2.42-16.85 1.13a318 318 0 0 1-8.09.75q-3.06.27-6.1.5l-3.19.25-2.9.22c-2.63.27-5.13.76-7.72 1.28-2.76.29-5.52.5-8.28.72A74 74 0 0 0 809 614q-4 .53-8 1l-3.88.5c-3.1.4-6.2.7-9.3 1A90 90 0 0 0 778 618q-2.97.39-5.94.72L770 619l-2.52.34c-2.84.76-4.06 1.72-6.17 3.73a240 240 0 0 1-14.3 11.93l2.51 1.8 3.3 2.39 1.65 1.18c6.14 4.5 8.96 10.3 10.53 17.63.28 4.87-.17 7.97-3.25 11.82L759 672l-2.3 2.19c-6.43 4.33-13.92 4.14-21.39 4.06l-2.95-.02c-12.23-.18-22.24-1.97-33.36-7.23a64 64 0 0 0 6.56 7.44c4.23 4.45 6.24 9.59 7.44 15.56a92 92 0 0 1-.46 5.24A150 150 0 0 1 712 704q-14.12.35-28.25.52-6.56.07-13.1.24-6.34.15-12.67.19-2.4.03-4.83.1c-12.56.42-12.56.42-16.46-3.16-4.96-7.95-6.55-17.61-5.69-26.9l1-2q.06-3 0-6v-2c-.42.02-.42.02-2.56.05l-3.32.03-3.3.03C620 665 620 665 618 664l2 3c.16 2.46.16 2.46.06 5.25-.07 3.33 0 6.2.5 9.5 1.03 7.63-1.32 15.89-5.56 22.25-3.05.37-3.05.37-7.02.34h-2.19q-3.58 0-7.18-.04l-4.96-.02q-6.55-.02-13.09-.07-6.67-.04-13.36-.06-13.1-.05-26.2-.15c-2.83-5.3-2.3-9.36-.75-15.06 2.1-6.52 5.98-10.17 10.75-14.94l1-2-4.63 1.38-2.79.83c-2.58.79-2.58.79-5.46 1.92-12.19 3.4-30.4 3.83-42.2-.97-1.55-.97-1.55-.97-3.92-3.16l-2.3-2.12c-2.8-4.77-2.96-9.9-2.49-15.34 1.05-3.4 2.86-5.46 5.16-8.16q1.2-1.4 2.4-2.85c3-3.4 5.2-5.51 9.23-7.53l1-2-1.69-.75a37 37 0 0 1-7.3-5.25v-2l-1.76-.25c-2.96-.98-4.1-2.47-6.25-4.75l-3.56-3a130 130 0 0 1-10.32-10.18l-1.44-1.55A32 32 0 0 1 468 598q-1.95-2.54-4-5c-2.42-2.91-4.42-5.56-6-9l-2.3-4.12c-3.77-6.75-7.49-13.45-9.7-20.88l-.7-2.01a94 94 0 0 1-3.83-14.7c-.47-2.3-.47-2.3-1.6-5.6-.9-2.76-.95-4.81-.87-7.7l-1-4c-3.25-20-.32-42.03 11-59 1.97-1.72 1.97-1.72 4-3l2.22-1.52 2.28-1.53 2.28-1.53a32 32 0 0 1 23.84-4.6c2.33.57 4.24 1.13 6.38 2.19l-.4-1.68A132 132 0 0 1 487 439l-.49-2.67c-.63-4.11-.9-8.18-1.14-12.33l-.15-2.36c-.26-4.41-.04-8.28.78-12.64q.06-2.72 0-5.43c-.04-4.3.26-8.32 1-12.57l.44-3.56c.56-3.44.56-3.44 1.56-6.37.98-3.01 1.32-5.82 1.66-8.96a35 35 0 0 1 1.65-6.17 423 423 0 0 0 4.34-13.25l.91-2.87c3.88-12.26 8.22-23.55 14.07-35.02 1.25-2.56 2.32-5.14 3.37-7.8l3-5a79 79 0 0 0 7-17q1.46-2.51 3-5c.56-1.87.56-1.87 1-4l1.06-3.06A35 35 0 0 0 531 258c-2.06-2.87-2.06-2.87-5-5l-1.65-1.2q-1.75-1.25-3.52-2.48c-12.8-9.21-12.8-9.21-14.83-15.32l-1.9-.93c-5.47-2.78-8.2-11.86-10.26-17.36-3.09-9.91-2-21.24-2-31.53q0-2.69-.02-5.35l-.02-14.43v-9.02q-.04-14.15-.04-28.28 0-16.29-.05-32.58l-.04-25.25-.02-15.05q-.03-7.08 0-14.15l-.02-5.18v-7.1l-.02-2.04c.06-6 1.58-11.24 5.11-16.14C504.3 2.2 514.15-3.4 525 .77" fill="#161917"/><path d="m870.69 563.63 2.75-.02c16.98-.12 34.46.78 50.56 6.63q1.3.47 2.62.92c18.53 6.7 34.47 17.63 43.15 35.75 6.07 13.26 5.65 27.38 1 41.12A55 55 0 0 1 952 672l-2.41 1.77c-24.32 16.69-55.63 20.37-84.17 15.57-11.15-2.1-20.55-6-27.42-15.35-2.51-4.43-2.65-9.03-2-14 1.93-6.6 6.38-11.22 12-15 5.77-3.1 10.46-3.4 16.94-3.25l2.59.01c3.92.06 7.75.23 11.64.74 14.99 1.97 30.97.54 44.27-7.15 1.89-1.63 2.67-3.02 3.56-5.35.3-4.3.36-7.35-2-11-14.94-12.22-33.9-13.38-52.37-13.25h-2.24c-16 .07-31.83 1-47.62 3.68-6.7 1-13.41 1.7-20.13 2.43a250 250 0 0 0-15.9 2.23 72 72 0 0 1-14.5 1.03l-2.14-.02-5.1-.1 2.27-2.25c11.93-12 26.77-28.62 29.73-45.74l1 3 2.8-.56c23.16-4.32 46.4-5.74 69.89-5.83" fill="#141716"/><path d="M525 .77a71 71 0 0 1 18.37 16.5c1.98 2.1 4.15 3.26 6.63 4.73q2.86 2.41 5.62 4.94l2.85 2.59A52 52 0 0 1 564 36l2.37 1.38c3.28 2.03 5.18 4.67 7.63 7.62q1.99 1.04 4 2l1.94 2.44c3.14 3.9 5.65 5.4 10.67 5.99l4.23.06 2.35.04q3.83.07 7.66.08l5.36.06 11.22.06q7.17.02 14.32.17 5.54.08 11.07.08 2.63 0 5.27.07c15.43.32 15.43.32 21.88-5.44q2.06-2.26 4.03-4.61 1.46-1.36 3-2.67a239 239 0 0 0 9.75-9.08c2.1-2.1 4.3-4 6.6-5.9 4.8-3.95 9.42-8.12 13.98-12.36q3.08-2.84 6.2-5.64 2.03-1.87 4-3.8C727.1 1.52 731.47-.1 739-.24c5.31.45 8.58 2.3 13 5.25v2l1.81.63c4.8 3.02 5.9 9.16 7.2 14.37.17 2.64.26 5.16.24 7.79l.01 2.28v7.52l.01 5.42v55.81q-.03 14.9 0 29.8v60.53q0 3.6-.02 7.19l.02 2.1c-.04 4.24-.8 7.6-2.27 11.56l-.45 3.03c-.62 3.32-1.75 5.6-3.43 8.54l-1.55 2.75L752 229l-1.57 2.7A27 27 0 0 1 745 238h-2l-.76 1.78c-3.07 5.5-8.94 9.1-14.24 12.22-6.5 4.17-6.5 4.17-7.55 8-.3 8.7 3.08 17.19 6.55 25q.74 2.28 1.44 4.57c1.28 3.97 3.11 7.03 5.56 10.43 3.27 6.17 6.07 12.6 9.02 18.92l2.51 5.33A132 132 0 0 1 752 341l1 3 1.72 5.2c2.11 6.42 2.11 6.42 3.4 9.43 1.14 3.08 1.43 6.12 1.88 9.37l1 3.5c1 3.5 1.48 6.9 2 10.5l1.06 3.57c.92 3.36 1.01 5.98.94 9.43l.5 2.44c.62 3.22.5 6.29.5 9.56l.5 2.38c.53 2.77.63 5.3.62 8.12l.01 2.79a48 48 0 0 1-1.13 7.7V433l-1 1c-.07 2.27 0 4.5.06 6.78C765 443 765 443 764 446q-.57 2.84-1.06 5.69l-.54 3-.4 2.3 3.7-1.5c7.43-2.43 15.7-2.91 23.05.08A50 50 0 0 1 808 473l1.75 2.38c1.92 4.04 2.48 8.24 3.25 12.62l1.06 4.82c1.7 8.53 2.37 17.06 1.25 25.7-.35 2.75-.55 5.48-.75 8.23A42 42 0 0 1 812 538l-1 7q-.98 3.51-2 7-.75 3.44-1.44 6.89a27 27 0 0 1-2.56 6.1c6.02.13 11.23-.06 17-2q3.18.01 6.37.08c3.63-.07 3.63-.07 6.13-.57 3.2-.63 6.25-.5 9.5-.5l1.91-.5c2.41-.57 4.48-.55 6.96-.5 7.03.08 14.02-.3 21.03-.73 6.15-.33 12-.05 18.1.73l2.07.26 5.62.74 3.7.5 3.61.5 3.74.49c4.01.63 7.52 2 11.26 3.5q1.7.67 3.45 1.33c10.13 3.9 19.98 7.92 28.05 15.38 1.5 1.3 1.5 1.3 4.31 2.93 2.52 1.58 2.95 2.74 4.2 5.37l1.86 1.32c2.48 1.96 3.71 4.16 5.2 6.93.93 1.75.93 1.75 2.55 4.25 1.7 3.09 2.5 6.1 3.38 9.5l1.04 3.25c1.01 3.97 1.2 7.36 1.15 11.44l-.02 3.89A29 29 0 0 1 976 640l-.75 3.69c-2.04 8.07-6.73 14.28-12.25 20.3q-.97 1.16-1.99 2.34l-2.07 2.42q-.96 1.1-1.9 2.24c-2.2 2.17-4.37 3.5-7.04 5l-1.95 1.5c-7.7 5.65-17.73 9.9-27.02 12.05q-2 .45-3.97 1a73 73 0 0 1-13.67 2.22c-2.39.24-2.39.24-4.63.76-3.93.69-7.78.63-11.76.6l-2.4.02A50 50 0 0 1 873 693q-2.47-.25-4.94-.43A43 43 0 0 1 857 690l-4.5-.81c-7.92-1.74-12.23-7.71-16.5-14.2-2.74-4.7-3.3-9.58-3-15 1.18-3.37 2.9-6.1 5-9l2.2-3.24a36 36 0 0 1 24.11-9.93c3.7.18 3.7.18 5.7 1.18q2.27.07 4.55 0 2.22-.05 4.44 0l1 1c3.7.26 7.41.19 11.12.19l3.14.04c5.67 0 10.4-.34 15.74-2.23l2.94-.81c4.05-1.57 7.75-3.33 11.06-6.2 1.4-3.5 1.36-5.05 0-8.55-7.16-8.72-18.93-11.83-29.75-13.12A87 87 0 0 0 886 609h-3l-1-1a64 64 0 0 0-4.16-.13h-7.99c-5.69 0-11.2.42-16.85 1.13a318 318 0 0 1-8.09.75q-3.06.27-6.1.5l-3.19.25-2.9.22c-2.63.27-5.13.76-7.72 1.28-2.76.29-5.52.5-8.28.72A74 74 0 0 0 809 614q-4 .53-8 1l-3.88.5c-3.1.4-6.2.7-9.3 1A90 90 0 0 0 778 618q-2.97.39-5.94.72L770 619l-2.52.34c-2.84.76-4.06 1.72-6.17 3.73a240 240 0 0 1-14.3 11.93l2.51 1.8 3.3 2.39 1.65 1.18c6.14 4.5 8.96 10.3 10.53 17.63.28 4.87-.17 7.97-3.25 11.82L759 672l-2.3 2.19c-6.43 4.33-13.92 4.14-21.39 4.06l-2.95-.02c-12.23-.18-22.24-1.97-33.36-7.23a64 64 0 0 0 6.56 7.44c4.23 4.45 6.24 9.59 7.44 15.56a93 93 0 0 1-1 10l-4-1 .14-2.78c.26-8.92.07-14.73-6.13-21.33a50 50 0 0 0-15-9.9v-8q.96.58 1.97 1.15c14.95 8.38 27.5 12.23 44.64 12.1l3.57.04c15.08-.04 15.08-.04 20.25-4.28 3.72-4.76 3.2-10.18 2.56-16-2.42-6.56-7.92-12.1-14.23-15.03-1.9-.72-3.83-1.35-5.77-1.97v-2c1.91-1.41 3.82-2.71 5.81-4a54 54 0 0 0 11.94-10.37c7.64-7.2 18.07-6.63 28.06-7.36 4.74-.4 9.42-1.1 14.13-1.83 7.9-1.17 15.82-2.12 23.77-2.97 5.46-.58 10.9-1.3 16.35-2a256 256 0 0 1 29.42-1.71q3.27-.02 6.56-.07c16.85-.12 34.76 2.19 48.47 12.79 2.7 2.77 3.44 5.07 3.86 8.9-.46 4.44-1.4 6.29-4.37 9.62-13.36 8.9-31.53 9.26-46.87 7.24-9.86-1.1-21.5-2.23-30.22 3.2-5.15 4.2-9.33 8.8-10.16 15.59-.32 5.83.87 10.19 4.25 14.97 12.6 12.59 32.34 13.34 49.21 13.39 24.86-.41 50.32-8.1 68.77-25.23A44 44 0 0 0 963 660l1.54-2.1c7.35-10.88 9.92-24.95 8.46-37.9-3.05-14.93-11.3-27.93-23.92-36.6A116 116 0 0 0 926 572l-3.03-1.14c-16.58-5.7-34.42-6.4-51.78-6.3h-2.82c-18.3.05-36.33 1.68-54.5 3.83-5 .57-9.84.8-14.87.6l1.2-3.55.81-2.53a216 216 0 0 1 2.16-6.03c8.25-22.78 14.31-55.1 3.83-77.88-4.14-8.77-9.77-15.26-18.63-19.43-9.25-3.31-19.47-2.58-28.37 1.43l-2 1 .61-5.22.53-4.64c.42-3.6.86-7.16 1.44-10.74 3.16-20.37 2.77-42.25-1.58-62.4l-.74-3.87c-5.26-26.06-15.72-50.9-28.24-74.2C723.1 287.82 715.1 271.17 718 256c2.78-3.56 6.2-5.63 10-8q2.43-1.84 4.81-3.75 3.36-2.63 6.81-5.12c10.11-9.04 16.86-22.71 17.75-36.26.18-4.77.15-9.53.11-14.3l.02-5.47q0-7.38-.03-14.74v-15.47l-.06-25.95q-.04-15-.04-29.97 0-15.99-.03-31.98v-9.2q0-7.22-.04-14.44v-5.3l-.03-7.23v-2.1c-.06-6.45-1.18-11.7-5.27-16.72V8l-2.19-.87c-2.8-1.13-2.8-1.13-5-2.25-5.14-1.6-10.2-2.05-15.22.2a87 87 0 0 0-16.22 12.86q-2.1 2.05-4.22 4.09l-2.08 2a251 251 0 0 1-8.24 7.39q-3.7 3.24-7.33 6.58a341 341 0 0 1-11.4 10.1c-2.1 1.9-2.1 1.9-4.03 4.16-5.07 5.55-9.19 7.57-16.5 7.97q-5 .16-9.99.1l-5.38.07q-5.61.04-11.22 0-7.14-.03-14.28.14-5.54.08-11.08.05-2.63 0-5.26.06c-8.92.19-15.53-.15-22.45-6.23a123 123 0 0 1-6.57-6.92 52 52 0 0 0-5.53-5.18 432 432 0 0 1-9.3-8.32 564 564 0 0 0-11.29-10.02 186 186 0 0 1-5.25-4.86C525.92 3.8 525.92 3.8 515.81 3.38c-6.83.38-11.02 2.42-15.62 7.56-3.74 5.23-4.49 9.42-4.46 15.75v2.33q-.03 3.84-.02 7.7l-.02 5.52-.03 15v9.39q-.04 16.4-.03 32.79 0 15.24-.05 30.49-.04 13.12-.04 26.23 0 7.81-.03 15.64-.03 7.36 0 14.74l-.02 5.38c-.1 17.49 3.31 32.1 15.5 45.27 5.87 5.76 12.7 10.57 19.27 15.48 3.67 2.86 3.67 2.86 4.14 6.49.24 10.07-1.46 17.69-5.53 26.88q-1.28 2.92-2.48 5.88a190 190 0 0 1-8.94 18.67c-17 31.09-27.66 67.56-27.7 103.06v2.22c-.02 11.55.8 22.68 2.88 34.06.6 3.35.97 6.72 1.37 10.09-3.47-.45-6.68-.9-10-2-9.75-.77-17.69-.76-26 5l-1.92 1.18c-8.1 5.78-11.88 16.72-14.02 26.07-5.88 35.07 5.15 73.64 25.41 102.34 5.6 7.62 12 14.6 18.53 21.4l1.6 1.7c4.22 4.35 8.71 8.04 13.6 11.63l2.1 1.58c3.15 2.34 6.14 4.42 9.7 6.1v2l-1.94.67c-7.53 2.76-13.35 5.96-17.5 13.02-2.2 4.97-2.37 9.99-1.56 15.3 2.17 4.36 4.97 5.77 9.48 7.39 5.18 1.28 10.46 1.05 15.77 1l3.5.03c15.1-.05 29.33-4.65 42.25-12.41h2v8l-1.98.92c-7.87 3.77-13.85 7.33-18.05 15.26C543 691.9 543.08 698 543 704l-4-2c-.42-7.52.62-14.43 4.87-20.81q3.53-3.61 7.13-7.2l1-2-4.63 1.39-2.79.83c-2.58.79-2.58.79-5.46 1.92-12.19 3.4-30.4 3.83-42.2-.97-1.55-.97-1.55-.97-3.92-3.16l-2.3-2.12c-2.8-4.77-2.96-9.9-2.49-15.34 1.05-3.4 2.86-5.46 5.16-8.16q1.2-1.4 2.4-2.85c3-3.4 5.2-5.51 9.23-7.53l1-2-1.69-.75a37 37 0 0 1-7.3-5.25v-2l-1.76-.25c-2.96-.98-4.1-2.47-6.25-4.75l-3.56-3a130 130 0 0 1-10.32-10.18l-1.44-1.55A32 32 0 0 1 468 598q-1.95-2.54-4-5c-2.42-2.91-4.42-5.56-6-9l-2.3-4.12c-3.77-6.75-7.49-13.45-9.7-20.88l-.7-2.01a94 94 0 0 1-3.83-14.7c-.47-2.3-.47-2.3-1.6-5.6-.9-2.76-.95-4.81-.87-7.7l-1-4c-3.25-20-.32-42.03 11-59 1.97-1.72 1.97-1.72 4-3l2.22-1.52 2.28-1.53 2.28-1.53a32 32 0 0 1 23.84-4.6c2.33.57 4.24 1.13 6.38 2.19l-.4-1.68A132 132 0 0 1 487 439l-.49-2.67c-.63-4.11-.9-8.18-1.14-12.33l-.15-2.36c-.26-4.41-.04-8.28.78-12.64q.06-2.72 0-5.43c-.04-4.3.26-8.32 1-12.57l.44-3.56c.56-3.44.56-3.44 1.56-6.37.98-3.01 1.32-5.82 1.66-8.96a35 35 0 0 1 1.65-6.17 423 423 0 0 0 4.34-13.25l.91-2.87c3.88-12.26 8.22-23.55 14.07-35.02 1.25-2.56 2.32-5.14 3.37-7.8l3-5a79 79 0 0 0 7-17q1.46-2.51 3-5c.56-1.87.56-1.87 1-4l1.06-3.06A35 35 0 0 0 531 258c-2.06-2.87-2.06-2.87-5-5l-1.65-1.2q-1.75-1.25-3.52-2.48c-12.8-9.21-12.8-9.21-14.83-15.32l-1.9-.93c-5.47-2.78-8.2-11.86-10.26-17.36-3.09-9.91-2-21.24-2-31.53q0-2.69-.02-5.35l-.02-14.43v-9.02q-.04-14.15-.04-28.28 0-16.29-.05-32.58l-.04-25.25-.02-15.05q-.03-7.08 0-14.15l-.02-5.18v-7.1l-.02-2.04c.06-6 1.58-11.24 5.11-16.14C504.3 2.2 514.15-3.4 525 .77" fill="#E6E8E8"/><path d="M673 495h1c1.16 7.47-2.75 12.12-7 18-2.89 3.91-6 7.19-10 10h-2v2l-8.85 5.16C641.23 533 641.23 533 639 533l.18 1.92c1.68 18.66 2.17 37.18 2.14 55.91q-.01 4.6.02 9.21c.3 51.68.3 51.68-4.34 60.96h-22a404 404 0 0 1-4-49l-.03-1.98c-.42-25.73.59-51.33 2.03-77.02l-2.47-1.21-6.48-3.2c-10.93-5.71-19.77-15.45-25.05-26.59-.19-3.34-.19-3.34 0-6q1.76 1.42 3.5 2.88l1.97 1.61L586 502v2l1.82.84c2.18 1.16 2.18 1.16 5.06 3.78 3.44 3.04 7.21 5.36 11.18 7.63l1.79 1.03c9.75 5.48 20.48 6.37 31.35 4.03 13.57-4.65 25.17-13.75 34.3-24.62z" fill="#000"/><path d="M695.38 136.46c8.38 4.92 12.45 10.84 16.62 19.54l1 2c.91 12-.54 21.61-8.25 31.18-7.3 7.56-16.4 10.84-26.75 11.25-9.94-.33-16.66-4.14-23.8-10.92-7.82-8.93-9.02-19.03-8.43-30.45.52-4.67 2.57-8.28 5.23-12.06l2.25-3.25c11.67-11.67 27.18-14.56 42.13-7.29m-41.97 10.5c-3.86 5.56-4.34 12.48-3.4 19.04 2.34 7.34 6.6 12.73 13 17 5.64 2.73 12.01 3.08 18.08 1.42 1.78-.74 1.78-.74 4.91-2.42l2.46-1.27c3.02-2.06 4.4-4.12 6.3-7.23l1.78-2.9c3.13-5.59 3.36-11.03 1.81-17.17-2.68-7.5-6.73-12.14-13.42-16.37-13.05-4.7-23.28-.16-31.52 9.9" fill="#EFC951"/><path d="M740 470h1c1 35.82-4.98 72.24-18.93 105.41-1.74 4.22-3.3 8.51-4.88 12.8q-1.75 4.76-3.76 9.41c-2.26 5.33-3.78 10.84-5.43 16.38l-1.23 3.92c-4.87 15.72-7.89 31.74-9.77 48.08-3.88-1.15-7.09-2.13-10-5-.84-7.87 1.78-16.41 3.69-24l.81-3.28c3.49-13.95 7.48-27.57 12.82-40.93 3.22-8.04 6.02-16.21 8.84-24.39q1.2-3.42 2.44-6.81a267 267 0 0 0 7.66-24.44 73 73 0 0 1 3.97-11.16c1.71-4.45 2.61-9.16 3.65-13.8l.77-3.41a754 754 0 0 0 5.79-28.68l.58-3.13.5-2.77c.48-2.2.48-2.2 1.48-4.2" fill="#000100"/><path d="M583.95 135.62 586 137l2.54 1.66c7.04 5.07 11.97 11.36 14.1 19.9 1.45 9.78.07 18.86-5.49 27.21-6.37 7.7-13.67 12.81-23.76 13.8-11.17.62-19.1-1.05-27.69-8.59-7.32-7.42-10.06-15.59-10.33-25.92.08-8.9 2.85-15.76 8.71-22.44 10.28-9.8 26.68-14.34 39.87-7m-39.57 9.28c-4.33 6.56-4.33 13.47-3.38 21.1 1.74 6.75 6.45 11.05 12 15 6 3.38 11.52 4.04 18.17 2.5 4.7-1.55 7.57-3.7 10.83-7.5l2.12-2.3a28.2 28.2 0 0 0 5.35-18.05 28 28 0 0 0-10.47-17.2c-12.19-8.04-25.5-4.27-34.62 6.45" fill="#EDC74E"/><path d="M512 471c2.29 3.82 2.94 7.98 3.77 12.29l1.01 5.05 1.53 7.86a386 386 0 0 0 14.29 52.51l2.5 7.25c2.54 7.42 5.15 14.8 7.94 22.13 24.72 65.2 24.72 65.2 21.96 82.91-1.88 2.73-3.77 4.19-7 5l-3-1-.33-3.41c-2.31-22.72-8.01-44.16-15.92-65.53l-.91-2.47q-3.15-8.48-6.46-16.9l-2.6-6.69q-1.02-2.63-2.08-5.25c-3.12-8.13-5.26-16.44-7.39-24.87l-.9-3.58c-5.33-21.66-6.8-43.05-6.41-65.3" fill="#000101"/><path d="M758 19h2c1.17 3.51 1.14 6.66 1.13 10.31l.01 2.27.01 7.56.01 5.41.01 14.71.01 12.28.01 28.97.02 29.89.03 40.98v14.42l.01 5.29v7.22l.01 2.11A32 32 0 0 1 759 212l-.45 3.03c-.62 3.32-1.75 5.61-3.43 8.53l-1.55 2.76L752 229l-1.57 2.7A27 27 0 0 1 745 238h-2l-.76 1.78c-3.07 5.5-8.94 9.09-14.24 12.22-6.49 4.16-6.49 4.16-7.55 8-.3 8.7 3.08 17.19 6.55 25l1.44 4.56c1.28 3.97 3.11 7.04 5.56 10.44 3.27 6.16 6.07 12.6 9.02 18.91l2.51 5.34A131 131 0 0 1 752 341l1 3 1.72 5.19c2.12 6.43 2.12 6.43 3.4 9.43 1.14 3.09 1.43 6.13 1.88 9.38l1 3.5c1 3.51 1.48 6.89 2 10.5l1.06 3.56c.92 3.37 1.02 5.98.94 9.44l.5 2.33c.53 2.85.52 5.31.38 8.19l-.15 3.1-.17 3.19-.16 3.26q-.18 3.96-.4 7.93h-1l-.2-2.74c-3.16-42.88-13.37-81.35-33.78-119.34-6.92-13.1-14.91-29.75-12.02-44.92 2.78-3.56 6.19-5.64 10-8q2.43-1.84 4.81-3.75c2.25-1.75 4.49-3.47 6.81-5.13a55 55 0 0 0 17.76-36.31c.2-4.84.18-9.69.17-14.54q0-2.78.03-5.57.03-7.49.03-14.98.01-7.86.05-15.7.06-14.84.07-29.69.03-16.9.1-33.81.12-34.77.17-69.52" fill="#E8EAE8"/><path d="M527 2c6.12 4.51 11.66 9.29 16.37 15.27 1.98 2.1 4.15 3.25 6.63 4.73q2.87 2.4 5.62 4.94c.48.42.48.42 2.86 2.59A52 52 0 0 1 564 36l2.38 1.38c3.28 2.03 5.17 4.66 7.62 7.62q2 1.02 4 2l1.94 2.44c3.14 3.9 5.65 5.4 10.67 5.98q2.12.06 4.23.06l2.35.05q3.83.06 7.67.08l5.35.05 11.22.06q7.17.04 14.32.17 5.53.09 11.07.08 2.64.01 5.27.07c15.43.33 15.43.33 21.88-5.43q2.07-2.26 4.03-4.61 1.47-1.37 2.99-2.67a239 239 0 0 0 9.76-9.08c2.1-2.1 4.31-4 6.61-5.89 4.79-3.97 9.41-8.13 13.97-12.37q3.1-2.84 6.2-5.65 2.03-1.87 4.01-3.79c5.56-5.04 9.93-6.66 17.46-6.8 5.31.44 8.58 2.3 13 5.25v2l1.81.62c3.12 1.97 3.94 3.95 5.19 7.38-.31 3.38-.31 3.38-1 6h-1l-.81-3.25A20 20 0 0 0 752 10V8l-2.19-.88C747 6 747 6 744.81 4.88c-5.13-1.6-10.21-2.05-15.21.2a86 86 0 0 0-16.22 12.86l-4.23 4.09-2.08 2.01a239 239 0 0 1-8.24 7.37A382 382 0 0 0 691.5 38c-3.75 3.42-7.5 6.84-11.4 10.1-2.1 1.9-2.1 1.9-4.02 4.16-5.07 5.54-9.2 7.56-16.52 7.97-3.33.12-6.65.12-9.98.11l-5.37.05q-5.62.04-11.23 0c-4.76-.03-9.51.05-14.27.14q-5.55.1-11.09.05-2.63.01-5.26.07c-8.92.19-15.53-.15-22.45-6.23a123 123 0 0 1-6.56-6.93 54 54 0 0 0-5.54-5.18q-4.7-4.09-9.31-8.31a564 564 0 0 0-11.28-10.02 186 186 0 0 1-5.25-4.87C525.92 3.8 525.92 3.8 515.81 3.38c-5.36.27-8.49 1.49-12.81 4.62l-3 2V7c6.91-6.74 18.11-10.53 27-5" fill="#DEE0DF"/><path d="m797 567 1 3 1.67-.5c2.6-.56 4.93-.6 7.58-.56l2.7.02 2.05.04c-5.47 14.17-12.38 27.41-21.84 39.34C789 610 789 610 788 613c-5.2 2.02-9.91 2.26-15.44 2.12l-2.21-.02-5.35-.1 2.27-2.25c11.94-12.01 26.77-28.64 29.73-45.75" fill="#010201"/><path d="M622.94 183.56h3.59c3.93.5 7.59 1.56 10.47 4.44.4 4.1.45 6.3-1.81 9.81-2.2 2.2-2.2 2.2-5.2 4.2q-1.09 3.46-2 7l-1 1c-6.6-.6-6.6-.6-9-3l-.3-2.89c-.88-3.99-2.42-4.8-5.7-7.12-2-3-2-3-1.93-5.94 2-6.5 6.58-7.6 12.88-7.5" fill="#666867"/><path d="M500 9c-2 5-2 5-3.05 7.19-1.2 3.56-1.24 6.88-1.23 10.59l-.02 2.35-.02 7.79-.03 5.59q-.04 7.58-.05 15.16l-.07 15.85q-.08 15.01-.12 30.02l-.14 34.17L495 208h-2a69 69 0 0 1-1.14-13.58l-.01-2.25-.01-7.43-.02-5.34-.02-14.5-.01-9.05-.03-28.36q0-16.36-.05-32.71-.03-12.65-.03-25.31 0-7.55-.03-15.1-.02-7.1-.01-14.21l-.01-5.2v-7.13l-.02-2.06c.06-5.59 1.17-11.17 4.87-15.5C498 9 498 9 500 9" fill="#EDEFEE"/><path d="M581.94 134.5A36 36 0 0 1 586 137l2.55 1.66c7.03 5.07 11.97 11.36 14.09 19.89 1.4 9.37.27 18.8-5.24 26.77A78 78 0 0 1 593 190l-1-4h2v-2h2v-3h2v-5h2v-20h-2l-1-5c-3.25 2.83-4.52 4.69-5 9h-2l-.18 1.86-.26 2.45-.24 2.43C589 169 589 169 588 172h-2l-.44 1.88C585 176 585 176 584 178h-2v2h-2v2h-4v2c-5.48 1.87-10.22 2.24-16 2v-2l2.6-.3c14.26-1.86 14.26-1.86 19.08-7.75 5.05-7.19 7.73-14.1 6.32-22.95-2.86-8.03-7.28-13.32-15-17-5.95-1.85-11.94-.99-18 0 5.46-5.46 20.05-4.32 26.94-1.5" fill="#EAC25E"/><path d="M758 19h2c1.11 3.34 1.13 5.84 1.13 9.36l.01 1.97.01 6.53.01 4.68.01 12.75v7.99l.02 27.95.02 25.91.03 35.62c.04 18.19-.02 36.16-2.24 54.24h-1z" fill="#F2F4F4"/><path d="M756 21h1v179h-2l.01-3.3a4904 4904 0 0 0-.3-70.8l-.36-29.91c-.76-60-.76-60 1.65-74.99" fill="#0C0E0D"/><path d="M616 662h20l-.14 5.74-.11 7.57-.1 3.77c-.1 9.31 1.12 17.07 6.35 24.92-2.6-.36-3.72-.66-5.41-2.71-4.53-8.3-6.47-16.82-5.59-26.29l1-2q.06-3 0-6v-2l-2.55.04-3.33.02-3.3.04C620 665 620 665 618 664l2 3c.16 2.45.16 2.45.06 5.25-.07 3.32.01 6.2.5 9.5 1.03 7.62-1.31 15.88-5.56 22.25l-4-1 1.38-2.06c3.04-5.51 3.87-10.73 3.82-16.97l-.02-3.89-.06-4.02-.02-4.09z" fill="#F1F3F1"/><path d="m687 661 1.98 1.14C705.83 671.58 720 674.26 739 675v1q-5.03.3-10.06.56l-2.86.17c-7.85.41-14.22-.1-21.52-3.29l-3.18-1.38L699 671a68 68 0 0 0 6.56 7.44c4.23 4.44 6.25 9.59 7.44 15.56-.13 3.37-.5 6.67-1 10l-4-1 .14-2.78c.26-8.93.07-14.73-6.13-21.34A50 50 0 0 0 687 669z" fill="#E6E8E6"/><path d="M695.38 136.46c8.38 4.92 12.45 10.84 16.62 19.54l1 2q.11 3.81.06 7.62v2.14L713 173h-1l-1-11h-1l-.44-3.32C709 155 709 155 708 152h-2v-4h-2v-2h-2l-1-4h-3v-2l-2.94-.94C692 138 692 138 691 137l-2 4-3.13-2c-6.03-3-12.3-2.88-18.87-2-5.94 2.12-10.6 6.77-14 12-1.88 4.9-2.46 9.8-3 15l-1-4-3 1c.16-7.2 3.5-12.5 8-18 12.2-10.77 26.44-13.8 41.38-6.54" fill="#D3BE7A"/><path d="M760 188h1l.12 8.62.06 2.45c.03 4.78-.47 8.41-2.18 12.93l-.45 3.03c-.62 3.32-1.75 5.61-3.43 8.53l-1.55 2.76L752 229l-1.57 2.7A27 27 0 0 1 745 238h-2l-.76 1.78c-3.38 6.07-10.15 9.99-16.1 13.24-2.29 1.52-3.65 2.64-5.14 4.98a59 59 0 0 0-.05 10.95L721 272l-2 2a38 38 0 0 1-1-18c2.78-3.56 6.19-5.64 10-8q2.43-1.84 4.81-3.75c2.25-1.75 4.49-3.47 6.81-5.13 9.13-8.16 13.23-17.95 16.55-29.46C757 207 757 207 758 206q.31-3.4.5-6.81c.45-7.71.45-7.71 1.5-11.19" fill="#E2E4E3"/><path d="m553 136 2 1-1.83 1.25c-5.34 3.86-9.58 7.17-11.17 13.75-.88 7.88-1.11 15.55 4 22 4.09 4.43 8.38 6.94 14 9v1h-6v-2h-4v-2h-2v-2h-2v-2h-2v-2h-4v6h2l-1 4c-5.6-6.37-5.69-14.83-5.43-22.92.64-8.6 4.93-15.06 11.18-20.77A33 33 0 0 1 553 136" fill="#DEC470"/><path d="M489 431h1l1.44 10 .41 2.83q1.16 8.08 2.15 16.17c-3.47-.46-6.67-.89-10-2-8.8-.7-16.23-.95-23.98 3.81A18 18 0 0 1 454 464c7.71-7.93 12.85-10.46 24-11 4.22.4 8.19 1.1 12 3l-.4-1.69c-1.94-8.36-3.14-14.93-.6-23.31" fill="#DCDEE0"/><path d="M851 686c4.69.54 9.26 1.24 13.89 2.16 14.57 2.72 29.35 2.12 44.11 1.84l-2 3c-2.81.12-2.81.12-6 0l-2.14.48c-3.96.72-7.84.66-11.86.64l-2.41.02A50 50 0 0 1 873 693q-2.46-.24-4.94-.44A42 42 0 0 1 857 690q-2.5-.55-5-1z" fill="#F2F4F3"/><path d="M647 160h2l3 11-2-1v-2h-2v4h2v8h2v4h2v2l2 1 1.75 2.44c2.59 2.95 4.49 3.62 8.25 4.56v2h6v2h16c-6.04 3.02-12.08 2.86-18.66 1.42a36 36 0 0 1-20.4-17.8 31.4 31.4 0 0 1-3.06-14.24l-.01-3.54C646 161 646 161 647 160" fill="#E5CF7F"/><path d="M755 358c3 1 3 1 4.12 3.06a47 47 0 0 1 1.59 9.02c.37 2.48 1.35 4.6 2.29 6.92v5l1 3.44c.96 3.43 1.08 6.03 1 9.56l.5 2.33c.53 2.85.52 5.31.38 8.19l-.15 3.1-.17 3.19-.16 3.26q-.18 3.96-.4 7.93h-1l-.2-2.74c-1.32-17.98-3.13-35.39-7.3-52.98-.68-3.08-1.11-6.15-1.5-9.28" fill="#EFF1EE"/><path d="m922 567 3.46 1.32c10.87 4.18 20.92 8.63 29.54 16.68l-3 1c-1.92-1.19-1.92-1.19-4.19-3-16.31-11.92-36.2-15.59-55.81-18v-1c10.49-2.15 20.11-1 30 3" fill="#DEDFE1"/><path d="M889 605v1c-5.82.8-11.57 1.24-17.44 1.5-5.54.24-11.03.61-16.55 1.26-3.43.41-6.86.68-10.3.98-2.54.24-5.06.59-7.59.95-3.55.42-5.91.07-9.12-1.69 4.46-2.47 8.61-2.7 13.62-3.12l2.96-.26c14.77-1.13 29.62-.79 44.42-.62" fill="#D9DBDC"/><path d="m452 463 3 2-2.69 2.81C439.67 482.75 440.42 503.53 440 522l-2-1c-3.92-18.56 1.01-39.29 11-55 1.75-1.92 1.75-1.92 3-3" fill="#E3E5E5"/><path d="M954 586c2.31.19 2.31.19 5 1 1.56 2.38 1.56 2.38 3 5l1.94 1.38c2.45 1.93 3.66 4.13 5.12 6.86.94 1.76.94 1.76 2.56 4.26 1.7 3.08 2.5 6.1 3.38 9.5l1.05 3.23c1.02 4.06 1.15 7.53 1.07 11.71l-.02 2.07-.1 4.99h-3l-.08-3.04c-.65-17.87-5.8-30.95-18.16-44.03C954 587 954 587 954 586" fill="#E6E8E8"/><path d="M766 616c-.56 3.55-1.69 4.97-4.44 7.25l-2.15 1.8L757 627l-2.75 2.23q-3.62 2.9-7.25 5.77l1.75 1.21 2.25 1.6 2.25 1.58L755 641v3l3 1-2 2-1.47-1.43c-4.64-4.31-8.47-6.73-14.53-8.57v-2c1.91-1.41 3.82-2.71 5.81-4a114 114 0 0 0 16.05-13.13C764 616 764 616 766 616" fill="#E5E7E5"/><path d="M494 208h2l.7 2.53c5.09 17.58 14.51 28.11 29.3 38.47-1.81.61-1.81.61-4 1a41 41 0 0 1-10-8l-2.69-2.56C507 237 507 237 506 234l-1.91-.94c-5.66-2.87-8.11-12.14-10.49-17.7-.71-2.79-.35-4.61.4-7.36" fill="#E2E4E5"/><path d="M812 502h3a59 59 0 0 1 .32 16.38c-.34 2.79-.55 5.57-.76 8.37A42 42 0 0 1 812 538a166 166 0 0 0-1 7l-3-2c.41-5.03.95-9.94 2-14.88 1.66-8.58 1.68-17.41 2-26.12" fill="#DFE2E1"/><path d="M760 390h1l.44 3.44C762 397 762 397 763 398q.14 3.26.13 6.53l.01 2.01-.01 4.23.01 6.38c0 7.33-.18 14.57-1.14 21.85-1.5-.98-1.5-.98-3-3a70 70 0 0 1-.07-8.32l.08-2.49q.13-3.94.3-7.88l.28-7.82.18-4.87q.28-7.31.23-14.62" fill="#222423"/><path d="M582.06 134.63c4.28 2.33 8.17 5.28 11.94 8.38l-3 1-1.25-1.44c-1.93-1.73-3.23-2.13-5.75-2.56v2h2c1.86 3.13 2.2 5.37 2 9a61 61 0 0 1-4.69-6.94 23 23 0 0 0-14.3-9.06 68 68 0 0 0-14 1c5.51-5.53 20.15-4.3 27.05-1.38" fill="#CBB880"/><path d="M541 184h3v2h2l.79 1.83c2.13 3.83 5.21 5.56 9.21 7.17 4.5.72 8.95.79 13.5.81l3.65.08q4.43.08 8.85.11v-2h4v-2l3 1-3.81 2.44-2.15 1.37c-6.77 3.95-16.48 3.06-24.04 2.19-7.76-2.38-13.39-7.41-18-14z" fill="#DBC067"/><path d="M490 391h1l1 10h-1v6h1l-.02 2.37-.04 10.57-.03 3.73-.01 3.54-.01 3.29c.11 2.5.11 2.5 1.11 3.5q.06 3 0 6c-3-2-3-2-3.68-5.15-.32-3.85-.45-7.64-.45-11.51l-.01-2.14.01-4.44-.01-6.76.01-4.34v-3.95c.13-3.67.54-7.09 1.13-10.71" fill="#1B1E1E"/><path d="M596 147c5.46 5.46 6.95 11.08 7.31 18.56-.13 9.72-3.5 17.63-10.31 24.44l-1-4h2v-2h2v-3h2v-5h2v-20h-2z" fill="#E1C56E"/><path d="m652 171 1.56 2.12c4.71 5.55 9.57 10.33 17.09 11.18 5.99.03 10.03-.54 15.35-3.3l5-2-1 3h-2l-2 4h-22v-2h-4v-2h-2v-2h-2v-2h-2v-2h-2zm43 1 1 4-5 3a56 56 0 0 1 4-7" fill="#D5BF75"/><path d="M490 658h1l.26 2.05c1.15 7.3 1.15 7.3 3.99 10.45 6.3 3.44 12.1 3.88 19.13 4.12l2.8.12 6.82.26v1l-5 1v1c-21.21-.81-21.21-.81-27.62-7.12-2.37-3.04-2.66-5.02-2.26-8.82q.38-2.05.88-4.06" fill="#DBDDDE"/><path d="M708 160h4c.81 18.25.81 18.25-4 25l-2 1v-4h2z" fill="#EDCF58"/><path d="M898 563v1c-13.68.23-27.34-.44-41-1 3.08-2.05 3.98-2.28 7.5-2.45l2.67-.13 2.83-.11 2.88-.12c8.63-.3 16.99-.49 25.12 2.81" fill="#F1F0F4"/><path d="m650 184 2.06 2.12L655 189l1.54 1.53c8.61 8.02 18.01 9.14 29.46 9.47-4.42 2.95-8.58 2.41-13.64 1.55q-2.58-.53-5.16-1.11C665 200 665 200 662 200v-2h-2v-2h-4v-4h-2v-2h-2v-2h-2z" fill="#171008"/><path d="m549 676 2 2-1.28 1.9-1.66 2.48-1.65 2.46c-2.55 3.9-2.72 7.22-2.97 11.78l-.13 2.15L543 704l-4-2c-.42-7.61.64-14.54 5-20.94l2-2.06 1.75-1.81z" fill="#DFDFE2"/><path d="M489 431h1l1.44 10 .41 2.83q1.16 8.08 2.15 16.17l-7-1 1.55-1.24c1.45-1.76 1.45-1.76 1.34-3.74l-.64-2.21-.63-2.41-.62-2.4c-1.23-5.88-.73-10.31 1-16" fill="#DBDDDE"/><path d="M881 606c10.38-.38 21.84-.75 31 5l1 3-1.62-.59c-8.81-3.07-16.77-4.73-26.13-4.19L883 609z" fill="#EAEDEE"/><path d="M711 176h1l1 8h-3v3h-2v5l-5 1-1 3h-4v2h-2v2h-3v-2l-2-1 1.98-.85c9.9-4.54 14.14-10.09 18.02-20.15" fill="#231506"/><path d="m588 163 2 3c-.88 3.19-.88 3.19-2 6h-2l-.44 1.88C585 176 585 176 584 178h-2v2h-2v2h-4v2c-5.49 1.87-10.22 2.24-16 2v-2l2.6-.3c14.26-1.86 14.26-1.86 19.08-7.75 2.89-4.11 5.06-8.04 6.32-12.95" fill="#DCC26C"/><path d="M691 178c-6.69 5.88-11.84 7.35-20.55 7.2C668 185 668 185 665 184l2-4 2 1c5.62.61 10.03-.13 15.2-2.33 2.32-.86 4.35-.9 6.8-.67" fill="#2B230C"/><path d="M689 134h9v2h4v4l5 1-1 3h4v2h2l-1 4h-3c-1.25-1.54-1.25-1.54-2.56-3.62-3.58-5.07-8.08-7.48-13.44-10.38z" fill="#1A1306"/><path d="m690 136 8 4v2h3v2h-3l.51 2.12.61 2.76.64 2.74.24 2.38-2 2-.73-2.05c-2.83-7.51-2.83-7.51-5.52-10.2-1.75-1.75-1.75-1.75-2-5z" fill="#E8C355"/><path d="m548 670-1 4c-10.33 3.23-20.25 4.86-31 3v-1l2.22-.34q4.98-.75 9.97-1.54l3.48-.52 3.37-.53 3.1-.48c3.37-.7 6.44-2.59 9.86-2.59" fill="#E3E6E4"/><path d="M872 641v1l-3.37.04c-9.71.26-18.23.69-25.56 7.85A77 77 0 0 0 839 655l-2-1c2.57-5.79 6.23-10.1 11.81-13.13 7.42-2.03 15.62-.64 23.19.13" fill="#DFDFE0"/><path d="m553 136 2 1-1.83 1.25c-5.31 3.84-9.71 7.15-11.17 13.75-.42 5.33-.23 10.66 0 16h-2v-12h-2l-1 4c-.87-5.54 1.27-9 4.14-13.52 3.18-4.24 7.09-8.09 11.86-10.48" fill="#D0BC8B"/><path d="M654 186c2 1 2 1 3.75 3.44 2.59 2.95 4.49 3.62 8.25 4.56v2h6v2h16c-6.05 3.02-12.17 2.92-18.73 1.35-5.94-2.15-11.2-5.45-15.27-10.35z" fill="#D6C06D"/><path d="m672 52 2 1c-2.21 3.04-3.57 4.75-7.35 5.41-2.97.07-5.89-.01-8.86-.14l-3.27-.09q-5.17-.15-10.33-.37l-7.02-.21A1969 1969 0 0 1 620 57v-1l1.8-.02q9.24-.1 18.49-.24l6.9-.09q4.96-.05 9.92-.14l3.12-.02 5.47-.09c2.77-.48 4.19-1.57 6.3-3.4" fill="#E8EAEA"/><path d="M698 140c5.11.89 7.09 3.94 10 8 5.58 8.06 5.57 15.52 5 25h-1l-1-11h-1l-.44-3.31C709 155 709 155 708 152h-2v-4h-2v-2h-2l-1-4h-3z" fill="#D2BA73"/><path d="M899 690h10l-2 3c-2.81.12-2.81.12-6 0l-2.12.49c-4.07.72-8.07.61-12.19.57l-2.54-.01L878 694l-1-2h22z" fill="#ECEFEC"/><path d="M760 188h1l.12 8.62.06 2.45c.03 4.76-.42 8.45-2.18 12.93q-.56 2.99-1 6l-3 1q.17-2.4.38-4.81l.21-2.71C756 209 756 209 758 206q.4-3.46.56-6.94c.39-7.61.39-7.61 1.44-11.06" fill="#EDF0EE"/><path d="m929 683 2 1c-2.86 3.57-5.4 4.64-9.85 5.55-2.15.45-2.15.45-4.24 1.08-4.67 1.42-7.45 1.38-11.91-.63v-1l1.66-.34q3.76-.75 7.53-1.54l2.62-.52c3.53-.73 6.82-1.45 10.18-2.8z" fill="#DDDFDF"/><path d="M496 646c1.24 3.71.71 6.19 0 10l-1 1q-.1 2.78-.06 5.56l.02 3.07.04 2.37h-3c-1.98-3.95-1.44-8.69-1-13 1.13-3.26 2.52-6.52 5-9" fill="#222324"/><path d="M617 676h1l.18 2.48.26 3.27.24 3.23c.32 3.02.32 3.02.94 5.13.51 2.51-.07 4.05-.93 6.45l-.8 2.32C617 701 617 701 615 704l-4-1 1.38-2.06c3.16-5.72 3.9-11.42 4.24-17.88l.12-2.07z" fill="#E2E4E5"/><path d="M754 159h1v41h2v9l-3-2c-.36-2.06-.36-2.06-.34-4.63v-2.91l.05-3.16.01-3.22.09-10.2.04-6.92q.06-8.48.15-16.96" fill="#1C1F1D"/><path d="m541 186 2.81 2.62c9.76 8.21 18.8 10.48 31.19 11.38v1c-8.26.35-15.24-.06-23-3v-2h-4v-2h-4a133 133 0 0 1-3-8" fill="#1E0F05"/><path d="M710 151h2v3h2c2.54 2.54 2.29 4.24 2.32 7.72l-.01 2.22.05 2.21c.01 5.37.01 5.37-1.88 7.85l-1.48 1-.15-3.47-.23-4.59-.09-2.28A51 51 0 0 0 710 151" fill="#17100A"/><path d="M761 439c2.67 4.63 3.41 8.42 2.06 13.62L762 456v4l-4 2 .94-8.12.26-2.31c.49-4.21 1.06-8.39 1.8-12.57" fill="#DFE1E0"/><path d="M487 407h1l1 28h-3l.06-3.81c.02-3.64-.26-7.14-.68-10.75-.52-4.99.09-8.68 1.62-13.44" fill="#EFF1F2"/><path d="M494 208h2l.77 2.6c1.79 5.96 3.6 11.75 6.23 17.4h-3c-7.67-12.43-7.67-12.43-6.57-18.27z" fill="#E0E1E2"/><path d="M634 677h1l.08 2.46c.46 8.95 1.88 16.98 6.92 24.54-1.83-.23-1.83-.23-4-1-1.45-1.89-1.45-1.89-2.69-4.25l-1.26-2.33A26 26 0 0 1 632 689l1-1q.34-2.77.56-5.56l.26-3.07z" fill="#E0E3E4"/><path d="M524 250c3.38.39 6.21 1.86 8.79 4.07 2.69 4.29 2.03 10.11 1.21 14.93-1.54 1.9-1.54 1.9-3 3q0-2.77.18-5.52c.37-7.79.37-7.79-2.56-11.48l-2.62-2z" fill="#E7E9EA"/><path d="M576 137c5.46 3.05 8.05 6.54 11 12l1.13 1.92c1.08 2.57 1.07 4.56.99 7.33l-.05 2.7L589 163h-1v-9h-2v-4h-2v-4h-4v-4h-2v-2h-2z" fill="#33240A"/><path d="m973 614 3 1a66 66 0 0 1 1.06 13.88l-.01 2.08L977 636h-3z" fill="#EDEEED"/><path d="M497 642h2a32 32 0 0 1-3.94 6.5c-3.15 4.56-3.92 10.17-5.06 15.5l-2-1c-.51-6.31-.18-9.92 4-15l1.31-1.7A84 84 0 0 1 497 642" fill="#EDEDEF"/><path d="M533 269c1.41 4.23-.3 7.1-1.88 11.06l-.85 2.22c-2.03 5.24-2.03 5.24-3.27 7.72l-3-1 .88-2.12q1.11-2.88 2.06-5.82A52 52 0 0 1 533 269" fill="#E9EAEA"/><path d="m848 561 3.62.46c6.47.72 12.95.89 19.44 1.1l3.78.13 9.16.31v1h-39l3-1z" fill="#D2D1D3"/><path d="M810 483c2 1 2 1 2.89 3.34 2.41 9.51 2.07 17.97 1.11 27.66h-1l-.17-1.77-.77-8.11-.26-2.78q-.87-9.17-1.8-18.34" fill="#F0F2F0"/><path d="M653 144h2l-.88 2.06A69 69 0 0 0 650 164l-1-4-3 1c.29-6.65 3-11.72 7-17" fill="#D4C68B"/><path d="M860 638c1.88-.33 1.88-.33 4-.25l2.12.05c1.88.2 1.88.2 3.88 1.2 2.28-.01 4.54-.13 6.81-.26 2.7.32 3.5 1.19 5.19 3.26-8.04.17-15.99-.35-24-1z" fill="#F2F3F6"/><path d="m776.13 456.81 3.75-.04c3.13.23 3.13.23 5.13 2.23-3.48 1.15-6.55 1.33-10.2 1.56l-3.85.25-2.96.2v-2l-3-1c3.7-1.18 7.25-1.18 11.13-1.2" fill="#212323"/><path d="M784 454v3l-3.04.18-4.02.26-3.98.24c-3.7.3-7.29.75-10.96 1.32v-2c7.31-3.51 13.99-3.3 22-3" fill="#ECEEEF"/><path d="M596 147c5.75 5.75 7.04 11.45 7.06 19.31q-.01 2.35-.06 4.69l-2 1-1-16h-2z" fill="#CDB56F"/><path d="m675.19 133.94 3.86.03 2.95.03 1 3-3.22-.17c-8.22-.32-14.31-.55-20.78 5.17l-2.5 1.82L655 145v-3c2.08-1.8 2.08-1.8 4.8-3.62l2.72-1.85c4.32-2.66 7.68-2.64 12.67-2.6" fill="#A39B77"/><path d="M709 687c2 1 2 1 3.19 3.44 1.07 4.71.5 8.82-.19 13.56l-4-1-.06-7.44-.03-2.14q0-2.71.09-5.42z" fill="#D9DCDA"/><path d="M590 194v2h-2v2h-4v2c-6.89 1.02-13.1.84-20 0v-1l2.75-.08c6.83-.32 12.41-.82 18.48-4.08C587 194 587 194 590 194" fill="#37280E"/><path d="M574 178h6c-6.35 5.61-11.83 6.33-20 6l4-2v-2h10z" fill="#372C18"/><path d="m601 151 3 2c.69 3.62.69 3.62 1 7h1v8h-2v5h-1l-.4-3.58-.54-4.67-.26-2.36-.26-2.28-.24-2.1c-.3-2.01-.3-2.01-.9-4.2L600 152z" fill="#140C06"/><path d="M759 658h1c1.46 7.07 1.46 7.07-.69 11.38-2.12 2.4-3.3 3.65-6.31 4.62h-3v-2h4a29 29 0 0 0 3.06-8.69c.84-4.21.84-4.21 1.94-5.31" fill="#1B1E1A"/><path d="M698 156h1c.59 7.28-.51 13.04-5 19-2.17.78-2.17.78-4 1v-4h2v-2h2v-2h2v-4h2z" fill="#3C3114"/><path d="m544 136 2 1-1 2 1.81-1.56L549 136l3 1-1.79 1.47c-5.17 4.38-9.04 8.53-12.21 14.53l-2-4 7-7q.6-2.99 1-6" fill="#110F09"/><path d="M717.66 673.7c4.1.52 8.22.67 12.34.87l2.64.13 6.36.3v1q-5.03.3-10.06.57-1.41.07-2.86.17c-5.18.27-10.01.4-15.08-.74l-1-2c2.7-1.35 4.75-.7 7.66-.3" fill="#D3D5D3"/><path d="M439 497h1v25l-2-1c-1.25-5.51-.83-10.39-.06-15.94l.3-2.36z" fill="#EDEFEF"/><path d="m763 395 3 1-1 27h-1a281 281 0 0 1-1-28" fill="#F4F6F5"/><path d="m695 172 1 4-5 3a56 56 0 0 1 4-7m-6 7 2 1-1 2h-2l-2 4-7-1 1.62-.75A87 87 0 0 0 689 179" fill="#D0B767"/><path d="m762 665 2 2c-9.06 9.32-9.06 9.32-15 10v-2l-2-1 3.75-.75c3.81-.95 5.72-2.16 8.25-5.25z" fill="#E8EBE8"/><path d="M734 245v3a104 104 0 0 1-6 4l-2.69 2.25C723 256 723 256 720 256c1.25-3.75 2.65-4.43 5.88-6.62l2.67-1.86C731 246 731 246 734 245" fill="#E8EBE6"/><path d="M541 184h3v2h2l.77 1.84c2.96 5.2 9.7 7.64 15.23 9.16v1c-7.26-.31-12.59-3.57-17.68-8.7-3.32-3.88-3.32-3.88-3.32-5.3" fill="#D7BE72"/><path d="M644 160h1q.33 4.35.62 8.69l.2 2.47c.29 4.47.35 7.77-1.82 11.84l-2-1q-.06-2.5 0-5l1-1q.36-4.02.56-8.06l.13-2.3z" fill="#19140B"/><path d="m696 192 3 1c-2.39 2.77-4.47 4-8 5-3.01.16-5.99.12-9 0v-2h8v-2h6z" fill="#EACF64"/><path d="M648 168h2c2.15 3.23 2.2 4.28 2 8h2v8h-2v-4h-2v-8h-2z" fill="#F1CF63"/><path d="M689 38c-1.54 3.78-3.86 5.98-6.88 8.69l-2.61 2.38c-2.32 1.79-3.66 2.54-6.51 2.93 11.43-14 11.43-14 16-14" fill="#E0E0E2"/><path d="M810 528a24 24 0 0 1 3 9l-1 3a276 276 0 0 0-1 5l-3-2c.96-10.56.96-10.56 2-15" fill="#D2D4D2"/><path d="m482.69 453.75 2.89.48C488 455 488 455 490 458q-9.5-.93-19-2l1-2c3.78-1.15 6.83-.94 10.69-.25" fill="#EDEFF1"/><path d="M824 564c2.19-.44 2.19-.44 4-1l1 3c-3.31 1-6.3 1.1-9.75 1.06l-2.98-.02L814 567c2-3 2-3 4.44-3.75C821 563 821 563 824 564" fill="#EEEEF0"/><path d="m550 178 2 .44c2.35.44 4.63.75 7 1 3.27.38 6 1.15 9 2.56v1c-7.29.47-11.97.29-18-4z" fill="#271C0A"/><path d="M889 641v1l10 1v1c-16.89.18-16.89.18-24-1v-1q2.37-.55 4.75-1.06l2.67-.6a13 13 0 0 1 6.58.66" fill="#B6B8B8"/><path d="m656 137 4 2-2.75 2.12c-3.17 2.63-5.13 5.37-7.25 8.88-1-3-1-3 0-6h2l.31-1.94.69-2.06 3-1z" fill="#201F10"/><path d="M825.19 608.94a273 273 0 0 1 5.8.06c-1.3 1.49-1.3 1.49-3 3-2.92.13-2.92.13-6 0-2.36.5-2.36.5-4 1v-2l-2-1c3.3-1.1 5.75-1.1 9.2-1.06" fill="#EDEDEF"/><path d="m919 634 4 2c-7.29 4.43-7.29 4.43-12 5 .69-1.88.69-1.88 2-4 2.56-1.19 2.56-1.19 5-2z" fill="#EEECF0"/><path d="m650 184 2.06 2.12a122 122 0 0 0 8.58 7.65L662 195v1h-6v-4h-2v-2h-2v-2h-2z" fill="#25190B"/><path d="m553 136 2 1-1.83 1.29c-5.17 3.79-8.44 6.89-11.17 12.71l-2-1c1.36-4.22 3.14-6.39 6.5-9.25l2.41-2.08C551 137 551 137 553 136" fill="#AEAA99"/><path d="M534 258h1l1 6h1c.37 7.38.37 7.38-1.5 10.5L534 276c-1.3-3.82-.89-7.28-.56-11.25l.31-3.83z" fill="#2E3030"/><path d="M753 7c3.32 2.81 4.85 4.41 5.94 8.69L759 19l-2 2-.88-3.31C755 14 755 14 753 11z" fill="#E7E7E8"/><path d="M919 687v3c-5.51 1.71-8.53 2.46-14 0v-1l5.31-1 2.99-.56c2.7-.44 2.7-.44 5.7-.44" fill="#D5D7D6"/><path d="m588 163 2 3c-.88 3.19-.88 3.19-2 6h-2l-.44 1.88C585 176 585 176 584 178h-3q1.5-3.03 3.04-6.04l1.02-2.02 1.04-2.04c.9-1.9.9-1.9 1.9-4.9" fill="#CAB76D"/><path d="M689 134h9v2h4v2h-2l-1 2-10-5z" fill="#2A1F0C"/><path d="M704 677c3.39 3.13 5.61 5.57 7 10l-3 1q-1.3-1.9-2.56-3.81l-1.44-2.15c-1-2.04-1-2.04 0-5.04" fill="#EBEEEB"/><path d="m533 675-1 2c-5.65 1.09-10.34.91-16 0v-1c5.72-.83 11.22-1.12 17-1" fill="#EBEDED"/><path d="m491 655 1 4h2l1 9h-3c-1.32-2.64-1.1-4.68-1.06-7.62l.02-3.04z" fill="#292B2D"/><path d="M562 134c4.82-.19 8.5.24 13 2v2h-9l-1-2z" fill="#2E2311"/><path d="m852 640 20 1v1l-21 1z" fill="#D6D8DB"/><path d="M699 154h1q.07 3.9.12 7.81l.06 2.24c.03 3.86.01 5.66-2.18 8.95h-2a60 60 0 0 1 2-8q.33-2.84.56-5.69l.26-3.01z" fill="#EACD7A"/><path d="m690 141 4 1v2h2v2h2q.58 1.93 1.12 3.88l.64 2.17.24 1.95-2 2-.73-2.01c-1.88-4.95-3.6-9.06-7.27-12.99" fill="#D2B263"/><path d="M836 654h2l-.4 1.76c-1 4.4-1.91 8.78-2.6 13.24h-1c-1.1-5.94-1.41-9.68 2-15" fill="#EEEEF0"/><path d="M851 606h18v1q-3.37.58-6.75 1.12l-3.8.64c-3.38.24-4.71.11-7.45-1.76z" fill="#F1F3F4"/><path d="m907 563 2 2c-5.93.97-11.06.89-17 0v-1c4.91-1.01 9.99-1.59 15-1" fill="#D9DADB"/><path d="m513.26 674.8 3.87.07 3.88.05 2.99.08v1l-5 1v1l-11-1c2-2 2-2 5.26-2.2" fill="#DBDCDC"/><path d="m799 612 1 2c-3.33 1.76-4.59 2.11-8.31 1.12L789 614c3.4-2.09 6.05-2.18 10-2" fill="#E0E1E1"/><path d="m452 463 3 2-7 8c-1-4-1-4 0-5.7z" fill="#EBEDEC"/><path d="M754 217a15 15 0 0 1 2 4c-.68 2.14-.68 2.14-1.88 4.25l-1.17 2.14L752 229l-3-1 .84-1.64 1.1-2.17 1.09-2.15C753 220 753 220 754 217" fill="#D7DADA"/><path d="M580 134h10v2l2 1c-3.89 1.02-5.61 1.17-9.38-.44L580 135z" fill="#1E1508"/><path d="m740 0 1 2c-9.41 2.3-9.41 2.3-14 2 3.53-4.27 7.75-4.15 13-4" fill="#F1F2F3"/><path d="M761 373c2.09 3.4 2.18 6.05 2 10l-3 1a220 220 0 0 1-.62-4.38l-.36-2.46L759 375z" fill="#E5E8E4"/><path d="M497 218h2l4 10h-3c-3.22-5.18-3.22-5.18-4-7z" fill="#D8DADC"/><path d="M584 166h2c-.26 4.46-.58 6.52-3.56 9.94L580 178l-1-2 1-2h2l.44-2.31C583 169 583 169 584 166" fill="#251C0A"/><path d="M710 151h2v3h2v16h-1l-.15-2.38c-.41-5.81-.97-11.1-2.85-16.62" fill="#2A1A03"/><path d="M918 566v2q-2.72-.17-5.44-.38l-3.06-.21-2.5-.41-1-2c4.72-.92 7.67-1.23 12 1" fill="#E5E7E8"/><path d="M753 355c2.21 3.8 3.01 7.76 4 12-1.94-.56-1.94-.56-4-2-.91-3.86-1.26-6.22 0-10" fill="#30332F"/><path d="M711 176h1l1 8h-3v3l-4-1 3.03-5.18C710 179 710 179 711 176" fill="#321"/><path d="M647 164c1.43 2.35 2.09 3.48 1.62 6.25L648 172h2v4l-3 1c-1.02-4.63-.84-8.34 0-13" fill="#E3CB72"/><path d="m703 158 1 2h2v2h-2v2l-4 2c-.19-2.88-.19-2.88 0-6z" fill="#F6CC60"/><path d="M688 139v1h-8v-2h-6v-1c5.13-1.82 9.18.14 14 2" fill="#261B0B"/><path d="M575 133c1.95.24 1.95.24 4.12.88l2.2.61 1.68.51-5 4-5-4z" fill="#C5B272"/><path d="M635 690c2 3 3.04 5.69 4.22 9.06C640 701 640 701 642 704c-1.88-.31-1.88-.31-4-1-2.11-3.16-2.34-4.51-2.62-8.19l-.23-2.73z" fill="#D6D8D9"/><path d="m497 673 13 2c-2 2-2 2-4.09 2.01l-2.41-.32-2.41-.3C499 676 499 676 497 675z" fill="#E9EBED"/><path d="M533 259h1q.12 2.4.19 4.81l.1 2.71c-.34 2.9-1.04 3.71-3.29 5.48 0-2.6.16-5.05.44-7.62l.24-2.42C532 260 532 260 533 259" fill="#EDEFF0"/><path d="m554 137 2 1-1.44 1.31C553 141 553 141 552 144l-5-1c4.75-4.88 4.75-4.88 7-6" fill="#110E0B"/><path d="m506 2 4 2-5.18 2.93A98 98 0 0 0 500 10c0-3 0-3 1.31-4.39z" fill="#D8DCD8"/><path d="M756 209h2c1.23 5.42 1.23 5.42.06 8.38L757 219h-2z" fill="#E2E4E5"/><path d="M653 144h2l-.88 2.06A108 108 0 0 0 651 156l-3-2a44 44 0 0 1 5-10" fill="#BEB998"/><path d="m751 624 3 1c-2.31 2.5-2.31 2.5-5 5h-3c1.13-3.4 1.97-4.22 5-6" fill="#232624"/><path d="M454 574c3 1 3 1 4.19 2.88.81 2.12.81 2.12.81 5.12-3-1-3-1-4.69-4.06L453 575z" fill="#EAECEA"/><path d="m444 545 2 1c.75 3.44.75 3.44 1 7l-2 2-3-8z" fill="#E7E7E9"/><path d="M759 451c3 3 3 3 3.19 6.19L762 460l-4 2z" fill="#CBCECC"/><path d="M708 176h3c-.43 4.75-1.33 6.92-5 10v-4h2z" fill="#E1C570"/><path d="m592 144 4 1v7l-2 1z" fill="#DEBE57"/><path d="m758 667 2 1c-3.17 3.54-5.17 5.59-10 6v-2h4l1-3h3z" fill="#292C29"/><path d="M492 452h1l1 8-7-1 3-2c1.19-2.62 1.19-2.62 2-5" fill="#C8CACB"/><path d="M519 301c.69 1.69.69 1.69 1 4-1.25 2.69-1.25 2.69-3 5l-3 1c.61-3.99 2.71-6.74 5-10" fill="#EEF0F1"/><path d="m541 152 3 1-.44 2.56q-.84 5.21-1.56 10.44h-1z" fill="#30220D"/><path d="M749 640h5l.31 1.94.69 2.06 3 1-2 2-3.5-2.94-1.97-1.65L749 641z" fill="#D7D7D9"/><path d="M490 391h1q.37 2.37.69 4.75l.38 2.67C492 401 492 401 489 405z" fill="#404445"/><path d="M750 346c2.13 3.19 2.5 5.27 3 9l-2 1v-3h-2z" fill="#222522"/><path d="m601 151 3 2c.19 3.62.19 3.62 0 7l-2 1-1.66-6.93L600 152z" fill="#1F1707"/><path d="M584 140c2.38.31 2.38.31 5 1l2 3h-3l-1 2-1-4h-2z" fill="#E2C354"/><path d="M809 518h1l1 10-1-2h-2q-.06-3.5 0-7z" fill="#1E2120"/><path d="M498 348c2 4 2 4 1.12 7.75L498 359l-2-1z" fill="#E0E2E1"/><path d="m732 301 5 5-1 2-3-1c-1.19-2.56-1.19-2.56-2-5z" fill="#DEE3E2"/><path d="m696 192 3 1c-2.05 2.25-3.01 3-6 4l-3-1v-2h6z" fill="#E1C565"/><path d="m755 672 1 3-7 2v-2l-2-1z" fill="#DEE1DE"/><path d="m691 198 1 3c-1.75.69-1.75.69-4 1-2.25-1.44-2.25-1.44-4-3 2.49-.69 4.38-1 7-1" fill="#312613"/><path d="M698 195v3h-2v2h-3v-2l-2-1c4.75-2 4.75-2 7-2" fill="#2E1E0E"/><path d="M599 180c.75 1.62.75 1.62 1 4-1.94 3.25-1.94 3.25-4 6l-3-1 3.81-4.39C598 183 598 183 599 180" fill="#302009"/><path d="M558 135h10a28 28 0 0 1-10 3z" fill="#150F06"/><path d="m935.19 681.75 2.8.25c-1.96 2.52-2.95 2.99-6.18 3.69L929 686c1.83-3.24 2.36-3.95 6.19-4.25" fill="#EEEFEE"/><path d="m698 672 6 5-2 2-6-5z" fill="#D5D8D3"/><path d="m543 671-2 2c-2.16-.02-2.16-.02-4.62-.38l-2.48-.33-1.9-.29c4.18-2.79 6.15-1.8 11-1" fill="#222322"/><path d="M766 616h8l-1 3-7-1z" fill="#F2F6F2"/><path d="M918 567c3.12.38 3.12.38 6 1l1 3-9-2z" fill="#D3D4D6"/><path d="M882 564h10v1c-7.43 2.43-7.43 2.43-11 1z" fill="#1A1B1D"/><path d="m816 564 6 1v2h-8z" fill="#F5F5F7"/><path d="M805 551c3 3.75 3 3.75 3 6l-5 2z" fill="#D6D6D9"/><path d="m515 310 2 1-4 8h-1c.75-6.75.75-6.75 3-9" fill="#DFE1E2"/><path d="M533 269c1.26 3.77.37 5.37-1 9l-2-1c.55-3.37 1.05-5.08 3-8" fill="#CFD1D0"/><path d="m738 240 2 3-4 3-2-2zm-6 5 2 1Z" fill="#DFE2E0"/><path d="M542 166h4v5h-3z" fill="#2C210B"/><path d="m693 35 4 1-4 4-3-1z" fill="#202224"/><path d="m973 634 2 2c-.38 3.62-.38 3.62-1 7h-2z" fill="#DADBDA"/><path d="M443 538c1.43 2.35 2.09 3.48 1.62 6.25L444 546l-3-4z" fill="#D9DBDC"/><path d="M763 436c2 3 2 3 1.62 5.69L764 444l-2-1q-.06-3 0-6z" fill="#F3F5F4"/><path d="M492 384c2 2 2 2 2.12 4.62L494 391l-3-1q-.06-2.5 0-5z" fill="#1C1F20"/><path d="m735 307 3 1a41 41 0 0 1 2 6c-1.94-.69-1.94-.69-4-2-.75-2.62-.75-2.62-1-5" fill="#EDF0EE"/><path d="M579 136h6l-1 3 2 1c-2.38-.31-2.38-.31-5-1z" fill="#D5B860"/><path d="M680 46c-1.15 2.47-2.05 4.05-4 6l-3-1c4.75-5 4.75-5 7-5" fill="#D6D8D9"/><path d="M561 35c5.75 1.62 5.75 1.62 8 5l-3 1z" fill="#E8EBE8"/></svg>