<svg style="background:transparent" version="1.1" xmlns="http://www.w3.org/2000/svg" viewBox="0 0 1248 704"><path d="m997.38 89.81 3.7-.04a99 99 0 0 1 32.35 5.04l2.45.8c11.03 3.61 21.78 7.45 31.55 13.82 3.04 1.97 6.05 3.87 9.25 5.57 4.23 2.55 7.67 5.68 11.31 9l4.08 3.5q4.78 4.2 9.2 8.82a25 25 0 0 0 4.2 3.45c5.59 4.91 9.01 13.24 9.96 20.56-.29 7.12-2.64 12.42-7.44 17.67-7.05 5.73-13.58 6.46-22.38 5.66-8.8-1.6-15.23-6.75-21.53-12.83-2.09-1.83-2.09-1.83-4.84-3.45L1057 166v-2l-1.72-.82a60 60 0 0 1-6.51-4.06 80 80 0 0 0-10.67-6.12 99 99 0 0 1-4.46-2.29c-5.86-3.13-11.12-4.66-17.64-5.7l-4.8-1.14a56 56 0 0 0-23.2.13l-2.52.43-2.54.44-2.52.43c-2.71.8-4.21 1.96-6.41 3.7q-2.41 1.23-4.87 2.37C963.1 154.32 959 157.58 955 163h-2l-.8 1.7a68 68 0 0 1-4.37 7c-4.7 7.32-7.86 15.2-11.15 23.23l-2.78 6.72-1.72 4.15c-1.28 3.12-2.61 6.2-4.18 9.2l-.98 1.93c-3.08 5.83-6.81 10.96-10.84 16.17-2.18 2.9-2.18 2.9-4.24 6.07a24 24 0 0 1-5.57 5.95A15.5 15.5 0 0 0 901 252h-2l-2.07 2.62c-3.28 4.13-7.5 6.61-11.93 9.38l-3.25 2.2c-7.3 4.8-7.3 4.8-11.75 5.8a126 126 0 0 0 6.43 13.37A161 161 0 0 1 884 301l1.1 2.43c3 6.98 4.43 14.14 5.9 21.57q.26.95.51 1.95c.75 3.13 1.09 6.3 1.49 9.48.9 7.11.9 7.11 1.57 10.22.47 2.57.5 4.92.42 7.54-.1 4.6-.1 4.6 1 6.81q.15 3.78.13 7.56l.01 2.12c0 5.2 0 5.2-1.13 6.32-.07 3.6-.02 7.17.03 10.77.07 5.81-.37 11.46-1.03 17.23l-.47 4.76-.22 2.41q-.53 5.46-1.03 10.9l-.56 5.9c-1.05 10.78-1.98 21.42-1.7 32.26C890 464 890 464 889 467q-.14 4.04-.13 8.07v22.34c.02 7.06.69 14 2.13 20.9l.5 2.43q.71 3.14 1.5 6.26.72 3.24 1.4 6.5.7 2.92 1.58 5.8c1.05 3.81 1.8 7.62 2.45 11.51l.39 2.21.78 4.63q.6 3.5 1.23 7a214 214 0 0 1 3.16 26.35l.14 2.15c.87 13.96.98 27.92 1 41.91v12.75c0 4.17-.31 8.1-1.13 12.2q5.3 1.8 10.67 3.35a426 426 0 0 0 7.82 2.25c7.25 2.13 15.2 4.76 20.5 10.4 1.26 3.3 1.26 3.3 1 7-3.73 6.48-10.78 9.35-17.67 11.38a262 262 0 0 1-47.33 7.61l-2.25.17c-21.64 1.56-43.4.9-65.06.14l-3.52-.12c-30.32-1.05-60.62-2.67-90.92-4.26-32.53-1.7-64.99-3.15-97.56-3.12h-3.64c-35.83.05-71.5 1.7-107.22 4.12l-3.53.25q-5.15.35-10.28.72l-3.25.23c-5.75.43-11.48.93-17.2 1.62-25.43 2.98-50.89 2.64-76.45 2.55q-9.8-.03-19.6-.02-16.37 0-32.75-.06l-33.68-.06h-12.61q-43.23-.06-86.48-.16c-1.52-3.07-1.1-6.27-1.06-9.63l.03-2.14.03-5.23-2.95 1.5q-1.91.97-3.86 1.93l-1.94 1a45.8 45.8 0 0 1-34.3 2.63c-7.95-3.08-14.16-7.45-18.44-14.94-3-7.19-3.14-13.2-.68-20.62 3.67-8.65 10.35-16.14 19.11-19.9 5.32-1.56 10.7-1.68 16.2-1.4 8.96-.45 16.57-6.86 22.7-13.05 2.16-2.15 2.16-2.15 5.13-4.62 5.3-4.5 10.16-9.47 15.08-14.39l5.16-5.1q1.63-1.65 3.29-3.3l1.53-1.52A41 41 0 0 0 245 586q2.49-2.54 5-5 3.83-4.3 7.43-8.78 1.75-2.16 3.57-4.22h2q.32-1.01.63-2.07A32 32 0 0 1 271 556h2l.75-2.15c1.41-3.22 3.2-5.73 5.32-8.54 3.85-5.16 3.85-5.16 4.93-7.3q-1.32-.42-2.68-.82c-16-5.74-29.35-19.74-36.56-34.79-2-4.74-3.33-9.42-4.34-14.45C240 486 240 486 239 483.5a39 39 0 0 1-1.93-6.75 74 74 0 0 0-2.64-9.38A56 56 0 0 1 232 456q-.47-1.64-1-3.3a60 60 0 0 1-1.75-11.57C229 439 229 439 228 437q-.24-2.09-.42-4.19c-.53-4.97-1.82-9.47-3.33-14.22A87 87 0 0 1 221 404q-.47-1.64-1-3.3a61 61 0 0 1-1.75-11.37A38 38 0 0 0 217 383c-4.8-28.83-4.8-28.83 1.88-40.19 2.75-3.63 4.83-5.38 9.13-6.8 14.37-1.2 28.75 6.57 41.13 13.18 3.52 1.8 7 2.68 10.88 3.41 1.99.4 1.99.4 4.99 1.4a107 107 0 0 0 5.17-2.17c3.7-1.68 7.56-2.76 11.45-3.83 3.38-1 3.38-1 5.38-2.07 2.9-1.35 5.84-1.5 9-1.93l4.85-1.47c3.92-.97 7.95-1.43 11.97-1.97 3.18-.56 3.18-.56 6.27-1.63 2.9-.93 2.9-.93 5.54-.88 3.03-.07 4.12-1 6.44-2.93 2.03-1.66 3.78-3.05 6.15-4.19L359 330q.56-2 1-4l3-1q.56-2 1-4c1.35-1.85 1.35-1.85 2.94-3.63l1.6-1.79q1.7-1.82 3.47-3.58l2.5-3.13 2.5-2.87h2l.76-1.83c2.56-4.49 7.58-6.67 12.37-8.1 4.9-.12 7.83 1 11.5 4.24l2.37 2.7 2.13 2.36c2.17 3.06 3.48 6.15 4.87 9.63l1.07 2a41 41 0 0 1 2.3 6.9 122 122 0 0 0 2.56 7.41 211 211 0 0 1 5.06 15.7l.83 2.81A93 93 0 0 1 428 365a338 338 0 0 0 27.13-12l2.02-1a249 249 0 0 0 12.85-7 183 183 0 0 1 6.1-3.07l3.88-1.89a88 88 0 0 0 6.27-3.67 178 178 0 0 1 16.13-8.48A48 48 0 0 0 513 321c4.49-2.76 9.04-4.97 13.87-7.07 3.67-1.6 7.2-3.37 10.63-5.43 2.76-1.66 5.62-3.06 8.5-4.5q3.69-1.95 7.38-3.94 8.97-4.8 18.1-9.27a89 89 0 0 0 10.77-5.98c2.9-1.9 5.48-2.72 8.75-3.8 4.2-2.16 8.25-4.57 12.32-6.94a221 221 0 0 1 11.17-5.88l2.1-1.05q8.03-3.96 16.17-7.7a378 378 0 0 0 17.73-8.75 73 73 0 0 1 14.92-5.87c3.86-1.22 7.43-2.97 11.04-4.74A33 33 0 0 1 684 238q1.97-.58 3.88-1.25l2.33-.79 6.43-2.24c6.47-2.23 12.52-4.1 19.37-4.72l2.93-1c3.35-1.09 6.44-1.46 9.93-1.76A43 43 0 0 0 735 225c10.76-1.63 21.64-2.09 32.5-2.13h2.25c4.51 0 8.8.42 13.25 1.13q2.36.2 4.7.37c5 .48 9.7 1.65 14.56 2.94 2.75.7 2.75.7 6.43 1.2 3.59.53 6.7 1.6 10.1 2.8 3.04.94 6.08 1.31 9.22 1.7q1.5.48 3 1c1.87-.68 1.87-.68 3.88-1.76l2.13-1.14q3.54-1.99 6.99-4.1c6.66-4 6.66-4 9-4l.75-1.8c1.43-2.55 2.9-3.75 5.25-5.46l2.13-1.58C863 213 863 213 865 213l.78-1.76a29 29 0 0 1 4.6-6.12c4.46-4.99 7.65-10.13 10.62-16.12q.84-1.69 1.73-3.42 5.7-11.32 11.14-22.77l1.15-2.43c1.47-3.08 2.88-6.14 4.14-9.3.97-2.38 2.3-4.05 3.84-6.08l1.26-2.69c2-3.82 4.38-7 7.06-10.38l1.38-1.8A62 62 0 0 1 923 120l2.07-2.63c2.13-2.63 4-3.67 6.92-5.37l4.81-3.1a514 514 0 0 1 18.58-11.59 25 25 0 0 1 7.62-2.3c.96-.34 1.9-.67 2.9-1a56 56 0 0 1 9.86-2.08c15.36-2.12 15.36-2.12 21.62-2.12" fill="#111411"/><path d="m997.38 89.81 3.7-.04a99 99 0 0 1 32.35 5.04l2.45.8c11.03 3.61 21.78 7.45 31.55 13.82 3.04 1.97 6.05 3.87 9.25 5.57 4.23 2.55 7.67 5.68 11.31 9l4.08 3.5q4.78 4.2 9.2 8.82a25 25 0 0 0 4.2 3.45c5.59 4.91 9.01 13.24 9.96 20.56-.29 7.12-2.64 12.42-7.44 17.67-7.05 5.73-13.58 6.46-22.38 5.66-8.8-1.6-15.23-6.75-21.53-12.83-2.09-1.83-2.09-1.83-4.84-3.45L1057 166v-2l-1.72-.82a60 60 0 0 1-6.51-4.06 80 80 0 0 0-10.67-6.12 99 99 0 0 1-4.46-2.29c-5.86-3.13-11.12-4.66-17.64-5.7l-4.8-1.14a56 56 0 0 0-23.2.13l-2.52.43-2.54.44-2.52.43c-2.71.8-4.21 1.96-6.41 3.7q-2.41 1.23-4.87 2.37C963.1 154.32 959 157.58 955 163h-2l-.8 1.7a68 68 0 0 1-4.37 7c-4.7 7.32-7.86 15.2-11.15 23.23l-2.78 6.72-1.72 4.15c-1.28 3.12-2.61 6.2-4.18 9.2l-.98 1.93c-3.08 5.83-6.81 10.96-10.84 16.17-2.18 2.9-2.18 2.9-4.24 6.07a24 24 0 0 1-5.57 5.95A15.5 15.5 0 0 0 901 252h-2l-2.07 2.62c-3.28 4.13-7.5 6.61-11.93 9.38l-3.25 2.2c-7.3 4.8-7.3 4.8-11.75 5.8a126 126 0 0 0 6.43 13.37A161 161 0 0 1 884 301l1.1 2.43c3 6.98 4.43 14.14 5.9 21.57q.26.95.51 1.95c.75 3.13 1.09 6.3 1.49 9.48.9 7.11.9 7.11 1.57 10.22.47 2.57.5 4.92.42 7.54-.1 4.6-.1 4.6 1 6.81q.15 3.78.13 7.56l.01 2.12c0 5.2 0 5.2-1.13 6.32-.07 3.6-.02 7.17.03 10.77.07 5.81-.37 11.46-1.03 17.23l-.47 4.76-.22 2.41q-.53 5.46-1.03 10.9l-.56 5.9c-1.05 10.78-1.98 21.42-1.7 32.26C890 464 890 464 889 467q-.14 4.04-.13 8.07v22.34c.02 7.06.69 14 2.13 20.9l.5 2.43q.71 3.14 1.5 6.26.72 3.24 1.4 6.5.7 2.92 1.58 5.8c1.05 3.81 1.8 7.62 2.45 11.51l.39 2.21.78 4.63q.6 3.5 1.23 7a214 214 0 0 1 3.16 26.35l.14 2.15c.87 13.96.98 27.92 1 41.91v12.75c0 4.17-.31 8.1-1.13 12.2q5.3 1.8 10.67 3.35a426 426 0 0 0 7.82 2.25c7.25 2.13 15.2 4.76 20.5 10.4 1.26 3.3 1.26 3.3 1 7-3.73 6.48-10.78 9.35-17.67 11.38a262 262 0 0 1-47.33 7.61l-2.25.17c-21.64 1.56-43.4.9-65.06.14l-3.52-.12c-30.32-1.05-60.62-2.67-90.92-4.26-32.53-1.7-64.99-3.15-97.56-3.12h-3.64c-35.83.05-71.5 1.7-107.22 4.12l-3.53.25c-21.18 1.46-21.18 1.46-31.38 2.57-19.73 2.13-39.21 2.66-59.05 2.55q-6.3-.03-12.6-.02-11.85-.01-23.7-.07l-27.06-.06q-27.75-.05-55.5-.15a83 83 0 0 1 11.16-7.69l3.62-2.1 1.9-1.09A643 643 0 0 0 339.5 677c7.87-5.07 15.91-9.8 24-14.5a820 820 0 0 0 31.22-19.04q3.52-2.25 7.06-4.47a1603 1603 0 0 0 36.35-23.68l2.44-1.63 6.94-4.63 2.1-1.4c2.6-1.74 5.13-3.45 7.56-5.39 2.17-1.5 3.94-1.97 6.5-2.5l2.73-.6 2.92-.6 6.03-1.32 2.95-.65C538.96 583.24 597.17 550.95 651 521l5.32-2.96 16.15-8.99 2.94-1.64 2.59-1.4 2.15-1.2c1.85-.8 1.85-.8 4.85-.8l1 3.41c10.59 35.42 27.8 65.03 55.7 89.55 9.4 8.3 19.08 18.15 21.3 31.03a94 94 0 0 1 0 13c-1.7 1.7-4.16 1.41-6.5 1.7-7.14 1.15-12.62 3.58-17.12 9.4-4.5 7.03-5.06 12.52-4.38 20.9 2.15 5.48 5.94 7.63 11.13 9.96 16.18 5.85 37.83 5.05 53.87-.96a85 85 0 0 0 4-3h2l.82-1.65q1.25-2.5 2.58-4.98l1.53-2.94 1.54-2.87c3.59-8.33 5.13-17.04 6.21-26 .08-.52.08-.52.39-3.14 2.45-21.73.2-41.52-6.08-62.42 3.91 1.7 7.12 4.26 10.44 6.87l1.7 1.32q1.67 1.29 3.33 2.6 2.06 1.6 4.16 3.18c10.7 9.12 16.5 22.35 18.38 36.03.22 4.04.2 8.07.13 12.12l-.03 3.2a660 660 0 0 1-.1 7.68l-3.22.66c-17.03 3.72-17.03 3.72-22.59 12.04-3.53 6.35-5.62 12.04-4.2 19.3 1.75 5.32 4.2 8.98 9 12 13.55 6.64 33.77 6.16 48.2 2.37 8.13-2.88 13.45-6.89 17.8-14.37a64 64 0 0 0 2.2-8l.5-2.08q.67-2.96 1.3-5.92.28-1.24.54-2.5c.69-5.13.65-10.23.68-15.4l.01-3.54.03-11.37v-3.9c-.02-28.72-1.75-56.23-8.25-84.29q-.35-1.46-.68-2.96l-.69-2.94a567 567 0 0 0-1.94-8.24c-3.77-15.89-4.02-31.43-3.94-47.67v-3.45c.04-15.35.38-30.54 1.97-45.8.55-5.7.92-11.42 1.35-17.13l.46-6.36.2-2.68q.3-2.99.78-5.95c.62-4.83.65-9.58.65-14.44l.01-3.09.01-6.45q.01-4.86.05-9.72c.03-15.19-.82-29.73-4.41-44.56q-.34-1.32-.66-2.67c-3.27-12.89-8.62-24.64-15.31-36.1-2.57-4.54-3.3-7.57-2.86-12.79l2.68-1.47c16.47-9.14 31.25-20.12 42.33-35.53l1.17-1.63c8.9-12.36 14.87-25.5 20.6-39.56 8.97-21.97 20.23-39.06 42.66-48.69 16.53-6.64 37.14-4.1 53.3 2.44 12.79 5.48 23.05 13.5 33.67 22.33 8.97 7.28 16.67 12.8 28.6 12.46 5.85-.68 10.28-2.63 14.43-6.79 3.55-5.82 4.6-10.78 3.56-17.56-7.53-22.78-32.91-37.72-53.1-48.15-9.67-4.84-19.44-8.17-29.9-10.85l-2.73-.7c-28.52-6.85-58.92-2.37-84 12.55-5.08 3.34-9.66 7.17-14.26 11.15l-2.48 1.86c-3.02 2.56-5.41 5.45-7.84 8.57l-1.44 1.88c-9.6 12.6-16.01 26.3-22.59 40.61C882.2 195.64 882.2 195.64 875 204l-2.1 2.51a124 124 0 0 1-31.9 26.5l-2.53 1.47c-8.66 4.47-16.59 1.6-25.53-.89-7.24-2-14.54-3.37-21.95-4.59l-3.6-.63c-31.41-4.75-62.3.53-92.4 9.63l-2.75.82c-21.6 6.56-42.04 15.97-62.3 25.8l-2.19 1.06a741 741 0 0 0-25.9 13.21 489 489 0 0 1-13.48 6.92 1232 1232 0 0 0-45.1 23.7q-9.82 5.34-19.77 10.5-11.16 5.76-22.18 11.8c-17.05 9.33-34.1 18.65-51.44 27.38l-2.6 1.31C432.2 368 432.2 368 426 368l-.96-3.7c-2.99-11.54-6-23-10.24-34.16l-2.42-6.58c-7-18.96-7-18.96-13.35-22.73-3.16-1.3-5.63-1.18-9.03-.83-10.36 5.06-18 16.18-25 25l-4.75 5.93-2.1 2.66c-5.37 6.04-9.92 7.37-17.65 8.84l-6.25 1.3-3.17.64q-6.87 1.41-13.7 3l-2.58.6a183 183 0 0 0-21.7 6.88c-7.59 2.74-13.1 2.24-20.67-.79l-3.31-1.33a818 818 0 0 1-18.99-8.25c-14.1-6.24-14.1-6.24-22.13-5.48-2.32 1.5-2.32 1.5-4 3h-2c-9.95 24.53.64 60.57 8.26 84.84a105 105 0 0 1 3.3 15.53l.72 4.86c2.1 14.03 5.64 27.3 10.04 40.77q.32 1.06.68 2.15c6.53 20.38 17.2 33.14 36.16 42.92L289 537a89 89 0 0 1-8 11.5l-1.45 1.84a499 499 0 0 1-11.56 13.98q-4.19 4.92-8.23 10a275 275 0 0 1-14.25 15.84 266 266 0 0 0-8.91 9.77c-3.94 4.52-8.1 8.77-12.34 13l-2.4 2.4A179 179 0 0 1 204 631l-2.24 1.76c-6.51 5.07-11.59 7.57-20 7.61-9.34.33-15.97 2.43-22.63 9.25-5.02 6.3-7.96 14.15-7.5 22.25 1.09 6.13 4.25 11.02 9.15 14.81 9.61 5.73 21.29 6.8 32.22 5.32 7.75-1.97 14.45-5.56 21.08-9.96l1.91-1.04 2 1-1.5 3.7c-2.04 6.03-1.75 11.98-1.5 18.3h-2c-1.52-3.07-1.1-6.27-1.06-9.63l.03-2.14.03-5.23-2.95 1.5q-1.91.97-3.86 1.93l-1.94 1a45.8 45.8 0 0 1-34.3 2.63c-7.95-3.08-14.16-7.45-18.44-14.94-3-7.19-3.14-13.2-.68-20.62 3.67-8.65 10.35-16.14 19.11-19.9 5.32-1.56 10.7-1.68 16.2-1.4 8.96-.45 16.57-6.86 22.7-13.05 2.16-2.15 2.16-2.15 5.13-4.62 5.3-4.5 10.16-9.47 15.08-14.39l5.16-5.1q1.63-1.65 3.29-3.3l1.53-1.52A41 41 0 0 0 245 586q2.49-2.54 5-5 3.83-4.3 7.43-8.78 1.75-2.16 3.57-4.22h2q.32-1.01.63-2.07A32 32 0 0 1 271 556h2l.75-2.15c1.41-3.22 3.2-5.73 5.32-8.54 3.85-5.16 3.85-5.16 4.93-7.3q-1.32-.42-2.68-.82c-16-5.74-29.35-19.74-36.56-34.79-2-4.74-3.33-9.42-4.34-14.45C240 486 240 486 239 483.5a39 39 0 0 1-1.93-6.75 74 74 0 0 0-2.64-9.38A56 56 0 0 1 232 456q-.47-1.64-1-3.3a60 60 0 0 1-1.75-11.57C229 439 229 439 228 437q-.24-2.09-.42-4.19c-.53-4.97-1.82-9.47-3.33-14.22A87 87 0 0 1 221 404q-.47-1.64-1-3.3a61 61 0 0 1-1.75-11.37A38 38 0 0 0 217 383c-4.8-28.83-4.8-28.83 1.88-40.19 2.75-3.63 4.83-5.38 9.13-6.8 14.37-1.2 28.75 6.57 41.13 13.18 3.52 1.8 7 2.68 10.88 3.41 1.99.4 1.99.4 4.99 1.4a107 107 0 0 0 5.17-2.17c3.7-1.68 7.56-2.76 11.45-3.83 3.38-1 3.38-1 5.38-2.07 2.9-1.35 5.84-1.5 9-1.93l4.85-1.47c3.92-.97 7.95-1.43 11.97-1.97 3.18-.56 3.18-.56 6.27-1.63 2.9-.93 2.9-.93 5.54-.88 3.03-.07 4.12-1 6.44-2.93 2.03-1.66 3.78-3.05 6.15-4.19L359 330q.56-2 1-4l3-1q.56-2 1-4c1.35-1.85 1.35-1.85 2.94-3.63l1.6-1.79q1.7-1.82 3.47-3.58l2.5-3.13 2.5-2.87h2l.76-1.83c2.56-4.49 7.58-6.67 12.37-8.1 4.9-.12 7.83 1 11.5 4.24l2.37 2.7 2.13 2.36c2.17 3.06 3.48 6.15 4.87 9.63l1.07 2a41 41 0 0 1 2.3 6.9 122 122 0 0 0 2.56 7.41 211 211 0 0 1 5.06 15.7l.83 2.81A93 93 0 0 1 428 365a338 338 0 0 0 27.13-12l2.02-1a249 249 0 0 0 12.85-7 183 183 0 0 1 6.1-3.07l3.88-1.89a88 88 0 0 0 6.27-3.67 178 178 0 0 1 16.13-8.48A48 48 0 0 0 513 321c4.49-2.76 9.04-4.97 13.87-7.07 3.67-1.6 7.2-3.37 10.63-5.43 2.76-1.66 5.62-3.06 8.5-4.5q3.69-1.95 7.38-3.94 8.97-4.8 18.1-9.27a89 89 0 0 0 10.77-5.98c2.9-1.9 5.48-2.72 8.75-3.8 4.2-2.16 8.25-4.57 12.32-6.94a221 221 0 0 1 11.17-5.88l2.1-1.05q8.03-3.96 16.17-7.7a378 378 0 0 0 17.73-8.75 73 73 0 0 1 14.92-5.87c3.86-1.22 7.43-2.97 11.04-4.74A33 33 0 0 1 684 238q1.97-.58 3.88-1.25l2.33-.79 6.43-2.24c6.47-2.23 12.52-4.1 19.37-4.72l2.93-1c3.35-1.09 6.44-1.46 9.93-1.76A43 43 0 0 0 735 225c10.76-1.63 21.64-2.09 32.5-2.13h2.25c4.51 0 8.8.42 13.25 1.13q2.36.2 4.7.37c5 .48 9.7 1.65 14.56 2.94 2.75.7 2.75.7 6.43 1.2 3.59.53 6.7 1.6 10.1 2.8 3.04.94 6.08 1.31 9.22 1.7q1.5.48 3 1c1.87-.68 1.87-.68 3.88-1.76l2.13-1.14q3.54-1.99 6.99-4.1c6.66-4 6.66-4 9-4l.75-1.8c1.43-2.55 2.9-3.75 5.25-5.46l2.13-1.58C863 213 863 213 865 213l.78-1.76a29 29 0 0 1 4.6-6.12c4.46-4.99 7.65-10.13 10.62-16.12q.84-1.69 1.73-3.42 5.7-11.32 11.14-22.77l1.15-2.43c1.47-3.08 2.88-6.14 4.14-9.3.97-2.38 2.3-4.05 3.84-6.08l1.26-2.69c2-3.82 4.38-7 7.06-10.38l1.38-1.8A62 62 0 0 1 923 120l2.07-2.63c2.13-2.63 4-3.67 6.92-5.37l4.81-3.1a514 514 0 0 1 18.58-11.59 25 25 0 0 1 7.62-2.3c.96-.34 1.9-.67 2.9-1a56 56 0 0 1 9.86-2.08c15.36-2.12 15.36-2.12 21.62-2.12" fill="#B8BAB8"/><path d="m685 504 1 3.42c10.59 35.43 27.8 65.04 55.7 89.55 9.41 8.29 19.09 18.15 21.3 31.03a94 94 0 0 1 0 13c-2.18 2.18-6.77 1.83-9.73 2.21-3.27.79-3.27.79-6.43 2.83-4.22 2.46-7.78 2.41-12.57 2.17l-2.52-.08q-3.97-.14-7.94-.32l-5.18-.17q-9.99-.33-19.98-.88c-12.43-.7-24.82-.94-37.26-.96l-6.13-.02q-9.78-.03-19.57-.03h-3.37c-35.53-.03-70.87.65-106.33 2.88q-7.92.49-15.84.84c-19.97.92-39.71 3.18-59.53 5.63q-9 1.08-18 1.94-12.09 1.17-24.12 2.84l-3.79.51L393 662l-3.97.54-11.47 1.58-3.51.48c-5.51.78-10.76 1.68-16.05 3.4 1.19-3.58 1.89-3.81 5.07-5.61l2.62-1.51 2.87-1.63 6.08-3.53 3.19-1.85c9.18-5.41 18.16-11.17 27.17-16.87l3.09-1.95c38.96-24.6 38.96-24.6 48.93-32.69 2.24-1.54 4-2.05 6.66-2.61l2.73-.59 2.9-.6 6.04-1.32 2.96-.65C538.97 583.24 597.16 550.96 651 521l5.32-2.95 12.85-7.15 3.31-1.85 2.94-1.64L678 506l2.16-1.19C682 504 682 504 685 504" fill="#ECEDEC"/><path d="m997.38 89.81 3.7-.04a99 99 0 0 1 32.35 5.04l2.45.8c11.03 3.61 21.78 7.45 31.55 13.82 3.04 1.97 6.05 3.87 9.25 5.57 4.23 2.55 7.67 5.68 11.31 9l4.08 3.5q4.78 4.2 9.2 8.82a25 25 0 0 0 4.2 3.45c5.59 4.91 9.01 13.24 9.96 20.56-.29 7.12-2.64 12.42-7.44 17.67-7.05 5.73-13.58 6.46-22.38 5.66-8.8-1.6-15.23-6.75-21.53-12.83-2.09-1.83-2.09-1.83-4.84-3.45L1057 166v-2l-1.72-.82a60 60 0 0 1-6.51-4.06 80 80 0 0 0-10.67-6.12 99 99 0 0 1-4.46-2.29c-5.86-3.13-11.12-4.66-17.64-5.7l-4.8-1.14a56 56 0 0 0-23.2.13l-2.52.43-2.54.44-2.52.43c-2.71.8-4.21 1.96-6.41 3.7q-2.41 1.23-4.87 2.37C963.1 154.32 959 157.58 955 163h-2l-.8 1.7a68 68 0 0 1-4.37 7c-4.7 7.32-7.86 15.2-11.15 23.23l-2.78 6.72-1.72 4.15c-1.28 3.12-2.61 6.2-4.18 9.2l-.98 1.93c-3.08 5.83-6.81 10.96-10.84 16.17-2.18 2.9-2.18 2.9-4.24 6.07a24 24 0 0 1-5.57 5.95A15.5 15.5 0 0 0 901 252h-2l-2.07 2.62c-3.28 4.13-7.5 6.61-11.93 9.38l-3.25 2.2c-7.3 4.8-7.3 4.8-11.75 5.8a126 126 0 0 0 6.43 13.37A161 161 0 0 1 884 301l1.1 2.43c3 6.98 4.43 14.14 5.9 21.57q.26.95.51 1.95c.75 3.13 1.09 6.3 1.49 9.48.9 7.11.9 7.11 1.57 10.22.47 2.57.5 4.92.42 7.54-.1 4.6-.1 4.6 1 6.81q.15 3.78.13 7.56l.01 2.12c0 5.2 0 5.2-1.13 6.32-.07 3.6-.02 7.17.03 10.77.07 5.81-.37 11.46-1.03 17.23l-.47 4.76-.22 2.41q-.53 5.46-1.03 10.9l-.56 5.9c-1.05 10.78-1.98 21.42-1.7 32.26C890 464 890 464 889 467q-.14 4.04-.13 8.07v22.34c.02 7.06.69 14 2.13 20.9l.5 2.43q.71 3.14 1.5 6.26.72 3.24 1.4 6.5.7 2.92 1.58 5.8c1.05 3.81 1.8 7.62 2.45 11.51l.39 2.21.78 4.63q.6 3.5 1.23 7a214 214 0 0 1 3.16 26.35l.14 2.15c.87 13.96.98 27.92 1 41.91v12.75c0 4.17-.31 8.1-1.13 12.2q5.3 1.8 10.67 3.35a426 426 0 0 0 7.82 2.25c7.25 2.13 15.2 4.76 20.5 10.4 1.26 3.3 1.26 3.3 1 7-3.73 6.48-10.78 9.35-17.67 11.38a262 262 0 0 1-47.33 7.61l-2.25.17c-21.64 1.56-43.4.9-65.06.14l-3.52-.12c-30.32-1.05-60.62-2.67-90.92-4.26-32.53-1.7-64.99-3.15-97.56-3.12h-3.64a1566 1566 0 0 0-157.06 8.32 243 243 0 0 1-30.99.87v-1l1.86-.17q4.16-.37 8.33-.77l2.92-.26 2.81-.27 2.6-.24c2.5-.29 2.5-.29 4.85-.78 2.49-.48 4.88-.76 7.41-.96l2.8-.22 3.02-.23 3.17-.25 10.17-.79 3.53-.27 20.62-1.57 7.5-.57q11.68-.88 23.36-1.54l6.6-.39c27.14-1.6 54.28-1.9 81.47-1.9h5.36l20.17.01c8.03.01 15.98.18 23.98.94 2.98.27 5.93.38 8.92.44l3.5.08 3.74.08c12.95.33 25.85 1.04 38.75 1.87q14.28.9 28.57 1.76l2.82.17c28.76 1.73 57.5 2.01 86.3 2.02h2.73l15.6-.02h4.82q3.33 0 6.65-.03h3.8c2.9-.13 5.45-.5 8.27-1.14q3.2-.23 6.4-.39c7.6-.5 14.9-1.8 22.37-3.36l3.74-.73c8.23-1.7 17.87-3.7 23.5-10.52.68-3.19.68-3.19 1-6l-1.67-.83q-2.39-1.2-4.73-2.47c-7.49-3.8-14.93-5.95-23.09-7.9l-3.36-.83L901 663l.02-2.13c.73-80.08.73-80.08-8.02-117.87q-.35-1.46-.68-2.96l-.69-2.94a567 567 0 0 0-1.94-8.24c-3.77-15.89-4.02-31.43-3.94-47.67v-3.45c.04-15.35.38-30.54 1.97-45.8.55-5.7.92-11.42 1.35-17.13l.46-6.36.2-2.68q.3-2.99.78-5.95c.62-4.83.65-9.58.65-14.44l.01-3.09.01-6.45q.01-4.86.05-9.72c.03-15.19-.82-29.73-4.41-44.56q-.34-1.32-.66-2.67c-3.27-12.89-8.62-24.64-15.31-36.1-2.57-4.54-3.3-7.57-2.86-12.79l2.68-1.47c16.47-9.14 31.25-20.12 42.33-35.53l1.17-1.63c8.9-12.36 14.87-25.5 20.6-39.56 8.97-21.97 20.23-39.06 42.66-48.69 16.53-6.64 37.14-4.1 53.3 2.44 12.79 5.48 23.05 13.5 33.67 22.33 8.97 7.28 16.67 12.8 28.6 12.46 5.85-.68 10.28-2.63 14.43-6.79 3.55-5.82 4.6-10.78 3.56-17.56-7.53-22.78-32.91-37.72-53.1-48.15-9.67-4.84-19.44-8.17-29.9-10.85l-2.73-.7c-28.52-6.85-58.92-2.37-84 12.55-5.08 3.34-9.66 7.17-14.26 11.15l-2.48 1.86c-3.02 2.56-5.41 5.45-7.84 8.57l-1.44 1.88c-9.6 12.6-16.01 26.3-22.59 40.61C882.2 195.64 882.2 195.64 875 204l-2.1 2.51a124 124 0 0 1-31.9 26.5l-2.53 1.47c-8.66 4.47-16.59 1.6-25.53-.89-7.24-2-14.54-3.37-21.95-4.59l-3.6-.63c-31.41-4.75-62.3.53-92.4 9.63l-2.75.82c-21.6 6.56-42.04 15.97-62.3 25.8l-2.19 1.06a741 741 0 0 0-25.9 13.21 489 489 0 0 1-13.48 6.92 1232 1232 0 0 0-45.1 23.7q-9.82 5.34-19.77 10.5-11.16 5.76-22.18 11.8c-17.05 9.33-34.1 18.65-51.44 27.38l-2.6 1.31C432.2 368 432.2 368 426 368l-.96-3.7c-2.99-11.54-6-23-10.24-34.16l-2.42-6.58c-7-18.96-7-18.96-13.35-22.73-3.16-1.3-5.63-1.18-9.03-.83-10.36 5.06-18 16.18-25 25l-4.75 5.93-2.1 2.66c-5.37 6.04-9.92 7.37-17.65 8.84l-6.25 1.3-3.17.64q-6.87 1.41-13.7 3l-2.58.6a183 183 0 0 0-21.7 6.88c-7.59 2.74-13.1 2.24-20.67-.79l-3.31-1.33a818 818 0 0 1-18.99-8.25c-14.1-6.24-14.1-6.24-22.13-5.48-2.32 1.5-2.32 1.5-4 3h-2c-9.95 24.53.64 60.57 8.26 84.84a105 105 0 0 1 3.3 15.53l.72 4.86c2.1 14.03 5.64 27.3 10.04 40.77q.32 1.06.68 2.15c6.53 20.38 17.2 33.14 36.16 42.92L289 537a89 89 0 0 1-8 11.5l-1.45 1.84a499 499 0 0 1-11.56 13.98q-4.19 4.92-8.23 10a275 275 0 0 1-14.25 15.84 266 266 0 0 0-8.91 9.77c-3.94 4.52-8.1 8.77-12.34 13l-2.4 2.4A179 179 0 0 1 204 631l-2.24 1.76c-6.51 5.07-11.59 7.57-20 7.61-9.34.33-15.97 2.43-22.63 9.25-5.02 6.3-7.96 14.15-7.5 22.25 1.09 6.13 4.25 11.02 9.15 14.81 9.61 5.73 21.29 6.8 32.22 5.32 7.75-1.97 14.45-5.56 21.08-9.96l1.91-1.04 2 1-1.5 3.7c-2.04 6.03-1.75 11.98-1.5 18.3h-2c-1.52-3.07-1.1-6.27-1.06-9.63l.03-2.14.03-5.23-2.95 1.5q-1.91.97-3.86 1.93l-1.94 1a45.8 45.8 0 0 1-34.3 2.63c-7.95-3.08-14.16-7.45-18.44-14.94-3-7.19-3.14-13.2-.68-20.62 3.67-8.65 10.35-16.14 19.11-19.9 5.32-1.56 10.7-1.68 16.2-1.4 8.96-.45 16.57-6.86 22.7-13.05 2.16-2.15 2.16-2.15 5.13-4.62 5.3-4.5 10.16-9.47 15.08-14.39l5.16-5.1q1.63-1.65 3.29-3.3l1.53-1.52A41 41 0 0 0 245 586q2.49-2.54 5-5 3.83-4.3 7.43-8.78 1.75-2.16 3.57-4.22h2q.32-1.01.63-2.07A32 32 0 0 1 271 556h2l.75-2.15c1.41-3.22 3.2-5.73 5.32-8.54 3.85-5.16 3.85-5.16 4.93-7.3q-1.32-.42-2.68-.82c-16-5.74-29.35-19.74-36.56-34.79-2-4.74-3.33-9.42-4.34-14.45C240 486 240 486 239 483.5a39 39 0 0 1-1.93-6.75 74 74 0 0 0-2.64-9.38A56 56 0 0 1 232 456q-.47-1.64-1-3.3a60 60 0 0 1-1.75-11.57C229 439 229 439 228 437q-.24-2.09-.42-4.19c-.53-4.97-1.82-9.47-3.33-14.22A87 87 0 0 1 221 404q-.47-1.64-1-3.3a61 61 0 0 1-1.75-11.37A38 38 0 0 0 217 383c-4.8-28.83-4.8-28.83 1.88-40.19 2.75-3.63 4.83-5.38 9.13-6.8 14.37-1.2 28.75 6.57 41.13 13.18 3.52 1.8 7 2.68 10.88 3.41 1.99.4 1.99.4 4.99 1.4a107 107 0 0 0 5.17-2.17c3.7-1.68 7.56-2.76 11.45-3.83 3.38-1 3.38-1 5.38-2.07 2.9-1.35 5.84-1.5 9-1.93l4.85-1.47c3.92-.97 7.95-1.43 11.97-1.97 3.18-.56 3.18-.56 6.27-1.63 2.9-.93 2.9-.93 5.54-.88 3.03-.07 4.12-1 6.44-2.93 2.03-1.66 3.78-3.05 6.15-4.19L359 330q.56-2 1-4l3-1q.56-2 1-4c1.35-1.85 1.35-1.85 2.94-3.63l1.6-1.79q1.7-1.82 3.47-3.58l2.5-3.13 2.5-2.87h2l.76-1.83c2.56-4.49 7.58-6.67 12.37-8.1 4.9-.12 7.83 1 11.5 4.24l2.37 2.7 2.13 2.36c2.17 3.06 3.48 6.15 4.87 9.63l1.07 2a41 41 0 0 1 2.3 6.9 122 122 0 0 0 2.56 7.41 211 211 0 0 1 5.06 15.7l.83 2.81A93 93 0 0 1 428 365a338 338 0 0 0 27.13-12l2.02-1a249 249 0 0 0 12.85-7 183 183 0 0 1 6.1-3.07l3.88-1.89a88 88 0 0 0 6.27-3.67 178 178 0 0 1 16.13-8.48A48 48 0 0 0 513 321c4.49-2.76 9.04-4.97 13.87-7.07 3.67-1.6 7.2-3.37 10.63-5.43 2.76-1.66 5.62-3.06 8.5-4.5q3.69-1.95 7.38-3.94 8.97-4.8 18.1-9.27a89 89 0 0 0 10.77-5.98c2.9-1.9 5.48-2.72 8.75-3.8 4.2-2.16 8.25-4.57 12.32-6.94a221 221 0 0 1 11.17-5.88l2.1-1.05q8.03-3.96 16.17-7.7a378 378 0 0 0 17.73-8.75 73 73 0 0 1 14.92-5.87c3.86-1.22 7.43-2.97 11.04-4.74A33 33 0 0 1 684 238q1.97-.58 3.88-1.25l2.33-.79 6.43-2.24c6.47-2.23 12.52-4.1 19.37-4.72l2.93-1c3.35-1.09 6.44-1.46 9.93-1.76A43 43 0 0 0 735 225c10.76-1.63 21.64-2.09 32.5-2.13h2.25c4.51 0 8.8.42 13.25 1.13q2.36.2 4.7.37c5 .48 9.7 1.65 14.56 2.94 2.75.7 2.75.7 6.43 1.2 3.59.53 6.7 1.6 10.1 2.8 3.04.94 6.08 1.31 9.22 1.7q1.5.48 3 1c1.87-.68 1.87-.68 3.88-1.76l2.13-1.14q3.54-1.99 6.99-4.1c6.66-4 6.66-4 9-4l.75-1.8c1.43-2.55 2.9-3.75 5.25-5.46l2.13-1.58C863 213 863 213 865 213l.78-1.76a29 29 0 0 1 4.6-6.12c4.46-4.99 7.65-10.13 10.62-16.12q.84-1.69 1.73-3.42 5.7-11.32 11.14-22.77l1.15-2.43c1.47-3.08 2.88-6.14 4.14-9.3.97-2.38 2.3-4.05 3.84-6.08l1.26-2.69c2-3.82 4.38-7 7.06-10.38l1.38-1.8A62 62 0 0 1 923 120l2.07-2.63c2.13-2.63 4-3.67 6.92-5.37l4.81-3.1a514 514 0 0 1 18.58-11.59 25 25 0 0 1 7.62-2.3c.96-.34 1.9-.67 2.9-1a56 56 0 0 1 9.86-2.08c15.36-2.12 15.36-2.12 21.62-2.12" fill="#E7E8E8"/><path d="M245.76 346.87 248 348l2.87 1.4c8.81 4.5 17 9.7 24.13 16.6-1.5 3.65-3.58 5.59-6.56 8.13-15.77 13.92-26.89 31.7-29.44 52.87h-4l-1.8-4.43-1.03-2.5L231 417l-.74-1.88c-2.43-6.7-3.37-13.46-4.32-20.5l-1.4-10.03c-.54-2.6-.54-2.6-2.54-5.6l-1 5h-1c-4.02-30.96-4.02-30.96 0-37h2l2-1 2 1 1-3c6.54-2.17 12.75 0 18.76 2.88" fill="#262825"/><path d="M395 299c5.52.94 8.05 3.59 11.21 7.93 3.46 5.93 5.69 12.39 8 18.85q1.07 3.01 2.2 6.01 1.87 5.07 3.59 10.21l1.23 3.59c2.11 6.64 3.15 11.94 2.13 18.86-.55 3.86-.42 7.65-.36 11.55l-2-2.12c-3.38-3.37-7.11-6.14-11-8.88l-2.43-1.76c-6.56-4.49-13.04-7.02-20.58-9.29C384 353 384 353 383 352q-4.43-.57-8.88-1l-7.14-.72C365 350 365 350 362 349c-.22-3.83.28-6.16 2.08-9.54l1.33-2.51 1.4-2.57 1.37-2.61c2.01-3.75 3.78-6.78 6.82-9.77q1.53-2.99 3-6c1.56-2.38 1.56-2.38 3-4h2v-2c1.68-1.44 1.68-1.44 3.88-3 3.4-2.44 5.77-4.47 8.12-8" fill="#252623"/><path d="M813 575c3.91 1.7 7.11 4.26 10.44 6.88l1.69 1.31 3.32 2.6q2.08 1.61 4.18 3.19c10.68 9.11 16.49 22.34 18.37 36.02.21 4.05.19 8.07.12 12.12l-.02 3.19-.1 7.69-3.29.73-4.33 1.02-2.17.48c-3.73.89-6.14 1.72-9.37 3.93-3.36 2.18-4.81 2.16-8.72 1.59l-2.92-.39-2.2-.36a107 107 0 0 1 1-17.88c2.76-21.48.2-41.47-6-62.12" fill="#EAECEB"/><path d="M361 564c2.12.38 2.12.38 4 1a143 143 0 0 1-13.44 14.06l-2.11 1.96-4.33 4.02q-3.93 3.63-7.84 7.3l-5.56 5.19-7.54 7.04C308.37 619.34 292.52 634.02 276 648l-2.88 2.45A394 394 0 0 1 265 657l-2.97 2.55c-8.84 7.22-15.99 7.52-27.03 6.45 3.98-4.21 8.31-7.66 12.94-11.12l4.58-3.47 2.29-1.74c4.88-3.72 9.68-7.53 14.5-11.34l5.11-4q10.4-8.14 20.62-16.5 6.39-5.2 12.9-10.27a955 955 0 0 0 32.29-26.57c4.66-3.95 9.45-7.72 14.28-11.46A68 68 0 0 0 361 564" fill="#EBEBEE"/><path d="m763.56 222.88 3.33-.01c5.48 0 10.7.22 16.11 1.13q3.89.3 7.76.53c2.62.56 3.56 1.44 5.24 3.47l-6 .06-3.38.03a86 86 0 0 1-9.33-.84c-27.98-2.97-55.64 2.7-82.29 10.75l-2.76.82c-21.6 6.56-42.04 15.97-62.3 25.8l-2.19 1.06a741 741 0 0 0-25.9 13.21 519 519 0 0 1-13.48 6.93 1256 1256 0 0 0-45.1 23.68A934 934 0 0 1 523.5 320q-11.16 5.78-22.19 11.81c-17.08 9.36-34.17 18.7-51.56 27.44l-2.65 1.34c-13.78 6.86-13.78 6.86-18.1 5.4 3.38-2.83 6.93-4.34 11-6 5.1-2.12 10.06-4.45 15-6.93l2.04-1.02A250 250 0 0 0 470 345a234 234 0 0 1 4.18-2.12l1.92-.94 3.87-1.88a86 86 0 0 0 6.28-3.68 177 177 0 0 1 16.13-8.48A49 49 0 0 0 513 321c4.48-2.75 9.04-4.96 13.86-7.06a93 93 0 0 0 10.64-5.44c2.76-1.66 5.61-3.05 8.5-4.5q3.7-1.94 7.37-3.93a498 498 0 0 1 18.12-9.26 90 90 0 0 0 10.76-5.99c2.9-1.9 5.47-2.71 8.75-3.81 4.2-2.14 8.24-4.56 12.31-6.93 3.67-2.08 7.41-4 11.2-5.88l2.07-1.05a704 704 0 0 1 16.18-7.7 369 369 0 0 0 17.72-8.75c4.91-2.56 9.6-4.4 14.93-5.87 3.85-1.22 7.42-2.97 11.04-4.73A33 33 0 0 1 684 238q1.96-.57 3.87-1.24 1.15-.4 2.33-.78l6.43-2.25c6.46-2.22 12.53-4.1 19.37-4.72l2.94-1c3.34-1.1 6.42-1.46 9.91-1.75 2.12-.25 4.08-.72 6.15-1.25 3.75-.5 3.75-.5 5.61-.72q2.93-.34 5.87-.8c5.68-.72 11.36-.62 17.08-.6" fill="#EBEBED"/><path d="m402.63 449.81 2.9-.04c2.48.23 2.48.23 4.48 2.23a144 144 0 0 1-15.63 10.7l-1.93 1.14a166 166 0 0 1-11.44 6.16l-3.49 1.8-3.58 1.82-1.81.95c-3.35 1.7-6.38 3.03-10.12 3.43-1-1-1-1-1.44-3.63.6-4.7 3.04-7.18 6.44-10.37l2-1q.48-1.48 1-3l7-1v-2l7.74-2.94 2.21-.84 2.15-.8 1.96-.76a34 34 0 0 1 11.56-1.85" fill="#141715"/><path d="M661 692v1h-69l-1 2-3.85.12c-42.81 1.36-85.57 3.65-128.18 8.01A239 239 0 0 1 428 704v-1l1.85-.17 8.34-.77 2.91-.26 2.82-.26 2.58-.24c2.5-.3 2.5-.3 4.86-.79 2.49-.48 4.89-.76 7.41-.96l2.81-.22 3.01-.23 3.16-.25 10.19-.79 3.52-.27 28.12-2.14q11.68-.89 23.37-1.53l6.59-.39c40.45-2.4 80.96-1.93 121.46-1.73" fill="#E3E5E3"/><path d="m221 395 2 1c.69 3 1.28 5.97 1.81 9 1.24 6.66 2.7 13.1 4.75 19.56 1.85 5.9 3.11 11.7 4 17.82l.36 2.42.36 2.42c2.25 15.16 6.35 29.36 11.37 43.81l1.3 3.78 1.2 3.4C249 501 249 501 249 504c-1.9-.22-1.9-.22-4-1-.94-1.93-.94-1.93-1.56-4.44l-.73-2.74L242 493q-.74-2.57-1.5-5.12l-.75-2.51a99 99 0 0 0-2.31-6.43 66 66 0 0 1-2.97-10.71q-.69-3.2-1.53-6.35c-.88-3.63-1.42-7.19-1.94-10.88l-1-2c-.31-2.56-.51-5.12-.72-7.69C229 439 229 439 228 437a98 98 0 0 1-.44-4.19c-.51-4.96-1.82-9.46-3.32-14.22A83 83 0 0 1 221 404l-1-2q.42-3.51 1-7" fill="#DCDEDE"/><path d="m349.56 486.81 2.32-.04C354 487 354 487 357 489c.61 4.67-.27 6.4-3 10l-.5 3.62-.5 3.38c-3 2-3 2-5.5 1.93-3.33-1.24-3.74-2.9-5.5-5.93l-3.19-1.94c-2.8-2.06-2.8-2.06-3.5-5.06.7-3 .7-3 2.94-5.3 3.8-2.34 6.9-2.85 11.31-2.89" fill="#676865"/><path d="M1070.6 111.18c2.42 1.83 3.35 3.03 4.4 5.82a291 291 0 0 1-13.11-6.84c-19.7-10.82-40.1-15.73-62.45-16.73l-2.77-.13L990 93v-1l2.89-.19 3.8-.25 3.76-.25c3.55-.3 3.55-.3 6.22-.86 19.72-3.8 47.73 10.83 63.94 20.73" fill="#E2E3E4"/><path d="m900 572 2 1c4.77 19.61 3.1 42.01 3.12 62.06l.01 2.7v7.71l.01 2.34a59 59 0 0 1-.71 9.6C904 660 904 660 905 662h-3l-.03-2.23-.31-20.96-.16-10.77-.15-10.42-.08-5.85c-.12-7.02-.44-13.98-1.05-20.97-.3-3.88-.33-7.73-.28-11.61l.01-2.14z" fill="#EAEBEB"/><path d="m286 475 .52 1.79c2.09 6.84 4.65 10.95 10.48 15.21-8.82-.21-16.54-2.51-23.12-8.62C272 481 272 481 272 478c4.97-2.43 8.35-3.35 14-3" fill="#D6B868"/><path d="M374 461a20 20 0 0 1 2.69 3.88l1.32 2.17C379 469 379 469 379 471q-3.65 1.8-7.31 3.56l-2.09 1.04c-5.26 2.51-5.26 2.51-8.6 1.4-.45-3.06-.52-5.2 1.2-7.85 6.9-8.15 6.9-8.15 11.8-8.15" fill="#E6C679"/><path d="M890 403h1l.5 9.06.14 2.57c.69 12.76.69 12.76-.13 16.71-.54 2.82-.7 5.47-.79 8.34l-.11 3.26-.11 3.37c-.29 9.06-.94 17.76-2.5 26.69h-2c-.32-13.59.56-26.97 1.71-40.51q.74-9.05 1.41-18.11l.51-6.61.22-2.8z" fill="#DBDCDC"/><path d="m363.13 564.43 1.87.57a150 150 0 0 1-14.06 14.69l-2.1 1.97A150 150 0 0 1 338 591l-1-2c.94-2.12.94-2.12 2-4h-3q6.51-5.7 13.07-11.34l3.56-3.07q2.01-1.74 4.06-3.46l2.26-1.93c2.05-1.2 2.05-1.2 4.18-.77" fill="#E3E5E3"/><path d="M217 349h1l.15 2.18.73 10.13.26 3.71c.6 8.11 1.33 16.18 2.43 24.24.47 3.85.71 6.48-1.57 9.74-1.35-5.6-2.3-10.99-2.75-16.74-.25-2.26-.25-2.26-.74-4.21-2.01-8.09-2.27-17.77-1.51-26.05z" fill="#E5E6E8"/><path d="M893 356c3.33 3.97 3.39 7.16 3.25 12.19l-.02 2.23c-.08 5.43-.08 5.43-1.23 6.58q-.07 4.22 0 8.44c.05 6.59-.1 13.02-1 19.56l-.22 2.08c-.53 4.67-.53 4.67-2.78 6.92a1135 1135 0 0 1-.09-10.55c-.02-5.44.35-10.78.83-16.19.48-6 .63-12 .82-18.01l.13-3.88z" fill="#F0F0F3"/><path d="m495 579 2 1a196 196 0 0 1-16.15 11.74C479 593 479 593 477 595l2 2c-6.21 2.14-11.43 3.37-18 3l2-1v-2l2.31-1.14c9.53-4.72 18.58-9.67 27.4-15.6z" fill="#050707"/><path d="M815 230q2.81.8 5.62 1.56l2.73.76c5.75 1.48 8.87 1.61 14.65-.32l1 2c-9.5 5.16-18.02 1.83-27.95-.95-6.59-1.78-13.33-2.88-20.05-4.05v-1c7.72-3.75 16.24-.35 24 2" fill="#DEDEE1"/><path d="M886 473h2a44 44 0 0 1 1.06 10.86l-.02 3.38-.08 6.97c-.06 8.12.22 15.93 2.1 23.85l.54 2.29.4 1.65-4-1c-1.77-10.9-2.25-21.41-2.12-32.44l.02-4.56q.03-5.5.1-11" fill="#EDEEEF"/><path d="m216 681 2 1-1.5 3.69c-2.06 6.04-1.76 12-1.5 18.31h-2c-1.53-3.07-1.1-6.27-1.06-9.62l.01-2.15.05-5.23-2.89 1.57-3.8 1.99-1.89 1.04c-3.02 1.56-4.96 2.44-8.38 2.11L193 693a42 42 0 0 1 8.69-4.31 61 61 0 0 0 10.93-5.57z" fill="#CED0D0"/><path d="M321 473a38 38 0 0 1 3 3h-2v5h-1l-.25-2.38c-.75-2.62-.75-2.62-2.37-3.87-11.47-3.62-25.24-2.6-36.65.59a26 26 0 0 1-7.73.66c12.01-8.01 33.93-9.19 47-3" fill="#040402"/><path d="m242 340-1 3-3.62.44-4.38.56-3.44.44-2.56.56-1 2c-1.94.56-1.94.56-4 1l-2 1c.41-4.84 2.42-6.86 6-10 5.14-2.57 10.85-.68 16 1" fill="#151716"/><path d="M312 346v2q-6.24 2.32-12.5 4.56l-3.55 1.33c-6.5 2.32-11.18 3.78-17.95 2.11v-3l3.06.69c4.63.36 6.82-.67 10.94-2.69 3.19-1.13 6.36-2.1 9.62-3 3.38-1 3.38-1 5.63-2.19C309 345 309 345 312 346" fill="#EDECEF"/><path d="M871 280c3.03 1.05 3.9 1.82 5.45 4.7L878 288l1.46 3.08A315 315 0 0 1 888 311l-3 1-.78-1.74a624 624 0 0 0-6.56-14.15l-1.23-2.58-2.48-5.15-1.16-2.42-1.04-2.16C871 282 871 282 871 280" fill="#E8E8EB"/><path d="m286 479 2 3q1.17 1.76 2.38 3.5.58.88 1.21 1.78A25 25 0 0 0 297 492c-6.3-.37-11.33-1.17-17-4l2-6 3 1z" fill="#D8B76A"/><path d="m941 177 2 1a304 304 0 0 1-7.5 20.5l-1.18 3.03a287 287 0 0 0-2.2 5.48C931 209 931 209 928 210a245 245 0 0 1 8.19-21.56l1.4-3.35z" fill="#DBDADD"/><path d="m159 687 1.69.59 4.56 1.56a77 77 0 0 0 20.75 3.47l2.64.12 6.36.26v2c-13.06 1.51-24.61 1.6-36-6z" fill="#E6E9E8"/><path d="M892 698v1c-8.32 3.05-15.87 3.1-24.62 2.88l-3.33-.07-10.49-.25-7.13-.16q-8.71-.18-17.43-.4v-1l1.9-.03 26.93-.47 10.53-.18 3.3-.05 3.09-.06 2.71-.05c4.96-.31 9.51-1.26 14.54-1.16" fill="#DCDDDE"/><path d="m942 105 3 1a204 204 0 0 1-10.38 7.88A132 132 0 0 0 917 129c.29-3.45.64-4.69 3.31-7l2.69-2 2-2.56c2.17-2.64 4.07-3.72 7-5.44q3.87-2.8 7.7-5.67z" fill="#DBDEDC"/><path d="M410 449v2l-2.39-.14c-8.64-.29-15.5 1.28-23.61 4.14a213 213 0 0 1-7 2v2l-5 1c7.1-8.71 27.3-16.35 38-11" fill="#030503"/><path d="m235 598 3 1-23 23-3-1z" fill="#D9DBDB"/><path d="M714 232c-3.58 2.03-7.36 3-11.31 4a531 531 0 0 0-14.69 4v-3q6.17-2.51 12.44-4.75l1.94-.75c4.58-1.6 7.21-1.49 11.62.5" fill="#E7E7E9"/><path d="m457 355-8 4.31-2.25 1.23A87 87 0 0 1 432 367l-3-1c3.38-2.84 6.93-4.34 11-6l3.5-1.5 3.5-1.5 1.89-.89c4.79-2.22 4.79-2.22 8.11-1.11" fill="#EBEBEF"/><path d="M962 153c-1.67 3.96-4.13 6.84-7 10h-2l-.78 1.64a113 113 0 0 1-4.72 8.11l-1.84 2.98L944 178h-2c1.57-7.8 7.55-13.83 12.75-19.56l1.47-1.63c3.53-3.81 3.53-3.81 5.78-3.81" fill="#E1E1E2"/><path d="M995 140c19.95-.52 19.95-.52 27 3l-1 3-3.69-.94c-5.07-1.14-10.11-1.51-15.29-1.81A59 59 0 0 1 994 142z" fill="#E9EAE9"/><path d="M813 575a84 84 0 0 1 10 6q-.63 1.98-1.31 3.94l-.74 2.21C820 589 820 589 817 590z" fill="#DDDCDB"/><path d="m460.31 699.94 3.24.03 2.45.03v1h-8v2c-6.73.88-13.28 1.13-20.07 1.06l-2.9-.01L428 704v-1l1.85-.17 8.34-.77 2.9-.26 2.83-.26 2.58-.24c2.5-.3 2.5-.3 5.12-.82 2.94-.6 5.7-.57 8.7-.54" fill="#E0E4E1"/><path d="M771 223c16.6.83 16.6.83 24 3l1 2c-19.77.27-19.77.27-25-3z" fill="#E7E7E9"/><path d="M256 346c5.35-.4 9.17.96 14 3a44 44 0 0 0 10 3c-1.19 1.56-1.19 1.56-3 3-4.77-.43-9-2.62-13.31-4.56l-2.25-1L256 347z" fill="#DDDFDE"/><path d="m988.57 90.12 2.71.15 2.84.17 2.87.15 7.01.41v1a1013 1013 0 0 1-33 3l1-3 2.12-.18 2.75-.26 2.75-.24c3.35-.45 5.44-1.4 8.95-1.2" fill="#ECEDEF"/><path d="M903 623h1q.25 6.45.48 12.92l.17 4.38.37 10.17A59 59 0 0 1 904 660l1 2h-3c-.16-13.03.32-25.99 1-39" fill="#F1F2F2"/><path d="M1071 176c3.38.41 5.94.97 9 2.5 5.55 2.58 11.99 2.26 18 2.5l-1 3c-10.29-.03-17.29-1.08-26-7z" fill="#EAEAEC"/><path d="M889 522c1.92.63 1.92.63 4 2 .83 2.68.83 2.68 1.25 5.88l.45 3.17c.65 6.42.65 6.42-1.7 9.95l-2-8.25-.58-2.36-.54-2.28-.51-2.1C889 526 889 526 889 522" fill="#DEDEE2"/><path d="m223 346 2 2-1.46 2.07c-1.8 3.42-2.03 5.91-2.23 9.74l-.2 3.52L221 366h-3q-.08-3.9-.12-7.81l-.06-2.24c-.03-3.86-.01-5.66 2.18-8.95h2z" fill="#363837"/><path d="M340 583c0 5.07-2.29 8.24-5.69 11.88L332 597l-3-1c2.62-5.69 5.27-10.14 11-13" fill="#F2F2F3"/><path d="M890 403h1l.5 9.06.14 2.57c.74 13.66.74 13.66-.64 19.37h-1c-1.57-10.42-1.02-20.55 0-31" fill="#D0D3D1"/><path d="M217 349h1v19h-3q-.08-3.9-.12-7.81l-.06-2.24c-.03-3.86-.01-5.66 2.18-8.95" fill="#F0F3F0"/><path d="M733 228v1l-7.06 1.5-1.99.43A54 54 0 0 1 711 232c2.72-3.74 6.73-4.14 11-5l3.19-.75c3.19-.28 4.97.33 7.81 1.75" fill="#EBEBED"/><path d="m1110 168 2 4c-2.74 4.64-5.14 7.37-10 10h-4l-2-2 1.83-.7c4.94-2.01 8.28-3.6 11.17-8.3z" fill="#DEDDE1"/><path d="M297 352c-6.47 4.31-11.36 5.5-19 4v-3l3.12.69c6.24.5 9.41-3.38 15.88-1.69" fill="#E5E5E7"/><path d="M694 694c8.72-.16 17.31.34 26 1v1c-8.89 1.13-17.13 1.29-26 0z" fill="#E6E6E6"/><path d="m209 622 4 1-5.25 4.81-1.49 1.37C198.8 636 198.8 636 196 636c1.4-3.38 2.94-4.95 5.94-7a25 25 0 0 0 7.06-7" fill="#DFE1E0"/><path d="M344 578c1.37 2.73 1.55 3.96 1 7a51 51 0 0 1-7 6l-1-2c.94-2.12.94-2.12 2-4h-3z" fill="#E5E5E7"/><path d="M221 378c4.5 4.5 4.5 4.5 4.75 9.25l.17 2.7.08 2.05-3-3-2 3z" fill="#191A1B"/><path d="M423 351h2c1.13 3.7 2 7.02 2.5 10.88l.5 3.12 2 1v2h-4q-.76-2.84-1.5-5.69l-.84-3.2A30 30 0 0 1 423 351" fill="#E4E6E4"/><path d="m912 235 2 1a35 35 0 0 1-9.41 10.51c-1.78 1.67-2.62 3.26-3.59 5.49h-3a25 25 0 0 1 4.82-7.23l1.62-1.74 1.68-1.78 1.71-1.82z" fill="#E6E7E9"/><path d="M1057 163c4.05 1.75 7.31 4.42 10.75 7.12l1.82 1.42L1074 175c-1.75.7-1.75.7-4 1-1.96-1.33-1.96-1.33-3.94-3.25a36 36 0 0 0-7.06-5.5l-2-1.25z" fill="#DFDEDF"/><path d="M1108 149c3.2 4.03 4.14 6.94 4.12 12.06l.01 2.66C1112 166 1112 166 1111 168h-2l.07-2.41c.18-10.53.18-10.53-2.07-15.59z" fill="#212222"/><path d="m1030.56 93.75 3.57 1.05L1037 96l1 3-19-4c4.84-3.23 5.98-2.94 11.56-1.25" fill="#D8D8D9"/><path d="M371 659c0 2.31 0 2.31-1 5-3.71 2.1-7.89 3-12 4 1.26-3.79 2.55-4.22 5.94-6.19l2.71-1.6C369 659 369 659 371 659" fill="#E3E3E3"/><path d="M323 477c2 1.19 2 1.19 4 3 .25 2.69.25 2.69 0 5l-9 3 1.94-3.25c1.47-2.56 2.59-4.8 3.06-7.75" fill="#CDBF8A"/><path d="m234 462 3 1c1.83 5.49 2.21 10.24 2 16-2.43-2.43-2.72-4.13-3.56-7.44-.75-2.89-1.49-5.72-2.44-8.56z" fill="#E6E7E8"/><path d="m348 337 3 1v2c-5.23 1.47-9.58 2.23-15 2l1-3 2.15-.18 2.79-.26 2.77-.24C347 338 347 338 348 337" fill="#ECECF1"/><path d="m240 661 1 2c2.5.41 2.5.41 5.56.62l3.07.23 2.37.15v2h-17z" fill="#C3C5C5"/><path d="M210 688a388 388 0 0 1-5.69 3.06l-3.2 1.73c-3.33 1.3-4.76 1.3-8.11.21a44 44 0 0 1 7.94-4.19l2.59-1.1c2.65-.76 3.91-.64 6.47.29" fill="#E1E1E4"/><path d="M352 577q-1.42 1.76-2.88 3.5l-1.61 1.97L346 584h-2q.39-3.51 1-7c2.67-1.33 4.17-.67 7 0" fill="#EEEFF0"/><path d="M239 473c1.85 3.31 2.75 6.57 3.62 10.25l.79 3.27.59 2.48h-3c-2.69-6.02-3.27-9.53-2-16" fill="#D0D4D3"/><path d="M929 209c.71 1.67.71 1.67 1 4-1.43 2.58-1.43 2.58-3.44 5.25l-1.99 2.7L923 223c-.98-2.61-1.12-3.69-.07-6.32l1.38-2.37 1.37-2.38C927 210 927 210 929 209" fill="#E6E7E9"/><path d="m867.04 696.7 5.96.3v1l7 1v1h-18c3-3 3-3 5.04-3.3" fill="#C5C5C7"/><path d="M1112 154c3 3 3 3 3.07 5.92l-.38 3.27-.37 3.29-.32 2.52-3 1z" fill="#EEEDF2"/><path d="M995 140c-1.56 2-1.56 2-4 4-3.75.25-3.75.25-7 0l-1-3c3.98-1.33 7.85-1.07 12-1" fill="#DBDCD9"/><path d="M151 674c2 2 2 2 3.38 4.81A40 40 0 0 0 160 687c-3 0-3 0-4.57-1.39l-1.55-1.86-1.58-1.83A12.3 12.3 0 0 1 150 676z" fill="#DADADB"/><path d="M370 460h6v2h2v4h2l1 4-2 1-2.5-3.88-1.41-2.17C374 463 374 463 374 461l-4 1z" fill="#2C230C"/><path d="M888 176h2c-.58 4.75-2.55 7.97-5 12h-2c.58-4.75 2.55-7.97 5-12" fill="#EFEEF0"/><path d="M213 689h1l1 15h-2c-1.37-2.75-1.13-5-1.12-8.06l-.01-3.29C212 690 212 690 213 689" fill="#D9D9DB"/><path d="M375 465a89 89 0 0 1 4 4v2l-7 3v-2h2v-4h-2v-2z" fill="#DCBE78"/><path d="M338 342v1c-10.37 2.48-10.37 2.48-16 1 5.57-3.09 9.76-3.1 16-2" fill="#DDDDE0"/><path d="M284 488c7.26-.49 7.26-.49 11 2l2 2-4.81-.44-2.71-.24C287 491 287 491 284 490z" fill="#D5C381"/><path d="m497 330 1 2c-3.9 3.53-6.8 5.64-12 7 1.44-3.71 3.12-4.95 6.62-6.75l2.48-1.3z" fill="#EBECEE"/><path d="M357 330h2c-.47 4.25-2.97 6.2-6 9l-3-1 2.94-3.44 1.65-1.93q1.16-1.36 2.41-2.63" fill="#DBDBDC"/><path d="M968 93c2.62.94 2.62.94 5 2v1l-13 3 1-3c2.44-1.12 2.44-1.12 5-2z" fill="#E2E2E5"/><path d="M215 690h1v8h2v4h-2l-1 2c-1.1-4.42-1.15-8.47-1-13z" fill="#1E1E20"/><path d="M406 311c3.87 3.22 4.88 6.15 6 11l-2 2c-1.5-3.37-2-5.2-2-9h-2z" fill="#181818"/><path d="M886 311c2.73 2.73 2.95 4.77 3.1 8.58l-.04 2.67-.02 2.7L889 327c-1.79-3.18-2.55-6.11-3.19-9.69l-.54-2.95L885 312z" fill="#D7D9D8"/><path d="m283 479 1 3h-2l-2 5h-2v-7z" fill="#E6BB61"/><path d="m235 338 2 1v2l-1.86-.11-2.45-.08-2.43-.1c-2.74.35-3.55 1.18-5.26 3.29.38-2.44.38-2.44 1-5 2.99-1.49 5.71-1.12 9-1" fill="#242724"/><path d="M149 663h2v13l-2-1c-.45-2.21-.45-2.21-.69-4.94l-.26-2.71C148 665 148 665 149 663" fill="#F0F2EF"/><path d="M222 613c-1.56 3.82-4.04 6.19-7 9l-3-1 3.88-4 2.17-2.25C220 613 220 613 222 613" fill="#D2D2D5"/><path d="M419 345c1.56 1.44 1.56 1.44 3 4-.03 3.05-.47 6-1 9-1.78-3.06-2.23-5.22-2.12-8.75l.05-2.42z" fill="#151517"/><path d="M543 574c-1 2-1 2-3.07 2.85l-2.49.77-2.51.79-1.93.59v-3c6.62-3.12 6.62-3.12 10-2" fill="#1F2120"/><path d="M365 567c-1.38 3.21-2.92 5.05-5.62 7.25l-1.92 1.58L356 577l-2-1q2.17-2.26 4.38-4.5l2.46-2.53C363 567 363 567 365 567" fill="#0A0A0A"/><path d="M444 485c1 2 1 2 .58 3.91l-.77 2.15-.73 2.16C442 495 442 495 439.89 495.75L438 496c1.45-4.11 3.51-7.43 6-11" fill="#020503"/><path d="M248 340a70 70 0 0 1 12 5v1c-5.56.37-5.56.37-7.69-1.44L251 343l-3-1z" fill="#E9E9EA"/><path d="M551 569v3c-6.62 3.12-6.62 3.12-10 2h2v-2c5.75-3 5.75-3 8-3" fill="#18191A"/><path d="M366 465c2.12.38 2.12.38 4 1v4h-6c0-3 0-3 2-5" fill="#DFC069"/><path d="M414 324h3c1.23 6.4 1.23 6.4.06 9.44L416 335c-1.19-3.88-2-6.92-2-11" fill="#D6D7DB"/><path d="m563 565-2.25 1.31C558 568 558 568 555.81 569.69 554 571 554 571 552 571c1.09-3.17 2.01-4.01 4.94-5.81C560 564 560 564 563 565" fill="#1F211E"/><path d="M246 504h4c1.46 2.65 2 3.89 2 7-2.99-1.1-3.85-1.68-5.25-4.62z" fill="#EEEDEE"/><path d="M283 474h4l1 4h2v5l-2 1c-1.5-3.37-2-5.2-2-9z" fill="#382710"/><path d="m163 642 3 1c-2.58 2.65-4.92 4.94-8 7 0-3 0-3 2.5-5.69z" fill="#D6D9D6"/><path d="M289 637a56 56 0 0 1-4 7l-3-2c4.75-5 4.75-5 7-5m-9 6 2 1h-3z" fill="#1E1D22"/><path d="M573 559v3l-7 3v-4c4.75-2 4.75-2 7-2" fill="#1B1D19"/><path d="M487 339a29 29 0 0 1-9 5c.75-2.44.75-2.44 2-5 2.93-1.32 3.88-1.04 7 0" fill="#DCDDE0"/><path d="M714 232c-2.76 1.8-3.89 2.01-7.25 1.62L704 233v-2c3.81-1.47 6.29-.43 10 1" fill="#DEDEE0"/><path d="M923 120c0 4.39-2.13 5.77-5 9l-1-4z" fill="#E1E2E1"/><path d="m347 582 2 1v2a65 65 0 0 1-10 6l2.88-3.38 1.61-1.89A73 73 0 0 1 347 582" fill="#070808"/><path d="M367 469c1.06 1.81 1.06 1.81 2 4l-1 3-4-1 2-3h-2v-2z" fill="#F6CC6C"/><path d="M571 293v2l-9 4c2.39-4.77 3.71-6 9-6" fill="#E2E6E5"/><path d="m588.56 282.94 3.44.06a29 29 0 0 1-9 5c1.12-4.98 1.12-4.98 5.56-5.06" fill="#E2DEE2"/><path d="M634 530c-2.69 2.25-4.65 3.88-8 5 .25-1.88.25-1.88 1-4 2.91-2.03 3.53-2.16 7-1" fill="#1D1F1F"/><path d="M423 360c1.5 1.31 1.5 1.31 3 3v3l-4 1z" fill="#181918"/><path d="m425 361 3 1v3l2 1v2h-4z" fill="#DDDEDE"/><path d="M417 331c2.52 1.97 2.99 2.97 3.69 6.19L421 340l-3-1z" fill="#ECECEF"/><path d="m561 296 2 1c-2.36 2.53-3.66 3.89-7 5v-3c2.38-1.75 2.38-1.75 5-3" fill="#F1F0F1"/><path d="M933 670a37 37 0 0 1 8 4l-1 3-8-5z" fill="#E4E6E4"/><path d="m351 666 3 3-6 3-2-2 5-2z" fill="#181B17"/><path d="M245 657c1.5 1.31 1.5 1.31 3 3v3h-4c-.62-1.88-.62-1.88-1-4z" fill="#E3E5E6"/><path d="m265 638 3 1-5 5-2-1c2-3 2-3 4-5" fill="#0D0C0C"/><path d="m341 584 2 1c-1.37 3.16-1.99 3.99-5 6l-1-2z" fill="#DDDEDD"/><path d="m242 489 3 1 1 5-3 2c-.6-2.76-1-5.16-1-8" fill="#DDDEDC"/><path d="m374 461 1 4h-8c3.62-4 3.62-4 7-4" fill="#D3BF76"/><path d="M413 317c2.57 2.57 2.54 4.48 3 8h-3q-.57-3.5-1-7z" fill="#ECEDED"/><path d="M904 244c0 3.62-.89 5.11-3 8h-3c1.44-3.37 3.33-5.51 6-8" fill="#EEEEF2"/><path d="M1086 124c3.91 1.27 5.79 2.51 8 6-3.93 0-5.16-1.39-8-4z" fill="#DBDCDD"/><path d="M201 690v3c-2.88.62-2.88.62-6 1l-2-2c5.75-2 5.75-2 8-2" fill="#D3D2D5"/><path d="M272 631h1v5l-4 2v-4h2z" fill="#0B090A"/><path d="m900 572 2 1c.62 3.06.62 3.06 1 6l-3 2z" fill="#F2F2F2"/><path d="m622 533 3 3c-4.43 2.09-4.43 2.09-7.31 1.62L616 537z" fill="#1E1E1E"/><path d="m336 343-1 3-6 1-1-3c2.76-.6 5.16-1 8-1" fill="#1A1A1D"/><path d="M511 325v2l-7 3v-3c2.65-1.46 3.89-2 7-2" fill="#E0E0E0"/><path d="m643 255 1 3-6 2-1-2c3.75-3 3.75-3 6-3" fill="#E2E1E1"/><path d="m984 143-1 2c-3.29 1.1-4.71.8-8 0 3.04-3.04 4.94-3.35 9-2" fill="#E6E8E4"/><path d="m996.85 139.9 6.15.1-1 2c-2.37.75-2.37.75-5 1l-3-2c1-1 1-1 2.85-1.1" fill="#F2F6F2"/><path d="m849 624 2 1v7h-3z" fill="#E1DEE1"/><path d="M572 564c-3.01 3.01-5.82 2.6-10 3 3.16-3.16 5.69-4.44 10-3" fill="#DADBD9"/><path d="m897 559 3 1-1 8h-1z" fill="#DCDCDC"/><path d="m889 522 4 2v2h-2l-1 4z" fill="#D4D4D8"/><path d="m221 395 2 1c.59 2.65.74 5.29 1 8-1.5-1.12-1.5-1.12-3-3-.19-3.19-.19-3.19 0-6" fill="#D0D0D3"/><path d="M413 329c2.52 1.97 2.99 2.97 3.69 6.19L417 338c-2.52-1.97-2.99-2.97-3.69-6.19z" fill="#0A0C0D"/><path d="m818.25 230.81 2.75 1.2c-3.85 2.55-5.59 1.82-10 1 2.72-2.74 3.39-3.17 7.25-2.2" fill="#D8D8DC"/><path d="m1103 140 4 1 1 4-2 1c-3-3.75-3-3.75-3-6" fill="#DEDEDF"/><path d="m208 697 3 3-3 2-2-3z" fill="#D7D7D9"/></svg>