<svg style="background:transparent" version="1.1" xmlns="http://www.w3.org/2000/svg" viewBox="0 0 1248 704"><path d="M522 0a29 29 0 0 1 8 5l2.81 2.12a42 42 0 0 1 3.62 3.32 78 78 0 0 0 4.95 4.44c3.02 2.57 5.81 5.31 8.62 8.12q2.63 2.29 5.31 4.53c2.34 2.04 4.49 4.27 6.69 6.47q4.21 3.62 8.62 7c2.38 2 2.38 2 4.19 4.31 3.01 3.7 6.57 6.61 10.19 9.69l1 1q3.71.2 7.42.22l2.36.04q12.23.15 24.46.2 5.8.03 11.6.12 7 .1 14.01.12 2.67.02 5.33.07c15.66.29 15.66.29 20.81-4.15 1.66-1.86 1.66-1.86 3.01-3.62a60 60 0 0 1 10.16-8.59c2.51-1.92 4.62-4.16 6.84-6.41a556 556 0 0 1 8.36-7.89c2.52-2.35 4.33-4.01 7.64-5.11l2-4c1.63-1.42 1.63-1.42 3.56-2.75 4.03-2.88 7.64-6.06 11.26-9.42 3.73-3.13 5.79-4.84 10.81-4.79l3.93.58 3.94.54c6.28 1.51 10.68 6.07 14.19 11.4L759 15l1.07 1.68c1.31 3.27 1.21 6.42 1.18 9.89l.01 2.32v7.71l.01 5.53v30.72q.01 13.19-.01 26.39v30.5l.01 26.19v15.64q.01 7.35-.01 14.71l.01 5.39-.02 7.38.02 2.14c-.11 13.24-7.34 27.26-16.27 36.81-6.56 6.01-13.63 11.32-20.92 16.41C722 256 722 256 721 258a50 50 0 0 0 1.75 15.94l.54 2.11A74 74 0 0 0 729 291l1.44 2.94L732 297l2.31 4.62 1.3 2.59L743 319l1.55 3.08c2.9 5.84 5.51 11.69 7.45 17.92l.94 2.69c.91 2.84 1.68 5.67 2.44 8.56 1 3.77 2.2 7.29 3.74 10.87a33 33 0 0 1 2.61 11.58c.27 2.3.27 2.3 1.22 5.25 1.67 5.59 1.79 11.44 2.17 17.24l.27 3.5c.77 10.95.74 21.79.17 32.75l-.12 2.6c-.2 4.08-.49 7.97-1.44 11.96l-.54 2.68L762 457l2.13-.95c9.93-3.64 20.36-2.26 29.87 1.95 8.48 5.69 8.48 5.69 9.48 10.12L804 470q2 1.02 4 2c.94 1.74.94 1.74 1.56 3.88l.72 2.42.72 2.7.82 2.98c1.47 5.63 2.84 11.2 3.18 17.02l.2 2.84c.57 16.71-1.59 35.58-7.7 51.22-3.5 9.15-3.5 9.15-3.5 11.94l3.71.17 13.84.63 5.95.27c28.89 1.31 55.8 4.09 83.5 12.93l3.92 1.2c5.5 1.73 10.22 3.69 15.08 6.8l2.94 1.88q5.64 3.91 11.06 8.12l1.93 1.47c3.5 2.81 5.97 5.43 8.03 9.5C955 612 955 612 956.5 614.43c6.71 11.14 8.11 23.85 5.5 36.57-5.48 15.45-17.12 25.65-30 35l-2.74 2.08c-4.6 3.41-8.74 5.73-14.25 7.31-2.01.61-2.01.61-4.95 2.11-3.43 1.68-6.83 2.71-10.5 3.75-2.56.75-2.56.75-5.22 1.78-3.83 1.11-7.38 1.29-11.33 1.31l-2.36.03q-3.84.06-7.67.07l-2.66.02-13.94.08q-7.18.02-14.35.14-5.54.06-11.08.06l-5.29.06c-15.48.26-15.48.26-20.7-4.19-4.31-4.74-6.79-9.8-7.08-16.26.58-8.32 4.04-14.72 10.12-20.35a70 70 0 0 1 9-5l3.25-1.75c8.5-2.83 17.69-2.29 26.56-2.23 8.89-.06 17.5-1.25 26.19-3.02l3.48-.66c6.98-1.37 13.22-3.03 19.52-6.34l2.07-1c4.62-2.39 4.62-2.39 5.87-4.88L904 637l.31-3c-.31-3-.31-3-1.81-5.12-5.62-4.22-11.08-6.27-18.01-7.39-2.49-.49-2.49-.49-5.39-1.48-10.19-3.33-21.48-3.41-32.1-4.01l-5.94-.42c-20.32-1.41-20.32-1.41-29.57-.07-3.66.51-7.11.55-10.8.49-6.92-.05-13.65.17-20.44 1.56-2.25.44-2.25.44-5.13.38-5.68.11-11.64 1.58-15.68 5.62L757 626h-2l-.56 1.75c-1.55 2.43-2.53 3.03-5 4.37C746 634 746 634 745 636l2.15-.32c3.98.45 5.84 2.61 8.47 5.38l1.45 1.41c5.04 5.15 7.52 11.11 8.12 18.26-.46 5.41-4.17 9.55-8 13.15-6.36 4.23-13.27 4.48-20.69 4.43l-2.63-.01c-11.1-.19-21.79-1.86-31.95-6.53C700 671 700 671 697 671l1.61 1.1c7.38 5.26 11.41 11.01 13.39 19.9.38 4.28.36 7.91-1 12q-13.79.1-27.56.16-6.4.01-12.8.07-6.18.05-12.36.05l-4.71.04-6.6.02-3.79.02c-3.45-.39-4.78-.92-7.18-3.36a44 44 0 0 1-4.62-16.62l-.29-3.54L631 678l1-1c.03-2.26-.07-4.51-.16-6.77C632 668 632 668 634 665h-15l1 4v7l1 1c.49 5.43-.07 9.89-2 15l-.38 3c-.8 3.86-2.07 5.98-4.62 9-3.25.72-3.25.72-7.16.68h-2.15q-3.53-.01-7.05-.09l-4.89-.03q-6.44-.04-12.86-.15-6.57-.08-13.14-.12-12.87-.1-25.75-.29c-2.4-4.2-1.94-7.39-1-12l.5-2.46c1.97-7.95 6.17-13.45 12.94-18.04L556 670l-3.69 1.25-2.51.82q-2.85.94-5.66 1.98c-13.03 4.54-33 7.04-46.05 1.08-5.02-2.76-9.1-5.82-10.8-11.51-.67-6.09 2.21-12.72 5.71-17.62l1.75-2.5A37 37 0 0 1 504 636h2v-2a97 97 0 0 0-5.19-3.81A76 76 0 0 1 490 621q-1.96-1.45-3.94-2.88a45 45 0 0 1-8.75-8.53c-1.31-1.59-1.31-1.59-3.5-3.71-1.81-1.88-1.81-1.88-3.15-4.14a88 88 0 0 0-6.04-8.49c-3.71-4.9-6.78-9.82-9.62-15.25l-1.56-2.44c-2.25-4-3.79-8.28-5.44-12.56l-1.03-2.55c-2.65-6.68-4.6-13.4-5.97-20.45l-.79-3.66c-3.98-19.69-5.96-45.42 4.55-63.58 6.53-9.24 14.77-16.71 26.24-18.76 6.62-.51 12.61.27 19 2l-.4-1.98c-.94-4.66-1.87-9.32-2.6-14.02l-.51-2.9c-2.48-17.6-.36-36.02 2.16-53.48q.46-3.63.76-7.27c.52-4.73 1.99-8.89 3.59-13.35l2.09-6.36 2.29-6.95 1.13-3.48a218 218 0 0 1 15.3-35.15c17.31-32.76 17.31-32.76 17.57-48.25l.08-2.42c-1.07-5.57-5.78-8.58-10.15-11.7-12.75-9.38-24.44-19.35-27.57-35.49l-.5-2.51c-1.65-8.84-1.8-17.55-1.74-26.52l-.02-5.38q-.01-7.2.02-14.41v-15.16l.03-25.4q.04-14.66.02-29.33-.01-14.16.01-28.32V54.16l.03-14.13v-5.17l.02-7.08.01-3.99c.71-7.12 2.76-11.97 8.32-16.6l2.59-2.21L505 3l1.93-1.73C511.38-1.45 517-.65 522 0m168 665v3l6 2a295 295 0 0 0-5-5z" fill="#171A16"/><path d="M522 0a29 29 0 0 1 8 5l2.81 2.12a42 42 0 0 1 3.62 3.32 78 78 0 0 0 4.95 4.44c3.02 2.57 5.81 5.31 8.62 8.12q2.63 2.29 5.31 4.53c2.34 2.04 4.49 4.27 6.69 6.47q4.21 3.62 8.62 7c2.38 2 2.38 2 4.19 4.31 3.01 3.7 6.57 6.61 10.19 9.69l1 1q3.71.2 7.42.22l2.36.04q12.23.15 24.46.2 5.8.03 11.6.12 7 .1 14.01.12 2.67.02 5.33.07c15.66.29 15.66.29 20.81-4.15 1.66-1.86 1.66-1.86 3.01-3.62a60 60 0 0 1 10.16-8.59c2.51-1.92 4.62-4.16 6.84-6.41a556 556 0 0 1 8.36-7.89c2.52-2.35 4.33-4.01 7.64-5.11l2-4c1.63-1.42 1.63-1.42 3.56-2.75 4.03-2.88 7.64-6.06 11.26-9.42 3.73-3.13 5.79-4.84 10.81-4.79l3.93.58 3.94.54c6.28 1.51 10.68 6.07 14.19 11.4L759 15l1.07 1.68c1.31 3.27 1.21 6.42 1.18 9.89l.01 2.32v7.71l.01 5.53v30.72q.01 13.19-.01 26.39v30.5l.01 26.19v15.64q.01 7.35-.01 14.71l.01 5.39-.02 7.38.02 2.14c-.11 13.24-7.34 27.26-16.27 36.81-6.56 6.01-13.63 11.32-20.92 16.41C722 256 722 256 721 258a50 50 0 0 0 1.75 15.94l.54 2.11A74 74 0 0 0 729 291l1.44 2.94L732 297l2.31 4.62 1.3 2.59L743 319l1.55 3.08c2.9 5.84 5.51 11.69 7.45 17.92l.94 2.69c.91 2.84 1.68 5.67 2.44 8.56 1 3.77 2.2 7.29 3.74 10.87a33 33 0 0 1 2.61 11.58c.27 2.3.27 2.3 1.22 5.25 1.67 5.59 1.79 11.44 2.17 17.24l.27 3.5c.77 10.95.74 21.79.17 32.75l-.12 2.6c-.2 4.08-.49 7.97-1.44 11.96l-.54 2.68L762 457l2.13-.95c9.93-3.64 20.36-2.26 29.87 1.95 8.48 5.69 8.48 5.69 9.48 10.12L804 470q2 1.02 4 2c.94 1.74.94 1.74 1.56 3.88l.72 2.42.72 2.7.82 2.98c1.47 5.63 2.84 11.2 3.18 17.02l.2 2.84c.57 16.71-1.59 35.58-7.7 51.22-3.5 9.15-3.5 9.15-3.5 11.94l3.71.17 13.84.63 5.95.27c28.89 1.31 55.8 4.09 83.5 12.93l3.92 1.2c5.5 1.73 10.22 3.69 15.08 6.8l2.94 1.88q5.64 3.91 11.06 8.12l1.93 1.47c3.5 2.81 5.97 5.43 8.03 9.5C955 612 955 612 956.5 614.43c6.71 11.14 8.11 23.85 5.5 36.57-5.48 15.45-17.12 25.65-30 35l-2.74 2.08c-4.6 3.41-8.74 5.73-14.25 7.31-2.01.61-2.01.61-4.95 2.11-3.43 1.68-6.83 2.71-10.5 3.75-2.56.75-2.56.75-5.22 1.78-3.83 1.11-7.38 1.29-11.33 1.31l-2.36.03q-3.84.06-7.67.07l-2.66.02-13.94.08q-7.18.02-14.35.14-5.54.06-11.08.06l-5.29.06c-15.48.26-15.48.26-20.7-4.19-4.31-4.74-6.79-9.8-7.08-16.26.58-8.32 4.04-14.72 10.12-20.35a70 70 0 0 1 9-5l3.25-1.75c8.5-2.83 17.69-2.29 26.56-2.23 8.89-.06 17.5-1.25 26.19-3.02l3.48-.66c6.98-1.37 13.22-3.03 19.52-6.34l2.07-1c4.62-2.39 4.62-2.39 5.87-4.88L904 637l.31-3c-.31-3-.31-3-1.81-5.12-5.62-4.22-11.08-6.27-18.01-7.39-2.49-.49-2.49-.49-5.39-1.48-10.19-3.33-21.48-3.41-32.1-4.01l-5.94-.42c-20.32-1.41-20.32-1.41-29.57-.07-3.66.51-7.11.55-10.8.49-6.92-.05-13.65.17-20.44 1.56-2.25.44-2.25.44-5.13.38-5.68.11-11.64 1.58-15.68 5.62L757 626h-2l-.56 1.75c-1.55 2.43-2.53 3.03-5 4.37C746 634 746 634 745 636l2.15-.32c3.98.45 5.84 2.61 8.47 5.38l1.45 1.41c5.04 5.15 7.52 11.11 8.12 18.26-.46 5.41-4.17 9.55-8 13.15-6.36 4.23-13.27 4.48-20.69 4.43l-2.63-.01c-11.1-.19-21.79-1.86-31.95-6.53C700 671 700 671 697 671l1.61 1.1c7.38 5.26 11.41 11.01 13.39 19.9.38 4.28.36 7.91-1 12h-3l.18-2.96c.28-8.13.26-14.54-5.18-21.04-4.71-5.03-9.74-8.2-16-11v-8a33 33 0 0 1 8.38 4.31c11.21 7.23 24.37 8.87 37.37 8.88l3.46.03c15.97.03 15.97.03 21.29-4.22 3.62-4.83 3.14-10.18 2.5-16-2.42-6.56-7.92-12.1-14.23-15.04A106 106 0 0 0 740 637c1.21-3.64 2.23-4.07 5.38-6.12 4.96-3.36 9.57-7.03 14.17-10.86L762 618l1.84-1.58c2.52-1.66 4.15-1.91 7.14-2.15l2.84-.24 2.93-.22 2.98-.25q3.63-.3 7.27-.56l.75-2.14c1.41-3.23 3.2-5.74 5.31-8.55 3.86-5.16 3.86-5.16 4.94-7.31h2l.32-1.64c.85-2.94 2.15-5.45 3.56-8.17A179 179 0 0 0 810 572l-12-1c2.64-8.19 2.64-8.19 4.14-11.54 10.16-23.25 12.8-53.41 5.89-77.91-3.58-8.79-8.75-16.66-17.41-21.11-8.96-3.56-19.54-4.12-28.62-.44a83 83 0 0 0-4 2q.77-6.5 1.75-12.98c3.44-23.37 3.68-46.78-.75-70.02l-.69-3.87a156 156 0 0 0-6.07-21.5c-1.1-3.23-2.06-6.47-2.99-9.75-4.24-13.82-10.56-26.81-17.37-39.5-7.7-14.36-16.58-31.55-13.88-48.38 1.79-2.81 4.22-4.23 7-6 16.9-12.16 28.32-24.03 32-45 .54-6.08.42-12.21.4-18.31l.02-5.46.02-14.74v-12.33q.03-14.55.01-29.09-.02-14.98.03-29.98.02-12.89.02-25.79-.01-7.69.01-15.37.03-7.23 0-14.45-.01-2.65.01-5.3c.1-18.29.1-18.29-5.93-24.68-5.04-4.55-9.46-5.69-16.02-5.96-7.26 1.3-12.45 5.75-17.57 10.77l-3.68 3.51-1.75 1.69a153 153 0 0 1-5.69 5.11c-3.36 2.9-6.62 5.88-9.88 8.88a532 532 0 0 1-12 10.75c-3.24 2.83-6.42 5.74-9.61 8.64L673 55l-2.15 2.09c-3.61 2.42-6.59 2.51-10.79 2.51l-2.37.04q-3.89.06-7.76.07l-5.43.04q-5.67.04-11.36.05-7.26.02-14.5.15-5.6.07-11.21.06l-5.34.06c-15.62.3-15.62.3-22.02-5.42A199 199 0 0 1 576 50a125 125 0 0 0-3.88-3.38 584 584 0 0 1-11.7-10.57 447 447 0 0 0-10.3-9.18 324 324 0 0 1-6.44-5.87C524.74 3.45 524.74 3.45 514.34 3.76c-6.76.7-10.84 3.1-15.11 8.33-3.04 4.74-3.52 9.04-3.51 14.57l-.02 2.32q-.03 3.83-.02 7.67l-.03 5.5q-.04 7.49-.05 14.96l-.02 9.36-.06 29.35q-.01 16.89-.1 33.78-.06 13.08-.07 26.16 0 7.8-.05 15.59-.04 7.36-.02 14.71.01 2.67-.02 5.36c-.19 17.99 3.93 33.37 16.76 46.67 5.05 4.73 10.69 8.67 16.37 12.59 4.51 3.12 4.51 3.12 5.61 5.32 1.01 10.92-.83 19.91-5 30l-.86 2.1A274 274 0 0 1 516 313.38c-11.89 22.1-19.1 46.09-24 70.62l-.57 2.74c-1.67 8.7-1.78 17.31-1.74 26.14v2.32c.02 12.05.84 23.75 2.95 35.64.56 3.37.96 6.76 1.36 10.16l-1.59-.66c-8.99-3.23-19.51-4.25-28.7-1.27-9.67 4.89-15.85 12.78-19.4 22.91-9.29 31.94-1 67.41 14.58 96.03A163 163 0 0 0 482 610l2.39 2.64c7.97 8.4 18.04 17.38 28.61 22.36v2l-1.94.66c-7.55 2.77-13.38 5.97-17.5 13.09a22 22 0 0 0-.44 17.19c4.02 4.41 9.19 5.84 14.99 6.19 20.81.66 38.75-2.43 56.89-13.13v9l-2.41 1.07c-9.23 4.3-14.57 8.47-18.59 17.93a78 78 0 0 0-.69 7.88l-.1 2.08L543 704h-2c-2.3-3.24-2.1-5.9-1.46-9.73L540 692l.5-2.46c1.97-7.95 6.17-13.45 12.94-18.04L556 670l-3.69 1.25-2.51.82q-2.85.94-5.66 1.98c-13.03 4.54-33 7.04-46.05 1.08-5.02-2.76-9.1-5.82-10.8-11.51-.67-6.09 2.21-12.72 5.71-17.62l1.75-2.5A37 37 0 0 1 504 636h2v-2a97 97 0 0 0-5.19-3.81A76 76 0 0 1 490 621q-1.96-1.45-3.94-2.88a45 45 0 0 1-8.75-8.53c-1.31-1.59-1.31-1.59-3.5-3.71-1.81-1.88-1.81-1.88-3.15-4.14a88 88 0 0 0-6.04-8.49c-3.71-4.9-6.78-9.82-9.62-15.25l-1.56-2.44c-2.25-4-3.79-8.28-5.44-12.56l-1.03-2.55c-2.65-6.68-4.6-13.4-5.97-20.45l-.79-3.66c-3.98-19.69-5.96-45.42 4.55-63.58 6.53-9.24 14.77-16.71 26.24-18.76 6.62-.51 12.61.27 19 2l-.4-1.98c-.94-4.66-1.87-9.32-2.6-14.02l-.51-2.9c-2.48-17.6-.36-36.02 2.16-53.48q.46-3.63.76-7.27c.52-4.73 1.99-8.89 3.59-13.35l2.09-6.36 2.29-6.95 1.13-3.48a218 218 0 0 1 15.3-35.15c17.31-32.76 17.31-32.76 17.57-48.25l.08-2.42c-1.07-5.57-5.78-8.58-10.15-11.7-12.75-9.38-24.44-19.35-27.57-35.49l-.5-2.51c-1.65-8.84-1.8-17.55-1.74-26.52l-.02-5.38q-.01-7.2.02-14.41v-15.16l.03-25.4q.04-14.66.02-29.33-.01-14.16.01-28.32V54.16l.03-14.13v-5.17l.02-7.08.01-3.99c.71-7.12 2.76-11.97 8.32-16.6l2.59-2.21L505 3l1.93-1.73C511.38-1.45 517-.65 522 0m168 665v3l6 2a295 295 0 0 0-5-5z" fill="#181A17"/><path d="M522 0a29 29 0 0 1 8 5l2.81 2.12a42 42 0 0 1 3.62 3.32 78 78 0 0 0 4.95 4.44c3.02 2.57 5.81 5.31 8.62 8.12q2.63 2.29 5.31 4.53c2.34 2.04 4.49 4.27 6.69 6.47q4.21 3.62 8.62 7c2.38 2 2.38 2 4.19 4.31 3.01 3.7 6.57 6.61 10.19 9.69l1 1q3.71.2 7.42.22l2.36.04q12.23.15 24.46.2 5.8.03 11.6.12 7 .1 14.01.12 2.67.02 5.33.07c15.66.29 15.66.29 20.81-4.15 1.66-1.86 1.66-1.86 3.01-3.62a60 60 0 0 1 10.16-8.59c2.51-1.92 4.62-4.16 6.84-6.41a556 556 0 0 1 8.36-7.89c2.52-2.35 4.33-4.01 7.64-5.11l2-4c1.63-1.42 1.63-1.42 3.56-2.75 4.03-2.88 7.64-6.06 11.26-9.42 3.73-3.13 5.79-4.84 10.81-4.79l3.93.58 3.94.54c6.28 1.51 10.68 6.07 14.19 11.4L759 15l1.07 1.68c1.31 3.27 1.21 6.42 1.18 9.89l.01 2.32v7.71l.01 5.53v30.72q.01 13.19-.01 26.39v30.5l.01 26.19v15.64q.01 7.35-.01 14.71l.01 5.39-.02 7.38.02 2.14c-.11 13.24-7.34 27.26-16.27 36.81-6.56 6.01-13.63 11.32-20.92 16.41C722 256 722 256 721 258a50 50 0 0 0 1.75 15.94l.54 2.11A74 74 0 0 0 729 291l1.44 2.94L732 297l2.31 4.62 1.3 2.59L743 319l1.55 3.08c2.9 5.84 5.51 11.69 7.45 17.92l.94 2.69c.91 2.84 1.68 5.67 2.44 8.56 1 3.77 2.2 7.29 3.74 10.87a33 33 0 0 1 2.61 11.58c.27 2.3.27 2.3 1.22 5.25 1.67 5.59 1.79 11.44 2.17 17.24l.27 3.5c.77 10.95.74 21.79.17 32.75l-.12 2.6c-.2 4.08-.49 7.97-1.44 11.96l-.54 2.68L762 457l2.13-.95c9.93-3.64 20.36-2.26 29.87 1.95 8.48 5.69 8.48 5.69 9.48 10.12L804 470q2 1.02 4 2c.94 1.74.94 1.74 1.56 3.88l.72 2.42.72 2.7.82 2.98c1.47 5.63 2.84 11.2 3.18 17.02l.2 2.84c.57 16.71-1.59 35.58-7.7 51.22-3.5 9.15-3.5 9.15-3.5 11.94l3.71.17 13.84.63 5.95.27c28.89 1.31 55.8 4.09 83.5 12.93l3.92 1.2c5.5 1.73 10.22 3.69 15.08 6.8l2.94 1.88q5.64 3.91 11.06 8.12l1.93 1.47c3.5 2.81 5.97 5.43 8.03 9.5C955 612 955 612 956.5 614.43c6.71 11.14 8.11 23.85 5.5 36.57-5.48 15.45-17.12 25.65-30 35l-2.74 2.08c-4.6 3.41-8.74 5.73-14.25 7.31-2.01.61-2.01.61-4.95 2.11-3.43 1.68-6.83 2.71-10.5 3.75-2.56.75-2.56.75-5.41 1.83-3.65 1.06-6.74 1.12-10.53 1.04l-3.77-.05L877 704c3.49-2.32 5.74-2.53 9.88-3.12 24.19-4.1 50.22-16.95 65.12-36.88 6.77-11.84 9.61-26.1 6.09-39.45A71 71 0 0 0 954 616l-1.32-2.42c-11.68-19.34-35.48-28.52-56.36-33.83-4.75-1.1-9.52-1.96-14.32-2.75l-3.21-.53q-5.26-.85-10.54-1.66l-3.3-.5c-15.57-2.27-31.19-2.54-46.89-2.87l-5.86-.13L798 571l1.42-4.33.81-2.43c.9-2.61 2.02-5.09 3.15-7.62 8.67-22.62 12.94-54.67 3.56-77.74-4.16-9.32-10.45-16.12-19.94-19.88-8.69-2.9-19.22-1.74-27.38 2.12L758 462q.77-6.5 1.75-12.98c3.44-23.37 3.68-46.78-.75-70.02l-.69-3.87a156 156 0 0 0-6.07-21.5c-1.1-3.23-2.06-6.47-2.99-9.75-4.24-13.82-10.56-26.81-17.37-39.5-7.7-14.36-16.58-31.55-13.88-48.38 1.79-2.81 4.22-4.23 7-6 16.9-12.16 28.32-24.03 32-45 .54-6.08.42-12.21.4-18.31l.02-5.46.02-14.74v-12.33q.03-14.55.01-29.09-.02-14.98.03-29.98.02-12.89.02-25.79-.01-7.69.01-15.37.03-7.23 0-14.45-.01-2.65.01-5.3c.1-18.29.1-18.29-5.93-24.68-5.04-4.55-9.46-5.69-16.02-5.96-7.26 1.3-12.45 5.75-17.57 10.77l-3.68 3.51-1.75 1.69a153 153 0 0 1-5.69 5.11c-3.36 2.9-6.62 5.88-9.88 8.88a532 532 0 0 1-12 10.75c-3.24 2.83-6.42 5.74-9.61 8.64L673 55l-2.15 2.09c-3.61 2.42-6.59 2.51-10.79 2.51l-2.37.04q-3.89.06-7.76.07l-5.43.04q-5.67.04-11.36.05-7.26.02-14.5.15-5.6.07-11.21.06l-5.34.06c-15.62.3-15.62.3-22.02-5.42A199 199 0 0 1 576 50a125 125 0 0 0-3.88-3.38 584 584 0 0 1-11.7-10.57 447 447 0 0 0-10.3-9.18 324 324 0 0 1-6.44-5.87C524.74 3.45 524.74 3.45 514.34 3.76c-6.76.7-10.84 3.1-15.11 8.33-3.04 4.74-3.52 9.04-3.51 14.57l-.02 2.32q-.03 3.83-.02 7.67l-.03 5.5q-.04 7.49-.05 14.96l-.02 9.36-.06 29.35q-.01 16.89-.1 33.78-.06 13.08-.07 26.16 0 7.8-.05 15.59-.04 7.36-.02 14.71.01 2.67-.02 5.36c-.19 17.99 3.93 33.37 16.76 46.67 5.05 4.73 10.69 8.67 16.37 12.59 4.51 3.12 4.51 3.12 5.61 5.32 1.01 10.92-.83 19.91-5 30l-.86 2.1A274 274 0 0 1 516 313.38c-11.89 22.1-19.1 46.09-24 70.62l-.57 2.74c-1.67 8.7-1.78 17.31-1.74 26.14v2.32c.02 12.05.84 23.75 2.95 35.64.56 3.37.96 6.76 1.36 10.16l-1.59-.66c-8.99-3.23-19.51-4.25-28.7-1.27-9.67 4.89-15.85 12.78-19.4 22.91-9.29 31.94-1 67.41 14.58 96.03A163 163 0 0 0 482 610l2.39 2.64c7.97 8.4 18.04 17.38 28.61 22.36v2l-1.94.66c-7.55 2.77-13.38 5.97-17.5 13.09a22 22 0 0 0-.44 17.19c4.02 4.41 9.19 5.84 14.99 6.19 20.81.66 38.75-2.43 56.89-13.13v9l-2.41 1.07c-9.23 4.3-14.57 8.47-18.59 17.93a78 78 0 0 0-.69 7.88l-.1 2.08L543 704h-2c-2.3-3.24-2.1-5.9-1.46-9.73L540 692l.5-2.46c1.97-7.95 6.17-13.45 12.94-18.04L556 670l-3.69 1.25-2.51.82q-2.85.94-5.66 1.98c-13.03 4.54-33 7.04-46.05 1.08-5.02-2.76-9.1-5.82-10.8-11.51-.67-6.09 2.21-12.72 5.71-17.62l1.75-2.5A37 37 0 0 1 504 636h2v-2a97 97 0 0 0-5.19-3.81A76 76 0 0 1 490 621q-1.96-1.45-3.94-2.88a45 45 0 0 1-8.75-8.53c-1.31-1.59-1.31-1.59-3.5-3.71-1.81-1.88-1.81-1.88-3.15-4.14a88 88 0 0 0-6.04-8.49c-3.71-4.9-6.78-9.82-9.62-15.25l-1.56-2.44c-2.25-4-3.79-8.28-5.44-12.56l-1.03-2.55c-2.65-6.68-4.6-13.4-5.97-20.45l-.79-3.66c-3.98-19.69-5.96-45.42 4.55-63.58 6.53-9.24 14.77-16.71 26.24-18.76 6.62-.51 12.61.27 19 2l-.4-1.98c-.94-4.66-1.87-9.32-2.6-14.02l-.51-2.9c-2.48-17.6-.36-36.02 2.16-53.48q.46-3.63.76-7.27c.52-4.73 1.99-8.89 3.59-13.35l2.09-6.36 2.29-6.95 1.13-3.48a218 218 0 0 1 15.3-35.15c17.31-32.76 17.31-32.76 17.57-48.25l.08-2.42c-1.07-5.57-5.78-8.58-10.15-11.7-12.75-9.38-24.44-19.35-27.57-35.49l-.5-2.51c-1.65-8.84-1.8-17.55-1.74-26.52l-.02-5.38q-.01-7.2.02-14.41v-15.16l.03-25.4q.04-14.66.02-29.33-.01-14.16.01-28.32V54.16l.03-14.13v-5.17l.02-7.08.01-3.99c.71-7.12 2.76-11.97 8.32-16.6l2.59-2.21L505 3l1.93-1.73C511.38-1.45 517-.65 522 0" fill="#E0E2E0"/><path d="M673 495c1.31 3.92.58 5.2-1 9a69 69 0 0 1-9 13h-2v2h-2l-.75 1.94C657 523 657 523 654.88 523.75L653 524v2l-13 7-.06 4.44-.04 2.49c.1 3.07.1 3.07.6 6.81.76 6.8.66 13.63.67 20.47l.01 4.47.01 9.37.02 9.42c.06 15.73.01 31.41-1.1 47.1l-.23 3.35c-.54 6.8-1.56 13.39-2.88 20.08h-22c-2.71-18.03-3.73-35.79-4-54l-.07-3.81c-.37-23.78.8-47.46 2.07-71.19l-2.87-.93c-4.2-1.44-7.49-3.58-11.13-6.07l-2.2-1.43c-7.06-4.95-11.22-11.41-15.8-18.57l-2-3c-.12-3.19-.12-3.19 0-6a112 112 0 0 1 10.62 9.88c9.69 9.78 22.56 16.41 36.38 16.62 13.31-.17 23.88-6.28 34-14.5h2v-2h2v-2h2v-2h2l.81-1.94C670 498 670 498 673 497z" fill="#000100"/><path d="M740 470h1c.65 36.8-5.96 71.53-19 106l-1.57 4.24a574 574 0 0 1-6.55 17.01c-2.23 5.5-4.07 11.1-5.88 16.75l-1.04 3.23a221 221 0 0 0-8.15 36.02l-.53 3.74q-.66 4.5-1.28 9.01c-3.97-1.52-7.03-2.87-10-6-.23-2.93-.23-2.93.38-6.44l.32-1.96q.6-3.3 1.3-6.6l.49-2.38c3.84-18.03 8.9-35.88 16.02-52.89 2.91-7.09 5.14-14.45 7.49-21.73h2l.12-3.5c.59-5.39 2.53-10.13 4.51-15.12 2.39-6.15 3.97-12.33 5.41-18.76.82-3.09 1.9-5.76 3.2-8.66 1.57-4.05 2.35-8.34 3.26-12.58l1.3-5.92.62-2.86q1.09-4.84 2.27-9.66a181 181 0 0 0 2.88-16.36C739 472 739 472 740 470" fill="#010201"/><path d="M582 134.56a38 38 0 0 1 4 2.44l2.32 1.51c6.8 4.83 11.95 10.71 14.06 18.93 1.72 10.35.91 19.53-5.33 28.3-7.14 8.41-15.22 13.37-26.23 14.48-10.37.43-19-3.95-26.58-10.82-7.28-7.75-8.94-16.35-8.62-26.78 1.05-10.04 5.89-16.93 13.43-23.38 9.07-7.08 22.02-9.19 32.95-4.68M544 146c-4.16 5.63-3.82 12.3-3 19 2.22 7.43 6.63 12.67 13 17 6.63 3.17 12.82 2.6 19.62.44 7.37-2.93 10.6-7.27 13.76-14.38 3.05-8.56 1.76-14.2-1.9-22.35-2.8-5.13-6.86-8.08-12.37-10.2-12.34-2.97-21.25 1.1-29.11 10.5" fill="#E9C14D"/><path d="M698.56 138.5A36.8 36.8 0 0 1 713 159c1.16 11.25-.34 20.91-7.56 29.81-7.64 7.95-16.34 11.22-27.19 11.5-9.5-.1-17.33-3.87-24.25-10.31-6.22-6.88-8.58-14.73-8.5-23.88l.02-2.39c.27-8.87 3.24-14.56 9.23-21.04 12.65-11.84 29.01-12.91 43.81-4.19m-44.09 6.52c-3.95 5.3-5.18 11.78-4.95 18.3 1.28 7.24 4.8 13.83 10.6 18.37 6.02 4.1 12.81 4.05 19.88 3.31 7.84-2.27 12.96-6.99 17-14 2.47-5.89 3.23-12.46 1.12-18.52-2.67-5.87-5.8-9.84-11.12-13.48l-2.63-1.88c-11.63-3.87-21.75-.83-29.9 7.9" fill="#ECC454"/><path d="M495 210h2l.63 2.46c4.51 16.2 13.21 25.95 26.75 35.35l4.83 3.4 2.14 1.48C533 254 533 254 534 256c1.01 10.92-.83 19.91-5 30l-.86 2.1A274 274 0 0 1 516 313.38c-11.89 22.1-19.1 46.09-24 70.62l-.57 2.74c-1.67 8.7-1.78 17.31-1.74 26.14v2.32c.02 12.05.84 23.75 2.95 35.64.56 3.37.96 6.76 1.36 10.16l-1.59-.66c-8.99-3.23-19.51-4.25-28.7-1.27-9.67 4.89-15.85 12.78-19.4 22.91-9.29 31.94-1 67.41 14.58 96.03A163 163 0 0 0 482 610l2.39 2.64c7.97 8.4 18.04 17.38 28.61 22.36v2l-1.94.66c-7.55 2.77-13.38 5.97-17.5 13.09a22 22 0 0 0-.44 17.19c4.02 4.41 9.19 5.84 14.99 6.19 20.81.66 38.75-2.43 56.89-13.13v9l-2.41 1.07c-9.23 4.3-14.57 8.47-18.59 17.93a78 78 0 0 0-.69 7.88l-.1 2.08L543 704h-2c-2.3-3.24-2.1-5.9-1.46-9.73L540 692l.5-2.46c1.97-7.95 6.17-13.45 12.94-18.04L556 670l-3.69 1.25-2.51.82q-2.85.94-5.66 1.98c-13.03 4.54-33 7.04-46.05 1.08-5.02-2.76-9.1-5.82-10.8-11.51-.67-6.09 2.21-12.72 5.71-17.62l1.75-2.5A37 37 0 0 1 504 636h2v-2a97 97 0 0 0-5.19-3.81A76 76 0 0 1 490 621q-1.96-1.45-3.94-2.88a45 45 0 0 1-8.75-8.53c-1.31-1.59-1.31-1.59-3.5-3.71-1.81-1.88-1.81-1.88-3.15-4.14a88 88 0 0 0-6.04-8.49c-3.71-4.9-6.78-9.82-9.62-15.25l-1.56-2.44c-2.25-4-3.79-8.28-5.44-12.56l-1.03-2.55c-2.65-6.68-4.6-13.4-5.97-20.45l-.79-3.66c-3.98-19.69-5.96-45.42 4.55-63.58 6.53-9.24 14.77-16.71 26.24-18.76 6.62-.51 12.61.27 19 2l-.4-1.98c-.94-4.66-1.87-9.32-2.6-14.02l-.51-2.9c-2.48-17.6-.36-36.02 2.16-53.48q.46-3.63.76-7.27c.52-4.73 1.99-8.89 3.59-13.35l2.09-6.36 2.29-6.95 1.13-3.48a218 218 0 0 1 15.3-35.15c17.31-32.76 17.31-32.76 17.57-48.25l.08-2.42c-1.07-5.57-5.78-8.58-10.15-11.7-8.08-5.95-14.9-11.74-20.81-19.88l-1.31-1.8c-4.04-5.78-4.33-10.09-4.19-17.01" fill="#E1E3E1"/><path d="M512 471c1.78 3.15 2.45 5.92 2.97 9.49.98 6.27 2.18 12.48 3.47 18.7l.62 3.07c1.09 5.31 2.4 10.39 4.19 15.49 1.41 4.21 2.44 8.52 3.56 12.81a197 197 0 0 0 6.87 21.38 311 311 0 0 1 5.88 16.75 380 380 0 0 0 7.13 19.91c20.43 53.12 20.43 53.12 18.31 72.4-3.13 2.64-4.86 4-9 4a413 413 0 0 1-3.34-18.14c-3.74-22.75-11.1-43.74-19.78-65.05-9.4-23.19-16.5-48.02-19.63-72.86q-.37-2.79-.82-5.56c-.77-6.26-.53-12.59-.49-18.89l.01-3.94z" fill="#000201"/><path d="M522 0a29 29 0 0 1 8 5l2.81 2.12a42 42 0 0 1 3.62 3.32 78 78 0 0 0 4.95 4.44c3.02 2.57 5.81 5.31 8.62 8.12q2.63 2.29 5.31 4.53c2.34 2.04 4.49 4.27 6.69 6.47q4.21 3.62 8.62 7c2.38 2 2.38 2 4.19 4.31 3.01 3.7 6.57 6.61 10.19 9.69l1 1q3.71.2 7.42.22l2.36.04q12.23.15 24.46.2 5.8.03 11.6.12 7 .1 14.01.12 2.67.02 5.33.07c15.66.29 15.66.29 20.81-4.15 1.66-1.86 1.66-1.86 3.01-3.62a60 60 0 0 1 10.16-8.59c2.51-1.92 4.62-4.16 6.84-6.41a556 556 0 0 1 8.36-7.89c2.52-2.35 4.33-4.01 7.64-5.11l2-4c1.63-1.42 1.63-1.42 3.56-2.75 4.03-2.88 7.64-6.06 11.26-9.42 3.73-3.13 5.79-4.84 10.81-4.79l3.93.58 3.94.54c6.28 1.51 10.68 6.07 14.19 11.4L759 15l1.07 1.68c1.31 3.27 1.21 6.43 1.18 9.9l.01 2.33v7.72l.01 5.54v30.76q.01 13.21-.01 26.42v30.55l.01 26.21v15.67q.01 7.37-.01 14.72l.01 5.41-.02 7.38.02 2.16c-.03 3.96-.53 6.99-2.27 10.55h-2l.01-2.99q.14-36.05.2-72.09l.09-34.86q.06-15.2.08-30.38 0-8.05.04-16.09.04-7.58.03-15.15l.03-5.55q.02-3.8 0-7.6l.04-2.21c-.07-5.95-1.85-11.18-5.93-15.61-5.1-4.49-9.44-5.66-16.02-5.93-7.26 1.3-12.45 5.75-17.57 10.77l-3.68 3.51-1.75 1.69a153 153 0 0 1-5.69 5.11c-3.36 2.9-6.62 5.88-9.88 8.88a532 532 0 0 1-12 10.75c-3.24 2.83-6.42 5.74-9.61 8.64L673 55l-2.15 2.09c-3.61 2.42-6.59 2.51-10.79 2.51l-2.37.04q-3.89.06-7.76.07l-5.43.04q-5.67.04-11.36.05-7.26.02-14.5.15-5.6.07-11.21.06l-5.34.06c-15.62.3-15.62.3-22.02-5.42A199 199 0 0 1 576 50a125 125 0 0 0-3.88-3.38 584 584 0 0 1-11.7-10.57 447 447 0 0 0-10.3-9.18 324 324 0 0 1-6.44-5.87C524.74 3.45 524.74 3.45 514.34 3.76c-6.76.7-10.84 3.1-15.11 8.33-3.08 4.8-3.51 9.14-3.46 14.74v2.37q0 3.93.03 7.85l.01 5.64.04 12.12q.04 9.58.05 19.16.03 20.32.1 40.65.07 21.96.11 43.92a12097 12097 0 0 0 .1 36.39q.02 3.74.02 7.49l.02 2.22c-.02 3.68-.15 5.2-2.25 8.36-2.51-9.17-2.29-18.39-2.27-27.81l-.02-5.37-.01-14.52-.01-12.15-.01-28.65q.01-14.76-.02-29.53-.03-12.7-.02-25.39 0-7.58-.02-15.15V34.98q-.02-3.57.01-7.14l-.03-2.06c.07-6.31 1.56-11.7 5.74-16.42l2.6-2.17 2.59-2.21L505 3l1.93-1.73C511.38-1.45 517-.65 522 0" fill="#EAEEEA"/><path d="m866 614 2.22.31c12.52 1.83 28.97 4.52 37.66 14.57 2.42 3.56 2.91 4.92 2.12 9.12-3.94 8.04-10.88 10.76-18.94 13.62-18.24 5.89-37.52 6.78-56.55 7.58-10.33.5-18.26 2.68-25.88 9.96-4.54 5.13-5.19 10.53-4.98 17.13.74 5.73 3.07 9.87 7.47 13.59L812 702l2 2c-3.24 0-5.35-.45-7.85-2.57-4.63-5.03-8.05-9.95-8.2-16.95.57-8.41 3.88-14.76 10.05-20.48a70 70 0 0 1 9-5l3.25-1.75c8.5-2.83 17.69-2.29 26.56-2.23 8.89-.06 17.5-1.25 26.19-3.02l3.48-.66c6.98-1.37 13.22-3.03 19.52-6.34l2.07-1c4.62-2.39 4.62-2.39 5.87-4.88L904 637l.31-3c-.31-3-.31-3-1.81-5.12-5.62-4.22-11.08-6.27-18.01-7.39-2.49-.49-2.49-.49-5.39-1.48-10.19-3.33-21.48-3.41-32.1-4.01l-5.94-.42c-20.32-1.41-20.32-1.41-29.57-.07-3.66.51-7.11.55-10.8.49-6.92-.05-13.65.17-20.44 1.56-2.25.44-2.25.44-5.13.38-5.68.11-11.64 1.58-15.68 5.62L757 626h-2l-.56 1.75c-1.55 2.43-2.53 3.03-5 4.37C746 634 746 634 745 636l2.15-.32c3.98.45 5.84 2.61 8.47 5.38l1.45 1.41c5.04 5.15 7.52 11.11 8.12 18.26-.46 5.41-4.17 9.55-8 13.15-6.36 4.23-13.27 4.48-20.69 4.43l-2.63-.01c-11.1-.19-21.79-1.86-31.95-6.53C700 671 700 671 697 671l1.61 1.1c7.38 5.26 11.41 11.01 13.39 19.9.38 4.28.36 7.91-1 12h-3l.18-2.96c.28-8.13.26-14.54-5.18-21.04-4.71-5.03-9.74-8.2-16-11v-8a33 33 0 0 1 8.38 4.31c11.21 7.23 24.37 8.87 37.37 8.88l3.46.03c15.97.03 15.97.03 21.29-4.22 3.62-4.83 3.14-10.18 2.5-16-2.42-6.56-7.92-12.1-14.23-15.04A106 106 0 0 0 740 637c1.21-3.64 2.23-4.07 5.38-6.12 4.96-3.36 9.57-7.03 14.17-10.86L762 618l1.77-1.57c4.68-3.01 10.79-2.66 16.23-3.12l2.15-.19c27.52-2.38 56.45-2.99 83.85.88m-176 51v3l6 2a295 295 0 0 0-5-5z" fill="#E5E7E4"/><path d="m797 568 1 3h21v1h-9l-1.06 3.62c-2.24 6.8-5.65 13.05-8.94 19.38h-2l-.78 2.21a30 30 0 0 1-4.78 7.41c-2.11 2.58-3.38 4.2-4.44 7.38l2 1a27 27 0 0 1-8.11 1.32l-2.97.12-3.11.12-3.14.13-7.67.31 2.38-2.31C770 610 770 610 772 607h2l.82-1.75a42 42 0 0 1 4.12-6.25l1.52-2 1.54-2 1.57-2.25L785 591h2l.34-1.67a40 40 0 0 1 3.22-7.58l1.38-2.7L793 577h2l.44-3.94c.44-3.94.44-3.94 1.56-5.06" fill="#010301"/><path d="M495 210h2l.63 2.46c4.51 16.2 13.21 25.95 26.75 35.35l4.83 3.4 2.14 1.48C533 254 533 254 534 256c1.01 10.92-.83 19.91-5 30l-.86 2.1A274 274 0 0 1 516 313.38c-11.89 22.1-19.1 46.09-24 70.62l-.57 2.74c-1.67 8.7-1.78 17.31-1.74 26.14v2.32c.02 12.05.84 23.75 2.95 35.64.56 3.37.96 6.76 1.36 10.16l-1.77-.62c-6.74-2.22-13.16-3.03-20.23-3.38v-1q3.38-.3 6.75-.56l3.8-.32c2.84-.1 4.79-.03 7.45.88l-.4-1.98c-.94-4.66-1.87-9.32-2.6-14.02l-.51-2.9c-2.48-17.6-.36-36.02 2.16-53.48q.46-3.63.76-7.27c.52-4.73 1.99-8.89 3.59-13.35l2.09-6.36 2.29-6.95 1.13-3.48a218 218 0 0 1 15.3-35.15c17.31-32.76 17.31-32.76 17.57-48.25l.08-2.42c-1.07-5.57-5.78-8.58-10.15-11.7-8.08-5.95-14.9-11.74-20.81-19.88l-1.31-1.8c-4.04-5.78-4.33-10.09-4.19-17.01" fill="#DFE1DF"/><path d="m646 162 1 4 3-1 1.29 2.67c3.42 6.77 6.12 11.29 12.71 15.33v3l3 1 3 1v-2l2.92-.18 3.83-.26 3.8-.24A37 37 0 0 0 688 184v-2h4v-2l3-1c1.35 2.71 1.07 5.01 1 8l2 1c-.81 1.94-.81 1.94-2 4l-3 1-1 3h-6v2q-3.62.05-7.25.06l-2.07.03c-3.39.01-6.43-.09-9.68-1.09l-2.25-.19c-7.86-2.32-12.92-8.66-16.72-15.58-2.8-6.17-2.3-12.58-2.03-19.23" fill="#E8C44C"/><path d="M582 134.56a38 38 0 0 1 4 2.44l2.32 1.51c5.39 3.82 9.95 8.37 12.68 14.5l-1 3-1-2h-3l-2-7-4-1v16h2q-.14 2.42-.31 4.86l-.18 2.74c-.51 2.4-.51 2.4-3.51 4.4l-3-1 .66-1.92c3.23-9.92 2.84-15.75-1.08-25.36-2.6-4.5-6.61-7.28-11.43-9.19-6.83-1.72-14.18-1.54-20.33 2.05-5.31 4.11-10.31 9.47-11.19 16.3-.16 7.81.7 13.7 5.37 20.11a56 56 0 0 0 7 6l-4 1v-2h-6v6h2a55 55 0 0 1 2.62 3.31c3.34 4.07 6.39 5.22 11.38 6.7v2l11.04-.7c3.7-.29 7.29-.75 10.96-1.3v-2h5c-4.02 4.73-10.48 5.56-16.41 6.28-10.22.38-18.9-4.13-26.35-10.89-7.28-7.75-8.94-16.35-8.62-26.78 1.05-10.04 5.89-16.93 13.43-23.38 9.07-7.08 22.02-9.19 32.95-4.68" fill="#E4BF57"/><path d="m739.56.63 3.94.54c6.28 1.5 10.67 6.06 14.18 11.4L759 15l1.06 1.67c1.32 3.27 1.21 6.43 1.2 9.9v10.05l.01 5.53v57.18q-.03 15.3 0 30.56a22916 22916 0 0 1 0 56.6v5.41l-.02 7.38.01 2.17c-.03 3.94-.52 6.97-2.26 10.54h-2l.01-3q.14-36.04.2-72.07.02-17.44.1-34.87.04-15.18.06-30.39.01-8.04.05-16.08.04-7.58.03-15.15l.02-5.55q.03-3.8.01-7.6l.03-2.2c-.07-5.95-1.84-11.18-5.92-15.62C745.67 4.26 740.57 3.52 733 4c-3.06.5-3.06.5-5 1l-1-2c4.38-3.32 7.21-3.17 12.56-2.37" fill="#EFF2F0"/><path d="M632.3 184.68c3.14 1.57 4.56 3 5.95 6.2-.36 4.5-2.08 5.95-5.25 9.12l-2 1-2 7-2 2c-6.46-.47-6.46-.47-9-3-.12-3.13-.12-3.13 0-6l-1.75-.69c-2.93-1.7-4.45-3.45-6.25-6.3 0-3.39.72-4.67 2.88-7.26 5.07-4.18 13.34-3.87 19.43-2.07" fill="#626460"/><path d="M757 19h1q.07 36.17.1 72.34l.05 33.59.04 29.28.02 15.5.02 14.59.01 5.35v7.33l.02 2.12c-.03 4.95-.93 9.17-2.26 13.9l-3-2 .49-2.17c.5-2.76.63-5.26.63-8.06v-3.13l-.01-3.41v-3.6l-.01-9.77-.01-10.22-.02-19.34-.02-22.02L754 84h1l1 28z" fill="#3A3D3B"/><path d="M728 4c-1.23 3.69-2.57 4.46-5.62 6.81-4.9 3.91-9.51 8.02-14.07 12.31a395 395 0 0 1-13.36 12.18c-2.52 2.19-4.98 4.45-7.45 6.7A569 569 0 0 1 674 54l-2.61 2.57c-3.6 2.98-7.06 3.11-11.6 3h-2.42q-3.95-.01-7.89-.08l-5.49-.02q-7.21-.04-14.41-.13-7.37-.07-14.72-.1-14.43-.08-28.86-.24l-2-4 2 1q3.76.2 7.54.22l2.35.04q12.22.15 24.43.2 5.79.03 11.58.12 7 .1 13.99.12 2.67.02 5.32.07c15.63.29 15.63.29 20.78-4.15 1.66-1.86 1.66-1.86 3.01-3.62a60 60 0 0 1 10.16-8.59c2.51-1.92 4.62-4.16 6.84-6.41a556 556 0 0 1 8.36-7.89c2.52-2.35 4.33-4.01 7.64-5.11l2-4c1.66-1.46 1.66-1.46 3.62-2.81 3.82-2.72 7.27-5.7 10.72-8.87C726 4 726 4 728 4" fill="#EAECEC"/><path d="M616 662h20l-.11 5.81-.08 7.63-.07 3.82c-.08 9.4.91 16.85 6.26 24.74-2.85-.63-4.56-1.33-6.19-3.81a40 40 0 0 1-4.43-15.81l-.29-3.54L631 678l1-1c.03-2.26-.07-4.51-.16-6.77C632 668 632 668 634 665h-15l1 4v7l1 1c.49 5.43-.07 9.89-2 15l-.38 3c-.76 3.68-2.41 6-4.62 9l-3-1 .84-1.57 1.1-2.12 1.09-2.07c1.97-4.55 2.09-8.94 2.07-13.85l-.01-3.78-.03-3.92-.01-3.98z" fill="#EFF1ED"/><path d="m694 136-1 2h-3v2h2v2h2v2h2l-1 4-1.94-2.69c-4.18-4.9-8.82-7.85-15.25-8.76-8.08-.27-13.78.76-19.78 6.25-6.26 6.61-7.27 13.41-8.03 22.2l-3 1c-1.4-6.69-1.02-10.59 2.36-16.58 5.04-7.43 11.89-13.22 20.52-16.03A42 42 0 0 1 694 136" fill="#BFB894"/><path d="M682 130v2h11v1l5 1v3l4-1 1 3 5 3v2h2v6h2v4h4c.37 14.78.37 14.78-2 21h-1l-.08-3.18c-.45-12.61-2.97-21.43-11.92-30.82-8.02-6.6-16.97-7.3-27-8v-2c2.93-.98 4.96-1.08 8-1" fill="#2E2208"/><path d="M580 137c2.06.44 2.06.44 4 1v2l2.19.38c5.64 1.25 8.37 2.71 11.69 7.56l1.86 2.65L601 153l-1 3-1-2h-3l-2-7-4-1v16h2q-.14 2.44-.31 4.88l-.18 2.74C591 172 591 172 588 174l-3-1 .66-1.91c3.23-9.93 2.88-15.7-1.18-25.26A41 41 0 0 0 579 138z" fill="#DDBE66"/><path d="M696 150c2.8 2.8 2.98 4.7 3.25 8.62A30 30 0 0 1 690 180c-6.83 5.01-13.69 6.12-22 5-2.6-.77-4.61-1.7-7-3 2.98-1.49 5.68-1.05 9-1 6.06.06 11.99-.21 18-1v-4h2l-1-3 5-1v-10h1z" fill="#2A200C"/><path d="m646 162 1 4 3-1 1.29 2.67c3.38 6.7 6.03 11.51 12.71 15.33v1c-2.88.12-2.88.12-6 0l-2-2-2 4h2v3c-3.86-1.24-5.18-3.58-7.07-7.05L648 180l-1.11-2.3c-1.09-3.3-1.08-6.05-1.01-9.51l.05-3.52z" fill="#CFB463"/><path d="M756 210c1.62 1.69 1.62 1.69 3 4-.78 2.35-.78 2.35-2 5l-1.04 2.36c-5.89 12.3-14.59 21.3-26.07 28.63-5.63 3.6-8.41 5.87-10.08 12.51q-.48 2.74-.81 5.5h-1c-1.05-10.32-1.05-10.32 1.14-13.82A51 51 0 0 1 725 250c15.45-11.12 26.05-21.27 31-40" fill="#DEE0DC"/><path d="M728 4c-1.23 3.69-2.57 4.46-5.62 6.81-4.9 3.91-9.51 8.02-14.07 12.31a395 395 0 0 1-13.36 12.18c-2.52 2.19-4.98 4.45-7.45 6.7a599 599 0 0 1-11.94 10.62A81 81 0 0 0 672 56l-3-1c4.26-4.36 8.54-8.61 13.26-12.48a76 76 0 0 0 4.11-3.92 98 98 0 0 1 8.07-7.04 95 95 0 0 0 9.12-8.12L706 21h2l.77-1.82c1.37-2.43 2.58-3.42 4.85-4.99 3.82-2.72 7.27-5.7 10.72-8.87C726 4 726 4 728 4" fill="#DFE1E1"/><path d="M580 139c5.47 5 9.06 12.53 9.5 20-.45 7.4-3.91 14.29-8.92 19.65-2.38 2.04-4.5 2.87-7.58 3.35l-3-2h6v-2h2v-3h2l1-3h3v-4h2l-.56-1.94c-.59-4.13-.02-7.95.56-12.06h-2v-8h-4v-4l-1.76-.59L565 137v-1c5.84-1.6 9.82.19 15 3" fill="#291E08"/><path d="M837 658v1l-2.71.08c-11.04.52-19.5 2.29-27.66 10.08-4.54 5.13-5.19 10.53-4.98 17.13.74 5.73 3.07 9.87 7.47 13.59L812 702l2 2c-3.24 0-5.35-.45-7.85-2.57-4.63-5.03-8.05-9.95-8.2-16.95.57-8.41 3.88-14.76 10.05-20.48a72 72 0 0 1 9-5l3.25-1.94c5.75-1.63 10.98-.27 16.75.94" fill="#E6E8E7"/><path d="M584.26 135.78A36 36 0 0 1 591 142l-7-2v-2l-2.56.69c-3.68.33-5.1-.42-8.33-1.97a26.4 26.4 0 0 0-18.42.78c-5.38 3.14-10.55 8.6-12.69 14.5-.14 2.63-.19 5.14-.13 7.75l.03 2.12q.03 2.56.1 5.13l-2-1v-10l-3 1c2.71-9.5 8.96-16.87 17.37-21.93 8.8-4.07 21.34-3.92 29.9.7" fill="#B3A77D"/><path d="M488 408h1l.04 1.76a331 331 0 0 0 3.61 40.89c.51 3.44.93 6.89 1.35 10.35l-1.77-.62c-6.74-2.22-13.16-3.03-20.23-3.38v-1q3.38-.3 6.75-.56l3.8-.32c2.84-.1 4.79-.03 7.45.88l-.4-1.98c-.94-4.66-1.87-9.32-2.6-14.02l-.62-3.75C486 433 486 433 487 431q.22-2.6.32-5.23l.37-9.69z" fill="#E6E9E6"/><path d="M843 612v1l-1.92.06c-20.99.69-20.99.69-30.25 2.53-4.75.69-9.5.5-14.29.38-3.54.03-3.54.03-7.09.58-3.6.47-6.34.19-9.89-.49l-3.18-.59L774 615v-1c22.97-2.56 45.93-2.2 69-2" fill="#D7DAD7"/><path d="M883 652c-2.88 2.88-6.19 2.94-10.06 3.56l-2.2.38q-3.37.57-6.74 1.06l-2.07.31c-6.98.91-13.96.8-20.99.75l-3.78-.01L828 658l1-2c4.79-.92 9.38-1.04 14.25-1 10.15.07 19.8-1.07 29.75-3 6.48-1.17 6.48-1.17 10 0" fill="#E6E7E8"/><path d="M800 464a89 89 0 0 1 4 4v2l1.9.76c2.55 1.51 2.85 2.32 3.66 5.12l.72 2.42.72 2.7.82 2.98c2.78 10.63 3.97 21.03 3.18 32.02l-2 2-.11-3.16c-1.45-33.68-1.45-33.68-11.77-45.4L799 467z" fill="#E5E8E3"/><path d="M695 137c7.78 3.56 13.44 9.95 17 17.75 3.08 9.96 1.23 20-3 29.25h-1v-6h2v-18h-2l-.18-1.86-.26-2.45-.24-2.43C707 151 707 151 706 148h-2l-1-4h-3l-.81-1.94C698 140 698 140 695 139z" fill="#DABF68"/><path d="M812 501h1c1.38 18.87 1.52 37.27-6 55h-3l.77-2.87c4.56-17.36 6.72-34.18 7.23-52.13" fill="#D8DAD8"/><path d="M893 621c5.97 1.34 9.8 4.75 14 9 1.43 2.87 1.31 4.81 1 8-4.14 8.46-12.2 11.3-20.58 14.4-2.42.6-2.42.6-5.42-.4 2.41-2.41 4.53-3.13 7.69-4.38 12.57-5.15 12.57-5.15 14.25-8.5L904 637l.31-3c-.31-3-.31-3-1.81-5.12-3.28-2.47-6.78-4.18-10.5-5.88z" fill="#DCDEDE"/><path d="m761 399 2 1q.08 6.02.11 12.05.02 3.03.07 6.06c.04 8.68-.13 17.4-2.18 25.89l-2 1c-.62 3.06-.62 3.06-1 6h-1c.96-15.74.96-15.74 2-23h1z" fill="#23241F"/><path d="M538 178h2v2h2c2 2 2 2 2 6h2a55 55 0 0 1 2.62 3.31c3.34 4.07 6.39 5.23 11.38 6.69v2l7.06-.44 3.98-.24c3.7-.3 7.29-.75 10.96-1.32v-2h5c-4.02 4.75-10.48 5.57-16.41 6.29-9.45.35-17.33-3.45-24.59-9.29-4.1-3.89-6.64-7.41-8-13" fill="#C4B06B"/><path d="m919 690 2 1c-5.25 5.96-14.18 8.27-21.61 10.32-2.39.68-2.39.68-5.22 1.75-3.66 1.07-6.75 1.13-10.55 1.05l-3.77-.05L877 704c3.49-2.32 5.74-2.53 9.88-3.12 11.05-1.81 22.1-5.87 32.12-10.88" fill="#E1E2DF"/><path d="M552 25c3.61 2.78 6.78 5.78 10 9q4.21 3.62 8.62 7c2.38 2 2.38 2 4.26 4.38 2.69 3.32 5.81 5.92 9.12 8.62l-1 3-1.25-1.29a189 189 0 0 0-11.44-10.68c-3.39-2.98-6.7-6.05-10.01-9.12q-4.49-4.16-9.3-7.91z" fill="#DCDFDD"/><path d="m697 667 3.52 1.24c13.89 4.83 26.83 7 41.48 7.76-2.74 2.74-4.29 2.3-8.12 2.31-13.1-.21-24.88-3.11-36.88-8.31z" fill="#E6E7E3"/><path d="m774.75 614.81 2.4.04 5.85.15-1 3-1.94-.07c-5.49-.12-9.88.27-15.06 2.07l-3 1-2.56 2.56L757 626h-2l-.75 1.93C753 630 753 630 750.87 630.75L749 631c1.54-3.99 4.07-5.95 7.37-8.57l2.9-2.3L762 618l1.8-1.77c3.51-1.97 7.01-1.55 10.95-1.42" fill="#E7E8E6"/><path d="m698 163 2 1v6h-2v3h-2v5h-2v2h-2v2h-4v2c-3.7 2.38-6.93 2.21-11.25 2.12l-3.83-.05L670 186v2c-2.17-.51-4-1-6-2v-2l3.15.18c8.57.33 15.79.37 22.85-5.18 4.82-4.73 6.82-9.42 8-16" fill="#D5BB6B"/><path d="M742 3v3l-2.52.33-3.29.48-3.27.46c-3.08.77-3.86 1.47-5.92 3.73h-3l-.81 1.88C722 15 722 15 719 17c-2.19-.38-2.19-.38-4-1 8.57-8.22 14.74-14.02 27-13" fill="#222423"/><path d="m700 190 3 1-4.25 2.88-2.39 1.61c-7.66 4.89-15.44 5.03-24.36 4.51-3.75-1-3.75-1-6-2l1-2h5v1l14 1v-2h6l1-4h7z" fill="#D5BB62"/><path d="M764 408c2 2 2 2 2.23 4.12a656 656 0 0 1-.79 22.94c-.57 11.31-.57 11.31-4.44 14.94l.8-12.16.27-4.12q.82-12.87 1.93-25.72" fill="#EBECE7"/><path d="M695 137c2.63 2.31 3.88 3.64 5 7h3l1 4h-4v6l-2 1c-1.8-3.83-2.2-6.78-2-11h-2v-2h-2v-2h-2v-2c3-1 3-1 5-1" fill="#E2BD57"/><path d="M488 388h2l-.18 3.57q-1 19.7-1.82 39.43c-2.09-3.14-2.26-3.89-2.27-7.47l-.01-2.71.03-2.88.01-2.95c.11-9.09 1-18 2.24-26.99" fill="#EBEEEB"/><path d="M761 657h1c1.83 8.28 1.83 8.28-.02 12.12-3.41 4.2-6.9 6.19-11.98 7.88l-2.19.75c-1.81.25-1.81.25-3.44-.2-3.34-.78-6.7-.92-10.12-1.11l-2.11-.13L727 676v-1l3.84-.15 5.1-.23 2.52-.09c14.21-.66 14.21-.66 19.04-4.53 2.22-2.96 2.7-4.99 3.06-8.62l.26-2.48z" fill="#D9DAD8"/><path d="M672 133c8.05-.34 14.5-.05 22 3l-1 2h-3v2h2v2h2v2h2l-1 4-2.06-2.75c-2.87-3.48-5.95-5.22-9.94-7.25l1-3-12-1z" fill="#C6B575"/><path d="M650 176c5.54 1.85 10.11 3.49 14 8-2.88.12-2.88.12-6 0l-2-2-2 4h2v3c-3.16-1.37-3.99-1.99-6-5-.26-2.69-.09-5.29 0-8" fill="#EDCA5D"/><path d="m600 152 4 1q.36 5.9.65 11.8.15 2.99.35 5.98l.17 3.8.19 3.51c-.36 2.91-.36 2.91-2.18 4.87C601 184 601 184 598 183l.88-2.05c4.1-10.29 3.66-18.31 1.12-28.95" fill="#231908"/><path d="M617 676h1l1 6 2-1c.24 4.12-.65 7.12-2 11l-.38 3c-.76 3.68-2.41 6-4.62 9l-3-1 .84-1.57 1.1-2.12 1.09-2.07c2.03-4.68 2.2-9.5 2.53-14.55l.26-3.8z" fill="#E3E7E3"/><path d="M472 600c3.95 2.87 6.94 6.14 10.09 9.83 3.13 3.56 6.52 6.86 9.91 10.17-6.18 0-10.53-5.3-14.68-9.41C476 609 476 609 476 607l-2-1.38-2-1.62z" fill="#E4E7E4"/><path d="M495 210h2l.66 2.53c1.9 6.71 3.97 12.16 8.17 17.76C507 232 507 232 507 234c-3.76-1.49-5.41-3.52-7.69-6.81l-1.82-2.58c-2.72-4.77-2.6-9.21-2.49-14.61" fill="#D9DCD7"/><path d="m544 682 3 1-1.46 2.51c-1.7 3.85-2.09 7.22-2.23 11.37l-.1 2.08L543 704h-2c-2.3-3.25-2.09-5.92-1.49-9.77 2.17-9.91 2.17-9.91 4.49-12.23" fill="#DEDEE0"/><path d="M556 668a46 46 0 0 1-13.94 6.88l-2.05.71c-5.06 1.61-8.05 1.29-13.01-.59v-1l3.15-.52c7.36-1.26 14.13-2.58 20.93-5.81C553 667 553 667 556 668" fill="#E1E3DE"/><path d="M493 365h3l-5 26c-3.57-5.35-2.17-12.82-1-19a63 63 0 0 1 3-7" fill="#D8D8DA"/><path d="M756 13c3 1 3 1 4.19 3.04 1.05 3.82.95 7.4.79 11.32l-.08 2.4q-.12 3.78-.28 7.55l-.17 5.14q-.21 6.28-.45 12.55h-1l-.06-2.13c-.4-13.39-.88-26.62-2.94-39.87" fill="#F1F2F2"/><path d="M491 655c2.44.88 2.44.88 5 3 .58 2.53.75 4.93.86 7.53.13 2.29.51 4.27 1.14 6.47a12.6 12.6 0 0 1-5.75-4c-1.8-4.32-1.49-8.38-1.25-13" fill="#242426"/><path d="M957 617c5.62 6.07 6.07 13.61 5.96 21.66-.21 2.15-.21 2.15-.96 5.34l-2 1-.15-3.51-.23-4.61-.09-2.31A40 40 0 0 0 957 622c-.12-2.88-.12-2.88 0-5" fill="#E8EBE9"/><path d="M475.44 456.81q1.14 0 2.3-.04c6.94-.02 6.94-.02 10.26 2.23v2q-5.15-.16-10.31-.38l-2.96-.09-2.84-.12-2.62-.09C467 460 467 460 464 458c3.83-1.28 7.45-1.19 11.44-1.19" fill="#1A1D1A"/><path d="m595 187 1 4-2 1v2h-2v2h-2v2c-3.82 1.42-6.91 2.24-11 2l-1-2 1.69-.63c6.15-2.48 10.57-5.77 15.31-10.37" fill="#2D1B0D"/><path d="M439 497h1l1 32h-2a95 95 0 0 1-1.12-16.56l-.02-2.5c.01-4.43.25-8.58 1.14-12.94" fill="#E9ECEA"/><path d="M634 678h1l.11 2.31c.56 8.77 1.89 16.3 6.89 23.69-2.85-.63-4.56-1.33-6.19-3.81-2.86-5.74-3.96-9.42-2.87-15.88l.59-3.57z" fill="#DADDDA"/><path d="M678 136c6.81 1.01 12.04 4.8 16.56 9.88L696 148l-2 4v-4h-2v-2h-2v-2h-2v-2l-2.12-.31c-3.27-.78-5.93-2.11-8.88-3.69z" fill="#2E220C"/><path d="m756 650 2 4h3q.12 2.84.19 5.69l.1 3.2c-.32 3.46-1.3 5.29-3.29 8.11l-3-1 .99-1.66c1.2-2.77 1.24-4.77 1.2-7.78l-.02-2.81A47 47 0 0 0 756 650" fill="#202324"/><path d="M756 210c1.62 1.69 1.62 1.69 3 4-.77 2.32-.77 2.32-2 5l-1.15 2.61-1.23 2.58-1.21 2.6c-1.57 2.46-2.73 3.19-5.41 4.21q1.86-4.75 4-9.38a70 70 0 0 0 4-11.62" fill="#DCDFDD"/><path d="m713 176 2 3-1.5 1.25C712 182 712 182 712 186h-2v4h-4v2l-4-1 1.14-1.25A85 85 0 0 0 713 176" fill="#261908"/><path d="M820 613h30c-3 3-3 3-6.41 3.11q-2.05-.15-4.09-.36l-2.15-.18q-3.17-.26-6.35-.57l-3.5-.3q-3.75-.33-7.5-.7z" fill="#EDF0EE"/><path d="M800 681h1l.3 2.2c1.32 8.57 3.56 13.54 10.7 18.8l2 2c-3.33 0-5.39-.45-7.89-2.71-7.13-8.06-7.13-8.06-7.09-12.87l.36-2.67.33-2.7z" fill="#D8DBD8"/><path d="M900 699v2c-7.57 3.34-14.87 3.12-23 3 3.54-2.36 6.83-2.9 10.94-3.62l2.17-.41c3.37-.61 6.45-.97 9.89-.97" fill="#D9DBD9"/><path d="M492 453h1l1 8-1.77-.62c-6.74-2.22-13.16-3.03-20.23-3.38v-1q3.32-.33 6.62-.62l3.73-.36c3.7-.02 6.24.61 9.65 1.98z" fill="#CDD0CF"/><path d="M601 156h1c1.57 7.44 1.99 14.9-1 22h-1q-.04-4.93-.06-9.88l-.03-2.83-.01-2.72-.01-2.51C600 158 600 158 601 156" fill="#CBB269"/><path d="M538 156h2v8h-1l-1 13c-2.42-3.62-2.3-6.32-2.25-10.5l-.02-2.05c.01-3.7.17-5.3 2.27-8.45" fill="#D9C172"/><path d="m830.81 656.88 3.52.62 2.67.5v1l-2.7.08c-7.1.33-12.95 1.07-19.4 4.08-1.9.84-1.9.84-3.9.84v-2l3.7-1.87 2.06-1.05 2.24-1.09 2.34-1.17c3.47-1.07 5.92-.6 9.47.05" fill="#DDDDE0"/><path d="m717 675 25 1c-2 2-2 2-4.94 2.27-7.01-.03-13.29-.4-20.06-2.27z" fill="#EBEEEA"/><path d="M488 408h1l.08 1.94q.17 4.44.36 8.87l.12 3.05q.42 10.1 1.44 20.14l-2-3-1.69-1.94L486 435q.46-2 1-4 .21-2.7.32-5.42l.12-3.11.12-3.22.13-3.27z" fill="#B6BAB5"/><path d="M696 150c2.84 2.84 2.98 4.7 3.19 8.69-.04 4.34-1 8.14-2.19 12.31h-1z" fill="#3F2F0F"/><path d="M545 143c0 3 0 3-1.49 5.7-1.76 3.85-1.85 7.04-1.7 11.18l.04 2.08.15 5.04-2-1v-10l-3 1c1.58-5.52 3.92-9.92 8-14" fill="#C5B481"/><path d="M884 574c-3.45 2.3-4.17 2.15-8.12 1.69l-2.94-.33L870 575l-5.19-.56L861 574v-1c7.49-1.87 15.55-.61 23 1" fill="#D1D2D2"/><path d="m584 173 1 2-1 3h-2v2h-2v2h-4l-2 4h-5l-1-3 2.23-.66c6.37-2.07 10.05-3.7 13.77-9.34" fill="#C9B569"/><path d="M565 661v9l-6 2c0-4 0-4 2-6l-2-2c4.88-3 4.88-3 6-3" fill="#E4E7E4"/><path d="M796 613v2c-7.82 2.25-14.11 1.76-22 0v-1c7.36-.64 14.62-1.13 22-1" fill="#D0D2CE"/><path d="M538 178h2v2h2c2 2 2 2 2 6h2a89 89 0 0 1 4 4l-1 3c-5-3.83-8.26-7.3-11-13z" fill="#D0BA6F"/><path d="M760 647c3.48 3.63 4.48 8.11 5 13-.45 2.28-.45 2.28-1 4l-2-1c-.6-1.86-.6-1.86-1.06-4.19l-.49-2.45L760 654l-.69-3.5-.31-2.5z" fill="#F3F5F4"/><path d="M667 196h5v1l16 1c-6.29 3.14-13.01 2.8-19.75 1l-2.25-1z" fill="#C9BB6D"/><path d="m651 151 3 2c.19 3.62.19 3.62 0 7h-2l1 8-2 1c-1.88-5.64-1.53-12.27 0-18" fill="#281F0E"/><path d="M687 661a53 53 0 0 1 10 5l-1 4-5-4-1.44 1.5C688 669 688 669 687 669z" fill="#D8D9D6"/><path d="m804 556 3 1-.69 1.61-.87 2.14-.88 2.11c-.64 2.44-.36 3.78.44 6.14h-6l1.38-4.25.77-2.39c.8-2.23 1.75-4.27 2.85-6.36" fill="#DFE2E3"/><path d="m499 11 2 3h-2v16l-2 1q-.37-3.6-.69-7.19l-.22-2.04c-.38-4.56.15-7.11 2.91-10.77" fill="#1C1F1D"/><path d="m935 684-13 9-2-2a37 37 0 0 1 6.94-5.75l2.02-1.36C931 683 931 683 935 684" fill="#E5E6E5"/><path d="M876 617c6.3.37 11.33 1.17 17 4v1a30 30 0 0 1-13-2q-2-.53-4-1z" fill="#E9ECE9"/><path d="m490 391 3 2c.29 3.26.29 3.26.19 7.12l-.08 3.89L493 407l-2 1v-10l-1 6h-1c-.08-4.52-.1-8.59 1-13" fill="#1B1D1E"/><path d="M542 167a163 163 0 0 1 3.75 5.88c2.48 3.44 4.91 5.54 8.25 8.12l-4 1v-2h-2v-2h-2v-2h-2v-2l-4-2v-2h2z" fill="#D5BD74"/><path d="M538 162c4 5 4 5 4 8h-2l.56 2.31C541 175 541 175 540 178h-2z" fill="#E3C265"/><path d="M712 154h4c.37 14.78.37 14.78-2 21h-1l.02-1.71.07-10.36.01-2.58.01-2.38C713 156 713 156 712 154" fill="#1D1509"/><path d="M491 409h1l1 30-3-1z" fill="#20231F"/><path d="m512 314 3 1-7 15-2-1c.6-3.85 1.77-6.86 3.56-10.31l1.38-2.68z" fill="#E0E0E3"/><path d="m839.75 655.44 3.55.3 2.7.26v2h-18c1-2 1-2 2.64-2.65 3.12-.46 5.98-.2 9.11.09" fill="#EFF0F2"/><path d="M481 454c-2.22 2.22-2.92 2.36-5.91 2.85l-2.31.39-2.4.38-2.43.41-5.95.97v-2c6.48-2.63 12.02-3.39 19-3" fill="#ECEEEC"/><path d="M541 152h1v10h2c1.8 2.76 2.01 3.89 1.62 7.25L545 172c-3.13-3.13-3.94-5.93-4.2-10.33l.08-3.48.05-3.52z" fill="#34270A"/><path d="M962 644c.5 6.12-.75 9.02-4 14h-2l1.38-6.44.77-3.62.85-2.94c2-1 2-1 3-1" fill="#DEE2DC"/><path d="M505 329h2a66 66 0 0 1-5 16c-2-3-2-3-1.61-5.12l.86-2.32.83-2.31A77 77 0 0 1 505 329" fill="#E9EAE9"/><path d="m654 173 2 5c-2.17-.51-4-1-6-2v7c-2.13-3.19-2.5-5.27-3-9 2.49-.69 4.38-1 7-1" fill="#DDC170"/><path d="M700 138c5.66 1.48 5.66 1.48 7.38 4.12L708 144h2v4h-2l-1-2h-2c-5-5.48-5-5.48-5-8" fill="#1B1505"/><path d="M932.19 590.56c3.78 1.93 6.7 4.58 9.8 7.44l-2 2-4.86-3.38-2.74-1.9c-2.4-1.72-2.4-1.72-4.4-3.72 2-1 2-1 4.2-.44" fill="#D9DBDE"/><path d="m585 134 1 2h6v4h2v2h2l-1 4-2.19-2.25C590 141 590 141 587.19 138.88L585 137z" fill="#31220B"/><path d="M722 281c3 1 3 1 4.17 2.86 1.99 4.54 3.35 8.07 2.83 13.14a32 32 0 0 1-5.19-9.12l-1.04-2.64C722 283 722 283 722 281" fill="#E1E4E1"/><path d="m694 136-1 2h-3v2h2v2h2v2h2l-1 4-3.71-4.59C690 142 690 142 688 141v-5c3-1 3-1 6 0" fill="#D4BA6D"/><path d="M571 44c3.48 1.52 5.96 3.58 8.75 6.12l2.42 2.2L584 54l-1 3-1.36-1.39a91 91 0 0 0-8.58-7.92L571 46z" fill="#D6D9D7"/><path d="M742 1v2l-14 2-1-2c4.81-4.01 9.23-2.93 15-2" fill="#F0F2F0"/><path d="m850 613 16 1v1c-6.37 1.67-10.8 2.43-17 0z" fill="#D7DAD6"/><path d="m656 192 14 7v1h-8l-2-4h-3z" fill="#24180A"/><path d="M600 178c-.32 5.35-3.5 8.28-7 12l-1-4h2v-2h2v-5c2-1 2-1 4-1" fill="#DBC16B"/><path d="m581 172 2 4c-6.64 5.88-6.64 5.88-10 6l-3-2h6v-2h2v-3h2z" fill="#2E250D"/><path d="M699 154c3 0 3 0 6 1l-1 5-3 1-2 3z" fill="#F0C66F"/><path d="M904 694v3l-3.81 1.5-2.15.84C896 700 896 700 893 700l1-3h2l1-2c3-1 3-1 7-1" fill="#1F2220"/><path d="M803 688c3.89 4.52 3.89 4.52 4.5 7.19.5 1.81.5 1.81 2.56 3.06l1.94.75c-3.68 0-5.07-.82-8-3-1.38-2.5-1.38-2.5-2-5z" fill="#212421"/><path d="M617 667h1l1.48 6.68q.57 2.55 1.27 5.07c.32 2.89-.5 4.67-1.75 7.25h-1c-.75-6.37-1.1-12.58-1-19" fill="#F5F8F3"/><path d="M545 172c1.94.31 1.94.31 4 1l1 3h2v2h2l2 4c-4.77-1.4-7.96-4.15-11-8z" fill="#34250B"/><path d="M511 0q2.19-.12 4.38-.19l2.46-.1L520 0l2 3h-12z" fill="#F1F5F2"/><path d="M759 383h2a80 80 0 0 1 1 15l-2-1c-1.42-4.54-1.09-9.29-1-14" fill="#2B2E29"/><path d="M501 224h5v4h2a20 20 0 0 1 1 4l-2 2-3-4.44-1.69-2.49C501 225 501 225 501 224" fill="#212420"/><path d="M905 635c1.19 1.69 1.19 1.69 2 4-1.72 4.15-3.98 6.09-8 8h-3l1-3 2.38-.75c2.98-1.42 3.21-1.96 4.43-4.87z" fill="#E4E7E6"/><path d="M749 630c-1 2.99-1.75 3.95-4 6l2 1c-3.13 1.04-3.99.93-7 0 1.31-3.94 4.61-7 9-7" fill="#DCDFDE"/><path d="M756 361h2c2.28 3.42 2.22 4.68 2.12 8.69l-.05 3.01-.07 2.3c-2.98-4.48-4-8.64-4-14" fill="#F2F4F1"/><path d="M715 271h2v3h3l2 8-2 1v-3h-2z" fill="#252822"/><path d="M728 248a35 35 0 0 1-9 7l-1-4c6.62-4.12 6.62-4.12 10-3" fill="#292A26"/><path d="m523 245 5 2v2l2.44.88C533 251 533 251 534 253c-4.4-.5-6.79-1.97-10-5z" fill="#1F211D"/><path d="M549 181q2.8.39 5.56.94l3.07.59 2.37.47v1h-8v2h-3c-.56-1.94-.56-1.94-1-4z" fill="#E1BD59"/><path d="M903 580c7.62.88 7.62.88 11 2v3l-11-3z" fill="#D6D9D5"/><path d="M682 130v2h5v1h-13v-2c2.93-.98 4.96-1.08 8-1" fill="#201804"/><path d="m552 676 2 4-1.88.25c-2.12.75-2.12.75-3.37 2.81L548 685l-2-2z" fill="#232323"/><path d="m788 456 1 2-17-1v-1c5.56-.82 10.48-1.26 16 0" fill="#E2E2DF"/><path d="M759 379c1.07 3.46 1.1 6.64 1.06 10.25l-.02 3.27L760 395l-2-1c-.41-3.16-.41-3.16-.62-7.06l-.23-3.91L757 380z" fill="#1F221E"/><path d="M749 231c-1.17 3.34-2.19 5.77-5 8h-2c.56-3.89 2.66-8 7-8" fill="#E1E4E1"/><path d="M753 220h1c.36 3.85.28 5.58-1.88 8.88L750 231h-2c1.45-3.79 3.15-7.39 5-11" fill="#D2D5D1"/><path d="M539 148c1.14 3.41.87 4-.44 7.19l-.87 2.17L537 159l-2-1 1-9z" fill="#231A0E"/><path d="M577 139c3.22.34 4.02 1.02 6.25 3.5C585 145 585 145 585 146h-5v-4l-2-1z" fill="#36250E"/><path d="M753 642c3.27.56 4.83 1.5 7 4l-2 4c-5-5.75-5-5.75-5-8" fill="#E0E2E3"/><path d="m541 145 1 2-2 2h-4v3h-2v-4h2v-2z" fill="#13140B"/><path d="m706 21 3 1-8 8-1-3z" fill="#D6D9D5"/><path d="M522 4c3.34 1.17 5.77 2.19 8 5v2h-2V9l-6-2z" fill="#1F221F"/><path d="M728 4c-1.16 3.49-2.14 4.1-5.06 6.19l-2.23 1.6L719 13c.77-4.42 4.06-9 9-9" fill="#D8D9DA"/><path d="m538 673-1 3c-3.94 1.31-6.12.24-10-1v-1a51 51 0 0 1 11-1" fill="#D0D1CC"/><path d="m456 463 3 1c-4.5 4.88-4.5 4.88-9 6z" fill="#1F2221"/><path d="M518 304c1 3 1 3 .22 4.82L515 314h-2c1.16-3.91 2.36-6.87 5-10" fill="#E6E8E7"/><path d="m713 176 2 3-1.44 1.25c-1.72 1.93-2.13 3.23-2.56 5.75l-1-1c.6-6.6.6-6.6 3-9" fill="#1C120A"/><path d="m646 162 1 4 3-1v5l-4 1z" fill="#E1C770"/><path d="M695 137c7.57 4 7.57 4 10 8l-2 1v-2h-3l-.81-1.94C698 140 698 140 695 139z" fill="#C7B368"/><path d="M654 139h2l1 3-5 4-2-2q1.92-2.56 4-5" fill="#262319"/><path d="m695 137 1 7h-2v-2h-2v-2h-2v-2c3-1 3-1 5-1" fill="#E4C362"/><path d="M534 10c4.04 1.79 6.64 3.21 9 7l-3 1-3-2.88-1.69-1.61C534 12 534 12 534 10" fill="#EAECEB"/><path d="M461 580q3.06 1.91 6 4v2l-4 1-3-6z" fill="#21231F"/><path d="m460 458 3 1c-2.88 2.4-5.56 4.47-9 6v-3c2.81-2.25 2.81-2.25 6-4" fill="#D8D9D9"/><path d="m762 438 3 2c-.49 6.05-.49 6.05-1 8l-3 2z" fill="#F4F6F1"/><path d="M582 194h5c-2.35 2.77-4.15 3.52-7.69 4.19l-2.45.48-1.86.33v-2l7-1z" fill="#D6BC74"/><path d="m561 665-2 6h-3l-1-3c2.62-3 2.62-3 6-3" fill="#F3F5F3"/><path d="m890 575 2 2h-10l-1-2c3.52-1.17 5.42-.84 9 0" fill="#E3E5E4"/><path d="M441 525h1l1 11-3-1z" fill="#D2D5D0"/><path d="M532 263c2.24 3.35 2.17 3.91 1.62 7.69l-.33 2.45L533 275c-2.24-3.35-2.17-3.91-1.62-7.69l.33-2.45z" fill="#D8DCD8"/><path d="M656 178a532 532 0 0 1 6.25 3.81L664 183v1c-2.88.12-2.88.12-6 0l-2-2z" fill="#DEC16E"/><path d="M645 163h1l1 14-3 1z" fill="#3C341D"/><path d="m587 166 1 4h2l1 3-5 1c-1.21-3.62-.54-4.64 1-8" fill="#CAB360"/><path d="M545 143c0 3.2-.55 4.42-2 7.19l-1.12 2.17L541 154h-1c.49-6.4.49-6.4 3.06-9.44z" fill="#C1BC9F"/><path d="M704 145c3.39 3.13 5.61 5.57 7 10l-2 1c-3-5.75-3-5.75-3-8h-2z" fill="#D1BA72"/><path d="M565 38c3.91 1.27 5.79 2.51 8 6l-3 1a139 139 0 0 1-5-5z" fill="#E5E8E6"/><path d="m555 663 1 2 2 1-8 3-2-2 2.94-.88C554 665 554 665 555 663" fill="#232623"/><path d="M761 657h1q.37 2.4.69 4.81l.38 2.71C763 667 763 667 760 670z" fill="#D3D5D5"/><path d="M883 615c5.75.75 5.75.75 8 3-2.91.81-4.46 1.22-7.31.06L882 617z" fill="#2C2F2D"/><path d="m842 569 7 1v2h-9z" fill="#D2D4D7"/><path d="m804 556 3 1-3 7h-2c.88-6.88.88-6.88 2-8" fill="#E6E9EA"/><path d="m471.69 457.44 2.45.3 1.86.26c-3.67 2.45-5.66 2.32-10 2l-2-2c3.1-1.03 4.53-.97 7.69-.56" fill="#2D2F2D"/><path d="M488 433h1l1 11h-3z" fill="#F1F4F2"/><path d="M495 210h2l2 9-4-2z" fill="#CED0CC"/><path d="M543 186c3 0 3 0 5.19 2l1.81 2-1 3a169 169 0 0 1-6-5z" fill="#D7BC66"/><path d="m575 182-1 4h-5l-1-3c2.49-.69 4.38-1 7-1" fill="#CCB35D"/><path d="M688 176h5c-3.62 4.88-3.62 4.88-7 6l-2-2h4z" fill="#382B0D"/><path d="M586 144h2l1 11a28 28 0 0 1-4-9z" fill="#C3AA62"/><path d="m499 11 2 3h-2l-1 7h-2c.75-6.62.75-6.62 3-10" fill="#282C27"/><path d="M906 696v3l-5 2-3-3c5.75-2 5.75-2 8-2" fill="#D4D7D5"/><path d="m741.07 671.9 2.5.04 2.5.02 1.93.04-2 3c-3 .31-3 .31-6 0l-2-2c1-1 1-1 3.07-1.1" fill="#252722"/><path d="M760 647c1.89 2.39 3.02 4.07 4 7h-4q-.57-2.99-1-6z" fill="#EBEDED"/><path d="M749 338a20 20 0 0 1 4 4c-.25 2.75-.25 2.75-1 5-2.1-2.36-2.97-3.55-3.19-6.75z" fill="#ECEDEA"/><path d="m512 314 3 1-4 8h-1c.88-6.75.88-6.75 2-9" fill="#D4D6D7"/><path d="M525 287c1.19 1.56 1.19 1.56 2 4-1.38 3.75-1.38 3.75-3 7h-1c-.2-4.22.2-7.17 2-11" fill="#D8DADB"/><path d="M744 5c2.38.19 2.38.19 5 1 1.31 2.56 1.31 2.56 2 5-3.24-.56-4.93-1.41-7-4z" fill="#232622"/><path d="m501 625 8 4v2l-3 1z" fill="#222522"/><path d="M453 570c1.5 1.19 1.5 1.19 3 3 .19 2.69.19 2.69 0 5-2.06-1.75-2.06-1.75-4-4 .25-2.25.25-2.25 1-4" fill="#E8EAEB"/><path d="M446 549a26 26 0 0 1 3 9h-3c-1.12-5.62-1.12-5.62 0-9" fill="#D4D6D5"/><path d="M443 545h2l1 7-3-1a94 94 0 0 1-1-5z" fill="#ECEEEC"/><path d="M492 453h1l1 8c-1.94-.31-1.94-.31-4-1l-1-3h3z" fill="#BEC2BE"/><path d="m760 376 3 1-1 8c-2-2-2-2-2.12-5.62z" fill="#EBEEEB"/><path d="M494 371c2 2 2 2 2.12 5.62L496 380l-3-1z" fill="#222226"/><path d="M717 258h1l1 14-1-2h-2z" fill="#3F403A"/><path d="M554 196c2.4 1.6 4.7 3.26 7 5l-9-1z" fill="#2A2012"/><path d="M601 175h1v9l-4-1z" fill="#3C290E"/><path d="m588 172 3 2h-3zm-3 1 3 1v3l-4 1z" fill="#E2C459"/><path d="m646 157 2 4 2-1v5l-3 1z" fill="#C4B06C"/><path d="m655 145 3 1c-1.31 2.5-1.31 2.5-3 5h-3c1.88-4.88 1.88-4.88 3-6" fill="#241F13"/><path d="m580 137 6 5-1 4-6-8z" fill="#E0C778"/><path d="m742 1 6 2v3l-6-2z" fill="#E2E5E3"/><path d="M709 692h1l1 12h-3z" fill="#ADB1AD"/><path d="m913 695-5 4-2-1 1-3c3-1 3-1 6 0" fill="#E8EBE8"/><path d="m917 687 2 2c-2 3-2 3-4 3.81l-2 .19-2-2 6-2z" fill="#212220"/><path d="m947 664 3 1-1 4h-3z" fill="#242623"/><path d="m958 650 2 2c-.38 2.62-.38 2.62-1 5l-3 1z" fill="#D5D7D5"/><path d="M953 611c3.94 3.32 3.94 3.32 4.25 6.75L957 620c-2.5-2.94-3.47-5.18-4-9" fill="#DEE0E0"/><path d="M490 391c1.45 2.34 2.04 3.58 1.76 6.36l-.64 2.39-.61 2.42L490 404h-1c-.08-4.52-.1-8.59 1-13" fill="#505253"/><path d="M495 358h2q-.39 3.51-1 7l-2 1c-.93-2.61-1.15-3.64-.06-6.25z" fill="#ECEDED"/><path d="m754 355 1 5h-4l-1-4c2-1 2-1 4-1" fill="#2C2D27"/><path d="m522 300 2 2-2 5h-3c1.88-4.75 1.88-4.75 3-7" fill="#202224"/><path d="m619 203 1 3h2v2h3v2c-4.88-.88-4.88-.88-6-2q-.06-2.5 0-5" fill="#676968"/><path d="M540 186c3.16 1.37 3.99 1.99 6 5l-2 1v-2h-4z" fill="#221704"/><path d="M650 182h2l1 4h3v3c-2.99-1.1-3.85-1.68-5.25-4.62z" fill="#EBD282"/><path d="M542 167c2 3 2 3 3 6h-4l-1-3h2z" fill="#D0B460"/><path d="M649 153h1c.25 6.62.25 6.62-2 10l-1-6h2z" fill="#E2D498"/><path d="M701 29c0 3.52-.82 4.37-3 7l-2-1c1.37-3.16 1.99-3.99 5-6" fill="#1E221D"/></svg>