<svg style="background:transparent" version="1.1" xmlns="http://www.w3.org/2000/svg" viewBox="0 0 1248 704"><path d="m1016 91 2.82.22c4.33.41 8.08 1.35 12.18 2.78l3.31.44c7.93 1.21 15.31 4.52 22.69 7.56l3.44 1.38c5 2.28 9.76 4.94 14.56 7.62l1.98 1.07c4.69 2.56 8.8 5.68 13.02 8.93l6.25 4.69L1102 130l2.36 1.64L1106 133v2l1.78.76c7.1 3.97 10.25 12 12.69 19.35 1.14 6.23-.98 11.78-4.47 16.89-6.11 6.6-11.2 9.94-20.25 10.38-9.7-.22-17.09-4.83-24.75-10.38l-2.8-2.02-5.7-4.16a175 175 0 0 0-8.5-5.82l-1.89-1.24c-9.4-6.07-20.17-10.17-31.14-12.37q-3-.61-5.97-1.39c-7.01-1.58-15.04-1.96-22 0l-4.69.81a47 47 0 0 0-19.76 9.04C967 156 967 156 964.38 157.44c-3.89 2.55-6.4 6.18-9.07 9.94L954 169h-2l-.75 2a87 87 0 0 1-3.13 6.69 91 91 0 0 0-3.81 8.62c-6.23 15.97-13.93 35.52-26.31 47.69l-1.44 2.44c-1.62 2.65-3.33 4.4-5.56 6.56q-2.25 2.68-4.44 5.41c-1.72 1.76-3.35 2.54-5.56 3.59l-2.12 2.12L897 256h-2l-.72 1.82c-1.58 2.69-3.07 3.54-5.78 5.06l-2.68 1.53L883 266l-5.62 3.38L873 272c1.55 4.07 3.41 7.92 5.38 11.81l.94 1.88q1.93 3.86 3.92 7.69A84 84 0 0 1 889 308l.82 2.65c1.14 3.77 2.24 7.53 3.18 11.35l.94 3.38c1.77 7.1 3.07 14.6 3.05 21.93.01 2.86.18 5.46.5 8.28.68 6.3.66 12.58.63 18.91l.02 3.57-.01 3.4v3.07C898 387 898 387 897 389c-.07 2.24 0 4.47.06 6.71-.06 2.29-.06 2.29-.56 4.19-.67 2.8-.56 5.41-.5 8.29q.07 2.9 0 5.81l-1 1a61 61 0 0 0 0 4.06c.04 3.1-.07 6.06-.5 9.13-.5 3.81-.5 3.81-.5 7.25V438l-1 1q-.07 2.78 0 5.56c.03 3.56.03 6.98-.5 10.5a85 85 0 0 0-.44 12.62C892 470 892 470 891 472q-.14 3.4-.13 6.8l-.01 2.04.01 4.28-.01 6.52.01 4.16v3.82c.11 2.94.47 5.52 1.13 8.38q.21 2.38.38 4.75c.39 4.34 1.45 8.02 2.93 12.1.87 2.7 1.17 5.3 1.45 8.11a53 53 0 0 0 3.36 13.79c1.01 2.59.88 4.48.88 7.25q.73 2.46 1.49 4.9c.84 3.47 1.02 6.99 1.26 10.55A42 42 0 0 0 905 576v6l.46 3.2c.56 3.91.88 7.8 1.1 11.74l.13 2.21c.35 6.46.35 12.89.25 19.36.06 3.29.48 6.26 1.06 9.49.33 6-.09 11.91-.78 17.87C907 648 907 648 907 651v11l2.35.66q5.33 1.5 10.65 3.03l3.7 1.03c8.97 2.59 17.39 5.66 23.3 13.28.11 4.41-2.16 6.82-5 10-14.67 10.07-34.82 11.19-52 13l-2.29.25c-7.64.78-15.22.93-22.89.95l-4.16.02q-6.76.03-13.54.03h-2.35c-34.64.03-69.15-1.32-103.73-3.14l-8.11-.43c-21.88-1.14-21.88-1.14-31.54-1.68a1474 1474 0 0 0-82.77-2.19h-2.25a1525 1525 0 0 0-140.16 6.45c-6.82.62-13.56.88-20.41.86h-3.21l-10.54-.01h-23.91l-23.58-.02-38.27-.01-37.15-.03h-13.82L210 704v-2l-1.62 1c-2.92 1.23-5.25 1.14-8.38 1v-3l7-2 1 1 1-11-2.92 1.5-3.83 1.94-1.92.98c-11.41 5.77-22.92 5.24-34.95 1.88-7.72-2.97-13.53-8.35-18.32-14.99-2.77-8.63-1.38-16.47 2.4-24.55 4.91-8.81 11.93-14.08 21.45-17.43 2.97-.47 5.84-.26 8.84-.14 7.86.05 12.29-1.36 17.94-6.75L200 629l5-3a262 262 0 0 0 5-5 210 210 0 0 1 3.23-2.7c3.91-3.33 7.33-7 10.77-10.8 3.97-4.38 7.97-8.41 12.51-12.19a22 22 0 0 0 4.24-5.06C243 587 243 587 246 585l1.38-2.38c1.62-2.62 1.62-2.62 3.96-4.43 3.74-3.08 6.08-6.84 8.79-10.83C262 565 262 565 265 564a68 68 0 0 0 2-4q1.61-2.2 3.31-4.31c2.27-2.86 4.44-5.74 6.5-8.75L279 544h2l1-4-1.69-.78c-3.52-1.86-6.64-4.24-9.87-6.56-2.44-1.66-2.44-1.66-4.51-2.68-9.15-4.64-17.35-14.97-21.93-23.98q-.54-2-1-4l-1.38-3.06a58 58 0 0 1-3-9.06 96 96 0 0 0-4.24-12.5c-1.8-4.53-2.97-8.52-3.24-13.38-.31-4.4-1.54-8.66-2.58-12.94a166 166 0 0 1-3.03-17.87A54 54 0 0 0 223 424q-.57-2.27-1.06-4.56l-.48-2.19q-1.01-4.92-1.96-9.86l-.5-2.58-.5-2.6C218 400 218 400 217 398q-.3-2.17-.5-4.38A53 53 0 0 0 215 385a144 144 0 0 1-2-23l-1-2c-.56-8.55 1.63-14.03 6.7-20.82 3.16-2.99 6.16-4.1 10.5-4.26 9.53 1.25 17.54 4.22 26.04 8.68A84 84 0 0 0 263 347l2.43 1c14.05 5.75 14.05 5.75 21.57 4q2.48-1.06 4.93-2.18c3.58-1.42 7.35-2.18 11.09-3.07a78 78 0 0 0 7.48-2.31c4.51-1.58 9.05-2.26 13.77-2.97 3.03-.52 5.82-1.48 8.73-2.47h5l7-2h4c1.82-1.71 1.82-1.71 3.56-3.94 3.14-3.96 3.14-3.96 6.44-5.06l.5-2 .5-2 3-1 .5-2 .5-2 3-1a88 88 0 0 0 2-4l3-3 1.19-2.25c3.39-5.15 9.09-10.38 14.81-12.75 4.46-.58 7.93-.48 12.06 1.38L402 299v2l1.78.66c6.58 3.97 9.69 13.78 11.54 20.91A63 63 0 0 0 418 330c1.73 4.19 3.09 8.41 4.35 12.76a109 109 0 0 0 1.71 5.3 89 89 0 0 1 2.38 9.79A27 27 0 0 0 429 364a176 176 0 0 0 18-8c6-3 6-3 8.94-4.44q4.15-2.13 8.15-4.5c3.81-2.12 7.76-3.99 11.68-5.89 6.73-3.29 13.26-6.52 19.34-10.94 2.2-1.43 4.45-2.27 6.89-3.23l3-2a38 38 0 0 1 8-4l2.29-1.38c2.76-1.65 5.57-3.08 8.46-4.5 6.25-3.09 12.44-6.25 18.25-10.12q1.99-1.02 4-2l2.75-1.38q2.5-1.25 5.03-2.49c4.97-2.45 9.82-5.08 14.67-7.75 2.82-1.53 5.68-2.95 8.55-4.38l2.25-1.38c5.12-3.02 10.52-5.55 15.87-8.12a88 88 0 0 0 6.82-4A68 68 0 0 1 613 268q4.02-1.96 8-4c6.5-3.31 13.06-6.42 19.69-9.45q4.85-2.29 9.62-4.74A111 111 0 0 1 664 244l3.94-1.5a209 209 0 0 1 16.37-5.44c6.33-1.82 12.56-3.98 18.78-6.12a69 69 0 0 1 7.35-1.94c2.77-.59 5.4-1.25 8.12-2.06a59 59 0 0 1 9.27-1.66c3.2-.41 6.33-1.1 9.48-1.78a103 103 0 0 1 19.46-1.63l2.43-.01 5.05.01q3.86.01 7.72-.01l4.92.01 2.33-.01c3.19.02 5.73.12 8.78 1.14q2.4.26 4.81.44c4.01.36 7.41 1.15 11.19 2.56q3.69.78 7.39 1.43c4.1.75 7.89 1.59 11.73 3.19 5.33 2.05 9.41 2.33 14.74.28a73 73 0 0 0 16.1-10.29c2.04-1.61 2.04-1.61 4.41-2.93 3.44-2.19 6.02-4.93 8.82-7.87q2.83-2.97 5.81-5.81h2l.29-1.73c.87-2.78 2.22-4.41 4.09-6.65A47 47 0 0 0 886 185q2.45-4.95 4.97-9.88l2.09-4.12 1.07-2.08A78 78 0 0 0 899 157c5.99-14.58 19.63-36.02 34-43l4.16-3.57c14.25-11.1 32.68-17.52 50.55-19.21a86 86 0 0 0 4.52-.54c7.96-1.05 15.8-.35 23.77.32" fill="#111411"/><path d="m1016 91 2.82.22c4.33.41 8.08 1.35 12.18 2.78l3.31.44c7.93 1.21 15.31 4.52 22.69 7.56l3.44 1.38c5 2.28 9.76 4.94 14.56 7.62l1.98 1.07c4.69 2.56 8.8 5.68 13.02 8.93l6.25 4.69L1102 130l2.36 1.64L1106 133v2l1.78.76c7.1 3.97 10.25 12 12.69 19.35 1.14 6.23-.98 11.78-4.47 16.89-6.11 6.6-11.2 9.94-20.25 10.38-9.7-.22-17.09-4.83-24.75-10.38l-2.8-2.02-5.7-4.16a175 175 0 0 0-8.5-5.82l-1.89-1.24c-9.4-6.07-20.17-10.17-31.14-12.37q-3-.61-5.97-1.39c-7.01-1.58-15.04-1.96-22 0l-4.69.81a47 47 0 0 0-19.76 9.04C967 156 967 156 964.38 157.44c-3.89 2.55-6.4 6.18-9.07 9.94L954 169h-2l-.75 2a87 87 0 0 1-3.13 6.69 91 91 0 0 0-3.81 8.62c-6.23 15.97-13.93 35.52-26.31 47.69l-1.44 2.44c-1.62 2.65-3.33 4.4-5.56 6.56q-2.25 2.68-4.44 5.41c-1.72 1.76-3.35 2.54-5.56 3.59l-2.12 2.12L897 256h-2l-.72 1.82c-1.58 2.69-3.07 3.54-5.78 5.06l-2.68 1.53L883 266l-5.62 3.38L873 272c1.55 4.07 3.41 7.92 5.38 11.81l.94 1.88q1.93 3.86 3.92 7.69A84 84 0 0 1 889 308l.82 2.65c1.14 3.77 2.24 7.53 3.18 11.35l.94 3.38c1.77 7.1 3.07 14.6 3.05 21.93.01 2.86.18 5.46.5 8.28.68 6.3.66 12.58.63 18.91l.02 3.57-.01 3.4v3.07C898 387 898 387 897 389c-.07 2.24 0 4.47.06 6.71-.06 2.29-.06 2.29-.56 4.19-.67 2.8-.56 5.41-.5 8.29q.07 2.9 0 5.81l-1 1a61 61 0 0 0 0 4.06c.04 3.1-.07 6.06-.5 9.13-.5 3.81-.5 3.81-.5 7.25V438l-1 1q-.07 2.78 0 5.56c.03 3.56.03 6.98-.5 10.5a85 85 0 0 0-.44 12.62C892 470 892 470 891 472q-.14 3.4-.13 6.8l-.01 2.04.01 4.28-.01 6.52.01 4.16v3.82c.11 2.94.47 5.52 1.13 8.38q.21 2.38.38 4.75c.39 4.34 1.45 8.02 2.93 12.1.87 2.7 1.17 5.3 1.45 8.11a53 53 0 0 0 3.36 13.79c1.01 2.59.88 4.48.88 7.25q.73 2.46 1.49 4.9c.84 3.47 1.02 6.99 1.26 10.55A42 42 0 0 0 905 576v6l.46 3.2c.56 3.91.88 7.8 1.1 11.74l.13 2.21c.35 6.46.35 12.89.25 19.36.06 3.29.48 6.26 1.06 9.49.33 6-.09 11.91-.78 17.87C907 648 907 648 907 651v11l2.35.66q5.33 1.5 10.65 3.03l3.7 1.03c8.97 2.59 17.39 5.66 23.3 13.28.11 4.41-2.16 6.82-5 10-14.67 10.07-34.82 11.19-52 13l-2.29.25c-7.64.78-15.22.93-22.89.95l-4.16.02q-6.76.03-13.54.03h-2.35c-34.64.03-69.15-1.32-103.73-3.14l-8.11-.43c-21.88-1.14-21.88-1.14-31.54-1.68a1474 1474 0 0 0-82.77-2.19h-2.25c-44.03.02-87.73 2.4-131.63 5.74l-2.72.21q-2.8.22-5.61.5c-8.77.85-17.49.87-26.29.85h-5l-13.46-.01-14.12-.01-26.67-.02-30.4-.02L298 704a39 39 0 0 1 9.41-7.25l3.22-1.82 3.43-1.93 7.14-4.07 1.79-1.02q7.27-4.2 14.32-8.79c7.93-5.1 16.04-9.88 24.19-14.62a811 811 0 0 0 31.15-18.99l7.69-4.9c14.52-9.2 28.97-18.49 43.28-27.99l2.84-1.85c2.54-1.77 2.54-1.77 4.68-3.63 8.05-6.76 18.18-7.68 28.21-9.61A145 145 0 0 0 496 593l2.65-.86c51.11-16.74 100.62-40.81 147.24-67.54A751 751 0 0 1 685 504c1.57 4.12 3.1 8.23 4.47 12.42 10.41 31.45 26.74 57.23 51.15 79.7 10.28 9.5 18.85 18.28 23.38 31.88q.1 3.85.06 7.69l-.01 2.12L764 643l-2.27.23c-8.34 1.07-15.89 3.09-21.43 9.84-4.56 7.08-5.01 13.6-4.3 21.93 2.04 4.84 4.83 7.08 9.52 9.12 15.59 5.52 37.32 7.02 52.95.92 9.46-4.69 14.03-11.84 17.47-21.6 4.49-14.54 5.35-28.71 5.44-43.82l.01-2.41c.04-12.76-1.36-24.05-5.39-36.21q-.55-2.49-1-5c13.35 5.75 26.5 19.28 33 32 2.92 7.73 5.14 15.44 5.1 23.74l-.01 3.23-.03 3.34-.01 3.4L853 650l-2.48.31c-8.26 1.08-15.97 2.64-21.66 9.14-5.66 7.89-6.5 13.9-5.86 23.55 1.69 5.25 4.55 7.83 9 11 8.4 4.2 16.42 4.21 25.62 4.25l3.38.06c11.6.06 22.78-1.81 32-9.31 10.74-11.45 10.15-29.12 10.17-43.82l.01-3.69.01-7.71.03-11.54c.07-26.85-2.05-53.12-8.11-79.3a655 655 0 0 1-3.8-18.13l-.65-3.22-.61-3.07-.54-2.72c-1.1-6.04-1.7-11.94-1.78-18.08l-.04-2.46-.07-8.2-.01-2.91c-.05-18.31 1.3-36.43 2.89-54.65 1.8-20.66 2.99-41.18 2.94-61.94v-3.29c-.04-16.8-.64-33.15-5.56-49.33l-.92-3.09c-2.75-8.84-6.49-16.77-10.96-24.85a530 530 0 0 1-3.5-6.69l-1.47-2.76c-1.14-2.83-1.58-4.54-1.03-7.55 1.8-1.55 1.8-1.55 4.31-2.88l2.78-1.54L880 264c27-15.76 43.48-39.04 55.73-67.25l1.45-3.34 2.79-6.54c8.17-19.07 21.54-34.93 41.03-42.87a53 53 0 0 1 20.44-3.31l2.8.04c23.93.51 44.31 10.72 63.21 24.83 9.4 6.99 18.69 13.51 30.94 12.86 5.85-.94 10.68-2.98 14.61-7.48 3.98-5.85 3.91-12.09 3-18.94-9.36-22.79-39.65-38.03-60.98-47.2-17.31-7.1-34.62-10.19-53.33-10.11h-2.07c-27.02.14-50.34 8.11-70.62 26.31l-2.07 1.82c-12.69 11.87-20.89 27.32-28.03 42.93l-.84 1.84q-2.1 4.57-4.14 9.16c-11.66 25.77-31.58 46.28-57.23 58.32-7.32 2.54-14.29-.83-21.39-2.95-8.91-2.46-18.18-3.71-27.3-5.12l-3.75-.6c-6.42-.75-12.92-.64-19.37-.65h-2.15a196 196 0 0 0-39.16 3.7 183 183 0 0 0-26.65 7.21c-3.34 1.17-6.72 2.19-10.1 3.22-43.61 13.36-85.09 36.8-124.88 58.79A877 877 0 0 1 540.5 310q-13.65 7.02-27.1 14.4-12.74 6.98-25.58 13.81l-3.58 1.91-1.8.96q-6.37 3.42-12.71 6.89C433.06 368 433.06 368 426 368l-4.16-12.97a519 519 0 0 1-4.82-15.9c-9.36-33.02-9.36-33.02-18.52-38.82-5.61-2.1-5.61-2.1-9.5-1.31a51 51 0 0 0-8 6l-1.68 1.46c-3.94 3.71-7.21 7.89-10.51 12.16A351 351 0 0 1 357 333.19l-1.32 1.63c-6.73 7.56-18.51 7.77-27.93 9.43-13.54 2.49-27.98 5.36-40.39 11.52-8.46 3.1-16.2-1.54-23.92-4.96l-6.98-3q-4.48-1.94-8.97-3.92c-15.27-6.71-15.27-6.71-22.49-4.89-3.89 2.07-6.32 4.94-8 9-.42 3.09-.33 6.2-.31 9.31l.01 2.82c.42 24.77 6.21 49.38 12.45 73.25.91 3.89 1.52 7.79 2.1 11.74 2.92 19.2 8.52 38.88 15.75 56.88l1.09 2.82c6.43 14.66 20.31 24.87 34.79 30.74q2.05.75 4.12 1.44c-1.44 4.35-3.64 7.23-6.62 10.69l-2.74 3.2-1.36 1.6c-1.79 2.11-3.5 4.28-5.22 6.45A664 664 0 0 1 256 577l-1.63 1.92c-5.68 6.65-11.33 13.24-17.62 19.33a100 100 0 0 0-5.19 5.69 171 171 0 0 1-18.47 18.25c-2.37 2.05-4.66 4.18-6.97 6.31-7.35 6.64-13.85 12.42-24.02 12.79-9.97.37-17.59 1.3-25.2 8.44-5.53 6.61-9.04 14.95-8.48 23.63a25 25 0 0 0 10.27 15.58c9.92 5.27 22.33 7.29 33.35 4.55A71 71 0 0 0 214 682l2 1-1.44 3.19c-2.19 5.75-2.29 11.72-2.56 17.81h-2v-2l-1.62 1c-2.92 1.23-5.25 1.14-8.38 1v-3l7-2 1 1 1-11-2.92 1.5-3.83 1.94-1.92.98c-11.41 5.77-22.92 5.24-34.95 1.88-7.72-2.97-13.53-8.35-18.32-14.99-2.77-8.63-1.38-16.47 2.4-24.55 4.91-8.81 11.93-14.08 21.45-17.43 2.97-.47 5.84-.26 8.84-.14 7.86.05 12.29-1.36 17.94-6.75L200 629l5-3a262 262 0 0 0 5-5 210 210 0 0 1 3.23-2.7c3.91-3.33 7.33-7 10.77-10.8 3.97-4.38 7.97-8.41 12.51-12.19a22 22 0 0 0 4.24-5.06C243 587 243 587 246 585l1.38-2.38c1.62-2.62 1.62-2.62 3.96-4.43 3.74-3.08 6.08-6.84 8.79-10.83C262 565 262 565 265 564a68 68 0 0 0 2-4q1.61-2.2 3.31-4.31c2.27-2.86 4.44-5.74 6.5-8.75L279 544h2l1-4-1.69-.78c-3.52-1.86-6.64-4.24-9.87-6.56-2.44-1.66-2.44-1.66-4.51-2.68-9.15-4.64-17.35-14.97-21.93-23.98q-.54-2-1-4l-1.38-3.06a58 58 0 0 1-3-9.06 96 96 0 0 0-4.24-12.5c-1.8-4.53-2.97-8.52-3.24-13.38-.31-4.4-1.54-8.66-2.58-12.94a166 166 0 0 1-3.03-17.87A54 54 0 0 0 223 424q-.57-2.27-1.06-4.56l-.48-2.19q-1.01-4.92-1.96-9.86l-.5-2.58-.5-2.6C218 400 218 400 217 398q-.3-2.17-.5-4.38A53 53 0 0 0 215 385a144 144 0 0 1-2-23l-1-2c-.56-8.55 1.63-14.03 6.7-20.82 3.16-2.99 6.16-4.1 10.5-4.26 9.53 1.25 17.54 4.22 26.04 8.68A84 84 0 0 0 263 347l2.43 1c14.05 5.75 14.05 5.75 21.57 4q2.48-1.06 4.93-2.18c3.58-1.42 7.35-2.18 11.09-3.07a78 78 0 0 0 7.48-2.31c4.51-1.58 9.05-2.26 13.77-2.97 3.03-.52 5.82-1.48 8.73-2.47h5l7-2h4c1.82-1.71 1.82-1.71 3.56-3.94 3.14-3.96 3.14-3.96 6.44-5.06l.5-2 .5-2 3-1 .5-2 .5-2 3-1a88 88 0 0 0 2-4l3-3 1.19-2.25c3.39-5.15 9.09-10.38 14.81-12.75 4.46-.58 7.93-.48 12.06 1.38L402 299v2l1.78.66c6.58 3.97 9.69 13.78 11.54 20.91A63 63 0 0 0 418 330c1.73 4.19 3.09 8.41 4.35 12.76a109 109 0 0 0 1.71 5.3 89 89 0 0 1 2.38 9.79A27 27 0 0 0 429 364a176 176 0 0 0 18-8c6-3 6-3 8.94-4.44q4.15-2.13 8.15-4.5c3.81-2.12 7.76-3.99 11.68-5.89 6.73-3.29 13.26-6.52 19.34-10.94 2.2-1.43 4.45-2.27 6.89-3.23l3-2a38 38 0 0 1 8-4l2.29-1.38c2.76-1.65 5.57-3.08 8.46-4.5 6.25-3.09 12.44-6.25 18.25-10.12q1.99-1.02 4-2l2.75-1.38q2.5-1.25 5.03-2.49c4.97-2.45 9.82-5.08 14.67-7.75 2.82-1.53 5.68-2.95 8.55-4.38l2.25-1.38c5.12-3.02 10.52-5.55 15.87-8.12a88 88 0 0 0 6.82-4A68 68 0 0 1 613 268q4.02-1.96 8-4c6.5-3.31 13.06-6.42 19.69-9.45q4.85-2.29 9.62-4.74A111 111 0 0 1 664 244l3.94-1.5a209 209 0 0 1 16.37-5.44c6.33-1.82 12.56-3.98 18.78-6.12a69 69 0 0 1 7.35-1.94c2.77-.59 5.4-1.25 8.12-2.06a59 59 0 0 1 9.27-1.66c3.2-.41 6.33-1.1 9.48-1.78a103 103 0 0 1 19.46-1.63l2.43-.01 5.05.01q3.86.01 7.72-.01l4.92.01 2.33-.01c3.19.02 5.73.12 8.78 1.14q2.4.26 4.81.44c4.01.36 7.41 1.15 11.19 2.56q3.69.78 7.39 1.43c4.1.75 7.89 1.59 11.73 3.19 5.33 2.05 9.41 2.33 14.74.28a73 73 0 0 0 16.1-10.29c2.04-1.61 2.04-1.61 4.41-2.93 3.44-2.19 6.02-4.93 8.82-7.87q2.83-2.97 5.81-5.81h2l.29-1.73c.87-2.78 2.22-4.41 4.09-6.65A47 47 0 0 0 886 185q2.45-4.95 4.97-9.88l2.09-4.12 1.07-2.08A78 78 0 0 0 899 157c5.99-14.58 19.63-36.02 34-43l4.16-3.57c14.25-11.1 32.68-17.52 50.55-19.21a86 86 0 0 0 4.52-.54c7.96-1.05 15.8-.35 23.77.32" fill="#B8BBB8"/><path d="M684 504c2 1 2 1 2.86 3.38l.89 3.18c10.03 33.76 26.9 61.65 52.87 85.56 10.28 9.5 18.85 18.28 23.38 31.88q.1 3.85.06 7.69l-.01 2.12L764 643l-2.38.3-3.18.45-3.13.42c-3.31.83-3.31.83-6.56 2.89-4.55 2.76-9 2.42-14.19 2.25l-2.68-.03a378 378 0 0 1-18.72-.9c-48.2-3.09-97.03-2.04-145.28-.57l-6.08.18c-16.2.5-32.33 1.36-48.48 2.73l-10.35.84c-57.19 4.59-57.19 4.59-82.78 8.14l-7.36 1.01q-8.44 1.16-16.89 2.35l-2.68.38a464 464 0 0 0-30.07 5.1c-2.88.42-4.5.46-7.19-.54l5.06-3.12 1.73-1.07q5.64-3.47 11.32-6.9A1656 1656 0 0 0 417 630l2.85-1.84q11.94-7.7 23.77-15.54l2.84-1.85c2.54-1.77 2.54-1.77 4.68-3.63 8.05-6.76 18.18-7.68 28.21-9.61A145 145 0 0 0 496 593l2.65-.86c51.1-16.74 100.63-40.79 147.24-67.54 7.25-4.15 14.6-8.08 22.02-11.91l2.43-1.25 2.33-1.2c3.22-1.71 6.37-3.56 9.5-5.42z" fill="#ECEEEC"/><path d="m1016 91 2.82.22c4.33.41 8.08 1.35 12.18 2.78l3.31.44c7.93 1.21 15.31 4.52 22.69 7.56l3.44 1.38c5 2.28 9.76 4.94 14.56 7.62l1.98 1.07c4.69 2.56 8.8 5.68 13.02 8.93l6.25 4.69L1102 130l2.36 1.64L1106 133v2l1.78.76c7.1 3.97 10.25 12 12.69 19.35 1.14 6.23-.98 11.78-4.47 16.89-6.11 6.6-11.2 9.94-20.25 10.38-9.7-.22-17.09-4.83-24.75-10.38l-2.8-2.02-5.7-4.16a175 175 0 0 0-8.5-5.82l-1.89-1.24c-9.4-6.07-20.17-10.17-31.14-12.37q-3-.61-5.97-1.39c-7.01-1.58-15.04-1.96-22 0l-4.69.81a47 47 0 0 0-19.76 9.04C967 156 967 156 964.38 157.44c-3.89 2.55-6.4 6.18-9.07 9.94L954 169h-2l-.75 2a87 87 0 0 1-3.13 6.69 91 91 0 0 0-3.81 8.62c-6.23 15.97-13.93 35.52-26.31 47.69l-1.44 2.44c-1.62 2.65-3.33 4.4-5.56 6.56q-2.25 2.68-4.44 5.41c-1.72 1.76-3.35 2.54-5.56 3.59l-2.12 2.12L897 256h-2l-.72 1.82c-1.58 2.69-3.07 3.54-5.78 5.06l-2.68 1.53L883 266l-5.62 3.38L873 272c1.55 4.07 3.41 7.92 5.38 11.81l.94 1.88q1.93 3.86 3.92 7.69A84 84 0 0 1 889 308l.82 2.65c1.14 3.77 2.24 7.53 3.18 11.35l.94 3.38c1.77 7.1 3.07 14.6 3.05 21.93.01 2.86.18 5.46.5 8.28.68 6.3.66 12.58.63 18.91l.02 3.57-.01 3.4v3.07C898 387 898 387 897 389c-.07 2.24 0 4.47.06 6.71-.06 2.29-.06 2.29-.56 4.19-.67 2.8-.56 5.41-.5 8.29q.07 2.9 0 5.81l-1 1a61 61 0 0 0 0 4.06c.04 3.1-.07 6.06-.5 9.13-.5 3.81-.5 3.81-.5 7.25V438l-1 1q-.07 2.78 0 5.56c.03 3.56.03 6.98-.5 10.5a85 85 0 0 0-.44 12.62C892 470 892 470 891 472q-.14 3.4-.13 6.8l-.01 2.04.01 4.28-.01 6.52.01 4.16v3.82c.11 2.94.47 5.52 1.13 8.38q.21 2.38.38 4.75c.39 4.34 1.45 8.02 2.93 12.1.87 2.7 1.17 5.3 1.45 8.11a53 53 0 0 0 3.36 13.79c1.01 2.59.88 4.48.88 7.25q.73 2.46 1.49 4.9c.84 3.47 1.02 6.99 1.26 10.55A42 42 0 0 0 905 576v6l.46 3.2c.56 3.91.88 7.8 1.1 11.74l.13 2.21c.35 6.46.35 12.89.25 19.36.06 3.29.48 6.26 1.06 9.49.33 6-.09 11.91-.78 17.87C907 648 907 648 907 651v11l2.35.66q5.33 1.5 10.65 3.03l3.7 1.03c8.97 2.59 17.39 5.66 23.3 13.28.11 4.41-2.16 6.82-5 10-14.67 10.07-34.82 11.19-52 13l-2.29.25c-7.64.78-15.22.93-22.89.95l-4.16.02q-6.76.03-13.54.03h-2.35c-34.64.03-69.15-1.32-103.73-3.14l-8.11-.43c-21.88-1.14-21.88-1.14-31.54-1.68a1474 1474 0 0 0-82.77-2.19h-2.25c-49 .03-97.79 2.66-146.59 6.99-4.68.33-9.35.31-14.03.26l-2.87-.01L446 704v-1c14.48-1.91 29-2.97 43.56-4l7.41-.53L518 697l2.72-.19 6.94-.48 3.65-.25c28.82-1.87 57.63-2.31 86.5-2.33h2.59c25.44-.03 50.82.43 76.22 1.69l2.07.1c12.36.62 24.7 1.32 37.03 2.24 5.59.38 11.18.54 16.78.72 6.61.21 13.2.45 19.8.96C911.69 709.88 911.69 709.88 941 687l1.94-1.44c1.06-1.56 1.06-1.56 1.18-3.94-1.86-4.34-5.95-6.64-10.16-8.54q-3.22-1.19-6.52-2.2l-2.15-.73a141 141 0 0 0-14.61-3.74l-3.8-.8L904 665l-.02-2.31-.27-21.87-.13-11.24c-.31-29.27-1.85-58.03-8.47-86.64a655 655 0 0 1-3.8-18.13l-.65-3.22-.61-3.07-.54-2.72c-1.1-6.04-1.7-11.94-1.78-18.08l-.04-2.46-.07-8.2-.01-2.91c-.05-18.31 1.3-36.43 2.89-54.65 1.8-20.66 2.99-41.18 2.94-61.94v-3.29c-.04-16.8-.64-33.15-5.56-49.33l-.92-3.09c-2.75-8.84-6.49-16.77-10.96-24.85a530 530 0 0 1-3.5-6.69l-1.47-2.76c-1.14-2.83-1.58-4.54-1.03-7.55 1.8-1.55 1.8-1.55 4.31-2.88l2.78-1.54L880 264c27-15.76 43.48-39.04 55.73-67.25l1.45-3.34 2.79-6.54c8.17-19.07 21.54-34.93 41.03-42.87a53 53 0 0 1 20.44-3.31l2.8.04c23.93.51 44.31 10.72 63.21 24.83 9.4 6.99 18.69 13.51 30.94 12.86 5.85-.94 10.68-2.98 14.61-7.48 3.98-5.85 3.91-12.09 3-18.94-9.36-22.79-39.65-38.03-60.98-47.2-17.31-7.1-34.62-10.19-53.33-10.11h-2.07c-27.02.14-50.34 8.11-70.62 26.31l-2.07 1.82c-12.69 11.87-20.89 27.32-28.03 42.93l-.84 1.84q-2.1 4.57-4.14 9.16c-11.66 25.77-31.58 46.28-57.23 58.32-7.32 2.54-14.29-.83-21.39-2.95-8.91-2.46-18.18-3.71-27.3-5.12l-3.75-.6c-6.42-.75-12.92-.64-19.37-.65h-2.15a196 196 0 0 0-39.16 3.7 183 183 0 0 0-26.65 7.21c-3.34 1.17-6.72 2.19-10.1 3.22-43.61 13.36-85.09 36.8-124.88 58.79A877 877 0 0 1 540.5 310q-13.65 7.02-27.1 14.4-12.74 6.98-25.58 13.81l-3.58 1.91-1.8.96q-6.37 3.42-12.71 6.89C433.06 368 433.06 368 426 368l-4.16-12.97a519 519 0 0 1-4.82-15.9c-9.36-33.02-9.36-33.02-18.52-38.82-5.61-2.1-5.61-2.1-9.5-1.31a51 51 0 0 0-8 6l-1.68 1.46c-3.94 3.71-7.21 7.89-10.51 12.16A351 351 0 0 1 357 333.19l-1.32 1.63c-6.73 7.56-18.51 7.77-27.93 9.43-13.54 2.49-27.98 5.36-40.39 11.52-8.46 3.1-16.2-1.54-23.92-4.96l-6.98-3q-4.48-1.94-8.97-3.92c-15.27-6.71-15.27-6.71-22.49-4.89-3.89 2.07-6.32 4.94-8 9-.42 3.09-.33 6.2-.31 9.31l.01 2.82c.42 24.77 6.21 49.38 12.45 73.25.91 3.89 1.52 7.79 2.1 11.74 2.92 19.2 8.52 38.88 15.75 56.88l1.09 2.82c6.43 14.66 20.31 24.87 34.79 30.74q2.05.75 4.12 1.44c-1.44 4.35-3.64 7.23-6.62 10.69l-2.74 3.2-1.36 1.6c-1.79 2.11-3.5 4.28-5.22 6.45A664 664 0 0 1 256 577l-1.63 1.92c-5.68 6.65-11.33 13.24-17.62 19.33a100 100 0 0 0-5.19 5.69 171 171 0 0 1-18.47 18.25c-2.37 2.05-4.66 4.18-6.97 6.31-7.35 6.64-13.85 12.42-24.02 12.79-9.97.37-17.59 1.3-25.2 8.44-5.53 6.61-9.04 14.95-8.48 23.63a25 25 0 0 0 10.27 15.58c9.92 5.27 22.33 7.29 33.35 4.55A71 71 0 0 0 214 682l2 1-1.44 3.19c-2.19 5.75-2.29 11.72-2.56 17.81h-2v-2l-1.62 1c-2.92 1.23-5.25 1.14-8.38 1v-3l7-2 1 1 1-11-2.92 1.5-3.83 1.94-1.92.98c-11.41 5.77-22.92 5.24-34.95 1.88-7.72-2.97-13.53-8.35-18.32-14.99-2.77-8.63-1.38-16.47 2.4-24.55 4.91-8.81 11.93-14.08 21.45-17.43 2.97-.47 5.84-.26 8.84-.14 7.86.05 12.29-1.36 17.94-6.75L200 629l5-3a262 262 0 0 0 5-5 210 210 0 0 1 3.23-2.7c3.91-3.33 7.33-7 10.77-10.8 3.97-4.38 7.97-8.41 12.51-12.19a22 22 0 0 0 4.24-5.06C243 587 243 587 246 585l1.38-2.38c1.62-2.62 1.62-2.62 3.96-4.43 3.74-3.08 6.08-6.84 8.79-10.83C262 565 262 565 265 564a68 68 0 0 0 2-4q1.61-2.2 3.31-4.31c2.27-2.86 4.44-5.74 6.5-8.75L279 544h2l1-4-1.69-.78c-3.52-1.86-6.64-4.24-9.87-6.56-2.44-1.66-2.44-1.66-4.51-2.68-9.15-4.64-17.35-14.97-21.93-23.98q-.54-2-1-4l-1.38-3.06a58 58 0 0 1-3-9.06 96 96 0 0 0-4.24-12.5c-1.8-4.53-2.97-8.52-3.24-13.38-.31-4.4-1.54-8.66-2.58-12.94a166 166 0 0 1-3.03-17.87A54 54 0 0 0 223 424q-.57-2.27-1.06-4.56l-.48-2.19q-1.01-4.92-1.96-9.86l-.5-2.58-.5-2.6C218 400 218 400 217 398q-.3-2.17-.5-4.38A53 53 0 0 0 215 385a144 144 0 0 1-2-23l-1-2c-.56-8.55 1.63-14.03 6.7-20.82 3.16-2.99 6.16-4.1 10.5-4.26 9.53 1.25 17.54 4.22 26.04 8.68A84 84 0 0 0 263 347l2.43 1c14.05 5.75 14.05 5.75 21.57 4q2.48-1.06 4.93-2.18c3.58-1.42 7.35-2.18 11.09-3.07a78 78 0 0 0 7.48-2.31c4.51-1.58 9.05-2.26 13.77-2.97 3.03-.52 5.82-1.48 8.73-2.47h5l7-2h4c1.82-1.71 1.82-1.71 3.56-3.94 3.14-3.96 3.14-3.96 6.44-5.06l.5-2 .5-2 3-1 .5-2 .5-2 3-1a88 88 0 0 0 2-4l3-3 1.19-2.25c3.39-5.15 9.09-10.38 14.81-12.75 4.46-.58 7.93-.48 12.06 1.38L402 299v2l1.78.66c6.58 3.97 9.69 13.78 11.54 20.91A63 63 0 0 0 418 330c1.73 4.19 3.09 8.41 4.35 12.76a109 109 0 0 0 1.71 5.3 89 89 0 0 1 2.38 9.79A27 27 0 0 0 429 364a176 176 0 0 0 18-8c6-3 6-3 8.94-4.44q4.15-2.13 8.15-4.5c3.81-2.12 7.76-3.99 11.68-5.89 6.73-3.29 13.26-6.52 19.34-10.94 2.2-1.43 4.45-2.27 6.89-3.23l3-2a38 38 0 0 1 8-4l2.29-1.38c2.76-1.65 5.57-3.08 8.46-4.5 6.25-3.09 12.44-6.25 18.25-10.12q1.99-1.02 4-2l2.75-1.38q2.5-1.25 5.03-2.49c4.97-2.45 9.82-5.08 14.67-7.75 2.82-1.53 5.68-2.95 8.55-4.38l2.25-1.38c5.12-3.02 10.52-5.55 15.87-8.12a88 88 0 0 0 6.82-4A68 68 0 0 1 613 268q4.02-1.96 8-4c6.5-3.31 13.06-6.42 19.69-9.45q4.85-2.29 9.62-4.74A111 111 0 0 1 664 244l3.94-1.5a209 209 0 0 1 16.37-5.44c6.33-1.82 12.56-3.98 18.78-6.12a69 69 0 0 1 7.35-1.94c2.77-.59 5.4-1.25 8.12-2.06a59 59 0 0 1 9.27-1.66c3.2-.41 6.33-1.1 9.48-1.78a103 103 0 0 1 19.46-1.63l2.43-.01 5.05.01q3.86.01 7.72-.01l4.92.01 2.33-.01c3.19.02 5.73.12 8.78 1.14q2.4.26 4.81.44c4.01.36 7.41 1.15 11.19 2.56q3.69.78 7.39 1.43c4.1.75 7.89 1.59 11.73 3.19 5.33 2.05 9.41 2.33 14.74.28a73 73 0 0 0 16.1-10.29c2.04-1.61 2.04-1.61 4.41-2.93 3.44-2.19 6.02-4.93 8.82-7.87q2.83-2.97 5.81-5.81h2l.29-1.73c.87-2.78 2.22-4.41 4.09-6.65A47 47 0 0 0 886 185q2.45-4.95 4.97-9.88l2.09-4.12 1.07-2.08A78 78 0 0 0 899 157c5.99-14.58 19.63-36.02 34-43l4.16-3.57c14.25-11.1 32.68-17.52 50.55-19.21a86 86 0 0 0 4.52-.54c7.96-1.05 15.8-.35 23.77.32" fill="#E8E8E9"/><path d="M402 302c1.56 1.97 1.56 1.97 3 4.5l1.44 2.47a162 162 0 0 1 9 21.53l.9 2.6a418 418 0 0 1 5.54 17.28l.61 2.06c1.1 3.83 2.16 7.59 2.51 11.56l-2 3c-.2 2.26-.2 2.26-.12 4.69l.05 2.45.07 1.86h-2c-1.45-1.54-1.45-1.54-3.12-3.62-5.38-6.3-11.14-10.48-18.88-13.38v-2l-2.25-.38c-2.75-.62-2.75-.62-4.59-1.57-7.68-3.74-16.86-4.56-25.23-5.62C364 349 364 349 361 348c-.51-4.8 1.3-8.19 3.5-12.31l1.01-1.96q1.23-2.37 2.49-4.73h2l.62-2.44A46 46 0 0 1 378 314h2l.69-1.69c3.33-5.86 7.67-8.41 13.81-10.5 4.55-1.05 4.55-1.05 7.5.19" fill="#252623"/><path d="M231.25 343c14.91 2.18 31.37 12.2 41.75 23-1.27 3.8-2.89 4.66-6.06 7.06A71 71 0 0 0 253 388l-2.32 3.25c-7.79 11.32-11.67 23.39-14.68 36.75h-3l-2.87-8.56-.82-2.43c-2.49-7.43-4.5-14.31-4.97-22.17-.34-2.84-.34-2.84-1.3-6.07-1.24-4.51-1.69-8.88-2.1-13.52l-.48-5.05-.19-2.23C220 366 220 366 219 363h-2v6h-1v-10h1l1-7h3l.25-1.69c1.87-5.77 3.93-7.74 10-7.31" fill="#272825"/><path d="M815 576c13.35 5.75 26.5 19.28 33 32 2.92 7.73 5.14 15.44 5.1 23.74l-.01 3.23-.03 3.34-.01 3.4L853 650l-2.48.31c-6.52.85-11.71 2.39-17.46 5.57-3.53 1.92-5.85 2.19-9.75 1.68l-2.45-.31L819 657c1-10 1-10 1.25-11.97.98-8.45 1.08-16.91 1.13-25.41l.01-2.41c.04-12.76-1.36-24.05-5.39-36.21q-.55-2.49-1-5" fill="#EAECEB"/><path d="M255.24 343.6A79 79 0 0 0 263 347l2.43 1c8.74 3.57 15.22 6.12 24.57 3l1 3c-5.37 2.8-9 3.48-15 2a191 191 0 0 1-12.56-5.2l-6.97-3q-4.5-1.94-8.98-3.9c-15.27-6.72-15.27-6.72-22.5-4.9-3.88 2.07-6.31 4.94-8 9-.41 3.09-.32 6.2-.3 9.3l.02 2.83c.4 24.77 6.2 49.39 12.44 73.25.92 3.89 1.52 7.8 2.1 11.75C234.17 464.32 239.78 484 247 502l1.1 2.82c6.42 14.67 20.3 24.87 34.78 30.74q2.05.76 4.12 1.44c-1.44 4.36-3.64 7.23-6.62 10.69l-2.73 3.2-1.37 1.6c-1.8 2.1-3.5 4.28-5.22 6.45A649 649 0 0 1 256 577l-1.63 1.92c-5.68 6.65-11.33 13.24-17.61 19.33a104 104 0 0 0-5.2 5.69 171 171 0 0 1-18.47 18.25c-2.37 2.05-4.66 4.18-6.96 6.3-7.36 6.66-13.86 12.43-24.03 12.8-9.97.37-17.58 1.3-25.2 8.44-5.53 6.62-9.03 14.95-8.48 23.64a25 25 0 0 0 10.27 15.57c9.92 5.27 22.33 7.29 33.35 4.56 8-2.52 15.3-6.41 21.96-11.5l2 1-1.44 3.19c-2.2 5.75-2.3 11.72-2.56 17.8h-2v-2l-1.62 1c-2.92 1.24-5.25 1.15-8.38 1v-3l7-2 1 1 1-11c-.48.26-.48.26-2.92 1.5l-3.83 1.95-1.92.99c-11.41 5.76-22.92 5.23-34.95 1.87-7.72-2.97-13.53-8.35-18.32-15-2.76-8.61-1.38-16.46 2.4-24.54 4.9-8.8 11.93-14.08 21.45-17.43 2.97-.47 5.84-.26 8.84-.14 7.86.05 12.29-1.36 17.94-6.75l2.3-2.44 5-3a262 262 0 0 0 5-5l3.24-2.7c3.9-3.32 7.33-7 10.77-10.8 3.97-4.38 7.97-8.4 12.52-12.2 1.72-1.51 3-3.1 4.23-5.05C243 587 243 587 246 585l1.38-2.37c1.62-2.63 1.62-2.63 3.97-4.44 3.73-3.08 6.07-6.84 8.78-10.82C262 565 262 565 265 564a60 60 0 0 0 2-4q1.61-2.2 3.3-4.31c2.29-2.86 4.46-5.74 6.5-8.75q1.1-1.45 2.2-2.94h2l1-4-1.7-.78c-3.51-1.86-6.63-4.24-9.86-6.56-2.44-1.66-2.44-1.66-4.51-2.68C256.78 525.34 248.58 515 244 506q-.54-2-1-4l-1.37-3.06a56 56 0 0 1-3-9.06 98 98 0 0 0-4.25-12.5c-1.8-4.53-2.97-8.52-3.24-13.38-.31-4.4-1.54-8.66-2.58-12.94a166 166 0 0 1-3.03-17.87 54 54 0 0 0-2.53-9.2q-.57-2.25-1.06-4.55l-.47-2.2q-1.02-4.9-1.97-9.84l-.5-2.6-.5-2.6c-.5-2.2-.5-2.2-1.5-4.2q-.3-2.18-.5-4.37A53 53 0 0 0 215 385c-1.22-7.66-2-15.24-2-23l-1-2c-.56-8.55 1.64-14.03 6.7-20.82 9.96-9.43 26.5-.84 36.54 4.42" fill="#DFE0E1"/><path d="M363 565c0 3 0 3-1.5 4.58l-2.06 1.67a103 103 0 0 0-7.94 7.25 148 148 0 0 1-9.51 8.72c-2.65 2.37-5.1 4.91-7.54 7.49C333 596 333 596 331 596v2c-1.5 1.48-1.5 1.48-3.56 3.19a112 112 0 0 0-7.94 7.31 149 149 0 0 1-9.07 8.35c-3.2 2.83-6.31 5.74-9.43 8.65a479 479 0 0 1-15 13.5l-3.17 2.73a1682 1682 0 0 1-12.49 10.69 358 358 0 0 1-7.64 6.38 104 104 0 0 0-4.78 4.12c-7.3 6.05-16.89 5.06-25.92 5.08 3.82-4.03 7.9-7.29 12.38-10.56a508 508 0 0 0 16.31-12.56q6.8-5.5 13.75-10.82c7.05-5.39 13.92-11.01 20.8-16.62q3.37-2.74 6.76-5.44 7.45-5.97 14.83-12.01 6.56-5.32 13.23-10.49c5.08-3.95 9.97-8.07 14.82-12.31C358.81 565 358.81 565 363 565" fill="#EAEAEC"/><path d="M407 450v4c-4.15 4.15-9.78 7.35-15 10h-3v2c-6.62 3-6.62 3-10 3v2q-3.62 1.76-7.25 3.5l-2.07 1.01c-3.53 1.68-5.7 2.49-9.68 2.49-.45-4.4-.43-6.4 2.2-10.05q1.43-1.44 2.92-2.83l1.44-1.46c3.32-3.21 5.86-4.35 10.44-4.66v-2c10.42-4.93 18.41-7.34 30-7" fill="#141715"/><path d="m889 180 2 3c-12.67 22.61-31.74 44.23-57 53-6.35.78-12.71-2.09-18.7-3.88-11.45-3.16-23.52-4.74-35.3-6.12v-1c8.48-2.67 15.66-2.1 24 1q3.69.78 7.39 1.43c4.1.75 7.89 1.59 11.73 3.19 5.33 2.05 9.41 2.33 14.74.28a73 73 0 0 0 16.1-10.29c2.04-1.61 2.04-1.61 4.41-2.93 3.44-2.19 6.02-4.93 8.82-7.87q2.83-2.97 5.81-5.81h2l.29-1.73c.87-2.78 2.22-4.41 4.09-6.65A48 48 0 0 0 886 185q1.47-2.52 3-5" fill="#DEDEE1"/><path d="M352 487c2.56 1.19 2.56 1.19 4 3 .5 2.38.5 2.38 0 5l-2 2.38c-2.57 3.36-2.32 5.49-2 9.62-2.15 1.3-3.53 2.01-6.06 1.94-1.94-.94-1.94-.94-3.32-3.25C341 503 341 503 337.88 501c-2.88-2-2.88-2-4.07-4.44.19-2.56.19-2.56 2.38-5.25 5.17-4.25 9.2-5.09 15.81-4.31" fill="#656766"/><path d="m1041 96 2.18.69c4.73 1.52 9.27 3.29 13.82 5.31l3.25 1.31c5.11 2.19 9.91 4.98 14.75 7.69l1.98 1.07c4.69 2.56 8.8 5.68 13.02 8.93l6.25 4.69L1102 130l2.36 1.64L1106 133v2l1.78.76c7.34 4.11 10.31 12.3 12.59 19.93l.63 2.31h-2l-1 5h-1l.03-2.02c-.38-11.68-6.77-19.56-15.01-27.39-24.2-20.73-53.53-34.27-85.02-38.59 5.82-5.82 17.1-1.21 24 1" fill="#E2E1E3"/><path d="M148 678h2q1.31 2.06 2.5 4.19c4.27 6.62 9.97 8.53 17.12 11.12 15.2 3.09 28-.27 40.82-8.69q1.8-1.28 3.56-2.62l2 1-1.44 3.19c-2.19 5.75-2.29 11.72-2.56 17.81h-2v-2l-1.62 1c-2.92 1.23-5.25 1.14-8.38 1v-3l7-2 1 1 1-11-2.92 1.5-3.83 1.94-1.92.98c-11.41 5.77-22.92 5.24-34.95 1.88-6.59-2.54-11.96-6.83-16.38-12.3-.94-2.94-.94-2.94-1-5" fill="#E9EDEB"/><path d="m908 242 3 1-2.75 3.38-1.55 1.89c-1.8 1.83-3.4 2.65-5.7 3.73l-2.12 2.12L897 256h-2l-.72 1.82c-1.58 2.69-3.07 3.54-5.78 5.06l-2.68 1.53L883 266l-5.62 3.38L873 272c1.55 4.07 3.41 7.92 5.38 11.81l.94 1.88q1.93 3.86 3.92 7.69A65 65 0 0 1 890 313l-2 1-1.4-3.71c-3.88-10.08-8.12-19.7-13.45-29.11-4.12-7.41-4.12-7.41-3.15-11.18 1.8-1.55 1.8-1.55 4.31-2.88l2.78-1.54L880 264a131 131 0 0 0 28-22" fill="#E9E9E9"/><path d="m284 475 .48 1.76c2.21 7.38 5.22 11.66 11.52 16.24-8.28-.04-15.09-2.42-22-7-2.41-2.52-2.41-2.52-4-5 1-3 1-3 2.67-3.95 3.89-1.38 7.13-2.44 11.33-2.05" fill="#E2BE61"/><path d="m373 461 2.05 5.18A17 17 0 0 0 379 471q-3.62 1.76-7.25 3.5l-2.07 1.01c-3.53 1.68-5.7 2.49-9.68 2.49-.41-4.27-.48-6.33 2.08-9.87l2.73-2.57 2.71-2.62C370 461 370 461 373 461" fill="#E4C46F"/><path d="m836 697 3.56.46c6.81.76 13.65.9 20.5 1.1l4.07.13 9.87.31c-2 3-2 3-4.62 3.68-3.81.36-7.58.45-11.4.42l-2.26-.01q-3.55 0-7.1-.03l-4.83-.01L832 703v-1h6z" fill="#C6C8C8"/><path d="m350 337-1 3-2.88.55c-16.68 3.18-33.22 6.35-49.46 11.38C293 353 293 353 290 353v-2c4.44-2.57 8.46-3.58 13.43-4.47 2.43-.5 4.62-1.19 6.95-2.03 4.55-1.61 9.12-2.31 13.89-3.03 3.03-.52 5.82-1.48 8.73-2.47h5l3.5-1a23 23 0 0 1 8.5-1" fill="#EBEBED"/><path d="m386 297 3 1-2.21 1.73c-7.53 6.13-13.65 13.18-19.52 20.85-5.02 6.52-10.61 12.47-16.27 18.42-.71-1.77-.71-1.77-1-4 1.36-1.92 1.36-1.92 3.31-3.75l1.93-1.86C357 328 357 328 359 328l.31-1.94.69-2.06 3-1 .5-2 .5-2 3-1a88 88 0 0 0 2-4l3-3 1.19-2.25c3.24-4.91 7.95-8.51 12.81-11.75" fill="#E1E1E2"/><path d="m178.06 637.75 3.22-.08 2.72.33 2 3-3 .11c-10.29.47-18.34 1.32-26.1 8.62-6.5 7.76-8.6 15.94-8.1 25.88l.2 2.39-2 1c-2.54-5.07-1.58-11.89-.13-17.18 4.5-11.6 10.9-17.66 22.13-22.82 3.21-1.07 5.7-1.2 9.06-1.25" fill="#EDF0ED"/><path d="M235 338v6l-1.83-.18a35 35 0 0 0-7.17.18c-2.8 2.59-3.8 4.4-5 8h-3v8l-2-1c-.62-9.73-.62-9.73 1.69-14.44L220 342l2.12-2.38c4.22-2.38 8.14-1.95 12.88-1.62" fill="#181918"/><path d="M889 313c6.8 6.8 7.24 21.97 8 31l-.46 2.15c-.73 3.88-.77 7.71-.86 11.65l-.06 2.54-.18 7.97-.13 5.43L895 387h-1l-.06-3.68-.26-13.76-.1-5.91c-.26-16.06-1.01-31.69-5.09-47.31L888 314z" fill="#C2C2C4"/><path d="M895 349c4.83 4.83 3.13 15.6 3.14 22.02l-.02 3.48.02 3.57-.01 3.4v3.07C898 387 898 387 897 389c-.07 2.24 0 4.47.06 6.71A24 24 0 0 1 896 402h-2c-.08-11.66.17-23.29.5-34.94l.14-5.28z" fill="#F2F2F4"/><path d="m492 582 2 1-2.92 2.08-3.83 2.73-1.92 1.37A391 391 0 0 0 476 596l4 2-7.69 2-2.18.58c-3.8.97-7.18 1.67-11.13 1.42 4.68-4.11 9.97-6.97 15.38-10l2.78-1.58 5.38-3.03q2.33-1.3 4.61-2.69A92 92 0 0 1 492 582" fill="#050606"/><path d="m393.81 298.31 2.4.36 1.8.33v3l-3.2.81a33 33 0 0 0-8.8 4.2 62 62 0 0 1-9 4v2h-2v3h-2c.43-4.8 2.34-6.85 5.74-10.14l2.61-2.57c4.12-3.6 6.86-5.9 12.45-4.99" fill="#161618"/><path d="M1044 151c8.51 3.93 16.09 9.17 23.67 14.64l1.87 1.34 3.56 2.61A65 65 0 0 0 1084 176l-1 2c-4.67-.29-7.29-2.54-10.83-5.32a104 104 0 0 0-6.67-4.68 141 141 0 0 1-8.62-6.12 53 53 0 0 0-7.76-5c-3.2-1.93-3.73-2.63-5.12-5.88" fill="#E2E1E2"/><path d="M905 614h1c1.76 10.93 2.49 20.88 1.22 31.87C907 648 907 648 907 651v12l-3 1c-.16-16.69.34-33.32 1-50" fill="#F0F3F2"/><path d="M904 582c2 2 2 2 2.16 4.17l-.1 2.58c-.1 2.81-.06 5.24.47 8.02.49 3.38.38 6.25.07 9.64-.63 7.66-.92 15.29-1.16 22.97l-.13 4L905 643h-1l-.43-17.49-.14-5.93c-.24-9.62-.47-19.24-.52-28.86l-.03-3.82c.12-2.9.12-2.9 1.12-4.9" fill="#E3E4E4"/><path d="M1093 126c5.29.33 9.24 3.48 13 7v2l1.78.76c7.34 4.11 10.31 12.3 12.59 19.93l.63 2.31h-2l-1 5h-1l.03-2.02c-.39-12.14-7.19-19.74-15.65-27.88a56 56 0 0 0-8.38-6.1z" fill="#D8D8DA"/><path d="m214 682 2 1-1.44 3.19c-2.19 5.75-2.29 11.72-2.56 17.81h-2v-2l-1.62 1c-2.92 1.23-5.25 1.14-8.38 1v-3l7-2 1 1 1-11-3-2q1.93-1.3 3.88-2.56l2.17-1.44z" fill="#CDCDCE"/><path d="m320 474 2 2h-2v8h-1v-8c-14.24-3.86-26.62-3.04-41-1 9.09-9.09 31.76-6.28 42-1" fill="#040403"/><path d="m865 212 1 3c-9.05 8.79-19.32 15.25-31 20v-3l2.31-1.07c6.16-2.94 11.52-6.06 16.79-10.4 2.17-1.75 4.51-3.1 6.9-4.53a89 89 0 0 0 4-4" fill="#E5E5E7"/><path d="M409 449v2l-2.57-.18c-9.8-.37-16.34 1.52-25.43 5.18q-2 .55-4 1v2l-6 1c10.16-9.14 24.52-14.48 38-11" fill="#040503"/><path d="m882.69 700.94 2.5.03 1.8.03-1 2c-5.32 1.1-10.56 1.14-15.98 1.1h-2.53l-7.91-.04-5.4-.01L841 704v-1l2.12-.07 9.69-.37 3.34-.11q9.27-.35 18.5-1.24c2.69-.24 5.34-.31 8.04-.27" fill="#E4E6E5"/><path d="m345 580.13 2 .88-2.81 3.37-1.58 1.9C341 588 341 588 338 590c-2.19-.38-2.19-.38-4-1 0-3 0-3 1.57-4.65 5.76-4.38 5.76-4.38 9.43-4.24" fill="#EFEFEF"/><path d="m374 657 2 1q-1.4 1.48-2.81 2.94l-1.58 1.65C370 664 370 664 367 665l1 2c-8.04 2.28-8.04 2.28-12 1l6.19-3.81 1.75-1.08L369 660l2.8-1.82z" fill="#E4E4E5"/><path d="M890 433h1c1.34 7.29 2.41 13.68 1 21l-.56 3.5-.44 2.5-2-1c-.12-8.73.11-17.31 1-26" fill="#DBDBDD"/><path d="M567 695v1h-10v2c-8.75.11-17.3.01-26-1v-1a491 491 0 0 1 36-1" fill="#DEE1DF"/><path d="m234 598 1 2a252 252 0 0 1-16 17l-1-3 6.31-6.88 1.81-1.97 1.74-1.89 1.61-1.75C231 600 231 600 234 598" fill="#DADADB"/><path d="M398 299v3c-7.56 2.47-7.56 2.47-11 1l-3-2c4.68-3.77 8.45-3 14-2" fill="#202221"/><path d="m333 587 5 2c-1.29 2.87-2.57 4.98-5 7h-2l-1 2c-2-3-2-3-2-4l-2-1z" fill="#E6E6E7"/><path d="M892 520c2.69 3.11 3.52 5.52 4.12 9.56.46 2.97.93 5.58 1.88 8.44h-2l-1 4q-1.05-4.1-2.06-8.19l-.61-2.33c-1.01-4.15-1.67-7.28-.33-11.48" fill="#E3E3E5"/><path d="M836 697q2.16.17 4.31.38l2.43.21C845 698 845 698 848 700v3h-16v-1h6z" fill="#C1C3C3"/><path d="m178.06 637.75 3.22-.08 2.72.33 2 3-2.97.11c-7.48.38-14.02 1.06-21.03 3.89l-1-2 3.81-1.94 2.14-1.09c3.82-1.81 6.92-2.16 11.11-2.22" fill="#F0F3F0"/><path d="M417 344h2c4.59 11.52 4.59 11.52 4 17h-3q-.76-2.84-1.5-5.69l-.84-3.2A30 30 0 0 1 417 344" fill="#17171A"/><path d="M321 477a38 38 0 0 1 5 5c-.07 2.03-.07 2.03-1 4-1.96 1.3-1.96 1.3-4.38 2.31l-2.39 1.05C316 490 316 490 313 489l2.88-1.5c2.88-1.88 3.69-3.42 4.5-6.75z" fill="#BDB37F"/><path d="M654 520c-2.6 3.04-5.62 4.46-9.19 6.19L639 529l-2-2 1-3h6v-2c3.51-1.6 6.14-2.22 10-2" fill="#1D1E20"/><path d="M214 352h1c.9 8.02 1.12 15.93 1 24-1.49-1.15-1.49-1.15-3-3-.26-2.63-.26-2.63-.12-5.56.2-5.27.2-5.27-.88-7.44.71-6.71.71-6.71 2-8" fill="#F1F2F3"/><path d="M413 323h2c6.74 14.77 6.74 14.77 5 20-2.72-2.72-3.47-5.87-4.62-9.44l-.7-2.06c-.97-2.95-1.68-5.38-1.68-8.5" fill="#ECECF0"/><path d="m286 484 2.19 2.25A88 88 0 0 0 296 493c-6.3-.37-11.33-1.17-17-4v-1h7z" fill="#CFB575"/><path d="m1083 177 19 2-1 3c-6.82.33-11.92.24-18-3z" fill="#F2F3F4"/><path d="m1004.67 90.8 2.7.02 2.82.05 2.85.03q3.48.03 6.96.1l1 2c-6.51 3.25-17 .67-24 0 3.2-2.14 4-2.25 7.67-2.2" fill="#F0F0F3"/><path d="M870 270a37 37 0 0 1 6.75 11.31l1.3 3.24.95 2.45h-3l-3-5.69-1.69-3.2A14.5 14.5 0 0 1 870 270" fill="#E1E3E2"/><path d="M608 271c-.2 1.82-.2 1.82-1 4-2.18 1.52-2.18 1.52-4.88 2.81l-2.67 1.33C597 280 597 280 594 279c2.18-2.18 4.36-3.54 7-5.12l2.69-1.64C606 271 606 271 608 271" fill="#EEEEF1"/><path d="M271 531c5.2 1.6 10.07 3.74 15 6l-2 1v3l-2-1-1.69-.75A51 51 0 0 1 271 533z" fill="#ECECEF"/><path d="M893 397h1l2 17-3 1-1 2c-.11-6.74.3-13.3 1-20" fill="#D9D9DC"/><path d="M905 146h2a26 26 0 0 1-3.56 9.81l-1.38 2.4L901 160l-3-1 2.94-5.94 1.65-3.34C904 147 904 147 905 146" fill="#EDEDEF"/><path d="M282 474h8c1.12 3.75 1.12 3.75 0 6h-4l-1 2-.38-3.44L284 475z" fill="#261E11"/><path d="M219 343a154 154 0 0 1 2 9h-3v8l-2-1c-.55-11.71-.55-11.71 3-16" fill="#1F1F20"/><path d="M162 644v2c-1.39 1.23-1.39 1.23-3.25 2.62-4.03 3.31-5.7 6.63-7.75 11.38l-2-1c1.34-5.97 4.75-9.8 9-14 2-1 2-1 4-1" fill="#E4E7E4"/><path d="m1001.93 140.77 3.5.04 3.5.02c3.07.17 3.07.17 6.07 1.17v3l-18-2c2-2 2-2 4.93-2.23" fill="#EBEEEB"/><path d="m407 453 2 1c-13.14 12-13.14 12-20 12v-2l2.38-1.12c11.5-5.76 11.5-5.76 15.62-9.88" fill="#040805"/><path d="m919 228 2 3-1.31 1.19C918 234 918 234 916.56 236.5c-1.6 2.56-3.06 3.86-5.56 5.5l-2-1z" fill="#DFE0E2"/><path d="M148 678h2a72 72 0 0 1 2.69 4.25c2.91 4.56 5.44 6.51 10.31 8.75v1c-3.36.4-4.66.26-7.42-1.79l-2.33-2.4-2.36-2.35c-1.99-2.59-2.55-4.25-2.89-7.46" fill="#DEDFE0"/><path d="M446 358v2l-9.77 4.79c-3.14 1.17-4.22 1.51-7.23.21l1.75-.87 4.29-2.17 2.02-1.02 2.04-1.04c2.32-1.1 4.31-1.9 6.9-1.9" fill="#ECEBEF"/><path d="M208 689c-6.3 4.39-10.24 6.3-18 6a53 53 0 0 1 9-4.69l3.19-1.38C205 688 205 688 208 689" fill="#DDDDDF"/><path d="M889 459h3q.12 2.66.19 5.31l.1 2.99C892 470 892 470 889 473z" fill="#F2F2F5"/><path d="M706 232v2a1189 1189 0 0 1-9.96 3.12C693 238 693 238 691 238c1-3 1-3 2.89-4.2 7.81-3.47 7.81-3.47 12.11-1.8" fill="#DDDDE0"/><path d="m976 149-4.25 3.44-2.39 1.93A13.6 13.6 0 0 1 963 157c1.39-3.37 2.84-4.9 5.94-6.81l2.09-1.33C973 148 973 148 976 149" fill="#E9EAE9"/><path d="M216 369h1l1 15-4-2 .44-2.56q.84-5.21 1.56-10.44" fill="#D3D3D7"/><path d="m455 352 3 2-12 6 1-4c2.94-1.69 2.94-1.69 6-3z" fill="#DFDFE3"/><path d="M875 205c-1.38 3.21-2.92 5.05-5.62 7.25l-1.92 1.58L866 215c.31-3.6.99-4.99 3.38-7.81C872 205 872 205 875 205" fill="#D5D6D7"/><path d="m1049.25 98.88 2.7 1.18 2.05.94c-1.67 1.11-1.67 1.11-4 2-2.58-.67-2.58-.67-5.25-1.87l-2.7-1.19q-1.01-.45-2.05-.94c3.64-2.44 5.35-1.86 9.25-.12" fill="#E7E6E9"/><path d="m356 329 3 1-2.81 3.38-1.58 1.89C353 337 353 337 350 339c.41-4.83 2.46-6.83 6-10" fill="#DBDBDC"/><path d="m908 242 3 1c-5.97 7.67-5.97 7.67-11 9 1.65-4.29 4.74-6.88 8-10" fill="#EDEDEF"/><path d="M420 342c3.09 2.53 4.21 5.11 5 9-1.38 2.38-1.38 2.38-3 4q-.8-2.12-1.56-4.25l-.88-2.39c-.61-2.55-.41-3.91.44-6.36" fill="#DEDEE1"/><path d="m881 698-1 3-8 1 1-2-2-2c3.66-.75 6.42-1.24 10 0" fill="#BCBFBD"/><path d="m634.27 529.35 1.73.65c-3.2 2.75-6 4.63-10 6l-2-2q1.87-1.3 3.75-2.56l2.1-1.44c2.15-1 2.15-1 4.42-.65" fill="#202021"/><path d="M228 412c1.31 2.15 2.05 3.45 1.81 6a22 22 0 0 1-3.81 6c-1.35-6.28-1.35-6.28.44-9.94z" fill="#1C1C1E"/><path d="M806 226q2.47.67 4.94 1.38l2.77.77C816 229 816 229 817 231l-12-1z" fill="#E5E5E8"/><path d="M748 225v1l-18 2c3.62-7.25 11.74-4.55 18-3" fill="#DDDDDF"/><path d="m214 682 2 1-3 8a56 56 0 0 1-7-4q1.93-1.3 3.88-2.56l2.17-1.44z" fill="#C7C8C8"/><path d="M902 571c3 3 3 3 3.14 5.45l-.33 2.67-.29 2.7L904 584l-2 1z" fill="#EBEBED"/><path d="m361 568 3 2-9 8-2-2z" fill="#1F2120"/><path d="m375 468 4 2c-3.83 3.33-8.38 5.05-13 7l1-3h3v-2h4z" fill="#D6BA7F"/><path d="m230 449 2 1c1.17 3.98 1.08 7.87 1 12l-3-1z" fill="#E7E9EA"/><path d="M894 387c2.24 4.48 3.46 8.42 2.56 13.44L896 402h-2z" fill="#EEEEF0"/><path d="m322 605 3 1-9 9-1-3z" fill="#0A0B0E"/><path d="m284 475-2 1v2l-10 1-1 3v-4c8.43-3.43 8.43-3.43 13-3" fill="#C1B176"/><path d="M894 338h2c1.4 5.46.43 9.69-1 15h-1z" fill="#ECECEE"/><path d="m893 530 3 1c1.19 3.56 1.19 3.56 2 7h-2l-1 4c-1.14-4.27-2-7.56-2-12" fill="#D7D7DB"/><path d="M892 429c2.31 3.47 2.42 4.92 2 9-1.52 1.69-1.52 1.69-3 3q-.04-2.71-.06-5.44l-.04-3.06c.1-2.5.1-2.5 1.1-3.5" fill="#F2F2F4"/><path d="m210 688 2 1-1 12-2-1c-.14-8.57-.14-8.57 1-12" fill="#DDDDDF"/><path d="m885 690 1 3c-2.4 2.9-4.31 3.5-8 4l1-5h3z" fill="#171719"/><path d="m291 633 3 1-7 6-2-1zm-8 7 2 1-4 2z" fill="#1C1C20"/><path d="M229 437h1q.33 2.9.62 5.81l.36 3.27C231 449 231 449 229 452c-1.88-5.96-2.2-9.14 0-15" fill="#D6D7D8"/><path d="M937 194h1c.5 5.29-.73 7.87-4 12l-2 1c1.42-4.47 3.11-8.71 5-13" fill="#D3D4D6"/><path d="m995.25 140.88 3.75.12-2 1-1 3-9-2c3.61-1.8 4.54-2.25 8.25-2.12" fill="#CECFCD"/><path d="M902 668h1l.12 4.75.08 2.67A13.3 13.3 0 0 1 901 682h-2z" fill="#AAAAAC"/><path d="m242 588 2 1c-1.38 3.21-2.92 5.05-5.62 7.25l-1.92 1.58L235 599a47 47 0 0 1 4.62-7.75l1.36-1.86z" fill="#E9EBEB"/><path d="m235 479 4 1 1.06 4.38.6 2.46C241 489 241 489 240 491z" fill="#E9ECEC"/><path d="M1116 156h1l.06 4.38.04 2.46c-.1 2.16-.1 2.16-1.1 4.16l-3-1 .94-4.44.52-2.49c.54-2.07.54-2.07 1.54-3.07" fill="#08080A"/><path d="M232 336a57 57 0 0 1-10 4l-1-3c4.12-1.63 6.71-2.26 11-1" fill="#E7ECE8"/><path d="m399 300-2 3c-3.12.19-3.12.19-6 0v-3c3.29-.8 4.71-1.1 8 0" fill="#161918"/><path d="M785 222v3h-9v-2c3.2-1.07 5.66-1.07 9-1" fill="#F2F2F5"/><path d="m929 120 1 2c-.87 2.54-1.55 3.73-3.88 5.12L924 128l-4 2 2.81-3.31 1.58-1.87A91 91 0 0 1 929 120" fill="#1C1D1C"/><path d="m319 690 2 1-1.94.75C317 693 317 693 316.25 695.12L316 697l-4-1v-2c5.27-3.22 5.27-3.22 7-4" fill="#B1B2B4"/><path d="m601.75 546.31 2.25.7a29 29 0 0 1-9 5c0-3 0-3 1.69-4.76 2.31-1.25 2.31-1.25 5.06-.94" fill="#222423"/><path d="m1083 177 7 1v2h3l-1 2-9-3z" fill="#EBEAEC"/><path d="m1118 156 3 4c-.81 3.75-.81 3.75-2 7h-2z" fill="#EFEEF3"/><path d="M1026 93v3l-9-1c3.05-3.05 5.05-3.23 9-2" fill="#D4D5D7"/><path d="M217 615c0 3 0 3-1.53 4.82l-1.97 1.87-1.97 1.88L210 625l-2-1c1-3 1-3 2.81-3.94L213 619a89 89 0 0 0 4-4" fill="#ECECEE"/><path d="M815 576a19 19 0 0 1 7 5l-3 1-2 2z" fill="#C6C9C8"/><path d="M444 484c1 2 1 2 .58 3.91l-.77 2.15-.73 2.16C442 494 442 494 439.89 494.75L438 495c1.45-4.11 3.51-7.43 6-11" fill="#040704"/><path d="M282 480h3l1 6h-4z" fill="#D8B96D"/><path d="M371 460h3v2h4v2h-2l1 5c-2.95-2.43-3.32-4.32-4-8z" fill="#321F0F"/><path d="m595 279-1 3c-3.56 1.69-3.56 1.69-7 3 1.84-5.14 2.27-6 8-6" fill="#E2E1E3"/><path d="M627 264c-3.41 2.86-6.91 4.35-11 6v-2h2v-2c3.44-2.29 4.99-2.18 9-2" fill="#E4E2E3"/><path d="M878 197h2c-.5 3.69-1.1 5.6-4 8l-3-1h2l.38-1.81C876 200 876 200 878 197" fill="#E8E8EB"/><path d="m1111 177-7 4-3-3c6.29-2.43 6.29-2.43 10-1" fill="#E4E3E6"/><path d="M963 156c-1.07 2.92-1.78 4.78-4 7h-3c3.14-7 3.14-7 7-7" fill="#DBDBDD"/><path d="M896 538c2.52 1.97 2.99 2.97 3.69 6.19L900 547h-3c-1.48-2.96-1.06-5.74-1-9" fill="#EFEFF2"/><path d="M285 490c4.91-.28 7.25-.16 11 3q-2.47-.17-4.94-.38l-2.77-.21L286 492z" fill="#C6B882"/><path d="M362 464h5l-5 6-2-2z" fill="#30271A"/><path d="m296 348 2 1-1 3-7 1v-2a96 96 0 0 1 6-3" fill="#EEEEF1"/><path d="m515 324-9 4c.75-2.44.75-2.44 2-5 3.33-1.61 3.8-1.13 7 1" fill="#DEDEDF"/><path d="m557 297 1 2 2 1c-5.75 3-5.75 3-8 3 1.37-3.16 1.99-3.99 5-6" fill="#E0DFE2"/><path d="m955 163 2 1c-.81 1.94-.81 1.94-2 4l-3 1-1 2c0-3.91 1.51-5.12 4-8" fill="#E8E8E9"/><path d="M301 624h2a40 40 0 0 1-5 8l-2-1c1.52-2.63 2.84-4.84 5-7" fill="#1B191D"/><path d="M240 485c2.46 3.69 3.01 6.7 4 11l-3-1c-.62-3.44-1-6.49-1-10" fill="#C6C8C6"/><path d="m691 238-1 3c-2.88.62-2.88.62-6 1l-2-2c5.62-2 5.62-2 9-2" fill="#2E2C2E"/><path d="M1061 105c3.37.55 5.08 1.05 8 3v2c-3.66-.49-5.67-1.06-8-4z" fill="#E7E7EA"/><path d="M836 654c-1.05 2.62-1.65 3.79-4.12 5.25L830 660v-3c3.33-3 3.33-3 6-3" fill="#1A1C1B"/><path d="m168 639 3 3-9 3-1-2z" fill="#E9EDE9"/><path d="m331 592 3 1-1 3h-2l-1 2-2-3z" fill="#DEDEE1"/><path d="m615 538 2 1-5 5-4-2c5.27-3.22 5.27-3.22 7-4" fill="#1F1F1F"/><path d="M419 352c2 2 2 2 4 5-.38 2.69-.38 2.69-1 5l-2-1c-.41-2.07-.41-2.07-.62-4.56l-.23-2.51z" fill="#111212"/><path d="m800 225 5 2v2l-9-1 4-1z" fill="#D2D2D4"/><path d="M867 699h7l-2 3c-2.62.19-2.62.19-5 0z" fill="#CBCDCA"/><path d="M162 688q3.55 1.4 7 3v2c-5.54-.62-5.54-.62-7.88-2.56L160 689z" fill="#191A19"/><path d="m818 656 6 1-1.88 1.31C820 660 820 660 818 663c-1.04-3.13-.93-3.99 0-7" fill="#ACADAE"/><path d="M152 652h2c-1.75 5.75-1.75 5.75-4 8-1-3-1-3 .31-5.69z" fill="#DEE1DD"/><path d="m426 362 3 2v2l2 1-5 1a94 94 0 0 1-1-5z" fill="#E3E4E4"/><path d="m486 336 2 2-8 4c2.25-4.5 2.25-4.5 6-6" fill="#DDDEE2"/><path d="m220 338 2 1a19 19 0 0 1-5 7l-1-3c1.94-2.69 1.94-2.69 4-5" fill="#D9D9DC"/><path d="M361 323h2c-.4 2.89-.79 3.82-3.06 5.75L358 330l-1-2h2l.44-1.94C360 324 360 324 361 323" fill="#EAEAEC"/><path d="m1114 145 3 1a41 41 0 0 1 2 6h-3c-1.46-2.65-2-3.89-2-7" fill="#EAEAEA"/><path d="m1015 142 8 1-3 3-5-2z" fill="#E2E4E1"/><path d="m872 697-1 2h-6v-3c3.49-1.2 3.68-1.21 7 1" fill="#202220"/><path d="M374 652h3l-1 5h-5c1.31-2.5 1.31-2.5 3-5" fill="#1C1B20"/><path d="M227 432c2.43 3.64 2.16 5.71 2 10-1.56-1.06-1.56-1.06-3-3 .31-3.69.31-3.69 1-7" fill="#F1F1F3"/><path d="M405 309c2.5 2.17 3.44 3.73 4 7h-3z" fill="#18181B"/><path d="m1186 698 3 3-3 2-2-3z" fill="#F3F3F5"/></svg>