<svg style="background:transparent" version="1.1" xmlns="http://www.w3.org/2000/svg" viewBox="0 0 1248 704"><path d="M752.81 31.19q1.07.9 2.2 1.8l3.11 2.26c4.83 4.62 6.7 10.32 6.97 16.9.06 4.24-.12 8.38-.59 12.6-.7 6.84-.55 13.69-.47 20.55l.03 2.79.04 2.5c-.1 2.4-.1 2.4-.6 4.73a47 47 0 0 0-.7 7.99l-.07 3.18q-.01 1.7-.05 3.46l-.06 3.68-.15 9.98-.1 6.25a2579 2579 0 0 0-.36 49.76v2.29q.02 11.04.1 22.09l.03 6.2.06 7.56c.02 5.84-.23 10.73-2.2 16.24l-.8 3.44c-3 8.94-9.04 15.7-16.12 21.73a88 88 0 0 0-5.7 5.58c-2.87 2.93-5.66 4.52-9.38 6.25-2.44 1.8-2.44 1.8-4 4 0 12.7 10.27 26.8 16.2 37.66 2.18 4.04 4.02 8.12 5.8 12.34l1.62 3.13c1.31 2.73 1.8 4.93 2.38 7.87q1.08 2.51 2.18 4.99c1.25 3.06 2.08 6.23 3 9.4a86 86 0 0 0 2.94 7.74c1.82 4.37 2.4 8.18 2.88 12.87l2 5q.06 2.5 0 5l1 3q.3 2.68.5 5.38c.21 2.78.46 5.44 1.03 8.18.47 2.46.53 4.63.47 7.13-.06 4.53.31 8.89.88 13.38L767 420l-1 1c-.08 3.5 0 6.99.06 10.49a39 39 0 0 1-1.06 8.5q-.27 2.14-.5 4.26C764 448 764 448 763 449q-.06 3.5 0 7l1.65-.65c8.07-2.98 15.2-3.52 23.35-.35 10.75 5.38 18.84 11.77 22.84 23.46q.78 2.59 1.5 5.19c.66 2.35.66 2.35 1.85 5.48 1.06 3.75.87 6.97.81 10.87l1 4c.34 5.44-.17 10.63-1 16q-.39 4.28-.72 8.55C814 531 814 531 813 534q-.5 2.4-.94 4.8A75 75 0 0 1 809 550l-.94 2.8L807 556l-.69 2.2c-1.36 4.29-2.77 8.04-5.3 11.8 8.16 2.1 16.02 2.27 24.42 2.19h3.84c9.3-.05 9.3-.05 12.73-1.2l3.62-.36c13.7-1.67 28.26-9.25 37.38-19.63 9.64-12.5 9.64-12.5 11-19l1-4.06.5-2.04c.43-1.65.96-3.28 1.5-4.9.88-9.86-.62-19.6-6-28l-1.26-2.24c-4.78-8.02-11.16-12-20.13-14.4-8.5-2.02-17.04-1.82-25.74-1.88-16.35-.3-16.35-.3-22.56-5.91l-2.3-2.57-3.26-2.06C813 462 813 462 812.12 460.07c-.14-2.37-.18-4.7-.12-7.07v-3c1.2-5.21 3.14-7.47 7.31-10.75l2.86-2.3c10.32-7.13 24.35-7.23 36.45-7.26l3.13-.02c5.17.05 9.4.37 14.25 2.33l6.56 1.75c10.61 3.03 19.91 7.24 28.44 14.25l2.2 1.62C931 462.75 940.04 483.7 944 505l.62 3a65 65 0 0 1-1.62 24l-.38 3.25c-1.2 7.24-4.43 13.65-7.54 20.24-1.08 2.5-1.08 2.5-1.55 4.56-.7 2.55-1.97 4.34-3.47 6.52l-1.59 2.3L927 571l-2 3h-2l-.63 2.75c-1.73 4.09-3.7 4.84-7.37 7.25a182 182 0 0 0-4.88 5.13c-5.97 6.27-12.96 10.56-20.42 14.88q-2.1 1.25-4.19 2.58c-3.34 1.87-6.8 3.16-10.39 4.48l-2.06.77a120 120 0 0 1-17.63 5.16c-2.64.57-5 1.2-7.56 2.13-3.4 1.04-6.3.93-9.87.87l-2.94.49c-5.5.83-11.07.66-16.63.64h-9.57c-3.02-.13-5.88-.6-8.86-1.13q-3.22-.25-6.44-.43A57 57 0 0 1 780 617q-2.5-.06-5 0l-2-1c-2.3-.37-2.3-.37-5 0-2.63 2.44-2.63 2.44-5 5l-3 1-1.63 2.13c-3.28 3.97-7.25 6.82-11.37 9.87l2.56 1.63c7.38 4.98 12.86 9.66 14.97 18.64.74 4.98.5 9.02-1.53 13.73-2 1.19-2 1.19-4 2l-.88 1.98C757 674 757 674 755.24 674.8c-15.99 2.97-31.77 3.55-47.24-1.8l-3.42-1.16q-3.82-1.35-7.58-2.84l2.06 2 2.94 3q.89.9 1.78 1.83c6.51 7 9.56 14.47 9.22 24.17a93 93 0 0 1-2 4q-13.95.29-27.9.42-6.49.06-12.96.19-6.26.12-12.5.15-2.4.03-4.78.09c-12.42.32-12.42.32-15.93-2.53A23 23 0 0 1 634 696l-.7-2.31c-1.82-6.81-3.24-14.81-1.3-21.7l1.06-4.8.94-4.2h-15l1 3c.28 4.03.28 8.05.31 12.08l.1 3.3c.04 7.12-.6 13.47-4.4 19.63-3.47 3.37-6.24 3.38-10.95 3.39l-2.09.02-6.82-.01h-4.75l-9.93-.01h-12.74q-4.9.04-9.79 0-2.36 0-4.7.02-3.29 0-6.56-.02l-3.77-.01-2.9-.38c-2.54-3.8-2.73-6.62-2-11a114 114 0 0 1 3.9-9.36C544 681 544 681 544 678v-3h3c4.06-1.6 7.5-4.42 11-7l-2.95 1.3q-6.39 2.77-13.06 4.7l-1.82.53c-6.86 1.77-13.57 1.77-20.62 1.72l-3.53.03c-16.48-.04-16.48-.04-22.5-3.84-3.98-4.7-5.64-8.57-5.79-14.77.82-8.6 6.93-14.3 13.26-19.67 2-1.3 3.76-2.14 6-3l-1.87-1.47c-7.75-6.12-15.35-12.16-21.6-19.82a48 48 0 0 0-5.4-5.02c-7.07-6.06-12.2-13.65-17.38-21.31l-1.25-1.85A111 111 0 0 1 452 572l-1.64-3.31c-2.6-5.48-4.86-10.58-5.93-16.57a48 48 0 0 0-2-6.68c-1.45-4.17-1.99-8.05-2.43-12.44l-1-4c-2.08-12.75-3.3-25.41 0-38l.62-2.91a54 54 0 0 1 7.38-18.1l1.7-3.11c4.87-6.07 12.52-11.44 20.3-12.88 7.25-.52 14.15-.61 21 2l-.94-6.2-.53-3.47q-.44-2.86-1.03-5.67c-.95-5.02-1.22-10.13-1.63-15.22l-.3-3.44-.27-3.31-.25-3.02c-.05-2.5.3-4.28.95-6.67l-.07-3.93c-.07-6.14 1.04-12.04 2.07-18.07l.51-3.25c.84-5.4 1.87-10.53 3.5-15.75l1.36-5.31c1.26-4.65 2.87-9.03 4.72-13.48a88 88 0 0 0 3.75-11.45 64 64 0 0 1 4.6-10.76c1.8-3.5 3.54-6.95 5.07-10.57a73 73 0 0 1 4.92-9.24 84 84 0 0 0 6.67-13.82c.9-2.36 1.9-4.64 2.96-6.93 1.98-4.38 3.51-8.85 4.94-13.44l-2.06-1.43A163 163 0 0 1 512.21 258c-2.2-2.01-2.2-2.01-5.46-4.26-10.6-10.61-11.87-27.57-11.9-41.8q.03-4.68.11-9.38c.05-4.14-.08-8.2-.46-12.32-.58-6.63-.54-13.22-.5-19.87a1115 1115 0 0 0-.5-37.06l-.19-6.74c0-.65 0-.65-.1-3.92-.2-3.6-.68-7.1-1.2-10.66-.08-3.76 0-7.51.05-11.28A80 80 0 0 0 491 90a93 93 0 0 1 0-5c.03-2.95-.08-5.55-.5-8.5a67 67 0 0 1-.44-11.36C490 63 490 63 489 61c-.52-7.4.43-13.95 5.31-19.75l2.7-2.25 2.86-2.62c5.02-3.82 9.74-6.2 16.13-5.38 3.06 1.3 3.06 1.3 6 3l2.31 1.3c3.18 2 6.3 4.1 9.41 6.2q2.33 1.53 4.75 2.94c3.62 2.24 6.77 4.99 10.03 7.72C551 54 551 54 553.46 54.99c3.18 1.27 5.47 3.09 8.16 5.2 4.8 3.67 9.67 7.03 14.81 10.2a46 46 0 0 1 5.31 3.7c3.73 2.19 5.6 2.35 9.88 2.18l3.94-.12 4.22-.2 4.4-.15q5.76-.21 11.53-.45 6.95-.29 13.91-.52l10.84-.42c21.81-.9 21.81-.9 27.78.16C671 75 671 75 673.05 74l1.82-1.56 2.04-1.68 2.1-1.76a471 471 0 0 1 6.13-4.6L687 63l2.1-1.6c1.9-1.4 1.9-1.4 4.15-2.71 2.38-1.46 4.53-3 6.75-4.7a85 85 0 0 1 9-6 257 257 0 0 0 9.5-6.5c21.8-15.58 21.8-15.58 34.31-10.3m-190.8 633.8 1 2Zm128 0q.48 1 1 2l2-1q-1.5-.48-3-1" fill="#151715"/><path d="M911.2 450.58 914 453l2.83 2.38c13.84 12.64 23.32 32.51 24.3 51.25 1.02 30.13-7.24 53.54-27.13 76.37l-1.64 1.9C901.8 596.24 888 602.92 874 609l-2.88 1.31c-9.48 3.91-20.05 5.05-30.12 6.7q-1.64.27-3.32.58c-22.11 2.44-47.43 1.2-68.68-5.59 1.74-4 4.36-7.32 7-10.75l1.37-1.83q1.75-2.25 3.63-4.42h2l.72-2.02a88 88 0 0 1 5.78-10.73l1.22-2.08c3.04-5.05 3.04-5.05 5.28-6.17q4.5.14 9 .44c18.46 1.01 37.59 2.05 55-5.44l3.23-1.36c16.18-7.4 27.64-19.5 34.08-36.29 3.52-11.96 3.03-25.89-2.67-37-5.9-10.36-14.05-17.43-25.58-20.72-6.97-1.44-14.17-1.44-21.26-1.72-20.21-.83-20.21-.83-26.74-6.85l-1.65-1.46c-3.8-4.3-3.85-8.38-3.71-13.9.44-3.93 1.59-5.86 4.3-8.7 23.95-18.6 69.43-8 91.2 9.58" fill="#121513"/><path d="M752.81 31.19q1.07.9 2.2 1.8l3.11 2.26c4.83 4.62 6.7 10.32 6.97 16.9.06 4.24-.12 8.38-.59 12.6-.7 6.84-.55 13.69-.47 20.55l.03 2.79.04 2.5c-.1 2.4-.1 2.4-.6 4.73a47 47 0 0 0-.7 7.99l-.07 3.18q-.01 1.7-.05 3.46l-.06 3.68-.15 9.98-.1 6.25a2579 2579 0 0 0-.36 49.76v2.29q.02 11.04.1 22.09l.03 6.2.06 7.56c.02 5.84-.23 10.73-2.2 16.24l-.8 3.44c-3 8.94-9.04 15.7-16.12 21.73a88 88 0 0 0-5.7 5.58c-2.87 2.93-5.66 4.52-9.38 6.25-2.44 1.8-2.44 1.8-4 4 0 12.7 10.27 26.8 16.2 37.66 2.18 4.04 4.02 8.12 5.8 12.34l1.62 3.13c1.31 2.73 1.8 4.93 2.38 7.87q1.08 2.51 2.18 4.99c1.25 3.06 2.08 6.23 3 9.4a86 86 0 0 0 2.94 7.74c1.82 4.37 2.4 8.18 2.88 12.87l2 5q.06 2.5 0 5l1 3q.3 2.68.5 5.38c.21 2.78.46 5.44 1.03 8.18.47 2.46.53 4.63.47 7.13-.06 4.53.31 8.89.88 13.38L767 420l-1 1c-.08 3.5 0 6.99.06 10.49a39 39 0 0 1-1.06 8.5q-.27 2.14-.5 4.26C764 448 764 448 763 449q-.06 3.5 0 7l1.65-.65c8.07-2.98 15.2-3.52 23.35-.35 10.75 5.38 18.84 11.77 22.84 23.46q.78 2.59 1.5 5.19c.66 2.35.66 2.35 1.85 5.48 1.06 3.75.87 6.97.81 10.87l1 4c.34 5.44-.17 10.63-1 16q-.39 4.28-.72 8.55C814 531 814 531 813 534q-.5 2.4-.94 4.8A75 75 0 0 1 809 550l-.94 2.8L807 556l-.69 2.2c-1.36 4.29-2.77 8.04-5.3 11.8 8.16 2.1 16.02 2.27 24.42 2.19h3.84c9.3-.05 9.3-.05 12.73-1.2l3.62-.36c13.7-1.67 28.26-9.25 37.38-19.63 9.64-12.5 9.64-12.5 11-19l1-4.06.5-2.04c.43-1.65.96-3.28 1.5-4.9.88-9.86-.62-19.6-6-28l-1.26-2.24c-4.78-8.02-11.16-12-20.13-14.4-8.5-2.02-17.04-1.82-25.74-1.88-16.35-.3-16.35-.3-22.56-5.91l-2.3-2.57-3.26-2.06C813 462 813 462 812.12 460.07c-.14-2.37-.18-4.7-.12-7.07v-3c1.2-5.21 3.14-7.47 7.31-10.75l2.86-2.3c10.32-7.13 24.35-7.23 36.45-7.26l3.13-.02c5.17.05 9.4.37 14.25 2.33l6.56 1.75c10.61 3.03 19.91 7.24 28.44 14.25l2.2 1.62C931 462.75 940.04 483.7 944 505l.62 3a65 65 0 0 1-1.62 24l-.38 3.25c-1.2 7.24-4.43 13.65-7.54 20.24-1.08 2.5-1.08 2.5-1.55 4.56-.7 2.55-1.97 4.34-3.47 6.52l-1.59 2.3L927 571l-2 3h-2l-.63 2.75c-1.73 4.09-3.7 4.84-7.37 7.25a182 182 0 0 0-4.88 5.13c-5.97 6.27-12.96 10.56-20.42 14.88q-2.1 1.25-4.19 2.58c-3.34 1.87-6.8 3.16-10.39 4.48l-2.06.77a120 120 0 0 1-17.63 5.16c-2.64.57-5 1.2-7.56 2.13-3.4 1.04-6.3.93-9.87.87l-2.94.49c-5.5.83-11.07.66-16.63.64h-9.57c-3.02-.13-5.88-.6-8.86-1.13q-3.22-.25-6.44-.43A57 57 0 0 1 780 617q-2.5-.06-5 0l-2-1c-2.3-.37-2.3-.37-5 0-2.63 2.44-2.63 2.44-5 5l-3 1-1.63 2.13c-3.28 3.97-7.25 6.82-11.37 9.87l2.56 1.63c7.38 4.98 12.86 9.66 14.97 18.64.74 4.98.5 9.02-1.53 13.73-2 1.19-2 1.19-4 2l-.88 1.98C757 674 757 674 755.24 674.8c-15.99 2.97-31.77 3.55-47.24-1.8l-3.42-1.16q-3.82-1.35-7.58-2.84l2.06 2 2.94 3q.89.9 1.78 1.83c6.51 7 9.56 14.47 9.22 24.17-.99 2.3-.99 2.3-2 4h-3l.47-1.71c2.3-10-1.02-16.74-6.22-25.1-4.32-4.2-9.9-6.52-15.25-9.2v-9l3.87 2.2q2.56 1.41 5.13 2.8l2.26 1.32C714.7 674.29 736 676.06 754 671c3.74-1.62 3.74-1.62 5.23-3.8 1.92-5.51 1.3-11.53-.42-17.01-4.8-8.44-10-11.23-18.8-15.2q4.08-3.3 8.26-6.5l3.54-2.74 1.88-1.44a63 63 0 0 0 11.17-11.04c3.58-2.12 7.23-.95 11.14-.27l5.95.98 3.27.53c40 6.36 82.91 2.89 116.61-21.56 19.46-15.3 35.15-38.91 38.17-63.95 1.81-25.56-2.97-48.94-19.54-69.08-15.72-16.56-37.18-25.37-59.9-26.16-29.94-.57-29.94-.57-40.5 8.87-3.58 4.12-3.4 7.29-3.33 12.6.4 3.98 1.52 5.89 4.27 8.77 6.53 5 11.96 6.04 20.13 6.43l4.2.22q3.25.18 6.52.33c13.28.62 24.55 2.3 35.15 11.02 11.28 12.52 13.64 24.73 13 41a37 37 0 0 1-2 8l-.7 2.28c-6.08 17.56-20.6 29.13-36.74 37.03-10.89 4.54-23.34 5.89-35.06 5.88h-2.34c-8.62-.08-17.95-.45-26.16-3.2q2.18-6.6 4.46-13.21c9.08-26.25 16.37-58.3 4.22-84.64-4.27-7.88-10-13.55-18.49-16.55-3.7-1-7.3-1.03-11.13-.96l-2.38.02A38 38 0 0 0 758 461l1.36-10.93.3-2.31q.39-3.17.84-6.33c1.31-9.5 1.9-18.84 1.87-28.43v-2.15c-.17-37.3-12.67-73.24-30.17-105.86-5.47-10.22-10.18-20.48-12.2-32l2.67-1.86c16.42-11.55 30.33-21.9 34.87-42.63.63-4.87.63-9.7.65-14.6l.02-3.36.05-7.23.07-11.52q.09-11.24.15-22.46l.21-30.34.07-11.2c.1-13.71.41-27.38 1.01-41.07q.47-11.57.52-23.16l.06-4.72q.06-3.54.07-7.07l.06-2.11c-.03-5.02-1.39-7.78-4.48-11.66-3.76-3.66-7.04-4.37-12.13-4.7-7.76.3-12.63 3.34-18.87 7.7l-3.7 2.49c-7.73 5.2-15.32 10.63-22.92 16-5.7 4.05-11.44 8-17.2 11.95l-1.89 1.29-1.64 1.1C676 75 676 75 674.4 76.54c-3.38 2.07-6.67 2.08-10.53 2.24l-2.49.13c-8.66.44-17.33.68-26 .9q-6.13.19-12.24.52c-28.09 1.55-46.33-1-67.97-19.65-4.95-4.24-10.36-7.86-15.74-11.54l-2.95-2.06C518.08 34.25 518.08 34.25 508 35c-5.55 1.55-8.98 4.58-12.09 9.32-2.38 4.4-2.06 8.79-2.03 13.65l.01 2.7c.06 8.43.41 16.83.85 25.24l.7 14.03c.01.5.01.5.13 2.99a3077 3077 0 0 1 1.55 36.68q.81 20 1.22 40.03l.32 13.92q.16 6.8.25 13.58.08 4.26.2 8.53l.07 5.82c.38 13.7 5.03 24.2 14.25 34.14 6.5 6 13.36 11.24 20.57 16.37-.47 6.92-3.18 12.67-6 18.94l-1.5 3.39a166 166 0 0 1-9.07 17.67c-23.69 39.93-32.8 91.36-24.8 136.76.61 3.73.98 7.48 1.37 11.24l-2.7-.65c-11.5-2.65-20.64-4.24-31.3 1.65-9.09 6.1-14.42 15.5-17 26-3.22 16.84-2.1 36.4 2 53l.81 3.69c8.7 36.56 32.64 66.23 62.88 87.59A38 38 0 0 1 514 636l-1.94.7c-7.88 2.97-13.8 5.48-18 13.05-2.67 5.93-3.27 11-1 17.13 3.68 4.03 8.7 5.3 13.94 6.12 18.47.8 36.6-.66 52.84-10.2C563 661 563 661 565 661v8l-2.42 1.07c-9.15 4.26-14.69 8.47-18.58 17.93a53 53 0 0 0-.19 8.38l.04 2.23.15 5.39h-3c-2.53-3.8-2.72-6.62-2-11 1.16-3.2 2.48-6.27 3.9-9.36C544 681 544 681 544 678v-3h3c4.07-1.6 7.5-4.42 11-7q-1.45.66-2.94 1.3-6.39 2.77-13.06 4.7l-1.82.53c-6.86 1.77-13.57 1.77-20.62 1.72l-3.53.03c-16.48-.04-16.48-.04-22.5-3.84-3.98-4.7-5.64-8.57-5.79-14.77.82-8.6 6.93-14.3 13.26-19.67 2-1.3 3.76-2.14 6-3l-1.87-1.47c-7.75-6.12-15.35-12.16-21.6-19.82a48 48 0 0 0-5.4-5.02c-7.07-6.06-12.2-13.65-17.38-21.31l-1.25-1.85A111 111 0 0 1 452 572l-1.64-3.31c-2.6-5.48-4.86-10.58-5.93-16.57a48 48 0 0 0-2-6.68c-1.45-4.17-1.99-8.05-2.43-12.44l-1-4c-2.08-12.75-3.3-25.41 0-38l.62-2.91a54 54 0 0 1 7.38-18.1l1.7-3.11c4.87-6.07 12.52-11.44 20.3-12.88 7.25-.52 14.15-.61 21 2l-.94-6.2-.53-3.47q-.44-2.86-1.03-5.67c-.95-5.02-1.22-10.13-1.63-15.22l-.3-3.44-.27-3.31-.25-3.02c-.05-2.5.3-4.28.95-6.67l-.07-3.93c-.07-6.14 1.04-12.04 2.07-18.07l.51-3.25c.84-5.4 1.87-10.53 3.5-15.75l1.36-5.31c1.26-4.65 2.87-9.03 4.72-13.48a88 88 0 0 0 3.75-11.45 64 64 0 0 1 4.6-10.76c1.8-3.5 3.54-6.95 5.07-10.57a73 73 0 0 1 4.92-9.24 84 84 0 0 0 6.67-13.82c.9-2.36 1.9-4.64 2.96-6.93 1.98-4.38 3.51-8.85 4.94-13.44l-2.06-1.43A163 163 0 0 1 512.21 258c-2.2-2.01-2.2-2.01-5.46-4.26-10.6-10.61-11.87-27.57-11.9-41.8q.03-4.68.11-9.38c.05-4.14-.08-8.2-.46-12.32-.58-6.63-.54-13.22-.5-19.87a1115 1115 0 0 0-.5-37.06l-.19-6.74c0-.65 0-.65-.1-3.92-.2-3.6-.68-7.1-1.2-10.66-.08-3.76 0-7.51.05-11.28A80 80 0 0 0 491 90a93 93 0 0 1 0-5c.03-2.95-.08-5.55-.5-8.5a67 67 0 0 1-.44-11.36C490 63 490 63 489 61c-.52-7.4.43-13.95 5.31-19.75l2.7-2.25 2.86-2.62c5.02-3.82 9.74-6.2 16.13-5.38 3.06 1.3 3.06 1.3 6 3l2.31 1.3c3.18 2 6.3 4.1 9.41 6.2q2.33 1.53 4.75 2.94c3.62 2.24 6.77 4.99 10.03 7.72C551 54 551 54 553.46 54.99c3.18 1.27 5.47 3.09 8.16 5.2 4.8 3.67 9.67 7.03 14.81 10.2a46 46 0 0 1 5.31 3.7c3.73 2.19 5.6 2.35 9.88 2.18l3.94-.12 4.22-.2 4.4-.15q5.76-.21 11.53-.45 6.95-.29 13.91-.52l10.84-.42c21.81-.9 21.81-.9 27.78.16C671 75 671 75 673.05 74l1.82-1.56 2.04-1.68 2.1-1.76a471 471 0 0 1 6.13-4.6L687 63l2.1-1.6c1.9-1.4 1.9-1.4 4.15-2.71 2.38-1.46 4.53-3 6.75-4.7a85 85 0 0 1 9-6 257 257 0 0 0 9.5-6.5c21.8-15.58 21.8-15.58 34.31-10.3m-190.8 633.8 1 2Zm128 0q.48 1 1 2l2-1q-1.5-.48-3-1" fill="#E1E2E3"/><path d="M578 496h2c1.48 1.5 1.48 1.5 3.19 3.56l1.91 2.23L587 504c7.75 9 20.06 17.4 32 19 16.39 1.12 28.73-4.24 41.22-14.68C662 507 662 507 664 507l.81-1.77a32 32 0 0 1 4.19-5.98l1.56-1.86C672 496 672 496 674 496a28.5 28.5 0 0 1-3.94 11.69l-1.59 2.82q-1.66 2.79-3.47 5.49h-2l-.71 1.75c-3.91 6.83-13.16 12.22-20.29 15.25h-3l.18 2.11a643 643 0 0 1 2.13 54.83v3.84c-.07 56.73-.07 56.73-4.31 65.22h-21c-2.25-6.75-2.25-6.75-2.6-10.21l-.24-2.34-.22-2.39-.24-2.28q-.38-3.88-.7-7.78l-.27-3.08c-.98-12.42-.93-24.85-.92-37.3v-3.52c0-19.1.59-38.07 2.19-57.1l-2.82-1.33c-12.84-6.17-12.84-6.17-18.12-11.36l-1.6-1.53c-6.45-6.4-11.33-13.65-12.46-22.78" fill="#000"/><path d="M531 274h2c-.45 6.93-2.56 12.26-5.5 18.5l-1.36 2.95a186 186 0 0 1-8.64 16.36c-23.62 40.13-32.92 91.36-24.86 136.95.6 3.73.97 7.48 1.36 11.24l-2.71-.66c-11.48-2.64-20.63-4.23-31.29 1.66-9.09 6.1-14.41 15.51-17 26-3.22 16.83-2.1 36.4 2 53l.81 3.68c8.71 36.57 32.64 66.24 62.88 87.59A39 39 0 0 1 514 636l-1.94.7c-7.88 2.97-13.8 5.48-18 13.05-2.67 5.92-3.26 10.99-1 17.13 3.68 4.03 8.69 5.31 13.94 6.12 18.48.8 36.59-.67 52.84-10.2C563 661 563 661 565 661v8l-2.41 1.07c-9.15 4.26-14.7 8.47-18.59 17.93a53 53 0 0 0-.19 8.38l.04 2.23.15 5.39h-3c-2.53-3.79-2.72-6.62-2-11a118 118 0 0 1 3.91-9.36C544 681 544 681 544 678v-3h3c4.07-1.6 7.5-4.43 11-7l-2.94 1.31q-6.39 2.75-13.06 4.69l-1.82.53c-6.86 1.76-13.57 1.77-20.62 1.72l-3.52.02c-16.49-.03-16.49-.03-22.51-3.83-3.98-4.69-5.64-8.58-5.78-14.78.82-8.6 6.92-14.28 13.25-19.66a31 31 0 0 1 6-3l-1.87-1.47c-7.74-6.13-15.34-12.16-21.61-19.83a48 48 0 0 0-5.4-5.01c-7.06-6.06-12.2-13.65-17.37-21.31l-1.25-1.85A111 111 0 0 1 452 572l-1.63-3.31c-2.62-5.48-4.87-10.59-5.94-16.58a49 49 0 0 0-1.99-6.67c-1.45-4.17-1.99-8.05-2.44-12.44l-1-4c-2.08-12.75-3.31-25.41 0-38l.62-2.91A54 54 0 0 1 447 470l1.69-3.12c4.88-6.07 12.53-11.45 20.31-12.88 7.25-.52 14.15-.61 21 2l-.94-6.19-.52-3.48q-.45-2.85-1.04-5.67c-.95-5.03-1.21-10.13-1.62-15.22l-.31-3.45-.27-3.31-.25-3.01c-.05-2.5.3-4.28.95-6.67l-.06-3.94c-.07-6.13 1.03-12.03 2.06-18.06l.51-3.25c.85-5.39 1.88-10.53 3.49-15.75l1.38-5.31c1.25-4.65 2.87-9.03 4.71-13.48a89 89 0 0 0 3.75-11.45 63 63 0 0 1 4.6-10.76c1.8-3.5 3.54-6.95 5.07-10.57a73 73 0 0 1 4.93-9.24 85 85 0 0 0 6.66-13.82c.9-2.38 1.91-4.68 2.96-6.99 1.84-4.07 3.42-8.19 4.94-12.38m31 391 1 2Z" fill="#E6E8E8"/><path d="M738 470h1c.82 19.96-1.94 42.11-7.84 61.18-1.2 3.94-2.27 7.89-3.33 11.87A391 391 0 0 1 719 572l-.69 1.96a2804 2804 0 0 1-8.93 25.23l-.84 2.33a200 200 0 0 0-9.16 36.73l-1.81 11.34q-1.13 6.73-2.57 13.41c-3.87-.86-5.77-1.54-8-5-.23-3.74.4-7.31 1-11l.54-3.5c2.88-16.9 7.87-33.32 13.46-49.5l2.23-6.73a743 743 0 0 1 6.33-18.46 658 658 0 0 0 20.77-69.11q1.06-4.18 2.23-8.35c1.29-4.65 2.29-9.29 3.13-14.04l.39-2.16z" fill="#010201"/><path d="M514 475c1.73 3.14 2.65 6.15 3.48 9.64l.83 3.4.88 3.65c4.55 18.52 9.5 36.87 15.66 54.93 2.69 7.93 5.27 15.89 7.85 23.86l2.51 7.69q4.08 12.54 8.06 25.09l.74 2.32A270 270 0 0 1 560 628l.65 2.9q1.07 4.8 2.1 9.6l.68 3.08c1.17 5.57 2.1 10.73 1.57 16.42-4.6 4-4.6 4-8 4l-.09-1.81c-1.46-27.12-9.03-51.69-17.91-77.19l-1.33-3.83-.67-1.92c-7.14-20.57-14.03-40.81-18-62.25l-.54-2.88c-2.41-13.04-4.12-25.85-4.46-39.12" fill="#000201"/><path d="M761 111h1q.07 22.5.1 45.01l.05 20.9.04 20.17.02 7.7q.02 5.38.02 10.78l.02 3.21c-.02 5.5-.45 10.02-2.25 15.23l-.81 3.44c-2.98 8.94-9.03 15.71-16.11 21.72a91 91 0 0 0-5.7 5.59c-2.86 2.92-5.66 4.51-9.38 6.25-2.44 1.81-2.44 1.81-4 4 0 12.7 10.27 26.8 16.2 37.66 2.18 4.04 4.02 8.11 5.8 12.34l1.62 3.12c1.31 2.74 1.8 4.93 2.38 7.88q1.08 2.5 2.18 4.99c1.25 3.06 2.09 6.22 3 9.4a82 82 0 0 0 2.94 7.73c1.82 4.38 2.4 8.19 2.88 12.88l2 5q.06 2.5 0 5l1 3q.3 2.68.5 5.38c.21 2.78.46 5.44 1.03 8.18.47 2.46.54 4.62.47 7.13-.06 4.52.31 8.89.88 13.38L767 420l-1 1c-.07 3.5 0 6.99.06 10.48A36 36 0 0 1 764 443l-2-1 .06-3.84c.72-47.86.72-47.86-4.06-66.16l-.81-3.18a289 289 0 0 0-24.99-63.83c-5.47-10.23-10.18-20.48-12.2-31.99l2.68-1.87c16.39-11.53 30.39-21.9 34.86-42.64.63-4.81.68-9.57.74-14.42l.06-3.3.11-7.09.17-11.19.41-25.76.41-25.53.17-11.05.11-6.74.04-3.12.05-2.84.04-2.47C760 113 760 113 761 111" fill="#EEF0EE"/><path d="m776 613 2.68.47 2.85.5c21.48 3.74 42.74 3.43 64.47 3.03l-1 3-3.06-.06c-3.94.06-3.94.06-6.9.56-5.5.82-11.05.64-16.6.62l-3.37.02-3.26-.01h-2.95c-3.02-.14-5.88-.6-8.86-1.13a342 342 0 0 0-6.44-.44A57 57 0 0 1 780 617a93 93 0 0 0-5 0l-2-1c-2.31-.38-2.31-.38-5 0-2.62 2.44-2.62 2.44-5 5l-3 1-1.62 2.12c-3.29 3.98-7.26 6.82-11.38 9.88l2.56 1.62c7.38 4.99 12.86 9.66 14.97 18.65.75 4.97.49 9.02-1.53 13.73-2 1.19-2 1.19-4 2l-.88 1.98C757 674 757 674 755.24 674.8c-15.99 2.96-31.77 3.54-47.24-1.8l-3.42-1.16q-3.82-1.35-7.58-2.84l2.06 2 2.94 3 1.79 1.83c6.5 7 9.56 14.46 9.21 24.17-.99 2.3-.99 2.3-2 4h-3l.48-1.71c2.28-9.99-1.03-16.74-6.23-25.1-4.32-4.2-9.91-6.52-15.25-9.19v-9l3.88 2.19L696 664l2.26 1.3c16.43 8.99 37.74 10.76 55.74 5.7 3.74-1.62 3.74-1.62 5.23-3.79 1.93-5.53 1.29-11.54-.42-17.02-4.8-8.45-10.01-11.23-18.81-15.19q4.09-3.3 8.27-6.52l3.54-2.73 1.88-1.45a62 62 0 0 0 11.17-11.03c3.58-2.12 7.24-.97 11.14-.27m-86 52 1 2 2-1z" fill="#E4E6E5"/><path d="M635.63 210.94C639 213 639 213 640 214c.5 2.69.5 2.69 0 6-1.67 1.65-3.47 3-5.33 4.42-2.57 2.42-2.96 5.2-3.67 8.58q-1 .98-2 2c-3.5-.18-3.5-.18-7-1-2-3-2-3-2.26-5.37C619 226 619 226 616 223.56c-3-2.56-3-2.56-4.18-5.56.18-3 .18-3 2.42-5.81 6.01-4.78 14.64-4.62 21.38-1.25" fill="#5F615F"/><path d="M802 574a95 95 0 0 1-7.19 17.44l-1.18 2.22c-3.27 6-7.16 11.18-11.63 16.34l-2 3c-3.85.29-7.31.18-11-1 1.74-4 4.36-7.32 7-10.75l1.37-1.82q1.75-2.27 3.63-4.43h2l.72-2.02a88 88 0 0 1 5.78-10.73l1.22-2.07c3.43-5.72 4.72-6.32 11.28-6.18" fill="#000101"/><path d="M941 509h1l.18 3.29.26 4.33.12 2.17c.19 3.23.46 6.33 1.02 9.53.58 3.69-.38 6.15-1.58 9.68l-.63 2.06a116 116 0 0 1-6.28 15.46C934 558 934 558 933.54 560.04c-.7 2.56-1.97 4.35-3.48 6.52l-1.59 2.32L927 571l-2 3h-2l-.62 2.75c-1.73 4.09-3.71 4.84-7.38 7.25a169 169 0 0 0-4.88 5.12c-5.97 6.28-12.96 10.57-20.42 14.88q-2.11 1.26-4.18 2.59c-3.34 1.87-6.81 3.16-10.4 4.47l-2.06.78a127 127 0 0 1-17.75 5.22c-2.15.47-4.26.93-6.38 1.56-2.96.58-5.18-.56-7.93-1.62v-1l1.7-.24c14.35-2.11 27.14-5.64 40.3-11.76l1.92-.89c25.05-11.87 42.19-33.06 51.42-58.86 2.74-8.59 3.83-16.66 4.22-25.63l.13-2.8z" fill="#E0E1E3"/><path d="M615 659h22l-1 10c-.19 3.36-.23 6.7-.25 10.06l-.06 2.53c-.06 8.61 2.18 15.51 7.31 22.41-2.25-.06-2.25-.06-5-1-5.63-7.72-7.84-19.11-6.69-28.56L632 672l1.06-4.81.94-4.19h-15l1 3c.29 4.02.28 8.04.31 12.06l.09 3.32c.06 7.11-.58 13.46-4.4 19.62-2.14 1.77-2.14 1.77-4 3l-2-1 1.06-1.76 1.38-2.36 1.37-2.33c2.86-6.14 2.34-12.85 2.31-19.49l.02-2.92-.01-2.85v-2.57c-.16-3.26-.67-6.49-1.13-9.72" fill="#E4E7E5"/><path d="M749 30c6.01 2.72 10.71 5.52 13.81 11.5 2.64 7.78 2.6 15.13 1.69 23.25-.58 5.62-.5 11.17-.44 16.81.22 24.88.22 24.88-3.06 31.44q-.17 2.77-.21 5.55l-.06 3.52-.05 3.81-.06 3.9-.15 10.24-.16 10.46L760 171h-1l-.05-23.69q0-5.5-.03-11c-.05-16.51.12-32.96.84-49.46q.48-11.64.54-23.29.01-2.36.06-4.73.06-3.53.07-7.06l.05-2.12c-.02-5.01-1.37-7.78-4.48-11.65-4.96-4.37-9.64-4.75-16-5v-1l6.15-.68C748 31 748 31 749 30" fill="#CECFCF"/><path d="M488 408h1l.04 1.69a304 304 0 0 0 3.61 38.95c.56 3.78.95 7.56 1.35 11.36l-2.71-.66c-11.48-2.64-20.63-4.23-31.29 1.66-9.93 6.66-15.12 17.1-17.54 28.55-.66 4.93-.83 9.86-1.02 14.83l-.13 3.09L441 515h-1l-.18-3.8-.26-4.95-.12-2.5-.12-2.42-.11-2.22c-.21-2.11-.21-2.11-.78-4.16-1.75-7.88 5.52-20.97 9.49-27.32 5.03-6.36 12.92-12.23 21.08-13.63 7.25-.51 14.15-.61 21 2l-.94-6.19-.52-3.48q-.48-3-1.1-5.97c-1.93-10.35-.05-21.9.56-32.36" fill="#D9DBDB"/><path d="M812 499h1l.18 3.44.26 4.56.12 2.25c.21 3.72.5 7.38 1.04 11.06.35 3.19.37 4.76-.6 7.69q-.18 2.03-.31 4.06c-.49 4.82-2.04 8.95-3.78 13.44-1.03 2.82-1.46 5.54-1.91 8.5a59 59 0 0 1-7 16c8.6 2.13 17.18 2.58 26 3v1l7 1v1c-26.35.55-26.35.55-37-3q2.18-6.63 4.46-13.22c5.68-16.4 9.44-32.31 10.1-49.72l.13-3.23z" fill="#E8EBEA"/><path d="M897 507h3c.37 17.12.37 17.12-2 24l-.71 2.27c-6.07 17.57-20.59 29.14-36.73 37.04-11.99 4.89-23.85 5.08-36.56 4.69 3.24-2.93 5.24-3.32 9.56-3.12 3.29.13 5.29.17 8.44-.88l3.62-.38c13.7-1.66 28.26-9.24 37.38-19.62 9.64-12.5 9.64-12.5 11-19l1-4.06.5-2.04c.43-1.65.96-3.28 1.5-4.9q.1-3.59.06-7.19l-.02-3.85z" fill="#E4E5E8"/><path d="M497 164h1l.04 2.49q.21 11.72.48 23.43.15 6.02.25 12.05.1 5.82.25 11.65.06 2.2.08 4.41c.2 15.06 4.07 26.54 14.34 37.59a138 138 0 0 0 18.4 14.35c2.16 2.03 2.16 2.03 2.48 4.78L534 277l-1.38-2.06a35 35 0 0 0-7.24-6.19c-4.76-3.21-8.94-6.8-13.13-10.71-2.25-2.04-2.25-2.04-5.5-4.29-8.37-8.37-10.85-21.32-11.75-32.75 0-2.77.19-5.5.4-8.26q.66-10 .92-20.03l.06-2.58.18-7.75.13-5.4z" fill="#DBE0DC"/><path d="M565 661v8l-2.41 1.07c-9.15 4.26-14.7 8.47-18.59 17.93a53 53 0 0 0-.19 8.38l.04 2.23.15 5.39h-3c-2.53-3.79-2.72-6.62-2-11a118 118 0 0 1 3.91-9.36C544 681 544 681 544 678v-3h3c4.07-1.6 7.5-4.43 11-7l-3.06 1.38A78 78 0 0 1 544 673v-2l-2-1 2.82-.95c5.78-2.01 14.52-8.05 20.18-8.05m-3 4 1 2Z" fill="#DCDBE1"/><path d="M754 239c1.19 1.62 1.19 1.62 2 4-2.66 6.95-7.37 11.45-12.92 16.16a91 91 0 0 0-5.7 5.59c-2.86 2.92-5.66 4.51-9.38 6.25-2.44 1.81-2.44 1.81-4 4 0 9.54 6.76 19.78 11 28h-4q-1.92-4.21-3.81-8.44l-1.08-2.37c-6.36-14.18-6.36-14.18-5.84-18.32 1.23-3.13 3.84-4.27 6.61-6.06l3.56-2.39 1.81-1.22c9.69-6.65 17.59-13.99 21.75-25.2" fill="#E7E9E8"/><path d="M601 199a13 13 0 0 1 1 4 79 79 0 0 1-8.88-4c-12.62-6.36-31.14-7.29-44.86-4.14A83 83 0 0 0 541 198q-1.99.56-4 1v-2c14.56-14.56 49.03-9 64 2" fill="#040504"/><path d="M768 613c4.63-.18 8.86.07 13.43.88 21.53 3.8 42.77 3.53 64.57 3.12l-1 3-3.06-.06c-3.94.06-3.94.06-6.9.56-5.5.82-11.05.64-16.6.62l-3.37.02-3.26-.01h-2.95c-3.02-.14-5.88-.6-8.86-1.13a342 342 0 0 0-6.44-.44A57 57 0 0 1 780 617a93 93 0 0 0-5 0l-2-1q-2.5-.54-5-1z" fill="#EBEDEF"/><path d="M688.25 188.69h2.52c6.41.1 12.2 1.04 18.23 3.3v2h3v2c-.33-.05-.33-.05-1.98-.4l-2.65-.52-2.6-.53c-17.68-3.41-33.24-1.56-49 7.13L653 203l-2-1a24 24 0 0 1 15.12-10.46q2.93-.32 5.88-.54l3.16-1c4.48-1.16 8.49-1.34 13.09-1.31" fill="#030503"/><path d="M870 432v1l-2.18.06c-38.11 1.1-38.11 1.1-47.7 9.44-3.84 4.52-4.41 7.81-4.74 13.75l-.23 3.83L815 463l-3-2a76 76 0 0 1 0-8v-3c1.2-5.21 3.14-7.48 7.31-10.75l2.87-2.3c13.83-9.56 32.2-7.54 47.82-4.95" fill="#E8E8ED"/><path d="m574 69 1.9 1.28 2.48 1.66 2.46 1.65c3.61 2.36 5.46 2.49 9.77 2.29l3.46-.15 3.68-.17c9.43-.39 18.81-.72 28.25-.56v1l42 1v1q-16.42.41-32.83.7-7.63.14-15.25.33-7.37.17-14.73.29-2.8.04-5.6.13c-17.65.51-17.65.51-23.42-4.76A13 13 0 0 1 574 69" fill="#D2D4D5"/><path d="m515 32 1 2-2.16.26c-6.44.95-11.19 2.06-15.84 6.74-4.92 7.36-4.66 14.94-4.75 23.5l-.09 4.23q-.1 5.13-.16 10.27l-2 1a75 75 0 0 1-.94-14.86C490 63 490 63 489 61c-.52-7.39.43-13.95 5.31-19.75L497 39l2.94-2.62c5.11-3.97 8.57-6.34 15.06-4.38" fill="#E8E8E9"/><path d="M803 466c5.42 4.61 7.51 11.03 9.34 17.65.66 2.35.66 2.35 1.85 5.47 1.06 3.76.87 6.98.81 10.88l1 4q.2 2.28.25 4.56l.08 2.32c-.41 2.62-1.32 3.47-3.33 5.12l-.08-3.09c-.52-14.67-2.37-28.76-9.85-41.62C802 469 802 469 803 466" fill="#EEF0EE"/><path d="M930 472h2c5.65 10.87 9.83 20.87 12 33l.62 3c1.43 11.4 1.43 11.4-1.14 15.3L942 525l-.15-3.08c-.89-17.09-3.77-32.66-11.85-47.92z" fill="#E7E8EA"/><path d="M789 613c6.43-.12 12.63.09 19 1l1 1q3.11.23 6.22.32l11.88.37 9.9.31c-3.57 2.38-5.16 2.26-9.4 2.27h-3.89l-2.04-.01q-3-.01-6.01.01c-16.93-.03-16.93-.03-24.66-2.27z" fill="#292B2C"/><path d="M634 665h2l-.05 2.06-.14 9.38-.07 3.24c-.09 9.5 1.57 16.67 7.26 24.32-2.25-.06-2.25-.06-5-1-5.67-7.78-7.89-19.3-6.62-28.81L632 672l.5-2.69c.5-2.31.5-2.31 1.5-4.31" fill="#E9E9EC"/><path d="M495 148h1c1.11 11.8 1.12 23.53 1.06 35.38l-.01 5.73L497 203h-1c-2.71-18.43-1.87-36.44-1-55" fill="#EEF0EF"/><path d="M800 564h1v6c8.6 2.13 17.18 2.58 26 3v1l7 1v1c-26.35.55-26.35.55-37-3z" fill="#D9DBDB"/><path d="m655.38 73.88 2.72-.02h2.54l2.26.02c2.14.13 4.03.54 6.1 1.12v2h-45c2.88-2.89 5.93-2.47 9.82-2.62l2.38-.11a510 510 0 0 1 19.17-.4" fill="#F0F1F3"/><path d="M493 69h1a326 326 0 0 1 0 50c-2.07-3.11-2.24-3.7-2.16-7.2l.03-2.48.07-2.57c.18-8.98.18-8.98-.49-13.18-.62-4.93-.05-9.58.49-14.51l.3-2.94z" fill="#D0D1D1"/><path d="M615 659h22v5l-3 1v-2q-3.66-.12-7.31-.19l-2.09-.07c-5.16-.08-5.16-.08-7.58 1.77L616 666z" fill="#D3D3D4"/><path d="M751 637c6.93 4.39 11.7 9.27 13.56 17.47.48 3.65.62 6-.56 9.53h-2l-.33-1.94c-1.51-8.22-3.61-14.38-9.46-20.48C751 640 751 640 751 637" fill="#EDEEEF"/><path d="M762 396h1l.05 13.55.03 4.6c.04 8.34-.03 16.55-1.08 24.85h-1v-5h-2l1-24h1z" fill="#282A29"/><path d="M494 648c2.72 4.07 1.76 6.53 1.09 11.21-.1 3.16.43 5.01 1.91 7.79 2.38 1.19 2.38 1.19 5 2q2.01.97 4 2c-6.93 1.55-6.93 1.55-9.83.06-2.67-2.17-4.08-3.78-5.17-7.06-.62-6.13.21-10.53 3-16" fill="#252728"/><path d="M497 164h1c.64 21.34 1.19 42.65 1 64h-1v-18h-2z" fill="#989899"/><path d="M439 497h1c.65 10.35 1.16 20.63 1 31l-3-2a77 77 0 0 1-.04-5.87c.04-2.13.04-2.13-.46-5.44-1.74-12.83-1.74-12.83 1.5-17.69" fill="#ECEDEC"/><path d="M763 407h1l.18 3.18.26 4.26.13 2.23c.23 3.76.54 7.47 1.05 11.21.6 4.77.02 9.38-.62 14.12h-3c-.2-11.69.41-23.33 1-35" fill="#DFE2E1"/><path d="M786 454a61 61 0 0 1 17 11l-1 3-1.43-1.17c-9.24-7.27-16.8-9.47-28.57-9.83v-1l2.55-.18 3.33-.26 3.3-.24C784 455 784 455 786 454" fill="#DCDEDF"/><path d="m555 56 5.31 3.31 2.99 1.87A33 33 0 0 1 569 66l2.62 1.44C574 69 574 69 574.65 71.1L575 73l-22-14 2-1z" fill="#DFDEDE"/><path d="m919 578 2 2-2.68 1.67c-3.27 2.18-5.82 4.77-8.51 7.64-5.03 5.24-10.48 9.1-16.81 12.69v-3c2.05-1.73 2.05-1.73 4.88-3.62a128 128 0 0 0 13.83-11.3c2.35-2.14 4.79-4.12 7.29-6.08" fill="#E2E3E3"/><path d="M496 210h2l.15 3.55c.4 8.62.93 17 2.85 25.45-3-2-3-2-3.98-5.31q-.41-2.06-.77-4.13l-.39-2.16A50 50 0 0 1 496 210" fill="#F2EFF0"/><path d="M761 656h1l.68 6.05C763 664 763 664 764 666c-1.38 2-1.38 2-3 4h-2l-.65 1.92C757 674 757 674 754.4 674.83l-3.02.42-3.04.45-2.34.3v-2l-2-1a230 230 0 0 0 4.75-.88l2.67-.49c3.42-.84 5.79-1.44 7.79-4.46.86-2.35 1.2-4.43 1.41-6.92l.23-2.42z" fill="#DFE2DF"/><path d="M941 499c3.97 3.97 3.73 6.6 4 12l.16 2.67c.23 6.81.23 6.81-3.16 11.33z" fill="#F1F1F4"/><path d="M488 396h1c.19 10.36-.39 20.66-1 31-2.14-3.21-2.38-4.68-2.69-8.44l-.26-2.87c-.05-2.52.31-4.29.95-6.69a118 118 0 0 0-.16-6.78c.18-2.51.91-4.06 2.16-6.22" fill="#EFF2F4"/><path d="m522 299 2 1-.98 1.76-4.4 7.93-1.53 2.76-1.49 2.69-1.36 2.46A72 72 0 0 0 511 325l-2-1c2.17-8.34 6-15.96 11-23h2z" fill="#E3E4E6"/><path d="M441 523h1l1.44 8.06.41 2.28q1.2 6.81 2.15 13.66l-2 1c-2.47-5.15-3.44-9.32-4-15l-.69-2.12c-.48-2.92.65-5.18 1.69-7.88" fill="#DBDDDB"/><path d="M489 401h1l1 9h1l1 18h-2l-2 2z" fill="#232627"/><path d="M705 679h2c4.52 6.33 5.76 13.27 6 21-.96 2.43-.96 2.43-2 4h-3l.48-1.71c1.62-7.14.72-13.01-2.6-19.48C705 681 705 681 705 679" fill="#EFF3EF"/><path d="M803 466c5.01 4.26 9.31 12.42 10 19-1.43 2.27-1.43 2.27-3 4l-.73-2.6c-3.08-10.49-3.08-10.49-5.58-14.52L802 469z" fill="#E8E8EA"/><path d="m485 457 1 3-3.32-.04-4.37-.02-2.18-.03c-3.85-.02-7.4.15-11.13 1.09l-1-3c6.66-2.8 14.04-2.86 21-1" fill="#252727"/><path d="M442 479h2c-.91 7.54-.91 7.54-1.5 10.56-.72 4.93-.87 9.85-1.06 14.82l-.13 3.09L441 515h-1l-.18-3.8-.26-4.95-.24-4.92-.11-2.22c-.21-2.11-.21-2.11-.78-4.16-.72-3.28.55-6.05 1.51-9.2l1.15-3.83z" fill="#CED0CF"/><path d="M491 444h1l2 16-14-3v-2c3.94-1.31 6.12-.24 10 1z" fill="#D6D9D6"/><path d="M754 239c1.19 1.62 1.19 1.62 2 4a35.4 35.4 0 0 1-14 17l-3-1 2.56-1.88c5.7-4.73 9.92-11.2 12.44-18.12" fill="#E5E6E9"/><path d="M743.69 29.94a152 152 0 0 1 4.3.06v2l-2.08.26c-6.16.93-10.84 2.4-16.13 5.72C728 39 728 39 726 39c1.38-3.41 2.6-4.66 5.94-6.18l2.09-1a22 22 0 0 1 9.66-1.88" fill="#EAECEC"/><path d="M789 613c6.42-.12 12.65-.01 19 1l1 2c-5.72 1.43-12.33 1.84-18 0z" fill="#1D2120"/><path d="m776.44 452.75 2.37-.08C781 453 781 453 784 456l-21 2 1-3 2.88-.44c3.47-.62 5.99-1.74 9.56-1.81" fill="#ECECF1"/><path d="M815 443h1l-1 20-3-2a76 76 0 0 1 0-8v-3c1.71-5.71 1.71-5.71 3-7" fill="#F3F6F4"/><path d="M759 222h1c1.49 10.4 1.49 10.4-1 15l-1.12 2.81L757 242l-2-1c.68-4.34 1.56-8.6 2.56-12.88l.82-3.49z" fill="#EAEAEB"/><path d="m861 613-1 3c-1.93.7-1.93.7-4.31 1.12l-2.37.45-2.32.43-2.09.61c-2.95.6-5.17-.55-7.91-1.61v-1l8.31-1.5 2.38-.43 2.3-.41 2.11-.38c1.9-.28 1.9-.28 4.9-.28" fill="#D6D7DA"/><path d="M815 449h1l.08 1.76c.55 7.63 3.3 12.02 8.92 17.24-1.69.81-1.69.81-4 1a37 37 0 0 1-7-8c.02-2.92.02-2.92.38-6.19l.33-3.29z" fill="#D2D4D3"/><path d="M758 56h1v8h2v17h-1l-1-6-2 1z" fill="#20211F"/><path d="M773 612v1h-5l-.25 1.75c-.97 2.92-2.43 4.27-4.75 6.25l-3 1-2 3h-2c1.52-3.53 3.59-5.99 6.25-8.75l2.27-2.42c3.04-2.24 4.78-2.19 8.48-1.83" fill="#EDEFEE"/><path d="M635 689c2 3 2 3 3.44 6.38A60 60 0 0 0 643 704c-2.25-.06-2.25-.06-5-1-3.13-4.11-4.08-5.74-3.75-10.94z" fill="#E3E5E6"/><path d="m821.69 572.38 3 .34 2.3.27v1l7 1v1q-4.4.09-8.8.13l-2.53.05-2.43.03-2.23.02c-2-.23-2-.23-5-2.23 3.55-2.36 4.58-2.1 8.69-1.62" fill="#CCCCD0"/><path d="m617 665 3 1q.08 3.63.12 7.25l.06 2.07c.03 3.74-.1 6.5-2.18 9.68a135 135 0 0 1-1-20" fill="#F1F1F6"/><path d="M812 499h1l.18 3.44.26 4.56.12 2.25c.28 4.96.78 9.83 1.44 14.75l-3 2z" fill="#D5D8D5"/><path d="M823 468a376 376 0 0 1 16 3c-1.33 1.51-1.33 1.51-3 3-4.98-.23-9.41-2.18-14-4z" fill="#EDEEF1"/><path d="M768 613c4.83-.08 9.24.05 14 1l-2 3c-2.81.28-4.47.27-7-1q-2.5-.54-5-1z" fill="#F0F3F1"/><path d="m475.88 453.88 3.49.05q1.3.04 2.63.06c-3 3-6.58 2.74-10.62 3.13q-1.19.15-2.44.26-2.96.33-5.94.62v-2a31 31 0 0 1 12.88-2.12" fill="#EBEDEF"/><path d="M761 44c3 3 3 3 4 6q-.47 2.5-1 5a293 293 0 0 0-.69 9.91L763 70h-1z" fill="#F3F6F2"/><path d="M462 584c2.92 3.54 5.5 7.16 8 11l-2 2q-1.8-2.1-3.56-4.25l-2.01-2.39C461 588 461 588 461.29 585.7z" fill="#E0E3E0"/><path d="M758 86c2.71 3.98 2.22 8.14 2.12 12.75l-.02 2.4-.1 5.85h-1l-1-6h-1c-.18-10.56-.18-10.56 1-15" fill="#202220"/><path d="M803 556h4l-1.31 4.31-.74 2.43A12.6 12.6 0 0 1 801 568l.44-4.31.24-2.43C802 559 802 559 803 556" fill="#E7E9E8"/><path d="M941 509h1l.18 3.29.26 4.33.12 2.17c.24 4.13.67 8.13 1.44 12.21l-3 2z" fill="#D1D1D4"/><path d="M807 542c1.87 3.15 2.43 5.35 2 9-1.5 3.31-1.5 3.31-3 6l-2-1 .94-4.75.52-2.67q.69-3.31 1.54-6.58" fill="#D9D9D9"/><path d="M487 437h3c1 3.01 1.1 5.04 1.06 8.19l-.02 2.73L491 450l-2-1c-.63-2.21-.63-2.21-1.12-4.94l-.51-2.71C487 439 487 439 487 437" fill="#ECEFEC"/><path d="M489 384c2.38 3.67 2.05 6.49 1.62 10.75l-.33 3.55-.29 2.7h-1c-1.57-5.71-2.33-10.19-1-16z" fill="#D7D9DA"/><path d="m515 32 1 2-2.3.4-3.01.54-2.99.52C505 36 505 36 502 37l-1-2c8.34-4.93 8.34-4.93 14-3" fill="#ECF0F1"/><path d="m514 635-14 7c.23-1.86.23-1.86 1-4 1.93-1.3 1.93-1.3 4.31-2.31l2.37-1.05c2.55-.7 3.85-.52 6.32.36" fill="#DBDCDE"/><path d="M758 372h1l.56 4.88.32 2.74C760 382 760 382 759 384h-2q-.33-2.43-.62-4.88l-.36-2.74L756 374z" fill="#272927"/><path d="M526 288h1c-.47 4.06-.88 7.47-3 11h-2l-1 2c.55-4.66 1.55-9.55 5-13" fill="#EDEDF0"/><path d="M839 471h16v1l-8 1v1l-9-1z" fill="#CECDD1"/><path d="m561 665 2 4c-6.45 4.09-6.45 4.09-9.23 3.62L552 672l1.71-1.02 2.23-1.36 2.21-1.33C560 667 560 667 561 665" fill="#E7E6EC"/><path d="M809 533c2.74 5.11 2.74 5.11 3 8-1.38 2.75-1.38 2.75-3 5h-1c-.08-4.52-.1-8.59 1-13" fill="#E0E4E2"/><path d="m540 691 2 1v9h-3c-.12-7.75-.12-7.75 1-10" fill="#F0F0F2"/><path d="M897 440c5.41 1.15 7.93 2.34 11 7-4.51-.53-7.42-2.25-11-5z" fill="#E7E6EA"/><path d="M760 382h1q.33 3.38.62 6.75l.36 3.8c.02 3.29-.2 4.76-1.98 7.45-1.33-12.67-1.33-12.67 0-18" fill="#2A2D2A"/><path d="m762 381 2 1 .12 5.31.08 2.99c-.2 2.7-.2 2.7-2.2 5.7q-.3-2.62-.56-5.25l-.32-2.95c-.11-2.56.1-4.38.88-6.8" fill="#E9EBE8"/><path d="M753 354c2.06 4.12 2.96 7.55 4 12h-3v-3h-2z" fill="#2A2D29"/><path d="M514 313h2a394 394 0 0 1-5 12l-2-1c1.96-7.83 1.96-7.83 5-11" fill="#D9DCDD"/><path d="M515 32q2.22.6 4.44 1.25l2.49.7L524 35l1 4-10-4z" fill="#DEE1DE"/><path d="M617 676h1l2 15-3 1z" fill="#E6E8ED"/><path d="m892 542 2 3-4 7-2-1c0-4 1.73-5.8 4-9" fill="#242626"/><path d="m786 454 4 3c-4.1 1.04-7.61.94-11.81.56l-3.52-.31L772 457v-1l2.55-.18 3.33-.26 3.3-.24C784 455 784 455 786 454" fill="#B6B7B7"/><path d="M705 679h2c4 6.5 4 6.5 4 11h-2l-2-4.38-1.12-2.46C705 681 705 681 705 679" fill="#E7EAEA"/><path d="m919 578 2 2-2.62 1.69A96 96 0 0 0 909 589c1.45-3.44 3.28-5.36 6.12-7.75l2.2-1.86z" fill="#ECECF0"/><path d="M897 526h1c-.62 7.51-.62 7.51-2.56 10l-1.44 1c-.69-1.62-.69-1.62-1-4 2.28-5.28 2.28-5.28 4-7" fill="#EBECF1"/><path d="m938 492 4 1-1 11h-1z" fill="#DEDEE0"/><path d="M774 453c3.44-.38 3.44-.38 7 0l3 3h-12z" fill="#F3F4F3"/><path d="M867 430c3.49.65 6.03 2.1 9 4-3.58 1.24-6.34.75-10 0z" fill="#D4D4D8"/><path d="m703 55 2 2c-2.51 3.76-4.86 4.39-9 6v-3c1.53-1.39 1.53-1.39 3.5-2.69l1.97-1.32z" fill="#1A1B1D"/><path d="M761 656h1l.68 6.05C763 664 763 664 764 666l-3 4-2-1z" fill="#D1D5D1"/><path d="M863 611v2c-6.62 1.25-6.62 1.25-10-1 3.78-1.84 5.95-2.16 10-1" fill="#1B1E1F"/><path d="M554 665c-2.19 2.06-2.19 2.06-5 4-2.81-.25-2.81-.25-5-1l1-3c5.62-1.12 5.62-1.12 9 0" fill="#1D1D22"/><path d="M763 426c3 3 3 3 3.19 6.19L766 435l-3 1z" fill="#F1F5F5"/><path d="M501 237c2.19 3.28 3 6.21 4 10-3-1-3-1-4.75-3.94L499 240c1-2 1-2 2-3" fill="#D3D5D0"/><path d="M498 228c2.12 3.53 2.53 6.94 3 11-3-2-3-2-3.55-3.91q-.27-3.04-.45-6.09z" fill="#E8E8E8"/><path d="M493 84h1v13h-2c-1.01-5.04-.97-8.24 1-13" fill="#F0F0F2"/><path d="M733 35v3c-1.53 1.39-1.53 1.39-3.5 2.69l-1.97 1.32L726 43l-1-3z" fill="#1D1D1E"/><path d="m831.75 572.31 3.25.7v2h-11c4-3 4-3 7.75-2.7" fill="#F2F3F7"/><path d="m842.31 571.88 1.7 1.12c-2 2-2 2-5.64 2.13L835 575v-2c4.43-2.22 4.43-2.22 7.31-1.12" fill="#E7E9EB"/><path d="m937 542 3 4c-1.51 3.78-2.01 4.01-6 6z" fill="#D1D4D5"/><path d="M491 444h1l1 12-3-1z" fill="#CED2CC"/><path d="M886 437v3c-6.62-.75-6.62-.75-10-3 3.58-1.24 6.34-.75 10 0" fill="#1F1D21"/><path d="M824 437c-1.45 3.38-3.33 5.5-6 8l-2 2c.38-4.49 2.85-10 8-10" fill="#DEDEE0"/><path d="m500 350 2 2c-.25 1.75-.25 1.75-1 4l-1.06 3.25L499 362h-2z" fill="#242724"/><path d="M721 272c2.57 3.85 2.55 6.43 3 11l-2-1c-.67-2.03-.67-2.03-1.19-4.5l-.54-2.47L720 273z" fill="#DEE2DD"/><path d="m747 251 2 3q-1.64 1.55-3.31 3.06l-1.87 1.73L742 260l-3-1 4.49-3.61C745 254 745 254 747 251" fill="#DBDDDD"/><path d="m713 48 3 2-7 6-2-1c1.8-3.26 2.83-4.89 6-7" fill="#1E1F20"/><path d="M520 38c5.02 1.18 8.09 2.45 12 6-5.75-.88-5.75-.88-8-2v-2h-4z" fill="#1C1E1C"/><path d="M633 676h1l1 15h-2c-1.1-3.41-.94-6.21-.56-9.75l.31-2.98z" fill="#F3F4F6"/><path d="m757 666 2 3c-5.42 3.08-5.42 3.08-8.38 2.69L749 671l1-2 5-1z" fill="#222522"/><path d="M834 617h12l-1 3-11-2z" fill="#E3E6E7"/><path d="M503 246c2.62 1.05 3.79 1.65 5.25 4.12L509 252h-4c-2-3-2-3-2-6" fill="#E3E6E4"/><path d="m891 600 1 3-7 3-2-2z" fill="#D8DAD8"/><path d="M863 569c-1 3-1 3-3.94 4.75L856 575l-2-1c5.62-5 5.62-5 9-5" fill="#191B1B"/><path d="M445 547c2 2 2 2 2.2 3.95L447 557c-2.78-2.78-2.65-5.17-3-9z" fill="#EBEBEE"/><path d="M927 464c2.15 2.62 3.4 4.64 4 8l-2 1-4-8z" fill="#DAD9DB"/><path d="M828 437v2c-2.25 2.19-2.25 2.19-5 4-2.17-.39-2.17-.39-4-1l3.38-2.5 1.89-1.41C826 437 826 437 828 437" fill="#202022"/><path d="M756 227h2c-.75 7.75-.75 7.75-3 10-1.31-3.94-.24-6.12 1-10" fill="#252527"/><path d="M616 688c2 4 2 4 3 7-1.38 1.5-1.38 1.5-3 3h-2z" fill="#D9DCDE"/><path d="m550 669-1 3-5 1v-2l-2-1c2.93-.98 4.96-1.08 8-1" fill="#D8D7DA"/><path d="m770.31 611.63 2.7.38v1h-5v3q-2.97.97-6 2c4.17-5.91 4.17-5.91 8.3-6.38" fill="#C8CBC9"/><path d="M759 436h1l1 9h-3c-.1-6.15-.1-6.15 0-8z" fill="#1E2021"/><path d="m830.69 433.38 2.3.62c-2.67 2.69-5.36 3.06-9 4 1.3-3.87 2.53-5.2 6.7-4.62" fill="#ECECF1"/><path d="M491 48h2l-1 14h-1l-.56-6.44-.32-3.62L490 49z" fill="#F5F3F5"/><path d="M492 620c2.47 1.15 4.05 2.05 6 4l-1 3c-2.5-1.81-2.5-1.81-5-4z" fill="#EEEFF0"/><path d="m909 583 2 3-5 4-1-3z" fill="#242625"/><path d="m923 571 1 2c-1.19 2.56-1.19 2.56-3 5l-4 1z" fill="#D4D2D8"/><path d="M869 565c-2.62 2.15-4.64 3.4-8 4 1-3 1-3 2.88-4.25C866 564 866 564 869 565" fill="#DBDDDB"/><path d="M491 435h1v5h2l-1 7c-2.14-3.2-2.23-4.02-2.12-7.69l.05-2.45z" fill="#0E110D"/><path d="M508 324h2c-.55 3.37-1.05 5.08-3 8l-2-3c1.38-2.5 1.38-2.5 3-5" fill="#E2E5E7"/><path d="M754 618h5c-.38 1.94-.38 1.94-1 4l-2 1-2-1z" fill="#232624"/><path d="m812 462 3 3-3 2-2-3z" fill="#F1F3F3"/></svg>