<svg style="background:transparent" version="1.1" xmlns="http://www.w3.org/2000/svg" viewBox="0 0 1248 704"><path d="M523 0v2l2.17.25c8.24 2.18 14.73 10.56 20.08 16.83 2.29 2.51 4.9 4.09 7.75 5.92 9.14 7.71 9.14 7.71 12 12l2.31 1.31C570 40 570 40 572.44 42.94c2.62 3.13 5.17 4.83 8.56 7.06q2.06 2.45 4 5c3.03 1.51 6.17 1.17 9.49 1.19l2.34.03 7.69.05 2.65.02 13.89.06q7.17.03 14.34.11 5.51.05 11.03.05l5.29.05q3.7.04 7.4.02l2.2.05c3.9-.04 5.49-.47 8.51-3.03L672 51q4.05-3.47 8.23-6.75a291 291 0 0 0 19.58-17.4Q706.73 20.24 714 14l1.67-1.44 4.52-3.81 2.98-2.52c5.02-3.96 9.03-6.61 15.55-6.51C745.76.58 752.48 4.62 757 10c5.1 9.15 4.56 19.19 4.49 29.32l.01 5.5q0 7.43-.03 14.86-.02 7.78-.01 15.58 0 13.06-.05 26.14-.04 15.1-.04 30.2 0 16.1-.03 32.2l-.01 9.27-.03 14.56-.01 5.33-.02 7.29.01 2.13A31 31 0 0 1 759 214l-1.15 2.96C751.5 232.35 751.5 232.35 745 238h-2l-.78 1.79c-3.82 6.92-12.63 12.18-19.22 16.21h-2q-.04 2.43-.06 4.88l-.04 2.74c.1 2.38.1 2.38 1.1 4.38l.31 3.56c.47 4.15 1.85 7.4 3.65 11.14a60 60 0 0 1 2.6 7.11A23 23 0 0 0 733 298q1.05 2.48 2 5a106 106 0 0 0 4.13 7.93c3.2 5.49 5.53 11.1 7.75 17.06q1.26 3.43 2.74 6.76c2.4 5.66 4.16 11.48 5.88 17.37.88 3 1.84 5.63 3.12 8.5a31 31 0 0 1 2.13 9.35c.25 2.06.7 3.96 1.25 5.97a64 64 0 0 1 1.71 10.77c.29 2.33.79 4.52 1.35 6.79.94 3.92 1.08 7.53.91 11.55C766 407 766 407 767 410q.14 3.5.12 7l.01 3.75C767 424 767 424 766 427v2.88c0 2.9-.43 5.29-1 8.12l.06 2.94c-.07 3.41-.95 5.85-2.06 9.06a166 166 0 0 0-1 7l3.69-1.5c8.46-2.78 17.69-2.78 25.83.98 9.05 5.54 17.18 13.65 20.21 24.02.52 2.49.9 4.98 1.27 7.5l1.06 4.88A89 89 0 0 1 815 521l-.44 5.81A42 42 0 0 1 812 538l-1 7c-4.45 17.45-4.45 17.45-7 20 3.66 1.15 7.12 1.13 10.94 1.12l3.65.01c3.41-.13 3.41-.13 5.71-.63a47 47 0 0 1 9.33-.58l1.96.01 6.41.07 2.24.02q7.13.09 14.25.24l4.89.09c10.02.14 19.48.88 29.3 2.96 2.81.58 5.53.99 8.38 1.25 3.91.44 7.2 1.24 10.94 2.44l2.54.74A112 112 0 0 1 950 591l2.57 1.85 2.49 1.84 2.23 1.63c1.94 1.91 2.18 3.07 2.71 5.68q1.99 1.02 4 2c.97 1.71.97 1.71 2 4l1.22 2.66c4.29 9.92 8.37 21.58 4.78 32.34l-.19 3c-1.37 10.15-10.24 22.37-17.81 29q-2.96 2.06-6 4l-4.81 3.44c-7.04 4.92-14.06 8.81-22.19 11.56l-2.64.96c-10.23 3.63-20.64 5.53-31.36 7.04l-4 1c-6.73 1.33-13.45 1.19-20.28 1.19l-6.84.03-4.38.01-4 .01A21 21 0 0 1 839 702l-2.56-1-2.44-1-2.19-.88c-2.27-1.41-2.68-2.72-3.81-5.12l-1.96-1.76c-3.87-4.25-4.03-9.67-4.04-15.24 1.85-8.37 6.19-14.86 13-20 9.84-6.26 19.6-6.15 30.94-6.5 10.16-.31 19.85-.7 29.68-3.38l3.73-.99C906.79 643.82 912.9 641 918 635c.81-3.12.81-3.12 0-6-4.63-5.89-10.93-8.89-18-11l-2.88-1.06c-3.73-1.12-7.24-1.5-11.12-1.94l-1.95-.5a46 46 0 0 0-6.8-1q-4.53-.4-9.05-1.02a94 94 0 0 0-12.64-.6h-2.33c-6.87.05-13.71.43-20.56.9-3.23.19-6.43.22-9.67.22l-2.38.5c-2.37.45-4.34.54-6.74.5-3.88 0-3.88 0-6.88 1h-7l-1 1c-2.33.07-4.64 0-6.97-.06C790 616 790 616 789 617q-3.3.31-6.62.5c-13.98.92-13.98.92-18.38 3.5l-1.94.81c-2.84 1.64-4.77 3.85-7.06 6.19a482 482 0 0 1-8 7l2.2 1.4c7.79 5.26 12.8 10.59 15.8 19.6.4 5.17.08 9.71-3 14-9.98 9.36-23.22 8.39-36 8l-3.34-.09a44 44 0 0 1-16.39-3.92A62 62 0 0 0 697 671l1.57 1.07c9.1 6.44 11.79 11.75 14.05 22.72.45 3.78.05 5.87-1.62 9.21q-13.79.1-27.56.16-6.4.01-12.8.07-6.18.05-12.36.05l-4.71.04-6.6.02-3.79.02c-3.44-.39-4.77-.94-7.18-3.36-4.48-8.62-6.54-18.49-4-28v-3.19c0-2.81 0-2.81 1-3.81l-14-1 1 5q.06 2.13 0 4.25V678l1 1c.24 7.52.24 7.52-1 10l-.31 3.12a25 25 0 0 1-2.73 8.12l-1.11 2.15L615 704q-14.42.07-28.84.1l-13.39.05-17.85.06-6.9.02-3.97.01C541 704 541 704 539 702c-.67-7.45.52-15.36 5.38-21.31L547 678l2.56-2.75A20 20 0 0 1 556 671c-4.19.99-8.25 2.06-12.31 3.5-13.98 4.69-32.85 6.36-46.76.65A24 24 0 0 1 489 667c-1.32-6.32-1.71-12.2 1.79-17.91 4.66-5.55 8.78-9.7 15.21-13.09l-2.25-1.75A60 60 0 0 1 497 628v-2l-1.65-.2c-3.29-1.12-5.44-3.27-7.91-5.61l-1.6-1.5a166 166 0 0 1-22.72-26.31l-1.62-2.35c-7.26-10.8-12.56-22.66-16.5-35.03l-1.56-4.56a84 84 0 0 1-4.19-19.26c-.25-2.18-.25-2.18-.75-4.43-.97-5.37-.68-10.87-.69-16.31l-.03-3.68c-.02-10.35.53-20.38 5.22-29.76l1.31-2.94c3.01-5.46 5.9-10.42 11.69-13.06l2.16-1.44c6.64-4.43 13.83-7.4 21.98-6.26 1.8.51 1.8.51 4.86 1.7q2.5.54 5 1l-.94-3.44a73 73 0 0 1-1.81-11.29 70 70 0 0 0-.74-4.98c-.63-4.08-.9-8.12-1.13-12.23l-.16-2.34A61 61 0 0 1 486 408q.06-2.5 0-5c-.04-4.1.31-7.94 1-12l.44-3.56c.56-3.44.56-3.44 1.56-6.32a33 33 0 0 0 1.5-7.68c.34-3.52 1.04-6.2 2.5-9.44 1.76-4.91 3.29-9.91 4.84-14.89l1.98-6.32q.99-3.16 1.92-6.33c2.19-7.21 5.81-13.78 9.26-20.46l2-4 2.31-4.62 1.32-2.66q1.35-2.68 2.74-5.35A73 73 0 0 0 525 285q.96-1.95 2-3.88c3.57-6.93 5.3-15.35 4-23.12-2.5-3.17-6.09-5.28-9.36-7.6L520 249v-2l-1.76-.84c-8.63-4.47-15.05-11.42-19.24-20.16l-1.5-2.38c-6-10.5-5.8-23.64-5.73-35.39v-4.08q0-5.6.03-11.17l.03-7.1q.03-13.25.11-26.5.07-13.33.1-26.67.05-17.09.15-34.16.06-9.47.08-18.93.03-9 .1-18.01l.02-6.7q0-4.61.06-9.23l-.01-2.72c.09-5.5.98-8.55 4.56-12.96l1.69-2.56C505.81-.07 512.99-.7 523 0" fill="#161917"/><path d="m797 568 1 2 2.01-.18a557 557 0 0 1 48.18-2.07l2.58-.02c11.88-.05 23.46.68 35.23 2.27l3.24.43c26.35 3.68 54.9 12.16 71.75 34.17 7.41 11.61 10.92 24.65 8.26 38.24-2.98 12.25-7.39 20.11-16.25 29.16l-1.92 2.06c-22.87 22.64-61.11 27.04-91.64 27.19l-3.17.06c-9.81.05-18.96-1.25-26.68-7.72-3.72-3.72-4.76-7.21-5.03-12.34.24-7.4 3-15.1 8.44-20.25 6.04-3.88 12.03-7.19 19.32-7.34l3.1-.09 3.27-.07c46.95-1.47 46.95-1.47 59.06-13.75 2.52-3.42 3.09-6.48 2.75-10.68-.89-3.69-2.42-4.88-5.5-7.07-24.8-14.28-54.3-12.57-82-12l-2.83.05c-8.34.16-16.57.97-24.85 1.91l-2.4.27q-5.97.67-11.95 1.4A172 172 0 0 1 765 615l2.18-2.13C778.92 601.1 793.36 584.63 797 568" fill="#151817"/><path d="M523 0v2l2.17.25c8.24 2.18 14.73 10.56 20.08 16.83 2.29 2.51 4.9 4.09 7.75 5.92 9.14 7.71 9.14 7.71 12 12l2.31 1.31C570 40 570 40 572.44 42.94c2.62 3.13 5.17 4.83 8.56 7.06q2.06 2.45 4 5c3.03 1.51 6.17 1.17 9.49 1.19l2.34.03 7.69.05 2.65.02 13.89.06q7.17.03 14.34.11 5.51.05 11.03.05l5.29.05q3.7.04 7.4.02l2.2.05c3.9-.04 5.49-.47 8.51-3.03L672 51q4.05-3.47 8.23-6.75a291 291 0 0 0 19.58-17.4Q706.73 20.24 714 14l1.67-1.44 4.52-3.81 2.98-2.52c5.02-3.96 9.03-6.61 15.55-6.51C745.76.58 752.48 4.62 757 10c5.1 9.15 4.56 19.19 4.49 29.32l.01 5.5q0 7.43-.03 14.86-.02 7.78-.01 15.58 0 13.06-.05 26.14-.04 15.1-.04 30.2 0 16.1-.03 32.2l-.01 9.27-.03 14.56-.01 5.33-.02 7.29.01 2.13A31 31 0 0 1 759 214l-1.15 2.96C751.5 232.35 751.5 232.35 745 238h-2l-.78 1.79c-3.82 6.92-12.63 12.18-19.22 16.21h-2q-.04 2.43-.06 4.88l-.04 2.74c.1 2.38.1 2.38 1.1 4.38l.31 3.56c.47 4.15 1.85 7.4 3.65 11.14a60 60 0 0 1 2.6 7.11A23 23 0 0 0 733 298q1.05 2.48 2 5a106 106 0 0 0 4.13 7.93c3.2 5.49 5.53 11.1 7.75 17.06q1.26 3.43 2.74 6.76c2.4 5.66 4.16 11.48 5.88 17.37.88 3 1.84 5.63 3.12 8.5a31 31 0 0 1 2.13 9.35c.25 2.06.7 3.96 1.25 5.97a64 64 0 0 1 1.71 10.77c.29 2.33.79 4.52 1.35 6.79.94 3.92 1.08 7.53.91 11.55C766 407 766 407 767 410q.14 3.5.12 7l.01 3.75C767 424 767 424 766 427v2.88c0 2.9-.43 5.29-1 8.12l.06 2.94c-.07 3.41-.95 5.85-2.06 9.06a166 166 0 0 0-1 7l3.69-1.5c8.46-2.78 17.69-2.78 25.83.98 9.05 5.54 17.18 13.65 20.21 24.02.52 2.49.9 4.98 1.27 7.5l1.06 4.88A89 89 0 0 1 815 521l-.44 5.81A42 42 0 0 1 812 538l-1 7c-4.45 17.45-4.45 17.45-7 20 3.66 1.15 7.12 1.13 10.94 1.12l3.65.01c3.41-.13 3.41-.13 5.71-.63a47 47 0 0 1 9.33-.58l1.96.01 6.41.07 2.24.02q7.13.09 14.25.24l4.89.09c10.02.14 19.48.88 29.3 2.96 2.81.58 5.53.99 8.38 1.25 3.91.44 7.2 1.24 10.94 2.44l2.54.74A112 112 0 0 1 950 591l2.57 1.85 2.49 1.84 2.23 1.63c1.94 1.91 2.18 3.07 2.71 5.68q1.99 1.02 4 2c.97 1.71.97 1.71 2 4l1.22 2.66c4.29 9.92 8.37 21.58 4.78 32.34l-.19 3c-1.37 10.15-10.24 22.37-17.81 29q-2.96 2.06-6 4l-4.81 3.44c-7.04 4.92-14.06 8.81-22.19 11.56l-2.64.96c-10.23 3.63-20.64 5.53-31.36 7.04l-4 1c-6.73 1.33-13.45 1.19-20.28 1.19l-6.84.03-4.38.01-4 .01A21 21 0 0 1 839 702l-2.56-1-2.44-1-2.19-.88c-2.27-1.41-2.68-2.72-3.81-5.12l-1.96-1.76c-3.87-4.25-4.03-9.67-4.04-15.24 1.85-8.37 6.19-14.86 13-20 9.84-6.26 19.6-6.15 30.94-6.5 10.16-.31 19.85-.7 29.68-3.38l3.73-.99C906.79 643.82 912.9 641 918 635c.81-3.12.81-3.12 0-6-4.63-5.89-10.93-8.89-18-11l-2.88-1.06c-3.73-1.12-7.24-1.5-11.12-1.94l-1.95-.5a46 46 0 0 0-6.8-1q-4.53-.4-9.05-1.02a94 94 0 0 0-12.64-.6h-2.33c-6.87.05-13.71.43-20.56.9-3.23.19-6.43.22-9.67.22l-2.38.5c-2.37.45-4.34.54-6.74.5-3.88 0-3.88 0-6.88 1h-7l-1 1c-2.33.07-4.64 0-6.97-.06C790 616 790 616 789 617q-3.3.31-6.62.5c-13.98.92-13.98.92-18.38 3.5l-1.94.81c-2.84 1.64-4.77 3.85-7.06 6.19a482 482 0 0 1-8 7l2.2 1.4c7.79 5.26 12.8 10.59 15.8 19.6.4 5.17.08 9.71-3 14-9.98 9.36-23.22 8.39-36 8l-3.34-.09a44 44 0 0 1-16.39-3.92A62 62 0 0 0 697 671l1.57 1.07c9.1 6.44 11.79 11.75 14.05 22.72.45 3.78.05 5.87-1.62 9.21l-3-1 .18-2.75c.29-8.07.06-13.89-5.18-20.25-4.7-5.04-9.74-8.2-16-11v-8l1.84 1.1a120 120 0 0 0 17.41 8.21l2 .77c8.5 3.13 16.75 3.1 25.69 3.11l3.46.03c7.48.02 13.5-.85 20.6-3.22 3.4-4.9 2.65-11.34 2-17-2.76-7.64-9.39-12.81-16.44-16.38L740 636q4.15-3.35 8.38-6.62l1.79-1.4 3.66-2.83 1.79-1.4 1.61-1.24C759 621 759 621 761.32 618.4c3.14-2.82 4.74-3.17 8.89-3.58l3.75-.42 1.99-.2q3.13-.31 6.25-.7c34.59-4.23 34.59-4.23 50.8-4.5l3.77-.08c63.6-1.23 63.6-1.23 82.92 15.39A15.8 15.8 0 0 1 921 636c-3.66 7.51-10.93 10.21-18.38 12.82-4.24 1.38-8.21 2.56-12.62 3.18l-3.67.52a206 206 0 0 1-24.08 1.78q-3.24.08-6.48.09c-6.8.15-11.8 1.35-17.77 4.61l-3.25 1.69c-5.31 4.46-8.29 10.77-8.99 17.64-.15 4.94-.01 8.95 2.78 13.14 6.19 6.5 15.31 8.56 23.97 8.8l6.18-.02 3.32-.02c32.09-.4 68.7-6.42 92.24-30.26 10.46-11.11 15.18-24.4 15.03-39.65-1.27-15.07-9.25-27.52-20.49-37.23-27.59-20.68-65.06-24.3-98.39-24.22l-8.09-.01c-9.05 0-18.01.19-27.03.92-5.42.36-10.85.3-16.28.22.66-4.2 2.1-7.72 3.75-11.62 7.63-19.55 9.42-40.59 8.25-61.38l-.22-3.96c-1.08-10.17-5.88-21.77-13.73-28.64-8.73-5.94-17.62-7.72-28.05-6.4a232 232 0 0 0-11 3l2.25-17.97.39-3.18q.43-3.34.93-6.67c5.58-45.43-9.45-90.64-30.48-130.28-16.2-30.78-16.2-30.78-13.09-46.9 2.79-3.56 6.19-5.64 10-8q2.4-1.81 4.75-3.69c4.12-3.21 4.12-3.21 5.93-4.58 11.44-8.91 16.43-22.76 18.32-36.73.5-6.04.41-12.11.39-18.17l.01-5.35q.02-7.19 0-14.39l.01-15.11-.02-25.36q-.02-14.63.01-29.27v-25.2l.01-15.03q.01-7.05-.02-14.11l.01-5.16q.01-3.54-.02-7.07v-3.99C756.67 17.66 754.23 12 749 7a24 24 0 0 0-15-3c-10.83 3.27-19.12 12.85-27.11 20.46a523 523 0 0 1-22.34 19.74l-1.69 1.44-1.75 1.45C679 49 679 49 676.87 51.47c-5.48 5.94-9.44 8.41-17.44 8.86-3.33.11-6.65.1-9.98.07l-5.38.04q-5.61.04-11.22-.03-7.14-.05-14.28.09-5.54.07-11.09.03-2.62-.01-5.26.04c-8.54.15-15.27.02-21.94-5.79A141 141 0 0 1 573 47a128 128 0 0 0-4.12-3.62c-4.15-3.59-8.18-7.29-12.23-10.98q-4.18-3.75-8.43-7.42a270 270 0 0 1-5.29-4.87c-17.58-16.6-17.58-16.6-30.07-16.45-5.32.63-8.87 3.16-12.43 7.05-4.31 5.61-4.58 10.89-4.58 17.84l-.02 2.29-.02 7.55-.03 5.42-.05 17.8-.02 6.15-.05 25.58q-.03 18.27-.11 36.56-.06 12.88-.06 25.76 0 7.68-.05 15.35-.05 7.25-.02 14.48l-.03 5.28c-.17 17.41 3.19 33.49 15.49 46.61 6 5.76 12.83 10.57 19.57 15.43A25 25 0 0 1 534 256c1.26 10.92-.57 19.95-5 30l-.96 2.25a306 306 0 0 1-13.04 27c-16.04 29.57-25.2 64.87-25.25 98.44l-.01 2.2c0 11.84.85 23.32 2.9 35 .52 3.03.94 6.07 1.36 9.11-6.53-.9-6.53-.9-9.32-1.51-11.98-2.18-20.09.07-29.93 6.7-5.99 6.12-9.65 13.56-11.75 21.81l-.62 2.38c-7.39 33.44 4.77 71.58 22.62 99.62 11.77 17.5 28.86 36.43 48 46v2l-1.94.66c-7.52 2.76-13.35 5.96-17.5 13.03-2.2 4.96-2.36 9.98-1.56 15.31 2.18 4.36 4.99 5.74 9.51 7.37 5.05 1.28 10.18 1.16 15.37 1.13l3.62-.02c14.81-.29 26.94-4.1 39.88-11.12C563 662 563 662 565 662v8l-1.94.88c-7.7 3.65-14.67 7.52-18.35 15.55-1.57 5.68-1.56 11.71-1.71 17.57l-4-2c-.42-7.56.43-15.25 5.38-21.31L547 678l2.56-2.75A20 20 0 0 1 556 671c-4.19.99-8.25 2.06-12.31 3.5-13.98 4.69-32.85 6.36-46.76.65A24 24 0 0 1 489 667c-1.32-6.32-1.71-12.2 1.79-17.91 4.66-5.55 8.78-9.7 15.21-13.09l-2.25-1.75A60 60 0 0 1 497 628v-2l-1.65-.2c-3.29-1.12-5.44-3.27-7.91-5.61l-1.6-1.5a166 166 0 0 1-22.72-26.31l-1.62-2.35c-7.26-10.8-12.56-22.66-16.5-35.03l-1.56-4.56a84 84 0 0 1-4.19-19.26c-.25-2.18-.25-2.18-.75-4.43-.97-5.37-.68-10.87-.69-16.31l-.03-3.68c-.02-10.35.53-20.38 5.22-29.76l1.31-2.94c3.01-5.46 5.9-10.42 11.69-13.06l2.16-1.44c6.64-4.43 13.83-7.4 21.98-6.26 1.8.51 1.8.51 4.86 1.7q2.5.54 5 1l-.94-3.44a73 73 0 0 1-1.81-11.29 70 70 0 0 0-.74-4.98c-.63-4.08-.9-8.12-1.13-12.23l-.16-2.34A61 61 0 0 1 486 408q.06-2.5 0-5c-.04-4.1.31-7.94 1-12l.44-3.56c.56-3.44.56-3.44 1.56-6.32a33 33 0 0 0 1.5-7.68c.34-3.52 1.04-6.2 2.5-9.44 1.76-4.91 3.29-9.91 4.84-14.89l1.98-6.32q.99-3.16 1.92-6.33c2.19-7.21 5.81-13.78 9.26-20.46l2-4 2.31-4.62 1.32-2.66q1.35-2.68 2.74-5.35A73 73 0 0 0 525 285q.96-1.95 2-3.88c3.57-6.93 5.3-15.35 4-23.12-2.5-3.17-6.09-5.28-9.36-7.6L520 249v-2l-1.76-.84c-8.63-4.47-15.05-11.42-19.24-20.16l-1.5-2.38c-6-10.5-5.8-23.64-5.73-35.39v-4.08q0-5.6.03-11.17l.03-7.1q.03-13.25.11-26.5.07-13.33.1-26.67.05-17.09.15-34.16.06-9.47.08-18.93.03-9 .1-18.01l.02-6.7q0-4.61.06-9.23l-.01-2.72c.09-5.5.98-8.55 4.56-12.96l1.69-2.56C505.81-.07 512.99-.7 523 0" fill="#E6E8E7"/><path d="M673 495c1.54 4.61.03 7.7-2 12-7.07 11.65-17.54 20.44-30 26h-2l.18 2.01a644 644 0 0 1 2.14 56.58q-.01 4.54.02 9.08c.25 41.99.25 41.99-4.34 60.33h-22a404 404 0 0 1-4-49l-.03-1.98c-.42-25.73.59-51.33 2.03-77.02l-2.47-1.21-6.48-3.2c-10.93-5.71-19.77-15.45-25.05-26.59-.19-3.34-.19-3.34 0-6q1.76 1.42 3.5 2.88l1.97 1.61L586 502v2l1.82.84c2.18 1.16 2.18 1.16 5.06 3.78 3.44 3.04 7.21 5.36 11.18 7.63l1.79 1.03c9.75 5.48 20.48 6.37 31.35 4.03A60 60 0 0 0 645 518l2.47-1.25A85 85 0 0 0 673 495" fill="#000"/><path d="m493 205 1 2h2l.88 3.15c5.84 20.15 16.86 30.6 33.57 42.66A25 25 0 0 1 534 256c1.26 10.92-.57 19.95-5 30l-.96 2.25a306 306 0 0 1-13.04 27c-16.04 29.57-25.2 64.87-25.25 98.44l-.01 2.2c0 11.84.85 23.32 2.9 35 .52 3.03.94 6.07 1.36 9.11-6.53-.9-6.53-.9-9.32-1.51-11.98-2.18-20.09.07-29.93 6.7-5.99 6.12-9.65 13.56-11.75 21.81l-.62 2.38c-7.39 33.44 4.77 71.58 22.62 99.62 11.77 17.5 28.86 36.43 48 46v2l-1.94.66c-7.52 2.76-13.35 5.96-17.5 13.03-2.2 4.96-2.36 9.98-1.56 15.31 2.18 4.36 4.99 5.74 9.51 7.37 5.05 1.28 10.18 1.16 15.37 1.13l3.62-.02c14.81-.29 26.94-4.1 39.88-11.12C563 662 563 662 565 662v8l-1.94.88c-7.7 3.65-14.67 7.52-18.35 15.55-1.57 5.68-1.56 11.71-1.71 17.57l-4-2c-.42-7.56.43-15.25 5.38-21.31L547 678l2.56-2.75A20 20 0 0 1 556 671c-4.19.99-8.25 2.06-12.31 3.5-13.98 4.69-32.85 6.36-46.76.65A24 24 0 0 1 489 667c-1.32-6.32-1.71-12.2 1.79-17.91 4.66-5.55 8.78-9.7 15.21-13.09l-2.25-1.75A60 60 0 0 1 497 628v-2l-1.65-.2c-3.29-1.12-5.44-3.27-7.91-5.61l-1.6-1.5a166 166 0 0 1-24.34-28.66c-7.26-10.8-12.56-22.66-16.5-35.03l-1.56-4.56a84 84 0 0 1-4.19-19.26c-.25-2.18-.25-2.18-.75-4.43-.97-5.37-.68-10.87-.69-16.31l-.03-3.68c-.02-10.35.53-20.38 5.22-29.76l1.31-2.94c3.01-5.46 5.9-10.42 11.69-13.06l2.16-1.44c6.64-4.43 13.83-7.4 21.98-6.26 1.8.51 1.8.51 4.86 1.7q2.5.54 5 1l-.94-3.44a73 73 0 0 1-1.81-11.29 70 70 0 0 0-.74-4.98c-.63-4.08-.9-8.12-1.13-12.23l-.16-2.34A61 61 0 0 1 486 408q.06-2.5 0-5c-.04-4.1.31-7.94 1-12l.44-3.56c.56-3.44.56-3.44 1.56-6.32a33 33 0 0 0 1.5-7.68c.34-3.52 1.04-6.2 2.5-9.44 1.76-4.91 3.29-9.91 4.84-14.89l1.98-6.32q.99-3.16 1.92-6.33c2.19-7.21 5.81-13.78 9.26-20.46l2-4 2.31-4.62 1.32-2.66q1.35-2.68 2.74-5.35A73 73 0 0 0 525 285q.96-1.95 2-3.88c3.57-6.93 5.3-15.35 4-23.12-2.5-3.17-6.09-5.28-9.36-7.6L520 249v-2l-1.76-.84c-8.63-4.47-15.05-11.42-19.24-20.16l-1.5-2.38c-3.41-5.97-3.99-11.89-4.5-18.62" fill="#E4E6E6"/><path d="M693.73 135.7c9.16 5.27 15.43 12.02 18.94 22.25 1.69 10.45.65 19.66-5.3 28.45-5.53 6.93-13.54 12.01-22.37 13.6-10.66.88-19.01-.39-27.31-7.38A158 158 0 0 1 654 189l-2.75-2.75c-5.41-7.82-7.39-15.97-5.93-25.3 2.22-10.39 7.63-17.77 16.34-23.79 9.97-5.7 21.58-6.5 32.07-1.47m-39.25 9.46c-4.4 5.47-5.08 10.95-4.9 17.77 1.23 9.01 6.44 14.93 13.36 20.38 5.54 2.96 12 2.47 18.06 1.7 7.03-2.22 11.25-6.83 15-13l1.13-1.78c2.39-6.13 2.15-15.05-.3-21.14A33 33 0 0 0 687 139l-2.5-1.75c-11.72-4.19-21.87-.9-30.02 7.91" fill="#F0CA53"/><path d="M586 137c7.83 4.51 12.27 10.85 16 19 2.42 9.34 1.23 18.36-3 27-4.78 6.88-10.34 11.65-18 15l-2.88 1.31c-9.1 2.01-18.51 1.12-26.53-3.79-7.8-5.71-13.9-12.8-15.59-22.52-1.09-11.7.5-19.5 7.25-29.25 11.81-11.81 27.72-14.53 42.75-6.75m-40 7c-5.26 7.3-5.72 13.14-5 22 1.74 7.08 7.25 11.87 13 16 6.01 2.93 12.35 3.12 18.73 1.16 7.58-3.4 11.85-8.51 15.15-16.04 1.89-5.88 2.26-11.25-.05-17.06-2.56-4.95-4.95-9.13-9.83-12.06l-2.5-1.75C564.15 132.2 553.71 135 546 144" fill="#EDC74F"/><path d="M740 470h1c-.65 36.44-4.86 71.24-18.9 105.27-1.72 4.28-3.31 8.61-4.91 12.93-1.18 3.19-2.41 6.3-3.76 9.42-2.26 5.33-3.78 10.84-5.43 16.38l-1.26 4.13a221 221 0 0 0-8.21 37.71A51 51 0 0 1 696 665c-3.81-.53-6.24-1.27-9-4-.84-7.87 1.78-16.41 3.69-24l.81-3.28c3.49-13.95 7.48-27.57 12.82-40.93 3.22-8.04 6.03-16.22 8.85-24.4q1.17-3.36 2.39-6.69c3.17-8.71 5.9-17.46 8.35-26.4l.7-2.52.59-2.21a94 94 0 0 1 2.27-6.34 83 83 0 0 0 3.47-12.65l.5-2.36 1.56-7.41 1.55-7.33 1.01-4.76q2.1-9.88 4.44-19.72" fill="#000200"/><path d="M512 471c1.87 3.3 2.6 6.39 3.3 10.11l.7 3.69.37 1.95c3.52 18.6 7.47 37.15 13.84 55q1.47 4.18 2.89 8.38c6.53 19.05 6.53 19.05 10.02 28.25 6.45 16.98 12 34.12 16.88 51.62l.68 2.38c2.58 9.11 5.31 19.08 4.32 28.62-1.62 1.92-1.62 1.92-4 3-3.25.19-3.25.19-6 0l-.3-3.38a165 165 0 0 0-5.16-28.62 300 300 0 0 1-2.09-8.35 192 192 0 0 0-8.98-27.37c-2.49-6.2-4.69-12.5-6.86-18.82-1.31-3.8-2.63-7.58-4.14-11.31-7.55-18.78-12.09-39.07-14.47-59.15l-.39-3.24c-1.06-10.86-.7-21.86-.61-32.76" fill="#000100"/><path d="m797 568 1 2h21v1h-9l-1.12 4.31c-1.83 6.06-4.69 11.25-7.88 16.69l-1.48 2.6a106 106 0 0 1-10.2 14.59C788 611 788 611 788 613c-7.73 1.95-15.05 2.22-23 2l2.18-2.13C778.92 601.1 793.36 584.63 797 568" fill="#010201"/><path d="M693.73 135.7c9.16 5.27 15.43 12.02 18.94 22.25 1.51 9.33.66 17.66-3.67 26.05h-3v-2h2v-6h2q.08-3.8.12-7.63l.06-2.16a30 30 0 0 0-2.18-12.2l-2-6h-2v-2h-2v-2h-2v-2h-2v-2h-6v2l2 1c-3.39 0-4.3-.63-7.06-2.45-6.32-4.13-11.39-4.17-18.94-3.56-6.65 1.7-11.19 6.46-15 12-3.04 6.23-3.25 13.26-1.06 19.83 3.46 7.26 7.57 11.96 15.06 15.17 8.4 1.1 15.68.34 23-4v2h-2v2c-5.35 2.7-10.82 2.41-16.67 2.57-6.13.23-6.13.23-8.33 2.43.37 2.62.37 2.62 1 5h4v2h4v2h14v-2h4v-2l7-1 1-3c3.06-1.19 3.06-1.19 6-2v-2l3 1c-9.65 9.4-18.14 13.42-31.61 13.27-8.99-.72-15.2-4.98-21.39-11.27l-2.75-2.75c-5.41-7.82-7.39-15.97-5.93-25.3 2.22-10.39 7.63-17.77 16.34-23.79 9.97-5.7 21.58-6.5 32.07-1.47" fill="#E0C05D"/><path d="M523 0v2l2.14.21c3.7 1.02 5.76 2.86 8.67 5.35l2.96 2.51L539 12l-2 3-1.72-1.64c-7.08-6.56-12.7-10.08-22.57-9.77-5.99.91-10.02 4.19-13.65 8.91-3.4 4.9-3.21 10.39-3.22 16.16l-.01 2.32-.04 7.66q0 2.76-.03 5.5l-.06 14.93-.08 15.59-.14 29.54-.16 33.63L495 207c-3.23-3.23-3.13-6.11-3.13-10.46l-.01-3.48.01-3.86-.01-4.12.02-13.83v-4.82q.03-14.95.09-29.89l.05-16.55q.04-20.73.17-41.46.05-9.45.08-18.91.03-9 .1-18.01l.02-6.7q0-4.61.06-9.23l-.01-2.72c.09-5.5.98-8.55 4.56-12.96l1.69-2.56C505.81-.07 512.99-.7 523 0" fill="#EDF1EE"/><path d="M632.16 184.64c1.82.9 3.4 1.92 4.84 3.36.4 4.17.45 6.33-1.87 9.88C633 200 633 200 631 201l-2 7c-2 2-2 2-4.93 2.32-3.07-.32-3.07-.32-4.94-1.44-1.6-2.66-1.33-4.84-1.13-7.88l-1.75-.68c-2.92-1.71-4.45-3.45-6.25-6.32 0-3.41.72-4.66 2.94-7.25 4.99-4.23 13.12-3.91 19.22-2.11" fill="#656765"/><path d="M758 19h2c1.18 3.54 1.14 6.74 1.12 10.42v2.31l-.01 7.68v5.5l-.01 14.95-.01 15.62-.02 29.58-.02 33.67L761 208h-3z" fill="#F1F4F3"/><path d="M586 137c7.83 4.51 12.27 10.85 16 19 2.44 9.42 1.06 18.23-3 27a49 49 0 0 1-6 7l-1-4h2v-2h2l2-10h2v-18h-2l-1-5-7-1 .44 10.88.24 6.11.11 2.76C591 172 591 172 592 174l-8 2v2h-2v2h-2v2l-2.44.88C575 184 575 184 574 186h-19l-1-4 2.18.48c7.83 1.45 14.54 1.15 21.59-2.79 6.01-4.55 9.48-11.55 10.55-18.89.54-7.41-1.96-12.89-6.32-18.8-6.06-5.79-11.71-6.21-19.75-6.17-3.77.2-6.73.86-10.25 2.17 7.64-9.33 24.73-5.8 34-1" fill="#D6B761"/><path d="M693.73 135.7c9.16 5.27 15.43 12.02 18.94 22.25 1.51 9.33.66 17.66-3.67 26.05h-3v-2h2v-6h2q.08-3.8.12-7.63l.06-2.16a30 30 0 0 0-2.18-12.2l-2-6h-2v-2h-2v-2h-2v-2h-2v-2h-6v2l2 1c-3.39 0-4.3-.63-7.06-2.45-6.32-4.13-11.39-4.17-18.94-3.56-6.65 1.7-11.19 6.46-15 12-3.19 6.46-2.96 14.4-1 21.25l1 2.75-3-1v-4h-2l.12 2.87C648 174 648 174 646 176c-2.59-9.2-.78-18.67 3.69-26.99 9.58-14.74 27.81-21.1 44.04-13.32" fill="#C4B27A"/><path d="M616 662h20l-.11 5.81-.08 7.63-.07 3.82c-.08 9.4.91 16.85 6.26 24.74-2.72-.6-4.5-1.3-6.15-3.6-4.47-8.48-6.35-18.04-3.85-27.4v-3.19c0-2.81 0-2.81 1-3.81l-14-1 1 5q.06 2.13 0 4.25V678l1 1c.24 7.52.24 7.52-1 10l-.31 3.12c-.8 4.52-2.47 7.91-4.69 11.88l-4-1 .84-1.54 1.1-2.08 1.09-2.04c1.99-4.79 2.09-9.7 2.07-14.83l-.01-3.63-.03-3.76-.01-3.82z" fill="#F4F6F2"/><path d="M743.28.68c6.4 2.64 12.11 6.04 15.22 12.38.51 3.02.36 5.01-.5 7.94-2-3-2-3-3.25-6.38-2.12-5.03-5.76-7.73-10.69-9.94C737.73 3.26 732.6 3.66 727 7c-7.32 5.06-13.69 11.34-20.12 17.45A375 375 0 0 1 693 37l-1.85 1.6-5.28 4.52-1.76 1.51a902 902 0 0 1-11.1 9.37l-2-2c3.06-2.66 6.12-5.32 9.31-7.84a291 291 0 0 0 19.5-17.32q6.9-6.6 14.18-12.84l1.67-1.44 4.52-3.8 2.98-2.53c6.37-5.02 11.97-7.99 20.11-5.55" fill="#D9DBDB"/><path d="m687 661 1.84 1.1a120 120 0 0 0 17.41 8.21l2 .77c7.28 2.68 14.52 3.11 22.19 3.48l2.5.13 6.06.31v1q-5.93.42-11.88.75l-3.35.25c-7.66.4-12.89-.75-19.77-4-2.32-.76-4.64-1.38-7-2l1.57 1.07c9.1 6.44 11.79 11.75 14.05 22.72.45 3.78.05 5.87-1.62 9.21l-3-1 .18-2.75c.29-8.07.06-13.89-5.18-20.25-4.7-5.04-9.74-8.2-16-11z" fill="#E6E9E7"/><path d="m891.06 567.75 3.4.55c17.06 2.85 17.06 2.85 23.8 5.7l2.38 1 2.36 1 2.37.93c9.43 3.85 17.92 8.36 25.63 15.07l-2 2-2.94-2.5c-21.78-16.28-51.69-20.76-78.06-22.5v-1c8.1-2.34 14.84-1.71 23.06-.25" fill="#DBDCDE"/><path d="m493 205 1 2h2l.88 3.15c5.84 20.15 16.86 30.6 33.57 42.66A25 25 0 0 1 534 256c.2 2.61.28 5.08.25 7.69l.02 2.1c-.01 4.76-.78 8.7-2.27 13.21h-1l.06-2.81C531 273 531 273 530 270l1-2q.21-2.46.25-4.94l.08-2.65c-.4-2.94-1.03-3.6-3.33-5.41a264 264 0 0 0-6.36-4.6L520 249v-2l-1.76-.84c-8.63-4.47-15.05-11.42-19.24-20.16l-1.5-2.38c-3.41-5.97-3.99-11.89-4.5-18.62" fill="#DEDFE1"/><path d="M757 364h3l.38 3.5c.35 2.89.86 5.63 1.62 8.44a64 64 0 0 1 1.71 10.77c.29 2.33.79 4.52 1.35 6.79.94 3.92 1.08 7.53.91 11.55C766 407 766 407 767 410q.14 3.5.12 7l.01 3.75C767 424 767 424 766 427l.12 3.06L766 433l-3 2-.01-3.15c-.12-20.62-.77-40.28-5.55-60.42A34 34 0 0 1 757 364" fill="#ECEEEC"/><path d="M757 203h1v5h2c-1.14 10.87-6.61 22.73-15 30h-2l-.78 1.79c-3.82 6.92-12.63 12.18-19.22 16.21h-2l-2 14h-1c-1.52-12.04-1.52-12.04 1.91-16.46A89 89 0 0 1 728 248q2.4-1.81 4.75-3.69c4.12-3.21 4.12-3.21 5.93-4.58 11.76-9.16 15.78-22.61 18.32-36.73" fill="#E7EAE5"/><path d="M823 674h2l.08 2.38c.36 6.64.66 11.4 4.92 16.62 9.87 7.27 20.73 7.36 32.5 7.62l4.23.12q5.13.14 10.27.26l-2 3c-2.99.37-2.99.37-6.8.36h-2.04l-4.28-.02q-3.26-.03-6.52-.02c-11.54-.04-11.54-.04-16.36-2.32l-2.56-1-2.44-1-2.19-.88c-2.27-1.41-2.68-2.72-3.81-5.12l-1.98-1.72c-2.59-2.92-2.83-5.01-3.33-8.84l-.49-3.44c-.2-3-.2-3 .8-6" fill="#F0F2F1"/><path d="M860 610c20.01-.61 43.2-.24 59 14 2.07 3.1 2.29 3.95 2.31 7.5l.05 2.34c-.44 2.63-1.34 3.5-3.36 5.16l.18-2.01c.37-7.23.37-7.23-2.24-10.87-5.05-3.65-9.92-6.33-15.94-8.12l-2.88-1.06c-3.73-1.12-7.24-1.5-11.12-1.94l-1.95-.5a46 46 0 0 0-6.8-1l-2.65-.25-4.89-.46c-3.68-.4-6.47-1.03-9.71-2.79" fill="#E5E8E8"/><path d="M694 147c3.51 3.36 4.19 5.44 4.39 10.36.17 8.34-.75 14.06-6.39 20.64-5.16 5.03-10.61 7.44-17.81 7.5-6.56-.11-10.95-1.62-16.19-5.5v-3l2-1v2h2v2h2v2q4.32-.13 8.62-.31l2.45-.07c5-.22 8.61-.87 12.93-3.62 2.45-3.21 3.43-6.03 4-10h3l1-16h-2z" fill="#2B230D"/><path d="m645 152 2 2c-.02 1.85-.02 1.85-.38 4.06-1.45 11.24-.36 20.25 6.63 29.63q1.34 1.67 2.75 3.31c-2.08.55-3.84 1-6 1l-.8-2.12-1.08-2.76-1.05-2.74C646 182 646 182 644 180v-4l-4 1q-.12-4.18-.19-8.38l-.07-2.4A72 72 0 0 1 640 160l3-2c1.19-3.12 1.19-3.12 2-6" fill="#161609"/><path d="M950 593c4.93 1.23 7.22 2.72 10 7v2l1.88.75c2.58 1.52 2.9 2.54 4.12 5.25l1.22 2.66c4.29 9.92 8.37 21.58 4.78 32.34l-1 4h-2l.14-3.92c.47-18.65-3.26-32.27-16.25-46.01C951 595 951 595 950 593" fill="#E3E4E5"/><path d="m828.27 564.86 2.35.01 2.46.01a1298 1298 0 0 1 27.6.54l6.01.17 3.54.1C873 566 873 566 875 568l-19.47.43-6.59.14c-13.65.31-27.29.5-40.94.43v-1l3.03-.4 3.91-.54 3.9-.53c3.55-.6 5.63-1.66 9.43-1.67" fill="#F0F0F2"/><path d="M538 13c3.62 1.34 5.31 3.54 7.67 6.5 2.07 2.34 4.73 3.78 7.33 5.5 9.15 7.73 9.15 7.73 12 12l2.31 1.31C570 40 570 40 572.44 42.94 575 46 575 46 578.31 48.12L581 50v4a712 712 0 0 1-17-15c-9.43-8.51-9.43-8.51-14.12-12.62l-1.92-1.68q-2.1-1.81-4.23-3.58l-2.23-1.87-2.03-1.67C538 16 538 16 538 13" fill="#E3E6E3"/><path d="M589 152h1l.08 1.8a1116 1116 0 0 0 .48 10.91l.23 5.23C591 172 591 172 592 174l-8 2v2h-2v2h-2v2l-2.44.88C575 184 575 184 574 186h-19l-1-4 2.18.48c7.83 1.45 14.54 1.15 21.59-2.79 5.33-4.04 8.8-10.21 10.23-16.69q.63-5.49 1-11" fill="#E1C566"/><path d="M691 135c10.72 4.99 15.68 10.34 21 21 2.96 8.52 1.57 18.32-2.12 26.3L709 184h-3v-2h2v-6h2l.12-7.62.06-2.17c.04-4.49-.51-7.98-2.18-12.21l-2-6h-2v-2h-2v-2h-2v-2h-2v-2l-7 1c-1-3-1-3 0-6" fill="#DDC273"/><path d="m704 186 3 1c-9.65 9.4-18.13 13.4-31.61 13.28-7.84-.65-13.76-3.94-19.39-9.28 3 0 3 0 6 2q2.99.59 6 1v2h4v2h14v-2h4v-2l7-1 1-3c3.06-1.19 3.06-1.19 6-2z" fill="#D2BE6A"/><path d="m632 664 4 1-.05 2.15-.14 9.79-.07 3.38c-.08 8.96 1.17 16.17 6.26 23.68-2.72-.6-4.5-1.3-6.15-3.6-4.47-8.48-6.35-18.04-3.85-27.4q.06-3 0-6z" fill="#E8EAEB"/><path d="m550 138 2 1c-1.38 1.5-1.38 1.5-3 3h-2q-1.03 1.99-2 4l-1.56 2.81c-2.56 5.88-2.2 12.87-2.44 19.19l-2-2-1 11c-3.4-6.79-3.3-15.78-1.05-23.06 3.06-6.33 7.14-12 13.05-15.94" fill="#DBC679"/><path d="M868 609v1l-12.81 1.28-4.34.44-6.29.62-3.81.38A90 90 0 0 1 821 612l-2.06-.29L814 611v-1c17.98-1.34 35.98-1.1 54-1" fill="#DADCDD"/><path d="M648 168h2l.31 1.94.69 2.06 3 1c1.59 2.22 2.72 4.58 4 7h-2l-2 6h2l-1 4c-7.11-7.76-7.11-7.76-8-12 .15-3.36.52-6.67 1-10" fill="#EBCB66"/><path d="M582 142c5.01 5.88 7.62 10.57 7.35 18.35-1.06 8.09-4.81 13.86-10.35 19.65l-2-2 1-2h2v-2h2l.38-2.06c.62-2.94.62-2.94 1.68-6A36.6 36.6 0 0 0 584 146h-4v-2h2z" fill="#1F1B0A"/><path d="M489 431h1l.26 1.91 1.18 8.65.41 3q1.05 7.73 2.15 15.44l-3-.43q-5.97-.85-11.94-1.63l-2.07-.28L472 457v-1q3.09-.3 6.19-.56l3.48-.32c3.02-.11 5.42.14 8.33.88l-.94-3.44A64 64 0 0 1 487 439l1-1q.55-3.5 1-7" fill="#D6D8D7"/><path d="m556 671 2 2-1.79 1.21c-5.71 4.11-10.06 7.94-12.21 14.79-.67 5.01-.93 9.94-1 15l-4-2c-.42-7.56.43-15.25 5.38-21.31L547 678l2.56-2.75A20 20 0 0 1 556 671" fill="#DADADC"/><path d="m858.44 652.25 3.95.2q4.8.24 9.6.55v1l-2.14.03q-4.88.09-9.8.22l-3.37.04c-7.11.21-12.45 1.26-18.68 4.71l-3.25 1.69c-3.8 3.18-5.61 6.91-7.75 11.31l-2 4c-1.03-2.55-1.3-4.29-.23-6.87 3.14-5.37 7.2-9.48 12.23-13.13l2.86-2.22c5.65-3.16 12.35-1.93 18.58-1.53" fill="#E0E1E1"/><path d="M762 429h1c2.01 9.97 2.03 17.29-1 27l3 1 2 2-9 2z" fill="#D5D8D6"/><path d="M760 404h1q.3 6.63.54 13.28l.18 4.49c.46 10.34.01 20.01-1.72 30.23l-3-1q1.47-23.5 3-47" fill="#1D201D"/><path d="M692 140h6v2h2v2h2v2h2c-2 4-2 4-3.03 5.84-1.07 2.38-1.37 4.32-1.59 6.91l-.23 2.42L699 163h-1l-.08-2.16c-.38-6.52-1.42-10.38-4.92-15.84-.75-2.94-.75-2.94-1-5" fill="#EBC050"/><path d="M734 0c6.91-.99 12.45 1.6 18.06 5.39 3.87 3.06 6.08 5.57 6.94 10.61-.38 2.88-.38 2.88-1 5-2-3-2-3-3.25-6.38-2.09-4.97-5.67-7.7-10.56-9.87A83 83 0 0 0 732 3z" fill="#E2E3E3"/><path d="M538 163c5 5 5 5 6.69 8.25 2.31 4.19 5.55 6.87 9.31 9.75-3 1-3 1-5.12.31-1.88-1.31-1.88-1.31-2.63-3.43L546 176h-2v-2l-3 1 1 8-2 1c-2.71-3.98-2.22-8.14-2.12-12.75l.02-2.4z" fill="#E2C668"/><path d="M541 184h3v2h2l1 3 3 1v2h2v2h6v2c4.05 1.11 8.07 1.34 12.25 1.56l2.26.13 5.49.31c-5.04 3.36-10.8 2.52-16.63 1.57-8.46-2.14-15.47-7.33-20.37-14.57z" fill="#CCB66B"/><path d="M489 398h1l1 9h1a1731 1731 0 0 1 .09 13.1l.01 2.82.01 2.58A41 41 0 0 1 491 433c-2-2-2-2-2.23-5.26q0-2.08.03-4.15l.01-2.22q.02-3.5.07-6.99l.02-4.75q.03-5.8.1-11.63" fill="#232625"/><path d="M823 674h2l.08 2.38c.36 6.64.66 11.4 4.92 16.62a63 63 0 0 0 9 5l-1 2c-2.75.38-2.75.38-6 0-2.12-2.75-2.12-2.75-4-6l-2.04-1.79c-2.55-2.87-2.78-5-3.27-8.77l-.49-3.44c-.2-3-.2-3 .8-6" fill="#E2E4E2"/><path d="m674.5 191.9 3.06.04 3.06.02 2.38.04v4h3v2h-14l-1-5c1-1 1-1 3.5-1.1" fill="#ECC847"/><path d="M565 662v8c-2.91 1.26-4.8 2-8 2v-2h-3v-3l4.38-2.5 2.46-1.41C563 662 563 662 565 662" fill="#F0F1F2"/><path d="m884 650 1 2c-4.07.98-7.87 1.12-12.05 1.1l-2-.01q-3.13 0-6.26-.03l-4.27-.01L850 653c3.4-2.27 4.8-2.29 8.8-2.41l3.46-.12 3.62-.09 3.58-.12c4.85-.16 9.69-.28 14.54-.26" fill="#EEEFF2"/><path d="m646 157 2 4 2-2 .4 2.05.54 2.7.52 2.67q.69 3.31 1.54 6.58l-3-1v-4h-2l.12 2.88C648 174 648 174 646 176c-1.78-6.25-1.3-12.68 0-19" fill="#CAB66E"/><path d="M969 621h2c1.94 7.18 3.41 14.78 1 22l-1 4h-2z" fill="#EEE"/><path d="M553 197c2.81.46 5.6.91 8.38 1.52 7.41 1.35 14.46.64 21.62-1.52l1 3h-7v2h-19v-2l-5-2z" fill="#1B1107"/><path d="M504 638c-1.1 3.29-1.66 3.71-4.31 5.69-6.46 5.37-8.28 12.28-9.69 20.31l-2-1c-.51-6.32-.19-9.93 4-15l1.46-1.82C500.19 638 500.19 638 504 638" fill="#EBECEE"/><path d="M814.81 610.94h2.4q2.88.04 5.8.06l-1 3-2.53-.03-3.29-.03-3.27-.04c-2.92.1-2.92.1-5.92 1.1q-3.51-.41-7-1l1-2c4.5-1.38 9.16-1.11 13.81-1.06" fill="#E9EAEB"/><path d="M706 146c2.47 1.15 4.05 2.05 6 4v4l3 1 .12 8.31.06 2.38.02 2.3.03 2.11C715 172 715 172 713 175l-.08-2.93c-.35-8.13-1.2-14.69-4.92-22.07l-1.13-2.27z" fill="#281B09"/><path d="m506.19 3.38 1.8.62-2.11 1.5c-4.97 4.32-8.95 8.85-9.88 15.5-1.56 2.32-1.56 2.32-3 4-.5-6.31-.16-9.91 4-15q1.01-1.36 2.07-2.74c3.82-4.45 3.82-4.45 7.12-3.88" fill="#E4E7E5"/><path d="M487 407h1l1 31c-3-3-3-3-3.26-4.88l.14-2.12a71 71 0 0 0-.44-10.62c-.44-4.39-.38-8.08.56-12.38z" fill="#EFF1F0"/><path d="m783 457 1 2h-14v2c-3.78 1.84-5.95 2.16-10 1v-2c7.78-3.22 14.64-3.32 23-3" fill="#191B1B"/><path d="M657 193c2.42.95 4.81 1.91 7.15 3.04 7.54 3.47 14.65 3.74 22.85 3.96-5.55 3.7-12.32 2.26-18.62 1q-2.2-.48-4.38-1v-2h-4v-2l-4-1z" fill="#191206"/><path d="M709 182c.61 1.8.61 1.8 1 4-1.81 3.25-1.81 3.25-4 6h-2v2h-2l-2 4h-8q2.94-2.25 5.96-4.36c4.8-3.38 7.88-6.7 11.04-11.64" fill="#261706"/><path d="M601 162h1c.57 10.21-.19 17.52-6.75 25.56L593 190l-1-4h2v-2h2l2-10h2z" fill="#E5C970"/><path d="M896 569v2c-9.45.3-18.64-.86-28-2v-1c9.48-3.31 18.48-.93 28 1" fill="#E0E1E3"/><path d="M757 203h1v5h2c-.45 6.69-3.07 12.03-6 18h-3l1.31-3.62c2.13-6.33 3.38-12.85 4.69-19.38" fill="#E2E4E5"/><path d="M646 176a67 67 0 0 1 6.02 9.32A48 48 0 0 0 656 191c-2.08.55-3.84 1-6 1l-.8-2.12-1.08-2.76-1.05-2.74C646 182 646 182 644 180v-3z" fill="#211C0D"/><path d="m550 138 2 1c-1.38 1.5-1.38 1.5-3 3h-2q-1.03 1.99-2 4l-1.56 3.19c-1.79 4.15-2.15 8.34-2.44 12.81h-1l-.38-2.44L539 157l-2-1c1.72-7.45 6.79-13.69 13-18" fill="#B6B099"/><path d="m530 273 2 1c-1.33 7.26-3.23 14.59-7 21-2.16.84-2.16.84-4 1 2.25-5.73 4.58-11.4 7.17-16.99A36 36 0 0 0 530 273" fill="#EAEBEC"/><path d="M579 134h11v2h2v4h2v2h2l-1 4-2-2.19c-3.26-3.27-7.06-5.46-11-7.81z" fill="#2A1E0C"/><path d="m704 186 3 1c-11.55 10.81-11.55 10.81-18.38 11.19L686 198v-2h4v-2l7-1 1-3c3.06-1.19 3.06-1.19 6-2z" fill="#E7CC6B"/><path d="m877 701-2 3c-1.97.34-1.97.34-4.35.29l-2.58-.03-2.69-.07-2.72-.04L856 704v-2c7.02-1.1 13.91-1.1 21-1" fill="#F8F9F8"/><path d="m493 205 1 2h2q1.3 3.9 2.56 7.81l.75 2.24c1.8 5.61 1.8 5.61.69 8.95-5.68-6.44-6.38-12.73-7-21" fill="#D9DCDC"/><path d="m750 226 3 1c-1.4 4.77-4.15 7.96-8 11h-2l-2 4h-2c0-3 0-3 2.19-5.31L744 234c4.57-5.14 4.57-5.14 6-8" fill="#E7EAE8"/><path d="m730 1 4 3-2.88 1c-4.56 1.93-8.1 5.01-11.89 8.16C717 15 717 15 714 17v-3a80 80 0 0 1 5.75-5l1.63-1.33Q725.62 4.24 730 1" fill="#DFE1E0"/><path d="M761 657h1a42 42 0 0 1 2 10c-2 2.88-2 2.88-5 5l-2.94 2.38c-3.61 1.91-5.2 1.72-9.06.62v-1l5.96-1.46c4.87-1.28 4.87-1.28 6.19-3.27.96-2.56 1.26-4.8 1.47-7.52l.23-2.7z" fill="#DCDFDE"/><path d="m568.25 132.81 3.7.02C575 133 575 133 577 134v3l-2.1-.49c-7.64-1.35-15.6-1.23-22.9 1.5 4.17-5.1 10.07-5.27 16.25-5.2" fill="#B8AD8D"/><path d="m933 685 2 1c-4.52 5-10.29 7.54-17 8l-2-2 2.7-1.02 3.55-1.36 3.52-1.33C929 687 929 687 931.3 685.77z" fill="#E0E2E2"/><path d="M589 152h1l.08 1.8a1116 1116 0 0 0 .48 10.91l.12 2.72.11 2.51C591 172 591 172 592 174l-5 1-.06-4.31-.04-2.43c.1-2.26.1-2.26 1.1-5.26q.33-2.84.56-5.69l.26-3.01z" fill="#E0C56D"/><path d="M656 142c0 3 0 3-1.81 5.44-3.27 4.56-4.04 10.16-5.19 15.56-2-2-2-2-2.19-3.88.63-7.5 3.98-11.91 9.19-17.12" fill="#D1C99C"/><path d="M777.25 453.94a370 370 0 0 1 6.75.06v3l-19 1 1-3c3.54-1.5 7.47-1.1 11.25-1.06" fill="#ECEFEF"/><path d="m616 689 1 4h2c-.51 4.39-1.52 7.34-4 11l-4-1 .84-1.54c2.19-4.17 3.68-7.7 4.16-12.46" fill="#E1E4E2"/><path d="M488 395h1v32h-1l-.08-1.69-.36-7.75-.12-2.66c-.24-5.06-.65-10-1.44-15.01 0-1.89 0-1.89 2-4.89" fill="#D5D7D6"/><path d="M582 142c5.96 6.99 7.48 11.98 7 21l-2 1-.4-2.92-.54-3.83-.52-3.8A63 63 0 0 0 584 146h-4v-2h2z" fill="#34260B"/><path d="m619 678 2 1c.12 7.75.12 7.75-1 10v4h-3v-14z" fill="#EBEFEC"/><path d="M713 673q2.9.09 5.79.34l3.54.28 3.73.32 3.75.3 9.19.76v1q-6.18.37-12.38.69l-3.56.22-3.4.16-3.14.18L714 677l-2-3z" fill="#D5D8D5"/><path d="M759 654h2q.16 3.13.25 6.25l.14 3.52c-.46 3.81-1.44 4.89-4.39 7.23l-2-2 2-3a99 99 0 0 0 1.12-6.19l.51-3.29z" fill="#232625"/><path d="m850.42 652.02 3.8.16 3.97.2 4 .16 9.8.46v1l-2.2.07-9.91.36-3.46.12-3.36.13-3.08.11A80 80 0 0 0 841 656v-2c3.64-2.43 5.12-2.17 9.42-1.98" fill="#C2C5C5"/><path d="M467 458v2h-3v3c-4.28 2.57-8.17 4.59-13 6 3.1-4.79 9.93-11 16-11" fill="#202323"/><path d="M764 408h1q.37 6.18.69 12.38l.22 3.56.16 3.4.18 3.14L766 433l-3 2c-.17-9.04.37-17.99 1-27" fill="#F5F8F5"/><path d="M691 135c5.38 2.5 9.59 5.03 14 9l-1 2h-2v-2h-2v-2h-2v-2l-7 1c-1-3-1-3 0-6" fill="#D4B96A"/><path d="m786 615-1 2c-5.67 1.83-11.33.2-17-1v-1c6.25-.83 11.77-1.04 18 0" fill="#DFE0DE"/><path d="M812 488h1a699 699 0 0 1 1.66 7.62C815 498 815 498 814 500q-.34 3.3-.56 6.62l-.26 3.61L813 513h-1q-.3-5.68-.56-11.38l-.17-3.27-.15-3.12-.14-2.89C811 490 811 490 812 488" fill="#D8DAD7"/><path d="M494 458v2l-3-.43q-5.97-.85-11.94-1.63l-2.07-.28L472 457v-1c7.63-1.25 14.88-1.45 22 2" fill="#D0D3D1"/><path d="M541 166c2 2 2 2 3.69 5.25 2.31 4.19 5.55 6.87 9.31 9.75-3 1-3 1-5.12.31-1.88-1.31-1.88-1.31-2.63-3.43L546 176h-2v-2l-4-1 1-3z" fill="#D7BE70"/><path d="M762 429h1q.54 2.87 1.06 5.75l.6 3.23c.31 2.77.24 4.43-.66 7.02h-2l-2 3z" fill="#D2D5D2"/><path d="m577 134 5 1-2 1c3.75 4.88 3.75 4.88 6 6 1.79 3.49 2.12 5.29 1 9l-1.14-2.05c-5.08-8.86-5.08-8.86-9.86-11.95z" fill="#CFB971"/><path d="M760 651h3c2 4.12 2.18 7.45 2 12h-3z" fill="#F4F5F4"/><path d="M502 339h2l-.59 1.94A996 996 0 0 0 499 356l-2-1c.51-5.97 2.39-10.64 5-16" fill="#DCDEDF"/><path d="M532 260h2c.2 6.71.31 12.65-2 19h-1l.06-2.81C531 273 531 273 530 270c.34-2.48.34-2.48.94-5.19l.59-2.73z" fill="#DADCDD"/><path d="m544 146 2 3-2 3c-.2 2.04-.2 2.04-.12 4.19L544 160h-2v6h-1c-.55-13.63-.55-13.63 3-20" fill="#281F0D"/><path d="M506 327h2c-.54 4.56-1.79 7.97-4 12h-3q.67-2.16 1.38-4.31l.77-2.43C504 330 504 330 506 327" fill="#ECECEE"/><path d="M586 169c.93 3.01 1.04 3.87 0 7h-2v2h-2v2h-2v2l-6 2-2-2 3.62-1.44c5.22-2.55 7.6-6.63 10.38-11.56" fill="#CDBB67"/><path d="m504 6 3 2a180 180 0 0 1-2.75 3.44l-1.55 1.93c-1.9 1.82-3.14 2.23-5.7 2.63 1.39-4.43 3.61-6.87 7-10" fill="#1F231E"/><path d="M809 540h3a145 145 0 0 1-4 14l-2-1c.48-4.71.97-8.67 3-13" fill="#EBEEEC"/><path d="m540 184 2 2.12c2.88 2.91 6.1 5.26 9.43 7.65L553 195v1c-2.25.25-2.25.25-5 0-2.31-1.88-2.31-1.88-4-4v-2h-5z" fill="#231709"/><path d="M555 180h6v2h11c-2 2-2 2-4.5 2.23l-2.94-.04-2.93-.02C559 184 559 184 556 183z" fill="#392B13"/><path d="M580 136h2v2l2.81.75c3.35 1.31 4.38 2.23 6.19 5.25l-4 3-.25-2.38L586 142c-1.94-1.06-1.94-1.06-4-2-1.25-2.12-1.25-2.12-2-4" fill="#E0C25B"/><path d="M492 440h2l1 12-3 1-.56-5.38-.32-3.02c-.12-2.6-.12-2.6.88-4.6" fill="#232624"/><path d="M697 168h1v10h-2v-2h-2v4l-4-1 1.28-1.9 1.66-2.48 1.65-2.46C696 170 696 170 697 168" fill="#DDC469"/><path d="M688 132h4v2h6v3h2l-1 3-11-6z" fill="#241B06"/><path d="M823 674h2l1 16h-2l-1.06-6.31-.6-3.55C822 677 822 677 823 674" fill="#EBECED"/><path d="M694 147c2.73 2.61 3.96 3.92 4.1 7.82l-.04 3.3-.02 3.33L698 164l-2-1v-11h-2z" fill="#251B0A"/><path d="m886.04 695.8 3.59.07 3.6.05 2.77.08v2c-5.38.84-9.65 1-15 0 2-2 2-2 5.04-2.2" fill="#242622"/><path d="M490 658h1l.26 2.01c.96 6.01 1.92 9.19 6.74 12.99-4 0-4 0-6.81-2.44-2.28-2.89-2.41-4.81-2-8.44q.35-2.07.81-4.12" fill="#D8DADB"/><path d="M491 655c3 2 3 2 3.51 4.06l.18 2.38.2 2.37q.12 2.6.11 5.19l-3-1c-1.32-2.64-1.1-4.68-1.06-7.62l.02-3.04z" fill="#262829"/><path d="M525 250c3.91 1.3 6.42 2.75 9 6v4h-2a167 167 0 0 1-3-4 262 262 0 0 0-5-5z" fill="#E8E9EA"/><path d="M962 660c.75 1.62.75 1.62 1 4-2.02 3.61-3.54 5.69-7 8l-3-1 1.71-1.9 2.23-2.48 2.21-2.46C961 662 961 662 962 660" fill="#D8DBD8"/><path d="M810 528a22 22 0 0 1 3 9l-2 3h-2l-1 3c.96-10.56.96-10.56 2-15" fill="#CDD0CD"/><path d="m900.75 569.88 2.42.04q.9.05 1.83.08l2 4c-5.03-.52-10.02-1.1-15-2 3.06-1.78 5.22-2.23 8.75-2.12" fill="#CACBCB"/><path d="M601 153h3v21h-1z" fill="#1B0F03"/><path d="M899 649v1c-9.41 2.3-9.41 2.3-14 2l-1-2c5.32-2.32 9.44-1.91 15-1" fill="#E2E1E5"/><path d="M647 174c6 9 6 9 6 12h3l-1 4c-4.69-5.11-8-8.77-8-16" fill="#E2CA7F"/><path d="M635 690c2.15 3.22 3.5 6.44 5 10q.97 2.01 2 4c-2.38-.62-2.38-.62-5-2-1.93-4.05-2.21-7.56-2-12" fill="#D8DADB"/><path d="m710 691 2 1c.48 1.96.48 1.96.75 4.38l.3 2.39C713 701 713 701 711 704l-3-1 1-2q.34-2.55.56-5.12l.26-2.76z" fill="#EFF1F0"/><path d="M543 683h1l-.44 3.88q-.83 7.55-1.56 15.12h-1l-.12-6.69-.08-3.76c.19-3.36.74-5.55 2.2-8.55" fill="#F0EFF3"/><path d="M964 610c3 1 3 1 4.17 3.07l1.02 2.49 1.04 2.51.77 1.93-3 3-2-5.38-1.12-3.02C964 612 964 612 964 610" fill="#DEE0DC"/><path d="M813 611h10l-1 3h-9z" fill="#F2F3F4"/><path d="M808 475c2.45 1.87 2.97 2.83 3.51 5.92l.18 3.27.2 3.29.11 2.52c-3.42-3.42-3.95-7.72-4.12-12.44z" fill="#EEF1ED"/><path d="M651 155h1l.11 2.7.2 3.55.18 3.52c.54 3.39 1.36 4.66 3.51 7.23-.31 2.25-.31 2.25-1 4-5.03-6.6-4.4-12.95-4-21" fill="#211603"/><path d="M737.38 2.75c3.25.22 4.92.53 7.62 2.25-3 2-3 2-5.49 1.76l-2.7-.63-2.72-.62-2.1-.51c2-2 2-2 5.38-2.25" fill="#1C1F1C"/><path d="M757 364h3l1 10-2 1c-1.42-3.82-2.24-6.91-2-11" fill="#F0F3EF"/><path d="M734 0c3.44-.38 3.44-.38 7 0l3 3h-12z" fill="#F3F7F4"/><path d="M537 675c-3.97 2.64-7.15 3.28-11.88 2.56L523 677l1-2a28.4 28.4 0 0 1 13 0" fill="#EBEDED"/><path d="M756 642c5.57 5.14 5.57 5.14 6 9h-2l-1 2c-1.5-3.37-2-5.2-2-9l-2-1z" fill="#E8E8EB"/><path d="M860 610h14v2c-5.34 1.34-8.84.51-14-1z" fill="#F0F2F1"/><path d="M904 572q2.13-.08 4.25-.12l2.39-.08c2.57.22 4.15.91 6.36 2.2v2c-4.71-.48-8.67-.97-13-3z" fill="#EAECEC"/><path d="m707 684 3 1c1.3 5.5.71 10.47 0 16h-1l-.18-2.45-.26-3.24-.24-3.2c-.28-2.76-.72-5.4-1.32-8.11" fill="#CBCECC"/><path d="M521 296h3c-1.16 3.91-2.36 6.87-5 10-1.03-3.28-1.17-4.61.25-7.81z" fill="#E0E0E2"/><path d="m656 190 1.5.88c3.42 1.53 6.85 2.27 10.5 3.12l-1 3c-5.04-.44-7.41-2.66-11-6z" fill="#DFC36A"/><path d="m704 186 3 1-9 8-1-2 1-3c3.06-1.19 3.06-1.19 6-2z" fill="#DCC16A"/><path d="M573 136c3.94 1.31 6.23 2.92 9 6l-2 1-2-1v-2h-6z" fill="#2A1F0C"/><path d="M559 135h13l-2 1v2c-5.96.29-5.96.29-8 0z" fill="#23190C"/><path d="M918 574c5.75 2.62 5.75 2.62 8 6l-11-3z" fill="#D4D4D6"/><path d="m477 453 3 3-12 1-1-2q2.4-.62 4.81-1.19l2.71-.67z" fill="#EFF1F3"/><path d="m490 447 2 1c.41 2.29.41 2.29.62 5.06l.23 2.79.15 2.15-3-1z" fill="#E0E4DE"/><path d="M762 442c1.32 2.18 2.07 3.43 1.75 6a49 49 0 0 1-2.75 6h-1l.44-4.31.24-2.43C761 445 761 445 762 442" fill="#F1F3F1"/><path d="m689 37 2 1c-7.11 7.67-7.11 7.67-12 9 6.15-7.48 6.15-7.48 10-10" fill="#E5E6E7"/><path d="M466 591c2.12 2.62 4.13 5.2 6 8-4 0-4 0-5.81-1.75-1.19-2.25-1.19-2.25-.88-4.5z" fill="#DFE3DF"/><path d="M753 355c2.12 3.53 2.53 6.94 3 11l-3-1c-1.12-6.62-1.12-6.62 0-10" fill="#292D28"/><path d="m719 255 2 1-2 14h-1q-.04-3.46-.06-6.94l-.04-3.9c.1-3.16.1-3.16 1.1-4.16" fill="#D9DBDA"/><path d="m586 192 4 1-4.31 2.5-2.43 1.41C581 198 581 198 578 198v-2h4v-2h4z" fill="#D7C172"/><path d="m543 165 3 1v6l2 1-3 1c-1.56-2.81-1.56-2.81-3-6z" fill="#2C2009"/><path d="M960 602c2.54 1.01 3.77 1.61 5.19 4l.81 2 1 2h-4c-2.17-2.87-3-4.36-3-8" fill="#E8EAEB"/><path d="M770 460a26 26 0 0 1-9 3l-1-3c3.28-1.64 6.43-.52 10 0" fill="#202220"/><path d="m693 200-1 2h-8l1-3c3.29-1.47 5.01-.82 8 1" fill="#2B2211"/><path d="m699 193 2 1-1 4h-8c2.3-1.74 4.6-3.4 7-5" fill="#2F210E"/><path d="M539 157h1l1 11-2-2-2 2c-.2-4.22.2-7.17 2-11" fill="#E9CE7B"/><path d="M704 140h2v4h4l-1 4c-2.99-1.1-3.85-1.68-5.25-4.62L703 141z" fill="#1A1205"/><path d="m828 689 1.68 1.28 2.2 1.66 2.17 1.65A19 19 0 0 0 838 696v2a26 26 0 0 1-10-6z" fill="#1D201E"/><path d="M506 672c1.95-.29 1.95-.29 4.12-.19l3.88.19v3h-10z" fill="#313030"/><path d="M811 522c2.3 3.44 2.54 5.94 3 10h-3z" fill="#E3E6E5"/><path d="M682 45c2.06.44 2.06.44 4 1l-2 3h-2v2l-3-1c1.88-3.88 1.88-3.88 3-5" fill="#1F201F"/><path d="M908 691h7l-2 1v2c-2.91.81-4.46 1.22-7.31.06L904 693h4z" fill="#1F2020"/><path d="m497 673 13 2v1q-2.68.04-5.38.06l-3.02.04c-2.6-.1-2.6-.1-4.6-1.1z" fill="#ECECEF"/><path d="M809 518h1l1 10-3-2c-.25-3.56-.25-3.56 0-7z" fill="#1D201F"/><path d="M505 335c2 3 2 3 1.31 6.62L505 345l-3 1z" fill="#252729"/><path d="m738 240 2 3-5 4-3-2z" fill="#E0E3E1"/><path d="M509 237a19 19 0 0 1 7 5l-1 2-7-5z" fill="#E5E6E7"/><path d="M754 217c2 4 2 4 1.12 6.75L754 226h-3z" fill="#D3D5D6"/><path d="M594 145c3.83 3.42 5.72 6.01 7 11h-3l-.88-2.69q-1.43-4.2-3.12-8.31" fill="#DCC577"/><path d="m760 374 2 1c.62 2.56.62 2.56 1 5h-2l-1 4-.56-4.44-.32-2.49L759 375z" fill="#E2E5E1"/><path d="M529 283h2v8l-4-1z" fill="#1E2020"/><path d="m697 149 3 1-1 13h-1z" fill="#C2A04F"/><path d="M650 144h2c-.48 4.31-1.75 6.17-5 9l1-7h2z" fill="#181507"/><path d="M548 23c2.89.4 3.82.79 5.75 3.06L555 28l-3 1a89 89 0 0 1-4-4z" fill="#DDE1DD"/><path d="m542 672-2 4-6-1v-2c2.76-.6 5.16-1 8-1" fill="#DADDDA"/><path d="m751 624 3 1-5 5-3-2c2.31-2.06 2.31-2.06 5-4" fill="#212323"/><path d="M443 542h2l1 7-4-1z" fill="#DADADC"/><path d="M536 173a67 67 0 0 1 4 10l-2 1v-2h-2z" fill="#302411"/><path d="m645 152 2 2c-.02 2.16-.02 2.16-.38 4.62l-.33 2.48-.29 1.9c-2.79-4.18-1.8-6.15-1-11" fill="#22190E"/><path d="M693 144h5v5l-2 1z" fill="#D8B95B"/><path d="M679 137c3.73.5 5.81.87 9 3l-1 2-1-1q-3.5-.55-7-1z" fill="#221404"/><path d="M924 690v3c-2.88.62-2.88.62-6 1l-2-2c5.75-2 5.75-2 8-2" fill="#D0D3D2"/><path d="m697 672 5 2v4l-6-4z" fill="#DADBD6"/><path d="M767 616h6v3h-6z" fill="#F3F5F1"/><path d="m805 551 3 4c-1.38 2-1.38 2-3 4h-2z" fill="#D5D8D9"/><path d="M444 475h1c-.75 7.75-.75 7.75-3 10-1.05-3.35-1.2-4.59.38-7.81z" fill="#E8EBEB"/><path d="M753 207c2 4 2 4 3 7l-2 3-2-1z" fill="#232525"/><path d="m582 173 1 3-5 4-1-2 1-2h2v-2z" fill="#2D250D"/><path d="M538 152h2c1.16 3.47 1.07 6.36 1 10h-1l-.38-2.44L539 157l-2-1z" fill="#C6B282"/><path d="m691 135 4 2-1 3-3 1c-1-3-1-3 0-6" fill="#DDBD62"/><path d="M918 693v2l-7 1-1-2c2.93-.98 4.96-1.08 8-1" fill="#DCDEDE"/><path d="m556 671 2 2-5 3-2-2z" fill="#E1E2DF"/><path d="m920 636 2 3-6 5c.6-3.36 1.85-5.38 4-8" fill="#222425"/><path d="M746 632a139 139 0 0 1-5 5h-2l1-5c3-1 3-1 6 0" fill="#252728"/><path d="m906 574 6 1 1 3-6-1z" fill="#242523"/><path d="m524 295 3 1v4l-4 2-1-2c.94-2.62.94-2.62 2-5" fill="#242426"/><path d="M584 198v2h-9c5-3.33 5-3.33 9-2" fill="#2B1F0A"/><path d="M650 184c2.5 2.31 2.5 2.31 5 5v3c-2.5-1.75-2.5-1.75-5-4z" fill="#2F2310"/></svg>