<svg style="background:transparent" version="1.1" xmlns="http://www.w3.org/2000/svg" viewBox="0 0 1248 704"><path d="M954 126q2.38.42 4.75.81c4.78.9 8.66 2.66 12.93 4.97 2.32 1.22 2.32 1.22 4.68 2.13a78 78 0 0 1 9.64 5.03l1.83 1.05a873 873 0 0 1 7.83 4.55 70 70 0 0 1 6.84 4.96 67 67 0 0 0 7.56 5.31L1012 156v2l1.76.82c8.57 4.53 15.2 13.05 18.24 22.18q.18 2.43.19 4.88l.04 2.55c-.36 4.05-1.29 6.65-4.22 9.52l-2.32 1.74-2.3 1.76c-6.2 4.02-12.15 4.46-19.39 3.55-3.3-1.28-6.07-3.03-9-5l-3.31-1.75c-3.41-1.94-6.45-4.31-9.57-6.69-9.47-7.2-19.59-12.51-31.12-15.56l-3-1.12c-3.45-1.01-6.42-.95-10-.88l-1.89-.49a29 29 0 0 0-7.17-.64l-2.92-.01-3.02.02-3.02-.02-2.92.01h-2.65A28 28 0 0 0 908 174l-2.63.54c-9.78 2.15-18.7 5.71-25.37 13.46l-4.19 4.81-2.04 2.4L872 197h-2l-.81 2.62c-1.54 4.37-3.61 8.32-5.81 12.38-1.41 3.08-1.88 5.67-2.38 9q-.93 2.52-2 5c-1.7 4.37-3.22 8.68-4.5 13.19A36 36 0 0 1 850 249l-.94 2.94c-1.21 3.49-2.95 6.02-5.06 9.06l-1.88 3.31a106 106 0 0 1-13.62 19l-1.37 1.53A48 48 0 0 1 817 293l-6 5q-3.47 2.54-7 5l1.36 2.05c6.9 10.64 12.44 21.46 15.95 33.67.69 2.28.69 2.28 1.81 4.9.99 2.69 1.3 5.28 1.54 8.12.34 2.26.34 2.26 1.34 5.5 1.09 4.1 1.4 7.85 1.56 12.07.32 7.45.32 7.45 1.44 9.69q.14 3.14.13 6.29l.01 3.79-.02 3.98.02 4-.01 3.79v3.5C829 407 829 407 828 408q-.07 3 0 6t0 6l-1 1a93 93 0 0 0 0 5 93 93 0 0 1 0 5l-1 1q0 3.24.03 6.48a82 82 0 0 1-.74 8.99c-.69 6.07-1.33 12.24-1.25 18.36C824 468 824 468 823 469a59 59 0 0 0-.06 4l.02 2.44.04 2.56.06 5 .04 2.25C823 487 823 487 822 488q-.15 4.25-.12 8.5l-.02 2.42c.01 5.95.01 5.95 1.14 7.08q.07 4.91-.04 9.83c-.05 4.2.27 8.03 1.04 12.17 1.01 9.16.89 17.84 0 27l-.72 10.91c-.25 2.77-.7 5.37-1.28 8.09a193 193 0 0 0-.5 4.12C821 582 821 582 820 585a179 179 0 0 0-2.56 15.44c-.33 2.66-.7 5-1.44 7.56l-.94 3.38q-.95 3.27-2.06 6.5a98 98 0 0 0-2.49 9.86c-.71 3.13-1.59 6.19-2.51 9.26l1 1 3.25-.06c3.7.06 5.41.69 8.75 2.06q2.68.6 5.4 1.08l3.17.57 3.37.6a341 341 0 0 1 28.68 6.43c8.94 2.48 16.95 5.54 22.38 13.32-1.9 5.23-3.94 6.82-8.72 9.06a73 73 0 0 1-11.59 3.5l-2.72.64c-25.59 5.66-52.24 6-78.35 5.92h-2.9c-29.76-.07-59.43-1.49-89.15-3.02a1610 1610 0 0 0-83.07-2.29h-2.2c-24.63.01-49.18.5-73.78 2.04l-7.61.44c-65 3.73-129.7 11.58-194.26 19.76-13.2 1.67-26.26 3.27-39.58 2.92A40 40 0 0 0 282 702c-8.83.54-16.61-.03-25.2-2.27-3.24-.84-6.48-1.27-9.8-1.73a40 40 0 0 1-14-6c-1.19-2-1.19-2-2-4a89 89 0 0 0-4-4c1.49-4.73 1.49-4.73 4-6.06l2-.94c1.12-2.06 1.12-2.06 2-4l2-1 1-3-2.34 1.24a495 495 0 0 0-6.25 3.25c-6.68 2.96-12.59 3.89-19.85 3.39l-2.25-.15c-8.61-.72-14.52-3.13-20.31-9.73l-2.69-2.56c-3.31-3.49-4.61-6.18-4.69-11 .28-9.88 4.05-17.26 10.9-24.27 7.24-6.34 12.98-7.45 22.44-7.11 4.56-.09 7.37-1.46 11.04-4.06l2.36-1.66c5.77-4.36 10.5-9.33 15.28-14.75a63 63 0 0 1 6.3-6.03c3.58-3.02 6.76-6.31 9.94-9.75l1.44-1.55A32 32 0 0 0 265 576l2.38-1.88c2.98-2.41 4.56-4.9 6.62-8.12a82 82 0 0 1 5-6h2l.81-1.69c3.67-7.14 3.67-7.14 7.19-8.31l.43-1.74c.8-3.18 2.58-4.96 4.69-7.45l2.45-2.92L299 535q2.01-2.43 4-4.88l1.69-2.05c1.49-2.36 1.93-4.33 2.31-7.07-3-1-3-1-5.38-1.47-8.34-1.68-16.06-4.68-23.62-8.53l-1.81-.82c-5.13-2.39-9.12-5.35-13.31-9.12l-3.51-3.09-1.7-1.51a176 176 0 0 0-4.94-4.11c-16.62-14.3-16.69-41.14-18.29-61.29l-.19-2.71c-.25-2.35-.25-2.35-.76-4-.71-3.41-.59-6.79-.55-10.26l.01-2.3.07-9.75.04-7.13.03-2.22c.01-3.42-.18-6.41-1.09-9.69-1.17-11.15-1.25-22.38-1.3-33.58l-.06-5.62q-.06-4.13-.07-8.26l-.05-2.5c.03-7.44 2.13-13.41 7.1-18.98 4.26-2.6 8.33-4.3 13.38-4.06 6.51 2.41 12.4 6.63 18.25 10.31l5.59 3.49 2.69 1.67q5.96 3.72 12.07 7.15c2.4 1.38 2.4 1.38 4.3 2.76 8.09 5.37 20.47 1.1 29.41-.5 4.76-.83 9.25-.97 14.07-.9q7.27.04 14.56-.17l2.76-.02c6.61-.21 6.61-.21 10.05-3.09L367 328l2.82-1.82c4.96-3.4 8.86-7.81 12.99-12.16 11.62-11.94 11.62-11.94 19.25-12.77 5.08.5 8.69 2.9 11.94 6.75 2.18 4.19 3.63 8.49 5 13l.9 2.83c1.77 5.99 2.76 12 3.63 18.17.39 2.47.9 4.74 1.59 7.12 1.14 5.01 1.05 9.77.88 14.88a187 187 0 0 0 33.81-18.5 133 133 0 0 1 17.31-10.06c3.41-1.66 6.65-3.46 9.88-5.44a341 341 0 0 1 25.81-14.38c7.52-3.7 14.72-7.89 21.87-12.26A48 48 0 0 1 542 300l4-2 5.74-2.87 4.62-2.33c7.74-3.91 15.57-7.6 23.64-10.8l7-3q5.96-2.58 12-5l2.29-.96a120 120 0 0 1 16.24-5.39c2.87-.76 5.66-1.69 8.47-2.65a251 251 0 0 1 18.12-4.56l2.96-.67c12.04-2.72 12.04-2.72 17.04-3.27C668 256 668 256 671 255c8.68-1.22 17.5-1.1 26.25-1.12l3.43-.02 3.21.01h2.91c2.2.13 2.2.13 3.2 1.13l3.69-.06c3.83-.06 6.69.8 10.31 2.06h2.94c3.67 0 6.54.94 10.06 2q2.43.5 4.88.94a90 90 0 0 1 16.28 4.92c3.81 1.51 6.75 2.65 10.84 2.14 2.75-1.68 2.75-1.68 5.56-3.88 3.08-2.38 5.94-4.43 9.44-6.12a81 81 0 0 0 5-5l1.89-2.01c4.6-5.02 8.56-10.18 12.11-15.99l1.34-2.18a82 82 0 0 0 6.69-15.05q1.44-4.05 3.09-8.02a76 76 0 0 0 2.88-8.31 74 74 0 0 1 4.06-10.37 73 73 0 0 0 1.94-4.76c1.31-3.03 3.17-5.56 5-8.31q.95-1.96 1.88-3.94c2.04-4.2 4.66-7.9 8.12-11.06h2l.31-1.8c.81-2.58 1.78-3.6 3.74-5.43l1.87-1.74 1.96-1.78 1.93-1.82c4.81-4.43 4.81-4.43 8.19-4.43l.69-1.88c1.72-2.79 3.25-3.05 6.31-4.12l5-3c23.92-12.31 58.04-18.65 84-10" fill="#111411"/><path d="M954 126q2.38.42 4.75.81c4.78.9 8.66 2.66 12.93 4.97 2.32 1.22 2.32 1.22 4.68 2.13a78 78 0 0 1 9.64 5.03l1.83 1.05a873 873 0 0 1 7.83 4.55 70 70 0 0 1 6.84 4.96 67 67 0 0 0 7.56 5.31L1012 156v2l1.76.82c8.57 4.53 15.2 13.05 18.24 22.18q.18 2.43.19 4.88l.04 2.55c-.36 4.05-1.29 6.65-4.22 9.52l-2.32 1.74-2.3 1.76c-6.2 4.02-12.15 4.46-19.39 3.55-3.3-1.28-6.07-3.03-9-5l-3.31-1.75c-3.41-1.94-6.45-4.31-9.57-6.69-9.47-7.2-19.59-12.51-31.12-15.56l-3-1.12c-3.45-1.01-6.42-.95-10-.88l-1.89-.49a29 29 0 0 0-7.17-.64l-2.92-.01-3.02.02-3.02-.02-2.92.01h-2.65A28 28 0 0 0 908 174l-2.63.54c-9.78 2.15-18.7 5.71-25.37 13.46l-4.19 4.81-2.04 2.4L872 197h-2l-.81 2.62c-1.54 4.37-3.61 8.32-5.81 12.38-1.41 3.08-1.88 5.67-2.38 9q-.93 2.52-2 5c-1.7 4.37-3.22 8.68-4.5 13.19A36 36 0 0 1 850 249l-.94 2.94c-1.21 3.49-2.95 6.02-5.06 9.06l-1.88 3.31a106 106 0 0 1-13.62 19l-1.37 1.53A48 48 0 0 1 817 293l-6 5q-3.47 2.54-7 5l1.36 2.05c6.9 10.64 12.44 21.46 15.95 33.67.69 2.28.69 2.28 1.81 4.9.99 2.69 1.3 5.28 1.54 8.12.34 2.26.34 2.26 1.34 5.5 1.09 4.1 1.4 7.85 1.56 12.07.32 7.45.32 7.45 1.44 9.69q.14 3.14.13 6.29l.01 3.79-.02 3.98.02 4-.01 3.79v3.5C829 407 829 407 828 408q-.07 3 0 6t0 6l-1 1a93 93 0 0 0 0 5 93 93 0 0 1 0 5l-1 1q0 3.24.03 6.48a82 82 0 0 1-.74 8.99c-.69 6.07-1.33 12.24-1.25 18.36C824 468 824 468 823 469a59 59 0 0 0-.06 4l.02 2.44.04 2.56.06 5 .04 2.25C823 487 823 487 822 488q-.15 4.25-.12 8.5l-.02 2.42c.01 5.95.01 5.95 1.14 7.08q.07 4.91-.04 9.83c-.05 4.2.27 8.03 1.04 12.17 1.01 9.16.89 17.84 0 27l-.72 10.91c-.25 2.77-.7 5.37-1.28 8.09a193 193 0 0 0-.5 4.12C821 582 821 582 820 585a179 179 0 0 0-2.56 15.44c-.33 2.66-.7 5-1.44 7.56l-.94 3.38q-.95 3.27-2.06 6.5a98 98 0 0 0-2.49 9.86c-.71 3.13-1.59 6.19-2.51 9.26l1 1 3.25-.06c3.7.06 5.41.69 8.75 2.06q2.68.6 5.4 1.08l3.17.57 3.37.6a341 341 0 0 1 28.68 6.43c8.94 2.48 16.95 5.54 22.38 13.32-1.9 5.23-3.94 6.82-8.72 9.06a73 73 0 0 1-11.59 3.5l-2.72.64c-25.59 5.66-52.24 6-78.35 5.92h-2.9c-29.76-.07-59.43-1.49-89.15-3.02a1610 1610 0 0 0-83.07-2.29h-2.2c-24.63.01-49.18.5-73.78 2.04l-7.61.44c-65 3.73-129.7 11.58-194.26 19.76-13.2 1.67-26.26 3.27-39.58 2.92A40 40 0 0 0 282 702c-8.83.54-16.61-.03-25.2-2.27-3.24-.84-6.48-1.27-9.8-1.73a40 40 0 0 1-14-6c-1.19-2-1.19-2-2-4a89 89 0 0 0-4-4c1.49-4.73 1.49-4.73 4-6.06l2-.94c1.12-2.06 1.12-2.06 2-4l2-1 1-3-2.34 1.24a495 495 0 0 0-6.25 3.25c-6.68 2.96-12.59 3.89-19.85 3.39l-2.25-.15c-8.61-.72-14.52-3.13-20.31-9.73l-2.69-2.56c-3.31-3.49-4.61-6.18-4.69-11 .28-9.88 4.05-17.26 10.9-24.27 7.24-6.34 12.98-7.45 22.44-7.11 4.56-.09 7.37-1.46 11.04-4.06l2.36-1.66c5.77-4.36 10.5-9.33 15.28-14.75a63 63 0 0 1 6.3-6.03c3.58-3.02 6.76-6.31 9.94-9.75l1.44-1.55A32 32 0 0 0 265 576l2.38-1.88c2.98-2.41 4.56-4.9 6.62-8.12a82 82 0 0 1 5-6h2l.81-1.69c3.67-7.14 3.67-7.14 7.19-8.31l.43-1.74c.8-3.18 2.58-4.96 4.69-7.45l2.45-2.92L299 535q2.01-2.43 4-4.88l1.69-2.05c1.49-2.36 1.93-4.33 2.31-7.07-3-1-3-1-5.38-1.47-8.34-1.68-16.06-4.68-23.62-8.53l-1.81-.82c-5.13-2.39-9.12-5.35-13.31-9.12l-3.51-3.09-1.7-1.51a176 176 0 0 0-4.94-4.11c-16.62-14.3-16.69-41.14-18.29-61.29l-.19-2.71c-.25-2.35-.25-2.35-.76-4-.71-3.41-.59-6.79-.55-10.26l.01-2.3.07-9.75.04-7.13.03-2.22c.01-3.42-.18-6.41-1.09-9.69-1.17-11.15-1.25-22.38-1.3-33.58l-.06-5.62q-.06-4.13-.07-8.26l-.05-2.5c.03-7.44 2.13-13.41 7.1-18.98 4.26-2.6 8.33-4.3 13.38-4.06 6.51 2.41 12.4 6.63 18.25 10.31l5.59 3.49 2.69 1.67q5.96 3.72 12.07 7.15c2.4 1.38 2.4 1.38 4.3 2.76 8.09 5.37 20.47 1.1 29.41-.5 4.76-.83 9.25-.97 14.07-.9q7.27.04 14.56-.17l2.76-.02c6.61-.21 6.61-.21 10.05-3.09L367 328l2.82-1.82c4.96-3.4 8.86-7.81 12.99-12.16 11.62-11.94 11.62-11.94 19.25-12.77 5.08.5 8.69 2.9 11.94 6.75 2.18 4.19 3.63 8.49 5 13l.9 2.83c1.77 5.99 2.76 12 3.63 18.17.39 2.47.9 4.74 1.59 7.12 1.14 5.01 1.05 9.77.88 14.88a187 187 0 0 0 33.81-18.5 133 133 0 0 1 17.31-10.06c3.41-1.66 6.65-3.46 9.88-5.44a341 341 0 0 1 25.81-14.38c7.52-3.7 14.72-7.89 21.87-12.26A48 48 0 0 1 542 300l4-2 5.74-2.87 4.62-2.33c7.74-3.91 15.57-7.6 23.64-10.8l7-3q5.96-2.58 12-5l2.29-.96a120 120 0 0 1 16.24-5.39c2.87-.76 5.66-1.69 8.47-2.65a251 251 0 0 1 18.12-4.56l2.96-.67c12.04-2.72 12.04-2.72 17.04-3.27C668 256 668 256 671 255c8.68-1.22 17.5-1.1 26.25-1.12l3.43-.02 3.21.01h2.91c2.2.13 2.2.13 3.2 1.13l3.69-.06c3.83-.06 6.69.8 10.31 2.06h2.94c3.67 0 6.54.94 10.06 2q2.43.5 4.88.94a90 90 0 0 1 16.28 4.92c3.81 1.51 6.75 2.65 10.84 2.14 2.75-1.68 2.75-1.68 5.56-3.88 3.08-2.38 5.94-4.43 9.44-6.12a81 81 0 0 0 5-5l1.89-2.01c4.6-5.02 8.56-10.18 12.11-15.99l1.34-2.18a82 82 0 0 0 6.69-15.05q1.44-4.05 3.09-8.02a76 76 0 0 0 2.88-8.31 74 74 0 0 1 4.06-10.37 73 73 0 0 0 1.94-4.76c1.31-3.03 3.17-5.56 5-8.31q.95-1.96 1.88-3.94c2.04-4.2 4.66-7.9 8.12-11.06h2l.31-1.8c.81-2.58 1.78-3.6 3.74-5.43l1.87-1.74 1.96-1.78 1.93-1.82c4.81-4.43 4.81-4.43 8.19-4.43l.69-1.88c1.72-2.79 3.25-3.05 6.31-4.12l5-3c23.92-12.31 58.04-18.65 84-10m-55 2-1.92.46C877.69 133.21 861.5 142.32 847 156l-1.87 1.68c-14.89 13.86-21.91 33.32-28.41 52.01C811.9 223.4 806.25 235.66 797 247l-2.15 2.65c-5.03 5.88-10.34 10.21-16.85 14.35l-2.54 1.83c-6.01 4.12-6.01 4.12-9.6 4.24A50 50 0 0 1 759 268q-3.21-.95-6.44-1.88l-3.61-1.04c-31.92-8.93-64.43-10.99-96.95-4.08l-1.97.4a279 279 0 0 0-35.46 9.75C592.3 278.62 570.84 288.16 550 299l-5.51 2.73q-5.25 2.61-10.49 5.27l-2.75 1.39a676 676 0 0 0-37.57 20.51 560 560 0 0 1-18.93 10.72 534 534 0 0 0-22.35 12.95 582 582 0 0 1-19.75 11.4c-2.86 1.57-5.55 3-8.65 4.03l-.01-2.48c-.3-9.66-1.86-18.87-3.8-28.33l-.75-3.72C414.92 312.2 414.92 312.2 407 305c-2.99-1.5-4.64-1.43-8-1-5.55 2.82-9.99 6.74-14.25 11.21a90 90 0 0 1-5.75 5.29 117 117 0 0 0-9.07 8.73L368 331l-2.68 2.67c-5.39 3.76-12.25 2.99-18.55 2.96a579 579 0 0 0-14.14.16c-7.39.15-14.6 1.01-21.88 2.28-8.56 1.45-14.82.48-22.31-4.01l-2.09-1.2c-4.77-2.8-9.35-5.85-13.91-8.98-18.95-12.96-18.95-12.96-29.44-11.88-2.14 1.07-2.14 1.07-3.81 2.56l-1.71 1.44c-3.93 5.3-3.78 11.82-3.75 18.13v2.65l.01 5.54q.01 4.13-.01 8.25c-.01 9.94.48 19.68 1.53 29.56 1.11 10.7 1.15 21.4 1.27 32.14.77 59.88.77 59.88 20.62 79.98 13.03 12.6 33.8 24.5 52.6 24.81L313 518c-3.28 6.16-7.3 11.55-11.56 17.06l-2.16 2.82L293 546l-1.64 2.13a567 567 0 0 1-18.88 23.14l-4.78 5.6c-5.14 5.99-10.27 11.88-15.94 17.38a99 99 0 0 0-5.26 5.75 136 136 0 0 1-21.5 20l-3.12 2.44c-3.7 2.03-7.7 1.9-11.82 2.06-9.28.37-13.98 2.05-20.37 8.81-5.7 6.91-7.34 12.61-7.1 21.53.8 6.18 3.82 10.14 8.6 13.97 8.76 5.56 18.66 6.3 28.81 5.19 7.87-2.11 15.06-5.78 22-10l-.98 2.56c-2 6.74-2.27 14.39.42 20.94 8.21 8.01 17.23 11.86 28.68 11.91l2.82-.03 2.8.03c20.5-.09 38.37-13.72 55.07-24.17q6.06-3.79 12.15-7.52l1.72-1.05 1.7-1.04c8.85-5.42 17.65-10.89 26.35-16.54q3.44-2.2 6.95-4.3c32.97-19.71 69.03-41.5 96.32-68.79 2.14-.71 2.14-.71 4.81-1.38a330 330 0 0 0 12.75-3.56l3.01-.9c3.64-1.23 7.19-2.63 10.76-4.08q3.93-1.58 7.88-3.1c27.04-10.49 53.11-23.01 79.04-35.98l2.96-1.48a995 995 0 0 0 26.97-13.9 242 242 0 0 1 17.76-8.62l2.68-1.19L651 499l.47 1.6c1.97 6.29 4.64 11.97 7.72 17.78l1.48 2.8A116 116 0 0 0 673 540l2.21 2.78c7.04 8.75 14.14 17.04 22.79 24.22l2.15 1.81c7.43 6.1 15.39 11.09 23.57 16.1 10.1 6.31 20.69 13.15 24.28 25.09a148 148 0 0 1 2 16l-1.91-.14c-6.31-.27-10.95.31-16.09 4.14-4.4 4.24-8.59 8.55-9.34 14.8-.05 4.53-.06 8.22 1.65 12.45 9.41 9.63 18.83 13.56 32.13 13.92l4.56.02 2.29.03a44 44 0 0 0 29.79-11.05c4.82-5.45 7.71-11.46 9.86-18.36l.75-2.34L806 632l.77-2.48c4.43-14.31 7.54-28.78 10.23-43.52l.49-2.67 1.26-7.14.35-2.01c1.79-10.85 2.06-21.7 2.02-32.68l.02-3.72c-.01-5.56-.11-11.06-.62-16.59-.73-7.89-.85-15.77-.9-23.69l-.01-2.6c-.06-17.04 1.33-33.88 2.89-50.84 1.64-17.95 3-35.77 2.94-53.81v-2.53c-.09-29.16-5.82-56.6-22.56-80.97C802 305 802 305 802 301a87 87 0 0 1 7.38-5.12c27.28-17.99 39.73-47.12 49.01-77.36 5.62-18.13 16.43-32.87 33.27-41.95 18.93-9.17 42.6-9.27 62.57-2.85a115 115 0 0 1 32.65 17.78c6.8 5.2 15.57 11.59 24.37 12.25 6.42-1.28 11.62-3.72 16.37-8.25 2.54-6.46 2.82-12.99.16-19.47-12.41-20.85-38.49-33.44-59.78-43.03l-2.97-1.36C945.77 123.71 919 123.16 899 128" fill="#BBBDBB"/><path d="m651 499 .94 2.06c8.82 19.11 18.2 35.17 32.06 50.94l3.19 3.88c3.26 3.77 6.99 6.93 10.81 10.12l2.17 1.82c6.42 5.28 13.2 9.69 20.27 14.06 24.46 15.43 24.46 15.43 29.17 30.02.52 2.81.48 5.5.45 8.35l-.02 3.27L750 626l-2.63.3c-6.55.85-11.24 1.49-16.37 5.7-3.85 2.74-7.53 1.81-11.94 1.19-28.97-3.56-58.63-2.35-87.75-2.32h-18.52c-35.96-.03-71.74.23-107.6 3.01l-7.16.53a1332 1332 0 0 0-53.8 5.01 891 891 0 0 0-27.01 3.49q-5.8.8-11.6 1.64l-8.62 1.21-2.59.38c-5.84.8-11.52 1-17.41.86 3.09-3.38 6.48-5.67 10.38-8 63.39-38.77 63.39-38.77 88.62-64 2.14-.71 2.14-.71 4.81-1.38a330 330 0 0 0 12.75-3.56l3.01-.9c3.64-1.23 7.19-2.63 10.76-4.08q3.93-1.58 7.88-3.1c27.04-10.49 53.11-23.01 79.04-35.98l2.96-1.48c9.69-4.86 19.35-9.77 28.9-14.91q6.97-3.75 14.14-7.11l2.18-1.05c5.2-2.45 5.2-2.45 8.57-2.45" fill="#ECEEEC"/><path d="M954 126q2.38.42 4.75.81c4.78.9 8.66 2.66 12.93 4.97 2.32 1.22 2.32 1.22 4.68 2.13a78 78 0 0 1 9.64 5.03l1.83 1.05a873 873 0 0 1 7.83 4.55 70 70 0 0 1 6.84 4.96 67 67 0 0 0 7.56 5.31L1012 156v2l1.76.82c8.57 4.53 15.2 13.05 18.24 22.18q.18 2.43.19 4.88l.04 2.55c-.36 4.05-1.29 6.65-4.22 9.52l-2.32 1.74-2.3 1.76c-6.2 4.02-12.15 4.46-19.39 3.55-3.3-1.28-6.07-3.03-9-5l-3.31-1.75c-3.41-1.94-6.45-4.31-9.57-6.69-9.47-7.2-19.59-12.51-31.12-15.56l-3-1.12c-3.45-1.01-6.42-.95-10-.88l-1.89-.49a29 29 0 0 0-7.17-.64l-2.92-.01-3.02.02-3.02-.02-2.92.01h-2.65A28 28 0 0 0 908 174l-2.63.54c-9.78 2.15-18.7 5.71-25.37 13.46l-4.19 4.81-2.04 2.4L872 197h-2l-.81 2.62c-1.54 4.37-3.61 8.32-5.81 12.38-1.41 3.08-1.88 5.67-2.38 9q-.93 2.52-2 5c-1.7 4.37-3.22 8.68-4.5 13.19A36 36 0 0 1 850 249l-.94 2.94c-1.21 3.49-2.95 6.02-5.06 9.06l-1.88 3.31a106 106 0 0 1-13.62 19l-1.37 1.53A48 48 0 0 1 817 293l-6 5q-3.47 2.54-7 5l1.36 2.05c6.9 10.64 12.44 21.46 15.95 33.67.69 2.28.69 2.28 1.81 4.9.99 2.69 1.3 5.28 1.54 8.12.34 2.26.34 2.26 1.34 5.5 1.09 4.1 1.4 7.85 1.56 12.07.32 7.45.32 7.45 1.44 9.69q.14 3.14.13 6.29l.01 3.79-.02 3.98.02 4-.01 3.79v3.5C829 407 829 407 828 408q-.07 3 0 6t0 6l-1 1a93 93 0 0 0 0 5 93 93 0 0 1 0 5l-1 1q0 3.24.03 6.48a82 82 0 0 1-.74 8.99c-.69 6.07-1.33 12.24-1.25 18.36C824 468 824 468 823 469a59 59 0 0 0-.06 4l.02 2.44.04 2.56.06 5 .04 2.25C823 487 823 487 822 488q-.15 4.25-.12 8.5l-.02 2.42c.01 5.95.01 5.95 1.14 7.08q.07 4.91-.04 9.83c-.05 4.2.27 8.03 1.04 12.17 1.01 9.16.89 17.84 0 27l-.72 10.91c-.25 2.77-.7 5.37-1.28 8.09a193 193 0 0 0-.5 4.12C821 582 821 582 820 585a179 179 0 0 0-2.56 15.44c-.33 2.66-.7 5-1.44 7.56l-.94 3.38q-.95 3.27-2.06 6.5a98 98 0 0 0-2.49 9.86c-.71 3.13-1.59 6.19-2.51 9.26l1 1 3.25-.06c3.7.06 5.41.69 8.75 2.06q2.68.6 5.4 1.08l3.17.57 3.37.6a341 341 0 0 1 28.68 6.43c8.94 2.48 16.95 5.54 22.38 13.32-1.9 5.23-3.94 6.82-8.72 9.06a73 73 0 0 1-11.59 3.5l-2.72.64c-25.59 5.66-52.24 6-78.35 5.92h-2.9c-29.76-.07-59.43-1.49-89.15-3.02a1610 1610 0 0 0-83.07-2.29h-2.2c-24.63.01-49.18.5-73.78 2.04l-7.61.44c-64.99 3.73-129.68 11.55-194.23 19.76-12.55 1.59-25.01 3.14-37.68 2.95v-2l3.27-.33q36.02-3.67 71.97-8.09c45.81-5.63 91.64-10.72 137.68-14.19q8.11-.62 16.22-1.3a712 712 0 0 1 32.98-1.63l2.28-.06c17.28-.48 34.56-.64 51.85-.65h2.38c25.26-.03 50.45.51 75.68 1.63l2.2.09c13.97.61 27.93 1.32 41.87 2.34a656 656 0 0 0 49.37 1.5h4.07c20.51-.03 40.83-.54 61.18-3.31l2.78-.37c25.04-3.51 25.04-3.51 32.22-9.63.06-2.69.06-2.69-1-6-5.99-4.67-13.39-6.57-20.62-8.38l-3.42-.87c-16.8-4.13-33.91-6.87-50.96-9.75.96-8.47.96-8.47 2.23-12.5l.74-2.4.78-2.54c3.57-12.03 6-24.22 8.25-36.56l.49-2.67 1.26-7.14.35-2.01c1.79-10.85 2.06-21.7 2.02-32.68l.02-3.72c-.01-5.56-.11-11.06-.62-16.59-.73-7.89-.85-15.77-.9-23.69l-.01-2.6c-.06-17.04 1.33-33.88 2.89-50.84 1.64-17.95 3-35.77 2.94-53.81v-2.53c-.08-28.85-5.49-57.04-22.65-80.87-.79-1.85-.79-1.85-.89-4.25 1.71-4.05 4.95-5.58 8.6-7.85 26.74-17.61 38.81-46.62 47.89-76.23 5.76-18.6 17.16-33.56 34.33-43.02A93 93 0 0 1 900 172l2.59-.97c22.96-7.11 48.99-.96 69.72 9.67a115 115 0 0 1 14.57 9.8c6.8 5.2 15.57 11.59 24.37 12.25 5.9-1.18 11.75-3.13 15.5-8.04 2.36-5.13 2.11-10.21 1.25-15.71-9.26-22.25-39.43-35.73-60-45l-2.97-1.36C945.77 124.71 919 124.16 899 129l-1.92.46c-26.4 6.47-50.27 22.04-64.7 45.48-6.42 10.85-10.62 22.81-14.66 34.7-7.54 22.13-19.5 42.62-39.72 55.36l-2.54 1.83c-6.01 4.12-6.01 4.12-9.6 4.24A50 50 0 0 1 759 269q-3.21-.95-6.44-1.88l-3.61-1.04c-31.92-8.93-64.43-10.99-96.95-4.08l-1.97.4a279 279 0 0 0-35.46 9.75C592.3 279.62 570.84 289.16 550 300l-5.51 2.73q-5.25 2.61-10.49 5.27l-2.75 1.39a676 676 0 0 0-37.57 20.51 560 560 0 0 1-18.93 10.72 482 482 0 0 0-19.87 11.44c-6.6 4-13.22 7.91-19.94 11.69l-2.29 1.3C427.36 368 427.36 368 424 368l-.48-3.75a430 430 0 0 0-4.96-29.87l-.58-2.94c-1.96-9.33-4.09-18.55-10.98-25.44-2.99-1.5-4.64-1.43-8-1-5.55 2.82-9.99 6.74-14.25 11.21a90 90 0 0 1-5.75 5.29 117 117 0 0 0-9.07 8.73L368 332l-2.68 2.67c-5.39 3.76-12.25 2.99-18.55 2.96a579 579 0 0 0-14.14.16c-7.39.15-14.6 1.01-21.88 2.28-8.56 1.45-14.82.48-22.31-4.01l-2.09-1.2c-4.77-2.8-9.35-5.85-13.91-8.98C253.61 313 253.61 313 243 314c-3.76 2.34-5.61 3.94-7.15 8.11-.97 4.44-1.14 8.5-1.12 13.02v2.65l.01 5.54q.01 4.13-.01 8.25c-.01 9.94.48 19.68 1.53 29.56 1.11 10.7 1.15 21.4 1.27 32.14.77 59.98.77 59.98 20.55 79.97C272.6 507.27 293.1 515.46 313 518c-.62 3.3-1.78 5.37-3.77 8.05l-1.74 2.35-1.87 2.48-1.91 2.56A790 790 0 0 1 287 555l-2.26 2.81a634 634 0 0 1-28.25 32.58l-4.83 5.27c-26.76 29.18-26.76 29.18-39.65 29.89l-4.25.14c-7.97.26-12.18 2.38-17.57 8.12-5.38 6.71-6.82 12.49-6.6 21.03.79 6.08 3.55 9.56 8.1 13.47 9.97 5.08 20.86 6.71 31.81 3.74 3.25-1.21 6.37-2.56 9.5-4.05l3.03-1.45A268 268 0 0 0 243 663l-1 2.62c-1.97 6.97-2.28 15.13.38 21.88 9.69 9.24 19.69 10.77 32.56 11.12l3.52.12q4.26.14 8.54.26v2c-10.13 2.38-20.26 1.33-30.2-1.27-3.24-.84-6.48-1.27-9.8-1.73a40 40 0 0 1-14-6c-1.19-2-1.19-2-2-4a89 89 0 0 0-4-4c1.49-4.73 1.49-4.73 4-6.06l2-.94c1.12-2.06 1.12-2.06 2-4l2-1 1-3-2.34 1.24a495 495 0 0 0-6.25 3.25c-6.68 2.96-12.59 3.89-19.85 3.39l-2.25-.15c-8.61-.72-14.52-3.13-20.31-9.73l-2.69-2.56c-3.31-3.49-4.61-6.18-4.69-11 .28-9.88 4.05-17.26 10.9-24.27 7.24-6.34 12.98-7.45 22.44-7.11 4.56-.09 7.37-1.46 11.04-4.06l2.36-1.66c5.77-4.36 10.5-9.33 15.28-14.75a63 63 0 0 1 6.3-6.03c3.58-3.02 6.76-6.31 9.94-9.75l1.44-1.55A32 32 0 0 0 265 576l2.38-1.88c2.98-2.41 4.56-4.9 6.62-8.12a82 82 0 0 1 5-6h2l.81-1.69c3.67-7.14 3.67-7.14 7.19-8.31l.43-1.74c.8-3.18 2.58-4.96 4.69-7.45l2.45-2.92L299 535q2.01-2.43 4-4.88l1.69-2.05c1.49-2.36 1.93-4.33 2.31-7.07-3-1-3-1-5.38-1.47-8.34-1.68-16.06-4.68-23.62-8.53l-1.81-.82c-5.13-2.39-9.12-5.35-13.31-9.12l-3.51-3.09-1.7-1.51a176 176 0 0 0-4.94-4.11c-16.62-14.3-16.69-41.14-18.29-61.29l-.19-2.71c-.25-2.35-.25-2.35-.76-4-.71-3.41-.59-6.79-.55-10.26l.01-2.3.07-9.75.04-7.13.03-2.22c.01-3.42-.18-6.41-1.09-9.69-1.17-11.15-1.25-22.38-1.3-33.58l-.06-5.62q-.06-4.13-.07-8.26l-.05-2.5c.03-7.44 2.13-13.41 7.1-18.98 4.26-2.6 8.33-4.3 13.38-4.06 6.51 2.41 12.4 6.63 18.25 10.31l5.59 3.49 2.69 1.67q5.96 3.72 12.07 7.15c2.4 1.38 2.4 1.38 4.3 2.76 8.09 5.37 20.47 1.1 29.41-.5 4.76-.83 9.25-.97 14.07-.9q7.27.04 14.56-.17l2.76-.02c6.61-.21 6.61-.21 10.05-3.09L367 328l2.82-1.82c4.96-3.4 8.86-7.81 12.99-12.16 11.62-11.94 11.62-11.94 19.25-12.77 5.08.5 8.69 2.9 11.94 6.75 2.18 4.19 3.63 8.49 5 13l.9 2.83c1.77 5.99 2.76 12 3.63 18.17.39 2.47.9 4.74 1.59 7.12 1.14 5.01 1.05 9.77.88 14.88a187 187 0 0 0 33.81-18.5 133 133 0 0 1 17.31-10.06c3.41-1.66 6.65-3.46 9.88-5.44a341 341 0 0 1 25.81-14.38c7.52-3.7 14.72-7.89 21.87-12.26A48 48 0 0 1 542 300l4-2 5.74-2.87 4.62-2.33c7.74-3.91 15.57-7.6 23.64-10.8l7-3q5.96-2.58 12-5l2.29-.96a120 120 0 0 1 16.24-5.39c2.87-.76 5.66-1.69 8.47-2.65a251 251 0 0 1 18.12-4.56l2.96-.67c12.04-2.72 12.04-2.72 17.04-3.27C668 256 668 256 671 255c8.68-1.22 17.5-1.1 26.25-1.12l3.43-.02 3.21.01h2.91c2.2.13 2.2.13 3.2 1.13l3.69-.06c3.83-.06 6.69.8 10.31 2.06h2.94c3.67 0 6.54.94 10.06 2q2.43.5 4.88.94a90 90 0 0 1 16.28 4.92c3.81 1.51 6.75 2.65 10.84 2.14 2.75-1.68 2.75-1.68 5.56-3.88 3.08-2.38 5.94-4.43 9.44-6.12a81 81 0 0 0 5-5l1.89-2.01c4.6-5.02 8.56-10.18 12.11-15.99l1.34-2.18a82 82 0 0 0 6.69-15.05q1.44-4.05 3.09-8.02a76 76 0 0 0 2.88-8.31 74 74 0 0 1 4.06-10.37 73 73 0 0 0 1.94-4.76c1.31-3.03 3.17-5.56 5-8.31q.95-1.96 1.88-3.94c2.04-4.2 4.66-7.9 8.12-11.06h2l.31-1.8c.81-2.58 1.78-3.6 3.74-5.43l1.87-1.74 1.96-1.78 1.93-1.82c4.81-4.43 4.81-4.43 8.19-4.43l.69-1.88c1.72-2.79 3.25-3.05 6.31-4.12l5-3c23.92-12.31 58.04-18.65 84-10" fill="#E7E8E8"/><path d="M406 302c4.7 2.02 7.31 4.6 9.58 9.19q1.88 4.84 3.42 9.81l1 3c-1.44 2.19-1.44 2.19-3 4l-.73-2.85-1.02-3.77-.98-3.73c-1.79-5.14-4.32-10.03-9.27-12.65-4.35-.91-6.83.27-10.44 2.56a68 68 0 0 0-9.81 8.65 90 90 0 0 1-5.75 5.29 117 117 0 0 0-9.07 8.73L368 332l-2.68 2.67c-5.39 3.76-12.25 2.99-18.55 2.96q-5.9 0-11.79.12l-2.35.04c-7.39.15-14.6 1.01-21.88 2.28-8.56 1.45-14.82.48-22.31-4.01l-2.09-1.2c-4.77-2.8-9.35-5.85-13.91-8.98C253.61 313 253.61 313 243 314c-3.76 2.34-5.61 3.94-7.15 8.11-.97 4.44-1.14 8.5-1.12 13.02v2.65l.01 5.54q.01 4.13-.01 8.25c-.01 9.94.48 19.68 1.53 29.56 1.11 10.7 1.15 21.4 1.27 32.14.77 59.98.77 59.98 20.55 79.97C272.6 507.27 293.1 515.46 313 518c-.62 3.3-1.78 5.37-3.77 8.05l-1.74 2.35-1.87 2.48-1.91 2.56A790 790 0 0 1 287 555l-2.26 2.81a634 634 0 0 1-28.25 32.58l-4.83 5.27c-26.76 29.18-26.76 29.18-39.65 29.89l-4.25.14c-7.97.26-12.18 2.38-17.57 8.12-5.38 6.71-6.82 12.49-6.6 21.03.79 6.08 3.55 9.56 8.1 13.47 9.97 5.08 20.86 6.71 31.81 3.74 3.25-1.21 6.37-2.56 9.5-4.05l3.03-1.45A268 268 0 0 0 243 663l-1 2.62c-1.97 6.97-2.28 15.13.38 21.88 9.69 9.24 19.69 10.77 32.56 11.12L287 699v2c-10.13 2.38-20.26 1.33-30.2-1.27-3.24-.84-6.48-1.27-9.8-1.73a40 40 0 0 1-14-6c-1.19-2-1.19-2-2-4a89 89 0 0 0-4-4c1.49-4.73 1.49-4.73 4-6.06l2-.94c1.13-2.06 1.13-2.06 2-4l2-1 1-3-2.34 1.24-3.16 1.64-3.09 1.61c-6.68 2.96-12.59 3.89-19.85 3.39l-2.25-.15c-8.61-.72-14.52-3.13-20.31-9.73l-2.69-2.56c-3.31-3.49-4.61-6.18-4.69-11 .28-9.88 4.05-17.26 10.9-24.27 7.24-6.34 12.98-7.45 22.44-7.11 4.56-.09 7.37-1.46 11.04-4.06l2.36-1.66c5.77-4.36 10.5-9.33 15.28-14.75a63 63 0 0 1 6.3-6.03c3.58-3.02 6.76-6.31 9.94-9.75l1.44-1.55A32 32 0 0 0 265 576l2.38-1.88c2.98-2.41 4.56-4.9 6.62-8.12a82 82 0 0 1 5-6h2l.81-1.69c3.67-7.14 3.67-7.14 7.19-8.31l.43-1.74c.8-3.18 2.58-4.96 4.69-7.45l2.45-2.92L299 535q2.01-2.43 4-4.88l1.69-2.05c1.49-2.36 1.93-4.33 2.31-7.07-3-1-3-1-5.38-1.47-8.34-1.68-16.06-4.68-23.62-8.53l-1.81-.82c-5.13-2.39-9.12-5.35-13.31-9.12l-3.51-3.09-1.7-1.51a176 176 0 0 0-4.94-4.11c-16.62-14.3-16.69-41.14-18.29-61.29l-.19-2.71c-.25-2.35-.25-2.35-.76-4-.71-3.41-.59-6.79-.55-10.26l.01-2.3.07-9.75.04-7.13.03-2.22c.01-3.42-.18-6.41-1.09-9.69-1.17-11.15-1.25-22.38-1.3-33.58l-.06-5.62q-.06-4.13-.07-8.26l-.05-2.5c.03-7.44 2.13-13.41 7.1-18.98 4.26-2.6 8.33-4.3 13.38-4.06 6.51 2.41 12.4 6.63 18.25 10.31l5.59 3.49 2.69 1.67q5.96 3.72 12.07 7.15c2.4 1.38 2.4 1.38 4.3 2.76 8.09 5.37 20.47 1.1 29.41-.5 4.76-.83 9.25-.97 14.07-.9q7.27.04 14.56-.17l2.76-.02c6.61-.21 6.61-.21 10.05-3.09L367 328l2.82-1.82c4.96-3.4 8.86-7.81 12.99-12.16 14.17-14.57 14.17-14.57 23.19-12.02" fill="#E4E5E5"/><path d="M405 304c6.51 4.02 9.41 9.34 11.28 16.65q.63 2.64 1.22 5.29l.65 2.8L420 337l.53 2.38a683 683 0 0 1 2.09 9.69c.35 2.73.3 4.36-.62 6.93l-1-2 .02 1.96.04 8.79.03 3.08.01 2.97.01 2.73c-.1 2.3-.46 4.26-1.11 6.47h-2l-.77-1.68-1.04-2.2-1.02-2.17C414 372 414 372 411 370v-2l-1.62-.75A67 67 0 0 1 401 362v-2l-2.22-.82a44 44 0 0 1-7.28-4.06c-4.96-3.04-9.93-4.71-15.52-6.26A71 71 0 0 1 368 346v-3h2l.56-2.94c2.06-7.25 8.11-12.99 13.44-18.06l1.79-1.86 1.9-1.95 1.76-1.83C391 315 391 315 393 315l.88-1.94C395 311 395 311 397 310l1-3-3-1c3.44-2.12 5.99-2.63 10-2" fill="#222420"/><path d="m265.06 326.81 2 1.54 3.92 3.08a260 260 0 0 0 8.55 6.28l1.47 1.3v2q1.48.48 3 1l1 8-5.38 3q-1.49.81-3.02 1.68C274 356 274 356 272 356v2c-1.69 1.41-1.69 1.41-4 3.06-11.26 8.53-17.49 19.18-23 31.94h-3c-3.89-11.36-3.73-23.12-4-35l-2-1v-21h-2v-10h1l2 7 .36-2.56.51-3.32.5-3.3C239 321 239 321 241 319c9.55-2.54 16.81 2.02 24.06 7.81" fill="#252723"/><path d="m376 550 5 2c-.53 4.06-2.56 5.92-5.41 8.74l-2.75 2.73-1.45 1.42q-2.14 2.1-4.27 4.23a235 235 0 0 1-12.18 11.42c-4.91 4.22-9.4 8.85-13.94 13.46a265 265 0 0 1-16.11 15.36c-3.16 2.74-6.17 5.64-9.2 8.52a266 266 0 0 1-16.01 13.97 297 297 0 0 0-7.25 6.03q-2.3 1.92-4.63 3.82a93 93 0 0 0-4.85 4.23c-7.42 6.23-17.75 5.09-26.95 5.07a79 79 0 0 1 8.94-8.12 965 965 0 0 0 38.23-30.8q5.08-4.31 10.27-8.52c4.86-3.96 9.62-8.03 14.37-12.12a482 482 0 0 1 10.69-8.94 565 565 0 0 0 28.78-25.03c2.84-2.58 5.75-5.03 8.72-7.47" fill="#EBEBEE"/><path d="M383 433c4.76.56 8.59 2.59 12 6 .93 7.9.63 13.85-4.37 20.2a31.3 31.3 0 0 1-18.93 10.16A34 34 0 0 1 349 462c-2.84-3.22-4.8-5.52-5.38-9.81.62-5.26 4.28-7.29 8.19-10.5L354 440l2 2 .5-1.81c2.79-4.07 7.82-4.8 12.44-5.88 10.53-1.07 10.53-1.07 14.06.69z" fill="#161714"/><path d="M278 438v2h2v-2c9.72 1.29 19.07 2.97 27 9 2.75.69 2.75.69 5 1 1.06 4.25 2.03 8.68 1 13a24.8 24.8 0 0 1-14 9c-9.22 1.01-16.24.2-24-5l-1.8-1.2c-4.44-3.32-7.53-7.44-8.62-12.89-.14-2.1-.14-2.1.42-5.91 3.13-3.4 8.22-7 13-7" fill="#151611"/><path d="M383 433c4.76.56 8.59 2.59 12 6 .93 7.9.63 13.85-4.37 20.2a31.3 31.3 0 0 1-18.93 10.16A34 34 0 0 1 349 462c-2.84-3.22-4.8-5.52-5.38-9.81.62-5.25 4.27-7.25 8.13-10.5C354 440 354 440 355 440l.01 2.09c.3 7.3 1.92 12.51 6.99 17.91 4.59 2.99 9.72 2.7 15 2 4.77-1.75 7.38-3.97 10-8.31 1.5-5.54 1.82-9.65-.38-15.13C385 436 385 436 383 435z" fill="#EED26C"/><path d="m277 439-.48 1.64c-1.29 5.86-1.74 12.89 1.04 18.36 3.26 4.01 6.28 6.46 11.46 7.34 4.74.22 7.93-1.03 11.98-3.34h2l.88-1.75q1.01-2.07 2.18-4.06c1.29-3 1.57-5.97 1.94-9.19 2.53 2.02 4.61 3.72 5.58 6.9.27 3.21.07 5.25-1.91 7.84-7.13 6.47-13.69 7.89-23.16 7.68-5.27-.63-9.14-2.49-13.51-5.42l-1.8-1.2c-4.44-3.32-7.53-7.44-8.62-12.89-.14-2.1-.14-2.1.42-5.91 3.37-3.56 7.05-6 12-6" fill="#DCC478"/><path d="m242 663 1 2-.91 2.19c-2.43 6.27-2.15 14.11.29 20.31 9.69 9.24 19.69 10.77 32.56 11.12l3.52.12q4.26.14 8.54.26v2c-10.13 2.38-20.26 1.33-30.2-1.27-3.24-.84-6.48-1.27-9.8-1.73a40 40 0 0 1-14-6c-1.19-2-1.19-2-2-4a89 89 0 0 0-4-4c1.49-4.73 1.49-4.73 4-6.06l2-.94c1.12-2.06 1.12-2.06 2-4l2-1 1-3-12 6-3-3 2.38-.95c5.79-2.36 11.29-4.78 16.62-8.05" fill="#D4D5D6"/><path d="M945.96 123.77c2.85.32 5.34 1.26 8.04 2.23q2.37.42 4.75.81c4.78.9 8.66 2.66 12.92 4.97a30 30 0 0 0 4.68 2.13 79 79 0 0 1 9.65 5.03l1.82 1.05L993 143l2.65 1.54a69 69 0 0 1 6.85 4.96 65 65 0 0 0 7.56 5.31L1012 156v2l1.76.82c8.56 4.53 15.2 13.05 18.24 22.18.77 10.65.77 10.65-2 15-3 3.23-5.47 5.8-9.94 6.38L1018 202l1.68-1.19c7.98-6.25 7.98-6.25 8.66-11.46.43-9.07-1.5-14.43-7.34-21.35-14.4-15.39-34.07-25.47-53-34l-2.97-1.36c-8.86-3.64-18.6-4.44-28.03-5.64 2.75-3.23 4.71-3.39 8.96-3.23" fill="#DFE0DF"/><path d="M825 379h1l.08 2.69.29 10.01.13 4.3c.21 7.46.44 14.87 1.4 22.28l.1 1.72-1 1a93 93 0 0 0 0 5 93 93 0 0 1 0 5l-1 1q0 3.24.03 6.48a82 82 0 0 1-.74 8.99c-.69 6.07-1.33 12.24-1.25 18.36C824 468 824 468 823 469a59 59 0 0 0-.06 4l.02 2.44.04 2.56.06 5 .04 2.25C823 487 823 487 822 488q-.34 3-.54 6l-.26 3.69-.26 3.87-.28 3.89L820 515h-1c-.71-25.27.51-50.1 2.79-75.27 1.83-20.26 3.1-40.39 3.21-60.73" fill="#DCDCDE"/><path d="M913 170c28.7-.42 50.56 2.37 73.88 20.5 11.12 8.44 20.11 12.84 34.12 11.5-3.19 3.19-6.29 3.23-10.62 3.38-6.4-.05-10.17-1.88-15.38-5.38l-3.31-1.75c-3.41-1.94-6.45-4.31-9.57-6.69-9.47-7.2-19.59-12.51-31.12-15.56l-3-1.12c-3.45-1.01-6.42-.95-10-.88l-1.9-.49a28 28 0 0 0-7.08-.61l-2.84.01-2.93.03-2.98.01-7.27.05z" fill="#EAEBEA"/><path d="M334 466c3.12 2 3.12 2 5 4-.25 2.31-.25 2.31-1 5l-1.94 1.38c-2.99 2.35-3.24 5.01-4.06 8.62-2.88.12-2.88.12-6 0-2-2-2-2-2.38-3.94-.62-2.06-.62-2.06-2.68-3.44C319 476 319 476 318.56 473c.44-3 .44-3 1.82-4.81 4.14-3.03 8.65-2.79 13.62-2.19" fill="#626360"/><path d="m249 311 2 2-2.01.23c-8.12 1.21-8.12 1.21-11.05 4.58-3.35 5.5-3.1 10.86-3.11 17.13l-.01 2.63-.01 8.43v2.91c0 10.84.1 21.54 1.47 32.32 1.62 13.79.88 27.91.72 41.77h-1l-1-30h-1c-3.45-14.22-3.23-29.03-3.3-43.58l-.06-5.62q-.06-4.13-.07-8.26l-.05-2.5c.03-6.49 1.45-12.79 6-17.67 4.28-3.65 6.89-4.72 12.48-4.37" fill="#E1E4E2"/><path d="M934 169v1h-21l-2 4q-3.14.38-6.29.6c-13.56 2.01-22.47 10.68-30.94 20.61L872 197h-2l-.81 2.62c-1.54 4.37-3.61 8.32-5.81 12.38-1.41 3.08-1.88 5.67-2.38 9a90 90 0 0 1-2 5l-1.12 2.81L857 231h-2l-1 3c-1-2-1-2-.11-4.91l1.36-3.59c1.56-4.15 2.99-8.26 4.06-12.56 4.74-16.11 18.02-29.51 32.41-37.44A93 93 0 0 1 900 172l2.59-.97c10.14-3.14 20.91-2.3 31.41-2.03" fill="#E3E4E4"/><path d="M383 433c4.76.56 8.59 2.59 12 6 .93 7.9.63 13.85-4.37 20.2-5.08 5.6-11.64 9.33-19.28 10.05q-3.18-.02-6.35-.25c2.71-2.6 3.89-2.99 7.75-3.19l3.25.19v-2h-8v-1l1.69-.04c6.11-.38 10.71-1.78 15.31-5.96 3.09-5.12 3.55-9.19 3-15-2.25-5.62-2.25-5.62-5-7z" fill="#EED46D"/><path d="M749 626c-2 2-2 2-4.81 2.81-4.81 1.8-7.28 5.02-10.38 9L732 640h-2c-1.4 8.75-.7 14.94 3 23-5.03-1.8-7.58-4.17-10-9-.74-6.86-.74-12.56 3.44-18.25 6.83-7.66 12.34-10.15 22.56-9.75" fill="#080A09"/><path d="M274 442v16h2c1.69 2.25 1.69 2.25 3 5-.42 2.17-.42 2.17-1 4-11.9-8.36-11.9-8.36-13.41-16.08-.15-2.11-.15-2.11.41-5.92 3.3-3.76 4.03-4.24 9-3" fill="#F4D867"/><path d="m727 257 3.31.44A74 74 0 0 1 741 260c3.82 1.13 7.6 2.14 11.5 2.94 4.09.88 7.68 2.33 11.5 4.06q2.99 1.04 6 2l-2 2c-5.28-.88-10.31-2.37-15.44-3.88-15.86-4.59-32.08-7.89-48.56-9.12v-1c8.36-1.86 14.68-2.15 23 0" fill="#DFDFE2"/><path d="M250 310c6.89 2.8 13.05 6.33 19.31 10.31l5.58 3.49 2.68 1.68A280 280 0 0 0 304 340v1c-6.16-.44-10.29-1.78-15.56-4.94l-2.09-1.2a254 254 0 0 1-15.74-10.25 89 89 0 0 0-15.95-8.37A67 67 0 0 1 250 314l-1-3z" fill="#DBDCDE"/><path d="M828 177h2a199 199 0 0 1-5.75 15.31c-3 7.39-5.8 14.81-8.26 22.4-1.15 3.42-2.08 6.03-4.99 8.29-1.21-3.64-.67-4.56.69-8.06l1.12-2.95q2.13-5.37 4.36-10.7c.87-2.41 1.33-4.78 1.83-7.29q1.45-3.03 3-6l.94-2.5A40 40 0 0 1 828 177" fill="#EFEFF1"/><path d="m236 693 2.08.25 2.73.31 2.71.32C246 694 246 694 249 693q3.03 1.45 6 3c6.54 2.41 13.02 2.44 19.94 2.62l3.52.12q4.26.14 8.54.26v2c-10.13 2.38-20.26 1.33-30.2-1.27-3.24-.84-6.48-1.27-9.8-1.73-3.9-.99-7.48-2.03-11-4z" fill="#D6D7D7"/><path d="m250 313 3 2v3l1 2-2.5-.56c-4.12-.52-7.41-.07-11.5.56l-.38 3.06A77 77 0 0 1 237 334c-2.84-4.25-2.89-8.01-2-13 3.83-6.55 7.47-8.4 15-8" fill="#1B1C1D"/><path d="M406 302c4.7 2.02 7.31 4.6 9.58 9.19q1.88 4.84 3.42 9.81l1 3c-1.44 2.19-1.44 2.19-3 4l-.73-2.85-1.02-3.77-.98-3.73c-1.79-5.14-4.32-10.03-9.27-12.65-4.35-.91-6.83.27-10.44 2.56A74 74 0 0 0 383 318l-2-2c15.53-16.68 15.53-16.68 25-14" fill="#E6E5E6"/><path d="m855 231 2 2-2.15 4.98q-1.98 4.71-3.78 9.48A58 58 0 0 1 844 261l-2.92 5.19c-1.84 3.07-3.96 5.92-6.08 8.81l-3-2 1.25-1.66a128 128 0 0 0 17.64-33.63A24 24 0 0 1 855 231" fill="#EAEAEA"/><path d="m349.56 447.94 2.44.06v4h2v2h2v4h2v4c-6.06.98-6.06.98-8 1-2-2-2-2-2.13-4.62L348 456h-2q-.06-3.5 0-7c1-1 1-1 3.56-1.06" fill="#F4D56B"/><path d="m248 596 1 3c-15.32 15.72-15.32 15.72-24 22l-1.71 1.37c-5.47 3.87-11.93 2.97-18.29 2.63v-1l2.88-.44C211 623 211 623 213 622l2.56-.19c10.9-2.57 20.33-12.97 27.19-21.37A24 24 0 0 1 248 596" fill="#DEDFDD"/><path d="M825 364c3.55 3.55 3 8.22 3 13l1 2c.27 4.64.23 9.29.25 13.94l.06 3.94.02 3.77.03 3.47c-.36 2.88-.36 2.88-1.88 4.78L826 410l-.57-16.62q-.52-14.69-.43-29.38" fill="#F1F1F4"/><path d="m388 450 2 3-4 7h2c-1.04 2.9-1.81 3.89-4.5 5.48-6.52 2.7-11.45 4.11-18.5 3.52 2.71-2.6 3.89-2.99 7.75-3.19l3.25.19v-2h-8v-1l1.69-.04c6.07-.38 10.77-1.75 15.31-5.96a28 28 0 0 0 3-7" fill="#CEB672"/><path d="M820 503c1.48 1.28 1.48 1.28 3 3 .19 2.68.24 5.14.12 7.81A66 66 0 0 0 824 528c.29 6.41.15 12.68-1 19h-1c-1.82-14.71-2.25-29.18-2-44" fill="#EBEBEE"/><path d="M692.58 253.76q3.07-.02 6.13-.07l3.9-.02 3.56-.03 2.83.36 2 3-44 1 2-3c3.37-.12 3.37-.12 7 0l1.81-.48c4.78-1.14 9.87-.75 14.77-.76" fill="#F1F2F4"/><path d="M233 364c2.48 3.89 2.7 8.15 3.12 12.62l.26 2.67c1.21 14.52.79 29.16.62 43.71h-1l-1-30h-1c-2.71-9.73-1.76-19.06-1-29" fill="#B3B4B3"/><path d="M825 379h1l.08 2.69.29 10.01.13 4.3c.21 7.39.42 14.73 1.38 22.07.18 2.96-.76 5.22-1.88 7.93-.72 2.65-1.35 5.33-2 8h-1l.18-3.14c.96-17.28 1.37-34.57 1.82-51.86" fill="#C7C7C8"/><path d="M913 170q6.22-.08 12.44-.12l3.53-.06c6.68-.03 12.57.43 19.03 2.18v1q-2.37.3-4.75.56l-2.67.32c-2.58.12-2.58.12-4.43-.37a29 29 0 0 0-7.13-.61l-2.84.01-2.93.03-2.98.01-7.27.05z" fill="#EBECEB"/><path d="M189 669c2.74.36 5.36.76 7.96 1.73 8.77 3.26 17.83 2.53 27.04 2.27l1 2a37 37 0 0 1-15.38 1.88l-2.26-.15c-7.27-.59-13.27-2.27-18.36-7.73" fill="#E6E6EA"/><path d="m376 550 5 2c-.58 3.43-1.69 5.05-4.16 7.45l-1.9 1.88-2 1.92-2.01 1.97L366 570l-1-3h2v-2h2l-.44-2.12c.53-3.48 1.27-3.83 3.94-5.94l1.97-1.41L376 554z" fill="#E2E4E5"/><path d="m498 556 2 1-2.77 2.7-3.61 3.55-1.82 1.78-1.76 1.74-1.62 1.58A22 22 0 0 0 485 574h-7c4.65-6.12 10.16-10.41 16.27-14.96C497 557 497 557 498 556" fill="#040505"/><path d="M308 448c2.54 2.03 4.64 3.72 5.54 6.94.22 3.15.18 5.2-1.9 7.68C310 464 310 464 307 466a22 22 0 0 1-1-6h2z" fill="#E4D17A"/><path d="M750.31 262.19q4.59 1.48 9.2 2.84l3.55 1.04 3.35.97c2.6.96 2.6.96 3.6 2.96-4.62 1.45-7.9.32-12.26-1.31a114 114 0 0 0-16.75-4.7c4.87-3.23 4.87-3.23 9.31-1.8" fill="#D9D9DA"/><path d="M235 391h1v37c-3.42-4.56-3.33-5.62-3.11-11.1l.07-2.06.19-4.28q.15-3.27.26-6.56c.42-10.66.42-10.66 1.59-13" fill="#F1F3F1"/><path d="M941 125v1h-33l1-2q6.32-.34 12.62-.62l3.61-.2 3.5-.16 3.2-.16c3.35.15 5.96.94 9.07 2.14" fill="#EDEEEE"/><path d="M971 132a36 36 0 0 1 12.73 5.56c4.29 2.72 8.8 5.05 13.27 7.44l-3 2-9.25-4.81-2.64-1.37-2.56-1.34-2.35-1.22A39 39 0 0 1 971 134z" fill="#E3E4E3"/><path d="M670 258v1l-8.56 1.44-2.43.41-4.76.78q-3.05.5-6.09 1.09c-3.23.29-4.52.07-7.16-1.72l6.69-1.44 3.76-.81q3.15-.67 6.32-1.29c5.01-1.04 7.18-1.08 12.23.54" fill="#E3E4E4"/><path d="M283 437c9.62.18 17.27 1.83 24.62 8.31L309 447h-2l-1 3-.27-1.87c-.73-2.13-.73-2.13-2.34-3.29-6.62-2.79-13.36-4.41-20.39-5.84z" fill="#050606"/><path d="M355 440v11c-2-3-2-3-2-5h-5l-2 10h2l-1 4c-2.67-3.79-3.77-6.36-3-11 7.5-9 7.5-9 11-9" fill="#D9CA84"/><path d="M934 169v1h-21l-2 4c-2.82.61-2.82.61-6.12.75l-3.33.17-2.55.08 1-3c10.14-4.94 23.09-3.28 34-3" fill="#CAC9CB"/><path d="M961.88 176.06 969 179l-3 3-2.07-1.38c-3.25-1.8-6.32-2.67-9.93-3.62-3.49-1.08-5.96-1.97-9-4 5.97-1.99 11.36.76 16.88 3.06" fill="#E3E5E3"/><path d="M844 254c1.16 1.7 1.16 1.7 2 4-.94 2.33-.94 2.33-2.56 4.81l-1.7 2.64c-2.2 3.22-4.42 6.41-6.74 9.55l-3-2 1.36-1.87A146 146 0 0 0 844 254" fill="#DFDFE2"/><path d="M808 621h4a204 204 0 0 1-4 16h-2v2h-2c1.04-6.11 2.16-12.08 4-18" fill="#E5E8E7"/><path d="M252 315c3.34.56 6.03 1.35 9 3v3l3 1-1 4-12-8z" fill="#08090B"/><path d="M381 432c1.82 2.03 1.82 2.03 3 4l-3-1c-6.04-.51-11.2.38-17 2q-3 .54-6 1c4.33-6.5 15.72-7.54 23-6" fill="#040403"/><path d="M821 536c5.55 7.39 3.7 14.45 2.44 23.31L823 562h-2z" fill="#D9DBDC"/><path d="M234 336h2l.56 8.81.17 2.53.15 2.43.14 2.24C237 354 237 354 236 357q-.33 2.84-.56 5.69l-.26 3.01-.18 2.3h-1z" fill="#141714"/><path d="m390 634 2 1c-1.4 4.2-4.37 5.19-8.06 7.19l-2.01 1.11q-2.46 1.36-4.93 2.7l-2-2c2.55-2.97 5.45-4.42 9-6h2v-2c1.88-1.06 1.88-1.06 4-2" fill="#161716"/><path d="M348 446h5l1 5h2q1.45 2.11 2.75 4.31c2.57 4.03 4.64 6.04 9.25 7.69-2.61.93-3.64 1.15-6.25.06L360 462v-2h-2v-2h-2v-4h-2v-2h-2v-4h-4z" fill="#EBD37C"/><path d="M809 221h2c.7 1.61.7 1.61 1 4-1.29 2.98-1.29 2.98-3.19 6.19l-1.85 3.23c-1.96 2.58-1.96 2.58-4.2 3.44L801 238c4.53-9.23 4.53-9.23 6.81-13 1.19-2 1.19-2 1.19-4" fill="#EBEBEE"/><path d="M405 304a41 41 0 0 1 6 5c-3 0-3 0-5-1-1.95.34-1.95.34-4.12.94l-2.2.59-1.68.47v-3l-3-1c3.43-2.11 6.01-2.56 10-2" fill="#1A1B1C"/><path d="M268 457c5.27.26 5.27.26 8 1 2.06 2.31 2.06 2.31 3 5-.44 2.17-.44 2.17-1 4l-4.44-3.31-2.49-1.87C269 460 269 460 268 457" fill="#E6C95D"/><path d="M237 356c2 2 2 2 2.2 5.26l-.08 3.86-.05 3.89L239 372l-3 1a1051 1051 0 0 1-.09-10.22q0-2.9.09-5.78z" fill="#121412"/><path d="M1029 182h1l.44 3.38c.56 3.62.56 3.62 1.56 5.62-1.14 5.12-4.71 8.27-9 11-2.94.38-2.94.38-5 0l1.69-1.19c7.97-6.25 7.97-6.25 8.63-11.19l.24-2.74.26-2.76z" fill="#CBCECC"/><path d="m300 464 1 2-2 4h-14c3.55-2.66 4.6-3.39 8.62-4.12 4.23-.81 4.23-.81 6.38-1.88" fill="#D2B56C"/><path d="m857.63 144.88 2.38.12c-4.59 4.76-9.5 9.34-15 13 0-4 0-4 1.66-5.85l2.2-1.78 2.18-1.78 1.96-1.6c2-2 2-2 4.62-2.12" fill="#DEDFE1"/><path d="M240 672v8a27 27 0 0 1-9-1v-2h2l.88-1.94c1.67-3.07 2.64-3.06 6.12-3.06" fill="#CBCECD"/><path d="m388 450 2 3-4 7h2c-.81 1.94-.81 1.94-2 4l-3 1-2-5 2.38-2.19c2.46-2.64 3.55-4.41 4.62-7.81" fill="#DABE66"/><path d="M823 351c3.75 3.75 3.69 7.98 4 13h-2v8h-1l-1.06-9.94-.32-2.86-.28-2.73-.27-2.52L822 352z" fill="#DEDEE3"/><path d="M821 286c0 3 0 3-1.79 5.19l-2.4 2.37-2.35 2.38A20 20 0 0 1 807 300l-2-2 2.99-2.12 3.89-2.76 1.97-1.39 1.89-1.35 1.75-1.23C819 288 819 288 821 286" fill="#E2E3E3"/><path d="M913 170h21v1l-3.38.44C927 172 927 172 925 173q-3.06.1-6.12.06l-3.33-.02L913 173z" fill="#F3F3F5"/><path d="M812 609h3c-.83 5.94-2.19 10.32-6 15 .45-5.27 1.08-10.02 3-15" fill="#F1F1F2"/><path d="m817 465 3 2c.31 3.5.31 3.5 0 7l-2 2c-.41 2.16-.41 2.16-.62 4.62l-.23 2.48-.15 1.9h-1a1314 1314 0 0 1-.09-11.43l-.01-2.44-.01-2.25C816 467 816 467 817 465" fill="#16181A"/><path d="M825 426h2q.06 2.5 0 5l-1 1c-.03 2.23.07 4.45.16 6.68-.18 2.56-.87 4.12-2.16 6.32h-1c-.22-6.73.05-12.54 2-19" fill="#F1F1F1"/><path d="M416 332h2q.76 2.34 1.5 4.69l.84 2.63c.66 2.67.78 4.94.66 7.68l-3 1z" fill="#121413"/><path d="M225 674c-4.26 2.2-7.25 3.16-12.06 2.69l-2.66-.24C208 676 208 676 206 674q3.34-.3 6.69-.56l3.76-.32c3.11-.1 5.56.11 8.55.88" fill="#ECEEEF"/><path d="m211 622 1 2-1.98.37c-4.81.92-9.41 1.93-14.02 3.63v-3c5.15-3.17 9.16-3.35 15-3" fill="#EBECEC"/><path d="m271 441 3 1v10h-2v-6l-4 2c0-4 0-4 1.5-5.75z" fill="#F5DB65"/><path d="M420 353c1.49 1.14 1.49 1.14 3 3 .29 2.7.29 2.7.19 5.69l-.08 3.01-.11 2.3h-2c-1.38-2.76-1.1-5.05-1.06-8.12l.02-3.33z" fill="#0A0C0C"/><path d="M310 622c0 4.35-2.22 6.11-5.04 9.26-2.54 2.26-4.59 2.74-7.96 2.74a194 194 0 0 1 13-12" fill="#19171C"/><path d="M383 433c4.52.53 7.42 2.23 11 5l1 3-3-1v-2l-2.25.75c-2.75.25-2.75.25-5.06-1.56C383 435 383 435 383 433" fill="#D2C179"/><path d="M287 699v2a44 44 0 0 1-10.81 1.06l-2.96-.02L271 702l-1-2c11.52-1.15 11.52-1.15 17-1" fill="#EBEBEE"/><path d="M705 676c8.07-.1 15.99-.03 24 1v1l-14 1v-1l-10-1z" fill="#DEE1DF"/><path d="M394 306c-1.13 3.4-2.19 4.29-4.88 6.56l-2.11 1.82C385 316 385 316 382 318c0-3 0-3 1.43-4.75l1.88-1.81 1.87-1.82c4.07-3.62 4.07-3.62 6.82-3.62" fill="#D1D2D2"/><path d="M406 302c2 1.5 2 1.5 3 3l-2 1-2-1c-4.22-.28-7.17.2-11 2l-1-2c4.48-3.36 7.58-3.52 13-3" fill="#E7E9E8"/><path d="M990 194c4.31 1.57 8.06 3.68 12 6l-1 2c-4.03-1.22-7.59-2.49-11-5z" fill="#E4E5E3"/><path d="m269.19 647.94 3.86.59 2.95.47v1l-20 1c4.59-4.6 7.05-4.02 13.19-3.06" fill="#ACAFAD"/><path d="m308 453 4 2c.12 2.38.12 2.38 0 5l-2 2h-4v-2h2z" fill="#F0D35E"/><path d="M794 247c.71 1.77.71 1.77 1 4-1.43 1.92-1.43 1.92-3.44 3.75l-1.99 1.86L788 258c-.71-1.77-.71-1.77-1-4 1.43-1.92 1.43-1.92 3.44-3.75l1.99-1.86z" fill="#D8D8DC"/><path d="m221 621-1 3c-2.88 1.44-5.42 1.09-8.62 1.06l-3.61-.02L205 625v-1l2.88-.44C211 623 211 623 213 622c5.33-1 5.33-1 8-1" fill="#D3D4D6"/><path d="M240 455h1l2 15h-3c-1.33-10.56-1.33-10.56 0-15" fill="#D1D3D0"/><path d="M670 258v1c-4.67 1.21-9.21 1.09-14 1 1-2 1-2 3.62-3.25 4.09-.91 6.49-.15 10.38 1.25" fill="#D9DBDD"/><path d="m468 680-1 2c-5.7 1.43-11.28.94-17 0v-1c6.02-.61 11.95-1.13 18-1" fill="#E2E3E3"/><path d="M900 174c-1.42 2.83-3.14 3.02-6.06 4.12l-2.79 1.08-2.15.8-2-2q2.4-1.3 4.81-2.56l2.71-1.44c2.48-1 2.48-1 5.48 0" fill="#DADCDD"/><path d="M995 146c3.15.61 5.19 1.64 7.75 3.56l1.86 1.38L1006 152l-1 3-5-3.38-2.81-1.89L995 148z" fill="#D4D5D5"/><path d="m295.25 697.44 3.83.3 2.92.26v1q-3.65.33-7.31.63l-2.09.19c-3.86.3-5.29.39-8.6-1.82 3.82-1.3 7.28-.9 11.25-.56" fill="#C5C6CA"/><path d="m322 611 1 3q-1.35 1.55-2.75 3.06l-1.55 1.73L317 620l-4-1z" fill="#17161B"/><path d="M354 456h2v2h2v4h-6v-4h2z" fill="#F6D061"/><path d="M806 637a301 301 0 0 1 6.74.49c2.62.59 3.57 1.47 5.26 3.51-9.41.18-9.41.18-14-1l2-1z" fill="#F0F3F1"/><path d="M597 520c2.69.31 2.69.31 5 1v2l-7 3-1-3c1.19-1.56 1.19-1.56 3-3" fill="#1F1D20"/><path d="M820 503c3 3 3 3 3.19 5.69L823 511h-2l1 6-2 1z" fill="#F4F4F8"/><path d="M260 316c4.31 1.57 8.06 3.68 12 6l-2 2-5-2.88-2.81-1.61L260 318z" fill="#E3E5E5"/><path d="M849 246c.69 1.62.69 1.62 1 4-1.44 3.25-1.44 3.25-3 6h-2c.48-4.22 1.17-6.8 4-10" fill="#EBE9EC"/><path d="M844 155c.68 1.77.68 1.77 1 4-1.21 1.92-1.21 1.92-2.94 3.75l-1.71 1.86L839 166l-1-4h2l.31-1.81c.78-2.47 1.76-3.51 3.69-5.19" fill="#E1E1E4"/><path d="M806 628c3 4 3 4 2.69 6.75L808 637h-2v2h-2z" fill="#D8DBDB"/><path d="M196 627v2c-1.46 1.44-1.46 1.44-3.38 3a78 78 0 0 0-5.62 5c.31-3.6.99-4.99 3.38-7.81C193 627 193 627 196 627" fill="#D9DCD9"/><path d="m818 579 3 1c-.49 6.05-.49 6.05-1 8l-3 2c-.12-7.62-.12-7.62 1-11" fill="#EEF0F1"/><path d="M236 380q.08 2.68.12 5.38l.08 3.02c-.2 2.6-.2 2.6-2.2 4.6q-.62-2.4-1.19-4.81l-.67-2.71c-.14-2.48-.14-2.48 1.25-4.3C235 380 235 380 236 380" fill="#D3D5D3"/><path d="M314 337v2c-3.98 1.33-7.85 1.07-12 1v-2c4.06-.77 7.86-1.1 12-1" fill="#ECF0ED"/><path d="m553 294 1 2 2 1a472 472 0 0 1-6.05 3.12C548 301 548 301 546 301c1.33-4 3.5-4.84 7-7" fill="#D9DADB"/><path d="M941 125v1c-5.13.1-9.95.04-15-1v-1c5.56-.91 9.68-1.32 15 1" fill="#F3F4F5"/><path d="M303 530h2c-1.78 4.04-4.4 7.46-7 11l-1-3c1.14-2.04 1.14-2.04 2.81-4.19l1.65-2.17z" fill="#E0E3E0"/><path d="M251 486a64 64 0 0 1 8 9c-3 0-3 0-5.69-1.69-2.31-2.31-2.31-2.31-2.62-5.06z" fill="#DBDADE"/><path d="M238 448c2.6 3.9 2.15 7.47 2 12h-2c-.76-4.32-1.16-7.74 0-12" fill="#EFF0EE"/><path d="M422 343c2.83 3.2 3.52 5.78 4 10l-3 2a20 20 0 0 1-1.06-7.69l.02-2.45z" fill="#ECEDEE"/><path d="M413 319h2c2.33 3.63 2.16 6.77 2 11h-2z" fill="#141413"/><path d="M186 634c1.28 5.14.22 6.38-2 11l-3-1z" fill="#E8EAE7"/><path d="m353 581 1 3-6 6-3-1z" fill="#1F2222"/><path d="M253 315v3l1 2-8-1 1-4c3.75-1.12 3.75-1.12 6 0" fill="#131517"/><path d="M241 675h2v9h-3c-.1-6.15-.1-6.15 0-8z" fill="#1A1D1B"/><path d="m390 634 2 1c-1 3-1 3-2.81 4.25-2.53.87-3.71.63-6.19-.25l3-1v-2c1.88-1.06 1.88-1.06 4-2" fill="#1C1C1E"/><path d="M351 462h5v2l4 1-1 2c-5.75-1.88-5.75-1.88-8-3z" fill="#DDC775"/><path d="M821 460c3 3 3 3 3.38 5.56L824 468l-3 2z" fill="#F3F3F8"/><path d="M270 441v3h-2v4h-2v5h-1c-.44-5.28-.44-5.28 0-8 2.5-2.5 2.5-2.5 5-4" fill="#DFD58D"/><path d="m386 438 2 1c1.28 3.85 1.07 6.95 1 11-2.11-1.71-2.94-2.52-3.29-5.26l.1-2.43.08-2.45z" fill="#30230B"/><path d="M645 262c-2.85 1.9-4.42 2.46-7.69 3.12l-2.45.51-1.86.37v-3c3.98-1.33 7.85-1.07 12-1" fill="#EAECEC"/><path d="m326 593 1 3-5 5-3-2z" fill="#E0DFDF"/><path d="m346 459 9 6-2 2-7-3z" fill="#261A0A"/><path d="m331 334 1 3h-10c4.5-3.38 4.5-3.38 9-3" fill="#F1F4F2"/><path d="M277 629h5v2a120 120 0 0 1-6 4c0-4 0-4 1-6" fill="#18181A"/><path d="M813 601h2l1 7-4 1z" fill="#DADBDC"/><path d="m296 465-1 2h-8v-2c3.07-1.53 5.7-.55 9 0" fill="#281A07"/><path d="m277 439-2 12h-1l-.18-1.9-.26-2.48-.24-2.46C273 442 273 442 272 440c2-1 2-1 5-1" fill="#C4B978"/><path d="M744 261v2c-5.54.37-5.54.37-7.88-1.5L735 260c3.2-1.6 5.72-.03 9 1" fill="#EEEEF1"/><path d="M809 221h2c.69 1.62.69 1.62 1 4-1.44 3.25-1.44 3.25-3 6h-1c-.12-6.62-.12-6.62 1-10" fill="#DDDDDE"/><path d="M912 126v1l-11 1-1-2c4.08-1.53 7.79-.63 12 0" fill="#DADADC"/><path d="M253 692c1.94.81 1.94.81 4 2l1 3c-4.75-.75-4.75-.75-7-3z" fill="#1D1C1E"/><path d="M310 608c-1.44 3.81-3.35 5.27-7 7l-2-1 3.38-3 1.89-1.69C308 608 308 608 310 608" fill="#E3E1E4"/><path d="M816 586c2 4 2 4 3 7l-2 3h-2z" fill="#D8DADE"/><path d="m491 565 2 1c-1.88 3.57-3.17 5.55-7 7 .54-3.8 2.2-5.47 5-8" fill="#1B1D1D"/><path d="m821 553 1 2h2l-1 7h-2z" fill="#F1F3F4"/><path d="M274 465c3.72 1.21 7.38 2.51 11 4v1c-4.09.24-7.18-.58-11-2z" fill="#1C1309"/><path d="M272 452h2v6h-4v-4h2z" fill="#F8D356"/><path d="M356 435h2q-.9 6.51-2 13h-1c-.12-6.75-.12-6.75 1-9l-2-1h2z" fill="#121004"/><path d="m795 250 2 2-7 6-2-1z" fill="#07070A"/><path d="M968 180c2.94.75 2.94.75 6 2 .88 2.12.88 2.12 1 4-2.94-1.31-2.94-1.31-6-3z" fill="#F0EFF0"/><path d="m240 659 5 1c-1.31 2-1.31 2-3 4h-3z" fill="#0C0E0B"/><path d="M522 562c-1.69 1.56-1.69 1.56-4 3-2.75-.31-2.75-.31-5-1 3.05-3.05 5.05-3.23 9-2" fill="#DFDFE1"/><path d="m376 550 5 2-1 4-4-2z" fill="#D5D7D9"/><path d="M269 505q1.97.42 3.94.88l2.21.49C277 507 277 507 278 509l-3 1c-3.19-1.88-3.19-1.88-6-4z" fill="#EFF0F1"/><path d="M332 467c4.75.75 4.75.75 7 3-.38 2.62-.38 2.62-1 5h-2v-2h2l-1.88-1.88z" fill="#676867"/><path d="m276 461 3 2-1 4-5-5z" fill="#DFC96C"/><path d="M421 337c2.14 2.14 2.43 3.13 3 6h-2l-1 4-.56-4.44-.32-2.49L420 338z" fill="#DDDDE0"/><path d="M836 168h2c-.75 4.75-.75 4.75-3 7l-3-1q1.91-3.06 4-6" fill="#1F1F20"/><path d="m299 694-2 4-5-1c3.62-3 3.62-3 7-3" fill="#B2B3B7"/><path d="m242 663 1 2a135 135 0 0 1-3 7h-2c-.25-2.25-.25-2.25 0-5 2-2.31 2-2.31 4-4" fill="#DEE0DD"/><path d="m445 600 2 1c-2.31 2.5-2.31 2.5-5 5h-3z" fill="#E5E6E6"/><path d="M283 556h2c-1.44 3.37-3.33 5.51-6 8v-4h2z" fill="#DEDFE0"/><path d="m271 441 3 1v10h-1l-.38-3.38C272 445 272 445 270 443z" fill="#F8E36F"/><path d="m415 319 4 2 1 3c-1.44 2.19-1.44 2.19-3 4z" fill="#D5D6D6"/><path d="m240 315 2 2-2 1a134 134 0 0 0-3 6h-1c-.25-2.25-.25-2.25 0-5 2-2.31 2-2.31 4-4" fill="#121512"/><path d="M823 187h2c-.55 3.37-1.05 5.08-3 8l-2-3c1.38-2.5 1.38-2.5 3-5" fill="#E5E5E6"/><path d="M1026 173h2c1.75 2.25 1.75 2.25 3 5l-2 4z" fill="#E7E8E8"/><path d="M851 151c-1.39 3.37-2.98 4.99-6 7v-4c3.21-3 3.21-3 6-3" fill="#CFCFD1"/><path d="m375 551 2 1c-.75 1.94-.75 1.94-2 4-2.12.75-2.12.75-4 1 2.88-4.88 2.88-4.88 4-6" fill="#F0F2F3"/><path d="m311 462 1 4h-4v2l-4-1z" fill="#362411"/><path d="m359 454 2 1-1 2 5 2-1 2c-1.94-.69-1.94-.69-4-2-.75-2.62-.75-2.62-1-5" fill="#2C2613"/><path d="M817 331c2.25 2.05 3 3.01 4 6l-3 2z" fill="#ECECEE"/><path d="M850 240h2l1 4-5 3z" fill="#DDD"/><path d="M813 216h2a98 98 0 0 1-2 6l-2 1-1-3c1.31-2.19 1.31-2.19 3-4" fill="#E9E9ED"/><path d="M1025 175h2c1.46 2.65 2 3.89 2 7l-3-1z" fill="#1C1E1C"/></svg>