<svg style="background:transparent" version="1.1" xmlns="http://www.w3.org/2000/svg" viewBox="0 0 1248 704"><path d="m524 0 1 3 2.04.09c4.43 1.36 7.02 4.33 10.27 7.53l4.01 3.84 1.92 1.86c2.67 2.55 5.44 4.96 8.24 7.35q1.54 1.35 3 2.81a81 81 0 0 0 5.08 4.58A88 88 0 0 1 565 36q2.71 2.24 5.44 4.46C572 42 572 42 573 45l1.75.38c3.36.93 4.99 3.05 7.25 5.62v2c4.67 1.82 8.9 2.32 13.87 2.37l2.31.04q3.78.07 7.55.1l2.62.03q6.87.07 13.73.11 7.06.04 14.12.19 5.45.08 10.91.09 2.6.02 5.2.08c15.2.36 15.2.36 21.64-5.4q2.09-2.26 4.05-4.61 1.47-1.37 2.99-2.67c6.56-5.87 6.56-5.87 9.51-8.89 3.15-3.07 6.56-5.73 10-8.46a127 127 0 0 0 11.75-10.27 188 188 0 0 1 9.94-8.96l1.9-1.64c5.66-4.84 8.44-5.48 15.81-5.38 6.93.6 10.83 3.7 15.54 8.65 2.94 3.49 4.45 5.93 4.56 10.62l1 3q.15 3.65.13 7.31l.01 2.27.01 7.56.01 5.41.01 14.71.01 12.28.01 28.97.02 29.89.03 40.98v14.42l.01 5.29v7.22l.01 2.11A31 31 0 0 1 759 212l-.51 2.07c-2.22 8.71-6.1 15.68-12.49 21.93q-2.65 3.14-5.25 6.33c-1.95 1.86-3.17 2.13-5.75 2.67l-.94 1.88c-1.45 2.89-3.24 3.58-6.06 5.12-5.86 3.72-5.86 3.72-7 6-.3 5.76.39 10.49 2 16l.88 3.38c2.56 8.27 6.16 15.93 10.12 23.62l1.94 3.88 3.5 6.97c4.49 8.9 8.55 17.64 11.56 27.15a246 246 0 0 0 5.62 15.62A49 49 0 0 1 760 368l.99 1.88c1.15 2.42 1.34 4.27 1.51 6.93.35 4.28 1.31 8.06 2.5 12.19q.06 3 0 6l.5 2.38c.46 2.4.53 4.43.5 6.87V408l1 1q.15 3.88.12 7.75l.02 2.17A48 48 0 0 1 766 430q-.28 2.09-.5 4.19l-.25 2.35q-.25 2.5-.46 5.02A62 62 0 0 1 762 456c3.12-.49 6-1 9-2 11.78-.92 19.6 1.1 28.63 8.75 12.01 11.41 15.56 27.85 16.35 43.99.04 7.19-.95 14.16-1.98 21.26l-.38 4.81c-.62 6.51-2.65 12.43-4.81 18.57C808 554 808 554 808 558l4.25-.44 2.39-.24c2.19-.3 4.22-.76 6.36-1.32q3.82-.77 7.66-1.5C831 554 831 554 834 553q2.68-.3 5.38-.5c3.62-.28 7.06-.76 10.62-1.5 37.61-6.22 76.53-4.51 108.94 17.51A31 31 0 0 1 965 574v2l1.88.88C969 578 969 578 971 580v3l1.84.73c5.99 3.53 8.38 13.81 10.37 20.13 3.42 13.6 1.44 26.86-5.21 39.14-6.84 10.79-14.88 18.78-26 25l-2.55 1.59c-3.63 2.09-7.45 3.19-11.45 4.41l-3.5 1.12a64 64 0 0 1-10.48 1.63C922 677 922 677 919 678q-3.72.15-7.44.12l-3.99.01c-2.82-.1-4.92-.35-7.57-1.13l-3.94-.44c-3.33-.4-5.97-1.2-9.06-2.56l-4.44-1.44A65 65 0 0 1 872 668l-2.94-1.25c-6.96-3.98-11.01-9.45-14.06-16.75l-1.44-2.75c-.9-5.24.36-10.39 2.44-15.25 2.07-1.25 2.07-1.25 4-2l.81-1.81c2.39-4.41 6.85-6.6 11.31-8.57 8.88-1.43 17.45.3 26.03 2.62A161 161 0 0 0 911 625l2.05.41c5.51.95 10.66.44 15.95-1.41 2.8-2.17 4.39-3.82 6-6.94 0-3.14-1.52-5.34-3-8.06v-2l-2.38-.75c-2.86-.99-5.63-2.05-8.43-3.19-12.58-5.03-23.28-6.13-36.81-6.18l-3.03-.02-2.83.01h-2.56C874 597 874 597 873 598h-8l-1 1h-6l-1 1-2.69-.06c-3.31.06-3.31.06-6.12 1a31 31 0 0 1-7.63 1.56c-4.04.38-7.67 1.35-11.56 2.5l-3.69.5c-3.31.5-3.31.5-5.43 1.56-2.4 1.2-4.23.94-6.88.94l-2.19.94c-3.46 1.3-6.66 1.48-10.33 1.78-3.28.37-6.31 1.34-9.48 2.28-2.66.41-5.33.69-8 1l-1.94.52c-2.31.54-4.44.55-6.81.6-5.37.46-7.96 2.62-11.66 6.38C761 623 761 623 759 623l-.72 1.77c-1.55 2.71-3.3 4.1-5.78 5.98l-2.41 1.86C748 634 748 634 746 634a45 45 0 0 0 5.75 4.75c7.38 5.57 11.75 9.73 13.25 19.25.26 4.89-.15 7.94-3.25 11.81L759 672l-2.44 2.19c-4.71 3.33-9.26 4.06-14.95 4.08h-3.65l-3.77-.02-3.74.02A74 74 0 0 1 705 674l-4-1 1.68 1.76c7.07 7.62 7.07 7.62 8.32 13.24l1.19 2.75c.81 3.24.74 5.18.36 8.45l-.3 2.73L712 704q-14.4.18-28.79.26-6.69.04-13.37.12-6.45.07-12.89.09-2.47.01-4.93.06-3.44.04-6.89.04l-3.96.03c-3.17-.6-3.17-.6-5.05-2.98L635 699l-1.11-2.42A46 46 0 0 1 632 673l-.06-2.81C632 668 632 668 634 665l-15 1 1 1c.07 2.33 0 4.64-.06 6.97C620 676 620 676 621 677c.14 4.25.19 7.91-1 12l-.38 3.25C619 696 619 696 616 704h-75c-2.66-5.31-2.48-8.84-.88-14.44 1.71-4.79 4.42-7.92 7.88-11.56q1.45-1.7 2.88-3.44L553 672a50 50 0 0 0-9.12 2.44c-14.06 4.71-32.95 6.45-46.95.71-1.56-.96-1.56-.96-3.93-3.15l-2.31-2.12c-2.44-4.16-2.77-8.11-2.69-12.88.75-2.75.75-2.75 2-5l1.2-2.81c2.07-3.67 4.64-5.91 7.92-8.44 5.78-4.54 5.78-4.54 6.88-6.75l-1.71-.79a46 46 0 0 1-6.85-4.59l-2.32-1.77C493 625 493 625 491.54 622.96c-1.88-2.4-3.92-3.42-6.54-4.96a89 89 0 0 1-15-17q-1.42-1.92-2.88-3.81c-5.34-7.12-10.38-14.09-14.12-22.19l-1.5-2.94c-4.8-9.79-7.77-19.4-10.03-30.06-.47-2-.47-2-1.59-5.25-.89-2.79-.96-4.85-.88-7.75l-1-4c-2.42-14.88-1.79-34.42 5-48l.91-1.99c2.85-6.1 5.86-11.01 12.09-14.01l3.38-2.44c6.6-4.11 14.45-6.13 22.19-5.07 2.87.71 5.64 1.52 8.43 2.51l-.94-3.31c-1.1-4.37-1.5-8.69-1.81-13.17-.25-2.52-.25-2.52-.74-4.42-.87-3.59-.93-7.24-1.13-10.91l-.16-2.37A62 62 0 0 1 486 408q.03-2.4-.06-4.81c-.04-4.27.5-8.07 1.43-12.23.65-3.03 1.18-6.06 1.69-9.11 1.66-9.78 3.44-19.48 7.13-28.73 1.36-3.55 2.49-7.18 3.65-10.8a300 300 0 0 1 9.6-23.44l1.12-2.56c2.14-4.78 4.51-9.2 7.35-13.6 3.62-5.72 5.8-12.38 8.09-18.72l1.04-2.8c5.92-16.06 5.92-16.06 3.96-24.2-4.18-4.9-9.27-8.17-15-11a89 89 0 0 1-4-4l-2.69-2.56C507 237 507 237 506 234l-1.88-.88c-4.6-2.43-6.01-8.09-7.68-12.74l-1.26-3.42c-3.46-10.94-3.45-21.84-3.38-33.19l.01-5.47.06-14.78.05-12.35q.05-14.57.14-29.14.08-15.02.11-30.04.03-12.92.1-25.83l.06-15.42q.01-7.24.07-14.47l.02-5.31q0-3.62.05-7.25l-.02-2.12c.09-4.97 1.54-7.71 4.55-11.59l1.75-2.56C506.21-.64 513.58-.61 524 0" fill="#161817"/><path d="M882.55 550.76q3.62-.02 7.24-.07c13.78-.1 27.25 1.41 40.33 6l2.24.77c17.87 6.44 34.46 17.56 43.35 34.88 6.1 12.99 8.14 27.37 3.55 41.37-6.75 17.61-18.7 27.94-35.44 35.5-18.52 8.07-43.7 7.3-62.5.54-9.9-4.08-18.76-8.62-23.7-18.5-1.25-6.49-1.97-12.73 1.5-18.62 4-5.51 8.23-8.79 14.88-10.63 8.55-.85 15.88.49 24 3 11.45 3.19 22.85 5.39 34.03.2 2.81-1.71 3.95-3.07 4.97-6.2.67-3.56.67-5.82-1.15-9.02-7.6-9.71-20.42-13.77-32.22-15.6-28.9-3.04-57.79 3.66-85.76 10.18a534 534 0 0 1-25.69 5.25l-3.56.67A86 86 0 0 1 770 612c2.1-4.46 5.17-7.89 8.36-11.58 2.3-2.68 4.26-5.16 5.64-8.42h2l.75-2.05c1.78-4.22 4.01-8.19 6.23-12.2a62 62 0 0 0 4.77-11c1.2-2.71 1.83-3.55 4.52-4.85A82 82 0 0 1 812 560l5.85-1.01 6.74-1.1c7.88-1.27 15.72-2.74 23.57-4.18a192 192 0 0 1 34.4-2.95" fill="#141615"/><path d="m524 0 1 3 2.04.09c4.43 1.36 7.02 4.33 10.27 7.53l4.01 3.84 1.92 1.86c2.67 2.55 5.44 4.96 8.24 7.35q1.54 1.35 3 2.81a81 81 0 0 0 5.08 4.58A88 88 0 0 1 565 36q2.71 2.24 5.44 4.46C572 42 572 42 573 45l1.75.38c3.36.93 4.99 3.05 7.25 5.62v2c4.67 1.82 8.9 2.32 13.87 2.37l2.31.04q3.78.07 7.55.1l2.62.03q6.87.07 13.73.11 7.06.04 14.12.19 5.45.08 10.91.09 2.6.02 5.2.08c15.2.36 15.2.36 21.64-5.4q2.09-2.26 4.05-4.61 1.47-1.37 2.99-2.67c6.56-5.87 6.56-5.87 9.51-8.89 3.15-3.07 6.56-5.73 10-8.46a127 127 0 0 0 11.75-10.27 188 188 0 0 1 9.94-8.96l1.9-1.64c5.66-4.84 8.44-5.48 15.81-5.38 6.93.6 10.83 3.7 15.54 8.65 2.94 3.49 4.45 5.93 4.56 10.62l1 3q.15 3.65.13 7.31l.01 2.27.01 7.56.01 5.41.01 14.71.01 12.28.01 28.97.02 29.89.03 40.98v14.42l.01 5.29v7.22l.01 2.11A31 31 0 0 1 759 212l-.51 2.07c-2.22 8.71-6.1 15.68-12.49 21.93q-2.65 3.14-5.25 6.33c-1.95 1.86-3.17 2.13-5.75 2.67l-.94 1.88c-1.45 2.89-3.24 3.58-6.06 5.12-5.86 3.72-5.86 3.72-7 6-.3 5.76.39 10.49 2 16l.88 3.38c2.56 8.27 6.16 15.93 10.12 23.62l1.94 3.88 3.5 6.97c4.49 8.9 8.55 17.64 11.56 27.15a246 246 0 0 0 5.62 15.62A49 49 0 0 1 760 368l.99 1.88c1.15 2.42 1.34 4.27 1.51 6.93.35 4.28 1.31 8.06 2.5 12.19q.06 3 0 6l.5 2.38c.46 2.4.53 4.43.5 6.87V408l1 1q.15 3.88.12 7.75l.02 2.17A48 48 0 0 1 766 430q-.28 2.09-.5 4.19l-.25 2.35q-.25 2.5-.46 5.02A62 62 0 0 1 762 456c3.12-.49 6-1 9-2 11.78-.92 19.6 1.1 28.63 8.75 12.01 11.41 15.56 27.85 16.35 43.99.04 7.19-.95 14.16-1.98 21.26l-.38 4.81c-.62 6.51-2.65 12.43-4.81 18.57C808 554 808 554 808 558l4.25-.44 2.39-.24c2.19-.3 4.22-.76 6.36-1.32q3.82-.77 7.66-1.5C831 554 831 554 834 553q2.68-.3 5.38-.5c3.62-.28 7.06-.76 10.62-1.5 37.61-6.22 76.53-4.51 108.94 17.51A31 31 0 0 1 965 574v2l1.88.88C969 578 969 578 971 580v3l1.84.73c5.99 3.53 8.38 13.81 10.37 20.13 3.42 13.6 1.44 26.86-5.21 39.14-6.84 10.79-14.88 18.78-26 25l-2.55 1.59c-3.63 2.09-7.45 3.19-11.45 4.41l-3.5 1.12a64 64 0 0 1-10.48 1.63C922 677 922 677 919 678q-3.72.15-7.44.12l-3.99.01c-2.82-.1-4.92-.35-7.57-1.13l-3.94-.44c-3.33-.4-5.97-1.2-9.06-2.56l-4.44-1.44A65 65 0 0 1 872 668l-2.94-1.25c-6.96-3.98-11.01-9.45-14.06-16.75l-1.44-2.75c-.9-5.24.36-10.39 2.44-15.25 2.07-1.25 2.07-1.25 4-2l.81-1.81c2.39-4.41 6.85-6.6 11.31-8.57 8.88-1.43 17.45.3 26.03 2.62A161 161 0 0 0 911 625l2.05.41c5.51.95 10.66.44 15.95-1.41 2.8-2.17 4.39-3.82 6-6.94 0-3.14-1.52-5.34-3-8.06v-2l-2.38-.75c-2.86-.99-5.63-2.05-8.43-3.19-12.58-5.03-23.28-6.13-36.81-6.18l-3.03-.02-2.83.01h-2.56C874 597 874 597 873 598h-8l-1 1h-6l-1 1-2.69-.06c-3.31.06-3.31.06-6.12 1a31 31 0 0 1-7.63 1.56c-4.04.38-7.67 1.35-11.56 2.5l-3.69.5c-3.31.5-3.31.5-5.43 1.56-2.4 1.2-4.23.94-6.88.94l-2.19.94c-3.46 1.3-6.66 1.48-10.33 1.78-3.28.37-6.31 1.34-9.48 2.28-2.66.41-5.33.69-8 1l-1.94.52c-2.31.54-4.44.55-6.81.6-5.37.46-7.96 2.62-11.66 6.38C761 623 761 623 759 623l-.72 1.77c-1.55 2.71-3.3 4.1-5.78 5.98l-2.41 1.86C748 634 748 634 746 634a45 45 0 0 0 5.75 4.75c7.38 5.57 11.75 9.73 13.25 19.25.26 4.89-.15 7.94-3.25 11.81L759 672l-2.44 2.19c-4.71 3.33-9.26 4.06-14.95 4.08h-3.65l-3.77-.02-3.74.02A74 74 0 0 1 705 674l-4-1 1.68 1.76c7.07 7.62 7.07 7.62 8.32 13.24l1.19 2.75c1.14 4.56.48 8.65-.19 13.25l-4-1 .18-2.75c.35-9.45-.57-15.23-7.01-22.25-4.36-4.13-8.45-6.26-14.17-8v-9l1.98 1.14c14.91 8.35 27.49 12.22 44.58 12.17l3.54.05c15.08.01 15.08.01 20.58-4.84 3.2-3.68 2.71-7.74 2.66-12.41-.76-6.93-5.17-11.6-10.43-15.86-3.13-2.05-6.34-3.12-9.91-4.25v-2c2.05-1.55 4.12-3 6.25-4.44a123 123 0 0 0 17.03-14.31c5.63-4.66 12.65-4.98 19.66-6.06a555 555 0 0 0 33.59-6.64c4.44-.99 8.9-1.87 13.36-2.73q4.91-.98 9.81-2.04c28.24-6 60.49-11.42 87.3 2.22 4.42 3.17 7.98 6.47 11 11 .34 3.62.27 6.27-1 9.69-3.78 4.37-9.93 7.08-15.68 7.51-9.19.14-17.36-1.36-26.12-4.07-9.45-2.87-19.27-4.09-28.33.6-4.14 2.82-6.95 6.65-8.87 11.27-.79 6.58-.51 13.25 3 19 7.62 9.5 23.32 15.07 35.01 16.56 5.83.6 11.64.62 17.49.63l3.26.03c16.99.04 35.42-5.73 48.05-17.47 12.11-13.29 16.36-28 15.67-45.59-.46-6.45-2.23-11.58-5.48-17.16l-1.32-2.59c-9.89-18.32-29.05-28.44-48.3-34.22l-1.95-.59c-12.24-3.45-24.5-4-37.12-3.98h-2.45A221 221 0 0 0 841 556l-5.87 1.09q-9.31 1.73-18.59 3.61l-2.85.55-2.24.45c-3.5.43-6.93.34-10.45.3l1.17-2.91c8.85-22.87 14.68-53.69 6.09-77.36-4.53-9.85-9.84-17.44-19.88-22.17-10.13-3.61-20.44-1.83-30.38 1.44l.26-1.89 1.18-8.61.41-2.98.79-5.86q.44-3.23.95-6.44c.77-6.37.61-12.82.6-19.22v-2.1c-.03-10.11-.33-19.93-2.19-29.9l-.34-2.04c-3.83-22.58-11.7-44.61-21.47-65.27l-1.03-2.18a202 202 0 0 0-6.22-12.08c-6.51-11.7-12.91-25.31-13.32-38.87l-.14-3.37c1.03-6.29 6.98-9.44 11.83-13.07C742.86 236.8 753.12 226.59 756 209q.15-3.94.15-7.89l.01-2.39.02-7.91.02-5.68.04-18.63.01-6.41.04-30.13q.02-17.4.08-34.79.04-13.44.05-26.89l.03-16.06q.04-7.54.02-15.1l.02-5.54q.02-3.78 0-7.57l.03-2.21c-.06-5.08-1.51-7.79-4.52-11.8V8l-2.19-.88C747 6 747 6 744.81 4.88c-4.84-1.51-9.9-1.93-14.74-.18-11.25 6.51-21.03 17.06-30.39 25.96a541 541 0 0 1-22.74 20.06l-1.77 1.51-1.56 1.33C672 55 672 55 670.38 57.05c-3.23 2.65-6.11 2.58-10.12 2.63l-2.36.07a655 655 0 0 1-10.37.17q-7.02.11-14.04.15-7.2.06-14.39.29-5.57.12-11.15.12-2.66.03-5.3.12c-9.32.32-15.92-.15-23.11-6.53a143 143 0 0 1-7.1-7.47 55 55 0 0 0-5.75-5.41q-4.39-3.8-8.69-7.69-5.35-4.83-10.81-9.55-3.32-2.99-6.57-6.05c-8.88-8.31-15.97-14.42-28.54-14.31-5.57.74-8.94 3.81-12.42 8.04-3.43 4.87-3.81 9.05-3.81 14.82l-.01 2.32-.02 7.71-.02 5.53-.04 18.17-.01 6.26-.04 29.43q-.02 16.97-.08 33.93-.04 13.13-.05 26.25l-.03 15.67q-.04 7.38-.02 14.75l-.02 5.4c-.13 17.5 3.28 32.13 15.47 45.3 5.88 5.75 12.7 10.56 19.28 15.48A27 27 0 0 1 534 256c.3 3.12.3 3.12.31 7l.05 3.81c-.41 8.41-4.06 16.37-7.36 24l-1.18 2.75a239 239 0 0 1-9.26 18.63C494.48 353.2 484.19 401.79 492 448l.58 3.67A467 467 0 0 0 494 460c-3.47-.46-6.67-.89-10-2-10.8-.8-19.91-.14-28.75 6.62-9.45 8.92-13.67 22.68-14.36 35.38q-.08 3.25-.08 6.5v2.37c.08 7.5.96 14.73 2.19 22.13l.47 2.99c5.28 31.35 20.59 57.43 42.53 80.01l1.59 1.67c4.22 4.35 8.72 8.05 13.6 11.64l2.11 1.59c3.15 2.34 6.14 4.42 9.7 6.1v2l-1.94.66c-7.52 2.76-13.35 5.96-17.5 13.03-2.2 4.96-2.36 9.98-1.56 15.31 2.2 4.4 5.03 5.74 9.57 7.38 4.68 1.19 9.39 1.02 14.18.93l3.25-.04c14.52-.26 28.2-3.04 40.86-10.47C563 662 563 662 565 662v8l-2.23 1.17c-15.33 8.18-15.33 8.18-18.34 17.63-.58 2.97-.78 5.93-.99 8.95l-.26 3.55-.18 2.7-3-1c-1.19-6.79-1.16-11.77 2-18a65 65 0 0 1 6-7q1.45-1.7 2.88-3.44L553 672a50 50 0 0 0-9.12 2.44c-14.06 4.71-32.95 6.45-46.95.71-1.56-.96-1.56-.96-3.93-3.15l-2.31-2.12c-2.44-4.16-2.77-8.11-2.69-12.88.75-2.75.75-2.75 2-5l1.2-2.81c2.07-3.67 4.64-5.91 7.92-8.44 5.78-4.54 5.78-4.54 6.88-6.75l-1.71-.79a46 46 0 0 1-6.85-4.59l-2.32-1.77C493 625 493 625 491.54 622.96c-1.88-2.4-3.92-3.42-6.54-4.96a89 89 0 0 1-15-17q-1.42-1.92-2.88-3.81c-5.34-7.12-10.38-14.09-14.12-22.19l-1.5-2.94c-4.8-9.79-7.77-19.4-10.03-30.06-.47-2-.47-2-1.59-5.25-.89-2.79-.96-4.85-.88-7.75l-1-4c-2.42-14.88-1.79-34.42 5-48l.91-1.99c2.85-6.1 5.86-11.01 12.09-14.01l3.38-2.44c6.6-4.11 14.45-6.13 22.19-5.07 2.87.71 5.64 1.52 8.43 2.51l-.94-3.31c-1.1-4.37-1.5-8.69-1.81-13.17-.25-2.52-.25-2.52-.74-4.42-.87-3.59-.93-7.24-1.13-10.91l-.16-2.37A62 62 0 0 1 486 408q.03-2.4-.06-4.81c-.04-4.27.5-8.07 1.43-12.23.65-3.03 1.18-6.06 1.69-9.11 1.66-9.78 3.44-19.48 7.13-28.73 1.36-3.55 2.49-7.18 3.65-10.8a300 300 0 0 1 9.6-23.44l1.12-2.56c2.14-4.78 4.51-9.2 7.35-13.6 3.62-5.72 5.8-12.38 8.09-18.72l1.04-2.8c5.92-16.06 5.92-16.06 3.96-24.2-4.18-4.9-9.27-8.17-15-11a89 89 0 0 1-4-4l-2.69-2.56C507 237 507 237 506 234l-1.88-.88c-4.6-2.43-6.01-8.09-7.68-12.74l-1.26-3.42c-3.46-10.94-3.45-21.84-3.38-33.19l.01-5.47.06-14.78.05-12.35q.05-14.57.14-29.14.08-15.02.11-30.04.03-12.92.1-25.83l.06-15.42q.01-7.24.07-14.47l.02-5.31q0-3.62.05-7.25l-.02-2.12c.09-4.97 1.54-7.71 4.55-11.59l1.75-2.56C506.21-.64 513.58-.61 524 0" fill="#E4E6E6"/><path d="M673 495h1c1.16 7.47-2.75 12.12-7 18-2.89 3.91-6 7.19-10 10h-2v2l-8.85 5.16C641.23 533 641.23 533 639 533l.43 3.52a286 286 0 0 1 1.87 33.63l.01 5.03.01 10.47q-.01 5.26.02 10.53c.28 55.57.28 55.57-4.34 64.82h-22a404 404 0 0 1-4-49l-.03-1.98c-.42-25.73.59-51.33 2.03-77.02l-2.46-1.2-3.24-1.6-3.21-1.57c-3.98-2.1-7.85-4.47-11.09-7.63v-2l-1.71-.59c-3.22-1.98-4.94-4.81-6.98-7.91l-1.22-1.8c-3.17-4.71-4.21-7.01-4.09-12.7l1.88 1.94L584 501l2.03 2.02a88 88 0 0 0 15.59 11.86l1.85 1.11c7.12 4.16 13.54 6.57 21.84 6.45l2.25-.03A39 39 0 0 0 645 518l2.95-1.47c9.93-5.38 18.07-12.69 25.05-21.53" fill="#000"/><path d="m524 0 1 3 2.04.09c4.43 1.36 7.02 4.33 10.27 7.53l4.01 3.84 1.92 1.86c2.67 2.55 5.44 4.96 8.24 7.35q1.54 1.35 3 2.81a81 81 0 0 0 5.08 4.58A88 88 0 0 1 565 36q2.71 2.24 5.44 4.46C572 42 572 42 573 45l1.75.38c3.36.93 4.99 3.05 7.25 5.62v2c4.67 1.82 8.9 2.32 13.87 2.37l2.31.04q3.78.07 7.55.1l2.62.03q6.87.07 13.73.11 7.06.04 14.12.19 5.45.08 10.91.09 2.6.02 5.2.08c15.2.36 15.2.36 21.64-5.4q2.09-2.26 4.05-4.61 1.47-1.37 2.99-2.67c6.56-5.87 6.56-5.87 9.51-8.89 3.15-3.07 6.56-5.73 10-8.46a127 127 0 0 0 11.75-10.27 188 188 0 0 1 9.94-8.96l1.9-1.64c5.66-4.84 8.44-5.48 15.81-5.38 7.4.64 12.62 4.67 17.4 10.21 3.66 6.57 2.68 14.48 2.52 21.8l-.03 5.71q-.05 7.72-.18 15.43-.1 8.09-.15 16.16-.13 15.28-.33 30.57-.21 17.4-.35 34.81-.32 35.79-.78 71.58h-1v-2.95q-.06-35.53-.18-71.06-.07-17.18-.09-34.36-.02-14.97-.08-29.95-.04-7.93-.04-15.86 0-7.46-.05-14.93l-.01-5.47q0-3.75-.03-7.49l.02-2.18c-.08-5.05-1.56-7.76-4.54-11.75V8l-2.19-.88C747 6 747 6 744.81 4.88c-4.84-1.51-9.9-1.93-14.74-.18-11.25 6.51-21.03 17.06-30.39 25.96a541 541 0 0 1-22.74 20.06l-1.77 1.51-1.56 1.33C672 55 672 55 670.38 57.05c-3.23 2.65-6.11 2.58-10.12 2.63l-2.36.07a655 655 0 0 1-10.37.17q-7.02.11-14.04.15-7.2.06-14.39.29-5.57.12-11.15.12-2.66.03-5.3.12c-9.32.32-15.92-.15-23.11-6.53a143 143 0 0 1-7.1-7.47 55 55 0 0 0-5.75-5.41q-4.39-3.8-8.69-7.69-5.35-4.83-10.81-9.55-3.32-2.99-6.57-6.05c-8.88-8.31-15.97-14.42-28.54-14.31-5.57.74-8.94 3.81-12.42 8.04-3.43 4.87-3.81 9.05-3.81 14.82l-.01 2.32-.02 7.71-.02 5.53-.04 18.17-.01 6.26-.04 29.43q-.02 16.97-.08 33.93-.04 13.13-.05 26.25l-.03 15.67q-.04 7.38-.02 14.75l-.02 5.4c-.13 17.5 3.28 32.13 15.47 45.3 5.88 5.75 12.7 10.56 19.28 15.48A27 27 0 0 1 534 256c.3 3.12.3 3.12.31 7l.05 3.81c-.41 8.41-4.06 16.37-7.36 24l-1.18 2.75a239 239 0 0 1-9.26 18.63C494.48 353.2 484.19 401.79 492 448l.58 3.67A467 467 0 0 0 494 460c-3.47-.46-6.67-.89-10-2-10.8-.8-19.91-.14-28.75 6.62-9.45 8.92-13.67 22.68-14.36 35.38q-.08 3.25-.08 6.5v2.37c.08 7.5.96 14.73 2.19 22.13l.47 2.99c5.28 31.35 20.59 57.43 42.53 80.01l1.59 1.67c4.22 4.35 8.72 8.05 13.6 11.64l2.11 1.59c3.15 2.34 6.14 4.42 9.7 6.1v2l-1.94.66c-7.52 2.76-13.35 5.96-17.5 13.03-2.2 4.96-2.36 9.98-1.56 15.31 2.2 4.4 5.03 5.74 9.57 7.38 4.68 1.19 9.39 1.02 14.18.93l3.25-.04c14.52-.26 28.2-3.04 40.86-10.47C563 662 563 662 565 662v8l-2.23 1.17c-15.33 8.18-15.33 8.18-18.34 17.63-.58 2.97-.78 5.93-.99 8.95l-.26 3.55-.18 2.7-3-1c-1.19-6.79-1.16-11.77 2-18a65 65 0 0 1 6-7q1.45-1.7 2.88-3.44L553 672a50 50 0 0 0-9.12 2.44c-14.06 4.71-32.95 6.45-46.95.71-1.56-.96-1.56-.96-3.93-3.15l-2.31-2.12c-2.44-4.16-2.77-8.11-2.69-12.88.75-2.75.75-2.75 2-5l1.2-2.81c2.07-3.67 4.64-5.91 7.92-8.44 5.78-4.54 5.78-4.54 6.88-6.75l-1.71-.79a46 46 0 0 1-6.85-4.59l-2.32-1.77C493 625 493 625 491.54 622.96c-1.88-2.4-3.92-3.42-6.54-4.96a89 89 0 0 1-15-17q-1.42-1.92-2.88-3.81c-5.34-7.12-10.38-14.09-14.12-22.19l-1.5-2.94c-4.8-9.79-7.77-19.4-10.03-30.06-.47-2-.47-2-1.59-5.25-.89-2.79-.96-4.85-.88-7.75l-1-4c-2.42-14.88-1.79-34.42 5-48l.91-1.99c2.85-6.1 5.86-11.01 12.09-14.01l3.38-2.44c6.6-4.11 14.45-6.13 22.19-5.07 2.87.71 5.64 1.52 8.43 2.51l-.94-3.31c-1.1-4.37-1.5-8.69-1.81-13.17-.25-2.52-.25-2.52-.74-4.42-.87-3.59-.93-7.24-1.13-10.91l-.16-2.37A62 62 0 0 1 486 408q.03-2.4-.06-4.81c-.04-4.27.5-8.07 1.43-12.23.65-3.03 1.18-6.06 1.69-9.11 1.66-9.78 3.44-19.48 7.13-28.73 1.36-3.55 2.49-7.18 3.65-10.8a300 300 0 0 1 9.6-23.44l1.12-2.56c2.14-4.78 4.51-9.2 7.35-13.6 3.62-5.72 5.8-12.38 8.09-18.72l1.04-2.8c5.92-16.06 5.92-16.06 3.96-24.2-4.18-4.9-9.27-8.17-15-11a89 89 0 0 1-4-4l-2.69-2.56C507 237 507 237 506 234l-1.88-.88c-4.6-2.43-6.01-8.09-7.68-12.74l-1.26-3.42c-3.46-10.94-3.45-21.84-3.38-33.19l.01-5.47.06-14.78.05-12.35q.05-14.57.14-29.14.08-15.02.11-30.04.03-12.92.1-25.83l.06-15.42q.01-7.24.07-14.47l.02-5.31q0-3.62.05-7.25l-.02-2.12c.09-4.97 1.54-7.71 4.55-11.59l1.75-2.56C506.21-.64 513.58-.61 524 0" fill="#E5E7E7"/><path d="m588 138 2.17 1.47c6.7 5.13 11.27 13.22 12.83 21.53.99 8.93-.83 17.35-5.92 24.81-5.66 6.74-11.8 10.43-20.08 13.19-12.32.71-21.09.04-30.89-7.98-6.42-6.15-9.62-12.99-10.48-21.85-.14-8.5.36-15.01 5.37-22.17l1.32-1.95c10.4-13.67 31.73-17.04 45.68-7.05m-40.88 3.97A57 57 0 0 0 543 148l-1.12 1.83c-2.35 5.82-1.93 13.29.18 19.1 3.56 6.37 8.43 10.81 14.94 14.07q3.62.22 7.25.25l3.95.08c6.56-.57 10.78-3.61 15.19-8.25a29 29 0 0 0 6.06-19.56c-1.28-7.23-4.97-12.79-10.61-17.36-9.92-6.23-23.62-4.69-31.72 3.81" fill="#EDC64C"/><path d="M739 470h2c.94 33.7-4.76 66.09-16.21 97.81q-1.1 3.07-2.17 6.16a254 254 0 0 1-6.24 16.28 106 106 0 0 0-4.59 13.18 74 74 0 0 1-2.69 7.21 127 127 0 0 0-5.1 15.92l-.77 2.94c-2.86 11.37-4.6 22.91-6.23 34.5-1.8.62-1.8.62-4 1-3.25-1.94-3.25-1.94-6-4 .56-23.96 9.41-48.52 18.25-70.54 2.89-7.26 5.37-14.67 7.91-22.06q1.2-3.42 2.44-6.81a267 267 0 0 0 7.66-24.44c.87-3.3 1.8-6.28 3.2-9.41 2.27-5.08 3.28-10.52 4.48-15.93l.78-3.46a1065 1065 0 0 0 5.07-23.85c.95-4.82 1.65-9.62 2.21-14.5" fill="#000101"/><path d="M693.73 135.68c9.08 5.27 15.97 12.15 19.27 22.32 1.3 11.78-.71 21.85-8.06 31.38-7.23 7.37-15.28 10.21-25.44 10.37-10.62-.18-18.5-3.29-26-11-7.27-9.15-8.71-18.37-7.78-29.79 1-7.01 5-12.45 10.28-16.96l2.75-2.56c9.99-7.95 23.36-9.28 34.98-3.76M653 147c-3.64 6-3.9 12.16-3 19 2.26 7.36 6.62 12.75 13 17 5.99 2.92 13 3.21 19.39 1.28a30 30 0 0 0 10.6-8.28l1.43-1.53c4.35-5.53 4.5-11.78 4.12-18.55-.95-6.94-3.53-11.19-8.67-15.86-12.82-9.14-27.68-4.48-36.87 6.94" fill="#EEC950"/><path d="M512 471c2.29 3.82 2.94 7.98 3.77 12.29l1.01 5.05 1.53 7.86c3.67 18.71 8.77 36.61 15 54.61l1.75 5.08c2.87 8.33 5.82 16.6 9.06 24.8 23.65 60.06 23.65 60.06 20.88 80.31-1.87 2.74-3.77 4.19-7 5l-3-1-.27-2.42c-1.92-16.66-4.39-32.61-9.73-48.58l-.74-2.25a455 455 0 0 0-5.51-15.69l-.91-2.47q-3.15-8.48-6.46-16.9l-2.6-6.69q-1.02-2.63-2.08-5.25c-7.04-18.36-11.38-38.25-13.7-57.75l-.39-3.24c-1.06-10.86-.7-21.86-.61-32.76" fill="#000101"/><path d="m524 0 1 3 2.04.09c4.43 1.36 7.02 4.33 10.27 7.53l4.01 3.84 1.92 1.86c2.67 2.55 5.44 4.96 8.24 7.35q1.54 1.35 3 2.81a81 81 0 0 0 5.08 4.58A88 88 0 0 1 565 36q2.71 2.24 5.44 4.46C572 42 572 42 573 45l1.75.38c3.36.93 4.99 3.05 7.25 5.62v2c4.67 1.82 8.9 2.32 13.87 2.37l2.31.04q3.78.07 7.55.1l2.62.03q6.87.07 13.73.11 7.06.04 14.12.19 5.45.08 10.91.09 2.6.02 5.2.08c15.2.36 15.2.36 21.64-5.4q2.09-2.26 4.05-4.61 1.47-1.37 2.99-2.67c6.56-5.87 6.56-5.87 9.51-8.89 3.15-3.07 6.56-5.73 10-8.46a127 127 0 0 0 11.75-10.27 188 188 0 0 1 9.94-8.96l1.9-1.64c5.66-4.84 8.44-5.48 15.81-5.38 7.4.64 12.62 4.67 17.4 10.21 3.66 6.57 2.68 14.48 2.52 21.8l-.03 5.71q-.05 7.72-.18 15.43-.1 8.09-.15 16.16-.13 15.28-.33 30.57-.21 17.4-.35 34.81-.32 35.79-.78 71.58h-1v-2.95q-.06-35.53-.18-71.06-.07-17.18-.09-34.36-.02-14.97-.08-29.95-.04-7.93-.04-15.86 0-7.46-.05-14.93l-.01-5.47q0-3.75-.03-7.49l.02-2.18c-.08-5.05-1.56-7.76-4.54-11.75V8l-2.19-.88C747 6 747 6 744.81 4.88c-4.84-1.51-9.9-1.93-14.74-.18-11.25 6.51-21.03 17.06-30.39 25.96a541 541 0 0 1-22.74 20.06l-1.77 1.51-1.56 1.33C672 55 672 55 670.38 57.05c-3.23 2.65-6.11 2.58-10.12 2.63l-2.36.07a655 655 0 0 1-10.37.17q-7.02.11-14.04.15-7.2.06-14.39.29-5.57.12-11.15.12-2.66.03-5.3.12c-9.32.32-15.92-.15-23.11-6.53a143 143 0 0 1-7.1-7.47 55 55 0 0 0-5.75-5.41q-4.39-3.8-8.69-7.69-5.35-4.83-10.81-9.55-3.32-2.99-6.57-6.05c-8.88-8.31-15.97-14.42-28.54-14.31-5.57.74-8.94 3.81-12.42 8.04-3.44 4.88-3.8 9.06-3.79 14.84v30.67l-.01 15.77.01 26.52v30.61q-.02 13.15 0 26.29l-.01 15.7.01 14.78v5.41c-.01 8.65.03 17.19 1.13 25.78l-2-1c-3.41-11.04-3.41-22.25-3.31-33.68l.01-5.48q.01-7.36.07-14.72l.05-12.33q.06-14.52.16-29.06.1-14.98.14-29.95.03-12.9.11-25.79.05-7.68.07-15.37.02-7.22.09-14.43l.02-5.28q0-3.61.05-7.23l-.02-2.11c.1-4.96 1.56-7.69 4.56-11.57l1.75-2.56C506.21-.64 513.58-.61 524 0" fill="#ECEEEE"/><path d="M758 19h2c1.17 3.51 1.14 6.66 1.13 10.31l.01 2.27.01 7.56.01 5.41.01 14.71.01 12.28.01 28.97.02 29.89.03 40.98v14.42l.01 5.29v7.22l.01 2.11A31 31 0 0 1 759 212l-.51 2.07c-2.22 8.71-6.1 15.68-12.49 21.93q-2.65 3.14-5.25 6.33c-1.95 1.86-3.17 2.13-5.75 2.67l-.94 1.88c-1.45 2.89-3.24 3.58-6.06 5.12-5.86 3.72-5.86 3.72-7 6-.3 5.76.39 10.49 2 16l.88 3.38c2.56 8.27 6.16 15.93 10.12 23.62l1.94 3.88 3.5 6.97c4.49 8.9 8.55 17.64 11.56 27.15a246 246 0 0 0 5.62 15.62A49 49 0 0 1 760 368l.99 1.88c1.15 2.42 1.34 4.27 1.51 6.93.35 4.28 1.31 8.06 2.5 12.19q.06 3 0 6l.5 2.38c.46 2.4.53 4.43.5 6.87V408l1 1q.15 3.88.12 7.75l.02 2.17A49 49 0 0 1 766 430q-.27 2.25-.5 4.5a83 83 0 0 1-1.5 9.5l-2-1 .03-3.69a3174 3174 0 0 0 .12-19.73c.1-12.05-.23-23.67-2.15-35.58l-.39-2.56c-3.71-22.37-11.76-44.32-21.42-64.75l-1.03-2.18a202 202 0 0 0-6.22-12.08c-6.51-11.7-12.91-25.31-13.32-38.87l-.14-3.37c1.03-6.29 6.98-9.44 11.83-13.07 14.9-11.35 23.92-22.23 27.69-41.12.18-2.72.29-5.34.28-8.06l.02-2.34.02-7.67.03-5.53q.04-7.48.05-14.97l.07-15.66.12-29.63.14-33.75z" fill="#E5E8E6"/><path d="m816 561-3 1-.31 2.53a51 51 0 0 1-3.75 10.97l-.94 2.11A184 184 0 0 1 791 607l2 2c-7.78 1.86-14.98 3.41-23 3 1.91-4.51 5.2-7.92 8.37-11.58 2.28-2.68 4.25-5.16 5.63-8.42h2l.76-2.05c1.78-4.22 4.01-8.19 6.21-12.2a73 73 0 0 0 4.97-11.06c1.08-2.54 1.56-3.44 4.05-4.67 4.62-1.15 9.28-1.22 14.01-1.02" fill="#000101"/><path d="M745.29.58A29 29 0 0 1 758.99 13c1.14 6.26.97 12.4.83 18.74l-.03 5.7q-.05 7.73-.18 15.45-.1 8.08-.15 16.15-.13 15.29-.33 30.57-.21 17.4-.35 34.8-.32 35.8-.78 71.59h-1v-2.95q-.06-35.52-.18-71.06-.06-17.17-.1-34.36 0-14.97-.07-29.95-.04-7.92-.04-15.86 0-7.46-.05-14.92v-5.48q0-3.76-.04-7.48l.02-2.2C756.46 16.7 754.99 14 752 10V8q-1.07-.44-2.2-.87C747 6 747 6 744.8 4.88c-4.83-1.51-9.9-1.93-14.73-.18-11.25 6.5-21.02 17.06-30.4 25.96a542 542 0 0 1-24.5 21.57l-1.56 1.33C672 55 672 55 670.4 57.06c-3.33 2.69-6.3 2.47-10.38 2.4h-2.43q-3.96-.02-7.92-.07l-5.5-.01-14.46-.1-14.76-.08q-14.48-.07-28.95-.2v-2l2.95-.01q13.8-.06 27.59-.17l14.18-.1q6.85 0 13.69-.1l5.22-.01q3.66 0 7.32-.06h2.17c6.25-.12 10.33-2.27 14.96-6.41l1.73-1.9a97 97 0 0 1 11.89-10.28c2.48-2.11 4.28-4.42 6.3-6.96a89 89 0 0 1 4.3-3.44c4.9-3.7 9.64-7.47 13.95-11.85a188 188 0 0 1 9.94-8.96l1.9-1.64c6.6-5.64 12.59-6.71 21.2-4.53" fill="#989A9A"/><path d="m623.44 183.5 3.87-.03c4.25.61 6.44 1.77 9.69 4.53.69 3.44.69 3.44 0 7-2.37 2.81-2.37 2.81-5 5-2.68 2.69-3.06 5.38-4 9-2.81.62-2.81.62-6 1-3-2-3-2-3.87-5.31-1.28-4.21-2.91-5.79-6.13-8.69-2-3-2-3-1.94-5.44 2.32-6.33 7.2-7.11 13.38-7.06" fill="#676968"/><path d="M758 19h2c1.17 3.51 1.14 6.66 1.13 10.31l.01 2.27.01 7.56.01 5.41.01 14.71.01 12.28.01 28.97.02 29.89.03 40.98v14.42l.01 5.29v7.22l.01 2.11A31 31 0 0 1 759 212q-.53 2-1 4h-2c-.12-6.62-.12-6.62 1-10 .11-2.5.15-4.96.16-7.46l.01-2.32a1992 1992 0 0 0 .07-13.25l.06-15.03.08-15.7.14-29.74.16-33.85z" fill="#F2F4F4"/><path d="M956 569c4.29.48 6.27 1.66 9 5v2l1.88.88C969 578 969 578 971 580v3l1.84.73c5.99 3.53 8.38 13.81 10.37 20.13 3.42 13.6 1.44 26.86-5.21 39.14-6.84 10.79-14.88 18.78-26 25l-2.55 1.59a33 33 0 0 1-6.83 2.97l-2.35.75-2.27.69-3.69 1.12c-8.54 2.26-8.54 2.26-11.31.88a71 71 0 0 0-4.13-.32l-2.44-.12-2.55-.12-2.58-.13-6.3-.31v-1l1.78-.06 8.16-.32 2.8-.09c16.66-.7 34.66-6.25 47.07-17.78 12.11-13.29 16.36-28 15.67-45.59-.46-6.45-2.23-11.58-5.48-17.16l-1.32-2.59A54.6 54.6 0 0 0 956 571z" fill="#DDDEDF"/><path d="m588 138 2.17 1.47c6.68 5.11 11.32 13.23 12.83 21.53.44 6.05-.01 11.27-2 17h-1l-.06-1.94-.32-8.75-.09-3.05-.12-2.96-.09-2.71A22 22 0 0 0 597 151l-2-1c-2-3-2-3-3-6h-4v6h2v4h2v6h-2l-.18 1.86-.26 2.45-.24 2.43C589 169 589 169 588 172h-2v3h-2l-2 5h-2v2h-4v2c-5.49 1.87-10.22 2.24-16 2v-2h-6v-2h-4v-2h-2l-1-4 1.66 1.31c7.45 5.24 14.38 5.97 23.34 4.69 6.98-2.83 11.96-7.94 14.94-14.88 2.1-6.76 1.94-12.88-.94-19.37A24 24 0 0 0 572 136c-8.23-.69-13.87-.17-21 4l-2-1 3.75-2.44 2.11-1.37c9.63-5.36 24.51-3.38 33.14 2.81" fill="#D4B96A"/><path d="M693.73 135.68c9 5.23 16.1 12.16 19.27 22.32.14 2.65.19 5.18.13 7.81l-.03 2.1q-.03 2.54-.1 5.09h-1l-1-11h-1l-.43-3.31C709 155 709 155 708 152h-2v-4h-2v-2l-4-2 .56 2.51c.5 3.94.1 7.47-.5 11.37l-.3 2.08L699 165h-1v-2.49c-.3-8.19-1.5-14.24-7-20.51-5.8-5.26-12.08-5.73-19.7-5.41-7.76.96-11.86 4.48-16.85 10.31-2.97 4.32-3.71 7.9-3.63 13.1l.02 3.06c.15 2.75.55 5.27 1.16 7.94l-2-1v-2h-2l-1 6h-1c-.61-11.77-.65-20.48 7.44-29.81L656 142l2.75-2.56c9.99-7.95 23.36-9.28 34.98-3.76" fill="#DEBE61"/><path d="m524 0 1 3 2.04.09c4.43 1.36 7.02 4.33 10.27 7.53l4.01 3.84 1.92 1.86c2.67 2.55 5.44 4.96 8.24 7.35q1.54 1.35 3 2.81a81 81 0 0 0 5.08 4.58A88 88 0 0 1 565 36q2.71 2.24 5.44 4.46C572 42 572 42 573 45l1.75.38c3.36.93 4.99 3.05 7.25 5.62v2c4.64 1.81 8.82 2.3 13.75 2.32l2.28.03q3.7.05 7.4.06l5.15.06 13.53.13 13.81.14L665 56v1q-15.28.65-30.57 1.06-7.1.19-14.19.49-6.87.3-13.74.43-2.6.07-5.2.21c-8.91.46-15.44.36-22.38-5.73a127 127 0 0 1-6.57-6.95 54 54 0 0 0-5.6-5.26A538 538 0 0 1 558 33.5q-5.35-4.83-10.81-9.55-3.32-2.99-6.57-6.05c-8.87-8.3-15.93-14.35-28.46-14.33-5.01.68-8.37 3.22-12.16 6.43 0-4 0-4 1.44-5.7C508.68-.98 515.39-.61 524 0" fill="#E6E9E8"/><path d="M747 331c3.07 3.47 4.19 7.26 5.44 11.62a130 130 0 0 0 4.81 13.94c1.6 3.81 2.26 7.33 2.75 11.44l.99 1.89c1.16 2.42 1.34 4.26 1.51 6.92.35 4.28 1.31 8.06 2.5 12.19q.06 3 0 6l.5 2.38c.46 2.4.53 4.43.5 6.87V408l1 1q.15 3.88.12 7.75l.02 2.17A49 49 0 0 1 766 430q-.27 2.25-.5 4.5a83 83 0 0 1-1.5 9.5l-2-1 .03-3.69a3174 3174 0 0 0 .12-19.73c.1-12.05-.23-23.67-2.15-35.58l-.39-2.56a161 161 0 0 0-1.17-6.19l-.47-2.28c-2-9.01-5-17.73-7.97-26.45l-1.17-3.48-1.07-3.09c-.8-3.1-.9-5.76-.76-8.95" fill="#E7EAE7"/><path d="M616 662h20l-.07 5.62-.05 7.38-.06 3.7c-.04 7.94-.04 15.35 4.3 22.3l1.88 3h-4c-5.55-7.48-7.87-18.32-6.62-27.5l.62-3.5-.06-2.81C632 668 632 668 634 665l-15 1 1 1c.07 2.33 0 4.64-.06 6.97C620 676 620 676 621 677c.14 4.25.19 7.91-1 12l-.38 3.25c-.71 4.26-2.01 7.75-3.62 11.75h-5l.84-2.05 1.1-2.7 1.09-2.67c1.7-4.52 2.09-8.24 2.07-13.1l-.01-3.78-.03-3.95-.01-3.99z" fill="#F3F6F2"/><path d="m547 140 2 1-1.28 1.9-1.66 2.48-1.65 2.46c-3.62 5.54-3.07 11.71-2.41 18.16a27 27 0 0 0 3.91 6.55C547 174 547 174 547 176h-3v-2h-4v6h2v4h2v2h2v2h2l-1 3c-6.84-6.46-10.45-12.36-11.37-21.83-.21-12.55 2.8-20 11.37-29.17" fill="#DDC16C"/><path d="M756 369h2l1.94 9.31.55 2.61c2.21 10.79 2.7 21.39 2.7 32.39l.03 5.98c.02 8.78-.74 17.06-2.22 25.71l-3-1 1-17h1v-36h-2l-1-7.06-.29-1.99c-.6-4.35-.8-8.56-.71-12.95" fill="#1F2220"/><path d="m674 50 2 1a24 24 0 0 1-8 8c-6.24 1.14-12.4.93-18.72.78l-5.48-.03q-7.18-.05-14.36-.2-7.34-.11-14.68-.16-14.38-.13-28.76-.39v-2l2.95-.01q13.8-.06 27.59-.17 7.09-.07 14.18-.09 6.85-.03 13.69-.1l5.22-.02q3.66 0 7.32-.06l2.17.01c6.19-.13 10.49-2.17 14.88-6.56" fill="#CCCECE"/><path d="M863 661c4.42.61 7.76 2.29 11.69 4.38 15.35 7.89 31.33 8.9 48.31 9.62l-2 3c-2.87.25-5.51.33-8.38.25l-2.32-.02A42 42 0 0 1 900 677l-3.94-.44c-3.33-.4-5.97-1.2-9.06-2.56l-4.44-1.44A65 65 0 0 1 872 668l-3.19-1.44A13.6 13.6 0 0 1 863 661" fill="#EAEFEB"/><path d="M489 431h1l.37 3.3c.97 8.61 2.08 17.16 3.63 25.7-3.47-.46-6.67-.89-10-2-10.55-.78-19.04.03-28 6 .23-1.84.23-1.84 1-4 5.91-4.4 13.68-6.82 21-7a81 81 0 0 1 12 3l-.94-3.56c-1.9-7.83-1.96-13.63-.06-21.44" fill="#D5D7D9"/><path d="M686 133v1h-6v2l-2.34.08c-9.26.5-15.17 1.93-21.54 8.86-4.06 4.75-5.4 8.82-5.31 15.06l.02 3.06c.16 2.75.56 5.27 1.17 7.94l-2-1v-2h-2l-1 6h-1c-.61-11.77-.65-20.48 7.44-29.81L656 142l2.75-2.56c8.54-6.8 16.69-6.94 27.25-6.44" fill="#DAC473"/><path d="M455 462c0 3.71-.89 4.36-3.25 7.12C440.2 483.66 440.44 502.24 440 520l-2 1a64 64 0 0 1-.69-15.69l.15-2.39c.61-9.06 1.43-17.69 5.54-25.92l.91-1.99A43 43 0 0 1 452 463z" fill="#E5E7E7"/><path d="M625 663h11l-.07 5.41-.05 7.09-.06 3.55c-.04 7.82.03 15.11 4.3 21.95l1.88 3h-4c-5.55-7.48-7.87-18.32-6.62-27.5l.62-3.5-.06-2.81C632 668 632 668 634 665h-8z" fill="#EFF1F2"/><path d="M598 178h2c-1.68 7.47-6.78 12.79-13.06 16.88-5.7 3.44-11.22 4.49-17.82 4.43l-2.14-.01c-6.65-.14-11.37-1.02-16.48-5.49L549 192c2.13.46 3.89.94 5.81 2 2.99 1.37 5.94 1.63 9.19 2v2l2.94-1c4.36-1.27 8.56-1.18 13.06-1v-2c2.91-1.26 4.8-2 8-2v-2h2v-2h2v-2h2v-2h2v-2h2z" fill="#DEC36D"/><path d="m490 393 3 1v7l-2 1v5h1l.06 10.38.03 2.98.01 2.85.01 2.64C492 428 492 428 491 430h2q.12 2.13.19 4.25l.1 2.39c-.36 2.89-1.5 4.12-3.29 6.36a246 246 0 0 1-1.13-26.73q.01-3.34-.01-6.69l.01-4.29v-3.88c.11-2.94.44-5.56 1.13-8.41" fill="#1F2122"/><path d="M982 610h2c2.31 14.4-1.66 27.17-10 39l-2 2-3-1 1.14-1.48c8.52-11.8 10.71-24.39 11.86-38.52" fill="#E1E2E2"/><path d="M702 140h4l1 4h3v2h2v8h2v6h2v17l-1-2h-2l-.04-3.37c-.33-12.34-2.73-20.22-10.96-29.63z" fill="#191109"/><path d="M745.29.58c5.68 2.49 10.5 7.15 13.7 12.42.35 3.17.35 3.17 0 6l-2 2-.58-1.83-.78-2.42-.78-2.4c-2.17-6.02-2.17-6.02-5.16-7.47l-2.7-.88-2.23-1.04c-3.33-1.16-6.06-1.15-9.57-1.08q-1.73.01-3.52.05c-.44 0-.44 0-2.67.07V1c4.66-2.33 11.35-1.67 16.29-.42" fill="#E2E4E3"/><path d="m764 407 3 2c.25 2.69.33 5.13.25 7.81l-.02 2.16c-.05 3.8-.39 7.33-1.23 11.03q-.27 2.25-.5 4.5a83 83 0 0 1-1.5 9.5l-2-1c-.13-8.31.24-16.47 1-24.75l.29-3.3z" fill="#F0F2F0"/><path d="M698 672a24.7 24.7 0 0 1 12.25 13.06L711 688l1.19 2.75c1.14 4.56.48 8.65-.19 13.25l-4-1 .18-2.75c.29-8.03.06-13.91-5.18-20.25a62 62 0 0 0-7-6z" fill="#E2E4E1"/><path d="M696 170c1 3 1 3 0 6-2.56 1.69-2.56 1.69-5 3a104 104 0 0 1 5-9m-44 1 1.56 2.12c4.79 5.66 9.65 10.31 17.27 11.22 5.99.07 10.32-.23 15.45-3.46C688 180 688 180 692 180v2h-4v2a22 22 0 0 1-10.08 2.2l-2.82-.02-2.91-.06-2.97-.02-7.22-.1v-2h-2v-2h-2v-2h-2v-2h-2v-3h-2z" fill="#D6BE70"/><path d="M759 155h1c.98 9.97 1.19 19.87 1.19 29.89l.03 7.71.01 4.96.02 2.3A32 32 0 0 1 759 212q-.53 2-1 4h-2c-.12-6.62-.12-6.62 1-10h2z" fill="#EEF1F0"/><path d="m897.19 621.81 3.02.58c2.79.61 2.79.61 6.17 1.67 5.46 1.41 11 1.62 16.62 1.94l1 3c-9.17.4-17.15-.62-26-3l-4.81-1.19-3.2-.8v-2c2.73-1.37 4.23-.77 7.2-.2" fill="#E2E2E7"/><path d="m822 605-1 2q-2.97.4-5.96.72c-2.04.28-2.04.28-4.42 1.28-3.36 1.28-6.54 1.42-10.11 1.71-2.3.27-4.31.72-6.51 1.41-3 .88-3 .88-5-.12 1-2 1-2 2.72-2.75a188 188 0 0 1 16.53-4l2.04-.42A27 27 0 0 1 822 605" fill="#ECEDEF"/><path d="M648 168h2c2 3 2 3 2 7h2c1.33 3.99 1.07 7.84 1 12v3l-2.88-3.75-1.61-2.11c-3.21-4.55-3.82-7.5-3.51-13.14z" fill="#E8CA6B"/><path d="m856 551 2 2-11.58 2.14-5.85 1.08-3.76.69-3.45.63c-3.49.48-6.84.54-10.36.46v-2a63 63 0 0 1 13.82-2.71c2.18-.29 2.18-.29 5.62-1.35A35 35 0 0 1 856 551" fill="#EBEBED"/><path d="M761 657h1l.44 2.25a21 21 0 0 0 1.31 4.75c.25 2 .25 2-.75 4.44a25.5 25.5 0 0 1-15 9.56l-5-1c-2.77-.26-5.54-.41-8.31-.56l-2.25-.13L727 676v-1l1.69-.04 7.75-.27 2.66-.07c6.36-.26 13.59-.73 18.59-5.1 2.26-2.63 2.53-4.77 2.87-8.14l.26-2.48z" fill="#D7DAD6"/><path d="m547 140 2 1-1.28 1.9-1.66 2.48-1.65 2.46c-2.63 4.04-2.72 7.57-2.97 12.28l-.13 2.29L541 168c-2-3-2-3-2-6h-3c.34-9.05 4.48-15.83 11-22" fill="#CABB91"/><path d="M440 516h1l.37 2.89c.9 6.95 1.88 13.84 3.19 20.72.58 3.12 1.02 6.25 1.44 9.39-1.94-.56-1.94-.56-4-2-.62-3.25-.62-3.25-1-7l-1.06-3.12c-.94-2.87-1.02-4.9-.94-7.88l-.55-1.85c-.54-2.61-.15-4.33.49-6.9l.59-2.42z" fill="#DCDEDE"/><path d="m547 176 1.66 1.31c7.55 5.31 14.28 5.87 23.34 4.69a51 51 0 0 0 10-4v2h-2v2h-4v2c-5.49 1.87-10.22 2.24-16 2v-2h-6v-2h-4v-2h-2z" fill="#DFC36A"/><path d="M932 606c6 6 6 6 6.25 9.25-.27 4.1-.58 5.67-3.25 8.75-6.4 4.28-6.4 4.28-10.25 3.6L923 627c3-2 3-2 6-3.38 3-1.62 4.45-2.6 6-5.62-.24-2.45-1.12-4.29-2.06-6.56C932 609 932 609 932 606" fill="#E2E3E6"/><path d="M546 680h2l-.88 2.12c-2.08 5.34-3.39 10-3.74 15.76l-.23 3.49L543 704l-3-1c-1.44-8.25-.66-14.04 4.06-21.06z" fill="#E9E9EC"/><path d="m708 183 2 2a9 9 0 0 1-2.38 5.69C706 192 706 192 703 193l-1 3h-4v2h-2v2l-7 2-2-2 1.81-.88C691 198 691 198 694 196l2.09-1.26c5.33-3.33 8.59-6.39 11.91-11.74" fill="#25190C"/><path d="M489 431h1l.37 3.3c.97 8.61 2.08 17.16 3.63 25.7l-7-1 1.62-1 1.38-2a87 87 0 0 0-2-8c-1.36-6.12-.46-11.01 1-17" fill="#E7EAE9"/><path d="M867 551h37v1l-5 1v1q-3.62.04-7.25.06l-2.07.03A35 35 0 0 1 880 553q-3.37-.33-6.75-.56l-3.55-.26-2.7-.18z" fill="#1B1E1F"/><path d="M756 369h2q1.01 4.74 2 9.5l.58 2.69A64 64 0 0 1 762 397h-1l-1-6h-2l-1-7.06-.29-1.99c-.6-4.35-.8-8.56-.71-12.95" fill="#282B28"/><path d="M569.44 132.81q1.12 0 2.28-.04c4.22 0 7.43.3 11.28 2.23-3.48 2.32-4.54 1.9-8.5 1.31-8.96-1.1-15.66-.9-23.5 3.7l-2-1 3.75-2.45 2.1-1.37c4.64-2.58 9.4-2.38 14.59-2.38" fill="#968B6B"/><path d="M617 676h1l.18 2.48.26 3.27.24 3.23c.32 3.02.32 3.02.94 5.13.51 2.53-.11 4.05-1 6.45l-.83 2.32L617 701l-1 3h-5l.84-2.05 1.1-2.7 1.09-2.67c1.75-4.65 2.21-8.85 2.53-13.83l.26-3.83z" fill="#DDE0E0"/><path d="M761 439c2.59 5.17 3.43 8.2 2.06 13.88L762 456l5 2v1l-9 2z" fill="#E0E2E2"/><path d="m548 176 5 1v2l12 1v2h3v-2h9c-3.92 3.92-8.88 3.39-14.15 3.47-6.24-.12-10.43-2.15-14.85-6.47z" fill="#281C09"/><path d="m896 674 27 1-2 3c-2.87.25-5.51.33-8.38.25l-2.32-.02c-3.62-.05-6.8-.26-10.3-1.23l-2.25-.56L896 676z" fill="#F2F4F3"/><path d="M487 407h1a412 412 0 0 1 1 32c-2.61-2.99-3.34-4.67-3.12-8.62.12-3.61 0-6.99-.44-10.57-.47-4.19-.32-7.68.56-11.81z" fill="#EEF0F1"/><path d="M704 186h2c-1.52 3.88-3.59 5.65-7 8l-1.88 1.36c-8.4 5.19-17.62 4.08-27.12 3.64v-1l14-1v-1l1.86-.18 2.45-.26 2.43-.24C693 195 693 195 696 194v-2h4v-2h2v-2h2z" fill="#D6C172"/><path d="M686 133v1h-6v2l-2.34.08c-9.48.51-15.49 2.65-22.66 8.92l-1-2c10.57-8.64 18.44-10.64 32-10" fill="#AAA181"/><path d="M634 677h1l.26 3.62c1.38 16.39 1.38 16.39 6.74 23.38h-4c-4.13-5.55-5.44-11.24-6-18l1-1q.34-2.02.56-4.06z" fill="#E1E3E4"/><path d="m871.68 549.12 2.12.07 6.63.25 4.53.15L896 550v1l-40 1 1-2c4.94-1.02 9.65-1.06 14.68-.88" fill="#DCDEDF"/><path d="M543 148c1.21 3.62 1.11 6.93 1.06 10.69l-.01 2.12L544 166h2v5l-2 1c-2.65-4.57-3.39-7.86-3.31-13.12l.01-3.64c.28-3 .72-4.71 2.3-7.24" fill="#271B0C"/><path d="m720 271 3 1 .31 2.44A65 65 0 0 0 730 293h-4l-3-7.62-.87-2.17c-1.63-4.23-2.48-7.59-2.13-12.21" fill="#E8EBE9"/><path d="M757 644c4.99 2.97 6.05 6.23 7.52 11.56.48 2.44.48 2.44.48 6.44l-3 1-.33-1.76A49 49 0 0 0 757 648z" fill="#F1F2F2"/><path d="m593 189 1 3h-2v2h-2v2h-2v2c-5.11 2.07-9.46 2.24-14.88 2.12l-2.37-.02-5.75-.1v-1l2.27-.08c10.25-.57 18.2-2.78 25.73-9.92" fill="#352308"/><path d="M811 507h1a849 849 0 0 1 .09 9.14c.02 4.07-.3 7.87-1.09 11.86l-1-2h-2c-.27-6.16.58-12 2-18z" fill="#1C201E"/><path d="M500 640c0 3.71-1.35 4.7-3.7 7.41-4.01 4.9-5.15 10.53-6.3 16.59l-2-1c-.63-6.95.82-11.38 5-17a59 59 0 0 1 7-6" fill="#EAECED"/><path d="M657 176c3 0 3 0 5.06 2l1.94 2h2v2l14 1v2c-8.51.51-15.12.3-21.71-5.51C657 178 657 178 657 176" fill="#2F2309"/><path d="M659 192h13v5c-2 .81-2 .81-5 1a44 44 0 0 1-8-5z" fill="#E7C65E"/><path d="M793 610h-3l-2 4-2.25-.06c-2.75.06-2.75.06-4.63.68-3.3.59-5.99-.6-9.12-1.62v-1l8.25-1.56 2.36-.46 2.28-.42 2.1-.4c2.22-.18 3.89.19 6.01.84" fill="#D4D8D6"/><path d="M704 145c5.49 4.88 8.77 9.32 9.25 16.85.04 3.72-.08 7.43-.25 11.15h-1l-1-11h-1l-.44-3.31C709 155 709 155 708 152h-2v-4h-2z" fill="#D2BA74"/><path d="M698 142h2c1.6 7.82.23 15.22-1 23h-1l-.18-2.6c-.77-10.46-.77-10.46-1.51-14.52C696 145 696 145 698 142" fill="#D7AF4B"/><path d="M576 137c4.89 2.84 8.37 5.91 11 11 .31 2.94.31 2.94 0 5h-3v-7h-6v-2h2l-1-3-3-1z" fill="#241807"/><path d="M903 623a31 31 0 0 1 6 4c-3.33 1.13-5.12.87-8.38-.38A48 48 0 0 0 890 624v-2c3.93-1.97 8.91-.1 13 1" fill="#DADADC"/><path d="M890.81 592.94h2.68l6.51.06v2c-8.15.77-15.89 1.22-24 0v-1c4.91-1.3 9.77-1.11 14.81-1.06" fill="#D5D7D8"/><path d="m813 519 2 2q-.41 3.51-1 7l.25 2.69c-.25 2.31-.25 2.31-2.75 4.62L809 537c1.49-14.23 1.49-14.23 4-18" fill="#D7DBD9"/><path d="M648 168h2c2 3 2 3 2 7h2v3h-2v2h-2v-4h-2c-.8-3.29-1.1-4.71 0-8" fill="#EACA62"/><path d="M982 610h2c1.05 6.81.94 12.37-1 19h-2z" fill="#EEE"/><path d="m813 501 2 1c2.03 7.81-.23 15.32-2 23h-1c-.17-8.04.35-15.99 1-24" fill="#EEF0ED"/><path d="M439 497h1v23l-2 1c-1.06-5.57-.83-10.34-.06-15.94l.3-2.36z" fill="#EDEFEF"/><path d="m776.69 453.75 3.45-.02C783 454 783 454 785 456c-1.55 1.55-3.1 1.22-5.25 1.32l-2.6.12-2.71.12-2.73.13-6.71.31v-2c4.02-1.9 7.27-2.27 11.69-2.25" fill="#ECEEEF"/><path d="M760 193h1l.12 6.12.08 3.45c-.2 3.5-.96 6.16-2.2 9.43q-.53 2-1 4h-2c-.12-6.62-.12-6.62 1-10h2z" fill="#E7EBEB"/><path d="M654 144c0 3.21-.9 5.07-2.2 7.95-1.39 3.57-2.08 7.3-2.8 11.05-2-2-2-2-2.5-5.06.7-5.49 3.58-10.02 7.5-13.94" fill="#D1C897"/><path d="M469 457h15v3h-15z" fill="#1D1F22"/><path d="m483.25 454.31 3.2.8c2.55.9 2.55.9 3.55 2.9q-9.5-.95-19-2l1-2c4.1-1.35 7.14-.77 11.25.3" fill="#F0F2F4"/><path d="M750 346a27 27 0 0 1 3.69 7.94l.82 2.59c.51 2.58.34 4.01-.51 6.47h-2l-.31-3.12c-.68-3.84-1.87-6.47-3.69-9.88v-2h2z" fill="#222522"/><path d="m680 134 4.38-.06 2.46-.04c2.16.1 2.16.1 4.16 1.1l-1 4c-3.72-.51-6.73-1.12-10-3z" fill="#DBC26F"/><path d="M907 596c4.45-.17 8.09-.3 12 2 .63 2.08.63 2.08 1 4q-2.7-.63-5.38-1.31l-3.02-.74C909 599 909 599 907 596" fill="#F0F2F3"/><path d="M602 171c2 2 2 2 2.44 4.19-.55 3.54-2.05 5.4-4.25 8.16C599 185 599 185 598 188c-2.06.69-2.06.69-4 1l.99-1.65A72 72 0 0 0 602 171" fill="#2D1E0D"/><path d="M586 164h2c-1.64 7.05-4.05 10.85-10 15l2-5h2l.44-2.31C583 169 583 169 584 166h2z" fill="#231906"/><path d="m755 214 2 2c-.24 5.22-2.31 8.67-5 13l-3-1 .8-1.54A72 72 0 0 0 755 214" fill="#D2D4D3"/><path d="m693 199-4 2v1c-6.11.11-11.95-.1-18-1v-1q4.38-.55 8.75-1.06l2.5-.32 2.42-.28 2.22-.27a18 18 0 0 1 6.11.93" fill="#171105"/><path d="M674.19 135.94a273 273 0 0 1 5.8.06v2c-4.3.76-7.73 1.16-12 0v2h-4l1-3c3.3-1.1 5.75-1.1 9.2-1.06" fill="#151006"/><path d="m721 10 3 2q-1.61 1.73-3.25 3.44l-1.83 1.93c-2.02 1.72-3.33 2.22-5.92 2.63 0-3 0-3 1.75-4.82l2.25-1.87 2.25-1.88z" fill="#1D1E22"/><path d="M696 170c1 3 1 3 0 6-2.56 1.69-2.56 1.69-5 3a104 104 0 0 1 5-9m-7 9 3 1v2h-4v2h-6c2.3-1.74 4.6-3.4 7-5" fill="#CEB567"/><path d="M491 655a52 52 0 0 1 3.56 8.62A44 44 0 0 0 497 670c-1.88-.31-1.88-.31-4-1-2.28-3.42-2.22-4.68-2.12-8.69l.05-3.01z" fill="#252728"/><path d="m851.06 550.75 2.66-.02C856 551 856 551 858 553l-5.25 1-2.96.56C847 555 847 555 843 555v-2c3.25-2.17 4.3-2.27 8.06-2.25" fill="#E4E4E7"/><path d="m547 176 1.77 1.28c6.72 4.49 12.18 5.69 20.23 5.72v1h-15v-2h-4v-2h-2z" fill="#C0A969"/><path d="M905 674h25v2c-4.75 1.12-4.75 1.12-7 0a71 71 0 0 0-4.13-.32l-2.44-.12-2.55-.12-2.58-.13-6.3-.31z" fill="#C0C3C2"/><path d="m756 357 2 1c.63 2.72.63 2.72 1.12 6.06l.51 3.35.37 2.59-2 1c-3.63-9.41-3.63-9.41-2-14" fill="#F0F3EE"/><path d="M549 192c2.13.46 3.89.94 5.81 2 2.99 1.37 5.94 1.63 9.19 2l1 3c-6.5-.35-10.85-1.95-16-6z" fill="#CEB76B"/><path d="m588 163 2 1-2 8h-2v3h-2l-1 3c-2.06.69-2.06.69-4 1l1.21-1.47A43 43 0 0 0 588 163" fill="#CAB56C"/><path d="m512 314 3 1-6 13-2-1q.67-2.12 1.38-4.25l.77-2.39c.8-2.23 1.75-4.27 2.85-6.36" fill="#DDE0E1"/><path d="M534 258h1l1 6h1c.37 7.51.37 7.51-1.5 10l-1.5 1c-1.23-3.68-.91-6.91-.56-10.75l.31-3.55z" fill="#323535"/><path d="M748 7c2.6.37 3.74.71 5.52 2.71l1.29 2.1 1.33 2.08c1.02 2.5.77 3.62-.14 6.11l-3.44-4.81-1.93-2.71C749 10 749 10 748 7" fill="#1F201F"/><path d="m894.19 671.88 3.86.62 2.95.5c-3.7 2.97-3.7 2.97-6.43 3.32a25 25 0 0 1-7.57-2.33q-1.49-.48-3-1c3.93-2.62 5.6-1.87 10.19-1.12" fill="#E1E3E2"/><path d="M490 659h1l.26 1.79c1.02 5.71 2.23 8.53 6.74 12.21-4 0-4 0-6.81-2.5-1.59-2.03-2.17-3.09-2.28-5.68.28-2.2.28-2.2 1.09-5.82" fill="#D7DADA"/><path d="M567.25 130.94a370 370 0 0 1 6.75.06v1a1212 1212 0 0 1-10.69 2.02l-2.3.42-2.11.4c-1.9.16-1.9.16-4.9-.84h2v-2c3.75-1.2 7.33-1.1 11.25-1.06" fill="#060601"/><path d="M812 532h1q-.14 2.41-.31 4.81l-.18 2.71c-.57 2.79-1.33 3.72-3.51 5.48-.27-5.34-.43-8.61 3-13" fill="#EEF1EF"/><path d="m759 451 3 3v2l5 2v1l-9 2z" fill="#D1D3D2"/><path d="M625 663h11v9l-3-3c.31-2.19.31-2.19 1-4h-8z" fill="#E4E5E5"/><path d="m589 166 2 3c-.69 3.12-.69 3.12-2 6l-3 1v2l-3-1 1-2h2v-3h2z" fill="#E8CB54"/><path d="M709 150h3v4h2v15h-1l-.11-2.2c-.39-5.65-.96-9.83-3.89-14.8z" fill="#2B1B05"/><path d="M687 40c-1.45 3.44-3.28 5.36-6.12 7.75l-2.2 1.86L677 51l-2-2q2.43-2.26 4.88-4.5l2.74-2.53C685 40 685 40 687 40" fill="#DADCDD"/><path d="M735.63-.06A155 155 0 0 1 740 0v2l-11 2V1c2.4-1.2 3.94-1.1 6.62-1.06" fill="#F2F3F4"/><path d="m710 692 3 1-1 11-4-1 1-2q.33-2.31.56-4.62l.26-2.48z" fill="#EFF2EF"/><path d="m798.69 608.94 5.3.06a32 32 0 0 1-8.61 3.19l-2.35.54C791 613 791 613 789 612c1.94-3.87 5.86-3.11 9.69-3.06" fill="#F0F2F2"/><path d="m540 184 10 10h-4l-2-3c-2.12-.69-2.12-.69-4-1z" fill="#1E1308"/><path d="M875 667q2.44.67 4.88 1.38l2.74.77C885 670 885 670 887 672c-3.44 1.11-4.78 1.09-8.19-.31C876 670 876 670 874 668z" fill="#F2F2F4"/><path d="m969 651 2 1q-1.9 2.23-3.81 4.44l-2.15 2.49C963 661 963 661 960 662c1.41-3.22 3.1-5.32 5.62-7.75l1.92-1.86z" fill="#E7EBE7"/><path d="m859.13 595.94 2.75.03 2.13.03v1l-2.94.94C858 599 858 599 857 600a93 93 0 0 1-5 0v-3c2.52-1.26 4.32-1.1 7.13-1.06" fill="#ECEDED"/><path d="m490 393 3 1v7l-2 1c-1.12 2.06-1.12 2.06-2 4-.08-4.52-.1-8.59 1-13" fill="#303335"/><path d="M492 369h2q-.14 2.41-.31 4.81l-.18 2.71c-.57 2.79-1.33 3.72-3.51 5.48l.44-5.38.24-3.02c.32-2.6.32-2.6 1.32-4.6" fill="#EBEBED"/><path d="M742 323c3 1 3 1 4.75 3.69 1.39 3.68 1.23 5.55.25 9.31-1.9-2.86-2.69-4.93-3.62-8.19l-.79-2.73z" fill="#D3D3D6"/><path d="m593 189 1 3h-2v2h-2v2h-2v2h-4c1.16-3.49 2.14-4.1 5.06-6.19l2.23-1.6z" fill="#271708"/><path d="m707 684 4 2-1 15h-1l-.18-2.45-.26-3.24-.24-3.2c-.28-2.76-.72-5.4-1.32-8.11" fill="#C9CDC9"/><path d="m857 648 .75 1.62c1.55 2.95 3.38 5.63 5.25 8.38l2 3c-2.97-.32-4.04-1.04-6.25-3.12-2.15-3.53-2.07-5.82-1.75-9.88" fill="#DDDFDE"/><path d="M500 343c2 3 2 3 1.54 5.48l-.92 2.71-.89 2.73L499 356l-2-1c.51-4.32 1.2-8.03 3-12" fill="#DBDDDD"/><path d="M582 178h2c-.5 2.88-.5 2.88-2 6-2.68 1.18-5.07 1.53-8 2v-2h2v-2h4v-2h2z" fill="#E7C542"/><path d="M697 168h1v10h-3v2l-4-1c1.38-1.5 1.38-1.5 3-3h2z" fill="#E5C65B"/><path d="M513 635v2l-2.12.84-2.76 1.1-2.74 1.09C503 641 503 641 501 642l1-4h4v-2c3-1 3-1 7-1" fill="#DCDBDE"/><path d="m794 603 5 2-3 4-6-1z" fill="#1C1E1C"/><path d="M759 441h1q.07 2.4.12 4.81l.08 2.71C760 451 760 451 758 454q-.33-2.12-.62-4.25l-.36-2.39c-.02-2.68.61-4.09 1.98-6.36" fill="#101112"/><path d="m616 697 2 2-2 5h-5c2.75-5.88 2.75-5.88 5-7" fill="#EAEBED"/><path d="M951 668c-3.13 2.64-6.09 3.84-10 5 .19-1.88.19-1.88 1-4 3.31-1.88 5.41-2.33 9-1" fill="#E5E7E6"/><path d="M981 604h2c1 3 1 3 0 6q-.33 3.09-.56 6.19l-.26 3.29L982 622h-1z" fill="#C0C1BF"/><path d="m519 303 1 2c-1 2.16-1 2.16-2.44 4.62l-1.43 2.48L515 314h-2a25.4 25.4 0 0 1 6-11" fill="#EBEEEF"/><path d="m680 136 6 2c-2 2-2 2-3.95 2.2L676 140l-1-2h5z" fill="#271E11"/><path d="m804.25 606.88 3.75.12v3l-12-1c3.61-1.8 4.54-2.25 8.25-2.12" fill="#DCDDDC"/><path d="M465 590a35 35 0 0 1 7 9c-3 0-3 0-5.19-1.69-2.12-2.71-2.18-3.96-1.81-7.31" fill="#DCE0DC"/><path d="M948 563c4.43 1.21 6.98 2.52 10 6l-3 1c-5.74-3.21-5.74-3.21-7-7" fill="#E5E5E7"/><path d="M808 539h1v6l2 1-3 7h-1c-.08-4.83.05-9.24 1-14" fill="#E2E4E2"/><path d="M761 381c3 2 3 2 3.51 4.16l.18 2.46.2 2.48.11 1.9c-2-1-2-1-4-3-.37-2.75-.18-5.2 0-8" fill="#EEF0EE"/><path d="m506 2 1 3-7 5V6c3-2.25 3-2.25 6-4" fill="#DEE1DE"/><path d="M749 640c2.84-.23 4.46-.36 6.88 1.25 1.12 1.75 1.12 1.75.69 3.86L756 647l-3.5-2.94-1.97-1.65L749 641z" fill="#DBDBDD"/><path d="m656 191 11 6c-4.36 1.09-5.12.74-9-1h-2z" fill="#281B09"/><path d="m589 153 3 1v6h-2l-1 4z" fill="#E5C671"/><path d="M509 0h8l-1 2c-2.07.63-2.07.63-4.56 1.12l-2.51.51L507 4z" fill="#F2F6F2"/><path d="M634 677h1q.08 2.9.12 5.81l.08 3.27C635 689 635 689 633 692a19.5 19.5 0 0 1-.06-10.31l.59-2.68z" fill="#DBDDDE"/><path d="M855 640h1l1 13a26 26 0 0 1-4-9c.88-2.38.88-2.38 2-4" fill="#F1F3F4"/><path d="M956 569c3.24.35 4.62.56 6.81 3.06L964 574l-3 1c-2.69-1.81-2.69-1.81-5-4z" fill="#DBDCDE"/><path d="M806 547h1l1 9h-2l-3 3z" fill="#D1D2D0"/><path d="m720 271 3 1v9l-2-1c-.41-2.07-.41-2.07-.62-4.56l-.23-2.51z" fill="#EFF2EF"/><path d="M524 250c3.87.57 6.08 2.49 9 5l-1 3-4-3.44-2.25-1.93L524 251z" fill="#ECEEEE"/><path d="M539 674c-1 1.62-1 1.62-3 3-2.82-.35-5.27-1.15-8-2v-1c7.62-1.12 7.62-1.12 11 0" fill="#D8D8D9"/><path d="m980 627 3 4c-1.38 2.5-1.38 2.5-3 5h-2z" fill="#D3D4D2"/><path d="M491 381h1l-1 12h-1q-.33-2.43-.62-4.88l-.36-2.74L489 383z" fill="#CED0D2"/><path d="m647 174 1 2h2v4h2l-1 4c-2.83-3.2-3.52-5.78-4-10" fill="#DDC679"/><path d="m696 161 2 2c-.38 3.62-.38 3.62-1 7l-3-2z" fill="#2D2412"/><path d="M694 134h6v4l-6-1z" fill="#1C1408"/><path d="m580 132 9 2-1 2-8-1z" fill="#181006"/><path d="m538 12 6 5-3 2-4-4z" fill="#DFE1E0"/><path d="m758 664 2 4-5 5-1-2c1.11-2.48 2.58-4.68 4-7" fill="#212421"/><path d="M838 601c-1.69 1.56-1.69 1.56-4 3-2.75-.31-2.75-.31-5-1v-2c3.38-.84 5.67-1.11 9 0" fill="#D9D9DA"/><path d="M492 452h1l1 8-7-1c3-2 3-2 5-2z" fill="#B6B9B8"/><path d="M489 431h1v13l-3-1z" fill="#D9DBDD"/><path d="m732 301 5 5-1 2-3-1c-1.19-2.56-1.19-2.56-2-5z" fill="#DEE2E2"/><path d="M568 180h9c-2.76 2.76-5.21 2.58-9 3z" fill="#312409"/><path d="M686 178h5c-4.5 4-4.5 4-9 4v-2h4z" fill="#2C210A"/><path d="m537 154 2 1v7h-3z" fill="#D0BA77"/><path d="M715 14v3c-1.53 1.39-1.53 1.39-3.5 2.69l-1.97 1.32L708 22c0-3 0-3 2.38-5.69C713 14 713 14 715 14" fill="#E4E6E9"/><path d="M932 624v2c-4.43 2.09-4.43 2.09-7.31 1.62L923 627c3.27-2.18 5.08-3 9-3" fill="#EBEAEE"/><path d="M815 606c-1 2-1 2-2.88 2.81-2.12.19-2.12.19-3.87-1.25L807 606c3.05-.98 4.95-.98 8 0" fill="#E6E9E7"/><path d="M838 600h8l-1 2q-3.49.61-7 1z" fill="#F0F0F3"/><path d="M978 596h2c2.09 4.43 2.09 4.43 1.62 7.31L981 605c-2.13-3.19-2.5-5.27-3-9" fill="#E7E8E5"/><path d="M482 455c3.56.25 3.56.25 7 1l1 2-10-1z" fill="#E6E9E8"/><path d="M497 216c2.69 2.69 3.06 5.38 4 9l-3-1c-1.25-2.94-1.25-2.94-2-6z" fill="#D8DADA"/><path d="m576 196-2 3c-2.16.29-2.16.29-4.62.19l-2.48-.08-1.9-.11v-1c3.82-1.42 6.91-2.24 11-2" fill="#E3C973"/><path d="M588.06 139.31c1.94.7 1.94.7 2.94 2.7l-8 1 1-3c2-1 2-1 4.06-.7" fill="#E3C66F"/><path d="m674 50 2 1-7 7-3-2z" fill="#E8EAEC"/><path d="m505 10-2.44 1.88C500 14 500 14 499 16h-2c1.46-4.63 1.46-4.63 4-6.38 2-.62 2-.62 4 .38" fill="#212420"/><path d="M455 462v3c-3.33 3-3.33 3-6 3 1.05-2.62 1.65-3.79 4.12-5.25z" fill="#EBEDED"/><path d="M488 388h2v10c-2-3-2-3-3-6 .44-2.19.44-2.19 1-4" fill="#E7E9EA"/><path d="m494 370 3 2-2 7h-2z" fill="#323234"/><path d="m755 214 2 2c-.45 5.45-.45 5.45-3 8-.12-6.62-.12-6.62 1-10" fill="#DBDDDE"/><path d="M598 178h2c-1.09 3.78-1.91 6.47-5 9l-1-3h2v-2h2z" fill="#D6BD69"/><path d="M686 139c4.88 1.75 4.88 1.75 6 4-3.75 1.12-3.75 1.12-6 0z" fill="#291E0E"/><path d="M542 693h1v11l-3-1z" fill="#BBBBBE"/><path d="m755 673-1 3-5 1v-2l-2-1c2.76-.6 5.16-1 8-1" fill="#D5D9D6"/><path d="M720 674c-3.44 2.29-4.99 2.18-9 2l-1-2c3.28-1.64 6.43-.52 10 0" fill="#E1E4E0"/><path d="M933 557c6.75.75 6.75.75 9 3-3 1-3 1-6.19-.44L933 558z" fill="#E2E4E6"/><path d="M542 166h4v5l-2 1z" fill="#281C0B"/><path d="m566 37 6 5-3 2c-3-4.75-3-4.75-3-7" fill="#DEDEE1"/><path d="M702 27h5l-5 6c-1.12-3.75-1.12-3.75 0-6" fill="#1C1E1F"/></svg>