<svg style="background:transparent" version="1.1" xmlns="http://www.w3.org/2000/svg" viewBox="0 0 1248 704"><path d="M896.19 155.81h2.15c15.37.18 30.45 3.05 43.66 11.2l4.3 1.8c9.28 4.05 18 11.66 24.7 19.2v2l1.82.76c2.44 1.37 3.5 2.64 5.12 4.92l1.55 2.16 1.5 2.15 1.37 1.8c6.9 9.24 10.65 20.14 14.39 30.95l1.3 3.73c.92 3.38 1.05 6.04.95 9.52l1 3v6l1 2c.49 9.26-.02 17.9-3.2 26.65-.8 2.35-.8 2.35-1.38 4.82-1.7 7.06-4.93 11.76-10.42 16.53a30 30 0 0 1-7 3l-3 1c-8.03-1.07-15.3-5.36-21-11-.68-2.26-.68-2.26-1-5l-1.11-3.83c-1.06-4.18-.7-7.59-.01-11.86 2.52-18.09 2.47-32.95-7.25-48.75l-1.1-1.79c-2.64-4.04-5.4-6.33-9.53-8.77l-2.05-1.35c-6.83-4.33-12.65-7.96-20.87-8.48A21 21 0 0 1 904 206l-1.75.56c-3.15.61-5.3-.43-8.25-1.56l-1 1-3.37.43C886 207 886 207 883 209l-3-1c-2.01.67-2.01.67-4.25 1.75a114 114 0 0 1-8.5 3.68c-3.56 1.72-5.54 3.72-8.25 6.57q-2.46 1.56-5 3c-2.9 1.77-3.82 2.37-4.75 5.7L849 231l-3 1v5l-1.93.62L842 239q-.59 3-1 6l-1.3 1.63c-2.51 3.5-3.86 7.38-5.45 11.37a127 127 0 0 1-9.7 19.45c-1.55 2.55-1.55 2.55-3.1 5.7-1.67 3.3-3.78 5.32-6.45 7.85l-2 3h-2l-.12 1.7c-1.35 3.55-3.84 5.11-6.88 7.3h-3a54 54 0 0 0 5 10l1.44 2.43a51 51 0 0 0 3.56 5.32c2.43 3.94 3.67 7.84 5 12.25l1.07 3.12c1.06 3.27 2 6.57 2.93 9.88l1 3.31c1.92 7.06 3.27 13.63 2.98 20.97.02 2.72.02 2.72.5 6.5.77 6.46.67 12.96.65 19.46v14.74C825 414 825 414 824 416v3.37c0 3-.3 4.83-1 7.63v3.62c0 3.38 0 3.38-1 5.38v3.37c0 2.95-.26 4.86-1 7.63v2.43c0 2.57 0 2.57-.5 4.94-.5 2.63-.5 2.63-.5 6.2 0 3.43 0 3.43-.5 5.36a24 24 0 0 0-.5 6.57c.12 4.13.12 4.13-.5 6.13-.73 3.48-.64 6.95-.63 10.5v15.03c-.01 7.18.04 14.24.9 21.37.52 5.61.38 11.27.36 16.9v10.82C819 556 819 556 818 559l1 3a212 212 0 0 1-1.45 4.91c-.83 3.2-1.05 6.4-1.33 9.67-.28 3.16-.74 6.28-1.22 9.42l-.43 3.56C814 593 814 593 813 595.87a33 33 0 0 0-1.5 7.63A43 43 0 0 1 809 614q-.83 3.8-1.53 7.63a64 64 0 0 1-3.03 10.62l-.82 2.14L803 636c5.7 1.76 11.38 2.82 17.25 3.81 37.99 6.7 37.99 6.7 47.63 15.12C870 658 870 658 870.44 661c-2.31 4.82-5.67 6.76-10.44 9-8.74 3-17.81 4.4-26.93 5.7q-1.27.15-2.56.35c-18 2.34-36.15 2.18-54.26 2.2h-2.06c-28.85.04-57.61-1.08-86.41-2.5a1598 1598 0 0 0-79.84-1.94h-2.3c-25.44.01-50.8.44-76.21 2.04l-7.12.42c-63.1 3.76-126.27 11.05-188.96 19.04l-10.85 1.37-4.86.62a316 316 0 0 1-29.95 2.45l-3.8.17c-10.56.36-20.25-.6-30.15-4.43C252 695 252 695 250 696l-4.3-2.88q-2.25-1.48-4.57-2.87c-4.16-3-7.6-6.56-11.13-10.25 1.68-3.54 2.5-4.79 6.19-6.3l2.8-.7v-5l-1.32 1.02c-5.37 3.56-10.38 4.66-16.67 5.35q-1.12.14-2.26.26c-10.25.94-18.57-.72-27.3-6.26L190 667v-2l-1.85-.76c-3.24-1.87-4.13-4.09-5.52-7.47-1.67-7.36.63-16.38 4.37-22.77 4.22-5.69 8.3-10.8 15.35-12.64 3.39-.46 6.74-.55 10.15-.67 7.34-.4 11.03-1.94 16.5-6.69l3.52-2.86 3.79-3.14 1.82-1.5A45 45 0 0 0 247 596c1.9-1.8 1.9-1.8 3.8-3.3 3.88-3.25 6.8-6.82 9.76-10.88C262 580 262 580 264 579l3-5q1.98-2.46 4.07-4.8 1.03-1.2 2.09-2.4C275 565 275 565 277 565l.34-1.79c.72-2.4 1.6-3.7 3.2-5.64l1.57-1.9 1.64-1.98a201 201 0 0 0 9.02-11.55C295 539 295 539 297 537l2-3h2l.8-1.63L303 530l1.19-2.69c2.09-3.82 4.63-7 7.39-10.36C313 515 313 515 313 513l-2.1-.33A102 102 0 0 1 293 508l-4.62-1.5c-14.23-4.79-36.24-15.2-43.4-29.56-.98-1.94-.98-1.94-3.35-4.13-8.96-9.6-10.1-24.3-9.96-36.8v-3.6l.05-7.49q.04-5.7.05-11.43l.03-7.3v-3.43l.04-3.22.02-2.8c.14-2.74.14-2.74.65-5.58.59-3.78.6-7.47.56-11.28l-.02-2.39-.03-5.13q-.04-4.04-.05-8.12-.05-11.55-.14-23.09-.06-7.06-.07-14.14l-.04-5.38q-.04-3.74-.04-7.52l-.04-2.23c.03-6.75 2.46-11.39 6.93-16.32 2.3-2.2 3.7-3.42 6.86-4.02 9.44.56 16.47 6.2 23.58 11.9A55 55 0 0 0 277 308a135 135 0 0 1 9.8 6.93 80 80 0 0 0 11.03 6.9c2.17 1.17 2.17 1.17 4.25 2.72 4.03 2 7.42 1.81 11.85 1.71l2.63-.02 8.32-.12 10.86-.1 2.67-.04c6.56-.05 13.03.3 19.57.9 7.33.3 11.02-2.63 16.35-7.33 4.3-3.99 8.38-8.23 12.43-12.47 5.18-5.34 10.32-10.33 17.8-11.77 4.85.97 7.4 2.81 10.44 6.7 4.96 9.21 6.79 18.73 8 29l.5 1.92c.74 3.02.94 6.06 1.22 9.14C425 344 425 344 426 345l-.06 3.31c.06 3.57.5 4.68 2.06 7.7-.37 2.24-.37 2.24-1 4 1.6.68 1.6.68 4 1 3.03-1.27 3.03-1.27 6.38-3.14l1.76-.97a47 47 0 0 0 8.3-5.7c2.56-2.2 2.56-2.2 5.27-3.07 3.89-1.34 7.07-3.22 10.54-5.38q1.99-1.2 3.98-2.43l1.95-1.2q3.71-2.26 7.45-4.5l2.22-1.33 4.68-2.8q3.21-1.94 6.35-3.99a51 51 0 0 1 7.8-4.13A60 60 0 0 0 506 318q4.99-2.55 10-5 3.93-1.95 7.8-4.03c13.5-7.23 13.5-7.23 19.78-9.89 4.14-1.85 8.18-3.94 12.23-6a351 351 0 0 1 29.94-13.2A631 631 0 0 0 605 272l2.75-1.07C610 270 610 270 613 268h3q2.07-.36 4.13-.8 1.04-.25 2.13-.47a91 91 0 0 0 6.86-2.18c5.19-1.75 10.43-2.7 15.82-3.62l5.59-.97 2.75-.47c3.49-.63 6.97-1.37 10.44-2.12 2.46-.4 4.79-.4 7.28-.37q2.51-.45 5-1 2.99-.59 6-1l1 1q2.43.1 4.85.06l3.03-.02 6.29-.08c5.73-.05 11.17.18 16.83 1.04l2.39.31q.92.14 1.86.25c3.75.44 3.75.44 7.75.44q2.58 1.11 5.15 2.27c2.85 1.12 5.83 1.3 8.85 1.73 2.05.67 4.04 1.45 6.04 2.24 2.93 1.13 5.94 1.92 8.96 2.76l10 3 .75-1.88c1.5-2.54 2.62-2.9 5.25-4.12a78 78 0 0 0 3.63-3.63c1.79-1.9 1.79-1.9 3.37-3.37h2l.3-1.88c.7-2.12.7-2.12 3.7-4.12 1.18-2 1.18-2 2.3-4.44a233 233 0 0 1 10.29-19.2c1.4-2.36 1.4-2.36 2.9-5.36 4.4-8.77 10.28-16.74 15.93-24.72q1.85-2.69 3.58-5.47c4.44-6.25 9.34-10.17 16-13.8l1.92-1.94c11.72-11.66 32.18-17.44 48.23-18.83 10.77-1.43 10.77-1.43 11.04-1.43" fill="#111412"/><path d="M896.19 155.81h2.15c15.37.18 30.45 3.05 43.66 11.2l4.3 1.8c9.28 4.05 18 11.66 24.7 19.2v2l1.82.76c2.44 1.37 3.5 2.64 5.12 4.92l1.55 2.16 1.5 2.15 1.37 1.8c6.9 9.24 10.65 20.14 14.39 30.95l1.3 3.73c.92 3.38 1.05 6.04.95 9.52l1 3v6l1 2c.49 9.26-.02 17.9-3.2 26.65-.8 2.35-.8 2.35-1.38 4.82-1.7 7.06-4.93 11.76-10.42 16.53a30 30 0 0 1-7 3l-3 1c-8.03-1.07-15.3-5.36-21-11-.68-2.26-.68-2.26-1-5l-1.11-3.83c-1.06-4.18-.7-7.59-.01-11.86 2.52-18.09 2.47-32.95-7.25-48.75l-1.1-1.79c-2.64-4.04-5.4-6.33-9.53-8.77l-2.05-1.35c-6.83-4.33-12.65-7.96-20.87-8.48A21 21 0 0 1 904 206l-1.75.56c-3.15.61-5.3-.43-8.25-1.56l-1 1-3.37.43C886 207 886 207 883 209l-3-1c-2.01.67-2.01.67-4.25 1.75a114 114 0 0 1-8.5 3.68c-3.56 1.72-5.54 3.72-8.25 6.57q-2.46 1.56-5 3c-2.9 1.77-3.82 2.37-4.75 5.7L849 231l-3 1v5l-1.93.62L842 239q-.59 3-1 6l-1.3 1.63c-2.51 3.5-3.86 7.38-5.45 11.37a127 127 0 0 1-9.7 19.45c-1.55 2.55-1.55 2.55-3.1 5.7-1.67 3.3-3.78 5.32-6.45 7.85l-2 3h-2l-.12 1.7c-1.35 3.55-3.84 5.11-6.88 7.3h-3a54 54 0 0 0 5 10l1.44 2.43a51 51 0 0 0 3.56 5.32c2.43 3.94 3.67 7.84 5 12.25l1.07 3.12c1.06 3.27 2 6.57 2.93 9.88l1 3.31c1.92 7.06 3.27 13.63 2.98 20.97.02 2.72.02 2.72.5 6.5.77 6.46.67 12.96.65 19.46v14.74C825 414 825 414 824 416v3.37c0 3-.3 4.83-1 7.63v3.62c0 3.38 0 3.38-1 5.38v3.37c0 2.95-.26 4.86-1 7.63v2.43c0 2.57 0 2.57-.5 4.94-.5 2.63-.5 2.63-.5 6.2 0 3.43 0 3.43-.5 5.36a24 24 0 0 0-.5 6.57c.12 4.13.12 4.13-.5 6.13-.73 3.48-.64 6.95-.63 10.5v15.03c-.01 7.18.04 14.24.9 21.37.52 5.61.38 11.27.36 16.9v10.82C819 556 819 556 818 559l1 3a212 212 0 0 1-1.45 4.91c-.83 3.2-1.05 6.4-1.33 9.67-.28 3.16-.74 6.28-1.22 9.42l-.43 3.56C814 593 814 593 813 595.87a33 33 0 0 0-1.5 7.63A43 43 0 0 1 809 614q-.83 3.8-1.53 7.63a64 64 0 0 1-3.03 10.62l-.82 2.14L803 636c5.7 1.76 11.38 2.82 17.25 3.81 37.99 6.7 37.99 6.7 47.63 15.12C870 658 870 658 870.44 661c-2.31 4.82-5.67 6.76-10.44 9-8.74 3-17.81 4.4-26.93 5.7q-1.27.15-2.56.35c-18 2.34-36.15 2.18-54.26 2.2h-2.06c-28.85.04-57.61-1.08-86.41-2.5a1598 1598 0 0 0-79.84-1.94h-2.3c-25.44.01-50.8.44-76.21 2.04l-7.12.42c-63.1 3.76-126.27 11.05-188.96 19.04l-10.85 1.37-4.86.62a316 316 0 0 1-29.95 2.45l-3.8.17c-10.56.36-20.25-.6-30.15-4.43C252 695 252 695 250 696l-4.3-2.88q-2.25-1.48-4.57-2.87c-4.16-3-7.6-6.56-11.13-10.25 1.68-3.54 2.5-4.79 6.19-6.3l2.8-.7v-5l-1.32 1.02c-5.37 3.56-10.38 4.66-16.67 5.35q-1.12.14-2.26.26c-10.25.94-18.57-.72-27.3-6.26L190 667v-2l-1.85-.76c-3.24-1.87-4.13-4.09-5.52-7.47-1.67-7.36.63-16.38 4.37-22.77 4.22-5.69 8.3-10.8 15.35-12.64 3.39-.46 6.74-.55 10.15-.67 7.34-.4 11.03-1.94 16.5-6.69l3.52-2.86 3.79-3.14 1.82-1.5A45 45 0 0 0 247 596c1.9-1.8 1.9-1.8 3.8-3.3 3.88-3.25 6.8-6.82 9.76-10.88C262 580 262 580 264 579l3-5q1.98-2.46 4.07-4.8 1.03-1.2 2.09-2.4C275 565 275 565 277 565l.34-1.79c.72-2.4 1.6-3.7 3.2-5.64l1.57-1.9 1.64-1.98a201 201 0 0 0 9.02-11.55C295 539 295 539 297 537l2-3h2l.8-1.63L303 530l1.19-2.69c2.09-3.82 4.63-7 7.39-10.36C313 515 313 515 313 513l-2.1-.33A102 102 0 0 1 293 508l-4.62-1.5c-14.23-4.79-36.24-15.2-43.4-29.56-.98-1.94-.98-1.94-3.35-4.13-8.96-9.6-10.1-24.3-9.96-36.8v-3.6l.05-7.49q.04-5.7.05-11.43l.03-7.3v-3.43l.04-3.22.02-2.8c.14-2.74.14-2.74.65-5.58.59-3.78.6-7.47.56-11.28l-.02-2.39-.03-5.13q-.04-4.04-.05-8.12-.05-11.55-.14-23.09-.06-7.06-.07-14.14l-.04-5.38q-.04-3.74-.04-7.52l-.04-2.23c.03-6.75 2.46-11.39 6.93-16.32 2.3-2.2 3.7-3.42 6.86-4.02 9.44.56 16.47 6.2 23.58 11.9A55 55 0 0 0 277 308a135 135 0 0 1 9.8 6.93 80 80 0 0 0 11.03 6.9c2.17 1.17 2.17 1.17 4.25 2.72 4.03 2 7.42 1.81 11.85 1.71l2.63-.02 8.32-.12 10.86-.1 2.67-.04c6.56-.05 13.03.3 19.57.9 7.33.3 11.02-2.63 16.35-7.33 4.3-3.99 8.38-8.23 12.43-12.47 5.18-5.34 10.32-10.33 17.8-11.77 4.85.97 7.4 2.81 10.44 6.7 4.96 9.21 6.79 18.73 8 29l.5 1.92c.74 3.02.94 6.06 1.22 9.14C425 344 425 344 426 345l-.06 3.31c.06 3.57.5 4.68 2.06 7.7-.37 2.24-.37 2.24-1 4 1.6.68 1.6.68 4 1 3.03-1.27 3.03-1.27 6.38-3.14l1.76-.97a47 47 0 0 0 8.3-5.7c2.56-2.2 2.56-2.2 5.27-3.07 3.89-1.34 7.07-3.22 10.54-5.38q1.99-1.2 3.98-2.43l1.95-1.2q3.71-2.26 7.45-4.5l2.22-1.33 4.68-2.8q3.21-1.94 6.35-3.99a51 51 0 0 1 7.8-4.13A60 60 0 0 0 506 318q4.99-2.55 10-5 3.93-1.95 7.8-4.03c13.5-7.23 13.5-7.23 19.78-9.89 4.14-1.85 8.18-3.94 12.23-6a351 351 0 0 1 29.94-13.2A631 631 0 0 0 605 272l2.75-1.07C610 270 610 270 613 268h3q2.07-.36 4.13-.8 1.04-.25 2.13-.47a91 91 0 0 0 6.86-2.18c5.19-1.75 10.43-2.7 15.82-3.62l5.59-.97 2.75-.47c3.49-.63 6.97-1.37 10.44-2.12 2.46-.4 4.79-.4 7.28-.37q2.51-.45 5-1 2.99-.59 6-1l1 1q2.43.1 4.85.06l3.03-.02 6.29-.08c5.73-.05 11.17.18 16.83 1.04l2.39.31q.92.14 1.86.25c3.75.44 3.75.44 7.75.44q2.58 1.11 5.15 2.27c2.85 1.12 5.83 1.3 8.85 1.73 2.05.67 4.04 1.45 6.04 2.24 2.93 1.13 5.94 1.92 8.96 2.76l10 3 .75-1.88c1.5-2.54 2.62-2.9 5.25-4.12a78 78 0 0 0 3.63-3.63c1.79-1.9 1.79-1.9 3.37-3.37h2l.3-1.88c.7-2.12.7-2.12 3.7-4.12 1.18-2 1.18-2 2.3-4.44a233 233 0 0 1 10.29-19.2c1.4-2.36 1.4-2.36 2.9-5.36 4.4-8.77 10.28-16.74 15.93-24.72q1.85-2.69 3.58-5.47c4.44-6.25 9.34-10.17 16-13.8l1.92-1.94c11.72-11.66 32.18-17.44 48.23-18.83 10.77-1.43 10.77-1.43 11.04-1.43m-68.2 30.2-2.51 2.13C818.4 194.65 813.8 202.77 809 211l-1.95 3.3a456 456 0 0 0-9.2 16.63l-1.7 3.21-3.32 6.33A73 73 0 0 1 781 257l-3.37 4.06a97 97 0 0 1-8 8.06l-2.03 1.82c-4.12 1.68-7.45.3-11.6-.94l-2.37-.69q-3.67-1.1-7.32-2.25C698.5 252.51 648.16 258.07 602 276l-2.02.77A639 639 0 0 0 537 305l-5.51 2.73c-24.97 12.37-49.14 25.9-73.1 40.08-24.55 14.54-24.55 14.54-34.4 19.2q.04-.9.05-1.79c.2-15.35-2.3-30.79-5.41-45.79l-.56-2.82c-1.53-6.93-4.15-12.4-8.94-17.68-3.46-1.52-5.52-.95-9.13.07a55 55 0 0 0-8 6l-2.55 2.2c-3.55 3.1-6.9 6.12-9.88 9.8-3.97 4.64-8.81 8.2-13.57 12l-1 1q-3.84-.16-7.68-.44c-7.06-.47-14.06-.6-21.14-.53l-8.46.01q-2.85.02-5.7.08c-13.62.3-22.51-1.5-33.41-9.89-2.14-1.64-4.37-3.12-6.61-4.62l-4-2.86-2.03-1.45q-5.13-3.66-10.15-7.48c-5.4-4.06-10.8-7.3-17.51-8.45-4.28.81-7.23 2.55-10.31 5.63-2.4 3.62-2.26 7.17-2.21 11.36v2.23q.01 3.64.05 7.3 0 2.56.02 5.11.01 6.75.06 13.5.07 10.73.1 21.47l.04 7.43c.05 8.68-.21 17.27-.82 25.94a256 256 0 0 0-.44 15.67l-.02 3.2-.02 6.6q-.02 4.97-.07 9.96c-.1 20.4 2.04 35.76 16.3 51.23 14.58 13.67 31.22 21.91 50.45 26.87l2.5.66A53 53 0 0 0 319 510c-5.3 8.26-11.15 16.12-17 24l-1.5 2.01c-13.45 18.12-27.48 35.51-42.81 52.1a622 622 0 0 0-5.46 5.95c-24.57 27.1-24.57 27.1-35.56 28.31l-3.48.06c-8.96.5-15.46 2.75-21.61 9.45-4.37 5.87-7.5 12.56-7 20 1.26 6.42 4.47 10.86 9.56 14.87 8.15 5.47 17.3 6.01 26.86 5.25 8.36-1.83 15.68-5.68 23-10l-.97 2.07c-1.2 3.4-1.36 6.2-1.4 9.8l-.1 3.56c.56 4.22 1.7 7.36 4.47 10.57 2.5 1.83 5.12 3.1 7.94 4.37q1.04.52 2.13 1.04c10.15 4.81 22.55 5.26 33.47 2.8A88 88 0 0 0 299 692l1.93-.96c8.95-4.39 17.39-9.4 25.7-14.9 4.8-3.17 9.69-6.15 14.68-9.03a430 430 0 0 0 20.74-12.94 993 993 0 0 1 20.45-12.99 636 636 0 0 0 27.17-17.69q6.18-4.24 12.33-8.5l2.1-1.46c35.1-24.36 35.1-24.36 44.68-34.4 5.99-6 12.3-8.3 20.32-10.5 3.59-.99 7.16-2.07 10.73-3.14l2.15-.64c9.64-2.9 18.8-6.83 28.02-10.86l5.89-2.52c24.56-10.57 48.4-22.6 72.3-34.6a791 791 0 0 1 39.8-18.88l.49 1.63a88 88 0 0 0 7.59 17.06l1.47 2.64c15.95 28.18 38.29 48.78 65.76 65.52 10.67 6.53 20.15 12.42 23.7 25.15.64 4.67.93 9.3 1 14l-3.43-.25a22 22 0 0 0-15.62 6.15c-5.71 6.35-7.44 10.6-7.25 19.2.42 4.03 1.46 6 4.3 8.9a76 76 0 0 0 8 5l1.94 1.16c10.38 6.21 26.2 5.67 37.73 2.9 8.89-2.62 16.49-6.32 21.14-14.63 4.4-9 6.62-19.2 9.13-28.87l.52-2A397 397 0 0 0 815 562l.34-3.19c.69-7.83.76-15.64.79-23.5v-3.17c0-4.9-.13-9.72-.62-14.6-1.74-17.46-.7-35.17.8-52.6l.2-2.34c.65-7.45 1.36-14.88 2.36-22.29 2.13-16.1 2.43-32.02 2.44-48.25l.02-3.46c.04-23.87.04-23.87-2.33-34.6l-.53-2.53c-3.31-14.66-8.43-27.77-16.48-40.5-1.85-2.94-3.46-5.5-4-8.97l1.77-.8c19.2-10.26 28.4-34.64 36.53-53.48 7.62-17.58 16.9-32.25 34.96-40.29q3.36-1.27 6.75-2.43l2.29-.8c17.15-4.86 35.19.16 50.37 8.21 12.27 6.94 20.85 18.18 25.34 31.6a60 60 0 0 1 1.13 12.86v3.5a98 98 0 0 1-.9 9.53c-.41 3.7-.5 7.38-.54 11.1l-.1 2.3c-.06 6.65 1.78 11.77 6.26 16.76l1.78 1.37 1.79 1.44c4.4 3.14 9.37 2.65 14.58 2.13 6.9-3.32 10.58-8.4 13.19-15.38l2.9-9.08c1.5-6.18 1.34-12.53 1.35-18.85v-2.02c-.02-11.57-1.55-21.79-5.44-32.67l-1.2-3.65c-2.63-7.5-6.26-13.86-10.8-20.35l-1.94-2.89c-3.61-5.19-7.24-9.52-12.15-13.5a50 50 0 0 1-5.03-5.05c-7.53-7.57-18.07-11.82-27.75-15.94l-2.38-1c-35.1-14.47-75.12-2.46-102.75 21.38" fill="#BCBDBC"/><path d="m648 498 1.43 2.94C656.56 515.43 663.8 529.4 674 542l1.26 1.58c12.98 16.27 28.15 28.33 45.93 38.98 19.89 11.96 19.89 11.96 24.81 22.44l1.11 2.28c1.13 3.45 1.08 6.41 1.01 10.03l-.05 3.8L748 624l-2.2.33c-12.81 2.1-12.81 2.1-16.46 6.81-2.34 1.86-2.34 1.86-5.93 1.85a218 218 0 0 1-4.35-.68l-4.95-.66-2.58-.35c-7.8-.93-15.69-1.04-23.53-1.3l-3.81-.14c-45.95-1.62-91.9-1.29-137.84.74q-9.9.43-19.8.77c-11.51.4-23 .92-34.49 1.82l-2.36.18a1234 1234 0 0 0-45.82 4.63l-3.3.38a1312 1312 0 0 0-37.94 4.95q-8.96 1.28-17.95 2.36l-3.18.39-7.51.92c3.63-3.93 7.4-6.66 12.06-9.31l4.04-2.37 2.01-1.19c4.76-2.85 9.32-6 13.89-9.13l1.8-1.23q7.12-4.85 14.2-9.77l2.1-1.45c35.11-24.37 35.11-24.37 44.68-34.42 5.99-5.99 12.3-8.29 20.32-10.49 3.59-.99 7.16-2.07 10.73-3.14l2.15-.64c9.64-2.9 18.81-6.83 28.02-10.86l5.88-2.52c19.87-8.54 39.27-18.03 58.6-27.73l2.77-1.38 13.53-6.82a701 701 0 0 1 28.97-13.87l2.4-1.07 2.11-.95C646 498 646 498 648 498" fill="#EDEEED"/><path d="M896.19 155.81h2.15c15.37.18 30.45 3.05 43.66 11.2l4.3 1.8c9.28 4.05 18 11.66 24.7 19.2v2l1.82.76c2.44 1.37 3.5 2.64 5.12 4.92l1.55 2.16 1.5 2.15 1.37 1.8c6.9 9.24 10.65 20.14 14.39 30.95l1.3 3.73c.92 3.38 1.05 6.04.95 9.52l1 3v6l1 2c.49 9.26-.02 17.9-3.2 26.65-.8 2.35-.8 2.35-1.38 4.82-1.7 7.06-4.93 11.76-10.42 16.53a30 30 0 0 1-7 3l-3 1c-8.03-1.07-15.3-5.36-21-11-.68-2.26-.68-2.26-1-5l-1.11-3.83c-1.06-4.18-.7-7.59-.01-11.86 2.52-18.09 2.47-32.95-7.25-48.75l-1.1-1.79c-2.64-4.04-5.4-6.33-9.53-8.77l-2.05-1.35c-6.83-4.33-12.65-7.96-20.87-8.48A21 21 0 0 1 904 206l-1.75.56c-3.15.61-5.3-.43-8.25-1.56l-1 1-3.37.43C886 207 886 207 883 209l-3-1c-2.01.67-2.01.67-4.25 1.75a114 114 0 0 1-8.5 3.68c-3.56 1.72-5.54 3.72-8.25 6.57q-2.46 1.56-5 3c-2.9 1.77-3.82 2.37-4.75 5.7L849 231l-3 1v5l-1.93.62L842 239q-.59 3-1 6l-1.3 1.63c-2.51 3.5-3.86 7.38-5.45 11.37a127 127 0 0 1-9.7 19.45c-1.55 2.55-1.55 2.55-3.1 5.7-1.67 3.3-3.78 5.32-6.45 7.85l-2 3h-2l-.12 1.7c-1.35 3.55-3.84 5.11-6.88 7.3h-3a54 54 0 0 0 5 10l1.44 2.43a51 51 0 0 0 3.56 5.32c2.43 3.94 3.67 7.84 5 12.25l1.07 3.12c1.06 3.27 2 6.57 2.93 9.88l1 3.31c1.92 7.06 3.27 13.63 2.98 20.97.02 2.72.02 2.72.5 6.5.77 6.46.67 12.96.65 19.46v14.74C825 414 825 414 824 416v3.37c0 3-.3 4.83-1 7.63v3.62c0 3.38 0 3.38-1 5.38v3.37c0 2.95-.26 4.86-1 7.63v2.43c0 2.57 0 2.57-.5 4.94-.5 2.63-.5 2.63-.5 6.2 0 3.43 0 3.43-.5 5.36a24 24 0 0 0-.5 6.57c.12 4.13.12 4.13-.5 6.13-.73 3.48-.64 6.95-.63 10.5v15.03c-.01 7.18.04 14.24.9 21.37.52 5.61.38 11.27.36 16.9v10.82C819 556 819 556 818 559l1 3a212 212 0 0 1-1.45 4.91c-.83 3.2-1.05 6.4-1.33 9.67-.28 3.16-.74 6.28-1.22 9.42l-.43 3.56C814 593 814 593 813 595.87a33 33 0 0 0-1.5 7.63A43 43 0 0 1 809 614q-.83 3.8-1.53 7.63a64 64 0 0 1-3.03 10.62l-.82 2.14L803 636c5.7 1.76 11.38 2.82 17.25 3.81 37.99 6.7 37.99 6.7 47.63 15.12C870 658 870 658 870.44 661c-2.31 4.82-5.67 6.76-10.44 9-8.74 3-17.81 4.4-26.93 5.7q-1.27.15-2.56.35c-18 2.34-36.15 2.18-54.26 2.2h-2.06c-28.85.04-57.61-1.08-86.41-2.5a1598 1598 0 0 0-79.84-1.94h-2.3c-25.44.01-50.8.44-76.21 2.04l-7.12.42c-63.1 3.76-126.27 11.05-188.96 19.04l-10.85 1.37-4.86.62a316 316 0 0 1-29.95 2.45l-3.8.17c-10.56.36-20.25-.6-30.15-4.43C252 695 252 695 250 696l-4.3-2.88q-2.25-1.48-4.57-2.87c-4.16-3-7.6-6.56-11.13-10.25 1.68-3.54 2.5-4.79 6.19-6.3l2.8-.7v-5l-1.32 1.02c-5.37 3.56-10.38 4.66-16.67 5.35q-1.12.14-2.26.26c-10.25.94-18.57-.72-27.3-6.26L190 667v-2l-1.85-.76c-3.24-1.87-4.13-4.09-5.52-7.47-1.67-7.36.63-16.38 4.37-22.77 4.22-5.69 8.3-10.8 15.35-12.64 3.39-.46 6.74-.55 10.15-.67 7.34-.4 11.03-1.94 16.5-6.69l3.52-2.86 3.79-3.14 1.82-1.5A45 45 0 0 0 247 596c1.9-1.8 1.9-1.8 3.8-3.3 3.88-3.25 6.8-6.82 9.76-10.88C262 580 262 580 264 579l3-5q1.98-2.46 4.07-4.8 1.03-1.2 2.09-2.4C275 565 275 565 277 565l.34-1.79c.72-2.4 1.6-3.7 3.2-5.64l1.57-1.9 1.64-1.98a201 201 0 0 0 9.02-11.55C295 539 295 539 297 537l2-3h2l.8-1.63L303 530l1.19-2.69c2.09-3.82 4.63-7 7.39-10.36C313 515 313 515 313 513l-2.1-.33A102 102 0 0 1 293 508l-4.62-1.5c-14.23-4.79-36.24-15.2-43.4-29.56-.98-1.94-.98-1.94-3.35-4.13-8.96-9.6-10.1-24.3-9.96-36.8v-3.6l.05-7.49q.04-5.7.05-11.43l.03-7.3v-3.43l.04-3.22.02-2.8c.14-2.74.14-2.74.65-5.58.59-3.78.6-7.47.56-11.28l-.02-2.39-.03-5.13q-.04-4.04-.05-8.12-.05-11.55-.14-23.09-.06-7.06-.07-14.14l-.04-5.38q-.04-3.74-.04-7.52l-.04-2.23c.03-6.75 2.46-11.39 6.93-16.32 2.3-2.2 3.7-3.42 6.86-4.02 9.44.56 16.47 6.2 23.58 11.9A55 55 0 0 0 277 308a135 135 0 0 1 9.8 6.93 80 80 0 0 0 11.03 6.9c2.17 1.17 2.17 1.17 4.25 2.72 4.03 2 7.42 1.81 11.85 1.71l2.63-.02 8.32-.12 10.86-.1 2.67-.04c6.56-.05 13.03.3 19.57.9 7.33.3 11.02-2.63 16.35-7.33 4.3-3.99 8.38-8.23 12.43-12.47 5.18-5.34 10.32-10.33 17.8-11.77 4.85.97 7.4 2.81 10.44 6.7 4.96 9.21 6.79 18.73 8 29l.5 1.92c.74 3.02.94 6.06 1.22 9.14C425 344 425 344 426 345l-.06 3.31c.06 3.57.5 4.68 2.06 7.7-.37 2.24-.37 2.24-1 4 1.6.68 1.6.68 4 1 3.03-1.27 3.03-1.27 6.38-3.14l1.76-.97a47 47 0 0 0 8.3-5.7c2.56-2.2 2.56-2.2 5.27-3.07 3.89-1.34 7.07-3.22 10.54-5.38q1.99-1.2 3.98-2.43l1.95-1.2q3.71-2.26 7.45-4.5l2.22-1.33 4.68-2.8q3.21-1.94 6.35-3.99a51 51 0 0 1 7.8-4.13A60 60 0 0 0 506 318q4.99-2.55 10-5 3.93-1.95 7.8-4.03c13.5-7.23 13.5-7.23 19.78-9.89 4.14-1.85 8.18-3.94 12.23-6a351 351 0 0 1 29.94-13.2A631 631 0 0 0 605 272l2.75-1.07C610 270 610 270 613 268h3q2.07-.36 4.13-.8 1.04-.25 2.13-.47a91 91 0 0 0 6.86-2.18c5.19-1.75 10.43-2.7 15.82-3.62l5.59-.97 2.75-.47c3.49-.63 6.97-1.37 10.44-2.12 2.46-.4 4.79-.4 7.28-.37q2.51-.45 5-1 2.99-.59 6-1l1 1q2.43.1 4.85.06l3.03-.02 6.29-.08c5.73-.05 11.17.18 16.83 1.04l2.39.31q.92.14 1.86.25c3.75.44 3.75.44 7.75.44q2.58 1.11 5.15 2.27c2.85 1.12 5.83 1.3 8.85 1.73 2.05.67 4.04 1.45 6.04 2.24 2.93 1.13 5.94 1.92 8.96 2.76l10 3 .75-1.88c1.5-2.54 2.62-2.9 5.25-4.12a78 78 0 0 0 3.63-3.63c1.79-1.9 1.79-1.9 3.37-3.37h2l.3-1.88c.7-2.12.7-2.12 3.7-4.12 1.18-2 1.18-2 2.3-4.44a233 233 0 0 1 10.29-19.2c1.4-2.36 1.4-2.36 2.9-5.36 4.4-8.77 10.28-16.74 15.93-24.72q1.85-2.69 3.58-5.47c4.44-6.25 9.34-10.17 16-13.8l1.92-1.94c11.72-11.66 32.18-17.44 48.23-18.83 10.77-1.43 10.77-1.43 11.04-1.43m-68.2 30.2-2.51 2.13C818.4 194.65 813.8 202.77 809 211l-1.95 3.3a456 456 0 0 0-9.2 16.63l-1.7 3.21-3.32 6.33A73 73 0 0 1 781 257l-3.37 4.06a97 97 0 0 1-8 8.06l-2.03 1.82c-4.12 1.68-7.45.3-11.6-.94l-2.37-.69q-3.67-1.1-7.32-2.25C698.5 252.51 648.16 258.07 602 276l-2.02.77A639 639 0 0 0 537 305l-5.51 2.73c-24.97 12.37-49.14 25.9-73.1 40.08-24.55 14.54-24.55 14.54-34.4 19.2q.04-.9.05-1.79c.2-15.35-2.3-30.79-5.41-45.79l-.56-2.82c-1.53-6.93-4.15-12.4-8.94-17.68-3.46-1.52-5.52-.95-9.13.07a55 55 0 0 0-8 6l-2.55 2.2c-3.55 3.1-6.9 6.12-9.88 9.8-3.97 4.64-8.81 8.2-13.57 12l-1 1q-3.84-.16-7.68-.44c-7.06-.47-14.06-.6-21.14-.53l-8.46.01q-2.85.02-5.7.08c-13.62.3-22.51-1.5-33.41-9.89-2.14-1.64-4.37-3.12-6.61-4.62l-4-2.86-2.03-1.45q-5.13-3.66-10.15-7.48c-5.4-4.06-10.8-7.3-17.51-8.45-4.28.81-7.23 2.55-10.31 5.63-2.4 3.62-2.26 7.17-2.21 11.36v2.23q.01 3.64.05 7.3 0 2.56.02 5.11.01 6.75.06 13.5.07 10.73.1 21.47l.04 7.43c.05 8.68-.21 17.27-.82 25.94a256 256 0 0 0-.44 15.67l-.02 3.2-.02 6.6q-.02 4.97-.07 9.96c-.1 20.4 2.04 35.76 16.3 51.23 14.58 13.67 31.22 21.91 50.45 26.87l2.5.66A53 53 0 0 0 319 510c-5.3 8.26-11.15 16.12-17 24l-1.5 2.01c-13.45 18.12-27.48 35.51-42.81 52.1a622 622 0 0 0-5.46 5.95c-24.57 27.1-24.57 27.1-35.56 28.31l-3.48.06c-8.96.5-15.46 2.75-21.61 9.45-4.37 5.87-7.5 12.56-7 20 1.26 6.42 4.47 10.86 9.56 14.87 8.15 5.47 17.3 6.01 26.86 5.25 8.36-1.83 15.68-5.68 23-10l-.97 2.07c-1.2 3.4-1.36 6.2-1.4 9.8l-.1 3.56c.56 4.22 1.7 7.36 4.47 10.57 2.5 1.83 5.12 3.1 7.94 4.37q1.04.52 2.13 1.04c8.79 4.17 17.55 3.91 27.12 3.96l2.42.02c20.32.06 42.66-.86 62.44-5.92 2.8-.68 5.57-.7 8.45-.85 5.93-.33 11.7-1.05 17.57-2a464 464 0 0 1 29.79-3.53 923 923 0 0 0 21.58-2.32q39.12-4.64 78.4-7.4a1196 1196 0 0 0 10.47-.79c29.2-2.3 58.3-2.86 87.57-2.83h2.62c19.16.01 38.32.2 57.48.7l2.26.06c10.44.27 20.84.8 31.26 1.5 148.25 9.53 148.25 9.53 170.78-9.98C868 662 868 662 868.07 659.5c-1.83-4.3-5.18-6.1-9.33-7.99q-1.92-.72-3.86-1.39l-2.17-.75c-16.22-5.4-35.52-10.7-52.71-10.37l1.53-6.4 1.34-5.69c1.09-4.6 2.19-9.19 3.4-13.75 2.93-11.27 4.84-22.59 6.48-34.1l.33-2.25a285 285 0 0 0 3.05-41.5v-3.14c0-4.9-.13-9.75-.62-14.63-1.74-17.46-.7-35.17.8-52.6l.2-2.34c.65-7.45 1.36-14.88 2.36-22.29 2.13-16.1 2.43-32.02 2.44-48.25l.02-3.46c.04-23.87.04-23.87-2.33-34.6l-.53-2.53c-3.31-14.66-8.43-27.77-16.48-40.5-1.85-2.94-3.46-5.5-4-8.97l1.77-.8c19.2-10.26 28.4-34.64 36.53-53.48 7.62-17.58 16.9-32.25 34.96-40.29q3.36-1.27 6.75-2.43l2.29-.8c17.15-4.86 35.19.16 50.37 8.21 12.27 6.94 20.85 18.18 25.34 31.6a60 60 0 0 1 1.13 12.86v3.5a98 98 0 0 1-.9 9.53c-.41 3.7-.5 7.38-.54 11.1l-.1 2.3c-.06 6.65 1.78 11.77 6.26 16.76l1.78 1.37 1.79 1.44c4.4 3.14 9.37 2.65 14.58 2.13 6.9-3.32 10.58-8.4 13.19-15.38l2.9-9.08c1.5-6.18 1.34-12.53 1.35-18.85v-2.02c-.02-11.57-1.55-21.79-5.44-32.67l-1.2-3.65c-2.63-7.5-6.26-13.86-10.8-20.35l-1.94-2.89c-3.61-5.19-7.24-9.52-12.15-13.5a50 50 0 0 1-5.03-5.05c-7.53-7.57-18.07-11.82-27.75-15.94l-2.38-1c-35.1-14.47-75.12-2.46-102.75 21.38" fill="#E6E7E8"/><path d="M676 398h1l-.02 2.79-.03 10.49-.03 4.49c-.16 28.16-.16 28.16 3.13 36.61 1.07 2.96 1.88 5.95 2.69 9 6.39 23.97 17.78 44.71 32.44 64.57l2.2 2.99 2.02 2.71C721 534 721 534 722 537h2a24 24 0 0 1 2.62 3.38l1.36 1.89C729 544 729 544 729 546h2l2 5h2c3.23 3.47 6.08 7.27 9 11l2.09 2.55c7.87 10.04 15.32 23.03 14.37 36.15L760 604l-.27 2.01c-1.03 7.52-2.12 13.82-6.73 19.99l-5-1-.01-2.86c-.31-10.23-1.86-18.45-8.99-26.35-7.29-6.44-15.97-11.2-24.22-16.27-7.12-4.4-13.6-8.87-19.78-14.52l-2.89-2.5c-18.32-16.01-36.47-39.14-44.11-62.5v-3l6.06-2.81 3.41-1.58q5.24-2.37 10.53-4.61l-.04-3.09c-.14-18.39.71-36.67 2.42-54.97l.34-3.82c2.15-21.86 2.15-21.86 5.28-28.12" fill="#010201"/><path d="M252 295v6l2.3 1.21 6 3.18c2.33 1.39 4.01 2.51 5.7 4.61v2l2.2.75c7.9 3.53 15.93 12.14 20.8 19.25v4l-1.8.63C275 341.16 261.9 348.68 255 360h-2l-.34 1.78c-.71 2.39-1.64 3.81-3.16 5.78A19 19 0 0 0 246 374h-3c-.77-5.7-.77-5.7-1.07-8.07q-.8-6.1-1.73-12.17c-2.13-14.32-2.56-28.29-2.2-42.76h-2c-.46-5.71.3-8.6 4-13 3.95-3.2 7-3.29 12-3" fill="#252724"/><path d="M371.25 415c6.5 3.64 11.47 8.83 13.75 16 .86 7.09.94 13.41-3.44 19.29-4.78 5.25-9.28 9.29-16.61 10.01-9.38.03-16.49-1.14-23.95-7.3-4.52-5.92-7.56-10.59-7.46-18.14 1.03-6.38 4.9-11.67 9.75-15.82 8.79-6.04 17.82-8.64 27.96-4.04" fill="#F8D65B"/><path d="M288.75 412.06c7.46 4.45 13.01 9.3 15.25 17.94.84 6.27.29 11.48-3 17-4.23 4.52-8.51 7.53-14.76 8.37-8.39.2-14.67-1.39-21.09-6.98-5.03-5.4-7.26-11.18-7.52-18.52.17-4.35.75-7.27 3.37-10.87 8.56-7.57 16.41-10.15 27.75-6.94" fill="#181913"/><path d="M235 312h1l.43 21.71.14 7.36c.74 37.14.74 37.14-.05 48.42-.7 10.1-.74 20.19-.76 30.31q-.02 4.99-.07 9.98c-.09 18.37.77 33.68 13.95 47.59C251 479 251 479 251 481l1.79.81a23 23 0 0 1 5.52 4.25c16.46 14.66 39.1 21.65 60.69 23.94-1.64 5.18-4.81 9.18-8 13.5l-1.77 2.43a793 793 0 0 1-13.88 18.32 522 522 0 0 0-4.54 5.98c-5.33 7.06-10.67 13.96-16.7 20.45a166 166 0 0 0-6.61 7.88c-3.56 4.4-7.35 8.39-11.4 12.34a95 95 0 0 0-5.35 5.85C229 622 229 622 216.67 623.37l-3.48.07c-8.4.47-14.14 2.04-20 8.25-4.81 6.03-7.98 12.26-7.57 20.11.94 5.44 3.33 9.15 7.19 13.01 8.82 6.05 17.74 7.03 28.19 6.19 8.57-1.89 16.3-5.9 24-10l-.98 2.56c-1.08 3.65-1.32 6.65-1.33 10.44l-.05 3.56c.42 3.98 1.07 6.15 3.36 9.44a44 44 0 0 0 7.88 4.31l2.14 1.05c3.63 1.73 6.96 3.1 10.98 3.64l-2 2a40 40 0 0 1-10.31-2.12C252 695 252 695 250 696l-4.3-2.88q-2.26-1.47-4.58-2.87c-4.15-2.99-7.59-6.55-11.12-10.25 1.68-3.54 2.49-4.79 6.19-6.31L239 673v-5l-1.34 1.02c-5.36 3.56-10.37 4.67-16.66 5.36l-2.26.25c-10.26.94-18.57-.72-27.3-6.25L190 667v-2l-1.85-.76c-3.24-1.87-4.13-4.09-5.52-7.47-1.67-7.35.63-16.37 4.37-22.77 4.22-5.69 8.3-10.81 15.35-12.64 3.38-.46 6.74-.55 10.15-.67 7.34-.41 11.02-1.94 16.5-6.69l3.52-2.86 3.79-3.14 1.82-1.51c3.69-3.17 6.22-6.36 8.87-10.49 1.89-1.8 1.89-1.8 3.81-3.31 3.87-3.23 6.78-6.81 9.74-10.87C262 580 262 580 264 579l3-5q1.97-2.46 4.06-4.81l2.1-2.4C275 565 275 565 277 565l.34-1.79c.72-2.41 1.61-3.71 3.21-5.64l1.56-1.91 1.64-1.97a198 198 0 0 0 9.02-11.55C295 539 295 539 297 537l2-3h2l.81-1.62L303 530l1.19-2.69c2.09-3.82 4.63-7 7.38-10.36C313 515 313 515 313 513l-2.09-.33A102 102 0 0 1 293 508l-4.62-1.5c-14.23-4.78-36.25-15.21-43.41-29.56-.97-1.94-.97-1.94-3.35-4.13-8.95-9.59-10.09-24.31-9.95-36.8l.01-3.61q0-3.74.04-7.47.04-5.73.05-11.44l.03-7.29.01-3.44.03-3.22.02-2.81c.15-2.97.65-5.8 1.14-8.73q.1-2.31.06-4.64l-.02-2.64-.04-2.85c-.09-13.62.44-27.2 1-40.81l.29-7.34z" fill="#E6E5E8"/><path d="M378 547c3.31.75 3.31.75 6 2-5.18 6.26-10.84 11.98-16.59 17.72l-3.07 3.08-6.43 6.42-8.18 8.18-6.35 6.36-3.01 3.01a278 278 0 0 1-15.71 14.81q-2.97 2.56-5.77 5.29a346 346 0 0 0-4.2 4.01A276 276 0 0 1 295 635l-3.68 2.91c-13.02 10.31-13.02 10.31-17.77 10.5l-2.57.12-2.67.09-2.7.12q-3.3.14-6.61.26a205 205 0 0 1 22.38-19.38 206 206 0 0 0 17.09-14.3c3.41-3.12 6.99-6 10.58-8.91q5.03-4.14 9.95-8.41a475 475 0 0 1 12.69-10.62c4.69-3.81 9.13-7.83 13.57-11.92 2.62-2.35 5.31-4.57 8.05-6.77a254 254 0 0 0 14.83-13.17c6.85-6.46 6.85-6.46 9.86-8.52" fill="#ECECF0"/><path d="M361 419a22 22 0 0 1 11 13c.97 5.93.1 10.35-3.39 15.27-3.7 3.97-8.22 5.88-13.61 6.29-4.84-.28-8.39-2.44-12-5.56-4.66-5.48-4.47-10.66-4.53-17.7.76-4.72 3.02-6.84 6.36-10.07 4.86-2.75 10.82-2.07 16.17-1.23" fill="#171712"/><path d="M288.75 412.06c7.46 4.45 13.01 9.3 15.25 17.94.84 6.27.29 11.48-3 17-4.23 4.52-8.51 7.53-14.76 8.37-8.39.2-14.67-1.39-21.09-6.98-5.03-5.4-7.26-11.18-7.52-18.52.17-4.35.75-7.27 3.37-10.87 8.56-7.57 16.41-10.15 27.75-6.94m-26.12 10.06c-2.44 4.31-2.34 8.05-1.63 12.88 1.67 5.72 3.84 9.74 9 13 3.46 1.73 7.21 1.35 11 1 5.56-1.99 8.06-5.09 11.25-9.88 1.44-4.09 1.55-7.4-.31-11.4-3.3-5.38-6.99-9.4-12.94-11.72-7.11-1.5-11.26 1.54-16.37 6.12" fill="#F4D25A"/><path d="M235 312h1l.43 21.71.14 7.36c.74 37.14.74 37.14-.05 48.42-.7 10.1-.74 20.19-.76 30.31q-.02 4.99-.07 9.98c-.09 18.37.77 33.68 13.95 47.59C251 479 251 479 251 481l4 2-1 2c-3.49-1.29-5.32-3.35-7.58-6.25-1.42-1.75-1.42-1.75-3.15-3.54-4.98-5.18-7.38-10.31-9.27-17.21l-.51-1.82c-1.69-6.64-1.76-13.05-1.72-19.88v-3.62l.02-7.53q.03-5.75.02-11.51l.02-7.34.01-3.47.01-3.24.02-2.84c.14-2.98.64-5.81 1.13-8.75q.1-2.31.06-4.64l-.02-2.64-.04-2.85c-.09-13.62.44-27.2 1-40.81l.29-7.34z" fill="#DDE0DD"/><path d="M821 373h1l1 27h2q.04 3.43.06 6.88l.04 3.86C825 414 825 414 824 416v3.38c0 2.98-.3 4.82-1 7.62v3.62c0 3.38 0 3.38-1 5.38v3.38c0 2.95-.26 4.85-1 7.62v2.44c0 2.56 0 2.56-.5 4.94-.5 2.62-.5 2.62-.5 6.18 0 3.44 0 3.44-.5 5.37a24 24 0 0 0-.5 6.57c.06 2.25.1 4.13-.5 6.3-.59 2.6-.6 4.93-.56 7.59l.02 3.09.04 3.21.06 6.32.04 2.83C818 504 818 504 817 505a61 61 0 0 0-.06 4.06L817 513l-2 1c-8.53-17.06.52-55.29 2.83-73.89 2.75-22.32 2.91-44.65 3.17-67.11" fill="#DEDEE0"/><path d="M251.5 292.2c7.13 2.3 12.71 6.58 18.5 11.23a56 56 0 0 0 7 4.57q5.05 3.25 9.81 6.94a80 80 0 0 0 11.01 6.88 22 22 0 0 1 4.24 2.74c4.1 2.01 7.6 1.8 12.08 1.7l2.67-.02q4.22-.04 8.44-.12l8.4-.09q2.6-.01 5.21-.07c11.25-.13 11.25-.13 16.14 1.04l1 2q-10.88.37-21.77.55-3.69.08-7.38.2c-15.1.52-26.36.36-38.33-9.5-2.08-1.7-4.29-3.16-6.52-4.64l-4-2.86-2.04-1.45a407 407 0 0 1-10.15-7.48c-5.4-4.07-10.8-7.37-17.56-8.38-4.57.8-7.76 2.57-10.56 6.31-2.38 7.8-1.97 16.38-2.19 24.44-.26 9.3-.7 18.54-1.5 27.81h-1q-.12-10.09-.17-20.18 0-3.43-.06-6.86l-.07-9.88-.04-3.08c0-7.68 1.67-12.66 6.9-18.44 3.97-3.8 6.6-4.42 11.93-3.37" fill="#DDDEDF"/><path d="m820 281 1 4-2.88 2.25c-2.45 2.03-3.99 3.71-5.12 6.75h-2l-.12 1.69c-1.35 3.56-3.85 5.13-6.88 7.31h-3a54 54 0 0 0 5 10l1.44 2.44C809 318 809 318 811 320.75c2.43 3.94 3.67 7.85 5 12.25l1.06 3.12A243 243 0 0 1 820 346l1 3.31c1.95 7.2 3.18 13.81 3 21.29 0 2.2.19 4.22.5 6.4.98 7.6.57 15.36.5 23h-2v11h-1l-.04-3.19c-.59-39.41-.59-39.41-3.96-53.81l-.53-2.37c-3.37-14.75-8.33-27.9-16.57-40.66-2.15-3.38-2.9-4.84-2.9-8.97 1.65-1.57 1.65-1.57 3.94-3.12 4.64-3.39 8.27-7.21 12.02-11.55 1.93-2.21 3.94-4.28 6.04-6.33" fill="#E3E4E6"/><path d="M942 167q2.15.92 4.31 1.81c9.26 4.05 18 11.67 24.69 19.19v2l1.82.77c2.44 1.38 3.5 2.64 5.12 4.92l1.55 2.17L981 200l1.36 1.8c6.9 9.24 10.65 20.14 14.39 30.95l1.3 3.73c.91 3.39 1.05 6.05.95 9.52l1 3-1 2a96 96 0 0 0-.32 4.79l-.12 2.85-.12 2.98-.13 3.01L998 272h-1l-.01-2.09c-.16-15.01-1.17-28.65-5.99-42.91l-1.2-3.67c-2.64-7.48-6.3-13.82-10.8-20.33l-1.72-2.66a54 54 0 0 0-11.33-12.7 49 49 0 0 1-5.07-5.08c-7.54-7.56-18.07-11.81-27.76-15.94l-2.37-1.01c-6.79-2.79-13.38-4.68-20.75-5.23l-2.88-.23L905 160v-1c13-3.47 25.92 1.18 37 8" fill="#E4E6E5"/><path d="m277.63 411.94 3.6.03 2.77.03v2h5l-1 2-3.5.08-4.62.17-2.3.05c-6.25.26-10.04 2-14.43 6.66-2.51 4.47-1.77 9.76-.45 14.55 2 5.1 4.1 8.24 9.3 10.49 5.58.87 10.35.39 15-3 2.85-3.72 4.94-7.8 7-12 .29 4.89.2 7.29-3 11-.69 2.25-.69 2.25-1 4h-2l2 2q1.91-.63 3.81-1.31l2.14-.74c2.2-1.01 3.45-2.16 5.06-3.95-.25 3.38-1.25 4.22-3.76 6.63-5.21 4.3-10.54 4.88-17.12 4.75-6.64-.8-12.01-3.82-16.56-8.7-5.05-6.61-6.55-13.43-5.56-21.68 1.81-5.93 5.98-8.73 11-12 2.88-1.44 5.4-1.1 8.62-1.06" fill="#E7D77B"/><path d="m360.5 412.75 2.78-.02c2.9.29 5.08 1.07 7.72 2.27l-1.94.31-2.06.69-1 3-2-2v-3l-11 1v2l2.27.04c8.14.4 8.14.4 11.42 3.52L368 423c-3 0-3 0-4.75-1.47-3.12-2.12-5.46-1.96-9.19-1.97l-3.65-.06c-4 .59-5.57 1.69-8.41 4.5-3.41 5.11-2.64 11.04-2 17 1.61 4.59 3.88 7.2 7.81 10 5.89 1.85 10.11 1.77 15.57-.94q1.82-1 3.62-2.06l2-1-1 5c-4.62 1.81-8.43 2.22-13.38 2.13l-3.77-.06L348 454v2l2.94-.06C354 456 354 456 355 457a192 192 0 0 0 9.72.69l5.28.31 1-4h5v-2h2v-2h2v-2h2a18 18 0 0 1-5.31 7.13l-1.74 1.5c-6.15 4.31-12.72 3.94-19.95 3.37-7.45-1.65-13.08-5.35-17.31-11.63-3.57-5.64-4.78-9.63-3.69-16.37 3.84-8.93 9.79-14.09 18.43-18.14a23 23 0 0 1 8.07-1.11" fill="#E8D56E"/><path d="M254 484c3.63 1.64 6.66 3.86 9.88 6.19 16.46 11.52 35.18 17.66 55.12 19.81-1.64 5.18-4.81 9.18-8 13.5l-1.77 2.42a713 713 0 0 1-13.95 18.44l-4.27 5.52-3.01 3.87-1.42 1.85c-3.35 4.29-3.35 4.29-5.58 5.4l-1-3c1.15-1.66 1.15-1.66 2.94-3.5 3.84-4.15 7.1-8.57 10.36-13.18C295 539 295 539 297 537l2-3h2l.81-1.62L303 530l1.19-2.69c2.09-3.82 4.63-7 7.38-10.36C313 515 313 515 313 513l-2.09-.33A102 102 0 0 1 293 508l-4.62-1.5c-13.48-4.53-24.41-11.68-35.38-20.5z" fill="#E7E8E9"/><path d="M322 452c3.25 2 3.25 2 5 4-.57 3.31-1.48 4.75-4 6.94-2.69 2.53-3.78 4.25-4 8.06h-6l-1.25-3.19a21 21 0 0 0-4-6.43C306 459 306 459 306.06 456.31c2.56-6.31 10.28-4.97 15.94-4.31" fill="#666564"/><path d="M895.06 201.69h2.26c16.21.35 32.98 6.8 44.86 18 5.02 5.29 10.46 11.98 11.82 19.3-.33.18-.33.18-2 1l-1.6-2.87q-1.09-1.9-2.15-3.81l-1.06-1.9c-3.25-5.74-6.28-10.18-12.19-13.41l-3.82-2.43c-6.34-3.94-11.53-6.91-19.1-7.4A21 21 0 0 1 904 206l-1.75.57c-3.15.6-5.3-.43-8.25-1.57l-1 1-3.38.44C886 207 886 207 883 209l-2-1v-4c4.73-1.86 9.03-2.35 14.06-2.31" fill="#E8E8EA"/><path d="M740 626c-.81 1.94-.81 1.94-2 4l-3 1c-1.05 1.83-1.05 1.83-2 4l-1.07 1.82c-2.87 5.07-3.96 9.39-2.93 15.18 1.42 3.88 3.07 7.07 6 10-4.92-.43-7.49-2.64-11-6-3.1-4.88-2.69-10.43-2-16 2.79-7.51 9.48-15.25 18-14" fill="#050605"/><path d="m360.19 413.94 3.8.06 2 4 1-2c3.52-.3 5.46-.34 8.5 1.54 7.55 6.95 7.55 6.95 8.5 12.46h-2v-2h-6v-4h-2v4h-2l1 1.69c1.15 2.62 1.28 4.46 1.26 7.3l.02 2.57c-.3 2.64-.8 4.25-2.27 6.44l-3 1 1-2.44c1.37-4.87 2.17-9.74.17-14.55A88 88 0 0 0 367 425a44 44 0 0 1-3-7h-12l1-3a19 19 0 0 1 7.19-1.06" fill="#F3D25D"/><path d="M241 670h1l.11 2.2.2 2.92.18 2.89c.71 4.17 1.6 7.61 5.17 10.2a84 84 0 0 0 6.22 3.1l2.14 1.05c3.63 1.73 6.96 3.1 10.98 3.64l-2 2a40 40 0 0 1-10.31-2.12C252 695 252 695 250 696l-4.3-2.88q-2.26-1.47-4.58-2.87c-4.15-2.99-7.59-6.55-11.12-10.25 1.87-3.55 3.13-5.67 7-7h3z" fill="#CECFD0"/><path d="M252 297c9.08.68 16.4 7.62 23.5 12.81l2.49 1.81L284 316c-3.69 3.02-3.69 3.02-6.47 2.86-5.39-1.83-10.02-5.31-13.97-9.36-3.71-3.62-8.07-5.96-12.56-8.5z" fill="#08080A"/><path d="m816 505 2 1-.04 2.27-.02 3.11-.04 3.02c.08 2.76.28 5.37.6 8.11.7 6.64.65 13.26.62 19.93l.02 3.83-.01 3.66v3.32C819 556 819 556 818 559l1 3q-.92 3.52-2 7l-.5 2.88-.5 2.12-2 1-.06-5.62-.04-3.17c.03-3.54.32-7.04.6-10.56.64-8.48.58-16.91.5-25.4q-.04-4.55-.06-9.11l-.03-2.09c-.02-4.82-.02-4.82 1.09-7.05q.06-3.5 0-7" fill="#EFF1F1"/><path d="M408 296c4.79 2.9 8.21 6.64 10 12-.31 3.38-.31 3.38-1 6h-1l-.52-1.79c-2.71-8.86-2.71-8.86-6.48-12.21-3.19-1.19-3.19-1.19-7-1-8.38 3.88-16.19 11.38-21.94 18.5-3.98 4.91-9.13 8.59-14.06 12.5l-1 1c-1.77.02-1.77.02-4.04-.12l-2.45-.15-2.57-.17-2.59-.16-6.35-.4v-1l2.89-.4 3.8-.54 3.76-.52L361 327l2.69-.38c8.98-2.42 16.88-13.06 23.07-19.54 12.47-12.83 12.47-12.83 21.24-11.08" fill="#DFDFE1"/><path d="M896.81 155.81q1.06 0 2.16-.04c4.13 0 7.32.38 11.03 2.23v1l-4 .11c-17.36.6-35.47 2-51.25 10.03-2.3 1.13-4.22 1-6.75.86 2.67-3.3 6.14-4.53 10-6l2.58-1c8.13-3.08 15.91-5 24.57-5.76 10.76-1.43 10.76-1.43 11.66-1.43" fill="#EDEDEF"/><path d="M235 312h1l.43 21.71.14 7.36c.77 38.35.77 38.35-.07 49.99l-.14 2.08L236 398h-1c-2.83-28.73-1.44-57.22 0-86" fill="#C3C6C4"/><path d="M297 432c2 1 2 1 5 3 .29 2.6.29 2.6.19 5.62l-.08 3.04L302 446a53 53 0 0 1-8.75 3.62l-2.42.79-1.83.59-1-3h2l.31-2.06c.84-3.57 2.18-6.6 3.69-9.94h2z" fill="#F5D55C"/><path d="M248.38 291.81c3.62 1.2 3.62 1.2 5.62 4.2l-1.75-.15c-5.65-.26-8.84.26-13.25 4.14-4.84 6.45-3.28 18.57-3.5 26.2-.26 9.28-.7 18.53-1.5 27.8h-1q-.1-10.09-.16-20.18l-.06-6.86q-.06-4.93-.07-9.88c-.02-.5-.02-.5-.05-3.08 0-7.74 1.66-12.69 7.03-18.44 2.9-2.8 4.59-4.14 8.69-3.75" fill="#EDEFEE"/><path d="M409 299c-.81 2.44-.81 2.44-2 5-3.13 1.04-3.99.93-7 0v3a170 170 0 0 1-5 3q-2.56 2.44-5 5l-1.31-1.5C387 312 387 312 384 312c16.04-15.2 16.04-15.2 25-13" fill="#18191B"/><path d="m371 415-1.94.31-2.06.69-1 3-2-2v-3l-11 1v2l2.27.04c8.14.4 8.14.4 11.42 3.52L368 423c-3 0-3 0-4.75-1.47-3.12-2.12-5.46-1.96-9.19-1.97l-3.65-.06c-4 .59-5.57 1.69-8.41 4.5-2.45 3.68-2.24 5.56-2.19 9.94l.02 3.71c.14 2.66.38 4.83 1.17 7.35l-3-1c-2.1-16.81-2.1-16.81 1.19-21.69 8.53-8.75 20.51-12.32 31.81-7.31" fill="#DAC668"/><path d="M815 478h2c.85 5.85 1.15 11.53 1.12 17.44l.02 2.46c-.01 5.97-.01 5.97-1.14 7.1a61 61 0 0 0-.06 4.06L817 513l-2 1c-1.41-2.83-1.13-5.21-1.13-8.36l-.01-3.88.01-2.03-.01-6.08.01-3.89v-3.56c.12-2.86.47-5.42 1.13-8.2" fill="#E0E0E2"/><path d="M327.93 325.87q3.2.01 6.4-.01c14.05-.01 14.05-.01 20.67 1.14l1 2h-51l-1-2c7.97-1.05 15.9-1.15 23.93-1.13" fill="#F1F3F2"/><path d="M237 309c2.25 3.37 2.23 4.43 2.16 8.37l-.03 3.18-.07 3.33-.09 6.49-.05 2.91c.08 2.69.51 5.09 1.08 7.72q.1 2.66.06 5.31l-.02 2.68L240 351l-2 1v-6h-2l-.05-14.84-.03-5.06-.02-7.25-.01-2.29c0-5.33 0-5.33 1.11-7.56" fill="#0A0C0A"/><path d="M821 363c4.16 8.33 4.27 16.38 4.12 25.56l-.02 3.35-.1 8.09h-2v11h-1z" fill="#F3F4F5"/><path d="m502 549 2 1-2.77 2.74-3.61 3.57-1.82 1.81-1.76 1.74-1.62 1.61C491 563 491 563 489 566l2 2c-8.43 3.43-8.43 3.43-13 3 6.72-8.64 15.48-15.22 24-22" fill="#020303"/><path d="M821 373h1l1 27h2q.04 3.43.06 6.88l.04 3.86C825 414 825 414 824 416l.12 3.5-.12 3.5-3 2z" fill="#C4C4C6"/><path d="M836 246h2c-.59 4.92-2.11 9.14-4.12 13.62l-.94 2.11c-8.21 18.1-8.21 18.1-13.94 20.27a86 86 0 0 1 5.69-11.81c4.27-7.86 7.85-15.95 11.31-24.19" fill="#DCDEDE"/><path d="m244 661 1 2a315 315 0 0 1-2.23 4.98c-1.25 3.29-1.46 6.53-1.77 10.02h-1l-1-10-4.06 2.5c-4.16 2.31-7.12 3.19-11.94 2.5l-2-2 2.24-.66A97 97 0 0 0 244 661" fill="#DADCDB"/><path d="M818 544h1q.04 2.9.06 5.81l.04 3.27C819 556 819 556 818 559l1 3q-.92 3.52-2 7l-.5 2.88-.5 2.12-2 1c-.1-6.86-.05-13.71.31-20.56l.18-3.44c.54-3.19 1.3-4.68 3.51-7" fill="#E4E5E7"/><path d="M726 675c22.67-.23 45.34.45 68 1v1l-22.53.48-7.68.17-11 .23-3.48.08-3.22.06-2.84.06C741 678 741 678 739 677q-3.3-.34-6.62-.56l-3.61-.26L726 676z" fill="#E1E3E1"/><path d="M236 454h1l.45 1.84c2.47 9.24 6.59 16.61 13.55 23.16v2l4 2-1 2c-3.49-1.29-5.32-3.35-7.57-6.24-1.43-1.76-1.43-1.76-3.2-3.58-4.62-4.81-7.35-9.47-8.23-16.18.44-2.8.44-2.8 1-5" fill="#E1E1E1"/><path d="M820 419h1v6l2 1c.12 7.75.12 7.75-1 10v3.38c0 2.95-.26 4.85-1 7.62a93 93 0 0 0 0 5l-2 1c-1.13-5.22-.96-10.03-.62-15.31l.13-2.44c.31-5.44.85-10.84 1.49-16.25" fill="#E5E6E9"/><path d="M273 411c10.85-.48 16.87.66 25 8l-4 1-1-2-3 2-1-1-2 3-4-2.44-2.25-1.37L279 417v-1l9-1-4-1v-2h-11z" fill="#D4BA67"/><path d="M423 342a20 20 0 0 1 3 3q.06 3.5 0 7 .98 2.01 2 4c-.38 2.25-.38 2.25-1 4l3 1v4l-6 2c-1.1-8.36-1.1-16.59-1-25" fill="#EEEFF0"/><path d="m381 313 2 1c-4.96 6.3-10.74 11.03-17 16l-1 1c-1.77.02-1.77.02-4.04-.12l-2.45-.15-2.57-.17-2.59-.16-6.35-.4v-1l2.89-.4 3.8-.54 3.76-.52L361 327l2.64-.33c3.08-.87 4.91-2.38 7.36-4.42l2.62-2.17c2.59-2.26 5.03-4.57 7.38-7.08" fill="#DCDDE0"/><path d="M953 239h2c4.5 10.21 3.73 22.18 2 33-1.72-3-2.27-5.26-2.38-8.7l-.1-2.73-.08-2.82c-.21-6.31-.55-12.49-1.44-18.75" fill="#D8D9D7"/><path d="m937 164 1 2c-3.56 1.28-5.35.72-8.75-.81-8.07-3.42-15.52-4.58-24.25-5.19v-1c11.13-2.97 21.92.05 32 5" fill="#E9EAEB"/><path d="m802 633 2 2-1 1c5.93 1.84 11.89 2.95 18 4s12.07 2.16 18 4v1c-4.68.12-8.76-.23-13.31-1.31-8.51-1.93-17.08-3.31-25.69-4.69z" fill="#ECECEF"/><path d="m300 444 1 3q-1.58 1.45-3.19 2.88l-1.79 1.61c-5.79 4.33-12.07 4.14-19.02 3.51a33 33 0 0 1-7-3l3-2q2.51.95 5 2c3.11.2 3.11.2 6.31.12l3.24-.05L290 452v-2l1.68-.55 2.2-.76 2.17-.74C298 447 298 447 300 444" fill="#F0DF79"/><path d="M896.81 155.81q1.06 0 2.16-.04c4.13 0 7.32.38 11.03 2.23v1l-30 1 1-3 2.87.06c4.35-.09 8.41-1.25 12.94-1.25" fill="#F4F4F6"/><path d="M932 213c8.83 4.08 15.04 11.82 20 20a92 92 0 0 1 2 6l-2 1-1.61-2.89-2.14-3.8-1.05-1.89c-3.29-5.81-6.33-10.05-12.2-13.42a89 89 0 0 1-4-4z" fill="#E2E4E3"/><path d="M233 417h1l.85 12.64.3 4.29c.57 8.36 1.01 16.68.85 25.07l-2-1c-4.08-12.93-1.99-27.65-1-41" fill="#EBEEEC"/><path d="M994 233h3a37 37 0 0 1 2 13l1 3-1 2a96 96 0 0 0-.32 4.79l-.12 2.85-.12 2.98-.13 3.01L998 272h-1l-.06-2.24-.32-10.2-.09-3.53c-.2-5.9-.57-11.43-2.11-17.15C994 237 994 237 994 233" fill="#D4D5D5"/><path d="m518 311 2 1c-1.29 3.86-2.5 4.09-6.06 5.92l-3.11 1.61-3.27 1.66-3.26 1.69C496.29 327 496.29 327 494 327l1-4 1.56-.25c2.71-.83 4.94-2.13 7.37-3.57 3.23-1.84 6.58-3.42 9.93-5.03C516 313 516 313 518 311" fill="#EBEBEC"/><path d="m194 668 2.54.62A140 140 0 0 0 223 672v2c-11 1.34-19.03 1.07-29-4z" fill="#EEEEF0"/><path d="M806 317c3.32 1.36 4.63 2.5 6.12 5.75l1 2.16A83 83 0 0 1 816 333l1.12 3.38.88 2.62c-1.88-.27-1.88-.27-4-1-1.08-1.61-1.08-1.61-1.89-3.68l-.9-2.26-.9-2.37-.93-2.34A75 75 0 0 1 806 317" fill="#EAEBEB"/><path d="M751.06 265.29c3.29.8 5.98 2.09 8.94 3.7 3.38.7 3.38.7 6 1l-1 3c-8.83-1.75-17.38-4.4-26-7 4.3-2.86 7.15-1.61 12.06-.7" fill="#DADBDD"/><path d="M271 412h13v2h5l-1 2h-19z" fill="#F2DB6E"/><path d="M235 361c2.19 3.94 2.27 7.32 2.19 11.75l-.02 2.24c-.11 7.69-.59 15.35-1.17 23.01h-1c-.92-8.49-1-16.72-.56-25.25l.16-3.45q.18-4.15.4-8.3" fill="#D1D3D2"/><path d="M998 251c4.23 8.46 3.42 16.74 2 26h-3z" fill="#F1F1F4"/><path d="M252 297c5.28.52 8.57 2.25 13 5l-2 2-3-1v2c-3.4-1.06-6.01-2.01-9-4z" fill="#0E0F0F"/><path d="M851 170a123 123 0 0 1-11.85 8.54C837 180 837 180 834.06 182.38 832 184 832 184 830 184c.25-1.88.25-1.88 1-4 1.81-1 1.81-1 4-2l1.81-1.88c4.02-3.89 8.37-6.83 14.19-6.12" fill="#DFE0E1"/><path d="M236 346h2l.38 2.44.62 2.56 2 1c1.03 5.04 1.09 9.89 1 15h-1l-.38-2.75A21 21 0 0 0 238 357l-1 8h-1z" fill="#171919"/><path d="M813 569h1c2.22 9.11 2 15.47-2 24h-2c.84-8.02 1.92-16.01 3-24" fill="#DBDCE0"/><path d="M891.13 202.94h2.28l5.6.06c-.35.5-.35.5-2 3h-4c-6.54.69-6.54.69-10 3l-2-1v-4c3.17-1.6 6.62-1.1 10.12-1.06" fill="#F4F4F7"/><path d="M238 353h1l1 7h1q.16 2.09.25 4.19l.14 2.35c-.53 3.33-2.17 5-4.39 7.46l-.06-8.25-.03-2.36-.01-2.28-.01-2.1c.12-2.11.53-3.98 1.11-6.01" fill="#090C0A"/><path d="M664 672c10.39-.13 20.64.24 31 1v1c-7.69.97-15.26 1.11-23 1v-1l-8-1z" fill="#E2E6E3"/><path d="m828 182 2 1c-1.45 3.34-3.27 5.48-5.88 8l-2.05 2-2.07 2-4 4c1.11-7.24 6.95-12.2 12-17" fill="#E9E9EA"/><path d="m262 437 .75 1.69A28 28 0 0 0 272 449l-4 2q-1.74-1.83-3.44-3.69l-1.93-2.07c-1.79-2.46-2.26-4.25-2.63-7.24z" fill="#D9CC76"/><path d="M801 300c1 2 1 2 .81 4.25.26 3.75 2.06 5.71 4.19 8.75.75 2.38.75 2.38 1 4l-2 1-3.5-5.75-1.97-3.23C798 306 798 306 798 302z" fill="#E1E1E2"/><path d="m681 255 2 1q2.13.07 4.25 0c3.7-.05 7.11.25 10.75 1v1c-9.35.66-18.62 1.16-28 1 1.27-1.49 1.27-1.49 3-3 3.62-.12 3.62-.12 7 0z" fill="#F4F4F6"/><path d="M374 554c.69 2.31.69 2.31 1 5-1.19 1.81-1.19 1.81-3 3h-4v-2l-3-1c4.68-5 4.68-5 9-5" fill="#F2F4F6"/><path d="M889 159q3.84-.05 7.69-.06l2.18-.03c3.85-.02 7.4.15 11.13 1.09v2c-5.02 1.13-8.98.78-14 0v-2h-7z" fill="#252525"/><path d="M185 654q1.96 2.94 3.81 5.94A29 29 0 0 0 196 667l2 2h-6l-.75-1.88C190 665 190 665 188 664.19c-2-1.19-2-1.19-3.31-4.69-.69-3.5-.69-3.5.31-5.5" fill="#DEDFDE"/><path d="m343 419 3 1-3 2.62c-4.03 4.63-3.52 9.3-3.31 15.17.25 2.54.58 4.78 1.31 7.21l-3-1c-2.11-16.85-2.11-16.85 1.94-22.06 1.71-1.79 1.71-1.79 3.06-2.94" fill="#CBBE7D"/><path d="M290 410c1.89 1.58 1.89 1.58 3 3l-2 1-2.63-.93c-3.83-1.22-7.28-1.29-11.25-1.19l-2.08.02-5.04.1v-2c6.67-2.79 13.11-1.91 20 0" fill="#1D1605"/><path d="M804 618h2l-.56 3.31C805 625 805 625 806 628c-.81 2.62-.81 2.62-2 5l-2 1-2 3c.68-4.34 1.56-8.6 2.56-12.88l.82-3.49z" fill="#DADADA"/><path d="M298 507c6.08.68 12.01 1.74 18 3-1.16 1.54-1.16 1.54-3 3-2.56-.07-2.56-.07-5.44-.69l-2.87-.57A29 29 0 0 1 298 509z" fill="#ECECED"/><path d="m536 303 3 2-7.81 3.94-2.24 1.13-2.16 1.08-1.98 1C523 313 523 313 520 314v-3z" fill="#DBDBDB"/><path d="m213.31 620.88 2.24.02q2.73.04 5.45.1l-1 2c-2.95.38-2.95.38-6.69.57-4.52.22-8.86.6-13.3 1.42v-2c4.4-2.2 8.48-2.23 13.3-2.12" fill="#ECECED"/><path d="M298 421h2c3.39 6.26 5.11 11.84 4 19l-2 3-.18-2.81-.26-3.63-.24-3.62C301 430 301 430 300 429q-.06-2.5 0-5h-2z" fill="#DEC761"/><path d="m234 610 3 1q-2.58 2.2-5.19 4.38l-2.92 2.46A26 26 0 0 1 221 622l-1-2 1.79-1.17c3.5-2.31 6.88-4.55 10.09-7.27z" fill="#E1DFE3"/><path d="m348 573 2 1-3.75 4.31-2.11 2.43c-1.96 2.07-3.69 3.8-6.14 5.26l-3-1zm-15 13 2 1h-3z" fill="#E3E4E5"/><path d="m815 559 1 2 3 1-.94 3.19C817 569 817 569 816.5 571.88L816 574l-2 1-.06-6.31-.04-3.55c.1-3.14.1-3.14 1.1-6.14" fill="#E6E6EA"/><path d="M363 452c2.06.44 2.06.44 4 1h-2v3h-17v-2l3.03-.18 3.91-.26 3.9-.24C362 453 362 453 363 452" fill="#F6E163"/><path d="M794 238h2c-1.3 5.29-2.84 9.52-6 14-3.25 1.44-3.25 1.44-6 2l1.17-1.72c3.15-4.67 6.11-9.36 8.83-14.28" fill="#1D1D1E"/><path d="M816 338c2.57 3.01 3.52 5.36 4.19 9.25l.48 2.7.33 2.05-3 2-1.56-7.44-.46-2.14q-.54-2.7-.98-5.42z" fill="#E6E6E8"/><path d="m367 327-2 4-18-1v-1c6.74-1.26 13.13-2.26 20-2" fill="#CDCDCF"/><path d="M234 386h1v22h-1c-2.67-14.6-2.67-14.6 0-22" fill="#EDEEEF"/><path d="M954 268h2l-1 20c-3-3-3-3-3.16-4.9l.3-2.11.31-2.3.69-4.79q.4-2.96.86-5.9" fill="#EEF0EF"/><path d="M876 158c1.85.34 1.85.34 4.06.94l2.23.59 1.71.47v1l-18 3 2-4c3.56-.69 3.56-.69 7-1z" fill="#ECECEE"/><path d="M370 428h2c1.82 3.11 2.27 5.41 2.25 9l.02 2.56c-.29 2.64-.8 4.24-2.27 6.44l-3 1 1-2.44a29.6 29.6 0 0 0 0-16.56" fill="#E4CC6B"/><path d="M290 428h2c1.59 3.17 1.34 5.48 1 9-3.43 7.21-3.43 7.21-7 9v-4h2v-2h2v-4h2v-4h-2z" fill="#392A0B"/><path d="M961 181c3.23.58 4.98 1.52 7.31 3.81l1.62 1.52c1.07 1.67 1.07 1.67.74 3.87L970 192q-2.26-2.17-4.5-4.38l-2.53-2.46C961 183 961 183 961 181" fill="#D7D9D8"/><path d="m266 642 1 4 11 1v1l-19 1z" fill="#BABDBB"/><path d="M836 246h2a36 36 0 0 1-4 13c-2.19 1.44-2.19 1.44-4 2 1.6-5.2 3.74-10.07 6-15" fill="#DADBDB"/><path d="M915 204h11l1 3 3 2v2c-5.2-1.6-10.07-3.74-15-6z" fill="#1B1D1E"/><path d="m232.19 668.94 3.8.06c-2.94 2.52-5.12 3.63-9 4-3.3-.44-3.3-.44-6-1 3.82-1.97 6.89-3.13 11.2-3.06" fill="#E1E2E2"/><path d="m272 450 2.69 1c3.31 1 3.31 1 5.81 1 3.13 0 5.58.92 8.5 2v1c-7.1.31-12.68.45-19-3z" fill="#D8C776"/><path d="M811 207c1.4 5.61-.87 8.07-3.69 12.88L806 222l-3-1z" fill="#1B1C1D"/><path d="m297 450 1 4c-4.08 1.95-7.32 2.22-11.81 2.12l-3.52-.05L280 456v-1l1.69-.08c5.99-.44 10.08-1.97 15.31-4.92" fill="#261907"/><path d="M562 539c0 3 0 3-1.12 4.62-2.58 1.9-4.72 2.18-7.88 2.38l-2-2z" fill="#E0E2E1"/><path d="M321 462c0 3.38-.87 5.83-2 9h-6v-3l5-1 .38-1.94.62-2.06z" fill="#6B6D6B"/><path d="m612 268 3 1h3v2q-2.15.84-4.31 1.62l-2.43.92-2.26.46-3-2 2.44-1.44C611 269 611 269 612 268" fill="#EEEFEF"/><path d="M184 641h2l-1 15-3-1z" fill="#EEF1EF"/><path d="m249 598 1 2c-2.27 3.34-4.83 5.53-8 8a168 168 0 0 0-4 4l-2-1z" fill="#1B1A1C"/><path d="m920 158 2 4-17-2v-1c4.96-1.32 9.91-1.09 15-1" fill="#DDDDDF"/><path d="m368 447 1 2-1 3c-5.18 2.52-10.39 2.2-16 2v-1l1.98-.3c5.65-.96 9.5-2.13 14.02-5.7" fill="#DCCD7C"/><path d="M971 190c3.47 1.41 4.88 2.91 6.75 6.12l1.3 2.2.95 1.68-2 2-3.5-4.88-1.97-2.74C971 192 971 192 971 190" fill="#E0E0E0"/><path d="M244 664a14 14 0 0 1 3 3c-.31 2.19-.31 2.19-1 4h-3v6h-1q-.08-2.4-.12-4.81l-.08-2.71c.2-2.48.2-2.48 2.2-5.48" fill="#0B0E0C"/><path d="m802 633 2 2-1 1 10 3v1l-13-1z" fill="#F3F4F3"/><path d="m287 503 13 3c-2 2-2 2-5.38 2.25-3.26-.22-4.93-.53-7.62-2.25z" fill="#E4E5E3"/><path d="M336 429h1q.12 2.13.19 4.25l.1 2.39c-.35 2.88-1.41 4.21-3.29 6.36q-.08-2.4-.12-4.81l-.08-2.71c.2-2.48.2-2.48 2.2-5.48" fill="#D6C45D"/><path d="M550 297v2l-4.81 2.5-2.71 1.41C540 304 540 304 537 304c1-3 1-3 3.21-4.17l2.73-1.02 2.71-1.04C548 297 548 297 550 297" fill="#EEEDF1"/><path d="m810 294 1 3q-1.64 1.55-3.31 3.06l-1.87 1.73L804 303l-3-1c1-3 1-3 3.94-4.56L808 296z" fill="#EFF1F0"/><path d="M959 182c3.22 1.41 5.32 3.1 7.75 5.62l1.86 1.92L970 191l-3 1c-2-1-2-1-2.88-2.94-1.35-2.48-2.54-3.03-5.12-4.06z" fill="#040606"/><path d="M892 156v2h-3v2h-9l1-3 2.88.06c3.16-.06 4.97-1.06 8.12-1.06" fill="#EEEEF1"/><path d="m198 623 2 1c-1.12 3.35-1.75 3.79-4.56 5.69l-1.94 1.32-1.5.99c0-3.94 1.43-5.13 4-8z" fill="#DBDDDC"/><path d="m325 593 1 3c-2.17 2.5-3.73 3.44-7 4v2l-5 1c3.49-3.6 7.11-6.83 11-10" fill="#E5E3E5"/><path d="m382 551 2 3-2.31 1.81A58 58 0 0 0 376 561l-2-2z" fill="#1C1F22"/><path d="M812 329h2q1.05 1.93 2.06 3.88l1.16 2.17.78 1.95-1 2-3-1c-.73-2.07-.73-2.07-1.19-4.56l-.48-2.51z" fill="#F0F0F2"/><path d="m505 318 1 2-3-1zm-3 2 1 3c-6.75 4-6.75 4-9 4l1-4 1.81-.38C499 322 499 322 502 320" fill="#EDEEF0"/><path d="m408 296 2 1v2l-3.75-.06c-2.91-.01-5.46.13-8.25 1.06l-1-2c3.64-2.33 6.76-2.24 11-2" fill="#E8E8EC"/><path d="M357 576c0 3.5-.54 4.06-2.75 6.62l-1.55 1.86c-1.9 1.7-3.21 2.12-5.7 2.52 3.21-3.81 6.41-7.55 10-11" fill="#212325"/><path d="M349 418q3.63-.2 7.25-.31l2.07-.13c2.01-.05 2.01-.05 5.68.44 2.48 2.52 2.48 2.52 4 5-3 0-3 0-4.8-1.46-2.86-2-4.98-2.04-8.45-2.23l-3.27-.2L349 419z" fill="#B6A668"/><path d="M422 335a16.6 16.6 0 0 1 3 7h-2v7h-1l-.56-6.44-.32-3.62L421 336z" fill="#D4D4D6"/><path d="m420 325 3 1-.06 2.25c.05 2.45.37 4.41 1.06 6.75l-3 1c-1.18-3.67-1.07-7.17-1-11" fill="#F1F0F3"/><path d="M360 415v3h-8l1-3c3.13-1.04 3.99-.93 7 0" fill="#F9E56D"/><path d="M989 299c0 3 0 3-1.31 4.39L983 307l-4-2 1.93-1.06 2.51-1.38 2.49-1.37C988 300 988 300 989 299" fill="#EEEFF0"/><path d="M955 276h1l.18 2.92.26 3.83.24 3.8A37 37 0 0 0 958 294l-3-1c-.99-3.95-.96-7.27-.56-11.31l.31-3.24z" fill="#D2D3D5"/><path d="M337 429h1v15h-3l.44-2.44c.66-4.17 1.12-8.36 1.56-12.56" fill="#F2DD65"/><path d="M819 351h3c1.23 5.42 1.23 5.42.06 8.38L821 361c-2.43-3.64-2.16-5.71-2-10" fill="#EFEFF3"/><path d="m832 259 1 2a110 110 0 0 1-4 9h-2c.45-4.87 1.71-7.39 5-11" fill="#EAEAEA"/><path d="m954 174 9 6-3 2-8-6z" fill="#DEE1DF"/><path d="m236 674 1 3h-2v2h-2l-1 3-2-3c3.75-3.88 3.75-3.88 6-5" fill="#D8DBDA"/><path d="M293 433h1c.46 5.72-.48 8.49-4 13l-3-1 1.06-1.61 1.38-2.14 1.37-2.11A19 19 0 0 0 293 433" fill="#DDC570"/><path d="M257 434c2 1 2 1 2.85 3.07l.77 2.49.79 2.51.59 1.93-2 2-.88-2.44C258 441 258 441 256 440z" fill="#251F0F"/><path d="M321 453c2.87.57 3.86.86 6 3-.19 2-.19 2-1 4l-3 2 .12-3.38C323 455 323 455 321 453" fill="#6E6E6F"/><path d="m289 414-1 2h-10l-1-2c4.26-1.16 7.68-.76 12 0" fill="#EBD05A"/><path d="M796 647c2 3 2 3 1.75 5.06C797 654 797 654 795 656l-4 1z" fill="#B3B3B4"/><path d="m279 560 3 1-6 8-1-3c1.94-3.19 1.94-3.19 4-6" fill="#DFDEE2"/><path d="M283 409v1l-13 2v-2c4.79-1.63 8.06-2.21 13-1" fill="#120E05"/><path d="m738 666 11 2v1l-2.88.94C743 671 743 671 741 672l1-4-4-1z" fill="#C7C6CB"/><path d="M186 650a34 34 0 0 1 4 5c-.25 2.31-.25 2.31-1 4h-2c-1.48-2.96-1.06-5.74-1-9" fill="#080908"/><path d="m264 448 10 5-4 3-1-3-3-1v-2h-2z" fill="#201807"/><path d="m300 444 1 3-7 6-2-2h2l1-3a88 88 0 0 1 4-2z" fill="#E5D179"/><path d="M653 261v2l-9 1-1-2c3.47-1.16 6.36-1.07 10-1" fill="#E1E2DF"/><path d="M812 583h1c.12 6.62.12 6.62-1 10h-2l.44-4.44.24-2.49C811 584 811 584 812 583" fill="#CCCCCF"/><path d="M366 567c0 3.97-1.31 5.16-4 8-2.14.65-2.14.65-4 1l2.88-3.38 1.61-1.89A73 73 0 0 1 366 567" fill="#292A2E"/><path d="M360 414h4l2 6h-2v-2l-4-1z" fill="#F2D54E"/><path d="M369 414h7v3h2l-1 3-4-2.44-2.25-1.37L369 415z" fill="#261A0B"/><path d="M271 412h3v2h2v2h-7z" fill="#F1DD85"/><path d="M360.14 409.93 366 411v1l-12 1c4-3 4-3 6.14-3.07" fill="#100B04"/><path d="M244 676h1l-.06 3.25c.05 2.9.19 5.04 1.06 7.75-2.11-1.74-2.96-2.86-3.81-5.5C242 679 242 679 244 676" fill="#17191B"/><path d="M298 421h2a54 54 0 0 1 3 6l-1 3-2-1v-5h-2z" fill="#D9C96B"/><path d="m353 415-1 3c-3.56 1.19-3.56 1.19-7 2v-2c2.91-2.04 4.4-3 8-3" fill="#E2D989"/><path d="m381 313 2 1-6 7-1-3z" fill="#CBCDCE"/><path d="M259 299q3.05 1.4 6 3l-2 2-6-2v-2z" fill="#1F1F1F"/><path d="m622 266 4 3-8 2v-3z" fill="#E0E0E0"/><path d="m726 259 5 2-1 2-8-1 4-1z" fill="#DEDCE0"/><path d="M939 219c3.74 1.7 5.63 3.61 8 7v2h-2c-1.51-1.97-1.51-1.97-3.12-4.5l-1.64-2.53z" fill="#ECEBEE"/><path d="m834.56 178.94 2.44.06q-2.45 2.56-5 5h-2c1.12-4.98 1.12-4.98 4.56-5.06" fill="#D5D6D9"/><path d="m262 691 1 2h2l-1 3-5-1v-3z" fill="#1E1F20"/><path d="m232 663 4 2c-1.31 1.5-1.31 1.5-3 3h-3z" fill="#090A0C"/><path d="m274 566 1 4-4 3-1-3z" fill="#ECEBF1"/><path d="m815 559 1 2 3 1-2 5-2-1z" fill="#F3F4F6"/><path d="M307 510h9l-3 3c-3.19-.31-3.19-.31-6-1z" fill="#F1F1F4"/><path d="M236 454h1l2 10h-3a18 18 0 0 1 0-10" fill="#C3C5C3"/><path d="m286 421 4 4-2 1-1 3h-1z" fill="#231A0D"/><path d="m817 346 3 1 1 5-3 2z" fill="#D6D7DA"/><path d="m509 317 2 2-8 4v-3z" fill="#E0E0E1"/><path d="m745.19 264.38 2.8.62v3l-9-2c3-2 3-2 6.2-1.62" fill="#CCCED0"/><path d="m788 244 3 1-4 6-2-3z" fill="#DFDFE2"/><path d="M838 174h3v3l-3 2-3-1c1.31-2 1.31-2 3-4" fill="#E7E7E9"/><path d="M936 166c5.75.75 5.75.75 8 3-2.61.93-3.64 1.15-6.25.06L936 168z" fill="#DCE0DC"/><path d="m258 695 9 1-2 2c-3.62-.38-3.62-.38-7-1z" fill="#DADADC"/><path d="m402 624 3 1v2l-6 3c1.88-4.88 1.88-4.88 3-6" fill="#1C1C1D"/><path d="M374 418c3.37 1.39 4.99 2.98 7 6h-3v-2h-3z" fill="#E3CD70"/><path d="m442 355 3 2-8 4v-3c2.5-1.69 2.5-1.69 5-3" fill="#DBDBDB"/><path d="M418 322h1l1 10h-2c-.75-3.66-1.24-6.42 0-10" fill="#222323"/><path d="M801 300c1 2 1 2 1 6l-3 1-1-5z" fill="#E7E7E9"/><path d="M842 230c1 3 1 3-.44 6.19L840 239l-2-2c.32-3.29 1.55-4.87 4-7" fill="#0B0C0D"/><path d="m876 158 8 2v1h-10z" fill="#D6D6D8"/></svg>