<svg style="background:transparent" version="1.1" xmlns="http://www.w3.org/2000/svg" viewBox="0 0 1248 704"><path d="M1018 100c3.94 3.97 6.98 8.45 8 14-.12 6.12-.95 11.54-4.96 16.35-7.61 7.16-14.71 9.68-25.1 9.9C992 140 992 140 989 139a71 71 0 0 0-4.38 0c-4.1.05-8.09-.18-12.18-.56-8.09-.67-14.68.22-22.44 2.56l-3 .44c-3.64.68-6.63 2.02-10 3.56l-3.38 1.31a71 71 0 0 0-10.54 6.28C921 154 921 154 918.06 155.62c-2.39 1.6-2.89 2.8-4.06 5.38l-1.94 1.88c-3.6 3.71-5.17 8.38-7.06 13.12l-1 2.32c-3.63 8.59-5.08 16.87-5.75 26.14A71 71 0 0 1 897 212l-.44 3.88c-1.16 9.53-5.02 18.42-9.31 26.93l-1.05 2.1A169 169 0 0 1 876 262l-1.81 3.12c-2.82 3.71-6.14 6.59-9.65 9.63-2.54 2.25-2.54 2.25-4.9 4.71-3.09 2.97-6.37 5.22-9.95 7.54l-2.02 1.32-3.93 2.56q-2.12 1.37-4.22 2.77c-4.32 2.84-8.63 4.69-13.52 6.35l-4.5 1.69L818 303a303 303 0 0 0 8 17c7.07 13.84 7.07 13.84 8 21l2 7 1 4.56c.56 2.65 1.2 5 2.12 7.56 1.05 3.43.94 6.3.88 9.88.59 7.57.59 7.57 1.54 10.86.86 3.96.47 8.02.4 12.05.06 3.09.06 3.09.56 4.82.71 3.21.62 6.38.6 9.65l-.01 2.23-.01 4.8-.03 7.61-.06 18.9-.08 23.42c-.02 7.29.07 14.43 1.09 21.66l.44 7.12A56 56 0 0 0 847 507q.77 4.06 1.44 8.16A108 108 0 0 0 851 525l4 14 1.09 3.7A78 78 0 0 1 858 553l1 2c.98 7.17 1.33 14.34 1.62 21.56l.16 3.29c.24 5.88.12 11.34-.78 17.15v2.69c0 2.57-.48 4.79-1 7.31l-.44 4.44c-.38 3.76-1.36 6.97-2.56 10.56l.06 3c-.07 3.68-1.32 5.79-3.06 9q-.55 2-1 4l-2 5a372 372 0 0 0 22.41 4.75c33.53 6.19 33.53 6.19 42.65 15.31.94 1.94.94 1.94 1 3.88-3.12 6.05-8.91 7.99-14.97 10.12-5.1 1.55-10.25 2.33-15.53 3.06l-3.43.51q-10.26 1.48-20.57 2.56l-2.1.21c-18.43 1.73-36.91 1.84-55.4 1.85H802c-28.2.03-56.27-1.19-84.42-2.82-50.37-2.9-100.57-5.3-151.01-3.52l-7.37.24c-70.58 2.26-141 10.67-211.02 19.42-24.37 3.05-48.73 5.65-73.3 5.81l-3.81.04c-6.38-.04-11.87-.56-17.89-2.73a30 30 0 0 0-7.06-1.19c-3.62-.31-5.32-1.1-8.12-3.5l-2.56-.31L233 696c-1.56-2.81-1.56-2.81-3-6-2.19-2.37-2.19-2.37-4-4l3.91-4.39C231 680 231 680 231 677l3-2v-3l-2.12 1.02c-12.64 5.94-23.26 7.84-37.02 4.02-7.21-2.62-13.46-7-16.86-14.04-1.88-5.76-3.1-11.35-.71-17.09 4.93-9.13 9.84-16.7 19.71-20.91 2.97-.62 5.92-.83 8.94-1 20.02-1.15 35.21-19.92 47.86-34l5.2-6 3.39-3.85 3.3-3.77 1.68-1.91a71 71 0 0 0 6.84-8.87C276 563 276 563 279 562q1.04-1.99 2-4 2.17-2.76 4.44-5.44a62 62 0 0 0 6.06-8.06c2.4-4.01 5.52-7.41 8.54-10.98C302 531 302 531 303 528l-2.94-.25c-4.76-.68-8.77-2.66-13.06-4.75l-2.07-.98q-3-1.45-5.93-3.02l-1.82-.94c-4.86-2.75-8.89-6.32-12.99-10.06l-1.71-1.55c-3.12-2.91-5.46-5.64-7.48-9.45l-1.44-2.31c-3.44-5.93-5.9-10.74-6.56-17.69-.76-4.04-1.64-8.05-2.5-12.06l-.78-3.66q-.57-2.63-1.22-5.24c-.87-3.58-1.38-7.21-1.94-10.85l-.4-2.65a302 302 0 0 1-2.16-20.35c-.6-7.74-1.65-15.07-3.27-22.66-2.45-11.85-2.94-23.56-3.03-35.62l-.04-4.52c-.25-22.03-.25-22.03 5.84-28.51 4.48-3.36 9.08-3.58 14.5-2.88 8.15 2.57 15.6 6.8 23 11 19.68 11.14 19.68 11.14 29 9l2.91-.93c5.66-1.63 11.52-2.29 17.34-3.13l7.02-1.04 3.11-.45C337 342 337 342 340 341h6q3.5-.45 7-1l3.33-.2c4.46-.97 6.79-2.99 9.92-6.11l1.69-1.62c4.23-4.11 8.22-8.43 12.16-12.83 13.22-14.66 13.22-14.66 23.9-15.24a12 12 0 0 1 3 3l2.5 1.38c4.38 2.84 5.88 7.27 7.56 12.06l1.03 2.92.91 2.64 1.12 3.12c.7 2.3 1.27 4.53 1.77 6.88 1.17 5.32 2.42 10.63 3.67 15.94l.67 2.86.65 2.73.58 2.46C428 362 428 362 429 364l-1 3 2.49-1.36c5.3-2.87 10.6-5.72 16.01-8.39A112 112 0 0 0 459 350c4.53-3.02 9.11-5.61 14-8 5.35-2.62 10.5-5.59 15.69-8.5l3.39-1.9c7.2-4.04 14.36-8.14 21.44-12.4 4.39-2.63 8.88-4.96 13.48-7.2 3.17-1.56 6.22-3.26 9.28-5.02 6.67-3.83 13.4-7.34 20.41-10.52 4.78-2.18 9.36-4.62 13.95-7.19 3.05-1.64 6.16-2.94 9.36-4.27q1.92-.95 3.81-1.94c3.86-1.96 7.83-3.54 11.87-5.12 2.85-1.16 5.58-2.54 8.32-3.94 4.56-1.97 9.29-3.45 14-5l2.02-.68a697 697 0 0 1 17.4-5.61A138 138 0 0 1 647 260l5.81-1.44 3.02-.74q3.3-.86 6.55-1.85a77 77 0 0 1 11.74-2.03c7.39-.84 7.39-.84 10.25-1.44 9.09-1.74 18.15-1.55 27.36-1.26l6.79.18c6.96.19 13.73.5 20.53 2.12 1.95.46 1.95.46 5.64.96 3.57.54 6.84 1.48 10.31 2.5l5.94 1.44c3.58.88 7.01 1.84 10.44 3.18 6.54 2.49 10.71 2.47 17.24.07l1.99-.69a68 68 0 0 0 9.39-4l5-2a85 85 0 0 0 15.37-8.05C822 246 822 246 824 246l.69-1.75c2.15-3.69 5.61-5.73 9-8.25a13.5 13.5 0 0 0 4.31-6l1.88-2.75c3.81-5.83 6.44-10.13 6.12-17.25l.96-1.86c1.19-2.46 1.41-4.36 1.6-7.08.28-3.43.76-6.68 1.44-10.06l-.06-2.5c.06-2.5.06-2.5 1-4.79a37 37 0 0 0 2.06-8.59c1-6.38 2.48-12.14 5-18.12l.94-2.44c1.22-2.94 2.59-5.73 4.06-8.56l.98-1.98c3.2-6.18 7.23-10.88 12.08-15.83l2.15-2.23q2.88-3 5.79-5.96l2.11-2.24C888 116 888 116 890 116l.72-1.82c4.03-6.89 15.25-10.12 22.28-13.18l2.45-1.13 2.3-1.06 1.98-.92A118 118 0 0 1 956 90l3.49-.34c18.59-1.65 42.76-.82 58.51 10.34M235 687l1 2Z" fill="#111311"/><path d="M1018 100c3.94 3.97 6.98 8.45 8 14-.12 6.12-.95 11.54-4.96 16.35-7.61 7.16-14.71 9.68-25.1 9.9C992 140 992 140 989 139a71 71 0 0 0-4.38 0c-4.1.05-8.09-.18-12.18-.56-8.09-.67-14.68.22-22.44 2.56l-3 .44c-3.64.68-6.63 2.02-10 3.56l-3.38 1.31a71 71 0 0 0-10.54 6.28C921 154 921 154 918.06 155.62c-2.39 1.6-2.89 2.8-4.06 5.38l-1.94 1.88c-3.6 3.71-5.17 8.38-7.06 13.12l-1 2.32c-3.63 8.59-5.08 16.87-5.75 26.14A71 71 0 0 1 897 212l-.44 3.88c-1.16 9.53-5.02 18.42-9.31 26.93l-1.05 2.1A169 169 0 0 1 876 262l-1.81 3.12c-2.82 3.71-6.14 6.59-9.65 9.63-2.54 2.25-2.54 2.25-4.9 4.71-3.09 2.97-6.37 5.22-9.95 7.54l-2.02 1.32-3.93 2.56q-2.12 1.37-4.22 2.77c-4.32 2.84-8.63 4.69-13.52 6.35l-4.5 1.69L818 303a303 303 0 0 0 8 17c7.07 13.84 7.07 13.84 8 21l2 7 1 4.56c.56 2.65 1.2 5 2.12 7.56 1.05 3.43.94 6.3.88 9.88.59 7.57.59 7.57 1.54 10.86.86 3.96.47 8.02.4 12.05.06 3.09.06 3.09.56 4.82.71 3.21.62 6.38.6 9.65l-.01 2.23-.01 4.8-.03 7.61-.06 18.9-.08 23.42c-.02 7.29.07 14.43 1.09 21.66l.44 7.12A56 56 0 0 0 847 507q.77 4.06 1.44 8.16A108 108 0 0 0 851 525l4 14 1.09 3.7A78 78 0 0 1 858 553l1 2c.98 7.17 1.33 14.34 1.62 21.56l.16 3.29c.24 5.88.12 11.34-.78 17.15v2.69c0 2.57-.48 4.79-1 7.31l-.44 4.44c-.38 3.76-1.36 6.97-2.56 10.56l.06 3c-.07 3.68-1.32 5.79-3.06 9q-.55 2-1 4l-2 5a372 372 0 0 0 22.41 4.75c33.53 6.19 33.53 6.19 42.65 15.31.94 1.94.94 1.94 1 3.88-3.12 6.05-8.91 7.99-14.97 10.12-5.1 1.55-10.25 2.33-15.53 3.06l-3.43.51q-10.26 1.48-20.57 2.56l-2.1.21c-18.43 1.73-36.91 1.84-55.4 1.85H802c-28.2.03-56.27-1.19-84.42-2.82-50.37-2.9-100.57-5.3-151.01-3.52l-7.37.24c-70.58 2.26-141 10.67-211.02 19.42-24.37 3.05-48.73 5.65-73.3 5.81l-3.81.04c-6.38-.04-11.87-.56-17.89-2.73a30 30 0 0 0-7.06-1.19c-3.62-.31-5.32-1.1-8.12-3.5l-2.56-.31L233 696c-1.56-2.81-1.56-2.81-3-6-2.19-2.37-2.19-2.37-4-4l3.91-4.39C231 680 231 680 231 677l3-2v-3l-2.12 1.02c-12.64 5.94-23.26 7.84-37.02 4.02-7.21-2.62-13.46-7-16.86-14.04-1.88-5.76-3.1-11.35-.71-17.09 4.93-9.13 9.84-16.7 19.71-20.91 2.97-.62 5.92-.83 8.94-1 20.02-1.15 35.21-19.92 47.86-34l5.2-6 3.39-3.85 3.3-3.77 1.68-1.91a71 71 0 0 0 6.84-8.87C276 563 276 563 279 562q1.04-1.99 2-4 2.17-2.76 4.44-5.44a62 62 0 0 0 6.06-8.06c2.4-4.01 5.52-7.41 8.54-10.98C302 531 302 531 303 528l-2.94-.25c-4.76-.68-8.77-2.66-13.06-4.75l-2.07-.98q-3-1.45-5.93-3.02l-1.82-.94c-4.86-2.75-8.89-6.32-12.99-10.06l-1.71-1.55c-3.12-2.91-5.46-5.64-7.48-9.45l-1.44-2.31c-3.44-5.93-5.9-10.74-6.56-17.69-.76-4.04-1.64-8.05-2.5-12.06l-.78-3.66q-.57-2.63-1.22-5.24c-.87-3.58-1.38-7.21-1.94-10.85l-.4-2.65a302 302 0 0 1-2.16-20.35c-.6-7.74-1.65-15.07-3.27-22.66-2.45-11.85-2.94-23.56-3.03-35.62l-.04-4.52c-.25-22.03-.25-22.03 5.84-28.51 4.48-3.36 9.08-3.58 14.5-2.88 8.15 2.57 15.6 6.8 23 11 19.68 11.14 19.68 11.14 29 9l2.91-.93c5.66-1.63 11.52-2.29 17.34-3.13l7.02-1.04 3.11-.45C337 342 337 342 340 341h6q3.5-.45 7-1l3.33-.2c4.46-.97 6.79-2.99 9.92-6.11l1.69-1.62c4.23-4.11 8.22-8.43 12.16-12.83 13.22-14.66 13.22-14.66 23.9-15.24a12 12 0 0 1 3 3l2.5 1.38c4.38 2.84 5.88 7.27 7.56 12.06l1.03 2.92.91 2.64 1.12 3.12c.7 2.3 1.27 4.53 1.77 6.88 1.17 5.32 2.42 10.63 3.67 15.94l.67 2.86.65 2.73.58 2.46C428 362 428 362 429 364l-1 3 2.49-1.36c5.3-2.87 10.6-5.72 16.01-8.39A112 112 0 0 0 459 350c4.53-3.02 9.11-5.61 14-8 5.35-2.62 10.5-5.59 15.69-8.5l3.39-1.9c7.2-4.04 14.36-8.14 21.44-12.4 4.39-2.63 8.88-4.96 13.48-7.2 3.17-1.56 6.22-3.26 9.28-5.02 6.67-3.83 13.4-7.34 20.41-10.52 4.78-2.18 9.36-4.62 13.95-7.19 3.05-1.64 6.16-2.94 9.36-4.27q1.92-.95 3.81-1.94c3.86-1.96 7.83-3.54 11.87-5.12 2.85-1.16 5.58-2.54 8.32-3.94 4.56-1.97 9.29-3.45 14-5l2.02-.68a697 697 0 0 1 17.4-5.61A138 138 0 0 1 647 260l5.81-1.44 3.02-.74q3.3-.86 6.55-1.85a77 77 0 0 1 11.74-2.03c7.39-.84 7.39-.84 10.25-1.44 9.09-1.74 18.15-1.55 27.36-1.26l6.79.18c6.96.19 13.73.5 20.53 2.12 1.95.46 1.95.46 5.64.96 3.57.54 6.84 1.48 10.31 2.5l5.94 1.44c3.58.88 7.01 1.84 10.44 3.18 6.54 2.49 10.71 2.47 17.24.07l1.99-.69a68 68 0 0 0 9.39-4l5-2a85 85 0 0 0 15.37-8.05C822 246 822 246 824 246l.69-1.75c2.15-3.69 5.61-5.73 9-8.25a13.5 13.5 0 0 0 4.31-6l1.88-2.75c3.81-5.83 6.44-10.13 6.12-17.25l.96-1.86c1.19-2.46 1.41-4.36 1.6-7.08.28-3.43.76-6.68 1.44-10.06l-.06-2.5c.06-2.5.06-2.5 1-4.79a37 37 0 0 0 2.06-8.59c1-6.38 2.48-12.14 5-18.12l.94-2.44c1.22-2.94 2.59-5.73 4.06-8.56l.98-1.98c3.2-6.18 7.23-10.88 12.08-15.83l2.15-2.23q2.88-3 5.79-5.96l2.11-2.24C888 116 888 116 890 116l.72-1.82c4.03-6.89 15.25-10.12 22.28-13.18l2.45-1.13 2.3-1.06 1.98-.92A118 118 0 0 1 956 90l3.49-.34c18.59-1.65 42.76-.82 58.51 10.34m-99 1-3.52 1.3a97 97 0 0 0-52.83 50.07c-5.77 13.37-8.66 28.07-10.34 42.48-2.51 21.37-9.83 38.23-26.81 51.9-10.65 7.5-22.89 12.56-35.12 16.87l-2.15.79c-8 2.65-14.76.94-22.61-1.66-7.76-2.44-15.62-4.03-23.62-5.5l-3.47-.64c-51.24-9.14-103.31 5.49-149.65 27.06a670 670 0 0 1-8.64 3.89 478 478 0 0 0-32.84 16.16 656 656 0 0 1-7.44 3.9 816 816 0 0 0-29.81 16.19 1076 1076 0 0 1-18.12 10.13l-3.72 2.04a829 829 0 0 0-27.81 15.83c-25.13 15.07-25.13 15.07-34.5 18.19l-.12-1.75c-.6-7.09-1.95-13.89-3.57-20.81l-.8-3.45a202 202 0 0 0-5.63-19.74l-.7-2c-2.48-6.71-5.62-12.04-12.18-15.25-7.3-.27-11.95 4.2-17.07 8.89a392 392 0 0 0-6.12 6.11l-2.07 2.08a112 112 0 0 0-8.23 9.04c-7.25 8.31-13.83 9.91-24.51 10.81q-5.7.51-11.39 1.13l-2.26.23a177 177 0 0 0-18.29 2.9l-2.41.5A84 84 0 0 0 302 351c-12.38 1.33-23.82-7.53-34.21-13.36-16.45-9.08-16.45-9.08-23.79-7.64-5.38 3.05-7.64 6.61-9.43 12.43-1.02 4.58-.97 9.08-.88 13.76l.03 3.16c.26 15.27 1.8 30.04 4.89 44.99a96 96 0 0 1 1.83 16.6c.83 28.78 5.9 66.75 27.51 87.45 11.24 9.94 24.93 14.45 39.05 18.61a726 726 0 0 1-36.61 46.36l-4.39 5.21a256 256 0 0 1-16.78 18.21 96 96 0 0 0-5.6 6.16c-8.08 9.37-17.5 17.5-28.62 23.06q-2.73.14-5.46.24c-7.15.24-12.43.72-18.54 4.76l-2.62 1.56c-6.63 6.81-9.88 15.39-9.79 24.77.9 5.8 4.74 9.91 8.66 14.05 10.09 5.96 23.21 6.48 34.45 3.71 6.89-2.53 13.17-6.06 19.3-10.09l-2 3.31c-3.19 6.41-2.83 12.73-.94 19.5 5.13 8.43 12.65 11.16 21.86 13.72 20.15 4.52 39.01-5.1 55.55-15.51l7.08-4.55c6.41-4.11 12.93-8.03 19.45-11.97 8.82-5.33 17.58-10.72 26.27-16.26a614 614 0 0 1 16.48-10.05c11.31-6.72 22.28-13.94 33.25-21.19l4.3-2.82c36.77-24.25 36.77-24.25 49.7-37.18q2.67-.8 5.4-1.42c50.32-11.99 97.71-37.16 143.12-61.27 26.72-14.17 26.72-14.17 38.48-19.31l.32 2.05c5.13 22.18 21.39 42.79 36.68 58.95l2.6 2.83c7.61 8.09 16.21 14.4 25.32 20.72 3.69 2.58 7.3 5.28 10.92 7.96 2.16 1.49 2.16 1.49 4.39 2.58 2.37 1.22 2.67 2.51 3.77 4.91l1.88 2.06c5.53 7.65 6.76 15.69 6.12 24.94l-2.12.26c-8.83 1.31-14.73 3.69-20.32 10.8-4.32 5.95-4.5 12.79-3.56 19.94 1.85 4.26 4.56 6.32 8.71 8.27A97 97 0 0 0 742 669l1.65.55c3.52.68 7.02.51 10.59.44l4.92-.05q3.87-.04 7.72-.11l7.48-.09 2.31-.05c5.24-.03 8.59 1.11 13.33 3.31 2.44.39 2.44.39 4.64.4l2.48.02a210 210 0 0 1 5.25-.07c13.18-.31 25.88-3.94 35.75-13.08 3.99-4.83 6.36-10.58 8.88-16.27l1.18-2.39c3.74-8.09 4.87-17.17 6.35-25.89q.46-2.69 1.02-5.35c1.74-8.88 1.82-17.68 1.82-26.69q.01-3.97.08-7.93c.11-16.85-3.27-32.31-8.15-48.35-8.55-28.54-9.27-57.18-9.51-86.78l-.04-4.95q-.1-10.17-.15-20.36c-.2-37.28-2.92-72.06-21.4-105.26l-1.26-2.27-1.13-2C815 304 815 304 815 301l3.16-1c14.92-4.88 27.98-11.6 39.84-22l2.44-1.97c11.6-9.71 19-21.83 25-35.55C887 237 887 237 889 234c2.99-9.36 4.56-19 6.06-28.69 3.09-19.73 6.74-37.19 21.94-51.31l2.04-1.91c18.29-15.58 41.73-16.71 64.58-16.09q6.06.16 12.11.25l2.72.1c7.28.11 13.36-1.57 18.93-6.42l1.62-2.05 1.69-2.08c3.14-4.31 3.06-8.63 2.31-13.8-3.07-7.6-8.7-11.77-16-15-10.99-3.66-21.36-4.61-32.88-4.47q-3.73.03-7.46.01c-16.64.02-32.09 2.51-47.66 8.46M235 687l1 2Z" fill="#BABDBA"/><path d="m659 500 .67 1.66c9.18 22.6 20.55 41.56 37.33 59.34l2.38 2.61c7.96 8.41 17.15 14.79 26.62 21.39 11.81 8.33 11.81 8.33 16 13l1.48 1.47c6.09 6.38 8.73 13.89 8.83 22.65-.12 4.69-.12 4.69-1.31 5.88q-2.52.4-5.06.75a25.5 25.5 0 0 0-12.19 5.23c-3.98 2.32-10.06.82-14.62.59a1761 1761 0 0 0-89.3-1.83q-9.24.01-18.48-.01c-40.76-.06-81.43.79-122.04 4.52l-3.57.32q-26.97 2.41-53.86 5.49l-3.16.36a732 732 0 0 0-42.21 6.15c-5.16.88-10.33 1.66-15.51 2.43 3.63-4.18 8.08-6.58 12.81-9.31 11.65-6.86 22.92-14.24 34.19-21.69l4.3-2.82c36.77-24.25 36.77-24.25 49.7-37.18q2.67-.8 5.4-1.42c50.31-11.99 97.7-37.15 143.11-61.26q7.27-3.84 14.55-7.63l2.85-1.49q4.04-2.12 8.09-4.2l2.8-1.47 2.7-1.39 2.4-1.25c2.1-.89 2.1-.89 5.1-.89" fill="#ECEEEC"/><path d="M1018 100c3.94 3.97 6.98 8.45 8 14-.12 6.12-.95 11.54-4.96 16.35-7.61 7.16-14.71 9.68-25.1 9.9C992 140 992 140 989 139a71 71 0 0 0-4.38 0c-4.1.05-8.09-.18-12.18-.56-8.09-.67-14.68.22-22.44 2.56l-3 .44c-3.64.68-6.63 2.02-10 3.56l-3.38 1.31a71 71 0 0 0-10.54 6.28C921 154 921 154 918.06 155.62c-2.39 1.6-2.89 2.8-4.06 5.38l-1.94 1.88c-3.6 3.71-5.17 8.38-7.06 13.12l-1 2.32c-3.63 8.59-5.08 16.87-5.75 26.14A71 71 0 0 1 897 212l-.44 3.88c-1.16 9.53-5.02 18.42-9.31 26.93l-1.05 2.1A169 169 0 0 1 876 262l-1.81 3.12c-2.82 3.71-6.14 6.59-9.65 9.63-2.54 2.25-2.54 2.25-4.9 4.71-3.09 2.97-6.37 5.22-9.95 7.54l-2.02 1.32-3.93 2.56q-2.12 1.37-4.22 2.77c-4.32 2.84-8.63 4.69-13.52 6.35l-4.5 1.69L818 303a303 303 0 0 0 8 17c7.07 13.84 7.07 13.84 8 21l2 7 1 4.56c.56 2.65 1.2 5 2.12 7.56 1.05 3.43.94 6.3.88 9.88.59 7.57.59 7.57 1.54 10.86.86 3.96.47 8.02.4 12.05.06 3.09.06 3.09.56 4.82.71 3.21.62 6.38.6 9.65l-.01 2.23-.01 4.8-.03 7.61-.06 18.9-.08 23.42c-.02 7.29.07 14.43 1.09 21.66l.44 7.12A56 56 0 0 0 847 507q.77 4.06 1.44 8.16A108 108 0 0 0 851 525l4 14 1.09 3.7A78 78 0 0 1 858 553l1 2c.98 7.17 1.33 14.34 1.62 21.56l.16 3.29c.24 5.88.12 11.34-.78 17.15v2.69c0 2.57-.48 4.79-1 7.31l-.44 4.44c-.38 3.76-1.36 6.97-2.56 10.56l.06 3c-.07 3.68-1.32 5.79-3.06 9q-.55 2-1 4l-2 5a372 372 0 0 0 22.41 4.75c33.53 6.19 33.53 6.19 42.65 15.31.94 1.94.94 1.94 1 3.88-3.12 6.05-8.91 7.99-14.97 10.12-5.1 1.55-10.25 2.33-15.53 3.06l-3.43.51q-10.26 1.48-20.57 2.56l-2.1.21c-18.43 1.73-36.91 1.84-55.4 1.85H802c-28.2.03-56.27-1.19-84.42-2.82-50.37-2.9-100.57-5.3-151.01-3.52l-7.37.24c-72.19 2.32-144.19 11.04-215.8 20.02a941 941 0 0 1-35.52 3.71l-2.33.2q-3.22.29-6.43.54l-3.67.3A53 53 0 0 1 285 703v-2l2.56-.11c27.51-1.42 54.85-4.67 82.18-8.02q8.88-1.07 17.78-2.04l17.91-2.01c56.75-6.46 56.75-6.46 84.34-8.5q7.08-.54 14.17-1.12l7.65-.62 4.8-.4a707 707 0 0 1 57.83-2.31l6.58-.01 13.73.01h17.34c28.79-.03 57.44.2 86.16 2.37C753.02 682.35 809 684.94 864 680l5.35-.4c8.61-.7 16.96-2.13 25.4-3.98l2.78-.59A43 43 0 0 0 912 669v-6c-18.07-11.93-44.07-13.19-65-17 .81-8.09.81-8.09 3-12q.58-2.26 1-4.56l.5-2.67.5-2.77.5-2.68q.51-2.75.99-5.5.5-2.75 1.07-5.48c1.73-8.87 1.81-17.66 1.81-26.66q.01-3.97.08-7.93c.11-16.85-3.27-32.31-8.15-48.35-8.55-28.54-9.27-57.18-9.51-86.78l-.04-4.95q-.1-10.17-.15-20.36c-.19-37.08-2.66-72.3-21.49-105.17l-1.27-2.26-1.15-1.98c-.88-2.41-.73-3.56.31-5.9a69 69 0 0 1 7.56-2.69c13.36-4.33 24.86-11.08 35.44-20.31l2.22-1.75c11.32-9.25 18.44-21.55 24.22-34.77C886 237 886 237 888 234c2.99-9.36 4.56-19 6.06-28.69 3.12-19.94 6.86-36.89 21.94-51.31l1.56-1.66c9.84-9.63 24.34-13.7 37.44-16.34l2.42-.54c2.49-.44 4.7-.56 7.23-.51l2.7.04 2.88.05 6.12.07q4.8.05 9.59.14 4.65.07 9.29.11l2.87.07c7.25.03 13.45-1.47 19.06-6.28a166 166 0 0 1 2.75-3.56c2.93-4.26 2.8-8.58 2.09-13.59-2.69-7.17-7.64-10.47-14.32-13.71-11.16-3.91-21.63-4.77-33.33-4.68q-3.78.01-7.54-.02c-16.72-.02-32.16 2.43-47.81 8.41l-3.52 1.3c-23.34 9.27-41.33 26.28-51.83 49.07-5.77 13.37-8.66 28.07-10.34 42.48-2.48 21.1-9.69 37.43-25.93 51.4-11.85 8.87-25.4 14.26-39.38 18.75l-3.25 1.16c-6.55 2-12.84-.44-19.13-2.41-7.77-2.42-15.62-4.03-23.62-5.5l-3.47-.64c-51.24-9.14-103.31 5.49-149.65 27.06a670 670 0 0 1-8.64 3.89 478 478 0 0 0-32.84 16.16 656 656 0 0 1-7.44 3.9 816 816 0 0 0-29.81 16.19 1076 1076 0 0 1-18.12 10.13l-3.72 2.04a829 829 0 0 0-27.81 15.83 469 469 0 0 1-22.19 12.5l-2.7 1.44-2.5 1.3-2.19 1.15c-1.92.8-1.92.8-4.92.8l-.64-3.03q-1.2-5.71-2.45-11.42l-1.04-4.89c-1.86-8.81-3.93-17.46-6.89-25.98l-.72-2.08c-1.91-5.28-4.23-9.9-8.57-13.54-3.79-1.5-5.77-1.19-9.69-.06-5.88 3.69-10.79 8.51-15.62 13.44l-1.91 1.91a125 125 0 0 0-8.43 9.25c-7.42 8.54-14.02 10.4-25.04 11.33q-5.7.51-11.39 1.13l-2.26.23a177 177 0 0 0-18.29 2.9l-2.41.5A84 84 0 0 0 302 352c-12.38 1.33-23.82-7.53-34.21-13.36-16.27-8.98-16.27-8.98-23.79-7.64-5.06 3.07-6.68 5.86-8.41 11.41-1.05 4.59-.99 9.1-.9 13.78l.03 3.16c.26 15.27 1.8 30.04 4.89 44.99a96 96 0 0 1 1.83 16.6c.81 27.96 5.6 66.52 26.73 86.67 11.61 9.8 25.26 14.8 39.83 18.39a88 88 0 0 1-9.06 13.56l-2.95 3.69-1.51 1.89a456 456 0 0 0-4.22 5.39 521 521 0 0 1-18.74 22.7q-2.31 2.69-4.59 5.41a254 254 0 0 1-16.71 18.14 91 91 0 0 0-5.53 6.1C236.3 612.6 226.53 621.23 215 627q-2.73.14-5.46.24c-8.66.29-14.39 1.38-21.23 6.95-5.8 7.05-8.82 14-8.72 23.14.82 5.39 3.92 9.66 8.12 13.05 9.07 5.56 20 5.76 30.29 4.62 7.81-1.95 14.33-5.6 21-10h2l-.94 2.31c-2.72 6.88-2.94 13.33-1.06 20.5 4.51 7.18 11.07 10.17 19.06 12.44 7.8 1.71 15.99 1.59 23.94 1.75v2q-4.93.13-9.88.19l-2.78.07a44 44 0 0 1-16.07-2.56 31 31 0 0 0-7.15-1.2c-3.62-.31-5.32-1.1-8.12-3.5l-2.56-.31L233 696c-1.56-2.81-1.56-2.81-3-6-2.19-2.37-2.19-2.37-4-4l3.91-4.39C231 680 231 680 231 677l3-2v-3l-2.12 1.02c-12.64 5.94-23.26 7.84-37.02 4.02-7.21-2.62-13.46-7-16.86-14.04-1.88-5.76-3.1-11.35-.71-17.09 4.93-9.13 9.84-16.7 19.71-20.91 2.97-.62 5.92-.83 8.94-1 20.02-1.15 35.21-19.92 47.86-34l5.2-6 3.39-3.85 3.3-3.77 1.68-1.91a71 71 0 0 0 6.84-8.87C276 563 276 563 279 562q1.04-1.99 2-4 2.17-2.76 4.44-5.44a62 62 0 0 0 6.06-8.06c2.4-4.01 5.52-7.41 8.54-10.98C302 531 302 531 303 528l-2.94-.25c-4.76-.68-8.77-2.66-13.06-4.75l-2.07-.98q-3-1.45-5.93-3.02l-1.82-.94c-4.86-2.75-8.89-6.32-12.99-10.06l-1.71-1.55c-3.12-2.91-5.46-5.64-7.48-9.45l-1.44-2.31c-3.44-5.93-5.9-10.74-6.56-17.69-.76-4.04-1.64-8.05-2.5-12.06l-.78-3.66q-.57-2.63-1.22-5.24c-.87-3.58-1.38-7.21-1.94-10.85l-.4-2.65a302 302 0 0 1-2.16-20.35c-.6-7.74-1.65-15.07-3.27-22.66-2.45-11.85-2.94-23.56-3.03-35.62l-.04-4.52c-.25-22.03-.25-22.03 5.84-28.51 4.48-3.36 9.08-3.58 14.5-2.88 8.15 2.57 15.6 6.8 23 11 19.68 11.14 19.68 11.14 29 9l2.91-.93c5.66-1.63 11.52-2.29 17.34-3.13l7.02-1.04 3.11-.45C337 342 337 342 340 341h6q3.5-.45 7-1l3.33-.2c4.46-.97 6.79-2.99 9.92-6.11l1.69-1.62c4.23-4.11 8.22-8.43 12.16-12.83 13.22-14.66 13.22-14.66 23.9-15.24a12 12 0 0 1 3 3l2.5 1.38c4.38 2.84 5.88 7.27 7.56 12.06l1.03 2.92.91 2.64 1.12 3.12c.7 2.3 1.27 4.53 1.77 6.88 1.17 5.32 2.42 10.63 3.67 15.94l.67 2.86.65 2.73.58 2.46C428 362 428 362 429 364l-1 3 2.49-1.36c5.3-2.87 10.6-5.72 16.01-8.39A112 112 0 0 0 459 350c4.53-3.02 9.11-5.61 14-8 5.35-2.62 10.5-5.59 15.69-8.5l3.39-1.9c7.2-4.04 14.36-8.14 21.44-12.4 4.39-2.63 8.88-4.96 13.48-7.2 3.17-1.56 6.22-3.26 9.28-5.02 6.67-3.83 13.4-7.34 20.41-10.52 4.78-2.18 9.36-4.62 13.95-7.19 3.05-1.64 6.16-2.94 9.36-4.27q1.92-.95 3.81-1.94c3.86-1.96 7.83-3.54 11.87-5.12 2.85-1.16 5.58-2.54 8.32-3.94 4.56-1.97 9.29-3.45 14-5l2.02-.68a697 697 0 0 1 17.4-5.61A138 138 0 0 1 647 260l5.81-1.44 3.02-.74q3.3-.86 6.55-1.85a77 77 0 0 1 11.74-2.03c7.39-.84 7.39-.84 10.25-1.44 9.09-1.74 18.15-1.55 27.36-1.26l6.79.18c6.96.19 13.73.5 20.53 2.12 1.95.46 1.95.46 5.64.96 3.57.54 6.84 1.48 10.31 2.5l5.94 1.44c3.58.88 7.01 1.84 10.44 3.18 6.54 2.49 10.71 2.47 17.24.07l1.99-.69a68 68 0 0 0 9.39-4l5-2a85 85 0 0 0 15.37-8.05C822 246 822 246 824 246l.69-1.75c2.15-3.69 5.61-5.73 9-8.25a13.5 13.5 0 0 0 4.31-6l1.88-2.75c3.81-5.83 6.44-10.13 6.12-17.25l.96-1.86c1.19-2.46 1.41-4.36 1.6-7.08.28-3.43.76-6.68 1.44-10.06l-.06-2.5c.06-2.5.06-2.5 1-4.79a37 37 0 0 0 2.06-8.59c1-6.38 2.48-12.14 5-18.12l.94-2.44c1.22-2.94 2.59-5.73 4.06-8.56l.98-1.98c3.2-6.18 7.23-10.88 12.08-15.83l2.15-2.23q2.88-3 5.79-5.96l2.11-2.24C888 116 888 116 890 116l.72-1.82c4.03-6.89 15.25-10.12 22.28-13.18l2.45-1.13 2.3-1.06 1.98-.92A118 118 0 0 1 956 90l3.49-.34c18.59-1.65 42.76-.82 58.51 10.34M235 687l1 2Z" fill="#E6E8E8"/><path d="m250 330 1 2-6 1v1l9 1v3l2.38.12c11.72 2.84 22.31 12.64 29.62 21.88-.87 1.95-.87 1.95-2 4-2.12.75-2.12.75-4 1v2a272 272 0 0 1-6 4l-1.75 1.75L271 374h-2l-1 3h-2l-.78 1.68c-1.88 3.57-4.3 6.72-6.66 9.98C257 391 257 391 256 394h-2l-.75 2.81c-1.47 5.16-3.38 10.17-5.25 15.19h-2l-1-4h-3v-2h-2l-1 2a277 277 0 0 1-5.31-51.81l-.06-2.98c.01-7.01.73-13.62 4.98-19.4 3.86-3.11 6.21-4.57 11.39-3.81" fill="#262724"/><path d="M398 307c4.64.28 8.12.93 11.6 4.19 4.98 6.43 6.92 15.13 9.28 22.81l.68 2.21c1.1 3.74 1.5 6.09.44 9.79-.41 6.78 1.11 12.96 2.58 19.53A61 61 0 0 1 424 381c-3.82-1.56-6.26-3.96-9-7v-2l-3-1v-2l-1.69-.25c-2.31-.75-2.31-.75-4.54-2.58-9.08-7.12-20.24-10.15-31.33-12.48l-2.49-.55-2.24-.45L368 352l-1-3 1-2h2l.73-2.62c1.4-3.73 3.2-6.26 5.65-9.38 3.04-3.91 5.88-7.87 8.62-12 2.12-2.38 2.12-2.38 4-4h2v-2c1.39-1.29 1.39-1.29 3.25-2.62l1.83-1.36C398 312 398 312 402 312v-2l-4-1z" fill="#242522"/><path d="M376 554v2h2c-1.51 3.54-3.57 5.82-6.29 8.52l-2.6 2.6a678 678 0 0 0-5.4 5.35 261 261 0 0 1-13.79 12.83c-3.47 3.07-6.68 6.4-9.92 9.7-4.52 4.6-9.09 9.02-13.98 13.23-3.55 3.11-6.92 6.39-10.33 9.65a257 257 0 0 1-17.01 14.97 243 243 0 0 0-7.56 6.38A351 351 0 0 1 283 646l-2.45 2.03c-7.55 5.43-15.66 4.53-24.55 3.97 3.92-4.07 8.1-7.65 12.5-11.19l2.14-1.73a620 620 0 0 1 12.8-10.02c10.97-8.37 21.52-17.29 32.03-26.23q6.3-5.32 12.72-10.52 5.52-4.56 10.97-9.22 5.18-4.4 10.46-8.65c6.41-5.21 12.44-10.82 18.52-16.4 4.52-4.04 4.52-4.04 7.86-4.04" fill="#EAEAEF"/><path d="m297.19 457.25 2.75.08c7.73.35 14.2 2.12 21.06 5.67v-3h3v2h2v2h-3l2 2.19c2 2.81 2 2.81 2.63 5.37-.63 2.44-.63 2.44-3.06 4.57-9.16 5.23-20.63 7.61-30.95 5.02-7.3-2.84-13.25-6.59-17.62-13.15-.12-3.19-.12-3.19 0-6 7.57-4.51 12.42-5.15 21.19-4.75" fill="#171814"/><path d="M404 445c2 2 2 2 2.15 3.92-.55 5.85-1.82 9.97-6.15 14.08-3.78 2.71-7.68 5.44-12.25 6.54L386 470l-1 2q-5.87-.09-11.75-.25l-3.37-.04-3.24-.1-2.98-.06c-3.35-.69-4.56-1.9-6.66-4.55-.48-2.48-.48-2.48 0-5 1.61-2.2 1.61-2.2 3.75-4.25l2.11-2.08A11.3 11.3 0 0 1 369 453v5h2v-7c9.28-4.97 22.51-9.98 33-6m-24 27h5l-1 2h-4z" fill="#161814"/><path d="m246 598 2 1c-9.1 11.26-19.97 21.49-33 28q-2.73.14-5.46.24c-8.66.29-14.39 1.38-21.23 6.95-5.8 7.05-8.82 14-8.72 23.14.82 5.39 3.92 9.66 8.12 13.05 9.07 5.56 20 5.76 30.29 4.62 7.81-1.95 14.33-5.6 21-10h2l-.94 2.31c-2.72 6.88-2.94 13.33-1.06 20.5 4.51 7.18 11.07 10.17 19.06 12.44 7.8 1.71 15.99 1.59 23.94 1.75v2q-4.93.13-9.88.19l-2.78.07a44 44 0 0 1-16.07-2.56 31 31 0 0 0-7.15-1.2c-3.62-.31-5.32-1.1-8.12-3.5l-2.56-.31L233 696c-1.56-2.81-1.56-2.81-3-6-2.19-2.38-2.19-2.38-4-4l3.91-4.39C231 680 231 680 231 677l3-2v-3l-2.12 1.02c-12.64 5.94-23.26 7.84-37.02 4.02-7.21-2.62-13.46-7-16.86-14.04-1.88-5.76-3.1-11.35-.71-17.09 4.93-9.13 9.84-16.7 19.71-20.91 2.97-.62 5.92-.83 8.94-1 9.7-.56 16.18-3.74 23.44-10.12l1.66-1.44A234 234 0 0 0 246 598m-11 89 1 2Z" fill="#DEE0E0"/><path d="M249 482c3 1 3 1 4.51 3.81l1.61 3.63c7.62 16.12 21.69 26.03 37.88 32.56 4.92 1.66 9.93 2.89 15 4a88 88 0 0 1-9.06 13.56l-2.95 3.69-1.51 1.89a456 456 0 0 0-4.22 5.39 528 528 0 0 1-18.73 22.7q-2.34 2.7-4.64 5.45A246 246 0 0 1 249 598l-2-1 2.75-2.89c6.41-6.8 12.67-13.61 18.48-20.94 1.77-2.17 1.77-2.17 3.41-3.8C273 568 273 568 274.5 565.38 276 563 276 563 279 562q1.04-1.99 2-4 2.17-2.76 4.44-5.44a62 62 0 0 0 6.06-8.06c2.4-4.01 5.52-7.41 8.54-10.98C302 531 302 531 303 528l-2.94-.25c-4.76-.68-8.77-2.66-13.06-4.75l-2.07-.98q-3-1.45-5.93-3.02l-1.82-.94c-4.86-2.75-8.89-6.32-12.99-10.06l-1.71-1.55c-3.12-2.91-5.46-5.64-7.48-9.45l-1.44-2.25c-2.15-3.79-3.84-7.75-5.56-11.75z" fill="#E5E6E7"/><path d="M840 399h1l.03 2.38.31 22.37.16 11.5.15 11.12.06 4.22a310 310 0 0 0 2.04 32.96c.32 3.19.5 6.38.69 9.57A56 56 0 0 0 847 507q.77 4.06 1.44 8.16A108 108 0 0 0 851 525l4 14 1.09 3.7A78 78 0 0 1 858 553l1 2c1.77 11.59 1.35 23.39 0 35h-1l-.12-2.44c-1.03-19.98-3.09-38.85-8.95-58.06a351 351 0 0 1-4.62-16.88l-.61-2.35c-3.77-15.54-3.99-31.6-3.9-47.5l.01-5.57.05-14.44.04-14.83q.03-14.46.1-28.93" fill="#EDEDF0"/><path d="M239 665h2l-.94 2.31c-2.72 6.88-2.94 13.33-1.06 20.5 4.51 7.18 11.07 10.17 19.06 12.44 7.8 1.71 15.99 1.59 23.94 1.75v2q-4.93.13-9.88.19l-2.78.07a44 44 0 0 1-16.07-2.56 31 31 0 0 0-7.15-1.2c-3.62-.31-5.32-1.1-8.12-3.5l-2.56-.31L233 696c-1.56-2.81-1.56-2.81-3-6-2.19-2.38-2.19-2.38-4-4l3.91-4.39C231 680 231 680 231 677l3-2v-3l-1.57.91c-5.77 3.14-5.77 3.14-9.43 2.84l-2-.75a87 87 0 0 1 10.12-5.56c6.75-3.31 6.75-3.31 7.88-4.44m-4 22 1 2Z" fill="#D3D4D4"/><path d="m883 121 2 1-1.65 1.7c-18.69 19.87-26.93 44.39-30.04 71.15-1.83 15.58-5.18 29.49-16.31 41.15l-3-1 2-2c10.39-14.32 10.39-14.32 10-23l.96-1.86c1.19-2.46 1.41-4.36 1.6-7.08.28-3.43.76-6.68 1.44-10.06l-.06-2.5c.06-2.5.06-2.5 1-4.79a37 37 0 0 0 2.06-8.59c1-6.38 2.48-12.14 5-18.12l.94-2.44c1.22-2.94 2.59-5.73 4.06-8.56l.98-1.99c3.15-6.06 7.07-10.71 11.83-15.57l2.1-2.19q2.54-2.64 5.09-5.25" fill="#E8E9EA"/><path d="M836 236c-6.12 14.1-26.32 20.95-39.63 26.3-12.78 5.01-19.78 4.89-32.85.79-11.25-3.39-22.95-5.1-34.52-7.09 7.3-3.83 15.29-1.99 23 0q3.41 1.09 6.79 2.28c2.95.96 5.93 1.57 8.97 2.17 2.32.57 4.35 1.43 6.55 2.36 8.63 2.98 17.95-2.09 25.69-5.81l5-2a85 85 0 0 0 15.37-8.05C822 246 822 246 824 246l.79-1.8c1.3-2.36 2.6-3.71 4.65-5.45l1.81-1.58C833 236 833 236 836 236" fill="#E5E6E9"/><path d="m343.94 477.75 2.59-.08c2.93.39 4.28 1.4 6.47 3.33-.25 2.87-.25 2.87-1 6-2.06 1.37-2.06 1.37-4 2v7l-7 1-1.25-2.87C338 491 338 491 335.88 490.06L334 489c-.94-3.44-.94-3.44-1-7 2.64-3.95 6.49-4.17 10.94-4.25" fill="#68686A"/><path d="m369 453 .62 3.06c1.32 4.56 3.82 7.85 7.38 10.94 3.38 1.44 3.38 1.44 6 2v2q-5.37.17-10.75.25l-3.08.1c-7.46.1-7.46.1-10.87-2.05-1.58-2.8-1.92-4.14-1.3-7.3 1.68-2.2 1.68-2.2 3.88-4.25l2.17-2.08c2.11-1.81 3.16-2.67 5.95-2.67" fill="#F0CC76"/><path d="m288 458 .08 2.2c.35 5.99.74 10.17 4.92 14.8a50 50 0 0 0 6 4l3 2c-7.82.9-13.45-1.83-20-6-3.79-3.15-5.83-5.47-6.38-10.44L276 462c6.83-4.29 6.83-4.29 12-4" fill="#E6CB6A"/><path d="m840 379 2 1-.04 3.36-.05 6.6c-.02 5.62-.02 5.62.59 7.89.67 2.86.62 5.54.61 8.48v3.88l-.01 4.18-.01 4.29-.02 11.26-.02 11.51L843 464h-2l-1-5h-1l-.05-30.85q0-7.16-.03-14.32l-.01-13.81-.02-5.28v-7.37l-.01-2.23c.01-5.03.01-5.03 1.12-6.14" fill="#D9DADC"/><path d="M956 91a206 206 0 0 0 9.41.44l3.47.12 3.53.13L981 92v1l-2.38.04c-20.79.44-40.04 1.48-59.62 8.96l-3.52 1.3c-11.25 4.47-21.14 11.04-30.48 18.7 0-3 0-3 1.38-4.69C888 116 888 116 890 116l.72-1.82c4.03-6.89 15.25-10.12 22.28-13.18l2.45-1.13 2.3-1.06 1.98-.92c5.61-2.21 11.56-3.5 17.39-4.95l2.09-.53L945 91l2.62-.68c2.97-.4 5.42.19 8.38.68" fill="#E4E7E5"/><path d="M976 136v2l-1.87-.04c-8.48-.09-15.99.58-24.13 3.04l-3 .44c-3.64.68-6.63 2.02-10 3.56l-3.38 1.31a71 71 0 0 0-10.54 6.28C921 154 921 154 918.06 155.62c-2.39 1.6-2.89 2.8-4.06 5.38l-1.94 1.88C910 165 910 165 908.44 168.19 907 171 907 171 904 172c1.82-9.2 10.11-18.02 17.66-23.12 17.85-11.15 33.78-13.45 54.34-12.88" fill="#EAEBEB"/><path d="M376 554v2h2c-1.51 3.57-3.61 5.84-6.35 8.55l-2.58 2.56-2.69 2.64-2.72 2.69L357 579c-1.5-1.38-1.5-1.38-3-3v-2l-2-2 2.05-1.65a284 284 0 0 0 16.86-14.7C373 554 373 554 376 554" fill="#E3E4E6"/><path d="M883 248c0 5.39-4.1 9.61-7 14l-1.81 3.12c-2.82 3.71-6.14 6.59-9.65 9.63-2.54 2.25-2.54 2.25-4.9 4.71-3.09 2.97-6.37 5.22-9.95 7.54l-2.02 1.32-3.93 2.56a307 307 0 0 0-4.22 2.77A56 56 0 0 1 826 300l-3.19 1.25c-3.05.81-4.81.63-7.81-.25a34 34 0 0 1 8.24-3.9c13.12-4.58 24.2-11 34.76-20.1l2.23-1.75c7.54-6.17 14.62-14.76 18.9-23.58C880 250 880 250 883 248" fill="#E3E2E5"/><path d="M240 412h1l.04 3.1c.58 21.26 4.76 42.33 9.96 62.9q.52 2.5 1 5c-1.88-.62-1.88-.62-4-2-2.18-4.6-2.68-9.71-3.44-14.71q-.65-3.82-1.52-7.6c-3.56-15.8-4.36-30.54-3.04-46.69" fill="#DFE1E0"/><path d="M857 570h1l.15 1.93.23 2.51.21 2.49.41 2.07 2 1c.09 4.46.1 8.82-.5 13.25-.5 3.75-.5 3.75-.5 6.44 0 2.57-.48 4.79-1 7.31l-.44 4.44c-.38 3.76-1.36 6.97-2.56 10.56l.12 3.12C856 628 856 628 854 630.38l-2 1.62c-1.46-3.91-.57-7.01.31-11q.88-4 1.69-8l.53-2.6c1.59-8.54 1.9-17 2.09-25.65l.12-4.32q.14-5.2.26-10.43" fill="#DADADC"/><path d="M346 696c-3.27 2.89-5.8 3.55-10.1 4.08l-3.77.47q-10.08 1.11-20.18 1.94-3.62.3-7.22.63l-4.66.39-2.15.2c-4.52.36-8.48.08-12.92-.71v-2l2.56-.11a838 838 0 0 0 31.63-2.39l2.22-.2 6.38-.58 3.77-.35c13.04-1.41 13.04-1.41 14.44-1.37" fill="#E2E3E2"/><path d="M758.8 258.29c2.18.7 4.32 1.2 6.57 1.65A75 75 0 0 1 781 265l1 2c-5.77-.31-10.89-1.5-16.38-3.25-11.94-3.75-24.3-5.63-36.62-7.75 9.24-4.84 20.5-.98 29.8 2.29" fill="#DFDFE2"/><path d="M264 333c10.77 5.42 10.77 5.42 14 9-4.66 0-7.27-1.58-11.19-3.81-15.42-8.5-15.42-8.5-22.81-7.19-5.84 3.55-7.39 7.5-9 14h-2c.52-6.14 1.4-9.96 5.5-14.75 7.49-6.24 18.18-.82 25.5 2.75" fill="#E4E5E5"/><path d="m236 373 3 1 1.44 9.38.41 2.63q1.34 8.96 2.15 17.99l-4 1-.94-4.19-.52-2.35L237 396l-.56-2.22c-.64-4.03-.54-8.02-.5-12.09l.01-2.54z" fill="#11130F"/><path d="m700.66 251.09 2.6.06 5.45.15q4.17.12 8.35.2l5.29.15 2.53.06c5.89.18 5.89.18 8.12 1.29v2h-53c4.3-3.22 5-3.21 10-3 3.32-1.66 7.02-1.01 10.66-.91" fill="#ECECEE"/><path d="M686 255v1l-3.78.52c-9.43 1.32-18.69 2.87-27.92 5.21-2.86.72-5.34 1.27-8.3 1.27l1-3c2.48-.88 2.48-.88 5.62-1.56l3.3-.75L659 257q1.95-.54 3.88-1.12A47.6 47.6 0 0 1 686 255" fill="#E8E8EB"/><path d="M253.9 698.7c9.05 3.25 18.58 3.05 28.1 3.3v2q-4.94.13-9.88.18l-2.78.08a44 44 0 0 1-16.05-2.56 35 35 0 0 0-7.35-1.27L242 700l-1-2c4.65-1.23 8.36-.98 12.9.7" fill="#E3E3E3"/><path d="m498 561 2 1-3.31 3.38-1.87 1.89C493 569 493 569 490 571l-1 3h-3l-2 5-9 1a76 76 0 0 1 10.73-9.31c4.18-3.11 8.21-6.42 12.27-9.69" fill="#030504"/><path d="m983.44 89.81 2.82.25 2.6.27 2.36.24L993 91l1 2c-12.68.22-25.33-.45-38-1v-2a138 138 0 0 1 27.44-.19" fill="#EFF0F1"/><path d="M956 91a206 206 0 0 0 9.41.44l3.47.12 3.53.13L981 92v1l-2.47.06-9.26.26-5.91.15c-7.04.21-13.77.74-20.69 2.11-2.92.46-5.71.49-8.67.42v-2l5.19-1.44 2.92-.81L945 91l2.49-.66c3.04-.41 5.48.15 8.51.66" fill="#C2C4C2"/><path d="M803 591c2 1 2 1 3.11 4.11 2.17 9.5 1.36 19.51-1.11 28.89h-1z" fill="#A8AAA9"/><path d="M844 505h2l.59 2.6c1.61 7.09 3.3 14.06 5.6 20.96.85 3.6.68 5.88-.19 9.44h-1q-1.49-5.43-2.94-10.88l-.84-3.07A96 96 0 0 1 844 505" fill="#EAEBED"/><path d="m298.25 455.31 2.86.11c4.97.23 9.22.68 13.89 2.58l2.81.93L320 460l1 3c-2.73-.63-5-1.42-7.63-2.5-5.57-1.93-11.23-1.98-17.07-2.12-7.06-.22-7.06-.22-10.3-2.38 3.71-1.86 8.19-.89 12.25-.69" fill="#050503"/><path d="M322 465c3 1 3 1 5 4 .5 2.44.5 2.44 0 5-4.1 3.6-7.63 4.57-13 5l1.24-1.29c3.79-4.12 5.64-7.22 6.76-12.71" fill="#D1BD86"/><path d="m960.08 135.9 2.82.01 2.91.03 2.97.01 7.22.05v2l-1.87-.04c-8.48-.09-15.99.58-24.13 3.04-3.1.6-5.85 1-9 1 1.27-2.54 2.13-2.62 4.75-3.56l2.04-.76a39 39 0 0 1 12.3-1.78" fill="#F2F4F4"/><path d="M177 648h2l.01 2.31c.29 7.68 1.57 13.05 6.99 18.69a50 50 0 0 0 6.46 4.03l1.54.97v2c-6.3-1.65-10.15-4.74-14.25-9.75A30.6 30.6 0 0 1 176 649z" fill="#E2E4E4"/><path d="M400 442v3l-2.71.11c-9.48.52-17.59 2.12-26.29 5.89v7h-1c-.81-3.25-.81-3.25-1-7 4.31-5.58 13.43-7.46 20.12-8.47 3.64-.35 7.22-.53 10.88-.53" fill="#040402"/><path d="M423 345c1.95 3.42 2.74 6.79 3.56 10.62 1.34 6.19 1.34 6.19 2.44 8.38l-1 3 4-1 1 2c-2.65 1.46-3.89 2-7 2q-1.05-4.27-2.06-8.56l-.61-2.43c-1.18-5.07-1.42-8.9-.33-14.01" fill="#E2E4E4"/><path d="M836 236c-3.67 8.61-13.15 13.68-21 18l-1-3 3.88-2.5 2.17-1.41C822 246 822 246 824 246l.79-1.8c1.3-2.36 2.6-3.71 4.65-5.45l1.81-1.58C833 236 833 236 836 236" fill="#E2E2E5"/><path d="m246 598 2 1c-4.18 5.16-8.77 9.8-13.62 14.31l-1.67 1.56A48 48 0 0 1 223 622c.33-2.94.92-3.92 3.12-5.97l2.76-2.09c6.2-4.88 11.64-10.27 17.12-15.94" fill="#D1D3D0"/><path d="M236 338h2q.37 2.9.69 5.81l.38 3.27c-.07 2.92-.07 2.92-1.51 4.3-2.6 2.7-2.14 6.24-2.25 9.81l-.1 2.27q-.12 2.77-.21 5.54h-1q-.08-5.78-.12-11.56l-.06-3.29c-.03-5.79.19-10.69 2.18-16.15" fill="#363737"/><path d="M258 337q2.91.3 5.81.69l3.27.38c2.92.93 2.92.93 4.81 3.39C273 344 273 344 273 346h2v2c-4-1.49-7.61-3.37-11.31-5.5l-3.24-1.84L258 339z" fill="#090B0A"/><path d="M960 135c14.7-.15 29.32.29 44 1v1l-3.95.18-5.17.26-2.6.12c-3.63.18-7.12.41-10.71 1.04-2.57.4-2.57.4-5.57-.6v-2h-16z" fill="#C5C6C6"/><path d="M240 412h1l.18 3.98.26 5.21.12 2.62c.2 4.17.54 8.1 1.44 12.19q.07 3.5 0 7l-2 1c-1.87-7.38-2.13-14.05-1.62-21.62l.17-3.05q.21-3.66.45-7.33" fill="#CDCFCD"/><path d="m905 108-3.11 2.05-4.08 2.7-2.04 1.34A123 123 0 0 0 885 122c0-3 0-3 1.38-4.69C888 116 888 116 890 116l.73-1.82c1.54-2.65 2.98-3.52 5.65-4.99l2.33-1.33c2.65-1 3.65-.65 6.29.14" fill="#E0E2E0"/><path d="M237 396h1c2.1 9.74 2.21 19.1 2 29l-2-1c-.43-2.15-.43-2.15-.67-4.95l-.27-3.07-.25-3.23-.28-3.18c-.4-4.79-.66-8.87.47-13.57" fill="#E5E7E2"/><path d="M253 331c6.1-.48 9.62.88 14.75 3.81l2 1.08c3.12 1.73 5.93 3.37 8.25 6.11-4.7 0-7.42-1.62-11.38-3.88-4.46-2.51-8.66-4.66-13.62-6.12z" fill="#D4D6D5"/><path d="M999.53 92.38c5.04 1.27 9.75 3.48 14.47 5.62v2l2 1c-3.5 0-5.38-.94-8.56-2.37A65 65 0 0 0 991 94c3.32-2.22 4.68-2.2 8.53-1.62" fill="#DDDEDF"/><path d="M857 570h1l.15 1.93.23 2.51.21 2.49.41 2.07 2 1c.24 5.78-.13 10.51-2 16l-2-1z" fill="#CECFD0"/><path d="M858 559c2 2 2 2 2.23 5.75q0 2.34-.04 4.69l-.02 2.45c-.08 6.07-.43 12.08-1.17 18.11h-1l-.48-12.76-.17-4.35-.23-6.23-.14-3.79C857 560 857 560 858 559" fill="#F1F3F2"/><path d="m236 373 3 1c1.57 3.57 1.77 8.2 1 12l-4 5z" fill="#171A16"/><path d="m1008 136-1 3c-7.77.99-14.41 1.03-22-1v-1l9.25-.5 2.64-.14 2.56-.14 2.35-.13q3.1-.1 6.2-.09" fill="#F3F6F6"/><path d="M357 462c2.87 2.6 4.24 4.21 5 8l6.75-.44 3.8-.24c3.45-.32 3.45-.32 5.72-.92 1.73-.4 1.73-.4 4.73.6v2q-5.37.17-10.75.25l-3.08.1c-7.51.1-7.51.1-10.86-2.19-1.57-2.59-1.64-4.18-1.31-7.16" fill="#CFB77F"/><path d="M664 677c9.73-.11 19.3.07 29 1v1c-6.37.96-12.56 1.11-19 1v-2h-10z" fill="#E1E3E1"/><path d="M411 316c4.37 3.91 5.8 9.06 6.19 14.81A123 123 0 0 1 417 338c-2.34-3.51-3.15-6.96-4.12-11l-.56-2.2c-.73-3-1.32-5.7-1.32-8.8" fill="#191B19"/><path d="m333 343-1 3-6.12 1-3.45.56c-3.19.41-6.22.52-9.43.44v-2l8.31-1.5 2.38-.43 2.3-.41 2.11-.38c1.9-.28 1.9-.28 4.9-.28" fill="#E6E8E7"/><path d="M850 202h1c.38 6.2-.16 10.45-3 16h-2c-.28-8.3-.28-8.3 2-12v-2h2z" fill="#F1F0F2"/><path d="m380 645 2 1v2h9v1l-8.31 1.56-2.38.46-2.3.42-2.11.4c-1.9.16-1.9.16-4.9-.84z" fill="#D8DBD9"/><path d="m1021 124 1 3c-7.51 9.7-7.51 9.7-11.16 10.44-1.9-.32-1.9-.32-4.84-1.44 3-2 3-2 6.38-3.75 3.82-2.14 6.01-4.76 8.62-8.25" fill="#DEE0DD"/><path d="M945 140a237 237 0 0 1-15 8v-4q2.61-1.3 5.25-2.56l2.95-1.44c2.9-1.04 4-1.11 6.8 0" fill="#EEEFED"/><path d="M958 93h24c-4.29 2.14-6.19 2.19-10.88 2.06A58 58 0 0 0 958 96z" fill="#020303"/><path d="M257 699q3-.06 6 0l1 1q3.04-.14 6.06-.44l3.35-.31L276 699v2l4 1-8.69.12-2.47.06c-4.41.03-7.83-.1-11.84-2.18z" fill="#141714"/><path d="M743 681c10.02-.2 20 .42 30 1v1l-23 1v-1l-7-1z" fill="#DDE0DD"/><path d="M535 308v3a438 438 0 0 1-5.19 3l-2.92 1.69A13.4 13.4 0 0 1 519 317c4.38-4.38 10.35-6.69 16-9" fill="#E8E8EA"/><path d="M851 191h2l.12 4.75.08 2.67A13.3 13.3 0 0 1 851 205l-3-1c.48-4.71.97-8.67 3-13" fill="#E5E4E6"/><path d="M899 184c1.94 3.26 2.03 3.82 1.25 7.81q-.6 2.1-1.25 4.19l-1.12 4-.88 3h-1c-.39-6.98.37-12.52 3-19" fill="#E6E6E8"/><path d="m418 330 3 1 .44 2.75c.56 3.25.56 3.25 1.12 5.19.64 3.02.5 5.98.44 9.06-2.52-2.52-2.79-4.42-3.62-7.88l-.79-3.17C418 334 418 334 418 330" fill="#EDECEF"/><path d="m345.88 341.88 3.49.62q1.3.23 2.63.5v1c-6.37.75-12.58 1.1-19 1v-2c4.74-1.94 7.87-2.05 12.88-1.12" fill="#D6D8D7"/><path d="m261 647 3 1v2l9 1v1h-17z" fill="#BDC0BE"/><path d="M245 602v3l-4 2zm-7 7c0 3.61-.62 4.37-3 7a67 67 0 0 1-7 4c1.45-3.44 3.28-5.36 6.12-7.75l2.2-1.86z" fill="#090A09"/><path d="m857 595 3 2c.49 4.54-.57 8.71-2 13h-2c-.1-5.13-.04-9.95 1-15" fill="#EEF0F2"/><path d="m358 339 2 1-1 3h-14c3-3 3-3 5.23-3.26l2.39.14q2.19.1 4.38.12z" fill="#EDEEEE"/><path d="M177 648h2l1 17c-3.58-3.58-3.88-9.09-4.19-14 .19-2 .19-2 1.19-3" fill="#E9EDE7"/><path d="M571 292c-3.06 2.49-6.15 4.1-9.75 5.69l-2.98 1.32-2.27.99-2-2q2.84-1.51 5.69-3l3.2-1.69A14.5 14.5 0 0 1 571 292" fill="#D8DAD8"/><path d="m236 670 2 1-1 15-3-1 .44-6.38.24-3.58C235 672 235 672 236 670" fill="#D7D8DA"/><path d="m501 680-1 2c-7.44 1.36-14.51.75-22 0v-1l7.56-.5 2.14-.14q6.64-.44 13.3-.36" fill="#E0E1E0"/><path d="m351 583 1 3-10 10-2-2z" fill="#191A1E"/><path d="M287 457h2l1 13h2l1 4h2v2l2 1h-3c-4.5-4.93-6.07-7.58-6.56-14.12l-.26-3.33z" fill="#352D1C"/><path d="M400 444c2.87.57 3.86.86 6 3 .05 2.13.05 2.13-.25 4.56l-.27 2.44-.48 2-2 1-.15-2.08-.23-2.73-.21-2.71C402 447 402 447 400 444" fill="#B4A978"/><path d="M417 331a19 19 0 0 1 3.19 6.94l.54 2.02c.31 2.33.09 3.85-.73 6.04l-2 1c-1.13-5.36-1.1-10.55-1-16" fill="#2B2C2C"/><path d="m868 268 3 1-1.61 1.36c-3.19 2.73-6.1 5.27-8.7 8.58L859 281h-3c1.55-3.88 4-6.03 7.12-8.75l2.76-2.42z" fill="#E9E8EB"/><path d="M887 236h1c.35 4.86-.38 7.88-3 12-2.19 1.38-2.19 1.38-4 2 1.49-4.97 3.6-9.42 6-14" fill="#D2D2D3"/><path d="M372 330c-1.5 3.67-3.64 5.69-6.62 8.25l-2.48 2.14L361 342l-1-3q2.43-2.26 4.88-4.5l2.74-2.53C370 330 370 330 372 330" fill="#D4D4D7"/><path d="M661 259v1l-5.81 1.5-3.27.84C649 263 649 263 646 263l1-3c5.12-1.74 8.66-2.33 14-1" fill="#DCDCDE"/><path d="m848 524 3 1c1.85 4.72 2.2 8.08 1 13h-1q-.76-2.37-1.5-4.75l-.84-2.67C848 528 848 528 848 524" fill="#DBDEDF"/><path d="m233 611 2 1c-3.72 3.91-7.14 7.5-12 10 .35-2.9.89-3.9 3.07-5.92l2.49-1.83 2.51-1.86z" fill="#D9DAD9"/><path d="M243 328c5.44-.22 9.87-.1 15 2l-1 2-14-2z" fill="#E7E8E9"/><path d="m933 94 1 3q-2.4.76-4.81 1.5l-2.71.84C924 100 924 100 921 100v-2c4.02-1.81 7.61-3.34 12-4" fill="#ECEDEB"/><path d="M235 387c1.91 3.21 2.22 5.54 2.12 9.25l-.05 2.7L237 401l-2-1a48 48 0 0 1-1-12z" fill="#ECEFEC"/><path d="M847 638c1.32 3.95.3 5.35-1.31 9.12l-1.37 3.26C843 653 843 653 841 654l.94-3.19A99 99 0 0 0 844 642h2z" fill="#090B0C"/><path d="M814 301h4l.44 2.31C819 306 819 306 820 309l-3 1c-3-5.62-3-5.62-3-9" fill="#ECEFEF"/><path d="m491 571 2 1v3c-2.57 2.57-4.48 2.54-8 3l1-4h3v-2z" fill="#18181A"/><path d="m737.63 253.75 2.35-.02C742 254 742 254 744 256c-5.24.76-9.77 1.21-15 0a15 15 0 0 1 8.63-2.25" fill="#D3D4D5"/><path d="m293 699-2 3-6-1v2l-3 1v-2l-2-1c8.43-2.29 8.43-2.29 13-2" fill="#C4C6C6"/><path d="m604 522 2 1v2c-2.82 2.82-5.19 4.73-9 6 .39-2.8.8-3.82 2.94-5.75C602 524 602 524 604 524z" fill="#212222"/><path d="M292 477c3.59.39 6.7 1.59 10 3v1c-8.57.29-8.57.29-12-2z" fill="#C6B77F"/><path d="M366 456h3l1 3-2 3h-4c.88-4.88.88-4.88 2-6" fill="#F2D372"/><path d="M886 123c-1.49 3.8-3.76 5.61-7 8l-1-2c4.62-6 4.62-6 8-6" fill="#1D1F1E"/><path d="M602 277v2l-11 4c1-3 1-3 3.81-4.69C598 277 598 277 602 277" fill="#E2E1E4"/><path d="m631 268-11 3-1-2q1.86-.84 3.75-1.62l2.11-.92C627 266 627 266 631 268" fill="#E0E0E4"/><path d="M833 236h3c-1.49 3.8-3.76 5.61-7 8l-1-3h2l.94-1.94C832 237 832 237 833 236" fill="#DBDBDF"/><path d="M252 698c-1 2-1 2-2.69 2.75-3.14.34-5.4-.63-8.31-1.75v-1c3.98-1.05 6.98-.84 11 0" fill="#DDD"/><path d="M237 396h1q.33 2.9.62 5.81l.36 3.27C239 408 239 408 237 411c-1.33-10.56-1.33-10.56 0-15" fill="#D9DBD7"/><path d="m826 324 3 1a20 20 0 0 1 2 6l-2 3c-2.03-3.73-3-5.67-3-10" fill="#ECECEF"/><path d="M909 161c1.28 3.03.99 4.04-.25 7.19C907 171 907 171 904 172c.67-4.19 2.86-7.4 5-11" fill="#E3E4E5"/><path d="M1021 112h2v10l-3 1z" fill="#242523"/><path d="M270 641c-1.56 3.82-4.04 6.19-7 9l-1-4c5.75-5 5.75-5 8-5" fill="#E1E5E2"/><path d="M843 496c3 6 3 6 2.06 9.12L844 508h-1l-.56-5.44-.32-3.06-.12-2.5z" fill="#DEDEE0"/><path d="M370 461h2a37 37 0 0 1 3.12 4l1.64 2.25L378 469l-4-1v-2h-4z" fill="#E0C980"/><path d="M370 458h4v4h2l-1 4c-5-5.75-5-5.75-5-8" fill="#281E0D"/><path d="M400 442v3h-10v-2c6.62-1 6.62-1 10-1" fill="#070707"/><path d="m419 345 3 1v8l-3-1z" fill="#171917"/><path d="m680.69 254.44 3 .3 2.3.26v1l-13 1-1-2c3.32-1.1 5.26-.92 8.7-.56" fill="#D9D9DB"/><path d="M851 205h2v9l-4 2z" fill="#2F2F30"/><path d="M463 683c-2.37 2.19-3.52 2.99-6.8 3.07l-2.95-.38-2.98-.37L448 685v-1l4.69-.5 2.63-.28c2.58-.21 5.1-.26 7.68-.22" fill="#E2E3E2"/><path d="M255 588h2c-1.65 4.29-4.74 6.88-8 10l-2-1q1.93-2.26 3.88-4.5l2.17-2.53z" fill="#EAEBEB"/><path d="m263 579 1 3c-1.21 1.82-1.21 1.82-2.94 3.69l-1.71 1.88L258 589l-2-2z" fill="#E2E3E2"/><path d="m589 280 2 1-1 3c-3.06 1.19-3.06 1.19-6 2l-2-2 2.94-1.44C588 281 588 281 589 280" fill="#ECEAED"/><path d="m852 181 2 1-2 3zm-1 4c2 2 2 2 2 6h-3q-.06-2.5 0-5z" fill="#F3F4F5"/><path d="m864 145 3 1-4 8-3-2z" fill="#E3E3E5"/><path d="M327 606c0 4.39-2.13 5.77-5 9l-2-2z" fill="#18181D"/><path d="m960 136-4 4-6-2v-1c3.41-.78 6.51-1.1 10-1" fill="#E4E5E7"/><path d="M257 699c4.82-.24 8.46.55 13 2v1c-4.92.17-8.5.25-13-2z" fill="#2B2B2C"/><path d="m903 675-1 2c-3.38.75-3.38.75-7 1l-3-2 4.38-1.06 2.46-.6C901 674 901 674 903 675" fill="#E4E4E5"/><path d="m338 584 3 1-7 6-2-2c4.39-4 4.39-4 6-5" fill="#E1E1E4"/><path d="M285 470h3c1.12 3.75 1.12 3.75 0 6l-4-2z" fill="#EECD59"/><path d="M790 262v2c-3.37 1.5-5.2 2-9 2v-2c5.62-2 5.62-2 9-2" fill="#EBEBEE"/><path d="m890 230 3 1-4 8h-1c.88-7.88.88-7.88 2-9" fill="#EDEDEF"/><path d="m900 178 3 4c-2.75 3.88-2.75 3.88-5 5 .88-6.75.88-6.75 2-9" fill="#CED0CF"/><path d="M945 140c-4.58 2.99-4.58 2.99-7 4-2.44-.75-2.44-.75-4-2 7.43-3.57 7.43-3.57 11-2" fill="#D5D7D6"/><path d="m1002 93-2 2c-2.16-.02-2.16-.02-4.62-.38l-2.48-.33L991 94c4.18-2.79 6.15-1.8 11-1" fill="#D6D6D9"/><path d="m316 616 2 1-6 7-1-3z" fill="#1D1D22"/><path d="M320 466h2l-1 6h-3v-4h2z" fill="#281B0F"/><path d="M322 345v2l-9 1v-2c3.15-.7 5.73-1 9-1" fill="#EDEFEE"/><path d="m240 329 4 1-5 5-2-2z" fill="#DADBDA"/><path d="m272 647 2 1v3h-10v-1l3.44-.94C271 648 271 648 272 647" fill="#F2F3F4"/><path d="M288 552c-1.44 3.37-3.33 5.51-6 8 .38-2.78.67-4.59 2.44-6.81C286 552 286 552 288 552" fill="#DEDEDF"/><path d="M852 544h2l1 8-2 1z" fill="#2A2B2D"/><path d="M575 539v2a107 107 0 0 1-5 4l-2-4c4.75-2 4.75-2 7-2" fill="#1B2122"/><path d="M638 510c-.75 1.94-.75 1.94-2 4-2 .88-2 .88-4 1l-2-2c5.75-3 5.75-3 8-3" fill="#DCDCDD"/><path d="M249 475c1.95 2.92 2.45 4.63 3 8l-4-2z" fill="#D0D1D0"/><path d="m362 454 3 1-7 6v-3l4-2z" fill="#2D2113"/><path d="M439 362v3c-2.65 1.46-3.89 2-7 2v-2c4.38-3 4.38-3 7-3" fill="#EBEBED"/><path d="M423 345c1.98 2.92 1.99 4.12 1.62 7.75L424 356c-1.98-2.92-1.99-4.12-1.62-7.75z" fill="#D7D8D8"/><path d="m378 321 1 3-6 6-2-1z" fill="#E8E9EB"/><path d="m523 318-9 4v-3c3.81-1.8 4.71-2.07 9-1" fill="#DCDCDD"/><path d="M824 299c-1.12 1.56-1.12 1.56-3 3-3.19-.31-3.19-.31-6-1 5.57-3.71 5.57-3.71 9-2" fill="#D6D7D8"/><path d="m867 139 2 1-2 5h-3c1.88-4.88 1.88-4.88 3-6" fill="#EFEFF2"/><path d="m236 670 2 1-2 9h-1c-.12-7.75-.12-7.75 1-10" fill="#E2E4E2"/><path d="m378 643 2 1v2c-2.35 1.43-3.48 2.09-6.25 1.62L372 647z" fill="#1C201C"/><path d="m842 489 2 1c.62 3.06.62 3.06 1 6l-3 1z" fill="#F1F1F3"/><path d="m290 473 4 4-5 2-2-2 2-1z" fill="#D8C66B"/><path d="M369 453v3c-1.81 1.06-1.81 1.06-4 2l-3-1c4.75-4 4.75-4 7-4" fill="#D6C087"/><path d="M261 335c5.75 1.75 5.75 1.75 8 4-5.75.12-5.75.12-8-1z" fill="#151816"/><path d="M819 309a89 89 0 0 1 4 4v2l-3 1-2-6z" fill="#DFE0E1"/><path d="m1013 132 2 1c-1.69 2.06-1.69 2.06-4 4-2.75-.25-2.75-.25-5-1a41 41 0 0 1 7-4" fill="#D0D3D1"/><path d="m227 679 3 3-3 2-2-3z" fill="#D7D7DA"/></svg>