<svg style="background:transparent" version="1.1" xmlns="http://www.w3.org/2000/svg" viewBox="0 0 1248 704"><path d="M317 191c7.63 3.6 13.35 8.84 19.12 14.88l2.33 2.37q2.79 2.86 5.55 5.75l3-1c3.88 5.63 3.88 5.63 5 9l5 1v3a210 210 0 0 0 7.15 6.56c5.41 4.2 12.22 5.62 18.97 5.44 4.04 0 7.04.86 10.88 2q3 .06 6 0 2.5.46 5 1h3l1.81 1c2.81 1.28 5.13 1.07 8.19 1l1 1c5.8-.24 8.29-1.58 12.19-5.81l2.48-2.65L436 233l4-4 1.54-1.57a85 85 0 0 1 4.9-4.37 79 79 0 0 0 5.87-5.44C454 216 454 216 456 216l.62-1.81c1.9-3.02 4.18-3.72 7.38-5.19q2.04-1.44 4-3c5.58 5.26 12.96 12.42 13.56 20.31l.23 2.89a981 981 0 0 1 .82 18.45l.11 2.83.09 2.56C483 255 483 255 484 256q.32 3.62.5 7.25c.37 7.18.37 7.18 1.12 10.56.38 2.19.38 2.19-1.06 5L483 281l1.56 1.19L486 284c-.31 2.69-.31 2.69-1 5l3.38 1.75c3.1 1.61 4.27 3.01 5.62 6.25l3.14-.84 4.11-1.1 2.07-.55c5.38-1.44 5.38-1.44 7.91-2.05a56 56 0 0 0 12.02-4.65C525 287 525 287 529 287a88 88 0 0 0 4-2c2.54-.8 5.09-1.51 7.66-2.22C543 282 543 282 546 280l2.81-.44c3.19-.56 3.19-.56 6-2 3.45-1.69 6.47-2.28 10.24-2.84 1.95-.72 1.95-.72 3.22-2.79L569 270l2.25.12c2.96-.13 4.18-.76 6.75-2.12l7-2q3.45-1.19 6.88-2.44A567 567 0 0 1 608 258l2.2-.74a402 402 0 0 1 14.54-4.58q2.58-.79 5.14-1.68c4.97-1.59 10.05-2.76 15.12-4q3.76-.93 7.5-1.94c4.51-1.13 9.07-1.87 13.67-2.6q2.71-.44 5.41-.99c2.31-.45 4.58-.74 6.92-.97 3.22-.34 6.33-.85 9.5-1.5q4-.54 8-1l2.27-.29c3.57-.43 6.93-.71 10.54-.65 3.19-.06 3.19-.06 5.1-1.12 2.68-1.21 3.9-.81 6.71-.06a51 51 0 0 0 13.01 1.13c3.53-.01 6.87.49 10.37.99q2.4.33 4.81.62l2.21.29C753 239 753 239 756 238q2.54 1.43 5 3c2.86.84 5.76 1.31 8.69 1.81 4.44.87 8.24 2.3 12.3 4.29 2 .89 3.88 1.41 6.01 1.9a114 114 0 0 1 19 9l1.86.4c2.6.73 4.36 1.93 6.58 3.48q4.67 3.22 9.56 6.12c5.7 3.65 5.7 3.65 7.5 5.75 2.38 1.98 4.52 1.5 7.5 1.25l3-1c7.98-.07 15.33 2.43 22.81 4.94l3.35 1.09c12.98 4.26 12.98 4.26 17.46 7.22 3.28 2.11 6.63 3.98 10.07 5.81 3.74 2.02 7.23 3.96 10.31 6.94v2l1.7.75c8.96 4.88 16.94 14.07 21.3 23.25l1.84 3.64 2.1 4.17 1.05 2.08C945.48 356.78 947.31 377.8 946 401l-1 3q-.26 2.4-.44 4.81A41 41 0 0 1 942 420l-1.5 5.06c-1.01 3.4-2.15 6.66-3.5 9.94a111 111 0 0 0-4.46 15.75c-.56 2.32-1.3 4.5-2.1 6.75a44 44 0 0 0-2.23 11.75C928 471 928 471 927 472c-.77 9.69 2.29 17.25 8 25l4-1c2 3 2 3 2 7 5.73 5.58 12.33 9.05 20 11 10.72 3.02 21.51 6.09 28.2 15.73a17 17 0 0 1 1.57 11.16c-2.56 7.05-8.42 12.44-14.77 16.11l-3-1-2.7.92c-3.76 1.23-7.15 1.38-11.05 1.33l-2.14-.02c-9.59-.19-17.37-2.44-26.11-6.23l-2.01-.82A64 64 0 0 1 919 546l-2.31-1.31a76 76 0 0 1-17.57-15.29 100 100 0 0 0-5.62-5.84C891 521 891 521 890 518l-1.94-1.88c-2.26-2.32-3.02-4.07-4.06-7.12l-1-2.38c-4.02-10.56-5.35-20.95-5.31-32.18l-.05-3.25A46 46 0 0 1 881 453q1.18-4.25 2.25-8.52c.75-2.48.75-2.48 1.71-4.37a44 44 0 0 0 2.48-6.41l.77-2.46.79-2.55.79-2.52q2.2-7.05 4.21-14.17l1-3.44 1-3.56 1.05-3.68c1.09-4.39 1.25-8.56 1.2-13.07l.02-2.25c-.01-3.91-.34-6.61-2.27-10q-.01-3.63.22-7.25c-.27-4.61-1.66-7.66-3.78-11.69l-1.1-2.13c-4.61-8.66-10.35-14.35-18.34-19.93l-1.89-1.45c-3.31-2.51-5.92-4.17-10.11-4.55l1.38 3.31c4.72 12.63 4.8 26.57 4.81 39.88l.03 3.73c.01 6.12-.18 11.3-2.22 17.08a59 59 0 0 0-.56 4.19A58 58 0 0 1 863 405c-.5 3.94-.5 3.94-.72 5.9a67 67 0 0 1-2.84 12.04c-.92 2.96-1.44 5.07-1.44 8.18 0 3.47-1 5.89-2.34 9.05C855 442 855 442 855 445l-.94 1.75c-1.42 3.01-1.61 5.96-2.06 9.25l-1.06 3.12c-.93 2.86-1.1 4.9-.94 7.88 0 5.29-1.04 10.76-3.12 15.62-1.06 2.87-.91 5.39-.82 8.41C846 493 846 493 845 495.94c-1.14 3.48-1.12 6.28-.97 9.91-.03 2.15-.03 2.15-.59 4.3C843 512 843 512 844 514l-1 6q-.06 5 .04 9.99c.05 4.44-.35 8.63-1.04 13.01v3.19c0 2.81 0 2.81-.56 4.93-.44 1.88-.44 1.88.18 3.82.56 3.04-1.05 4.46-2.62 7.06q-.55 3.5-1 7-1.08 4.19-2.28 8.35c-.72 2.65-.72 2.65-1.16 5.18-.63 2.78-1.7 4.9-3.06 7.41A31 31 0 0 0 828 601a159 159 0 0 1-6 13 398 398 0 0 0-5.62 12.88C815 630 815 630 813 633c.38 3.69.38 3.69 1 7l2.37.12a147 147 0 0 1 24.07 3.63l3.57.82c23.76 5.56 23.76 5.56 31.99 14.43-.67 4.73-1.88 6.62-5.6 9.49-8.38 5.28-19.34 6.39-28.96 7.7l-3.42.5c-22 3.12-44.24 3.41-66.43 3.43h-2.6c-17.15 0-34.25-.58-51.38-1.3-63.27-2.64-126.63-3.59-189.84.91q-6.18.44-12.38.85a4012 4012 0 0 0-91.63 7.08l-10.11.9-16.03 1.44-2.78.25a1513 1513 0 0 0-34.22 3.44A351 351 0 0 1 326 696l-2.62.03c-14.37.06-25.99-2.58-38.38-10.03l-2.62-.5c-2.72-.57-3.64-1.4-5.38-3.5.69-1.94.69-1.94 2-4 2.31-.94 2.31-.94 5-1a48 48 0 0 1 5 3h3l-2.19-1.81c-4.73-4.76-8.07-11.82-8.25-18.57.41-3.36.94-5.62 2.44-8.62l1.19-2.88c4.13-7.12 9.82-11.95 17.81-14.12 3.41-.47 6.8-.9 10.24-1.14 6.22-.53 9.83-2.78 14.03-7.3l1.98-2.56 2.02-2.56A47 47 0 0 0 335 614q1.58-2.16 3.25-4.25l1.89-2.39L342 605c10.11-13.08 10.11-13.08 13.03-19.13.97-1.87.97-1.87 3.28-4.06 2.9-3.03 4.56-5.98 6.49-9.67 1.46-2.61 3.33-4.8 5.2-7.14l1-4 3-2c2.73-3.36 4-5.11 4-9.5 0-4.33 1.38-6.15 4-9.5l3 1 .88-2.44C387 536 387 536 389 535v-2c-3.83.55-5.37 2.28-8 5h-2l-.81 2.88C377 544 377 544 374 546l-2-1-.75 1.88c-1.49 2.52-2.69 2.84-5.25 4.12l-2 4a76 76 0 0 1-3 3.69l-1.56 1.82c-1.63 1.68-3.11 2.35-5.25 3.24-2.19 1.25-2.19 1.25-4.57 3.63-2.62 2.62-2.62 2.62-5.31 4.31-5.12 3.23-9.11 7.99-13.31 12.31l-2.59 2.55a131 131 0 0 0-7.66 8.68c-1.83 1.85-3.42 2.69-5.75 3.77-5.31 4.88-10 10.49-14.5 16.12a63 63 0 0 1-7.93 7.49c-1.82 1.61-3.14 3.44-4.57 5.39h-2l-.73 1.81c-2.3 3.96-6.46 5.82-10.27 8.19l-2.5 1.81c-3.75 1.78-7.42 1.98-11.5 2.19l-3.53.27c-8.92.39-15.43-.52-22.47-6.27-5.54-5.76-8.06-13.14-9-21 .97-9.11 5.59-15.67 12-22 5.17-4.08 11.78-4.83 18.19-5.38 6.56-1.07 9.98-4.42 13.81-9.62l5-6 2.19-2.88L279 567h2l.31-1.94.69-2.06 3-1 .75-2.56c1.49-4.11 3.71-6.32 6.64-9.48 2.01-2.45 2.68-4.96 3.61-7.96 2-1.12 2-1.12 4-2l2-4q1.64-2.22 3.38-4.38c2.72-3.44 5.23-6.93 7.62-10.62l3.06-4.62 1.48-2.23q1.45-2.13 3-4.19a64 64 0 0 0 3.71-5.65 85 85 0 0 1 6.13-8.62c3.32-4.19 6.16-8.58 8.98-13.11 1.41-2.22 2.89-4.34 4.45-6.46 1.93-2.75 3-5.02 4.19-8.12 2.07-3.28 4.3-6.42 6.56-9.56 1.97-2.74 3.75-5.52 5.44-8.44a96 96 0 0 1 5.56-8.56A40 40 0 0 0 370 434c-2.53-2.53-4.43-2.37-7.87-2.73-3.16-.4-6.09-1.34-9.13-2.27l-5.31-1.38c-12.76-3.5-25.64-8.93-35.69-17.62l-2.44-1.31c-3.23-2.13-5.37-4.74-7.85-7.69-1.48-1.73-3-3.31-4.65-4.88C295 394 295 394 295 392l-1.85-.78c-2.37-1.34-3.21-2.37-4.62-4.67l-1.29-2.07-1.3-2.17-1.32-2.1c-6.18-10.08-10.59-21.58-8.14-33.57.56-2.85.77-5.62.96-8.52A61 61 0 0 1 280 325v-3.56c0-3.66.85-5.99 2-9.44a142 142 0 0 0 .5-5.06c.31-3.71.98-6.53 2.5-9.94l.44-2.75a46 46 0 0 1 2.06-7.69c1.34-3.84 1.95-7.53 2.5-11.56l1.02-1.94c1.1-2.32 1.16-3.7 1.04-6.25-.1-3.99.22-7.78.72-11.74.22-2.07.22-2.07.22-5.45 0-2.62 0-2.62 1-5.62q.3-3.34.5-6.69c.26-3.98.53-7.92 1.06-11.87.44-3.44.44-3.44.44-6.19 0-2.25 0-2.25.49-4.13.52-2.15.58-4.04.63-6.24.62-6.01 3.87-10.51 7.88-14.88 4.25-2.94 6.79-3.77 12-3" fill="#111412"/><path d="M317 191c7.63 3.6 13.35 8.84 19.12 14.88l2.33 2.37q2.79 2.86 5.55 5.75l3-1c3.88 5.63 3.88 5.63 5 9l5 1v3a210 210 0 0 0 7.15 6.56c5.41 4.2 12.22 5.62 18.97 5.44 4.04 0 7.04.86 10.88 2q3 .06 6 0 2.5.46 5 1h3l1.81 1c2.81 1.28 5.13 1.07 8.19 1l1 1c5.8-.24 8.29-1.58 12.19-5.81l2.48-2.65L436 233l4-4 1.54-1.57a85 85 0 0 1 4.9-4.37 79 79 0 0 0 5.87-5.44C454 216 454 216 456 216l.62-1.81c1.9-3.02 4.18-3.72 7.38-5.19q2.04-1.44 4-3c5.58 5.26 12.96 12.42 13.56 20.31l.23 2.89a981 981 0 0 1 .82 18.45l.11 2.83.09 2.56C483 255 483 255 484 256q.32 3.62.5 7.25c.37 7.18.37 7.18 1.12 10.56.38 2.19.38 2.19-1.06 5L483 281l1.56 1.19L486 284c-.31 2.69-.31 2.69-1 5l3.38 1.75c3.1 1.61 4.27 3.01 5.62 6.25l3.14-.84 4.11-1.1 2.07-.55c5.38-1.44 5.38-1.44 7.91-2.05a56 56 0 0 0 12.02-4.65C525 287 525 287 529 287a88 88 0 0 0 4-2c2.54-.8 5.09-1.51 7.66-2.22C543 282 543 282 546 280l2.81-.44c3.19-.56 3.19-.56 6-2 3.45-1.69 6.47-2.28 10.24-2.84 1.95-.72 1.95-.72 3.22-2.79L569 270l2.25.12c2.96-.13 4.18-.76 6.75-2.12l7-2q3.45-1.19 6.88-2.44A567 567 0 0 1 608 258l2.2-.74a402 402 0 0 1 14.54-4.58q2.58-.79 5.14-1.68c4.97-1.59 10.05-2.76 15.12-4q3.76-.93 7.5-1.94c4.51-1.13 9.07-1.87 13.67-2.6q2.71-.44 5.41-.99c2.31-.45 4.58-.74 6.92-.97 3.22-.34 6.33-.85 9.5-1.5q4-.54 8-1l2.27-.29c3.57-.43 6.93-.71 10.54-.65 3.19-.06 3.19-.06 5.1-1.12 2.68-1.21 3.9-.81 6.71-.06a51 51 0 0 0 13.01 1.13c3.53-.01 6.87.49 10.37.99q2.4.33 4.81.62l2.21.29C753 239 753 239 756 238q2.54 1.43 5 3c2.86.84 5.76 1.31 8.69 1.81 4.44.87 8.24 2.3 12.3 4.29 2 .89 3.88 1.41 6.01 1.9a114 114 0 0 1 19 9l1.86.4c2.6.73 4.36 1.93 6.58 3.48q4.67 3.22 9.56 6.12c5.7 3.65 5.7 3.65 7.5 5.75 2.38 1.98 4.52 1.5 7.5 1.25l3-1c7.98-.07 15.33 2.43 22.81 4.94l3.35 1.09c12.98 4.26 12.98 4.26 17.46 7.22 3.28 2.11 6.63 3.98 10.07 5.81 3.74 2.02 7.23 3.96 10.31 6.94v2l1.7.75c8.96 4.88 16.94 14.07 21.3 23.25l1.84 3.64 2.1 4.17 1.05 2.08C945.48 356.78 947.31 377.8 946 401l-1 3q-.26 2.4-.44 4.81A41 41 0 0 1 942 420l-1.5 5.06c-1.01 3.4-2.15 6.66-3.5 9.94a111 111 0 0 0-4.46 15.75c-.56 2.32-1.3 4.5-2.1 6.75a44 44 0 0 0-2.23 11.75C928 471 928 471 927 472c-.77 9.69 2.29 17.25 8 25l4-1c2 3 2 3 2 7 5.73 5.58 12.33 9.05 20 11 10.72 3.02 21.51 6.09 28.2 15.73a17 17 0 0 1 1.57 11.16c-2.56 7.05-8.42 12.44-14.77 16.11l-3-1-2.7.92c-3.76 1.23-7.15 1.38-11.05 1.33l-2.14-.02c-9.59-.19-17.37-2.44-26.11-6.23l-2.01-.82A64 64 0 0 1 919 546l-2.31-1.31a76 76 0 0 1-17.57-15.29 100 100 0 0 0-5.62-5.84C891 521 891 521 890 518l-1.94-1.88c-2.26-2.32-3.02-4.07-4.06-7.12l-1-2.38c-4.02-10.56-5.35-20.95-5.31-32.18l-.05-3.25A46 46 0 0 1 881 453q1.18-4.25 2.25-8.52c.75-2.48.75-2.48 1.71-4.37a44 44 0 0 0 2.48-6.41l.77-2.46.79-2.55.79-2.52q2.2-7.05 4.21-14.17l1-3.44 1-3.56 1.05-3.68c1.09-4.39 1.25-8.56 1.2-13.07l.02-2.25c-.01-3.91-.34-6.61-2.27-10q-.01-3.63.22-7.25c-.27-4.61-1.66-7.66-3.78-11.69l-1.1-2.13c-4.61-8.66-10.35-14.35-18.34-19.93l-1.89-1.45c-3.31-2.51-5.92-4.17-10.11-4.55l1.38 3.31c4.72 12.63 4.8 26.57 4.81 39.88l.03 3.73c.01 6.12-.18 11.3-2.22 17.08a59 59 0 0 0-.56 4.19A58 58 0 0 1 863 405c-.5 3.94-.5 3.94-.72 5.9a67 67 0 0 1-2.84 12.04c-.92 2.96-1.44 5.07-1.44 8.18 0 3.47-1 5.89-2.34 9.05C855 442 855 442 855 445l-.94 1.75c-1.42 3.01-1.61 5.96-2.06 9.25l-1.06 3.12c-.93 2.86-1.1 4.9-.94 7.88 0 5.29-1.04 10.76-3.12 15.62-1.06 2.87-.91 5.39-.82 8.41C846 493 846 493 845 495.94c-1.14 3.48-1.12 6.28-.97 9.91-.03 2.15-.03 2.15-.59 4.3C843 512 843 512 844 514l-1 6q-.06 5 .04 9.99c.05 4.44-.35 8.63-1.04 13.01v3.19c0 2.81 0 2.81-.56 4.93-.44 1.88-.44 1.88.18 3.82.56 3.04-1.05 4.46-2.62 7.06q-.55 3.5-1 7-1.08 4.19-2.28 8.35c-.72 2.65-.72 2.65-1.16 5.18-.63 2.78-1.7 4.9-3.06 7.41A31 31 0 0 0 828 601a159 159 0 0 1-6 13 398 398 0 0 0-5.62 12.88C815 630 815 630 813 633c.38 3.69.38 3.69 1 7l2.37.12a147 147 0 0 1 24.07 3.63l3.57.82c23.76 5.56 23.76 5.56 31.99 14.43-.67 4.73-1.88 6.62-5.6 9.49-8.38 5.28-19.34 6.39-28.96 7.7l-3.42.5c-22 3.12-44.24 3.41-66.43 3.43h-2.6c-17.15 0-34.25-.58-51.38-1.3-63.27-2.64-126.63-3.59-189.84.91q-6.18.44-12.38.85a4012 4012 0 0 0-91.63 7.08l-10.11.9-16.03 1.44-2.78.25a1513 1513 0 0 0-34.22 3.44A351 351 0 0 1 326 696l-2.62.03c-14.37.06-25.99-2.58-38.38-10.03l-2.62-.5c-2.72-.57-3.64-1.4-5.38-3.5.69-1.94.69-1.94 2-4 2.31-.94 2.31-.94 5-1a48 48 0 0 1 5 3h3l-2.19-1.81c-4.73-4.76-8.07-11.82-8.25-18.57.41-3.36.94-5.62 2.44-8.62l1.19-2.88c4.13-7.12 9.82-11.95 17.81-14.12 3.41-.47 6.8-.9 10.24-1.14 6.22-.53 9.83-2.78 14.03-7.3l1.98-2.56 2.02-2.56A47 47 0 0 0 335 614q1.58-2.16 3.25-4.25l1.89-2.39L342 605c10.11-13.08 10.11-13.08 13.03-19.13.97-1.87.97-1.87 3.28-4.06 2.9-3.03 4.56-5.98 6.49-9.67 1.46-2.61 3.33-4.8 5.2-7.14l1-4 3-2c2.73-3.36 4-5.11 4-9.5 0-4.33 1.38-6.15 4-9.5l3 1 .88-2.44C387 536 387 536 389 535v-2c-3.83.55-5.37 2.28-8 5h-2l-.81 2.88C377 544 377 544 374 546l-2-1-.75 1.88c-1.49 2.52-2.69 2.84-5.25 4.12l-2 4a76 76 0 0 1-3 3.69l-1.56 1.82c-1.63 1.68-3.11 2.35-5.25 3.24-2.19 1.25-2.19 1.25-4.57 3.63-2.62 2.62-2.62 2.62-5.31 4.31-5.12 3.23-9.11 7.99-13.31 12.31l-2.59 2.55a131 131 0 0 0-7.66 8.68c-1.83 1.85-3.42 2.69-5.75 3.77-5.31 4.88-10 10.49-14.5 16.12a63 63 0 0 1-7.93 7.49c-1.82 1.61-3.14 3.44-4.57 5.39h-2l-.73 1.81c-2.3 3.96-6.46 5.82-10.27 8.19l-2.5 1.81c-3.75 1.78-7.42 1.98-11.5 2.19l-3.53.27c-8.92.39-15.43-.52-22.47-6.27-5.54-5.76-8.06-13.14-9-21 .97-9.11 5.59-15.67 12-22 5.17-4.08 11.78-4.83 18.19-5.38 6.56-1.07 9.98-4.42 13.81-9.62l5-6 2.19-2.88L279 567h2l.31-1.94.69-2.06 3-1 .75-2.56c1.49-4.11 3.71-6.32 6.64-9.48 2.01-2.45 2.68-4.96 3.61-7.96 2-1.12 2-1.12 4-2l2-4q1.64-2.22 3.38-4.38c2.72-3.44 5.23-6.93 7.62-10.62l3.06-4.62 1.48-2.23q1.45-2.13 3-4.19a64 64 0 0 0 3.71-5.65 85 85 0 0 1 6.13-8.62c3.32-4.19 6.16-8.58 8.98-13.11 1.41-2.22 2.89-4.34 4.45-6.46 1.93-2.75 3-5.02 4.19-8.12 2.07-3.28 4.3-6.42 6.56-9.56 1.97-2.74 3.75-5.52 5.44-8.44a96 96 0 0 1 5.56-8.56A40 40 0 0 0 370 434c-2.53-2.53-4.43-2.37-7.87-2.73-3.16-.4-6.09-1.34-9.13-2.27l-5.31-1.38c-12.76-3.5-25.64-8.93-35.69-17.62l-2.44-1.31c-3.23-2.13-5.37-4.74-7.85-7.69-1.48-1.73-3-3.31-4.65-4.88C295 394 295 394 295 392l-1.85-.78c-2.37-1.34-3.21-2.37-4.62-4.67l-1.29-2.07-1.3-2.17-1.32-2.1c-6.18-10.08-10.59-21.58-8.14-33.57.56-2.85.77-5.62.96-8.52A61 61 0 0 1 280 325v-3.56c0-3.66.85-5.99 2-9.44a142 142 0 0 0 .5-5.06c.31-3.71.98-6.53 2.5-9.94l.44-2.75a46 46 0 0 1 2.06-7.69c1.34-3.84 1.95-7.53 2.5-11.56l1.02-1.94c1.1-2.32 1.16-3.7 1.04-6.25-.1-3.99.22-7.78.72-11.74.22-2.07.22-2.07.22-5.45 0-2.62 0-2.62 1-5.62q.3-3.34.5-6.69c.26-3.98.53-7.92 1.06-11.87.44-3.44.44-3.44.44-6.19 0-2.25 0-2.25.49-4.13.52-2.15.58-4.04.63-6.24.62-6.01 3.87-10.51 7.88-14.88 4.25-2.94 6.79-3.77 12-3m-12 5.69c-3.78 6.25-4.6 11.77-5.38 18.93l-.38 3.37a637 637 0 0 0-2.04 22.27c-1.38 17.71-2.94 34.5-8.19 51.53a198 198 0 0 0-5.95 25.9l-.6 3.6c-6.27 38.92-6.27 38.92 2.54 53.71l1.5 2.7c15.7 26.47 40.2 40.79 69.38 48.56 6.67 1.58 13.22 3.11 20.12 2.74-2.3 3.91-4.77 7.68-7.31 11.44a930 930 0 0 0-12.69 19.5l-1.82 2.85q-4.01 6.33-7.95 12.68a347 347 0 0 1-14.67 21.98 508 508 0 0 0-8 11.43l-1.38 2.01q-3.5 5.08-6.93 10.19a312 312 0 0 1-15.06 20.56 243 243 0 0 0-10.07 13.8c-5.39 7.79-11.36 14.91-17.7 21.94q-2.08 2.4-4.08 4.91c-4.57 5.29-9.53 6.71-16.34 7.65-7.79 1.15-12.55 3.9-17.38 10.12A87 87 0 0 0 232 605l-1.14 1.82c-2.2 5.56-1.71 12.96-.21 18.66 2.56 5.68 6.98 9.29 12.07 12.66 9.69 3.66 23.24.93 32.28-3.14 5.82-3.38 10.37-8.18 15-13l5-5 2.5-2.5 9.79-9.79 6.64-6.67 4.38-4.42 2.19-2.21c3.35-3.36 6.71-6.64 10.32-9.73 5.52-4.75 10.57-10 15.68-15.18 6.31-6.4 12.61-12.72 19.5-18.5l2.29-1.93 1.77-1.51a65 65 0 0 0 7.19-7.31c3.37-3.97 7.12-7.42 10.98-10.89 6.7-6.05 13.01-12.5 19.31-18.96A91 91 0 0 1 415 501a2915 2915 0 0 1-17.36 26.79l-3.62 5.53a2669 2669 0 0 1-13.26 20.04l-4.41 6.67a345 345 0 0 1-14.08 19.89 219 219 0 0 0-7.08 10.33 378 378 0 0 1-15.63 21.68 519 519 0 0 0-4.81 6.5l-1.62 2.19-3.03 4.15c-3.38 4.57-6.55 8.38-12.1 10.23q-3.32.15-6.62.25c-8.94.62-14.27 3.2-20.32 9.75-5.13 6.02-5.62 11.74-5.51 19.48.84 6.62 4.52 10.95 9.33 15.33 7.69 5.39 14.07 7.37 23.37 7.38l2.53.03c17.8.05 30.41-11.71 42.87-23.09q2.97-2.68 6.04-5.25c4.85-4.22 9.3-8.84 13.82-13.41 3.66-3.68 7.37-7.19 11.34-10.54 3.82-3.43 7.38-7.15 11-10.8 3.68-3.71 7.44-7.25 11.43-10.63 2.4-2.1 4.61-4.38 6.85-6.66 1.8-1.78 3.67-3.44 5.59-5.09 4.18-3.64 8.24-7.39 12.28-11.19l2.12-1.99q6.2-5.83 12.17-11.89c1.8-1.77 3.67-3.41 5.59-5.06a182 182 0 0 0 19.48-19.77 91 91 0 0 1 5.02-5.16c5.42-5.33 10.08-11.38 14.7-17.4 2.35-2.81 3.99-4.16 7.66-4.68l3.57-.3c20.74-2.29 40.81-8.42 60.57-14.87l2.53-.83a640 640 0 0 0 29.19-10.33q4.6-1.72 9.28-3.22c6.6-2.16 13.04-4.72 19.51-7.26a768 768 0 0 1 13.11-4.99 590 590 0 0 0 15.3-5.93q5.08-2 10.2-3.88l.19 3.44c4.58 39.01 28.67 74.81 55.9 101.62 11.35 11.18 19.54 22.47 20.47 38.69l.13 2.11.31 5.14-3.22-.07c-7.82.14-13.48 2.8-19.12 8.19-4.59 5.18-5.21 10.63-5.01 17.29.66 4.83 3.08 7.47 6.63 10.59a35 35 0 0 0 8.6 4.56l2.99 1.19L743 667l3.29 1.62c4.56 1.7 8.39 1.88 13.21 1.82l2.66-.03c11.6-.29 23.79-2.67 32.84-10.41a83 83 0 0 0 8-11l1.46-2.32c2.78-4.7 4.62-9.51 6.4-14.65 1.24-3.31 2.72-6.42 4.26-9.59 8.35-17.42 14.85-35.81 19.88-54.44l.54-1.96c4.63-17.4 4.87-35.74 5.25-53.64.26-10.69.63-21.31 2.96-31.78l1.08-5.09.57-2.69q.95-4.56 1.83-9.15c3.55-18.28 3.55-18.28 5.71-25.88 3.47-12.41 5.68-25.16 8.06-37.81l.56-2.92c4.1-21.7 7.4-55.64-5.56-75.08 19.28 9.67 33.59 20.36 42 41 8.62 26.14-1 50.9-9.72 75.52-4.24 11.99-7.84 23.11-7.59 35.98l.04 3.05c.43 21.63 8.31 39.73 23.77 55.07a84.6 84.6 0 0 0 59.45 22.65c8.74-.41 15.21-3.74 21.59-9.59 2.33-2.69 2.7-5.49 2.9-8.93l.18-2.2c-1.02-4.18-3.37-6.79-6.62-9.55a74 74 0 0 0-10.69-4.69l-2.82-1.1a327 327 0 0 0-11.45-4.24c-12.71-4.43-22.68-12.15-28.92-24.22-4.94-10.28-4.58-22.58-.93-33.25l2.11-5.59c1.21-3.3 2.17-6.66 3.14-10.03l.61-2.12 1.26-4.4q1.11-3.81 2.27-7.61c9.44-31.62 9.73-63.58-4.58-93.75l-1.4-3.04c-13.01-26.06-40.37-41.45-66.98-50.46-6.94-2.25-13.35-2.81-20.62-2.88-7.8-.09-12.21-.96-18.26-6.25C812.06 260.4 795.49 254.72 780 249l-2.23-.86c-43.82-16.72-102.47-9.82-146.02 4.98l-5.5 1.81-2.97.99q-5.6 1.83-11.22 3.62l-6.25 1.99-4.06 1.29-5.77 1.85-3.35 1.07c-3.73 1.3-7.39 2.74-11.05 4.22-4.06 1.64-8.16 3.19-12.25 4.75l-2.68 1.03-5.58 2.12-8.4 3.21c-9.85 3.76-19.72 7.45-29.67 10.93l-2.17.77C506.9 297.68 492.6 301.71 478 304l.43-2.88c1.46-10.28 1.85-20.32 1.76-30.68l-.03-4.75q-.05-6.85-.16-13.69l-.06-3.71q-.1-4.68-.25-9.35l-.07-2.62c-.33-7.52-1.22-16.22-6.43-22.01-3.65-2.65-4.81-2.78-9.19-2.31-10.27 5.17-18.83 15.08-27 23l-1.79 1.72c-6.78 6.55-6.78 6.55-9.21 9.28v2l-1.72-.32a1540 1540 0 0 0-32.57-5.76 72 72 0 0 0-10.84-1.01c-10.17-.09-14.73-2.82-21.87-9.91l-4.88-4.25a166 166 0 0 1-13.43-13.63c-16.35-18.23-16.35-18.23-24.9-19.43-7.9-.39-7.9-.39-10.79 3" fill="#EEEFEE"/><path d="M312.56 193.5c7.77.17 12.71 4.65 18 9.94l1.68 1.77a89 89 0 0 0 5.94 5.41c3 2.58 5.42 5.23 7.82 8.38q5.01 5.11 10.31 9.94l2.68 2.46L362 234l1.77 1.61c5.35 4.51 9.66 5.32 16.54 5.58q2.93.18 5.87.39l2.95.19c4.31.34 8.55.97 12.81 1.67l2.32.38A552 552 0 0 1 426 248l.76-1.74c1.41-2.57 3.02-4.28 5.1-6.34l2.32-2.33 2.44-2.4 2.37-2.37c6.37-6.32 12.87-12.47 20.13-17.76l2.4-1.77c3.1-1.61 5.01-1.77 8.48-1.29 2.04 1.43 2.04 1.43 3.75 3.44l1.73 1.93c3.73 6.47 3.9 14.14 4.14 21.44l.11 2.91c.3 8.78.4 17.57.44 26.36l.04 4.64c.08 10.59-.65 20.81-2.2 31.28h-1l-.22 2.11q-1.03 10.16-2.1 20.32-.7 6.62-1.32 13.24c-4.52 47.68-4.52 47.68-17.37 61.33l-1.52 1.62A124 124 0 0 1 451 406l-1 2h-2l-.72 1.81c-3.78 6.46-14.37 10.13-21.28 12.19h-4v2c-14.3 5.27-29.86 6.11-45 6l-1 2v-2l-1.8-.08c-26.87-1.75-55.38-12.8-73.83-32.73-15.19-17.57-21.39-32.06-20.37-55.19.9-11.83 2.96-23.51 5.31-35.12l.53-2.67c1-4.63 2.12-9.15 3.57-13.65 4.66-14.67 6.16-29.01 7.27-44.31 4.04-52.31 4.04-52.31 15.88-52.75" fill="#121313"/><path d="M317 191c7.63 3.6 13.35 8.84 19.12 14.88l2.33 2.37q2.79 2.86 5.55 5.75l3-1c3.88 5.63 3.88 5.63 5 9l5 1v3a210 210 0 0 0 7.15 6.56c5.41 4.2 12.22 5.62 18.97 5.44 4.04 0 7.04.86 10.88 2q3 .06 6 0 2.5.46 5 1h3l1.81 1c2.81 1.28 5.13 1.07 8.19 1l1 1c5.8-.24 8.29-1.58 12.19-5.81l2.48-2.65L436 233l4-4 1.54-1.57a85 85 0 0 1 4.9-4.37 79 79 0 0 0 5.87-5.44C454 216 454 216 456 216l.62-1.81c1.9-3.02 4.18-3.72 7.38-5.19q2.04-1.44 4-3c5.58 5.26 12.96 12.42 13.56 20.31l.23 2.89a981 981 0 0 1 .82 18.45l.11 2.83.09 2.56C483 255 483 255 484 256q.32 3.62.5 7.25c.37 7.18.37 7.18 1.12 10.56.38 2.19.38 2.19-1.06 5L483 281l1.56 1.19L486 284c-.31 2.69-.31 2.69-1 5l3.38 1.75c3.1 1.61 4.27 3.01 5.62 6.25l3.14-.84 4.11-1.1 2.07-.55c5.38-1.44 5.38-1.44 7.91-2.05a56 56 0 0 0 12.02-4.65C525 287 525 287 529 287a88 88 0 0 0 4-2c2.54-.8 5.09-1.51 7.66-2.22C543 282 543 282 546 280l2.81-.44c3.19-.56 3.19-.56 6-2 3.45-1.69 6.47-2.28 10.24-2.84 1.95-.72 1.95-.72 3.22-2.79L569 270l2.25.12c2.96-.13 4.18-.76 6.75-2.12l7-2q3.45-1.19 6.88-2.44A567 567 0 0 1 608 258l2.2-.74a402 402 0 0 1 14.54-4.58q2.58-.79 5.14-1.68c4.97-1.59 10.05-2.76 15.12-4q3.76-.93 7.5-1.94c4.51-1.13 9.07-1.87 13.67-2.6q2.71-.44 5.41-.99c2.31-.45 4.58-.74 6.92-.97 3.22-.34 6.33-.85 9.5-1.5q4-.54 8-1l2.27-.29c3.57-.43 6.93-.71 10.54-.65 3.19-.06 3.19-.06 5.1-1.12 2.68-1.21 3.9-.81 6.71-.06a51 51 0 0 0 13.01 1.13c3.53-.01 6.87.49 10.37.99q2.4.33 4.81.62l2.21.29C753 239 753 239 756 238q2.54 1.43 5 3c2.86.84 5.76 1.31 8.69 1.81 4.44.87 8.24 2.3 12.3 4.29 2 .89 3.88 1.41 6.01 1.9a114 114 0 0 1 19 9l1.86.4c2.6.73 4.36 1.93 6.58 3.48q4.67 3.22 9.56 6.12c5.7 3.65 5.7 3.65 7.5 5.75 2.38 1.98 4.52 1.5 7.5 1.25l3-1c7.98-.07 15.33 2.43 22.81 4.94l3.35 1.09c12.98 4.26 12.98 4.26 17.46 7.22 3.28 2.11 6.63 3.98 10.07 5.81 3.74 2.02 7.23 3.96 10.31 6.94v2l1.7.75c8.96 4.88 16.94 14.07 21.3 23.25l1.84 3.64 2.1 4.17 1.05 2.08C945.48 356.78 947.31 377.8 946 401l-1 3q-.26 2.4-.44 4.81A41 41 0 0 1 942 420l-1.5 5.06c-1.01 3.4-2.15 6.66-3.5 9.94a111 111 0 0 0-4.46 15.75c-.56 2.32-1.3 4.5-2.1 6.75a44 44 0 0 0-2.23 11.75C928 471 928 471 927 472c-.77 9.69 2.29 17.25 8 25l4-1c2 3 2 3 2 7 5.73 5.58 12.33 9.05 20 11 10.72 3.02 21.51 6.09 28.2 15.73a17 17 0 0 1 1.57 11.16c-2.56 7.05-8.42 12.44-14.77 16.11l-3-1-2.7.92c-3.76 1.23-7.15 1.38-11.05 1.33l-2.14-.02c-9.59-.19-17.37-2.44-26.11-6.23l-2.01-.82A64 64 0 0 1 919 546l-2.31-1.31a76 76 0 0 1-17.57-15.29 100 100 0 0 0-5.62-5.84C891 521 891 521 890 518l-1.94-1.88c-2.26-2.32-3.02-4.07-4.06-7.12l-1-2.38c-4.02-10.56-5.35-20.95-5.31-32.18l-.05-3.25A46 46 0 0 1 881 453q1.18-4.25 2.25-8.52c.75-2.48.75-2.48 1.71-4.37a44 44 0 0 0 2.48-6.41l.77-2.46.79-2.55.79-2.52q2.2-7.05 4.21-14.17l1-3.44 1-3.56 1.05-3.68c1.09-4.39 1.25-8.56 1.2-13.07l.02-2.25c-.01-3.91-.34-6.61-2.27-10q-.01-3.63.22-7.25c-.27-4.61-1.66-7.66-3.78-11.69l-1.1-2.13c-4.61-8.66-10.35-14.35-18.34-19.93l-1.89-1.45c-3.31-2.51-5.92-4.17-10.11-4.55l1.38 3.31c4.72 12.63 4.8 26.57 4.81 39.88l.03 3.73c.01 6.12-.18 11.3-2.22 17.08a59 59 0 0 0-.56 4.19A58 58 0 0 1 863 405c-.5 3.94-.5 3.94-.72 5.9a67 67 0 0 1-2.84 12.04c-.92 2.96-1.44 5.07-1.44 8.18 0 3.47-1 5.89-2.34 9.05C855 442 855 442 855 445l-.94 1.75c-1.42 3.01-1.61 5.96-2.06 9.25l-1.06 3.12c-.93 2.86-1.1 4.9-.94 7.88 0 5.29-1.04 10.76-3.12 15.62-1.06 2.87-.91 5.39-.82 8.41C846 493 846 493 845 495.94c-1.14 3.48-1.12 6.28-.97 9.91-.03 2.15-.03 2.15-.59 4.3C843 512 843 512 844 514l-1 6q-.06 5 .04 9.99c.05 4.44-.35 8.63-1.04 13.01v3.19c0 2.81 0 2.81-.56 4.93-.44 1.88-.44 1.88.18 3.82.56 3.04-1.05 4.46-2.62 7.06q-.55 3.5-1 7-1.08 4.19-2.28 8.35c-.72 2.65-.72 2.65-1.16 5.18-.63 2.78-1.7 4.9-3.06 7.41A31 31 0 0 0 828 601a159 159 0 0 1-6 13 398 398 0 0 0-5.62 12.88C815 630 815 630 813 633c.38 3.69.38 3.69 1 7l2.37.12a147 147 0 0 1 24.07 3.63l3.57.82c23.76 5.56 23.76 5.56 31.99 14.43-.67 4.73-1.88 6.62-5.6 9.49-8.38 5.28-19.34 6.39-28.96 7.7l-3.42.5c-22 3.12-44.24 3.41-66.43 3.43h-2.6c-17.15 0-34.25-.58-51.38-1.3-63.27-2.64-126.63-3.59-189.84.91q-6.18.44-12.38.85a4012 4012 0 0 0-91.63 7.08l-10.11.9-16.03 1.44-2.78.25a1513 1513 0 0 0-34.22 3.44A351 351 0 0 1 326 696l-2.62.03c-14.37.06-25.99-2.58-38.38-10.03l-2.62-.5c-2.72-.57-3.64-1.4-5.38-3.5.69-1.94.69-1.94 2-4 2.31-.94 2.31-.94 5-1a48 48 0 0 1 5 3h3l-2.19-1.81c-4.73-4.76-8.07-11.82-8.25-18.57.41-3.36.94-5.62 2.44-8.62l1.19-2.88c4.13-7.12 9.82-11.95 17.81-14.12 3.41-.47 6.8-.9 10.24-1.14 6.22-.53 9.83-2.78 14.03-7.3l1.98-2.56 2.02-2.56A47 47 0 0 0 335 614q1.58-2.16 3.25-4.25l1.89-2.39L342 605c10.11-13.08 10.11-13.08 13.03-19.13.97-1.87.97-1.87 3.28-4.06 2.9-3.03 4.56-5.98 6.49-9.67 1.46-2.61 3.33-4.8 5.2-7.14l1-4 3-2c2.73-3.36 4-5.11 4-9.5 0-4.33 1.38-6.15 4-9.5l3 1 .88-2.44C387 536 387 536 389 535v-2c-3.83.55-5.37 2.28-8 5h-2l-.81 2.88C377 544 377 544 374 546l-2-1-.75 1.88c-1.49 2.52-2.69 2.84-5.25 4.12l-2 4a76 76 0 0 1-3 3.69l-1.56 1.82c-1.63 1.68-3.11 2.35-5.25 3.24-2.19 1.25-2.19 1.25-4.57 3.63-2.62 2.62-2.62 2.62-5.31 4.31-5.12 3.23-9.11 7.99-13.31 12.31l-2.59 2.55a131 131 0 0 0-7.66 8.68c-1.83 1.85-3.42 2.69-5.75 3.77-5.31 4.88-10 10.49-14.5 16.12a63 63 0 0 1-7.93 7.49c-1.82 1.61-3.14 3.44-4.57 5.39h-2l-.73 1.81c-2.3 3.96-6.46 5.82-10.27 8.19l-2.5 1.81c-3.75 1.78-7.42 1.98-11.5 2.19l-3.53.27c-8.92.39-15.43-.52-22.47-6.27-5.54-5.76-8.06-13.14-9-21 .97-9.11 5.59-15.67 12-22 5.17-4.08 11.78-4.83 18.19-5.38 6.56-1.07 9.98-4.42 13.81-9.62l5-6 2.19-2.88L279 567h2l.31-1.94.69-2.06 3-1 .75-2.56c1.49-4.11 3.71-6.32 6.64-9.48 2.01-2.45 2.68-4.96 3.61-7.96 2-1.12 2-1.12 4-2l2-4q1.64-2.22 3.38-4.38c2.72-3.44 5.23-6.93 7.62-10.62l3.06-4.62 1.48-2.23q1.45-2.13 3-4.19a64 64 0 0 0 3.71-5.65 85 85 0 0 1 6.13-8.62c3.32-4.19 6.16-8.58 8.98-13.11 1.41-2.22 2.89-4.34 4.45-6.46 1.93-2.75 3-5.02 4.19-8.12 2.07-3.28 4.3-6.42 6.56-9.56 1.97-2.74 3.75-5.52 5.44-8.44a96 96 0 0 1 5.56-8.56A40 40 0 0 0 370 434c-2.53-2.53-4.43-2.37-7.87-2.73-3.16-.4-6.09-1.34-9.13-2.27l-5.31-1.38c-12.76-3.5-25.64-8.93-35.69-17.62l-2.44-1.31c-3.23-2.13-5.37-4.74-7.85-7.69-1.48-1.73-3-3.31-4.65-4.88C295 394 295 394 295 392l-1.85-.78c-2.37-1.34-3.21-2.37-4.62-4.67l-1.29-2.07-1.3-2.17-1.32-2.1c-6.18-10.08-10.59-21.58-8.14-33.57.56-2.85.77-5.62.96-8.52A61 61 0 0 1 280 325v-3.56c0-3.66.85-5.99 2-9.44a142 142 0 0 0 .5-5.06c.31-3.71.98-6.53 2.5-9.94l.44-2.75a46 46 0 0 1 2.06-7.69c1.34-3.84 1.95-7.53 2.5-11.56l1.02-1.94c1.1-2.32 1.16-3.7 1.04-6.25-.1-3.99.22-7.78.72-11.74.22-2.07.22-2.07.22-5.45 0-2.62 0-2.62 1-5.62q.3-3.34.5-6.69c.26-3.98.53-7.92 1.06-11.87.44-3.44.44-3.44.44-6.19 0-2.25 0-2.25.49-4.13.52-2.15.58-4.04.63-6.24.62-6.01 3.87-10.51 7.88-14.88 4.25-2.94 6.79-3.77 12-3m-12 5.69c-3.78 6.25-4.6 11.77-5.38 18.93l-.38 3.37a637 637 0 0 0-2.04 22.27c-1.38 17.71-2.94 34.5-8.19 51.53a198 198 0 0 0-5.95 25.9l-.6 3.6c-6.27 38.92-6.27 38.92 2.54 53.71l1.5 2.7c15.7 26.47 40.2 40.79 69.38 48.56 6.67 1.58 13.22 3.11 20.12 2.74-2.3 3.91-4.77 7.68-7.31 11.44a930 930 0 0 0-12.69 19.5l-1.82 2.85q-4.01 6.33-7.95 12.68a347 347 0 0 1-14.67 21.98 508 508 0 0 0-8 11.43l-1.38 2.01q-3.5 5.08-6.93 10.19a312 312 0 0 1-15.06 20.56 243 243 0 0 0-10.07 13.8c-5.39 7.79-11.36 14.91-17.7 21.94q-2.08 2.4-4.08 4.91c-4.57 5.29-9.53 6.71-16.34 7.65-7.79 1.15-12.55 3.9-17.38 10.12A87 87 0 0 0 232 605l-1.14 1.82c-2.2 5.56-1.71 12.96-.21 18.66 2.56 5.68 6.98 9.29 12.07 12.66 9.69 3.66 23.24.93 32.28-3.14 5.82-3.38 10.37-8.18 15-13l5-5 2.5-2.5 9.79-9.79 6.64-6.67 4.38-4.42 2.19-2.21c3.35-3.36 6.71-6.64 10.32-9.73 5.52-4.75 10.57-10 15.68-15.18 6.31-6.4 12.61-12.72 19.5-18.5l2.29-1.93 1.77-1.51a65 65 0 0 0 7.19-7.31c3.37-3.97 7.12-7.42 10.98-10.89 6.7-6.05 13.01-12.5 19.31-18.96A91 91 0 0 1 415 501a2915 2915 0 0 1-17.36 26.79l-3.62 5.53a2669 2669 0 0 1-13.26 20.04l-4.41 6.67a345 345 0 0 1-14.08 19.89 219 219 0 0 0-7.08 10.33 378 378 0 0 1-15.63 21.68 519 519 0 0 0-4.81 6.5l-1.62 2.19-3.03 4.15c-3.38 4.57-6.55 8.38-12.1 10.23q-3.32.15-6.62.25c-8.94.62-14.27 3.2-20.32 9.75-5.13 6.02-5.62 11.74-5.51 19.48.84 6.62 4.52 10.95 9.33 15.33 7.69 5.39 14.07 7.37 23.37 7.38l2.53.03c17.8.05 30.37-11.7 42.84-23.06q4.2-3.83 8.55-7.53c1.83-1.63 1.83-1.63 3.32-3.29 5.68-5.98 13.74-6.27 21.51-7.34l3.45-.52q3.29-.48 6.59-.92 4.03-.56 8.06-1.21c14.58-2.31 29.22-3.88 43.9-5.41l7.31-.78 17.58-1.83 8.27-.9c14.82-1.63 29.69-2.39 44.59-3.05l2.17-.1c31.17-1.42 62.33-1.55 93.52-1.53h3.5q10.08 0 20.17.04l6.18.01c10.24.03 20.4.2 30.62.98 3.79.27 7.53.33 11.34.32l2.02-.01 6.17-.03 4.27-.01L727 631v-2h2l-1.28 1.86-1.66 2.45-1.65 2.43c-3.16 5.07-3.01 10.47-2.41 16.26 3.21 6.54 8.22 9.94 14.88 12.56l2.99 1.19L743 667l3.29 1.62c4.56 1.7 8.39 1.88 13.21 1.82l2.66-.03c11.6-.29 23.79-2.67 32.84-10.41a83 83 0 0 0 8-11l1.46-2.32c2.78-4.7 4.62-9.51 6.4-14.65 1.24-3.31 2.72-6.42 4.26-9.59 8.35-17.42 14.85-35.81 19.88-54.44l.54-1.96c4.63-17.4 4.87-35.74 5.25-53.64.26-10.69.63-21.31 2.96-31.78l1.08-5.09.57-2.69q.95-4.56 1.83-9.15c3.55-18.28 3.55-18.28 5.71-25.88 3.47-12.41 5.68-25.16 8.06-37.81l.56-2.92c4.1-21.7 7.4-55.64-5.56-75.08 19.28 9.67 33.59 20.36 42 41 8.62 26.14-1 50.9-9.72 75.52-4.24 11.99-7.84 23.11-7.59 35.98l.04 3.05c.43 21.63 8.31 39.73 23.77 55.07a84.6 84.6 0 0 0 59.45 22.65c8.74-.41 15.21-3.74 21.59-9.59 2.33-2.69 2.7-5.49 2.9-8.93l.18-2.2c-1.02-4.18-3.37-6.79-6.62-9.55a74 74 0 0 0-10.69-4.69l-2.82-1.1a327 327 0 0 0-11.45-4.24c-12.71-4.43-22.68-12.15-28.92-24.22-4.94-10.28-4.58-22.58-.93-33.25l2.11-5.59c1.21-3.3 2.17-6.66 3.14-10.03l.61-2.12 1.26-4.4q1.11-3.81 2.27-7.61c9.44-31.62 9.73-63.58-4.58-93.75l-1.4-3.04c-13.01-26.06-40.37-41.45-66.98-50.46-6.94-2.25-13.35-2.81-20.62-2.88-7.8-.09-12.21-.96-18.26-6.25C812.06 260.4 795.49 254.72 780 249l-2.23-.86c-43.82-16.72-102.47-9.82-146.02 4.98l-5.5 1.81-2.97.99q-5.6 1.83-11.22 3.62l-6.25 1.99-4.06 1.29-5.77 1.85-3.35 1.07c-3.73 1.3-7.39 2.74-11.05 4.22-4.06 1.64-8.16 3.19-12.25 4.75l-2.68 1.03-5.58 2.12-8.4 3.21c-9.85 3.76-19.72 7.45-29.67 10.93l-2.17.77C506.9 297.68 492.6 301.71 478 304l.43-2.88c1.46-10.28 1.85-20.32 1.76-30.68l-.03-4.75q-.05-6.85-.16-13.69l-.06-3.71q-.1-4.68-.25-9.35l-.07-2.62c-.33-7.52-1.22-16.22-6.43-22.01-3.65-2.65-4.81-2.78-9.19-2.31-10.27 5.17-18.83 15.08-27 23l-1.79 1.72c-6.78 6.55-6.78 6.55-9.21 9.28v2l-1.72-.32a1540 1540 0 0 0-32.57-5.76 72 72 0 0 0-10.84-1.01c-10.17-.09-14.73-2.82-21.87-9.91l-4.88-4.25a166 166 0 0 1-13.43-13.63c-16.35-18.23-16.35-18.23-24.9-19.43-7.9-.39-7.9-.39-10.79 3" fill="#BCBDBD"/><path d="m476 301 1 3h7l-3 1q-.05 3.6-.06 7.19l-.03 2.04A48 48 0 0 0 482 325q.13 2.25.12 4.5l.01 2.22c-.13 2.28-.13 2.28-.62 4.58a53 53 0 0 0-.75 8.27c-.25 7.16-1.07 14-2.64 20.99l-.48 2.2c-1.17 4.92-2.8 9.53-4.64 14.24q-1.02 3-2 6h-2a133 133 0 0 0-3 8h-2l-.35 1.77c-.7 2.4-1.63 3.96-3.09 5.98l-1.31 1.86L458 407h-2l-.75 1.69A35 35 0 0 1 450 416c-2.19.62-2.19.62-4 1l-1 3c-2.56 1.19-2.56 1.19-5 2v2h-4v2l-6 2v2a212 212 0 0 1-27.75 10.94l-2.83.93c-6.91 2.11-13.22 2.48-20.42 2.13 3.75 9.59 8.93 17.25 15.97 24.75 2.03 2.25 2.03 2.25 4.09 5.44 3.36 4.86 8.04 8.34 12.69 11.93 3.22 2.69 6 5.03 6.59 9.32-.44 3.31-1.44 4.03-4.03 6.06A103 103 0 0 0 405 510l-9.81 9.88-2.62 2.64a221 221 0 0 1-13.98 13.06C377 537 377 537 375 539.5a41 41 0 0 1-5.67 5.74 395 395 0 0 0-13.61 12.35A753 753 0 0 0 336 577.03c-4.24 4.29-8.55 8.4-13.13 12.33a163 163 0 0 0-8.56 8.26l-1.64 1.66-3.19 3.22A993 993 0 0 1 303 609l-2.28 2.28L289 623l-1.95 2.12c-8.12 8.63-17.31 13.5-29.27 14.25-13.89.39-13.89.39-19.27-3.88-5.9-5.83-8.78-10.7-9.01-19.18.12-8.05 2.65-13.02 7.95-18.93 5.16-4.79 11.28-6.24 18.05-7.19 10.77-1.87 16.08-10 22.5-18.19l4.31-5.12a255 255 0 0 0 12.1-16.4q4.95-7.07 10.34-13.79c4-5.01 7.67-10.14 11.17-15.51q3.6-5.48 7.33-10.87l1.41-2.05q3.56-5.2 7.25-10.32a450 450 0 0 0 18.58-28.24q5.86-9.53 11.89-18.95l1.98-3.14a296 296 0 0 1 10.79-15.96c3.63-3.24 8.88-2.79 13.55-3.08l3.23-.22 6.6-.42c6.1-.44 11.55-1.29 17.34-3.31C418 424 418 424 422 424v-2l2.53-.66c9.54-2.69 16.58-6.17 23.47-13.34h2l.79-1.77c1.66-3.07 3.96-5.32 6.36-7.84 15.42-19.91 15.02-51.73 16.59-75.76.23-2.32.67-4.38 1.26-6.63q.33-3.87.56-7.75l.13-2.11z" fill="#030404"/><path d="M317 191c7.63 3.6 13.35 8.84 19.12 14.88l2.33 2.37q2.79 2.86 5.55 5.75l3-1c3.88 5.63 3.88 5.63 5 9l5 1v3a210 210 0 0 0 7.15 6.56c5.41 4.2 12.22 5.62 18.97 5.44 4.04 0 7.04.86 10.88 2q3 .06 6 0 2.5.46 5 1h3l1.81 1c2.81 1.28 5.13 1.07 8.19 1l1 1c5.8-.24 8.29-1.58 12.19-5.81l2.48-2.65L436 233l4-4 1.54-1.57a85 85 0 0 1 4.9-4.37 79 79 0 0 0 5.87-5.44C454 216 454 216 456 216l.62-1.81c1.9-3.02 4.18-3.72 7.38-5.19q2.04-1.44 4-3c5.58 5.26 12.96 12.42 13.56 20.31l.23 2.89a981 981 0 0 1 .82 18.45l.11 2.83.09 2.56C483 255 483 255 484 256q.32 3.62.5 7.25c.37 7.18.37 7.18 1.12 10.56.38 2.19.38 2.19-1.06 5L483 281l1.56 1.19L486 284c-.31 2.69-.31 2.69-1 5l3.38 1.75c3.1 1.61 4.27 3.01 5.62 6.25l3.14-.84 4.11-1.1 2.07-.55c5.38-1.44 5.38-1.44 7.91-2.05a56 56 0 0 0 12.02-4.65C525 287 525 287 529 287a88 88 0 0 0 4-2c2.54-.8 5.09-1.51 7.66-2.22C543 282 543 282 546 280l2.81-.44c3.19-.56 3.19-.56 6-2 3.45-1.69 6.47-2.28 10.24-2.84 1.95-.72 1.95-.72 3.22-2.79L569 270l2.25.12c2.96-.13 4.18-.76 6.75-2.12l7-2q3.45-1.19 6.88-2.44A567 567 0 0 1 608 258l2.2-.74a402 402 0 0 1 14.54-4.58q2.58-.79 5.14-1.68c4.97-1.59 10.05-2.76 15.12-4q3.76-.93 7.5-1.94c4.51-1.13 9.07-1.87 13.67-2.6q2.71-.44 5.41-.99c2.31-.45 4.58-.74 6.92-.97 3.22-.34 6.33-.85 9.5-1.5q4-.54 8-1l2.27-.29c3.57-.43 6.93-.71 10.54-.65 3.19-.06 3.19-.06 5.1-1.12 2.68-1.21 3.9-.81 6.71-.06a51 51 0 0 0 13.01 1.13c3.53-.01 6.87.49 10.37.99q2.4.33 4.81.62l2.21.29C753 239 753 239 756 238q2.54 1.43 5 3c2.86.84 5.76 1.31 8.69 1.81 4.44.87 8.24 2.3 12.3 4.29 2 .89 3.88 1.41 6.01 1.9a114 114 0 0 1 19 9l1.86.4c2.6.73 4.36 1.93 6.58 3.48q4.67 3.22 9.56 6.12c5.7 3.65 5.7 3.65 7.5 5.75 2.38 1.98 4.52 1.5 7.5 1.25l3-1c7.98-.07 15.33 2.43 22.81 4.94l3.35 1.09c12.98 4.26 12.98 4.26 17.46 7.22 3.28 2.11 6.63 3.98 10.07 5.81 3.74 2.02 7.23 3.96 10.31 6.94v2l1.7.75c8.96 4.88 16.94 14.07 21.3 23.25l1.84 3.64 2.1 4.17 1.05 2.08C945.48 356.78 947.31 377.8 946 401l-1 3q-.26 2.4-.44 4.81A41 41 0 0 1 942 420l-1.5 5.06c-1.01 3.4-2.15 6.66-3.5 9.94a111 111 0 0 0-4.46 15.75c-.56 2.32-1.3 4.5-2.1 6.75a44 44 0 0 0-2.23 11.75C928 471 928 471 927 472c-.77 9.69 2.29 17.25 8 25l4-1c2 3 2 3 2 7 5.73 5.58 12.33 9.05 20 11 10.72 3.02 21.51 6.09 28.2 15.73a17 17 0 0 1 1.57 11.16c-2.56 7.05-8.42 12.44-14.77 16.11l-3-1-2.7.92c-3.76 1.23-7.15 1.38-11.05 1.33l-2.14-.02c-9.59-.19-17.37-2.44-26.11-6.23l-2.01-.82A64 64 0 0 1 919 546l-2.31-1.31a76 76 0 0 1-17.57-15.29 100 100 0 0 0-5.62-5.84C891 521 891 521 890 518l-1.94-1.88c-2.26-2.32-3.02-4.07-4.06-7.12l-1-2.38c-4.02-10.56-5.35-20.95-5.31-32.18l-.05-3.25A46 46 0 0 1 881 453q1.18-4.25 2.25-8.52c.75-2.48.75-2.48 1.71-4.37a44 44 0 0 0 2.48-6.41l.77-2.46.79-2.55.79-2.52q2.2-7.05 4.21-14.17l1-3.44 1-3.56 1.05-3.68c1.09-4.39 1.25-8.56 1.2-13.07l.02-2.25c-.01-3.91-.34-6.61-2.27-10q-.01-3.63.22-7.25c-.27-4.61-1.66-7.66-3.78-11.69l-1.1-2.13c-4.61-8.66-10.35-14.35-18.34-19.93l-1.89-1.45c-3.31-2.51-5.92-4.17-10.11-4.55l1.38 3.31c4.72 12.63 4.8 26.57 4.81 39.88l.03 3.73c.01 6.12-.18 11.3-2.22 17.08a59 59 0 0 0-.56 4.19A58 58 0 0 1 863 405c-.5 3.94-.5 3.94-.72 5.9a67 67 0 0 1-2.84 12.04c-.92 2.96-1.44 5.07-1.44 8.18 0 3.47-1 5.89-2.34 9.05C855 442 855 442 855 445l-.94 1.75c-1.42 3.01-1.61 5.96-2.06 9.25l-1.06 3.12c-.93 2.86-1.1 4.9-.94 7.88 0 5.29-1.04 10.76-3.12 15.62-1.06 2.87-.91 5.39-.82 8.41C846 493 846 493 845 495.94c-1.14 3.48-1.12 6.28-.97 9.91-.03 2.15-.03 2.15-.59 4.3C843 512 843 512 844 514l-1 6q-.06 5 .04 9.99c.05 4.44-.35 8.63-1.04 13.01v3.19c0 2.81 0 2.81-.56 4.93-.44 1.88-.44 1.88.18 3.82.56 3.04-1.05 4.46-2.62 7.06q-.55 3.5-1 7-1.08 4.19-2.28 8.35c-.72 2.65-.72 2.65-1.16 5.18-.63 2.78-1.7 4.9-3.06 7.41A31 31 0 0 0 828 601a159 159 0 0 1-6 13 398 398 0 0 0-5.62 12.88C815 630 815 630 813 633c.38 3.69.38 3.69 1 7l2.37.12a147 147 0 0 1 24.07 3.63l3.57.82c23.76 5.56 23.76 5.56 31.99 14.43-.67 4.73-1.88 6.62-5.6 9.49-8.38 5.28-19.34 6.39-28.96 7.7l-3.42.5c-22 3.12-44.24 3.41-66.43 3.43h-2.6c-17.15 0-34.25-.58-51.38-1.3-63.27-2.64-126.63-3.59-189.84.91q-6.18.44-12.38.85a4012 4012 0 0 0-91.63 7.08l-10.11.9-16.03 1.44-2.78.25a1513 1513 0 0 0-34.22 3.44A351 351 0 0 1 326 696l-2.62.03c-14.37.06-25.99-2.58-38.38-10.03l-2.62-.5c-2.72-.57-3.64-1.4-5.38-3.5.69-1.94.69-1.94 2-4 2.31-.94 2.31-.94 5-1a48 48 0 0 1 5 3h3l-2.19-1.81c-4.73-4.76-8.07-11.82-8.25-18.57.41-3.36.94-5.62 2.44-8.62l1.19-2.88c4.13-7.12 9.82-11.95 17.81-14.12 3.41-.47 6.8-.9 10.24-1.14 6.22-.53 9.83-2.78 14.03-7.3l1.98-2.56 2.02-2.56A47 47 0 0 0 335 614q1.58-2.16 3.25-4.25l1.89-2.39L342 605c10.11-13.08 10.11-13.08 13.03-19.13.97-1.87.97-1.87 3.28-4.06 2.9-3.03 4.56-5.98 6.49-9.67 1.46-2.61 3.33-4.8 5.2-7.14l1-4 3-2c2.73-3.36 4-5.11 4-9.5 0-4.33 1.38-6.15 4-9.5l3 1 .88-2.44C387 536 387 536 389 535v-2c-3.83.55-5.37 2.28-8 5h-2l-.81 2.88C377 544 377 544 374 546l-2-1-.75 1.88c-1.49 2.52-2.69 2.84-5.25 4.12l-2 4a76 76 0 0 1-3 3.69l-1.56 1.82c-1.63 1.68-3.11 2.35-5.25 3.24-2.19 1.25-2.19 1.25-4.57 3.63-2.62 2.62-2.62 2.62-5.31 4.31-5.12 3.23-9.11 7.99-13.31 12.31l-2.59 2.55a131 131 0 0 0-7.66 8.68c-1.83 1.85-3.42 2.69-5.75 3.77-5.31 4.88-10 10.49-14.5 16.12a63 63 0 0 1-7.93 7.49c-1.82 1.61-3.14 3.44-4.57 5.39h-2l-.73 1.81c-2.3 3.96-6.46 5.82-10.27 8.19l-2.5 1.81c-3.75 1.78-7.42 1.98-11.5 2.19l-3.53.27c-8.92.39-15.43-.52-22.47-6.27-5.54-5.76-8.06-13.14-9-21 .97-9.11 5.59-15.67 12-22 5.17-4.08 11.78-4.83 18.19-5.38 6.56-1.07 9.98-4.42 13.81-9.62l5-6 2.19-2.88L279 567h2l.31-1.94.69-2.06 3-1 .75-2.56c1.49-4.11 3.71-6.32 6.64-9.48 2.01-2.45 2.68-4.96 3.61-7.96 2-1.12 2-1.12 4-2l2-4q1.64-2.22 3.38-4.38c2.72-3.44 5.23-6.93 7.62-10.62l3.06-4.62 1.48-2.23q1.45-2.13 3-4.19a64 64 0 0 0 3.71-5.65 85 85 0 0 1 6.13-8.62c3.32-4.19 6.16-8.58 8.98-13.11 1.41-2.22 2.89-4.34 4.45-6.46 1.93-2.75 3-5.02 4.19-8.12 2.07-3.28 4.3-6.42 6.56-9.56 1.97-2.74 3.75-5.52 5.44-8.44a96 96 0 0 1 5.56-8.56A40 40 0 0 0 370 434c-2.53-2.53-4.43-2.37-7.87-2.73-3.16-.4-6.09-1.34-9.13-2.27l-5.31-1.38c-12.76-3.5-25.64-8.93-35.69-17.62l-2.44-1.31c-3.23-2.13-5.37-4.74-7.85-7.69-1.48-1.73-3-3.31-4.65-4.88C295 394 295 394 295 392l-1.85-.78c-2.37-1.34-3.21-2.37-4.62-4.67l-1.29-2.07-1.3-2.17-1.32-2.1c-6.18-10.08-10.59-21.58-8.14-33.57.56-2.85.77-5.62.96-8.52A61 61 0 0 1 280 325v-3.56c0-3.66.85-5.99 2-9.44a142 142 0 0 0 .5-5.06c.31-3.71.98-6.53 2.5-9.94l.44-2.75a46 46 0 0 1 2.06-7.69c1.34-3.84 1.95-7.53 2.5-11.56l1.02-1.94c1.1-2.32 1.16-3.7 1.04-6.25-.1-3.99.22-7.78.72-11.74.22-2.07.22-2.07.22-5.45 0-2.62 0-2.62 1-5.62q.3-3.34.5-6.69c.26-3.98.53-7.92 1.06-11.87.44-3.44.44-3.44.44-6.19 0-2.25 0-2.25.49-4.13.52-2.15.58-4.04.63-6.24.62-6.01 3.87-10.51 7.88-14.88 4.25-2.94 6.79-3.77 12-3m-12 5.69c-3.78 6.25-4.6 11.77-5.38 18.93l-.38 3.37a637 637 0 0 0-2.04 22.27c-1.38 17.71-2.94 34.5-8.19 51.53a198 198 0 0 0-5.95 25.9l-.6 3.6c-6.27 38.92-6.27 38.92 2.54 53.71l1.5 2.7c15.7 26.47 40.2 40.79 69.38 48.56 6.67 1.58 13.22 3.11 20.12 2.74-2.3 3.91-4.77 7.68-7.31 11.44a930 930 0 0 0-12.69 19.5l-1.82 2.85q-4.01 6.33-7.95 12.68a347 347 0 0 1-14.67 21.98 508 508 0 0 0-8 11.43l-1.38 2.01q-3.5 5.08-6.93 10.19a312 312 0 0 1-15.06 20.56 243 243 0 0 0-10.07 13.8c-5.39 7.79-11.36 14.91-17.7 21.94q-2.08 2.4-4.08 4.91c-4.57 5.29-9.53 6.71-16.34 7.65-7.79 1.15-12.55 3.9-17.38 10.12A87 87 0 0 0 232 605l-1.14 1.82c-2.2 5.56-1.71 12.96-.21 18.66 2.56 5.68 6.98 9.29 12.07 12.66 9.69 3.66 23.24.93 32.28-3.14 5.82-3.38 10.37-8.18 15-13l5-5 2.5-2.5 9.79-9.79 6.64-6.67 4.38-4.42 2.19-2.21c3.35-3.36 6.71-6.64 10.32-9.73 5.52-4.75 10.57-10 15.68-15.18 6.31-6.4 12.61-12.72 19.5-18.5l2.29-1.93 1.77-1.51a65 65 0 0 0 7.19-7.31c3.37-3.97 7.12-7.42 10.98-10.89 6.7-6.05 13.01-12.5 19.31-18.96A91 91 0 0 1 415 501a2915 2915 0 0 1-17.36 26.79l-3.62 5.53a2669 2669 0 0 1-13.26 20.04l-4.41 6.67a345 345 0 0 1-14.08 19.89 219 219 0 0 0-7.08 10.33 378 378 0 0 1-15.63 21.68 519 519 0 0 0-4.81 6.5l-1.62 2.19-3.03 4.15c-3.38 4.57-6.55 8.38-12.1 10.23q-3.32.15-6.62.25c-8.94.62-14.27 3.2-20.32 9.75-5.13 6.02-5.62 11.74-5.51 19.48.84 6.62 4.52 10.95 9.33 15.33a60 60 0 0 0 9.48 5.39c1.64.8 1.64.8 2.64 1.8l-7 1 1 3c14.79 4.75 36.01 4.86 51 1q3.24-.24 6.5-.38c5.98-.31 11.91-.86 17.86-1.54 21.32-2.44 42.71-4.06 64.1-5.76l9.96-.79c36.5-2.91 73.01-5.56 109.58-7.53l2.17-.12a686 686 0 0 1 37.66-1.08l5.57-.02 14.79-.03h6.15c27.81-.03 55.5.4 83.27 1.96 20.25 1.13 40.42 1.58 60.7 1.54h4c19.23-.04 38.32-.42 57.44-2.63l3.49-.39c27.94-3.31 27.94-3.31 37.45-10.17 1.31-2.06 1.31-2.06 1.5-4.5-2.31-4.99-6.38-6.86-11.29-8.76a216 216 0 0 0-27.06-7.17q-3.36-.68-6.7-1.39c-7.1-1.46-13.85-2.66-21.14-2.24 2.21-7.19 5.13-13.93 8.21-20.79a355 355 0 0 0 14.63-38.01c3.51-10.87 6.38-21.66 7.78-33.01l.39-3.05c1.28-11.22 1.54-22.45 1.78-33.74.26-10.69.63-21.31 2.96-31.78l1.08-5.09.57-2.69q.95-4.56 1.83-9.15c3.55-18.28 3.55-18.28 5.71-25.88 3.47-12.41 5.68-25.16 8.06-37.81l.56-2.92c4.1-21.7 7.4-55.64-5.56-75.08 19.28 9.67 33.59 20.36 42 41 8.62 26.14-1 50.9-9.72 75.52-4.24 11.99-7.84 23.11-7.59 35.98l.04 3.05c.43 21.63 8.31 39.73 23.77 55.07a84.6 84.6 0 0 0 59.45 22.65c8.74-.41 15.21-3.74 21.59-9.59 2.33-2.69 2.7-5.49 2.9-8.93l.18-2.2c-1.02-4.18-3.37-6.79-6.62-9.55a74 74 0 0 0-10.69-4.69l-2.82-1.1a327 327 0 0 0-11.45-4.24c-12.71-4.43-22.68-12.15-28.92-24.22-4.94-10.28-4.58-22.58-.93-33.25l2.11-5.59c1.21-3.3 2.17-6.66 3.14-10.03l.61-2.12 1.26-4.4q1.11-3.81 2.27-7.61c9.44-31.62 9.73-63.58-4.58-93.75l-1.4-3.04c-13.01-26.06-40.37-41.45-66.98-50.46-6.94-2.25-13.35-2.81-20.62-2.88-7.8-.09-12.21-.96-18.26-6.25C812.06 260.4 795.49 254.72 780 249l-2.23-.86c-43.82-16.72-102.47-9.82-146.02 4.98l-5.5 1.81-2.97.99q-5.6 1.83-11.22 3.62l-6.25 1.99-4.06 1.29-5.77 1.85-3.35 1.07c-3.73 1.3-7.39 2.74-11.05 4.22-4.06 1.64-8.16 3.19-12.25 4.75l-2.68 1.03-5.58 2.12-8.4 3.21c-9.85 3.76-19.72 7.45-29.67 10.93l-2.17.77C506.9 297.68 492.6 301.71 478 304l.43-2.88c1.46-10.28 1.85-20.32 1.76-30.68l-.03-4.75q-.05-6.85-.16-13.69l-.06-3.71q-.1-4.68-.25-9.35l-.07-2.62c-.33-7.52-1.22-16.22-6.43-22.01-3.65-2.65-4.81-2.78-9.19-2.31-10.27 5.17-18.83 15.08-27 23l-1.79 1.72c-6.78 6.55-6.78 6.55-9.21 9.28v2l-1.72-.32a1540 1540 0 0 0-32.57-5.76 72 72 0 0 0-10.84-1.01c-10.17-.09-14.73-2.82-21.87-9.91l-4.88-4.25a166 166 0 0 1-13.43-13.63c-16.35-18.23-16.35-18.23-24.9-19.43-7.9-.39-7.9-.39-10.79 3" fill="#E7E8E9"/><path d="M411.1 324.9c7.95 3.76 11.89 8.82 14.9 17.1 2.16 7.66 1.45 13.63-2.31 20.54-4.28 6.26-10.32 11.43-17.7 13.46-8.37.87-13.97-.32-21-5v-2l-3-1c-4.7-5.71-9-12.48-9-20h2l.95 3.5c2.14 5.63 5.98 9.38 11.06 12.5 4.6 1.26 8.56.5 12.82-1.56 4.29-2.8 6.1-6.66 7.93-11.37.9-7.43.4-11.05-4.11-17.14-2.66-3.13-4.64-4.64-8.74-5.23-5.5-.31-8.52.76-12.9 4.3l-3 2c1.45-3.63 3.23-5.11 6.5-7.18l2.4-1.55c6.46-3.91 16.06-3.45 23.2-1.36" fill="#F1DC60"/><path d="m719.56 235.31 2.38.3c2.06.4 2.06.4 4.06 1.4q2.31.04 4.62 0c5.78-.07 11.86.08 17.38 2l2 2c-.66-.03-.66-.03-3.97-.1-22.64-.5-45.07-.88-67.47 2.84l-2.3.38A493 493 0 0 0 661 247l-2.44.48c-9.07 1.81-18.04 3.66-26.8 6.64l-5.5 1.81-2.99 1q-5.6 1.82-11.2 3.6l-6.26 2-4.07 1.3q-2.88.9-5.76 1.84l-3.35 1.07a226 226 0 0 0-11.05 4.22q-6.11 2.44-12.25 4.75l-2.69 1.03-5.57 2.12-8.4 3.21A1197 1197 0 0 1 523 293l-2.17.77c-13.69 4.82-28.2 9.87-42.83 10.23l-.06-5.75-.04-3.24c.1-3 .1-3 .6-4.89.57-2.44.66-4.66.7-7.17l.06-3.03.05-3.25.07-3.35.18-10.57.13-7.17L480 238h2l.18 3.68.26 4.75.11 2.44c.33 6.01.33 6.01 1.45 7.13q.31 3.62.5 7.25c.37 7.17.37 7.17 1.12 10.56.38 2.2.38 2.2-1.06 5l-1.56 2.2 1.56 1.18L486 284c-.32 2.7-.32 2.7-1 5 .55.3.55.3 3.37 1.75 3.11 1.61 4.28 3.01 5.63 6.25l3.14-.84 4.11-1.1 2.06-.55c5.4-1.44 5.4-1.44 7.92-2.05a56 56 0 0 0 12.02-4.65c1.75-.8 1.75-.8 5.75-.8q2.02-.98 4-2 3.82-1.18 7.66-2.23C543 282 543 282 546 280l2.81-.44c3.2-.56 3.2-.56 6-2 3.45-1.69 6.47-2.28 10.23-2.84 1.96-.72 1.96-.72 3.22-2.79L569 270l2.25.12c2.95-.13 4.17-.76 6.75-2.12l7-2q3.46-1.19 6.87-2.44A579 579 0 0 1 608 258l2.2-.74a389 389 0 0 1 14.54-4.58q2.58-.79 5.13-1.68c4.98-1.59 10.06-2.77 15.13-4q3.76-.93 7.5-1.94c4.51-1.13 9.07-1.87 13.67-2.6q2.71-.43 5.41-.99c2.31-.45 4.58-.74 6.92-.97 3.22-.34 6.32-.85 9.5-1.5q4-.54 8-1l2.27-.29c3.6-.43 6.97-.7 10.6-.65 4.34-.09 6.2-2.36 10.7-1.75" fill="#E9E9EB"/><path d="M330.66 311.84c7.8 3.5 12.17 8.61 15.21 16.54 2.24 7.73 2.05 15.49-1.87 22.62-4.4 5.86-10.58 8.01-17.52 9.56-4.29.44-6.65.01-10.27-2.44-3.83-3.34-7.2-6.37-9.2-11.12l1.67.32c7.37 1.16 12.12-.15 18.25-4.32 3.2-3.09 3.27-6 3.38-10.25-.07-5.51-.89-8.42-4.3-12.75-4.12-3.06-7.85-3.64-12.83-2.91-4.29 1.79-6.2 5.89-8.18 9.91-1.14 3.42-1.1 6.09-1.07 9.69l.03 3.57.04 2.74-2-1c-.57-8.84-.8-15.93 5-23 6.87-7.1 13.82-10.26 23.66-7.16" fill="#F1DA6A"/><path d="M397 328c5.84 2.86 9.54 7.06 12 13 .66 5.91-.17 10.74-3 16-3.98 4.72-7.94 8.04-14.19 8.75-5.68-.15-8.81-3.63-12.74-7.39-3.23-3.68-4.07-5.4-4.07-10.36h-2c1.51-6.33 2.77-10.76 8-15l2.69-2.25c4.3-3.25 8.03-3.63 13.31-2.75" fill="#181818"/><path d="M316 191c-1 2-1 2-2.71 2.64l-4.18 1.19c-4.09 2.27-5.82 6.18-7.08 10.53-1.85 11.04-2.81 22.07-3.66 33.22-1.53 20.04-3.32 38.89-9.44 58.08-6.45 20.22-7.97 42.3-9.93 63.34l-1-4h-2c-.13-6.38-.13-6.38.48-9.37.56-2.85.77-5.61.96-8.51A61 61 0 0 1 280 325v-3.56c0-3.66.85-5.99 2-9.44a142 142 0 0 0 .5-5.06c.31-3.71.98-6.53 2.5-9.94l.44-2.75a46 46 0 0 1 2.06-7.69c1.34-3.84 1.95-7.53 2.5-11.56l1.02-1.94c1.1-2.32 1.16-3.7 1.04-6.25-.1-3.99.22-7.78.72-11.74.22-2.07.22-2.07.22-5.45 0-2.62 0-2.62 1-5.62q.3-3.34.5-6.69c.26-3.98.53-7.92 1.06-11.87.44-3.44.44-3.44.44-6.19 0-2.25 0-2.25.49-4.13.52-2.15.58-4.04.63-6.24.62-6.01 3.87-10.51 7.88-14.88 3.88-2.73 6.25-3.33 11-3" fill="#EAEBEC"/><path d="M749 624v1l7 1c-3.83 2.4-7.59 2.51-12 3l-3 1v2h-2a29 29 0 0 0-3 8h-2l-.12 7.62-.06 2.17c-.04 4.42.23 8.13 2.18 12.21 2.12 1.38 2.12 1.38 4 2-6.77-.89-11.47-2.75-16-8-2.93-4.69-2.58-9.65-2-15 1.81-6.61 6.36-11.29 12-15 4.85-2.08 9.8-2.22 15-2" fill="#060706"/><path d="M480 238h2l.18 3.68.26 4.76.12 2.43c.33 6.02.33 6.02 1.44 7.13q.32 3.62.5 7.25c.37 7.18.37 7.18 1.12 10.56.38 2.19.38 2.19-1.06 5L483 281l1.56 1.19L486 284c-.31 2.69-.31 2.69-1 5l3.38 1.75c3.47 1.8 3.69 2.39 5.62 6.25l10-2v4c-8.67 2.51-16.92 4.62-26 5q-.05-2.87-.06-5.75l-.04-3.23c.1-3.02.1-3.02.59-4.89.58-2.44.67-4.67.72-7.17l.06-3.04.05-3.25.06-3.34.18-10.58.13-7.17z" fill="#EFF0F1"/><path d="M330.66 311.84c7.8 3.5 12.17 8.61 15.21 16.54 1.45 4.86 1.41 9.59 1.13 14.62h-1l-1-7h-1v-8l-3.88.06c-3.87.07-3.87.07-6.12-1.06v9l-3 1-.08-1.94c-.4-6.1-1.2-10.14-4.92-15.06-4.1-3.06-7.84-3.64-12.82-2.91-4.29 1.79-6.2 5.89-8.18 9.91-1.14 3.42-1.1 6.09-1.07 9.69l.03 3.57.04 2.74-2-1c-.57-8.84-.8-15.93 5-23 6.87-7.1 13.82-10.26 23.66-7.16" fill="#EEE576"/><path d="M315 195c6.65-.14 9.64 2.92 14.31 7.39L332 205q2.9 2.64 5.81 5.25c4.94 4.46 9.65 9.03 14 14.06l1.83 2.12L355 228l-2 4v-2h-3l.62 1.88.38 2.12-2 2-.81-1.81c-1.2-2.22-2.39-3.46-4.19-5.19l-1.88-2.38C340 224 340 224 337.75 221.81a89 89 0 0 1-6.69-7.81c-2.23-2.84-4.32-5.41-7.18-7.62-3.63-3-6.3-6.46-8.88-10.38z" fill="#080A0C"/><path d="M839 536a22 22 0 0 1 2.69 8.5l.26 2.28c.05 2.28-.38 4.03-.95 6.22l.62 1.94c.56 3.04-1.05 4.46-2.62 7.06q-.55 3.5-1 7-1.08 4.19-2.28 8.35c-.72 2.65-.72 2.65-1.16 5.18-.63 2.78-1.7 4.9-3.06 7.41A31 31 0 0 0 828 601a159 159 0 0 1-6 13c-1.9 4.15-3.73 8.3-5.38 12.56-2.02 4.28-4.67 7.77-7.62 11.44l-1-2c.65-1.83.65-1.83 1.74-4.09l1.22-2.59 1.35-2.82c8.82-18.92 16.23-38.35 21.69-58.5l1.05-3.77c1.36-5.5 1.92-11.12 2.57-16.73l.41-3.36z" fill="#E3E4E7"/><path d="M355 357c3.98 1.58 5.61 2.41 8 6 .12 2.69.12 2.69 0 5h-2l-2 5h-2v2c-2.19 2.19-2.19 2.19-5 4-2.68-.39-2.68-.39-5-1a294 294 0 0 1-3-10l-.6-2.08c-.4-1.8-.4-1.8-.4-4.92 3.5-4.26 6.68-4.65 12-4" fill="#666566"/><path d="M734 664c4.84.47 7.94 1.37 12 4 3.07.97 5.99 1.19 9.2 1.32l2.97.12 3.08.12 3.13.13 7.62.31c-3.87 2.13-7.4 2.43-11.75 2.62l-2.11.12-5.14.26-1 3 1.84-.02c15.08-.11 30.1.22 45.16 1.02v1l-23.76.05-11.04.03c-31.29.09-31.29.09-45.2-1.08v-1h17l-5-7 1.5-1.94C734 665 734 665 734 664" fill="#C7C3CB"/><path d="M411.1 324.9c7.95 3.76 11.89 8.82 14.9 17.1 2.3 8.14 1.1 13.68-2.71 21-1.3 2-1.3 2-3.3 3v-4h2v-4h2v-18h-2v-4h-2v-3l-4-1v-2l-3 1c-.15-.5-.15-.5-1-3h-4l1 8h3v8h-2v8h-1v-2.1c-.3-7.46-2.03-12.26-7-17.9-3.62-3.24-7.05-3.51-11.77-3.36-3.4.56-5.58 2.23-8.22 4.36l-3 2c1.45-3.63 3.23-5.11 6.5-7.18l2.4-1.55c6.46-3.91 16.06-3.45 23.2-1.36" fill="#EEDE7F"/><path d="M285 657h1l.01 2.09c.36 8.76 3.11 14.14 9.37 20.22A64 64 0 0 0 312 687c-3.98 1.33-7.85 1.07-12 1l1 3a62 62 0 0 1-12.82-3.25q-2.76-.94-5.56-1.75a11.4 11.4 0 0 1-5.62-4c.69-1.94.69-1.94 2-4 2.31-.94 2.31-.94 5-1a50 50 0 0 1 5 3h3l-2.31-2.12c-3.62-3.87-5.72-6.46-5.65-11.93q.37-4.49.96-8.95" fill="#D2D4D6"/><path d="m330 338 6 1v7l1.81-1c2.19-1 2.19-1 5.19-1-.88 5.75-.88 5.75-2 8h-3v2c-3.23 2.15-4.28 2.2-8 2v2h-10v-6l2-1 1-2 3-1v-2h4z" fill="#EED858"/><path d="M333 618h2c-3.01 6.59-8.2 14.1-14.83 17.41-3.01.82-5.93.89-9.05 1.03-8.35.4-13.77 2.77-19.5 8.87-5.12 6.59-6.14 13.53-6.62 21.69h-2c-1.39-8.3-.44-14.66 4-22 6.06-7.57 12.47-10.69 22.05-11.79q2.09-.21 4.19-.35c6.27-.54 9.91-2.76 14.03-7.44l1.98-2.67q1.8-2.44 3.75-4.75" fill="#DFE1E2"/><path d="M330 341v5h-4v2h-2l-1 4h-3l1 3-1 3h10v-2l8-2v-2l4-2v-2l3 1c-3 5.49-6.18 7.78-12 10-4.71 1.36-9.16 2.09-14 1-5.04-3.36-9.61-7.33-12-13l1.69.32c5.87.93 10.05.52 15.31-2.32 5.37-4 5.37-4 6-4" fill="#E4D46C"/><path d="m301 211 1 2h2c-.49 14.46-2.04 28.67-4 43h-3c-.44-10.42.32-20.57 1.44-30.94l.4-3.82c1.03-9.11 1.03-9.11 2.16-10.24" fill="#141415"/><path d="M940 412c3.02 3.37 3.02 3.37 2.93 6.18l-.62 2.26-.63 2.38A65 65 0 0 1 939 430a103 103 0 0 0-6 18.5c-1.53 7.27-3.34 15.35-9 20.5.43-5.74 1.79-10.42 3.84-15.79 2.39-6.62 4.22-13.44 6.16-20.21l1.65-5.76z" fill="#E0E1E2"/><path d="M901 377h1c1.19 23.39-6.13 43.19-14 65l-4-1 .73-1.51c3.1-6.64 5.23-13.46 7.27-20.49l.62-2.14L894 412l1-3.44 1-3.56.57-1.94c1.34-4.82 1.61-9.06 1.43-14.06l2-1c.41-2.5.41-2.5.62-5.56l.23-3.07z" fill="#E8EAED"/><path d="M300 611c0 3.19-.38 4.33-2 7-1.62 1.56-1.62 1.56-3.44 3a36 36 0 0 0-6.56 7h-2l-.73 1.81c-2.3 3.96-6.46 5.82-10.27 8.19l-2.5 1.81c-7.61 3.62-15.56 1.82-23.5.19v-1l3.59-.3c13.26-1.2 22.2-2.94 32.09-12.48 2.32-2.22 2.32-2.22 4.88-4.24a46 46 0 0 0 6.19-6.17l1.8-2.1L299 612z" fill="#E3E5E6"/><path d="M290 688q4.1.8 8.17 1.72c16.91 3.69 36.91 5.69 53.83 1.28q2.13-.1 4.25-.06l3.75.06v1l-3.19.38c-3.81.62-3.81.62-5.92 1.62-4.27 1.48-8.46 1.52-12.95 1.69l-2.94.11c-16.33.5-29.98.06-45-6.8z" fill="#E2E1E3"/><path d="M964 517c8.1-.69 14.14 2.23 20.38 7.31 4.71 4.43 6.53 7.94 6.74 14.57-.9 5.24-4.32 9.53-8.12 13.12h-3l-1-2 1.5-1.21 1.94-1.6 1.93-1.58c2.62-2.59 2.85-5.4 3.01-8.92l.14-2.24c-.78-3.69-2.72-6.06-5.52-8.45a59 59 0 0 0-8.75-3.75c-8.14-3.03-8.14-3.03-9.25-5.25" fill="#E1E2E3"/><path d="m844 490 2 3-2 6c-.11 2.3-.07 4.55.03 6.85-.03 2.15-.03 2.15-.59 4.3C843 512 843 512 844 514l-.45 2.62c-.74 4.56-.53 9.04-.34 13.63.1 4.4-.42 6.42-3.21 9.75q-.08-7.12-.11-14.24l-.04-4.83C839.64 501 839.64 501 842 492z" fill="#F2F2F6"/><path d="M279 352h1l.04 2.2c.76 16.06 9.31 28.47 18.96 40.8h-3l-1-3-4-2c-1.32-1.58-1.32-1.58-2.47-3.45l-1.29-2.07-1.3-2.17-1.32-2.1c-3.64-5.95-6.57-11.71-7.81-18.65l-.48-2.62L276 357l2-1c.62-2.06.62-2.06 1-4" fill="#DBDCDA"/><path d="M391 531h2c-.42 5.96-2.2 9.57-5.56 14.44l-1.29 1.93L383 552l-5-1c-.57-4.81 1.17-7.2 4-11l3 1 .88-2.44C387 536 387 536 389 535c1.12-2.06 1.12-2.06 2-4" fill="#EBEDF0"/><path d="M858 278c9.89.76 20.52 3.93 28.88 9.38 3.64 2.33 7.35 4.5 11.12 6.62l-1 3-3.42-1.94c-11.81-6.55-23.65-11.21-36.58-15.06z" fill="#DBDBDD"/><path d="m298 395 2.88 2.5L305 401l2.2 1.9c9.81 8.2 20.57 14.31 32.8 18.1-2.87 1.64-3.67 2.05-7.06 1.5-7.86-2.62-14.77-7.07-20.94-12.5l-2.44-1.31A32.7 32.7 0 0 1 298 395" fill="#E3E3E5"/><path d="M400 364h4l1 3-1.81.12c-2.19.88-2.19.88-3.94 3.94L398 374h-6l1-3-3.94-.38c-2.21-.21-2.21-.21-4.06-.62l-1-2h2v-2h14z" fill="#EDDD55"/><path d="M755 238q3.03 1.45 6 3c2.12.62 4.19 1.03 6.37 1.39 5.51.92 9.28 2.04 13.63 5.61l1 2-5.25-1.31-3.34-.83q-3.2-.8-6.39-1.66c-7.61-2.01-15.21-3.22-23.02-4.2v-1l1.9-.4 2.48-.54 2.46-.52C753 239 753 239 755 238" fill="#E0E2E1"/><path d="M373 348h2l.94 3.5c2.13 5.62 5.97 9.4 11.06 12.5 4.97 1.17 9.47.34 14-2l-1 4h-14v2l-3 1c-5.1-6.24-10-12.69-10-21" fill="#E5E481"/><path d="M864 352h2c.82 4.3 1.12 8.34 1.1 12.71l-.01 3.77-.03 3.9-.01 3.96L867 386h-3l-1 4z" fill="#F0F2F5"/><path d="M717.97 235.67c5.81.22 5.81.22 8.03 1.33q2.31.06 4.62 0c5.78-.06 11.86.1 17.38 2l2 2c-12.42.4-24.65-.8-37-2 2.75-2.96 2.75-2.96 4.97-3.33" fill="#EDEEF0"/><path d="m294 638 3 1-1.17 1.25c-7.49 8.31-9.55 15.66-10.83 26.75h-2c-1.39-8.3-.44-14.66 4-22 2.23-2.45 4.57-4.75 7-7" fill="#ECEFEE"/><path d="M471 212c4.87 2.12 7.56 5.33 10 10 1.28 5.58 1.14 10.44 0 16q-.32 3.65-.56 7.31l-.26 3.8L480 252h-1l-.04-1.94-.27-8.87-.07-3.05c-.32-9.09-.82-17.63-7.62-24.14z" fill="#DDDDDF"/><path d="M980 551c-.25 1.88-.25 1.88-1 4-2.58 1.72-3.85 2-7 2l-2.81.5c-5.92.89-14.78 2.21-20.19-.5v-2l3.84-.11 5.1-.2 2.52-.07c5.27-.23 9.7-1.09 14.63-2.99C977 551 977 551 980 551" fill="#EDEFF0"/><path d="M333 326h3v2h8v8h-6v-2h-4z" fill="#F6E070"/><path d="m926 466 2 2c-.36 1.87-.36 1.87-1 4-.75 6.28.45 11.01 3.03 16.74A34 34 0 0 1 932 495c-2.65-1-3.8-1.67-5.27-4.14-2.68-7.28-3.68-14.11-2.73-21.86z" fill="#EBECEE"/><path d="M372 544c-.19 1.81-.19 1.81-1 4a254 254 0 0 1-5 3q-1.03 1.99-2 4-1.5 1.92-3.12 3.75l-1.64 1.86L358 562l-3-1 .94-1.81C357 557 357 557 358 554c1.74-1.72 1.74-1.72 3.88-3.5 4-3.37 4-3.37 5.69-5.22C369 544 369 544 372 544" fill="#ECEFEF"/><path d="M881 486h1l.23 2.13c1.03 7.78 3.32 14.01 6.63 21.03L890 512l-1 2c-3.42-3.15-5.62-5.54-7-10l-1.19-3.12c-1.07-5.13-.5-9.72.19-14.88" fill="#E1E1E4"/><path d="M347 367c2 3.88 2 3.88 2 5l3.31-.62C356 371 356 371 359 373h-2v2c-2.19 2.19-2.19 2.19-5 4-2.81-.25-2.81-.25-5-1l-2-9h2z" fill="#595A56"/><path d="M400.13 323.94h2.29q2.78.04 5.58.06l1 2h-13v2l-1.94.26c-6.32 1.03-10.12 2.67-15.06 6.74 1.45-3.63 3.23-5.11 6.5-7.18l2.4-1.55c4.14-2.5 7.5-2.38 12.23-2.33" fill="#C3BF8C"/><path d="m299 235 2 1c.18 13.63.18 13.63-1 20h-3q-.08-3.9-.12-7.81l-.06-2.24c-.03-3.86-.01-5.66 2.18-8.95z" fill="#0C0B0C"/><path d="M422 337h2c3.01 8.74 4.73 14.87.62 23.44-2.29 4.4-2.29 4.4-4.62 5.56v-4h2v-4h2v-18h-2z" fill="#D5C576"/><path d="M862 386h4c-.29 7.55-1.34 14.29-5 21l-2 1c.88-7.35 1.94-14.67 3-22" fill="#DBDBDC"/><path d="M316 191c8.4 3.39 13.93 8.35 20 15l-2 2-1.72-1.83c-6.55-6.77-11.65-11.38-21.28-12.17l1.94-.94C315 192 315 192 316 191" fill="#D2D6DA"/><path d="m314 313 4 2c-4 2-4 2-5.94 2.77-4.39 2.62-6.35 7.59-8.06 12.23a67 67 0 0 0 0 13l-2-1c-.56-8.82-.82-15.95 5-23a62 62 0 0 1 7-6" fill="#6B6B65"/><path d="M320 593v3a170 170 0 0 1-5 3c-3.72 3.43-6.98 7.24-10.29 11.06A126 126 0 0 1 298 617a45 45 0 0 1 10-14l2.22-2.28 2.4-2.47 2.29-2.36C317 594 317 594 320 593" fill="#EAEBEE"/><path d="M898 369c2.16 1.72 2.94 2.58 3.34 5.36l-.05 2.75-.03 2.97-.07 3.11-.04 3.14L901 394h-1c-3.44-16.9-3.44-16.9-2-25" fill="#EFF1F3"/><path d="M901 377h1q.12 4.47.19 8.94l.07 2.52c.07 6.04-1.01 10.94-3.26 16.54l-3-1 1-3c1.19-4.09 1.15-7.76 1-12l2-1c.41-2.5.41-2.5.62-5.56l.23-3.07z" fill="#CCCED1"/><path d="M361 579h2c-1.98 4.1-4.41 7.78-6.94 11.56l-1.34 2.04-1.31 1.97-1.18 1.78A37 37 0 0 1 348 601c1.44-8.81 6.8-15.8 13-22" fill="#DDE0E1"/><path d="M345 350c2.5 2.17 3.44 3.73 4 7-2.94 2.5-5.18 3.47-9 4l-1-4 1.88-.69c2.73-1.69 3.17-3.3 4.12-6.31" fill="#0C0C13"/><path d="m347.63 358.88 2.38.12v3l-2 1q.97.5 2 1l-1 5-5-1c-.63-3.37-.63-3.37-1-7 2-2 2-2 4.62-2.12" fill="#6A686C"/><path d="m568 276-20 8-1-3c16.66-7.89 16.66-7.89 21-5" fill="#E6E8E9"/><path d="m236 634 2 .81 3 1.19 1.8.77c5.04 2.05 9.77 2.87 15.2 3.23v2c-9.34.88-15.19-.84-23-6z" fill="#F0F2F0"/><path d="M432 237h2c-4.07 8.43-4.07 8.43-8 11-4.12.31-7.95-.22-12-1v-1l2.41-.45c7.16-1.51 10.87-2.96 15.59-8.55" fill="#CECFCE"/><path d="M385 370c5.75-.12 5.75-.12 8 1v2l15 1c-2.56 2.56-3.63 2.3-7.19 2.31-5.89-.11-10.19-1.03-14.75-5z" fill="#CEBF69"/><path d="m446 226 2 1-11 11h2l-1 3c-3.49 1.75-6.07 3-10 3z" fill="#18191A"/><path d="M229 612h1l.08 2.12c.48 8.05 2.5 13.25 6.92 19.88l-3 1c-4.42-5.67-6.49-9.82-5.88-17.12q.38-2.96.88-5.88" fill="#D3D3D3"/><path d="M844 476c1.83 3.14 2.3 5.51 2.31 9.12l.05 2.64L846 490l-3 2c-.69 3.12-.69 3.12-1 6h-1c-.46-7.63 1.25-14.6 3-22" fill="#E7E7EA"/><path d="M286 297h2l-.88 6.25-.49 3.52A21 21 0 0 1 284 314c-2.12-5.62-2.12-5.62-1-9l.44-3.06C284 299 284 299 286 297" fill="#E3E3E3"/><path d="M480 238h2q.3 4.25.56 8.5l.17 2.4c.32 5.2.07 9.95-.73 15.1h-1a110 110 0 0 1-1.06-17.5l.01-2.49z" fill="#F8F5FA"/><path d="m448 226 1 2c-.94 2.62-.94 2.62-2 5h-3v3l-2 1-2 3v-2l-4 2c1.59-3.9 4.13-6.34 7.12-9.25l2.76-2.7z" fill="#050605"/><path d="m847.31 274.31 2.86.24c2.86.45 5.2 1.27 7.83 2.45v2l-21-2c4.05-2.7 5.51-3.13 10.31-2.69" fill="#EFEEF1"/><path d="M719.69 235.69c4.3.15 8.18 1.13 12.3 2.3v2l-19-1c3-3 3-3 6.7-3.3" fill="#F4F4F6"/><path d="m294 638 3 1-1.17 1.36A311 311 0 0 0 287 651l-2-2c2.38-4.49 5.36-7.52 9-11" fill="#E6E7E9"/><path d="M300 611c0 3.19-.38 4.33-2 7-1.66 1.6-1.66 1.6-3.5 3.06A23 23 0 0 0 289 627l-4-1 3.06-2.5c4.08-3.48 7.49-7.41 10.94-11.5z" fill="#CED0D1"/><path d="M229 604h2l-.44 3.44A879 879 0 0 0 229 621l-2-1c-1.74-6.1-.92-10.51 2-16" fill="#EFF1F0"/><path d="M830 582c1.63 2.5 2.01 3.85 1.88 6.88-1.03 3.65-2.54 6.14-4.88 9.12h-2a406 406 0 0 1 5-16" fill="#D9DADD"/><path d="m406 240 2.62 1.5c3.49 1.55 5.63 1.77 9.38 1.5l1 3a80 80 0 0 1-15-1z" fill="#EEF0EE"/><path d="M465 216h-2l-2 4h-3v2h-2v3l-4 1c.58-3.9 2.32-6.17 5-9 3.39-1.82 4.29-2.24 8-1" fill="#070908"/><path d="m467 206 6 4c-1 1.5-1 1.5-3 3-2.72.27-5.26.13-8 0v-3c2.5-2.19 2.5-2.19 5-4" fill="#EBEBEE"/><path d="m270 579 1 2c-3.51 4.83-7.13 8.31-13 10-2.25-.4-2.25-.4-4-1h3l1-3 2.69-.81c4.35-1.56 6.21-3.79 9.31-7.19" fill="#E4E4E5"/><path d="m681 241-1 3-14 1 1-3 3.25-.44c3.75-.56 3.75-.56 6-1.18C678 240 678 240 681 241" fill="#EEEDF0"/><path d="m308 633 2 1Zm2.88 1.38 2.08.17 5.04.45v1l-2.82.11c-12.27.66-12.27.66-18.18 3.89v-4c4.8-1.96 8.8-2.12 13.88-1.62" fill="#D2D4D4"/><path d="M839 536c1.67 3.34 2.34 5.03 2.75 8.56l.3 2.32C842 549 842 549 840 552h-2l-1 3z" fill="#D7D8DB"/><path d="m384 370 2.69 1.88c5.3 3.08 11.31 3.43 17.31 4.12v1l-10 1v-2h-8v-2h-2z" fill="#1D1507"/><path d="M396 320q2.97.42 5.94.88l3.34.49 2.72.63 1 2h-18v-2l5-1z" fill="#0D0D04"/><path d="M811 635c1.5 1.38 1.5 1.38 3 3v2l3.31-.12C821 640 821 640 824 642l-16-1c1-4 1-4 3-6" fill="#F0EFF4"/><path d="M879 472h1l1 20c-3-3-3-3-3.33-6.76q.02-2.18.08-4.36l.02-2.25c.08-5.48.08-5.48 1.23-6.63" fill="#F2F4F7"/><path d="M301 248h1v12l-2-2-2 2h-2v-10h1v6h3l-.06-3.44C300 249 300 249 301 248" fill="#121413"/><path d="M470 212a27 27 0 0 1 6 6v2l-3 1-.38-1.88C472 217 472 217 470 215c-4.11.33-8.04.84-12 2 3.98-4.11 6.1-5.79 12-5" fill="#1B1B1C"/><path d="M304 198h2l.12 5.31.08 2.99c-.2 2.7-.2 2.7-2.2 5.7-2-2-2-2-2.25-5.88.07-3.17.45-5.42 2.25-8.12" fill="#1A1B1E"/><path d="m540 519-20 4c2.62-3.93 4.33-3.85 8.88-4.81l3.74-.83C536 517 536 517 540 519" fill="#202122"/><path d="M601 263a41 41 0 0 1-8 4.12l-2.62 1.08c-2.38.8-2.38.8-5.38.8 1-3 1-3 3.36-4.2l2.95-1.05 2.93-1.08c2.78-.68 4.11-.65 6.76.33" fill="#E1E5E4"/><path d="m267 638 1 2c-3.95 2.63-6.74 1.8-11.19 1.12l-2.27-.31q-2.77-.39-5.54-.81v-1l6.19-.5 3.48-.28c2.79-.18 5.53-.26 8.33-.22" fill="#DDDDDE"/><path d="M651 248c-5 2.8-10.25 4.35-16 4v-2l2.69-.88c3.31-1.12 3.31-1.12 5.87-2.37 3.15-.97 4.57-.23 7.44 1.25" fill="#E0E0E4"/><path d="m415 499 2 1-8 11-4-2h2l.62-1.62c1.96-3.38 4.56-5.68 7.38-8.38" fill="#B7B9B8"/><path d="M373 348h2l1.31 3.75c1.18 3.17 2.44 5.68 4.69 8.25l-3 3-3.91-8.2C373 352 373 352 373 348" fill="#B5B689"/><path d="M293 258h1q.33 3.88.62 7.75l.2 2.21c.28 3.9.45 6.75-1.82 10.04l-2-6 1-1c.07-2.23 0-4.44-.06-6.68.06-2.26.42-4.15 1.06-6.32" fill="#E2E5E4"/><path d="M446 224c0 3 0 3-2.41 5.7q-1.53 1.5-3.09 2.99l-1.59 1.55L435 238l-2-2 1.46-1.17 1.92-1.58 1.89-1.55c1.82-1.79 2.63-3.42 3.73-5.7 2.12-1.25 2.12-1.25 4-2" fill="#EDEDEF"/><path d="m927 456 3 1c-.26 4.46-.58 6.52-3.56 9.94L924 469c.48-4.71.97-8.67 3-13" fill="#D6D7D9"/><path d="M370 439c-1.64 4.78-4.27 8.79-7 13l-2-1c1.05-4.85 2.88-12 9-12" fill="#E4E5E5"/><path d="m361 360 4 1c.12 6.62.12 6.62-1 10-1.88 1.75-1.88 1.75-4 3l-3-1 1.44-1.38C360 370 360 370 361 368h2z" fill="#1F2424"/><path d="m300 683 12 4a28 28 0 0 1-8.25 1.06L300 688l-1 2z" fill="#C9CCCD"/><path d="m405 357 3 1v4h-2v4h-2v-2h-3c0-3 0-3 2-5.19z" fill="#E7D56D"/><path d="M342 324h2c2.63 6.48 3.39 12.02 3 19h-1l-1-7h-1v-8h-2z" fill="#C9BA7A"/><path d="M479 276h1q.08 2.85.12 5.69l.08 3.2A20 20 0 0 1 478 293h-3c0-3 0-3 1.46-4.86 1.86-2.58 2.02-4.25 2.23-7.39l.2-2.7z" fill="#303334"/><path d="M410 439c-.71 1.95-.71 1.95-2 4-2.16.61-2.16.61-4.62.75l-2.48.17-1.9.08c1-3 1-3 2.69-4.19 2.86-1 5.3-.95 8.31-.81" fill="#1E211F"/><path d="M352 373a14 14 0 0 1 3 3c-1.19 1.56-1.19 1.56-3 3-2.69-.31-2.69-.31-5-1l1-4c1.81-.69 1.81-.69 4-1" fill="#494645"/><path d="m403 241 2 2c-1 1-1 1-4.81 1.19-3.23-.03-5.45-.36-8.19-2.19 3.77-2.56 6.68-1.96 11-1" fill="#E4E6E6"/><path d="m489 680-4 1v2l-16-1v-1c6.69-.62 13.28-1.13 20-1" fill="#E2E2E3"/><path d="M987 541h1c.38 2.06.38 2.06 0 5a59 59 0 0 1-6 7l-3-3 1.5-1.21 1.94-1.6 1.93-1.58C986 544 986 544 987 541" fill="#D1D1D3"/><path d="M793 253c3.85-.36 5.58-.28 8.88 1.88L804 257v2l-4.38-1.44-2.46-.81C795 256 795 256 793 255z" fill="#DEDEE0"/><path d="M838 552c3 1 3 1 3.88 2.75.17 3.18-1 4.75-2.88 7.25h-2c-.12-6.62-.12-6.62 1-10" fill="#F1F0F5"/><path d="m351 226 4 2-2 4v-2h-3l.62 1.88.38 2.12-2 2c-1.12-5.75-1.12-5.75 0-8h2z" fill="#070808"/><path d="M377 536c0 7 0 7-1.5 8.75L374 546l-4-3z" fill="#DDDEDD"/><path d="M380 445h5q-.39 3.51-1 7l-2 1c-2.15-3.23-2.2-4.28-2-8" fill="#252527"/><path d="M330 325h2c2.33 3.63 2.16 6.77 2 11l-3 1z" fill="#D8D27D"/><path d="M409 622c-1.5 3.67-3.64 5.69-6.62 8.25l-2.48 2.14L398 634l-2-1 5.38-5.5 1.53-1.59c3.86-3.91 3.86-3.91 6.09-3.91" fill="#E0E1E3"/><path d="M980 551c-.25 1.88-.25 1.88-1 4-2.06 1.25-2.06 1.25-4 2l-4-4c5.62-2 5.62-2 9-2" fill="#E1E2E2"/><path d="m352 462 2 1c-2.88 6.75-2.88 6.75-4 9l-3-1a77 77 0 0 1 5-9" fill="#EEEEF1"/><path d="m378 352 3 1v2a89 89 0 0 0 4 4c-1.75.75-1.75.75-4 1-2.31-1.69-2.31-1.69-4-4 .25-2.25.25-2.25 1-4m3 5 2 2v-2z" fill="#0E0A07"/><path d="m307 347 1.79.25c4.31.56 7.97.98 12.21-.25l-1 3h-8l-1 3a89 89 0 0 1-4-4z" fill="#C5B97A"/><path d="M850 445h2l1 8-4 1z" fill="#DFE0E2"/><path d="m856 427 2 1c.12 5.75.12 5.75-1 8h-3c-.25-5.62-.25-5.62 2-9" fill="#F0F1F4"/><path d="m318 359 10 2-4 2v3h-2l-1-4h-3z" fill="#090904"/><path d="M304 341c2 3 2 3 2 5h6v-2h2v4c-5.33.44-5.33.44-8 0-2.06-2.38-2.06-2.38-3-5z" fill="#312C24"/><path d="M520 290v4l-8 1c1-3 1-3 2.88-4.19C517 290 517 290 520 290" fill="#EEEEF0"/><path d="M774 244c5.75 2.62 5.75 2.62 8 6l-12-3z" fill="#DBDBDB"/><path d="M316 191c-1.29 2.58-2.2 2.6-4.88 3.5A27 27 0 0 0 304 198c.19-1.81.19-1.81 1-4 3.66-2.93 6.38-3.32 11-3" fill="#E7EAEA"/><path d="M328 585v3c-1.75 1.61-1.75 1.61-4 3.19l-2.25 1.6L320 594l-2-1 3.88-4 2.17-2.25C326 585 326 585 328 585" fill="#DBDDDD"/><path d="M382 555v3h-3v6h-5q1.14-1.98 2.31-3.94l1.3-2.21C379 556 379 556 382 555" fill="#1C1D1F"/><path d="M386 366h6l-1 4h-6l-1-2h2z" fill="#F5ED58"/><path d="M414 327c3.98 2.1 6.35 4.37 9 8l-1 2-2-1v-3l-4-1v-2h-2z" fill="#DBCC83"/><path d="m608 258-1 4-7 1v-3c5.75-2 5.75-2 8-2" fill="#EBEEF0"/><path d="m487 545 3 1-6 7-4-1z" fill="#E7EAE8"/><path d="M400 524c2 2 2 2 2 6-2.5 1.75-2.5 1.75-5 3l-1-3c1.94-3.19 1.94-3.19 4-6" fill="#1C1C1E"/><path d="M357 362c2 1.31 2 1.31 4 3v3l-5 1z" fill="#676869"/><path d="m385 643 1 4 7-1c-3.83 2.39-7.6 2.56-12 3 1.15-2.47 2.05-4.05 4-6" fill="#DFDFE1"/><path d="m847 472 2 3c-.88 3.69-.88 3.69-2 7-2-2-2-2-2.25-5 .25-3 .25-3 2.25-5" fill="#F2F2F5"/><path d="m861 404 2 1-1 8h-3c-.2-3.63.14-5.87 2-9" fill="#F1F3F5"/><path d="M385 370c5.75-.12 5.75-.12 8 1v2l2 2c-4.75-.43-6.92-1.33-10-5" fill="#D4C862"/><path d="M343 353h1v7l-4 1-1-4 4-2z" fill="#070303"/><path d="M329 341h1v5h-4v2h-5l2.31-1.81c2.69-2.19 2.69-2.19 4.44-3.94z" fill="#E0D17C"/><path d="M369 237q2.47.17 4.94.38l2.77.21 2.29.41 1 2h-11z" fill="#F2F5F6"/><path d="m312 524 1 3c-1.75 2.69-1.75 2.69-4 5h-3c1.44-3.37 3.33-5.51 6-8" fill="#E9ECED"/><path d="M930 448h2c.07 3.34.07 5.8-1 9h-3c.88-6.75.88-6.75 2-9" fill="#ECEDEF"/><path d="M348 423h7v2h4v2l-11-2z" fill="#222226"/><path d="M895 414h2l-3 10-2-1c-.26-3.06-.22-4.63 1.38-7.31z" fill="#DFE1E4"/><path d="m386 362 10 1v2h-9z" fill="#252410"/><path d="M421 332h3v4h2v4h2l-1 3c-2.83-1.42-3.02-3.14-4.12-6.06l-1.08-2.79z" fill="#180A05"/><path d="m410 323 8 3v2l2 1c-3.87 0-6.51-1.42-10-3z" fill="#1F1A0A"/><path d="M342 683c-5.11 3.92-7.64 4.1-14 4v-1l3.25-.88c3.75-1.12 3.75-1.12 6-2.31C339 682 339 682 342 683" fill="#B0B1B2"/><path d="m312 527 2 2-2 3h-2l-1 4h-3z" fill="#191A1E"/><path d="m326 501 2 1c-.56 3.27-1.5 4.83-4 7l-2-2z" fill="#EAECEE"/><path d="m416 366 4 1-7 6-1-3 1-2h3z" fill="#DCCF74"/><path d="M635 250v3l-8 1 1-3c3-1 3-1 7-1" fill="#EFEFF1"/><path d="M299 208h2l-1 11c-2.65-5.3-2.65-5.3-3-8z" fill="#E5E6E8"/><path d="M284 656h1v11h-2c-1.03-4.41-1.04-6.93 1-11" fill="#F0F5F5"/><path d="M236 634c3.38 1.19 5.65 2.28 8 5l-1 2-8-5z" fill="#E3E3E3"/><path d="m297 541 3 1-2 5h-4z" fill="#EDEDF0"/><path d="M846 463h1v6l3 1-4 4c-1.37-3.82-.68-7.07 0-11" fill="#DADADD"/><path d="M880 457h2l-1 9c-1.62-1.69-1.62-1.69-3-4 .81-2.75.81-2.75 2-5" fill="#F0F0F3"/><path d="m412 374-1 5-5-1v-3c2-1 2-1 6-1" fill="#1C1510"/><path d="M281 324h1c.29 8.57.29 8.57-2 12-1.43-8.57-1.43-8.57 1-12" fill="#F2F2F3"/><path d="M841 674v1c-5.57 1.66-9.31 2.19-15 1v-1a80 80 0 0 1 15-1" fill="#E0DEE2"/><path d="m812 628 2 1c-2.62 6.75-2.62 6.75-6 9l1.44-4.44.81-2.49C811 629 811 629 812 628" fill="#D2D2D7"/><path d="m432 600-5 4-2-1v-3c3.13-1.04 3.99-.93 7 0" fill="#1E1E20"/><path d="m240 595 2 1-6 8-2-2z" fill="#171917"/><path d="M842 486c1.12 1.5 1.12 1.5 2 4-.42 2.78-1.19 5.3-2 8h-1c-.14-8.57-.14-8.57 1-12m2 1 2 1v2h-2z" fill="#BABABE"/><path d="M897 365h2c1.12 5.75 1.12 5.75 0 8l-3-1z" fill="#E4E6E9"/><path d="m400 362 1 2-1 2h-12v-1l2.12-.4 2.76-.54 2.74-.52C398 363 398 363 400 362" fill="#D4D08E"/><path d="m315 344 1 2c2.06.62 2.06.62 4 1-3.4 2.09-6.05 2.18-10 2l4-1z" fill="#26210E"/><path d="M249 588h8v2l-9 1z" fill="#F1F4F1"/><path d="m275 576 2 3c-4.75 4-4.75 4-7 4a19 19 0 0 1 5-7" fill="#18191A"/><path d="m270 579 1 2a169 169 0 0 1-5 6h-2c1.44-3.37 3.33-5.51 6-8" fill="#DADADE"/><path d="M881 486h1l1 11-3-1z" fill="#CFD2D1"/><path d="M883 450h1l-1 10c-2-3-2-3-1.69-6.12C882 451 882 451 883 450" fill="#D7D8D8"/><path d="M888 435h1l-1 7-4-1q1.95-3.03 4-6" fill="#E1E1E5"/><path d="M942 404h1l1 10h-3z" fill="#F0F0F2"/><path d="M359 359c3.94 3.32 3.94 3.32 4.25 6.75L363 368h-2z" fill="#555456"/><path d="m886 343 5 5-2 3-4-7z" fill="#E9E9EE"/><path d="M408 336h4v8h-2v-6h-2z" fill="#F5DE6F"/><path d="M925 320c2.5 2.31 2.5 2.31 5 5v3h-2c-2.04-2.91-3-4.4-3-8" fill="#EBECEE"/><path d="m314 313 4 2a57 57 0 0 1-10 4z" fill="#A69E62"/><path d="m858 278 8 1v2l-9-1z" fill="#DFDDE0"/><path d="M296 250h1v6h3l-2 4h-2z" fill="#212325"/><path d="M361 233c2.78.38 4.59.67 6.81 2.44C369 237 369 237 369 239c-3.37-1.44-5.51-3.33-8-6" fill="#DCDEDA"/><path d="M328 201c3.26.35 4.02 1.02 6.25 3.56L336 207c-3 0-3 0-4.39-1.31z" fill="#C8CDCE"/><path d="m315 517 2 4-4 5c-1-3-1-3 .44-6.19z" fill="#DBDDDE"/><path d="m887 513 4 1 1 5-6-4z" fill="#EBEBEE"/><path d="m853 441 3 3-4 4c-.62-2.38-.62-2.38-1-5z" fill="#EEF1F1"/><path d="m351.63 356.88 3.38.12-2 3-7-1c2-2 2-2 5.62-2.12" fill="#545458"/><path d="M287 291h2l-1 6h-3c.88-4.88.88-4.88 2-6" fill="#EFEFF4"/><path d="m854 280 9 1-1 4v-2l-8-1z" fill="#0A0A0C"/><path d="m565 274 3 2-8 3v-3c2.31-1.12 2.31-1.12 5-2" fill="#DDD"/><path d="M356 227c4.68 1.48 4.68 1.48 6.31 4.12L363 233c-3.24-.56-4.93-1.41-7-4z" fill="#EBEAEB"/><path d="M780 669c-3.85 2.57-5.59 1.83-10 1v-1c3.7-.95 6.3-.95 10 0" fill="#B3B3B5"/><path d="M841 645v1l-11-1v-1c4.29-1.26 6.88-.63 11 1" fill="#E4E6E9"/><path d="m281 627 2 2-5 4-1-2 1-3z" fill="#151518"/><path d="M357 555c0 3 0 3-2.5 5.69L352 563l-2-1z" fill="#D3D4D6"/><path d="m943 553 9 1c-3.23 2.15-4.28 2.2-8 2z" fill="#D4D6D7"/><path d="M380 544h1v8l-3-1c-.12-2.38-.12-2.38 0-5z" fill="#F2F6FA"/><path d="m986 540 1 4c-1.94 2.25-1.94 2.25-4 4l-2-1z" fill="#040406"/><path d="M902 374h1l2 9-3 2z" fill="#030404"/><path d="m392 366 5 1-1 3h-4z" fill="#F2E264"/><path d="M896 358a16.6 16.6 0 0 1 3 7h-3l-2-4z" fill="#CFD1D3"/><path d="m856 322 6 2c-2 3-2 3-4 4z" fill="#D1D3D4"/><path d="M292 280h2l-1 8h-2z" fill="#222120"/><path d="m291 274 2 1-1 7c-1.43-2.35-2.09-3.48-1.62-6.25z" fill="#F1F1F2"/><path d="m297 259 2 1q-.39 3.51-1 7l-2 1c-.1-6.15-.1-6.15 0-8z" fill="#010204"/><path d="m627.19 253.94 1.8 1.06c-2.9 1.26-4.78 2-8 2l1-3c3-1 3-1 5.2-.06" fill="#D8D8DA"/><path d="m696 240-1 2h-7v-2c3.29-1.1 4.71-.8 8 0" fill="#DCDCDF"/><path d="M434 237c-1.39 3.37-2.98 4.99-6 7 .63-3.64 1.85-7 6-7" fill="#D5D6D6"/><path d="m439 231 2 1-7 6v-3c2.5-2.19 2.5-2.19 5-4" fill="#E4E4E6"/><path d="M298 215h1v8l-1-2h-2c.88-4.88.88-4.88 2-6" fill="#F4F5F5"/><path d="m465 208 4 1-1 2h-5zm-4 2 2 1-1 2z" fill="#F5F5F8"/></svg>