<svg style="background:transparent" version="1.1" xmlns="http://www.w3.org/2000/svg" viewBox="0 0 1248 704"><path d="M526.12.96A53 53 0 0 1 532 6l3.08 2.77c3.71 3.34 7.4 6.7 10.92 10.23l3.44 2.87a30 30 0 0 1 5.18 5.31c1.78 2.34 3.86 3.34 6.38 4.82q2.04 1.96 4 4 1.7 1.47 3.44 2.93c3.01 2.55 5.77 5.28 8.56 8.07l2.81 2.18 2.2 1.82v2c3.75 2.43 7.52 2.31 11.84 2.33l2.4.04 10.5.1q7.07.04 14.15.06 7.29.04 14.57.14 5.63.06 11.25.07 2.7 0 5.37.06c15.75.26 15.75.26 20.87-4.17A88 88 0 0 0 676 48q1.58-1.49 3.23-2.92l2.96-2.7c.24-.24.24-.24 1.5-1.38q3.51-3.21 6.87-6.59a85 85 0 0 1 7.31-6.35c4.77-3.85 9.24-7.92 13.7-12.13C728.86-.39 728.86-.39 740.53-.22 746.82.32 751.76 4.6 756 9c4 6.48 5.3 13.25 5.25 20.78l.01 2.28v7.53l.01 5.41v55.82q-.03 14.89 0 29.8v60.52l-.02 7.2.02 2.1c-.04 4.23-.8 7.6-2.27 11.56l-.3 2.75c-1.8 8.48-7.16 17.58-13.7 23.25h-2l-.76 1.77c-3.07 5.51-8.94 9.1-14.24 12.23-6.5 4.16-6.5 4.16-7.55 8-.3 8.66 3.02 17.24 6.55 25l1.94 4.93A142 142 0 0 0 735 303l3 6 1.68 3.33c5.7 11.31 10.9 22.44 14.32 34.67 1.25 3.92 2.5 7.83 4.12 11.62 1.14 3.08 1.43 6.13 1.88 9.38l1 3.5c1 3.5 1.48 6.9 2 10.5l1.06 3.56c.92 3.36 1.01 5.98.94 9.44l.5 2.43c.63 3.21.5 6.3.5 9.57l1 3q.14 3.68.12 7.37l.01 3.96A44 44 0 0 1 766 430q-.28 2.09-.5 4.18l-.26 2.35q-.25 2.51-.46 5.02A62 62 0 0 1 762 456c3 0 3 0 5.8-.98a33.2 33.2 0 0 1 23.72 1.46c9.05 5.54 17.18 13.64 20.21 24.02.52 2.5.9 4.98 1.27 7.5l1.06 4.87A89 89 0 0 1 815 521l-.44 5.81a42 42 0 0 1-2.56 11.2l-.5 3.5a48 48 0 0 1-2.5 9.5 110 110 0 0 0-3 12c.43-.03.43-.03 2.62-.08 3.38.07 3.38.07 6.32.63 4.62.66 8.66-.1 13.06-1.56q2.62-.09 5.23-.04c8.68.08 17.34-.29 26.02-.6 23.15-.82 42.7.78 64.71 8q2.03.63 4.1 1.13c3.13.82 5.94 2.32 8.81 3.76l1.82.87c4.32 2.14 7.67 4.72 11.31 7.88l2.62 1.5c2.84 1.8 4.35 3.83 6.38 6.5l2.37 2.25c9.97 10.44 14.92 24.55 14.8 38.9C976 634 976 634 975 636l-.3 3.06c-1.48 8.4-5.8 15.1-10.7 21.94l-1.5 2.16c-4.79 6.68-10.26 10.96-17.44 14.9l-1.76.98-3.52 1.96a323 323 0 0 0-5.46 3.14c-4.02 2.25-7.92 3.56-12.32 4.86l-2.6.78A146 146 0 0 1 899 694l-1.89.27c-6.96.9-13.9.87-20.92.85l-3.68.01h-6.72A28 28 0 0 1 859 694l-3.19-.38c-10.48-1.72-18.57-6.09-25.36-14.56-2.64-4.3-3.94-8.34-3.04-13.35 2.33-9 6.22-15.57 14.1-20.7 6.72-3.64 12.95-4.06 20.5-4l2.51-.09c2.55-.06 4.93-.07 7.41.57 2.26.55 4.26.63 6.6.64h7.94c11.95-.02 23.5-2.25 33.53-9.13 2.21-3.3 2.44-4.17 2-8-1.35-3.75-2.19-5.55-5.7-7.52-8.13-3.65-16.23-6.92-25.22-7.34-2.08-.14-2.08-.14-4.12-.66-1.96-.48-1.96-.48-5.65-.48h-3.3l-1-1q-2.2-.15-4.39-.14h-2.73l-2.89.01h-2.79c-5.1 0-10.09.24-15.16.88-3 .36-6.03.55-9.05.75-15.58 1.08-15.58 1.08-17 2.5q-2.95.02-5.9-.07c-2.19.07-3.99.52-6.1 1.07q-2.46.29-4.94.5c-3.42.31-6.7.8-10.06 1.5l-5.76.67c-2.46.36-4.87.86-7.3 1.4-3.03.63-5.3.91-8.44.8-5 .18-9.1 1.75-13.5 4.13-2.06 2.31-2.06 2.31-4 5a170 170 0 0 1-7.08 5.44C748 634 748 634 747 636l2.75.68c3.8 1.54 4.88 3.03 7.25 6.32l2.56 2.18c4.34 5.01 5.81 11.05 5.44 17.63-.69 4.36-2.56 6.4-6 9.2l-1.4 1.51c-5.64 5.22-14.3 4.9-21.48 4.73l-2.94-.05q-4.1-.08-8.18-.2l-3.45-.06c-6.29-.3-11.33-2.24-17.02-4.89C702 672 702 672 699 672l1.61 1.25c7.78 6.35 10.9 12.87 12.4 22.75.2 3.24.03 4.9-1 8q-14.16.24-28.3.36-6.58.04-13.14.16-6.35.12-12.69.14-2.4.02-4.83.08c-12.64.28-12.64.28-16.15-2.27a24 24 0 0 1-4.15-9.6c-.4-2.1-.84-4.23-1.38-6.3-.63-4.34-1.37-9.58.63-13.57v-3.07c0-2.93 0-2.93 1-3.93-5.02-.78-8.98-1.14-14 0l.5 1.7c.53 2.42.56 4.51.5 6.98a69 69 0 0 0 0 4.32l1 1c.31 5.1-.42 9.15-2 14l-1 3.18a56 56 0 0 1-3 6.82l-28.89.05-13.42.02-12.93.02-4.95.01-6.9.01-3.98.01C541 704 541 704 540 703c-1.68-6.82-.73-12.6 2-19 2.53-3.8 5.74-6.83 9-10l3-3-2.09.8a104 104 0 0 1-17.9 5.2l-3.39.62c-7.87.81-15.58.41-23.43-.37l-2.18-.19c-6.04-.68-9.83-3.06-14.32-7.19-2.65-4.5-3.17-9.7-2.39-14.87 1.67-4.79 4.75-8.44 8.07-12.19l2.28-2.6A16.6 16.6 0 0 1 506 636a61 61 0 0 0-6.75-6.14L497 628v-2l-1.88-.25c-2.12-.75-2.12-.75-3.06-2.69-1.06-2.06-1.06-2.06-3.3-2.89-11.05-4.7-20.89-20.28-26.76-30.17a431 431 0 0 0-3.5-4.88A53 53 0 0 1 452 573l-2-4.57-1.02-2.3q-1.26-2.7-2.67-5.32c-1.4-3-1.84-5.55-2.3-8.8l-2-6a82 82 0 0 1-2.77-14.94A45 45 0 0 0 438 525c-2.87-17.93-.97-40.76 9.56-55.94a40 40 0 0 1 10.81-9.63l2.84-1.8c7.85-4.58 14.57-5.39 23.35-3.2q2.73.75 5.44 1.57l-.4-1.95q-1.56-7.48-2.6-15.05l-.49-2.65c-.63-4.1-.9-8.2-1.14-12.35l-.15-2.37A50 50 0 0 1 486 409q.06-2.73 0-5.44a68 68 0 0 1 1-12.56l.44-3.57c.56-3.43.56-3.43 1.56-6.37.98-3 1.32-5.8 1.66-8.94.5-3.06 1.5-5.87 2.52-8.78a149 149 0 0 0 2.26-7.16c1.42-4.8 3-9.57 4.61-14.33q.85-2.52 1.6-5.05c2.16-7.29 5.8-13.93 9.26-20.67q2.66-5.21 5.28-10.45l1.01-2q3.55-7.15 6.8-14.45a95 95 0 0 1 2.07-4.32c1.4-2.86 2.1-5.85 2.93-8.9l1.12-3.26c1.14-4.88 1.62-9.78.88-14.75-1.28-1.6-1.28-1.6-3-3l-1.87-1.72A66 66 0 0 0 515 245c-1.5-1.38-1.5-1.38-3-3l-2.63-2.5C507 237 507 237 506 234l-1.9-.94c-5.47-2.77-8.2-11.86-10.26-17.36-3.09-9.9-2-21.24-2-31.53q0-2.68-.02-5.35l-.02-14.43v-9.02q-.04-14.15-.04-28.28 0-16.29-.05-32.58-.03-12.62-.03-25.25 0-7.51-.03-15.05-.03-7.07 0-14.15l-.02-5.18V27.8l-.02-2.05c.06-5.99 1.58-11.24 5.12-16.14 7.72-7.56 18.42-13.63 29.4-8.64M690 666v2l2-1z" fill="#161917"/><path d="M864.46 563.81q4.1 0 8.2-.04c28.38-.09 58.03 5.78 80.34 24.23l1.83 1.32c8.43 6.34 15.2 18.37 17.17 28.68 1.54 18.16-2.22 32.9-13.8 47.21-11.04 12.14-26.61 18.7-42.2 22.8l-2.35.62c-22.63 5.83-53.04 7.9-74.14-3.86-4.2-2.96-6.78-5.9-8.51-10.77-1.01-6.13-1.1-11.94 2.06-17.44 4.8-6.38 10.15-10.47 17.94-12.56 3.53-.35 7-.26 10.54-.16l6.14.1q4.77.08 9.55.2c15.28.32 29.5.5 42.77-8.14h2a21.2 21.2 0 0 0 2-14c-7.73-10.24-22.02-13.45-34.12-15.32-33.57-3.83-67.95 1.52-101.12 6.33l-2.76.4-5.11.75c-5.35.76-10.5.94-15.9.84l2.16-2.1c2.98-2.98 5.7-6.13 8.4-9.34l1.43-1.66a75 75 0 0 0 6.24-8.3L785 591h2l.29-1.64c.92-3.07 2.43-5.5 4.09-8.24a86 86 0 0 0 5.09-9.43c1.53-2.69 1.53-2.69 3.45-3.68l2.27-.33 2.65-.39q6.75-.63 13.54-.95c2.67-.13 5.26-.27 7.88-.83 3.4-.64 6.78-.87 10.23-1.07l2.23-.12c8.58-.45 17.15-.5 25.74-.5" fill="#141716"/><path d="M526.12.96A53 53 0 0 1 532 6l3.08 2.77c3.71 3.34 7.4 6.7 10.92 10.23l3.44 2.87a30 30 0 0 1 5.18 5.31c1.78 2.34 3.86 3.34 6.38 4.82q2.04 1.96 4 4 1.7 1.47 3.44 2.93c3.01 2.55 5.77 5.28 8.56 8.07l2.81 2.18 2.2 1.82v2c3.75 2.43 7.52 2.31 11.84 2.33l2.4.04 10.5.1q7.07.04 14.15.06 7.29.04 14.57.14 5.63.06 11.25.07 2.7 0 5.37.06c15.75.26 15.75.26 20.87-4.17A88 88 0 0 0 676 48q1.58-1.49 3.23-2.92l2.96-2.7c.24-.24.24-.24 1.5-1.38q3.51-3.21 6.87-6.59a85 85 0 0 1 7.31-6.35c4.77-3.85 9.24-7.92 13.7-12.13C728.86-.39 728.86-.39 740.53-.22 746.82.32 751.76 4.6 756 9c4 6.48 5.3 13.25 5.25 20.78l.01 2.28v7.53l.01 5.41v55.82q-.03 14.89 0 29.8v60.52l-.02 7.2.02 2.1c-.04 4.23-.8 7.6-2.27 11.56l-.3 2.75c-1.8 8.48-7.16 17.58-13.7 23.25h-2l-.76 1.77c-3.07 5.51-8.94 9.1-14.24 12.23-6.5 4.16-6.5 4.16-7.55 8-.3 8.66 3.02 17.24 6.55 25l1.94 4.93A142 142 0 0 0 735 303l3 6 1.68 3.33c5.7 11.31 10.9 22.44 14.32 34.67 1.25 3.92 2.5 7.83 4.12 11.62 1.14 3.08 1.43 6.13 1.88 9.38l1 3.5c1 3.5 1.48 6.9 2 10.5l1.06 3.56c.92 3.36 1.01 5.98.94 9.44l.5 2.43c.63 3.21.5 6.3.5 9.57l1 3q.14 3.68.12 7.37l.01 3.96A44 44 0 0 1 766 430q-.28 2.09-.5 4.18l-.26 2.35q-.25 2.51-.46 5.02A62 62 0 0 1 762 456c3 0 3 0 5.8-.98a33.2 33.2 0 0 1 23.72 1.46c9.05 5.54 17.18 13.64 20.21 24.02.52 2.5.9 4.98 1.27 7.5l1.06 4.87A89 89 0 0 1 815 521l-.44 5.81a42 42 0 0 1-2.56 11.2l-.5 3.5a48 48 0 0 1-2.5 9.5 110 110 0 0 0-3 12c.43-.03.43-.03 2.62-.08 3.38.07 3.38.07 6.32.63 4.62.66 8.66-.1 13.06-1.56q2.62-.09 5.23-.04c8.68.08 17.34-.29 26.02-.6 23.15-.82 42.7.78 64.71 8q2.03.63 4.1 1.13c3.13.82 5.94 2.32 8.81 3.76l1.82.87c4.32 2.14 7.67 4.72 11.31 7.88l2.62 1.5c2.84 1.8 4.35 3.83 6.38 6.5l2.37 2.25c9.97 10.44 14.92 24.55 14.8 38.9C976 634 976 634 975 636l-.3 3.06c-1.48 8.4-5.8 15.1-10.7 21.94l-1.5 2.16c-4.79 6.68-10.26 10.96-17.44 14.9l-1.76.98-3.52 1.96a323 323 0 0 0-5.46 3.14c-4.02 2.25-7.92 3.56-12.32 4.86l-2.6.78A146 146 0 0 1 899 694l-1.89.27c-6.96.9-13.9.87-20.92.85l-3.68.01h-6.72A28 28 0 0 1 859 694l-3.19-.38c-10.48-1.72-18.57-6.09-25.36-14.56-2.64-4.3-3.94-8.34-3.04-13.35 2.33-9 6.22-15.57 14.1-20.7 6.72-3.64 12.95-4.06 20.5-4l2.51-.09c2.55-.06 4.93-.07 7.41.57 2.26.55 4.26.63 6.6.64h7.94c11.95-.02 23.5-2.25 33.53-9.13 2.21-3.3 2.44-4.17 2-8-1.35-3.75-2.19-5.55-5.7-7.52-8.13-3.65-16.23-6.92-25.22-7.34-2.08-.14-2.08-.14-4.12-.66-1.96-.48-1.96-.48-5.65-.48h-3.3l-1-1q-2.2-.15-4.39-.14h-2.73l-2.89.01h-2.79c-5.1 0-10.09.24-15.16.88-3 .36-6.03.55-9.05.75-15.58 1.08-15.58 1.08-17 2.5q-2.95.02-5.9-.07c-2.19.07-3.99.52-6.1 1.07q-2.46.29-4.94.5c-3.42.31-6.7.8-10.06 1.5l-5.76.67c-2.46.36-4.87.86-7.3 1.4-3.03.63-5.3.91-8.44.8-5 .18-9.1 1.75-13.5 4.13-2.06 2.31-2.06 2.31-4 5a170 170 0 0 1-7.08 5.44C748 634 748 634 747 636l2.75.68c3.8 1.54 4.88 3.03 7.25 6.32l2.56 2.18c4.34 5.01 5.81 11.05 5.44 17.63-.69 4.36-2.56 6.4-6 9.2l-1.4 1.51c-5.64 5.22-14.3 4.9-21.48 4.73l-2.94-.05q-4.1-.08-8.18-.2l-3.45-.06c-6.29-.3-11.33-2.24-17.02-4.89C702 672 702 672 699 672l1.61 1.25c7.78 6.35 10.9 12.87 12.4 22.75.2 3.24.03 4.9-1 8l-4-1 .13-2.79c.26-8.92.07-14.73-6.13-21.33a50 50 0 0 0-15-9.88v-8l2.04 1.17c14.92 8.34 28.58 12.36 45.76 12.2l3.85.04c7.38-.03 13.34-.08 19.21-4.98 3.45-4.4 2.71-10.14 2.13-15.43-2.82-7.64-9.37-12.8-16.44-16.38L740 636q4.15-3.36 8.37-6.63l1.8-1.39 3.66-2.83a48 48 0 0 0 7.5-6.88c3.87-3.29 7.53-3.6 12.48-4.27l3.1-.47a822 822 0 0 1 13.37-1.84 2076 2076 0 0 1 41.28-5.1c26.9-3.05 63.78-7.1 87.63 8.97 5.6 4.85 5.6 4.85 6.1 8.51.18 4.75.03 8.3-3.29 11.93-13.9 10.52-31.45 9.42-47.88 9q-6.24-.16-12.49-.25l-2.83-.1c-8.88-.14-15.87 2.71-22.36 8.8-4.84 5.18-5.05 10.52-4.83 17.35.6 4.84 1.8 7.86 5.4 11.2 17.97 12.6 46.03 11.23 66.66 7.86q6.22-1.2 12.33-2.86l2.4-.65c18.15-5.1 35.27-13.9 45.6-30.35a98 98 0 0 0 4-8l1.2-2.63c3.91-11.45 3.37-26.47-1.6-37.39-10.5-19.6-27.13-30.29-48-36.67a321 321 0 0 0-15.59-4.1c-8.44-1.93-16.95-2.37-25.58-2.35h-16.5a441 441 0 0 0-27.54.7A76 76 0 0 0 824 567q-2.97.2-5.96.31l-3.37.13-3.48.12-3.55.13-8.64.31 1.35-3.2c8.85-21.86 11.97-44.34 10.65-67.8l-.22-3.96c-1.08-10.17-5.88-21.77-13.73-28.65-8.82-6-17.53-7.55-28.05-6.39a95 95 0 0 0-11 3l.26-1.87 1.18-8.5.4-2.94c2.02-14.66 2.37-28.9 2.16-43.69l-.02-2.23c-.53-34.86-15.72-70.63-31.96-100.85-6-11.38-12-24.32-12.4-37.36l-.14-3.37c1.03-6.32 7.03-9.5 11.9-13.13l3.46-2.65 5.32-4.04c11.05-8.82 17.01-22.6 18.84-36.37.3-5.95.27-11.88.26-17.83l.01-5.38v-55.35q-.03-14.77 0-29.55V35.85l-.02-7.13.02-2.08c-.07-7.94-2.06-13.28-7.42-18.98-4.38-3.95-9.6-4.18-15.27-4.04-7.07 1.03-12.12 5.53-16.86 10.57a70 70 0 0 1-5.35 5A388 388 0 0 0 701.5 29q-6.13 5.72-12.48 11.22c-3.42 3-6.76 6.08-10.1 9.15L676 52l-1.39 1.74c-3.7 4.15-6.98 5.67-12.55 6.14-4.1.21-8.19.25-12.29.26l-5.38.06q-5.62.06-11.26.04-7.17.01-14.32.2-5.55.08-11.12.06-2.62.01-5.27.08c-8.93.23-15.58-.06-22.5-6.16a123 123 0 0 1-6.57-6.93 53 53 0 0 0-5.6-5.24A538 538 0 0 1 559 34.5a541 541 0 0 0-8.8-7.82 215 215 0 0 1-7.27-6.58c-17.5-16.52-17.5-16.52-29.88-16.38-5.65.51-9.1 3.02-12.86 7.21-3.73 5.23-4.49 9.42-4.46 15.75v2.33q-.02 3.84-.02 7.7l-.02 5.52-.03 15.01v9.4q-.04 16.37-.03 32.77 0 15.24-.05 30.5-.04 13.11-.04 26.22 0 7.82-.03 15.64v20.12c-.13 17.5 3.3 32.11 15.47 45.27 5.88 5.76 12.7 10.57 19.28 15.48 3.68 2.86 3.68 2.86 4.15 6.5.23 10.06-1.47 17.68-5.53 26.87q-1.28 2.93-2.49 5.88a190 190 0 0 1-8.94 18.67c-17 31.1-27.65 67.56-27.7 103.06v2.22c0 11.55.8 22.68 2.9 34.06.57 3.35.95 6.72 1.35 10.1-6.53-.9-6.53-.9-9.32-1.52-11.98-2.18-20.09.08-29.93 6.7-5.99 6.13-9.65 13.56-11.75 21.82l-.62 2.37c-7.4 33.45 4.77 71.6 22.62 99.63 11.77 17.5 28.86 36.42 48 46v2l-1.94.66c-7.53 2.76-13.35 5.96-17.5 13.02-2.2 4.97-2.36 10-1.56 15.32 2.18 4.36 4.98 5.74 9.51 7.36 5.05 1.28 10.18 1.16 15.36 1.14l3.63-.02c14.81-.3 26.94-4.1 39.87-11.13C563 662 563 662 565 662v8l-1.98.91c-9.09 4.36-14.93 8.57-19.02 18.1a38 38 0 0 0-1.06 10.3l.02 2.67.04 2.02-3-1c-1.45-8.15-.8-14.8 3.87-21.82q3.52-3.64 7.13-7.18l3-3-2.09.8a104 104 0 0 1-17.9 5.2l-3.39.62c-7.87.81-15.58.41-23.43-.37l-2.18-.19c-6.04-.68-9.83-3.06-14.32-7.19-2.65-4.5-3.17-9.7-2.39-14.87 1.67-4.79 4.75-8.44 8.07-12.19l2.28-2.6A16.6 16.6 0 0 1 506 636a61 61 0 0 0-6.75-6.14L497 628v-2l-1.88-.25c-2.12-.75-2.12-.75-3.06-2.69-1.06-2.06-1.06-2.06-3.3-2.89-11.05-4.7-20.89-20.28-26.76-30.17a431 431 0 0 0-3.5-4.88A53 53 0 0 1 452 573l-2-4.57-1.02-2.3q-1.26-2.7-2.67-5.32c-1.4-3-1.84-5.55-2.3-8.8l-2-6a82 82 0 0 1-2.77-14.94A45 45 0 0 0 438 525c-2.87-17.93-.97-40.76 9.56-55.94a40 40 0 0 1 10.81-9.63l2.84-1.8c7.85-4.58 14.57-5.39 23.35-3.2q2.73.75 5.44 1.57l-.4-1.95q-1.56-7.48-2.6-15.05l-.49-2.65c-.63-4.1-.9-8.2-1.14-12.35l-.15-2.37A50 50 0 0 1 486 409q.06-2.73 0-5.44a68 68 0 0 1 1-12.56l.44-3.57c.56-3.43.56-3.43 1.56-6.37.98-3 1.32-5.8 1.66-8.94.5-3.06 1.5-5.87 2.52-8.78a149 149 0 0 0 2.26-7.16c1.42-4.8 3-9.57 4.61-14.33q.85-2.52 1.6-5.05c2.16-7.29 5.8-13.93 9.26-20.67q2.66-5.21 5.28-10.45l1.01-2q3.55-7.15 6.8-14.45a95 95 0 0 1 2.07-4.32c1.4-2.86 2.1-5.85 2.93-8.9l1.12-3.26c1.14-4.88 1.62-9.78.88-14.75-1.28-1.6-1.28-1.6-3-3l-1.87-1.72A66 66 0 0 0 515 245c-1.5-1.38-1.5-1.38-3-3l-2.63-2.5C507 237 507 237 506 234l-1.9-.94c-5.47-2.77-8.2-11.86-10.26-17.36-3.09-9.9-2-21.24-2-31.53q0-2.68-.02-5.35l-.02-14.43v-9.02q-.04-14.15-.04-28.28 0-16.29-.05-32.58-.03-12.62-.03-25.25 0-7.51-.03-15.05-.03-7.07 0-14.15l-.02-5.18V27.8l-.02-2.05c.06-5.99 1.58-11.24 5.12-16.14 7.72-7.56 18.42-13.63 29.4-8.64M690 666v2l2-1z" fill="#E4E6E6"/><path d="M673 495h1c1.16 7.47-2.75 12.12-7 18-6.34 8.58-16.17 15.82-26 20h-2l.18 1.91c1.69 18.71 2.17 37.27 2.14 56.03q-.01 4.63.02 9.25c.24 42.47.24 42.47-4.34 60.81h-22a404 404 0 0 1-4-49l-.03-1.98c-.42-25.73.59-51.33 2.03-77.02l-2.47-1.21-6.48-3.2c-10.93-5.71-19.77-15.45-25.05-26.59-.19-3.34-.19-3.34 0-6q1.76 1.42 3.5 2.88l1.97 1.61L586 502v2l1.82.84c2.18 1.16 2.18 1.16 5.06 3.78 11.16 9.8 22.69 13.93 37.37 13.69 15.26-1.27 29.49-12.16 39.31-23.31l1.94-2.31z" fill="#000"/><path d="M695.38 136.46c8.38 4.92 12.45 10.84 16.62 19.54l1 2c.9 11.58-.04 21.47-7.5 30.81-7.3 7.62-16.8 11.23-27.19 11.5-10.29-.15-16.82-3.98-24.18-11-7.5-8.12-8.78-17.44-8.52-28.1.35-5.54 2.21-9.7 5.4-14.2q1.09-1.62 2.24-3.26c11.67-11.67 27.18-14.56 42.13-7.29m-41.94 10.47C649.3 152.85 649.17 159 650 166c2.24 7.36 6.62 12.75 13 17 6.01 2.93 12.82 3.06 19.27 1.41 6.57-2.84 12.18-8.72 14.93-15.27 1.76-6.93 2.47-15.29-1.27-21.64-3.97-5.25-8.6-9.49-14.93-11.5-12.9-1.47-19.29 1.4-27.56 10.93" fill="#EFCA54"/><path d="M583.95 135.62 586 137l2.54 1.66c7.04 5.07 11.97 11.36 14.1 19.9 1.45 9.78.07 18.86-5.49 27.21-6.37 7.7-13.67 12.81-23.76 13.8-11.17.62-19.1-1.05-27.69-8.59-7.32-7.42-10.06-15.59-10.33-25.92.08-8.9 2.85-15.76 8.71-22.44 10.28-9.8 26.68-14.34 39.87-7m-39.56 9.28c-4.34 6.55-4.34 13.47-3.39 21.1 1.74 6.75 6.45 11.05 12 15 5.96 3.36 11.51 4.05 18.14 2.5 7.13-2.39 11.28-5.98 14.67-12.63 2.87-6.1 4.15-11.13 3.2-17.87-2.79-7.59-6.94-13.07-14-17-11.24-4.94-23-.09-30.62 8.9" fill="#EDC74E"/><path d="M740 470h1c-.8 34.11-4.53 65.44-16.21 97.81q-1.1 3.07-2.17 6.16a254 254 0 0 1-6.24 16.28 106 106 0 0 0-4.59 13.18 75 75 0 0 1-2.69 7.22 129 129 0 0 0-5.1 15.79l-.77 2.92c-3.02 12.05-4.65 24.33-6.23 36.64-3.88-1.15-7.09-2.13-10-5-.84-7.87 1.78-16.41 3.69-24l.81-3.28c3.49-13.95 7.48-27.57 12.82-40.93 3.22-8.04 6.03-16.21 8.85-24.4q1.17-3.38 2.39-6.77A676 676 0 0 0 726 530l.64-2.04c3.85-12.5 6.39-25.27 8.95-38.08l.44-2.19 1.18-5.95c.83-3.94 1.79-7.83 2.79-11.74" fill="#000100"/><path d="M512 471c1.89 3.33 2.62 6.47 3.33 10.21l.72 3.74.38 1.97q.98 5.13 2.01 10.26l.41 2.06c3.87 19.49 9.66 38.02 16.15 56.76l1.99 5.8q3.73 10.86 7.82 21.58C567.7 643.66 567.7 643.66 565 661c-1.88 2.73-3.77 4.19-7 5l-3-1-.33-3.41c-2.31-22.72-8.01-44.16-15.92-65.53l-.91-2.47q-3.15-8.48-6.46-16.9l-2.6-6.69q-1.02-2.63-2.08-5.25c-7.04-18.36-11.38-38.25-13.7-57.75l-.39-3.24c-1.06-10.86-.7-21.86-.61-32.76" fill="#000101"/><path d="M758 19h2c1.17 3.51 1.14 6.66 1.13 10.31l.01 2.27.01 7.56.01 5.41.01 14.71.01 12.28.01 28.97.02 29.89.03 40.98v14.42l.01 5.29v7.22l.01 2.11A32 32 0 0 1 759 212l-.31 2.75c-1.8 8.48-7.15 17.58-13.69 23.25h-2l-.76 1.78c-3.07 5.5-8.94 9.09-14.24 12.22-6.49 4.16-6.49 4.16-7.55 8-.3 8.66 3.03 17.25 6.55 25l1.94 4.94c1.78 4.49 3.84 8.77 6.06 13.06l3 6 1.68 3.33c5.71 11.32 10.89 22.45 14.32 34.67 1.25 3.93 2.5 7.83 4.12 11.62 1.14 3.09 1.43 6.13 1.88 9.38l1 3.5c1 3.51 1.48 6.89 2 10.5l1.06 3.56c.92 3.37 1.02 5.98.94 9.44l.5 2.44c.63 3.21.5 6.29.5 9.56l1 3q.14 3.69.12 7.38l.01 3.96A44 44 0 0 1 766 430q-.28 2.09-.5 4.19l-.26 2.33q-.26 2.6-.42 5.21l-.2 2.71-.14 2.49C764 449 764 449 761 451q-.04-2.68-.06-5.38l-.04-3.02c.08-2.81.28-5.47.6-8.25 1.06-10.06.64-20.25.5-30.35l-.02-2.23c-.53-34.85-15.72-70.63-31.96-100.85-6.01-11.38-12-24.32-12.4-37.36l-.14-3.37c1.03-6.31 7.03-9.49 11.9-13.13l3.46-2.65 5.32-4.04c11.06-8.82 17.01-22.6 18.84-36.37.31-6.04.31-12.07.32-18.12l.03-5.47q.04-7.39.05-14.78l.07-15.48q.08-14.63.12-29.27l.14-33.33z" fill="#E6E9E7"/><path d="M526.13.96A55 55 0 0 1 532 6l3.09 2.78c3.7 3.33 7.38 6.7 10.9 10.22l3.45 2.87a31 31 0 0 1 5.19 5.32c1.77 2.34 3.85 3.33 6.37 4.81q2.04 1.97 4 4 1.71 1.5 3.44 2.94c3 2.54 5.77 5.27 8.56 8.06q1.4 1.07 2.8 2.2 1.1.87 2.2 1.8v2c3.76 2.44 7.53 2.31 11.86 2.34l2.38.03q3.9.05 7.8.07l2.7.02q7.08.06 14.16.07 7.29.04 14.58.15 5.61.06 11.24.06l5.37.06c15.76.26 15.76.26 20.87-4.17A81 81 0 0 0 676 48q1.6-1.49 3.23-2.92l2.96-2.7 1.5-1.37a204 204 0 0 0 6.87-6.6 85 85 0 0 1 7.32-6.35 224 224 0 0 0 13.68-12.12C728.86-.38 728.86-.38 740.54-.2c6.3.53 11.2 4.8 15.46 9.2 2.37 3.55 3.08 5.11 2.69 9.37l-.7 2.63h-1q-.26-1.48-.55-3C755 12.98 751.83 9.45 748 6c-4.9-2.6-10.55-2.79-16-2-5.84 2.13-10.07 5.73-14.28 10.2a74 74 0 0 1-5.34 5c-3.71 3.18-7.3 6.47-10.88 9.8q-6.13 5.72-12.48 11.23c-3.42 3-6.76 6.07-10.11 9.14L676 52l-1.4 1.75c-3.7 4.14-6.96 5.66-12.54 6.14-4.1.2-8.18.24-12.3.25l-5.37.06q-5.62.06-11.26.04-7.15.01-14.32.2-5.56.08-11.11.07-2.64 0-5.28.08c-8.93.22-15.57-.07-22.51-6.16a130 130 0 0 1-6.56-6.93 55 55 0 0 0-5.6-5.25A538 538 0 0 1 559 34.5a546 546 0 0 0-8.81-7.8 238 238 0 0 1-7.26-6.59c-17.47-16.49-17.47-16.49-29.88-16.4-4.37.41-6.52 1.71-10.05 4.3l-2.44 1.74L499 11c.32-2.95.96-3.96 3.13-6.06 7.06-4.76 15.69-7.73 24-3.98" fill="#DFE2E1"/><path d="m809.81 567.94 6.2.06v1h-5q-.22.85-.42 1.73c-2.06 7.76-5.6 14.34-9.59 21.27l-1.48 2.67A135 135 0 0 1 795 602l-1.96 2.99c-3.78 5.25-6.5 8.53-13.04 9.7q-3 .25-6 .3c-.46.03-.46.03-2.77.1q-3.12.03-6.23-.1 1.06-1.01 2.15-2.1a143 143 0 0 0 8.41-9.33l1.42-1.65a74 74 0 0 0 6.23-8.32l1.8-2.6h2l.28-1.62c.92-3.07 2.43-5.5 4.08-8.24a76 76 0 0 0 5.04-9.45c1.6-2.68 1.6-2.68 3.85-3.55 3.2-.15 6.35-.22 9.55-.2" fill="#000101"/><path d="M583.95 135.62 586 137l2.54 1.66c7.04 5.07 11.97 11.36 14.1 19.9 1.3 8.7.24 16.47-3.64 24.44a72 72 0 0 1-8 9l-1-4h2v-2h2v-2h2l2-10h2v-18h-2l-1-5-3 2-1-9-7-2v2h4q.09 5.25.12 10.5l.05 2.98c.04 5.88-.47 10.88-2.17 16.52l-4 1v3h-2v2h-2v2h-4v2c-6.07 2.16-11.6 2.21-18 2v-2h-8v-4h-2v-2h-2v-2h-2v-2h-4v6h2l-1 4c-5.6-6.37-5.69-14.83-5.44-22.92.63-8.36 4.8-14.89 10.75-20.58 10.25-8.13 25.5-11.63 37.64-4.88m-39.56 9.28c-4.34 6.55-4.34 13.47-3.39 21.1 1.74 6.75 6.45 11.05 12 15 5.96 3.36 11.51 4.05 18.14 2.5 7.13-2.39 11.28-5.98 14.67-12.63 2.87-6.1 4.15-11.13 3.2-17.87-2.79-7.59-6.94-13.07-14-17-11.24-4.94-23-.09-30.62 8.9" fill="#D7BD6C"/><path d="M489 431h1l1.44 10 .41 2.83q1.16 8.08 2.15 16.17c-6.53-.9-6.53-.9-9.32-1.51-11.98-2.18-20.09.07-29.93 6.7-5.99 6.12-9.65 13.56-11.75 21.81l-.62 2.38c-7.41 33.5 4.83 71.51 22.62 99.62 2.2 3.13 4.47 6.13 7 9l-1 2c-3.52-1.17-3.84-1.89-5.75-4.94a207 207 0 0 0-6.94-10.18A52 52 0 0 1 452 573q-.99-2.29-2-4.56l-1.02-2.31q-1.26-2.69-2.67-5.32c-1.4-3-1.83-5.55-2.31-8.81q-.98-3-2-6a81 81 0 0 1-2.75-14.92c-.25-2.1-.73-4.03-1.25-6.08-2.87-17.93-.97-40.76 9.56-55.94a40 40 0 0 1 10.82-9.62l2.83-1.82c7.85-4.56 14.57-5.38 23.35-3.18q2.73.75 5.44 1.56l-.4-1.94c-2.08-10.18-2.08-10.18-2.6-15.06l1-1q.55-3.5 1-7" fill="#E2E4E3"/><path d="M622.94 183.56h3.59c3.93.5 7.59 1.56 10.47 4.44.4 4.16.44 6.32-1.87 9.87C633 200 633 200 631 201l-2 7c-2 2-2 2-4.94 2.31-3.06-.3-3.06-.3-4.87-1.44-1.2-1.87-1.2-1.87-1.56-4.8-.81-3.98-2.4-4.79-5.63-7.07-2-3-2-3-1.94-5.94 2-6.5 6.58-7.6 12.88-7.5" fill="#656866"/><path d="M758 19h2c1.11 3.34 1.13 5.84 1.13 9.36l.01 1.97.01 6.53.01 4.68.01 12.75v7.99l.02 27.95.02 25.91.03 35.62c.04 18.19-.02 36.16-2.24 54.24h-1z" fill="#F2F4F4"/><path d="M809 540h1q-.17 3.1-.38 6.19l-.21 3.48A27 27 0 0 1 807 558q-.56 2.49-1 5l2.62-.06c3.38.06 3.38.06 6.32.62 4.62.66 8.66-.09 13.06-1.56q2.62-.08 5.23-.03c8.68.07 17.34-.3 26.02-.61 29.4-1.03 29.4-1.03 37.75.64l2 2c-1 1-1 1-2.98 1.11l-2.64-.01-2.99-.01-3.27-.03-3.37-.01-14.31-.07c-34.44-.18-34.44-.18-43.01 1.54-2.82.56-5.52.69-8.39.8l-3.37.12-3.48.12-3.55.13-8.64.31.59-1.6 2.72-7.34.94-2.52A455 455 0 0 0 809 540" fill="#E7E7EA"/><path d="M616 662h20l-.07 5.62-.05 7.38-.06 3.7c-.04 7.94-.04 15.35 4.3 22.3l1.88 3c-1.75-.12-1.75-.12-4-1-3.64-4.39-4.92-8.56-6-14l-.62-2.44c-.64-4.33-1.38-9.57.62-13.56v-3.06c0-2.94 0-2.94 1-3.94-5.02-.78-8.98-1.13-14 0l.5 1.71c.53 2.42.57 4.51.5 6.98a69 69 0 0 0 0 4.31l1 1c.31 5.11-.41 9.16-2 14l-1 3.19a48 48 0 0 1-3 6.81l-4-1 .84-1.86 1.1-2.45 1.09-2.43c1.8-4.19 2.09-7.35 2.07-11.9l-.01-3.93-.03-4.12-.01-4.15z" fill="#EFF1F1"/><path d="M498 9c1.23 3.68.28 4.69-1.27 8.06-1.21 3.2-1.15 6.43-1.13 9.81l-.02 2.3q-.02 3.8-.01 7.61l-.03 5.47q-.04 7.41-.05 14.82l-.06 15.5q-.06 14.66-.09 29.33-.04 16.7-.12 33.4-.13 34.35-.22 68.7h-1q-.5-35.77-.94-71.56-.2-16.61-.43-33.22-.2-14.48-.37-28.97l-.21-15.33q-.1-7.21-.18-14.44l-.07-5.29q-.06-3.62-.08-7.24l-.05-2.1c-.01-5.62 1.02-11.36 4.93-15.58z" fill="#F0F2F0"/><path d="M695.38 136.46c8.38 4.92 12.45 10.84 16.62 19.54l1 2q.11 3.81.06 7.62v2.14L713 173h-1l-.12-2.64c-.63-11.13-.63-11.13-3.88-16.36v-2h-2v-4h-2v-2h-2v-2h-2v-2h-2v-2h-4v-2l-2 2v2h2v2h2v2h2c2.06 6.53 1.98 11.74 1.12 18.5l-.3 2.78L698 174h-2v2h-2v4h-5l1.24-1.54 1.63-2.09 1.62-2.04c4.4-6.8 4.38-14.49 3.51-22.33-2.29-6.33-7.26-11.18-13.26-14.1-5.97-1.96-13.43-2.23-19.29.11a45 45 0 0 0-5.45 4c-.42.28-.42.28-2.5 1.8l-1.5 1.2v-3c2.01-1.77 2.01-1.77 4.68-3.58q1.3-.9 2.64-1.8c10.06-6.1 22.72-5.2 33.06-.17" fill="#D0B979"/><path d="M489 431h1l1.44 10 .41 2.83q1.16 8.08 2.15 16.17c-6.53-.9-6.53-.9-9.32-1.51-11.98-2.18-20.09.07-29.93 6.7-8.08 8.27-11.72 18.49-12.75 29.81h-1c-1.91-9.7.74-16.81 6.06-25 3.23-4.65 6.52-7.52 11.32-10.56l2.83-1.82c7.85-4.56 14.57-5.38 23.35-3.18q2.73.75 5.44 1.56l-.4-1.94c-2.08-10.18-2.08-10.18-2.6-15.06l1-1q.55-3.5 1-7" fill="#E4E5E6"/><path d="m553 136 2 1-1.83 1.25c-5.32 3.85-9.6 7.17-11.17 13.75-.69 7.61-.33 14.72 2 22h-4v6h2l-1 4c-5.6-6.37-5.69-14.83-5.43-22.92.64-8.6 4.93-15.06 11.18-20.77A33 33 0 0 1 553 136" fill="#E1C56A"/><path d="M654 144c0 3 0 3-1.5 5.94a25.3 25.3 0 0 0-.41 18.99A97 97 0 0 0 656 176l1 2-4 1-1 5h2l-1 4c-7.19-7.69-7.76-16.82-7.43-26.88.5-6.9 3.41-12.43 8.43-17.12" fill="#E1C877"/><path d="m763 395 3 1-.04 2.3-.02 3.01-.04 2.99c.1 2.7.1 2.7 1.1 5.7q.14 3.69.12 7.38l.01 3.96A44 44 0 0 1 766 430q-.28 2.09-.5 4.19l-.26 2.33q-.26 2.6-.42 5.21l-.2 2.71-.14 2.49C764 449 764 449 761 451q-.04-2.68-.06-5.38l-.04-3.02c.08-2.7.26-5.24.57-7.91.82-7.75.89-15.54 1.09-23.31l.13-4.78z" fill="#E8EBE9"/><path d="m836.13 607.44 6.88.56c-3.7 2.35-7.44 2.4-11.7 2.56-7.18.32-7.18.32-8.3 1.44q-2.97.01-5.9-.06c-2.2.06-4 .5-6.1 1.06q-2.48.29-4.94.5c-3.43.32-6.7.79-10.07 1.5-5.48.96-8.75 1.23-14-1v-1q7.41-1.06 14.84-2.08l5.02-.71c25.05-3.52 25.05-3.52 34.26-2.77" fill="#E1E2E3"/><path d="M760 384h1c4.08 18.51 4.31 42.49 0 61l-2 1c-.62 2.56-.62 2.56-1 5h-1l.18-2.48q.73-9.86 1.32-19.71l.12-2.08.5-8.45.38-6.28.22-3.72c.24-2.84.65-5.5 1.28-8.28h-2c0-5.46.18-10.59 1-16" fill="#232523"/><path d="M565 662v8l-1.98.92c-9.09 4.36-14.93 8.56-19.02 18.08a38 38 0 0 0-1.06 10.31A272 272 0 0 0 543 704l-3-1c-1.44-8.14-.8-14.8 3.88-21.81L546 679l2.5-2.62A56 56 0 0 1 555 671l-1-4 4.38-2.5 2.46-1.41C563 662 563 662 565 662" fill="#EDEEEF"/><path d="M840 686c4.82.65 9.37 1.91 14.02 3.28 8.84 2.14 17.94 2.03 26.98 2.28l4.37.13L896 692l-1 3-13.45.05-4.58.03-6.58.02-4 .01A27 27 0 0 1 859 694l-3.19-.38c-5.71-.93-10.97-2.39-15.81-5.62z" fill="#EEF0EF"/><path d="M541 184h3v2h2v2h2v3l2.31.31c2.69.69 2.69.69 4 2.19 2.8 2.49 6.03 2.2 9.69 2.5v2h11l-1-3c1.11-1.49 1.11-1.49 3-3 2.92-.29 2.92-.29 6.19-.19l3.29.08 2.52.11c-4.28 4.96-9.06 7.01-15.45 7.5-9.73.28-17.73-.01-25.55-6.5a55 55 0 0 1-7-8z" fill="#E4C664"/><path d="M812 502h3c1.11 6.57.73 12.41 0 19l-.44 5.81A42 42 0 0 1 812 538a166 166 0 0 0-1 7l-3-2c.41-5.03.95-9.94 2-14.88 1.66-8.58 1.68-17.41 2-26.12" fill="#D9DCDA"/><path d="M694 138v2h4v2h2v2h2v2h2v2h2v4h2l-2 4c-2.88-.25-2.88-.25-6-1-2.24-2.86-2.2-5.46-2-9h-2v-2h-2v-2h-2v-2l-2-1c2-1 2-1 4-1" fill="#EEC350"/><path d="M746.19 1.13c5.6 3.74 10.6 7.24 12.8 13.88-.3 3.37-.3 3.37-1 6h-1q-.26-1.5-.55-3c-1.41-4.94-4.53-8.77-8.44-12-4.4-1.92-8.12-2.23-12.87-2.13q-1.72.04-3.5.04L729 4V1c5.7-1.62 11.58-1.85 17.19.13" fill="#DDE0DD"/><path d="m687 135 5 2v5h2v2h2v2h2c2.06 6.54 1.98 11.74 1.12 18.5l-.31 2.78L698 174h-2v2h-2v4h-5l1.24-1.54 1.64-2.08 1.61-2.04c4.4-6.81 4.38-14.5 3.51-22.34-1.18-3.16-2.81-5.46-5-8l-1.67-2.04A169 169 0 0 0 686 137z" fill="#D7B566"/><path d="M805 470c3.56 3.09 4.63 5.55 6 10l1.11 3.2c3.26 10.54 2.97 19.89 1.89 30.8h-1l-.21-2.21q-.5-5.06-1.04-10.1l-.33-3.48A75 75 0 0 0 806 477q-1.02-3-2-6z" fill="#E4E7E3"/><path d="M489 431h1l1.44 10 .41 2.83q1.16 8.08 2.15 16.17a168 168 0 0 1-12-2v-2h8l-.4-1.94c-2.08-10.18-2.08-10.18-2.6-15.06l1-1q.55-3.5 1-7" fill="#D9DBDA"/><path d="m687 661 2.12 1.17A416 416 0 0 0 706 671v2l-9-2 1 2c-4.13-.61-7.33-2.04-11-4zm3 5v2l2-1z" fill="#EBEEED"/><path d="m540 184 2 2.12c7.56 7.54 15.2 12.08 25.88 13.07l2.37.25 5.75.56v1c-7.75.1-15.31.06-23-1l1-3-6-1v-2h-4v-4h-8z" fill="#191007"/><path d="m811 610 1 2a80 80 0 0 1-16 2.75c-2 .25-2 .25-3 1.25-4.14-.39-7.35-1.03-11-3l10.56-1.5 3-.43c5.2-.73 10.19-1.25 15.44-1.07" fill="#E0E1E3"/><path d="m694 192 5 1c-3.68 4.55-9.43 6.08-15 7-8 .69-14.93.06-22-4l-1-2 13 2v1c13.63.37 13.63.37 20-2z" fill="#D2BE6B"/><path d="M548 174h4v2h2v2h2v2h4v2l3.12-1a29 29 0 0 1 9.88-1v3c-8.01 2.19-13.63 1.2-20.93-2.71C550 179 550 179 548 177z" fill="#261A08"/><path d="M654 144c0 3 0 3-1.5 5.94-2.92 6.47-2.03 14.3-.5 21.06-1.71-1.63-2.93-2.87-4-5l-1 5h-1c-.59-9.17-.38-16.29 5-24a61 61 0 0 1 3-3" fill="#DCC87A"/><path d="M709 182c1.31 3.94.24 6.12-1 10l-6 1v3l-1.75.25c-2.25.75-2.25.75-3.87 2.87-2.96 2.34-3.97 2.01-7.63 1.63A151 151 0 0 1 684 200v-1l1.87-.45c10.43-2.76 17.26-7.48 23.13-16.55" fill="#281A09"/><path d="m763 656 2 1c-.19 9-.19 9-3.38 12.94L759 672l-1.39 1.52c-1.92 1.76-3.58 2.45-6.05 3.29l-2.31.83c-2.76.44-3.92-.18-6.25-1.64l2.48-.73 3.27-1.02 3.23-.98c4.41-1.85 6.41-4.35 9.02-8.27.38-2.01.38-2.01.56-4.12C762 657 762 657 763 656" fill="#E8EBE8"/><path d="M601 162h1c.62 11.07-.45 18.09-7.75 26.56A176 176 0 0 1 591 192l-1-4h2v-2h2v-2h2l2-10h2l-.04-2.12-.02-2.76-.04-2.74c.1-2.38.1-2.38 1.1-4.38" fill="#EACB70"/><path d="M617 676h1l.15 2.15.23 2.79.21 2.77.41 2.29 2 1c-3.42 12.2-3.42 12.2-6 17l-4-1 .84-1.86 1.1-2.45 1.09-2.43c1.86-4.33 2.27-8.3 2.53-12.95l.13-2.12z" fill="#E1E3E4"/><path d="M967 654c0 6.1-5.82 11.74-9.91 15.98-3.14 2.79-6.02 4.79-10.09 6.02 1.4-3.28 2.99-5.07 5.75-7.31a70 70 0 0 0 8.93-9.11A72 72 0 0 1 967 654" fill="#E4E7E6"/><path d="M439 490h2l-1 32-2-1c-1.13-5.26-1.01-10.19-.62-15.5l.13-2.18c.29-4.48.8-8.88 1.49-13.32" fill="#EAEDEC"/><path d="m657 178 1.64 1.06 2.17 1.38 2.15 1.37c5.28 3.08 11.11 2.75 17.04 2.19a48 48 0 0 0 9-4c-1.88 4.88-1.88 4.88-3 6a95 95 0 0 1-5.35.1l-3.27-.01-3.44-.03-3.46-.01L662 186v-2h-2v-2h-2z" fill="#D5C073"/><path d="M761 373c1.91 3.22 2 5.32 2 9l1.05 3.17c1.04 4.21.79 7.57.07 11.77l-.31 2.07q-.39 2.5-.81 4.99h-1l-.15-2.93c-.39-6.81-.85-13.29-2.55-19.92-.37-2.61.02-4.61.7-7.15z" fill="#DFE1DF"/><path d="M809 540h1q-.17 3.1-.38 6.19l-.21 3.48A27 27 0 0 1 807 558l-.31 2.12c-1.04 2.84-3.09 3.55-5.69 4.88a62 62 0 0 1 2.63-9.86l.95-2.69.98-2.76 1-2.82z" fill="#DEE0E1"/><path d="M686 180c-1 3-1 3-3.18 4.18-3.12.91-5.7 1.05-8.94 1.01l-3.14-.02C668 185 668 185 665 184v-2l2.38-.15c9.64-.68 9.64-.68 13.74-1.97C684 179 684 179 686 180" fill="#2E270F"/><path d="M586 153h3c.61 7.94-.27 15.3-5.38 21.74-1.37 1.38-1.37 1.38-3.62 3.26v-4h2l.44-2.31C583 169 583 169 584 166h2z" fill="#30230B"/><path d="M568.31 132.81q1.12 0 2.26-.04c4.54 0 8.15.51 12.43 2.23l-2 4a31 31 0 0 1-7.38-2.63c-6-2.36-12.37-1.1-18.62-.37 3.8-3.8 8.27-3.19 13.31-3.19" fill="#C0B280"/><path d="M593 144c3.89 1.3 4.23 2.69 6.12 6.25l1.58 2.89c2.02 4.45 2.43 8.32 2.36 13.17l-.02 2.68L603 171h-1l-1-7h-1v-8h-2l-1-5-3 2z" fill="#C9AF61"/><path d="M487 407h1l1 31c-3-3-3-3-3.26-4.88l.14-2.12c.14-3.61-.07-6.98-.5-10.56-.52-4.99.09-8.68 1.62-13.44" fill="#EFF1F2"/><path d="m553 136 2 1-1.83 1.25c-6.38 4.61-10.31 8.55-11.62 16.48q-.4 3.63-.55 7.27h-1l-.38-2.44L539 157l-2-1c2.3-9.2 8.36-14.88 16-20" fill="#B9AF93"/><path d="m537 156 3 1 2 11h-2l-1-3-1 12c-2.17-4.35-2.27-7.48-2.19-12.19v-2.23c.05-5.44.05-5.44 1.19-6.58" fill="#E0C87A"/><path d="m500 639 2 2-1.64 1.69c-6.28 6.69-9.21 12.08-10.36 21.31l-2-1c-.51-6.33-.21-9.95 4-15q3.94-4.56 8-9" fill="#EBEDEE"/><path d="M489 389h1l-1 38h-1l-.08-1.69-.36-7.75-.12-2.66c-.24-5.02-.62-9.97-1.28-14.95-.22-2.76.22-5.27.84-7.95h2z" fill="#DBDCDE"/><path d="M634 677h1l.26 3.62c1.38 16.39 1.38 16.39 6.74 23.38-3.28-.6-3.87-.85-6.12-3.56-2.14-3.91-3.07-7.07-3.88-11.44l1-1q.34-2.77.56-5.56l.26-3.07z" fill="#DCDFE0"/><path d="M898 564c8.08-.64 14.49 1.11 22 4v3l-8.75-1.94-2.5-.55-2.42-.54-2.22-.49q-3.07-.7-6.11-1.48z" fill="#D8D9D9"/><path d="M541 184h3v2h2v2h2v3l2.31.31c2.69.69 2.69.69 4 2.19 2.8 2.49 6.03 2.2 9.69 2.5l-1 3c-6.93-.36-13.08-4.16-17.98-8.92-4.02-4.62-4.02-4.62-4.02-6.08" fill="#D8BF71"/><path d="M696 152h2c.63 16.83.63 16.83-4.69 22.94L692 176v-6h2z" fill="#22170A"/><path d="m693 35 1 4c-1.12 1.44-1.12 1.44-3 3l-2.44 2.5A52 52 0 0 1 682 50l-2-3z" fill="#191A1A"/><path d="m448 469 3 1-.99 1.43c-4.95 7.49-7.2 14.67-8.01 23.57h-1c-1.76-8.95.24-16.07 5.25-23.69z" fill="#DADCDC"/><path d="M711 154h3v6h2q.12 3.18.19 6.38l.1 3.58L716 173l-3 2-.18-3.58-.26-4.67-.12-2.36-.23-4.38c-.22-2.08-.66-4-1.21-6.01" fill="#171109"/><path d="M875 643v1h-25l1-2c7.74-1.72 16.72-2.37 24 1" fill="#EDEEF1"/><path d="M910 612c5.84.53 10.03 3.91 13.94 8.06C925 622 925 622 925 626c-1.88-.69-1.88-.69-4-2l-.88-2.44c-1.56-3.56-3.6-4.12-7.12-5.56l-3-1z" fill="#E3E6E5"/><path d="M702 144c1.8.16 1.8.16 4 1 1.67 2.43 1.67 2.43 3.19 5.44l1.54 2.99L712 156l1 2q.1 3.81.06 7.62l-.01 2.15L713 173h-1l-.11-2.63c-.64-11.14-.64-11.14-3.89-16.37v-2h-2v-4h-2v-2h-2z" fill="#D0B976"/><path d="m890.19 561.31 3.73.24C897 562 897 562 899 564c-1 1-1 1-2.93 1.13-6.08-.02-12.03-.4-18.07-1.13v-2c4.19-1.06 7.9-.99 12.19-.69" fill="#EEEEF3"/><path d="m544 684 2 1-.66 1.62c-2.22 5.95-2.7 11.06-2.34 17.38l-3-1c-1.54-7.08-.61-11.73 3-18z" fill="#EBEBED"/><path d="M973 620c2.41 3.62 3.14 5.24 3.12 9.5l.01 2.41C976 634 976 634 975 636v4h-2c-1.41-6.74-.67-13.19 0-20" fill="#EFF0F0"/><path d="m763 395 3 1-1 28h-1c-.76-9.7-1.14-19.26-1-29" fill="#F4F7F5"/><path d="M592 140h2v2l4 1v5h2c2.73 2.73 3.92 4.31 4.38 8.19C604 159 604 159 602 161l-.45-1.65a46 46 0 0 0-7.25-14.4C593 143 593 143 592 140" fill="#241A07"/><path d="M537 675c-5.87 3.91-14.12 3.62-21 3a83 83 0 0 1-4-2q4.56-.55 9.12-1.06l2.6-.32c4.66-.52 8.66-.7 13.28.38" fill="#EBEBEC"/><path d="M967 606h3l1.94 4.75 1.09 2.67c.82 2.19 1.46 4.3 1.97 6.58h-2v13h-1l-.08-2.86c-.38-8.68-1.66-15.99-4.92-24.14" fill="#DEDFDD"/><path d="M755 358c3 1 3 1 4.12 2.94 1.23 4.3 1.55 8.61 1.88 13.06l-2 1-2-6.25-1.12-3.52C755 362 755 362 755 358" fill="#F0F3EF"/><path d="M495 210h2l.75 3.38c1.25 5.07 3.22 9.81 5.25 14.62h-3c-6.32-10.54-6.32-10.54-5.62-15.88z" fill="#DADCDD"/><path d="M698 154h1c.18 13.63.18 13.63-1 20h-2v2h-2v4h-5l1.24-1.54c6.21-7.93 7.15-14.54 7.76-24.46" fill="#BFA45A"/><path d="M648 168h2a49 49 0 0 1 3.62 4.5l1.92 2.53L657 177a47 47 0 0 1-7 3v-8h-2z" fill="#E5C969"/><path d="M541 152h1v10h2v2h2v10c-3.82-3.82-4.9-6.16-5.2-11.55l.08-3.76.05-3.8z" fill="#30230C"/><path d="M760 654h1q.12 2.84.19 5.69l.1 3.2c-.33 3.52-1.14 5.32-3.29 8.11l-3 1-2-2 1.94-1.56c2.65-3.13 2.64-5.41 3.06-9.44 1.06-2.94 1.06-2.94 2-5" fill="#212422"/><path d="M957 591c4.75 1.38 6.55 3.6 9.31 7.62l2.12 3.04L970 604l-1 2c-4.05-1.35-4.83-3.38-7.12-6.94l-2.14-3.27C958 593 958 593 957 591" fill="#E7E9EA"/><path d="M720 272h2l.55 1.72c1.59 4.89 3.35 9.59 5.45 14.28l-3 1q-1.26-2.84-2.5-5.69l-1.41-3.2c-1.04-2.97-1.32-5-1.09-8.11" fill="#ECEFEC"/><path d="M547 138c0 3.53-.5 3.89-2.81 6.38A44 44 0 0 0 538 153c-2.29-3.44-2.18-4.99-2-9l1.77.71c2.23.29 2.23.29 4.15-1.14l1.83-2.01 1.86-1.99z" fill="#11100A"/><path d="M760 445h1l1 12 5 1v1l-9 2z" fill="#D6D9D7"/><path d="m777.31 453.88 3.8.05 2.9.06v3c-3.15.18-3.15.18-19 1v-2c4.21-2.04 7.64-2.2 12.3-2.12" fill="#ECEEEE"/><path d="M645 162h1l2 18h-3l-1 2h-2c-.25-4.53-.25-4.53.97-6.81 1.27-2.7 1.44-4.98 1.65-7.94l.23-2.98z" fill="#342E1D"/><path d="m514.75 1.38 2.98.34L520 2v1l-2.56.23c-7.74.9-12.78 2.34-18.44 7.77.81-4.24 2.46-5.52 6-8 3.44-2.16 5.76-2.1 9.75-1.62" fill="#D6DAD6"/><path d="m673.69 134.44 3 .3 2.3.26v1l-2.33.05c-7.28.33-11.93 1.45-17.66 5.95l-2.5 1.82L655 145v-3c2.08-1.8 2.08-1.8 4.8-3.62l2.72-1.85c4.02-2.47 6.58-2.58 11.17-2.1" fill="#9F9672"/><path d="M525 250c3.91 1.3 6.54 2.63 9 6 .25 3.75.25 3.75 0 7l-2 1-.69-3.81c-.81-3.36-.97-3.95-3.93-6L525 253z" fill="#E9EBEB"/><path d="M654 144c0 3.23-.89 5.24-2.2 8.15A81 81 0 0 0 649 160h-2c-.87-5.69 1.44-8.7 4.59-13.14C653 145 653 145 654 144" fill="#D1C89C"/><path d="M742 1v2l-13 1V1c4.14-1.33 9.03-1.98 13 0" fill="#ECEEEE"/><path d="M812 490c3.53 5.29 3.04 10.15 2.56 16.31l-.16 2.25q-.18 2.72-.4 5.44h-1c-.8-8.03-1.13-15.94-1-24" fill="#F2F4F0"/><path d="m754 217 2 4a33 33 0 0 1-6 11v-2l-2-1z" fill="#D7DAD8"/><path d="m498 349 2 2c-.43 3.54-1.52 6.91-2.56 10.31l-.82 2.68L496 366c-2.08-3.43-2.08-3.43-1.72-5.95L495 358l.75-2.36.81-2.39.82-2.42z" fill="#DFE0E2"/><path d="M513 0h11l2 4-2.5-.44A297 297 0 0 0 512 2z" fill="#F3F6F3"/><path d="m831 674 1.69 2.19A95 95 0 0 0 840 684l2 2-3 1a32 32 0 0 1-8-7c-.5-3.44-.5-3.44 0-6" fill="#DDE0DF"/><path d="M490 658h1l.26 2.01c.96 6.01 1.92 9.19 6.74 12.99-4 0-4 0-6.81-2.44-2.28-2.89-2.41-4.81-2-8.44q.35-2.07.81-4.12" fill="#DADCDD"/><path d="m795 612-2 4c-4.06-.47-7.47-.88-11-3a60 60 0 0 1 13-1" fill="#D4D6D5"/><path d="m878 606 5.25-.12 2.95-.08c2.8.2 2.8.2 6.8 2.2l-15 1z" fill="#EFF2F3"/><path d="M586 144h4v20h-1l-1-18h-2z" fill="#E5C369"/><path d="M563 134c4.97.41 9.45.8 14 3l-2 2c-2.38-.24-2.38-.24-5.12-.88l-2.76-.61L565 137v-2z" fill="#2E2211"/><path d="m491 655 3 2c.51 2.6.51 2.6.69 5.62l.2 3.04.11 2.34h-3c-1.32-2.64-1.1-4.68-1.06-7.62l.02-3.04z" fill="#282A2C"/><path d="M490 391h1l1 10h-2v14h-1a1083 1083 0 0 1-.09-10.34A78 78 0 0 1 490 391" fill="#37383A"/><path d="M534 259h1l1 5h1c.37 7.38.37 7.38-1.5 10.5L534 276c-1.23-3.68-.91-6.91-.56-10.75l.31-3.55z" fill="#2D2F30"/><path d="M774 614h12v2l-7 2v-2h-6z" fill="#E3E4E4"/><path d="m825 563 3 1q2.09.1 4.19.06L836 564v1c-6.03 1.07-11.89 1.1-18 1v-2c2.51-1.25 4.22-1.14 7-1" fill="#F2F2F4"/><path d="M754 8c3.03 2.45 3.94 3.77 4.88 7.62L759 19l-2 2-.88-3.19A78 78 0 0 0 753 9z" fill="#E7E8E8"/><path d="m862.94 563.9 3.62.04 3.63.02 2.81.04c-2 3-2 3-3.88 3.81-2.66.24-3.8-.5-6.12-1.8a71 71 0 0 0-4-1c1-1 1-1 3.94-1.1" fill="#0D0E0F"/><path d="M753 355c2.21 3.8 3.01 7.76 4 12-1.88-.56-1.88-.56-4-2-1.25-3.62-1.25-3.62-2-7h2z" fill="#2D312C"/><path d="m597 181 2 2-8 9-1-4h2v-2h2v-2h2z" fill="#DFC56B"/><path d="m688 174 4 1c-1.38 3.34-2.85 5.19-6 7l-3-1 1.38-1.25A19 19 0 0 0 688 174" fill="#1B1407"/><path d="M700 136h2l1 3a23 23 0 0 0 4 2l-1 3h2v2a19.4 19.4 0 0 1-8-6z" fill="#181103"/><path d="m504 6 3 2-1.5 1.24-1.94 1.64-1.93 1.61C500 14 500 14 499 16h-2c1.39-4.43 3.61-6.87 7-10" fill="#1D201C"/><path d="m687 661 6 3c-1.31 2.5-1.31 2.5-3 5h-3z" fill="#D8DBD9"/><path d="m774.19 615.44 2.73.3 2.08.26-1 2h-11l-1-2c3.2-1.06 4.89-.95 8.19-.56" fill="#EEEFEC"/><path d="M809 540h1l-1 13h-3c.48-4.71.97-8.67 3-13" fill="#ECEFED"/><path d="m515 310 2 1-6 12h-1c.45-5.63 1.68-8.61 5-13" fill="#E0E2E3"/><path d="m694 192 5 1c-2.32 2.68-4.32 3.66-7.69 4.69l-2.45.76-1.86.55v-2l7-2z" fill="#DDC46B"/><path d="M829 664h1l1 13c-3.33-3.33-3.72-4.44-4-9 .94-2.38.94-2.38 2-4" fill="#F1F1F4"/><path d="m956 668 2 1c-3.56 3.15-6.41 5.51-11 7 1.05-3.28 2.64-4.6 5.5-6.31z" fill="#EDEFED"/><path d="m616 662 4 2h-2l2 5h-2l-1 4c-1.2-2.41-1.1-3.95-1.06-6.62l.02-2.48z" fill="#E7EBE5"/><path d="M504 338h2c.2 4.22-.2 7.17-2 11h-3a40 40 0 0 1 3-11" fill="#26282A"/><path d="M567 180h6v3a28 28 0 0 1-8.75 1.06l-2.42-.02L560 184v-1l2.94-.38L566 182z" fill="#41351F"/><path d="m710 173 2 1-3 10h-3v-2h2v-6h2z" fill="#DFC36C"/><path d="M711 154h3v6h2l-2 10h-1l-.18-2.48-.26-3.27-.24-3.23A40 40 0 0 0 711 154" fill="#2B1D04"/><path d="M651 151c3 6 3 6 2.44 8.16l-.88 2.46-.87 2.48-.69 1.9h-1l-.06-5.81-.04-3.27c.1-2.92.1-2.92 1.1-5.92" fill="#342C1C"/><path d="M482 456c4.55-.18 7.88 0 12 2v2a168 168 0 0 1-12-2z" fill="#CFD3CF"/><path d="m849.31 642.81 1.7 1.2c-2.7 2.67-5.39 3.05-9 4v-3c4.1-3.32 4.1-3.32 7.3-2.2" fill="#E4E6E6"/><path d="m751 624 3 1c-3.49 4-5.65 5.63-11 6 4.96-5.14 4.96-5.14 8-7" fill="#1C1F1D"/><path d="m810 534 3 3-1 3a276 276 0 0 0-1 5l-3-2c.49-3.12 1-6 2-9" fill="#E0E3E0"/><path d="M494 362h1v9l-4 1 .94-4.44.52-2.49C493 363 493 363 494 362" fill="#EAEAED"/><path d="M544 191c4.42 1.86 8.73 3.81 13 6-3.77 1.26-5.37.37-9-1v-2h-4z" fill="#2A1B0C"/><path d="M578 139c3.83 1.45 5.12 3.43 7 7h-5v-4h-2z" fill="#2B1E0D"/><path d="M582 134h8l1 3c-2.25.75-2.25.75-5 1-2.31-1.94-2.31-1.94-4-4" fill="#1B1207"/><path d="m928 683 2 1-6 5-5-2a66 66 0 0 1 9-4" fill="#D7D8D8"/><path d="M454 574c3 1 3 1 4.19 2.88.81 2.12.81 2.12.81 5.12-2.99-1.1-3.85-1.68-5.25-4.62L453 575z" fill="#EBEDEB"/><path d="m688 180 1 2c-1.19 2-1.19 2-3 4-2.69.25-2.69.25-5 0l-1-2z" fill="#DAC066"/><path d="m656 137 2 1c0 3 0 3-1.31 4.39L652 146v-5l4-2z" fill="#242315"/><path d="M693 35c.69 1.81.69 1.81 1 4-1.84 2.49-3 3-6 4 0-3 0-3 2.5-5.69z" fill="#212323"/><path d="m763 656 2 1q-.39 3.51-1 7l-2 1c-.1-6.15-.1-6.15 0-8z" fill="#F4F7F4"/><path d="m496 646 2 4c-1.31 2-1.31 2-3 4h-3a37 37 0 0 1 4-8" fill="#282A2B"/><path d="M898 564c3.31-.19 3.31-.19 7 0l3 3-10-1z" fill="#E3E4E4"/><path d="M650 144h2c-.48 4.31-1.75 6.17-5 9l1-7h2z" fill="#19160A"/><path d="m686 138-1 2h-5v-2h-6v-1c4.52-1.37 7.59-.47 12 1" fill="#291C0D"/><path d="M575 50c3.24 1.44 5.62 3.26 8.25 5.62l2.14 1.92L587 59c-3.94 0-4.82-1.31-7.69-3.94l-2.45-2.21L575 51z" fill="#101211"/><path d="M705.19 26.31q.9.33 1.8.7c-2.35 2.51-3.65 3.88-7 5 0-3 0-3 1.26-4.76C703 26 703 26 705.19 26.31" fill="#1F1F21"/><path d="M920 617c2.5 2.25 2.5 2.25 5 5v4c-1.94-.56-1.94-.56-4-2-.75-3.62-.75-3.62-1-7" fill="#D9DBDC"/><path d="M694 168h3c-1.19 3.38-2.28 5.65-5 8v-6h2z" fill="#291F0C"/><path d="M840 686c3.73.5 5.81.87 9 3-2.81.62-2.81.62-6 1l-3-2z" fill="#E7EAE7"/><path d="m542 672-1 4-7-1v-2c2.76-.6 5.16-1 8-1" fill="#D8D9D8"/><path d="m515 672 1 2c-2.52 1.26-4.31 1.1-7.12 1.06l-2.76-.02L504 675c3.75-3.16 6.09-3.28 11-3" fill="#333434"/><path d="m904 640 1 3c-6.62 1.25-6.62 1.25-10-1 6.75-2 6.75-2 9-2" fill="#EFF0F3"/><path d="M760 445h1l1 11-2 1a26 26 0 0 1 0-12" fill="#CCCECD"/><path d="m544 684 2 1-3 9-2-2c.45-5.45.45-5.45 3-8" fill="#DFE0E3"/><path d="m554 676-2 5h-2l-1 2c0-4 0-4 1.38-5.75C552 676 552 676 554 676" fill="#232526"/><path d="M809 518h1l1 10-1-2h-2q-.06-3.5 0-7z" fill="#1E2120"/><path d="M491 430h2v9l-3-1z" fill="#1C1E1F"/><path d="M596 187v5h-4v2l-4-1 3.44-3 1.93-1.69C595 187 595 187 596 187" fill="#30200D"/><path d="m704 186 3 1-7 6v-5h4z" fill="#D6BC66"/><path d="m582 170 4 1-5 7-1-4h2z" fill="#2D210B"/><path d="m687 135 5 2v4c-1.88-.25-1.88-.25-4-1-1.25-2.06-1.25-2.06-2-4z" fill="#E1C568"/><path d="M548 174h4v2h2v2h-5z" fill="#1C140A"/><path d="M708 144h2l1 7-2 1-3-6h2z" fill="#251D0D"/><path d="m662 137 2 1-8 7-2-2z" fill="#9E9E89"/><path d="m946 674 1 3-6 3-2-2z" fill="#D7DAD9"/><path d="M831 658c1.03 3.09.97 4.53.56 7.69l-.31 2.45L831 670h-1q-.33-2.43-.62-4.88l-.36-2.74L829 660z" fill="#DBDBDB"/><path d="M745 633v3l2 1-1 2-6-3c2.75-3 2.75-3 5-3" fill="#DEE0DF"/><path d="m786 455 5 5-8-2z" fill="#DCDEDD"/><path d="M750 346c2.13 3.19 2.5 5.27 3 9l-2 1-1.06-3.88-.6-2.17C749 348 749 348 750 346" fill="#232723"/><path d="m738 240 2 3-4 3-2-2zm-6 5 2 1Z" fill="#DFE2E0"/><path d="M576 177c2.12.94 2.12.94 4 2-4.75 3-4.75 3-7 3 .38-1.94.38-1.94 1-4z" fill="#2B230D"/><path d="m959 659 2 3-6 4c0-3 0-3 2-5.19z" fill="#1E2020"/><path d="M443 538c1.43 2.35 2.09 3.48 1.62 6.25L444 546l-3-4z" fill="#DADCDD"/><path d="M492 384c2 2 2 2 2.12 4.62L494 391l-3-1q-.06-2.5 0-5z" fill="#1C1F20"/><path d="M719 274c2.13 3.19 2.5 5.27 3 9h-2c-2.12-6.75-2.12-6.75-1-9" fill="#292C2A"/><path d="M633 199c0 3.87-1.42 6.51-3 10-1.26-3.79-.5-5.38 1-9z" fill="#101211"/><path d="M558 196h6l-1 3-6-1z" fill="#CEB461"/><path d="M710 181h2v7l-4-2z" fill="#17110D"/><path d="M596 147c4.43 5.14 4.43 5.14 5 9h-3z" fill="#DCC277"/></svg>