<svg style="background:transparent" version="1.1" xmlns="http://www.w3.org/2000/svg" viewBox="0 0 1248 704"><path d="M931.48 248.91a15 15 0 0 0 3.65 2.1c3.67 1.94 6.24 5.17 8.75 8.42a48 48 0 0 0 7.54 7.04c1.77 1.71 2.56 3.3 3.58 5.53l1.88 2.31c4.23 5.35 7.16 11.6 10.19 17.7l1.02 2.02c9.37 18.78 11.06 35.73 8.4 56.4l-.83 6.81-.38 3c-.28 2.76-.28 2.76-.23 5.43-.07 3.27-1.55 5.45-3.05 8.33l-.45 2.36c-.6 2.9-1.63 5.17-2.92 7.82a86 86 0 0 0-4.94 13.41 120 120 0 0 1-2.31 7.1c-1.28 3.74-1.86 7.38-2.38 11.31l-1 2.93c-1.21 3.72-1.55 7.18-2 11.07l-1.56 4.68c-.44 2.32-.44 2.32-.2 5.63.09 4.38-1.18 8.27-2.55 12.37l-.64 1.95A48 48 0 0 1 946 465l-1.43 2.68c-1.75 2.6-2.68 3.25-5.57 4.32l-2.68 1.31c-4.7.97-8.03-.35-12.32-2.3a91 91 0 0 1-4-3h-3l-2.05-5.09c-.95-1.92-.95-1.92-2.42-3.79-5.48-7.67-5.94-18.27-6.4-27.38l-.15-2.82c-.18-4.99-.18-4.99.02-6.93l2-2q.55-3.5 1-7 .98-3.51 2-7 .7-3.3 1.34-6.6a54 54 0 0 1 2.87-7.52c1.32-3.13 2.36-6.35 3.42-9.57l.65-1.97a82 82 0 0 0 2.22-7.5c.65-2.39 1.76-4.36 2.94-6.53a42 42 0 0 0 4.16-12.24c.4-2.07.4-2.07 1.53-5.5 1.54-6.29 1.24-12.29-.13-18.57l-.46-2.57-.47-2.56-.47-2.57c-.6-2.3-.6-2.3-2.6-5.3v-4l-1.9-.78c-2.87-1.68-3.42-3.98-4.75-6.92-2.2-3.76-5.35-6.49-8.52-9.42C909 294 909 294 909 292l-3.37-.88C902 290 902 290 900 288c-5.34-1.93-10.47-2.2-16.12-2.25l-2.06-.03c-11.98.07-24.14 7.4-32.82 15.28v6l-6 3-3-4c-5.75 3.43-5.75 3.43-6.87 6.06-.24 3.76.18 5.64 1.87 8.94l1 3.06c1 2.94 1 2.94 3 5.94q.55 3 1 6l1 3.37c1.09 3.92 1.54 7.6 2 11.63l.5 1.91c2.28 9.4 1.66 19.68 1.63 29.3v13.46A33 33 0 0 1 844 405v3.06c0 2.94 0 2.94-1 5.94 0 .53 0 .53.07 3.25-.07 3.75-.07 3.75-1 6.93-1.22 4.35-1.47 8.45-1.78 12.93-.25 2.5-.66 4.63-1.41 7.01C838 447 838 447 839 449q-.34 2.7-.87 5.37l-.56 2.9a59 59 0 0 1-2.32 8.73c-.25 2-.25 2 1.19 4.25L838 472l-3 2-2-1 1 2a37.5 37.5 0 0 1-2 16q.46 3.5 1 7c-.2 2.7-.61 5.32-1 8v2.81c0 2.2 0 2.2-1 5.2q-.14 2.78-.13 5.57v16.6c.13 2.82.13 2.82.66 5.4.49 2.51.46 4.5.2 7.03l-.25 2.6-.3 2.66-.24 2.65A75 75 0 0 1 828 571q-.06 3 0 6-.47 2-1 4-.48 2.58-.93 5.18A148 148 0 0 1 821 607q-.78 3.37-1.5 6.76a64 64 0 0 1-3.5 11.55c-1.53 4.11-2.21 8.38-3 12.7 3.35.86 6.7 1.53 10.1 2.2 39.95 7.83 39.95 7.83 50.9 18.8 0 2.3 0 2.3-1 5-11.78 11.2-30.6 11.57-46 13l-2.55.23c-16.61 1.54-33.15 2.15-49.82 2.38l-7.1.12c-15.67.26-15.67.26-20.53.26l-1-1q-2.92-.26-5.86-.38l-3.83-.17-4.2-.17-4.33-.19-11.62-.49-7.23-.3q-15.96-.68-31.93-1.3l-3.21-.13c-93.27-3.65-186.57 2.73-318.8 17.13l-7.1.83q-13.8 1.6-27.63 3.25l-3.08.37-5.65.67q-7.7.92-15.42 1.67-2.48.24-4.95.52c-12.52 1.4-23.72 1.05-34.97-5.19a25 25 0 0 0-6.2-2.12l-6-3-1.97-.39c-3.76-1.14-6.03-4.35-8.02-7.6.13-2.95.13-2.95 1-5 2.77-.6 5.16-1 8-1l3-11-2.34 1.45-3.16 1.91-3.1 1.9c-7.1 3.6-13.71 4.07-21.52 4.04l-2.63.05c-5.21 0-8.71-.55-13.25-3.36l-3.18-1.94c-2.7-1.97-4.1-3.26-5.82-6.06l-1.06-1.72c-2.9-5.09-3.94-9.46-2.94-15.28a67 67 0 0 1 4-9l1.19-3.13c2.75-4.36 6.63-6.95 10.8-9.87l2.58-1.82a30 30 0 0 1 14.56-3.18c3.86 0 6.39-.35 9.87-2 1.13-2 1.13-2 2-4l1.79-.88c5.95-3.03 10.6-9.16 14.53-14.44 3.4-4.56 7.33-8.48 11.42-12.44a69 69 0 0 0 6.5-7.1L268 576h2q.14-.95.32-1.94L271 572l3-1 .19-2.19c1.08-3.74 3-5.12 5.8-7.8 3.9-4.7 7.47-9.63 11-14.58 2.46-3.4 4.98-6.59 7.83-9.68a25 25 0 0 0 5.19-8.7c2.5-5.15 6.5-9.56 9.99-14.05 3.23-4.23 6.37-8.37 9-13 2.6-4.38 5.3-8.69 8-13-3.54-1.14-6.33-2-10.06-2-3.42 0-5.73-.8-8.94-2l-3.87-1.25L303 481l-3.64-1.2c-14.22-4.9-25.58-12.22-36.36-22.8l-1.6-1.5c-4.8-4.58-8.52-9.58-12.21-15.07l-1.73-2.49c-5.8-8.52-6.82-14.92-6.77-25.13v-3.6c.24-18.3 2.77-36.39 5.96-54.38 2.2-12.8 2.46-25.74 2.79-38.7.28-10 .72-19.98 1.5-29.95l.23-2.99c1.5-17.86 1.5-17.86 6.4-22.76l1.87-1.94L261 257l1-1a82 82 0 0 1 4.38-1.07l2.4-.53c2.22-.4 2.22-.4 5.22-.4l2 3c3.78 3.3 7.02 5.21 12 6 2.75 1.18 2.75 1.18 5 3q.55 3 1 6l1.66.77c4.13 2.16 6.82 6.04 9.83 9.53 2.99 3.36 5.15 5.27 9.5 6.7q2.55 2.46 5 5c2.65 2.32 4.2 3.02 7.74 2.92q2.98-.3 5.95-.7L336 296l1 1q3.88.36 7.75.56l2.18.13c2.98.17 5.96.31 8.95.31 2.49 0 4.68.5 7.12 1a417 417 0 0 0 7.02.71c1.98.3 1.98.3 3.98 1.3 6.6 1 6.6 1 9.99-1.45a103 103 0 0 0 5.89-6.44l4.19-4.68 2.03-2.3c2.5-2.82 5.1-5.49 7.78-8.14l2.3-2.32C408 274 408 274 410 273c.63-2.07.63-2.07 1-4h3l2.25-1.57c3.65-1.9 5.8-1.24 9.75-.43h3c5 5.15 6.12 11.15 7.54 17.95C437 287 437 287 438 290v7q.46 2.5 1 5c.95 6.63 1.06 13.06.94 19.76.06 2.9.49 5.41 1.06 8.24l-1 1q-.1 3.27-.06 6.56l.03 3.63.03 2.81 4.74-2.05q2.28-.96 4.59-1.84c15.25-5.98 29.73-14.22 43.83-22.49q2.9-1.66 5.9-3.15c2.74-1.37 5.32-2.89 7.94-4.47q2.77-1.44 5.57-2.82l3.2-1.58L519 304l5.88-2.94 9.89-4.93 1.9-.95 5.4-2.67c2.93-1.5 2.93-1.5 5.93-3.5a69 69 0 0 1 7.48-2.77c5-1.77 9.77-3.98 14.59-6.18l2.97-1.34 2.87-1.3 2.6-1.2A90 90 0 0 0 586 272a17 17 0 0 1 6.82-2.44c3.03-.54 5.43-1.52 8.23-2.76 3.92-1.62 8.02-2.72 12.08-3.9A69 69 0 0 0 625 258a112 112 0 0 1 6-1q5.24-1.44 10.44-3.07A79 79 0 0 1 653 252c2.43-.5 4.65-1.22 7-2 4.09-1.37 7.37-2.12 11.69-2q2.16.05 4.3 0l1-1c8.28-1.3 16.68-1.1 25-1q3.22 0 6.4-.04l3.99-.03 3.96-.03c3.08.08 5.68.42 8.66 1.1q2.19.24 4.38.43c4.04.43 7.73 1.37 11.62 2.57l2.34.46c2.88.58 5.66 1.33 8.48 2.13l3.3.93 3.45.98 6.75 1.9 3 .86q2.45.67 4.9 1.3c7.02 1.75 12.92 4.9 18.58 9.36 3.1 1.52 4.9.97 8.2.08 7.23-3.18 13.79-7.74 20.28-12.17 2.53-1.7 5.1-3.28 7.72-4.83l2.54-1.57 2.53-1.56 2.53-1.57a21 21 0 0 1 6.4-2.3 137 137 0 0 0 9.75-3c25.36-7.8 57.74-8.5 79.73 7.91" fill="#111412"/><path d="M931.48 248.91a15 15 0 0 0 3.65 2.1c3.67 1.94 6.24 5.17 8.75 8.42a48 48 0 0 0 7.54 7.04c1.77 1.71 2.56 3.3 3.58 5.53l1.88 2.31c4.23 5.35 7.16 11.6 10.19 17.7l1.02 2.02c9.37 18.78 11.06 35.73 8.4 56.4l-.83 6.81-.38 3c-.28 2.76-.28 2.76-.23 5.43-.07 3.27-1.55 5.45-3.05 8.33l-.45 2.36c-.6 2.9-1.63 5.17-2.92 7.82a86 86 0 0 0-4.94 13.41 120 120 0 0 1-2.31 7.1c-1.28 3.74-1.86 7.38-2.38 11.31l-1 2.93c-1.21 3.72-1.55 7.18-2 11.07l-1.56 4.68c-.44 2.32-.44 2.32-.2 5.63.09 4.38-1.18 8.27-2.55 12.37l-.64 1.95A48 48 0 0 1 946 465l-1.43 2.68c-1.75 2.6-2.68 3.25-5.57 4.32l-2.68 1.31c-4.7.97-8.03-.35-12.32-2.3a91 91 0 0 1-4-3h-3l-2.05-5.09c-.95-1.92-.95-1.92-2.42-3.79-5.48-7.67-5.94-18.27-6.4-27.38l-.15-2.82c-.18-4.99-.18-4.99.02-6.93l2-2q.55-3.5 1-7 .98-3.51 2-7 .7-3.3 1.34-6.6a54 54 0 0 1 2.87-7.52c1.32-3.13 2.36-6.35 3.42-9.57l.65-1.97a82 82 0 0 0 2.22-7.5c.65-2.39 1.76-4.36 2.94-6.53a42 42 0 0 0 4.16-12.24c.4-2.07.4-2.07 1.53-5.5 1.54-6.29 1.24-12.29-.13-18.57l-.46-2.57-.47-2.56-.47-2.57c-.6-2.3-.6-2.3-2.6-5.3v-4l-1.9-.78c-2.87-1.68-3.42-3.98-4.75-6.92-2.2-3.76-5.35-6.49-8.52-9.42C909 294 909 294 909 292l-3.37-.88C902 290 902 290 900 288c-5.34-1.93-10.47-2.2-16.12-2.25l-2.06-.03c-11.98.07-24.14 7.4-32.82 15.28v6l-6 3-3-4c-5.75 3.43-5.75 3.43-6.87 6.06-.24 3.76.18 5.64 1.87 8.94l1 3.06c1 2.94 1 2.94 3 5.94q.55 3 1 6l1 3.37c1.09 3.92 1.54 7.6 2 11.63l.5 1.91c2.28 9.4 1.66 19.68 1.63 29.3v13.46A33 33 0 0 1 844 405v3.06c0 2.94 0 2.94-1 5.94 0 .53 0 .53.07 3.25-.07 3.75-.07 3.75-1 6.93-1.22 4.35-1.47 8.45-1.78 12.93-.25 2.5-.66 4.63-1.41 7.01C838 447 838 447 839 449q-.34 2.7-.87 5.37l-.56 2.9a59 59 0 0 1-2.32 8.73c-.25 2-.25 2 1.19 4.25L838 472l-3 2-2-1 1 2a37.5 37.5 0 0 1-2 16q.46 3.5 1 7c-.2 2.7-.61 5.32-1 8v2.81c0 2.2 0 2.2-1 5.2q-.14 2.78-.13 5.57v16.6c.13 2.82.13 2.82.66 5.4.49 2.51.46 4.5.2 7.03l-.25 2.6-.3 2.66-.24 2.65A75 75 0 0 1 828 571q-.06 3 0 6-.47 2-1 4-.48 2.58-.93 5.18A148 148 0 0 1 821 607q-.78 3.37-1.5 6.76a64 64 0 0 1-3.5 11.55c-1.53 4.11-2.21 8.38-3 12.7 3.35.86 6.7 1.53 10.1 2.2 39.95 7.83 39.95 7.83 50.9 18.8 0 2.3 0 2.3-1 5-11.78 11.2-30.6 11.57-46 13l-2.55.23c-16.61 1.54-33.15 2.15-49.82 2.38l-7.1.12c-15.67.26-15.67.26-20.53.26l-1-1q-2.92-.26-5.86-.38l-3.83-.17-4.2-.17-4.33-.19-11.62-.49-7.23-.3q-15.96-.68-31.93-1.3l-3.21-.13c-93.27-3.65-186.57 2.73-318.8 17.13l-7.1.83q-13.8 1.6-27.63 3.25l-3.08.37-5.65.67q-7.7.92-15.42 1.67-2.48.24-4.95.52c-12.52 1.4-23.72 1.05-34.97-5.19a25 25 0 0 0-6.2-2.12l-6-3-1.97-.39c-3.76-1.14-6.03-4.35-8.02-7.6.13-2.95.13-2.95 1-5 2.77-.6 5.16-1 8-1l3-11-2.34 1.45-3.16 1.91-3.1 1.9c-7.1 3.6-13.71 4.07-21.52 4.04l-2.63.05c-5.21 0-8.71-.55-13.25-3.36l-3.18-1.94c-2.7-1.97-4.1-3.26-5.82-6.06l-1.06-1.72c-2.9-5.09-3.94-9.46-2.94-15.28a67 67 0 0 1 4-9l1.19-3.13c2.75-4.36 6.63-6.95 10.8-9.87l2.58-1.82a30 30 0 0 1 14.56-3.18c3.86 0 6.39-.35 9.87-2 1.13-2 1.13-2 2-4l1.79-.88c5.95-3.03 10.6-9.16 14.53-14.44 3.4-4.56 7.33-8.48 11.42-12.44a69 69 0 0 0 6.5-7.1L268 576h2q.14-.95.32-1.94L271 572l3-1 .19-2.19c1.08-3.74 3-5.12 5.8-7.8 3.9-4.7 7.47-9.63 11-14.58 2.46-3.4 4.98-6.59 7.83-9.68a25 25 0 0 0 5.19-8.7c2.5-5.15 6.5-9.56 9.99-14.05 3.23-4.23 6.37-8.37 9-13 2.6-4.38 5.3-8.69 8-13-3.54-1.14-6.33-2-10.06-2-3.42 0-5.73-.8-8.94-2l-3.87-1.25L303 481l-3.64-1.2c-14.22-4.9-25.58-12.22-36.36-22.8l-1.6-1.5c-4.8-4.58-8.52-9.58-12.21-15.07l-1.73-2.49c-5.8-8.52-6.82-14.92-6.77-25.13v-3.6c.24-18.3 2.77-36.39 5.96-54.38 2.2-12.8 2.46-25.74 2.79-38.7.28-10 .72-19.98 1.5-29.95l.23-2.99c1.5-17.86 1.5-17.86 6.4-22.76l1.87-1.94L261 257l1-1a82 82 0 0 1 4.38-1.07l2.4-.53c2.22-.4 2.22-.4 5.22-.4l2 3c3.78 3.3 7.02 5.21 12 6 2.75 1.18 2.75 1.18 5 3q.55 3 1 6l1.66.77c4.13 2.16 6.82 6.04 9.83 9.53 2.99 3.36 5.15 5.27 9.5 6.7q2.55 2.46 5 5c2.65 2.32 4.2 3.02 7.74 2.92q2.98-.3 5.95-.7L336 296l1 1q3.88.36 7.75.56l2.18.13c2.98.17 5.96.31 8.95.31 2.49 0 4.68.5 7.12 1a417 417 0 0 0 7.02.71c1.98.3 1.98.3 3.98 1.3 6.6 1 6.6 1 9.99-1.45a103 103 0 0 0 5.89-6.44l4.19-4.68 2.03-2.3c2.5-2.82 5.1-5.49 7.78-8.14l2.3-2.32C408 274 408 274 410 273c.63-2.07.63-2.07 1-4h3l2.25-1.57c3.65-1.9 5.8-1.24 9.75-.43h3c5 5.15 6.12 11.15 7.54 17.95C437 287 437 287 438 290v7q.46 2.5 1 5c.95 6.63 1.06 13.06.94 19.76.06 2.9.49 5.41 1.06 8.24l-1 1q-.1 3.27-.06 6.56l.03 3.63.03 2.81 4.74-2.05q2.28-.96 4.59-1.84c15.25-5.98 29.73-14.22 43.83-22.49q2.9-1.66 5.9-3.15c2.74-1.37 5.32-2.89 7.94-4.47q2.77-1.44 5.57-2.82l3.2-1.58L519 304l5.88-2.94 9.89-4.93 1.9-.95 5.4-2.67c2.93-1.5 2.93-1.5 5.93-3.5a69 69 0 0 1 7.48-2.77c5-1.77 9.77-3.98 14.59-6.18l2.97-1.34 2.87-1.3 2.6-1.2A90 90 0 0 0 586 272a17 17 0 0 1 6.82-2.44c3.03-.54 5.43-1.52 8.23-2.76 3.92-1.62 8.02-2.72 12.08-3.9A69 69 0 0 0 625 258a112 112 0 0 1 6-1q5.24-1.44 10.44-3.07A79 79 0 0 1 653 252c2.43-.5 4.65-1.22 7-2 4.09-1.37 7.37-2.12 11.69-2q2.16.05 4.3 0l1-1c8.28-1.3 16.68-1.1 25-1q3.22 0 6.4-.04l3.99-.03 3.96-.03c3.08.08 5.68.42 8.66 1.1q2.19.24 4.38.43c4.04.43 7.73 1.37 11.62 2.57l2.34.46c2.88.58 5.66 1.33 8.48 2.13l3.3.93 3.45.98 6.75 1.9 3 .86q2.45.67 4.9 1.3c7.02 1.75 12.92 4.9 18.58 9.36 3.1 1.52 4.9.97 8.2.08 7.23-3.18 13.79-7.74 20.28-12.17 2.53-1.7 5.1-3.28 7.72-4.83l2.54-1.57 2.53-1.56 2.53-1.57a21 21 0 0 1 6.4-2.3 137 137 0 0 0 9.75-3c25.36-7.8 57.74-8.5 79.73 7.91M817.3 260.53C799.97 272.3 799.97 272.3 793 271c-2.36-1.25-2.36-1.25-4.87-3-16.4-10-36.46-13.65-55.13-17l-2.88-.57C668.67 239.07 603.16 266.21 549 292l-6.5 3.07a886 886 0 0 0-50.23 25.96 397 397 0 0 1-17.25 8.97 267 267 0 0 0-10.77 5.57l-2.5 1.35-4.66 2.58c-6.41 3.47-13.08 5.53-20.1 7.5q.04-1.37.06-2.79c.23-15.83.4-31.58-1.36-47.34l-.36-3.26c-1.1-8.76-2.2-16.77-9.33-22.6a11.7 11.7 0 0 0-9-1c-3.61 2.34-6.77 5.13-10 8l-3.18 2.5a62 62 0 0 0-5.94 6q-.9.97-1.81 2.01a89 89 0 0 0-4.51 5.95c-6.62 8.92-6.62 8.92-11.6 9.94-4.85.1-9.53-.94-14.27-1.92-4.74-.87-9.52-1.18-14.31-1.56l-2.95-.27c-4.41-.4-8.77-.7-13.21-.66-11.14.06-17.33-3.5-25.22-11l-3.63-3.3q-4.47-4.1-8.87-8.29c-9.17-8.66-19.42-17.9-32.25-20.04-3.61.7-4.96 1.83-7.2 4.73-2.7 4.9-3.54 10.12-4.12 15.6l-.25 2.33c-1.03 10.34-1.14 20.73-1.4 31.12-.51 19.96-1.81 38.92-5.68 58.51a269 269 0 0 0-3.97 44.71l-.04 2.66c.06 8.16 3.19 14.04 7.6 20.78l1.2 1.83c15.83 23.96 38.49 37.38 66.35 43.33A74 74 0 0 0 336 484c-4.22 8.05-9.22 15.52-14.28 23.06l-4.35 6.5a744 744 0 0 1-39 53.47 426 426 0 0 1-23.32 26.73 203 203 0 0 0-6.8 7.55c-17.37 20.1-17.37 20.1-27.42 20.96l-3.58.1c-5.96.35-10.35 1.18-15.25 4.63l-2.51 1.76c-2.83 2.54-4.11 4.81-5.74 8.24l-1.51 3.12c-2.25 5.24-3.06 10.2-2.24 15.88 2.57 6.18 7 11.2 13.15 13.96 12.4 4.34 24.1 2.17 35.85-2.96 3.83-2.14 7.45-4.44 11-7l-.65 1.54c-2.87 7.5-3.61 15-1.41 22.77 4.99 6.5 11.3 10.32 19.06 12.7l1.8.54c20.4 4.12 38.83-5.44 55.34-16.27q7.5-5.02 14.86-10.28l3.3-2.34c7.67-5.44 15.2-11 22.7-16.66q9.34-7.05 18.75-13.97c30.15-22.13 59.69-45.1 86.89-70.82l1.8-1.69a89 89 0 0 0 3.68-3.86c2.36-2.09 4.19-2.52 7.26-3.16 13.17-2.9 25.86-7.16 38.56-11.63l2.46-.86a430 430 0 0 0 37.08-14.86l7.66-3.45q4.98-2.23 9.95-4.49a1806 1806 0 0 1 12.64-5.65l4.77-2.12a346 346 0 0 0 15.05-7.23c7.7-3.88 15.48-7.55 23.32-11.12l6.48-2.98 4.22-1.92 1.9-.89c4.46-2 8.79-3.23 13.53-4.3l.45 1.87c5.43 21.45 16.04 41.7 29.55 59.13l1.95 2.61c7.99 10.46 17.45 19.38 27.87 27.36 11.9 9.12 23.69 18.77 27.18 34.03.29 4.02.26 7.97 0 12l-2.38.3c-8.7 1.23-14.41 2.58-20 9.76-4.1 5.73-4.13 11.07-3.62 17.94 1.52 5.13 4.09 7.15 8.56 9.71a382 382 0 0 0 14.44 7.3c.53.26.53.26 3.2 1.64 4.69 1.97 9.42 1.8 14.43 1.72l2.95-.03c12.85-.27 23.76-2.34 33.05-11.78 8-9.94 11.09-23.53 14.44-35.63l1.3-4.64a583 583 0 0 0 8.14-32.06q.45-2.1.97-4.18c5.1-21.49 4.97-43.86 5.03-65.8.1-21.02 2.3-41.22 5.67-61.93 1.29-8.1 2.3-16.25 3.38-24.39l.48-3.67.48-3.66a780 780 0 0 1 1.54-10.65c5.04-35.2 2.03-67.4-11.38-100.12A49 49 0 0 1 827 308l2.32-.63c8.39-3.13 15.69-7.97 22.97-13.1 14.1-9.93 26.57-11.98 43.7-10.27 11.1 2.35 20.79 12.47 27.35 21.27 8.59 14.07 12.18 29.32 9.66 45.73-2.43 8.56-6.11 16.68-9.65 24.83-10.12 23.86-20 53.78-10.28 78.93 2.87 6.34 6.63 11.08 12.93 14.24 6.38.8 11.84-.03 17-4 5.27-7.4 7.3-15.49 8.32-24.38 2.49-19.29 7.04-38.35 14.19-56.45 9.38-23.9 14.48-52.44 5.49-77.17l-1.02-2.95c-9.26-24.19-25.44-47.82-49.62-58.75-33.56-14.44-73.97-4.56-103.06 15.23" fill="#EEEFEE"/><path d="M931.48 248.91a15 15 0 0 0 3.65 2.1c3.67 1.94 6.24 5.17 8.75 8.42a48 48 0 0 0 7.54 7.04c1.77 1.71 2.56 3.3 3.58 5.53l1.88 2.31c4.23 5.35 7.16 11.6 10.19 17.7l1.02 2.02c9.37 18.78 11.06 35.73 8.4 56.4l-.83 6.81-.38 3c-.28 2.76-.28 2.76-.23 5.43-.07 3.27-1.55 5.45-3.05 8.33l-.45 2.36c-.6 2.9-1.63 5.17-2.92 7.82a86 86 0 0 0-4.94 13.41 120 120 0 0 1-2.31 7.1c-1.28 3.74-1.86 7.38-2.38 11.31l-1 2.93c-1.21 3.72-1.55 7.18-2 11.07l-1.56 4.68c-.44 2.32-.44 2.32-.2 5.63.09 4.38-1.18 8.27-2.55 12.37l-.64 1.95A48 48 0 0 1 946 465l-1.43 2.68c-1.75 2.6-2.68 3.25-5.57 4.32l-2.68 1.31c-4.7.97-8.03-.35-12.32-2.3a91 91 0 0 1-4-3h-3l-2.05-5.09c-.95-1.92-.95-1.92-2.42-3.79-5.48-7.67-5.94-18.27-6.4-27.38l-.15-2.82c-.18-4.99-.18-4.99.02-6.93l2-2q.55-3.5 1-7 .98-3.51 2-7 .7-3.3 1.34-6.6a54 54 0 0 1 2.87-7.52c1.32-3.13 2.36-6.35 3.42-9.57l.65-1.97a82 82 0 0 0 2.22-7.5c.65-2.39 1.76-4.36 2.94-6.53a42 42 0 0 0 4.16-12.24c.4-2.07.4-2.07 1.53-5.5 1.54-6.29 1.24-12.29-.13-18.57l-.46-2.57-.47-2.56-.47-2.57c-.6-2.3-.6-2.3-2.6-5.3v-4l-1.9-.78c-2.87-1.68-3.42-3.98-4.75-6.92-2.2-3.76-5.35-6.49-8.52-9.42C909 294 909 294 909 292l-3.37-.88C902 290 902 290 900 288c-5.34-1.93-10.47-2.2-16.12-2.25l-2.06-.03c-11.98.07-24.14 7.4-32.82 15.28v6l-6 3-3-4c-5.75 3.43-5.75 3.43-6.87 6.06-.24 3.76.18 5.64 1.87 8.94l1 3.06c1 2.94 1 2.94 3 5.94q.55 3 1 6l1 3.37c1.09 3.92 1.54 7.6 2 11.63l.5 1.91c2.28 9.4 1.66 19.68 1.63 29.3v13.46A33 33 0 0 1 844 405v3.06c0 2.94 0 2.94-1 5.94 0 .53 0 .53.07 3.25-.07 3.75-.07 3.75-1 6.93-1.22 4.35-1.47 8.45-1.78 12.93-.25 2.5-.66 4.63-1.41 7.01C838 447 838 447 839 449q-.34 2.7-.87 5.37l-.56 2.9a59 59 0 0 1-2.32 8.73c-.25 2-.25 2 1.19 4.25L838 472l-3 2-2-1 1 2a37.5 37.5 0 0 1-2 16q.46 3.5 1 7c-.2 2.7-.61 5.32-1 8v2.81c0 2.2 0 2.2-1 5.2q-.14 2.78-.13 5.57v16.6c.13 2.82.13 2.82.66 5.4.49 2.51.46 4.5.2 7.03l-.25 2.6-.3 2.66-.24 2.65A75 75 0 0 1 828 571q-.06 3 0 6-.47 2-1 4-.48 2.58-.93 5.18A148 148 0 0 1 821 607q-.78 3.37-1.5 6.76a64 64 0 0 1-3.5 11.55c-1.53 4.11-2.21 8.38-3 12.7 3.35.86 6.7 1.53 10.1 2.2 39.95 7.83 39.95 7.83 50.9 18.8 0 2.3 0 2.3-1 5-11.78 11.2-30.6 11.57-46 13l-2.55.23c-16.61 1.54-33.15 2.15-49.82 2.38l-7.1.12c-15.67.26-15.67.26-20.53.26l-1-1q-2.92-.26-5.86-.38l-3.83-.17-4.2-.17-4.33-.19-11.62-.49-7.23-.3q-15.96-.68-31.93-1.3l-3.21-.13c-93.27-3.65-186.57 2.73-318.8 17.13l-7.1.83q-13.8 1.6-27.63 3.25l-3.08.37-5.65.67q-7.7.92-15.42 1.67-2.48.24-4.95.52c-12.52 1.4-23.72 1.05-34.97-5.19a25 25 0 0 0-6.2-2.12l-6-3-1.97-.39c-3.76-1.14-6.03-4.35-8.02-7.6.13-2.95.13-2.95 1-5 2.77-.6 5.16-1 8-1l3-11-2.34 1.45-3.16 1.91-3.1 1.9c-7.1 3.6-13.71 4.07-21.52 4.04l-2.63.05c-5.21 0-8.71-.55-13.25-3.36l-3.18-1.94c-2.7-1.97-4.1-3.26-5.82-6.06l-1.06-1.72c-2.9-5.09-3.94-9.46-2.94-15.28a67 67 0 0 1 4-9l1.19-3.13c2.75-4.36 6.63-6.95 10.8-9.87l2.58-1.82a30 30 0 0 1 14.56-3.18c3.86 0 6.39-.35 9.87-2 1.13-2 1.13-2 2-4l1.79-.88c5.95-3.03 10.6-9.16 14.53-14.44 3.4-4.56 7.33-8.48 11.42-12.44a69 69 0 0 0 6.5-7.1L268 576h2q.14-.95.32-1.94L271 572l3-1 .19-2.19c1.08-3.74 3-5.12 5.8-7.8 3.9-4.7 7.47-9.63 11-14.58 2.46-3.4 4.98-6.59 7.83-9.68a25 25 0 0 0 5.19-8.7c2.5-5.15 6.5-9.56 9.99-14.05 3.23-4.23 6.37-8.37 9-13 2.6-4.38 5.3-8.69 8-13-3.54-1.14-6.33-2-10.06-2-3.42 0-5.73-.8-8.94-2l-3.87-1.25L303 481l-3.64-1.2c-14.22-4.9-25.58-12.22-36.36-22.8l-1.6-1.5c-4.8-4.58-8.52-9.58-12.21-15.07l-1.73-2.49c-5.8-8.52-6.82-14.92-6.77-25.13v-3.6c.24-18.3 2.77-36.39 5.96-54.38 2.2-12.8 2.46-25.74 2.79-38.7.28-10 .72-19.98 1.5-29.95l.23-2.99c1.5-17.86 1.5-17.86 6.4-22.76l1.87-1.94L261 257l1-1a82 82 0 0 1 4.38-1.07l2.4-.53c2.22-.4 2.22-.4 5.22-.4l2 3c3.78 3.3 7.02 5.21 12 6 2.75 1.18 2.75 1.18 5 3q.55 3 1 6l1.66.77c4.13 2.16 6.82 6.04 9.83 9.53 2.99 3.36 5.15 5.27 9.5 6.7q2.55 2.46 5 5c2.65 2.32 4.2 3.02 7.74 2.92q2.98-.3 5.95-.7L336 296l1 1q3.88.36 7.75.56l2.18.13c2.98.17 5.96.31 8.95.31 2.49 0 4.68.5 7.12 1a417 417 0 0 0 7.02.71c1.98.3 1.98.3 3.98 1.3 6.6 1 6.6 1 9.99-1.45a103 103 0 0 0 5.89-6.44l4.19-4.68 2.03-2.3c2.5-2.82 5.1-5.49 7.78-8.14l2.3-2.32C408 274 408 274 410 273c.63-2.07.63-2.07 1-4h3l2.25-1.57c3.65-1.9 5.8-1.24 9.75-.43h3c5 5.15 6.12 11.15 7.54 17.95C437 287 437 287 438 290v7q.46 2.5 1 5c.95 6.63 1.06 13.06.94 19.76.06 2.9.49 5.41 1.06 8.24l-1 1q-.1 3.27-.06 6.56l.03 3.63.03 2.81 4.74-2.05q2.28-.96 4.59-1.84c15.25-5.98 29.73-14.22 43.83-22.49q2.9-1.66 5.9-3.15c2.74-1.37 5.32-2.89 7.94-4.47q2.77-1.44 5.57-2.82l3.2-1.58L519 304l5.88-2.94 9.89-4.93 1.9-.95 5.4-2.67c2.93-1.5 2.93-1.5 5.93-3.5a69 69 0 0 1 7.48-2.77c5-1.77 9.77-3.98 14.59-6.18l2.97-1.34 2.87-1.3 2.6-1.2A90 90 0 0 0 586 272a17 17 0 0 1 6.82-2.44c3.03-.54 5.43-1.52 8.23-2.76 3.92-1.62 8.02-2.72 12.08-3.9A69 69 0 0 0 625 258a112 112 0 0 1 6-1q5.24-1.44 10.44-3.07A79 79 0 0 1 653 252c2.43-.5 4.65-1.22 7-2 4.09-1.37 7.37-2.12 11.69-2q2.16.05 4.3 0l1-1c8.28-1.3 16.68-1.1 25-1q3.22 0 6.4-.04l3.99-.03 3.96-.03c3.08.08 5.68.42 8.66 1.1q2.19.24 4.38.43c4.04.43 7.73 1.37 11.62 2.57l2.34.46c2.88.58 5.66 1.33 8.48 2.13l3.3.93 3.45.98 6.75 1.9 3 .86q2.45.67 4.9 1.3c7.02 1.75 12.92 4.9 18.58 9.36 3.1 1.52 4.9.97 8.2.08 7.23-3.18 13.79-7.74 20.28-12.17 2.53-1.7 5.1-3.28 7.72-4.83l2.54-1.57 2.53-1.56 2.53-1.57a21 21 0 0 1 6.4-2.3 137 137 0 0 0 9.75-3c25.36-7.8 57.74-8.5 79.73 7.91M817.3 260.53C799.97 272.3 799.97 272.3 793 271c-2.36-1.25-2.36-1.25-4.87-3-16.4-10-36.46-13.65-55.13-17l-2.88-.57C668.67 239.07 603.16 266.21 549 292l-6.5 3.07a886 886 0 0 0-50.23 25.96 397 397 0 0 1-17.25 8.97 267 267 0 0 0-10.77 5.57l-2.5 1.35-4.66 2.58c-6.41 3.47-13.08 5.53-20.1 7.5q.04-1.37.06-2.79c.23-15.83.4-31.58-1.36-47.34l-.36-3.26c-1.1-8.76-2.2-16.77-9.33-22.6a11.7 11.7 0 0 0-9-1c-3.61 2.34-6.77 5.13-10 8l-3.18 2.5a62 62 0 0 0-5.94 6q-.9.97-1.81 2.01a89 89 0 0 0-4.51 5.95c-6.62 8.92-6.62 8.92-11.6 9.94-4.85.1-9.53-.94-14.27-1.92-4.74-.87-9.52-1.18-14.31-1.56l-2.95-.27c-4.41-.4-8.77-.7-13.21-.66-11.14.06-17.33-3.5-25.22-11l-3.63-3.3q-4.47-4.1-8.87-8.29c-9.17-8.66-19.42-17.9-32.25-20.04-3.61.7-4.96 1.83-7.2 4.73-2.7 4.9-3.54 10.12-4.12 15.6l-.25 2.33c-1.03 10.34-1.14 20.73-1.4 31.12-.51 19.96-1.81 38.92-5.68 58.51a269 269 0 0 0-3.97 44.71l-.04 2.66c.06 8.16 3.19 14.04 7.6 20.78l1.2 1.83c15.83 23.96 38.49 37.38 66.35 43.33A74 74 0 0 0 336 484c-4.22 8.05-9.22 15.52-14.28 23.06l-4.35 6.5a744 744 0 0 1-39 53.47 426 426 0 0 1-23.32 26.73 203 203 0 0 0-6.8 7.55c-17.37 20.1-17.37 20.1-27.42 20.96l-3.58.1c-5.96.35-10.35 1.18-15.25 4.63l-2.51 1.76c-2.83 2.54-4.11 4.81-5.74 8.24l-1.51 3.12c-2.25 5.24-3.06 10.2-2.24 15.88 2.57 6.18 7 11.2 13.15 13.96 12.4 4.34 24.1 2.17 35.85-2.96 3.83-2.14 7.45-4.44 11-7l-.65 1.54c-2.87 7.5-3.61 15-1.41 22.77 4.99 6.5 11.3 10.32 19.06 12.7l1.8.54c20.4 4.12 38.83-5.44 55.34-16.27q7.5-5.02 14.86-10.28l3.3-2.34a708 708 0 0 0 20.08-14.75c4.46-3.25 7.9-5.24 13.4-6l3.37-.5 3.48-.48 6.79-.97 3.34-.47q4.61-.7 9.18-1.59a81 81 0 0 1 11.44-1.34c5.8-.35 11.48-1.07 17.22-1.94a938 938 0 0 1 33.47-4.19l2.98-.32c48.33-5.29 96.86-6.48 145.45-6.37h16.75c23.27-.05 46.49.23 69.74 1.21l3.15.13q4.36.18 8.73.4l2.6.1c3.94.2 7.68.48 11.53 1.42l-.93 2.31c-2.63 6.65-3.12 13.15-1.07 20.06 5.18 6.8 14.47 10.07 22 13.63l3.2 1.65c4.69 1.97 9.42 1.8 14.43 1.72l2.95-.03c12.85-.27 23.76-2.34 33.05-11.78 8-9.94 11.09-23.53 14.44-35.63l1.3-4.64a583 583 0 0 0 8.14-32.06q.45-2.1.97-4.18c5.1-21.49 4.97-43.86 5.03-65.8.1-21.02 2.3-41.22 5.67-61.93 1.29-8.1 2.3-16.25 3.38-24.39l.48-3.67.48-3.66a780 780 0 0 1 1.54-10.65c5.04-35.2 2.03-67.4-11.38-100.12A49 49 0 0 1 827 308l2.32-.63c8.39-3.13 15.69-7.97 22.97-13.1 14.1-9.93 26.57-11.98 43.7-10.27 11.1 2.35 20.79 12.47 27.35 21.27 8.59 14.07 12.18 29.32 9.66 45.73-2.43 8.56-6.11 16.68-9.65 24.83-10.12 23.86-20 53.78-10.28 78.93 2.87 6.34 6.63 11.08 12.93 14.24 6.38.8 11.84-.03 17-4 5.27-7.4 7.3-15.49 8.32-24.38 2.49-19.29 7.04-38.35 14.19-56.45 9.38-23.9 14.48-52.44 5.49-77.17l-1.02-2.95c-9.26-24.19-25.44-47.82-49.62-58.75-33.56-14.44-73.97-4.56-103.06 15.23" fill="#BCBDBD"/><path d="M437 360h3v8h2l.43 13.01.14 4.41c.86 25.76.86 25.76-.45 33.02l-.49 2.87A49 49 0 0 1 439 429l-.69 3.44C435.24 445.15 427.2 457.97 417 466q-1.24 1.61-2.44 3.25c-6.41 7.77-17.61 12.51-26.56 16.75l-1.94 1.02c-7.58 3.96-15.04 6.1-23.46 7.51-3.29.6-6.41 1.48-9.6 2.47.81 3.44.81 3.44 2 7l3 1q2.53 2.97 5 6l3 2v2l1.8.84a25 25 0 0 1 5.32 3.78 75 75 0 0 0 6.59 5.31A49 49 0 0 1 387 531c.29 4.38-.87 7.25-3 11l-.88 2.56c-1.27 2.77-2.57 3.83-5.12 5.44l2-4c-1.9 0-3.23 1.99-4.54 3.22l-2.2 2.08-2.32 2.2-2.24 2.11a511 511 0 0 0-12.89 12.6 148 148 0 0 1-7.68 6.94q-3.6 3.15-7.13 6.35a795 795 0 0 1-32.69 28.12 208 208 0 0 0-10.62 9.26 221 221 0 0 1-14.05 11.72 649 649 0 0 0-14.83 11.9l-2.21 1.82-2.08 1.71-1.84 1.52C261 649 261 649 259.53 650.69 258 652 258 652 254 652l-.69 1.62c-5.56 10.07-15.54 14.39-26.2 17.69-8.65 1.92-18.05 1.6-26.11-2.31-5-3.38-9.12-7.14-11-13-1.32-8.48 1.69-16.77 6.25-23.88 3.5-4.52 8.39-7.33 13.75-9.12q3.25-.08 6.5-.12c17.19-1.29 29.32-17.81 39.95-30.09q2.86-3.28 5.8-6.48a449 449 0 0 0 24.51-29.69l3.77-4.87 1.29-1.65 3.47-4.44c8.13-10.76 15.43-22.18 22.9-33.41l4.33-6.51 2.76-4.15q2.83-4.26 5.7-8.5l1.63-2.42 1.36-1.98C335 487 335 487 336 484l3.24-.24 11.92-.93 5.16-.4 7.41-.58 2.33-.17c3.77-.31 6.67-.77 9.94-2.68a53 53 0 0 1 3.9-.96l2.2-.49 4.52-.96c6.02-1.34 11.04-3.03 15.38-7.59h2v-2l7-2 .31-1.94.69-2.06 3-1 3-4h2l1-6h2l1-4h2l.38-1.64a108 108 0 0 1 2.56-8.05c1.7-5.08 3.09-10.05 4.06-15.31l.53-2.6c2.93-16.25 2.65-33.16 2.43-49.62l-.02-2.62-.04-2.29c.1-1.87.1-1.87 1.1-3.87" fill="#020303"/><path d="M931.48 248.91a15 15 0 0 0 3.65 2.1c3.67 1.94 6.24 5.17 8.75 8.42a48 48 0 0 0 7.54 7.04c1.77 1.71 2.56 3.3 3.58 5.53l1.88 2.31c4.23 5.35 7.16 11.6 10.19 17.7l1.02 2.02c9.37 18.78 11.06 35.73 8.4 56.4l-.83 6.81-.38 3c-.28 2.76-.28 2.76-.23 5.43-.07 3.27-1.55 5.45-3.05 8.33l-.45 2.36c-.6 2.9-1.63 5.17-2.92 7.82a86 86 0 0 0-4.94 13.41 120 120 0 0 1-2.31 7.1c-1.28 3.74-1.86 7.38-2.38 11.31l-1 2.93c-1.21 3.72-1.55 7.18-2 11.07l-1.56 4.68c-.44 2.32-.44 2.32-.2 5.63.09 4.38-1.18 8.27-2.55 12.37l-.64 1.95A48 48 0 0 1 946 465l-1.43 2.68c-1.75 2.6-2.68 3.25-5.57 4.32l-2.68 1.31c-4.7.97-8.03-.35-12.32-2.3a91 91 0 0 1-4-3h-3l-2.05-5.09c-.95-1.92-.95-1.92-2.42-3.79-5.48-7.67-5.94-18.27-6.4-27.38l-.15-2.82c-.18-4.99-.18-4.99.02-6.93l2-2q.55-3.5 1-7 .98-3.51 2-7 .7-3.3 1.34-6.6a54 54 0 0 1 2.87-7.52c1.32-3.13 2.36-6.35 3.42-9.57l.65-1.97a82 82 0 0 0 2.22-7.5c.65-2.39 1.76-4.36 2.94-6.53a42 42 0 0 0 4.16-12.24c.4-2.07.4-2.07 1.53-5.5 1.54-6.29 1.24-12.29-.13-18.57l-.46-2.57-.47-2.56-.47-2.57c-.6-2.3-.6-2.3-2.6-5.3v-4l-1.9-.78c-2.87-1.68-3.42-3.98-4.75-6.92-2.2-3.76-5.35-6.49-8.52-9.42C909 294 909 294 909 292l-3.37-.88C902 290 902 290 900 288c-5.34-1.93-10.47-2.2-16.12-2.25l-2.06-.03c-11.98.07-24.14 7.4-32.82 15.28v6l-6 3-3-4c-5.75 3.43-5.75 3.43-6.87 6.06-.24 3.76.18 5.64 1.87 8.94l1 3.06c1 2.94 1 2.94 3 5.94q.55 3 1 6l1 3.37c1.09 3.92 1.54 7.6 2 11.63l.5 1.91c2.28 9.4 1.66 19.68 1.63 29.3v13.46A33 33 0 0 1 844 405v3.06c0 2.94 0 2.94-1 5.94 0 .53 0 .53.07 3.25-.07 3.75-.07 3.75-1 6.93-1.22 4.35-1.47 8.45-1.78 12.93-.25 2.5-.66 4.63-1.41 7.01C838 447 838 447 839 449q-.34 2.7-.87 5.37l-.56 2.9a59 59 0 0 1-2.32 8.73c-.25 2-.25 2 1.19 4.25L838 472l-3 2-2-1 1 2a37.5 37.5 0 0 1-2 16q.46 3.5 1 7c-.2 2.7-.61 5.32-1 8v2.81c0 2.2 0 2.2-1 5.2q-.14 2.78-.13 5.57v16.6c.13 2.82.13 2.82.66 5.4.49 2.51.46 4.5.2 7.03l-.25 2.6-.3 2.66-.24 2.65A75 75 0 0 1 828 571q-.06 3 0 6-.47 2-1 4-.48 2.58-.93 5.18A148 148 0 0 1 821 607q-.78 3.37-1.5 6.76a64 64 0 0 1-3.5 11.55c-1.53 4.11-2.21 8.38-3 12.7 3.35.86 6.7 1.53 10.1 2.2 39.95 7.83 39.95 7.83 50.9 18.8 0 2.3 0 2.3-1 5-11.78 11.2-30.6 11.57-46 13l-2.55.23c-16.61 1.54-33.15 2.15-49.82 2.38l-7.1.12c-15.67.26-15.67.26-20.53.26l-1-1q-2.92-.26-5.86-.38l-3.83-.17-4.2-.17-4.33-.19-11.62-.49-7.23-.3q-15.96-.68-31.93-1.3l-3.21-.13c-93.27-3.65-186.57 2.73-318.8 17.13l-7.1.83q-13.8 1.6-27.63 3.25l-3.08.37-5.65.67A789 789 0 0 1 294 700l-1-2c8.07-2 16.2-2.99 24.44-3.94l4.48-.53 8.97-1.05q5.18-.6 10.37-1.23a3235 3235 0 0 1 211.38-18.4c16.49-.92 32.97-1.09 49.49-1.1h2.14c26.96-.04 53.86.68 80.8 1.68l2.75.11q9.18.34 18.34.7l2.35.1q11.41.43 22.84 1.06c8.23.45 16.43.75 24.67.76l3.43.02H774c76.87-.08 76.87-.08 97-13.18-.53-4.58-.53-4.58-2.54-6.4-18.08-9.49-39.4-12.85-59.46-15.6.44-7.49 2.02-14.18 4.25-21.32A470 470 0 0 0 822 586l.46-1.86c5.09-21.53 4.99-43.9 5.05-65.89.1-21.02 2.3-41.22 5.67-61.93 1.29-8.1 2.3-16.25 3.38-24.39l.48-3.67.48-3.66a780 780 0 0 1 1.54-10.65c4.74-33.14 2.99-65.1-9.82-96.07-1.46-3.56-2.24-5.98-2.24-9.88l3.27-1.66c8.37-4.3 16.2-8.86 23.86-14.33 13.26-9.29 25.92-10.6 41.87-9 8.93 1.88 15.78 8.7 22 15q.83.75 1.68 1.56c3.79 3.9 6.13 8.56 8.57 13.36l1.04 2.03c5.89 12.04 7.43 26.55 3.72 39.5a321 321 0 0 1-8.66 21.37c-10.2 24.01-19.78 53.58-10.32 78.93 2.66 6 5.9 10.44 11.97 13.24a20.4 20.4 0 0 0 15.09-2.46c6.7-5.4 7.85-15.04 8.85-23.04 2.85-19.94 7.16-39.56 14.57-58.33 9.38-23.9 14.48-52.44 5.49-77.17l-1.02-2.95c-9.63-25.13-25.5-47.09-50.3-58.46-24.35-10.7-54.4-5.9-78.8 2.72-8.14 3.38-15.31 8.27-22.58 13.22C799.97 273.3 799.97 273.3 793 272c-2.36-1.25-2.36-1.25-4.87-3-16.4-10-36.46-13.65-55.13-17l-2.88-.57C668.67 240.07 603.16 267.21 549 293l-6.5 3.07a886 886 0 0 0-50.23 25.96 414 414 0 0 1-17.24 8.97q-5.52 2.7-10.93 5.61l-2.53 1.35q-2.43 1.3-4.83 2.62c-6.31 3.4-12.48 6.42-19.74 6.42l-.04-2.79c-.28-15.82-.6-31.6-2.33-47.34l-.35-3.26c-.91-7.6-2.5-14.87-6.28-21.6-1.68-.76-1.68-.76-4-1l-3.12-.58c-6 .87-9.44 4.66-13.88 8.57l-2.61 2.05a37 37 0 0 0-5.4 5.32l-1.81 2.05a101 101 0 0 0-4.85 6.28c-7.31 9.62-7.31 9.62-12.41 10.76-4.85.13-9.52-.93-14.25-1.95-4.72-.9-9.5-1.2-14.3-1.58l-2.94-.27c-4.41-.4-8.77-.7-13.21-.66-11.14.06-17.33-3.5-25.22-11l-3.63-3.3q-4.47-4.1-8.87-8.29c-9.13-8.62-19.47-18.08-32.31-19.98-3.2.57-3.2.57-5.5 2.7-3.08 5.24-4.12 10.58-4.76 16.57l-.25 2.33c-1.03 10.34-1.14 20.73-1.4 31.12-.51 19.96-1.81 38.92-5.68 58.51a269 269 0 0 0-3.97 44.71l-.04 2.66c.06 8.16 3.18 14.04 7.6 20.78l1.2 1.84c15.58 23.52 37.96 36.4 65.24 42.2 6.09 1.2 12.17 1.9 18.37 2.15a22 22 0 0 1-3.26 7.87l-1.43 2.27-1.56 2.42-1.61 2.53a825 825 0 0 1-16.67 24.78q-2 2.88-3.97 5.8a595 595 0 0 1-28.13 37.36 426 426 0 0 1-23.32 26.74 184 184 0 0 0-6.73 7.48c-18.28 21.14-18.28 21.14-28.5 22.02l-3.57.1c-7.6.46-12.04 2.1-17.93 6.75-5.57 6.91-8.77 14.61-8.66 23.5.76 5.23 3.99 8.95 7.53 12.7 9.07 5.43 19.4 6.17 29.59 3.8 8.24-2.4 15.28-6.12 22.22-11.12 1 3 1 3-.43 5.93-2.8 6.07-2.36 13.04-.7 19.38 6.22 7.85 15.1 11.85 24.9 13.01q4.18.29 8.36.36l2.9.11q3.49.12 6.97.21l-1 2c-12.04 2.51-24.03 1.1-34.81-4.88a25 25 0 0 0-6.2-2.12l-6-3-1.97-.39c-3.76-1.14-6.03-4.35-8.02-7.6.13-2.95.13-2.95 1-5 2.77-.6 5.16-1 8-1l3-11-2.34 1.45-3.16 1.91-3.1 1.9c-7.1 3.6-13.71 4.07-21.52 4.04l-2.63.05c-5.21 0-8.71-.55-13.25-3.36l-3.18-1.94c-2.7-1.97-4.1-3.26-5.82-6.06l-1.06-1.72c-2.9-5.09-3.94-9.46-2.94-15.28a67 67 0 0 1 4-9l1.19-3.13c2.75-4.36 6.63-6.95 10.8-9.87l2.58-1.82a30 30 0 0 1 14.56-3.18c3.86 0 6.39-.35 9.87-2 1.13-2 1.13-2 2-4l1.79-.88c5.95-3.03 10.6-9.16 14.53-14.44 3.4-4.56 7.33-8.48 11.42-12.44a69 69 0 0 0 6.5-7.1L268 576h2q.14-.95.32-1.94L271 572l3-1 .19-2.19c1.08-3.74 3-5.12 5.8-7.8 3.9-4.7 7.47-9.63 11-14.58 2.46-3.4 4.98-6.59 7.83-9.68a25 25 0 0 0 5.19-8.7c2.5-5.15 6.5-9.56 9.99-14.05 3.23-4.23 6.37-8.37 9-13 2.6-4.38 5.3-8.69 8-13-3.54-1.14-6.33-2-10.06-2-3.42 0-5.73-.8-8.94-2l-3.87-1.25L303 481l-3.64-1.2c-14.22-4.9-25.58-12.22-36.36-22.8l-1.6-1.5c-4.8-4.58-8.52-9.58-12.21-15.07l-1.73-2.49c-5.8-8.52-6.82-14.92-6.77-25.13v-3.6c.24-18.3 2.77-36.39 5.96-54.38 2.2-12.8 2.46-25.74 2.79-38.7.28-10 .72-19.98 1.5-29.95l.23-2.99c1.5-17.86 1.5-17.86 6.4-22.76l1.87-1.94L261 257l1-1a82 82 0 0 1 4.38-1.07l2.4-.53c2.22-.4 2.22-.4 5.22-.4l2 3c3.78 3.3 7.02 5.21 12 6 2.75 1.18 2.75 1.18 5 3q.55 3 1 6l1.66.77c4.13 2.16 6.82 6.04 9.83 9.53 2.99 3.36 5.15 5.27 9.5 6.7q2.55 2.46 5 5c2.65 2.32 4.2 3.02 7.74 2.92q2.98-.3 5.95-.7L336 296l1 1q3.88.36 7.75.56l2.18.13c2.98.17 5.96.31 8.95.31 2.49 0 4.68.5 7.12 1a417 417 0 0 0 7.02.71c1.98.3 1.98.3 3.98 1.3 6.6 1 6.6 1 9.99-1.45a103 103 0 0 0 5.89-6.44l4.19-4.68 2.03-2.3c2.5-2.82 5.1-5.49 7.78-8.14l2.3-2.32C408 274 408 274 410 273c.63-2.07.63-2.07 1-4h3l2.25-1.57c3.65-1.9 5.8-1.24 9.75-.43h3c5 5.15 6.12 11.15 7.54 17.95C437 287 437 287 438 290v7q.46 2.5 1 5c.95 6.63 1.06 13.06.94 19.76.06 2.9.49 5.41 1.06 8.24l-1 1q-.1 3.27-.06 6.56l.03 3.63.03 2.81 4.74-2.05q2.28-.96 4.59-1.84c15.25-5.98 29.73-14.22 43.83-22.49q2.9-1.66 5.9-3.15c2.74-1.37 5.32-2.89 7.94-4.47q2.77-1.44 5.57-2.82l3.2-1.58L519 304l5.88-2.94 9.89-4.93 1.9-.95 5.4-2.67c2.93-1.5 2.93-1.5 5.93-3.5a69 69 0 0 1 7.48-2.77c5-1.77 9.77-3.98 14.59-6.18l2.97-1.34 2.87-1.3 2.6-1.2A90 90 0 0 0 586 272a17 17 0 0 1 6.82-2.44c3.03-.54 5.43-1.52 8.23-2.76 3.92-1.62 8.02-2.72 12.08-3.9A69 69 0 0 0 625 258a112 112 0 0 1 6-1q5.24-1.44 10.44-3.07A79 79 0 0 1 653 252c2.43-.5 4.65-1.22 7-2 4.09-1.37 7.37-2.12 11.69-2q2.16.05 4.3 0l1-1c8.28-1.3 16.68-1.1 25-1q3.22 0 6.4-.04l3.99-.03 3.96-.03c3.08.08 5.68.42 8.66 1.1q2.19.24 4.38.43c4.04.43 7.73 1.37 11.62 2.57l2.34.46c2.88.58 5.66 1.33 8.48 2.13l3.3.93 3.45.98 6.75 1.9 3 .86q2.45.67 4.9 1.3c7.02 1.75 12.92 4.9 18.58 9.36 3.1 1.52 4.9.97 8.2.08 7.23-3.18 13.79-7.74 20.28-12.17 2.53-1.7 5.1-3.28 7.72-4.83l2.54-1.57 2.53-1.56 2.53-1.57a21 21 0 0 1 6.4-2.3 137 137 0 0 0 9.75-3c25.36-7.8 57.74-8.5 79.73 7.91" fill="#E7E8E9"/><path d="M269 258c2.94 1 2.94 1 5 2v1h-5c1.63 1.71 2.87 2.93 5 4v2l1.73.78a34 34 0 0 1 6.52 4.72l2.14 1.84C286 276 286 276 286 278h2a42 42 0 0 1 2.62 4.12c2.7 4.23 5.46 6.79 9.65 9.49 2.03 1.63 2.81 2.96 3.73 5.39v3h2c-.11 1.84-.11 1.84-1 4-2.8 1.38-2.8 1.38-6.31 2.56-4.16 1.42-7.22 2.8-10.69 5.44h-3v2h-3v2h-3l-.69 1.71c-1.67 2.92-3.74 4.75-6.25 6.98l-2.65 2.38C267 329 267 329 264 330c-1.12 2.5-1.12 2.5-2 5-1 1-1 1-3.56 1.06L256 336l-2 6h-1a45 45 0 0 1-1.13-10.11l-.01-3 .02-3.2.01-3.34c.09-14.81.49-29.62 1.99-44.35l.2-2.12c.67-5.93 2.22-11.45 5.67-16.38 3.22-2.15 5.45-1.9 9.25-1.5" fill="#242523"/><path d="M371.5 381.8c7.54 3.78 13.75 10.7 17.5 18.2 1.35 8.57.07 15.94-5 23a31 31 0 0 1-18.92 10.45c-6.58.37-10.9-.64-16.11-4.7-7.13-6.38-11.05-13.06-12.6-22.62.4-6.62 4-13.47 8.6-18.12A54 54 0 0 1 351 384l2.75-1.87a27.6 27.6 0 0 1 17.75-.32" fill="#F2D859"/><path d="M297.7 376.31c7.41 5.44 10.13 13.06 11.68 21.9a26 26 0 0 1-5.77 17.46c-5.79 5.17-12.16 5.9-19.64 5.77-6.1-.9-9.82-5-13.79-9.44-4.03-5.53-5.75-10.03-5.68-16.88l.01-2.14c.2-5.92 1.4-9.74 5.5-13.98l1.41-1.5c8.13-7.65 17.57-6.89 26.28-1.19" fill="#F0D362"/><path d="M381 543c0 3.52-.4 3.78-2.75 6.19l-1.77 1.85-1.92 1.96a244 244 0 0 0-14.49 16.46 181 181 0 0 1-6.57 7.54 211 211 0 0 0-8.81 10.31 247 247 0 0 1-12.79 14.45c-3.8 4.04-3.8 4.04-4.9 6.24h-2l-.63 1.61c-1.92 3.35-4.56 5.88-7.27 8.59l-1.79 1.8-3.76 3.77a755 755 0 0 0-5.64 5.68c-20.37 20.5-20.37 20.5-30.52 20.65L273 650h-4.88l-2.11-.06A23 23 0 0 0 260 651a16.4 16.4 0 0 1 5.35-7l2.06-1.67 2.21-1.77 2.31-1.86q3.53-2.86 7.07-5.7l8.12-6.56 1.99-1.61a621 621 0 0 0 17.29-14.7q5.14-4.46 10.35-8.82a414 414 0 0 0 14.55-12.9c2.75-2.46 5.58-4.78 8.45-7.1 3.76-3.04 7.23-6.17 10.59-9.65a90 90 0 0 1 5.41-4.91 164 164 0 0 0 9.75-9.25c3.85-3.89 7.77-7.61 11.94-11.16A63 63 0 0 0 381 543" fill="#E9ECED"/><path d="M359 386c5.32 2.66 9.51 6.58 12 12 .94 5.84.82 11-1.44 16.5-4.93 4.81-9.81 7.77-16.81 8-4.02-.25-6.73-.66-9.75-3.5-3.08-4.66-4.9-9.37-5-15 1.35-5.66 3.93-11.88 8.82-15.26 4.08-2.22 7.49-3.56 12.18-2.74" fill="#131513"/><path d="m703 245 2 1q3.66.08 7.31 0c4.41-.07 8.4-.03 12.69 1l6 1v2l-3.15-.06C663.03 248.75 607.33 265.23 549 293l-6.51 3.07a892 892 0 0 0-50.22 25.96 386 386 0 0 1-17.25 8.97 351 351 0 0 0-10.92 5.61l-2.54 1.36-4.83 2.62c-6.31 3.38-12.48 6.41-19.73 6.41v-42h3l-.02 1.76-.04 7.93-.03 2.76-.01 2.69-.01 2.46c.11 2.4.11 2.4.68 5.14L441 330l-1 1q-.1 3.29-.06 6.56l.02 3.63.04 2.81 4.73-2.05a163 163 0 0 1 4.6-1.84c15.25-5.97 29.72-14.22 43.83-22.49q2.9-1.65 5.9-3.15c2.74-1.37 5.32-2.89 7.94-4.47q2.76-1.43 5.56-2.81l3.2-1.59L519 304l5.88-2.94 9.88-4.92 1.92-.95q2.69-1.35 5.39-2.67C545 291 545 291 548 289a68 68 0 0 1 7.48-2.75c4.99-1.77 9.76-3.98 14.58-6.19l2.97-1.34 2.88-1.31 2.6-1.18A90 90 0 0 0 586 272a17 17 0 0 1 6.81-2.44c3.04-.53 5.44-1.52 8.24-2.76 3.92-1.61 8.01-2.71 12.08-3.91A69 69 0 0 0 625 258q2.99-.57 6-1 5.24-1.45 10.44-3.06A79 79 0 0 1 653 252c2.43-.5 4.64-1.21 7-2 4.08-1.36 7.37-2.11 11.69-2q2.15.07 4.31 0l1-1c7.36-1.16 14.8-1.07 22.23-.94C702 246 702 246 703 245" fill="#EBECEC"/><path d="M283 378c4.86 2.61 9.22 5.66 11 11 .78 10.65.78 10.65-2 15-4.58 4.5-7.84 7.15-14.38 7.44-2.98-.03-2.98-.03-5.62-.44-2.56-2.62-2.56-2.62-4-6l-1.25-2.88c-1.67-6.96-1.07-12.81 2.25-19.12 4.09-4.83 7.73-5.85 14-5" fill="#131712"/><path d="M250 659c1 3 1 3-.44 5.94-2.8 6.06-2.36 13.04-.68 19.37 6.2 7.85 15.09 11.86 24.89 13.02q4.18.26 8.35.36l2.9.1q3.49.12 6.98.21l-1 2c-12.05 2.51-24.03 1.1-34.81-4.88A25 25 0 0 0 250 693l-6-3-1.98-.39c-3.76-1.14-6.03-4.34-8.02-7.61.12-2.94.12-2.94 1-5 2.76-.6 5.16-1 8-1l3-11-2.52 1.5-3.29 1.94-3.27 1.93C234 672 234 672 231 673l-3-3 2.27-.88A114 114 0 0 0 250 659" fill="#D4D5D6"/><path d="m251 596 1 3q-4.02 4.1-8.06 8.19l-2.28 2.33c-7.32 7.38-13.65 13.55-24.41 13.86-7.6.45-12.04 2.09-17.94 6.74-5.56 6.92-8.76 14.62-8.66 23.5.77 5.24 4 8.95 7.54 12.69 9.91 5.95 20.65 5 31.81 4.69v2c-4.62 1.31-9.11 1.22-13.88 1.25l-2.68.06c-5.29.03-8.84-.43-13.44-3.31l-3.19-1.94c-2.68-1.97-4.1-3.26-5.81-6.06l-1.07-1.71c-2.89-5.1-3.93-9.47-2.93-15.29a66 66 0 0 1 4-9l1.19-3.12c2.75-4.36 6.63-6.95 10.81-9.88l2.56-1.81a30 30 0 0 1 14.56-3.19c3.87 0 6.4-.34 9.88-2 1.13-2 1.13-2 2-4l1.78-.86c2.76-1.42 4.5-3.23 6.66-5.45l2.37-2.43L245 602l3-3 2-2z" fill="#D9D8DA"/><path d="M297.77 376.3A22 22 0 0 1 303 382h-3v-2h-4v20l-3 1 .1-2.45.09-3.23.1-3.2c-.44-4.77-2.3-7.26-5.85-10.37-4.74-3.4-9.2-3.1-14.81-2.5-1.63.75-1.63.75-2.75 2.38-2.92 7.93-4.4 14.39-.94 22.25A198 198 0 0 0 271 408l1 2c10.6.87 10.6.87 15.07-2.5L290 405h2v3h-2v2h-4v2l-15 1c-5.58-8.88-7.26-15.46-6-26a20 20 0 0 1 5-8l1.43-1.51c8.27-7.76 17.45-6.66 26.34-1.2" fill="#E2D55F"/><path d="M371.54 381.58c2.28.9 3.76 1.64 5.46 3.42a26 26 0 0 1 1 9l-4 2 .08 1.84A70 70 0 0 1 372 416h-2v2h-5l1.94-2.37c3.67-4.68 3.52-8.43 3.48-14.28-.77-6.22-4.24-9.41-8.73-13.41-4.97-1.74-9.73-.77-14.5 1.25-2.73 2.26-4.37 4.79-6.2 7.8l-1-2c6.9-11.46 18.49-16.4 31.55-13.41" fill="#F2DF6E"/><path d="M269 261c6.43-1 10.09 1.43 15.36 5a60 60 0 0 1 7.95 7.25 71 71 0 0 0 5.94 5.31c3.27 2.84 5.4 5.22 6.75 9.44-.31 3.38-.31 3.38-1 6-7.25-2.2-12.34-7.57-16-14v-2h-2l-1.62-2.12c-2.63-3.18-5.41-5.22-8.77-7.55L274 267v-2l-5-2z" fill="#080A0A"/><path d="M339 397c1.01 2.81.96 4.19.31 7.19-.41 5.05 1.12 8.5 3.69 12.81 3.37 3.97 6.94 3.82 11.94 4.25 3.9-.32 6.54-1.56 10.06-3.25v2l5 1-2 1 1 7-3 1v2c-4.35 1-8.24 1.73-12.46-.02-8.46-5.45-13.85-12.23-16.54-21.98-.66-4.71-.14-8.71 2-13" fill="#F1D453"/><path d="M831 547c.13 7.1-.01 13.69-2.06 20.56-.92 3.36-1.02 5.99-.94 9.44q-.48 2-1 4l-.94 5.19A147 147 0 0 1 821 607q-.78 3.37-1.5 6.76a72 72 0 0 1-3.5 11.68c-1.35 3.45-2.14 6.95-3 10.56l-4 1a616 616 0 0 1 5.73-21.94l2.36-8.49c4.4-15.7 7.3-31.17 8.73-47.44l.34-3.46.27-3.09c.53-2.41 1.57-5.58 4.57-5.58" fill="#E3E4E5"/><path d="M322 418c3.62 1 3.62 1 6 2-.54 4.77-1.88 8.21-4.25 12.38l-1.77 3.21C320 438 320 438 317.37 438.45c-2.37-.45-2.37-.45-3.99-1.95-2.59-4.7-5.32-10.03-4.38-15.5 3.35-4.44 7.92-3.48 13-3" fill="#6A6B6B"/><path d="m931 345 2 1c.5 6.38-1.24 11.07-3.62 16.94l-1.11 2.82a1312 1312 0 0 1-4.12 10.36 238 238 0 0 0-8.9 27.19l-.89 3.29c-2.59 9.81-4.55 19.44-4.98 29.59l-.12 2.3L909 444l-2-1q-.34-5.19-.62-10.38l-.2-2.98-.16-2.85-.16-2.64C906 422 906 422 908 420q.55-3.5 1-7a559 559 0 0 1 2-7q.7-3.29 1.34-6.59a55 55 0 0 1 2.86-7.53c1.33-3.13 2.37-6.34 3.42-9.57l.66-1.97a86 86 0 0 0 2.22-7.5c.65-2.39 1.76-4.36 2.94-6.53a43 43 0 0 0 4.16-12.19c.59-3.11 1.5-6.09 2.4-9.12" fill="#E8EAEC"/><path d="M296 404v8h6v2h-2v2h-2v2h-4l-1 3c-11.48 1.03-11.48 1.03-16.69-2.81-2.53-2.12-3.24-2.98-4.31-6.19h14v-2h4v-2c4.59-4 4.59-4 6-4" fill="#F2D651"/><path d="m438 304 2 1-.02 1.76-.04 7.93-.03 2.76-.01 2.69-.01 2.46c.11 2.4.11 2.4.68 5.14L441 330l-1 1q-.1 3.29-.06 6.56l.02 3.63.04 2.81 2.75-1.19q3.48-1.5 7-2.91a144 144 0 0 0 18.07-8.76C470 330 470 330 472 330c-1.22 3.67-2.04 3.85-5.38 5.59l-2.73 1.44-2.89 1.47-2.79 1.47C444.63 347 444.63 347 437 347l-.05-17.89-.03-6.09-.02-8.73-.01-2.77q.01-3.27.11-6.52z" fill="#EAE9EB"/><path d="M974 345h1c1.27 9.93 2.22 20.08-3 29l-.45 2.34c-.6 2.9-1.63 5.18-2.93 7.85A100 100 0 0 0 963 400q-.69 2.48-1.44 4.94l-.62 2.15c-1.19 2.42-2.71 3.45-4.94 4.91a136 136 0 0 1 7.94-25.62c5.57-13.24 8.69-27.1 10.06-41.38" fill="#E0E0E3"/><path d="M532 297h3c-1.2 3.6-2.47 4.04-5.73 5.7l-2.02 1-2.1 1.06q-3.36 1.7-6.71 3.36l-8.69 4.39-2.19 1.1a372 372 0 0 0-17.1 9.33A188 188 0 0 1 472 332v-3l1.85-.96 8.34-4.35 2.91-1.52 2.82-1.47 2.58-1.35c2.55-1.38 5.02-2.86 7.5-4.35q2.99-1.53 6-3 4.56-2.26 9-4.75a373 373 0 0 1 15.66-8.05C531 298 531 298 532 297" fill="#E7E6E8"/><path d="m412 268 3 1 3-1c2.69.44 2.69.44 5 1v1l-2.94.56c-5.23 1.48-8.96 5.02-13.06 8.44l-2.62 1.94a51 51 0 0 0-5.38 5.44l-1.83 2.04a101 101 0 0 0-4.84 6.28c-7.47 9.8-7.47 9.8-12.78 10.73-5.68.05-11.06-1.05-16.55-2.43v-1l4.38-1.06 2.46-.6C372 300 372 300 374 301c6.6 1.01 6.6 1.01 9.99-1.44a103 103 0 0 0 5.89-6.44l4.18-4.67 2.03-2.31c2.51-2.81 5.12-5.48 7.79-8.14l2.3-2.31C408 274 408 274 410 273q.56-1.99 1-4z" fill="#DDDEDE"/><path d="m703 245 2 1q3.66.08 7.31 0c4.41-.07 8.4-.03 12.69 1l6 1v2h-58c4.52-3.39 4.52-3.39 8.88-3.69l2.89-.2c4.82-.17 9.63-.13 14.46-.05C702 246 702 246 703 245" fill="#F2F2F5"/><path d="m360.29 381.9 2.78.04 2.78.02 2.15.04v2l6 1 .38 1.94.62 2.06 2 1-1 2h-2l-2 4c-1.68-.13-1.68-.13-4-1q-1.81-2.19-3.56-4.44c-2.41-2.62-5.28-3.96-8.44-5.56 1.49-2.98 1.49-2.98 4.29-3.1" fill="#F8EA6E"/><path d="m828 502 4 1c.12 7.62.12 7.62-1 11q-.13 2.79-.13 5.59l-.01 3.32.02 3.47-.02 3.44.01 3.33v3.04c.13 2.81.13 2.81.69 5.55.56 2.87-.19 3.75-1.56 6.26q-.58 2.99-1 6h-1z" fill="#F4F6F7"/><path d="m272 253 1.25 1.31A52 52 0 0 0 279 259l1.94 1.62c2.38 1.59 4.27 1.84 7.06 2.38 2.75 1.25 2.75 1.25 5 3 .81 2.69.81 2.69 1 5-4.68.51-6.64-.86-10.25-3.75-5.9-4.47-11.1-7.76-18.5-8.75-3.82.59-5.5 1.84-8.25 4.5 1.3-2.9 2.55-4.95 5-7 2.23-.7 2.23-.7 4.62-1.12 4.3-.8 4.3-.8 5.38-1.88" fill="#EEF1F1"/><path d="M189 644h1l.04 2.34c.4 8.69 2.21 13.7 8.15 19.97 9.91 5.95 20.65 5 31.81 4.69v2c-4.62 1.31-9.11 1.22-13.88 1.25l-2.68.06c-5.29.03-8.84-.43-13.44-3.31l-3.19-1.94c-2.68-1.97-4.1-3.26-5.81-6.06l-1.07-1.71c-2.82-4.98-3.95-9.58-2.93-15.29z" fill="#E9EAEB"/><path d="m833 468 5 3-3 3-2-1 1 2a38 38 0 0 1-2 16q.48 3.5 1 7c-.94 2.44-.94 2.44-2 4h-3c1.21-30.21 1.21-30.21 5-34" fill="#EAEAEE"/><path d="M339 397c1.01 2.81.96 4.19.31 7.19-.45 5.56 1.54 10.27 5.15 14.54 2.31 1.91 4.6 1.92 7.54 2.27l5 1-1.94 1.31C353 425 353 425 352 428h4v2h2v3c-7.42-2.06-13.2-6.83-17.5-13.23A31 31 0 0 1 337 402c1-3 1-3 2-5" fill="#C8BC7D"/><path d="M765.16 256.29c5.63 1.67 5.63 1.67 8 2.15 1.84.56 1.84.56 3.1 2.63L777 263l-4.63-1.25-3.09-.83a224 224 0 0 1-6.25-1.83c-11.8-3.6-23.92-5.77-36.03-8.1 11.51-5.74 26.27 1.77 38.16 5.3" fill="#D9DDDE"/><path d="M304 384c3.93 3.93 5.14 10.54 5.44 16-.27 5.63-2.25 11.37-5.87 15.71-2.95 2.64-5.64 3.94-9.57 4.29v-2h4v-2h2v-2h2v-2h2c.56-1.94.56-1.94 1-4l-1-1a88 88 0 0 1-.1-5.13l.01-3.13.03-3.3.01-3.31z" fill="#E3D176"/><path d="M381 543c0 3.52-.4 3.78-2.75 6.19l-1.77 1.85-1.92 1.96A258 258 0 0 0 358 572l-1-2-3 1a23 23 0 0 1 5.2-7.43l1.9-1.9 2.02-1.98 2.05-2.03c4.02-3.96 8.09-7.83 12.41-11.46C379 545 379 545 381 543" fill="#E9EAED"/><path d="M971 306c5.01 4.01 5.57 8.8 6.38 14.81.64 6.5.64 12.87.31 19.38l-.11 2.25c-.33 5.31-.33 5.31-2.58 7.56l-.04-2.38-.27-10.87-.07-3.74c-.21-7.17-.98-13.62-2.99-20.51-.63-2.5-.63-2.5-.63-6.5" fill="#EDEDF0"/><path d="M224 622v1l-2.78.08c-9.03.42-14.84 1.46-21.91 7.04-3.18 3.96-5.18 8.29-7.31 12.88l-2 4c-1.07-4.36-1.24-6.47.62-10.62 4.94-7.59 12.37-13.26 20.63-16.76 4.93-.82 8.23.47 12.75 2.38" fill="#E3E5E4"/><path d="M909 440a24 24 0 0 1 2.81 7.62c1.98 8.08 5.18 14.61 12.19 19.33a18 18 0 0 0 8 2.05v1h-6l-1 2-2.31-2c-2.69-2-2.69-2-5.69-2l-2.05-5.08c-.95-1.92-.95-1.92-2.45-3.85-3.31-4.56-5-10.6-4.19-16.19z" fill="#D8D9DC"/><path d="m500 540 2 1Zm-1 1v3l-2 2 1 2-4 2 1 6c-5.38 1.19-10.45 2.29-16 2 1.38-1.5 1.38-1.5 3-3h2v-2l4-1v-2c1.64-1.4 1.64-1.4 3.81-2.94A47 47 0 0 0 499 541" fill="#09090A"/><path d="m269 380 2 2-1.44 2.25c-2.68 4.72-3.28 9.34-2.56 14.75a70 70 0 0 0 4 9l1 2c10.59.86 10.59.86 15.06-2.5L290 405h2v3h-2v2h-4v2l-15 1c-5.74-9.12-6.82-15.26-6-26 1.01-2.96 2.03-4.54 4-7" fill="#DEC87B"/><path d="M435 308c2.56 3.85 2.26 7.82 2.2 12.27l-.01 2.4q-.02 3.79-.07 7.58l-.02 5.15q-.03 6.3-.1 12.6l2 1-1 3h-2c-1.63-2.87-2.24-4.84-2.14-8.13l.07-2.42.09-2.59.08-2.67q.13-4.23.28-8.44l.17-5.73q.21-7.01.45-14.02" fill="#1B1D1C"/><path d="m438 304 2 1-.02 1.76-.04 7.93-.03 2.76-.01 2.69-.01 2.46c.11 2.4.11 2.4.68 5.14L441 330l-1 1q.08 3 .26 5.99c-.33 2.58-1.4 3.28-3.26 5.01l-.05-15.75-.03-5.37-.02-7.69-.01-2.44q.01-2.87.11-5.75z" fill="#EFF1F0"/><path d="M911 407h2c-.47 4.73-1.04 9.34-2 14-1.45 7.59-1.66 15.3-2 23l-2-1q-.34-5.19-.62-10.38l-.2-2.98-.16-2.85-.16-2.64C906 422 906 422 908 420q.54-3.5 1-7 .93-3.02 2-6" fill="#ECEEF1"/><path d="M841 393h1l.38 3.44.62 3.56 2 1-.5 1.62c-.5 2.38-.5 2.38-.5 5.44 0 2.94 0 2.94-1 5.94l.06 3.31A25 25 0 0 1 841 427h-2c-.15-7.6.32-15.06 1-22.62l.29-3.34z" fill="#E2E1E5"/><path d="M296 380h4v2h4v6l-3 1v3l-3 2 1 2-3 3z" fill="#EDDA5B"/><path d="m948 458 1 2c-1.25 2.31-1.25 2.31-3 5l-1.44 2.69c-1.74 2.58-2.68 3.24-5.56 4.31l-2.88 1.25c-3.77.91-5.63.37-9.12-1.25l-1-2 2.45-.55 3.24-.76 3.2-.74c4.6-1.4 7.96-3.33 10.92-7.14z" fill="#F0F1F3"/><path d="M243 386h1c.19 14.02-.4 28-1 42-2.3-3.45-2.25-4.75-2.23-8.81l.01-3.51.03-3.68v-3.58c.11-20.34.11-20.34 2.19-22.42" fill="#EAEBEF"/><path d="m672 248 1 1q3.5.55 7 1v1l-2.34.34-10.6 1.54-3.67.52c-6.54.96-12.96 2.06-19.39 3.6 5-5.2 11.03-6.04 18-7 3.66-2.44 5.69-2.24 10-2" fill="#E4E4E8"/><path d="M369 381a39 39 0 0 1 8 4l-3 2v-2l-6-1v-2h-10l-1 2 1 1v1l-2.01.48c-5.68 1.5-9.14 2.85-12.99 7.52l-3 3c2.39-7.61 8.42-11.22 15-15 4.18-2.09 9.45-1.44 14-1" fill="#D9D389"/><path d="M286 410h4v2h-2v6h-6v-2h-6v-2l-4-2h14z" fill="#F6DE57"/><path d="m926 245 2 1-1 3-1.8-.72-8.2-3.22-2.83-1.13c-5.46-2.12-10.32-3.5-16.17-3.93v-1c10.13-2.22 19.15 1.3 28 6" fill="#DDDFE0"/><path d="m497 315 1 2 2 1a391 391 0 0 1-28 14v-3l1.86-.96 8.39-4.35 2.93-1.52 2.84-1.47 2.6-1.35A50 50 0 0 0 497 315" fill="#E0E0E1"/><path d="M739 677c11.87-.07 23.7.13 35.56.5l4.83.14L791 678v1l-17.35.43-5.91.14-11.15.28-2.49.06-2.18.05a269 269 0 0 1-4.92.04l-1-1q-3.5-.55-7-1z" fill="#F0F1F3"/><path d="m290 372 2 2-6 1v3h-2v-2a182 182 0 0 0-14 5c1.41-3.4 2.83-5.12 6-7a32 32 0 0 1 14-2" fill="#E1D76E"/><path d="M303 479a576 576 0 0 1 25 5v2c-5.78.21-10.56.2-16-2l-4.88-1.62L303 481z" fill="#E8E8E7"/><path d="M257 265h2l.12 6.69.08 3.76A20 20 0 0 1 257 284h-2l-.12-6.69-.08-3.76c.19-3.36.74-5.55 2.2-8.55" fill="#0F1110"/><path d="m418 266 5.96.78c2.04.22 2.04.22 5.04.22 2.66 2.82 4.43 5.13 5 9l-5-1-1-3c-2.29-.95-2.29-.95-5.06-1.69l-2.79-.76L418 269z" fill="#E7E8EB"/><path d="M838 421h1c2.42 6.25 2.48 12.45 1 19l-3 2-2 3z" fill="#DADADD"/><path d="M341 298a1118 1118 0 0 1 10.52-.09c6.03-.02 10.89.69 16.48 3.09v1c-8.74.26-17.48.17-26-2z" fill="#EEEFF0"/><path d="M912 412h3c.38 5.93-.89 10.47-3 16h-2v12h-1c-.45-9.82.79-18.48 3-28" fill="#28292C"/><path d="M931 321c2.9 4.35 3.13 8.16 3.1 13.3l-.01 2.96-.03 3.05-.01 3.11L934 351h-1l-.4-3.32-.54-4.37-.26-2.18a109 109 0 0 0-1.39-8.99c-.5-2.63-.01-4.55.59-7.14z" fill="#D9D9DC"/><path d="M267 698h25l-1 2a57 57 0 0 1-23 0z" fill="#E8E6EA"/><path d="M820 595c2 3 2 3 3 6q-.91 3.03-2 6l-.88 3.75C819 614 819 614 816.93 615.2l-1.93.8 1.94-8.25.55-2.36.54-2.28.49-2.1z" fill="#D6D6D9"/><path d="m272 413 4 1v2h6v2l7-1 1 2 3 2c-11.48 1.03-11.48 1.03-16.69-2.88-1.96-1.68-3.15-2.81-4.31-5.12" fill="#E3CA5D"/><path d="M829 483h1l.44 2.31C831 488 831 488 832 491c1.26 6.32 1.26 6.32.06 9.44L831 502h-3z" fill="#E5E5E8"/><path d="M309 690c-6.99 3.87-12.9 7-21 7l-2-2h6v-3l3.06.19c3.42-.17 4.77-.38 7.69-1.75C306 689 306 689 309 690" fill="#0B0C0D"/><path d="M352 421q2.51.43 5 1l-1.94 1.31C353 425 353 425 352 428h4v2h2v3c-3.84-1.14-7.13-2.13-10-5v-4l3-2z" fill="#CCB76B"/><path d="m322 429 2 1a37 37 0 0 1-4 8c-2.44.5-2.44.5-5 0-1.81-2.5-1.81-2.5-3-5h6l1-3z" fill="#626361"/><path d="m361 419 2 1-1 2h-2v6h-2v2h-2v-2h-4c.37-2.66.7-3.75 2.78-5.52l2.16-1.29 2.15-1.33z" fill="#E8CB59"/><path d="M341 298q1.96.58 3.94 1.12l3.06.88v1l-25-1c6.28-4.18 11.04-4.53 18-2" fill="#C9CBCA"/><path d="M892 283c6.94.55 13.44 3.74 18.62 8.31L912 293c-4.17-.61-7.25-2.13-11-4a221 221 0 0 0-9-3z" fill="#DBE0E2"/><path d="m865 239 3 2-20 4 1-3c2.88-1.12 2.88-1.12 6-2 3.53-1.18 6.29-1.2 10-1" fill="#DFDFE2"/><path d="M364.09 377.82c4.57.61 8.2 1.19 11.9 4.18v2l3 1-2 1-3.5-1.88c-4.71-2.51-9.2-2.9-14.5-3.12 1.67-2.03 2.43-2.95 5.1-3.18" fill="#1E1C06"/><path d="M245 369h2l-2 23h-1c-1.64-8.18-1.07-15.02 1-23" fill="#DCDCDD"/><path d="M841 412c2 2 2 2 2.25 5.25A31 31 0 0 1 841 427h-2c-.37-10.56-.37-10.56 2-15" fill="#F0F2F5"/><path d="M353 386c5.29-.5 7.87.73 12 4l1 2c-5.75 1.12-5.75 1.12-8 0v-2h-2v-2l-3-1z" fill="#252313"/><path d="m290 383 6 1v16l-3 1 .11-2.41c.26-10.53.26-10.53-3.11-15.59" fill="#CAC062"/><path d="M291 270c5.19 2.1 9.16 5.14 12 10l-1 3-12-11z" fill="#D9DCDB"/><path d="m231 614 3 2c-5.26 4.55-8.03 6.14-15.19 6.06l-3.29-.02L213 622v-1l2.96-.62 3.85-.82 3.83-.81C227 618 227 618 230 617z" fill="#E7E7E8"/><path d="M831 547c.35 6.52.04 11.18-3 17h-1a516 516 0 0 1-.19-6.81l-.1-3.83c.29-3.36.29-3.36 1.74-5.31C830 547 830 547 831 547" fill="#E3E1E5"/><path d="M958 410c2.06 5.72 0 11.52-2 17l-2-1c-.36-5.8.69-9.65 3-15z" fill="#E9E9EC"/><path d="M692 395c2.5 3.74 1.9 6.44 1.12 10.75l-.61 3.55-.51 2.7h-3a94 94 0 0 1 3-17" fill="#050705"/><path d="M358 382h2v2l3 1 1 3h2v2h2v2h2l-1 4-1.07-1.39A32.5 32.5 0 0 0 356 385c1-2 1-2 2-3" fill="#E7DB7D"/><path d="m847 242 1 3q-2.87 1.3-5.75 2.56l-3.23 1.44c-3 .99-4.15 1.16-7.02 0 3.31-2.33 6.01-4.23 10-5q2.5-.97 5-2" fill="#EEEEF0"/><path d="M824 581c2.31 3.46 2.04 4.93 1.43 8.93A54 54 0 0 1 823 598h-2q.17-2.84.38-5.69l.21-3.2c.4-3.02 1.15-5.35 2.41-8.11" fill="#E5E7E8"/><path d="M381 392v3h-3v3l2 1-4 1v4h2v2l-3-1a43 43 0 0 1-1-9c2.23-3.27 3.01-4 7-4" fill="#FAE262"/><path d="M975 329c3 3 3 3 3.14 6.72q-.14 2.18-.33 4.34l-.13 2.22c-.41 5.45-.41 5.45-2.68 7.72z" fill="#EEEEF1"/><path d="M252 312h1l1 24h2l-2 6h-1a46 46 0 0 1-1.1-10.96l.01-3.37.03-3.48.01-3.55z" fill="#313433"/><path d="m438 304 2 1c.2 5.74.27 10.61-2 16h-1a1051 1051 0 0 1-.09-10.22q0-2.9.09-5.78z" fill="#F5F6F6"/><path d="m672 248 1 1q3.5.55 7 1v1l-14 1v-2l-5 2c3.33-4.26 5.71-4.5 11-4" fill="#DFDFE1"/><path d="M833 456h3c.99 3.09.96 4.92 0 8l-.38 2.19L835 468l-3 1z" fill="#DBDBDF"/><path d="m243 424 .77 1.65c1.99 3.8 4.42 7.31 6.77 10.89C252 439 252 439 252 441c-4.81-2.03-6.91-5.32-9-10a25 25 0 0 1 0-7" fill="#D9DAD8"/><path d="m431 276 4 1 .44 3.38C436 284 436 284 437 286c-.34 2.16-.34 2.16-.94 4.62l-.59 2.48-.47 1.9h-1l-.4-2.63-.54-3.49-.52-3.45q-.75-4.72-1.54-9.43" fill="#E8E6EA"/><path d="M328 484h8c-.57 3.87-2.49 6.08-5 9a22 22 0 0 1-1-6l-2-1z" fill="#D9DADB"/><path d="M950 440h1c1.59 13.31 1.59 13.31-1 18-2.08 1.15-2.08 1.15-4 2l.62-1.84A72 72 0 0 0 950 440" fill="#CFD0D2"/><path d="M250 347h2l1 3 2 1-1.43 1.21c-1.89 2.15-2.16 3.62-2.63 6.41-.41 2.42-.41 2.42-.94 4.38l-2 1z" fill="#2B2B2D"/><path d="M247 352h2c.22 6-.49 11.19-2 17h-2z" fill="#E8EAE9"/><path d="m265 583 2 1q-1.42 2-2.88 4l-1.61 2.25L261 592h-2v2a107 107 0 0 1-5 4l-2-1 1.32-1.29c4.13-4.06 7.96-8.26 11.68-12.71" fill="#17161A"/><path d="m279 406 1 2h6c-1.14 1.49-1.14 1.49-3 3-2.7.29-2.7.29-5.69.19l-3.01-.08-2.3-.11 1-3c3.06-1.19 3.06-1.19 6-2" fill="#29200A"/><path d="m960 396 1 4h2q-.6 2.16-1.25 4.31l-.7 2.43C960 409 960 409 956 412z" fill="#D2D3D4"/><path d="M282 380v4l-3-1c-7.18.18-7.18.18-10 3 .33-2.47.58-3.66 2.56-5.25 3.55-1.09 6.74-.87 10.44-.75" fill="#0B120B"/><path d="M907 426h2v18l-2-1a88 88 0 0 1-.69-7.44l-.14-2.1c-.31-5.19-.31-5.19.83-7.46" fill="#F2F5F7"/><path d="m376 426 4 1-4.31 2.44-2.43 1.37c-3.64 1.92-6.4 2.31-10.45 2.25l-2.73-.02L358 433v-1h8v-2l10-2z" fill="#E4CC7A"/><path d="M339 397c1 2.79.96 4.16.31 7.12-.43 5.34 1.46 9.11 3.69 13.88h-3c-2.84-6.62-4.37-11.9-2-19z" fill="#84816E"/><path d="M382 302c-2 2-2 2-4.14 2.23A94 94 0 0 1 363 303v-1c6.9-2.34 11.97-1.68 19 0" fill="#E1E2E5"/><path d="M381 543c0 4.16-2.28 5.84-5 8.69l-1.45 1.55q-1.76 1.89-3.55 3.76l-4-1z" fill="#9E9DA2"/><path d="m269 380 2 2-1.44 2.25c-2.78 4.91-2.6 8.98-2.4 14.51C267 401 267 401 265 403c-.74-17.08-.74-17.08 4-23" fill="#8D9180"/><path d="M283 378a30 30 0 0 1 6 4l-3 2v-2h-2v-2h-10l-1 2-2-2c3.71-2.47 7.7-2.71 12-2" fill="#30280F"/><path d="M512 309c-1 3-1 3-3.18 4.42l-2.7 1.33-2.67 1.36C501 317 501 317 498 316c9-7 9-7 14-7" fill="#EBEBED"/><path d="M909 293c2.91.09 4.57.58 6.67 2.62A132 132 0 0 1 920 301l-2 2-4.5-4.44-2.53-2.49C909 294 909 294 909 293" fill="#ECECEE"/><path d="M585 276c-2.46 2.46-4.78 3.3-8 4.62l-3.25 1.36C571 283 571 283 569 283c1-3 1-3 2.86-4.17 4.54-1.99 8.07-3.35 13.14-2.83" fill="#DFE0DF"/><path d="M275 257q2 1.14 4 2.31l2.25 1.3L283 262v3a111 111 0 0 1-11-5z" fill="#E2E6E6"/><path d="M774 258c2.06 2.56 2.06 2.56 3 5l-5.25-1.38-2.95-.77A34 34 0 0 1 762 258c4.14-1.38 7.8-1.18 12 0" fill="#D3D2D6"/><path d="m684 246 1 2c3.06.62 3.06.62 6 1v1h-18c4.15-3.11 6.01-3.52 11-4" fill="#EAEAEC"/><path d="M189 644h1l1 16c-4-4-4-4-4.46-6.51l.08-2.61.04-2.64C187 646 187 646 189 644" fill="#EDF0EE"/><path d="M881.94 282.9a485 485 0 0 0 7.25.06l2.81.04v2q-2.94.33-5.88.62l-3.3.35-2.82.03-2-2c1-1 1-1 3.94-1.1" fill="#EFF2F4"/><path d="m413 615 1 4-2.19.69c-2.81 1.31-2.81 1.31-5.37 4L404 626l-4-1z" fill="#E2E4E3"/><path d="m322.19 479.88 2.73.05q1.02.04 2.08.06v2l5 1v1c-6.28.25-11.88-.59-18-2 3.32-2.2 4.35-2.22 8.19-2.12" fill="#272829"/><path d="M386 418c.65 1.73.65 1.73 1 4-1 2.14-1 2.14-2.44 4.25l-1.43 2.14L382 430l-3-3 1.28-1.46 1.66-1.92 1.65-1.89C385 420 385 420 386 418" fill="#25180D"/><path d="M371 401h1v15h-2v2h-5l1.94-2.38c2.72-3.46 3.23-5.42 3.62-9.74l.26-2.76z" fill="#CDBD76"/><path d="M970 368c1.94 3.52 2.18 5.97 2 10l-1.94.81C968 380 968 380 967 383c-1.57-3.14-.12-5.37.94-8.62l1.15-3.61z" fill="#D6D6D6"/><path d="m292 374 1 6h-5v-2h-2v-3c2-1 2-1 6-1" fill="#EFE156"/><path d="M224 622v1l-16 1v-3c6.23-2.52 9.89-1.58 16 1" fill="#BFC0C0"/><path d="M343 418q2.5-.06 5 0l1 1q2.77.34 5.56.56l3.07.26 2.37.18c-2.49 2.49-3.37 2.3-6.81 2.31-4.18-.07-6.89-.56-10.19-3.31z" fill="#3A2B0E"/><path d="M291 368c2 2 2 2 2 4h-13c3-3 3-3 6.62-3.12l3.38.12z" fill="#0C0804"/><path d="m256 262 2 2-.94 2.44c-1.25 4.18-1.69 8.22-2.06 12.56h-1q-.37-2.84-.69-5.69l-.38-3.2c.08-3.58 1-5.24 3.07-8.11" fill="#D7DAD9"/><path d="M914 241v2l-16-3v-1c5.9-1.29 10.87-1.42 16 2" fill="#CACCCD"/><path d="M253 272h1v16l-3-2 .44-5.31.24-2.99c.32-2.7.32-2.7 1.32-5.7" fill="#E2E3E3"/><path d="M267 698h17v1h-7v2q-2.22-.17-4.44-.38l-2.49-.21L268 700z" fill="#DCDBE0"/><path d="M776 260q2.19.63 4.38 1.31l2.46.74C785 263 785 263 787 266l-2 1c-1.91-.67-1.91-.67-4.06-1.75l-2.16-1.05C777 263 777 263 776 260" fill="#E7E7E8"/><path d="M733 248c2.16.78 2.16.78 4.62 1.94l2.48 1.15 1.9.91c-3.53 1.2-6.13.8-9.75.06l-2.98-.59L727 251z" fill="#D6D9D9"/><path d="m494 557-4 1v2l-10-1v-1q2.37-.55 4.75-1.06l2.67-.6a13 13 0 0 1 6.58.66" fill="#DEDCDF"/><path d="m328 421 2 1v8h-4c.49-3.12 1-6 2-9" fill="#0B0F0B"/><path d="m349 385 4 2-1.61.66c-5.19 2.33-7.66 4.34-10.39 9.34l-1-2c5-7.48 5-7.48 9-10" fill="#989B88"/><path d="M252 330v13c-3-3-3-3-3.29-5.26l.1-2.43.08-2.45.11-1.86c2-1 2-1 3-1" fill="#D2D4D4"/><path d="m834 251-3.81 2.5-2.15 1.41C826 256 826 256 823 256c1.03-2.82 1.7-3.83 4.38-5.31 2.79-.73 3.93-.49 6.62.31" fill="#E6E6E7"/><path d="M317 483c7.43-.14 7.43-.14 11 1v2h-10z" fill="#F2F2F4"/><path d="M377 386q1.76 1.42 3.5 2.88l1.97 1.61L384 392v2l-3 1v-3h-3v-4l-2-1z" fill="#EDD063"/><path d="M389 296c-1.56 3.83-3.84 6.36-7 9-2.31-.19-2.31-.19-4-1l1.88-.25c2.12-.75 2.12-.75 3.18-2.63L384 299c2.57-3 2.57-3 5-3" fill="#D4D4D6"/><path d="M272 463c3.78 1.81 7.37 3.91 11 6l-1 2a27 27 0 0 1-10-6z" fill="#DBDCDC"/><path d="M305 384h3v7l4-1v2h-2v2h-2z" fill="#170D06"/><path d="m303 281 1.36 1.24c3.38 3.02 6.22 5.42 10.64 6.76l-1 2c-3.57-.58-5.25-1.87-7.75-4.44l-1.86-1.87C303 283 303 283 303 281" fill="#EEEFEB"/><path d="M739 250c4.88-.35 7.77.58 12 3v1c-4.99.29-7.96.06-12-3z" fill="#EBECEF"/><path d="M191 658c2.12 2.62 4.13 5.2 6 8l-2 2c-2.25-2.69-3.88-4.65-5-8z" fill="#DEDFDE"/><path d="M811 628a21 21 0 0 1 3 4c-.31 2.25-.31 2.25-1 4l-4 1z" fill="#DBDBDD"/><path d="m822 571 2 1c.25 7.62.25 7.62-2 11l-.56-5.44-.32-3.06-.12-2.5z" fill="#070808"/><path d="m272 413 4 1v2h6v3c-4.03-.27-5.57-.53-8.38-3.56z" fill="#E6CE6A"/><path d="M918 386c1.14 4.55.43 6.63-1 11l-3-3z" fill="#ECEEEF"/><path d="m928 360 2 1-4 10-2-1 1.44-4.44.81-2.49C927 361 927 361 928 360" fill="#E1E3E4"/><path d="m401 284 2 1a120 120 0 0 1-4 6h-2l-1 2-3-1z" fill="#080809"/><path d="M430 269c2.5 2.17 3.44 3.73 4 7l-5-1q-.06-2.5 0-5z" fill="#F0F0F5"/><path d="M945 263c3.26.35 4.02 1.02 6.25 3.56L953 269l-2 2-3-3.44-1.69-1.93C945 264 945 264 945 263" fill="#EBEBEB"/><path d="M937 255c4.88 1.35 6.49 3.72 9 8-3.92-1.31-6.33-2.83-9-6z" fill="#DBDCDA"/><path d="M297 641c-1.38 1.5-1.38 1.5-3 3h-2l-1 3c-2.06.69-2.06.69-4 1 5.6-9.2 5.6-9.2 10-7" fill="#040607"/><path d="M260 450c3.37 1.44 5.51 3.33 8 6l-1 3-3.5-3.38-1.97-1.89C260 452 260 452 260 450" fill="#232325"/><path d="m270 412 7 6-1 2h-2v-2h-2v-2l-3-1z" fill="#241E0C"/><path d="M384 394c2.25 2.05 3 3.01 4 6h-2v2h-6l2-2h3z" fill="#E9D268"/><path d="m841 350 3 2-2 11h-1z" fill="#E7E8EA"/><path d="m263 646 1 2h10v1l-2.05.18-2.7.26-2.67.24c-2.27.28-4.38.71-6.58 1.32 1.88-3.88 1.88-3.88 3-5" fill="#A5A8A9"/><path d="M373 645c2.48-.17 2.48-.17 5.19.25l2.73.39 2.08.36v1l-13 2z" fill="#DFE0DF"/><path d="M459 577c0 3 0 3-1.46 4.82l-1.92 1.87-1.89 1.88C452 587 452 587 450 587c1.38-3.21 2.92-5.05 5.62-7.25l1.92-1.58z" fill="#E5E8E5"/><path d="M352 421q2.51.43 5 1c-2.25 2.56-2.25 2.56-5 5-2.31-.19-2.31-.19-4-1v-2l3-2z" fill="#B8A54C"/><path d="M266 401c2.71 1.35 2.96 2.81 4.12 5.56l1.08 2.51.8 1.93h-3c-2.03-3.73-3-5.67-3-10" fill="#C2BB9F"/><path d="M369 556c0 3 0 3-2 5.19l-2 1.81-3-2c2.36-2.53 3.66-3.89 7-5" fill="#E0E1E4"/><path d="M307 524h3c-.75 2.44-.75 2.44-2 5-2.12.81-2.12.81-4 1 .57-2.87.86-3.86 3-6" fill="#ECECEE"/><path d="M832 481a15 15 0 0 1 2 4c-.88 2.25-.88 2.25-2 4h-2c-.12-2.88-.12-2.88 0-6z" fill="#F6F6FA"/><path d="m921 466 2.12.94A42 42 0 0 0 932 469v1h-6l-1 2a89 89 0 0 1-4-4z" fill="#D2D4D5"/><path d="m948 458 1 2c-1.68 3.37-2.82 4.88-6 7l-2-2z" fill="#E5E8E9"/><path d="m916 463 4 1v4h-3z" fill="#F3F3F5"/><path d="M274 375c2.12.38 2.12.38 4 1-2.35 2.72-4.62 3.81-8 5 1.15-2.47 2.05-4.05 4-6" fill="#E4E19F"/><path d="M927 317c1.95.71 1.95.71 4 2 .61 2.16.61 2.16.75 4.62l.17 2.48.08 1.9c-2-1-2-1-2.85-3.29l-.77-2.77-.79-2.79z" fill="#ECEAEF"/><path d="m412 278-1 4h-5l-1 3-2-2 3.38-2.5 1.89-1.41C410 278 410 278 412 278" fill="#090B0B"/><path d="m605.19 266.38 2.8.62c-2.97 2-5.58 2.94-9 4v-3c3-2 3-2 6.2-1.62" fill="#E2E4E6"/><path d="M389 405h1v13h-3z" fill="#33230B"/><path d="M370 400h1v11l-1-3h-2v-5h2z" fill="#130805"/><path d="M975 329c3 3 3 3 3.38 5.56L978 337l-3 2z" fill="#DEDEE0"/><path d="m518 305 3 2-9 4v-3z" fill="#DBD8DA"/><path d="M272 265h2v2l1.88.81C278 269 278 269 280 272h-4v-2h-2z" fill="#1B1C1A"/><path d="M333 600c0 3.62-.92 5.08-3 8l-3 1c.47-4.25 2.97-6.2 6-9" fill="#1D1E20"/><path d="M912 456c3 1 3 1 4.69 4.06L918 463c-3.37-1.39-4.99-2.98-7-6z" fill="#E3E5E7"/><path d="m361 419 2 1-1 2h-2v4h-2v-2l-2-1z" fill="#D8C269"/><path d="M309 395c2.74 4.11 2.74 4.11 3 7l-3 4z" fill="#0F0A02"/><path d="M306 396h3v8l-2 1z" fill="#D4C783"/><path d="M367 381c3.91 1.16 6.87 2.36 10 5l-3 1v-2l-6-1z" fill="#C9C36C"/><path d="M350 381c2.62.38 2.62.38 5 1a40 40 0 0 1-8 5c.57-2.87.86-3.86 3-6" fill="#212111"/><path d="M250 347h2l1 3 2 1-4 3c-1-1-1-1-1.06-4.06z" fill="#202223"/><path d="m433 283 4 2-2 10h-1z" fill="#D9D6DA"/><path d="m623 259 1 2-1 2q-3.47 1.1-7 2c1-3 1-3 4.06-4.69z" fill="#E6E6E6"/><path d="m291 620 3 1-5 5-2-2z" fill="#1B1B1C"/><path d="M264 583a19 19 0 0 1-5 7l-2-2c4.75-5 4.75-5 7-5" fill="#EBE9EF"/><path d="M384 389c2.78 1.39 2.98 3.16 4 6l-2 2-4-7z" fill="#2A1B0D"/><path d="M296 376c3.26 1.8 4.89 2.83 7 6h-3v-2h-4z" fill="#DFD270"/><path d="m336.19 296.94 1.8 1.06v1h-10c5.1-3.4 5.1-3.4 8.2-2.06" fill="#F5F7F8"/><path d="M560 287c-4.43 3.08-4.43 3.08-7.31 2.69L551 289c3.04-3.04 4.94-3.35 9-2" fill="#EEF0EF"/><path d="M816 263c-1 3-1 3-3.38 4.25C810 268 810 268 807 267c5.62-4 5.62-4 9-4" fill="#19191B"/><path d="M250 662h3l-1 5-4 1z" fill="#232326"/><path d="M815 611c1.26 3.77.37 5.37-1 9l-3-1z" fill="#090909"/><path d="M361 567c1 2 1 2 .06 5.12L360 575l-4-2z" fill="#232226"/><path d="m476 560 2 1-6 7-2-1z" fill="#DBDCDD"/><path d="m828 556 3 1-3 7h-1c-.12-5.75-.12-5.75 1-8" fill="#F5F6F7"/><path d="m371 552 3 1-4 4-3-1z" fill="#BDBCC1"/><path d="m320 506 2 2-2 3h-3c1.88-3.88 1.88-3.88 3-5" fill="#EAEBED"/><path d="m353 431 11 2v1h-12z" fill="#362B0B"/><path d="M341 414h5l1 3-4 1z" fill="#211B09"/><path d="m930 352 2 1-1 6-3 1z" fill="#E7EAEC"/><path d="M479 327v2l-7 3v-3c2.65-1.46 3.89-2 7-2" fill="#D8D8DB"/><path d="M416 268q3.5.43 7 1v1l-3.31.94q-3.37.95-6.69 2.06c1.88-3.88 1.88-3.88 3-5" fill="#D2D4D6"/></svg>