<svg style="background:transparent" version="1.1" xmlns="http://www.w3.org/2000/svg" viewBox="0 0 1248 704"><path d="M523 0v2l2.69.77c7.74 2.87 13.69 9.2 18.74 15.57C546 20 546 20 548 21c2.39 1.2 3.47 2.54 5.12 4.62 4.09 4.85 8.87 8.54 13.88 12.38 5.53 4.36 5.53 4.36 7.56 7.12C576 47 576 47 578.44 48.44c2.93 1.79 4.49 3.85 6.56 6.56 3.03 1.52 6.19 1.21 9.52 1.26l2.35.04q10.75.19 21.51.25 7.23.05 14.44.18 6.99.15 13.98.16l5.31.09c13.85.34 13.85.34 18.93-2.95A59 59 0 0 0 677 47c1.58-1.46 1.58-1.46 3.04-2.6 4.71-3.69 9.14-7.44 13.3-11.74 2.35-2.35 4.86-4.49 7.37-6.65q3.33-2.93 6.57-5.97A314 314 0 0 1 726 4l3.06-2.56c4.95-2.42 9.76-2.28 15.05-.89C750.37 3.18 755.29 8.43 759 14a52 52 0 0 1 2.25 15.93v2.29q.01 3.77-.01 7.53l.01 5.43-.01 14.69-.01 15.38-.02 25.8q-.03 14.92-.02 29.85l-.02 28.73v12.22l-.02 14.38v5.28l-.02 7.2.01 2.12c-.02 3.01-.18 5.29-1.14 8.17l-.31 2.62c-2.07 10.14-7.84 20.66-16.03 27a29 29 0 0 0-4.35 4.63c-2.29 2.73-3.26 3.26-6.31 4.75a224 224 0 0 0-5.69 4l-2.95 2.12C722 256 722 256 721 258c-.64 9.93 1.77 19.03 6 28l2 4.56c1.56 3.54 3.26 6.99 5 10.44 4.99 9.88 9.93 19.7 14 30l1.44 3.25c1.79 4.16 3.17 8.44 4.56 12.75l1.56 4.75.75 2.26a70 70 0 0 0 1.81 4.61c1.14 3.08 1.42 6.14 1.88 9.38l1 2.38c1.22 3.21 1.47 6.22 1.75 9.63C763 382 763 382 764 384q.3 2.66.5 5.31c.21 2.78.45 5.44 1.03 8.17.54 2.92.53 5.62.47 8.58-.07 3.56.06 6.52 1 9.94.15 4.21-.12 7.9-1 12a78 78 0 0 0-.94 13.31c-.06 3.6-.41 4.69-2.06 7.69q-.59 3.49-1 7l3.12-1c8.7-2.13 18.31-2.3 26.51 1.55 8.97 5.47 16.99 13.82 20.17 24.02q.5 2.4.82 4.84c.35 2.4.86 4.7 1.41 7.06 1.28 6.3 1.23 12.5 1.16 18.91v3.51c-.05 9.11-.05 9.11-1.19 13.11q-.25 2.16-.44 4.31A61 61 0 0 1 811 544l-.94 4.38c-1.39 6.44-3.61 12.51-6.06 18.62l2.82-.02c26.89-.13 52.53.98 79.18 5.02l3.13.44c7.23 1.07 13.83 3 20.68 5.5l2.98 1.05A216 216 0 0 1 928 585l2.88 1.25c4.42 2.48 8.22 5.53 12.12 8.75l2.55 2.07c12.31 10.43 18.99 24.27 20.83 40.18-1.29 12.89-7.15 28.59-17.15 37.29A168 168 0 0 1 943 679l-5.38 4c-9.23 6.69-18.44 11.72-29.3 15.25q-4.45 1.46-8.89 3c-6.14 1.89-11.56 3-18 3.1l-2.16.04-6.96.09-2.42.02q-6.34.06-12.67.09-6.52.04-13.03.17-5.04.07-10.08.08-2.4.01-4.8.07c-12.44.27-12.44.27-17.06-2.65-5.58-5.45-8.81-11.78-9.44-19.61a31.2 31.2 0 0 1 7.57-18.25c12.34-10.99 29.01-10.79 44.53-11.19 13.83-.4 28.28-1.62 41.04-7.31 2.05-.9 2.05-.9 5.55-1.9 2.5-1 2.5-1 3.81-3.06L906 639l1-1c.24-4.26.41-7.41-2-11-7.91-5.43-16.71-7.35-26-9l-5.31-1.19c-3.98-.8-7.73-.95-11.78-.78C860 616 860 616 857 615a81 81 0 0 0-4.68-.13l-2.88-.01-3.09.01-3.19-.01-6.67.01-10.22-.01-6.48.01-3.1-.01-2.88.01h-2.53c-2.23.13-4.13.56-6.28 1.13q-3.16.06-6.31 0c-4.69-.04-9.06.2-13.69 1l-4.38.5-2.29.26q-2.32.24-4.66.38c-8.32.61-12.85 3.9-18.67 9.86q-4.44 3.58-9 7l1.72 1.03c7.86 4.94 14.36 10.44 16.9 19.67.65 3.95.6 7.47-.62 11.3-2.19 2.81-2.19 2.81-5 5l-2.56 2.19c-13.52 7.13-34.04 4.89-48.28 1.04q-3.11-1.02-6.16-2.23l-3-1 2.05 1.62c5.82 5.12 8.87 9.14 10.7 16.63l.51 2.04c.95 4.56.33 7.41-1.26 11.71q-13.79.1-27.56.16-6.4.01-12.8.07-6.18.05-12.36.05l-4.71.04-6.6.02-3.79.02c-3.42-.39-4.75-.99-7.18-3.36-4.48-7.24-6.37-17.86-4.52-26.18L632 673q.06-3.5 0-7a28 28 0 0 0-8.75-1.06l-2.42.02-1.83.04.5 2.19c.48 2.68.5 5.1.5 7.81l1 3a37 37 0 0 1-2 16l-.77 2.4c-2.07 6.44-2.07 6.44-3.23 7.6q-3.44.15-6.87.16l-2.18.02-7.16.02-4.96.02-10.41.02q-6.69.01-13.36.06-5.12.03-10.25.02l-4.92.03-6.89.01-3.96.01L541 704c-3.12-4.69-2.36-9.27-1.31-14.62 2.39-7.77 9.48-13.08 15.31-18.38-4.21.7-8 2.04-12 3.5-10.26 3.52-20.05 3.67-30.81 3.25l-2.39-.08c-7.37-.39-14.56-2.12-19.8-7.67a31 31 0 0 1-2-16c1.37-2.87 1.37-2.87 3-5l2-3h2l.68-1.77c1.7-2.87 3.68-4.14 6.44-5.98l2.76-1.86L507 635l-1.72-1.1c-13.09-8.52-13.09-8.52-15.28-12.9l-2.25-1.33c-7.72-4.69-13.62-12.35-18.75-19.67l-2.48-3.4-2.71-3.72-1.3-1.78A73 73 0 0 1 456 580l-1.54-2.55c-2.03-3.41-3.58-6.98-5.19-10.61q-1.2-2.67-2.45-5.31A40 40 0 0 1 443 548l-.96-2.79a56 56 0 0 1-2.1-9.83c-.85-6.04-.85-6.04-1.44-8.34-3.99-16.16-1.95-38.45 6-53.23A96 96 0 0 1 447 470l1.73-2.94c2.66-3.58 5.34-5.55 9.08-7.87l1.79-1.2c7.42-4.71 15.83-4.5 24.4-3.99 3.75 1 3.75 1 6 2l-.94-5.44-.52-3.06C488 445 488 445 487 444q-.01-3 .06-5.99C487 436 487 436 486 433q-.4-4.37-.62-8.75l-.16-2.38c-.27-4.79.03-9.11.78-13.87q.06-3.06 0-6.12c-.08-3.82.13-7.16 1-10.88l.46-2.11.48-2.08c2.84-12.74 2.84-12.74 3.44-18.31.68-3.82 1.94-6.97 3.44-10.54a197 197 0 0 0 3.87-10.84l.65-1.94q1.5-4.55 2.66-9.18c3.36-9.8 8.39-18.92 13.08-28.12 4.96-9.75 9.65-19.41 12.92-29.88l.79-2.13c2.42-7.02 2.52-13.49 2.21-20.87l-2.07-.67c-3.76-1.71-6.67-4.05-9.87-6.64l-1.8-1.44L512 242l-1.71-1.39C497.66 230.2 493.88 215.67 492 200c-.47-6.1-.41-12.21-.39-18.33l-.01-5.29q-.02-7.1 0-14.19l-.01-14.92.02-25.02q.02-14.43-.01-28.88V68.49l-.01-14.83q-.01-6.96.02-13.91l-.01-5.1q-.01-3.48.02-6.97v-3.93c.48-4.73 1.39-9.69 4.8-13.22Q498.67 8.73 501 7l1.5-2.12C507.66-1.58 515.54-.3 523 0" fill="#161917"/><path d="m797 568 1 3 2.03-.02q9.65-.1 19.31-.14 4.96-.01 9.92-.07c39.52-.38 89.15 2.18 119.16 31.6 5.12 5.35 8.82 10.75 11.58 17.63l1.1 2.67c3.26 12.07 2.01 26.48-4.1 37.33-13.52 22.37-38.53 33.7-63 40-14.83 3.52-29.31 4.67-44.53 4.58q-4.99-.01-9.98.05h-6.45l-2.96.04c-7.4-.1-13.18-2.04-18.67-7.15-4.85-5.48-5.89-10.64-5.71-17.74.78-7.16 4.56-11.77 10.01-16.24a40.4 40.4 0 0 1 21.93-6.75c52.48-1.53 52.48-1.53 69.36-14.79 2.84-4.26 2.75-8.01 2-13-5.09-7.63-16.37-11.08-25-13-16.11-3.03-31.94-4.23-48.31-4.25l-2.61-.01c-14.95-.01-29.75.82-44.63 2.19l-4.47.41-2.12.2c-5.63.5-11.21.63-16.86.46l2.15-2.1c2.98-2.97 5.7-6.12 8.41-9.34l1.42-1.66a74 74 0 0 0 6.23-8.31L785 591h2l.39-1.78c1.16-4.2 3.62-7.94 5.73-11.73 1.72-3.15 3.12-5.99 3.88-9.49" fill="#151816"/><path d="M523 0v2l2.69.77c7.74 2.87 13.69 9.2 18.74 15.57C546 20 546 20 548 21c2.39 1.2 3.47 2.54 5.12 4.62 4.09 4.85 8.87 8.54 13.88 12.38 5.53 4.36 5.53 4.36 7.56 7.12C576 47 576 47 578.44 48.44c2.93 1.79 4.49 3.85 6.56 6.56 3.03 1.52 6.19 1.21 9.52 1.26l2.35.04q10.75.19 21.51.25 7.23.05 14.44.18 6.99.15 13.98.16l5.31.09c13.85.34 13.85.34 18.93-2.95A59 59 0 0 0 677 47c1.58-1.46 1.58-1.46 3.04-2.6 4.71-3.69 9.14-7.44 13.3-11.74 2.35-2.35 4.86-4.49 7.37-6.65q3.33-2.93 6.57-5.97A314 314 0 0 1 726 4l3.06-2.56c4.95-2.42 9.76-2.28 15.05-.89C750.37 3.18 755.29 8.43 759 14a52 52 0 0 1 2.25 15.93v2.29q.01 3.77-.01 7.53l.01 5.43-.01 14.69-.01 15.38-.02 25.8q-.03 14.92-.02 29.85l-.02 28.73v12.22l-.02 14.38v5.28l-.02 7.2.01 2.12c-.02 3.01-.18 5.29-1.14 8.17l-.31 2.62c-2.07 10.14-7.84 20.66-16.03 27a29 29 0 0 0-4.35 4.63c-2.29 2.73-3.26 3.26-6.31 4.75a224 224 0 0 0-5.69 4l-2.95 2.12C722 256 722 256 721 258c-.64 9.93 1.77 19.03 6 28l2 4.56c1.56 3.54 3.26 6.99 5 10.44 4.99 9.88 9.93 19.7 14 30l1.44 3.25c1.79 4.16 3.17 8.44 4.56 12.75l1.56 4.75.75 2.26a70 70 0 0 0 1.81 4.61c1.14 3.08 1.42 6.14 1.88 9.38l1 2.38c1.22 3.21 1.47 6.22 1.75 9.63C763 382 763 382 764 384q.3 2.66.5 5.31c.21 2.78.45 5.44 1.03 8.17.54 2.92.53 5.62.47 8.58-.07 3.56.06 6.52 1 9.94.15 4.21-.12 7.9-1 12a78 78 0 0 0-.94 13.31c-.06 3.6-.41 4.69-2.06 7.69q-.59 3.49-1 7l3.12-1c8.7-2.13 18.31-2.3 26.51 1.55 8.97 5.47 16.99 13.82 20.17 24.02q.5 2.4.82 4.84c.35 2.4.86 4.7 1.41 7.06 1.28 6.3 1.23 12.5 1.16 18.91v3.51c-.05 9.11-.05 9.11-1.19 13.11q-.25 2.16-.44 4.31A61 61 0 0 1 811 544l-.94 4.38c-1.39 6.44-3.61 12.51-6.06 18.62l2.82-.02c26.89-.13 52.53.98 79.18 5.02l3.13.44c7.23 1.07 13.83 3 20.68 5.5l2.98 1.05A216 216 0 0 1 928 585l2.88 1.25c4.42 2.48 8.22 5.53 12.12 8.75l2.55 2.07c12.31 10.43 18.99 24.27 20.83 40.18-1.29 12.89-7.15 28.59-17.15 37.29A168 168 0 0 1 943 679l-5.38 4c-9.23 6.69-18.44 11.72-29.3 15.25q-4.45 1.46-8.89 3c-6.72 2.07-12.42 3.03-19.43 2.87l-2.35-.02-5.65-.1v-1l2.07-.35c26.05-4.46 52.17-10.97 71.93-29.65l1.98-1.85c11-11.39 13.6-24.68 13.36-39.85-.27-6.55-2.01-11.68-5.34-17.3l-1.42-2.47c-13.12-21.12-38.48-28.7-61.28-34.46-24.09-5.3-49.1-6.13-73.68-6.63l-6.02-.13L799 570c.77-4.19 2.09-7.7 3.75-11.62 9.04-23.17 13.84-55.77 4.19-79.5-3.83-8.5-9.17-14.99-17.69-19-10.7-3.83-20.62-1.99-31.25 1.12l2.25-17.97.39-3.18q.43-3.35.94-6.69c3.54-28.79-1.75-56.86-10.58-84.16l-.77-2.41a240 240 0 0 0-17.31-40.21C713.64 270.71 713.64 270.71 718 256c2.83-3.57 6.14-5.65 10-8q2.44-1.84 4.81-3.75l2.08-1.61L737 241l2.48-1.88c10.75-9.04 16.79-22.86 18.07-36.72.28-4.82.24-9.64.19-14.47l.03-5.49q.02-7.37-.03-14.73-.02-7.75-.01-15.49 0-12.99-.06-25.98-.06-14.98-.03-29.98.01-14.48-.03-28.95V55.03q0-7.22-.05-14.44V35.3c.05-19.2.05-19.2-5.97-25.86-4.75-4.29-9.17-5.9-15.56-5.68-11.64 1.37-21.12 13.06-29.14 20.7a368 368 0 0 1-12.07 10.96q-3.44 3.01-6.82 6.08-6.44 5.82-13 11.5l-2.49 3.05c-6.08 5.15-15.14 3.94-22.67 3.96l-5.4.06q-5.64.05-11.29.04-7.19.01-14.37.19a591 591 0 0 1-11.14.07q-2.64.02-5.29.08c-8.58.21-15.37.18-22.08-5.66A137 137 0 0 1 573 47a123 123 0 0 0-4.19-3.69q-4.45-3.86-8.81-7.81a666 666 0 0 0-8.88-7.88q-4.31-3.76-8.5-7.67C524.74 3.37 524.74 3.37 512.79 3.62c-5.28.72-8.89 3.21-12.36 7.17-3.91 5.24-4.58 9.27-4.58 15.6l-.02 2.3-.02 7.65-.03 5.48-.05 18.04-.02 6.21-.05 25.88a11427 11427 0 0 1-.11 37.03q-.06 13.02-.06 26.06 0 7.77-.05 15.54-.05 7.34-.02 14.66l-.03 5.35c-.16 17.48 3.13 33.6 15.49 46.79 6 5.76 12.83 10.57 19.57 15.43A25 25 0 0 1 534 256c1.44 11.1-.67 19.95-5.12 30.01q-1.28 2.92-2.49 5.88a189 189 0 0 1-8.94 18.68c-13.62 24.9-21.22 51.7-26.45 79.43l-.55 2.89c-.89 6.16-.74 12.4-.76 18.61l-.01 2.25c-.04 15.66 1.76 30.81 4.32 46.25-6.47-.89-6.47-.89-9.53-1.54-9.38-1.76-17.52-1.04-25.85 3.72-9.92 6.89-14.23 17.16-16.43 28.76-3.48 20.86-.85 42.1 5.81 62.06l.64 1.91c7.54 22.23 19.97 41.33 36.36 58.09l1.89 2.01c7.12 7.41 15.25 13.3 24.06 18.54L513 635v2l-1.94.66c-7.86 2.88-14.35 6.5-18.06 14.34-1.67 5.59-2.19 11.67.5 16.94 6.54 5.4 13.64 5.52 21.75 5.37l3.1-.03c15.53-.29 29.02-3.97 42.76-11.36C563 662 563 662 565 662v8l-1.98.92c-7.86 3.77-13.85 7.32-18.05 15.26-1.96 5.71-1.88 11.82-1.97 17.82h-2c-3.12-4.69-2.36-9.27-1.31-14.62 2.39-7.77 9.48-13.08 15.31-18.38-4.21.7-8 2.04-12 3.5-10.26 3.52-20.05 3.67-30.81 3.25l-2.39-.08c-7.37-.39-14.56-2.12-19.8-7.67a31 31 0 0 1-2-16c1.37-2.87 1.37-2.87 3-5l2-3h2l.68-1.77c1.7-2.87 3.68-4.14 6.44-5.98l2.76-1.86L507 635l-1.72-1.1c-13.09-8.52-13.09-8.52-15.28-12.9l-2.25-1.33c-7.72-4.69-13.62-12.35-18.75-19.67l-2.48-3.4-2.71-3.72-1.3-1.78A73 73 0 0 1 456 580l-1.54-2.55c-2.03-3.41-3.58-6.98-5.19-10.61q-1.2-2.67-2.45-5.31A40 40 0 0 1 443 548l-.96-2.79a56 56 0 0 1-2.1-9.83c-.85-6.04-.85-6.04-1.44-8.34-3.99-16.16-1.95-38.45 6-53.23A96 96 0 0 1 447 470l1.73-2.94c2.66-3.58 5.34-5.55 9.08-7.87l1.79-1.2c7.42-4.71 15.83-4.5 24.4-3.99 3.75 1 3.75 1 6 2l-.94-5.44-.52-3.06C488 445 488 445 487 444q-.01-3 .06-5.99C487 436 487 436 486 433q-.4-4.37-.62-8.75l-.16-2.38c-.27-4.79.03-9.11.78-13.87q.06-3.06 0-6.12c-.08-3.82.13-7.16 1-10.88l.46-2.11.48-2.08c2.84-12.74 2.84-12.74 3.44-18.31.68-3.82 1.94-6.97 3.44-10.54a197 197 0 0 0 3.87-10.84l.65-1.94q1.5-4.55 2.66-9.18c3.36-9.8 8.39-18.92 13.08-28.12 4.96-9.75 9.65-19.41 12.92-29.88l.79-2.13c2.42-7.02 2.52-13.49 2.21-20.87l-2.07-.67c-3.76-1.71-6.67-4.05-9.87-6.64l-1.8-1.44L512 242l-1.71-1.39C497.66 230.2 493.88 215.67 492 200c-.47-6.1-.41-12.21-.39-18.33l-.01-5.29q-.02-7.1 0-14.19l-.01-14.92.02-25.02q.02-14.43-.01-28.88V68.49l-.01-14.83q-.01-6.96.02-13.91l-.01-5.1q-.01-3.48.02-6.97v-3.93c.48-4.73 1.39-9.69 4.8-13.22Q498.67 8.73 501 7l1.5-2.12C507.66-1.58 515.54-.3 523 0" fill="#E4E6E5"/><path d="M673 495h1c1.03 6.5-2.42 10.91-6 16-2.19 2.81-4.38 5.58-7 8h-2l-.71 1.78c-1.6 2.76-3.35 3.98-5.98 5.78l-2.51 1.76A69 69 0 0 1 640 533l.09 1.88c.89 19.36 1.05 38.72 1.09 58.1l.03 5.98c.1 20.88-.65 41.43-4.21 62.04h-22l-1.44-11.06-.41-3.09c-1.98-15.56-2.35-31-2.34-46.66v-3.06c0-21.41.93-42.76 2.19-64.13l-2.47-1.21-6.48-3.2C593.8 523.24 585.29 514.3 580 504c-.7-2.77-.9-5.13-1-8q1.76 1.42 3.5 2.88l1.97 1.61L586 502v2l1.82.84c2.18 1.16 2.18 1.16 5.06 3.78 3.44 3.04 7.21 5.36 11.18 7.63l1.79 1.03c9.75 5.48 20.48 6.37 31.35 4.03 13.53-4.64 25.58-13.86 34.56-24.88z" fill="#000"/><path d="M686.38 138.5A34 34 0 0 1 698 152c.83 8.9 1.12 16.46-4.28 24.01-4.86 5.63-9.54 8.48-17.06 9.4-7.13.19-12.12-.12-17.82-4.63-5.85-5.65-8.86-11.44-9.16-19.66.23-7.98 2.84-13.54 8.32-19.35 7.95-7.01 19.04-8.41 28.38-3.27" fill="#151713"/><path d="M576.44 136.5c4.32 2.57 6.93 6.3 9.56 10.5l1.88 2.88c2.37 6.59 1.69 13.46-.78 19.95-3.24 6.41-7.92 10.98-14.64 13.55-6.73 1.71-13.44 1.61-19.54-1.91-5.28-4.04-9.94-9.04-11.92-15.47-.84-7.94-.54-15.44 4.48-21.9 8.14-8.8 19.38-12.58 30.96-7.6" fill="#141614"/><path d="m589 139 3.31 2.12c5.51 5.9 9.79 12.79 10.69 20.88l.27 2.32a35.2 35.2 0 0 1-7.32 23.37c-4.44 4.67-8.95 7.98-14.95 10.31l-2.81 1.25c-9.09 2.14-18.58 1.18-26.6-3.73-7.24-5.3-13.92-12.43-15.59-21.52-1.03-11.53-.63-20.26 7.05-29.46 12.77-13.65 30.24-15.66 45.95-5.54m-43.52 5.1c-5.02 6.46-5.4 13.96-4.48 21.9 1.83 7.08 7.22 11.85 13 16 6 2.92 12.37 3.16 18.73 1.12 7.34-3.37 12.23-7.83 15.15-15.43 2.08-7.49 2.13-13.39-1.38-20.44-3.53-5.92-7.91-10.05-14.5-12.25-11.34-.95-18.72.67-26.52 9.1" fill="#ECC64F"/><path d="M694.28 136.54c9.13 4.92 14.93 11.36 18.4 21.42 1.67 10.46.64 19.66-5.3 28.45-5.54 6.93-13.55 12-22.38 13.59-10.66.89-19-.38-27.3-7.37A140 140 0 0 1 654 189l-1.5-1.5c-5.66-6.18-7.07-13.3-7-21.37l.02-2.4c.27-8.84 3.24-14.54 9.17-21.04 11.23-10.55 25.73-12.73 39.6-6.15M655 144.88c-4.5 5.68-5.47 11.46-5.32 18.57.9 7.09 4.65 13.2 9.86 17.97 6.21 4.74 12.94 4.5 20.46 3.58 6.74-1.66 11.23-5.22 15-11 4.18-7.02 3.94-14.12 3-22-2.9-7.95-9.69-12.34-17-16-10.6-1.17-18.6 1.04-26 8.88" fill="#EDC853"/><path d="M739 474h1a244 244 0 0 1-16 96l-1.5 4.04q-2.96 7.95-6 15.89C706.95 615 700.52 639.35 697 666c-3.88-1.15-7.09-2.13-10-5-.84-7.87 1.78-16.41 3.69-24l.81-3.28c3.49-13.95 7.48-27.57 12.82-40.93 3.22-8.04 6.03-16.22 8.85-24.4q1.17-3.36 2.39-6.69c3.17-8.71 5.9-17.46 8.35-26.4l.7-2.52.59-2.21a97 97 0 0 1 2.26-6.33c1.6-4.2 2.6-8.41 3.51-12.8l.51-2.39q.8-3.74 1.58-7.49l1.07-5.01 1.5-7.09A1374 1374 0 0 1 739 474" fill="#000200"/><path d="M512 471c1.73 3.1 2.49 5.89 3.11 9.38l.59 3.2.61 3.42a425 425 0 0 0 7.69 34l.58 2.11c6.08 21.99 13.7 43.66 21.97 64.91C566.67 639.8 566.67 639.8 565 661c-2.75 2.44-2.75 2.44-6 4-2.2-.4-2.2-.4-4-1l-.3-3.38c-.93-9.82-2.55-19.1-5.16-28.62q-.84-3.12-1.58-6.27l-.52-2.15-1.41-5.86A118 118 0 0 0 542 606a2009 2009 0 0 1-11.11-30.11 258 258 0 0 0-4.88-12.64c-2.6-6.45-4.32-13.14-6.01-19.87l-.52-2.09A252 252 0 0 1 512 471" fill="#000100"/><path d="M523 0v2l2.69.77c7.74 2.87 13.69 9.2 18.74 15.57C546 20 546 20 548 21c2.39 1.2 3.47 2.54 5.12 4.62 4.09 4.85 8.87 8.54 13.88 12.38 5.53 4.36 5.53 4.36 7.56 7.12C576 47 576 47 578.44 48.44c2.93 1.79 4.49 3.85 6.56 6.56 3.03 1.52 6.19 1.21 9.52 1.26l2.35.04q10.75.19 21.51.25 7.23.05 14.44.18 6.99.15 13.98.16l5.31.09c13.85.34 13.85.34 18.93-2.95A59 59 0 0 0 677 47c1.58-1.46 1.58-1.46 3.04-2.6 4.71-3.69 9.14-7.44 13.3-11.74 2.35-2.35 4.86-4.49 7.37-6.65q3.33-2.93 6.57-5.97A314 314 0 0 1 726 4l3.06-2.56c4.95-2.42 9.76-2.28 15.05-.89C750.37 3.18 755.29 8.43 759 14a52 52 0 0 1 2.25 15.93v2.29q.01 3.77-.01 7.53l.01 5.43-.01 14.69-.01 15.38-.02 25.8q-.03 14.92-.02 29.85l-.02 28.73v12.22l-.02 14.38v5.28l-.02 7.2.01 2.12c-.02 3.01-.18 5.29-1.14 8.17l-1 4c-2.4-3.71-2.26-7.33-2.21-11.6v-2.33l.05-7.73.02-5.54.05-11.95q.06-9.45.07-18.9.08-26.87.21-53.74.08-14.84.11-29.68.02-9.39.08-18.77.03-5.85.04-11.71l.03-5.41c.19-19.51.19-19.51-5.86-26.2-4.75-4.29-9.17-5.9-15.56-5.68-11.64 1.37-21.12 13.06-29.14 20.7a368 368 0 0 1-12.07 10.96q-3.44 3.01-6.82 6.08-6.44 5.82-13 11.5l-2.49 3.05c-6.08 5.15-15.14 3.94-22.67 3.96l-5.4.06q-5.64.05-11.29.04-7.19.01-14.37.19a591 591 0 0 1-11.14.07q-2.64.02-5.29.08c-8.58.21-15.37.18-22.08-5.66A137 137 0 0 1 573 47a123 123 0 0 0-4.19-3.69q-4.45-3.86-8.81-7.81a666 666 0 0 0-8.88-7.88q-4.31-3.76-8.5-7.67C524.74 3.37 524.74 3.37 512.79 3.62c-5.28.72-8.89 3.21-12.36 7.17-3.94 5.29-4.58 9.36-4.59 15.75l-.01 2.34-.04 7.81q0 2.8-.03 5.59l-.06 15.19-.08 15.87-.14 30.05-.16 34.22L495 208h-2a114 114 0 0 1-1.14-15.74l-.01-2.23-.01-7.33-.02-5.29-.02-14.3-.01-8.95-.03-28.01q0-16.15-.05-32.3-.03-12.5-.03-25l-.03-14.91q-.02-7.01-.01-14.03l-.01-5.14v-11c.47-4.74 1.37-9.7 4.79-13.23Q498.67 8.72 501 7l1.5-2.12C507.66-1.58 515.54-.3 523 0" fill="#E7EAE8"/><path d="m835.31 610.69 2.48-.01c22.26-.05 52.42.37 70.21 15.32 2.11 3.18 2.32 4.2 2.37 7.88l.1 2.55c-.64 3.5-1.98 5.04-4.47 7.57-17.22 11.33-38.85 12.7-58.87 13.29-12.3.36-25.29.76-34.52 10.12-4.98 5.6-6.08 10.5-5.93 17.8.62 5.49 2.78 9.29 6.7 13.1A71 71 0 0 0 822 703v1c-3.8.63-5.85.77-9.1-1.4-5.93-5.45-9.44-11.85-10.09-19.95a31.2 31.2 0 0 1 7.57-18.25c12.33-10.98 29.01-10.8 44.53-11.2 13.83-.38 28.28-1.61 41.03-7.3 2.06-.9 2.06-.9 5.56-1.9 2.5-1 2.5-1 3.81-3.06l.7-1.94 1-1c.23-4.25.4-7.41-2-11-7.92-5.42-16.73-7.35-26-9l-5.32-1.2c-3.98-.8-7.73-.94-11.78-.77-1.9-.03-1.9-.03-4.9-1.03a81 81 0 0 0-4.7-.13l-2.87-.01h-12.96q-5.1.02-10.2 0H813.8l-2.53.02c-2.23.12-4.13.56-6.28 1.12q-3.15.07-6.3 0c-4.7-.03-9.07.2-13.7 1l-4.38.5-2.29.26q-2.32.24-4.66.39c-8.32.6-12.85 3.89-18.67 9.85-2.95 2.4-5.97 4.7-9 7l1.72 1.03c7.86 4.94 14.35 10.45 16.9 19.67.65 3.95.6 7.48-.62 11.3-2.19 2.8-2.19 2.8-5 5l-2.57 2.19c-13.5 7.13-34.03 4.89-48.27 1.05q-3.11-1.04-6.16-2.24l-3-1 2.04 1.63c5.83 5.1 8.87 9.13 10.71 16.62l.51 2.04c.93 4.49.53 7.52-1.26 11.7h-3l.17-2.95c.28-8.13.27-14.54-5.17-21.04-4.7-5.03-9.74-8.2-16-11v-8l1.95 1.14c14.78 8.37 28.25 12.23 45.17 12.1.57.02.57.02 3.42.04A61 61 0 0 0 758 671c2.64-5.3 2.8-11.22 2-17-3.5-9.11-11.5-14.12-20-18l2-1.6q5.57-4.46 11.12-8.96l2.17-1.75 2.1-1.7 1.88-1.52c1.73-1.47 1.73-1.47 3.13-3.1 6.54-5.65 22.24-4.3 30.85-5l2.45-.2a509 509 0 0 1 39.61-1.48" fill="#E3E5E5"/><path d="m797 568 1 3h50v1h-38l-1 4a228 228 0 0 1-4.71 9.72A156 156 0 0 1 788 611l4 2c-9.04 1.27-17.84 2.35-27 2l2.15-2.1c2.98-2.97 5.7-6.12 8.41-9.34l1.42-1.66a74 74 0 0 0 6.23-8.31L785 591h2l.39-1.78c1.16-4.2 3.62-7.94 5.73-11.73 1.72-3.15 3.12-5.99 3.88-9.49" fill="#010101"/><path d="m862.34 568.7 3.92.54 2.05.29 6.07.83a1476 1476 0 0 1 14.86 2.09c7.19 1.06 13.76 3 20.58 5.49l2.98 1.05a216 216 0 0 1 15.2 6q1.42.64 2.88 1.26c4.42 2.48 8.22 5.53 12.12 8.75l2.56 2.07c12.3 10.43 18.98 24.27 20.82 40.18-1.3 12.89-7.15 28.59-17.15 37.3-2.04 1.55-4.12 3-6.23 4.45l-5.37 4c-9.24 6.69-18.44 11.73-29.3 15.25-2.98.96-5.93 1.99-8.9 3-6.72 2.07-12.42 3.04-19.43 2.88l-2.34-.03q-2.84-.03-5.66-.1v-1l2.07-.34c26.05-4.47 52.18-10.98 71.93-29.66l1.98-1.85c11-11.4 13.6-24.68 13.37-39.85-.28-6.54-2.01-11.67-5.35-17.3l-1.42-2.47c-13.12-21.12-38.48-28.7-61.27-34.46a167 167 0 0 0-17.94-2.81l-3.58-.38q-3.56-.37-7.13-.7l-3.3-.33q-1.47-.16-2.98-.28C856 572 856 572 854 569c2.94-1.46 5.1-.73 8.34-.3" fill="#DBDCDD"/><path d="M734.88-.43c7.37-.01 12.07 1.66 17.55 6.64 7.04 7.32 8.9 13.69 8.81 23.72l.01 2.29v12.96l-.02 14.69v15.38q0 12.9-.03 25.8l-.02 29.86v28.72l-.02 12.22v14.38l-.02 5.29v9.32c-.02 3-.18 5.28-1.14 8.16a195 195 0 0 0-1 4c-2.4-3.71-2.27-7.32-2.22-11.6l.01-2.32q0-3.87.04-7.74l.02-5.54.06-11.95.07-18.9q.07-26.86.21-53.74a9777 9777 0 0 0 .1-29.68q.03-9.38.1-18.77l.02-11.7.04-5.41c.2-19.51.2-19.51-5.86-26.21-4.64-4.18-9.3-5.62-15.4-6.06l-2.96-.23L731 3c2-3 2-3 3.88-3.43" fill="#F1F3F2"/><path d="m521 0 1 3-2.34.04C512.58 3.37 507.35 4.15 502 9c-4.91 5.6-6.15 10.26-6.16 17.54l-.01 2.34-.04 7.81q0 2.8-.03 5.59l-.06 15.19-.08 15.87-.14 30.05-.16 34.22L495 208h-2a114 114 0 0 1-1.14-15.74l-.01-2.23-.01-7.33-.02-5.29-.02-14.3-.01-8.95-.03-28.01q0-16.15-.05-32.3-.03-12.5-.03-25l-.03-14.91q-.02-7.01-.01-14.03l-.01-5.14v-11c.47-4.74 1.37-9.7 4.79-13.23Q498.67 8.72 501 7l1.5-2.12C507.28-1.1 514.06-.33 521 0" fill="#EDF0EE"/><path d="M632.4 184.91A31 31 0 0 1 637 188c.33 4.14.43 6.34-1.87 9.87C633 200 633 200 631 201l-2 7c-2 2-2 2-4.94 2.31-3.06-.31-3.06-.31-4.93-1.44-1.6-2.65-1.33-4.84-1.13-7.87l-1.75-.69c-2.93-1.71-4.45-3.44-6.25-6.31-.18-3.67.96-4.94 3.25-7.81 5.18-3.96 13.29-3.5 19.15-1.28" fill="#636663"/><path d="m589 139 1.9 1.23c4.09 3.04 6.85 7.26 9.1 11.77v2h-4l-.81-3.31c-1.07-3.31-1.54-4.64-4.19-6.69l-2 1c-.62 2.56-.62 2.56-1 5h2l1 27-3 1v-4h-2v2h-2v2l-3-1 1.81-1.94c4.15-5.81 5.91-12.3 5.67-19.44-1.21-6.63-4.73-12.73-10.17-16.74-6.61-3.75-14.32-4.16-21.7-2.27-6.32 2.82-10.88 8.08-14.05 14.14-1.27 7.35-1.82 14.78 2.02 21.43 2.68 3.44 5.98 6.15 9.42 8.82l-4 1v-2l-4-1v-3h-2v-2l-1.88-.44C540 173 540 173 538 172v5c-3.67-5.5-2.72-13.55-2-20 2.28-8.56 8.84-15.71 16.22-20.41 12.33-6.4 25.34-5.01 36.78 2.41" fill="#DEC26A"/><path d="M488 409h1l.08 3.54c.49 15.98 2.63 31.65 4.92 47.46-6.47-.89-6.47-.89-9.53-1.54-9.38-1.76-17.52-1.04-25.85 3.72-9.61 6.68-13.94 16.4-16.03 27.66q-.86 5.07-1.59 10.16h-1c-.49-9.23-.04-16.62 4-25l1.25-2.66c4.5-8.49 11.92-13.73 20.75-17.34 7.5-1.96 16.86-2.17 24 1l-.94-5.44-.52-3.06C488 445 488 445 487 444q-.01-3 .06-5.99C487 436 487 436 486 433a86 86 0 0 1-.32-4.23l-.12-2.43-.12-2.53-.13-2.56L485 415h2z" fill="#DEE0E1"/><path d="M963 630h2c3.51 10.96-1.96 22.67-6.66 32.5-3.9 7.28-8.61 11.85-15.34 16.5l-5.38 4c-9.23 6.69-18.44 11.72-29.3 15.25q-4.45 1.46-8.89 3c-6.72 2.07-12.42 3.03-19.43 2.87l-2.35-.02-5.65-.1v-1l2.07-.35c26.05-4.46 52.17-10.97 71.93-29.65l1.98-1.85c8.83-9.14 13.93-22.05 14.64-34.59l.23-3.74z" fill="#E6E9E7"/><path d="M616 662h20l-.11 5.81-.08 7.63-.07 3.82c-.08 9.4.91 16.85 6.26 24.74-3.02-.91-4.65-1.53-6.55-4.11-3.82-8.39-6-17.8-3.45-26.89q.06-3.5 0-7a28 28 0 0 0-8.75-1.06l-2.42.02-1.83.04.5 2.19c.48 2.68.5 5.1.5 7.81l1 3a37 37 0 0 1-2 16l-.8 2.43q-1.09 3.3-2.2 6.57l-5 1 1.08-2.31c3.87-8.95 4.55-16.24 4.23-26l-.07-4.02q-.08-4.84-.24-9.67" fill="#EAEDEB"/><path d="M694.28 136.54c8.76 4.72 13.6 10.23 17.72 19.46v4h-2v-4h-2v-4h-2v-4h-2l-1-4h-3v-2h-2v-2l-8-2v-2l-3 2q-3-.46-6-1c-8.49-.78-14.93 0-22 5-4.58 4-6.97 7.94-8 14a59 59 0 0 0 1 16h-2v-4h-2c.96 9.4.96 9.4 2 14h2l-1 4-1.94-3.81-1.09-2.14c-3.54-7.43-3.25-18.26-1.14-26.17 4.58-9.82 12.34-15.81 22.17-19.88 8.62-2.87 17.26-1.27 25.28 2.54" fill="#C6B37B"/><path d="M835 610.81h2.62c9.17 0 18.26.07 27.38 1.2v1c-14.79 1.91-29.38 2.16-44.26 2l-2.26-.02-6.15-.07c-2.72.06-4.75.33-7.33 1.08q-3.16.06-6.31 0c-4.69-.04-9.06.2-13.69 1-5.6.91-9.63 1.34-15-1v-1a492 492 0 0 1 65-4.19" fill="#CDCFD0"/><path d="M756 209h2c1.56 5.08.54 8.01-1.7 12.57L755 224l-1.36 2.59c-2.76 4.94-5.5 8.57-9.98 12.03a29 29 0 0 0-4.35 4.63c-2.29 2.73-3.26 3.26-6.31 4.75a224 224 0 0 0-5.69 4l-2.95 2.12C722 256 722 256 721 258c-.5 5.53.16 10.61 1.56 15.96.44 2.04.44 2.04.44 6.04h-2c-3.26-7.74-4.74-15.67-3-24 2.78-3.61 6.14-5.65 10-8q2.44-1.84 4.81-3.75l2.08-1.61L737 241l2.48-1.88c9.76-8.22 13.5-18.17 16.52-30.12" fill="#E3E6E3"/><path d="m766.26 615.7 2.43.12c.4 0 .4 0 2.45.08l1.86.1v3l-3.3-.18c-3.7.18-3.7.18-5.45 1.62L763 622l-3 1a222 222 0 0 0-3.4 3.46c-3.27 3.15-6.98 5.8-10.6 8.54l1.72 1.03c8.26 5.19 14.1 10.55 16.87 20.09.41 1.88.41 1.88.41 3.88h-2l-1 3-.26-1.68c-1.7-9.28-5.95-15.94-13.74-21.32a107 107 0 0 0-8-4l2-1.6q5.57-4.46 11.12-8.96l2.17-1.75 3.98-3.22c1.73-1.47 1.73-1.47 3.31-3.14C764 616 764 616 766.26 615.7" fill="#E6E8E7"/><path d="M758 361c2.01 3.02 2.43 4.51 3 8l.5 2.88q.55 3.42 1 6.87c.5 3.25.5 3.25 1.5 5.25q.3 2.66.5 5.31c.21 2.78.45 5.44 1.03 8.17.54 2.92.53 5.62.47 8.58-.07 3.56.06 6.52 1 9.94.15 4.19-.04 7.93-1 12l-.44 2.69C765 433 765 433 763 435l-.03-3.11c-.2-19.16-.7-37.68-4.52-56.52-1.89-10.04-1.89-10.04-.45-14.37" fill="#EEF0EE"/><path d="M495 207c2.07 3.11 2.78 5.48 3.75 9.06 5.24 17.29 17.6 26.58 31.7 36.75A25 25 0 0 1 534 256c.2 2.67.28 5.21.25 7.88l.02 2.18c-.01 3.79-.15 6.72-2.27 9.94-1.1-7.02-1.1-13.91-1-21l-2.07-.67c-3.76-1.71-6.67-4.05-9.87-6.64l-1.8-1.44L512 242l-1.71-1.39c-9.7-8-14.85-18.36-16.24-30.75L494 208z" fill="#E2E3E4"/><path d="m804 558 3 1-3 8 2.87-.03a1930 1930 0 0 1 15.4-.12c10.77-.12 21.07.56 31.73 2.15l7 1v1c-13.9.07-27.79-.15-41.69-.5l-5.95-.14L799 570c.76-4.28 1.82-8.82 5-12" fill="#F0F2F3"/><path d="M490 658h1l.26 2.05c1.15 7.3 1.15 7.3 3.99 10.45 6.63 3.61 12.48 3.82 19.87 3.75l3.12-.02c9.78-.13 18.7-1.09 27.82-4.74 2.31-.58 3.7-.23 5.94.51-5.96 5.96-18.35 7.67-26.4 8.01q-6.71-.01-13.41-.26l-2.39-.08c-7.36-.39-14.57-2.12-19.8-7.67-1.29-4.25-.92-7.69 0-12" fill="#E1E2E1"/><path d="M712 160h1c.59 11.45-.23 19.65-7.5 28.75-6.04 6.41-14.57 10.76-23.38 11.49-8.69.2-15.97-.68-22.74-6.49L658 192h6v2h2v2h6v2h14v-2l3.19-.31c3.71-.67 5.71-1.65 8.81-3.69h2v-4h4v-2h2v-4h2v-10l2-1 2 1z" fill="#D7C06C"/><path d="M732.44 2.75 734 4l-2.87 1c-9.42 4.12-16.9 12.47-24.24 19.46a368 368 0 0 1-12.07 10.96q-3.44 3.01-6.82 6.08c-11.93 10.76-11.93 10.76-18 15.5.58-3.25 1.44-4.78 3.88-6.99l1.78-1.63 1.9-1.69 1.95-1.77q5.65-5.13 11.44-10.12 4.07-3.6 8.05-7.3 5.93-5.47 12-10.75 2.26-1.98 4.47-4.04c12.32-11.39 12.32-11.39 16.97-9.96" fill="#DCDDDE"/><path d="M812 502h3l.06 10.75.03 3.08.01 2.97.01 2.73c-.1 2.31-.48 4.25-1.11 6.47q-.25 2.16-.44 4.31A61 61 0 0 1 811 544l-.94 4.62c-.78 3.61-1.75 6.42-4.06 9.38l-3 1 .56-1.73a178 178 0 0 0 5.06-21.15l.67-3.55A187 187 0 0 0 812 502" fill="#D8DCD9"/><path d="M690 136v2l2.31-.12C695 138 695 138 698 140v2h2c.87 2.9 1.02 5.02.56 8-.74 5.67-.65 11.3-.56 17l-2 1-.01-3.18c-.17-8.62-.58-15.38-6.99-21.82a36 36 0 0 0-6-4c2.75-3 2.75-3 5-3" fill="#DEB755"/><path d="M439 490h1l.04 2.45c.29 14.48.63 28.69 3.34 42.96.51 2.97.75 5.59.62 8.59l-3-1-.4-2.92-.54-3.83-.52-3.8c-.54-3.45-.54-3.45-1.04-5.47-1.69-6.74-1.49-13.16-1.12-20.04l.13-2.93c.23-4.74.56-9.35 1.49-14.01" fill="#E9EBEA"/><path d="M600 154c2.68 2.68 2.6 4.23 3 8l.23 2.16a33.5 33.5 0 0 1-7.57 23.67A102 102 0 0 1 589 194l-3-2h2v-2h2v-2h2v-2h2v-2h2v-4h2v-6h2z" fill="#D7BE6A"/><path d="m585 162 1 2h2c-.74 6.13-3.5 10.53-7.81 14.75-6.83 4.82-12.92 6.26-21.19 5.25l-3-2h12v-2h6v-2h4l.87-1.75q1.06-2.13 2.17-4.25l1.02-2 1.04-2a29 29 0 0 0 1.9-6" fill="#2C220E"/><path d="M539 157h1l.52 2.16c2.45 9.68 5.45 15.69 13.48 21.84l-4 1v-2l-4-1v-3h-2v-2l-1.88-.44C540 173 540 173 538 172v5c-2.35-3.53-2.21-5.03-2.12-9.19l.05-3.29.07-2.52h3z" fill="#D7BD6E"/><path d="M762 397h1l.05 13.23.03 4.49.02 6.5.01 3.93c-.12 4.03-.55 7.86-1.11 11.85l-3-2c-.28-3.07-.28-3.07-.14-6.98l.06-2.11.17-4.4q.14-3.36.23-6.71c.43-11.91.43-11.91 2.68-17.8" fill="#272A27"/><path d="M488 409h1l.06 1.71c.38 10.25.84 20.34 2.54 30.48.38 2.65.47 5.14.4 7.81l-1-3c-2.06-1.19-2.06-1.19-4-2l.1-5.96C487 436 487 436 486 433a86 86 0 0 1-.32-4.23l-.12-2.43-.12-2.53-.13-2.56L485 415h2z" fill="#D9DCDB"/><path d="M805 470c6.99 6.05 8.82 18.03 10 27 .19 5.7-.35 11.34-1 17h-1l-.2-2.18c-2.34-25.16-2.34-25.16-7.8-36.82-.71-2.26-.71-2.26-1-4z" fill="#E3E6E2"/><path d="M569 134v1l-2.56.23c-9.44 1.09-14.36 3.48-20.82 10.27-3.37 5.19-4 10.48-4.62 16.5h-5c.35-9.54 5.38-16.04 12.14-22.5 6.56-5.29 12.62-6.93 20.86-5.5" fill="#ABA48E"/><path d="M657 178c2.39.58 4.67 1.22 7 2v2c14.59-.77 14.59-.77 21-3l4-1v3c-7.32 4.34-14.61 5.32-23 4a31 31 0 0 1-9-6z" fill="#2A200D"/><path d="M756 209h2c1.56 5.08.54 8.01-1.7 12.57L755 224l-1.36 2.59c-3.25 5.81-7.12 12.08-13.85 14.06L738 241l2.56-2.94 1.66-1.97q1.74-2.04 3.56-4c5.96-6.8 7.94-14.53 10.22-23.09" fill="#DEE0E0"/><path d="M713 164h1v14h-2l-.31 1.94c-.93 4.12-2.31 8.07-3.69 12.06h-4l-2 4h-2v2h-8q2.94-2.25 5.96-4.36c7.22-5.09 11.84-10.99 14.04-19.64q.72-4.98 1-10" fill="#261709"/><path d="M539 174h1l.44 3.31C541 181 541 181 542 184h2v2h2l1 3 3 1v2h2v2c8.51 3.56 16.9 3.7 26 4-5.04 3.36-10.8 2.52-16.63 1.57-9.28-2.35-15.71-8.08-21.28-15.68-1.63-2.82-2.28-4.92-1.65-8.14z" fill="#CEB96B"/><path d="M762 429h1c1.98 6.92 3.64 13.37 0 20a61 61 0 0 0-1 11l-4 1z" fill="#E5E8E5"/><path d="m650 154 .18 2.41c.84 10.53.84 10.53 1.82 15.59h-2v-4h-2c.96 9.41.96 9.41 2 14h2l-1 4-1.94-3.81-1.09-2.15c-2.26-4.74-2.19-8.9-2.22-14.04l-.06-2.48-.02-2.4-.03-2.17c.41-2.24 1.74-4.95 4.36-4.95" fill="#DBC77E"/><path d="M575 136c7.11 3.71 11.29 9.54 14 17 .43 3.41.4 6.59 0 10h-1v-9h-2l-2-8h-4v-4h-2v-2l-3.75.25c-3.36.02-4-.05-6.75-2.25l-1.5-2c3.71-1.24 5.23-1.07 9 0" fill="#38290C"/><path d="M565 662v8l-10 4-1-3-3-1v-2l5.88-3 3.3-1.69C563 662 563 662 565 662" fill="#E6E9E6"/><path d="M734.88-.43C740.78-.44 745.23.4 750 4c3.2 3.19 6.13 6.53 9 10l-2 1-1 3-1.13-3.18c-2.1-4.91-5.34-7.63-10.2-9.91a32 32 0 0 0-8.49-1.53l-2.95-.23L731 3c2-3 2-3 3.88-3.43" fill="#E1E2E1"/><path d="M820 567c11.55-.24 22.57.28 34 2l7 1v1h-19v-2h-22z" fill="#E9E9EB"/><path d="M541 154h1a27.4 27.4 0 0 1 2 12h2v6h2v2h2l1 3 3 1v2l4 1c-1.72.71-1.72.71-4 1-5.88-3.64-11.29-9.17-13-16a91 91 0 0 1 0-12" fill="#2B1E08"/><path d="M810 534h3c-.52 4.99-1.26 9.27-3 14l-.66 2.3-.72 2.45-.64 2.3c-1.23 2.46-2.46 2.98-4.98 3.95l.55-1.77a307 307 0 0 0 4.8-17.66C809 537 809 537 810 534" fill="#E3E6E4"/><path d="M566 132a923 923 0 0 1 9.58-.09q2.71 0 5.42.09l1 1q2.02.34 4.06.56l3.94.44v4h2v2h2v2h2l-1 4-2-2.19c-6-6-13.34-9.82-21.81-10.43l-2.96-.23L566 133z" fill="#271C0B"/><path d="m795 613 2 2c-19.63 4.39-19.63 4.39-27 1v-1l8-1 2.25-.29c4.96-.6 9.76-.97 14.75-.71" fill="#DDDEDD"/><path d="M489 387h1a962 962 0 0 1-2 36h-1c-2.18-28.48-2.18-28.48 2-36" fill="#EEEFF1"/><path d="M589 152h1l1 25-3 1v-4h-2v2h-2v2l-3-1 1.81-1.94c4.99-6.98 5.74-14.67 6.19-23.06" fill="#DAC272"/><path d="M839 655c2.93.27 5.87.41 8.81.56l2.39.13 5.8.31v1l-1.94.04-8.87.27-3.05.07a63 63 0 0 0-17.67 2.99c-2.59.66-4.81.74-7.47.63 5.61-5.81 14.3-7.75 22-6" fill="#DBDCDC"/><path d="M954 608h2c6.91 12.85 8.35 21.25 7 36h-1l-.04-3.52c-.23-8.7-.81-15.94-4.71-23.9A61 61 0 0 1 954 608" fill="#DDDFE0"/><path d="m704 670 3.09.84c10.68 2.78 20.89 3.9 31.91 4.16v1q-4.75.3-9.5.56l-2.69.17c-8.36.46-15.19-.08-22.81-3.73z" fill="#D9DCD9"/><path d="M853 613c19-.37 19-.37 27 2l-1 3-1.87-.44a60 60 0 0 0-15.01-1.5c-3.27-.09-6.03-1.01-9.12-2.06z" fill="#E9ECEA"/><path d="m580 178 2 2c-3 2-3 2-6 2v2h-2v2l-6.62.12-3.73.08A29 29 0 0 1 554 184v-2l2.18.48c9.25 1.71 15.79.4 23.82-4.48" fill="#DFC569"/><path d="M634 677h1l.11 2.53c.53 9.09 1.7 16.81 6.89 24.47-3.32-.94-4.71-1.55-6.62-4.5l-1.26-2.94-1.3-2.93C632 691 632 691 633 688q.33-2.84.56-5.69l.26-3.01z" fill="#D7D9DA"/><path d="M468 595c4.92 4.77 9.44 9.89 14 15l-2 3-4.81-5.19-2.71-2.92A37 37 0 0 1 467 597z" fill="#E6E9E5"/><path d="M564 133c9.3-.67 15.84.42 24 5-6.49 2.16-11.01.81-16.91-2.04A24 24 0 0 0 564 134z" fill="#CAB56C"/><path d="m784 454 1 3-3 .18-4 .26-2.08.13c-3.61.23-7.16.56-10.73 1.12L762 459l-2-2c8.07-3.4 15.38-3.31 24-3" fill="#EDEFED"/><path d="M495 207c2.1 3.15 2.94 5.75 4 9.38 1.17 3.96 2.4 7.81 4 11.62h-3c-3.89-6.23-6.69-12.43-6-20z" fill="#D9DBDA"/><path d="M531 272h1a51 51 0 0 1-3.94 15.94l-.8 2.03c-2 4.9-2 4.9-4.26 6.03.6-4.21 1.58-8 3-12l.94-3a68 68 0 0 1 4.06-9" fill="#E9EBEB"/><path d="m749 675 1 2c-5.63.79-11.19 1.13-16.88 1.19l-3.86.04C726 678 726 678 723 676c8.67-.6 17.3-1.19 26-1" fill="#EAEDEA"/><path d="M708 685c3.96 3.96 4.55 7.51 5 13-.88 3.62-.88 3.62-2 6h-3z" fill="#EEF0EF"/><path d="M757 646c1.86.2 1.86.2 4 1a20 20 0 0 1 2.25 4.88l1.02 2.67C765 657 765 657 765 660h-2l-1 3-.33-1.76A46 46 0 0 0 757 648z" fill="#EAEDED"/><path d="M459 580c3.99 4.61 6.94 9.75 10 15l-2 2a706 706 0 0 1-6.15-8.11c-1.78-2.78-2.58-4.62-2.85-7.89z" fill="#DEE1DE"/><path d="m695 163 3 1c-.43 5.71-2.84 9.41-6 14l-3-3 1.88-2.06c2.45-3.4 3.17-5.9 4.12-9.94" fill="#282010"/><path d="m776.81 456.94 6.2.06v3l-16 1v-2l-2-1c4-.95 7.7-1.1 11.8-1.06" fill="#202120"/><path d="M810 509h2l.06 6.12.04 3.45A58 58 0 0 1 811 528c-1.5-1.12-1.5-1.12-3-3-.25-3.12-.25-3.12 0-6l1-1q.34-2.27.56-4.56l.26-2.51z" fill="#1F221F"/><path d="m892 700-1 3c-3.31 1.65-6.99 1.1-10.62 1.06l-2.43-.01L872 704v-1l8.31-1.5 2.38-.43 2.3-.41 2.11-.38c1.9-.28 1.9-.28 4.9-.28" fill="#DEE1DD"/><path d="M489 430h1l1 6.69.56 3.76c.36 2.91.53 5.63.44 8.55l-1-3c-2.06-1.19-2.06-1.19-4-2z" fill="#CACDC9"/><path d="M539 157h1l.56 5.38.32 3.02c.12 2.6.12 2.6-.88 4.6h-4v-8h3z" fill="#E6CB72"/><path d="M645 162h1l.15 2.6c.4 6.07.84 11.64 2.85 17.4l-2 2c-3.14-5.12-3.27-8.63-2.69-14.38l.19-2.23q.23-2.7.5-5.39" fill="#3C3722"/><path d="m659 139 2 1-1.68 1.72c-4.33 4.62-7.25 7.98-8.32 14.28l-4 1c1.2-7.87 6.54-12.54 12-18" fill="#B6AE89"/><path d="M677 130a79 79 0 0 1 5.06.94l2.79.59 2.15.47v1l-3 .11c-7.2.34-13.3 1.06-20 3.89l-3-1c5.21-3.37 8.84-4.47 15-5z" fill="#181105"/><path d="M618 662h18l-1 3h-17z" fill="#F5F7F4"/><path d="M492 372h2l-3 18c-3.23-4.84-3.23-4.84-2.48-8.66l.86-2.96.83-2.98c.79-2.4.79-2.4 1.79-3.4" fill="#DFDFE1"/><path d="M697 168h1v8h-4l-.75 1.88c-1.46 2.47-2.63 3.07-5.25 4.12v2h-5l1.69-1.25L687 181l2.44-1.62c3.53-3.27 5.42-7.12 7.56-11.38" fill="#D2BC6E"/><path d="m512.7-.4 2.99.15 3 .1L521 0l1 3-15 1c3-4 3-4 5.7-4.4" fill="#F3F7F3"/><path d="M616 691c3 4 3 4 2.81 6.11l-.81 2.08-.75 2.1C616 703 616 703 611 704z" fill="#EBEDEB"/><path d="m856 656 16 1v1c-8.58 1.52-16.35 2.31-25 1v-1l9-1z" fill="#242524"/><path d="M575 136c1.88 1.56 1.88 1.56 3 3-1 1-1 1-4.31 1.31C570 140 570 140 567.56 138l-1.56-2c3.55-1.18 5.4-.9 9 0" fill="#271E0B"/><path d="m559 666 4 4-8 4-1-3-3-2z" fill="#F1F3F1"/><path d="M963 630h2c2.01 6.27.98 11.93-1 18h-2z" fill="#F0F0F1"/><path d="M504 3c2.12.38 2.12.38 4 1l-2.25 1.69A43 43 0 0 0 499 13l-2 2-2-1c1.56-3.83 4.03-6.18 7-9z" fill="#E4E7E4"/><path d="M490 658h1l.26 2.01c.96 6.01 1.92 9.19 6.74 12.99-4 0-4 0-6.19-1.12-2.48-2.57-2.6-4.35-2.81-7.88.44-3.38.44-3.38 1-6" fill="#D9DBDB"/><path d="m804 558 3 1q-.89 2.22-1.81 4.44l-1.02 2.49C803 568 803 568 800 569c.51-4.39 1.52-7.34 4-11" fill="#E9EBED"/><path d="m748 225 2 3-8 10-3-2q2.43-3.06 5-6h2l.44-1.94C747 226 747 226 748 225" fill="#1F221F"/><path d="M760 445h1l.5 5.25.28 2.95c.18 2.26.22 4.53.22 6.8l-4 1z" fill="#D3D5D4"/><path d="M807 674h2l-.06 2.25c.06 2.75.06 2.75.62 4.94C810 683 810 683 809 685h-2l-1 3-.06-5.31-.04-2.99c.1-2.7.1-2.7 1.1-5.7" fill="#1B1E1B"/><path d="M795 613h13v3h-11v-2z" fill="#F0F1F1"/><path d="M758 437c3 3 3 3 3.07 5.7l-.38 2.99-.37 3.01-.32 2.3h-3z" fill="#202321"/><path d="M532 259h2q.08 3.13.12 6.25l.08 3.52c-.19 3.06-.59 4.67-2.2 7.23a52 52 0 0 1 0-17" fill="#DBDDDE"/><path d="m590 194-2 4h-4v2h-9c2.5-1.67 4.78-2.9 7.5-4.12l2.34-1.08c2.16-.8 2.16-.8 5.16-.8" fill="#291D0A"/><path d="M540 692h2l1 12h-2c-2.45-3.67-2.24-5.67-2-10z" fill="#EDEDF0"/><path d="M812 492c2.01 1.64 2.93 2.45 3.25 5.08l-.18 2.37-.16 2.57-.22 2.67-.19 2.7a478 478 0 0 1-.5 6.61h-1a188 188 0 0 1-1-22" fill="#F1F4F0"/><path d="M456 462a32 32 0 0 1-5 7.75l-1.56 1.86C448 473 448 473 446 473c5.3-11 5.3-11 10-11" fill="#E6E8E7"/><path d="M704 145c3.67 3.37 6.12 6.36 8 11v4h-2v-4h-2v-4h-2v-4h-2z" fill="#DEC378"/><path d="M702 140h4v4h4l-1 5h-2c-1.29-1.46-1.29-1.46-2.62-3.38l-1.36-1.89C702 142 702 142 702 140" fill="#1F1606"/><path d="M690 136v4h2v2h2v2h2l-1 4-2.19-2.75A43 43 0 0 0 685 138c3-2 3-2 5-2" fill="#D4B86B"/><path d="m552 676 3 1-2.88 3.94-1.61 2.21C549 685 549 685 547 686l-1-3c1.21-1.82 1.21-1.82 2.94-3.69l1.71-1.88z" fill="#1D1F1F"/><path d="M908 631h2c.62 7.26.62 7.26-2.5 11l-2.5 2c0-4 0-4 2-6q.6-3.49 1-7" fill="#E1E3E2"/><path d="M961 622h2c1.34 7.43.68 14.51 0 22h-1z" fill="#CBCBCC"/><path d="m887 573 5.38.44 3.02.24c2.6.32 2.6.32 4.6 1.32v2c-4.82.19-8.5-.24-13-2z" fill="#E4E6E8"/><path d="M490 390c1.5 1 1.5 1 3 3 .27 2.72.13 5.26 0 8l-2 1c-.62 2.56-.62 2.56-1 5h-1c-.18-11.52-.18-11.52 1-17" fill="#444547"/><path d="M502 337c1.12 1.58 1.12 1.58 2 4-.68 3.23-.68 3.23-1.88 6.75l-1.17 3.55-.95 2.7c-2-3-2-3-1.57-5.59l.88-2.91.87-2.91q.89-2.8 1.82-5.59" fill="#DBDEDF"/><path d="m660 181 2.25 1.44c4.85 2.48 10.4 2.31 15.75 2.56v1h-18z" fill="#CEB569"/><path d="m588.25 171.69 2.75.3v5l-3 1v-4h-2v2h-2v2l-3-1c3.2-4.91 3.2-4.91 7.25-5.3" fill="#E1C663"/><path d="m532 156 3 1c1.05 3.15 1.1 5.39 1.06 8.69l-.02 3.01-.04 2.3h-1l-.38-3.44L534 164l-2-1z" fill="#2F2B1F"/><path d="M504 631a93 93 0 0 1 9 4v2l-7 2 1-4-4-3z" fill="#DDDDE0"/><path d="m709 156 1 4h2v12h-1v-8l-3 1z" fill="#EFCE5C"/><path d="M633 675h1v13l-2-1c-.99-3.97-1.13-7.06 0-11z" fill="#EEF1F2"/><path d="M491 656a53 53 0 0 1 3.62 8.75l.79 2.42.59 1.83c-1.94-.38-1.94-.38-4-1-1.26-2.52-1.1-4.31-1.06-7.12l.02-2.76z" fill="#242628"/><path d="M903.5 576.25c3.5.75 3.5.75 6.5 2.75v2l-13-3c3-2 3-2 6.5-1.75" fill="#D1D3D2"/><path d="m459 461 2 3a283 283 0 0 1-3.81 3.06l-2.15 1.73L453 470l-3-1z" fill="#232526"/><path d="M751 639c3.8 1.49 5.61 3.76 8 7l-3 1c-1.82-1.21-1.82-1.21-3.69-2.94l-1.88-1.71L749 641z" fill="#DCDFE0"/><path d="M506 327h2c-.54 4.56-1.79 7.97-4 12l-2-3c.68-2.26.68-2.26 1.88-4.69l1.17-2.45z" fill="#EAECEE"/><path d="m524 245 2 1v3l5 1v2h3l-1 3-4.44-2.88-2.49-1.61C524 249 524 249 523 247z" fill="#222421"/><path d="M686 139c4.14 2.54 7.36 4.88 10 9l-1 3a36 36 0 0 1-4-6l-3-1v-2l-3-1z" fill="#271C0A"/><path d="m497 673 13 2-1 2-4.88-.44-2.74-.24C499 676 499 676 497 675z" fill="#EAEBE9"/><path d="m817.31 660.69 2.7.3a286 286 0 0 1-9 7q-1-.97-2-2c4.17-4.91 4.17-4.91 8.3-5.3" fill="#E3E4E4"/><path d="m761 373 .38 1.56c.81 3.17 1.71 6.3 2.62 9.44h-4a220 220 0 0 1-.62-4.38l-.36-2.46L759 375z" fill="#E5E8E5"/><path d="m713 158 3 2c.29 2.6.29 2.6.19 5.62l-.08 3.04L716 171h-2z" fill="#191107"/><path d="m538 152 2 1-1 9h-3c.88-7.75.88-7.75 2-10" fill="#CCB775"/><path d="M590 154h2q.33 2.12.62 4.25l.36 2.39c.02 2.68-.61 4.09-1.98 6.36-1-1-1-1-1.1-3.72l.04-3.34.02-3.35z" fill="#EAC55F"/><path d="M733 0c2.94-.37 2.94-.37 6 0l3 3h-11z" fill="#F6F8F7"/><path d="M904 695v2q-2.18.58-4.38 1.12l-2.46.64-2.16.24-2-2q2.18-.8 4.38-1.56l2.46-.88C902 694 902 694 904 695" fill="#272927"/><path d="M618 676h1l1 15-3 2z" fill="#F5F8F6"/><path d="M549 192h3v2l1.9.59 2.48.79 2.46.77C561 197 561 197 563 199c-5.29-.52-8.61-2.16-13-5z" fill="#D0B978"/><path d="M540 185h2a32 32 0 0 1 3 3.38 78 78 0 0 0 5 5.62l-4 1v-3h-2v-2h-2v-2h-2z" fill="#291B0A"/><path d="m699 167 5 1-1 5-5-1z" fill="#F3CE63"/><path d="M812 699c3.91 1.16 6.87 2.36 10 5-6.48.37-6.48.37-8.94-1.38C812 701 812 701 812 699" fill="#E7EAE7"/><path d="M861 653h8l1 2c-3.47 1.16-6.36 1.07-10 1z" fill="#DDDFDF"/><path d="M853 613h13l-3 3c-2.48-.14-2.48-.14-5.19-.81l-2.73-.65L853 614z" fill="#EFF2F2"/><path d="m475 604 7 6-2 3c-5-5.62-5-5.62-5-9" fill="#EBEDED"/><path d="M489 446h2c.96 2.88 1.11 4.7 1.06 7.69l-.02 2.45L492 458c-2.29-2.29-2.52-3.46-3.19-6.56l-.54-2.44-.27-2z" fill="#ECF0EB"/><path d="M713 164h1v14h-2l-1 3-1-2 .88-2c1.59-4.25 1.79-8.5 2.12-13" fill="#36260C"/><path d="m601 151 3 1c.25 6.62.25 6.62-2 10a717 717 0 0 1-1.66-7.71L600 152z" fill="#281E0B"/><path d="M564 133h11l2 4-13-3z" fill="#D0C299"/><path d="m495 647 3 1c-.19 1.88-.19 1.88-1 4-2.56 1.25-2.56 1.25-5 2 1.88-4.75 1.88-4.75 3-7" fill="#222325"/><path d="M740 319c4 2 4 2 5.25 5.62L746 328l-2 2z" fill="#E0E3DF"/><path d="m756 671 3 1c-5.17 4.06-5.17 4.06-9.38 3.75L747 675v-1l1.71-.4 2.23-.54 2.21-.52C755 672 755 672 756 671" fill="#DFE1E0"/><path d="m761 653 3 1 1 6h-2l-1 3z" fill="#F5F7F6"/><path d="m724 248 3 1c-2.49 2.67-4.63 4.56-8 6v-3c2.31-2.25 2.31-2.25 5-4" fill="#242722"/><path d="M753 220h1c.37 5.42.37 5.42-1.5 8.38L751 230l-3-1 3.03-5.27A89 89 0 0 0 753 220" fill="#D6D8D6"/><path d="m552 195 3.19 1.44A35 35 0 0 0 564 199v1h-10z" fill="#291807"/><path d="m699 193 2 1-1 4h-8c2.3-1.74 4.6-3.4 7-5" fill="#312211"/><path d="M534 675c-3 2-3 2-6 3l-3-1v-2c3.07-1.53 5.7-.55 9 0" fill="#D8D9DA"/><path d="m697 667 7 3-2 3-6-3z" fill="#EAEDEA"/><path d="m932 587 7 5c-3 1-3 1-6.19-.44L930 590v-2z" fill="#E3E4E4"/><path d="m860.63 568.94 2.48.59 1.9.47c-2 2-2 2-5.5 2.32L856 572l-2-3c2.63-1.31 3.8-.75 6.62-.06" fill="#D5D5D7"/><path d="m491 429 2 1v9l-3-1z" fill="#1E211E"/><path d="M693 200c-3.83 1.8-6.78 2.2-11 2 3.54-4.07 6.31-4.84 11-2" fill="#2D2410"/><path d="m580 178 2 2c-3 2-3 2-6 2v2h-6c3.26-2.17 6.59-4.07 10-6" fill="#CDB966"/><path d="M657 178c2.39.58 4.67 1.22 7 2v2l4 1c-1.77.65-1.77.65-4 1-1.92-.96-1.92-.96-3.75-2.38l-1.86-1.39L657 179z" fill="#35290F"/><path d="m659 139 2 1q-1.92 2.26-3.88 4.5l-2.17 2.53L653 149h-2c1.65-4.29 4.74-6.88 8-10" fill="#B9B8A0"/><path d="M588 138h4v2h2v2h2l-1 4c-2.65-2.58-4.94-4.92-7-8" fill="#35240A"/><path d="M709 692h1l.44 3.38C711 699 711 699 712 701l-1 3h-3z" fill="#BDC0BE"/><path d="m542 686 2 1-1 13h-1l-.56-5.88-.32-3.3C541 688 541 688 542 686" fill="#C6C6C9"/><path d="M488 654h3l-1 10-2-1z" fill="#EEEFEF"/><path d="m751 624 3 1-5 5-3-2c2.31-2.06 2.31-2.06 5-4" fill="#222423"/><path d="m454 574 3 1a41 41 0 0 1 2 6c-2.62-1.05-3.79-1.65-5.25-4.12L453 575z" fill="#EBEDEA"/><path d="M646 175c1.74 2.6 2.61 3.99 3 7l-2 2-3-7h2z" fill="#302A11"/><path d="M654 168h2v8a89 89 0 0 1-4-4v-2h2z" fill="#28200C"/><path d="M766 616h7v3h-6z" fill="#F3F5F1"/><path d="M456 570h2c1.12 5.62 1.12 5.62 0 9a135 135 0 0 1-3-7z" fill="#242624"/><path d="M810 534h3c-.59 6.15-.59 6.15-1 8l-2 1c-1.12-5.62-1.12-5.62 0-9" fill="#ECEEEC"/><path d="m669.56 195.94 2.44.06v2l4 1c-6.06.2-6.06.2-8 0l-2-2c1-1 1-1 3.56-1.06" fill="#D4C170"/><path d="M700 188h4c-1.45 3.83-3.43 5.12-7 7l1-3h2z" fill="#DFC469"/><path d="M614 697c1.06 1.81 1.06 1.81 2 4l-1 3-4-1z" fill="#DBDEDB"/><path d="m955 662 2 4-4 3-2-2z" fill="#DEE1DD"/><path d="m492 648 3 1-3 7-1-2h-2z" fill="#E1E1E3"/><path d="M492 452h1l1 8-7-1 1.94-.69c2.06-1.31 2.06-1.31 2.81-3.93z" fill="#BBBEBB"/><path d="M657 193a31 31 0 0 1 9 5l-10-2z" fill="#251709"/><path d="M709 150h3v4h2v3l-3-1c-1.19-3.06-1.19-3.06-2-6" fill="#261807"/><path d="M586 144h2v6h2l-1 3c-1.89-2.39-3.02-4.07-4-7z" fill="#D2B567"/><path d="M699 28c0 3 0 3-1.31 4.39L693 36c0-3 0-3 1.31-4.39z" fill="#E4E5E6"/><path d="M534 9c3.16 1.37 3.99 1.99 6 5l-3 1c-1.5-1.31-1.5-1.31-3-3z" fill="#ECEFED"/><path d="m530 5 4 3-1 4-4-4z" fill="#DDE1DD"/><path d="M637 697c3.88 4.75 3.88 4.75 5 7-2.44-.81-2.44-.81-5-2l-1-3z" fill="#E2E4E5"/><path d="m758 664 2 4-4 4-1-3c1.44-2.69 1.44-2.69 3-5" fill="#1F2222"/><path d="m880 615 7 1-3 3-4-2z" fill="#DBE1E0"/><path d="m805 551 3 4-4 4c-1-2-1-2-.06-5.12z" fill="#D2D5D6"/><path d="M770 457v1c-6.05.98-6.05.98-8 1l-2-2c3.58-1.24 6.34-.75 10 0" fill="#E2E4E4"/><path d="M522 300c1 3 1 3 .25 5.62C521 308 521 308 518 309a93 93 0 0 1 4-9" fill="#202222"/><path d="M582 194h5c-1.97 2.52-2.97 2.99-6.19 3.69L578 198v-2h4z" fill="#DBC478"/><path d="M650 184c2.5 2.31 2.5 2.31 5 5v3c-2.5-1.75-2.5-1.75-5-4z" fill="#352916"/><path d="m651 145 1 2-4 6c-1.33-2.67-.67-4.17 0-7z" fill="#141105"/><path d="m656 137 2 4-4 3-2-1v-3l4 1z" fill="#252519"/><path d="M693 136h8l-1 4-7-3z" fill="#2D1E09"/><path d="m713 15 3 1a139 139 0 0 1-5 5h-2c1.15-2.47 2.05-4.05 4-6" fill="#D4D5D7"/></svg>