<svg style="background:transparent" version="1.1" xmlns="http://www.w3.org/2000/svg" viewBox="0 0 1248 704"><path d="M525 13c2.56 1.63 2.56 1.63 4 3v2l1.7.29c2.87.89 4.7 2.3 7.05 4.15l2.42 1.87L542 26v2l1.69.25c3.05.99 4.96 2.6 7.31 4.75v2l1.75.25c2.89.96 4.1 2.6 6.25 4.75l3.23 1.79c4.5 2.51 8.14 5.81 11.96 9.23l1.63 1.42 1.42 1.27c5.16 3.77 9.68 4.73 15.97 4.68l2.42.01q3.96.02 7.9 0l5.52.01q5.77 0 11.53-.02 7.4-.03 14.77.01h11.38l5.45.01q3.81 0 7.61-.02l2.26.02c6.11-.08 10.5-2.03 15.21-5.79l1.69-1.34 1.74-1.4 1.84-1.47q4.32-3.45 8.58-6.99c7.89-6.58 7.89-6.58 11.51-8.48 3.91-2.25 6.87-5.01 10.17-8.05a33 33 0 0 1 6.02-4.14C722 19 722 19 724 17c4.98-4.98 11.56-7.69 18.5-8.31 3.93.35 6.13 1.3 9.5 3.31l3.06 1.69a24.6 24.6 0 0 1 8.75 13.06c.71 12.24.71 12.24-.3 18.09a71 71 0 0 0-.83 8.74l-.12 3.23-.12 3.44-.13 3.58c-.32 9.5-.38 18.99-.27 28.5l.02 3.05.04 2.64a75 75 0 0 1-.6 7.05c-.56 4.96-.63 9.85-.6 14.84l.01 2.86.01 6.12.03 9.68.05 20.55.06 23.85q0 4.77.03 9.53l.01 5.85.01 2.66c0 14.22-4.62 28.13-14.61 38.61a195 195 0 0 1-10.15 8.47C734 250 734 250 731.56 252.56c-2.56 2.44-2.56 2.44-5.75 4-3.15 1.62-3.63 2.21-4.81 5.44-.1 5.28.8 10.2 3 15l.88 3.25c2.87 9.58 7.86 18.44 12.62 27.19 2.76 5.1 5.26 10.22 7.5 15.56l1.5 3.44L748 330l.93 2.16c2.54 6.05 4.38 12.19 6.13 18.5.99 3.51 2.11 6.94 3.29 10.39.98 2.95 1.8 5.95 2.65 8.95l1.12 3.06c.94 3.15.88 5.68.88 8.94l1 2.94c1.15 3.5 1.07 6.39 1 10.06l.5 2c.75 2.98.5 5.94.5 9l1 3q.15 4.1.12 8.19l.02 2.21c-.01 5.63-.26 11.26-1.7 16.72-.44 1.88-.44 1.88-.38 4.82-.06 3.25-.83 5.09-2.06 8.06a166 166 0 0 0-1 7l1.87-.44c10.52-2.3 19.83-2.61 29.52 2.76 4.88 3.17 9.27 6.81 13.61 10.68l-1-3q.44-2.51 1-5 .75-5.74 1.37-11.5c2.34-20.42 12.63-39.69 28.69-52.62q2.46-1.96 4.94-3.88l1.74-1.49c3.54-2.36 7.4-3.88 11.32-5.51l2.59-1.08c12.77-5.23 24.26-6.98 37.97-7.04l2.43-.02c13.07.04 13.07.04 18.76 2.52a59 59 0 0 0 9.19 2.81c7.22 1.88 13.63 5.42 20.2 8.87q2.5 1.3 5.03 2.55c7.43 3.74 13.4 8.69 19.46 14.33l1.91 1.77c13.6 12.88 13.6 12.88 13.84 20.54-.14 5.33-2.1 8.69-5.44 12.75l-1.43 1.76c-4.32 4.44-9.13 5.63-15.19 6.31-5.85-.12-10.23-2.48-15.38-5.07a494 494 0 0 0-8.19-3.56q-7.47-3.28-14.93-6.61A698 698 0 0 0 917 433l-3.56-1.56c-5.81-2.43-11.16-3.94-17.44-4.44l-2.05-.2c-8.16-.43-17.29 1.76-23.89 6.7-12.73 12.64-12.51 32.37-12.68 49-.46 31.04-.46 31.04-3.38 39.5l-.31 3.62c-1.52 13.98-11.25 28.5-19.69 39.38l-1.43 1.85A100 100 0 0 1 829 571h-2l-.75 1.75c-2.45 4.41-5.69 6.61-10.06 8.98-2.83 1.64-5.49 3.49-8.19 5.33-4.28 2.88-8.17 5.17-13 6.94l-2.06.84c-3.68 1.47-5.86 2.16-9.94 2.16l-.73 1.7c-1.54 2.78-3.42 4.84-5.58 7.18a186 186 0 0 0-7.44 8.43c-5.35 6.39-11.77 13.03-18.97 17.31C748 633 748 633 747 635l1.98 1.21c7.96 5.18 13.23 10.5 15.52 19.91.66 4.52.55 7.7-1.5 11.88-6.92 7.74-13.98 9.4-24 10-13.22.66-25.52-1.73-38-6l1.17 1.32a227 227 0 0 0 3.13 3.56c4.39 5.46 6.36 9.43 7.01 16.31l.26 2.15c.36 3.27.48 5.5-.57 8.66q-13.95.18-27.9.26-6.48.04-12.96.12-6.25.07-12.51.09l-4.77.06q-3.34.05-6.68.04l-3.85.03c-4.24-.76-5.68-2.28-8.33-5.6-1.11-3.08-1.11-3.08-1.75-6.25-1.19-5.69-1.19-5.69-2.25-6.75q-.14-2.71-.12-5.44l-.01-2.99C631 675 631 675 632 673l-.06-2.31C632 668 632 668 634 663h-16l2 5c.2 3.23.2 3.23.12 6.62l-.05 3.42L620 681q0 2.82.12 5.62c-.25 6.84-1.14 12.39-6.12 17.38-3.24.62-3.24.62-7.12.62l-2.15.01q-3.51.01-7.02-.04h-4.88q-5.1 0-10.21-.05-6.55-.05-13.11-.03l-10.07-.03-4.83-.01q-3.38 0-6.75-.05l-3.88-.03L541 704c-2.38-3.57-2.73-5.88-2-10q2.57-7.19 6-14l-4-2 1-4-1.66.93c-11.74 5.38-31.45 4.51-43.43.14-4.74-2.65-7.7-6.75-9.66-11.76-1.21-6 2.81-11.34 5.75-16.31l1.45-2.66a20 20 0 0 1 5.61-5.65l2.1-1.55C504 636 504 636 506 636a90 90 0 0 0-8.31-7.69L495 626v-2l-1.81-.29c-2.68-.87-3.49-1.93-5.19-4.15-1.58-2.05-2.62-3.37-4.95-4.53-2.55-1.28-3.95-2.88-5.8-5.03l-1.86-2.12C474 606 474 606 474 604l-2.12-1.62c-5.14-4.24-8.5-9.7-11.88-15.38l-1.97-3.12-2.09-3.32-2.1-3.31A46 46 0 0 1 450 568q-1.24-2.5-2.56-4.94A31 31 0 0 1 444 551q-.96-2.51-2-5a84 84 0 0 1-2.79-14.98c-.21-2.02-.21-2.02-.71-4.46-1.51-7.75-1.6-15.39-1.19-23.25l.11-2.72A52 52 0 0 1 440 486l.96-2.88c3.75-10.34 3.75-10.34 6.04-14.12l3-1 .41-1.84c1.26-4.59 6.71-6.87 10.59-9.16 9.18-4.58 19.4-3.95 29-1l-.4-1.84-.54-2.54-.52-2.46c-.74-4.37-1.13-8.75-1.54-13.16l-.57-5.58-.55-5.67-.31-2.89c-.46-4.87-.58-9.03.43-13.86q.03-2.37-.06-4.75a53 53 0 0 1 1.49-12.56 132 132 0 0 0 1.51-9.07c1.25-8.32 3.04-16.39 6.17-24.22 1.54-4.17 2.8-8.43 4.09-12.68 1.12-3.65 2.32-7.2 3.8-10.72l.94-2.38c2.98-7.36 6.4-14.4 10-21.47 7.37-14.46 7.37-14.46 10.19-21.92.91-2.33 1.94-4.58 2.99-6.85 3.03-6.79 5.05-13.89 3.88-21.38-2.03-3-3.99-3.99-7.2-5.66-4.35-2.47-7.56-5.8-10.99-9.4l-3.6-3.73-1.69-1.74C506 238 506 238 503.77 236.41c-7.91-6.33-10.61-20.84-11.77-30.41a165 165 0 0 1-.1-8.61l.01-2.53.01-5.41.03-8.69.06-21.65c.14-43.37.14-43.37-.45-63.25l-.06-2.05c-.23-7.73-.64-15.41-1.29-23.12a95 95 0 0 1-.21-9.38c.11-5.09.11-5.09-1-7.31-.12-4.23.1-8.46.25-12.69l.08-3.55c.34-9.65 2.01-15.75 8.65-22.96C506.53 7.19 515.4 7.87 525 13m164 651v4l3-1zm-127 2-12 5v4a192 192 0 0 0 11.17-5.98L563 668z" fill="#151816"/><path d="M525 13c2.56 1.63 2.56 1.63 4 3v2l1.7.29c2.87.89 4.7 2.3 7.05 4.15l2.42 1.87L542 26v2l1.69.25c3.05.99 4.96 2.6 7.31 4.75v2l1.75.25c2.89.96 4.1 2.6 6.25 4.75l3.23 1.79c4.5 2.51 8.14 5.81 11.96 9.23l1.63 1.42 1.42 1.27c5.16 3.77 9.68 4.73 15.97 4.68l2.42.01q3.96.02 7.9 0l5.52.01q5.77 0 11.53-.02 7.4-.03 14.77.01h11.38l5.45.01q3.81 0 7.61-.02l2.26.02c6.11-.08 10.5-2.03 15.21-5.79l1.69-1.34 1.74-1.4 1.84-1.47q4.32-3.45 8.58-6.99c7.89-6.58 7.89-6.58 11.51-8.48 3.91-2.25 6.87-5.01 10.17-8.05a33 33 0 0 1 6.02-4.14C722 19 722 19 724 17c4.98-4.98 11.56-7.69 18.5-8.31 3.93.35 6.13 1.3 9.5 3.31l3.06 1.69a24.6 24.6 0 0 1 8.75 13.06c.71 12.24.71 12.24-.3 18.09a71 71 0 0 0-.83 8.74l-.12 3.23-.12 3.44-.13 3.58c-.32 9.5-.38 18.99-.27 28.5l.02 3.05.04 2.64a75 75 0 0 1-.6 7.05c-.56 4.96-.63 9.85-.6 14.84l.01 2.86.01 6.12.03 9.68.05 20.55.06 23.85q0 4.77.03 9.53l.01 5.85.01 2.66c0 14.22-4.62 28.13-14.61 38.61a195 195 0 0 1-10.15 8.47C734 250 734 250 731.56 252.56c-2.56 2.44-2.56 2.44-5.75 4-3.15 1.62-3.63 2.21-4.81 5.44-.1 5.28.8 10.2 3 15l.88 3.25c2.87 9.58 7.86 18.44 12.62 27.19 2.76 5.1 5.26 10.22 7.5 15.56l1.5 3.44L748 330l.93 2.16c2.54 6.05 4.38 12.19 6.13 18.5.99 3.51 2.11 6.94 3.29 10.39.98 2.95 1.8 5.95 2.65 8.95l1.12 3.06c.94 3.15.88 5.68.88 8.94l1 2.94c1.15 3.5 1.07 6.39 1 10.06l.5 2c.75 2.98.5 5.94.5 9l1 3q.15 4.1.12 8.19l.02 2.21c-.01 5.63-.26 11.26-1.7 16.72-.44 1.88-.44 1.88-.38 4.82-.06 3.25-.83 5.09-2.06 8.06a166 166 0 0 0-1 7l1.87-.44c10.52-2.3 19.83-2.61 29.52 2.76 4.88 3.17 9.27 6.81 13.61 10.68l-1-3q.44-2.51 1-5 .75-5.74 1.37-11.5c2.34-20.42 12.63-39.69 28.69-52.62q2.46-1.96 4.94-3.88l1.74-1.49c3.54-2.36 7.4-3.88 11.32-5.51l2.59-1.08c12.77-5.23 24.26-6.98 37.97-7.04l2.43-.02c13.07.04 13.07.04 18.76 2.52a59 59 0 0 0 9.19 2.81c7.22 1.88 13.63 5.42 20.2 8.87q2.5 1.3 5.03 2.55c7.43 3.74 13.4 8.69 19.46 14.33l1.91 1.77c13.6 12.88 13.6 12.88 13.84 20.54-.14 5.33-2.1 8.69-5.44 12.75l-1.43 1.76c-4.32 4.44-9.13 5.63-15.19 6.31-5.85-.12-10.23-2.48-15.38-5.07a494 494 0 0 0-8.19-3.56q-7.47-3.28-14.93-6.61A698 698 0 0 0 917 433l-3.56-1.56c-5.81-2.43-11.16-3.94-17.44-4.44l-2.05-.2c-8.16-.43-17.29 1.76-23.89 6.7-12.73 12.64-12.51 32.37-12.68 49-.46 31.04-.46 31.04-3.38 39.5l-.31 3.62c-1.52 13.98-11.25 28.5-19.69 39.38l-1.43 1.85A100 100 0 0 1 829 571h-2l-.75 1.75c-2.45 4.41-5.69 6.61-10.06 8.98-2.83 1.64-5.49 3.49-8.19 5.33-4.28 2.88-8.17 5.17-13 6.94l-2.06.84c-3.68 1.47-5.86 2.16-9.94 2.16l-.73 1.7c-1.54 2.78-3.42 4.84-5.58 7.18a186 186 0 0 0-7.44 8.43c-5.35 6.39-11.77 13.03-18.97 17.31C748 633 748 633 747 635l1.98 1.21c7.96 5.18 13.23 10.5 15.52 19.91.66 4.52.55 7.7-1.5 11.88-6.92 7.74-13.98 9.4-24 10-13.22.66-25.52-1.73-38-6l1.17 1.32a227 227 0 0 0 3.13 3.56c4.39 5.46 6.36 9.43 7.01 16.31l.26 2.15c.36 3.27.48 5.5-.57 8.66l-4-1 .11-2.6c.23-10.07-1.35-16.12-8.21-23.6-3.85-3.64-7.73-5.51-12.9-6.8v-9a77 77 0 0 1 8.6 3.84l1.99 1.03 4 2.12c10.3 5.31 20.04 6.5 31.53 6.39l3.67.03c15.4-.05 15.4-.05 20.89-4.89 3.21-3.69 2.65-7.73 2.58-12.41-.48-5.77-2.11-9.29-6.54-13.05A77 77 0 0 0 740 636a63 63 0 0 1 9.44-8A134 134 0 0 0 782 594c2.38-.81 4.7-1.49 7.12-2.12 20.83-6 37.49-19.58 48.88-37.88 2.53-4.59 4.82-9.24 7-14l1.19-2.57c6.05-14.73 7.87-32.56 8.02-48.42l.09-5.08.1-7.86c.18-16.23 1.43-31.35 12.85-44.01 9.25-8.59 21.87-8.59 33.69-8.19 4.12.26 7.35 1.4 11.06 3.13l3.25 1.37a689 689 0 0 1 18.84 8.43l3.21 1.47 6.27 2.91c19.19 8.87 19.19 8.87 27.64 6.09 5.32-2.43 8.35-5.47 11.04-10.71 1.22-4.17 1.21-7.26-.25-11.37-14.35-22.88-44.71-35.97-70-42.19-24.44-3.91-49.45-.52-70 14a140 140 0 0 0-10 9l-2.12 1.98c-13.05 13.17-19 34.86-18.99 52.96l.01 2.06.01 2.19.03 6.81.01 4.66L811 488c-2.31-2.31-2.5-3.51-3.25-6.62-2.64-9.16-8.85-15.44-16.63-20.64-7.58-4.12-17.6-4.15-25.85-2.04q-3.66 1.09-7.27 2.3l2.25-17.97.39-3.17q.43-3.4.94-6.79c3.84-31.03-2.35-64.1-13.58-93.07l-1.55-4.21a257 257 0 0 0-13.51-29.41C719.87 281.75 719.87 281.75 718 270l-.45-2.61c-.27-3.04-.26-5.41.45-8.39 2.87-3.37 6.32-5.59 10-8a325 325 0 0 0 6.91-5.36L737 244l1.87-1.42c10.91-8.67 15.81-21.13 18.13-34.58q.13-2.61.15-5.22l.03-3.12.01-3.4.02-3.6.06-9.79.07-10.32.4-64.72c.08-16.09.41-32.14 1.15-48.21q.39-9.1.46-18.22l.08-4.15c.35-13.05.35-13.05-2.72-17.56-4.5-4.47-8.73-6.83-15.15-7.25-8.52.54-15.72 6.92-22.31 11.87l-2.44 1.82a2485 2485 0 0 0-24.03 18.22q-5.85 4.47-11.72 8.9l-2.59 1.95L676 57l-2.63 2.07c-4.03 2.31-7.3 2.53-11.82 2.54l-2.5.05q-4.1.07-8.17.08l-5.73.06q-6 .05-12 .05-7.65.03-15.28.18-5.92.08-11.84.07-2.81.02-5.62.08C586.8 62.46 579.19 60.06 569 51a310 310 0 0 0-4.6-3.51l-4.02-3.18a1276 1276 0 0 0-19.88-15.25l-2.42-1.82c-19.86-14.87-19.86-14.87-28.99-14.62-5.13.94-8.97 4.2-12.47 7.88-2.66 4.1-3.87 7.55-3.85 12.45v2.88a335 335 0 0 1 .07 6.31c.09 9.81.51 19.61.99 29.42.92 19.07 1.37 38.12 1.48 57.21l.02 3.49q.09 15.91.13 31.81.02 8.86.08 17.72l.02 6.62c0 21.67 0 21.67 3.44 31.59l.88 2.72c4.26 12.67 15.09 22.5 26.33 29.19 7.15 4.33 7.15 4.33 8.79 8.86 1.38 17.85-10.36 36.31-18.48 51.51-6.49 12.16-11.27 24.62-15.52 37.72l-1.51 4.41c-3.21 9.5-5.27 19.18-7.03 29.04q-.47 2.64-1.01 5.27c-1.58 8.36-1.8 16.61-1.76 25.09v2.17A227 227 0 0 0 493 454l.6 3.61.4 2.39-1.59-.44c-10.51-2.52-23.66-4.06-33.27 1.77-11.26 8.78-16 20.73-17.91 34.62-3.86 34.81 8 72.54 29.29 99.98 11.87 14.72 25.25 30.45 42.48 39.07v2l-1.94.66c-7.55 2.77-13.38 5.97-17.5 13.09a22 22 0 0 0-.44 17.19c4.88 5.36 11.2 5.75 18.03 6.2 17.96.79 33.43-2.79 49.47-10.95C563 662 563 662 565 662v8l-2.41 1.07c-8.1 3.77-13.71 7.26-17.4 15.55-1.88 5.58-1.93 11.55-2.19 17.38h-2c-2.38-3.57-2.73-5.88-2-10q2.57-7.19 6-14l-4-2 1-4-1.66.93c-11.74 5.38-31.45 4.51-43.43.14-4.74-2.65-7.7-6.75-9.66-11.76-1.21-6 2.81-11.34 5.75-16.31l1.45-2.66a20 20 0 0 1 5.61-5.65l2.1-1.55C504 636 504 636 506 636a90 90 0 0 0-8.31-7.69L495 626v-2l-1.81-.29c-2.68-.87-3.49-1.93-5.19-4.15-1.58-2.05-2.62-3.37-4.95-4.53-2.55-1.28-3.95-2.88-5.8-5.03l-1.86-2.12C474 606 474 606 474 604l-2.12-1.62c-5.14-4.24-8.5-9.7-11.88-15.38l-1.97-3.12-2.09-3.32-2.1-3.31A46 46 0 0 1 450 568q-1.24-2.5-2.56-4.94A31 31 0 0 1 444 551q-.96-2.51-2-5a84 84 0 0 1-2.79-14.98c-.21-2.02-.21-2.02-.71-4.46-1.51-7.75-1.6-15.39-1.19-23.25l.11-2.72A52 52 0 0 1 440 486l.96-2.88c3.75-10.34 3.75-10.34 6.04-14.12l3-1 .41-1.84c1.26-4.59 6.71-6.87 10.59-9.16 9.18-4.58 19.4-3.95 29-1l-.4-1.84-.54-2.54-.52-2.46c-.74-4.37-1.13-8.75-1.54-13.16l-.57-5.58-.55-5.67-.31-2.89c-.46-4.87-.58-9.03.43-13.86q.03-2.37-.06-4.75a53 53 0 0 1 1.49-12.56 132 132 0 0 0 1.51-9.07c1.25-8.32 3.04-16.39 6.17-24.22 1.54-4.17 2.8-8.43 4.09-12.68 1.12-3.65 2.32-7.2 3.8-10.72l.94-2.38c2.98-7.36 6.4-14.4 10-21.47 7.37-14.46 7.37-14.46 10.19-21.92.91-2.33 1.94-4.58 2.99-6.85 3.03-6.79 5.05-13.89 3.88-21.38-2.03-3-3.99-3.99-7.2-5.66-4.35-2.47-7.56-5.8-10.99-9.4l-3.6-3.73-1.69-1.74C506 238 506 238 503.77 236.41c-7.91-6.33-10.61-20.84-11.77-30.41a165 165 0 0 1-.1-8.61l.01-2.53.01-5.41.03-8.69.06-21.65c.14-43.37.14-43.37-.45-63.25l-.06-2.05c-.23-7.73-.64-15.41-1.29-23.12a95 95 0 0 1-.21-9.38c.11-5.09.11-5.09-1-7.31-.12-4.23.1-8.46.25-12.69l.08-3.55c.34-9.65 2.01-15.75 8.65-22.96C506.53 7.19 515.4 7.87 525 13m164 651v4l3-1zm-127 2-12 5v4a192 192 0 0 0 11.17-5.98L563 668z" fill="#E4E6E6"/><path d="M673 495h1c.48 5.35-.87 8.1-3.75 12.56l-2.11 3.32c-3.27 4.77-6.4 8.75-11.14 12.12h-2v2c-2.48 1.73-2.48 1.73-5.75 3.62l-3.23 1.92C643 532 643 532 639 532l.18 1.66c1.82 17.41 2.13 34.72 2.08 52.2q-.01 5.64.01 11.26c.03 14.19-.09 28.32-1.16 42.48l-.24 3.13A125 125 0 0 1 637 660h-22l-1.44-10.25-.44-3.09c-2.21-16.31-2.32-32.85-2.31-49.28v-2.66c0-20.61 1.01-41.15 2.19-61.72l-2.46-1.2-3.24-1.6-3.21-1.57c-3.98-2.1-7.85-4.47-11.09-7.63v-2l-1.71-.62c-3.14-1.89-4.94-4.53-6.98-7.5l-1.22-1.77c-2.98-4.5-4.19-7.76-4.09-13.11l1.88 1.94c7.43 7.37 14.93 13.94 24.12 19.06l2.77 1.54c9.49 4.63 19.64 5.09 29.82 2.57 14.21-5.08 26.07-14.36 35.41-26.11" fill="#000"/><path d="M739 472h1c1.75 36.97-6.39 72.72-20 107l-1.99 5.12-.94 2.42c-9.94 25.82-17.34 50.72-19.07 78.46l-3 1c-2.04-1.21-2.04-1.21-4.19-2.94l-2.17-1.71L687 660c2.75-24.65 9.57-47.21 18.28-70.39 7.87-20.97 15.24-42.33 21.01-63.98q.75-2.79 1.58-5.58c1.71-5.96 3.11-12.02 4.57-18.05l.47-1.95A499 499 0 0 0 739 472" fill="#000101"/><path d="M512 470a29 29 0 0 1 3.11 8.9l.59 2.92.61 3.12c6.27 30.82 15.62 60.07 26.13 89.67 21.82 61.46 21.82 61.46 22.56 86.39-5.62 4-5.62 4-9 4l-.41-2.99-1.56-11.1-.67-4.78-.97-6.91-.29-2.13c-.74-5.03-2.22-9.37-4.1-14.09q-.75-2.77-1.38-5.56c-4.1-16.88-10.58-33.56-17.32-49.54-12.93-30.68-17.83-64.78-17.3-97.9" fill="#000101"/><path d="M811 516c2.6 1.3 2.67 2.25 3.6 4.96 1.55 4.95 1.86 9.5 1.78 14.66l-.04 2.64c-.32 13.62-4.04 25.34-9.34 37.74a484 484 0 0 0-3 8h-2l1 3c-6.44 3.64-11.59 5.64-19 6a80 80 0 0 1 4.17-7.55A141 141 0 0 0 802 556l1.5-3.82c1.78-4.73 2.97-9.57 4.12-14.49l.67-2.8c1.44-6.27 2.54-12.44 2.71-18.89" fill="#010201"/><path d="M749.13 10.25 752 12l3.06 1.69a24.7 24.7 0 0 1 8.75 13.06c.7 12.24.7 12.24-.3 18.09-.84 5.11-.9 10.24-1.09 15.41l-.12 3.57c-.33 9.65-.36 19.29-.18 28.95l.03 3.1.06 2.72c-.24 2.61-.99 4.12-2.22 6.41q-.42 3.36-.62 6.75l-.24 3.55c-.01.44-.01.44-.13 2.7h-1c-.2-34.58-.2-34.58.5-48.69a882 882 0 0 0 .84-27.71q.02-2.2.08-4.4c.35-13 .35-13-2.71-17.51-4.51-4.47-8.75-6.83-15.15-7.25-8.53.54-15.74 6.92-22.33 11.87l-2.44 1.82c-8.88 6.64-17.68 13.38-26.5 20.11q-4.65 3.55-9.3 7.07l-2.62 1.99A92 92 0 0 1 671 60q-1.5-.98-3-2l2.58-1.18a63 63 0 0 0 10.1-6.95l1.83-1.46q4.34-3.45 8.59-6.99c7.9-6.58 7.9-6.58 11.51-8.48 3.91-2.25 6.87-5.01 10.17-8.05a33 33 0 0 1 6.03-4.14C722 19 722 19 724 17c6.55-6.56 16.24-10.31 25.13-6.75" fill="#E0E1E2"/><path d="M634.4 190.32c2.6 1.68 2.6 1.68 3.78 5.05-.18 3.63-.18 3.63-2.5 6.44L633 204c-2 2-2 2-2.94 5.5C629 213 629 213 626 215c-3.07-.19-3.07-.19-6-1-2-3-2-3-2.32-5.44-.93-3.49-2.82-4.46-5.68-6.56-2.18-3.27-2.73-4.21-2-8 5.46-7.46 16.38-6.79 24.4-3.68" fill="#606162"/><path d="M904 379c5.51-.34 9.78-.01 14.87 2.16 2.35.93 4.67 1.46 7.13 2.03 7.22 1.88 13.63 5.42 20.2 8.87q2.5 1.3 5.03 2.55c7.43 3.74 13.4 8.69 19.46 14.33l1.91 1.77c13.6 12.88 13.6 12.88 13.84 20.54-.19 7.01-4.02 11.64-8.94 16.31-2.54 2.07-3.05 2.46-6.44 2.32L969 449a141 141 0 0 1 5.94-3.75c4.74-3.48 7.08-6.95 8-12.75.39-6.26-2.3-9.91-6.13-14.62-17.23-18.69-47.48-33.89-72.81-35.88z" fill="#E2E2E4"/><path d="M616 661h20l-.11 6.03-.05 5.87-.1 6c-.08 9.55.83 17.08 6.26 25.1-4.68-1.48-4.68-1.48-6.07-3.72a60 60 0 0 1-2.49-7.97c-1.33-5.2-1.33-5.2-2.44-6.31q-.14-2.71-.12-5.44l-.01-2.99C631 675 631 675 632 673l-.06-2.31C632 668 632 668 634 663h-16l2 5c.2 3.23.2 3.23.12 6.62l-.05 3.42L620 681q0 2.82.12 5.62c-.25 6.84-1.22 12.32-6.12 17.38l-3-1 .84-1.57 1.1-2.12 1.09-2.07c2-4.62 2.09-9.08 2.07-14.07l-.01-3.92-.03-4.06-.01-4.13z" fill="#EEEFF1"/><path d="M759 83h1c1.26 23.5 1.15 47 1.13 70.52v30.15l.01 6.27-.01 8.7.01 2.57c-.02 4.67-.12 9.21-1.14 13.79l-3 2 .34-36.91.16-17.15c.23-26.66.58-53.3 1.5-79.94" fill="#F0F2F2"/><path d="m912 427 3.25 1.37a689 689 0 0 1 18.84 8.43l3.21 1.47 6.27 2.91c15.3 7.07 15.3 7.07 22.93 7.51l3.16.2 2.34.11-1 2c-8.28 2.62-14.57-.46-22-4q-3.04-1.34-6.09-2.66-8.53-3.7-17.03-7.51A698 698 0 0 0 917 433l-3.56-1.56c-5.8-2.43-11.16-3.95-17.44-4.44l-2.12-.16c-5.55-.22-10.3.9-15.59 2.5-2.29.66-2.29.66-4.29.66 1-3 1-3 2.65-3.95 11.03-3.56 24.72-4 35.35.95" fill="#E5E7E8"/><path d="M489 431h1l.26 2.02 1.18 9.1.41 3.18c.63 4.91 1.28 9.82 2.15 14.7l-1.59-.44c-10.52-2.52-23.63-4.05-33.27 1.76-6.54 5.13-10.84 11.11-14.14 18.68l-2-1q.6-2.19 1.25-4.38l.7-2.46c1.3-2.67 2.46-2.89 5.05-4.16l.47-1.9c.98-3.86 4.62-5.39 7.79-7.48 8.89-5.25 18.46-6.09 28.49-3.62l3.25 1-.4-1.94q-.82-4.02-1.6-8.06l-.75-3.62c-.32-4.26.53-7.31 1.75-11.38" fill="#E2E3E4"/><path d="m770 610 2 1c-6.19 7.6-13.23 15.57-21.72 20.62C748 633 748 633 747 635l1.98 1.21c8.05 5.24 13.28 10.57 15.52 20.1.7 3.65.43 5.5-1.5 8.69h-1l-.55-2.89-.76-3.8-.74-3.76c-2.18-8.15-7.08-11.24-13.95-15.55a75 75 0 0 0-6-3 63 63 0 0 1 9.44-8A183 183 0 0 0 770 610" fill="#E5E8E7"/><path d="m687 169.81 2.91-.04c8.7-.02 14.66 1.68 22.09 6.23v2l-3.5-1.38c-16.71-5.4-35.31-4.78-51.12 3.13l-3.54 1.92C651 183 651 183 648 182c2.54-2.92 5.37-4.37 8.81-6.07q1.52-.74 3.08-1.53c8.95-4.04 17.43-4.58 27.11-4.59" fill="#030504"/><path d="M494 128h1v84c-3.38-4.5-3.38-4.5-3.36-8.31l-.01-2.57.04-2.77.01-2.91q.02-4.69.07-9.38l.04-6.41c.29-44.91.29-44.91 2.21-51.65" fill="#EDF0EE"/><path d="m581 56 1.6.99c3.07 1.29 5.47 1.24 8.81 1.22l3.95-.01 4.27-.04 4.43-.02 11.69-.06q10.38-.07 20.76-.11l2.23-.01c10.78-.03 21.51.16 32.26 1.04l-1 2h-87z" fill="#F1F4F5"/><path d="M561.06 169.69h2.78c11.3.2 21.91 1.32 31.16 8.3l3 1.7 2 1.3v2c-4.68-.9-8.57-3.3-12.74-5.51-7.85-3.55-15.07-3.82-23.58-3.8l-3.22-.04c-7.29 0-13.53 1.17-20.46 3.36q-2 .52-4 1v-2c8.16-5.1 15.55-6.37 25.06-6.31" fill="#030404"/><path d="M495 208h1l.52 2.27c4.25 17.96 11.61 28.53 26.48 39.73l3.21 1.91c3.07 1.86 5.45 3.37 7.79 6.09.91 4.8.67 9.18 0 14h-1l-.3-2.48-.45-3.27-.42-3.23c-.99-3.59-1.93-4.73-4.83-7.02l-5.13-2.81c-3.49-2.23-6.22-5.27-9.06-8.25l-3.6-3.73-1.69-1.74C506 238 506 238 503.77 236.41c-5.92-4.73-9.65-16.03-10.77-23.41.81-3.12.81-3.12 2-5" fill="#E0E2E4"/><path d="M760 445h1l1 11 4.44-1c12.06-2.36 21.48-.47 31.75 6.4 1.95 1.72 2.82 3.21 3.81 5.6-3 0-3 0-5.62-2.25-7.47-6.36-14.88-7.44-24.47-7.09A50 50 0 0 0 758 461z" fill="#DFE1E2"/><path d="M810 445h1v43c-2.31-2.31-2.53-3.57-3.31-6.69-1.01-3.62-2.14-6.27-4.44-9.25L801 469l1-3 5 3-1-3q.44-2.51 1-5l1-8c.87-6.87.87-6.87 2-8" fill="#E6E8EA"/><path d="M493 72h1a1245 1245 0 0 1 1.23 47.52v3.2l.01 2.81c-.25 2.6-.92 4.23-2.24 6.47a905 905 0 0 1-1.61-35.69l-.17-5.58q-.13-4.08-.23-8.16l-.09-2.53q-.04-3.02.1-6.04z" fill="#E0E2E1"/><path d="M761 398c2.72 2.72 2.26 4.18 2.27 7.98l.01 3.7-.03 3.94-.01 3.98c-.08 9.28-.63 18.26-2.24 27.4h-3l1-17h1z" fill="#1C1F1C"/><path d="m873 428 1 3-3.12 2.25c-7.84 6.81-10.5 16.78-12.59 26.58-.37 1.74-.83 3.46-1.29 5.17l-2 1c.22-12.63 3.3-23.56 12-33a78 78 0 0 1 6-5" fill="#D7DBDB"/><path d="m756 213 1 4h2c-4.41 11.35-9.58 20.2-19 28l-1.71 1.52c-2.64 2.33-4.72 4.07-8.29 4.48 2.99-3.09 6.08-5.91 9.38-8.69 9.35-8.36 13.22-17.55 16.62-29.31" fill="#E0E2E3"/><path d="M442 479h2c-.5 4.39-1.12 8.67-2 13-1.14 6.22-1.44 12.37-1.62 18.69L440 522c-3.03-3.03-2.99-6.14-3.01-10.34q.1-4.05.32-8.1l.11-2.77c.25-5.26.92-9.8 2.58-14.79l.63-2.21z" fill="#EDF0EF"/><path d="M489 431h1l.26 2.02 1.18 9.1.41 3.18c.63 4.91 1.28 9.82 2.15 14.7l-10-2v-1h7l-.62-2.16c-2.45-8.69-3.99-15.08-1.38-23.84" fill="#DADDDD"/><path d="M761 658h1c1 6.62 1 6.62 1 10-1.54 1.75-1.54 1.75-3.62 3.56l-2.04 1.82c-6.18 4.28-12.04 3.73-19.22 3.24l-2.95-.17L728 676v-1l3.84-.11 5.1-.2 2.52-.07c6.27-.27 13.28-.86 18.25-5.07 1.77-2.13 2.02-4.02 2.48-6.74l.48-2.73z" fill="#D9DCD9"/><path d="M489 398h1l.18 2.59.26 3.35.24 3.34C491 410 491 410 492 411q.15 4.47.12 8.94l.02 2.53-.01 2.43v2.24C492 429 492 429 491 431h-2z" fill="#1F2223"/><path d="M856 465h1c1.01 7.23 1.01 14.15.69 21.44l-.11 3.29-.13 3.14-.12 2.84C857 498 857 498 855 500l-.05-14.47-.03-4.93-.02-7.06-.01-2.24q.01-2.65.11-5.3z" fill="#F0F0F2"/><path d="M755 169h1a4849 4849 0 0 1 1 30l.1 3.94.06 3.74.05 3.33A20.5 20.5 0 0 1 755 218h-1z" fill="#0E1110"/><path d="M754 640c6.44 6.08 10.61 11.95 11 21-.96 2.3-.96 2.3-2 4h-1l-.52-2.82c-1.34-6.86-2.66-12.33-6.48-18.18-.75-2.44-.75-2.44-1-4" fill="#F3F4F3"/><path d="M760 445h1l1 11 3.94-.56c4.87-.56 9.22-.13 14.06.56v1l-2.27.11A74 74 0 0 0 758 461z" fill="#DDDFDD"/><path d="m545 682 2 1-1.44 3.19c-2.19 5.75-2.29 11.72-2.56 17.81h-2c-2.55-3.83-2.44-5.43-2-10 2.79-8.79 2.79-8.79 6-12" fill="#DDDDE0"/><path d="M617 677h1l.18 2.08.26 2.73.24 2.71C619 687 619 687 620 690c-.54 5.65-1.99 9.85-6 14l-3-1 1.92-3.41c2.33-4.65 2.93-8.95 3.33-14.09l.23-2.49q.28-3 .52-6.01" fill="#E1E6E8"/><path d="M493 368h2a278 278 0 0 1-2.98 19.35L491 393h-1c-1.11-8.19-1.81-16.38 2-24z" fill="#D8D9DA"/><path d="M754 14c3.37 1.39 4.9 2.84 6.81 5.94l1.33 2.09C763 24 763 24 762 27q-.22 2.45-.32 4.89l-.24 5.8-.13 2.99L761 48h-1l-.01-2.06q-.07-4.69-.18-9.38l-.02-3.24c-.2-7.43-1.74-12.14-5.79-18.32z" fill="#C8C9CA"/><path d="M763 428h1q.33 3.84.62 7.69l.2 2.18c.31 4.23.28 7.39-1.82 11.13l-2 1c-.19-14.1-.19-14.1 1-21z" fill="#D8DBDA"/><path d="M487 406h1l1 31-2-1c-.76-3.47-.94-7.03-1.25-10.56l-.31-2.97c-.55-6.01-.28-10.71 1.56-16.47" fill="#EFF2F2"/><path d="M634 676h1l.11 2.75c.51 9.4 1.52 17.33 6.89 25.25-4.64-1.46-4.64-1.46-6.19-3.75L635 698l-1.07-2.62c-1.14-4.13-.94-7.53-.55-11.76l.17-2.23z" fill="#DDDFE0"/><path d="M810 445h1c.16 7.72-.33 15.32-1 23h-3v-3l-.07-1.91A58 58 0 0 1 809 446z" fill="#EEF1F3"/><path d="M764 407h1l1 11h1a703 703 0 0 1-.38 7.94l-.09 2.28c-.1 1.94-.31 3.86-.53 5.78l-2 1a138 138 0 0 1 0-28" fill="#F0F3F1"/><path d="M490 658h1l.26 2.05c1.13 7.16 1.13 7.16 3.68 10.45 4.5 2.2 9.12 2.84 14.06 3.5-3.45 1.96-5.91 2.3-9.9 1.67-3.84-1.23-6.54-3.61-9.1-6.67-1.53-3.83-.83-7.02 0-11" fill="#D8DADB"/><path d="M985 431h1c-.58 7.31-3.2 11.49-8.44 16.44-3.11 2.58-3.11 2.58-6.5 2.44L969 449a141 141 0 0 1 5.94-3.75c5.05-3.71 7.41-8.68 10.06-14.25" fill="#D9D9DB"/><path d="M713 674q14 .9 28 2c-2 2-2 2-4.11 2.27-7.67-.05-15.39-.56-22.89-2.27z" fill="#EAEDEB"/><path d="M480 609a885 885 0 0 1 16 14l-4 1-1.39-1.68-1.86-2.2-1.83-2.17c-1.91-1.94-3.5-2.8-5.92-3.95-1.25-2.12-1.25-2.12-2-4z" fill="#E6E8E8"/><path d="M471.01 456.9a395 395 0 0 1 7.1.05l5.9.05q.48 1.49 1 3-4.7.09-9.39.12l-2.69.05-2.58.02-2.38.03C466 460 466 460 464 458c2.71-.9 4.24-1.12 7.01-1.1" fill="#1C1F20"/><path d="m544 671 3 1v2l3 1c-.81 2.94-.81 2.94-2 6l-3 1v-2l-4-2 1.5-1.25C544 675 544 675 544 671" fill="#F5F1FA"/><path d="M812 478c3.12 3.12 2.86 6.71 3 11q-.25 3.89-.75 7.74C814 499 814 499 814 503l-3-1z" fill="#020505"/><path d="m545 672-1 4h-2v-2l-1.56 1c-3.28 1.35-5.92 1.26-9.44 1l-3-2 6.81-1.56 3.83-.88C542 671 542 671 545 672" fill="#E4E5E6"/><path d="M560 666v2l-2.08.77-2.73 1.04-2.71 1.02A14.6 14.6 0 0 0 547 675l-2-4a54 54 0 0 1 7.5-4.19l2.34-1.1C557 665 557 665 560 666" fill="#E1DFE4"/><path d="M442 479h2c-.72 6.39-1.8 12.68-3 19-2-1-2-1-2.75-2.62-.36-3.45.69-6.1 1.75-9.38q.57-1.96 1.12-3.94z" fill="#EAEDEC"/><path d="M768 457h16v3l-15 1z" fill="#1D1E1C"/><path d="m749.06 13 1.94 1-1 2h-15l-1-3a23.5 23.5 0 0 1 15.06 0" fill="#2A2A2C"/><path d="M470 454c7.04-.21 13.24-.08 20 2v1c-6.74.11-13.3-.3-20-1z" fill="#ECEFF0"/><path d="M959 400c5 2.35 8.94 6.32 13 10l-2 2-5.38-4.38-3.02-2.46C959 403 959 403 957 401z" fill="#DCDDDF"/><path d="M854 389a87 87 0 0 1-9.25 6.19l-2.7 1.6L840 398c.82-4.24 2.42-5.56 6-8 4.4-2.2 4.4-2.2 8-1" fill="#DBDCDE"/><path d="M892.14 377.73c5.35.03 9.8.51 14.86 2.27v1c-6.41.1-12.62-.26-19-1 2-2 2-2 4.14-2.27" fill="#EFEEF2"/><path d="M772 454c5.78-.24 10.51.13 16 2l-1 2-16-2z" fill="#EBEEEB"/><path d="M440 516h1a80 80 0 0 1 1 15h-2c-2-3-2-3-1.69-5.81L439 522l.56-3.38z" fill="#D3D6D4"/><path d="M760 445h1q.33 2.66.62 5.31l.36 2.99c.02 2.7.02 2.7-1.98 5.7l2 1-4 1z" fill="#CED1D0"/><path d="m511 11.81 2.12-.04C515 12 515 12 517 14c-1.81 1.81-4.61 1.38-7.06 1.56l-3.35.25-2.59.2 1-3c2.23-1.13 3.53-1.18 6-1.2" fill="#222"/><path d="M851 519c2.68 4.02 2.16 6.24 2 11l-3 1-1 3c-1.54-3.08-.37-5.35.44-8.62l.87-3.61z" fill="#D6D7D8"/><path d="M909 427c3.95.55 7.35 1.39 11 3l-1 4a273 273 0 0 1-6.05-2.83C911 430 911 430 909 427" fill="#ECEDF1"/><path d="M825 410c1 3 1 3 .11 4.9l-1.36 2.04-1.4 2.12c-1.4 2.02-2.82 4.01-4.35 5.94.27-6.55 2.81-10.07 7-15" fill="#E0DFE4"/><path d="M757 370c2.11 3.16 2.34 4.51 2.62 8.19l.23 2.73.15 2.08h-3l-.44-3.75A51 51 0 0 0 755 371z" fill="#20231F"/><path d="M565 662v8l-4-1 1-2-3-1v-2c3.75-2 3.75-2 6-2" fill="#ECECEE"/><path d="M501 342h2l-1.38 5.31-.77 2.99C500 353 500 353 498 356c-1.37-3.69-.6-5.71.94-9.25l1.15-2.7z" fill="#DEE1E2"/><path d="m473.81 455.38 2.1.17 5.1.44v1c-.48.05-.48.05-2.86.2l-3.78.25q-1.84.11-3.72.25c-3.27.27-6.43.73-9.65 1.3v-2c4.35-2.2 8.08-2.06 12.81-1.62" fill="#C8CACC"/><path d="M572 50c3.98 2.16 6.89 4.71 10 8l-1 2-11-8z" fill="#DEE0E1"/><path d="m516 9 1 3-13 1v-2c4.12-2 7.45-2.18 12-2" fill="#F1F1F1"/><path d="m901 424 10 2-2 4-2.31-.94q-2.82-1.1-5.69-2.06z" fill="#DBDCDC"/><path d="M752 342a70 70 0 0 1 2.06 7.69l.54 2.45.4 1.86-2 1-1.56-3.75-.88-2.11c-.64-2.46-.42-3.77.44-6.14z" fill="#DEE1DE"/><path d="m502 12 3 1-10 8c0-3 0-3 1.43-4.64l1.88-1.61 1.87-1.64z" fill="#D7D7D9"/><path d="M854 498h3l-1 12h-2z" fill="#E4E4E6"/><path d="M874 426c-1.15 3.45-2.32 4.38-5.06 6.69l-2.23 1.88L865 436l-1-3h2l.81-1.81c1.95-3.58 2.99-5.19 7.19-5.19" fill="#090E0C"/><path d="M856 453c2 4.01 2.46 5.66 2 10l-3 3z" fill="#CECFD1"/><path d="M761 373c2 3 2 3 1.75 5.5C762 381 762 381 760 384l-1-9h2z" fill="#E3E6E2"/><path d="m756 213 1 4h2a37 37 0 0 1-4 8c-1.37-4.52-.47-7.59 1-12" fill="#D4D6D9"/><path d="M688 662c2.92 1.07 4.78 1.78 7 4l-2 2-3-3-1 3 2 1h-3z" fill="#ECF0EC"/><path d="M754 640c2.96 2.81 5.44 5.18 7 9l-3 1c-1.72-3.3-3.29-6.33-4-10" fill="#EDEDEF"/><path d="m845 544 1 2a60 60 0 0 1-5 9c-.69-1.62-.69-1.62-1-4 2.33-5.67 2.33-5.67 5-7" fill="#EAEBEE"/><path d="M960 449h12l-1 2c-2.29.41-2.29.41-5.06.62l-2.79.23-2.15.15z" fill="#EDF0EE"/><path d="M764 438h1c.19 4.19-.07 7.24-2 11l-2 1c-.43-4.75 1.02-7.78 3-12" fill="#F0F2F3"/><path d="m950 445 10 3v2c-6.62-.75-6.62-.75-10-3z" fill="#DEDFE0"/><path d="M890 424h11v2l-9 1z" fill="#F2F3F4"/><path d="M504 332h2q-.38 2.22-.81 4.44l-.46 2.49L504 341l-3 1a43 43 0 0 1 3-10" fill="#EDEFF0"/><path d="m763 395 3 1c-.59 6.15-.59 6.15-1 8l-2 1z" fill="#F1F4F3"/><path d="M742 323c3 1 3 1 4.69 4.06L748 330l-3 3z" fill="#DADADB"/><path d="M732 250v3c-2.53 2.36-3.47 3-7 3 1.1-2.99 1.68-3.85 4.62-5.25z" fill="#EAEBEF"/><path d="M497 220h2l3 9h-3c-1.56-2.81-1.56-2.81-3-6z" fill="#D8DADB"/><path d="m612 696 3 1-4 7-3-1z" fill="#1E201F"/><path d="M710 691h2l1 10h-3z" fill="#EFF2F0"/><path d="m687 661 2 1-1 7 5-1 1 4-7-2z" fill="#D4D7D5"/><path d="M798 467c4.45 1.48 6.75 5.08 9 9v2c-3-1-3-1-4.5-3.81L801 471a83 83 0 0 0-3-4" fill="#1B1D1E"/><path d="M494 456v4l-10-2v-1c6.62-1 6.62-1 10-1" fill="#C1C3C3"/><path d="m702 679 5 5-2 4c-2.29-3.44-3-4.72-3-9" fill="#1B1B1E"/><path d="M489 654h2l-1 10c-2-1-2-1-2.75-2.75-.32-2.89.52-4.65 1.75-7.25" fill="#EFF1F1"/><path d="M747 11c3.69.5 5.6 1.1 8 4l-1 2-8-4z" fill="#E2E3E6"/><path d="m480 609 6 5-1 2c-2.62-1.05-3.79-1.65-5.25-4.12L479 610z" fill="#F1F4F1"/><path d="M440 489h2l-1 9c-2-1-2-1-2.75-2.81-.31-2.69.37-3.92 1.75-6.19" fill="#E3E6E4"/><path d="M782 458c6.52.62 6.52.62 8.94 2.56L792 462l-2.25-.56c-2.7-.43-4.2-.29-6.75.56z" fill="#0F100F"/><path d="m859 448 2 1-2 8h-2c-.12-3.38-.12-3.38 0-7z" fill="#E4E6E7"/><path d="m977 444 1 3c-1.69 1.56-1.69 1.56-4 3-2.75-.31-2.75-.31-5-1q3.94-2.6 8-5" fill="#D1D2D4"/><path d="M933 388c5.54.62 5.54.62 7.88 2.56L942 392l-2 1a135 135 0 0 1-7-3z" fill="#D7D7DB"/><path d="M704 677a24 24 0 0 1 4 4c-.25 2.25-.25 2.25-1 4-2.06-2.31-2.06-2.31-4-5z" fill="#E8E9ED"/><path d="m456 463 2 3-6 4-2-1z" fill="#202322"/><path d="M787 457c3.69.5 5.6 1.1 8 4l-2 1a96 96 0 0 1-6-3z" fill="#D5D8D5"/><path d="M814 435h1c.37 7.51.37 7.51-1.5 10l-1.5 1c.88-7.62.88-7.62 2-11" fill="#2D2E31"/><path d="m495 366 1 3h2l-1 5h-3z" fill="#222325"/><path d="m505 335 2 4c-1.38 3.75-1.38 3.75-3 7h-2z" fill="#2A2D2F"/><path d="M494 455c1.06 1.81 1.06 1.81 2 4l-1 3-7-2c3-1 3-1 6 0z" fill="#0D100D"/><path d="M880 381h9l-3 3c-3.19-.31-3.19-.31-6-1z" fill="#222223"/><path d="m720 254 3 1c-4.75 3.88-4.75 3.88-7 5 .31-1.88.31-1.88 1-4z" fill="#1C1E1E"/><path d="m537 673-1 3-8-1v-1c3.06-.54 5.89-1 9-1" fill="#DCDFDD"/><path d="M491 655c1.46 2.92 2.34 4.92 3 8l-3 2z" fill="#2B2D2E"/><path d="m762 614 3 1-5 5-1-3z" fill="#252726"/><path d="M922 384h8l-2 3-6-1z" fill="#D9D8DB"/><path d="M741 237c2.19.31 2.19.31 4 1l-5 4-2-2c1.25-1.56 1.25-1.56 3-3" fill="#262829"/><path d="M676 55c-1 3-1 3-3.06 4.19L671 60l-3-2c5.75-3 5.75-3 8-3" fill="#DCDDE0"/><path d="M494 20c1.21 3.62.54 4.64-1 8h-2c.75-5.75.75-5.75 3-8" fill="#E8E8EA"/></svg>