<svg style="background:transparent" version="1.1" xmlns="http://www.w3.org/2000/svg" viewBox="0 0 1248 704"><path d="M1047.27 120.27c7.96 6.21 13.94 13.24 16.5 23.2.54 6-2.13 10.5-5.8 15.05-5.5 5.82-10.15 9.47-18.35 9.85-8.47-.4-15.5-4.16-22.69-8.37-7.1-4.15-13.92-7.66-22.12-9.13l-2.42-.44L990 150l-2.24-.54c-12.5-2.1-25.6-1.13-36.99 4.67-1.77.87-1.77.87-3.77.87l-.75 1.87c-1.52 2.58-2.58 2.86-5.25 4.13-11.75 8.35-18.39 23.42-22 37-1.55 4.86-3.33 9.63-5.1 14.41a68 68 0 0 0-1.9 6.6c-2 6.24-4.18 11.61-8 17a138 138 0 0 0-1.88 3.86c-2.18 4.48-5.02 8.25-8.12 12.13l-2.44 3.12a60 60 0 0 1-8 7.38c-1.77 1.7-2.49 3.33-3.56 5.5-10.58 10.9-26.17 18.18-40 24a111 111 0 0 0 6.06 11 45 45 0 0 1 4.94 11l1.43 2.75c2.06 4.28 3.3 8.68 4.57 13.25l1.06 3.68.94 3.32 1 3.06c1.38 4.77 1.88 9.72 2.53 14.63.27 1.88.56 3.75.96 5.6 2.51 13.44 1.66 27.77 1.64 41.37v17.16l.01 3.13A85 85 0 0 1 864 436c-.15 3.53-.14 7.05-.14 10.58v3.08l.01 6.43v18.99c.01 5.4.4 10.56 1.13 15.92l-.07 3.75c-.1 7.6 1.54 15.11 4.07 22.25q.75 2.9 1.43 5.81c.91 3.7 1.88 7.3 3.13 10.87a90 90 0 0 1 2.97 11.21c.41 1.85.93 3.67 1.47 5.48a120 120 0 0 1 3.75 22.44c.25 2.2.25 2.2.74 4.15 1.6 6.37 1.65 13.23 1.44 19.77.07 2.27.07 2.27.53 5.4.65 4.68.9 9.33 1.1 14.05l.13 2.88c.4 9.65.4 19.28.31 28.94a64 64 0 0 0 10.2 3.33l2.97.73q3.05.75 6.1 1.46c7.58 1.9 15.48 4.33 20.73 10.48.68 2.75.68 2.75 0 6-9.59 12.3-29.04 13.61-43.4 15.43a474 474 0 0 1-55.6 3h-3.9c-41.83-.07-83.63-2.59-125.37-4.82-61.03-3.24-122.93-3.74-183.87 1.16q-5.88.45-11.78.86c-23.54 1.65-47 3.88-70.46 6.4l-6.2.66a1330 1330 0 0 0-43.63 5.25c-31.28 4.4-62.04 6.84-93.66 6.87l-8.02.02q-6.3.02-12.63-.04l-4.65-.02c-9.5 0-18.35-.46-25.54-7.43-1.42-1.66-1.42-1.66-3.29-4.34l-3 1-2-3 2-3-4-2 1.45-1.2c1.92-2.24 2.02-3.59 2.23-6.49l.2-2.45.12-1.86-2.45 1.27-3.24 1.66-3.2 1.66c-9.33 4.22-23.87 4.4-33.54 1.31A36 36 0 0 1 182 675l-2.03-1.68c-5.32-4.74-7.55-9.62-8.35-16.64 1.04-10.19 3.8-16.5 11.47-23.36A33 33 0 0 1 195 627l2.16-.7c4.02-1.18 6.82-1.28 10.84-.3 15.98-2.14 33.14-23.18 42.94-34.66q2.58-2.94 5.27-5.78.87-.9 1.76-1.87l3.5-3.68a54 54 0 0 0 7.53-10q1.97-2.05 4-4a293 293 0 0 0 5.41-7.19l1.6-1.82h2l.8-1.75a43 43 0 0 1 4.12-6.25l1.53-2 1.54-2 1.5-2.04a89 89 0 0 1 4.5-5.4 48 48 0 0 0 6-8.56l-2.44-.75c-9.92-3.48-17.72-8.3-25.56-15.25l-2.75-2.33c-5.58-4.83-9.62-8.78-12.25-15.67l-1-2.08c-2.56-5.25-4.02-10.52-5.35-16.2-.65-2.72-.65-2.72-1.78-6.04-1.04-3.2-1.44-6.34-1.87-9.68a80 80 0 0 0-2-7.13c-1.1-3.8-1.45-7.6-1.76-11.54-.24-2.33-.24-2.33-.73-4.2a40 40 0 0 1-.94-6.66l-.22-2.63-.23-2.78c-.52-5.88-1.06-11.59-2.56-17.3-4.75-18.74-5.17-38.55-5.56-57.76l-.12-3.49c.26-5.65 3.36-10.13 7.37-13.95 3.64-2.83 7.12-4.05 11.75-3.56 7.64 2 14.8 6.34 21.81 9.9a1305 1305 0 0 0 15.88 7.76c5.97 2.42 9.3 2.58 15.31.34 2.96-.74 5.95-1.37 8.93-2 8.42-1.8 8.42-1.8 12.36-3.04 6.37-1.65 12.92-2.08 19.46-2.73 15.56-1.7 15.56-1.7 21-7.55l1.71-1.83a54 54 0 0 0 3.85-5.29l1.7-2.56h2c.11-.29.11-.29.76-1.76a26 26 0 0 1 4.78-6.06l2.11-2.12 2.21-2.19q1.07-1.1 2.2-2.2l2.11-2.12 1.93-1.92c3.62-3.13 6.87-4.25 11.74-4.04 4.46.85 7.23 2.98 10.15 6.41 2.76 4.83 4.94 9.83 7 15l1.22 3a137 137 0 0 1 5.12 17.34A97 97 0 0 0 432 351a87 87 0 0 1 3 14l1 2-1 2a445 445 0 0 0 19-9l4-2 2.43-1.22c7.57-3.78 7.57-3.78 9.6-4.76a100 100 0 0 0 6.65-3.84q4.97-3.01 10.07-5.8a82 82 0 0 0 7.43-4.57c2.82-1.8 2.82-1.8 5.7-2.75 3.2-1.09 5.68-2.66 8.5-4.5 4.2-2.5 8.6-4.59 12.98-6.7A58 58 0 0 0 531 318c2.56-1.4 5.18-2.67 7.81-3.94a225 225 0 0 0 17.87-9.69 54 54 0 0 1 8.63-4.25 67 67 0 0 0 7.94-4.12c2.52-1.45 5.13-2.72 7.75-4l4-2 10-5 1.93-.97 3.96-1.96c3.31-1.64 6.56-3.3 9.73-5.2A49 49 0 0 1 620 273l2.87-1.44a61 61 0 0 1 7-3 67 67 0 0 0 8.31-3.69A28 28 0 0 1 647 262l1.84-.93a40 40 0 0 1 6.97-2.57l2.66-.78 6.28-1.79q3.04-.87 6.06-1.87 5.34-1.77 10.75-3.34a390 390 0 0 0 5.81-1.79c4.1-1.06 8.2-1.73 12.37-2.37 1.73-.3 3.46-.6 5.16-1.05 6.95-1.77 13.82-1.96 20.97-2.14l3.65-.12q5.24-.15 10.48-.25l2.8-.1c7.9-.18 15.5 1 23.26 2.28l2.06.34c8.94 1.45 17.74 3.13 26.35 6.04 5.85 1.9 10.76 1.7 16.4-.88L814 249l5-1.94a48 48 0 0 0 11-6.06l2.68-1.75L836 237l2.57-1.72A58 58 0 0 0 854 220l3.12-3.94A63 63 0 0 0 867 196l1.06-3.57c.52-1.9 1.01-3.8 1.38-5.75.64-3.1 1.51-6.09 2.43-9.12l1-3.3A71 71 0 0 1 877 165l2-5c5.22-11.04 5.22-11.04 8-15h2l.75-1.63c1.54-2.94 3.38-5.63 5.25-8.37l2-3h2l.75-1.8c1.43-2.54 2.85-3.72 5.18-5.45A317 317 0 0 1 910 121l2.54-1.99c39.58-30.2 94.9-26.4 134.73 1.26" fill="#111311"/><path d="M1047.27 120.27c7.96 6.21 13.94 13.24 16.5 23.2.54 6-2.13 10.5-5.8 15.05-5.5 5.82-10.15 9.47-18.35 9.85-8.47-.4-15.5-4.16-22.69-8.37-7.1-4.15-13.92-7.66-22.12-9.13l-2.42-.44L990 150l-2.24-.54c-12.5-2.1-25.6-1.13-36.99 4.67-1.77.87-1.77.87-3.77.87l-.75 1.87c-1.52 2.58-2.58 2.86-5.25 4.13-11.75 8.35-18.39 23.42-22 37-1.55 4.86-3.33 9.63-5.1 14.41a68 68 0 0 0-1.9 6.6c-2 6.24-4.18 11.61-8 17a138 138 0 0 0-1.88 3.86c-2.18 4.48-5.02 8.25-8.12 12.13l-2.44 3.12a60 60 0 0 1-8 7.38c-1.77 1.7-2.49 3.33-3.56 5.5-10.58 10.9-26.17 18.18-40 24a111 111 0 0 0 6.06 11 45 45 0 0 1 4.94 11l1.43 2.75c2.06 4.28 3.3 8.68 4.57 13.25l1.06 3.68.94 3.32 1 3.06c1.38 4.77 1.88 9.72 2.53 14.63.27 1.88.56 3.75.96 5.6 2.51 13.44 1.66 27.77 1.64 41.37v17.16l.01 3.13A85 85 0 0 1 864 436c-.15 3.53-.14 7.05-.14 10.58v3.08l.01 6.43v18.99c.01 5.4.4 10.56 1.13 15.92l-.07 3.75c-.1 7.6 1.54 15.11 4.07 22.25q.75 2.9 1.43 5.81c.91 3.7 1.88 7.3 3.13 10.87a90 90 0 0 1 2.97 11.21c.41 1.85.93 3.67 1.47 5.48a120 120 0 0 1 3.75 22.44c.25 2.2.25 2.2.74 4.15 1.6 6.37 1.65 13.23 1.44 19.77.07 2.27.07 2.27.53 5.4.65 4.68.9 9.33 1.1 14.05l.13 2.88c.4 9.65.4 19.28.31 28.94a64 64 0 0 0 10.2 3.33l2.97.73q3.05.75 6.1 1.46c7.58 1.9 15.48 4.33 20.73 10.48.68 2.75.68 2.75 0 6-9.59 12.3-29.04 13.61-43.4 15.43a474 474 0 0 1-55.6 3h-3.9c-41.83-.07-83.63-2.59-125.37-4.82-61.03-3.24-122.93-3.74-183.87 1.16q-5.88.45-11.78.86a1955 1955 0 0 0-74.58 6.84 2090 2090 0 0 0-46.68 5.47 4106 4106 0 0 1-21.5 2.76A476 476 0 0 1 281 704c3.12-2.09 5.91-3.1 9.43-4.38 9.35-3.58 17.63-8.8 26.1-14.08q4.53-2.82 9.11-5.6 3.3-2 6.58-4.02a4577 4577 0 0 1 16.6-10.1q8.94-5.45 17.86-10.95 5.36-3.3 10.77-6.53a1191 1191 0 0 0 77.33-50.36l2.18-1.52q1.98-1.42 3.9-2.92c4.02-3.1 7.11-4.28 12.26-4.98 48.3-7.75 96.2-32.42 138.94-55.53 3.2-1.7 6.44-3.3 9.7-4.9a1145 1145 0 0 0 19.74-10.07l2.97-1.54a406 406 0 0 0 19.66-10.93c3.34-1.95 4.87-2.59 8.87-2.59l.7 1.76c12.75 32.05 28.12 58.9 55.4 80.85 21.6 17.74 21.6 17.74 24.9 31.4.3 4.35.24 8.63 0 13l-2.57.47c-8.44 1.73-14.74 3.72-20.8 9.95-3.92 6.17-4.47 12.41-3.63 19.57 2.14 4.91 4.94 6.9 9.61 9.14 8.2 2.95 15.65 3.16 24.32 3.11l3.71.02c10.48-.02 20.55-.83 29.01-7.6 11.57-11.7 12.78-33.24 12.76-48.82l-.02-2.45q-.02-3.7.02-7.4c.01-8.8-.62-16.75-2.87-25.3-.54-2.7-.54-2.7.46-5.7 13.04 9 21.54 16.24 28 31l1.1 2.42c3.26 8.62 2.15 18.51 1.9 27.58l-2.35.48c-9 2.01-16.39 4.53-21.65 12.52l-1.75 2.5c-2.18 6.08-2.5 12.8-.4 18.98 3.34 6.04 8 8.27 14.4 10.2 14.28 3.26 32.28 3.3 45.24-4.1 6.25-4.44 10.43-9.53 12.05-17.12.6-4.5.62-8.95.62-13.49l.02-2.96v-12.79c-.04-25.73-1.09-50.93-6.18-76.22l-.46-2.3c-2.06-10.03-4.98-19.77-8.08-29.5-5.87-18.64-5.6-37.23-5.5-56.58l.03-11.16.1-31.7a6331 6331 0 0 0 .1-26.84c.1-18.82-.27-37.4-4.94-55.74l-.8-3.2c-3.4-13.17-8.6-24.79-15.2-36.64l-1.28-2.32-1.15-2.06C837 294 837 294 837 290l3.07-1.5c32.11-15.8 56.9-36.65 68.78-71.42a726 726 0 0 0 4.8-15.22c6.73-21.8 16.91-39.95 37.27-51.53 15.34-7.42 32.95-7.42 48.91-1.95 8.14 3.03 15.85 7.13 23.38 11.46 7.36 4.1 13.38 5.31 21.8 4.16 6.53-2.22 10.86-6.93 14-13 1.15-6.95.42-13.04-3.4-18.98-11.65-14.67-32.23-21.78-49.6-27.02l-2.38-.72c-24.35-6.7-52.87-3.57-74.89 8.56q-1.88 1.06-3.74 2.16l-1.85 1.06c-28.29 16.48-41.78 42.02-50.39 72.74C868 205.77 860.7 218.76 848 231l-2.46 2.48c-10.86 10.46-29.76 22.97-45.37 22.73-4.9-.48-9.66-1.85-14.42-3.03L772 250l-2.5-.58c-21.92-4.87-47.69-4.5-69.5.58l-4.16.81c-34.64 6.84-67.6 21.24-98.93 37.22a1077 1077 0 0 1-11.5 5.76q-5.76 2.9-11.54 5.73a751 751 0 0 0-30.06 15.65 1302 1302 0 0 1-16.06 8.7l-1.9 1-3.85 2.03a1035 1035 0 0 0-28.5 15.6C441.78 372 441.78 372 433 372l-.43-1.98a495 495 0 0 0-9.57-37.96l-.94-3.17a83 83 0 0 0-7.79-17.62C413 309 413 309 412 306c-4.65-2.22-8.08-2.42-13-1-10.8 6.35-19.16 17.67-26.74 27.43-6.64 7.54-11.38 9.55-21.45 10.7l-7 .94-3.49.46c-4.7.66-9.36 1.52-14 2.47l-2.45.5a234 234 0 0 0-18.6 4.76c-6.78 1.53-11.28.72-17.27-2.58l-4.19-2.17-2.3-1.2a750 750 0 0 0-14.45-7.3l-2.9-1.5c-5.69-2.8-10.77-4.79-17.16-3.5a14.5 14.5 0 0 0-7.15 7.47c-1.19 4.9-1.15 9.57-1.1 14.58l.01 3.2c.2 16.58 1.61 33.58 5.74 49.67 1.4 5.78 1.93 11.42 2.37 17.32 2.2 27.72 7.4 66.77 29.63 85.93 8.98 6.75 19.72 11.74 30.5 14.82a172 172 0 0 1-13.64 18.35q-3.96 4.8-7.86 9.65l-3.36 4.13-5.66 6.98a330 330 0 0 1-13.15 15.3 241 241 0 0 0-3.7 4.2 340 340 0 0 1-16.98 18.03l-3.52 3.58c-21.07 21.6-21.07 21.6-34.26 22.15-5.87.33-10.58.98-15.87 3.63l-1.82.88c-6.12 3.57-8.97 9.6-11.18 16.12-1.05 6.5-.73 12.57 2.68 18.32 4.3 5.46 10.57 8.46 17.32 9.68 14.17 1.3 24.97-1.59 37.2-9.09 1.8-.9 1.8-.9 4.8-.9l-1.48 2.55c-1.68 3.78-1.93 6.33-1.9 10.44l-.02 3.56c.54 4.7 1.84 8 5.34 11.23A56 56 0 0 0 256 703v1c-6.65.72-11.45-1.37-17-5-2-1.9-3.42-3.73-5-6l-3 1-2-3 2-3-4-2 1.45-1.2c1.92-2.24 2.02-3.59 2.23-6.49l.2-2.45.12-1.86-2.45 1.27-3.24 1.66-3.2 1.66c-9.33 4.22-23.87 4.4-33.54 1.31A36 36 0 0 1 182 675l-2.03-1.68c-5.32-4.74-7.55-9.62-8.35-16.64 1.04-10.19 3.8-16.5 11.47-23.36A33 33 0 0 1 195 627l2.16-.7c4.02-1.18 6.82-1.28 10.84-.3 15.98-2.14 33.14-23.18 42.94-34.66q2.58-2.94 5.27-5.78.87-.9 1.76-1.87l3.5-3.68a54 54 0 0 0 7.53-10q1.97-2.05 4-4a293 293 0 0 0 5.41-7.19l1.6-1.82h2l.8-1.75a43 43 0 0 1 4.12-6.25l1.53-2 1.54-2 1.5-2.04a89 89 0 0 1 4.5-5.4 48 48 0 0 0 6-8.56l-2.44-.75c-9.92-3.48-17.72-8.3-25.56-15.25l-2.75-2.33c-5.58-4.83-9.62-8.78-12.25-15.67l-1-2.08c-2.56-5.25-4.02-10.52-5.35-16.2-.65-2.72-.65-2.72-1.78-6.04-1.04-3.2-1.44-6.34-1.87-9.68a80 80 0 0 0-2-7.13c-1.1-3.8-1.45-7.6-1.76-11.54-.24-2.33-.24-2.33-.73-4.2a40 40 0 0 1-.94-6.66l-.22-2.63-.23-2.78c-.52-5.88-1.06-11.59-2.56-17.3-4.75-18.74-5.17-38.55-5.56-57.76l-.12-3.49c.26-5.65 3.36-10.13 7.37-13.95 3.64-2.83 7.12-4.05 11.75-3.56 7.64 2 14.8 6.34 21.81 9.9a1305 1305 0 0 0 15.88 7.76c5.97 2.42 9.3 2.58 15.31.34 2.96-.74 5.95-1.37 8.93-2 8.42-1.8 8.42-1.8 12.36-3.04 6.37-1.65 12.92-2.08 19.46-2.73 15.56-1.7 15.56-1.7 21-7.55l1.71-1.83a54 54 0 0 0 3.85-5.29l1.7-2.56h2c.11-.29.11-.29.76-1.76a26 26 0 0 1 4.78-6.06l2.11-2.12 2.21-2.19q1.07-1.1 2.2-2.2l2.11-2.12 1.93-1.92c3.62-3.13 6.87-4.25 11.74-4.04 4.46.85 7.23 2.98 10.15 6.41 2.76 4.83 4.94 9.83 7 15l1.22 3a137 137 0 0 1 5.12 17.34A97 97 0 0 0 432 351a87 87 0 0 1 3 14l1 2-1 2a445 445 0 0 0 19-9l4-2 2.43-1.22c7.57-3.78 7.57-3.78 9.6-4.76a100 100 0 0 0 6.65-3.84q4.97-3.01 10.07-5.8a82 82 0 0 0 7.43-4.57c2.82-1.8 2.82-1.8 5.7-2.75 3.2-1.09 5.68-2.66 8.5-4.5 4.2-2.5 8.6-4.59 12.98-6.7A58 58 0 0 0 531 318c2.56-1.4 5.18-2.67 7.81-3.94a225 225 0 0 0 17.87-9.69 54 54 0 0 1 8.63-4.25 67 67 0 0 0 7.94-4.12c2.52-1.45 5.13-2.72 7.75-4l4-2 10-5 1.93-.97 3.96-1.96c3.31-1.64 6.56-3.3 9.73-5.2A49 49 0 0 1 620 273l2.87-1.44a61 61 0 0 1 7-3 67 67 0 0 0 8.31-3.69A28 28 0 0 1 647 262l1.84-.93a40 40 0 0 1 6.97-2.57l2.66-.78 6.28-1.79q3.04-.87 6.06-1.87 5.34-1.77 10.75-3.34a390 390 0 0 0 5.81-1.79c4.1-1.06 8.2-1.73 12.37-2.37 1.73-.3 3.46-.6 5.16-1.05 6.95-1.77 13.82-1.96 20.97-2.14l3.65-.12q5.24-.15 10.48-.25l2.8-.1c7.9-.18 15.5 1 23.26 2.28l2.06.34c8.94 1.45 17.74 3.13 26.35 6.04 5.85 1.9 10.76 1.7 16.4-.88L814 249l5-1.94a48 48 0 0 0 11-6.06l2.68-1.75L836 237l2.57-1.72A58 58 0 0 0 854 220l3.12-3.94A63 63 0 0 0 867 196l1.06-3.57c.52-1.9 1.01-3.8 1.38-5.75.64-3.1 1.51-6.09 2.43-9.12l1-3.3A71 71 0 0 1 877 165l2-5c5.22-11.04 5.22-11.04 8-15h2l.75-1.63c1.54-2.94 3.38-5.63 5.25-8.37l2-3h2l.75-1.8c1.43-2.54 2.85-3.72 5.18-5.45A317 317 0 0 1 910 121l2.54-1.99c39.58-30.2 94.9-26.4 134.73 1.26" fill="#B9BCB9"/><path d="m673 503 .7 1.77c12.75 32.05 28.12 58.89 55.39 80.84C750.7 603.36 750.7 603.36 754 617c.3 4.36.25 8.64 0 13l-2.56.48-3.44.71-3.38.67c-3.33 1.05-4.41 1.73-6.98 3.79-6.37 4.17-14.61 2.34-21.83 1.73q-4.58-.35-9.17-.67l-2.47-.18c-25.39-1.78-50.86-1.77-76.29-1.78h-2.71c-26-.03-51.95.39-77.92 1.63l-2.03.09a2424 2424 0 0 0-32.24 1.76c-14.37.85-28.7 1.76-42.98 3.53-3.51.42-7.03.77-10.55 1.13-29.95 3.12-59.8 6.83-89.45 12.11 1.2-3.6 1.93-3.83 5.14-5.64l2.65-1.53 2.9-1.64c25.51-14.76 50.02-31.22 74.1-48.2l2.17-1.53q1.98-1.41 3.9-2.91c4.03-3.11 7.12-4.28 12.26-4.99 48.29-7.75 96.2-32.41 138.94-55.53 3.2-1.7 6.44-3.3 9.69-4.91a1145 1145 0 0 0 19.75-10.06l2.97-1.54a397 397 0 0 0 19.66-10.93c3.34-1.95 4.88-2.59 8.87-2.59" fill="#ECEEEC"/><path d="M1047.27 120.27c7.96 6.21 13.94 13.24 16.5 23.2.54 6-2.13 10.5-5.8 15.05-5.5 5.82-10.15 9.47-18.35 9.85-8.47-.4-15.5-4.16-22.69-8.37-7.1-4.15-13.92-7.66-22.12-9.13l-2.42-.44L990 150l-2.24-.54c-12.5-2.1-25.6-1.13-36.99 4.67-1.77.87-1.77.87-3.77.87l-.75 1.87c-1.52 2.58-2.58 2.86-5.25 4.13-11.75 8.35-18.39 23.42-22 37-1.55 4.86-3.33 9.63-5.1 14.41a68 68 0 0 0-1.9 6.6c-2 6.24-4.18 11.61-8 17a138 138 0 0 0-1.88 3.86c-2.18 4.48-5.02 8.25-8.12 12.13l-2.44 3.12a60 60 0 0 1-8 7.38c-1.77 1.7-2.49 3.33-3.56 5.5-10.58 10.9-26.17 18.18-40 24a111 111 0 0 0 6.06 11 45 45 0 0 1 4.94 11l1.43 2.75c2.06 4.28 3.3 8.68 4.57 13.25l1.06 3.68.94 3.32 1 3.06c1.38 4.77 1.88 9.72 2.53 14.63.27 1.88.56 3.75.96 5.6 2.51 13.44 1.66 27.77 1.64 41.37v17.16l.01 3.13A85 85 0 0 1 864 436c-.15 3.53-.14 7.05-.14 10.58v3.08l.01 6.43v18.99c.01 5.4.4 10.56 1.13 15.92l-.07 3.75c-.1 7.6 1.54 15.11 4.07 22.25q.75 2.9 1.43 5.81c.91 3.7 1.88 7.3 3.13 10.87a90 90 0 0 1 2.97 11.21c.41 1.85.93 3.67 1.47 5.48a120 120 0 0 1 3.75 22.44c.25 2.2.25 2.2.74 4.15 1.6 6.37 1.65 13.23 1.44 19.77.07 2.27.07 2.27.53 5.4.65 4.68.9 9.33 1.1 14.05l.13 2.88c.4 9.65.4 19.28.31 28.94a64 64 0 0 0 10.2 3.33l2.97.73q3.05.75 6.1 1.46c7.58 1.9 15.48 4.33 20.73 10.48.68 2.75.68 2.75 0 6-9.59 12.3-29.04 13.61-43.4 15.43a474 474 0 0 1-55.6 3h-3.9c-41.83-.07-83.63-2.59-125.37-4.82-61.03-3.24-122.93-3.74-183.87 1.16q-5.88.45-11.78.86c-41.65 2.92-83.16 7.56-124.6 12.6l-4.6.56q-9.98 1.2-19.95 2.45l-6.19.77q-3.75.46-7.49.95A179 179 0 0 1 314 704a20 20 0 0 1 8.38-2.57l2.57-.22 2.73-.2q2.85-.27 5.7-.5l2.87-.26q5.88-.55 11.75-1.25l3.75-.44c3.3-.4 6.57-.94 9.85-1.47 8.62-1.33 17.27-2.25 25.94-3.19l5.32-.58q6.97-.75 13.93-1.52 5.63-.6 11.25-1.22 15.28-1.68 30.55-3.32l4.95-.54 7.61-.82 2.3-.25c6.4-.68 12.8-1.08 19.23-1.4 3.32-.25 3.32-.25 5.71-.74 9.71-1.9 19.92-1.93 29.8-2.58l2.11-.14c29.2-1.9 58.38-2.16 87.63-2.1h3.17c34.32.04 68.58.53 102.85 2.61 17.3 1.04 34.57 2 51.9 2.41l3.3.08 2.72.05c2.54.13 5 .36 7.53.65 7 .73 14.02.71 21.06.74l2.23.02q8.34.05 16.68.06h2.47c23.91.04 47.53-.15 71.16-4.3q1.46-.26 3-.5c8.73-1.52 17.58-3.36 25-8.5l1-2h2c-.42-2.74-.76-4.6-2-7-6.45-3.92-13.39-5.75-20.63-7.7l-3.35-.93c-5-1.38-9.9-2.59-15.02-3.38l-.08-3.4q-.14-6.3-.3-12.56l-.12-5.43-.19-7.8q-.01-1.22-.05-2.45c-.1-3.93-.43-7.52-1.26-11.36q-.25-3.1-.4-6.2c-.88-16.16-2.4-31.92-5.6-47.8l-.46-2.3c-2.06-10.03-4.98-19.77-8.08-29.5-5.87-18.64-5.6-37.23-5.5-56.58l.03-11.16.1-31.7a6331 6331 0 0 0 .1-26.84c.1-18.82-.27-37.4-4.94-55.74l-.8-3.2c-3.4-13.17-8.6-24.79-15.2-36.64l-1.28-2.32-1.15-2.06C837 294 837 294 837 290l3.07-1.5c32.11-15.8 56.9-36.65 68.78-71.42a726 726 0 0 0 4.8-15.22c6.73-21.8 16.91-39.95 37.27-51.53 15.34-7.42 32.95-7.42 48.91-1.95 8.14 3.03 15.85 7.13 23.38 11.46 7.36 4.1 13.38 5.31 21.8 4.16 6.53-2.22 10.86-6.93 14-13 1.15-6.95.42-13.04-3.4-18.98-11.65-14.67-32.23-21.78-49.6-27.02l-2.38-.72c-24.35-6.7-52.87-3.57-74.89 8.56q-1.88 1.06-3.74 2.16l-1.85 1.06c-28.29 16.48-41.78 42.02-50.39 72.74C868 205.77 860.7 218.76 848 231l-2.46 2.48c-10.86 10.46-29.76 22.97-45.37 22.73-4.9-.48-9.66-1.85-14.42-3.03L772 250l-2.5-.58c-21.92-4.87-47.69-4.5-69.5.58l-4.16.81c-34.64 6.84-67.6 21.24-98.93 37.22a1077 1077 0 0 1-11.5 5.76q-5.76 2.9-11.54 5.73a751 751 0 0 0-30.06 15.65 1302 1302 0 0 1-16.06 8.7l-1.9 1-3.85 2.03a1035 1035 0 0 0-28.5 15.6C441.78 372 441.78 372 433 372l-.43-1.98a495 495 0 0 0-9.57-37.96l-.94-3.17a83 83 0 0 0-7.79-17.62C413 309 413 309 412 306c-4.65-2.22-8.08-2.42-13-1-10.8 6.35-19.16 17.67-26.74 27.43-6.64 7.54-11.38 9.55-21.45 10.7l-7 .94-3.49.46c-4.7.66-9.36 1.52-14 2.47l-2.45.5a234 234 0 0 0-18.6 4.76c-6.78 1.53-11.28.72-17.27-2.58l-4.19-2.17-2.3-1.2a750 750 0 0 0-14.45-7.3l-2.9-1.5c-5.69-2.8-10.77-4.79-17.16-3.5a14.5 14.5 0 0 0-7.15 7.47c-1.19 4.9-1.15 9.57-1.1 14.58l.01 3.2c.2 16.58 1.61 33.58 5.74 49.67 1.4 5.78 1.93 11.42 2.37 17.32 2.2 27.72 7.4 66.77 29.63 85.93 8.98 6.75 19.72 11.74 30.5 14.82a172 172 0 0 1-13.64 18.35q-3.96 4.8-7.86 9.65l-3.36 4.13-5.66 6.98a330 330 0 0 1-13.15 15.3 241 241 0 0 0-3.7 4.2 340 340 0 0 1-16.98 18.03l-3.52 3.58c-21.07 21.6-21.07 21.6-34.26 22.15-5.87.33-10.58.98-15.87 3.63l-1.82.88c-6.12 3.57-8.97 9.6-11.18 16.12-1.05 6.5-.73 12.57 2.68 18.32 4.3 5.46 10.57 8.46 17.32 9.68 14.17 1.3 24.97-1.59 37.2-9.09 1.8-.9 1.8-.9 4.8-.9l-1.48 2.55c-1.68 3.78-1.93 6.33-1.9 10.44l-.02 3.56c.54 4.7 1.84 8 5.34 11.23A56 56 0 0 0 256 703v1c-6.65.72-11.45-1.37-17-5-2-1.9-3.42-3.73-5-6l-3 1-2-3 2-3-4-2 1.45-1.2c1.92-2.24 2.02-3.59 2.23-6.49l.2-2.45.12-1.86-2.45 1.27-3.24 1.66-3.2 1.66c-9.33 4.22-23.87 4.4-33.54 1.31A36 36 0 0 1 182 675l-2.03-1.68c-5.32-4.74-7.55-9.62-8.35-16.64 1.04-10.19 3.8-16.5 11.47-23.36A33 33 0 0 1 195 627l2.16-.7c4.02-1.18 6.82-1.28 10.84-.3 15.98-2.14 33.14-23.18 42.94-34.66q2.58-2.94 5.27-5.78.87-.9 1.76-1.87l3.5-3.68a54 54 0 0 0 7.53-10q1.97-2.05 4-4a293 293 0 0 0 5.41-7.19l1.6-1.82h2l.8-1.75a43 43 0 0 1 4.12-6.25l1.53-2 1.54-2 1.5-2.04a89 89 0 0 1 4.5-5.4 48 48 0 0 0 6-8.56l-2.44-.75c-9.92-3.48-17.72-8.3-25.56-15.25l-2.75-2.33c-5.58-4.83-9.62-8.78-12.25-15.67l-1-2.08c-2.56-5.25-4.02-10.52-5.35-16.2-.65-2.72-.65-2.72-1.78-6.04-1.04-3.2-1.44-6.34-1.87-9.68a80 80 0 0 0-2-7.13c-1.1-3.8-1.45-7.6-1.76-11.54-.24-2.33-.24-2.33-.73-4.2a40 40 0 0 1-.94-6.66l-.22-2.63-.23-2.78c-.52-5.88-1.06-11.59-2.56-17.3-4.75-18.74-5.17-38.55-5.56-57.76l-.12-3.49c.26-5.65 3.36-10.13 7.37-13.95 3.64-2.83 7.12-4.05 11.75-3.56 7.64 2 14.8 6.34 21.81 9.9a1305 1305 0 0 0 15.88 7.76c5.97 2.42 9.3 2.58 15.31.34 2.96-.74 5.95-1.37 8.93-2 8.42-1.8 8.42-1.8 12.36-3.04 6.37-1.65 12.92-2.08 19.46-2.73 15.56-1.7 15.56-1.7 21-7.55l1.71-1.83a54 54 0 0 0 3.85-5.29l1.7-2.56h2c.11-.29.11-.29.76-1.76a26 26 0 0 1 4.78-6.06l2.11-2.12 2.21-2.19q1.07-1.1 2.2-2.2l2.11-2.12 1.93-1.92c3.62-3.13 6.87-4.25 11.74-4.04 4.46.85 7.23 2.98 10.15 6.41 2.76 4.83 4.94 9.83 7 15l1.22 3a137 137 0 0 1 5.12 17.34A97 97 0 0 0 432 351a87 87 0 0 1 3 14l1 2-1 2a445 445 0 0 0 19-9l4-2 2.43-1.22c7.57-3.78 7.57-3.78 9.6-4.76a100 100 0 0 0 6.65-3.84q4.97-3.01 10.07-5.8a82 82 0 0 0 7.43-4.57c2.82-1.8 2.82-1.8 5.7-2.75 3.2-1.09 5.68-2.66 8.5-4.5 4.2-2.5 8.6-4.59 12.98-6.7A58 58 0 0 0 531 318c2.56-1.4 5.18-2.67 7.81-3.94a225 225 0 0 0 17.87-9.69 54 54 0 0 1 8.63-4.25 67 67 0 0 0 7.94-4.12c2.52-1.45 5.13-2.72 7.75-4l4-2 10-5 1.93-.97 3.96-1.96c3.31-1.64 6.56-3.3 9.73-5.2A49 49 0 0 1 620 273l2.87-1.44a61 61 0 0 1 7-3 67 67 0 0 0 8.31-3.69A28 28 0 0 1 647 262l1.84-.93a40 40 0 0 1 6.97-2.57l2.66-.78 6.28-1.79q3.04-.87 6.06-1.87 5.34-1.77 10.75-3.34a390 390 0 0 0 5.81-1.79c4.1-1.06 8.2-1.73 12.37-2.37 1.73-.3 3.46-.6 5.16-1.05 6.95-1.77 13.82-1.96 20.97-2.14l3.65-.12q5.24-.15 10.48-.25l2.8-.1c7.9-.18 15.5 1 23.26 2.28l2.06.34c8.94 1.45 17.74 3.13 26.35 6.04 5.85 1.9 10.76 1.7 16.4-.88L814 249l5-1.94a48 48 0 0 0 11-6.06l2.68-1.75L836 237l2.57-1.72A58 58 0 0 0 854 220l3.12-3.94A63 63 0 0 0 867 196l1.06-3.57c.52-1.9 1.01-3.8 1.38-5.75.64-3.1 1.51-6.09 2.43-9.12l1-3.3A71 71 0 0 1 877 165l2-5c5.22-11.04 5.22-11.04 8-15h2l.75-1.63c1.54-2.94 3.38-5.63 5.25-8.37l2-3h2l.75-1.8c1.43-2.54 2.85-3.72 5.18-5.45A317 317 0 0 1 910 121l2.54-1.99c39.58-30.2 94.9-26.4 134.73 1.26" fill="#E6E7E8"/><path d="M409 304c12.69 11 15.78 30.58 20 46l.76 2.72c3.69 13.38 3.69 13.38 2.24 17.28v-3h-3v10a139 139 0 0 1-5-5v-2l-3-1v-2l-2.26-.83a29 29 0 0 1-6.55-3.92C400.61 354.41 386.5 351.66 373 349c-.12-5.75-.12-5.75 1-8h2l.72-2.01a90 90 0 0 1 5.78-10.8l1.22-2.1q1.57-2.59 3.28-5.09h2l-2-7 4.75-4.38 2.67-2.46c4.62-3.87 8.65-5.36 14.58-3.16" fill="#232421"/><path d="M250 333v5l1.69.08c10.87.81 18.55 6.81 27.31 12.92l2.73 1.86c6.02 4.32 6.02 4.32 7.33 8.58L289 364c-3.75 3-3.75 3-6 3v2c-1.64 1.59-1.64 1.59-3.81 3.38a32 32 0 0 0-5.83 5.85L272 380h-2l-.79 1.7a53 53 0 0 1-4.65 7.05A47 47 0 0 0 258 402l-1.56 3c-1.74 3.63-2.56 7.07-3.44 11-5.11-4.6-6.17-9.17-7.29-15.83l-.66-3.92-.67-4.06-.7-4.13q-.85-5.02-1.68-10.06h-1l-1 5h-1a299 299 0 0 1-1.25-26.44l-.06-3.12c-.03-6.68.34-11.92 4.81-17.22 4.17-3.22 4.17-3.22 7.5-3.22" fill="#282926"/><path d="M803 575c16.55 8.64 25.06 20.02 31.16 37.28 1.08 4.78 1.06 9.27.96 14.16l-.02 2.79-.1 6.77-2.34.48c-6.05 1.35-10.97 2.83-16.04 6.43C815 644 815 644 812 645q-3.53-.9-7-2c-.13-7.46-.13-7.46.49-10.12.66-3.73.69-7.41.71-11.19l.02-2.43.02-5.1q.02-3.83.07-7.67c.06-8.97-.45-17.09-2.66-25.82C803 578 803 578 803 575" fill="#ECEEEF"/><path d="m373.88 557.2 2.12.8c-3.29 7.87-11.52 13.66-17.87 19.09a178 178 0 0 0-7.63 7.4 181 181 0 0 1-11.48 10.7c-2.44 2.18-4.72 4.49-7.02 6.8a175 175 0 0 1-10.82 10.1 299 299 0 0 0-6.46 5.86 299 299 0 0 1-16.08 13.87c-2.6 2.16-5.1 4.39-7.58 6.68-17.13 15.62-17.13 15.62-24.5 15.92l-2.58.12-2.67.09-2.7.12q-3.3.14-6.6.25c3.92-4.1 8.13-7.7 12.55-11.25l2.14-1.73a471 471 0 0 1 15.5-11.9 331 331 0 0 0 11.17-8.95q3.6-2.96 7.25-5.85c5.34-4.25 10.58-8.61 15.84-12.96q6.9-5.69 13.97-11.17c4.91-3.81 9.57-7.81 14.15-12.01 3.4-3.05 6.92-5.9 10.48-8.75a220 220 0 0 0 6.35-5.47l1.74-1.55q1.7-1.5 3.34-3.04c3.87-3.41 3.87-3.41 7.4-3.17" fill="#E9E9EC"/><path d="M1047.27 120.27c7.96 6.21 13.94 13.24 16.5 23.2.54 6-2.13 10.5-5.8 15.05-5.5 5.82-10.15 9.47-18.35 9.85-8.47-.4-15.5-4.16-22.69-8.37-7.1-4.15-13.92-7.66-22.12-9.13l-2.42-.44L990 150l-2.24-.54c-12.5-2.1-25.6-1.13-36.99 4.67-1.77.87-1.77.87-3.77.87l-.75 1.87c-1.52 2.58-2.58 2.86-5.25 4.13-11.75 8.35-18.39 23.42-22 37-1.55 4.86-3.33 9.63-5.1 14.41a68 68 0 0 0-1.9 6.6c-1.98 6.13-3.9 11.93-8 17h-2l-2 4c0-3.82 1.26-5.74 3-9.14 3.35-6.84 5.7-13.85 7.93-21.12 9.25-29.83 9.25-29.83 19.07-41.75l1.53-2.06c8.2-10.34 21.4-18.42 34.43-20.62 21.66-2.3 38.66 3.83 57.25 14.52 7.36 4.1 13.38 5.31 21.8 4.16 6.53-2.22 10.86-6.93 14-13 1.15-6.95.42-13.04-3.4-18.98-11.65-14.67-32.23-21.78-49.6-27.02l-2.38-.72c-24.35-6.7-52.87-3.57-74.89 8.55L925 115l-1.87 1.08A117 117 0 0 0 900 134l-1-4c43.92-36.7 99.7-43.47 148.27-9.73" fill="#DFE0E1"/><path d="m313 463 3.39.09c5.81.32 9.07 1.28 13.61 4.91l3 1c2 3 2 3 2 7l-5.19 2.44-2.92 1.37c-9.31 3.83-21.39 3.45-30.81.1-5.73-2.51-9.54-5.86-13.08-10.91 1-3 1-3 2.87-3.95 9.04-2.6 17.82-2.4 27.13-2.05" fill="#151715"/><path d="M415 447v2c-24.02 14-24.02 14-28 14v2l-6.69 2.5-1.89.72c-3.6 1.32-6.59 2.07-10.42 1.78-.81-2.12-.81-2.12-1-5a38 38 0 0 1 5-6l2.5-2.56c3.92-3.16 8.65-4.63 13.34-6.3 3.16-1.14 3.16-1.14 5.29-2.12 6.05-2.78 15.81-4.05 21.87-1.02" fill="#151714"/><path d="M211 627v2l-2.78.11c-7.01.38-12.89.78-19.22 3.89l-1.82.89c-6.12 3.56-8.97 9.58-11.18 16.11-1.05 6.5-.73 12.58 2.68 18.32 4.3 5.47 10.58 8.46 17.32 9.68 14.17 1.29 24.97-1.59 37.2-9.08 1.8-.92 1.8-.92 4.8-.92l-1.48 2.56c-1.67 3.78-1.92 6.33-1.9 10.44l-.02 3.56c.54 4.69 1.84 8 5.35 11.23A55 55 0 0 0 256 703v1c-6.65.72-11.45-1.37-17-5-2-1.9-3.41-3.72-5-6l-3 1-2-3 2-3-4-2 1.46-1.21c1.91-2.22 2.02-3.58 2.23-6.48l.2-2.45.11-1.86-2.45 1.28-3.24 1.66-3.2 1.65c-9.32 4.22-23.86 4.41-33.53 1.32A36 36 0 0 1 182 675l-2.03-1.68c-5.32-4.73-7.55-9.61-8.35-16.63 1.04-10.2 3.8-16.5 11.47-23.37A35 35 0 0 1 195 627l3.5-1.38c4.56-.81 8.11.09 12.5 1.38" fill="#E4E6E6"/><path d="M358 478c3 1.5 3 1.5 5 3-.43 4.61-.7 6.84-4 10q-1.12 3.46-2 7h-6l-.56-2.19c-1.97-3.85-4.84-5.55-8.44-7.81.3-3.58.74-4.76 3.44-7.25 4.18-2.86 7.54-3.33 12.56-2.75" fill="#646465"/><path d="M897 132h2c-.61 3.77-2.32 6.01-4.62 9-11.92 16.18-17.97 34.06-23.3 53.3A73 73 0 0 1 865 209l-3-1 1.38-3.19c2.53-5.93 4.85-11.75 6.06-18.13a103 103 0 0 1 2.44-9.12l.99-3.31A70 70 0 0 1 877 165l2-5c5.22-11.03 5.22-11.03 8-15h2l.75-1.62c1.55-2.95 3.38-5.63 5.25-8.38z" fill="#EEEEF1"/><path d="m297 463 .26 1.98c.99 6.15 2.14 9.74 6.74 14.02 2.81 1.38 2.81 1.38 5 2v1c-9.03-.58-16.84-2.2-23.19-9.06-1.73-2.04-1.73-2.04-2.81-3.94l1-3c2.43-.95 2.43-.95 5.44-1.69l2.99-.76C295 463 295 463 297 463" fill="#E5C669"/><path d="m236 667 2 1-1.48 2.56c-1.67 3.78-1.92 6.33-1.9 10.44l-.02 3.56c.54 4.69 1.84 8 5.35 11.23A55 55 0 0 0 256 703v1c-6.65.72-11.45-1.37-17-5-2-1.9-3.41-3.72-5-6l-3 1-2-3 2-3-4-2 1.46-1.21c1.91-2.22 2.02-3.58 2.23-6.48l.2-2.45.11-1.86-2.41 1.35-3.21 1.71-3.17 1.73c-3.62 1.36-5.52 1.18-9.21.21a42 42 0 0 1 8.69-4.31 61 61 0 0 0 10.93-5.57z" fill="#DBDBDC"/><path d="M970 146c19.08-.9 32.13 1.86 48.62 11.4 8.16 4.71 15.92 7.89 25.38 8.6v2l-3.94.19-2.21.1c-7.74-.79-14.31-4.41-20.91-8.29-7.11-4.15-13.93-7.65-22.13-9.12l-2.42-.45L990 150l-2.35-.53c-4.51-.8-9.09-.87-13.67-1.09L971 148z" fill="#E2E3E3"/><path d="M377 455c3.47 1.41 4.88 2.91 6.75 6.12l1.3 2.2.95 1.68-6.19 2.5-3.48 1.41c-3.05 1-5.16 1.33-8.33 1.09-.81-2.12-.81-2.12-1-5 2.84-4.1 5.98-7.01 10-10" fill="#DFC672"/><path d="M246 427h1l.3 2.8a288 288 0 0 0 9.86 48.22l.77 2.68.7 2.37C259 485 259 485 258 487c-3.15-2.58-3.88-5.14-5-9l-.75-2.37A79 79 0 0 1 249 461a77 77 0 0 0-2-7.12c-1.11-3.81-1.45-7.6-1.75-11.55-.25-2.33-.25-2.33-.84-4.33-.52-2.52-.09-4.27.53-6.75l.59-2.42z" fill="#DADADB"/><path d="M882 599h2c.93 5.73 1.31 11.39 1.56 17.19l.13 2.88c.4 9.64.4 19.28.31 28.93a100 100 0 0 0 10.31 3.62l2.68.79 2.01.59v1c-6.27-.6-11.73-1.61-18-3z" fill="#F0F1F1"/><path d="m241 377 2 1c.67 2.71.67 2.71 1.25 6.3l.65 3.9.66 4.11 1.32 7.99.58 3.6c.42 2.41.9 4.74 1.54 7.1l-5 2c-2.66-11.77-4.67-22.89-4-35z" fill="#1C1E1B"/><path d="m367 334 2 1c-4.38 5.6-7.79 6.81-14.76 7.75l-3.36.37-6.99.93-3.51.46c-5.8.84-11.51 2.04-17.24 3.27A47 47 0 0 1 313 349v-2l7.69-1.94 2.18-.55 2.14-.54 1.95-.49a107 107 0 0 1 12.28-2.13l2.98-.36 6.15-.71c14.07-1.72 14.07-1.72 18.63-6.28" fill="#EAEBEA"/><path d="M862 388h1l1.22 23.6.44 8.63.15 2.69c.22 4.54.1 8.59-.81 13.08q-.2 2.26-.32 4.52l-.12 2.41-.12 2.45-.13 2.51L863 454h-1a66 66 0 0 1-1.13-12.6l-.01-3.89.02-4.13v-2.12c.02-14.43.48-28.84 1.12-43.26" fill="#DFE0E0"/><path d="M877 554c4.49 4.49 4.28 12.68 4.75 18.74.24 2.17.7 4.15 1.25 6.26 1.75 9.78.3 19.26-1 29h-1l-.14-2.45q-.32-5.69-.67-11.36l-.13-2.07c-.59-9.23-1.43-18.34-3.18-27.45-.72-3.86-.98-6.87.12-10.67" fill="#DDDEDF"/><path d="M419 317h2a178 178 0 0 1 8.11 24.59c.83 3.19 1.82 6.29 2.89 9.41 1.74 5.64 3 11.08 3 17h-2l-.81-2.99c-3.01-10.98-6.21-21.9-9.51-32.79l-1.01-3.36-.9-2.99A79 79 0 0 1 419 317" fill="#ECEDEE"/><path d="M501 568v3a82 82 0 0 1-6.25 4.44c-7.94 5.17-7.94 5.17-10.75 8.56v3c-4.5 1.76-8.18 2.19-13 2 1.23-3.96 3.74-5.25 7.26-7.15l2.12-1.1A213 213 0 0 0 501 568" fill="#030403"/><path d="m860 350 2 1q.6 3.49 1 7l.49 2.3c1.82 9.67 1.61 19.89 1.63 29.7l.02 2.64c-.01 5.21-.39 10.21-1.14 15.36h-1l-1.28-20.44-.44-6.95-.62-10.01-.2-3.11c-.36-5.84-.52-11.64-.46-17.49" fill="#F0F2F4"/><path d="m373.93 557.16 2.07.84c-1.6 3.81-4 6.37-6.87 9.31l-2.62 2.74C364 572 364 572 361.68 571.79L360 571v-2l-2-1a545 545 0 0 1 6.19-5.56l1.75-1.62c4.4-3.86 4.4-3.86 7.99-3.66M359 571v3l-2-1z" fill="#E1E3E2"/><path d="m902 236 1 3c-1.69 2.81-1.69 2.81-4 6l-1.88 2.94a64 64 0 0 1-13.6 14.6C882 264 882 264 880.96 266.1c-.96 1.9-.96 1.9-3.58 3.15L875 270c1.44-3.38 3.24-5.34 5.94-7.81 5.21-5.07 9.29-10.74 13.48-16.64 2.37-3.33 4.93-6.44 7.58-9.55" fill="#EAE9EC"/><path d="m775 247 2.11.19c5.3.51 9.92 2.03 14.89 3.81l5.06 1.69L801 254v2a535 535 0 0 1-25.66-5.23A146 146 0 0 0 759 248v-1c5.53-1.31 10.44-.69 16 0" fill="#DDDDE0"/><path d="M861 448h1c1.59 9.39 2.2 18.42 2.01 27.94-.06 3.9 0 7.61.55 11.47C865 491 865 491 864 494h-2c-1.05-5.16-1.13-10.1-1.1-15.34l.01-2.66.03-8.38.01-5.69z" fill="#EDEEEE"/><path d="m308.5 460.5 3.77-.12c8.52-.08 13.95 1.39 20.73 6.62l-1 2-2-1-1 4-.25-2.38c-.75-2.62-.75-2.62-2.35-3.74-3.21-1.18-6.16-1.32-9.57-1.51l-2.07-.13-6.51-.36-4.43-.27L293 463c3.8-3.8 10.37-2.46 15.5-2.5" fill="#030402"/><path d="M421 332h3l3 10.56.87 3c1.48 5.32 2.5 9.92 2.13 15.44h-3l-3-12.81-.87-3.68-.82-3.53-.76-3.25C421 335 421 335 421 332" fill="#1E1F1E"/><path d="M897 132h2c-.61 3.77-2.32 6.01-4.62 9-6.02 8.09-11.24 16.39-14.38 26l-1-2-2-1 1.21-2.16c4.85-8.77 4.85-8.77 6.48-12.96L886 146l3-1c.94-1.69.94-1.69 2-4q1.97-3.01 4-6z" fill="#E7E8EB"/><path d="M239 343h2l1 31h-3a46 46 0 0 1-1.13-10.67l-.01-3.2.02-3.32-.02-3.35.01-3.19v-2.92C238 345 238 345 239 343" fill="#1A1C1B"/><path d="M254 330v2l-1.79.45c-5.76 1.63-8.93 3.28-12.21 8.55-2.81 7.6-2.63 15.97-3 24h-1c-1.59-8.53-3.01-18.56 1.66-26.32 4.57-5.72 8.86-8.88 16.34-8.68" fill="#E2E3E2"/><path d="M233 678h1l.3 2.67.45 3.52.42 3.48c1.24 5 3.32 7.42 7.71 10.06l3.12 1.46 3.12 1.48L252 702l4 2c-6.65.72-11.45-1.37-17-5-2-1.9-3.41-3.72-5-6l-3 1-2-3 1.44-1.44c2.24-3.68 2.3-7.32 2.56-11.56" fill="#D8D9DB"/><path d="m461 357 2 2c-23.94 13-23.94 13-30 13v-4l3.12-.31c3.93-.7 6.41-1.78 9.88-3.69l6.07-3.04L454 360l2.05-1.06C458 358 458 358 461 357" fill="#DFDEE1"/><path d="M413 444c1.83 1.52 1.83 1.52 3 3l-3.23-.18c-10.51-.39-18 1.07-27.77 5.18q-2.68.94-5.38 1.81L376 455c8.47-9.46 24.9-12.62 37-11" fill="#020402"/><path d="m268 335.88 2.08 1.06 4.02 2.07q3.94 2.04 7.9 3.99l-1 3-2.18-1.08-9.88-4.86-3.44-1.7q-1.64-.82-3.35-1.63l-3.06-1.52c-3.38-1.32-6.49-1.82-10.09-2.21v-1c7.31-1.94 12.62.52 19 3.88" fill="#D8DADD"/><path d="M590 287q2.51.43 5 1c-2.76 2.76-6.1 4.17-9.56 5.88l-2.18 1.08A324 324 0 0 1 568 302v-3a214 214 0 0 1 13-7l4.31-2.12 2.05-1.01C589 288 589 288 590 287" fill="#E3E3E4"/><path d="M250 463h3q1.55 5.43 3.06 10.88l.9 3.12.83 2.99.77 2.76C259 485 259 485 258 487c-3.15-2.58-3.88-5.14-5-9l-.75-2.47q-1.16-3.76-2.25-7.53l-.65-2.24L249 464z" fill="#DCDBDE"/><path d="M1060 142h1c1.59 8.75 1.59 8.75-.5 13.19-9.08 10.21-9.08 10.21-13.5 11.81-2.8-.02-2.8-.02-5.75-.38l-2.98-.33-2.27-.29v-1l2.38-.26c7.57-1.01 12.97-2.25 17.89-8.31 2.97-4.52 3.49-9.11 3.73-14.43" fill="#C7C8C7"/><path d="M970 146q4.96-.12 9.94-.19l2.8-.07c6.32-.07 11.42.86 17.26 3.26v3c-10-2-10-2-12.38-2.54-4.5-.79-9.07-.86-13.64-1.08L971 148z" fill="#EBEDED"/><path d="M912 213c1.84 5.22-.77 9.25-3 14a193 193 0 0 1-5 9h-2l-2 4c0-3.92 1.58-6.74 3.25-10.19l.97-2.03L907 222l1.32-2.73c2.51-5.1 2.51-5.1 3.68-6.27" fill="#DDDCDF"/><path d="M1048 123c5.28 1.4 8 4.65 11 9 2.62 4.77 4.6 9.52 5 15l-1 2h-2l-.26-1.87c-1.66-9.97-5.99-16.76-12.74-24.13" fill="#E4E5E4"/><path d="m917 116 3 1-2.16 1.72q-4.19 3.37-8.34 6.78A950 950 0 0 1 899 134c.31-3.26.7-4.7 3.04-7.06l2.58-1.94 2.74-2.06L910 121l2.11-1.66c1.83-1.4 1.83-1.4 4.89-3.34" fill="#DCDDDD"/><path d="M862 494h2c1.58 6.62 3 13.17 3 20l-2 2c-2.16-7.47-3.47-14.21-3-22" fill="#E3E3E5"/><path d="M978.31 144.94h2.53l6.16.06v1l-16 1v1q-3.69.84-7.38 1.63l-2.1.48c-1.83.39-3.68.65-5.52.89l-2-2 4.7-1.44 2.62-.8c5.8-1.63 11.01-1.88 17-1.82" fill="#D0D2D3"/><path d="m188 677 3.38.46c4.86.61 9.72.87 14.62 1.1l2.64.13 6.36.31-1 2q-5.37.17-10.75.25l-3.08.1c-7.57.1-7.57.1-10.87-2.37z" fill="#EBECED"/><path d="m401.19 305.88 2.73.05q1.03.04 2.08.06c-3 2-3 2-6 2v2c-1.53 1.3-1.53 1.3-3.5 2.63l-1.97 1.36-1.53 1.01q-.99-.48-2-1c1.79-6.3 3.53-8.29 10.19-8.12" fill="#141614"/><path d="m859 279 1 2h-2v2c-10.81 6.27-10.81 6.27-16 8l-2-3z" fill="#E1E0E2"/><path d="M231 613c-3.24 7.97-12.51 12.67-20 16v-3c1.91-1.36 1.91-1.36 4.5-2.75a59 59 0 0 0 11.91-8.93C229 613 229 613 231 613" fill="#DDDEDD"/><path d="M856 332c3.31 3.61 4.01 7.36 5 12l.81 2.75c.25 3.02-.95 3.96-2.81 6.25q-1.05-4.12-2.06-8.25l-.61-2.36-.55-2.28-.53-2.1c-.28-2.26.07-3.85.75-6.01" fill="#E5E4E9"/><path d="M738 243c8.74-.26 17.48-.17 26 2l1 2c-9.22.31-17.91-.61-27-2z" fill="#EFEEF2"/><path d="M933 164c.67 1.76.67 1.76 1 4-1.11 1.93-1.11 1.93-2.75 3.88a35 35 0 0 0-4.87 7.5c-1.5 2.84-2.39 3.59-5.38 4.62 1.83-7.73 7.31-13.78 12-20" fill="#D5D6D5"/><path d="m870 677-1 8h-10c6.26-8 6.26-8 11-8" fill="#BFBFC1"/><path d="m408 452 2 1c-16.85 12-16.85 12-24 12 3.53-3.86 7.98-5.85 12.56-8.25l2.66-1.43 2.53-1.34 2.33-1.22z" fill="#060805"/><path d="M233 671h1l-1 16-4 1-2-3 3-2c.7-2.57.7-2.57 1.12-5.56.8-5.36.8-5.36 1.88-6.44" fill="#E2E4E3"/><path d="M1021 107v2a604 604 0 0 1-21-5v-1c7.19-2.32 14.5.96 21 4" fill="#CFD2D1"/><path d="M330 468c3 1 3 1 5 4v4l-9 3 1.44-2.12c1.65-3.04 2.16-5.47 2.56-8.88" fill="#B9AF73"/><path d="M298 475c2.96 1.38 5.42 3 8 5l3 2a50 50 0 0 1-17-4l4-2v2h2z" fill="#CDBC80"/><path d="M858 348h1a87 87 0 0 1 2 22l-2 1-1.06-9.81-.32-2.82-.28-2.7-.27-2.49C857 351 857 351 858 348" fill="#1E1F20"/><path d="m387 315 2 1v5l-1.94.31-2.06.69-1 3c-1.94.81-1.94.81-4 1l-2-2z" fill="#17181A"/><path d="m860 350 2 1q.6 3.49 1 7l.59 2.4c.46 2.94.13 5.02-.53 7.91l-.59 2.68L862 373h-1z" fill="#E8E9EC"/><path d="M877 554c3.09 3.09 3.58 6.73 4 11a43 43 0 0 1-2 8h-1l-1.06-8.94-.32-2.57-.28-2.45-.27-2.27L876 555z" fill="#CFD1D1"/><path d="M406 304c4.31.48 6.27 2.79 9 6 2.36 3.67 4.12 6.57 3.75 11l-.75 2a31 31 0 0 1-3.75-7.88c-1.9-4.93-3.97-7.11-8.25-10.12z" fill="#161718"/><path d="m248 594 1 3-17 17-2-2 1.91-1.65A155 155 0 0 0 248 594" fill="#EBEDEB"/><path d="M923 182c1 2 1 2 .36 4.53l-1.05 2.97-1.01 2.97c-1.45 2.82-2.37 3.49-5.3 4.53.7-4.47 1.92-8.97 4-13z" fill="#E0E1E1"/><path d="M405 301v2l-3.5 1.06c-5.11 1.88-8.64 5.19-12.5 8.94 0-3 0-3 1.39-4.75l1.86-1.81 1.83-1.82c3.6-3.04 6.22-3.88 10.92-3.62" fill="#E5E7E5"/><path d="m383 645 1 3-2.38.25-2.62.75-.88 1.94C377 653 377 653 373.38 654.25L370 655c1.36-4.09 3.35-4.62 7.06-6.69l3.35-1.88z" fill="#E2E5E2"/><path d="M236 343h2l-1 22h-1a68 68 0 0 1-1.12-13.25l-.01-3.7C235 345 235 345 236 343" fill="#EDEFEF"/><path d="M421 332h3l1 6.62.56 3.73c.39 3.27.52 6.37.44 9.65h-1l-2.58-10.69-.54-2.3-.51-2.11C421 335 421 335 421 332" fill="#151616"/><path d="M233 678h1l2 15-5 1-2-3 1.44-1.44c2.24-3.68 2.3-7.32 2.56-11.56" fill="#BDBEC0"/><path d="M211 627v2h-15c1-2 1-2 3-3.25 4.31-1.08 7.8.06 12 1.25" fill="#EDEDEF"/><path d="M1060 142h1c1.6 8.78 1.6 8.78-.69 13.44A30 30 0 0 1 1054 161a31 31 0 0 1 3.56-7.25c1.99-3.81 2.17-7.5 2.44-11.75" fill="#D5D8D5"/><path d="m259 583 1 3-10 10-1-3z" fill="#DDDFDE"/><path d="M887 256c0 5.07-4.36 8.32-7.69 11.88C877 270 877 270 875 270c1.59-3.9 4.13-6.34 7.12-9.25l2.76-2.7z" fill="#F0EFF2"/><path d="M368 463c2 2 2 2 2 5l2.75-1.06c3.13-.9 4.3-1.07 7.25.06-7.29 3.43-7.29 3.43-12 3-1.12-4.75-1.12-4.75 0-7" fill="#D4BE81"/><path d="M429 367h3l1 5 4 1-7 2c-1-1-1-1-1.06-4.56z" fill="#0A0D0A"/><path d="m1028 164 16 2v2c-6.2.38-10.45-.16-16-3z" fill="#EBEDED"/><path d="m602 281 3 1c-2.55 2.98-5.4 4.5-9 6l-3-1c2.56-2.84 4.21-4.35 8-5z" fill="#F1EFF1"/><path d="M1058 141h2v10h-4l.56-1.75c.44-2.25.44-2.25-.12-4.37L1056 143z" fill="#090C0B"/><path d="m195 627 2 1v2l-3.75 1.38A64 64 0 0 0 185 635v-3q2.43-1.3 4.88-2.56l2.74-1.44z" fill="#DCDEDD"/><path d="m500 335 1 3c-6.62 4-6.62 4-10 4 .62-1.88.62-1.88 2-4 3.06-1.19 3.06-1.19 6-2z" fill="#EDEEF0"/><path d="m496.81 682.94 2.96.03 2.23.03v1h-5v2c-7.43.29-7.43.29-11-2a44 44 0 0 1 10.81-1.06" fill="#DEE0E0"/><path d="M862 480c1.88 2.83 2.32 3.81 2.69 7l.26 2.06C865 491 865 491 864 494h-2z" fill="#F2F4F4"/><path d="M248 450c2.88 4.31 4 7.81 4 13h-2c-1.78-3.06-2.23-5.22-2.12-8.75l.05-2.42z" fill="#E7E7EA"/><path d="M378 559c-1.43 3.36-3.19 5.36-5.94 7.75l-2.09 1.86C368 570 368 570 365 570l5.38-5.5 1.53-1.59c3.86-3.91 3.86-3.91 6.09-3.91" fill="#070809"/><path d="M875 545c2 1 2 1 2.63 2.85l.49 2.21.51 2.23.37 1.71-3 1c-1.84-3.78-2.16-5.95-1-10" fill="#E2E2E4"/><path d="m334.88 341.81 2.68-.04C340 342 340 342 343 344q-2.65.32-5.31.62l-3 .35c-2.7.03-2.7.03-5.7-1.97 1.66-1.66 3.62-1.17 5.88-1.19" fill="#E1E3E4"/><path d="M270 340c2.6 1.07 5.1 2.2 7.62 3.44l2.15 1.02L285 347c-3.63 1.21-4.24.69-7.56-.94-4.26-2.06-4.26-2.06-6.44-2.06v-2l-3-1z" fill="#141517"/><path d="M250 463h3l1 8-4-1q-.57-2.99-1-6z" fill="#DCDCE0"/><path d="m297 463 1 10-2-1v-6h-9c3.51-1.76 6.1-3 10-3" fill="#B2A66F"/><path d="m369 463 7 1-1 4h-5z" fill="#EAC76C"/><path d="M856 332c1.56 1.5 1.56 1.5 3 4-.03 2.77-.5 5.25-1 8-2.12-3.53-2.62-6.93-3-11z" fill="#D3D4D5"/><path d="M179 668a59 59 0 0 1 10 6v2a27 27 0 0 1-10-6z" fill="#1B1C1E"/><path d="M862 494h2l2 9-4 1z" fill="#DDDEDF"/><path d="m303 526 4 2-6 8-2-2 3.12-5.37C303 527 303 527 303 526" fill="#D7DAD8"/><path d="M239 383h1l1 12-3-1c-.14-7.43-.14-7.43 1-11" fill="#D8DBD7"/><path d="M853 321c2.96 3.36 3.92 6.69 5 11l-3 1c-2-4.12-2.18-7.45-2-12" fill="#ECEEED"/><path d="m276 650 2 1c-1.38 2-1.38 2-4 4a57 57 0 0 1-10 0v-1l3.19-.31c3.71-.67 5.68-1.72 8.81-3.69" fill="#1E1F1F"/><path d="M280 557h2c-.47 4.25-2.97 6.2-6 9 .53-3.79 1.38-6.17 4-9" fill="#E0E0E3"/><path d="M696 250v1c-7.62 1.25-7.62 1.25-11-1 3.92-2.83 6.68-1.5 11 0" fill="#DFDEE1"/><path d="M869 524c2.3 2.3 3.18 3.86 4 7-1.46 2.16-1.46 2.16-3 4a717 717 0 0 1-1.66-7.71L868 525z" fill="#E0E0E5"/><path d="M537 318c0 3 0 3-1.31 4.69C534 324 534 324 531 324l-4-1z" fill="#201E21"/><path d="M688 251c-3.01 3.01-5.82 2.6-10 3l1-3c3.48-1.16 5.46-.71 9 0" fill="#EEEEF0"/><path d="m940 158 3 1-8 7-1-3c4.39-4 4.39-4 6-5" fill="#E0E1E1"/><path d="m375.25 647.75 2.75.25c-4.31 3.94-4.31 3.94-7.81 4.25L368 652c2.41-2.97 3.35-3.95 7.25-4.25" fill="#1B1D1A"/><path d="m218 622 1 3-8 4v-3z" fill="#E3E3E4"/><path d="M882 599h2c.69 3.31.69 3.31 1 7l-3 3z" fill="#F2F4F5"/><path d="M378 468v2h-2v2l-9-1 1-2c3.37-.53 6.6-1 10-1" fill="#322318"/><path d="M379 456c2.67 2.49 4.56 4.63 6 8h-3v-2h-2v-2h-2z" fill="#D3BD74"/><path d="m241 377 2 1v7h-3q-.06-3.5 0-7z" fill="#111410"/><path d="M425 333c2.8 2.8 2.72 5.13 3 9l-2 2-1.06-4.94-.6-2.77L424 334z" fill="#E1E1E2"/><path d="M405 301c3.69.5 5.6 1.1 8 4l-1 3v-2l-2.94-.81L406 304z" fill="#DBDCDC"/><path d="M672 253c2.88-.12 2.88-.12 6 0l2 2-10 2z" fill="#E2E1E4"/><path d="m770 246 1 3-12-1v-1a51 51 0 0 1 11-1" fill="#CFCED3"/><path d="M862 209h2c-1.09 3.78-1.91 6.47-5 9 0-4.27.57-5.63 3-9" fill="#E1DFE3"/><path d="M877 172c2 2 2 2 2.12 5.12L879 180l-4 1z" fill="#25252A"/><path d="M231 680h1v8l-4-1v-3l2-1z" fill="#D7D8DA"/><path d="M878 561h2c1.46 4.52.27 7.52-1 12h-1z" fill="#D8D8D8"/><path d="M371 557q2.51.43 5 1c-1.75 3.88-1.75 3.88-4 5l-2-5z" fill="#D1D3D4"/><path d="M376 458h2v2h2v2h2v2h-4v-2h-2z" fill="#E9C758"/><path d="M239 365c2.1 2.36 2.97 3.55 3.19 6.75L242 374h-3z" fill="#0E110D"/><path d="M306 348c3.38-.12 3.38-.12 7 0l2 2-9 1z" fill="#D8DCD9"/><path d="M260 332v3l-11-2v-1c3.98-1.05 6.98-.84 11 0" fill="#D1D3D2"/><path d="m387 312 1 2-6 7-1-3z" fill="#D4D5D6"/><path d="M568 300c-1 3-1 3-2.88 4.19-2.12.81-2.12.81-5.12.81.75-1.94.75-1.94 2-4 2.13-.8 3.73-1 6-1" fill="#EEEFF2"/><path d="M312 619c0 4.39-2.13 5.77-5 9l-2-3z" fill="#232025"/><path d="M239 395h2c1.25 6.62 1.25 6.62-1 10a38 38 0 0 1-1-10" fill="#EBEDE9"/><path d="M852 325c2.13 3.19 2.5 5.27 3 9l-2 1-1.66-6.93L851 326z" fill="#1F2021"/><path d="m557 307 3 1-1 2h-2v2l-5-1c2.31-2.06 2.31-2.06 5-4" fill="#19191C"/><path d="m891 250 2 3-5 5-1-3c1.94-2.69 1.94-2.69 4-5" fill="#E0E0E3"/><path d="M1027 113c3.34.56 6.03 1.35 9 3v2q-1.98-.38-3.94-.81l-2.21-.46-1.85-.73z" fill="#0A0A0A"/><path d="m246 700 10 3v1c-6.62.12-6.62.12-10-1z" fill="#D1D4D4"/><path d="m261 649 3 4h-9c1.95-1.95 3.53-2.85 6-4" fill="#F0F3EF"/><path d="m342 591 3 1-7 6-2-1z" fill="#222125"/><path d="M881 583c2.39 2.39 2.76 3.66 3 7l-3 3z" fill="#F2F5F3"/><path d="M256 479c1.95 2.92 2.45 4.63 3 8l-3-1c-1.19-3.06-1.19-3.06-2-6z" fill="#CCCBCD"/><path d="M430 362h2l1 8-1-3h-3z" fill="#2C2F2A"/><path d="M843 234c-1.25 3.74-2.63 4.19-6 6v-4c3-2 3-2 6-2" fill="#DEDDE1"/><path d="M912 213c.93 2.61 1.15 3.64.06 6.25L911 221h-2c.75-5.75.75-5.75 3-8" fill="#EAEAED"/><path d="m1061 140 2 1c1.28 5.45 1.28 5.45 0 8h-2z" fill="#F0F3F0"/><path d="m236 667 2 1-3 6-2-2-3-1z" fill="#B5B7B3"/><path d="m183 634 2 1-6 8-1-4c2.44-2.75 2.44-2.75 5-5" fill="#E5E8E5"/><path d="m673 504-5 4-2-1 1-3c2.49-1.25 3.41-.78 6 0" fill="#DEDFE1"/><path d="m859 279 1 2h-2v2l-7 1a40 40 0 0 1 8-5" fill="#D8D8DA"/><path d="m874 268 2 3-4 3-3-2z" fill="#DFDFE1"/><path d="M961 101c-3.09 1.76-4.23 2-8 2v-2c2.86-1.43 4.93-.6 8 0" fill="#D9DADA"/></svg>