<svg style="background:transparent" version="1.1" xmlns="http://www.w3.org/2000/svg" viewBox="0 0 1248 704"><path d="M473 36c5.61 2.2 9.77 5.77 14 10q1.6 1.36 3.23 2.7c3.65 3.12 6.86 6.5 10.08 10.05a662 662 0 0 0 17.19 17.94l2.28 2.32c8.21 8.22 14.31 10.76 25.78 12.55l7.26 1.19 3.6.6c4.58.83 9.09 1.89 13.61 3.02 4.09.87 8.15 1.18 12.31 1.42 2.63.21 5.08.65 7.66 1.21 11.87 2.43 21.59 3.53 32.28-3.5 2.02-1.76 2.36-2.89 2.72-5.5h3a27 27 0 0 0 7.76-2.86l2.13-1.12 2.23-1.21 2.31-1.22c4.14-2.23 8.23-4.52 12.26-6.97l2.32-1.4q2.5-1.53 4.99-3.1c5.06-1.89 10.18-2.31 15.25-.17 4.93 2.95 9.89 6.46 11.75 12.05q.38 3.68.62 7.38l.29 3.96c.12 5.1-1.09 9.39-2.41 14.28-1.27 5-1.94 9.77-2.19 14.91-.34 2.75-1.25 4.92-2.31 7.47v2.44c0 3.17-1 5.55-2 8.56q-.39 3-.72 6c-.43 3.08-1.43 6.01-2.28 9-.86 5.09-1.66 10.02 0 15-1.31 2.69-1.31 2.69-3 5h-2l.5 2.31c.62 3.35.63 5.33-.5 8.57-1 3.12-1 3.12-1 5.56 0 3.43-1.01 6.27-2 9.56-2 7.86-2 7.86-2 11.69 0 2.31 0 2.31-.94 5.06a32 32 0 0 0-1.56 7.69c-.38 4.04-1.35 7.67-2.5 11.56q-.56 3.5-1 7l3.5 1.06c5.5 1.81 10.74 4.19 16 6.6 5.18 2.34 5.18 2.34 8.5 2.34a80 80 0 0 1 4.81 2.88A44 44 0 0 0 706 265q3.03 1.45 6 3l5.06 2.5c3.41 1.7 6.71 3.47 9.94 5.5q3.66 2.23 7.36 4.36c5.21 3.03 9.97 6.3 14.63 10.12A36 36 0 0 0 755 294c4.33 3.3 8.21 7.11 12 11l2.5 2.44c2.67 2.73 5.06 5.63 7.5 8.56l2.36 2.31c8.34 8.48 14.59 18.52 20.64 28.69l2.75 4.25c2.54 4.06 4.41 8.34 6.25 12.75l1.45 3.26c1.69 3.93 2.95 7.96 4.17 12.05 2.26 7.46 2.26 7.46 3.38 9.69.32 3.37.51 6.75.72 10.13C819 402 819 402 820 403q.07 4 0 8c0 3 0 3 .5 5.56.55 3.78.53 7.36.44 11.17C821 430 821 430 822 433l.44 2.5c.56 2.5.56 2.5 2.56 5.5l-.12 6.01c.18 2.87 1.53 4.64 3.12 6.99l1 5q1.47 3.01 3 6c1.11 3.08 2.05 6.16 2.94 9.31 1.87 6.52 3.85 12.69 7.06 18.69 2.99 5.8 5.39 11.87 7.25 18.12 3.23 9.92 8.51 19.57 14.52 28.06 1.23 1.82 1.23 1.82 2.79 5.07 1.71 3.27 3.77 5.21 6.44 7.75q2.65 3.1 5.25 6.23c1.82 1.84 3.42 2.69 5.75 3.77l1.88 1.94c2.54 2.46 4.9 3.57 8.12 5.06l2.26 1.19A75 75 0 0 0 914 577l2.7.66c19.38 3.99 38.49-.83 55.3-10.66a72 72 0 0 0 6.35-4.66c1.65-1.34 3.35-2.4 5.15-3.53 4.05-2.86 6.46-6.74 9.27-10.77 16.05-21.86 16.05-21.86 26.23-24.04 5.72-.62 10.56-.59 15.46 2.66A25 25 0 0 1 1042 538c.4 6.15-.55 10.53-2.88 16.19l-.81 2.07q-1.14 2.88-2.31 5.74l-1.1 2.8c-1.15 2.81-2.52 5.49-3.9 8.2l-.88 1.94c-4.29 7.88-10.49 13.56-17.21 19.37a100 100 0 0 0-4.47 4.25c-4.5 4.5-9 8.43-14.63 11.44a95 95 0 0 0-5.75 3.56c-5.95 3.75-12.32 5.58-19.06 7.44l-5.31 1.56-2.55.76C959 624 959 624 957 625c-8.72 1.22-17.44 1.19-26.23 1.19q-3.79 0-7.58.03l-4.86.01-2.27.02A32 32 0 0 1 904 624q-2.09-.48-4.19-.88c-5.47-1.16-10.61-3.1-15.81-5.12l-2.77-.94L879 616l-1-3c-1.89-.81-1.89-.81-4.25-1.44-4.07-1.24-6.52-2.73-9.75-5.56l-4-2.38c-6.51-4.24-11.38-10.25-16.52-16-2.09-2.28-4.29-4.44-6.48-6.62-4-4.65-4-4.65-4-7l-1.88-.75c-2.58-1.52-2.81-2.59-4.12-5.25a265 265 0 0 0-4-5.5c-2.31-3.09-4.38-6-6-9.5-2.57-4.42-6.69-6.5-11-9l-.31 2.19c-.69 2.81-.69 2.81-2.07 4.93-3.21 5.7-4.33 12.32-5.56 18.69-.86 4.08-2.68 6.76-5.06 10.19a50 50 0 0 0-2.44 10.62c-.56 3.38-.56 3.38-2.06 5.76-1.53 2.67-1.7 3.77-1.88 6.74-.38 5.03-2.3 8.88-4.48 13.36-1.28 2.83-1.77 5.45-2.14 8.52a88 88 0 0 1-2 4 225 225 0 0 0-2.94 9.12c-1.03 2.8-2.26 4.54-4.06 6.88-.62 2.12-.62 2.12-1 4l-1 2 1.8.3c11.09 2 19.67 5.2 28.2 12.7-.25 3.64-.43 5.46-3.12 8.01-18.03 12.47-43.52 12.5-64.56 13.16l-3.76.14-3.12.05c-2.44.64-2.44.64-4.21 3.03L719 691c-1.69 3.22-3.3 5.38-6.12 7.62C710 701 710 701 709 704q-7.02.11-14.03.16l-4.76.07c-12.47.2-22.77-.22-32.4-9.29L656 693l-1.62-1.62L651 688l-3.03.97c-3.86 1.1-7.51 1.34-11.54 1.44l-2.19.06-7.16.16-5.09.13-10.72.25q-6.7.14-13.39.31c-31.54.79-63.13 1.57-94.63-.51l-3.11-.19c-22.46-1.45-44.36-4.24-66.26-9.56l-2.81-.65c-5.96-1.59-9.16-3.59-13.07-8.41-.81-3-.81-3 0-6 7.32-8.84 18.27-11.09 28.94-13.35q4.44-.95 8.87-1.93c29.25-6.39 29.25-6.39 43.27-7.1A84 84 0 0 0 505 643l2-3-1-3 .94-1.81c1.37-2.82 1.13-5.09 1.06-8.19l1-2-1.44-1.5c-1.75-2.81-2.02-5.09-2.31-8.36-.33-2.81-1.05-5.46-1.78-8.19-.47-1.95-.47-1.95-.97-5.7-.5-3.25-.5-3.25-1.53-5.17-1.41-3.01-1.02-5.6-.85-8.86C500 585 500 585 499 583.16c-1.17-2.52-1.23-4.23-1.2-7l.02-2.78.06-2.88.02-2.88.07-5.3q.04-3.16.03-6.32l.07-3.93.05-4.51.06-2.27c.03-4.33-.44-7.28-2.18-11.29-.23-2.72-.23-2.72-.19-5.5l.02-2.78c.17-2.72.17-2.72.77-5.45l.4-2.27-1.44-1.75c-2.4-3.47-1.97-7.14-1.56-11.25l1-2-.5-3.25c-.49-3.64-.14-6.18.5-9.75l-.5-1.88c-.81-3.44 0-6.63.5-10.12 0-3 0-3-1-6l.44-1.69a26.5 26.5 0 0 0 0-12.56c-.44-1.75-.44-1.75.12-3.69.44-2.06.44-2.06-.56-4.5-1-2.56-1-2.56-.5-5 .67-3.41-.29-5.32-1.5-8.56q-.52-1.96-1-3.94a160 160 0 0 0-2-7.44c-.81-2.92-1.44-5.77-2-8.74a40 40 0 0 0-2.12-7.69c-1.02-2.55-.95-4.47-.88-7.19l-.47-1.88c-.55-2.2-.78-4.29-.97-6.56a23 23 0 0 0-1.62-7.18c-1.25-3.18-.94-5.98-.94-9.38l-1-3.5c-1.06-3.7-1.07-6.67-1-10.5q-.45-3.01-1-6a120 120 0 0 1-1.12-18.44l-.02-2.75.01-2.62v-2.37C476 328 476 328 477 327q.02-2.57-.06-5.12c-.06-4.69.68-8.39 2.06-12.88v-3.62c0-3.49.69-5.21 2-8.38.45-2.66.73-5.31 1-8a59 59 0 0 0-9.38-5.94A118 118 0 0 1 461 276l-1.9-1.12c-5.37-3.27-9.73-7.22-14.16-11.63l-1.77-1.76C439 257.26 439 257.26 439 255q-2.2-1.85-4.49-3.59c-1.77-1.65-2.49-3.22-3.51-5.41l-2.56-3.94c-1.94-3.07-2.97-5.42-3.44-9.06l-1.06-2.94c-2.3-7.81-1.39-17.16.06-25.06l.5-3.62a104 104 0 0 1 1-5.82c.5-2.56.5-2.56.94-6.44.45-3.85 1.48-7.4 2.56-11.12l.44-3.5c.56-3.5.56-3.5 2.06-6.94a23 23 0 0 0 2.06-7.68c.44-3.88.44-3.88 1.44-6.26 1.29-3.38 1.48-6.62 1.75-10.22.23-2.24.7-4.22 1.25-6.4q1.04-5.09 2-10.19l.54-2.75A188 188 0 0 0 443 107c.8-6.8.8-6.8 2-8q.32-4.09.5-8.19l.26-4.98.42-8.51c1.7-28.92 1.7-28.92 9.82-36.32l1.65-1.54c5.42-4.74 8.51-4.76 15.35-3.46" fill="#121513"/><path d="M473 36c5.61 2.2 9.77 5.77 14 10q1.6 1.36 3.23 2.7c3.65 3.12 6.86 6.5 10.08 10.05a662 662 0 0 0 17.19 17.94l2.28 2.32c8.21 8.22 14.31 10.76 25.78 12.55l7.26 1.19 3.6.6c4.58.83 9.09 1.89 13.61 3.02 4.09.87 8.15 1.18 12.31 1.42 2.63.21 5.08.65 7.66 1.21 11.87 2.43 21.59 3.53 32.28-3.5 2.02-1.76 2.36-2.89 2.72-5.5h3a27 27 0 0 0 7.76-2.86l2.13-1.12 2.23-1.21 2.31-1.22c4.14-2.23 8.23-4.52 12.26-6.97l2.32-1.4q2.5-1.53 4.99-3.1c5.06-1.89 10.18-2.31 15.25-.17 4.93 2.95 9.89 6.46 11.75 12.05q.38 3.68.62 7.38l.29 3.96c.12 5.1-1.09 9.39-2.41 14.28-1.27 5-1.94 9.77-2.19 14.91-.34 2.75-1.25 4.92-2.31 7.47v2.44c0 3.17-1 5.55-2 8.56q-.39 3-.72 6c-.43 3.08-1.43 6.01-2.28 9-.86 5.09-1.66 10.02 0 15-1.31 2.69-1.31 2.69-3 5h-2l.5 2.31c.62 3.35.63 5.33-.5 8.57-1 3.12-1 3.12-1 5.56 0 3.43-1.01 6.27-2 9.56-2 7.86-2 7.86-2 11.69 0 2.31 0 2.31-.94 5.06a32 32 0 0 0-1.56 7.69c-.38 4.04-1.35 7.67-2.5 11.56q-.56 3.5-1 7l3.5 1.06c5.5 1.81 10.74 4.19 16 6.6 5.18 2.34 5.18 2.34 8.5 2.34a80 80 0 0 1 4.81 2.88A44 44 0 0 0 706 265q3.03 1.45 6 3l5.06 2.5c3.41 1.7 6.71 3.47 9.94 5.5q3.66 2.23 7.36 4.36c5.21 3.03 9.97 6.3 14.63 10.12A36 36 0 0 0 755 294c4.33 3.3 8.21 7.11 12 11l2.5 2.44c2.67 2.73 5.06 5.63 7.5 8.56l2.36 2.31c8.34 8.48 14.59 18.52 20.64 28.69l2.75 4.25c2.54 4.06 4.41 8.34 6.25 12.75l1.45 3.26c1.69 3.93 2.95 7.96 4.17 12.05 2.26 7.46 2.26 7.46 3.38 9.69.32 3.37.51 6.75.72 10.13C819 402 819 402 820 403q.07 4 0 8c0 3 0 3 .5 5.56.55 3.78.53 7.36.44 11.17C821 430 821 430 822 433l.44 2.5c.56 2.5.56 2.5 2.56 5.5l-.12 6.01c.18 2.87 1.53 4.64 3.12 6.99l1 5q1.47 3.01 3 6c1.11 3.08 2.05 6.16 2.94 9.31 1.87 6.52 3.85 12.69 7.06 18.69 2.99 5.8 5.39 11.87 7.25 18.12 3.23 9.92 8.51 19.57 14.52 28.06 1.23 1.82 1.23 1.82 2.79 5.07 1.71 3.27 3.77 5.21 6.44 7.75q2.65 3.1 5.25 6.23c1.82 1.84 3.42 2.69 5.75 3.77l1.88 1.94c2.54 2.46 4.9 3.57 8.12 5.06l2.26 1.19A75 75 0 0 0 914 577l2.7.66c19.38 3.99 38.49-.83 55.3-10.66a72 72 0 0 0 6.35-4.66c1.65-1.34 3.35-2.4 5.15-3.53 4.05-2.86 6.46-6.74 9.27-10.77 16.05-21.86 16.05-21.86 26.23-24.04 5.72-.62 10.56-.59 15.46 2.66A25 25 0 0 1 1042 538c.4 6.15-.55 10.53-2.88 16.19l-.81 2.07q-1.14 2.88-2.31 5.74l-1.1 2.8c-1.15 2.81-2.52 5.49-3.9 8.2l-.88 1.94c-4.29 7.88-10.49 13.56-17.21 19.37a100 100 0 0 0-4.47 4.25c-4.5 4.5-9 8.43-14.63 11.44a95 95 0 0 0-5.75 3.56c-5.95 3.75-12.32 5.58-19.06 7.44l-5.31 1.56-2.55.76C959 624 959 624 957 625c-8.72 1.22-17.44 1.19-26.23 1.19q-3.79 0-7.58.03l-4.86.01-2.27.02A32 32 0 0 1 904 624q-2.09-.48-4.19-.88c-5.47-1.16-10.61-3.1-15.81-5.12l-2.77-.94L879 616l-1-3c-1.89-.81-1.89-.81-4.25-1.44-4.07-1.24-6.52-2.73-9.75-5.56l-4-2.38c-6.51-4.24-11.38-10.25-16.52-16-2.09-2.28-4.29-4.44-6.48-6.62-4-4.65-4-4.65-4-7l-1.88-.75c-2.58-1.52-2.81-2.59-4.12-5.25a265 265 0 0 0-4-5.5c-2.31-3.09-4.38-6-6-9.5-2.57-4.42-6.69-6.5-11-9l-.31 2.19c-.69 2.81-.69 2.81-2.07 4.93-3.21 5.7-4.33 12.32-5.56 18.69-.86 4.08-2.68 6.76-5.06 10.19a50 50 0 0 0-2.44 10.62c-.56 3.38-.56 3.38-2.06 5.76-1.53 2.67-1.7 3.77-1.88 6.74-.38 5.03-2.3 8.88-4.48 13.36-1.28 2.83-1.77 5.45-2.14 8.52a88 88 0 0 1-2 4 225 225 0 0 0-2.94 9.12c-1.03 2.8-2.26 4.54-4.06 6.88-.62 2.12-.62 2.12-1 4l-1 2 1.8.3c11.09 2 19.67 5.2 28.2 12.7-.25 3.64-.43 5.46-3.12 8.01-18.03 12.47-43.52 12.5-64.56 13.16l-3.76.14-3.12.05c-2.44.64-2.44.64-4.21 3.03L719 691c-1.69 3.22-3.3 5.38-6.12 7.62C710 701 710 701 709 704q-7.02.11-14.03.16l-4.76.07c-12.47.2-22.77-.22-32.4-9.29L656 693l-1.62-1.62L651 688l-3.03.97c-3.86 1.1-7.51 1.34-11.54 1.44l-2.19.06-7.16.16-5.09.13-10.72.25q-6.7.14-13.39.31c-31.54.79-63.13 1.57-94.63-.51l-3.11-.19c-22.46-1.45-44.36-4.24-66.26-9.56l-2.81-.65c-5.96-1.59-9.16-3.59-13.07-8.41-.81-3-.81-3 0-6 7.32-8.84 18.27-11.09 28.94-13.35q4.44-.95 8.87-1.93c29.25-6.39 29.25-6.39 43.27-7.1A84 84 0 0 0 505 643l2-3-1-3 .94-1.81c1.37-2.82 1.13-5.09 1.06-8.19l1-2-1.44-1.5c-1.75-2.81-2.02-5.09-2.31-8.36-.33-2.81-1.05-5.46-1.78-8.19-.47-1.95-.47-1.95-.97-5.7-.5-3.25-.5-3.25-1.53-5.17-1.41-3.01-1.02-5.6-.85-8.86C500 585 500 585 499 583.16c-1.17-2.52-1.23-4.23-1.2-7l.02-2.78.06-2.88.02-2.88.07-5.3q.04-3.16.03-6.32l.07-3.93.05-4.51.06-2.27c.03-4.33-.44-7.28-2.18-11.29-.23-2.72-.23-2.72-.19-5.5l.02-2.78c.17-2.72.17-2.72.77-5.45l.4-2.27-1.44-1.75c-2.4-3.47-1.97-7.14-1.56-11.25l1-2-.5-3.25c-.49-3.64-.14-6.18.5-9.75l-.5-1.88c-.81-3.44 0-6.63.5-10.12 0-3 0-3-1-6l.44-1.69a26.5 26.5 0 0 0 0-12.56c-.44-1.75-.44-1.75.12-3.69.44-2.06.44-2.06-.56-4.5-1-2.56-1-2.56-.5-5 .67-3.41-.29-5.32-1.5-8.56q-.52-1.96-1-3.94a160 160 0 0 0-2-7.44c-.81-2.92-1.44-5.77-2-8.74a40 40 0 0 0-2.12-7.69c-1.02-2.55-.95-4.47-.88-7.19l-.47-1.88c-.55-2.2-.78-4.29-.97-6.56a23 23 0 0 0-1.62-7.18c-1.25-3.18-.94-5.98-.94-9.38l-1-3.5c-1.06-3.7-1.07-6.67-1-10.5q-.45-3.01-1-6a120 120 0 0 1-1.12-18.44l-.02-2.75.01-2.62v-2.37C476 328 476 328 477 327q.02-2.57-.06-5.12c-.06-4.69.68-8.39 2.06-12.88v-3.62c0-3.49.69-5.21 2-8.38.45-2.66.73-5.31 1-8a59 59 0 0 0-9.38-5.94A118 118 0 0 1 461 276l-1.9-1.12c-5.37-3.27-9.73-7.22-14.16-11.63l-1.77-1.76C439 257.26 439 257.26 439 255q-2.2-1.85-4.49-3.59c-1.77-1.65-2.49-3.22-3.51-5.41l-2.56-3.94c-1.94-3.07-2.97-5.42-3.44-9.06l-1.06-2.94c-2.3-7.81-1.39-17.16.06-25.06l.5-3.62a104 104 0 0 1 1-5.82c.5-2.56.5-2.56.94-6.44.45-3.85 1.48-7.4 2.56-11.12l.44-3.5c.56-3.5.56-3.5 2.06-6.94a23 23 0 0 0 2.06-7.68c.44-3.88.44-3.88 1.44-6.26 1.29-3.38 1.48-6.62 1.75-10.22.23-2.24.7-4.22 1.25-6.4q1.04-5.09 2-10.19l.54-2.75A188 188 0 0 0 443 107c.8-6.8.8-6.8 2-8q.32-4.09.5-8.19l.26-4.98.42-8.51c1.7-28.92 1.7-28.92 9.82-36.32l1.65-1.54c5.42-4.74 8.51-4.76 15.35-3.46m-17 7c-3.69 6.65-5.09 12.89-5.68 20.41l-.18 2.2-.38 4.62-1 11.95-.2 2.35a828 828 0 0 1-1.62 17.22l-.41 3.86c-.53 3.39-.53 3.39-1.48 6.59-1.1 3.97-1.81 7.92-2.42 11.98l-.74 4.76-1.13 7.35a414 414 0 0 1-8.82 41.65c-2.98 11.75-5.23 23.94-5.94 36.06l-.16 2.4c-.59 16.22 6.64 28.88 17.16 40.6l2.65 2.98c11.01 11.88 25.04 19.73 39.35 27.02a136 136 0 0 1-3.28 19.28c-2 10.33-1.92 20.73-1.91 31.22l.01 2.45c.02 10.6.07 21.08 1.78 31.57.5 3.07.94 6.15 1.4 9.23a435 435 0 0 0 9.25 44.62l.84 3.28q.93 3.39 2.01 6.75c4 13.3 3.27 26.64 3.02 40.41-.42 28.08-.42 28.08 1.06 39.94.84 6.82 1.22 13.62 1.53 20.48l.16 3.54.33 7.26c1.6 34.69 1.6 34.69 3.74 51.22l.44 3.48c.96 6.69 2.6 12.9 4.78 19.3 2.09 7.38.98 13.76-1.16 20.97-1.49 9.36 3.06 17.27 8 25 5.64 7.3 13.53 9.62 22.28 11.48 8.17.8 16.9-4.35 23.03-9.37 7.17-7.59 9.98-17.64 9.94-27.91-.44-3.9-2.26-7.05-4.13-10.45l-1.1-2.1a188 188 0 0 0-4.26-7.76c-3.01-7.46-.52-16.93 1.38-24.39.96-3.9 1.68-7.8 2.36-11.75l.38-2.18q.92-5.35 1.8-10.69a404 404 0 0 1 6.23-29.4q1.19-4.7 2.09-9.48l1.64.84 2.17 1.1 2.15 1.09C585 537 585 537 588 538l2 5a56 56 0 0 0 4.19 4.81c2.76 2.98 5.49 5.96 8.12 9.07 7.98 9.07 16.02 16.8 26.17 23.38C631 582 631 582 632 584q.13 3.16.1 6.32l-.01 3.81-.03 3.99-.01 4.02L632 612l-2.7.36-3.54.5-3.51.48c-5.73 1.16-8.85 3.62-12.19 8.47-2.39 7.19-1.07 13.43 1.94 20.19 2.68 4.24 5.26 6.33 10 8 5.88.64 11.31-.05 16.99-1.56C641 648 641 648 645 648l.47 2.99q.89 5.55 1.82 11.1l.77 4.78c1.9 12.05 4.14 20.59 13.82 28.59 8.25 5.99 15.91 6.74 25.87 6.79l2.88.06c8.9.05 16.35-1.46 22.93-7.73 4.04-4.43 4.57-7.95 4.51-13.79l-.03-3.28L718 675l2.35.05 10.65.14 3.7.07c8.38.07 14.71-.38 21.6-5.54 2.98-3 4.29-5.38 5.89-9.28l.84-2.03q1.5-3.7 2.97-7.41l2.68-6.61c5.35-13.31 10.3-26.62 14.32-40.39l2.94-10 .74-2.52a252 252 0 0 1 5.88-17.1c3.17-8.36 5.67-16.8 7.93-25.44q1.06-4 2.2-8c1.28-4.61 2.29-9.27 3.31-13.94l.97 1.92c11.8 23.16 11.8 23.16 19.03 33.08l1.98 2.77 4.03 5.51a262 262 0 0 1 3.92 5.5C853.47 600.86 880.99 617.6 911 623c24.56 3.37 49.52.74 72-10l3.23-1.48c27.14-13.4 44.07-37.52 53.77-65.52.92-5.77-.29-9.34-3.42-14.24a15 15 0 0 0-9.63-5.26c-6.82-.13-11.15.24-16.32 4.86L1009 533l-2.56 2.44L1004 538l-1.58 1.48a72 72 0 0 0-9.36 10.96c-11.41 15.93-29.04 26.19-48.26 30.08-21.55 2.71-41.98-.83-59.68-13.91-11.1-8.7-19.65-18.06-26.36-30.47C857 533 857 533 855.4 530.91c-1.69-2.31-2.5-4.52-3.46-7.22-1.56-4.2-3.19-8.31-5.03-12.39-6.21-13.79-11.49-27.8-16.53-42.05l-.82-2.3-1.49-4.26a146 146 0 0 0-3.61-9.24c-4.65-11-6.05-21.85-6.52-33.7-1.29-25.11-5.98-45.57-17.94-67.75l-.98-1.83c-8.6-16.02-19.32-29.2-32.02-42.17l-1.72-1.81a94 94 0 0 0-13.72-11.5l-2.41-1.71A909 909 0 0 0 742 288l-1.89-1.32c-19.94-13.81-43.39-23.23-65.73-32.41-12.14-5.03-12.14-5.03-14.38-7.27-.51-5.98.28-11.67 1.5-17.51l.48-2.41 1.04-5.11q1.4-6.88 2.76-13.77l.57-2.84a1631 1631 0 0 0 5.21-27.74 2006 2006 0 0 1 7.06-36.81l3.78-18.8q1.3-6.47 2.54-12.95l.64-3.19c3.24-17.09 3.24-17.09-.27-24.37-4.38-4.73-7.75-7.63-14.24-7.9-6.74.07-11.43 2.5-17.19 5.78A490 490 0 0 0 642 86l-2.58 1.47a530 530 0 0 0-20.59 12.42c-8.23 5-15.14 4.62-24.27 2.86a730 730 0 0 0-21.81-3.69 676 676 0 0 1-26.85-4.75c-3.77-.75-7.45-1.38-11.27-1.73-3.71-.59-4.78-.92-7.13-3.7a67 67 0 0 0-7.27-7.17c-4-3.46-7.72-7.12-11.41-10.89l-4.01-4.06q-3.1-3.14-6.17-6.3c-21.93-22.38-21.93-22.38-31.95-22.84-4.78.09-7.79 1.55-10.69 5.38" fill="#C2C3C3"/><path d="M473 36c5.61 2.2 9.77 5.77 14 10q1.6 1.36 3.23 2.7c3.65 3.12 6.86 6.5 10.08 10.05a662 662 0 0 0 17.19 17.94l2.28 2.32c8.21 8.22 14.31 10.76 25.78 12.55l7.26 1.19 3.6.6c4.58.83 9.09 1.89 13.61 3.02 4.09.87 8.15 1.18 12.31 1.42 2.63.21 5.08.65 7.66 1.21 11.87 2.43 21.59 3.53 32.28-3.5 2.02-1.76 2.36-2.89 2.72-5.5h3a27 27 0 0 0 7.76-2.86l2.13-1.12 2.23-1.21 2.31-1.22c4.14-2.23 8.23-4.52 12.26-6.97l2.32-1.4q2.5-1.53 4.99-3.1c5.06-1.89 10.18-2.31 15.25-.17 4.93 2.95 9.89 6.46 11.75 12.05q.38 3.68.62 7.38l.29 3.96c.12 5.1-1.09 9.39-2.41 14.28-1.27 5-1.94 9.77-2.19 14.91-.34 2.75-1.25 4.92-2.31 7.47v2.44c0 3.17-1 5.55-2 8.56q-.39 3-.72 6c-.43 3.08-1.43 6.01-2.28 9-.86 5.09-1.66 10.02 0 15-1.31 2.69-1.31 2.69-3 5h-2l.5 2.31c.62 3.35.63 5.33-.5 8.57-1 3.12-1 3.12-1 5.56 0 3.43-1.01 6.27-2 9.56-2 7.86-2 7.86-2 11.69 0 2.31 0 2.31-.94 5.06a32 32 0 0 0-1.56 7.69c-.38 4.04-1.35 7.67-2.5 11.56q-.56 3.5-1 7l3.5 1.06c5.5 1.81 10.74 4.19 16 6.6 5.18 2.34 5.18 2.34 8.5 2.34a80 80 0 0 1 4.81 2.88A44 44 0 0 0 706 265q3.03 1.45 6 3l5.06 2.5c3.41 1.7 6.71 3.47 9.94 5.5q3.66 2.23 7.36 4.36c5.21 3.03 9.97 6.3 14.63 10.12A36 36 0 0 0 755 294c4.33 3.3 8.21 7.11 12 11l2.5 2.44c2.67 2.73 5.06 5.63 7.5 8.56l2.36 2.31c8.34 8.48 14.59 18.52 20.64 28.69l2.75 4.25c2.54 4.06 4.41 8.34 6.25 12.75l1.45 3.26c1.69 3.93 2.95 7.96 4.17 12.05 2.26 7.46 2.26 7.46 3.38 9.69.32 3.37.51 6.75.72 10.13C819 402 819 402 820 403q.07 4 0 8c0 3 0 3 .5 5.56.55 3.78.53 7.36.44 11.17C821 430 821 430 822 433l.44 2.5c.56 2.5.56 2.5 2.56 5.5l-.12 6.01c.18 2.87 1.53 4.64 3.12 6.99l1 5q1.47 3.01 3 6c1.11 3.08 2.05 6.16 2.94 9.31 1.87 6.52 3.85 12.69 7.06 18.69 2.99 5.8 5.39 11.87 7.25 18.12 3.23 9.92 8.51 19.57 14.52 28.06 1.23 1.82 1.23 1.82 2.79 5.07 1.71 3.27 3.77 5.21 6.44 7.75q2.65 3.1 5.25 6.23c1.82 1.84 3.42 2.69 5.75 3.77l1.88 1.94c2.54 2.46 4.9 3.57 8.12 5.06l2.26 1.19A75 75 0 0 0 914 577l2.7.66c19.38 3.99 38.49-.83 55.3-10.66a72 72 0 0 0 6.35-4.66c1.65-1.34 3.35-2.4 5.15-3.53 4.05-2.86 6.46-6.74 9.27-10.77 16.05-21.86 16.05-21.86 26.23-24.04 5.72-.62 10.56-.59 15.46 2.66A25 25 0 0 1 1042 538c.4 6.15-.55 10.53-2.88 16.19l-.81 2.07q-1.14 2.88-2.31 5.74l-1.1 2.8c-1.15 2.81-2.52 5.49-3.9 8.2l-.88 1.94c-4.29 7.88-10.49 13.56-17.21 19.37a100 100 0 0 0-4.47 4.25c-4.5 4.5-9 8.43-14.63 11.44a95 95 0 0 0-5.75 3.56c-5.95 3.75-12.32 5.58-19.06 7.44l-5.31 1.56-2.55.76C959 624 959 624 957 625c-8.72 1.22-17.44 1.19-26.23 1.19q-3.79 0-7.58.03l-4.86.01-2.27.02A32 32 0 0 1 904 624q-2.09-.48-4.19-.88c-5.47-1.16-10.61-3.1-15.81-5.12l-2.77-.94L879 616l-1-3c-1.89-.81-1.89-.81-4.25-1.44-4.07-1.24-6.52-2.73-9.75-5.56l-4-2.38c-6.51-4.24-11.38-10.25-16.52-16-2.09-2.28-4.29-4.44-6.48-6.62-4-4.65-4-4.65-4-7l-1.88-.75c-2.58-1.52-2.81-2.59-4.12-5.25a265 265 0 0 0-4-5.5c-2.31-3.09-4.38-6-6-9.5-2.57-4.42-6.69-6.5-11-9l-.31 2.19c-.69 2.81-.69 2.81-2.07 4.93-3.21 5.7-4.33 12.32-5.56 18.69-.86 4.08-2.68 6.76-5.06 10.19a50 50 0 0 0-2.44 10.62c-.56 3.38-.56 3.38-2.06 5.76-1.53 2.67-1.7 3.77-1.88 6.74-.38 5.03-2.3 8.88-4.48 13.36-1.28 2.83-1.77 5.45-2.14 8.52a88 88 0 0 1-2 4 225 225 0 0 0-2.94 9.12c-1.03 2.8-2.26 4.54-4.06 6.88-.62 2.12-.62 2.12-1 4l-1 2 1.8.3c11.09 2 19.67 5.2 28.2 12.7-.25 3.64-.43 5.46-3.12 8.01-18.03 12.47-43.52 12.5-64.56 13.16l-3.76.14-3.12.05c-2.44.64-2.44.64-4.21 3.03L719 691c-1.69 3.22-3.3 5.38-6.12 7.62C710 701 710 701 709 704q-7.02.11-14.03.16l-4.76.07c-12.47.2-22.77-.22-32.4-9.29L656 693l-1.62-1.62L651 688l-3.03.97c-3.86 1.1-7.51 1.34-11.54 1.44l-2.19.06-7.16.16-5.09.13-10.72.25q-6.7.14-13.39.31c-31.54.79-63.13 1.57-94.63-.51l-3.11-.19c-22.53-1.46-44.5-4.23-66.45-9.68l-2.88-.71-4.87-1.3c-2.46-1.18-3.47-2.67-4.94-4.93h3v2l2.62-.19c3.38.19 3.38.19 5.96 1.58 4.42 2.08 8.69 2.81 13.48 3.61l2.94.51q4.5.76 9 1.49l2.66.44c30.81 5.01 62.15 5.74 93.31 5.69q5.82-.01 11.66.01l7.51-.01 3.47.01c5.7-.02 11.26-.27 16.92-.91 4.55-.43 9.1-.43 13.67-.48l6.35-.1 9.89-.13 9.63-.14 2.96-.03c4.37-.07 8.29-.31 12.5-1.49L652 685c2.44 1.94 2.44 1.94 5 5 10 8.56 17.77 11.18 30.75 11.25l2.88.06c7.57.04 14.59-.92 20.75-5.62 4.61-4.72 5.72-8.43 6.19-14.9l.25-3.29.18-2.5 2.35-.04 10.65-.27 3.7-.07c8.96-.27 16.66-.91 23.3-7.62 1.63-2.91 1.63-2.91 3.12-6.5l.86-2.05q1.53-3.71 3.02-7.45l1.29-3.18c5.86-14.44 11.34-28.87 15.71-43.82l2.94-10 .74-2.52a252 252 0 0 1 5.88-17.1c3.17-8.36 5.67-16.8 7.93-25.44q1.06-3.98 2.2-7.94c1.35-4.95 2.38-9.95 3.31-15 2.49 2.26 3.92 4.47 5.42 7.46l1.35 2.66 1.42 2.82c4.15 8.08 8.48 15.68 13.81 23.06l1.99 2.78 4.01 5.5q2.02 2.74 3.96 5.54c17.33 24.66 44.52 40.87 74.04 46.18 24.56 3.37 49.52.74 72-10l3.23-1.48c24.33-12.02 39.24-32.14 49.77-56.52l1.04-2.31c1.91-4.57 2.98-8.81 1.96-13.69-1.63-3.66-3.4-6.93-6.78-9.2-4.89-1.77-10.13-1.52-15.22-.8a27 27 0 0 0-6.32 4.49c-1.68 1.51-1.68 1.51-3.77 2.46-2.43 1.33-2.77 2.56-3.91 5.05a101 101 0 0 1-3.75 4.25 97 97 0 0 0-7.25 8.81c-11.17 15.05-28.93 24.76-47.2 28.46-21.56 2.71-41.94-.84-59.66-13.89-11.42-8.92-20.56-18.75-27.41-31.53-1.73-3.1-1.73-3.1-3.33-5.18-1.69-2.32-2.5-4.53-3.46-7.23-1.56-4.2-3.19-8.31-5.03-12.39-6.21-13.79-11.49-27.8-16.53-42.05l-.82-2.3-1.49-4.26a146 146 0 0 0-3.61-9.24c-4.65-11-6.05-21.85-6.52-33.7-1.29-25.11-5.98-45.57-17.94-67.75l-.98-1.83c-14.11-26.29-34.3-46.64-59.02-63.17l-1.77-1.19c-19.27-12.74-41.5-21.74-62.78-30.51-12.24-5.09-12.24-5.09-15.45-8.3-.78-5.88.3-11.77 1.5-17.51l.48-2.41 1.04-5.11q1.4-6.88 2.76-13.77l.57-2.84a1631 1631 0 0 0 5.21-27.74 2006 2006 0 0 1 7.06-36.81l3.78-18.8q1.3-6.47 2.54-12.95l.64-3.19c3.22-16.99 3.22-16.99-.2-24.37-4.19-4.41-7.23-6.73-13.4-6.94-6.68.11-11.39 2.57-17.1 5.82A490 490 0 0 0 642 87l-2.58 1.47a530 530 0 0 0-20.59 12.42c-8.23 5-15.14 4.62-24.27 2.86a730 730 0 0 0-21.81-3.69 676 676 0 0 1-26.85-4.75c-3.77-.75-7.45-1.38-11.27-1.73-3.71-.59-4.78-.92-7.13-3.7a67 67 0 0 0-7.27-7.17c-4-3.46-7.72-7.12-11.41-10.89l-4.01-4.06q-3.1-3.14-6.17-6.3c-21.99-22.45-21.99-22.45-32.02-22.77-3.15.06-4.56.28-7.43 1.75-5.67 6.64-7.21 14.51-7.87 22.97l-.18 2.2-.38 4.62-1 11.95-.2 2.35a828 828 0 0 1-1.62 17.22l-.41 3.86c-.53 3.39-.53 3.39-1.48 6.59-1.1 3.97-1.81 7.92-2.42 11.98l-.74 4.76-1.13 7.35a414 414 0 0 1-8.82 41.65c-2.98 11.75-5.23 23.94-5.94 36.06l-.16 2.4c-.59 16.23 6.65 28.86 17.16 40.6l2.43 2.75c10.2 10.9 23.07 18.2 36.23 25.01C485 286 485 286 486 287c-.45 6.59-1.78 12.85-3.28 19.28-2 10.33-1.92 20.73-1.91 31.22l.01 2.45c.02 10.6.07 21.08 1.78 31.57.5 3.07.94 6.15 1.4 9.23a435 435 0 0 0 9.25 44.62l.84 3.28q.93 3.39 2.01 6.75c4 13.3 3.27 26.64 3.02 40.41-.42 28.08-.42 28.08 1.06 39.94.84 6.82 1.22 13.62 1.53 20.48l.16 3.54.33 7.26c1.6 34.69 1.6 34.69 3.74 51.22l.44 3.48c.96 6.69 2.61 12.92 4.77 19.33 2.48 8.63.56 16.6-2.15 24.94l-3.27.11a197 197 0 0 0-45.87 7.12 90 90 0 0 1-14.92 2.77c-6.53.74-11.37 2.59-16.94 6l-3.12 1.81L423 665l-2-2c11.05-9.67 28.68-11.44 42.69-14.19l2.65-.53c10.96-2.18 21.85-4.18 33.05-4.71A70 70 0 0 0 505 643l2-3-1-3 .94-1.81c1.37-2.82 1.13-5.09 1.06-8.19l1-2-1.44-1.5c-1.75-2.81-2.02-5.09-2.31-8.36-.33-2.81-1.05-5.46-1.78-8.19-.47-1.95-.47-1.95-.97-5.7-.5-3.25-.5-3.25-1.53-5.17-1.41-3.01-1.02-5.6-.85-8.86C500 585 500 585 499 583.16c-1.17-2.52-1.23-4.23-1.2-7l.02-2.78.06-2.88.02-2.88.07-5.3q.04-3.16.03-6.32l.07-3.93.05-4.51.06-2.27c.03-4.33-.44-7.28-2.18-11.29-.23-2.72-.23-2.72-.19-5.5l.02-2.78c.17-2.72.17-2.72.77-5.45l.4-2.27-1.44-1.75c-2.4-3.47-1.97-7.14-1.56-11.25l1-2-.5-3.25c-.49-3.64-.14-6.18.5-9.75l-.5-1.88c-.81-3.44 0-6.63.5-10.12 0-3 0-3-1-6l.44-1.69a26.5 26.5 0 0 0 0-12.56c-.44-1.75-.44-1.75.12-3.69.44-2.06.44-2.06-.56-4.5-1-2.56-1-2.56-.5-5 .67-3.41-.29-5.32-1.5-8.56q-.52-1.96-1-3.94a160 160 0 0 0-2-7.44c-.81-2.92-1.44-5.77-2-8.74a40 40 0 0 0-2.12-7.69c-1.02-2.55-.95-4.47-.88-7.19l-.47-1.88c-.55-2.2-.78-4.29-.97-6.56a23 23 0 0 0-1.62-7.18c-1.25-3.18-.94-5.98-.94-9.38l-1-3.5c-1.06-3.7-1.07-6.67-1-10.5q-.45-3.01-1-6a120 120 0 0 1-1.12-18.44l-.02-2.75.01-2.62v-2.37C476 328 476 328 477 327q.02-2.57-.06-5.12c-.06-4.69.68-8.39 2.06-12.88v-3.62c0-3.49.69-5.21 2-8.38.45-2.66.73-5.31 1-8a59 59 0 0 0-9.38-5.94A118 118 0 0 1 461 276l-1.9-1.12c-5.37-3.27-9.73-7.22-14.16-11.63l-1.77-1.76C439 257.26 439 257.26 439 255q-2.2-1.85-4.49-3.59c-1.77-1.65-2.49-3.22-3.51-5.41l-2.56-3.94c-1.94-3.07-2.97-5.42-3.44-9.06l-1.06-2.94c-2.3-7.81-1.39-17.16.06-25.06l.5-3.62a104 104 0 0 1 1-5.82c.5-2.56.5-2.56.94-6.44.45-3.85 1.48-7.4 2.56-11.12l.44-3.5c.56-3.5.56-3.5 2.06-6.94a23 23 0 0 0 2.06-7.68c.44-3.88.44-3.88 1.44-6.26 1.29-3.38 1.48-6.62 1.75-10.22.23-2.24.7-4.22 1.25-6.4q1.04-5.09 2-10.19l.54-2.75A188 188 0 0 0 443 107c.8-6.8.8-6.8 2-8q.32-4.09.5-8.19l.26-4.98.42-8.51c1.7-28.92 1.7-28.92 9.82-36.32l1.65-1.54c5.42-4.74 8.51-4.76 15.35-3.46" fill="#E2E3E5"/><path d="M577 533a18.2 18.2 0 0 1 11 5q1.52 2.09 2.94 4.25c4.93 7.42 11.22 13.63 17.38 20.01q2 2.07 3.94 4.19c4.52 4.82 9.65 8.51 15.08 12.23 4.56 3.13 4.56 3.13 5.66 5.32q.14 2.01.13 4.04l.01 2.45-.02 2.57.02 2.49c-.01 5.56-.44 10.94-1.14 16.45l-3.11.7-4.08.99-2.04.45c-5.48 1.36-8.81 3.69-11.86 8.63-1.16 2.85-1.34 5.41-1.53 8.48l-.23 3.27L609 637l-2.14-.02-13.09-.07c-6.66-.02-13.16.26-19.77 1.09l-1 6h-1l-1-3.5a52 52 0 0 0-3.98-9.2c-6.76-12.32-7.4-21.04-3.88-34.8.96-3.9 1.68-7.8 2.36-11.75l.38-2.18q.92-5.35 1.8-10.69a372 372 0 0 1 4.88-24.13l.64-2.71c1-4.15 2.04-8.12 3.8-12.04" fill="#F6F7F5"/><path d="M805 526c2.49 2.26 3.92 4.47 5.42 7.46l1.35 2.66 1.42 2.82c4.15 8.08 8.48 15.68 13.81 23.06l1.99 2.78 4.01 5.5q2.02 2.74 3.96 5.54c17.36 24.71 44.5 40.79 74.04 46.18 8.97 1.41 18.07 1.11 27.12 1.06l4.64-.01L954 623l-1 2c-4.78 1.16-9.58 1.16-14.47 1.17l-2.42.01-5.04.01-7.68.03-4.92.01-2.3.02A32 32 0 0 1 904 624q-2.09-.48-4.19-.88c-5.47-1.16-10.61-3.1-15.81-5.12l-2.77-.94L879 616l-1-3c-1.89-.81-1.89-.81-4.25-1.44-4.07-1.24-6.52-2.73-9.75-5.56l-4-2.38c-6.51-4.24-11.38-10.25-16.52-16-2.09-2.28-4.29-4.44-6.48-6.62-4-4.65-4-4.65-4-7l-1.88-.75c-2.58-1.52-2.81-2.59-4.12-5.25a265 265 0 0 0-4-5.5c-2.31-3.09-4.38-6-6-9.5-2.57-4.42-6.69-6.5-11-9l-.31 2.19c-.69 2.81-.69 2.81-2.07 4.93-3.21 5.7-4.33 12.32-5.56 18.69-.86 4.08-2.68 6.76-5.06 10.19a50 50 0 0 0-2.44 10.62c-.56 3.38-.56 3.38-2.06 5.76-1.53 2.67-1.7 3.77-1.88 6.74-.38 5.03-2.3 8.88-4.48 13.36-1.28 2.83-1.77 5.45-2.14 8.52a88 88 0 0 1-2 4 225 225 0 0 0-2.94 9.12c-1.03 2.8-2.26 4.54-4.06 6.88-.62 2.13-.62 2.13-1 4l-1 2 1.8.3c11.09 2 19.67 5.2 28.2 12.7-.25 3.64-.43 5.46-3.12 8.01-18.03 12.47-43.52 12.5-64.56 13.16l-3.76.14-3.12.05c-2.44.64-2.44.64-4.21 3.03L719 691c-1.69 3.22-3.3 5.38-6.12 7.62C710 701 710 701 709 704q-7.02.11-14.03.16l-4.76.07c-12.47.2-22.77-.22-32.4-9.29L656 693l-1.62-1.62L651 688l-3.03.97c-3.86 1.1-7.51 1.34-11.54 1.44l-9.35.22-5.09.13-10.72.25q-6.7.14-13.39.31c-31.54.79-63.13 1.57-94.63-.51l-3.11-.19c-22.53-1.46-44.5-4.23-66.45-9.68l-2.88-.71-2.61-.7-2.26-.6c-2.46-1.18-3.47-2.67-4.94-4.93h3v2l2.62-.19c3.38.19 3.38.19 5.96 1.58 4.42 2.08 8.69 2.81 13.48 3.61l2.94.51q4.5.76 9 1.49l2.66.44c30.81 5.01 62.15 5.74 93.31 5.69q5.82-.01 11.66.01l7.51-.01 3.47.01c5.7-.02 11.26-.27 16.92-.91 4.55-.43 9.1-.43 13.67-.48l6.35-.1 9.89-.13 9.63-.14 2.96-.03c4.37-.07 8.29-.31 12.5-1.49L652 685c2.44 1.94 2.44 1.94 5 5 10 8.56 17.77 11.18 30.75 11.25l2.88.06c7.57.04 14.59-.92 20.75-5.62 4.61-4.72 5.72-8.43 6.19-14.9l.25-3.29.18-2.5 2.35-.04 10.65-.27 3.7-.07c8.96-.27 16.66-.91 23.3-7.62 1.63-2.91 1.63-2.91 3.12-6.5l.86-2.05q1.53-3.71 3.02-7.45l1.29-3.18c5.86-14.44 11.34-28.87 15.71-43.82l2.94-10 .74-2.52a252 252 0 0 1 5.88-17.1c3.17-8.36 5.67-16.8 7.93-25.44q1.06-3.98 2.2-7.94c1.35-4.95 2.38-9.95 3.31-15" fill="#E6E7E8"/><path d="M704 565c4.48.51 6.76 1.88 10 5a67 67 0 0 1 4.19 8.62l1.05 2.46c2.34 5.58 4.25 10.86 4.76 16.92l.38 2.49c.66 7.54-1.58 14-4.07 21.01l-1.02 2.93c-1.95 5.18-3.43 8.57-8.29 11.57l-2.28 1.74-2.22 1.57-2.22 1.62c-2.85 1.34-4.32.96-7.28.07-.52-25.49 1.22-51.12 7-76" fill="#F0F3F1"/><path d="M766 648c2 3 2 3 2 5l3.25.25c8.21 1.04 16.17 3.69 22.75 8.75l3 2c0 2.19 0 2.19-1 5-8.13 7.09-19.46 9.67-29.81 11.19l-3.35.51c-10.12 1.43-20.2 1.84-30.41 1.97l-3.51.06-3.1.01A22 22 0 0 0 718 685v-10l2.35-.04 10.65-.27 3.7-.07c8.89-.27 16.79-.87 23.3-7.62 1.5-2.6 2.63-5.28 3.75-8.06l.92-2.18c1.21-2.9 2.34-5.79 3.33-8.76" fill="#BDBEBD"/><path d="M473 36c5.61 2.2 9.77 5.77 14 10q1.6 1.36 3.23 2.7c3.65 3.12 6.86 6.5 10.08 10.05a662 662 0 0 0 17.19 17.94l2.28 2.32c8.21 8.22 14.31 10.76 25.78 12.55l7.26 1.19 3.6.6c4.58.83 9.09 1.89 13.61 3.02 4.09.87 8.15 1.18 12.31 1.42 2.63.21 5.08.65 7.66 1.21 11.87 2.43 21.59 3.53 32.28-3.5 2.02-1.76 2.36-2.89 2.72-5.5h3c5.17-.8 9.54-4.04 14-6.6 3-1.4 3-1.4 6-.4a68 68 0 0 1-8.27 5.52l-2.44 1.41-2.54 1.45c-5.4 3.08-10.76 6.2-16 9.55-8.16 5-15.12 4.56-24.19 2.82a730 730 0 0 0-21.81-3.69 676 676 0 0 1-26.85-4.75c-3.77-.75-7.45-1.38-11.27-1.73-3.71-.59-4.78-.92-7.13-3.7a67 67 0 0 0-7.27-7.17c-4-3.46-7.72-7.12-11.41-10.89l-4.01-4.06q-3.1-3.14-6.17-6.3c-21.99-22.45-21.99-22.45-32.02-22.77-3.15.06-4.56.28-7.43 1.75-5.37 6.29-7.15 13.78-7.73 21.86l-.26 3.65-.26 3.8-.28 3.85L450 83h-1c-2.31-12.17-3.26-25.25 2.33-36.74 1.43-2 2.86-3.61 4.67-5.26l1.65-1.54c5.42-4.74 8.51-4.76 15.35-3.46" fill="#DFE1DF"/><path d="M584 207c3.61.56 6.18 1.46 9.25 3.44l2.08 1.31C597 213 597 213 598 215c.5 5.48.74 10.38-1.56 15.44-6.31 6.63-12.51 9.48-21.75 10.06-6.4-.1-10.64-2.8-15.69-6.5l-2.29-1.57L555 231v-2h-2c-1.32-2.64-1.1-4.68-1.06-7.62l.02-3.04.04-2.34h1l.19 2.27c.96 7.7.96 7.7 3.15 10.35 4.65 2.99 10.3 3.34 15.66 2.38 5.83-2.79 8.5-7.18 11-13 .71-3.68.99-7.25 1-11" fill="#E2CE4D"/><path d="M461 193c2.92 2.92 3.61 6.41 4.9 10.27 1.1 2.74 2.02 4.64 4.1 6.73 5.33 1.2 11.32.25 16.31-1.89 3.66-2.4 5.2-5.96 6.15-10.12.25-1.66.4-3.32.54-4.99 5.4 1.04 10.85 3.4 14 8 .87 4.67.43 8.1-1.62 12.38-4.65 5.13-9.93 6.29-16.58 6.93-8.53.31-14.24-.67-20.8-6.31-5.18-5.26-6.86-11.18-7.12-18.5z" fill="#E0C54A"/><path d="M522.5 219.5c6.68.01 10.05 1.41 14.93 5.87L539 227l1 1c-.12 3.38-.12 3.38-1 7-2.42 1.92-3.88 3-7 3l-.88 2.38C530 243 530 243 528 245c-3.06.19-3.06.19-6 0-1.59-1.59-1.46-3.51-1.81-5.69-.67-3.61-1.23-5.37-3.31-8.5-2.34-3.5-2.28-5.68-1.88-9.81 1.91-1.91 4.95-1.39 7.5-1.5" fill="#676060"/><path d="m817 401 3 2c.13 2.75.15 5.28 0 8 0 3 0 3 .5 5.56.55 3.78.53 7.36.44 11.17C821 430 821 430 822 433l.44 2.5c.56 2.5.56 2.5 2.56 5.5l-.12 6.01c.18 2.87 1.53 4.64 3.12 6.99l1 5q1.47 3.01 3 6c1.11 3.08 2.05 6.16 2.94 9.31 1.87 6.52 3.85 12.69 7.06 18.69a121 121 0 0 1 10 27h-2c-9.08-18.22-16.29-37.43-22.81-56.7a130 130 0 0 0-3.74-9.89 79 79 0 0 1-3.57-10.66l-1.01-3.64c-2.1-8.95-2.01-18.16-1.93-27.3l.01-3.17z" fill="#E8E9EB"/><path d="M497 450h1c1.28 11.03 1.08 22.04 1 33.12l-.06 11.14-.03 2.51c-.02 5.03.31 9.93.86 14.93.3 3 .34 5.96.33 8.96l-.01 3.46-.03 3.5-.01 3.63L500 540c-3.95-3.62-3.95-3.62-4.43-7.06l.12-3.38.07-3.37c.24-3.19.24-3.19.85-5.99l.39-2.2-1.44-1.75c-2.4-3.47-1.97-7.14-1.56-11.25l1-2-.5-3.25c-.49-3.64-.14-6.18.5-9.75l-.5-1.88c-.81-3.44 0-6.63.5-10.12 0-3 0-3-1-6l.44-1.69c.98-4.02 1.15-8.48-.13-12.43-.52-3.11 1.19-5.24 2.69-7.88" fill="#F2F2F4"/><path d="M509 624h3a58 58 0 0 1-3 22l-3.27.11a197 197 0 0 0-45.87 7.12 90 90 0 0 1-14.92 2.77c-6.53.74-11.37 2.59-16.94 6l-3.12 1.81L423 665l-2-2c11.05-9.67 28.68-11.44 42.69-14.19l2.65-.53c10.96-2.18 21.85-4.18 33.05-4.71A70 70 0 0 0 505 643l2-3-1-3 .94-1.81c1.37-2.83 1.13-5.08 1.06-8.19z" fill="#F1F1F4"/><path d="M473 36c5.61 2.2 9.77 5.77 14 10q2.66 2.24 5.34 4.46C494 52 494 52 496 55l-3 1-1.36-1.47c-14.89-15.51-14.89-15.51-25.02-15.84-3.15.06-4.56.28-7.43 1.75-5.37 6.29-7.15 13.78-7.73 21.86l-.26 3.65-.26 3.8-.28 3.85L450 83h-1c-2.31-12.17-3.26-25.25 2.33-36.74 1.43-2 2.86-3.61 4.67-5.26l1.65-1.54c5.42-4.74 8.51-4.76 15.35-3.46" fill="#E2E3E3"/><path d="M874 610c4.4 1.41 8.62 3.08 12.88 4.88 16.88 6.9 33.17 8.29 51.24 8.18l4.64-.01L954 623l-1 2c-4.78 1.16-9.58 1.16-14.47 1.17l-2.42.01-5.04.01-7.68.03-4.92.01-2.3.02A32 32 0 0 1 904 624q-2.09-.48-4.19-.88c-5.47-1.16-10.61-3.1-15.81-5.12l-2.77-.94L879 616l-1-3c-2.06-.69-2.06-.69-4-1z" fill="#EBEDEC"/><path d="m678 149 2 2-.94 3c-1.74 6.09-3.1 12.89-1.06 19-1.31 2.69-1.31 2.69-3 5h-2l.5 2.31c.62 3.35.63 5.33-.5 8.57-1 3.12-1 3.12-1 5.56 0 3.41-.98 6.32-2 9.56h-2l-1 2a83 83 0 0 1 1.43-17.88l.45-2.45.95-5.09 1.42-7.72.93-4.98.41-2.3c2.65-13.82 2.65-13.82 5.41-16.58" fill="#ECEAEF"/><path d="M478 328h1l.06 1.95c.54 16.63 1.9 32.65 4.97 49.01A71 71 0 0 1 485 396l-3-2q-.06-3 0-6l-1-2.44c-1.28-3.27-1-6.05-1-9.56l-1-3.5c-1.06-3.7-1.07-6.67-1-10.5q-.45-3.01-1-6c-1.42-9.81-.82-18.26 1-28" fill="#E6E6E8"/><path d="m666 203 4 2-1 3.69a26 26 0 0 0-1 6.93c0 2.38 0 2.38-.94 5.13a32 32 0 0 0-1.56 7.69c-.38 4.04-1.35 7.67-2.5 11.56q-.56 3.5-1 7l3.38.75c3.62 1.25 3.62 1.25 4.85 3.33L671 253l-4.31-1.31-2.43-.74A11.3 11.3 0 0 1 659 247c-1.02-5.78.33-11.87 1.53-17.54l.47-2.31q.74-3.61 1.5-7.21l1.01-4.94z" fill="#D8D9D9"/><path d="m784 597 1 4h2a83 83 0 0 1-5.05 16.71A102 102 0 0 0 779 626l-2 6-.58 2.13c-1.68 5.81-4.17 9.59-8.42 13.87-1-2-1-2-.38-4.04l1.04-2.52 1.15-2.83 1.25-3.05A379 379 0 0 0 784 597" fill="#DFDEE0"/><path d="M805 526c3.56 3.3 5.49 7.19 7.75 11.44l1.29 2.31a160 160 0 0 0 2.29 4.28c.81 2.38.48 3.63-.33 5.97a69 69 0 0 1-12-8l-2 1c.75-5.72 1.83-11.35 3-17" fill="#EBEDEC"/><path d="M461 193c2.92 2.92 3.61 6.41 4.9 10.27 1.11 2.75 2.01 4.64 4.1 6.73 2.48.61 2.48.61 5.19.75l2.73.17 2.08.08v1h-10v2h4v2l22 2v-2h4v-2h2v-2h2v-2h2c-.66 2.64-1.34 4.48-3.52 6.19-7.53 4.45-15.88 4.78-24.48 3.81-6.6-2.44-11.92-6.61-15-13a34 34 0 0 1-2-14" fill="#CBBF70"/><path d="M552 216h1l.19 2.27c.99 7.97.99 7.97 4.62 11.35 5.33 2.34 11.47 2.21 17.19 2.38-1.88 3.88-1.88 3.88-3 5l12 1c-5.2 2.6-9.28 2.88-15 2a53 53 0 0 1-10-6l-2.29-1.57L555 231v-2h-2c-1.32-2.64-1.1-4.68-1.06-7.62l.02-3.04z" fill="#C5B848"/><path d="m684 106 3 2c-1.37 16.16-1.37 16.16-3.06 21.12C683 132 683 132 683 134.5c0 5.42-2.76 10.64-5 15.5l-2 2a215 215 0 0 1 2.77-17.65l1.23-6.47 1.23-6.51 1.12-5.88A438 438 0 0 0 684 106" fill="#E8E8E9"/><path d="M1032.94 525.75c4.64 3.41 4.64 3.41 6.06 6.25-.31 2.25-.31 2.25-1 4l-1.75-2.87c-2.22-3.1-2.85-3.87-6.25-5.13-5.25-.72-10.67-1.19-15.5 1.27-2.06 1.6-2.06 1.6-3.81 3.22-1.7 1.51-1.7 1.51-3.82 2.57-2.4 1.21-2.9 2.51-3.87 4.94l-1-3c8.25-8.94 18.2-18.02 30.94-11.25" fill="#DEDFDF"/><path d="M504 588h1l.23 1.95q.53 4.47 1.08 8.93l.36 3.07a86 86 0 0 0 3.73 17c.6 2.05.6 2.05.6 5.05-1.88-.56-1.88-.56-4-2-1.63-4.29-2.23-8.5-2.72-13.02-.44-3.08-1.38-6-2.28-8.98q-.54-2.5-1-5h2z" fill="#DFDFE1"/><path d="M501 569h2c1.07 9.02 1.1 17.94 1 27l-4-2 .07-1.83.05-2.42.08-2.39c-.22-2.58-1.01-4.1-2.2-6.36.38-2.25.38-2.25 1-4h2z" fill="#EBEBED"/><path d="m817 401 3 2c.13 2.75.15 5.28 0 8 0 3 0 3 .5 5.56.55 3.78.53 7.36.44 11.17C821 430 821 430 822 433l-3 1c-1.83-7.46-2.25-14.47-2.12-22.12l.02-3.19z" fill="#F0F2F1"/><path d="M565.5 95.38a99 99 0 0 0 16.88 2.4c6.97.58 6.97.58 9.62 3.22-12.73.72-24.57-1.44-37-4v-2c3.82-1.4 6.62-.58 10.5.38" fill="#DFDFE1"/><path d="m455.88 651.94 2.93.03 2.19.03a21 21 0 0 1-8.2 2.68l-2.4.3-2.52.34c-7.43 1.05-13.49 2.6-19.88 6.68l-3.12 1.82L423 665l-2-2c9.04-7.9 23.1-11.2 34.88-11.06" fill="#E2E2E4"/><path d="m728.1 681.9 2.99.01 3.1.03 3.14.01 7.67.05v1l-6.15.68C737 684 737 684 736 685q-5.33.23-10.68.33c-3.32.67-3.32.67-5.12 3.13L719 691c-2.18 1.31-2.18 1.31-4 2 1.15-3.88 2.23-7 5-10 3-1 4.98-1.12 8.1-1.1" fill="#DDDFDE"/><path d="M447 74h2c.59 27.11.59 27.11-4 34a19 19 0 0 1-1-8l1-1q.32-4.31.5-8.62c.24-5.53.62-10.92 1.5-16.38" fill="#E9ECE9"/><path d="M684 78c1.92.53 1.92.53 4 2a46 46 0 0 1 1.31 7.56l.24 2.19c.61 6.35.49 12.12-1.55 18.25l-3 1c-.13-6.4-.13-6.4.49-9.36.57-2.95.68-5.7.7-8.7l.04-3.1c-.23-2.86-.88-4.36-2.23-6.84z" fill="#ECEDEE"/><path d="M926 579c2.17-.01 2.17-.01 4.48-.19l2.53-.18 5.26-.4 2.52-.17 2.3-.18C945 578 945 578 947 580c-5.69 2.43-11.06 2.3-17.12 2.25l-3 .02h-2.89l-2.61-.01A14.6 14.6 0 0 1 915 580c4.21-1.38 6.76-2.13 11-1" fill="#DBDBDE"/><path d="M478 328h1l1 36c-3.22-4.3-3.22-5-3-10l-1-2c-.57-8.18.41-15.99 2-24" fill="#F3F3F5"/><path d="m622 297-3 2 1 2a53 53 0 0 1-17 6v-2h-6v-1l3-.25c4.5-.64 8.03-2.64 12-4.75 6.45-3.18 6.45-3.18 10-2" fill="#050807"/><path d="M427 230c1.92 2.87 2.93 5.34 4.12 8.56 2.61 6.42 6.29 11.3 10.88 16.44-3.63 0-4.87-1.27-7.6-3.52-1.61-1.7-2.39-3.37-3.4-5.48l-2.69-3.75c-2.02-3.14-2.61-5.03-2.12-8.75z" fill="#DDDDDE"/><path d="M977 617c-2 3-2 3-3.85 3.62l-2.21.38a48 48 0 0 0-9.44 2.75c-4.88 1.73-8.68.83-13.5-.75v-1l1.76-.34q3.96-.75 7.93-1.54l2.76-.52c15.4-3.03 15.4-3.03 16.55-2.6" fill="#D5D7D5"/><path d="M451 50h2l-.4 3.66A642 642 0 0 0 450 83h-1c-2.09-11.31-2.03-20.85 1-32z" fill="#DADBDA"/><path d="m666 203 4 2-1 3.69c-.63 2.47-1 4.43-1 7 0 2.81-.84 4.77-2 7.31h-2l-1 4a70 70 0 0 1 1.5-16.5l.43-2.2z" fill="#DEDDDF"/><path d="M874 610a184 184 0 0 1 14.88 5.62l2.37.99L897 619l-1 3a61 61 0 0 1-13-5l-2.31-.5-1.69-.5-1-3c-2.06-.69-2.06-.69-4-1z" fill="#EEEFF0"/><path d="m784 597 1 4h2c-1.39 7.36-2.59 13.49-9 18z" fill="#DADADB"/><path d="m803 540 1 2h2c.19 2.81.19 2.81 0 6-1.31 1.44-1.31 1.44-3 3l-1.5 3.56C800 558 800 558 797 560l4-17h2z" fill="#E2E3E5"/><path d="m678 149 2 2-.94 3a39 39 0 0 0-1.44 8c-.45 4.41-2.24 7.31-4.62 11-1.48-3.93-.58-7.47.25-11.44l.37-1.98A27 27 0 0 1 678 149" fill="#E5E7E8"/><path d="m601.75 100.88 2.57.28c3.41.38 6.41.76 9.68 1.84-6.04 4.03-14.33 1.78-21 .5q-1.15-.2-2.35-.44-2.83-.52-5.65-1.06v-1c5.79-1.11 10.91-.81 16.75-.12" fill="#DFE1DB"/><path d="M490 210h-2v2h-6v5c-5.75.12-5.75.12-8-1v-2h-4v-2l2.96-.4 3.85-.54 3.83-.52c7.42-1.19 7.42-1.19 9.36-.54" fill="#E3CF57"/><path d="M491 646v1l-3.84.59-5.1.79-2.52.38c-4.88.76-9.68 1.67-14.48 2.85-3.38.64-6.63.51-10.06.39 5.08-2.82 10.67-3.56 16.31-4.69l3.38-.72c5.78-1.17 10.54-1.96 16.31-.59" fill="#EBEBEC"/><path d="M717 692c0 3 0 3-1.5 4.5l-1.94 1.5c-3.45 2.68-3.45 2.68-4.56 6h-6v-4l1.64-.77 2.17-1.04 2.15-1.02c2.04-1.17 2.04-1.17 3.61-2.74C714 693 714 693 717 692" fill="#EBEBEF"/><path d="M680 129c3.36 6.64 3.36 6.64 2.25 10.81-3.83 9.77-3.83 9.77-6.25 12.19.79-7.77 2.42-15.36 4-23" fill="#E0E2E3"/><path d="M492 192h6v2h4v-2h2v4h2l-1 2-12-5 .12 3.25c-.11 3.41-.33 4.96-2.12 7.75-1.46-4.52-.27-7.52 1-12" fill="#1D1805"/><path d="m859 599 1.72 1.17c4.67 3.15 9.36 6.11 14.28 8.83l-1 2c-6.26-1.48-10.92-5.24-16-9z" fill="#E2E5E4"/><path d="m865 545 2.19 2.25c2.81 2.75 2.81 2.75 5.37 4.69 2.81 2.37 4.52 4.94 6.44 8.06-3 0-3 0-4.9-1.54-3.85-3.94-7.26-7.73-10.1-12.46z" fill="#DEE0E0"/><path d="M499 524h1v16c-4-4-4-4-4.43-6.07.32-5.71.32-5.71 1.43-7.93h2z" fill="#F6F6F7"/><path d="m769 646 2 2-2 3 1.94.37c5.11.99 10.08 2.12 15.06 3.63l-1 2-17-4-1-5z" fill="#EBECEE"/><path d="m789 586 2 1c-.47 4.82-1.29 7.99-4 12q-1.02 2-2 4c-1.86-3.71-.06-8.14 1-12 1.62-3.12 1.62-3.12 3-5" fill="#EFEFF2"/><path d="m521 238 1 2h9c-1.12 2.5-1.12 2.5-3 5-3.12.38-3.12.38-6 0-1-1-1-1-1.06-4.06z" fill="#5C5961"/><path d="M504 588h1l2 20-4-2c-.69-3.94-.69-3.94-.82-6.03C502 598 502 598 501 595h2z" fill="#D4D4D6"/><path d="M461 193c2.38 2.38 2.92 4.27 4 7.44 1.11 3.26 2.07 5.67 4 8.56l-4 1c-3.38-5.45-3.67-10.68-4-17" fill="#828568"/><path d="m719.19 673.31 1.8.7-2 1c-.4 2.27-.4 2.27-.61 5.05l-.23 2.8L718 685l-4-2c-.36-6.42-.36-6.42 1.25-9 1.75-1 1.75-1 3.94-.69" fill="#03050B"/><path d="M493 193c5.83 1.46 9.97 3.5 14 8l-1 2-2-1v-2h-2v-2h-4v-2h-4v5l-2 1z" fill="#B0A55D"/><path d="m583 218 1 4h-2v4h-2l1 5h-2l-1 2-6-1 2.12-1.38c3.98-3.62 6.28-7.95 8.88-12.62" fill="#CBC062"/><path d="M598 214c2 1 2 1 2.75 3.06.39 4.55-.7 8.83-2.75 12.94l2 1-5 1 .96-2.07c1.18-3.33 1.45-6.23 1.66-9.74l.23-3.52z" fill="#1E180B"/><path d="M624 97c1 4 1 4 0 7-6.05.2-6.05.2-8 0l-2-2z" fill="#1C1E16"/><path d="M558 94c-4.19 2.79-7.56 2.45-12.46 1.55q-3.29-.73-6.54-1.55v-1c6.23-1.81 12.8-.4 19 1" fill="#D6D7D8"/><path d="M427 204h2c.56 1.94.56 1.94 1 4l-1 1a63 63 0 0 0 0 4.12c.05 4.09-.32 7.86-1 11.88l-2-1c-.13-6.74.2-13.3 1-20" fill="#1F2021"/><path d="M989 610c-1.07 3.1-1.98 3.98-4.81 5.75A15.7 15.7 0 0 1 976 617v-2l5.38-2.5 3.02-1.41C987 610 987 610 989 610" fill="#DAD9DD"/><path d="M584 207c4.92.98 6.41 1.82 10 5h-4v-2h-4v8h-2z" fill="#DCCD62"/><path d="M799 558c1.54 3.08.51 5.54-.25 8.8-.96 2.83-2.39 4.39-4.75 6.2-.56-5.61 1.21-9.3 4-14z" fill="#E9EAE8"/><path d="m674 169 3 1c1 3 1 3-.25 5.69L675 178h-3c.88-7.88.88-7.88 2-9" fill="#F5F5F9"/><path d="M552 216h1l.19 2.27c.99 7.94.99 7.94 3.5 10.35 1.93 1.07 1.93 1.07 5.31 2.38l-2 1-1 2c-2-1.38-2-1.38-4-3v-2h-2c-1.32-2.64-1.1-4.68-1.06-7.62l.02-3.04z" fill="#757A56"/><path d="M590 205v3h5l-1 3-10-4v11h-1v-12c3-1 3-1 7-1" fill="#2C2C16"/><path d="m437 657-1.62.75C433 659 433 659 430 661a51 51 0 0 1-7 4l-2-2 3.25-2.44 1.83-1.37c3.55-2.2 6.81-2.3 10.92-2.19" fill="#DBDCDE"/><path d="M1019 526q2.84-.08 5.69-.12l3.2-.08c4.17.27 7.01 1.1 9.99 4.08 1.12 2.12 1.12 2.12.81 4.37L1038 536l-1.75-2.88c-2.22-3.08-2.87-3.83-6.25-5.12-2.8-.41-2.8-.41-5.75-.62l-2.98-.23-2.27-.15z" fill="#C6C6C6"/><path d="m431 170 2 1-.44 4.88-.24 2.74C432 181 432 181 431 183l-3-1 .94-4.31.52-2.43C430 173 430 173 431 170" fill="#EDEEEF"/><path d="M444 123h1l-1 13h-2l1 5h-2q.17-3.1.38-6.19l.21-3.48A26 26 0 0 1 444 123" fill="#27282B"/><path d="M501 586h2c1.61 3.21 1.06 6.44 1 10l-4-2q-.06-3.5 0-7z" fill="#F6F7F7"/><path d="M982 562c-1.21 3.62-2.3 4.15-5.44 6.19l-2.43 1.6C972 571 972 571 970 571c1.69-5.08 6.7-9 12-9" fill="#DEDEE1"/><path d="M740 286c3.71.6 5.86 2.22 8.75 4.56L753 294l-1 2q-3-1.92-6-3.88l-1.73-1.1A84 84 0 0 1 740 288z" fill="#DDDDDC"/><path d="M564 226h6l1 5-5 1v-2h-2z" fill="#0C0E0F"/><path d="m507 198 1 2h2v8h-2v4h-2z" fill="#261907"/><path d="M435 159h2c-.71 4.76-1.8 9.34-3 14l-2-2c.21-2.57.21-2.57.81-5.56l.58-3.01C434 160 434 160 435 159" fill="#D7D7D9"/><path d="M703 701v3l-21-1v-1l8.25-.5 2.36-.14 2.28-.14 2.1-.13c2-.09 4-.09 6.01-.09" fill="#D1D4D4"/><path d="M500 543h1v15l-3-2c-.46-4.81.25-8.52 2-13" fill="#F6F5F8"/><path d="M850 520h3q1.05 2.15 2.06 4.31l1.16 2.43C857 529 857 529 856 532c-2.68-2.32-3.66-4.32-4.69-7.69l-.76-2.45z" fill="#D4D8DB"/><path d="M497 494h1v10h-3l-1-7 3-1z" fill="#F7F7F9"/><path d="m817 401 3 2c.26 1.88.26 1.88.12 4-.21 3.83-.21 3.83.88 6l-4 1z" fill="#F3F3F3"/><path d="M807 370h2l2 5.81 1.12 3.27C813 382 813 382 813 385h-2l-2-5.25-1.12-2.95C807 374 807 374 807 370" fill="#1F2121"/><path d="M698 263c5.24.41 8.24 1.24 12 5v2l-4.31-1.31-2.43-.74c-2.37-1-3.63-1.98-5.26-3.95z" fill="#E1E2E2"/><path d="M494 55c3.85.54 5.32 2.12 7.75 5.06l1.86 2.23L505 64l-3 1-4-3.88-2.25-2.17C494 57 494 57 494 55" fill="#DDD"/><path d="M832 570c3.18 3.89 6.11 7.9 9 12l-2 2a415 415 0 0 1-3.5-4.75l-1.97-2.67C832 574 832 574 832 570" fill="#DCDDDF"/><path d="M801 538h1c-.45 5.27-1.08 10.02-3 15h-2l1-9h2l-.06-2.44C800 539 800 539 801 538" fill="#060807"/><path d="M560 232h10l-4 2v4l-6-3z" fill="#AAA236"/><path d="M818 412c2.36 2.36 2.49 3.78 3 7h-2v8c-2.18-3.27-2.25-4.27-2.19-8.06l.02-2.66C817 414 817 414 818 412" fill="#EAE9E8"/><path d="M437 243h3a41 41 0 0 1 1 6l-2 3c-4-4.75-4-4.75-4-7h2z" fill="#0D0B0C"/><path d="m682 75 2 2-1 3-1.94-1.88c-3.88-2.69-7.46-3.36-12.06-4.12v-1c5.45-1.2 8.26-.98 13 2" fill="#CECED2"/><path d="M556 673c-8.26 4.59-8.26 4.59-13 4l1-2h4v-2c3.09-.99 4.9-.88 8 0" fill="#06080F"/><path d="M766 648c2 3 2 3 2 5h2l-1 5-1-2h-4z" fill="#B2B3B6"/><path d="M497 450h1l1 12-1-4h-2l-1 2c-.69-1.62-.69-1.62-1-4 1.44-3.25 1.44-3.25 3-6" fill="#ECEDED"/><path d="M816 391c2.46 3.69 2.31 5.64 2 10l-2 3c-1.33-3.99-1.14-7.84-1-12z" fill="#D7D7D9"/><path d="M752 292q1.98 1.42 3.94 2.88l2.21 1.61C760 298 760 298 761 300l-3 1c-3.17-1.96-4.74-3.13-5.81-6.75z" fill="#E4E4E2"/><path d="m555 224 1 2h2v2l1.75.44L566 230v2c-8.01-.77-8.01-.77-11-4z" fill="#1E200A"/><path d="M660 247c6.4.49 6.4.49 9.44 3.06L671 252c-3.91 0-6.51-1.32-10-3z" fill="#CECED1"/><path d="M494 196h2c.25 5.62.25 5.62-2 9-2.62 1.19-2.62 1.19-5 2 1.15-2.47 2.05-4.05 4-6 .62-2.62.62-2.62 1-5" fill="#CDBD55"/><path d="m684 106 3 2c-.49 6.05-.49 6.05-1 8l-3 2z" fill="#D5D4D4"/><path d="m590 99 2 2q-2.68.07-5.38.12l-3.02.08c-2.6-.2-2.6-.2-4.6-2.2 3.99-.84 7.07-1.2 11 0" fill="#F3F3F5"/><path d="M648 83c-7.71 6-7.71 6-11 6 1.09-3.17 2.01-4.01 4.94-5.81C645 82 645 82 648 83" fill="#DBDCDD"/><path d="M484 294c.12 6.75.12 6.75-1 9l-4-1 1-2.38c1-2.62 1-2.62 1-4.62 2-1 2-1 3-1" fill="#EDEFEF"/><path d="M448 263c3.37 1.39 4.99 2.98 7 6l-2 2-6-7z" fill="#E9EBE8"/><path d="M504 210h2c-.65 2.93-1.35 4.58-3.91 6.22q-3 1.49-6.09 2.78v-3h4v-2h2v-2h2z" fill="#BFAE58"/><path d="m466 208 1.67.96c2.61 1.17 4.74 1.44 7.58 1.66l2.7.23 2.05.15v1l-13 1z" fill="#CEC37B"/><path d="M466 204h4l1 5 9 1v1a46 46 0 0 1-10 0c-2.62-2.38-2.62-2.38-4-5z" fill="#37330A"/><path d="M671 176a21 21 0 0 1 3 4c-.12 2.12-.12 2.12-1 4l-3 2c-.12-6.62-.12-6.62 1-10" fill="#DEDEE2"/><path d="M447 74h2v10l-3-1z" fill="#F0F3F1"/><path d="m457 40 2 1-6 9-3-1 2.94-3.94 1.65-2.21C456 41 456 41 457 40" fill="#E7E8E8"/><path d="M780 617c1.26 3.77.37 5.37-1 9h-2c-.37-5.54-.37-5.54 1.5-7.88z" fill="#E9EAE9"/><path d="M697 602h1v19h-1l-.18-1.86-.26-2.45-.24-2.43C696 612 696 612 695 609h2z" fill="#2A2E2A"/><path d="m989 553 1 3-7 7-3-2 1.46-.99 1.92-1.32 1.89-1.3C987 556 987 556 989 553" fill="#E8E8EA"/><path d="M678 139c1.7 2.61 2.01 3.9 1.81 7.06-.82 2.96-1.44 4.08-3.81 5.94.52-4.38 1.06-8.69 2-13" fill="#C8CAC9"/><path d="M801 550c.69 1.69.69 1.69 1 4-2.26 4.63-2.26 4.63-5 6l.88-4.44.49-2.49.63-2.07z" fill="#D2D4D2"/><path d="M450 655v1l-2.15.4-2.79.54-2.77.52C440 658 440 658 439 659q-3 .06-6 0a30.4 30.4 0 0 1 17-4" fill="#CCCCCF"/><path d="M759 300c3 0 3 0 5.56 2.44L767 305l2 1-1 3-3.38-2.81-1.89-1.58C761 303 761 303 759 300" fill="#EBECEC"/><path d="M501 217v2c-2.3 2.22-3.52 2.97-6.75 3.19L492 222v-3c6.75-2 6.75-2 9-2" fill="#28210B"/><path d="M474 214h8v3c-5.75.12-5.75.12-8-1z" fill="#DDC654"/><path d="M503 65c4.79.81 6.14 3.26 9 7-3 0-3 0-4.61-1.53l-3.18-3.94z" fill="#CED0D1"/><path d="M820 550h2v2h2l2 7h-2c-4-5.29-4-5.29-4-9" fill="#070708"/><path d="M824 457h2l3 10h-3z" fill="#1F2021"/><path d="M497 444c2.6 3.9 2.15 7.47 2 12l-.88-1.94C497 452 497 452 495 451z" fill="#C4C6C7"/><path d="M489 416h2l1 8h-2l-3-6z" fill="#DCDBDF"/><path d="M512 625h1v10l2 1-4 3z" fill="#48484B"/><path d="m915 623 9 1c-4.36 2.18-5.47 2.03-10 1z" fill="#DADDDA"/><path d="m826 566 5 1 1 7c-3.06-2.04-3.6-2.81-5-6z" fill="#EBEBF0"/><path d="M878 560c2.31.19 2.31.19 5 1a24 24 0 0 1 3 5c-3.26-.35-4.02-1.02-6.25-3.56z" fill="#ECEEEE"/><path d="M429 183h2l-1 10c-2.64-5.27-2.64-5.27-3-8z" fill="#E0E1E1"/><path d="M439 133h2v8l-3-1z" fill="#ECEEF1"/><path d="M606 102h8c-1.9 1.9-3.33 2.94-6.05 3.2q-2.98-.03-5.95-.2l4-1z" fill="#AEB0AB"/><path d="M509 642h2c1.11 3.33.84 5.62 0 9h-2z" fill="#2B2B2E"/><path d="M505 605c2.3 3.44 2.54 5.94 3 10h-2c-1.61-3.21-1.06-6.44-1-10" fill="#ECECEF"/><path d="m1027 574 2 1c-.81 2.44-.81 2.44-2 5l-3 1c.75-4.75.75-4.75 3-7" fill="#E9EAEC"/><path d="m830 469 4 1 1 6-3 1z" fill="#E4E6E4"/><path d="m486 410 4 2-1 5-2-1c-.62-3.06-.62-3.06-1-6" fill="#E8E8EB"/><path d="M684 78c1.94.69 1.94.69 4 2 .75 2.62.75 2.62 1 5h-3c-1.46-2.65-2-3.89-2-7" fill="#E7E7E8"/><path d="m1023 579 3 1c-.69 1.94-.69 1.94-2 4-2.62.75-2.62.75-5 1z" fill="#DEE0E0"/><path d="m793 570 4 2c-.81 1.94-.81 1.94-2 4l-3 1z" fill="#D8D9D7"/><path d="m969 569 1 3c-2.35 1.43-3.48 2.09-6.25 1.62L962 573z" fill="#E8EAEC"/><path d="M499 514h1q.05 2.43.06 4.88l.04 2.74C500 524 500 524 499 526h-2z" fill="#DADADC"/><path d="M496 441h1l-1 10-3-4z" fill="#F3F3F7"/><path d="M477 356h3v8c-2.62-3.06-3-3.73-3-8" fill="#F5F5F7"/><path d="m549 93-1 2-9-1v-1c3.7-.95 6.3-.95 10 0" fill="#CACDCD"/><path d="m641 647 5 1-1 4-4-2z" fill="#ADAFB0"/><path d="M984 615c-3.09 1.76-4.23 2-8 2v-2c3.29-1.1 4.71-.8 8 0" fill="#E6E3E8"/><path d="m996 608-7 5v-4c3.62-2.12 3.62-2.12 7-1" fill="#E8E9EB"/><path d="M859 599q3.03 1.95 6 4v1c-2.38.19-2.38.19-5 0l-2-3z" fill="#DDDDDF"/><path d="m874 554 5 5-2 2-5-6z" fill="#CDD0D2"/><path d="M465 277c2.38.25 2.38.25 5 1 1.31 2.06 1.31 2.06 2 4-3.65-1.25-4.78-1.67-7-5" fill="#EBEDEC"/><path d="m586 207 8 4-4 1v-2h-5z" fill="#CCC363"/><path d="M461 193c2.41 2.41 2.68 3.65 3 7l-2 4z" fill="#4A4E47"/><path d="M595 100v2l2 1-12-1v-1c6.62-1 6.62-1 10-1" fill="#CCCDCA"/></svg>