<svg style="background:transparent" version="1.1" xmlns="http://www.w3.org/2000/svg" viewBox="0 0 1248 704"><path d="M522.37 10.05A54 54 0 0 1 528 14l3 2.18 2 1.82v2l1.7.26c2.94.94 4.69 2.45 7.05 4.42q5.65 4.66 11.53 9.02 2.1 1.6 4.16 3.3a94 94 0 0 0 6.88 4.81 74 74 0 0 1 10.47 8.38c6.16 5.02 10.85 7.56 18.88 7.42l2.5.02q4.05 0 8.1-.04h5.66q5.92 0 11.83-.05 7.57-.06 15.16-.04 5.84 0 11.67-.03h5.6q3.9-.01 7.8-.05h2.33c5.24-.08 5.24-.08 7.54-1.87L673 54l2.29-1.35c3.95-2.4 7.26-5.48 10.72-8.54a50 50 0 0 1 8.59-6.22 55 55 0 0 0 8.4-5.77l2.58-2.1q3.14-2.63 6.24-5.34C718.39 19 718.39 19 722 19l.66-1.8c1.79-2.94 3.75-3.83 6.78-5.39l2.93-1.55c6.2-2.99 11.16-2.34 17.63-.26 6.4 3.9 11.12 7.55 13 15 2.47 13.06 2.47 13.06 0 18q-.22 2.73-.31 5.47-.08 1.7-.13 3.44l-.12 3.71-.13 3.78q-.46 13.97-.27 27.95c.04 4.7-.15 9.02-1.04 13.65a127 127 0 0 0-.03 6.94L761 110v3l.03 6.45.08 31.37q0 8.7.04 17.37.04 8.4.04 16.8l.02 6.4.02 8.95.02 2.66a42 42 0 0 1-2.25 14l-.67 2.37c-5.1 16.54-18.7 27.6-32.64 36.88-4.57 3.28-4.57 3.28-5.56 7.12 1.1 4.61 2.36 9.13 3.87 13.63l1.07 3.31a172 172 0 0 0 8.93 20.7l1.94 3.86 1.02 2.05 4.1 8.2 2.6 5.17c1.58 3.2 2.98 6.43 4.34 9.71l.94 2.17c2.53 6.03 4.32 12.13 6.05 18.43.9 3.03 1.96 5.86 3.2 8.77 1.8 4.27 2.34 8.03 2.8 12.63l1.08 2.12c1.3 2.63.93 4.95.93 7.88l1 3.5c.98 3.41 1.08 5.98 1 9.5l.5 2.5c.58 2.88.57 5.56.5 8.5 0 3 0 3 .49 4.8 1.89 8.18 1.16 19.25-1.5 27.2l.08 2.87c-.07 3.3-.82 5.12-2.07 8.13q-.58 3.48-1 7l1.9-.44c11.7-2.54 21.56-1.89 32.1 4.44 5.44 4.1 11.7 9.02 13 16l2 1 .38-3.13A60 60 0 0 1 814 464l.44-3.5c.6-3.7 1.8-6.22 3.56-9.5q.55-2 1-4a69 69 0 0 1 5-12l.94-1.99c3.24-6.76 7.22-11.22 12.92-16.05 2.97-2.73 5.47-5.8 7.99-8.95 2.26-2.1 4.39-3.13 7.25-4.25 1.97-.79 3.8-1.7 5.66-2.7 7.95-4.19 15.34-7.4 24.24-9.06l2.23-.56c7.78-1.25 15.92-.65 23.77-.44l2.3.05c24.88.91 48.98 16.53 67.97 31.57q2.4 1.89 4.8 3.74C991.1 431.8 996.44 437.3 999 446c.54 5.23-.66 9-3.68 13.25-4.08 4.9-8.94 10-15.47 11.12-15.01.42-28.5-10.1-40.48-18.14-13.51-8.82-30.26-14.47-46.37-13.23a36 36 0 0 0-21.62 14.75c-5.67 9.5-9.72 21.11-10.23 32.21-.23 3.13-1.26 6.03-2.15 9.04v2.5c0 3.38-1.05 6.25-2 9.5l-.43 3.37a58 58 0 0 1-2.82 10.45 85 85 0 0 0-1.62 5.43C849.06 536.48 845.1 546.2 839 555l-1.15 1.68c-6.31 9.06-13.51 17.34-22.85 23.32l-4.25 3.37c-5.91 4.63-11.92 9-19.25 10.94-9.35 2.85-15.52 11.75-21.33 19.11a65 65 0 0 1-8.4 8.1A90 90 0 0 0 755 628c-2.61 2.67-4.9 4.92-8 7l1.5.77c7 3.95 11.92 9.2 14.88 16.73l.62 3.5.58 2.15c.77 3.62 1.02 5.83-.9 9.1-6.75 7.97-13.5 9.66-23.58 10.58-10.53.81-19.9.18-30.1-2.83q-2.62-.62-5.25-1.19l-3.75-.8 1.39 1.24c5.7 5.37 9.45 9.61 9.77 17.7l-.06 4.33-.02 2.25L712 704q-14.18.17-28.34.25-6.6.05-13.17.12-6.34.1-12.7.1l-4.84.05q-3.4.06-6.8.04l-3.9.04c-3.25-.6-3.25-.6-5.62-2.99-3.01-4.83-3.9-8.99-4.63-14.6l-1-3c-.45-6.05.04-11.25 2-17l1-4h-16l2 4c.16 2.83.16 2.83.07 5.92-.12 3.9.13 7.26.93 11.07-.37 2.37-.37 2.37-1 5l-.25 3.31c-.98 4.84-1.8 8.47-5.75 11.7-5.44 1.2-10.85 1-16.38.87h-4.88q-5.1-.03-10.2-.12-6.54-.1-13.08-.1-5.02-.01-10.05-.07l-4.83-.03q-3.37-.03-6.73-.1-1.9-.01-3.87-.05l-2.98-.4c-2.4-3.6-2.71-5.88-2-10 3.6-11.12 8.53-17.38 18-24-3.55.6-6.83 1.23-10 3-.81 2.61-.81 2.61-1 5h-3l-1-3-5.81.92-3.27.53C530 677 530 677 527 678c-3.52.11-7.04-.1-10.56-.25l-2.88-.09c-7.88-.33-16.32-.92-22.06-6.85-2.7-3.7-4.81-7.12-4.5-11.8a75 75 0 0 1 6-12q.74-1.37 1.53-2.75c1.97-3.03 4.4-4.39 7.47-6.26q2.01-1.49 4-3l-1.72-1.33c-13.15-10.14-13.15-10.14-16.96-14.92C485 616 485 616 483.1 615.08c-6.21-3.2-10.73-10.75-14.8-16.3-1.11-1.53-2.3-3-3.48-4.47a68 68 0 0 1-4.82-7.3l-3.5-5.39A71 71 0 0 1 450 569l-2.06-4.5c-2.61-5.89-4.08-11.9-5.37-18.2-.57-2.3-.57-2.3-1.56-5.16a56 56 0 0 1-2.07-9.89l-.47-3.43L438 524l-.28-2.33c-2.03-18.03-.38-36.9 9.28-52.67l3-1 .4-1.84c1.27-4.6 6.72-6.86 10.6-9.16 7.62-4.06 16.59-3.7 25-3 2.48 1.01 2.48 1.01 4 2l-.93-5.69-.53-3.2q-.47-2.74-1.03-5.46c-.92-4.82-1.22-9.7-1.63-14.59l-.3-3.25c-.44-5.17-.67-9.7.42-14.8q.03-2.65-.06-5.26a55 55 0 0 1 1.49-13.09c.66-3.06 1.12-6.13 1.57-9.23a122 122 0 0 1 5-21.43l1.15-3.45 1.89-5.65q1.55-4.65 3.07-9.3l1.02-3.1.88-2.72c2.16-6.06 4.92-11.8 7.8-17.53l1.06-2.12q3.07-6.08 6.38-12A95 95 0 0 0 523 291.6c1.13-2.94 2.38-5.83 3.63-8.73 1.92-4.64 3.48-8.93 4.37-13.87l.47-2.18A14 14 0 0 0 531 260c-4.22-5.17-9.26-8.69-15.15-11.73-4.67-3.22-8.21-7.97-11.85-12.27l-1.86-2.18c-3.74-4.64-5.54-9.13-7.14-14.82l-1.12-3c-1.98-6.8-2.02-13.88-1.97-20.92v-2.55q0-2.73.02-5.45l.02-8.76.06-21.8c.15-43.66.15-43.66-.44-64.3l-.06-2.16c-.21-7.3-.55-14.55-1.3-21.82a85 85 0 0 1-.21-9.43c.03-3.7.05-7.28-.5-10.94-1.26-9.79-1.52-20.43 3.38-29.25L495 16l1.69-2.13c7.58-6.15 16.54-7.89 25.68-3.82M689 665l1 3 2-2zm7 5 1 2 3-1z" fill="#151817"/><path d="m900.75 393.75 3.92-.06c8.24-.04 15.46.86 23.33 3.31l2.11.63c17.25 5.44 33.09 14.95 47.24 26.08q2.4 1.87 4.84 3.7c5.53 4.29 9.69 8.28 12.81 14.59l1 2c.8 5.43.7 9.76-2.56 14.31-3.74 4.37-7.93 7.85-13.44 9.69-5.93.42-9.92-.35-15.19-3.19l-2.04-1.05c-5.89-3.11-11.47-6.68-17.08-10.26-17.18-10.93-35-18.75-55.69-16.5a28 28 0 0 0-10 5l-2.13 1.47c-16.93 13.09-19.55 38.17-22.72 57.69A194 194 0 0 1 850 524l-.86 3.06C844.36 542.8 836.15 556.03 825 568l-2.18 2.48c-8.26 8.98-24.24 21.72-36.82 22.77l-2-.25c1.47-4.09 3.48-7.53 5.81-11.19 6.35-10.17 10.75-20.38 14.5-31.73q.93-2.78 1.89-5.55c4.24-13.25 5.22-27.68 4.77-41.55C811 501 811 501 812 500q.25-2.29.36-4.57c1.24-19.69 4.23-38.45 12.64-56.43l1.55-3.38c9.57-19.33 27.26-32.31 47.32-39.49 8.59-2.84 17.96-2.34 26.88-2.38" fill="#101312"/><path d="M522.37 10.05A54 54 0 0 1 528 14l3 2.18 2 1.82v2l1.7.26c2.94.94 4.69 2.45 7.05 4.42q5.65 4.66 11.53 9.02 2.1 1.6 4.16 3.3a94 94 0 0 0 6.88 4.81 74 74 0 0 1 10.47 8.38c6.16 5.02 10.85 7.56 18.88 7.42l2.5.02q4.05 0 8.1-.04h5.66q5.92 0 11.83-.05 7.57-.06 15.16-.04 5.84 0 11.67-.03h5.6q3.9-.01 7.8-.05h2.33c5.24-.08 5.24-.08 7.54-1.87L673 54l2.29-1.35c3.95-2.4 7.26-5.48 10.72-8.54a50 50 0 0 1 8.59-6.22 55 55 0 0 0 8.4-5.77l2.58-2.1q3.14-2.63 6.24-5.34C718.39 19 718.39 19 722 19l.66-1.8c1.79-2.94 3.75-3.83 6.78-5.39l2.93-1.55c6.2-2.99 11.16-2.34 17.63-.26 6.4 3.9 11.12 7.55 13 15 2.47 13.06 2.47 13.06 0 18q-.22 2.73-.31 5.47-.08 1.7-.13 3.44l-.12 3.71-.13 3.78q-.46 13.97-.27 27.95c.04 4.7-.15 9.02-1.04 13.65a127 127 0 0 0-.03 6.94L761 110v3l.03 6.45.08 31.37q0 8.7.04 17.37.04 8.4.04 16.8l.02 6.4.02 8.95.02 2.66a42 42 0 0 1-2.25 14l-.67 2.37c-5.1 16.54-18.7 27.6-32.64 36.88-4.57 3.28-4.57 3.28-5.56 7.12 1.1 4.61 2.36 9.13 3.87 13.63l1.07 3.31a172 172 0 0 0 8.93 20.7l1.94 3.86 1.02 2.05 4.1 8.2 2.6 5.17c1.58 3.2 2.98 6.43 4.34 9.71l.94 2.17c2.53 6.03 4.32 12.13 6.05 18.43.9 3.03 1.96 5.86 3.2 8.77 1.8 4.27 2.34 8.03 2.8 12.63l1.08 2.12c1.3 2.63.93 4.95.93 7.88l1 3.5c.98 3.41 1.08 5.98 1 9.5l.5 2.5c.58 2.88.57 5.56.5 8.5 0 3 0 3 .49 4.8 1.89 8.18 1.16 19.25-1.5 27.2l.08 2.87c-.07 3.3-.82 5.12-2.07 8.13q-.58 3.48-1 7l1.9-.44c11.7-2.54 21.56-1.89 32.1 4.44 5.44 4.1 11.7 9.02 13 16l2 1 .38-3.13A60 60 0 0 1 814 464l.44-3.5c.6-3.7 1.8-6.22 3.56-9.5q.55-2 1-4a69 69 0 0 1 5-12l.94-1.99c3.24-6.76 7.22-11.22 12.92-16.05 2.97-2.73 5.47-5.8 7.99-8.95 2.26-2.1 4.39-3.13 7.25-4.25 1.97-.79 3.8-1.7 5.66-2.7 7.95-4.19 15.34-7.4 24.24-9.06l2.23-.56c7.78-1.25 15.92-.65 23.77-.44l2.3.05c24.88.91 48.98 16.53 67.97 31.57q2.4 1.89 4.8 3.74C991.1 431.8 996.44 437.3 999 446c.54 5.23-.66 9-3.68 13.25-4.08 4.9-8.94 10-15.47 11.12-15.01.42-28.5-10.1-40.48-18.14-13.51-8.82-30.26-14.47-46.37-13.23a36 36 0 0 0-21.62 14.75c-5.67 9.5-9.72 21.11-10.23 32.21-.23 3.13-1.26 6.03-2.15 9.04v2.5c0 3.38-1.05 6.25-2 9.5l-.43 3.37a58 58 0 0 1-2.82 10.45 85 85 0 0 0-1.62 5.43C849.06 536.48 845.1 546.2 839 555l-1.15 1.68c-6.31 9.06-13.51 17.34-22.85 23.32l-4.25 3.37c-5.91 4.63-11.92 9-19.25 10.94-9.35 2.85-15.52 11.75-21.33 19.11a65 65 0 0 1-8.4 8.1A90 90 0 0 0 755 628c-2.61 2.67-4.9 4.92-8 7l1.5.77c7 3.95 11.92 9.2 14.88 16.73l.62 3.5.58 2.15c.77 3.62 1.02 5.83-.9 9.1-6.75 7.97-13.5 9.66-23.58 10.58-10.53.81-19.9.18-30.1-2.83q-2.62-.62-5.25-1.19l-3.75-.8 1.39 1.24c5.68 5.34 9.55 9.8 9.85 17.81.05 4-.06 7.95-.24 11.94l-4-1 .1-2.6c.25-10.08-1.33-16.12-8.2-23.6-3.85-3.64-7.73-5.5-12.9-6.8v-9a71 71 0 0 1 8.57 3.84 275 275 0 0 1 5.93 3.15c10.33 5.34 20.7 6.5 32.19 6.38l3.5.04c15-.06 15-.06 20.49-4.89 3.2-3.68 2.7-7.73 2.69-12.4-.47-4.02-1.86-6.42-4.27-9.6C755 646 755 646 755 644l-1.64-.8a315 315 0 0 1-8.11-4.33L740 636a62 62 0 0 1 9.32-7.88c13.05-9.72 23.66-20.59 32.68-34.12 2.04-.86 2.04-.86 4.63-1.63 23-7.9 43.8-25.72 54.5-47.54 5.83-12.15 9.4-24.29 11.94-37.52l.78-4a470 470 0 0 0 3.33-18.67c2.43-15.38 8.03-32.18 20.7-42.14L880 441l2.07-1.54c8.49-5.29 19.66-5 29.2-2.98A98 98 0 0 1 926 442l2.07.92A151 151 0 0 1 949 454.5c4.99 3.3 10.06 6.3 15.38 9.06l1.94 1.05c5.37 2.7 10.07 3.36 16 1.76 5.55-2.87 9.86-6.72 12.68-12.37.82-6.2.27-11.34-3.08-16.66-7.97-9.74-19.34-16.76-29.92-23.34l-1.75-1.1c-17.57-10.87-36.16-18.09-56.91-18.09q-3 0-6-.04c-22.26-.03-40.96 7.55-57.1 22.87-7.96 8.4-12.78 17.83-17.24 28.36l-1.18 2.73c-5.06 12.67-7 26.64-8.33 40.14-.5 3.13-.5 3.13-2.5 6.13q-.33-1.57-.7-3.19c-2.85-12.52-6.43-22.95-17.62-30.36-9.45-5.05-20.08-4.93-30.16-1.92q-2.26.71-4.51 1.47l.26-1.87 1.18-8.5.4-2.94c2.9-20.98 3.97-42.75.16-63.69l-.31-1.97c-4.61-29.05-16.68-56.84-30.38-82.6-4.9-9.33-9.45-18.99-11.31-29.43l-.73-2.66c-.6-3.7-.54-5.78.73-9.34 4.49-4.64 10.33-7.89 15.7-11.42 11.85-8.15 19.6-19.37 22.37-33.58 1.06-6.05 1.23-11.95 1.24-18.08 0-1.16 0-2.3.02-3.5q.04-5.7.05-11.39l.05-8q.07-9.5.1-18.97l.19-33.69.07-13.62c.08-15.93.48-31.83 1.1-47.75a771 771 0 0 0 .49-19.82l.1-3.88c.08-7.26-.24-12.89-5.48-18.3-4.6-3.36-8.88-4.45-14.53-4.54-7.9 1.7-14.08 7.05-20.28 11.91l-5.6 4.32-2.82 2.2c-4.17 3.18-8.4 6.27-12.64 9.36A505 505 0 0 0 677 55.57L673.99 58l-1.67 1.62c-3.38 2-6.68 1.83-10.5 1.84l-2.5.04q-4.07.06-8.14.07l-5.7.04q-5.96.04-11.93.05-7.61.02-15.22.15-5.88.07-11.76.06l-5.61.06c-11.7.2-19.13-.42-27.97-8.93q-1.83-1.47-3.71-2.88l-3.22-2.56a676 676 0 0 0-16-12.24c-3.44-2.6-6.81-5.27-10.2-7.95-20.46-16.16-20.46-16.16-30.6-15.79-5.34.98-9.14 4.17-12.7 8.1-2.97 4.4-2.71 8.08-2.7 13.25V55.8l-.01 2.54q.04 7.4.5 14.8c.74 12.32.79 24.64.8 37l.05 11.9.02 4.1v2.07q.08 13.8.1 27.57 0 9.37.07 18.75l.03 9.87c-.02 22.46 1.18 40.01 17.57 56.6 5.44 5.25 11.49 9.7 17.56 14.17C533 257 533 257 534 258c2.15 18.91-8.6 38.1-17.43 54.25-16.47 30.37-26.75 66.04-26.88 100.62l-.01 2.27a186 186 0 0 0 3.96 38.65C494 456 494 456 494 460l-1.6-.44c-10.5-2.52-23.65-4.07-33.26 1.77-11.7 9.11-15.7 20.93-17.64 35.11-4.1 34.35 7.7 72.06 28.83 99.26q4.06 5.01 8.36 9.81 1.84 2.1 3.63 4.2c8.3 9.62 19.24 19.56 30.68 25.3v2q-.95.3-1.94.65c-7.52 2.76-13.35 5.96-17.5 13.02-2.2 4.96-2.38 10-1.56 15.32 1.78 3.22 3.08 4.48 6.25 6.25 19.09 5.2 39.68 1.62 57.19-6.63A79 79 0 0 1 565 662v8l-2.41 1.06c-8.32 3.88-14.6 7.84-18.06 16.7-1.24 5.3-1.31 10.81-1.53 16.24h-2c-2.4-3.59-2.71-5.87-2-10 3.6-11.1 8.53-17.37 18-24-3.55.6-6.83 1.24-10 3-.81 2.62-.81 2.62-1 5h-3l-1-3-5.81.93-3.27.53C530 677 530 677 527 678c-3.52.11-7.04-.1-10.56-.25l-2.88-.09c-7.88-.33-16.32-.92-22.06-6.85-2.7-3.7-4.81-7.12-4.5-11.8a75 75 0 0 1 6-12q.74-1.37 1.53-2.75c1.97-3.03 4.4-4.39 7.47-6.26q2.01-1.49 4-3l-1.72-1.33c-13.15-10.14-13.15-10.14-16.96-14.92C485 616 485 616 483.1 615.08c-6.21-3.2-10.73-10.75-14.8-16.3-1.11-1.53-2.3-3-3.48-4.47a68 68 0 0 1-4.82-7.3l-3.5-5.39A71 71 0 0 1 450 569l-2.06-4.5c-2.61-5.89-4.08-11.9-5.37-18.2-.57-2.3-.57-2.3-1.56-5.16a56 56 0 0 1-2.07-9.89l-.47-3.43L438 524l-.28-2.33c-2.03-18.03-.38-36.9 9.28-52.67l3-1 .4-1.84c1.27-4.6 6.72-6.86 10.6-9.16 7.62-4.06 16.59-3.7 25-3 2.48 1.01 2.48 1.01 4 2l-.93-5.69-.53-3.2q-.47-2.74-1.03-5.46c-.92-4.82-1.22-9.7-1.63-14.59l-.3-3.25c-.44-5.17-.67-9.7.42-14.8q.03-2.65-.06-5.26a55 55 0 0 1 1.49-13.09c.66-3.06 1.12-6.13 1.57-9.23a122 122 0 0 1 5-21.43l1.15-3.45 1.89-5.65q1.55-4.65 3.07-9.3l1.02-3.1.88-2.72c2.16-6.06 4.92-11.8 7.8-17.53l1.06-2.12q3.07-6.08 6.38-12A95 95 0 0 0 523 291.6c1.13-2.94 2.38-5.83 3.63-8.73 1.92-4.64 3.48-8.93 4.37-13.87l.47-2.18A14 14 0 0 0 531 260c-4.22-5.17-9.26-8.69-15.15-11.73-4.67-3.22-8.21-7.97-11.85-12.27l-1.86-2.18c-3.74-4.64-5.54-9.13-7.14-14.82l-1.12-3c-1.98-6.8-2.02-13.88-1.97-20.92v-2.55q0-2.73.02-5.45l.02-8.76.06-21.8c.15-43.66.15-43.66-.44-64.3l-.06-2.16c-.21-7.3-.55-14.55-1.3-21.82a85 85 0 0 1-.21-9.43c.03-3.7.05-7.28-.5-10.94-1.26-9.79-1.52-20.43 3.38-29.25L495 16l1.69-2.13c7.58-6.15 16.54-7.89 25.68-3.82M689 665l1 3 2-2zm7 5 1 2 3-1z" fill="#E2E4E5"/><path d="M673 495c1.28 2.91.96 4.12-.06 7.19-3.3 6.99-8.1 14.67-13.94 19.81-2.18.69-2.18.69-4 1v2c-2.48 1.73-2.48 1.73-5.75 3.62l-3.23 1.92C643 532 643 532 639 532l.18 1.67c1.79 17.26 2.17 34.42 2.14 51.75q-.01 4.43.02 8.85c.1 16.7-.3 33.23-1.8 49.86l-.2 2.27c-1.13 12.39-1.13 12.39-2.34 13.6q-2.45.13-4.91.1l-3-.01-3.15-.03-3.17-.01L615 660a362 362 0 0 1-4-50l-.07-3.94c-.37-24.4.71-48.7 2.07-73.06l-2.43-1.17c-13.08-6.4-25.04-15.04-30.88-28.94-.68-2.85-.72-4.2.31-6.89l1.73 2.09c10.03 11.62 23.65 22.87 39.48 24.45 16.5.9 29.99-6.4 42.17-17.1A85 85 0 0 0 673 495" fill="#000"/><path d="M739 470h1c.4 16.3-.41 31.9-3 48l-.69 4.58c-3.17 20.14-9.94 39.34-17.22 58.31C708.66 608.11 701.1 635.11 697 664c-1.8.62-1.8.62-4 1-2.7-1.63-4.2-2.54-6-5-.25-3.46-.25-3.46.44-7.38l.36-2.14q.38-2.2.8-4.39.52-2.8.94-5.59c2.96-17.47 9.53-34.36 15.74-50.89a861 861 0 0 0 20.06-60.39l1.71-5.68A414 414 0 0 0 739 470" fill="#000100"/><path d="M512 471c2.01 3.02 2.49 4.67 3.15 8.16l.6 3.13.63 3.33 1.33 6.87.67 3.39c3.59 18.04 8.84 35.58 15.08 52.88q2.38 6.64 4.41 13.41a372 372 0 0 0 7.57 21.71c5.44 14.59 10.54 29.15 14.25 44.31l.89 3.53A232 232 0 0 1 565 654l.33 2.15c.17 1.85.17 1.85-.33 4.85-3.12 2.7-4.83 4-9 4l-.41-2.89-1.56-10.71-.67-4.62c-2.16-15.19-2.16-15.19-4.63-21.8a67 67 0 0 1-1.95-6.47c-3.13-11.86-7.23-23.14-11.8-34.52A338 338 0 0 1 526 559l-1.56-4.56c-8.91-27.03-13.26-54.99-12.44-83.44" fill="#000101"/><path d="m825 569 2 1a226 226 0 0 1-20 16l-2.38 1.77a41 41 0 0 1-12.06 6.04c-9.96 3.39-16.07 11.61-22.4 19.61a64 64 0 0 1-8.38 8.1A88 88 0 0 0 755 628c-2.61 2.67-4.89 4.93-8 7l1.5.78c7.01 3.95 11.91 9.18 14.88 16.72l.62 3.5.57 2.15c.78 3.62 1.03 5.84-.89 9.1-6.75 7.97-13.49 9.67-23.58 10.59-10.53.81-19.9.18-30.1-2.84q-2.62-.62-5.25-1.19L701 673l1.39 1.25c5.68 5.34 9.55 9.79 9.85 17.82.05 3.98-.07 7.95-.24 11.93l-4-1 .11-2.6c.23-10.07-1.35-16.12-8.21-23.6-3.85-3.64-7.73-5.51-12.9-6.8v-9a73 73 0 0 1 8.57 3.84l1.97 1.03q2 1.05 3.96 2.12c10.32 5.35 20.69 6.5 32.19 6.39l3.51.03c14.99-.05 14.99-.05 20.48-4.89 3.19-3.68 2.7-7.73 2.69-12.4-.48-4.01-1.86-6.42-4.28-9.6C755 646 755 646 755 644l-1.64-.8a299 299 0 0 1-8.11-4.32l-2.98-1.64L740 636a62 62 0 0 1 9.31-7.88c13.06-9.71 23.67-20.59 32.69-34.12 2.04-.85 2.04-.85 4.62-1.62 12.08-4.15 24.56-11.26 33.43-20.52C822 570 822 570 825 569m-136 96 1 3 2-2zm7 5 1 2 3-1z" fill="#E8EAE9"/><path d="M813 520h2c2.52 17.65 1.51 33.96-5.91 50.34-1.09 2.66-1.09 2.66-1.58 5.34-.75 3.41-3.06 4.93-5.51 7.32l-.3 1.95c-.7 2.05-.7 2.05-3.25 3.75l-3.2 1.55-3.17 1.58A16 16 0 0 1 784 593c1.47-4.09 3.48-7.53 5.81-11.19 10.6-17 17.78-36.74 20.7-56.6C811 523 811 523 813 520" fill="#010201"/><path d="M522.37 10.05A54 54 0 0 1 528 14l3 2.18 2 1.82v2l1.7.26c2.94.94 4.69 2.45 7.05 4.42q5.65 4.66 11.53 9.02 2.1 1.6 4.16 3.3a94 94 0 0 0 6.88 4.81 66 66 0 0 1 8.62 6.7c3.74 3.38 7.77 5.85 12.16 8.32L587 58v1l83 1v1q-16.53.27-33.07.41-7.68.05-15.35.2-7.42.11-14.85.14-2.82.03-5.64.1c-10.34.22-17.85.33-26.02-6.85L573 53q-1.83-1.47-3.71-2.88l-3.22-2.56a676 676 0 0 0-16-12.24c-3.44-2.6-6.81-5.27-10.2-7.95-20.46-16.16-20.46-16.16-30.6-15.79-5.34.98-9.14 4.17-12.7 8.1-2.97 4.4-2.71 8.08-2.7 13.25v17.21c-.01 9.6.2 19.15.77 28.74.5 8.63.5 17.25.49 25.9v8.25c0 8.7-.03 17.32-1.13 25.97h-1l-.07-2.28q-.31-10.7-.66-21.4l-.34-11-.33-10.65-.18-5.98a275 275 0 0 0-1.21-19.43 85 85 0 0 1-.21-9.45c.03-3.7.05-7.28-.5-10.94-1.26-9.79-1.52-20.43 3.38-29.25L495 16l1.69-2.13c7.58-6.15 16.54-7.89 25.68-3.82" fill="#D7D8D8"/><path d="M474 603c4.01 1.55 6.33 4.39 9.06 7.56 8.28 9.3 18.75 18.84 29.94 24.44v2l-1.94.66c-7.52 2.76-13.35 5.96-17.5 13.03-2.2 4.95-2.39 9.99-1.56 15.31 1.78 3.22 3.07 4.49 6.25 6.25 19.09 5.21 39.68 1.62 57.19-6.63A78 78 0 0 1 565 662v8l-2.41 1.07c-8.33 3.87-14.6 7.83-18.07 16.69-1.23 5.3-1.3 10.82-1.52 16.24h-2c-2.39-3.58-2.71-5.87-2-10 3.6-11.11 8.52-17.37 18-24-3.55.61-6.83 1.24-10 3-.81 2.62-.81 2.62-1 5h-3l-1-3-5.81.94-3.27.52C530 677 530 677 527 678c-3.52.11-7.04-.1-10.56-.25l-2.89-.08c-7.87-.33-16.31-.92-22.05-6.86-2.69-3.71-4.81-7.12-4.5-11.81a75 75 0 0 1 6-12l1.52-2.73c1.98-3.04 4.41-4.39 7.48-6.27q2.01-1.49 4-3l-1.72-1.32c-13.16-10.15-13.16-10.15-16.97-14.93-2.31-2.75-2.31-2.75-4.19-3.63-2.77-1.46-4.34-3.38-6.37-5.74l-2.14-2.48L473 605z" fill="#E8E9EB"/><path d="M622.63 187.75c10.01.11 10.01.11 14.38 3.25 1.24 3.31 1.24 3.31 1 7-1.75 3.03-3.85 5.42-7 7a62 62 0 0 0-1.26 4c-.76 2.17-.76 2.17-1.75 4-2.93 1.25-2.93 1.25-6 1-2.32-1.63-2.32-1.63-4-4l-.37-2.44c-.62-2.56-.62-2.56-3.62-5-3-2.56-3-2.56-4.2-5.56.2-3 .2-3 2.57-5.81L615 189c1.9-1.9 5.09-1.22 7.62-1.25" fill="#606263"/><path d="M914.29 391.9c22.8-.62 47.9 17.2 64.98 30.73q2.4 1.89 4.8 3.73C991.1 431.8 996.45 437.3 999 446c.55 5.23-.65 8.99-3.68 13.25-3.3 3.96-6.74 7.68-11.57 9.69L982 469l-2-2 3.63-1.56A24.6 24.6 0 0 0 995 454c.82-6.2.27-11.33-3.08-16.65-7.97-9.75-19.34-16.76-29.92-23.35l-1.75-1.1c-15.12-9.35-33-17.64-50.96-18.21a405 405 0 0 0-7.66-.25l-3.96-.13L888 394v-1l11.5-.5 3.27-.14z" fill="#DDDEE1"/><path d="M616 661h20l-.11 6.03-.05 5.87-.1 6c-.08 9.55.83 17.08 6.26 25.1-2.65-.37-3.78-.76-5.62-2.75-2.85-4.65-3.68-8.87-4.38-14.25l-1-3c-.45-6.04.04-11.23 2-17l1-4h-16l2 4c.16 2.84.16 2.84.06 5.94-.11 3.9.13 7.25.94 11.06-.38 2.38-.38 2.38-1 5l-.25 3.31c-.95 4.66-3.04 7.85-5.75 11.69l-3-1 .84-1.57 1.1-2.12 1.09-2.07c2-4.62 2.09-9.08 2.07-14.07l-.01-3.92-.03-4.06-.01-4.13z" fill="#EDEFF0"/><path d="M542 26a40 40 0 0 1 8.44 5.38l2.4 1.89q2.34 1.88 4.66 3.79a96 96 0 0 0 6.81 4.75 67 67 0 0 1 8.63 6.69c3.73 3.4 7.76 5.86 12.15 8.34L587 58v1l83 1v1q-16.53.29-33.07.41-7.68.07-15.36.19-7.41.13-14.84.16-2.82.02-5.64.09c-10.34.22-17.85.34-26.02-6.85L573 53q-1.84-1.46-3.71-2.87l-3.23-2.57A577 577 0 0 0 540 28z" fill="#D0D2D2"/><path d="M522.37 10.05A54 54 0 0 1 528 14l3 2.18 2 1.82v2l1.69.25c3.05.98 4.96 2.6 7.3 4.75v2c-4.25-.53-6.98-3.19-10.17-5.82-6.91-5.45-13.42-10.09-22.61-9.64-5.21 1.07-8.95 4.17-12.58 7.9-4.18 6.58-4.04 13.36-4.25 20.93l-.12 3.4q-.15 4.1-.26 8.23h-2c-1.7-10.98-2.68-23.38 2.88-33.38L495 16l1.69-2.13c7.58-6.15 16.54-7.89 25.68-3.82" fill="#E4E6E6"/><path d="M755 358c3 1 3 1 4.12 3.06.73 2.44 1.11 4.5 1.38 7 .5 3.94.5 3.94 1.56 6.06 1.32 2.64.94 4.95.94 7.88l1 3.5c.97 3.41 1.08 5.99 1 9.5l.5 2.5c.58 2.89.56 5.56.5 8.5 0 3 0 3 .49 4.8 1.75 7.58.78 16.57-.49 24.2l-2 1 .04-2.04c.1-8.95-.47-17.8-1.23-26.71l-.19-2.31a253 253 0 0 0-6.12-37.68A96 96 0 0 1 755 358" fill="#EAECEA"/><path d="M686.94 168.81q1.25 0 2.55-.04c7.08 0 14.38.17 20.07 4.8L712 176v1h-5v-2c-13.04-2.58-27.1-3.79-40 0a413 413 0 0 1-7.35 1.63L658 177v2c-6.62 3.12-6.62 3.12-10 2a40 40 0 0 1 13.38-8.25q.93-.37 1.88-.78c7.7-3.02 15.5-3.15 23.68-3.16" fill="#020404"/><path d="M489 431h1l2.58 15.76.54 3.38.51 3.11C494 456 494 456 494 460l-1.59-.44c-10.69-2.56-23.54-3.97-33.32 1.86A60 60 0 0 0 450 470l-1-2c2.41-6.19 8.41-9.15 14.03-12.05 4.99-2.03 9.95-2.22 15.28-2.26l2.11-.02c3.67.05 6.45.31 9.58 2.33l-.94-5.69-.52-3.2q-.5-2.89-1.16-5.73c-.6-3.8.56-6.72 1.62-10.38" fill="#E3E6E5"/><path d="m596 177 2.24 1.47L600 180v3h-2v-2a453 453 0 0 0-12.89-5 68 68 0 0 0-21.92-3.31l-2.64.01c-8.79.14-16.44 1.96-24.55 5.3 1.01-2.7 1.65-3.8 4.21-5.23l2.6-.96 2.58-.98c15.47-4.94 37.27-3.16 50.61 6.17" fill="#030405"/><path d="M494 128h1v81h-3c-.24-57.81-.24-57.81 2-81" fill="#EDEFEE"/><path d="m599.64 56.98 2.28.03 7.42.1q2.58.06 5.15.08l13.55.2q6.91.11 13.84.2L669 58l1 2h-84l1-2c4.16-1.23 8.34-1.1 12.64-1.01" fill="#F0F2F3"/><path d="M763 409h1c1.06 22.1 1.06 22.1 1.19 30.12l.04 2.58c-.27 2.71-1.17 4.8-2.23 7.3a166 166 0 0 0-1 7l3.94-.56c4.87-.56 9.22-.13 14.06.56v1l-2.27.11-3.11.2-3.02.18c-4.7.67-9.09 2.05-13.6 3.51l.59-3.76c2.39-16.04 3.5-32.06 4.41-48.24" fill="#DEE1DF"/><path d="M895 437c-2.22 2.22-3.7 2.72-6.62 3.75-9.9 3.92-15.69 9.65-20.38 19.25a202 202 0 0 0-5.33 16.07c-1.92 5.56-1.92 5.56-4.67 6.93a58 58 0 0 1 3.62-15.81l.81-2.1c5.24-13.18 12.58-21.83 25.18-28.34 2.84-.89 4.55-.56 7.39.25" fill="#DFDFE0"/><path d="M495 208c2.06 3.09 2.59 5.1 3.38 8.69 4.01 16.39 16.08 27 29.62 36.31l-2 2-2.06-1.75C521 251 521 251 517.81 249.44c-5.7-3.15-9.67-8.53-13.81-13.44l-1.87-2.18c-3.74-4.64-5.51-9.13-7.13-14.82l-1.31-3.25c-.83-3.32-.26-4.78 1.31-7.75" fill="#DFE1E3"/><path d="M758 152c2.68 2.68 2.31 4.1 2.41 7.84l.12 3.69.09 3.97.12 4.04c.35 12.82.37 25.64.26 38.46l-3 1z" fill="#F1F3F2"/><path d="M750 10c6.44 3.88 11.11 7.54 13 15 .98 5.2 1.64 10.71 1 16l-2 2c-1.35-2.7-1.19-4.99-1.31-8-.51-6.8-1.34-13.69-6.4-18.69-4.14-3.07-7.65-4.45-12.73-4.43l-2.31-.01c-2.25.13-2.25.13-4.41.76L733 13l-2-2c5.94-4.41 12.26-3.23 19-1" fill="#ECECEE"/><path d="M914.29 391.9c8.6-.24 15.84 2.78 23.59 6.1l2.59 1.08c6.28 2.66 6.28 2.66 8.53 4.92-2.58.98-3.73 1.1-6.37.15L940 402.8c-9.97-4.8-19.62-7.77-30.71-8.12a405 405 0 0 0-7.66-.25l-3.96-.13-9.67-.3v-1l11.5-.5 3.27-.14z" fill="#CDCECE"/><path d="M760 28h1c.88 9.47 1.15 18.86 1.12 28.38l.02 3.98-.01 3.85v3.45A67 67 0 0 1 761 78l-2 1c-.15-17.03.26-33.99 1-51" fill="#D7DAD7"/><path d="M859 480c1.62 1.56 1.62 1.56 3 4-.75 3.19-.75 3.19-1.39 5.01a30 30 0 0 0-1.11 6.49c-.38 4.01-1.35 7.63-2.5 11.5l-.5 3.62A29 29 0 0 1 854 519h-2c.99-8.59 2.12-17.15 3.5-25.69l.36-2.28A42 42 0 0 1 859 480" fill="#E9E9E9"/><path d="M562 670a125 125 0 0 1-5.96 4.32c-5.98 4.13-9.73 8.75-12.04 15.68q-.34 3.59-.56 7.19l-.26 3.85L543 704h-2c-2.39-3.58-2.71-5.87-2-10 3.29-10.14 10.39-24.92 23-24" fill="#E4E1EB"/><path d="M700 675c3.41.57 4.91 1.56 7.12 4.19l1.51 1.73c3.32 5.05 3.64 10.06 3.49 15.96l-.02 2.08-.1 5.04-4-1 .11-2.6c.24-10.48-1.33-15.52-8.11-23.4z" fill="#DEDFDF"/><path d="m632 673 3 1 .11 3.18c.43 9.87 1.19 18.41 6.89 26.82-2.65-.37-3.78-.76-5.62-2.75-2.85-4.65-3.68-8.87-4.38-14.25l-1-3a88 88 0 0 1-.12-5.12l-.01-2.7C631 674 631 674 632 673" fill="#E6E6EB"/><path d="M490 390c1.5 1 1.5 1 3 3 .27 2.72.13 5.26 0 8l-2 1v5h1q.13 5.16.19 10.31l.07 2.96.03 2.84.05 2.62c-.41 2.72-1.24 3.57-3.34 5.27l-.05-14.14-.03-4.81-.02-6.93-.01-2.14c0-4.44.39-8.61 1.11-12.98" fill="#2B2E2E"/><path d="M489 431h1l2.58 15.76.54 3.38.51 3.11C494 456 494 456 494 460l-10-2c3-2 3-2 6-2l-.94-5.69-.52-3.2q-.5-2.89-1.16-5.73c-.6-3.8.56-6.72 1.62-10.38" fill="#CFD0D2"/><path d="M495 16c1.29 3.91.28 5.82-1.25 9.57-1.49 4.84-1.33 9.91-1.44 14.93l-.1 3.36q-.12 4.07-.21 8.14h-2c-1.64-10.68-3.12-24.15 3.12-33.62z" fill="#EFF0F0"/><path d="M763 396a33 33 0 0 1 3.12 8.06l.51 2.04c.37 1.9.37 1.9.37 4.9l.04 3.26c.1 14.16.1 14.16-1.04 20.74l-2 1 .04-2.1c.05-5.81-.11-11.54-.54-17.34-.5-6.87-.6-13.68-.5-20.56" fill="#ECEEED"/><path d="M761 657h1v8h2a18 18 0 0 1-5.25 7.12l-1.7 1.51c-6.32 4.23-12.66 3.44-19.93 2.99l-3.24-.17q-3.94-.21-7.88-.45v-1l1.78-.04 8.16-.27 2.8-.07c6.48-.25 13.85-.63 18.95-5.1 2.26-2.63 2.53-4.77 2.87-8.14l.26-2.48z" fill="#DFE2DF"/><path d="M560 672v8l-10 1-1 4h-2l-1 4h-2c1.57-6.96 6.11-11.94 11.81-16 2.19-1 2.19-1 4.19-1" fill="#201D2B"/><path d="M760 78h1q.3 4.07.56 8.12l.17 2.31c.29 4.39.11 8.22-.73 12.57a82 82 0 0 0-.06 4.69l.02 2.26.04 2.05c0 3.26-.24 6.44-.5 9.69l-.28 3.57L760 126h-1q-.04-10.01-.05-20.03l-.03-6.81-.02-9.78-.01-3.1v-2.85l-.01-2.53C759 79 759 79 760 78" fill="#F1F2F3"/><path d="M819 447h2c-.71 5.95-2.07 11.64-3.56 17.44l-.71 2.79L815 474h-2l-1 3c-1.24-3.72-.47-4.48 1-8q.54-2.95.94-5.94c.7-4.56 1.74-8.03 4.06-12.06.69-2.38.69-2.38 1-4" fill="#ECEFF2"/><path d="M852 513c2.67 8.69-.04 17.19-3.94 25.02L847 540h-3l1.31-3.94.83-2.49q.8-2.43 1.66-4.86A120 120 0 0 0 852 513" fill="#D9DADB"/><path d="M759 18c3.88 3.4 4.34 7.03 5 12 .24 3.68.43 7.33 0 11l-2 2c-1.34-2.68-1.3-5.01-1.5-8q-.6-8.51-1.5-17" fill="#F2F2F2"/><path d="M440 516h1a950 950 0 0 1 3 25l-2 1c-3.74-6.41-4.95-15.71-3.12-22.88z" fill="#DDE0DC"/><path d="M487 407h1l1 30-2-1c-.76-3.3-.94-6.7-1.25-10.06l-.31-2.82c-.57-5.9-.23-10.46 1.56-16.12" fill="#EFF2F2"/><path d="M438 497h2v25l-2-1c-1.17-5.4-.97-10.46-.56-15.94l.16-2.36q.18-2.85.4-5.7" fill="#EDF0EE"/><path d="M759 451c2 4 2 4 2 6l2.57-1.02c3.76-1.07 6.43-1 10.31-.6l3.49.33 2.63.29v1l-2.27.11A74 74 0 0 0 758 461z" fill="#D5D7D6"/><path d="M474 603c3.67 1.5 5.69 3.64 8.25 6.62l2.14 2.48L486 614l-1 2c-3.67-1.5-5.69-3.64-8.25-6.62l-2.14-2.48L473 605z" fill="#ECEEEE"/><path d="M542 688h1v16h-2c-2.49-3.74-2.38-5.56-2-10 1.5-3.44 1.5-3.44 3-6" fill="#DEDEE0"/><path d="M843 414c0 4.88-2.63 9.5-6 13-2.69.75-2.69.75-5 1a30 30 0 0 1 5.5-8.12l1.84-2.08q1.8-1.94 3.66-3.8" fill="#23272B"/><path d="M755 358c3 1 3 1 4.12 2.94 1.23 4.3 1.55 8.61 1.88 13.06l-2 1-2-6.25-1.12-3.52C755 362 755 362 755 358" fill="#F0F3EF"/><path d="M495 208c2.3 3.45 2.81 6.14 3.62 10.19l.79 3.85.59 2.96-4-1-.4-1.9-.54-2.48-.52-2.46C494 215 494 215 493 213c.94-2.62.94-2.62 2-5" fill="#D7D9D9"/><path d="M443 541c2.84 2.84 2.92 6.06 3.56 9.88 1.46 8.33 1.46 8.33 2.44 12.12-3.48-2.69-3.99-5.84-5-10l-.6-2.35c-1.53-6.26-1.53-6.26-.4-9.65" fill="#EDEDF0"/><path d="M855 501h2c1.36 3.68.54 5.49-1 9q-.55 2.5-1 5l-1 4h-2l.94-7.88.26-2.26c.69-5.63.69-5.63 1.8-7.86" fill="#EAE9EC"/><path d="m720 272 3 1a58 58 0 0 1 2 7l.57 2.46q.74 3.27 1.43 6.54c-3-1-3-1-4.17-3.33l-1.02-2.92-1.04-2.89A23 23 0 0 1 720 272" fill="#EEEEEF"/><path d="M565 662v8h-6c-1-3-1-3 0-6 2.15-1.32 3.47-2 6-2" fill="#EFEEF1"/><path d="M844 540h2c-.77 6.66-3.14 10.47-8 15 .45-5.85 3.04-10.08 6-15" fill="#E8E9EC"/><path d="m813 479 .12 6.31.08 3.55C813 492 813 492 811 495q-.62-3.16-1.19-6.31l-.67-3.55c-.14-3.14-.14-3.14 1.25-5.06C812 479 812 479 813 479" fill="#EBEEED"/><path d="M994 456c.69 1.77.69 1.77 1 4a20.2 20.2 0 0 1-13 9l-2-2 3.62-1.56c4.6-2.27 7.36-5.37 10.38-9.44" fill="#D1D4D2"/><path d="M763 396c2.1 3.94 3.07 7.64 4 12l-1 1a192 192 0 0 0-.69 9.72L765 424h-1a304 304 0 0 1-1-28" fill="#F5F7F6"/><path d="m491 666 1.14 1.24c5.1 4.99 9.88 6.03 16.86 6.76v1c-5.91 1.09-9.77 1.49-15-2-1.88-1.44-1.88-1.44-3-3z" fill="#D8DADD"/><path d="M761 657h1v8h2c-1.38 3.21-2.92 5.05-5.62 7.25l-1.92 1.58L755 675l-4-2 5.27-1.95c2.28-1.38 2.81-2.57 3.73-5.05.41-2.36.41-2.36.62-4.75l.23-2.42z" fill="#D6DAD6"/><path d="M894 436q3.63-.08 7.25-.12l2.07-.06c3.74-.03 6.5.1 9.68 2.18l-2 2a87 87 0 0 1-8.06-.75l-2.26-.27c-1.91-.24-3.8-.6-5.68-.98z" fill="#E8E7EA"/><path d="m688 665 1.79 1.21c4.02 2.69 8.03 5.36 12.21 7.79l-3 2-5.96-3.71A272 272 0 0 1 688 669z" fill="#EAECEA"/><path d="M635 690c2.15 3.22 3.5 6.44 5 10q.97 2.01 2 4c-2.65-.37-3.78-.76-5.62-2.75A27 27 0 0 1 633 694c.88-2.31.88-2.31 2-4" fill="#DDDFE2"/><path d="m507 633 6 2v2l-11 4v-3a68 68 0 0 1 4-3z" fill="#E3E2E3"/><path d="M559 665c-.26 1.89-.26 1.89-1 4-1.74 1.05-1.74 1.05-3.88 1.75l-2.11.73C550 672 550 672 547 672l-2-2 5.88-2.5 3.3-1.41C557 665 557 665 559 665" fill="#DEDBDF"/><path d="m464.23 459.35 1.77.65c-2.99 3.34-5.94 5.15-10 7l-1-3q1.6-1.3 3.25-2.56l1.82-1.44c1.93-1 1.93-1 4.16-.65" fill="#1D1F20"/><path d="M470 454h16l1 3-17-1z" fill="#EDEFF1"/><path d="M886 394v1l-2.16.37c-5.39.94-10.61 2-15.84 3.63l1-3c6.06-3.03 10.4-3.27 17-2" fill="#DADCDC"/><path d="M751 343c2.41 2.41 3.01 4.42 4.12 7.62l1.08 3.04.8 2.34-3 3q-1.05-3.16-2.06-6.31l-1.16-3.55C750 346 750 346 751 343" fill="#DFE2DF"/><path d="M454 576c1.75.06 1.75.06 4 1a23 23 0 0 1 4 7c-.39 2.23-.39 2.23-1 4l-2.94-4.31-1.65-2.43C455 579 455 579 454 576" fill="#EAEDE9"/><path d="M931 445c5.31 1.46 9.46 3.98 14 7l-1 2a45 45 0 0 1-13-7z" fill="#DBDADE"/><path d="M507 11q2.16-.08 4.31-.12l2.43-.08C516 11 516 11 519 13c-4 2.83-7.43 1.76-12 1z" fill="#1C1E1F"/><path d="M772 454c5.79-.21 10.43.41 16 2-3.74 2.5-6.44 1.9-10.75 1.12l-3.55-.61-2.7-.51z" fill="#ECEFEE"/><path d="M694 40c-1.41 3.47-2.91 4.88-6.12 6.75l-2.2 1.3L684 49c0-3 0-3 1.43-4.61l1.88-1.58 1.87-1.6C691 40 691 40 694 40" fill="#E4E5EA"/><path d="M737 11q2.16-.08 4.31-.12l2.43-.08C746 11 746 11 749 13v2l-13-2z" fill="#262626"/><path d="M634 666h1l-1 20h-1q-.33-4.15-.62-8.31l-.2-2.38-.16-2.3-.16-2.11c.14-1.9.14-1.9 2.14-4.9" fill="#F5F7FA"/><path d="m761 652 3 2c.51 2.6.51 2.6.69 5.62l.2 3.04.11 2.34h-3z" fill="#F5F7F5"/><path d="m861 469 2 2c-.24 2.6-.24 2.6-.88 5.62l-.61 3.04L861 482l-3 1c.51-4.97 1.23-9.29 3-14" fill="#D3D2D3"/><path d="m473.81 455.38 2.1.17 5.1.44v1c-.48.05-.48.05-2.86.2l-3.78.25q-1.84.11-3.72.25c-3.27.27-6.43.73-9.65 1.3v-2c4.35-2.2 8.08-2.06 12.81-1.62" fill="#C9CBCE"/><path d="M504 332h2c-1.74 9.59-1.74 9.59-5 13-.32-5.26.33-8.45 3-13" fill="#ECEFF0"/><path d="M772 457v2l4 1q-2.37.33-4.75.62l-2.67.36c-2.81.02-4.21-.53-6.58-1.98 3.62-1.32 6.1-2 10-2" fill="#202222"/><path d="M491 416h1q.12 2.9.19 5.81l.1 3.27c-.29 2.92-.29 2.92-1.8 4.81L489 431q-.08-2.9-.12-5.81l-.08-3.27c.2-2.92.2-2.92 2.2-5.92" fill="#202224"/><path d="M854 406v3a120 120 0 0 1-5 4l-1 2-4-2z" fill="#1E1F23"/><path d="M616 690h1q.12 2.38.19 4.75l.1 2.67c-.34 3.03-1.29 4.34-3.29 6.58l-3-1 .84-1.57c1.97-3.79 3.62-7.14 4.16-11.43" fill="#DFE2E1"/><path d="M499 627c3.94 1.31 6.23 2.92 9 6-1.62.81-1.62.81-4 1-2.25-1.47-4.02-3.16-6-5z" fill="#ECECEE"/><path d="M814 464h2l-1 10h-2l-1 3c-1.24-3.71-.5-4.51 1-8q.56-2.49 1-5" fill="#F0F2F2"/><path d="M505 11v2a128 128 0 0 1-6 4l-3 2c.19-2.31.19-2.31 1-5 2.9-2.21 4.33-3 8-3" fill="#E0E0E2"/><path d="m748 672-1 3h-11c3.52-3.52 7.19-3.11 12-3" fill="#212420"/><path d="M493 449h1l2 12c-3.77 1.26-5.37.37-9-1 3.01-.93 3.87-1.04 7 0l-.5-1.56c-.65-3.17-.56-6.21-.5-9.44" fill="#0E0E0F"/><path d="M895 437c-2.74 2.74-5.25 3.21-9 4l-3-2c7.29-3.57 7.29-3.57 12-2" fill="#CDCFD0"/><path d="M500 343c1.62 2.5 2.07 3.59 1.54 6.58l-.92 2.67-.89 2.7L499 357l-2-2c.21-2.57.21-2.57.81-5.56l.58-3.01C499 344 499 344 500 343" fill="#DCDEDF"/><path d="M517 305h2c-1.22 4.03-2.56 7.54-5 11h-2l1.38-4.38.77-2.46C515 307 515 307 517 305" fill="#ECEEEF"/><path d="M750 11a32 32 0 0 1 9 6c.81 2.25.81 2.25 1 4l-2 1-1.69-2.75A29 29 0 0 0 749 12z" fill="#E2E3E5"/><path d="M761 373c2 3 2 3 1.75 5.5C762 381 762 381 760 384a220 220 0 0 1-.62-4.38l-.36-2.46L759 375z" fill="#E3E6E2"/><path d="m513.25 8.38 2.7.33q1.01.16 2.05.28c-3.16 2.12-4.51 2.35-8.19 2.64l-2.73.22L505 12l-1-2c3.31-2.03 5.43-2.12 9.25-1.62" fill="#ECEDEF"/><path d="M687 661c2.44.75 2.44.75 5 2 .81 2.12.81 2.12 1 4l-5-2 1 5h-2z" fill="#D7DAD7"/><path d="m693 42 2 1c-1.88 3.88-1.88 3.88-3 5q-3 .06-6 0a41 41 0 0 1 7-6" fill="#1C1C21"/><path d="m617 665 3 2c.19 3.62.19 3.62 0 7h-3z" fill="#F3F4F5"/><path d="M749 640c2.81-.31 2.81-.31 6 0 1.88 2.5 1.88 2.5 3 5l-2 2-1-3c-1.94-1.06-1.94-1.06-4-2z" fill="#DCDDDE"/><path d="M440 489h2l-1 12c-2.67-5.33-2.67-5.33-3-8 .94-2.25.94-2.25 2-4" fill="#DADCDB"/><path d="M750 13c5.75 3.42 5.75 3.42 6.94 6.12C757 21 757 21 756 23l-.81-2.44L754 18l-3-1c-.69-2.06-.69-2.06-1-4" fill="#1F1F22"/><path d="m778 600 1 3c-1.21 1.82-1.21 1.82-2.94 3.69l-1.71 1.88L773 610l-2-1z" fill="#DEE1DD"/><path d="M442 479h2c-.88 7.75-.88 7.75-2 10h-2z" fill="#EAEDEC"/><path d="m762 445 2 1-2 10-2-1 .44-4.44.24-2.49C761 446 761 446 762 445" fill="#F1F3F2"/><path d="M797 588c2 1 2 1 3 3-3.78 1.84-5.95 2.16-10 1a41 41 0 0 1 7-4" fill="#DFE0DD"/><path d="M443 541c2.57 2.57 2.54 4.48 3 8h-3q-.57-3.5-1-7z" fill="#E6E7E6"/><path d="m964 412 8 5-2 2-7-5z" fill="#E0E1E5"/><path d="m488 658 2 1c.41 2.29.41 2.29.62 5.06l.23 2.79.15 2.15c-2.17-2.17-2.49-3.16-3.19-6.06l-.54-2.16L487 659z" fill="#EDEFEF"/><path d="m892 436-10 4-1-3c6.5-2.12 6.5-2.12 11-1" fill="#060807"/><path d="M759 428c1.5 1 1.5 1 3 3 .27 2.72.13 5.26 0 8l-1-3h-2z" fill="#242822"/><path d="M759 18c3.8 3.8 3.8 3.8 4 7l-3 3z" fill="#ECECEC"/><path d="M491 655c2.76 5.52 2.76 5.52 3 8l-3 3z" fill="#2C2E2F"/><path d="m815 458 3 1-1 7c-1.56-1.75-1.56-1.75-3-4 .31-2.25.31-2.25 1-4" fill="#E0E2E3"/><path d="M786 457c5.54.62 5.54.62 7.88 2.56L795 461l-2 1c-2.48-1.11-4.68-2.58-7-4z" fill="#D9DCDC"/><path d="M868 397v2c-2.81 1.56-2.81 1.56-6 3l-3-1c6.75-4 6.75-4 9-4" fill="#E6E7EA"/><path d="M722 281c1.94.62 1.94.62 4 2 .75 3.12.75 3.12 1 6l-3-1c-1.19-3.56-1.19-3.56-2-7" fill="#E8E8EA"/><path d="m537 673-1 3c-2.88.12-2.88.12-6 0l-2-2c3.06-.54 5.89-1 9-1" fill="#DEE1E0"/><path d="m762 614 3 1c-1.31 2-1.31 2-3 4h-3c.38-1.94.38-1.94 1-4z" fill="#212322"/><path d="M856 492c1.46 2.92 2.34 4.92 3 8l-4 1z" fill="#D7D9DA"/><path d="M802 468c1.88.25 1.88.25 4 1a17 17 0 0 1 2 4l-3 1c-3-3.75-3-3.75-3-6" fill="#EBEDEC"/><path d="M865 463c1 2 1 2 .06 5.12L864 471h-2q.39-3.51 1-7z" fill="#E6E8EB"/><path d="M717 256c2.06.44 2.06.44 4 1l-3 1v8h-1l-.56-4.44-.32-2.49L716 257z" fill="#262827"/><path d="M684 48c-1.33 4-3.5 4.84-7 7 .39-2.8.8-3.82 2.94-5.75C682 48 682 48 684 48" fill="#D4D6D8"/><path d="m748 636 6 3-1 2-6-2z" fill="#EEF0F2"/><path d="M837 552a12 12 0 0 1 1 4c-1.44 2.25-1.44 2.25-3 4l-3-1 1.94-2.38C836 554 836 554 837 552" fill="#D8D8DC"/><path d="m490.19 456.38 2.8.62v2c-2.96-.32-5.93-.67-9-1 3-2 3-2 6.2-1.62" fill="#D9D9DB"/><path d="M979 425c3.24.35 4.62.56 6.81 3.06L987 430c-3 0-3 0-5.69-2.5z" fill="#D0D2D4"/></svg>