<svg style="background:transparent" version="1.1" xmlns="http://www.w3.org/2000/svg" viewBox="0 0 1248 704"><path d="m888.25 177.75 3.93-.06c7.09-.03 12.38.35 18.82 3.31l7 2.13c9.28 2.95 20.33 7.6 27 14.87l2.69 1.56L950 201v2l1.73.25c7.76 2.56 13.17 12.12 17.27 18.75l2.06 2.94c2.66 4.2 4.8 8.58 6.94 13.06l1.39 2.88c2.24 4.74 4.01 8.87 4.61 14.12l.94 3.19c4.98 17.87 5.36 36 .06 53.81l-1 3.63-1 3.37-.68 2.43A66 66 0 0 1 977 335l-1.05 2.34c-2.81 6.1-6 10.19-10.95 14.66l-2.5 2.69c-3.95 3.65-7.5 5.98-12.94 6.87-6.02-.95-10.47-4.04-14.43-8.62-4.51-6.23-5.36-11.77-4.94-19.38 1.08-4.76 2.9-9.08 4.81-13.56l2-5 .82-2.03A50 50 0 0 0 941 301l.56-2.56c.44-2.44.44-2.44.44-5.19 0-2.25 0-2.25 1-3.25q.14-2.87.13-5.75v-3.17c-.2-4.8-1.26-8.68-3.13-13.08l-.94-2.37q-1.26-3.09-2.62-6.13c-1.44-3.5-1.44-3.5-1.75-5.88-1.89-7.19-9.63-13.29-15.75-17.06q-2.45-1.32-4.94-2.56l-2.21-1.14c-10.61-5.13-22.04-7.49-33.66-5.05A41 41 0 0 0 870 232l-3.19 1.69c-9.06 5.17-14.82 10.27-17.81 20.31v6l-3 2a87 87 0 0 0-3 5 194 194 0 0 1-5 8l-.44 2.13L837 279l-3 1c-1.01 1.79-1.01 1.79-2 4-5.59 9.17-12.43 15.63-21 22l1.24 1.72c3.3 4.72 5.33 8.65 6.76 14.28a97 97 0 0 0 3 4q.54 2 1 4 .69 2.22 1.44 4.44l.79 2.38a78 78 0 0 0 1.96 4.93c.92 2.56.81 4.55.81 7.25l1 2.5c1.09 2.72 1.08 4.61 1 7.5l1 3c.07 2.19 0 4.36-.06 6.55.06 2.45.06 2.45.55 5.16.65 4.21.66 8.3.64 12.54l-.01 2.56a131 131 0 0 1-.9 15.18C831 406 831 406 831 409.87c0 2.71-.34 4.56-1 7.13v2.94c0 2.89-.43 5.24-1 8.06q-.29 2.63-.5 5.25-.45 5.38-1 10.75l-.22 2.13C827 448 827 448 826 451v3c0 3 0 3-1 6a92 92 0 0 0-1 14.37c0 3.63 0 3.63-.5 5.56a25 25 0 0 0-.5 6.76q.07 2.15 0 4.31l-1 1q-.14 2.8-.13 5.62l-.01 3.53.01 3.72-.01 3.61c.01 6.32.27 12.5.91 18.79.42 5.05.37 10.1.36 15.17l.01 3.21-.01 3.1v2.77A31 31 0 0 1 822 558v3.56c0 3.44 0 3.44-1 6.44q-.26 2.4-.44 4.81A45 45 0 0 1 818 584a199 199 0 0 0-2.5 14.75A74 74 0 0 1 813 609c-.72 2.59-1 4.27-1 7l-.94 1.81c-1.31 2.71-1.59 5.22-2.06 8.19l-1.06 3.69C807 633 807 633 807 636c3.47 2.31 6.01 2.74 10.1 3.52l4.34.84 2.29.44c39.43 7.63 39.43 7.63 46.27 16.2 1 3.37 1 3.37 1 6-32.43 28.61-113.02 16.38-152.47 14.26a2052 2052 0 0 0-106.41-2.63q-5.32 0-10.64-.03c-45.15-.14-90 2.16-134.93 6.49l-7.14.68A4679 4679 0 0 0 336.12 695c-36.29 4.37-36.29 4.37-51.81 4.25l-3.21.02a72 72 0 0 1-17.01-1.85c-2.09-.42-2.09-.42-5.53-.36-3.17-.07-3.42-.92-5.56-3.06-2.62.37-2.62.37-5 1l-1-1-3.13-.25c-4.72-.91-7.25-2.73-10.87-5.75l-2.5-1.94c-1.5-2.06-1.5-2.06-1.81-4.93 1.99-4.75 5.83-6.81 10.31-9.13h2l-2-4-2.09 1.36a47 47 0 0 1-32.89 4.98c-6.88-2.19-13.51-5.9-17.16-12.37-3.18-7.33-4.65-15.22-1.76-22.88 3.86-7.5 8.32-14.11 16.53-16.96q2.17-.6 4.37-1.13l2.56-.69c2.44-.31 2.44-.31 6.31-.18 5.9.07 10.69-2.38 15.13-6.13l1.66-1.38c2.66-2.25 5.22-4.49 7.65-6.99C241 604 241 604 243 604l.79-1.72a46 46 0 0 1 4.58-6.78l1.78-2.28A60 60 0 0 1 256 587h2l.75-1.7c1.46-2.69 3.22-4.76 5.25-7.05l2.13-2.42C268 574 268 574 270 574l.25-1.87c.99-2.8 2.18-2.85 4.75-4.13l1-4c1.09-1.66 1.09-1.66 2.44-3.29l1.51-1.84 1.61-1.93 3.3-4.04 1.63-2.01c2.72-3.4 5.25-6.94 7.79-10.49q2.28-3.17 4.66-6.27c3.13-4.15 6.07-8.44 8.99-12.74A43 43 0 0 1 313 515l.93-2.32c1.12-2.8 2.5-5.02 4.2-7.49l1.63-2.4L321 501l-3.06.63c-4.34.41-6.81-.3-10.94-1.63q-2.5-.5-5-.94a49 49 0 0 1-12-4.06l-2.28-.89c-13.71-5.57-23.91-12.98-34.14-23.56C251 468 251 468 248.4 466.01c-2.7-2.26-4.25-4.51-6.09-7.51l-1.76-2.84A94 94 0 0 1 237 449l-1.53-2.67c-1.66-3.76-1.91-6.5-2.02-10.6l-.06-2.06-.1-4.3q-.06-3.25-.17-6.5c-.19-7.05-.1-13.87.88-20.87q.27-3.34.5-6.69l.25-3.61q.25-3.7.46-7.4l.23-3.61.18-3.24c.38-3.45.38-3.45 1.4-7.13 1.45-6.44 1.19-12.95 1.1-19.52l-.06-7.14q-.07-10.14-.18-20.29-.06-6.22-.09-12.46-.01-2.36-.05-4.71c-.13-9.28-.07-17.3 4.63-25.64 3.68-3.53 8.51-4.19 13.43-4.66 3.55.16 5.49 1.92 8.2 4.1l3.31 1.75c3.84 2.16 6.87 5.01 10.1 7.97 3.98 3.51 8.21 6.67 12.43 9.88q5.18 3.95 10.26 8.03A38 38 0 0 0 306 311l2.14 1.55c3.61 1.83 6.7 1.81 10.65 1.71l2.23-.02 7.04-.11 7.05-.1q2.19-.02 4.38-.07c3.36-.05 6.29.09 9.51 1.04a302 302 0 0 0 7.94.5c7.5.37 7.5.37 10.88 1.15 2.18.35 2.18.35 5.05-1.59a75 75 0 0 0 6.29-6.7c3.97-4.56 8.14-8.88 12.4-13.17l2.21-2.27c5.55-5.59 10.21-9.03 18.23-9.92 3 0 3 0 4.46 1.08 2.15 2.68 3.64 5.61 5.17 8.67l.94 1.8A33 33 0 0 1 426 307l.28 2.34.22 2.03.25 2.29.75 7.15.22 2.15c.28 2.07.76 4.02 1.28 6.04 1.36 5.46.98 10.81.84 16.41.15 3.4.67 5.56 2.16 8.59l4.25-1.87 2.39-1.06q3.22-1.46 6.36-3.07l3.56-1.75c10.53-5.27 21.18-10.87 30.88-17.56C482 327 482 327 484.56 326c2.44-1 2.44-1 4.81-2.94 3.05-2.39 6.06-3.58 9.63-5.06q1.8-.97 3.56-2c3.11-1.81 6.22-3.41 9.44-5l7.94-3.94 2.05-1.01c4.43-2.21 8.72-4.58 13.01-7.05a201 201 0 0 1 19.34-8.89 69 69 0 0 0 4.56-2.06q3.13-1.54 6.32-2.92l2.38-1.05 4.93-2.16 2.38-1.05 2.16-.94C579 279 579 279 582 277a89 89 0 0 1 4.44-1.5A43 43 0 0 0 593 273a39 39 0 0 1 6.5-2.44A24 24 0 0 0 608 266h3q2.99-.63 5.94-1.37l3.15-.78c2.53-.74 4.6-1.62 6.91-2.85q2.99-1.04 6-2l3-1q2.37-.26 4.75-.44A61 61 0 0 0 653 255c2.66-.41 5.32-.7 8-1q3.68-.68 7.31-1.56c2.84-.47 5.56-.47 8.43-.38 2.26-.06 2.26-.06 5.33-.55 5-.65 9.9-.66 14.93-.64l2.91-.01c5.13.01 10.01.28 15.09 1.14q2 .2 4 .37c6.75.73 13.36 2.24 20 3.63l2.61.5c4.96.99 9.44 2.6 14.1 4.55q2.8 1.14 5.66 2.08c2.63.87 2.63.87 4.5 1.87 3.3 1.55 6.47 2.77 10.13 3 4.53-2.18 6.95-5.11 10-9l3-1c3.81-4.87 7-10.12 10.29-15.35q2.17-3.36 4.52-6.59a54 54 0 0 0 5.12-9.06c1.92-4.06 3.76-6.9 7.07-10l3-5c3.33-4.37 6.98-7.79 11.16-11.34C832 199 832 199 834 196.44c4.56-5.56 10.34-8.91 17-11.44l2.34-1a84 84 0 0 1 16.66-5l1.72-.51c5.37-1.15 11.06-.72 16.53-.74" fill="#101311"/><path d="m888.25 177.75 3.93-.06c7.09-.03 12.38.35 18.82 3.31l7 2.13c9.28 2.95 20.33 7.6 27 14.87l2.69 1.56L950 201v2l1.73.25c7.76 2.56 13.17 12.12 17.27 18.75l2.06 2.94c2.66 4.2 4.8 8.58 6.94 13.06l1.39 2.88c2.24 4.74 4.01 8.87 4.61 14.12l.94 3.19c4.98 17.87 5.36 36 .06 53.81l-1 3.63-1 3.37-.68 2.43A66 66 0 0 1 977 335l-1.05 2.34c-2.81 6.1-6 10.19-10.95 14.66l-2.5 2.69c-3.95 3.65-7.5 5.98-12.94 6.87-6.02-.95-10.47-4.04-14.43-8.62-4.51-6.23-5.36-11.77-4.94-19.38 1.08-4.76 2.9-9.08 4.81-13.56l2-5 .82-2.03A50 50 0 0 0 941 301l.56-2.56c.44-2.44.44-2.44.44-5.19 0-2.25 0-2.25 1-3.25q.14-2.87.13-5.75v-3.17c-.2-4.8-1.26-8.68-3.13-13.08l-.94-2.37q-1.26-3.09-2.62-6.13c-1.44-3.5-1.44-3.5-1.75-5.88-1.89-7.19-9.63-13.29-15.75-17.06q-2.45-1.32-4.94-2.56l-2.21-1.14c-10.61-5.13-22.04-7.49-33.66-5.05A41 41 0 0 0 870 232l-3.19 1.69c-9.06 5.17-14.82 10.27-17.81 20.31v6l-3 2a87 87 0 0 0-3 5 194 194 0 0 1-5 8l-.44 2.13L837 279l-3 1c-1.01 1.79-1.01 1.79-2 4-5.59 9.17-12.43 15.63-21 22l1.24 1.72c3.3 4.72 5.33 8.65 6.76 14.28a97 97 0 0 0 3 4q.54 2 1 4 .69 2.22 1.44 4.44l.79 2.38a78 78 0 0 0 1.96 4.93c.92 2.56.81 4.55.81 7.25l1 2.5c1.09 2.72 1.08 4.61 1 7.5l1 3c.07 2.19 0 4.36-.06 6.55.06 2.45.06 2.45.55 5.16.65 4.21.66 8.3.64 12.54l-.01 2.56a131 131 0 0 1-.9 15.18C831 406 831 406 831 409.87c0 2.71-.34 4.56-1 7.13v2.94c0 2.89-.43 5.24-1 8.06q-.29 2.63-.5 5.25-.45 5.38-1 10.75l-.22 2.13C827 448 827 448 826 451v3c0 3 0 3-1 6a92 92 0 0 0-1 14.37c0 3.63 0 3.63-.5 5.56a25 25 0 0 0-.5 6.76q.07 2.15 0 4.31l-1 1q-.14 2.8-.13 5.62l-.01 3.53.01 3.72-.01 3.61c.01 6.32.27 12.5.91 18.79.42 5.05.37 10.1.36 15.17l.01 3.21-.01 3.1v2.77A31 31 0 0 1 822 558v3.56c0 3.44 0 3.44-1 6.44q-.26 2.4-.44 4.81A45 45 0 0 1 818 584a199 199 0 0 0-2.5 14.75A74 74 0 0 1 813 609c-.72 2.59-1 4.27-1 7l-.94 1.81c-1.31 2.71-1.59 5.22-2.06 8.19l-1.06 3.69C807 633 807 633 807 636c3.47 2.31 6.01 2.74 10.1 3.52l4.34.84 2.29.44c39.43 7.63 39.43 7.63 46.27 16.2 1 3.37 1 3.37 1 6-32.43 28.61-113.02 16.38-152.47 14.26a2052 2052 0 0 0-106.41-2.63q-5.32 0-10.64-.03c-45.15-.14-90 2.16-134.93 6.49l-7.14.68A4679 4679 0 0 0 336.12 695c-36.29 4.37-36.29 4.37-51.81 4.25l-3.21.02a72 72 0 0 1-17.01-1.85c-2.09-.42-2.09-.42-5.53-.36-3.17-.07-3.42-.92-5.56-3.06-2.62.37-2.62.37-5 1l-1-1-3.13-.25c-4.72-.91-7.25-2.73-10.87-5.75l-2.5-1.94c-1.5-2.06-1.5-2.06-1.81-4.93 1.99-4.75 5.83-6.81 10.31-9.13h2l-2-4-2.09 1.36a47 47 0 0 1-32.89 4.98c-6.88-2.19-13.51-5.9-17.16-12.37-3.18-7.33-4.65-15.22-1.76-22.88 3.86-7.5 8.32-14.11 16.53-16.96q2.17-.6 4.37-1.13l2.56-.69c2.44-.31 2.44-.31 6.31-.18 5.9.07 10.69-2.38 15.13-6.13l1.66-1.38c2.66-2.25 5.22-4.49 7.65-6.99C241 604 241 604 243 604l.79-1.72a46 46 0 0 1 4.58-6.78l1.78-2.28A60 60 0 0 1 256 587h2l.75-1.7c1.46-2.69 3.22-4.76 5.25-7.05l2.13-2.42C268 574 268 574 270 574l.25-1.87c.99-2.8 2.18-2.85 4.75-4.13l1-4c1.09-1.66 1.09-1.66 2.44-3.29l1.51-1.84 1.61-1.93 3.3-4.04 1.63-2.01c2.72-3.4 5.25-6.94 7.79-10.49q2.28-3.17 4.66-6.27c3.13-4.15 6.07-8.44 8.99-12.74A43 43 0 0 1 313 515l.93-2.32c1.12-2.8 2.5-5.02 4.2-7.49l1.63-2.4L321 501l-3.06.63c-4.34.41-6.81-.3-10.94-1.63q-2.5-.5-5-.94a49 49 0 0 1-12-4.06l-2.28-.89c-13.71-5.57-23.91-12.98-34.14-23.56C251 468 251 468 248.4 466.01c-2.7-2.26-4.25-4.51-6.09-7.51l-1.76-2.84A94 94 0 0 1 237 449l-1.53-2.67c-1.66-3.76-1.91-6.5-2.02-10.6l-.06-2.06-.1-4.3q-.06-3.25-.17-6.5c-.19-7.05-.1-13.87.88-20.87q.27-3.34.5-6.69l.25-3.61q.25-3.7.46-7.4l.23-3.61.18-3.24c.38-3.45.38-3.45 1.4-7.13 1.45-6.44 1.19-12.95 1.1-19.52l-.06-7.14q-.07-10.14-.18-20.29-.06-6.22-.09-12.46-.01-2.36-.05-4.71c-.13-9.28-.07-17.3 4.63-25.64 3.68-3.53 8.51-4.19 13.43-4.66 3.55.16 5.49 1.92 8.2 4.1l3.31 1.75c3.84 2.16 6.87 5.01 10.1 7.97 3.98 3.51 8.21 6.67 12.43 9.88q5.18 3.95 10.26 8.03A38 38 0 0 0 306 311l2.14 1.55c3.61 1.83 6.7 1.81 10.65 1.71l2.23-.02 7.04-.11 7.05-.1q2.19-.02 4.38-.07c3.36-.05 6.29.09 9.51 1.04a302 302 0 0 0 7.94.5c7.5.37 7.5.37 10.88 1.15 2.18.35 2.18.35 5.05-1.59a75 75 0 0 0 6.29-6.7c3.97-4.56 8.14-8.88 12.4-13.17l2.21-2.27c5.55-5.59 10.21-9.03 18.23-9.92 3 0 3 0 4.46 1.08 2.15 2.68 3.64 5.61 5.17 8.67l.94 1.8A33 33 0 0 1 426 307l.28 2.34.22 2.03.25 2.29.75 7.15.22 2.15c.28 2.07.76 4.02 1.28 6.04 1.36 5.46.98 10.81.84 16.41.15 3.4.67 5.56 2.16 8.59l4.25-1.87 2.39-1.06q3.22-1.46 6.36-3.07l3.56-1.75c10.53-5.27 21.18-10.87 30.88-17.56C482 327 482 327 484.56 326c2.44-1 2.44-1 4.81-2.94 3.05-2.39 6.06-3.58 9.63-5.06q1.8-.97 3.56-2c3.11-1.81 6.22-3.41 9.44-5l7.94-3.94 2.05-1.01c4.43-2.21 8.72-4.58 13.01-7.05a201 201 0 0 1 19.34-8.89 69 69 0 0 0 4.56-2.06q3.13-1.54 6.32-2.92l2.38-1.05 4.93-2.16 2.38-1.05 2.16-.94C579 279 579 279 582 277a89 89 0 0 1 4.44-1.5A43 43 0 0 0 593 273a39 39 0 0 1 6.5-2.44A24 24 0 0 0 608 266h3q2.99-.63 5.94-1.37l3.15-.78c2.53-.74 4.6-1.62 6.91-2.85q2.99-1.04 6-2l3-1q2.37-.26 4.75-.44A61 61 0 0 0 653 255c2.66-.41 5.32-.7 8-1q3.68-.68 7.31-1.56c2.84-.47 5.56-.47 8.43-.38 2.26-.06 2.26-.06 5.33-.55 5-.65 9.9-.66 14.93-.64l2.91-.01c5.13.01 10.01.28 15.09 1.14q2 .2 4 .37c6.75.73 13.36 2.24 20 3.63l2.61.5c4.96.99 9.44 2.6 14.1 4.55q2.8 1.14 5.66 2.08c2.63.87 2.63.87 4.5 1.87 3.3 1.55 6.47 2.77 10.13 3 4.53-2.18 6.95-5.11 10-9l3-1c3.81-4.87 7-10.12 10.29-15.35q2.17-3.36 4.52-6.59a54 54 0 0 0 5.12-9.06c1.92-4.06 3.76-6.9 7.07-10l3-5c3.33-4.37 6.98-7.79 11.16-11.34C832 199 832 199 834 196.44c4.56-5.56 10.34-8.91 17-11.44l2.34-1a84 84 0 0 1 16.66-5l1.72-.51c5.37-1.15 11.06-.72 16.53-.74M826 207c-7.71 8.56-13.18 18.29-18.89 28.25-6.7 11.65-14.12 21.65-24.11 30.75l-1.68 1.54c-2.86 2.27-4.35 2.46-8.02 2.22-4.25-.63-8.02-1.96-11.99-3.57-60.19-24.17-123.65-9.45-181.35 14.79a897 897 0 0 0-80.11 39.46 994 994 0 0 1-9.1 4.92c-9.21 4.94-18.31 9.88-27.14 15.47-5.17 3.18-10.53 6.03-15.86 8.92l-3.09 1.68A200 200 0 0 1 427 360l.05-1.82c.42-18.91-.86-37.31-4.99-55.81l-.44-2.02a27 27 0 0 0-7.49-13.22c-3.11-1.65-4.63-1.72-8.13-1.13-9.1 4.45-16.04 12.51-22.56 20.06l-1.72 1.91C380 310 380 310 378.31 312.53c-2.26 2.95-4.05 4.66-7.31 6.47-4.83.47-9.3.07-14.11-.43-5.5-.55-10.89-.6-16.41-.54l-7.76.01q-2.56.02-5.12.09c-13.42.32-21.26-2.61-31.6-11.13l-2.39-1.85a158 158 0 0 1-5.48-4.52 286 286 0 0 0-17.19-13.26l-2.09-1.5c-5.7-4-11.62-7.95-18.85-6.87-5.49 2.8-7.69 5.97-9.57 11.75-.6 3.12-.53 6.11-.51 9.29l.01 2.13.03 4.56.03 7.26q.04 10.31.11 20.63l.05 12.64.03 4.78c.08 8.52-.23 16.7-1.7 25.12a95 95 0 0 0-1.09 11.81l-.11 2.4c-.38 8.8-.54 17.6-.58 26.4q-.01 2.76-.06 5.5c-.31 19.92 4.49 32.28 18.36 46.8 16.03 16.12 40.54 28.15 63.55 29.03l2.32-.04 2.37-.02L325 499a131 131 0 0 1-11.95 19.21 181 181 0 0 0-5.68 8.29c-17.37 26.26-38.08 50.17-59.5 73.19l-1.73 1.87c-11.46 12.27-11.46 12.27-17.39 16.31l-2.52 1.75c-3.96 2.45-7.23 2.49-11.79 2.63-8.92.62-15.23 3.03-21.38 9.62-5.27 6.7-6.68 12.5-6.48 20.97.79 5.93 3.62 9.4 7.79 13.47 6.83 4.39 12.32 5.24 20.32 5.19l2.95-.01c7.66-.18 13.69-1.6 20.36-5.49l2.27-1.22q2.4-1.33 4.73-2.78l-.98 2.16c-2.08 5.8-1.59 11.8.04 17.65 5.13 8.43 12.65 11.17 21.86 13.72 19.35 4.37 37.33-4.9 53.27-14.9 4.52-2.94 8.97-5.98 13.42-9.02 5-3.37 10.08-6.62 15.14-9.89 11.78-7.63 23.4-15.5 35.03-23.35l4.79-3.22c29.95-20.17 29.95-20.17 42.68-30.28l4.53-3.55 2.17-1.71a500 500 0 0 1 7.27-5.59q7.38-5.6 14.47-11.58l1.65-1.39c2.5-2.13 4.88-4.27 7.21-6.6 6.56-6.55 12.56-8.35 21.45-10.45q4.15-1.23 8.25-2.56 6.47-2.07 13-3.94c3.5-1.05 6.84-2.32 10.2-3.73L527 551l3.2-1.35a1300 1300 0 0 0 78.46-36.46A1208 1208 0 0 1 653 492l.25 2.42c.97 4.62 2.73 8.61 4.69 12.89l1.21 2.66c8.39 18.06 19.2 33.56 32.85 48.03l1.88 2.04c7.44 7.8 16.21 14.04 25.13 20.02 25.57 17.15 25.57 17.15 28.65 31.78.63 4.03 1.02 8.09 1.34 12.16l-2.13.08c-8.41.5-14.47 1.97-20.24 8.36-4.6 5.92-5.39 11.15-4.63 18.56 2.55 7.24 8.03 10.2 14.56 13.69l3.38 1.82c10.73 5.22 27.39 4.16 38.5.43 9.3-3.68 14.97-9.16 19.56-17.94l1.05-1.95c2.94-5.96 4.37-12.29 5.89-18.73q1-4.16 2.21-8.27c2.95-9.86 5.1-19.82 7.04-29.92l.38-2q1.24-6.57 2.43-13.13l.58-3.09c2.31-12.75 2.56-25.51 2.38-38.44l-.08-8.28-.02-2.14c-.22-25.56.15-50.71 3.61-76.09.69-5.15 1.26-10.3 1.84-15.47.67-6.06 1.35-12.12 2.21-18.16.61-4.89.68-9.76.72-14.69l.02-2.98.04-6.25.06-6.26c.35-24.72-4.06-46.99-15.73-68.89-3.76-7.1-3.76-7.1-3.63-10.26a52 52 0 0 1 5.94-5.69l5.42-4.8c9.26-8.54 14.92-20.07 20.5-31.17 7.77-15.42 15.37-29.2 32.14-36.28 13.33-3.86 28.83-1.11 41 4.94 14.8 8.8 22.98 19.05 29 35l1.16 2.79c4.55 17.36-.23 35.88-6.67 52.07-3.46 8.76-4.97 16.73-3.49 26.14 2.43 4.24 4.69 7.61 9 10 6.55 1.12 12.26.39 17.88-3.22 13.86-11.64 21.74-36.36 24.12-53.78 2.03-32.37-4.44-61.41-25.8-86.51L957 211l-1.89-2.14c-14.07-15-36.99-27.12-57.72-27.97-28.9-.61-50.65 4.75-71.39 26.11" fill="#EDEEED"/><path d="m888.25 177.75 3.93-.06c7.09-.03 12.38.35 18.82 3.31l7 2.13c9.28 2.95 20.33 7.6 27 14.87l2.69 1.56L950 201v2l1.73.25c7.76 2.56 13.17 12.12 17.27 18.75l2.06 2.94c2.66 4.2 4.8 8.58 6.94 13.06l1.39 2.88c2.24 4.74 4.01 8.87 4.61 14.12l.94 3.19c4.98 17.87 5.36 36 .06 53.81l-1 3.63-1 3.37-.68 2.43A66 66 0 0 1 977 335l-1.05 2.34c-2.81 6.1-6 10.19-10.95 14.66l-2.5 2.69c-3.95 3.65-7.5 5.98-12.94 6.87-6.02-.95-10.47-4.04-14.43-8.62-4.51-6.23-5.36-11.77-4.94-19.38 1.08-4.76 2.9-9.08 4.81-13.56l2-5 .82-2.03A50 50 0 0 0 941 301l.56-2.56c.44-2.44.44-2.44.44-5.19 0-2.25 0-2.25 1-3.25q.14-2.87.13-5.75v-3.17c-.2-4.8-1.26-8.68-3.13-13.08l-.94-2.37q-1.26-3.09-2.62-6.13c-1.44-3.5-1.44-3.5-1.75-5.88-1.89-7.19-9.63-13.29-15.75-17.06q-2.45-1.32-4.94-2.56l-2.21-1.14c-10.61-5.13-22.04-7.49-33.66-5.05A41 41 0 0 0 870 232l-3.19 1.69c-9.06 5.17-14.82 10.27-17.81 20.31v6l-3 2a87 87 0 0 0-3 5 194 194 0 0 1-5 8l-.44 2.13L837 279l-3 1c-1.01 1.79-1.01 1.79-2 4-5.59 9.17-12.43 15.63-21 22l1.24 1.72c3.3 4.72 5.33 8.65 6.76 14.28a97 97 0 0 0 3 4q.54 2 1 4 .69 2.22 1.44 4.44l.79 2.38a78 78 0 0 0 1.96 4.93c.92 2.56.81 4.55.81 7.25l1 2.5c1.09 2.72 1.08 4.61 1 7.5l1 3c.07 2.19 0 4.36-.06 6.55.06 2.45.06 2.45.55 5.16.65 4.21.66 8.3.64 12.54l-.01 2.56a131 131 0 0 1-.9 15.18C831 406 831 406 831 409.87c0 2.71-.34 4.56-1 7.13v2.94c0 2.89-.43 5.24-1 8.06q-.29 2.63-.5 5.25-.45 5.38-1 10.75l-.22 2.13C827 448 827 448 826 451v3c0 3 0 3-1 6a92 92 0 0 0-1 14.37c0 3.63 0 3.63-.5 5.56a25 25 0 0 0-.5 6.76q.07 2.15 0 4.31l-1 1q-.14 2.8-.13 5.62l-.01 3.53.01 3.72-.01 3.61c.01 6.32.27 12.5.91 18.79.42 5.05.37 10.1.36 15.17l.01 3.21-.01 3.1v2.77A31 31 0 0 1 822 558v3.56c0 3.44 0 3.44-1 6.44q-.26 2.4-.44 4.81A45 45 0 0 1 818 584a199 199 0 0 0-2.5 14.75A74 74 0 0 1 813 609c-.72 2.59-1 4.27-1 7l-.94 1.81c-1.31 2.71-1.59 5.22-2.06 8.19l-1.06 3.69C807 633 807 633 807 636c3.47 2.31 6.01 2.74 10.1 3.52l4.34.84 2.29.44c39.43 7.63 39.43 7.63 46.27 16.2 1 3.37 1 3.37 1 6-32.43 28.61-113.02 16.38-152.47 14.26a2052 2052 0 0 0-106.41-2.63q-5.32 0-10.64-.03c-45.15-.14-90 2.16-134.93 6.49l-7.14.68A4679 4679 0 0 0 336.12 695c-36.29 4.37-36.29 4.37-51.81 4.25l-3.21.02a72 72 0 0 1-17.01-1.85c-2.09-.42-2.09-.42-5.53-.36-3.17-.07-3.42-.92-5.56-3.06-2.62.37-2.62.37-5 1l-1-1-3.13-.25c-4.72-.91-7.25-2.73-10.87-5.75l-2.5-1.94c-1.5-2.06-1.5-2.06-1.81-4.93 1.99-4.75 5.83-6.81 10.31-9.13h2l-2-4-2.09 1.36a47 47 0 0 1-32.89 4.98c-6.88-2.19-13.51-5.9-17.16-12.37-3.18-7.33-4.65-15.22-1.76-22.88 3.86-7.5 8.32-14.11 16.53-16.96q2.17-.6 4.37-1.13l2.56-.69c2.44-.31 2.44-.31 6.31-.18 5.9.07 10.69-2.38 15.13-6.13l1.66-1.38c2.66-2.25 5.22-4.49 7.65-6.99C241 604 241 604 243 604l.79-1.72a46 46 0 0 1 4.58-6.78l1.78-2.28A60 60 0 0 1 256 587h2l.75-1.7c1.46-2.69 3.22-4.76 5.25-7.05l2.13-2.42C268 574 268 574 270 574l.25-1.87c.99-2.8 2.18-2.85 4.75-4.13l1-4c1.09-1.66 1.09-1.66 2.44-3.29l1.51-1.84 1.61-1.93 3.3-4.04 1.63-2.01c2.72-3.4 5.25-6.94 7.79-10.49q2.28-3.17 4.66-6.27c3.13-4.15 6.07-8.44 8.99-12.74A43 43 0 0 1 313 515l.93-2.32c1.12-2.8 2.5-5.02 4.2-7.49l1.63-2.4L321 501l-3.06.63c-4.34.41-6.81-.3-10.94-1.63q-2.5-.5-5-.94a49 49 0 0 1-12-4.06l-2.28-.89c-13.71-5.57-23.91-12.98-34.14-23.56C251 468 251 468 248.4 466.01c-2.7-2.26-4.25-4.51-6.09-7.51l-1.76-2.84A94 94 0 0 1 237 449l-1.53-2.67c-1.66-3.76-1.91-6.5-2.02-10.6l-.06-2.06-.1-4.3q-.06-3.25-.17-6.5c-.19-7.05-.1-13.87.88-20.87q.27-3.34.5-6.69l.25-3.61q.25-3.7.46-7.4l.23-3.61.18-3.24c.38-3.45.38-3.45 1.4-7.13 1.45-6.44 1.19-12.95 1.1-19.52l-.06-7.14q-.07-10.14-.18-20.29-.06-6.22-.09-12.46-.01-2.36-.05-4.71c-.13-9.28-.07-17.3 4.63-25.64 3.68-3.53 8.51-4.19 13.43-4.66 3.55.16 5.49 1.92 8.2 4.1l3.31 1.75c3.84 2.16 6.87 5.01 10.1 7.97 3.98 3.51 8.21 6.67 12.43 9.88q5.18 3.95 10.26 8.03A38 38 0 0 0 306 311l2.14 1.55c3.61 1.83 6.7 1.81 10.65 1.71l2.23-.02 7.04-.11 7.05-.1q2.19-.02 4.38-.07c3.36-.05 6.29.09 9.51 1.04a302 302 0 0 0 7.94.5c7.5.37 7.5.37 10.88 1.15 2.18.35 2.18.35 5.05-1.59a75 75 0 0 0 6.29-6.7c3.97-4.56 8.14-8.88 12.4-13.17l2.21-2.27c5.55-5.59 10.21-9.03 18.23-9.92 3 0 3 0 4.46 1.08 2.15 2.68 3.64 5.61 5.17 8.67l.94 1.8A33 33 0 0 1 426 307l.28 2.34.22 2.03.25 2.29.75 7.15.22 2.15c.28 2.07.76 4.02 1.28 6.04 1.36 5.46.98 10.81.84 16.41.15 3.4.67 5.56 2.16 8.59l4.25-1.87 2.39-1.06q3.22-1.46 6.36-3.07l3.56-1.75c10.53-5.27 21.18-10.87 30.88-17.56C482 327 482 327 484.56 326c2.44-1 2.44-1 4.81-2.94 3.05-2.39 6.06-3.58 9.63-5.06q1.8-.97 3.56-2c3.11-1.81 6.22-3.41 9.44-5l7.94-3.94 2.05-1.01c4.43-2.21 8.72-4.58 13.01-7.05a201 201 0 0 1 19.34-8.89 69 69 0 0 0 4.56-2.06q3.13-1.54 6.32-2.92l2.38-1.05 4.93-2.16 2.38-1.05 2.16-.94C579 279 579 279 582 277a89 89 0 0 1 4.44-1.5A43 43 0 0 0 593 273a39 39 0 0 1 6.5-2.44A24 24 0 0 0 608 266h3q2.99-.63 5.94-1.37l3.15-.78c2.53-.74 4.6-1.62 6.91-2.85q2.99-1.04 6-2l3-1q2.37-.26 4.75-.44A61 61 0 0 0 653 255c2.66-.41 5.32-.7 8-1q3.68-.68 7.31-1.56c2.84-.47 5.56-.47 8.43-.38 2.26-.06 2.26-.06 5.33-.55 5-.65 9.9-.66 14.93-.64l2.91-.01c5.13.01 10.01.28 15.09 1.14q2 .2 4 .37c6.75.73 13.36 2.24 20 3.63l2.61.5c4.96.99 9.44 2.6 14.1 4.55q2.8 1.14 5.66 2.08c2.63.87 2.63.87 4.5 1.87 3.3 1.55 6.47 2.77 10.13 3 4.53-2.18 6.95-5.11 10-9l3-1c3.81-4.87 7-10.12 10.29-15.35q2.17-3.36 4.52-6.59a54 54 0 0 0 5.12-9.06c1.92-4.06 3.76-6.9 7.07-10l3-5c3.33-4.37 6.98-7.79 11.16-11.34C832 199 832 199 834 196.44c4.56-5.56 10.34-8.91 17-11.44l2.34-1a84 84 0 0 1 16.66-5l1.72-.51c5.37-1.15 11.06-.72 16.53-.74M826 207c-7.71 8.56-13.18 18.29-18.89 28.25-6.7 11.65-14.12 21.65-24.11 30.75l-1.68 1.54c-2.86 2.27-4.35 2.46-8.02 2.22-4.25-.63-8.02-1.96-11.99-3.57-60.19-24.17-123.65-9.45-181.35 14.79a897 897 0 0 0-80.11 39.46 994 994 0 0 1-9.1 4.92c-9.21 4.94-18.31 9.88-27.14 15.47-5.17 3.18-10.53 6.03-15.86 8.92l-3.09 1.68A200 200 0 0 1 427 360l.05-1.82c.42-18.91-.86-37.31-4.99-55.81l-.44-2.02a27 27 0 0 0-7.49-13.22c-3.11-1.65-4.63-1.72-8.13-1.13-9.1 4.45-16.04 12.51-22.56 20.06l-1.72 1.91C380 310 380 310 378.31 312.53c-2.26 2.95-4.05 4.66-7.31 6.47-4.83.47-9.3.07-14.11-.43-5.5-.55-10.89-.6-16.41-.54l-7.76.01q-2.56.02-5.12.09c-13.42.32-21.26-2.61-31.6-11.13l-2.39-1.85a158 158 0 0 1-5.48-4.52 286 286 0 0 0-17.19-13.26l-2.09-1.5c-5.7-4-11.62-7.95-18.85-6.87-5.49 2.8-7.69 5.97-9.57 11.75-.6 3.12-.53 6.11-.51 9.29l.01 2.13.03 4.56.03 7.26q.04 10.31.11 20.63l.05 12.64.03 4.78c.08 8.52-.23 16.7-1.7 25.12a95 95 0 0 0-1.09 11.81l-.11 2.4c-.38 8.8-.54 17.6-.58 26.4q-.01 2.76-.06 5.5c-.31 19.92 4.49 32.28 18.36 46.8 16.03 16.12 40.54 28.15 63.55 29.03l2.32-.04 2.37-.02L325 499a131 131 0 0 1-11.95 19.21 181 181 0 0 0-5.68 8.29c-17.37 26.26-38.08 50.17-59.5 73.19l-1.73 1.87c-11.46 12.27-11.46 12.27-17.39 16.31l-2.52 1.75c-3.96 2.45-7.23 2.49-11.79 2.63-8.92.62-15.23 3.03-21.38 9.62-5.27 6.7-6.68 12.5-6.48 20.97.79 5.93 3.62 9.4 7.79 13.47 6.83 4.39 12.32 5.24 20.32 5.19l2.95-.01c7.66-.18 13.69-1.6 20.36-5.49l2.27-1.22q2.4-1.33 4.73-2.78l-.98 2.16c-2.08 5.8-1.59 11.8.04 17.65 5.13 8.43 12.65 11.17 21.86 13.72 19.35 4.37 37.33-4.9 53.27-14.9 4.52-2.94 8.97-5.98 13.42-9.02q6.34-4.24 12.76-8.36 9.81-6.33 19.51-12.86c2.97-1.95 4.85-2.55 8.35-2.82l2.63-.22 5.37-.42a151 151 0 0 0 16.22-2.35c9.54-1.87 19.14-2.94 28.8-4.02l5.68-.64 11.53-1.3q7.68-.86 15.36-1.76c50.06-5.81 100.23-7.22 150.59-7.12q8.86.01 17.72-.01a1648 1648 0 0 1 75.16 1.35l8.67.39 2.57.12c3.92.19 7.64.49 11.47 1.41-1.87 5.75-1.87 5.75-3 8-.56 5.96-.5 10.93 3 16 3.59 3.15 7.36 5.44 11.56 7.69l3.38 1.82c10.73 5.22 27.39 4.16 38.5.43 9.3-3.68 14.97-9.16 19.56-17.94l1.05-1.95c2.94-5.96 4.37-12.29 5.89-18.73q1-4.16 2.21-8.27c2.95-9.86 5.1-19.82 7.04-29.92l.38-2q1.24-6.57 2.43-13.13l.58-3.09c2.31-12.75 2.56-25.51 2.38-38.44l-.08-8.28-.02-2.14c-.22-25.56.15-50.71 3.61-76.09.69-5.15 1.26-10.3 1.84-15.47.67-6.06 1.35-12.12 2.21-18.16.61-4.89.68-9.76.72-14.69l.02-2.98.04-6.25.06-6.26c.35-24.72-4.06-46.99-15.73-68.89-3.76-7.1-3.76-7.1-3.63-10.26a52 52 0 0 1 5.94-5.69l5.42-4.8c9.26-8.54 14.92-20.07 20.5-31.17 7.77-15.42 15.37-29.2 32.14-36.28 13.33-3.86 28.83-1.11 41 4.94 14.8 8.8 22.98 19.05 29 35l1.16 2.79c4.55 17.36-.23 35.88-6.67 52.07-3.46 8.76-4.97 16.73-3.49 26.14 2.43 4.24 4.69 7.61 9 10 6.55 1.12 12.26.39 17.88-3.22 13.86-11.64 21.74-36.36 24.12-53.78 2.03-32.37-4.44-61.41-25.8-86.51L957 211l-1.89-2.14c-14.07-15-36.99-27.12-57.72-27.97-28.9-.61-50.65 4.75-71.39 26.11" fill="#BCBDBD"/><path d="m888.25 177.75 3.93-.06c7.09-.03 12.38.35 18.82 3.31l7 2.13c9.28 2.95 20.33 7.6 27 14.87l2.69 1.56L950 201v2l1.73.25c7.76 2.56 13.17 12.12 17.27 18.75l2.06 2.94c2.66 4.2 4.8 8.58 6.94 13.06l1.39 2.88c2.24 4.74 4.01 8.87 4.61 14.12l.94 3.19c4.98 17.87 5.36 36 .06 53.81l-1 3.63-1 3.37-.68 2.43A66 66 0 0 1 977 335l-1.05 2.34c-2.81 6.1-6 10.19-10.95 14.66l-2.5 2.69c-3.95 3.65-7.5 5.98-12.94 6.87-6.02-.95-10.47-4.04-14.43-8.62-4.51-6.23-5.36-11.77-4.94-19.38 1.08-4.76 2.9-9.08 4.81-13.56l2-5 .82-2.03A50 50 0 0 0 941 301l.56-2.56c.44-2.44.44-2.44.44-5.19 0-2.25 0-2.25 1-3.25q.14-2.87.13-5.75v-3.17c-.2-4.8-1.26-8.68-3.13-13.08l-.94-2.37q-1.26-3.09-2.62-6.13c-1.44-3.5-1.44-3.5-1.75-5.88-1.89-7.19-9.63-13.29-15.75-17.06q-2.45-1.32-4.94-2.56l-2.21-1.14c-10.61-5.13-22.04-7.49-33.66-5.05A41 41 0 0 0 870 232l-3.19 1.69c-9.06 5.17-14.82 10.27-17.81 20.31v6l-3 2a87 87 0 0 0-3 5 194 194 0 0 1-5 8l-.44 2.13L837 279l-3 1c-1.01 1.79-1.01 1.79-2 4-5.59 9.17-12.43 15.63-21 22l1.24 1.72c3.3 4.72 5.33 8.65 6.76 14.28a97 97 0 0 0 3 4q.54 2 1 4 .69 2.22 1.44 4.44l.79 2.38a78 78 0 0 0 1.96 4.93c.92 2.56.81 4.55.81 7.25l1 2.5c1.09 2.72 1.08 4.61 1 7.5l1 3c.07 2.19 0 4.36-.06 6.55.06 2.45.06 2.45.55 5.16.65 4.21.66 8.3.64 12.54l-.01 2.56a131 131 0 0 1-.9 15.18C831 406 831 406 831 409.87c0 2.71-.34 4.56-1 7.13v2.94c0 2.89-.43 5.24-1 8.06q-.29 2.63-.5 5.25-.45 5.38-1 10.75l-.22 2.13C827 448 827 448 826 451v3c0 3 0 3-1 6a92 92 0 0 0-1 14.37c0 3.63 0 3.63-.5 5.56a25 25 0 0 0-.5 6.76q.07 2.15 0 4.31l-1 1q-.14 2.8-.13 5.62l-.01 3.53.01 3.72-.01 3.61c.01 6.32.27 12.5.91 18.79.42 5.05.37 10.1.36 15.17l.01 3.21-.01 3.1v2.77A31 31 0 0 1 822 558v3.56c0 3.44 0 3.44-1 6.44q-.26 2.4-.44 4.81A45 45 0 0 1 818 584a199 199 0 0 0-2.5 14.75A74 74 0 0 1 813 609c-.72 2.59-1 4.27-1 7l-.94 1.81c-1.31 2.71-1.59 5.22-2.06 8.19l-1.06 3.69C807 633 807 633 807 636c3.47 2.31 6.01 2.74 10.1 3.52l4.34.84 2.29.44c39.43 7.63 39.43 7.63 46.27 16.2 1 3.37 1 3.37 1 6-32.43 28.61-113.02 16.38-152.47 14.26a2052 2052 0 0 0-106.41-2.63q-5.32 0-10.64-.03c-45.15-.14-90 2.16-134.93 6.49l-7.14.68A4679 4679 0 0 0 336.12 695c-36.29 4.37-36.29 4.37-51.81 4.25l-3.21.02a72 72 0 0 1-17.01-1.85c-2.09-.42-2.09-.42-5.53-.36-3.17-.07-3.42-.92-5.56-3.06-2.62.37-2.62.37-5 1l-1-1-3.13-.25c-4.72-.91-7.25-2.73-10.87-5.75l-2.5-1.94c-1.5-2.06-1.5-2.06-1.81-4.93 1.99-4.75 5.83-6.81 10.31-9.13h2l-2-4-2.09 1.36a47 47 0 0 1-32.89 4.98c-6.88-2.19-13.51-5.9-17.16-12.37-3.18-7.33-4.65-15.22-1.76-22.88 3.86-7.5 8.32-14.11 16.53-16.96q2.17-.6 4.37-1.13l2.56-.69c2.44-.31 2.44-.31 6.31-.18 5.9.07 10.69-2.38 15.13-6.13l1.66-1.38c2.66-2.25 5.22-4.49 7.65-6.99C241 604 241 604 243 604l.79-1.72a46 46 0 0 1 4.58-6.78l1.78-2.28A60 60 0 0 1 256 587h2l.75-1.7c1.46-2.69 3.22-4.76 5.25-7.05l2.13-2.42C268 574 268 574 270 574l.25-1.87c.99-2.8 2.18-2.85 4.75-4.13l1-4c1.09-1.66 1.09-1.66 2.44-3.29l1.51-1.84 1.61-1.93 3.3-4.04 1.63-2.01c2.72-3.4 5.25-6.94 7.79-10.49q2.28-3.17 4.66-6.27c3.13-4.15 6.07-8.44 8.99-12.74A43 43 0 0 1 313 515l.93-2.32c1.12-2.8 2.5-5.02 4.2-7.49l1.63-2.4L321 501l-3.06.63c-4.34.41-6.81-.3-10.94-1.63q-2.5-.5-5-.94a49 49 0 0 1-12-4.06l-2.28-.89c-13.71-5.57-23.91-12.98-34.14-23.56C251 468 251 468 248.4 466.01c-2.7-2.26-4.25-4.51-6.09-7.51l-1.76-2.84A94 94 0 0 1 237 449l-1.53-2.67c-1.66-3.76-1.91-6.5-2.02-10.6l-.06-2.06-.1-4.3q-.06-3.25-.17-6.5c-.19-7.05-.1-13.87.88-20.87q.27-3.34.5-6.69l.25-3.61q.25-3.7.46-7.4l.23-3.61.18-3.24c.38-3.45.38-3.45 1.4-7.13 1.45-6.44 1.19-12.95 1.1-19.52l-.06-7.14q-.07-10.14-.18-20.29-.06-6.22-.09-12.46-.01-2.36-.05-4.71c-.13-9.28-.07-17.3 4.63-25.64 3.68-3.53 8.51-4.19 13.43-4.66 3.55.16 5.49 1.92 8.2 4.1l3.31 1.75c3.84 2.16 6.87 5.01 10.1 7.97 3.98 3.51 8.21 6.67 12.43 9.88q5.18 3.95 10.26 8.03A38 38 0 0 0 306 311l2.14 1.55c3.61 1.83 6.7 1.81 10.65 1.71l2.23-.02 7.04-.11 7.05-.1q2.19-.02 4.38-.07c3.36-.05 6.29.09 9.51 1.04a302 302 0 0 0 7.94.5c7.5.37 7.5.37 10.88 1.15 2.18.35 2.18.35 5.05-1.59a75 75 0 0 0 6.29-6.7c3.97-4.56 8.14-8.88 12.4-13.17l2.21-2.27c5.55-5.59 10.21-9.03 18.23-9.92 3 0 3 0 4.46 1.08 2.15 2.68 3.64 5.61 5.17 8.67l.94 1.8A33 33 0 0 1 426 307l.28 2.34.22 2.03.25 2.29.75 7.15.22 2.15c.28 2.07.76 4.02 1.28 6.04 1.36 5.46.98 10.81.84 16.41.15 3.4.67 5.56 2.16 8.59l4.25-1.87 2.39-1.06q3.22-1.46 6.36-3.07l3.56-1.75c10.53-5.27 21.18-10.87 30.88-17.56C482 327 482 327 484.56 326c2.44-1 2.44-1 4.81-2.94 3.05-2.39 6.06-3.58 9.63-5.06q1.8-.97 3.56-2c3.11-1.81 6.22-3.41 9.44-5l7.94-3.94 2.05-1.01c4.43-2.21 8.72-4.58 13.01-7.05a201 201 0 0 1 19.34-8.89 69 69 0 0 0 4.56-2.06q3.13-1.54 6.32-2.92l2.38-1.05 4.93-2.16 2.38-1.05 2.16-.94C579 279 579 279 582 277a89 89 0 0 1 4.44-1.5A43 43 0 0 0 593 273a39 39 0 0 1 6.5-2.44A24 24 0 0 0 608 266h3q2.99-.63 5.94-1.37l3.15-.78c2.53-.74 4.6-1.62 6.91-2.85q2.99-1.04 6-2l3-1q2.37-.26 4.75-.44A61 61 0 0 0 653 255c2.66-.41 5.32-.7 8-1q3.68-.68 7.31-1.56c2.84-.47 5.56-.47 8.43-.38 2.26-.06 2.26-.06 5.33-.55 5-.65 9.9-.66 14.93-.64l2.91-.01c5.13.01 10.01.28 15.09 1.14q2 .2 4 .37c6.75.73 13.36 2.24 20 3.63l2.61.5c4.96.99 9.44 2.6 14.1 4.55q2.8 1.14 5.66 2.08c2.63.87 2.63.87 4.5 1.87 3.3 1.55 6.47 2.77 10.13 3 4.53-2.18 6.95-5.11 10-9l3-1c3.81-4.87 7-10.12 10.29-15.35q2.17-3.36 4.52-6.59a54 54 0 0 0 5.12-9.06c1.92-4.06 3.76-6.9 7.07-10l3-5c3.33-4.37 6.98-7.79 11.16-11.34C832 199 832 199 834 196.44c4.56-5.56 10.34-8.91 17-11.44l2.34-1a84 84 0 0 1 16.66-5l1.72-.51c5.37-1.15 11.06-.72 16.53-.74M826 207c-7.71 8.56-13.18 18.29-18.89 28.25-6.7 11.65-14.12 21.65-24.11 30.75l-1.68 1.54c-2.86 2.27-4.35 2.46-8.02 2.22-4.25-.63-8.02-1.96-11.99-3.57-60.19-24.17-123.65-9.45-181.35 14.79a897 897 0 0 0-80.11 39.46 994 994 0 0 1-9.1 4.92c-9.21 4.94-18.31 9.88-27.14 15.47-5.17 3.18-10.53 6.03-15.86 8.92l-3.09 1.68A200 200 0 0 1 427 360l.05-1.82c.42-18.91-.86-37.31-4.99-55.81l-.44-2.02a27 27 0 0 0-7.49-13.22c-3.11-1.65-4.63-1.72-8.13-1.13-9.1 4.45-16.04 12.51-22.56 20.06l-1.72 1.91C380 310 380 310 378.31 312.53c-2.26 2.95-4.05 4.66-7.31 6.47-4.83.47-9.3.07-14.11-.43-5.5-.55-10.89-.6-16.41-.54l-7.76.01q-2.56.02-5.12.09c-13.42.32-21.26-2.61-31.6-11.13l-2.39-1.85a158 158 0 0 1-5.48-4.52 286 286 0 0 0-17.19-13.26l-2.09-1.5c-5.7-4-11.62-7.95-18.85-6.87-5.49 2.8-7.69 5.97-9.57 11.75-.6 3.12-.53 6.11-.51 9.29l.01 2.13.03 4.56.03 7.26q.04 10.31.11 20.63l.05 12.64.03 4.78c.08 8.52-.23 16.7-1.7 25.12a95 95 0 0 0-1.09 11.81l-.11 2.4c-.38 8.8-.54 17.6-.58 26.4q-.01 2.76-.06 5.5c-.31 19.92 4.49 32.28 18.36 46.8 16.03 16.12 40.54 28.15 63.55 29.03l2.32-.04 2.37-.02L325 499a131 131 0 0 1-11.95 19.21 181 181 0 0 0-5.68 8.29c-17.37 26.26-38.08 50.17-59.5 73.19l-1.73 1.87c-11.46 12.27-11.46 12.27-17.39 16.31l-2.52 1.75c-3.96 2.45-7.23 2.49-11.79 2.63-8.92.62-15.23 3.03-21.38 9.62-5.27 6.7-6.68 12.5-6.48 20.97.79 5.93 3.62 9.4 7.79 13.47 6.83 4.39 12.32 5.24 20.32 5.19l2.95-.01c7.66-.18 13.69-1.6 20.36-5.49l2.27-1.22q2.4-1.33 4.73-2.78l-.98 2.16c-2.08 5.8-1.59 11.8.04 17.65 4.78 7.86 11.34 10.62 19.94 13.19l1.67.53c3.39.68 6.76.67 10.2.71l2.38.03a1001 1001 0 0 0 10.44.05c18.65.02 36.84-1.85 55.31-4.32l10.32-1.3 6-.77c5.98-.76 11.94-1.26 17.97-1.63 4.72-.38 9.39-1 14.08-1.61a1194 1194 0 0 1 38.69-4.21l5.23-.51 2.58-.25q7.02-.7 14.03-1.5c16.09-1.87 32.2-3.14 48.35-4.35l3.46-.26 10.12-.74 2.93-.22c19.57-1.4 39.16-1.82 58.77-1.85l6.91-.02q9.14-.03 18.29-.03h7.58c31.49-.03 62.92.17 94.38 1.75a1375 1375 0 0 0 68.85 1.81l6.64.01c72.7.14 72.7.14 89.82-13.32-.21-3.7-.87-4.87-3.58-7.49-3.37-2.68-6.97-4.16-11.05-5.45l-2.28-.74a270 270 0 0 0-22.4-5.63l-3.5-.77A150 150 0 0 0 803 640c.99-7.5 2.67-14.55 4.75-21.81 4.03-14.2 6.64-28.68 9.25-43.19l.58-3.07c2.31-12.76 2.56-25.53 2.38-38.46l-.08-8.28-.02-2.14c-.22-25.56.15-50.71 3.61-76.09.69-5.15 1.26-10.3 1.84-15.47.67-6.06 1.35-12.12 2.21-18.16.61-4.89.68-9.76.72-14.69l.02-2.98.04-6.25.06-6.26c.35-24.72-4.06-46.99-15.73-68.89-3.76-7.1-3.76-7.1-3.63-10.26a52 52 0 0 1 5.94-5.69l5.42-4.8c9.26-8.54 14.92-20.07 20.5-31.17 7.77-15.42 15.37-29.2 32.14-36.28 13.33-3.86 28.83-1.11 41 4.94 14.8 8.8 22.98 19.05 29 35l1.16 2.79c4.55 17.36-.23 35.88-6.67 52.07-3.46 8.76-4.97 16.73-3.49 26.14 2.43 4.24 4.69 7.61 9 10 6.55 1.12 12.26.39 17.88-3.22 13.86-11.64 21.74-36.36 24.12-53.78 2.03-32.37-4.44-61.41-25.8-86.51L957 211l-1.89-2.14c-14.07-15-36.99-27.12-57.72-27.97-28.9-.61-50.65 4.75-71.39 26.11" fill="#E7E8E8"/><path d="m256 279 2 1v3h-2c2.41 2.73 4.92 4.12 8.19 5.69l2.73 1.32 2.08.99v2h2l1.21 2.18c2.62 4.13 6.28 6.38 10.23 9.16 4.38 3.19 4.38 3.19 5.46 5.97l.1 1.69h2c2 3 2 3 2 6h2l1 3c-3.48 2.15-7 4-10.69 5.75a104 104 0 0 0-18.47 11.96C264 340 264 340 262 340l-.75 1.62A67 67 0 0 1 256 350h-2l-1 6h-2v2h-2v2h-2a267 267 0 0 1-2.98-46.92l.04-2.07.12-5.58C244 302 244 302 242 295l-1 57h-1q-.1-11.3-.16-22.61-.01-5.25-.07-10.5-.05-6.06-.06-12.1l-.05-3.77c0-6.71.2-12.96 3.34-19.02 4.3-4.19 7.06-5.25 13-5" fill="#252725"/><path d="M373 403c5.02 3.6 10.25 7.87 12 14 .97 7.68.9 14.5-3.45 21.1-4.67 5.71-10.36 10.3-17.85 11.37-8.96.08-15.71-1.01-22.54-7.11-4.38-4.75-6.9-9.68-7.54-16.17.43-8.56 3.1-15.09 9.08-21.27 9.21-7.67 20.25-7.98 30.3-1.92" fill="#EFD367"/><path d="M292.7 397.45c5.93 4 9.91 9.5 11.3 16.55 1.18 13.42 1.18 13.42-3 19-5.4 5.28-10.75 8.1-18.32 8.56-7.23-.23-12.65-3.35-17.57-8.57-6.15-7.85-7.18-15.1-6.1-24.99 1.95-5.87 5.8-9.04 11.02-12.09 7.82-3.63 15.3-2.54 22.67 1.54" fill="#F2D65A"/><path d="M385 542c-1.41 4.48-3.62 6.91-7 10.12-2.69 2.58-4.93 4.77-7 7.88h-2l-.74 1.73c-1.49 2.67-3.24 4.41-5.45 6.52-2.81 2.7-5.46 5.47-8 8.43a233 233 0 0 1-11.43 12.07l-2.13 2.14-4.44 4.43-6.72 6.72-4.34 4.34-1.99 2a215 215 0 0 1-11.96 11.03 83 83 0 0 0-5.11 4.97c-4.55 4.62-9.64 8.56-14.69 12.62l-8.79 7.25c-2.96 2.34-4.64 2.88-8.34 3.07l-2.44.12-2.55.12-2.58.13-6.3.31v-2c1.96-1.68 3.94-3.25 6-4.81l3.88-2.99c.33-.27.33-.27 2.05-1.59a783 783 0 0 0 36.13-30.17q5.09-4.45 10.25-8.82l1.71-1.44q5.12-4.31 10.36-8.49c5.99-4.87 11.56-10.17 17.17-15.46q4.7-4.4 9.57-8.61c5.09-4.39 10.16-8.8 14.82-13.64l1.48-1.53q2.08-2.17 4.13-4.36C381 542 381 542 385 542" fill="#EAECEE"/><path d="M312 516c.66 1.73.66 1.73 1 4-1.01 2.08-1.01 2.08-2.61 4.31l-1.77 2.49-1.93 2.64-1.95 2.72Q297.09 542.75 289 553l-2.6 3.38A503 503 0 0 1 265 582l-2.33 2.64a983 983 0 0 1-19.11 20.7l-3.88 4.15c-7.33 7.64-14.44 13.43-25.24 13.76-8.48.58-15.03 2.78-20.88 9.13-5.64 7.47-6.76 14.32-5.56 23.62 2.25 6.52 6.95 10.05 13 13 9.35 3.12 22.91 2.5 32-1.25q2.55-1.28 5-2.75l2.05-1.22A67 67 0 0 0 244 661l2 1-.98 2.16c-2 5.55-1.96 12.15.1 17.72 4.83 8.04 12.12 10.13 20.74 12.67 2.4.5 4.55.55 7 .51l2.86-.02 3.03-.04c9.47-.07 18.81.23 28.25 1v1c-29.83 3.63-29.83 3.63-42.95.43-2.05-.43-2.05-.43-5.49-.37-3.17-.07-3.42-.92-5.56-3.06-2.63.38-2.63.38-5 1l-1-1-3.12-.25c-4.73-.91-7.26-2.73-10.88-5.75l-2.5-1.94c-1.5-2.06-1.5-2.06-1.81-4.94 1.99-4.74 5.83-6.8 10.31-9.12h2l-2-4-2.09 1.36a47 47 0 0 1-32.89 4.98c-6.88-2.19-13.51-5.9-17.16-12.37-3.18-7.33-4.65-15.22-1.76-22.88 3.86-7.5 8.32-14.11 16.52-16.97q2.18-.59 4.38-1.12l2.56-.69c2.44-.31 2.44-.31 6.32-.19 5.89.08 10.68-2.37 15.12-6.12l1.66-1.38c2.66-2.25 5.22-4.49 7.65-7C241 604 241 604 243 604l.79-1.72a45 45 0 0 1 4.59-6.78l1.77-2.28A60 60 0 0 1 256 587h2l.75-1.7c1.46-2.69 3.22-4.76 5.25-7.05l2.12-2.42C268 574 268 574 270 574l.25-1.88c.99-2.79 2.18-2.84 4.75-4.12l1-4c1.09-1.66 1.09-1.66 2.44-3.29l1.51-1.84 1.61-1.93 3.3-4.04 1.63-2.01c2.72-3.4 5.25-6.94 7.79-10.49q2.28-3.17 4.66-6.28c3.16-4.18 6.12-8.49 9.08-12.82 2.88-4.2 2.88-4.2 3.98-5.3" fill="#E9E9EB"/><path d="M686.86 250.87h11.03c5.8 0 11.4.08 17.1 1.13l2.83.44C720 253 720 253 722 255l-3.5-.04c-43.84-.55-43.84-.55-61.5 3.04l-3.41.69c-54.47 11.2-105.33 36-153.73 62.75q-4.55 2.48-9.11 4.93c-9.2 4.93-18.3 9.87-27.12 15.46-8.94 5.49-18.36 10.26-27.63 15.17l-1.95 1.06c-2.61 1.37-4.02 1.94-7.05 1.94l-.04-1.82a337 337 0 0 0-2.94-38.24A87 87 0 0 1 423 305h2c1.78 4.54 2.09 8.16 2 13q.43 2.52 1 5l1 6 .54 2.22c.79 4.7.42 9.43.3 14.19.16 3.4.68 5.56 2.16 8.59l4.25-1.87 2.4-1.06q3.2-1.46 6.35-3.07l3.57-1.75c10.52-5.27 21.17-10.87 30.87-17.56 2.56-1.7 2.56-1.7 5.13-2.7 2.43-1 2.43-1 4.8-2.92 3.05-2.4 6.06-3.6 9.63-5.07q1.8-.96 3.57-2c3.1-1.8 6.22-3.41 9.43-5l7.94-3.93 2.05-1.02c4.44-2.2 8.73-4.57 13-7.05a200 200 0 0 1 19.35-8.88 78 78 0 0 0 4.57-2.07q3.12-1.55 6.32-2.92l2.38-1.05 4.93-2.16 2.37-1.04 2.17-.95C579 279 579 279 582 277a101 101 0 0 1 4.44-1.5c2.3-.71 4.42-1.42 6.57-2.5a40 40 0 0 1 6.49-2.43A24 24 0 0 0 608 266h3q2.99-.63 5.94-1.37l3.15-.78c2.54-.74 4.6-1.62 6.9-2.85q3-1.05 6-2l3-1q2.4-.25 4.76-.43A62 62 0 0 0 653 255c2.67-.41 5.33-.7 8-1q3.68-.68 7.32-1.56c2.38-.4 4.47-.47 6.87-.44 4.12 0 7.45-1.13 11.67-1.13" fill="#E5E5E6"/><path d="M357 406c5.38 1.71 8.3 5.13 11 10 2.08 6.24 1.04 11.2-1.72 16.98-2.5 3.96-5.97 5.58-10.28 7.02-4.55.53-8.05.44-12.25-1.5-4.66-4.24-7.99-8.52-8.31-15 .38-6.17 3.21-10.48 6.56-15.5 4.76-3.18 9.45-2.79 15-2" fill="#171814"/><path d="M279 399c5.43 2.46 8.85 6.49 11 12 .89 5.43.73 9.58-1.81 14.5L286 428l-1.44 1.75c-2.94 2.36-5.79 3.15-9.5 3.63-5.08-.63-8.02-3.22-11.37-6.94-3.8-5.48-3.51-12.03-2.69-18.44 4.1-8.39 9.06-9.95 18-9" fill="#181B15"/><path d="m244 661 2 1-.98 2.16c-2 5.55-1.96 12.15.1 17.72 4.83 8.04 12.12 10.13 20.74 12.67 2.4.5 4.55.55 7 .51l2.86-.02 3.03-.04c9.47-.07 18.81.23 28.25 1v1c-29.83 3.63-29.83 3.63-42.95.43-2.05-.43-2.05-.43-5.49-.37-3.17-.07-3.42-.92-5.56-3.06-2.62.38-2.62.38-5 1l-1-1-3.12-.25c-4.73-.91-7.26-2.73-10.88-5.75l-2.5-1.94c-1.5-2.06-1.5-2.06-1.81-4.94 1.99-4.74 5.83-6.8 10.31-9.12h2l-2-4-2.12 1.38c-6.3 3.55-11.24 3.8-18.26 3.24l-2.51-.17L210 672v-1l3.08-.04c11.7-.34 21.38-2.8 30.92-9.96" fill="#DEDFE0"/><path d="M357 400c6.91-.51 12.34-.27 18 4 9.72 9.39 9.72 9.39 10.27 16.38l-.02 3.74.02 3.76C385 431 385 431 383 433c-2.12.62-2.12.62-4 1v-2h-9l-.55-3.32-.76-4.37-.36-2.18A27.5 27.5 0 0 0 364 411v-3l-3-1q-.53-2-1-4a61 61 0 0 0-3-3" fill="#F4D45E"/><path d="M747 625c-1.39 3.39-2.76 4.77-5.94 6.56-5.37 3.06-7.32 5.41-9.06 11.44l1 1q.06 2.5 0 5h-2c.5 4.97 1.55 8.64 4 13-4.93-.43-7.52-2.6-11-6-2.82-4.48-2.62-9.88-2-15 2.12-7.19 7.03-11.7 13.38-15.38 3.87-.92 7.66-.78 11.62-.62" fill="#050605"/><path d="M686.86 250.87h11.03c5.8 0 11.4.08 17.1 1.13l2.83.44C720 253 720 253 722 255l-3.5-.04c-43.84-.55-43.84-.55-61.5 3.04l-3.41.69c-18.96 3.9-38.34 8.7-56.17 16.43-2.42.88-2.42.88-6.42.88v-2a47 47 0 0 1 8.5-3.43A24 24 0 0 0 608 266h3q2.99-.63 5.94-1.37l3.15-.78c2.54-.74 4.6-1.62 6.9-2.85q3-1.05 6-2l3-1q2.4-.25 4.76-.43A62 62 0 0 0 653 255c2.67-.41 5.33-.7 8-1q3.68-.68 7.32-1.56c2.38-.4 4.47-.47 6.87-.44 4.12 0 7.45-1.13 11.67-1.13" fill="#EEEFEF"/><path d="m266 281 3.25 2.06L272 285v2c-4.76-.9-8.72-3.43-12.93-5.72-3.34-1.39-5.49-1.63-9.07-1.28-3.11 1.4-5.23 2.61-6.93 5.66-2.55 6.91-2.4 13.78-2.26 21.05q.06 3.49.08 6.98.09 9.93.25 19.85.1 7.28.15 14.56l.01 2.4c.05 16.06-1.71 31.67-4.3 47.5h-1q-.08-5.71-.12-11.44l-.06-3.24-.02-3.19-.03-2.91c.23-3.22.23-3.22 1.24-7.07 1.49-6.37 1.2-12.84 1.11-19.35l-.06-7.14q-.07-10.14-.18-20.29-.06-6.22-.09-12.46l-.05-4.71c-.13-9.28-.07-17.3 4.64-25.64 6.92-6.65 16.73-5.16 23.62.44" fill="#EDEFEE"/><path d="M731 663c4.84.47 7.94 1.37 12 4 3.21 1.03 6.29 1.19 9.64 1.32l3.24.12 6.78.25 8.34.31-1.5 1.25C768 672 768 672 768 676q-6.54.18-13.08.27-2.23.04-4.45.11-3.2.08-6.4.11l-3.88.08c-3.19-.57-3.19-.57-5.13-2.91C734 671 734 671 734 668l-2 2-2 2h-4l2-6h3z" fill="#C3C3C7"/><path d="M318 437c4.02 1.56 5.59 2.39 8 6-.16 2.04-.16 2.04-1 4-1.59 1.31-1.59 1.31-3.5 2.44-3.39 2.23-3.39 2.23-4.44 5.37L317 457l-7-1-.81-3.25C308 449 308 449 306.31 446.88 305 445 305 445 305.06 442.44c2.3-5.97 7.12-6.28 12.94-5.44" fill="#626261"/><path d="m888.38 177.75 3.9-.06c7.06-.03 12.3.37 18.72 3.31l7 2.13c9.28 2.95 20.33 7.6 27 14.87l2.68 1.56L950 201v2l1.88.25c2.12.75 2.12.75 3.38 2.81L956 208c-3.78 0-4.13-.83-6.75-3.44-10.51-9.6-22.88-15.09-36.25-19.56l-3.02-1.1c-5.85-1.77-11.6-2.02-17.66-2l-2.12.01q-3.33 0-6.63.03l-4.54.01L868 182v-3c6.8-1.28 13.48-1.22 20.38-1.25" fill="#E0E3E0"/><path d="m295 399 2 3h-3v-2h-6l-2 4-2.88-2c-4.56-2.59-8.99-3.03-14.12-2-3.16 2.43-4.8 4.7-7 8-.68 6.61-1.11 13.47 3 19q2.46 2.04 5 4c1.19 2.19 1.19 2.19 2 4l2 1v2l4 1c-3 1-3 1-5.09.03-6.8-4.55-11.3-9.16-13.91-17.03-.83-7.27-1.19-14.33 3.37-20.38 9.6-9.53 21.56-10.05 32.63-2.62" fill="#E0CD6F"/><path d="M822 483c.79 2.36 1.04 3.8.54 6.27a43 43 0 0 0-.67 8.74l-.01 3.49.02 3.62-.02 3.56c.01 6.25.28 12.36.91 18.58.42 5.05.37 10.11.35 15.18l.02 3.21-.01 3.1v2.77A31 31 0 0 1 822 558v3.56c0 3.44 0 3.44-1 6.44a276 276 0 0 0-1 5l-2-1 .09-1.72c.9-17.5 1-34.95.91-52.47l-.06-15.48-.03-3.54-.01-3.28-.01-2.87c.11-2.64.52-5.06 1.11-7.64h2z" fill="#F1F2F3"/><path d="m406 287-1 7-5 1-.75 2.88c-1.47 3.66-1.93 3.51-5.25 5.12-1.71 1.7-1.71 1.7-3.38 3.69l-1.82 2.15L387 311a147 147 0 0 1-10 11v-3l-4-2 2.6-2.56c10.41-10.32 10.41-10.32 14.15-14.75C400.52 287 400.52 287 406 287" fill="#171719"/><path d="M258 281c4.78.49 7.94 2.77 11.69 5.56l1.85 1.37q1.86 1.37 3.71 2.76 2.36 1.76 4.75 3.51c5.04 3.82 8.35 7.02 11 12.8l-4 2c-14.43-11.29-14.43-11.29-16-16h-2l-1.3-1.33c-2.1-2.06-4.25-3.09-6.89-4.36l-2.73-1.32L256 285v-2h2z" fill="#0A0A0B"/><path d="M592 276c-2.81 2.81-6.24 3.85-9.88 5.31-20.54 8.48-40.52 18.23-60.33 28.28Q514.4 313.32 507 317v-3c4.95-2.89 9.98-5.54 15.12-8.06A156 156 0 0 0 535 299a198 198 0 0 1 19.34-8.89 69 69 0 0 0 4.56-2.06c2.09-1.04 4.19-1.99 6.32-2.93l2.38-1.04 4.93-2.16 2.38-1.04 2.16-.95C579 279 579 279 582 277c6.44-2.19 6.44-2.19 10-1" fill="#E3E3E4"/><path d="M235 388h3l-.03 1.94q-.13 10.05-.19 20.1l-.08 7.49q-.07 5.4-.09 10.8l-.06 3.34c-.01 9.28 2.06 17.71 7.57 25.33l1.51 2.12L248 461l2 3-2 2-3.81-5.19-2.15-2.92c-7.33-10.38-8.53-19.27-8.79-31.89l-.13-3.98c-.18-6.8-.04-13.3.88-20.02q.3-3.78.56-7.56l.26-3.69z" fill="#D9DADA"/><path d="M817 568c1.9 3.29 2.7 6.21 3 10q-.92 3.03-2 6a194 194 0 0 0-2.5 14.75A74 74 0 0 1 813 609c-.72 2.59-1 4.27-1 7l-.94 1.81c-1.31 2.71-1.59 5.22-2.06 8.19-1.43 6.62-1.43 6.62-4.12 8.44L803 635c.65-5.72 2.08-10.99 3.69-16.5a337 337 0 0 0 7.01-30.98c1.24-6.49 2.4-12.97 3.3-19.52" fill="#E0E0E2"/><path d="M292 422v9l5 1-1 4h-4v2l-8 1-1-2h-3v2l-6-1v-2l-4-2v-2l3.62.19c4.17-.02 6.85-.86 10.38-3.19a91 91 0 0 0 4-5c3-2 3-2 4-2" fill="#F7DB65"/><path d="M242 672h1l.45 2.45c2.06 9.81 2.06 9.81 5.74 12.8L252 689c-1 2-1 2-2.62 2.69-4.31.56-8.06.09-11.82-2.13L236 688v-2h-4l-1-3c2.09-4.04 4.52-7.49 8.88-9H242z" fill="#CCCECF"/><path d="m730.88 254.25 2.13.45q3 .63 5.99 1.3l2.68.51c4.94.96 9.4 2.61 14.03 4.54q2.8 1.14 5.66 2.08c2.63.87 2.63.87 4.5 1.87 3.3 1.55 6.48 2.77 10.13 3 4.1-2.02 6.38-4.33 9-8h2c-.53 3.85-2.1 5.39-5.07 7.81-.35.32-.35.32-2.21 1.9-4.35 2.06-8.25 1.05-12.65-.3a166 166 0 0 1-5.75-2.22l-4.27-1.64-2.1-.81c-12.65-4.82-25.62-6.71-38.96-8.74v-1c5.4-1.93 9.26-2.03 14.88-.75" fill="#E0E1E4"/><path d="M248 596h3c-2.11 4.68-5.4 7.74-9 11.31l-2.04 2.03c-7.77 7.61-14.35 13.57-25.52 13.91-8.67.56-14.66 3.5-21.44 8.75.32-2.99.55-4.56 2.75-6.69 5.88-3.43 12.49-5.53 19.31-5.25 5.95-.09 10.45-2.27 14.94-6.06l1.66-1.38c2.66-2.25 5.22-4.49 7.65-7C241 604 241 604 243 604l.81-1.75A30 30 0 0 1 248 596" fill="#E0E0E2"/><path d="M364 399v1l-6 1 3 2q.54 2 1 4l2 1-1 2-2.25-1.5c-4.95-2.43-10.41-2.53-15.75-1.5-2.79 1.91-4.35 4.08-6 7l-1.38 2.38c-1.36 5.71-1.35 11.32 1.38 16.62h-2l-1 2c-3.36-6.72-2.45-13.56-.16-20.47 2.97-6.47 7.59-11.21 14.1-14.09 4.81-1.65 9.01-1.77 14.06-1.44" fill="#E4CC77"/><path d="M686.86 250.87h11.03c5.8 0 11.4.08 17.1 1.13l2.83.44C720 253 720 253 722 255l-17.06-.11-5.78-.04c-10.77-.1-21.23.1-31.9 1.7-4.14.57-8.08.6-12.26.45 2-3 2-3 4.25-3.47l2.63-.15c4.84-.31 4.84-.31 7.19-.9 2.1-.52 3.9-.54 6.06-.48 4.14 0 7.49-1.13 11.73-1.13" fill="#F1F1F3"/><path d="M423 305h2c1.77 4.54 2.09 8.15 2 13q.43 2.51 1 5l1 6 .53 2.23c.79 4.64.48 9.29.41 13.98.06 3.79.06 3.79.75 7.58L431 356c-1.48 1.7-1.48 1.7-3 3l-.24-2.48-1.14-11.46-.2-2.07a945 945 0 0 0-3.09-27.64A89 89 0 0 1 423 305" fill="#F1F0F3"/><path d="m291.19 399.38 2.8.62v2h3c.34 1.99.67 3.95 1 6h2v4h2c-.68 1.94-.68 1.94-2 4-2.61.75-2.61.75-5 1q-.48 1.5-1 3h-2v-8h2v-4h-2q-.48.99-1 2c-1-1-1-1-1.05-3.56L290 404l-1.93-.37L286 403l-1-2c3-2 3-2 6.19-1.62" fill="#F8DA59"/><path d="M823 336c2.74 2.37 3.93 4.55 5 8v5l1 2.5c1.09 2.72 1.08 4.61 1 7.5l1 3q.06 2.19 0 4.38c-.04 3.35.16 6.35 1 9.62l-2 1-1 23h-1l-.03-3.17c-.39-37.6-.39-37.6-4.97-54.83-.69-2.93-.69-2.93-1-5z" fill="#DFE0E2"/><path d="M272 286q7.26 5.42 14.44 10.94l1.69 1.3q6.03 4.64 11.97 9.38c1.9 1.38 1.9 1.38 3.71 2.26 2.19 1.12 2.19 1.12 5.01 3.69 5.55 4.04 12.54 3.22 19.12 3.24l4.09.08q5 .08 9.97.11v1c-32.5 1.98-32.5 1.98-42.73-6.94l-1.58-1.49c-2.52-2.34-5.21-4.43-7.9-6.57a414 414 0 0 1-6.09-4.99A162 162 0 0 0 270 288z" fill="#B7B9B9"/><path d="m256 279 2 1v3l-2.05-.18c-7.28-.36-7.28-.36-10.64 2.37-1.56 3.35-1.22 4.32-.31 7.81q-.4 3.51-1 7h-1l-1-5-1 57h-1q-.1-11.3-.16-22.61-.01-5.25-.07-10.5-.05-6.06-.06-12.1l-.05-3.77c0-6.71.2-12.96 3.34-19.02 4.3-4.19 7.06-5.25 13-5" fill="#464847"/><path d="M943 290c2 2 2 2 2.36 5.84-.14 6.23-2.17 11.82-4.17 17.66l-1.08 3.26a972 972 0 0 1-4.02 11.86l-.81 2.38-.7 2.03c-.96 3.29-1.27 6.56-1.58 9.97h-1c-2.25-8.14-2-12.64 2-20q1.02-3 2-6l1.5-3.31c1.7-4.19 2.63-8.27 3.5-12.69l.62-2.75c.38-2.25.38-2.25.38-5 0-2.25 0-2.25 1-3.25" fill="#DCDCDF"/><path d="M322.6 313.87h19.34c2.57.1 4.62.4 7.06 1.13q2.05.24 4.12.44C357 316 357 316 359 318c-15.35.2-30.67-.41-46-1l-1-2c3.56-1.1 6.88-1.13 10.6-1.13" fill="#F5F7F8"/><path d="m264 400 3 1-2.5 2.69c-3.78 5.26-3.23 11.11-2.5 17.31 1.64 4.93 3.96 6.89 8 10 1.19 2.19 1.19 2.19 2 4l2 1v2l4 1c-3 1-3 1-5.09.03-6.8-4.55-11.3-9.16-13.91-17.03-.89-7.81-.93-14.32 3.91-20.74z" fill="#D8CA96"/><path d="m497 548 3 1-2 3h-2v2h-2l-.81 1.62L492 558l-1.25 3.12c-1.75 2.88-1.75 2.88-4.5 4.26-3.49.67-6.7.76-10.25.62a89 89 0 0 1 11.12-9.75l3.14-2.36C493 552 493 552 496 551z" fill="#070708"/><path d="m352 569 2 1-4 5 5 1c-6.15 7.48-6.15 7.48-10 10l-1.81-2c-2.19-2-2.19-2-5.19-2l2.81-2.59 3.63-3.35 1.85-1.71a227 227 0 0 0 3.4-3.13q1.18-1.1 2.31-2.22" fill="#E1E4E8"/><path d="m366 557 1 2-2-1zm-3 3v3l.2 2.42c-.31 4.08-2.55 6.06-5.24 8.97-1.96 1.61-1.96 1.61-5.4 2.11L350 576c0-4.3 2.57-6.17 5.38-9.12l1.53-1.67c3.79-4.06 3.79-4.06 6.09-5.21" fill="#EDEFF1"/><path d="M829 372h1v5h2c.19 21.01.19 21.01-1 29l-.44 3c-.56 2-.56 2-2.56 4-.07-9.28.14-18.54.5-27.81l.14-3.87z" fill="#F2F4F5"/><path d="M817 568c1.9 3.29 2.7 6.21 3 10q-.92 3.03-2 6a128 128 0 0 0-2.38 15.06c-.62 2.94-.62 2.94-2.68 4.38L811 604c.94-7.01 2.25-13.95 3.54-20.91.92-5.02 1.79-10.03 2.46-15.09" fill="#E0E0E3"/><path d="m387 300 1 2a197 197 0 0 1-4.86 5.55C381 310 381 310 379.05 312.79c-3.02 3.85-5.49 6.86-10.55 7.55-6.22.15-12.36-.47-18.5-1.34v-1l1.76-.18c3.53-.38 7-.77 10.49-1.44 2.75-.38 2.75-.38 5.25.37 2.5.25 2.5.25 5.38-1.69 3.08-2.84 5.79-6 8.51-9.19A84 84 0 0 1 387 300" fill="#DADBDD"/><path d="M357 400c6.87-.51 12.26-.1 18 4l1 2h-4v-2l-3 1c-.69 2.06-.69 2.06-1 4-2.88-.19-2.88-.19-6-1-1.19-2.38-1.19-2.38-2-5-1.55-1.66-1.55-1.66-3-3" fill="#EED372"/><path d="m804 634 2.2 1.84c4.95 3.3 10.86 3.79 16.61 4.78q3.42.6 6.83 1.23l3.05.53 2.31.62 1 2a235 235 0 0 1-22.12-3.06l-3.19-.57L803 640q-.06-2.5 0-5z" fill="#ECEDF0"/><path d="M240 352h1c.28 10.69-.51 20.87-2 31.44l-.58 4.27q-.7 5.15-1.42 10.29h-1c-.58-24.34-.58-24.34 2.27-34.35 1.07-3.86 1.39-7.67 1.73-11.65" fill="#EBEDEC"/><path d="m196 669 3.34.43c5.05.63 10.1 1.14 15.16 1.63l2.78.28 6.72.66-1 2c-9.21 3.07-18.42.85-27-3z" fill="#EEEEF0"/><path d="M821 546c2 2 2 2 2.19 4.88-.19 3.12-.19 3.12-.69 5.06-.5 2.06-.5 2.06-.5 5.62 0 3.44 0 3.44-1 6.44a276 276 0 0 0-1 5l-2-1q.17-5.94.38-11.88l.09-3.41.12-3.26.09-3.02C819 548 819 548 821 546" fill="#E5E6E9"/><path d="m406 287-1 7-5 1-1 3-1.8-.68c-2.2-.32-2.2-.32-3.9.89l-1.55 1.73-1.58 1.71L389 303l-2-1q2.55-2.64 5.12-5.25l1.44-1.49C401.71 287 401.71 287 406 287" fill="#1E1F20"/><path d="M931 335h3l.08 2.41c.4 7.51 1.33 11.87 6.67 17.4 3.35 1.77 6.48 1.88 10.25 2.19v1c-4.08 1.12-7.46 1.87-11.27-.28-6.36-5.39-8.88-10.56-9.71-18.77C930 337 930 337 931 335" fill="#D5D5D7"/><path d="m866.56 179.94 2.44.06-1 3a73 73 0 0 1-7.13 2.5l-3.94 1.22-1.97.6a68 68 0 0 0-5.8 2.36c-3.16 1.32-3.16 1.32-5.6 1L842 190a71 71 0 0 1 18.92-8.35c5.46-1.71 5.46-1.71 5.64-1.71M840 191l2 1Z" fill="#EBECED"/><path d="m828 359 3 1-.04 2.23-.02 2.96-.04 2.92c.1 2.75.48 5.21 1.1 7.89l-2 1-1 23h-1z" fill="#CBCDCF"/><path d="M821 461h1c2.21 8.54 2.83 15.52 0 24h-2v5h-1l.44-9.44.12-2.66c.27-5.67.76-11.26 1.44-16.9" fill="#DADADD"/><path d="m344 404 1 3c-1.14 1.65-1.14 1.65-2.81 3.38-4.49 4.99-5.53 8.81-5.39 15.46.25 2.65.98 4.8 2.2 7.16h-2l-1 2c-3.4-6.8-2.36-13.53-.13-20.52 1.91-4.18 4.88-7.29 8.13-10.48" fill="#BBB079"/><path d="M885.88 177.94h3.24l7.88.06-1 3-28 1v-3c5.93-1.3 11.84-1.11 17.88-1.06" fill="#CFCFD2"/><path d="m427 333 3 1-.04 3.04-.02 4.02-.04 3.98c.1 3.96.1 3.96.79 7.77.31 3.19.31 3.19-1.13 5.13L428 359c-1.17-8.67-1.1-17.27-1-26" fill="#F2F4F3"/><path d="M943 290c2 2 2 2 2.38 5.81-.11 6.37-2.32 12.23-4.38 18.19h-2a22.5 22.5 0 0 1 1.5-10.38c1.6-4.41 1.67-7.95 1.5-12.62z" fill="#EEEEF0"/><path d="M984 300c3.21 4.81 3.21 4.81 2.58 8.42A75 75 0 0 1 980 325l-2-1 .55-1.95c2.03-7.3 3.79-14.65 5.45-22.05" fill="#DADADC"/><path d="m981 252 3 1 .62 3.36.82 4.39.41 2.21c1.07 5.77 1.07 5.77 1.76 8.11.56 2.75-.44 4.45-1.61 6.93h-1l-2.58-13.83-.54-2.97-.51-2.73C981 256 981 256 981 252" fill="#E9E8EA"/><path d="m300 430 1 3c-7.58 6.84-13.87 8.49-24 8v-2h3v-2l4-1v3l8-1v-2h4v-2h2v-2h2z" fill="#E9D37D"/><path d="M332 314q3.13-.05 6.25-.06l3.52-.04c2.68.08 4.69.37 7.23 1.1q2.06.24 4.12.44C357 316 357 316 359 318h-17v-2h-10z" fill="#F0F1F2"/><path d="M657 257c-3.37 1.89-6.68 2.77-10.44 3.62l-3.37.79a35 35 0 0 1-8.19.59l1-3 1.98-.37c3.92-.75 7.59-1.47 11.33-2.88 3.3-.92 4.72-.32 7.69 1.25" fill="#E8E8EB"/><path d="M911 181c-2.27 1.4-3.55 2.04-6.23 1.79l-2.52-.6c-7.37-1.55-14.75-1.83-22.25-2.19v-1q4.78-.3 9.56-.56l2.72-.17c12.98-.72 12.98-.72 18.72 2.73" fill="#EAEAEC"/><path d="M307 696v1c-12.11 1.71-22.94 2.16-35 0v-1c11.75-1.28 23.23-.74 35 0" fill="#CECDD2"/><path d="M358 440h4v4h-2v4h-3v-2l-3 1-2-1 1-4h5z" fill="#F8DC63"/><path d="M192 629c1.25 2.95 1.01 3.97-.21 7.02l-1.73 3.23-1.71 3.27L187 645l-3-1c1.47-5.34 4.01-11.01 8-15" fill="#EAEDEB"/><path d="M831 279c1 2 1 2 .31 4.81-2.95 7.18-7.66 9.88-14.31 13.19l2.5-2.81c4.15-4.83 7.81-10.01 11.5-15.19" fill="#D9DCDB"/><path d="M864 653c2.94 1.62 2.94 1.62 6 4 .88 3.25.88 3.25 1 6l-3.81 2.94-2.15 1.65C863 669 863 669 860 670l-3-2 1.9-.84 2.48-1.1 2.46-1.09q2.1-.94 4.16-1.97c-.51-3.77-1.21-5.45-4-8z" fill="#E4E5E4"/><path d="m250 598 1 2c-2.05 4.58-4.9 6.3-9 9-1.81 1.91-3.37 3.93-5 6a85 85 0 0 1-3 3c.51-4.04 1.46-5.95 4.38-8.77l2.04-2 2.14-2.04 2.16-2.1A634 634 0 0 1 250 598" fill="#09080A"/><path d="m878 224 8.62-.06 2.45-.03A61 61 0 0 1 902 225c-3 2-3 2-6 3l-3-1q-3.84-.57-7.69-1.06l-2.12-.28L878 225z" fill="#E0E0E3"/><path d="M909 182c7.03.45 12.58 2.12 19 5-1.52 1.15-1.52 1.15-4 2a66 66 0 0 1-7.75-2.38l-2.11-.74L909 184z" fill="#DBDDDB"/><path d="M825 433h2c1.08 5.31.9 8.91-1 14l-2 2q-.04-2.87-.06-5.75l-.04-3.23c.08-2.55.35-4.6 1.1-7.02" fill="#EDEDF0"/><path d="M975 238c3.75 1.25 4.05 2.31 5.81 5.75l1.4 2.61c.98 3.29.35 4.66-1.21 7.64a36 36 0 0 1-4.12-8.56l-1.08-2.94c-.8-2.5-.8-2.5-.8-4.5" fill="#DCDEDD"/><path d="M846 190v2c-2.05 1.62-2.05 1.62-4.75 3.44A193 193 0 0 0 832 202c.22-3.83.94-4.94 3.75-7.69 3.3-2.34 6.12-4.31 10.25-4.31" fill="#DFDFE1"/><path d="M542 673v1h-8v2c-6.42.1-12.63-.25-19-1v-1c9.02-.84 17.94-1.12 27-1" fill="#E0E1E1"/><path d="M337 433c3 0 3 0 5.56 2.38L345 438l2 2h-3l-1 3c-3.54-3.17-5.59-5.17-6-10" fill="#E5D670"/><path d="m247 278 3 2-2.81 1.44c-4.24 2.75-5.05 6.86-6.19 11.56l-2-1c.43-5.41 1.57-8.76 5-13z" fill="#E1E2E1"/><path d="M286 404h4l1 5 3-1v4h-2v9h-1l-.33-2.01c-.89-4.96-1.77-8.78-4.67-12.99z" fill="#F8DB66"/><path d="M347.67 405.47c6.65.07 10.96.48 16.33 4.53l1 2h-3v-2h-4v-2q-2.88-.08-5.75-.12l-3.24-.07c-2.94.19-4.54.66-7 2.19 1.64-2.85 2.36-3.87 5.66-4.53" fill="#262311"/><path d="m301 432 1 2 3 1-1 5a26 26 0 0 1-9-3z" fill="#10110C"/><path d="M270 432h13l-2 4h-9z" fill="#F8E577"/><path d="M483 677v1h-6v2h-21v-1l8.44-1 2.37-.29c5.43-.63 10.72-.8 16.19-.71" fill="#E0E1E0"/><path d="M258 281c4.75.75 4.75.75 7 3h-2l2 5c-3.4-1.06-6.01-2.01-9-4v-2h2z" fill="#121313"/><path d="m382 435 2 3h-2v4h-2l-1 4-8 1 2.19-1.62c3.52-2.98 6.72-6.21 8.81-10.38" fill="#291C0F"/><path d="m395 296 2 2-2 3h-2v2h-2l-1 3-6 1z" fill="#0B0B0D"/><path d="m836 273 2 2c-.19 2.06-.19 2.06-1 4l-3 1c-1.19 2.06-1.19 2.06-2 4l-2-1 1.88-4.44 1.05-2.49C834 274 834 274 836 273" fill="#EDEFED"/><path d="m276.75 395.75 3.55.11 2.7.14v2l-2.45.18-3.24.26-3.2.24c-2.76.28-5.4.72-8.11 1.32 3.32-4.17 5.52-4.46 10.75-4.25" fill="#F3E379"/><path d="M956 357v3c-4.32.76-7.74 1.16-12 0v-2a65 65 0 0 1 12-1" fill="#EFF2F1"/><path d="M266 642h6l1 2 2-1v3h-11z" fill="#EEF0F2"/><path d="M357 400h7v2h2v2h-2v3h-3l-.31-1.81c-.78-2.47-1.76-3.51-3.69-5.19" fill="#F7DA6B"/><path d="M269 399c9.67-.69 9.67-.69 13.62 1.81L285 403v3l-1.56-1.44c-3.11-1.99-5.81-2.21-9.44-2.56v-1l-5-1z" fill="#33280A"/><path d="M427 320c2.02 6.06 2.08 9.89 0 16h-1q-.33-3.15-.62-6.31l-.36-3.55C425 323 425 323 427 320" fill="#E5E4E7"/><path d="M920 235a33 33 0 0 1 8.25 5.44l2.14 1.81C932 244 932 244 932 247l-1.36-1.17-1.83-1.58-1.92-1.66a129 129 0 0 0-4.83-3.84L920 237z" fill="#DADBDC"/><path d="M303 414h1q.08 3.09.12 6.19l.08 3.48c-.2 3.25-.81 5.42-2.2 8.33l-2-2v-4h2z" fill="#E3CD5E"/><path d="M364 399v1h-8v2h-4v2h-7c5.85-4.95 11.65-5.29 19-5" fill="#CDBC80"/><path d="m805 624 3 1c.25 2.75.25 2.75 0 6-2 2.38-2 2.38-4 4-1.6-4-.29-7.05 1-11" fill="#DEDEE0"/><path d="M271.75 433.31c2.25 2.7 2.25 2.7 2.25 4.7l4 1-3 1c-2.23-1.16-2.23-1.16-4.63-2.82l-2.41-1.65C266 434 266 434 265 432c3.34-1.6 3.83-1.15 6.75 1.31" fill="#D2C16F"/><path d="m231 669-1 3c-4.62.96-8.68.96-13.38.56l-3.77-.31L210 672v-1l3.39-.18 4.42-.26 2.24-.12c3.73-.22 7.32-1.44 10.95-1.44" fill="#B8B9BA"/><path d="m194 664 1.64.9a46 46 0 0 0 8.11 2.72l2.98.79 2.27.59v2c-6.15-.43-9.82-1.65-15-5z" fill="#1B1C1D"/><path d="m304 527 3 2-8 11c-1-3-1-3 .21-5.48l1.73-2.71 1.71-2.73z" fill="#E4E4E6"/><path d="M385 421c3 3 3 3 4 6-1.25 3.62-1.25 3.62-3 7l-3 1z" fill="#271A09"/><path d="m264 400 3 1-2.44 2.94c-3.02 4.16-3.43 8.02-3.56 13.06h-1c-.94-4.04-1.67-7.49.05-11.38A68 68 0 0 1 264 400" fill="#B0AA82"/><path d="M826 348c2.34 1.83 2.99 2.96 3.81 5.88.2 3.34-.33 5.16-1.81 8.12h-1c-.95-4.76-1.08-9.17-1-14" fill="#EAEBEE"/><path d="M348 407c-1.88 5.88-1.88 5.88-3 7q-2.5.06-5 0c.19-1.81.19-1.81 1-4 4.18-3 4.18-3 7-3" fill="#110E0A"/><path d="M369 400c4.87.45 7.39 1.71 11 5l-1 4-3.31-2.81-1.87-1.58A91 91 0 0 1 369 400" fill="#2A1E0F"/><path d="M427 349h1l1 8 1.38-1.5C432 354 432 354 434 354v4c-2.65 1.46-3.89 2-7 2z" fill="#DCDDDE"/><path d="M932 246c4.05 2.85 6.19 5.37 8 10l-1 2h-2l-1.94-3.75-1.09-2.11A29 29 0 0 1 932 246" fill="#E2E3E4"/><path d="m882 225-1 3c-6.62 1-6.62 1-10 1l1-3c3.24-1.32 6.55-1.08 10-1" fill="#ECECEF"/><path d="M530 303c-1 3-1 3-3.5 4.39l-3.06 1.3-3.07 1.32-2.37.99-1-2 5.38-3 3.02-1.69C528 303 528 303 530 303" fill="#E8E9E9"/><path d="m303 309 4.44 2.88 2.49 1.61C312 315 312 315 313 317c-5.03-.46-8.15-2.99-12-6z" fill="#E8E8E9"/><path d="m871.38 227.25 1.62.75h-2l-1 4c-1.82.63-1.82.63-4 1l-3-2c5.41-4.06 5.41-4.06 8.38-3.75" fill="#E0E0E2"/><path d="M822 454c2.35 3.52 2.78 5.79 3 10l-3 4z" fill="#E9E9EF"/><path d="M422 297h2c1.35 6.4 1.35 6.4-.44 9.44L422 308l-.56-4.38-.32-2.46C421 299 421 299 422 297" fill="#E4E1E6"/><path d="M828 400c2.22 2.22 2.39 2.94 2.81 5.94l.33 2.09C831 410 831 410 828 413z" fill="#F0F1F4"/><path d="M240 352h1q.12 3.69.19 7.38l.07 2.11c.03 2.03.03 2.03-.26 5.51l-3 2z" fill="#D7D9D9"/><path d="m937 352 2.5 1.94c3.73 2.52 7.06 2.75 11.5 3.06v1c-7.96 1.6-7.96 1.6-12.06-.75C937 355 937 355 937 352" fill="#C1C3C2"/><path d="M932 329h2l-1 14h-1q-.58-2.66-1.12-5.31l-.64-2.99C930 332 930 332 932 329" fill="#F0F0F2"/><path d="m823 292 3 1-7 7-3-1z" fill="#F4F6F5"/><path d="M621 268c-2.22 2.22-3.02 2.4-6 3l-2.62.69-2.38.31-2-2q2.12-.8 4.25-1.56l2.39-.88c2.55-.61 3.91-.41 6.36.44" fill="#232322"/><path d="M376 688v1h-6v2l-11-1v-1c5.71-.74 11.24-1.1 17-1" fill="#E0E3E0"/><path d="M378 408c5.9 5.59 5.9 5.59 7 9-.38 2.25-.38 2.25-1 4v-3h-2v-4h-2v-2h-2z" fill="#D4C274"/><path d="M291 303c3.15.61 5.19 1.64 7.75 3.56l1.86 1.38L302 309l-2 2-4.5-3.44-2.53-1.93L291 304z" fill="#D8DADA"/><path d="m312 604 3 1-1.88.75c-2.47 1.46-3.07 2.63-4.12 5.25l-2-2zm-7 6 2 1-4 2z" fill="#E6E7E7"/><path d="M263 405c1.27 3.65.76 6.49.06 10.25l-.59 3.27L262 421h-1q-.08-3.16-.12-6.31l-.08-3.55c.2-3.14.2-3.14 2.2-6.14" fill="#271E0A"/><path d="m451 345 2 1v2c-5.75 3-5.75 3-8 3v-3a96 96 0 0 1 6-3" fill="#EEEFF0"/><path d="m970 341 1 3a26 26 0 0 1-6 8l-2-1z" fill="#D3D3D8"/><path d="m387 300 1 2-7 8-2-2z" fill="#D8D8D9"/><path d="M899 226c7.75.88 7.75.88 10 2v2c-3.86.22-6.49-.4-10-2z" fill="#EBEDEE"/><path d="m900 224-18-1v-1q2.38-.3 4.75-.56l2.67-.32c4.33-.2 6.66.92 10.58 2.88" fill="#040605"/><path d="M352 444h8v4h-3v-2l-3 1-2-1z" fill="#F2D659"/><path d="M285 405c2 1.62 2 1.62 4 4 .25 3.25.25 3.25 0 6l-1-3-3-1z" fill="#1F1908"/><path d="M815 218a12 12 0 0 1 1 4c-1.44 2.25-1.44 2.25-3 4l-3-1c3.88-5.88 3.88-5.88 5-7" fill="#ECEDEE"/><path d="m368 647 4 2h-3l-1 3c-3.06 1.19-3.06 1.19-6 2 1.39-3.37 2.98-4.99 6-7" fill="#C4C5C6"/><path d="M804 634a89 89 0 0 1 4 4v2h-5q-.06-2.5 0-5z" fill="#F5F5F7"/><path d="m289 419 1 3c-1.44 2.69-1.44 2.69-3 5l-4-4 2-3v2l3-1z" fill="#2A2113"/><path d="M297 402c3.87 3.22 4.88 6.15 6 11l-3-1v-4h-2z" fill="#D7C471"/><path d="M378 309h2c-1.56 3.82-4.04 6.19-7 9l-3-1 4.49-3.61C376 312 376 312 378 309" fill="#E8E8EA"/><path d="M807 304c1.66 2.48 3.16 4.96 4.62 7.56l1.36 2.38C814 316 814 316 814 318c-3-1-3-1-4.17-2.93l-1.02-2.38-1.04-2.37C807 308 807 308 807 304" fill="#191919"/><path d="M837 265c1 3 1 3 .22 4.82L834 275a24 24 0 0 1-1-7c2-1.69 2-1.69 4-3" fill="#090B08"/><path d="M633 264c-1.38 1.99-2.56 2.89-4.91 3.49-2.15.32-2.15.32-6.09.51l-2-2c4.54-1.45 8.18-2.24 13-2" fill="#1E1E20"/><path d="m377 440 2 1c-6.14 5.57-6.14 5.57-11 6l2-3h4v-2z" fill="#ECD487"/><path d="M288 424c1 3 1 3-.06 5.69-1.94 2.31-1.94 2.31-5.13 2.62L280 432l2.31-1.75A28 28 0 0 0 288 424" fill="#D6C472"/><path d="M943 290c2 2 2 2 2.2 4.16l-.08 2.46-.05 2.48-.07 1.9c-2.31-3.46-2.62-5.9-3-10z" fill="#E7EAE8"/><path d="m272 286 7 5-1 3-8-6z" fill="#D8DAD8"/><path d="m935 256 5 2v8c-2.1-2.1-2.65-3.38-3.62-6.12l-.79-2.2z" fill="#F3F0F4"/><path d="m451 680-3 1v2l-11-1v-1c9.41-1.15 9.41-1.15 14-1" fill="#E3E3E4"/><path d="M802 635h1c1.03 4.41 1.04 6.93-1 11h-2q.89-5.52 2-11" fill="#C2C2C5"/><path d="m302 629 2 2-1 2c-1.88.56-1.88.56-4 1l-3 1c1.05-2.62 1.65-3.79 4.12-5.25z" fill="#0A0B0E"/><path d="M816 575c2 4 2 4 3 7l-4 4z" fill="#D7D9DA"/><path d="M820 552h1c1.43 8.43 1.43 8.43-1 13h-1q-.04-2.12-.06-4.25l-.04-2.39c.1-2.27.47-4.19 1.1-6.36" fill="#F5F6FA"/><path d="M337 433h3l2 4-3 3c-2-3-2-3-2-7" fill="#DFCB6D"/><path d="m337 420 1 4h2l-1 7-2-1z" fill="#0E0C06"/><path d="m344 404 1 3-7 6c1.31-3.94 2.92-6.23 6-9" fill="#C3C08F"/><path d="M933 345c2.5 2.94 3.47 5.18 4 9-2.67-2.49-4.56-4.63-6-8z" fill="#E5E5E7"/><path d="m985 268 3 3-2 7h-1z" fill="#F0F0F3"/><path d="M972 231c2.99 1.1 3.85 1.68 5.25 4.62L978 238c-1.88-.12-1.88-.12-4-1-1.25-3.06-1.25-3.06-2-6" fill="#EEEEF0"/><path d="m865 231 1 3c-4.75 4-4.75 4-7 4 3-6 3-6 6-7" fill="#F2F2F4"/><path d="M969 224a24 24 0 0 1 4 4c-.25 2.25-.25 2.25-1 4-2.06-2.31-2.06-2.31-4-5z" fill="#DDE0DE"/><path d="M318 613c0 3 0 3-2 5.19l-2 1.81-3-1z" fill="#242426"/><path d="m812 603 2 1-1 7h-3c.88-6.88.88-6.88 2-8" fill="#EFEFF1"/><path d="m351 580 1 3-5 5-1-3z" fill="#070A0C"/><path d="M279 441h9l-2 3c-3.12.19-3.12.19-6 0z" fill="#241305"/><path d="M301 432a20 20 0 0 1 1 4c-2 2-2 2-4.62 2.12L295 438z" fill="#2A1F08"/><path d="m382 432 1 3c-1.44 2.69-1.44 2.69-3 5l-2-1v-3h2z" fill="#EAD27D"/><path d="M939 314c1.21 3.62.54 4.64-1 8l-3-1c2.88-5.88 2.88-5.88 4-7" fill="#E5E5E7"/><path d="M406 286c5.54-.37 5.54-.37 7.88 1.5L415 289l-3 2-3-2h2v-2h-5z" fill="#272828"/><path d="m639 258 1 2 4 1-9 1 1-3z" fill="#D9D9DB"/><path d="M807 620h3l-1 6h-3z" fill="#F2F2F4"/><path d="M407 617c2.19.31 2.19.31 4 1l-4 4-3-2c1.25-1.56 1.25-1.56 3-3" fill="#1B1D1E"/><path d="m262 580 2 1-2 1zm-1 2 2 3-4 3c0-4 0-4 2-6" fill="#E2E1E5"/><path d="M581 526c0 3 0 3-1.5 4.69L578 532v-2l-4-1z" fill="#DDE0DE"/><path d="M313 499h7v2l-6 1z" fill="#F2F2F5"/><path d="M345 442h3v2h2l-1 3-6-3z" fill="#E4D169"/><path d="m505 314 2 1-1 3c-2.56 1.19-2.56 1.19-5 2 1.75-4.88 1.75-4.88 4-6" fill="#ECECEE"/><path d="M566 286v2c-2.35 1.43-3.48 2.09-6.25 1.62L558 289c2.51-2.51 4.49-3 8-3" fill="#EBEDEC"/><path d="M760 264h6v4l-7-2z" fill="#DADBDB"/><path d="M926 188c5.54.62 5.54.62 7.88 2.56L935 192l-2 1c-2.48-1.11-4.68-2.58-7-4z" fill="#E5E9E4"/><path d="m388 630 4 2-7 4 1-4h2z" fill="#17161A"/><path d="m376 549 2 1c-.81 1.94-.81 1.94-2 4l-3 1v-4z" fill="#F3F4F7"/><path d="M356 407c4.31.48 6.17 1.75 9 5h-3v-2h-4v-2z" fill="#382A0E"/><path d="m344 402 3 1-7 5-2-2h2l1-2z" fill="#1A1605"/><path d="M286 404h4v7c-4-4.75-4-4.75-4-7" fill="#E6CF76"/><path d="m485 327-1 3-7 1c2.68-2.68 4.13-4 8-4" fill="#EEEDF1"/><path d="M545 296v2l-7 3v-3c2.65-1.46 3.89-2 7-2" fill="#D9DADC"/><path d="M406 285v2l-7 4c.31-1.88.31-1.88 1-4 3-2 3-2 6-2" fill="#E3E6E6"/><path d="m625 262 2 3-8 2 1-3c2.56-1.19 2.56-1.19 5-2" fill="#E7E7EA"/><path d="M785 260h2c-.4 2.89-.79 3.82-3.06 5.75L782 267a16.6 16.6 0 0 1 3-7" fill="#DBDDDE"/><path d="m736.19 256.38 2.8.62q-.48.99-1 2l-8-1c3-2 3-2 6.2-1.62" fill="#D8D8DB"/><path d="M811 229h3v2l-2 2-1 2-3-1c1.31-2.5 1.31-2.5 3-5" fill="#17171C"/></svg>