<svg style="background:transparent" version="1.1" xmlns="http://www.w3.org/2000/svg" viewBox="0 0 1248 704"><path d="M533.94 8.8c4.93 4.22 9.59 8.63 14.09 13.3 3.05 2.94 6.38 5.48 9.72 8.09a80 80 0 0 1 7.25 6.8q2.49 2.05 5 4l2 2q1.48 1.25 3 2.5c3 2.5 3 2.5 5 4.5 5.1 4.92 8.94 6.69 16.02 6.59l3.23-.14 7.37-.18 2.09-.07c5.67-.17 11.34-.22 17.02-.24q7.06-.03 14.15-.11 3.55-.03 7.12-.03 5.06-.02 10.12-.1h3.1c7.08-.13 7.08-.13 10.8-3.16L673 50l5-3q2.56-2.44 5-5a44 44 0 0 1 10-8c1.66-1.75 1.66-1.75 3.07-3.56 2.1-2.73 3.83-3.97 6.93-5.44q1.77-1.35 3.44-2.81l1.83-1.6q2.27-2.11 4.42-4.34c2.3-2.25 2.3-2.25 4.5-3.31 1.8-.94 1.8-.94 2.6-2.8 2.75-4.87 9.47-7.34 14.66-8.85C741.7.15 748.13 2.76 754 6.99c5.76 5.94 7.46 12.9 7.38 21v15.37q.02 7.41-.01 14.8V73.7q0 13.03-.03 26.05-.03 15.06-.02 30.1l-.01 29v12.33q0 7.25-.03 14.5V191q0 3.64-.02 7.27l.02 2.13A32 32 0 0 1 759 212l-.45 2.47c-.7 3.24-1.93 6.02-3.3 9.03q-.74 1.64-1.48 3.35c-1.9 3.37-3.93 5.55-6.77 8.15l-1.84 1.85q-2.58 2.56-5.16 5.15l-2.3 2.43a65 65 0 0 1-9.45 7.26c-6.12 4.05-6.12 4.05-7.25 6.3-.3 5.77.4 10.5 2 16l.88 3.39c2.57 8.27 6.17 15.94 10.12 23.62l1.94 3.88 3.5 6.97c4.5 8.9 8.53 17.64 11.56 27.15l2.07 6.19 2.96 8.96c.97 2.85.97 2.85 2.54 6.29 1.45 3.6 1.94 6.72 2.43 10.56l1.07 3.13c.94 2.89.93 4.87.93 7.87l1 3.44c.97 3.44 1.08 6.03 1 9.56l.5 2.5c.58 2.89.57 5.56.5 8.5 0 3 0 3 1 5q.14 3.46.13 6.94v3.78C767 425 767 425 766 428v5l-1 1c-.07 2.3 0 4.58.07 6.87C765 443 765 443 764 445c-.9 3.97-1.44 7.98-2 12l2.55-.95c8.02-2.44 17.58-3.41 25.47-.12A48.5 48.5 0 0 1 811 478c.88 3.3 1.44 6.63 2 10l1.07 4.8c1.86 9.45 2.32 18.69.93 28.2l-.5 3.56-.5 3.44-.5 4.63A68 68 0 0 1 810 548l-1.12 3.38L808 554a196 196 0 0 0 16.32-4.62l2.34-.78a215 215 0 0 0 16.9-6.66A175 175 0 0 1 870 533l3.5-.9c7.7-1.8 15.42-2.74 23.28-3.45 6.04-.55 6.04-.55 8.22-1.65 14.56-.5 29.16.32 43 5l3.47 1.13c18.43 6.52 32.75 19.45 41.53 36.87 6.87 15.4 7.65 30.15 2.1 46.14L994 619l-.94 2.52c-1.93 4.75-4.44 8.58-7.63 12.58a35 35 0 0 0-3.3 5.46c-2.04 3.75-4.93 6.12-8.18 8.82-1.95 1.62-1.95 1.62-4.57 4.25-11.2 11.19-30.76 18.77-46.73 19.56-10.88-.78-18.81-6.23-26.21-13.81-2.6-6.08-2.53-12.81-.6-19.12A58 58 0 0 1 901 630h2l.77-1.87c1.43-2.47 2.35-3 4.92-4.13a66 66 0 0 0 7.56-3.97c3.87-2.24 7.77-3.3 12.07-4.4 15.69-4.4 15.69-4.4 20.24-10.83 1.77-3.5 2.72-5.7 1.76-9.55L949 593l-.31-2.44c-1.17-4.35-3.8-7.26-7.44-9.76-5.18-2.82-10.44-4-16.25-4.8l-3.01-.44c-20.87-2.33-45.01 3.5-63.72 12.72l-2.68 1.3-5.5 2.7a89 89 0 0 1-16.04 6.1c-2.05.62-2.05.62-4.48 2.12-3.47 2.03-7.05 2.82-10.93 3.8a97 97 0 0 0-5.82 1.76c-6.58 2.2-13.17 3.35-20 4.44-2.82.5-2.82.5-6.44 1.56-5.7 1.59-11.47 1.94-17.38 1.94l-.62 1.69c-1.95 3.28-4.32 5.02-7.38 7.3h-2l-.72 1.78c-1.55 2.7-3.3 4.1-5.78 5.98l-2.4 1.86C748 634 748 634 746 634c2 2 2 2 4.63 3.63 6.55 4.36 11.92 9.37 13.97 17.14.9 4.99 1.15 8.7-1.16 13.42-4.37 5.04-8.92 8.18-15.44 9.8-3.73.27-7.44.25-11.18.2h-2.97c-18.6-.11-18.6-.11-25.35-3.25-2.88-1.31-4.28-1.94-7.5-1.94l1.68 1.76c7.2 7.77 7.2 7.77 8.32 13.24l.59 2.38c1.15 5 1.34 8.54.4 13.62q-14.37.17-28.78.26-6.68.04-13.36.12-6.45.07-12.9.1-2.46 0-4.92.05-3.45.05-6.9.04l-3.96.03c-3.17-.6-3.17-.6-5.04-2.98L635 699l-1.11-2.42a46 46 0 0 1-1.9-23.58l-.05-2.81c.06-2.2.06-2.2 2.06-5.2l-15 1 1 1c.08 2.34 0 4.65-.06 6.98C620 676 620 676 621 677c.14 4.25.19 7.9-1 12l-.31 3.25a25 25 0 0 1-2.73 7.99l-1.11 2.14L615 704q-14.41.07-28.84.1l-13.4.05q-6.45.03-12.91.04-2.47 0-4.93.02l-6.9.02h-3.97C541 704 541 704 539 702c-.6-6.8.33-13.23 4.36-18.91 1.5-1.75 3.06-3.42 4.64-5.1q1.45-1.7 2.88-3.43L553 672a54 54 0 0 0-9.37 2.5A54 54 0 0 1 532 677q-.85.26-1.73.5c-10.42 2.26-25.43 1.47-34.83-3.31-4.63-4.15-6.95-7.05-7.4-13.28-.13-6.91 3.38-12.08 7.93-17.06q2.98-2.96 6.03-5.85l4-4-1.71-.8a47 47 0 0 1-6.85-4.57l-2.32-1.78c-2.12-1.85-2.12-1.85-3.58-3.9-1.88-2.4-3.92-3.41-6.54-4.95a89 89 0 0 1-15-17l-2.87-3.81c-5.35-7.12-10.38-14.08-14.13-22.2q-.75-1.44-1.5-2.93c-4.8-9.8-7.76-19.4-10.02-30.06-.48-2-.48-2-1.6-5.25-.9-2.8-.95-4.85-.88-7.75l-1-4c-2.41-14.87-1.8-34.42 5-48l.9-2c2.86-6.1 5.88-11 12.1-14l3.38-2.44c6.6-4.11 14.46-6.13 22.19-5.07 2.87.72 5.65 1.52 8.43 2.5l-.93-3.43a72 72 0 0 1-1.82-11.28 75 75 0 0 0-.73-5c-.64-4.06-.91-8.1-1.14-12.22l-.16-2.34c-.27-4.73.03-9.01.78-13.72a117 117 0 0 0 0-5.62c-.08-3.66.25-6.8 1-10.38l.87-4.66c4.7-25.28 4.7-25.28 9.16-35.83a88 88 0 0 0 3.17-10.77c1.94-6.6 5.18-12.8 8.12-19a276 276 0 0 1 9.4-18.4c3.37-6.18 5.89-12.72 8.28-19.34l1.04-2.8c5.8-15.73 5.8-15.73 3.96-24.2-2.02-2.2-4.15-3.4-6.73-4.91-15.04-9.63-26.54-23.75-30.78-41.18-1.83-8.76-1.77-17.44-1.75-26.34l-.01-5.22v-53.68q.03-14.32 0-28.64V38.82c-.05-23.53-.05-23.53 8.12-31.9 11.14-9.9 23.22-7.04 34.09 1.89" fill="#161817"/><path d="M911.68 530.7q2.43 0 4.85-.06c22.12-.4 43.45 5.17 60.2 20.4 7.2 6.93 12.03 14.95 16.27 23.96l1.22 2.57c4.83 12.82 2.51 29.08-2.89 41.22A111 111 0 0 1 976 643l-2.37 3c-11.44 13.05-28.8 21-45.98 22.66-8.59.44-16.69-.09-23.65-5.66-5.14-4.76-7.07-8.64-7.44-15.63.08-7.54 4.07-12.84 9.06-18.19 4.5-3.37 11.71-7.18 17.38-7.18v-2l2.93-.89c20.11-6.24 20.11-6.24 25.2-14.55 1.9-4.09 2.74-7.04 1.87-11.56-4.3-9.35-9.92-14.48-19.44-18.2-18.3-5.7-39.79-1.02-57.56 4.2l-3.4.98c-9.44 2.93-18.32 6.9-27.32 10.92A316 316 0 0 1 820 601l-2.66.95a148 148 0 0 1-22.34 5.73l-3.29.65a178 178 0 0 1-21.7 2.67q2.97-4.01 6-8l1.87-2.54 1.87-2.46 1.73-2.32L783 594h2l.27-1.65c.95-3.08 2.57-5.35 4.35-8.04 3.84-5.9 6.46-11.99 8.68-18.67 1.41-3.85 2.12-5.3 5.78-7.44A85 85 0 0 1 808 557l2.28-.73c2.61-.83 5.23-1.6 7.84-2.4a191 191 0 0 0 22.44-8.44c22.7-10.12 46.4-14.6 71.12-14.73" fill="#131514"/><path d="M533.94 8.8c4.93 4.22 9.59 8.63 14.09 13.3 3.05 2.94 6.38 5.48 9.72 8.09a80 80 0 0 1 7.25 6.8q2.49 2.05 5 4l2 2q1.48 1.25 3 2.5c3 2.5 3 2.5 5 4.5 5.1 4.92 8.94 6.69 16.02 6.59l3.23-.14 7.37-.18 2.09-.07c5.67-.17 11.34-.22 17.02-.24q7.06-.03 14.15-.11 3.55-.03 7.12-.03 5.06-.02 10.12-.1h3.1c7.08-.13 7.08-.13 10.8-3.16L673 50l5-3q2.56-2.44 5-5a44 44 0 0 1 10-8c1.66-1.75 1.66-1.75 3.07-3.56 2.1-2.73 3.83-3.97 6.93-5.44q1.77-1.35 3.44-2.81l1.83-1.6q2.27-2.11 4.42-4.34c2.3-2.25 2.3-2.25 4.5-3.31 1.8-.94 1.8-.94 2.6-2.8 2.75-4.87 9.47-7.34 14.66-8.85C741.7.15 748.13 2.76 754 6.99c5.76 5.94 7.46 12.9 7.38 21v15.37q.02 7.41-.01 14.8V73.7q0 13.03-.03 26.05-.03 15.06-.02 30.1l-.01 29v12.33q0 7.25-.03 14.5V191q0 3.64-.02 7.27l.02 2.13A32 32 0 0 1 759 212l-.45 2.47c-.7 3.24-1.93 6.02-3.3 9.03q-.74 1.64-1.48 3.35c-1.9 3.37-3.93 5.55-6.77 8.15l-1.84 1.85q-2.58 2.56-5.16 5.15l-2.3 2.43a65 65 0 0 1-9.45 7.26c-6.12 4.05-6.12 4.05-7.25 6.3-.3 5.77.4 10.5 2 16l.88 3.39c2.57 8.27 6.17 15.94 10.12 23.62l1.94 3.88 3.5 6.97c4.5 8.9 8.53 17.64 11.56 27.15l2.07 6.19 2.96 8.96c.97 2.85.97 2.85 2.54 6.29 1.45 3.6 1.94 6.72 2.43 10.56l1.07 3.13c.94 2.89.93 4.87.93 7.87l1 3.44c.97 3.44 1.08 6.03 1 9.56l.5 2.5c.58 2.89.57 5.56.5 8.5 0 3 0 3 1 5q.14 3.46.13 6.94v3.78C767 425 767 425 766 428v5l-1 1c-.07 2.3 0 4.58.07 6.87C765 443 765 443 764 445c-.9 3.97-1.44 7.98-2 12l2.55-.95c8.02-2.44 17.58-3.41 25.47-.12A48.5 48.5 0 0 1 811 478c.88 3.3 1.44 6.63 2 10l1.07 4.8c1.86 9.45 2.32 18.69.93 28.2l-.5 3.56-.5 3.44-.5 4.63A68 68 0 0 1 810 548l-1.12 3.38L808 554a196 196 0 0 0 16.32-4.62l2.34-.78a215 215 0 0 0 16.9-6.66A175 175 0 0 1 870 533l3.5-.9c7.7-1.8 15.42-2.74 23.28-3.45 6.04-.55 6.04-.55 8.22-1.65 14.56-.5 29.16.32 43 5l3.47 1.13c18.43 6.52 32.75 19.45 41.53 36.87 6.87 15.4 7.65 30.15 2.1 46.14L994 619l-.94 2.52c-1.93 4.75-4.44 8.58-7.63 12.58a35 35 0 0 0-3.3 5.46c-2.04 3.75-4.93 6.12-8.18 8.82-1.95 1.62-1.95 1.62-4.57 4.25-11.2 11.19-30.76 18.77-46.73 19.56-10.88-.78-18.81-6.23-26.21-13.81-2.6-6.08-2.53-12.81-.6-19.12A58 58 0 0 1 901 630h2l.77-1.87c1.43-2.47 2.35-3 4.92-4.13a66 66 0 0 0 7.56-3.97c3.87-2.24 7.77-3.3 12.07-4.4 15.69-4.4 15.69-4.4 20.24-10.83 1.77-3.5 2.72-5.7 1.76-9.55L949 593l-.31-2.44c-1.17-4.35-3.8-7.26-7.44-9.76-5.18-2.82-10.44-4-16.25-4.8l-3.01-.44c-20.87-2.33-45.01 3.5-63.72 12.72l-2.68 1.3-5.5 2.7a89 89 0 0 1-16.04 6.1c-2.05.62-2.05.62-4.48 2.12-3.47 2.03-7.05 2.82-10.93 3.8a97 97 0 0 0-5.82 1.76c-6.58 2.2-13.17 3.35-20 4.44-2.82.5-2.82.5-6.44 1.56-5.7 1.59-11.47 1.94-17.38 1.94l-.62 1.69c-1.95 3.28-4.32 5.02-7.38 7.3h-2l-.72 1.78c-1.55 2.7-3.3 4.1-5.78 5.98l-2.4 1.86C748 634 748 634 746 634c2 2 2 2 4.63 3.63 6.55 4.36 11.92 9.37 13.97 17.14.9 4.99 1.15 8.7-1.16 13.42-4.37 5.04-8.92 8.18-15.44 9.8-3.73.27-7.44.25-11.18.2h-2.97c-18.6-.11-18.6-.11-25.35-3.25-2.88-1.31-4.28-1.94-7.5-1.94l1.68 1.76c7.2 7.77 7.2 7.77 8.32 13.24l.59 2.38c1.12 4.85 1.7 8.7.4 13.62l-4-1 .19-2.74c.35-9.46-.57-15.24-7.01-22.25-4.35-4.14-8.45-6.27-14.17-8.01v-9l1.99 1.14c14.88 8.34 27.46 12.22 44.5 12.17l3.53.05c6.94 0 13.65-.22 19.98-3.36 3.78-4.2 3.57-8.57 3.4-14-.92-6.85-5.24-11.51-10.48-15.74-3.14-2.06-6.35-3.13-9.92-4.26v-2c2.06-1.55 4.12-3 6.25-4.44 6.23-4.3 11.75-9 17.23-14.21 3.64-3.38 6.2-5.58 11.16-6.41l2.72-.47 2.89-.47 3-.52q6.48-1.13 12.95-2.12c19.73-3.21 38.03-11.54 56.22-19.53 9.29-4.04 18.5-7.94 28.46-10.02l4.18-.91 2-.44a93 93 0 0 0 5.45-1.51c7.3-1.98 14.48-2.13 21.99-2.14l2.73-.03c11.04-.03 21.9 2.8 30.2 10.46a29 29 0 0 1 7.26 14.2c-1.27 6.57-4.06 11.54-9.41 15.65-6.73 4.1-14.23 7.9-22.28 7.9v2q-1.61.65-3.3 1.3c-14.78 5.98-14.78 5.98-18.7 12.7l-1.87 2.82c-2.04 5.79-1.7 11.07-.13 16.94 3.47 5.63 8.7 9.27 15 11.25a68.6 68.6 0 0 0 49.13-12.75q2.47-2.09 4.87-4.25l2.45-1.81c8.33-7.12 14.55-17.31 19.18-27.13l.96-2.03c5.36-12.02 7.36-28.92 2.63-41.45L992 575l-.83-1.76c-8.25-17.08-20.73-29.97-38.93-36.46A140 140 0 0 0 943 534l-2.04-.56c-7.81-1.9-15.66-1.74-23.64-1.7l-7.25-.01c-14.2-.02-27.86 1.27-41.63 5.02l-2.97.8c-8.8 2.42-17.04 5.62-25.4 9.3-12.06 5.29-24.28 8.94-37.07 12.15 1.69-8.22 1.69-8.22 3-11.44 7.3-18.56 9.08-47.03 2.26-65.82-4.53-9.85-9.83-17.45-19.88-22.18-10.12-3.6-20.44-1.83-30.38 1.44l.26-1.84 1.18-8.47.4-2.9c2.9-21.04 3.86-42.8.16-63.8l-.48-3.26c-4.66-27.52-15.75-54.12-28.83-78.58-6.25-11.81-12.65-25.02-13.06-38.6l-.15-3.36c1-6.1 6.39-8.96 11.15-12.38 14.2-10.56 24.15-21.2 27.96-38.84.97-6.9.69-13.92.67-20.86v-5.44q.03-7.35 0-14.71l.02-15.41-.02-25.88v-29.9q.03-12.86 0-25.7 0-7.68.02-15.34l-.01-14.42v-5.28l-.01-7.22v-2.1c-.04-6.05-1.05-10.92-4.44-15.96-4.72-4.61-8.76-5.91-15.2-6.31-9.45.3-15.4 7.09-22 13.2a198 198 0 0 1-8.3 6.99 96 96 0 0 0-8.82 7.87c-3.56 3.69-7.52 6.8-11.51 10.03a241 241 0 0 0-10.93 9.75Q674.04 54.16 672 56l-1.68 1.62c-3.26 1.95-6.37 1.87-10.08 1.9l-2.35.07q-3.87.09-7.72.13l-2.68.03q-7.02.1-14.05.14-7.21.06-14.42.25-5.58.1-11.16.12-2.66.01-5.31.1c-9.95.3-16.8-.31-24.42-7.14a140 140 0 0 1-4.7-4.74c-2.1-2.18-4.35-4.16-6.61-6.17l-2.41-2.18c-2.5-2.2-5.06-4.3-7.66-6.38a225 225 0 0 1-12.81-11.31c-18.54-17.4-18.54-17.4-29.5-17.88-5.9.2-8.98 1.9-13.1 6.16-4.62 5.15-5.48 8.83-5.47 15.72l-.01 2.3v7.72l-.01 5.5-.01 15-.01 12.54-.01 29.56-.03 30.47-.02 26.17-.01 15.63v14.7l-.01 5.39c-.05 17.63 2.65 33.2 15.32 46.39 5.56 5.16 11.65 9.6 17.84 13.98 3.09 2.2 3.09 2.2 5.09 4.2 1.44 11.1-.67 19.96-5.12 30.03q-1.28 2.91-2.48 5.88a195 195 0 0 1-8.94 18.67c-10.9 19.9-18.16 41.4-23.46 63.43l-.68 2.78c-5.54 23.57-5.1 49.4-.68 73.14.58 3.35.97 6.7 1.36 10.08-3.47-.46-6.67-.9-10-2-10.8-.8-19.9-.14-28.75 6.63-9.45 8.92-13.67 22.67-14.35 35.37a176 176 0 0 0-.08 6.5v2.38c.08 7.49.95 14.72 2.18 22.12l.48 2.99c5.27 31.35 20.59 57.43 42.52 80q.78.84 1.6 1.68c4.22 4.36 8.7 8.06 13.59 11.64l2.12 1.59c3.15 2.34 6.14 4.42 9.69 6.1v2l-1.94.67c-7.52 2.75-13.35 5.96-17.5 13.02-2.36 5.28-2.83 11.86-.81 17.33 2.46 3.89 6.99 4.83 11.25 5.98 3.92.5 7.75.53 11.69.44l3.2-.04c14.7-.36 29.16-3.41 41.92-11.1C563 662 563 662 565 662v8l-1.97.92c-8.37 4-13.86 7.59-18.03 16.08-1.12 3.53-1.3 7.07-1.56 10.75l-.25 3.55-.2 2.7-4-2c-.41-7.85.65-14.55 5.89-20.7L548 678q1.45-1.7 2.88-3.44L553 672a54 54 0 0 0-9.37 2.5A54 54 0 0 1 532 677q-.85.26-1.73.5c-10.42 2.26-25.43 1.47-34.83-3.31-4.63-4.15-6.95-7.05-7.4-13.28-.13-6.91 3.38-12.08 7.93-17.06q2.98-2.96 6.03-5.85l4-4-1.71-.8a47 47 0 0 1-6.85-4.57l-2.32-1.78c-2.12-1.85-2.12-1.85-3.58-3.9-1.88-2.4-3.92-3.41-6.54-4.95a89 89 0 0 1-15-17l-2.87-3.81c-5.35-7.12-10.38-14.08-14.13-22.2q-.75-1.44-1.5-2.93c-4.8-9.8-7.76-19.4-10.02-30.06-.48-2-.48-2-1.6-5.25-.9-2.8-.95-4.85-.88-7.75l-1-4c-2.41-14.87-1.8-34.42 5-48l.9-2c2.86-6.1 5.88-11 12.1-14l3.38-2.44c6.6-4.11 14.46-6.13 22.19-5.07 2.87.72 5.65 1.52 8.43 2.5l-.93-3.43a72 72 0 0 1-1.82-11.28 75 75 0 0 0-.73-5c-.64-4.06-.91-8.1-1.14-12.22l-.16-2.34c-.27-4.73.03-9.01.78-13.72a117 117 0 0 0 0-5.62c-.08-3.66.25-6.8 1-10.38l.87-4.66c4.7-25.28 4.7-25.28 9.16-35.83a88 88 0 0 0 3.17-10.77c1.94-6.6 5.18-12.8 8.12-19a276 276 0 0 1 9.4-18.4c3.37-6.18 5.89-12.72 8.28-19.34l1.04-2.8c5.8-15.73 5.8-15.73 3.96-24.2-2.02-2.2-4.15-3.4-6.73-4.91-15.04-9.63-26.54-23.75-30.78-41.18-1.83-8.76-1.77-17.44-1.75-26.34l-.01-5.22v-53.68q.03-14.32 0-28.64V38.82c-.05-23.53-.05-23.53 8.12-31.9 11.14-9.9 23.22-7.04 34.09 1.89" fill="#E3E5E5"/><path d="M673 495h1c1.16 7.47-2.75 12.12-7 18-2.89 3.91-6 7.19-10 10h-2v2l-8.85 5.16C641.23 533 641.23 533 639 533l.18 1.92c1.68 18.66 2.17 37.18 2.14 55.91q-.01 4.6.02 9.21c.3 51.68.3 51.68-4.34 60.96h-22a404 404 0 0 1-4-49l-.03-1.98c-.42-25.73.59-51.33 2.03-77.02l-2.46-1.2-3.24-1.6-3.21-1.57c-3.98-2.1-7.85-4.47-11.09-7.63v-2l-1.71-.59c-3.22-1.98-4.94-4.81-6.98-7.91l-1.22-1.8c-3.17-4.71-4.21-7.01-4.09-12.7l1.88 1.94L584 501l2.03 2.02a88 88 0 0 0 15.59 11.86l1.85 1.11c7.12 4.16 13.54 6.57 21.84 6.45l2.25-.03A39 39 0 0 0 645 518l2.95-1.47c9.93-5.38 18.07-12.69 25.05-21.53" fill="#000"/><path d="M936.82 529.81c18.66 1.52 34.48 11.85 46.72 25.47 11.4 13.47 16.27 28.96 14.97 46.32-.6 6.1-2.32 11.7-4.51 17.4l-.94 2.52c-1.94 4.75-4.44 8.57-7.63 12.58a35 35 0 0 0-3.31 5.46c-2.03 3.74-4.92 6.12-8.17 8.81-1.95 1.63-1.95 1.63-4.58 4.25-11.19 11.2-30.75 18.78-46.72 19.57-10.88-.79-18.81-6.24-26.21-13.82-2.59-6.07-2.53-12.8-.6-19.1A58 58 0 0 1 901 630h2l.77-1.88c1.43-2.46 2.35-2.99 4.92-4.12a67 67 0 0 0 7.56-3.98c3.86-2.23 7.76-3.3 12.06-4.4 15.69-4.38 15.69-4.38 20.25-10.83 1.76-3.49 2.71-5.69 1.75-9.54L949 593l-.31-2.44c-1.17-4.36-3.79-7.27-7.45-9.76-5.17-2.82-10.44-4-16.24-4.8l-3.01-.45c-20.88-2.32-45.02 3.51-63.72 12.72l-2.69 1.31-5.48 2.7a89 89 0 0 1-16.05 6.1c-2.05.62-2.05.62-4.49 2.12-3.46 2.03-7.05 2.82-10.92 3.81q-2.94.78-5.83 1.75c-6.57 2.2-13.17 3.35-19.99 4.43-2.82.51-2.82.51-6.45 1.57-5.7 1.58-11.47 1.94-17.37 1.94l-.63 1.7c-1.95 3.27-4.31 5-7.37 7.3h-2l-.72 1.76c-1.55 2.71-3.3 4.1-5.78 6l-2.41 1.85c-2.09 1.4-2.09 1.4-4.09 1.4 2 2 2 2 4.62 3.61 6.56 4.36 11.93 9.38 13.98 17.15.9 4.98 1.15 8.7-1.16 13.42-4.37 5.04-8.92 8.17-15.44 9.81-3.73.26-7.45.23-11.19.2-.49-.02-.49-.02-2.96-.02-18.6-.1-18.6-.1-25.35-3.25-2.88-1.3-4.29-1.93-7.5-1.93l1.68 1.76c7.2 7.76 7.2 7.76 8.32 13.24l.58 2.38c1.12 4.85 1.71 8.7.42 13.62l-4-1 .18-2.75c.35-9.46-.57-15.23-7.01-22.25-4.36-4.13-8.45-6.27-14.17-8v-9l1.98 1.13c14.88 8.35 27.46 12.23 44.52 12.18l3.51.05c6.95 0 13.66-.22 19.99-3.36 3.78-4.2 3.56-8.58 3.41-14-.94-6.86-5.26-11.5-10.5-15.75-3.13-2.05-6.34-3.13-9.91-4.25v-2c2.05-1.56 4.12-3 6.25-4.44 6.23-4.3 11.75-9 17.23-14.2 3.63-3.4 6.19-5.6 11.16-6.43l2.72-.46 2.89-.47 3-.52q6.46-1.14 12.95-2.12c19.73-3.22 38.03-11.54 56.21-19.53 9.3-4.04 18.52-7.94 28.46-10.02q2.1-.44 4.18-.92l2.02-.44c1.83-.43 3.64-.96 5.44-1.5 7.29-1.99 14.48-2.13 21.99-2.14q1.34 0 2.72-.04c11.05-.02 21.92 2.81 30.21 10.46 3.76 4.23 6.15 8.66 7.26 14.2-1.27 6.58-4.06 11.55-9.41 15.66-6.73 4.1-14.24 7.91-22.28 7.91v2l-3.29 1.28c-14.79 5.98-14.79 5.98-18.71 12.72l-1.88 2.81c-2.04 5.78-1.69 11.06-.12 16.94 3.47 5.63 8.7 9.26 15 11.25a68.7 68.7 0 0 0 49.12-12.75A198 198 0 0 0 968 650l2.44-1.82c8.33-7.1 14.55-17.3 19.18-27.12l.97-2.04c5.36-12 7.35-28.9 2.63-41.45L992 575l-.83-1.77c-8.26-17.08-20.73-29.94-38.92-36.46A118 118 0 0 0 933 532c2-2 2-2 3.82-2.19" fill="#E2E4E4"/><path d="M739 470h2c.94 33.7-4.76 66.09-16.21 97.81q-1.1 3.07-2.17 6.16a254 254 0 0 1-6.24 16.28 106 106 0 0 0-4.59 13.18 74 74 0 0 1-2.69 7.21 127 127 0 0 0-5.1 15.92l-.77 2.94c-2.86 11.37-4.6 22.91-6.23 34.5-1.8.62-1.8.62-4 1-3.25-1.94-3.25-1.94-6-4 .56-23.96 9.41-48.52 18.25-70.54 2.89-7.26 5.37-14.67 7.91-22.06q1.2-3.42 2.44-6.81a327 327 0 0 0 8.31-26.64q1.17-4.34 2.65-8.57c6.17-17.91 10.03-37.62 12.44-56.38" fill="#000100"/><path d="M512 471c1.98 3.42 2.61 6.66 3.26 10.55l.69 3.96.36 2.09A313 313 0 0 0 527 531l.62 1.9c12.71 39.08 12.71 39.08 19.59 56.84 20.33 52.67 20.33 52.67 17.79 71.26-1.87 2.74-3.77 4.19-7 5l-3-1-.27-2.42c-1.92-16.66-4.39-32.61-9.73-48.58l-.74-2.25a455 455 0 0 0-5.51-15.69l-.91-2.47a754 754 0 0 0-5.58-14.58c-9.52-24.21-16.43-49.1-19.26-75.01l-.29-2.38c-.75-6.59-.83-13.11-.77-19.74l.01-3.19z" fill="#000101"/><path d="M576 137c8.04.35 14.87 4.4 20.38 10.19a33.7 33.7 0 0 1 6.94 22.4c-1.34 10.03-6.22 17.11-13.85 23.57-8.41 6.26-17.21 6.92-27.47 5.84-8.01-1.85-15.83-6.49-20.6-13.28A71 71 0 0 1 538 179l-1.1-2.32c-2.45-7.31-2.02-16.4 1.35-23.3A56 56 0 0 1 545 144l2 1-1.94 2.81c-3.61 5.59-3.79 10.69-3.06 17.19 2.29 7.41 6.63 12.67 13 17a23.2 23.2 0 0 0 14 2 64 64 0 0 0 7.02-3.03C578 180 578 180 581 179c1.06-1.81 1.06-1.81 2-4l1.04-2.04 1.02-2.02 1.04-2.04c2.99-6.3 2.42-11.99.4-18.46-1.95-5.09-4.6-7.92-8.89-11.2L576 138z" fill="#ECC64B"/><path d="M682 137c8.14-.8 13.36 1.28 20 6a46 46 0 0 1 7 8l1.31 1.8c4.22 6.84 3.8 15.44 2.03 23.04-3.43 9.62-10.43 16.42-19.34 21.16-7.83 3.22-17.89 3.47-26.05 1.12A43 43 0 0 1 660 194l-2.2-1.54c-6.25-4.88-9.33-11.05-11.8-18.46-1-11.75.77-19.6 8-29l2 1-3.03 5.08c-2.38 4.7-2.76 9.76-1.97 14.92 2.76 7.95 6.49 13.95 14 18a25.7 25.7 0 0 0 19-.94l4-2.06 3-1c1-1.75 1-1.75 2-4l1.56-2.5c3.42-5.94 3.04-12.83 2.44-19.5-1.03-3.02-2.32-5.25-4-8l-1-3c-1.69-1-1.69-1-4-2l-6-3z" fill="#EDC751"/><path d="M533.94 8.8c4.93 4.22 9.59 8.63 14.09 13.3 3.05 2.94 6.38 5.48 9.72 8.09a80 80 0 0 1 7.25 6.8q2.49 2.05 5 4l2 2q1.48 1.25 3 2.5c3 2.5 3 2.5 5 4.5 5.1 4.92 8.94 6.69 16.02 6.59l3.23-.14 7.37-.18 2.09-.07c5.67-.17 11.34-.22 17.02-.24q7.06-.03 14.15-.11 3.55-.03 7.12-.03 5.06-.02 10.12-.1h3.1c7.08-.13 7.08-.13 10.8-3.16L673 50l5-3q2.56-2.44 5-5a44 44 0 0 1 10-8c1.66-1.75 1.66-1.75 3.07-3.56 2.1-2.73 3.83-3.97 6.93-5.44q1.77-1.35 3.44-2.81l1.83-1.6q2.27-2.11 4.42-4.34c2.3-2.25 2.3-2.25 4.5-3.31 1.8-.94 1.8-.94 2.69-2.88 1.65-3.02 4.05-3.72 7.12-5.06v3c-1.76 1.66-1.76 1.66-4.25 3.5a168 168 0 0 0-11.87 10.06 483 483 0 0 1-11.9 10.7c-2.3 2-4.54 4.07-6.8 6.12a306 306 0 0 1-13.34 11.29C676 52 676 52 674.62 53.72c-3.71 4.17-6.97 5.69-12.55 6.16-4.1.19-8.2.23-12.3.23l-5.37.05q-5.64.05-11.26.03-7.16 0-14.33.16-5.55.08-11.11.06-2.64 0-5.27.07c-11.05.25-17.82-1.1-25.96-8.87a150 150 0 0 1-3.04-3.13c-2.1-2.17-4.35-4.16-6.61-6.17l-2.41-2.18c-2.5-2.2-5.06-4.3-7.66-6.38a225 225 0 0 1-12.81-11.31c-18.54-17.4-18.54-17.4-29.5-17.88-5.9.2-8.98 1.9-13.1 6.16-3.78 4.22-5.43 7.16-5.54 12.94l-.06 2.85-.05 3.07-.07 3.14-.18 9.97-.13 6.75L495 66h-1l-1-14h-1q-.08-6.68-.12-13.37l-.05-3.8c-.06-11.2-.05-19.64 8.02-27.91 11.14-9.9 23.22-7.04 34.09 1.89" fill="#DFE1E1"/><path d="M815 557a97 97 0 0 1-5.69 17.19l-1.07 2.51A161 161 0 0 1 792 606l3 1a125 125 0 0 1-25 4l6-8 1.89-2.54 1.86-2.46 1.73-2.31L783 594h2l.27-1.64c.95-3.09 2.57-5.36 4.35-8.05 3.84-5.9 6.47-11.99 8.68-18.66 1.51-4.12 2.19-5.36 6.17-7.63A29 29 0 0 1 815 557" fill="#010201"/><path d="M754.19 7.25c5.17 5.06 6.68 11.18 6.94 18.22v6.35l.02 7.54v5.41a7198 7198 0 0 1 .03 26.96v28.93l.03 29.85q.02 12.8.02 25.63v15.3q.03 7.2.02 14.39v12.5l.02 2.1A31 31 0 0 1 759 212q-.54 2.5-1 5l-2-1c-.12-6.63-.12-6.63 1-10 .1-2.46.14-4.88.14-7.34v-9.87l.02-5.44v-14.78l.02-12.34v-29.11l.03-30.03.02-25.78v-15.4q.03-7.24.02-14.49V28.84l.02-2.11c-.05-6.06-1.06-10.93-4.46-15.98-4.9-4.79-8.76-5.91-15.43-6-3.58.06-6.88.47-10.38 1.25 2.15-3.23 3.27-3.8 6.94-4.71 7.88-1.09 13.89 1.47 20.25 5.96" fill="#F1F3F3"/><path d="M630 184c3.18.93 4.41 1.76 7 4 1.31 2.81 1.31 2.81 1 6a30 30 0 0 1-6 7h-2l-.38 3.38C629 208 629 208 627 210c-3.1.33-5.16.51-7.88-1.12-1.59-2.66-1.32-4.85-1.12-7.88l-1.75-.62c-3.19-1.96-4.56-4.07-6.25-7.38.57-3.42 1.72-4.73 4.2-7.12 4.89-3.29 10.12-2.56 15.8-1.88" fill="#656867"/><path d="m545 144 2 1-1.94 2.81c-3.61 5.59-3.79 10.69-3.06 17.19 2.3 7.42 6.63 12.65 13 17 5.36 2.74 11.11 2.19 17 2v4h-12v-2c-9.41-1.33-9.41-1.33-14 0v2h2l2.31 2.38c5.19 5.06 10.75 5.11 17.69 5.62v2h8v-2h4v-2l2.31-.44C585 193 585 193 588 192v-2l4 1-4.12 2.88-2.33 1.61c-7.93 4.69-17.57 4.86-26.43 2.86-8.93-3.26-15.86-8.62-20.15-17.14L538 179l-1.1-2.32c-2.45-7.31-2.02-16.4 1.35-23.3A56 56 0 0 1 545 144" fill="#E5C157"/><path d="m755 17 2 1c1.17 3.52 1.14 6.69 1.13 10.36l.01 2.29.01 7.61.01 5.45.01 14.82.01 12.36.01 29.16.02 30.1.03 41.26v14.51l.01 5.33v7.27l.01 2.14c-.02 3.61-.28 6.26-2.26 9.34h-1z" fill="#323534"/><path d="M576 137c8.04.35 14.87 4.4 20.38 10.19a33.8 33.8 0 0 1 6.95 22.38c-.67 4.93-1.75 9.85-5.33 13.43v-5h2v-20l-4 2-2-4c-3.14 4.43-3.97 8.79-5 14l-1 4h-2l-.44 1.88C585 178 585 178 584 180h-2v2h-4v2h-6l3-2 2.06-1.62C579 179 579 179 581 179l.87-1.75 2.17-4.29 1.02-2.02 1.04-2.04c2.99-6.3 2.42-11.99.4-18.46-1.95-5.09-4.6-7.92-8.89-11.2L576 138z" fill="#EAC65B"/><path d="M493 25h1c1.25 35.73 1.12 71.46 1.07 107.2l-.02 24.86L495 208h-2a104 104 0 0 1-1.08-15.61l.01-2.18.05-7.18.03-5.18.09-14 .09-14.65.18-27.72.21-31.57z" fill="#EEF0EF"/><path d="M616 662h20l-.07 5.62-.05 7.38-.06 3.7c-.04 7.94-.04 15.35 4.3 22.3l1.88 3h-4c-5.55-7.48-7.87-18.32-6.62-27.5l.62-3.5-.06-2.81C632 668 632 668 634 665l-15 1 1 1c.07 2.33 0 4.64-.06 6.97C620 676 620 676 621 677c.14 4.25.19 7.91-1 12l-.31 3.25c-.82 4.44-2.51 7.84-4.69 11.75l-4-1 1.38-2c4.39-8.12 3.86-16.49 3.74-25.5l-.02-3.94z" fill="#F1F4F0"/><path d="m654 145 2 1-3.03 5.08c-2.37 4.68-2.79 9.78-1.97 14.92a62 62 0 0 0 9 16h-4c0 5.22 0 5.22 2 8a68 68 0 0 0 7 4l-2 2c-8.37-5.79-14.27-12-17-22-1.25-11.84.83-19.69 8-29" fill="#DCC067"/><path d="M756 369h2l1.94 9.31.55 2.61c2.23 10.89 2.7 21.61 2.7 32.7v3.71c-.05 9.35-.71 18.44-2.19 27.67l-3-1 .18-3.21q.83-15.01 1.38-30.04l.14-3.5c.19-5.42.35-10.82.3-16.25h-2l-1-7.06-.29-1.99c-.6-4.35-.8-8.56-.71-12.95" fill="#1C1F1D"/><path d="m911 527.09 3.63.13 3.8.16 3.8.13c9.39.36 9.39.36 12.77 1.49v2l-3.32.06-12.46.26-5.35.1c-15.78.29-30.8 1.33-46.05 5.7q-2.93.84-5.86 1.64l-2.53.73a29 29 0 0 1-7.43.5c1-2 1-2 4.33-3.17q2.17-.64 4.36-1.25l2.34-.67a186 186 0 0 1 33.75-6.25c5.05-.46 9.15-1.75 14.22-1.56" fill="#E3E3E5"/><path d="M758 362c2.78 2.78 2.49 5.15 3 9l1.06 3.12c.94 2.89.94 4.88.94 7.88l1 3.44c.96 3.43 1.08 6.03 1 9.56l.5 2.5c.58 2.89.56 5.56.5 8.5 0 3 0 3 1 5q.14 3.46.12 6.94l.01 3.77C767 425 767 425 766 428a93 93 0 0 0 0 5l-2 1c-.76-4.08-1.15-8-1.25-12.15l-.09-3.52-.1-3.71c-.37-11.71-.98-23.16-3.39-34.67l-.43-2.04q-.6-2.76-1.25-5.51c-.53-3.71-.19-6.73.51-10.4" fill="#E8EAE8"/><path d="M656 182h6v4h5v2h14l-1 8q-3.87.16-7.75.25l-2.21.1c-3.55.07-5.56.03-8.38-2.21L660 192l-2.75-2.56C655 187 655 187 655 184z" fill="#EBC54D"/><path d="M936.82 529.81c19.6 1.6 35.56 12.8 48.18 27.2a41 41 0 0 1 5 8l-1 3a65 65 0 0 1-5.63-7.7c-10.7-16.08-28.02-23.88-46.31-27.62q-2.02-.37-4.06-.69c2-2 2-2 3.82-2.19" fill="#D5D7D7"/><path d="m545 144 2 1-1.94 2.81c-3.6 5.57-3.83 10.71-3.06 17.19a76 76 0 0 0 5 11h-3v-2h-4v8c-4.83-7.25-4.86-14.56-4-23 1.85-5.72 4.98-10.53 9-15" fill="#D9BE69"/><path d="M682 137c8.14-.8 13.36 1.28 20 6a46 46 0 0 1 7 8l1.31 1.8c3.8 6.18 3.5 13.19 2.69 20.2a54 54 0 0 1-4 10h-1v-5h2v-19l-2-1v-6h-2v-2h-2v-2h-2v-2h-2v-2h-2v-2h-2v2l-4 1v-2l-1.62-.81L682 138z" fill="#DBBF6C"/><path d="m648 180 1.69 2.12L652 185l2.12 2.94c3.99 4.81 10.02 8.11 15.88 10.06 12.16.79 21.96.58 31.56-7.75l1.94-1.86C705 187 705 187 706 187v5h-4v2h-2v2h-2v2c-7.75 4.24-18.4 3.59-27 3l-6-2-3 1v-4h-4v-3l-1.88-.94L652 190v-2l-4-1z" fill="#211607"/><path d="M489 431h1l1.44 10 .41 2.83q1.16 8.08 2.15 16.17c-3.47-.46-6.67-.89-10-2-10.55-.78-19.04.03-28 6 .23-1.84.23-1.84 1-4 5.91-4.4 13.68-6.82 21-7a81 81 0 0 1 12 3l-1.06-3.44c-1.01-4.01-.83-7.24-.23-11.31.44-3.43.35-6.79.29-10.25" fill="#D5D7D9"/><path d="M455 462c0 3.71-.89 4.36-3.25 7.12C440.2 483.66 440.44 502.24 440 520l-2 1a64 64 0 0 1-.69-15.69l.15-2.39c.61-9.06 1.43-17.69 5.54-25.92l.91-1.99A43 43 0 0 1 452 463z" fill="#E6E9E8"/><path d="M471 599a62 62 0 0 1 9.31 8.75c7.72 8.98 16.21 16.23 25.69 23.25l-2 3-5.31-4.25-2.99-2.39c-2.7-2.36-2.7-2.36-4.24-4.47-1.83-2.37-3.89-3.37-6.46-4.89-5.73-5.12-10.8-10.57-15-17z" fill="#E8EAEA"/><path d="M584 136h5v3l3 1v2h2v2l1.75.06c3.63 1.52 4.5 4.5 6.25 7.94h2v8h2c.17 4.92.25 8.5-2 13h-1l-.26-2.93c-.98-9.06-1.95-17.56-8.93-24.13A110 110 0 0 0 587 141l-4-3z" fill="#1E1608"/><path d="M742 323c3 1 3 1 4.5 3.5 1.76 4.1 3.14 8.25 4.5 12.5l2.06 6.19c1 3 2 6 2.98 9.01.96 2.8.96 2.8 2.21 5.36.97 3.15.23 4.57-1.25 7.44h-1l-1.03-3.86a299 299 0 0 0-10.43-31.56l-1-2.53-.9-2.23C742 325 742 325 742 323" fill="#EAEBEB"/><path d="m541 182 1 2h2l1 4h3l5 5c4.58 2.61 9.84 2.62 15 3v2h8v-2h4v-2l2.31-.44C585 193 585 193 588 192v-2l4 1-4.12 2.88-2.33 1.61c-7.93 4.69-17.57 4.86-26.43 2.86-7.09-2.59-13.91-7.03-18.12-13.35z" fill="#D9BF6E"/><path d="M582 143c4.42 3.51 5.77 7.67 7 13 .88 7.89-1.55 14.41-6 20.94a32 32 0 0 1-6 5.06h-2l1-6 2.38-.19c2.62-.81 2.62-.81 3.87-3 .75-2.81.75-2.81 1.25-6.06l.5-2.75 2-1v-11h-2z" fill="#211A0A"/><path d="M490 393c2.03 3.31 2.13 5.43 1.62 9.25l-.33 2.7L491 407h1l-.02 2.37-.04 10.57-.03 3.73-.01 3.54-.01 3.29c.11 2.5.11 2.5 1.11 3.5q.06 2.5 0 5l-3-1a89 89 0 0 1-1.13-14.98l-.01-2.23.01-4.62q.01-3.54-.01-7.07l.01-4.52-.01-2.12c.02-3.3.12-6.31 1.14-9.46" fill="#232526"/><path d="M754.19 7.25c3.27 3.2 4.3 5.5 5.8 9.75h-2l-1 4c-.1-.52-.1-.52-.68-3.13-1.58-5.45-4.57-8.83-9.43-11.74-6.3-2.35-13.46-1.57-19.88-.13 2.15-3.23 3.27-3.8 6.94-4.71 7.88-1.09 13.89 1.47 20.25 5.96" fill="#E6E8E8"/><path d="M759 157h1c1.13 9.24 1.19 18.45 1.19 27.74l.03 7.76.01 4.99.02 2.32A32 32 0 0 1 759 212q-.55 2.5-1 5l-2-1c-.12-6.62-.12-6.62 1-10h2z" fill="#EEF1F0"/><path d="M700 673c8.22 6.1 11.16 12.4 12.76 22.43.28 3.02.03 5.64-.76 8.57l-4-1 .18-2.75c.36-9.77-.94-15.55-7.49-22.81L699 676z" fill="#E3E7E3"/><path d="M762 428h2l.56 7.38.17 2.11c.38 5.28.38 5.28-.73 7.51l-1 5q-.97 4-2 8l3 1-6 2 .26-1.84 1.18-8.47.41-2.9q1.35-9.87 2.15-19.79" fill="#DDE0DE"/><path d="m654 145 2 1-3.03 5.08c-3.05 6.02-2.62 13.52-.97 19.92l-2-1v-2h-2v9c-3.52-5.28-2.62-11.87-2-18 1.76-5.33 4.6-9.58 8-14" fill="#D8C373"/><path d="M576 137c6.7.29 11.64 3.06 17 7l2 3-5 1v2h-2l-1 2-1.56-3.62c-2.01-4.08-4.48-6.5-8.05-9.25L576 138z" fill="#D9B44E"/><path d="M495 19h1v13h2v17h-1l-1 31h-1z" fill="#252627"/><path d="M548 670v3a70 70 0 0 1-16 4l-1.9.52a27 27 0 0 1-6.85.54l-2.42-.02L519 678v-1l-7-1v-1l1.94-.14q4.44-.32 8.87-.67l3.05-.22a84 84 0 0 0 17.97-3.36C546 670 546 670 548 670" fill="#DFDFDF"/><path d="m698 190 3 1c-3.65 4.65-8.37 6.67-14 8-2.94.29-5.86.37-8.81.38h-2.21c-4.07-.08-7.31-.58-10.98-2.38v-1h11v2h8v-2h6l1-4h7z" fill="#E0C666"/><path d="M590 56q2.34.12 4.68.11h2.79l2.98-.01 3.08-.01 9.72-.03 6.59-.01L636 56v1c-10.53 1.36-21.1 1.11-31.69 1.06l-5.63-.01L585 58l-1-2c2.55-1.27 3.3-.71 6 0" fill="#EBEDEE"/><path d="M440 516h1l.37 2.89c.9 6.95 1.88 13.84 3.19 20.72.58 3.12 1.02 6.25 1.44 9.39-1.94-.56-1.94-.56-4-2-.62-3.25-.62-3.25-1-7l-1.06-3.12c-.94-2.87-1.02-4.9-.94-7.88l-.55-1.85c-.54-2.61-.15-4.33.49-6.9l.59-2.42z" fill="#DCDEDE"/><path d="M910 625c-1 3-1 3-3.75 5.12a23.2 23.2 0 0 0-8.78 15.35q-.38 4.76-.47 9.53h-2c-.56-10 .45-16.67 6-25h2l.81-1.94c1.58-2.74 3.09-3.06 6.19-3.06" fill="#E7E8EC"/><path d="M487 407h1l2 37-3-1 .06-3.31C487 436 487 436 486 433q-.4-4.37-.62-8.75l-.16-2.38c-.27-4.79-.15-9.15.78-13.87z" fill="#EDEFF0"/><path d="m592 190 1 2-1 2-3 1-1 3c-2.47.91-2.47.91-5.5 1.62-5.43 1.31-5.43 1.31-6.5 2.38-5.43.33-9.83-.55-15-2v-1l3.15-.08c10.55-.38 19.76-1.37 27.85-8.92" fill="#201305"/><path d="m546 680 2 2-1.44 2.25c-2.51 4.43-2.77 8.44-3.12 13.5l-.26 3.55-.18 2.7-4-2c-.41-7.58.71-13.79 5.19-20.06z" fill="#DFDFE2"/><path d="m703 670 3.05.84c11.02 2.89 21.58 3.91 32.95 4.16v1l-9 1v1c-10.06-.14-18.05-.86-27-6z" fill="#E6E9E6"/><path d="M589 154h1l.12 6.62.08 3.73A29 29 0 0 1 588 174h-2l-.44 1.88C585 178 585 178 584 180h-2v2h-4v2h-6l3-2 2.06-1.62C579 179 579 179 581 179l.88-1.79c.97-1.91 2.04-3.79 3.12-5.65 2.8-5.5 3.3-11.49 4-17.56" fill="#D7BE71"/><path d="m897 652 .69 1.62c3.88 7.02 8.67 10.9 16.31 13.38 4.67.66 9.29.93 14 1v1c-16.55 1.98-16.55 1.98-23-3l-2.22-1.69c-6.33-5.17-6.33-5.17-6.78-9.31z" fill="#DBDDDE"/><path d="M489 431h1l1.44 10 .41 2.83q1.16 8.08 2.15 16.17c-6.62-.75-6.62-.75-10-3l6-1-1.06-3.44c-1.01-4.01-.83-7.24-.23-11.31.44-3.43.35-6.79.29-10.25" fill="#CDD0CF"/><path d="M936.82 529.81c5.95.48 11.18 2.06 16.74 4.12l2.17.81c5.14 2 5.14 2 6.27 4.26a104 104 0 0 1-16.68-4.27c-4.03-1.27-8.17-2-12.32-2.73 2-2 2-2 3.82-2.19" fill="#DADADD"/><path d="M756 369h2q1.01 4.74 2 9.5l.58 2.69A64 64 0 0 1 762 397h-1l-1-6h-2l-1-7.06-.29-1.99c-.6-4.35-.8-8.56-.71-12.95" fill="#282B28"/><path d="m928.75 616.94 2.42.03 1.83.03c-3.33 1.78-6.24 2.49-10 3v2l-13 5v-3c2.05-1.57 2.05-1.57 4.75-3.12l2.67-1.57c3.91-1.98 6.98-2.43 11.33-2.37" fill="#DFDFE2"/><path d="M802 606v2c-2.99 2-3.86 2.26-7.25 2.5-3.09.26-5.32.69-8.31 1.69-4.52 1.07-7.05.2-11.44-1.19v-1l3.58-.62 4.67-.82 2.36-.41 2.28-.4 2.1-.36q2.05-.4 4.06-.93c2.67-.63 5.23-.52 7.95-.46" fill="#E1E3E0"/><path d="M617 676h1l.18 2.48.26 3.27.24 3.23c.32 3.02.32 3.02.94 5.13.51 2.51-.07 4.05-.93 6.45l-.8 2.32C617 701 617 701 615 704l-4-1 1.38-2c4.21-7.77 4.16-16.34 4.62-25" fill="#DDDFE0"/><path d="M764 407c3.37 3.54 3.35 6.29 3.25 11.06l-.05 3.73C767 425 767 425 766 428a93 93 0 0 0 0 5l-2 1c-1.3-9.11-.69-17.87 0-27" fill="#F1F3F3"/><path d="m775.19 610.88 2.73.04q1.03.05 2.08.08v2c-3.73.58-7.21 1-11 1l-.62 1.68c-1.98 3.34-4.22 5.07-7.38 7.32l-3-1 4.3-4.37q1.22-1.2 2.44-2.47c3.59-3.42 5.57-4.41 10.45-4.28M755.99 623l2 1Z" fill="#E2E4E2"/><path d="M695 164h3c-1.09 7.14-3.01 12.52-8.55 17.36-1.57 1.14-1.57 1.14-4.45 2.64l-3-1 5-5h3v-4l4-1z" fill="#241B0A"/><path d="M757 644c4.65 2.89 6.04 5.75 7.5 10.82.58 2.54.96 4.6.5 7.18-1.52 1.63-1.52 1.63-3 3l-.33-2.2c-.9-5.49-2.02-9.85-4.67-14.8z" fill="#EFEFF1"/><path d="m553 178 1 2h7v1l14 1c-4.55 3.03-8.63 3.69-14 3a45 45 0 0 1-9-4l-1-2z" fill="#31240A"/><path d="M634 677h1l.26 3.62c1.38 16.39 1.38 16.39 6.74 23.38h-4c-4.13-5.55-5.44-11.24-6-18l1-1q.34-2.02.56-4.06z" fill="#DADDDE"/><path d="M544 166h2l1 2h3l1 9 3-1-1 3c-3.38-.25-4.25-1.26-6.69-3.75-2.13-3-3.1-4.63-3.31-8.25z" fill="#1A1509"/><path d="M535 162h1l.08 2.31c.44 8.02 2.23 13.77 6.05 20.75.87 1.94.87 1.94.87 4.94h-3l-1-5-3-1a56 56 0 0 1-1-22" fill="#261F11"/><path d="M915 571.94h2.93q3.53.04 7.07.06v1l-1.95.15a201 201 0 0 0-19.1 2.55c-2.94.3-5.11.05-7.95-.7v-2c6.37-.95 12.56-1.12 19-1.06" fill="#CACBCC"/><path d="m554 136 2 1v2h5l-2 5-2.08.15-2.73.23-2.71.21C549 145 549 145 546 147c1.45-3.39 3.37-5.45 6-8z" fill="#080B06"/><path d="M634 664c2 2 2 2 2.01 4.32l-.32 2.8-.34 2.97L635 677l-.23 2.47A80 80 0 0 1 634 685l-2 1c-1.11-3.95-.85-7.1-.25-11.08.25-1.92.25-1.92.19-4.67.07-2.57.76-4.06 2.06-6.25" fill="#E8EAEB"/><path d="M919.88 572.68h2.3l2.26-.04c5.25 0 8.87 1 13.56 3.36v2l-2.38-.4A243 243 0 0 0 912 575c2.58-2.57 4.37-2.3 7.88-2.32" fill="#E7E9EB"/><path d="M750 346c3.71 5.57 6.77 13.53 5.75 20.31L755 369c-2-1-2-1-2.6-2.75A148 148 0 0 1 750 350h-2v-2h2z" fill="#222521"/><path d="M601 158c3.01 5.24 2.75 10.8 1.39 16.58-1.87 5.9-1.87 5.9-4.39 8.42v-5h2l-.04-3.87-.05-7.56-.01-2.44-.01-2.25C600 160 600 160 601 158" fill="#D2B971"/><path d="m545 144 2 1-1.88 2.25c-3.17 4.66-3.45 10.27-4.12 15.75l-2-4-1 7-2-2c0-7.79 3.5-14.5 9-20" fill="#D3BD7F"/><path d="M750 344c3 1 3 1 4.13 3.14l.99 2.67 1.01 2.65A71 71 0 0 1 758 359l1 3c-.94 2.69-.94 2.69-2 5h-1l-3-10.38-.87-2.98-.82-2.85-.76-2.64C750 346 750 346 750 344" fill="#E6E9E7"/><path d="M941 666v2c-18.07 5.46-18.07 5.46-23 3v-2l3.14-.4 4.11-.54 2.07-.26c2.67-.35 5.3-.7 7.91-1.37C937 666 937 666 941 666" fill="#E8EAE9"/><path d="m934 528 1 3c-10.37.16-20.65-.35-31-1v-1c9.99-1.26 19.96-1.09 30-1" fill="#F2F3F4"/><path d="m713 158 1 2h2c.39 13.35.39 13.35-2 18l-3 1z" fill="#251808"/><path d="M823 551v2l-19 6-1-3 1-2c2.11-.34 2.11-.34 4.75-.5 5.05-.4 9.25-2.5 14.25-2.5" fill="#E5E6E8"/><path d="M697 167h1v7h-2v4h-2v2h-2v2l-6 2v2h-7c9-6 9-6 12-6l.81-1.69C693 176 693 176 694.56 173.5A19 19 0 0 0 697 167" fill="#CDB56C"/><path d="m554 182 2.81 1c5 1.46 10.03 1.17 15.19 1v4h-12v-2l-6-2z" fill="#DFC066"/><path d="M978 640h3a16.3 16.3 0 0 1-5.31 6.94A104 104 0 0 0 967 655l-3-2 1.79-1.32c7.25-5.46 7.25-5.46 10.09-9.12z" fill="#E8E8E9"/><path d="M711 159h2c.46 8.93.14 15.97-4 24h-1v-5h2z" fill="#DDC370"/><path d="M776.25 456.94a370 370 0 0 1 6.75.06v3q-3.66.09-7.31.13l-2.09.05c-3.77.03-5.38-.03-8.6-2.18 3.75-1.2 7.33-1.1 11.25-1.06" fill="#222424"/><path d="m755 215 2 1c-.65 6.53-3.41 11.62-7 17h-3c1.44-3.83 3.2-7.42 5.05-11.06A80 80 0 0 0 755 215" fill="#DDE0E0"/><path d="m546 191 14 7v4c-4 0-4 0-6.25-1.88C552 198 552 198 552 196h-4z" fill="#1C130B"/><path d="M785 455v2l-3.32.18-4.37.26-2.18.12c-3.11.18-5.98.41-9.02 1.1L764 459l-2-2a44 44 0 0 1 12.62-2.69l3.36-.26c2.62-.04 4.55.15 7.02.95" fill="#ECEFEF"/><path d="M682 137a207 207 0 0 1 4.31-.19l2.43-.1c2.26.29 2.26.29 4.05 1.68C694 140 694 140 694 142h2v2l-4 1v-2l-1.62-.81L682 138z" fill="#D3B54F"/><path d="m750 675-1 3q-4.68.08-9.38.12l-2.69.06-2.58.02-2.38.03C730 678 730 678 728 676c7.36-.8 14.6-1.13 22-1" fill="#E9ECE8"/><path d="M842 594c-6.09 5.37-11.14 6.27-19 6a54 54 0 0 1 8.94-4.69l3.15-1.38c2.93-.94 4.11-1.04 6.91.07" fill="#DDDDE0"/><path d="M813 501c2.36 2.36 2.68 4.09 3.05 7.36-.1 5.66-1.69 11.17-3.05 16.64h-1c-.17-8.04.35-15.99 1-24" fill="#EEF0ED"/><path d="M582 143c4.4 3.49 5.83 7.68 7 13 .21 2.73.15 5.26 0 8l-2 1-1-13h-2z" fill="#33240C"/><path d="M760 193h1l.12 6.12.08 3.45c-.2 3.51-.97 6.16-2.2 9.43q-.55 2.5-1 5l-2-1c-.12-6.62-.12-6.62 1-10h2z" fill="#E7EAEB"/><path d="M439 497h1v23l-2 1c-1.06-5.57-.83-10.34-.06-15.94l.3-2.36z" fill="#EDEFEF"/><path d="M665 196h11v2l15-1c-4.4 2.2-7.67 2.3-12.44 2.25l-2.27.02c-4.22-.01-7.45-.34-11.29-2.27z" fill="#CEB76D"/><path d="M645 163h1l.18 2.23.26 2.96.24 2.92c.3 2.68.75 5.26 1.32 7.89l-2 1v-4h-4v-8h2z" fill="#27220F"/><path d="M491 655c3 2 3 2 3.44 4.02l.12 2.36c.19 3.38.76 5.66 2.44 8.62l-3 1c-4.02-4.85-3.28-10.05-3-16" fill="#27292A"/><path d="M618 662h18l-1 4-1-1-3.56.06c-4.44.07-8.18-.84-12.44-2.06z" fill="#F8F8F7"/><path d="m494 370 3 2-.62 2.09A90 90 0 0 0 493 392c-2-2-2-2-2.05-4.03.73-6.06 1.74-12.01 3.05-17.97" fill="#2B2C2D"/><path d="m654 145 2 1-1.88 3.06a28 28 0 0 0-3.18 7.82L650 160l-3 1c.28-6.67 3.08-10.71 7-16" fill="#BDB78C"/><path d="m727 294 4 1a39 39 0 0 1 3 6l1.19 2.38.81 1.62h-2l-1 2z" fill="#E2E5E4"/><path d="m702 140 1 2h3v2h2v4l3 1-1 4-1.62-2.19c-2.59-3.06-5.25-5.32-8.38-7.81l2-1z" fill="#261A08"/><path d="M500 640c0 3.69-1.27 4.58-3.62 7.24-2.34 2.99-3.78 6.33-5.38 9.76l-3-1a50 50 0 0 1 12-16" fill="#E9EAEB"/><path d="M938 577c3.26.6 5.13 1.64 7.62 3.81l1.79 1.52A18 18 0 0 1 951 588h-3a143 143 0 0 1-3.66-4.47c-1.8-2.06-3.98-3.18-6.34-4.53z" fill="#D5D7D4"/><path d="m896 574 1 2c-6.08 2.17-10.64 3.52-17 2v-1a506 506 0 0 1 8.11-2.34c2.74-.63 5.09-.78 7.89-.66" fill="#DDDCDF"/><path d="M812 490c2.6 2.6 2.63 4.4 3 8l-1 3q-.34 3.59-.56 7.19l-.26 3.85L813 515h-1z" fill="#DDDEDC"/><path d="M539 158h1c1.12 7.75 1.12 7.75 0 10h-2v4h-2v-8h1z" fill="#E8CB73"/><path d="M576 137c4.97.5 8.64 1.55 13 4-2.65 1.46-3.89 2-7 2-2.22-1.47-4.02-3.2-6-5z" fill="#B59E5D"/><path d="M676 136c-2.38 2.38-4.34 3-7.5 4.12l-2.97 1.08c-2.53.8-2.53.8-4.53.8.56-1.88.56-1.88 2-4a30 30 0 0 1 13-2" fill="#050706"/><path d="m693 145 3 1v2h2v4l5 1-3 1-1 11h-1l-.08-2.09c-.41-6.75-1.75-11.94-4.92-17.91" fill="#CDAD58"/><path d="m593 147 2 4a139 139 0 0 1-5 5h-2v-6h2v-2z" fill="#E6BB52"/><path d="M652 178c2.31-.25 2.31-.25 5 0 1.81 2 1.81 2 3 4h-4l-1 3-3-2c-.19-2.62-.19-2.62 0-5" fill="#EBC761"/><path d="m502 5 3 1-2.81 3.31-1.58 1.87A91 91 0 0 1 496 16c-.38-2.12-.38-2.12 0-5a46 46 0 0 1 6-6" fill="#DFDFE2"/><path d="M981 554c3.58 3.38 6.57 6.7 9 11l-1 3c-8-9.71-8-9.71-8-14" fill="#D7D9DC"/><path d="M953 662c-2.31 2.69-4.11 3.57-7.56 4.31l-2.38.55-2.06.14-2-2q2.93-1.05 5.88-2.06l3.3-1.16C951 661 951 661 953 662" fill="#D3D4D4"/><path d="M933 617c-3.27 1.88-6.28 2.49-10 3v2l-8 3c1.24-3.73 2.2-3.96 5.62-5.69 4.45-2.13 7.51-2.84 12.38-2.31" fill="#B7B5BA"/><path d="M534 258h1l1 6h1c.37 7.51.37 7.51-1.5 10l-1.5 1c-1.22-3.67-.88-6.34-.56-10.19z" fill="#313334"/><path d="M583 175h1v5h-2v2h-4v2h-6l3-2 2.06-1.62C579 179 579 179 581 179z" fill="#C3AF59"/><path d="M518 1c-1 2-1 2-3.18 2.89l-2.7.8-2.67.82C507 6 507 6 504 5c4.54-4.02 8.03-5.99 14-4" fill="#F0F2F2"/><path d="M808 539h1c1.44 8.95 1.44 8.95-.31 13.12L807 554h-2a113 113 0 0 1 3-15" fill="#D5D8D6"/><path d="M523 249c4 1.37 6.8 3.26 10 6l-1 3-10-7z" fill="#E9EAEB"/><path d="M678 47c0 3.48-.41 3.87-2.75 6.25l-1.55 1.64c-1.7 1.11-1.7 1.11-3.9.78L668 55c3.11-3.29 6.02-5.84 10-8m-12 9 2 1Z" fill="#E6E7EA"/><path d="M710 690c2.64 2.64 2.65 4.32 3 8-.44 3.38-.44 3.38-1 6l-4-1 1-2q.34-2.81.56-5.62l.26-3.04z" fill="#EFF2EF"/><path d="M486 455v2l-15-1c1-2 1-2 3-2.75 4.22-.35 7.93.68 12 1.75" fill="#EFF1F2"/><path d="m512 314 2 3c-.9 2.7-.9 2.7-2.38 5.69l-1.46 3.01L509 328l-2-1q.67-2.12 1.38-4.25l.77-2.39c.8-2.23 1.75-4.27 2.85-6.36" fill="#DEE0E1"/><path d="m541 182 1 2h2l1 4h3c2.69 2.5 2.69 2.5 5 5l-1 2-4.38-3.31-2.46-1.87C543 188 543 188 541 185z" fill="#D0B868"/><path d="M695 164h3q-.39 2.16-.81 4.31l-.46 2.43c-.81 2.49-1.75 3.58-3.73 5.26l-1-3h2z" fill="#2B210E"/><path d="M603 160h3c.17 4.92.25 8.5-2 13h-1z" fill="#160F06"/><path d="M570 138c4.12-.32 6.37-.39 9.94 1.81C582 142 582 142 582 145h-2v-3h-4v-2h-5z" fill="#191105"/><path d="M584 136h5v3l3 1-1 4-8-5z" fill="#271E0E"/><path d="m592 190 1 2-1 2-3 1-1 3c-2.88.62-2.88.62-6 1l-2-2 2.12-1.02 2.76-1.36 2.74-1.33C590 192 590 192 592 190" fill="#2E1D0C"/><path d="M705 187h1v5h-4v2h-2v2h-5l2.19-1.69c2.81-2.31 2.81-2.31 5.56-5.06z" fill="#2E1D09"/><path d="M761 654h3c1.11 3.32.97 5.64 0 9l-2 2z" fill="#F5F8F5"/><path d="M742 323c3 1 3 1 4.75 3.69 1.39 3.68 1.23 5.55.25 9.31-1.9-2.86-2.69-4.93-3.62-8.19l-.79-2.73z" fill="#D3D3D5"/><path d="M657 176h3l1 3 3 1v2l2 1c-5.3 0-6.19-1.54-10-5z" fill="#291E0C"/><path d="M498 13h2q-.17 2.4-.38 4.81l-.21 2.71C499 23 499 23 497 26q-.33-2.4-.62-4.81l-.36-2.71C496 16 496 16 498 13" fill="#1C1F1C"/><path d="M723 675h16v1l-9 1v1l-8-1z" fill="#C6C9C8"/><path d="m790 610-1 2c-5.41 1.3-8.89.77-14-1v-1c5.35-1 9.62-.85 15 0" fill="#D0D5D2"/><path d="m833 547-1 3c-2.07.95-2.07.95-4.56 1.69l-2.51.76-1.93.55-1-3 4.38-1.5 2.46-.84C831 547 831 547 833 547" fill="#D9D9DB"/><path d="M635 695h2l5 9h-4c-2.57-3.3-3-4.73-3-9" fill="#E3E5E6"/><path d="M911 667q4.29.14 8.56.44l2.45.16 5.99.4v1q-3.66.33-7.31.62l-2.09.2c-3.86.3-5.29.39-8.6-1.82z" fill="#C9CCCA"/><path d="m797 461 6 5-1 3-8-6z" fill="#DDE0E0"/><path d="M648 168h2v5h2v3h-2v2h-2z" fill="#E9C85F"/><path d="m545 144 2 1-1.88 2.62A34 34 0 0 0 541 157l-2-3c1.07-4.07 3.29-6.84 6-10" fill="#C1BA97"/><path d="m707 684 4 2-1 15h-1l-.18-2.45-.26-3.24-.24-3.2c-.28-2.76-.72-5.4-1.32-8.11" fill="#C8CBC8"/><path d="M820 600h10c-2.85 1.9-4.42 2.46-7.69 3.12l-2.45.51-1.86.37z" fill="#EAEAED"/><path d="M809 514h1l1 14-3-1c-.08-4.52-.1-8.59 1-13" fill="#1E2120"/><path d="m524 297 2 3q-1.17 1.76-2.38 3.5l-1.33 1.97L521 307h-2a53 53 0 0 1 5-10" fill="#1D1F20"/><path d="m742 233 3 1-6 7-2-3z" fill="#222424"/><path d="m587.56 141.94 2.44.06 1 2h-5v2h2v6c-1.99-2.98-2.94-5.6-4-9 1-1 1-1 3.56-1.06" fill="#CEB063"/><path d="M512 675h14v2l-7 1v-1l-7-1z" fill="#D3D7D5"/><path d="M465 590a35 35 0 0 1 7 9c-3 0-3 0-5.19-1.69-2.12-2.71-2.18-3.96-1.81-7.31" fill="#DCE0DC"/><path d="m759 451 3 3c-.31 2.19-.31 2.19-1 4l3 1-6 2z" fill="#D3D6D4"/><path d="M495 207h1q.58 2.68 1.12 5.38l.64 3.02.24 2.6-2 2c-1.28-4.09-2.38-7.69-2-12z" fill="#E6E7E8"/><path d="m616 697 2 2-3 5-4-1c2.75-4.88 2.75-4.88 5-6" fill="#E8E9EB"/><path d="m803 604-1 2c-3.38.75-3.38.75-7 1l-3-2c7.43-2.43 7.43-2.43 11-1" fill="#1B1C1C"/><path d="M488 388h2q.08 2.13.12 4.25l.08 2.39c-.22 2.57-.91 4.15-2.2 6.36q-.3-2.12-.56-4.25l-.32-2.39c-.12-2.37.18-4.11.88-6.36" fill="#EDEFF1"/><path d="M682 137h9l-1 4c-5.75-1.75-5.75-1.75-8-4" fill="#CEB970"/><path d="M810 534h1q.37 2.15.69 4.31l.38 2.43c-.07 2.26-.07 2.26-1.55 4.05L809 546l-.06-4.31-.04-2.43c.1-2.26.1-2.26 1.1-5.26" fill="#F0F3F1"/><path d="m958 538 6.05 1.37C966 540 966 540 968 542v2a48 48 0 0 1-10-5z" fill="#CACACD"/><path d="M863 537c-3.86 2.15-6.55 3.39-11 3 1-2 1-2 3.81-3.19 3.05-.77 4.33-.91 7.19.19" fill="#E9EAEC"/><path d="m479 457 8 1v3l-7-1z" fill="#1E201F"/><path d="M763 445c.69 1.62.69 1.62 1 4-1.44 3.25-1.44 3.25-3 6h-1q.17-2.22.38-4.44l.21-2.49.41-2.07z" fill="#F0F2F1"/><path d="M488 430h1l1 14-3-1z" fill="#F2F5F6"/><path d="M758 362c2.57 2.57 2.54 4.48 3 8h-2l-1 3-.56-4.38-.32-2.46C757 364 757 364 758 362" fill="#EEF2EE"/><path d="m754 357 4 2c1.21 3.62.54 4.64-1 8h-1z" fill="#E1E4DF"/><path d="m720 271 3 1v9l-2-1c-.41-2.07-.41-2.07-.62-4.56l-.23-2.51z" fill="#EFF2EF"/><path d="M987 621c.69 1.62.69 1.62 1 4-1.44 3.25-1.44 3.25-3 6l-2-1a93 93 0 0 1 4-9" fill="#1D1F1D"/><path d="m864 583-1 3c-3.56 1.19-3.56 1.19-7 2l-1-2c5.62-3 5.62-3 9-3" fill="#DCDCDD"/><path d="M759 441h1q.07 2.4.12 4.81l.08 2.71C760 451 760 451 758 454q-.33-2.12-.62-4.25l-.36-2.39c-.02-2.68.61-4.09 1.98-6.36" fill="#0C0E0E"/><path d="m546 191 10 5c-3.35 1.12-4.71 1.18-8 0-1.31-2.56-1.31-2.56-2-5" fill="#271B0C"/><path d="M738 315c2.99 1.1 3.85 1.68 5.25 4.62L744 322h-3z" fill="#E7E8E8"/><path d="M649 179c3 1 3 1 4.25 2.81.87 2.53.63 3.71-.25 6.19-4-5.62-4-5.62-4-9" fill="#DFC975"/><path d="M595 147c3.48 3.02 4.79 5.57 6 10l-3-1c-.95-2.07-.95-2.07-1.69-4.56l-.76-2.51z" fill="#C3AC6D"/><path d="M918 669h10c-4 3-4 3-7.25 2.69L918 671z" fill="#F0F2F0"/><path d="M872 535v1l-10 2v-3c3.69-1.23 6.21-.64 10 0" fill="#DBDCDE"/><path d="M492 369h2l-1 8-3-1z" fill="#EEEEEF"/><path d="M755 211q-.17 2.22-.38 4.44l-.21 2.49L754 220l-2 1v-9c2-1 2-1 3-1" fill="#0E1111"/><path d="M708 183c2 3 2 3 2 7l-4-1c.51-2.17 1-4 2-6" fill="#211712"/><path d="m596 182 2 3-6 5v-4h2v-2h2z" fill="#DEC671"/><path d="M699 27c2.12.38 2.12.38 4 1l-6 5c0-4 0-4 2-6" fill="#E3E6E7"/><path d="M509 672h4v3h-9l4-2z" fill="#2D302D"/><path d="M949 607c-1 3-1 3-4.06 4.69L942 613c.25-1.88.25-1.88 1-4 2.15-1.38 3.44-2 6-2" fill="#DEDFDF"/><path d="m932 572 8 3v2l-9-3z" fill="#232624"/><path d="m499 346 2 3c-.88 3.69-.88 3.69-2 7l-2-1c.49-3.12 1-6 2-9" fill="#E0E2E2"/><path d="m658 140 1 2 2 1c-3.75 2-3.75 2-6 2l-2 1c1.37-3.16 1.99-3.99 5-6" fill="#0E100D"/><path d="M576 137c6.75.75 6.75.75 9 3-2.25.75-2.25.75-5 1-2.31-1.94-2.31-1.94-4-4" fill="#8E7F54"/><path d="M717 14c-1.37 3.16-1.99 3.99-5 6v-4c3-2 3-2 5-2" fill="#D6D8DB"/><path d="M951 600h2c-.81 2.94-.81 2.94-2 6l-3 1c1.88-5.88 1.88-5.88 3-7" fill="#E7EAEC"/><path d="M884 534c-2.63 1.41-5.03 2.63-8 3-2.25-.94-2.25-.94-4-2 3.98-1.33 7.85-1.07 12-1" fill="#28282A"/><path d="m791 457 6 3v2l-6-1z" fill="#E8EBE9"/><path d="m648 180 4 5-2 3-2-1z" fill="#261F0F"/><path d="m565 38 4 2v4c-2-1.31-2-1.31-4-3z" fill="#DADDDB"/><path d="M720 12h2c-.54 3.8-2.2 5.47-5 8l-2-1 1.94-2.38C719 14 719 14 720 12" fill="#202125"/></svg>